<svg xmlns="http://www.w3.org/2000/svg" width="116" height="105"><g fill="none" fill-rule="evenodd" transform="translate(-6 -12)"><path fill="#C7E5E5" d="M16.08 99.14h82.39c5.511-.027 9.973-4.489 10-10V22.78c0-5.523-4.477-10-10-10H16.08c-5.523 0-10 4.477-10 10v66.31a10 10 0 0 0 10 10.05z"/><path fill="#84ABAE" d="M111.37 43H96.06c-6.35 0-11.5 4.61-11.5 10.3v3c0 5.69 5.15 10.3 11.5 10.3h15.31a4.93 4.93 0 0 0 5.18-4.6V47.63a4.92 4.92 0 0 0-5.18-4.63"/><path fill="#C7E5E5" d="M101.8 54.81a5.5 5.5 0 1 1-5.5-5.49 5.49 5.49 0 0 1 5.5 5.49"/><circle cx="99.6" cy="94.45" r="22.4" fill="#FF444F" fill-rule="nonzero"/><path fill="#FFF" fill-rule="nonzero" d="M97.34 102.81v-.61c0-1.09.66-1.93 2.26-1.93 1.6 0 2.25.84 2.25 1.93v.61c0 1.09-.66 1.92-2.25 1.92-1.59 0-2.26-.83-2.26-1.92zm1.5-6.49-1.2-7.2V84.2a2.38 2.38 0 0 1 4 0v4.92l-1.17 7.2a.84.84 0 0 1-1.59 0h-.04z"/></g></svg>