<svg xmlns="http://www.w3.org/2000/svg" width="16" height="16"><path fill="var(--fill-color1)" d="M8 1a7 7 0 110 14A7 7 0 018 1zm-.5 10l-2.078.001c.469 1.537 1.267 2.587 2.078 2.901V11zm3.078.001L8.5 11v2.902c.812-.314 1.61-1.364 2.078-2.9zm2.619 0h-1.582c-.26.957-.64 1.794-1.105 2.452A6.031 6.031 0 0013.197 11zm-8.812 0H2.803a6.025 6.025 0 002.687 2.45c-.466-.657-.846-1.493-1.105-2.45zM2.087 6.973l-.002.017A6.04 6.04 0 002.342 10h1.824a12.306 12.306 0 01-.126-3H2.25a.5.5 0 01-.163-.027zm5.413.026H5.043a11.463 11.463 0 00.136 3.002L7.5 10V6.999zm3.457 0H8.5V10h2.321a11.439 11.439 0 00.136-3zm2.955-.028l-.072.02a.503.503 0 01-.09.009h-1.79a12.327 12.327 0 01-.126 3.002h1.824a5.99 5.99 0 00.254-3.03zM5.49 2.547l-.02.01A6.02 6.02 0 002.342 6h1.824c.234-1.377.703-2.575 1.325-3.453zm2.01-.45C6.523 2.476 5.565 3.923 5.18 6l2.32-.001V2.098zm3.01.451l.055.08c.595.87 1.043 2.037 1.27 3.372h1.824a6.02 6.02 0 00-3.15-3.452zm-2.01-.45V6h2.321c-.386-2.076-1.343-3.523-2.32-3.9z"/></svg>