<svg viewBox="0 0 32 32" fill="none" xmlns="http://www.w3.org/2000/svg"><rect width="32" height="32" rx="16" fill="#283991"/><path d="m16.363 3.976-.39-1.201-.39 1.2h-1.264l1.022.743-.39 1.201 1.022-.743 1.021.743-.39-1.2 1.022-.743h-1.263Zm0 22.674-.39-1.202-.39 1.201h-1.264l1.022.742-.39 1.201 1.022-.742 1.021.742-.39-1.2 1.022-.743h-1.263Zm5.832-21.866.39 1.202h1.263l-1.022.742.39 1.201-1.021-.742-1.022.742.39-1.2-1.021-.743h1.263l.39-1.202Zm4.635 5.39-.39-1.201-.39 1.201h-1.263l1.022.742-.39 1.202 1.022-.743 1.021.743-.39-1.202 1.022-.742H26.83Zm-.288 9.382.39 1.201h1.263l-1.022.742.39 1.201-1.021-.742-1.022.742.39-1.2-1.022-.743h1.263l.39-1.201ZM6.048 10.174l-.39-1.201-.39 1.201H4.005l1.022.742-.39 1.202 1.021-.743 1.022.743-.39-1.202 1.021-.742H6.048Zm21.376 3.846.39 1.201h1.264l-1.022.742.39 1.202-1.022-.742-1.021.742.39-1.202-1.022-.742h1.263l.39-1.2ZM5.083 15.221l-.39-1.2-.39 1.2H3.04l1.022.742-.39 1.202 1.021-.742 1.022.742-.39-1.202 1.021-.742H5.083Zm.438 4.335.39 1.201h1.263l-1.021.742.39 1.201-1.022-.742L4.5 22.7l.39-1.2-1.021-.743H5.13l.39-1.201Zm17.247 5.568-.39-1.2-.39 1.2h-1.263l1.022.743-.39 1.2 1.021-.741 1.022.742-.39-1.201 1.021-.743h-1.263ZM9.952 4.784l.39 1.202h1.263l-1.022.742.39 1.201-1.021-.742-1.022.742.39-1.2-1.022-.743h1.263l.39-1.202Zm-.071 20.264-.39-1.202-.39 1.202H7.836l1.022.742-.39 1.2 1.022-.741 1.022.742-.39-1.201 1.021-.742H9.881Z" fill="#F8D12E"/></svg>