<svg viewBox="0 0 32 32" fill="none" xmlns="http://www.w3.org/2000/svg"><rect width="32" height="32" rx="16" fill="#fff"/><path fill-rule="evenodd" clip-rule="evenodd" d="M15.323 0a15.92 15.92 0 0 0-8.297 2.903h18.465A15.922 15.922 0 0 0 17.193 0h-1.87ZM3.898 5.806A15.972 15.972 0 0 0 2 8.709h28.517a15.957 15.957 0 0 0-1.898-2.903H3.898ZM.066 14.544c.087-.997.267-1.967.53-2.903h30.786c.263.936.443 1.906.53 2.903H.066Zm.006 2.904c.093.997.28 1.967.547 2.902h30.74c.268-.935.455-1.905.547-2.902H.072Zm3.624 8.708a15.982 15.982 0 0 1-1.924-2.903h28.434a15.978 15.978 0 0 1-1.924 2.903H3.696Zm11.617 5.789.048.002.049.002a15.751 15.751 0 0 0 9.697-2.889H6.871a15.75 15.75 0 0 0 8.44 2.885Z" fill="#F44336"/><path d="M15.659.008C7.464.175.787 6.501.069 14.548h15.59V.008Z" fill="#283991"/><path d="m3.2 9.04.243.748h.79l-.64.463.245.75-.639-.464-.638.463.244-.749-.639-.463h.79l.243-.748Zm0 2.644.243.75h.79l-.64.462.245.749-.639-.463-.638.463.244-.749-.639-.463h.79l.243-.749Zm2.65-6.611.243.748h.79l-.639.463.244.749-.638-.463-.639.463.244-.749-.638-.463h.789l.244-.748Zm0 2.644.243.75h.79l-.639.462.244.749-.638-.463-.639.463.244-.75-.638-.462h.789l.244-.749Zm0 2.645.243.75h.79l-.639.461.244.75-.638-.464-.639.463.244-.749-.638-.462h.789l.244-.749Zm-4.663 1.96-.244-.749.639-.462h-.79l-.017-.055c-.086.268-.165.538-.237.812l.011-.009.638.463Zm1.374-3.967.638-.463.639.463-.244-.749.638-.463h-.79L3.2 6.395l-.244.748h-.29a15.1 15.1 0 0 0-.16.247l.3.216-.244.75ZM5.85 3.926l.638.462-.244-.748.638-.463h-.456c-.387.288-.76.594-1.119.916l-.096.295.639-.462Zm2.012-.86.638-.463.638.463-.244-.749.638-.463h-.789l-.033-.1c-.267.136-.532.278-.79.429l.185.134-.243.749Zm.638.684.244.749h.789l-.639.463.244.749-.638-.463-.638.463.243-.75-.638-.462h.79L8.5 3.75Zm0 2.645.244.748h.789l-.639.463.244.75-.638-.464-.638.463.243-.749-.638-.463h.79l.243-.748Zm0 2.645.244.748h.789l-.639.463.244.75-.638-.464-.638.463.243-.749-.638-.463h.79L8.5 9.04Zm0 2.644.244.75h.789l-.639.462.244.749-.638-.463-.638.463.243-.749-.638-.463h.79l.243-.749Zm2.65-9.256.244.749h.789l-.638.463.243.748-.638-.462-.638.462.244-.748-.639-.463h.79l.243-.75Zm0 2.645.244.748h.789l-.638.463.243.749-.638-.463-.638.463.244-.749-.639-.463h.79l.243-.748Zm0 2.644.244.75h.789l-.638.462.243.749-.638-.463-.638.463.244-.75-.639-.462h.79l.243-.749Zm0 2.645.244.75h.789l-.638.461.243.75-.638-.464-.638.463.244-.749-.639-.462h.79l.243-.749Zm2.65-9.256.244.748h.79l-.639.463.244.749-.638-.463-.639.463.244-.749-.638-.463h.788l.245-.748Zm0 2.644.244.749h.79l-.639.463.244.749-.638-.463-.639.463.244-.75-.638-.462h.788l.245-.749Zm0 2.645.244.748h.79l-.639.463.244.75-.638-.464-.639.463.244-.749-.638-.463h.788l.245-.748Zm0 2.645.244.748h.79l-.639.463.244.75-.638-.464-.639.463.244-.749-.638-.463h.788l.245-.748Zm0 2.644.244.75h.79l-.639.462.244.749-.638-.463-.639.463.244-.749-.638-.463h.788l.245-.749Z" fill="#EFEFEF"/></svg>