<svg width="160" height="120" xmlns="http://www.w3.org/2000/svg"><defs><linearGradient x1="50%" y1="147.774%" x2="50%" y2="10.759%" id="a"><stop stop-color="#101320" stop-opacity="0" offset="0%"/><stop stop-color="#FFF" stop-opacity=".16" offset="100%"/></linearGradient></defs><g fill="none" fill-rule="evenodd"><path fill="#101320" d="M0 0h160v120H0z"/><path fill="url(#a)" d="M82.243 29.799H65.576l-7.575 22.68L54.97 17l-4.546 35.478h-6.06l-7.576 30.24-3.03-22.68-28.183-7.56L2.501 31.5 0 31.095v77.99h82.243z"/><path d="M83 32c-.142.143-.335-1.45-.536-1.45H66.32l-7.414 22.296c-.264.791-1.422.642-1.477-.19l-2.43-31.736-3.645 31.761a.76.76 0 0 1-.755.685h-5.427l-7.481 29.787c-.144.862-1.386.841-1.5-.024L33.182 60.52 5.105 53.08a.762.762 0 0 1-.158-.368L2.076 32.56 0 32.836v-1.741l2.268-.435a.758.758 0 0 1 1.146.542l3.006 21.09 28.08 7.445a.762.762 0 0 1 .16.375l2.366 17.79 6.755-25.42a.76.76 0 0 1 .748-.636h5.383l4.484-35.16c.093-.929 1.45-.906 1.512.025l2.778 31.986 6.367-19.148a.759.759 0 0 1 .72-.52H82.15L83 32z" fill="#FFF" fill-rule="nonzero"/><rect fill="#191C31" fill-rule="nonzero" x="51.001" y="14" width="105" height="92" rx="2"/><path d="M56 21h32v3H56v-3zm0 43h32v3H56v-3z" fill="#303346"/><rect fill="#34A39A" x="56.001" y="28" width="96" height="28" rx="2"/><path d="M58 28h46l10 14.21L104 56H58a2 2 0 0 1-2-2V30a2 2 0 0 1 2-2z" fill="#4BBFAB"/><path d="M121 36h23v3h-23v-3zm0 9h23v3h-23v-3z" fill="#62B8B1"/><path d="M64 37h10v10H64V37zm13 4h27v3H77v-3z" fill="#74CDBE"/><rect fill="#34A39A" x="56.001" y="71" width="96" height="28" rx="2"/><path d="M58 71h46l10 14.21L104 99H58a2 2 0 0 1-2-2V73a2 2 0 0 1 2-2z" fill="#4BBFAB"/><path d="M121 79h23v3h-23v-3zm0 9h23v3h-23v-3z" fill="#62B8B1"/><path d="M64 80h10v10H64V80zm13 4h27v3H77v-3z" fill="#74CDBE"/></g></svg>