<svg width="160" height="120" xmlns="http://www.w3.org/2000/svg"><g fill="none" fill-rule="evenodd"><path fill="#101320" fill-rule="nonzero" d="M0 0h160v120H0z"/><rect fill="#191C31" fill-rule="nonzero" x="20" y="7" width="120" height="105" rx="2.286"/><path d="M25.714 14.99h36.572v3.423H25.714v-3.424zm0 49.075h36.572v3.424H25.714v-3.424z" fill="#303346"/><rect fill="#34A39A" x="25.714" y="22.978" width="109.714" height="31.957" rx="2.286"/><path d="M27.714 22.978h52.857L92 39.196 80.571 54.935H27.714a2 2 0 0 1-2-2V24.978a2 2 0 0 1 2-2z" fill="#4BBFAB"/><path d="M100 32.109h26.286v3.424H100v-3.424zm0 10.271h26.286v3.424H100V42.38z" fill="#62B8B1"/><path d="M34.857 33.25h11.429v11.413H34.857V33.25zm14.857 4.565h30.857v3.424H49.714v-3.424z" fill="#74CDBE"/><rect fill="#34A39A" x="25.714" y="72.054" width="109.714" height="31.957" rx="2.286"/><path d="M27.714 72.054h52.857L92 88.272 80.571 104.01H27.714a2 2 0 0 1-2-2V74.054a2 2 0 0 1 2-2z" fill="#4BBFAB"/><path d="M100 81.185h26.286v3.424H100v-3.424zm0 10.272h26.286v3.423H100v-3.423z" fill="#62B8B1"/><path d="M34.857 82.326h11.429V93.74H34.857V82.326zm14.857 4.565h30.857v3.424H49.714v-3.424z" fill="#74CDBE"/><path fill="#101320" fill-rule="nonzero" opacity=".733" d="M0 0h160v120H0z"/><path d="M95 57H65a3 3 0 0 0-3 3v18a3 3 0 0 0 3 3h30a3 3 0 0 0 3-3V60a3 3 0 0 0-3-3zm-27-3h24v-3c0-6.627-5.373-12-12-12s-12 5.373-12 12v3zm27 0a6 6 0 0 1 6 6v18a6 6 0 0 1-6 6H65a6 6 0 0 1-6-6V60a6 6 0 0 1 6-6v-3c0-8.284 6.716-15 15-15 8.284 0 15 6.716 15 15v3zM80.3 73.5a6 6 0 1 1 0-12 6 6 0 0 1 0 12zm0-3a3 3 0 1 0 0-6 3 3 0 0 0 0 6zM78.5 74h3v7h-3v-7z" fill="#FFF" fill-rule="nonzero"/></g></svg>