<svg width="128" height="80" viewBox="0 0 128 80" fill="none" xmlns="http://www.w3.org/2000/svg">
<path d="M84.8788 29.4002H83.7254C83.1884 29.4002 82.7509 29.8395 82.7509 30.3819V43.2361C82.7509 46.756 84.9313 49.4697 88.5236 49.4697H90.7943C91.3312 49.4697 91.7687 49.0304 91.7687 48.488V47.6672C91.7687 47.123 91.3276 46.6819 90.7871 46.6855L89.0551 46.6928C86.7301 46.6928 85.9636 45.2284 85.8515 42.0826V35.6158H90.7871C91.3258 35.6158 91.7615 35.1764 91.7615 34.6341V33.8042C91.7615 33.2619 91.3258 32.8226 90.7871 32.8226H85.8515V30.3819C85.8515 29.8395 85.4176 29.402 84.8788 29.402V29.4002ZM111.547 32.8244H110.012C108.107 32.8244 106.586 33.562 105.55 34.7661C104.531 33.562 103.025 32.8244 101.121 32.8244H99.5861C95.8492 32.8244 93.5821 35.6483 93.5821 39.3147V48.488C93.5821 49.0304 94.016 49.4697 94.5547 49.4697H95.7009C96.2397 49.4697 96.6754 49.0304 96.6754 48.488V39.783C96.6754 37.5647 97.7167 35.614 100.353 35.614C102.989 35.614 103.99 37.5665 103.99 39.783V48.488C103.99 49.0304 104.424 49.4697 104.965 49.4697H106.129C106.668 49.4697 107.105 49.0304 107.105 48.488V39.783C107.105 37.5647 108.147 35.614 110.781 35.614C113.415 35.614 114.415 37.5665 114.415 39.783V48.488C114.415 49.0304 114.854 49.4697 115.391 49.4697H116.512C117.05 49.4697 117.486 49.0304 117.486 48.488V39.3129C117.486 35.6483 115.284 32.8244 111.549 32.8244H111.547ZM77.9835 32.8244C74.2484 32.8244 71.9813 35.6483 71.9813 39.3147V48.488C71.9813 49.0304 72.417 49.4697 72.9557 49.4697H74.1001C74.6389 49.4697 75.0764 49.0304 75.0764 48.488V39.783C75.0764 37.5647 76.1177 35.614 78.7519 35.614H80.021C80.5598 35.614 80.9973 35.1746 80.9973 34.6323V33.8061C80.9973 33.2637 80.5579 32.8244 80.021 32.8244H77.9835ZM68.2895 31.0128H66.8848C66.3298 31.0128 65.8814 30.5609 65.8814 30.0004V28.5866C65.8814 28.028 66.3298 27.576 66.8848 27.576H68.2895C68.8428 27.576 69.2911 28.028 69.2911 28.5885V29.9986C69.2911 30.5591 68.8428 31.011 68.2895 31.011V31.0128ZM62.6579 37.646C61.1989 34.1749 57.6537 32.0542 53.8607 32.5116C49.8182 32.9943 46.6707 36.3913 46.4501 40.4862C46.1879 45.3893 50.0695 49.4625 54.8785 49.4625L57.4457 49.4697C57.9845 49.4697 58.4202 49.2039 58.4202 48.6634V47.528C58.4202 46.9875 57.9845 46.7145 57.4494 46.7145H54.996C52.0672 46.7145 49.5904 44.0695 49.5036 41.1208C49.4132 38.0546 51.8593 35.5344 54.8803 35.5344C56.7099 35.5344 58.3985 36.4601 59.3983 38.0112C59.9642 38.8881 60.2643 39.9059 60.2643 40.9545V48.488C60.2643 49.0304 60.6982 49.4697 61.2387 49.4697H62.3488C62.8875 49.4697 63.325 49.0304 63.325 48.488V40.9527C63.325 39.8065 63.1009 38.6928 62.6597 37.6442L62.6579 37.646ZM67.0168 49.4697H68.1702C68.7072 49.4697 69.1447 49.0304 69.1447 48.488V33.8024C69.1447 33.2601 68.7072 32.8208 68.1684 32.8208H67.015C66.478 32.8208 66.0423 33.2601 66.0423 33.8024V48.488C66.0423 49.0304 66.4762 49.4697 67.015 49.4697H67.0168ZM123.512 32.4465V30.8538L122.825 32.4465H122.424L121.756 30.8736V32.4465H121.239V29.9516H121.914L122.64 31.6872L123.367 29.9516H124V32.4465H123.51H123.512ZM120.052 30.4162V32.4465H119.534V30.4162H118.773V29.9498H120.813V30.4162H120.052ZM21.6403 42.7931C21.6403 42.7931 24.4895 44.5305 28.6549 43.6103L29.3727 54.5698C29.4088 55.0941 29.0129 55.5244 28.4922 55.5244H17.8654C17.3411 55.5244 16.9452 55.0941 16.9831 54.5698L17.7117 43.453C18.6825 43.5073 20.0439 43.4078 21.6403 42.7931ZM23.4482 51.6988C24.5872 51.5904 25.1693 50.9269 25.1693 50.0537C25.1693 49.0955 24.6052 48.6073 23.5169 48.4519L23.2403 48.4121C22.6292 48.3271 22.4213 48.1228 22.4213 47.8281C22.4213 47.519 22.6346 47.2984 23.0324 47.2677C23.1101 47.2641 23.168 47.2623 23.2475 47.2677C23.5313 47.2876 23.8116 47.3689 24.0339 47.4792C24.1424 47.5334 24.2581 47.5642 24.3666 47.5642C24.645 47.5642 24.8601 47.3545 24.8601 47.067C24.8601 46.879 24.7752 46.7235 24.589 46.606C24.3413 46.4487 23.911 46.3203 23.45 46.2751V45.5448C23.45 45.3748 23.3126 45.2374 23.1426 45.2374C22.9727 45.2374 22.8353 45.3748 22.8353 45.5448V46.2733C21.8681 46.3764 21.2624 46.9893 21.2624 47.8751C21.2624 48.808 21.85 49.3142 22.9239 49.4625L23.2023 49.5022C23.8278 49.5872 24.0122 49.7807 24.0122 50.0916C24.0122 50.4586 23.7103 50.7153 23.1553 50.7153C22.7684 50.7153 22.4611 50.6141 22.0272 50.3719C21.9368 50.3176 21.8193 50.2796 21.6945 50.2796C21.4016 50.2796 21.1865 50.5038 21.1865 50.7859C21.1865 50.9703 21.2787 51.1511 21.4577 51.2668C21.7596 51.4566 22.2297 51.6555 22.8353 51.7043V52.5811C22.8353 52.7529 22.9727 52.8921 23.1426 52.8921C23.3126 52.8921 23.45 52.7529 23.45 52.5811V51.6988H23.4482ZM36.5157 34.0809C36.7362 29.7636 33.6773 25.5223 29.4974 24.3851C28.5808 24.1356 27.5684 24 26.6445 24C26.4312 24 26.2251 24.0072 26.0299 24.0199C23.0287 24.2314 20.2681 25.7681 18.612 28.1383C17.8419 27.8798 17.0337 27.7478 16.2039 27.7478C14.7576 27.7478 13.3077 28.1527 12.0168 28.9193C9.89073 30.1794 8.4426 32.3127 8.12622 34.6431C5.47403 36.0822 3.85957 38.9604 4.00963 42.0067C4.21573 46.2209 7.74113 49.5239 12.0385 49.5239H16.1533C16.2527 49.5239 16.3341 49.448 16.3431 49.3504L16.533 47.2623C16.5384 47.208 16.5203 47.1556 16.4841 47.1176C16.448 47.076 16.3974 47.0543 16.3431 47.0543H11.8523C10.368 47.0543 8.98135 46.4577 7.95085 45.373C6.92035 44.2883 6.39063 42.8654 6.45572 41.3667C6.54611 39.2804 7.89481 37.3839 9.89073 36.5342L10.3047 36.3588C10.368 36.3317 10.4132 36.272 10.4186 36.2051L10.5199 35.3247C10.6284 33.6 11.6534 32 13.2607 31.0472C14.1755 30.5048 15.1951 30.2192 16.2039 30.2192C16.9777 30.2192 17.7117 30.3819 18.3879 30.7073L19.4364 31.2081C19.5268 31.2497 19.6317 31.2171 19.6823 31.1322L20.3259 30.0185C21.483 28.0117 23.7356 26.6576 26.2016 26.4841C27.0079 26.4298 27.9914 26.5347 28.8592 26.7697C32.0863 27.6483 34.4529 31.1557 34.0244 34.4298L33.8599 35.7062C33.8472 35.8002 33.9069 35.8906 33.9991 35.9141L35.1435 36.2268C37.4992 36.8704 39.1444 39.0399 39.1444 41.5041C39.1444 44.5631 36.7109 47.0543 33.7189 47.0543H30.0109C29.9566 47.0543 29.906 47.076 29.8698 47.1158C29.8337 47.1556 29.8156 47.208 29.821 47.2623L30.0109 49.3504C30.0199 49.448 30.1013 49.5239 30.2007 49.5239H33.7189C38.0614 49.5239 41.5959 45.9262 41.5959 41.5023C41.5959 38.2101 39.5602 35.247 36.5157 34.0809Z" fill="#0083FF"/>
</svg>
