<svg width="128" height="80" viewBox="0 0 128 80" fill="none" xmlns="http://www.w3.org/2000/svg">
<path fill-rule="evenodd" clip-rule="evenodd" d="M122.69 31.0505C122.69 33.2983 120.868 35.1205 118.62 35.1205C116.372 35.1205 114.55 33.2983 114.55 31.0505C114.55 28.8027 116.372 26.9805 118.62 26.9805C120.868 26.9805 122.69 28.8027 122.69 31.0505ZM115.308 31.3303H115.18L115.19 31.3103L115.308 31.3303ZM115.308 31.3303H116.04C116.298 31.3406 116.557 31.3205 116.81 31.2703C117.183 31.181 117.423 30.8185 117.36 30.4403C117.363 30.2618 117.293 30.0898 117.167 29.9636C117.04 29.8373 116.868 29.7676 116.69 29.7703C116.584 29.7514 116.476 29.7514 116.37 29.7703V31.2003H116V30.0503C116 29.8203 115.94 29.7803 115.71 29.7503H115.62V29.6403C116.082 29.5854 116.548 29.5854 117.01 29.6403C117.281 29.6558 117.529 29.7983 117.678 30.0248C117.828 30.2512 117.862 30.535 117.77 30.7903C117.658 31.0683 117.414 31.2712 117.12 31.3303C116.687 31.4665 116.226 31.4939 115.78 31.4103L115.308 31.3303ZM120.57 30.5206C120.57 30.5206 119.89 31.9106 119.77 32.1306C119.65 31.9206 118.99 30.4206 118.99 30.4206C118.845 30.1844 118.759 29.9169 118.74 29.6406H117.98V29.7606H118.06C118.37 29.8006 118.38 29.9006 118.37 30.1606C118.36 30.4206 118.27 31.9006 118.24 32.2806C118.21 32.6606 118.15 32.6606 117.95 32.6606H117.84C117.82 32.6946 117.82 32.7366 117.84 32.7706H118.84V32.6606H118.66C118.45 32.6506 118.45 32.6406 118.45 32.2206C118.45 31.9913 118.474 31.5028 118.495 31.0592L118.495 31.058C118.513 30.6895 118.53 30.3522 118.53 30.2206L118.83 30.9006L119.67 32.7506C119.67 32.7506 120.9 30.2906 120.9 30.2406V32.2406C120.9 32.5406 120.9 32.6406 120.67 32.6406H120.54C120.523 32.6539 120.513 32.6741 120.513 32.6956C120.513 32.7171 120.523 32.7373 120.54 32.7506H121.66V32.6406H121.51C121.28 32.6206 121.28 32.5006 121.28 32.2606V30.1906C121.27 29.8606 121.31 29.7406 121.61 29.7406H121.7C121.73 29.7064 121.73 29.6548 121.7 29.6206H120.93C120.865 29.9397 120.743 30.2446 120.57 30.5206ZM116 31.6104H116.4V32.3004C116.4 32.5304 116.48 32.6004 116.7 32.6304H116.83V32.7603H115.66V32.6504C115.679 32.6413 115.701 32.6413 115.72 32.6504C115.99 32.6504 116.02 32.5904 116.04 32.3204C116.051 32.1661 116.037 32.0379 116.022 31.9097C116.011 31.8136 116 31.7175 116 31.6104Z" fill="#EF1515"/>
<path d="M34.25 37.3802C34.25 36.8202 34.25 36.8202 34.58 36.8202H36.74C36.9947 36.626 37.0558 36.2679 36.88 36.0002H34.65C34.32 36.0002 34.32 35.9802 34.32 35.4502V34.8902C34.2852 33.7743 34.4304 32.66 34.75 31.5902C34.9335 30.975 35.4884 30.5448 36.13 30.5202C36.7515 30.5714 37.3222 30.884 37.7 31.3802C37.8058 31.5283 37.978 31.6144 38.16 31.6102C38.5535 31.6108 38.8787 31.3032 38.9 30.9102C38.9 30.2102 37.99 29.7402 36.99 29.7402C35.4236 29.7735 34.0345 30.7549 33.4799 32.2202C33.0553 33.3127 32.8514 34.4785 32.8799 35.6502C32.8655 35.8249 32.753 35.9761 32.59 36.0402L31.75 36.4502C31.6671 36.5696 31.6937 36.7331 31.8099 36.8202H32.49C32.8799 36.8202 32.8799 36.8602 32.8799 37.3802V41.5002C32.8799 42.9002 32.8599 43.1002 32.1399 43.2002H31.69C31.6233 43.2643 31.5857 43.3528 31.5857 43.4452C31.5857 43.5377 31.6233 43.6261 31.69 43.6902C32.27 43.6302 32.8799 43.6302 33.5599 43.6302C33.8781 43.6302 34.1721 43.6434 34.4851 43.6573C34.8411 43.6732 35.2216 43.6902 35.6899 43.6902C35.8233 43.5541 35.8233 43.3363 35.6899 43.2002H34.99C34.25 43.1402 34.25 42.9002 34.25 41.5002V37.3802Z" fill="white"/>
<path d="M8.53309 38.1043C8.13814 38.0855 7.74356 38.0668 7.35008 38.0503L7.33008 38.1603C7.65005 38.2143 7.96705 38.2727 8.28337 38.331C8.78755 38.4239 9.29008 38.5166 9.80008 38.5903C11.6782 38.9337 13.6109 38.8275 15.4401 38.2803C16.6662 38.0132 17.6829 37.1609 18.1601 36.0003C18.5437 34.9297 18.4064 33.7416 17.7888 32.7867C17.1712 31.8319 16.1438 31.2194 15.0101 31.1303C13.0621 30.9253 11.098 30.9253 9.15008 31.1303C9.09535 31.1469 9.0444 31.1741 9.00008 31.2103C8.91598 31.3642 8.95872 31.5565 9.10008 31.6603L9.47008 31.7103C10.4401 31.8003 10.6701 32.0003 10.6701 32.9403V37.7603H12.3401V31.7603C12.7683 31.6353 13.2179 31.6012 13.6601 31.6603C14.4121 31.6436 15.1381 31.9357 15.669 32.4685C16.1999 33.0013 16.4894 33.7284 16.4701 34.4803C16.7507 36.0541 15.7479 37.5714 14.1901 37.9303C13.121 38.1701 12.024 38.2609 10.9301 38.2003C10.1341 38.1802 9.33373 38.1422 8.53483 38.1043L8.53309 38.1043Z" fill="white"/>
<path d="M12.29 39.2702L10.63 39.1902C10.63 39.505 10.6345 39.8001 10.6389 40.0894C10.6492 40.7649 10.6591 41.409 10.61 42.2002C10.54 43.3302 10.4 43.4302 9.26004 43.5802C9.15677 43.5758 9.05853 43.625 9.00004 43.7102C8.92004 43.8502 9.00004 44.0002 9.14004 44.1002C10.788 43.9852 12.442 43.9852 14.09 44.1002C14.2253 43.9456 14.2253 43.7148 14.09 43.5602H13.56C12.62 43.4502 12.29 43.1802 12.29 42.1802V39.2702Z" fill="white"/>
<path d="M62.9998 46.2102H63.8598V49.2702C63.8598 50.5702 63.2298 51.0102 62.2898 51.0102C62.0449 51.0095 61.8017 50.969 61.5698 50.8902L61.6698 50.2002C61.8453 50.2514 62.027 50.2783 62.2098 50.2802C62.6998 50.2802 62.9998 50.0602 62.9998 49.2802V46.2102Z" fill="white"/>
<path d="M68.1399 50.9102V47.5202H67.2699V49.5602C67.2812 49.6465 67.2812 49.7339 67.2699 49.8202C67.1628 50.0941 66.9037 50.2786 66.6099 50.2902C66.1499 50.2902 65.9699 49.9202 65.9699 49.3502V47.5002H65.1099V49.5002C65.1099 50.6202 65.6799 50.9902 66.2999 50.9902C66.7461 51.0067 67.1651 50.776 67.3899 50.3902V50.9102H68.1399Z" fill="white"/>
<path d="M69.38 50.1403C69.6464 50.2894 69.9449 50.3717 70.25 50.3803C70.63 50.3803 70.8 50.2303 70.8 50.0003C70.8 49.7703 70.66 49.6503 70.24 49.5103C69.57 49.2803 69.29 48.9103 69.3 48.5103C69.3167 48.1924 69.4656 47.896 69.7106 47.6927C69.9556 47.4895 70.2745 47.398 70.59 47.4403C70.9015 47.436 71.2097 47.5045 71.49 47.6403L71.33 48.2503C71.1051 48.1301 70.8549 48.0649 70.6 48.0603C70.3 48.0603 70.13 48.2003 70.13 48.4103C70.13 48.6203 70.29 48.7403 70.72 48.8903C71.34 49.1103 71.63 49.4303 71.63 49.8903C71.63 50.3503 71.15 51.0003 70.25 51.0003C69.9023 51.0008 69.5596 50.9185 69.25 50.7603L69.38 50.1403Z" fill="white"/>
<path d="M73.6798 47.5403V46.5403L72.8298 46.7503V47.5203H72.3398V48.1603H72.8298V49.7803C72.781 50.1364 72.8784 50.4971 73.0998 50.7803C73.2975 50.9714 73.5652 51.0726 73.8398 51.0603C74.0493 51.0638 74.2582 51.0369 74.4598 50.9803V50.3203C74.347 50.3344 74.2327 50.3344 74.1199 50.3203C73.7898 50.3203 73.6798 50.1003 73.6798 49.6903V48.1803H74.4998V47.5403H73.6798Z" fill="white"/>
<path fill-rule="evenodd" clip-rule="evenodd" d="M77.3 47.5202H78V48.0402C78.257 47.6479 78.7015 47.42 79.17 47.4402C79.5951 47.4699 79.9892 47.6731 80.2597 48.0023C80.5302 48.3315 80.6533 48.7575 80.6 49.1802C80.6562 49.6167 80.5323 50.0573 80.2569 50.4006C79.9815 50.7439 79.5783 50.9603 79.14 51.0002C78.7492 51.0325 78.3698 50.8581 78.14 50.5402V52.3102H77.3V47.5202ZM78.16 49.5002C78.1504 49.5799 78.1504 49.6605 78.16 49.7402C78.2436 50.0923 78.5582 50.3407 78.92 50.3402C79.47 50.3402 79.79 49.8902 79.79 49.2102C79.79 48.5302 79.4901 48.1202 78.94 48.1202C78.5651 48.1267 78.245 48.3928 78.17 48.7602C78.1606 48.8299 78.1606 48.9005 78.17 48.9702L78.16 49.5002Z" fill="white"/>
<path fill-rule="evenodd" clip-rule="evenodd" d="M82.6743 50.1211C82.486 49.9554 82.3726 49.7207 82.3599 49.4702H84.6699C84.6772 49.347 84.6772 49.2234 84.6699 49.1002C84.7215 48.6793 84.59 48.2565 84.3089 47.939C84.0277 47.6215 83.6239 47.4399 83.1999 47.4402C82.7297 47.4467 82.2834 47.6488 81.9684 47.998C81.6534 48.3471 81.4981 48.8118 81.5399 49.2802C81.5057 49.7514 81.6802 50.2138 82.0171 50.5449C82.354 50.876 82.8194 51.0425 83.2899 51.0002C83.6964 51.0071 84.1004 50.9358 84.4799 50.7902L84.3599 50.1902C84.0407 50.3101 83.7006 50.3645 83.3599 50.3502C83.1098 50.3694 82.8626 50.2868 82.6743 50.1211ZM83.6915 48.2855C83.8272 48.4442 83.8885 48.6534 83.8599 48.8602H82.3599C82.3644 48.419 82.7094 48.0564 83.1499 48.0302C83.3586 48.0339 83.5558 48.1269 83.6915 48.2855Z" fill="white"/>
<path d="M85.72 47.5202H86.47V48.1702C86.5875 47.75 86.9639 47.4546 87.4 47.4402H87.6V48.2502H87.35C86.9659 48.2411 86.6355 48.52 86.58 48.9002C86.5687 48.9865 86.5687 49.0739 86.58 49.1602V50.9302H85.72V47.5202Z" fill="white"/>
<path d="M88.8599 48.1602V50.9302H89.7199V48.1602H90.4599V47.5202H89.7099V47.3402C89.7099 46.9202 89.8599 46.5702 90.2899 46.5702C90.4127 46.5654 90.5353 46.5858 90.6499 46.6302L90.7099 45.9602C90.5325 45.9024 90.3465 45.8754 90.1599 45.8802C89.8322 45.8741 89.5144 45.9919 89.2699 46.2102C88.9841 46.5268 88.8365 46.9443 88.8599 47.3702V47.5202H88.3999V48.1602H88.8599Z" fill="white"/>
<path fill-rule="evenodd" clip-rule="evenodd" d="M91.8801 49.4702C91.8919 49.7303 92.0122 49.9736 92.2118 50.1409C92.4114 50.3081 92.6719 50.384 92.9301 50.3502C93.2509 50.3582 93.5701 50.3038 93.8701 50.1902L94.0001 50.7902C93.6206 50.9358 93.2166 51.0071 92.8101 51.0002C92.338 51.0456 91.8698 50.8806 91.5306 50.549C91.1913 50.2175 91.0155 49.7533 91.0501 49.2802C91.0082 48.8101 91.1648 48.3438 91.482 47.9943C91.7992 47.6448 92.2482 47.4439 92.7201 47.4402C93.1431 47.4431 93.5449 47.6257 93.8254 47.9423C94.1058 48.259 94.2384 48.68 94.1901 49.1002C94.1985 49.2234 94.1985 49.347 94.1901 49.4702H91.8801ZM93.3801 48.8602C93.4055 48.654 93.343 48.4466 93.208 48.2887C93.073 48.1309 92.8778 48.037 92.6701 48.0302C92.2297 48.0564 91.8846 48.419 91.8801 48.8602H93.3801Z" fill="white"/>
<path d="M96.7398 51.0002C97.0823 51.0139 97.4236 50.9525 97.7398 50.8202L97.5998 50.1903C97.3847 50.2806 97.1531 50.3249 96.9198 50.3202C96.3501 50.266 95.9151 49.7875 95.9151 49.2152C95.9151 48.643 96.3501 48.1645 96.9198 48.1103C97.1478 48.104 97.374 48.152 97.5798 48.2502L97.7298 47.6002C97.4662 47.4935 97.1843 47.4392 96.8998 47.4403C96.3987 47.3999 95.9042 47.5758 95.5412 47.9236C95.1781 48.2714 94.9811 48.7578 94.9998 49.2603C94.9702 49.7302 95.144 50.1902 95.4769 50.5232C95.8099 50.8561 96.2699 51.0299 96.7398 51.0002Z" fill="white"/>
<path d="M99.82 46.5403V47.5403H100.64V48.1803H99.82V49.6903C99.82 50.1003 99.94 50.3203 100.27 50.3203C100.38 50.3339 100.49 50.3339 100.6 50.3203V50.9803C100.402 51.0138 100.2 51.0206 100 51.0003C99.7253 51.0126 99.4577 50.9114 99.26 50.7203C99.0436 50.4347 98.9467 50.076 98.99 49.7203V48.1603H98.5V47.5203H99V46.7503L99.82 46.5403Z" fill="white"/>
<path fill-rule="evenodd" clip-rule="evenodd" d="M18.6101 39.2202C18.6101 38.6902 18.6301 38.6902 19.1401 38.6902H22.7701C23.5901 38.6902 23.8701 38.6702 23.9201 38.5502C23.9846 38.3918 24.012 38.2208 24.0001 38.0502C23.932 37.3762 23.5985 36.757 23.0732 36.3292C22.5479 35.9015 21.8739 35.7003 21.2001 35.7702C18.8601 35.7702 17.2801 37.7802 17.2801 40.1702C17.2685 41.0837 17.5566 41.9759 18.1001 42.7102C18.7911 43.5575 19.8374 44.0344 20.9301 44.0002C22.2309 43.9993 23.4179 43.2584 23.9901 42.0902C23.9857 42.0076 23.9424 41.9321 23.8733 41.8867C23.8042 41.8413 23.7176 41.8315 23.6401 41.8602C23.2592 42.4834 22.5805 42.8625 21.8501 42.8602C19.7601 42.8602 18.6101 41.2202 18.6101 39.2202ZM22.3501 37.9102C22.2201 38.0302 21.7901 38.1102 20.3501 38.1102L18.9601 38.1002C18.8201 38.1002 18.8201 38.0002 18.8201 38.0002C19.0877 37.0257 19.96 36.34 20.9701 36.3102C22.1001 36.3102 22.4701 36.9902 22.4701 37.5402L22.4702 37.59C22.4708 37.7908 22.4709 37.7987 22.3501 37.9102Z" fill="white"/>
<path d="M26.2399 38.0904C26.2399 37.3304 26.2399 37.2304 25.7099 36.8804L25.5299 36.7604C25.448 36.6581 25.448 36.5127 25.5299 36.4104C26.2218 36.1301 26.8906 35.7958 27.5299 35.4104C27.6299 35.4104 27.6899 35.4704 27.6899 35.5504V36.6804C27.6899 36.7804 27.7099 36.8404 27.7499 36.8604C28.3198 36.2516 29.0698 35.8416 29.8899 35.6904C30.1115 35.6711 30.3312 35.7437 30.4976 35.8912C30.6641 36.0387 30.7625 36.2481 30.7699 36.4704C30.778 36.7002 30.6937 36.9237 30.5359 37.0909C30.378 37.2581 30.1598 37.3552 29.9299 37.3604C29.7767 37.362 29.6266 37.3166 29.4999 37.2304C29.2543 37.0437 28.958 36.9357 28.6499 36.9204C28.363 36.9238 28.0967 37.0701 27.9399 37.3104C27.7291 37.7806 27.643 38.2972 27.6899 38.8104V41.5004C27.6899 42.9004 27.6899 43.1404 28.4699 43.2004H29.1699C29.2365 43.2645 29.2742 43.353 29.2742 43.4454C29.2742 43.5378 29.2365 43.6263 29.1699 43.6904C28.6818 43.6904 28.2916 43.6731 27.9297 43.6571C27.6168 43.6433 27.3252 43.6304 27.0099 43.6304C26.3299 43.6304 25.7199 43.6304 25.2099 43.6904C25.0765 43.5543 25.0765 43.3365 25.2099 43.2004H25.5799C26.2999 43.0804 26.3199 42.9004 26.3199 41.5004L26.2399 38.0904Z" fill="white"/>
<path fill-rule="evenodd" clip-rule="evenodd" d="M38.76 38.6901C38.25 38.6901 38.23 38.6901 38.23 39.2201C38.23 41.2201 39.38 42.8601 41.47 42.8601C42.2004 42.8625 42.8791 42.4833 43.26 41.8601C43.3375 41.8314 43.4241 41.8412 43.4932 41.8866C43.5622 41.932 43.6056 42.0076 43.61 42.0901C43.0396 43.26 41.8515 44.0016 40.55 44.0001C39.4572 44.0343 38.411 43.5574 37.72 42.7101C37.1793 41.9749 36.8948 41.0826 36.91 40.1701C36.91 37.7801 38.48 35.7701 40.83 35.7701C42.2327 35.6489 43.4682 36.6874 43.59 38.0901C43.5978 38.2597 43.5741 38.4292 43.52 38.5901C43.46 38.7101 43.18 38.7301 42.36 38.7301L38.76 38.6901ZM40 38.1101C41.44 38.1101 41.87 38.0301 42 37.9101C42.1207 37.7987 42.1207 37.7907 42.1201 37.5899L42.12 37.5401C42.12 36.9901 41.75 36.3101 40.62 36.3101C39.6012 36.328 38.7168 37.0168 38.45 38.0001C38.45 38.0001 38.45 38.1001 38.58 38.1001L40 38.1101Z" fill="white"/>
<path d="M51.0001 36.8402C51.0115 36.5519 50.9071 36.271 50.7101 36.0602C50.1658 35.8442 49.5858 35.7322 49.0001 35.7302C47.783 35.626 46.5782 36.0396 45.6818 36.8695C44.7853 37.6993 44.2801 38.8686 44.2901 40.0902C44.2512 41.1653 44.6605 42.2084 45.4201 42.9702C46.1461 43.6383 47.1039 43.9971 48.0901 43.9702C49.4724 43.9909 50.7423 43.2118 51.3501 41.9702C51.3292 41.7971 51.1736 41.6726 51.0001 41.6902C50.5538 42.4751 49.7017 42.9399 48.8001 42.8902C47.9398 42.872 47.1228 42.5092 46.5324 41.8831C45.942 41.257 45.6278 40.4201 45.6601 39.5602C45.6601 37.4902 46.9901 36.4202 48.3501 36.4202C49.1129 36.4604 49.8224 36.8242 50.3001 37.4202C50.3662 37.5083 50.47 37.5602 50.5801 37.5602C50.8101 37.5602 51.0001 37.1902 51.0001 36.8402Z" fill="white"/>
<path d="M54.87 36.8201C54.54 36.8201 54.52 36.8801 54.52 37.2901V40.9301C54.52 42.0601 54.65 43.1001 55.94 43.1001C56.1213 43.0998 56.301 43.0659 56.47 43.0001C56.5644 42.9668 56.6865 42.8873 56.785 42.8231C56.864 42.7717 56.9278 42.7301 56.95 42.7301C57 42.7301 57.19 42.9401 57.15 43.0601C56.6415 43.6306 55.9143 43.9579 55.15 43.9601C53.47 43.9601 53.15 43.0201 53.15 41.8501V37.3801C53.15 36.8601 53.15 36.8201 52.74 36.8201H52.2C52.0823 36.7166 52.0569 36.5431 52.14 36.4101C52.5875 36.282 53.0101 36.0792 53.39 35.8101C53.7143 35.4621 53.9901 35.0719 54.21 34.6501C54.3 34.6501 54.54 34.6501 54.62 34.7501V35.6301C54.62 35.9801 54.62 36.0001 54.97 36.0001H57.13C57.3411 36.2327 57.3411 36.5876 57.13 36.8201H54.87Z" fill="white"/>
<path d="M69.3537 39.2027C69.2369 38.963 69.1195 38.722 69 38.4802L66.83 34.0102C66.2549 33.0274 65.9128 31.9259 65.83 30.7902C65.21 30.8502 64.7 30.8502 64.21 30.8502C63.9764 30.8502 63.7495 30.8366 63.5122 30.8223C63.2517 30.8067 62.9786 30.7902 62.67 30.7902C62.5293 30.9133 62.4958 31.1188 62.59 31.2802H62.9C64.09 31.4402 64.21 31.7302 64.21 32.9602C64.17 34.0302 64.09 35.6902 64 37.3102C63.8839 39.1764 63.7959 40.1731 63.6818 41.4665L63.67 41.6002C63.55 42.9602 63.28 43.0802 62.46 43.2002H62.03C61.9106 43.3418 61.9106 43.5487 62.03 43.6902C62.7 43.6302 63.29 43.6302 64.03 43.6302C64.4105 43.6302 64.7964 43.6461 65.1712 43.6615C65.5252 43.6761 65.8694 43.6902 66.19 43.6902C66.31 43.6302 66.33 43.3202 66.19 43.2002H65.45C64.69 43.1402 64.57 42.8202 64.57 41.3802C64.57 39.7202 64.65 37.9302 64.71 36.8002C64.7266 36.4863 64.7425 36.1723 64.7585 35.8567C64.8 35.0364 64.8422 34.2038 64.9 33.3302C65.1522 33.8582 65.3976 34.4241 65.6401 34.9834C65.811 35.3774 65.9805 35.7682 66.15 36.1402L67.9 39.9002L68.0264 40.1667C68.5073 41.1791 69.3184 42.8864 69.62 43.8002C69.6657 43.8514 69.7313 43.8806 69.8 43.8802C69.8726 43.8867 69.9438 43.8568 69.99 43.8002C70.34 42.9002 71.22 41.0702 72.1 39.3502L74 35.9002C74.158 35.5923 74.3734 35.1531 74.5831 34.7256L74.5836 34.7246C74.8914 34.0972 75.1867 33.4951 75.27 33.3702L75.33 41.5002C75.33 42.7502 75.33 43.0602 74.33 43.1602H73.77C73.6416 43.2984 73.6416 43.5121 73.77 43.6502C74.56 43.5902 75.41 43.5902 76.12 43.5902C76.4643 43.5902 76.8299 43.6044 77.2064 43.6189C77.606 43.6343 78.018 43.6502 78.43 43.6502C78.5536 43.5103 78.5536 43.3002 78.43 43.1602H77.81C76.8897 43.0866 76.8671 42.6573 76.8226 41.8099C76.8188 41.7365 76.8147 41.66 76.81 41.5802C76.66 38.7702 76.6 35.1602 76.6 33.0902C76.58 31.7302 76.74 31.3602 77.97 31.2402H78.38C78.4793 31.092 78.4793 30.8985 78.38 30.7502C77.77 30.8102 77.13 30.8102 76.64 30.8102C76.1526 30.8152 75.6653 30.7951 75.18 30.7502C75.1439 31.5613 74.6775 32.5103 73.949 33.9926C73.8691 34.1551 73.7859 34.3244 73.7 34.5002L71.84 38.2202C71.7146 38.471 71.5911 38.7224 71.468 38.9728C71.1005 39.7209 70.7369 40.4611 70.34 41.1502C69.9948 40.5188 69.6766 39.8654 69.3537 39.2027Z" fill="white"/>
<path fill-rule="evenodd" clip-rule="evenodd" d="M87.12 39.7603C87.188 40.8832 86.78 41.983 85.996 42.7898C85.212 43.5967 84.1244 44.0361 83 44.0003C81.9274 44.0399 80.8868 43.6313 80.1279 42.8723C79.369 42.1134 78.9603 41.0728 79 40.0003C78.9699 38.8835 79.3968 37.8027 80.1821 37.008C80.9673 36.2133 82.0429 35.7735 83.16 35.7903C84.2169 35.7738 85.2353 36.1871 85.9818 36.9356C86.7283 37.684 87.1391 38.7034 87.12 39.7603ZM82.92 36.3103C81.64 36.3103 80.68 37.5403 80.68 39.6903C80.68 41.4603 81.4799 43.3703 83.2 43.3703C84.92 43.3703 85.44 41.5803 85.44 40.0803C85.44 38.4203 84.78 36.3103 82.92 36.3103Z" fill="white"/>
<path d="M88.0101 36.8803C88.5401 37.2303 88.5401 37.3303 88.5401 38.0903L88.7601 41.5203C88.7601 42.9203 88.7401 43.1203 88.0201 43.2203H87.6101C87.5435 43.2844 87.5059 43.3728 87.5059 43.4653C87.5059 43.5577 87.5435 43.6462 87.6101 43.7103C88.1601 43.6503 88.7601 43.6503 89.44 43.6503C89.8012 43.6503 90.1314 43.6672 90.441 43.6831C90.7143 43.6971 90.9716 43.7103 91.2201 43.7103C91.3484 43.5721 91.3484 43.3584 91.2201 43.2203H90.8701C90.1201 43.1003 90.1201 42.9203 90.1201 41.5203V38.5203C90.0634 38.1061 90.1711 37.6861 90.4201 37.3503C90.8381 36.8835 91.4443 36.63 92.0701 36.6603C92.5886 36.6084 93.1021 36.7985 93.4617 37.1757C93.8212 37.5529 93.9867 38.0748 93.9101 38.5903V41.5003C93.9101 42.9003 93.8901 43.0803 93.1701 43.2003H92.8001C92.6667 43.3364 92.6667 43.5542 92.8001 43.6903C93.3301 43.6303 93.9401 43.6303 94.6201 43.6303C94.9736 43.6303 95.2974 43.6465 95.6083 43.6621C95.8955 43.6764 96.1716 43.6903 96.4501 43.6903C96.5167 43.6262 96.5544 43.5377 96.5544 43.4453C96.5544 43.3528 96.5167 43.2644 96.4501 43.2003H96.0201C95.2801 43.1003 95.2801 42.9003 95.2801 41.5003V38.0903C95.3555 37.454 95.1446 36.8171 94.7042 36.3516C94.2639 35.8862 93.6396 35.6402 93.0001 35.6803C92.0147 35.7526 91.0691 36.099 90.2701 36.6803C90.2127 36.683 90.1567 36.6621 90.1151 36.6224C90.0735 36.5827 90.05 36.5277 90.0501 36.4703V35.5503C90.0165 35.4641 89.9326 35.4082 89.8401 35.4102C89.2114 35.8146 88.5408 36.1499 87.8401 36.4103C87.7498 36.5095 87.7498 36.6611 87.8401 36.7603L88.0101 36.8803Z" fill="white"/>
<path fill-rule="evenodd" clip-rule="evenodd" d="M99 38.6903C98.49 38.6903 98.47 38.6903 98.47 39.2203C98.47 41.2203 99.62 42.8603 101.71 42.8603C102.44 42.8627 103.119 42.4835 103.5 41.8603C103.578 41.8316 103.664 41.8414 103.733 41.8868C103.802 41.9322 103.846 42.0078 103.85 42.0903C103.281 43.2521 102.104 43.9918 100.81 44.0003C99.7174 44.0186 98.6786 43.5269 98 42.6703C97.4565 41.936 97.1684 41.0439 97.18 40.1303C97.18 37.7403 98.76 35.7303 101.1 35.7303C101.775 35.6693 102.447 35.8797 102.967 36.3151C103.487 36.7504 103.812 37.3748 103.87 38.0503C103.882 38.2209 103.855 38.3919 103.79 38.5503C103.73 38.6703 103.46 38.6903 102.64 38.6903H99ZM100.2 38.1103C101.65 38.1103 102.08 38.0303 102.2 37.9103C102.25 37.8604 102.279 37.8312 102.296 37.7962C102.32 37.747 102.32 37.6863 102.32 37.5403C102.32 36.9903 101.95 36.3103 100.82 36.3103C99.8212 36.353 98.9643 37.0361 98.7 38.0003C98.7 38.0003 98.7 38.1003 98.84 38.1003L100.2 38.1103Z" fill="white"/>
<path d="M104.878 47.1285C104.728 47.279 104.651 47.4884 104.67 47.7004C104.65 47.936 104.738 48.1681 104.909 48.3314C105.08 48.4947 105.316 48.5716 105.55 48.5404C106.124 48.5434 106.632 48.1694 106.8 47.6204C107.75 45.5004 109.35 42.1004 110 40.8004L110.95 38.5004C111.6 37.1204 111.96 36.5504 112.6 36.4404L112.94 36.3804C113.007 36.3163 113.044 36.2278 113.044 36.1354C113.044 36.0429 113.007 35.9545 112.94 35.8904C112.39 35.9504 111.95 35.9504 111.45 35.9504C111.213 35.9504 110.957 35.937 110.686 35.9228C110.385 35.907 110.067 35.8904 109.74 35.8904C109.62 35.9504 109.6 36.2804 109.74 36.3804L110.35 36.4804C110.7 36.5304 110.81 36.6704 110.81 36.8104C110.662 37.5011 110.433 38.1723 110.13 38.8104L109.47 40.3504C109.268 40.8483 109.027 41.3298 108.75 41.7904C108.529 41.3437 108.339 40.8827 108.18 40.4104L107.56 38.6104C107.33 38.0137 107.139 37.4024 106.99 36.7804C106.99 36.6404 107.15 36.5304 107.42 36.5304L107.91 36.4304C108.08 36.3304 108.06 36.0004 107.91 35.9404C107.28 36.0004 106.85 36.0004 106.21 36.0004C105.887 36.0004 105.578 35.9851 105.27 35.97C104.968 35.9551 104.668 35.9404 104.36 35.9404C104.2 36.0004 104.18 36.3304 104.3 36.4304L104.79 36.5304C105.441 36.6549 105.597 37.0913 105.899 37.9362C105.912 37.9734 105.926 38.0115 105.94 38.0504L107.46 42.2204C107.653 42.6461 107.764 43.1039 107.79 43.5704C107.764 43.8543 107.7 44.1334 107.6 44.4004C107.292 45.1572 106.913 45.8837 106.47 46.5704C106.333 46.7961 106.084 46.9299 105.82 46.9204H105.45C105.238 46.9018 105.029 46.978 104.878 47.1285Z" fill="white"/>
</svg>
