<svg width="900" height="400" xmlns="http://www.w3.org/2000/svg"><g fill="none" fill-rule="evenodd"><path stroke="#95989A" fill="#FFF" fill-rule="nonzero" d="M.5.5h899v399H.5z"/><g fill="#2A3052"><path d="M330 333h23a1 1 0 0 1 1 1v12h-25v-12a1 1 0 0 1 1-1z" fill-rule="nonzero"/><path d="M371.547 343h-1.131l-4.295-6.574V343h-1.13v-8.531h1.13l4.307 6.603v-6.603h1.119V343zm5.742-.627c-.422.496-1.04.744-1.857.744-.676 0-1.19-.196-1.544-.589-.354-.392-.533-.973-.536-1.743v-4.125h1.084v4.096c0 .96.39 1.441 1.171 1.441.829 0 1.38-.308 1.653-.926v-4.61h1.084V343h-1.031l-.024-.627zm3.72-5.713l.03.703c.465-.547 1.092-.82 1.88-.82.888 0 1.491.34 1.811 1.02.211-.305.486-.551.824-.739.338-.187.737-.281 1.198-.281 1.39 0 2.098.736 2.121 2.209V343h-1.084v-4.184c0-.453-.103-.792-.31-1.016-.208-.225-.555-.337-1.043-.337-.403 0-.737.12-1.002.36-.266.24-.42.564-.463.97V343h-1.09v-4.154c0-.922-.451-1.383-1.354-1.383-.71 0-1.197.303-1.459.908V343h-1.084v-6.34h1.026zm14.866 3.24c0 .97-.223 1.747-.668 2.335-.445.588-1.043.882-1.793.882-.8 0-1.42-.283-1.857-.85l-.053.733h-.996v-9h1.084v3.357c.437-.543 1.04-.814 1.81-.814s1.374.291 1.814.873c.44.582.659 1.379.659 2.39v.094zm-1.084-.123c0-.738-.143-1.308-.428-1.71-.285-.403-.695-.604-1.23-.604-.715 0-1.229.332-1.541.996v2.742c.332.664.85.996 1.553.996.52 0 .923-.2 1.212-.603.29-.403.434-1.008.434-1.817zm5.08 3.34c-.86 0-1.558-.282-2.098-.846-.539-.565-.808-1.32-.808-2.265v-.2c0-.628.12-1.19.36-1.684s.576-.88 1.008-1.16c.432-.28.9-.419 1.403-.419.825 0 1.465.271 1.922.814.457.543.686 1.32.686 2.332v.452h-4.295c.015.625.198 1.13.548 1.514.35.385.794.577 1.333.577.383 0 .707-.078.972-.234.266-.156.498-.363.698-.621l.662.516c-.532.816-1.328 1.224-2.39 1.224zm-.135-5.683c-.437 0-.804.159-1.101.477-.297.318-.48.765-.551 1.339h3.176v-.082c-.031-.55-.18-.978-.446-1.28-.265-.303-.625-.454-1.078-.454zm6.926.199a3.248 3.248 0 0 0-.533-.041c-.711 0-1.193.303-1.447.908v4.5h-1.084v-6.34h1.054l.018.733c.355-.567.86-.85 1.512-.85.21 0 .37.027.48.082v1.008zm3.68 2.138c0-.62.122-1.18.366-1.675a2.732 2.732 0 0 1 1.02-1.149c.435-.27.932-.404 1.49-.404.864 0 1.562.299 2.095.896.534.598.8 1.393.8 2.385v.076c0 .618-.118 1.171-.354 1.662-.237.49-.574.872-1.014 1.145-.44.273-.944.41-1.515.41-.859 0-1.555-.299-2.088-.896-.534-.598-.8-1.389-.8-2.373v-.077zm1.09.13c0 .703.163 1.267.489 1.693.326.426.763.638 1.31.638.55 0 .988-.215 1.312-.647.324-.432.486-1.036.486-1.814 0-.695-.165-1.258-.495-1.69a1.574 1.574 0 0 0-1.315-.647c-.535 0-.967.212-1.295.638-.328.426-.492 1.035-.492 1.828zm6.574 3.099v-5.502h-1.002v-.838h1.002v-.65c0-.68.181-1.205.545-1.576.363-.372.877-.557 1.54-.557.25 0 .499.033.745.1l-.059.878a3.113 3.113 0 0 0-.586-.052c-.351 0-.623.102-.814.307-.191.205-.287.5-.287.882v.668h1.353v.838h-1.353V343h-1.084zm8.074-7.875v1.535h1.184v.838h-1.184v3.932c0 .254.053.444.158.571.106.127.285.19.54.19.124 0 .296-.023.515-.07V343a3.143 3.143 0 0 1-.832.117c-.484 0-.85-.146-1.096-.44-.246-.292-.369-.708-.369-1.247v-3.932h-1.154v-.838h1.154v-1.535h1.084zm5.514 2.508a3.248 3.248 0 0 0-.533-.041c-.711 0-1.194.303-1.448.908v4.5h-1.084v-6.34h1.055l.018.733c.355-.567.859-.85 1.511-.85.211 0 .371.027.48.082v1.008zM436.27 343c-.063-.125-.114-.348-.153-.668-.504.523-1.105.785-1.805.785-.625 0-1.137-.177-1.538-.53-.4-.354-.6-.802-.6-1.345 0-.66.25-1.173.753-1.538.502-.365 1.208-.548 2.118-.548h1.055v-.498c0-.379-.114-.68-.34-.905-.227-.225-.56-.337-1.002-.337-.387 0-.711.098-.973.293-.262.195-.392.432-.392.709h-1.09c0-.316.112-.622.337-.917a2.3 2.3 0 0 1 .914-.7 3.075 3.075 0 0 1 1.268-.258c.73 0 1.303.183 1.717.548.414.365.629.868.645 1.509v2.918c0 .582.074 1.044.222 1.388V343h-1.136zm-1.8-.826c.34 0 .663-.088.967-.264.305-.176.526-.404.663-.685v-1.301h-.85c-1.328 0-1.992.388-1.992 1.166 0 .34.113.605.34.797.226.191.517.287.873.287zm5.438-5.514l.035.797c.485-.61 1.118-.914 1.899-.914 1.34 0 2.015.756 2.027 2.268V343h-1.084v-4.195c-.004-.457-.108-.795-.313-1.014-.205-.219-.525-.328-.958-.328-.352 0-.66.094-.926.281a1.91 1.91 0 0 0-.621.738V343h-1.084v-6.34h1.025zm9.287 4.658c0-.293-.11-.52-.33-.682-.221-.162-.606-.302-1.155-.42-.549-.116-.984-.257-1.307-.421-.322-.164-.56-.36-.715-.586a1.402 1.402 0 0 1-.231-.809c0-.52.22-.959.66-1.318.439-.36 1-.539 1.684-.539.719 0 1.302.186 1.749.557.447.37.67.845.67 1.423h-1.09c0-.296-.125-.552-.377-.767-.252-.215-.57-.322-.952-.322-.395 0-.703.086-.926.257a.812.812 0 0 0-.334.674c0 .262.104.46.31.592.208.133.582.26 1.123.38.54.122.98.267 1.315.434.336.168.585.37.747.607.162.236.243.524.243.864 0 .567-.226 1.02-.68 1.362-.453.342-1.04.513-1.763.513-.508 0-.957-.09-1.348-.27-.39-.179-.696-.43-.917-.752a1.815 1.815 0 0 1-.33-1.046h1.083c.02.363.165.651.437.864.271.213.63.32 1.075.32.41 0 .74-.084.987-.25.248-.166.372-.387.372-.665zm6.41 1.682c-.062-.125-.113-.348-.152-.668-.504.523-1.105.785-1.805.785-.625 0-1.137-.177-1.538-.53-.4-.354-.6-.802-.6-1.345 0-.66.25-1.173.753-1.538.502-.365 1.208-.548 2.118-.548h1.055v-.498c0-.379-.114-.68-.34-.905-.227-.225-.56-.337-1.002-.337-.387 0-.711.098-.973.293-.262.195-.392.432-.392.709h-1.09c0-.316.112-.622.337-.917a2.3 2.3 0 0 1 .914-.7 3.075 3.075 0 0 1 1.268-.258c.73 0 1.303.183 1.717.548.414.365.629.868.645 1.509v2.918c0 .582.074 1.044.222 1.388V343h-1.137zm-1.798-.826c.34 0 .662-.088.966-.264.305-.176.526-.404.663-.685v-1.301h-.85c-1.328 0-1.992.388-1.992 1.166 0 .34.113.605.34.797.226.191.517.287.873.287zm6.955.058c.386 0 .724-.117 1.013-.351.29-.235.45-.527.48-.879h1.026c-.02.363-.144.709-.375 1.037a2.47 2.47 0 0 1-.923.785 2.663 2.663 0 0 1-1.221.293c-.864 0-1.55-.288-2.06-.864-.51-.576-.765-1.364-.765-2.364v-.182c0-.617.114-1.166.34-1.646.227-.48.552-.854.976-1.12.424-.265.925-.398 1.503-.398.71 0 1.302.213 1.772.639.471.425.722.978.753 1.658h-1.025a1.494 1.494 0 0 0-.466-1.01 1.45 1.45 0 0 0-1.034-.396c-.55 0-.978.198-1.28.594-.303.397-.455.97-.455 1.72v.205c0 .73.15 1.293.452 1.688.3.394.73.591 1.289.591zm5.209-7.107v1.535h1.183v.838h-1.183v3.932c0 .254.052.444.158.571.105.127.285.19.539.19.125 0 .297-.023.516-.07V343a3.143 3.143 0 0 1-.832.117c-.485 0-.85-.146-1.096-.44-.246-.292-.37-.708-.37-1.247v-3.932h-1.154v-.838h1.155v-1.535h1.084zm3.627 7.875h-1.084v-6.34h1.084V343zm-1.172-8.021c0-.176.053-.325.16-.446.108-.12.268-.181.478-.181.211 0 .372.06.48.181a.64.64 0 0 1 .165.446.62.62 0 0 1-.164.439c-.11.117-.27.176-.48.176-.211 0-.37-.059-.478-.176a.626.626 0 0 1-.161-.44zm2.619 4.792c0-.62.122-1.18.366-1.675a2.732 2.732 0 0 1 1.02-1.149c.435-.27.932-.404 1.49-.404.864 0 1.562.299 2.096.896.533.598.8 1.393.8 2.385v.076c0 .618-.119 1.171-.355 1.662-.236.49-.574.872-1.014 1.145-.44.273-.944.41-1.514.41-.86 0-1.556-.299-2.09-.896-.532-.598-.8-1.389-.8-2.373v-.077zm1.09.13c0 .703.163 1.267.489 1.693.326.426.763.638 1.31.638.55 0 .988-.215 1.312-.647.324-.432.486-1.036.486-1.814 0-.695-.165-1.258-.495-1.69a1.574 1.574 0 0 0-1.315-.647c-.535 0-.967.212-1.295.638-.328.426-.492 1.035-.492 1.828zm7.066-3.24l.035.796c.485-.61 1.118-.914 1.899-.914 1.34 0 2.015.756 2.027 2.268V343h-1.084v-4.195c-.004-.457-.108-.795-.313-1.014-.205-.219-.525-.328-.958-.328-.352 0-.66.094-.926.281a1.91 1.91 0 0 0-.621.738V343h-1.084v-6.34h1.025zm9.287 4.657c0-.293-.11-.52-.33-.682-.221-.162-.606-.302-1.155-.42-.549-.116-.984-.257-1.307-.421-.322-.164-.56-.36-.715-.586a1.402 1.402 0 0 1-.231-.809c0-.52.22-.959.66-1.318.439-.36 1-.539 1.684-.539.719 0 1.302.186 1.749.557.447.37.67.845.67 1.423h-1.09c0-.296-.125-.552-.377-.767-.252-.215-.57-.322-.952-.322-.395 0-.703.086-.926.257a.812.812 0 0 0-.334.674c0 .262.103.46.31.592.208.133.582.26 1.123.38.54.122.98.267 1.315.434.336.168.585.37.747.607.162.236.243.524.243.864 0 .567-.226 1.02-.68 1.362-.453.342-1.04.513-1.763.513-.508 0-.957-.09-1.348-.27-.39-.179-.696-.43-.917-.752a1.815 1.815 0 0 1-.33-1.046h1.083c.02.363.165.651.437.864.271.213.63.32 1.075.32.41 0 .74-.084.987-.25.248-.166.372-.387.372-.665zm5.18-1.547c0-.62.122-1.18.366-1.675a2.732 2.732 0 0 1 1.02-1.149c.435-.27.932-.404 1.49-.404.864 0 1.562.299 2.096.896.533.598.8 1.393.8 2.385v.076c0 .618-.119 1.171-.355 1.662-.236.49-.574.872-1.014 1.145-.44.273-.944.41-1.514.41-.86 0-1.556-.299-2.09-.896-.532-.598-.799-1.389-.799-2.373v-.077zm1.09.13c0 .703.163 1.267.49 1.693.325.426.762.638 1.309.638.55 0 .988-.215 1.312-.647.324-.432.486-1.036.486-1.814 0-.695-.165-1.258-.495-1.69a1.574 1.574 0 0 0-1.315-.647c-.535 0-.967.212-1.295.638-.328.426-.492 1.035-.492 1.828zm7.066-3.24l.035.796c.485-.61 1.118-.914 1.899-.914 1.34 0 2.015.756 2.027 2.268V343h-1.084v-4.195c-.004-.457-.108-.795-.313-1.014-.205-.219-.525-.328-.958-.328-.352 0-.66.094-.926.281a1.91 1.91 0 0 0-.621.738V343h-1.084v-6.34h1.025zm8.737 6.339v-8.531h2.789c.925 0 1.622.191 2.088.574.467.383.7.95.7 1.7 0 .398-.113.75-.34 1.057a2.203 2.203 0 0 1-.925.712c.461.129.825.374 1.093.735.267.361.401.792.401 1.292 0 .766-.248 1.367-.744 1.805-.496.437-1.197.656-2.103.656h-2.96zm1.125-3.99v3.07h1.857c.523 0 .936-.136 1.24-.407.302-.272.453-.646.453-1.122 0-1.028-.558-1.541-1.675-1.541h-1.875zm0-.903h1.699c.492 0 .886-.123 1.18-.369.295-.246.443-.58.443-1.002 0-.468-.137-.81-.41-1.022-.274-.213-.69-.32-1.248-.32h-1.664v2.713zm7.353 4.893h-1.084v-6.34h1.084V343zm-1.172-8.021c0-.176.054-.325.161-.446.108-.12.267-.181.478-.181.21 0 .371.06.48.181a.64.64 0 0 1 .164.446.62.62 0 0 1-.164.439c-.109.117-.27.176-.48.176-.211 0-.37-.059-.478-.176a.626.626 0 0 1-.16-.44zm3.932 1.681l.035.797c.484-.61 1.117-.914 1.898-.914 1.34 0 2.016.756 2.028 2.268V343h-1.084v-4.195c-.004-.457-.109-.795-.314-1.014-.205-.219-.524-.328-.958-.328-.351 0-.66.094-.925.281a1.91 1.91 0 0 0-.622.738V343h-1.084v-6.34h1.026zm9.51 6.34c-.063-.125-.114-.348-.153-.668-.504.523-1.105.785-1.804.785-.625 0-1.138-.177-1.539-.53-.4-.354-.6-.802-.6-1.345 0-.66.25-1.173.753-1.538.502-.365 1.208-.548 2.118-.548h1.055v-.498c0-.379-.114-.68-.34-.905-.227-.225-.56-.337-1.002-.337-.387 0-.711.098-.973.293-.262.195-.392.432-.392.709h-1.09c0-.316.112-.622.337-.917a2.3 2.3 0 0 1 .914-.7 3.075 3.075 0 0 1 1.268-.258c.73 0 1.303.183 1.717.548.414.365.629.868.645 1.509v2.918c0 .582.074 1.044.222 1.388V343h-1.136zm-1.8-.826c.34 0 .663-.088.968-.264.304-.176.525-.404.662-.685v-1.301h-.85c-1.328 0-1.992.388-1.992 1.166 0 .34.113.605.34.797.226.191.517.287.873.287zm7.477-4.541a3.248 3.248 0 0 0-.533-.041c-.71 0-1.193.303-1.447.908v4.5h-1.084v-6.34h1.055l.017.733c.356-.567.86-.85 1.512-.85.21 0 .371.027.48.082v1.008zm3.176 3.78l1.477-4.753h1.16l-2.549 7.319c-.395 1.054-1.021 1.582-1.88 1.582l-.206-.018-.404-.076v-.88l.293.024c.367 0 .653-.074.858-.222.205-.149.374-.42.507-.815l.24-.644-2.262-6.27h1.184l1.582 4.752zm3 1.019c0-.188.056-.344.167-.47.111-.124.278-.187.501-.187.223 0 .392.063.507.188a.665.665 0 0 1 .173.469.63.63 0 0 1-.173.45c-.115.122-.284.182-.507.182-.223 0-.39-.06-.5-.181a.641.641 0 0 1-.168-.451zm5.678-.2c.387 0 .724-.117 1.014-.351.289-.235.449-.527.48-.879h1.025c-.02.363-.144.709-.375 1.037a2.47 2.47 0 0 1-.922.785 2.663 2.663 0 0 1-1.222.293c-.863 0-1.55-.288-2.06-.864-.51-.576-.764-1.364-.764-2.364v-.182c0-.617.113-1.166.34-1.646.226-.48.551-.854.975-1.12.424-.265.925-.398 1.503-.398.71 0 1.302.213 1.772.639.471.425.722.978.753 1.658h-1.025a1.494 1.494 0 0 0-.466-1.01 1.45 1.45 0 0 0-1.034-.396c-.55 0-.978.198-1.28.594-.303.397-.454.97-.454 1.72v.205c0 .73.15 1.293.45 1.688.302.394.731.591 1.29.591zm3.451-2.46c0-.622.122-1.18.366-1.676a2.732 2.732 0 0 1 1.02-1.149c.435-.27.932-.404 1.491-.404.863 0 1.561.299 2.095.896.533.598.8 1.393.8 2.385v.076c0 .618-.119 1.171-.355 1.662-.236.49-.574.872-1.014 1.145-.44.273-.944.41-1.514.41-.86 0-1.556-.299-2.09-.896-.532-.598-.799-1.389-.799-2.373v-.077zm1.09.128c0 .704.163 1.268.49 1.694.325.426.762.638 1.309.638.55 0 .988-.215 1.312-.647.324-.432.487-1.036.487-1.814 0-.695-.166-1.258-.496-1.69a1.574 1.574 0 0 0-1.315-.647c-.535 0-.967.212-1.295.638-.328.426-.492 1.035-.492 1.828zm7.06-3.24l.03.703c.465-.547 1.091-.82 1.88-.82.887 0 1.49.34 1.811 1.02.211-.305.485-.551.823-.739.338-.187.738-.281 1.199-.281 1.39 0 2.097.736 2.12 2.209V343h-1.083v-4.184c0-.453-.104-.792-.31-1.016-.208-.225-.556-.337-1.044-.337-.402 0-.736.12-1.002.36-.265.24-.42.564-.463.97V343h-1.09v-4.154c0-.922-.45-1.383-1.353-1.383-.711 0-1.197.303-1.459.908V343h-1.084v-6.34h1.025z"/></g><g fill="#DEDEDE" fill-rule="nonzero"><path d="M115 281h747v2H115zM115 237h747v2H115zM115 193h747v2H115zM115 149h747v2H115zM115 105h747v2H115zM115 61h747v2H115z"/></g><path d="M831.299 299h-5.59v-.78l2.953-3.28c.438-.497.74-.9.905-1.21a2.02 2.02 0 0 0 .25-.964c0-.446-.135-.81-.405-1.096-.27-.285-.629-.428-1.078-.428-.54 0-.958.154-1.257.46-.299.307-.448.734-.448 1.28h-1.084c0-.785.253-1.42.759-1.904s1.182-.726 2.03-.726c.793 0 1.42.208 1.88.624.462.416.692.97.692 1.66 0 .84-.535 1.84-1.605 3l-2.285 2.48h4.283V299zm6.498-3.639c0 1.27-.217 2.213-.65 2.83-.434.618-1.112.926-2.034.926-.91 0-1.584-.302-2.021-.905-.438-.604-.664-1.505-.68-2.704v-1.447c0-1.254.217-2.186.65-2.795.434-.61 1.114-.914 2.04-.914.918 0 1.593.294 2.027.881.434.588.656 1.496.668 2.722v1.406zm-1.084-1.482c0-.918-.129-1.587-.387-2.007-.258-.42-.666-.63-1.224-.63-.555 0-.96.21-1.213.627-.254.418-.385 1.06-.393 1.928v1.734c0 .922.134 1.603.401 2.042.268.44.673.66 1.216.66.535 0 .933-.208 1.193-.622.26-.414.395-1.066.407-1.957v-1.775zm6.035 5.121h-1.09v-7.225l-2.185.803v-.984l3.105-1.166h.17V299zm7.33-3.75c-.226.27-.497.486-.811.65-.315.164-.66.246-1.035.246-.492 0-.92-.12-1.286-.363a2.362 2.362 0 0 1-.846-1.022c-.2-.44-.3-.925-.3-1.456 0-.57.11-1.084.326-1.541.217-.457.524-.807.923-1.05.398-.241.863-.362 1.394-.362.844 0 1.51.315 1.995.946.487.63.73 1.491.73 2.58v.317c0 1.66-.328 2.872-.984 3.636-.657.764-1.647 1.155-2.971 1.175h-.211v-.914h.228c.895-.016 1.582-.25 2.063-.7.48-.452.742-1.165.785-2.142zm-1.67 0c.363 0 .698-.111 1.005-.334.307-.223.53-.498.671-.826v-.434c0-.71-.154-1.289-.463-1.734-.309-.445-.7-.668-1.172-.668-.476 0-.86.183-1.148.548-.29.365-.434.846-.434 1.444 0 .582.14 1.062.42 1.439.278.377.652.565 1.121.565z" fill="#000"/><path d="M828 97h23a1 1 0 0 1 1 1v183h-25V98a1 1 0 0 1 1-1z" fill="#2A3052" fill-rule="nonzero" opacity=".6"/><path d="M839.323 212.221c1.125 0 2.032.258 2.72.773.689.515 1.033 1.212 1.033 2.091 0 .898-.285 1.605-.855 2.12h3.562v1.264h-10.24v-1.155l.82-.062c-.638-.515-.957-1.23-.957-2.146 0-.889.335-1.592 1.005-2.109.67-.517 1.602-.776 2.796-.776h.116zm-.144 1.265c-.834 0-1.492.178-1.975.533-.483.356-.725.843-.725 1.463 0 .766.34 1.34 1.019 1.723h3.534c.674-.379 1.011-.957 1.011-1.737 0-.606-.24-1.088-.72-1.446-.482-.357-1.196-.536-2.144-.536zm-2.502-6.446a3.79 3.79 0 0 0-.048.622c0 .83.354 1.392 1.06 1.688h5.25v1.265h-7.397v-1.23l.855-.021c-.66-.415-.991-1.003-.991-1.764 0-.246.032-.433.095-.56h1.176zm2.495-.69c-.724 0-1.376-.143-1.955-.428a3.187 3.187 0 0 1-1.34-1.19c-.314-.508-.471-1.088-.471-1.74 0-1.006.348-1.821 1.046-2.443.697-.622 1.624-.933 2.782-.933h.089c.72 0 1.366.138 1.938.413a3.14 3.14 0 0 1 1.336 1.183c.32.513.479 1.102.479 1.767 0 1.003-.349 1.815-1.046 2.437-.697.622-1.62.933-2.769.933h-.089zm.15-1.272c.821 0 1.48-.19 1.976-.571.497-.38.745-.89.745-1.528 0-.643-.251-1.153-.755-1.531-.503-.379-1.209-.568-2.116-.568-.81 0-1.468.193-1.972.578-.503.385-.755.897-.755 1.535 0 .624.248 1.128.745 1.51.497.383 1.208.575 2.133.575zm-3.78-8.354h8.251c1.422 0 2.133.645 2.133 1.935 0 .278-.04.535-.123.772h-1.011c.036-.146.054-.337.054-.574 0-.283-.076-.498-.229-.646-.152-.148-.418-.222-.796-.222h-8.279v-1.265zm-1.961 1.395a.758.758 0 0 1-.517-.188c-.143-.126-.215-.31-.215-.55 0-.247.07-.434.212-.561a.747.747 0 0 1 .52-.192c.205 0 .376.064.512.192.137.127.205.314.205.56 0 .246-.068.431-.205.554a.738.738 0 0 1-.512.185zm9.495-6.501c0 1.002-.33 1.818-.988 2.447-.659.629-1.54.943-2.642.943h-.233c-.733 0-1.388-.14-1.965-.42a3.28 3.28 0 0 1-1.353-1.176 2.956 2.956 0 0 1-.49-1.637c0-.962.317-1.71.951-2.242.633-.533 1.54-.8 2.72-.8h.527v5.01c.73-.018 1.318-.23 1.767-.639.449-.407.673-.926.673-1.555 0-.446-.09-.825-.273-1.134a2.851 2.851 0 0 0-.725-.814l.602-.772c.952.62 1.429 1.55 1.429 2.789zm-6.631.157c0 .51.186.939.557 1.285.371.346.892.56 1.562.643v-3.705h-.096c-.642.036-1.14.21-1.493.52-.354.309-.53.728-.53 1.257zm5.598-7.472c0-.451-.136-.845-.41-1.182a1.443 1.443 0 0 0-1.025-.56v-1.197c.424.023.827.168 1.21.437.383.27.688.628.916 1.077.228.449.342.924.342 1.425 0 1.007-.336 1.808-1.009 2.403-.672.595-1.591.892-2.758.892h-.212c-.72 0-1.36-.132-1.92-.396a3.02 3.02 0 0 1-1.306-1.139c-.31-.494-.465-1.078-.465-1.753 0-.83.248-1.519.745-2.068.497-.549 1.141-.842 1.934-.878v1.196c-.478.037-.871.218-1.179.544-.307.325-.461.728-.461 1.206 0 .643.231 1.14.694 1.494.462.353 1.131.53 2.006.53h.24c.851 0 1.508-.176 1.968-.527.46-.35.69-.852.69-1.504zm-8.292-6.077h1.791v-1.38h.978v1.38h4.587c.296 0 .518-.061.666-.184.149-.124.223-.333.223-.63 0-.145-.028-.346-.082-.601h1.025c.091.333.137.656.137.97 0 .566-.171.992-.513 1.28-.342.286-.827.43-1.456.43h-4.587v1.346h-.978v-1.346h-1.79v-1.265zm9.325-5.927c0 1.003-.33 1.819-.988 2.448-.659.628-1.54.943-2.642.943h-.233c-.733 0-1.388-.14-1.965-.42a3.28 3.28 0 0 1-1.353-1.176 2.956 2.956 0 0 1-.49-1.637c0-.962.317-1.71.951-2.243.633-.533 1.54-.8 2.72-.8h.527v5.011c.73-.018 1.318-.231 1.767-.639.449-.408.673-.926.673-1.555 0-.447-.09-.825-.273-1.135a2.851 2.851 0 0 0-.725-.813l.602-.773c.952.62 1.429 1.55 1.429 2.79zm-6.631.158c0 .51.186.938.557 1.285.371.346.892.56 1.562.642v-3.705h-.096c-.642.037-1.14.21-1.493.52-.354.31-.53.729-.53 1.258zm2.734-4.198c-1.135 0-2.047-.269-2.738-.806-.69-.538-1.035-1.242-1.035-2.113 0-.866.296-1.551.888-2.057h-3.855v-1.265h10.5v1.162l-.793.062c.62.506.93 1.21.93 2.112 0 .857-.351 1.555-1.053 2.095-.702.54-1.618.81-2.748.81h-.096zm.144-1.264c.838 0 1.495-.174 1.969-.52.473-.346.71-.825.71-1.435 0-.803-.36-1.388-1.08-1.757h-3.397c-.697.378-1.046.959-1.046 1.743 0 .62.24 1.103.718 1.45.478.345 1.187.519 2.126.519z" fill="#FFF"/><path d="M796.299 299h-5.59v-.78l2.953-3.28c.438-.497.74-.9.905-1.21a2.02 2.02 0 0 0 .25-.964c0-.446-.135-.81-.405-1.096-.27-.285-.629-.428-1.078-.428-.54 0-.958.154-1.257.46-.299.307-.448.734-.448 1.28h-1.084c0-.785.253-1.42.759-1.904s1.182-.726 2.03-.726c.793 0 1.42.208 1.88.624.462.416.692.97.692 1.66 0 .84-.535 1.84-1.605 3l-2.285 2.48h4.283V299zm6.498-3.639c0 1.27-.217 2.213-.65 2.83-.434.618-1.112.926-2.034.926-.91 0-1.584-.302-2.021-.905-.438-.604-.664-1.505-.68-2.704v-1.447c0-1.254.217-2.186.65-2.795.434-.61 1.114-.914 2.04-.914.918 0 1.593.294 2.027.881.434.588.656 1.496.668 2.722v1.406zm-1.084-1.482c0-.918-.129-1.587-.387-2.007-.258-.42-.666-.63-1.224-.63-.555 0-.96.21-1.213.627-.254.418-.385 1.06-.393 1.928v1.734c0 .922.134 1.603.401 2.042.268.44.673.66 1.216.66.535 0 .933-.208 1.193-.622.26-.414.395-1.066.407-1.957v-1.775zm6.035 5.121h-1.09v-7.225l-2.185.803v-.984l3.105-1.166h.17V299zm8.35-6.305c0 .426-.113.805-.337 1.137a2.292 2.292 0 0 1-.911.78c.445.19.797.47 1.057.837.26.367.39.783.39 1.248 0 .739-.25 1.326-.747 1.764-.498.437-1.154.656-1.966.656-.82 0-1.478-.22-1.972-.659-.494-.44-.74-1.026-.74-1.76 0-.462.125-.878.377-1.249.252-.37.6-.652 1.046-.844a2.236 2.236 0 0 1-.897-.779 2.01 2.01 0 0 1-.328-1.13c0-.72.23-1.29.692-1.712.46-.422 1.068-.632 1.822-.632.75 0 1.356.21 1.82.632.462.422.694.993.694 1.711zm-.885 3.979c0-.477-.151-.865-.454-1.166-.303-.301-.698-.451-1.187-.451-.488 0-.88.148-1.175.445-.294.297-.442.687-.442 1.172 0 .484.144.865.43 1.142.288.278.687.416 1.199.416.508 0 .906-.14 1.195-.419.29-.279.434-.659.434-1.14zm-1.629-5.432c-.426 0-.77.132-1.034.396-.264.263-.396.622-.396 1.075 0 .433.13.784.39 1.052.26.267.606.401 1.04.401.434 0 .78-.134 1.04-.401.26-.268.39-.619.39-1.052 0-.434-.135-.787-.405-1.06-.27-.274-.611-.41-1.025-.41z" fill="#000"/><path d="M792 129h23a1 1 0 0 1 1 1v151h-25V130a1 1 0 0 1 1-1z" fill="#2A3052" fill-rule="nonzero"/><path d="M761.299 299h-5.59v-.78l2.953-3.28c.438-.497.74-.9.905-1.21a2.02 2.02 0 0 0 .25-.964c0-.446-.135-.81-.405-1.096-.27-.285-.629-.428-1.078-.428-.54 0-.958.154-1.257.46-.299.307-.448.734-.448 1.28h-1.084c0-.785.253-1.42.759-1.904s1.182-.726 2.03-.726c.793 0 1.42.208 1.88.624.462.416.692.97.692 1.66 0 .84-.535 1.84-1.605 3l-2.285 2.48h4.283V299zm6.498-3.639c0 1.27-.217 2.213-.65 2.83-.434.618-1.112.926-2.034.926-.91 0-1.584-.302-2.021-.905-.438-.604-.664-1.505-.68-2.704v-1.447c0-1.254.217-2.186.65-2.795.434-.61 1.114-.914 2.04-.914.918 0 1.593.294 2.027.881.434.588.656 1.496.668 2.722v1.406zm-1.084-1.482c0-.918-.129-1.587-.387-2.007-.258-.42-.666-.63-1.224-.63-.555 0-.96.21-1.213.627-.254.418-.385 1.06-.393 1.928v1.734c0 .922.134 1.603.401 2.042.268.44.673.66 1.216.66.535 0 .933-.208 1.193-.622.26-.414.395-1.066.407-1.957v-1.775zm6.035 5.121h-1.09v-7.225l-2.185.803v-.984l3.105-1.166h.17V299zm8.684-7.922L777.898 299h-1.136l3.521-7.64h-4.617v-.891h5.766v.61z" fill="#000"/><path d="M757 119h23a1 1 0 0 1 1 1v161h-25V120a1 1 0 0 1 1-1z" fill="#2A3052" fill-rule="nonzero"/><path d="M726.299 299h-5.59v-.78l2.953-3.28c.438-.497.74-.9.905-1.21a2.02 2.02 0 0 0 .25-.964c0-.446-.135-.81-.405-1.096-.27-.285-.629-.428-1.078-.428-.54 0-.958.154-1.257.46-.299.307-.448.734-.448 1.28h-1.084c0-.785.253-1.42.759-1.904s1.182-.726 2.03-.726c.793 0 1.42.208 1.88.624.462.416.692.97.692 1.66 0 .84-.535 1.84-1.605 3l-2.285 2.48h4.283V299zm6.498-3.639c0 1.27-.217 2.213-.65 2.83-.434.618-1.112.926-2.034.926-.91 0-1.584-.302-2.021-.905-.438-.604-.664-1.505-.68-2.704v-1.447c0-1.254.217-2.186.65-2.795.434-.61 1.114-.914 2.04-.914.918 0 1.593.294 2.027.881.434.588.656 1.496.668 2.722v1.406zm-1.084-1.482c0-.918-.129-1.587-.387-2.007-.258-.42-.666-.63-1.224-.63-.555 0-.96.21-1.213.627-.254.418-.385 1.06-.393 1.928v1.734c0 .922.134 1.603.401 2.042.268.44.673.66 1.216.66.535 0 .933-.208 1.193-.622.26-.414.395-1.066.407-1.957v-1.775zm6.035 5.121h-1.09v-7.225l-2.185.803v-.984l3.105-1.166h.17V299zm7.43-8.537v.92h-.2c-.843.015-1.515.265-2.015.75-.5.484-.79 1.166-.867 2.045.449-.516 1.062-.774 1.84-.774.742 0 1.335.262 1.778.785.443.524.665 1.2.665 2.028 0 .879-.24 1.582-.718 2.11-.478.527-1.12.79-1.925.79-.816 0-1.478-.313-1.986-.94s-.762-1.435-.762-2.423v-.416c0-1.57.335-2.77 1.005-3.6.67-.83 1.667-1.256 2.991-1.275h.194zm-1.424 3.844a1.73 1.73 0 0 0-1.025.334 1.74 1.74 0 0 0-.65.838v.398c0 .703.157 1.27.474 1.7.316.429.71.644 1.183.644.489 0 .872-.18 1.152-.54.279-.359.419-.83.419-1.411 0-.586-.142-1.06-.425-1.421a1.362 1.362 0 0 0-1.128-.542z" fill="#000"/><path d="M722 162h23a1 1 0 0 1 1 1v118h-25V163a1 1 0 0 1 1-1z" fill="#2A3052" fill-rule="nonzero"/><path d="M691.299 299h-5.59v-.78l2.953-3.28c.438-.497.74-.9.905-1.21a2.02 2.02 0 0 0 .25-.964c0-.446-.135-.81-.405-1.096-.27-.285-.629-.428-1.078-.428-.54 0-.958.154-1.257.46-.299.307-.448.734-.448 1.28h-1.084c0-.785.253-1.42.759-1.904s1.182-.726 2.03-.726c.793 0 1.42.208 1.88.624.462.416.692.97.692 1.66 0 .84-.535 1.84-1.605 3l-2.285 2.48h4.283V299zm6.498-3.639c0 1.27-.217 2.213-.65 2.83-.434.618-1.112.926-2.034.926-.91 0-1.584-.302-2.021-.905-.438-.604-.664-1.505-.68-2.704v-1.447c0-1.254.217-2.186.65-2.795.434-.61 1.114-.914 2.04-.914.918 0 1.593.294 2.027.881.434.588.656 1.496.668 2.722v1.406zm-1.084-1.482c0-.918-.129-1.587-.387-2.007-.258-.42-.666-.63-1.224-.63-.555 0-.96.21-1.213.627-.254.418-.385 1.06-.393 1.928v1.734c0 .922.134 1.603.401 2.042.268.44.673.66 1.216.66.535 0 .933-.208 1.193-.622.26-.414.395-1.066.407-1.957v-1.775zm6.035 5.121h-1.09v-7.225l-2.185.803v-.984l3.105-1.166h.17V299zm3.674-4.277l.433-4.254h4.372v1.002h-3.452l-.257 2.326c.418-.246.892-.37 1.423-.37.778 0 1.395.258 1.852.771.457.514.686 1.208.686 2.083 0 .88-.238 1.572-.712 2.077-.475.506-1.138.76-1.99.76-.754 0-1.369-.21-1.845-.628-.477-.418-.748-.996-.815-1.734h1.026c.066.488.24.856.521 1.104.281.248.652.372 1.113.372.504 0 .9-.171 1.187-.515.287-.344.43-.819.43-1.424 0-.57-.155-1.028-.465-1.374-.31-.346-.724-.519-1.24-.519-.472 0-.843.104-1.113.31l-.287.235-.867-.222z" fill="#000"/><path d="M687 159h23a1 1 0 0 1 1 1v121h-25V160a1 1 0 0 1 1-1z" fill="#2A3052" fill-rule="nonzero"/><path d="M656.299 299h-5.59v-.78l2.953-3.28c.438-.497.74-.9.905-1.21a2.02 2.02 0 0 0 .25-.964c0-.446-.135-.81-.405-1.096-.27-.285-.629-.428-1.078-.428-.54 0-.958.154-1.257.46-.299.307-.448.734-.448 1.28h-1.084c0-.785.253-1.42.759-1.904s1.182-.726 2.03-.726c.793 0 1.42.208 1.88.624.462.416.692.97.692 1.66 0 .84-.535 1.84-1.605 3l-2.285 2.48h4.283V299zm6.498-3.639c0 1.27-.217 2.213-.65 2.83-.434.618-1.112.926-2.034.926-.91 0-1.584-.302-2.021-.905-.438-.604-.664-1.505-.68-2.704v-1.447c0-1.254.217-2.186.65-2.795.434-.61 1.114-.914 2.04-.914.918 0 1.593.294 2.027.881.434.588.656 1.496.668 2.722v1.406zm-1.084-1.482c0-.918-.129-1.587-.387-2.007-.258-.42-.666-.63-1.224-.63-.555 0-.96.21-1.213.627-.254.418-.385 1.06-.393 1.928v1.734c0 .922.134 1.603.401 2.042.268.44.673.66 1.216.66.535 0 .933-.208 1.193-.622.26-.414.395-1.066.407-1.957v-1.775zm6.035 5.121h-1.09v-7.225l-2.185.803v-.984l3.105-1.166h.17V299zm7.752-2.865h1.184v.885H675.5V299h-1.09v-1.98h-3.885v-.64l3.82-5.911h1.155v5.666zm-3.744 0h2.654v-4.184l-.129.235-2.525 3.949z" fill="#000"/><path d="M652 233h23a1 1 0 0 1 1 1v47h-25v-47a1 1 0 0 1 1-1z" fill="#2A3052" fill-rule="nonzero"/><path d="M621.299 299h-5.59v-.78l2.953-3.28c.438-.497.74-.9.905-1.21a2.02 2.02 0 0 0 .25-.964c0-.446-.135-.81-.405-1.096-.27-.285-.629-.428-1.078-.428-.54 0-.958.154-1.257.46-.299.307-.448.734-.448 1.28h-1.084c0-.785.253-1.42.759-1.904s1.182-.726 2.03-.726c.793 0 1.42.208 1.88.624.462.416.692.97.692 1.66 0 .84-.535 1.84-1.605 3l-2.285 2.48h4.283V299zm6.498-3.639c0 1.27-.217 2.213-.65 2.83-.434.618-1.112.926-2.034.926-.91 0-1.584-.302-2.021-.905-.438-.604-.664-1.505-.68-2.704v-1.447c0-1.254.217-2.186.65-2.795.434-.61 1.114-.914 2.04-.914.918 0 1.593.294 2.027.881.434.588.656 1.496.668 2.722v1.406zm-1.084-1.482c0-.918-.129-1.587-.387-2.007-.258-.42-.666-.63-1.224-.63-.555 0-.96.21-1.213.627-.254.418-.385 1.06-.393 1.928v1.734c0 .922.134 1.603.401 2.042.268.44.673.66 1.216.66.535 0 .933-.208 1.193-.622.26-.414.395-1.066.407-1.957v-1.775zm6.035 5.121h-1.09v-7.225l-2.185.803v-.984l3.105-1.166h.17V299zm4.752-4.793h.814c.512-.008.915-.143 1.207-.404.293-.262.44-.615.44-1.06 0-1-.498-1.5-1.494-1.5-.469 0-.843.133-1.122.4-.28.268-.42.623-.42 1.064h-1.083c0-.676.247-1.237.741-1.685.494-.447 1.122-.67 1.884-.67.804 0 1.435.212 1.892.638.457.426.686 1.018.686 1.776 0 .37-.12.73-.36 1.078-.24.347-.568.607-.982.779.469.148.831.395 1.087.738.256.344.384.764.384 1.26 0 .766-.25 1.373-.75 1.822-.5.45-1.15.674-1.951.674-.801 0-1.452-.217-1.954-.65-.502-.434-.753-1.006-.753-1.717h1.09c0 .45.146.809.439 1.078.293.27.685.404 1.178.404.523 0 .923-.136 1.2-.41.278-.273.417-.666.417-1.177 0-.497-.152-.877-.457-1.143-.305-.266-.744-.402-1.319-.41h-.814v-.885z" fill="#000"/><path d="M617 249h23a1 1 0 0 1 1 1v31h-25v-31a1 1 0 0 1 1-1z" fill="#2A3052" fill-rule="nonzero"/><path d="M586.299 299h-5.59v-.78l2.953-3.28c.438-.497.74-.9.905-1.21a2.02 2.02 0 0 0 .25-.964c0-.446-.135-.81-.405-1.096-.27-.285-.629-.428-1.078-.428-.54 0-.958.154-1.257.46-.299.307-.448.734-.448 1.28h-1.084c0-.785.253-1.42.759-1.904s1.182-.726 2.03-.726c.793 0 1.42.208 1.88.624.462.416.692.97.692 1.66 0 .84-.535 1.84-1.605 3l-2.285 2.48h4.283V299zm6.498-3.639c0 1.27-.217 2.213-.65 2.83-.434.618-1.112.926-2.034.926-.91 0-1.584-.302-2.021-.905-.438-.604-.664-1.505-.68-2.704v-1.447c0-1.254.217-2.186.65-2.795.434-.61 1.114-.914 2.04-.914.918 0 1.593.294 2.027.881.434.588.656 1.496.668 2.722v1.406zm-1.084-1.482c0-.918-.129-1.587-.387-2.007-.258-.42-.666-.63-1.224-.63-.555 0-.96.21-1.213.627-.254.418-.385 1.06-.393 1.928v1.734c0 .922.134 1.603.401 2.042.268.44.673.66 1.216.66.535 0 .933-.208 1.193-.622.26-.414.395-1.066.407-1.957v-1.775zm6.035 5.121h-1.09v-7.225l-2.185.803v-.984l3.105-1.166h.17V299zm8.766 0h-5.59v-.78l2.953-3.28c.437-.497.74-.9.905-1.21a2.02 2.02 0 0 0 .25-.964c0-.446-.136-.81-.405-1.096-.27-.285-.629-.428-1.078-.428-.54 0-.958.154-1.257.46-.299.307-.448.734-.448 1.28h-1.084c0-.785.253-1.42.759-1.904.505-.484 1.182-.726 2.03-.726.793 0 1.42.208 1.88.624.462.416.692.97.692 1.66 0 .84-.535 1.84-1.605 3l-2.286 2.48h4.284V299z" fill="#000"/><path d="M582 270h23a1 1 0 0 1 1 1v10h-25v-10a1 1 0 0 1 1-1z" fill="#2A3052" fill-rule="nonzero"/><path d="M551.299 299h-5.59v-.78l2.953-3.28c.438-.497.74-.9.905-1.21a2.02 2.02 0 0 0 .25-.964c0-.446-.135-.81-.405-1.096-.27-.285-.629-.428-1.078-.428-.54 0-.958.154-1.257.46-.299.307-.448.734-.448 1.28h-1.084c0-.785.253-1.42.759-1.904s1.182-.726 2.03-.726c.793 0 1.42.208 1.88.624.462.416.692.97.692 1.66 0 .84-.535 1.84-1.605 3l-2.285 2.48h4.283V299zm6.498-3.639c0 1.27-.217 2.213-.65 2.83-.434.618-1.112.926-2.034.926-.91 0-1.584-.302-2.021-.905-.438-.604-.664-1.505-.68-2.704v-1.447c0-1.254.217-2.186.65-2.795.434-.61 1.114-.914 2.04-.914.918 0 1.593.294 2.027.881.434.588.656 1.496.668 2.722v1.406zm-1.084-1.482c0-.918-.129-1.587-.387-2.007-.258-.42-.666-.63-1.224-.63-.555 0-.96.21-1.213.627-.254.418-.385 1.06-.393 1.928v1.734c0 .922.134 1.603.401 2.042.268.44.673.66 1.216.66.535 0 .933-.208 1.193-.622.26-.414.395-1.066.407-1.957v-1.775zm6.035 5.121h-1.09v-7.225l-2.185.803v-.984l3.105-1.166h.17V299zm6.738 0h-1.09v-7.225l-2.185.803v-.984l3.105-1.166h.17V299z" fill="#000"/><path d="M547 277h23a1 1 0 0 1 1 1v3h-25v-3a1 1 0 0 1 1-1z" fill="#2A3052" fill-rule="nonzero"/><path d="M516.299 299h-5.59v-.78l2.953-3.28c.438-.497.74-.9.905-1.21a2.02 2.02 0 0 0 .25-.964c0-.446-.135-.81-.405-1.096-.27-.285-.629-.428-1.078-.428-.54 0-.958.154-1.257.46-.299.307-.448.734-.448 1.28h-1.084c0-.785.253-1.42.759-1.904s1.182-.726 2.03-.726c.793 0 1.42.208 1.88.624.462.416.692.97.692 1.66 0 .84-.535 1.84-1.605 3l-2.285 2.48h4.283V299zm6.498-3.639c0 1.27-.217 2.213-.65 2.83-.434.618-1.112.926-2.034.926-.91 0-1.584-.302-2.021-.905-.438-.604-.664-1.505-.68-2.704v-1.447c0-1.254.217-2.186.65-2.795.434-.61 1.114-.914 2.04-.914.918 0 1.593.294 2.027.881.434.588.656 1.496.668 2.722v1.406zm-1.084-1.482c0-.918-.129-1.587-.387-2.007-.258-.42-.666-.63-1.224-.63-.555 0-.96.21-1.213.627-.254.418-.385 1.06-.393 1.928v1.734c0 .922.134 1.603.401 2.042.268.44.673.66 1.216.66.535 0 .933-.208 1.193-.622.26-.414.395-1.066.407-1.957v-1.775zm6.035 5.121h-1.09v-7.225l-2.185.803v-.984l3.105-1.166h.17V299zm8.525-3.639c0 1.27-.216 2.213-.65 2.83-.434.618-1.111.926-2.033.926-.91 0-1.584-.302-2.022-.905-.437-.604-.664-1.505-.68-2.704v-1.447c0-1.254.217-2.186.651-2.795.434-.61 1.113-.914 2.04-.914.917 0 1.593.294 2.026.881.434.588.657 1.496.668 2.722v1.406zm-1.084-1.482c0-.918-.128-1.587-.386-2.007-.258-.42-.666-.63-1.225-.63-.555 0-.959.21-1.213.627-.254.418-.385 1.06-.392 1.928v1.734c0 .922.133 1.603.401 2.042.268.44.673.66 1.216.66.535 0 .932-.208 1.192-.622.26-.414.396-1.066.407-1.957v-1.775z" fill="#000"/><path d="M512 278h23a1 1 0 0 1 1 1v2h-25v-2a1 1 0 0 1 1-1z" fill="#2A3052" fill-rule="nonzero"/><path d="M481.299 299h-5.59v-.78l2.953-3.28c.438-.497.74-.9.905-1.21a2.02 2.02 0 0 0 .25-.964c0-.446-.135-.81-.405-1.096-.27-.285-.629-.428-1.078-.428-.54 0-.958.154-1.257.46-.299.307-.448.734-.448 1.28h-1.084c0-.785.253-1.42.759-1.904s1.182-.726 2.03-.726c.793 0 1.42.208 1.88.624.462.416.692.97.692 1.66 0 .84-.535 1.84-1.605 3l-2.285 2.48h4.283V299zm6.498-3.639c0 1.27-.217 2.213-.65 2.83-.434.618-1.112.926-2.034.926-.91 0-1.584-.302-2.021-.905-.438-.604-.664-1.505-.68-2.704v-1.447c0-1.254.217-2.186.65-2.795.434-.61 1.114-.914 2.04-.914.918 0 1.593.294 2.027.881.434.588.656 1.496.668 2.722v1.406zm-1.084-1.482c0-.918-.129-1.587-.387-2.007-.258-.42-.666-.63-1.224-.63-.555 0-.96.21-1.213.627-.254.418-.385 1.06-.393 1.928v1.734c0 .922.134 1.603.401 2.042.268.44.673.66 1.216.66.535 0 .933-.208 1.193-.622.26-.414.395-1.066.407-1.957v-1.775zm7.822 1.482c0 1.27-.217 2.213-.65 2.83-.434.618-1.112.926-2.033.926-.91 0-1.584-.302-2.022-.905-.437-.604-.664-1.505-.68-2.704v-1.447c0-1.254.217-2.186.65-2.795.434-.61 1.114-.914 2.04-.914.918 0 1.594.294 2.027.881.434.588.656 1.496.668 2.722v1.406zm-1.084-1.482c0-.918-.129-1.587-.387-2.007-.257-.42-.666-.63-1.224-.63-.555 0-.96.21-1.213.627-.254.418-.385 1.06-.393 1.928v1.734c0 .922.134 1.603.402 2.042.267.44.673.66 1.216.66.535 0 .932-.208 1.192-.622.26-.414.395-1.066.407-1.957v-1.775zm6.627 1.371c-.226.27-.497.486-.811.65-.315.164-.66.246-1.035.246-.492 0-.92-.12-1.286-.363a2.362 2.362 0 0 1-.846-1.022c-.2-.44-.3-.925-.3-1.456 0-.57.11-1.084.326-1.541.217-.457.524-.807.923-1.05.398-.241.863-.362 1.394-.362.844 0 1.51.315 1.995.946.487.63.73 1.491.73 2.58v.317c0 1.66-.328 2.872-.984 3.636-.657.764-1.647 1.155-2.971 1.175h-.211v-.914h.228c.895-.016 1.582-.25 2.063-.7.48-.452.742-1.165.785-2.142zm-1.67 0c.363 0 .698-.111 1.005-.334.307-.223.53-.498.671-.826v-.434c0-.71-.154-1.289-.463-1.734-.309-.445-.7-.668-1.172-.668-.476 0-.86.183-1.148.548-.29.365-.434.846-.434 1.444 0 .582.14 1.062.42 1.439.278.377.652.565 1.121.565z" fill="#000"/><path d="M477 278h23a1 1 0 0 1 1 1v2h-25v-2a1 1 0 0 1 1-1z" fill="#2A3052" fill-rule="nonzero"/><path d="M446.299 299h-5.59v-.78l2.953-3.28c.438-.497.74-.9.905-1.21a2.02 2.02 0 0 0 .25-.964c0-.446-.135-.81-.405-1.096-.27-.285-.629-.428-1.078-.428-.54 0-.958.154-1.257.46-.299.307-.448.734-.448 1.28h-1.084c0-.785.253-1.42.759-1.904s1.182-.726 2.03-.726c.793 0 1.42.208 1.88.624.462.416.692.97.692 1.66 0 .84-.535 1.84-1.605 3l-2.285 2.48h4.283V299zm6.498-3.639c0 1.27-.217 2.213-.65 2.83-.434.618-1.112.926-2.034.926-.91 0-1.584-.302-2.021-.905-.438-.604-.664-1.505-.68-2.704v-1.447c0-1.254.217-2.186.65-2.795.434-.61 1.114-.914 2.04-.914.918 0 1.593.294 2.027.881.434.588.656 1.496.668 2.722v1.406zm-1.084-1.482c0-.918-.129-1.587-.387-2.007-.258-.42-.666-.63-1.224-.63-.555 0-.96.21-1.213.627-.254.418-.385 1.06-.393 1.928v1.734c0 .922.134 1.603.401 2.042.268.44.673.66 1.216.66.535 0 .933-.208 1.193-.622.26-.414.395-1.066.407-1.957v-1.775zm7.822 1.482c0 1.27-.217 2.213-.65 2.83-.434.618-1.112.926-2.033.926-.91 0-1.584-.302-2.022-.905-.437-.604-.664-1.505-.68-2.704v-1.447c0-1.254.217-2.186.65-2.795.434-.61 1.114-.914 2.04-.914.918 0 1.594.294 2.027.881.434.588.656 1.496.668 2.722v1.406zm-1.084-1.482c0-.918-.129-1.587-.387-2.007-.257-.42-.666-.63-1.224-.63-.555 0-.96.21-1.213.627-.254.418-.385 1.06-.393 1.928v1.734c0 .922.134 1.603.402 2.042.267.44.673.66 1.216.66.535 0 .932-.208 1.192-.622.26-.414.395-1.066.407-1.957v-1.775zm7.647-1.184c0 .426-.113.805-.337 1.137a2.292 2.292 0 0 1-.911.78c.445.19.797.47 1.057.837.26.367.39.783.39 1.248 0 .739-.25 1.326-.747 1.764-.498.437-1.154.656-1.966.656-.82 0-1.478-.22-1.972-.659-.494-.44-.74-1.026-.74-1.76 0-.462.125-.878.377-1.249.252-.37.6-.652 1.046-.844a2.236 2.236 0 0 1-.897-.779 2.01 2.01 0 0 1-.328-1.13c0-.72.23-1.29.692-1.712.46-.422 1.068-.632 1.822-.632.75 0 1.356.21 1.82.632.462.422.694.993.694 1.711zm-.885 3.979c0-.477-.151-.865-.454-1.166-.303-.301-.698-.451-1.187-.451-.488 0-.88.148-1.175.445-.294.297-.442.687-.442 1.172 0 .484.144.865.43 1.142.288.278.687.416 1.199.416.508 0 .906-.14 1.195-.419.29-.279.434-.659.434-1.14zm-1.629-5.432c-.426 0-.77.132-1.034.396-.264.263-.396.622-.396 1.075 0 .433.13.784.39 1.052.26.267.606.401 1.04.401.434 0 .78-.134 1.04-.401.26-.268.39-.619.39-1.052 0-.434-.135-.787-.405-1.06-.27-.274-.611-.41-1.025-.41z" fill="#000"/><path d="M441 279h23a1 1 0 0 1 1 1v1h-25v-1a1 1 0 0 1 1-1z" fill="#2A3052" fill-rule="nonzero"/><path d="M411.299 299h-5.59v-.78l2.953-3.28c.438-.497.74-.9.905-1.21a2.02 2.02 0 0 0 .25-.964c0-.446-.135-.81-.405-1.096-.27-.285-.629-.428-1.078-.428-.54 0-.958.154-1.257.46-.299.307-.448.734-.448 1.28h-1.084c0-.785.253-1.42.759-1.904s1.182-.726 2.03-.726c.793 0 1.42.208 1.88.624.462.416.692.97.692 1.66 0 .84-.535 1.84-1.605 3l-2.285 2.48h4.283V299zm6.498-3.639c0 1.27-.217 2.213-.65 2.83-.434.618-1.112.926-2.034.926-.91 0-1.584-.302-2.021-.905-.438-.604-.664-1.505-.68-2.704v-1.447c0-1.254.217-2.186.65-2.795.434-.61 1.114-.914 2.04-.914.918 0 1.593.294 2.027.881.434.588.656 1.496.668 2.722v1.406zm-1.084-1.482c0-.918-.129-1.587-.387-2.007-.258-.42-.666-.63-1.224-.63-.555 0-.96.21-1.213.627-.254.418-.385 1.06-.393 1.928v1.734c0 .922.134 1.603.401 2.042.268.44.673.66 1.216.66.535 0 .933-.208 1.193-.622.26-.414.395-1.066.407-1.957v-1.775zm7.822 1.482c0 1.27-.217 2.213-.65 2.83-.434.618-1.112.926-2.033.926-.91 0-1.584-.302-2.022-.905-.437-.604-.664-1.505-.68-2.704v-1.447c0-1.254.217-2.186.65-2.795.434-.61 1.114-.914 2.04-.914.918 0 1.594.294 2.027.881.434.588.656 1.496.668 2.722v1.406zm-1.084-1.482c0-.918-.129-1.587-.387-2.007-.257-.42-.666-.63-1.224-.63-.555 0-.96.21-1.213.627-.254.418-.385 1.06-.393 1.928v1.734c0 .922.134 1.603.402 2.042.267.44.673.66 1.216.66.535 0 .932-.208 1.192-.622.26-.414.395-1.066.407-1.957v-1.775zm7.98-2.8L427.899 299h-1.136l3.521-7.64h-4.617v-.891h5.766v.61z" fill="#000"/><path d="M407 280h23a1 1 0 0 1 1 1h-25a1 1 0 0 1 1-1z" fill="#2A3052" fill-rule="nonzero"/><path d="M376.299 299h-5.59v-.78l2.953-3.28c.438-.497.74-.9.905-1.21a2.02 2.02 0 0 0 .25-.964c0-.446-.135-.81-.405-1.096-.27-.285-.629-.428-1.078-.428-.54 0-.958.154-1.257.46-.299.307-.448.734-.448 1.28h-1.084c0-.785.253-1.42.759-1.904s1.182-.726 2.03-.726c.793 0 1.42.208 1.88.624.462.416.692.97.692 1.66 0 .84-.535 1.84-1.605 3l-2.285 2.48h4.283V299zm6.498-3.639c0 1.27-.217 2.213-.65 2.83-.434.618-1.112.926-2.034.926-.91 0-1.584-.302-2.021-.905-.438-.604-.664-1.505-.68-2.704v-1.447c0-1.254.217-2.186.65-2.795.434-.61 1.114-.914 2.04-.914.918 0 1.593.294 2.027.881.434.588.656 1.496.668 2.722v1.406zm-1.084-1.482c0-.918-.129-1.587-.387-2.007-.258-.42-.666-.63-1.224-.63-.555 0-.96.21-1.213.627-.254.418-.385 1.06-.393 1.928v1.734c0 .922.134 1.603.401 2.042.268.44.673.66 1.216.66.535 0 .933-.208 1.193-.622.26-.414.395-1.066.407-1.957v-1.775zm7.822 1.482c0 1.27-.217 2.213-.65 2.83-.434.618-1.112.926-2.033.926-.91 0-1.584-.302-2.022-.905-.437-.604-.664-1.505-.68-2.704v-1.447c0-1.254.217-2.186.65-2.795.434-.61 1.114-.914 2.04-.914.918 0 1.594.294 2.027.881.434.588.656 1.496.668 2.722v1.406zm-1.084-1.482c0-.918-.129-1.587-.387-2.007-.257-.42-.666-.63-1.224-.63-.555 0-.96.21-1.213.627-.254.418-.385 1.06-.393 1.928v1.734c0 .922.134 1.603.402 2.042.267.44.673.66 1.216.66.535 0 .932-.208 1.192-.622.26-.414.395-1.066.407-1.957v-1.775zm6.727-3.416v.92h-.2c-.843.015-1.515.265-2.015.75-.5.484-.79 1.166-.867 2.045.449-.516 1.062-.774 1.84-.774.742 0 1.335.262 1.778.785.443.524.665 1.2.665 2.028 0 .879-.24 1.582-.718 2.11-.478.527-1.12.79-1.925.79-.816 0-1.478-.313-1.986-.94s-.762-1.435-.762-2.423v-.416c0-1.57.335-2.77 1.005-3.6.67-.83 1.667-1.256 2.991-1.275h.194zm-1.424 3.844a1.73 1.73 0 0 0-1.025.334 1.74 1.74 0 0 0-.65.838v.398c0 .703.157 1.27.474 1.7.316.429.71.644 1.183.644.489 0 .872-.18 1.152-.54.279-.359.419-.83.419-1.411 0-.586-.142-1.06-.425-1.421a1.362 1.362 0 0 0-1.128-.542z" fill="#000"/><path d="M372 280h23a1 1 0 0 1 1 1h-25a1 1 0 0 1 1-1z" fill="#2A3052" fill-rule="nonzero"/><path d="M341.299 299h-5.59v-.78l2.953-3.28c.438-.497.74-.9.905-1.21a2.02 2.02 0 0 0 .25-.964c0-.446-.135-.81-.405-1.096-.27-.285-.629-.428-1.078-.428-.54 0-.958.154-1.257.46-.299.307-.448.734-.448 1.28h-1.084c0-.785.253-1.42.759-1.904s1.182-.726 2.03-.726c.793 0 1.42.208 1.88.624.462.416.692.97.692 1.66 0 .84-.535 1.84-1.605 3l-2.285 2.48h4.283V299zm6.498-3.639c0 1.27-.217 2.213-.65 2.83-.434.618-1.112.926-2.034.926-.91 0-1.584-.302-2.021-.905-.438-.604-.664-1.505-.68-2.704v-1.447c0-1.254.217-2.186.65-2.795.434-.61 1.114-.914 2.04-.914.918 0 1.593.294 2.027.881.434.588.656 1.496.668 2.722v1.406zm-1.084-1.482c0-.918-.129-1.587-.387-2.007-.258-.42-.666-.63-1.224-.63-.555 0-.96.21-1.213.627-.254.418-.385 1.06-.393 1.928v1.734c0 .922.134 1.603.401 2.042.268.44.673.66 1.216.66.535 0 .933-.208 1.193-.622.26-.414.395-1.066.407-1.957v-1.775zm7.822 1.482c0 1.27-.217 2.213-.65 2.83-.434.618-1.112.926-2.033.926-.91 0-1.584-.302-2.022-.905-.437-.604-.664-1.505-.68-2.704v-1.447c0-1.254.217-2.186.65-2.795.434-.61 1.114-.914 2.04-.914.918 0 1.594.294 2.027.881.434.588.656 1.496.668 2.722v1.406zm-1.084-1.482c0-.918-.129-1.587-.387-2.007-.257-.42-.666-.63-1.224-.63-.555 0-.96.21-1.213.627-.254.418-.385 1.06-.393 1.928v1.734c0 .922.134 1.603.402 2.042.267.44.673.66 1.216.66.535 0 .932-.208 1.192-.622.26-.414.395-1.066.407-1.957v-1.775zm2.97.844l.434-4.254h4.372v1.002h-3.452l-.257 2.326c.418-.246.892-.37 1.423-.37.778 0 1.395.258 1.852.771.457.514.686 1.208.686 2.083 0 .88-.238 1.572-.712 2.077-.475.506-1.138.76-1.99.76-.754 0-1.369-.21-1.845-.628-.477-.418-.748-.996-.815-1.734h1.026c.066.488.24.856.521 1.104.281.248.652.372 1.113.372.504 0 .9-.171 1.187-.515.287-.344.43-.819.43-1.424 0-.57-.155-1.028-.465-1.374-.31-.346-.724-.519-1.24-.519-.472 0-.843.104-1.113.31l-.287.235-.867-.222z" fill="#000"/><path d="M337 280h23a1 1 0 0 1 1 1h-25a1 1 0 0 1 1-1z" fill="#2A3052" fill-rule="nonzero"/><path d="M306.299 299h-5.59v-.78l2.953-3.28c.438-.497.74-.9.905-1.21a2.02 2.02 0 0 0 .25-.964c0-.446-.135-.81-.405-1.096-.27-.285-.629-.428-1.078-.428-.54 0-.958.154-1.257.46-.299.307-.448.734-.448 1.28h-1.084c0-.785.253-1.42.759-1.904s1.182-.726 2.03-.726c.793 0 1.42.208 1.88.624.462.416.692.97.692 1.66 0 .84-.535 1.84-1.605 3l-2.285 2.48h4.283V299zm6.498-3.639c0 1.27-.217 2.213-.65 2.83-.434.618-1.112.926-2.034.926-.91 0-1.584-.302-2.021-.905-.438-.604-.664-1.505-.68-2.704v-1.447c0-1.254.217-2.186.65-2.795.434-.61 1.114-.914 2.04-.914.918 0 1.593.294 2.027.881.434.588.656 1.496.668 2.722v1.406zm-1.084-1.482c0-.918-.129-1.587-.387-2.007-.258-.42-.666-.63-1.224-.63-.555 0-.96.21-1.213.627-.254.418-.385 1.06-.393 1.928v1.734c0 .922.134 1.603.401 2.042.268.44.673.66 1.216.66.535 0 .933-.208 1.193-.622.26-.414.395-1.066.407-1.957v-1.775zm7.822 1.482c0 1.27-.217 2.213-.65 2.83-.434.618-1.112.926-2.033.926-.91 0-1.584-.302-2.022-.905-.437-.604-.664-1.505-.68-2.704v-1.447c0-1.254.217-2.186.65-2.795.434-.61 1.114-.914 2.04-.914.918 0 1.594.294 2.027.881.434.588.656 1.496.668 2.722v1.406zm-1.084-1.482c0-.918-.129-1.587-.387-2.007-.257-.42-.666-.63-1.224-.63-.555 0-.96.21-1.213.627-.254.418-.385 1.06-.393 1.928v1.734c0 .922.134 1.603.402 2.042.267.44.673.66 1.216.66.535 0 .932-.208 1.192-.622.26-.414.395-1.066.407-1.957v-1.775zm7.049 2.256h1.184v.885H325.5V299h-1.09v-1.98h-3.885v-.64l3.82-5.911h1.155v5.666zm-3.744 0h2.654v-4.184l-.129.235-2.525 3.949z" fill="#000"/><path d="M301.5 280.5h24a.5.5 0 0 1 .5.5h-25a.5.5 0 0 1 .5-.5z" fill="#2A3052" fill-rule="nonzero"/><path d="M271.299 299h-5.59v-.78l2.953-3.28c.438-.497.74-.9.905-1.21a2.02 2.02 0 0 0 .25-.964c0-.446-.135-.81-.405-1.096-.27-.285-.629-.428-1.078-.428-.54 0-.958.154-1.257.46-.299.307-.448.734-.448 1.28h-1.084c0-.785.253-1.42.759-1.904s1.182-.726 2.03-.726c.793 0 1.42.208 1.88.624.462.416.692.97.692 1.66 0 .84-.535 1.84-1.605 3l-2.285 2.48h4.283V299zm6.498-3.639c0 1.27-.217 2.213-.65 2.83-.434.618-1.112.926-2.034.926-.91 0-1.584-.302-2.021-.905-.438-.604-.664-1.505-.68-2.704v-1.447c0-1.254.217-2.186.65-2.795.434-.61 1.114-.914 2.04-.914.918 0 1.593.294 2.027.881.434.588.656 1.496.668 2.722v1.406zm-1.084-1.482c0-.918-.129-1.587-.387-2.007-.258-.42-.666-.63-1.224-.63-.555 0-.96.21-1.213.627-.254.418-.385 1.06-.393 1.928v1.734c0 .922.134 1.603.401 2.042.268.44.673.66 1.216.66.535 0 .933-.208 1.193-.622.26-.414.395-1.066.407-1.957v-1.775zm7.822 1.482c0 1.27-.217 2.213-.65 2.83-.434.618-1.112.926-2.033.926-.91 0-1.584-.302-2.022-.905-.437-.604-.664-1.505-.68-2.704v-1.447c0-1.254.217-2.186.65-2.795.434-.61 1.114-.914 2.04-.914.918 0 1.594.294 2.027.881.434.588.656 1.496.668 2.722v1.406zm-1.084-1.482c0-.918-.129-1.587-.387-2.007-.257-.42-.666-.63-1.224-.63-.555 0-.96.21-1.213.627-.254.418-.385 1.06-.393 1.928v1.734c0 .922.134 1.603.402 2.042.267.44.673.66 1.216.66.535 0 .932-.208 1.192-.622.26-.414.395-1.066.407-1.957v-1.775zm4.049.328h.814c.512-.008.915-.143 1.207-.404.293-.262.44-.615.44-1.06 0-1-.498-1.5-1.494-1.5-.469 0-.843.133-1.122.4-.28.268-.42.623-.42 1.064h-1.083c0-.676.247-1.237.741-1.685.494-.447 1.122-.67 1.884-.67.804 0 1.435.212 1.892.638.457.426.686 1.018.686 1.776 0 .37-.12.73-.36 1.078-.24.347-.568.607-.982.779.469.148.831.395 1.087.738.256.344.384.764.384 1.26 0 .766-.25 1.373-.75 1.822-.5.45-1.15.674-1.951.674-.801 0-1.452-.217-1.954-.65-.502-.434-.753-1.006-.753-1.717h1.09c0 .45.146.809.439 1.078.293.27.685.404 1.178.404.523 0 .923-.136 1.2-.41.278-.273.417-.666.417-1.177 0-.497-.152-.877-.457-1.143-.305-.266-.744-.402-1.319-.41h-.814v-.885zM236.299 299h-5.59v-.78l2.953-3.28c.438-.497.74-.9.905-1.21a2.02 2.02 0 0 0 .25-.964c0-.446-.135-.81-.405-1.096-.27-.285-.629-.428-1.078-.428-.54 0-.958.154-1.257.46-.299.307-.448.734-.448 1.28h-1.084c0-.785.253-1.42.759-1.904s1.182-.726 2.03-.726c.793 0 1.42.208 1.88.624.462.416.692.97.692 1.66 0 .84-.535 1.84-1.605 3l-2.285 2.48h4.283V299zm6.498-3.639c0 1.27-.217 2.213-.65 2.83-.434.618-1.112.926-2.034.926-.91 0-1.584-.302-2.021-.905-.438-.604-.664-1.505-.68-2.704v-1.447c0-1.254.217-2.186.65-2.795.434-.61 1.114-.914 2.04-.914.918 0 1.593.294 2.027.881.434.588.656 1.496.668 2.722v1.406zm-1.084-1.482c0-.918-.129-1.587-.387-2.007-.258-.42-.666-.63-1.224-.63-.555 0-.96.21-1.213.627-.254.418-.385 1.06-.393 1.928v1.734c0 .922.134 1.603.401 2.042.268.44.673.66 1.216.66.535 0 .933-.208 1.193-.622.26-.414.395-1.066.407-1.957v-1.775zm7.822 1.482c0 1.27-.217 2.213-.65 2.83-.434.618-1.112.926-2.033.926-.91 0-1.584-.302-2.022-.905-.437-.604-.664-1.505-.68-2.704v-1.447c0-1.254.217-2.186.65-2.795.434-.61 1.114-.914 2.04-.914.918 0 1.594.294 2.027.881.434.588.656 1.496.668 2.722v1.406zm-1.084-1.482c0-.918-.129-1.587-.387-2.007-.257-.42-.666-.63-1.224-.63-.555 0-.96.21-1.213.627-.254.418-.385 1.06-.393 1.928v1.734c0 .922.134 1.603.402 2.042.267.44.673.66 1.216.66.535 0 .932-.208 1.192-.622.26-.414.395-1.066.407-1.957v-1.775zm8.063 5.121h-5.59v-.78l2.953-3.28c.437-.497.74-.9.905-1.21a2.02 2.02 0 0 0 .25-.964c0-.446-.136-.81-.405-1.096-.27-.285-.629-.428-1.078-.428-.54 0-.958.154-1.257.46-.299.307-.448.734-.448 1.28h-1.084c0-.785.253-1.42.759-1.904.505-.484 1.182-.726 2.03-.726.793 0 1.42.208 1.88.624.462.416.692.97.692 1.66 0 .84-.535 1.84-1.605 3l-2.286 2.48h4.284V299zM201.299 299h-5.59v-.78l2.953-3.28c.438-.497.74-.9.905-1.21a2.02 2.02 0 0 0 .25-.964c0-.446-.135-.81-.405-1.096-.27-.285-.629-.428-1.078-.428-.54 0-.958.154-1.257.46-.299.307-.448.734-.448 1.28h-1.084c0-.785.253-1.42.759-1.904s1.182-.726 2.03-.726c.793 0 1.42.208 1.88.624.462.416.692.97.692 1.66 0 .84-.535 1.84-1.605 3l-2.285 2.48h4.283V299zm6.498-3.639c0 1.27-.217 2.213-.65 2.83-.434.618-1.112.926-2.034.926-.91 0-1.584-.302-2.021-.905-.438-.604-.664-1.505-.68-2.704v-1.447c0-1.254.217-2.186.65-2.795.434-.61 1.114-.914 2.04-.914.918 0 1.593.294 2.027.881.434.588.656 1.496.668 2.722v1.406zm-1.084-1.482c0-.918-.129-1.587-.387-2.007-.258-.42-.666-.63-1.224-.63-.555 0-.96.21-1.213.627-.254.418-.385 1.06-.393 1.928v1.734c0 .922.134 1.603.401 2.042.268.44.673.66 1.216.66.535 0 .933-.208 1.193-.622.26-.414.395-1.066.407-1.957v-1.775zm7.822 1.482c0 1.27-.217 2.213-.65 2.83-.434.618-1.112.926-2.033.926-.91 0-1.584-.302-2.022-.905-.437-.604-.664-1.505-.68-2.704v-1.447c0-1.254.217-2.186.65-2.795.434-.61 1.114-.914 2.04-.914.918 0 1.594.294 2.027.881.434.588.656 1.496.668 2.722v1.406zm-1.084-1.482c0-.918-.129-1.587-.387-2.007-.257-.42-.666-.63-1.224-.63-.555 0-.96.21-1.213.627-.254.418-.385 1.06-.393 1.928v1.734c0 .922.134 1.603.402 2.042.267.44.673.66 1.216.66.535 0 .932-.208 1.192-.622.26-.414.395-1.066.407-1.957v-1.775zm6.035 5.121h-1.09v-7.225l-2.185.803v-.984l3.105-1.166h.17V299zM166.299 299h-5.59v-.78l2.953-3.28c.438-.497.74-.9.905-1.21a2.02 2.02 0 0 0 .25-.964c0-.446-.135-.81-.405-1.096-.27-.285-.629-.428-1.078-.428-.54 0-.958.154-1.257.46-.299.307-.448.734-.448 1.28h-1.084c0-.785.253-1.42.759-1.904s1.182-.726 2.03-.726c.793 0 1.42.208 1.88.624.462.416.692.97.692 1.66 0 .84-.535 1.84-1.605 3l-2.285 2.48h4.283V299zm6.498-3.639c0 1.27-.217 2.213-.65 2.83-.434.618-1.112.926-2.034.926-.91 0-1.584-.302-2.021-.905-.438-.604-.664-1.505-.68-2.704v-1.447c0-1.254.217-2.186.65-2.795.434-.61 1.114-.914 2.04-.914.918 0 1.593.294 2.027.881.434.588.656 1.496.668 2.722v1.406zm-1.084-1.482c0-.918-.129-1.587-.387-2.007-.258-.42-.666-.63-1.224-.63-.555 0-.96.21-1.213.627-.254.418-.385 1.06-.393 1.928v1.734c0 .922.134 1.603.401 2.042.268.44.673.66 1.216.66.535 0 .933-.208 1.193-.622.26-.414.395-1.066.407-1.957v-1.775zm7.822 1.482c0 1.27-.217 2.213-.65 2.83-.434.618-1.112.926-2.033.926-.91 0-1.584-.302-2.022-.905-.437-.604-.664-1.505-.68-2.704v-1.447c0-1.254.217-2.186.65-2.795.434-.61 1.114-.914 2.04-.914.918 0 1.594.294 2.027.881.434.588.656 1.496.668 2.722v1.406zm-1.084-1.482c0-.918-.129-1.587-.387-2.007-.257-.42-.666-.63-1.224-.63-.555 0-.96.21-1.213.627-.254.418-.385 1.06-.393 1.928v1.734c0 .922.134 1.603.402 2.042.267.44.673.66 1.216.66.535 0 .932-.208 1.192-.622.26-.414.395-1.066.407-1.957v-1.775zm7.822 1.482c0 1.27-.216 2.213-.65 2.83-.434.618-1.111.926-2.033.926-.91 0-1.584-.302-2.022-.905-.437-.604-.664-1.505-.68-2.704v-1.447c0-1.254.217-2.186.651-2.795.434-.61 1.113-.914 2.04-.914.917 0 1.593.294 2.026.881.434.588.657 1.496.668 2.722v1.406zm-1.084-1.482c0-.918-.128-1.587-.386-2.007-.258-.42-.666-.63-1.225-.63-.555 0-.959.21-1.213.627-.254.418-.385 1.06-.392 1.928v1.734c0 .922.133 1.603.401 2.042.268.44.673.66 1.216.66.535 0 .932-.208 1.192-.622.26-.414.396-1.066.407-1.957v-1.775zM129.271 299h-1.09v-7.225l-2.185.803v-.984l3.106-1.166h.17V299zm7.33-3.75c-.226.27-.497.486-.811.65-.314.164-.66.246-1.034.246-.492 0-.921-.12-1.286-.363a2.362 2.362 0 0 1-.847-1.022c-.2-.44-.299-.925-.299-1.456 0-.57.109-1.084.325-1.541.217-.457.525-.807.923-1.05.399-.241.864-.362 1.395-.362.844 0 1.509.315 1.995.946.486.63.73 1.491.73 2.58v.317c0 1.66-.329 2.872-.985 3.636-.656.764-1.646 1.155-2.97 1.175h-.212v-.914h.229c.894-.016 1.582-.25 2.062-.7.48-.452.743-1.165.786-2.142zm-1.67 0c.364 0 .699-.111 1.006-.334.306-.223.53-.498.67-.826v-.434c0-.71-.154-1.289-.462-1.734-.31-.445-.7-.668-1.172-.668-.477 0-.86.183-1.149.548-.289.365-.433.846-.433 1.444 0 .582.14 1.062.419 1.439.279.377.653.565 1.122.565zm8.409 0c-.227.27-.497.486-.812.65-.314.164-.659.246-1.034.246-.492 0-.92-.12-1.286-.363a2.362 2.362 0 0 1-.847-1.022c-.199-.44-.299-.925-.299-1.456 0-.57.109-1.084.326-1.541.216-.457.524-.807.923-1.05.398-.241.863-.362 1.394-.362.844 0 1.509.315 1.995.946.487.63.73 1.491.73 2.58v.317c0 1.66-.328 2.872-.985 3.636-.656.764-1.646 1.155-2.97 1.175h-.211v-.914h.228c.895-.016 1.582-.25 2.063-.7.48-.452.742-1.165.785-2.142zm-1.67 0c.363 0 .698-.111 1.005-.334.306-.223.53-.498.67-.826v-.434c0-.71-.154-1.289-.462-1.734-.309-.445-.7-.668-1.172-.668-.477 0-.86.183-1.149.548-.289.365-.433.846-.433 1.444 0 .582.14 1.062.419 1.439.28.377.653.565 1.122.565zm8.408 0c-.226.27-.497.486-.811.65-.315.164-.66.246-1.035.246-.492 0-.92-.12-1.286-.363a2.362 2.362 0 0 1-.846-1.022c-.2-.44-.3-.925-.3-1.456 0-.57.11-1.084.326-1.541.217-.457.524-.807.923-1.05.398-.241.863-.362 1.394-.362.844 0 1.51.315 1.995.946.487.63.73 1.491.73 2.58v.317c0 1.66-.328 2.872-.984 3.636-.657.764-1.647 1.155-2.971 1.175h-.211v-.914h.228c.895-.016 1.582-.25 2.063-.7.48-.452.742-1.165.785-2.142zm-1.67 0c.363 0 .698-.111 1.005-.334.307-.223.53-.498.671-.826v-.434c0-.71-.154-1.289-.463-1.734-.309-.445-.7-.668-1.172-.668-.476 0-.86.183-1.148.548-.29.365-.434.846-.434 1.444 0 .582.14 1.062.42 1.439.278.377.652.565 1.121.565z" fill="#000"/><g fill="#000"><path d="M104.32 282.361c0 1.27-.216 2.213-.65 2.83-.434.618-1.111.926-2.033.926-.91 0-1.584-.302-2.022-.905-.437-.604-.664-1.505-.68-2.704v-1.447c0-1.254.217-2.186.65-2.795.435-.61 1.114-.914 2.04-.914.918 0 1.594.294 2.027.881.434.588.657 1.496.668 2.722v1.406zm-1.084-1.482c0-.918-.129-1.587-.386-2.007-.258-.42-.666-.63-1.225-.63-.555 0-.959.21-1.213.627-.254.418-.385 1.06-.392 1.928v1.734c0 .922.133 1.603.4 2.042.268.44.674.66 1.217.66.535 0 .932-.208 1.192-.622.26-.414.396-1.066.407-1.957v-1.775zM47.59 237.723l.433-4.254h4.372v1.002h-3.452l-.257 2.326c.418-.246.892-.37 1.423-.37.778 0 1.395.258 1.852.771.457.514.685 1.208.685 2.083 0 .88-.237 1.572-.711 2.077-.475.506-1.138.76-1.99.76-.754 0-1.369-.21-1.845-.628-.477-.418-.748-.996-.815-1.734h1.026c.066.488.24.856.521 1.104.281.248.652.372 1.113.372.504 0 .9-.171 1.187-.515.287-.344.43-.819.43-1.424 0-.57-.155-1.028-.465-1.374-.31-.346-.724-.519-1.24-.519-.472 0-.843.104-1.113.31l-.287.235-.867-.222zm11.59.638c0 1.27-.217 2.213-.65 2.83-.434.618-1.112.926-2.034.926-.91 0-1.584-.302-2.021-.905-.438-.604-.664-1.505-.68-2.704v-1.447c0-1.254.217-2.186.65-2.795.434-.61 1.114-.914 2.04-.914.917 0 1.593.294 2.027.881.433.588.656 1.496.668 2.722v1.406zm-1.084-1.482c0-.918-.13-1.587-.387-2.007-.258-.42-.666-.63-1.225-.63-.554 0-.959.21-1.213.627-.253.418-.384 1.06-.392 1.928v1.734c0 .922.134 1.603.401 2.042.268.44.673.66 1.216.66.535 0 .933-.208 1.192-.622.26-.414.396-1.066.408-1.957v-1.775zm2.549 6.82l-.616-.422c.367-.511.559-1.039.575-1.582v-.978h1.06v.85c0 .394-.097.788-.29 1.183-.193.395-.436.71-.73.95zm7.628-5.338c0 1.27-.216 2.213-.65 2.83-.434.618-1.111.926-2.033.926-.91 0-1.584-.302-2.022-.905-.437-.604-.664-1.505-.68-2.704v-1.447c0-1.254.217-2.186.651-2.795.434-.61 1.113-.914 2.04-.914.917 0 1.593.294 2.026.881.434.588.657 1.496.668 2.722v1.406zm-1.084-1.482c0-.918-.128-1.587-.386-2.007-.258-.42-.666-.63-1.225-.63-.555 0-.959.21-1.213.627-.254.418-.385 1.06-.392 1.928v1.734c0 .922.133 1.603.401 2.042.268.44.673.66 1.216.66.535 0 .932-.208 1.192-.622.26-.414.396-1.066.407-1.957v-1.775zm7.823 1.482c0 1.27-.217 2.213-.65 2.83-.434.618-1.112.926-2.034.926-.91 0-1.584-.302-2.021-.905-.438-.604-.664-1.505-.68-2.704v-1.447c0-1.254.217-2.186.65-2.795.434-.61 1.114-.914 2.04-.914.917 0 1.593.294 2.027.881.433.588.656 1.496.668 2.722v1.406zm-1.084-1.482c0-.918-.13-1.587-.387-2.007-.258-.42-.666-.63-1.225-.63-.554 0-.959.21-1.212.627-.254.418-.385 1.06-.393 1.928v1.734c0 .922.134 1.603.401 2.042.268.44.673.66 1.216.66.535 0 .933-.208 1.193-.622.26-.414.395-1.066.407-1.957v-1.775zm7.822 1.482c0 1.27-.217 2.213-.65 2.83-.434.618-1.112.926-2.034.926-.91 0-1.584-.302-2.021-.905-.438-.604-.664-1.505-.68-2.704v-1.447c0-1.254.217-2.186.65-2.795.434-.61 1.114-.914 2.04-.914.918 0 1.593.294 2.027.881.434.588.656 1.496.668 2.722v1.406zm-1.084-1.482c0-.918-.129-1.587-.387-2.007-.258-.42-.666-.63-1.224-.63-.555 0-.96.21-1.213.627-.254.418-.385 1.06-.393 1.928v1.734c0 .922.134 1.603.402 2.042.267.44.672.66 1.215.66.536 0 .933-.208 1.193-.622.26-.414.395-1.066.407-1.957v-1.775zm2.549 6.82l-.615-.422c.367-.511.558-1.039.574-1.582v-.978h1.06v.85c0 .394-.096.788-.29 1.183-.193.395-.436.71-.73.95zm7.629-5.338c0 1.27-.217 2.213-.65 2.83-.434.618-1.112.926-2.034.926-.91 0-1.584-.302-2.021-.905-.438-.604-.664-1.505-.68-2.704v-1.447c0-1.254.217-2.186.65-2.795.434-.61 1.114-.914 2.04-.914.917 0 1.593.294 2.027.881.433.588.656 1.496.668 2.722v1.406zm-1.084-1.482c0-.918-.13-1.587-.387-2.007-.258-.42-.666-.63-1.225-.63-.554 0-.959.21-1.212.627-.254.418-.385 1.06-.393 1.928v1.734c0 .922.134 1.603.401 2.042.268.44.673.66 1.216.66.535 0 .933-.208 1.193-.622.26-.414.395-1.066.407-1.957v-1.775zm7.822 1.482c0 1.27-.217 2.213-.65 2.83-.434.618-1.112.926-2.034.926-.91 0-1.584-.302-2.021-.905-.438-.604-.664-1.505-.68-2.704v-1.447c0-1.254.217-2.186.65-2.795.434-.61 1.114-.914 2.04-.914.918 0 1.593.294 2.027.881.434.588.656 1.496.668 2.722v1.406zm-1.084-1.482c0-.918-.129-1.587-.387-2.007-.257-.42-.666-.63-1.224-.63-.555 0-.96.21-1.213.627-.254.418-.385 1.06-.393 1.928v1.734c0 .922.134 1.603.402 2.042.267.44.672.66 1.215.66.536 0 .933-.208 1.193-.622.26-.414.395-1.066.407-1.957v-1.775zm7.822 1.482c0 1.27-.216 2.213-.65 2.83-.434.618-1.111.926-2.033.926-.91 0-1.584-.302-2.022-.905-.437-.604-.664-1.505-.68-2.704v-1.447c0-1.254.217-2.186.65-2.795.435-.61 1.114-.914 2.04-.914.918 0 1.594.294 2.027.881.434.588.657 1.496.668 2.722v1.406zm-1.084-1.482c0-.918-.129-1.587-.386-2.007-.258-.42-.666-.63-1.225-.63-.555 0-.959.21-1.213.627-.254.418-.385 1.06-.392 1.928v1.734c0 .922.133 1.603.4 2.042.268.44.674.66 1.217.66.535 0 .932-.208 1.192-.622.26-.414.396-1.066.407-1.957v-1.775zM43.916 198h-1.09v-7.225l-2.185.803v-.984l3.105-1.166h.17V198zm8.525-3.639c0 1.27-.216 2.213-.65 2.83-.434.618-1.111.926-2.033.926-.91 0-1.584-.302-2.022-.905-.437-.604-.664-1.505-.68-2.704v-1.447c0-1.254.217-2.186.651-2.795.434-.61 1.113-.914 2.04-.914.917 0 1.593.294 2.026.881.434.588.657 1.496.668 2.722v1.406zm-1.084-1.482c0-.918-.128-1.587-.386-2.007-.258-.42-.666-.63-1.225-.63-.555 0-.959.21-1.213.627-.254.418-.385 1.06-.392 1.928v1.734c0 .922.133 1.603.401 2.042.268.44.673.66 1.216.66.535 0 .932-.208 1.192-.622.26-.414.396-1.066.407-1.957v-1.775zm7.823 1.482c0 1.27-.217 2.213-.65 2.83-.434.618-1.112.926-2.034.926-.91 0-1.584-.302-2.021-.905-.438-.604-.664-1.505-.68-2.704v-1.447c0-1.254.217-2.186.65-2.795.434-.61 1.114-.914 2.04-.914.917 0 1.593.294 2.027.881.433.588.656 1.496.668 2.722v1.406zm-1.084-1.482c0-.918-.13-1.587-.387-2.007-.258-.42-.666-.63-1.225-.63-.554 0-.959.21-1.213.627-.253.418-.384 1.06-.392 1.928v1.734c0 .922.134 1.603.401 2.042.268.44.673.66 1.216.66.535 0 .933-.208 1.192-.622.26-.414.396-1.066.408-1.957v-1.775zm2.549 6.82l-.616-.422c.367-.511.559-1.039.575-1.582v-.978h1.06v.85c0 .394-.097.788-.29 1.183-.193.395-.436.71-.73.95zm7.628-5.338c0 1.27-.216 2.213-.65 2.83-.434.618-1.111.926-2.033.926-.91 0-1.584-.302-2.022-.905-.437-.604-.664-1.505-.68-2.704v-1.447c0-1.254.217-2.186.651-2.795.434-.61 1.113-.914 2.04-.914.917 0 1.593.294 2.026.881.434.588.657 1.496.668 2.722v1.406zm-1.084-1.482c0-.918-.128-1.587-.386-2.007-.258-.42-.666-.63-1.225-.63-.555 0-.959.21-1.213.627-.254.418-.385 1.06-.392 1.928v1.734c0 .922.133 1.603.401 2.042.268.44.673.66 1.216.66.535 0 .932-.208 1.192-.622.26-.414.396-1.066.407-1.957v-1.775zm7.823 1.482c0 1.27-.217 2.213-.65 2.83-.434.618-1.112.926-2.034.926-.91 0-1.584-.302-2.021-.905-.438-.604-.664-1.505-.68-2.704v-1.447c0-1.254.217-2.186.65-2.795.434-.61 1.114-.914 2.04-.914.917 0 1.593.294 2.027.881.433.588.656 1.496.668 2.722v1.406zm-1.084-1.482c0-.918-.13-1.587-.387-2.007-.258-.42-.666-.63-1.225-.63-.554 0-.959.21-1.212.627-.254.418-.385 1.06-.393 1.928v1.734c0 .922.134 1.603.401 2.042.268.44.673.66 1.216.66.535 0 .933-.208 1.193-.622.26-.414.395-1.066.407-1.957v-1.775zm7.822 1.482c0 1.27-.217 2.213-.65 2.83-.434.618-1.112.926-2.034.926-.91 0-1.584-.302-2.021-.905-.438-.604-.664-1.505-.68-2.704v-1.447c0-1.254.217-2.186.65-2.795.434-.61 1.114-.914 2.04-.914.918 0 1.593.294 2.027.881.434.588.656 1.496.668 2.722v1.406zm-1.084-1.482c0-.918-.129-1.587-.387-2.007-.258-.42-.666-.63-1.224-.63-.555 0-.96.21-1.213.627-.254.418-.385 1.06-.393 1.928v1.734c0 .922.134 1.603.402 2.042.267.44.672.66 1.215.66.536 0 .933-.208 1.193-.622.26-.414.395-1.066.407-1.957v-1.775zm2.549 6.82l-.615-.422c.367-.511.558-1.039.574-1.582v-.978h1.06v.85c0 .394-.096.788-.29 1.183-.193.395-.436.71-.73.95zm7.629-5.338c0 1.27-.217 2.213-.65 2.83-.434.618-1.112.926-2.034.926-.91 0-1.584-.302-2.021-.905-.438-.604-.664-1.505-.68-2.704v-1.447c0-1.254.217-2.186.65-2.795.434-.61 1.114-.914 2.04-.914.917 0 1.593.294 2.027.881.433.588.656 1.496.668 2.722v1.406zm-1.084-1.482c0-.918-.13-1.587-.387-2.007-.258-.42-.666-.63-1.225-.63-.554 0-.959.21-1.212.627-.254.418-.385 1.06-.393 1.928v1.734c0 .922.134 1.603.401 2.042.268.44.673.66 1.216.66.535 0 .933-.208 1.193-.622.26-.414.395-1.066.407-1.957v-1.775zm7.822 1.482c0 1.27-.217 2.213-.65 2.83-.434.618-1.112.926-2.034.926-.91 0-1.584-.302-2.021-.905-.438-.604-.664-1.505-.68-2.704v-1.447c0-1.254.217-2.186.65-2.795.434-.61 1.114-.914 2.04-.914.918 0 1.593.294 2.027.881.434.588.656 1.496.668 2.722v1.406zm-1.084-1.482c0-.918-.129-1.587-.387-2.007-.257-.42-.666-.63-1.224-.63-.555 0-.96.21-1.213.627-.254.418-.385 1.06-.393 1.928v1.734c0 .922.134 1.603.402 2.042.267.44.672.66 1.215.66.536 0 .933-.208 1.193-.622.26-.414.395-1.066.407-1.957v-1.775zm7.822 1.482c0 1.27-.216 2.213-.65 2.83-.434.618-1.111.926-2.033.926-.91 0-1.584-.302-2.022-.905-.437-.604-.664-1.505-.68-2.704v-1.447c0-1.254.217-2.186.65-2.795.435-.61 1.114-.914 2.04-.914.918 0 1.594.294 2.027.881.434.588.657 1.496.668 2.722v1.406zm-1.084-1.482c0-.918-.129-1.587-.386-2.007-.258-.42-.666-.63-1.225-.63-.555 0-.959.21-1.213.627-.254.418-.385 1.06-.392 1.928v1.734c0 .922.133 1.603.4 2.042.268.44.674.66 1.217.66.535 0 .932-.208 1.192-.622.26-.414.396-1.066.407-1.957v-1.775zM43.916 154h-1.09v-7.225l-2.185.803v-.984l3.105-1.166h.17V154zm3.674-4.277l.433-4.254h4.372v1.002h-3.452l-.257 2.326c.418-.246.892-.37 1.423-.37.778 0 1.395.258 1.852.771.457.514.685 1.208.685 2.083 0 .88-.237 1.572-.711 2.077-.475.506-1.138.76-1.99.76-.754 0-1.369-.21-1.845-.628-.477-.418-.748-.996-.815-1.734h1.026c.066.488.24.856.521 1.104.281.248.652.372 1.113.372.504 0 .9-.171 1.187-.515.287-.344.43-.819.43-1.424 0-.57-.155-1.028-.465-1.374-.31-.346-.724-.519-1.24-.519-.472 0-.843.104-1.113.31l-.287.235-.867-.222zm11.59.638c0 1.27-.217 2.213-.65 2.83-.434.618-1.112.926-2.034.926-.91 0-1.584-.302-2.021-.905-.438-.604-.664-1.505-.68-2.704v-1.447c0-1.254.217-2.186.65-2.795.434-.61 1.114-.914 2.04-.914.917 0 1.593.294 2.027.881.433.588.656 1.496.668 2.722v1.406zm-1.084-1.482c0-.918-.13-1.587-.387-2.007-.258-.42-.666-.63-1.225-.63-.554 0-.959.21-1.213.627-.253.418-.384 1.06-.392 1.928v1.734c0 .922.134 1.603.401 2.042.268.44.673.66 1.216.66.535 0 .933-.208 1.192-.622.26-.414.396-1.066.408-1.957v-1.775zm2.549 6.82l-.616-.422c.367-.511.559-1.039.575-1.582v-.978h1.06v.85c0 .394-.097.788-.29 1.183-.193.395-.436.71-.73.95zm7.628-5.338c0 1.27-.216 2.213-.65 2.83-.434.618-1.111.926-2.033.926-.91 0-1.584-.302-2.022-.905-.437-.604-.664-1.505-.68-2.704v-1.447c0-1.254.217-2.186.651-2.795.434-.61 1.113-.914 2.04-.914.917 0 1.593.294 2.026.881.434.588.657 1.496.668 2.722v1.406zm-1.084-1.482c0-.918-.128-1.587-.386-2.007-.258-.42-.666-.63-1.225-.63-.555 0-.959.21-1.213.627-.254.418-.385 1.06-.392 1.928v1.734c0 .922.133 1.603.401 2.042.268.44.673.66 1.216.66.535 0 .932-.208 1.192-.622.26-.414.396-1.066.407-1.957v-1.775zm7.823 1.482c0 1.27-.217 2.213-.65 2.83-.434.618-1.112.926-2.034.926-.91 0-1.584-.302-2.021-.905-.438-.604-.664-1.505-.68-2.704v-1.447c0-1.254.217-2.186.65-2.795.434-.61 1.114-.914 2.04-.914.917 0 1.593.294 2.027.881.433.588.656 1.496.668 2.722v1.406zm-1.084-1.482c0-.918-.13-1.587-.387-2.007-.258-.42-.666-.63-1.225-.63-.554 0-.959.21-1.212.627-.254.418-.385 1.06-.393 1.928v1.734c0 .922.134 1.603.401 2.042.268.44.673.66 1.216.66.535 0 .933-.208 1.193-.622.26-.414.395-1.066.407-1.957v-1.775zm7.822 1.482c0 1.27-.217 2.213-.65 2.83-.434.618-1.112.926-2.034.926-.91 0-1.584-.302-2.021-.905-.438-.604-.664-1.505-.68-2.704v-1.447c0-1.254.217-2.186.65-2.795.434-.61 1.114-.914 2.04-.914.918 0 1.593.294 2.027.881.434.588.656 1.496.668 2.722v1.406zm-1.084-1.482c0-.918-.129-1.587-.387-2.007-.258-.42-.666-.63-1.224-.63-.555 0-.96.21-1.213.627-.254.418-.385 1.06-.393 1.928v1.734c0 .922.134 1.603.402 2.042.267.44.672.66 1.215.66.536 0 .933-.208 1.193-.622.26-.414.395-1.066.407-1.957v-1.775zm2.549 6.82l-.615-.422c.367-.511.558-1.039.574-1.582v-.978h1.06v.85c0 .394-.096.788-.29 1.183-.193.395-.436.71-.73.95zm7.629-5.338c0 1.27-.217 2.213-.65 2.83-.434.618-1.112.926-2.034.926-.91 0-1.584-.302-2.021-.905-.438-.604-.664-1.505-.68-2.704v-1.447c0-1.254.217-2.186.65-2.795.434-.61 1.114-.914 2.04-.914.917 0 1.593.294 2.027.881.433.588.656 1.496.668 2.722v1.406zm-1.084-1.482c0-.918-.13-1.587-.387-2.007-.258-.42-.666-.63-1.225-.63-.554 0-.959.21-1.212.627-.254.418-.385 1.06-.393 1.928v1.734c0 .922.134 1.603.401 2.042.268.44.673.66 1.216.66.535 0 .933-.208 1.193-.622.26-.414.395-1.066.407-1.957v-1.775zm7.822 1.482c0 1.27-.217 2.213-.65 2.83-.434.618-1.112.926-2.034.926-.91 0-1.584-.302-2.021-.905-.438-.604-.664-1.505-.68-2.704v-1.447c0-1.254.217-2.186.65-2.795.434-.61 1.114-.914 2.04-.914.918 0 1.593.294 2.027.881.434.588.656 1.496.668 2.722v1.406zm-1.084-1.482c0-.918-.129-1.587-.387-2.007-.257-.42-.666-.63-1.224-.63-.555 0-.96.21-1.213.627-.254.418-.385 1.06-.393 1.928v1.734c0 .922.134 1.603.402 2.042.267.44.672.66 1.215.66.536 0 .933-.208 1.193-.622.26-.414.395-1.066.407-1.957v-1.775zm7.822 1.482c0 1.27-.216 2.213-.65 2.83-.434.618-1.111.926-2.033.926-.91 0-1.584-.302-2.022-.905-.437-.604-.664-1.505-.68-2.704v-1.447c0-1.254.217-2.186.65-2.795.435-.61 1.114-.914 2.04-.914.918 0 1.594.294 2.027.881.434.588.657 1.496.668 2.722v1.406zm-1.084-1.482c0-.918-.129-1.587-.386-2.007-.258-.42-.666-.63-1.225-.63-.555 0-.959.21-1.213.627-.254.418-.385 1.06-.392 1.928v1.734c0 .922.133 1.603.4 2.042.268.44.674.66 1.217.66.535 0 .932-.208 1.192-.622.26-.414.396-1.066.407-1.957v-1.775zM45.943 110h-5.59v-.78l2.954-3.28c.437-.497.739-.9.905-1.21a2.02 2.02 0 0 0 .249-.964c0-.446-.135-.81-.404-1.096-.27-.285-.63-.428-1.078-.428-.54 0-.958.154-1.257.46-.3.307-.449.734-.449 1.28H40.19c0-.785.253-1.42.76-1.904.505-.484 1.182-.726 2.03-.726.792 0 1.42.208 1.88.624.461.416.692.97.692 1.66 0 .84-.535 1.84-1.606 3l-2.285 2.48h4.283V110zm6.498-3.639c0 1.27-.216 2.213-.65 2.83-.434.618-1.111.926-2.033.926-.91 0-1.584-.302-2.022-.905-.437-.604-.664-1.505-.68-2.704v-1.447c0-1.254.217-2.186.651-2.795.434-.61 1.113-.914 2.04-.914.917 0 1.593.294 2.026.881.434.588.657 1.496.668 2.722v1.406zm-1.084-1.482c0-.918-.128-1.587-.386-2.007-.258-.42-.666-.63-1.225-.63-.555 0-.959.21-1.213.627-.254.418-.385 1.06-.392 1.928v1.734c0 .922.133 1.603.401 2.042.268.44.673.66 1.216.66.535 0 .932-.208 1.192-.622.26-.414.396-1.066.407-1.957v-1.775zm7.823 1.482c0 1.27-.217 2.213-.65 2.83-.434.618-1.112.926-2.034.926-.91 0-1.584-.302-2.021-.905-.438-.604-.664-1.505-.68-2.704v-1.447c0-1.254.217-2.186.65-2.795.434-.61 1.114-.914 2.04-.914.917 0 1.593.294 2.027.881.433.588.656 1.496.668 2.722v1.406zm-1.084-1.482c0-.918-.13-1.587-.387-2.007-.258-.42-.666-.63-1.225-.63-.554 0-.959.21-1.213.627-.253.418-.384 1.06-.392 1.928v1.734c0 .922.134 1.603.401 2.042.268.44.673.66 1.216.66.535 0 .933-.208 1.192-.622.26-.414.396-1.066.408-1.957v-1.775zm2.549 6.82l-.616-.422c.367-.511.559-1.039.575-1.582v-.978h1.06v.85c0 .394-.097.788-.29 1.183-.193.395-.436.71-.73.95zm7.628-5.338c0 1.27-.216 2.213-.65 2.83-.434.618-1.111.926-2.033.926-.91 0-1.584-.302-2.022-.905-.437-.604-.664-1.505-.68-2.704v-1.447c0-1.254.217-2.186.651-2.795.434-.61 1.113-.914 2.04-.914.917 0 1.593.294 2.026.881.434.588.657 1.496.668 2.722v1.406zm-1.084-1.482c0-.918-.128-1.587-.386-2.007-.258-.42-.666-.63-1.225-.63-.555 0-.959.21-1.213.627-.254.418-.385 1.06-.392 1.928v1.734c0 .922.133 1.603.401 2.042.268.44.673.66 1.216.66.535 0 .932-.208 1.192-.622.26-.414.396-1.066.407-1.957v-1.775zm7.823 1.482c0 1.27-.217 2.213-.65 2.83-.434.618-1.112.926-2.034.926-.91 0-1.584-.302-2.021-.905-.438-.604-.664-1.505-.68-2.704v-1.447c0-1.254.217-2.186.65-2.795.434-.61 1.114-.914 2.04-.914.917 0 1.593.294 2.027.881.433.588.656 1.496.668 2.722v1.406zm-1.084-1.482c0-.918-.13-1.587-.387-2.007-.258-.42-.666-.63-1.225-.63-.554 0-.959.21-1.212.627-.254.418-.385 1.06-.393 1.928v1.734c0 .922.134 1.603.401 2.042.268.44.673.66 1.216.66.535 0 .933-.208 1.193-.622.26-.414.395-1.066.407-1.957v-1.775zm7.822 1.482c0 1.27-.217 2.213-.65 2.83-.434.618-1.112.926-2.034.926-.91 0-1.584-.302-2.021-.905-.438-.604-.664-1.505-.68-2.704v-1.447c0-1.254.217-2.186.65-2.795.434-.61 1.114-.914 2.04-.914.918 0 1.593.294 2.027.881.434.588.656 1.496.668 2.722v1.406zm-1.084-1.482c0-.918-.129-1.587-.387-2.007-.258-.42-.666-.63-1.224-.63-.555 0-.96.21-1.213.627-.254.418-.385 1.06-.393 1.928v1.734c0 .922.134 1.603.402 2.042.267.44.672.66 1.215.66.536 0 .933-.208 1.193-.622.26-.414.395-1.066.407-1.957v-1.775zm2.549 6.82l-.615-.422c.367-.511.558-1.039.574-1.582v-.978h1.06v.85c0 .394-.096.788-.29 1.183-.193.395-.436.71-.73.95zm7.629-5.338c0 1.27-.217 2.213-.65 2.83-.434.618-1.112.926-2.034.926-.91 0-1.584-.302-2.021-.905-.438-.604-.664-1.505-.68-2.704v-1.447c0-1.254.217-2.186.65-2.795.434-.61 1.114-.914 2.04-.914.917 0 1.593.294 2.027.881.433.588.656 1.496.668 2.722v1.406zm-1.084-1.482c0-.918-.13-1.587-.387-2.007-.258-.42-.666-.63-1.225-.63-.554 0-.959.21-1.212.627-.254.418-.385 1.06-.393 1.928v1.734c0 .922.134 1.603.401 2.042.268.44.673.66 1.216.66.535 0 .933-.208 1.193-.622.26-.414.395-1.066.407-1.957v-1.775zm7.822 1.482c0 1.27-.217 2.213-.65 2.83-.434.618-1.112.926-2.034.926-.91 0-1.584-.302-2.021-.905-.438-.604-.664-1.505-.68-2.704v-1.447c0-1.254.217-2.186.65-2.795.434-.61 1.114-.914 2.04-.914.918 0 1.593.294 2.027.881.434.588.656 1.496.668 2.722v1.406zm-1.084-1.482c0-.918-.129-1.587-.387-2.007-.257-.42-.666-.63-1.224-.63-.555 0-.96.21-1.213.627-.254.418-.385 1.06-.393 1.928v1.734c0 .922.134 1.603.402 2.042.267.44.672.66 1.215.66.536 0 .933-.208 1.193-.622.26-.414.395-1.066.407-1.957v-1.775zm7.822 1.482c0 1.27-.216 2.213-.65 2.83-.434.618-1.111.926-2.033.926-.91 0-1.584-.302-2.022-.905-.437-.604-.664-1.505-.68-2.704v-1.447c0-1.254.217-2.186.65-2.795.435-.61 1.114-.914 2.04-.914.918 0 1.594.294 2.027.881.434.588.657 1.496.668 2.722v1.406zm-1.084-1.482c0-.918-.129-1.587-.386-2.007-.258-.42-.666-.63-1.225-.63-.555 0-.959.21-1.213.627-.254.418-.385 1.06-.392 1.928v1.734c0 .922.133 1.603.4 2.042.268.44.674.66 1.217.66.535 0 .932-.208 1.192-.622.26-.414.396-1.066.407-1.957v-1.775zM45.943 66h-5.59v-.78l2.954-3.28c.437-.497.739-.9.905-1.21a2.02 2.02 0 0 0 .249-.964c0-.446-.135-.81-.404-1.096-.27-.285-.63-.428-1.078-.428-.54 0-.958.154-1.257.46-.3.307-.449.734-.449 1.28H40.19c0-.785.253-1.42.76-1.904.505-.484 1.182-.726 2.03-.726.792 0 1.42.208 1.88.624.461.416.692.97.692 1.66 0 .84-.535 1.84-1.606 3l-2.285 2.48h4.283V66zm1.647-4.277l.433-4.254h4.372v1.002h-3.452l-.257 2.326c.418-.246.892-.37 1.423-.37.778 0 1.395.258 1.852.771.457.514.685 1.208.685 2.083 0 .88-.237 1.572-.711 2.077-.475.506-1.138.76-1.99.76-.754 0-1.369-.21-1.845-.628-.477-.418-.748-.996-.815-1.734h1.026c.066.488.24.856.521 1.104.281.248.652.372 1.113.372.504 0 .9-.171 1.187-.515.287-.344.43-.819.43-1.424 0-.57-.155-1.028-.465-1.374-.31-.346-.724-.519-1.24-.519-.472 0-.843.104-1.113.31l-.287.235-.867-.222zm11.59.638c0 1.27-.217 2.213-.65 2.83-.434.618-1.112.926-2.034.926-.91 0-1.584-.302-2.021-.905-.438-.604-.664-1.505-.68-2.704V61.06c0-1.254.217-2.186.65-2.795.434-.61 1.114-.914 2.04-.914.917 0 1.593.294 2.027.881.433.588.656 1.496.668 2.722v1.406zm-1.084-1.482c0-.918-.13-1.587-.387-2.007-.258-.42-.666-.63-1.225-.63-.554 0-.959.21-1.213.627-.253.418-.384 1.06-.392 1.928v1.734c0 .922.134 1.603.401 2.042.268.44.673.66 1.216.66.535 0 .933-.208 1.192-.622.26-.414.396-1.066.408-1.957V60.88zm2.549 6.82l-.616-.422c.367-.511.559-1.039.575-1.582v-.978h1.06v.85c0 .394-.097.788-.29 1.183-.193.395-.436.71-.73.95zm7.628-5.338c0 1.27-.216 2.213-.65 2.83-.434.618-1.111.926-2.033.926-.91 0-1.584-.302-2.022-.905-.437-.604-.664-1.505-.68-2.704V61.06c0-1.254.217-2.186.651-2.795.434-.61 1.113-.914 2.04-.914.917 0 1.593.294 2.026.881.434.588.657 1.496.668 2.722v1.406zM67.19 60.88c0-.918-.128-1.587-.386-2.007-.258-.42-.666-.63-1.225-.63-.555 0-.959.21-1.213.627-.254.418-.385 1.06-.392 1.928v1.734c0 .922.133 1.603.401 2.042.268.44.673.66 1.216.66.535 0 .932-.208 1.192-.622.26-.414.396-1.066.407-1.957V60.88zm7.823 1.482c0 1.27-.217 2.213-.65 2.83-.434.618-1.112.926-2.034.926-.91 0-1.584-.302-2.021-.905-.438-.604-.664-1.505-.68-2.704V61.06c0-1.254.217-2.186.65-2.795.434-.61 1.114-.914 2.04-.914.917 0 1.593.294 2.027.881.433.588.656 1.496.668 2.722v1.406zm-1.084-1.482c0-.918-.13-1.587-.387-2.007-.258-.42-.666-.63-1.225-.63-.554 0-.959.21-1.212.627-.254.418-.385 1.06-.393 1.928v1.734c0 .922.134 1.603.401 2.042.268.44.673.66 1.216.66.535 0 .933-.208 1.193-.622.26-.414.395-1.066.407-1.957V60.88zm7.822 1.482c0 1.27-.217 2.213-.65 2.83-.434.618-1.112.926-2.034.926-.91 0-1.584-.302-2.021-.905-.438-.604-.664-1.505-.68-2.704V61.06c0-1.254.217-2.186.65-2.795.434-.61 1.114-.914 2.04-.914.918 0 1.593.294 2.027.881.434.588.656 1.496.668 2.722v1.406zm-1.084-1.482c0-.918-.129-1.587-.387-2.007-.258-.42-.666-.63-1.224-.63-.555 0-.96.21-1.213.627-.254.418-.385 1.06-.393 1.928v1.734c0 .922.134 1.603.402 2.042.267.44.672.66 1.215.66.536 0 .933-.208 1.193-.622.26-.414.395-1.066.407-1.957V60.88zm2.549 6.82l-.615-.422c.367-.511.558-1.039.574-1.582v-.978h1.06v.85c0 .394-.096.788-.29 1.183-.193.395-.436.71-.73.95zm7.629-5.338c0 1.27-.217 2.213-.65 2.83-.434.618-1.112.926-2.034.926-.91 0-1.584-.302-2.021-.905-.438-.604-.664-1.505-.68-2.704V61.06c0-1.254.217-2.186.65-2.795.434-.61 1.114-.914 2.04-.914.917 0 1.593.294 2.027.881.433.588.656 1.496.668 2.722v1.406zM89.76 60.88c0-.918-.13-1.587-.387-2.007-.258-.42-.666-.63-1.225-.63-.554 0-.959.21-1.212.627-.254.418-.385 1.06-.393 1.928v1.734c0 .922.134 1.603.401 2.042.268.44.673.66 1.216.66.535 0 .933-.208 1.193-.622.26-.414.395-1.066.407-1.957V60.88zm7.822 1.482c0 1.27-.217 2.213-.65 2.83-.434.618-1.112.926-2.034.926-.91 0-1.584-.302-2.021-.905-.438-.604-.664-1.505-.68-2.704V61.06c0-1.254.217-2.186.65-2.795.434-.61 1.114-.914 2.04-.914.918 0 1.593.294 2.027.881.434.588.656 1.496.668 2.722v1.406zm-1.084-1.482c0-.918-.129-1.587-.387-2.007-.257-.42-.666-.63-1.224-.63-.555 0-.96.21-1.213.627-.254.418-.385 1.06-.393 1.928v1.734c0 .922.134 1.603.402 2.042.267.44.672.66 1.215.66.536 0 .933-.208 1.193-.622.26-.414.395-1.066.407-1.957V60.88zm7.822 1.482c0 1.27-.216 2.213-.65 2.83-.434.618-1.111.926-2.033.926-.91 0-1.584-.302-2.022-.905-.437-.604-.664-1.505-.68-2.704V61.06c0-1.254.217-2.186.65-2.795.435-.61 1.114-.914 2.04-.914.918 0 1.594.294 2.027.881.434.588.657 1.496.668 2.722v1.406zm-1.084-1.482c0-.918-.129-1.587-.386-2.007-.258-.42-.666-.63-1.225-.63-.555 0-.959.21-1.213.627-.254.418-.385 1.06-.392 1.928v1.734c0 .922.133 1.603.4 2.042.268.44.674.66 1.217.66.535 0 .932-.208 1.192-.622.26-.414.396-1.066.407-1.957V60.88z"/></g></g></svg>