<svg xmlns="http://www.w3.org/2000/svg" width="16" height="16" viewBox="0 0 16 16" fill="none">
  <path d="M11.5 1C11.7761 1 12 1.22386 12 1.5V2H14C14.5523 2 15 2.44772 15 3V14C15 14.5523 14.5523 15 14 15H2C1.44772 15 1 14.5523 1 14V3C1 2.44772 1.44772 2 2 2H4V1.5C4 1.22386 4.22386 1 4.5 1C4.77614 1 5 1.22386 5 1.5V2H11V1.5C11 1.22386 11.2239 1 11.5 1ZM14 6H2V14H14V6ZM4 3H2V5H14V3H12V3.5C12 3.77614 11.7761 4 11.5 4C11.2239 4 11 3.77614 11 3.5V3H5V3.5C5 3.77614 4.77614 4 4.5 4C4.22386 4 4 3.77614 4 3.5V3Z" fill="#333333"/>
</svg>