<svg xmlns="http://www.w3.org/2000/svg" width="48" height="48" viewBox="0 0 48 48" fill="none">
  <g clip-path="url(#clip0_46860_196174)">
    <path d="M0 9C0 4.02944 4.02944 0 9 0H39C43.9706 0 48 4.02944 48 9V39C48 43.9706 43.9706 48 39 48H9C4.02944 48 0 43.9706 0 39V9Z" fill="#E22526"/>
    <path d="M9 0C4.02944 0 0 4.02944 0 9V9.26143L44.8717 2.17896C43.2955 0.820999 41.2436 0 39 0H9Z" fill="#B51E1E"/>
    <path d="M45.7979 3.10162L37.5666 47.9999L39 48C43.9706 48 48 43.9706 48 39V9C48 6.74364 47.1697 4.68122 45.7979 3.10162Z" fill="#B51E1E"/>
    <path d="M13.5102 25.6066C13.5102 24.8086 13.6362 24.0596 13.8882 23.3596C14.1542 22.6456 14.5322 22.0296 15.0222 21.5116C15.5122 20.9796 16.1072 20.5596 16.8072 20.2516C17.5072 19.9436 18.3052 19.7896 19.2012 19.7896C19.7892 19.7896 20.3282 19.8456 20.8182 19.9576C21.3082 20.0556 21.7842 20.2026 22.2462 20.3986L21.5952 22.8976C21.3012 22.7856 20.9792 22.6876 20.6292 22.6036C20.2792 22.5196 19.8872 22.4776 19.4532 22.4776C18.5292 22.4776 17.8362 22.7646 17.3742 23.3386C16.9262 23.9126 16.7022 24.6686 16.7022 25.6066C16.7022 26.6006 16.9122 27.3706 17.3322 27.9166C17.7662 28.4626 18.5152 28.7356 19.5792 28.7356C19.9572 28.7356 20.3632 28.7006 20.7972 28.6306C21.2312 28.5606 21.6302 28.4486 21.9942 28.2946L22.4352 30.8566C22.0712 31.0106 21.6162 31.1436 21.0702 31.2556C20.5242 31.3676 19.9222 31.4236 19.2642 31.4236C18.2562 31.4236 17.3882 31.2766 16.6602 30.9826C15.9322 30.6746 15.3302 30.2616 14.8542 29.7436C14.3922 29.2256 14.0492 28.6166 13.8252 27.9166C13.6152 27.2026 13.5102 26.4326 13.5102 25.6066Z" fill="white"/>
    <path d="M34.4892 16.5766V19.3696H30.1002V31.1296H26.8242V19.3696H22.4352V16.5766H34.4892Z" fill="white"/>
  </g>
  <defs>
    <clipPath id="clip0_46860_196174">
      <rect width="48" height="48" fill="white"/>
    </clipPath>
  </defs>
</svg>