<svg xmlns="http://www.w3.org/2000/svg" width="102" height="102" viewBox="0 0 102 102" fill="none">
  <path fill-rule="evenodd" clip-rule="evenodd" d="M44.836 3.90423C47.3688 -1.18032 54.6297 -1.18032 57.1624 3.90423L78.5824 46.7379L101.173 91.9324C103.464 96.5142 100.13 101.911 95.0069 101.911H51.0024H6.99786C1.86876 101.911 -1.45942 96.5142 0.831492 91.9324L23.4224 46.7379L44.836 3.90423ZM51.0001 70.0904C53.3838 70.0904 55.3703 68.2413 55.5328 65.8577L57.3146 39.8013C57.7841 35.6122 54.8285 31.9086 51.0001 31.9086C47.1717 31.9086 44.2161 35.6122 44.6856 39.8013L46.4674 65.8577C46.6299 68.2413 48.6163 70.0904 51.0001 70.0904ZM57.3637 82.7451V82.8921C57.3637 86.4356 54.664 89.1822 50.9973 89.1822C47.3418 89.1822 44.6365 86.4412 44.6365 82.8921V82.7451C44.6365 79.196 47.3418 76.455 50.9973 76.455C54.664 76.455 57.3637 79.1903 57.3637 82.7451Z" fill="#FF444F"/>
</svg>