<svg width="33" height="32" viewBox="0 0 33 32" fill="none" xmlns="http://www.w3.org/2000/svg">
<rect x="0.5" width="32" height="32" rx="16" fill="#283991"/>
<path d="M16.8629 3.97641L16.4726 2.77539L16.0823 3.97641H14.8191L15.8413 4.71866L15.4509 5.91968L16.4726 5.17696L17.4945 5.91968L17.1042 4.71866L18.126 3.97641H16.8629Z" fill="#F8D12E"/>
<path d="M16.8629 26.6497L16.4726 25.4482L16.0823 26.6497H14.8191L15.8413 27.392L15.4509 28.5929L16.4726 27.8508L17.4945 28.5929L17.1042 27.392L18.126 26.6497H16.8629Z" fill="#F8D12E"/>
<path d="M22.6951 4.78486L23.0851 5.98615H24.3483L23.3264 6.72887L23.7167 7.92989L22.6951 7.18717L21.6732 7.92989L22.0635 6.72887L21.0418 5.98615H22.305L22.6951 4.78486Z" fill="#F8D12E"/>
<path d="M27.3307 10.1745L26.9407 8.97351L26.5501 10.1745H25.2872L26.3091 10.917L25.9187 12.1181L26.9407 11.3758L27.9623 12.1181L27.572 10.917L28.5939 10.1745H27.3307Z" fill="#F8D12E"/>
<path d="M27.0417 19.5563L27.4318 20.7578H28.6949L27.673 21.5001L28.0636 22.7008L27.0417 21.9588L26.0198 22.7008L26.4101 21.5001L25.3882 20.7578H26.6514L27.0417 19.5563Z" fill="#F8D12E"/>
<path d="M6.54837 10.1745L6.1583 8.97351L5.76823 10.1745H4.50505L5.52671 10.917L5.13644 12.1181L6.1583 11.3758L7.17968 12.1181L6.78961 10.917L7.81127 10.1745H6.54837Z" fill="#F8D12E"/>
<path d="M27.9246 14.0206L28.3146 15.2216H29.5778L28.5559 15.9639L28.9462 17.1651L27.9246 16.4232L26.9027 17.1651L27.2932 15.9639L26.2711 15.2216H27.534L27.9246 14.0206Z" fill="#F8D12E"/>
<path d="M5.58331 15.2216L5.19324 14.0206L4.8029 15.2216H3.53979L4.56166 15.9639L4.17131 17.1651L5.19324 16.4232L6.2149 17.1651L5.82436 15.9639L6.84622 15.2216H5.58331Z" fill="#F8D12E"/>
<path d="M6.02132 19.5563L6.41139 20.7578H7.6743L6.65271 21.5001L7.04271 22.7008L6.02132 21.9588L4.99946 22.7008L5.38973 21.5001L4.36787 20.7578H5.63105L6.02132 19.5563Z" fill="#F8D12E"/>
<path d="M23.2683 25.1246L22.8783 23.9236L22.488 25.1246H21.2248L22.2467 25.8673L21.8561 27.0683L22.8783 26.3261L23.8999 27.0683L23.5094 25.8673L24.5315 25.1246H23.2683Z" fill="#F8D12E"/>
<path d="M10.4516 4.78486L10.8416 5.98615H12.1048L11.0829 6.72887L11.4735 7.92989L10.4516 7.18717L9.42997 7.92989L9.82024 6.72887L8.79838 5.98615H10.0613L10.4516 4.78486Z" fill="#F8D12E"/>
<path d="M10.381 25.0483L9.99074 23.8468L9.6004 25.0483H8.3375L9.35936 25.7903L8.96908 26.9913L9.99074 26.2495L11.0126 26.9913L10.6223 25.7903L11.6442 25.0483H10.381Z" fill="#F8D12E"/>
</svg>
