<svg xmlns="http://www.w3.org/2000/svg" width="16" height="16" viewBox="0 0 16 16" fill="none">
  <path fill-rule="evenodd" clip-rule="evenodd" d="M4 8C4 7.72386 4.22386 7.5 4.5 7.5H11.5C11.7761 7.5 12 7.72386 12 8C12 8.27614 11.7761 8.5 11.5 8.5H4.5C4.22386 8.5 4 8.27614 4 8Z" fill="#333333"/>
  <path fill-rule="evenodd" clip-rule="evenodd" d="M2 5C2 4.72386 2.22386 4.5 2.5 4.5H13.5C13.7761 4.5 14 4.72386 14 5C14 5.27614 13.7761 5.5 13.5 5.5H2.5C2.22386 5.5 2 5.27614 2 5Z" fill="#333333"/>
  <path fill-rule="evenodd" clip-rule="evenodd" d="M6 11C6 10.7239 6.22386 10.5 6.5 10.5H9.5C9.77614 10.5 10 10.7239 10 11C10 11.2761 9.77614 11.5 9.5 11.5H6.5C6.22386 11.5 6 11.2761 6 11Z" fill="#333333"/>
</svg>