<svg xmlns="http://www.w3.org/2000/svg" width="48" height="48" viewBox="0 0 48 48" fill="none">
  <g clip-path="url(#clip0_1295_111455)">
    <path d="M0 9C0 4.02944 4.02944 0 9 0H39C43.9706 0 48 4.02944 48 9V39C48 43.9706 43.9706 48 39 48H9C4.02944 48 0 43.9706 0 39V9Z" fill="#384177"/>
    <path d="M9 0C4.02944 0 0 4.02944 0 9V9.26143L44.8717 2.17896C43.2955 0.820999 41.2436 0 39 0H9Z" fill="#2A3052"/>
    <path d="M45.7979 3.10162L37.5666 47.9999L39 48C43.9706 48 48 43.9706 48 39V9C48 6.74364 47.1697 4.68122 45.7979 3.10162Z" fill="#2A3052"/>
    <path d="M16.5775 31.455C15.7795 31.455 14.9815 31.427 14.1835 31.371C13.3995 31.329 12.5805 31.217 11.7265 31.035V16.923C12.3985 16.797 13.1335 16.706 13.9315 16.65C14.7295 16.58 15.4715 16.545 16.1575 16.545C17.0815 16.545 17.9285 16.615 18.6985 16.755C19.4825 16.881 20.1545 17.105 20.7145 17.427C21.2745 17.749 21.7085 18.176 22.0165 18.708C22.3385 19.226 22.4995 19.87 22.4995 20.64C22.4995 21.802 21.9395 22.719 20.8195 23.391C21.7435 23.741 22.3735 24.217 22.7095 24.819C23.0455 25.421 23.2135 26.1 23.2135 26.856C23.2135 28.382 22.6535 29.53 21.5335 30.3C20.4275 31.07 18.7755 31.455 16.5775 31.455ZM14.9185 24.924V28.683C15.1565 28.711 15.4155 28.732 15.6955 28.746C15.9755 28.76 16.2835 28.767 16.6195 28.767C17.5995 28.767 18.3905 28.627 18.9925 28.347C19.5945 28.067 19.8955 27.549 19.8955 26.793C19.8955 26.121 19.6435 25.645 19.1395 25.365C18.6355 25.071 17.9145 24.924 16.9765 24.924H14.9185ZM14.9185 22.425H16.5145C17.5225 22.425 18.2435 22.299 18.6775 22.047C19.1115 21.781 19.3285 21.361 19.3285 20.787C19.3285 20.199 19.1045 19.786 18.6565 19.548C18.2085 19.31 17.5505 19.191 16.6825 19.191C16.4025 19.191 16.1015 19.198 15.7795 19.212C15.4575 19.212 15.1705 19.226 14.9185 19.254V22.425Z" fill="white"/>
    <path d="M29.6369 31.455C28.8389 31.455 28.0409 31.427 27.2429 31.371C26.4589 31.329 25.6399 31.217 24.7859 31.035V16.923C25.4579 16.797 26.1929 16.706 26.9909 16.65C27.7889 16.58 28.5309 16.545 29.2169 16.545C30.1409 16.545 30.9879 16.615 31.7579 16.755C32.5419 16.881 33.2139 17.105 33.7739 17.427C34.3339 17.749 34.7679 18.176 35.0759 18.708C35.3979 19.226 35.5589 19.87 35.5589 20.64C35.5589 21.802 34.9989 22.719 33.8789 23.391C34.8029 23.741 35.4329 24.217 35.7689 24.819C36.1049 25.421 36.2729 26.1 36.2729 26.856C36.2729 28.382 35.7129 29.53 34.5929 30.3C33.4869 31.07 31.8349 31.455 29.6369 31.455ZM27.9779 24.924V28.683C28.2159 28.711 28.4749 28.732 28.7549 28.746C29.0349 28.76 29.3429 28.767 29.6789 28.767C30.6589 28.767 31.4499 28.627 32.0519 28.347C32.6539 28.067 32.9549 27.549 32.9549 26.793C32.9549 26.121 32.7029 25.645 32.1989 25.365C31.6949 25.071 30.9739 24.924 30.0359 24.924H27.9779ZM27.9779 22.425H29.5739C30.5819 22.425 31.3029 22.299 31.7369 22.047C32.1709 21.781 32.3879 21.361 32.3879 20.787C32.3879 20.199 32.1639 19.786 31.7159 19.548C31.2679 19.31 30.6099 19.191 29.7419 19.191C29.4619 19.191 29.1609 19.198 28.8389 19.212C28.5169 19.212 28.2299 19.226 27.9779 19.254V22.425Z" fill="white"/>
  </g>
  <defs>
    <clipPath id="clip0_1295_111455">
      <rect width="48" height="48" fill="white"/>
    </clipPath>
  </defs>
</svg>