<svg width="52" height="36" viewBox="0 0 52 36" fill="none" xmlns="http://www.w3.org/2000/svg">
<g id="apple pay 1">
<g id="Fiat   onramp">
<g id="Fiat onramp simplified version">
<g id="wyre">
<g id="payment method list">
<g id="3">
<g id="Group 16">
<g id="Group 3">
<mask id="mask0_2322_13848" style="mask-type:alpha" maskUnits="userSpaceOnUse" x="1" y="1" width="50" height="33">
<g id="mask 2">
<path id="Vector" d="M1 1.75H50.9998V33.9533H1V1.75Z" fill="white"/>
</g>
</mask>
<g mask="url(#mask0_2322_13848)">
<path id="Fill 1" fill-rule="evenodd" clip-rule="evenodd" d="M46.5224 1.75H5.47796C5.30678 1.75 5.13559 1.75 4.96483 1.75085C4.82076 1.75169 4.67712 1.75339 4.53305 1.75763C4.21907 1.7661 3.90254 1.78475 3.5928 1.84068C3.27754 1.89788 2.98474 1.99068 2.69915 2.13729C2.4178 2.28093 2.16059 2.46907 1.93771 2.69364C1.71441 2.9178 1.52754 3.17627 1.38475 3.45932C1.23898 3.74661 1.14661 4.04153 1.09025 4.3589C1.03432 4.67076 1.01568 4.98898 1.0072 5.30466C1.00339 5.44915 1.00169 5.59407 1.00085 5.73898C1 5.91059 1 6.08263 1 6.25508V29.4487C1 29.6208 1 29.7924 1.00085 29.9648C1.00169 30.1093 1.00339 30.2542 1.0072 30.3992C1.01568 30.7144 1.03432 31.0326 1.09025 31.3445C1.14661 31.6614 1.23898 31.9564 1.38475 32.2441C1.52754 32.5271 1.71441 32.786 1.93771 33.0098C2.16059 33.2343 2.4178 33.4229 2.69915 33.5657C2.98474 33.7127 3.27754 33.8059 3.5928 33.8631C3.90254 33.9182 4.21907 33.9373 4.53305 33.9462C4.67712 33.9496 4.82076 33.9513 4.96483 33.9521C5.13559 33.9534 5.30678 33.9534 5.47796 33.9534H46.5224C46.6928 33.9534 46.8644 33.9534 47.0351 33.9521C47.1788 33.9513 47.3229 33.9496 47.4673 33.9462C47.7805 33.9373 48.097 33.9182 48.4076 33.8631C48.722 33.8059 49.0152 33.7127 49.3012 33.5657C49.5826 33.4229 49.839 33.2343 50.0623 33.0098C50.2851 32.786 50.472 32.5271 50.6152 32.2441C50.761 31.9564 50.8538 31.6614 50.9097 31.3445C50.9656 31.0326 50.9839 30.7144 50.9923 30.3992C50.9966 30.2542 50.9983 30.1093 50.9987 29.9648C51 29.7924 51 29.6208 51 29.4487V6.25508C51 6.08263 51 5.91059 50.9987 5.73898C50.9983 5.59407 50.9966 5.44915 50.9923 5.30466C50.9839 4.98898 50.9656 4.67076 50.9097 4.3589C50.8538 4.04153 50.761 3.74661 50.6152 3.45932C50.472 3.17627 50.2851 2.9178 50.0623 2.69364C49.839 2.46907 49.5826 2.28093 49.3012 2.13729C49.0152 1.99068 48.722 1.89788 48.4076 1.84068C48.097 1.78475 47.7805 1.7661 47.4673 1.75763C47.3229 1.75339 47.1788 1.75169 47.0351 1.75085C46.8644 1.75 46.6928 1.75 46.5224 1.75Z" fill="#333333"/>
</g>
</g>
<path id="Fill 4" fill-rule="evenodd" clip-rule="evenodd" d="M46.5224 2.82324L47.027 2.82409C47.1643 2.82494 47.3008 2.82663 47.4385 2.83045C47.6779 2.8368 47.9576 2.84994 48.2186 2.89697C48.4453 2.93807 48.6351 3.00036 48.8177 3.09401C48.9982 3.18595 49.1631 3.30672 49.3071 3.45163C49.452 3.59739 49.572 3.76392 49.6647 3.94697C49.7575 4.12917 49.819 4.31985 49.8597 4.54951C49.9063 4.80926 49.9194 5.09146 49.9258 5.33341C49.9296 5.47028 49.9313 5.60714 49.9321 5.74697C49.9334 5.91604 49.9334 6.08553 49.9334 6.25502V29.4482C49.9334 29.6182 49.9334 29.7868 49.9317 29.9597C49.9313 30.0965 49.9296 30.233 49.9258 30.3699C49.9194 30.6118 49.9063 30.894 49.8592 31.1567C49.819 31.3834 49.7575 31.5737 49.6643 31.7567C49.572 31.9393 49.452 32.1059 49.308 32.2508C49.1626 32.3965 48.9986 32.5169 48.816 32.6097C48.6347 32.7029 48.4448 32.7656 48.2207 32.8059C47.9546 32.8538 47.6626 32.8669 47.4431 32.8728C47.305 32.8758 47.1673 32.8779 47.0266 32.8783C46.8588 32.8796 46.6902 32.8796 46.5224 32.8796H5.47791H5.47113C5.30545 32.8796 5.13893 32.8796 4.96986 32.8783C4.83215 32.8779 4.69486 32.8758 4.56181 32.8728C4.33723 32.8669 4.04528 32.8538 3.7813 32.8063C3.55503 32.7656 3.36478 32.7029 3.1813 32.6084C3.00079 32.5165 2.83639 32.3961 2.69147 32.2504C2.5474 32.1054 2.42791 31.9398 2.33554 31.7571C2.24274 31.5737 2.18088 31.383 2.1402 31.1538C2.09317 30.8915 2.08045 30.6105 2.0741 30.3699C2.07028 30.2326 2.06859 30.0953 2.06774 29.9584L2.06689 29.5546V29.4482V6.25502V6.14824L2.06774 5.7457C2.06859 5.60799 2.07028 5.4707 2.0741 5.33341C2.08045 5.09273 2.09317 4.8118 2.14062 4.5474C2.18088 4.31985 2.24274 4.12917 2.33596 3.94528C2.42791 3.7635 2.5474 3.59782 2.69232 3.45206C2.83639 3.30714 3.00122 3.18638 3.183 3.09358C3.36435 3.00036 3.55461 2.93807 3.7813 2.89697C4.04232 2.84994 4.3224 2.8368 4.56223 2.83045C4.69867 2.82663 4.83554 2.82494 4.97113 2.82409L5.47791 2.82324H46.5224Z" fill="white"/>
<path id="Fill 6" fill-rule="evenodd" clip-rule="evenodd" d="M14.6499 12.5814C15.0779 12.0428 15.3686 11.3191 15.2919 10.5801C14.6652 10.6114 13.9003 10.9958 13.4575 11.5352C13.0601 11.997 12.708 12.7504 12.7999 13.4585C13.5033 13.5199 14.2063 13.1047 14.6499 12.5814Z" fill="#333333"/>
<path id="Fill 8" fill-rule="evenodd" clip-rule="evenodd" d="M15.2837 13.5968C14.2621 13.5358 13.3934 14.1803 12.9057 14.1803C12.4172 14.1803 11.6701 13.6278 10.8621 13.6426C9.81037 13.6583 8.83453 14.2566 8.30105 15.2079C7.20317 17.1117 8.0108 19.9354 9.07859 21.4854C9.59724 22.2528 10.2218 23.0973 11.0451 23.0668C11.8231 23.0358 12.1277 22.56 13.0731 22.56C14.018 22.56 14.2926 23.0668 15.1159 23.0511C15.9701 23.0358 16.5036 22.2841 17.0222 21.5159C17.6167 20.6418 17.8604 19.7977 17.8756 19.7511C17.8604 19.7358 16.229 19.1066 16.2138 17.2189C16.1985 15.6379 17.4947 14.8863 17.5557 14.8396C16.8235 13.7507 15.6803 13.6278 15.2837 13.5968Z" fill="#333333"/>
<path id="Fill 10" fill-rule="evenodd" clip-rule="evenodd" d="M21.6654 17.5377H23.7036C25.2502 17.5377 26.1303 16.7 26.1303 15.2478C26.1303 13.7957 25.2502 12.9661 23.7116 12.9661H21.6654V17.5377ZM24.1798 11.458C26.4002 11.458 27.9464 12.9978 27.9464 15.2402C27.9464 17.4902 26.3684 19.0381 24.1239 19.0381H21.6654V22.9711H19.8892V11.458H24.1798Z" fill="#333333"/>
<path id="Fill 12" fill-rule="evenodd" clip-rule="evenodd" d="M33.7953 19.8279V19.1656L31.7407 19.2932C30.7178 19.3648 30.139 19.8194 30.139 20.5381C30.139 21.2715 30.7419 21.7504 31.6619 21.7504C32.8593 21.7504 33.7953 20.9207 33.7953 19.8279ZM28.4102 20.5855C28.4102 19.1173 29.5284 18.2156 31.511 18.1042L33.7953 17.9686V17.3224C33.7953 16.3889 33.1686 15.83 32.122 15.83C31.1305 15.83 30.5119 16.3088 30.3614 17.0593H28.7432C28.8385 15.5432 30.1233 14.4258 32.1852 14.4258C34.2076 14.4258 35.5 15.5029 35.5 17.1868V22.9711H33.8585V21.591H33.8191C33.3352 22.5245 32.2805 23.1148 31.186 23.1148C29.5521 23.1148 28.4102 22.0936 28.4102 20.5855Z" fill="#333333"/>
<path id="Fill 14" fill-rule="evenodd" clip-rule="evenodd" d="M37.0506 26.0589V24.6623C37.1773 24.6941 37.4625 24.6941 37.6057 24.6941C38.3985 24.6941 38.8264 24.3589 39.0883 23.4975C39.0883 23.4814 39.2391 22.9869 39.2391 22.9788L36.2256 14.5771H38.0811L40.1908 21.4068H40.2222L42.3324 14.5771H44.1404L41.0154 23.4098C40.3019 25.4445 39.4773 26.0988 37.748 26.0988C37.6057 26.0988 37.1773 26.0827 37.0506 26.0589Z" fill="#333333"/>
</g>
</g>
</g>
</g>
</g>
</g>
</g>
</svg>
