<svg xmlns="http://www.w3.org/2000/svg" width="32" height="32"><g fill="none"><path fill="#FF444F" d="M11.68 27.004C5.41 25.532.988 19.992 1.01 13.626V4.835a19.959 19.959 0 0010.74-3.723 19.961 19.961 0 0010.74 3.703v8.809c.001.598.009 1.23-.07 1.824a.5.5 0 00.436.558.503.503 0 00.565-.43c.084-.635.08-1.311.08-1.953V4.32a.502.502 0 00-.506-.498h-.454A18.93 18.93 0 0112.327.294l-.278-.199a.51.51 0 00-.59-.002l-.282.199a18.932 18.932 0 01-10.24 3.55L.505 3.84A.501.501 0 000 4.339v9.285c-.023 6.848 4.75 12.806 11.507 14.363a.51.51 0 00.114.013h.263a.51.51 0 00.116-.013c1.328-.31 2.458-.661 3.655-1.31a.495.495 0 00.2-.676.508.508 0 00-.685-.197c-1.1.596-2.126.91-3.345 1.2h-.145z"/><path fill="#FF444F" d="M10.5 18.528v-.295c0-.53.32-.935 1.09-.935s1.095.405 1.095.935v.295c0 .525-.32.93-1.095.93-.775 0-1.09-.405-1.09-.93zm.725-3.145l-.58-3.5v-2.37a1.15 1.15 0 011.915 0v2.385l-.565 3.5a.405.405 0 01-.77 0v-.015z"/><path fill="#FF444F" d="M11.721 22.493c-3.957-.972-6.746-4.591-6.735-8.75v-5.7a12.785 12.785 0 006.764-2.421 12.782 12.782 0 006.764 2.422v5.697c0 .9-.182 2.048-.44 2.909a.505.505 0 00.328.628.491.491 0 00.616-.334c.286-.957.483-2.204.482-3.204V7.55a.498.498 0 00-.493-.503h-.296a11.802 11.802 0 01-6.491-2.32l-.189-.135a.485.485 0 00-.572.003l-.178.131a11.802 11.802 0 01-6.513 2.321h-.275A.498.498 0 004 7.55v6.19c-.013 4.646 3.118 8.688 7.551 9.747a.484.484 0 00.113.013h.172a.484.484 0 00.112-.013 9.663 9.663 0 003.682-1.76.51.51 0 00.096-.705.487.487 0 00-.69-.098 8.687 8.687 0 01-3.257 1.57h-.058z"/><path fill="#FF444F" d="M26.31 25.418A3.75 3.75 0 1126 20.7v-.216c0-.268.222-.485.496-.485s.497.217.497.485v2.527a3.807 3.807 0 010 .476v.658a1.83 1.83 0 00.574 1.327c.372.356.879.556 1.408.556.961 0 1.783-.693 1.987-1.595a.502.502 0 01-.002-.122c.214-1.96-.397-3.964-1.68-5.544A7.482 7.482 0 0023.388 16c-4.28 0-7.889 3.394-7.889 7.5 0 4.095 3.63 7.5 7.89 7.5a7.61 7.61 0 004.502-1.455.5.5 0 01.586.81A8.606 8.606 0 0123.387 32c-4.795 0-8.887-3.838-8.887-8.5 0-4.673 4.069-8.5 8.882-8.5a8.477 8.477 0 016.673 3.137c1.357 1.672 2.05 3.769 1.932 5.861.01.042.015.086.013.13-.07 1.58-1.405 2.872-3.025 2.872-.787 0-1.543-.3-2.101-.833a2.857 2.857 0 01-.564-.75zM23.25 26a2.75 2.75 0 100-5.5 2.75 2.75 0 000 5.5z"/></g></svg> 
