<svg width="100" height="100" viewBox="0 0 100 100" fill="none" xmlns="http://www.w3.org/2000/svg">
<g clip-path="url(#clip0_9802_5236)">
<path fill-rule="evenodd" clip-rule="evenodd" d="M9.03375 25H65.9662C67.1526 25 68.3273 25.2337 69.4233 25.6877C70.5193 26.1416 71.5152 26.8071 72.3541 27.6459C73.1929 28.4848 73.8584 29.4807 74.3123 30.5767C74.7663 31.6727 75 32.8474 75 34.0337V90.9662C75.0001 92.1526 74.7665 93.3274 74.3125 94.4234C73.8586 95.5195 73.1932 96.5154 72.3543 97.3543C71.5154 98.1932 70.5195 98.8586 69.4234 99.3125C68.3274 99.7665 67.1526 100 65.9662 100H9.03375C7.84739 100 6.67264 99.7665 5.57657 99.3125C4.4805 98.8586 3.48459 98.1932 2.6457 97.3543C1.80682 96.5154 1.14141 95.5195 0.687453 94.4234C0.233499 93.3274 -9.84748e-05 92.1526 3.11413e-08 90.9662V34.0337C3.11413e-08 31.6378 0.951767 29.3401 2.64592 27.6459C4.34008 25.9518 6.63785 25 9.03375 25ZM24.9338 43.5175C24.2925 45.211 24.0001 47.0167 24.0742 48.826V52.3262H30.1267V48.916C30.0713 47.9135 30.221 46.9102 30.5665 45.9674C30.912 45.0247 31.4461 44.1623 32.1362 43.433C32.8264 42.7037 33.6579 42.1228 34.5802 41.7258C35.5024 41.3288 36.4959 41.124 37.5 41.124C38.5041 41.124 39.4976 41.3288 40.4198 41.7258C41.3421 42.1228 42.1736 42.7037 42.8638 43.433C43.5539 44.1623 44.088 45.0247 44.4335 45.9674C44.779 46.9102 44.9287 47.9135 44.8733 48.916V52.3262H50.9258V48.8252C51.0575 45.6359 50.0496 42.5038 48.0823 39.9899C46.1151 37.4761 43.3171 35.7448 40.1896 35.106C37.0621 34.4673 33.8093 34.9628 31.0139 36.504C28.2185 38.0451 26.0631 40.5319 24.9338 43.5175ZM57.3262 88.2145C58.211 87.3342 58.7113 86.1394 58.7175 84.8913V60.4563C58.7175 59.8364 58.5954 59.2226 58.3582 58.6499C58.1209 58.0772 57.7732 57.5569 57.3349 57.1186C56.8965 56.6803 56.3761 56.3327 55.8034 56.0956C55.2307 55.8584 54.6169 55.7364 53.997 55.7365H21.003C20.3831 55.7364 19.7693 55.8584 19.1966 56.0956C18.6239 56.3327 18.1035 56.6803 17.6651 57.1186C17.2268 57.5569 16.8791 58.0772 16.6418 58.6499C16.4046 59.2226 16.2825 59.8364 16.2825 60.4563V84.8913C16.2886 86.1392 16.7887 87.334 17.6733 88.2144C18.5578 89.0948 19.755 89.5891 21.003 89.5892H53.997C55.245 89.5892 56.4412 89.095 57.3262 88.2145ZM34.5938 65.656C35.4118 64.9647 36.4406 64.5722 37.5112 64.543V64.588C38.5804 64.6214 39.6064 65.0171 40.4213 65.71C41.2361 66.403 41.7914 67.3521 41.9962 68.402C42.2009 69.4519 42.0429 70.5402 41.5482 71.4885C41.0534 72.4369 40.2512 73.189 39.273 73.6217V81.0295H35.727V73.5767C34.9956 73.2527 34.3585 72.7481 33.8757 72.1103C33.3928 71.4724 33.08 70.7223 32.9666 69.9304C32.8532 69.1385 32.943 68.3307 33.2275 67.583C33.512 66.8354 33.9826 66.1722 34.5938 65.656Z" fill="#85ACB0"/>
<g style="mix-blend-mode:multiply">
<path d="M74.9996 50C88.8071 50 100 38.8076 100 25C100 11.1924 88.8071 0 74.9996 0C61.1922 0 50 11.1931 50 25C50 38.8076 61.1929 50 74.9996 50Z" fill="#FF444F"/>
</g>
<path d="M72.0844 35.0533L62.8975 26.0728L66.7436 22.3134L72.0859 27.5345L84.6921 15.2119L88.5382 18.9713L72.0844 35.054V35.0533Z" fill="white"/>
</g>
<defs>
<clipPath id="clip0_9802_5236">
<rect width="100" height="100" fill="white"/>
</clipPath>
</defs>
</svg>
