<svg viewBox="0 0 49 30" fill="none" xmlns="http://www.w3.org/2000/svg">
<path d="M17.8122 12.4583H18.1399C18.2238 12.4583 18.2915 12.526 18.2915 12.6093V15.5453C18.2915 16.4734 18.7942 17.0594 19.7295 17.0594C20.6649 17.0594 21.1676 16.4734 21.1676 15.5459V12.6099C21.1676 12.526 21.2353 12.4583 21.3192 12.4583H21.6469C21.7308 12.4583 21.7985 12.526 21.7985 12.6093V15.5536C21.7985 16.8167 21.1053 17.622 19.7295 17.622C18.3532 17.622 17.6606 16.8089 17.6606 15.5608V12.6099C17.6588 12.526 17.7265 12.4589 17.8122 12.4589V12.4583ZM22.765 16.4578C22.8129 16.3955 22.9064 16.3901 22.9627 16.444C23.3024 16.7742 23.8106 17.0594 24.4547 17.0594C25.3594 17.0594 25.6488 16.5722 25.6488 16.1846C25.6488 15.5746 25.0335 15.408 24.3636 15.2259C23.5505 15.012 22.644 14.7849 22.644 13.7879C22.644 12.9508 23.3899 12.3804 24.3876 12.3804C25.1036 12.3804 25.6698 12.5997 26.0874 12.9856C26.1473 13.0401 26.1533 13.1336 26.1006 13.1953L25.9029 13.4379C25.8544 13.4979 25.7651 13.5021 25.7087 13.4499C25.3379 13.1024 24.8489 12.943 24.3408 12.943C23.7315 12.943 23.2983 13.2714 23.2983 13.7483C23.2983 14.2588 23.8843 14.4104 24.5308 14.5848C25.3594 14.8065 26.3025 15.0641 26.3025 16.1301C26.3025 16.867 25.7998 17.6202 24.4319 17.6202C23.6128 17.6202 22.9957 17.3314 22.5762 16.912C22.5223 16.8581 22.5163 16.7706 22.5643 16.7101L22.765 16.4584V16.4578ZM27.0539 12.6093C27.0539 12.5254 27.1216 12.4583 27.2049 12.4583H28.7867C30.3608 12.4583 31.3896 13.5608 31.3896 14.9988C31.3896 16.444 30.3626 17.5309 28.7867 17.5309H27.2049C27.1216 17.5309 27.0539 17.4632 27.0539 17.3799V12.6093ZM28.7885 16.9683C30.021 16.9683 30.7353 16.0851 30.7353 14.9982C30.7353 13.9017 30.0426 13.0209 28.7885 13.0209H27.686V16.9683H28.7885ZM37.7025 15.6915C37.7025 14.6255 38.4035 13.7663 39.521 13.7663C40.6385 13.7663 41.3395 14.6255 41.3395 15.6915C41.3395 16.7568 40.6385 17.6244 39.521 17.6244C38.4029 17.6244 37.7025 16.755 37.7025 15.6915ZM40.7379 15.6915C40.7379 14.9461 40.3047 14.2762 39.521 14.2762C38.7367 14.2762 38.2963 14.9461 38.2963 15.6915C38.2963 16.444 38.7367 17.1139 39.521 17.1139C40.3047 17.1139 40.7373 16.444 40.7373 15.6915H40.7379ZM41.8866 12.8537C41.8866 12.6404 42.0615 12.4733 42.267 12.4733C42.4803 12.4733 42.6553 12.6404 42.6553 12.8537C42.6553 13.0677 42.4803 13.242 42.267 13.242C42.0615 13.242 41.8866 13.0653 41.8866 12.8537ZM42.137 13.8574H42.4031C42.4863 13.8574 42.554 13.9251 42.554 14.0084V17.3799C42.554 17.4632 42.4863 17.5309 42.4031 17.5309H42.137C42.0531 17.5309 41.9854 17.4632 41.9854 17.3799V14.0084C41.9854 13.9251 42.0537 13.8574 42.137 13.8574ZM45.8417 15.1282C45.8417 14.4823 45.514 14.2762 45.0209 14.2762C44.5727 14.2762 44.1461 14.55 43.9322 14.8472V17.3799C43.9322 17.4632 43.8644 17.5309 43.7806 17.5309H43.5151C43.4312 17.5309 43.3635 17.4632 43.3635 17.3799V14.0084C43.3635 13.9251 43.4312 13.8574 43.5151 13.8574H43.7806C43.8644 13.8574 43.9322 13.9251 43.9322 14.0084V14.3888C44.1898 14.0845 44.6931 13.7657 45.2402 13.7657C46.0089 13.7657 46.4122 14.154 46.4122 14.9521V17.3775C46.4122 17.4614 46.3444 17.5291 46.2612 17.5291H45.9951C45.9112 17.5291 45.8435 17.4614 45.8435 17.3775V15.1282H45.8417ZM32.8312 14.9988C32.8312 13.4385 33.9804 12.375 35.4184 12.375C36.2705 12.375 36.8684 12.7459 37.2717 13.2546C37.322 13.3181 37.3046 13.4134 37.2327 13.4541L36.9493 13.6111C36.8852 13.6483 36.8037 13.6309 36.7576 13.5746C36.4562 13.2019 35.9691 12.9394 35.4184 12.9394C34.3297 12.9394 33.4855 13.7921 33.4855 15.0006C33.4855 16.2026 34.3297 17.0618 35.4184 17.0618C35.9715 17.0618 36.4586 16.8059 36.757 16.4272C36.8037 16.3691 36.8834 16.3535 36.9493 16.3883L37.2369 16.5459C37.3106 16.5866 37.328 16.6837 37.2753 16.7478C36.8559 17.2601 36.2705 17.625 35.4178 17.625C33.9798 17.6226 32.8312 16.5591 32.8312 14.9988Z" fill="#4D4E50"/>
<path d="M8.75 21C12.0637 21 14.75 18.3137 14.75 15C14.75 11.6863 12.0637 9 8.75 9C5.43629 9 2.75 11.6863 2.75 15C2.75 18.3137 5.43629 21 8.75 21Z" fill="#2775CA"/>
<path d="M7.62549 19.0087C7.62549 19.1497 7.51506 19.2303 7.37849 19.1875C5.56447 18.6084 4.24881 16.9078 4.24881 14.9005C4.24881 12.8932 5.56374 11.1918 7.37849 10.6128C7.51506 10.5707 7.62549 10.6506 7.62549 10.7922V11.1402C7.62549 11.2347 7.55284 11.3451 7.46348 11.3756C6.02796 11.9023 4.99926 13.2812 4.99926 14.8983C4.99926 16.5147 6.02796 17.8936 7.46348 18.4203C7.55284 18.4537 7.62549 18.562 7.62549 18.6557V19.0087Z" fill="white"/>
<path d="M9.12423 17.7119C9.12423 17.8158 9.03996 17.9008 8.93607 17.9008H8.56193C8.45877 17.9008 8.37378 17.8158 8.37378 17.7119V17.1191C7.55503 17.0087 7.15474 16.5496 7.0465 15.9263C7.02761 15.8202 7.11261 15.7236 7.22085 15.7236H7.64948C7.73883 15.7236 7.81366 15.7875 7.83255 15.8769C7.91246 16.2488 8.12677 16.5336 8.78351 16.5336C9.26807 16.5336 9.6117 16.2626 9.6117 15.858C9.6117 15.4533 9.40901 15.3 8.69851 15.1823C7.64948 15.0414 7.15256 14.7239 7.15256 13.9001C7.15256 13.2652 7.63204 12.7712 8.37596 12.6651V12.0839C8.37596 11.98 8.46095 11.895 8.56484 11.895H8.93825C9.04214 11.895 9.12714 11.98 9.12714 12.0839V12.6811C9.73157 12.79 10.1151 13.1329 10.2401 13.7025C10.2634 13.8115 10.1784 13.9117 10.0679 13.9117H9.67345C9.58845 13.9117 9.51798 13.8558 9.49183 13.7737C9.38649 13.4105 9.12786 13.2557 8.67817 13.2557C8.18199 13.2557 7.92481 13.4955 7.92481 13.8318C7.92481 14.1878 8.07083 14.3665 8.83291 14.4769C9.86451 14.6179 10.3956 14.9121 10.3956 15.7897C10.3956 16.4559 9.90156 16.9942 9.12786 17.1191V17.7119H9.12423Z" fill="white"/>
<path d="M10.1224 19.1868C9.98583 19.2297 9.8754 19.149 9.8754 19.0081V18.6594C9.8754 18.5562 9.9386 18.4596 10.0374 18.4247C11.4729 17.8973 12.5009 16.5185 12.5009 14.902C12.5009 13.2856 11.4729 11.9068 10.0381 11.3793C9.94805 11.3466 9.8754 11.2384 9.8754 11.144V10.796C9.8754 10.655 9.98583 10.5722 10.1224 10.6173C11.9364 11.1963 13.2514 12.897 13.2514 14.9042C13.2492 16.9071 11.9364 18.6056 10.1224 19.1868Z" fill="white"/>
</svg>
