<svg width="72" height="48" viewBox="0 0 72 48" fill="none" xmlns="http://www.w3.org/2000/svg"><path d="m12.236 19.31-.561 2.874h-1.81c-1.69 0-3.317 1.33-3.638 2.97l-.136.699c-.32 1.641.789 2.97 2.478 2.97h1.51c1.23 0 2.416-.968 2.65-2.164L14.223 19l-1.988.31Zm-1.382 7.078a.843.843 0 0 1-.798.67h-.918c-.759 0-1.258-.598-1.115-1.337l.085-.436c.145-.737.878-1.337 1.637-1.337h1.586l-.477 2.44Zm15.192 2.435 1.278-6.548h1.879l-1.279 6.548h-1.88.002Zm.292-6.472-.304 1.558a4.913 4.913 0 0 0-2.09-.129c-.327 1.682-.655 3.364-.984 5.045h-1.88l1.213-6.212a6.549 6.549 0 0 1 4.045-.262Zm-7.616-.168H17.26c-1.425 0-2.8 1.122-3.07 2.506l-.318 1.628c-.27 1.385.665 2.507 2.09 2.507h3.111l.344-1.76h-2.924c-.474 0-.787-.373-.696-.836l.01-.055h4.714l.29-1.484c.27-1.384-.665-2.506-2.09-2.506h.002Zm.205 2.366-.012.095h-2.803l.016-.084c.091-.461.53-.867 1.006-.867h1.094c.47 0 .783.399.7.856Zm17.607-2.274c-.664 1.655-2.17 4.47-3.621 6.548h-1.88c-.626-1.978-1.009-4.734-1.064-6.548h1.88c.026.592.268 2.786.558 4.32.874-1.492 1.841-3.449 2.245-4.32h1.882Z" fill="#FF444F"/><path d="M41.724 27.526a3.428 3.428 0 0 0 .294 1.222l-1.055.15a2.657 2.657 0 0 1-.254-.667 3.655 3.655 0 0 1-.74.504c-.31.168-.7.252-1.166.252-.38 0-.712-.057-.993-.17a1.912 1.912 0 0 1-.711-.485 2.131 2.131 0 0 1-.44-.75 3.41 3.41 0 0 1-.176-.95 4.709 4.709 0 0 1 .21-1.65 3.98 3.98 0 0 1 .797-1.435c.364-.42.829-.758 1.395-1.014.566-.256 1.234-.384 2.003-.384a3.3 3.3 0 0 1 .585.05l.58-2.947 1.247-.201-1.462 7.367c-.034.193-.064.378-.09.554a2.845 2.845 0 0 0-.024.554ZM39 27.992c.363 0 .668-.073.915-.22.248-.147.462-.317.642-.51a5.778 5.778 0 0 1 .096-.945l.622-3.148a1.609 1.609 0 0 0-.26-.032 6.21 6.21 0 0 0-.273-.006c-.493 0-.933.093-1.321.277a2.923 2.923 0 0 0-.98.743c-.266.31-.465.67-.595 1.077a3.564 3.564 0 0 0-.164 1.278c.01.193.04.378.092.554.052.177.129.334.231.472.102.139.235.25.399.334.164.084.362.126.596.126Zm6.904.995a3.27 3.27 0 0 1-1.149-.183 2.424 2.424 0 0 1-.829-.503 2.148 2.148 0 0 1-.516-.75 2.71 2.71 0 0 1-.2-.906 5.253 5.253 0 0 1 .188-1.7 4.35 4.35 0 0 1 .705-1.449c.317-.42.71-.753 1.182-1 .472-.248 1.014-.372 1.627-.372.355 0 .661.044.92.132.26.088.473.208.64.359.168.15.295.325.383.523.087.197.136.4.147.61.02.395-.038.729-.171 1.001a1.97 1.97 0 0 1-.55.687 2.55 2.55 0 0 1-.827.428c-.319.1-.652.18-.999.24-.347.058-.7.098-1.057.119-.357.02-.696.04-1.014.056a1.294 1.294 0 0 0-.005.164l.005.1c.01.194.042.377.098.549.056.172.152.323.288.453.136.13.32.233.553.309.233.075.535.113.907.113.164 0 .334-.015.51-.044.175-.03.341-.067.5-.114a5.91 5.91 0 0 0 .42-.138.929.929 0 0 0 .26-.132l.152.995c-.168.092-.442.19-.821.296a5.09 5.09 0 0 1-1.347.157Zm-1.409-3.602c.5-.016.957-.048 1.369-.094a4.347 4.347 0 0 0 1.064-.24c.296-.113.524-.266.683-.46.16-.192.231-.444.216-.755a.733.733 0 0 0-.058-.239.664.664 0 0 0-.167-.233.89.89 0 0 0-.313-.176 1.477 1.477 0 0 0-.483-.07c-.302 0-.582.064-.84.19a2.393 2.393 0 0 0-.681.497 2.819 2.819 0 0 0-.496.718 3.67 3.67 0 0 0-.294.862ZM56.8 22.136c.38 0 .705.057.975.17.269.114.488.267.657.46.17.193.295.418.377.674.082.256.13.527.144.812.009.185.004.384-.016.598a5.59 5.59 0 0 1-.092.623l-.664 3.35h-1.205l.611-3.098.117-.648a3.07 3.07 0 0 0 .05-.712 1.91 1.91 0 0 0-.082-.466 1.047 1.047 0 0 0-.214-.39 1.029 1.029 0 0 0-.395-.265 1.658 1.658 0 0 0-.614-.1c-.277 0-.542.052-.796.157a3.898 3.898 0 0 0-.632.321c.023.118.044.233.063.347.018.113.03.224.035.333.01.194.005.389-.016.586-.02.197-.047.392-.081.585l-.664 3.35h-1.205l.611-3.098c.034-.193.07-.41.11-.655.04-.243.054-.486.042-.73a2.049 2.049 0 0 0-.074-.46 1.085 1.085 0 0 0-.194-.384.905.905 0 0 0-.344-.258 1.323 1.323 0 0 0-.536-.094c-.216 0-.425.012-.626.038a3.04 3.04 0 0 0-.507.1l-1.1 5.541H49.33l1.244-6.296a9.06 9.06 0 0 1 1.262-.284 8.11 8.11 0 0 1 1.232-.107c.363 0 .673.061.93.183.256.122.463.283.62.485a2.99 2.99 0 0 1 .346-.202c.147-.075.317-.147.508-.214.19-.067.4-.126.626-.176.227-.05.46-.076.703-.076Zm5.458 6.851c-.708 0-1.273-.203-1.695-.61-.422-.408-.65-.968-.686-1.682a5.89 5.89 0 0 1 .138-1.536 4.52 4.52 0 0 1 .607-1.486 3.534 3.534 0 0 1 1.15-1.121c.477-.294 1.066-.44 1.766-.44.708 0 1.274.203 1.696.61.421.407.65.967.685 1.681.025.487-.021 1-.137 1.536a4.518 4.518 0 0 1-.607 1.486 3.532 3.532 0 0 1-1.15 1.121c-.478.294-1.067.44-1.767.44Zm.159-.995c.388 0 .73-.109 1.027-.327.295-.219.54-.498.736-.838.194-.34.338-.716.43-1.127.092-.411.128-.81.11-1.196-.022-.428-.134-.768-.336-1.02-.203-.252-.538-.378-1.004-.378-.389 0-.731.11-1.027.327a2.68 2.68 0 0 0-.736.838c-.195.34-.338.716-.43 1.127a4.46 4.46 0 0 0-.11 1.196c.022.428.133.768.336 1.02.202.252.537.378 1.004.378Z" fill="#414652"/></svg>