<svg xmlns="http://www.w3.org/2000/svg" width="64" height="40" xml:space="preserve"><rect width="100%" height="100%" fill="transparent"/><path style="stroke:#000;stroke-width:0;stroke-dasharray:none;stroke-linecap:butt;stroke-dashoffset:0;stroke-linejoin:miter;stroke-miterlimit:4;fill:#414652;fill-rule:nonzero;opacity:1" vector-effect="non-scaling-stroke" transform="matrix(.15 -.09 .09 .15 3.492 31.095)" d="m35.754 1.829-2.99 16.955H22.385c-9.682 0-18.91 7.845-20.621 17.527l-.724 4.12C-.663 50.115 5.797 57.96 15.48 57.96h8.656c7.057 0 13.78-5.713 15.02-12.77L47.129 0 35.754 1.829ZM28.39 43.59c-.382 2.18-2.345 3.955-4.525 3.955h-5.258c-4.352 0-7.264-3.533-6.5-7.893l.453-2.57c.772-4.351 4.925-7.892 9.277-7.892h9.092l-2.54 14.4Zm87.291 14.368 6.811-38.634h10.772l-6.811 38.634h-10.78.008Zm1.165-38.188-1.622 9.193c-5.103-1.586-10.369-1.081-11.986-.759-1.747 9.92-3.497 19.843-5.246 29.764h-10.78l6.465-36.648c3.506-1.452 12.116-4.399 23.169-1.55Zm-43.676-.993h-8.386c-8.17 0-15.959 6.62-17.4 14.79L45.69 43.17c-1.44 8.17 4.01 14.79 12.181 14.79h17.837l1.83-10.382H60.775c-2.721 0-4.543-2.204-4.058-4.933l.056-.326h27.026l1.544-8.752c1.44-8.17-4.01-14.79-12.181-14.79h.008Zm1.36 13.963-.063.557h-16.07l.087-.493c.485-2.721 2.967-5.116 5.696-5.116h6.277c2.697 0 4.52 2.355 4.073 5.052Zm100.764-13.416c-3.672 9.763-12.087 26.371-20.239 38.634h-10.78c-3.742-11.671-6.159-27.933-6.62-38.634h10.781c.194 3.49 1.757 16.438 3.54 25.483 4.891-8.8 10.283-20.345 12.53-25.483h10.788Zm30.174 30.98c.071 1.14.24 2.292.511 3.455.268 1.165.692 2.415 1.27 3.752l-6.037.892c-.613-1.09-1.114-2.402-1.505-3.938-1.03.991-2.431 1.981-4.202 2.972-1.772.99-3.995 1.486-6.67 1.486-2.18 0-4.082-.334-5.708-1.003-1.626-.669-2.997-1.622-4.114-2.86-1.116-1.238-1.975-2.712-2.574-4.421-.602-1.71-.964-3.579-1.089-5.61a28.411 28.411 0 0 1 1.073-9.733c.919-3.17 2.405-5.993 4.457-8.47 2.051-2.476 4.69-4.47 7.916-5.981 3.226-1.511 7.042-2.267 11.452-2.267.544 0 1.09.026 1.639.074.548.05 1.122.125 1.722.223L206.7 1.489l7.135-1.188-7.803 43.465a123.7 123.7 0 0 0-.468 3.27 17.265 17.265 0 0 0-.096 3.268Zm-15.582 2.75c2.081 0 3.824-.434 5.233-1.301 1.407-.866 2.621-1.87 3.641-3.009.002-1.867.16-3.731.474-5.572l3.316-18.575a9.01 9.01 0 0 0-1.498-.186 35.164 35.164 0 0 0-1.563-.037c-2.823 0-5.341.545-7.552 1.635-2.211 1.09-4.066 2.552-5.562 4.384-1.498 1.832-2.606 3.95-3.325 6.351-.719 2.404-.997 4.917-.836 7.542.07 1.14.26 2.229.573 3.269.29 1 .75 1.942 1.36 2.786a6.575 6.575 0 0 0 2.313 1.97c.947.496 2.089.743 3.426.743Zm39.665 5.869c-2.526 0-4.728-.36-6.604-1.077-1.877-.718-3.474-1.71-4.79-2.972a12.935 12.935 0 0 1-3.021-4.42 16.519 16.519 0 0 1-1.22-5.352c-.214-3.465.101-6.809.943-10.03.842-3.219 2.153-6.066 3.933-8.544a19.797 19.797 0 0 1 6.694-5.907c2.684-1.46 5.784-2.191 9.302-2.191 2.03 0 3.792.26 5.286.78 1.492.52 2.724 1.226 3.697 2.117a9.272 9.272 0 0 1 2.232 3.084c.518 1.164.814 2.366.891 3.604.143 2.329-.157 4.297-.9 5.906-.744 1.61-1.776 2.96-3.095 4.05-1.32 1.09-2.89 1.931-4.71 2.525a41.096 41.096 0 0 1-5.709 1.412 53.73 53.73 0 0 1-6.049.706c-2.049.124-3.987.236-5.812.334-.025.321-.03.644-.015.966l.036.595c.07 1.14.273 2.218.608 3.232a6.534 6.534 0 0 0 1.688 2.675c.79.769 1.855 1.374 3.195 1.82 1.339.446 3.075.668 5.205.668.94 0 1.914-.085 2.918-.26a23.56 23.56 0 0 0 2.857-.668c.9-.272 1.7-.544 2.402-.818.701-.271 1.193-.531 1.475-.78l.955 5.87c-.958.546-2.519 1.128-4.685 1.746-2.166.62-4.735.929-7.707.929Zm-8.365-21.25c2.866-.098 5.481-.284 7.841-.557 2.361-.271 4.387-.743 6.08-1.412 1.692-.668 2.987-1.571 3.883-2.712.896-1.138 1.287-2.624 1.175-4.458a4.445 4.445 0 0 0-.348-1.411c-.204-.495-.529-.953-.976-1.375-.447-.42-1.05-.767-1.81-1.04-.759-.271-1.685-.41-2.774-.41-1.735 0-3.333.373-4.797 1.116a13.49 13.49 0 0 0-3.87 2.935c-1.114 1.215-2.043 2.626-2.785 4.235a21.626 21.626 0 0 0-1.619 5.089Zm70.295-19.169c2.179 0 4.044.334 5.597 1.003 1.552.669 2.82 1.573 3.808 2.712.986 1.14 1.723 2.465 2.213 3.975.489 1.511.786 3.109.889 4.792.067 1.09.053 2.266-.043 3.53a33.61 33.61 0 0 1-.479 3.677l-3.539 19.764h-6.91l3.259-18.277c.177-1.14.383-2.415.619-3.828.235-1.41.31-2.81.225-4.197a11.62 11.62 0 0 0-.504-2.75c-.278-.89-.696-1.658-1.256-2.303-.56-.642-1.323-1.163-2.288-1.56-.966-.396-2.142-.594-3.529-.594-1.585 0-3.101.31-4.549.929-1.448.62-2.647 1.25-3.598 1.895.141.694.27 1.373.386 2.043.115.668.193 1.326.232 1.968.071 1.14.054 2.292-.048 3.455-.1 1.156-.24 2.308-.418 3.455l-3.54 19.764h-6.909l3.259-18.277c.177-1.14.371-2.427.579-3.865.208-1.427.27-2.87.181-4.31a12.483 12.483 0 0 0-.464-2.71c-.252-.866-.632-1.622-1.142-2.267-.511-.643-1.174-1.151-1.989-1.523-.815-.371-1.843-.557-3.08-.557-1.239 0-2.436.075-3.59.223-1.155.148-2.122.347-2.898.594l-5.865 32.692h-6.91l6.631-37.15c2.186-.693 4.591-1.25 7.215-1.671 2.624-.421 4.977-.632 7.057-.632 2.081 0 3.86.36 5.342 1.077 1.48.719 2.677 1.672 3.593 2.86.474-.345 1.13-.743 1.97-1.188a22.936 22.936 0 0 1 2.894-1.263c1.17-.42 2.365-.767 3.577-1.04 1.32-.3 2.669-.45 4.022-.446Zm31.834 40.419c-4.062 0-7.318-1.2-9.769-3.604-2.451-2.402-3.806-5.708-4.065-9.919-.177-2.872.046-5.894.668-9.064.623-3.169 1.743-6.093 3.362-8.768 1.618-2.674 3.786-4.878 6.503-6.612 2.716-1.733 6.081-2.6 10.093-2.6 4.061 0 7.318 1.2 9.769 3.603 2.451 2.403 3.807 5.709 4.065 9.919.177 2.873-.045 5.895-.668 9.064-.623 3.171-1.743 6.093-3.361 8.768-1.619 2.675-3.787 4.88-6.503 6.612-2.717 1.734-6.082 2.6-10.094 2.6Zm.828-5.87c2.229 0 4.183-.643 5.862-1.932 1.679-1.287 3.063-2.934 4.154-4.94 1.09-2.006 1.883-4.223 2.377-6.65.494-2.426.672-4.78.532-7.06-.155-2.525-.824-4.53-2.004-6.017-1.183-1.486-3.11-2.23-5.785-2.23-2.229 0-4.183.645-5.862 1.933-1.679 1.288-3.064 2.935-4.154 4.94-1.091 2.006-1.883 4.224-2.377 6.65-.495 2.428-.672 4.781-.531 7.06.155 2.525.823 4.53 2.004 6.017 1.181 1.486 3.109 2.23 5.784 2.23Z"/></svg>