<svg xmlns="http://www.w3.org/2000/svg" width="58" height="39" viewBox="0 0 58 39" fill="none"><path d="m5.782 26.5 1.012 2.835-1.562.916c-1.456.855-2.169 2.859-1.592 4.478l.246.689c.578 1.618 2.226 2.238 3.683 1.383l1.302-.764c1.062-.622 1.58-2.082 1.16-3.262L7.336 25.22 5.782 26.5Zm2.491 6.983c.13.364-.012.807-.34 1l-.791.463c-.655.384-1.397.105-1.658-.623l-.153-.43c-.26-.728.06-1.631.715-2.015l1.368-.803.859 2.408Zm14.37-5.525-2.304-6.46 1.62-.95 2.305 6.46-1.622.95h.001Zm-3.115-5.894.548 1.537a4.778 4.778 0 0 0-1.869.943l1.776 4.977-1.622.951-2.185-6.128a6.38 6.38 0 0 1 3.352-2.28Zm-6.656 3.704-1.262.74c-1.229.721-1.83 2.413-1.343 3.779l.572 1.605c.488 1.367 1.878 1.89 3.107 1.168l2.684-1.574-.62-1.736-2.521 1.48c-.41.24-.874.066-1.036-.39l-.02-.055L16.5 28.4l-.521-1.463c-.488-1.366-1.878-1.89-3.107-1.168Zm1.408 1.998.038.09-2.418 1.418-.03-.083c-.16-.455.007-1.037.417-1.278l.944-.554c.406-.238.883-.042 1.049.407Zm14.003-10.928c.289 1.805.454 5.066.284 7.645l-1.622.952c-1.569-1.44-3.333-3.693-4.325-5.275l1.622-.951c.33.512 1.68 2.337 2.728 3.552-.022-1.767-.205-3.993-.31-4.97l1.623-.953Z" fill="#FF444F"/><path d="M35.492 18.873a3.628 3.628 0 0 0 .889.936l-.832.668a2.779 2.779 0 0 1-.566-.464c-.07.24-.194.515-.375.821-.182.307-.473.578-.876.814-.328.193-.643.31-.945.352-.303.042-.59.018-.865-.07a2.207 2.207 0 0 1-.769-.444 3.575 3.575 0 0 1-.647-.755 4.978 4.978 0 0 1-.677-1.57 4.132 4.132 0 0 1-.06-1.678 4.008 4.008 0 0 1 .676-1.606c.355-.514.864-.965 1.527-1.354a3.17 3.17 0 0 1 .253-.133 4.3 4.3 0 0 1 .279-.119l-1.033-2.91.97-.809 2.572 7.28c.071.189.142.367.212.537.069.17.158.338.267.504Zm-2.108 1.792c.313-.183.538-.403.675-.659.138-.255.234-.514.289-.777a6.177 6.177 0 0 1-.409-.887l-1.102-3.11c-.076.025-.157.06-.24.104a6.092 6.092 0 0 0-.24.133 2.963 2.963 0 0 0-.994.914c-.24.36-.392.746-.46 1.156-.067.41-.051.829.048 1.256.098.428.273.834.524 1.218.108.167.23.315.367.445.137.13.285.231.445.303.16.071.333.103.518.094.185-.008.378-.072.58-.19Zm6.473-2.61a3.2 3.2 0 0 1-1.086.42 2.41 2.41 0 0 1-.977-.029 2.211 2.211 0 0 1-.835-.403 2.854 2.854 0 0 1-.645-.704 5.554 5.554 0 0 1-.722-1.604 4.536 4.536 0 0 1-.145-1.643c.055-.533.22-1.028.498-1.487.278-.458.682-.843 1.211-1.153a2.79 2.79 0 0 1 .863-.348c.269-.053.515-.055.738-.005.223.05.424.14.602.27.178.131.326.287.444.468.222.34.347.666.374.975.027.31-.012.606-.117.888a2.529 2.529 0 0 1-.491.798c-.223.251-.468.49-.737.718a9.398 9.398 0 0 1-.85.641c-.297.2-.579.388-.845.564.03.062.057.111.081.148l.057.086c.109.167.232.313.37.437.137.125.3.21.484.257.185.046.398.044.638-.006.24-.05.52-.17.84-.358a3.02 3.02 0 0 0 .417-.297 4.21 4.21 0 0 0 .372-.354 5.75 5.75 0 0 0 .291-.336.917.917 0 0 0 .155-.248l.65.806c-.098.167-.283.393-.555.678a4.954 4.954 0 0 1-1.08.82Zm-3.09-2.484c.424-.268.8-.527 1.133-.777.331-.25.596-.5.793-.75.197-.251.314-.502.35-.754.037-.252-.032-.512-.207-.78a.77.77 0 0 0-.174-.184.683.683 0 0 0-.266-.122.885.885 0 0 0-.361.002 1.438 1.438 0 0 0-.453.183c-.261.153-.47.35-.626.592a2.403 2.403 0 0 0-.329.787 2.908 2.908 0 0 0-.054.888c.027.31.092.615.195.915Zm8.924-9.111c.328-.192.638-.306.929-.342.291-.036.56-.01.806.075.247.086.472.222.676.408.204.186.386.402.547.648.104.16.203.339.297.539.095.2.176.4.245.6l1.17 3.31-1.039.61-1.085-3.06c-.071-.189-.15-.4-.236-.635a3.241 3.241 0 0 0-.328-.656 2.016 2.016 0 0 0-.313-.373 1.086 1.086 0 0 0-.387-.238c-.14-.048-.3-.06-.479-.035-.18.025-.373.099-.582.221-.238.14-.44.321-.604.543a3.86 3.86 0 0 0-.378.604c.08.093.159.185.234.276.075.092.143.184.204.278.11.167.206.343.291.528.085.186.163.373.235.561l1.17 3.31-1.04.61-1.084-3.06a69.74 69.74 0 0 0-.246-.637 3.655 3.655 0 0 0-.344-.67 2.164 2.164 0 0 0-.303-.37 1.128 1.128 0 0 0-.367-.242.906.906 0 0 0-.43-.056 1.29 1.29 0 0 0-.512.188c-.187.109-.36.226-.521.35a2.96 2.96 0 0 0-.385.346l1.935 5.475-1.04.61-2.203-6.219a8.83 8.83 0 0 1 .941-.89 7.89 7.89 0 0 1 1.007-.719c.313-.183.612-.286.897-.308.284-.021.547.017.787.117a2.98 2.98 0 0 1 .194-.354c.088-.142.197-.29.326-.447.13-.156.28-.314.449-.473.169-.16.358-.3.566-.423Zm8.273 3.32c-.612.358-1.205.464-1.78.316-.576-.149-1.065-.53-1.467-1.146a6.234 6.234 0 0 1-.68-1.434 4.727 4.727 0 0 1-.25-1.626 3.585 3.585 0 0 1 .408-1.576c.26-.503.691-.931 1.295-1.286.61-.358 1.204-.463 1.78-.315.576.148 1.064.53 1.466 1.145.274.42.501.898.68 1.434.18.536.264 1.077.25 1.626a3.583 3.583 0 0 1-.408 1.577c-.26.502-.69.93-1.294 1.285Zm-.382-.963c.336-.197.574-.467.716-.81a2.74 2.74 0 0 0 .199-1.117 4.2 4.2 0 0 0-.215-1.218 4.725 4.725 0 0 0-.529-1.117c-.24-.37-.514-.615-.82-.736-.306-.12-.66-.064-1.062.173a1.653 1.653 0 0 0-.715.81 2.736 2.736 0 0 0-.2 1.116c.009.4.08.806.216 1.218.134.412.31.784.528 1.117.241.37.514.615.82.736.306.121.66.064 1.062-.172Z" fill="#414652"/></svg>