<svg width="135" height="40" viewBox="0 0 135 40" xmlns="http://www.w3.org/2000/svg"><title>google spanish</title><defs><linearGradient x1="91.504%" y1="4.962%" x2="-38.327%" y2="71.9%" id="a"><stop stop-color="#00A0FF" offset="0%"/><stop stop-color="#00A1FF" offset=".66%"/><stop stop-color="#00BEFF" offset="26.01%"/><stop stop-color="#00D2FF" offset="51.22%"/><stop stop-color="#00DFFF" offset="76.04%"/><stop stop-color="#00E3FF" offset="100%"/></linearGradient><linearGradient x1="107.583%" y1="49.994%" x2="-130.477%" y2="49.994%" id="b"><stop stop-color="#FFE000" offset="0%"/><stop stop-color="#FFBD00" offset="40.87%"/><stop stop-color="#FFA500" offset="77.54%"/><stop stop-color="#FF9C00" offset="100%"/></linearGradient><linearGradient x1="86.253%" y1="17.837%" x2="-50.14%" y2="194.798%" id="c"><stop stop-color="#FF3A44" offset="0%"/><stop stop-color="#C31162" offset="100%"/></linearGradient><linearGradient x1="-18.81%" y1="-54.149%" x2="42.093%" y2="24.867%" id="d"><stop stop-color="#32A071" offset="0%"/><stop stop-color="#2DA771" offset="6.85%"/><stop stop-color="#15CF74" offset="47.62%"/><stop stop-color="#06E775" offset="80.09%"/><stop stop-color="#00F076" offset="100%"/></linearGradient></defs><g fill="none" fill-rule="evenodd"><path d="M130 40H5c-2.75 0-5-2.25-5-5V5c0-2.75 2.25-5 5-5h125c2.75 0 5 2.25 5 5v30c0 2.75-2.25 5-5 5z" fill="#000"/><path d="M130 .8c2.316 0 4.2 1.884 4.2 4.2v30c0 2.316-1.884 4.2-4.2 4.2H5A4.205 4.205 0 0 1 .8 35V5C.8 2.684 2.684.8 5 .8h125zm0-.8H5C2.25 0 0 2.25 0 5v30c0 2.75 2.25 5 5 5h125c2.75 0 5-2.25 5-5V5c0-2.75-2.25-5-5-5z" fill="#A6A6A6"/><path d="M68.136 21.751c-2.352 0-4.269 1.789-4.269 4.253 0 2.449 1.917 4.253 4.269 4.253 2.353 0 4.27-1.804 4.27-4.253-.001-2.464-1.918-4.253-4.27-4.253zm0 6.832c-1.289 0-2.4-1.063-2.4-2.578 0-1.531 1.112-2.578 2.4-2.578 1.289 0 2.4 1.047 2.4 2.578 0 1.514-1.111 2.578-2.4 2.578zm-9.314-6.832c-2.352 0-4.269 1.789-4.269 4.253 0 2.449 1.917 4.253 4.269 4.253 2.353 0 4.27-1.804 4.27-4.253 0-2.464-1.917-4.253-4.27-4.253zm0 6.832c-1.289 0-2.4-1.063-2.4-2.578 0-1.531 1.112-2.578 2.4-2.578 1.289 0 2.4 1.047 2.4 2.578.001 1.514-1.111 2.578-2.4 2.578zm-11.078-5.526v1.804h4.318c-.129 1.015-.467 1.756-.983 2.271-.628.628-1.611 1.321-3.335 1.321-2.658 0-4.736-2.143-4.736-4.801 0-2.658 2.078-4.801 4.736-4.801 1.434 0 2.481.564 3.254 1.289l1.273-1.273c-1.08-1.031-2.513-1.82-4.527-1.82-3.641 0-6.702 2.964-6.702 6.605 0 3.641 3.061 6.605 6.702 6.605 1.965 0 3.448-.645 4.607-1.853 1.192-1.192 1.563-2.868 1.563-4.221 0-.418-.032-.805-.097-1.127h-6.073v.001zm45.308 1.401c-.354-.95-1.434-2.707-3.641-2.707-2.191 0-4.012 1.724-4.012 4.253 0 2.384 1.805 4.253 4.221 4.253 1.949 0 3.077-1.192 3.545-1.885l-1.45-.967c-.483.709-1.144 1.176-2.095 1.176-.95 0-1.627-.435-2.062-1.289l5.687-2.352-.193-.482zm-5.8 1.418c-.048-1.644 1.273-2.481 2.224-2.481.741 0 1.369.371 1.579.902l-3.803 1.579zM82.629 30h1.868V17.499h-1.868V30zm-3.062-7.298h-.064c-.419-.5-1.225-.951-2.239-.951-2.127 0-4.076 1.869-4.076 4.27 0 2.384 1.949 4.237 4.076 4.237 1.015 0 1.82-.451 2.239-.966h.064v.612c0 1.627-.87 2.497-2.271 2.497-1.144 0-1.853-.821-2.143-1.514l-1.627.677c.467 1.127 1.707 2.513 3.77 2.513 2.191 0 4.044-1.289 4.044-4.431V22.01h-1.772v.692h-.001zm-2.142 5.881c-1.289 0-2.368-1.08-2.368-2.562 0-1.499 1.079-2.594 2.368-2.594 1.272 0 2.271 1.095 2.271 2.594 0 1.482-.999 2.562-2.271 2.562zm24.381-11.084h-4.471V30H99.2v-4.736h2.605c2.068 0 4.102-1.497 4.102-3.882s-2.033-3.883-4.101-3.883zm.048 6.025H99.2v-4.285h2.654c1.395 0 2.187 1.155 2.187 2.143 0 .968-.792 2.142-2.187 2.142zm11.532-1.795c-1.351 0-2.75.595-3.329 1.914l1.656.691c.354-.691 1.014-.917 1.705-.917.965 0 1.946.579 1.962 1.608v.129c-.338-.193-1.062-.482-1.946-.482-1.785 0-3.603.981-3.603 2.814 0 1.673 1.464 2.75 3.104 2.75 1.254 0 1.946-.563 2.38-1.223h.064v.965h1.802v-4.793c.001-2.218-1.657-3.456-3.795-3.456zm-.226 6.851c-.61 0-1.463-.306-1.463-1.062 0-.965 1.062-1.335 1.979-1.335.819 0 1.206.177 1.704.418a2.262 2.262 0 0 1-2.22 1.979zm10.583-6.578l-2.139 5.42h-.064l-2.22-5.42h-2.01l3.329 7.575-1.898 4.214h1.946l5.131-11.789h-2.075zM106.937 30h1.865V17.499h-1.865V30z" fill="#FFF"/><path d="M1.436.538c-.291.308-.463.786-.463 1.405v22.116c0 .62.172 1.097.463 1.405l.074.072 12.389-12.389v-.292L1.51.465l-.074.073z" fill="url(#a)" transform="translate(9 7)"/><path d="M18.028 17.278l-4.129-4.131v-.292l4.13-4.13.093.053 4.893 2.78c1.397.794 1.397 2.093 0 2.888l-4.893 2.78-.094.052z" fill="url(#b)" transform="translate(9 7)"/><path d="M18.122 17.225l-4.224-4.224L1.436 25.464c.46.488 1.221.548 2.078.062l14.608-8.301" fill="url(#c)" transform="translate(9 7)"/><path d="M18.122 8.777L3.514.477C2.657-.01 1.896.051 1.436.539l12.463 12.463 4.223-4.225z" fill="url(#d)" transform="translate(9 7)"/><g fill="#000"><path d="M27.029 24.132L12.514 32.38c-.812.461-1.538.43-2.004.011l-.074.074.074.072c.466.42 1.192.451 2.004-.011l14.608-8.3-.093-.094z" opacity=".2"/><path d="M10.436 32.318c-.291-.308-.463-.786-.463-1.405v.146c0 .619.172 1.097.463 1.405l.074-.074-.074-.072z" opacity=".12"/></g><path d="M32.015 21.299l-4.986 2.833.093.093 4.893-2.78c.699-.397 1.048-.92 1.048-1.443-.059.473-.415.936-1.048 1.297z" fill="#000" opacity=".12"/><path d="M12.514 7.623l19.501 11.08c.634.36.989.824 1.048 1.298 0-.523-.349-1.047-1.048-1.444L12.514 7.477c-1.398-.794-2.541-.134-2.541 1.466v.146c0-1.6 1.143-2.26 2.541-1.466z" fill="#FFF" opacity=".25"/><g stroke="#FFF" stroke-width=".2" fill="#FFF"><path d="M41.28 13V7h1.835c.922 0 1.659.278 2.213.834.553.556.829 1.277.829 2.166 0 .888-.276 1.61-.829 2.166-.554.556-1.291.834-2.213.834H41.28zm.771-.737h1.064c.692 0 1.241-.198 1.646-.595.405-.396.607-.953.607-1.667 0-.709-.202-1.264-.607-1.664-.405-.399-.954-.599-1.646-.599h-1.064v4.525zM47.239 13V7h.771v6zM51.076 13.134c-.436 0-.861-.142-1.277-.427a1.977 1.977 0 0 1-.817-1.199l.704-.285c.084.33.255.607.515.833.261.226.552.339.876.339.335 0 .622-.088.859-.264a.846.846 0 0 0 .355-.717c0-.335-.118-.593-.355-.775-.237-.182-.613-.351-1.127-.507-.531-.167-.934-.384-1.207-.649s-.411-.604-.411-1.018c0-.43.171-.804.512-1.123.341-.319.785-.478 1.332-.478.509 0 .922.127 1.24.381.318.254.525.532.62.834l-.703.293c-.051-.189-.175-.366-.373-.528-.198-.162-.454-.243-.768-.243-.296 0-.549.082-.758.247a.753.753 0 0 0-.314.616c0 .224.097.412.289.566.193.153.477.292.851.415.296.095.543.187.742.277.198.089.399.208.603.356.204.148.357.333.461.553.104.22.155.476.155.767 0 .291-.06.55-.18.779a1.46 1.46 0 0 1-.479.545 2.403 2.403 0 0 1-1.345.412zM54.956 13h-.771V7h2.045c.508 0 .948.169 1.319.507.372.338.558.764.558 1.278s-.186.939-.558 1.277a1.895 1.895 0 0 1-1.319.507h-1.274V13zm0-3.168h1.291c.324 0 .584-.108.779-.326.195-.218.293-.458.293-.721 0-.263-.098-.503-.293-.721-.195-.218-.455-.327-.779-.327h-1.291v2.095zM63.985 12.225c-.59.606-1.323.909-2.2.909-.877 0-1.61-.303-2.199-.909-.59-.606-.884-1.348-.884-2.225s.294-1.619.884-2.225c.589-.606 1.322-.91 2.199-.91.872 0 1.604.305 2.196.914.592.609.888 1.349.888 2.221 0 .877-.295 1.619-.884 2.225zm-3.83-.503a2.2 2.2 0 0 0 1.63.674c.643 0 1.187-.225 1.63-.674.444-.45.667-1.024.667-1.722s-.223-1.272-.667-1.722a2.199 2.199 0 0 0-1.63-.674c-.643 0-1.186.225-1.63.674-.443.45-.666 1.024-.666 1.722s.223 1.272.666 1.722zM65.951 13V7h.938l2.916 4.667h.033l-.033-1.156V7h.771v6h-.805L66.72 8.106h-.033l.033 1.156V13zM71.951 13V7h.771v6zM74.096 13V7h2.17c.47 0 .876.155 1.22.465.344.311.516.7.516 1.169a1.3 1.3 0 0 1-.223.754 1.395 1.395 0 0 1-.591.495v.033c.296.101.539.274.729.52.189.246.285.531.285.855 0 .492-.181.899-.541 1.223-.36.324-.786.486-1.278.486h-2.287zm.77-3.428h1.399c.291 0 .524-.096.7-.289a.917.917 0 0 0 .264-.632.916.916 0 0 0-.256-.628.861.861 0 0 0-.674-.285h-1.434v1.834h.001zm0 2.691h1.551a.922.922 0 0 0 .721-.311.994.994 0 0 0 .276-.679.968.968 0 0 0-.285-.674c-.189-.204-.438-.306-.746-.306h-1.517v1.97zM79.241 13V7h.771v5.263h2.598V13zM87.085 7.737h-2.732v1.902h2.464v.721h-2.464v1.902h2.732V13h-3.503V7h3.503zM93.806 7.737h-2.732v1.902h2.464v.721h-2.464v1.902h2.732V13h-3.503V7h3.503zM95.012 13V7h.938l2.916 4.667h.033l-.033-1.156V7h.771v6h-.805l-3.051-4.894h-.033l.033 1.156V13z"/></g></g></svg>