<svg width="135" height="40" viewBox="0 0 135 40" xmlns="http://www.w3.org/2000/svg"><title>google traditional-tw chinese</title><defs><linearGradient x1="91.5%" y1="4.966%" x2="-38.331%" y2="71.904%" id="a"><stop stop-color="#00A0FF" offset="0%"/><stop stop-color="#00A1FF" offset=".66%"/><stop stop-color="#00BEFF" offset="26.01%"/><stop stop-color="#00D2FF" offset="51.22%"/><stop stop-color="#00DFFF" offset="76.04%"/><stop stop-color="#00E3FF" offset="100%"/></linearGradient><linearGradient x1="107.583%" y1="49.994%" x2="-130.477%" y2="49.994%" id="b"><stop stop-color="#FFE000" offset="0%"/><stop stop-color="#FFBD00" offset="40.87%"/><stop stop-color="#FFA500" offset="77.54%"/><stop stop-color="#FF9C00" offset="100%"/></linearGradient><linearGradient x1="86.25%" y1="17.841%" x2="-50.143%" y2="194.808%" id="c"><stop stop-color="#FF3A44" offset="0%"/><stop stop-color="#C31162" offset="100%"/></linearGradient><linearGradient x1="-18.807%" y1="-54.149%" x2="42.096%" y2="24.867%" id="d"><stop stop-color="#32A071" offset="0%"/><stop stop-color="#2DA771" offset="6.85%"/><stop stop-color="#15CF74" offset="47.62%"/><stop stop-color="#06E775" offset="80.09%"/><stop stop-color="#00F076" offset="100%"/></linearGradient></defs><g fill="none" fill-rule="evenodd"><path d="M130 40H5c-2.75 0-5-2.25-5-5V5c0-2.75 2.25-5 5-5h125c2.75 0 5 2.25 5 5v30c0 2.75-2.25 5-5 5z" fill="#000"/><path d="M130 .8c2.316 0 4.2 1.884 4.2 4.2v30c0 2.316-1.884 4.2-4.2 4.2H5A4.205 4.205 0 0 1 .8 35V5C.8 2.684 2.684.8 5 .8h125zm0-.8H5C2.25 0 0 2.25 0 5v30c0 2.75 2.25 5 5 5h125c2.75 0 5-2.25 5-5V5c0-2.75-2.25-5-5-5z" fill="#A6A6A6"/><path d="M64.725 12.79c-2.056 0-3.732 1.563-3.732 3.718 0 2.141 1.676 3.718 3.732 3.718s3.731-1.577 3.731-3.718c0-2.155-1.676-3.718-3.731-3.718zm0 5.971c-1.126 0-2.098-.929-2.098-2.253 0-1.338.972-2.253 2.098-2.253s2.098.915 2.098 2.253c0 1.324-.972 2.253-2.098 2.253zm-8.141-5.971c-2.056 0-3.732 1.563-3.732 3.718 0 2.141 1.676 3.718 3.732 3.718s3.731-1.577 3.731-3.718c0-2.155-1.675-3.718-3.731-3.718zm0 5.971c-1.127 0-2.099-.929-2.099-2.253 0-1.338.972-2.253 2.099-2.253 1.126 0 2.098.915 2.098 2.253 0 1.324-.972 2.253-2.098 2.253zm-9.684-4.83v1.577h3.774c-.112.887-.408 1.535-.859 1.986-.549.549-1.408 1.155-2.915 1.155-2.324 0-4.14-1.873-4.14-4.197 0-2.323 1.816-4.196 4.14-4.196 1.253 0 2.168.493 2.845 1.126l1.112-1.112c-.943-.901-2.197-1.591-3.957-1.591-3.183 0-5.858 2.591-5.858 5.773 0 3.183 2.675 5.774 5.858 5.774 1.718 0 3.014-.563 4.027-1.62 1.042-1.042 1.366-2.506 1.366-3.689a5.18 5.18 0 0 0-.084-.986H46.9zm39.604 1.225c-.311-.831-1.254-2.366-3.183-2.366-1.915 0-3.507 1.507-3.507 3.718 0 2.084 1.577 3.718 3.689 3.718 1.704 0 2.689-1.042 3.098-1.648l-1.267-.845c-.423.62-1 1.028-1.831 1.028s-1.422-.38-1.803-1.126l4.972-2.056-.168-.423zm-5.07 1.239c-.042-1.436 1.113-2.168 1.943-2.168.648 0 1.197.324 1.38.789l-3.323 1.379zM77.393 20h1.634V9.072h-1.634V20zm-2.676-6.379h-.057c-.366-.437-1.07-.831-1.957-.831-1.858 0-3.562 1.634-3.562 3.732 0 2.084 1.704 3.704 3.562 3.704.887 0 1.591-.395 1.957-.845h.057v.535c0 1.422-.761 2.183-1.985 2.183-1 0-1.62-.719-1.873-1.324l-1.422.591c.408.985 1.492 2.196 3.295 2.196 1.915 0 3.534-1.126 3.534-3.872v-6.675h-1.549v.606zm-1.873 5.14c-1.126 0-2.07-.943-2.07-2.239 0-1.31.944-2.267 2.07-2.267 1.112 0 1.985.958 1.985 2.267 0 1.295-.873 2.239-1.985 2.239zm21.311-9.688h-3.908V20h1.631v-4.14h2.277c1.808 0 3.585-1.309 3.585-3.394s-1.777-3.393-3.585-3.393zm.042 5.266h-2.319v-3.746h2.319c1.22 0 1.912 1.01 1.912 1.873 0 .847-.692 1.873-1.912 1.873zm10.08-1.569c-1.181 0-2.404.52-2.91 1.673l1.448.604c.309-.604.886-.801 1.49-.801.843 0 1.7.506 1.715 1.406v.112a3.621 3.621 0 0 0-1.701-.421c-1.561 0-3.149.857-3.149 2.46 0 1.462 1.279 2.404 2.714 2.404 1.097 0 1.701-.492 2.08-1.069h.057v.844h1.574v-4.189c0-1.94-1.449-3.023-3.318-3.023zm-.197 5.989c-.534 0-1.279-.267-1.279-.928 0-.844.928-1.167 1.729-1.167.717 0 1.055.155 1.49.366a1.977 1.977 0 0 1-1.94 1.729zm9.25-5.75l-1.869 4.738h-.057l-1.939-4.738h-1.758l2.91 6.622-1.659 3.683h1.701l4.484-10.305h-1.813zM98.64 20h1.631V9.073H98.64V20z" fill="#FFF"/><path d="M1.436.538c-.291.308-.463.786-.463 1.405v22.116c0 .62.172 1.098.463 1.405l.074.072 12.389-12.389v-.292L1.51.465l-.074.073z" fill="url(#a)" transform="translate(9 7)"/><path d="M18.028 17.278l-4.129-4.131v-.292l4.13-4.13.093.053 4.893 2.78c1.397.794 1.397 2.093 0 2.888l-4.893 2.78-.094.052z" fill="url(#b)" transform="translate(9 7)"/><path d="M18.122 17.225l-4.224-4.224L1.436 25.464c.46.487 1.221.548 2.078.062l14.608-8.301" fill="url(#c)" transform="translate(9 7)"/><path d="M18.122 8.777L3.514.477C2.657-.01 1.896.051 1.436.539l12.463 12.463 4.223-4.225z" fill="url(#d)" transform="translate(9 7)"/><g fill="#000"><path d="M27.029 24.132l-14.515 8.247c-.812.462-1.538.431-2.004.011l-.074.075.074.071c.466.42 1.192.451 2.004-.011l14.608-8.301-.093-.092z" opacity=".2"/><path d="M10.436 32.318c-.291-.308-.463-.786-.463-1.405v.146c0 .619.172 1.097.463 1.405l.074-.075-.074-.071z" opacity=".12"/></g><path d="M32.015 21.299l-4.986 2.833.093.093 4.893-2.78c.699-.396 1.048-.92 1.048-1.443-.059.473-.415.936-1.048 1.297z" fill="#000" opacity=".12"/><path d="M12.514 7.623l19.501 11.08c.634.36.989.824 1.048 1.298 0-.523-.349-1.047-1.048-1.444L12.514 7.477c-1.398-.794-2.541-.134-2.541 1.466v.146c0-1.6 1.143-2.26 2.541-1.466z" fill="#FFF" opacity=".25"/><g stroke-width=".2" stroke="#FFF" fill="#FFF"><path d="M41.436 32.381h6.81v.503h-6.81v-.503zm6.599-4.602v.495h-6.337v-.495h2.86v-1.532l.669.046c-.008.052-.046.09-.15.104v1.382h2.958zm-4.843.909c.391 1.014.661 2.305.706 3.168-.053 0-.105.008-.519.112-.029-.849-.3-2.154-.668-3.16l.481-.12zm3.957.097c-.023.053-.091.098-.188.104-.225.991-.646 2.455-.998 3.281l-.45-.128c.33-.855.713-2.365.908-3.416l.728.159zM51.514 31.547a9.152 9.152 0 0 0-.721-.915l.391-.218c.556.607 1.148 1.426 1.403 1.975l-.42.247a6.227 6.227 0 0 0-.391-.705c-.916.292-1.854.585-2.462.766-.008.06-.046.098-.098.12l-.226-.594c.158-.037.338-.082.533-.135v-5.42h2.695v3.476h-2.215v1.817l1.511-.414zm.232-4.399h-1.741v1.021h1.741v-1.021zm-1.741 2.523h1.741v-1.044h-1.741v1.044zm5.631-3.003v4.646c0 .646-.323.661-1.396.661a2.01 2.01 0 0 0-.181-.525c.248.007.48.015.653.015.368 0 .413 0 .413-.158v-4.136h-1.689v6.051h-.511v-6.554h2.711zM63.354 27.313H60.17l-.082.022v1.307l.037-.045c.953.465 2.185 1.163 2.808 1.644l-.353.45c-.541-.436-1.592-1.073-2.492-1.554v4.076h-.533v-5.9H56.59v-.503h6.765v.503h-.001zM68.679 28.379c.067.954.188 1.832.36 2.545a9.06 9.06 0 0 0 .976-2.116l.586.165c-.022.053-.075.082-.158.082a9.149 9.149 0 0 1-1.23 2.492c.247.729.562 1.18.945 1.18.226 0 .315-.383.36-1.322.105.105.278.226.405.264-.09 1.193-.27 1.554-.803 1.554-.548 0-.961-.458-1.269-1.216a5.968 5.968 0 0 1-1.321 1.216 1.764 1.764 0 0 0-.368-.376 5.57 5.57 0 0 0 .548-.397h-1.479v.78h-.458v-.78h-1.659v-.405h1.659V31.6h-1.329v-1.861h1.329v-.436h-1.539v-.391h1.539v-.503l.615.046c-.007.045-.053.082-.149.097v.36h1.576v.391h-1.576v.436h1.373V31.6h-1.381v.443h1.614v.293a6.65 6.65 0 0 0 .818-.886c-.248-.833-.398-1.899-.48-3.071h-4.159v-.436h1.749v-.652h-1.411v-.421h1.411v-.63l.638.037c-.007.053-.045.09-.149.105v.487h1.403v.421h-1.403v.652h1.899a30.964 30.964 0 0 1-.053-1.688c.503.022.585.03.66.038 0 .06-.045.097-.15.112 0 .525.008 1.036.03 1.538h2.185v.436h-2.154v.001zm-3.844 1.675v.458h.969v-.458h-.969zm0 .765v.466h.969v-.466h-.969zm2.372-.307v-.458h-.998v.458h.998zm0 .773v-.466h-.998v.466h.998zm2.32-4.926c.397.301.87.736 1.081 1.037l-.376.292c-.21-.315-.668-.766-1.065-1.081l.36-.248z"/></g></g></svg>