<svg width="72" height="40" fill="none" xmlns="http://www.w3.org/2000/svg"><path d="M0 8a8 8 0 018-8h56a8 8 0 018 8v24a8 8 0 01-8 8H8a8 8 0 01-8-8V8z" fill="#F2F3F4"/><path d="M14 29v3h-3v-3h3zM32 8v24h-3V8h3zm-6 12v12h-3V20h3zm-6 6v6h-3v-6h3zm-6.879-3l-3 3H8v-3h5.121z" fill="#85ACB0"/><path d="M23 8h-7.5v.015A2.985 2.985 0 0018.485 11h2.4L14 17.879v4.242l9-9v2.4a2.985 2.985 0 002.985 2.979H26V11a3 3 0 00-3-3z" fill="#FF444F"/><g clip-path="url(#clip0)"><path d="M64 8v24h-3V8h3zm-6 0v12h-3V8h3zm-15.879 6l3 3H40v-3h2.121zM52 8v6h-3V8h3zm-6 0v3h-3V8h3z" fill="#85ACB0"/><path d="M57.985 21.5A2.985 2.985 0 0055 24.485v2.4l-9-9v4.236L52.879 29h-2.394a2.985 2.985 0 00-2.985 2.985V32H55a3 3 0 003-3v-7.5h-.015z" fill="#FF444F"/></g><defs><clipPath id="clip0"><path fill="#fff" transform="translate(40 8)" d="M0 0h24v24H0z"/></clipPath></defs></svg>