<svg width="72" height="40" fill="none" xmlns="http://www.w3.org/2000/svg"><path d="M0 8a8 8 0 0 1 8-8h56a8 8 0 0 1 8 8v24a8 8 0 0 1-8 8H8a8 8 0 0 1-8-8V8z" fill="#F2F3F4"/><g clip-path="url(#a)"><path d="M32 29v3H8v-3h24zm-.416-10.5a2.916 2.916 0 0 1 0 3 2.95 2.95 0 0 1-.463.621l-5.302 5.304a2.983 2.983 0 0 1-.01-4.233L27.5 21.5h-6.879l3-3h7.963zM15.5 8v3H8V8h7.5z" fill="#85ACB0"/><path d="M26 8h-7.5v.015A2.985 2.985 0 0 0 21.485 11h2.4l-7.5 7.5H8v3h9.621l3-3L26 13.121V15.5h3V11a3 3 0 0 0-3-3z" fill="#FF444F"/></g><g clip-path="url(#b)"><path d="M47.5 29v3H40v-3h7.5zm10.319-16.425 5.302 5.304c.181.186.337.394.463.621a2.916 2.916 0 0 1 0 3h-7.963l-3-3H59.5l-1.692-1.692a2.983 2.983 0 0 1 0-4.223l.01-.01zM64 8v3H40V8h24z" fill="#85ACB0"/><path d="M58 24.5v2.379L52.621 21.5l-3-3H40v3h8.379l7.5 7.5h-2.394a2.985 2.985 0 0 0-2.985 2.985V32H58a3 3 0 0 0 3-3v-4.5h-3z" fill="#FF444F"/></g><defs><clipPath id="a"><path fill="#fff" transform="translate(8 8)" d="M0 0h24v24H0z"/></clipPath><clipPath id="b"><path fill="#fff" transform="translate(40 8)" d="M0 0h24v24H0z"/></clipPath></defs></svg>