<svg width="72" height="40" fill="none" xmlns="http://www.w3.org/2000/svg"><path d="M0 8a8 8 0 018-8h56a8 8 0 018 8v24a8 8 0 01-8 8H8a8 8 0 01-8-8V8z" fill="#F2F3F4"/><g clip-path="url(#clip0)"><path d="M13.26 11.515l6.362 6.364a3 3 0 010 4.242l-6.363 6.365-.009-.01a2.982 2.982 0 010-4.222l2.751-2.754L8 21.518V18.5h8.001l-2.751-2.752a2.983 2.983 0 010-4.223l.01-.01zm13.48 0l.01.01a2.982 2.982 0 010 4.221L23.999 18.5 32 18.482V21.5h-8.001l2.753 2.753a2.983 2.983 0 010 4.222l-.011.01-5.241-5.24 1.122-1.124a3 3 0 000-4.242L21.5 16.756l5.24-5.241z" fill="#FF444F"/><path d="M21.5 26v6h-3v-6h3zm0-18v6h-3V8h3z" fill="#85ACB0"/></g><path d="M63.25 19.982V23h-8.001L58 25.753a2.984 2.984 0 010 4.222l-.009.01L52 23.996l3.372-3.372c.182-.187.338-.396.465-.623l7.413-.018zM46.009 8.515l6.363 6.364a3 3 0 010 4.242l-6.363 6.365-.009-.01a2.982 2.982 0 010-4.222l2.751-2.754-8.001.018V15.5h8.001L46 12.748a2.983 2.983 0 010-4.223l.009-.01zm11.98 4.5a2.982 2.982 0 01.189 4.042L58 17.25l-1.8 1.8a3 3 0 00-.661-2.49l-.167-.182-.372-.373 2.99-2.991z" fill="#FF444F"/><path d="M54.25 27.5V32h-3v-4.5h3zm0-19.5v4.5h-3V8h3z" fill="#85ACB0"/><defs><clipPath id="clip0"><path fill="#fff" transform="translate(8 8)" d="M0 0h24v24H0z"/></clipPath></defs></svg>