<svg width="72" height="40" fill="none" xmlns="http://www.w3.org/2000/svg"><path d="M0 8a8 8 0 0 1 8-8h56a8 8 0 0 1 8 8v24a8 8 0 0 1-8 8H8a8 8 0 0 1-8-8V8z" fill="#F2F3F4"/><g clip-path="url(#a)"><path d="M16.136 29 14 31.139l-.861.861H8v-3h8.136zM32 8v3H8V8h24z" fill="#85ACB0"/><path d="M31.985 23H32v-9a3 3 0 0 0-3-3h-9v.015A2.985 2.985 0 0 0 22.985 14h3.9L17 23.879v4.255l12-12.013v3.9A2.985 2.985 0 0 0 31.985 23z" fill="#FF444F"/></g><path d="m45.121 29-3 3H40v-3h5.121zM64 8v3H40V8h24z" fill="#85ACB0"/><path d="M63.985 18.5A2.985 2.985 0 0 0 61 21.485v2.4L55.621 18.5a3 3 0 0 0-4.242 0L46 23.88v4.241l7.5-7.5 5.379 5.38h-2.4a2.985 2.985 0 0 0-2.979 2.984V29H61a3 3 0 0 0 3-3v-7.5h-.015z" fill="#FF444F"/><defs><clipPath id="a"><path fill="#fff" transform="translate(8 8)" d="M0 0h24v24H0z"/></clipPath></defs></svg>