<svg width="72" height="40" fill="none" xmlns="http://www.w3.org/2000/svg"><path d="M0 8a8 8 0 0 1 8-8h56a8 8 0 0 1 8 8v24a8 8 0 0 1-8 8H8a8 8 0 0 1-8-8V8z" fill="#F2F3F4"/><g clip-path="url(#a)"><path d="M32 29v3H8v-3h24zm0-21v3H20l3-3h9zM17 8l3 3H8V8h9z" fill="#85ACB0"/><path d="M31.985 15.5A2.985 2.985 0 0 0 29 18.485v2.4L22.121 14a3 3 0 0 0-4.242 0L11 20.88l-3-3v4.241l.879.88a3 3 0 0 0 4.242 0L20 16.12 26.879 23h-2.4a2.985 2.985 0 0 0-2.979 2.984V26H29a3 3 0 0 0 3-3v-7.5h-.015z" fill="#FF444F"/></g><g clip-path="url(#b)"><path d="M64 29v3h-9l-3-3h12zm-12 0-3 3h-9v-3h12zM64 8v3H40V8h24z" fill="#85ACB0"/><path d="M61 14h-7.5v.015A2.985 2.985 0 0 0 56.485 17h2.4L52 23.879 45.121 17a3 3 0 0 0-4.242 0l-.879.879v4.242l3-3L49.879 26a3 3 0 0 0 4.242 0L61 19.121v2.4a2.985 2.985 0 0 0 2.985 2.979H64V17a3 3 0 0 0-3-3z" fill="#FF444F"/></g><defs><clipPath id="a"><path fill="#fff" transform="translate(8 8)" d="M0 0h24v24H0z"/></clipPath><clipPath id="b"><path fill="#fff" transform="translate(40 8)" d="M0 0h24v24H0z"/></clipPath></defs></svg>