<svg width="299" height="197" xmlns="http://www.w3.org/2000/svg"><g fill="none" fill-rule="evenodd"><path fill="#F1F2F2" d="M0 0h299v197H0z"/><path d="M1.987 1.98v193.04h295.026V1.98H1.987zM299 0v197H0V0h299z" fill="#C2C2C2" fill-rule="nonzero"/><path d="M4.887 56.168v-1.206h289.656v1.206H4.887zm0 40.33v-1.206h289.656v1.205H4.887zm0 40.329v-1.206h289.656v1.206H4.887zm0 40.292v-1.206h289.656v1.206H4.887zm34.38-141.7h1.206v158.864h-1.206V35.419zm36.665 0h1.206v158.864h-1.206V35.419zm36.627 0h1.206v158.864h-1.206V35.419zm36.665 0h1.206v158.864h-1.206V35.419zm36.628 0h1.206v158.864h-1.206V35.419zm36.627 0h1.206v158.864h-1.206V35.419zM4.887 116.643v-1.205h289.656v1.205H4.887z" fill="#DFDEDE" fill-rule="nonzero"/><path d="M4.887 72.595v-1.127h7.469v1.127H4.887zm14.938 0v-1.127h7.468v1.127h-7.468zm14.937 0v-1.127h7.469v1.127h-7.469zm14.938 0v-1.127h7.468v1.127H49.7zm14.937 0v-1.127h7.469v1.127h-7.469zm14.938 0v-1.127h7.468v1.127h-7.468zm14.937 0v-1.127h7.469v1.127h-7.469zm14.938 0v-1.127h7.468v1.127h-7.468zm14.937 0v-1.127h7.469v1.127h-7.469zm14.938 0v-1.127h7.468v1.127h-7.468zm14.937 0v-1.127h7.469v1.127h-7.469zm14.938 0v-1.127h7.468v1.127H169.2zm14.937 0v-1.127h7.469v1.127h-7.469zm14.938 0v-1.127h7.468v1.127h-7.468zm14.937 0v-1.127h7.469v1.127h-7.469zm14.938 0v-1.127h7.468v1.127h-7.468zm14.937 0v-1.127h7.469v1.127h-7.469zm14.938 0v-1.127h7.468v1.127h-7.468zm14.937 0v-1.127h7.469v1.127h-7.469zm14.938 0v-1.127h5.843v1.127H288.7z" fill="#15212D" fill-rule="nonzero"/><path fill="#2A3052" fill-rule="nonzero" d="M240.457 35.42h1.206v158.863h-1.206z"/><path d="M4.887 164.368v-1.128h7.469v1.128H4.887zm14.938 0v-1.128h7.468v1.128h-7.468zm14.937 0v-1.128h7.469v1.128h-7.469zm14.938 0v-1.128h7.468v1.128H49.7zm14.937 0v-1.128h7.469v1.128h-7.469zm14.938 0v-1.128h7.468v1.128h-7.468zm14.937 0v-1.128h7.469v1.128h-7.469zm14.938 0v-1.128h7.468v1.128h-7.468zm14.937 0v-1.128h7.469v1.128h-7.469zm14.938 0v-1.128h7.468v1.128h-7.468zm14.937 0v-1.128h7.469v1.128h-7.469zm14.938 0v-1.128h7.468v1.128H169.2zm14.937 0v-1.128h7.469v1.128h-7.469zm14.938 0v-1.128h7.468v1.128h-7.468zm14.937 0v-1.128h7.469v1.128h-7.469zm14.938 0v-1.128h7.468v1.128h-7.468zm14.937 0v-1.128h7.469v1.128h-7.469zm14.938 0v-1.128h7.468v1.128h-7.468zm14.937 0v-1.128h7.469v1.128h-7.469zm14.938 0v-1.128h5.843v1.128H288.7z" fill="#15212D" fill-rule="nonzero"/><path fill="#C2C2C2" fill-rule="nonzero" d="M2.794 35.436v-2.412h293.842v2.412z"/><path d="M56.641 102.229l-34.723 15.464a1.809 1.809 0 1 1-1.471-3.305l35.745-15.92a1.809 1.809 0 0 1 1.887.257l24.615 20.291 36.945-77.79c.687-1.448 2.78-1.352 3.332.152l43.278 117.852 26.908-57.045c.138-.293.352-.543.62-.725l46.03-31.263a1.809 1.809 0 1 1 2.034 2.993l-45.623 30.986-28.541 60.507c-.685 1.452-2.781 1.359-3.335-.148L121.06 46.668l-36.092 75.995a1.809 1.809 0 0 1-2.784.62L56.64 102.23z" fill="#2A3052" fill-rule="nonzero"/><ellipse cx="8.335" cy="9.259" rx="8.11" ry="8.4" opacity=".6" transform="translate(232.725 61.472)" fill="#FFF"/><path d="M241.06 80.337c-5.155 0-9.317-4.31-9.317-9.606 0-5.297 4.162-9.607 9.317-9.607s9.316 4.31 9.316 9.607c0 5.296-4.161 9.606-9.316 9.606zm0-2.412c3.803 0 6.904-3.212 6.904-7.194 0-3.983-3.1-7.195-6.904-7.195s-6.905 3.212-6.905 7.195c0 3.982 3.101 7.194 6.905 7.194z" fill="#E88024" fill-rule="nonzero"/><ellipse cx="8.11" cy="9.259" rx="8.11" ry="8.4" opacity=".6" transform="translate(157.975 154.396)" fill="#FFF"/><path d="M166.085 173.261c-5.155 0-9.316-4.31-9.316-9.606s4.161-9.606 9.316-9.606c5.155 0 9.317 4.31 9.317 9.606s-4.162 9.606-9.317 9.606zm0-2.412c3.804 0 6.905-3.211 6.905-7.194s-3.101-7.194-6.905-7.194c-3.803 0-6.904 3.211-6.904 7.194s3.1 7.194 6.904 7.194z" fill="#E88024" fill-rule="nonzero"/><path d="M255.09 56.649a2.888 2.888 0 0 1-.945 1.995c-.616.5-1.396.756-2.19.716a3.12 3.12 0 0 1-1.683-.45 2.974 2.974 0 0 1-1.125-1.29 4.65 4.65 0 0 1-.413-1.938v-.75a4.684 4.684 0 0 1 .401-1.992 3.022 3.022 0 0 1 1.152-1.331 3.21 3.21 0 0 1 1.736-.465 3.083 3.083 0 0 1 2.13.72c.562.532.898 1.26.937 2.033h-1.383a1.976 1.976 0 0 0-.503-1.245 1.661 1.661 0 0 0-1.181-.383 1.624 1.624 0 0 0-1.395.664 3.307 3.307 0 0 0-.495 1.942v.709c-.045.69.116 1.377.461 1.976.301.452.819.712 1.361.683a1.8 1.8 0 0 0 1.23-.371 1.92 1.92 0 0 0 .525-1.223h1.38zm2.535 2.603h-1.335v-8.438h1.335v8.438zm1.2-3.027a3.506 3.506 0 0 1 .35-1.575c.212-.446.55-.82.974-1.076a2.737 2.737 0 0 1 1.436-.375 2.595 2.595 0 0 1 1.95.773c.52.558.81 1.292.814 2.055l.004.315a3.52 3.52 0 0 1-.338 1.57c-.21.444-.547.816-.967 1.07a2.76 2.76 0 0 1-1.451.378 2.58 2.58 0 0 1-2.014-.836 3.21 3.21 0 0 1-.754-2.231l-.004-.068zm1.34.113c-.032.507.1 1.012.374 1.44.242.34.64.535 1.058.517.416.016.812-.182 1.05-.525a2.65 2.65 0 0 0 .375-1.545 2.363 2.363 0 0 0-.387-1.428 1.305 1.305 0 0 0-2.088-.008 2.595 2.595 0 0 0-.387 1.553l.004-.004h.001zm8.65 1.297a.604.604 0 0 0-.296-.543 3.124 3.124 0 0 0-.975-.33 5.014 5.014 0 0 1-1.136-.36 1.519 1.519 0 0 1-1.001-1.403 1.582 1.582 0 0 1 .648-1.286 2.561 2.561 0 0 1 1.65-.514 2.666 2.666 0 0 1 1.722.525c.425.325.669.834.656 1.369h-1.335a.825.825 0 0 0-.285-.638 1.095 1.095 0 0 0-.758-.258 1.181 1.181 0 0 0-.72.206.637.637 0 0 0-.277.544.54.54 0 0 0 .262.476c.328.168.68.285 1.043.345a4.95 4.95 0 0 1 1.234.412c.266.13.494.327.663.57.151.244.227.527.218.814a1.549 1.549 0 0 1-.668 1.301c-.51.35-1.121.525-1.74.495a3.075 3.075 0 0 1-1.3-.262 2.141 2.141 0 0 1-.89-.724 1.717 1.717 0 0 1-.318-.997h1.293a.937.937 0 0 0 .357.73c.254.182.562.271.873.256a1.35 1.35 0 0 0 .803-.203.623.623 0 0 0 .277-.525zm5.093 1.725a2.76 2.76 0 0 1-2.059-.798 2.899 2.899 0 0 1-.787-2.127v-.165a3.58 3.58 0 0 1 .34-1.59c.212-.447.546-.826.965-1.091a2.55 2.55 0 0 1 1.387-.39c.71-.042 1.4.243 1.875.773.477.627.711 1.406.66 2.193v.537h-3.881c.016.433.189.847.487 1.162.288.287.681.443 1.088.431a1.808 1.808 0 0 0 1.492-.742l.72.686a2.4 2.4 0 0 1-.952.825 2.985 2.985 0 0 1-1.335.3v-.004zm-.161-5.092c-.34-.012-.666.13-.89.386a1.99 1.99 0 0 0-.43 1.073h2.546v-.102a1.624 1.624 0 0 0-.36-1.012 1.114 1.114 0 0 0-.866-.345z" fill="#2A3052" fill-rule="nonzero"/><g fill="#2A3052" fill-rule="nonzero"><path d="M20.316 130.759c-.029-.143-.029-.258-.029-.402a2.66 2.66 0 0 1-.775.718c-.316.201-.66.287-1.034.287-.603 0-1.062-.143-1.378-.488a1.751 1.751 0 0 1-.488-1.292c0-.574.23-1.005.689-1.32.46-.316 1.062-.489 1.837-.489h1.149v-.574c0-.344-.115-.631-.316-.832-.2-.201-.517-.316-.89-.316-.344 0-.632.086-.833.258a.846.846 0 0 0-.315.632h-1.005v-.029c-.029-.43.172-.833.603-1.177.43-.345.976-.546 1.636-.546.66 0 1.206.173 1.608.517.402.345.603.833.603 1.464v2.843c0 .2 0 .402.029.603.028.2.057.402.115.574h-1.12v.058a20.311 20.311 0 0 0-.086-.489zm-1.738-.344c.373 0 .746-.086 1.033-.287.316-.201.517-.43.603-.69v-.947h-1.177c-.43 0-.775.115-1.033.316a.963.963 0 0 0-.374.775c0 .259.086.46.23.632.172.115.402.2.718.2v.001zm6.065-6.771v1.505h1.173v.842h-1.173v3.76c0 .301.06.482.18.602s.271.18.482.18c.06 0 .12 0 .21-.03.09 0 .15-.03.21-.06l.151.782c-.09.06-.21.12-.36.18a2.66 2.66 0 0 1-.482.061 1.474 1.474 0 0 1-1.083-.421c-.27-.27-.391-.722-.391-1.294v-3.76h-.963v-.842h.963v-1.505h1.083zm-15.1 7.718v-8.214h2.623c1.381 0 2.83.74 2.83 2.001 0 1.262-.784 1.557-1.191 1.806 1.127.294 1.69 1.011 1.69 2.152 0 1.712-1.456 2.255-2.647 2.255H9.543zm1.132-4.744h1.576c.96 0 1.577-.453 1.577-1.434 0-.98-.96-1.092-1.626-1.092h-1.527v2.526zm.002.896v2.95h2.238c.66 0 1.503-.457 1.503-1.475s-.837-1.475-1.503-1.475h-2.238zm9.189-4.43c.467.013.466.021.773-.012 0 .494-.379 1.156-1.533 1.156s-1.792-.519-1.792-1.156l.842.012c.001.417.318.625.95.625.672-.067.635-.203.76-.625zm-1.171-.16h.567l.878-1.026h-.878l-.567 1.026zm19.767 7.926c-.03-.147-.03-.265-.03-.412-.206.295-.47.53-.794.736-.317.2-.686.301-1.06.294-.618 0-1.09-.147-1.413-.5a1.796 1.796 0 0 1-.5-1.325c0-.589.235-1.03.706-1.354.47-.324 1.09-.5 1.884-.5h1.177v-.59c0-.352-.117-.647-.323-.853-.206-.206-.53-.324-.913-.324-.353 0-.648.089-.854.265a.868.868 0 0 0-.324.648h-1.03v-.03c-.03-.441.177-.853.618-1.207.442-.353 1.001-.559 1.678-.559s1.237.177 1.649.53c.412.353.618.854.618 1.501v2.915c0 .206 0 .412.03.618.029.206.058.412.117.589H38.55v.059c-.03-.177-.059-.354-.088-.5v-.001zm-1.782-.353c.383 0 .765-.088 1.06-.294.324-.206.53-.442.618-.707v-.971h-1.207c-.442 0-.795.117-1.06.323a.988.988 0 0 0-.383.795.97.97 0 0 0 .236.648c.177.118.412.206.736.206zm-8.496-2.175c0-.952.202-1.73.606-2.308.403-.577.98-.865 1.701-.865.346 0 .663.058.923.202.26.115.49.317.692.548v-3.26h1.067v8.567h-.865l-.115-.721a2.05 2.05 0 0 1-.692.634 2.134 2.134 0 0 1-.981.202c-.721 0-1.269-.26-1.673-.779-.404-.519-.605-1.211-.605-2.076v-.144h-.058zm1.053.116c0 .606.115 1.096.374 1.442.26.346.606.548 1.125.548.318 0 .577-.086.808-.23.23-.145.404-.347.519-.606v-2.769a1.511 1.511 0 0 0-.548-.577 1.45 1.45 0 0 0-.779-.23c-.519 0-.894.201-1.125.634-.23.433-.374.98-.374 1.673v.115zm15.803-3.16h1.069v6.05h-1.07v-.897c-.339.438-.898 1.143-2.02 1.024-1.123-.118-1.817-.999-1.822-1.97-.005-.97.005-4.535 0-4.206h1.06v2.292c0 2.68.59 2.978 1.396 2.978.806 0 1.2-.681 1.387-.909a315.76 315.76 0 0 1 0-4.361v-.001z"/><path d="M34.261 123.588v.798h-3.558v-.797l3.558-.001zm1.138-.339h-.77l-1.117-1.414h1.117l.77 1.414zm.811 1.026h-1.097l1.574-1.485h.87l1.65 1.485h-1.154l-.893-.87-.95.87z"/></g><path d="M15.866 21.19v-3.9h-.813v-1.081h.813v-3.726h3.038c1.065 0 1.942.34 2.631 1.02.69.68 1.035 1.551 1.035 2.616v1.441c0 1.068-.345 1.94-1.035 2.616-.69.676-1.566 1.014-2.63 1.014h-3.039zm3.2-3.9h-1.453v2.56h1.291c.574 0 1.037-.214 1.388-.643.35-.428.526-.977.526-1.647v-1.453c0-.666-.176-1.212-.526-1.639-.351-.426-.814-.64-1.388-.64h-1.291v2.38h1.453v1.083-.001zm4.503.605c0-.965.269-1.755.807-2.371.538-.616 1.284-.924 2.236-.924.957 0 1.707.307 2.249.92.542.615.813 1.406.813 2.375v.125c0 .973-.27 1.766-.81 2.377-.54.612-1.287.918-2.24.918-.956 0-1.705-.306-2.245-.918-.54-.611-.81-1.404-.81-2.377v-.125zm1.74.125c0 .59.103 1.064.31 1.42.208.357.543.536 1.005.536.45 0 .78-.18.99-.538.21-.36.314-.832.314-1.418v-.125c0-.574-.106-1.043-.317-1.405-.211-.363-.544-.545-.999-.545-.45 0-.78.183-.99.548-.209.364-.313.832-.313 1.402v.125zm1.656-6.063h1.944l.012.036-1.657 1.554h-1.489l1.19-1.59zm5.382 2.763l.078.926c.215-.33.48-.588.795-.771a2.07 2.07 0 0 1 1.059-.275c.654 0 1.164.21 1.53.63.367.421.55 1.086.55 1.995v3.965h-1.751v-3.959c0-.462-.081-.79-.243-.984-.161-.193-.403-.29-.726-.29-.26 0-.487.05-.685.147-.197.098-.36.232-.487.404v4.682H30.72v-6.47h1.627zm5.06 3.288c0-1.02.22-1.843.663-2.47.443-.625 1.065-.938 1.866-.938.363 0 .682.082.957.245.275.164.51.397.705.7l.138-.825h1.5v6.44c0 .841-.274 1.492-.824 1.952-.55.46-1.318.691-2.303.691-.327 0-.673-.045-1.04-.134a4.832 4.832 0 0 1-1.017-.368l.293-1.304c.267.128.543.224.828.29.285.066.593.099.924.099.479 0 .83-.1 1.056-.3.225-.199.338-.51.338-.932v-.586c-.18.234-.412.424-.676.556-.26.128-.556.191-.891.191-.793 0-1.411-.29-1.854-.873-.442-.582-.664-1.351-.664-2.308v-.126h.001zm1.745.126c0 .566.095 1.012.285 1.337.189.325.499.487.93.487.266 0 .493-.049.678-.147a1.12 1.12 0 0 0 .446-.427v-2.806c-.112-.2-.26-.353-.446-.46a1.306 1.306 0 0 0-.667-.162c-.426 0-.737.19-.933.568-.195.38-.293.874-.293 1.483v.127zm9.15.006H44.78v-1.345h3.522v1.345zm7.81-4.312h-2.488v7.362h-1.746v-7.362h-2.452v-1.345h6.686v1.345zm2.53 1.71c.202-.294.452-.524.747-.69.3-.166.637-.252.98-.248.674 0 1.203.224 1.588.673.385.448.577 1.14.577 2.078v3.839h-1.746v-3.852c0-.503-.08-.858-.242-1.068-.162-.209-.404-.314-.727-.314-.267 0-.5.043-.696.129-.19.08-.355.206-.482.368v4.736h-1.746V11.86h1.746v3.678h.001zm9.023 5.652a3.673 3.673 0 0 1-.264-.969 2.39 2.39 0 0 1-.71.783c-.296.208-.647.311-1.053.311-.678 0-1.2-.174-1.567-.523-.367-.349-.55-.824-.55-1.426 0-.634.244-1.125.732-1.474.489-.349 1.201-.523 2.138-.523h.98v-.515c0-.31-.08-.552-.244-.723-.164-.172-.407-.257-.73-.257-.283 0-.501.068-.655.206-.153.137-.23.326-.23.565h-1.68l-.012-.036c-.028-.546.21-1.017.714-1.414.505-.397 1.164-.595 1.977-.595.777 0 1.406.195 1.887.586.48.39.72.95.72 1.68v2.673c0 .303.023.588.069.855.046.268.118.533.218.796h-1.74zm-1.597-1.166c.303 0 .574-.076.814-.228.239-.151.402-.326.49-.526v-.915h-.98c-.372 0-.652.092-.841.275a.904.904 0 0 0-.284.676c0 .22.07.394.212.523.142.13.338.195.59.195h-.001zm-.323-7.924h1.436l1.77 1.513-.012.036h-1.567l-.915-.855-.903.855h-1.573l-.012-.036 1.776-1.513zm3.558-1.1h1.615l-1.28 1.62h-1.22l.885-1.62zm6.961 7.134c0 .957-.221 1.726-.664 2.308-.442.582-1.06.873-1.853.873-.34 0-.64-.062-.903-.188a1.855 1.855 0 0 1-.676-.553v3.103h-1.74V14.72H72l.102.765c.191-.283.422-.501.69-.655.27-.153.584-.23.943-.23.8 0 1.423.313 1.865.939.443.626.664 1.449.664 2.47v.125zm-1.746-.126c0-.61-.102-1.104-.305-1.483-.203-.378-.514-.568-.933-.568-.263 0-.487.054-.673.162-.187.109-.34.268-.44.46v2.835c.109.183.255.323.44.418.186.096.414.144.685.144.423 0 .733-.166.93-.496.197-.331.296-.78.296-1.346v-.126z" fill="#020202" fill-rule="nonzero"/><path d="M162.697 180.981h-2.636v7.389h-1.424v-7.39h-2.596v-1.142h6.656v1.143zm2.344 1.869c.2-.287.463-.523.77-.691.309-.166.655-.25 1.005-.246.672 0 1.197.211 1.574.635.377.424.565 1.077.565 1.96v3.862h-1.424v-3.873c0-.497-.096-.857-.29-1.082-.193-.224-.481-.336-.864-.336a1.81 1.81 0 0 0-.791.16 1.44 1.44 0 0 0-.545.449v4.682h-1.424v-9.141h1.424v3.621zm9.211 5.52a5.255 5.255 0 0 1-.126-.47 3.35 3.35 0 0 1-.067-.456c-.198.303-.46.558-.768.747-.32.201-.678.302-1.072.302-.66 0-1.167-.17-1.52-.51-.354-.34-.53-.807-.53-1.4 0-.614.241-1.091.726-1.433.484-.342 1.166-.513 2.045-.513h1.107v-.556c0-.333-.097-.592-.29-.78-.193-.187-.474-.281-.84-.281-.325 0-.583.077-.774.231a.736.736 0 0 0-.287.601l-1.372.006-.005-.035c-.028-.5.196-.944.67-1.33.475-.387 1.093-.58 1.855-.58.738 0 1.334.187 1.787.562.453.375.68.914.68 1.617v2.819c0 .261.017.512.053.753.035.24.091.475.17.706h-1.442zm-1.74-1.02c.355 0 .677-.09.964-.27.287-.18.477-.384.571-.615v-.937h-1.13c-.415 0-.74.102-.974.307-.234.205-.351.447-.351.724 0 .242.079.435.237.577.158.143.386.214.683.214zm-.194-7.945h1.16l1.717 1.5-.017.035h-1.342l-.937-.873-.938.873h-1.342l-.017-.035 1.716-1.5zm3.252-1.055h1.407l-1.225 1.564h-1.025l.843-1.564z" fill="#2A3052" fill-rule="nonzero"/></g></svg>