<svg width="299" height="197" xmlns="http://www.w3.org/2000/svg"><g fill="none" fill-rule="evenodd"><path fill="#F1F2F2" d="M0 0h299v197H0z"/><path d="M1.987 1.98v193.04h295.026V1.98H1.987zM299 0v197H0V0h299z" fill="#C2C2C2" fill-rule="nonzero"/><path d="M4.887 56.446v-1.207h289.656v1.207H4.887zm0 40.534v-1.207h289.656v1.207H4.887zm0 40.534v-1.207h289.656v1.207H4.887zm0 40.496v-1.207h289.656v1.207H4.887zm34.38-142.416h1.206v159.67h-1.206V35.594zm36.664 0h1.207v159.67h-1.207V35.594zm36.628 0h1.207v159.67h-1.207V35.594zm36.665 0h1.207v159.67h-1.207V35.594zm36.627 0h1.207v159.67h-1.207V35.594zm36.628 0h1.207v159.67h-1.207V35.594zM4.887 117.228v-1.207h289.656v1.207H4.887z" fill="#DFDEDE" fill-rule="nonzero"/><path d="M259.144 35.594h1.207v159.67h-1.207V35.594zM4.887 76.731v-1.206h289.656v1.206H4.887zm0 81.03v-1.206h289.656v1.207H4.887z" fill="#2A3052" fill-rule="nonzero"/><path fill="#C2C2C2" fill-rule="nonzero" d="M2.794 35.606V33.19h293.842v2.415z"/><path d="M40.778 118.19a1.81 1.81 0 0 1-1.816-3.132l36.665-21.257a1.81 1.81 0 0 1 2.068.176l32.442 27.072 38.676-26.172a1.81 1.81 0 0 1 2.202.133l35.361 30.729 72.1-71.185a1.81 1.81 0 0 1 2.543 2.577l-73.292 72.363a1.81 1.81 0 0 1-2.46.078L149.69 98.655l-38.652 26.156a1.81 1.81 0 0 1-2.175-.11L76.347 97.57l-35.569 20.622z" fill="#2A3052" fill-rule="nonzero"/><path d="M187.987 147.445h-34.945l-5.382-8.181-5.382 8.181h-34.946a4.733 4.733 0 0 0-4.71 4.782v24.694a4.753 4.753 0 0 0 4.71 4.782h80.692a4.733 4.733 0 0 0 4.71-4.782v-24.694a4.758 4.758 0 0 0-4.747-4.782z" fill="#E88024"/><ellipse cx="8.335" cy="9.228" rx="8.11" ry="8.443" opacity=".6" transform="translate(251.412 45.83)" fill="#FFF"/><path d="M259.747 64.708c-5.157 0-9.317-4.331-9.317-9.65 0-5.32 4.16-9.65 9.317-9.65s9.318 4.33 9.318 9.65c0 5.319-4.16 9.65-9.318 9.65zm0-2.414c3.802 0 6.903-3.23 6.903-7.236 0-4.007-3.101-7.236-6.903-7.236-3.801 0-6.903 3.229-6.903 7.236s3.102 7.236 6.903 7.236z" fill="#E88024" fill-rule="nonzero"/><ellipse cx="8.97" cy="9.021" rx="8.11" ry="8.443" opacity=".6" transform="translate(30.9 107.604)" fill="#FFF"/><path d="M39.87 126.275c-5.157 0-9.317-4.332-9.317-9.65 0-5.32 4.16-9.65 9.317-9.65s9.317 4.33 9.317 9.65c0 5.318-4.16 9.65-9.317 9.65zm0-2.414c3.802 0 6.903-3.23 6.903-7.236 0-4.007-3.101-7.236-6.903-7.236-3.802 0-6.903 3.229-6.903 7.236 0 4.006 3.101 7.236 6.903 7.236z" fill="#E88024" fill-rule="nonzero"/><path d="M17.559 18.034h-.686v3.898H15v-9.335h1.872v3.815h.526l2.558-3.815h2.314l-3.231 4.34 3.481 4.995h-2.385l-2.577-3.898h.001zm8.508 4.033c-1.034 0-1.842-.318-2.424-.953-.58-.634-.872-1.452-.872-2.452v-.256c0-1.04.283-1.89.847-2.552.564-.663 1.34-.992 2.327-.988.932 0 1.647.286 2.145.856.498.571.747 1.34.747 2.305v.968H24.7l-.019.039c.03.474.174.86.433 1.154.258.295.642.442 1.15.442.36.008.72-.036 1.068-.128.293-.085.595-.216.908-.391l.506 1.154c-.278.227-.654.417-1.128.57a4.976 4.976 0 0 1-1.552.232h.001zm-.122-5.758c-.376 0-.666.13-.869.388-.203.259-.325.602-.368 1.029l.013.032h2.282v-.141c0-.406-.083-.726-.25-.959-.167-.233-.436-.349-.808-.349zm-.897-4.129h1.538l1.898 1.622-.013.039h-1.68l-.98-.917-.969.917h-1.686l-.013-.039 1.905-1.622zM28.862 11h1.732l-1.374 1.738h-1.307L28.861 11h.001zm3.309 2.296v1.699h1.173v1.314h-1.173v3.533c0 .269.056.461.17.577.118.117.279.18.445.173.171.001.342-.022.507-.07l.154 1.352c-.362.13-.744.195-1.128.192-.646 0-1.143-.177-1.491-.532-.349-.354-.523-.916-.523-1.686v-3.539h-1.013v-1.314h1.013v-1.7h1.866v.001zm12.246.743H41.75v7.893h-1.873v-7.894H37.25v-1.44h7.168v1.442l-.001-.001zm2.712 1.834c.218-.316.485-.563.801-.74.321-.18.684-.271 1.052-.267.722 0 1.29.24 1.702.722.413.48.619 1.223.619 2.228v4.116H49.43v-4.13c0-.538-.087-.92-.26-1.144-.173-.224-.433-.336-.78-.336-.285 0-.534.046-.746.138a1.29 1.29 0 0 0-.516.394v5.078h-1.872V11.93h1.872v3.943h.001zm9.835 5.033a2.355 2.355 0 0 1-.814.86c-.33.2-.712.3-1.148.3-.73 0-1.302-.247-1.715-.743-.412-.496-.619-1.265-.619-2.308v-4.02h1.866v4.032c0 .607.082 1.023.247 1.248.165.224.42.336.766.336.3 0 .556-.048.77-.144.213-.096.389-.238.525-.426v-5.046h1.873v6.937h-1.552l-.199-1.026zm-.904-8.739h2.084l.013.039-1.776 1.667h-1.597l1.276-1.706zm6.963 8.463c.325 0 .583-.097.776-.291.192-.195.288-.454.288-.78h1.706l.013.04c.017.7-.244 1.287-.783 1.76-.538.471-1.205.708-2 .708-1.026 0-1.819-.328-2.379-.985-.56-.656-.84-1.495-.84-2.516v-.192c0-1.018.28-1.857.837-2.517.558-.66 1.348-.99 2.37-.99.846 0 1.527.243 2.045.73.517.488.767 1.129.75 1.924l-.013.038h-1.706c0-.359-.095-.657-.285-.894-.19-.237-.454-.356-.792-.356-.483 0-.826.193-1.029.58-.203.387-.304.882-.304 1.485v.192c0 .615.101 1.113.304 1.494.203.38.55.57 1.042.57zm9.156-2.43v3.732h-1.872v-9.335h3.231c1.064 0 1.897.242 2.497.727.6.486.901 1.162.901 2.03 0 .478-.127.892-.381 1.24-.255.349-.626.63-1.113.843.552.163.948.434 1.19.815.241.38.362.85.362 1.41v.686c0 .261.035.533.106.818.07.284.19.494.362.631v.135h-1.93c-.171-.137-.281-.363-.33-.68a5.97 5.97 0 0 1-.074-.917v-.66c0-.466-.127-.828-.381-1.087-.255-.258-.615-.388-1.08-.388h-1.488zm0-1.442h1.327c.526 0 .917-.111 1.173-.334.257-.222.385-.551.385-.987 0-.427-.13-.767-.388-1.02-.259-.252-.638-.378-1.138-.378h-1.36v2.719h.001zm10.444 5.174a3.938 3.938 0 0 1-.176-.5 3.479 3.479 0 0 1-.106-.539c-.188.333-.45.62-.763.84-.316.222-.692.334-1.128.334-.727 0-1.287-.187-1.68-.561-.393-.374-.59-.884-.59-1.53 0-.68.262-1.206.785-1.58.524-.374 1.288-.561 2.292-.561h1.052v-.551c0-.334-.088-.592-.263-.776-.175-.184-.436-.276-.782-.276-.304 0-.538.074-.702.221-.165.148-.247.35-.247.606h-1.802l-.013-.038c-.03-.586.226-1.091.767-1.517.54-.425 1.247-.638 2.119-.638.833 0 1.507.21 2.023.629.515.419.772 1.02.772 1.801v2.866c0 .325.025.63.074.917.049.287.127.57.234.853h-1.866zm-1.712-1.25c.325 0 .616-.082.872-.244.257-.162.432-.35.526-.564v-.981h-1.052c-.397 0-.697.098-.9.295a.97.97 0 0 0-.305.724c0 .235.076.422.228.561.151.14.362.209.631.209zm15.632 1.25H94.67l-3.763-6.296-.039.006v6.29h-1.872v-9.335h1.872l3.764 6.29.038-.007v-6.283h1.873v9.335zm1.301-3.411c0-1.094.237-1.977.712-2.648.474-.671 1.141-1.007 2-1.007.39 0 .731.088 1.026.263.295.176.547.426.757.75l.147-.884h1.61V21.9c0 .902-.296 1.6-.885 2.093-.59.494-1.413.74-2.469.74a4.67 4.67 0 0 1-1.116-.144 5.18 5.18 0 0 1-1.09-.394l.315-1.398c.286.137.582.24.888.311a4.4 4.4 0 0 0 .99.106c.513 0 .89-.107 1.132-.32.241-.214.362-.547.362-1v-.629c-.205.26-.447.46-.724.596a2.136 2.136 0 0 1-.956.206c-.85 0-1.513-.312-1.987-.937-.475-.624-.712-1.449-.712-2.474v-.135zm1.872.135c0 .607.102 1.084.305 1.433.203.348.535.522.997.522.286 0 .529-.052.727-.157a1.2 1.2 0 0 0 .478-.458v-3.008a1.28 1.28 0 0 0-.478-.494 1.4 1.4 0 0 0-.714-.173c-.458 0-.791.203-1 .609-.21.406-.315.936-.315 1.59v.136zm5.527-.257c0-1.034.288-1.882.866-2.542.577-.66 1.376-.99 2.397-.99 1.026 0 1.83.329 2.411.987.581.658.872 1.506.872 2.545v.135c0 1.043-.29 1.892-.869 2.548-.579.657-1.38.985-2.4.985-1.027 0-1.83-.328-2.408-.985-.58-.656-.869-1.505-.869-2.548v-.135zm1.866.135c0 .632.11 1.14.333 1.523.222.382.581.573 1.077.573.483 0 .837-.192 1.061-.577.225-.384.337-.89.337-1.52v-.134c0-.615-.113-1.118-.34-1.507-.226-.389-.583-.583-1.07-.583-.484 0-.837.196-1.062.587-.224.39-.336.892-.336 1.503v.135zm9.925 3.398c-.07-.162-.13-.33-.177-.5a3.479 3.479 0 0 1-.105-.539c-.188.333-.45.62-.763.84-.317.222-.693.334-1.129.334-.726 0-1.286-.187-1.68-.561-.393-.374-.59-.884-.59-1.53 0-.68.262-1.206.786-1.58.524-.374 1.288-.561 2.292-.561h1.052v-.551c0-.334-.088-.592-.263-.776-.176-.184-.436-.276-.782-.276-.304 0-.538.074-.703.221-.164.148-.246.35-.246.606h-1.802l-.013-.038c-.03-.586.226-1.091.766-1.517.541-.425 1.247-.638 2.12-.638.833 0 1.507.21 2.022.629.515.419.773 1.02.773 1.801v2.866c0 .325.024.63.073.917.05.287.128.57.235.853h-1.866zm-1.712-1.25a1.6 1.6 0 0 0 .872-.244c.256-.162.432-.35.526-.564v-.981h-1.052c-.397 0-.698.098-.9.295a.97.97 0 0 0-.305.724c0 .235.076.422.227.561.152.14.363.209.632.209zm1.301-6.944h-1.609l-1.744-1.667.013-.038h2.084l1.256 1.705zm5.341 8.194h-1.872v-6.937h1.872v6.937zm0-8.598h-1.872V11.93h1.872v1.404z" fill="#020202" fill-rule="nonzero"/><path d="M19.868 66.355l.038.007 4.096-7.553h1.563l-1.39 9.288h-1.258l1.04-6.954-.038-.012-3.853 6.966h-.874l-1.818-7.196h-.038l-1.079 7.196h-1.256l1.39-9.288h1.653l1.824 7.546zm10.775 1.742l.07-.989c-.252.348-.58.634-.96.836a2.62 2.62 0 0 1-1.228.287c-.728 0-1.272-.244-1.633-.73-.362-.488-.466-1.233-.313-2.237l.606-4.07h1.257l-.613 4.083c-.114.761-.085 1.274.09 1.538.174.263.495.395.963.395.438 0 .819-.095 1.142-.284.323-.189.587-.456.79-.8l.734-4.932h1.257l-1.033 6.903h-1.13.001zm-1.73 2.15h-1.39l.192-1.276h1.39l-.191 1.276h-.001zm7.56-2.999c.37 0 .722-.13 1.056-.389.334-.26.53-.574.59-.944h1.136l.012.038c-.076.621-.409 1.156-.998 1.605-.589.448-1.236.673-1.942.673-.928 0-1.615-.333-2.064-.999-.449-.665-.6-1.483-.456-2.452l.038-.268c.153-1.008.54-1.834 1.161-2.479.621-.644 1.418-.966 2.392-.966.745 0 1.334.24 1.767.72.434.481.59 1.066.466 1.755l-.013.032H38.47c.064-.438-.017-.8-.242-1.088-.226-.287-.551-.43-.976-.43-.592 0-1.072.243-1.442.73-.37.487-.604 1.062-.702 1.726l-.038.268c-.11.714-.062 1.304.147 1.77.208.466.627.698 1.256.698zm10.245-7.718l-.248 1.664h1.307l-.14.932h-1.308l-.625 4.191c-.051.336-.02.567.093.692.112.126.281.188.507.188a1.71 1.71 0 0 0 .478-.09l.045.862a1.31 1.31 0 0 1-.444.188 2.15 2.15 0 0 1-.551.074c-.494 0-.873-.155-1.14-.466-.265-.31-.347-.793-.245-1.448l.626-4.191h-1.098l.14-.932h1.098l.249-1.664h1.256zm2.73 8.567h-1.256l1.033-6.903h1.257l-1.032 6.904-.002-.001zm1.302-8.67h-1.257l.192-1.282h1.256l-.191 1.282zm3.47 8.804c-.952 0-1.668-.321-2.146-.963-.479-.643-.641-1.472-.488-2.488l.044-.281c.15-1.03.554-1.859 1.216-2.488.66-.63 1.41-.944 2.248-.944.89 0 1.53.291 1.92.874.392.583.517 1.342.377 2.277l-.096.664H52.83c-.098.731-.026 1.309.217 1.732.242.423.682.634 1.32.634a3.41 3.41 0 0 0 1.139-.185c.35-.123.654-.289.909-.497l.37.816c-.28.239-.636.44-1.066.603-.43.164-.929.246-1.499.246zm.728-6.175c-.421 0-.803.17-1.145.51-.343.34-.588.77-.737 1.289l.012.038h3.107l.013-.102c.076-.515.017-.933-.179-1.254-.195-.32-.553-.481-1.071-.481zm2.175-2.284l-.026.16H56.07l-.797-.945-1.072.944h-1.02l.025-.165 1.793-1.512h.765l1.359 1.518zm5.563 8.325l.07-.989c-.252.348-.58.634-.96.836a2.62 2.62 0 0 1-1.228.287c-.728 0-1.272-.244-1.633-.73-.362-.488-.466-1.233-.313-2.237l.606-4.07h1.257l-.613 4.083c-.114.761-.085 1.274.09 1.538.174.263.495.395.963.395.438 0 .819-.095 1.142-.284.323-.189.587-.456.79-.8l.734-4.932h1.257l-1.033 6.903h-1.13.001zm9.077-.849c.37 0 .722-.13 1.056-.389.334-.26.53-.574.59-.944h1.136l.012.038c-.076.621-.409 1.156-.998 1.605-.589.448-1.236.673-1.942.673-.928 0-1.615-.333-2.064-.999-.449-.665-.6-1.483-.456-2.452l.038-.268c.153-1.008.54-1.834 1.161-2.479.621-.644 1.418-.966 2.392-.966.745 0 1.334.24 1.767.72.434.481.59 1.066.466 1.755l-.013.032H73.76c.064-.438-.017-.8-.242-1.088-.226-.287-.551-.43-.976-.43-.592 0-1.072.243-1.442.73-.37.487-.604 1.062-.702 1.726l-.038.268c-.11.714-.062 1.304.147 1.77.208.466.627.698 1.256.698zm8.21.849c-.008-.238-.012-.43-.012-.577 0-.147.008-.297.025-.45a3.727 3.727 0 0 1-1.043.826c-.41.223-.83.335-1.26.335-.693 0-1.207-.186-1.54-.558-.334-.373-.452-.878-.354-1.515a2.11 2.11 0 0 1 1.02-1.563c.583-.362 1.338-.543 2.265-.543h1.365l.102-.682c.064-.421-.01-.745-.22-.973-.21-.228-.543-.341-.998-.341-.387 0-.728.102-1.021.306-.293.204-.46.449-.498.734l-1.199.012-.006-.038c.05-.523.355-.988.912-1.394.557-.406 1.233-.61 2.029-.61.752 0 1.343.202 1.773.604.43.402.591.973.485 1.713l-.498 3.323c-.042.26-.067.5-.073.724-.006.223.007.446.041.667h-1.295zm-1.945-.919c.434 0 .855-.119 1.263-.357.408-.238.69-.506.848-.804l.172-1.116h-1.41c-.488 0-.91.13-1.262.389-.353.26-.553.557-.6.893-.051.319.005.565.169.737.164.172.437.258.82.258zm5.122-2.596c.158-1.06.558-1.91 1.203-2.552.644-.642 1.445-.963 2.402-.963.918 0 1.615.333 2.089.998.474.666.637 1.505.488 2.517l-.026.14c-.161 1.068-.563 1.92-1.205 2.555-.643.636-1.444.954-2.405.954-.919 0-1.615-.332-2.09-.995-.474-.664-.634-1.502-.481-2.514l.025-.14zm1.231.14c-.114.757-.053 1.367.185 1.831.239.464.664.695 1.276.695.574 0 1.058-.24 1.452-.724.393-.482.645-1.083.756-1.802l.025-.14c.11-.749.046-1.357-.195-1.825-.24-.467-.664-.701-1.272-.701-.579 0-1.064.243-1.458.73-.393.487-.641 1.086-.743 1.796l-.026.14zM19.894 170.17l.038.006 4.118-7.593h1.57l-1.397 9.338h-1.264l1.046-6.99-.039-.013-3.873 7.003h-.879l-1.828-7.234h-.038l-1.084 7.234h-1.263l1.398-9.338h1.66l1.835 7.587zm10.832 1.75l.07-.993c-.253.35-.583.637-.965.84-.37.192-.781.289-1.234.289-.731 0-1.279-.245-1.642-.735-.364-.49-.468-1.239-.314-2.248l.609-4.091h1.263l-.615 4.104c-.116.766-.086 1.28.09 1.546.175.265.497.397.968.397.44 0 .823-.095 1.148-.285.325-.19.59-.458.795-.805l.737-4.957H32.9l-1.04 6.939h-1.134v-.001zm-1.738 2.162H27.59l.192-1.283h1.398l-.192 1.283zm7.6-3.014c.371 0 .725-.13 1.06-.391.336-.261.534-.577.594-.95h1.142l.012.039c-.077.624-.411 1.162-1.003 1.613-.592.451-1.243.677-1.953.677-.932 0-1.624-.335-2.075-1.004-.45-.67-.604-1.491-.458-2.466l.038-.27c.154-1.013.543-1.843 1.167-2.49.625-.649 1.426-.972 2.405-.972.749 0 1.34.241 1.777.724.436.483.592 1.071.468 1.764l-.013.032h-1.154c.064-.44-.017-.805-.244-1.094-.227-.288-.554-.432-.981-.432-.594 0-1.078.244-1.45.734-.372.49-.607 1.068-.705 1.735l-.038.269c-.112.718-.062 1.312.147 1.78.21.468.63.702 1.263.702h.001zm10.299-7.76l-.25 1.674h1.315l-.142.936h-1.314l-.629 4.214c-.051.337-.02.57.093.695.114.127.283.19.51.19.069 0 .15-.01.247-.03.096-.018.174-.039.234-.06l.045.866c-.107.077-.255.14-.446.189-.19.049-.375.074-.554.074-.496 0-.878-.157-1.145-.469-.267-.312-.35-.797-.247-1.455l.628-4.214H44.13l.141-.936h1.103l.25-1.674h1.264-.001zm2.745 8.613h-1.264l1.04-6.94h1.262l-1.04 6.94h.002zm1.308-8.716h-1.263l.192-1.289h1.263l-.192 1.29v-.001zm3.489 8.85c-.958 0-1.677-.322-2.158-.968-.481-.645-.645-1.48-.49-2.501l.044-.282c.15-1.035.557-1.869 1.222-2.501.665-.633 1.418-.95 2.26-.95.894 0 1.537.293 1.93.88.394.585.52 1.348.38 2.289l-.097.667h-4.49c-.098.735-.025 1.315.219 1.74.244.426.686.639 1.327.639.41 0 .792-.062 1.145-.186s.657-.29.914-.5l.372.82a3.65 3.65 0 0 1-1.071.607c-.432.164-.934.247-1.507.247v-.001zm.73-6.207c-.422 0-.806.17-1.15.513-.355.36-.61.807-.741 1.295l.013.039h3.123l.013-.103c.077-.517.017-.937-.18-1.26-.196-.323-.555-.484-1.077-.484h-.001zm2.188-2.296l-.026.16H56.29l-.802-.95-1.077.95h-1.027l.026-.167 1.802-1.52h.77l1.366 1.527h-.001zm5.592 8.369l.07-.994c-.253.35-.583.637-.965.84-.37.192-.78.289-1.234.289-.731 0-1.278-.245-1.642-.735-.363-.49-.468-1.239-.314-2.248l.61-4.091h1.263l-.616 4.104c-.116.766-.086 1.28.09 1.546.175.265.498.397.968.397.44 0 .823-.095 1.148-.285.325-.19.59-.458.795-.805l.738-4.957h1.263l-1.039 6.939h-1.135zm9.286-8.613l-.25 1.674h1.315l-.141.936h-1.315l-.628 4.214c-.052.337-.02.57.093.695.113.127.283.19.51.19.068 0 .15-.01.246-.03.097-.018.175-.039.234-.06l.045.866c-.107.077-.255.14-.445.189-.19.049-.376.074-.555.074-.496 0-.878-.157-1.145-.469-.267-.312-.35-.797-.247-1.455l.629-4.214h-1.103l.14-.936h1.104l.25-1.674h1.263zm3.547 2.565c.29-.325.622-.576.994-.753a2.75 2.75 0 0 1 1.2-.266c.713 0 1.249.224 1.606.673.357.449.469 1.13.336 2.046l-.654 4.348h-1.263l.654-4.361c.09-.59.032-1.018-.173-1.283-.205-.265-.554-.397-1.046-.397a2.2 2.2 0 0 0-1.003.23 2.279 2.279 0 0 0-.78.642l-.775 5.169h-1.264l1.5-10.005h1.264l-.596 3.957zm9.562 6.048c-.009-.24-.013-.433-.013-.58 0-.148.009-.299.026-.453-.287.33-.636.606-1.049.83a2.62 2.62 0 0 1-1.266.338c-.697 0-1.214-.188-1.55-.562-.335-.374-.454-.881-.355-1.523a2.121 2.121 0 0 1 1.026-1.571c.586-.363 1.345-.545 2.277-.545h1.372l.103-.686c.064-.424-.01-.75-.222-.978-.211-.229-.546-.343-1.003-.343-.39 0-.731.102-1.026.307-.295.206-.462.451-.5.738l-1.206.013-.007-.039c.052-.526.357-.993.917-1.401.56-.408 1.24-.612 2.04-.612.757 0 1.35.202 1.783.606.431.404.594.978.487 1.722l-.5 3.34a5.408 5.408 0 0 0-.074.729c-.006.224.008.448.042.67h-1.302zm-1.956-.924c.436 0 .86-.12 1.27-.359.41-.24.694-.509.853-.808l.173-1.122h-1.418c-.491 0-.914.13-1.27.391-.354.26-.555.56-.602.898-.052.32.005.567.17.74.164.174.44.26.824.26zm1.263-8.94h1.014l1.603 1.649-.02.038h-1.27l-.923-1.007-1.218 1.007h-1.27l-.013-.038 2.097-1.649zm3.483-1.11h1.301l.02.04-1.527 1.628h-.942l1.148-1.667v-.001z" fill="#6D6E71" fill-rule="nonzero"/><g fill="#2A3052" fill-rule="nonzero"><path d="M31.337 138.978c-.03-.146-.03-.263-.03-.41-.212.294-.48.543-.79.732-.315.198-.682.3-1.054.293-.614 0-1.083-.147-1.405-.498a1.786 1.786 0 0 1-.498-1.317c0-.586.235-1.025.703-1.347.469-.322 1.083-.498 1.874-.498h1.17v-.585c0-.352-.116-.644-.321-.85-.205-.204-.527-.321-.908-.321-.351 0-.644.087-.849.263a.863.863 0 0 0-.322.644h-1.025v-.03c-.029-.438.176-.848.615-1.2.44-.35.996-.556 1.67-.556.672 0 1.229.176 1.639.527.41.352.614.85.614 1.493v2.899c0 .205 0 .41.03.615.029.205.058.41.117.585h-1.142v.059c-.03-.176-.059-.352-.088-.498zm-1.772-.351c.38 0 .761-.088 1.054-.293.322-.205.527-.44.615-.703v-.966h-1.2c-.44 0-.791.117-1.054.322a.982.982 0 0 0-.381.79c0 .264.088.47.234.645.176.117.41.205.732.205zm6.185-6.904v1.534h1.196v.859H35.75v3.834c0 .307.06.49.184.614.122.122.276.184.49.184.062 0 .123 0 .215-.031a.44.44 0 0 0 .215-.061l.153.797a2.04 2.04 0 0 1-.368.184c-.153.03-.337.062-.49.062a1.503 1.503 0 0 1-1.105-.43c-.276-.276-.399-.736-.399-1.319v-3.834h-.981v-.86h.981v-1.533h1.105z"/><path d="M20.352 139.593v-8.377h2.675c1.408 0 2.886.755 2.886 2.041 0 1.287-.8 1.588-1.215 1.842 1.15.3 1.724 1.03 1.724 2.194 0 1.746-1.485 2.3-2.7 2.3h-3.37zm1.155-4.838h1.607c.979 0 1.607-.462 1.607-1.462s-.98-1.114-1.658-1.114h-1.556v2.576zm.002.913v3.01h2.282c.673 0 1.532-.467 1.532-1.505 0-1.038-.853-1.505-1.532-1.505h-2.282z" stroke="#979797" stroke-width=".5"/><path d="M30.879 131.151c.476.014.475.022.788-.012 0 .504-.386 1.18-1.563 1.18s-1.828-.53-1.828-1.18l.86.012c0 .425.323.638.968.638.685-.069.648-.208.775-.638zm-1.195-.163h.579l.895-1.046h-.895l-.579 1.046zm20.157 8.083c-.03-.15-.03-.27-.03-.42-.21.3-.48.54-.81.75-.33.21-.691.3-1.081.3-.63 0-1.111-.15-1.441-.51a1.831 1.831 0 0 1-.51-1.351c0-.6.24-1.05.72-1.381.48-.33 1.11-.51 1.921-.51h1.2v-.6c0-.36-.12-.661-.33-.871-.21-.21-.54-.33-.93-.33-.36 0-.66.09-.87.27-.21.18-.33.42-.33.66h-1.051v-.03c-.03-.45.18-.87.63-1.23s1.02-.571 1.711-.571c.69 0 1.261.18 1.681.54.42.36.63.87.63 1.531v2.972c0 .21 0 .42.03.63.03.21.06.42.12.6h-1.17v.061c-.03-.18-.06-.36-.09-.51zm-1.817-.36c.39 0 .78-.09 1.08-.3.33-.21.54-.451.631-.721v-.99h-1.23c-.451 0-.811.12-1.081.33-.27.21-.39.51-.39.81 0 .27.09.48.24.66.18.12.42.21.75.21v.001zm-8.664-2.219c0-.97.206-1.764.618-2.353.412-.588 1-.882 1.735-.882.353 0 .677.059.941.206.265.118.5.323.706.559v-3.323h1.088v8.734h-.882l-.118-.735a2.088 2.088 0 0 1-.706.647 2.176 2.176 0 0 1-1 .206c-.735 0-1.293-.265-1.705-.794-.412-.53-.618-1.236-.618-2.118v-.147h-.059zm1.074.119c0 .618.117 1.118.382 1.47.265.353.618.56 1.147.56.324 0 .588-.089.824-.236a1.36 1.36 0 0 0 .529-.618v-2.823a1.541 1.541 0 0 0-.559-.588 1.48 1.48 0 0 0-.794-.235c-.53 0-.912.205-1.147.647-.235.44-.382 1-.382 1.705v.118zm16.114-3.222h1.09v6.17h-1.09v-.916c-.346.447-.916 1.166-2.06 1.045-1.145-.122-1.853-1.02-1.858-2.009-.005-.99.005-4.625 0-4.29h1.08v2.338c0 2.734.602 3.036 1.424 3.036s1.225-.694 1.414-.926c-.01-1.3-.01-2.782 0-4.448z"/><path d="M45.557 131.666v.813H41.93v-.813h3.627zm1.161-.346h-.785l-1.139-1.442h1.139l.785 1.442zm.828 1.046h-1.12l1.605-1.514h.887l1.683 1.514h-1.177l-.91-.888-.968.888z"/></g><path d="M278.713 65.235v1.113h.868v.623h-.868v2.781c0 .223.045.356.134.445a.47.47 0 0 0 .356.134c.044 0 .089 0 .156-.022a.322.322 0 0 0 .155-.045l.112.579a1.482 1.482 0 0 1-.267.133 1.948 1.948 0 0 1-.356.045 1.09 1.09 0 0 1-.801-.312c-.2-.2-.29-.534-.29-.957v-2.781h-.712v-.623h.712v-1.113h.801zm9.464 1.184h.795v4.498h-.795v-.667c-.252.326-.668.85-1.503.762-.834-.089-1.35-.743-1.354-1.465-.004-.722.004-3.372 0-3.128h.788v1.704c0 1.994.438 2.215 1.038 2.215.6 0 .893-.507 1.031-.676-.007-.947-.007-2.028 0-3.243zm4.796 1.475c.295-.008.572 0 .75 0 0-1.32-1.047-1.669-1.888-1.669-.842 0-1.889.764-1.889 2.401 0 1.638.919 2.435 2.059 2.394 1.14-.041 1.718-.908 1.718-1.546-.333.008-.417.008-.75 0 0 .603-.543.92-.968.92-1.018 0-1.249-.988-1.249-1.773 0-.786.26-1.755 1.17-1.755.77 0 1.047.598 1.047 1.028zm-18.684-2.53v1.085h.846v.608h-.846v2.713c0 .217.043.348.13.434.087.087.195.13.347.13.044 0 .087 0 .152-.021a.314.314 0 0 0 .152-.044l.109.565c-.082.052-.17.096-.26.13a1.9 1.9 0 0 1-.348.043c-.291.01-.574-.1-.782-.303-.195-.196-.282-.521-.282-.934v-2.712h-.694v-.608h.694v-1.085h.782v-.001zm-1.971 3.464h-2.876c0 .534.11.92.327 1.158.287.313.588.426 1.002.385.722-.072.861-.266 1.16-.437l.305.523c-.356.367-.925.551-1.708.551-1.174 0-1.889-.972-1.936-2.13-.046-1.158.416-2.502 1.936-2.558 1.289.034 1.886.87 1.79 2.508zm-.807-.637c-.008-.814-.336-1.222-.982-1.222-.646 0-1 .408-1.06 1.222h2.042zm-7.836-3.315h.808v2.683h.487l2.236-2.683h.92l-2.452 2.883 2.624 3.171h-1.006l-2.24-2.71h-.57v2.71h-.807v-6.054zm5.95.706h-.822l1.18-1.103h.63l1.243 1.103h-.874l-.652-.668-.705.668zm2.524-1.795l-.558 1.089h.558l.864-1.09-.864.001zm8.346.745v6.49h.795v-3.33c.106-.348.435-.538.986-.57.827-.047 1.038.514 1.038.906v2.993h.837a359.85 359.85 0 0 1-.04-3.203c0-.492-.478-1.501-1.747-1.331-.872.226-.808.392-1.074.636-.018-.189-.018-1.036 0-2.544l-.795-.047zm7.031.358h-.602l.771-1.103h.951l-1.12 1.103z" fill="#2A3052" fill-rule="nonzero"/><path d="M175.114 165.72h-2.503v-8.07h2.503v8.07zm0 4.245h-2.503v-2.168h2.503v2.168zm-24.458-9.6h2.002l.1 1.458c.82-1.223 1.884-1.767 3.19-1.631.758.078 2.354.326 2.83 2.475.174.789.137 2.12.124 3.93a421.913 421.913 0 0 0 0 3.648h-2.196v-6.19c0-.727-.204-1.54-.814-1.847-.839-.423-2.418-.245-3.052.82v7.217h-2.184v-9.88zm-7.761 2.813c-.678-.004-1.388-.004-2.13 0 0-1.068.764-3.007 3.824-3.007 3.06 0 3.794 2.103 3.877 2.555.083.452-.213 6.798.427 7.52l-2.273.002c-.188-.642-.282-1.117-.282-1.425-.355.433-.964 1.224-1.902 1.515-.937.29-3.065.446-3.937-1.596-.575-1.347-.208-2.861.872-3.555 1.784-1.146 4.236-.763 4.967-.763.095-2.044-.516-2.52-1.902-2.52-.923 0-1.437.425-1.541 1.274zm3.442 2.644a36.882 36.882 0 0 0-2.244.019c-.892.078-1.687.738-1.62 1.678.081 1.12 1.356 1.326 2.353 1.003.837-.271 1.42-.972 1.511-1.27v-1.43zm21.581-4.57l.222-1.257h1.815v10.055c.006 3.504-3.928 4.846-7.544 3.096.207-1.034.321-1.612.342-1.734 1.575.526 5.495 1.843 4.996-2.52-2.25 2.306-4.798.909-5.678-.63-.973-1.7-1.606-6.77 1.523-8.137 1.802-.788 3.243-.412 4.324 1.127zm-.19 1.532c-.427-.647-.701-1.188-2.14-1.188-1.437 0-2.337 1.764-2.025 4.473.312 2.708 3.252 2.708 4.166.995v-4.28h-.001zm-37.584-6.804h2.112c.04 3.462.059 5.348.059 5.659.515-.8 2.008-1.89 3.6-1.396 2.529.782 2.414 2.431 2.529 3.538.076.738.076 2.892 0 6.464h-2.19c.059-2.949.059-5.043 0-6.284.079-2.15-2.595-2.797-3.998-.876l.059 7.16h-2.17V155.98h-.001zm-1.389.923v1.678h-4.124v11.564h-2.289v-11.564h-3.868v-1.678h10.281zm17.099-.133h1.646c-.08.786-.631 2.042-2.904 2.042-2.272 0-3.064-1.426-2.89-2.042l1.61-.023c.13.638.56.957 1.288.957.729 0 1.145-.312 1.25-.934zm-1.856-.322h1.184l1.441-1.724h-1.592l-1.033 1.724z" fill="#FFF" fill-rule="nonzero"/></g></svg>