<svg width="299" height="197" xmlns="http://www.w3.org/2000/svg"><g fill="none" fill-rule="evenodd"><path fill="#F1F2F2" d="M0 0h299v197H0z"/><path d="M1.987 1.98v193.04h295.026V1.98H1.987zM299 0v197H0V0h299z" fill="#C2C2C2" fill-rule="nonzero"/><path d="M2.926 54.113V52.89H296.51v1.223H2.926zm0 20.598v-1.223H296.51v1.223H2.926zm0 20.56v-1.224H296.51v1.224H2.926zm0 41.157v-1.223H296.51v1.223H2.926zm0 20.56v-1.223H296.51v1.223H2.926zm0 20.56v-1.223H296.51v1.223H2.926zM37.772 32.942h1.223v162.126h-1.223V32.942zm37.162 0h1.223v162.126h-1.223V32.942zm37.124 0h1.223v162.126h-1.223V32.942zm37.162 0h1.223v162.126h-1.223V32.942zm37.124 0h1.223v162.126h-1.223V32.942zm37.124 0h1.224v162.126h-1.224V32.942zm37.162 0h1.224v162.126h-1.224V32.942z" fill="#DFDEDE" fill-rule="nonzero"/><path fill="#C2C2C2" fill-rule="nonzero" d="M.805 33.951v-2.447H298.63v2.447z"/><path d="M188.509 147.514h-35.42l-5.454-8.308-5.455 8.308h-35.42c-2.652 0-4.773 2.162-4.773 4.855v25.074c0 2.693 2.16 4.855 4.773 4.855h81.787c2.652 0 4.773-2.162 4.773-4.855v-25.074c0-2.693-2.16-4.855-4.811-4.855z" fill="#E88024"/><g transform="translate(5 93)"><path fill="#2A3052" fill-rule="nonzero" d="M.262 23.411v-1.485h288.35v1.485z"/><path d="M70.147 48.429a1.818 1.818 0 0 1-2.43.253L34.255 24.135a1.818 1.818 0 1 1 2.15-2.932l32.134 23.572 33.52-37.454a1.818 1.818 0 0 1 2.69-.02l31.776 34.444L179.704-.88a1.818 1.818 0 0 1 2.914.506l42.02 87.307 28.114-24.84a1.818 1.818 0 1 1 2.407 2.725l-29.915 26.43a1.818 1.818 0 0 1-2.841-.574L180.446 3.495 137.74 45.653a1.818 1.818 0 0 1-2.613-.06l-31.694-34.357L70.147 48.43z" fill="#2A3052" fill-rule="nonzero"/><ellipse fill="#FFF" opacity=".6" cx="35.33" cy="22.669" rx="8.067" ry="8.496"/><path d="M35.33 32.376c-5.14 0-9.28-4.36-9.28-9.707 0-5.348 4.14-9.708 9.28-9.708 5.139 0 9.279 4.36 9.279 9.708s-4.14 9.707-9.28 9.707zm0-2.423c3.771 0 6.855-3.248 6.855-7.284 0-4.037-3.084-7.284-6.855-7.284-3.772 0-6.856 3.247-6.856 7.284 0 4.036 3.084 7.284 6.856 7.284z" fill="#E88024" fill-rule="nonzero"/><ellipse fill="#FFF" opacity=".6" cx="253.956" cy="62.855" rx="8.067" ry="8.496"/><path d="M253.956 72.563c-5.14 0-9.28-4.36-9.28-9.707 0-5.348 4.14-9.708 9.28-9.708 5.139 0 9.279 4.36 9.279 9.708s-4.14 9.707-9.28 9.707zm0-2.423c3.771 0 6.855-3.248 6.855-7.284 0-4.037-3.084-7.284-6.855-7.284-3.772 0-6.856 3.247-6.856 7.284 0 4.036 3.084 7.284 6.856 7.284z" fill="#E88024" fill-rule="nonzero"/></g><path d="M27.004 146.18c-.034-.17-.034-.306-.034-.477-.239.34-.545.613-.92.852-.374.238-.783.34-1.226.34-.715 0-1.26-.17-1.634-.579a2.077 2.077 0 0 1-.579-1.532c0-.68.273-1.192.818-1.566.544-.375 1.26-.579 2.179-.579h1.362v-.68c0-.41-.137-.75-.375-.988-.238-.239-.613-.375-1.056-.375-.408 0-.749.102-.987.307-.238.204-.374.476-.374.749h-1.192v-.034c-.034-.511.204-.988.715-1.396.51-.409 1.158-.647 1.94-.647.784 0 1.43.204 1.907.613.477.408.715.987.715 1.736v3.37c0 .24 0 .478.034.716s.068.477.137.68h-1.328v.069a19.427 19.427 0 0 0-.102-.579zm-2.061-.408c.442 0 .885-.103 1.225-.341.375-.238.613-.51.715-.817v-1.124h-1.396c-.51 0-.919.136-1.225.375-.284.22-.448.56-.443.92 0 .306.102.544.272.748.205.136.477.239.852.239zm7.192-8.029v1.783h1.391v1h-1.391v4.459c0 .356.071.57.214.713.143.143.321.214.57.214.072 0 .144 0 .25-.036a.516.516 0 0 0 .25-.07l.179.927c-.107.071-.25.142-.428.214a3.122 3.122 0 0 1-.571.071 1.748 1.748 0 0 1-1.285-.5c-.32-.32-.463-.856-.463-1.533v-4.46h-1.142v-.999h1.142v-1.782h1.284v-.001zm-17.906 9.152v-9.741h3.11c1.638 0 3.356.877 3.356 2.373 0 1.497-.93 1.846-1.413 2.142 1.337.348 2.005 1.199 2.005 2.552 0 2.03-1.726 2.674-3.14 2.674h-3.918zm1.342-5.626h1.87c1.137 0 1.869-.537 1.869-1.7 0-1.164-1.14-1.296-1.929-1.296h-1.81v2.996zm.003 1.062v3.5h2.654c.783 0 1.781-.543 1.781-1.75 0-1.207-.992-1.75-1.781-1.75h-2.654zm10.896-5.253c.554.015.553.025.917-.015 0 .587-.45 1.372-1.817 1.372-1.369 0-2.126-.616-2.126-1.372l.999.015c.001.494.377.741 1.127.741.796-.08.752-.24.9-.741zm-1.388-.189h.672l1.041-1.218h-1.04l-.673 1.218zm23.441 9.399c-.035-.175-.035-.314-.035-.489-.245.35-.559.628-.943.873a2.28 2.28 0 0 1-1.257.349c-.733 0-1.291-.175-1.675-.594a2.13 2.13 0 0 1-.594-1.57c0-.699.28-1.222.838-1.606.559-.384 1.292-.594 2.234-.594h1.397v-.698c0-.419-.14-.768-.384-1.013-.245-.244-.629-.384-1.082-.384-.42 0-.769.105-1.013.315-.244.21-.384.488-.384.768h-1.222v-.035c-.035-.524.21-1.013.733-1.432.524-.418 1.187-.663 1.99-.663.803 0 1.466.21 1.955.629.489.418.733 1.012.733 1.78v3.456c0 .245 0 .489.035.733.035.245.07.489.14.698h-1.362v.07a23.04 23.04 0 0 0-.104-.593zm-2.113-.42c.453 0 .907-.104 1.256-.348.384-.245.629-.524.733-.838v-1.152h-1.43c-.525 0-.943.14-1.258.384a1.17 1.17 0 0 0-.454.942c0 .315.105.56.28.769.21.14.489.244.873.244v-.001zm-10.076-2.579c0-1.129.24-2.052.718-2.736.48-.684 1.163-1.026 2.018-1.026.41 0 .787.068 1.095.24.308.136.581.376.82.65v-3.866h1.266v10.158h-1.026l-.137-.855a2.428 2.428 0 0 1-.82.753 2.53 2.53 0 0 1-1.163.24c-.855 0-1.505-.309-1.984-.924-.479-.616-.718-1.437-.718-2.463v-.17h-.069v-.001zm1.249.138c0 .719.136 1.3.444 1.71.308.41.718.65 1.334.65.376 0 .684-.102.958-.273.273-.171.479-.41.615-.719v-3.283a1.792 1.792 0 0 0-.65-.684 1.72 1.72 0 0 0-.923-.274c-.616 0-1.06.24-1.334.753-.273.513-.444 1.163-.444 1.984v.136zm18.74-3.746h1.268v7.174h-1.268v-1.064c-.402.52-1.066 1.355-2.397 1.214-1.33-.14-2.154-1.185-2.16-2.336-.006-1.15.006-5.378 0-4.988h1.257v2.718c0 3.18.7 3.531 1.655 3.531.956 0 1.425-.807 1.645-1.077-.01-1.51-.01-3.235 0-5.172zm210.914 38.055v1.729h1.349v.968h-1.349v4.323c0 .346.07.553.208.692.138.138.311.207.553.207.07 0 .138 0 .242-.034a.494.494 0 0 0 .242-.07l.173.9a2.31 2.31 0 0 1-.415.207 2.99 2.99 0 0 1-.553.07 1.695 1.695 0 0 1-1.245-.485c-.311-.311-.45-.83-.45-1.487v-4.323h-1.106v-.968h1.106v-1.73h1.245v.001zm14.708 1.84h1.236v6.99h-1.236v-1.036c-.392.506-1.038 1.32-2.335 1.183s-2.1-1.154-2.105-2.276c-.006-1.122.006-5.241 0-4.861h1.225v2.648c0 3.099.681 3.441 1.613 3.441.931 0 1.388-.787 1.602-1.049-.01-1.472-.01-3.152 0-5.04zm7.453 2.292c.46-.013.89 0 1.167 0 0-2.052-1.627-2.594-2.935-2.594s-2.935 1.187-2.935 3.732c0 2.546 1.428 3.784 3.2 3.72 1.771-.064 2.67-1.411 2.67-2.402-.518.011-.649.011-1.167 0 0 .936-.842 1.428-1.504 1.428-1.582 0-1.94-1.535-1.94-2.755s.405-2.727 1.817-2.727c1.199 0 1.627.93 1.627 1.598zm-29.037-3.932v1.687h1.315v.944h-1.315v4.217c0 .337.067.54.202.675.135.134.304.202.54.202.067 0 .135 0 .236-.034.101 0 .168-.034.236-.067l.169.877c-.128.08-.264.148-.405.202a2.89 2.89 0 0 1-.54.068 1.653 1.653 0 0 1-1.214-.473c-.304-.303-.439-.81-.439-1.45v-4.217h-1.08v-.944h1.08v-1.687h1.215zm-3.063 5.383h-4.47c0 .83.17 1.43.508 1.8.446.486.914.662 1.557.598 1.122-.112 1.34-.413 1.804-.678l.473.812c-.553.571-1.438.857-2.654.857-1.824 0-2.936-1.512-3.009-3.311-.072-1.8.646-3.888 3.009-3.975 2.003.053 2.93 1.352 2.782 3.897zm-1.255-.99c-.012-1.265-.521-1.898-1.526-1.898-1.004 0-1.553.633-1.647 1.899h3.173v-.001zm-12.178-5.151h1.256v4.17h.757l3.475-4.17h1.43l-3.811 4.48 4.077 4.929h-1.562l-3.481-4.213h-.885v4.213h-1.256v-9.409zm9.247 1.097h-1.277l1.833-1.715h.981l1.931 1.715h-1.359l-1.013-1.038-1.096 1.038zm3.923-2.791l-.867 1.693h.867l1.344-1.692-1.344-.001zm12.972 1.159v10.085h1.235v-5.175c.165-.54.675-.835 1.533-.884 1.285-.074 1.612.797 1.612 1.407v4.652h1.302a551.29 551.29 0 0 1-.064-4.978c0-.765-.742-2.334-2.714-2.07-1.355.352-1.257.61-1.67.989-.027-.292-.027-1.61 0-3.954l-1.234-.072zm10.926.555h-.935l1.198-1.713h1.478l-1.741 1.713z" fill="#2A3052" fill-rule="nonzero"/><path d="M264.192 134.849h1.219l1.047-6.88h-1.248l-1.018 6.88zm2.718-9.985l-.174 1.284h-1.273l.218-1.284h1.229zm-11.982 9.861h1.155l.992-6.52h-1.182l-.965 6.52zm-8.954-6.479h1.157c.246-1.207-.338-3.06-2.953-3-2.615.06-3.45 2.124-3.756 2.843-.307.72-.416 2.398-.52 3.258-.104.861.37 2.94 2.515 3.205 2.144.265 3.96-1.077 4.198-2.987h-1.151c-.207.588-.355 2.272-2.794 2.03-1.327-.132-1.644-1.644-1.53-2.553.115-.91.175-1.911.55-2.953.453-1.259 1.44-1.893 2.417-1.893 1.365 0 1.988.683 1.867 2.05zm26.365 4.872c.072.173.153.358.346.768-1.453 1.107-3.125.956-3.906.498-1.176-.69-1.176-1.97-1.17-2.96.008-1.262.936-3.61 3.52-3.61 2.585 0 2.161 2.79 2.035 3.61-.264 0-1.69.027-4.276.078-.24 3.07 2.08 2.384 3.451 1.616zm-.155-2.469c.15-1.212-.222-1.818-1.117-1.818-1.343 0-1.814 1.423-1.964 1.818h3.081zm-10.532-4.303h1.224l-.25 1.647h1.288l-.126.897h-1.272c-.396 2.56-.61 3.95-.644 4.174-.05.334-.104.951 1.062.723.023.322.038.601.044.837-.462.314-2.627.668-2.331-1.56l.605-4.161-1.047-.013.146-.897h1.048l.253-1.647zm-5.362.538h.848l.106-.385c.672-.196 1.025-.539 1.06-1.029.052-.735-.577-1.107-1.706-1.107l-.15.659c.617-.042.926.107.926.448 0 .512-.826.512-.983.512-.03.178-.063.48-.101.903v-.001zm16.783-.354v.098h-1.006l-.79-.9-1.075.95h-.97v-.148l1.773-1.528h.735l1.333 1.528zm6.356 1.362h1.136l-.935 6.766h-1.111c.045-.481.067-.812.067-.992-.487.778-1.196 1.146-2.128 1.105-1.397-.062-2.263-.897-1.902-2.851l.598-3.995h1.165c-.401 2.641-.602 4.09-.602 4.346 0 .384-.193 1.524.995 1.524s1.73-.558 1.993-1.04c.126-.733.368-2.354.724-4.863zm-30.367-2.943h1.174c-.391 2.25-.587 3.514-.587 3.793.74-.617 1.501-.925 2.284-.925 1.174 0 1.844 1.044 1.844 1.85 0 .537-.224 2.178-.67 4.923h-1.174c.403-2.736.605-4.223.605-4.462 0-.359-.032-1.25-.975-1.386-.943-.137-1.73.567-2.059.924l-.703 4.977h-1.19l1.451-9.694z" fill="#6D6E71" fill-rule="nonzero"/><path d="M173.135 166.026h-2.383v-7.685h2.383v7.685zm0 4.043h-2.383v-2.064h2.383v2.064zm-23.292-9.143h1.906l.096 1.389c.78-1.165 1.793-1.683 3.038-1.554.721.075 2.241.311 2.695 2.358.166.75.13 2.019.118 3.742-.005.67-.005 1.827 0 3.475h-2.092v-5.895c0-.693-.194-1.466-.775-1.76-.799-.402-2.303-.233-2.907.782v6.873h-2.08v-9.41h.001zm-7.392 2.68c-.676-.004-1.353-.004-2.029 0 0-1.018.728-2.864 3.642-2.864 2.915 0 3.614 2.002 3.693 2.433.079.43-.203 6.474.406 7.161l-2.164.003c-.18-.612-.269-1.064-.269-1.357-.337.412-.918 1.166-1.81 1.442-.893.277-2.92.426-3.751-1.52-.547-1.282-.198-2.724.83-3.385 1.7-1.092 4.035-.727 4.731-.727.09-1.947-.491-2.4-1.81-2.4-.88 0-1.37.404-1.47 1.214h.001zm3.279 2.517a35.126 35.126 0 0 0-2.138.018c-.85.075-1.607.703-1.542 1.599.077 1.067 1.29 1.263 2.24.955.797-.259 1.353-.926 1.44-1.21v-1.362zm20.552-4.352l.212-1.197h1.728v9.576c.006 3.337-3.74 4.615-7.184 2.949.197-.985.306-1.535.325-1.652 1.5.501 5.234 1.755 4.758-2.4-2.142 2.196-4.569.866-5.407-.6-.926-1.619-1.53-6.447 1.45-7.75 1.717-.75 3.09-.392 4.118 1.074zm-.18 1.46c-.407-.617-.668-1.132-2.038-1.132-1.369 0-2.226 1.68-1.929 4.26.297 2.579 3.097 2.579 3.967.947v-4.075zm-35.795-6.481h2.012c.037 3.297.056 5.093.056 5.39.49-.763 1.912-1.8 3.43-1.33 2.407.745 2.297 2.316 2.407 3.37.073.702.073 2.754 0 6.156h-2.086c.056-2.808.056-4.803 0-5.985.075-2.048-2.47-2.664-3.807-.834l.056 6.82h-2.068V156.75zm-1.323.88v1.598h-3.928v11.012h-2.18v-11.012h-3.683v-1.598h9.791zm16.285-.128h1.568c-.076.75-.601 1.945-2.766 1.945-2.164 0-2.918-1.358-2.753-1.945l1.535-.021c.123.607.532.91 1.226.91s1.09-.296 1.19-.889zm-1.768-.306h1.128l1.373-1.642h-1.516l-.985 1.642z" fill="#FFF" fill-rule="nonzero"/><path d="M24.247 11.927h-3.42v10.217h-2.424V11.927H15v-1.868h9.247v1.868zm3.52 2.374c.282-.41.628-.73 1.037-.96.41-.229.864-.344 1.362-.344.935 0 1.67.312 2.203.934.534.623.801 1.584.801 2.885v5.328h-2.423v-5.346c0-.697-.124-1.191-.37-1.482-.246-.29-.613-.435-1.1-.435-.332 0-.625.06-.88.178a1.68 1.68 0 0 0-.63.502v6.583h-2.424V9.194h2.424v5.107zm12.5 7.844a5.098 5.098 0 0 1-.228-.648 4.504 4.504 0 0 1-.137-.697 3.34 3.34 0 0 1-.983 1.087c-.407.288-.893.432-1.457.432-.94 0-1.666-.242-2.175-.726-.509-.484-.764-1.144-.764-1.98 0-.88.34-1.562 1.017-2.046.678-.484 1.667-.726 2.968-.726h1.353v-.714c0-.432-.114-.767-.34-1.005-.227-.238-.562-.357-1.005-.357-.393 0-.696.096-.909.287-.213.19-.32.455-.32.792l-2.34-.008-.008-.05c-.04-.758.29-1.412.987-1.963.698-.55 1.613-.826 2.748-.826 1.073 0 1.945.273 2.615.818.67.545 1.004 1.321 1.004 2.328v3.71c0 .421.032.817.095 1.188.064.37.165.739.303 1.104h-2.424zm-2.216-1.619a2.08 2.08 0 0 0 1.138-.315c.332-.21.556-.454.672-.73v-1.27h-1.354c-.515 0-.905.128-1.17.385-.259.241-.404.58-.399.934 0 .299.1.54.299.722.199.183.47.274.813.274h.001zm-.44-10.998h1.993l2.457 2.1-.017.05h-2.175l-1.27-1.188-1.253 1.187h-2.183l-.017-.05 2.465-2.1v.001zM42.551 8h2.24l-1.776 2.25h-1.693L42.55 8h.001zm9.678 9.903c0 1.328-.307 2.396-.921 3.204-.615.808-1.472 1.212-2.574 1.212a2.88 2.88 0 0 1-1.253-.261 2.574 2.574 0 0 1-.938-.768v4.308h-2.416V13.163h2.184l.14 1.063c.266-.393.586-.696.96-.91.373-.212.809-.319 1.307-.319 1.112 0 1.975.435 2.59 1.304.614.868.921 2.011.921 3.428v.174zm-2.424-.174c0-.847-.14-1.533-.423-2.059-.282-.526-.714-.788-1.295-.788-.365 0-.677.074-.934.224a1.6 1.6 0 0 0-.61.639v3.934c.15.255.353.449.61.582.257.132.574.199.95.199.587 0 1.017-.23 1.291-.69.274-.459.411-1.081.411-1.867v-.174zm18.12 4.416H65.51v-5.022h-4.93v5.021h-2.424V10.059h2.424v5.196h4.93v-5.196h2.416v12.085l-.001.001zm1.694-4.574c0-1.34.374-2.436 1.12-3.291.748-.855 1.783-1.283 3.105-1.283.62 0 1.182.101 1.685.303.504.202.941.486 1.312.851.31-.194.545-.48.705-.859.16-.38.241-.834.241-1.365h1.752c0 .807-.166 1.492-.498 2.054a3.005 3.005 0 0 1-1.445 1.25c.16.342.284.712.37 1.107.085.396.128.807.128 1.233v.174c0 1.35-.375 2.45-1.124 3.3-.75.85-1.787 1.274-3.11 1.274-1.327 0-2.366-.425-3.116-1.274-.75-.85-1.125-1.95-1.125-3.3v-.174zm2.416.174c0 .82.144 1.477.431 1.972.288.495.753.743 1.395.743.625 0 1.083-.25 1.374-.747.29-.498.435-1.154.435-1.968v-.174c0-.797-.146-1.447-.44-1.95-.293-.504-.755-.756-1.386-.756-.625 0-1.083.253-1.374.76-.29.506-.435 1.155-.435 1.946v.174zm10.06-4.582l.108 1.287c.299-.46.667-.816 1.104-1.07a2.86 2.86 0 0 1 1.47-.383c.907 0 1.615.285 2.124.855.51.57.764 1.464.764 2.681v5.612h-2.432v-5.603c0-.603-.122-1.03-.365-1.283-.244-.252-.612-.377-1.104-.377a1.774 1.774 0 0 0-1.502.747v6.515h-2.425v-8.982h2.258v.001z" fill="#000" fill-rule="nonzero"/></g></svg>