<svg width="299" height="197" xmlns="http://www.w3.org/2000/svg"><g fill="none" fill-rule="evenodd"><path fill="#F1F2F2" d="M0 0h299v197H0z"/><path d="M1.987 1.98v193.04h295.026V1.98H1.987zM299 0v197H0V0h299z" fill="#C2C2C2" fill-rule="nonzero"/><path d="M4.887 55.446v-1.207h289.656v1.207H4.887zm0 40.534v-1.207h289.656v1.207H4.887zm0 40.534v-1.207h289.656v1.207H4.887zm0 40.496v-1.207h289.656v1.207H4.887zm34.38-142.416h1.206v159.67h-1.206V34.594zm36.664 0h1.207v159.67h-1.207V34.594zm36.628 0h1.207v159.67h-1.207V34.594zm36.665 0h1.207v159.67h-1.207V34.594zm36.627 0h1.207v159.67h-1.207V34.594zm36.628 0h1.207v159.67h-1.207V34.594zM4.887 116.228v-1.207h289.656v1.207H4.887z" fill="#DFDEDE" fill-rule="nonzero"/><path d="M259.144 34.594h1.207v159.67h-1.207V34.594zM4.887 75.731v-1.206h289.656v1.206H4.887zm0 81.03v-1.206h289.656v1.207H4.887z" fill="#2A3052" fill-rule="nonzero"/><path fill="#C2C2C2" fill-rule="nonzero" d="M2.794 34.606V32.19h293.842v2.415z"/><path d="M40.778 117.19a1.81 1.81 0 0 1-1.816-3.132l36.665-21.257a1.81 1.81 0 0 1 2.068.176l32.442 27.072 38.676-26.172a1.81 1.81 0 0 1 2.202.133l35.113 30.513 35.473-50.437a1.81 1.81 0 1 1 2.962 2.083l-36.627 52.078a1.81 1.81 0 0 1-2.669.325L149.69 97.655l-38.652 26.156a1.81 1.81 0 0 1-2.175-.11L76.347 96.57l-35.569 20.622z" fill="#2A3052" fill-rule="nonzero"/><path d="M187.987 146.445h-34.945l-5.382-8.181-5.382 8.181h-34.946a4.733 4.733 0 0 0-4.71 4.782v24.694a4.753 4.753 0 0 0 4.71 4.782h80.692a4.733 4.733 0 0 0 4.71-4.782v-24.694a4.758 4.758 0 0 0-4.747-4.782z" fill="#E88024"/><ellipse cx="9.045" cy="8.618" rx="8.11" ry="8.443" opacity=".6" transform="translate(214.037 66.51)" fill="#FFF"/><path d="M223.082 84.778c-5.157 0-9.317-4.331-9.317-9.65s4.16-9.65 9.317-9.65 9.318 4.331 9.318 9.65-4.16 9.65-9.318 9.65zm0-2.414c3.802 0 6.904-3.23 6.904-7.236 0-4.007-3.102-7.236-6.904-7.236-3.801 0-6.903 3.229-6.903 7.236s3.102 7.236 6.903 7.236z" fill="#E88024" fill-rule="nonzero"/><ellipse cx="8.97" cy="9.021" rx="8.11" ry="8.443" opacity=".6" transform="translate(30.9 106.604)" fill="#FFF"/><path d="M39.87 125.275c-5.157 0-9.317-4.332-9.317-9.65 0-5.32 4.16-9.65 9.317-9.65s9.317 4.33 9.317 9.65c0 5.318-4.16 9.65-9.317 9.65zm0-2.414c3.802 0 6.903-3.23 6.903-7.236 0-4.007-3.101-7.236-6.903-7.236-3.802 0-6.903 3.229-6.903 7.236 0 4.006 3.101 7.236 6.903 7.236z" fill="#E88024" fill-rule="nonzero"/><path d="M17.146 18.188v4.277H15v-10.7h3.704c1.22 0 2.174.278 2.862.834.689.556 1.033 1.331 1.033 2.326 0 .549-.146 1.023-.437 1.422-.292.4-.717.721-1.275.966.632.187 1.086.498 1.363.934.277.436.415.975.415 1.617v.786c0 .299.04.611.122.937.08.326.219.567.415.724v.154H20.99c-.196-.156-.323-.416-.379-.779a6.844 6.844 0 0 1-.084-1.05v-.758c0-.534-.146-.949-.438-1.245-.291-.297-.704-.445-1.238-.445h-1.705zm0-1.654h1.521c.603 0 1.051-.127 1.345-.382.294-.255.441-.632.441-1.132 0-.49-.148-.88-.445-1.168-.296-.29-.73-.434-1.304-.434h-1.558v3.116zm11.972 5.931a4.514 4.514 0 0 1-.202-.573 3.988 3.988 0 0 1-.121-.617c-.22.387-.512.708-.875.963-.362.254-.794.382-1.293.382-.833 0-1.475-.215-1.926-.643-.45-.429-.676-1.013-.676-1.753 0-.78.3-1.383.9-1.812.6-.429 1.476-.643 2.628-.643h1.205v-.632c0-.382-.1-.679-.301-.89-.201-.21-.5-.315-.897-.315-.348 0-.616.084-.805.253-.188.17-.283.4-.283.695h-2.065l-.015-.044c-.034-.672.259-1.251.879-1.738.62-.488 1.43-.732 2.429-.732.955 0 1.728.24 2.318.72.59.48.886 1.17.886 2.066v3.285c0 .372.028.723.085 1.05.056.33.145.655.268.978h-2.139zm-1.962-1.433c.372 0 .705-.093 1-.279.293-.186.494-.402.602-.647v-1.124h-1.205c-.456 0-.8.112-1.033.338a1.109 1.109 0 0 0-.349.83c0 .27.087.484.26.643.175.16.416.24.725.24v-.001zm17.918 1.433h-2.146l-4.314-7.217-.044.008v7.21h-2.147V11.763h2.146l4.314 7.21.044-.007v-7.203h2.146v10.701l.001.001zm1.492-3.91c0-1.254.272-2.266.816-3.035.544-.77 1.308-1.154 2.293-1.154.446 0 .838.1 1.176.302.338.2.627.487.867.86l.17-1.015h1.844v7.916c0 1.034-.338 1.833-1.014 2.4-.677.565-1.62.848-2.83.848a5.39 5.39 0 0 1-1.279-.165 5.968 5.968 0 0 1-1.25-.452l.36-1.602c.33.156.668.275 1.019.356.35.08.729.121 1.135.121.588 0 1.02-.122 1.298-.367.276-.245.415-.627.415-1.147v-.72a2.4 2.4 0 0 1-.83.684 2.448 2.448 0 0 1-1.096.235c-.975 0-1.734-.358-2.278-1.073-.544-.716-.816-1.661-.816-2.837v-.155zm2.146.155c0 .696.116 1.243.35 1.642.232.4.613.6 1.142.6.328 0 .606-.06.834-.18.228-.12.41-.296.548-.526v-3.447a1.467 1.467 0 0 0-.548-.566 1.605 1.605 0 0 0-.82-.198c-.524 0-.906.232-1.146.698-.24.465-.36 1.073-.36 1.822v.155zm6.335-.294c0-1.186.331-2.157.993-2.914.661-.757 1.577-1.136 2.748-1.136 1.176 0 2.097.377 2.764 1.132.666.755 1 1.727 1 2.918v.154c0 1.196-.333 2.17-.997 2.922-.663.752-1.58 1.128-2.752 1.128-1.176 0-2.096-.376-2.76-1.128-.664-.752-.996-1.726-.996-2.922v-.154zm2.14.154c0 .725.127 1.307.381 1.746.255.438.667.657 1.235.657.554 0 .96-.22 1.216-.661.258-.441.386-1.022.386-1.742v-.154c0-.706-.13-1.281-.39-1.727-.259-.446-.668-.67-1.227-.67-.553 0-.959.225-1.216.673-.257.449-.386 1.023-.386 1.724v.154h.001zm11.376 3.895a4.514 4.514 0 0 1-.202-.573 3.988 3.988 0 0 1-.121-.617c-.22.387-.512.708-.875.963-.362.254-.793.382-1.293.382-.833 0-1.475-.215-1.926-.643-.45-.429-.676-1.013-.676-1.753 0-.78.3-1.383.9-1.812.6-.429 1.476-.643 2.628-.643h1.205v-.632c0-.382-.1-.679-.301-.89-.201-.21-.5-.315-.897-.315-.348 0-.616.084-.805.253-.188.17-.283.4-.283.695h-2.064l-.015-.044c-.034-.672.259-1.251.879-1.738.62-.488 1.43-.732 2.429-.732.955 0 1.728.24 2.319.72.59.48.885 1.17.885 2.066v3.285c0 .372.028.723.085 1.05.056.33.145.655.268.978h-2.14zm-1.962-1.433c.372 0 .705-.093 1-.279.293-.186.494-.402.602-.647v-1.124h-1.205c-.456 0-.8.112-1.033.338a1.109 1.109 0 0 0-.349.83c0 .27.087.484.261.643.174.16.415.24.724.24v-.001zm1.492-7.96h-1.845l-1.999-1.91.015-.044h2.388l1.44 1.955.001-.001zm6.122 9.393h-2.146v-7.952h2.146v7.952zm0-9.855h-2.146V11h2.146v1.61z" fill="#020202" fill-rule="nonzero"/><path d="M275.648 104.771v1.113h.868v.623h-.868v2.781c0 .223.045.356.134.445a.47.47 0 0 0 .356.134c.044 0 .089 0 .156-.022a.322.322 0 0 0 .155-.045l.112.579a1.482 1.482 0 0 1-.267.133 1.948 1.948 0 0 1-.356.045 1.09 1.09 0 0 1-.802-.312c-.2-.2-.289-.534-.289-.957v-2.781h-.712v-.623h.712v-1.113h.801zm9.464 1.184h.795v4.498h-.795v-.667c-.252.326-.668.85-1.503.761-.834-.088-1.35-.742-1.354-1.464-.004-.722.003-3.372 0-3.128h.788v1.704c0 1.994.438 2.214 1.038 2.214.6 0 .893-.506 1.031-.675-.007-.947-.007-2.028 0-3.243zm4.795 1.475c.296-.008.573 0 .751 0 0-1.32-1.047-1.669-1.888-1.669-.842 0-1.889.763-1.889 2.401s.919 2.435 2.059 2.394c1.14-.041 1.718-.908 1.718-1.546-.333.007-.417.007-.75 0 0 .603-.543.92-.968.92-1.018 0-1.249-.988-1.249-1.774 0-.785.26-1.754 1.17-1.754.77 0 1.046.598 1.046 1.028zm-18.684-2.53v1.085h.847v.608h-.846v2.713c0 .217.043.347.13.434.087.087.195.13.347.13.044 0 .087 0 .152-.021a.314.314 0 0 0 .152-.044l.108.565c-.082.052-.17.096-.26.13a1.9 1.9 0 0 1-.347.043c-.291.01-.574-.1-.782-.304-.195-.195-.282-.52-.282-.933v-2.713h-.694v-.608h.694V104.9h.782-.001zm-1.97 3.464h-2.876c0 .533.11.92.327 1.157.286.313.588.427 1.002.385.722-.072.861-.265 1.16-.436l.305.523c-.356.367-.925.55-1.708.55-1.174 0-1.89-.972-1.936-2.13-.047-1.157.416-2.5 1.936-2.557 1.289.034 1.885.87 1.79 2.508zm-.807-.637c-.008-.815-.336-1.222-.982-1.222-.646 0-1 .407-1.06 1.222h2.042zm-7.836-3.315h.808v2.683h.487l2.236-2.683h.92l-2.452 2.883 2.623 3.171h-1.005l-2.24-2.71h-.57v2.71h-.807v-6.054zm5.95.707h-.822l1.18-1.104h.63l1.243 1.103h-.874l-.652-.668-.705.669zm2.523-1.796l-.557 1.088h.558l.864-1.088h-.865zm8.347.745v6.49h.795v-3.33c.106-.348.435-.538.986-.57.827-.047 1.038.513 1.038.906v2.993h.837a359.85 359.85 0 0 1-.04-3.203c0-.492-.478-1.502-1.747-1.331-.872.225-.809.392-1.074.635-.018-.188-.018-1.036 0-2.543l-.795-.047zm7.031.357h-.602l.77-1.102h.952l-1.12 1.102z" fill="#2A3052" fill-rule="nonzero"/><path d="M20.287 168.505l.027.004 2.93-5.405h1.12l-.996 6.647h-.9l.745-4.976-.028-.01-2.757 4.986h-.625l-1.301-5.15h-.028l-.771 5.15h-.9l.996-6.647h1.182l1.306 5.4v.001zm7.71 1.246l.05-.708a1.875 1.875 0 0 1-1.566.804c-.52 0-.91-.175-1.168-.523-.259-.349-.334-.882-.224-1.6l.434-2.913h.899l-.438 2.922c-.082.545-.061.911.064 1.1.124.189.354.283.689.283.313 0 .586-.068.817-.203a1.58 1.58 0 0 0 .566-.573l.525-3.529h.9l-.74 4.94h-.808zm-1.237 1.538h-.995l.137-.913h.995l-.137.913zm5.41-2.145c.264 0 .516-.093.755-.279.239-.186.38-.41.422-.675h.813l.009.027c-.055.444-.293.827-.715 1.148a2.243 2.243 0 0 1-1.39.482c-.663 0-1.155-.239-1.476-.715-.322-.476-.43-1.061-.327-1.755l.027-.192c.11-.721.387-1.312.831-1.773.445-.461 1.015-.692 1.712-.692.533 0 .954.172 1.265.516.31.344.421.762.333 1.255l-.01.023h-.82c.045-.313-.013-.573-.174-.778-.162-.206-.394-.308-.699-.308-.423 0-.767.174-1.031.522a2.64 2.64 0 0 0-.503 1.235l-.027.192c-.08.511-.044.933.105 1.267.15.333.449.5.9.5zm7.33-5.524l-.177 1.191h.935l-.1.667h-.936l-.447 3c-.037.24-.015.405.066.494.08.09.202.135.363.135a1.21 1.21 0 0 0 .342-.064l.032.616a.954.954 0 0 1-.317.135 1.575 1.575 0 0 1-.395.053c-.353 0-.625-.111-.815-.334-.19-.222-.249-.567-.176-1.036l.448-3h-.785l.1-.666h.785l.178-1.191h.9-.001zm1.954 6.13h-.899l.74-4.939h.899l-.74 4.94v-.001zm.932-6.203h-.9l.137-.918h.9l-.137.918zm2.483 6.3c-.682 0-1.194-.23-1.536-.69-.342-.46-.459-1.053-.35-1.78l.033-.2c.106-.737.396-1.33.87-1.781.472-.45 1.009-.676 1.608-.676.636 0 1.094.209 1.374.626.28.416.37.96.27 1.63l-.069.474h-3.195c-.07.523-.018.937.155 1.24.174.302.489.454.945.454.292 0 .564-.045.815-.133.236-.08.456-.2.65-.356l.265.584c-.2.17-.455.315-.762.432a3.003 3.003 0 0 1-1.073.176zm.52-4.42c-.3 0-.574.122-.819.366a2.08 2.08 0 0 0-.527.922l.009.027h2.223l.01-.073c.054-.368.011-.667-.129-.897-.14-.23-.395-.344-.767-.344v-.001zm1.557-1.634l-.018.115h-.735l-.57-.676-.768.676h-.73l.018-.12 1.283-1.081h.548l.972 1.086zm3.98 5.958l.05-.708c-.18.25-.415.454-.686.598-.272.14-.574.21-.879.206-.52 0-.91-.175-1.168-.523-.26-.349-.334-.882-.224-1.6l.434-2.913h.899l-.438 2.922c-.083.545-.061.911.063 1.1.125.189.355.283.69.283.313 0 .586-.068.817-.203a1.58 1.58 0 0 0 .566-.573l.525-3.529h.9l-.74 4.94h-.809zm6.61-6.131l-.177 1.191h.936l-.1.667h-.937l-.447 3c-.037.24-.014.405.066.494.08.09.202.135.363.135a1.21 1.21 0 0 0 .342-.064l.032.616a.954.954 0 0 1-.317.135 1.575 1.575 0 0 1-.395.053c-.353 0-.624-.111-.815-.334-.19-.222-.248-.567-.175-1.036l.447-3h-.785l.1-.666h.785l.178-1.191h.9-.001zm2.525 1.826c.207-.231.443-.41.708-.536.265-.127.55-.19.853-.19.509 0 .89.16 1.144.48.254.319.334.804.24 1.456l-.466 3.095h-.9l.466-3.104c.064-.42.023-.725-.123-.913-.146-.19-.394-.283-.744-.283-.259 0-.497.054-.714.164a1.63 1.63 0 0 0-.555.456l-.552 3.68h-.9l1.068-7.122h.9l-.425 2.817zm6.807 4.305c-.006-.17-.01-.308-.01-.413 0-.105.007-.213.019-.322a2.67 2.67 0 0 1-.747.59 1.86 1.86 0 0 1-.901.24c-.496 0-.864-.133-1.103-.399s-.323-.628-.253-1.084c.07-.487.313-.86.73-1.118.417-.26.957-.388 1.62-.388h.978l.073-.489c.046-.301-.007-.533-.158-.696-.15-.163-.388-.244-.714-.244-.277 0-.52.073-.73.219-.21.146-.33.32-.357.525l-.858.009-.004-.027c.036-.375.254-.707.653-.998.398-.29.882-.436 1.451-.436.539 0 .962.144 1.27.432.307.287.422.696.346 1.225l-.356 2.379c-.03.185-.048.358-.052.518-.005.16.005.318.03.477h-.927zm-1.393-.658c.31 0 .612-.085.904-.255.292-.17.495-.362.607-.575l.124-.8H66.1c-.35 0-.65.094-.903.28-.253.185-.396.398-.43.638-.036.228.005.404.122.528.117.123.312.184.586.184zm.9-6.363h.72l1.142 1.173-.014.027h-.903l-.658-.716-.867.716h-.904l-.01-.027 1.494-1.173zm2.478-.79h.927l.014.027-1.087 1.16h-.67l.816-1.187zM20.311 68.476l.028.005 2.952-5.443h1.126l-1.002 6.694h-.906l.75-5.012-.028-.009-2.777 5.02h-.63l-1.31-5.185h-.028l-.777 5.186h-.905l1.002-6.694h1.19l1.315 5.438zm7.765 1.256l.051-.713c-.182.25-.418.457-.692.602-.265.138-.56.207-.885.207-.524 0-.916-.175-1.177-.526-.26-.351-.335-.888-.225-1.612l.437-2.933h.905l-.441 2.943c-.083.548-.061.917.064 1.107.126.19.357.286.695.286a1.6 1.6 0 0 0 .823-.205c.232-.136.422-.329.57-.577l.528-3.554h.906l-.745 4.975h-.814zm-1.245 1.549h-1.003l.138-.92h1.002l-.137.92zm5.447-2.16c.267 0 .52-.094.761-.281.241-.187.383-.414.426-.68h.818l.01.027c-.056.447-.296.833-.72 1.156a2.258 2.258 0 0 1-1.4.485c-.668 0-1.164-.24-1.488-.72-.323-.48-.432-1.068-.328-1.767l.027-.193c.11-.727.39-1.322.837-1.786.448-.465 1.022-.697 1.724-.697.536 0 .961.173 1.274.52.312.346.424.767.335 1.264l-.009.023h-.828c.046-.316-.012-.577-.174-.784-.163-.207-.397-.31-.704-.31-.426 0-.772.175-1.039.526a2.661 2.661 0 0 0-.505 1.244l-.028.193c-.08.515-.044.94.106 1.276.15.335.452.503.905.503v.001zm7.384-5.564l-.18 1.2h.943l-.101.671h-.942l-.451 3.02c-.037.243-.015.41.067.5.08.09.203.135.365.135a1.23 1.23 0 0 0 .345-.064l.032.62a.961.961 0 0 1-.32.136c-.13.034-.263.052-.397.053-.356 0-.63-.112-.82-.336-.192-.223-.251-.571-.178-1.043l.45-3.02h-.79l.101-.672h.791l.18-1.2h.905zm1.968 6.175h-.906l.745-4.975h.905l-.744 4.975zm.938-6.248h-.906l.138-.924h.905l-.137.924zm2.5 6.344c-.686 0-1.202-.231-1.547-.694-.344-.463-.462-1.06-.351-1.793l.032-.202c.107-.742.4-1.34.876-1.793.476-.454 1.017-.68 1.62-.68.64 0 1.102.21 1.384.63.282.419.373.966.271 1.64l-.069.478h-3.218c-.07.528-.018.944.157 1.249.174.305.492.457.951.457.294 0 .568-.044.82-.133.254-.09.472-.209.656-.359l.267.589a2.63 2.63 0 0 1-.768.434c-.31.118-.67.177-1.08.177h-.001zm.525-4.45c-.304 0-.579.122-.826.368a2.095 2.095 0 0 0-.53.928l.009.028h2.239l.009-.074c.055-.37.012-.672-.129-.903-.141-.231-.398-.347-.772-.347zm1.567-1.646l-.018.115h-.74l-.575-.68-.772.68h-.736l.019-.12 1.291-1.09h.552l.98 1.095h-.001zm4.01 6l.05-.713c-.182.25-.418.457-.692.602-.265.138-.56.207-.885.207-.524 0-.916-.175-1.177-.526-.26-.351-.336-.888-.225-1.612l.436-2.933h.906l-.441 2.943c-.083.548-.061.917.064 1.107.126.19.357.286.694.286a1.6 1.6 0 0 0 .823-.205c.233-.136.423-.329.57-.577l.53-3.554h.905l-.745 4.975h-.814.001zm6.541-.612c.267 0 .52-.093.761-.28.24-.187.383-.414.426-.68h.818l.01.027c-.056.447-.296.833-.72 1.156a2.258 2.258 0 0 1-1.4.485c-.668 0-1.164-.24-1.488-.72-.323-.48-.433-1.068-.328-1.767l.027-.193c.11-.727.39-1.322.837-1.786.447-.465 1.022-.697 1.724-.697.536 0 .96.173 1.274.52.312.346.424.767.335 1.264l-.01.023h-.827c.046-.316-.012-.577-.174-.784-.163-.207-.397-.31-.704-.31-.426 0-.772.175-1.039.526a2.661 2.661 0 0 0-.505 1.244l-.028.193c-.08.515-.044.94.106 1.276.15.335.452.503.905.503zm5.917.612c-.006-.172-.009-.31-.009-.417 0-.105.006-.213.018-.324a2.686 2.686 0 0 1-.751.596 1.89 1.89 0 0 1-.908.241c-.5 0-.87-.134-1.11-.402-.241-.268-.326-.632-.256-1.092.07-.49.316-.866.736-1.126.42-.26.964-.391 1.632-.391h.984l.073-.492c.046-.304-.006-.537-.158-.701-.152-.164-.392-.246-.72-.246-.279 0-.524.073-.735.22-.212.148-.331.324-.359.53l-.864.008-.005-.027c.037-.377.256-.712.658-1.005.401-.292.889-.439 1.462-.439.542 0 .968.145 1.278.435.31.29.426.7.35 1.234l-.36 2.395c-.03.187-.048.361-.052.522a2.57 2.57 0 0 0 .03.48h-.934v.001zm-1.402-.662c.313 0 .616-.086.91-.258.295-.172.498-.365.612-.58l.124-.804h-1.016c-.353 0-.656.094-.91.28-.255.188-.399.402-.433.644-.036.23.004.407.122.531.118.124.315.187.591.187zm3.692-1.872c.113-.763.402-1.376.866-1.839.465-.462 1.042-.694 1.731-.694.662 0 1.164.24 1.506.72.342.48.459 1.084.352 1.813l-.019.102c-.116.769-.406 1.383-.869 1.84-.462.459-1.04.688-1.733.688-.662 0-1.164-.239-1.505-.717-.342-.478-.458-1.082-.348-1.811l.019-.102zm.887.102c-.083.545-.038.985.133 1.319.172.334.479.501.92.501.414 0 .762-.174 1.046-.522.283-.348.465-.78.545-1.298l.018-.102c.08-.54.033-.977-.14-1.314-.173-.338-.48-.506-.917-.506-.417 0-.767.175-1.05.526-.284.351-.463.783-.537 1.294l-.018.102z" fill="#6D6E71" fill-rule="nonzero"/><g fill="#2A3052" fill-rule="nonzero"><path d="M29.727 140.037c-.029-.146-.029-.263-.029-.41-.212.294-.48.543-.79.732-.315.198-.682.3-1.054.293-.615 0-1.084-.146-1.406-.498a1.786 1.786 0 0 1-.497-1.317c0-.586.234-1.025.702-1.347.469-.322 1.083-.498 1.874-.498h1.171v-.585c0-.352-.117-.644-.322-.85-.205-.204-.527-.321-.908-.321-.35 0-.644.088-.849.263a.863.863 0 0 0-.322.644h-1.024v-.029c-.03-.44.175-.849.614-1.2.44-.352.996-.557 1.67-.557.673 0 1.229.176 1.639.527.41.352.615.85.615 1.494v2.898c0 .205 0 .41.029.615.03.205.058.41.117.585h-1.142v.059c-.03-.176-.058-.351-.088-.498zm-1.772-.351c.38 0 .761-.088 1.054-.293.322-.205.527-.44.615-.703v-.966h-1.2c-.44 0-.79.117-1.054.322a.982.982 0 0 0-.381.79c0 .264.088.47.234.645.176.117.41.205.732.205zm6.185-6.904v1.534h1.196v.859H34.14v3.834c0 .307.061.491.184.614.122.122.276.184.49.184.062 0 .123 0 .215-.03.092 0 .154-.032.215-.062l.153.797a2.04 2.04 0 0 1-.368.184 2.65 2.65 0 0 1-.49.062 1.503 1.503 0 0 1-1.105-.43c-.276-.276-.399-.736-.399-1.319v-3.834h-.981v-.86h.981v-1.533h1.105z"/><path d="M18.743 140.652v-8.377h2.674c1.408 0 2.886.755 2.886 2.042 0 1.286-.8 1.587-1.215 1.841 1.15.3 1.724 1.03 1.724 2.194 0 1.746-1.485 2.3-2.7 2.3h-3.37.001zm1.154-4.838h1.607c.979 0 1.607-.462 1.607-1.462s-.979-1.114-1.658-1.114h-1.556v2.576zm.002.913v3.01h2.282c.673 0 1.532-.467 1.532-1.505 0-1.038-.853-1.505-1.532-1.505h-2.282z" stroke="#979797" stroke-width=".5"/><path d="M29.269 132.21c.476.014.475.022.788-.012 0 .504-.386 1.18-1.563 1.18-1.176 0-1.828-.53-1.828-1.18l.86.012c0 .425.323.638.968.638.685-.069.648-.207.775-.638zm-1.194-.162h.578l.895-1.047h-.895l-.578 1.047zm20.156 8.081c-.03-.15-.03-.27-.03-.42-.21.3-.48.54-.81.751-.33.21-.69.3-1.081.3-.63 0-1.11-.15-1.441-.51a1.831 1.831 0 0 1-.51-1.351c0-.6.24-1.05.72-1.38.48-.331 1.11-.511 1.921-.511h1.201v-.6c0-.36-.12-.661-.33-.871-.21-.21-.54-.33-.93-.33-.361 0-.661.09-.871.27-.21.18-.33.42-.33.66h-1.051v-.03c-.03-.45.18-.87.63-1.23s1.02-.57 1.711-.57c.69 0 1.261.18 1.681.54.42.36.63.87.63 1.53v2.972c0 .21 0 .42.03.63.03.21.06.421.12.601h-1.17v.06c-.03-.18-.06-.36-.09-.51v-.001zm-1.817-.36c.39 0 .78-.09 1.08-.3.33-.21.541-.45.631-.72v-.99h-1.23c-.45 0-.811.12-1.081.33-.27.21-.39.51-.39.81 0 .27.09.48.24.66.18.12.42.21.75.21zm-8.663-2.218c0-.97.205-1.764.617-2.352.412-.589 1-.883 1.735-.883.353 0 .677.06.941.206.265.118.5.324.706.559v-3.323h1.088v8.734h-.882l-.118-.735a2.088 2.088 0 0 1-.705.647 2.176 2.176 0 0 1-1 .206c-.736 0-1.294-.265-1.706-.794-.412-.53-.618-1.235-.618-2.118v-.147h-.058zm1.073.12c0 .617.118 1.117.382 1.47.265.353.618.558 1.147.558.324 0 .588-.088.824-.235a1.36 1.36 0 0 0 .53-.617v-2.824a1.541 1.541 0 0 0-.56-.588 1.48 1.48 0 0 0-.794-.235c-.53 0-.911.206-1.147.647-.235.44-.382 1-.382 1.706v.118zm16.114-3.222h1.09v6.169h-1.09v-.916c-.346.447-.916 1.166-2.06 1.045-1.145-.121-1.853-1.02-1.858-2.009-.005-.99.005-4.625 0-4.29h1.08v2.338c0 2.734.602 3.036 1.424 3.036s1.225-.694 1.414-.926a364.984 364.984 0 0 1 0-4.448v.001z"/><path d="M43.947 132.725v.813h-3.628v-.813h3.628zm1.161-.346h-.785l-1.139-1.442h1.139l.785 1.442zm.828 1.046h-1.12l1.605-1.514h.887l1.683 1.514h-1.177l-.91-.888-.968.888z"/></g><path d="M174.836 165.804h-2.503v-8.07h2.503v8.07zm0 4.245h-2.503v-2.168h2.503v2.168zm-24.457-9.6h2.001l.1 1.458c.82-1.223 1.884-1.767 3.192-1.631.756.078 2.353.326 2.829 2.475.174.788.137 2.12.124 3.93a421.953 421.953 0 0 0 0 3.648h-2.197v-6.19c0-.727-.203-1.54-.813-1.847-.84-.423-2.419-.245-3.052.82v7.217h-2.184v-9.88zm-7.762 2.813a151.15 151.15 0 0 0-2.13 0c0-1.068.765-3.007 3.825-3.007s3.794 2.103 3.877 2.555c.083.452-.214 6.798.427 7.52l-2.274.002c-.187-.643-.281-1.117-.281-1.425-.355.433-.965 1.224-1.902 1.515-.937.29-3.066.446-3.938-1.596-.574-1.347-.208-2.861.872-3.555 1.784-1.146 4.236-.763 4.968-.763.094-2.044-.516-2.52-1.902-2.52-.924 0-1.438.425-1.542 1.274zm3.443 2.644a36.882 36.882 0 0 0-2.245.019c-.892.078-1.686.738-1.619 1.678.081 1.12 1.355 1.326 2.353 1.003.837-.271 1.42-.972 1.511-1.27v-1.43zm21.58-4.57l.223-1.257h1.814v10.055c.007 3.504-3.928 4.846-7.543 3.096.207-1.034.32-1.612.341-1.734 1.576.526 5.496 1.843 4.997-2.52-2.25 2.306-4.798.909-5.679-.63-.972-1.7-1.605-6.77 1.523-8.137 1.803-.788 3.244-.412 4.324 1.127zm-.188 1.532c-.429-.647-.703-1.188-2.14-1.188-1.438 0-2.338 1.764-2.026 4.473.312 2.708 3.251 2.708 4.166.995v-4.28zm-37.585-6.804h2.112c.039 3.462.058 5.348.058 5.658.515-.8 2.008-1.888 3.601-1.395 2.528.782 2.413 2.431 2.528 3.538.077.738.077 2.892 0 6.464h-2.19c.06-2.949.06-5.043 0-6.284.08-2.15-2.594-2.797-3.997-.876l.058 7.16h-2.17v-14.265zm-1.39.923v1.678h-4.124v11.564h-2.288v-11.564h-3.868v-1.678h10.28zm17.099-.133h1.647c-.08.786-.631 2.042-2.904 2.042-2.273 0-3.064-1.426-2.891-2.042l1.611-.023c.13.638.56.957 1.288.957.729 0 1.145-.312 1.25-.934h-.001zm-1.856-.322h1.185l1.441-1.724h-1.592l-1.034 1.724z" fill="#FFF" fill-rule="nonzero"/></g></svg>