<svg width="299" height="197" xmlns="http://www.w3.org/2000/svg"><g fill="none"><path fill="#F1F2F2" d="M299 0v197H0V0z"/><path d="M2 2v193h295V2H2zM0 0h299v197H0V0z" fill="#C2C2C2"/><path d="M4 53.022v-1.21h290v1.21H4zm0 40.873v-1.21h290v1.21H4zm0 40.87v-1.21h290v1.21H4zm0 40.834v-1.21h290v1.21H4zM38.42 32h1.209v161H38.42V32h-.001zm36.71 0h1.208v161H75.13V32zm36.672 0h1.208v161h-1.208V32zm36.707 0h1.208v161h-1.208V32zm36.67 0h1.21v161h-1.21V32zm36.672 0h1.208v161h-1.208V32zM4 114.311v-1.21h290v1.21H4z" fill="#DFDEDE"/><path fill="#C2C2C2" d="M2 30v-2h296v2z"/><path fill="#15212D" d="M1.448 164.412v-1.148H296v1.148z"/><path d="M135.16 109.248L89.836 145.12a1.841 1.841 0 0 1-2.101.128l-50.67-30.895a1.841 1.841 0 0 1 1.917-3.144l49.574 30.227 45.623-36.108a1.841 1.841 0 0 1 2.464.162l48.058 49.505 59.785-86.125a1.841 1.841 0 1 1 3.024 2.1l-61.06 87.962a1.841 1.841 0 0 1-2.833.232l-48.457-49.916z" fill="#2A3052"/><ellipse fill="#FFF" opacity=".6" cx="185.376" cy="158.21" rx="8.247" ry="8.633"/><path d="M185.376 168.07c-5.245 0-9.475-4.426-9.475-9.86 0-5.434 4.23-9.86 9.475-9.86 5.245 0 9.475 4.426 9.475 9.86 0 5.434-4.23 9.86-9.475 9.86zm0-2.454c3.864 0 7.02-3.304 7.02-7.406s-3.156-7.406-7.02-7.406c-3.864 0-7.02 3.304-7.02 7.406s3.156 7.405 7.02 7.405z" fill="#E88024"/><path d="M24.39 18.652c-.396.474-.955.841-1.678 1.103-.722.26-1.523.391-2.402.391-.923 0-1.732-.2-2.428-.604-.696-.403-1.233-.987-1.611-1.754-.379-.767-.573-1.667-.583-2.703v-.725c0-1.064.18-1.986.539-2.765.359-.778.876-1.374 1.553-1.787.676-.412 1.468-.619 2.376-.619 1.265 0 2.254.302 2.967.905.712.603 1.135 1.48 1.267 2.633h-2.14c-.098-.61-.314-1.057-.648-1.34-.335-.283-.795-.425-1.38-.425-.748 0-1.317.28-1.707.842-.391.562-.589 1.397-.594 2.505v.681c0 1.118.213 1.963.638 2.534.424.572 1.047.857 1.867.857.825 0 1.414-.175 1.765-.527v-1.838h-2v-1.619h4.198v4.255zM28.264 20H26.14v-7.925h2.124V20zm-2.248-9.976c0-.317.106-.578.318-.783.213-.205.502-.308.868-.308.361 0 .65.103.864.308.215.205.323.466.323.783 0 .323-.109.586-.326.791-.218.206-.504.308-.86.308-.357 0-.644-.102-.861-.308a1.04 1.04 0 0 1-.326-.79zM34.6 20a2.35 2.35 0 0 1-.213-.71c-.512.57-1.179.856-2 .856-.776 0-1.419-.224-1.93-.673a2.167 2.167 0 0 1-.765-1.7c0-.84.312-1.484.934-1.933.623-.45 1.522-.676 2.7-.681h.973v-.454c0-.367-.094-.66-.282-.88-.188-.219-.484-.329-.89-.329-.356 0-.636.086-.838.256-.203.171-.304.406-.304.704h-2.117c0-.46.142-.884.425-1.275.283-.39.684-.697 1.201-.919.518-.222 1.099-.333 1.743-.333.977 0 1.752.245 2.326.736.573.49.86 1.18.86 2.069v3.435c.005.752.11 1.32.315 1.706V20H34.6zm-1.75-1.472c.312 0 .6-.07.863-.209.264-.14.46-.326.586-.56v-1.363h-.79c-1.06 0-1.624.367-1.693 1.1l-.007.124c0 .263.093.48.278.651.186.171.44.257.762.257zm4.87-2.564c0-.786.151-1.486.454-2.102a3.324 3.324 0 0 1 1.307-1.428c.57-.337 1.23-.505 1.981-.505 1.07 0 1.943.327 2.619.981.676.654 1.053 1.543 1.131 2.666l.015.542c0 1.216-.34 2.191-1.018 2.926-.679.735-1.59 1.102-2.732 1.102-1.143 0-2.054-.366-2.736-1.098-.68-.733-1.021-1.729-1.021-2.988v-.096zm2.116.154c0 .752.142 1.327.425 1.725.283.398.689.597 1.216.597.513 0 .913-.197 1.201-.59.288-.393.432-1.021.432-1.886 0-.737-.144-1.308-.432-1.714-.288-.405-.693-.607-1.216-.607-.517 0-.918.201-1.2.604-.284.403-.426 1.026-.426 1.871zm18.399-5.039h-1.157V20h-1.912l-.103-.842c-.527.659-1.206.988-2.036.988-.932 0-1.68-.367-2.245-1.102-.563-.735-.845-1.756-.845-3.065 0-1.235.277-2.22.83-2.952.555-.732 1.313-1.098 2.275-1.098.771 0 1.409.288 1.912.864v-1.714h-1.846V9.74h1.846v-.99h2.124v.989h1.157v1.34zm-6.182 5.054c0 .742.13 1.31.388 1.706.26.396.635.594 1.128.594.655 0 1.116-.276 1.385-.828v-3.127c-.264-.552-.72-.828-1.37-.828-1.02 0-1.53.828-1.53 2.483zm7.34-.169c0-.786.15-1.486.453-2.102a3.324 3.324 0 0 1 1.308-1.428c.568-.337 1.229-.505 1.98-.505 1.07 0 1.943.327 2.62.981.675.654 1.053 1.543 1.13 2.666l.015.542c0 1.216-.339 2.191-1.018 2.926-.678.735-1.589 1.102-2.732 1.102-1.142 0-2.054-.366-2.735-1.098-.681-.733-1.022-1.729-1.022-2.988v-.096zm2.116.154c0 .752.141 1.327.425 1.725.283.398.688.597 1.215.597.513 0 .913-.197 1.202-.59.288-.393.432-1.021.432-1.886 0-.737-.144-1.308-.432-1.714-.289-.405-.694-.607-1.216-.607-.518 0-.918.201-1.201.604-.284.403-.425 1.026-.425 1.871zm4.43-5.317v.088h-1.684l-1.128-1.062L62 10.889h-1.656v-.118l2.168-2.021h1.23l2.198 2.05zm-3.983 10.957c0-.293.11-.535.33-.725.219-.19.502-.286.849-.286.351 0 .637.095.857.286.22.19.33.432.33.725 0 .288-.11.53-.327.725-.217.195-.504.293-.86.293-.357 0-.642-.098-.857-.293a.94.94 0 0 1-.322-.725zm8.195-9.683l.066.916c.567-.708 1.326-1.062 2.278-1.062.84 0 1.465.246 1.875.74.41.493.62 1.23.63 2.211V20h-2.117v-5.068c0-.45-.097-.776-.293-.978-.195-.203-.52-.304-.974-.304-.595 0-1.042.254-1.34.762V20h-2.117v-7.925h1.992zm6.145 3.904c0-1.216.29-2.195.868-2.937.579-.742 1.359-1.113 2.34-1.113.87 0 1.546.298 2.03.893l.087-.747h1.919v7.661c0 .694-.157 1.297-.472 1.81a3.034 3.034 0 0 1-1.33 1.171c-.571.269-1.24.403-2.007.403a4.345 4.345 0 0 1-1.699-.348c-.552-.232-.969-.53-1.252-.897l.937-1.29c.528.592 1.167.887 1.92.887.56 0 .998-.15 1.31-.45.313-.3.469-.727.469-1.278v-.425c-.488.552-1.13.827-1.926.827-.952 0-1.723-.372-2.311-1.116-.588-.745-.883-1.733-.883-2.963v-.088zm2.117.154c0 .718.144 1.28.432 1.688.288.408.684.612 1.187.612.644 0 1.106-.242 1.384-.725v-3.333c-.283-.483-.74-.725-1.37-.725-.507 0-.907.207-1.197.622-.29.416-.436 1.036-.436 1.86zm13.023-6.006v1.948h1.355v1.553h-1.355v3.955c0 .293.056.503.168.63.112.127.327.19.645.19.234 0 .441-.017.622-.05v1.603c-.415.127-.842.19-1.282.19-1.484 0-2.24-.749-2.27-2.248v-4.27h-1.157v-1.553h1.157v-1.948h2.117zm4.6 2.812c.56-.673 1.266-1.01 2.116-1.01 1.719 0 2.59.998 2.615 2.995V20H98.65v-5.017c0-.454-.098-.79-.293-1.007-.195-.217-.52-.326-.974-.326-.62 0-1.07.24-1.348.718V20h-2.117V8.75h2.117v4.19zM106.955 20a2.35 2.35 0 0 1-.213-.71c-.513.57-1.179.856-2 .856-.776 0-1.419-.224-1.93-.673a2.167 2.167 0 0 1-.765-1.7c0-.84.312-1.484.934-1.933.623-.45 1.522-.676 2.7-.681h.973v-.454c0-.367-.094-.66-.282-.88-.188-.219-.484-.329-.89-.329-.356 0-.636.086-.838.256-.203.171-.304.406-.304.704h-2.117c0-.46.142-.884.425-1.275.283-.39.684-.697 1.201-.919.518-.222 1.099-.333 1.743-.333.977 0 1.752.245 2.326.736.573.49.86 1.18.86 2.069v3.435c.005.752.11 1.32.315 1.706V20h-2.138zm-1.75-1.472c.312 0 .6-.07.863-.209.264-.14.46-.326.586-.56v-1.363h-.79c-1.06 0-1.624.367-1.693 1.1l-.007.124c0 .263.093.48.278.651.186.171.44.257.762.257zm-.228-9.192h1.194l2.087 1.685h-1.582l-1.106-.923-1.106.923h-1.574l2.087-1.685zm3.933-1.29h1.692l-1.663 1.993h-1.223l1.194-1.992zm8.628 8.065c0 1.22-.277 2.198-.831 2.933-.554.735-1.303 1.102-2.245 1.102-.8 0-1.448-.278-1.941-.834v3.735h-2.117V12.075h1.963l.073.777c.513-.616 1.182-.923 2.007-.923.977 0 1.736.361 2.278 1.084.542.722.813 1.718.813 2.988v.11zm-2.117-.154c0-.737-.13-1.306-.391-1.707-.262-.4-.641-.6-1.14-.6-.663 0-1.12.254-1.369.762v3.244c.259.523.72.784 1.384.784 1.011 0 1.516-.828 1.516-2.483z" fill="#000"/><path d="M16 103.253V92.59h3.486c1.158 0 2.028.24 2.611.718.584.479.876 1.187.876 2.124 0 .498-.142.939-.425 1.322-.283.383-.67.68-1.157.89a2.474 2.474 0 0 1 1.366.92c.334.45.501.99.501 1.614 0 .957-.31 1.71-.93 2.256-.62.547-1.496.82-2.63.82H16zm1.406-4.987v3.838h2.322c.654 0 1.17-.17 1.55-.51.378-.339.567-.806.567-1.402 0-1.284-.699-1.926-2.095-1.926h-2.344zm0-1.128h2.124c.616 0 1.107-.154 1.476-.462.369-.307.553-.725.553-1.252 0-.586-.17-1.012-.513-1.278-.341-.266-.861-.4-1.56-.4h-2.08v3.392zm12.613 6.115c-.079-.156-.142-.434-.19-.835-.63.655-1.383.982-2.257.982-.781 0-1.422-.221-1.922-.663a2.146 2.146 0 0 1-.751-1.68c0-.826.314-1.467.941-1.923.628-.457 1.51-.685 2.648-.685h1.318v-.623c0-.473-.141-.85-.425-1.131-.283-.281-.7-.422-1.252-.422-.483 0-.889.123-1.216.367-.327.244-.49.54-.49.886H25.06c0-.396.14-.778.421-1.146.281-.369.662-.66 1.143-.876a3.844 3.844 0 0 1 1.585-.322c.914 0 1.629.228 2.146.685.518.456.787 1.085.806 1.886v3.647c0 .728.093 1.307.278 1.736v.117h-1.42zm-2.249-1.032c.425 0 .828-.11 1.209-.33.38-.22.656-.505.827-.857v-1.626h-1.062c-1.66 0-2.49.486-2.49 1.458 0 .425.142.757.425.996.283.24.647.359 1.091.359zm2.769-9.573c0 .464-.206.835-.616 1.113-.41.279-.944.418-1.604.418-.664 0-1.2-.14-1.611-.418-.41-.278-.615-.65-.615-1.113h1.113c0 .269.096.477.29.626.192.15.467.224.823.224.347 0 .617-.077.81-.231a.75.75 0 0 0 .289-.62h1.12zm-1.824-1.597h1.12l-1.2 1.45h-.748l.828-1.45zm6.409 2.359v1.919h1.479v1.047h-1.48v4.915c0 .317.066.555.198.714.132.158.357.238.674.238.156 0 .371-.03.645-.088v1.098a3.928 3.928 0 0 1-1.04.147c-.606 0-1.062-.183-1.37-.55-.308-.366-.461-.886-.461-1.56v-4.914h-1.443v-1.047h1.443v-1.92h1.355zm14.509.813h-1.377v9.03H47.01l-.066-.85c-.542.665-1.297.997-2.263.997-.918 0-1.667-.376-2.245-1.128-.579-.752-.868-1.733-.868-2.944v-.103c0-1.216.288-2.194.864-2.933.576-.74 1.33-1.11 2.263-1.11.928 0 1.663.318 2.205.952v-1.911h-1.934v-1.106H46.9v-1.114h1.355v1.114h1.377v1.106zm-6.71 5.156c0 .898.186 1.601.557 2.11.372.507.884.761 1.539.761.859 0 1.486-.386 1.882-1.157v-3.64c-.405-.747-1.028-1.121-1.868-1.121-.664 0-1.181.256-1.553.77-.37.512-.556 1.271-.556 2.277zm12.826 3.874c-.079-.156-.142-.434-.19-.835-.63.655-1.383.982-2.257.982-.781 0-1.422-.221-1.922-.663a2.146 2.146 0 0 1-.751-1.68c0-.826.314-1.467.941-1.923.628-.457 1.51-.685 2.648-.685h1.318v-.623c0-.473-.141-.85-.425-1.131-.283-.281-.7-.422-1.252-.422-.484 0-.889.123-1.216.367-.327.244-.49.54-.49.886H50.79c0-.396.14-.778.421-1.146.28-.369.662-.66 1.143-.876a3.844 3.844 0 0 1 1.585-.322c.914 0 1.629.228 2.146.685.518.456.787 1.085.806 1.886v3.647c0 .728.093 1.307.278 1.736v.117h-1.42zm-2.249-1.032c.425 0 .828-.11 1.208-.33.381-.22.657-.505.828-.857v-1.626h-1.062c-1.66 0-2.49.486-2.49 1.458 0 .425.141.757.425.996.283.24.647.359 1.091.359zm3.26-8.035h-1.444l-1.245-1.157-1.245 1.157h-1.435l2.124-1.919h1.113l2.131 1.919zm-4.835-1.296H50.9L49.435 91h1.458l1.032 1.89zm11.983 9.58c-.528.62-1.302.93-2.322.93-.845 0-1.488-.245-1.93-.736-.442-.49-.665-1.217-.67-2.18V95.33h1.355v5.12c0 1.2.488 1.801 1.465 1.801 1.035 0 1.723-.386 2.065-1.157V95.33h1.355v7.924h-1.289l-.03-.783zm128.339-51.727h-3.428v9.507h-1.399v-9.507H184v-1.157h8.247v1.157zm2.725 2.542c.6-.738 1.382-1.106 2.343-1.106 1.675 0 2.52.945 2.535 2.834v5.237h-1.355v-5.244c-.005-.571-.136-.994-.392-1.267-.257-.274-.656-.41-1.198-.41-.44 0-.825.117-1.157.351-.332.235-.59.542-.776.923v5.647h-1.355V49h1.355v4.285zm6.548 2.93c0-.777.152-1.475.457-2.095.305-.62.73-1.099 1.275-1.436.544-.337 1.165-.505 1.864-.505 1.079 0 1.952.373 2.618 1.12.667.747 1 1.741 1 2.981v.095c0 .772-.148 1.464-.443 2.077a3.365 3.365 0 0 1-1.267 1.432c-.55.342-1.18.512-1.894.512-1.074 0-1.944-.373-2.61-1.12-.667-.747-1-1.736-1-2.966v-.096zm1.362.16c0 .88.204 1.585.611 2.117.408.532.954.799 1.637.799.689 0 1.236-.27 1.641-.81s.608-1.295.608-2.267c0-.869-.206-1.573-.619-2.113-.413-.54-.96-.809-1.644-.809-.67 0-1.209.266-1.619.798-.41.533-.615 1.294-.615 2.285zm12.444 3.875c-.078-.156-.142-.435-.19-.835-.63.654-1.383.981-2.257.981-.78 0-1.422-.22-1.922-.662-.5-.442-.75-1.003-.75-1.681 0-.825.313-1.466.94-1.923.628-.456 1.51-.685 2.648-.685h1.318v-.622c0-.474-.141-.851-.425-1.132-.283-.28-.7-.421-1.252-.421-.483 0-.889.122-1.216.366-.327.244-.49.54-.49.886h-1.363c0-.395.14-.777.421-1.146.281-.368.662-.66 1.143-.875a3.844 3.844 0 0 1 1.586-.322c.913 0 1.628.228 2.146.685.517.456.786 1.085.805 1.886v3.647c0 .728.093 1.306.279 1.736v.117h-1.421zm-2.249-1.033c.425 0 .828-.11 1.209-.33.38-.219.656-.505.827-.856v-1.626h-1.062c-1.66 0-2.49.486-2.49 1.457 0 .425.142.757.425.996.283.24.647.36 1.091.36zM214.33 49h1.64l-1.963 2.153h-1.091L214.33 49zm6.1 1.406v1.92h1.48v1.047h-1.48v4.914c0 .317.067.556.198.714.132.159.357.238.674.238.156 0 .371-.029.645-.088v1.099a3.928 3.928 0 0 1-1.04.146c-.606 0-1.062-.183-1.37-.549-.308-.366-.461-.886-.461-1.56v-4.914h-1.443v-1.048h1.443v-1.919h1.355zm6.453 5.816c0-1.236.286-2.218.857-2.948.572-.73 1.328-1.095 2.27-1.095.968 0 1.722.342 2.264 1.025l.066-.879h1.238v7.735c0 1.025-.304 1.833-.912 2.424-.608.59-1.425.886-2.45.886-.571 0-1.13-.122-1.677-.366-.547-.244-.965-.579-1.253-1.004l.703-.813c.581.718 1.292 1.077 2.132 1.077.659 0 1.173-.185 1.541-.556.369-.372.553-.894.553-1.568v-.681c-.542.625-1.281.937-2.219.937-.928 0-1.678-.373-2.252-1.12-.574-.747-.86-1.765-.86-3.054zm1.363.153c0 .894.183 1.596.549 2.106.366.51.879.766 1.538.766.855 0 1.482-.389 1.882-1.165v-3.618c-.415-.757-1.037-1.135-1.867-1.135-.66 0-1.175.256-1.546.769-.37.512-.556 1.272-.556 2.277zm8.847 3.875h-1.355v-7.925h1.355v7.925zm-1.465-10.027c0-.22.068-.405.202-.556.134-.152.333-.228.597-.228.263 0 .464.076.6.228a.8.8 0 0 1 .205.556c0 .22-.068.403-.205.55-.136.146-.337.22-.6.22-.264 0-.463-.074-.597-.22a.782.782 0 0 1-.202-.55zm8.526 10.027c-.078-.156-.142-.435-.19-.835-.63.654-1.382.981-2.256.981-.782 0-1.423-.22-1.923-.662-.5-.442-.75-1.003-.75-1.681 0-.825.313-1.466.94-1.923.628-.456 1.51-.685 2.648-.685h1.318v-.622c0-.474-.141-.851-.424-1.132-.284-.28-.701-.421-1.253-.421-.483 0-.889.122-1.216.366-.327.244-.49.54-.49.886h-1.363c0-.395.14-.777.421-1.146.281-.368.662-.66 1.143-.875a3.844 3.844 0 0 1 1.586-.322c.913 0 1.628.228 2.146.685.517.456.786 1.085.805 1.886v3.647c0 .728.093 1.306.279 1.736v.117h-1.421zm-2.249-1.033c.425 0 .828-.11 1.209-.33.38-.219.657-.505.827-.856v-1.626h-1.062c-1.66 0-2.49.486-2.49 1.457 0 .425.142.757.425.996.283.24.647.36 1.091.36zm5.157-3.003c0-.776.152-1.474.457-2.094.305-.62.73-1.099 1.275-1.436.544-.337 1.165-.505 1.864-.505 1.079 0 1.952.373 2.618 1.12.667.747 1 1.741 1 2.981v.095c0 .772-.148 1.464-.443 2.077a3.365 3.365 0 0 1-1.267 1.432c-.55.342-1.18.512-1.894.512-1.074 0-1.944-.373-2.61-1.12-.667-.747-1-1.736-1-2.966v-.096zm1.362.161c0 .88.204 1.585.611 2.117.408.532.954.799 1.637.799.689 0 1.236-.27 1.641-.81s.608-1.295.608-2.267c0-.869-.206-1.573-.619-2.113-.413-.54-.96-.809-1.644-.809-.67 0-1.209.266-1.619.798-.41.533-.615 1.294-.615 2.285zm18.999-5.156h-1.377v9.031H264.8l-.066-.85c-.542.664-1.297.996-2.263.996-.918 0-1.667-.375-2.245-1.127-.579-.752-.868-1.734-.868-2.945v-.102c0-1.216.288-2.194.864-2.934.576-.74 1.33-1.11 2.263-1.11.928 0 1.663.318 2.205.953v-1.912h-1.934v-1.106h1.934V49h1.355v1.113h1.377v1.106zm-6.71 5.156c0 .899.186 1.602.558 2.11.37.508.883.762 1.538.762.859 0 1.486-.386 1.882-1.158v-3.64c-.405-.747-1.028-1.12-1.868-1.12-.664 0-1.181.256-1.552.769-.372.512-.557 1.272-.557 2.277zm7.574-.16c0-.777.153-1.475.458-2.095.305-.62.73-1.099 1.274-1.436.545-.337 1.166-.505 1.864-.505 1.08 0 1.952.373 2.619 1.12.666.747 1 1.741 1 2.981v.095c0 .772-.148 1.464-.444 2.077a3.365 3.365 0 0 1-1.267 1.432c-.55.342-1.18.512-1.893.512-1.074 0-1.945-.373-2.611-1.12-.667-.747-1-1.736-1-2.966v-.096zm1.362.16c0 .88.204 1.585.612 2.117.408.532.953.799 1.637.799.688 0 1.235-.27 1.64-.81.406-.54.608-1.295.608-2.267 0-.869-.206-1.573-.618-2.113-.413-.54-.961-.809-1.645-.809-.669 0-1.208.266-1.618.798-.41.533-.616 1.294-.616 2.285zm4.402-5.368v.073h-1.12l-1.099-1.245-1.091 1.245h-1.12v-.088l1.8-1.992h.821l1.81 2.007zm-2.995 11.037c0-.22.067-.405.201-.556.134-.152.333-.227.597-.227.264 0 .464.075.6.227a.8.8 0 0 1 .206.556.78.78 0 0 1-.205.55c-.137.146-.337.22-.601.22-.264 0-.463-.074-.597-.22a.782.782 0 0 1-.201-.55zm7.426-9.719l.044.996c.606-.761 1.397-1.142 2.373-1.142 1.675 0 2.52.945 2.535 2.834v5.237h-1.355v-5.244c-.005-.571-.136-.994-.392-1.267-.257-.274-.656-.41-1.198-.41-.44 0-.825.117-1.157.351-.332.235-.59.542-.776.923v5.647H277.2v-7.925h1.281zm6.673 3.897c0-1.236.285-2.218.857-2.948.571-.73 1.328-1.095 2.27-1.095.967 0 1.721.342 2.263 1.025l.066-.879h1.238v7.735c0 1.025-.304 1.833-.912 2.424-.608.59-1.424.886-2.45.886-.571 0-1.13-.122-1.677-.366-.547-.244-.964-.579-1.252-1.004l.703-.813c.58.718 1.291 1.077 2.131 1.077.66 0 1.173-.185 1.542-.556.368-.372.553-.894.553-1.568v-.681c-.542.625-1.282.937-2.22.937-.927 0-1.678-.373-2.252-1.12-.573-.747-.86-1.765-.86-3.054zm1.362.153c0 .894.183 1.596.55 2.106.366.51.878.766 1.537.766.855 0 1.482-.389 1.883-1.165v-3.618c-.415-.757-1.038-1.135-1.868-1.135-.659 0-1.174.256-1.545.769-.371.512-.557 1.272-.557 2.277zM105.29 183.88c-.29.415-.693.724-1.21.93-.518.205-1.121.307-1.809.307-.695 0-1.312-.163-1.851-.49a3.26 3.26 0 0 1-1.251-1.39c-.295-.602-.446-1.3-.454-2.092v-.745c0-1.285.3-2.28.9-2.988.599-.707 1.442-1.06 2.528-1.06.89 0 1.607.227 2.15.682.543.455.875 1.1.996 1.937h-1.125c-.21-1.13-.883-1.694-2.016-1.694-.753 0-1.325.265-1.713.794-.39.53-.585 1.296-.59 2.3v.697c0 .957.22 1.718.657 2.283.437.564 1.03.846 1.775.846.422 0 .791-.047 1.108-.14.316-.094.578-.252.785-.475v-1.916h-1.975v-.914h3.094v3.129zm2.882 1.12h-1.084v-6.34h1.084V185zM107 176.979a.65.65 0 0 1 .161-.446c.108-.12.267-.181.478-.181.21 0 .37.06.48.181a.64.64 0 0 1 .164.446.62.62 0 0 1-.164.439c-.11.117-.27.176-.48.176-.211 0-.37-.059-.478-.176a.626.626 0 0 1-.161-.44zm6.82 8.021c-.062-.125-.113-.348-.152-.668-.504.523-1.105.785-1.805.785-.625 0-1.137-.177-1.538-.53-.4-.354-.6-.802-.6-1.345 0-.66.25-1.173.753-1.538.501-.365 1.208-.548 2.118-.548h1.054v-.498c0-.379-.113-.68-.34-.905-.226-.225-.56-.337-1.001-.337-.387 0-.711.098-.973.293-.262.195-.393.432-.393.709h-1.09c0-.316.113-.622.337-.917a2.3 2.3 0 0 1 .914-.7 3.075 3.075 0 0 1 1.269-.258c.73 0 1.303.183 1.717.548.414.365.629.868.644 1.509v2.918c0 .582.075 1.044.223 1.388V185h-1.137zm-1.799-.826c.34 0 .663-.088.967-.264a1.59 1.59 0 0 0 .662-.685v-1.301h-.85c-1.327 0-1.991.388-1.991 1.166 0 .34.113.605.34.797.226.191.517.287.872.287zm4.125-2.403c0-.62.123-1.18.367-1.675a2.732 2.732 0 0 1 1.02-1.149c.435-.27.932-.404 1.49-.404.864 0 1.562.299 2.095.896.533.598.8 1.393.8 2.385v.076c0 .618-.118 1.171-.355 1.662-.236.49-.574.872-1.013 1.145-.44.273-.945.41-1.515.41-.86 0-1.556-.299-2.089-.896-.533-.598-.8-1.389-.8-2.373v-.077zm1.09.13c0 .703.163 1.267.49 1.693.326.426.762.638 1.31.638.55 0 .987-.215 1.312-.647.324-.432.486-1.036.486-1.814 0-.695-.165-1.258-.495-1.69a1.574 1.574 0 0 0-1.316-.647c-.535 0-.966.212-1.294.638-.329.426-.493 1.035-.493 1.828zm15.2-4.126h-1.102V185h-.996l-.053-.68c-.433.532-1.037.797-1.81.797-.735 0-1.333-.3-1.796-.902-.463-.602-.695-1.387-.695-2.356v-.082c0-.972.23-1.755.692-2.346.46-.592 1.064-.888 1.81-.888.743 0 1.33.254 1.764.762v-1.53h-1.547v-.884h1.547V176h1.084v.89h1.102v.885zm-5.368 4.125c0 .72.149 1.282.446 1.688.297.406.707.61 1.23.61.688 0 1.19-.31 1.506-.927v-2.912c-.324-.597-.822-.896-1.494-.896-.531 0-.945.205-1.242.615-.297.41-.446 1.018-.446 1.822zm6.059-.129c0-.62.122-1.18.366-1.675a2.732 2.732 0 0 1 1.02-1.149c.435-.27.932-.404 1.49-.404.864 0 1.562.299 2.096.896.533.598.8 1.393.8 2.385v.076c0 .618-.119 1.171-.355 1.662-.236.49-.574.872-1.014 1.145a2.81 2.81 0 0 1-1.514.41c-.86 0-1.556-.299-2.09-.896-.532-.598-.799-1.389-.799-2.373v-.077zm1.09.13c0 .703.163 1.267.49 1.693.325.426.762.638 1.309.638.55 0 .988-.215 1.312-.647.324-.432.486-1.036.486-1.814 0-.695-.165-1.258-.495-1.69a1.574 1.574 0 0 0-1.315-.647c-.535 0-.967.212-1.295.638-.328.426-.492 1.035-.492 1.828zm3.521-4.296v.06h-.896l-.88-.997-.872.996h-.897v-.07l1.442-1.594h.656l1.447 1.605zm-2.396 8.83c0-.175.054-.324.16-.445.108-.12.268-.181.478-.181.211 0 .372.06.48.181a.64.64 0 0 1 .165.446.62.62 0 0 1-.164.439c-.11.117-.27.176-.48.176-.211 0-.37-.059-.478-.176a.626.626 0 0 1-.161-.44zm5.941-7.775l.035.797c.485-.61 1.118-.914 1.899-.914 1.34 0 2.015.756 2.027 2.268V185h-1.084v-4.195c-.004-.457-.108-.795-.313-1.014-.205-.219-.525-.328-.958-.328-.352 0-.66.094-.926.281a1.91 1.91 0 0 0-.621.738V185h-1.084v-6.34h1.025zm5.338 3.117c0-.988.229-1.774.686-2.358.457-.584 1.062-.876 1.816-.876.773 0 1.377.273 1.81.82l.053-.703h.99v6.188c0 .82-.243 1.466-.729 1.94-.486.472-1.14.708-1.96.708a3.26 3.26 0 0 1-1.342-.293c-.437-.195-.771-.463-1.002-.803l.563-.65c.465.574 1.033.861 1.705.861.527 0 .938-.148 1.233-.445.295-.297.443-.715.443-1.254v-.545c-.434.5-1.026.75-1.776.75-.742 0-1.342-.299-1.801-.896-.46-.598-.689-1.412-.689-2.444zm1.09.123c0 .715.146 1.277.44 1.685.292.408.703.612 1.23.612.683 0 1.185-.31 1.506-.931v-2.895c-.332-.605-.83-.908-1.494-.908-.528 0-.94.205-1.237.615-.297.41-.445 1.018-.445 1.822zm13.336.235h1.183v.885h-1.183V185h-1.09v-1.98h-3.885v-.64l3.82-5.911h1.155v5.666zm-3.744 0h2.654v-4.184l-.129.235-2.525 3.949zm5.982 2.297c0-.188.056-.344.167-.47.111-.124.278-.187.501-.187.223 0 .392.063.507.188a.665.665 0 0 1 .173.469.63.63 0 0 1-.173.45c-.115.122-.284.182-.507.182-.223 0-.39-.06-.5-.181a.641.641 0 0 1-.168-.451zm.006-5.174a.68.68 0 0 1 .167-.469c.111-.125.278-.187.501-.187.223 0 .392.062.507.187a.665.665 0 0 1 .173.469.63.63 0 0 1-.173.451c-.115.121-.284.182-.507.182-.223 0-.39-.06-.501-.182a.641.641 0 0 1-.167-.451zm12.375 4.623c-.289.414-.692.723-1.21.929-.518.205-1.12.307-1.808.307-.695 0-1.312-.163-1.851-.49a3.26 3.26 0 0 1-1.251-1.39c-.295-.602-.446-1.3-.454-2.092v-.745c0-1.285.3-2.28.9-2.988.599-.707 1.442-1.06 2.528-1.06.89 0 1.607.227 2.15.682.543.455.875 1.1.996 1.937h-1.125c-.21-1.13-.883-1.694-2.016-1.694-.754 0-1.325.265-1.713.794-.39.53-.585 1.296-.59 2.3v.697c0 .957.22 1.718.657 2.283.437.564 1.03.846 1.775.846.422 0 .791-.047 1.108-.14.316-.094.578-.252.785-.475v-1.916h-1.975v-.914h3.094v3.129zm2.883 1.119h-1.084v-6.34h1.084V185zm-1.172-8.021a.65.65 0 0 1 .161-.446c.108-.12.267-.181.478-.181.21 0 .37.06.48.181a.64.64 0 0 1 .164.446.62.62 0 0 1-.164.439c-.11.117-.27.176-.48.176-.211 0-.37-.059-.478-.176a.626.626 0 0 1-.161-.44zm6.82 8.021c-.062-.125-.113-.348-.152-.668-.504.523-1.106.785-1.805.785-.625 0-1.137-.177-1.538-.53-.4-.354-.6-.802-.6-1.345 0-.66.25-1.173.752-1.538s1.208-.548 2.119-.548h1.054v-.498c0-.379-.113-.68-.34-.905-.226-.225-.56-.337-1.001-.337-.387 0-.711.098-.973.293-.262.195-.393.432-.393.709h-1.09c0-.316.113-.622.337-.917a2.3 2.3 0 0 1 .914-.7 3.075 3.075 0 0 1 1.269-.258c.73 0 1.303.183 1.717.548.414.365.629.868.644 1.509v2.918c0 .582.075 1.044.223 1.388V185h-1.137zm-1.799-.826c.34 0 .663-.088.967-.264a1.59 1.59 0 0 0 .662-.685v-1.301h-.85c-1.327 0-1.991.388-1.991 1.166 0 .34.113.605.34.797.226.191.517.287.872.287zm4.125-2.403c0-.62.123-1.18.367-1.675a2.732 2.732 0 0 1 1.02-1.149c.435-.27.932-.404 1.49-.404.864 0 1.562.299 2.095.896.533.598.8 1.393.8 2.385v.076c0 .618-.118 1.171-.355 1.662-.236.49-.574.872-1.013 1.145-.44.273-.945.41-1.515.41-.86 0-1.556-.299-2.089-.896-.533-.598-.8-1.389-.8-2.373v-.077zm1.09.13c0 .703.163 1.267.49 1.693.326.426.762.638 1.31.638.55 0 .987-.215 1.312-.647.324-.432.486-1.036.486-1.814 0-.695-.165-1.258-.495-1.69a1.574 1.574 0 0 0-1.316-.647c-.535 0-.966.212-1.295.638-.328.426-.492 1.035-.492 1.828zm15.2-4.126h-1.102V185h-.996l-.053-.68c-.433.532-1.037.797-1.81.797-.735 0-1.333-.3-1.796-.902-.463-.602-.695-1.387-.695-2.356v-.082c0-.972.23-1.755.692-2.346.46-.592 1.064-.888 1.81-.888.742 0 1.33.254 1.764.762v-1.53h-1.547v-.884h1.547V176h1.084v.89h1.101v.885zm-5.368 4.125c0 .72.149 1.282.446 1.688.297.406.707.61 1.23.61.688 0 1.19-.31 1.506-.927v-2.912c-.324-.597-.822-.896-1.494-.896-.531 0-.945.205-1.242.615-.297.41-.446 1.018-.446 1.822zm6.059-.129c0-.62.122-1.18.366-1.675a2.732 2.732 0 0 1 1.02-1.149c.435-.27.932-.404 1.49-.404.864 0 1.562.299 2.096.896.533.598.8 1.393.8 2.385v.076c0 .618-.119 1.171-.355 1.662-.236.49-.574.872-1.014 1.145a2.81 2.81 0 0 1-1.514.41c-.86 0-1.556-.299-2.09-.896-.532-.598-.8-1.389-.8-2.373v-.077zm1.09.13c0 .703.163 1.267.489 1.693.326.426.763.638 1.31.638.55 0 .988-.215 1.312-.647.324-.432.486-1.036.486-1.814 0-.695-.165-1.258-.495-1.69a1.574 1.574 0 0 0-1.315-.647c-.535 0-.967.212-1.295.638-.328.426-.492 1.035-.492 1.828zm3.521-4.296v.06h-.896l-.88-.997-.872.996h-.897v-.07l1.442-1.594h.656l1.447 1.605zm-2.396 8.83c0-.175.053-.324.16-.445.108-.12.267-.181.478-.181.211 0 .372.06.48.181a.64.64 0 0 1 .165.446.62.62 0 0 1-.164.439c-.11.117-.27.176-.48.176-.212 0-.37-.059-.478-.176a.626.626 0 0 1-.161-.44zm5.941-7.775l.035.797c.485-.61 1.117-.914 1.899-.914 1.34 0 2.015.756 2.027 2.268V185h-1.084v-4.195c-.004-.457-.108-.795-.313-1.014-.205-.219-.525-.328-.958-.328-.352 0-.66.094-.926.281a1.91 1.91 0 0 0-.621.738V185h-1.084v-6.34h1.025zm5.338 3.117c0-.988.229-1.774.686-2.358.457-.584 1.062-.876 1.816-.876.773 0 1.377.273 1.81.82l.053-.703h.99v6.188c0 .82-.243 1.466-.729 1.94-.486.472-1.14.708-1.96.708a3.26 3.26 0 0 1-1.342-.293c-.437-.195-.771-.463-1.002-.803l.563-.65c.465.574 1.033.861 1.705.861.527 0 .938-.148 1.233-.445.295-.297.443-.715.443-1.254v-.545c-.434.5-1.026.75-1.776.75-.742 0-1.342-.299-1.801-.896-.46-.598-.689-1.412-.689-2.444zm1.09.123c0 .715.146 1.277.44 1.685.292.408.702.612 1.23.612.683 0 1.185-.31 1.506-.931v-2.895c-.332-.605-.83-.908-1.494-.908-.528 0-.94.205-1.237.615-.297.41-.445 1.018-.445 1.822zm10.342-4.775v1.535h1.183v.838h-1.183v3.932c0 .254.052.444.158.571.105.127.285.19.539.19.125 0 .297-.023.516-.07V185a3.143 3.143 0 0 1-.832.117c-.485 0-.85-.146-1.096-.44-.246-.292-.37-.708-.37-1.247v-3.932h-1.154v-.838h1.155v-1.535h1.084zm3.533 2.303c.48-.59 1.105-.885 1.875-.885 1.34 0 2.016.756 2.027 2.268V185h-1.084v-4.195c-.004-.457-.108-.795-.313-1.014-.205-.219-.525-.328-.958-.328-.352 0-.66.094-.926.281a1.91 1.91 0 0 0-.621.738V185h-1.084v-9h1.084v3.428zm9.44 5.572c-.063-.125-.114-.348-.153-.668-.504.523-1.105.785-1.805.785-.625 0-1.137-.177-1.538-.53-.4-.354-.6-.802-.6-1.345 0-.66.25-1.173.753-1.538.502-.365 1.208-.548 2.118-.548h1.054v-.498c0-.379-.113-.68-.34-.905-.226-.225-.56-.337-1.001-.337-.387 0-.711.098-.973.293-.262.195-.393.432-.393.709h-1.09c0-.316.113-.622.337-.917a2.3 2.3 0 0 1 .915-.7 3.075 3.075 0 0 1 1.268-.258c.73 0 1.303.183 1.717.548.414.365.629.868.644 1.509v2.918c0 .582.075 1.044.223 1.388V185h-1.137zm-1.8-.826c.34 0 .663-.088.967-.264a1.59 1.59 0 0 0 .662-.685v-1.301h-.85c-1.327 0-1.991.388-1.991 1.166 0 .34.113.605.34.797.226.191.517.287.873.287zm.03-7.992h.89l1.7 1.54h-1.155l-.99-.931-.996.932h-1.16l1.71-1.541zm2.988-1.014h1.172l-1.178 1.518h-.826l.832-1.518zm6.75 6.732c0 .965-.22 1.743-.662 2.332-.441.59-1.04.885-1.793.885-.77 0-1.375-.244-1.816-.732v3.053h-1.084v-8.778h.99l.053.703c.441-.547 1.054-.82 1.84-.82.761 0 1.364.287 1.807.861.443.575.665 1.373.665 2.397v.1zm-1.084-.123c0-.715-.152-1.279-.457-1.693-.305-.414-.723-.621-1.254-.621-.656 0-1.148.29-1.476.873v3.03c.324.577.82.866 1.488.866.52 0 .933-.206 1.24-.618.306-.412.46-1.024.46-1.837zm6.457-3.117l.035.797c.485-.61 1.117-.914 1.899-.914 1.34 0 2.015.756 2.027 2.268V185h-1.084v-4.195c-.004-.457-.108-.795-.313-1.014-.205-.219-.525-.328-.958-.328-.352 0-.66.094-.926.281a1.91 1.91 0 0 0-.621.738V185h-1.084v-6.34h1.025zm6.68.768c.48-.59 1.105-.885 1.875-.885 1.34 0 2.015.756 2.027 2.268V185h-1.084v-4.195c-.004-.457-.108-.795-.313-1.014-.205-.219-.525-.328-.958-.328-.352 0-.66.094-.926.281a1.91 1.91 0 0 0-.621.738V185h-1.084v-9h1.084v3.428zm9.44 5.572c-.063-.125-.114-.348-.153-.668-.504.523-1.106.785-1.805.785-.625 0-1.137-.177-1.538-.53-.4-.354-.6-.802-.6-1.345 0-.66.25-1.173.753-1.538.501-.365 1.208-.548 2.118-.548h1.054v-.498c0-.379-.113-.68-.34-.905-.226-.225-.56-.337-1.001-.337-.387 0-.711.098-.973.293-.262.195-.393.432-.393.709h-1.09c0-.316.113-.622.337-.917a2.3 2.3 0 0 1 .914-.7 3.075 3.075 0 0 1 1.269-.258c.73 0 1.303.183 1.717.548.414.365.629.868.644 1.509v2.918c0 .582.075 1.044.223 1.388V185h-1.137zm-1.8-.826c.34 0 .663-.088.967-.264a1.59 1.59 0 0 0 .662-.685v-1.301h-.85c-1.327 0-1.991.388-1.991 1.166 0 .34.113.605.34.797.226.191.517.287.872.287zm.03-7.992h.89l1.7 1.54h-1.155l-.99-.931-.996.932h-1.16l1.71-1.541zm2.988-1.014h1.172l-1.178 1.518h-.826l.832-1.518zm2.865 1.957v1.535h1.184v.838h-1.184v3.932c0 .254.053.444.158.571.106.127.286.19.54.19.125 0 .296-.023.515-.07V185a3.143 3.143 0 0 1-.832.117c-.484 0-.85-.146-1.096-.44-.246-.292-.369-.708-.369-1.247v-3.932h-1.154v-.838h1.154v-1.535h1.084z" fill="#2A3052"/></g></svg>