<svg width="299" height="197" xmlns="http://www.w3.org/2000/svg"><g fill="none"><path fill="#F1F1F2" d="M0 0h299v197H0z"/><path d="M1.987 1.98v193.04h295.026V1.98H1.987zM299 0v197H0V0h299z" fill="#C2C2C2"/><path d="M3.607 54.997v-1.22h292.358v1.22H3.607zm0 20.08v-1.22h292.358v1.22H3.607zm0 60.273v-1.22h292.358v1.22H3.607z" fill="#DEDEDD"/><path d="M3.607 155.43v-1.22h3.62v1.22h-3.62zm7.24 0v-1.22h3.62v1.22h-3.62zm7.24 0v-1.22h3.621v1.22h-3.62zm7.241 0v-1.22h3.62v1.22h-3.62zm7.24 0v-1.22h3.62v1.22h-3.62zm7.241 0v-1.22h3.62v1.22h-3.62zm7.24 0v-1.22h3.62v1.22h-3.62zm7.24 0v-1.22h3.62v1.22h-3.62zm7.241 0v-1.22h3.62v1.22h-3.62zm7.24 0v-1.22h3.62v1.22h-3.62zm7.24 0v-1.22h3.621v1.22h-3.62zm7.241 0v-1.22h3.62v1.22h-3.62zm7.24 0v-1.22h3.62v1.22h-3.62zm7.241 0v-1.22h3.62v1.22h-3.62zm7.24 0v-1.22h3.62v1.22h-3.62zm7.24 0v-1.22h3.62v1.22h-3.62zm7.241 0v-1.22h3.62v1.22h-3.62zm7.24 0v-1.22h3.62v1.22h-3.62zm7.24 0v-1.22h3.621v1.22h-3.62zm7.241 0v-1.22h3.62v1.22h-3.62zm7.24 0v-1.22h3.62v1.22h-3.62zm7.241 0v-1.22h3.62v1.22h-3.62zm7.24 0v-1.22h3.62v1.22h-3.62zm7.24 0v-1.22h3.62v1.22h-3.62zm7.241 0v-1.22h3.62v1.22h-3.62zm7.24 0v-1.22h3.62v1.22h-3.62zm7.24 0v-1.22h3.621v1.22h-3.62zm7.241 0v-1.22h3.62v1.22h-3.62zm7.24 0v-1.22h3.62v1.22h-3.62zm7.241 0v-1.22h3.62v1.22h-3.62zm7.24 0v-1.22h3.62v1.22h-3.62zm7.24 0v-1.22h3.621v1.22h-3.62zm7.241 0v-1.22h3.62v1.22h-3.62zm7.24 0v-1.22h3.62v1.22h-3.62zm7.24 0v-1.22h3.621v1.22h-3.62zm7.241 0v-1.22h3.62v1.22h-3.62zm7.24 0v-1.22h3.62v1.22h-3.62zm7.241 0v-1.22h3.62v1.22h-3.62zm7.24 0v-1.22h3.62v1.22h-3.62zm7.24 0v-1.22h3.621v1.22h-3.62zm7.241 0v-1.22h2.743v1.22h-2.743z" fill="#293052"/><path d="M3.607 175.508v-1.22h292.358v1.22H3.607zm34.71-141.2h1.22V192.59h-1.22V34.308zm36.998 0h1.22V192.59h-1.22V34.308zm36.997 0h1.22V192.59h-1.22V34.308zm36.96 0h1.219V192.59h-1.22V34.308zm36.996 0h1.22V192.59h-1.22V34.308zm36.998 0h1.22V192.59h-1.22V34.308zm36.997 0h1.219V192.59h-1.22V34.308zM3.607 115.272v-1.22h292.358v1.22H3.607zm0-20.08v-1.22h292.358v1.22H3.607z" fill="#DEDEDD"/><path fill="#C2C2C2" d="M1 30v-2h296v2z"/><path d="M149.162 115.358l41.674-30.607a1.81 1.81 0 0 1 2.71.689l32.272 68.61a1.81 1.81 0 1 1-3.276 1.54l-31.336-66.619-40.94 30.067a1.81 1.81 0 0 1-2.098.031L105.985 89.99l-28.848 26.016a1.81 1.81 0 0 1-2.368.05L37.772 85.367a1.81 1.81 0 1 1 2.31-2.786l35.793 29.687 28.748-25.925a1.81 1.81 0 0 1 2.24-.146l42.299 29.16z" fill="#293052"/><path d="M188.225 147.07h-35.282L147.38 139l-5.334 8.07h-35.283a4.765 4.765 0 0 0-3.365 1.384 4.733 4.733 0 0 0-1.398 3.351v24.512a4.733 4.733 0 0 0 1.398 3.35 4.765 4.765 0 0 0 3.365 1.385h81.462a4.778 4.778 0 0 0 3.442-1.346 4.722 4.722 0 0 0 1.435-3.39v-24.473a4.722 4.722 0 0 0-1.421-3.414 4.778 4.778 0 0 0-3.456-1.36v.001z" fill="#E88024"/><ellipse fill="#FFF" opacity=".6" cx="223.875" cy="154.82" rx="8.192" ry="8.373"/><path d="M223.876 164.411c-5.204 0-9.412-4.3-9.412-9.592 0-5.292 4.208-9.592 9.412-9.592 5.204 0 9.411 4.3 9.411 9.592 0 5.292-4.207 9.592-9.411 9.592zm0-2.438c3.845 0 6.973-3.197 6.973-7.154s-3.128-7.154-6.973-7.154c-3.845 0-6.974 3.197-6.974 7.154s3.129 7.154 6.974 7.154zm23.051-16.549h28.767v18.79h-28.766z" fill="#E88024"/><path fill="#E88024" d="M250.433 154.82l-3.354 3.333-5.22-3.334 5.22-3.333z"/><path d="M258.32 153.683h1.372c.464.033.923-.132 1.257-.455.295-.348.445-.795.42-1.25a1.624 1.624 0 0 0-.42-1.174 1.608 1.608 0 0 0-1.22-.266 1.682 1.682 0 0 0-1.143.38c-.301.253-.469.63-.457 1.022h-2.363a2.721 2.721 0 0 1 1.068-2.31 4.322 4.322 0 0 1 2.82-.91 4.667 4.667 0 0 1 2.971.871 3.06 3.06 0 0 1 1.105 2.539 2.528 2.528 0 0 1-.496 1.477 3.35 3.35 0 0 1-1.371 1.099 3.05 3.05 0 0 1 1.525 1.098 2.87 2.87 0 0 1 .533 1.705 3.1 3.1 0 0 1-1.22 2.576 4.859 4.859 0 0 1-3.086.947 4.744 4.744 0 0 1-2.895-.87 2.796 2.796 0 0 1-1.144-2.501h2.515c-.01.432.17.848.496 1.136.346.304.794.467 1.257.455.488.032.967-.132 1.334-.455a1.66 1.66 0 0 0 .494-1.25 1.812 1.812 0 0 0-.456-1.402 1.989 1.989 0 0 0-1.41-.454h-1.486v-2.008z" fill="#FFF"/><path d="M115 19.651V10.41h2.609c.804 0 1.515.178 2.133.533a3.606 3.606 0 0 1 1.431 1.517c.337.656.507 1.41.511 2.26v.59c0 .872-.168 1.636-.505 2.292a3.55 3.55 0 0 1-1.44 1.51c-.625.352-1.351.532-2.18.54H115zm1.219-8.239v7.243h1.282c.94 0 1.67-.292 2.193-.876.523-.584.784-1.416.784-2.495v-.54c0-1.049-.246-1.865-.74-2.446-.492-.582-1.192-.877-2.097-.886h-1.422zm14.453.825c0 .762-.155 1.298-.466 1.61-.311.31-.805.474-1.482.491v5.313h-1.118l-.025-.679c-.457.538-1.128.806-2.012.806-.732 0-1.29-.212-1.673-.638-.383-.425-.576-1.054-.58-1.888v-4.469h1.174v4.437c0 1.041.423 1.562 1.27 1.562.896 0 1.493-.335 1.79-1.003v-4.996h1.174v.832c.287-.009.503-.05.647-.124a.637.637 0 0 0 .308-.34c.061-.152.092-.457.092-.914h.901zm-5.382 8.97c0-.19.058-.352.174-.483.116-.131.289-.197.517-.197.229 0 .402.066.521.197a.694.694 0 0 1 .178.483c0 .19-.06.349-.178.476-.119.127-.292.19-.52.19-.23 0-.402-.063-.518-.19a.678.678 0 0 1-.174-.476zm9.686-1.556v-4.227h-1.219v-.959h1.22V10.41h2.608c.804 0 1.515.178 2.133.533a3.606 3.606 0 0 1 1.431 1.517c.337.656.507 1.41.511 2.26v.59c0 .872-.168 1.636-.504 2.292a3.55 3.55 0 0 1-1.441 1.51c-.625.352-1.351.532-2.18.54h-2.559zm2.818-4.227h-1.6v3.23h1.277c.94 0 1.67-.29 2.193-.869.522-.58.786-1.396.79-2.45v-.59c0-1.05-.246-1.866-.74-2.447-.492-.582-1.192-.877-2.097-.886h-1.422v3.053h1.6v.959zm5.212.73c0-.673.132-1.278.397-1.816a2.96 2.96 0 0 1 1.104-1.244 3.007 3.007 0 0 1 1.616-.438c.935 0 1.691.324 2.269.971.577.648.866 1.51.866 2.584v.082c0 .67-.128 1.269-.384 1.8a2.916 2.916 0 0 1-1.098 1.241c-.476.296-1.023.444-1.64.444-.932 0-1.686-.323-2.264-.97-.577-.648-.866-1.505-.866-2.572v-.082zm1.18.14c0 .761.177 1.373.53 1.834.354.461.827.692 1.42.692.596 0 1.07-.234 1.421-.702.351-.467.527-1.122.527-1.964 0-.753-.179-1.364-.536-1.831a1.705 1.705 0 0 0-1.425-.702c-.58 0-1.048.23-1.403.692-.356.461-.533 1.121-.533 1.98zm10.785 3.357c-.068-.135-.123-.376-.165-.723-.546.567-1.197.85-1.955.85-.677 0-1.232-.191-1.666-.574a1.859 1.859 0 0 1-.65-1.457c0-.715.271-1.27.815-1.666.544-.396 1.309-.594 2.295-.594h1.142v-.54c0-.41-.123-.737-.368-.98s-.607-.365-1.086-.365c-.418 0-.77.106-1.053.317-.284.212-.426.468-.426.768h-1.18c0-.342.121-.673.365-.993a2.48 2.48 0 0 1 .99-.758 3.32 3.32 0 0 1 1.374-.28c.792 0 1.412.198 1.86.594.449.395.681.94.698 1.634v3.161c0 .63.08 1.132.242 1.505v.101h-1.232zm-1.949-.895c.369 0 .718-.095 1.048-.285.33-.19.569-.438.717-.743v-1.41h-.92c-1.44 0-2.159.422-2.159 1.264 0 .368.123.656.369.863.245.208.56.311.945.311zm1.086-8.855h1.422l-1.701 1.867h-.946l1.225-1.867zm4.805 2.882l.038.863c.525-.66 1.21-.99 2.057-.99 1.451 0 2.183.82 2.196 2.457v4.538h-1.174v-4.545c-.004-.495-.118-.86-.34-1.098-.222-.237-.568-.355-1.038-.355-.38 0-.715.101-1.003.305-.287.203-.512.47-.672.8v4.893h-1.175v-6.868h1.111zm16.263 3.936c-.114.977-.475 1.732-1.082 2.263-.608.53-1.415.796-2.422.796-1.092 0-1.967-.391-2.625-1.174-.658-.783-.987-1.83-.987-3.142v-.889c0-.859.153-1.614.46-2.266.307-.652.742-1.152 1.305-1.501.563-.35 1.214-.524 1.955-.524.982 0 1.769.274 2.361.822.593.548.937 1.307 1.035 2.276h-1.225c-.106-.736-.336-1.27-.689-1.6-.353-.33-.847-.495-1.482-.495-.779 0-1.39.288-1.832.863-.442.576-.663 1.395-.663 2.457v.895c0 1.003.21 1.8.629 2.393.419.593 1.005.889 1.758.889.677 0 1.196-.154 1.558-.46.362-.307.602-.842.72-1.603h1.226zm2.653-3.104c.52-.64 1.198-.959 2.031-.959 1.452 0 2.184.82 2.197 2.457v4.538h-1.175v-4.545c-.004-.495-.117-.86-.34-1.098-.221-.237-.567-.355-1.037-.355a1.69 1.69 0 0 0-1.003.305 2.07 2.07 0 0 0-.673.8v4.893h-1.174v-9.75h1.174v3.714zm13.317-1.378c0 .762-.155 1.298-.466 1.61-.311.31-.805.474-1.482.491v5.313h-1.117l-.026-.679c-.457.538-1.128.806-2.012.806-.732 0-1.29-.212-1.673-.638-.383-.425-.576-1.054-.58-1.888v-4.469h1.174v4.437c0 1.041.423 1.562 1.27 1.562.897 0 1.493-.335 1.79-1.003v-4.996h1.174v.832c.288-.009.503-.05.647-.124a.637.637 0 0 0 .308-.34c.061-.152.092-.457.092-.914h.901zm-2.285-2.006c0 .457-.13.828-.39 1.111-.26.284-.585.426-.974.426a1.43 1.43 0 0 1-.451-.064 2.432 2.432 0 0 1-.498-.26c-.206-.131-.354-.21-.445-.238a1.087 1.087 0 0 0-.314-.041.582.582 0 0 0-.444.2.725.725 0 0 0-.184.51l-.787-.044c0-.453.128-.827.384-1.123.256-.297.58-.445.974-.445.148 0 .281.021.4.064.118.042.28.124.482.247.203.123.359.203.467.241.108.039.227.058.358.058a.568.568 0 0 0 .454-.216.757.757 0 0 0 .181-.502l.787.076zm10.214 7.599c0-.318-.12-.564-.359-.74-.239-.176-.656-.327-1.25-.454-.595-.127-1.067-.28-1.416-.457-.35-.178-.607-.39-.774-.635a1.518 1.518 0 0 1-.251-.876c0-.562.238-1.038.714-1.428.476-.39 1.084-.584 1.825-.584.779 0 1.41.201 1.895.603.484.402.727.916.727 1.543h-1.181c0-.322-.137-.599-.41-.832-.272-.233-.616-.349-1.031-.349-.427 0-.762.093-1.003.28a.88.88 0 0 0-.362.73c0 .283.112.497.337.64.224.144.63.282 1.215.413.586.131 1.061.288 1.425.47.364.182.634.4.81.657.175.256.263.568.263.936 0 .614-.245 1.106-.736 1.476-.491.37-1.128.555-1.91.555-.551 0-1.038-.097-1.46-.292a2.374 2.374 0 0 1-.994-.815 1.966 1.966 0 0 1-.359-1.133h1.174c.022.393.18.705.473.936.294.23.683.346 1.165.346.444 0 .8-.09 1.07-.27.268-.18.403-.42.403-.72zm2.393-1.676c0-.673.132-1.278.397-1.816a2.96 2.96 0 0 1 1.104-1.244 3.007 3.007 0 0 1 1.615-.438c.936 0 1.692.324 2.27.971.577.648.866 1.51.866 2.584v.082c0 .67-.128 1.269-.384 1.8a2.916 2.916 0 0 1-1.098 1.241c-.476.296-1.023.444-1.64.444-.932 0-1.686-.323-2.264-.97-.577-.648-.866-1.505-.866-2.572v-.082zm1.18.14c0 .761.177 1.373.53 1.834.354.461.827.692 1.42.692.596 0 1.07-.234 1.421-.702.351-.467.527-1.122.527-1.964 0-.753-.179-1.364-.536-1.831a1.705 1.705 0 0 0-1.426-.702c-.58 0-1.047.23-1.402.692-.356.461-.534 1.121-.534 1.98zm1.416-6.196h.965l1.84 1.67h-1.25l-1.073-1.01-1.079 1.01h-1.257l1.854-1.67zM207.301 9h1.27l-1.276 1.644h-.895L207.3 9zm12.093 7.719c-.115.977-.475 1.732-1.083 2.263-.607.53-1.414.796-2.421.796-1.092 0-1.967-.391-2.625-1.174-.658-.783-.987-1.83-.987-3.142v-.889c0-.859.153-1.614.46-2.266.307-.652.742-1.152 1.304-1.501.563-.35 1.215-.524 1.956-.524.981 0 1.768.274 2.36.822.593.548.938 1.307 1.036 2.276h-1.226c-.105-.736-.335-1.27-.688-1.6-.354-.33-.848-.495-1.482-.495-.78 0-1.39.288-1.832.863-.442.576-.663 1.395-.663 2.457v.895c0 1.003.21 1.8.628 2.393.42.593 1.005.889 1.759.889.677 0 1.196-.154 1.558-.46.362-.307.602-.842.72-1.603h1.226zm5.719 2.253c-.457.538-1.128.806-2.012.806-.733 0-1.29-.212-1.673-.638-.383-.425-.577-1.054-.58-1.888v-4.469h1.173v4.437c0 1.041.424 1.562 1.27 1.562.897 0 1.494-.335 1.79-1.003v-4.996h1.174v6.868h-1.117l-.025-.679zm2.615-2.818c0-.673.132-1.278.397-1.816a2.96 2.96 0 0 1 1.104-1.244 3.007 3.007 0 0 1 1.616-.438c.935 0 1.691.324 2.269.971.578.648.866 1.51.866 2.584v.082c0 .67-.128 1.269-.384 1.8a2.916 2.916 0 0 1-1.098 1.241c-.476.296-1.023.444-1.64.444-.932 0-1.686-.323-2.264-.97-.577-.648-.866-1.505-.866-2.572v-.082zm1.18.14c0 .761.177 1.373.53 1.834.354.461.827.692 1.42.692.596 0 1.07-.234 1.421-.702.352-.467.527-1.122.527-1.964 0-.753-.179-1.364-.536-1.831a1.705 1.705 0 0 0-1.425-.702c-.58 0-1.048.23-1.403.692-.356.461-.533 1.121-.533 1.98zm1.416-6.196h.965l1.84 1.67h-1.25l-1.072-1.01-1.08 1.01h-1.256l1.853-1.67zM233.562 9h1.27l-1.277 1.644h-.895L233.562 9zm3.167 10.651h-1.174v-6.868h1.174v6.868zm-1.27-8.69c0-.19.059-.35.175-.482.116-.131.289-.197.517-.197.229 0 .402.066.52.197a.694.694 0 0 1 .179.482c0 .19-.06.35-.178.476-.119.127-.292.19-.52.19-.23 0-.402-.063-.518-.19a.678.678 0 0 1-.175-.476zm13.35 5.758c-.115.977-.475 1.732-1.083 2.263-.607.53-1.414.796-2.421.796-1.092 0-1.967-.391-2.625-1.174-.658-.783-.987-1.83-.987-3.142v-.889c0-.859.153-1.614.46-2.266.307-.652.742-1.152 1.305-1.501.562-.35 1.214-.524 1.955-.524.981 0 1.768.274 2.36.822.593.548.938 1.307 1.036 2.276h-1.226c-.105-.736-.335-1.27-.688-1.6-.354-.33-.848-.495-1.482-.495-.78 0-1.39.288-1.832.863-.442.576-.663 1.395-.663 2.457v.895c0 1.003.21 1.8.628 2.393.42.593 1.005.889 1.759.889.677 0 1.196-.154 1.558-.46.362-.307.602-.842.72-1.603h1.226zm5.719 2.253c-.457.538-1.128.806-2.012.806-.732 0-1.29-.212-1.673-.638-.383-.425-.577-1.054-.58-1.888v-4.469h1.174v4.437c0 1.041.423 1.562 1.27 1.562.896 0 1.493-.335 1.79-1.003v-4.996h1.173v6.868h-1.117l-.025-.679zm-.857-7.204h-1.01L251.025 9.9h1.415l1.232 1.867zm4.894 1.015l.038.863c.525-.66 1.21-.99 2.057-.99 1.451 0 2.183.82 2.196 2.457v4.538h-1.174v-4.545c-.005-.495-.118-.86-.34-1.098-.222-.237-.568-.355-1.038-.355-.38 0-.715.101-1.003.305-.287.203-.512.47-.673.8v4.893h-1.174v-6.868h1.11zm5.783 3.377c0-1.07.247-1.922.742-2.555.495-.632 1.151-.949 1.968-.949.838 0 1.492.296 1.962.889l.057-.762h1.072v6.703c0 .889-.263 1.59-.79 2.101-.527.512-1.234.768-2.123.768-.495 0-.98-.105-1.454-.317-.474-.212-.836-.501-1.085-.87l.61-.704c.503.622 1.118.933 1.846.933.572 0 1.017-.16 1.337-.482.319-.322.479-.775.479-1.359v-.59c-.47.541-1.111.812-1.924.812-.804 0-1.454-.323-1.951-.97-.498-.648-.746-1.53-.746-2.648zm1.18.133c0 .775.159 1.383.476 1.825.318.443.762.664 1.333.664.741 0 1.285-.337 1.632-1.01v-3.135c-.36-.656-.9-.984-1.619-.984-.571 0-1.018.222-1.34.666-.32.445-.482 1.103-.482 1.974zm17.351-1.116h.882c.555-.009.99-.155 1.308-.438.317-.284.476-.667.476-1.15 0-1.082-.54-1.624-1.619-1.624-.508 0-.913.145-1.215.435-.303.29-.454.674-.454 1.152h-1.174c0-.732.267-1.34.802-1.825.536-.485 1.216-.727 2.041-.727.872 0 1.555.23 2.05.692.496.461.743 1.102.743 1.923 0 .402-.13.792-.39 1.168-.26.377-.615.658-1.063.844.507.161.9.428 1.177.8.277.373.416.828.416 1.365 0 .83-.27 1.487-.813 1.974-.541.487-1.246.73-2.113.73-.868 0-1.574-.235-2.117-.704-.544-.47-.816-1.09-.816-1.86h1.18c0 .486.16.876.477 1.168.317.292.742.438 1.276.438.567 0 1-.149 1.3-.445.301-.296.452-.721.452-1.276 0-.537-.165-.95-.496-1.237-.33-.288-.806-.436-1.428-.445h-.882v-.958zM275 18.83c0-.187.056-.344.167-.469.111-.125.278-.187.501-.187.223 0 .392.062.507.187a.665.665 0 0 1 .173.47.63.63 0 0 1-.173.45c-.115.121-.284.182-.507.182-.223 0-.39-.06-.501-.182a.641.641 0 0 1-.167-.45zm.006-5.174c0-.187.056-.343.167-.469.111-.125.278-.187.5-.187.223 0 .392.062.508.188a.665.665 0 0 1 .173.468.63.63 0 0 1-.173.451c-.116.122-.285.182-.507.182-.223 0-.39-.06-.501-.182a.641.641 0 0 1-.167-.45z" fill="#2A3052"/><path d="M128.078 170.059v-10.225h-3.867v-1.26h9.85v1.26h-3.809v10.225h-2.174zm9.012 0h-2.063v-11.942h2.063v4.301l.129-.114a1.93 1.93 0 0 1 .135-.109c.222-.175.539-.34.949-.492.3-.113.672-.17 1.113-.17.293 0 .572.03.838.088.266.059.512.144.738.255.227.111.43.245.61.401.18.157.328.332.445.528.125.226.22.507.287.843.066.336.1.717.1 1.143v5.268h-2.069v-4.682c0-.762-.043-1.273-.129-1.535-.117-.363-.254-.592-.41-.686-.277-.168-.527-.252-.75-.252a1.3 1.3 0 0 0-.451.091c-.164.06-.33.144-.498.25a1.738 1.738 0 0 0-.375.368 3.768 3.768 0 0 0-.375.598c-.098.184-.17.423-.217.718-.047.295-.07.645-.07 1.051v4.079zm11.765 0a7.837 7.837 0 0 1-.181-.663 4.095 4.095 0 0 1-.557.375 5.46 5.46 0 0 1-.556.27 3.888 3.888 0 0 1-1.336.24c-.786 0-1.418-.2-1.899-.603-.547-.469-.82-1.033-.82-1.694 0-.75.379-1.375 1.137-1.875.316-.203.776-.4 1.38-.591a20.04 20.04 0 0 1 2.141-.534l.451-.088v-.914c0-.53-.113-.865-.34-1.002a1.97 1.97 0 0 0-1.03-.304c-.434 0-.804.12-1.108.363-.227.176-.34.451-.34.826v.176h-2.186v-.176c0-.16.045-.337.135-.53.09-.193.223-.4.399-.618a2.38 2.38 0 0 1 .562-.484c.238-.154.506-.29.803-.407.258-.101.536-.178.835-.228.299-.051.614-.077.946-.077.336 0 .65.025.943.074.293.049.56.122.803.22.297.113.55.236.762.369.21.132.367.265.469.398.132.188.235.435.307.741.072.307.109.661.109 1.064v3.175a25.352 25.352 0 0 0 .023 1.102c.016.406.104.871.264 1.395h-2.116zm-.24-4.02c-.62.149-1.14.304-1.555.466-.416.162-.73.321-.94.477-.294.235-.44.577-.44 1.026 0 .234.04.438.123.612a.767.767 0 0 0 .34.372c.101.043.198.078.29.106.091.027.17.04.237.04.262 0 .578-.107.95-.322.124-.07.25-.18.374-.33.125-.151.244-.328.358-.53h-.006c.086-.161.152-.35.199-.566a3.37 3.37 0 0 0 .07-.712v-.639zm-2.261-7.646c.046.46.16.8.34 1.02.113.128.215.228.307.298.092.07.169.105.231.105.063 0 .141-.037.235-.11.094-.075.191-.175.293-.3.074-.11.143-.254.208-.433.064-.18.108-.373.132-.58h1.646c-.055.539-.213 1.007-.475 1.406-.09.133-.208.266-.357.401a3.867 3.867 0 0 1-.539.402c-.324.199-.705.298-1.143.298a2.448 2.448 0 0 1-1.644-.645 2.52 2.52 0 0 1-.395-.456 3.308 3.308 0 0 1-.48-1.406h1.64zm-1.354-.627l2.273-2.508h2.186l-2.63 2.508H145zm9.146 12.293h-2.062v-8.297h2.062v.656l.13-.114a1.93 1.93 0 0 1 .134-.109c.223-.175.54-.34.95-.492.3-.113.671-.17 1.113-.17.293 0 .572.03.838.088.265.059.511.144.738.255.226.111.43.245.61.401.179.157.327.332.445.528.125.226.22.507.287.843.066.336.1.717.1 1.143v5.268h-2.07v-4.682c0-.762-.042-1.273-.128-1.535-.121-.367-.262-.596-.422-.686a2.172 2.172 0 0 0-.387-.187 1.049 1.049 0 0 0-.351-.065 1.3 1.3 0 0 0-.451.091c-.164.06-.33.144-.498.25a1.738 1.738 0 0 0-.375.368 3.768 3.768 0 0 0-.375.598c-.098.184-.17.423-.217.718-.047.295-.07.645-.07 1.051v4.079zm12.317-.838a2.874 2.874 0 0 1-1.008.624 3.757 3.757 0 0 1-1.307.214c-1.14 0-2.033-.39-2.677-1.166-.688-.836-1.032-1.854-1.032-3.053 0-.781.15-1.535.452-2.262.265-.621.707-1.133 1.324-1.535.527-.34 1.193-.51 1.998-.51.305 0 .585.026.84.076a2.665 2.665 0 0 1 1.061.457c.123.086.24.176.349.27v-.574h2.062v6.744c0 .805-.05 1.488-.149 2.05-.1.563-.243.997-.43 1.301-.16.235-.369.458-.625.671-.256.213-.54.396-.852.548a3.87 3.87 0 0 1-.929.296 6.573 6.573 0 0 1-2.17.023 4.62 4.62 0 0 1-1.718-.63 2.263 2.263 0 0 1-.55-.445 2.916 2.916 0 0 1-.36-.583 1.306 1.306 0 0 1-.133-.536v-.181h2.069v.175c0 .188.035.35.105.49a.79.79 0 0 0 .299.325 2.796 2.796 0 0 0 1.313.322c.398 0 .745-.083 1.04-.249.294-.166.545-.433.752-.8.184-.316.276-.994.276-2.033v-.03zm0-3.557c0-.922-.197-1.617-.592-2.086-.441-.527-.889-.79-1.342-.79-.242 0-.48.067-.715.204a2.513 2.513 0 0 0-.668.592 2.639 2.639 0 0 0-.43.935c-.1.377-.15.82-.15 1.333 0 .62.08 1.164.24 1.628.16.465.39.81.686 1.032.172.105.346.19.522.255.175.064.338.096.486.096.25 0 .491-.076.724-.228.232-.153.452-.371.659-.656h-.006a3.23 3.23 0 0 0 .434-.997c.101-.386.152-.826.152-1.318z" fill="#FFF"/><path d="M19.292 15.723l-1.143 1.23V20h-2.197V9.336h2.197v4.834l.967-1.326 2.717-3.508h2.703l-3.786 4.739L24.646 20h-2.615l-2.739-4.277zm8.108-2.784c.561-.673 1.267-1.01 2.117-1.01 1.718 0 2.59.998 2.614 2.995V20h-2.116v-5.017c0-.454-.098-.79-.293-1.007-.196-.217-.52-.326-.974-.326-.62 0-1.07.24-1.348.718V20h-2.117V8.75H27.4v4.19zm5.984 3.025c0-.79.152-1.494.458-2.109a3.317 3.317 0 0 1 1.314-1.425c.572-.334 1.23-.501 1.978-.501 1.157 0 2.077.378 2.761 1.135.225-.142.376-.36.454-.656a4.25 4.25 0 0 0 .117-1.073h1.29c0 1.329-.433 2.188-1.297 2.579.288.6.432 1.284.432 2.05v.154c0 .791-.152 1.494-.458 2.11a3.315 3.315 0 0 1-1.303 1.42c-.564.332-1.225.498-1.982.498-1.093 0-1.98-.339-2.658-1.018-.679-.678-1.045-1.594-1.099-2.746l-.007-.418zm2.124.154c0 .752.141 1.327.425 1.725.283.398.688.597 1.215.597.518 0 .918-.198 1.202-.593.283-.396.424-1.023.424-1.883 0-.732-.141-1.302-.424-1.71-.284-.408-.689-.611-1.216-.611-.518 0-.918.201-1.201.604-.284.403-.425 1.026-.425 1.871zm2.058-7.368h2.307l-2.029 2.27h-1.721l1.443-2.27zm12.012 7.36c0 1.222-.277 2.2-.832 2.934-.554.735-1.302 1.102-2.245 1.102-.8 0-1.447-.278-1.94-.834v3.735h-2.117V12.075h1.963l.073.777c.513-.616 1.182-.923 2.007-.923.976 0 1.736.361 2.278 1.084.542.722.813 1.718.813 2.988v.11zm-2.117-.153c0-.737-.13-1.306-.392-1.707-.261-.4-.64-.6-1.139-.6-.664 0-1.12.254-1.37.762v3.244c.26.523.72.784 1.385.784 1.01 0 1.516-.828 1.516-2.483z" fill="#000"/></g></svg>