<svg width="299" height="197" xmlns="http://www.w3.org/2000/svg"><g fill="none" fill-rule="evenodd"><path fill="#F1F2F2" d="M0 0h299v197H0z"/><path d="M1.987 1.98v193.04h295.026V1.98H1.987zM299 0v197H0V0h299z" fill="#C2C2C2" fill-rule="nonzero"/><path d="M4.887 56.446v-1.207h289.656v1.207H4.887zm0 40.534v-1.207h289.656v1.207H4.887zm0 40.534v-1.207h289.656v1.207H4.887zm0 40.496v-1.207h289.656v1.207H4.887zm34.38-142.416h1.206v159.67h-1.206V35.594zm36.664 0h1.207v159.67h-1.207V35.594zm36.628 0h1.207v159.67h-1.207V35.594zm36.665 0h1.207v159.67h-1.207V35.594zm36.627 0h1.207v159.67h-1.207V35.594zm36.628 0h1.207v159.67h-1.207V35.594zM4.887 117.228v-1.207h289.656v1.207H4.887z" fill="#DFDEDE" fill-rule="nonzero"/><path fill="#2A3052" fill-rule="nonzero" d="M4.887 76.731v-1.206h289.656v1.206z"/><path fill="#DFDEDE" fill-rule="nonzero" d="M4.887 157.762v-1.207h289.656v1.207z"/><path fill="#2A3052" fill-rule="nonzero" d="M259.144 35.594h1.207v159.67h-1.207z"/><path fill="#C2C2C2" fill-rule="nonzero" d="M2.794 35.606V33.19h293.842v2.415z"/><path d="M41.087 138.25a1.81 1.81 0 0 1-2.434-2.68l36.665-33.287a1.81 1.81 0 0 1 2.492.056l24.705 24.516 30.16-33.337a1.81 1.81 0 0 1 2.572-.115l44.09 40.784 42.273-59.112a1.81 1.81 0 0 1 2.945 2.106l-43.467 60.782a1.81 1.81 0 0 1-2.702.276l-44.254-40.934-30.204 33.385a1.81 1.81 0 0 1-2.618.07l-24.83-24.64-35.393 32.13z" fill="#2A3052" fill-rule="nonzero"/><path d="M187.987 147.445h-34.945l-5.382-8.181-5.382 8.181h-34.946c-2.616 0-4.71 2.13-4.71 4.782v24.694c0 2.653 2.131 4.782 4.71 4.782h80.692c2.617 0 4.71-2.13 4.71-4.782v-24.694c0-2.652-2.13-4.782-4.747-4.782z" fill="#E88024"/><ellipse cx="9.045" cy="8.618" rx="8.11" ry="8.443" opacity=".6" transform="translate(214.037 67.51)" fill="#FFF"/><path d="M223.082 85.778c-5.157 0-9.317-4.331-9.317-9.65s4.16-9.65 9.317-9.65 9.318 4.331 9.318 9.65-4.16 9.65-9.318 9.65zm0-2.414c3.802 0 6.904-3.23 6.904-7.236 0-4.007-3.102-7.236-6.904-7.236-3.801 0-6.903 3.229-6.903 7.236s3.102 7.236 6.903 7.236z" fill="#E88024" fill-rule="nonzero"/><ellipse cx="8.97" cy="8.891" rx="8.11" ry="8.443" opacity=".6" transform="translate(30.9 128.019)" fill="#FFF"/><path d="M39.87 146.56c-5.157 0-9.317-4.33-9.317-9.65 0-5.319 4.16-9.65 9.317-9.65s9.317 4.331 9.317 9.65c0 5.32-4.16 9.65-9.317 9.65zm0-2.414c3.802 0 6.903-3.229 6.903-7.236s-3.101-7.236-6.903-7.236c-3.802 0-6.903 3.23-6.903 7.236 0 4.007 3.101 7.236 6.903 7.236z" fill="#E88024" fill-rule="nonzero"/><path d="M22.942 17.595l.014.042c.019 1.095-.315 1.952-1 2.572-.687.62-1.633.93-2.84.93-1.231 0-2.225-.395-2.981-1.187-.757-.791-1.135-1.814-1.135-3.069v-2.036c0-1.25.369-2.273 1.106-3.069.738-.796 1.706-1.194 2.904-1.194 1.25 0 2.227.305 2.931.916.705.61 1.048 1.47 1.029 2.579l-.014.042h-2.001c0-.658-.159-1.147-.476-1.47-.317-.321-.807-.482-1.47-.482-.615 0-1.095.248-1.44.744-.346.495-.518 1.135-.518 1.92v2.05c0 .79.182 1.433.546 1.931.364.498.87.747 1.518.747.616 0 1.075-.16 1.378-.483.303-.321.455-.816.455-1.483h1.994zm3.34-3.263a2.62 2.62 0 0 1 .88-.813 2.322 2.322 0 0 1 1.156-.293c.794 0 1.418.264 1.871.793.454.528.68 1.345.68 2.449v4.524h-2.057v-4.538c0-.592-.095-1.012-.286-1.258-.19-.247-.475-.37-.856-.37-.315 0-.588.05-.82.151a1.417 1.417 0 0 0-.568.434v5.58h-2.058V10h2.058v4.333-.001zm10.633 6.66a4.328 4.328 0 0 1-.193-.55 3.823 3.823 0 0 1-.117-.592 2.82 2.82 0 0 1-.838.923c-.348.244-.761.367-1.24.367-.799 0-1.414-.206-1.847-.617-.432-.411-.648-.971-.648-1.68 0-.748.288-1.327.863-1.738.576-.41 1.416-.616 2.52-.616h1.155v-.606c0-.367-.096-.65-.289-.853-.192-.202-.479-.303-.86-.303-.333 0-.59.081-.771.243-.18.162-.271.384-.271.666h-1.98l-.015-.042c-.032-.644.248-1.2.842-1.667.595-.467 1.371-.7 2.33-.7.916 0 1.657.23 2.223.69.566.46.849 1.12.849 1.98v3.15c0 .357.027.693.08 1.007.055.315.14.628.258.938h-2.051zm-1.881-1.374c.357 0 .676-.09.958-.268.282-.179.475-.385.578-.62v-1.079h-1.156c-.436 0-.766.109-.99.325-.219.206-.34.495-.334.796 0 .258.083.464.25.617.167.152.398.229.694.229zm1.127 3.77h-2.304v-1.699h2.304v1.699zm5.92-10.02l.084 1.007c.245-.367.551-.65.92-.85.369-.199.795-.299 1.279-.299.488 0 .907.108 1.254.324.348.216.61.543.79.98.234-.409.54-.728.915-.959.376-.23.818-.345 1.325-.345.752 0 1.345.267 1.78.8.434.533.651 1.347.651 2.442v4.524h-2.057v-4.531c0-.611-.094-1.036-.282-1.276-.188-.24-.468-.36-.839-.36-.291 0-.543.065-.757.195a1.404 1.404 0 0 0-.511.539c0 .089.002.165.007.229.005.063.007.128.007.193v5.01h-2.05v-4.53c0-.597-.095-1.019-.283-1.265-.187-.247-.47-.37-.845-.37-.277 0-.52.053-.73.158a1.403 1.403 0 0 0-.517.448v5.56h-2.051v-7.625h1.91v.001z" fill="#000" fill-rule="nonzero"/><g fill="#2A3052" fill-rule="nonzero"><path d="M30.672 162.084c-.028-.14-.028-.252-.028-.392-.196.28-.448.504-.756.7-.308.196-.644.28-1.008.28-.588 0-1.036-.14-1.344-.476a1.708 1.708 0 0 1-.476-1.26c0-.56.224-.98.672-1.288.448-.308 1.036-.476 1.792-.476h1.12v-.56c0-.336-.112-.616-.308-.812-.196-.196-.504-.308-.868-.308-.336 0-.616.084-.812.252a.825.825 0 0 0-.308.616h-.98v-.028c-.028-.42.168-.812.588-1.148.42-.336.952-.532 1.596-.532.644 0 1.176.168 1.568.504.392.336.588.812.588 1.428v2.772c0 .196 0 .392.028.588.028.196.056.392.112.56h-1.092v.056c-.026-.16-.054-.318-.084-.476zm-1.695-.336c.364 0 .728-.084 1.008-.28.308-.196.504-.42.588-.672v-.924h-1.147c-.42 0-.756.112-1.008.308a.94.94 0 0 0-.364.756c0 .252.084.448.224.616.168.112.392.196.7.196h-.001zm5.915-6.602v1.467h1.144v.821h-1.144v3.667c0 .293.058.47.176.587.117.117.264.176.47.176.058 0 .116 0 .204-.03a.431.431 0 0 0 .206-.058l.146.763c-.111.07-.229.13-.352.176a2.58 2.58 0 0 1-.469.058 1.437 1.437 0 0 1-1.056-.41c-.264-.265-.381-.705-.381-1.262v-3.667h-.94v-.821h.94v-1.467h1.056zm-14.726 7.526v-8.01h2.558c1.347 0 2.76.72 2.76 1.951s-.764 1.518-1.161 1.762c1.099.286 1.648.985 1.648 2.098 0 1.67-1.42 2.2-2.582 2.2h-3.222l-.001-.001zm1.105-4.627h1.537c.936 0 1.537-.441 1.537-1.398 0-.956-.937-1.065-1.586-1.065h-1.488v2.463zm.002.874v2.877h2.182c.644 0 1.465-.446 1.465-1.438 0-.993-.815-1.44-1.465-1.44h-2.182v.001zm8.96-4.32c.456.013.455.02.754-.012 0 .482-.369 1.128-1.494 1.128-1.126 0-1.748-.506-1.748-1.128l.821.012c.001.407.31.61.927.61.655-.066.619-.198.74-.61zm-1.142-.155h.554l.856-1.002h-.856l-.554 1.002zm19.277 7.729c-.029-.144-.029-.259-.029-.402a2.66 2.66 0 0 1-.775.718c-.316.2-.66.287-1.033.287-.603 0-1.063-.144-1.378-.488a1.751 1.751 0 0 1-.489-1.292c0-.574.23-1.005.69-1.32.459-.317 1.062-.489 1.837-.489h1.148v-.574c0-.345-.115-.632-.316-.833-.2-.2-.516-.315-.89-.315-.344 0-.631.086-.832.258a.846.846 0 0 0-.316.632H44.98v-.03c-.028-.43.173-.832.603-1.176.43-.345.976-.546 1.637-.546.66 0 1.205.173 1.607.517.402.345.603.833.603 1.464v2.842c0 .201 0 .402.029.603.028.201.057.402.115.574h-1.12v.058a16.38 16.38 0 0 0-.086-.488zm-1.738-.345c.373 0 .747-.086 1.034-.287.315-.2.516-.43.603-.689v-.947h-1.178c-.43 0-.775.115-1.033.316a.963.963 0 0 0-.373.775c0 .258.086.459.23.631.172.115.401.201.717.201zm-8.285-2.121c0-.928.197-1.688.59-2.25.394-.563.957-.844 1.66-.844.337 0 .647.056.9.197.253.112.478.31.675.534v-3.178h1.04v8.353h-.843l-.113-.703a1.997 1.997 0 0 1-.675.619c-.298.14-.626.208-.956.197-.703 0-1.237-.253-1.631-.76-.394-.506-.59-1.18-.59-2.025v-.14h-.057zm1.026.114c0 .59.113 1.068.366 1.406.253.337.59.534 1.097.534.31 0 .563-.084.788-.225a1.3 1.3 0 0 0 .506-.59v-2.7a1.474 1.474 0 0 0-.535-.563 1.415 1.415 0 0 0-.759-.225c-.506 0-.872.197-1.097.619-.225.422-.366.956-.366 1.631v.113zm15.411-3.082h1.043v5.9h-1.043v-.875c-.33.427-.876 1.114-1.97.999-1.095-.116-1.772-.975-1.777-1.921-.005-.947.005-4.423 0-4.103h1.034v2.236c0 2.614.575 2.904 1.36 2.904.787 0 1.172-.664 1.353-.886-.009-1.242-.009-2.66 0-4.254z"/><path d="M44.271 155.091v.778h-3.47v-.778h3.47zm1.11-.33h-.75l-1.09-1.38h1.09l.75 1.38zm.792 1h-1.071l1.535-1.449h.848l1.61 1.45h-1.126l-.87-.85-.926.849z"/></g><path d="M278.202 103.188v1.18h.92v.66h-.92v2.948c0 .236.047.377.141.472.1.098.238.15.378.141.047 0 .094 0 .165-.023a.34.34 0 0 0 .165-.048l.118.614a1.57 1.57 0 0 1-.283.141c-.118.024-.26.047-.377.047a1.156 1.156 0 0 1-.85-.33c-.212-.212-.306-.566-.306-1.014v-2.948h-.755v-.66h.755v-1.18h.849zm10.03 1.255h.842v4.768h-.842v-.708c-.267.346-.708.901-1.593.807-.884-.093-1.431-.787-1.435-1.552-.004-.764.004-3.574 0-3.315h.835v1.807c0 2.112.465 2.346 1.1 2.346s.947-.537 1.093-.716c-.007-1.003-.007-2.15 0-3.437zm5.082 1.564c.313-.01.607 0 .796 0 0-1.4-1.11-1.77-2.001-1.77-.892 0-2.002.81-2.002 2.546 0 1.736.974 2.58 2.182 2.536 1.208-.043 1.82-.962 1.82-1.638a13.17 13.17 0 0 1-.795 0c0 .639-.574.974-1.025.974-1.079 0-1.324-1.046-1.324-1.878 0-.833.276-1.86 1.24-1.86.817 0 1.11.634 1.11 1.09h-.001zm-19.802-2.682v1.15h.898v.644h-.898v2.876c0 .23.046.368.138.46a.486.486 0 0 0 .369.138c.046 0 .092 0 .16-.023a.332.332 0 0 0 .162-.046l.115.598a1.58 1.58 0 0 1-.276.138 2.013 2.013 0 0 1-.368.046 1.127 1.127 0 0 1-.829-.322c-.207-.207-.299-.552-.299-.99v-2.875h-.736v-.644h.736v-1.15h.828zm-2.088 3.671h-3.048c0 .566.115.975.346 1.227.304.332.624.452 1.062.408.765-.076.913-.281 1.23-.462l.323.553c-.378.39-.98.585-1.81.585-1.244 0-2.002-1.03-2.052-2.258-.05-1.227.44-2.651 2.052-2.71 1.366.036 1.998.921 1.897 2.657zm-.856-.675c-.008-.863-.355-1.295-1.04-1.295s-1.06.432-1.123 1.295h2.163zm-8.305-3.513h.857v2.844h.516l2.37-2.844h.976l-2.6 3.055 2.78 3.361h-1.065l-2.373-2.872h-.604v2.872h-.857v-6.416zm6.307.749h-.871l1.25-1.17h.669l1.317 1.17h-.927l-.691-.709-.747.709zm2.674-1.904l-.59 1.154h.59l.917-1.154h-.917zm8.847.79v6.878h.842v-3.53c.112-.368.46-.568 1.045-.602.877-.05 1.1.544 1.1.96v3.172h.887a349.36 349.36 0 0 1-.043-3.395c0-.522-.506-1.591-1.85-1.411-.925.24-.858.416-1.14.674-.018-.2-.018-1.098 0-2.696l-.841-.05zm7.451.379h-.638l.817-1.169h1.008l-1.187 1.169z" fill="#2A3052" fill-rule="nonzero"/><path d="M41.611 69.027h1.006l.866-5.686h-1.031l-.841 5.686zm2.245-8.252l-.143 1.061h-1.052l.18-1.06 1.015-.001zm-9.902 8.15h.955l.82-5.389h-.977l-.798 5.389zm-7.399-5.355h.956c.203-.997-.28-2.528-2.44-2.479-2.162.049-2.851 1.755-3.105 2.35-.254.594-.344 1.98-.43 2.692-.085.712.307 2.43 2.079 2.649 1.772.218 3.273-.89 3.47-2.47h-.952c-.171.487-.293 1.879-2.309 1.678-1.097-.108-1.359-1.358-1.264-2.11.095-.75.144-1.579.454-2.44.374-1.04 1.19-1.564 1.998-1.564 1.128 0 1.642.565 1.543 1.694zm21.789 4.027c.059.143.126.295.285.634-1.2.915-2.582.79-3.227.412-.972-.57-.972-1.628-.967-2.446.006-1.044.773-2.985 2.91-2.985 2.135 0 1.784 2.307 1.68 2.985-.218 0-1.396.022-3.533.064-.198 2.537 1.718 1.97 2.852 1.335v.001zm-.129-2.04c.125-1.003-.183-1.503-.923-1.503-1.11 0-1.499 1.176-1.623 1.502h2.546v.001zM39.511 62h1.012l-.207 1.361h1.065l-.104.742h-1.052l-.532 3.449c-.041.276-.086.786.878.597.02.267.031.497.036.692-.382.26-2.17.553-1.926-1.29l.5-3.438-.866-.01.121-.742h.866l.21-1.361h-.001zm-4.431.445h.7l.088-.319c.555-.162.847-.445.876-.85.044-.607-.476-.915-1.41-.915l-.124.545c.51-.035.766.088.766.37 0 .423-.683.423-.813.423a11.63 11.63 0 0 0-.083.746zm13.87-.293v.081h-.832l-.652-.744-.889.786h-.801v-.123l1.465-1.263h.607l1.102 1.263zm5.253 1.125h.939l-.773 5.592h-.918c.037-.397.055-.67.055-.82-.402.643-.989.948-1.758.914-1.155-.051-1.871-.742-1.573-2.357l.495-3.301h.963c-.332 2.183-.498 3.38-.498 3.591 0 .318-.16 1.26.822 1.26s1.43-.46 1.647-.86c.105-.606.304-1.945.599-4.019zm-25.097-2.432h.971c-.323 1.86-.485 2.904-.485 3.135.611-.51 1.24-.764 1.887-.764.97 0 1.524.862 1.524 1.528 0 .444-.185 1.8-.554 4.07h-.97c.334-2.262.5-3.49.5-3.688 0-.297-.026-1.033-.806-1.146-.779-.113-1.43.469-1.701.764l-.582 4.113h-.983l1.2-8.012h-.001z" fill="#6D6E71" fill-rule="nonzero"/><path d="M173.821 166.555h-2.504v-8.074h2.504v8.074zm0 4.248h-2.504v-2.17h2.504v2.17zm-24.472-9.606h2.003l.1 1.459c.82-1.224 1.885-1.768 3.193-1.632.757.078 2.355.326 2.831 2.477.175.788.137 2.12.124 3.931-.005.703-.005 1.92 0 3.651h-2.198v-6.193c0-.728-.203-1.54-.814-1.849-.84-.423-2.42-.245-3.054.82v7.222h-2.185v-9.886zm-7.766 2.815c-.71-.005-1.42-.005-2.131 0 0-1.07.765-3.009 3.826-3.009 3.062 0 3.797 2.104 3.88 2.556.083.453-.213 6.803.427 7.525l-2.274.002c-.188-.643-.282-1.118-.282-1.426-.355.434-.965 1.225-1.903 1.516-.938.29-3.068.447-3.94-1.597-.575-1.347-.208-2.863.872-3.557 1.785-1.147 4.239-.763 4.97-.763.095-2.046-.516-2.522-1.902-2.522-.924 0-1.439.425-1.543 1.275zm3.445 2.645a36.904 36.904 0 0 0-2.246.019c-.893.079-1.688.739-1.62 1.68.08 1.12 1.356 1.327 2.354 1.003.837-.272 1.421-.972 1.512-1.27v-1.432zm21.593-4.573l.223-1.257h1.815v10.06c.007 3.507-3.93 4.85-7.548 3.099.208-1.035.322-1.613.342-1.735 1.576.526 5.499 1.844 5-2.522-2.252 2.307-4.801.91-5.682-.63-.973-1.701-1.607-6.774 1.524-8.142 1.803-.788 3.245-.413 4.326 1.127zm-.189 1.534c-.428-.648-.702-1.189-2.141-1.189s-2.34 1.765-2.027 4.475c.312 2.71 3.253 2.71 4.168.996v-4.282zm-37.606-6.809h2.113c.039 3.464.058 5.352.058 5.662.515-.8 2.01-1.89 3.603-1.396 2.53.783 2.414 2.433 2.53 3.54.076.738.076 2.894 0 6.468h-2.192c.06-2.95.06-5.046 0-6.288.08-2.151-2.596-2.799-4-.876l.06 7.164h-2.173v-14.274h.001zm-1.391.924v1.68h-4.127v11.57h-2.29v-11.57h-3.87v-1.68h10.287zm17.109-.133h1.648c-.08.787-.632 2.043-2.906 2.043s-3.066-1.426-2.893-2.043l1.612-.023c.13.638.56.957 1.289.957.729 0 1.146-.311 1.25-.934zm-1.857-.323h1.185l1.442-1.724h-1.593l-1.034 1.724z" fill="#FFF" fill-rule="nonzero"/></g></svg>