<svg width="299" height="197" xmlns="http://www.w3.org/2000/svg"><g fill="none"><path fill="#F1F1F2" d="M0 0h299v197H0z"/><path d="M1.987 1.98v193.04h295.026V1.98H1.987zM299 0v197H0V0h299z" fill="#C2C2C2"/><path d="M4.58 54.993v-1.212h290.408v1.212H4.58zm0 20.08V73.86h290.408v1.212H4.58zm0 60.274v-1.212h290.408v1.212H4.58z" fill="#DEDEDD"/><path d="M4.58 155.425v-1.212h3.598v1.212H4.58zm7.196 0v-1.212h3.598v1.212h-3.598zm7.196 0v-1.212h3.598v1.212h-3.598zm7.197 0v-1.212h3.598v1.212h-3.598zm7.196 0v-1.212h3.598v1.212h-3.598zm7.196 0v-1.212h3.598v1.212h-3.598zm7.197 0v-1.212h3.598v1.212h-3.598zm7.196 0v-1.212h3.598v1.212h-3.598zm7.196 0v-1.212h3.598v1.212H62.15zm7.196 0v-1.212h3.599v1.212h-3.599zm7.197 0v-1.212h3.598v1.212h-3.598zm7.196 0v-1.212h3.598v1.212H83.74zm7.196 0v-1.212h3.599v1.212h-3.599zm7.197 0v-1.212h3.598v1.212h-3.598zm7.196 0v-1.212h3.598v1.212h-3.598zm7.196 0v-1.212h3.599v1.212h-3.599zm7.197 0v-1.212h3.598v1.212h-3.598zm7.196 0v-1.212h3.598v1.212h-3.598zm7.196 0v-1.212h3.599v1.212h-3.599zm7.197 0v-1.212h3.598v1.212h-3.598zm7.196 0v-1.212h3.598v1.212h-3.598zm7.196 0v-1.212h3.598v1.212h-3.598zm7.197 0v-1.212h3.598v1.212h-3.598zm7.196 0v-1.212h3.598v1.212h-3.598zm7.196 0v-1.212h3.598v1.212h-3.598zm7.197 0v-1.212h3.598v1.212h-3.598zm7.196 0v-1.212h3.598v1.212h-3.598zm7.196 0v-1.212h3.598v1.212h-3.598zm7.197 0v-1.212h3.598v1.212h-3.598zm7.196 0v-1.212h3.598v1.212h-3.598zm7.196 0v-1.212h3.598v1.212h-3.598zm7.196 0v-1.212h3.599v1.212h-3.599zm7.197 0v-1.212h3.598v1.212h-3.598zm7.196 0v-1.212h3.598v1.212h-3.598zm7.196 0v-1.212h3.599v1.212h-3.599zm7.197 0v-1.212h3.598v1.212h-3.598zm7.196 0v-1.212h3.598v1.212h-3.598zm7.196 0v-1.212h3.599v1.212h-3.599zm7.197 0v-1.212h3.598v1.212h-3.598zm7.196 0v-1.212h3.598v1.212h-3.598zm7.196 0v-1.212h2.556v1.212h-2.556z" fill="#293052"/><path d="M4.58 175.504v-1.212h290.408v1.212H4.58zM39.059 34.308h1.212V192.59h-1.212V34.308zm36.75 0h1.212V192.59H75.81V34.308zm36.75 0h1.213V192.59h-1.212V34.308zm36.713 0h1.212V192.59h-1.212V34.308zm36.751 0h1.212V192.59h-1.212V34.308zm36.75 0h1.213V192.59h-1.213V34.308zm36.751 0h1.212V192.59h-1.212V34.308zM4.58 115.268v-1.212h290.408v1.212H4.58zm0-20.08v-1.211h290.408v1.212H4.58z" fill="#DEDEDD"/><path fill="#C2C2C2" d="M2 30v-2h296v2z"/><path d="M190.555 84.764a1.8 1.8 0 0 1 2.7.685l32.057 68.609a1.8 1.8 0 1 1-3.26 1.523l-31.126-66.616-40.66 30.06a1.8 1.8 0 0 1-2.095.032l-41.895-29.075-28.651 26.012a1.8 1.8 0 0 1-2.363.049l-36.75-30.687a1.8 1.8 0 1 1 2.306-2.762l35.548 29.683 28.55-25.921a1.8 1.8 0 0 1 2.236-.146l42.012 29.156 41.391-30.602z" fill="#293052"/><path d="M255.777 116.442l.682-6.592h5.98v1.44h-4.58l-.378 3.372a3.58 3.58 0 0 1 .832-.455c.34-.124.699-.188 1.06-.19a3.216 3.216 0 0 1 2.612 1.1 4.322 4.322 0 0 1 .946 2.954 4.208 4.208 0 0 1-.984 2.88 3.556 3.556 0 0 1-2.801 1.098 3.782 3.782 0 0 1-2.536-.833 2.88 2.88 0 0 1-.984-2.425h1.476c-.036.563.17 1.115.568 1.516.4.37.932.561 1.476.53a1.892 1.892 0 0 0 1.59-.72 3.147 3.147 0 0 0 .416-2.121 2.957 2.957 0 0 0-.568-1.895 1.892 1.892 0 0 0-1.59-.757 2.534 2.534 0 0 0-1.4.303c-.305.21-.532.517-.643.871l-1.174-.076zm6.018 20.572h1.628v1.288h-1.628v2.765h-1.627v-2.803h-5.375v-.91l5.261-8.296h1.703v7.956h.038zm-5.26 0h3.784v-5.645.417l-3.785 5.228zm6.547 44.06h-7.759v-1.137l3.785-4.357a10.796 10.796 0 0 0 1.438-1.856 2.92 2.92 0 0 0 .379-1.402 2.237 2.237 0 0 0-.53-1.515 1.74 1.74 0 0 0-1.4-.606 2.383 2.383 0 0 0-1.817.644 2.54 2.54 0 0 0-.606 1.78h-1.438a3.373 3.373 0 0 1 1.022-2.614 4.01 4.01 0 0 1 2.952-1.06 3.48 3.48 0 0 1 2.574.947c.632.63.975 1.494.946 2.386a3.791 3.791 0 0 1-.568 1.97 12.463 12.463 0 0 1-1.627 2.122l-3.142 3.41h5.753v1.287h.038zm0-110.586a16.785 16.785 0 0 0-2.914 4.584 20.55 20.55 0 0 0-1.098 4.85v1.288h-1.703v-1.288a17.5 17.5 0 0 1 1.4-5.153 19.4 19.4 0 0 1 2.726-4.357h-6.51V69.2h8.1v1.288zm-.454-17.616a2.654 2.654 0 0 1-.53 1.629 3.104 3.104 0 0 1-1.438 1.06 3.785 3.785 0 0 1 1.665 1.137c.404.505.618 1.135.606 1.78a3.07 3.07 0 0 1-1.098 2.54 4.992 4.992 0 0 1-5.64 0 3.108 3.108 0 0 1-1.059-2.54 2.805 2.805 0 0 1 .606-1.78 3.52 3.52 0 0 1 1.627-1.136 3.028 3.028 0 0 1-1.4-1.061 2.73 2.73 0 0 1-.492-1.63 3.07 3.07 0 0 1 .984-2.424 3.778 3.778 0 0 1 2.573-.871 3.782 3.782 0 0 1 2.574.871 3.032 3.032 0 0 1 1.022 2.425zm-1.287 5.569a2.16 2.16 0 0 0-.643-1.63 2.27 2.27 0 0 0-1.628-.643 2.156 2.156 0 0 0-2.27 2.235 2.08 2.08 0 0 0 .643 1.591 2.647 2.647 0 0 0 3.293 0c.413-.408.633-.973.605-1.553zm-.19-5.531a2.047 2.047 0 0 0-.567-1.478 2.005 2.005 0 0 0-2.8 0 2.085 2.085 0 0 0-.53 1.478c-.031.544.16 1.077.53 1.477a2.041 2.041 0 0 0 2.8 0c.384-.394.589-.928.568-1.477z" fill="#808184"/><path d="M188.65 147.07h-35.047l-5.526-8.07-5.299 8.07h-35.047a4.733 4.733 0 0 0-4.731 4.735v24.511a4.733 4.733 0 0 0 4.731 4.736h80.92a4.729 4.729 0 0 0 3.418-1.346 4.738 4.738 0 0 0 1.426-3.39v-24.473a4.738 4.738 0 0 0-1.412-3.414 4.729 4.729 0 0 0-3.433-1.36z" fill="#E88024"/><ellipse cx="8.43" cy="8.858" rx="8.137" ry="8.373" opacity=".6" transform="translate(214.95 145.962)" fill="#FFF"/><path d="M223.38 164.404c-5.172 0-9.35-4.299-9.35-9.585 0-5.285 4.178-9.584 9.35-9.584 5.17 0 9.349 4.299 9.349 9.584 0 5.286-4.178 9.585-9.35 9.585zm0-2.424c3.816 0 6.925-3.198 6.925-7.16 0-3.963-3.109-7.161-6.926-7.161-3.816 0-6.925 3.198-6.925 7.16 0 3.963 3.109 7.16 6.925 7.16z" fill="#E88024"/><path d="M259.903 88.9a5.294 5.294 0 0 1 1.211 0 4 4 0 0 1 .984.341l-.34 1.25-.833-.34a3.781 3.781 0 0 0-1.022 0 2.46 2.46 0 0 0-2.082 1.022 4.29 4.29 0 0 0-.795 2.69 3.784 3.784 0 0 1 1.212-.72c.47-.18.971-.27 1.476-.265a3.216 3.216 0 0 1 2.573 1.099 4.17 4.17 0 0 1 .947 2.803 4.473 4.473 0 0 1-1.022 3.031 3.405 3.405 0 0 1-2.725 1.174 3.783 3.783 0 0 1-2.915-1.288 5.194 5.194 0 0 1-1.135-3.599v-2.273a5.383 5.383 0 0 1 1.287-3.788 4.085 4.085 0 0 1 3.179-1.137zm-.568 5.418a2.76 2.76 0 0 0-1.4.34c-.384.21-.7.526-.909.91v.985c-.05.903.204 1.796.72 2.538a2.12 2.12 0 0 0 1.74.91 1.74 1.74 0 0 0 1.666-.91 3.791 3.791 0 0 0 .568-2.084 3.07 3.07 0 0 0-.568-1.97 1.967 1.967 0 0 0-1.817-.757v.038z" fill="#808184"/><path fill="#E88024" d="M246.278 145.424h28.575v18.79h-28.575z"/><path fill="#E88024" d="M249.76 154.82l-3.331 3.333-5.185-3.334 5.185-3.333z"/><path d="M257.594 153.683h1.363c.462.033.916-.132 1.249-.455.293-.348.442-.795.416-1.25a1.63 1.63 0 0 0-.416-1.174 1.588 1.588 0 0 0-1.211-.266 1.664 1.664 0 0 0-1.136.38c-.3.253-.466.63-.454 1.022h-2.347a2.729 2.729 0 0 1 1.06-2.31 4.274 4.274 0 0 1 2.8-.91 4.614 4.614 0 0 1 2.953.871 3.07 3.07 0 0 1 1.098 2.539 2.54 2.54 0 0 1-.492 1.477c-.349.481-.82.86-1.363 1.099a3.028 3.028 0 0 1 1.514 1.098c.353.498.538 1.095.53 1.705a3.108 3.108 0 0 1-1.211 2.576 4.804 4.804 0 0 1-3.066.947 4.69 4.69 0 0 1-2.876-.87 2.805 2.805 0 0 1-1.136-2.501h2.498c-.01.432.17.848.492 1.136.344.304.79.467 1.25.455.484.032.96-.132 1.324-.455a1.67 1.67 0 0 0 .492-1.25 1.82 1.82 0 0 0-.454-1.402 1.967 1.967 0 0 0-1.4-.454h-1.477v-2.008z" fill="#FFF"/><path fill="#293052" d="M247.564 126.292v-1.212h22.899v1.212z"/><path d="M227.84 18.433c0-.463-.166-.852-.498-1.165-.332-.314-.917-.58-1.755-.8-1.038-.258-1.85-.637-2.432-1.138-.582-.5-.874-1.13-.874-1.888 0-.8.314-1.466.941-2 .627-.533 1.441-.8 2.443-.8 1.076 0 1.933.305 2.572.916.64.61.95 1.323.93 2.137l-.02.042h-1.32c0-.58-.203-1.06-.608-1.439-.405-.379-.923-.568-1.554-.568-.646 0-1.14.157-1.485.47-.344.314-.516.72-.516 1.221 0 .445.19.816.565 1.113.377.297.99.558 1.836.782 1.03.267 1.813.66 2.35 1.18.54.519.808 1.16.808 1.923 0 .823-.324 1.485-.972 1.986-.648.5-1.494.751-2.537.751-.988 0-1.86-.276-2.615-.828-.756-.552-1.122-1.292-1.098-2.218l.014-.042h1.32c0 .64.243 1.136.73 1.484.48.346 1.058.53 1.65.523.654 0 1.172-.147 1.553-.442.382-.295.572-.695.572-1.2zm2.83-1.292c0-1.123.303-2.048.911-2.776.61-.727 1.434-1.091 2.478-1.091 1.053 0 1.884.363 2.495 1.088.61.725.916 1.652.916 2.78v.154c0 1.132-.304 2.059-.912 2.78-.609.72-1.437 1.08-2.485 1.08-1.048 0-1.878-.361-2.488-1.084-.61-.723-.916-1.649-.916-2.776v-.155zm1.382.155c0 .805.17 1.469.508 1.993.34.524.844.786 1.513.786.66 0 1.16-.262 1.502-.786.341-.524.512-1.188.512-1.993v-.155c0-.795-.172-1.457-.516-1.986-.344-.529-.848-.793-1.512-.793-.66 0-1.16.264-1.499.793-.339.529-.508 1.19-.508 1.986v.155zm1.424-7.082h1.11l2.02 1.804-.013.042h-1.39l-1.172-1.102-1.172 1.102h-1.397l-.014-.042 2.028-1.804zM237.106 9h1.48l-1.43 1.824h-1.034L237.105 9zm8.646 11.075c.426 0 .798-.141 1.116-.425.318-.283.477-.63.477-1.042h1.25l.02.042c.02.655-.26 1.237-.842 1.744a2.976 2.976 0 0 1-2.02.762c-1.068 0-1.89-.363-2.472-1.088-.58-.725-.87-1.628-.87-2.71v-.294c0-1.071.291-1.971.874-2.699.583-.727 1.405-1.091 2.467-1.091.847 0 1.54.262 2.081.786.54.524.801 1.168.783 1.93l-.014.042h-1.257c0-.463-.15-.857-.452-1.182a1.49 1.49 0 0 0-1.14-.488c-.68 0-1.174.263-1.485.79-.312.526-.467 1.163-.467 1.912v.295c0 .763.153 1.406.46 1.93.306.524.803.786 1.491.786zm9.328-.19a2.566 2.566 0 0 1-.92.941c-.374.22-.807.33-1.298.33-.828 0-1.474-.264-1.937-.793-.463-.529-.695-1.352-.695-2.47v-4.479h1.383v4.492c0 .81.12 1.367.358 1.67.238.305.61.457 1.116.457.49 0 .897-.1 1.217-.298.32-.2.563-.481.727-.846v-5.475h1.382v7.595h-1.242l-.09-1.123v-.001zm3.025-2.744c0-1.123.304-2.048.912-2.776.61-.727 1.435-1.091 2.478-1.091 1.053 0 1.885.363 2.495 1.088.61.725.916 1.652.916 2.78v.154c0 1.132-.304 2.059-.912 2.78-.609.72-1.437 1.08-2.485 1.08-1.048 0-1.877-.361-2.488-1.084-.61-.723-.916-1.649-.916-2.776v-.155zm1.383.155c0 .805.17 1.469.51 1.993.338.524.842.786 1.511.786.66 0 1.16-.262 1.502-.786.342-.524.512-1.188.512-1.993v-.155c0-.795-.172-1.457-.515-1.986-.344-.529-.849-.793-1.513-.793-.66 0-1.16.264-1.498.793-.34.529-.51 1.19-.51 1.986v.155h.001zm1.424-7.082h1.11l2.02 1.804-.013.042h-1.39l-1.172-1.102-1.172 1.102h-1.397l-.014-.042 2.028-1.804zM264.542 9h1.48l-1.432 1.824h-1.03L264.54 9h.001zm3.55 12.009h-1.382v-7.595h1.383v7.595zm0-9.539h-1.382v-1.41h1.383v1.41z" fill="#2A3052"/><path d="M272.244 14.729H271v-1.312h1.278v1.312h-.035.001zm0 5.627H271v-1.312h1.278v1.312h-.035.001zm5.42-4.212l.552-5.144h4.695v1.14h-3.452l-.311 2.623c.203-.143.423-.259.656-.345.274-.047.554-.047.828 0a2.52 2.52 0 0 1 2.037.828 3.45 3.45 0 0 1 .725 2.314 3.452 3.452 0 0 1-.76 2.278 2.796 2.796 0 0 1-2.209.863 3.004 3.004 0 0 1-2.21-.863 2.244 2.244 0 0 1-.759-1.899h1.14c-.023.437.14.864.448 1.174.324.336.778.513 1.243.483a1.485 1.485 0 0 0 1.381-.655c.324-.451.482-1 .449-1.554a2.348 2.348 0 0 0-.449-1.485 1.485 1.485 0 0 0-1.243-.587 2 2 0 0 0-1.07.208 1.277 1.277 0 0 0-.483.69l-1.209-.069h.001z" fill="#293052"/><path d="M20.977 18.155c0-.415-.147-.733-.44-.956-.293-.222-.82-.456-1.582-.703-.762-.246-1.365-.49-1.809-.728-1.21-.655-1.816-1.536-1.816-2.644 0-.577.162-1.09.487-1.542.324-.452.79-.805 1.399-1.059.607-.253 1.29-.38 2.047-.38.761 0 1.44.138 2.036.413.596.276 1.058.666 1.388 1.169.33.503.494 1.074.494 1.713h-2.197c0-.488-.154-.867-.462-1.138-.307-.271-.74-.407-1.296-.407-.537 0-.955.114-1.252.34a1.074 1.074 0 0 0-.447.898c0 .347.174.637.524.871.349.235.863.455 1.541.66 1.25.376 2.16.842 2.732 1.399.572.556.857 1.25.857 2.08 0 .922-.349 1.646-1.047 2.171-.698.525-1.638.788-2.82.788-.82 0-1.567-.15-2.241-.45-.674-.301-1.188-.712-1.542-1.235-.354-.522-.531-1.128-.531-1.816h2.205c0 1.176.703 1.765 2.109 1.765.522 0 .93-.106 1.223-.319.293-.212.44-.509.44-.89zm3.222-1.238c0-.786.152-1.486.454-2.102a3.324 3.324 0 0 1 1.308-1.428c.569-.337 1.229-.505 1.98-.505 1.07 0 1.943.327 2.62.981.676.655 1.053 1.543 1.13 2.666l.016.542c0 1.216-.34 2.191-1.019 2.926-.678.735-1.589 1.103-2.731 1.103-1.143 0-2.055-.367-2.736-1.099s-1.022-1.729-1.022-2.988v-.096zm2.117.154c0 .752.142 1.327.425 1.725.283.398.688.597 1.216.597.512 0 .913-.196 1.2-.59.289-.393.433-1.021.433-1.886 0-.737-.144-1.308-.432-1.713-.288-.406-.694-.608-1.216-.608-.518 0-.918.201-1.201.604-.283.403-.425 1.027-.425 1.871zm1.01-6.782h1.195l2.087 1.685h-1.582l-1.106-.923-1.106.923h-1.575l2.088-1.685zM31.26 9h1.692l-1.663 1.992h-1.223L31.26 9zm5.625 11.953V10.29h3.281c.938 0 1.776.211 2.516.634a4.418 4.418 0 0 1 1.732 1.801c.415.78.623 1.664.623 2.655v.491c0 .991-.204 1.873-.612 2.644A4.38 4.38 0 0 1 42.7 20.31c-.742.424-1.58.64-2.512.644h-3.303zm2.197-8.884v7.119h1.062c.86 0 1.516-.28 1.97-.842.454-.562.686-1.365.696-2.41v-.564c0-1.084-.225-1.905-.674-2.465-.449-.559-1.106-.838-1.97-.838h-1.084zm16.377.264c0 .888-.175 1.546-.524 1.973-.349.428-.897.68-1.644.758v5.89h-1.992l-.059-.807c-.522.635-1.245.953-2.168.953-.85 0-1.498-.245-1.944-.733-.447-.488-.675-1.203-.685-2.146v-5.193h2.117v5.12c0 .825.376 1.238 1.127 1.238.718 0 1.211-.25 1.48-.747v-5.61h2.124v1.017c.332-.073.565-.224.7-.454.134-.23.2-.65.2-1.26h1.268zm-.161 4.584c0-.79.152-1.494.458-2.109a3.317 3.317 0 0 1 1.314-1.424c.572-.335 1.23-.502 1.978-.502 1.157 0 2.077.378 2.761 1.135.225-.142.376-.36.454-.655a4.25 4.25 0 0 0 .117-1.073h1.29c0 1.328-.433 2.187-1.297 2.578.288.6.432 1.284.432 2.05v.154c0 .791-.152 1.494-.458 2.11a3.315 3.315 0 0 1-1.303 1.42c-.564.333-1.225.499-1.981.499-1.094 0-1.98-.34-2.66-1.018-.678-.68-1.044-1.595-1.098-2.747l-.007-.418zm2.124.154c0 .752.141 1.327.425 1.725.283.398.688.597 1.215.597.518 0 .918-.198 1.202-.593.283-.396.424-1.023.424-1.883 0-.732-.141-1.302-.424-1.71-.284-.407-.689-.611-1.216-.611-.518 0-.918.201-1.201.604-.284.403-.425 1.027-.425 1.871zm2.058-7.368h2.307l-2.029 2.27h-1.72l1.442-2.27zm7.112 11.25h-2.124v-7.925h2.124v7.925zm-2.249-9.975c0-.318.106-.58.319-.784.212-.205.502-.308.868-.308.361 0 .65.103.864.308.215.205.322.466.322.784 0 .322-.108.585-.326.79-.217.206-.504.308-.86.308-.357 0-.644-.102-.86-.307a1.04 1.04 0 0 1-.327-.791z" fill="#000"/><path d="M129.078 170.059v-10.225h-3.867v-1.26h9.85v1.26h-3.809v10.225h-2.174zm9.012 0h-2.063v-11.942h2.063v4.301l.129-.114a1.93 1.93 0 0 1 .135-.109c.222-.175.539-.34.949-.492.3-.113.672-.17 1.113-.17.293 0 .572.03.838.088.266.059.512.144.738.255.227.111.43.245.61.401.18.157.328.332.445.528.125.226.22.507.287.843.066.336.1.717.1 1.143v5.268h-2.069v-4.682c0-.762-.043-1.273-.129-1.535-.117-.363-.254-.592-.41-.686-.277-.168-.527-.252-.75-.252a1.3 1.3 0 0 0-.451.091c-.164.06-.33.144-.498.25a1.738 1.738 0 0 0-.375.368 3.768 3.768 0 0 0-.375.598c-.098.184-.17.423-.217.718-.047.295-.07.645-.07 1.051v4.079zm11.765 0a7.837 7.837 0 0 1-.181-.663 4.095 4.095 0 0 1-.557.375 5.46 5.46 0 0 1-.556.27 3.888 3.888 0 0 1-1.336.24c-.786 0-1.418-.2-1.899-.603-.547-.469-.82-1.033-.82-1.694 0-.75.379-1.375 1.137-1.875.316-.203.776-.4 1.38-.591a20.04 20.04 0 0 1 2.141-.534l.451-.088v-.914c0-.53-.113-.865-.34-1.002a1.97 1.97 0 0 0-1.03-.304c-.434 0-.804.12-1.108.363-.227.176-.34.451-.34.826v.176h-2.186v-.176c0-.16.045-.337.135-.53.09-.193.223-.4.399-.618a2.38 2.38 0 0 1 .562-.484c.238-.154.506-.29.803-.407.258-.101.536-.178.835-.228.299-.051.614-.077.946-.077.336 0 .65.025.943.074.293.049.56.122.803.22.297.113.55.236.762.369.21.132.367.265.469.398.132.188.235.435.307.741.072.307.109.661.109 1.064v3.175a25.352 25.352 0 0 0 .023 1.102c.016.406.104.871.264 1.395h-2.116zm-.24-4.02c-.62.149-1.14.304-1.555.466-.416.162-.73.321-.94.477-.294.235-.44.577-.44 1.026 0 .234.04.438.123.612a.767.767 0 0 0 .34.372c.101.043.198.078.29.106.091.027.17.04.237.04.262 0 .578-.107.95-.322.124-.07.25-.18.374-.33.125-.151.244-.328.358-.53h-.006c.086-.161.152-.35.199-.566a3.37 3.37 0 0 0 .07-.712v-.639zm-2.261-7.646c.046.46.16.8.34 1.02.113.128.215.228.307.298.092.07.169.105.231.105.063 0 .141-.037.235-.11.094-.075.191-.175.293-.3.074-.11.143-.254.208-.433.064-.18.108-.373.132-.58h1.646c-.055.539-.213 1.007-.475 1.406-.09.133-.208.266-.357.401a3.867 3.867 0 0 1-.539.402c-.324.199-.705.298-1.143.298a2.448 2.448 0 0 1-1.644-.645 2.52 2.52 0 0 1-.395-.456 3.308 3.308 0 0 1-.48-1.406h1.64zm-1.354-.627l2.273-2.508h2.186l-2.63 2.508H146zm9.146 12.293h-2.062v-8.297h2.062v.656l.13-.114a1.93 1.93 0 0 1 .134-.109c.223-.175.54-.34.95-.492.3-.113.671-.17 1.113-.17.293 0 .572.03.838.088.265.059.511.144.738.255.226.111.43.245.61.401.179.157.327.332.445.528.125.226.22.507.287.843.066.336.1.717.1 1.143v5.268h-2.07v-4.682c0-.762-.042-1.273-.128-1.535-.121-.367-.262-.596-.422-.686a2.172 2.172 0 0 0-.387-.187 1.049 1.049 0 0 0-.351-.065 1.3 1.3 0 0 0-.451.091c-.164.06-.33.144-.498.25a1.738 1.738 0 0 0-.375.368 3.768 3.768 0 0 0-.375.598c-.098.184-.17.423-.217.718-.047.295-.07.645-.07 1.051v4.079zm12.317-.838a2.874 2.874 0 0 1-1.008.624 3.757 3.757 0 0 1-1.307.214c-1.14 0-2.033-.39-2.677-1.166-.688-.836-1.032-1.854-1.032-3.053 0-.781.15-1.535.452-2.262.265-.621.707-1.133 1.324-1.535.527-.34 1.193-.51 1.998-.51.305 0 .585.026.84.076a2.665 2.665 0 0 1 1.061.457c.123.086.24.176.349.27v-.574h2.062v6.744c0 .805-.05 1.488-.149 2.05-.1.563-.243.997-.43 1.301-.16.235-.369.458-.625.671-.256.213-.54.396-.852.548a3.87 3.87 0 0 1-.929.296 6.573 6.573 0 0 1-2.17.023 4.62 4.62 0 0 1-1.718-.63 2.263 2.263 0 0 1-.55-.445 2.916 2.916 0 0 1-.36-.583 1.306 1.306 0 0 1-.133-.536v-.181h2.069v.175c0 .188.035.35.105.49a.79.79 0 0 0 .299.325 2.796 2.796 0 0 0 1.313.322c.398 0 .745-.083 1.04-.249.294-.166.545-.433.752-.8.184-.316.276-.994.276-2.033v-.03zm0-3.557c0-.922-.197-1.617-.592-2.086-.441-.527-.889-.79-1.342-.79-.242 0-.48.067-.715.204a2.513 2.513 0 0 0-.668.592 2.639 2.639 0 0 0-.43.935c-.1.377-.15.82-.15 1.333 0 .62.08 1.164.24 1.628.16.465.39.81.686 1.032.172.105.346.19.522.255.175.064.338.096.486.096.25 0 .491-.076.724-.228.232-.153.452-.371.659-.656h-.006a3.23 3.23 0 0 0 .434-.997c.101-.386.152-.826.152-1.318z" fill="#FFF"/></g></svg>