<svg width="299" height="197" xmlns="http://www.w3.org/2000/svg"><g fill="none" fill-rule="evenodd"><path fill="#F1F2F2" d="M0 0h299v197H0z"/><path d="M1.987 1.98v193.04h295.026V1.98H1.987zM299 0v197H0V0h299z" fill="#C2C2C2" fill-rule="nonzero"/><path d="M2.926 53.113V51.89H296.51v1.223H2.926zm0 20.598v-1.223H296.51v1.223H2.926zm0 20.56v-1.224H296.51v1.224H2.926zm0 41.157v-1.223H296.51v1.223H2.926zm0 20.56v-1.223H296.51v1.223H2.926zm0 20.56v-1.223H296.51v1.223H2.926zM37.772 31.942h1.223v162.126h-1.223V31.942zm37.162 0h1.223v162.126h-1.223V31.942zm37.124 0h1.223v162.126h-1.223V31.942zm37.162 0h1.223v162.126h-1.223V31.942zm37.124 0h1.223v162.126h-1.223V31.942zm37.124 0h1.224v162.126h-1.224V31.942zm37.162 0h1.224v162.126h-1.224V31.942z" fill="#DFDEDE" fill-rule="nonzero"/><path fill="#C2C2C2" d="M1 30v-2h297v2z"/><path d="M188.509 147.514h-35.42l-5.454-8.308-5.455 8.308h-35.42c-2.652 0-4.773 2.162-4.773 4.855v25.074c0 2.693 2.16 4.855 4.773 4.855h81.787c2.652 0 4.773-2.162 4.773-4.855v-25.074c0-2.693-2.16-4.855-4.811-4.855z" fill="#E88024"/><g transform="translate(5 91)"><path fill="#2A3052" d="M.262 25.411v-1.485h288.35v1.485z"/><path d="M70.147 50.429a1.818 1.818 0 0 1-2.43.253L34.255 26.135a1.818 1.818 0 1 1 2.15-2.932l32.134 23.572 33.52-37.454a1.818 1.818 0 0 1 2.69-.02l31.776 34.444 43.18-42.625a1.818 1.818 0 0 1 2.914.506l42.02 87.307 28.114-24.84a1.818 1.818 0 1 1 2.407 2.725l-29.915 26.43a1.818 1.818 0 0 1-2.841-.574L180.446 5.495 137.74 47.653a1.818 1.818 0 0 1-2.613-.06l-31.694-34.357L70.147 50.43z" fill="#2A3052"/><ellipse fill="#FFF" opacity=".6" cx="35.33" cy="24.669" rx="8.067" ry="8.496"/><path d="M35.33 34.376c-5.14 0-9.28-4.36-9.28-9.707 0-5.348 4.14-9.708 9.28-9.708 5.139 0 9.279 4.36 9.279 9.708s-4.14 9.707-9.28 9.707zm0-2.423c3.771 0 6.855-3.248 6.855-7.284 0-4.037-3.084-7.284-6.855-7.284-3.772 0-6.856 3.247-6.856 7.284 0 4.036 3.084 7.284 6.856 7.284z" fill="#E88024" fill-rule="nonzero"/><ellipse fill="#FFF" opacity=".6" cx="253.956" cy="64.855" rx="8.067" ry="8.496"/><path d="M253.956 74.563c-5.14 0-9.28-4.36-9.28-9.707 0-5.348 4.14-9.708 9.28-9.708 5.139 0 9.279 4.36 9.279 9.708s-4.14 9.707-9.28 9.707zm0-2.423c3.771 0 6.855-3.248 6.855-7.284 0-4.037-3.084-7.284-6.855-7.284-3.772 0-6.856 3.247-6.856 7.284 0 4.036 3.084 7.284 6.856 7.284z" fill="#E88024" fill-rule="nonzero"/></g><path d="M252.151 122.949h-2.544l-1.557 7.824h-1.14l1.557-7.823h-2.544l.19-.95h6.266l-.228.95v-.001zm2.468 7.824v-.494c0-.152.038-.266.038-.38-.266.304-.57.532-.911.722-.342.19-.684.304-1.026.304-.57 0-1.025-.19-1.29-.532-.266-.342-.342-.836-.228-1.443.113-.646.455-1.177.949-1.481.532-.342 1.177-.494 1.975-.494h1.1l.115-.645c.076-.418.038-.722-.114-.912-.152-.19-.456-.304-.836-.304-.341 0-.645.114-.911.304a1.23 1.23 0 0 0-.494.684h-1.1v-.038c.075-.494.379-.95.872-1.33a3.058 3.058 0 0 1 1.823-.569c.646 0 1.14.19 1.52.57.379.38.493.911.341 1.595l-.608 3.152-.114.683a1.843 1.843 0 0 0 0 .646h-1.1v-.038h-.001zm-1.519-.874a2.225 2.225 0 0 0 1.747-.95l.228-1.214h-1.14c-.38 0-.759.114-1.063.38-.28.205-.481.5-.57.835-.075.304-.037.532.077.721.114.19.38.228.721.228zm8.127-4.595l-.646-.038c-.258 0-.51.08-.721.228a1.595 1.595 0 0 0-.57.646l-.911 4.633h-1.14l1.292-6.532h1.025l-.076.873c.194-.296.454-.543.76-.721.265-.152.57-.266.91-.266.077 0 .153 0 .267.038a.509.509 0 0 0 .19.038l-.38 1.101zm.342 2.203c.227-1.101.57-1.975 1.063-2.544.494-.57 1.101-.836 1.86-.836.342 0 .684.076.95.228.266.152.494.38.684.683l.265-.797h.988l-1.253 6.418c-.19.911-.532 1.595-1.064 2.05-.531.456-1.215.684-2.088.684-.31 0-.618-.052-.912-.152a2.408 2.408 0 0 1-.835-.342l.456-.911c.151.114.38.228.645.304.266.076.532.114.798.114.493 0 .873-.152 1.177-.456.332-.346.557-.782.645-1.253l.076-.456a2.23 2.23 0 0 1-1.633.646c-.683 0-1.215-.304-1.557-.95a3.338 3.338 0 0 1-.265-2.316v-.114zm1.139.152c-.152.683-.114 1.253.076 1.67.19.418.57.646 1.063.646.266 0 .532-.076.76-.228.227-.152.417-.38.607-.683l.608-3.038a1.986 1.986 0 0 0-.456-.646 1.284 1.284 0 0 0-.76-.228c-.455 0-.873.228-1.177.646a4.937 4.937 0 0 0-.683 1.747l-.038.114zm7.519 3.266c-.798 0-1.405-.304-1.823-.912-.418-.607-.532-1.405-.38-2.354l.038-.266c.152-.95.532-1.747 1.14-2.355.607-.607 1.253-.91 1.936-.91.798 0 1.367.265 1.671.797.342.531.456 1.253.304 2.126l-.114.76h-3.873c-.076.645-.038 1.177.19 1.595.19.38.57.57 1.063.57a2.852 2.852 0 0 0 1.785-.646l.341.76c-.228.227-.531.417-.911.569-.418.19-.874.266-1.367.266zm.76-5.849c-.342 0-.646.152-.95.494-.304.342-.532.76-.684 1.253v.038h2.62l.039-.152c.076-.493.038-.873-.152-1.177-.152-.304-.456-.456-.874-.456h.001zm5.847-2.392l-.303 1.557h1.1l-.189.873h-1.101l-.76 3.95c-.076.304-.076.531.038.645.076.114.228.152.418.152.076 0 .19 0 .342-.038a.715.715 0 0 0 .304-.076v.798c-.114.076-.266.114-.494.19-.228.038-.418.076-.646.076-.417 0-.721-.152-.95-.456-.227-.304-.265-.76-.151-1.367l.76-3.95h-.95l.19-.873h.95l.303-1.557h1.14v.076h-.001z" fill="#6D6E71" fill-rule="nonzero"/><path d="M173.529 167.966h-2.523v-8.348h2.523v8.348zm0 4.392h-2.523v-2.243h2.523v2.243zm-29.486-10.608c2.923 0 4.508 1.782 4.91 4.451.4 2.67-1.041 6.44-4.704 6.44s-4.847-2.784-4.847-5.666c0-2.883 1.719-5.225 4.641-5.225zm.027 1.87c-.87.083-2.409.69-2.319 3.573.09 2.882 1.35 3.559 2.319 3.559.968 0 2.601-.269 2.601-3.547 0-3.279-1.732-3.667-2.601-3.585zm-5.285-1.801a26.8 26.8 0 0 1-.315 2.234c-1.14-.074-2.322-.182-2.84 1.15l.015 7.16H133.3v-10.46h2.086c.1.698.162 1.207.186 1.527.721-1.346 1.792-1.882 3.213-1.61v-.001zm-15.074 10.544h-2.387v-13.984h6.149c1.926 0 4.56 1.606 4.272 4.79-.192 2.123-1.616 3.41-4.272 3.863h-3.762v5.331zm.011-7.185h3.156c.778 0 2.518-.54 2.518-2.544s-1.724-2.464-2.518-2.437c-.53.018-1.582.01-3.156-.027v5.008zm32.83-7.924c-.11.558-.166 1.112-.252 1.821-.363-.08-2.396-.595-2.445 1.61v1.217h1.935v1.688h-1.935l.049 8.773h-2.423v-8.773h-1.525v-1.688h1.616c-.167-2.154.269-3.569 1.307-4.244 1.556-1.012 3.09-.593 3.673-.404zm1.754 4.672h2.344v10.382h-2.343l-.001-10.382zm.047-4.587v1.986h2.332v-1.986h-2.332zm8.709 2.057v2.581h1.808v1.712h-1.808v6.189c0 1.25 1.583.836 1.686.784l.277 1.653c-.155.103-3.925 1.444-4.326-2.437v-6.19h-1.555v-1.71h1.555v-2.582h2.363z" fill="#FFF" fill-rule="nonzero"/><path d="M15.125 20V9.336h3.281c.938 0 1.777.211 2.516.633a4.418 4.418 0 0 1 1.733 1.802c.415.78.622 1.664.622 2.655v.491c0 .991-.204 1.873-.611 2.644a4.38 4.38 0 0 1-1.725 1.794c-.743.425-1.58.64-2.513.645h-3.303zm2.198-8.884v7.119h1.062c.859 0 1.516-.28 1.97-.842.454-.562.686-1.365.696-2.41v-.564c0-1.084-.225-1.906-.674-2.465-.45-.559-1.106-.838-1.97-.838h-1.084zm7.082 4.848c0-.786.151-1.486.454-2.102a3.324 3.324 0 0 1 1.308-1.428c.568-.337 1.229-.505 1.98-.505 1.07 0 1.943.327 2.62.981.675.654 1.053 1.543 1.13 2.666l.015.542c0 1.216-.339 2.191-1.018 2.926-.678.735-1.59 1.102-2.732 1.102-1.142 0-2.054-.366-2.735-1.098-.681-.733-1.022-1.729-1.022-2.988v-.096zm2.117.154c0 .752.141 1.327.425 1.725.283.398.688.597 1.215.597.513 0 .913-.197 1.202-.59.288-.393.432-1.021.432-1.886 0-.737-.144-1.308-.432-1.714-.289-.405-.694-.607-1.216-.607-.518 0-.918.201-1.201.604-.284.403-.425 1.026-.425 1.871zm13.586 1.004l1.04-5.047h2.044L41.17 20h-1.772l-1.502-4.988L36.395 20H34.63l-2.022-7.925h2.044l1.032 5.04 1.45-5.04h1.531l1.443 5.047zm6.08-5.047l.065.916c.567-.708 1.326-1.062 2.278-1.062.84 0 1.465.246 1.875.74.41.493.62 1.23.63 2.211V20h-2.117v-5.068c0-.45-.097-.776-.293-.978-.195-.203-.52-.304-.974-.304-.596 0-1.042.254-1.34.762V20h-2.117v-7.925h1.992z" fill="#000" fill-rule="nonzero"/><path d="M249.38 181.247c-1.206-.347-2.084-.773-2.633-1.278a2.442 2.442 0 0 1-.824-1.872c0-.84.336-1.534 1.007-2.084.671-.549 1.544-.824 2.618-.824.733 0 1.386.142 1.96.425a3.221 3.221 0 0 1 1.333 1.172c.315.498.472 1.043.472 1.633h-1.414c0-.644-.205-1.15-.615-1.52-.41-.368-.989-.552-1.736-.552-.693 0-1.234.152-1.622.457-.388.306-.582.73-.582 1.271 0 .435.184.802.553 1.102.368.3.996.575 1.882.824.886.25 1.58.524 2.08.824.5.3.872.651 1.113 1.051.242.4.363.872.363 1.414 0 .864-.337 1.556-1.01 2.076-.675.52-1.575.78-2.703.78-.733 0-1.416-.14-2.051-.42-.635-.281-1.124-.666-1.469-1.154a2.815 2.815 0 0 1-.516-1.663H247c0 .645.238 1.154.714 1.527.476.374 1.112.56 1.908.56.742 0 1.31-.15 1.706-.454.396-.302.593-.715.593-1.237 0-.523-.183-.927-.549-1.212-.366-.286-1.03-.568-1.992-.846zm8.833 4.9c-1.074 0-1.948-.353-2.622-1.059-.674-.705-1.01-1.649-1.01-2.83v-.25c0-.786.15-1.488.45-2.105.3-.618.72-1.101 1.26-1.45a3.167 3.167 0 0 1 1.753-.524c1.03 0 1.831.34 2.403 1.018.571.678.857 1.65.857 2.915v.564h-5.369c.02.781.248 1.412.685 1.893.437.481.992.722 1.666.722.479 0 .884-.098 1.216-.293.332-.196.623-.455.872-.777l.827.645c-.664 1.02-1.66 1.53-2.988 1.53zm-.169-7.105a1.81 1.81 0 0 0-1.377.597c-.37.398-.6.956-.688 1.673h3.97v-.102c-.04-.689-.225-1.222-.557-1.6-.332-.379-.781-.568-1.348-.568zm6.3 6.958h-1.356v-11.25h1.355V186zm5.456.146c-1.074 0-1.948-.352-2.622-1.058-.674-.705-1.011-1.649-1.011-2.83v-.25c0-.786.15-1.488.45-2.105.3-.618.72-1.101 1.26-1.45a3.167 3.167 0 0 1 1.754-.524c1.03 0 1.831.34 2.403 1.018.571.678.857 1.65.857 2.915v.564h-5.369c.02.781.248 1.412.685 1.893.437.481.992.722 1.666.722.479 0 .884-.098 1.216-.293a3.07 3.07 0 0 0 .871-.777l.828.645c-.664 1.02-1.66 1.53-2.988 1.53zm-.169-7.104c-.547 0-1.006.199-1.377.597-.37.398-.6.956-.688 1.673h3.97v-.102c-.04-.689-.225-1.222-.557-1.6-.332-.379-.781-.568-1.348-.568zm9.441 4.856c0-.366-.138-.65-.414-.853-.275-.203-.756-.378-1.442-.524-.686-.146-1.23-.322-1.634-.527-.403-.205-.7-.45-.893-.733a1.752 1.752 0 0 1-.29-1.01c0-.65.275-1.2.824-1.648.55-.45 1.252-.674 2.106-.674.899 0 1.627.232 2.186.696.56.463.839 1.057.839 1.78h-1.362c0-.372-.158-.692-.473-.96-.315-.269-.711-.403-1.19-.403-.493 0-.879.107-1.157.322a1.014 1.014 0 0 0-.418.843c0 .327.13.573.389.74.258.165.726.324 1.402.475.676.152 1.225.332 1.644.542.42.21.732.463.934.758.203.296.304.656.304 1.08 0 .709-.283 1.276-.85 1.704-.566.427-1.3.64-2.204.64-.635 0-1.196-.112-1.685-.336a2.74 2.74 0 0 1-1.146-.942 2.268 2.268 0 0 1-.414-1.307h1.355c.025.454.207.814.546 1.08.34.266.787.4 1.344.4.513 0 .924-.104 1.234-.312.31-.207.465-.484.465-.831zm8.013 2.102c-.078-.156-.142-.435-.19-.835-.63.654-1.382.981-2.256.981-.782 0-1.422-.22-1.923-.662-.5-.442-.75-1.003-.75-1.681 0-.825.313-1.466.94-1.923.628-.456 1.51-.685 2.648-.685h1.319v-.622c0-.474-.142-.851-.425-1.132-.283-.28-.7-.421-1.253-.421-.483 0-.888.122-1.216.366-.327.244-.49.54-.49.886h-1.363c0-.395.14-.777.422-1.146.28-.368.661-.66 1.142-.875a3.844 3.844 0 0 1 1.586-.322c.913 0 1.628.228 2.146.685.517.456.786 1.085.806 1.886v3.647c0 .728.092 1.306.278 1.736V186h-1.421zm-2.249-1.033c.425 0 .828-.11 1.209-.33.38-.219.657-.505.828-.856v-1.626h-1.062c-1.66 0-2.49.486-2.49 1.457 0 .425.14.757.424.996.283.24.647.36 1.091.36zm6.988 1.033h-1.355v-7.925h1.355V186zm-1.465-10.027c0-.22.067-.405.201-.556.135-.152.334-.228.597-.228.264 0 .464.076.6.228a.8.8 0 0 1 .206.556c0 .22-.068.403-.205.55-.137.146-.337.22-.6.22-.264 0-.463-.074-.598-.22a.782.782 0 0 1-.201-.55zM23.054 134.336l3.487 8.701 3.486-8.701h1.824V145h-1.407v-4.153l.132-4.482-3.5 8.635h-1.077l-3.494-8.613.139 4.46V145h-1.406v-10.664h1.816zm15.96 9.88c-.528.62-1.302.93-2.322.93-.845 0-1.488-.245-1.93-.736-.442-.49-.665-1.217-.67-2.179v-5.156h1.355v5.12c0 1.201.488 1.802 1.465 1.802 1.035 0 1.723-.386 2.065-1.158v-5.764h1.355V145h-1.289l-.03-.784zm4.848.784h-1.355v-11.25h1.355V145zm7.06 0c-.077-.156-.14-.435-.19-.835-.63.654-1.381.981-2.255.981-.782 0-1.423-.22-1.923-.662-.5-.442-.75-1.003-.75-1.681 0-.825.313-1.466.94-1.923.628-.456 1.51-.685 2.648-.685h1.318v-.622c0-.474-.141-.851-.424-1.132-.284-.28-.701-.421-1.253-.421-.483 0-.888.122-1.216.366-.327.244-.49.54-.49.886h-1.363c0-.395.14-.777.421-1.146.281-.368.662-.66 1.143-.875a3.844 3.844 0 0 1 1.586-.322c.913 0 1.628.228 2.146.685.517.456.786 1.085.805 1.886v3.647c0 .728.093 1.306.279 1.736V145h-1.421zm-2.248-1.033c.425 0 .828-.11 1.209-.33.38-.219.657-.505.827-.856v-1.626h-1.062c-1.66 0-2.49.486-2.49 1.457 0 .425.142.757.425.996.283.24.647.36 1.091.36zM55.662 145h-1.355v-7.925h1.355V145zm-1.465-10.027c0-.22.067-.405.201-.556.134-.152.333-.228.597-.228.264 0 .464.076.6.228a.8.8 0 0 1 .206.556.78.78 0 0 1-.205.55c-.137.146-.337.22-.6.22-.265 0-.464-.074-.598-.22a.782.782 0 0 1-.201-.55z" fill="#2A3052"/></g></svg>