<svg width="299" height="197" xmlns="http://www.w3.org/2000/svg"><g fill="none" fill-rule="evenodd"><path fill="#F1F2F2" d="M0 0h299v197H0z"/><path d="M1.987 1.98v193.04h295.026V1.98H1.987zM299 0v197H0V0h299z" fill="#C2C2C2" fill-rule="nonzero"/><path d="M4.887 56.446v-1.207h289.656v1.207H4.887zm0 40.534v-1.207h289.656v1.207H4.887zm0 40.534v-1.207h289.656v1.207H4.887zm0 40.496v-1.207h289.656v1.207H4.887zm34.38-142.416h1.206v159.67h-1.206V35.594zm36.664 0h1.207v159.67h-1.207V35.594zm36.628 0h1.207v159.67h-1.207V35.594zm36.665 0h1.207v159.67h-1.207V35.594zm36.627 0h1.207v159.67h-1.207V35.594zm36.628 0h1.207v159.67h-1.207V35.594zM4.887 117.228v-1.207h289.656v1.207H4.887z" fill="#DFDEDE" fill-rule="nonzero"/><path d="M259.144 35.594h1.207v159.67h-1.207V35.594zM4.887 76.731v-1.206h289.656v1.206H4.887zm0 81.03v-1.206h289.656v1.207H4.887z" fill="#2A3052" fill-rule="nonzero"/><path fill="#C2C2C2" fill-rule="nonzero" d="M2.794 35.606V33.19h293.842v2.415z"/><path d="M18.51 19.194h-4.223v2.95h4.97v1.607H12.27V13.403h6.989v1.606h-4.934v2.616h4.224v1.569h-.038zm3.7-3.139l.075 1.084a2.79 2.79 0 0 1 .934-.934c.373-.224.8-.34 1.234-.336a2.232 2.232 0 0 1 1.794.747c.481.673.718 1.49.673 2.316v4.82h-2.056v-4.82a1.565 1.565 0 0 0-.3-1.083 1.245 1.245 0 0 0-.933-.337 1.675 1.675 0 0 0-.748.15c-.227.108-.42.276-.56.486v5.603h-2.056v-7.696h1.943zm5.906 3.923a5.016 5.016 0 0 1 .784-2.951 2.508 2.508 0 0 1 2.206-1.121 1.85 1.85 0 0 1 1.009.262c.312.173.58.416.785.71v-4.222h2.055V23.75H33.2l-.187-.934a2.578 2.578 0 0 1-.86.822 2.258 2.258 0 0 1-1.121.262 2.512 2.512 0 0 1-2.168-1.046 4.452 4.452 0 0 1-.785-2.727v-.15h.038zm2.055.15a3.309 3.309 0 0 0 .337 1.606c.224.383.64.612 1.083.598.273 0 .542-.064.785-.187a1.18 1.18 0 0 0 .524-.523v-3.325a1.532 1.532 0 0 0-.524-.56 1.312 1.312 0 0 0-.747-.187 1.144 1.144 0 0 0-1.084.672 4.037 4.037 0 0 0-.336 1.793v.113h-.038zm10.503 1.494a.77.77 0 0 0-.337-.598 4.471 4.471 0 0 0-1.196-.448 4.628 4.628 0 0 1-2.018-.822 1.83 1.83 0 0 1-.673-1.494 2.054 2.054 0 0 1 .822-1.682 3.39 3.39 0 0 1 2.206-.71 3.638 3.638 0 0 1 2.317.673c.552.41.86 1.07.822 1.756v.037h-1.98a1.046 1.046 0 0 0-.3-.747 1.196 1.196 0 0 0-.86-.299 1.054 1.054 0 0 0-.784.262.78.78 0 0 0 0 1.233 3 3 0 0 0 1.196.41c.753.104 1.47.386 2.093.822.455.375.705.944.672 1.532a2.04 2.04 0 0 1-.86 1.681 3.713 3.713 0 0 1-2.316.673 3.48 3.48 0 0 1-2.392-.785 2.279 2.279 0 0 1-.86-1.756v-.037h1.869c-.023.349.131.686.41.897.301.19.654.282 1.01.261.303.022.605-.057.86-.224a.702.702 0 0 0 .299-.635zM55.96 19.53a4.37 4.37 0 0 1-1.196 3.138 4.112 4.112 0 0 1-3.102 1.233 4.026 4.026 0 0 1-3.065-1.233 4.37 4.37 0 0 1-1.196-3.138v-1.868a4.347 4.347 0 0 1 1.159-3.138 4.026 4.026 0 0 1 3.064-1.233 4.112 4.112 0 0 1 3.103 1.233 4.37 4.37 0 0 1 1.196 3.138v1.868h.037zm-2.056-1.905a3.051 3.051 0 0 0-.598-1.98c-.385-.517-1-.81-1.644-.785a1.84 1.84 0 0 0-1.607.785 3.346 3.346 0 0 0-.56 1.98v1.867a3.16 3.16 0 0 0 .597 2.018c.375.508.975.801 1.607.784a1.955 1.955 0 0 0 1.645-.784 3.399 3.399 0 0 0 .598-2.018v-1.867h-.038zm8.148 5.043a2.4 2.4 0 0 1-2.13 1.27 2.348 2.348 0 0 1-1.87-.784 3.623 3.623 0 0 1-.672-2.429v-4.67h2.056v4.67c-.053.422.054.848.299 1.196a.92.92 0 0 0 .822.373 2.06 2.06 0 0 0 .86-.15 1.39 1.39 0 0 0 .56-.485v-5.604h2.056v7.696h-1.757l-.224-1.083zm5.905-8.48v1.867h1.271v1.457h-1.27v3.923a.919.919 0 0 0 .186.635.71.71 0 0 0 .486.187h.262a.95.95 0 0 0 .261-.075l.187 1.495a4.651 4.651 0 0 1-.598.149c-.21.032-.423.045-.635.037a2.176 2.176 0 0 1-1.645-.597 2.491 2.491 0 0 1-.56-1.868v-3.886H64.78v-1.457h1.122v-1.867h2.055zm6.69 7.434a.77.77 0 0 0-.336-.598 4.471 4.471 0 0 0-1.196-.448 4.628 4.628 0 0 1-2.018-.822 1.83 1.83 0 0 1-.673-1.494 2.054 2.054 0 0 1 .822-1.682 3.39 3.39 0 0 1 2.205-.71 3.638 3.638 0 0 1 2.318.673c.552.41.86 1.07.822 1.756v.037h-1.98a1.046 1.046 0 0 0-.3-.747 1.196 1.196 0 0 0-.86-.299 1.054 1.054 0 0 0-.784.262.78.78 0 0 0 0 1.233c.365.22.772.36 1.196.41a5.08 5.08 0 0 1 2.093.822c.46.37.712.942.672 1.532a2.04 2.04 0 0 1-.86 1.681 3.713 3.713 0 0 1-2.317.673 3.48 3.48 0 0 1-2.392-.785 2.279 2.279 0 0 1-.86-1.756v-.037h1.87c-.023.349.131.686.41.897.301.19.654.282 1.01.261.303.022.605-.057.86-.224a.702.702 0 0 0 .298-.635zm5.495-7.397h-2.056v-1.57h2.056v1.57zm0 9.526h-2.056v-7.696h2.056v7.696zm1.345-3.773a5.016 5.016 0 0 1 .785-2.951 2.508 2.508 0 0 1 2.205-1.121 1.85 1.85 0 0 1 1.01.262c.311.173.58.416.784.71v-4.222h2.056V23.75H86.57l-.187-.934a2.578 2.578 0 0 1-.86.822 2.258 2.258 0 0 1-1.12.262 2.512 2.512 0 0 1-2.168-1.046 4.623 4.623 0 0 1-.748-2.727v-.15zm2.056.15a3.309 3.309 0 0 0 .336 1.606c.224.383.64.612 1.084.598.273 0 .541-.064.785-.187a1.18 1.18 0 0 0 .523-.523v-3.325a1.532 1.532 0 0 0-.523-.56A1.312 1.312 0 0 0 85 17.55a1.144 1.144 0 0 0-1.084.672 4.037 4.037 0 0 0-.336 1.793v.113h-.037zm9.755 3.773a3.383 3.383 0 0 1-2.617-1.084 3.727 3.727 0 0 1-.971-2.69v-.261a4.198 4.198 0 0 1 .934-2.84 2.976 2.976 0 0 1 2.504-1.083 3.047 3.047 0 0 1 2.392.934c.597.708.905 1.616.86 2.54v1.121h-4.523v.038c.022.453.192.887.486 1.233.307.33.745.508 1.196.485.38.016.76-.034 1.121-.15a3.17 3.17 0 0 0 .972-.447l.56 1.27c-.359.3-.78.516-1.233.635a3.978 3.978 0 0 1-1.681.299zm-.187-6.389a1.065 1.065 0 0 0-.897.449c-.247.337-.39.74-.411 1.158l.037.037h2.504v-.187a1.737 1.737 0 0 0-.299-1.046 1.11 1.11 0 0 0-.934-.41z" fill="#000" fill-rule="nonzero"/><path d="M40.778 118.19a1.81 1.81 0 0 1-1.816-3.132l36.665-21.257a1.81 1.81 0 0 1 2.068.176l32.442 27.072 38.676-26.172a1.81 1.81 0 0 1 2.202.133l35.361 30.729 72.1-71.185a1.81 1.81 0 0 1 2.543 2.577l-73.292 72.363a1.81 1.81 0 0 1-2.46.078L149.69 98.655l-38.652 26.156a1.81 1.81 0 0 1-2.175-.11L76.347 97.57l-35.569 20.622z" fill="#2A3052" fill-rule="nonzero"/><path d="M187.987 147.445h-34.945l-5.382-8.181-5.382 8.181h-34.946a4.733 4.733 0 0 0-4.71 4.782v24.694a4.753 4.753 0 0 0 4.71 4.782h80.692a4.733 4.733 0 0 0 4.71-4.782v-24.694a4.758 4.758 0 0 0-4.747-4.782z" fill="#E88024"/><ellipse cx="8.335" cy="9.228" rx="8.11" ry="8.443" opacity=".6" transform="translate(251.412 45.83)" fill="#FFF"/><path d="M259.747 64.708c-5.157 0-9.317-4.331-9.317-9.65 0-5.32 4.16-9.65 9.317-9.65s9.318 4.33 9.318 9.65c0 5.319-4.16 9.65-9.318 9.65zm0-2.414c3.802 0 6.903-3.23 6.903-7.236 0-4.007-3.101-7.236-6.903-7.236-3.801 0-6.903 3.229-6.903 7.236s3.102 7.236 6.903 7.236z" fill="#E88024" fill-rule="nonzero"/><ellipse cx="8.97" cy="9.021" rx="8.11" ry="8.443" opacity=".6" transform="translate(30.9 107.604)" fill="#FFF"/><path d="M39.87 126.275c-5.157 0-9.317-4.332-9.317-9.65 0-5.32 4.16-9.65 9.317-9.65s9.317 4.33 9.317 9.65c0 5.318-4.16 9.65-9.317 9.65zm0-2.414c3.802 0 6.903-3.23 6.903-7.236 0-4.007-3.101-7.236-6.903-7.236-3.802 0-6.903 3.229-6.903 7.236 0 4.006 3.101 7.236 6.903 7.236z" fill="#E88024" fill-rule="nonzero"/><path d="M20.326 59.506h-2.96l-1.203 8.024h-1.216l1.203-8.024h-2.923l.141-.956h7.1l-.142.956zm3.312 8.024c-.008-.23-.012-.416-.012-.558 0-.142.008-.287.025-.435a3.603 3.603 0 0 1-1.009.799 2.52 2.52 0 0 1-1.218.324c-.67 0-1.167-.18-1.49-.54-.322-.36-.437-.848-.342-1.465a2.04 2.04 0 0 1 .987-1.51c.563-.35 1.293-.525 2.19-.525h1.32l.098-.66c.062-.407-.01-.72-.213-.94-.203-.22-.525-.33-.965-.33-.374 0-.703.098-.987.295-.284.198-.444.434-.48.71l-1.16.012-.007-.037c.05-.506.344-.955.882-1.348.539-.393 1.193-.589 1.962-.589.728 0 1.3.194 1.714.583.416.389.572.94.47 1.656l-.482 3.214c-.041.25-.065.484-.07.7-.007.216.006.43.04.644h-1.253zm-1.881-.888c.42 0 .826-.115 1.221-.345.395-.23.668-.49.82-.777l.167-1.08h-1.363c-.473 0-.88.126-1.221.376-.342.251-.535.539-.58.864-.05.308.005.546.163.712.159.167.423.25.793.25zm8.722-4.712l-.617-.037a1.5 1.5 0 0 0-.84.237 1.966 1.966 0 0 0-.616.67l-.71 4.73h-1.214l.999-6.673h1.085l-.024.943c.238-.337.51-.6.814-.786a1.882 1.882 0 0 1 1.261-.26c.085.015.151.03.2.047l-.338 1.129zm.573 2.387c.165-1.115.522-1.99 1.073-2.628.551-.637 1.242-.956 2.073-.956.415 0 .77.089 1.067.265.296.177.53.432.703.765l.284-.906h.968l-1.005 6.71c-.136.888-.482 1.554-1.04 1.996-.557.442-1.31.663-2.26.663-.309 0-.646-.046-1.012-.136a3.657 3.657 0 0 1-.937-.358l.327-.943c.218.123.486.223.805.299.318.076.638.114.959.114.567 0 1.012-.137 1.335-.41.323-.274.525-.682.608-1.225l.11-.758c-.258.28-.551.491-.878.635-.342.147-.71.22-1.083.216-.781 0-1.365-.298-1.751-.895-.387-.596-.508-1.369-.364-2.319l.018-.13v.001zm1.197.13c-.107.694-.053 1.24.163 1.634.216.395.614.592 1.194.592.353 0 .668-.085.943-.256.276-.17.519-.41.728-.719l.463-3.053a1.585 1.585 0 0 0-.515-.675c-.224-.167-.513-.25-.867-.25-.555 0-1.014.245-1.378.734-.364.49-.602 1.11-.713 1.863l-.018.13zm8.462 3.213c-.92 0-1.613-.31-2.075-.932-.463-.62-.62-1.422-.472-2.405l.043-.271c.144-.996.536-1.797 1.175-2.406.64-.609 1.364-.913 2.174-.913.86 0 1.479.282 1.857.845.378.564.5 1.297.364 2.202l-.093.642h-4.317c-.095.707-.025 1.265.21 1.674.234.41.66.614 1.276.614.395 0 .762-.06 1.101-.179.34-.12.632-.28.879-.481l.358.79a3.52 3.52 0 0 1-1.03.582c-.416.159-.899.238-1.45.238zm.703-5.97c-.407 0-.776.164-1.107.493a2.811 2.811 0 0 0-.712 1.246l.012.037h3.004l.012-.1c.074-.497.017-.9-.172-1.211-.19-.31-.535-.466-1.037-.466v.001zm6.094-2.443l-.24 1.61h1.264l-.135.9h-1.265l-.604 4.052c-.05.325-.02.548.09.67.108.121.272.182.49.182a1.62 1.62 0 0 0 .463-.086l.042.832a1.29 1.29 0 0 1-.428.182c-.183.047-.361.07-.534.07-.477 0-.844-.15-1.101-.45-.257-.3-.336-.766-.237-1.4l.604-4.052h-1.06l.135-.9h1.06l.241-1.61h1.215zm12.114.259h-2.96l-1.203 8.024h-1.215l1.203-8.024h-2.924l.142-.956h7.1l-.143.956zm1.222 8.024h-1.215l.999-6.673h1.215l-1 6.673h.001zm1.258-8.382h-1.215l.185-1.24h1.215l-.185 1.24zm2.64 2.665c.271-.346.589-.612.953-.8.364-.186.76-.28 1.187-.28.695 0 1.214.213 1.558.639.343.425.449 1.074.317 1.946l-.629 4.212h-1.215l.63-4.188c.09-.608.038-1.03-.155-1.267-.193-.237-.533-.355-1.018-.355-.362 0-.687.08-.974.237-.288.159-.53.378-.728.657l-.74 4.916h-1.215l.999-6.673h1.085l-.055.956zm5.415 2.504c.165-1.115.523-1.99 1.074-2.628.55-.637 1.241-.956 2.072-.956.415 0 .771.089 1.067.265.296.177.53.432.703.765l.284-.906h.968l-1.005 6.71c-.136.888-.482 1.554-1.04 1.996-.557.442-1.31.663-2.26.663a4.27 4.27 0 0 1-1.012-.136 3.657 3.657 0 0 1-.937-.358l.327-.943c.218.123.486.223.805.299.318.076.638.114.959.114.567 0 1.012-.137 1.335-.41.323-.274.526-.682.608-1.225l.11-.758c-.258.28-.551.491-.878.635-.342.147-.71.22-1.083.216-.78 0-1.365-.298-1.751-.895-.387-.596-.508-1.369-.364-2.319l.018-.13v.001zm1.197.13c-.107.694-.053 1.24.163 1.634.216.395.614.592 1.194.592.353 0 .668-.085.944-.256.275-.17.518-.41.727-.719l.463-3.053a1.585 1.585 0 0 0-.515-.675c-.224-.167-.513-.25-.867-.25-.555 0-1.014.245-1.378.734-.364.49-.602 1.11-.713 1.863l-.018.13zm5.983-.13c.164-1.115.522-1.99 1.073-2.628.551-.637 1.242-.956 2.073-.956.415 0 .77.089 1.067.265.296.177.53.432.703.765l.283-.906h.969l-1.006 6.71c-.135.888-.482 1.554-1.039 1.996-.557.442-1.31.663-2.26.663-.309 0-.646-.046-1.012-.136a3.657 3.657 0 0 1-.937-.358l.326-.943c.218.123.487.223.805.299.319.076.639.114.96.114.567 0 1.012-.137 1.335-.41.323-.274.525-.682.607-1.225l.111-.758a2.64 2.64 0 0 1-.879.635c-.342.147-.71.22-1.082.216-.781 0-1.365-.298-1.752-.895-.386-.596-.508-1.369-.364-2.319l.019-.13v.001zm1.196.13c-.106.694-.052 1.24.164 1.634.216.395.614.592 1.193.592.354 0 .669-.085.944-.256.276-.17.518-.41.728-.719l.463-3.053a1.585 1.585 0 0 0-.515-.675c-.225-.167-.513-.25-.867-.25-.555 0-1.015.245-1.379.734-.364.49-.601 1.11-.712 1.863l-.019.13zm7.032 3.083H84.35l1-6.673h1.214l-.999 6.673zm1.258-8.382h-1.215l.185-1.24h1.215l-.185 1.24zM19.933 164.67h-2.797L16 172.25h-1.148l1.137-7.58h-2.762l.134-.903h6.706l-.134.903zm3.13 7.58a15.44 15.44 0 0 1-.012-.526c0-.134.008-.271.023-.411-.26.299-.578.55-.953.754a2.381 2.381 0 0 1-1.15.306c-.634 0-1.103-.17-1.408-.51-.305-.34-.412-.8-.323-1.384.09-.621.4-1.097.932-1.427.532-.33 1.222-.495 2.069-.495h1.247l.093-.624c.058-.384-.009-.68-.201-.888-.192-.208-.496-.312-.912-.312-.353 0-.664.093-.932.28-.268.186-.42.41-.455.67l-1.095.011-.006-.035c.047-.478.324-.902.833-1.273.51-.37 1.127-.556 1.853-.556.688 0 1.228.183 1.62.55.392.367.54.889.443 1.565l-.455 3.036c-.037.219-.06.44-.067.661-.005.204.007.407.038.609h-1.183l.001-.001zm-1.778-.838a2.26 2.26 0 0 0 1.154-.327c.373-.217.631-.462.775-.734l.157-1.02h-1.287c-.447 0-.832.12-1.154.356-.323.237-.505.509-.548.816-.047.291.005.515.154.673.15.157.4.236.75.236h-.001zm8.24-4.452l-.583-.035c-.3 0-.563.075-.793.224-.229.15-.423.36-.582.633l-.67 4.469h-1.148l.944-6.305h1.025l-.023.892a2.65 2.65 0 0 1 .769-.743c.356-.22.778-.306 1.192-.245.08.014.142.028.189.044l-.32 1.066zm.541 2.255c.156-1.053.494-1.88 1.014-2.482.52-.602 1.173-.903 1.958-.903.392 0 .728.083 1.008.25.28.167.501.408.664.723l.268-.857h.915l-.95 6.34c-.128.839-.455 1.467-.981 1.885-.527.417-1.239.626-2.136.626-.291 0-.61-.042-.955-.128a3.455 3.455 0 0 1-.886-.338l.309-.891c.206.116.459.21.76.282.301.072.603.108.906.108.536 0 .957-.13 1.262-.388.305-.258.496-.643.574-1.156l.105-.717a2.5 2.5 0 0 1-.83.6 2.51 2.51 0 0 1-1.023.204c-.739 0-1.29-.281-1.655-.845-.365-.563-.48-1.293-.344-2.19l.017-.123zm1.13.122c-.1.657-.049 1.172.155 1.545.204.372.58.559 1.128.559.334 0 .631-.08.891-.242a2.3 2.3 0 0 0 .688-.679l.437-2.884a1.497 1.497 0 0 0-.487-.638c-.211-.157-.484-.236-.818-.236-.525 0-.959.231-1.303.693-.343.463-.568 1.05-.673 1.76l-.017.122h-.001zm7.995 3.036c-.87 0-1.523-.293-1.96-.88-.437-.586-.586-1.344-.446-2.272l.04-.257c.137-.94.507-1.697 1.11-2.272.605-.575 1.29-.862 2.055-.862.812 0 1.396.266 1.754.798.357.532.472 1.225.343 2.08l-.087.606h-4.08c-.09.668-.023 1.196.198 1.582.222.387.624.58 1.206.58.373 0 .72-.056 1.04-.17a2.73 2.73 0 0 0 .83-.454l.339.746a3.305 3.305 0 0 1-.973.55c-.393.15-.85.225-1.37.225h.001zm.665-5.64c-.385 0-.734.155-1.046.466-.313.31-.537.703-.673 1.177l.011.035h2.838l.012-.093c.07-.47.015-.852-.163-1.145-.18-.294-.505-.44-.98-.44h.001zm5.757-2.308l-.228 1.521h1.195l-.128.85h-1.195l-.57 3.83c-.047.306-.02.517.084.631.103.115.257.172.463.172a1.55 1.55 0 0 0 .437-.082l.04.787c-.096.07-.231.128-.404.172a1.998 1.998 0 0 1-.504.067c-.45 0-.798-.142-1.04-.425-.243-.284-.318-.725-.225-1.323l.571-3.828h-1.002l.128-.85h1.002l.228-1.522h1.148zm6.071 4.15l-.547 3.676h-1.148l1.27-8.478h2.902c.893 0 1.562.208 2.007.623.445.416.609 1.012.492 1.79-.07.457-.242.845-.518 1.162-.276.316-.649.566-1.119.748.431.156.728.405.892.749.163.344.21.759.14 1.244l-.123.798c-.043.276-.05.516-.02.72a.9.9 0 0 0 .23.504l-.023.14h-1.183c-.132-.132-.2-.324-.204-.577a5.225 5.225 0 0 1 .052-.798l.117-.775c.07-.478-.007-.852-.23-1.122-.224-.27-.563-.405-1.017-.405h-1.97v.001zm.134-.904h1.643c.622 0 1.1-.125 1.434-.376.334-.25.54-.624.618-1.122.073-.493-.007-.867-.242-1.121-.235-.255-.65-.382-1.244-.382h-1.754l-.455 3v.001zm8.199 4.702c-.87 0-1.524-.293-1.961-.88-.437-.586-.586-1.344-.446-2.272l.041-.257c.136-.94.506-1.697 1.11-2.272.604-.575 1.289-.862 2.054-.862.812 0 1.397.266 1.754.798s.472 1.225.344 2.08l-.088.606h-4.079c-.089.668-.023 1.196.199 1.582.221.387.623.58 1.206.58.373 0 .72-.056 1.04-.17a2.73 2.73 0 0 0 .83-.454l.338.746a3.28 3.28 0 0 1-.973.55c-.392.15-.849.225-1.37.225h.001zm.664-5.64c-.385 0-.733.155-1.046.466-.313.31-.537.703-.673 1.177l.012.035h2.837l.012-.093c.07-.47.016-.852-.163-1.145-.179-.294-.505-.44-.979-.44zm4.906.116a2.73 2.73 0 0 1 .9-.754 2.417 2.417 0 0 1 1.122-.265c.657 0 1.147.2 1.472.603.324.402.424 1.015.3 1.838l-.595 3.98h-1.148l.595-3.957c.085-.575.037-.974-.146-1.197-.183-.223-.503-.335-.961-.335-.342 0-.65.075-.921.224-.272.15-.501.357-.688.62l-.699 4.645H63.67l.944-6.305h1.026l-.053.903zm5.058 2.366c.155-1.053.493-1.88 1.014-2.482.52-.602 1.175-.903 1.964-.903.36 0 .675.071.94.215.267.144.483.352.65.624l.525-3.508h1.148l-1.364 9.09h-.88l-.052-.798a2.56 2.56 0 0 1-.868.687c-.327.156-.69.233-1.09.233-.742 0-1.295-.281-1.66-.845-.366-.563-.48-1.293-.344-2.19l.017-.123zm1.13.122c-.1.657-.05 1.172.155 1.545.204.372.582.559 1.133.559.33 0 .626-.08.886-.239.26-.16.487-.38.682-.664l.437-2.92a1.421 1.421 0 0 0-.481-.626c-.212-.153-.483-.23-.813-.23-.528 0-.964.23-1.308.69-.344.46-.568 1.048-.673 1.763l-.018.122zm9.335 2.914a15.44 15.44 0 0 1-.011-.527c0-.134.007-.271.023-.411-.26.299-.578.55-.953.754a2.381 2.381 0 0 1-1.15.306c-.634 0-1.103-.17-1.408-.51-.305-.34-.413-.8-.323-1.384.09-.621.4-1.097.932-1.427.532-.33 1.222-.495 2.069-.495h1.247l.093-.624c.058-.384-.009-.68-.201-.888-.193-.208-.496-.312-.912-.312-.354 0-.664.093-.932.28-.268.186-.42.41-.455.67l-1.095.011-.006-.035c.046-.478.324-.902.833-1.273.509-.37 1.127-.556 1.853-.556.688 0 1.228.183 1.62.55.392.367.54.889.443 1.565l-.455 3.036c-.037.219-.06.44-.067.661-.006.204.007.407.038.609H81.11zm-1.777-.84c.396 0 .78-.108 1.154-.326.373-.217.631-.462.775-.734l.157-1.02h-1.288c-.446 0-.831.12-1.153.356-.323.237-.505.509-.548.816-.047.291.005.515.154.673.15.157.4.236.749.236v-.001zm6.433-4.655a2.87 2.87 0 0 1 .903-.685c.34-.162.713-.244 1.09-.241.648 0 1.135.204 1.46.611.324.408.426 1.028.305 1.86l-.594 3.95h-1.148l.594-3.962c.082-.537.03-.925-.157-1.166-.186-.24-.503-.361-.95-.361-.33 0-.634.07-.912.21a2.07 2.07 0 0 0-.708.582l-.705 4.697h-1.148l1.364-9.09h1.148l-.542 3.595z" fill="#6D6E71" fill-rule="nonzero"/><path d="M174.388 167.007h-2.492v-8.243h2.492v8.243zm0 4.337h-2.492v-2.215h2.492v2.215zm-29.118-10.475c2.887 0 4.452 1.76 4.848 4.396.396 2.636-1.027 6.36-4.644 6.36s-4.787-2.75-4.787-5.597c0-2.846 1.697-5.16 4.584-5.16l-.001.001zm.027 1.847c-.859.08-2.379.681-2.29 3.527.089 2.846 1.333 3.515 2.29 3.515.956 0 2.569-.265 2.569-3.503 0-3.237-1.711-3.62-2.57-3.54l.001.001zm-5.219-1.779c-.095.894-.199 1.63-.311 2.206-1.125-.073-2.293-.18-2.804 1.135l.014 7.071h-2.315v-10.33h2.06c.098.69.16 1.192.183 1.508.712-1.33 1.77-1.86 3.173-1.59zm-14.886 10.413h-2.357v-13.81h6.072c1.902 0 4.504 1.586 4.22 4.73-.19 2.096-1.597 3.368-4.22 3.815h-3.715v5.265zm.011-7.096h3.116c.77 0 2.487-.534 2.487-2.512 0-1.98-1.702-2.433-2.487-2.407-.523.018-1.561.01-3.116-.026v4.945zm32.42-7.824c-.108.55-.164 1.098-.25 1.797-.357-.079-2.365-.587-2.414 1.59v1.202h1.912v1.666h-1.912l.049 8.664h-2.392v-8.664h-1.507v-1.666h1.596c-.164-2.127.266-3.524 1.29-4.19 1.537-1 3.052-.587 3.628-.4v.001zm1.733 4.613h2.314v10.252h-2.314v-10.252zm.045-4.53v1.96h2.303v-1.96h-2.303zm8.601 2.031v2.55h1.785v1.69h-1.785v6.111c0 1.234 1.563.825 1.665.774l.273 1.633c-.153.102-3.876 1.426-4.272-2.407v-6.112h-1.535v-1.69h1.535v-2.55h2.334v.001z" fill="#FFF" fill-rule="nonzero"/><path d="M48.333 139.448c-.032-.158-.032-.284-.032-.441-.22.315-.504.567-.85.787-.347.22-.725.315-1.134.315-.662 0-1.166-.157-1.512-.535a1.921 1.921 0 0 1-.535-1.418c0-.63.252-1.102.755-1.449.504-.346 1.166-.535 2.016-.535h1.26v-.63c0-.378-.126-.693-.346-.914-.22-.22-.567-.346-.977-.346-.378 0-.693.094-.913.283-.22.19-.347.441-.347.693h-1.102v-.031c-.031-.473.189-.914.661-1.291.473-.378 1.071-.599 1.796-.599.724 0 1.323.189 1.764.567.44.378.661.913.661 1.606v3.119c0 .22 0 .44.032.661.031.22.063.441.126.63h-1.229v.063a17.728 17.728 0 0 0-.094-.535zm-1.907-.378c.41 0 .82-.095 1.134-.315.347-.22.567-.473.662-.756v-1.04H46.93c-.472 0-.85.126-1.134.347-.283.22-.41.535-.41.85 0 .284.095.504.253.693.189.126.44.22.787.22v.001zm-8.178-5.692h1.163v6.58h-1.163v-.977c-.369.477-.977 1.243-2.198 1.114-1.22-.13-1.975-1.087-1.98-2.142-.006-1.056.005-4.932 0-4.575h1.152v2.493c0 2.915.641 3.238 1.518 3.238s1.306-.74 1.508-.988c-.01-1.385-.01-2.966 0-4.743zm-7.299 6.655h1.173v-8.875h-1.457l-2.875 7.27-2.847-7.27h-1.577v8.875h1.169l.055-6.9 2.754 6.9h.889l2.716-6.703v6.703zm10.318-9.493h1.2v9.486h-1.2v-9.486zm10.019 2.933h1.182v6.502h-1.182v-6.502zm.016-2.953v1.173h1.204v-1.173h-1.204zm215.535-60.266c0-.315-.121-.558-.34-.776-.218-.194-.63-.388-1.213-.51-.704-.17-1.262-.412-1.65-.752a1.587 1.587 0 0 1-.583-1.237c0-.534.219-.971.631-1.31.413-.365.971-.535 1.65-.535.728 0 1.31.195 1.748.607.436.413.63.874.63 1.407v.025h-.873c0-.389-.121-.704-.388-.947-.267-.242-.631-.364-1.117-.364-.436 0-.8.097-1.019.316a.97.97 0 0 0-.364.8c0 .292.122.534.389.729.266.194.679.364 1.261.51.704.169 1.238.436 1.602.776.364.34.558.776.558 1.261 0 .534-.218.971-.655 1.31-.437.34-1.02.486-1.723.486a3.014 3.014 0 0 1-1.771-.558c-.51-.364-.753-.85-.753-1.456v-.024h.85c0 .437.145.752.46.995.316.242.704.34 1.165.34.461 0 .801-.098 1.068-.292.316-.194.437-.46.437-.8v-.001zm17.381-.024c-.173-.154-.498-.307-.957-.403-.556-.134-.996-.325-1.302-.593a1.252 1.252 0 0 1-.46-.976c0-.422.173-.766.498-1.034.326-.287.766-.421 1.302-.421.574 0 1.034.153 1.378.478.345.326.498.69.498 1.11v.02h-.69c0-.307-.095-.555-.306-.747-.21-.191-.497-.287-.88-.287-.345 0-.632.077-.804.249a.766.766 0 0 0-.287.632c0 .23.095.42.306.574.21.153.536.287.995.402.556.134.977.344 1.264.612.287.268.44.613.44.996 0 .421-.172.766-.517 1.034-.344.268-.804.382-1.359.382-.517 0-.995-.153-1.397-.44a1.335 1.335 0 0 1-.594-1.148v-.02h.67c0 .345.115.594.364.785.249.192.555.268.919.268s.632-.076.842-.23c.249-.153.345-.363.345-.631a.826.826 0 0 0-.268-.613v.001zm5.146 1.237c-.024-.118-.024-.213-.024-.33-.17.237-.387.438-.637.59a1.54 1.54 0 0 1-.849.235c-.495 0-.873-.118-1.132-.401a1.439 1.439 0 0 1-.401-1.061c0-.472.189-.826.566-1.085.377-.26.873-.401 1.51-.401h.943v-.472c0-.283-.094-.519-.26-.684-.165-.165-.424-.26-.73-.26-.284 0-.52.071-.685.213a.695.695 0 0 0-.26.519h-.825v-.024c-.023-.354.142-.684.496-.967.353-.283.802-.448 1.344-.448.543 0 .99.141 1.32.424.331.283.496.684.496 1.203v2.335c0 .165 0 .33.024.496.023.165.047.33.094.471h-.92v.048a13.358 13.358 0 0 0-.07-.401zm-1.428-.283c.306 0 .613-.071.849-.236.26-.165.425-.354.495-.566v-.779h-.967c-.354 0-.637.095-.849.26a.791.791 0 0 0-.307.637.77.77 0 0 0 .19.518c.14.095.33.166.589.166zM272.77 69.61h-3.22c0 .597.123 1.03.367 1.296.32.35.658.477 1.12.43.81-.08.965-.297 1.3-.488l.34.585c-.398.411-1.035.617-1.91.617-1.314 0-2.115-1.089-2.168-2.385-.052-1.296.465-2.8 2.167-2.862 1.443.038 2.11.974 2.004 2.807zm-.904-.713c-.009-.912-.375-1.367-1.099-1.367-.723 0-1.119.455-1.186 1.367h2.285zm8.491.713h-3.22c0 .597.122 1.03.366 1.296.32.35.659.477 1.121.43.809-.08.965-.297 1.3-.488l.34.585c-.398.411-1.035.617-1.911.617-1.314 0-2.115-1.089-2.167-2.385-.052-1.296.465-2.8 2.167-2.862 1.442.038 2.11.974 2.004 2.807zm-.904-.713c-.01-.912-.376-1.367-1.1-1.367-.723 0-1.118.455-1.186 1.367h2.286zm-5.333-4.106h.847v7.26h-.846l-.001-7.26zm17.51 2.115h.921v5.068h-.92l-.001-5.068zm.013-2.302v.914h.938v-.914h-.938z" fill="#2A3052" fill-rule="nonzero"/></g></svg>