<svg width="299" height="197" xmlns="http://www.w3.org/2000/svg"><g fill="none" fill-rule="evenodd"><path fill="#F1F2F2" d="M0 0h299v197H0z"/><path d="M1.987 1.98v193.04h295.026V1.98H1.987zM299 0v197H0V0h299z" fill="#C2C2C2" fill-rule="nonzero"/><path d="M4.887 56.446v-1.207h289.656v1.207H4.887zm0 40.534v-1.207h289.656v1.207H4.887zm0 40.534v-1.207h289.656v1.207H4.887zm0 40.496v-1.207h289.656v1.207H4.887zm34.38-142.416h1.206v159.67h-1.206V35.594zm36.664 0h1.207v159.67h-1.207V35.594zm36.628 0h1.207v159.67h-1.207V35.594zm36.665 0h1.207v159.67h-1.207V35.594zm36.627 0h1.207v159.67h-1.207V35.594zm36.628 0h1.207v159.67h-1.207V35.594zM4.887 117.228v-1.207h289.656v1.207H4.887z" fill="#DFDEDE" fill-rule="nonzero"/><path d="M259.144 35.594h1.207v159.67h-1.207V35.594zM4.887 76.731v-1.206h289.656v1.206H4.887zm0 81.03v-1.206h289.656v1.207H4.887z" fill="#2A3052" fill-rule="nonzero"/><path fill="#C2C2C2" d="M2.794 35.606V33.19h293.842v2.415z"/><path d="M19.538 19.194h-4.223v2.95h4.97v1.607h-6.989V13.403h6.99v1.606h-4.934v2.616h4.223v1.569h-.037zm3.7-3.139l.075 1.084a2.79 2.79 0 0 1 .934-.934c.372-.224.8-.34 1.234-.336a2.232 2.232 0 0 1 1.794.747 3.57 3.57 0 0 1 .635 2.316v4.82h-2.056v-4.82a1.565 1.565 0 0 0-.299-1.083 1.245 1.245 0 0 0-.934-.337 1.675 1.675 0 0 0-.747.15 1.388 1.388 0 0 0-.561.486v5.603h-2.056v-7.696h1.981zm5.943 3.923a5.016 5.016 0 0 1 .785-2.951 2.508 2.508 0 0 1 2.205-1.121 1.85 1.85 0 0 1 1.009.262c.312.173.58.416.785.71v-4.222h2.055V23.75h-1.756l-.187-.934a2.578 2.578 0 0 1-.86.822 2.258 2.258 0 0 1-1.121.262 2.512 2.512 0 0 1-2.168-1.046 4.452 4.452 0 0 1-.785-2.727v-.15h.038zm2.018.15a3.309 3.309 0 0 0 .336 1.606c.225.383.64.612 1.084.598.273 0 .542-.064.785-.187a1.18 1.18 0 0 0 .523-.523v-3.325a1.532 1.532 0 0 0-.523-.56 1.312 1.312 0 0 0-.747-.187 1.144 1.144 0 0 0-1.084.672 4.037 4.037 0 0 0-.337 1.793v.113H31.2zm10.502 1.494a.77.77 0 0 0-.336-.598 4.471 4.471 0 0 0-1.196-.448 4.628 4.628 0 0 1-2.018-.822 1.83 1.83 0 0 1-.673-1.494 2.054 2.054 0 0 1 .822-1.682 3.39 3.39 0 0 1 2.205-.71 3.638 3.638 0 0 1 2.318.673c.552.41.86 1.07.822 1.756v.037h-2.018a1.046 1.046 0 0 0-.3-.747 1.271 1.271 0 0 0-.822-.224 1.054 1.054 0 0 0-.785.262.78.78 0 0 0 0 1.232c.366.22.773.36 1.197.411.753.104 1.47.386 2.093.822.455.375.704.943.672 1.532a2.107 2.107 0 0 1-.86 1.718 3.713 3.713 0 0 1-2.317.673 3.48 3.48 0 0 1-2.392-.785 2.279 2.279 0 0 1-.86-1.756v-.037h1.87c-.023.35.131.686.41.897.301.19.654.282 1.01.261.303.022.605-.057.86-.224.192-.2.3-.469.298-.747zm7.064 2.13v-10.35h3.439a4.718 4.718 0 0 1 2.803.71 2.462 2.462 0 0 1 1.009 2.13c.014.452-.117.897-.374 1.27a2.283 2.283 0 0 1-1.084.859 2.22 2.22 0 0 1 1.383.859c.304.452.46.987.449 1.532.06.86-.303 1.696-.972 2.241a4.236 4.236 0 0 1-2.728.785h-3.925v-.038zm2.056-6.015h1.495a2.06 2.06 0 0 0 1.27-.337 1.18 1.18 0 0 0 .45-1.008 1.206 1.206 0 0 0-.45-1.046 2.232 2.232 0 0 0-1.345-.337h-1.42v2.728zm0 1.457v2.988h1.906c.444.044.888-.09 1.233-.373.298-.263.45-.652.411-1.046a1.382 1.382 0 0 0-1.532-1.57h-2.018zM61.21 23.9a3.383 3.383 0 0 1-2.616-1.084 3.761 3.761 0 0 1-.972-2.727v-.261a4.198 4.198 0 0 1 .934-2.84 2.976 2.976 0 0 1 2.505-1.083 3.047 3.047 0 0 1 2.392.934c.597.708.904 1.615.86 2.54V20.5H59.79v.037c.021.454.192.887.486 1.233.307.331.745.51 1.196.486a3.25 3.25 0 0 0 1.121-.15c.347-.093.675-.245.972-.448l.56 1.27c-.36.3-.78.517-1.233.636a3.668 3.668 0 0 1-1.682.336zm-.187-6.389a1.065 1.065 0 0 0-.897.449c-.247.337-.39.74-.41 1.158l.037.037h2.504v-.187a1.737 1.737 0 0 0-.3-1.046 1.11 1.11 0 0 0-.934-.41zm6.877-3.324v1.867h1.271v1.457h-1.27v3.923a.919.919 0 0 0 .186.635.71.71 0 0 0 .486.187h.262a.95.95 0 0 0 .261-.075l.187 1.495a4.651 4.651 0 0 1-.598.149c-.21.032-.423.045-.635.037a2.176 2.176 0 0 1-1.645-.597 2.491 2.491 0 0 1-.56-1.868v-3.886h-1.122v-1.457h1.122v-1.867H67.9zm9.195 6.799h.037l1.009-4.932h1.944l-1.944 7.696h-1.72l-1.42-4.595h-.037l-1.42 4.595h-1.72l-1.943-7.696h1.944l1.009 4.932h.037l1.42-4.932h1.383l1.42 4.932zM84.42 23.9a3.383 3.383 0 0 1-2.616-1.084 3.761 3.761 0 0 1-.972-2.727v-.261a4.198 4.198 0 0 1 .934-2.84 2.976 2.976 0 0 1 2.505-1.083 3.047 3.047 0 0 1 2.391.934 3.66 3.66 0 0 1 .86 2.54V20.5H83v.037c.021.454.192.887.486 1.233.307.331.745.51 1.196.486a3.24 3.24 0 0 0 1.12-.15 3.18 3.18 0 0 0 .973-.373l.56 1.27a3.484 3.484 0 0 1-1.233.635c-.54.19-1.11.278-1.682.262zm-.15-6.389a1.065 1.065 0 0 0-.897.449c-.247.337-.39.74-.41 1.158l.037.037h2.504v-.187a1.737 1.737 0 0 0-.3-1.046 1.11 1.11 0 0 0-.933-.41zm7.775 6.389a3.383 3.383 0 0 1-2.617-1.084 3.761 3.761 0 0 1-.972-2.727v-.261a4.198 4.198 0 0 1 .935-2.84 2.976 2.976 0 0 1 2.504-1.083 3.047 3.047 0 0 1 2.392.934c.597.708.904 1.615.86 2.54V20.5h-4.56v.037c.021.454.192.887.486 1.233.307.331.745.51 1.196.486a3.25 3.25 0 0 0 1.121-.15c.347-.093.675-.245.972-.448l.56 1.27c-.36.3-.78.517-1.233.636a3.25 3.25 0 0 1-1.644.336zm-.187-6.389a1.065 1.065 0 0 0-.897.449c-.248.337-.39.74-.412 1.158l.038.037h2.504v-.187a1.737 1.737 0 0 0-.299-1.046 1.11 1.11 0 0 0-.934-.41zm6.316-1.457l.075 1.084c.232-.382.552-.702.934-.934.372-.224.8-.34 1.234-.336a2.232 2.232 0 0 1 1.793.747 3.57 3.57 0 0 1 .636 2.316v4.82h-2.056v-4.82a1.565 1.565 0 0 0-.299-1.083 1.245 1.245 0 0 0-.934-.337 1.675 1.675 0 0 0-.748.15c-.227.108-.42.276-.56.486v5.603h-2.056v-7.696h1.981z" fill="#000" fill-rule="nonzero"/><path d="M81.26 98.438l-40.596 19.814a1.81 1.81 0 1 1-1.588-3.254l41.486-20.249a1.81 1.81 0 0 1 1.736.08l38.373 23.362 27.773-27.4a1.81 1.81 0 0 1 2.444-.09l35.648 30.304 35.474-26.087a1.81 1.81 0 0 1 1.546-.29l36.665 9.938a1.81 1.81 0 0 1-.947 3.495l-35.823-9.709-35.924 26.418a1.81 1.81 0 0 1-2.245-.079l-35.476-30.157-27.598 27.227a1.81 1.81 0 0 1-2.213.258L81.26 98.438z" fill="#2A3052"/><path d="M187.987 147.445h-34.945l-5.382-8.181-5.382 8.181h-34.946a4.733 4.733 0 0 0-4.71 4.782v24.694a4.753 4.753 0 0 0 4.71 4.782h80.692a4.733 4.733 0 0 0 4.71-4.782v-24.694a4.758 4.758 0 0 0-4.747-4.782z" fill="#E88024"/><ellipse cx="8.335" cy="8.564" rx="8.11" ry="8.443" opacity=".6" transform="translate(251.412 99.132)" fill="#FFF"/><path d="M259.747 117.346c-5.157 0-9.317-4.331-9.317-9.65 0-5.32 4.16-9.65 9.317-9.65s9.318 4.33 9.318 9.65c0 5.319-4.16 9.65-9.318 9.65zm0-2.414c3.802 0 6.903-3.23 6.903-7.236 0-4.007-3.101-7.236-6.903-7.236-3.801 0-6.903 3.229-6.903 7.236s3.102 7.236 6.903 7.236z" fill="#E88024" fill-rule="nonzero"/><ellipse cx="8.97" cy="9.021" rx="8.11" ry="8.443" opacity=".6" transform="translate(30.9 107.604)" fill="#FFF"/><path d="M39.87 126.275c-5.157 0-9.317-4.332-9.317-9.65 0-5.32 4.16-9.65 9.317-9.65s9.317 4.33 9.317 9.65c0 5.318-4.16 9.65-9.317 9.65zm0-2.414c3.802 0 6.903-3.23 6.903-7.236 0-4.007-3.101-7.236-6.903-7.236-3.802 0-6.903 3.229-6.903 7.236 0 4.006 3.101 7.236 6.903 7.236z" fill="#E88024" fill-rule="nonzero"/><path d="M22.124 59.449h-2.96l-1.203 8.024h-1.215l1.203-8.024h-2.924l.142-.956h7.1l-.143.956zm3.313 8.024c-.009-.23-.013-.416-.013-.558 0-.142.008-.287.025-.435a3.603 3.603 0 0 1-1.009.8 2.52 2.52 0 0 1-1.218.323c-.67 0-1.167-.18-1.49-.54-.322-.36-.436-.848-.342-1.465a2.04 2.04 0 0 1 .987-1.51c.564-.35 1.293-.525 2.19-.525h1.32l.099-.66c.061-.407-.01-.72-.213-.94-.204-.22-.526-.33-.966-.33-.374 0-.703.098-.986.295-.284.198-.445.434-.482.71l-1.16.012-.005-.037c.049-.506.343-.955.882-1.348.538-.392 1.192-.589 1.961-.589.728 0 1.3.195 1.715.583.415.389.571.94.469 1.656l-.482 3.214c-.04.25-.064.484-.07.7-.007.216.007.43.04.644h-1.252zm-1.882-.888c.42 0 .827-.115 1.222-.345.394-.23.668-.49.82-.777l.166-1.08H24.4c-.473 0-.88.126-1.22.377-.342.25-.535.538-.58.863-.05.308.004.546.163.712.158.167.422.25.792.25zm8.722-4.712l-.617-.037a1.5 1.5 0 0 0-.839.237 1.966 1.966 0 0 0-.617.67l-.709 4.73H28.28l1-6.673h1.085l-.025.943c.239-.337.51-.599.814-.786a1.882 1.882 0 0 1 1.262-.26c.084.015.15.03.2.047l-.34 1.129h.001zm.573 2.387c.165-1.114.523-1.99 1.074-2.628.55-.637 1.242-.956 2.072-.956.415 0 .771.089 1.067.266.296.176.53.431.703.764l.284-.906h.969l-1.006 6.71c-.136.889-.482 1.554-1.04 1.996-.556.442-1.31.663-2.26.663-.308 0-.645-.045-1.011-.136a3.657 3.657 0 0 1-.938-.358l.327-.943c.218.123.486.223.805.299.319.076.638.114.96.114.567 0 1.012-.137 1.334-.41.323-.274.526-.682.608-1.225l.111-.758a2.64 2.64 0 0 1-.879.635c-.342.147-.71.22-1.082.216-.782 0-1.366-.298-1.752-.894-.387-.597-.508-1.37-.364-2.32l.018-.13v.001zm1.197.13c-.107.694-.052 1.24.164 1.634.215.395.613.592 1.193.592.354 0 .668-.085.944-.256.275-.17.518-.41.728-.718l.462-3.054a1.585 1.585 0 0 0-.515-.675c-.224-.167-.513-.25-.866-.25-.556 0-1.015.245-1.379.734-.364.49-.601 1.11-.712 1.863l-.019.13zm8.463 3.213c-.922 0-1.613-.31-2.076-.931-.463-.621-.62-1.423-.472-2.406l.043-.271c.144-.995.536-1.797 1.175-2.406.64-.608 1.365-.913 2.175-.913.859 0 1.478.282 1.856.845.378.564.5 1.298.364 2.202l-.092.642h-4.318c-.095.707-.025 1.265.21 1.674.234.41.66.614 1.276.614.395 0 .762-.06 1.101-.179.34-.119.633-.28.88-.48l.357.789c-.271.23-.615.424-1.03.583-.415.158-.898.237-1.45.237h.001zm.703-5.97c-.407 0-.776.164-1.107.493a2.811 2.811 0 0 0-.713 1.246l.013.037h3.003l.013-.099c.074-.497.016-.901-.173-1.212-.19-.31-.535-.466-1.036-.466v.001zm6.094-2.443l-.24 1.61h1.264l-.136.9H48.93l-.604 4.053c-.05.324-.02.548.09.669.108.121.272.182.49.182a1.62 1.62 0 0 0 .463-.086l.043.832a1.29 1.29 0 0 1-.43.182 2.13 2.13 0 0 1-.533.071c-.477 0-.844-.15-1.1-.45-.258-.3-.337-.767-.238-1.4l.604-4.053h-1.06l.135-.9h1.061l.24-1.61h1.216zm12.114.259h-2.96l-1.204 8.024h-1.215l1.203-8.024h-2.924l.142-.956h7.1l-.142.956zm1.221 8.024h-1.215l1-6.673h1.214l-.999 6.673zm1.258-8.382h-1.215l.185-1.24h1.215l-.185 1.24zm2.64 2.665c.272-.346.59-.612.953-.799a2.56 2.56 0 0 1 1.187-.28c.695 0 1.215.212 1.558.638.343.425.45 1.074.318 1.946l-.63 4.212h-1.215l.63-4.188c.09-.608.038-1.03-.155-1.267-.193-.237-.532-.355-1.018-.355-.361 0-.686.08-.974.238-.288.158-.53.377-.728.657l-.74 4.915h-1.215l1-6.673h1.085l-.056.956zm5.416 2.504c.164-1.114.522-1.99 1.073-2.628.55-.637 1.242-.956 2.072-.956.416 0 .771.089 1.067.266.296.176.53.431.704.764l.283-.906h.969l-1.006 6.71c-.135.889-.482 1.554-1.039 1.996-.557.442-1.31.663-2.26.663-.309 0-.646-.045-1.012-.136a3.657 3.657 0 0 1-.938-.358l.327-.943c.218.123.486.223.805.299.319.076.639.114.96.114.567 0 1.012-.137 1.335-.41.322-.274.525-.682.607-1.225l.111-.758a2.64 2.64 0 0 1-.879.635c-.342.147-.71.22-1.082.216-.782 0-1.365-.298-1.752-.894-.386-.597-.508-1.37-.364-2.32l.019-.13v.001zm1.196.13c-.107.694-.052 1.24.164 1.634.216.395.613.592 1.193.592.354 0 .668-.085.944-.256.275-.17.518-.41.728-.718l.462-3.054a1.585 1.585 0 0 0-.515-.675c-.224-.167-.513-.25-.866-.25-.555 0-1.015.245-1.379.734-.364.49-.601 1.11-.712 1.863l-.019.13zm5.983-.13c.165-1.114.522-1.99 1.073-2.628.551-.637 1.242-.956 2.073-.956.415 0 .77.089 1.067.266.296.176.53.431.703.764l.284-.906h.968l-1.005 6.71c-.136.889-.482 1.554-1.04 1.996-.557.442-1.31.663-2.26.663-.308 0-.646-.045-1.012-.136a3.657 3.657 0 0 1-.937-.358l.327-.943c.218.123.486.223.805.299.318.076.638.114.959.114.567 0 1.012-.137 1.335-.41.323-.274.525-.682.608-1.225l.11-.758c-.258.28-.551.491-.878.635-.342.147-.71.22-1.083.216-.781 0-1.365-.298-1.751-.894-.387-.597-.508-1.37-.364-2.32l.018-.13v.001zm1.197.13c-.107.694-.053 1.24.163 1.634.216.395.614.592 1.194.592.353 0 .668-.085.943-.256.276-.17.519-.41.728-.718l.463-3.054a1.585 1.585 0 0 0-.515-.675c-.224-.167-.513-.25-.867-.25-.555 0-1.014.245-1.378.734-.364.49-.602 1.11-.713 1.863l-.018.13zm7.031 3.083h-1.215l1-6.673h1.215l-1 6.673zm1.259-8.382h-1.216l.186-1.24h1.215l-.185 1.24zM18.78 164.613h-2.798l-1.136 7.581h-1.148l1.137-7.58h-2.762l.134-.904h6.706l-.134.903h.001zm3.128 7.581a15.44 15.44 0 0 1-.011-.527c0-.134.008-.271.023-.411-.26.299-.578.55-.953.755a2.381 2.381 0 0 1-1.15.305c-.634 0-1.103-.17-1.408-.51-.305-.34-.412-.8-.323-1.383.09-.622.4-1.098.932-1.428.533-.33 1.222-.495 2.069-.495h1.247l.093-.624c.058-.384-.009-.68-.201-.888-.192-.208-.496-.312-.912-.312-.353 0-.664.093-.932.28-.268.186-.42.41-.455.67l-1.095.011-.006-.035c.047-.477.324-.902.833-1.273.51-.37 1.127-.556 1.853-.556.688 0 1.228.183 1.62.55.392.368.54.889.443 1.565l-.455 3.036c-.037.219-.06.44-.067.661-.005.204.007.407.038.61h-1.183v-.001zm-1.777-.839c.396 0 .781-.109 1.154-.326.373-.218.631-.463.775-.735l.157-1.02H20.93c-.447 0-.832.12-1.154.356-.323.237-.505.51-.548.816-.047.291.005.516.154.673.15.157.4.236.75.236h-.001zm8.24-4.452l-.583-.035c-.3 0-.563.075-.793.225-.229.15-.423.36-.582.632l-.67 4.47h-1.148l.944-6.306h1.025l-.023.892a2.65 2.65 0 0 1 .769-.743c.356-.22.778-.306 1.192-.245.08.014.142.028.189.044l-.32 1.066zm.541 2.255c.156-1.053.494-1.88 1.014-2.482.52-.602 1.173-.903 1.958-.903.392 0 .729.083 1.008.25.28.167.501.408.664.723l.269-.857h.914l-.95 6.34c-.128.84-.455 1.467-.981 1.885-.527.418-1.239.626-2.136.626-.291 0-.61-.042-.955-.128a3.455 3.455 0 0 1-.886-.338l.309-.891c.206.116.459.21.76.282.301.072.603.108.906.108.536 0 .957-.129 1.262-.387.305-.259.496-.644.574-1.157l.105-.717a2.5 2.5 0 0 1-.83.6 2.51 2.51 0 0 1-1.023.204c-.739 0-1.29-.281-1.655-.844-.365-.564-.48-1.294-.344-2.191l.017-.123zm1.13.123c-.1.656-.049 1.17.155 1.544.204.373.58.56 1.128.56.334 0 .631-.081.891-.243.26-.16.49-.387.688-.679l.437-2.884a1.497 1.497 0 0 0-.487-.638c-.211-.157-.484-.236-.818-.236-.525 0-.959.231-1.303.694-.343.462-.568 1.048-.673 1.76l-.017.122h-.001zm7.995 3.035c-.87 0-1.523-.293-1.96-.88-.437-.586-.586-1.344-.446-2.272l.04-.256c.137-.94.507-1.698 1.11-2.273.605-.575 1.29-.862 2.055-.862.812 0 1.396.266 1.754.798.357.532.472 1.226.343 2.08l-.087.606h-4.079c-.09.668-.023 1.196.198 1.582.222.387.624.58 1.206.58.373 0 .72-.056 1.04-.169a2.73 2.73 0 0 0 .83-.454l.339.745a3.307 3.307 0 0 1-.973.551c-.393.15-.85.224-1.37.224zm.665-5.64c-.385 0-.734.155-1.046.466-.313.31-.537.703-.673 1.177l.011.035h2.838l.012-.093c.07-.47.015-.852-.163-1.145-.18-.293-.505-.44-.98-.44h.001zm5.757-2.307l-.228 1.52h1.195l-.128.851h-1.195l-.57 3.828c-.047.307-.02.518.084.633.103.114.257.171.463.171a1.55 1.55 0 0 0 .437-.082l.04.788c-.096.07-.231.127-.404.171a1.998 1.998 0 0 1-.504.067c-.45 0-.798-.141-1.04-.425-.243-.284-.318-.724-.225-1.323l.571-3.828h-1.002l.128-.85h1.002l.228-1.521h1.148zm6.071 4.148l-.547 3.677h-1.148l1.27-8.478h2.902c.893 0 1.562.208 2.007.623.445.416.609 1.012.492 1.79-.07.458-.242.845-.518 1.162-.276.316-.649.566-1.119.748.431.156.728.405.892.75.163.343.21.758.14 1.243l-.123.799c-.043.275-.05.515-.02.72a.9.9 0 0 0 .23.503l-.023.14h-1.183c-.132-.132-.2-.324-.204-.577a5.225 5.225 0 0 1 .052-.798l.117-.775c.07-.478-.007-.852-.23-1.122-.224-.27-.563-.405-1.017-.405h-1.97zm.134-.903h1.643c.622 0 1.1-.125 1.434-.376.334-.25.54-.624.618-1.121.073-.494-.007-.868-.242-1.122-.235-.255-.65-.382-1.244-.382h-1.754l-.455 3.001zm8.199 4.702c-.87 0-1.524-.293-1.961-.88-.437-.586-.586-1.344-.446-2.272l.041-.256c.136-.94.506-1.698 1.11-2.273.604-.575 1.289-.862 2.054-.862.812 0 1.397.266 1.754.798s.472 1.226.344 2.08l-.088.606h-4.078c-.09.668-.024 1.196.198 1.582.221.387.623.58 1.206.58.373 0 .72-.056 1.04-.169a2.73 2.73 0 0 0 .83-.454l.338.745c-.256.218-.58.402-.973.551-.392.15-.849.224-1.37.224h.001zm.664-5.64c-.385 0-.733.155-1.046.466-.313.31-.537.703-.673 1.177l.012.035h2.837l.012-.093c.07-.47.016-.852-.163-1.145-.179-.293-.505-.44-.979-.44zm4.906.117c.257-.327.557-.578.9-.755a2.417 2.417 0 0 1 1.122-.265c.657 0 1.147.2 1.472.603.324.402.424 1.015.3 1.838l-.595 3.98h-1.148l.595-3.956c.085-.575.037-.974-.146-1.198-.183-.223-.503-.335-.961-.335-.342 0-.65.075-.921.224-.272.15-.501.357-.688.621l-.699 4.644h-1.148l.944-6.305h1.026l-.053.904zm5.058 2.365c.155-1.053.493-1.88 1.014-2.482.52-.602 1.175-.903 1.964-.903.36 0 .675.072.94.215.267.144.483.352.65.624l.525-3.508h1.148l-1.364 9.09h-.88l-.052-.798a2.56 2.56 0 0 1-.868.687c-.327.156-.69.233-1.09.233-.742 0-1.295-.281-1.66-.844-.366-.564-.48-1.294-.344-2.191l.017-.123zm1.13.123c-.1.656-.049 1.17.155 1.544.204.373.582.56 1.133.56.33 0 .626-.08.886-.24.26-.16.487-.38.682-.664l.437-2.92a1.421 1.421 0 0 0-.481-.626c-.212-.153-.483-.23-.813-.23-.528 0-.964.23-1.308.69-.344.46-.568 1.048-.673 1.763l-.018.123zm9.335 2.913a15.44 15.44 0 0 1-.011-.527c0-.134.007-.271.023-.411-.26.299-.578.55-.953.755a2.381 2.381 0 0 1-1.15.305c-.634 0-1.103-.17-1.408-.51-.305-.34-.413-.8-.323-1.383.09-.622.4-1.098.932-1.428.532-.33 1.222-.495 2.069-.495h1.247l.093-.624c.058-.384-.009-.68-.201-.888-.193-.208-.496-.312-.912-.312-.354 0-.664.093-.932.28-.268.186-.42.41-.455.67l-1.095.011-.006-.035c.046-.477.324-.902.833-1.273.509-.37 1.127-.556 1.853-.556.688 0 1.228.183 1.62.55.392.368.54.889.443 1.565l-.455 3.036c-.037.219-.06.44-.067.661-.006.204.007.407.038.61h-1.183v-.001zm-1.777-.839c.396 0 .78-.109 1.154-.326.373-.218.631-.463.775-.735l.157-1.02h-1.288c-.446 0-.831.12-1.153.356-.323.237-.505.51-.548.816-.047.291.005.516.154.673.15.157.4.236.749.236zm6.433-4.656c.264-.295.565-.523.903-.684a2.49 2.49 0 0 1 1.09-.242c.648 0 1.135.204 1.46.612.324.408.426 1.027.305 1.858l-.594 3.951h-1.148l.594-3.962c.082-.536.03-.925-.157-1.166-.186-.24-.503-.36-.95-.36-.33 0-.634.069-.912.209a2.07 2.07 0 0 0-.708.583l-.705 4.696h-1.148l1.364-9.09h1.148l-.542 3.595z" fill="#6D6E71" fill-rule="nonzero"/><path d="M48.8 138.453c-.032-.157-.032-.283-.032-.44-.22.314-.504.566-.85.787-.347.22-.725.315-1.135.315-.661 0-1.165-.158-1.512-.536a1.921 1.921 0 0 1-.535-1.417c0-.63.252-1.102.756-1.449.504-.346 1.165-.535 2.016-.535h1.26v-.63c0-.378-.126-.693-.347-.914-.22-.22-.567-.346-.976-.346-.378 0-.693.094-.914.283-.22.19-.346.441-.346.693h-1.103v-.031c-.031-.473.19-.914.662-1.292.472-.378 1.07-.598 1.795-.598.725 0 1.323.189 1.764.567.441.378.662.913.662 1.606v3.119c0 .22 0 .44.031.661.032.22.063.441.126.63h-1.228v.063c-.032-.189-.063-.378-.095-.536h.001zm-1.907-.377c.409 0 .818-.095 1.133-.315.347-.221.567-.473.662-.756v-1.04h-1.292c-.472 0-.85.126-1.133.347-.284.22-.41.535-.41.85 0 .284.095.504.252.693.189.126.441.22.788.22v.001zm-8.179-5.692h1.163v6.579h-1.163v-.976c-.368.476-.977 1.243-2.197 1.114-1.221-.13-1.976-1.087-1.982-2.142-.005-1.056.006-4.933 0-4.575h1.153v2.492c0 2.916.642 3.239 1.518 3.239.877 0 1.307-.74 1.508-.988-.01-1.385-.01-2.967 0-4.743zm-7.299 6.655h1.174v-8.875H31.13l-2.875 7.27-2.847-7.27h-1.577v8.875H25l.055-6.901 2.754 6.901h.89l2.715-6.704.001 6.704zm10.318-9.493h1.2v9.485h-1.2v-9.485zm10.02 2.933h1.181v6.501h-1.181v-6.501zm.016-2.953v1.172h1.203v-1.172h-1.203z" fill="#2A3052" fill-rule="nonzero"/><path d="M174.073 166.95h-2.492v-8.243h2.492v8.243zm0 4.337h-2.492v-2.214h2.492v2.214zm-29.118-10.475c2.887 0 4.452 1.76 4.848 4.396.396 2.636-1.028 6.36-4.644 6.36-3.617 0-4.787-2.75-4.787-5.597 0-2.846 1.697-5.16 4.583-5.16v.001zm.026 1.847c-.858.081-2.378.682-2.29 3.528.09 2.845 1.334 3.514 2.29 3.514.957 0 2.57-.265 2.57-3.502 0-3.238-1.712-3.621-2.57-3.54zm-5.219-1.779c-.094.894-.198 1.63-.31 2.206-1.125-.073-2.293-.18-2.804 1.135l.014 7.071h-2.315v-10.33h2.06c.098.69.16 1.192.183 1.508.712-1.329 1.77-1.859 3.172-1.59zm-14.885 10.412h-2.357v-13.809h6.072c1.902 0 4.504 1.586 4.219 4.73-.19 2.096-1.596 3.368-4.22 3.815h-3.714v5.264zm.011-7.095h3.116c.769 0 2.487-.534 2.487-2.512 0-1.979-1.702-2.433-2.487-2.406-.523.017-1.562.008-3.116-.027v4.945zm32.419-7.824c-.107.55-.164 1.098-.248 1.797-.358-.079-2.367-.587-2.415 1.59v1.202h1.912v1.666h-1.912l.048 8.664H152.3v-8.664h-1.506v-1.666h1.596c-.165-2.127.265-3.524 1.29-4.19 1.537-1 3.052-.587 3.627-.4v.001zm1.733 4.613h2.315v10.252h-2.314l-.001-10.252zm.046-4.53v1.961h2.303v-1.96l-2.303-.001zm8.601 2.031v2.55h1.784v1.69h-1.784v6.111c0 1.235 1.563.826 1.664.775l.274 1.632c-.153.102-3.876 1.426-4.272-2.407v-6.111h-1.536v-1.69h1.536v-2.55h2.334z" fill="#FFF" fill-rule="nonzero"/><path d="M267.96 127.404c0-.316-.122-.558-.34-.777-.219-.194-.631-.388-1.214-.51-.703-.17-1.261-.412-1.65-.752a1.587 1.587 0 0 1-.582-1.237c0-.534.218-.97.63-1.31.413-.365.971-.534 1.65-.534.729 0 1.311.194 1.748.606.437.413.63.874.63 1.408v.024h-.873c0-.388-.121-.704-.388-.946-.267-.243-.63-.364-1.116-.364-.437 0-.8.097-1.02.315a.97.97 0 0 0-.363.8c0 .292.121.535.388.729.267.194.68.364 1.262.51.704.17 1.237.436 1.601.776.364.34.558.776.558 1.262 0 .533-.218.97-.655 1.31-.437.34-1.019.485-1.723.485a3.014 3.014 0 0 1-1.771-.558c-.51-.364-.752-.85-.752-1.456v-.024h.85c0 .437.145.752.46.995.316.243.704.34 1.165.34.46 0 .8-.097 1.068-.292.315-.194.436-.46.436-.8h.001zm17.38-.026c-.172-.153-.498-.306-.957-.402-.555-.134-.995-.325-1.302-.593a1.252 1.252 0 0 1-.46-.976c0-.421.173-.766.499-1.034.325-.287.765-.421 1.301-.421.575 0 1.034.153 1.379.478.344.326.497.69.497 1.11v.02h-.689c0-.306-.096-.555-.306-.747-.21-.191-.498-.287-.88-.287-.345 0-.632.077-.805.249a.766.766 0 0 0-.287.632c0 .23.096.42.306.574.211.153.536.287.996.402.555.134.976.345 1.263.613.287.268.44.612.44.995 0 .421-.172.766-.516 1.034-.345.268-.804.383-1.36.383-.516 0-.995-.154-1.397-.44a1.335 1.335 0 0 1-.593-1.15v-.018h.67c0 .344.115.593.363.784.25.192.556.268.92.268.363 0 .631-.076.842-.23.248-.152.344-.363.344-.631a.826.826 0 0 0-.268-.613zm5.146 1.238c-.024-.118-.024-.212-.024-.33-.17.237-.387.438-.636.59a1.54 1.54 0 0 1-.85.235c-.495 0-.872-.118-1.132-.4a1.439 1.439 0 0 1-.4-1.062c0-.472.188-.826.565-1.085.378-.26.873-.401 1.51-.401h.943v-.472c0-.283-.094-.519-.26-.684-.164-.165-.424-.26-.73-.26-.283 0-.52.071-.684.213a.695.695 0 0 0-.26.519h-.825v-.024c-.024-.354.141-.684.495-.967.354-.283.802-.448 1.344-.448.543 0 .991.142 1.321.425.33.283.496.684.496 1.202v2.336c0 .165 0 .33.023.495.024.165.047.33.095.472h-.92v.047c-.024-.142-.047-.283-.071-.401zm-1.428-.283c.307 0 .614-.071.85-.236.259-.165.424-.354.495-.566v-.779h-.967c-.354 0-.637.095-.85.26a.791.791 0 0 0-.306.637c0 .212.07.377.189.519.141.094.33.165.59.165h-.001zm-15.165-1.574h-3.22c0 .597.122 1.03.366 1.296.32.35.658.477 1.121.43.809-.08.965-.296 1.3-.487l.34.584c-.398.412-1.036.617-1.911.617-1.314 0-2.115-1.088-2.167-2.384-.052-1.296.465-2.8 2.167-2.863 1.442.038 2.11.974 2.004 2.807zm-.904-.713c-.01-.911-.376-1.367-1.1-1.367-.723 0-1.118.456-1.186 1.367h2.286zm8.491.713h-3.22c0 .597.122 1.03.366 1.296.32.35.658.477 1.12.43.81-.08.965-.296 1.3-.487l.34.584c-.398.412-1.035.617-1.91.617-1.315 0-2.115-1.088-2.168-2.384-.052-1.296.465-2.8 2.167-2.863 1.443.038 2.11.974 2.004 2.807h.001zm-.905-.713c-.01-.911-.375-1.367-1.099-1.367-.723 0-1.119.456-1.186 1.367h2.285zm-5.332-4.106h.847v7.26h-.847v-7.26zm17.51 2.115h.92v5.068h-.92v-5.068zm.012-2.301v.913h.938v-.913h-.938z" fill="#2A3052" fill-rule="nonzero"/></g></svg>