<svg width="299" height="197" xmlns="http://www.w3.org/2000/svg"><g fill="none" fill-rule="evenodd"><path fill="#F1F2F2" d="M0 0h299v197H0z"/><path d="M1.987 1.98v193.04h295.026V1.98H1.987zM299 0v197H0V0h299z" fill="#C2C2C2" fill-rule="nonzero"/><path d="M5 57.804v-1.19h286v1.19H5zM5 79.85v-1.189h286v1.19H5zm0 18.372v-1.189h286v1.19H5zm0 40.419v-1.189h286v1.189H5zm0 18.372v-1.189h286v1.189H5zm0 22.047v-1.19h286v1.19H5zM39.241 37h1.184v158h-1.184V37zm36.667 0h1.184v158h-1.184V37zm36.667 0h1.184v158h-1.184V37zm33 0h1.184v158h-1.184V37zm36.666 0h1.184v158h-1.184V37zm36.667 0h1.184v158h-1.184V37zm36.667 0h1.184v158h-1.184V37z" fill="#DFDEDE" fill-rule="nonzero"/><path fill="#2A3052" fill-rule="nonzero" d="M2.906 116.82v-1.215h291.607v1.215z"/><path fill="#C2C2C2" fill-rule="nonzero" d="M.8 34.78v-2.43h293.563v2.43z"/><path d="M69.833 101.923L39.73 157.818a1.823 1.823 0 0 1-3.21-1.728l31.306-58.128a1.823 1.823 0 0 1 2.935-.381l30.386 32.439 44.065-55.643a1.823 1.823 0 0 1 2.911.07l43.41 60.709 31.933-82.908a1.823 1.823 0 0 1 2.704-.867l34.315 22.605a1.823 1.823 0 1 1-2.005 3.044l-32.425-21.36-32.336 83.953c-.522 1.354-2.34 1.585-3.183.405l-43.97-61.49-43.875 55.403a1.823 1.823 0 0 1-2.759.114l-30.099-32.132z" fill="#2A3052" fill-rule="nonzero"/><path d="M187.24 147.191h-35.181l-5.419-8.223-5.418 8.223h-35.18c-2.635 0-4.742 2.14-4.742 4.807v24.82c0 2.666 2.145 4.807 4.741 4.807h81.236c2.634 0 4.741-2.14 4.741-4.807v-24.82c0-2.666-2.145-4.807-4.778-4.807z" fill="#E88024"/><ellipse cx="8.391" cy="8.678" rx="8.165" ry="8.486" opacity=".6" transform="translate(251.092 66.83)" fill="#FFF"/><path d="M259.483 85.21c-5.191 0-9.38-4.354-9.38-9.702s4.189-9.701 9.38-9.701c5.191 0 9.38 4.353 9.38 9.701 0 5.348-4.189 9.702-9.38 9.702zm0-2.43c3.827 0 6.95-3.246 6.95-7.272s-3.123-7.271-6.95-7.271c-3.828 0-6.95 3.245-6.95 7.271s3.122 7.271 6.95 7.271z" fill="#E88024" fill-rule="nonzero"/><ellipse cx="9.03" cy="8.514" rx="8.165" ry="8.486" opacity=".6" transform="translate(29.095 148.44)" fill="#FFF"/><path d="M38.125 166.656c-5.191 0-9.38-4.354-9.38-9.702s4.189-9.701 9.38-9.701c5.191 0 9.38 4.353 9.38 9.701 0 5.348-4.189 9.702-9.38 9.702zm0-2.43c3.828 0 6.95-3.246 6.95-7.272s-3.122-7.271-6.95-7.271c-3.828 0-6.95 3.245-6.95 7.271s3.122 7.271 6.95 7.271z" fill="#E88024" fill-rule="nonzero"/><path d="M249.26 124.861h-2.55l-1.537 7.725h-1.125l1.538-7.725h-2.513l.188-.938h6.187l-.188.938zm2.438 7.763v-.488c0-.113.037-.263.037-.375-.262.3-.562.525-.9.712a2.1 2.1 0 0 1-1.012.3c-.563 0-1.012-.187-1.275-.525-.262-.337-.337-.825-.225-1.424.113-.638.45-1.163.938-1.463.524-.338 1.162-.487 1.95-.487h1.087l.113-.638c.075-.412.037-.713-.113-.9-.15-.188-.45-.3-.825-.3-.338 0-.637.112-.9.3-.237.16-.41.4-.487.675h-1.088v-.038c.075-.487.375-.937.862-1.312.525-.375 1.125-.563 1.838-.563.638 0 1.125.188 1.5.563.375.375.488.9.338 1.575l-.6 3.112-.113.675a1.82 1.82 0 0 0 0 .638h-1.125v-.037zm-1.5-.863c.3 0 .638-.075.975-.263.338-.187.6-.412.75-.674l.225-1.2h-1.125c-.375 0-.75.112-1.05.374-.3.263-.488.525-.563.826-.075.3-.037.525.075.712.113.188.375.225.713.225zm8.063-4.538l-.638-.037c-.255 0-.504.078-.713.225a1.575 1.575 0 0 0-.562.638l-.9 4.575h-1.125l1.275-6.45h1.012l-.075.862a2.25 2.25 0 0 1 .75-.712c.263-.15.563-.263.9-.263.076 0 .15 0 .263.037.113.038.15.038.188.038l-.376 1.087h.001zm.337 2.175c.225-1.087.563-1.95 1.05-2.512.488-.563 1.087-.825 1.837-.825.338 0 .675.075.938.225.262.15.488.375.675.675l.262-.787h.976l-1.238 6.337c-.188.9-.525 1.575-1.05 2.025-.525.45-1.238.675-2.063.675-.306 0-.61-.051-.9-.15a2.378 2.378 0 0 1-.825-.338l.45-.9c.15.113.376.225.638.3.262.076.525.113.788.113.487 0 .862-.15 1.162-.45.328-.342.55-.772.637-1.237l.076-.45a2.201 2.201 0 0 1-1.613.637c-.675 0-1.2-.3-1.538-.938a3.296 3.296 0 0 1-.262-2.287v-.113zm1.125.113c-.15.675-.113 1.237.075 1.65.188.413.563.638 1.088.638.262 0 .524-.076.75-.225.224-.15.45-.375.637-.675l.6-3a1.616 1.616 0 0 0-.487-.638 1.305 1.305 0 0 0-.788-.225c-.488 0-.863.225-1.163.638-.3.45-.562 1.012-.674 1.724l-.038.113zm7.462 3.225c-.787 0-1.387-.3-1.8-.9-.412-.6-.524-1.387-.374-2.325l.037-.263c.15-.937.525-1.725 1.125-2.325.6-.6 1.238-.9 1.913-.9.787 0 1.35.263 1.687.788.337.525.45 1.237.3 2.1l-.113.75h-3.862c-.075.638-.038 1.163.188 1.575.225.375.562.563 1.05.563a2.816 2.816 0 0 0 1.762-.638l.337.75c-.224.225-.562.413-.9.563-.412.187-.862.262-1.35.262zm.713-5.737c-.338 0-.637.15-.938.487-.3.338-.525.75-.675 1.237v.038h2.625l.038-.15c.075-.487.037-.862-.15-1.162-.188-.3-.45-.45-.9-.45zm5.813-2.363l-.3 1.537h1.087l-.188.863h-1.087l-.788 3.9c-.075.3-.075.525.038.638.075.112.225.15.413.15.075 0 .187 0 .337-.038a.706.706 0 0 0 .3-.075v.787c-.113.075-.262.113-.488.188-.225.038-.412.075-.637.075-.413 0-.713-.15-.938-.45-.225-.3-.262-.75-.15-1.35l.788-3.9h-.938l.188-.862h.938l.3-1.538h1.125v.075z" fill="#6D6E71" fill-rule="nonzero"/><path d="M46.747 182.536c-.031-.158-.031-.284-.031-.441-.22.315-.504.567-.85.787-.347.22-.725.315-1.134.315-.662 0-1.166-.157-1.512-.535a1.921 1.921 0 0 1-.536-1.418c0-.63.252-1.102.756-1.449.504-.346 1.166-.535 2.016-.535h1.26v-.63c0-.378-.126-.693-.347-.914-.22-.22-.567-.346-.976-.346-.378 0-.693.094-.913.283-.221.19-.347.441-.347.693h-1.102v-.031c-.032-.473.189-.914.661-1.292.473-.378 1.071-.598 1.795-.598.725 0 1.323.189 1.764.567.441.378.662.913.662 1.606v3.119c0 .22 0 .44.031.661.032.22.063.441.126.63h-1.227v.063c-.032-.189-.063-.378-.095-.535h-.001zm-1.906-.378c.41 0 .819-.095 1.134-.315.346-.22.567-.473.661-.756v-1.04h-1.291c-.473 0-.85.126-1.134.347-.284.22-.41.535-.41.85 0 .284.095.504.252.693.19.126.441.22.788.22v.001zm-8.178-5.692h1.162v6.579h-1.162v-.976c-.37.477-.977 1.243-2.198 1.114-1.22-.13-1.976-1.087-1.981-2.142-.006-1.056.005-4.933 0-4.575h1.153v2.493c0 2.915.64 3.238 1.518 3.238.876 0 1.306-.74 1.508-.988-.01-1.385-.01-2.966 0-4.743zm-7.3 6.655h1.174v-8.875H29.08l-2.876 7.27-2.846-7.27H21.78v8.875h1.17l.055-6.9 2.753 6.9h.89l2.715-6.704v6.704zm10.318-9.493h1.2v9.486h-1.2v-9.486zm10.02 2.933h1.181v6.502h-1.18l-.001-6.502zm.016-2.953v1.172h1.203v-1.172h-1.203z" fill="#2A3052" fill-rule="nonzero"/><path d="M173.712 167.544h-2.492v-8.243h2.492v8.243zm0 4.337h-2.492v-2.213h2.492v2.213zm-29.118-10.475c2.887 0 4.452 1.76 4.848 4.396.396 2.636-1.028 6.36-4.644 6.36-3.617 0-4.787-2.75-4.787-5.597 0-2.846 1.697-5.159 4.583-5.159zm.026 1.847c-.858.081-2.378.682-2.29 3.528.09 2.846 1.334 3.514 2.29 3.514.957 0 2.57-.265 2.57-3.502 0-3.238-1.712-3.62-2.57-3.54zm-5.219-1.779c-.094.894-.198 1.63-.31 2.206-1.125-.073-2.293-.18-2.804 1.135l.014 7.071h-2.315v-10.33h2.06c.098.69.16 1.192.183 1.508.712-1.329 1.77-1.859 3.172-1.59zm-14.885 10.412h-2.357v-13.808h6.072c1.902 0 4.504 1.586 4.219 4.73-.19 2.097-1.596 3.368-4.22 3.815h-3.714v5.264-.001zm.011-7.095h3.116c.769 0 2.487-.534 2.487-2.512 0-1.979-1.702-2.433-2.487-2.406-.523.017-1.562.009-3.116-.027v4.945zm32.419-7.824c-.107.55-.164 1.098-.248 1.798-.358-.08-2.367-.588-2.415 1.59v1.201h1.912v1.667h-1.912l.048 8.663h-2.392v-8.663h-1.506v-1.667h1.596c-.165-2.127.265-3.524 1.29-4.19 1.537-1 3.052-.587 3.627-.4v.001zm1.734 4.613h2.314v10.252h-2.314V161.58zm.045-4.529v1.96h2.303v-1.96h-2.303zm8.601 2.03v2.55h1.784v1.69h-1.784v6.111c0 1.235 1.562.826 1.664.775l.274 1.632c-.153.102-3.876 1.426-4.272-2.407v-6.111h-1.536v-1.69h1.536v-2.55h2.334z" fill="#FFF" fill-rule="nonzero"/><path d="M24.32 22.027h-2.064V17.75h-4.192v4.277H16V11.735h2.064v4.425h4.192v-4.425h2.064v10.292zm3.909 0h-2.064v-7.649h2.064v7.649zm0-9.48h-2.064V11h2.064v1.548-.001zm1.393 5.72c0-1.207.261-2.18.784-2.92.523-.74 1.258-1.11 2.206-1.11.428 0 .805.097 1.13.29.326.193.604.469.835.827l.162-.976h1.774v7.613c0 .995-.325 1.764-.975 2.308-.65.545-1.557.817-2.721.817-.387 0-.797-.053-1.23-.16a5.712 5.712 0 0 1-1.202-.434l.346-1.541c.316.15.642.265.98.343.336.078.7.116 1.091.116.566 0 .982-.117 1.248-.353s.4-.603.4-1.103v-.692a2.309 2.309 0 0 1-.8.657c-.306.15-.657.226-1.053.226-.937 0-1.668-.344-2.19-1.032-.524-.688-.785-1.597-.785-2.728v-.149.001zm2.064.148c0 .669.112 1.195.335 1.58.224.384.59.576 1.1.576.315 0 .583-.058.802-.174.219-.115.394-.284.526-.505v-3.315a1.41 1.41 0 0 0-.526-.544 1.544 1.544 0 0 0-.788-.191c-.505 0-.872.223-1.103.671-.231.448-.346 1.032-.346 1.753v.149zm8.425-3.068c.24-.349.535-.621.884-.817a2.33 2.33 0 0 1 1.16-.293c.796 0 1.421.265 1.876.795.455.53.682 1.35.682 2.457v4.538h-2.064v-4.552c0-.594-.095-1.015-.286-1.262-.191-.248-.477-.371-.86-.371-.315 0-.59.05-.823.152-.224.094-.42.243-.569.434v5.599h-2.064V11h2.064v4.347zm9.472 6.828c-1.14 0-2.03-.35-2.672-1.05-.64-.7-.96-1.6-.96-2.703v-.283c0-1.145.31-2.083.932-2.813.622-.73 1.477-1.094 2.566-1.089 1.027 0 1.816.315 2.365.944.549.629.823 1.476.823 2.54v1.068h-4.56l-.02.043c.033.523.192.947.477 1.272.285.325.708.488 1.269.488.461 0 .854-.047 1.176-.142.349-.105.684-.25 1-.43l.56 1.272c-.307.25-.722.459-1.245.629-.553.174-1.13.26-1.71.254h-.001zm-.134-6.347c-.415 0-.734.142-.958.427-.224.285-.36.663-.406 1.135l.014.035h2.516v-.155c0-.448-.091-.8-.275-1.057-.184-.257-.48-.385-.89-.385h-.001zm8.412.325l-.757-.022c-.306 0-.558.064-.756.191-.2.13-.358.318-.452.538v5.167h-2.057v-7.649h1.915l.092 1.131c.18-.4.411-.712.696-.936.286-.224.614-.336.987-.336a1.5 1.5 0 0 1 .286.025c.087.016.175.036.265.06l-.22 1.83.001.001z" fill="#020202" fill-rule="nonzero"/><path d="M246.713 101.164a1.41 1.41 0 0 0-.457-1.07c-.305-.289-.843-.534-1.612-.736-.955-.236-1.7-.585-2.235-1.045-.535-.46-.803-1.038-.803-1.735 0-.735.288-1.347.864-1.837.577-.49 1.325-.736 2.245-.736.989 0 1.776.28 2.363.842.587.561.872 1.216.855 1.964l-.02.038h-1.212c0-.533-.186-.973-.558-1.322-.372-.348-.848-.522-1.428-.522-.594 0-1.048.144-1.364.432-.316.288-.474.662-.474 1.122 0 .409.173.75.519 1.022.346.273.908.513 1.686.72.946.244 1.666.606 2.16 1.083.495.477.742 1.066.742 1.767 0 .757-.297 1.365-.893 1.825-.595.46-1.372.69-2.331.69-.907 0-1.708-.254-2.402-.761-.695-.507-1.031-1.187-1.01-2.038l.013-.039h1.213c0 .59.223 1.044.67 1.364.447.32.953.48 1.516.48.602 0 1.078-.135 1.428-.405.35-.271.526-.639.526-1.103h-.001zm5.786 2.502c-1.002 0-1.784-.32-2.345-.961-.56-.64-.841-1.483-.841-2.528v-.284c0-1.001.289-1.83.867-2.486.578-.655 1.285-.983 2.119-.983.933 0 1.632.29 2.099.87.466.58.7 1.352.7 2.316v.67h-4.463l-.02.032c0 .701.155 1.27.465 1.706.31.437.782.655 1.419.655.43 0 .807-.061 1.131-.184.325-.123.603-.291.836-.506l.496.825c-.25.241-.578.444-.987.61-.408.165-.9.248-1.476.248zm-.2-6.243c-.443 0-.81.171-1.1.513-.29.342-.467.78-.532 1.312l.013.033h3.147v-.104c0-.507-.125-.926-.374-1.257-.25-.331-.634-.497-1.154-.497zm5.597 6.108h-1.27V93.47h1.27v10.061zm4.844.135c-1.002 0-1.783-.32-2.345-.961-.56-.64-.841-1.483-.841-2.528v-.284c0-1.001.289-1.83.867-2.486.579-.655 1.285-.983 2.119-.983.933 0 1.632.29 2.099.87.466.58.7 1.352.7 2.316v.67h-4.463l-.02.032c0 .701.155 1.27.465 1.706.31.437.782.655 1.419.655.43 0 .807-.061 1.131-.184.325-.123.603-.291.836-.506l.496.825c-.25.241-.578.444-.986.61-.409.165-.901.248-1.477.248zm-.2-6.243c-.443 0-.81.171-1.1.513-.29.342-.467.78-.532 1.312l.013.033h3.147v-.104c0-.507-.124-.926-.374-1.257-.25-.331-.634-.497-1.154-.497zm8.28 4.23a.847.847 0 0 0-.319-.683c-.213-.176-.616-.33-1.21-.464-.82-.176-1.451-.424-1.892-.742-.44-.318-.66-.743-.66-1.277 0-.567.24-1.053.725-1.457.483-.404 1.11-.606 1.88-.606.79 0 1.431.215 1.921.645.49.43.725.93.703 1.502l-.013.039h-1.212c0-.301-.132-.574-.397-.82-.264-.244-.598-.367-1.003-.367-.447 0-.78.101-1.002.303a.946.946 0 0 0-.332.723c0 .275.095.488.287.638.19.15.585.288 1.183.413.855.18 1.505.436 1.948.767.442.331.664.763.664 1.297 0 .619-.25 1.124-.752 1.515-.5.391-1.155.587-1.963.587-.89 0-1.591-.226-2.103-.677-.511-.452-.754-.978-.728-1.58l.013-.039h1.212c.021.452.19.782.503.99.314.209.681.313 1.103.313.451 0 .805-.096 1.06-.287.256-.192.384-.435.384-.732v-.001zm7.14 1.878a8.997 8.997 0 0 1-.1-.558 4.095 4.095 0 0 1-.043-.487c-.245.343-.56.63-.925.841-.38.226-.79.339-1.228.339-.727 0-1.28-.186-1.661-.558-.38-.372-.57-.884-.57-1.538 0-.666.269-1.188.809-1.564.54-.376 1.271-.564 2.195-.564h1.38v-.69c0-.409-.124-.732-.374-.97-.249-.24-.601-.359-1.057-.359-.413 0-.746.103-1 .31-.253.206-.38.453-.38.741l-1.206.013-.013-.038c-.03-.508.207-.972.712-1.393.506-.422 1.158-.632 1.958-.632.79 0 1.427.2 1.909.603.481.402.722.981.722 1.738v3.36c0 .249.013.49.039.722.025.232.073.46.142.684h-1.31.001zm-2.11-.93c.46 0 .875-.117 1.245-.354.37-.236.61-.507.722-.812V100.3h-1.425c-.511 0-.92.129-1.228.387-.308.257-.461.56-.461.909 0 .31.096.554.29.735.193.18.48.27.858.27h-.001zm6.456.93h-1.27v-6.978h1.27v6.978zm0-8.765h-1.27V93.47h1.27v1.296z" fill="#2A3052" fill-rule="nonzero"/></g></svg>