<svg width="299" height="197" xmlns="http://www.w3.org/2000/svg"><g fill="none" fill-rule="evenodd"><path fill="#F1F2F2" d="M.001 0H299v197H0z"/><path d="M1.987 1.98v193.04h295.026V1.98H1.987zM299 0v197H0V0h299z" fill="#C2C2C2" fill-rule="nonzero"/><path d="M2.94 54.948v-1.223h293.571v1.223H2.941zm0 40.897v-1.223h293.571v1.223H2.941zm0 40.894v-1.224h293.571v1.224H2.941zm0 40.857v-1.223h293.571v1.223H2.941zM37.786 33.908h1.223v161.093h-1.223V33.908zm37.161 0h1.224v161.093h-1.224V33.908zm37.123 0h1.223v161.093h-1.223V33.908zm37.16 0h1.223v161.093h-1.223V33.908zm37.122 0h1.224v161.093h-1.224V33.908zm37.123 0h1.223v161.093h-1.223V33.908zM2.94 116.273v-1.224h293.57v1.224H2.941z" fill="#DFDEDE" fill-rule="nonzero"/><path fill="#15212D" d="M2.94 161.64v-1.145h293.571v1.145z"/><path fill="#C2C2C2" d="M1 30v-2h296v2z"/><path d="M91.027 142.618c-.6.47-1.428.52-2.08.127l-50.5-30.485a1.835 1.835 0 1 1 1.897-3.142l49.416 29.83 45.476-35.633a1.835 1.835 0 0 1 2.442.16l47.906 48.854 59.589-84.985a1.835 1.835 0 1 1 3.004 2.107l-60.855 86.792a1.835 1.835 0 0 1-2.813.232l-48.301-49.258-45.181 35.401z" fill="#2A3052"/><ellipse fill="#FFF" opacity=".6" cx="186.256" cy="155.514" rx="8.219" ry="8.518"/><path d="M186.256 165.256c-5.225 0-9.443-4.371-9.443-9.742 0-5.37 4.218-9.741 9.443-9.741s9.443 4.37 9.443 9.741c0 5.371-4.218 9.742-9.443 9.742zm0-2.447c3.854 0 6.996-3.256 6.996-7.295 0-4.038-3.142-7.294-6.996-7.294-3.854 0-6.996 3.256-6.996 7.294 0 4.039 3.142 7.295 6.996 7.295z" fill="#E88024" fill-rule="nonzero"/><path d="M18.15 18.235h4.665V20h-6.863V9.336h2.197v8.899zm5.456-2.27c0-.787.151-1.487.454-2.103a3.324 3.324 0 0 1 1.307-1.428c.57-.337 1.23-.505 1.982-.505 1.069 0 1.942.327 2.618.981.676.654 1.054 1.543 1.132 2.666l.014.542c0 1.216-.34 2.191-1.018 2.926-.678.735-1.59 1.102-2.732 1.102-1.142 0-2.054-.366-2.735-1.098-.681-.733-1.022-1.729-1.022-2.988v-.096zm2.117.153c0 .752.141 1.327.424 1.725.284.398.689.597 1.216.597.513 0 .913-.197 1.201-.59.289-.393.433-1.021.433-1.886 0-.737-.144-1.308-.433-1.714-.288-.405-.693-.607-1.215-.607-.518 0-.918.201-1.202.604-.283.403-.424 1.026-.424 1.871zm13.586 1.004l1.04-5.047h2.044L40.37 20H38.6l-1.502-4.988L35.596 20H33.83l-2.022-7.925h2.044l1.032 5.04 1.45-5.04h1.531l1.443 5.047zm16.033-6.006h-3.267V20h-2.197v-8.884h-3.223v-1.78h8.687v1.78zM58.689 20h-2.124v-7.925h2.124V20zm-2.249-9.976c0-.317.107-.578.319-.783.212-.205.502-.308.868-.308.361 0 .65.103.864.308.215.205.322.466.322.783 0 .323-.108.586-.325.791-.218.206-.505.308-.861.308s-.643-.102-.86-.308a1.04 1.04 0 0 1-.327-.79zm7.288 8.416c.39 0 .708-.107.952-.322.244-.215.371-.5.381-.857h1.985a2.715 2.715 0 0 1-.44 1.476 2.9 2.9 0 0 1-1.182 1.04c-.5.246-1.054.37-1.66.37-1.132 0-2.026-.36-2.68-1.08-.654-.721-.981-1.716-.981-2.985v-.14c0-1.22.324-2.194.974-2.922.65-.728 1.54-1.091 2.673-1.091.991 0 1.786.282 2.384.846.598.564.902 1.314.912 2.252H65.06c-.01-.41-.137-.744-.38-1-.245-.256-.567-.384-.968-.384-.493 0-.865.179-1.117.538-.251.359-.377.941-.377 1.747v.22c0 .815.125 1.4.374 1.757s.627.535 1.135.535zm7.405-1.619l-.762.762V20h-2.117V8.75h2.117v6.233l.41-.527 2.03-2.38h2.54l-2.863 3.302L75.6 20h-2.432l-2.036-3.179z" fill="#000"/><path d="M24.054 88.336l3.487 8.701 3.486-8.701h1.824V99h-1.407v-4.153l.132-4.482-3.5 8.635h-1.077l-3.494-8.613.139 4.46V99h-1.406V88.336h1.816zm15.96 9.88c-.528.62-1.302.93-2.322.93-.845 0-1.488-.245-1.93-.736-.442-.49-.665-1.217-.67-2.179v-5.156h1.355v5.12c0 1.201.488 1.802 1.465 1.802 1.035 0 1.723-.386 2.065-1.158v-5.764h1.355V99h-1.289l-.03-.784zm4.848.784h-1.355V87.75h1.355V99zm7.06 0c-.077-.156-.14-.435-.19-.835-.63.654-1.381.981-2.255.981-.782 0-1.423-.22-1.923-.662-.5-.442-.75-1.003-.75-1.681 0-.825.313-1.466.94-1.923.628-.456 1.51-.685 2.648-.685h1.318v-.622c0-.474-.141-.851-.424-1.132-.284-.28-.701-.421-1.253-.421-.483 0-.888.122-1.216.366-.327.244-.49.54-.49.886h-1.363c0-.395.14-.777.421-1.146.281-.368.662-.66 1.143-.875a3.844 3.844 0 0 1 1.586-.322c.913 0 1.628.228 2.146.685.517.456.786 1.085.805 1.886v3.647c0 .728.093 1.306.279 1.736V99h-1.421zm-2.248-1.033c.425 0 .828-.11 1.209-.33.38-.219.657-.505.827-.856v-1.626h-1.062c-1.66 0-2.49.486-2.49 1.457 0 .425.142.757.425.996.283.24.647.36 1.091.36zM56.662 99h-1.355v-7.925h1.355V99zm-1.465-10.027c0-.22.067-.405.201-.556.134-.152.333-.228.597-.228.264 0 .464.076.6.228a.8.8 0 0 1 .206.556.78.78 0 0 1-.205.55c-.137.146-.337.22-.6.22-.265 0-.464-.074-.598-.22a.782.782 0 0 1-.201-.55zm170.409-38.48h-3.428V60h-1.399v-9.507h-3.42v-1.157h8.247v1.157zM228.448 60h-1.355v-7.925h1.355V60zm-1.465-10.027c0-.22.067-.405.201-.556.135-.152.334-.228.597-.228.264 0 .464.076.6.228a.8.8 0 0 1 .206.556c0 .22-.068.403-.205.55-.137.146-.337.22-.6.22-.264 0-.463-.074-.598-.22a.782.782 0 0 1-.201-.55zm5.845 6.358l-.85.886V60h-1.355V48.75h1.355v6.804l.725-.871 2.468-2.608h1.648l-3.083 3.31L237.178 60h-1.59l-2.76-3.67zm12.026-1.29l-1.304 1.355V60h-1.406V49.336h1.406v5.273l4.74-5.273h1.698l-4.196 4.71L250.318 60h-1.685l-3.779-4.958zm9.77 5.105c-1.074 0-1.948-.352-2.622-1.058-.673-.705-1.01-1.649-1.01-2.83v-.25c0-.786.15-1.488.45-2.105.3-.618.72-1.101 1.26-1.45a3.167 3.167 0 0 1 1.754-.524c1.03 0 1.831.34 2.402 1.018.572.678.857 1.65.857 2.915v.564h-5.368c.02.781.247 1.412.684 1.893.438.481.993.722 1.667.722.478 0 .884-.098 1.216-.293a3.07 3.07 0 0 0 .871-.777l.828.645c-.664 1.02-1.66 1.53-2.988 1.53zm-.168-7.104c-.547 0-1.006.199-1.377.597-.371.398-.6.956-.688 1.673h3.97v-.102c-.04-.689-.225-1.222-.557-1.6-.332-.379-.782-.568-1.348-.568zM260.755 60H259.4V48.75h1.355V60zm7.06-.784c-.527.62-1.3.93-2.321.93-.845 0-1.488-.245-1.93-.736-.442-.49-.666-1.217-.67-2.179v-5.156h1.355v5.12c0 1.201.488 1.802 1.464 1.802 1.036 0 1.724-.386 2.066-1.158v-5.764h1.355V60h-1.29l-.029-.784zm8.27.784c-.079-.156-.142-.435-.191-.835-.63.654-1.382.981-2.256.981-.781 0-1.422-.22-1.922-.662a2.148 2.148 0 0 1-.751-1.681c0-.825.314-1.466.941-1.923.627-.456 1.51-.685 2.648-.685h1.318v-.622c0-.474-.142-.851-.425-1.132-.283-.28-.7-.421-1.252-.421-.484 0-.889.122-1.216.366-.327.244-.49.54-.49.886h-1.363c0-.395.14-.777.421-1.146.28-.368.662-.66 1.143-.875a3.844 3.844 0 0 1 1.585-.322c.913 0 1.629.228 2.146.685.518.456.787 1.085.806 1.886v3.647c0 .728.093 1.306.278 1.736V60h-1.42zm-2.25-1.033c.426 0 .829-.11 1.21-.33.38-.219.656-.505.827-.856v-1.626h-1.062c-1.66 0-2.49.486-2.49 1.457 0 .425.141.757.425.996.283.24.647.36 1.09.36zm9.347-5.676a4.06 4.06 0 0 0-.667-.051c-.889 0-1.492.378-1.809 1.135V60h-1.355v-7.925h1.318l.022.916c.445-.708 1.075-1.062 1.89-1.062.264 0 .464.034.6.102v1.26zM140.885 176.395h-2.742V184h-1.12v-7.605h-2.736v-.926h6.598v.926zm2.273 7.605h-1.084v-6.34h1.084V184zm-1.172-8.021a.65.65 0 0 1 .161-.446c.108-.12.267-.181.478-.181.21 0 .371.06.48.181a.64.64 0 0 1 .165.446.62.62 0 0 1-.165.439c-.109.117-.27.176-.48.176-.21 0-.37-.059-.478-.176a.626.626 0 0 1-.16-.44zm4.676 5.085l-.68.71V184h-1.084v-9h1.084v5.443l.58-.697 1.975-2.086h1.318l-2.466 2.649 2.754 3.691h-1.272l-2.209-2.936zm11.748.07h1.184v.886h-1.184V184h-1.09v-1.98h-3.884v-.64l3.82-5.911h1.154v5.666zm-3.744 0h2.654v-4.183l-.129.235-2.525 3.949zm5.982 2.298c0-.188.056-.344.167-.47.112-.124.279-.187.501-.187.223 0 .392.063.507.188a.665.665 0 0 1 .173.469.63.63 0 0 1-.173.45c-.115.122-.284.182-.507.182-.222 0-.39-.06-.5-.181a.641.641 0 0 1-.168-.451zm.006-5.174a.68.68 0 0 1 .167-.469c.112-.125.279-.187.501-.187.223 0 .392.062.507.187a.665.665 0 0 1 .173.469.63.63 0 0 1-.173.451c-.115.121-.284.182-.507.182-.222 0-.39-.06-.5-.182a.641.641 0 0 1-.168-.451zm11.971-1.863h-2.742V184h-1.12v-7.605h-2.736v-.926h6.598v.926zm2.273 7.605h-1.084v-6.34h1.084V184zm-1.171-8.021a.65.65 0 0 1 .16-.446c.108-.12.267-.181.478-.181.211 0 .371.06.48.181a.64.64 0 0 1 .165.446.62.62 0 0 1-.164.439c-.11.117-.27.176-.48.176-.212 0-.37-.059-.478-.176a.626.626 0 0 1-.161-.44zm4.675 5.085l-.68.71V184h-1.083v-9h1.084v5.443l.58-.697 1.974-2.086h1.319l-2.467 2.649 2.754 3.691h-1.272l-2.209-2.936zm13.348-4.67h-2.742V184h-1.12v-7.605h-2.736v-.926h6.598v.926zm3.727 7.723c-.86 0-1.559-.282-2.098-.846-.54-.565-.809-1.32-.809-2.265v-.2c0-.628.12-1.19.36-1.684s.577-.88 1.008-1.16c.432-.28.9-.419 1.404-.419.824 0 1.465.271 1.922.814.457.543.685 1.32.685 2.332v.452h-4.295c.016.625.199 1.13.548 1.514.35.385.794.577 1.333.577.383 0 .707-.078.973-.234.265-.156.498-.363.697-.621l.662.516c-.531.816-1.328 1.224-2.39 1.224zm-.135-5.683c-.438 0-.805.159-1.102.477-.297.318-.48.765-.55 1.339h3.175v-.082c-.031-.55-.18-.978-.445-1.28-.266-.303-.625-.454-1.078-.454zm6.926.199a3.248 3.248 0 0 0-.534-.041c-.71 0-1.193.303-1.447.908v4.5h-1.084v-6.34h1.055l.017.733c.356-.567.86-.85 1.512-.85.211 0 .371.027.48.082v1.008zm3.627 5.484c-.86 0-1.56-.282-2.098-.846-.54-.565-.809-1.32-.809-2.265v-.2c0-.628.12-1.19.36-1.684s.577-.88 1.008-1.16c.432-.28.9-.419 1.404-.419.824 0 1.465.271 1.922.814.457.543.685 1.32.685 2.332v.452h-4.295c.016.625.199 1.13.548 1.514.35.385.794.577 1.333.577.383 0 .707-.078.973-.234.265-.156.498-.363.697-.621l.662.516c-.531.816-1.328 1.224-2.39 1.224zm-.135-5.683c-.438 0-.805.159-1.102.477-.297.318-.48.765-.55 1.339h3.175v-.082c-.031-.55-.18-.978-.445-1.28-.266-.303-.625-.454-1.078-.454zm4.886-.774l.036.797c.484-.61 1.117-.914 1.898-.914 1.34 0 2.016.756 2.027 2.268V184h-1.084v-4.195c-.003-.457-.108-.795-.313-1.014-.205-.219-.524-.328-.958-.328-.352 0-.66.094-.926.281a1.91 1.91 0 0 0-.62.738V184h-1.085v-6.34h1.025zm5.333 3.117c0-.972.23-1.755.69-2.346.462-.592 1.065-.888 1.811-.888.743 0 1.33.254 1.764.762V175h1.084v9h-.996l-.053-.68c-.433.532-1.037.797-1.81.797-.735 0-1.333-.3-1.796-.902-.463-.602-.694-1.387-.694-2.356v-.082zm1.083.123c0 .72.149 1.282.446 1.688.297.406.707.61 1.23.61.688 0 1.19-.31 1.506-.927v-2.912c-.324-.597-.822-.896-1.494-.896-.531 0-.945.205-1.242.615-.297.41-.446 1.018-.446 1.822zm9.862 3.1c-.063-.125-.113-.348-.153-.668-.503.523-1.105.785-1.804.785-.625 0-1.138-.177-1.538-.53-.4-.354-.6-.802-.6-1.345 0-.66.25-1.173.752-1.538s1.208-.548 2.118-.548h1.055v-.498c0-.379-.113-.68-.34-.905-.227-.225-.56-.337-1.002-.337-.387 0-.71.098-.973.293-.261.195-.392.432-.392.709h-1.09c0-.316.112-.622.337-.917a2.3 2.3 0 0 1 .914-.7 3.075 3.075 0 0 1 1.269-.258c.73 0 1.302.183 1.716.548.414.365.63.868.645 1.509v2.918c0 .582.074 1.044.223 1.388V184h-1.137zm-1.799-.826c.34 0 .662-.088.967-.264.304-.176.525-.404.662-.685v-1.301h-.85c-1.328 0-1.992.388-1.992 1.166 0 .34.113.605.34.797.227.191.518.287.873.287zm5.496-4.746c.48-.59 1.106-.885 1.875-.885 1.34 0 2.016.756 2.027 2.268V184h-1.084v-4.195c-.003-.457-.108-.795-.313-1.014-.205-.219-.524-.328-.958-.328-.352 0-.66.094-.926.281a1.91 1.91 0 0 0-.62.738V184h-1.085v-9h1.084v3.428z" fill="#2A3052"/></g></svg>