<svg width="299" height="197" xmlns="http://www.w3.org/2000/svg"><g fill="none" fill-rule="evenodd"><path fill="#F1F1F2" d="M0 0h299v197H0z"/><path d="M1.987 1.98v193.04h295.026V1.98H1.987zM299 0v197H0V0h299z" fill="#C2C2C2" fill-rule="nonzero"/><path d="M3.607 54.997v-1.22h292.358v1.22H3.607zm0 20.08v-1.22h292.358v1.22H3.607zm0 60.273v-1.22h292.358v1.22H3.607z" fill="#DEDEDD" fill-rule="nonzero"/><path d="M3.607 155.43v-1.22h3.62v1.22h-3.62zm7.24 0v-1.22h3.62v1.22h-3.62zm7.24 0v-1.22h3.621v1.22h-3.62zm7.241 0v-1.22h3.62v1.22h-3.62zm7.24 0v-1.22h3.62v1.22h-3.62zm7.241 0v-1.22h3.62v1.22h-3.62zm7.24 0v-1.22h3.62v1.22h-3.62zm7.24 0v-1.22h3.62v1.22h-3.62zm7.241 0v-1.22h3.62v1.22h-3.62zm7.24 0v-1.22h3.62v1.22h-3.62zm7.24 0v-1.22h3.621v1.22h-3.62zm7.241 0v-1.22h3.62v1.22h-3.62zm7.24 0v-1.22h3.62v1.22h-3.62zm7.241 0v-1.22h3.62v1.22h-3.62zm7.24 0v-1.22h3.62v1.22h-3.62zm7.24 0v-1.22h3.62v1.22h-3.62zm7.241 0v-1.22h3.62v1.22h-3.62zm7.24 0v-1.22h3.62v1.22h-3.62zm7.24 0v-1.22h3.621v1.22h-3.62zm7.241 0v-1.22h3.62v1.22h-3.62zm7.24 0v-1.22h3.62v1.22h-3.62zm7.241 0v-1.22h3.62v1.22h-3.62zm7.24 0v-1.22h3.62v1.22h-3.62zm7.24 0v-1.22h3.62v1.22h-3.62zm7.241 0v-1.22h3.62v1.22h-3.62zm7.24 0v-1.22h3.62v1.22h-3.62zm7.24 0v-1.22h3.621v1.22h-3.62zm7.241 0v-1.22h3.62v1.22h-3.62zm7.24 0v-1.22h3.62v1.22h-3.62zm7.241 0v-1.22h3.62v1.22h-3.62zm7.24 0v-1.22h3.62v1.22h-3.62zm7.24 0v-1.22h3.621v1.22h-3.62zm7.241 0v-1.22h3.62v1.22h-3.62zm7.24 0v-1.22h3.62v1.22h-3.62zm7.24 0v-1.22h3.621v1.22h-3.62zm7.241 0v-1.22h3.62v1.22h-3.62zm7.24 0v-1.22h3.62v1.22h-3.62zm7.241 0v-1.22h3.62v1.22h-3.62zm7.24 0v-1.22h3.62v1.22h-3.62zm7.24 0v-1.22h3.621v1.22h-3.62zm7.241 0v-1.22h2.743v1.22h-2.743z" fill="#293052" fill-rule="nonzero"/><path d="M3.607 175.508v-1.22h292.358v1.22H3.607zm34.71-141.2h1.22V192.59h-1.22V34.308zm36.998 0h1.22V192.59h-1.22V34.308zm36.997 0h1.22V192.59h-1.22V34.308zm36.96 0h1.219V192.59h-1.22V34.308zm36.996 0h1.22V192.59h-1.22V34.308zm36.998 0h1.22V192.59h-1.22V34.308zm36.997 0h1.219V192.59h-1.22V34.308zM3.607 115.272v-1.22h292.358v1.22H3.607zm0-20.08v-1.22h292.358v1.22H3.607z" fill="#DEDEDD" fill-rule="nonzero"/><path fill="#C2C2C2" d="M1 30v-2h297v2z"/><path d="M190.836 84.751a1.81 1.81 0 0 1 2.71.689l32.272 68.61a1.81 1.81 0 1 1-3.276 1.54l-31.336-66.619-40.94 30.067a1.81 1.81 0 0 1-2.098.031L105.985 89.99l-28.848 26.016a1.81 1.81 0 0 1-2.368.05L37.772 85.367a1.81 1.81 0 1 1 2.31-2.786l35.793 29.687 28.748-25.925a1.81 1.81 0 0 1 2.24-.146l42.299 29.16 41.674-30.607z" fill="#293052"/><path d="M188.44 145.159h-35.282l-5.563-8.07-5.334 8.07h-35.283a4.765 4.765 0 0 0-3.366 1.384 4.733 4.733 0 0 0-1.397 3.351v24.512a4.733 4.733 0 0 0 1.397 3.35 4.765 4.765 0 0 0 3.366 1.385h81.462a4.778 4.778 0 0 0 3.442-1.346 4.722 4.722 0 0 0 1.435-3.39v-24.473a4.722 4.722 0 0 0-1.421-3.414 4.778 4.778 0 0 0-3.456-1.36v.001z" fill="#E88024"/><path d="M174.35 164.792h-2.523v-8.348h2.523v8.348zm0 4.392h-2.523v-2.243h2.523v2.243zm-29.486-10.608c2.923 0 4.508 1.782 4.909 4.451.4 2.67-1.04 6.44-4.704 6.44-3.662 0-4.847-2.785-4.847-5.667 0-2.882 1.719-5.224 4.642-5.224zm.026 1.87c-.869.082-2.408.69-2.318 3.572.09 2.882 1.35 3.56 2.318 3.56.969 0 2.602-.269 2.602-3.547 0-3.279-1.733-3.667-2.602-3.585zm-5.285-1.802c-.096.906-.2 1.65-.315 2.234-1.139-.073-2.322-.181-2.839 1.15l.014 7.16h-2.344v-10.46h2.085c.1.698.163 1.207.187 1.527.72-1.346 1.791-1.883 3.212-1.61v-.001zm-15.074 10.545h-2.386v-13.984h6.148c1.926 0 4.561 1.606 4.273 4.79-.193 2.123-1.617 3.41-4.273 3.863h-3.762v5.331zm.012-7.186h3.155c.778 0 2.518-.54 2.518-2.543 0-2.004-1.723-2.464-2.518-2.437-.53.018-1.582.009-3.155-.027v5.007zm32.829-7.923c-.109.558-.166 1.112-.252 1.82-.362-.08-2.396-.594-2.445 1.611v1.217h1.936v1.687h-1.936l.049 8.774h-2.422v-8.774h-1.526v-1.687h1.617c-.167-2.154.268-3.569 1.306-4.244 1.557-1.012 3.09-.594 3.673-.404zm1.755 4.672h2.344v10.382h-2.344v-10.382zm.046-4.587v1.986h2.332v-1.986h-2.332zm8.71 2.056v2.582h1.807v1.712h-1.807v6.189c0 1.25 1.582.836 1.686.784l.277 1.653c-.155.103-3.925 1.444-4.326-2.437v-6.19h-1.555v-1.71h1.555v-2.583h2.363z" fill="#FFF" fill-rule="nonzero"/><ellipse fill="#FFF" opacity=".6" cx="223.875" cy="154.82" rx="8.192" ry="8.373"/><path d="M223.876 164.411c-5.204 0-9.412-4.3-9.412-9.592 0-5.292 4.208-9.592 9.412-9.592 5.204 0 9.411 4.3 9.411 9.592 0 5.292-4.207 9.592-9.411 9.592zm0-2.438c3.845 0 6.973-3.197 6.973-7.154s-3.128-7.154-6.973-7.154c-3.845 0-6.974 3.197-6.974 7.154s3.129 7.154 6.974 7.154z" fill="#E88024" fill-rule="nonzero"/><path fill="#E88024" d="M246.927 145.424h28.767v18.79h-28.766z"/><path fill="#E88024" d="M250.433 154.82l-3.354 3.333-5.22-3.334 5.22-3.333z"/><path d="M258.32 153.683h1.372c.464.033.923-.132 1.257-.455.295-.348.445-.795.42-1.25a1.624 1.624 0 0 0-.42-1.174 1.608 1.608 0 0 0-1.22-.266 1.682 1.682 0 0 0-1.143.38c-.301.253-.469.63-.457 1.022h-2.363a2.721 2.721 0 0 1 1.068-2.31 4.322 4.322 0 0 1 2.82-.91 4.667 4.667 0 0 1 2.971.871 3.06 3.06 0 0 1 1.105 2.539 2.528 2.528 0 0 1-.496 1.477 3.35 3.35 0 0 1-1.371 1.099 3.05 3.05 0 0 1 1.525 1.098 2.87 2.87 0 0 1 .533 1.705 3.1 3.1 0 0 1-1.22 2.576 4.859 4.859 0 0 1-3.086.947 4.744 4.744 0 0 1-2.895-.87 2.796 2.796 0 0 1-1.144-2.501h2.515c-.01.432.17.848.496 1.136.346.304.794.467 1.257.455.488.032.967-.132 1.334-.455a1.66 1.66 0 0 0 .494-1.25 1.812 1.812 0 0 0-.456-1.402 1.989 1.989 0 0 0-1.41-.454h-1.486v-2.008z" fill="#FFF"/><path d="M17.68 10.547l2.556 7.219 2.543-7.22h2.694V20.5h-2.058v-2.72l.205-4.697-2.686 7.417h-1.409l-2.68-7.41.206 4.69v2.72H15v-9.953h2.68zM31.42 20.5a2.194 2.194 0 0 1-.198-.663c-.479.533-1.1.8-1.867.8-.724 0-1.325-.21-1.8-.63a2.023 2.023 0 0 1-.715-1.585c0-.784.29-1.386.871-1.805.581-.42 1.421-.631 2.52-.636h.909v-.423c0-.342-.088-.616-.264-.82-.175-.206-.452-.308-.83-.308-.333 0-.594.08-.783.239-.189.16-.284.378-.284.656h-1.975c0-.428.132-.825.396-1.19.265-.364.638-.65 1.121-.857a4.086 4.086 0 0 1 1.627-.311c.912 0 1.635.229 2.17.687.536.458.804 1.102.804 1.931v3.206c.005.702.103 1.233.294 1.593v.116H31.42zm-1.634-1.374c.292 0 .56-.065.807-.195a1.28 1.28 0 0 0 .547-.523v-1.271h-.74c-.989 0-1.515.342-1.579 1.025l-.007.116a.79.79 0 0 0 .26.609c.173.16.41.239.711.239zm7.219-7.84v1.818h1.265v1.449h-1.265v3.691c0 .274.052.47.157.588.105.119.305.178.602.178.218 0 .412-.016.58-.048v1.497a4.067 4.067 0 0 1-1.196.178c-1.385 0-2.091-.7-2.119-2.099v-3.985h-1.08v-1.45h1.08v-1.818h1.976zm5.441 7.758c.365 0 .661-.1.889-.3.228-.201.346-.468.355-.8h1.853c-.005.5-.141.96-.41 1.377-.27.417-.637.74-1.104.97-.467.23-.983.346-1.549.346-1.057 0-1.89-.336-2.501-1.009-.611-.672-.916-1.6-.916-2.785v-.13c0-1.14.303-2.049.909-2.728.606-.679 1.437-1.018 2.495-1.018.925 0 1.667.263 2.225.79.558.526.842 1.226.851 2.101H43.69c-.009-.382-.127-.693-.355-.933-.228-.239-.529-.359-.902-.359-.46 0-.808.168-1.043.503-.235.335-.352.878-.352 1.63v.205c0 .761.116 1.308.349 1.64.232.334.585.5 1.06.5zM48.6 13.91c.524-.629 1.182-.943 1.975-.943 1.604 0 2.418.932 2.44 2.796V20.5H51.04v-4.683c0-.423-.091-.737-.273-.94-.183-.202-.486-.304-.91-.304-.578 0-.998.224-1.257.67V20.5h-1.976V10H48.6v3.91zm9.31 6.727c-1.084 0-1.967-.333-2.649-.998-.681-.666-1.022-1.552-1.022-2.66v-.19c0-.744.144-1.408.43-1.994a3.16 3.16 0 0 1 1.221-1.353c.527-.317 1.127-.475 1.801-.475 1.012 0 1.809.319 2.39.957.58.638.871 1.542.871 2.714v.806h-4.71c.064.483.257.87.578 1.162.321.292.728.438 1.22.438.761 0 1.356-.276 1.784-.827l.97 1.087a2.948 2.948 0 0 1-1.202.98 3.947 3.947 0 0 1-1.682.353zm-.225-6.07c-.392 0-.71.132-.954.396s-.4.642-.468 1.135h2.748v-.158c-.01-.437-.128-.775-.356-1.015-.228-.239-.551-.359-.97-.359zm8.394 3.89c0-.242-.12-.433-.359-.572-.239-.139-.623-.263-1.152-.372-1.759-.37-2.638-1.117-2.638-2.242 0-.657.272-1.205.817-1.645.544-.44 1.256-.66 2.136-.66.939 0 1.69.222 2.252.664.563.442.845 1.016.845 1.723h-1.976a.956.956 0 0 0-.274-.701c-.182-.185-.467-.277-.854-.277-.333 0-.59.075-.772.226a.712.712 0 0 0-.274.574c0 .219.104.395.311.53.207.134.557.25 1.05.348a8.57 8.57 0 0 1 1.244.332c1.043.383 1.565 1.046 1.565 1.989 0 .675-.29 1.22-.868 1.637-.579.417-1.326.626-2.242.626-.62 0-1.17-.11-1.651-.332a2.766 2.766 0 0 1-1.132-.909c-.273-.385-.41-.8-.41-1.248h1.873c.019.351.148.62.39.807.242.187.565.28.97.28.379 0 .665-.071.859-.215a.67.67 0 0 0 .29-.564z" fill="#000" fill-rule="nonzero"/><g fill="#2A3052"><path d="M146.46 16.902h-4.17l-.936 2.598H140l3.8-9.953h1.15l3.807 9.953h-1.347l-.95-2.598zm-3.773-1.08h3.383l-1.695-4.655-1.688 4.655zm8.408-3.718l.04.93c.566-.712 1.304-1.067 2.216-1.067 1.563 0 2.351.882 2.365 2.645V19.5h-1.265v-4.895c-.004-.533-.126-.927-.366-1.182-.239-.255-.611-.383-1.117-.383-.41 0-.77.11-1.08.328a2.23 2.23 0 0 0-.725.861V19.5h-1.265v-7.396h1.197zm11.094 7.396c-.072-.146-.132-.406-.177-.78-.588.611-1.29.917-2.106.917-.729 0-1.327-.206-1.794-.619a2.002 2.002 0 0 1-.7-1.569c0-.77.292-1.368.878-1.794.585-.426 1.409-.64 2.47-.64h1.231v-.58c0-.442-.132-.795-.396-1.057-.265-.262-.654-.393-1.17-.393-.45 0-.829.114-1.134.342-.305.228-.458.504-.458.827h-1.271c0-.369.13-.725.393-1.07a2.683 2.683 0 0 1 1.066-.816c.449-.2.942-.301 1.48-.301.852 0 1.52.213 2.003.639.483.426.734 1.013.752 1.76v3.405c0 .679.086 1.219.26 1.62v.109h-1.327zm-2.098-.964c.396 0 .772-.102 1.128-.307a1.86 1.86 0 0 0 .772-.8V15.91H161c-1.55 0-2.324.454-2.324 1.36 0 .397.132.707.396.93.265.223.604.335 1.019.335zm6.521.964h-1.264V9h1.264v10.5zm3.398 0h-1.265v-7.396h1.265V19.5zm-1.367-9.358c0-.205.062-.379.188-.52.125-.141.31-.212.557-.212.246 0 .433.07.56.212a.747.747 0 0 1 .192.52.722.722 0 0 1-.192.512c-.127.137-.314.205-.56.205-.246 0-.432-.068-.557-.205a.73.73 0 0 1-.188-.512zm7.697 7.396c0-.342-.129-.607-.386-.796-.258-.19-.707-.352-1.347-.49-.64-.136-1.149-.3-1.524-.491-.376-.192-.654-.42-.834-.684a1.635 1.635 0 0 1-.27-.943c0-.606.256-1.119.769-1.538.512-.42 1.167-.63 1.965-.63.838 0 1.519.217 2.04.65.522.433.783.987.783 1.661h-1.271c0-.346-.147-.645-.441-.895-.294-.25-.664-.376-1.111-.376-.46 0-.82.1-1.08.3a.948.948 0 0 0-.39.787c0 .305.12.535.362.69.242.155.678.303 1.31.445.63.14 1.142.31 1.534.505.392.196.683.432.872.708.189.276.283.612.283 1.008 0 .661-.264 1.19-.792 1.59-.53.398-1.215.598-2.058.598-.593 0-1.117-.105-1.572-.315a2.557 2.557 0 0 1-1.07-.878 2.117 2.117 0 0 1-.386-1.22h1.264c.023.423.193.76.51 1.008.316.248.734.372 1.254.372.478 0 .862-.096 1.152-.29.29-.194.434-.452.434-.776zm7.478 1.962c-.073-.146-.132-.406-.177-.78-.588.611-1.29.917-2.106.917-.729 0-1.327-.206-1.794-.619a2.002 2.002 0 0 1-.701-1.569c0-.77.293-1.368.878-1.794.586-.426 1.41-.64 2.472-.64h1.23v-.58c0-.442-.132-.795-.396-1.057-.265-.262-.654-.393-1.17-.393-.45 0-.829.114-1.134.342-.305.228-.458.504-.458.827h-1.272c0-.369.131-.725.393-1.07a2.683 2.683 0 0 1 1.067-.816c.449-.2.942-.301 1.48-.301.852 0 1.52.213 2.003.639.483.426.734 1.013.752 1.76v3.405c0 .679.086 1.219.26 1.62v.109h-1.327zm-2.098-.964c.396 0 .772-.102 1.128-.307a1.86 1.86 0 0 0 .772-.8V15.91h-.991c-1.55 0-2.324.454-2.324 1.36 0 .397.132.707.396.93.264.223.604.335 1.019.335zm8.811.964V9.547h2.81c.866 0 1.631.191 2.297.574a3.88 3.88 0 0 1 1.541 1.634c.363.706.546 1.517.55 2.433v.636c0 .939-.18 1.762-.543 2.468a3.823 3.823 0 0 1-1.552 1.627c-.672.378-1.455.572-2.348.581h-2.755zm1.313-8.873v7.8h1.38c1.012 0 1.8-.315 2.362-.944.563-.629.845-1.524.845-2.686v-.581c0-1.13-.266-2.009-.797-2.635-.53-.627-1.284-.945-2.259-.954h-1.531zm9.044 8.873h-1.265v-7.396h1.265V19.5zm-1.367-9.358c0-.205.062-.379.187-.52.126-.141.312-.212.558-.212.246 0 .433.07.56.212a.747.747 0 0 1 .192.52.722.722 0 0 1-.192.512c-.127.137-.314.205-.56.205-.246 0-.432-.068-.558-.205a.73.73 0 0 1-.187-.512zm3.09 5.598c0-1.153.266-2.07.8-2.751.532-.682 1.239-1.022 2.118-1.022.903 0 1.607.319 2.113.957l.061-.82h1.155v7.218c0 .957-.283 1.712-.85 2.263-.568.551-1.33.827-2.287.827a3.804 3.804 0 0 1-1.566-.342c-.51-.228-.9-.54-1.169-.936l.657-.759c.542.67 1.205 1.005 1.989 1.005.615 0 1.095-.173 1.439-.52.344-.346.516-.834.516-1.463v-.635c-.506.583-1.196.875-2.071.875-.866 0-1.567-.349-2.102-1.046-.536-.697-.804-1.648-.804-2.85zm1.27.144c0 .834.172 1.489.514 1.965.341.476.82.714 1.435.714.798 0 1.383-.362 1.757-1.086V14.1c-.387-.707-.969-1.06-1.743-1.06-.615 0-1.096.24-1.443.718-.346.478-.52 1.187-.52 2.126zm8.259 3.616h-1.265v-7.396h1.265V19.5zm-1.368-9.358c0-.205.063-.379.188-.52.126-.141.311-.212.558-.212.246 0 .433.07.56.212a.747.747 0 0 1 .192.52.722.722 0 0 1-.192.512c-.127.137-.314.205-.56.205-.247 0-.432-.068-.558-.205a.73.73 0 0 1-.188-.512zm5.107.17v1.792h1.38v.977h-1.38v4.587c0 .296.061.518.184.666.124.149.333.223.63.223.145 0 .346-.028.6-.082V19.5a3.666 3.666 0 0 1-.97.137c-.565 0-.991-.171-1.278-.513-.287-.342-.43-.827-.43-1.456v-4.587h-1.347v-.977h1.346v-1.792h1.265zm13.125.315h-3.2V19.5H224.5v-8.873h-3.192v-1.08h7.697v1.08zm3.67 9.01c-1.002 0-1.818-.33-2.446-.988-.63-.659-.944-1.54-.944-2.642v-.233c0-.733.14-1.388.42-1.965a3.28 3.28 0 0 1 1.176-1.353 2.956 2.956 0 0 1 1.638-.49c.961 0 1.709.318 2.242.951.533.633.8 1.54.8 2.72v.527h-5.011c.018.73.231 1.318.639 1.767.408.449.926.673 1.555.673.447 0 .825-.09 1.135-.273.31-.182.581-.424.813-.725l.773.602c-.62.952-1.55 1.429-2.79 1.429zm-.156-6.631c-.51 0-.94.186-1.286.557-.346.371-.56.892-.642 1.562h3.705v-.096c-.037-.642-.21-1.14-.52-1.493-.31-.354-.729-.53-1.257-.53zm8.08.232a3.79 3.79 0 0 0-.622-.048c-.83 0-1.393.354-1.689 1.06v5.25h-1.265v-7.396h1.23l.021.854c.415-.66 1.003-.991 1.764-.991.246 0 .433.032.56.095v1.176zm5.455 6.262c-.073-.146-.132-.406-.178-.78-.588.611-1.29.917-2.105.917-.73 0-1.328-.206-1.795-.619a2.002 2.002 0 0 1-.7-1.569c0-.77.292-1.368.878-1.794.585-.426 1.41-.64 2.471-.64h1.23v-.58c0-.442-.132-.795-.396-1.057-.264-.262-.654-.393-1.169-.393-.451 0-.83.114-1.135.342-.305.228-.458.504-.458.827h-1.271c0-.369.13-.725.393-1.07a2.683 2.683 0 0 1 1.066-.816c.45-.2.942-.301 1.48-.301.852 0 1.52.213 2.003.639.483.426.734 1.013.752 1.76v3.405c0 .679.087 1.219.26 1.62v.109h-1.326zm-2.099-.964a2.22 2.22 0 0 0 1.128-.307 1.86 1.86 0 0 0 .772-.8V15.91h-.99c-1.55 0-2.325.454-2.325 1.36 0 .397.132.707.397.93.264.223.603.335 1.018.335zm7.212-2.46l-.793.826V19.5h-1.265V9h1.265v6.35l.677-.813 2.304-2.433h1.538l-2.878 3.09 3.213 4.306h-1.484l-2.577-3.425zm6.296-3.077c.56-.688 1.29-1.032 2.187-1.032 1.564 0 2.352.882 2.366 2.645V19.5h-1.265v-4.895c-.005-.533-.126-.927-.366-1.182-.239-.255-.612-.383-1.117-.383-.41 0-.77.11-1.08.328a2.23 2.23 0 0 0-.725.861V19.5h-1.265V9h1.265v3.999zm7.82 6.501h-1.264v-7.396h1.264V19.5zm-1.367-9.358c0-.205.063-.379.188-.52.125-.141.311-.212.557-.212.246 0 .433.07.56.212a.747.747 0 0 1 .192.52.722.722 0 0 1-.191.512c-.128.137-.315.205-.56.205-.247 0-.433-.068-.558-.205a.73.73 0 0 1-.188-.512zm6.966 3.096a3.79 3.79 0 0 0-.622-.048c-.83 0-1.392.354-1.689 1.06v5.25h-1.264v-7.396h1.23l.02.854c.415-.66 1.003-.991 1.764-.991.246 0 .433.032.56.095v1.176zm8.337.67h.95c.597-.009 1.066-.166 1.408-.471.342-.306.513-.718.513-1.238 0-1.166-.581-1.75-1.743-1.75-.547 0-.984.156-1.31.468-.325.313-.488.726-.488 1.241h-1.265c0-.788.288-1.443.865-1.965.576-.522 1.309-.783 2.198-.783.939 0 1.675.249 2.208.745.533.497.8 1.187.8 2.072 0 .433-.14.852-.42 1.257a2.548 2.548 0 0 1-1.146.91c.547.173.97.46 1.268.86.299.402.448.892.448 1.47 0 .894-.292 1.602-.875 2.127-.583.524-1.342.786-2.276.786-.935 0-1.695-.253-2.28-.76-.586-.505-.879-1.173-.879-2.002h1.272c0 .524.17.943.513 1.258.341.314.8.471 1.374.471.61 0 1.077-.159 1.4-.478.324-.319.486-.777.486-1.374 0-.579-.177-1.023-.533-1.333-.355-.31-.868-.47-1.538-.479h-.95v-1.032z" fill-rule="nonzero"/><path d="M274 17.83c0-.187.056-.344.167-.469.111-.125.278-.187.501-.187.223 0 .392.062.507.187a.665.665 0 0 1 .173.47.63.63 0 0 1-.173.45c-.115.121-.284.182-.507.182-.223 0-.39-.06-.501-.182a.641.641 0 0 1-.167-.45zm.006-5.174c0-.187.056-.343.167-.469.111-.125.278-.187.5-.187.223 0 .392.062.508.188a.665.665 0 0 1 .173.468.63.63 0 0 1-.173.451c-.116.122-.285.182-.507.182-.223 0-.39-.06-.501-.182a.641.641 0 0 1-.167-.45z"/></g></g></svg>