<svg width="299" height="197" xmlns="http://www.w3.org/2000/svg"><g fill="none" fill-rule="evenodd"><path fill="#F2F2F2" d="M0 0h299v197H0z"/><path d="M1.987 1.98v193.04h295.026V1.98H1.987zM299 0v197H0V0h299z" fill="#C2C2C2" fill-rule="nonzero"/><path d="M4.887 54.446v-1.207h289.656v1.207H4.887zm0 40.534v-1.207h289.656v1.207H4.887zm0 40.534v-1.207h289.656v1.207H4.887zm0 40.496v-1.207h289.656v1.207H4.887zm34.38-142.416h1.206v159.67h-1.206V33.594zm36.664 0h1.207v159.67h-1.207V33.594zm36.628 0h1.207v159.67h-1.207V33.594zm36.665 0h1.207v159.67h-1.207V33.594zm36.627 0h1.207v159.67h-1.207V33.594zm36.628 0h1.207v159.67h-1.207V33.594zM4.887 115.228v-1.207h289.656v1.207H4.887z" fill="#DEDEDD" fill-rule="nonzero"/><path fill="#293152" d="M4.887 76.731v-1.206h289.656v1.206z"/><path fill="#DEDEDD" d="M4.887 157.762v-1.207h289.656v1.207z"/><path fill="#293152" d="M259.144 35.594h1.207v159.67h-1.207z"/><path fill="#C2C2C2" d="M2.794 35.606V33.19h293.842v2.415z"/><path d="M26.714 23.751h-2.018l-4.149-7.06h-.037v7.06h-2.056V13.403h2.056l4.148 7.06h.038v-7.06h2.055v10.348h-.037zm1.458-3.922c0-1.158.299-2.092.934-2.84.635-.747 1.495-1.083 2.616-1.083s2.018.374 2.654 1.083c.635.748.972 1.682.972 2.84v.15c0 1.157-.3 2.091-.935 2.838-.635.71-1.495 1.084-2.616 1.084s-2.018-.374-2.654-1.084c-.672-.747-.971-1.68-.971-2.839v-.15zm2.018.15c0 .709.112 1.27.374 1.68.261.411.635.635 1.196.635.523 0 .934-.224 1.158-.635.224-.41.374-.971.374-1.68v-.15c0-.673-.112-1.233-.374-1.681a1.308 1.308 0 0 0-1.196-.636c-.523 0-.934.225-1.158.636-.262.448-.374.97-.374 1.68v.15zm17.23-4.97h-2.878v8.742h-2.056V15.01h-2.878v-1.606h7.812v1.606zm0 4.82c0-1.158.299-2.092.934-2.84.636-.747 1.495-1.083 2.616-1.083 1.122 0 2.019.374 2.654 1.083.635.748.972 1.682.972 2.84v.15c0 1.157-.3 2.091-.935 2.838-.635.71-1.495 1.084-2.616 1.084s-2.018-.374-2.654-1.084c-.635-.71-.934-1.68-.934-2.839v-.15h-.037zm2.055.15c0 .709.112 1.27.374 1.68.262.411.636.635 1.196.635.523 0 .934-.224 1.159-.635.224-.41.373-.971.373-1.68v-.15c0-.673-.112-1.233-.373-1.681-.262-.449-.636-.636-1.159-.636s-.934.225-1.159.636c-.261.448-.373.97-.373 1.68v.15h-.038zm11.026 2.652a2.4 2.4 0 0 1-2.13 1.27c-.785 0-1.42-.262-1.87-.785-.448-.523-.672-1.345-.672-2.428v-4.633h2.056v4.67c0 .56.112.972.299 1.196.187.261.448.373.822.373.336 0 .598-.037.86-.15.224-.111.41-.26.56-.485v-5.604h2.056v7.696h-1.757l-.224-1.12zm6.69-.337c.374 0 .673-.112.897-.336.224-.224.337-.486.337-.86h1.868l.038.038a2.316 2.316 0 0 1-.86 1.943c-.598.523-1.346.784-2.243.784-1.12 0-2.018-.373-2.616-1.083-.598-.71-.934-1.644-.934-2.802v-.187c0-1.12.299-2.054.934-2.802.598-.747 1.495-1.083 2.617-1.083.934 0 1.681.262 2.28.822.56.523.859 1.27.822 2.13v.037h-1.87a1.494 1.494 0 0 0-.335-1.009 1.136 1.136 0 0 0-.898-.41c-.56 0-.934.223-1.158.634a3.473 3.473 0 0 0-.336 1.644v.224c0 .673.112 1.233.336 1.644.187.486.56.672 1.121.672zm6.242-5.267c.224-.336.523-.635.897-.822a2.429 2.429 0 0 1 1.158-.299c.785 0 1.42.262 1.87.785.448.523.672 1.344.672 2.465v4.558h-2.056v-4.558c0-.598-.112-1.008-.299-1.27-.224-.261-.523-.374-.934-.374-.3 0-.523.038-.748.15-.224.112-.41.261-.523.448v5.641h-2.055V12.656h2.055v4.37h-.037z" fill="#231F20" fill-rule="nonzero"/><path d="M41.087 138.25a1.81 1.81 0 1 1-2.434-2.68l36.665-33.287a1.81 1.81 0 0 1 2.332-.086l31.97 24.988 32.488-24.996a1.81 1.81 0 0 1 2.247.031l33.563 27.343 35.438-31.587a1.81 1.81 0 0 1 1.684-.394l45.186 12.403a1.81 1.81 0 0 1-.958 3.491l-44.237-12.142-35.856 31.959a1.81 1.81 0 0 1-2.348.052l-33.647-27.412-32.464 24.978a1.81 1.81 0 0 1-2.22-.009L76.623 105.99l-35.535 32.26z" fill="#293152"/><path d="M29.704 60.923h-2.541l-1.495 7.733h-1.122l1.533-7.696h-2.542l.187-.934h6.167l-.187.897zm2.43 7.733v-.485c0-.113.037-.262.037-.374-.262.299-.56.523-.897.71a2.094 2.094 0 0 1-1.01.299c-.56 0-1.008-.187-1.27-.523-.262-.337-.337-.822-.224-1.42.112-.635.448-1.158.934-1.457.523-.336 1.159-.486 1.944-.486h1.083l.112-.635c.075-.41.038-.71-.112-.896-.15-.224-.448-.3-.822-.3-.336 0-.635.113-.897.3a1.21 1.21 0 0 0-.486.672H29.48v-.037c.075-.486.373-.934.897-1.308.523-.373 1.121-.56 1.831-.56.636 0 1.121.187 1.495.56.374.374.486.897.336 1.57l-.598 3.1-.112.672a1.81 1.81 0 0 0 0 .636h-1.196v-.038zm-1.496-.859c.3 0 .636-.075.972-.262.337-.186.598-.41.748-.672l.224-1.195H31.46a1.57 1.57 0 0 0-1.047.373 1.49 1.49 0 0 0-.56.822c-.075.299-.038.523.074.672.15.187.374.262.71.262zm7.999-4.52L38 63.239c-.254 0-.502.078-.71.224a1.86 1.86 0 0 0-.56.635l-.898 4.558h-1.12l1.27-6.425h1.01l-.076.859c.191-.292.447-.535.748-.71.339-.23.758-.312 1.159-.224.074 0 .149.037.186.037l-.373 1.084zm.336 2.166c.224-1.083.56-1.942 1.047-2.503.485-.56 1.083-.822 1.83-.822.337 0 .674.075.935.225.262.15.486.373.673.672l.262-.784h.971l-1.233 6.313c-.187.897-.523 1.57-1.047 2.018-.523.448-1.233.672-2.055.672-.262 0-.56-.037-.897-.112a2.37 2.37 0 0 1-.822-.336l.448-.897c.15.112.374.224.636.299.261.075.523.112.784.112.486 0 .86-.15 1.159-.448.327-.34.548-.77.635-1.233l.075-.448a2.194 2.194 0 0 1-1.607.635c-.673 0-1.196-.3-1.532-.934a3.283 3.283 0 0 1-.262-2.28v-.149zm1.121.112c-.15.673-.112 1.233.075 1.644.187.411.56.635 1.084.635.261 0 .523-.074.747-.224a2.21 2.21 0 0 0 .636-.672l.598-2.989a1.61 1.61 0 0 0-.486-.635c-.224-.187-.449-.224-.785-.224-.486 0-.86.224-1.159.635a4.855 4.855 0 0 0-.672 1.718l-.038.112zm7.438 3.213c-.785 0-1.383-.299-1.794-.896-.411-.598-.523-1.383-.374-2.317l.038-.261c.149-.934.523-1.719 1.12-2.316.599-.598 1.234-.897 1.907-.897.785 0 1.345.262 1.682.785.336.523.448 1.232.299 2.092l-.112.747h-3.813c-.074.635-.037 1.158.187 1.569.225.41.56.56 1.047.56a2.808 2.808 0 0 0 1.756-.635l.337.747a3.38 3.38 0 0 1-2.28.822zm.747-5.716c-.336 0-.635.15-.934.486a3.277 3.277 0 0 0-.673 1.233v.037h2.617l.037-.15c.075-.485.037-.858-.15-1.157-.15-.3-.448-.449-.897-.449zm5.756-2.353l-.299 1.532h1.084l-.187.859H53.55l-.785 3.885c-.074.336-.074.523.038.635.075.112.224.187.41.187.076 0 .188 0 .337-.037.112 0 .224-.038.3-.038v.785c-.113.075-.262.112-.487.187-.224.037-.41.074-.635.074-.367.019-.72-.15-.934-.448-.225-.299-.262-.747-.15-1.345l.785-3.885h-.934l.187-.86h.934l.299-1.531h1.121z" fill="#6E6F71" fill-rule="nonzero"/><path d="M187.987 147.445h-34.945l-5.382-8.181-5.382 8.181h-34.946c-2.616 0-4.71 2.13-4.71 4.782v24.694c0 2.653 2.131 4.782 4.71 4.782h80.692c2.617 0 4.71-2.13 4.71-4.782v-24.694c0-2.652-2.13-4.782-4.747-4.782z" fill="#E88124"/><ellipse cx="8.335" cy="8.863" rx="8.11" ry="8.443" opacity=".6" transform="translate(251.412 102.868)" fill="#FFF"/><path d="M259.747 121.38c-5.157 0-9.317-4.33-9.317-9.65 0-5.318 4.16-9.65 9.317-9.65s9.318 4.332 9.318 9.65c0 5.32-4.16 9.65-9.318 9.65zm0-2.413c3.802 0 6.903-3.23 6.903-7.236 0-4.007-3.101-7.236-6.903-7.236-3.801 0-6.903 3.229-6.903 7.236s3.102 7.236 6.903 7.236z" fill="#E88124" fill-rule="nonzero"/><ellipse cx="8.97" cy="8.891" rx="8.11" ry="8.443" opacity=".6" transform="translate(30.9 128.019)" fill="#FFF"/><path d="M39.87 146.56c-5.157 0-9.317-4.33-9.317-9.65 0-5.319 4.16-9.65 9.317-9.65s9.317 4.331 9.317 9.65c0 5.32-4.16 9.65-9.317 9.65zm0-2.414c3.802 0 6.903-3.229 6.903-7.236s-3.101-7.236-6.903-7.236c-3.802 0-6.903 3.23-6.903 7.236 0 4.007 3.101 7.236 6.903 7.236z" fill="#E88124" fill-rule="nonzero"/><path d="M49.082 162.119c-.029-.146-.029-.262-.029-.408a2.69 2.69 0 0 1-.786.728 1.9 1.9 0 0 1-1.049.291c-.611 0-1.077-.145-1.397-.495a1.776 1.776 0 0 1-.495-1.31c0-.583.233-1.02.699-1.34.465-.32 1.077-.495 1.863-.495h1.165v-.582c0-.35-.116-.64-.32-.845-.204-.204-.524-.32-.903-.32-.35 0-.64.087-.844.262a.859.859 0 0 0-.32.64h-1.02v-.028c-.03-.437.175-.845.611-1.194.437-.35.99-.554 1.66-.554.67 0 1.223.175 1.631.524.408.35.612.845.612 1.486v2.883c0 .203 0 .407.029.611.029.204.058.408.116.583H49.17v.058c-.03-.175-.059-.35-.088-.495zm-1.762-.35c.378 0 .757-.087 1.048-.29.32-.205.524-.438.611-.7v-.96h-1.194c-.436 0-.786.116-1.048.32a.977.977 0 0 0-.378.786.96.96 0 0 0 .233.64c.174.117.407.204.728.204zm-7.562-5.262h1.075v6.083h-1.074v-.903c-.341.441-.904 1.15-2.032 1.03-1.129-.12-1.827-1.004-1.832-1.98-.005-.976.005-4.56 0-4.23h1.066v2.305c0 2.695.593 2.994 1.403 2.994s1.208-.685 1.395-.914c-.01-1.28-.01-2.742 0-4.385h-.001zm-6.748 6.153h1.085v-8.205h-1.347l-2.658 6.722-2.632-6.722H26v8.205h1.08l.052-6.38 2.546 6.38h.821l2.511-6.198v6.198zm9.539-8.776h1.11v8.77h-1.11v-8.77zm9.264 2.711h1.092v6.011h-1.092v-6.011zm.015-2.73v1.084h1.112v-1.084h-1.112z" fill="#2A3052" fill-rule="nonzero"/><path d="M175.693 167.042h-2.695v-8.914h2.695v8.914zm0 4.69h-2.695v-2.395h2.695v2.395zm-31.488-11.327c3.121 0 4.814 1.902 5.242 4.753.428 2.85-1.111 6.877-5.022 6.877-3.912 0-5.177-2.974-5.177-6.052 0-3.077 1.836-5.579 4.957-5.579v.001zm.028 1.997c-.928.087-2.572.737-2.476 3.814.096 3.078 1.442 3.801 2.476 3.801s2.778-.287 2.778-3.788c0-3.5-1.85-3.915-2.778-3.827zm-5.644-1.924c-.078.8-.19 1.595-.336 2.385-1.217-.079-2.48-.194-3.032 1.228l.015 7.647h-2.504v-11.173h2.228a28.6 28.6 0 0 1 .199 1.631c.77-1.437 1.913-2.01 3.43-1.72v.002zm-16.097 11.26h-2.549v-14.933h6.566c2.057 0 4.87 1.714 4.563 5.115-.206 2.267-1.727 3.642-4.563 4.125h-4.017v5.693zm.012-7.673h3.37c.83 0 2.69-.577 2.69-2.717s-1.842-2.63-2.69-2.602c-.566.02-1.69.01-3.37-.029v5.348zm35.059-8.462c-.117.596-.178 1.188-.27 1.945-.387-.086-2.558-.635-2.61 1.72v1.299h2.066v1.802h-2.067l.053 9.369h-2.587v-9.37h-1.629v-1.801h1.726c-.178-2.3.287-3.811 1.395-4.532 1.662-1.081 3.3-.634 3.923-.432zm1.874 4.989h2.502v11.087h-2.502v-11.087zm.049-4.897v2.12h2.49v-2.12h-2.49zm9.301 2.195v2.757h1.93v1.828h-1.93v6.609c0 1.335 1.69.893 1.8.837l.296 1.765c-.165.11-4.191 1.543-4.62-2.602v-6.61h-1.66v-1.827h1.66v-2.757h2.524z" fill="#FFF" fill-rule="nonzero"/><path d="M266.565 128.999c0-.332-.119-.61-.357-.834-.238-.225-.657-.416-1.257-.574-.744-.184-1.325-.456-1.742-.814a1.709 1.709 0 0 1-.626-1.353c0-.573.224-1.05.674-1.433.449-.382 1.032-.573 1.75-.573.77 0 1.385.218 1.842.656.458.437.68.948.667 1.531l-.015.03h-.946a1.35 1.35 0 0 0-.435-1.03c-.29-.272-.66-.408-1.113-.408-.463 0-.818.112-1.064.337-.246.225-.37.516-.37.875 0 .318.135.584.405.797.27.213.708.4 1.315.56.738.192 1.3.473 1.685.845.385.373.578.832.578 1.378a1.71 1.71 0 0 1-.696 1.423c-.465.359-1.07.538-1.818.538-.708 0-1.332-.197-1.873-.593-.542-.396-.804-.925-.787-1.589l.01-.03h.945c0 .46.174.814.523 1.063.349.25.743.375 1.182.375.47 0 .84-.106 1.114-.317a1.03 1.03 0 0 0 .41-.86h-.001zm4.51 1.951c-.78 0-1.39-.25-1.827-.749-.437-.5-.656-1.156-.656-1.971v-.221c0-.781.225-1.428.676-1.939.451-.511 1.002-.767 1.652-.767.727 0 1.273.227 1.637.68.363.452.545 1.054.545 1.804v.523h-3.48l-.014.026c0 .546.12.99.362 1.33.241.34.61.51 1.106.51.335 0 .63-.048.882-.143a1.97 1.97 0 0 0 .652-.395l.387.644a2.38 2.38 0 0 1-.77.475c-.318.129-.702.193-1.151.193h-.001zm-.155-4.867c-.345 0-.631.133-.857.4-.227.266-.365.607-.415 1.023l.01.025h2.454v-.08c0-.396-.098-.723-.292-.981-.194-.258-.494-.387-.9-.387zm4.365 4.762h-.991V123h.99v7.845h.001zm3.776.105c-.781 0-1.39-.25-1.828-.749-.437-.5-.656-1.156-.656-1.971v-.221c0-.781.225-1.428.676-1.939.451-.511 1.002-.767 1.652-.767.728 0 1.273.227 1.637.68.364.452.545 1.054.545 1.804v.523h-3.48l-.014.026c0 .546.12.99.362 1.33.241.34.61.51 1.106.51.335 0 .63-.048.882-.143a1.97 1.97 0 0 0 .652-.395l.387.644a2.38 2.38 0 0 1-.77.475c-.318.129-.702.193-1.151.193zm-.156-4.867c-.345 0-.631.133-.857.4-.227.266-.365.607-.415 1.023l.01.025h2.454v-.08c0-.396-.097-.723-.292-.981-.194-.258-.494-.387-.9-.387zm6.457 3.298a.66.66 0 0 0-.25-.533c-.165-.137-.48-.258-.942-.362-.64-.137-1.132-.33-1.476-.578a1.168 1.168 0 0 1-.515-.995c0-.443.188-.822.565-1.137.377-.315.866-.473 1.466-.473.617 0 1.116.168 1.499.503.382.335.564.726.548 1.172l-.01.03h-.946c0-.235-.103-.447-.309-.639a1.11 1.11 0 0 0-.782-.286c-.349 0-.61.079-.782.236a.737.737 0 0 0-.259.563c0 .215.075.38.224.498.15.117.457.225.923.322.667.14 1.173.34 1.518.598.346.258.518.595.518 1.011 0 .483-.195.877-.586 1.182-.39.305-.9.457-1.53.457-.695 0-1.241-.176-1.64-.528-.399-.352-.588-.762-.568-1.232l.01-.03h.945c.017.352.148.61.392.772.245.163.532.244.86.244.352 0 .628-.075.827-.224.2-.149.3-.34.3-.57v-.001zm5.566 1.464a8.05 8.05 0 0 1-.078-.435 3.193 3.193 0 0 1-.033-.38 2.31 2.31 0 0 1-.721.656c-.29.174-.62.265-.958.264-.567 0-.998-.145-1.295-.435-.297-.29-.445-.69-.445-1.199 0-.52.21-.926.631-1.22.42-.293.992-.44 1.712-.44h1.076v-.537c0-.319-.097-.571-.291-.757-.195-.186-.47-.28-.825-.28-.322 0-.582.081-.78.242-.197.161-.296.354-.296.578l-.94.01-.01-.03c-.024-.395.161-.757.555-1.086.394-.328.903-.493 1.526-.493.617 0 1.113.157 1.489.47.375.314.563.766.563 1.356v2.62c0 .194.01.382.03.563.02.18.057.358.11.533h-1.02zm-1.644-.724c.358 0 .682-.093.97-.277.288-.184.476-.396.563-.634v-.885h-1.11c-.4 0-.72.101-.959.302-.24.201-.36.438-.36.71 0 .24.076.432.227.572.15.141.374.212.669.212zm5.033.724h-.99v-5.441h.99v5.441zm0-6.834h-.99v-1.01h.99v1.01z" fill="#2A3052" fill-rule="nonzero"/></g></svg>