<svg width="299" height="197" xmlns="http://www.w3.org/2000/svg"><g fill="none" fill-rule="evenodd"><path fill="#F1F1F2" d="M0 0h299v197H0z"/><path d="M1.987 1.98v193.04h295.026V1.98H1.987zM299 0v197H0V0h299z" fill="#C2C2C2" fill-rule="nonzero"/><path d="M4.58 54.993v-1.211h290.408v1.21H4.58zm0 40.195v-1.21h290.408v1.21H4.58zm0 40.158v-1.211h290.408v1.211H4.58zm0 20.079v-1.211h290.408v1.211H4.58zm0 20.079v-1.211h290.408v1.21H4.58zM39.06 34.308h1.21V192.59h-1.21V34.308zm36.75 0h1.21V192.59h-1.21V34.308zm36.75 0h1.211V192.59h-1.21V34.308zm36.713 0h1.211V192.59h-1.211V34.308zm36.75 0h1.212V192.59h-1.212V34.308zm36.75 0h1.212V192.59h-1.211V34.308zm36.751 0h1.212V192.59h-1.212V34.308zM4.58 115.268v-1.212h290.408v1.211H4.58z" fill="#DEDEDD" fill-rule="nonzero"/><path fill="#293052" d="M4.58 75.072V73.86h1.816v1.21z"/><path d="M10.03 75.072V73.86h3.633v1.21H10.03zm7.267 0V73.86h3.633v1.21h-3.633zm7.266 0V73.86h3.634v1.21h-3.634zm7.267 0V73.86h3.634v1.21H31.83zm7.267 0V73.86h3.634v1.21h-3.634zm7.267 0V73.86h3.633v1.21h-3.633zm7.267 0V73.86h3.633v1.21h-3.633zm7.267 0V73.86h3.633v1.21h-3.633zm7.266 0V73.86h3.634v1.21h-3.634zm7.267 0V73.86h3.634v1.21H75.43zm7.267 0V73.86h3.634v1.21h-3.634zm7.267 0V73.86h3.633v1.21h-3.633zm7.267 0V73.86h3.633v1.21h-3.633zm7.267 0V73.86h3.633v1.21h-3.633zm7.266 0V73.86h3.634v1.21h-3.634zm7.267 0V73.86h3.634v1.21h-3.634zm7.267 0V73.86h3.634v1.21h-3.634zm7.267 0V73.86h3.633v1.21h-3.633zm7.267 0V73.86h3.633v1.21h-3.633zm7.267 0V73.86h3.633v1.21H148.1zm7.266 0V73.86H159v1.21h-3.634zm7.267 0V73.86h3.634v1.21h-3.634zm7.267 0V73.86h3.634v1.21H169.9zm7.267 0V73.86h3.633v1.21h-3.633zm7.267 0V73.86h3.633v1.21h-3.633zm7.267 0V73.86h3.633v1.21h-3.633zm7.266 0V73.86h3.634v1.21h-3.634zm7.267 0V73.86h3.634v1.21h-3.634zm7.267 0V73.86h3.634v1.21H213.5zm7.267 0V73.86h3.633v1.21h-3.633zm7.267 0V73.86h3.633v1.21h-3.633zm7.267 0V73.86h3.633v1.21h-3.633zm7.266 0V73.86h3.634v1.21h-3.634zm7.267 0V73.86h3.634v1.21h-3.634zm7.267 0V73.86h3.634v1.21h-3.634zm7.267 0V73.86h3.633v1.21h-3.633zm7.267 0V73.86h3.633v1.21h-3.633zm7.267 0V73.86h3.633v1.21h-3.633zm7.266 0V73.86h3.634v1.21h-3.634z" fill="#293052" fill-rule="nonzero"/><path fill="#293052" d="M293.21 75.072V73.86h1.778v1.21z"/><path fill="#C2C2C2" d="M1 30v-2h297v2z"/><path d="M24.494 16.359a4.283 4.283 0 0 1-1.211 3.107 4.123 4.123 0 0 1-3.104 1.25 4.048 4.048 0 0 1-3.255-1.213 4.321 4.321 0 0 1-1.173-3.106v-1.894a4.321 4.321 0 0 1 1.173-3.107 4.048 4.048 0 0 1 3.066-1.25 4.123 4.123 0 0 1 3.103 1.25 4.283 4.283 0 0 1 1.4 3.107v1.856zm-2.12-1.856a3.109 3.109 0 0 0-.605-1.97 1.967 1.967 0 0 0-1.666-.758 1.93 1.93 0 0 0-1.627.758 3.185 3.185 0 0 0-.568 1.97v1.856c-.039.714.161 1.42.568 2.008a1.93 1.93 0 0 0 1.627.758 1.967 1.967 0 0 0 1.666-.758c.422-.582.636-1.29.605-2.008v-1.856zm3.18 2.31a4.966 4.966 0 0 1 .794-2.916 2.535 2.535 0 0 1 2.195-1.1c.358.002.71.093 1.022.266.315.179.586.424.795.72V9.578h2.082v10.986h-1.78v-.947a2.499 2.499 0 0 1-.832.796 2.27 2.27 0 0 1-1.135.265 2.572 2.572 0 0 1-2.347-.947 4.398 4.398 0 0 1-.795-2.728v-.19zm2.043 0c-.028.552.09 1.1.34 1.592.23.382.654.602 1.098.568.261.067.535.067.795 0 .222-.125.405-.309.53-.53v-3.296a1.59 1.59 0 0 0-.53-.569 1.4 1.4 0 0 0-.757-.189c-.469-.013-.9.255-1.097.682a3.792 3.792 0 0 0-.34 1.743h-.039zm6.094 0a4.966 4.966 0 0 1 .795-2.916 2.535 2.535 0 0 1 2.195-1.1c.357.002.709.093 1.022.266.314.179.586.424.794.72V9.578h2.044v10.986h-1.74v-.947a2.499 2.499 0 0 1-.833.796 2.27 2.27 0 0 1-1.136.265 2.572 2.572 0 0 1-2.346-.947 4.398 4.398 0 0 1-.795-2.728v-.19zm2.044 0c-.028.552.09 1.1.34 1.592.229.382.654.602 1.098.568.26.067.534.067.795 0 .221-.125.404-.309.53-.53v-3.296a1.59 1.59 0 0 0-.53-.569 1.4 1.4 0 0 0-.757-.189 1.173 1.173 0 0 0-1.098.682 3.792 3.792 0 0 0-.34 1.743h-.038z" fill="#231F20" fill-rule="nonzero"/><path d="M40.913 115.955a1.798 1.798 0 0 1-2.496-2.587l36.75-35.46a1.798 1.798 0 0 1 2.695.227l35.779 48.537 35.234-21.24a1.798 1.798 0 0 1 2.01.104l35.692 26.914 72.407-59.937a1.798 1.798 0 1 1 2.292 2.77l-73.5 60.842a1.798 1.798 0 0 1-2.23.051l-35.856-27.038-35.596 21.46a1.798 1.798 0 0 1-2.375-.473L76.186 81.92l-35.273 34.034z" fill="#293052"/><path d="M188.18 145.159h-35.047l-5.525-8.07-5.3 8.07h-35.046a4.733 4.733 0 0 0-4.731 4.735v24.512a4.733 4.733 0 0 0 4.73 4.735h80.92a4.729 4.729 0 0 0 3.419-1.346 4.738 4.738 0 0 0 1.425-3.39v-24.473a4.738 4.738 0 0 0-1.412-3.414 4.729 4.729 0 0 0-3.432-1.36z" fill="#E88024"/><ellipse cx="8.333" cy="9.062" rx="8.137" ry="8.373" opacity=".6" transform="translate(251.797 65.404)" fill="#FFF"/><path d="M260.13 84.05c-5.17 0-9.348-4.299-9.348-9.584 0-5.285 4.177-9.583 9.348-9.583 5.17 0 9.348 4.298 9.348 9.583s-4.177 9.584-9.348 9.584zm0-2.422c3.817 0 6.926-3.2 6.926-7.162 0-3.963-3.109-7.161-6.926-7.161s-6.926 3.198-6.926 7.161c0 3.963 3.109 7.162 6.926 7.162z" fill="#E88024" fill-rule="nonzero"/><ellipse cx="8.386" cy="8.585" rx="8.137" ry="8.373" opacity=".6" transform="translate(31.278 106.077)" fill="#FFF"/><path d="M39.665 124.245c-5.171 0-9.349-4.298-9.349-9.583 0-5.286 4.178-9.584 9.349-9.584 5.17 0 9.348 4.298 9.348 9.584 0 5.285-4.177 9.583-9.348 9.583zm0-2.422c3.817 0 6.926-3.199 6.926-7.161 0-3.963-3.109-7.162-6.926-7.162-3.818 0-6.926 3.199-6.926 7.162 0 3.962 3.108 7.161 6.926 7.161z" fill="#E88024" fill-rule="nonzero"/><path fill="#E88024" d="M247.564 44.575h25.094v16.518h-25.094z"/><path fill="#E88024" d="M257.745 61.12l2.382-2.383 2.382 2.384-2.382 2.384z"/><path d="M257.367 53.478l.606-5.645h5.147v1.25h-3.785l-.605 2.955c.22-.169.462-.31.719-.416.3-.052.607-.052.908 0a2.762 2.762 0 0 1 2.233.909 3.79 3.79 0 0 1 .795 2.538 3.79 3.79 0 0 1-.833 2.5 3.026 3.026 0 0 1-2.422.948 3.29 3.29 0 0 1-2.157-.72 2.464 2.464 0 0 1-.833-2.084h1.249c-.025.48.154.948.492 1.288.34.311.789.475 1.249.455a1.627 1.627 0 0 0 1.363-.606 2.692 2.692 0 0 0 .492-1.705 2.54 2.54 0 0 0-.492-1.629 1.627 1.627 0 0 0-1.363-.644 2.193 2.193 0 0 0-1.173.265 1.402 1.402 0 0 0-.53.758l-1.06-.417z" fill="#FFF"/><path fill="#D5D3DA" d="M137.35 76.474h25.094v16.518h-25.093z"/><path fill="#D5D3DA" d="M147.505 93l2.382-2.385L152.268 93l-2.381 2.385z"/><path d="M153.323 89.923h-6.662v-.871l3.369-3.789a9.43 9.43 0 0 0 1.362-1.553 2.503 2.503 0 0 0 0-1.364 1.93 1.93 0 0 0-.454-1.288 1.475 1.475 0 0 0-1.173-.53 2.043 2.043 0 0 0-1.552.53 2.16 2.16 0 0 0-.492 1.515h-1.211a2.919 2.919 0 0 1 .87-2.235 3.48 3.48 0 0 1 2.536-.909 2.988 2.988 0 0 1 2.196.796c.549.536.85 1.277.832 2.045a3.298 3.298 0 0 1-.492 1.667c-.4.655-.87 1.264-1.4 1.819l-2.687 2.917h4.958v1.25z" fill="#293052"/><path fill="#D5D3DA" d="M27.1 84.43h25.093v16.517H27.099z"/><path fill="#D5D3DA" d="M37.28 100.966l2.381-2.384 2.382 2.384-2.382 2.384z"/><path fill="#293052" d="M40.422 97.955h-1.4v-8.903h-2.12v-.985l3.482-.38v10.268z"/><path d="M174.05 165.007h-2.523v-8.348h2.523v8.348zm0 4.392h-2.523v-2.243h2.523v2.243zm-29.486-10.609c2.923 0 4.508 1.783 4.909 4.452.4 2.67-1.04 6.44-4.703 6.44-3.663 0-4.848-2.784-4.848-5.667 0-2.882 1.72-5.224 4.642-5.224v-.001zm.026 1.871c-.869.082-2.408.69-2.318 3.573.09 2.881 1.35 3.558 2.318 3.558.969 0 2.602-.268 2.602-3.546 0-3.279-1.733-3.667-2.602-3.585zm-5.285-1.801c-.096.905-.2 1.65-.315 2.234-1.139-.074-2.321-.182-2.839 1.15l.014 7.16h-2.344v-10.461h2.086c.1.698.162 1.207.186 1.527.72-1.346 1.792-1.883 3.212-1.61zm-15.073 10.544h-2.387V155.42h6.148c1.926 0 4.561 1.606 4.273 4.79-.193 2.123-1.617 3.41-4.273 3.863h-3.761v5.331zm.01-7.185h3.156c.779 0 2.519-.54 2.519-2.544s-1.724-2.464-2.519-2.437c-.53.018-1.581.01-3.155-.027v5.008h-.001zm32.83-7.924c-.109.558-.166 1.112-.252 1.821-.362-.08-2.396-.595-2.445 1.61v1.217h1.936v1.687h-1.936l.05 8.774h-2.423v-8.774h-1.525v-1.687h1.616c-.167-2.154.268-3.569 1.306-4.244 1.557-1.012 3.09-.593 3.673-.404zm1.756 4.672h2.343v10.382h-2.343v-10.382zm.046-4.587v1.986h2.331v-1.986h-2.331zm8.709 2.057v2.581h1.807v1.712h-1.807v6.189c0 1.25 1.583.836 1.686.784l.277 1.653c-.155.103-3.925 1.444-4.326-2.437v-6.19h-1.555v-1.71h1.555v-2.582h2.363z" fill="#FFF" fill-rule="nonzero"/><path d="M25.054 134.336l3.487 8.701 3.486-8.701h1.824V145h-1.407v-4.153l.132-4.482-3.5 8.635h-1.077l-3.494-8.613.139 4.46V145h-1.406v-10.664h1.816zm15.96 9.88c-.528.62-1.302.93-2.322.93-.845 0-1.488-.245-1.93-.736-.442-.49-.665-1.217-.67-2.179v-5.156h1.355v5.12c0 1.201.488 1.802 1.465 1.802 1.035 0 1.723-.386 2.065-1.158v-5.764h1.355V145h-1.289l-.03-.784zm4.848.784h-1.355v-11.25h1.355V145zm7.06 0c-.077-.156-.14-.435-.19-.835-.63.654-1.381.981-2.255.981-.782 0-1.423-.22-1.923-.662-.5-.442-.75-1.003-.75-1.681 0-.825.313-1.466.94-1.923.628-.456 1.51-.685 2.648-.685h1.318v-.622c0-.474-.141-.851-.424-1.132-.284-.28-.701-.421-1.253-.421-.483 0-.888.122-1.216.366-.327.244-.49.54-.49.886h-1.363c0-.395.14-.777.421-1.146.281-.368.662-.66 1.143-.875a3.844 3.844 0 0 1 1.586-.322c.913 0 1.628.228 2.146.685.517.456.786 1.085.805 1.886v3.647c0 .728.093 1.306.279 1.736V145h-1.421zm-2.248-1.033c.425 0 .828-.11 1.209-.33.38-.219.657-.505.827-.856v-1.626h-1.062c-1.66 0-2.49.486-2.49 1.457 0 .425.142.757.425.996.283.24.647.36 1.091.36zM57.662 145h-1.355v-7.925h1.355V145zm-1.465-10.027c0-.22.067-.405.201-.556.134-.152.333-.228.597-.228.264 0 .464.076.6.228a.8.8 0 0 1 .206.556.78.78 0 0 1-.205.55c-.137.146-.337.22-.6.22-.265 0-.464-.074-.598-.22a.782.782 0 0 1-.201-.55zm191.183-30.726c-1.206-.347-2.084-.773-2.633-1.278a2.442 2.442 0 0 1-.824-1.872c0-.84.336-1.534 1.007-2.084.671-.549 1.544-.824 2.618-.824.733 0 1.386.142 1.96.425a3.222 3.222 0 0 1 1.333 1.172c.315.498.472 1.043.472 1.633h-1.414c0-.644-.205-1.15-.615-1.52-.41-.368-.989-.552-1.736-.552-.693 0-1.234.152-1.622.457-.388.306-.582.73-.582 1.271 0 .435.184.802.553 1.102.368.3.996.575 1.882.824.886.25 1.58.524 2.08.824.5.3.872.651 1.113 1.051.242.4.363.872.363 1.414 0 .864-.337 1.556-1.01 2.076-.675.52-1.575.78-2.703.78-.733 0-1.416-.14-2.051-.42-.635-.281-1.124-.666-1.469-1.154a2.815 2.815 0 0 1-.516-1.663H245c0 .645.238 1.154.714 1.527.476.374 1.112.56 1.908.56.742 0 1.31-.15 1.706-.454.396-.302.593-.715.593-1.237 0-.523-.183-.927-.549-1.212-.366-.286-1.03-.568-1.992-.846zm8.833 4.9c-1.074 0-1.948-.353-2.622-1.059-.674-.705-1.01-1.649-1.01-2.83v-.25c0-.786.15-1.488.45-2.105.3-.618.72-1.101 1.26-1.45a3.167 3.167 0 0 1 1.753-.524c1.03 0 1.831.34 2.403 1.018.571.678.857 1.65.857 2.915v.564h-5.369c.02.781.248 1.412.685 1.893.437.481.992.722 1.666.722.479 0 .884-.098 1.216-.293.332-.196.623-.455.872-.777l.827.645c-.664 1.02-1.66 1.53-2.988 1.53zm-.169-7.105a1.81 1.81 0 0 0-1.377.597c-.37.398-.6.956-.688 1.674h3.97v-.103c-.04-.689-.225-1.222-.557-1.6-.332-.379-.781-.568-1.348-.568zm6.3 6.958h-1.356V97.75h1.355V109zm5.456.146c-1.074 0-1.948-.352-2.622-1.058-.674-.705-1.011-1.649-1.011-2.83v-.25c0-.786.15-1.488.45-2.105.3-.618.72-1.101 1.26-1.45a3.167 3.167 0 0 1 1.754-.524c1.03 0 1.831.34 2.403 1.018.571.678.857 1.65.857 2.915v.564h-5.369c.02.781.248 1.412.685 1.893.437.481.992.722 1.666.722.479 0 .884-.098 1.216-.293a3.07 3.07 0 0 0 .871-.777l.828.645c-.664 1.02-1.66 1.53-2.988 1.53zm-.169-7.104c-.547 0-1.006.199-1.377.597-.37.398-.6.956-.688 1.674h3.97v-.103c-.04-.689-.225-1.222-.557-1.6-.332-.379-.781-.568-1.348-.568zm9.441 4.856c0-.366-.138-.65-.414-.853-.275-.203-.756-.378-1.442-.524-.686-.146-1.23-.322-1.634-.527-.403-.205-.7-.45-.893-.733a1.752 1.752 0 0 1-.29-1.01c0-.65.275-1.2.824-1.648.55-.45 1.252-.674 2.106-.674.899 0 1.627.232 2.186.696.56.463.839 1.057.839 1.78h-1.362c0-.372-.158-.692-.473-.96-.315-.269-.711-.403-1.19-.403-.493 0-.879.107-1.157.322a1.014 1.014 0 0 0-.418.843c0 .327.13.573.389.74.258.165.726.324 1.402.475.676.152 1.225.332 1.644.542.42.21.732.463.934.758.203.296.304.656.304 1.08 0 .709-.283 1.276-.85 1.704-.566.427-1.3.64-2.204.64-.635 0-1.196-.112-1.685-.336a2.74 2.74 0 0 1-1.146-.942 2.268 2.268 0 0 1-.414-1.307h1.355c.025.454.207.814.546 1.08.34.266.787.4 1.344.4.513 0 .924-.104 1.234-.312.31-.207.465-.484.465-.831zm8.013 2.102c-.078-.156-.142-.435-.19-.835-.63.654-1.382.981-2.256.981-.782 0-1.422-.22-1.923-.662-.5-.442-.75-1.003-.75-1.681 0-.825.313-1.466.94-1.923.628-.456 1.51-.685 2.648-.685h1.319v-.622c0-.474-.142-.851-.425-1.132-.283-.28-.7-.421-1.253-.421-.483 0-.888.122-1.216.366-.327.244-.49.54-.49.886h-1.363c0-.395.14-.777.422-1.146.28-.368.661-.66 1.142-.875a3.844 3.844 0 0 1 1.586-.322c.913 0 1.628.228 2.146.685.517.456.786 1.085.806 1.886v3.647c0 .728.092 1.306.278 1.736V109h-1.421zm-2.249-1.033c.425 0 .828-.11 1.209-.33.38-.219.657-.505.828-.856v-1.626h-1.062c-1.66 0-2.49.486-2.49 1.457 0 .425.14.757.424.996.283.24.647.36 1.091.36zm6.988 1.033h-1.355v-7.925h1.355V109zm-1.465-10.027c0-.22.067-.405.201-.556.135-.152.334-.228.597-.228.264 0 .464.076.6.228a.8.8 0 0 1 .206.556c0 .22-.068.403-.205.55-.137.146-.337.22-.6.22-.264 0-.463-.074-.598-.22a.782.782 0 0 1-.201-.55z" fill="#2A3052"/></g></svg>