<svg width="299" height="197" xmlns="http://www.w3.org/2000/svg"><g fill="none" fill-rule="evenodd"><path fill="#F1F2F2" d="M0 0h299v197H0z"/><path d="M1.987 1.98v193.04h295.026V1.98H1.987zM299 0v197H0V0h299z" fill="#C2C2C2" fill-rule="nonzero"/><path d="M9.765 54.597V53.43h279.823v1.167H9.765zm0 39.175v-1.167h279.823v1.167H9.765zm0 39.175v-1.167h279.823v1.167H9.765zm0 39.14v-1.168h279.823v1.168H9.765zM42.977 34.444h1.168v154.318h-1.168V34.444zm35.42 0h1.168v154.318h-1.167V34.444zm35.385 0h1.168v154.318h-1.168V34.444z" fill="#DFDEDE" fill-rule="nonzero"/><path d="M149.203 34.444h1.167v5.873h-1.167v-5.873zm0 11.746h1.167v5.873h-1.167V46.19zm0 11.746h1.167v5.874h-1.167v-5.874zm0 11.747h1.167v5.873h-1.167v-5.873zm0 11.746h1.167v5.873h-1.167V81.43zm0 11.747h1.167v5.873h-1.167v-5.873zm0 11.746h1.167v5.873h-1.167v-5.873zm0 11.747h1.167v5.873h-1.167v-5.873zm0 11.746h1.167v5.873h-1.167v-5.873zm0 11.746h1.167v5.874h-1.167v-5.874zm0 11.747h1.167v5.873h-1.167v-5.873zm0 11.746h1.167v5.873h-1.167v-5.873zm0 11.747h1.167v5.873h-1.167V175.4zm0 11.746h1.167v1.615h-1.167v-1.615z" fill="#E98024" fill-rule="nonzero"/><path d="M184.584 34.444h1.168v154.318h-1.168V34.444zm35.385 0h1.168v154.318h-1.168V34.444zM9.765 113.342v-1.168h279.823v1.168H9.765z" fill="#DFDEDE" fill-rule="nonzero"/><path d="M255.39 37.444h1.167v154.318h-1.167V37.444zM9.765 77.202v-1.167h279.823v1.167H9.765z" fill="#2A3052" fill-rule="nonzero"/><path d="M9.765 155.517v-1.167h5.874v1.167H9.765zm11.747 0v-1.167h5.873v1.167h-5.873zm11.746 0v-1.167h5.873v1.167h-5.873zm11.747 0v-1.167h5.873v1.167h-5.873zm11.746 0v-1.167h5.873v1.167h-5.873zm11.746 0v-1.167h5.874v1.167h-5.874zm11.747 0v-1.167h5.873v1.167h-5.873zm11.746 0v-1.167h5.874v1.167H91.99zm11.747 0v-1.167h5.873v1.167h-5.873zm11.746 0v-1.167h5.873v1.167h-5.873zm11.747 0v-1.167h5.873v1.167h-5.873zm11.746 0v-1.167h5.873v1.167h-5.873zm11.746 0v-1.167h5.874v1.167h-5.874zm11.747 0v-1.167h5.873v1.167h-5.873zm11.746 0v-1.167h5.874v1.167h-5.874zm11.747 0v-1.167h5.873v1.167h-5.873zm11.746 0v-1.167h5.873v1.167h-5.873zm11.747 0v-1.167h5.873v1.167h-5.873zm11.746 0v-1.167h5.873v1.167h-5.873zm11.746 0v-1.167h5.874v1.167h-5.874zm11.747 0v-1.167h5.873v1.167h-5.873zm11.746 0v-1.167h5.874v1.167h-5.874zm11.747 0v-1.167h5.873v1.167h-5.873zm11.746 0v-1.167h5.873v1.167h-5.873z" fill="#E98024" fill-rule="nonzero"/><path fill="#C2C2C2" fill-rule="nonzero" d="M2 34.456V32.12h295v2.336z"/><path d="M20.733 18.4v3.887h-1.955v-9.731h3.673a4.032 4.032 0 0 1 2.602.757c.638.52.988 1.312.943 2.133.01.463-.129.916-.395 1.294a2.72 2.72 0 0 1-1.156.875c.503.122.943.425 1.238.85.265.443.397.952.38 1.468v.711c.002.288.038.575.107.854.05.255.185.486.38.658v.138h-2.012a1.099 1.099 0 0 1-.356-.71 6.002 6.002 0 0 1-.07-.957v-.694a1.54 1.54 0 0 0-.4-1.13 1.486 1.486 0 0 0-1.116-.402h-1.863zm0-1.507h1.686c.438.033.873-.093 1.226-.355a1.27 1.27 0 0 0 .406-1.028 1.422 1.422 0 0 0-.406-1.066 1.646 1.646 0 0 0-1.194-.395h-1.718v2.844zm10.134 5.533a3.253 3.253 0 0 1-2.49-1 3.584 3.584 0 0 1-.938-2.549v-.266a3.936 3.936 0 0 1 .889-2.653 2.951 2.951 0 0 1 2.375-1.038c.85-.051 1.68.272 2.272.885.567.662.858 1.516.81 2.386v1.067h-4.323v.039c.02.435.189.85.48 1.173.3.302.713.462 1.138.441.36.009.72-.036 1.067-.131.325-.104.639-.242.935-.413l.53 1.209c-.348.268-.74.471-1.16.6a4.978 4.978 0 0 1-1.585.25zm-.167-5.998a1.006 1.006 0 0 0-.854.412c-.232.32-.371.698-.402 1.092l.022.032h2.393v-.175a1.579 1.579 0 0 0-.292-.995 1.067 1.067 0 0 0-.867-.366zm8.128 3.868a.672.672 0 0 0-.31-.551 3.228 3.228 0 0 0-1.155-.42 4.65 4.65 0 0 1-1.935-.768 1.682 1.682 0 0 1-.65-1.397 1.995 1.995 0 0 1 .786-1.582 3.2 3.2 0 0 1 2.1-.654 3.46 3.46 0 0 1 2.202.65c.521.38.818.995.79 1.64v.035h-1.889a.953.953 0 0 0-.274-.711 1.12 1.12 0 0 0-.814-.274 1.141 1.141 0 0 0-.747.231.74.74 0 0 0-.27.58.658.658 0 0 0 .285.547c.355.202.746.33 1.152.38.708.105 1.383.37 1.973.776.43.343.67.872.647 1.422a1.899 1.899 0 0 1-.835 1.596 3.609 3.609 0 0 1-2.205.616 3.353 3.353 0 0 1-2.283-.73 2.048 2.048 0 0 1-.8-1.667v-.039h1.778c-.015.325.127.637.38.84.28.184.61.274.943.259.29.02.58-.054.825-.21a.686.686 0 0 0 .306-.569zm6.353 2.13a3.26 3.26 0 0 1-2.489-1 3.595 3.595 0 0 1-.935-2.549v-.266a3.95 3.95 0 0 1 .886-2.653 3.296 3.296 0 0 1 4.65-.153 3.4 3.4 0 0 1 .807 2.386v1.067h-4.33v.039a1.9 1.9 0 0 0 .476 1.173c.301.313.722.48 1.156.459.36.009.72-.036 1.066-.132.327-.104.642-.242.94-.412l.525 1.209c-.346.267-.738.47-1.155.6a4.978 4.978 0 0 1-1.597.232zm-.177-5.998a1.01 1.01 0 0 0-.854.412c-.226.322-.36.7-.387 1.092l.017.032h2.393v-.175a1.6 1.6 0 0 0-.288-.995 1.067 1.067 0 0 0-.881-.366zm6.538-3.144v1.778h1.216v1.373h-1.216v3.673a.871.871 0 0 0 .174.604.636.636 0 0 0 .484.2c.088.005.176.005.263 0a1.98 1.98 0 0 0 .256-.061l.17 1.422a4.924 4.924 0 0 1-.575.15 3.3 3.3 0 0 1-.608.045 2.073 2.073 0 0 1-1.554-.55 2.44 2.44 0 0 1-.548-1.778v-3.712h-1.066v-1.373h1.066v-1.778l1.938.007zm7.982 5.472v3.531h-1.952v-9.731h3.872a3.836 3.836 0 0 1 2.639.853 2.87 2.87 0 0 1 .963 2.254 2.844 2.844 0 0 1-.963 2.247 3.85 3.85 0 0 1-2.639.846h-1.92zm0-1.504h1.92c.456.034.905-.127 1.234-.444.286-.306.438-.713.423-1.13a1.643 1.643 0 0 0-.412-1.167 1.586 1.586 0 0 0-1.245-.451h-1.92v3.192zm11.222 3.993c-.203.36-.494.663-.846.879a2.524 2.524 0 0 1-2.973-.427 3.37 3.37 0 0 1-.643-2.276v-4.366h1.944v4.391c-.033.397.06.794.267 1.134a.94.94 0 0 0 .79.356c.274.008.546-.043.8-.15.218-.099.407-.252.55-.444v-5.287h1.953v7.232H70.92l-.174-1.042zm5.632-7.96v1.777h1.22v1.373h-1.22v3.673a.871.871 0 0 0 .174.604.636.636 0 0 0 .47.181 1.8 1.8 0 0 0 .262 0 2.02 2.02 0 0 0 .26-.06l.167 1.422a4.587 4.587 0 0 1-.576.15c-.2.034-.404.05-.608.046a2.08 2.08 0 0 1-1.554-.551 2.44 2.44 0 0 1-.544-1.778v-3.694h-1.066v-1.373h1.066v-1.778l1.949.007z" fill="#000" fill-rule="nonzero"/><path d="M44.17 155.022a1.751 1.751 0 1 1-2.398-2.553l40.078-37.65a1.751 1.751 0 0 1 1.612-.425l36.942 8.976 27.153-48.706a1.751 1.751 0 0 1 2.656-.488l34.96 29.378 34.693-1.918c.351-.02.7.068 1.001.25l35.42 21.361a1.751 1.751 0 0 1-1.808 3l-34.959-21.084-34.846 1.926a1.751 1.751 0 0 1-1.223-.408l-33.868-28.46-26.768 48.018a1.751 1.751 0 0 1-1.943.85l-37.315-9.067-39.387 37z" fill="#2A3052" fill-rule="nonzero"/><circle cx="8.161" cy="8.188" r="7.836" opacity=".6" transform="translate(247.222 115.222)" fill="#FFF"/><path d="M255.383 132.39a8.98 8.98 0 1 1 0-17.961 8.98 8.98 0 0 1 0 17.962zm0-2.288a6.692 6.692 0 1 0 0-13.384 6.692 6.692 0 0 0 0 13.384z" fill="#E88024" fill-rule="nonzero"/><circle cx="8.526" cy="8.228" r="7.836" opacity=".6" transform="translate(34.444 145.667)" fill="#FFF"/><path d="M42.97 162.876a8.98 8.98 0 1 1 0-17.962 8.98 8.98 0 0 1 0 17.962zm0-2.289a6.692 6.692 0 1 0 0-13.384 6.692 6.692 0 0 0 0 13.384z" fill="#E88024" fill-rule="nonzero"/><circle cx="8.026" cy="8.644" r="7.836" opacity=".6" transform="translate(140.556 68)" fill="#FFF"/><path d="M148.581 85.624a8.98 8.98 0 1 1 0-17.961 8.98 8.98 0 0 1 0 17.961zm0-2.288a6.692 6.692 0 1 0 0-13.385 6.692 6.692 0 0 0 0 13.385z" fill="#E88024" fill-rule="nonzero"/><path d="M258.65 147.92h-37.126l-5.28-7.898-5.28 7.9h-37.142a4.622 4.622 0 0 0-4.622 4.623v23.875a4.622 4.622 0 0 0 4.622 4.623h84.829a4.622 4.622 0 0 0 4.622-4.623v-23.879a4.622 4.622 0 0 0-4.622-4.622z" fill="#E88024"/><path d="M266.475 80.415h-2.36l-1.422 7.119h-1.055l1.422-7.119h-2.352l.17-.848h5.767l-.17.848zm2.263 7.119v-.445c0-.115.022-.23.04-.348a3.407 3.407 0 0 1-.84.645 1.952 1.952 0 0 1-.948.262 1.437 1.437 0 0 1-1.197-.485 1.511 1.511 0 0 1-.218-1.296c.09-.558.414-1.05.892-1.352a3.374 3.374 0 0 1 1.83-.452h1.011l.115-.585a1.011 1.011 0 0 0-.119-.84.93.93 0 0 0-.766-.286c-.3-.003-.592.091-.834.267a1.052 1.052 0 0 0-.444.633h-1v-.033c.099-.496.396-.929.822-1.2a2.8 2.8 0 0 1 1.696-.515 1.852 1.852 0 0 1 1.393.522c.36.403.483.965.326 1.482l-.57 2.848c-.045.204-.079.41-.1.618a3.011 3.011 0 0 0 0 .578l-1.09-.018h.001zm-1.4-.79c.318-.006.63-.096.903-.258.28-.146.524-.354.712-.608l.218-1.089h-1.044a1.574 1.574 0 0 0-.974.334 1.29 1.29 0 0 0-.515.766.74.74 0 0 0 .085.637.74.74 0 0 0 .622.219h-.007v-.001zm7.5-4.177l-.578-.037a1.144 1.144 0 0 0-.667.207 1.778 1.778 0 0 0-.526.578l-.844 4.219h-1.056l1.186-5.926h.944l-.067.796c.184-.268.42-.496.693-.67a1.58 1.58 0 0 1 .83-.234h.237a1.2 1.2 0 0 1 .188.045l-.34 1.022zm.318 2.007a4.9 4.9 0 0 1 .978-2.296 2.174 2.174 0 0 1 1.722-.774 1.79 1.79 0 0 1 .87.211c.257.143.47.353.615.608l.23-.712h.9l-1.167 5.845a3.078 3.078 0 0 1-.988 1.852 2.881 2.881 0 0 1-1.923.622 3.411 3.411 0 0 1-.83-.119 2.652 2.652 0 0 1-.74-.318l.43-.837c.18.123.38.213.592.267.241.066.49.1.74.1a1.53 1.53 0 0 0 1.112-.412 2.1 2.1 0 0 0 .581-1.148l.086-.403a2.16 2.16 0 0 1-1.5.596 1.578 1.578 0 0 1-1.448-.86 2.94 2.94 0 0 1-.245-2.103l-.015-.119zm1.037.112c-.139.499-.11 1.03.082 1.51a1 1 0 0 0 .996.575 1.21 1.21 0 0 0 .704-.223 2.2 2.2 0 0 0 .574-.63l.552-2.758a1.289 1.289 0 0 0-.437-.567 1.163 1.163 0 0 0-.715-.215c-.448 0-.866.225-1.111.6a3.933 3.933 0 0 0-.634 1.596l-.01.112h-.001zm6.96 2.962a1.922 1.922 0 0 1-1.69-.83 2.84 2.84 0 0 1-.37-2.132l.037-.241a3.74 3.74 0 0 1 1.037-2.13 2.526 2.526 0 0 1 1.793-.811 1.711 1.711 0 0 1 1.56.74c.329.583.43 1.267.284 1.92l-.11.677h-3.567a2.35 2.35 0 0 0 .166 1.437c.195.355.579.562.982.53.308.005.615-.05.903-.16.27-.097.52-.24.741-.422l.3.7a2.637 2.637 0 0 1-.852.522c-.388.145-.8.213-1.214.2zm.681-5.296c-.348.02-.67.188-.889.46a2.681 2.681 0 0 0-.615 1.136l.019.034h2.433l.022-.145c.078-.362.034-.74-.126-1.074a.881.881 0 0 0-.844-.41v-.001zm5.396-2.166l-.289 1.425h1.023l-.16.8h-1.022l-.718 3.593a.804.804 0 0 0 .03.604.47.47 0 0 0 .37.152c.101-.002.203-.01.303-.023.119 0 .211-.033.282-.051v.74c-.14.079-.293.133-.452.16-.19.043-.383.066-.578.066a1.04 1.04 0 0 1-.881-.407 1.519 1.519 0 0 1-.141-1.237l.719-3.593h-.852l.155-.8h.863l.293-1.426 1.055-.003zM80.283 58.187l-.024.984.03.006.363-.99 2.314-5.578h.996l.545 5.578.036 1.013.035.006.316-1.02 2.04-5.577h1.124l-3.258 8.53h-1.007l-.586-5.917-.024-.703-.03-.006-.24.709-2.507 5.918h-1.009l-.522-8.531H80l.282 5.578h.001zM91.21 61.14c0-.192.004-.349.012-.472s.022-.249.041-.378a3.632 3.632 0 0 1-.9.695 2.1 2.1 0 0 1-1.016.278c-.578 0-1.005-.173-1.28-.519-.275-.345-.353-.807-.232-1.385.125-.645.443-1.128.953-1.45.51-.323 1.163-.484 1.96-.484h1.084l.123-.627c.078-.394.035-.694-.13-.9-.163-.204-.437-.307-.82-.307-.328 0-.625.097-.89.29-.266.193-.424.419-.475.677h-1.072l-.012-.035c.078-.489.371-.917.88-1.286.507-.37 1.112-.554 1.815-.554.63 0 1.126.186 1.492.56.365.372.481.895.348 1.567l-.609 3.053c-.05.238-.086.458-.106.662a3.325 3.325 0 0 0 0 .615H91.21zm-1.5-.844c.317 0 .64-.092.967-.275.328-.184.582-.4.762-.65l.234-1.167h-1.119c-.386 0-.734.12-1.043.358-.308.238-.492.511-.55.82-.063.3-.034.528.087.683.121.154.342.231.662.231zm6.516-2.08h-.691l-.586 2.924h-1.132L95.645 52h1.13l-1.06 5.296h.686l2.033-2.496h1.313l.011.03-2.525 2.853 1.582 3.457h-1.33l-1.26-2.924h.001zm6.475-4.945l-.31 1.529h1.095l-.17.855h-1.096l-.767 3.85c-.067.316-.057.53.029.642.086.111.225.167.416.167.09 0 .198-.01.325-.027s.228-.036.302-.055l-.006.79a1.53 1.53 0 0 1-.483.174c-.203.044-.41.067-.618.067-.41 0-.726-.145-.947-.434-.22-.289-.27-.73-.15-1.324l.768-3.85h-.925l.17-.855h.925l.31-1.53h1.132v.001zm4.734 7.869l.1-.867a2.63 2.63 0 0 1-.853.738 2.207 2.207 0 0 1-1.046.252c-.605 0-1.053-.225-1.344-.674-.291-.45-.345-1.133-.162-2.05l.745-3.739h1.13l-.75 3.75c-.144.719-.152 1.194-.023 1.427.129.232.389.348.78.348.347 0 .662-.086.946-.257.29-.18.536-.425.717-.715l.909-4.553h1.13l-1.265 6.34h-1.014zm7.541-3.697l-.738 3.697h-1.137l1.705-8.526h2.9c.813 0 1.42.211 1.82.633.4.422.524 1.02.372 1.793-.098.473-.284.867-.56 1.184-.275.316-.64.566-1.092.75.382.16.642.412.779.756.137.343.158.756.064 1.236l-.158.803c-.058.281-.08.522-.064.723.015.202.076.37.181.507l-.029.14h-1.166c-.117-.132-.17-.325-.158-.58.012-.253.047-.52.105-.802l.159-.78c.097-.488.054-.865-.13-1.133-.183-.268-.48-.401-.89-.401h-1.963zm.182-.909h1.652c.547 0 .985-.128 1.316-.383.33-.256.545-.63.647-1.122.102-.508.055-.887-.14-1.137-.196-.25-.565-.375-1.108-.375h-1.764l-.603 3.017zm7.746 4.729c-.797 0-1.4-.296-1.808-.888-.408-.592-.538-1.352-.39-2.282l.042-.258c.148-.937.518-1.697 1.11-2.28.592-.581 1.231-.872 1.919-.872.777 0 1.334.26 1.67.78.336.519.437 1.204.304 2.056l-.117.72h-3.82c-.086.649-.026 1.165.179 1.547.205.383.555.575 1.051.575.64.004 1.26-.218 1.752-.627l.323.75a2.9 2.9 0 0 1-.914.556c-.371.149-.805.223-1.301.223zm.732-5.672c-.328 0-.645.164-.952.492a2.857 2.857 0 0 0-.66 1.219l.019.035h2.607l.023-.152c.075-.473.03-.857-.134-1.152-.164-.295-.465-.442-.903-.442zm6.475 3.867c.043-.262-.01-.472-.158-.633-.149-.16-.457-.3-.926-.421-.692-.168-1.198-.397-1.52-.686-.323-.29-.443-.68-.361-1.172.086-.535.361-.98.826-1.333.465-.353 1.03-.53 1.694-.53.664 0 1.175.191 1.535.574.36.383.488.842.386 1.377l-.017.035h-1.084a.92.92 0 0 0-.188-.753c-.172-.217-.43-.325-.773-.325-.352 0-.637.09-.856.272-.206.16-.343.391-.386.648-.043.262.003.46.137.598.135.136.44.263.917.38.723.172 1.243.406 1.559.7.316.296.436.691.357 1.187a2.02 2.02 0 0 1-.855 1.38c-.477.338-1.063.507-1.758.507-.726 0-1.281-.207-1.664-.621-.383-.414-.52-.89-.41-1.43l.012-.035h1.084c-.051.41.037.71.263.9.227.189.512.284.856.284.355 0 .655-.084.9-.252a.956.956 0 0 0 .43-.65v-.001zm4.693 1.805c-.797 0-1.4-.296-1.807-.888-.409-.592-.538-1.352-.39-2.282l.041-.258c.148-.937.519-1.697 1.11-2.28.592-.581 1.232-.872 1.92-.872.777 0 1.333.26 1.67.78.335.519.437 1.204.304 2.056l-.117.72h-3.82c-.087.649-.027 1.165.178 1.547.205.383.556.575 1.052.575.64.004 1.26-.218 1.752-.627l.322.75a2.9 2.9 0 0 1-.914.556c-.371.149-.805.223-1.3.223h-.001zm.733-5.672c-.328 0-.646.164-.952.492a2.857 2.857 0 0 0-.66 1.219l.018.035h2.607l.024-.152c.074-.473.03-.857-.135-1.152-.164-.295-.465-.442-.902-.442zm5.777-2.32l-.31 1.529h1.095l-.17.855h-1.095l-.768 3.85c-.066.316-.057.53.03.642.085.111.224.167.415.167.09 0 .198-.01.325-.027s.228-.036.302-.055l-.006.79a1.53 1.53 0 0 1-.483.174c-.203.044-.41.067-.618.067-.41 0-.726-.145-.946-.434-.221-.289-.271-.73-.15-1.324l.768-3.85h-.926l.17-.855h.926l.31-1.53h1.131v.001z" fill="#6D6E70" fill-rule="nonzero"/><path d="M20.846 163.075l3.398 8.664h.044l3.399-8.664h1.845v10.664H28.09v-4.219l.146-4.336-.037-.007-3.457 8.562h-.959l-3.442-8.54-.037.007.14 4.314v4.219H19v-10.664h1.846zm16.091 9.492a2.68 2.68 0 0 1-.96.981c-.39.23-.842.345-1.354.345-.864 0-1.538-.276-2.022-.828-.483-.552-.725-1.411-.725-2.578v-4.673h1.443v4.687c0 .845.125 1.426.374 1.744.249.317.637.476 1.164.476.513 0 .936-.104 1.27-.312.335-.207.588-.501.759-.882v-5.713h1.443v7.925h-1.297l-.095-1.172zm5.054 1.172h-1.443v-11.426h1.443v11.426zm7.09 0c-.049-.24-.087-.45-.114-.634a4.65 4.65 0 0 1-.047-.553c-.269.381-.62.7-1.051.956a2.688 2.688 0 0 1-1.396.385c-.825 0-1.453-.212-1.886-.634-.432-.422-.648-1.005-.648-1.747 0-.757.307-1.349.92-1.776.612-.427 1.443-.64 2.493-.64h1.568v-.784c0-.464-.142-.832-.425-1.103-.283-.27-.684-.406-1.201-.406-.464 0-.841.118-1.132.355-.29.237-.436.521-.436.853h-1.377l-.014-.044c-.03-.576.243-1.103.816-1.582.574-.478 1.315-.718 2.223-.718.899 0 1.621.229 2.168.685.547.457.82 1.115.82 1.974v3.816c0 .283.015.557.044.82.03.264.083.523.162.777h-1.487zm-2.395-1.055c.522 0 .993-.134 1.413-.403.42-.268.694-.576.82-.923v-1.289h-1.618c-.581 0-1.046.147-1.395.44-.35.293-.524.637-.524 1.033 0 .351.11.63.33.834.22.206.544.308.974.308zm7.331 1.055h-1.443v-7.925h1.443v7.925zm0-9.954h-1.443v-1.472h1.443v1.472zm208.997-25.689c0-.358-.134-.658-.402-.9-.269-.241-.745-.445-1.43-.61-.826-.196-1.472-.486-1.935-.87-.464-.383-.696-.864-.696-1.444 0-.609.25-1.117.75-1.526.499-.408 1.146-.612 1.941-.612.856 0 1.537.235 2.044.704.506.469.75 1.013.733 1.633l-.01.032h-1.01c0-.459-.152-.83-.455-1.112-.302-.283-.736-.424-1.302-.424-.526 0-.93.119-1.211.357a1.163 1.163 0 0 0-.422.932c0 .34.152.624.457.851.304.227.798.427 1.482.599.824.204 1.45.505 1.88.902.43.398.645.89.645 1.477 0 .63-.258 1.137-.774 1.52s-1.189.575-2.02.575c-.78 0-1.47-.211-2.07-.634-.6-.422-.89-.988-.873-1.697l.011-.032h1.01c0 .501.184.882.553 1.144.369.261.825.392 1.37.392.533 0 .956-.113 1.267-.339.312-.225.467-.531.467-.918zm4.813 2.084c-.81 0-1.453-.27-1.931-.808-.478-.54-.717-1.238-.717-2.098v-.236c0-.827.246-1.516.739-2.065.492-.55 1.075-.825 1.748-.825.784 0 1.377.237 1.778.71.4.472.601 1.102.601 1.89v.66h-3.77l-.016.027c.01.559.152 1.018.424 1.378.272.36.653.54 1.144.54.358 0 .672-.051.943-.153.27-.102.504-.243.7-.422l.414.688a2.458 2.458 0 0 1-.822.51c-.34.136-.752.204-1.235.204zm-.161-5.2c-.355 0-.657.15-.908.45-.25.298-.405.673-.462 1.125l.01.026h2.681v-.14c0-.415-.11-.762-.333-1.041-.222-.28-.551-.42-.988-.42zm4.71 5.087h-1.058v-8.379h1.058v8.38-.001zm4.04.113c-.81 0-1.454-.27-1.932-.808-.478-.54-.717-1.238-.717-2.098v-.236c0-.827.247-1.516.739-2.065.492-.55 1.075-.825 1.748-.825.784 0 1.377.237 1.778.71.401.472.602 1.102.602 1.89v.66h-3.77l-.017.027c.01.559.152 1.018.424 1.378.272.36.654.54 1.144.54.358 0 .673-.051.943-.153.27-.102.504-.243.7-.422l.414.688a2.458 2.458 0 0 1-.821.51c-.34.136-.752.204-1.236.204h.001zm-.162-5.2c-.354 0-.657.15-.908.45-.25.298-.404.673-.461 1.125l.01.026h2.68v-.14c0-.415-.11-.762-.333-1.041-.222-.28-.55-.42-.988-.42zm6.945 3.546a.72.72 0 0 0-.266-.575c-.177-.15-.513-.281-1.007-.392-.705-.154-1.236-.363-1.592-.626-.357-.263-.535-.622-.535-1.077 0-.472.2-.875.602-1.208.4-.333.924-.5 1.568-.5.677 0 1.215.174 1.614.521.4.348.59.77.572 1.268l-.01.032h-1.01c0-.254-.107-.482-.32-.685-.213-.202-.495-.303-.846-.303-.376 0-.655.082-.838.247a.775.775 0 0 0-.274.596c0 .23.08.41.242.543.161.132.489.25.983.354.734.158 1.28.372 1.638.642.358.27.537.633.537 1.088 0 .515-.208.932-.626 1.251-.417.319-.962.478-1.635.478-.741 0-1.325-.188-1.751-.564-.426-.376-.628-.815-.607-1.316l.01-.032h1.01c.018.376.158.65.42.824.26.174.567.26.918.26.376 0 .67-.075.883-.227a.704.704 0 0 0 .32-.6v.001zm5.946 1.541a8.598 8.598 0 0 1-.083-.464 3.41 3.41 0 0 1-.035-.406 2.46 2.46 0 0 1-.771.701 1.971 1.971 0 0 1-1.023.282c-.605 0-1.066-.155-1.383-.465-.317-.31-.476-.736-.476-1.28 0-.556.225-.99.674-1.303.45-.313 1.06-.47 1.83-.47h1.149v-.575c0-.34-.104-.61-.312-.808-.208-.199-.501-.298-.88-.298-.34 0-.617.087-.83.26-.214.174-.32.383-.32.626h-1.01l-.01-.032c-.022-.423.177-.81.598-1.16.421-.351.964-.527 1.63-.527.66 0 1.19.168 1.59.502.401.335.602.818.602 1.448v2.798c0 .208.01.409.032.602.021.193.06.383.118.57h-1.09v-.001zm-1.757-.773c.384 0 .73-.099 1.037-.296.308-.197.509-.422.602-.676v-.946h-1.187c-.426 0-.768.108-1.024.323-.256.214-.384.467-.384.757 0 .258.081.462.242.612.161.15.4.226.714.226zm5.377.773h-1.058v-5.811h1.058v5.811zm0-7.3h-1.058v-1.079h1.058v1.08-.001z" fill="#2A3052" fill-rule="nonzero"/><path d="M189.298 166.186v5.672h-3.136v-15.64h6.23c1.798 0 3.212.457 4.243 1.374 1.032.917 1.547 2.123 1.547 3.62 0 1.497-.515 2.7-1.547 3.61-1.031.91-2.445 1.364-4.243 1.364h-3.094zm0-2.417h3.094c.874 0 1.536-.238 1.987-.714.452-.477.677-1.084.677-1.821 0-.752-.224-1.373-.671-1.864-.448-.49-1.112-.736-1.993-.736h-3.094v5.135zm17.048-.838l-1.15-.032c-.465 0-.848.096-1.149.29-.3.193-.53.465-.687.816v7.853h-3.126v-11.623h2.911l.14 1.718c.272-.608.625-1.083 1.058-1.423.433-.34.933-.51 1.498-.51.158 0 .303.012.435.037.133.026.267.056.403.092l-.333 2.782zm1.107 3.008c0-1.733.483-3.153 1.45-4.26.967-1.106 2.306-1.66 4.017-1.66 1.72 0 3.066.552 4.04 1.655.973 1.103 1.46 2.525 1.46 4.265v.225c0 1.748-.485 3.171-1.455 4.27-.97 1.1-2.311 1.65-4.023 1.65-1.719 0-3.063-.55-4.034-1.65-.97-1.099-1.455-2.522-1.455-4.27v-.225zm3.126.225c0 1.06.186 1.91.558 2.552.373.64.974.961 1.805.961.81 0 1.402-.322 1.778-.967.376-.644.564-1.493.564-2.546v-.225c0-1.031-.19-1.873-.57-2.525-.38-.651-.977-.977-1.794-.977-.809 0-1.401.327-1.777.983-.376.655-.564 1.495-.564 2.519v.225zm10.516 5.694v-9.421h-1.73v-2.202h1.73v-.795c0-1.461.446-2.587 1.338-3.379.891-.791 2.146-1.187 3.765-1.187.558 0 1.11.056 1.654.167.544.11 1.175.27 1.89.478l-.45 2.47a16.074 16.074 0 0 0-1.424-.365 7.47 7.47 0 0 0-1.466-.129c-.723 0-1.266.165-1.628.495-.361.329-.542.812-.542 1.45v.795h2.288v2.202h-2.288v9.42h-3.137v.001zm10.098 0h-3.137v-11.623h3.137v11.623zm6.306-14.47v2.847h1.955v2.202h-1.955v5.919c0 .451.093.773.279.967.186.193.437.29.752.29a3 3 0 0 0 .424-.027c.118-.018.256-.049.414-.092l.268 2.267a5.567 5.567 0 0 1-1.901.322c-1.082 0-1.914-.297-2.498-.891-.583-.595-.875-1.536-.875-2.825v-5.93h-1.697v-2.202h1.697v-2.847h3.137zm7.326 9.077h-3.137v-10.248h3.137v10.248zm0 5.393h-3.137v-2.75h3.137v2.75z" fill="#FFF" fill-rule="nonzero"/></g></svg>