<svg width="299" height="197" xmlns="http://www.w3.org/2000/svg"><g fill="none" fill-rule="evenodd"><path fill="#F1F2F2" d="M0 0h299v197H0z"/><path d="M1.987 1.98v193.04h295.026V1.98H1.987zM299 0v197H0V0h299z" fill="#C2C2C2" fill-rule="nonzero"/><path d="M4.887 56.446v-1.207h289.656v1.207H4.887zm0 40.534v-1.207h289.656v1.207H4.887zm0 40.534v-1.207h289.656v1.207H4.887zm0 40.496v-1.207h289.656v1.207H4.887zm34.38-142.416h1.206v159.67h-1.206V35.594zm36.664 0h1.207v159.67h-1.207V35.594zm36.628 0h1.207v159.67h-1.207V35.594zm36.665 0h1.207v159.67h-1.207V35.594zm36.627 0h1.207v159.67h-1.207V35.594zm36.628 0h1.207v159.67h-1.207V35.594zM4.887 117.228v-1.207h289.656v1.207H4.887z" fill="#DFDEDE" fill-rule="nonzero"/><path d="M259.144 35.594h1.207v159.67h-1.207V35.594zM4.887 76.731v-1.206h289.656v1.206H4.887zm0 81.03v-1.206h289.656v1.207H4.887z" fill="#2A3052" fill-rule="nonzero"/><path fill="#C2C2C2" fill-rule="nonzero" d="M2.794 35.606V33.19h293.842v2.415z"/><path d="M16.51 21.062a1.296 1.296 0 0 0-.41-.972 3.533 3.533 0 0 0-1.458-.672 8.721 8.721 0 0 1-2.766-1.27 2.383 2.383 0 0 1-.934-2.018 2.551 2.551 0 0 1 1.084-2.092 4.55 4.55 0 0 1 2.728-.822 4 4 0 0 1 2.728.897 2.652 2.652 0 0 1 1.01 2.241v.038H16.51a1.445 1.445 0 0 0-.486-1.158 1.828 1.828 0 0 0-1.346-.449 1.847 1.847 0 0 0-1.27.374c-.286.226-.45.57-.449.934a.997.997 0 0 0 .486.86 7.3 7.3 0 0 0 1.644.709c.94.238 1.818.67 2.58 1.27.585.517.902 1.274.859 2.055.033.83-.362 1.62-1.047 2.092-.8.552-1.757.827-2.728.784a5.062 5.062 0 0 1-2.915-.859 2.7 2.7 0 0 1-1.196-2.428v-.038h1.98a1.53 1.53 0 0 0 .561 1.345 2.7 2.7 0 0 0 1.57.449 2.06 2.06 0 0 0 1.27-.337c.314-.205.498-.559.487-.933zm5.868-6.874v1.867h1.271v1.457h-1.27v3.923a.919.919 0 0 0 .186.635.71.71 0 0 0 .486.187h.262a.95.95 0 0 0 .262-.075l.186 1.495a4.651 4.651 0 0 1-.598.149c-.21.032-.423.045-.635.037a2.176 2.176 0 0 1-1.644-.597 2.398 2.398 0 0 1-.561-1.83v-3.924h-1.121v-1.457h1.12v-1.867h2.056zm7.064 9.563c-.074-.186-.15-.336-.224-.56l-.112-.598c-.212.36-.491.678-.822.934a1.937 1.937 0 0 1-1.234.374 2.53 2.53 0 0 1-1.831-.635 2.144 2.144 0 0 1-.635-1.681 2.077 2.077 0 0 1 .86-1.756 4.262 4.262 0 0 1 2.503-.635h1.159v-.598a1.046 1.046 0 0 0-1.159-1.158 1.054 1.054 0 0 0-.784.261.848.848 0 0 0-.262.673H24.92v-.038a2.043 2.043 0 0 1 .822-1.68 3.567 3.567 0 0 1 2.317-.71 3.26 3.26 0 0 1 2.206.71c.575.492.892 1.222.86 1.98v3.175c.003.337.028.674.074 1.008.052.32.14.634.262.934h-2.019zm-1.906-1.382c.343.011.681-.08.972-.261.262-.132.463-.36.56-.636V20.39H27.91a1.372 1.372 0 0 0-1.01.336 1.076 1.076 0 0 0-.335.785c-.01.24.085.472.261.635.208.146.456.224.71.224zm7.774-1.83l.075.41h.037l1.458-4.894h2.205L36.02 24.91a4.584 4.584 0 0 1-.86 1.383 2.284 2.284 0 0 1-1.681.56 1.974 1.974 0 0 1-.486-.037c-.15-.038-.336-.075-.523-.112l.224-1.532a.337.337 0 0 1 .187.037h.187c.286.024.57-.07.785-.261.199-.165.342-.386.41-.635l.262-.56-2.69-7.697h2.204l1.271 4.483zm8.746 1.083a.77.77 0 0 0-.336-.598 4.471 4.471 0 0 0-1.196-.448 4.628 4.628 0 0 1-2.019-.822 1.83 1.83 0 0 1-.672-1.494 2.054 2.054 0 0 1 .822-1.682 3.39 3.39 0 0 1 2.205-.71 3.638 3.638 0 0 1 2.317.673c.552.41.861 1.07.822 1.756v.037h-1.98a1.046 1.046 0 0 0-.3-.747 1.196 1.196 0 0 0-.859-.299 1.054 1.054 0 0 0-.785.262.78.78 0 0 0 0 1.233 3 3 0 0 0 1.196.41 5.54 5.54 0 0 1 2.093.822c.475.36.73.94.673 1.532a2.04 2.04 0 0 1-.86 1.681 3.713 3.713 0 0 1-2.317.673 3.48 3.48 0 0 1-2.392-.785 2.279 2.279 0 0 1-.86-1.756v-.037h1.87c-.024.349.13.686.41.897.3.19.654.282 1.01.261.303.022.605-.057.859-.224a.8.8 0 0 0 .299-.635zm7.027 2.13v-10.35h3.438a4.718 4.718 0 0 1 2.803.71 2.462 2.462 0 0 1 1.01 2.13 2.13 2.13 0 0 1-.375 1.27 2.283 2.283 0 0 1-1.083.859 2.22 2.22 0 0 1 1.383.859c.303.452.46.987.448 1.532a2.65 2.65 0 0 1-.972 2.241 4.236 4.236 0 0 1-2.728.785h-3.924v-.038zm2.055-6.015h1.495a2.06 2.06 0 0 0 1.27-.337 1.18 1.18 0 0 0 .45-1.008 1.206 1.206 0 0 0-.45-1.046 2.232 2.232 0 0 0-1.345-.337h-1.42v2.728zm0 1.457v2.988h1.906c.445.044.888-.09 1.234-.373.297-.263.45-.652.41-1.046a1.382 1.382 0 0 0-1.532-1.57h-2.018zm10.39 4.707a3.383 3.383 0 0 1-2.616-1.084 3.727 3.727 0 0 1-.972-2.69v-.298a4.198 4.198 0 0 1 .935-2.84 2.976 2.976 0 0 1 2.504-1.083 3.047 3.047 0 0 1 2.392.934c.597.708.904 1.615.86 2.54v1.121h-4.523v.037c.021.454.192.887.486 1.233.307.331.745.51 1.196.486.38.016.76-.035 1.121-.15.347-.093.676-.245.972-.448l.56 1.27c-.359.3-.78.517-1.233.636a3.57 3.57 0 0 1-1.682.336zm-.186-6.389a1.065 1.065 0 0 0-.898.449c-.247.337-.39.74-.41 1.158l.037.037h2.504v-.187a1.737 1.737 0 0 0-.3-1.046 1.11 1.11 0 0 0-.934-.41zm6.877-3.324v1.867h1.27v1.457h-1.27v3.923a.919.919 0 0 0 .186.635.71.71 0 0 0 .486.187h.262a.95.95 0 0 0 .261-.075l.187 1.495a4.651 4.651 0 0 1-.598.149c-.21.032-.423.045-.635.037a2.176 2.176 0 0 1-1.644-.597 2.398 2.398 0 0 1-.561-1.83v-3.924h-1.121v-1.457h1.12v-1.867h2.056zm9.194 6.799h.037l1.01-4.932h1.943l-1.944 7.696H78.74l-1.42-4.595h-.038l-1.42 4.595h-1.72L72.2 16.055h1.944l1.009 4.932h.037l1.42-4.932h1.384l1.42 4.932zm7.363 2.914a3.383 3.383 0 0 1-2.617-1.084 3.727 3.727 0 0 1-.971-2.69v-.298a4.198 4.198 0 0 1 .934-2.84 2.976 2.976 0 0 1 2.504-1.083 3.047 3.047 0 0 1 2.392.934c.597.708.905 1.615.86 2.54v1.121h-4.56v.037c.021.454.192.887.486 1.233.307.331.745.51 1.196.486a3.25 3.25 0 0 0 1.121-.15c.347-.093.676-.245.972-.448l.56 1.27c-.359.3-.78.517-1.233.636a3.421 3.421 0 0 1-1.644.336zm-.187-6.389a1.065 1.065 0 0 0-.897.449c-.247.337-.39.74-.411 1.158l.037.037h2.504v-.187a1.737 1.737 0 0 0-.299-1.046 1.11 1.11 0 0 0-.934-.41zm7.774 6.389a3.383 3.383 0 0 1-2.617-1.084 3.895 3.895 0 0 1-.971-2.69v-.298a4.198 4.198 0 0 1 .934-2.84 2.976 2.976 0 0 1 2.504-1.083 3.047 3.047 0 0 1 2.392.934 3.66 3.66 0 0 1 .86 2.54v1.121h-4.523v.037c.005.457.178.896.486 1.233.307.331.745.51 1.196.486.38.016.76-.035 1.122-.15.347-.093.675-.245.971-.448l.561 1.27c-.36.3-.78.517-1.233.636a3.477 3.477 0 0 1-1.682.336zm-.15-6.389a1.065 1.065 0 0 0-.897.449c-.247.337-.39.74-.41 1.158l.036.037h2.505v-.187a1.737 1.737 0 0 0-.3-1.046 1.11 1.11 0 0 0-.934-.41zm6.28-1.457l.074 1.084a2.79 2.79 0 0 1 .934-.934c.373-.224.8-.34 1.234-.336a2.232 2.232 0 0 1 1.794.747 3.57 3.57 0 0 1 .635 2.316v4.82h-2.055v-4.82a1.565 1.565 0 0 0-.3-1.083 1.245 1.245 0 0 0-.934-.337 1.675 1.675 0 0 0-.747.15 1.388 1.388 0 0 0-.561.486v5.603h-2.056v-7.696h1.981z" fill="#000" fill-rule="nonzero"/><path d="M81.26 98.438l-40.596 19.814a1.81 1.81 0 1 1-1.588-3.254l41.486-20.249a1.81 1.81 0 0 1 1.736.08l38.373 23.362 27.773-27.4a1.81 1.81 0 0 1 2.444-.09l35.648 30.304 35.474-26.087a1.81 1.81 0 0 1 1.546-.29l36.665 9.938a1.81 1.81 0 0 1-.947 3.495l-35.823-9.709-35.924 26.418a1.81 1.81 0 0 1-2.245-.079l-35.476-30.157-27.598 27.227a1.81 1.81 0 0 1-2.213.258L81.26 98.438z" fill="#2A3052" fill-rule="nonzero"/><path d="M187.987 147.445h-34.945l-5.382-8.181-5.382 8.181h-34.946a4.733 4.733 0 0 0-4.71 4.782v24.694a4.753 4.753 0 0 0 4.71 4.782h80.692a4.733 4.733 0 0 0 4.71-4.782v-24.694a4.758 4.758 0 0 0-4.747-4.782z" fill="#E88024"/><ellipse cx="8.335" cy="8.564" rx="8.11" ry="8.443" opacity=".6" transform="translate(251.412 99.132)" fill="#FFF"/><path d="M259.747 117.346c-5.157 0-9.317-4.331-9.317-9.65 0-5.32 4.16-9.65 9.317-9.65s9.318 4.33 9.318 9.65c0 5.319-4.16 9.65-9.318 9.65zm0-2.414c3.802 0 6.903-3.23 6.903-7.236 0-4.007-3.101-7.236-6.903-7.236-3.801 0-6.903 3.229-6.903 7.236s3.102 7.236 6.903 7.236z" fill="#E88024" fill-rule="nonzero"/><ellipse cx="8.97" cy="9.021" rx="8.11" ry="8.443" opacity=".6" transform="translate(30.9 107.604)" fill="#FFF"/><path d="M39.87 126.275c-5.157 0-9.317-4.332-9.317-9.65 0-5.32 4.16-9.65 9.317-9.65s9.317 4.33 9.317 9.65c0 5.318-4.16 9.65-9.317 9.65zm0-2.414c3.802 0 6.903-3.23 6.903-7.236 0-4.007-3.101-7.236-6.903-7.236-3.802 0-6.903 3.229-6.903 7.236 0 4.006 3.101 7.236 6.903 7.236z" fill="#E88024" fill-rule="nonzero"/><path d="M171.408 167.054h-2.492v-8.243h2.492v8.243zm0 4.338h-2.492v-2.215h2.492v2.215zm-29.117-10.476c2.886 0 4.451 1.76 4.847 4.396.396 2.636-1.027 6.36-4.644 6.36s-4.787-2.75-4.787-5.597c0-2.846 1.697-5.159 4.584-5.159zm.026 1.847c-.858.081-2.379.682-2.29 3.528.089 2.846 1.333 3.514 2.29 3.514.956 0 2.569-.265 2.569-3.502 0-3.237-1.711-3.62-2.57-3.54h.001zm-5.219-1.779c-.095.894-.199 1.63-.311 2.206-1.125-.073-2.293-.18-2.804 1.135l.014 7.072h-2.315v-10.33h2.06c.098.689.16 1.192.184 1.507.711-1.329 1.769-1.859 3.172-1.59zm-14.885 10.413h-2.357v-13.81h6.071c1.902 0 4.504 1.586 4.22 4.73-.19 2.097-1.597 3.369-4.22 3.816h-3.714v5.264zm.01-7.096h3.117c.768 0 2.486-.533 2.486-2.512s-1.702-2.433-2.486-2.406c-.524.018-1.562.009-3.116-.027v4.945h-.001zm32.42-7.824c-.108.55-.164 1.098-.249 1.798-.358-.08-2.366-.588-2.415 1.59v1.201h1.912v1.667h-1.913l.049 8.664h-2.392v-8.664h-1.506v-1.667h1.595c-.164-2.127.266-3.524 1.29-4.19 1.538-1 3.052-.586 3.628-.4l.001.001zm1.733 4.613h2.314v10.252h-2.314V161.09zm.045-4.529v1.96h2.303v-1.96h-2.303zm8.601 2.03v2.55h1.785v1.69h-1.785v6.112c0 1.234 1.563.825 1.665.774l.273 1.632c-.153.102-3.875 1.426-4.272-2.406v-6.112h-1.535v-1.69h1.535v-2.55h2.334z" fill="#FFF" fill-rule="nonzero"/><path d="M20.594 60.484h-2.75l-1.117 7.453h-1.129l1.117-7.454H14l.132-.888h6.594l-.132.888v.001zm3.076 7.453a15.18 15.18 0 0 1-.011-.519c0-.132.007-.266.023-.404a3.347 3.347 0 0 1-.937.742c-.369.2-.746.3-1.131.3-.623 0-1.084-.166-1.384-.5-.3-.335-.406-.788-.318-1.361.07-.585.41-1.104.917-1.404.523-.324 1.2-.486 2.033-.486h1.226l.092-.613c.057-.379-.009-.67-.198-.874-.189-.204-.487-.307-.896-.307-.348 0-.653.092-.917.275-.263.184-.412.403-.447.66l-1.077.01-.005-.034c.045-.47.319-.887.819-1.251.5-.365 1.107-.548 1.822-.548.676 0 1.207.18 1.592.542.386.36.531.873.436 1.538l-.447 2.985c-.038.233-.06.45-.066.65-.006.2.007.4.037.599H23.67zm-1.747-.825c.39 0 .768-.107 1.134-.321.367-.214.62-.455.762-.722l.155-1.003h-1.266c-.44 0-.818.117-1.135.35-.317.233-.496.5-.538.802-.046.286.005.507.152.662.147.154.392.232.736.232zm8.1-4.377l-.572-.035c-.294 0-.554.074-.78.221-.237.16-.433.373-.572.622l-.66 4.394h-1.128l.928-6.199h1.009l-.023.876c.221-.313.473-.556.756-.73.35-.215.765-.3 1.171-.24.079.013.14.027.187.042l-.315 1.049h-.001zm.533 2.217c.153-1.035.485-1.849.997-2.44.512-.593 1.154-.889 1.925-.889.386 0 .716.083.991.247.275.164.493.4.653.71l.264-.842h.9l-.935 6.233c-.126.825-.447 1.443-.965 1.853-.517.41-1.217.616-2.1.616-.286 0-.6-.042-.94-.126a3.396 3.396 0 0 1-.87-.332l.304-.877c.202.115.451.208.747.278.296.07.593.106.891.106.527 0 .94-.127 1.24-.38.3-.255.488-.634.565-1.138l.103-.705c-.24.26-.513.457-.816.59-.304.134-.64.2-1.006.2-.726 0-1.268-.276-1.627-.83-.359-.554-.472-1.272-.338-2.154l.017-.12zm1.112.12c-.1.646-.049 1.152.152 1.518.2.367.57.55 1.108.55.329 0 .62-.079.877-.237.255-.159.48-.381.676-.668l.43-2.836a1.472 1.472 0 0 0-.48-.627c-.207-.155-.476-.232-.804-.232-.516 0-.942.227-1.28.682-.338.454-.559 1.03-.662 1.73l-.017.12zm7.86 2.985c-.856 0-1.498-.288-1.928-.865-.43-.577-.576-1.322-.438-2.234l.04-.252c.133-.925.497-1.67 1.091-2.235s1.267-.848 2.02-.848c.798 0 1.373.262 1.724.785s.464 1.205.338 2.045l-.086.596h-4.01c-.088.657-.023 1.176.195 1.556.217.38.613.57 1.185.57.367 0 .708-.056 1.023-.166a2.69 2.69 0 0 0 .816-.447l.333.733c-.286.233-.61.416-.957.541-.386.147-.834.22-1.346.22v.001zm.653-5.546c-.378 0-.721.153-1.029.459-.317.322-.544.72-.661 1.157l.011.034h2.79l.012-.091c.068-.463.015-.838-.16-1.126-.176-.288-.497-.433-.963-.433zm5.66-2.268l-.223 1.495h1.174l-.126.836h-1.175l-.56 3.764c-.047.302-.02.51.082.622.101.113.253.169.456.169.146-.006.291-.033.43-.08l.04.773c-.122.08-.257.137-.399.169-.17.044-.335.066-.495.066-.443 0-.784-.14-1.023-.418-.239-.28-.312-.713-.22-1.3l.56-3.765h-.984l.126-.836h.985l.223-1.495h1.129zm11.251.24h-2.75l-1.117 7.454h-1.127l1.117-7.454H50.5l.131-.888h6.594l-.132.888h-.001zm1.135 7.454h-1.129l.928-6.199h1.129l-.928 6.199zm1.168-7.786h-1.127L58.44 59h1.128l-.172 1.151h-.001zm2.452 2.475c.253-.32.548-.568.886-.742a2.37 2.37 0 0 1 1.102-.26c.646 0 1.128.197 1.447.592.319.396.417.998.295 1.808l-.584 3.913h-1.129l.584-3.89c.084-.566.037-.958-.143-1.178-.18-.22-.494-.329-.945-.329-.336 0-.638.074-.905.22a2.01 2.01 0 0 0-.676.61l-.688 4.567h-1.128l.928-6.199h1.008l-.052.888zm5.03 2.326c.153-1.035.485-1.849.997-2.44.512-.593 1.154-.889 1.925-.889.386 0 .716.083.991.247.275.164.493.4.653.71l.264-.842h.9l-.935 6.233c-.126.825-.447 1.443-.965 1.853-.517.41-1.217.616-2.1.616-.286 0-.6-.042-.939-.126a3.396 3.396 0 0 1-.87-.332l.303-.877c.202.115.451.208.747.278.296.07.593.106.891.106.527 0 .94-.127 1.24-.38.3-.255.489-.634.565-1.138l.103-.705c-.24.26-.513.457-.816.59-.304.134-.64.2-1.006.2-.725 0-1.268-.276-1.627-.83-.359-.554-.471-1.272-.338-2.154l.017-.12zm1.112.12c-.1.646-.049 1.152.152 1.518.2.367.57.55 1.108.55.329 0 .62-.079.877-.237.256-.159.48-.381.676-.668l.43-2.836a1.472 1.472 0 0 0-.479-.627c-.208-.155-.476-.232-.805-.232-.516 0-.942.227-1.28.682-.338.454-.559 1.03-.662 1.73l-.017.12zm5.557-.12c.153-1.035.485-1.849.997-2.44.511-.593 1.153-.889 1.925-.889.385 0 .716.083.99.247.276.164.493.4.654.71l.263-.842h.9l-.934 6.233c-.126.825-.448 1.443-.965 1.853-.518.41-1.218.616-2.1.616-.287 0-.6-.042-.94-.126a3.396 3.396 0 0 1-.87-.332l.303-.877c.203.115.452.208.748.278.296.07.593.106.89.106.528 0 .941-.127 1.241-.38.3-.255.488-.634.564-1.138l.103-.705c-.24.26-.512.457-.816.59-.304.134-.639.2-1.005.2-.726 0-1.268-.276-1.627-.83-.36-.554-.472-1.272-.338-2.154l.017-.12zm1.111.12c-.1.646-.048 1.152.152 1.518.2.367.57.55 1.109.55.328 0 .62-.079.876-.237a2.27 2.27 0 0 0 .676-.668l.43-2.836a1.472 1.472 0 0 0-.479-.627c-.208-.155-.476-.232-.805-.232-.515 0-.942.227-1.28.682-.338.454-.558 1.03-.662 1.73l-.017.12zm6.531 2.865H80.06l.928-6.199h1.128l-.928 6.199zm1.169-7.786h-1.129L81.4 59h1.129l-.172 1.151zm-61.65 105.045H17.91l-1.137 7.58h-1.147l1.136-7.58H14l.134-.903h6.707l-.134.903zm3.129 7.58a15.44 15.44 0 0 1-.012-.527c0-.134.008-.27.023-.41-.26.299-.577.55-.952.754a2.381 2.381 0 0 1-1.151.306c-.633 0-1.102-.17-1.407-.51-.305-.34-.413-.801-.324-1.384.09-.621.4-1.097.933-1.427.532-.33 1.221-.496 2.068-.496h1.247l.093-.623c.059-.385-.008-.681-.2-.889-.193-.208-.497-.312-.913-.312-.353 0-.664.094-.932.28-.268.187-.42.41-.454.67l-1.096.012-.006-.035c.047-.478.325-.902.833-1.273.51-.371 1.127-.557 1.853-.557.688 0 1.228.184 1.62.55.393.368.54.89.443 1.565l-.454 3.036a4.9 4.9 0 0 0-.067.662c-.006.204.006.407.038.609h-1.183v-.001zm-1.778-.839c.397 0 .781-.108 1.154-.326.373-.217.631-.462.775-.734l.158-1.02h-1.288c-.447 0-.832.119-1.154.356-.322.237-.505.509-.548.815-.046.292.005.516.155.673.15.158.399.236.748.236zm8.24-4.451l-.583-.035c-.3 0-.563.075-.792.224-.23.15-.424.36-.583.632l-.67 4.47h-1.148l.944-6.305h1.025l-.023.891a2.65 2.65 0 0 1 .77-.743 1.778 1.778 0 0 1 1.19-.244c.08.013.144.028.19.043l-.32 1.067zm.542 2.255c.155-1.053.493-1.88 1.014-2.483.52-.602 1.173-.903 1.957-.903.393 0 .729.084 1.008.25.28.168.502.409.665.723l.268-.856h.915l-.95 6.34c-.128.839-.456 1.467-.982 1.885-.526.417-1.238.626-2.136.626a4.02 4.02 0 0 1-.955-.128 3.455 3.455 0 0 1-.886-.338l.309-.892c.206.117.46.211.76.283.301.072.603.108.906.108.536 0 .957-.13 1.262-.388.305-.258.496-.644.574-1.156l.105-.717a2.5 2.5 0 0 1-.83.6 2.51 2.51 0 0 1-1.023.204c-.738 0-1.29-.282-1.655-.845s-.48-1.294-.344-2.19l.018-.123zm1.13.122c-.1.657-.05 1.171.154 1.544.204.373.58.56 1.128.56.334 0 .631-.081.891-.242.26-.161.49-.388.688-.679l.437-2.884a1.497 1.497 0 0 0-.486-.638c-.212-.158-.485-.236-.82-.236-.524 0-.958.23-1.301.693-.344.462-.569 1.049-.673 1.76l-.018.122zm7.995 3.036c-.87 0-1.524-.293-1.961-.88-.437-.587-.586-1.344-.446-2.272l.04-.257c.137-.94.507-1.697 1.11-2.272.605-.575 1.29-.863 2.055-.863.812 0 1.396.266 1.754.799.357.532.472 1.225.344 2.08l-.088.606h-4.079c-.089.668-.023 1.195.198 1.582.222.386.624.58 1.207.58.373 0 .72-.057 1.04-.17a2.73 2.73 0 0 0 .83-.454l.338.746c-.256.217-.58.401-.973.55-.392.15-.849.225-1.37.225h.001zm.664-5.64c-.385 0-.733.155-1.046.466-.313.31-.537.703-.673 1.177l.012.035h2.837l.012-.094c.07-.47.015-.851-.163-1.145-.179-.293-.505-.44-.98-.44l.001.001zm5.757-2.308l-.227 1.52h1.194l-.128.852H46.03l-.57 3.828c-.047.307-.02.517.084.632.103.115.257.172.463.172a1.55 1.55 0 0 0 .437-.082l.04.787c-.096.07-.231.127-.404.172-.173.045-.34.067-.504.067-.45 0-.797-.142-1.04-.425-.243-.284-.318-.725-.225-1.323l.572-3.828H43.88l.128-.851h1.003l.227-1.521h1.148zm6.071 4.149l-.547 3.677h-1.148l1.27-8.479h2.902c.893 0 1.563.208 2.007.624.445.416.61 1.012.493 1.789a2.24 2.24 0 0 1-.519 1.162c-.276.317-.649.566-1.119.749.432.155.729.405.892.749.163.344.21.758.14 1.244l-.123.798a2.47 2.47 0 0 0-.02.72.9.9 0 0 0 .23.504l-.023.14h-1.184c-.132-.133-.2-.325-.204-.577a5.225 5.225 0 0 1 .052-.799l.117-.775c.07-.477-.007-.851-.23-1.121-.224-.27-.563-.405-1.017-.405h-1.97.001zm.135-.903h1.643c.621 0 1.1-.126 1.433-.376.334-.25.54-.625.618-1.122.074-.493-.007-.867-.242-1.122-.235-.254-.65-.381-1.244-.381h-1.754l-.454 3v.001zm8.198 4.702c-.87 0-1.524-.293-1.96-.88-.438-.587-.586-1.344-.447-2.272l.041-.257c.136-.94.506-1.697 1.11-2.272.604-.575 1.289-.863 2.054-.863.812 0 1.397.266 1.754.799.358.532.472 1.225.344 2.08l-.087.606h-4.08c-.089.668-.023 1.195.199 1.582.221.386.623.58 1.206.58.373 0 .72-.057 1.04-.17a2.73 2.73 0 0 0 .83-.454l.338.746c-.256.217-.58.401-.973.55-.392.15-.848.225-1.369.225zm.664-5.64c-.384 0-.733.155-1.046.466-.312.31-.537.703-.673 1.177l.012.035h2.838l.011-.094c.07-.47.016-.851-.163-1.145-.179-.293-.505-.44-.979-.44v.001zm4.907.116c.256-.326.556-.578.9-.755a2.417 2.417 0 0 1 1.121-.265c.657 0 1.147.201 1.472.603.324.402.424 1.015.3 1.839l-.595 3.98h-1.147l.594-3.957c.085-.575.037-.974-.146-1.197-.182-.224-.503-.335-.961-.335-.342 0-.649.074-.92.224-.273.15-.502.356-.688.62l-.7 4.645h-1.148l.944-6.305h1.026l-.052.903zm5.057 2.366c.156-1.053.494-1.88 1.014-2.483.52-.602 1.175-.903 1.964-.903.361 0 .675.072.94.216.267.144.484.351.65.623l.525-3.507h1.148l-1.364 9.09h-.88l-.052-.799a2.56 2.56 0 0 1-.868.688c-.326.155-.69.233-1.09.233-.742 0-1.295-.282-1.66-.845-.366-.563-.48-1.294-.344-2.19l.017-.123zm1.13.122c-.1.657-.049 1.171.155 1.544.204.373.582.56 1.133.56.33 0 .626-.08.886-.24.26-.159.488-.38.682-.664l.437-2.919a1.421 1.421 0 0 0-.48-.626c-.213-.154-.483-.23-.814-.23-.528 0-.964.23-1.308.69-.344.46-.568 1.048-.673 1.763l-.017.122h-.001zm9.335 2.914a15.44 15.44 0 0 1-.011-.528c0-.134.008-.27.023-.41-.26.299-.578.55-.953.754a2.381 2.381 0 0 1-1.15.306c-.634 0-1.103-.17-1.408-.51-.305-.34-.412-.801-.323-1.384.09-.621.4-1.097.932-1.427.532-.33 1.222-.496 2.069-.496h1.247l.093-.623c.058-.385-.009-.681-.201-.889-.192-.208-.496-.312-.912-.312-.353 0-.664.094-.932.28-.268.187-.42.41-.455.67l-1.095.012-.006-.035c.047-.478.324-.902.833-1.273.51-.371 1.127-.557 1.853-.557.688 0 1.228.184 1.62.55.392.368.54.89.443 1.565l-.455 3.036a4.9 4.9 0 0 0-.067.662c-.005.204.007.407.038.609h-1.183zm-1.777-.84c.396 0 .781-.108 1.154-.326.373-.217.631-.462.775-.734l.157-1.02h-1.287c-.447 0-.832.119-1.154.356-.323.237-.505.509-.548.815-.047.292.005.516.154.673.15.158.4.236.75.236h-.001zm6.433-4.655c.264-.295.565-.524.903-.685a2.49 2.49 0 0 1 1.09-.242c.649 0 1.135.204 1.46.612.324.408.426 1.028.305 1.859l-.594 3.95h-1.148l.595-3.962c.081-.536.029-.924-.158-1.165-.186-.241-.503-.361-.95-.361-.33 0-.634.07-.911.21a2.07 2.07 0 0 0-.708.582l-.705 4.697H84.57l1.363-9.09h1.148l-.542 3.595z" fill="#6D6E71" fill-rule="nonzero"/><path d="M47.518 138.709c-.03-.144-.03-.26-.03-.403a2.65 2.65 0 0 1-.775.719c-.316.2-.66.287-1.034.287-.603 0-1.063-.144-1.38-.489a1.752 1.752 0 0 1-.488-1.292c0-.575.23-1.006.69-1.322.46-.316 1.063-.488 1.839-.488h1.149v-.575c0-.345-.115-.632-.316-.833-.201-.201-.517-.316-.89-.316-.346 0-.633.086-.834.258a.847.847 0 0 0-.316.633h-1.006v-.03c-.028-.43.173-.832.604-1.177.43-.345.977-.546 1.637-.546.661 0 1.207.172 1.61.517.401.345.603.833.603 1.465v2.845c0 .2 0 .402.028.603.029.201.058.402.115.574h-1.12v.058a16.392 16.392 0 0 0-.086-.488zm-1.74-.345c.374 0 .748-.086 1.035-.288.316-.2.517-.43.603-.689v-.948h-1.178c-.43 0-.775.115-1.034.316a.964.964 0 0 0-.374.776c0 .258.087.46.23.632.173.115.403.2.719.2l-.001.001zm-7.458-5.192h1.06v6.001h-1.06v-.89c-.337.435-.892 1.133-2.005 1.016-1.113-.118-1.802-.991-1.807-1.954-.005-.963.005-4.498 0-4.173h1.051v2.274c0 2.66.585 2.954 1.385 2.954s1.191-.676 1.376-.901c-.01-1.264-.01-2.706 0-4.327zm-6.658 6.071h1.07v-8.095h-1.329l-2.622 6.631-2.597-6.631h-1.438v8.095h1.066l.05-6.295 2.512 6.295h.81l2.478-6.115v6.115zm9.411-8.659h1.095v8.652h-1.095v-8.652zm9.138 2.675h1.078v5.93h-1.078v-5.93zm.015-2.693v1.07h1.098v-1.07h-1.098zm217.117-1.417a.96.96 0 0 0-.324-.748c-.216-.194-.598-.368-1.147-.522-.786-.218-1.392-.503-1.82-.856-.426-.353-.64-.814-.64-1.383 0-.589.235-1.074.704-1.455.468-.382 1.07-.572 1.807-.572.79 0 1.42.211 1.894.634.474.424.702.947.686 1.569l-.01.03h-1.175c0-.385-.128-.69-.384-.918-.256-.228-.596-.342-1.021-.342-.412 0-.73.097-.952.291a.953.953 0 0 0-.333.753c0 .281.122.513.366.695.244.183.65.356 1.215.52.766.214 1.35.506 1.751.876.402.37.603.842.603 1.418 0 .605-.238 1.089-.713 1.45-.475.362-1.1.542-1.872.542-.743 0-1.39-.197-1.943-.592-.552-.395-.82-.952-.803-1.671l.01-.03h1.175c0 .438.151.768.454.99.303.223.672.335 1.107.335.431 0 .767-.091 1.006-.274a.882.882 0 0 0 .359-.74zm4.648 1.982c-.793 0-1.413-.25-1.86-.75-.446-.5-.67-1.149-.67-1.945v-.2c0-.797.224-1.454.67-1.97.447-.518 1.023-.775 1.73-.771.729 0 1.281.225 1.656.675.375.45.562 1.051.562 1.804v.658h-3.358l-.01.025c.013.445.13.806.351 1.084.221.278.554.417 1 .417.33 0 .617-.04.86-.12.243-.081.468-.197.675-.347l.397.798c-.208.18-.482.333-.824.457a3.45 3.45 0 0 1-1.18.185h.001zm-.13-4.657a.942.942 0 0 0-.763.343c-.191.23-.31.528-.357.896l.01.025h2.123v-.095c0-.348-.08-.63-.243-.846-.162-.216-.42-.323-.77-.323zm4.507 4.552h-1.22v-7.83h1.22v7.83zm3.669.105c-.793 0-1.413-.25-1.86-.75-.446-.5-.67-1.149-.67-1.945v-.2c0-.797.224-1.454.67-1.97.447-.518 1.023-.775 1.73-.771.729 0 1.281.225 1.656.675.375.45.562 1.051.562 1.804v.658h-3.358l-.01.025c.013.445.13.806.351 1.084.221.278.554.417 1 .417.33 0 .617-.04.86-.12.243-.081.468-.197.675-.347l.397.798c-.208.18-.482.333-.824.457a3.45 3.45 0 0 1-1.18.185h.001zm-.13-4.657a.942.942 0 0 0-.764.343c-.19.23-.31.528-.356.896l.01.025h2.123v-.095c0-.348-.08-.63-.243-.846-.162-.216-.42-.323-.77-.323zm6.259 3.066a.562.562 0 0 0-.239-.464c-.159-.122-.46-.232-.9-.329-.64-.13-1.129-.323-1.467-.577a1.216 1.216 0 0 1-.506-1.024c0-.455.192-.844.577-1.167.385-.323.892-.484 1.52-.484.65 0 1.173.166 1.57.5.396.332.586.733.569 1.201l-.01.03h-1.17a.76.76 0 0 0-.26-.574c-.175-.163-.407-.244-.698-.244-.295 0-.52.067-.673.201a.628.628 0 0 0-.23.492.53.53 0 0 0 .215.442c.144.11.44.209.888.296.666.134 1.168.33 1.506.59.338.259.507.606.507 1.041 0 .489-.201.888-.605 1.197-.403.31-.934.464-1.593.464-.706 0-1.264-.18-1.672-.542-.408-.361-.602-.776-.582-1.244l.01-.03h1.134c.014.314.128.543.342.687.214.144.475.216.783.216.31 0 .553-.062.725-.186a.578.578 0 0 0 .259-.492zm5.566 1.486a4.5 4.5 0 0 1-.108-.401 2.87 2.87 0 0 1-.058-.392 2.08 2.08 0 0 1-.657.64c-.275.172-.58.258-.919.258-.565 0-1-.145-1.302-.436-.303-.291-.455-.691-.455-1.2 0-.525.208-.934.623-1.227.415-.293.999-.44 1.752-.44h.948v-.476c0-.285-.083-.507-.248-.668-.166-.16-.406-.24-.72-.24-.278 0-.5.066-.663.198a.63.63 0 0 0-.246.514l-1.174.005-.006-.03c-.023-.428.169-.808.575-1.14.407-.33.936-.496 1.589-.496.632 0 1.143.16 1.53.482.389.32.583.783.583 1.385v2.414c0 .224.015.44.045.645.03.206.079.408.146.605h-1.235zm-1.49-.873c.304 0 .579-.077.825-.231.246-.154.409-.33.49-.527v-.803h-.97c-.354 0-.632.088-.833.263-.2.176-.3.383-.3.62 0 .208.067.372.202.494.136.123.33.184.585.184h.001zm5.109.873h-1.22v-5.43h1.22v5.43zm0-6.761h-1.22v-1.07h1.22v1.07z" fill="#2A3052" fill-rule="nonzero"/></g></svg>