<svg width="299" height="197" xmlns="http://www.w3.org/2000/svg"><g fill="none" fill-rule="evenodd"><path fill="#F1F2F2" d="M0 0h299v197H0z"/><path d="M1.987 1.98v193.04h295.026V1.98H1.987zM299 0v197H0V0h299z" fill="#C2C2C2" fill-rule="nonzero"/><path d="M4.887 54.446v-1.207h289.656v1.207H4.887zm0 40.534v-1.207h289.656v1.207H4.887zm0 40.534v-1.207h289.656v1.207H4.887zm0 40.496v-1.207h289.656v1.207H4.887zm34.38-142.416h1.206v159.67h-1.206V33.594zm36.664 0h1.207v159.67h-1.207V33.594zm36.628 0h1.207v159.67h-1.207V33.594zm36.665 0h1.207v159.67h-1.207V33.594zm36.627 0h1.207v159.67h-1.207V33.594zm36.628 0h1.207v159.67h-1.207V33.594zM4.887 115.228v-1.207h289.656v1.207H4.887z" fill="#DFDEDE" fill-rule="nonzero"/><path fill="#2A3052" fill-rule="nonzero" d="M4.887 76.731v-1.206h289.656v1.206z"/><path fill="#DFDEDE" fill-rule="nonzero" d="M4.887 157.762v-1.207h289.656v1.207z"/><path fill="#2A3052" fill-rule="nonzero" d="M259.144 35.594h1.207v159.67h-1.207z"/><path fill="#C2C2C2" fill-rule="nonzero" d="M2.794 35.606V33.19h293.842v2.415z"/><path d="M25.518 15.01H22.64v8.741h-2.056V15.01h-2.877v-1.606h7.811v1.606zm0 4.819c0-1.158.299-2.092.934-2.84.636-.747 1.495-1.083 2.617-1.083 1.12 0 2.018.374 2.653 1.083.636.748.972 1.682.972 2.84v.15c0 1.157-.299 2.091-.934 2.838-.636.71-1.495 1.084-2.617 1.084-1.12 0-2.018-.374-2.653-1.084-.636-.747-.935-1.68-.935-2.839v-.15h-.037zm2.056.15c0 .709.112 1.27.373 1.68.225.449.636.635 1.159.635s.934-.224 1.159-.635c.224-.41.373-.971.373-1.68v-.15c0-.673-.112-1.233-.373-1.681-.262-.449-.636-.636-1.159-.636s-.934.225-1.159.636c-.261.448-.373.97-.373 1.68v.15zm11.025 2.652a2.4 2.4 0 0 1-.897.934c-.336.224-.747.336-1.233.336-.785 0-1.42-.262-1.869-.785-.448-.523-.673-1.307-.673-2.428v-4.633h2.056v4.67c0 .56.075.972.299 1.196.187.261.448.373.822.373.337 0 .598-.037.86-.15.224-.111.411-.26.56-.485v-5.604h2.056v7.696h-1.757l-.224-1.12zm6.69-.337c.374 0 .673-.112.897-.336.225-.224.337-.486.337-.86h1.868l.038.038c0 .785-.262 1.42-.86 1.943-.598.523-1.345.784-2.242.784-1.121 0-2.018-.373-2.616-1.083-.599-.71-.972-1.606-.972-2.765v-.224c0-1.12.299-2.054.934-2.802.598-.747 1.495-1.083 2.616-1.083.935 0 1.682.262 2.28.822.56.56.86 1.27.822 2.13v.037h-1.868a1.494 1.494 0 0 0-.337-1.009 1.136 1.136 0 0 0-.897-.41c-.56 0-.934.223-1.158.634-.224.411-.337.972-.337 1.644v.224c0 .673.113 1.233.337 1.644.224.41.598.672 1.158.672zm6.242-5.267c.224-.336.523-.635.86-.822a2.429 2.429 0 0 1 1.158-.299c.785 0 1.42.262 1.869.785.449.523.673 1.344.673 2.465v4.558h-2.019v-4.558c0-.598-.112-1.008-.299-1.27-.224-.261-.523-.374-.934-.374-.299 0-.523.038-.747.15a1.521 1.521 0 0 0-.524.448v5.641h-2.055V12.656h2.055v4.37h-.037z" fill="#000" fill-rule="nonzero"/><path d="M41.087 138.25a1.81 1.81 0 0 1-2.434-2.68l36.665-33.287a1.81 1.81 0 0 1 2.492.056l24.705 24.516 30.16-33.337a1.81 1.81 0 0 1 2.572-.115l44.09 40.784 42.273-59.112a1.81 1.81 0 0 1 2.945 2.106l-43.467 60.782a1.81 1.81 0 0 1-2.702.276l-44.254-40.934-30.204 33.385a1.81 1.81 0 0 1-2.618.07l-24.83-24.64-35.393 32.13z" fill="#2A3052" fill-rule="nonzero"/><path d="M29.704 60.923h-2.541l-1.495 7.733h-1.122l1.533-7.696h-2.542l.187-.934h6.167l-.187.897zm2.43 7.733v-.485c0-.113.037-.262.037-.374-.262.299-.56.523-.897.71a2.094 2.094 0 0 1-1.01.299c-.56 0-1.009-.187-1.27-.523-.262-.337-.337-.822-.224-1.42.112-.635.448-1.158.934-1.457.523-.336 1.159-.486 1.943-.486h1.084l.112-.635c.075-.41.038-.71-.112-.896-.15-.187-.448-.3-.822-.3-.336 0-.635.113-.897.3a1.21 1.21 0 0 0-.486.672H29.48v-.037c.075-.486.373-.934.86-1.308.523-.373 1.12-.56 1.83-.56.636 0 1.122.187 1.496.56.373.374.486.897.336 1.57l-.598 3.1-.112.672a1.836 1.836 0 0 0 0 .636h-1.159v-.038zm-1.496-.859c.3 0 .636-.075.972-.262.337-.186.598-.41.748-.672l.224-1.195H31.46a1.57 1.57 0 0 0-1.047.373c-.299.262-.486.523-.56.822-.075.299-.038.523.074.71.112.187.374.224.71.224zm7.999-4.52L38 63.239c-.254 0-.502.078-.71.224a1.57 1.57 0 0 0-.56.635l-.898 4.558h-1.12l1.27-6.425h1.01l-.076.859c.191-.292.447-.535.748-.71a1.8 1.8 0 0 1 .897-.262c.075 0 .15 0 .262.038a.5.5 0 0 0 .186.037l-.373 1.084zm.336 2.166c.224-1.083.56-1.942 1.047-2.503.485-.56 1.083-.822 1.83-.822.337 0 .674.075.935.225.262.15.486.373.673.672l.262-.784h.971l-1.233 6.313c-.187.897-.523 1.57-1.047 2.018-.523.448-1.233.672-2.055.672-.305 0-.608-.051-.897-.15a2.37 2.37 0 0 1-.822-.336l.448-.896c.15.112.374.224.636.299.261.074.523.112.784.112.486 0 .86-.15 1.159-.449.327-.34.548-.769.635-1.232l.075-.449a2.194 2.194 0 0 1-1.607.635c-.673 0-1.196-.299-1.532-.934a3.283 3.283 0 0 1-.262-2.279v-.112zm1.121.112c-.15.673-.112 1.233.075 1.644.187.411.56.635 1.084.635.261 0 .523-.074.747-.224a2.21 2.21 0 0 0 .636-.672l.598-2.989a1.61 1.61 0 0 0-.486-.635 1.301 1.301 0 0 0-.785-.224c-.486 0-.86.224-1.159.635a4.244 4.244 0 0 0-.672 1.718l-.038.112zm7.438 3.213c-.785 0-1.383-.299-1.794-.896-.411-.598-.523-1.383-.374-2.317l.038-.261c.149-.934.523-1.719 1.12-2.316.599-.598 1.234-.897 1.907-.897.785 0 1.345.262 1.682.785.336.523.448 1.232.299 2.092l-.112.747h-3.813c-.074.635-.037 1.158.187 1.569.225.374.56.56 1.047.56a2.808 2.808 0 0 0 1.756-.635l.337.747a3.38 3.38 0 0 1-2.28.822zm.747-5.716c-.336 0-.635.15-.934.486a3.277 3.277 0 0 0-.673 1.233v.037h2.617l.037-.15c.075-.485.037-.858-.15-1.157-.187-.3-.448-.449-.897-.449zm5.756-2.353l-.299 1.532h1.084l-.187.859H53.55l-.785 3.885c-.074.299-.074.523.038.635.075.112.224.15.41.15.076 0 .188 0 .337-.038a.704.704 0 0 0 .3-.074v.784c-.113.075-.262.112-.487.187-.224.037-.41.075-.635.075-.411 0-.71-.15-.934-.449-.225-.299-.262-.747-.15-1.345l.785-3.885h-.934l.187-.86h.934l.299-1.53h1.121v.074z" fill="#6D6E71" fill-rule="nonzero"/><path d="M187.987 147.445h-34.945l-5.382-8.181-5.382 8.181h-34.946c-2.616 0-4.71 2.13-4.71 4.782v24.694c0 2.653 2.131 4.782 4.71 4.782h80.692c2.617 0 4.71-2.13 4.71-4.782v-24.694c0-2.652-2.13-4.782-4.747-4.782z" fill="#E88024"/><ellipse cx="9.045" cy="8.618" rx="8.11" ry="8.443" opacity=".6" transform="translate(214.037 67.51)" fill="#FFF"/><path d="M223.082 85.778c-5.157 0-9.317-4.331-9.317-9.65s4.16-9.65 9.317-9.65 9.318 4.331 9.318 9.65-4.16 9.65-9.318 9.65zm0-2.414c3.802 0 6.904-3.23 6.904-7.236 0-4.007-3.102-7.236-6.904-7.236-3.801 0-6.903 3.229-6.903 7.236s3.102 7.236 6.903 7.236z" fill="#E88024" fill-rule="nonzero"/><ellipse cx="8.97" cy="8.891" rx="8.11" ry="8.443" opacity=".6" transform="translate(30.9 128.019)" fill="#FFF"/><path d="M39.87 146.56c-5.157 0-9.317-4.33-9.317-9.65 0-5.319 4.16-9.65 9.317-9.65s9.317 4.331 9.317 9.65c0 5.32-4.16 9.65-9.317 9.65zm0-2.414c3.802 0 6.903-3.229 6.903-7.236s-3.101-7.236-6.903-7.236c-3.802 0-6.903 3.23-6.903 7.236 0 4.007 3.101 7.236 6.903 7.236z" fill="#E88024" fill-rule="nonzero"/><path d="M48.317 161.262c-.03-.153-.03-.276-.03-.43a2.841 2.841 0 0 1-.829.767c-.33.208-.714.314-1.104.307-.645 0-1.136-.153-1.473-.521a1.871 1.871 0 0 1-.522-1.38c0-.614.246-1.075.737-1.412.49-.338 1.135-.522 1.963-.522h1.227v-.613c0-.368-.122-.675-.337-.89-.215-.215-.552-.337-.951-.337-.368 0-.675.092-.89.276a.904.904 0 0 0-.337.675h-1.074v-.031c-.03-.46.184-.89.644-1.258s1.043-.583 1.749-.583c.705 0 1.288.184 1.718.552.43.369.644.89.644 1.565v3.037c0 .215 0 .43.03.645.032.214.062.43.124.613h-1.197v.062c-.03-.185-.061-.369-.092-.522zm-1.857-.368c.399 0 .798-.092 1.104-.307.338-.215.553-.46.645-.736v-1.013h-1.258c-.46 0-.828.123-1.105.338a1.03 1.03 0 0 0-.398.828c0 .276.092.491.245.675.184.123.43.215.767.215zm-7.966-5.543h1.133v6.407h-1.133v-.95c-.36.464-.952 1.21-2.14 1.084-1.19-.126-1.925-1.058-1.93-2.086-.006-1.028.005-4.804 0-4.456h1.122v2.428c0 2.84.625 3.154 1.479 3.154.854 0 1.272-.721 1.469-.962-.01-1.35-.01-2.89 0-4.62v.001zm-7.109 6.481h1.143v-8.644h-1.42l-2.8 7.081-2.772-7.08H24v8.643h1.138l.054-6.721 2.682 6.721h.866l2.645-6.529v6.529zm10.049-9.245h1.17v9.238h-1.17v-9.238zm9.76 2.856h1.15v6.332h-1.15v-6.332zm.015-2.876v1.142h1.172v-1.142h-1.172z" fill="#2A3052" fill-rule="nonzero"/><path d="M174.171 166.968h-2.633v-8.711h2.633v8.711zm0 4.583h-2.633v-2.34h2.633v2.34zm-30.768-11.07c3.05 0 4.704 1.86 5.122 4.645.418 2.786-1.086 6.72-4.908 6.72s-5.058-2.906-5.058-5.913 1.794-5.452 4.844-5.452zm.027 1.952c-.907.086-2.513.72-2.42 3.728.095 3.007 1.41 3.713 2.42 3.713s2.715-.28 2.715-3.7c0-3.422-1.808-3.827-2.715-3.74v-.001zm-5.515-1.88c-.1.945-.21 1.722-.328 2.331-1.189-.077-2.423-.19-2.963 1.2l.015 7.472h-2.447V160.64h2.177c.104.728.169 1.26.194 1.593.753-1.404 1.87-1.964 3.352-1.68zm-15.729 11.003h-2.49v-14.592h6.415c2.01 0 4.76 1.675 4.459 4.998-.201 2.215-1.687 3.559-4.459 4.031h-3.925v5.563zm.012-7.498h3.292c.813 0 2.628-.564 2.628-2.655 0-2.09-1.798-2.57-2.628-2.542-.552.019-1.65.01-3.292-.028v5.225zm34.257-8.267c-.114.581-.173 1.16-.263 1.899-.378-.084-2.5-.62-2.551 1.68v1.27h2.02v1.76h-2.02l.05 9.156h-2.527v-9.155h-1.591v-1.761h1.686c-.174-2.248.28-3.724 1.363-4.428 1.624-1.057 3.225-.62 3.833-.422v.001zm1.831 4.874h2.446v10.833h-2.446v-10.833zm.048-4.786v2.072h2.434v-2.072h-2.434zm9.089 2.145v2.695h1.886v1.786h-1.886v6.458c0 1.304 1.651.872 1.759.818l.289 1.725c-.162.107-4.096 1.507-4.514-2.543v-6.458h-1.623v-1.786h1.623v-2.695h2.466z" fill="#FFF" fill-rule="nonzero"/><path d="M266.426 109.133a.99.99 0 0 0-.333-.77c-.223-.2-.617-.38-1.182-.538-.81-.224-1.435-.518-1.875-.882-.44-.363-.659-.838-.659-1.424 0-.607.241-1.107.724-1.5s1.103-.59 1.862-.59c.813 0 1.464.219 1.952.655.488.436.723.974.706 1.616l-.01.03h-1.21c0-.396-.133-.711-.396-.946-.264-.234-.615-.351-1.053-.351-.424 0-.75.1-.98.3a.982.982 0 0 0-.344.775c0 .29.126.529.378.717.252.187.669.366 1.251.535.79.22 1.391.521 1.805.902.414.381.62.868.62 1.461 0 .624-.244 1.122-.734 1.495-.49.372-1.132.558-1.928.558-.766 0-1.433-.203-2.002-.61-.569-.407-.844-.98-.827-1.722l.01-.031h1.21c0 .451.156.792.468 1.021.312.23.692.344 1.14.344.445 0 .79-.094 1.037-.282a.909.909 0 0 0 .37-.763zm4.789 2.043c-.817 0-1.456-.258-1.916-.773-.46-.515-.69-1.183-.69-2.004v-.207c0-.82.23-1.497.69-2.03.46-.532 1.054-.797 1.781-.793.752 0 1.32.232 1.707.695.386.464.579 1.084.579 1.86v.677h-3.46l-.01.026c.014.458.134.83.362 1.117.228.286.57.429 1.03.429.34 0 .636-.041.886-.124.25-.083.482-.202.696-.357l.408.822a2.663 2.663 0 0 1-.848.47c-.39.134-.802.2-1.215.192zm-.135-4.799a.97.97 0 0 0-.786.354c-.196.237-.319.544-.367.923l.01.026h2.188v-.098c0-.358-.084-.649-.25-.871-.168-.223-.433-.334-.795-.334zm4.644 4.69h-1.257V103h1.257v8.068-.001zm3.78.11c-.817 0-1.455-.259-1.916-.774-.46-.515-.69-1.183-.69-2.004v-.207c0-.82.23-1.497.69-2.03.46-.532 1.054-.797 1.782-.793.751 0 1.32.232 1.706.695.386.464.58 1.084.58 1.86v.677h-3.46l-.01.026c.013.458.134.83.362 1.117.227.286.57.429 1.029.429.341 0 .637-.041.887-.124.25-.083.481-.202.695-.357l.409.822a2.663 2.663 0 0 1-.848.47c-.391.134-.803.2-1.216.192v.001zm-.134-4.8a.97.97 0 0 0-.786.354c-.197.237-.32.544-.367.923l.01.026h2.187v-.098c0-.358-.083-.649-.25-.871-.168-.223-.432-.334-.794-.334zm6.448 3.16a.58.58 0 0 0-.245-.479c-.164-.125-.473-.238-.928-.338-.659-.135-1.162-.333-1.51-.595a1.253 1.253 0 0 1-.523-1.055c0-.469.198-.87.595-1.202.396-.333.919-.5 1.567-.5.669 0 1.207.172 1.616.515.408.343.604.756.587 1.239l-.01.03h-1.205a.784.784 0 0 0-.27-.591c-.179-.167-.418-.251-.718-.251-.304 0-.535.069-.693.207a.647.647 0 0 0-.238.507c0 .19.074.34.222.455.149.113.454.215.916.305.686.138 1.203.34 1.551.607.348.268.522.625.522 1.073 0 .504-.207.915-.623 1.234-.415.319-.962.478-1.642.478-.727 0-1.301-.186-1.722-.558-.42-.373-.62-.8-.6-1.283l.01-.03h1.17c.013.323.13.56.351.708.22.148.49.222.807.222.32 0 .57-.064.747-.191a.595.595 0 0 0 .266-.507zm5.735 1.53a4.638 4.638 0 0 1-.11-.413 2.957 2.957 0 0 1-.06-.404 2.155 2.155 0 0 1-.678.66c-.283.178-.612.27-.946.266-.583 0-1.03-.15-1.342-.45-.312-.3-.468-.712-.468-1.236 0-.541.214-.962.641-1.264.428-.302 1.03-.453 1.805-.453h.977v-.49c0-.294-.085-.523-.256-.689-.17-.165-.418-.248-.742-.248-.286 0-.513.068-.682.204a.65.65 0 0 0-.254.53l-1.21.006-.005-.031c-.024-.442.173-.833.592-1.174.42-.342.965-.512 1.637-.512.651 0 1.177.165 1.577.496.4.331.6.807.6 1.427v2.488c0 .23.016.452.047.664.03.212.08.42.15.624h-1.273v-.001zm-1.535-.9c.313 0 .597-.079.85-.237.254-.159.422-.34.504-.543v-.828h-.998c-.365 0-.651.09-.858.272-.207.18-.31.394-.31.639 0 .213.07.383.21.509.139.126.34.189.602.189v-.001zm5.264.9h-1.257v-5.595h1.257v5.596-.001zm0-6.965h-1.257V103h1.257v1.102z" fill="#2A3052" fill-rule="nonzero"/></g></svg>