<svg viewBox="0 0 128 80" fill="none" xmlns="http://www.w3.org/2000/svg"><path d="M84.879 29.4h-1.154a.979.979 0 0 0-.974.982v12.854c0 3.52 2.18 6.234 5.773 6.234h2.27c.537 0 .975-.44.975-.982v-.82a.98.98 0 0 0-.982-.983l-1.732.008c-2.325 0-3.091-1.465-3.204-4.61v-6.467h4.936c.539 0 .974-.44.974-.982v-.83a.978.978 0 0 0-.974-.981h-4.936v-2.441a.975.975 0 0 0-.972-.98V29.4zm26.668 3.424h-1.535c-1.905 0-3.426.738-4.462 1.942-1.019-1.204-2.525-1.942-4.429-1.942h-1.535c-3.737 0-6.004 2.824-6.004 6.49v9.174c0 .542.434.982.973.982H95.7c.539 0 .974-.44.974-.982v-8.705c0-2.218 1.042-4.169 3.678-4.169s3.637 1.953 3.637 4.169v8.705c0 .542.434.982.975.982h1.164c.539 0 .976-.44.976-.982v-8.705c0-2.218 1.042-4.169 3.676-4.169 2.634 0 3.634 1.953 3.634 4.169v8.705a.98.98 0 0 0 .976.982h1.121c.538 0 .974-.44.974-.982v-9.175c0-3.665-2.202-6.489-5.937-6.489h-.002zm-33.563 0c-3.736 0-6.003 2.824-6.003 6.49v9.174c0 .542.436.982.975.982H74.1a.98.98 0 0 0 .976-.982v-8.705c0-2.218 1.042-4.169 3.676-4.169h1.269a.98.98 0 0 0 .976-.982v-.826a.98.98 0 0 0-.976-.982h-2.037zm-9.694-1.811h-1.405A1.007 1.007 0 0 1 65.88 30v-1.413c0-.559.449-1.011 1.004-1.011h1.404c.554 0 1.002.452 1.002 1.012v1.41c0 .561-.448 1.013-1.001 1.013v.002zm-5.632 6.633c-1.46-3.471-5.004-5.592-8.797-5.134-4.043.482-7.19 3.88-7.41 7.974-.263 4.903 3.618 8.977 8.428 8.977l2.567.007c.538 0 .974-.266.974-.807v-1.135c0-.54-.436-.813-.97-.813h-2.454c-2.929 0-5.406-2.646-5.492-5.594-.09-3.066 2.355-5.587 5.376-5.587a5.36 5.36 0 0 1 4.518 2.477c.566.877.866 1.895.866 2.944v7.533c0 .542.434.982.975.982h1.11a.98.98 0 0 0 .976-.982v-7.535c0-1.147-.224-2.26-.665-3.309l-.002.002zm4.359 11.824h1.153c.537 0 .975-.44.975-.982V33.802a.98.98 0 0 0-.977-.981h-1.153a.977.977 0 0 0-.973.981v14.686c0 .542.434.982.973.982h.002zm56.495-17.023v-1.593l-.687 1.593h-.401l-.668-1.573v1.573h-.517v-2.495h.675l.726 1.735.727-1.735H124v2.494h-.49.002zm-3.46-2.03v2.03h-.518v-2.03h-.761v-.467h2.04v.466h-.761zM21.64 42.792s2.85 1.738 7.015.817l.718 10.96a.878.878 0 0 1-.88.954H17.864a.877.877 0 0 1-.882-.954l.729-11.117c.97.054 2.332-.045 3.928-.66zm1.808 8.906c1.14-.109 1.721-.772 1.721-1.645 0-.959-.564-1.447-1.652-1.602l-.277-.04c-.61-.085-.819-.29-.819-.584 0-.309.214-.53.611-.56.078-.004.136-.006.215 0 .284.02.565.1.787.211a.758.758 0 0 0 .333.085c.278 0 .493-.21.493-.497 0-.188-.085-.343-.271-.461-.248-.157-.678-.286-1.139-.33v-.731a.307.307 0 1 0-.615 0v.728c-.967.103-1.573.716-1.573 1.602 0 .933.588 1.44 1.662 1.587l.278.04c.626.085.81.279.81.59 0 .367-.302.623-.857.623-.387 0-.694-.1-1.128-.343a.656.656 0 0 0-.332-.092.498.498 0 0 0-.509.506.57.57 0 0 0 .272.48c.302.19.772.39 1.377.438v.877c0 .172.138.311.308.311.17 0 .307-.14.307-.31v-.883h-.002zM36.516 34.08c.22-4.317-2.839-8.559-7.019-9.696A11.174 11.174 0 0 0 26.645 24c-.214 0-.42.007-.615.02-3.001.211-5.762 1.748-7.418 4.118a7.543 7.543 0 0 0-2.408-.39 8.223 8.223 0 0 0-4.187 1.171c-2.126 1.26-3.574 3.394-3.89 5.724-2.653 1.44-4.267 4.317-4.117 7.364.206 4.214 3.731 7.517 8.029 7.517h4.114c.1 0 .181-.076.19-.174l.19-2.088a.183.183 0 0 0-.049-.144.184.184 0 0 0-.14-.064h-4.492a5.337 5.337 0 0 1-3.901-1.681 5.424 5.424 0 0 1-1.495-4.006c.09-2.087 1.439-3.983 3.435-4.833l.414-.175a.187.187 0 0 0 .114-.154l.1-.88c.11-1.725 1.134-3.325 2.742-4.278a5.792 5.792 0 0 1 2.943-.828 4.99 4.99 0 0 1 2.184.488l1.048.501c.09.042.196.01.246-.076l.644-1.114c1.157-2.006 3.41-3.36 5.876-3.534.806-.054 1.79.05 2.657.286 3.227.878 5.594 4.386 5.165 7.66l-.164 1.276a.189.189 0 0 0 .14.208l1.144.313c2.355.643 4 2.813 4 5.277 0 3.06-2.433 5.55-5.425 5.55H30.01a.189.189 0 0 0-.19.208l.19 2.088a.19.19 0 0 0 .19.174h3.518c4.342 0 7.877-3.598 7.877-8.022 0-3.292-2.036-6.255-5.08-7.421z" fill="#0083FF"/></svg>