<svg width="64" height="64" fill="none" xmlns="http://www.w3.org/2000/svg"><rect x="12" y="12" width="40" height="40" rx="20" fill="#fff"/><path fill-rule="evenodd" clip-rule="evenodd" d="M31.156 12a19.9 19.9 0 0 0-10.37 3.63h23.08A19.903 19.903 0 0 0 33.493 12h-2.338Zm-14.283 7.257a19.972 19.972 0 0 0-2.372 3.629h35.646a19.954 19.954 0 0 0-2.372-3.628H16.873ZM12.084 30.18c.11-1.246.334-2.459.663-3.628h38.482c.328 1.17.553 2.382.663 3.628H12.084Zm.009 3.63a19.81 19.81 0 0 0 .684 3.628h38.425c.335-1.17.568-2.382.684-3.629H12.093Zm4.527 10.885a19.98 19.98 0 0 1-2.405-3.629h35.542a19.971 19.971 0 0 1-2.405 3.63H16.62Zm14.522 7.236a6.133 6.133 0 0 1 .122.005 19.69 19.69 0 0 0 12.121-3.61l-6.423-.001h-16.37a19.686 19.686 0 0 0 10.55 3.606Z" fill="#F44336"/><path d="M31.572 12.01c-10.242.209-18.59 8.117-19.488 18.175h19.488V12.01Z" fill="#283991"/><path d="m15.998 23.3.305.935h.986l-.798.579.305.936-.798-.579-.797.58.304-.937-.798-.579h.987l.304-.935ZM15.998 26.605l.305.936h.986l-.798.579.305.936-.798-.579-.797.58.304-.937-.798-.579h.987l.304-.936ZM19.311 18.34l.305.937h.986l-.798.578.305.936-.798-.578-.798.578.305-.936-.798-.578h.986l.305-.936ZM19.311 21.647l.305.936h.986l-.798.578.305.936-.798-.578-.798.578.305-.936-.798-.579h.986l.305-.935ZM19.311 24.953l.305.936h.986l-.798.578.305.936-.798-.579-.798.579.305-.936-.798-.578h.986l.305-.936ZM13.483 27.403l-.305-.936.798-.579h-.986l-.022-.068c-.108.334-.206.672-.296 1.014l.014-.01.797.579ZM15.2 22.444l.798-.578.798.578-.305-.936.798-.579h-.986l-.305-.935-.304.935h-.364c-.068.102-.133.205-.198.309l.373.27-.304.936ZM19.311 16.907l.798.578-.305-.936.798-.578h-.57c-.484.36-.95.743-1.399 1.146l-.12.368.798-.578ZM21.826 15.832l.798-.578.798.578-.305-.936.798-.578h-.987l-.04-.126c-.335.17-.666.348-.989.536l.232.168-.305.936ZM22.624 16.688l.305.935h.986l-.798.58.305.935-.798-.579-.798.58.305-.937-.798-.579h.986l.305-.935ZM22.624 19.994l.305.935h.986l-.798.58.305.935-.798-.578-.798.578.305-.936-.798-.579h.986l.305-.935ZM22.624 23.3l.305.935h.986l-.798.579.305.936-.798-.579-.798.58.305-.937-.798-.579h.986l.305-.935ZM22.624 26.605l.305.936h.986l-.798.579.305.936-.798-.579-.798.58.305-.937-.798-.579h.986l.305-.936ZM25.937 15.035l.305.936h.986l-.798.578.305.936-.798-.578-.798.578.305-.936-.798-.578h.986l.305-.936ZM25.937 18.34l.305.937h.986l-.798.578.305.936-.798-.578-.798.578.305-.936-.798-.578h.986l.305-.936ZM25.937 21.647l.305.936h.986l-.798.578.305.936-.798-.578-.798.578.305-.936-.798-.579h.986l.305-.935ZM25.937 24.953l.305.936h.986l-.798.578.305.936-.798-.579-.798.579.305-.936-.798-.578h.986l.305-.936ZM29.25 13.382l.305.936h.986l-.798.578.304.936-.797-.578-.798.578.305-.936-.798-.578h.986l.305-.936ZM29.25 16.688l.305.935h.986l-.798.58.304.935-.797-.579-.798.58.305-.937-.798-.579h.986l.305-.935ZM29.25 19.994l.305.935h.986l-.798.58.304.935-.797-.578-.798.578.305-.936-.798-.579h.986l.305-.935ZM29.25 23.3l.305.935h.986l-.798.579.304.936-.797-.579-.798.58.305-.937-.798-.579h.986l.305-.935ZM29.25 26.605l.305.936h.986l-.798.579.304.936-.797-.579-.798.58.305-.937-.798-.579h.986l.305-.936Z" fill="#EFEFEF"/></svg>