<svg viewBox="0 0 128 80" fill="none" xmlns="http://www.w3.org/2000/svg"><path d="m12.662 24.426 11.926 15.576L5.472 55.578h19.32c2.739 0 5.397-.934 7.54-2.639a12.108 12.108 0 0 0 4.261-6.753l1.6-6.929a12.107 12.107 0 0 0-11.8-14.831h-13.73z" fill="url(#a)"/><path d="m24.588 40.002-8.496 15.576H5.472l19.116-15.576z" fill="#CC2E3D"/><path d="m87.107 42.297-9.939 6.476h14.767l-1.198 6.805H68.536l1.738-9.863 13.676-8.934a3.899 3.899 0 0 0 1.734-2.535 2.58 2.58 0 0 0-.513-2.157 2.51 2.51 0 0 0-1.964-.86H71.832l1.198-6.8h11.258a8.262 8.262 0 0 1 6.476 2.868 8.501 8.501 0 0 1 1.747 7.093 12.222 12.222 0 0 1-5.404 7.907zM65.906 26.397a8.663 8.663 0 0 0-3.495-1.518 21.708 21.708 0 0 0-4.503-.45H46.357l-1.027 5.804h10.358c.67.002 1.338.038 2.004.108.625.061 1.235.232 1.801.505.53.24.975.636 1.274 1.135.295.593.37 1.27.212 1.913a4.188 4.188 0 0 1-.743 1.824c-.344.471-.787.862-1.297 1.144a5.642 5.642 0 0 1-1.644.595 9.366 9.366 0 0 1-1.8.175h-11.47l-3.153 17.946h6.836l2.14-12.159h5.016c1.562.01 3.12-.14 4.652-.45 1.4-.276 2.74-.802 3.953-1.554a9.74 9.74 0 0 0 2.937-2.945 12.113 12.113 0 0 0 1.688-4.575c.325-1.847.28-3.378-.135-4.594a6.026 6.026 0 0 0-2.053-2.904zM121.949 29.301a5.968 5.968 0 0 0-2.04-2.904 8.641 8.641 0 0 0-3.49-1.518 21.784 21.784 0 0 0-4.503-.45h-11.56l-1.022 5.804h10.38c.667.002 1.335.038 1.999.108.626.06 1.236.23 1.801.505.505.247.927.637 1.212 1.121.294.593.369 1.271.211 1.914a4.195 4.195 0 0 1-.738 1.824c-.346.47-.79.86-1.302 1.144a5.597 5.597 0 0 1-1.643.594 9.352 9.352 0 0 1-1.802.176h-11.42L94.88 55.564h6.867l2.139-12.159h5.012c1.564.011 3.124-.14 4.657-.45 1.39-.281 2.719-.81 3.922-1.563a9.752 9.752 0 0 0 2.941-2.945 12.193 12.193 0 0 0 1.684-4.575c.311-1.824.261-3.355-.153-4.57z" fill="#fff"/><defs><linearGradient id="a" x1="26.342" y1="19.058" x2="20.137" y2="58.198" gradientUnits="userSpaceOnUse"><stop stop-color="#FF6444"/><stop offset="1" stop-color="#FF444F"/></linearGradient></defs></svg>