<svg width="32" height="33" fill="none" xmlns="http://www.w3.org/2000/svg"><g clip-path="url(#a)" fill-rule="evenodd" clip-rule="evenodd"><path d="M6.03.55h19.94a5.979 5.979 0 0 1 5.98 5.98v19.94a5.979 5.979 0 0 1-5.98 5.98H6.03a5.979 5.979 0 0 1-5.98-5.98V6.53c0-1.59.63-3.11 1.75-4.23A5.996 5.996 0 0 1 6.03.55Z" fill="url(#d)"/><path d="M7.88 6.53 6.81 9.86l5.32 6.55L6.8 22.9l.86 3.57 8.26-10.05-8.04-9.89Z" fill="#fff"/><path d="M15.441 6.53h-5.94l2.48 3.05h3.45a6.966 6.966 0 0 1 6.83 6.98c0 1.83-.72 3.58-2 4.89a6.972 6.972 0 0 1-4.84 2.09h-3.73l-2.41 2.93h6.14c5.45-.06 9.82-4.52 9.77-9.97.05-5.45-4.32-9.9-9.76-9.97" fill="#fff"/></g><defs><linearGradient id="d" x1="16.001" y1="32.45" x2="16.001" y2=".55" gradientUnits="userSpaceOnUse"><stop stop-color="#BE1242"/><stop offset="1" stop-color="#FF444F"/></linearGradient><clipPath id="a"><path fill="#fff" transform="translate(0 .5)" d="M0 0h32v32H0z"/></clipPath></defs></svg>