<svg width="32" height="32" viewBox="0 0 32 32" fill="none" xmlns="http://www.w3.org/2000/svg">
<g clip-path="url(#clip0_5947_266995)">
<path fill-rule="evenodd" clip-rule="evenodd" d="M6 0H26C29.31 0 32 2.69 32 6V26C32 29.31 29.31 32 26 32H6C2.69 32 0 29.31 0 26V6C0 2.69 2.69 0 6 0Z" fill="url(#paint0_linear_5947_266995)"/>
<path d="M19.5627 13.6199L15.1727 11.6299L15.9027 15.2899L18.2627 16.3699C19.0627 16.7199 19.7027 17.3599 20.0427 18.1699C20.3827 18.9699 20.4127 19.8799 20.1227 20.6999C19.8327 21.5199 19.2327 22.1999 18.4527 22.5999C17.6727 22.9999 16.7827 23.0899 15.9327 22.8599C15.7527 22.8199 15.5827 22.7599 15.4127 22.6799L13.1727 21.6499L9.72266 23.3399L14.2127 25.3799C17.4327 26.6999 21.1127 25.2299 22.5427 22.0699C23.9827 18.9099 22.6627 15.1699 19.5527 13.6099L19.5627 13.6199Z" fill="white"/>
<path d="M13.7609 15.7096C12.9609 15.3596 12.3209 14.7196 11.9709 13.9196C11.6209 13.1196 11.5909 12.2096 11.8909 11.3896C12.1909 10.5696 12.7809 9.87957 13.5609 9.47957C14.3409 9.07957 15.2409 8.98957 16.0809 9.22957C16.2609 9.26957 16.4309 9.32957 16.6009 9.40957L18.8709 10.4396L22.3209 8.74957L17.8309 6.70957C17.5009 6.55957 17.1509 6.44957 16.7909 6.35957C13.5709 5.57957 10.2909 7.35957 9.18088 10.4796C8.07088 13.5996 9.49088 17.0496 12.4709 18.4896L16.8609 20.4796L16.1109 16.7896L13.7509 15.7296L13.7609 15.7096Z" fill="white"/>
</g>
<defs>
<linearGradient id="paint0_linear_5947_266995" x1="16" y1="32" x2="16" y2="0" gradientUnits="userSpaceOnUse">
<stop stop-color="#2A3052"/>
<stop offset="1" stop-color="#4B62AA"/>
</linearGradient>
<clipPath id="clip0_5947_266995">
<rect width="32" height="32" fill="white"/>
</clipPath>
</defs>
</svg>
