<svg width="128" height="80" fill="none" xmlns="http://www.w3.org/2000/svg"><g opacity=".997" fill="#fff"><path d="M19.04 28a9.227 9.227 0 0 0-9.226 9.226 9.698 9.698 0 0 0 4.902 8.392V42.15c-.039-1.314-.02-2.67-.008-3.588.005-.33.008-.605.008-.8v-.332a10.296 10.296 0 0 1 9.152-5.352 8.233 8.233 0 0 1 3.21.696A9.238 9.238 0 0 0 19.042 28z"/><path d="M15.595 37.923a9.777 9.777 0 0 1 8.38-5.052 9.355 9.355 0 0 1 9.216 9.344 9.217 9.217 0 0 1-4.763 8.07 8.115 8.115 0 0 0 .696-3.21 10.286 10.286 0 0 0-5.352-9.152h-.193c-.148 0-.383-.005-.681-.01-.934-.018-2.491-.047-3.975.01h-3.328zM14.31 46.593l-.193-.086c-3.21-2.462-5.041-4.838-5.084-9.044a10.987 10.987 0 0 1 .31-3.083 8.616 8.616 0 0 0-4.334 7.867 9.129 9.129 0 0 0 9.13 9.14 9.569 9.569 0 0 0 8.263-4.794H14.31z"/><path d="M23.354 38.875v3.446c.04 1.257.021 2.547.009 3.453-.005.336-.009.62-.009.829v.364a10.189 10.189 0 0 1-9.055 5.351 8.249 8.249 0 0 1-3.211-.685 9.13 9.13 0 0 0 17.125-4.42 9.536 9.536 0 0 0-4.859-8.338z"/><path fill-rule="evenodd" clip-rule="evenodd" d="M55.684 41.812c-.527-.348-1.143-.522-1.85-.522-1.043 0-1.932.424-2.67 1.27-.737.847-1.106 2.024-1.106 3.531 0 1.599.366 2.744 1.098 3.436.731.693 1.585 1.038 2.56 1.038.701 0 1.264-.11 1.69-.336.427-.223.79-.566 1.093-1.026.017 1.24-.081 2.1-.293 2.582-.36.818-1.12 1.227-2.28 1.227-.734 0-1.271-.168-1.614-.504-.182-.183-.313-.43-.395-.74l-.043-.193h-1.538c.078.926.449 1.604 1.11 2.039.662.434 1.477.652 2.447.652 1.744 0 2.928-.611 3.557-1.834.303-.595.469-1.386.5-2.372l.004-.336v-8.19h-1.396v1.135c-.296-.375-.589-.66-.874-.857zm-3.76 2.312c.394-.997 1.122-1.496 2.187-1.496a2.21 2.21 0 0 1 1.758.807c.46.538.69 1.364.69 2.48 0 .74-.124 1.388-.37 1.943-.444.981-1.209 1.471-2.296 1.471-.696 0-1.25-.264-1.661-.794-.412-.53-.618-1.303-.618-2.317 0-.863.104-1.56.31-2.094zM122.73 41.812c-.528-.348-1.143-.522-1.85-.522h-.001c-1.042 0-1.932.424-2.669 1.27-.738.847-1.106 2.024-1.106 3.531 0 1.599.365 2.744 1.097 3.436.731.693 1.585 1.038 2.56 1.038.701 0 1.264-.11 1.69-.336.426-.223.791-.566 1.094-1.026.016 1.24-.081 2.1-.294 2.582-.359.818-1.119 1.227-2.279 1.227-.734 0-1.272-.168-1.615-.504-.182-.183-.314-.43-.394-.74l-.043-.193h-1.539c.078.926.449 1.604 1.11 2.039.662.434 1.477.652 2.447.652 1.744 0 2.929-.611 3.557-1.834.303-.595.47-1.386.5-2.372l.005-.336v-8.19h-1.396v1.135c-.296-.375-.589-.66-.874-.857zm-3.759 2.312c.391-.997 1.12-1.496 2.186-1.496h-.001c.713 0 1.299.269 1.758.807.46.538.69 1.364.69 2.48 0 .74-.124 1.388-.37 1.943-.443.981-1.209 1.471-2.296 1.471-.695 0-1.248-.264-1.66-.794-.412-.53-.618-1.303-.618-2.317 0-.863.103-1.56.311-2.094zM105.12 42.35c-.801-.773-1.782-1.16-2.943-1.16-1.294 0-2.326.448-3.094 1.345-.768.898-1.152 2.102-1.152 3.616 0 1.412.365 2.538 1.093 3.376.729.838 1.712 1.257 2.952 1.257 1.485 0 2.582-.473 3.288-1.42.706-.948 1.06-2.148 1.06-3.6 0-1.503-.401-2.64-1.204-3.415zm-5.002 1.22c.419-.707 1.093-1.06 2.017-1.06 1.043 0 1.778.414 2.204 1.244.269.528.404 1.212.404 2.052 0 .93-.187 1.775-.56 2.535-.373.76-1.061 1.14-2.064 1.14-.914 0-1.582-.32-2.001-.959-.42-.639-.632-1.437-.632-2.396 0-.998.211-1.85.632-2.556zM66.346 41.837c-.661-.404-1.522-.605-2.581-.605-.913 0-1.717.217-2.409.652-.692.434-1.053 1.207-1.08 2.317h1.412c.056-.465.177-.815.362-1.05.33-.427.89-.64 1.682-.64.683 0 1.21.116 1.576.348.367.233.551.608.551 1.124 0 .251-.034.445-.101.58-.118.246-.35.392-.698.437l-2.414.303c-.846.107-1.53.39-2.052.848-.52.46-.78 1.108-.78 1.943 0 .763.263 1.398.793 1.905.53.508 1.213.761 2.048.761.695 0 1.331-.148 1.91-.446.576-.297 1.02-.648 1.328-1.051.05.36.137.637.26.833.235.37.614.555 1.136.555.212 0 .38-.009.503-.026.125-.017.303-.059.539-.126v-1.12c-.095.018-.185.03-.269.04-.084.008-.16.012-.228.012-.206 0-.342-.048-.407-.143a.667.667 0 0 1-.096-.38v-5.187c0-.852-.329-1.48-.985-1.884zm-.678 4.122.149-.086v1.22c0 .93-.421 1.6-1.261 2.01a3.443 3.443 0 0 1-1.548.37c-.437 0-.816-.127-1.135-.38-.32-.252-.479-.597-.479-1.033 0-.577.232-.998.698-1.262.235-.134.571-.238 1.01-.31l.226-.035.917-.117c.279-.034.566-.09.857-.169.219-.058.407-.128.566-.208z"/><path d="M90.48 47.43v-5.98h-1.546v6.123c0 .767.125 1.38.379 1.84.464.86 1.338 1.287 2.622 1.287.824 0 1.525-.235 2.102-.706.234-.188.437-.411.61-.668l.122-.198-.017 1.328h1.43V41.45h-1.514v4.424c0 .88-.103 1.571-.31 2.077-.382.941-1.1 1.413-2.153 1.413-.736 0-1.236-.27-1.506-.809-.121-.243-.192-.543-.212-.903l-.007-.223zM46.315 48.111l-6.24-10.008h-1.976v12.353h1.597v-9.998l6.332 9.998h1.875V38.103h-1.588v10.008zM76.782 42.586c-.448-.892-1.312-1.338-2.59-1.338-.583 0-1.112.116-1.59.345-.408.197-.798.503-1.168.918l-.185.217V41.45H69.81v9.006h1.514V45.74c0-.588.038-1.041.113-1.359.076-.316.24-.623.492-.92.314-.37.679-.617 1.093-.74.23-.073.525-.11.883-.11.707 0 1.195.281 1.463.842.14.288.22.654.24 1.1l.004.228v5.676h1.54V44.68c0-.909-.125-1.607-.37-2.094zM81.265 48.985V38.103H79.59v12.353h7.93v-1.471h-6.255zM115.094 42.586c-.449-.892-1.312-1.338-2.59-1.338-.584 0-1.112.116-1.59.345-.408.197-.798.503-1.17.918l-.184.217V41.45h-1.437v9.006h1.513V45.74c0-.588.039-1.041.114-1.359.075-.316.239-.623.492-.92.314-.37.679-.617 1.093-.74.23-.073.524-.11.883-.11.706 0 1.194.281 1.463.842.139.288.219.654.239 1.1l.005.228v5.676h1.539V44.68c0-.909-.124-1.607-.37-2.094z"/></g></svg>