<svg viewBox="0 0 128 80" fill="none" xmlns="http://www.w3.org/2000/svg"><path d="M16.723 45.498 6 46.17c.315 3.682 1.667 6.718 4.056 9.106 2.388 2.389 6.684 3.583 12.887 3.583 3.533 0 6.46-.506 8.783-1.518 2.322-1.028 4.13-2.53 5.424-4.503 1.294-1.974 1.94-4.13 1.94-6.469 0-1.99-.489-3.79-1.467-5.399-.962-1.609-2.513-2.952-4.653-4.03-2.123-1.095-5.648-2.173-10.574-3.235-1.99-.415-3.251-.862-3.782-1.343-.547-.465-.82-.987-.82-1.568 0-.796.33-1.468.994-2.015.664-.564 1.65-.846 2.961-.846 1.592 0 2.836.373 3.732 1.12.912.746 1.51 1.94 1.791 3.582l10.624-.622c-.464-3.781-1.924-6.535-4.379-8.26-2.438-1.742-5.987-2.612-10.648-2.612-3.799 0-6.793.48-8.982 1.443-2.173.945-3.807 2.256-4.901 3.93-1.079 1.66-1.618 3.426-1.618 5.3 0 2.853 1.062 5.2 3.185 7.041 2.107 1.841 5.631 3.318 10.574 4.429 3.019.663 4.943 1.368 5.772 2.115.83.746 1.244 1.592 1.244 2.538 0 .995-.44 1.874-1.318 2.637-.863.746-2.099 1.12-3.707 1.12-2.157 0-3.815-.739-4.976-2.215-.714-.912-1.186-2.24-1.419-3.98z" fill="#303992"/><path fill-rule="evenodd" clip-rule="evenodd" d="M60.676 21.763H41.94v36.474h11.32V44.702h6.17c4.546 0 7.921-1.037 10.127-3.11 2.223-2.073 3.334-4.951 3.334-8.633 0-3.583-1.02-6.345-3.06-8.285-2.024-1.941-5.076-2.911-9.156-2.911zm-4.653 15.55h-2.761v-8.136h3.21c2.106 0 3.54.398 4.303 1.194.763.796 1.145 1.767 1.145 2.911 0 1.178-.44 2.148-1.319 2.911-.879.747-2.405 1.12-4.578 1.12z" fill="#303992"/><path d="M122 21.763h-11.296V32.76h4.777v-7.962L122 32.319V21.763zM122 41.161l-6.519 7.522V40.72h-4.777v17.516H122V41.16z" fill="#303992"/><path d="M75.701 21.762h30.205v8.836h-18.91v4.748h17.541v7.09h-17.54v8.239h19.456v7.56H75.701V21.763z" fill="#F6861E"/></svg>