<svg width="128" height="80" fill="none" xmlns="http://www.w3.org/2000/svg"><path d="M44.008 30.756v15.806h4.083V30.756h5.675V27H38.333v3.756h5.675z" fill="#0EE06E"/><path d="M53.122 32.37v14.204h3.896v-6.271c0-3.112 1.58-4.13 3.346-4.13h1.229V32.37h-1.45c-1.23 0-2.376.34-3.265 2.247V32.37h-3.756zM63.36 41.367V32.37h3.884v8.12c0 1.661.807 2.89 2.469 2.89 1.603 0 2.62-1.229 2.62-2.867V32.37h3.885v14.204H72.52v-1.79c-.936 1.416-2.329 2.117-4.095 2.117-3.112-.011-5.066-2.152-5.066-5.534zM81.26 41.8l-3.38.773c.151 1.556 1.626 4.258 6.142 4.27 4.107 0 5.897-2.363 5.897-4.61 0-2.094-1.147-3.568-3.616-4.13l-3.24-.749c-.703-.163-1.1-.491-1.1-1.076 0-.702.795-1.182 1.872-1.182 1.696 0 2.305.913 2.468 1.744l3.405-.75c-.164-1.579-1.778-3.989-5.791-3.989-3.78 0-5.792 1.966-5.792 4.4 0 2.386 1.205 3.697 4.048 4.317l2.223.48c1.346.292 1.638.69 1.638 1.228 0 .667-.725 1.205-2.035 1.205-1.697 0-2.575-.83-2.738-1.93zM97.383 46.562c-2.515 0-4.2-1.392-4.2-4.153v-6.646h-2.387v-3.405h2.387V29.2l3.884-1.123v4.282h2.867v3.405h-2.867v5.944c0 1.041.539 1.45 1.58 1.45h1.497v3.405h-2.76zM102.25 27.012v19.562h3.885V27.012h-3.885zM117.846 32.37H122L116 53h-4l1.564-6.426h-2.141l-3.908-14.204h4.154l2.925 10.986 3.252-10.986zM15.114 35.576H6v-8.564h26.056v8.564h-8.108v10.986h-8.834v-3.72l7.278-7.266-7.278-7.277v7.277z" fill="#0EE06E"/></svg>