<svg width="128" height="80" fill="none" xmlns="http://www.w3.org/2000/svg"><path d="M83.51 27.143A17.149 17.149 0 0 0 77.272 26c-6.883 0-11.73 3.682-11.77 8.953 0 3.894 3.456 6.069 6.096 7.363 2.64 1.295 3.628 2.185 3.618 3.369 0 1.82-2.166 2.65-4.172 2.65a13.893 13.893 0 0 1-6.55-1.426l-.897-.425-1.008 6.07A21.224 21.224 0 0 0 70.35 54c7.306 0 12.093-3.642 12.093-9.266 0-3.095-1.834-5.432-5.855-7.364-2.429-1.264-3.92-2.094-3.9-3.368.02-1.275 1.26-2.337 3.98-2.337 1.79-.045 3.567.3 5.21 1.012l.625.313.946-5.87.062.023z" fill="#1A1F71"/><path fill-rule="evenodd" clip-rule="evenodd" d="M95.986 26.506a3.425 3.425 0 0 0-3.648 2.246l-10.34 24.853h7.316s1.19-3.348 1.462-4.046h8.908c.083.374.233 1.078.385 1.796l.082.391.389 1.86H107l-5.633-27.1h-5.382zm-.18 9.196c.196-.546.467-1.309.663-1.892l.474 2.346.73 3.526.104.503c.33 1.595.658 3.191.778 3.79h-5.774c.574-1.557 2.771-7.576 2.771-7.576l.162-.444.091-.253z" fill="#1A1F71"/><path d="m58.256 53.595 4.353-27.12h-6.953l-4.353 27.12h6.953zM35.481 28.772c-.423-1.72-1.653-2.225-3.164-2.286H21.09l-.091.556c2.733.703 5.177 1.716 7.319 2.976l6.185 23.547h7.326l11.004-27.069h-7.376l-6.813 18.491-.725-3.763-.034-.111.034.09-2.439-12.431zM76.573 57.96h-.922v7.447h.922v-7.446zM73.912 62.094h-2.738v2.548h3.063v.766H70.25v-7.07h3.828v.767h-2.905v2.234h2.738v.755z" fill="#1A1F71"/><path fill-rule="evenodd" clip-rule="evenodd" d="M80.642 64.8c-.933 0-1.72-.514-1.74-1.762h3.565c.021-.105.032-.242.032-.43 0-.933-.43-2.381-2.098-2.381-1.48 0-2.38 1.196-2.38 2.727s.933 2.57 2.495 2.57c.808 0 1.374-.179 1.7-.325l-.168-.661c-.336.146-.745.262-1.406.262zm-.314-3.912c1.038 0 1.29.912 1.279 1.489H78.91c.074-.64.472-1.49 1.416-1.49z" fill="#1A1F71"/><path d="M87.52 65.23c-.241.115-.776.293-1.458.293-1.53 0-2.527-1.038-2.527-2.59 0-1.563 1.069-2.706 2.726-2.706.546 0 1.028.136 1.28.273l-.21.702c-.22-.115-.567-.241-1.07-.241-1.164 0-1.793.87-1.793 1.92 0 1.174.755 1.898 1.762 1.898.524 0 .87-.126 1.132-.242l.158.693zM90.109 59.115v1.217h1.32v.702h-1.32v2.738c0 .63.178.986.692.986.251 0 .399-.02.535-.063l.042.703a2.522 2.522 0 0 1-.818.126c-.43 0-.777-.148-.996-.388-.252-.284-.357-.734-.357-1.332v-2.77h-.787v-.702h.787v-.944l.902-.273zM92.72 61.916c0-.598-.012-1.112-.043-1.584h.808l.042 1.007h.03c.232-.682.798-1.112 1.416-1.112.084 0 .15.008.222.017l.03.004v.87c-.094-.02-.188-.02-.314-.02-.65 0-1.112.482-1.238 1.174a2.79 2.79 0 0 0-.031.43v2.706h-.923v-3.492z" fill="#1A1F71"/><path fill-rule="evenodd" clip-rule="evenodd" d="M100.898 62.828c0 1.877-1.311 2.695-2.528 2.695-1.363 0-2.433-1.007-2.433-2.611 0-1.689 1.122-2.685 2.517-2.685 1.458 0 2.444 1.059 2.444 2.6zm-4.017.053c0 1.111.63 1.95 1.531 1.95.881 0 1.541-.829 1.541-1.972 0-.86-.43-1.94-1.52-1.94-1.08 0-1.552 1.007-1.552 1.962z" fill="#1A1F71"/><path d="M102.312 61.705c0-.535-.011-.954-.042-1.374h.818l.053.84h.021c.251-.473.839-.945 1.678-.945.702 0 1.793.42 1.793 2.16v3.021h-.923v-2.926c0-.818-.304-1.5-1.174-1.5-.598 0-1.07.43-1.238.944a1.326 1.326 0 0 0-.063.43v3.052h-.923v-3.702z" fill="#1A1F71"/></svg>