<svg width="177" height="64" viewBox="0 0 177 64" fill="none" xmlns="http://www.w3.org/2000/svg">
<g clip-path="url(#clip0_38405_83131)">
<path d="M52.5 0H12.5C5.87258 0 0.5 5.37258 0.5 12V47H64.5V12C64.5 5.37258 59.1274 0 52.5 0Z" fill="#0364B9"/>
<path d="M12.5 0C5.87258 0 0.5 5.37258 0.5 12V12.3486L60.3289 2.90529C58.2274 1.09467 55.4915 0 52.5 0H12.5Z" fill="#0A559E"/>
<path d="M64.5 12C64.5 8.99153 63.3931 6.2409 61.5641 4.13477L53.7056 46.9993L64.5 47V12Z" fill="#0A559E"/>
<path d="M0.5 46H64.5V52C64.5 58.6274 59.1274 64 52.5 64H12.5C5.87258 64 0.5 58.6274 0.5 52V46Z" fill="#2A3052"/>
<path d="M15.1923 19.368C15.4803 19.896 15.8083 20.552 16.1763 21.336C16.5603 22.104 16.9523 22.944 17.3523 23.856C17.7683 24.752 18.1763 25.672 18.5763 26.616C18.9763 27.56 19.3523 28.448 19.7043 29.28C20.0563 28.448 20.4323 27.56 20.8323 26.616C21.2323 25.672 21.6323 24.752 22.0323 23.856C22.4483 22.944 22.8403 22.104 23.2083 21.336C23.5923 20.552 23.9283 19.896 24.2163 19.368H27.6243C27.7843 20.472 27.9283 21.712 28.0563 23.088C28.2003 24.448 28.3203 25.872 28.4163 27.36C28.5283 28.832 28.6243 30.312 28.7043 31.8C28.8003 33.288 28.8803 34.688 28.9443 36H25.2963C25.2483 34.384 25.1843 32.624 25.1043 30.72C25.0243 28.816 24.9043 26.896 24.7443 24.96C24.4563 25.632 24.1363 26.376 23.7843 27.192C23.4323 28.008 23.0803 28.824 22.7283 29.64C22.3923 30.456 22.0643 31.24 21.7443 31.992C21.4243 32.728 21.1523 33.36 20.9283 33.888H18.3123C18.0883 33.36 17.8163 32.728 17.4963 31.992C17.1763 31.24 16.8403 30.456 16.4883 29.64C16.1523 28.824 15.8083 28.008 15.4563 27.192C15.1043 26.376 14.7843 25.632 14.4963 24.96C14.3363 26.896 14.2163 28.816 14.1363 30.72C14.0563 32.624 13.9923 34.384 13.9443 36H10.2963C10.3603 34.688 10.4323 33.288 10.5123 31.8C10.6083 30.312 10.7043 28.832 10.8003 27.36C10.9123 25.872 11.0323 24.448 11.1603 23.088C11.3043 21.712 11.4563 20.472 11.6163 19.368H15.1923Z" fill="white"/>
<path d="M43.2169 19.368V22.56H38.2009V36H34.4569V22.56H29.4409V19.368H43.2169Z" fill="white"/>
<path d="M51.1431 31.104C51.1431 30.64 51.0391 30.232 50.8311 29.88C50.6231 29.512 50.2631 29.208 49.7511 28.968C49.2391 28.728 48.5511 28.544 47.6871 28.416C46.8231 28.288 45.7351 28.224 44.4231 28.224C44.5991 26.736 44.7431 25.224 44.8551 23.688C44.9671 22.152 45.0551 20.712 45.1191 19.368H54.1191V22.368H48.1191C48.0871 22.944 48.0471 23.504 47.9991 24.048C47.9671 24.576 47.9271 25.04 47.8791 25.44C50.2151 25.6 51.9351 26.152 53.0391 27.096C54.1591 28.024 54.7191 29.32 54.7191 30.984C54.7191 31.752 54.5831 32.464 54.3111 33.12C54.0391 33.776 53.6311 34.344 53.0871 34.824C52.5431 35.304 51.8551 35.68 51.0231 35.952C50.2071 36.224 49.2471 36.36 48.1431 36.36C47.7111 36.36 47.2551 36.328 46.7751 36.264C46.3111 36.216 45.8551 36.144 45.4071 36.048C44.9751 35.968 44.5831 35.88 44.2311 35.784C43.8791 35.688 43.6071 35.592 43.4151 35.496L44.0631 32.544C44.4631 32.72 44.9911 32.896 45.6471 33.072C46.3031 33.232 47.0871 33.312 47.9991 33.312C49.1031 33.312 49.9031 33.096 50.3991 32.664C50.8951 32.216 51.1431 31.696 51.1431 31.104Z" fill="white"/>
<path d="M24.2436 57.7439C24.5076 57.7439 24.7236 57.7239 24.8916 57.6839C25.0676 57.6359 25.2076 57.5759 25.3116 57.5039C25.4156 57.4239 25.4876 57.3319 25.5276 57.2279C25.5676 57.1239 25.5876 57.0079 25.5876 56.8799C25.5876 56.6079 25.4596 56.3839 25.2036 56.2079C24.9476 56.0239 24.5076 55.8279 23.8836 55.6199C23.6116 55.5239 23.3396 55.4159 23.0676 55.2959C22.7956 55.1679 22.5516 55.0119 22.3356 54.8279C22.1196 54.6359 21.9436 54.4079 21.8076 54.1439C21.6716 53.8719 21.6036 53.5439 21.6036 53.1599C21.6036 52.7759 21.6756 52.4319 21.8196 52.1279C21.9636 51.8159 22.1676 51.5519 22.4316 51.3359C22.6956 51.1199 23.0156 50.9559 23.3916 50.8439C23.7676 50.7239 24.1916 50.6639 24.6636 50.6639C25.2236 50.6639 25.7076 50.7239 26.1156 50.8439C26.5236 50.9639 26.8596 51.0959 27.1236 51.2399L26.5836 52.7159C26.3516 52.5959 26.0916 52.4919 25.8036 52.4039C25.5236 52.3079 25.1836 52.2599 24.7836 52.2599C24.3356 52.2599 24.0116 52.3239 23.8116 52.4519C23.6196 52.5719 23.5236 52.7599 23.5236 53.0159C23.5236 53.1679 23.5596 53.2959 23.6316 53.3999C23.7036 53.5039 23.8036 53.5999 23.9316 53.6879C24.0676 53.7679 24.2196 53.8439 24.3876 53.9159C24.5636 53.9799 24.7556 54.0479 24.9636 54.1199C25.3956 54.2799 25.7716 54.4399 26.0916 54.5999C26.4116 54.7519 26.6756 54.9319 26.8836 55.1399C27.0996 55.3479 27.2596 55.5919 27.3636 55.8719C27.4676 56.1519 27.5196 56.4919 27.5196 56.8919C27.5196 57.6679 27.2476 58.2719 26.7036 58.7039C26.1596 59.1279 25.3396 59.3399 24.2436 59.3399C23.8756 59.3399 23.5436 59.3159 23.2476 59.2679C22.9516 59.2279 22.6876 59.1759 22.4556 59.1119C22.2316 59.0479 22.0356 58.9799 21.8676 58.9079C21.7076 58.8359 21.5716 58.7679 21.4596 58.7039L21.9876 57.2159C22.2356 57.3519 22.5396 57.4759 22.8996 57.5879C23.2676 57.6919 23.7156 57.7439 24.2436 57.7439Z" fill="white"/>
<path d="M34.8936 50.8559V52.4519H32.3856V59.1719H30.5136V52.4519H28.0056V50.8559H34.8936Z" fill="white"/>
<path d="M37.9687 57.6479C38.0567 57.6559 38.1567 57.6639 38.2687 57.6719C38.3887 57.6719 38.5287 57.6719 38.6887 57.6719C39.6247 57.6719 40.3167 57.4359 40.7647 56.9639C41.2207 56.4919 41.4487 55.8399 41.4487 55.0079C41.4487 54.1359 41.2327 53.4759 40.8007 53.0279C40.3687 52.5799 39.6847 52.3559 38.7487 52.3559C38.6207 52.3559 38.4887 52.3599 38.3527 52.3679C38.2167 52.3679 38.0887 52.3759 37.9687 52.3919V57.6479ZM43.3807 55.0079C43.3807 55.7279 43.2687 56.3559 43.0447 56.8919C42.8207 57.4279 42.5007 57.8719 42.0847 58.2239C41.6767 58.5759 41.1767 58.8399 40.5847 59.0159C39.9927 59.1919 39.3287 59.2799 38.5927 59.2799C38.2567 59.2799 37.8647 59.2639 37.4167 59.2319C36.9687 59.2079 36.5287 59.1519 36.0967 59.0639V50.9639C36.5287 50.8839 36.9767 50.8319 37.4407 50.8079C37.9127 50.7759 38.3167 50.7599 38.6527 50.7599C39.3647 50.7599 40.0087 50.8399 40.5847 50.9999C41.1687 51.1599 41.6687 51.4119 42.0847 51.7559C42.5007 52.0999 42.8207 52.5399 43.0447 53.0759C43.2687 53.6119 43.3807 54.2559 43.3807 55.0079Z" fill="white"/>
</g>
<path d="M77.25 32.5C77.25 29.0625 80.0234 26.25 83.5 26.25H86.3125C86.8203 26.25 87.25 26.6797 87.25 27.1875C87.25 27.7344 86.8203 28.125 86.3125 28.125H83.5C81.0781 28.125 79.125 30.1172 79.125 32.5C79.125 34.9219 81.0781 36.875 83.5 36.875H86.3125C86.8203 36.875 87.25 37.3047 87.25 37.8125C87.25 38.3594 86.8203 38.75 86.3125 38.75H83.5C80.0234 38.75 77.25 35.9766 77.25 32.5ZM99.75 32.5C99.75 35.9766 96.9375 38.75 93.5 38.75H90.6875C90.1406 38.75 89.75 38.3594 89.75 37.8125C89.75 37.3047 90.1406 36.875 90.6875 36.875H93.5C95.8828 36.875 97.875 34.9219 97.875 32.5C97.875 30.1172 95.8828 28.125 93.5 28.125H90.6875C90.1406 28.125 89.75 27.7344 89.75 27.1875C89.75 26.6797 90.1406 26.25 90.6875 26.25H93.5C96.9375 26.25 99.75 29.0625 99.75 32.5ZM84.4375 31.5625H92.5625C93.0703 31.5625 93.5 31.9922 93.5 32.5C93.5 33.0469 93.0703 33.4375 92.5625 33.4375H84.4375C83.8906 33.4375 83.5 33.0469 83.5 32.5C83.5 31.9922 83.8906 31.5625 84.4375 31.5625Z" fill="black" fill-opacity="0.72"/>
<path d="M112.5 12C112.5 5.37258 117.873 0 124.5 0H164.5C171.127 0 176.5 5.37258 176.5 12V52C176.5 58.6274 171.127 64 164.5 64H124.5C117.873 64 112.5 58.6274 112.5 52V12Z" fill="#FF444F"/>
<path d="M124.5 0C117.873 0 112.5 5.37258 112.5 12V12.3486L172.329 2.90529C170.227 1.09467 167.492 0 164.5 0H124.5Z" fill="#E12E3A"/>
<path d="M173.564 4.13549L162.589 63.9999L164.5 64C171.127 64 176.5 58.6274 176.5 52V12C176.5 8.99153 175.393 6.24163 173.564 4.13549Z" fill="#E12E3A"/>
<path d="M131.873 37.694C132.064 37.7113 132.28 37.7286 132.523 37.746C132.783 37.746 133.086 37.746 133.433 37.746C135.461 37.746 136.96 37.2346 137.931 36.212C138.919 35.1893 139.413 33.7766 139.413 31.974C139.413 30.0846 138.945 28.6546 138.009 27.684C137.073 26.7133 135.591 26.228 133.563 26.228C133.286 26.228 133 26.2366 132.705 26.254C132.41 26.254 132.133 26.2713 131.873 26.306V37.694ZM143.599 31.974C143.599 33.534 143.356 34.8946 142.871 36.056C142.386 37.2173 141.692 38.1793 140.791 38.942C139.907 39.7046 138.824 40.2766 137.541 40.658C136.258 41.0393 134.82 41.23 133.225 41.23C132.497 41.23 131.648 41.1953 130.677 41.126C129.706 41.074 128.753 40.9526 127.817 40.762V23.212C128.753 23.0386 129.724 22.926 130.729 22.874C131.752 22.8046 132.627 22.77 133.355 22.77C134.898 22.77 136.293 22.9433 137.541 23.29C138.806 23.6366 139.89 24.1826 140.791 24.928C141.692 25.6733 142.386 26.6266 142.871 27.788C143.356 28.9493 143.599 30.3446 143.599 31.974Z" fill="white"/>
<path d="M157.777 40.996C156.615 38.9333 155.359 36.8966 154.007 34.886C152.655 32.8753 151.216 30.9773 149.691 29.192V40.996H145.687V22.978H148.989C149.561 23.55 150.193 24.252 150.887 25.084C151.58 25.916 152.282 26.8086 152.993 27.762C153.721 28.698 154.44 29.6773 155.151 30.7C155.861 31.7053 156.529 32.676 157.153 33.612V22.978H161.183V40.996H157.777Z" fill="white"/>
<defs>
<clipPath id="clip0_38405_83131">
<rect width="64" height="64" fill="white" transform="translate(0.5)"/>
</clipPath>
</defs>
</svg>
