<svg xmlns="http://www.w3.org/2000/svg" fill="none" viewBox="0 0 345 72"><path fill="#384177" d="M0 13.5C0 6.044 6.044 0 13.5 0h45C65.956 0 72 6.044 72 13.5v45C72 65.956 65.956 72 58.5 72h-45C6.044 72 0 65.956 0 58.5v-45Z"/><path fill="#2A3052" d="M13.5 0C6.044 0 0 6.044 0 13.5v.392L67.308 3.268A13.447 13.447 0 0 0 58.5 0h-45Zm55.197 4.652L56.35 72h2.15C65.956 72 72 65.956 72 58.5v-45c0-3.384-1.246-6.478-3.303-8.848Z"/><path fill="#fff" d="M26.463 43.198c.693 0 1.26-.053 1.701-.158.462-.126.83-.283 1.103-.472.273-.21.462-.452.567-.725.105-.273.157-.577.157-.913 0-.714-.336-1.302-1.008-1.764-.672-.483-1.827-.998-3.465-1.544a30.247 30.247 0 0 1-2.142-.85 8.576 8.576 0 0 1-1.921-1.229 6.14 6.14 0 0 1-1.386-1.795c-.357-.714-.536-1.575-.536-2.583 0-1.008.19-1.911.567-2.71a5.78 5.78 0 0 1 1.607-2.078c.693-.567 1.533-.998 2.52-1.292.987-.315 2.1-.472 3.339-.472 1.47 0 2.74.157 3.811.472 1.071.315 1.953.662 2.646 1.04l-1.417 3.874a12.235 12.235 0 0 0-2.048-.819c-.735-.252-1.627-.378-2.677-.378-1.176 0-2.027.168-2.552.504-.504.315-.756.809-.756 1.48 0 .4.095.736.284 1.009.189.273.451.525.787.756.357.21.756.41 1.197.598.462.168.966.347 1.512.536 1.134.42 2.121.84 2.961 1.26.84.399 1.533.871 2.08 1.417a5.101 5.101 0 0 1 1.26 1.922c.272.735.409 1.627.409 2.677 0 2.037-.714 3.623-2.142 4.757-1.428 1.113-3.58 1.67-6.458 1.67-.966 0-1.837-.064-2.614-.19a15.846 15.846 0 0 1-2.08-.41 13.045 13.045 0 0 1-1.543-.535c-.42-.189-.777-.367-1.07-.535l1.385-3.906c.651.357 1.45.682 2.394.976.966.273 2.142.41 3.528.41Zm26.382-18.081v4.19H46.26v17.64h-4.914v-17.64h-6.583v-4.19h18.08Z"/><path fill="var(--text-general)" d="M98.961 48.38c1.04 0 1.89-.08 2.552-.237.693-.189 1.244-.425 1.653-.709.41-.314.693-.677.851-1.086.157-.41.236-.867.236-1.37 0-1.072-.504-1.953-1.512-2.647-1.008-.724-2.74-1.496-5.198-2.315a45.37 45.37 0 0 1-3.213-1.276 12.863 12.863 0 0 1-2.882-1.842 9.21 9.21 0 0 1-2.079-2.694c-.535-1.07-.803-2.362-.803-3.874s.284-2.866.85-4.063a8.67 8.67 0 0 1 2.41-3.119c1.04-.85 2.3-1.496 3.78-1.937 1.48-.473 3.15-.709 5.009-.709 2.205 0 4.111.236 5.717.709 1.607.472 2.93.992 3.969 1.559l-2.126 5.812a18.367 18.367 0 0 0-3.071-1.229c-1.103-.378-2.442-.567-4.017-.567-1.764 0-3.04.252-3.827.756-.756.473-1.134 1.213-1.134 2.221 0 .598.142 1.102.425 1.512.284.41.677.788 1.181 1.134.536.315 1.135.614 1.796.898.693.252 1.449.52 2.268.803 1.701.63 3.182 1.26 4.442 1.89 1.26.599 2.299 1.307 3.118 2.126a7.64 7.64 0 0 1 1.89 2.883c.41 1.102.614 2.44.614 4.016 0 3.055-1.071 5.434-3.213 7.135-2.142 1.669-5.37 2.504-9.686 2.504-1.449 0-2.756-.095-3.922-.284a23.769 23.769 0 0 1-3.118-.614 19.568 19.568 0 0 1-2.316-.803A18.982 18.982 0 0 1 88 52.16l2.079-5.86c.977.536 2.173 1.024 3.591 1.465 1.449.41 3.213.614 5.292.614Zm29.391-7.56c0-2.269-.299-3.875-.898-4.82-.567-.945-1.559-1.417-2.976-1.417-.441 0-.898.031-1.371.094-.472.032-.929.079-1.37.142v19.183h-7.04V30a35.838 35.838 0 0 1 2.079-.472 30.566 30.566 0 0 1 2.551-.473 26.967 26.967 0 0 1 2.788-.33 28.006 28.006 0 0 1 2.788-.142c1.795 0 3.244.236 4.347.709 1.134.44 2.063.976 2.788 1.606 1.008-.724 2.157-1.291 3.449-1.701 1.323-.41 2.536-.614 3.638-.614 1.985 0 3.607.283 4.867.85 1.291.536 2.315 1.308 3.071 2.316.756 1.007 1.276 2.204 1.559 3.59.284 1.386.426 2.93.426 4.631v14.033h-7.041V40.82c0-2.268-.299-3.874-.897-4.819-.567-.945-1.56-1.417-2.977-1.417-.378 0-.914.094-1.607.283-.661.189-1.212.425-1.653.709.22.724.362 1.496.425 2.315.063.788.094 1.638.094 2.551v13.561h-7.04V40.82Zm34.223 8.268c.693 0 1.355-.016 1.985-.047a13.81 13.81 0 0 0 1.512-.142V43.56a13.03 13.03 0 0 0-1.276-.189 14.21 14.21 0 0 0-1.559-.095c-.662 0-1.292.048-1.89.142a4.456 4.456 0 0 0-1.512.425c-.441.221-.788.52-1.04.898s-.378.85-.378 1.418c0 1.102.363 1.874 1.087 2.315.756.41 1.78.614 3.071.614Zm-.567-20.6c2.079 0 3.812.236 5.198.708 1.386.473 2.488 1.15 3.307 2.032.851.882 1.449 1.953 1.796 3.213.346 1.26.52 2.661.52 4.205v14.648c-1.008.22-2.41.472-4.206.756-1.795.315-3.969.472-6.52.472-1.607 0-3.071-.142-4.394-.425-1.292-.284-2.41-.74-3.355-1.37a6.557 6.557 0 0 1-2.174-2.552c-.504-1.04-.756-2.315-.756-3.827 0-1.45.284-2.678.851-3.686a6.923 6.923 0 0 1 2.362-2.41c.977-.598 2.095-1.023 3.355-1.275a17.813 17.813 0 0 1 3.922-.425c.913 0 1.717.047 2.41.141.724.063 1.307.158 1.748.284v-.662c0-1.197-.362-2.157-1.087-2.882-.724-.724-1.984-1.087-3.78-1.087a22.11 22.11 0 0 0-3.544.284c-1.165.157-2.173.393-3.024.709l-.897-5.67c.409-.127.913-.253 1.512-.378.63-.158 1.307-.284 2.031-.378a24.81 24.81 0 0 1 2.268-.284 21.418 21.418 0 0 1 2.457-.142Zm29.803 6.898a37.363 37.363 0 0 0-2.221-.473 12.623 12.623 0 0 0-2.741-.283c-.441 0-.976.047-1.606.142-.599.063-1.055.141-1.37.236v18.994h-7.041v-23.53c1.26-.441 2.741-.85 4.442-1.229 1.732-.41 3.654-.614 5.764-.614.378 0 .835.031 1.371.095.535.031 1.071.094 1.606.189.536.063 1.071.157 1.607.283.535.095.992.22 1.37.378l-1.181 5.812Zm2.356-12.427 7.041-1.134v7.324h8.457v5.859h-8.457v8.741c0 1.48.252 2.662.756 3.544.535.882 1.59 1.323 3.165 1.323.756 0 1.528-.063 2.316-.19a13.279 13.279 0 0 0 2.22-.614l.993 5.482a20.14 20.14 0 0 1-2.835.897c-1.04.252-2.316.378-3.828.378-1.921 0-3.512-.252-4.772-.756-1.26-.535-2.268-1.26-3.024-2.173-.756-.945-1.291-2.08-1.606-3.402-.284-1.323-.426-2.788-.426-4.395V22.96Zm43.628-1.701v6.284h-9.875v26.46h-7.371v-26.46h-9.876v-6.284h27.122Z"/><path fill="var(--text-general)" d="M251.399 35.386a37.28 37.28 0 0 0-2.22-.473 12.623 12.623 0 0 0-2.741-.283c-.441 0-.976.047-1.606.142-.599.063-1.056.141-1.371.236v18.994h-7.04v-23.53c1.26-.441 2.741-.85 4.442-1.229 1.732-.41 3.654-.614 5.764-.614.378 0 .835.031 1.37.095a13.96 13.96 0 0 1 1.607.189 14.3 14.3 0 0 1 1.606.283c.536.095.993.22 1.371.378l-1.182 5.812Zm11.629 13.702c.693 0 1.354-.016 1.984-.047a13.81 13.81 0 0 0 1.512-.142V43.56a12.951 12.951 0 0 0-1.275-.189 14.213 14.213 0 0 0-1.56-.095c-.661 0-1.291.048-1.89.142a4.456 4.456 0 0 0-1.512.425c-.441.221-.787.52-1.039.898-.252.378-.378.85-.378 1.418 0 1.102.362 1.874 1.087 2.315.756.41 1.779.614 3.071.614Zm-.567-20.6c2.079 0 3.811.236 5.197.708 1.386.473 2.489 1.15 3.308 2.032.85.882 1.449 1.953 1.795 3.213.347 1.26.52 2.661.52 4.205v14.648c-1.008.22-2.41.472-4.205.756-1.796.315-3.969.472-6.521.472-1.606 0-3.071-.142-4.394-.425-1.291-.284-2.41-.74-3.355-1.37a6.555 6.555 0 0 1-2.173-2.552c-.504-1.04-.756-2.315-.756-3.827 0-1.45.283-2.678.85-3.686a6.926 6.926 0 0 1 2.363-2.41c.976-.598 2.095-1.023 3.355-1.275a17.81 17.81 0 0 1 3.921-.425c.914 0 1.717.047 2.41.141.725.063 1.307.158 1.748.284v-.662c0-1.197-.362-2.157-1.086-2.882-.725-.724-1.985-1.087-3.78-1.087-1.197 0-2.379.095-3.544.284-1.166.157-2.174.393-3.024.709l-.898-5.67c.41-.127.914-.253 1.512-.378.63-.158 1.307-.284 2.032-.378.724-.127 1.48-.221 2.268-.284a21.418 21.418 0 0 1 2.457-.142Zm20.825 12.898c0 2.174.488 3.922 1.464 5.245.977 1.323 2.426 1.985 4.347 1.985.63 0 1.213-.016 1.749-.047a22.89 22.89 0 0 0 1.323-.19V35.575c-.441-.284-1.024-.52-1.749-.709a8.04 8.04 0 0 0-2.126-.283c-3.339 0-5.008 2.267-5.008 6.803ZM299.209 53.2c-.63.189-1.355.378-2.174.567-.819.157-1.685.3-2.598.425a36.61 36.61 0 0 1-2.741.284c-.913.094-1.795.142-2.646.142-2.047 0-3.874-.3-5.481-.898-1.606-.599-2.961-1.45-4.063-2.552-1.103-1.134-1.953-2.488-2.552-4.063-.567-1.607-.85-3.402-.85-5.387 0-2.016.252-3.827.756-5.434.504-1.638 1.228-3.023 2.173-4.157a9.352 9.352 0 0 1 3.449-2.6c1.386-.598 2.961-.897 4.725-.897.977 0 1.843.095 2.599.284.788.189 1.575.456 2.363.803V18.47l7.04-1.134V53.2Zm3.048-11.436c0-2.205.331-4.126.993-5.764.693-1.67 1.59-3.056 2.693-4.158a11.153 11.153 0 0 1 3.78-2.504 12.09 12.09 0 0 1 4.441-.85c3.528 0 6.316 1.086 8.364 3.26 2.047 2.141 3.071 5.307 3.071 9.497 0 .41-.016.866-.047 1.37a77.51 77.51 0 0 1-.095 1.276h-15.97c.157 1.449.834 2.599 2.031 3.449 1.197.85 2.804 1.276 4.82 1.276 1.291 0 2.551-.11 3.78-.331 1.26-.252 2.284-.551 3.071-.898l.945 5.718c-.378.189-.882.378-1.512.567-.63.189-1.339.346-2.126.472-.756.157-1.575.284-2.457.378a24.82 24.82 0 0 1-2.646.142c-2.237 0-4.19-.331-5.859-.992-1.638-.662-3.008-1.56-4.111-2.694-1.071-1.165-1.874-2.535-2.41-4.11-.504-1.576-.756-3.276-.756-5.104Zm16.538-2.693a6.621 6.621 0 0 0-.331-1.748 3.89 3.89 0 0 0-.803-1.512c-.347-.441-.803-.803-1.37-1.087-.536-.283-1.213-.425-2.032-.425-.788 0-1.465.142-2.032.425a3.945 3.945 0 0 0-1.417 1.04c-.378.44-.678.96-.898 1.559-.189.567-.331 1.15-.425 1.748h9.308Zm24.853-3.685a37.363 37.363 0 0 0-2.221-.473 12.623 12.623 0 0 0-2.741-.283c-.441 0-.976.047-1.606.142-.599.063-1.055.141-1.37.236v18.994h-7.041v-23.53c1.26-.441 2.741-.85 4.442-1.229 1.732-.41 3.654-.614 5.764-.614.378 0 .835.031 1.371.095.535.031 1.071.094 1.606.189.536.063 1.071.157 1.607.283.535.095.992.22 1.37.378l-1.181 5.812Z"/></svg>