<svg viewBox="0 0 163 36" fill="none" xmlns="http://www.w3.org/2000/svg"><path fill-rule="evenodd" clip-rule="evenodd" d="M20.739 1.084l-1.772 10.05h-6.152c-5.74 0-11.21 4.65-12.224 10.39l-.43 2.443c-1.009 5.74 2.82 10.39 8.56 10.39h5.131c4.183 0 8.168-3.386 8.904-7.57L27.482 0l-6.743 1.084zM16.374 25.84c-.227 1.292-1.39 2.344-2.682 2.344h-3.117c-2.58 0-4.306-2.094-3.854-4.679l.27-1.523c.457-2.58 2.919-4.678 5.498-4.678h5.39l-1.505 8.536z" fill="#FF444F"/><path d="M68.118 34.359h6.385l4.037-22.902h-6.385L68.118 34.36zM68.33 14.443l.002-.005.479-2.717c-6.552-1.688-11.656.058-13.734.919l-3.832 21.724h6.39l3.109-17.643c.959-.191 4.08-.49 7.105.45l.482-2.728z" fill="#FF444F"/><path fill-rule="evenodd" clip-rule="evenodd" d="M42.914 11.133h-4.966c-4.844 0-9.46 3.923-10.314 8.767l-1.005 5.692c-.854 4.844 2.377 8.768 7.22 8.768h10.574l1.085-6.155H35.57c-1.613 0-2.693-1.306-2.405-2.924l.033-.193h16.02l.915-5.188c.854-4.844-2.377-8.767-7.22-8.767zm.81 8.276l-.037.33h-9.526l.052-.292c.287-1.613 1.759-3.032 3.376-3.032h3.721c1.6 0 2.68 1.396 2.415 2.994z" fill="#FF444F"/><path d="M89.638 26.563c2.9-5.216 6.096-12.06 7.428-15.106h6.395c-2.177 5.788-7.165 15.633-11.998 22.902h-6.39c-2.218-6.919-3.65-16.559-3.924-22.902h6.39c.116 2.07 1.042 9.744 2.1 15.106z" fill="#FF444F"/><path d="M111.779 35.182V2.438h22.113v6.19H119.15v6.426h13.088v6.048H119.15v7.89h15.829v6.19h-23.2zM161.684 7.54c-1.008 1.04-2.205 2.395-3.591 4.064a129.378 129.378 0 00-4.3 5.387 187.908 187.908 0 00-4.394 6.048 104.396 104.396 0 00-3.874 5.953h16.679v6.19h-25.751v-4.394a88.846 88.846 0 013.213-5.34 218.286 218.286 0 014.016-5.953 146.057 146.057 0 014.205-5.812 169.72 169.72 0 014.016-5.055h-14.694v-6.19h24.475V7.54z" fill="#fff"/></svg>