<svg xmlns="http://www.w3.org/2000/svg" fill="none" viewBox="0 0 345 72"><path fill="#FF444F" d="M0 13.5C0 6.044 6.044 0 13.5 0h45C65.956 0 72 6.044 72 13.5v45C72 65.956 65.956 72 58.5 72h-45C6.044 72 0 65.956 0 58.5v-45Z"/><path fill="#E12E3A" d="M13.5 0C6.044 0 0 6.044 0 13.5v.392L67.308 3.268A13.447 13.447 0 0 0 58.5 0h-45ZM68.697 4.652 56.35 72h2.15C65.956 72 72 65.956 72 58.5v-45c0-3.384-1.246-6.478-3.303-8.848Z"/><path fill="#fff" d="M21.63 42.86c.23.02.493.042.787.063h1.103c2.457 0 4.273-.62 5.45-1.859 1.196-1.239 1.795-2.95 1.795-5.134 0-2.29-.567-4.022-1.701-5.198-1.134-1.176-2.93-1.764-5.387-1.764-.336 0-.682.01-1.04.032-.356 0-.692.02-1.007.063V42.86Zm14.206-6.93c0 1.89-.294 3.538-.882 4.945-.588 1.407-1.428 2.573-2.52 3.497-1.07.924-2.383 1.617-3.937 2.079-1.554.462-3.297.693-5.23.693-.881 0-1.91-.042-3.086-.126a23.682 23.682 0 0 1-3.465-.441V25.314c1.134-.21 2.31-.346 3.528-.41 1.239-.083 2.3-.125 3.181-.125 1.87 0 3.56.21 5.072.63 1.533.42 2.845 1.081 3.937 1.984 1.092.903 1.932 2.058 2.52 3.465.588 1.407.882 3.098.882 5.072ZM45.642 47.144c-1.197 0-2.394-.042-3.59-.126a23.814 23.814 0 0 1-3.686-.504V25.346a29.034 29.034 0 0 1 3.307-.41 38.371 38.371 0 0 1 3.34-.157c1.385 0 2.656.105 3.81.315 1.177.189 2.185.525 3.025 1.008a5.201 5.201 0 0 1 1.953 1.921c.483.777.724 1.743.724 2.898 0 1.743-.84 3.119-2.52 4.127 1.386.525 2.331 1.239 2.835 2.142.504.903.756 1.921.756 3.055 0 2.29-.84 4.011-2.52 5.166-1.659 1.155-4.137 1.733-7.434 1.733Zm-2.488-9.797v5.639c.357.042.745.073 1.165.094.42.021.882.032 1.386.032 1.47 0 2.657-.21 3.56-.63.903-.42 1.354-1.197 1.354-2.331 0-1.008-.378-1.722-1.134-2.142-.756-.441-1.837-.662-3.244-.662h-3.087Zm0-3.748h2.394c1.512 0 2.593-.19 3.244-.567.651-.4.977-1.03.977-1.89 0-.882-.336-1.502-1.008-1.859-.672-.357-1.66-.535-2.961-.535-.42 0-.872.01-1.355.031-.483 0-.913.021-1.291.063V33.6Z"/><path fill="var(--text-general)" fill-rule="evenodd" d="m108.739 19.162-1.772 10.051h-6.152c-5.74 0-11.21 4.65-12.224 10.39l-.43 2.443c-1.009 5.74 2.82 10.39 8.56 10.39h5.131c4.183 0 8.168-3.387 8.904-7.57l4.726-26.788-6.743 1.084Zm-4.365 24.756c-.227 1.292-1.39 2.344-2.682 2.344h-3.117c-2.58 0-4.306-2.094-3.854-4.678l.27-1.524c.457-2.58 2.918-4.678 5.498-4.678h5.39l-1.505 8.536Z" clip-rule="evenodd"/><path fill="var(--text-general)" d="M156.118 52.437h6.385l4.037-22.902h-6.385l-4.037 22.902ZM156.331 32.521v-.005l.48-2.717c-6.552-1.688-11.656.059-13.734.92 0 0-2.965 16.803-3.832 21.724h6.389l3.11-17.644c.959-.19 4.08-.49 7.105.45l.482-2.728Z"/><path fill="var(--text-general)" fill-rule="evenodd" d="M130.914 29.21h-4.966c-4.844 0-9.461 3.925-10.314 8.768l-1.005 5.692c-.853 4.844 2.377 8.768 7.221 8.768h10.573l1.085-6.155h-9.937c-1.613 0-2.693-1.306-2.405-2.924l.033-.193h16.02l.915-5.188c.854-4.843-2.377-8.767-7.22-8.767Zm.811 8.278-.038.33h-9.526l.052-.293c.287-1.613 1.759-3.032 3.376-3.032h3.721c1.599 0 2.679 1.396 2.415 2.995Z" clip-rule="evenodd"/><path fill="var(--text-general)" d="M177.639 44.641c2.899-5.216 6.095-12.06 7.427-15.106h6.395c-2.177 5.788-7.165 15.633-11.998 22.902h-6.39c-2.218-6.918-3.65-16.558-3.924-22.902h6.391c.115 2.07 1.041 9.744 2.099 15.106ZM210.694 53.685c-1.796 0-3.591-.063-5.387-.189a35.726 35.726 0 0 1-5.528-.756V20.988a43.561 43.561 0 0 1 4.961-.614 57.569 57.569 0 0 1 5.009-.236c2.079 0 3.985.157 5.717.472 1.764.284 3.276.788 4.536 1.512 1.26.725 2.237 1.686 2.93 2.883.724 1.165 1.086 2.614 1.086 4.347 0 2.614-1.26 4.677-3.78 6.19 2.079.787 3.497 1.858 4.253 3.212.756 1.355 1.134 2.883 1.134 4.584 0 3.433-1.26 6.016-3.78 7.749-2.489 1.732-6.206 2.598-11.151 2.598Zm-3.733-14.694v8.458c.536.063 1.118.11 1.748.141.63.032 1.323.047 2.079.047 2.205 0 3.985-.315 5.34-.944 1.354-.63 2.031-1.796 2.031-3.497 0-1.512-.567-2.583-1.701-3.213-1.134-.661-2.756-.992-4.866-.992h-4.631Zm0-5.623h3.591c2.268 0 3.89-.284 4.867-.85.976-.599 1.465-1.544 1.465-2.835 0-1.323-.504-2.253-1.512-2.788-1.008-.536-2.489-.804-4.442-.804-.63 0-1.307.016-2.032.048-.724 0-1.37.031-1.937.094v7.135ZM251.937 40.786c0 1.953-.283 3.749-.85 5.387-.567 1.606-1.386 2.992-2.457 4.158-1.071 1.134-2.363 2.016-3.875 2.646-1.48.63-3.15.945-5.008.945-1.827 0-3.497-.315-5.009-.945a11.27 11.27 0 0 1-3.827-2.646c-1.071-1.166-1.906-2.552-2.504-4.158-.599-1.638-.898-3.434-.898-5.387 0-1.953.299-3.733.898-5.339.63-1.607 1.48-2.977 2.551-4.11a11.778 11.778 0 0 1 3.875-2.647c1.512-.63 3.15-.945 4.914-.945 1.795 0 3.433.315 4.914.945 1.512.63 2.803 1.512 3.874 2.646 1.071 1.134 1.906 2.505 2.504 4.111.599 1.606.898 3.386.898 5.34Zm-7.182 0c0-2.173-.441-3.874-1.323-5.103-.85-1.26-2.079-1.89-3.685-1.89-1.607 0-2.851.63-3.733 1.89-.882 1.229-1.323 2.93-1.323 5.103 0 2.174.441 3.906 1.323 5.198.882 1.26 2.126 1.89 3.733 1.89 1.606 0 2.835-.63 3.685-1.89.882-1.292 1.323-3.024 1.323-5.198ZM254.792 22.217l7.04-1.134v7.324h8.458v5.859h-8.458v8.741c0 1.48.252 2.662.756 3.544.536.882 1.591 1.323 3.166 1.323.756 0 1.528-.063 2.315-.19.819-.157 1.56-.361 2.221-.613l.992 5.48a19.99 19.99 0 0 1-2.835.898c-1.039.252-2.315.378-3.827.378-1.921 0-3.512-.252-4.772-.756-1.26-.535-2.268-1.26-3.024-2.173-.756-.945-1.292-2.08-1.607-3.402-.283-1.323-.425-2.788-.425-4.395V22.218Z"/></svg>