<svg viewBox="0 0 32 32" fill="none" xmlns="http://www.w3.org/2000/svg"><path d="M26 0H6a6 6 0 0 0-6 6v17.5h32V6a6 6 0 0 0-6-6z" fill="#0364B9"/><path d="M6 0a6 6 0 0 0-6 6v.174l29.914-4.721A5.976 5.976 0 0 0 26 0H6zm26 6c0-1.504-.553-2.88-1.468-3.933L26.602 23.5H32V6z" fill="#0A559E"/><path d="M0 23h32v3a6 6 0 0 1-6 6H6a6 6 0 0 1-6-6v-3z" fill="#0CC"/><path d="M7.346 9.684c.144.264.308.592.492.984.192.384.388.804.588 1.26.208.448.412.908.612 1.38l.564 1.332.564-1.332c.2-.472.4-.932.6-1.38.208-.456.404-.876.588-1.26.192-.392.36-.72.504-.984h1.704c.08.552.152 1.172.216 1.86.072.68.132 1.392.18 2.136.056.736.104 1.476.144 2.22.048.744.088 1.444.12 2.1h-1.824c-.024-.808-.056-1.688-.096-2.64-.04-.952-.1-1.912-.18-2.88a517.564 517.564 0 0 1-1.008 2.34 108.944 108.944 0 0 1-.9 2.124H8.906c-.112-.264-.248-.58-.408-.948-.16-.376-.328-.768-.504-1.176-.168-.408-.34-.816-.516-1.224l-.48-1.116c-.08.968-.14 1.928-.18 2.88-.04.952-.072 1.832-.096 2.64H4.898c.032-.656.068-1.356.108-2.1l.144-2.22c.056-.744.116-1.456.18-2.136.072-.688.148-1.308.228-1.86h1.788zm14.012 0v1.596H18.85V18h-1.872v-6.72H14.47V9.684h6.888zm3.964 5.868a1.18 1.18 0 0 0-.156-.612c-.104-.184-.284-.336-.54-.456-.256-.12-.6-.212-1.032-.276a11.46 11.46 0 0 0-1.632-.096c.088-.744.16-1.5.216-2.268.056-.768.1-1.488.132-2.16h4.5v1.5h-3c-.016.288-.036.568-.06.84-.016.264-.036.496-.06.696 1.168.08 2.028.356 2.58.828.56.464.84 1.112.84 1.944 0 .384-.068.74-.204 1.068-.136.328-.34.612-.612.852a2.9 2.9 0 0 1-1.032.564c-.408.136-.888.204-1.44.204-.216 0-.444-.016-.684-.048a6.41 6.41 0 0 1-.684-.108 7.294 7.294 0 0 1-.588-.132 2.309 2.309 0 0 1-.408-.144l.324-1.476c.2.088.464.176.792.264.328.08.72.12 1.176.12.552 0 .952-.108 1.2-.324.248-.224.372-.484.372-.78zM11.31 28.871c.131 0 .24-.01.323-.03a.689.689 0 0 0 .21-.09.32.32 0 0 0 .108-.138c.02-.052.03-.11.03-.174 0-.136-.063-.248-.191-.336-.128-.092-.348-.19-.66-.294a5.761 5.761 0 0 1-.409-.162 1.633 1.633 0 0 1-.366-.234 1.17 1.17 0 0 1-.264-.342 1.09 1.09 0 0 1-.102-.492c0-.192.036-.364.108-.516.072-.156.175-.288.306-.396a1.37 1.37 0 0 1 .48-.246c.189-.06.4-.09.637-.09a2.59 2.59 0 0 1 1.23.288l-.27.738a2.33 2.33 0 0 0-.39-.156 1.583 1.583 0 0 0-.51-.072c-.225 0-.386.032-.486.096-.096.06-.144.154-.144.282 0 .076.018.14.054.192a.56.56 0 0 0 .15.144c.068.04.143.078.228.114l.287.102c.216.08.404.16.564.24.16.076.292.166.396.27a.972.972 0 0 1 .24.366c.053.14.079.31.079.51 0 .388-.136.69-.409.906-.271.212-.681.318-1.23.318-.183 0-.35-.012-.497-.036a2.485 2.485 0 0 1-.69-.18 2.411 2.411 0 0 1-.205-.102l.264-.744c.125.068.277.13.457.186a2.5 2.5 0 0 0 .671.078zm5.09-3c.047.164.1.35.155.558l.186.636.204.66c.068.22.134.424.198.612.052-.204.104-.426.156-.666.056-.24.108-.488.156-.744s.094-.51.138-.762c.048-.256.092-.502.132-.738h.972a40.98 40.98 0 0 1-.486 2.118c-.18.716-.376 1.396-.588 2.04h-.858a28.26 28.26 0 0 1-.408-1.206c-.132-.424-.262-.848-.39-1.272l-.384 1.272c-.128.42-.262.822-.402 1.206h-.858a32.003 32.003 0 0 1-.594-2.04c-.18-.716-.34-1.422-.48-2.118h1.014a43.016 43.016 0 0 0 .282 1.5c.052.256.104.504.156.744.056.24.112.462.168.666.072-.196.142-.404.21-.624.068-.22.134-.44.198-.66.064-.22.122-.432.174-.636l.15-.546h.798zm2.899 3.714v-4.158h2.784v.786h-1.848v.87h1.643v.786h-1.643v1.716h-.936z" fill="#fff"/></svg>