<svg xmlns="http://www.w3.org/2000/svg" fill="none" viewBox="0 0 345 72"><path fill="#FF444F" d="M0 13.5C0 6.044 6.044 0 13.5 0h45C65.956 0 72 6.044 72 13.5v45C72 65.956 65.956 72 58.5 72h-45C6.044 72 0 65.956 0 58.5v-45z"/><path fill="#E12E3A" d="M13.5 0C6.044 0 0 6.044 0 13.5v.392L67.308 3.268A13.447 13.447 0 0 0 58.5 0h-45zm55.197 4.652L56.35 72h2.15C65.956 72 72 65.956 72 58.5v-45c0-3.384-1.246-6.478-3.303-8.848z"/><path fill="#fff" d="M21.474 42.898c.232.021.494.042.788.063h1.102c2.457 0 4.274-.62 5.45-1.858 1.197-1.24 1.796-2.95 1.796-5.135 0-2.289-.567-4.021-1.701-5.197-1.134-1.176-2.93-1.764-5.387-1.764-.336 0-.682.01-1.04.031-.357 0-.692.021-1.008.063v13.797zm14.207-6.93c0 1.89-.294 3.539-.882 4.946-.588 1.407-1.428 2.572-2.52 3.496-1.071.924-2.384 1.617-3.938 2.08-1.553.461-3.297.692-5.229.692-.881 0-1.91-.042-3.086-.126a23.682 23.682 0 0 1-3.465-.44V25.352c1.134-.21 2.31-.347 3.527-.41 1.24-.084 2.3-.126 3.182-.126 1.869 0 3.56.21 5.072.63 1.533.42 2.845 1.082 3.937 1.985 1.092.903 1.932 2.058 2.52 3.465.588 1.407.882 3.097.882 5.071z"/><path fill="#fff" d="M49.548 46.899a58.56 58.56 0 0 0-2.016-3.686 40.847 40.847 0 0 0-2.489-3.843c-.294.378-.672.903-1.134 1.575a78.827 78.827 0 0 0-1.354 2.142c-.441.756-.861 1.48-1.26 2.174a24.827 24.827 0 0 0-.882 1.638h-5.607a78.402 78.402 0 0 1 3.213-5.355 188.293 188.293 0 0 1 4.126-5.954l-7.024-10.52h5.953l4.253 6.803 4.158-6.804h5.607l-6.93 10.584c1.764 2.29 3.244 4.41 4.441 6.363 1.197 1.932 2.142 3.56 2.835 4.883h-5.89z"/><path fill="var(--text-general)" fill-rule="evenodd" d="m108.739 19.493-1.772 10.05h-6.152c-5.74 0-11.21 4.65-12.224 10.39l-.43 2.443c-1.009 5.74 2.82 10.39 8.56 10.39h5.131c4.183 0 8.168-3.386 8.904-7.57l4.726-26.787-6.743 1.084zm-4.365 24.756c-.227 1.292-1.39 2.344-2.682 2.344h-3.117c-2.58 0-4.306-2.094-3.854-4.679l.27-1.523c.457-2.58 2.918-4.678 5.498-4.678h5.39l-1.505 8.536z" clip-rule="evenodd"/><path fill="var(--text-general)" d="M156.118 52.768h6.385l4.037-22.902h-6.385l-4.037 22.902zm.213-19.916v-.006l.48-2.716c-6.552-1.688-11.656.058-13.734.919l-3.832 21.724h6.389l3.11-17.643c.959-.191 4.08-.49 7.105.45l.482-2.728z"/><path fill="var(--text-general)" fill-rule="evenodd" d="M130.914 29.541h-4.966c-4.844 0-9.461 3.924-10.314 8.768L114.629 44c-.853 4.844 2.377 8.768 7.221 8.768h10.573l1.085-6.155h-9.937c-1.613 0-2.693-1.306-2.405-2.924l.033-.194h16.02l.915-5.187c.854-4.844-2.377-8.768-7.22-8.768zm.811 8.277-.038.33h-9.526l.052-.292c.287-1.613 1.759-3.032 3.376-3.032h3.721c1.599 0 2.679 1.395 2.415 2.994z" clip-rule="evenodd"/><path fill="var(--text-general)" d="M177.639 44.972c2.899-5.216 6.095-12.06 7.427-15.106h6.395c-2.177 5.788-7.165 15.633-11.998 22.902h-6.39c-2.218-6.919-3.65-16.559-3.924-22.902h6.391c.115 2.07 1.041 9.744 2.099 15.106zm40.946 8.619a88.354 88.354 0 0 0-3.024-5.528 61.175 61.175 0 0 0-3.733-5.765 52.24 52.24 0 0 0-1.701 2.363 117.016 117.016 0 0 0-2.032 3.213 757.67 757.67 0 0 0-1.89 3.26c-.598 1.04-1.039 1.859-1.323 2.457h-8.41a117.586 117.586 0 0 1 4.819-8.032 283.302 283.302 0 0 1 6.19-8.93l-10.537-15.782h8.93l6.379 10.206 6.237-10.206h8.411l-10.395 15.876c2.646 3.433 4.867 6.615 6.662 9.544 1.796 2.898 3.213 5.34 4.253 7.324h-8.836z"/></svg>