<svg xmlns="http://www.w3.org/2000/svg" width="72" height="72" fill="none">
    <path fill="#FF444F"
        d="M0 13.5C0 6.044 6.044 0 13.5 0h45C65.956 0 72 6.044 72 13.5v45C72 65.956 65.956 72 58.5 72h-45C6.044 72 0 65.956 0 58.5v-45Z" />
    <path fill="#E12E3A"
        d="M13.5 0C6.044 0 0 6.044 0 13.5v.392L67.308 3.268A13.447 13.447 0 0 0 58.5 0h-45ZM68.697 4.652 56.35 72h2.15C65.956 72 72 65.956 72 58.5v-45c0-3.384-1.246-6.478-3.303-8.848Z" />
    <path fill="#fff"
        d="M22.363 42.898c.231.021.494.042.788.063h1.102c2.457 0 4.274-.62 5.45-1.858 1.197-1.24 1.795-2.95 1.795-5.135 0-2.289-.567-4.021-1.7-5.197-1.135-1.176-2.93-1.764-5.387-1.764-.336 0-.683.01-1.04.031-.357 0-.693.021-1.008.063v13.797Zm14.207-6.93c0 1.89-.294 3.539-.882 4.946-.588 1.407-1.428 2.572-2.52 3.496-1.071.924-2.384 1.617-3.938 2.08-1.554.461-3.297.692-5.229.692-.882 0-1.91-.042-3.087-.126a23.682 23.682 0 0 1-3.465-.44V25.352c1.134-.21 2.31-.347 3.528-.41 1.24-.084 2.3-.126 3.182-.126 1.869 0 3.56.21 5.071.63 1.533.42 2.846 1.082 3.938 1.985s1.932 2.058 2.52 3.465c.588 1.407.882 3.097.882 5.071ZM54.552 25.07v4.189h-6.584v17.64h-4.914v-17.64h-6.583v-4.19h18.081Z" />
</svg>