<svg xmlns="http://www.w3.org/2000/svg" width="72" height="72" fill="none"><path fill="#FF444F" d="M0 13.5C0 6.044 6.044 0 13.5 0h45C65.956 0 72 6.044 72 13.5v45C72 65.956 65.956 72 58.5 72h-45C6.044 72 0 65.956 0 58.5v-45Z"/><path fill="#E12E3A" d="M13.5 0C6.044 0 0 6.044 0 13.5v.392L67.308 3.268A13.447 13.447 0 0 0 58.5 0h-45ZM68.697 4.652 56.35 72h2.15C65.956 72 72 65.956 72 58.5v-45c0-3.384-1.246-6.478-3.303-8.848Z"/><path fill="#fff" d="M26.453 28.897c-2.289 0-3.948.64-4.977 1.921-1.008 1.26-1.512 2.993-1.512 5.198 0 1.07.126 2.047.378 2.93.252.86.63 1.606 1.134 2.236a5.257 5.257 0 0 0 1.89 1.48c.756.336 1.638.504 2.646.504.546 0 1.008-.01 1.386-.031a6.703 6.703 0 0 0 1.04-.126v-7.592h4.914v10.805c-.588.23-1.533.472-2.835.724-1.302.273-2.909.41-4.82.41-1.638 0-3.129-.252-4.473-.756-1.323-.504-2.457-1.24-3.402-2.205-.945-.966-1.68-2.153-2.205-3.56-.504-1.407-.756-3.013-.756-4.82 0-1.826.284-3.443.85-4.85.568-1.407 1.345-2.594 2.332-3.56a9.752 9.752 0 0 1 3.465-2.236 12.1 12.1 0 0 1 4.284-.756c1.029 0 1.953.073 2.772.22.84.126 1.554.284 2.142.473.609.168 1.102.346 1.48.535.4.19.683.336.85.441L31.62 30.22a11.988 11.988 0 0 0-2.33-.914c-.862-.273-1.807-.41-2.836-.41ZM40.475 36.016c0 1.07.126 2.037.378 2.898.273.86.651 1.606 1.134 2.236a5.24 5.24 0 0 0 1.827 1.418c.714.336 1.533.504 2.457.504.903 0 1.712-.168 2.426-.504a4.884 4.884 0 0 0 1.827-1.418c.504-.63.882-1.375 1.134-2.236.273-.861.41-1.827.41-2.898 0-1.071-.137-2.037-.41-2.898-.252-.882-.63-1.628-1.134-2.237a4.757 4.757 0 0 0-1.827-1.449c-.714-.336-1.523-.504-2.426-.504-.924 0-1.743.179-2.457.536a5.09 5.09 0 0 0-1.827 1.449c-.483.609-.86 1.354-1.134 2.236-.252.861-.378 1.817-.378 2.867Zm16.664 0c0 1.869-.284 3.517-.85 4.945-.547 1.407-1.303 2.594-2.269 3.56-.966.945-2.12 1.659-3.465 2.142-1.323.483-2.75.724-4.284.724-1.49 0-2.898-.241-4.22-.724a9.816 9.816 0 0 1-3.466-2.142c-.987-.966-1.764-2.153-2.33-3.56-.568-1.428-.851-3.076-.851-4.945 0-1.87.294-3.507.882-4.914.588-1.428 1.375-2.625 2.362-3.591a9.97 9.97 0 0 1 3.465-2.174 12.03 12.03 0 0 1 4.158-.724c1.491 0 2.898.241 4.221.724a9.599 9.599 0 0 1 3.465 2.174c.987.966 1.764 2.163 2.331 3.59.567 1.408.85 3.046.85 4.915Z"/></svg>