<svg width="16" height="16" viewBox="0 0 16 16" fill="none" xmlns="http://www.w3.org/2000/svg">
<path fill-rule="evenodd" clip-rule="evenodd" d="M7.0311 2.16498C7.59037 1.69175 8.40966 1.69175 8.96892 2.16498L14.823 7.11841C15.0338 7.29678 15.0601 7.61227 14.8817 7.82308C14.7033 8.03388 14.3878 8.06017 14.177 7.8818L13 6.88585V12.5001C13 13.3285 12.3284 14.0001 11.5 14.0001H4.50001C3.67158 14.0001 3.00001 13.3285 3.00001 12.5001V6.88585L1.82298 7.8818C1.61218 8.06017 1.29669 8.03388 1.11832 7.82308C0.939945 7.61227 0.966236 7.29678 1.17704 7.11841L7.0311 2.16498ZM4.00001 6.0397V12.5001C4.00001 12.7762 4.22387 13.0001 4.50001 13.0001H6.00001V10.5001C6.00001 9.67168 6.67158 9.00011 7.50001 9.00011H8.50001C9.32844 9.00011 10 9.67168 10 10.5001V13.0001H11.5C11.7762 13.0001 12 12.7762 12 12.5001V6.0397L8.32298 2.92837C8.13656 2.77062 7.86346 2.77062 7.67704 2.92837L4.00001 6.0397ZM9.00001 13.0001V10.5001C9.00001 10.224 8.77615 10.0001 8.50001 10.0001H7.50001C7.22387 10.0001 7.00001 10.224 7.00001 10.5001V13.0001H9.00001Z" fill="#333333"/>
</svg>
