<svg width="16" height="16" viewBox="0 0 16 16" fill="none" xmlns="http://www.w3.org/2000/svg">
<path fill-rule="evenodd" clip-rule="evenodd" d="M2.5 3C1.67157 3 1 3.67157 1 4.5V11.5C1 12.3284 1.67157 13 2.5 13H13.5C14.3284 13 15 12.3284 15 11.5V4.5C15 3.67157 14.3284 3 13.5 3H2.5ZM0 4.5C0 3.11929 1.11929 2 2.5 2H13.5C14.8807 2 16 3.11929 16 4.5V11.5C16 12.8807 14.8807 14 13.5 14H2.5C1.11929 14 0 12.8807 0 11.5V4.5Z" fill="#333333"/>
<path d="M9 6.5C9 6.22386 9.22386 6 9.5 6H13.5C13.7761 6 14 6.22386 14 6.5C14 6.77614 13.7761 7 13.5 7H9.5C9.22386 7 9 6.77614 9 6.5Z" fill="#333333"/>
<path d="M9 8C9 7.72386 9.22386 7.5 9.5 7.5H12.5C12.7761 7.5 13 7.72386 13 8C13 8.27614 12.7761 8.5 12.5 8.5H9.5C9.22386 8.5 9 8.27614 9 8Z" fill="#333333"/>
<path d="M9 9.5C9 9.22386 9.22386 9 9.5 9H12.5C12.7761 9 13 9.22386 13 9.5C13 9.77614 12.7761 10 12.5 10H9.5C9.22386 10 9 9.77614 9 9.5Z" fill="#333333"/>
<path fill-rule="evenodd" clip-rule="evenodd" d="M3 7C3 5.89543 3.89543 5 5 5C6.10457 5 7 5.89543 7 7C7 7.5324 6.79197 8.01621 6.45276 8.37459C7.37545 8.88625 8 9.87019 8 11H2C2 9.87019 2.62455 8.88625 3.54724 8.37459C3.20803 8.01621 3 7.5324 3 7ZM5.00001 8C5.5523 8 6.00001 7.55228 6.00001 7C6.00001 6.44772 5.5523 6 5.00001 6C4.44773 6 4.00001 6.44772 4.00001 7C4.00001 7.55228 4.44773 8 5.00001 8ZM3.26758 10C3.61339 9.4022 4.25973 9 5.00001 9C5.7403 9 6.38664 9.4022 6.73245 10H3.26758Z" fill="#333333"/>
</svg>
