<svg width="301" height="199" xmlns="http://www.w3.org/2000/svg"><g fill="none" fill-rule="evenodd"><path stroke="#C2C2C2" stroke-width="2" fill="#F1F2F2" d="M1 1h299v197H1z"/><path d="M3.926 55.501H297.51M3.926 76.1H297.51M3.926 96.66H297.51M3.926 137.816H297.51M3.926 158.376H297.51M3.926 178.936H297.51M39.383 34.942v162.126M76.546 34.942v162.126M113.67 34.942v162.126m37.162-162.126v162.126m37.124-162.126v162.126M225.08 34.942v162.126m37.162-162.126v162.126" stroke="#DFDEDE" stroke-width="1.223"/><path fill="#C2C2C2" fill-rule="nonzero" d="M2 30v-2h297v2z"/><path d="M189.522 151.307h-35.42L148.649 143l-5.455 8.307h-35.42c-2.652 0-4.773 2.163-4.773 4.856v25.074c0 2.693 2.16 4.855 4.773 4.855h81.787c2.652 0 4.773-2.162 4.773-4.855v-25.074c0-2.693-2.16-4.856-4.811-4.856z" fill="#E88024"/><g transform="translate(6 94)"><path d="M.262 22.669h288.35" stroke="#2A3052" stroke-width="1.485" stroke-linejoin="round"/><path stroke="#2A3052" stroke-width="3.635" stroke-linecap="round" stroke-linejoin="round" d="M35.33 22.669l33.463 24.548 34.62-38.684 33.05 35.827L180.98.414l43.06 89.471 29.916-26.43"/><ellipse fill="#FFF" opacity=".6" cx="35.33" cy="22.669" rx="8.067" ry="8.496"/><ellipse stroke="#E88024" stroke-width="2.424" cx="35.33" cy="22.669" rx="8.067" ry="8.496"/><ellipse fill="#FFF" opacity=".6" cx="253.956" cy="62.855" rx="8.067" ry="8.496"/><ellipse stroke="#E88024" stroke-width="2.424" cx="253.956" cy="62.856" rx="8.067" ry="8.496"/></g><path d="M258.223 132.001h1.277l1.099-6.126h-1.309l-1.067 6.126zm2.648-8.89l-.182 1.367h-1.334l.228-1.367h1.288zm8.685-.072h1.293l-1.546 9.06h-1.254l1.507-9.06zm5.975 7.653c.068.164.145.34.327.728-1.376 1.049-2.96.906-3.7.472-1.114-.653-1.114-1.866-1.109-2.804.008-1.197.887-3.422 3.336-3.422s2.047 2.644 1.928 3.422c-.25 0-1.601.024-4.052.073-.227 2.91 1.97 2.259 3.27 1.531zm-.147-2.339c.142-1.148-.21-1.723-1.059-1.723-1.272 0-1.718 1.349-1.86 1.723h2.919zm-18.765-2.061h1.077c.229-1.122-.315-2.845-2.747-2.79-2.433.055-3.208 1.975-3.494 2.644-.285.67-.386 2.23-.483 3.03-.097.801.344 2.735 2.339 2.981 1.994.246 3.684-1.001 3.904-2.778h-1.07c-.193.547-.33 2.113-2.598 1.888-1.235-.123-1.53-1.53-1.423-2.375.106-.845.162-1.777.51-2.746.422-1.17 1.34-1.76 2.249-1.76 1.27 0 1.849.635 1.736 1.906zm6.876.271c.052-.237 1.445-1.46 2.92-.625.928.526 1.196 2.023.859 3.484-.387 1.677-1.087 2.515-2.2 2.71-1.626.288-2.203-.624-2.334-.924-.1.292-.214.578-.342.859h-.856l1.345-9.028h1.146c-.394 2.507-.573 3.682-.538 3.524zm-.544 3.756c.178.585.599.906 1.261.962.953.081 1.785-.826 1.97-2.079.185-1.241 0-2.48-.938-2.573-.858-.085-1.49.245-1.897.989l-.396 2.7v.001z" opacity=".9" fill="#6D6E71" fill-rule="nonzero"/><path d="M176.817 171.27h-5.66c.125 2.614 1.742 3.245 4.851 1.895l.66 1.272c-.572.473-1.25.8-1.975.956-1.539.334-3.04.079-4.082-.69-2.26-1.667-1.683-5.166-1.185-6.372.232-.564 1.378-2.153 2.74-2.306 1.233-.14 4.286-.432 4.651 3.672.03.835.03 1.36 0 1.573zm-2-1.702c.001-1.46-.577-2.19-1.733-2.19-1.736 0-1.911 2.19-1.911 2.19h3.644zm-46.126-3.648h2.004v9.25h-2.004v-9.25zm.04-4.037v2.004h2.022v-2.004h-2.022zm30.462 4.18h2.04v9.527h-2.04v-9.527zm.041-4.158v1.808h2.082v-1.808h-2.082zm-34.252.898h2.281l-4.498 12.72h-2.105l-4.442-12.72h2.294l3.229 10.115 3.241-10.115zm13.753 6.601c.86.002 1.504.002 1.932 0 0-1.012-.692-3.704-3.915-3.588-3.223.117-4.01 3.013-4.01 4.934 0 1.92.978 4.933 4.131 4.933 3.154 0 3.794-2.399 3.794-3.322h-1.932c-.117 1.068-.73 1.602-1.84 1.602-1.664 0-2.04-1.956-2.04-3.213 0-1.257.239-3.129 1.897-3.217 1.106-.058 1.767.566 1.983 1.871zm4.296-5.676h2.109v2.314h1.696v1.527h-1.696v5.205c0 .352.002 1.416 1.533 1.017.112.744.195 1.261.247 1.552-.546.333-3.889 1.049-3.889-2.57v-5.204h-1.447v-1.527h1.447v-2.314zm9.439 2.231c2.632 0 4.06 1.605 4.421 4.01.361 2.404-.937 5.8-4.236 5.8-3.3 0-4.366-2.508-4.366-5.104s1.548-4.706 4.18-4.706h.001zm.023 1.685c-.782.074-2.169.621-2.088 3.217.081 2.596 1.216 3.206 2.088 3.206.873 0 2.344-.242 2.344-3.195s-1.56-3.302-2.344-3.228zm15.749-1.731c-.086.816-.18 1.486-.283 2.012-1.026-.066-2.092-.164-2.558 1.036l.013 6.45h-2.112v-9.423h1.879c.09.629.146 1.088.168 1.376.65-1.213 1.614-1.696 2.893-1.451zm10.772-3.154h1.98v8.294h-1.98v-8.294zm2.055 10.721v1.913h-2.047v-1.913h2.047z" fill="#FFF" fill-rule="nonzero"/><path d="M16.39 21V10.336h3.735c1.294 0 2.276.248 2.945.743.669.496 1.003 1.222 1.003 2.18 0 .522-.134.982-.403 1.38-.268.398-.642.69-1.12.875.546.137.977.413 1.292.828.315.415.473.923.473 1.523 0 1.026-.327 1.802-.982 2.33-.654.527-1.587.795-2.798.805H16.39zm2.197-4.644v2.879h1.882c.518 0 .922-.123 1.213-.37.29-.247.435-.587.435-1.022 0-.976-.505-1.472-1.516-1.487h-2.014zm0-1.552h1.626c1.109-.02 1.663-.462 1.663-1.326 0-.483-.14-.831-.421-1.044-.281-.212-.724-.318-1.33-.318h-1.538v2.688zM30.416 21a2.35 2.35 0 0 1-.213-.71c-.512.57-1.179.856-2 .856-.776 0-1.419-.224-1.93-.673a2.167 2.167 0 0 1-.764-1.7c0-.84.31-1.484.933-1.933.623-.45 1.523-.676 2.7-.681h.973v-.454c0-.367-.094-.66-.282-.88-.187-.219-.484-.329-.89-.329-.356 0-.635.086-.838.256-.203.171-.304.406-.304.704h-2.117c0-.46.142-.884.425-1.275.283-.39.684-.697 1.201-.919.518-.222 1.099-.333 1.743-.333.977 0 1.752.245 2.326.736.574.49.86 1.18.86 2.069v3.435c.005.752.11 1.32.315 1.706V21h-2.138zm-1.75-1.472c.312 0 .6-.07.864-.209.263-.14.459-.326.585-.56v-1.363h-.79c-1.06 0-1.624.367-1.692 1.1l-.008.124c0 .263.093.48.279.651.185.171.439.257.761.257zM36.098 21h-2.124v-7.925H36.1V21zm-2.248-9.976c0-.317.106-.578.318-.783.213-.205.502-.308.868-.308.362 0 .65.103.865.308.214.205.322.466.322.783 0 .323-.109.586-.326.791-.217.206-.504.308-.86.308-.357 0-.644-.102-.861-.308a1.04 1.04 0 0 1-.326-.79zm8.284 7.786c0-.259-.129-.463-.385-.612-.256-.148-.668-.281-1.234-.399-1.885-.395-2.827-1.196-2.827-2.402 0-.703.291-1.29.875-1.762.583-.47 1.346-.706 2.289-.706 1.006 0 1.81.237 2.413.71.603.474.905 1.089.905 1.846h-2.117c0-.303-.098-.553-.293-.75-.195-.199-.5-.297-.916-.297-.356 0-.632.08-.827.241a.763.763 0 0 0-.293.615c0 .235.11.424.333.568.222.144.597.269 1.124.374.528.105.972.223 1.333.355 1.119.41 1.678 1.12 1.678 2.131 0 .723-.31 1.308-.93 1.754-.62.447-1.421.67-2.403.67-.664 0-1.254-.118-1.769-.355-.515-.237-.919-.561-1.212-.974a2.263 2.263 0 0 1-.44-1.337h2.008c.02.376.158.665.417.865.259.2.605.3 1.04.3.405 0 .712-.077.92-.23a.718.718 0 0 0 .31-.605zm7.712 0c0-.259-.128-.463-.385-.612-.256-.148-.667-.281-1.234-.399-1.885-.395-2.827-1.196-2.827-2.402 0-.703.292-1.29.875-1.762.584-.47 1.347-.706 2.29-.706 1.005 0 1.81.237 2.413.71.603.474.904 1.089.904 1.846h-2.117c0-.303-.097-.553-.293-.75-.195-.199-.5-.297-.915-.297-.357 0-.632.08-.828.241a.763.763 0 0 0-.293.615c0 .235.111.424.334.568.222.144.596.269 1.124.374.527.105.971.223 1.333.355 1.118.41 1.677 1.12 1.677 2.131 0 .723-.31 1.308-.93 1.754-.62.447-1.421.67-2.402.67-.665 0-1.254-.118-1.77-.355-.514-.237-.918-.561-1.211-.974a2.263 2.263 0 0 1-.44-1.337h2.007c.02.376.159.665.417.865.26.2.606.3 1.04.3.406 0 .712-.077.92-.23a.718.718 0 0 0 .31-.605zm7.068 2.336c-1.162 0-2.108-.356-2.838-1.069s-1.095-1.662-1.095-2.849v-.205c0-.796.153-1.508.461-2.135a3.386 3.386 0 0 1 1.307-1.45c.564-.34 1.208-.51 1.93-.51 1.084 0 1.938.343 2.56 1.026.623.684.934 1.653.934 2.908v.864h-5.046c.068.518.274.933.619 1.245.344.313.78.469 1.307.469.815 0 1.453-.295 1.912-.886l1.04 1.164c-.318.45-.747.8-1.29 1.051a4.23 4.23 0 0 1-1.801.377zm-.242-6.503c-.42 0-.76.141-1.022.424-.26.284-.428.689-.501 1.216h2.944v-.168c-.01-.469-.137-.832-.38-1.088-.245-.256-.592-.384-1.04-.384z" fill="#000" fill-rule="nonzero"/><path d="M18.238 148v-10.664h3.01c.928 0 1.748.205 2.461.615a4.16 4.16 0 0 1 1.652 1.75c.388.757.584 1.627.59 2.608v.681c0 1.006-.195 1.887-.583 2.644a4.096 4.096 0 0 1-1.663 1.743c-.72.406-1.559.613-2.516.623h-2.951zm1.406-9.507v8.357h1.48c1.084 0 1.927-.337 2.53-1.01.603-.674.905-1.634.905-2.88v-.622c0-1.21-.285-2.152-.854-2.823-.569-.671-1.375-1.012-2.42-1.022h-1.641zm11.506 9.653c-1.074 0-1.948-.352-2.622-1.058-.674-.705-1.01-1.649-1.01-2.83v-.25c0-.786.15-1.488.45-2.105.3-.618.72-1.101 1.26-1.45a3.167 3.167 0 0 1 1.754-.524c1.03 0 1.831.34 2.402 1.018.572.678.857 1.65.857 2.915v.564h-5.368c.02.781.247 1.412.684 1.893.437.481.993.722 1.667.722.478 0 .883-.098 1.215-.293.332-.196.623-.455.872-.777l.828.645c-.664 1.02-1.66 1.53-2.989 1.53zm-.168-7.104c-.547 0-1.006.199-1.377.597-.371.398-.6.956-.688 1.673h3.97v-.102c-.04-.689-.225-1.222-.557-1.6-.332-.379-.782-.568-1.348-.568zm.66-4.292h1.64l-1.963 2.153h-1.091l1.413-2.153zm10.876 7.375c0 1.211-.279 2.184-.835 2.92-.557.734-1.304 1.101-2.242 1.101-1 0-1.774-.354-2.321-1.062l-.066.916h-1.245v-11.25h1.355v4.197c.546-.679 1.3-1.018 2.263-1.018.962 0 1.717.363 2.267 1.091.549.728.824 1.724.824 2.988v.117zm-1.355-.153c0-.923-.179-1.636-.535-2.139-.357-.503-.87-.754-1.538-.754-.894 0-1.536.415-1.926 1.245v3.427c.415.83 1.062 1.246 1.94 1.246.65 0 1.155-.252 1.517-.755.36-.503.542-1.26.542-2.27zm7.954 3.244c-.528.62-1.302.93-2.322.93-.845 0-1.488-.245-1.93-.736-.442-.49-.665-1.217-.67-2.179v-5.156h1.355v5.12c0 1.201.488 1.802 1.465 1.802 1.035 0 1.723-.386 2.065-1.158v-5.764h1.355V148h-1.289l-.03-.784zm5.215-9.06v1.92h1.479v1.047h-1.48v4.914c0 .317.066.556.198.714.132.159.357.238.674.238.156 0 .371-.029.645-.088V148a3.928 3.928 0 0 1-1.04.146c-.606 0-1.062-.183-1.37-.549-.308-.366-.461-.886-.461-1.56v-4.914h-1.443v-1.048h1.443v-1.919h1.355zm206.549 43.945h-4.475v4.71H255v-10.665h6.606v1.158h-5.2v3.647h4.475v1.15zm3.67 4.71h-1.355v-7.925h1.355v7.925zm-1.465-10.027a.81.81 0 0 1 .201-.557c.135-.151.334-.227.597-.227.264 0 .464.076.6.227a.8.8 0 0 1 .206.557.77.77 0 0 1-.205.549c-.137.146-.337.22-.6.22-.264 0-.463-.074-.598-.22a.782.782 0 0 1-.201-.55zm4.914 2.102l.044.996c.606-.762 1.397-1.143 2.373-1.143 1.675 0 2.52.945 2.535 2.835v5.237h-1.355v-5.245c-.005-.57-.136-.993-.392-1.267-.257-.273-.656-.41-1.198-.41-.44 0-.825.117-1.157.352-.332.234-.59.542-.776.923v5.647h-1.355v-7.925H268z" fill="#2A3052"/></g></svg>