<svg width="299" height="197" xmlns="http://www.w3.org/2000/svg"><g fill="none" fill-rule="evenodd"><path fill="#F1F2F2" d="M0 0h299v197H0z"/><path d="M1.987 1.98v193.04h295.026V1.98H1.987zM299 0v197H0V0h299z" fill="#C2C2C2" fill-rule="nonzero"/><path d="M4.887 56.168v-1.206h289.656v1.206H4.887zm0 40.33v-1.206h289.656v1.205H4.887zm0 40.329v-1.206h289.656v1.206H4.887zm0 40.292v-1.206h289.656v1.206H4.887zm34.38-141.7h1.206v158.864h-1.206V35.419zm36.665 0h1.206v158.864h-1.206V35.419zm36.627 0h1.206v158.864h-1.206V35.419zm36.665 0h1.206v158.864h-1.206V35.419zm36.628 0h1.206v158.864h-1.206V35.419zm36.627 0h1.206v158.864h-1.206V35.419zM4.887 116.643v-1.205h289.656v1.205H4.887z" fill="#DFDEDE" fill-rule="nonzero"/><path d="M4.887 65.161v-1.127h7.469v1.127H4.887zm14.938 0v-1.127h7.468v1.127h-7.468zm14.937 0v-1.127h7.469v1.127h-7.469zm14.938 0v-1.127h7.468v1.127H49.7zm14.937 0v-1.127h7.469v1.127h-7.469zm14.938 0v-1.127h7.468v1.127h-7.468zm14.937 0v-1.127h7.469v1.127h-7.469zm14.938 0v-1.127h7.468v1.127h-7.468zm14.937 0v-1.127h7.469v1.127h-7.469zm14.938 0v-1.127h7.468v1.127h-7.468zm14.937 0v-1.127h7.469v1.127h-7.469zm14.938 0v-1.127h7.468v1.127H169.2zm14.937 0v-1.127h7.469v1.127h-7.469zm14.938 0v-1.127h7.468v1.127h-7.468zm14.937 0v-1.127h7.469v1.127h-7.469zm14.938 0v-1.127h7.468v1.127h-7.468zm14.937 0v-1.127h7.469v1.127h-7.469zm14.938 0v-1.127h7.468v1.127h-7.468zm14.937 0v-1.127h7.469v1.127h-7.469zm14.938 0v-1.127h5.843v1.127H288.7z" fill="#15212D" fill-rule="nonzero"/><path fill="#2A3052" fill-rule="nonzero" d="M240.457 35.42h1.206v158.863h-1.206z"/><path d="M4.887 156.934v-1.128h7.469v1.128H4.887zm14.938 0v-1.128h7.468v1.128h-7.468zm14.937 0v-1.128h7.469v1.128h-7.469zm14.938 0v-1.128h7.468v1.128H49.7zm14.937 0v-1.128h7.469v1.128h-7.469zm14.938 0v-1.128h7.468v1.128h-7.468zm14.937 0v-1.128h7.469v1.128h-7.469zm14.938 0v-1.128h7.468v1.128h-7.468zm14.937 0v-1.128h7.469v1.128h-7.469zm14.938 0v-1.128h7.468v1.128h-7.468zm14.937 0v-1.128h7.469v1.128h-7.469zm14.938 0v-1.128h7.468v1.128H169.2zm14.937 0v-1.128h7.469v1.128h-7.469zm14.938 0v-1.128h7.468v1.128h-7.468zm14.937 0v-1.128h7.469v1.128h-7.469zm14.938 0v-1.128h7.468v1.128h-7.468zm14.937 0v-1.128h7.469v1.128h-7.469zm14.938 0v-1.128h7.468v1.128h-7.468zm14.937 0v-1.128h7.469v1.128h-7.469zm14.938 0v-1.128h5.843v1.128H288.7z" fill="#15212D" fill-rule="nonzero"/><path fill="#C2C2C2" fill-rule="nonzero" d="M2.794 35.436v-2.412h293.842v2.412z"/><path d="M21.918 117.693a1.809 1.809 0 1 1-1.471-3.305l35.745-15.92a1.809 1.809 0 0 1 1.887.257l24.958 20.574 42.309-55.255c.905-1.182 2.772-.825 3.177.608l29.834 105.657 16.355-61.963c.096-.364.302-.688.59-.929l27.356-22.788a1.809 1.809 0 0 1 2.758.546l37.375 70.913a1.809 1.809 0 1 1-3.2 1.687l-36.334-68.937-25.195 20.99-17.897 67.807c-.47 1.78-2.99 1.803-3.49.03L126.022 69.111 84.77 122.987a1.809 1.809 0 0 1-2.587.296L56.64 102.23l-34.723 15.464z" fill="#2A3052" fill-rule="nonzero"/><ellipse cx="8.11" cy="9.259" rx="8.11" ry="8.4" opacity=".6" transform="translate(232.725 146.962)" fill="#FFF"/><path d="M240.835 165.828c-5.155 0-9.316-4.31-9.316-9.607 0-5.296 4.161-9.606 9.316-9.606 5.155 0 9.317 4.31 9.317 9.606s-4.162 9.607-9.317 9.607zm0-2.413c3.804 0 6.905-3.211 6.905-7.194s-3.101-7.194-6.905-7.194c-3.803 0-6.904 3.212-6.904 7.194 0 3.983 3.1 7.194 6.904 7.194z" fill="#E88024" fill-rule="nonzero"/><ellipse cx="8.979" cy="8.4" rx="8.11" ry="8.4" opacity=".6" transform="translate(117.862 56.755)" fill="#FFF"/><path d="M126.842 74.761c-5.155 0-9.317-4.31-9.317-9.606s4.162-9.606 9.317-9.606 9.316 4.31 9.316 9.606-4.161 9.606-9.316 9.606zm0-2.412c3.803 0 6.904-3.211 6.904-7.194s-3.1-7.194-6.904-7.194-6.905 3.211-6.905 7.194 3.101 7.194 6.905 7.194z" fill="#E88024" fill-rule="nonzero"/><path d="M35.853 125.899v1.493h1.165v.836h-1.165v3.733c0 .299.06.478.18.597.119.12.268.18.477.18.06 0 .12 0 .21-.03.089 0 .148-.03.208-.06l.15.776c-.09.06-.21.12-.359.18-.15.03-.328.06-.478.06-.4.013-.789-.138-1.075-.419-.269-.268-.388-.716-.388-1.284v-3.733h-.956v-.836h.956v-1.493h1.075zm-15.547 5.06h-4.15c.107 1.264.626 1.895 1.558 1.895 1.398 0 1.592-1.184 1.592-1.11l.918-.004c-.448 1.283-1.284 1.924-2.51 1.924-1.839 0-2.483-1.3-2.56-2.705-.078-1.405.39-3.29 2.575-3.29 1.793.033 2.652 1.13 2.577 3.29zm-1.041-.747c-.105-1.117-.624-1.675-1.558-1.675-.935 0-1.454.558-1.559 1.675h3.117zm12.253-2.702h1.063v6.015h-1.063v-.892c-.337.436-.893 1.136-2.01 1.018-1.116-.118-1.806-.993-1.811-1.958-.005-.966.005-4.51 0-4.184h1.054v2.28c0 2.666.586 2.96 1.388 2.96.802 0 1.195-.677 1.38-.902a312.44 312.44 0 0 1 0-4.338l-.001.001zm-10.161-2.692h1.055v3.505c.305-.619.877-.928 1.718-.928 1.26 0 1.658.761 1.812.98.154.218.461.844.546 1.847.073.869-.135 2.221-.737 2.75-.794.697-1.304.692-1.73.692-.426 0-1.227-.205-1.673-.967l-.153.816h-.838v-8.695zm1.102 6.987c.316.635.74.953 1.271.953.797 0 1.084-.226 1.346-.624.3-.456.364-1.346.302-2.03a3.502 3.502 0 0 0-.302-1.095c-.074-.146-.312-.784-1.346-.737-.858.008-1.246.767-1.27.913v2.62h-.001zm-2.838-6.987l-1.534 1.506h-.82l1.038-1.506h1.316zM8 125.652h3.005c1.194.18 3.084.648 3.084 4.006s-1.932 3.856-3.045 4.006H8v-8.012zm1.065.846v6.356h1.521c.293 0 1.99-.002 2.275-1.958.285-1.956-.02-2.725-.258-3.219-.238-.494-.864-1.18-2.017-1.18H9.065v.001z" fill="#2A3052" fill-rule="nonzero"/><path d="M23.268 22.408h-2.135v-4.424h-4.336v4.424h-2.136V11.76h2.136v4.578h4.336V11.76h2.135v10.648zm6.465 0a4.491 4.491 0 0 1-.201-.57 3.968 3.968 0 0 1-.12-.615 2.93 2.93 0 0 1-.871.958c-.36.254-.79.38-1.287.38-.829 0-1.468-.213-1.916-.64-.449-.426-.673-1.007-.673-1.744 0-.775.299-1.376.896-1.802.597-.427 1.469-.64 2.614-.64h1.2v-.629c0-.38-.1-.675-.3-.885-.2-.21-.498-.314-.892-.314-.347 0-.613.084-.801.252-.188.168-.282.399-.282.691h-2.055l-.014-.044c-.034-.668.257-1.244.874-1.73.616-.484 1.422-.727 2.417-.727.95 0 1.72.239 2.307.717s.88 1.163.88 2.055v3.268c0 .371.029.72.085 1.046.056.327.145.651.267.973h-2.128zm-1.953-1.426c.37 0 .702-.093.995-.278.292-.185.492-.4.6-.644v-1.118h-1.2c-.453 0-.796.112-1.027.336-.232.224-.348.5-.348.826 0 .268.087.482.26.64.173.159.413.238.72.238zm10.18.256a2.7 2.7 0 0 1-.929.98c-.375.229-.812.343-1.309.343-.834 0-1.486-.282-1.956-.848-.47-.565-.706-1.443-.706-2.633v-4.585h2.128v4.6c0 .692.094 1.166.282 1.422.187.256.479.384.874.384.34 0 .633-.054.877-.164a1.48 1.48 0 0 0 .6-.486v-5.756h2.135v7.913h-1.77l-.226-1.17zm6.164-8.68v1.937h1.339v1.5h-1.339v4.029c0 .307.065.526.194.658a.68.68 0 0 0 .508.197c.113 0 .21-.006.293-.018.083-.012.178-.033.285-.062l.176 1.543a3.727 3.727 0 0 1-1.287.22c-.737 0-1.303-.203-1.7-.608-.398-.404-.597-1.045-.597-1.923v-4.036h-1.155v-1.5h1.155v-1.937h2.128zm2.585 5.267h7.563v1.408h-7.563v-1.408zm17.277 1.058l.015.044c.02 1.136-.327 2.026-1.039 2.67-.712.643-1.694.964-2.947.964-1.277 0-2.308-.41-3.093-1.232-.785-.821-1.177-1.883-1.177-3.185v-2.113c0-1.297.382-2.358 1.148-3.185.765-.826 1.77-1.24 3.013-1.24 1.296 0 2.31.318 3.042.952.73.633 1.087 1.525 1.067 2.676l-.014.044h-2.077c0-.683-.165-1.19-.494-1.525-.329-.334-.837-.5-1.524-.5-.64 0-1.138.256-1.496.77-.358.515-.537 1.18-.537 1.993v2.128c0 .82.189 1.487.566 2.004.378.517.903.775 1.576.775.639 0 1.115-.167 1.43-.5.314-.335.472-.848.472-1.54h2.069zm3.627 3.525h-2.135V11h2.135v11.408zm1.426-4.03c0-1.18.33-2.146.987-2.899.659-.753 1.57-1.13 2.735-1.13 1.17 0 2.087.376 2.75 1.126.663.751.994 1.719.994 2.903v.154c0 1.19-.33 2.159-.99 2.907-.661.748-1.574 1.122-2.74 1.122-1.17 0-2.084-.374-2.745-1.122-.66-.748-.99-1.717-.99-2.907v-.154h-.001zm2.128.154c0 .722.127 1.3.38 1.737.254.436.663.654 1.229.654.55 0 .954-.22 1.21-.658.256-.439.384-1.016.384-1.733v-.154c0-.702-.13-1.274-.387-1.718-.259-.444-.666-.665-1.222-.665-.55 0-.954.223-1.21.669-.256.446-.384 1.017-.384 1.714v.154zm4.322-5.58v.169h-1.697l-1.023-.973-1.017.973h-1.66v-.191l2.062-1.756h1.236l2.099 1.777v.001zm4.892-.394v1.937h1.338v1.5h-1.338v4.029c0 .307.065.526.194.658a.68.68 0 0 0 .508.197c.112 0 .21-.006.293-.018.083-.012.178-.033.285-.062l.175 1.543a3.727 3.727 0 0 1-1.287.22c-.736 0-1.303-.203-1.7-.608-.397-.404-.596-1.045-.596-1.923v-4.036h-1.155v-1.5h1.155v-1.937h2.128zm7.503 8.68c-.244.424-.553.75-.929.98-.375.229-.811.343-1.309.343-.833 0-1.485-.282-1.956-.848-.47-.565-.705-1.443-.705-2.633v-4.585h2.128v4.6c0 .692.093 1.166.281 1.422.188.256.479.384.874.384.341 0 .634-.054.877-.164a1.48 1.48 0 0 0 .6-.486v-5.756h2.135v7.913h-1.77l-.226-1.17zm7.766-4.907l-.782-.022c-.317 0-.578.066-.783.197-.205.132-.36.317-.468.556v5.346h-2.128v-7.913h1.982l.095 1.17c.185-.414.425-.737.72-.968.29-.23.65-.353 1.02-.348.108 0 .206.009.297.026.09.017.181.038.274.062l-.227 1.894zm4.402 6.23c-1.18 0-2.1-.362-2.764-1.086-.663-.724-.994-1.656-.994-2.797v-.292c0-1.185.321-2.155.965-2.91.644-.756 1.528-1.132 2.655-1.127 1.062 0 1.878.326 2.446.976.568.651.852 1.528.852 2.63v1.104h-4.717l-.022.043c.034.542.199.98.494 1.317.294.336.732.504 1.312.504.478 0 .884-.048 1.218-.146.36-.109.707-.259 1.034-.446l.578 1.316c-.317.259-.746.476-1.287.651-.573.18-1.17.269-1.77.263zm-.138-6.566c-.43 0-.76.147-.991.442-.232.295-.372.686-.42 1.174l.014.036h2.603v-.16c0-.464-.095-.828-.285-1.094-.19-.266-.497-.398-.921-.398z" fill="#020202" fill-rule="nonzero"/><path d="M253.177 173.331l.01.032c.015.77-.236 1.393-.75 1.868-.516.474-1.211.712-2.087.712-.89 0-1.611-.3-2.165-.901-.553-.601-.83-1.37-.83-2.304v-1.456c0-.932.274-1.7.82-2.304.546-.604 1.26-.906 2.138-.906.9 0 1.61.23 2.126.688.516.459.768 1.088.754 1.886l-.01.032h-1.235c0-.512-.139-.903-.416-1.174-.276-.272-.683-.408-1.219-.408a1.45 1.45 0 0 0-1.232.618c-.303.411-.454.93-.454 1.558v1.466c0 .634.154 1.156.462 1.568.308.412.729.617 1.261.617.522 0 .919-.136 1.19-.41.272-.273.408-.667.408-1.182h1.23-.001zm2.47 2.501h-1.277v-8.196h1.277v8.196zm1.192-2.895c0-.848.232-1.542.696-2.083.465-.541 1.1-.812 1.905-.812.816 0 1.456.27 1.92.812.465.541.697 1.235.697 2.083v.11c0 .855-.232 1.551-.696 2.09-.465.537-1.101.806-1.91.806-.813 0-1.451-.27-1.916-.81-.464-.539-.696-1.234-.696-2.085v-.111zm1.277.11c0 .557.109 1.01.326 1.356.217.347.553.52 1.009.52.445 0 .778-.174 1-.522.223-.349.334-.8.334-1.353v-.11c0-.544-.11-.991-.333-1.343-.223-.352-.56-.528-1.012-.528-.445 0-.777.176-.996.528-.218.352-.328.8-.328 1.342v.11zm3.105-4.04v.126h-1.024l-.752-.73-.746.73h-1.014v-.137l1.387-1.26h.752l1.397 1.271zm3.584-.242v1.382h1.02v.946h-1.02v3.142c0 .235.05.402.152.502.102.1.237.15.405.15.134 0 .268-.023.394-.069l.136.935c-.108.06-.237.106-.386.14-.149.033-.304.05-.465.05-.47 0-.838-.138-1.106-.413-.268-.275-.402-.707-.402-1.295v-3.142h-.867v-.946h.867v-1.382h1.272zm5.596 6.227c-.176.304-.4.54-.676.704a1.82 1.82 0 0 1-.953.247c-.61 0-1.086-.2-1.43-.602-.343-.401-.514-1.024-.514-1.868v-3.326h1.271v3.337c0 .543.08.915.237 1.116.157.202.403.302.735.302.309 0 .567-.055.775-.165.209-.11.372-.27.492-.481v-4.109h1.276v5.685h-1.098l-.115-.84zm5.38-3.694l-.546-.021c-.25 0-.457.052-.623.157-.17.108-.303.264-.386.447v3.951h-1.277v-5.685h1.166l.084.825c.144-.29.329-.518.555-.683.226-.165.5-.251.78-.247a1.206 1.206 0 0 1 .399.063l-.152 1.193zm3.258 4.645c-.83 0-1.48-.262-1.947-.786-.468-.524-.701-1.202-.701-2.036v-.21c0-.834.233-1.521.701-2.062.468-.542 1.071-.81 1.81-.807.764 0 1.342.236 1.734.707.392.47.588 1.1.588 1.889v.688h-3.515l-.01.026c.014.466.136.844.368 1.135.23.29.58.436 1.045.436.347 0 .647-.042.901-.126.254-.084.49-.205.707-.362l.415.835c-.217.19-.504.349-.862.478-.357.13-.768.195-1.234.195zm-.137-4.876a.986.986 0 0 0-.799.36c-.2.24-.324.552-.373.937l.01.027h2.223v-.1c0-.364-.085-.66-.254-.885-.17-.226-.44-.34-.807-.34v.001zM123.022 52.328h-1.497v-3.825h-4.01v3.825h-1.496V43.36h1.496v3.942h4.01V43.36h1.497v8.968zm5.747 0a5.523 5.523 0 0 1-.133-.493 3.522 3.522 0 0 1-.07-.48 2.56 2.56 0 0 1-.808.785 2.076 2.076 0 0 1-1.127.317c-.694 0-1.226-.178-1.598-.536-.372-.357-.557-.848-.557-1.472 0-.644.254-1.146.763-1.506.51-.359 1.226-.539 2.15-.539h1.164v-.585c0-.349-.102-.622-.305-.819-.203-.197-.498-.296-.884-.296-.34 0-.612.081-.813.244a.773.773 0 0 0-.302.631l-1.44.006-.007-.037c-.029-.525.206-.991.705-1.398.5-.406 1.149-.61 1.95-.61.776 0 1.402.197 1.878.592.477.394.715.96.715 1.7v2.962c0 .275.018.54.055.792.037.252.097.5.179.742h-1.515zm-1.83-1.072a1.87 1.87 0 0 0 1.013-.283c.302-.19.502-.405.601-.647v-.985h-1.189c-.435 0-.776.107-1.022.323-.247.216-.37.47-.37.76 0 .255.083.457.25.607.166.15.405.225.717.225zm8.833.086c-.206.358-.47.633-.792.826-.322.193-.695.29-1.118.29-.714 0-1.273-.236-1.675-.706-.402-.47-.604-1.2-.604-2.19v-3.899h1.491v3.912c0 .636.092 1.072.277 1.308.185.237.472.355.862.355.362 0 .665-.065.909-.194a1.42 1.42 0 0 0 .576-.564v-4.817h1.497v6.665h-1.288l-.135-.986zm4.903-7.298v1.62h1.195v1.108h-1.195v3.683c0 .276.06.472.178.589.12.117.277.175.474.175.158.001.314-.026.462-.08l.16 1.096a1.72 1.72 0 0 1-.452.164c-.179.04-.362.059-.545.058-.55 0-.983-.161-1.297-.483-.314-.323-.471-.829-.471-1.519v-3.683h-1.016v-1.109h1.016v-1.62h1.49l.001.001z" fill="#2A3052" fill-rule="nonzero"/></g></svg>