<svg width="299" height="197" xmlns="http://www.w3.org/2000/svg"><g fill="none" fill-rule="evenodd"><path fill="#F1F2F2" d="M.001 0H299v197H0z"/><path d="M1.987 1.98v193.04h295.026V1.98H1.987zM299 0v197H0V0h299z" fill="#C2C2C2" fill-rule="nonzero"/><path d="M2.94 52.948v-1.223h293.571v1.223H2.941zm0 40.897v-1.223h293.571v1.223H2.941zm0 40.894v-1.224h293.571v1.224H2.941zm0 21v-1.224h293.571v1.224H2.941zm0 19.857v-1.223h293.571v1.223H2.941zM37.786 31.908h1.223v161.093h-1.223V31.908zm37.161 0h1.224v161.093h-1.224V31.908zm37.123 0h1.223v161.093h-1.223V31.908zm37.16 0h1.223v161.093h-1.223V31.908zm37.122 0h1.224v161.093h-1.224V31.908zm37.123 0h1.223v161.093h-1.223V31.908zM2.94 114.273v-1.224h293.57v1.224H2.941z" fill="#DFDEDE" fill-rule="nonzero"/><path fill="#15212D" d="M2.94 71.18v-1.144h293.571v1.145z"/><path fill="#C2C2C2" d="M0 30v-2h297v2z"/><path d="M89.76 84.637l-49.416 29.831a1.835 1.835 0 0 1-1.897-3.142l50.5-30.485a1.835 1.835 0 0 1 2.08.127l45.18 35.4 48.302-49.257a1.835 1.835 0 0 1 2.757.156l75.008 96.047a1.835 1.835 0 0 1-2.892 2.26l-73.72-94.397-47.984 48.933a1.835 1.835 0 0 1-2.441.16L89.76 84.637z" fill="#2A3052"/><ellipse fill="#FFF" opacity=".6" cx="186.256" cy="68.824" rx="8.219" ry="8.518"/><path d="M186.256 78.566c-5.225 0-9.443-4.371-9.443-9.742 0-5.37 4.218-9.741 9.443-9.741s9.443 4.37 9.443 9.741c0 5.37-4.218 9.742-9.443 9.742zm0-2.447c3.854 0 6.996-3.256 6.996-7.295 0-4.038-3.142-7.295-6.996-7.295-3.854 0-6.996 3.257-6.996 7.295 0 4.039 3.142 7.295 6.996 7.295z" fill="#E88024" fill-rule="nonzero"/><path d="M124.885 44.395h-2.742V52h-1.12v-7.605h-2.736v-.926h6.598v.926zM127.158 52h-1.084v-6.34h1.084V52zm-1.172-8.021a.65.65 0 0 1 .161-.446c.108-.12.267-.181.478-.181.21 0 .371.06.48.181a.64.64 0 0 1 .165.446.62.62 0 0 1-.165.439c-.109.117-.27.176-.48.176-.21 0-.37-.059-.478-.176a.626.626 0 0 1-.16-.44zm5.45 7.253c.386 0 .724-.117 1.013-.351.29-.235.45-.527.48-.879h1.026c-.02.363-.144.709-.375 1.037a2.47 2.47 0 0 1-.923.785 2.663 2.663 0 0 1-1.221.293c-.864 0-1.55-.288-2.06-.864-.51-.576-.765-1.364-.765-2.364v-.182c0-.617.114-1.166.34-1.646.227-.48.552-.854.976-1.12.424-.265.925-.398 1.503-.398.71 0 1.301.213 1.772.639.47.425.722.978.753 1.658h-1.025a1.494 1.494 0 0 0-.466-1.01 1.45 1.45 0 0 0-1.034-.396c-.551 0-.978.198-1.28.594-.303.397-.455.97-.455 1.72v.205c0 .73.15 1.293.451 1.688.301.394.731.591 1.29.591zm5.507-2.168l-.68.71V52h-1.083v-9h1.084v5.443l.58-.697 1.974-2.086h1.319l-2.467 2.649L140.424 52h-1.272l-2.209-2.936zm11.748.07h1.184v.886h-1.184V52h-1.09v-1.98h-3.884v-.64l3.82-5.911h1.154v5.666zm-3.744 0h2.655v-4.183l-.13.235-2.525 3.949zm8.953 2.298c0-.188.056-.344.167-.47.112-.124.279-.187.501-.187.223 0 .392.063.507.188a.665.665 0 0 1 .173.469.63.63 0 0 1-.173.45c-.115.122-.284.182-.507.182-.222 0-.39-.06-.5-.181a.641.641 0 0 1-.168-.451zm.006-5.174a.68.68 0 0 1 .167-.469c.112-.125.279-.187.501-.187.223 0 .392.062.507.187a.665.665 0 0 1 .173.469.63.63 0 0 1-.173.451c-.115.121-.284.182-.507.182-.222 0-.39-.06-.5-.182a.641.641 0 0 1-.168-.451zm11.971-1.863h-2.742V52h-1.12v-7.605h-2.736v-.926h6.598v.926zM168.15 52h-1.084v-6.34h1.084V52zm-1.171-8.021a.65.65 0 0 1 .16-.446c.108-.12.267-.181.478-.181.211 0 .371.06.48.181a.64.64 0 0 1 .165.446.62.62 0 0 1-.164.439c-.11.117-.27.176-.48.176-.212 0-.37-.059-.478-.176a.626.626 0 0 1-.161-.44zm5.449 7.253c.386 0 .724-.117 1.013-.351.29-.235.45-.527.48-.879h1.026c-.02.363-.144.709-.375 1.037a2.47 2.47 0 0 1-.923.785 2.663 2.663 0 0 1-1.221.293c-.864 0-1.55-.288-2.06-.864-.51-.576-.764-1.364-.764-2.364v-.182c0-.617.113-1.166.34-1.646a2.59 2.59 0 0 1 .975-1.12c.424-.265.925-.398 1.503-.398.71 0 1.302.213 1.772.639.471.425.722.978.753 1.658h-1.025a1.494 1.494 0 0 0-.466-1.01 1.45 1.45 0 0 0-1.034-.396c-.55 0-.978.198-1.28.594-.303.397-.454.97-.454 1.72v.205c0 .73.15 1.293.45 1.688.301.394.731.591 1.29.591zm5.508-2.168l-.68.71V52h-1.084v-9h1.084v5.443l.58-.697 1.975-2.086h1.318l-2.467 2.649L181.416 52h-1.271l-2.21-2.936zm8.46 2.936h-1.083v-9h1.083v9zm4.366.117c-.86 0-1.559-.282-2.098-.846-.539-.565-.809-1.32-.809-2.265v-.2c0-.628.12-1.19.36-1.684.241-.494.577-.88 1.009-1.16.431-.28.899-.419 1.403-.419.824 0 1.465.271 1.922.814.457.543.685 1.32.685 2.332v.452h-4.295c.016.625.199 1.13.548 1.514.35.385.794.577 1.333.577.383 0 .707-.078.973-.234.266-.156.498-.363.697-.621l.662.516c-.53.816-1.328 1.224-2.39 1.224zm-.135-5.683c-.438 0-.805.159-1.102.477-.296.318-.48.765-.55 1.339h3.175v-.082c-.03-.55-.18-.978-.445-1.28-.266-.303-.625-.454-1.078-.454zm12.187 2.466c0 .965-.22 1.743-.662 2.332-.441.59-1.039.885-1.793.885-.77 0-1.375-.244-1.816-.732v3.053h-1.084V45.66h.99l.053.703c.441-.547 1.055-.82 1.84-.82.762 0 1.364.287 1.807.861.444.575.665 1.373.665 2.397v.1zm-1.084-.123c0-.715-.152-1.279-.457-1.693-.304-.414-.722-.621-1.253-.621-.657 0-1.149.29-1.477.873v3.03c.324.577.82.866 1.488.866.52 0 .933-.206 1.24-.618.306-.412.46-1.024.46-1.837zM205.37 52h-1.085v-9h1.084v9zm5.648-.627c-.422.496-1.041.744-1.858.744-.676 0-1.19-.196-1.544-.589-.353-.392-.532-.973-.536-1.743V45.66h1.084v4.096c0 .96.39 1.441 1.172 1.441.828 0 1.379-.308 1.652-.926v-4.61h1.084V52h-1.031l-.023-.627zm6.392-1.055c0-.293-.11-.52-.33-.682-.222-.162-.606-.302-1.155-.42-.549-.116-.985-.257-1.307-.421-.322-.164-.56-.36-.715-.586a1.402 1.402 0 0 1-.231-.809c0-.52.22-.959.66-1.318.439-.36 1-.539 1.684-.539.718 0 1.301.186 1.749.557.447.37.67.845.67 1.423h-1.09c0-.296-.125-.552-.377-.767-.252-.215-.57-.322-.952-.322-.395 0-.703.086-.926.257a.812.812 0 0 0-.334.674c0 .262.103.46.31.592.207.133.581.26 1.122.38.541.122.98.267 1.316.434.336.168.585.37.747.607.162.236.243.524.243.864a1.62 1.62 0 0 1-.68 1.362c-.453.342-1.04.513-1.763.513-.508 0-.957-.09-1.348-.27a2.193 2.193 0 0 1-.917-.752 1.815 1.815 0 0 1-.33-1.046h1.083c.02.363.165.651.437.864.271.213.63.32 1.075.32.41 0 .739-.084.987-.25.248-.166.372-.387.372-.665zM229.604 52h-1.131v-3.943h-4.301V52h-1.125v-8.531h1.125v3.668h4.3v-3.668h1.132V52zm5.742 0c-.063-.125-.114-.348-.153-.668-.504.523-1.105.785-1.804.785-.625 0-1.138-.177-1.538-.53a1.718 1.718 0 0 1-.601-1.345c0-.66.251-1.173.753-1.538s1.208-.548 2.118-.548h1.055v-.498c0-.379-.113-.68-.34-.905-.227-.225-.56-.337-1.002-.337-.387 0-.711.098-.973.293-.261.195-.392.432-.392.709h-1.09c0-.316.112-.622.337-.917a2.3 2.3 0 0 1 .914-.7 3.075 3.075 0 0 1 1.268-.258c.73 0 1.303.183 1.717.548.414.365.63.868.645 1.509v2.918c0 .582.074 1.044.222 1.388V52h-1.136zm-1.8-.826c.34 0 .663-.088.968-.264.304-.176.525-.404.662-.685v-1.301h-.85c-1.328 0-1.992.388-1.992 1.166 0 .34.113.605.34.797.226.191.517.287.873.287zm8.327.199c-.422.496-1.041.744-1.857.744-.676 0-1.19-.196-1.544-.589-.354-.392-.533-.973-.536-1.743V45.66h1.084v4.096c0 .96.39 1.441 1.171 1.441.829 0 1.38-.308 1.653-.926v-4.61h1.084V52h-1.032l-.023-.627zm4.172-7.248v1.535h1.184v.838h-1.184v3.932c0 .254.053.444.158.571.106.127.285.19.54.19.124 0 .296-.023.515-.07V52a3.143 3.143 0 0 1-.832.117c-.485 0-.85-.146-1.096-.44-.246-.292-.37-.708-.37-1.247v-3.932h-1.153v-.838h1.154v-1.535h1.084z" fill="#2A3052"/><path d="M23.98 11.116h-3.267V20h-2.197v-8.884h-3.223v-1.78h8.686v1.78zM27.326 20h-2.124v-7.925h2.124V20zm-2.249-9.976c0-.317.106-.578.319-.783.212-.205.501-.308.868-.308.361 0 .65.103.864.308.215.205.322.466.322.783 0 .323-.108.586-.326.791-.217.206-.504.308-.86.308-.357 0-.644-.102-.86-.308a1.04 1.04 0 0 1-.327-.79zm7.288 8.416c.39 0 .708-.107.952-.322.244-.215.371-.5.38-.857h1.986a2.715 2.715 0 0 1-.44 1.476 2.9 2.9 0 0 1-1.183 1.04c-.5.246-1.053.37-1.659.37-1.132 0-2.026-.36-2.68-1.08-.655-.721-.982-1.716-.982-2.985v-.14c0-1.22.325-2.194.974-2.922.65-.728 1.54-1.091 2.674-1.091.99 0 1.786.282 2.384.846.598.564.902 1.314.912 2.252h-1.985c-.01-.41-.137-.744-.381-1s-.567-.384-.967-.384c-.493 0-.865.179-1.117.538-.251.359-.377.941-.377 1.747v.22c0 .815.124 1.4.373 1.757.25.357.628.535 1.136.535zm7.405-1.619l-.762.762V20h-2.117V8.75h2.117v6.233l.41-.527 2.029-2.38h2.541l-2.864 3.302L44.238 20h-2.431l-2.036-3.179zM57.458 20h-2.197v-4.57h-4.284V20h-2.198V9.336h2.198v4.321h4.284V9.336h2.197V20zm6.373 0a2.35 2.35 0 0 1-.213-.71c-.513.57-1.179.856-2 .856-.776 0-1.419-.224-1.93-.673a2.167 2.167 0 0 1-.765-1.7c0-.84.312-1.484.934-1.933.623-.45 1.522-.676 2.7-.681h.973v-.454c0-.367-.094-.66-.282-.88-.188-.219-.484-.329-.89-.329-.356 0-.636.086-.838.256-.203.171-.304.406-.304.704h-2.117c0-.46.142-.884.425-1.275.283-.39.684-.697 1.201-.919.518-.222 1.099-.333 1.743-.333.977 0 1.752.245 2.326.736.573.49.86 1.18.86 2.069v3.435c.005.752.11 1.32.315 1.706V20h-2.138zm-1.75-1.472c.312 0 .6-.07.863-.209.264-.14.46-.326.586-.56v-1.363h-.79c-1.06 0-1.624.367-1.693 1.1l-.007.124c0 .263.093.48.278.651.186.171.44.257.762.257zm9.945.666c-.522.635-1.245.952-2.168.952-.85 0-1.497-.244-1.944-.732-.447-.488-.675-1.204-.685-2.146v-5.193h2.117v5.12c0 .825.376 1.238 1.128 1.238.717 0 1.21-.25 1.48-.747v-5.61h2.123V20h-1.992l-.059-.806zm6.182-9.067v1.948h1.355v1.553h-1.355v3.955c0 .293.056.503.168.63.113.127.328.19.645.19a3.5 3.5 0 0 0 .623-.05v1.603a4.36 4.36 0 0 1-1.282.19c-1.485 0-2.241-.749-2.27-2.248v-4.27h-1.158v-1.553h1.157v-1.948h2.117z" fill="#000"/><path d="M216.032 174.127h-3.199V183h-1.306v-8.873h-3.192v-1.08h7.697v1.08zm2.653 8.873h-1.265v-7.396h1.265V183zm-1.368-9.358c0-.205.063-.379.188-.52.126-.141.311-.212.558-.212.246 0 .432.07.56.212a.747.747 0 0 1 .191.52.722.722 0 0 1-.191.512c-.128.137-.314.205-.56.205-.247 0-.432-.068-.558-.205a.73.73 0 0 1-.188-.512zm6.358 8.462c.451 0 .845-.136 1.182-.41.338-.273.525-.615.561-1.025h1.196a2.293 2.293 0 0 1-.437 1.21 2.881 2.881 0 0 1-1.077.916 3.107 3.107 0 0 1-1.425.342c-1.007 0-1.808-.336-2.403-1.009-.595-.672-.892-1.591-.892-2.758v-.212c0-.72.132-1.36.396-1.92a3.02 3.02 0 0 1 1.139-1.306c.494-.31 1.078-.465 1.753-.465.83 0 1.519.248 2.068.745.549.497.842 1.142.878 1.934h-1.196a1.745 1.745 0 0 0-.543-1.179c-.326-.307-.729-.461-1.207-.461-.643 0-1.14.231-1.494.694-.353.462-.53 1.131-.53 2.006v.24c0 .852.176 1.508.527 1.968.35.46.852.69 1.504.69zm6.426-2.529l-.793.827V183h-1.265v-10.5h1.265v6.35l.676-.813 2.304-2.433h1.538l-2.878 3.09 3.213 4.306h-1.483l-2.577-3.425zm8.189-.335c0-1.135.269-2.047.807-2.738.537-.69 1.242-1.035 2.112-1.035.866 0 1.552.296 2.058.888V172.5h1.264V183h-1.162l-.061-.793c-.506.62-1.21.93-2.113.93-.856 0-1.555-.351-2.095-1.053-.54-.702-.81-1.618-.81-2.748v-.096zm1.265.144c0 .838.173 1.495.52 1.969.346.474.824.71 1.435.71.802 0 1.387-.36 1.757-1.08v-3.397c-.379-.697-.96-1.046-1.744-1.046-.62 0-1.102.24-1.449.718-.346.478-.52 1.187-.52 2.126zm10.007 3.753c-1.002 0-1.818-.33-2.447-.988-.629-.659-.943-1.54-.943-2.642v-.233c0-.733.14-1.388.42-1.965a3.28 3.28 0 0 1 1.176-1.353 2.956 2.956 0 0 1 1.637-.49c.962 0 1.71.318 2.242.951.534.633.8 1.54.8 2.72v.527h-5.01c.018.73.23 1.318.639 1.767.408.449.926.673 1.555.673.446 0 .825-.09 1.135-.273.31-.182.58-.424.813-.725l.773.602c-.62.952-1.55 1.429-2.79 1.429zm-.157-6.631c-.51 0-.939.186-1.285.557-.346.371-.56.892-.642 1.562h3.705v-.096c-.037-.642-.21-1.14-.52-1.493-.31-.354-.73-.53-1.258-.53zm11.102 2.057c-1.126-.323-1.945-.72-2.458-1.192a2.28 2.28 0 0 1-.769-1.747c0-.784.314-1.432.94-1.945.627-.512 1.441-.769 2.444-.769.684 0 1.293.132 1.829.397.535.264.95.629 1.244 1.093.294.465.44.973.44 1.525h-1.319c0-.602-.191-1.075-.574-1.419-.383-.344-.923-.516-1.62-.516-.647 0-1.152.143-1.514.427-.362.285-.544.68-.544 1.187 0 .405.172.748.517 1.028.344.28.93.537 1.756.77.828.232 1.475.488 1.942.768.467.28.813.608 1.039.981.225.374.338.814.338 1.32 0 .806-.314 1.452-.943 1.938-.629.485-1.47.728-2.523.728a4.678 4.678 0 0 1-1.914-.393c-.592-.262-1.049-.621-1.37-1.077a2.627 2.627 0 0 1-.482-1.552h1.32c0 .602.221 1.077.666 1.426.444.348 1.038.522 1.78.522.693 0 1.224-.14 1.593-.423.37-.283.554-.668.554-1.156 0-.487-.171-.864-.513-1.131-.342-.267-.961-.53-1.86-.79zm4.84.67c0-.724.142-1.376.427-1.955a3.187 3.187 0 0 1 1.19-1.34c.508-.314 1.087-.471 1.74-.471 1.006 0 1.82.348 2.443 1.046.622.697.933 1.624.933 2.782v.089c0 .72-.138 1.366-.413 1.938a3.14 3.14 0 0 1-1.183 1.336c-.513.32-1.102.479-1.767.479-1.003 0-1.815-.349-2.437-1.046-.622-.697-.933-1.62-.933-2.769v-.089zm1.271.15c0 .821.19 1.48.571 1.976.38.497.89.745 1.528.745.642 0 1.153-.251 1.531-.755.378-.503.567-1.209.567-2.116 0-.81-.192-1.468-.577-1.972-.385-.503-.897-.755-1.535-.755-.624 0-1.128.248-1.51.745-.383.497-.575 1.208-.575 2.133zm10.623-2.645a3.79 3.79 0 0 0-.622-.048c-.83 0-1.392.354-1.688 1.06V183h-1.265v-7.396h1.23l.021.854c.415-.66 1.003-.991 1.764-.991.246 0 .433.032.56.095v1.176zm2.878-2.925v1.79h1.381v.978h-1.38v4.587c0 .296.06.518.184.666.123.149.332.223.629.223.145 0 .346-.028.601-.082V183a3.666 3.666 0 0 1-.97.137c-.566 0-.992-.171-1.279-.513-.287-.342-.43-.827-.43-1.456v-4.587h-1.347v-.977h1.346v-1.792h1.265zm4.232 9.187h-1.265v-7.396h1.265V183zm-1.368-9.358c0-.205.063-.379.188-.52.126-.141.311-.212.558-.212.246 0 .432.07.56.212a.747.747 0 0 1 .191.52.722.722 0 0 1-.19.512c-.129.137-.315.205-.561.205-.247 0-.432-.068-.558-.205a.73.73 0 0 1-.188-.512zm6.46 9.495c-1.002 0-1.818-.33-2.447-.988-.629-.659-.943-1.54-.943-2.642v-.233c0-.733.14-1.388.42-1.965a3.28 3.28 0 0 1 1.176-1.353 2.956 2.956 0 0 1 1.637-.49c.962 0 1.71.318 2.242.951.534.633.8 1.54.8 2.72v.527h-5.01c.018.73.23 1.318.639 1.767.407.449.926.673 1.555.673.446 0 .825-.09 1.134-.273a2.84 2.84 0 0 0 .814-.725l.772.602c-.62.952-1.55 1.429-2.789 1.429zm-.157-6.631c-.51 0-.939.186-1.285.557-.346.371-.56.892-.643 1.562h3.705v-.096c-.036-.642-.21-1.14-.52-1.493-.309-.354-.728-.53-1.257-.53zM20.155 133v-9.953h2.81c.866 0 1.631.191 2.297.574a3.88 3.88 0 0 1 1.541 1.634c.363.706.546 1.517.55 2.433v.636c0 .939-.18 1.762-.543 2.468a3.823 3.823 0 0 1-1.552 1.627c-.672.378-1.455.572-2.348.581h-2.755zm1.313-8.873v7.8h1.38c1.012 0 1.8-.315 2.362-.944.563-.629.845-1.524.845-2.686v-.581c0-1.13-.266-2.009-.797-2.635-.53-.627-1.284-.945-2.259-.954h-1.531zm10.739 9.01c-1.003 0-1.818-.33-2.447-.988-.63-.659-.944-1.54-.944-2.642v-.233c0-.733.14-1.388.42-1.965a3.28 3.28 0 0 1 1.177-1.353 2.956 2.956 0 0 1 1.637-.49c.961 0 1.709.318 2.242.951.533.633.8 1.54.8 2.72v.527h-5.01c.017.73.23 1.318.638 1.767.408.449.926.673 1.555.673.447 0 .825-.09 1.135-.273.31-.182.581-.424.814-.725l.772.602c-.62.952-1.55 1.429-2.789 1.429zm-.157-6.631c-.51 0-.939.186-1.285.557-.347.371-.56.892-.643 1.562h3.705v-.096c-.036-.642-.21-1.14-.52-1.493-.31-.354-.729-.53-1.257-.53zm.615-4.006h1.531l-1.832 2.01h-1.018l1.319-2.01zm10.151 6.884c0 1.13-.26 2.038-.779 2.724-.52.686-1.217 1.029-2.092 1.029-.934 0-1.656-.33-2.167-.991l-.061.854h-1.162v-10.5h1.264v3.917c.51-.633 1.215-.95 2.113-.95.897 0 1.603.34 2.115 1.018.513.68.77 1.61.77 2.79v.109zm-1.264-.144c0-.861-.167-1.526-.5-1.996-.332-.47-.81-.704-1.435-.704-.834 0-1.433.387-1.798 1.162v3.2c.388.774.992 1.161 1.812 1.161.606 0 1.078-.234 1.415-.704.337-.469.506-1.175.506-2.119zm7.424 3.029c-.493.578-1.215.868-2.167.868-.789 0-1.39-.23-1.802-.687-.412-.458-.62-1.136-.625-2.034v-4.812h1.264v4.778c0 1.12.456 1.681 1.368 1.681.966 0 1.608-.36 1.927-1.08v-5.38h1.265V133h-1.203l-.027-.731zm4.867-8.457v1.792h1.38v.977h-1.38v4.587c0 .296.061.518.184.666.123.149.333.223.63.223.145 0 .346-.028.6-.082V133a3.666 3.666 0 0 1-.97.137c-.565 0-.991-.171-1.278-.513-.287-.342-.43-.827-.43-1.456v-4.587H51.23v-.977h1.347v-1.791h1.265z" fill="#2A3052"/></g></svg>