<svg width="299" height="197" xmlns="http://www.w3.org/2000/svg"><g fill="none" fill-rule="evenodd"><path fill="#F1F2F2" d="M0 0h299v197H0z"/><path d="M1.987 1.98v193.04h295.026V1.98H1.987zM299 0v197H0V0h299z" fill="#C2C2C2" fill-rule="nonzero"/><path d="M1.75 55.055V53.84h293.487v1.215H1.75zm0 22.53V76.37h293.487v1.215H1.75zm0 18.775v-1.215h293.487v1.215H1.75zm0 41.305v-1.215h293.487v1.215H1.75zm0 18.775v-1.215h293.487v1.215H1.75zm0 22.53v-1.215h293.487v1.215H1.75zM36.886 33.795h1.215V195.26h-1.215V33.795zm37.627 0h1.215V195.26h-1.215V33.795zm37.626 0h1.215V195.26h-1.215V33.795zm33.864 0h1.215V195.26h-1.215V33.795zm37.627 0h1.215V195.26h-1.215V33.795zm37.627 0h1.215V195.26h-1.215V33.795zm37.626 0h1.215V195.26h-1.215V33.795z" fill="#DFDEDE" fill-rule="nonzero"/><path fill="#2A3052" fill-rule="nonzero" d="M2.906 116.82v-1.215h291.607v1.215z"/><path fill="#C2C2C2" fill-rule="nonzero" d="M.8 34.78v-2.43h293.563v2.43z"/><path d="M187.24 147.191h-35.181l-5.419-8.223-5.418 8.223h-35.18c-2.635 0-4.742 2.14-4.742 4.807v24.82c0 2.666 2.145 4.807 4.741 4.807h81.236c2.634 0 4.741-2.14 4.741-4.807v-24.82c0-2.666-2.145-4.807-4.778-4.807z" fill="#E88024"/><g transform="translate(38 63)"><path d="M34.145 31.28L8.915 54.506a1.805 1.805 0 0 1-2.444-2.656l26.505-24.4a1.805 1.805 0 0 1 2.5.054l34.551 34.651 31.793-45.67a1.805 1.805 0 0 1 2.81-.19l45.25 49.217L188.023-.245a1.805 1.805 0 0 1 2.497-.637l24.47 14.84a1.805 1.805 0 0 1-1.871 3.087L190.222 3.159l-38.45 66.286a1.805 1.805 0 0 1-2.89.316l-45.386-49.365-31.74 45.595a1.805 1.805 0 0 1-2.76.243L34.145 31.281z" fill="#2A3052" fill-rule="nonzero"/><ellipse fill="#FFF" opacity=".6" cx="214.055" cy="15.501" rx="7.608" ry="7.855"/><path d="M214.055 24.56c-4.875 0-8.811-4.064-8.811-9.059 0-4.994 3.936-9.058 8.81-9.058 4.876 0 8.812 4.064 8.812 9.058 0 4.995-3.936 9.059-8.811 9.059zm0-2.407c3.528 0 6.404-2.97 6.404-6.652s-2.876-6.651-6.404-6.651-6.404 2.97-6.404 6.651c0 3.682 2.876 6.652 6.404 6.652z" fill="#E88024" fill-rule="nonzero"/><ellipse fill="#FFF" opacity=".6" cx="7.692" cy="53.177" rx="7.608" ry="7.855"/><path d="M7.693 62.235c-4.875 0-8.81-4.064-8.81-9.058s3.935-9.058 8.81-9.058 8.811 4.064 8.811 9.058-3.936 9.058-8.81 9.058zm0-2.407c3.528 0 6.404-2.97 6.404-6.651 0-3.682-2.876-6.652-6.404-6.652s-6.404 2.97-6.404 6.652 2.876 6.651 6.404 6.651z" fill="#E88024" fill-rule="nonzero"/></g><path d="M258.634 95.768l.11 1.142c.453-.79 1.3-1.27 2.212-1.253.81 0 1.437.221 1.88.737.441.48.662 1.216.662 2.211v4.791h-1.363v-4.754c0-.663-.148-1.142-.406-1.437-.258-.295-.663-.405-1.179-.405-.405 0-.737.11-1.032.295-.307.19-.56.457-.737.773v5.528h-1.363v-7.591l1.216-.037zm-6.112-1.966v.982h-4.709v3.334h4.01v1.01h-4.01v4.268h-1.382v-9.594h6.091zm1.57 3.186h1.325v6.427h-1.326v-6.427zm-.09-3.032v1.38h1.45v-1.38h-1.45zM61.693 133.174v1.647h1.284v.922h-1.284v4.118c0 .33.066.527.197.659.132.131.297.197.527.197.066 0 .132 0 .231-.033a.47.47 0 0 0 .23-.066l.165.857c-.099.066-.23.132-.395.198-.173.038-.35.06-.527.065-.441.015-.87-.15-1.186-.46-.296-.297-.428-.791-.428-1.417v-4.118h-1.054v-.922h1.054v-1.647h1.186zm-17.15 5.581h-4.577c.118 1.394.69 2.091 1.72 2.091 1.54 0 1.755-1.307 1.755-1.225l1.012-.004c-.494 1.415-1.416 2.122-2.768 2.122-2.029 0-2.74-1.434-2.825-2.984-.086-1.55.43-3.629 2.841-3.629 1.978.037 2.925 1.246 2.842 3.63v-.001zm-1.148-.824c-.115-1.232-.688-1.847-1.719-1.847-1.03 0-1.603.615-1.719 1.847h3.438zm13.516-2.981h1.172v6.636h-1.172v-.984c-.372.48-.986 1.253-2.217 1.123-1.23-.13-1.992-1.096-1.998-2.16-.005-1.065.006-4.975 0-4.615h1.163v2.514c0 2.941.647 3.267 1.53 3.267.885 0 1.318-.747 1.522-.997-.01-1.397-.01-2.992 0-4.784zm-11.208-2.968h1.163v3.865c.337-.682.968-1.023 1.895-1.023 1.39 0 1.83.84 2 1.08.17.242.508.933.601 2.038.08.959-.149 2.45-.813 3.033-.875.77-1.438.764-1.908.764s-1.353-.226-1.845-1.066l-.169.9h-.924v-9.591zm1.216 7.707c.348.7.815 1.05 1.402 1.05.88 0 1.195-.248 1.484-.688.33-.503.401-1.484.333-2.238a3.863 3.863 0 0 0-.333-1.209c-.08-.16-.344-.864-1.484-.813-.947.01-1.375.846-1.402 1.007v2.891zm-3.13-7.707l-1.693 1.66h-.904l1.144-1.66h1.453zm-12.82.919h3.316c1.316.2 3.4.716 3.4 4.42 0 3.703-2.13 4.253-3.357 4.418H30.97v-8.838zm1.175.933v7.012h1.678c.323 0 2.195-.002 2.51-2.16.314-2.158-.022-3.005-.285-3.55-.263-.546-.953-1.302-2.225-1.302h-1.678z" fill="#2A3052" fill-rule="nonzero"/><path d="M252.704 134.392h1.262l1.086-6.054h-1.293l-1.055 6.054zm2.617-8.786l-.18 1.352h-1.319l.226-1.352h1.273zm8.582-.071h1.278l-1.528 8.955h-1.238l1.488-8.955zm5.906 7.563c.066.163.143.336.323.72-1.36 1.036-2.926.895-3.657.466-1.1-.645-1.1-1.844-1.096-2.77.007-1.183.877-3.383 3.297-3.383s2.023 2.614 1.905 3.382c-.248 0-1.582.024-4.004.073-.224 2.874 1.947 2.231 3.231 1.512h.001zm-.146-2.311c.14-1.135-.208-1.703-1.046-1.703-1.258 0-1.698 1.333-1.84 1.703h2.886zm-18.544-2.037h1.064c.226-1.11-.31-2.811-2.715-2.757-2.404.054-3.17 1.952-3.452 2.613-.282.661-.382 2.204-.478 2.995-.095.791.34 2.702 2.311 2.945 1.971.243 3.641-.99 3.86-2.746h-1.06c-.19.541-.326 2.089-2.568 1.866-1.22-.12-1.51-1.51-1.406-2.346.106-.836.161-1.757.505-2.714.416-1.157 1.324-1.74 2.222-1.74 1.255 0 1.827.628 1.716 1.884h.001zm6.795.268c.051-.235 1.428-1.443 2.886-.617.916.519 1.181 1.999.848 3.443-.382 1.657-1.074 2.484-2.173 2.678-1.607.284-2.178-.617-2.308-.914a9.582 9.582 0 0 1-.337.849h-.846l1.33-8.922h1.131c-.389 2.478-.566 3.639-.53 3.483zm-.538 3.711c.177.579.592.896 1.247.952.941.08 1.764-.817 1.947-2.055.182-1.227 0-2.451-.928-2.543-.848-.084-1.473.242-1.874.977l-.392 2.67v-.001z" opacity=".9" fill="#6D6E71" fill-rule="nonzero"/><path d="M176.053 167.246h-5.594c.124 2.583 1.722 3.207 4.794 1.873l.653 1.256a4.567 4.567 0 0 1-1.952.945c-1.52.33-3.005.078-4.035-.682-2.233-1.647-1.663-5.105-1.17-6.297.23-.557 1.361-2.127 2.706-2.279 1.22-.137 4.237-.427 4.598 3.63.03.825.03 1.343 0 1.554zm-1.977-1.682c.001-1.443-.57-2.165-1.713-2.165-1.715 0-1.888 2.165-1.888 2.165h3.601zm-45.583-3.605h1.98v9.14h-1.98v-9.14zm.04-3.989v1.98h1.998v-1.98h-1.999zm30.103 4.13h2.017v9.415h-2.017V162.1zm.04-4.11v1.787h2.058v-1.787h-2.058zm-33.849.888h2.255l-4.445 12.57h-2.08l-4.39-12.57h2.266l3.191 9.996 3.203-9.996zm13.592 6.524c.85.002 1.486.002 1.91 0 0-1-.685-3.66-3.87-3.546-3.185.115-3.964 2.977-3.964 4.876 0 1.898.968 4.875 4.084 4.875 3.116 0 3.75-2.37 3.75-3.283h-1.91c-.116 1.055-.722 1.583-1.819 1.583-1.644 0-2.015-1.933-2.015-3.175 0-1.243.235-3.092 1.874-3.179 1.093-.058 1.746.559 1.96 1.85v-.001zm4.245-5.61h2.084v2.287h1.676v1.51h-1.675v5.143c0 .348.002 1.4 1.515 1.005.111.735.193 1.247.245 1.534-.54.33-3.844 1.036-3.844-2.54v-5.142h-1.43v-1.51h1.43v-2.287zm9.328 2.205c2.601 0 4.013 1.586 4.37 3.962.356 2.377-.927 5.733-4.187 5.733-3.26 0-4.315-2.479-4.315-5.044 0-2.566 1.53-4.65 4.132-4.65v-.001zm.023 1.665c-.773.073-2.144.614-2.064 3.18.08 2.565 1.202 3.168 2.064 3.168.862 0 2.316-.24 2.316-3.157 0-2.919-1.542-3.264-2.316-3.19v-.001zm15.564-1.71a23.74 23.74 0 0 1-.28 1.988c-1.015-.065-2.067-.162-2.528 1.024l.013 6.374h-2.087v-9.312h1.856c.09.622.145 1.075.166 1.36.642-1.199 1.595-1.676 2.86-1.434zm10.645-3.117h1.956v8.196h-1.956v-8.196zm2.03 10.595v1.89h-2.022v-1.89h2.022z" fill="#FFF" fill-rule="nonzero"/><path d="M21.907 18.796c0-.465-.164-.839-.494-1.12-.329-.283-.906-.549-1.73-.798-1.44-.415-2.527-.907-3.263-1.477-.736-.57-1.104-1.35-1.104-2.341 0-.99.422-1.8 1.266-2.428.844-.628 1.922-.942 3.233-.942 1.33 0 2.41.353 3.246 1.058.836.706 1.24 1.576 1.212 2.61l-.017.05h-2.349c0-.558-.187-1.01-.56-1.357-.374-.346-.898-.518-1.573-.518-.648 0-1.148.143-1.503.431a1.36 1.36 0 0 0-.53 1.104c0 .41.19.746.568 1.009.38.263 1.033.54 1.963.834 1.334.37 2.344.86 3.03 1.47.686.608 1.03 1.408 1.03 2.398 0 1.035-.409 1.851-1.225 2.449-.817.597-1.894.896-3.233.896-1.318 0-2.466-.339-3.445-1.017-.98-.677-1.456-1.628-1.428-2.85l.017-.05h2.357c0 .719.22 1.246.66 1.58.44.335 1.053.503 1.84.503.657 0 1.161-.136 1.51-.407.348-.271.522-.634.522-1.087zm9.546 1.86c-.277.47-.628.832-1.054 1.086-.426.255-.916.382-1.47.382-.946 0-1.686-.303-2.22-.909-.534-.606-.8-1.548-.8-2.826v-5.42h2.415v5.437c0 .653.11 1.122.332 1.407.221.285.548.427.98.427.387 0 .72-.062.995-.187a1.68 1.68 0 0 0 .681-.552V12.97h2.424v8.98H31.67l-.216-1.295v.001zm12.21-2.948c0 1.328-.307 2.396-.92 3.204-.615.808-1.473 1.212-2.574 1.212a2.88 2.88 0 0 1-1.253-.261 2.574 2.574 0 0 1-.938-.768v4.308h-2.416V12.97h2.183l.141 1.062a2.87 2.87 0 0 1 .96-.909c.372-.213.81-.32 1.306-.32 1.113 0 1.976.435 2.59 1.304.614.869.922 2.011.922 3.428v.174-.001zm-2.423-.174c0-.847-.14-1.533-.424-2.059-.282-.525-.713-.788-1.295-.788-.365 0-.676.075-.933.224a1.6 1.6 0 0 0-.61.64v3.934c.15.254.352.448.61.58.257.134.574.2.95.2.587 0 1.017-.23 1.29-.689.275-.46.412-1.082.412-1.868v-.174zm7.894 4.59c-1.295 0-2.33-.415-3.105-1.245-.774-.83-1.162-1.884-1.162-3.162v-.332c0-1.334.367-2.433 1.1-3.296.733-.863 1.717-1.292 2.95-1.286 1.213 0 2.154.365 2.823 1.095.67.73 1.005 1.718 1.005 2.964v1.32h-5.363l-.016.05c.044.591.242 1.078.593 1.46.352.382.83.573 1.432.573.537 0 .982-.054 1.337-.162.404-.13.793-.3 1.162-.51l.655 1.494c-.365.299-.844.546-1.436.743a6.249 6.249 0 0 1-1.975.294zm-.216-7.454c-.448 0-.802.172-1.063.515-.26.343-.42.794-.48 1.353l.024.041h2.972v-.215c0-.515-.12-.926-.362-1.233-.24-.307-.604-.46-1.09-.46v-.001zm.266-5.204h2.565l.016.05-2.3 2.158h-1.933l1.652-2.208zm9.695 5.586l-.888-.025c-.36 0-.656.075-.888.224-.233.15-.41.36-.532.631v6.068h-2.415v-8.981h2.25l.107 1.328c.21-.47.483-.837.818-1.1a1.82 1.82 0 0 1 1.158-.394c.121 0 .234.01.336.029.102.019.206.042.311.07l-.257 2.15zm3.777 6.898h-2.424v-8.981h2.424v8.981zm0-11.131h-2.424V9h2.424v1.819zm5.968 11.305c-1.295 0-2.33-.415-3.104-1.245-.775-.83-1.163-1.884-1.163-3.162v-.332c0-1.334.367-2.433 1.1-3.296.733-.863 1.717-1.292 2.951-1.286 1.212 0 2.153.365 2.822 1.095.67.73 1.005 1.718 1.005 2.964v1.32h-5.362l-.017.05c.044.591.242 1.078.593 1.46.352.382.83.573 1.432.573.537 0 .983-.054 1.337-.162.404-.13.793-.3 1.162-.51l.656 1.494c-.366.299-.844.546-1.436.743a6.249 6.249 0 0 1-1.976.294zm-.216-7.454c-.448 0-.802.172-1.062.515s-.42.794-.482 1.353l.025.041h2.972v-.215c0-.515-.12-.926-.36-1.233-.242-.307-.606-.46-1.093-.46v-.001zm10.725 5.985c-.277.47-.628.833-1.054 1.087-.427.255-.916.382-1.47.382-.946 0-1.686-.303-2.22-.909-.534-.606-.8-1.548-.8-2.826v-5.42h2.414v5.437c0 .653.111 1.122.332 1.407.222.285.548.427.98.427.387 0 .72-.062.996-.187a1.68 1.68 0 0 0 .68-.552V12.97h2.425v8.98H79.35l-.216-1.295zm8.832-5.603l-.888-.025c-.36 0-.656.075-.889.224-.232.15-.41.36-.53.631v6.068h-2.416v-8.981h2.25l.107 1.328c.21-.47.483-.837.818-1.1a1.82 1.82 0 0 1 1.158-.394c.121 0 .233.01.336.029.102.019.206.042.311.07l-.257 2.15z" fill="#000" fill-rule="nonzero"/></g></svg>