<svg width="299" height="197" xmlns="http://www.w3.org/2000/svg"><g fill="none" fill-rule="evenodd"><path fill="#F1F2F2" d="M0 0h299v197H0z"/><path d="M1.987 1.98v193.04h295.026V1.98H1.987zM299 0v197H0V0h299z" fill="#C2C2C2" fill-rule="nonzero"/><path d="M4.887 55.446v-1.207h289.656v1.207H4.887zm0 40.534v-1.207h289.656v1.207H4.887zm0 40.534v-1.207h289.656v1.207H4.887zm0 40.496v-1.207h289.656v1.207H4.887zm34.38-142.416h1.206v159.67h-1.206V34.594zm36.664 0h1.207v159.67h-1.207V34.594zm36.628 0h1.207v159.67h-1.207V34.594zm36.665 0h1.207v159.67h-1.207V34.594zm36.627 0h1.207v159.67h-1.207V34.594zm36.628 0h1.207v159.67h-1.207V34.594zM4.887 116.228v-1.207h289.656v1.207H4.887z" fill="#DFDEDE" fill-rule="nonzero"/><path fill="#2A3052" fill-rule="nonzero" d="M4.887 76.731v-1.206h289.656v1.206z"/><path fill="#DFDEDE" fill-rule="nonzero" d="M4.887 157.762v-1.207h289.656v1.207z"/><path fill="#2A3052" fill-rule="nonzero" d="M259.144 35.594h1.207v159.67h-1.207z"/><path fill="#C2C2C2" fill-rule="nonzero" d="M2.794 35.606V33.19h293.842v2.415z"/><path d="M41.087 138.25a1.81 1.81 0 0 1-2.434-2.68l36.665-33.287a1.81 1.81 0 0 1 2.492.056l24.705 24.516 30.16-33.337a1.81 1.81 0 0 1 2.572-.115l44.09 40.784 42.273-59.112a1.81 1.81 0 0 1 2.945 2.106l-43.467 60.782a1.81 1.81 0 0 1-2.702.276l-44.254-40.934-30.204 33.385a1.81 1.81 0 0 1-2.618.07l-24.83-24.64-35.393 32.13z" fill="#2A3052" fill-rule="nonzero"/><path d="M187.987 147.445h-34.945l-5.382-8.181-5.382 8.181h-34.946c-2.616 0-4.71 2.13-4.71 4.782v24.694c0 2.653 2.131 4.782 4.71 4.782h80.692c2.617 0 4.71-2.13 4.71-4.782v-24.694c0-2.652-2.13-4.782-4.747-4.782z" fill="#E88024"/><ellipse cx="9.045" cy="8.618" rx="8.11" ry="8.443" opacity=".6" transform="translate(214.037 67.51)" fill="#FFF"/><path d="M223.082 85.778c-5.157 0-9.317-4.331-9.317-9.65s4.16-9.65 9.317-9.65 9.318 4.331 9.318 9.65-4.16 9.65-9.318 9.65zm0-2.414c3.802 0 6.904-3.23 6.904-7.236 0-4.007-3.102-7.236-6.904-7.236-3.801 0-6.903 3.229-6.903 7.236s3.102 7.236 6.903 7.236z" fill="#E88024" fill-rule="nonzero"/><ellipse cx="8.97" cy="8.891" rx="8.11" ry="8.443" opacity=".6" transform="translate(30.9 128.019)" fill="#FFF"/><path d="M39.87 146.56c-5.157 0-9.317-4.33-9.317-9.65 0-5.319 4.16-9.65 9.317-9.65s9.317 4.331 9.317 9.65c0 5.32-4.16 9.65-9.317 9.65zm0-2.414c3.802 0 6.903-3.229 6.903-7.236s-3.101-7.236-6.903-7.236c-3.802 0-6.903 3.23-6.903 7.236 0 4.007 3.101 7.236 6.903 7.236z" fill="#E88024" fill-rule="nonzero"/><path d="M22.85 13.309h-2.921v8.644h-2.05v-8.644H15v-1.58h7.85v1.58zm.098 4.775c0-1.133.316-2.06.948-2.784.632-.723 1.507-1.085 2.626-1.085 1.123 0 2.003.36 2.64 1.081s.955 1.65.955 2.788v.147c0 1.142-.317 2.073-.952 2.791-.634.719-1.51 1.078-2.629 1.078-1.123 0-2.002-.36-2.637-1.078-.634-.718-.95-1.649-.95-2.79v-.148h-.001zm2.043.147c0 .693.122 1.249.365 1.668.244.419.637.628 1.18.628.529 0 .916-.21 1.162-.632.246-.42.369-.976.369-1.664v-.147c0-.674-.124-1.224-.372-1.65-.249-.426-.64-.64-1.173-.64-.529 0-.916.215-1.162.643-.246.429-.369.978-.369 1.647v.147zm11.045 2.598a2.58 2.58 0 0 1-.892.941c-.36.22-.78.33-1.257.33-.8 0-1.426-.271-1.878-.814-.452-.543-.677-1.386-.677-2.528v-4.403h2.043v4.416c0 .665.09 1.12.27 1.366.18.245.46.368.84.368.327 0 .608-.052.842-.158a1.42 1.42 0 0 0 .575-.467v-5.525h2.05v7.597h-1.699l-.217-1.124v.001zm6.635-.302c.356 0 .639-.106.85-.32.21-.212.316-.497.316-.852h1.867l.014.042c.019.768-.267 1.41-.856 1.927-.59.517-1.32.776-2.191.776-1.123 0-1.992-.36-2.605-1.078-.613-.718-.92-1.637-.92-2.756v-.21c0-1.114.306-2.033.917-2.756.61-.723 1.475-1.085 2.594-1.085.927 0 1.673.267 2.24.8.566.534.84 1.236.821 2.107l-.014.042h-1.867c0-.393-.105-.72-.313-.98-.208-.26-.497-.39-.867-.39-.529 0-.905.213-1.127.636-.222.424-.334.966-.334 1.626v.21c0 .674.112 1.22.334 1.636.222.417.603.625 1.141.625zm6.242-5.21a2.61 2.61 0 0 1 .878-.81c.346-.195.73-.292 1.151-.292.791 0 1.413.263 1.864.79.452.527.678 1.34.678 2.44v4.508h-2.05v-4.522c0-.59-.095-1.008-.285-1.253-.19-.246-.474-.369-.853-.369-.314 0-.586.05-.818.15-.232.102-.42.246-.565.433v5.56h-2.05V11h2.05v4.318-.001zm9.408 6.783c-1.132 0-2.017-.347-2.654-1.043-.636-.695-.954-1.59-.954-2.685v-.281c0-1.138.308-2.069.926-2.795.618-.725 1.468-1.086 2.55-1.08 1.02 0 1.802.312 2.348.936.545.625.818 1.467.818 2.525v1.06h-4.53l-.02.042c.033.52.19.94.474 1.264.283.323.703.484 1.26.484a4.25 4.25 0 0 0 1.17-.14 4.77 4.77 0 0 0 .993-.428l.554 1.263c-.304.249-.716.457-1.235.625a5.48 5.48 0 0 1-1.7.253zm-.133-6.305c-.412 0-.729.142-.951.425-.223.283-.357.659-.404 1.127l.014.035h2.5v-.155c0-.444-.092-.794-.274-1.05-.183-.255-.478-.382-.885-.382z" fill="#000" fill-rule="nonzero"/><path d="M282.437 121.438l.123 1.258a2.744 2.744 0 0 1 2.435-1.38c.893 0 1.583.243 2.07.812.487.527.73 1.339.73 2.435v5.276h-1.502v-5.236c0-.73-.162-1.258-.446-1.583-.284-.324-.73-.446-1.299-.446-.446 0-.811.122-1.136.325-.339.21-.618.504-.812.852v6.088h-1.502v-8.36l1.34-.041h-.001zm-6.731-2.165v1.081h-5.185v3.672h4.417v1.113h-4.417v4.7h-1.523v-10.566h6.708zm1.728 3.508h1.46v7.079h-1.46v-7.079zm-.097-3.339v1.52h1.597v-1.52h-1.597zm-225.142 34.8v1.623h1.266v.909h-1.266v4.057c0 .325.065.52.195.65s.292.194.519.194c.065 0 .13 0 .227-.032a.47.47 0 0 0 .227-.065l.163.844c-.098.065-.228.13-.39.194a2.76 2.76 0 0 1-.52.065 1.59 1.59 0 0 1-1.168-.454c-.292-.292-.422-.78-.422-1.396v-4.057h-1.039v-.91h1.04v-1.622h1.168zm-16.899 5.5h-4.51c.116 1.373.68 2.06 1.693 2.06 1.519 0 1.73-1.288 1.73-1.207l.997-.004c-.486 1.394-1.395 2.091-2.727 2.091-1.999 0-2.7-1.414-2.784-2.94-.084-1.527.424-3.576 2.8-3.576 1.949.036 2.882 1.228 2.8 3.576h.001zm-1.132-.812c-.113-1.214-.678-1.82-1.693-1.82-1.016 0-1.58.606-1.694 1.82h3.387zm13.319-2.938h1.155v6.54h-1.155v-.97c-.367.473-.971 1.234-2.184 1.106-1.214-.128-1.964-1.08-1.97-2.129-.005-1.049.006-4.902 0-4.547h1.146v2.478c0 2.897.638 3.218 1.509 3.218.871 0 1.298-.736 1.499-.981-.01-1.377-.01-2.949 0-4.715zm-11.045-2.925h1.147v3.81c.331-.673.954-1.009 1.867-1.009 1.37 0 1.803.827 1.97 1.065.167.237.501.918.593 2.008.08.944-.147 2.414-.8 2.989-.863.757-1.418.752-1.881.752-.463 0-1.333-.222-1.818-1.05l-.167.886h-.91v-9.451h-.001zm1.198 7.595c.344.69.804 1.035 1.382 1.035.866 0 1.178-.245 1.463-.678.325-.496.395-1.463.328-2.206a3.806 3.806 0 0 0-.328-1.191c-.08-.158-.34-.851-1.463-.801-.933.009-1.354.834-1.382.992v2.849zm-3.084-7.595l-1.668 1.636h-.89l1.127-1.636h1.431zm-12.632.906h3.267c1.297.196 3.351.705 3.351 4.355 0 3.65-2.1 4.191-3.309 4.354h-3.31v-8.709h.001zm1.157.92v6.91h1.654c.318 0 2.163-.003 2.473-2.13.31-2.126-.022-2.961-.28-3.498-.26-.538-.94-1.282-2.193-1.282h-1.654z" fill="#2A3052" fill-rule="nonzero"/><path d="M34.284 68.673h1.244l1.07-5.967h-1.275l-1.039 5.967zm2.579-8.66l-.178 1.332h-1.298l.223-1.332h1.253zm8.459-.07h1.26l-1.506 8.826h-1.221l1.467-8.826zm5.82 7.455c.066.16.141.33.319.708-1.341 1.022-2.884.883-3.604.46-1.086-.636-1.086-1.817-1.08-2.73.007-1.166.864-3.334 3.249-3.334 2.385 0 1.994 2.576 1.877 3.333-.243 0-1.559.024-3.946.072-.221 2.833 1.92 2.2 3.185 1.49v.001zm-.144-2.279c.14-1.118-.204-1.678-1.03-1.678-1.24 0-1.674 1.314-1.813 1.678h2.843zm-18.276-2.007h1.048c.223-1.093-.306-2.771-2.676-2.718-2.369.054-3.124 1.924-3.402 2.576-.278.651-.377 2.172-.471 2.952-.094.78.335 2.663 2.278 2.902 1.942.24 3.588-.975 3.803-2.706h-1.043c-.187.533-.321 2.059-2.53 1.84-1.203-.12-1.49-1.49-1.386-2.314.103-.823.158-1.73.498-2.674.41-1.14 1.304-1.715 2.19-1.715 1.236 0 1.8.619 1.69 1.857h.001zm6.696.263c.051-.23 1.408-1.422 2.845-.608.904.512 1.165 1.97.836 3.394-.377 1.633-1.058 2.449-2.142 2.64-1.584.28-2.146-.609-2.274-.901a9.444 9.444 0 0 1-.333.837h-.834l1.31-8.794h1.117c-.384 2.442-.559 3.586-.525 3.433v-.001zm-.53 3.66c.175.57.584.883 1.23.937.928.08 1.738-.804 1.919-2.024.179-1.21 0-2.417-.915-2.507-.836-.083-1.452.238-1.847.963l-.387 2.63v.001z" opacity=".9" fill="#6D6E71" fill-rule="nonzero"/><path d="M173.172 166.608h-5.33c.118 2.46 1.64 3.055 4.568 1.784l.623 1.198c-.549.45-1.17.75-1.861.9-1.449.315-2.863.074-3.844-.65-2.128-1.57-1.584-4.865-1.116-6 .22-.53 1.298-2.027 2.58-2.172 1.161-.13 4.037-.406 4.38 3.458.028.787.028 1.28 0 1.482zm-1.883-1.603c0-1.375-.543-2.063-1.632-2.063-1.634 0-1.8 2.063-1.8 2.063h3.432zm-43.433-3.435h1.887v8.71h-1.887v-8.71zm.037-3.802v1.887h1.904v-1.887h-1.904zm28.684 3.937h1.921v8.97h-1.921v-8.97zm.038-3.916v1.702h1.961v-1.702h-1.961zm-32.252.846h2.148l-4.235 11.977h-1.982l-4.183-11.978h2.16l3.04 9.525 3.052-9.524zm12.95 6.216c.81.002 1.417.002 1.82 0 0-.953-.652-3.488-3.687-3.379-3.035.11-3.777 2.837-3.777 4.646 0 1.808.922 4.645 3.891 4.645 2.97 0 3.573-2.259 3.573-3.128h-1.82c-.11 1.005-.688 1.508-1.732 1.508-1.567 0-1.92-1.842-1.92-3.025 0-1.184.224-2.946 1.785-3.029 1.041-.055 1.663.532 1.867 1.762zm4.046-5.346h1.985v2.18h1.597v1.438h-1.597v4.9c0 .332.002 1.334 1.444.958.106.7.183 1.188.233 1.462-.515.313-3.662.987-3.662-2.42v-4.9h-1.363v-1.438h1.363v-2.18zm8.888 2.101c2.478 0 3.823 1.512 4.163 3.776.34 2.264-.883 5.462-3.99 5.462-3.106 0-4.11-2.362-4.11-4.806 0-2.445 1.457-4.432 3.936-4.432h.001zm.021 1.587c-.736.07-2.042.585-1.966 3.03.076 2.444 1.145 3.018 1.966 3.018.822 0 2.207-.227 2.207-3.008 0-2.78-1.47-3.11-2.207-3.04zm14.829-1.63c-.08.768-.17 1.4-.266 1.895-.966-.063-1.97-.154-2.408.975l.012 6.074h-1.989v-8.873h1.77c.084.592.137 1.024.157 1.295.612-1.141 1.52-1.596 2.725-1.366h-.001zm10.144-2.97h1.864v7.81h-1.864v-7.81zm1.934 10.096v1.8h-1.927v-1.8h1.927z" fill="#FFF" fill-rule="nonzero"/></g></svg>