<svg width="24" height="24" fill="none" xmlns="http://www.w3.org/2000/svg"><path d="M5.642 3.255c.493-.382 1.186-.333 1.642.135.496.592.926 1.239 1.272 1.908.123.206.222.405.299.598l.012-.002h10.83c.684 0 1.244.538 1.299 1.222l.004.11v7.462c.003.354-.134.696-.378.948-.217.223-.505.36-.81.388l-.115.005h-4.224a.364.364 0 01-.36-.368c0-.18.128-.33.296-.361l.064-.006h4.224a.577.577 0 00.414-.177.6.6 0 00.165-.347l.004-.08V7.309l-5.694 4.688a1.471 1.471 0 01-1.796.076l-.1-.076-4.375-3.678-.008-.008c-.069.056-.142.11-.22.161l-.103.07a2.802 2.802 0 00-.197.152 1.582 1.582 0 00-.386 1.914c.712 1.386 1.338 2.565 1.655 3.098l.085.14c.318.435.832.674 1.389.632-.035 0-.008-.018.029-.037l.414-.193.184-.083.163-.07a2.05 2.05 0 012.255.445 8.085 8.085 0 011.566 2.431 1.39 1.39 0 01-.337 1.571c-1.193 1.072-2.94 1.164-4.668.676-1.751-.595-3.38-2.507-4.858-5.287C4.29 12.072 3.395 9.8 3.143 8.787c-.56-2.243.577-4.044 2.5-5.532zm1.114.634a.51.51 0 00-.68-.048l-.163.13C4.3 5.27 3.388 6.794 3.841 8.605c.236.95 1.109 3.166 2.07 4.973 1.397 2.628 2.924 4.42 4.434 4.934 1.5.423 3.018.344 3.982-.522a.644.644 0 00.153-.73 7.347 7.347 0 00-1.416-2.203 1.339 1.339 0 00-1.469-.285l-.152.066-.7.323a.468.468 0 01-.144.048l-.187.008a2.269 2.269 0 01-1.86-.952c-.198-.31-.545-.94-.977-1.759l-.812-1.56a2.329 2.329 0 01.565-2.82c.12-.102.245-.195.372-.276l.087-.06c.643-.472.755-1.106.144-2.13A9.841 9.841 0 006.756 3.89zm12.941 2.74H9.042a1.79 1.79 0 01-.25 1.138l4.354 3.66c.263.22.63.238.912.054l.074-.056L19.91 6.67a.569.569 0 00-.138-.036l-.074-.004z" fill="url(#paint0_linear)"/><defs><linearGradient id="paint0_linear" x1="3" y1="18.182" x2="19.687" y2="2.886" gradientUnits="userSpaceOnUse"><stop stop-color="#FF444F"/><stop offset="1" stop-color="#FF6444"/></linearGradient></defs></svg>