<svg width="120" height="20" fill="none" xmlns="http://www.w3.org/2000/svg"><g clip-path="url(#a)"><path d="m4.57.1-.005.022 7.596 9.876L.005 19.874 0 19.896h12.28a7.696 7.696 0 0 0 7.5-5.965l1.017-4.404A7.695 7.695 0 0 0 13.297.1H4.57z" fill="url(#b)"/><path d="m12.156 10.018-5.34 9.878H0l12.156-9.878z" fill="#CC2F3E"/><path d="M30.556.1h7.72c6.221 0 9.767 4.27 8.785 9.84l-.01.056c-.983 5.572-6.044 9.898-12.265 9.898h-7.72L30.555.1zm4.923 15.865a6.978 6.978 0 0 0 7.009-5.91l.01-.057c.618-3.508-1.352-5.968-4.915-5.968h-3.365l-2.105 11.934h3.366zM52.794.1h15.073l-.683 3.874H56.438L55.73 7.99h6.844l-.684 3.874h-6.843l-.733 4.157H65.06l-.683 3.875H49.304L52.794.1zm29.123 12.726c2.682-.934 4.76-2.94 5.324-6.137l.01-.056c.33-1.867.01-3.422-.9-4.525C85.281.808 83.454.1 80.938.1h-9.05l-3.49 19.796h4.355L75.55 4.03h4.327c2.12 0 3.252.962 2.923 2.828l-.01.057c-.294 1.668-1.71 2.8-3.83 2.8h-3.282l4.738 10.18h5.09l-3.589-7.07zM92.413.1h4.356l-3.49 19.796h-4.356L92.413.1zm7.877 0h4.773l2.697 13.843L115.339.1H120l-11.437 19.796h-3.818L100.29.1z" fill="#FFF"/></g><defs><linearGradient id="b" x1="13.265" y1="-3.312" x2="9.321" y2="21.565" gradientUnits="userSpaceOnUse"><stop stop-color="#F26447"/><stop offset="1" stop-color="#EF4852"/></linearGradient><clipPath id="a"><path fill="#fff" transform="translate(0 .1)" d="M0 0h120v19.8H0z"/></clipPath></defs></svg>