<svg width="95" height="16" fill="none" xmlns="http://www.w3.org/2000/svg"><g clip-path="url(#prefix__clip0)"><path d="M3.618 0l-.004.018 6.014 7.98L.004 15.98 0 15.996h9.722a6.015 6.015 0 003.793-1.351 6.236 6.236 0 002.145-3.468l.804-3.56c.207-.911.209-1.859.006-2.771a6.275 6.275 0 00-1.174-2.5A6.116 6.116 0 0013.174.618 5.99 5.99 0 0010.527 0h-6.91z" fill="url(#prefix__paint0_linear)"/><path d="M9.623 8.014l-4.227 7.982H0l9.623-7.982z" fill="#CC2F3E"/><path d="M24.19 0h6.112c4.925 0 7.732 3.45 6.954 7.952l-.008.045c-.777 4.502-4.784 7.998-9.71 7.998h-6.111L24.19 0zm3.897 12.82a5.456 5.456 0 003.65-1.327 5.669 5.669 0 001.9-3.449l.007-.046c.49-2.834-1.07-4.822-3.891-4.822h-2.664l-1.666 9.643h2.664zM41.795 0h11.933l-.54 3.13H44.68l-.56 3.246h5.418l-.542 3.13H43.58l-.58 3.36h8.507l-.541 3.13H39.032L41.796 0zM64.851 10.283c2.123-.754 3.769-2.375 4.215-4.958l.008-.046c.261-1.508.007-2.765-.713-3.656C67.514.57 66.068 0 64.076 0H56.91l-2.763 15.996h3.448l2.214-12.82h3.426c1.679 0 2.574.777 2.314 2.285l-.008.046c-.233 1.348-1.354 2.262-3.033 2.262h-2.597l3.75 8.227h4.03l-2.84-5.713zM73.16 0h3.449l-2.764 15.996h-3.448L73.161 0zM79.397 0h3.778l2.135 11.186L91.31 0H95l-9.054 15.996h-3.023L79.397 0z" fill="#fff"/></g><defs><linearGradient id="prefix__paint0_linear" x1="10.501" y1="-2.757" x2="7.252" y2="17.325" gradientUnits="userSpaceOnUse"><stop stop-color="#F26447"/><stop offset="1" stop-color="#EF4852"/></linearGradient><clipPath id="prefix__clip0"><path fill="#fff" d="M0 0h95v16H0z"/></clipPath></defs></svg>