<svg width="24" height="24" fill="none" xmlns="http://www.w3.org/2000/svg"><path d="M17.647 3c.203 0 .368.161.368.36l-.002 10.89h2.45c.145 0 .271.094.319.229l.015.06.08.588.022.203c.082.777.12 1.566.091 2.306-.076 1.94-.593 3.204-1.72 3.342a.42.42 0 01-.139.022l-13.842-.05c-1.157-.017-2.115-.863-2.269-1.978l-.014-.13-.006-.14V3.36c0-.199.165-.36.368-.36h14.28zm2.524 11.944h-2.157v1.688c-.042.815.056 1.63.285 2.396l.092.285.142.323c.222.475.378.635.613.644l.031.004c.701-.136 1.075-1.085 1.137-2.675a15.547 15.547 0 00-.11-2.4l-.033-.265zM17.28 3.72H3.735v14.966l.005.111c.064.798.739 1.42 1.555 1.432l12.633.047a2.672 2.672 0 01-.087-.159c-.461-.912-.674-2.512-.562-4.97V3.72zM11.76 15.76a.24.24 0 01.24.24v.248a.24.24 0 01-.24.24H6.99a.24.24 0 01-.24-.24V16a.24.24 0 01.24-.24h4.77zm1.5-3a.24.24 0 01.24.24v.248a.24.24 0 01-.24.24H6.99a.24.24 0 01-.24-.24V13a.24.24 0 01.24-.24h6.27zm0-3.75a.24.24 0 01.24.24V9.5a.24.24 0 01-.24.24H6.99a.24.24 0 01-.24-.24V9.25a.24.24 0 01.24-.24h6.27zM9.135 6.386a.24.24 0 01.24.24v.248a.24.24 0 01-.24.24h-2.52a.24.24 0 01-.24-.24v-.248a.24.24 0 01.24-.24h2.52z" fill="url(#paint0_linear)"/><defs><linearGradient id="paint0_linear" x1="3" y1="21" x2="21" y2="3" gradientUnits="userSpaceOnUse"><stop stop-color="#FF444F"/><stop offset="1" stop-color="#FF6444"/></linearGradient></defs></svg>