<svg width="24" height="24" fill="none" xmlns="http://www.w3.org/2000/svg"><path d="M12 3c1.243 0 2.25 1.175 2.25 2.625 0 .834-.334 1.577-.853 2.058.973.349 1.737 1.17 2.037 2.196.28-.563.718-1.02 1.249-1.305a2.25 2.25 0 112.602.023c.876.486 1.49 1.444 1.545 2.568l.167 2.716a.854.854 0 01-.203.628.733.733 0 01-.564.258h-.594l-.42 4.875c-.03.318-.26.565-.547.603l-.08.005h-1.22c-.33.001-.604-.271-.629-.624l-.338-4.694h-.634a.736.736 0 01-.487-.186l.027.02a.665.665 0 01-.213.04h-.841a.085.085 0 00-.084.076l-.465 4.617c-.033.426-.374.752-.78.751h-1.198a.795.795 0 01-.781-.756l-.366-4.416c-.005-.05-.043-.087-.086-.087h-.705a.772.772 0 01-.567-.251.847.847 0 01-.222-.603l.12-3.264c0-1.3.703-2.427 1.733-2.99-.66-.457-1.103-1.297-1.103-2.258C9.75 4.175 10.757 3 12 3zM6 4.5a2.25 2.25 0 011.298 4.088c.928.503 1.56 1.52 1.56 2.682L9 13.972a.842.842 0 01-.212.603.754.754 0 01-.56.254l-.584-.001-.423 4.821a.652.652 0 01-.55.596l-.08.005H5.376c-.332.001-.608-.268-.633-.617l-.34-4.641H3.76a.749.749 0 01-.483-.19l-.064-.064a.842.842 0 01-.213-.59L3.1 11.29c0-1.188.644-2.216 1.584-2.717A2.25 2.25 0 016 4.5zm6.347 3.737c-1.393 0-2.523 1.18-2.523 2.65l-.12 3.276a.09.09 0 00.024.064.083.083 0 00.061.027h.709c.407.005.745.33.784.757l.367 4.427a.08.08 0 00.078.075h1.199c.04 0 .074-.032.078-.082l.465-4.629c.046-.419.386-.734.787-.732H15l.017-.474-.148-2.723c0-1.36-.986-2.48-2.252-2.621l-.136-.012-.134-.003zm-6.484.759h-.012c-1.143.07-2.05 1.07-2.05 2.308l-.099 2.87c0 .02.007.039.02.053.013.014.03.023.044.023h.701c.332-.001.608.268.633.617l.339 4.641h1.088l.423-4.812a.66.66 0 01.55-.602l.08-.007h.647c.02 0 .038-.008.051-.023a.075.075 0 00.02-.053l-.142-2.72c0-1.222-.903-2.222-2.042-2.295L6 9c-.046 0-.092-.001-.137-.004zM17.964 9c-1.154 0-2.107.971-2.168 2.204l-.078 2.31.031.569a.727.727 0 01-.002.095.052.052 0 00.021.004h.698c.33 0 .603.272.628.624l.337 4.694h1.096l.42-4.867a.663.663 0 01.546-.608l.081-.008h.664a.06.06 0 00.047-.02c.012-.015.018-.034.016-.06l-.168-2.727C20.073 9.97 19.12 9 17.964 9zm-5.589-.75c.207 0 .375.168.375.375v2.25a.375.375 0 01-.75 0v-2.25c0-.207.168-.375.375-.375zM6 5.248a1.502 1.502 0 000 3.004l-.043-.001.022-.001h.048A1.502 1.502 0 006 5.247zm12 0a1.503 1.503 0 000 3.004l-.048-.002h.069A1.503 1.503 0 0018 5.248zm-6-1.464c-.872 0-1.578.824-1.578 1.841S11.128 7.466 12 7.466c.872 0 1.578-.824 1.578-1.841S12.872 3.784 12 3.784z" fill="url(#paint0_linear)"/><defs><linearGradient id="paint0_linear" x1="3" y1="19.546" x2="20.297" y2="2.97" gradientUnits="userSpaceOnUse"><stop stop-color="#FF444F"/><stop offset="1" stop-color="#FF6444"/></linearGradient></defs></svg>