<svg xmlns="http://www.w3.org/2000/svg" width="24" height="24" fill="none"><g clip-path="url(#a)" fill="#FF444F"><path d="M0 2a2 2 0 0 1 2-2h7.077a2 2 0 0 1 2 2v7.077a2 2 0 0 1-2 2H2a2 2 0 0 1-2-2V2Z"/><path fill-rule="evenodd" clip-rule="evenodd" d="M22 1h-7.077a1 1 0 0 0-1 1v7.077a1 1 0 0 0 1 1H22a1 1 0 0 0 1-1V2a1 1 0 0 0-1-1Zm-7.077-1a2 2 0 0 0-2 2v7.077a2 2 0 0 0 2 2H22a2 2 0 0 0 2-2V2a2 2 0 0 0-2-2h-7.077ZM9.077 13.923H2a1 1 0 0 0-1 1V22a1 1 0 0 0 1 1h7.077a1 1 0 0 0 1-1v-7.077a1 1 0 0 0-1-1Zm-7.077-1a2 2 0 0 0-2 2V22a2 2 0 0 0 2 2h7.077a2 2 0 0 0 2-2v-7.077a2 2 0 0 0-2-2H2ZM22 13.923h-7.077a1 1 0 0 0-1 1V22a1 1 0 0 0 1 1H22a1 1 0 0 0 1-1v-7.077a1 1 0 0 0-1-1Zm-7.077-1a2 2 0 0 0-2 2V22a2 2 0 0 0 2 2H22a2 2 0 0 0 2-2v-7.077a2 2 0 0 0-2-2h-7.077Z"/></g><defs><clipPath id="a"><path fill="#fff" d="M0 0h24v24H0z"/></clipPath></defs></svg>