<svg width="299" height="197" xmlns="http://www.w3.org/2000/svg"><g fill="none" fill-rule="evenodd"><path fill="#F1F2F2" d="M0 0h299v197H0z"/><path d="M1.987 1.98v193.04h295.026V1.98H1.987zM299 0v197H0V0h299z" fill="#C2C2C2" fill-rule="nonzero"/><path d="M2.926 53.113V51.89H296.51v1.223H2.926zm0 20.598v-1.223H296.51v1.223H2.926zm0 20.56v-1.224H296.51v1.224H2.926zm0 41.157v-1.223H296.51v1.223H2.926zm0 20.56v-1.223H296.51v1.223H2.926zm0 20.56v-1.223H296.51v1.223H2.926zM37.772 31.942h1.223v162.126h-1.223V31.942zm37.162 0h1.223v162.126h-1.223V31.942zm37.124 0h1.223v162.126h-1.223V31.942zm37.162 0h1.223v162.126h-1.223V31.942zm37.124 0h1.223v162.126h-1.223V31.942zm37.124 0h1.224v162.126h-1.224V31.942zm37.162 0h1.224v162.126h-1.224V31.942z" fill="#DFDEDE" fill-rule="nonzero"/><path fill="#C2C2C2" fill-rule="nonzero" d="M.805 33.951v-2.447H298.63v2.447z"/><path d="M188.509 147.514h-35.42l-5.454-8.308-5.455 8.308h-35.42c-2.652 0-4.773 2.162-4.773 4.855v25.074c0 2.693 2.16 4.855 4.773 4.855h81.787c2.652 0 4.773-2.162 4.773-4.855v-25.074c0-2.693-2.16-4.855-4.811-4.855z" fill="#E88024"/><g transform="translate(5 93)"><path fill="#2A3052" fill-rule="nonzero" d="M.262 23.411v-1.485h288.35v1.485z"/><path d="M70.147 48.429a1.818 1.818 0 0 1-2.43.253L34.255 24.135a1.818 1.818 0 1 1 2.15-2.932l32.134 23.572 33.52-37.454a1.818 1.818 0 0 1 2.69-.02l31.776 34.444L179.704-.88a1.818 1.818 0 0 1 2.914.506l42.02 87.307 28.114-24.84a1.818 1.818 0 1 1 2.407 2.725l-29.915 26.43a1.818 1.818 0 0 1-2.841-.574L180.446 3.495 137.74 45.653a1.818 1.818 0 0 1-2.613-.06l-31.694-34.357L70.147 48.43z" fill="#2A3052" fill-rule="nonzero"/><ellipse fill="#FFF" opacity=".6" cx="35.33" cy="22.669" rx="8.067" ry="8.496"/><path d="M35.33 32.376c-5.14 0-9.28-4.36-9.28-9.707 0-5.348 4.14-9.708 9.28-9.708 5.139 0 9.279 4.36 9.279 9.708s-4.14 9.707-9.28 9.707zm0-2.423c3.771 0 6.855-3.248 6.855-7.284 0-4.037-3.084-7.284-6.855-7.284-3.772 0-6.856 3.247-6.856 7.284 0 4.036 3.084 7.284 6.856 7.284z" fill="#E88024" fill-rule="nonzero"/><ellipse fill="#FFF" opacity=".6" cx="253.956" cy="62.855" rx="8.067" ry="8.496"/><path d="M253.956 72.563c-5.14 0-9.28-4.36-9.28-9.707 0-5.348 4.14-9.708 9.28-9.708 5.139 0 9.279 4.36 9.279 9.708s-4.14 9.707-9.28 9.707zm0-2.423c3.771 0 6.855-3.248 6.855-7.284 0-4.037-3.084-7.284-6.855-7.284-3.772 0-6.856 3.247-6.856 7.284 0 4.036 3.084 7.284 6.856 7.284z" fill="#E88024" fill-rule="nonzero"/></g><path d="M18.892 145.776a612.37 612.37 0 0 0 0 6.126c1.166-.283 1.986.794 1.986 1.429 0 .634-.25 1.632-1.522 1.736-1.27.104-1.975-.761-1.975-1.822v-7.47h1.51l.001.001zm.445 7.005a.686.686 0 0 0-.715.69c0 .31.158.688.715.688.558 0 .698-.406.698-.726 0-.32-.21-.652-.698-.652zm8.586-7.007c.362.198.723.373 1.083.525-.309.659-.862.988-1.659.988-1.196 0-1.686-.611-2.822-.537-1.136.075-1.259.708-1.468 1.038.903.085 1.57.157 1.997.216.641.088 2.498.554 2.76 1.534.227.785.11 2.972.11 3.765 0 .794-.539 1.75-1.969 1.75-1.43 0-1.585-1.22-1.585-1.644 0-.424.456-1.904 2.004-1.463.015-.98.018-1.572.011-1.779-.01-.31-.032-.864-1.024-1.117-.99-.254-2.705-.483-3.818-.354.087-1.025.38-2.131 1.514-2.698 1.134-.568 2.593-.073 3.328.114.735.187 1.092 0 1.538-.338zm-2.035 6.99c-.41 0-.675.43-.675.7 0 .268.28.7.675.7s.75-.24.75-.72-.339-.68-.75-.68zm-5.318-8.502c.33-1.383.912-2.869 3.496-2.936 2.584-.068 3.641 1.904 3.941 3.014-1.887-.546-6.356-.39-7.437-.078zm1.64-.978c1.06-.113 3.156-.113 4.164.157-.353-.716-1.288-1.419-2.35-1.35-1.06.068-1.503.44-1.815 1.193h.001zm4.268-5.623h1.366v2.616h-1.366v-2.616zM36.59 145.8h1.52v7.577c0 .74-.345 1.311-.748 1.475-.238.096-.43.234-.772.11-.879-.32-.98-2.357-3.26-2.89-.009.375-.016 1.008-.022 1.899-.222 1.14-1.355 1.23-2.29.99-.936-.24-1.57-1.472-1.183-2.626.392-1.162 1.016-1.378 1.913-1.481a28.9 28.9 0 0 0 .028-2.062c-1.449.238-2.133-.795-2.026-1.692.107-.898.762-1.42 1.756-1.42.994-.001 1.825.802 1.802 1.68-.023.876-.016 2.152.023 3.583.823.142 1.37.41 2.052 1.011.194.17.537.526 1.063.988.102-.142.144-.406.144-1.123V145.8zm-5.285.77c-.348 0-.67.158-.67.708 0 .55.352.707.67.707.318 0 .747-.22.747-.7 0-.478-.398-.714-.747-.714v-.001zm.48 5.441c-.086-.099-.363-.103-.619.101-.256.204-.472.796-.223 1.52.248.725.843.344.843 0v-1.621zm15.192 2.928v-5.32c0-2.382-.76-2.624-1.02-2.624s-1.006.559-1.546.559-.714-.26-1.425-.559c-1.19.402-1.224 2.56-.98 3.122.163.375.351 1.512.566 3.414.063-.184.597-.917 1.603-2.201-.897.114-1.372-.932-1.372-1.59 0-.657.992-1.977 2.428-1.351 1.436.626.897 2.456.34 2.94-.372.324-1.234 1.53-2.585 3.62l-1.788-.01c.03-.543.03-1.187-.236-2.488-.175-.86-.6-2.133-.6-3.22 0-2.733 2.235-3.589 2.773-3.589.55.213.96.824 1.385.824.426 0 .654-.396 1.436-.824 1.763 0 2.505 2.242 2.505 2.93v6.367h-1.484zm-2.512-5.732c-.385 0-.69.362-.69.69 0 .33.22.681.69.681s.724-.327.724-.731c0-.404-.34-.64-.724-.64zm4.001-8.516c.787.004 1.194 0 1.42 0 .006.703-.22 1.542-1.42 2.54-1.052.875-2.896 1.228-3.887 1.16l-.012-.67c.522-.057.845-.33.97-.819-.864.067-1.638-.327-1.638-1.269s.603-1.246 1.408-1.315c.805-.068 1.316.645 1.493 1.164.177.518 0 1.192-.51 1.748 1.295-.264 2.176-1.597 2.176-2.539zm-3.242.352a.587.587 0 0 0-.587.592c0 .294.28.621.587.621.306 0 .658-.15.658-.621 0-.472-.298-.592-.658-.592zm11.178 4.753h1.444v5.452c0 .364-.538.584-.778.685.81.376 1.088.851 1.088 1.572 0 .722-.667 1.568-1.553 1.568-.886 0-1.307-.72-1.423-1.254-.117-.533.03-1.044.184-1.162-.944.117-1.833 1.453-2.013 2.258l-1.387.013v-6.158c-1.26.066-1.889-.417-1.889-1.448 0-1.548 1.357-1.619 1.714-1.619.358 0 1.326.22 1.562 1.403.05 1.293 0 5.636 0 5.954.346-.509.94-1.167 1.678-1.33.74-.165 1.171-.257 1.373-.662.011-.827.011-2.584 0-5.271v-.001zm.198 6.973c-.3 0-.645.301-.645.713s.346.714.645.714c.298 0 .72-.226.72-.761 0-.536-.42-.666-.72-.666zm-5.142-6.185c-.397 0-.547.337-.547.697 0 .36.29.697.637.697.35 0 .657-.356.657-.756s-.35-.638-.747-.638zm198.597 29.936c.282-1.18.78-2.446 2.982-2.504 2.204-.058 3.105 1.624 3.36 2.57-1.608-.465-5.42-.332-6.34-.066h-.002zm1.4-.834c.903-.096 2.69-.096 3.55.134-.3-.61-1.098-1.21-2.003-1.151-.905.058-1.282.375-1.548 1.017zm29.18 10.14v-4.432c0-2.03-.348-2.522-2.39-2.522-2.04 0-2.057 2.364-1.85 2.843.14.32.3 1.29.483 2.911.054-.156.51-.782 1.367-1.877-.765.098-1.17-.794-1.17-1.355 0-.56.847-1.687 2.071-1.153 1.225.535.765 2.095.29 2.508-.317.276-1.052 1.304-2.205 3.086l-1.524-.008c.025-.463.025-1.013-.2-2.122-.15-.732-.634-1.828-.514-2.746.284-2.186 1.403-2.79 3.454-2.9 2.05-.111 3.454.954 3.454 2.338v5.43h-1.266v-.001zm-2.143-4.887c-.328 0-.589.309-.589.59 0 .28.188.58.59.58.4 0 .617-.28.617-.624 0-.345-.29-.546-.618-.546zm-21.297-10.083c.552.002.838 0 .996 0 .005.493-.155 1.083-.997 1.783-.739.615-2.034.863-2.73.815l-.008-.47c.366-.04.593-.232.68-.576-.606.047-1.15-.23-1.15-.891s.424-.875.99-.924c.564-.048.924.453 1.048.818.124.364 0 .837-.358 1.228.91-.186 1.528-1.122 1.528-1.783h.001zm-2.278.247a.412.412 0 0 0-.413.415c0 .207.197.437.413.437.215 0 .462-.105.462-.437 0-.33-.21-.415-.462-.415zm8.442 7.006h1.232v4.648c0 .31-.459.498-.664.584.692.32.93.726.93 1.341s-.57 1.337-1.326 1.337c-.755 0-1.114-.615-1.214-1.07-.1-.454.025-.89.158-.99-.805.1-1.564 1.239-1.717 1.925l-1.183.011v-5.251c-1.074.056-1.61-.356-1.61-1.235 0-1.32 1.156-1.38 1.461-1.38.305 0 1.13.188 1.332 1.196.043 1.102 0 4.806 0 5.077.295-.434.801-.995 1.431-1.135s.998-.218 1.17-.564c.01-.705.01-2.203 0-4.494zm.17 5.945c-.257 0-.55.257-.55.608 0 .352.294.609.55.609a.62.62 0 0 0 .613-.65c0-.456-.358-.567-.614-.567h.001zm-4.385-5.274c-.339 0-.467.287-.467.594 0 .308.246.595.544.595.297 0 .56-.304.56-.645 0-.34-.299-.544-.637-.544zm12.61-.448c.237-.185.654-.496.654-1.08.59.136 1.042.246 1.36.33 0 .474-.413 1.077-1.198 1.315.211.228.326.452.396.605.267.497.34 2.624.218 6.38h-1.243c.006-.5.006-.9 0-1.2-.532-2.206-1.78-3.925-2.773-3.48-.992.446-.622 1.658-.622 2.128.622-.173 1.72 0 1.833 1.204.114 1.205-1.097 1.58-1.7 1.462-.605-.119-1.25-.426-1.432-1.537-.183-1.11-.228-3.889 1.685-4.14 1.914-.251 2.628 1.605 3.01 2.057.114-2.477-.086-3.743-2.175-3.543-2.088.2-2.244.969-2.39 1.286a19.28 19.28 0 0 0-.739-.557c.672-1.037 1.763-1.555 3.274-1.555.808 0 1.402.133 1.842.325zm-2.74 5.722c-.36 0-.543.303-.543.575 0 .271.21.574.544.574.332 0 .552-.4.552-.63a.537.537 0 0 0-.552-.519zm-14.237-5.904c.238-.184.655-.495.655-1.08.59.137 1.042.247 1.36.33 0 .475-.414 1.078-1.199 1.316.212.228.326.451.397.605.266.497.34 2.624.218 6.38h-1.243c.005-.5.005-.9 0-1.2-.532-2.206-1.78-3.926-2.773-3.48-.993.446-.622 1.658-.622 2.128.622-.173 1.72 0 1.833 1.204.114 1.204-1.098 1.58-1.7 1.461-.605-.118-1.25-.426-1.433-1.536-.182-1.11-.228-3.89 1.686-4.14 1.913-.251 2.627 1.605 3.01 2.057.113-2.477-.087-3.743-2.175-3.543-2.088.2-2.244.969-2.39 1.286a19.28 19.28 0 0 0-.74-.558c.673-1.036 1.764-1.555 3.274-1.555.81 0 1.403.134 1.842.325zm-2.739 5.723c-.36 0-.543.303-.543.574 0 .272.21.575.543.575.333 0 .553-.401.553-.63a.537.537 0 0 0-.553-.519zm20.101 5.88a36.96 36.96 0 0 1 0-.822c-1.008.116-1.459-.528-1.459-1.152 0-.624.38-1.049 1.246-1.127.866-.08 1.34.64 1.402 1.127.042.324.063.982.063 1.974h-1.252zm-.244-2.482c-.24 0-.443 0-.5.558-.058.557.335.586.59.586.254 0 .544-.142.544-.586 0-.444-.395-.558-.634-.558z" fill="#2A3052" fill-rule="nonzero"/><g fill="#6D6E71" fill-rule="nonzero"><path d="M284.361 127.123h1.056c.05 2.28.05 3.75 0 4.413-.073.994.254 1.942-1.515 1.942h-3.656v-.843h.407c.095-.727-.337-2.138.958-2.494-1.585.087-2-2.334-.42-2.95 1.578-.617 2.301.315 2.301.899 0 .554-.299 1.137-1.112 1.137-.42 0-1.118-.197-1.002-1.208-.567.404-.4 1.137.185 1.522.21.138.793.217 1.746.238v.685c-1.038-.068-1.557.242-1.557.928v1.243h2.15c.46 0 .46-.253.46-.93v-4.582zm-1.986.562c-.195 0-.477.225-.477.487s.201.487.477.487c.276 0 .512-.196.512-.543 0-.346-.316-.431-.512-.431zm-4.876 5.761h1.021v-4.763c0-.758-.933-1.8-2.613-1.689-1.12.074-1.847.583-2.184 1.528.193.112.4.24.618.38.31-.794.844-1.198 1.603-1.212 1.137-.02 1.555.577 1.555 1.212v4.544zm-20.33-.005h1.29v-4.763c0-.758-.934-1.8-2.614-1.689-1.12.074-1.878.637-2.275 1.69.353.199.64.37.858.51.186-.79.66-1.19 1.417-1.204 1.138-.02 1.324.532 1.324.912v4.544zm14.512-6.337h1.064v5.31c0 .513-.258 1.061-1.064 1.061-.728-.416-.698-1.755-2.27-2a18.65 18.65 0 0 0-.062 1.404c0 .596-1.506 1.296-2.242 0-.735-1.296.49-2.289 1.206-2.289.013-.77.02-1.226.02-1.367-.445.002-1.317-.077-1.384-.974-.068-.897.674-1.23 1.136-1.23.462 0 1.205.333 1.264.982.058.65.058 1.948.062 2.713.672-.033 1.93 1.06 2.1 1.316.24.041.17-.511.17-.976v-3.95zm-3.706.55c-.245 0-.428.172-.428.487 0 .316.218.489.486.489s.486-.125.486-.485-.3-.492-.544-.492v.001zm.37 3.78c-.51-.11-.699.43-.63 1 .068.571.63.398.63.176v-1.176zm-2.703 2.007l-1.069-.012-.005-3.56c-.095-.675-.556-.5-1.156.239-.6.739-1.117 1.787-1.296 3.327h-1.058l-.013-4.237c-1.039.15-1.439-.714-1.439-.994s.083-1.007 1.07-1.153c.984-.145 1.42.887 1.407 1.22-.007.223.004 1.024.033 2.405.237-.687 1.27-1.746 1.772-1.825-.21-.079-.328-.57-.328-.85s.41-1.006 1.103-1.006c.693 0 1.218.55 1.218 1.06s-.233.863-.68 1.075c.265.107.441.41.441.74v3.571zm-.909-5.806c-.256 0-.515.255-.515.506 0 .25.28.505.515.505.236 0 .495-.163.495-.532 0-.37-.239-.479-.495-.479zm-4.042.022c-.219 0-.45.254-.45.495 0 .24.195.487.45.487s.464-.156.513-.487c.05-.331-.294-.495-.513-.495zm-8.11-2.83v6.972c0 .777-.158 1.657-1.066 1.657h-4.286v-1.074h.552v-2.933c-.923-.063-1.385-.453-1.385-1.17 0-1.074.676-1.239 1.267-1.239.59 0 1.416.378 1.416 1.24v4.102h1.827c.34 0 .34-.134.34-.49v-7.065h1.334zm-4.974 2.914c-.276 0-.463.245-.463.56 0 .316.262.46.463.46.2 0 .496-.023.496-.46 0-.436-.22-.56-.496-.56zm-2.949-.585v3.987c.873.017 1.31.412 1.31 1.186 0 1.161-1.178 1.236-1.31 1.236-.133 0-1.328-.224-1.328-1.236v-5.173h1.328zm.128 4.679c-.256 0-.458.2-.458.488s.23.488.458.488.488-.237.488-.52c0-.283-.23-.456-.488-.456z"/><path d="M250.22 123.537c.544.003.826 0 .982 0 .004.487-.153 1.068-.983 1.76-.729.606-2.007.85-2.693.803l-.008-.463c.361-.04.585-.23.672-.568-.599.046-1.135-.227-1.135-.88 0-.652.418-.863.975-.91.558-.048.912.447 1.035.806.122.359 0 .826-.353 1.211.897-.183 1.507-1.106 1.507-1.759zm-2.247.244a.406.406 0 0 0-.407.41c0 .204.194.43.407.43.212 0 .456-.103.456-.43s-.207-.41-.456-.41z"/></g><path d="M172.195 166.629h-2.16v-8.418h2.16v8.418zm0 4.429h-2.16v-2.261h2.16v2.261zm-34.703-13.427h2.6c-.135 1.703-1.183 2.772-3.144 3.208 1.081.315 1.644 1.067 1.644 2.22 0 1.825-.01 4.001 0 5.786 0 2.986-.706 3.291-3.03 3.393-1.55.068-3.98.068-7.289 0V170.6h1.513v-2.957c.154-1.64 2.937-3.725 2.937-5.763 0-2.039-2.406-3.156-3.685-1.74 1.073.062 1.972 1.006 2.052 2.367 0 1.421-1.043 2.164-2.25 2.164-1.209 0-2.512-.817-2.512-2.484 0-1.668.74-2.718 1.945-3.473 1.205-.755 5.315-1.18 6.25 2.125.934 3.307-2.49 5.144-2.49 7.067v2.694h3.156c.926 0 1.18-.756 1.18-2.16 0-.924 0-3.962-.179-5.933-.087-.963-.92-1.253-1.212-1.253-.18-.509-.186-.61-.297-.992 1.68-.154 2.616-1.03 2.81-2.63l.001-.001zm-8.745 3.79c-.49 0-.905.396-.905 1.033 0 .638.475 1.034.905 1.034.431 0 1.07-.35 1.07-1.059 0-.708-.578-1.008-1.07-1.008zm22.435-3.061h2.193v8.28c0 .553-.817.888-1.182 1.04 1.232.572 1.653 1.294 1.653 2.39 0 1.095-1.014 2.38-2.36 2.38-1.345 0-1.984-1.094-2.16-1.904-.179-.81.043-1.586.28-1.764-1.435.177-2.786 2.207-3.06 3.43l-2.107.019v-9.355c-1.912.1-2.868-.633-2.868-2.2 0-2.35 2.06-2.459 2.604-2.459.543 0 2.013.335 2.371 2.131.078 1.964 0 8.562 0 9.045.526-.773 1.428-1.772 2.55-2.021 1.122-.25 1.78-.39 2.085-1.005.017-1.256.017-3.925 0-8.007h.001zm.3 10.59c-.455 0-.978.459-.978 1.085 0 .625.525 1.083.98 1.083.452 0 1.093-.342 1.093-1.156 0-.813-.639-1.011-1.094-1.011v-.001zm-7.81-9.394c-.603 0-.83.511-.83 1.059 0 .548.438 1.059.967 1.059.53 0 .998-.54.998-1.148 0-.608-.532-.97-1.135-.97zm20.722-.02l1.928.315c-.878 3.196-3.024 4.58-6.439 4.156-5.122-.638-3.232-5.136-1.257-4.96 1.974.176 2.427 1.316 2.427 2.063 0 .747-.075 1.025-.977 1.698 2.532.38 3.97-.71 4.318-3.272zm-5.659.61c-.54 0-.965.525-.965 1.047 0 .522.476 1.047.965 1.047.49 0 1.108-.36 1.108-1.074 0-.714-.566-1.02-1.108-1.02zm5.66 6.733l1.927.315c-.878 3.196-3.024 4.58-6.439 4.156-5.122-.638-3.232-5.136-1.257-4.96 1.974.176 2.427 1.316 2.427 2.063 0 .747-.075 1.025-.977 1.698 2.532.38 3.97-.71 4.318-3.272zm-5.66.61c-.54 0-.965.525-.965 1.047 0 .522.476 1.047.965 1.047.49 0 1.108-.36 1.108-1.074 0-.714-.566-1.02-1.108-1.02z" fill="#FFF" fill-rule="nonzero"/><path d="M19.116 20.252a.65.65 0 0 0 .08.32c.1.19.266.34.465.42.1.04.195.06.286.06a.822.822 0 0 0 .576-.228.775.775 0 0 0 .24-.572c0-.518-.272-.777-.816-.777a.783.783 0 0 0-.316.064c-.1.044-.187.1-.263.172a.837.837 0 0 0-.183.248.663.663 0 0 0-.069.293zm3.331 5.977v-7.288c0-.32-.043-.605-.13-.854a1.577 1.577 0 0 0-.365-.61l-.084-.06-.229-.153h-.007c.005 0-.04.027-.138.08a9.34 9.34 0 0 1-.41.21 3.339 3.339 0 0 1-.63.255c-.187.056-.38.085-.576.088-.335 0-.703-.115-1.105-.343-.3-.168-.45-.257-.45-.267a1.31 1.31 0 0 0-.259.137c-.117.076-.21.16-.282.252-.29.366-.434.94-.434 1.722 0 .23.011.453.034.671.023.219.06.432.11.64l.275 1.258v-.007c.06.274.114.53.16.77.046.238.081.467.107.686l.21-.286c.074-.1.151-.199.232-.294l.572-.709a1.311 1.311 0 0 1-.32-.144 2.22 2.22 0 0 1-.29-.221h.007a1.985 1.985 0 0 1-.663-1.525c0-.747.313-1.326.938-1.738a2.19 2.19 0 0 1 1.22-.35h.167l.762.106c.31.092.587.33.831.717.28.452.42.917.42 1.395 0 .421-.244.983-.732 1.684a118.167 118.167 0 0 1-1.228 1.586 19.456 19.456 0 0 0-.48.663l-.556.793c-.209.3-.43.678-.663 1.136h-2.53v-.088c0-.048 0-.1.003-.156l.003-.16v-.107a.888.888 0 0 0 .008-.115v-.083c0-.3-.014-.622-.042-.965a15.724 15.724 0 0 0-.133-1.109l.007.023a76.268 76.268 0 0 1-.663-2.996A5.182 5.182 0 0 1 15 19.33c0-.595.124-1.187.373-1.776.275-.636.638-1.131 1.09-1.487.34-.254.67-.456.988-.606.317-.15.626-.245.926-.286l-.008.008c.22-.036.54.135.96.51h-.007c.315.27.541.405.678.405.173 0 .417-.132.732-.397.427-.35.727-.526.9-.526.162 0 .333.022.51.065.178.043.364.113.557.21a3.105 3.105 0 0 1 .93.732c.203.228.373.454.51.678.138.224.25.442.336.656.173.457.26.963.26 1.517v7.196h-2.288zM22.89 4h2.02v3.667h-2.02V4zm.298 7.029c0 .259.07.457.213.594.142.137.356.206.64.206a.68.68 0 0 0 .302-.069.825.825 0 0 0 .476-.731c0-.107-.02-.21-.06-.31a.9.9 0 0 0-.165-.262.827.827 0 0 0-.248-.187.673.673 0 0 0-.304-.072.853.853 0 0 0-.607.232.784.784 0 0 0-.247.599zm11.747 15.2h-2.319v-7.105c0-.727-.07-1.21-.213-1.448v.007c-.35-.543-.928-.815-1.73-.815-.85 0-1.512.228-1.99.686-.295.28-.546.754-.755 1.425l-1.479-.93c.163-.432.362-.82.6-1.166a4.62 4.62 0 0 1 .795-.9c.33-.274.736-.481 1.216-.62.48-.14 1.033-.21 1.658-.21.62 0 1.19.08 1.711.243.521.163.975.394 1.361.694.371.31.654.695.85 1.155.196.46.294.995.294 1.605v7.379h.001zM24.025 8.963c.57 0 1.05.203 1.441.61.381.39.572.874.572 1.448 0 .57-.188 1.054-.564 1.456-.397.396-.88.595-1.449.595-.29 0-.556-.048-.8-.142a1.975 1.975 0 0 1-.67-.438 1.973 1.973 0 0 1-.61-1.471c0-.58.203-1.067.61-1.464.39-.389.92-.603 1.47-.594zm20.186 17.266v-7.196c0-.661-.14-1.17-.42-1.525l.008.008c-.356-.432-1.014-.648-1.974-.648-.333 0-.666.037-.99.114a2.89 2.89 0 0 0-.375.126c-.14.058-.275.128-.404.21-.142.086-.274.168-.396.247-.097.06-.188.127-.275.202l-.015.015c.386.056.783.117 1.19.183.406.066.784.125 1.135.176l-.19 1.357c-.453 0-.748.068-.885.205-.249.204-.373.506-.373.907v5.619h-2.28V20.61c0-.477.115-.866.343-1.166a2.14 2.14 0 0 1 .2-.213l-1.518-.19.145-1.556c.284-.117.556-.32.815-.61.457-.483.99-.887 1.578-1.196.34-.174.7-.306 1.071-.393a5.342 5.342 0 0 1 1.224-.133c1.041 0 1.887.137 2.538.411h-.008c.394.171.755.408 1.068.701h-.008a3.6 3.6 0 0 1 .91 1.38 2.1 2.1 0 0 1 .104.389c.045.29.068.605.068.945v7.25h-2.286zm9.978-1.113c.544 0 .815-.277.815-.831a.83.83 0 0 0-.499-.766.783.783 0 0 0-.636.003.941.941 0 0 0-.27.183.79.79 0 0 0-.187.907.842.842 0 0 0 .777.504zm2.523-1.16c0 .326-.06.635-.18.927-.119.292-.29.56-.514.804a2.153 2.153 0 0 1-.728.519c-.28.119-.583.178-.888.175-.066 0-.133-.003-.202-.008a1.342 1.342 0 0 1-.225-.038 2.028 2.028 0 0 1-.73-.213 2.403 2.403 0 0 1-.61-.442 1.995 1.995 0 0 1-.55-1.395c0-.58.206-1.068.617-1.464a2.057 2.057 0 0 1 1.48-.594h.121a.87.87 0 0 1 .122.007v-3.11c0-.742-.094-1.258-.282-1.547-.32-.473-.887-.71-1.7-.71-.833 0-1.494.23-1.982.687-.3.284-.556.762-.77 1.433l-1.456-.938c.31-.859.773-1.55 1.388-2.073.645-.549 1.603-.823 2.874-.823 1.265 0 2.286.312 3.064.937.767.62 1.15 1.54 1.15 2.76v5.107l.001-.001zm-2.05-14.048h2.02v3.667h-2.02V9.908zm11.96 16.32H64.32v-7.104c0-.757-.094-1.27-.283-1.54-.325-.477-.89-.716-1.7-.716-.848 0-1.51.23-1.989.693-.305.29-.54.763-.709 1.418l-1.524-.93a4.62 4.62 0 0 1 .548-1.136 4.2 4.2 0 0 1 .793-.876c.707-.59 1.692-.884 2.958-.884 1.245 0 2.256.312 3.034.937.782.625 1.174 1.545 1.174 2.76v7.379-.001z" fill="#000" fill-rule="nonzero"/></g></svg>