<svg width="299" height="197" xmlns="http://www.w3.org/2000/svg"><g fill="none" fill-rule="evenodd"><path fill="#F1F2F2" d="M0 0h299v197H0z"/><path d="M1.987 1.98v193.04h295.026V1.98H1.987zM299 0v197H0V0h299z" fill="#C2C2C2" fill-rule="nonzero"/><path d="M4.887 55.446v-1.207h289.656v1.207H4.887zm0 40.534v-1.207h289.656v1.207H4.887zm0 40.534v-1.207h289.656v1.207H4.887zm0 40.496v-1.207h289.656v1.207H4.887zm34.38-142.416h1.206v159.67h-1.206V34.594zm36.664 0h1.207v159.67h-1.207V34.594zm36.628 0h1.207v159.67h-1.207V34.594zm36.665 0h1.207v159.67h-1.207V34.594zm36.627 0h1.207v159.67h-1.207V34.594zm36.628 0h1.207v159.67h-1.207V34.594zM4.887 116.228v-1.207h289.656v1.207H4.887z" fill="#DFDEDE" fill-rule="nonzero"/><path d="M259.144 34.594h1.207v159.67h-1.207V34.594zM4.887 75.731v-1.206h289.656v1.206H4.887zm0 81.03v-1.206h289.656v1.207H4.887z" fill="#2A3052" fill-rule="nonzero"/><path fill="#C2C2C2" fill-rule="nonzero" d="M2.794 34.606V32.19h293.842v2.415z"/><path d="M40.778 117.19a1.81 1.81 0 0 1-1.816-3.132l36.665-21.257a1.81 1.81 0 0 1 2.068.176l32.442 27.072 38.676-26.172a1.81 1.81 0 0 1 2.202.133l35.113 30.513 35.473-50.437a1.81 1.81 0 1 1 2.962 2.083l-36.627 52.078a1.81 1.81 0 0 1-2.669.325L149.69 97.655l-38.652 26.156a1.81 1.81 0 0 1-2.175-.11L76.347 96.57l-35.569 20.622z" fill="#2A3052" fill-rule="nonzero"/><path d="M187.987 146.445h-34.945l-5.382-8.181-5.382 8.181h-34.946a4.733 4.733 0 0 0-4.71 4.782v24.694a4.753 4.753 0 0 0 4.71 4.782h80.692a4.733 4.733 0 0 0 4.71-4.782v-24.694a4.758 4.758 0 0 0-4.747-4.782z" fill="#E88024"/><ellipse cx="9.045" cy="8.618" rx="8.11" ry="8.443" opacity=".6" transform="translate(214.037 66.51)" fill="#FFF"/><path d="M223.082 84.778c-5.157 0-9.317-4.331-9.317-9.65s4.16-9.65 9.317-9.65 9.318 4.331 9.318 9.65-4.16 9.65-9.318 9.65zm0-2.414c3.802 0 6.904-3.23 6.904-7.236 0-4.007-3.102-7.236-6.904-7.236-3.801 0-6.903 3.229-6.903 7.236s3.102 7.236 6.903 7.236z" fill="#E88024" fill-rule="nonzero"/><ellipse cx="8.97" cy="9.021" rx="8.11" ry="8.443" opacity=".6" transform="translate(30.9 106.604)" fill="#FFF"/><path d="M39.87 125.275c-5.157 0-9.317-4.332-9.317-9.65 0-5.32 4.16-9.65 9.317-9.65s9.317 4.33 9.317 9.65c0 5.318-4.16 9.65-9.317 9.65zm0-2.414c3.802 0 6.903-3.23 6.903-7.236 0-4.007-3.101-7.236-6.903-7.236-3.802 0-6.903 3.229-6.903 7.236 0 4.006 3.101 7.236 6.903 7.236z" fill="#E88024" fill-rule="nonzero"/><path d="M21.695 21.303a2.3 2.3 0 0 1-.357.078 2.89 2.89 0 0 1-.395.026h-5.088l.012-3.386-.012-1.327c0-.376.047-.67.142-.88.109-.22.25-.42.42-.597.083-.099.177-.183.282-.252a2.042 2.042 0 0 1 1.117-.324c.635 0 1.127.194 1.476.583.147.164.258.345.334.544.075.198.113.418.113.66 0 .492-.172.907-.518 1.243a1.81 1.81 0 0 1-.586.382c-.222.09-.504.151-.845.182v1.573h2.513c.241 0 .427-.07.556-.214v.007c.091-.104.136-.382.136-.836v-3.392c0-.285-.027-.537-.08-.755a1.821 1.821 0 0 0-.218-.54 1.352 1.352 0 0 0-.644-.463c-.282-.106-.631-.159-1.045-.159-.79 0-1.416.147-1.878.44-.47.298-.751.7-.842 1.205L15 14.104c.34-.687.872-1.213 1.593-1.58.673-.35 1.487-.524 2.44-.524 1.913 0 3.132.597 3.659 1.793.172.401.259.85.259 1.347v4.454c0 .156-.016.301-.046.437a1.46 1.46 0 0 1-.149.392c-.259.45-.613.742-1.061.88zm-3.71-5.645a.714.714 0 0 0-.683.482.863.863 0 0 0-.055.308c0 .185.073.351.22.498v-.013a.71.71 0 0 0 .518.214.738.738 0 0 0 .66-.424.649.649 0 0 0 .058-.275c0-.1-.017-.197-.051-.292a.746.746 0 0 0-.162-.259c-.156-.16-.324-.24-.505-.24v.001zm13.292 5.645c-.112.035-.231.06-.356.078a2.89 2.89 0 0 1-.395.026h-5.09l.014-3.386-.013-1.327c0-.376.047-.67.142-.88.109-.22.25-.42.42-.597.083-.099.177-.183.283-.252a2.03 2.03 0 0 1 1.117-.324c.634 0 1.126.194 1.476.583.147.164.258.345.333.544.076.198.114.418.114.66 0 .492-.173.907-.518 1.243a1.81 1.81 0 0 1-.586.382 3.01 3.01 0 0 1-.845.182v1.573h2.512c.242 0 .427-.07.557-.214v.007c.09-.104.136-.382.136-.836v-3.392a3.16 3.16 0 0 0-.081-.755 1.821 1.821 0 0 0-.217-.54 1.352 1.352 0 0 0-.644-.463c-.283-.106-.632-.159-1.046-.159-.79 0-1.416.147-1.878.44-.47.298-.75.7-.841 1.205l-1.289-.997c.341-.687.872-1.213 1.593-1.58.673-.35 1.487-.524 2.44-.524 1.913 0 3.132.597 3.659 1.793.173.401.259.85.259 1.347v4.454c0 .156-.015.301-.045.437a1.43 1.43 0 0 1-.15.392c-.258.45-.612.742-1.061.88zm-3.71-5.645a.714.714 0 0 0-.683.482.863.863 0 0 0-.055.308c0 .185.073.351.22.498v-.013a.71.71 0 0 0 .518.214.738.738 0 0 0 .66-.424c.04-.086.06-.18.059-.275a.86.86 0 0 0-.052-.292.746.746 0 0 0-.162-.259c-.155-.16-.324-.24-.505-.24v.001zm12.794 5.75v-6.113c0-.56-.12-.993-.357-1.295l.007.007c-.302-.367-.861-.55-1.677-.55a3.633 3.633 0 0 0-.842.096 2.693 2.693 0 0 0-.317.107c-.12.05-.234.109-.343.178-.12.074-.233.144-.337.21-.082.051-.16.109-.233.172l-.013.013c.328.048.665.1 1.01.156.346.056.667.105.965.15l-.162 1.151c-.384 0-.634.058-.75.175-.212.172-.318.43-.318.77v4.772h-1.936v-4.772c0-.405.097-.736.291-.99a1.73 1.73 0 0 1 .169-.182l-1.289-.16.123-1.322c.242-.1.473-.272.693-.518.387-.41.84-.754 1.34-1.017a3.95 3.95 0 0 1 .91-.333c.341-.078.69-.115 1.04-.113.884 0 1.603.116 2.155.35h-.006c.334.145.64.347.906.595h-.006c.345.326.61.727.773 1.172.041.112.07.222.088.33.039.246.058.514.058.803v6.157h-1.942zm4.661-7.57c0 .091.02.178.062.263a.774.774 0 0 0 .382.378.619.619 0 0 0 .262.06.79.79 0 0 0 .683-.444.579.579 0 0 0 .062-.257.732.732 0 0 0-.745-.738.605.605 0 0 0-.256.058.753.753 0 0 0-.226.162.852.852 0 0 0-.162.237.662.662 0 0 0-.062.281zm.913 1.723a.81.81 0 0 1-.1.006h-.1c-.48 0-.894-.168-1.244-.505a1.653 1.653 0 0 1-.518-1.23c0-.272.053-.518.159-.738a1.76 1.76 0 0 1 .424-.564c.177-.155.381-.274.612-.356.23-.082.471-.123.722-.123.63 0 1.129.203 1.495.61.341.38.512.86.512 1.443v4.551a1.84 1.84 0 0 1 .246-.207c.086-.06.181-.12.285-.18a5.53 5.53 0 0 1 1.301-.509c.143-.037.285-.073.428-.107.271-.074.407-.16.407-.26v-5.23h1.975v5.393c0 .34-.144.59-.434.744.052.04.102.078.15.117.047.04.092.08.135.123.324.358.486.731.486 1.12 0 .514-.147.937-.44 1.27-.307.353-.715.556-1.224.608-.66 0-1.161-.203-1.502-.61h.006a1.996 1.996 0 0 1-.44-1.023c0-.224.013-.41.039-.562-.112.06-.229.14-.35.24-.12.098-.244.22-.369.362-.302.336-.559.824-.77 1.463h-1.89v-5.846h-.001zm5.173 3.425c-.535 0-.803.28-.803.841 0 .484.257.725.77.725a.839.839 0 0 0 .554-.214.712.712 0 0 0 .169-.23.662.662 0 0 0 .061-.28c0-.562-.25-.842-.75-.842h-.001zm9.958 2.317c-.112.035-.23.06-.356.078a2.89 2.89 0 0 1-.395.026h-5.089l.013-3.386-.013-1.327c0-.376.048-.67.143-.88.109-.22.25-.42.42-.597a1.25 1.25 0 0 1 .282-.252 2.03 2.03 0 0 1 1.117-.324c.634 0 1.126.194 1.476.583.147.164.258.345.334.544.075.198.113.418.113.66 0 .492-.173.907-.518 1.243a1.81 1.81 0 0 1-.586.382c-.222.09-.504.151-.845.182v1.573h2.512c.242 0 .427-.07.557-.214v.007c.09-.104.136-.382.136-.836v-3.392a3.16 3.16 0 0 0-.081-.755 1.821 1.821 0 0 0-.217-.54 1.352 1.352 0 0 0-.644-.463c-.283-.106-.631-.159-1.046-.159-.79 0-1.416.147-1.877.44-.47.298-.751.7-.842 1.205l-1.289-.997c.341-.687.872-1.213 1.593-1.58.674-.35 1.487-.524 2.441-.524 1.912 0 3.132.597 3.658 1.793.173.401.26.85.26 1.347v4.454c0 .156-.016.301-.046.437a1.46 1.46 0 0 1-.149.392c-.259.45-.613.742-1.062.88zm-3.71-5.645a.714.714 0 0 0-.683.482.863.863 0 0 0-.055.308.69.69 0 0 0 .22.498v-.013a.71.71 0 0 0 .518.214.738.738 0 0 0 .66-.424c.04-.086.06-.18.059-.275 0-.1-.017-.197-.052-.292a.746.746 0 0 0-.162-.259c-.155-.16-.323-.24-.505-.24v.001zm12.794 5.75v-6.113c0-.56-.119-.993-.356-1.295l.006.007c-.302-.367-.86-.55-1.677-.55-.283 0-.565.031-.841.096a2.274 2.274 0 0 0-.661.285c-.12.074-.233.144-.336.21-.082.051-.16.109-.233.172l-.013.013c.328.048.664.1 1.01.156.345.056.666.105.964.15l-.162 1.151c-.384 0-.634.058-.75.175-.212.172-.318.43-.318.77v4.772h-1.936v-4.772c0-.405.097-.736.292-.99.06-.074.116-.134.168-.182l-1.288-.16.123-1.322c.241-.1.472-.272.692-.518.387-.41.84-.754 1.34-1.017a3.95 3.95 0 0 1 .91-.333c.341-.078.69-.115 1.04-.113.884 0 1.603.116 2.155.35h-.006c.334.145.64.347.906.595h-.006c.345.325.61.727.774 1.172.04.112.07.222.087.33.039.246.058.514.058.803v6.157H70.15zm11.525-9.247v7.317c0 .518-.126.95-.376 1.295-.414.423-.954.634-1.619.634H75v-1.58h.893v-1.47c0-.5.285-1.094.854-1.78v.007c.42-.523.695-.95.83-1.282v.006c.09-.237.135-.5.135-.79a1.11 1.11 0 0 0-.259-.744.793.793 0 0 0-.654-.337h-.226a.805.805 0 0 1-.182-.02.03.03 0 0 0-.006.02.957.957 0 0 1 .288.184c.08.076.154.168.223.276.233.37.35.718.35 1.042a1.667 1.667 0 0 1-1.084 1.57c-.213.084-.44.127-.67.126-.376 0-.734-.125-1.075-.375a1.64 1.64 0 0 1-.541-.7 2.285 2.285 0 0 1-.152-.828c0-.402.074-.77.223-1.104.15-.335.368-.63.657-.89.255-.225.564-.395.926-.512.363-.116.78-.175 1.25-.175.35 0 .677.051.984.152a2.584 2.584 0 0 1 1.518 1.285c.162.32.243.674.243 1.063 0 .871-.326 1.724-.978 2.557h.007l-.525.68c-.133.216-.2.455-.2.718v1.321h1.521a.313.313 0 0 0 .136-.039.577.577 0 0 0 .15-.11c.038-.09.057-.226.057-.408v-7.109h1.982zm-6.773 2.817a.69.69 0 0 0 .172.46c.054.06.116.107.188.142a.52.52 0 0 0 .23.052c.444 0 .666-.218.666-.654 0-.207-.056-.37-.168-.489-.112-.119-.278-.178-.499-.178a.465.465 0 0 0-.236.061.65.65 0 0 0-.184.16.795.795 0 0 0-.123.216.649.649 0 0 0-.046.23zm15.178 6.325a2.3 2.3 0 0 1-.357.078 2.89 2.89 0 0 1-.395.026h-5.089l.013-3.386-.013-1.327c0-.376.048-.67.143-.88.109-.22.25-.42.42-.597.083-.099.177-.183.282-.252a2.042 2.042 0 0 1 1.117-.324c.635 0 1.127.194 1.476.583.147.164.258.345.334.544.075.198.113.418.113.66 0 .492-.172.907-.518 1.243a1.81 1.81 0 0 1-.586.382c-.222.09-.504.151-.845.182v1.573h2.512c.242 0 .428-.07.557-.214v.007c.09-.104.136-.382.136-.836v-3.392c0-.285-.027-.537-.08-.755a1.821 1.821 0 0 0-.218-.54 1.352 1.352 0 0 0-.644-.463c-.283-.106-.631-.159-1.045-.159-.79 0-1.416.147-1.878.44-.47.298-.751.7-.842 1.205l-1.288-.997c.34-.687.872-1.213 1.593-1.58.673-.35 1.487-.524 2.44-.524 1.913 0 3.132.597 3.659 1.793.172.401.259.85.259 1.347v4.454c0 .156-.016.301-.046.437a1.46 1.46 0 0 1-.149.392c-.259.45-.613.742-1.061.88zm-3.71-5.645a.714.714 0 0 0-.683.482.863.863 0 0 0-.055.308c0 .185.073.351.22.498v-.013a.71.71 0 0 0 .518.214.738.738 0 0 0 .66-.424.649.649 0 0 0 .058-.275c0-.1-.017-.197-.052-.292a.746.746 0 0 0-.161-.259c-.156-.16-.324-.24-.505-.24v.001zm7.562-1.82c0 .1.02.193.061.282a.776.776 0 0 0 .683.45c.095 0 .187-.02.276-.058a.798.798 0 0 0 .236-.159.73.73 0 0 0 .162-.233.693.693 0 0 0 .058-.282.812.812 0 0 0-.055-.3.731.731 0 0 0-.388-.409.677.677 0 0 0-.289-.06c-.103 0-.2.02-.29.06a.764.764 0 0 0-.454.71zm2.292-1.223c.393.427.589.923.589 1.49v5.703h2.752a.43.43 0 0 0 .343-.15c.052-.042.078-.159.078-.349v-7.148h1.968v7.317c0 .54-.121.975-.363 1.307-.306.415-.8.622-1.482.622h-6.022v-1.6h.784v-4.246a.766.766 0 0 1-.107.006h-.094c-.492 0-.91-.166-1.256-.499a1.628 1.628 0 0 1-.531-1.236c0-.38.123-.743.369-1.088a1.73 1.73 0 0 1 .466-.45c.169-.106.35-.174.544-.204.25-.026.434-.039.55-.039.613 0 1.086.188 1.418.564h-.006zm10.126-.454v5.853a.763.763 0 0 1 .094-.006h.094c.246 0 .476.045.69.136.213.09.4.214.56.37.159.154.284.34.375.552.09.214.136.444.136.69a1.69 1.69 0 0 1-.567 1.295c-.182.16-.393.283-.621.363-.24.086-.498.13-.774.13-.242 0-.478-.05-.709-.15-.23-.1-.436-.24-.615-.42a2.11 2.11 0 0 1-.599-1.496v-7.317h1.936zm.913 7.595c0-.1-.02-.19-.058-.275a.7.7 0 0 0-.392-.366.768.768 0 0 0-.282-.052.67.67 0 0 0-.48.204.701.701 0 0 0-.003.978.72.72 0 0 0 .218.15.728.728 0 0 0 .78-.152.74.74 0 0 0 .159-.225.619.619 0 0 0 .058-.262zm9.505-7.595v7.317c0 .518-.126.95-.376 1.295-.414.423-.954.634-1.619.634h-4.68v-1.58h.893v-1.47c0-.5.285-1.094.854-1.78v.007c.42-.523.695-.95.83-1.282v.006c.09-.237.135-.5.135-.79a1.11 1.11 0 0 0-.259-.744.793.793 0 0 0-.654-.337h-.226a.805.805 0 0 1-.182-.02.03.03 0 0 0-.006.02.957.957 0 0 1 .288.184c.08.076.154.168.223.276.233.37.35.718.35 1.042a1.667 1.667 0 0 1-1.084 1.57c-.213.084-.44.127-.67.126-.376 0-.734-.125-1.075-.375a1.64 1.64 0 0 1-.541-.7 2.285 2.285 0 0 1-.152-.828c0-.402.074-.77.223-1.104.15-.335.368-.63.657-.89.255-.225.564-.395.926-.512.363-.116.78-.175 1.25-.175.35 0 .677.051.984.152a2.584 2.584 0 0 1 1.518 1.285c.162.32.243.674.243 1.063 0 .871-.326 1.724-.978 2.557h.007l-.525.68c-.133.216-.2.455-.2.718v1.321h1.521a.313.313 0 0 0 .136-.039.577.577 0 0 0 .149-.11c.039-.09.058-.226.058-.408v-7.109h1.982zm-6.773 2.817a.69.69 0 0 0 .172.46c.054.06.116.107.187.142a.52.52 0 0 0 .23.052c.445 0 .667-.218.667-.654 0-.207-.056-.37-.168-.489-.112-.119-.279-.178-.499-.178a.465.465 0 0 0-.236.061.65.65 0 0 0-.185.16.795.795 0 0 0-.123.216.649.649 0 0 0-.045.23zm12.399 1.353c0 .1.023.19.068.272a.773.773 0 0 0 .638.408.701.701 0 0 0 .488-.194.658.658 0 0 0 .204-.486c0-.44-.23-.66-.692-.66a.665.665 0 0 0-.27.055.783.783 0 0 0-.222.145.71.71 0 0 0-.156.21.563.563 0 0 0-.058.25zm2.83 5.076v-6.19c0-.272-.037-.513-.11-.725a1.34 1.34 0 0 0-.312-.518l-.07-.052-.195-.129h-.007a.988.988 0 0 1-.116.068 7.932 7.932 0 0 1-.35.178 2.814 2.814 0 0 1-.534.217c-.175.05-.338.074-.489.074-.285 0-.597-.097-.938-.29-.255-.143-.382-.219-.382-.228-.077.03-.151.07-.22.117a.971.971 0 0 0-.24.214c-.246.31-.37.798-.37 1.463 0 .194.01.384.03.57.02.185.05.367.094.543l.233 1.07v-.008c.052.233.097.451.136.654.039.203.069.397.09.583l.179-.243a4.53 4.53 0 0 1 .197-.25l.486-.6c-.1-.03-.19-.072-.272-.124a1.862 1.862 0 0 1-.246-.188h.006a1.686 1.686 0 0 1-.563-1.295c0-.634.265-1.127.796-1.476.308-.2.669-.303 1.036-.298h.143l.647.09c.263.078.499.281.706.61.237.383.356.778.356 1.184 0 .358-.207.835-.622 1.431-.034.047-.138.183-.31.408-.173.224-.417.537-.732.94-.14.184-.276.372-.408.562l-.473.673a8.466 8.466 0 0 0-.563.965h-2.15v-.074c0-.04.002-.086.004-.133a3 3 0 0 0 .003-.136v-.09a.908.908 0 0 0 .006-.098v-.07a9.98 9.98 0 0 0-.035-.82 13.355 13.355 0 0 0-.113-.942l.006.02a56.272 56.272 0 0 1-.246-1.056c-.095-.423-.2-.92-.317-1.49a4.401 4.401 0 0 1-.097-.97c0-.505.105-1.008.317-1.509.233-.54.542-.96.926-1.263.289-.215.568-.387.838-.514a2.66 2.66 0 0 1 .787-.243l-.007.006c.186-.03.458.115.816.434h-.006c.267.23.46.343.576.343.147 0 .354-.112.621-.336.363-.298.618-.447.764-.447.139 0 .283.018.434.055.151.037.309.096.473.178.147.078.286.167.418.27.131.1.255.218.372.352.172.194.317.386.434.576.116.19.211.375.284.557.147.388.22.818.22 1.288v6.112h-1.942.001z" fill="#020202" fill-rule="nonzero"/><path d="M17.905 62.486V67.8a1.43 1.43 0 0 1 .387-.044c.39 0 .715.13.976.387a1.3 1.3 0 0 1 .392.965c0 .368-.116.677-.348.927-.231.25-.53.392-.894.425-.099.026-.2.038-.303.038-.43 0-.8-.169-1.109-.507-.268-.287-.403-.664-.403-1.13v-6.374h1.302zm1.016 6.621a.561.561 0 0 0-.185-.43.63.63 0 0 0-.444-.17.573.573 0 0 0-.42.175.58.58 0 0 0-.176.425c0 .166.058.308.174.428.115.12.256.18.422.18a.62.62 0 0 0 .444-.178.573.573 0 0 0 .185-.43zm4.055-6.284a1.7 1.7 0 0 1 .469 1.192v5.362h2.703a.63.63 0 0 0 .47-.198c.084-.08.126-.24.126-.475v-9.307h1.335v9.462c0 .441-.094.79-.281 1.048-.236.313-.624.47-1.164.47H21.43v-1h.706V65.08a2.99 2.99 0 0 1-.403.034c-.379 0-.704-.13-.976-.387a1.261 1.261 0 0 1-.408-.954c0-.298.097-.583.292-.855.217-.29.469-.455.756-.49a4.85 4.85 0 0 1 .469-.04c.478 0 .848.145 1.109.436h.001zm-1.838.95c0 .157.06.296.177.415.118.12.257.18.42.18a.573.573 0 0 0 .419-.177.573.573 0 0 0 .176-.42.6.6 0 0 0-.174-.432.566.566 0 0 0-.422-.18.56.56 0 0 0-.424.18.605.605 0 0 0-.172.433zm1.253-3.797a1.428 1.428 0 0 1-.248.017c-.427 0-.743-.138-.95-.414-.132-.17-.198-.39-.198-.662 0-.56.276-.923.828-1.093.14-.044.281-.066.424-.066.45 0 .786.17 1.01.508.199.29.298.58.298.866 0 .132-.018.265-.055.397-.088.316-.237.565-.447.745.57-.14.995-.377 1.274-.712.394-.467.59-.96.59-1.478h1.253c0 .846-.42 1.578-1.258 2.196-.883.665-2.004.998-3.365.998v-.58c.187 0 .39-.082.607-.247.158-.159.237-.317.237-.475zm-.237-1.594c-.346 0-.519.176-.519.53.048.35.24.523.58.523.32 0 .48-.184.48-.55 0-.336-.18-.503-.541-.503zM35.35 70.376h-1.319v-5.214c0-.62-.084-1.057-.254-1.307-.29-.427-.785-.64-1.484-.64-.706 0-1.263.196-1.671.59a1.846 1.846 0 0 0-.536.905l-.761-.464a2.87 2.87 0 0 1 .905-1.28c.5-.415 1.208-.623 2.124-.623.901 0 1.63.222 2.185.668.54.437.81 1.083.81 1.936v5.43h.001zm6.692-5.72c-.228-.168-.357-.367-.386-.597a3.242 3.242 0 0 1-.033-.276v-.055c0-.397.145-.728.436-.99.29-.264.636-.395 1.037-.395.423 0 .765.135 1.026.405s.392.617.392 1.04c0 .265-.081.517-.243.756-.169.258-.379.41-.629.453.145.048.274.153.395.317.115.146.18.325.184.51v4.552h-1.34v-4.552a.476.476 0 0 0-.113-.298c-.076-.095-.161-.143-.257-.143-.368 0-.884.5-1.55 1.5-.625.94-.997 2.103-1.115 3.493H38.49V65.08a2.99 2.99 0 0 1-.403.034c-.378 0-.704-.13-.976-.387a1.261 1.261 0 0 1-.408-.954c0-.298.097-.583.292-.855.217-.29.469-.455.756-.49a4.85 4.85 0 0 1 .469-.04c.478 0 .848.145 1.109.436a1.7 1.7 0 0 1 .469 1.192v3.018c0-.188.233-.567.7-1.137.438-.53.766-.868.985-1.015.219-.147.408-.22.566-.22l-.006-.005h-.001zm-4.552-.884c0 .158.06.297.177.416a.57.57 0 0 0 .42.18.573.573 0 0 0 .419-.177.573.573 0 0 0 .176-.42.6.6 0 0 0-.174-.432.566.566 0 0 0-.422-.18.56.56 0 0 0-.424.18.605.605 0 0 0-.172.433zm4.96-.033c0 .173.062.32.185.444.116.12.277.187.444.185a.61.61 0 0 0 .445-.185.606.606 0 0 0 .184-.444.573.573 0 0 0-.184-.43.62.62 0 0 0-.445-.177.612.612 0 0 0-.44.18.571.571 0 0 0-.189.427zm9.28-1.253h1.302v6.395c0 .588-.097.973-.292 1.153-.21.268-.504.403-.883.403-.15 0-.3-.1-.447-.304a93.48 93.48 0 0 0-.535-.805 3.793 3.793 0 0 0-.612-.74c-.453-.404-.909-.634-1.368-.69v1.413c0 .493-.173.828-.519 1.004-.24.122-.537.182-.894.182-.21 0-.379-.02-.507-.06-.453-.129-.782-.423-.988-.883a1.88 1.88 0 0 1-.16-.795c0-.79.278-1.335.833-1.633.342-.187.646-.28.91-.28v-1.767l-.204.023c-.066.007-.132.01-.198.01-.375 0-.695-.128-.958-.386a1.283 1.283 0 0 1-.394-.954c0-.298.097-.583.292-.855.21-.29.456-.455.74-.49a4.82 4.82 0 0 1 .463-.04c.497 0 .89.16 1.18.48.27.302.404.684.404 1.148v2.946c.452.022.941.211 1.467.568.04.03.258.224.651.585.372.342.563.511.574.508.096-.03.143-.155.143-.376v-5.76zm-5.158 1.286c0 .154.06.292.182.414a.57.57 0 0 0 .414.182c.164 0 .32-.063.438-.177a.553.553 0 0 0 .19-.42.62.62 0 0 0-.628-.612.56.56 0 0 0-.42.185.6.6 0 0 0-.176.428zm.215 4.8a.757.757 0 0 0-.006.094v.088c0 .25.032.434.094.552.092.19.212.287.359.287.224 0 .336-.12.336-.36v-1.4a.33.33 0 0 0-.132-.022.6.6 0 0 0-.364.132c-.191.22-.287.43-.287.63zm13.54 1.804h-1.32v-5.214c0-.62-.084-1.057-.253-1.307-.29-.427-.785-.64-1.484-.64-.706 0-1.264.196-1.672.59a1.846 1.846 0 0 0-.535.905l-.762-.464a2.87 2.87 0 0 1 .905-1.28c.5-.415 1.209-.623 2.124-.623.902 0 1.63.222 2.185.668.54.437.811 1.083.811 1.936v5.43h.001zm6.653-.999c.18 0 .322-.068.425-.204.088-.114.132-.27.132-.469v-6.218h1.324v6.422c0 .398-.103.732-.309 1.005-.235.31-.641.463-1.219.463h-4.927v-.999h.53v-1.334c0-.493.105-.884.314-1.175.247-.338.55-.537.91-.596-.54 0-.979-.16-1.315-.483-.337-.32-.505-.75-.505-1.288 0-.677.256-1.214.767-1.61.463-.354 1.046-.53 1.749-.53.467 0 .846.117 1.136.353.31.257.464.616.464 1.075 0 .504-.179.87-.535 1.098-.236.148-.5.221-.795.221-.647 0-1.055-.235-1.225-.706a1.294 1.294 0 0 1-.088-.464.88.88 0 0 1 .039-.309c-.118.015-.223.113-.315.293-.071.135-.11.284-.116.436 0 .776.458 1.226 1.374 1.351.302.045.6.067.894.067h.58v.9h-.613c-.423 0-.743.095-.96.286-.272.246-.408.59-.408 1.032v1.384h2.692zm-2.483-5.589c0 .166.062.308.185.425a.6.6 0 0 0 .855-.002.57.57 0 0 0 .185-.423c0-.397-.204-.595-.612-.595a.602.602 0 0 0-.43.173.562.562 0 0 0-.183.422zm12.248-.53c.151.163.275.367.37.613.14.35.21.708.21 1.076v5.43h-1.313v-.724c0-.684-.221-1.475-.662-2.372-.563-1.137-1.176-1.705-1.838-1.705-.434 0-.73.24-.888.723-.07.224-.105.507-.105.85 0 .198.015.415.044.65.173-.062.339-.093.497-.093.386 0 .712.133.977.4.264.266.397.593.397.98 0 .293-.098.575-.293.843-.206.29-.448.454-.728.491a4.76 4.76 0 0 1-.452.04 1.65 1.65 0 0 1-1.225-.52c-.36-.36-.54-1.057-.54-2.09 0-1.126.18-1.92.54-2.384.393-.519.914-.778 1.561-.778.368 0 .756.097 1.164.292.475.225.924.708 1.347 1.451.047.085.115.214.204.386v-1.654c0-.574-.1-1.006-.298-1.296-.302-.434-.874-.65-1.716-.65-.758 0-1.352.132-1.782.4-.43.265-.706.566-.828.901l-.722-.563.474-.59c.257-.247.515-.436.772-.569a4.35 4.35 0 0 1 .971-.336c.377-.08.762-.12 1.148-.116.754 0 1.366.101 1.837.303.166-.114.293-.237.38-.37.13-.165.194-.385.194-.66l1.401.357c0 .423-.237.786-.711 1.087a2.127 2.127 0 0 1-.387.2v-.003zm-3.09 5.827a.598.598 0 0 0-.595-.607.538.538 0 0 0-.408.185.604.604 0 0 0 0 .844c.114.12.25.18.408.18a.57.57 0 0 0 .422-.177.584.584 0 0 0 .174-.425h-.001zm.177 2.417c-.33 0-.52.154-.568.463 0 .412.19.618.568.618.36 0 .541-.18.541-.54 0-.026 0-.052-.005-.078 0-.309-.179-.463-.536-.463zm.144 2.548v-1.02a.822.822 0 0 1-.237.033c-.298 0-.585-.123-.861-.37-.162-.143-.243-.362-.243-.656 0-.28.103-.528.31-.745.227-.232.529-.348.904-.348.625 0 1.02.226 1.186.68.066.183.1.431.1.744v.921h.948v-2.2h1.148v2.961h-3.255zm8.607-8.97a7.631 7.631 0 0 1-.387.033c-.382 0-.708-.128-.979-.384a1.263 1.263 0 0 1-.405-.957c0-.298.099-.583.298-.855.206-.29.452-.455.739-.49.228-.027.386-.04.474-.04.493 0 .881.162 1.165.486.268.31.402.69.402 1.142v6.361h-1.68a11.463 11.463 0 0 0-.238-.436c-.14-.222-.285-.441-.436-.656a26.89 26.89 0 0 0-.458-.696 11.657 11.657 0 0 0-1.037-1.24 22.61 22.61 0 0 0-.496-.492l-.022-.022c-.32-.309-.536-.495-.646-.557l-.287-.166.37-.585c.184 0 .712.385 1.583 1.153.317.28.638.585.966.916.187.203.434.506.74.91l.336.46v-3.886l-.002.001zm-1.004-1.308c0 .17.06.31.182.425a.614.614 0 0 0 .435.17c.155 0 .292-.06.412-.18a.575.575 0 0 0 .179-.415c0-.158-.059-.3-.177-.425a.551.551 0 0 0-.414-.188.601.601 0 0 0-.438.177.588.588 0 0 0-.18.436h.001zm-63.72 102.021v5.123c.1-.028.223-.042.372-.042.376 0 .69.124.942.372s.378.56.378.931c0 .355-.112.653-.335.894a1.29 1.29 0 0 1-.862.41 1.161 1.161 0 0 1-.293.037c-.415 0-.771-.163-1.07-.49-.258-.276-.388-.64-.388-1.09v-6.145h1.256zm.979 6.384a.541.541 0 0 0-.178-.415.608.608 0 0 0-.429-.165.552.552 0 0 0-.404.17.558.558 0 0 0-.17.41c0 .16.056.297.167.413a.546.546 0 0 0 .407.172c.167 0 .31-.056.429-.17a.552.552 0 0 0 .178-.415zm3.91-6.06c.302.326.453.71.453 1.15v5.17h2.607a.607.607 0 0 0 .452-.19c.082-.079.122-.23.122-.458v-8.976h1.288v9.125c0 .425-.09.762-.271 1.01-.227.302-.602.453-1.123.453h-5.017v-.963h.68v-4.145c-.128.02-.258.03-.388.032-.365 0-.679-.124-.941-.372a1.216 1.216 0 0 1-.394-.92c0-.288.094-.563.282-.825.21-.28.452-.438.729-.474a4.59 4.59 0 0 1 .452-.037c.461 0 .818.14 1.07.42h-.001zm-1.771.915c0 .153.057.287.17.402a.548.548 0 0 0 .404.173.556.556 0 0 0 .405-.17.552.552 0 0 0 .17-.405.578.578 0 0 0-.168-.417.546.546 0 0 0-.407-.173c-.163 0-.3.057-.41.173a.583.583 0 0 0-.164.417zm1.208-3.66c-.057.01-.137.016-.24.016-.411 0-.716-.133-.915-.4-.128-.162-.192-.375-.192-.638 0-.539.266-.89.798-1.053.135-.043.272-.064.41-.064.433 0 .757.163.974.49.191.28.287.558.287.835 0 .127-.018.255-.053.383a1.422 1.422 0 0 1-.431.718c.55-.135.96-.363 1.229-.686.38-.45.57-.926.57-1.426h1.207c0 .816-.404 1.521-1.213 2.117-.851.642-1.933.963-3.246.963v-.558c.181 0 .376-.08.586-.24.152-.152.229-.305.229-.457zm-.23-1.538c-.333 0-.5.17-.5.51.047.338.233.506.56.506.308 0 .462-.177.462-.532 0-.322-.174-.484-.521-.484h-.001zm12.727 11.567h-1.271v-5.028c0-.6-.082-1.02-.245-1.26-.28-.412-.757-.618-1.431-.618-.681 0-1.219.19-1.612.57a1.78 1.78 0 0 0-.516.872l-.735-.447c.167-.479.458-.89.873-1.235.482-.4 1.165-.6 2.048-.6.87 0 1.572.214 2.107.643.522.422.782 1.045.782 1.868v5.235zm6.454-5.516c-.22-.162-.344-.354-.372-.576a3.126 3.126 0 0 1-.032-.266v-.053c0-.383.14-.702.42-.955a1.44 1.44 0 0 1 1-.38c.408 0 .738.13.99.39.252.261.378.595.378 1.003 0 .256-.078.5-.234.73-.164.247-.366.393-.607.435.14.047.264.148.38.306.112.14.174.313.179.492v4.39h-1.293v-4.39a.458.458 0 0 0-.11-.287c-.072-.092-.154-.138-.247-.138-.354 0-.853.482-1.495 1.447-.603.905-.961 2.027-1.074 3.368h-1.31v-5.108c-.128.02-.258.03-.388.032-.365 0-.679-.124-.941-.372a1.216 1.216 0 0 1-.394-.92c0-.288.094-.563.282-.825.21-.28.452-.438.729-.474a4.59 4.59 0 0 1 .452-.037c.461 0 .818.14 1.07.42.3.326.452.71.452 1.15v2.91c0-.18.225-.547.675-1.096.422-.51.739-.837.95-.98.211-.14.393-.212.545-.212l-.005-.004zm-4.389-.852c0 .152.056.286.17.401a.548.548 0 0 0 .404.173.556.556 0 0 0 .405-.17.552.552 0 0 0 .17-.405.578.578 0 0 0-.168-.417.546.546 0 0 0-.407-.173c-.163 0-.3.057-.41.173a.583.583 0 0 0-.164.417v.001zM41.53 167c0 .167.06.31.178.43.112.115.267.18.428.177.167 0 .31-.06.429-.178a.584.584 0 0 0 .178-.429.552.552 0 0 0-.178-.415.598.598 0 0 0-.429-.17.596.596 0 0 0-.425.173.55.55 0 0 0-.181.412zm8.949-1.207h1.256v6.166c0 .568-.094.938-.282 1.112-.203.26-.486.388-.852.388-.145 0-.289-.097-.43-.292-.171-.26-.343-.518-.517-.777a3.658 3.658 0 0 0-.59-.713c-.437-.39-.876-.612-1.32-.665v1.362c0 .475-.167.798-.5.968-.23.117-.518.176-.862.176-.202 0-.365-.02-.49-.059-.436-.124-.753-.407-.952-.85a1.813 1.813 0 0 1-.154-.767c0-.763.268-1.288.803-1.575.33-.18.623-.27.878-.27v-1.704l-.197.022c-.06.007-.124.01-.191.01a1.27 1.27 0 0 1-.923-.372 1.237 1.237 0 0 1-.38-.92c0-.288.093-.563.281-.825.202-.28.44-.438.713-.474a4.64 4.64 0 0 1 .447-.037c.479 0 .859.154 1.139.463.259.29.388.66.388 1.106v2.842c.436.02.908.203 1.415.548.04.028.249.216.628.563.358.33.543.494.554.49.092-.028.138-.149.138-.362v-5.554zm-4.975 1.24a.55.55 0 0 0 .176.398.55.55 0 0 0 .399.176c.16 0 .3-.057.423-.17a.533.533 0 0 0 .183-.405.598.598 0 0 0-.606-.59.54.54 0 0 0-.405.178.58.58 0 0 0-.17.412v.001zm.208 4.628a.73.73 0 0 0-.006.09v.086c0 .24.03.418.09.532.09.184.205.276.347.276.216 0 .324-.115.324-.345v-1.352a.319.319 0 0 0-.127-.02.579.579 0 0 0-.352.127c-.184.212-.276.415-.276.606zm13.056 1.74h-1.271v-5.028c0-.6-.082-1.02-.245-1.26-.28-.412-.757-.618-1.431-.618-.681 0-1.219.19-1.612.57a1.78 1.78 0 0 0-.517.872l-.734-.447c.167-.479.458-.89.873-1.235.482-.4 1.165-.6 2.048-.6.87 0 1.571.214 2.107.643.521.422.782 1.045.782 1.868v5.235zm6.417-.963c.173 0 .31-.066.41-.197.085-.11.127-.26.127-.452v-5.996h1.277v6.193c0 .383-.1.705-.298.968-.227.298-.619.447-1.176.447h-4.751v-.963h.51v-1.288c0-.475.102-.853.304-1.133.238-.326.53-.518.878-.575-.521 0-.944-.155-1.269-.465-.325-.31-.487-.725-.487-1.242 0-.653.247-1.17.74-1.554.447-.34 1.009-.51 1.686-.51.45 0 .816.113 1.096.34.298.248.447.594.447 1.037 0 .486-.172.84-.516 1.06a1.42 1.42 0 0 1-.766.212c-.624 0-1.018-.227-1.181-.68a1.248 1.248 0 0 1-.085-.448.85.85 0 0 1 .037-.298c-.114.014-.215.108-.303.282a.968.968 0 0 0-.112.42c0 .75.442 1.183 1.325 1.304.29.042.578.064.862.064h.558v.867h-.59c-.408 0-.717.092-.926.277-.262.237-.394.57-.394.994v1.336h2.597zm-2.395-5.39c0 .16.06.296.179.41a.58.58 0 0 0 .824-.003.549.549 0 0 0 .179-.407c0-.383-.197-.574-.591-.574a.581.581 0 0 0-.415.167.542.542 0 0 0-.176.407zm19.894 6.353h-1.288v-5.028c0-.589-.062-.982-.186-1.18-.298-.466-.784-.698-1.458-.698-.688 0-1.227.188-1.617.564a2.01 2.01 0 0 0-.527.878l-.713-.447c.188-.497.491-.92.91-1.272.447-.376 1.107-.564 1.98-.564.89 0 1.6.215 2.133.644.51.411.766 1.034.766 1.868v5.235zm-8.178-11.652c.358 0 .66.127.905.38.244.254.367.562.367.924 0 .361-.122.67-.365.923s-.545.38-.907.38c-.369 0-.682-.125-.939-.375a1.243 1.243 0 0 1-.386-.928c0-.37.129-.679.386-.929s.57-.375.94-.375h-.001zm-.606 1.304c0 .39.202.585.606.585.156 0 .29-.059.402-.176a.575.575 0 0 0 .167-.41.581.581 0 0 0-.167-.414.536.536 0 0 0-.402-.176.6.6 0 0 0-.43.168.56.56 0 0 0-.176.423zm.425 10.348v-5.166c0-.547-.143-.958-.43-1.235l-.267-.18a.201.201 0 0 0-.122-.032c-.036 0-.202.077-.5.231-.298.154-.562.231-.793.231-.206 0-.44-.074-.705-.223-.264-.149-.409-.224-.434-.224-.067 0-.17.045-.308.133a.972.972 0 0 0-.26.235c-.25.305-.373.773-.373 1.404 0 .348.037.685.111 1.011l.203.926c.156.692.234 1.255.234 1.692a6.34 6.34 0 0 1 .665-.963l.665-.825a.894.894 0 0 1-.713-.255 1.275 1.275 0 0 1-.42-.969c0-.475.2-.844.6-1.106a1.41 1.41 0 0 1 .783-.224h.09c.192.03.382.055.57.08.156.05.31.192.463.426.18.29.27.597.27.92 0 .26-.164.632-.494 1.117-.057.082-.358.47-.904 1.166-.1.124-.22.29-.362.494l-.41.586a5.438 5.438 0 0 0-.447.75h-1.521c0-.032.001-.083.005-.152.003-.069.005-.12.005-.157 0-.464-.044-.986-.133-1.564a96.34 96.34 0 0 1-.49-2.203 3.895 3.895 0 0 1-.074-.803c0-.41.085-.82.256-1.229.184-.436.43-.772.74-1.006.467-.35.905-.556 1.313-.617.089-.014.265.096.53.33.264.234.476.351.636.351.173 0 .399-.113.675-.34.277-.227.452-.34.527-.34.21 0 .442.06.697.18.23.117.436.28.617.484.284.323.48.632.59.926.118.316.176.663.176 1.043v5.097h-1.261zm-2.66-4.193c0 .16.06.297.18.41a.59.59 0 0 0 .416.17.578.578 0 0 0 .418-.167.552.552 0 0 0 .173-.413c0-.383-.197-.574-.591-.574a.59.59 0 0 0-.418.167.538.538 0 0 0-.178.407zm2.74-10.976h1.15v2.22h-1.15v-2.22z" fill="#6D6E71" fill-rule="nonzero"/><path d="M20.6 133.011a544.983 544.983 0 0 0 0 5.406c1.029-.25 1.752.7 1.752 1.26s-.221 1.442-1.342 1.533c-1.122.092-1.744-.672-1.744-1.607v-6.592H20.6zm.393 6.182a.606.606 0 0 0-.632.608c0 .275.14.608.632.608s.616-.358.616-.64c0-.284-.186-.576-.616-.576zm7.576-6.184c.32.175.638.33.956.464-.273.58-.76.872-1.464.872-1.055 0-1.488-.54-2.49-.474-1.003.066-1.111.624-1.296.916.797.075 1.385.138 1.762.19.566.078 2.204.49 2.436 1.354.2.693.096 2.622.096 3.323 0 .7-.474 1.544-1.737 1.544-1.262 0-1.398-1.078-1.398-1.45 0-.375.402-1.68 1.768-1.292.013-.864.016-1.388.01-1.57-.01-.273-.028-.762-.903-.986-.875-.223-2.388-.426-3.37-.312.076-.904.335-1.88 1.336-2.38 1-.5 2.288-.065 2.937.1s.964 0 1.357-.299zm-1.796 6.168c-.363 0-.595.38-.595.618 0 .237.246.618.595.618.35 0 .662-.21.662-.635 0-.423-.299-.6-.662-.6zm-4.693-7.502c.291-1.22.805-2.53 3.085-2.59 2.28-.06 3.214 1.68 3.478 2.66-1.665-.483-5.609-.345-6.563-.07zm1.447-.863c.936-.1 2.785-.1 3.675.14-.311-.633-1.136-1.253-2.073-1.193-.936.06-1.327.388-1.602 1.053zm3.767-4.962h1.205v2.31h-1.205v-2.31zm8.922 7.183h1.342v6.686c0 .653-.305 1.157-.66 1.301-.21.085-.38.207-.682.097-.775-.282-.865-2.08-2.876-2.55-.008.331-.015.89-.02 1.676-.196 1.006-1.196 1.085-2.021.874-.826-.212-1.386-1.3-1.043-2.318.345-1.025.896-1.216 1.688-1.307.03-.637.038-1.244.024-1.82-1.278.21-1.882-.7-1.787-1.493.094-.792.672-1.252 1.55-1.253.876 0 1.61.708 1.59 1.482-.021.774-.015 1.9.02 3.162.726.126 1.207.362 1.81.893.172.15.474.464.938.872.09-.125.127-.358.127-.99v-5.312zm-4.663.68c-.308 0-.591.138-.591.624 0 .485.31.624.59.624.281 0 .66-.195.66-.618 0-.422-.352-.63-.66-.63h.001zm.424 4.8c-.076-.087-.32-.09-.547.09-.226.18-.416.702-.197 1.34.219.64.744.304.744 0v-1.43zm13.405 2.584v-4.695c0-2.1-.671-2.315-.9-2.315-.23 0-.887.493-1.364.493-.476 0-.63-.229-1.258-.493-1.05.354-1.08 2.26-.864 2.755.143.33.31 1.335.499 3.012.056-.16.527-.809 1.415-1.942-.792.101-1.21-.822-1.21-1.402s.875-1.746 2.142-1.193c1.267.553.791 2.168.3 2.595-.329.285-1.089 1.35-2.282 3.194l-1.577-.009c.026-.48.026-1.048-.208-2.195-.155-.759-.531-1.883-.531-2.842 0-2.412 1.973-3.167 2.448-3.167.485.188.847.727 1.222.727.376 0 .577-.35 1.268-.727 1.555 0 2.21 1.978 2.21 2.586v5.618h-1.31zm-2.217-5.058c-.34 0-.61.32-.61.61s.195.6.61.6.64-.289.64-.645c0-.357-.3-.565-.64-.565zm3.532-7.515c.694.004 1.053 0 1.252 0 .006.62-.195 1.36-1.252 2.241-.929.773-2.556 1.084-3.43 1.024l-.011-.59c.46-.052.745-.293.856-.724-.763.06-1.446-.289-1.446-1.12 0-.83.533-1.1 1.243-1.16.71-.06 1.161.57 1.317 1.027.157.457 0 1.052-.45 1.543 1.143-.234 1.92-1.41 1.92-2.24h.001zm-2.862.31a.518.518 0 0 0-.518.523c0 .26.248.548.518.548s.581-.132.581-.548c0-.416-.263-.522-.581-.522zm9.864 4.196h1.275v4.81c0 .32-.475.515-.687.604.715.332.96.752.96 1.388 0 .636-.589 1.383-1.37 1.383-.782 0-1.153-.636-1.256-1.106-.104-.47.026-.92.162-1.025-.832.103-1.617 1.282-1.776 1.992l-1.224.011v-5.434c-1.111.058-1.667-.368-1.667-1.278 0-1.365 1.197-1.428 1.513-1.428.315 0 1.17.194 1.378 1.238.045 1.14 0 4.973 0 5.254.305-.449.83-1.03 1.48-1.174.653-.145 1.034-.227 1.212-.584.01-.73.01-2.28 0-4.65zm.175 6.152c-.265 0-.57.266-.57.63 0 .363.306.63.57.63.263 0 .635-.2.635-.672 0-.473-.37-.588-.635-.588zm-4.538-5.457c-.35 0-.482.296-.482.615 0 .318.255.615.562.615.308 0 .58-.314.58-.667 0-.353-.31-.563-.66-.563zm214.329-11.489c.255-1.07.706-2.22 2.706-2.273 2-.052 2.82 1.475 3.051 2.334-1.46-.422-4.92-.302-5.757-.06zm1.269-.756c.821-.088 2.443-.088 3.224.12-.273-.554-.997-1.097-1.819-1.044-.821.053-1.164.34-1.405.924zm26.492 9.206v-4.024c0-1.844-.316-2.29-2.17-2.29-1.853 0-1.867 2.146-1.678 2.581.126.29.272 1.17.438 2.643.049-.142.462-.71 1.24-1.704-.694.088-1.061-.72-1.061-1.23s.768-1.532 1.88-1.047c1.111.485.694 1.902.263 2.277-.288.25-.955 1.184-2.002 2.801l-1.383-.007c.022-.42.022-.92-.183-1.926-.136-.665-.574-1.66-.466-2.493.258-1.985 1.274-2.534 3.136-2.634 1.862-.1 3.135.867 3.135 2.124v4.93h-1.149zm-1.945-4.438c-.298 0-.535.28-.535.535s.171.527.535.527.561-.253.561-.566c0-.313-.263-.496-.56-.496h-.001zm-19.335-9.154c.501.002.76 0 .904 0 .005.448-.14.983-.904 1.62-.671.558-1.848.782-2.48.74l-.007-.427c.333-.037.539-.212.618-.523-.55.043-1.044-.209-1.044-.81 0-.6.385-.794.898-.838.513-.044.84.411.952.742.113.33 0 .76-.325 1.115.826-.169 1.388-1.019 1.388-1.619zm-2.068.224c-.23 0-.375.19-.375.378 0 .187.18.396.375.396s.42-.096.42-.396c0-.3-.19-.378-.42-.378zm7.664 6.361h1.119v4.22c0 .281-.417.452-.603.53.628.291.843.66.843 1.218 0 .558-.517 1.213-1.203 1.213-.685 0-1.011-.558-1.102-.97-.09-.413.023-.809.143-.9-.73.09-1.42 1.125-1.559 1.748l-1.073.01v-4.767c-.975.05-1.462-.323-1.462-1.122 0-1.198 1.05-1.253 1.327-1.253.277 0 1.026.17 1.208 1.086.04 1.001 0 4.364 0 4.61.268-.394.728-.903 1.3-1.03.572-.128.906-.2 1.062-.513.01-.64.01-2 0-4.08zm.154 5.397c-.232 0-.5.234-.5.553 0 .32.268.552.5.552a.563.563 0 0 0 .557-.59c0-.414-.325-.515-.557-.515zm-3.98-4.788c-.308 0-.424.26-.424.54s.223.54.493.54.508-.276.508-.586c0-.31-.27-.494-.578-.494h.001zm11.447-.407c.216-.168.595-.45.595-.98.534.124.946.224 1.234.3 0 .43-.375.977-1.088 1.194.192.206.296.41.36.55.242.45.308 2.381.198 5.791h-1.128c.005-.454.005-.817 0-1.09-.483-2.002-1.617-3.563-2.518-3.159-.901.405-.565 1.506-.565 1.932.565-.157 1.561 0 1.664 1.093.104 1.094-.996 1.434-1.544 1.327-.548-.107-1.134-.387-1.3-1.394-.165-1.008-.206-3.53 1.531-3.76 1.737-.228 2.385 1.458 2.732 1.868.103-2.248-.078-3.398-1.974-3.216-1.896.181-2.037.88-2.17 1.167-.246-.194-.47-.363-.67-.506.61-.94 1.6-1.412 2.971-1.412.734 0 1.273.121 1.672.295zm-2.486 5.196c-.328 0-.494.274-.494.521s.192.521.494.521.501-.363.501-.57a.488.488 0 0 0-.501-.472zm-12.927-5.36c.217-.168.595-.45.595-.98.535.123.947.223 1.235.3 0 .43-.375.977-1.088 1.193.192.207.296.41.36.55.242.45.308 2.382.198 5.791h-1.129c.005-.454.005-.817 0-1.09-.483-2.002-1.616-3.563-2.517-3.158-.901.405-.565 1.505-.565 1.931.565-.156 1.56 0 1.664 1.094.104 1.093-.996 1.434-1.544 1.327-.548-.108-1.134-.387-1.3-1.395-.165-1.008-.207-3.53 1.53-3.759 1.738-.228 2.386 1.457 2.732 1.868.104-2.249-.077-3.398-1.973-3.217-1.896.182-2.038.88-2.17 1.168-.246-.194-.47-.363-.671-.507.61-.94 1.6-1.41 2.972-1.41.734 0 1.273.12 1.672.294h-.001zm-2.486 5.195c-.327 0-.493.275-.493.521 0 .247.191.522.493.522s.502-.364.502-.57a.488.488 0 0 0-.502-.473zm18.249 5.34a45.64 45.64 0 0 1 0-.748c-.915.105-1.324-.48-1.324-1.046 0-.567.345-.952 1.131-1.023.786-.072 1.216.581 1.273 1.023.038.294.057.892.057 1.793h-1.137zm-.222-2.255c-.216 0-.401 0-.453.506-.053.507.304.533.535.533.231 0 .494-.13.494-.533 0-.402-.359-.506-.576-.506z" fill="#2A3052" fill-rule="nonzero"/><path d="M170.799 165.057h-2.132v-8.314h2.132v8.314zm0 4.374h-2.132v-2.234h2.132v2.234zm-34.269-13.26h2.567c-.132 1.682-1.167 2.738-3.104 3.168 1.068.311 1.624 1.053 1.624 2.192 0 1.802-.01 3.951 0 5.714 0 2.948-.698 3.25-2.993 3.35-1.53.068-3.929.068-7.197 0v-1.617h1.494v-2.92c.152-1.62 2.9-3.678 2.9-5.69 0-2.014-2.376-3.118-3.639-1.719 1.06.06 1.948.993 2.026 2.337 0 1.404-1.03 2.137-2.222 2.137-1.193 0-2.48-.806-2.48-2.453 0-1.647.731-2.684 1.921-3.43 1.19-.745 5.248-1.165 6.17 2.1.924 3.264-2.457 5.08-2.457 6.977v2.661h3.116c.915 0 1.165-.747 1.165-2.132 0-.914 0-3.913-.176-5.86-.086-.95-.91-1.237-1.197-1.237-.178-.503-.183-.603-.293-.98 1.658-.152 2.583-1.018 2.775-2.598zm-8.635 3.743c-.485 0-.894.391-.894 1.02 0 .63.47 1.02.894 1.02.425 0 1.056-.345 1.056-1.044 0-.7-.57-.996-1.056-.996zm22.155-3.023h2.166v8.177c0 .545-.807.876-1.167 1.027 1.216.564 1.632 1.278 1.632 2.36 0 1.081-1 2.35-2.33 2.35-1.328 0-1.96-1.08-2.135-1.88-.175-.8.044-1.566.277-1.743-1.415.175-2.75 2.18-3.02 3.387l-2.081.02v-9.238c-1.888.1-2.832-.625-2.832-2.173 0-2.32 2.034-2.428 2.57-2.428.537 0 1.989.331 2.343 2.105.076 1.94 0 8.454 0 8.93.519-.762 1.41-1.749 2.518-1.995 1.108-.246 1.756-.385 2.058-.993.017-1.24.017-3.875 0-7.906h.001zm.296 10.458c-.45 0-.967.453-.967 1.07 0 .62.52 1.07.967 1.07a1.09 1.09 0 0 0 1.08-1.14c0-.804-.63-1-1.08-1zm-7.712-9.277c-.596 0-.82.505-.82 1.046 0 .54.432 1.045.955 1.045.523 0 .985-.533.985-1.133s-.525-.958-1.12-.958zm20.462-.019l1.904.31c-.867 3.156-2.986 4.524-6.358 4.104-5.058-.63-3.192-5.07-1.242-4.897 1.95.173 2.397 1.3 2.397 2.036 0 .738-.074 1.013-.965 1.677 2.5.376 3.921-.7 4.264-3.23zm-5.588.601c-.535 0-.953.52-.953 1.035 0 .515.47 1.034.953 1.034s1.094-.355 1.094-1.06c0-.706-.559-1.009-1.094-1.009zm5.588 6.65l1.904.31c-.867 3.156-2.986 4.524-6.358 4.104-5.058-.63-3.192-5.07-1.242-4.897 1.95.174 2.397 1.3 2.397 2.037 0 .737-.074 1.012-.965 1.676 2.5.376 3.921-.7 4.264-3.23zm-5.588.601c-.535 0-.953.52-.953 1.035 0 .515.47 1.034.953 1.034s1.094-.355 1.094-1.06c0-.706-.559-1.009-1.094-1.009z" fill="#FFF" fill-rule="nonzero"/></g></svg>