<svg width="299" height="197" xmlns="http://www.w3.org/2000/svg"><g fill="none"><path fill="#F1F2F2" d="M299 0v197H0V0z"/><path d="M297.02 1.96H1.98v193.08h295.04V1.96zM299 197H0V0h299v197z" fill="#C2C2C2"/><path d="M4 54.021v-1.21h290v1.21H4zm0 40.874v-1.21h290v1.21H4zm0 40.87v-1.21h290v1.21H4zm0 39.833v-1.21h290v1.21H4zM38.421 33h1.208v161h-1.208V33zm36.71 0h1.208v161H75.13V33zm36.669 0h1.208v161H111.8V33zm36.708 0h1.208v161h-1.208V33zm36.671 0h1.208v161h-1.208V33zm36.673 0h1.208v161h-1.208V33zM4 115.31v-1.21h290v1.21H4z" fill="#DFDEDE"/><path fill="#C2C2C2" d="M1 30v-2h296v2z"/><path fill="#15212D" d="M4.724 72.034v-1.148h290v1.148z"/><path d="M88.833 85.663L39.258 115.89a1.841 1.841 0 1 1-1.916-3.144l50.67-30.896a1.841 1.841 0 0 1 2.1.128l45.324 35.87 48.457-49.912a1.841 1.841 0 0 1 2.777.156l75.26 97.34a1.841 1.841 0 1 1-2.912 2.252l-73.962-95.66-48.137 49.583a1.841 1.841 0 0 1-2.464.162L88.833 85.663z" fill="#2A3052"/><ellipse fill="#FFF" opacity=".6" cx="185.652" cy="69.653" rx="8.247" ry="8.633"/><path d="M185.652 79.513c-5.245 0-9.474-4.426-9.474-9.86 0-5.434 4.228-9.86 9.474-9.86s9.475 4.426 9.475 9.86c0 5.434-4.23 9.86-9.475 9.86zm0-2.455c3.864 0 7.02-3.303 7.02-7.405s-3.156-7.406-7.02-7.406c-3.864 0-7.02 3.304-7.02 7.406s3.156 7.405 7.02 7.405z" fill="#E88024"/><path d="M218.777 178.88a10.206 10.206 0 0 0-1.441-.163 15.73 15.73 0 0 0-.563-.012c-.464 0-.716.014-.755.041a.809.809 0 0 1-.018-.17c0-.52.17-1.045.51-1.576.433-.676 1.142-1.014 2.127-1.014.273 0 .656.072 1.148.214.492.143.856.214 1.09.214.457 0 .77-.143.938-.428l1.025.534c-.055.148-.168.302-.34.462-.246.23-.521.362-.826.393a3.96 3.96 0 0 1-.358.03c-.308 0-.738-.089-1.289-.264-.496-.153-.875-.229-1.136-.229-.473 0-.842.12-1.108.358-.172.144-.31.355-.416.632.457 0 .994.047 1.612.141.718.113 1.3.271 1.746.475.445.203.748.45.908.744.133.234.2.476.2.726v2.836c0 .489-.16.905-.476 1.248-.296.324-.683.487-1.16.487-.53 0-.947-.166-1.248-.498a1.379 1.379 0 0 1-.369-.973c0-.414.137-.757.41-1.028.274-.272.617-.408 1.032-.408.18 0 .314.016.404.047v-1.594c0-.253-.063-.462-.188-.626-.195-.258-.681-.458-1.459-.598zm1.243 4.852a.6.6 0 0 0 .448-.19.63.63 0 0 0 .184-.454.615.615 0 0 0-.187-.451.608.608 0 0 0-.445-.188.637.637 0 0 0-.46.185.608.608 0 0 0-.19.454c0 .18.062.332.187.457s.279.187.463.187zm9.421.704h-1.4v-5.538c0-.66-.09-1.123-.27-1.388-.308-.453-.833-.68-1.576-.68-.75 0-1.341.21-1.775.627a1.96 1.96 0 0 0-.568.961l-.809-.492a3.06 3.06 0 0 1 .96-1.36c.532-.441 1.284-.662 2.257-.662.957 0 1.73.237 2.32.71.574.464.861 1.15.861 2.056v5.766zm4.413 0h-1.665c0-.036.003-.091.01-.167.005-.077.008-.134.008-.173 0-.48-.057-1.057-.17-1.729-.129-.512-.31-1.285-.545-2.32a4.51 4.51 0 0 1-.082-.914c0-1.012.365-1.819 1.096-2.42.656-.54 1.556-.809 2.701-.809 1.227 0 2.15.256 2.772.768.601.5.902 1.217.902 2.15v5.614h-1.406v-5.69c0-.574-.176-1.031-.528-1.371-.379-.363-.967-.545-1.763-.545-.66 0-1.21.192-1.647.577-.437.385-.656.956-.656 1.714 0 .36.023.649.07.867.035.153.084.385.147.698.027.171.054.392.082.662.007.136.015.242.023.316 0-.242.049-.576.147-1.002.054-.258.148-.596.28-1.014.118-.441.27-.793.458-1.054.219-.313.557-.469 1.014-.469.773 0 1.28.271 1.523.814.094.22.14.426.14.622 0 .421-.115.757-.345 1.007a1.556 1.556 0 0 1-1.184.498c-.265 0-.517-.08-.756-.24-.293.715-.478 1.625-.556 2.73l-.07.88zm1.406-5.473c-.426 0-.639.213-.639.639a.6.6 0 0 0 .188.442.62.62 0 0 0 .887-.006.6.6 0 0 0 .19-.436c0-.18-.06-.331-.18-.455a.6.6 0 0 0-.446-.184zm11.367 5.473h-1.4v-5.538c0-.66-.09-1.123-.27-1.388-.309-.453-.834-.68-1.576-.68-.75 0-1.342.21-1.776.627a1.96 1.96 0 0 0-.568.961l-.808-.492c.183-.528.503-.98.96-1.36.532-.441 1.284-.662 2.256-.662.957 0 1.73.237 2.32.71.575.464.862 1.15.862 2.056v5.766zm8.273-7.559c.16.172.291.389.393.65.148.371.223.752.223 1.143v5.766h-1.395v-.768c0-.727-.234-1.566-.703-2.52-.598-1.207-1.248-1.81-1.951-1.81-.461 0-.776.256-.944.767-.074.239-.11.54-.11.903 0 .21.015.441.046.691.184-.066.36-.1.527-.1.41 0 .756.142 1.037.425.282.284.422.63.422 1.04 0 .313-.103.612-.31.897-.219.309-.477.482-.774.521a5.016 5.016 0 0 1-.48.041 1.75 1.75 0 0 1-1.3-.55c-.384-.383-.575-1.123-.575-2.221 0-1.195.191-2.04.574-2.531.418-.551.97-.826 1.658-.826.39 0 .803.103 1.237.31.504.238.98.752 1.43 1.541.05.09.122.227.216.41v-1.758c0-.609-.105-1.068-.316-1.377-.32-.46-.928-.69-1.823-.69-.804 0-1.435.14-1.892.424-.457.283-.75.602-.88.958l-.767-.598.504-.627c.274-.261.547-.463.82-.603.274-.14.618-.26 1.032-.358a5.55 5.55 0 0 1 1.219-.123c.8 0 1.45.108 1.95.323.177-.122.311-.252.405-.393.137-.176.205-.41.205-.703l1.488.38c0 .45-.252.835-.755 1.155a2.32 2.32 0 0 1-.41.211zm-3.28 6.187a.635.635 0 0 0-.183-.454.598.598 0 0 0-.45-.19.57.57 0 0 0-.434.196.641.641 0 0 0 0 .897c.12.127.265.19.433.19a.605.605 0 0 0 .449-.187.62.62 0 0 0 .184-.452zm2.689 5.52v-.908a.66.66 0 0 1-.217.03c-.426 0-.758-.124-.996-.37-.211-.223-.317-.508-.317-.856 0-.543.244-.914.733-1.113.215-.09.443-.135.685-.135.473 0 .856.176 1.149.528.234.281.351.722.351 1.324v1.5h-1.388zm-.205-2.684c-.387 0-.58.205-.58.616 0 .402.206.603.62.603.41 0 .616-.217.616-.65-.047-.38-.266-.569-.656-.569zm9.439-1.464v-5.69c0-.578-.176-1.035-.527-1.371-.383-.363-.971-.545-1.764-.545-.668 0-1.209.186-1.623.557-.469.426-.703 1.004-.703 1.734 0 .383.04.754.123 1.113l.222 1.02c.172.762.258 1.383.258 1.863a23.28 23.28 0 0 1 1.096-1.676c.137-.191.26-.36.37-.51-.325-.038-.638-.195-.938-.468-.207-.188-.31-.492-.31-.914 0-.203.032-.387.099-.551.25-.617.732-.926 1.447-.926.562 0 .967.192 1.213.574.2.325.299.665.299 1.02 0 .246-.168.637-.504 1.172-.278.402-.69 1.004-1.237 1.805-.21.308-.511.773-.902 1.394a32.88 32.88 0 0 1-.24.399h-1.676c0-.036.002-.091.006-.167a3.67 3.67 0 0 0 .006-.173c0-.512-.049-1.086-.147-1.723a104.94 104.94 0 0 1-.539-2.426 4.29 4.29 0 0 1-.082-.885c0-1 .37-1.785 1.108-2.355.699-.535 1.59-.803 2.672-.803 1.242 0 2.167.256 2.777.768.59.496.885 1.213.885 2.15v5.614h-1.389zm-2.93-4.858c0 .172.068.321.202.448a.646.646 0 0 0 .912.003.606.606 0 0 0 .193-.45.634.634 0 0 0-.65-.645.64.64 0 0 0-.46.19.61.61 0 0 0-.197.454zm7.705-.767a7.7 7.7 0 0 1-.45.035c-.395 0-.73-.139-1.003-.416a1.383 1.383 0 0 1-.41-1.008c0-.317.1-.617.299-.902.215-.313.473-.489.773-.528.239-.027.403-.04.493-.04.539 0 .959.17 1.26.509.28.324.421.73.421 1.219v1.922l-.158 1.242.21-.703c.028-.094.155-.428.382-1.002.418-1.075.857-1.907 1.318-2.496.215-.274.37-.444.463-.51.152-.113.36-.17.621-.17.582 0 1.055.203 1.418.61.344.386.516.876.516 1.47v6.393h-1.383v-6.534c0-.457-.205-.68-.615-.668-.211.008-.535.453-.973 1.336-.293.59-.537 1.147-.732 1.67a20.53 20.53 0 0 0-.926 3.334c-.094.485-.14.772-.14.862h-1.384v-5.625zm-1.078-1.39c0 .165.064.311.19.44a.596.596 0 0 0 .437.194c.176 0 .33-.063.46-.188a.595.595 0 0 0 .196-.445.624.624 0 0 0-.19-.463.639.639 0 0 0-.466-.188.586.586 0 0 0-.442.197.643.643 0 0 0-.185.454zm4.805-4.066c-.063.012-.15.018-.264.018-.453 0-.789-.146-1.008-.44-.14-.18-.21-.413-.21-.703 0-.593.292-.98.878-1.16a1.49 1.49 0 0 1 .452-.07c.476 0 .834.18 1.072.54.21.308.316.614.316.919 0 .14-.02.281-.058.422-.094.336-.252.6-.475.79.606-.148 1.057-.4 1.354-.755.418-.496.627-1.02.627-1.57h1.33c0 .898-.446 1.675-1.336 2.332-.938.707-2.13 1.06-3.575 1.06v-.615c.2 0 .414-.088.645-.264.168-.168.252-.336.252-.504zm-.252-1.693c-.367 0-.55.188-.55.563.05.37.255.556.614.556.34 0 .51-.195.51-.586 0-.355-.191-.533-.574-.533zm10.295 12.774h-1.4v-5.538c0-.66-.09-1.123-.27-1.388-.309-.453-.834-.68-1.576-.68-.75 0-1.342.21-1.776.627a1.96 1.96 0 0 0-.568.961l-.809-.492c.184-.528.504-.98.961-1.36.532-.441 1.284-.662 2.256-.662.957 0 1.73.237 2.32.71.575.464.862 1.15.862 2.056v5.766zm7.066-1.061a.535.535 0 0 0 .451-.217c.094-.12.141-.287.141-.498v-6.603h1.406v6.82c0 .422-.109.777-.328 1.066-.25.328-.681.493-1.295.493h-5.232v-1.061h.562v-1.418c0-.523.112-.94.334-1.248.262-.36.584-.57.967-.633-.574 0-1.04-.17-1.397-.513-.358-.341-.536-.797-.536-1.368 0-.718.271-1.289.814-1.71.492-.376 1.111-.563 1.857-.563.497 0 .899.125 1.207.375.329.273.493.654.493 1.142 0 .536-.19.924-.569 1.166a1.56 1.56 0 0 1-.843.235c-.688 0-1.122-.25-1.301-.75a1.374 1.374 0 0 1-.094-.492c0-.153.014-.262.041-.328-.125.015-.236.119-.334.31a1.066 1.066 0 0 0-.123.463c0 .824.486 1.303 1.459 1.436.32.046.637.07.95.07h.614v.955h-.65c-.45 0-.789.101-1.02.305-.289.261-.433.627-.433 1.095v1.471h2.86zm-2.636-5.936c0 .176.065.327.196.452a.638.638 0 0 0 .908-.003.605.605 0 0 0 .196-.449c0-.421-.216-.632-.65-.632a.64.64 0 0 0-.457.184.597.597 0 0 0-.193.448zM21.514 131.621v5.643c.109-.032.246-.047.41-.047.414 0 .76.137 1.037.41.277.273.416.615.416 1.025 0 .391-.123.72-.37.985a1.421 1.421 0 0 1-.948.45 1.279 1.279 0 0 1-.323.042c-.457 0-.85-.18-1.177-.54-.286-.304-.428-.704-.428-1.2v-6.768h1.383zm1.078 7.031a.596.596 0 0 0-.196-.457.67.67 0 0 0-.472-.181.608.608 0 0 0-.445.187.615.615 0 0 0-.188.451.63.63 0 0 0 .185.454.6.6 0 0 0 .448.19c.183 0 .34-.062.472-.187a.608.608 0 0 0 .196-.457zm4.178-4.207a10.24 10.24 0 0 0-1.442-.164 15.73 15.73 0 0 0-.562-.011c-.465 0-.717.013-.756.04a.809.809 0 0 1-.018-.17c0-.519.17-1.044.51-1.576.434-.675 1.143-1.013 2.127-1.013.273 0 .656.071 1.148.214.493.142.856.214 1.09.214.457 0 .77-.143.938-.428l1.025.533c-.055.148-.168.303-.34.463-.246.23-.521.361-.826.392a3.96 3.96 0 0 1-.357.03c-.309 0-.739-.088-1.29-.264-.496-.152-.874-.228-1.136-.228-.473 0-.842.119-1.108.357-.171.145-.31.355-.416.633.457 0 .995.047 1.612.14.719.114 1.3.272 1.746.475.445.203.748.451.908.744.133.235.2.477.2.727v2.836c0 .488-.159.904-.475 1.248-.297.324-.684.486-1.16.486-.532 0-.948-.166-1.249-.498a1.379 1.379 0 0 1-.369-.973c0-.414.137-.756.41-1.028.274-.271.618-.407 1.032-.407.18 0 .314.015.404.047v-1.594c0-.254-.062-.463-.187-.627-.196-.258-.682-.457-1.46-.598zm1.242 4.852a.6.6 0 0 0 .448-.19.63.63 0 0 0 .185-.455.615.615 0 0 0-.188-.45.608.608 0 0 0-.445-.188.637.637 0 0 0-.46.184.608.608 0 0 0-.19.454c0 .18.062.332.187.457s.28.188.463.188zm1.916-8.994l-.803-.153c-.79-.148-1.707-.222-2.754-.222-1.031 0-2.13.097-3.299.293l.223-.756c.527-1.285 1.553-1.928 3.076-1.928 1.371 0 2.395.541 3.07 1.623.274.438.436.819.487 1.143zm-3.71-2.069c-.714 0-1.218.266-1.511.797l-.117.281c.71-.035 1.338-.052 1.88-.052.481 0 1.135.068 1.964.205-.07-.102-.141-.205-.211-.31-.504-.614-1.172-.92-2.004-.92zm2.274-4.084h1.266v2.444h-1.266v-2.444zm9.281 7.471h1.383v6.791c0 .625-.103 1.033-.31 1.225-.223.285-.535.427-.938.427-.16 0-.318-.107-.474-.322-.188-.285-.377-.57-.569-.855a4.029 4.029 0 0 0-.65-.785c-.48-.43-.965-.674-1.453-.733v1.5c0 .524-.184.879-.551 1.067-.254.128-.57.193-.95.193-.222 0-.402-.022-.538-.065-.48-.136-.83-.449-1.05-.937a1.997 1.997 0 0 1-.17-.844c0-.84.296-1.418.886-1.734.363-.2.685-.299.966-.299v-1.875l-.216.023a1.807 1.807 0 0 1-.211.012 1.4 1.4 0 0 1-1.017-.41 1.362 1.362 0 0 1-.419-1.014c0-.316.104-.619.31-.908.223-.308.485-.482.786-.521.238-.028.402-.041.492-.041.527 0 .945.17 1.254.51.285.32.428.726.428 1.218v3.129c.48.023 1 .225 1.558.604.043.03.274.238.692.62.394.364.597.544.61.54.1-.032.151-.164.151-.399v-6.117zm-5.478 1.365c0 .164.064.31.193.44a.606.606 0 0 0 .44.193.665.665 0 0 0 .466-.187.588.588 0 0 0 .202-.446.615.615 0 0 0-.197-.463.659.659 0 0 0-.471-.187.595.595 0 0 0-.446.196.638.638 0 0 0-.187.454zm.228 5.098a.804.804 0 0 0-.005.1v.093c0 .266.033.461.1.586.097.203.224.305.38.305.238 0 .357-.127.357-.38v-1.49a.351.351 0 0 0-.14-.023.638.638 0 0 0-.387.141c-.203.234-.305.457-.305.668zM47.277 140v-5.69c0-.601-.158-1.054-.474-1.359-.063-.043-.16-.11-.293-.199a.222.222 0 0 0-.135-.035c-.04 0-.223.085-.55.255-.329.17-.62.255-.874.255-.226 0-.485-.082-.776-.247-.291-.164-.45-.246-.478-.246-.074 0-.187.05-.34.147a1.07 1.07 0 0 0-.287.258c-.273.336-.41.851-.41 1.547 0 .382.041.753.123 1.113l.223 1.02c.172.761.258 1.382.258 1.863.16-.301.404-.655.732-1.06l.733-.91a.985.985 0 0 1-.786-.28 1.404 1.404 0 0 1-.463-1.067c0-.523.221-.93.663-1.219.253-.164.54-.246.86-.246h.1c.211.032.42.06.627.088.172.055.342.211.51.469.2.32.3.658.3 1.014 0 .285-.183.695-.546 1.23-.062.09-.394.518-.996 1.283a9.78 9.78 0 0 0-.398.545l-.452.645a5.99 5.99 0 0 0-.492.826H41.98c0-.035.002-.09.006-.167a3.67 3.67 0 0 0 .006-.173c0-.512-.049-1.086-.146-1.722a99.854 99.854 0 0 1-.54-2.426 4.29 4.29 0 0 1-.081-.885c0-.453.093-.904.28-1.354.204-.48.475-.85.815-1.107.516-.387.998-.613 1.448-.68.097-.015.292.106.583.364.29.257.524.386.7.386.191 0 .44-.125.744-.375.305-.25.498-.375.58-.375.23 0 .486.067.768.2.253.128.48.306.68.533.312.355.529.695.65 1.02.129.347.193.73.193 1.148V140h-1.389zm-2.93-4.617c0 .176.067.326.2.451a.648.648 0 0 0 .457.187c.18 0 .333-.061.46-.184a.608.608 0 0 0 .19-.454c0-.422-.216-.633-.65-.633a.65.65 0 0 0-.46.185.592.592 0 0 0-.196.448zm1.618-6.434c-.063.012-.15.018-.264.018-.453 0-.789-.147-1.008-.44-.14-.18-.21-.414-.21-.703 0-.594.292-.98.878-1.16a1.49 1.49 0 0 1 .452-.07c.476 0 .833.18 1.072.539.21.308.316.615.316.92 0 .14-.02.281-.058.422-.094.336-.252.6-.475.79.605-.148 1.057-.4 1.353-.755.418-.496.627-1.02.627-1.57h1.33c0 .898-.445 1.675-1.335 2.331-.938.708-2.13 1.061-3.575 1.061v-.615c.2 0 .414-.088.645-.264.168-.168.252-.336.252-.504zm-.252-1.693c-.367 0-.55.187-.55.562.05.371.255.557.614.557.34 0 .51-.195.51-.586 0-.355-.191-.533-.574-.533zm6.305 7.119a3.08 3.08 0 0 1-.428.035 1.41 1.41 0 0 1-1.023-.416 1.358 1.358 0 0 1-.424-1.008c0-.316.103-.619.31-.908.219-.308.483-.482.791-.521.242-.028.408-.041.498-.041.531 0 .95.17 1.254.51.285.324.428.73.428 1.218v5.045c.199-.355.486-.64.861-.855.328-.18.608-.305.838-.375.176-.043.422-.106.738-.188.391-.101.586-.262.586-.48v-4.77h1.424v4.928a.537.537 0 0 1-.293.51c-.11.058-.264.12-.463.187.266.074.49.21.674.404.27.293.404.598.404.914 0 .43-.12.784-.363 1.061-.254.29-.594.455-1.02.498-.539 0-.949-.166-1.23-.498-.2-.234-.32-.52-.363-.855 0-.504.07-.79.21-.856-.394 0-.818.254-1.27.762-.305.34-.55.781-.733 1.324h-1.406v-5.625zm-1.055-1.389c0 .164.063.31.19.44a.596.596 0 0 0 .437.193.644.644 0 0 0 .46-.187.595.595 0 0 0 .196-.446.624.624 0 0 0-.19-.463.639.639 0 0 0-.466-.187.586.586 0 0 0-.443.196.643.643 0 0 0-.184.454zm5.76 5.028c-.446 0-.668.228-.668.685 0 .414.216.621.65.621.18 0 .333-.06.46-.178a.582.582 0 0 0 .19-.443c0-.457-.21-.685-.632-.685zM136.14 49.8v2.91c0 .354-.082.643-.248.868-.256.281-.615.422-1.078.422h-3.647v-.834h.68v-1.313c0-.328.201-.734.605-1.219.346-.412.575-.762.684-1.05.078-.197.117-.42.117-.67 0-.29-.09-.534-.27-.729a.903.903 0 0 0-.696-.293h-.075c-.4 0-.63.092-.693.277.337 0 .603.147.797.44.14.216.21.432.21.647 0 .213-.06.411-.182.596a.908.908 0 0 1-.478.398 1.472 1.472 0 0 1-.497.098c-.247 0-.488-.09-.722-.271-.235-.182-.37-.39-.408-.624a2.996 2.996 0 0 1-.047-.417c0-.528.205-.977.614-1.345.347-.32.858-.479 1.533-.479.834 0 1.416.327 1.744.98.112.228.169.477.169.745 0 .638-.25 1.277-.75 1.918a6.373 6.373 0 0 0-.375.506 1.201 1.201 0 0 0-.155.605v1.2h1.58c.13 0 .256-.064.375-.193.071-.093.107-.234.107-.421v-2.743c0-.15-.014-.27-.042-.36a.812.812 0 0 0-.15-.483.52.52 0 0 0-.478-.272l-.136-.483a1.67 1.67 0 0 0 .577-.173c.053-.022.128-.06.225-.113.053-.038.122-.1.206-.188.21-.218.314-.489.314-.81h1.29a4.14 4.14 0 0 1-.085.534c-.082.24-.201.431-.359.572-.158.14-.338.242-.541.304a1.874 1.874 0 0 1-.272.08l-.286.056c.09 0 .212.06.365.179.104.062.186.14.249.234a.88.88 0 0 1 .192.464c.019.069.03.156.033.262l.005.188zm-5.221-.534c0 .134.045.25.136.346.09.097.204.146.342.146.131 0 .245-.05.342-.148a.476.476 0 0 0 .145-.344.476.476 0 0 0-.145-.345.465.465 0 0 0-.342-.148.449.449 0 0 0-.342.146.49.49 0 0 0-.136.347zm4.181-5.55h1.013v1.954H135.1v-1.954zm7.205 8.995c0 .378-.133.71-.399.998-.24.26-.545.39-.914.39-.075 0-.158-.01-.248-.029a1.16 1.16 0 0 1-.764-.365 1.1 1.1 0 0 1-.305-.783c0-.325.115-.598.345-.818.23-.22.507-.33.832-.33.128 0 .242.012.342.037v-2.24c0-.526-.072-.896-.216-1.112-.24-.362-.66-.543-1.26-.543-.591 0-1.062.165-1.412.497a1.76 1.76 0 0 0-.478.773l-.614-.394a2.59 2.59 0 0 1 .792-1.125c.39-.328.974-.492 1.749-.492.778 0 1.403.19 1.875.567.45.363.675.911.675 1.646v3.323zm-1.453.727c.337 0 .506-.172.506-.516a.498.498 0 0 0-.506-.511.508.508 0 0 0-.366.15.485.485 0 0 0-.155.36c0 .142.051.263.153.364a.501.501 0 0 0 .368.153zm5.887-3.938c-.19.019-.3.028-.328.028-.325 0-.602-.108-.832-.326a1.073 1.073 0 0 1-.345-.813c0-.253.085-.495.254-.727.175-.246.384-.385.628-.417.193-.022.328-.032.403-.032.419 0 .748.137.989.412.228.263.342.586.342.97V54h-1.43a9.741 9.741 0 0 0-.201-.37 12.853 12.853 0 0 0-.37-.558 22.845 22.845 0 0 0-.39-.59 9.904 9.904 0 0 0-.88-1.055c-.098-.1-.238-.24-.423-.418l-.019-.018c-.271-.263-.454-.42-.548-.474l-.244-.14.314-.497c.157 0 .605.326 1.346.98.268.237.542.496.82.778.16.171.369.43.628.773l.286.389v-3.3zm-.853-1.11c0 .143.051.263.155.36a.522.522 0 0 0 .37.145.477.477 0 0 0 .35-.154.488.488 0 0 0 .151-.352.513.513 0 0 0-.15-.36.468.468 0 0 0-.351-.16.51.51 0 0 0-.373.15.5.5 0 0 0-.152.37zm5.428 1.166a8.146 8.146 0 0 0-1.153-.131c-.172-.006-.322-.01-.45-.01-.372 0-.574.012-.605.033a.647.647 0 0 1-.014-.136c0-.415.136-.835.408-1.26.347-.541.914-.811 1.702-.811.218 0 .525.057.918.17.394.115.685.172.872.172.366 0 .616-.114.75-.342l.82.426a1.007 1.007 0 0 1-.271.37c-.197.185-.418.29-.661.315-.14.015-.236.023-.286.023-.247 0-.59-.07-1.031-.21-.397-.123-.7-.184-.91-.184-.378 0-.673.096-.886.286a1.204 1.204 0 0 0-.333.506c.366 0 .796.038 1.29.113.574.09 1.04.217 1.396.38.357.162.599.36.727.595.106.187.16.381.16.581v2.269c0 .39-.127.723-.38.998-.238.26-.547.39-.929.39-.425 0-.757-.133-.998-.399a1.103 1.103 0 0 1-.295-.778 1.115 1.115 0 0 1 1.153-1.149c.144 0 .251.013.323.038v-1.275c0-.203-.05-.37-.15-.502-.156-.206-.545-.365-1.167-.478zm.994 3.882c.14 0 .26-.051.358-.153a.504.504 0 0 0 .148-.363c0-.14-.05-.261-.15-.361a.487.487 0 0 0-.356-.15.51.51 0 0 0-.368.148.486.486 0 0 0-.153.363.5.5 0 0 0 .15.366c.1.1.224.15.37.15zm7.537.562h-1.12v-4.43c0-.528-.072-.898-.216-1.11-.247-.363-.667-.544-1.26-.544-.6 0-1.074.167-1.42.501-.229.216-.38.472-.456.769l-.646-.394c.146-.422.403-.784.768-1.087.425-.353 1.027-.53 1.805-.53.766 0 1.384.19 1.856.567.46.372.69.92.69 1.646V54zm3.53 0h-1.331c0-.028.002-.073.007-.134.004-.06.007-.107.007-.138a8.59 8.59 0 0 0-.136-1.383 86.61 86.61 0 0 1-.436-1.856 3.607 3.607 0 0 1-.066-.731c0-.81.292-1.455.877-1.936.525-.431 1.245-.647 2.16-.647.982 0 1.721.205 2.218.614.481.4.722.973.722 1.72V54h-1.125v-4.552c0-.459-.14-.825-.422-1.096-.303-.291-.773-.436-1.41-.436-.53 0-.968.154-1.318.461-.35.308-.525.765-.525 1.371 0 .288.019.52.056.694.028.122.067.308.117.558.022.138.044.314.066.53.006.11.012.193.019.253 0-.194.039-.461.117-.802.044-.206.119-.476.225-.81.094-.354.215-.635.365-.844.176-.25.446-.375.811-.375.62 0 1.025.217 1.22.651.074.175.112.34.112.497 0 .338-.092.606-.277.806-.25.266-.565.399-.947.399-.212 0-.414-.064-.604-.193-.235.572-.383 1.3-.446 2.185l-.056.703zm1.125-4.378c-.34 0-.51.17-.51.51 0 .138.05.256.15.355a.496.496 0 0 0 .71-.005.498.498 0 0 0-.35-.86zM173.594 54h-1.12v-4.43c0-.528-.072-.898-.216-1.11-.247-.363-.667-.544-1.261-.544-.6 0-1.074.167-1.42.501-.229.216-.38.472-.455.769l-.647-.394c.147-.422.403-.784.769-1.087.425-.353 1.026-.53 1.804-.53.766 0 1.385.19 1.857.567.46.372.689.92.689 1.646V54zm10.926 0h-1.087v-2.77h-4.369v-.91l4.369-5.414h1.087v5.414h1.27v.91h-1.27V54zm-1.087-3.68v-3.975l-3.164 3.975h3.164zm5.583 3.68h-1.547v-1.547h1.547V54zm0-4.997h-1.547v-1.547h1.547v1.547zm7.457.553a8.146 8.146 0 0 0-1.153-.131c-.172-.006-.322-.01-.45-.01-.372 0-.573.012-.604.033a.647.647 0 0 1-.014-.136c0-.415.135-.835.407-1.26.347-.541.914-.811 1.702-.811.219 0 .525.057.919.17.393.115.684.172.872.172.365 0 .615-.114.75-.342l.82.426a1.007 1.007 0 0 1-.272.37c-.197.185-.417.29-.66.315a3.423 3.423 0 0 1-.287.023c-.247 0-.59-.07-1.031-.21-.397-.123-.7-.184-.91-.184-.378 0-.673.096-.885.286a1.204 1.204 0 0 0-.333.506c.365 0 .795.038 1.289.113.575.09 1.04.217 1.397.38.356.162.598.36.726.595.107.187.16.381.16.581v2.269c0 .39-.127.723-.38.998-.238.26-.547.39-.928.39-.425 0-.758-.133-.999-.399a1.103 1.103 0 0 1-.295-.778 1.115 1.115 0 0 1 1.153-1.149c.144 0 .252.013.324.038v-1.275c0-.203-.05-.37-.15-.502-.157-.206-.546-.365-1.168-.478zm.994 3.882c.14 0 .26-.051.359-.153a.504.504 0 0 0 .147-.363c0-.14-.05-.261-.15-.361a.487.487 0 0 0-.356-.15.51.51 0 0 0-.368.148.486.486 0 0 0-.152.363.5.5 0 0 0 .15.366c.1.1.223.15.37.15zm7.538.562h-1.12v-4.43c0-.528-.072-.898-.216-1.11-.247-.363-.667-.544-1.261-.544-.6 0-1.074.167-1.42.501-.229.216-.38.472-.455.769l-.647-.394c.147-.422.403-.784.769-1.087.425-.353 1.026-.53 1.804-.53.766 0 1.385.19 1.857.567.459.372.689.92.689 1.646V54zm3.53 0h-1.332c0-.028.002-.073.007-.134.005-.06.007-.107.007-.138 0-.384-.045-.845-.136-1.383a86.605 86.605 0 0 1-.436-1.856 3.607 3.607 0 0 1-.065-.731c0-.81.292-1.455.876-1.936.525-.431 1.246-.647 2.161-.647.981 0 1.72.205 2.217.614.482.4.722.973.722 1.72V54h-1.125v-4.552c0-.459-.14-.825-.422-1.096-.303-.291-.773-.436-1.41-.436-.529 0-.968.154-1.318.461-.35.308-.525.765-.525 1.371 0 .288.019.52.056.694.029.122.068.308.118.558.022.138.043.314.065.53.007.11.013.193.02.253 0-.194.038-.461.116-.802.044-.206.119-.476.225-.81.094-.354.216-.635.366-.844.175-.25.445-.375.81-.375.62 0 1.026.217 1.22.651.075.175.112.34.112.497 0 .338-.092.606-.276.806-.25.266-.566.399-.947.399-.213 0-.414-.064-.605-.193-.234.572-.383 1.3-.445 2.185l-.057.703zm1.124-4.378c-.34 0-.51.17-.51.51 0 .138.05.256.15.355a.496.496 0 0 0 .71-.005.498.498 0 0 0-.35-.86zM218.753 54h-1.12v-4.43c0-.528-.072-.898-.216-1.11-.247-.363-.667-.544-1.26-.544-.6 0-1.074.167-1.421.501-.228.216-.38.472-.455.769l-.647-.394c.147-.422.403-.784.77-1.087.424-.353 1.026-.53 1.804-.53.765 0 1.384.19 1.856.567.46.372.69.92.69 1.646V54zm6.619-6.047c.128.138.233.311.314.52.119.297.178.602.178.915V54h-1.116v-.614c0-.581-.187-1.253-.562-2.016-.478-.965-.998-1.448-1.561-1.448-.369 0-.62.205-.755.614-.06.19-.089.431-.089.722 0 .169.013.353.038.553a1.24 1.24 0 0 1 .422-.08c.328 0 .604.114.83.34.224.227.337.504.337.832 0 .25-.083.49-.249.717-.175.247-.38.386-.618.418a4.013 4.013 0 0 1-.385.032c-.406 0-.753-.147-1.04-.44-.307-.307-.46-.899-.46-1.777 0-.956.153-1.631.46-2.025.334-.44.776-.66 1.326-.66.313 0 .642.082.99.248.402.19.784.601 1.143 1.232.04.072.098.182.173.329V49.57c0-.487-.084-.854-.253-1.101-.256-.369-.742-.553-1.458-.553-.643 0-1.148.113-1.514.34-.365.226-.6.481-.703.766l-.614-.478.403-.502c.22-.21.438-.37.657-.483.218-.112.493-.207.825-.286.29-.065.615-.098.975-.098.64 0 1.16.086 1.56.258.141-.097.249-.202.324-.314.11-.14.164-.328.164-.563l1.19.305c0 .36-.2.667-.604.923a1.822 1.822 0 0 1-.328.17zm-2.625 4.95a.508.508 0 0 0-.145-.363.479.479 0 0 0-.361-.152.457.457 0 0 0-.347.157.513.513 0 0 0 0 .717.463.463 0 0 0 .347.152c.14 0 .26-.05.358-.15.099-.1.148-.22.148-.36zm.15 2.053c-.281 0-.442.131-.483.394 0 .35.161.525.483.525.306 0 .46-.153.46-.46a.354.354 0 0 0-.005-.065c0-.263-.152-.394-.455-.394zm.122 2.166v-.867a.698.698 0 0 1-.202.028c-.253 0-.497-.105-.731-.314-.138-.122-.206-.308-.206-.558 0-.238.087-.448.262-.633.194-.197.45-.295.769-.295.531 0 .867.192 1.008.576.056.157.084.368.084.633v.783h.806v-1.87h.975v2.517h-2.765zm7.312-7.622c-.19.019-.3.028-.328.028-.325 0-.602-.108-.832-.326a1.073 1.073 0 0 1-.344-.813c0-.253.084-.495.253-.727.175-.246.384-.385.628-.417a4.14 4.14 0 0 1 .403-.032c.419 0 .748.137.989.412.228.263.342.586.342.97V54h-1.43a9.74 9.74 0 0 0-.201-.37 12.855 12.855 0 0 0-.37-.558 22.848 22.848 0 0 0-.39-.59 9.904 9.904 0 0 0-.88-1.055c-.098-.1-.238-.24-.423-.418l-.018-.018c-.272-.263-.455-.42-.549-.474a60.04 60.04 0 0 0-.244-.14l.315-.497c.156 0 .604.326 1.345.98.269.237.542.496.82.778.16.171.369.43.628.773l.286.389v-3.3zm-.853-1.11c0 .143.052.263.155.36a.522.522 0 0 0 .37.145.477.477 0 0 0 .35-.154.488.488 0 0 0 .152-.352.513.513 0 0 0-.15-.36.468.468 0 0 0-.352-.16.51.51 0 0 0-.373.15.5.5 0 0 0-.152.37zm8.77-.437c.129.138.233.311.315.52.118.297.178.602.178.915V54h-1.116v-.614c0-.581-.187-1.253-.563-2.016-.478-.965-.998-1.448-1.56-1.448-.37 0-.62.205-.755.614-.06.19-.09.431-.09.722 0 .169.013.353.038.553a1.24 1.24 0 0 1 .422-.08c.328 0 .605.114.83.34.225.227.337.504.337.832 0 .25-.082.49-.248.717-.175.247-.381.386-.619.418a4.012 4.012 0 0 1-.384.032c-.406 0-.753-.147-1.04-.44-.307-.307-.46-.899-.46-1.777 0-.956.153-1.631.46-2.025.334-.44.776-.66 1.326-.66.312 0 .642.082.989.248.403.19.784.601 1.144 1.232.04.072.098.182.173.329V49.57c0-.487-.084-.854-.253-1.101-.256-.369-.742-.553-1.458-.553-.644 0-1.148.113-1.514.34-.366.226-.6.481-.703.766l-.614-.478.403-.502c.219-.21.437-.37.656-.483.219-.112.494-.207.825-.286.29-.065.616-.098.975-.098.64 0 1.161.086 1.561.258.14-.097.249-.202.324-.314.109-.14.164-.328.164-.563l1.19.305c0 .36-.201.667-.604.923a1.822 1.822 0 0 1-.329.17zm-2.625 4.95a.508.508 0 0 0-.145-.363.479.479 0 0 0-.36-.152.457.457 0 0 0-.348.157.513.513 0 0 0 0 .717.463.463 0 0 0 .347.152c.14 0 .26-.05.359-.15.098-.1.147-.22.147-.36zm2.152 4.416v-.727a.528.528 0 0 1-.173.024c-.341 0-.607-.099-.797-.296a.955.955 0 0 1-.253-.684c0-.434.195-.731.585-.89a1.39 1.39 0 0 1 .549-.108c.378 0 .684.14.919.421.187.225.28.578.28 1.06v1.2h-1.11zm-.164-2.147c-.31 0-.464.164-.464.492 0 .322.165.483.497.483.328 0 .492-.174.492-.52-.038-.304-.213-.455-.525-.455zM245.163 54v-4.552c0-.462-.141-.828-.422-1.096-.307-.291-.777-.436-1.411-.436-.535 0-.967.148-1.299.445-.375.34-.562.803-.562 1.387 0 .307.033.604.098.891l.178.816c.138.61.207 1.106.207 1.49.228-.39.52-.837.876-1.34.11-.153.208-.29.295-.408-.259-.031-.509-.156-.75-.375-.165-.15-.248-.394-.248-.731 0-.163.027-.31.08-.441.2-.494.586-.74 1.157-.74.45 0 .774.152.97.459.16.26.24.531.24.815 0 .197-.134.51-.403.938-.222.322-.552.803-.99 1.444-.168.247-.409.618-.721 1.115-.078.132-.142.238-.192.319h-1.341c0-.028.002-.073.005-.134a2.87 2.87 0 0 0 .004-.138c0-.41-.039-.869-.117-1.378a82.106 82.106 0 0 1-.431-1.94 3.432 3.432 0 0 1-.066-.708c0-.8.296-1.429.886-1.885.56-.428 1.272-.642 2.138-.642.994 0 1.734.205 2.222.614.472.397.707.97.707 1.72V54h-1.11zm-2.344-3.886a.48.48 0 0 0 .161.359.517.517 0 0 0 .734-.727.507.507 0 0 0-.37-.148.51.51 0 0 0-.368.153.489.489 0 0 0-.157.363z" fill="#2A3052"/><path d="M19.154 19.127a.562.562 0 0 0 .238-.05.625.625 0 0 0 .19-1.005.562.562 0 0 0-.428-.188.623.623 0 0 0-.246.05.697.697 0 0 0-.205.132.602.602 0 0 0-.188.44.602.602 0 0 0 .185.44.658.658 0 0 0 .454.181zm-1.224-4.389a8.145 8.145 0 0 0-.947-.126 12.784 12.784 0 0 0-.905-.032c-.195 0-.356.017-.483.05a1.945 1.945 0 0 0-.378.143.88.88 0 0 1-.085-.322 4.697 4.697 0 0 1-.009-.217c0-.535.172-1.07.516-1.605.453-.711 1.185-1.066 2.197-1.066a2.6 2.6 0 0 1 .498.058c.195.04.412.092.65.158.22.063.41.11.575.144.164.033.296.05.398.05.348 0 .615-.16.803-.48l1.33.69a1.9 1.9 0 0 1-.19.396c-.077.12-.164.224-.261.314a1.788 1.788 0 0 1-.431.293 1.4 1.4 0 0 1-.478.134l-.208.02a1.61 1.61 0 0 1-.149.01c-.309 0-.738-.086-1.289-.258a5.669 5.669 0 0 0-.583-.155 2.22 2.22 0 0 0-.425-.05c-.387 0-.685.093-.896.281h-.006a4.867 4.867 0 0 0-.097.1.78.78 0 0 0-.09.117c.175.008.367.022.574.044.207.021.418.048.632.079 1.438.23 2.328.654 2.672 1.271v-.006c.145.266.217.532.217.797v2.684c0 .512-.17.955-.51 1.33-.328.355-.748.533-1.26.533-.574 0-1.023-.181-1.347-.545h.006a1.493 1.493 0 0 1-.41-1.066c0-.453.152-.83.457-1.131v.006a1.536 1.536 0 0 1 1.13-.457h.08a.56.56 0 0 1 .079.006v-1.248a.873.873 0 0 0-.036-.252.668.668 0 0 0-.1-.205c-.077-.098-.219-.188-.424-.27a4.417 4.417 0 0 0-.817-.217zM28.658 20h-1.77v-5.46c0-.583-.072-.977-.216-1.185-.25-.367-.686-.55-1.307-.55-.652 0-1.162.177-1.53.533-.233.223-.415.586-.544 1.09l-1.172-.715c.11-.328.25-.62.422-.873.172-.254.375-.479.61-.674.542-.453 1.3-.68 2.273-.68.957 0 1.734.24 2.332.721.601.48.902 1.188.902 2.121V20zm5.73-5.402c-.41 0-.615.205-.615.615a.56.56 0 0 0 .176.425.613.613 0 0 0 .44.167.548.548 0 0 0 .231-.05.663.663 0 0 0 .325-.325.529.529 0 0 0 .047-.217.634.634 0 0 0-.176-.44.608.608 0 0 0-.427-.175zM33.259 20H31.26c0-.137.003-.245.009-.325a3.03 3.03 0 0 0 .008-.22 7.32 7.32 0 0 0-.04-.738 14.24 14.24 0 0 0-.118-.856c-.02-.093-.047-.213-.082-.357a34.702 34.702 0 0 0-.12-.478c-.045-.173-.09-.359-.138-.556a12.778 12.778 0 0 1-.22-1.175 4.072 4.072 0 0 1-.038-.533c0-1.024.374-1.844 1.12-2.461.668-.543 1.566-.815 2.695-.815 1.207 0 2.127.26 2.76.78.625.515.937 1.25.937 2.203V20h-1.775v-5.602c0-.484-.145-.863-.434-1.136-.316-.305-.82-.457-1.511-.457-.563 0-1.034.166-1.413.498-.363.312-.545.795-.545 1.447 0 .324.022.584.065.78l.04.216.156-.527c.053-.176.112-.344.176-.504.064-.16.138-.309.22-.445.082-.137.18-.256.293-.358.113-.101.246-.18.398-.237.152-.057.33-.085.533-.085.254 0 .49.035.71.105.218.07.408.173.568.308.16.135.286.3.378.495.091.195.137.418.137.668 0 .453-.129.82-.386 1.102-.336.363-.762.544-1.278.544a1.332 1.332 0 0 1-.598-.135c-.109.31-.199.653-.269 1.032s-.121.797-.152 1.254L33.258 20zm12.586 0h-1.77v-5.46c0-.583-.072-.977-.217-1.185-.25-.367-.685-.55-1.306-.55-.653 0-1.162.177-1.53.533-.234.223-.416.586-.544 1.09l-1.172-.715c.11-.328.25-.62.422-.873.171-.254.375-.479.609-.674.543-.453 1.3-.68 2.273-.68.957 0 1.735.24 2.332.721.602.48.903 1.188.903 2.121V20zm4.945-1.518a.613.613 0 0 0-.176-.436.615.615 0 0 0-.193-.135.581.581 0 0 0-.24-.05.474.474 0 0 0-.22.053.631.631 0 0 0-.182.14.704.704 0 0 0-.126.2.584.584 0 0 0 0 .463.625.625 0 0 0 .308.325.59.59 0 0 0 .653-.126.59.59 0 0 0 .176-.434zm3.445-5.771a2.735 2.735 0 0 1 .235.457v-.006c.148.379.222.768.222 1.166V20h-1.757v-.95c0-.648-.215-1.407-.645-2.279-.527-1.062-1.076-1.593-1.646-1.593-.332 0-.559.193-.68.58v-.006a1.54 1.54 0 0 0-.073.346c-.014.129-.02.275-.02.44v.172c0 .064.003.128.01.19a1.841 1.841 0 0 1 .305-.023c.454 0 .835.156 1.143.469h-.006c.313.312.469.691.469 1.136 0 .168-.03.334-.088.498-.058.165-.14.323-.246.475-.246.34-.541.537-.885.592a5.222 5.222 0 0 1-.486.035 1.86 1.86 0 0 1-1.389-.586h.006c-.406-.406-.61-1.158-.61-2.256 0-.582.052-1.084.153-1.506.102-.422.246-.761.434-1.02.222-.284.48-.501.773-.65a2.12 2.12 0 0 1 .973-.222c.398 0 .82.105 1.265.316.442.215.856.617 1.243 1.207v-.826c0-.27-.023-.502-.068-.697a1.396 1.396 0 0 0-.196-.48v.005c-.258-.375-.772-.562-1.541-.562-.719 0-1.275.125-1.67.375-.39.234-.672.593-.844 1.078l-1.142-.897.638-.79a3.208 3.208 0 0 1 1.286-.795 6.89 6.89 0 0 1 .566-.167 5.358 5.358 0 0 1 1.201-.123c.367 0 .7.023 1 .068.298.045.568.114.81.208.087-.078.165-.16.235-.246.102-.137.152-.41.152-.82l1.852.468c0 .625-.274 1.11-.82 1.453l-.159.094zm-3 8.73c-.316 0-.51.14-.58.416.012.434.205.65.58.65.356 0 .534-.177.534-.532 0-.176-.041-.309-.123-.399-.083-.09-.22-.135-.41-.135zm-.088 2.772v-.99h-.011c-.36 0-.697-.143-1.014-.428a.927.927 0 0 1-.234-.352 1.3 1.3 0 0 1-.082-.474c0-.344.123-.645.369-.903.265-.277.623-.416 1.072-.416.727 0 1.193.276 1.4.827.036.101.063.22.083.357.019.137.029.293.029.469v.703h.51V20.79h1.593v3.422h-3.715zm8.133-7.377c.09.105.194.228.31.37.118.14.247.302.388.485v-2.988a18.322 18.322 0 0 1-.17.012 1.58 1.58 0 0 1-1.137-.445 1.5 1.5 0 0 1-.475-1.125c0-.356.116-.686.346-.99l-.006.005c.121-.176.256-.311.404-.407.149-.096.313-.157.493-.185.226-.023.394-.035.504-.035.562 0 1.007.188 1.335.563.31.355.463.787.463 1.295V20h-2.05a6.126 6.126 0 0 0-.123-.231 28.741 28.741 0 0 1-.176-.32 4.473 4.473 0 0 0-.135-.214 20.41 20.41 0 0 0-.293-.43 8.839 8.839 0 0 0-.182-.287c-.074-.114-.166-.25-.275-.41a12.7 12.7 0 0 0-.469-.592c-.18-.215-.361-.422-.545-.621l-.498-.493-.023-.029v.006c-.305-.293-.506-.467-.604-.522l-.48-.293.55-.878c.325 0 .944.404 1.858 1.212a19.09 19.09 0 0 1 .99.938zm-.082-3.686a.51.51 0 0 0 .05.226.637.637 0 0 0 .132.182c.055.052.12.093.196.123a.66.66 0 0 0 .237.044.48.48 0 0 0 .217-.053.716.716 0 0 0 .188-.135.63.63 0 0 0 .129-.184.484.484 0 0 0 .047-.203.534.534 0 0 0-.05-.225.693.693 0 0 0-.32-.331.468.468 0 0 0-.21-.053.604.604 0 0 0-.616.61z" fill="#000"/></g></svg>