<svg width="299" height="197" xmlns="http://www.w3.org/2000/svg"><g fill="none"><path fill="#F1F2F2" d="M.001 0H299v197H0z"/><path d="M1.987 1.98v193.04h295.026V1.98H1.987zM299 0v197H0V0h299z" fill="#C2C2C2"/><path d="M2.94 52.948v-1.223h293.571v1.223H2.941zm0 40.897v-1.223h293.571v1.223H2.941zm0 40.894v-1.224h293.571v1.224H2.941zm0 40.857v-1.223h293.571v1.223H2.941zM37.786 31.908h1.223v161.093h-1.223V31.908zm37.161 0h1.224v161.093h-1.224V31.908zm37.123 0h1.223v161.093h-1.223V31.908zm37.16 0h1.223v161.093h-1.223V31.908zm37.122 0h1.224v161.093h-1.224V31.908zm37.123 0h1.223v161.093h-1.223V31.908zM2.94 114.273v-1.224h293.57v1.224H2.941z" fill="#DFDEDE"/><path fill="#15212D" d="M2.94 161.64v-1.145h293.571v1.145z"/><path fill="#C2C2C2" d="M.82 30v-2h297v2z"/><path d="M136.208 107.217l-45.181 35.401c-.6.47-1.428.52-2.08.127l-50.5-30.485a1.835 1.835 0 1 1 1.897-3.142l49.416 29.83 45.476-35.633a1.835 1.835 0 0 1 2.442.16l47.906 48.854 59.589-84.985a1.835 1.835 0 1 1 3.004 2.107l-60.855 86.792a1.835 1.835 0 0 1-2.813.232l-48.301-49.258z" fill="#2A3052"/><ellipse fill="#FFF" opacity=".6" cx="186.256" cy="155.514" rx="8.219" ry="8.518"/><path d="M186.256 165.256c-5.225 0-9.443-4.371-9.443-9.742 0-5.37 4.218-9.741 9.443-9.741s9.443 4.37 9.443 9.741c0 5.371-4.218 9.742-9.443 9.742zm0-2.447c3.854 0 6.996-3.256 6.996-7.295 0-4.038-3.142-7.294-6.996-7.294-3.854 0-6.996 3.256-6.996 7.294 0 4.039 3.142 7.295 6.996 7.295z" fill="#E88024"/><path d="M134.14 179.8v2.91c0 .354-.082.643-.248.868-.256.281-.615.422-1.078.422h-3.647v-.834h.68v-1.313c0-.328.201-.734.605-1.219.346-.412.575-.762.684-1.05.078-.197.117-.42.117-.67 0-.29-.09-.534-.27-.729a.903.903 0 0 0-.696-.293h-.075c-.4 0-.63.092-.693.277.337 0 .603.147.797.44.14.216.21.432.21.647 0 .213-.06.411-.182.596a.908.908 0 0 1-.478.398 1.472 1.472 0 0 1-.497.098c-.247 0-.488-.09-.722-.271-.235-.182-.37-.39-.408-.624a2.996 2.996 0 0 1-.047-.417c0-.528.205-.977.614-1.345.347-.32.858-.478 1.533-.478.834 0 1.416.326 1.744.98.112.227.169.476.169.744 0 .638-.25 1.277-.75 1.918a6.372 6.372 0 0 0-.375.506 1.201 1.201 0 0 0-.155.605v1.2h1.58c.13 0 .256-.064.375-.193.071-.093.107-.234.107-.421v-2.743c0-.15-.014-.27-.042-.36a.812.812 0 0 0-.15-.483.52.52 0 0 0-.478-.272l-.136-.483a1.67 1.67 0 0 0 .577-.174c.053-.021.128-.059.225-.112.053-.038.122-.1.206-.188.21-.218.314-.489.314-.81h1.29a4.14 4.14 0 0 1-.085.534c-.082.24-.201.431-.359.572-.158.14-.338.242-.541.305a1.875 1.875 0 0 1-.272.08l-.286.055c.09 0 .212.06.365.179.104.062.186.14.249.234a.88.88 0 0 1 .192.464c.019.069.03.156.033.263l.005.187zm-5.221-.534c0 .134.045.25.136.347a.45.45 0 0 0 .342.145c.131 0 .245-.05.342-.148a.476.476 0 0 0 .145-.344.476.476 0 0 0-.145-.345.465.465 0 0 0-.342-.148.449.449 0 0 0-.342.146.49.49 0 0 0-.136.347zm4.181-5.55h1.013v1.954H133.1v-1.954zm7.205 8.995c0 .378-.133.71-.399.998-.24.26-.545.39-.914.39-.075 0-.158-.01-.248-.029a1.16 1.16 0 0 1-.764-.365 1.1 1.1 0 0 1-.305-.783c0-.325.115-.598.345-.818.23-.22.507-.33.832-.33.128 0 .242.012.342.037v-2.24c0-.526-.072-.896-.216-1.112-.24-.362-.66-.543-1.26-.543-.591 0-1.062.165-1.412.496a1.76 1.76 0 0 0-.478.774l-.614-.394a2.59 2.59 0 0 1 .792-1.125c.39-.328.974-.492 1.749-.492.778 0 1.403.19 1.875.567.45.363.675.911.675 1.645v3.324zm-1.453.726c.337 0 .506-.171.506-.515a.498.498 0 0 0-.506-.511.508.508 0 0 0-.366.15.485.485 0 0 0-.155.36c0 .142.051.263.153.364a.501.501 0 0 0 .368.153zm5.887-3.937c-.19.019-.3.028-.328.028-.325 0-.602-.108-.832-.326a1.073 1.073 0 0 1-.345-.813c0-.253.085-.495.254-.727.175-.246.384-.385.628-.417a4.26 4.26 0 0 1 .403-.032c.419 0 .748.137.989.412.228.263.342.586.342.97V184h-1.43a9.74 9.74 0 0 0-.201-.37 12.853 12.853 0 0 0-.37-.558 22.844 22.844 0 0 0-.39-.59 9.904 9.904 0 0 0-.88-1.055c-.098-.1-.238-.24-.423-.418l-.019-.018c-.271-.263-.454-.42-.548-.474a59.94 59.94 0 0 0-.244-.14l.314-.497c.157 0 .605.326 1.346.98.268.237.542.496.82.777.16.172.369.43.628.774l.286.389v-3.3zm-.853-1.11c0 .143.051.263.155.36a.522.522 0 0 0 .37.145.477.477 0 0 0 .35-.154.488.488 0 0 0 .151-.352.513.513 0 0 0-.15-.36.468.468 0 0 0-.351-.16.51.51 0 0 0-.373.15.5.5 0 0 0-.152.37zm5.428 1.166a8.146 8.146 0 0 0-1.153-.131c-.172-.006-.322-.01-.45-.01-.372 0-.574.012-.605.033a.647.647 0 0 1-.014-.136c0-.415.136-.835.408-1.26.347-.541.914-.811 1.702-.811.218 0 .525.057.918.17.394.115.685.172.872.172.366 0 .616-.114.75-.342l.82.426a1.007 1.007 0 0 1-.271.37c-.197.185-.418.29-.661.315-.14.015-.236.023-.286.023-.247 0-.59-.07-1.031-.21-.397-.123-.7-.184-.91-.184-.378 0-.673.096-.886.286a1.204 1.204 0 0 0-.333.506c.366 0 .796.038 1.29.113.574.09 1.04.217 1.396.38.357.162.599.36.727.595.106.187.16.381.16.581v2.269c0 .39-.127.723-.38.998-.238.26-.547.39-.929.39-.425 0-.757-.133-.998-.399a1.103 1.103 0 0 1-.295-.778 1.115 1.115 0 0 1 1.153-1.149c.144 0 .251.013.323.038v-1.275c0-.203-.05-.37-.15-.502-.156-.206-.545-.365-1.167-.478zm.994 3.881c.14 0 .26-.05.358-.152a.504.504 0 0 0 .148-.363c0-.14-.05-.261-.15-.361a.487.487 0 0 0-.356-.15.51.51 0 0 0-.368.148.486.486 0 0 0-.153.363c0 .144.05.266.15.365.1.1.224.15.37.15zm7.537.563h-1.12v-4.43c0-.528-.072-.898-.216-1.11-.247-.363-.667-.544-1.26-.544-.6 0-1.074.167-1.42.501-.229.216-.38.472-.456.769l-.646-.394c.146-.422.403-.784.768-1.087.425-.353 1.027-.53 1.805-.53.766 0 1.384.19 1.856.567.46.372.69.92.69 1.645V184zm3.53 0h-1.331c0-.028.002-.073.007-.134.004-.06.007-.107.007-.138a8.59 8.59 0 0 0-.136-1.383 86.606 86.606 0 0 1-.436-1.856 3.607 3.607 0 0 1-.066-.731c0-.81.292-1.455.877-1.936.525-.431 1.245-.647 2.16-.647.982 0 1.721.205 2.218.614.481.4.722.973.722 1.72V184h-1.125v-4.552c0-.459-.14-.825-.422-1.096-.303-.291-.773-.436-1.41-.436-.53 0-.968.154-1.318.461-.35.308-.525.765-.525 1.371 0 .288.019.52.056.694.028.122.067.308.117.558.022.138.044.314.066.53.006.11.012.193.019.253 0-.194.039-.461.117-.802.044-.206.119-.476.225-.81.094-.354.215-.635.365-.844.176-.25.446-.375.811-.375.62 0 1.025.217 1.22.651.074.175.112.34.112.497 0 .338-.092.606-.277.806-.25.266-.565.399-.947.399-.212 0-.414-.064-.604-.192-.235.571-.383 1.3-.446 2.184l-.056.703zm1.125-4.378c-.34 0-.51.17-.51.51 0 .138.05.256.15.355a.496.496 0 0 0 .71-.005.498.498 0 0 0-.35-.86zm9.094 4.378h-1.12v-4.43c0-.528-.072-.898-.216-1.11-.247-.363-.667-.544-1.261-.544-.6 0-1.074.167-1.42.501-.229.216-.38.472-.455.769l-.647-.394c.147-.422.403-.784.769-1.087.425-.353 1.026-.53 1.804-.53.766 0 1.385.19 1.857.567.46.372.689.92.689 1.645V184zm10.926 0h-1.087v-2.77h-4.369v-.91l4.369-5.414h1.087v5.414h1.27v.91h-1.27V184zm-1.087-3.68v-3.975l-3.164 3.975h3.164zm5.583 3.68h-1.547v-1.547h1.547V184zm0-4.997h-1.547v-1.547h1.547v1.547zm7.457.553a8.146 8.146 0 0 0-1.153-.131c-.172-.006-.322-.01-.45-.01-.372 0-.573.012-.604.033a.647.647 0 0 1-.014-.136c0-.415.135-.835.407-1.26.347-.541.914-.811 1.702-.811.219 0 .525.057.919.17.393.115.684.172.872.172.365 0 .615-.114.75-.342l.82.426a1.007 1.007 0 0 1-.272.37c-.197.185-.417.29-.66.315a3.423 3.423 0 0 1-.287.023c-.247 0-.59-.07-1.031-.21-.397-.123-.7-.184-.91-.184-.378 0-.673.096-.885.286a1.204 1.204 0 0 0-.333.506c.365 0 .795.038 1.289.113.575.09 1.04.217 1.397.38.356.162.598.36.726.595.107.187.16.381.16.581v2.269c0 .39-.127.723-.38.998-.238.26-.547.39-.928.39-.425 0-.758-.133-.999-.399a1.103 1.103 0 0 1-.295-.778 1.115 1.115 0 0 1 1.153-1.149c.144 0 .252.013.324.038v-1.275c0-.203-.05-.37-.15-.502-.157-.206-.546-.365-1.168-.478zm.994 3.881c.14 0 .26-.05.359-.152a.504.504 0 0 0 .147-.363c0-.14-.05-.261-.15-.361a.487.487 0 0 0-.356-.15.51.51 0 0 0-.368.148.486.486 0 0 0-.152.363c0 .144.05.266.15.365.1.1.223.15.37.15zm7.538.563h-1.12v-4.43c0-.528-.072-.898-.216-1.11-.247-.363-.667-.544-1.261-.544-.6 0-1.074.167-1.42.501-.229.216-.38.472-.455.769l-.647-.394c.147-.422.403-.784.769-1.087.425-.353 1.026-.53 1.804-.53.766 0 1.385.19 1.857.567.459.372.689.92.689 1.645V184zm3.53 0h-1.332c0-.028.002-.073.007-.134.005-.06.007-.107.007-.138 0-.384-.045-.845-.136-1.383a86.61 86.61 0 0 1-.436-1.856 3.607 3.607 0 0 1-.065-.731c0-.81.292-1.455.876-1.936.525-.431 1.246-.647 2.161-.647.981 0 1.72.205 2.217.614.482.4.722.973.722 1.72V184h-1.125v-4.552c0-.459-.14-.825-.422-1.096-.303-.291-.773-.436-1.41-.436-.529 0-.968.154-1.318.461-.35.308-.525.765-.525 1.371 0 .288.019.52.056.694.029.122.068.308.118.558.022.138.043.314.065.53.007.11.013.193.02.253 0-.194.038-.461.116-.802.044-.206.119-.476.225-.81.094-.354.216-.635.366-.844.175-.25.445-.375.81-.375.62 0 1.026.217 1.22.651.075.175.112.34.112.497 0 .338-.092.606-.276.806-.25.266-.566.399-.947.399-.213 0-.414-.064-.605-.192-.234.571-.383 1.3-.445 2.184l-.057.703zm1.124-4.378c-.34 0-.51.17-.51.51 0 .138.05.256.15.355a.496.496 0 0 0 .71-.005.498.498 0 0 0-.35-.86zm9.094 4.378h-1.12v-4.43c0-.528-.072-.898-.216-1.11-.247-.363-.667-.544-1.26-.544-.6 0-1.074.167-1.421.501-.228.216-.38.472-.455.769l-.647-.394c.147-.422.403-.784.77-1.087.424-.353 1.026-.53 1.804-.53.765 0 1.384.19 1.856.567.46.372.69.92.69 1.645V184zm13.74 0h-1.135v-4.43c0-.518-.055-.865-.164-1.04-.263-.41-.69-.614-1.285-.614-.606 0-1.08.165-1.425.496a1.783 1.783 0 0 0-.464.774l-.628-.394c.166-.437.433-.81.802-1.12.394-.331.975-.497 1.744-.497.784 0 1.41.19 1.88.567.45.363.674.911.674 1.645V184zm-7.206-10.266c.316 0 .582.112.797.336.216.223.324.494.324.813 0 .319-.107.59-.321.813a1.06 1.06 0 0 1-.8.335c-.325 0-.6-.11-.827-.33a1.095 1.095 0 0 1-.34-.818c0-.325.114-.598.34-.818.227-.22.502-.33.827-.33zm-.534 1.149c0 .344.178.515.535.515a.472.472 0 0 0 .353-.154.506.506 0 0 0 .148-.361c0-.14-.05-.263-.148-.366a.472.472 0 0 0-.353-.154.53.53 0 0 0-.38.147.493.493 0 0 0-.155.373zm.375 9.117v-4.552c0-.48-.126-.843-.38-1.087l-.234-.16a.177.177 0 0 0-.108-.028c-.031 0-.178.068-.44.204-.263.136-.496.204-.699.204-.181 0-.388-.065-.62-.197-.234-.13-.361-.196-.383-.196-.06 0-.15.039-.272.117a.856.856 0 0 0-.23.206c-.218.269-.328.681-.328 1.237 0 .307.033.604.099.891l.178.816c.137.61.206 1.106.206 1.49.128-.24.324-.523.586-.848l.586-.727a.788.788 0 0 1-.628-.225 1.123 1.123 0 0 1-.37-.853 1.1 1.1 0 0 1 .53-.975c.202-.131.432-.197.688-.197h.08c.169.025.336.049.502.07.137.044.273.17.407.376.16.256.24.526.24.81 0 .229-.146.557-.436.985-.05.072-.316.414-.797 1.026-.088.11-.194.255-.32.436l-.36.516a4.791 4.791 0 0 0-.394.661h-1.34c0-.028.001-.073.004-.134.003-.06.005-.107.005-.138 0-.41-.04-.869-.117-1.378a82.11 82.11 0 0 1-.431-1.94 3.432 3.432 0 0 1-.066-.708c0-.363.075-.724.225-1.083.162-.385.38-.68.651-.886.413-.31.799-.49 1.158-.544.078-.012.234.084.467.29.233.207.42.31.56.31.153 0 .351-.1.595-.3.244-.2.399-.3.464-.3.185 0 .39.053.614.16.203.103.385.245.544.426.25.284.424.556.52.816.104.278.155.584.155.918V184h-1.11zm-2.344-3.694c0 .14.053.261.16.361.106.1.228.15.365.15a.51.51 0 0 0 .368-.147.486.486 0 0 0 .153-.364c0-.337-.174-.506-.52-.506a.52.52 0 0 0-.369.148.474.474 0 0 0-.157.358zm2.414-9.67h1.013v1.955h-1.013v-1.955zm13.955 7.317c.128.138.233.311.314.52.119.297.178.602.178.914V184h-1.115v-.614c0-.581-.188-1.253-.563-2.016-.478-.965-.998-1.448-1.56-1.448-.37 0-.621.205-.755.614-.06.19-.09.431-.09.722 0 .169.013.353.038.553a1.24 1.24 0 0 1 .422-.08c.328 0 .605.114.83.34.225.227.337.504.337.832 0 .25-.083.49-.248.717-.175.247-.382.386-.62.417a4.012 4.012 0 0 1-.383.033c-.407 0-.754-.147-1.041-.44-.306-.307-.46-.899-.46-1.777 0-.956.154-1.631.46-2.025.334-.44.776-.66 1.326-.66.313 0 .643.082.99.248.403.19.784.601 1.143 1.232.04.072.099.182.174.329v-1.407c0-.487-.085-.854-.253-1.101-.257-.369-.743-.553-1.458-.553-.644 0-1.149.113-1.514.34-.366.226-.6.481-.703.766l-.614-.478.403-.502c.218-.21.437-.37.656-.483.219-.112.494-.207.825-.286.29-.065.615-.098.975-.098.64 0 1.16.086 1.56.258.141-.097.25-.202.324-.314.11-.14.164-.328.164-.563l1.19.305c0 .36-.2.667-.604.923a1.822 1.822 0 0 1-.328.17zm-2.625 4.95a.508.508 0 0 0-.145-.363.479.479 0 0 0-.361-.153.457.457 0 0 0-.347.158.513.513 0 0 0 0 .717.463.463 0 0 0 .347.152c.14 0 .26-.05.358-.15.099-.1.148-.22.148-.36zm2.152 4.416v-.727a.528.528 0 0 1-.174.024c-.34 0-.606-.099-.797-.296a.955.955 0 0 1-.253-.684c0-.434.196-.731.586-.89a1.39 1.39 0 0 1 .549-.109c.378 0 .684.141.918.422.188.225.282.578.282 1.06v1.2h-1.111zm-.164-2.147c-.31 0-.464.164-.464.492 0 .322.165.483.496.483.329 0 .493-.174.493-.52-.038-.304-.213-.455-.525-.455zm7.551-1.172v-4.552c0-.462-.14-.828-.422-1.096-.306-.291-.776-.436-1.41-.436-.535 0-.968.148-1.3.445-.374.34-.562.803-.562 1.387 0 .307.033.604.099.891l.178.816c.138.61.206 1.106.206 1.49.228-.39.52-.837.877-1.34.11-.153.208-.29.295-.408-.26-.031-.51-.156-.75-.375-.166-.15-.248-.394-.248-.731 0-.163.026-.31.08-.441.2-.494.585-.74 1.157-.74.45 0 .774.152.97.459.16.26.24.531.24.815 0 .197-.135.51-.404.938l-.989 1.444c-.168.247-.409.618-.721 1.115l-.193.319h-1.34c0-.028.001-.073.004-.134.004-.06.005-.107.005-.138 0-.41-.039-.869-.117-1.378a82.111 82.111 0 0 1-.431-1.94 3.432 3.432 0 0 1-.066-.708c0-.8.295-1.429.886-1.885.56-.428 1.272-.642 2.137-.642.994 0 1.735.205 2.222.614.472.397.708.97.708 1.72V184h-1.11zm-2.344-3.886c0 .138.054.257.162.359a.517.517 0 0 0 .734-.727.507.507 0 0 0-.37-.148.513.513 0 0 0-.369.153.489.489 0 0 0-.157.363zM215.035 52.445c-.484-.09-.965-.144-1.441-.164a15.732 15.732 0 0 0-.563-.011c-.465 0-.717.013-.756.04a.809.809 0 0 1-.017-.17c0-.519.17-1.044.51-1.576.433-.675 1.142-1.013 2.127-1.013.273 0 .656.071 1.148.214.492.142.855.214 1.09.214.457 0 .77-.143.937-.428l1.026.533c-.055.148-.168.303-.34.463-.246.23-.522.361-.826.392a3.96 3.96 0 0 1-.358.03c-.308 0-.738-.088-1.289-.264-.496-.152-.875-.228-1.137-.228-.472 0-.841.119-1.107.357-.172.145-.31.355-.416.633.457 0 .994.047 1.611.14.72.114 1.301.272 1.746.475.446.203.749.451.909.744.132.235.199.477.199.727v2.836c0 .488-.158.904-.475 1.248-.297.324-.683.486-1.16.486-.531 0-.947-.166-1.248-.498a1.379 1.379 0 0 1-.37-.973c0-.414.138-.756.411-1.028.274-.271.617-.407 1.031-.407.18 0 .315.015.405.047V53.67c0-.254-.063-.463-.188-.627-.195-.258-.681-.457-1.459-.598zm1.242 4.852a.6.6 0 0 0 .449-.19.63.63 0 0 0 .184-.455.615.615 0 0 0-.187-.45.608.608 0 0 0-.446-.188.637.637 0 0 0-.46.184.608.608 0 0 0-.19.454c0 .18.062.332.187.457s.28.188.463.188zM225.7 58h-1.4v-5.537c0-.66-.09-1.123-.27-1.389-.308-.453-.834-.68-1.576-.68-.75 0-1.342.21-1.775.627a1.96 1.96 0 0 0-.569.961l-.808-.492c.183-.527.504-.98.96-1.36.532-.44 1.284-.661 2.257-.661.957 0 1.73.236 2.32.709.574.465.861 1.15.861 2.056V58zm4.412 0h-1.664c0-.035.003-.09.01-.167.005-.076.008-.134.008-.173 0-.48-.057-1.056-.17-1.728-.129-.512-.31-1.286-.545-2.32a4.51 4.51 0 0 1-.082-.915c0-1.011.365-1.818 1.096-2.42.656-.539 1.556-.808 2.7-.808 1.227 0 2.151.256 2.772.767.602.5.903 1.217.903 2.15V58h-1.407v-5.69c0-.574-.175-1.03-.527-1.37-.379-.364-.967-.545-1.764-.545-.66 0-1.209.192-1.646.577-.438.384-.656.956-.656 1.714 0 .359.023.648.07.867.035.152.084.384.146.697.028.172.055.393.083.662.007.137.015.242.023.317 0-.243.049-.577.146-1.002.055-.258.149-.596.282-1.014.117-.442.27-.793.457-1.055.218-.312.556-.469 1.013-.469.774 0 1.282.272 1.524.815.094.219.14.426.14.621 0 .422-.115.758-.345 1.008a1.556 1.556 0 0 1-1.184.498c-.265 0-.517-.08-.756-.24-.293.714-.478 1.625-.556 2.73l-.07.879zm1.407-5.473c-.426 0-.64.213-.64.639 0 .172.063.32.188.442a.62.62 0 0 0 .888-.005.6.6 0 0 0 .19-.437c0-.18-.06-.331-.181-.454a.6.6 0 0 0-.445-.185zM242.885 58h-1.4v-5.537c0-.66-.09-1.123-.27-1.389-.309-.453-.834-.68-1.576-.68-.75 0-1.342.21-1.776.627a1.96 1.96 0 0 0-.568.961l-.809-.492a3.06 3.06 0 0 1 .961-1.36c.532-.44 1.283-.661 2.256-.661.957 0 1.73.236 2.32.709.575.465.862 1.15.862 2.056V58zm8.273-7.559c.16.172.291.39.393.65.148.372.222.753.222 1.143V58h-1.394v-.768c0-.726-.234-1.566-.703-2.52-.598-1.206-1.248-1.81-1.951-1.81-.461 0-.776.256-.944.768a3.092 3.092 0 0 0-.111.902c0 .211.016.442.047.692.183-.067.36-.1.527-.1.41 0 .756.142 1.037.425.282.283.422.63.422 1.04 0 .312-.103.611-.31.896-.22.309-.477.483-.774.522a5.016 5.016 0 0 1-.48.04c-.508 0-.942-.183-1.301-.55-.383-.383-.574-1.123-.574-2.22 0-1.196.191-2.04.574-2.532.418-.55.97-.826 1.658-.826.39 0 .803.103 1.236.31.504.239.98.752 1.43 1.542.05.09.123.226.217.41v-1.758c0-.61-.106-1.068-.316-1.377-.32-.461-.928-.691-1.823-.691-.804 0-1.435.141-1.892.424-.457.284-.75.603-.88.958l-.767-.597.504-.627c.274-.262.547-.463.82-.604.274-.14.618-.26 1.032-.357.363-.082.77-.123 1.218-.123.801 0 1.452.107 1.952.322.175-.121.31-.252.404-.393.137-.175.205-.41.205-.703l1.488.381c0 .45-.252.834-.756 1.154-.14.09-.277.16-.41.211zm-3.281 6.188a.635.635 0 0 0-.182-.454.598.598 0 0 0-.45-.19.57.57 0 0 0-.434.196.641.641 0 0 0 0 .896c.12.127.265.19.433.19a.605.605 0 0 0 .448-.187.62.62 0 0 0 .185-.451zm2.69 5.52v-.909a.66.66 0 0 1-.217.03c-.426 0-.758-.124-.996-.37-.211-.222-.317-.507-.317-.855 0-.543.244-.914.733-1.113.214-.09.443-.135.685-.135.473 0 .856.176 1.149.527.234.281.351.723.351 1.324v1.5h-1.389zm-.206-2.684c-.386 0-.58.205-.58.615 0 .402.207.604.621.604.41 0 .616-.217.616-.65-.047-.38-.266-.57-.657-.57zm9.44-1.465v-5.69c0-.578-.176-1.035-.528-1.37-.382-.364-.97-.545-1.763-.545-.668 0-1.21.185-1.623.556-.469.426-.703 1.004-.703 1.735 0 .382.04.753.123 1.113l.222 1.02c.172.761.258 1.382.258 1.863a23.28 23.28 0 0 1 1.096-1.676c.137-.192.26-.361.369-.51-.324-.039-.637-.195-.938-.469-.207-.187-.31-.492-.31-.914 0-.203.033-.386.1-.55.25-.618.732-.926 1.447-.926.562 0 .967.191 1.213.574.199.324.298.664.298 1.02 0 .246-.167.636-.503 1.171-.278.403-.69 1.004-1.237 1.805-.21.309-.511.773-.902 1.395l-.24.398h-1.676c0-.035.002-.09.006-.167a3.67 3.67 0 0 0 .006-.173c0-.512-.05-1.086-.147-1.722a102.64 102.64 0 0 1-.539-2.426 4.29 4.29 0 0 1-.082-.885c0-1 .37-1.785 1.107-2.356.7-.535 1.59-.802 2.672-.802 1.243 0 2.168.256 2.778.767.59.496.884 1.213.884 2.15V58h-1.388zm-2.93-4.857c0 .171.067.32.202.448a.646.646 0 0 0 .911.003.606.606 0 0 0 .194-.451.634.634 0 0 0-.65-.645.64.64 0 0 0-.46.19.61.61 0 0 0-.197.455zm7.705-.768c-.25.023-.4.035-.451.035-.395 0-.729-.139-1.002-.416a1.383 1.383 0 0 1-.41-1.008c0-.316.1-.617.299-.902.215-.313.472-.488.773-.527.238-.028.402-.041.492-.041.54 0 .96.17 1.26.51.281.324.422.73.422 1.218v1.922l-.158 1.242.21-.703c.028-.094.155-.428.382-1.002.418-1.074.857-1.906 1.318-2.496.215-.273.37-.443.463-.51.152-.113.36-.17.62-.17.583 0 1.056.203 1.419.61.344.386.516.877.516 1.47V58h-1.383v-6.533c0-.457-.205-.68-.616-.668-.21.008-.535.453-.972 1.336a17.78 17.78 0 0 0-.733 1.67 20.53 20.53 0 0 0-.925 3.334c-.094.484-.141.771-.141.861h-1.383v-5.625zm-1.078-1.389c0 .164.064.31.19.44a.596.596 0 0 0 .437.193c.176 0 .33-.062.46-.187a.595.595 0 0 0 .196-.446.624.624 0 0 0-.19-.463.639.639 0 0 0-.466-.187.586.586 0 0 0-.442.196.643.643 0 0 0-.185.454zm4.805-4.066c-.063.012-.15.017-.264.017-.453 0-.789-.146-1.008-.439-.14-.18-.21-.414-.21-.703 0-.594.292-.98.878-1.16a1.49 1.49 0 0 1 .451-.07c.477 0 .834.18 1.073.539.21.308.316.615.316.92 0 .14-.02.28-.059.421-.093.336-.251.6-.474.791.605-.148 1.056-.4 1.353-.756.418-.496.627-1.02.627-1.57h1.33c0 .899-.445 1.676-1.336 2.332-.937.707-2.128 1.06-3.574 1.06v-.614c.2 0 .414-.088.645-.264.168-.168.252-.336.252-.504zm-.252-1.693c-.367 0-.551.187-.551.562.05.371.256.557.615.557.34 0 .51-.196.51-.586 0-.356-.191-.533-.574-.533zM278.346 58h-1.4v-5.537c0-.66-.09-1.123-.27-1.389-.309-.453-.834-.68-1.576-.68-.75 0-1.342.21-1.776.627a1.96 1.96 0 0 0-.568.961l-.809-.492a3.06 3.06 0 0 1 .961-1.36c.531-.44 1.283-.661 2.256-.661.957 0 1.73.236 2.32.709.575.465.862 1.15.862 2.056V58zm7.066-1.06a.535.535 0 0 0 .451-.217c.094-.121.14-.287.14-.498V49.62h1.407v6.82c0 .422-.11.778-.328 1.067-.25.328-.682.492-1.295.492h-5.232v-1.06h.562V55.52c0-.523.112-.939.334-1.248.262-.359.584-.57.967-.632-.574 0-1.04-.171-1.397-.513-.358-.342-.537-.798-.537-1.368 0-.719.272-1.29.815-1.711.492-.375 1.111-.563 1.857-.563.496 0 .899.125 1.207.375.328.274.492.655.492 1.143 0 .535-.189.924-.568 1.166a1.56 1.56 0 0 1-.844.234c-.687 0-1.12-.25-1.3-.75a1.374 1.374 0 0 1-.094-.492c0-.152.014-.262.04-.328-.124.016-.235.12-.333.31a1.066 1.066 0 0 0-.123.463c0 .825.486 1.303 1.459 1.436.32.047.637.07.949.07h.615v.955h-.65c-.45 0-.79.102-1.02.305-.289.262-.433.627-.433 1.096v1.47h2.86zm-2.637-5.936c0 .176.066.326.197.451a.638.638 0 0 0 .908-.003.605.605 0 0 0 .196-.448c0-.422-.217-.633-.65-.633a.64.64 0 0 0-.457.185.597.597 0 0 0-.194.448zM21.514 94.621v5.643c.109-.032.246-.047.41-.047.414 0 .76.137 1.037.41.277.273.416.615.416 1.025 0 .391-.123.72-.37.985a1.421 1.421 0 0 1-.948.45 1.279 1.279 0 0 1-.323.042c-.457 0-.85-.18-1.177-.54-.286-.304-.428-.704-.428-1.2V94.62h1.383zm1.078 7.031a.596.596 0 0 0-.196-.457.67.67 0 0 0-.472-.181.608.608 0 0 0-.445.187.615.615 0 0 0-.188.451.63.63 0 0 0 .185.454.6.6 0 0 0 .448.19c.183 0 .34-.062.472-.187a.608.608 0 0 0 .196-.457zm4.178-4.207a10.24 10.24 0 0 0-1.442-.164 15.732 15.732 0 0 0-.562-.011c-.465 0-.717.013-.756.04a.809.809 0 0 1-.018-.17c0-.519.17-1.044.51-1.576.434-.675 1.143-1.013 2.127-1.013.273 0 .656.071 1.148.214.493.142.856.214 1.09.214.457 0 .77-.143.938-.428l1.025.533c-.055.148-.168.303-.34.463-.246.23-.521.361-.826.392a3.96 3.96 0 0 1-.357.03c-.309 0-.739-.088-1.29-.264-.496-.152-.874-.228-1.136-.228-.473 0-.842.119-1.108.357-.171.145-.31.355-.416.633.457 0 .995.047 1.612.14.719.114 1.3.272 1.746.475.445.203.748.451.908.744.133.235.2.477.2.727v2.836c0 .488-.159.904-.475 1.248-.297.324-.684.486-1.16.486-.532 0-.948-.166-1.249-.498a1.379 1.379 0 0 1-.369-.973c0-.414.137-.756.41-1.028.274-.271.618-.407 1.032-.407.18 0 .314.015.404.047V98.67c0-.254-.062-.463-.187-.627-.196-.258-.682-.457-1.46-.598zm1.242 4.852a.6.6 0 0 0 .448-.19.63.63 0 0 0 .185-.455.615.615 0 0 0-.188-.45.608.608 0 0 0-.445-.188.637.637 0 0 0-.46.184.608.608 0 0 0-.19.454c0 .18.062.332.187.457s.28.188.463.188zm1.916-8.994l-.803-.153c-.79-.148-1.707-.222-2.754-.222-1.031 0-2.13.097-3.299.293l.223-.756c.527-1.285 1.553-1.928 3.076-1.928 1.371 0 2.395.541 3.07 1.623.274.438.436.819.487 1.143zm-3.71-2.069c-.714 0-1.218.266-1.511.797l-.117.281c.71-.035 1.338-.052 1.88-.052.481 0 1.135.068 1.964.205-.07-.102-.141-.205-.211-.31-.504-.614-1.172-.92-2.004-.92zm2.274-4.084h1.266v2.444h-1.266V87.15zm9.281 7.471h1.383v6.791c0 .625-.103 1.033-.31 1.225-.223.285-.535.427-.938.427-.16 0-.318-.107-.474-.322-.188-.285-.377-.57-.569-.855a4.029 4.029 0 0 0-.65-.785c-.48-.43-.965-.674-1.453-.733v1.5c0 .524-.184.879-.551 1.067-.254.128-.57.193-.95.193-.222 0-.402-.022-.538-.065-.48-.136-.83-.449-1.05-.937a1.997 1.997 0 0 1-.17-.844c0-.84.296-1.418.886-1.734.363-.2.685-.299.966-.299v-1.875l-.216.023a1.807 1.807 0 0 1-.211.012A1.4 1.4 0 0 1 31.91 97a1.362 1.362 0 0 1-.419-1.014c0-.316.104-.619.31-.908.223-.308.485-.482.786-.521.238-.028.402-.041.492-.041.527 0 .945.17 1.254.51.285.32.428.726.428 1.218v3.129c.48.023 1 .225 1.558.604.043.03.274.238.692.62.394.364.597.544.61.54.1-.032.151-.164.151-.399v-6.117zm-5.478 1.365c0 .164.064.31.193.44a.606.606 0 0 0 .44.193.665.665 0 0 0 .466-.187.588.588 0 0 0 .202-.446.615.615 0 0 0-.197-.463.659.659 0 0 0-.471-.187.595.595 0 0 0-.446.196.638.638 0 0 0-.187.454zm.228 5.098a.804.804 0 0 0-.005.1v.093c0 .266.033.461.1.586.097.203.224.305.38.305.238 0 .357-.127.357-.38v-1.49a.351.351 0 0 0-.14-.023.638.638 0 0 0-.387.141c-.203.234-.305.457-.305.668zM47.277 103v-5.69c0-.601-.158-1.054-.474-1.359-.063-.043-.16-.11-.293-.199a.222.222 0 0 0-.135-.035c-.04 0-.223.085-.55.255-.329.17-.62.255-.874.255-.226 0-.485-.082-.776-.247-.291-.164-.45-.246-.478-.246-.074 0-.187.05-.34.147a1.07 1.07 0 0 0-.287.258c-.273.336-.41.851-.41 1.547 0 .382.041.753.123 1.113l.223 1.02c.172.761.258 1.382.258 1.863.16-.301.404-.655.732-1.06l.733-.91a.985.985 0 0 1-.786-.28 1.404 1.404 0 0 1-.463-1.067c0-.523.221-.93.663-1.219.253-.164.54-.246.86-.246h.1c.211.032.42.06.627.088.172.055.342.211.51.469.2.32.3.658.3 1.014 0 .285-.183.695-.546 1.23-.062.09-.394.518-.996 1.283a9.78 9.78 0 0 0-.398.545l-.452.645a5.99 5.99 0 0 0-.492.826H41.98c0-.035.002-.09.006-.167a3.67 3.67 0 0 0 .006-.173c0-.512-.049-1.086-.146-1.722a99.854 99.854 0 0 1-.54-2.426 4.29 4.29 0 0 1-.081-.885c0-.453.093-.904.28-1.354.204-.48.475-.85.815-1.107.516-.387.998-.613 1.448-.68.097-.015.292.106.583.364.29.257.524.386.7.386.191 0 .44-.125.744-.375.305-.25.498-.375.58-.375.23 0 .486.067.768.2.253.128.48.306.68.533.312.355.529.695.65 1.02.129.347.193.73.193 1.148V103h-1.389zm-2.93-4.617c0 .176.067.326.2.451a.648.648 0 0 0 .457.187c.18 0 .333-.061.46-.184a.608.608 0 0 0 .19-.454c0-.422-.216-.633-.65-.633a.65.65 0 0 0-.46.185.592.592 0 0 0-.196.448zm1.618-6.434c-.063.012-.15.018-.264.018-.453 0-.789-.147-1.008-.44-.14-.18-.21-.414-.21-.703 0-.594.292-.98.878-1.16a1.49 1.49 0 0 1 .452-.07c.476 0 .833.18 1.072.539.21.308.316.615.316.92 0 .14-.02.281-.058.422-.094.336-.252.6-.475.79.605-.148 1.057-.4 1.353-.755.418-.496.627-1.02.627-1.57h1.33c0 .898-.445 1.675-1.335 2.331-.938.708-2.13 1.061-3.575 1.061v-.615c.2 0 .414-.088.645-.264.168-.168.252-.336.252-.504zm-.252-1.693c-.367 0-.55.187-.55.562.05.371.255.557.614.557.34 0 .51-.195.51-.586 0-.355-.191-.533-.574-.533zm6.305 7.119a3.08 3.08 0 0 1-.428.035 1.41 1.41 0 0 1-1.023-.416 1.358 1.358 0 0 1-.424-1.008c0-.316.103-.619.31-.908.219-.308.483-.482.791-.521.242-.028.408-.041.498-.041.531 0 .95.17 1.254.51.285.324.428.73.428 1.218v5.045c.199-.355.486-.64.861-.855.328-.18.608-.305.838-.375.176-.043.422-.106.738-.188.391-.101.586-.262.586-.48v-4.77h1.424v4.928a.537.537 0 0 1-.293.51c-.11.058-.264.12-.463.187.266.074.49.21.674.404.27.293.404.598.404.914 0 .43-.12.784-.363 1.061-.254.29-.594.455-1.02.498-.539 0-.949-.166-1.23-.498-.2-.234-.32-.52-.363-.855 0-.504.07-.79.21-.856-.394 0-.818.254-1.27.762-.305.34-.55.781-.733 1.324h-1.406v-5.625zm-1.055-1.389c0 .164.063.31.19.44a.596.596 0 0 0 .437.193.644.644 0 0 0 .46-.187.595.595 0 0 0 .196-.446.624.624 0 0 0-.19-.463.639.639 0 0 0-.466-.187.586.586 0 0 0-.443.196.643.643 0 0 0-.184.454zm5.76 5.028c-.446 0-.668.228-.668.685 0 .414.216.621.65.621.18 0 .333-.06.46-.178a.582.582 0 0 0 .19-.443c0-.457-.21-.685-.632-.685z" fill="#2A3052"/><path d="M19.154 21.127a.562.562 0 0 0 .238-.05.625.625 0 0 0 .19-1.005.562.562 0 0 0-.428-.188.623.623 0 0 0-.246.05.697.697 0 0 0-.205.132.602.602 0 0 0-.188.44.602.602 0 0 0 .185.44.658.658 0 0 0 .454.181zm-1.224-4.389a8.145 8.145 0 0 0-.947-.126 12.784 12.784 0 0 0-.905-.032c-.195 0-.356.017-.483.05a1.945 1.945 0 0 0-.378.143.88.88 0 0 1-.085-.322 4.697 4.697 0 0 1-.009-.217c0-.535.172-1.07.516-1.605.453-.711 1.185-1.066 2.197-1.066a2.6 2.6 0 0 1 .498.058c.195.04.412.092.65.158.22.063.41.11.575.144.164.033.296.05.398.05.348 0 .615-.16.803-.48l1.33.69a1.9 1.9 0 0 1-.19.396c-.077.12-.164.224-.261.314a1.788 1.788 0 0 1-.431.293 1.4 1.4 0 0 1-.478.134l-.208.02a1.61 1.61 0 0 1-.149.01c-.309 0-.738-.086-1.289-.258a5.669 5.669 0 0 0-.583-.155 2.22 2.22 0 0 0-.425-.05c-.387 0-.685.093-.896.281h-.006a4.867 4.867 0 0 0-.097.1.78.78 0 0 0-.09.117c.175.008.367.022.574.044.207.021.418.048.632.079 1.438.23 2.328.654 2.672 1.271v-.006c.145.266.217.532.217.797v2.684c0 .512-.17.955-.51 1.33-.328.355-.748.533-1.26.533-.574 0-1.023-.181-1.347-.545h.006a1.493 1.493 0 0 1-.41-1.066c0-.453.152-.83.457-1.131v.006a1.536 1.536 0 0 1 1.13-.457h.08a.56.56 0 0 1 .079.006v-1.248a.873.873 0 0 0-.036-.252.668.668 0 0 0-.1-.205c-.077-.098-.219-.188-.424-.27a4.417 4.417 0 0 0-.817-.217zM28.658 22h-1.77v-5.46c0-.583-.072-.977-.216-1.185-.25-.367-.686-.55-1.307-.55-.652 0-1.162.177-1.53.533-.233.223-.415.586-.544 1.09l-1.172-.715c.11-.328.25-.62.422-.873.172-.254.375-.479.61-.674.542-.453 1.3-.68 2.273-.68.957 0 1.734.24 2.332.721.601.48.902 1.188.902 2.121V22zm5.73-5.402c-.41 0-.615.205-.615.615a.56.56 0 0 0 .176.425.613.613 0 0 0 .44.167.548.548 0 0 0 .231-.05.663.663 0 0 0 .325-.325.529.529 0 0 0 .047-.217.634.634 0 0 0-.176-.44.608.608 0 0 0-.427-.175zM33.259 22H31.26c0-.137.003-.245.009-.325a3.03 3.03 0 0 0 .008-.22 7.32 7.32 0 0 0-.04-.738 14.24 14.24 0 0 0-.118-.856c-.02-.093-.047-.213-.082-.357a34.702 34.702 0 0 0-.12-.478c-.045-.173-.09-.359-.138-.556a12.778 12.778 0 0 1-.22-1.175 4.072 4.072 0 0 1-.038-.533c0-1.024.374-1.844 1.12-2.461.668-.543 1.566-.815 2.695-.815 1.207 0 2.127.26 2.76.78.625.515.937 1.25.937 2.203V22h-1.775v-5.602c0-.484-.145-.863-.434-1.136-.316-.305-.82-.457-1.511-.457-.563 0-1.034.166-1.413.498-.363.312-.545.795-.545 1.447 0 .324.022.584.065.78l.04.216.156-.527c.053-.176.112-.344.176-.504.064-.16.138-.309.22-.445.082-.137.18-.256.293-.358.113-.101.246-.18.398-.237.152-.057.33-.085.533-.085.254 0 .49.035.71.105.218.07.408.173.568.308.16.135.286.3.378.495.091.195.137.418.137.668 0 .453-.129.82-.386 1.102-.336.363-.762.544-1.278.544a1.332 1.332 0 0 1-.598-.135c-.109.31-.199.653-.269 1.032s-.121.797-.152 1.254L33.258 22zm12.586 0h-1.77v-5.46c0-.583-.072-.977-.217-1.185-.25-.367-.685-.55-1.306-.55-.653 0-1.162.177-1.53.533-.234.223-.416.586-.544 1.09l-1.172-.715c.11-.328.25-.62.422-.873.171-.254.375-.479.609-.674.543-.453 1.3-.68 2.273-.68.957 0 1.735.24 2.332.721.602.48.903 1.188.903 2.121V22zm4.974-4.594a.5.5 0 0 0 .062.246.7.7 0 0 0 .357.322c.076.032.15.047.22.047a.634.634 0 0 0 .442-.175.596.596 0 0 0 .185-.44c0-.398-.209-.597-.627-.597a.602.602 0 0 0-.243.05.709.709 0 0 0-.202.131.643.643 0 0 0-.14.19.51.51 0 0 0-.054.226zM53.378 22v-5.602c0-.246-.032-.464-.099-.656a1.212 1.212 0 0 0-.281-.469l-.064-.046-.176-.118h-.006c.004 0-.031.02-.106.062-.074.04-.18.095-.316.161a2.54 2.54 0 0 1-.483.196 1.625 1.625 0 0 1-.443.068c-.258 0-.54-.088-.85-.264-.23-.129-.345-.197-.345-.205a1.007 1.007 0 0 0-.2.105.88.88 0 0 0-.216.194c-.223.281-.334.722-.334 1.324 0 .176.009.348.026.516a3.7 3.7 0 0 0 .085.492l.211.967v-.006c.047.21.088.408.123.592.035.183.063.359.082.527l.161-.22c.053-.072.113-.147.18-.225l.439-.545a1.008 1.008 0 0 1-.246-.112 1.685 1.685 0 0 1-.223-.17h.006a1.526 1.526 0 0 1-.51-1.171c0-.575.24-1.02.72-1.336.278-.18.59-.27.938-.27h.13l.585.082c.238.07.451.254.639.55.215.349.322.706.322 1.073 0 .324-.188.756-.563 1.295-.03.043-.125.166-.28.37-.157.202-.378.486-.663.849a14.787 14.787 0 0 0-.37.51l-.427.609c-.16.23-.33.521-.51.873H48.37v-.067l.003-.12.003-.124v-.082a.821.821 0 0 0 .006-.087v-.065c0-.23-.01-.477-.032-.741a12.087 12.087 0 0 0-.103-.853l.006.018a49.27 49.27 0 0 1-.223-.955 73.445 73.445 0 0 1-.287-1.348 3.983 3.983 0 0 1-.088-.879c0-.457.096-.912.287-1.365.211-.488.49-.87.838-1.143.262-.195.515-.35.76-.465a2.39 2.39 0 0 1 .711-.22l-.006.006c.168-.028.414.103.738.392h-.005c.242.207.416.31.521.31.133 0 .32-.1.563-.304.328-.27.558-.404.691-.404.125 0 .256.017.393.05a2.087 2.087 0 0 1 .805.404c.12.092.232.198.337.32a3.423 3.423 0 0 1 .65 1.025c.133.351.2.74.2 1.166V22H53.38zm.34-17.086h1.553v2.818H53.72V4.914zm.23 5.402c0 .2.054.352.163.457.11.106.274.159.493.159a.522.522 0 0 0 .231-.053.634.634 0 0 0 .366-.563.62.62 0 0 0-.047-.237.636.636 0 0 0-.316-.346.517.517 0 0 0-.234-.055.655.655 0 0 0-.466.178.603.603 0 0 0-.19.46zM62.976 22h-1.782v-5.46c0-.56-.054-.93-.164-1.114v.006c-.27-.418-.713-.627-1.33-.627-.652 0-1.162.175-1.53.527-.226.215-.419.58-.58 1.096l-1.136-.715c.125-.332.278-.631.46-.897.182-.265.386-.496.612-.691.254-.21.566-.37.935-.478.37-.107.794-.16 1.274-.16.477 0 .915.062 1.316.187.4.125.749.303 1.046.533.285.238.503.534.653.888.15.353.226.764.226 1.233V22zM54.592 8.729c.437 0 .806.156 1.107.468.293.301.44.672.44 1.114 0 .437-.145.81-.434 1.119a1.515 1.515 0 0 1-1.113.457c-.223 0-.428-.036-.615-.109a1.518 1.518 0 0 1-.516-.337 1.516 1.516 0 0 1-.469-1.13c0-.446.156-.82.469-1.125a1.56 1.56 0 0 1 1.13-.457z" fill="#000"/></g></svg>