<svg width="299" height="197" xmlns="http://www.w3.org/2000/svg"><g fill="none" fill-rule="evenodd"><path fill="#F1F2F2" d="M299 0v197H0V0z"/><path d="M297.02 1.96H1.98v193.08h295.04V1.96zM299 197H0V0h299v197z" fill="#C2C2C2" fill-rule="nonzero"/><path d="M1.954 52.056v-1.227h294.553v1.227H1.954zm0 41.448v-1.228h294.553v1.228H1.954zm0 41.443v-1.227h294.553v1.227H1.954zm0 41.406v-1.227h294.553v1.227H1.954zM36.916 30.74h1.227V194h-1.227V30.739zm37.285 0h1.228V194H74.2V30.739zm37.246 0h1.227V194h-1.228V30.739zm37.284 0h1.227V194h-1.227V30.739zm37.246 0h1.227V194h-1.227V30.739zm37.25 0h1.226V194h-1.227V30.739zM1.953 114.205v-1.227h294.553v1.228H1.954z" fill="#DFDEDE" fill-rule="nonzero"/><path fill="#C2C2C2" fill-rule="nonzero" d="M2.826 31.142v-2.456h293v2.456z"/><path d="M148.249 32.887h1.215v6.111h-1.215v-6.111zm0 12.222h1.215v6.111h-1.215v-6.111zm0 12.222h1.215v6.111h-1.215v-6.111zm0 12.222h1.215v6.111h-1.215v-6.111zm0 12.222h1.215v6.111h-1.215v-6.111zm0 12.222h1.215v6.111h-1.215v-6.111zm0 12.222h1.215v6.111h-1.215v-6.111zm0 12.222h1.215v6.111h-1.215v-6.111zm0 12.222h1.215v6.111h-1.215v-6.111zm0 12.222h1.215v6.111h-1.215v-6.111zm0 12.222h1.215v6.111h-1.215v-6.111zm0 12.222h1.215v6.111h-1.215v-6.111zm0 12.222h1.215v6.111h-1.215v-6.111zm0 12.222h1.215v1.862h-1.215v-1.862z" fill="#E98024" fill-rule="nonzero"/><path fill="#2A3052" fill-rule="nonzero" d="M258.86 32.887h1.214v160.748h-1.214z"/><path fill="#E98024" fill-rule="nonzero" d="M3 74.302v-1.216h3.056v1.216zm9.13 0v-1.216h6.07v1.216h-6.07zm12.14 0v-1.216h6.07v1.216h-6.07zm12.14 0v-1.216h6.07v1.216h-6.07zm12.14 0v-1.216h6.07v1.216h-6.07zm12.14 0v-1.216h6.07v1.216h-6.07zm12.14 0v-1.216h6.07v1.216h-6.07zm12.14 0v-1.216h6.07v1.216h-6.07zm12.14 0v-1.216h6.07v1.216h-6.07zm12.14 0v-1.216h6.07v1.216h-6.07zm12.14 0v-1.216h6.07v1.216h-6.07zm12.14 0v-1.216h6.07v1.216h-6.07zm12.14 0v-1.216h6.07v1.216h-6.07zm12.14 0v-1.216h6.07v1.216h-6.07zm12.14 0v-1.216h6.07v1.216h-6.07zm12.14 0v-1.216h6.07v1.216h-6.07zm12.14 0v-1.216h6.07v1.216h-6.07zm12.14 0v-1.216h6.07v1.216h-6.07zm12.14 0v-1.216h6.07v1.216h-6.07zm12.14 0v-1.216h6.07v1.216h-6.07zm12.14 0v-1.216h6.07v1.216h-6.07zm12.14 0v-1.216H261v1.216h-6.07zm12.14 0v-1.216h6.07v1.216h-6.07zm12.14 0v-1.216h6.07v1.216h-6.07zm12.216 0v-1.216h3.055v1.216z"/><path fill="#2A3052" fill-rule="nonzero" d="M3 155.88v-1.215h291.481v1.215z"/><path d="M80.382 114.864a1.822 1.822 0 0 1-1.677-.442L36.957 75.208a1.822 1.822 0 0 1 2.494-2.656l41.03 38.539 38.87-9.444a1.822 1.822 0 0 1 2.022.883l27.885 50.025 35.28-29.648c.356-.298.81-.45 1.274-.424l36.299 2.006 36.415-21.962a1.822 1.822 0 0 1 1.882 3.12L223.512 127.9c-.313.19-.676.28-1.042.26l-36.14-1.998-36.417 30.603a1.822 1.822 0 0 1-2.763-.508l-28.285-50.741-38.483 9.35z" fill="#2A3052" fill-rule="nonzero"/><circle fill="#FFF" opacity=".6" cx="259.467" cy="105.476" r="8.163"/><path d="M259.467 114.83a9.354 9.354 0 1 1 0-18.708 9.354 9.354 0 0 1 0 18.707zm0-2.382a6.973 6.973 0 1 0 0-13.945 6.973 6.973 0 0 0 0 13.945z" fill="#E88024" fill-rule="nonzero"/><circle fill="#FFF" opacity=".6" cx="38.203" cy="73.721" r="8.163"/><path d="M38.204 83.073a9.354 9.354 0 1 1 0-18.707 9.354 9.354 0 0 1 0 18.707zm0-2.38a6.973 6.973 0 1 0 0-13.946 6.973 6.973 0 0 0 0 13.945z" fill="#E88024" fill-rule="nonzero"/><circle fill="#FFF" opacity=".6" cx="148.215" cy="154.19" r="8.163"/><path d="M148.215 163.544a9.354 9.354 0 1 1 0-18.707 9.354 9.354 0 0 1 0 18.708zm0-2.38a6.973 6.973 0 1 0 0-13.946 6.973 6.973 0 0 0 0 13.946z" fill="#E88024" fill-rule="nonzero"/><path d="M259.819 151.09H221.14l-5.5-8.225-5.5 8.23h-38.674a4.815 4.815 0 0 0-4.815 4.814v24.87a4.815 4.815 0 0 0 4.815 4.815h88.352a4.815 4.815 0 0 0 4.814-4.814v-24.874a4.815 4.815 0 0 0-4.814-4.815l.001-.001z" fill="#E88024"/><path d="M27.526 21.127a.562.562 0 0 0 .238-.05.625.625 0 0 0 .19-1.005.562.562 0 0 0-.428-.188.623.623 0 0 0-.246.05.697.697 0 0 0-.205.132.602.602 0 0 0-.188.44.602.602 0 0 0 .185.44.658.658 0 0 0 .454.181zm-1.224-4.389a8.145 8.145 0 0 0-.947-.126 12.784 12.784 0 0 0-.905-.032c-.195 0-.356.017-.483.05a1.92 1.92 0 0 0-.378.143.88.88 0 0 1-.085-.322 4.697 4.697 0 0 1-.009-.217c0-.535.172-1.07.516-1.605.453-.711 1.185-1.066 2.197-1.066a2.6 2.6 0 0 1 .498.058c.195.04.412.092.65.158.22.063.41.11.575.144.164.033.297.05.398.05.348 0 .615-.16.803-.48l1.33.69a1.9 1.9 0 0 1-.19.396c-.077.12-.164.224-.261.314a1.788 1.788 0 0 1-.43.293 1.4 1.4 0 0 1-.478.134l-.208.02c-.05.006-.1.009-.15.01-.308 0-.738-.086-1.289-.258a5.669 5.669 0 0 0-.583-.155 2.22 2.22 0 0 0-.425-.05c-.386 0-.685.093-.896.281h-.006a4.867 4.867 0 0 0-.097.1.78.78 0 0 0-.09.117c.175.008.367.022.574.044.207.021.418.048.632.079 1.438.23 2.329.654 2.672 1.271v-.006c.145.266.217.532.217.797v2.684c0 .512-.17.955-.51 1.33-.328.355-.748.533-1.26.533-.574 0-1.023-.181-1.347-.545h.006a1.493 1.493 0 0 1-.41-1.066c0-.453.152-.83.457-1.131v.006a1.536 1.536 0 0 1 1.13-.457h.08a.56.56 0 0 1 .079.006v-1.248a.873.873 0 0 0-.035-.252.668.668 0 0 0-.1-.205c-.078-.098-.22-.188-.425-.27a4.417 4.417 0 0 0-.817-.217zm4.347-4.488l-1.183-.217c-.742-.137-1.604-.205-2.584-.205-1.012 0-2.13.11-3.352.328.14-1.058.569-1.87 1.283-2.437.508-.395 1.198-.592 2.069-.592.73 0 1.33.15 1.799.451v-.955h1.752v3.129l.216.498zm-3.902-2.332c-.516 0-.916.107-1.201.322a1.31 1.31 0 0 0-.255.255c-.08.104-.153.218-.22.343l1.093-.032c.338-.01.66-.015.964-.015a10.43 10.43 0 0 1 1.875.164 2.808 2.808 0 0 0-1.005-.782 3.01 3.01 0 0 0-1.25-.255h-.001zm6.469 3.715v5.297a.69.69 0 0 1 .085-.006h.085c.222 0 .43.04.624.123.193.082.362.193.507.334a1.534 1.534 0 0 1 .462 1.125 1.53 1.53 0 0 1-.513 1.172 1.7 1.7 0 0 1-.562.328 2.05 2.05 0 0 1-.7.117 1.61 1.61 0 0 1-.642-.135 1.745 1.745 0 0 1-.556-.38 1.91 1.91 0 0 1-.542-1.354v-6.621h1.752zm.826 6.873a.587.587 0 0 0-.053-.25.634.634 0 0 0-.354-.33.695.695 0 0 0-.255-.047.606.606 0 0 0-.434.185.634.634 0 0 0-.003.885.651.651 0 0 0 .197.134c.074.033.154.05.24.05a.659.659 0 0 0 .609-.39.56.56 0 0 0 .053-.237zm2.473-3.973c0 .078.012.148.038.208.025.06.07.12.132.179v-.012a.52.52 0 0 0 .375.17c.332 0 .498-.182.498-.545 0-.347-.166-.521-.498-.521a.473.473 0 0 0-.185.04.682.682 0 0 0-.308.282.4.4 0 0 0-.052.2v-.001zm4.418-.586a.459.459 0 0 0-.287-.193v.04c0 .81-.313 1.61-.938 2.403-.117.149-.21.27-.278.364-.051.068-.1.138-.144.21a1.184 1.184 0 0 0-.152.604v1.195h1.646a.261.261 0 0 0 .135-.038.697.697 0 0 0 .135-.108c.05-.074.076-.194.076-.358v-3.24c0-.152-.016-.285-.047-.398 0-.18-.049-.34-.146-.48v-.001zm-1.881-.158a7.563 7.563 0 0 0-.062-.527c-.025-.164-.075-.285-.15-.364a1.438 1.438 0 0 1-.767.229 1.58 1.58 0 0 1-.448-.062 1.381 1.381 0 0 1-.396-.184.2.2 0 0 0-.04.04 3.79 3.79 0 0 0-.123.182h.011c.258 0 .485.05.68.15.195.1.355.245.48.436.086.137.153.279.2.425.106.34.092.706-.041 1.037-.07.171-.176.326-.311.452-.135.124-.294.22-.466.284a1.619 1.619 0 0 1-1.11.003 1.642 1.642 0 0 1-.818-.665 1.551 1.551 0 0 1-.202-.493 4.801 4.801 0 0 1-.061-.4c-.013-.12-.02-.24-.02-.361 0-.645.189-1.203.568-1.676.355-.45.798-.72 1.33-.815.246.395.472.592.68.592.242 0 .536-.197.884-.592a2.36 2.36 0 0 1 1.342.856c.082.113.152.232.21.357a2.67 2.67 0 0 0 .555-.16c.17-.07.324-.178.448-.314.207-.211.31-.553.31-1.026h1.98c-.01.29-.052.598-.122.926-.114.324-.274.578-.48.762-.208.183-.446.32-.716.41l-.105.035c.113.086.207.18.281.281.11.16.186.331.229.513.043.182.068.413.076.694v3.44c0 .473-.111.857-.334 1.154-.36.395-.844.592-1.453.592h-4.535v-1.43h.802v-1.33c0-.226.069-.467.205-.72.137-.254.334-.536.592-.844.399-.469.657-.86.774-1.172a1.9 1.9 0 0 0 .123-.715zm2.443-4.6c.25 0 .4-.043.451-.128-.332-.102-.498-.334-.498-.698a.64.64 0 0 1 .03-.205.678.678 0 0 1 .28-.39.915.915 0 0 1 .499-.125c.422 0 .709.175.861.527a1.3 1.3 0 0 1 .111.516c0 .195-.027.37-.082.524a1.402 1.402 0 0 1-.234.419c-.32.371-.75.557-1.289.557-.276 0-.55-.056-.803-.165a1.943 1.943 0 0 1-.205-.108 25.04 25.04 0 0 1-.44-.26 2.588 2.588 0 0 0-.333-.176.646.646 0 0 0-.24-.059c-.153 0-.35.086-.592.258a2.175 2.175 0 0 0-.557.515c-.406-.101-.719-.263-.937-.486-.329-.328-.493-.834-.493-1.518 0-.835.446-1.365 1.336-1.587a4.82 4.82 0 0 1 .683-.12c.24-.026.5-.039.782-.039.235.001.47.008.706.02.108.006.217.01.325.009h.176c.438 0 .774-.146 1.008-.439a.963.963 0 0 0 .138-.313c.037-.135.065-.306.085-.513l1.072.399c0 .57-.201 1.011-.604 1.324h.006c-.414.34-1.039.51-1.875.51-.144 0-.383-.006-.715-.018a7.64 7.64 0 0 1-.278-.006 7.806 7.806 0 0 0-.278-.006c-.79 0-1.184.317-1.184.95 0 .097.009.186.027.266.017.08.04.155.067.226.047-.047.103-.092.167-.135a2.05 2.05 0 0 1 .231-.13c.149-.065.282-.117.399-.154.117-.037.219-.056.305-.056.273 0 .617.145 1.03.434v-.006c.376.258.663.386.862.386zm3.856 3.961c0 .145.06.278.181.399h-.006c.163.18.424.234.645.132a.722.722 0 0 0 .2-.132.625.625 0 0 0 .137-.185.484.484 0 0 0 .05-.214.63.63 0 0 0-.182-.44.634.634 0 0 0-.44-.176.49.49 0 0 0-.21.051.707.707 0 0 0-.19.132.606.606 0 0 0-.185.433zm.796 1.553a3.52 3.52 0 0 1-.205.012c-.425 0-.793-.154-1.101-.463a1.508 1.508 0 0 1-.457-1.107c0-.176.027-.344.082-.504a2.04 2.04 0 0 1 .24-.475c.121-.176.256-.312.404-.41.149-.098.309-.16.48-.188a5.57 5.57 0 0 1 .493-.035c.578 0 1.031.186 1.36.557.304.351.456.785.456 1.3v1.26c.2-.52.404-.975.613-1.368.209-.392.423-.73.641-1.01h.006c.215-.278.377-.454.487-.528.187-.133.425-.2.714-.2.618 0 1.12.216 1.506.645.363.41.545.924.545 1.541V22H50.66v-6.398c0-.278-.119-.415-.357-.41-.055.003-.147.11-.276.322-.129.21-.279.482-.45.814-.133.271-.26.545-.385.82-.119.266-.22.512-.301.739-.09.23-.176.473-.258.73-.082.255-.16.517-.232.784-.072.268-.14.537-.205.809-.063.265-.12.532-.173.8a8.655 8.655 0 0 0-.09.574c-.019.138-.03.277-.033.416h-1.752v-5.297h-.001zm12.082-.105c-.41 0-.615.205-.615.615a.56.56 0 0 0 .176.425.613.613 0 0 0 .44.167.54.54 0 0 0 .23-.05.663.663 0 0 0 .326-.325.529.529 0 0 0 .047-.217.634.634 0 0 0-.176-.44.608.608 0 0 0-.428-.175zM57.1 22h-2c0-.137.003-.245.008-.325a3.03 3.03 0 0 0 .01-.22c0-.226-.015-.473-.042-.738a13.437 13.437 0 0 0-.117-.856c-.02-.093-.047-.213-.082-.357a34.7 34.7 0 0 0-.12-.478 28.459 28.459 0 0 1-.138-.556c-.092-.388-.165-.78-.22-1.175a4.072 4.072 0 0 1-.038-.533c0-1.024.373-1.844 1.12-2.461.667-.543 1.566-.815 2.695-.815 1.207 0 2.127.26 2.76.78.625.515.937 1.25.937 2.203V22h-1.775v-5.602c0-.484-.145-.863-.434-1.136-.316-.305-.82-.457-1.512-.457-.562 0-1.033.166-1.412.498-.363.312-.545.795-.545 1.447 0 .324.022.584.065.78l.04.216.156-.527c.053-.176.111-.344.176-.504.064-.16.138-.309.22-.445.082-.137.18-.256.293-.358.113-.101.246-.18.398-.237.152-.057.33-.085.533-.085.254 0 .49.035.71.105.218.07.407.173.567.308.16.135.287.3.378.495.092.195.138.418.138.668 0 .453-.129.82-.387 1.102-.336.363-.761.544-1.277.544a1.332 1.332 0 0 1-.598-.135c-.109.31-.199.653-.27 1.032-.07.379-.12.797-.151 1.254L57.099 22h.001zm12.48-.094a2.044 2.044 0 0 1-.322.07A2.616 2.616 0 0 1 68.9 22h-4.605l.012-3.064-.012-1.202c0-.34.043-.605.129-.797.099-.198.227-.38.38-.54.075-.088.16-.165.256-.227a1.848 1.848 0 0 1 1.01-.293c.575 0 1.02.176 1.336.527.133.149.234.313.302.492.068.18.103.38.103.598 0 .445-.157.82-.47 1.125a1.616 1.616 0 0 1-.53.346 2.675 2.675 0 0 1-.764.164v1.424h2.273c.22 0 .387-.065.504-.194v.006c.082-.094.123-.345.123-.756v-3.07c0-.258-.024-.485-.073-.683a1.648 1.648 0 0 0-.196-.489 1.224 1.224 0 0 0-.583-.419c-.256-.095-.572-.143-.947-.143-.714 0-1.28.132-1.699.398-.426.27-.68.633-.761 1.09l-1.166-.902c.308-.621.789-1.098 1.44-1.43.61-.316 1.347-.475 2.21-.475 1.73 0 2.834.541 3.31 1.623.157.364.235.77.235 1.22v4.03c0 .141-.014.273-.041.396a1.326 1.326 0 0 1-.135.354c-.234.407-.555.672-.96.797h-.001zm-3.357-5.11a.646.646 0 0 0-.618.437.78.78 0 0 0-.05.279c0 .168.066.318.199.45v-.01c.187.193.474.25.72.143a.668.668 0 0 0 .346-.334.587.587 0 0 0 .053-.25.766.766 0 0 0-.047-.263.675.675 0 0 0-.146-.234c-.14-.145-.293-.217-.457-.217v-.001zm9.316 3.686a.557.557 0 0 0-.047-.216.712.712 0 0 0-.316-.352.441.441 0 0 0-.217-.059.581.581 0 0 0-.24.05.651.651 0 0 0-.197.135.634.634 0 0 0 0 .879.61.61 0 0 0 .437.179.46.46 0 0 0 .217-.056.637.637 0 0 0 .184-.146.829.829 0 0 0 .13-.2.51.51 0 0 0 .05-.214h-.001zm-.92-1.857v.152c0 .047.002.09.006.13.055-.012.11-.02.164-.024.055-.004.11-.006.164-.006.223 0 .43.038.621.114.192.076.364.195.516.355h-.006c.309.308.463.687.463 1.136 0 .348-.111.676-.334.985-.176.242-.38.405-.615.49a2.242 2.242 0 0 1-.762.125c-.531 0-.992-.195-1.383-.586h.006c-.414-.414-.621-1.166-.621-2.256 0-1.203.195-2.047.586-2.531h-.006c.445-.578 1.033-.867 1.764-.867.394 0 .814.105 1.26.316.222.11.435.266.638.469.203.203.395.447.574.732v-.82c0-.543-.078-.935-.234-1.178v.006c-.266-.375-.781-.562-1.547-.562-.344 0-.66.035-.946.105-.287.07-.536.168-.747.293a1.964 1.964 0 0 0-.413.378c-.147.17-.298.384-.454.642l-1.102-.862.627-.773c.137-.125.278-.241.425-.349.146-.107.292-.2.436-.278a4.746 4.746 0 0 1 1.014-.352 5.3 5.3 0 0 1 1.19-.123c1.73 0 2.833.541 3.31 1.623.156.36.234.766.234 1.22V22h-1.793v-.95c0-.335-.052-.697-.158-1.086a6.866 6.866 0 0 0-.457-1.198c-.258-.508-.525-.9-.803-1.175-.277-.276-.554-.413-.832-.413-.324 0-.54.172-.65.515-.09.278-.135.588-.135.932z" fill="#000" fill-rule="nonzero"/><path d="M89.578 174.23v-4.552c0-.481-.126-.844-.38-1.087l-.234-.16a.177.177 0 0 0-.107-.028c-.032 0-.179.068-.441.204-.263.136-.495.204-.699.204-.18 0-.388-.066-.62-.197-.233-.131-.36-.197-.383-.197-.059 0-.15.04-.272.117a.856.856 0 0 0-.23.207c-.218.268-.327.68-.327 1.237 0 .306.032.603.098.89l.178.816c.138.61.206 1.107.206 1.49.129-.24.324-.522.586-.847l.586-.727a.788.788 0 0 1-.628-.225 1.123 1.123 0 0 1-.37-.853 1.1 1.1 0 0 1 .53-.975c.203-.131.432-.197.689-.197h.08c.168.025.335.048.5.07.138.044.274.169.409.375.16.257.239.527.239.811 0 .228-.146.556-.436.985-.05.071-.316.414-.797 1.026a7.97 7.97 0 0 0-.319.436l-.36.516c-.149.21-.28.43-.394.66H85.34c0-.027.001-.072.005-.133a2.87 2.87 0 0 0 .004-.138c0-.41-.039-.869-.117-1.378a82.114 82.114 0 0 1-.431-1.941 3.432 3.432 0 0 1-.066-.708c0-.362.075-.723.225-1.083.163-.384.38-.68.652-.886.412-.309.798-.49 1.158-.543.078-.013.233.084.466.29.233.207.42.31.56.31.153 0 .352-.1.595-.3.244-.2.399-.3.465-.3.184 0 .389.053.614.16.203.102.384.244.543.426.25.284.424.556.52.815.104.278.155.585.155.919v4.49h-1.11v.001zm-2.343-3.694c0 .14.053.26.159.36.106.1.228.15.366.15a.51.51 0 0 0 .52-.51c0-.338-.173-.506-.52-.506a.52.52 0 0 0-.368.147.474.474 0 0 0-.157.359zm4.42-4.866c.434-.328.652-.77.652-1.326h1.115c0 .606-.298 1.154-.895 1.645-.64.531-1.331.797-2.072.797-.694 0-1.219-.088-1.575-.263-.478-.215-.717-.573-.717-1.073 0-.316.108-.586.323-.811a1.24 1.24 0 0 1 .849-.323c.337 0 .612.09.825.271.247.213.37.483.37.811 0 .313-.09.555-.272.727a2.02 2.02 0 0 0 1.397-.455zm-2.831-.23c0 .141.05.267.15.378.1.11.22.166.36.166a.526.526 0 0 0 .383-.16.52.52 0 0 0-.007-.756.53.53 0 0 0-.375-.162.474.474 0 0 0-.359.164.53.53 0 0 0-.152.37zm.923-2.671a1.19 1.19 0 0 1-.169.01c-.29 0-.506-.095-.646-.282a.708.708 0 0 1-.136-.45c0-.381.187-.63.562-.745.097-.029.194-.043.29-.043.307 0 .537.114.69.343.134.2.201.396.201.59 0 .09-.012.181-.037.272a.985.985 0 0 1-.305.506c.388-.093.677-.254.867-.483.27-.318.403-.654.403-1.007h.854c0 .575-.286 1.073-.858 1.495-.6.453-1.364.68-2.292.68v-.394c.128 0 .265-.056.412-.169.11-.11.164-.217.164-.323zm-.164-1.088c-.234 0-.351.12-.351.361.03.238.162.356.393.356.219 0 .328-.125.328-.375 0-.228-.123-.342-.37-.342zm5.602 8.049c-.191.018-.3.028-.328.028-.325 0-.603-.109-.832-.326a1.073 1.073 0 0 1-.345-.813c0-.253.084-.496.253-.727.175-.247.384-.386.628-.417.194-.022.328-.033.403-.033.42 0 .749.138.99.413.228.262.342.586.342.97v5.405h-1.43a9.739 9.739 0 0 0-.202-.37c-.118-.19-.242-.375-.37-.558a22.845 22.845 0 0 0-.389-.591 9.904 9.904 0 0 0-1.303-1.472l-.019-.019c-.272-.262-.455-.42-.548-.473-.12-.069-.2-.116-.244-.14l.314-.498c.156 0 .605.327 1.345.98.269.238.542.497.82.778.16.172.37.43.629.774l.286.389v-3.3zm-.853-1.111c0 .143.051.264.154.36.1.096.232.148.37.146.133 0 .26-.057.35-.155a.488.488 0 0 0 .152-.351.513.513 0 0 0-.15-.361.468.468 0 0 0-.351-.16.51.51 0 0 0-.373.15.5.5 0 0 0-.152.37v.001zm5.01-1.092v4.514c.088-.025.197-.038.329-.038.33 0 .607.11.83.328.221.219.332.492.332.82 0 .313-.098.576-.295.788a1.13 1.13 0 0 1-.76.36.97.97 0 0 1-.257.034c-.366 0-.68-.144-.943-.431-.228-.244-.342-.565-.342-.961v-5.414h1.106zm.863 5.625a.477.477 0 0 0-.157-.366.536.536 0 0 0-.377-.145.487.487 0 0 0-.357.15c-.1.1-.15.22-.15.36 0 .141.05.262.148.364a.48.48 0 0 0 .359.152c.146 0 .272-.05.377-.15a.486.486 0 0 0 .157-.365zm6.183-.211c0 .378-.133.71-.399.998-.24.26-.545.39-.914.39-.075 0-.158-.01-.248-.03a1.16 1.16 0 0 1-.764-.365 1.1 1.1 0 0 1-.305-.782c0-.325.115-.598.345-.818.23-.22.507-.33.832-.33.128 0 .242.012.342.037V169.8c0-.525-.072-.895-.216-1.111-.24-.362-.66-.544-1.26-.544-.591 0-1.062.166-1.412.497a1.76 1.76 0 0 0-.478.774l-.614-.394c.156-.438.42-.813.792-1.125.391-.328.974-.492 1.749-.492.778 0 1.403.189 1.875.567.45.362.675.91.675 1.645v3.324zm-1.453.726c.337 0 .506-.172.506-.515a.498.498 0 0 0-.506-.511.508.508 0 0 0-.366.15.485.485 0 0 0-.155.36c0 .141.051.262.153.364a.5.5 0 0 0 .368.152zm4.392-1.626c.147-.054.294-.08.44-.08.329 0 .604.113.828.34.223.226.335.504.335.832 0 .25-.081.49-.244.722-.178.243-.386.38-.623.412a4.3 4.3 0 0 1-.394.033c-.397 0-.74-.147-1.031-.44-.313-.316-.469-.908-.469-1.777 0-.969.15-1.644.45-2.025.344-.44.79-.661 1.34-.661.31 0 .64.083.99.248.387.188.737.561 1.05 1.12.106.188.187.335.243.441V169.8c0-.506-.078-.873-.234-1.102-.256-.368-.744-.553-1.462-.553-.625 0-1.135.12-1.529.361-.246.153-.476.402-.689.746l-.614-.479.408-.501c.21-.203.433-.366.67-.488.26-.125.534-.22.816-.28a4.31 4.31 0 0 1 .966-.1c1.378 0 2.253.42 2.625 1.262.122.28.183.598.183.951v4.613h-1.14v-.614c0-.616-.18-1.29-.539-2.02-.478-.963-.995-1.444-1.551-1.444-.366 0-.61.189-.731.567-.082.25-.122.53-.122.843 0 .244.01.404.028.479zm.933 1.092a.515.515 0 0 0-.143-.361.457.457 0 0 0-.35-.155.479.479 0 0 0-.36.152.508.508 0 0 0-.146.364c0 .14.05.26.148.36a.483.483 0 0 0 .703-.006.504.504 0 0 0 .148-.354zm9.206 1.097h-1.12v-4.43c0-.528-.072-.898-.216-1.111-.247-.362-.667-.544-1.261-.544-.6 0-1.073.167-1.42.502-.228.215-.38.472-.455.769l-.647-.394c.147-.422.403-.785.769-1.088.425-.353 1.026-.53 1.805-.53.765 0 1.384.19 1.856.568.46.372.689.92.689 1.645v4.613zm3.848-10.683a1.315 1.315 0 0 0-.13-.005c-.204 0-.392.045-.563.134a.663.663 0 0 0-.343.415.614.614 0 0 1 .202-.029c.231 0 .448.079.652.235.23.181.346.492.346.933 0 .268-.1.492-.302.67-.195.175-.448.27-.71.267-.269 0-.5-.078-.694-.234-.31-.247-.464-.616-.464-1.106 0-.382.1-.753.298-1.114.198-.36.547-.605 1.047-.733a2.84 2.84 0 0 1 .704-.08c.603 0 1.068.175 1.396.525.291.31.436.669.436 1.078v7.538c.091-.025.205-.038.343-.038.325 0 .597.11.818.33.22.22.33.494.33.819 0 .306-.098.567-.295.782a1.123 1.123 0 0 1-.755.366.952.952 0 0 1-.248.033c-.385 0-.705-.144-.961-.431a1.38 1.38 0 0 1-.352-.961v-8.438c0-.256-.04-.451-.122-.586-.125-.206-.336-.33-.633-.37zm2.728 9.605a.492.492 0 0 0-.15-.361c-.1-.1-.22-.15-.36-.15a.507.507 0 0 0-.364.147.486.486 0 0 0-.152.364c0 .143.05.265.15.365.1.1.222.15.366.15.143 0 .264-.05.363-.152a.504.504 0 0 0 .147-.363zm-3.614-8.47c-.256 0-.384.15-.384.454 0 .31.138.464.413.464.262 0 .393-.155.393-.464 0-.303-.14-.455-.422-.455v.001zm10.747 4.98a.7.7 0 0 1 .328.267.726.726 0 0 1 .157.433v3.868h-1.14v-3.868a.404.404 0 0 0-.095-.253c-.065-.08-.137-.122-.218-.122-.313 0-.752.425-1.318 1.275-.53.797-.847 1.786-.947 2.968h-1.153v-4.5a2.54 2.54 0 0 1-.342.028 1.17 1.17 0 0 1-.83-.328 1.072 1.072 0 0 1-.346-.811c0-.253.082-.496.248-.727.184-.247.398-.386.642-.417.19-.022.324-.033.399-.033.406 0 .72.124.942.37.265.288.398.625.398 1.013v2.564c0-.16.199-.481.596-.966.371-.45.65-.737.836-.862.186-.125.346-.188.48-.188-.196-.143-.307-.314-.332-.51a2.754 2.754 0 0 1-.028-.235v-.047c0-.337.123-.618.37-.841.247-.224.54-.335.881-.335.36 0 .65.114.872.344.222.23.333.524.333.884 0 .225-.069.439-.206.642-.144.219-.322.347-.534.384l.007.003zm-5.234-1.043c0 .134.05.252.15.354.1.101.219.152.356.152.138 0 .256-.05.356-.15.1-.1.15-.219.15-.356a.51.51 0 0 0-.147-.368.48.48 0 0 0-.359-.153.514.514 0 0 0-.506.521zm4.214-.028c0 .146.052.272.157.377.105.105.23.157.377.157a.515.515 0 0 0 .378-.157.515.515 0 0 0 .157-.377.486.486 0 0 0-.157-.366.527.527 0 0 0-.378-.15.525.525 0 0 0-.375.152.485.485 0 0 0-.159.364zm7.884-1.064h1.107v5.432c0 .5-.083.827-.249.98-.178.228-.428.342-.75.342-.128 0-.255-.086-.38-.258a89.88 89.88 0 0 0-.454-.684 3.223 3.223 0 0 0-.52-.628c-.385-.344-.772-.54-1.163-.586v1.2c0 .419-.147.703-.44.853-.204.103-.457.155-.76.155a1.45 1.45 0 0 1-.431-.052c-.385-.11-.664-.36-.84-.75a1.597 1.597 0 0 1-.135-.675c0-.672.236-1.134.708-1.387.29-.16.548-.24.773-.24v-1.5l-.173.02c-.054.006-.11.009-.17.009-.318 0-.59-.11-.812-.328a1.09 1.09 0 0 1-.336-.811c0-.253.083-.496.249-.727.178-.247.387-.386.628-.417.19-.022.322-.033.394-.033.422 0 .756.136 1.003.408.228.256.342.581.342.975v2.503c.384.019.8.18 1.247.483.034.025.219.19.553.497.316.29.478.434.487.431.082-.025.122-.131.122-.319v-4.893zm-4.382 1.092c0 .13.051.248.154.351.103.103.22.155.352.155a.53.53 0 0 0 .372-.15.47.47 0 0 0 .162-.356.527.527 0 0 0-.534-.52.476.476 0 0 0-.356.156.51.51 0 0 0-.15.364zm.182 4.078a.643.643 0 0 0-.004.08v.075c0 .212.026.368.08.468.077.163.179.244.304.244.19 0 .286-.102.286-.305v-1.19a.281.281 0 0 0-.113-.02.51.51 0 0 0-.309.113c-.162.188-.244.366-.244.535zm4.294-8.011h1.013v1.955h-1.013v-1.955z" fill="#6D6E70" fill-rule="nonzero"/><path d="M22.15 50.049v5.642c.11-.03.246-.046.41-.046.415 0 .76.136 1.038.41.277.273.416.615.416 1.025 0 .39-.123.719-.37.984a1.421 1.421 0 0 1-.949.452c-.105.027-.213.04-.322.04-.457 0-.85-.179-1.178-.538-.285-.305-.427-.705-.427-1.202V50.05h1.382v-.001zm1.079 7.031a.596.596 0 0 0-.197-.457.67.67 0 0 0-.471-.182.608.608 0 0 0-.446.188.615.615 0 0 0-.187.451.63.63 0 0 0 .184.454.6.6 0 0 0 .449.19c.183 0 .34-.062.471-.187a.608.608 0 0 0 .197-.457zm4.177-4.207c-.484-.09-.965-.144-1.441-.164a15.732 15.732 0 0 0-.563-.012c-.465 0-.716.014-.756.041a.809.809 0 0 1-.017-.17c0-.52.17-1.045.51-1.576.433-.676 1.142-1.013 2.127-1.013.273 0 .656.07 1.148.213.492.143.856.214 1.09.214.457 0 .77-.142.937-.427l1.026.533c-.055.148-.168.302-.34.463-.246.23-.522.36-.826.392a3.96 3.96 0 0 1-.358.03c-.308 0-.738-.088-1.289-.264-.496-.153-.875-.229-1.136-.229-.473 0-.842.12-1.108.358-.172.144-.31.355-.416.633.457 0 .994.046 1.611.14.72.113 1.301.272 1.747.475.445.203.748.45.908.744.133.234.199.476.199.726v2.836c0 .489-.158.905-.475 1.248-.297.325-.683.487-1.16.487-.531 0-.947-.166-1.248-.498a1.379 1.379 0 0 1-.369-.973c0-.414.137-.757.41-1.028.274-.272.617-.407 1.031-.407.18 0 .315.015.405.046v-1.593c0-.254-.063-.463-.188-.627-.195-.258-.681-.457-1.459-.598zm1.242 4.852a.6.6 0 0 0 .449-.19.63.63 0 0 0 .184-.455.615.615 0 0 0-.187-.451.608.608 0 0 0-.446-.188.637.637 0 0 0-.46.185.608.608 0 0 0-.19.454c0 .18.063.332.188.457a.628.628 0 0 0 .462.188zm1.916-8.995l-.802-.152c-.79-.148-1.707-.223-2.754-.223-1.031 0-2.131.098-3.299.293l.223-.755c.527-1.286 1.552-1.928 3.076-1.928 1.37 0 2.394.54 3.07 1.623.274.437.436.818.486 1.142zm-3.709-2.068c-.714 0-1.218.266-1.511.797l-.117.281a38.77 38.77 0 0 1 1.88-.053c.48 0 1.135.069 1.963.206a20.97 20.97 0 0 1-.21-.311c-.505-.613-1.172-.92-2.005-.92zm2.274-4.084h1.266v2.443h-1.266v-2.443zm9.281 7.47h1.383v6.792c0 .625-.104 1.033-.31 1.224-.223.286-.536.428-.938.428-.16 0-.318-.107-.475-.322-.187-.285-.377-.57-.568-.856a4.028 4.028 0 0 0-.65-.785c-.48-.43-.965-.674-1.454-.732v1.5c0 .523-.183.879-.55 1.066-.254.13-.57.194-.95.194-.222 0-.402-.022-.539-.065-.48-.137-.83-.449-1.048-.937a1.997 1.997 0 0 1-.17-.844c0-.84.295-1.418.884-1.734.364-.2.686-.3.967-.3v-1.874l-.217.023c-.07.008-.14.012-.21.012a1.4 1.4 0 0 1-1.017-.41 1.362 1.362 0 0 1-.42-1.014c0-.316.104-.62.311-.908.223-.309.485-.483.786-.522.238-.027.402-.04.492-.04.527 0 .945.17 1.254.51.285.32.427.726.427 1.218V54.8c.48.023 1 .224 1.559.603.043.032.273.239.691.621.395.364.598.543.61.54.101-.032.152-.165.152-.399v-6.117zm-5.478 1.366c0 .164.064.31.193.44a.606.606 0 0 0 .44.193c.174 0 .34-.067.465-.188a.588.588 0 0 0 .202-.445.615.615 0 0 0-.196-.463.659.659 0 0 0-.472-.187.595.595 0 0 0-.445.196.638.638 0 0 0-.187.454zm.228 5.098a.804.804 0 0 0-.006.1v.093c0 .266.033.461.1.586.098.203.225.305.38.305.239 0 .358-.127.358-.381v-1.488a.351.351 0 0 0-.14-.024.638.638 0 0 0-.387.14c-.203.235-.305.458-.305.669zm14.754 1.916v-5.69c0-.601-.158-1.054-.475-1.36l-.293-.198a.222.222 0 0 0-.134-.035c-.04 0-.223.084-.551.254-.328.17-.62.255-.873.255-.227 0-.485-.082-.776-.246-.291-.164-.45-.246-.478-.246-.074 0-.188.049-.34.147a1.07 1.07 0 0 0-.287.257c-.273.336-.41.852-.41 1.547 0 .383.04.754.123 1.114l.223 1.02c.171.76.257 1.382.257 1.862.16-.3.405-.654.733-1.06l.732-.908a.985.985 0 0 1-.785-.282 1.404 1.404 0 0 1-.463-1.066c0-.523.22-.93.662-1.219.254-.164.541-.246.862-.246h.1c.21.031.42.06.626.088.172.055.342.211.51.469.2.32.299.658.299 1.013 0 .286-.182.696-.545 1.23-.063.09-.395.518-.996 1.284-.11.137-.242.318-.399.545l-.45.645a5.99 5.99 0 0 0-.493.826h-1.676c0-.035.002-.091.006-.167a3.67 3.67 0 0 0 .006-.173c0-.512-.049-1.086-.147-1.723a110.6 110.6 0 0 1-.539-2.426 4.29 4.29 0 0 1-.082-.884c0-.453.094-.905.282-1.354.203-.48.474-.85.814-1.107.516-.387.998-.614 1.447-.68.098-.016.292.106.583.363.291.258.525.387.7.387.192 0 .44-.125.745-.375.304-.25.498-.375.58-.375.23 0 .486.066.767.2.254.128.48.306.68.532.312.356.53.696.65 1.02.13.348.194.73.194 1.148v5.614h-1.389zm-2.93-4.617c0 .175.067.326.2.45.122.12.286.188.457.188.18 0 .333-.061.46-.184a.608.608 0 0 0 .19-.454c0-.422-.217-.633-.65-.633a.65.65 0 0 0-.46.184.592.592 0 0 0-.197.449zm1.618-6.434c-.063.012-.15.018-.264.018-.453 0-.79-.147-1.008-.44-.14-.18-.21-.414-.21-.703 0-.594.292-.98.878-1.16a1.49 1.49 0 0 1 .451-.07c.477 0 .834.18 1.072.539.211.308.317.615.317.92 0 .14-.02.28-.059.421-.093.336-.252.6-.474.791.605-.148 1.056-.4 1.353-.755.418-.497.627-1.02.627-1.57h1.33c0 .898-.445 1.675-1.336 2.331-.937.707-2.129 1.06-3.574 1.06v-.614c.2 0 .414-.088.645-.264.168-.168.252-.336.252-.504zm-.252-1.693c-.368 0-.551.187-.551.562.05.371.256.557.615.557.34 0 .51-.196.51-.586 0-.356-.192-.533-.574-.533zm6.304 7.119a3.08 3.08 0 0 1-.427.035 1.41 1.41 0 0 1-1.023-.416 1.358 1.358 0 0 1-.425-1.008c0-.316.104-.62.31-.908.22-.309.483-.483.792-.522.242-.027.408-.04.498-.04.531 0 .95.17 1.254.51.285.323.428.73.428 1.218v5.045c.199-.356.486-.64.86-.856.329-.18.608-.304.839-.375.176-.043.422-.105.738-.187.39-.102.586-.262.586-.48v-4.77h1.424v4.928a.537.537 0 0 1-.293.51c-.11.058-.264.12-.463.187.266.074.49.209.674.404.27.293.404.598.404.914 0 .43-.121.783-.363 1.06-.254.29-.594.456-1.02.499-.539 0-.949-.166-1.23-.498a1.6 1.6 0 0 1-.363-.856c0-.504.07-.789.21-.855-.394 0-.818.254-1.271.762-.305.34-.549.78-.732 1.324h-1.407v-5.625zM51.6 51.414c0 .164.063.31.19.44.112.122.27.192.437.193a.647.647 0 0 0 .46-.188.595.595 0 0 0 .196-.445.624.624 0 0 0-.19-.463.639.639 0 0 0-.466-.187.586.586 0 0 0-.443.196.643.643 0 0 0-.184.454zm5.76 5.027c-.446 0-.669.229-.669.686 0 .414.217.621.65.621.18 0 .334-.06.46-.179a.582.582 0 0 0 .191-.442c0-.457-.21-.686-.633-.686h.001zm210.334 27.976c.16.172.291.389.393.65.148.372.223.753.223 1.143v5.766h-1.395v-.768c0-.726-.234-1.566-.703-2.52-.598-1.206-1.248-1.81-1.951-1.81-.461 0-.776.256-.944.768-.074.238-.11.539-.11.902 0 .211.015.442.046.692.184-.067.36-.1.527-.1.41 0 .756.142 1.037.425.282.283.422.63.422 1.04 0 .312-.103.611-.31.896-.219.309-.477.483-.774.522-.16.021-.32.034-.48.04a1.75 1.75 0 0 1-1.3-.55c-.384-.383-.575-1.123-.575-2.22 0-1.196.191-2.04.574-2.532.418-.55.97-.826 1.658-.826.39 0 .803.103 1.237.31.503.239.98.752 1.43 1.541.05.09.122.227.216.41V86.44c0-.61-.105-1.069-.316-1.377-.32-.461-.928-.692-1.823-.692-.804 0-1.435.142-1.892.425-.457.283-.75.603-.88.958l-.767-.597.504-.627c.274-.262.547-.463.82-.604.274-.14.618-.26 1.032-.357a5.55 5.55 0 0 1 1.219-.123c.8 0 1.45.107 1.95.322a1.48 1.48 0 0 0 .405-.393c.137-.175.205-.41.205-.703l1.488.381c0 .45-.252.834-.755 1.154a2.32 2.32 0 0 1-.41.211l-.001-.001zm-3.28 6.188a.635.635 0 0 0-.183-.454.598.598 0 0 0-.45-.19.57.57 0 0 0-.434.196.641.641 0 0 0 0 .896c.12.127.265.19.433.19a.605.605 0 0 0 .449-.187.62.62 0 0 0 .184-.451h.001zm4.066-8.684l-.803-.152c-.79-.149-1.707-.223-2.754-.223-1.031 0-2.131.098-3.299.293l.223-.756c.527-1.285 1.552-1.927 3.076-1.927 1.371 0 2.394.54 3.07 1.623.274.437.436.818.487 1.142zm-3.71-2.068c-.714 0-1.218.266-1.511.797l-.117.281c.71-.035 1.338-.053 1.88-.053.481 0 1.135.069 1.963.205-.07-.101-.14-.205-.21-.31-.504-.613-1.172-.92-2.004-.92h-.001zm2.362-2.408a1.61 1.61 0 0 1-.211.011c-.363 0-.633-.117-.809-.351-.113-.145-.17-.332-.17-.563 0-.476.235-.787.704-.931.12-.035.242-.053.363-.053.383 0 .67.143.861.428.168.25.252.496.252.738 0 .113-.016.227-.047.34-.074.27-.2.48-.38.633.484-.118.845-.319 1.083-.604.336-.398.504-.818.504-1.26h1.067c0 .72-.358 1.342-1.073 1.87-.75.566-1.705.85-2.865.85v-.493c.16 0 .332-.07.516-.211.137-.137.205-.272.205-.404zm-.205-1.36c-.293 0-.44.15-.44.451.04.297.203.446.493.446.273 0 .41-.156.41-.469 0-.285-.155-.428-.463-.428zm4.71 10.266a3.08 3.08 0 0 1-.427.035c-.398 0-.74-.139-1.022-.416a1.358 1.358 0 0 1-.425-1.008c0-.316.103-.619.31-.908.219-.309.483-.482.791-.521.242-.028.408-.041.498-.041.532 0 .95.17 1.254.51.285.324.428.73.428 1.218v5.045c.2-.355.486-.64.861-.855.328-.18.608-.305.838-.375.176-.043.422-.106.738-.188.391-.102.586-.262.586-.48v-4.77h1.424v4.928a.537.537 0 0 1-.293.51c-.11.058-.263.12-.463.187.266.074.49.209.674.404.27.293.405.598.405.914 0 .43-.122.784-.364 1.06-.254.29-.594.456-1.02.499-.538 0-.949-.166-1.23-.498a1.604 1.604 0 0 1-.363-.856c0-.503.07-.789.21-.855-.394 0-.817.254-1.27.762-.305.34-.55.781-.733 1.324h-1.406V86.35l-.001.001zm-1.054-1.389c0 .164.064.31.19.44.112.122.27.192.437.193.176 0 .33-.062.46-.187a.595.595 0 0 0 .196-.446.624.624 0 0 0-.19-.463.639.639 0 0 0-.466-.187.586.586 0 0 0-.442.196.643.643 0 0 0-.185.454zm5.76 5.028c-.446 0-.668.228-.668.685 0 .414.217.621.65.621.18 0 .333-.06.46-.178a.582.582 0 0 0 .19-.443c0-.457-.21-.685-.632-.685zm9.592-5.573c.16.172.29.389.392.65.149.372.223.753.223 1.143v5.766h-1.395v-.768c0-.726-.234-1.566-.703-2.52-.597-1.206-1.248-1.81-1.951-1.81-.46 0-.775.256-.943.768-.075.238-.112.539-.112.902 0 .211.016.442.047.692.184-.067.36-.1.528-.1.41 0 .755.142 1.037.425.28.283.422.63.422 1.04 0 .312-.104.611-.311.896-.219.309-.477.483-.773.522-.16.021-.32.034-.48.04-.509 0-.942-.183-1.302-.55-.383-.383-.574-1.123-.574-2.22 0-1.196.191-2.04.574-2.532.418-.55.971-.826 1.658-.826.391 0 .803.103 1.237.31.504.239.98.752 1.43 1.541.05.09.123.227.216.41V86.44c0-.61-.105-1.069-.316-1.377-.32-.461-.928-.692-1.822-.692-.805 0-1.436.142-1.893.425-.457.283-.75.603-.879.958l-.767-.597.503-.627c.274-.262.547-.463.82-.604.274-.14.618-.26 1.032-.357a5.55 5.55 0 0 1 1.219-.123c.8 0 1.451.107 1.951.322.176-.121.31-.252.404-.393.137-.175.205-.41.205-.703l1.489.381c0 .45-.252.834-.756 1.154-.14.09-.278.16-.41.211v-.001zm-3.282 6.188a.635.635 0 0 0-.181-.454.598.598 0 0 0-.451-.19.57.57 0 0 0-.434.196.641.641 0 0 0 0 .896c.121.127.266.19.434.19a.605.605 0 0 0 .448-.187.62.62 0 0 0 .184-.451zm2.69 5.52v-.909a.66.66 0 0 1-.217.03c-.426 0-.758-.124-.996-.37-.211-.222-.316-.507-.316-.855 0-.543.244-.914.732-1.113.215-.09.443-.135.685-.135.473 0 .856.176 1.149.527.234.281.351.723.351 1.324v1.5h-1.388v.001zm-.205-2.684c-.387 0-.58.205-.58.615 0 .402.207.604.62.604.41 0 .616-.217.616-.65-.047-.38-.266-.57-.656-.57v.001zm9.44-1.465v-5.69c0-.578-.177-1.035-.528-1.37-.383-.364-.97-.546-1.764-.546-.668 0-1.209.186-1.623.557-.469.426-.703 1.004-.703 1.734 0 .383.041.754.123 1.114l.223 1.02c.172.761.258 1.382.258 1.863a23.16 23.16 0 0 1 1.095-1.676c.137-.192.26-.362.37-.51-.325-.039-.637-.195-.938-.469-.207-.187-.31-.492-.31-.914 0-.203.033-.387.099-.55.25-.618.732-.926 1.447-.926.563 0 .967.191 1.213.574.2.324.299.664.299 1.02 0 .245-.168.636-.504 1.171-.277.403-.69 1.004-1.236 1.805-.211.309-.512.773-.903 1.394-.097.165-.177.297-.24.399h-1.676c0-.035.002-.09.006-.167a3.67 3.67 0 0 0 .006-.173c0-.512-.049-1.086-.146-1.723a100.9 100.9 0 0 1-.54-2.425 4.29 4.29 0 0 1-.082-.885c0-1 .37-1.785 1.108-2.356.7-.535 1.59-.802 2.672-.802 1.242 0 2.168.256 2.777.767.59.496.885 1.213.885 2.15v5.614h-1.389.001zm-2.93-4.857c0 .171.067.32.202.448.251.25.657.252.91.003a.606.606 0 0 0 .194-.451.634.634 0 0 0-.65-.645.64.64 0 0 0-.46.19.61.61 0 0 0-.197.455h.001z" fill="#2A3052" fill-rule="nonzero"/><path d="M197.666 166.848a.9.9 0 0 0 .063.34.829.829 0 0 0 .434.465.855.855 0 0 0 .929-.172.98.98 0 0 0 .199-.278.8.8 0 0 0 .078-.355.8.8 0 0 0-.07-.324.963.963 0 0 0-.473-.489.783.783 0 0 0-.926.188.958.958 0 0 0-.234.625zm6.016-.313a.612.612 0 0 0-.383-.258v.055c0 1.078-.417 2.146-1.25 3.203-.156.198-.28.36-.371.485-.068.09-.132.184-.192.28a1.58 1.58 0 0 0-.203.806v1.593h2.196a.348.348 0 0 0 .18-.05.929.929 0 0 0 .179-.145c.068-.099.101-.258.101-.477v-4.32c0-.203-.02-.38-.062-.531 0-.24-.065-.453-.195-.64v-.001zm2.593 1.156v4.586c0 .63-.148 1.144-.445 1.54-.48.526-1.125.789-1.937.789h-6.047v-1.907h1.07v-1.773c0-.589.341-1.294 1.023-2.117.532-.625.875-1.146 1.032-1.563.11-.27.164-.588.164-.953 0-.375-.117-.687-.352-.937a1.15 1.15 0 0 0-.875-.375h-.117a1.06 1.06 0 0 1-.207-.016.724.724 0 0 1-.113-.031l-.016.062c.151.068.288.156.41.266.444.403.703.97.715 1.57 0 .396-.114.763-.344 1.102l.008-.008c-.219.364-.52.614-.906.75h.008c-.282.11-.58.168-.883.172-.469 0-.912-.162-1.328-.485-.427-.338-.675-.731-.742-1.18v.008a5.365 5.365 0 0 1-.067-.417 2.696 2.696 0 0 1-.02-.286c0-.916.355-1.698 1.063-2.343v.007c.615-.557 1.487-.836 2.617-.836 1.38 0 2.36.521 2.938 1.563.285-.04.564-.12.828-.234h-.008l.336-.172c.041-.03.08-.063.117-.098a2.57 2.57 0 0 0 .14-.144c.277-.282.415-.737.415-1.368h2.64c-.015.386-.07.797-.163 1.235-.152.432-.365.77-.641 1.015a2.713 2.713 0 0 1-.953.547l-.14.047c.15.115.275.24.374.375l-.023-.016c.104.125.186.26.246.407.06.146.103.294.129.445.015.063.026.13.031.203l.016.266.007.304zm3.125-2.218c0 .11.025.215.075.316a1 1 0 0 0 .191.27c.078.078.168.14.27.187.101.047.207.07.316.07.12 0 .234-.024.344-.074.21-.09.38-.254.48-.46a.698.698 0 0 0 .074-.31.883.883 0 0 0-.546-.823.928.928 0 0 0-.352-.067.73.73 0 0 0-.309.07.909.909 0 0 0-.273.196c-.08.083-.146.178-.195.285a.799.799 0 0 0-.075.34zm1.102 2.078a.977.977 0 0 1-.121.008h-.121a2.09 2.09 0 0 1-1.5-.61 1.995 1.995 0 0 1-.625-1.484 2.034 2.034 0 0 1 .703-1.57c.213-.188.46-.331.738-.43.279-.099.57-.149.871-.149.76 0 1.362.245 1.805.735.411.458.617 1.039.617 1.742v5.492c.094-.094.193-.177.297-.25.104-.073.219-.146.344-.219a6.713 6.713 0 0 1 1.57-.613l.516-.129c.328-.088.492-.192.492-.312v-6.313h2.383v6.508c0 .412-.175.711-.524.899.063.046.123.093.18.14.057.047.112.097.164.149.39.432.586.882.586 1.351 0 .62-.177 1.13-.531 1.531-.37.428-.862.672-1.477.735-.797 0-1.4-.245-1.812-.735h.007a2.409 2.409 0 0 1-.531-1.234c0-.27.016-.497.047-.68-.135.073-.276.17-.422.29-.146.12-.294.265-.445.437-.365.406-.675.995-.93 1.766h-2.281v-7.055zm6.242 4.133c-.646 0-.969.338-.969 1.015 0 .584.31.875.93.875a1.01 1.01 0 0 0 .668-.258.859.859 0 0 0 .203-.277.799.799 0 0 0 .074-.34c0-.677-.302-1.015-.906-1.015zm9.649-6.297a3.14 3.14 0 0 0 .144-.61 4.98 4.98 0 0 0 .043-.671l2.14.382c-.213 1.35-.838 2.38-1.874 3.094-.61.422-1.503.633-2.68.633-1.552 0-2.625-.453-3.219-1.36-.21-.31-.32-.679-.312-1.054 0-.505.195-.985.586-1.438.37-.291.789-.476 1.258-.554.65 0 1.195.19 1.632.57.35.38.524.854.524 1.422 0 .37-.107.685-.32.945.265 0 .528-.047.789-.14.64-.224 1.07-.63 1.289-1.22v.001zm0 5.625a2.83 2.83 0 0 0 .144-.59c.029-.211.043-.431.043-.66l2.14.351c-.218 1.339-.84 2.37-1.866 3.094-.303.198-.681.353-1.137.465a6.52 6.52 0 0 1-1.551.168c-1.573 0-2.646-.445-3.219-1.336h.008a1.79 1.79 0 0 1-.32-1.047c0-.578.195-1.052.586-1.422.192-.182.392-.32.597-.414.206-.094.426-.143.66-.148h.25c.547 0 1 .18 1.36.539v-.008c.364.354.547.839.547 1.453 0 .354-.11.664-.328.93 1.078-.021 1.773-.48 2.086-1.375zm-4.586-5.297c0 .224.073.417.218.578.143.16.349.249.563.242.25 0 .458-.075.625-.226a.763.763 0 0 0 .25-.594.714.714 0 0 0-.07-.316.809.809 0 0 0-.465-.415.981.981 0 0 0-.34-.058.758.758 0 0 0-.555.234.807.807 0 0 0-.226.555zm-.047 5.672a.78.78 0 0 0 .066.32.868.868 0 0 0 .445.442c.1.044.208.066.317.066.61 0 .914-.276.914-.828a.799.799 0 0 0-.074-.34.92.92 0 0 0-.84-.535c-.214 0-.404.09-.57.273a.824.824 0 0 0-.258.602zm11.633 3.297h-2.758v-1.977h2.758v1.977zm-.157-3.79h-2.43l-.484-11.523h3.36l-.446 11.524v-.001z" fill="#FFF" fill-rule="nonzero"/><path d="M263.508 143.727v3.386c.08-.02.163-.03.246-.029a.85.85 0 0 1 .872.862.836.836 0 0 1-.221.59.853.853 0 0 1-.57.271.767.767 0 0 1-.193.025.925.925 0 0 1-.707-.324c-.17-.183-.256-.423-.256-.72v-4.061h.83-.001zm.647 4.219c0-.11-.04-.202-.118-.274a.402.402 0 0 0-.283-.11.37.37 0 0 0-.267.113.369.369 0 0 0-.112.27.38.38 0 0 0 .11.273.36.36 0 0 0 .27.114c.11 0 .204-.037.282-.112.077-.07.12-.17.118-.274zm2.584-4.005c.2.216.299.47.299.76v3.417h1.723a.401.401 0 0 0 .298-.127c.054-.051.081-.152.081-.302v-5.93h.851v6.029c0 .28-.06.503-.18.668-.15.199-.397.298-.741.298h-3.315v-.636h.45v-2.739a1.925 1.925 0 0 1-.257.021.874.874 0 0 1-.622-.246.804.804 0 0 1-.26-.608c0-.19.062-.371.186-.545.138-.185.299-.29.482-.313a3.09 3.09 0 0 1 .298-.024c.305 0 .54.092.707.277zm-1.17.605c0 .1.037.19.112.266a.37.37 0 0 0 .534.001.365.365 0 0 0 .113-.267c0-.108-.037-.2-.111-.276a.36.36 0 0 0-.269-.114.385.385 0 0 0-.38.39h.001zm.797-2.419a.91.91 0 0 1-.158.01c-.272 0-.473-.087-.604-.263a.665.665 0 0 1-.127-.422c0-.356.176-.588.527-.696a.894.894 0 0 1 .271-.042c.286 0 .5.108.643.324a.97.97 0 0 1 .19.551.942.942 0 0 1-.035.254.94.94 0 0 1-.285.474c.364-.089.634-.24.812-.453.251-.298.377-.612.377-.942h.798c0 .539-.268 1.005-.802 1.399-.562.424-1.277.636-2.144.636v-.37c.119 0 .248-.052.386-.157.101-.101.151-.202.151-.303zm-.15-1.016c-.221 0-.331.113-.331.338.03.223.153.334.369.334.204 0 .306-.117.306-.352 0-.213-.115-.32-.345-.32h.001zm8.409 7.643h-.84v-3.322c0-.396-.055-.674-.162-.833-.186-.272-.5-.408-.946-.408-.45 0-.805.125-1.065.376a1.176 1.176 0 0 0-.341.577l-.485-.296c.11-.316.302-.588.576-.815.319-.265.77-.397 1.354-.397.574 0 1.038.141 1.392.425.344.279.517.69.517 1.234v3.46-.001zm4.264-3.644a.558.558 0 0 1-.246-.381 2.065 2.065 0 0 1-.021-.176v-.035c0-.253.092-.463.278-.631a.952.952 0 0 1 .66-.251c.27 0 .488.086.654.258.167.172.25.393.25.663a.838.838 0 0 1-.155.481.605.605 0 0 1-.4.289.52.52 0 0 1 .251.202.544.544 0 0 1 .118.325v2.9h-.855v-2.9a.303.303 0 0 0-.072-.19c-.048-.06-.102-.091-.163-.091-.234 0-.564.318-.988.956-.398.598-.635 1.34-.71 2.225h-.865v-3.375a1.9 1.9 0 0 1-.257.021.874.874 0 0 1-.622-.246.804.804 0 0 1-.26-.608c0-.19.062-.371.186-.545.139-.185.3-.29.482-.313.1-.013.199-.02.299-.024.304 0 .54.092.706.277.2.216.3.47.3.76v1.923c0-.12.148-.361.446-.724.279-.338.488-.553.627-.647.14-.094.26-.14.36-.14l-.003-.003zm-2.9-.563c0 .1.037.188.112.265.07.074.166.115.267.114a.365.365 0 0 0 .268-.113.365.365 0 0 0 .112-.267.384.384 0 0 0-.38-.39.385.385 0 0 0-.38.39l.001.001zm3.16-.022c0 .11.04.205.118.283.074.077.176.12.283.118a.39.39 0 0 0 .283-.118.386.386 0 0 0 .118-.283c0-.108-.04-.2-.118-.274a.395.395 0 0 0-.283-.113.394.394 0 0 0-.281.115.364.364 0 0 0-.12.272zm5.913-.798h.83v4.075c0 .375-.062.62-.186.734a.674.674 0 0 1-.563.257c-.096 0-.19-.064-.284-.193a64.844 64.844 0 0 0-.341-.514c-.11-.173-.24-.33-.39-.47-.289-.259-.58-.405-.873-.44v.9c0 .314-.11.527-.33.64a1.251 1.251 0 0 1-.57.116c-.133 0-.24-.013-.323-.039a.955.955 0 0 1-.63-.562 1.198 1.198 0 0 1-.101-.507c0-.504.177-.85.53-1.04.219-.12.412-.18.58-.18v-1.125l-.13.014c-.04.005-.081.007-.126.007a.84.84 0 0 1-.61-.246.817.817 0 0 1-.251-.608c0-.19.062-.371.186-.545.134-.185.29-.29.471-.313.143-.016.242-.024.295-.024.317 0 .568.102.753.306.17.192.256.436.256.73v1.878c.289.014.6.135.936.362.025.019.164.143.414.373.237.218.36.326.366.323.061-.018.091-.098.091-.239v-3.67zm-3.287.82c0 .098.04.185.116.263a.363.363 0 0 0 .264.116.4.4 0 0 0 .28-.113.353.353 0 0 0 .12-.267.395.395 0 0 0-.4-.39.357.357 0 0 0-.267.118.383.383 0 0 0-.113.272v.001zm.138 3.058a.482.482 0 0 0-.004.06v.056c0 .16.02.276.06.351.058.122.135.183.228.183.143 0 .215-.076.215-.228v-.893a.21.21 0 0 0-.085-.014.383.383 0 0 0-.232.084c-.122.14-.183.274-.183.4l.001.001zm8.627 1.15h-.84v-3.323c0-.396-.054-.674-.162-.833-.185-.272-.5-.408-.946-.408-.45 0-.805.125-1.065.376a1.176 1.176 0 0 0-.341.577l-.485-.296c.11-.316.302-.588.576-.815.32-.265.77-.397 1.354-.397.574 0 1.038.141 1.392.425.345.279.517.69.517 1.234v3.46zm4.24-.637a.32.32 0 0 0 .27-.13.477.477 0 0 0 .085-.299v-3.962h.844v4.092c0 .253-.066.467-.197.64-.15.197-.41.295-.777.295h-3.14v-.636h.338v-.85c0-.315.067-.564.2-.75.157-.215.35-.342.58-.38-.344 0-.624-.102-.838-.307-.215-.205-.322-.479-.322-.82 0-.432.163-.774.489-1.027.295-.225.667-.338 1.114-.338.298 0 .54.075.724.225.197.164.296.393.296.686 0 .32-.114.554-.341.7a.935.935 0 0 1-.507.14c-.412 0-.672-.15-.78-.45a.824.824 0 0 1-.032-.492c-.075.01-.141.071-.2.186a.64.64 0 0 0-.074.278c0 .494.292.781.875.861.193.028.383.042.57.042h.37v.573h-.391c-.27 0-.473.061-.612.183-.173.157-.26.376-.26.658v.882h1.716zm-1.582-3.561c0 .105.039.195.117.27a.383.383 0 0 0 .545-.001.363.363 0 0 0 .118-.27c0-.252-.13-.379-.39-.379a.384.384 0 0 0-.274.11.358.358 0 0 0-.116.27z" fill="#6D6E70" fill-rule="nonzero"/></g></svg>