<svg id="Layer_1" data-name="Layer 1" xmlns="http://www.w3.org/2000/svg" viewBox="0 0 72 30"><defs><style>.cls-1{fill:none;stroke:#e98024;stroke-width:.2px}.cls-1,.cls-2,.cls-4,.cls-7{stroke-miterlimit:10}.cls-2{fill:#fefdec;stroke:#cac8ba;stroke-width:.138px}.cls-3{fill:#231f20}.cls-4,.cls-6{fill:#fff}.cls-4,.cls-7{stroke:#dedede}.cls-4{stroke-width:.153px}.cls-5{fill:#2e8836}.cls-7{fill:#dedede;stroke-width:.204px}.cls-8{fill:#29a9e1}</style></defs><title>2-way-pricing</title><path class="cls-1" d="M23.583 7.909l-.578.578-.578-.578M23.005 6.946v1.541"/><path class="cls-2" d="M11.505 2.43h23v4.516h-23z"/><path class="cls-3" d="M13.166 4.7l-.1.514h-.17l.254-1.282h.463a.333.333 0 0 1 .27.107.315.315 0 0 1 .058.277.469.469 0 0 1-.162.286.491.491 0 0 1-.318.1h-.295zm.027-.137h.294a.263.263 0 0 0 .186-.071.329.329 0 0 0 .1-.176.247.247 0 0 0-.021-.181.179.179 0 0 0-.163-.068h-.296zM14.545 4.415l-.094-.005a.186.186 0 0 0-.107.033.3.3 0 0 0-.085.093l-.136.68h-.17l.19-.955h.157l-.011.128a.382.382 0 0 1 .111-.107.249.249 0 0 1 .133-.038.227.227 0 0 1 .039 0 .166.166 0 0 1 .03.006zM14.735 5.216h-.171l.19-.955h.171zm.239-1.2H14.8l.04-.176h.17zM15.385 5.1a.235.235 0 0 0 .146-.054.2.2 0 0 0 .081-.13h.153v.003a.336.336 0 0 1-.137.222.424.424 0 0 1-.265.093.3.3 0 0 1-.272-.134.483.483 0 0 1-.053-.339l.007-.037a.626.626 0 0 1 .155-.348.419.419 0 0 1 .32-.133.3.3 0 0 1 .238.1.277.277 0 0 1 .06.243h-.154a.189.189 0 0 0-.03-.151.157.157 0 0 0-.134-.055.223.223 0 0 0-.191.1.55.55 0 0 0-.094.24l-.006.037a.475.475 0 0 0 .013.243.156.156 0 0 0 .163.1zM16.276 5.234A.309.309 0 0 1 16 5.1a.457.457 0 0 1-.059-.343l.006-.039a.6.6 0 0 1 .167-.343.409.409 0 0 1 .289-.131.278.278 0 0 1 .252.118.442.442 0 0 1 .046.31l-.018.109h-.571a.38.38 0 0 0 .026.231.166.166 0 0 0 .162.088.407.407 0 0 0 .146-.026A.4.4 0 0 0 16.56 5l.049.113a.441.441 0 0 1-.138.084.521.521 0 0 1-.195.037zm.11-.854a.2.2 0 0 0-.144.074.437.437 0 0 0-.1.184v.005h.393V4.62a.266.266 0 0 0-.02-.173.143.143 0 0 0-.129-.067zM17.276 4.73a.648.648 0 0 1 .162-.354.414.414 0 0 1 .313-.133.3.3 0 0 1 .267.138.482.482 0 0 1 .056.348v.019a.644.644 0 0 1-.163.354.415.415 0 0 1-.312.132.3.3 0 0 1-.271-.134.48.48 0 0 1-.054-.348zm.168.019A.456.456 0 0 0 17.46 5a.154.154 0 0 0 .156.1.225.225 0 0 0 .184-.1.54.54 0 0 0 .1-.249v-.019a.46.46 0 0 0-.018-.252.153.153 0 0 0-.155-.1.224.224 0 0 0-.184.1.555.555 0 0 0-.1.249zM18.263 5.216l.165-.826h-.137l.025-.129h.138l.024-.121a.411.411 0 0 1 .122-.24.331.331 0 0 1 .227-.079.3.3 0 0 1 .055.005l.06.014-.042.132-.035-.006h-.042a.146.146 0 0 0-.11.046.254.254 0 0 0-.061.131l-.025.121h.182l-.026.129H18.6l-.165.826h-.17zM19.672 4.031l-.047.23h.165l-.026.129H19.6l-.115.58a.124.124 0 0 0 0 .1.073.073 0 0 0 .063.025.324.324 0 0 0 .049 0l.045-.008V5.2a.243.243 0 0 1-.073.026.435.435 0 0 1-.093.01.168.168 0 0 1-.143-.065.243.243 0 0 1-.022-.2l.115-.58h-.14l.026-.129h.139l.047-.23h.171zM20.149 4.377a.424.424 0 0 1 .131-.1.348.348 0 0 1 .152-.035.227.227 0 0 1 .2.094.367.367 0 0 1 .028.28l-.12.6h-.17l.119-.6a.248.248 0 0 0-.01-.178.14.14 0 0 0-.128-.053.236.236 0 0 0-.12.035.393.393 0 0 0-.109.093l-.141.7h-.17l.276-1.373h.17zM21.162 5.234a.309.309 0 0 1-.273-.134.457.457 0 0 1-.059-.343l.006-.039A.6.6 0 0 1 21 4.375a.409.409 0 0 1 .289-.131.278.278 0 0 1 .252.118.442.442 0 0 1 .046.31l-.018.109H21a.38.38 0 0 0 .026.231.166.166 0 0 0 .158.086.407.407 0 0 0 .146-.026.4.4 0 0 0 .116-.072l.049.113a.441.441 0 0 1-.138.084.521.521 0 0 1-.195.037zm.11-.854a.2.2 0 0 0-.144.074.437.437 0 0 0-.1.184v.005h.393V4.62a.266.266 0 0 0-.02-.173.143.143 0 0 0-.129-.067zM22.162 4.73a.648.648 0 0 1 .162-.354.414.414 0 0 1 .313-.133.3.3 0 0 1 .267.138.482.482 0 0 1 .056.348v.019a.644.644 0 0 1-.163.354.415.415 0 0 1-.312.132.3.3 0 0 1-.271-.134.48.48 0 0 1-.054-.348zm.168.019a.456.456 0 0 0 .015.251.154.154 0 0 0 .156.1.225.225 0 0 0 .184-.1.54.54 0 0 0 .1-.249v-.019a.46.46 0 0 0-.018-.252.153.153 0 0 0-.155-.1.224.224 0 0 0-.184.1.555.555 0 0 0-.1.249zM23.919 4.792a.657.657 0 0 1-.148.331.353.353 0 0 1-.27.111.316.316 0 0 1-.138-.029.258.258 0 0 1-.1-.084l-.093.462H23l.263-1.321h.146l-.009.094a.367.367 0 0 1 .119-.083.347.347 0 0 1 .141-.029.242.242 0 0 1 .229.153.59.59 0 0 1 .03.377zm-.166-.019a.5.5 0 0 0-.01-.28.16.16 0 0 0-.16-.109.192.192 0 0 0-.109.035.34.34 0 0 0-.09.094l-.094.466a.194.194 0 0 0 .068.087.206.206 0 0 0 .117.031.218.218 0 0 0 .175-.083.5.5 0 0 0 .1-.223zM24.886 4.792a.665.665 0 0 1-.148.331.353.353 0 0 1-.27.111.316.316 0 0 1-.138-.029.254.254 0 0 1-.1-.084l-.093.462h-.17l.263-1.322h.146l-.006.095a.363.363 0 0 1 .118-.083.351.351 0 0 1 .142-.029.242.242 0 0 1 .229.153.6.6 0 0 1 .03.377zm-.167-.019a.5.5 0 0 0-.01-.28.159.159 0 0 0-.159-.109.19.19 0 0 0-.109.035.357.357 0 0 0-.091.094l-.094.466a.189.189 0 0 0 .069.087.2.2 0 0 0 .117.031.221.221 0 0 0 .175-.083.5.5 0 0 0 .1-.223zM25.062 4.73a.641.641 0 0 1 .162-.354.414.414 0 0 1 .313-.133.3.3 0 0 1 .267.138.487.487 0 0 1 .056.348v.019a.644.644 0 0 1-.163.354.415.415 0 0 1-.312.132.3.3 0 0 1-.271-.134.48.48 0 0 1-.055-.348zm.168.019a.457.457 0 0 0 .015.251.155.155 0 0 0 .157.1.225.225 0 0 0 .184-.1.562.562 0 0 0 .1-.249v-.019a.461.461 0 0 0-.017-.252.153.153 0 0 0-.155-.1.223.223 0 0 0-.184.1.556.556 0 0 0-.1.249zM26.542 4.962a.108.108 0 0 0-.024-.1.3.3 0 0 0-.139-.062.53.53 0 0 1-.229-.1.182.182 0 0 1-.05-.176.3.3 0 0 1 .124-.2.41.41 0 0 1 .255-.08.3.3 0 0 1 .231.086.226.226 0 0 1 .058.208v.005H26.6a.136.136 0 0 0-.146-.163.189.189 0 0 0-.128.042.155.155 0 0 0-.059.1.1.1 0 0 0 .021.09.321.321 0 0 0 .139.057.525.525 0 0 1 .234.105.188.188 0 0 1 .054.178.308.308 0 0 1-.129.208.446.446 0 0 1-.265.076.323.323 0 0 1-.25-.094.23.23 0 0 1-.062-.215v-.005h.163a.141.141 0 0 0 .04.135.2.2 0 0 0 .129.042.231.231 0 0 0 .135-.038.144.144 0 0 0 .066-.099zM27.048 5.216h-.17l.19-.955h.17zm.24-1.2h-.171l.035-.177h.171zM27.764 4.031l-.047.23h.165l-.025.129h-.165l-.115.58a.13.13 0 0 0 0 .1.077.077 0 0 0 .063.025.333.333 0 0 0 .049 0l.045-.008V5.2a.226.226 0 0 1-.072.026.438.438 0 0 1-.094.01.167.167 0 0 1-.142-.065.243.243 0 0 1-.022-.2l.115-.58h-.14l.025-.129h.14l.047-.23h.17zM28.289 5.234a.309.309 0 0 1-.273-.134.457.457 0 0 1-.059-.343l.007-.039a.594.594 0 0 1 .167-.343.407.407 0 0 1 .289-.131.277.277 0 0 1 .251.118.437.437 0 0 1 .046.31l-.017.108h-.575a.38.38 0 0 0 .027.231.164.164 0 0 0 .158.086.411.411 0 0 0 .146-.026.425.425 0 0 0 .118-.071l.048.113a.42.42 0 0 1-.138.084.521.521 0 0 1-.195.037zm.111-.854a.2.2 0 0 0-.144.074.437.437 0 0 0-.1.184v.005h.393V4.62a.272.272 0 0 0-.021-.173.142.142 0 0 0-.128-.067zM29.7 4.031l-.047.23h.165l-.025.129h-.169l-.115.58a.13.13 0 0 0 0 .1.077.077 0 0 0 .063.025.333.333 0 0 0 .049 0l.045-.008V5.2a.226.226 0 0 1-.072.026.438.438 0 0 1-.094.01.167.167 0 0 1-.142-.065.243.243 0 0 1-.022-.2l.115-.58h-.14l.025-.129h.14l.047-.23h.177zM30.428 4.415l-.093-.005a.183.183 0 0 0-.106.033.288.288 0 0 0-.086.093l-.136.68h-.17l.19-.955h.152l-.01.128a.368.368 0 0 1 .111-.107.25.25 0 0 1 .134-.038.216.216 0 0 1 .038 0 .166.166 0 0 1 .03.006zM30.978 5.216v-.071c0-.019 0-.038.007-.057a.554.554 0 0 1-.136.1.316.316 0 0 1-.153.042.23.23 0 0 1-.192-.078.242.242 0 0 1-.035-.208.314.314 0 0 1 .144-.218.541.541 0 0 1 .295-.073h.163l.019-.095a.158.158 0 0 0-.02-.135.148.148 0 0 0-.123-.046.218.218 0 0 0-.134.044.168.168 0 0 0-.072.1h-.16a.3.3 0 0 1 .133-.194.45.45 0 0 1 .273-.083.3.3 0 0 1 .225.084.248.248 0 0 1 .052.236l-.092.459a1.08 1.08 0 0 0-.016.1.491.491 0 0 0 0 .093h-.178zm-.226-.127a.292.292 0 0 0 .148-.042.345.345 0 0 0 .115-.1l.035-.175h-.17a.25.25 0 0 0-.156.054.2.2 0 0 0-.083.124.121.121 0 0 0 .013.1.122.122 0 0 0 .099.039zM31.428 4.739a.8.8 0 0 1 .155-.371.346.346 0 0 1 .275-.125.283.283 0 0 1 .133.031.255.255 0 0 1 .1.086l.1-.521h.17l-.272 1.377h-.147l.007-.092a.369.369 0 0 1-.117.083.344.344 0 0 1-.138.028.253.253 0 0 1-.232-.135.48.48 0 0 1-.037-.339zm.172.018a.4.4 0 0 0 .007.243.159.159 0 0 0 .159.092.2.2 0 0 0 .112-.035.348.348 0 0 0 .091-.1l.09-.451a.2.2 0 0 0-.069-.09.187.187 0 0 0-.114-.034.21.21 0 0 0-.176.1.661.661 0 0 0-.1.258zM32.72 5.234a.309.309 0 0 1-.272-.134.457.457 0 0 1-.059-.343l.011-.039a.594.594 0 0 1 .167-.343.407.407 0 0 1 .289-.131.277.277 0 0 1 .251.118.437.437 0 0 1 .046.31l-.018.109h-.579a.38.38 0 0 0 .027.231.164.164 0 0 0 .158.086.411.411 0 0 0 .146-.026.425.425 0 0 0 .119-.072l.048.113a.42.42 0 0 1-.138.084.521.521 0 0 1-.196.037zm.11-.854a.2.2 0 0 0-.144.074.437.437 0 0 0-.1.184v.005h.393V4.62a.272.272 0 0 0-.021-.173.142.142 0 0 0-.127-.067z"/><path class="cls-4" d="M0 8.86h72v15.932H0z"/><rect class="cls-5" x="18.562" y="16.826" width="50.706" height="5.515" rx=".613" ry=".613"/><path class="cls-6" d="M39.2 19.694v.661h-.3v-1.743h.681a.648.648 0 0 1 .452.149.554.554 0 0 1 0 .785.65.65 0 0 1-.452.148H39.2zm0-.233h.39a.321.321 0 0 0 .243-.086.305.305 0 0 0 .081-.219.294.294 0 0 0-.324-.31h-.39v.614zM41.257 20.166a.44.44 0 0 1-.154.158.457.457 0 0 1-.541-.077.611.611 0 0 1-.117-.413v-.774h.289v.777a.383.383 0 0 0 .056.238.2.2 0 0 0 .166.068.379.379 0 0 0 .177-.038.273.273 0 0 0 .111-.105v-.94h.291v1.295h-.254zM42.484 19.322h-.124a.261.261 0 0 0-.142.036.234.234 0 0 0-.088.1v.9h-.29V19.06h.266l.02.188a.407.407 0 0 1 .126-.156.293.293 0 0 1 .178-.056.252.252 0 0 1 .049 0 .3.3 0 0 1 .042.01zM43.223 20.146a.269.269 0 0 0 .18-.062.2.2 0 0 0 .072-.157h.264v.007a.383.383 0 0 1-.147.313.549.549 0 0 1-.37.131.535.535 0 0 1-.438-.184.7.7 0 0 1-.153-.467v-.04a.7.7 0 0 1 .153-.466.6.6 0 0 1 .817-.049.439.439 0 0 1 .141.345v.007h-.267a.256.256 0 0 0-.069-.181.242.242 0 0 0-.183-.074.246.246 0 0 0-.232.119.589.589 0 0 0-.068.3v.042a.588.588 0 0 0 .068.3.246.246 0 0 0 .232.116zM44.261 19.227a.465.465 0 0 1 .157-.141.422.422 0 0 1 .205-.05.406.406 0 0 1 .321.13.588.588 0 0 1 .116.4v.789h-.29v-.792a.328.328 0 0 0-.062-.222.232.232 0 0 0-.183-.068.324.324 0 0 0-.152.035.306.306 0 0 0-.112.1v.948h-.291v-1.869h.291v.74zM46.142 20.354a.973.973 0 0 1-.026-.1.781.781 0 0 1-.014-.093.51.51 0 0 1-.157.152.4.4 0 0 1-.219.062.431.431 0 0 1-.311-.1.378.378 0 0 1-.108-.286.339.339 0 0 1 .148-.292.719.719 0 0 1 .418-.1h.227v-.118a.213.213 0 0 0-.06-.159.238.238 0 0 0-.172-.058.245.245 0 0 0-.158.048.153.153 0 0 0-.059.124h-.278v-.007a.323.323 0 0 1 .138-.271.579.579 0 0 1 .379-.119.551.551 0 0 1 .364.115.4.4 0 0 1 .14.331v.576a.984.984 0 0 0 .011.154.813.813 0 0 0 .034.144h-.297zm-.357-.208a.365.365 0 0 0 .2-.055.28.28 0 0 0 .117-.126v-.191h-.233a.291.291 0 0 0-.2.063.192.192 0 0 0-.072.148.151.151 0 0 0 .049.118.2.2 0 0 0 .139.043zM47.424 20a.137.137 0 0 0-.058-.111.576.576 0 0 0-.214-.078.889.889 0 0 1-.352-.139.294.294 0 0 1-.119-.246.35.35 0 0 1 .138-.278.547.547 0 0 1 .362-.115.57.57 0 0 1 .377.117.347.347 0 0 1 .134.289v.007h-.281a.181.181 0 0 0-.062-.138.235.235 0 0 0-.168-.058.24.24 0 0 0-.16.047.147.147 0 0 0-.055.115.13.13 0 0 0 .052.108.558.558 0 0 0 .211.071.889.889 0 0 1 .362.142.3.3 0 0 1 .118.25.337.337 0 0 1-.145.283.612.612 0 0 1-.38.109.582.582 0 0 1-.4-.129.364.364 0 0 1-.139-.3v-.007h.271a.194.194 0 0 0 .084.171.327.327 0 0 0 .187.051.293.293 0 0 0 .173-.043.135.135 0 0 0 .064-.118zM48.526 20.379a.565.565 0 0 1-.439-.18.665.665 0 0 1-.163-.463v-.047a.686.686 0 0 1 .162-.468.514.514 0 0 1 .406-.185.5.5 0 0 1 .4.159.617.617 0 0 1 .14.425v.171h-.807v.006a.4.4 0 0 0 .091.251.286.286 0 0 0 .23.1.626.626 0 0 0 .2-.029.68.68 0 0 0 .161-.083l.093.19a.591.591 0 0 1-.194.109.8.8 0 0 1-.28.044zm-.034-1.11a.217.217 0 0 0-.177.085.413.413 0 0 0-.086.217v.006h.514v-.03a.31.31 0 0 0-.063-.2.227.227 0 0 0-.188-.078z"/><path class="cls-7" d="M0 24.791h72V30H0z"/><path d="M8.8 19.795a.745.745 0 0 1-.277.205 1.069 1.069 0 0 1-.468.09.8.8 0 0 1-.588-.224.778.778 0 0 1-.228-.58v-.41a.793.793 0 0 1 .22-.58.751.751 0 0 1 .563-.224.784.784 0 0 1 .548.174.606.606 0 0 1 .2.458v.008h-.377a.384.384 0 0 0-.1-.247.392.392 0 0 0-.551.048.556.556 0 0 0-.11.358v.412a.552.552 0 0 0 .114.362.378.378 0 0 0 .309.139.719.719 0 0 0 .221-.028.331.331 0 0 0 .124-.066v-.362h-.345v-.272H8.8v.739zM9.04 19.321a.779.779 0 0 1 .183-.534.632.632 0 0 1 .5-.208.641.641 0 0 1 .507.208.777.777 0 0 1 .183.535v.028a.778.778 0 0 1-.183.535.72.72 0 0 1-1.01 0 .783.783 0 0 1-.18-.535v-.029zm.393.027a.63.63 0 0 0 .069.319.242.242 0 0 0 .227.12.239.239 0 0 0 .223-.121.631.631 0 0 0 .07-.319v-.027A.619.619 0 0 0 9.95 19a.265.265 0 0 0-.447 0 .629.629 0 0 0-.07.315v.028zM11.3 20.091a.657.657 0 0 1-.5-.2.72.72 0 0 1-.188-.513v-.056a.794.794 0 0 1 .179-.534.665.665 0 0 1 .937-.031.686.686 0 0 1 .163.481v.214h-.87v.008a.377.377 0 0 0 .1.236.3.3 0 0 0 .232.092.757.757 0 0 0 .217-.026 1.037 1.037 0 0 0 .188-.083l.105.243a.73.73 0 0 1-.232.121 1.017 1.017 0 0 1-.331.048zm-.035-1.209a.2.2 0 0 0-.172.083.425.425 0 0 0-.078.219v.007h.485v-.034a.315.315 0 0 0-.059-.2.21.21 0 0 0-.174-.075zM12.9 19.662a.137.137 0 0 0-.062-.112.646.646 0 0 0-.232-.083.933.933 0 0 1-.39-.155.337.337 0 0 1-.132-.281.4.4 0 0 1 .158-.32.644.644 0 0 1 .424-.131.692.692 0 0 1 .443.131.383.383 0 0 1 .158.33v.008h-.377a.191.191 0 0 0-.056-.143.269.269 0 0 0-.314-.006.146.146 0 0 0-.054.116.132.132 0 0 0 .057.11.613.613 0 0 0 .232.077.943.943 0 0 1 .4.158.346.346 0 0 1 .131.288.382.382 0 0 1-.168.321.731.731 0 0 1-.444.125.675.675 0 0 1-.46-.147.415.415 0 0 1-.161-.336v-.008h.359a.2.2 0 0 0 .077.17.313.313 0 0 0 .189.052.271.271 0 0 0 .166-.043.14.14 0 0 0 .056-.121zM7.219 21.864a.821.821 0 0 1-.229.6.858.858 0 0 1-1.182 0 .827.827 0 0 1-.226-.6v-.353a.829.829 0 0 1 .226-.6.776.776 0 0 1 .592-.232.792.792 0 0 1 .594.236.823.823 0 0 1 .229.6v.353zm-.394-.354a.6.6 0 0 0-.114-.376.376.376 0 0 0-.311-.148.367.367 0 0 0-.312.146.611.611 0 0 0-.11.377v.356a.612.612 0 0 0 .111.38.37.37 0 0 0 .312.147.376.376 0 0 0 .315-.147.606.606 0 0 0 .112-.38v-.356zM8.384 22.458a.494.494 0 0 1-.171.176.5.5 0 0 1-.6-.085.678.678 0 0 1-.13-.458v-.881h.394v.884a.376.376 0 0 0 .054.229.189.189 0 0 0 .159.069.386.386 0 0 0 .161-.03.267.267 0 0 0 .11-.089V21.21h.394v1.457H8.42zM9.518 20.854v.356h.245v.276h-.245v.742a.17.17 0 0 0 .035.121.124.124 0 0 0 .094.037.426.426 0 0 0 .054 0l.052-.012.033.284a.775.775 0 0 1-.115.03.7.7 0 0 1-.123.01.417.417 0 0 1-.312-.112.49.49 0 0 1-.11-.354v-.745h-.214v-.277h.213v-.356h.393zM10.8 22.266a.137.137 0 0 0-.062-.112.646.646 0 0 0-.232-.083.933.933 0 0 1-.39-.155.337.337 0 0 1-.132-.281.4.4 0 0 1 .158-.32.644.644 0 0 1 .424-.131.692.692 0 0 1 .443.131.383.383 0 0 1 .158.33v.008h-.38a.191.191 0 0 0-.056-.143.269.269 0 0 0-.314-.009.146.146 0 0 0-.054.116.132.132 0 0 0 .057.11.613.613 0 0 0 .232.077.943.943 0 0 1 .4.158.346.346 0 0 1 .131.288.382.382 0 0 1-.168.321.731.731 0 0 1-.444.125.675.675 0 0 1-.46-.147.415.415 0 0 1-.161-.336v-.008h.36a.2.2 0 0 0 .077.17.313.313 0 0 0 .189.052.271.271 0 0 0 .166-.043.14.14 0 0 0 .058-.118zM11.848 20.862h-.393v-.295h.394v.295zm0 1.806h-.393V21.21h.394v1.457zM12.11 21.951a.944.944 0 0 1 .149-.556.482.482 0 0 1 .419-.211.4.4 0 0 1 .2.047.468.468 0 0 1 .154.135v-.8h.395v2.1h-.341l-.033-.178a.469.469 0 0 1-.162.153.43.43 0 0 1-.215.053.491.491 0 0 1-.416-.2.836.836 0 0 1-.149-.52v-.023zm.39.028a.6.6 0 0 0 .064.3.224.224 0 0 0 .21.11.308.308 0 0 0 .148-.034.277.277 0 0 0 .1-.1v-.622a.308.308 0 0 0-.1-.107.27.27 0 0 0-.146-.039.221.221 0 0 0-.211.128.725.725 0 0 0-.066.336v.028zM14.373 22.7a.657.657 0 0 1-.5-.2.72.72 0 0 1-.188-.513v-.06a.794.794 0 0 1 .179-.534.665.665 0 0 1 .937-.031.686.686 0 0 1 .163.481v.214h-.87v.008a.377.377 0 0 0 .1.236.3.3 0 0 0 .232.092.757.757 0 0 0 .217-.026 1.037 1.037 0 0 0 .188-.083l.105.243a.73.73 0 0 1-.232.121 1.017 1.017 0 0 1-.331.052zm-.035-1.209a.2.2 0 0 0-.172.083.425.425 0 0 0-.078.219v.007h.481v-.039a.315.315 0 0 0-.059-.2.21.21 0 0 0-.172-.074zM22.542 13.483a.223.223 0 0 0-.078-.174.664.664 0 0 0-.278-.118.924.924 0 0 1-.378-.17.353.353 0 0 1-.136-.282.371.371 0 0 1 .146-.3.58.58 0 0 1 .379-.12.567.567 0 0 1 .4.137.407.407 0 0 1 .143.318v.006h-.2a.284.284 0 0 0-.088-.217.36.36 0 0 0-.254-.083.355.355 0 0 0-.236.069.227.227 0 0 0-.082.182.2.2 0 0 0 .089.166.835.835 0 0 0 .289.117.823.823 0 0 1 .366.176.376.376 0 0 1 .126.288.352.352 0 0 1-.151.3.643.643 0 0 1-.394.112.68.68 0 0 1-.4-.124.376.376 0 0 1-.171-.332v-.006h.2a.256.256 0 0 0 .108.223.448.448 0 0 0 .267.077.412.412 0 0 0 .247-.066.208.208 0 0 0 .086-.179zM23.282 12.46v.273h.218v.153h-.218v.688a.152.152 0 0 0 .033.112.118.118 0 0 0 .087.033.2.2 0 0 0 .04 0l.038-.01.027.141a.181.181 0 0 1-.067.031.335.335 0 0 1-.09.012.269.269 0 0 1-.2-.076.33.33 0 0 1-.074-.238v-.692H22.9v-.154h.181v-.273h.206zM24.448 13.867a1.628 1.628 0 0 1-.016-.091.7.7 0 0 1-.007-.079.482.482 0 0 1-.15.136.378.378 0 0 1-.2.055.371.371 0 0 1-.27-.09.332.332 0 0 1-.093-.25.293.293 0 0 1 .131-.254.616.616 0 0 1 .357-.094h.225v-.109a.209.209 0 0 0-.061-.158.24.24 0 0 0-.172-.058.25.25 0 0 0-.162.051.155.155 0 0 0-.062.122h-.2v-.006a.271.271 0 0 1 .116-.226.481.481 0 0 1 .318-.1.467.467 0 0 1 .31.1.347.347 0 0 1 .117.282v.545a.924.924 0 0 0 .007.118.611.611 0 0 0 .022.111h-.21zm-.342-.152a.368.368 0 0 0 .2-.058.277.277 0 0 0 .117-.131v-.184h-.229a.3.3 0 0 0-.2.063.185.185 0 0 0-.075.147.155.155 0 0 0 .047.119.2.2 0 0 0 .14.044zM25.272 13.342h-.134v.524h-.207v-1.633h.207v.947h.132l.31-.446h.247l-.387.515.442.619h-.243zM26.48 13.889a.48.48 0 0 1-.377-.158.6.6 0 0 1-.14-.409v-.046a.577.577 0 0 1 .145-.4.441.441 0 0 1 .341-.161.43.43 0 0 1 .347.138.55.55 0 0 1 .117.369v.128h-.736v.005a.448.448 0 0 0 .082.268.266.266 0 0 0 .224.1.517.517 0 0 0 .184-.03.409.409 0 0 0 .137-.082l.081.134a.491.491 0 0 1-.161.1.637.637 0 0 1-.244.044zm-.031-1.014a.226.226 0 0 0-.178.087.418.418 0 0 0-.09.219v.005h.522v-.027a.315.315 0 0 0-.064-.2.231.231 0 0 0-.19-.084zM27.369 12.949h-.206v-.213h.206v.213zm0 .917h-.206v-.213h.206v.214zM29.91 13.6a.745.745 0 0 1-.272.206 1.069 1.069 0 0 1-.468.09.8.8 0 0 1-.588-.224.778.778 0 0 1-.228-.58v-.41a.793.793 0 0 1 .22-.58.751.751 0 0 1 .563-.224.784.784 0 0 1 .548.174.606.606 0 0 1 .2.458v.008h-.37a.384.384 0 0 0-.1-.247.392.392 0 0 0-.551.048.556.556 0 0 0-.11.358v.413a.552.552 0 0 0 .114.362.378.378 0 0 0 .309.139.719.719 0 0 0 .221-.028.331.331 0 0 0 .126-.07v-.362h-.354v-.272h.74v.741zM30.249 13.867v-1.96h.662a.938.938 0 0 1 .54.135.458.458 0 0 1 .193.4.419.419 0 0 1-.072.243.434.434 0 0 1-.209.161.414.414 0 0 1 .265.162.482.482 0 0 1 .088.287.507.507 0 0 1-.186.426.841.841 0 0 1-.526.145h-.755zm.393-1.139h.283a.4.4 0 0 0 .242-.064.222.222 0 0 0 .085-.188.236.236 0 0 0-.086-.2.419.419 0 0 0-.255-.064h-.27v.518zm0 .272v.564H31a.367.367 0 0 0 .238-.068.246.246 0 0 0 .082-.2.311.311 0 0 0-.07-.219.285.285 0 0 0-.217-.077h-.392zM32.411 13.156v.711h-.393v-1.96h.782a.775.775 0 0 1 .532.172.628.628 0 0 1 0 .906.779.779 0 0 1-.532.171h-.389zm0-.3h.389a.326.326 0 0 0 .249-.09.318.318 0 0 0 .085-.228.336.336 0 0 0-.084-.234.324.324 0 0 0-.25-.092h-.389v.644zM35.731 12.426a.449.449 0 0 1-.078.26.507.507 0 0 1-.213.176.576.576 0 0 1 .246.188.457.457 0 0 1 .091.28.5.5 0 0 1-.185.418.875.875 0 0 1-.968 0 .5.5 0 0 1-.186-.418.462.462 0 0 1 .09-.281.583.583 0 0 1 .247-.189.5.5 0 0 1-.214-.176.45.45 0 0 1-.077-.259.5.5 0 0 1 .171-.4.781.781 0 0 1 .9 0 .5.5 0 0 1 .176.401zm-.348.877a.288.288 0 0 0-.077-.211.264.264 0 0 0-.2-.079.26.26 0 0 0-.2.079.3.3 0 0 0-.075.211.288.288 0 0 0 .076.211.3.3 0 0 0 .4 0 .292.292 0 0 0 .076-.214zm-.045-.86a.28.28 0 0 0-.062-.19.235.235 0 0 0-.337 0 .337.337 0 0 0 0 .387.235.235 0 0 0 .338 0 .289.289 0 0 0 .062-.197zM36.486 13.867h-.393v-.345h.393v.345zM38.116 12.426a.449.449 0 0 1-.078.26.507.507 0 0 1-.213.176.576.576 0 0 1 .246.188.457.457 0 0 1 .091.28.5.5 0 0 1-.185.418.875.875 0 0 1-.968 0 .5.5 0 0 1-.186-.418.462.462 0 0 1 .09-.281.583.583 0 0 1 .247-.189.5.5 0 0 1-.214-.176.45.45 0 0 1-.077-.259.5.5 0 0 1 .171-.4.781.781 0 0 1 .9 0 .5.5 0 0 1 .176.401zm-.348.877a.288.288 0 0 0-.077-.211.264.264 0 0 0-.2-.079.26.26 0 0 0-.2.079.3.3 0 0 0-.075.211.288.288 0 0 0 .076.211.3.3 0 0 0 .4 0 .292.292 0 0 0 .076-.214zm-.045-.86a.28.28 0 0 0-.062-.19.235.235 0 0 0-.337 0 .337.337 0 0 0 0 .387.235.235 0 0 0 .338 0 .289.289 0 0 0 .061-.197zM38.814 12.72h.221a.268.268 0 0 0 .208-.074.289.289 0 0 0 .067-.2.265.265 0 0 0-.067-.19.255.255 0 0 0-.2-.071.278.278 0 0 0-.187.064.214.214 0 0 0-.075.169H38.4v-.008a.448.448 0 0 1 .177-.38.7.7 0 0 1 .458-.149.756.756 0 0 1 .485.146.5.5 0 0 1 .181.415.411.411 0 0 1-.081.243.538.538 0 0 1-.222.18.5.5 0 0 1 .248.178.464.464 0 0 1 .086.279.508.508 0 0 1-.2.423.783.783 0 0 1-.5.154.768.768 0 0 1-.47-.145.459.459 0 0 1-.188-.408v-.008h.381a.24.24 0 0 0 .081.186.293.293 0 0 0 .205.073.3.3 0 0 0 .215-.075.271.271 0 0 0 .078-.2.294.294 0 0 0-.077-.226.326.326 0 0 0-.229-.072h-.214v-.304zM21.641 28.42h-.192l-.682-1.095h-.006v1.095h-.191V27h.191l.682 1.1h.006V27h.192v1.42zM22.391 28.44a.441.441 0 0 1-.349-.146.549.549 0 0 1-.13-.38v-.042a.54.54 0 0 1 .133-.374.414.414 0 0 1 .317-.149.4.4 0 0 1 .321.128.51.51 0 0 1 .109.343v.119h-.681a.417.417 0 0 0 .076.249.246.246 0 0 0 .207.1.478.478 0 0 0 .171-.028.376.376 0 0 0 .127-.076l.075.125a.443.443 0 0 1-.148.093.614.614 0 0 1-.228.038zm-.028-.94a.21.21 0 0 0-.165.081.382.382 0 0 0-.083.2h.485v-.018a.29.29 0 0 0-.061-.187.214.214 0 0 0-.176-.076zM23.26 27.114v.254h.2v.142h-.2v.639a.144.144 0 0 0 .031.1.108.108 0 0 0 .081.03.163.163 0 0 0 .036 0 .223.223 0 0 0 .035-.01l.026.131a.17.17 0 0 1-.062.029.34.34 0 0 1-.083.011.247.247 0 0 1-.186-.07.308.308 0 0 1-.069-.222v-.638H22.9v-.142h.167v-.254h.193zM25.088 27.934a.58.58 0 0 1-.108.367.358.358 0 0 1-.3.14.419.419 0 0 1-.17-.032.321.321 0 0 1-.125-.1v.514h-.194v-1.455h.147l.03.136a.343.343 0 0 1 .128-.115.386.386 0 0 1 .179-.04.349.349 0 0 1 .3.155.7.7 0 0 1 .108.409v.021zm-.188-.021a.558.558 0 0 0-.07-.294.229.229 0 0 0-.207-.115.253.253 0 0 0-.142.038.269.269 0 0 0-.094.1v.509a.269.269 0 0 0 .094.1.275.275 0 0 0 .144.036.237.237 0 0 0 .206-.1.443.443 0 0 0 .069-.257v-.017zM25.821 27.537l-.1-.006a.215.215 0 0 0-.128.036.226.226 0 0 0-.08.1v.753h-.19v-1.052h.172l.019.153a.353.353 0 0 1 .11-.127.256.256 0 0 1 .15-.046.27.27 0 0 1 .041 0l.032.008zM25.942 27.885a.579.579 0 0 1 .126-.385.424.424 0 0 1 .344-.151.429.429 0 0 1 .346.15.582.582 0 0 1 .126.386v.021a.578.578 0 0 1-.126.385.47.47 0 0 1-.688 0 .572.572 0 0 1-.127-.384v-.022zm.191.021a.5.5 0 0 0 .07.275.254.254 0 0 0 .418 0 .5.5 0 0 0 .07-.275v-.022a.49.49 0 0 0-.071-.274.234.234 0 0 0-.209-.11.232.232 0 0 0-.208.11.5.5 0 0 0-.07.274v.021zM27.2 28.42v-.91h-.166v-.142h.166v-.134a.362.362 0 0 1 .088-.26.323.323 0 0 1 .246-.092.519.519 0 0 1 .066 0c.022 0 .047.009.074.016l-.023.146-.042-.007a.452.452 0 0 0-.053 0 .149.149 0 0 0-.124.051.222.222 0 0 0-.041.145v.134h.219v.143h-.221v.91H27.2zM28.012 27.1h-.191v-.2h.191v.2zm0 1.321h-.191v-1.053h.191v1.052zM28.56 27.114v.254h.2v.142h-.2v.639a.144.144 0 0 0 .031.1.108.108 0 0 0 .081.03.163.163 0 0 0 .036 0 .223.223 0 0 0 .035-.01l.026.131a.17.17 0 0 1-.062.029.34.34 0 0 1-.083.011.247.247 0 0 1-.186-.07.308.308 0 0 1-.069-.222v-.638H28.2v-.142h.167v-.254h.193zM29.2 27.568h-.187v-.2h.187v.2zm0 .852h-.187v-.2h.187v.2zM31.055 28.232a.456.456 0 0 1-.176.143.692.692 0 0 1-.323.065.575.575 0 0 1-.42-.162.563.563 0 0 1-.166-.42v-.292a.582.582 0 0 1 .155-.42.523.523 0 0 1 .4-.162.564.564 0 0 1 .382.119.4.4 0 0 1 .143.309v.006h-.186a.292.292 0 0 0-.095-.2.342.342 0 0 0-.245-.08.321.321 0 0 0-.262.121.475.475 0 0 0-.1.309v.293a.441.441 0 0 0 .11.311.366.366 0 0 0 .282.122.514.514 0 0 0 .2-.032.3.3 0 0 0 .11-.072v-.326h-.311v-.151h.5v.52zM31.387 28.42V27h.462a.557.557 0 0 1 .348.1.339.339 0 0 1 .125.287.258.258 0 0 1-.061.169.365.365 0 0 1-.158.11.324.324 0 0 1 .2.125.372.372 0 0 1 .073.229.36.36 0 0 1-.126.3.526.526 0 0 1-.342.1h-.521zm.191-.813h.311a.255.255 0 0 0 .174-.059.209.209 0 0 0 .067-.164.206.206 0 0 0-.072-.172.333.333 0 0 0-.209-.057h-.27v.451zm0 .15v.513h.332a.3.3 0 0 0 .2-.064.23.23 0 0 0 .073-.183.289.289 0 0 0-.061-.194.233.233 0 0 0-.187-.071h-.36zM32.851 27.853v.567h-.191V27h.54a.493.493 0 0 1 .352.117.44.44 0 0 1 0 .616.5.5 0 0 1-.352.115h-.349zm0-.151h.349a.257.257 0 0 0 .286-.271.282.282 0 0 0-.072-.2.276.276 0 0 0-.214-.078h-.349v.547zM34.918 28.42h-.192v-1.229h-.29v-.134l.482-.057v1.42zM35.724 28.42h-.191v-.2h.191v.2zM36.572 28.42h-.191v-1.229h-.29v-.134l.481-.057v1.42zM38.063 27.155a2.006 2.006 0 0 0-.347.541 2.428 2.428 0 0 0-.129.571l-.016.152h-.191l.016-.152a2.054 2.054 0 0 1 .159-.6 2.3 2.3 0 0 1 .321-.515h-.77V27h.957v.151zM39.053 28.573h-.207v-1.524h.207v1.524zM40.115 27.807v.613h-.191V27h.513a.537.537 0 0 1 .354.1.369.369 0 0 1 .123.3.326.326 0 0 1-.057.189.385.385 0 0 1-.166.128.291.291 0 0 1 .168.123.411.411 0 0 1 .051.211v.133a.447.447 0 0 0 .015.119.17.17 0 0 0 .051.085v.032h-.2a.16.16 0 0 1-.048-.1.739.739 0 0 1-.011-.133v-.125a.252.252 0 0 0-.067-.185.237.237 0 0 0-.18-.07h-.355zm0-.15h.3a.353.353 0 0 0 .234-.062.236.236 0 0 0 .071-.187.244.244 0 0 0-.069-.185.308.308 0 0 0-.217-.065h-.319v.5zM41.643 28.44a.441.441 0 0 1-.349-.146.549.549 0 0 1-.13-.38v-.042a.54.54 0 0 1 .136-.372.414.414 0 0 1 .317-.149.4.4 0 0 1 .321.128.51.51 0 0 1 .109.343v.119h-.684a.417.417 0 0 0 .076.249.246.246 0 0 0 .207.1.478.478 0 0 0 .171-.028.376.376 0 0 0 .127-.076l.075.125a.443.443 0 0 1-.148.093.614.614 0 0 1-.228.036zm-.028-.94a.21.21 0 0 0-.165.081.382.382 0 0 0-.083.2h.485v-.018a.29.29 0 0 0-.061-.187.214.214 0 0 0-.176-.076zM42.512 27.114v.254h.2v.142h-.2v.639a.144.144 0 0 0 .031.1.108.108 0 0 0 .081.03.163.163 0 0 0 .036 0 .223.223 0 0 0 .035-.01l.026.131a.17.17 0 0 1-.062.029.34.34 0 0 1-.083.011.247.247 0 0 1-.186-.07.308.308 0 0 1-.069-.222v-.638h-.167v-.142h.167v-.254h.191zM43.616 28.265a.345.345 0 0 1-.127.13.381.381 0 0 1-.448-.063.509.509 0 0 1-.1-.343v-.62h.192v.621a.391.391 0 0 0 .049.231.186.186 0 0 0 .155.063.315.315 0 0 0 .168-.041.262.262 0 0 0 .1-.117v-.758h.195v1.052h-.171zM44.578 27.537l-.1-.006a.215.215 0 0 0-.128.036.226.226 0 0 0-.08.1v.753h-.19v-1.052h.172l.019.153a.353.353 0 0 1 .11-.127.256.256 0 0 1 .15-.046.27.27 0 0 1 .041 0l.028.011zM44.934 27.368l.014.156a.373.373 0 0 1 .132-.13.354.354 0 0 1 .18-.046.345.345 0 0 1 .264.1.436.436 0 0 1 .094.308v.664h-.194v-.66a.282.282 0 0 0-.055-.2.219.219 0 0 0-.169-.06.269.269 0 0 0-.146.04.275.275 0 0 0-.1.109v.771h-.192v-1.052h.172zM46.913 28.42h-.192v-1.229h-.29v-.134l.482-.057v1.42zM47.749 27.624h.168a.223.223 0 0 0 .18-.063.268.268 0 0 0 .054-.178.258.258 0 0 0-.061-.183.231.231 0 0 0-.178-.063.245.245 0 0 0-.18.065.232.232 0 0 0-.067.175h-.184v-.006a.338.338 0 0 1 .119-.271.51.51 0 0 1 .629-.008.378.378 0 0 1 .117.3.329.329 0 0 1-.054.175.333.333 0 0 1-.158.132.312.312 0 0 1 .18.132.377.377 0 0 1 .054.2.386.386 0 0 1-.127.3.48.48 0 0 1-.324.11.488.488 0 0 1-.32-.1.332.332 0 0 1-.122-.283v-.006h.183a.232.232 0 0 0 .068.177.261.261 0 0 0 .188.066.264.264 0 0 0 .19-.066.257.257 0 0 0 .069-.194.263.263 0 0 0-.062-.192.26.26 0 0 0-.193-.062h-.169v-.15zM48.84 28.42h-.191v-.2h.191v.2zM49.4 27.624h.168a.223.223 0 0 0 .18-.063.268.268 0 0 0 .054-.178.258.258 0 0 0-.061-.185.231.231 0 0 0-.178-.063.245.245 0 0 0-.18.065.232.232 0 0 0-.067.175h-.181v-.006a.338.338 0 0 1 .115-.269.51.51 0 0 1 .629-.008.378.378 0 0 1 .117.3.329.329 0 0 1-.054.175.333.333 0 0 1-.158.132.312.312 0 0 1 .18.132.377.377 0 0 1 .054.2.386.386 0 0 1-.127.3.48.48 0 0 1-.324.11.488.488 0 0 1-.32-.1.332.332 0 0 1-.122-.283v-.006h.183a.232.232 0 0 0 .068.177.261.261 0 0 0 .188.066.264.264 0 0 0 .19-.066.257.257 0 0 0 .069-.194.263.263 0 0 0-.062-.192.26.26 0 0 0-.193-.062H49.4v-.15zM50.249 27.276a.294.294 0 0 1 .079-.208.312.312 0 0 1 .426 0 .287.287 0 0 1 .08.208v.075a.29.29 0 0 1-.079.207.278.278 0 0 1-.212.084.282.282 0 0 1-.214-.084.287.287 0 0 1-.08-.207v-.075zm.142.075a.19.19 0 0 0 .039.122.137.137 0 0 0 .113.05.132.132 0 0 0 .11-.05.192.192 0 0 0 .039-.122v-.075a.2.2 0 0 0-.04-.123.132.132 0 0 0-.111-.051.13.13 0 0 0-.111.051.2.2 0 0 0-.039.123v.075zm.2.962l-.105-.065.69-1.106.106.065zm.342-.24a.292.292 0 0 1 .079-.208.312.312 0 0 1 .426 0 .289.289 0 0 1 .08.208v.075a.291.291 0 0 1-.08.209.277.277 0 0 1-.211.083.282.282 0 0 1-.214-.083.291.291 0 0 1-.08-.209v-.075zm.142.075a.191.191 0 0 0 .039.123.135.135 0 0 0 .113.051.13.13 0 0 0 .11-.051.2.2 0 0 0 .039-.123v-.075a.2.2 0 0 0-.04-.123.149.149 0 0 0-.223 0 .2.2 0 0 0-.039.123v.075zM44.858 13.255v.611h-.206v-1.524h.583a.537.537 0 0 1 .38.126.475.475 0 0 1 0 .663.541.541 0 0 1-.38.125h-.377zm0-.163h.377a.277.277 0 0 0 .309-.292.305.305 0 0 0-.077-.211.3.3 0 0 0-.231-.084h-.378v.588zM46.672 13.867a1.628 1.628 0 0 1-.016-.091.7.7 0 0 1-.007-.079.482.482 0 0 1-.15.136.378.378 0 0 1-.2.055.371.371 0 0 1-.27-.09.332.332 0 0 1-.093-.25.293.293 0 0 1 .131-.254.616.616 0 0 1 .356-.092h.225v-.111a.209.209 0 0 0-.061-.158.24.24 0 0 0-.172-.058.25.25 0 0 0-.162.051.155.155 0 0 0-.062.122H46v-.006a.271.271 0 0 1 .116-.226.481.481 0 0 1 .318-.1.467.467 0 0 1 .31.1.347.347 0 0 1 .117.282v.545a.924.924 0 0 0 .007.118.611.611 0 0 0 .022.111h-.218zm-.342-.152a.368.368 0 0 0 .2-.058.277.277 0 0 0 .117-.131v-.184h-.229a.3.3 0 0 0-.2.063.185.185 0 0 0-.075.147.155.155 0 0 0 .047.119.2.2 0 0 0 .14.044zM47.485 13.447l.037.143h.006l.278-.856h.229l-.477 1.307a.579.579 0 0 1-.123.2.282.282 0 0 1-.216.084.435.435 0 0 1-.063-.006.6.6 0 0 1-.061-.011l.021-.163h.092a.129.129 0 0 0 .108-.059.674.674 0 0 0 .07-.13l.049-.118-.421-1.11h.23zM48.154 13.29a.623.623 0 0 1 .136-.414.505.505 0 0 1 .742 0 .624.624 0 0 1 .137.415v.023a.621.621 0 0 1-.136.415.507.507 0 0 1-.742 0 .622.622 0 0 1-.137-.415v-.024zm.206.022a.536.536 0 0 0 .076.3.275.275 0 0 0 .45 0 .536.536 0 0 0 .076-.3v-.023a.527.527 0 0 0-.077-.3.253.253 0 0 0-.226-.118.249.249 0 0 0-.224.118.535.535 0 0 0-.076.3v.023zM50.14 13.7a.365.365 0 0 1-.331.189.366.366 0 0 1-.289-.118.548.548 0 0 1-.1-.369v-.669h.206v.667a.424.424 0 0 0 .054.249.2.2 0 0 0 .166.068.34.34 0 0 0 .183-.044.278.278 0 0 0 .108-.126v-.814h.203v1.133h-.186zM50.912 12.46v.273h.215v.153h-.215v.688a.152.152 0 0 0 .033.112.118.118 0 0 0 .087.033.2.2 0 0 0 .04 0l.038-.01.027.141a.181.181 0 0 1-.067.031.335.335 0 0 1-.09.012.269.269 0 0 1-.2-.076.33.33 0 0 1-.074-.238v-.692h-.181v-.154h.181v-.273h.206zM51.607 12.949H51.4v-.213h.206v.213zm0 .917H51.4v-.213h.206v.214zM54.148 13.6a.745.745 0 0 1-.272.206 1.069 1.069 0 0 1-.468.09.8.8 0 0 1-.588-.224.778.778 0 0 1-.228-.58v-.41a.793.793 0 0 1 .22-.58.751.751 0 0 1 .563-.224.784.784 0 0 1 .548.174.606.606 0 0 1 .2.458v.008h-.37a.384.384 0 0 0-.1-.247.392.392 0 0 0-.551.048.556.556 0 0 0-.11.358v.413a.552.552 0 0 0 .114.362.378.378 0 0 0 .309.139.719.719 0 0 0 .221-.028.331.331 0 0 0 .126-.07v-.362h-.354v-.272h.74v.741zM54.487 13.867v-1.96h.662a.938.938 0 0 1 .54.135.458.458 0 0 1 .193.4.419.419 0 0 1-.072.243.434.434 0 0 1-.209.161.414.414 0 0 1 .265.162.482.482 0 0 1 .088.287.507.507 0 0 1-.186.426.841.841 0 0 1-.526.145h-.755zm.393-1.139h.283a.4.4 0 0 0 .242-.064.222.222 0 0 0 .085-.188.236.236 0 0 0-.086-.2.419.419 0 0 0-.255-.064h-.269v.518zm0 .272v.564h.362a.367.367 0 0 0 .238-.064.246.246 0 0 0 .082-.2.311.311 0 0 0-.07-.219.285.285 0 0 0-.221-.081h-.391zM56.648 13.156v.711h-.392v-1.96h.78a.775.775 0 0 1 .532.172.628.628 0 0 1 0 .906.779.779 0 0 1-.532.171h-.388zm0-.3h.388a.326.326 0 0 0 .249-.09.318.318 0 0 0 .085-.228.336.336 0 0 0-.084-.234.324.324 0 0 0-.25-.092h-.388v.644zM59.577 13.867h-.393v-1.613h-.4v-.277l.791-.07v1.96zM61.591 13.1a.864.864 0 0 1-.179.59.61.61 0 0 1-.482.2.62.62 0 0 1-.486-.2.864.864 0 0 1-.179-.59v-.429a.867.867 0 0 1 .179-.59.679.679 0 0 1 .968 0 .862.862 0 0 1 .18.59v.429zm-.391-.47a.643.643 0 0 0-.07-.341.227.227 0 0 0-.2-.108.222.222 0 0 0-.2.107.652.652 0 0 0-.069.342v.51a.658.658 0 0 0 .069.344.228.228 0 0 0 .2.107.222.222 0 0 0 .2-.107.658.658 0 0 0 .07-.344v-.51zM62.305 13.867h-.392v-.345h.393v.345zM63.975 13.1a.864.864 0 0 1-.179.59.61.61 0 0 1-.482.2.62.62 0 0 1-.486-.2.864.864 0 0 1-.179-.59v-.429a.867.867 0 0 1 .179-.59.679.679 0 0 1 .968 0 .862.862 0 0 1 .18.59v.429zm-.392-.473a.643.643 0 0 0-.07-.341.227.227 0 0 0-.2-.108.222.222 0 0 0-.2.107.652.652 0 0 0-.069.342v.51a.658.658 0 0 0 .069.344.228.228 0 0 0 .2.107.222.222 0 0 0 .2-.107.658.658 0 0 0 .069-.344v-.507zM65.557 13.1a.864.864 0 0 1-.179.59.61.61 0 0 1-.482.2.62.62 0 0 1-.486-.2.864.864 0 0 1-.179-.59v-.429a.867.867 0 0 1 .179-.59.679.679 0 0 1 .968 0 .862.862 0 0 1 .18.59v.429zm-.392-.473a.643.643 0 0 0-.07-.341.227.227 0 0 0-.2-.108.222.222 0 0 0-.2.107.652.652 0 0 0-.069.342v.51a.658.658 0 0 0 .069.344.228.228 0 0 0 .2.107.222.222 0 0 0 .2-.107.658.658 0 0 0 .069-.344v-.507z"/><path class="cls-8" d="M11.109 12.518H9.424l.82 1.554.865-1.554zM12.02 11.638l-.347.624h.546l-.199-.624z"/><path class="cls-8" d="M9.152 12.003l.137.259h1.963l.423-.761-.642.205.239-.462.916-.292.298.937-.193.373h.712v-1.553H7.49v1.553h1.519l.143-.259zM10.236 14.844l-.123-.232H7.49v1.612h5.515v-1.612h-2.64l-.129.232zM13.005 12.518H11.53l-1.023 1.839h2.498v-1.839zM9.145 12.777l-.612 1.107h-.798v-.368h.581l.551-.998H7.49v1.839h2.489l-.834-1.58z"/></svg>