<svg width="299" height="197" xmlns="http://www.w3.org/2000/svg"><g fill="none" fill-rule="evenodd"><path fill="#F1F2F2" d="M299 0v197H0V0z"/><path d="M297.013 1.98H1.987v193.04h295.026V1.98zM299 197H0V0h299v197z" fill="#C2C2C2" fill-rule="nonzero"/><g transform="translate(0 9)"><path fill="#2A3052" fill-rule="nonzero" d="M247.483 32.207h1.01v136.068h-1.01z"/><path d="M2.94 45.948v-1.223h293.571v1.223H2.941zm0 40.897v-1.223h293.571v1.223H2.941zm0 40.894v-1.224h293.571v1.224H2.941zm0 40.857v-1.223h293.571v1.223H2.941zM37.786 24.908h1.223v161.093h-1.223V24.908zm37.161 0h1.224v161.093h-1.224V24.908zm37.123 0h1.223v161.093h-1.223V24.908zm37.16 0h1.223v161.093h-1.223V24.908zm37.122 0h1.224v161.093h-1.224V24.908zm37.123 0h1.223v161.093h-1.223V24.908zM2.94 107.273v-1.224h293.57v1.224H2.941z" fill="#DFDEDE" fill-rule="nonzero"/><path d="M2.94 60.17v-1.144h293.571v1.144H2.941zm0 80.409v-1.145h293.571v1.145H2.941z" fill="#15212D" fill-rule="nonzero"/><path fill="#C2C2C2" fill-rule="nonzero" d="M.82 21.371v-2.446h297.812v2.446z"/><path d="M21.478 102.14a.758.758 0 0 1-.67-1.359l9.063-4.461a.758.758 0 0 1 .67 1.36l-9.063 4.46zm18.125-8.922a.758.758 0 1 1-.669-1.36l9.063-4.46a.758.758 0 1 1 .67 1.359l-9.064 4.461zm18.126-8.922a.758.758 0 0 1-.669-1.36l9.063-4.46a.758.758 0 0 1 .669 1.359l-9.063 4.46zm18.126-8.922a.758.758 0 0 1-.67-1.36l9.064-4.461a.758.758 0 0 1 .669 1.36l-9.063 4.46zm18.122-6.579a.758.758 0 0 1 .154-1.507l10.05 1.024a.758.758 0 1 1-.154 1.508l-10.05-1.025zm20.1 2.049a.758.758 0 0 1 .153-1.508l10.049 1.024a.758.758 0 1 1-.154 1.508l-10.049-1.024zm20.098 2.048a.758.758 0 1 1 .153-1.508l10.05 1.024a.758.758 0 1 1-.154 1.508l-10.05-1.024zm20.098 2.048a.758.758 0 1 1 .154-1.508l10.05 1.024a.758.758 0 1 1-.154 1.508l-10.05-1.024zm29.456-1.538a.758.758 0 1 1 .59 1.395l-6.11 2.582-3.837-.391a.758.758 0 1 1 .154-1.507l3.45.351 5.753-2.43zm9.894-2.536a.758.758 0 1 1-.59-1.396l9.305-3.932a.758.758 0 0 1 .59 1.396l-9.305 3.932zm18.61-7.864a.758.758 0 1 1-.59-1.395l9.305-3.932a.758.758 0 0 1 .59 1.396l-9.305 3.931zm18.61-7.863a.758.758 0 0 1-.59-1.396l9.304-3.932a.758.758 0 0 1 .59 1.396l-9.305 3.932z" fill="#6E7287" fill-rule="nonzero"/><path d="M20.644 102.277a.758.758 0 0 1-.357-1.472l9.817-2.38a.758.758 0 1 1 .357 1.472l-9.817 2.38zm19.633-4.761a.758.758 0 1 1-.357-1.473l9.817-2.38a.758.758 0 1 1 .357 1.472l-9.817 2.38zm19.634-4.762a.758.758 0 1 1-.357-1.472L69.37 88.9a.758.758 0 0 1 .357 1.472l-9.817 2.381zm19.634-4.761a.758.758 0 1 1-.358-1.473l9.817-2.38a.758.758 0 0 1 .357 1.472l-9.816 2.38zm19.322-.272a.758.758 0 0 1 .334-1.478l9.853 2.229a.758.758 0 0 1-.335 1.478l-9.852-2.23zm19.705 4.458a.758.758 0 0 1 .334-1.478l9.852 2.229a.758.758 0 1 1-.334 1.478l-9.852-2.23zm19.704 4.458a.758.758 0 1 1 .335-1.478l9.852 2.229a.758.758 0 1 1-.334 1.478l-9.853-2.23zm19.705 4.458a.758.758 0 1 1 .335-1.478l9.852 2.229a.758.758 0 1 1-.334 1.478l-9.853-2.23zm29.652 4.775a.758.758 0 0 1 .186 1.504l-1.346.167-8.787-1.988a.758.758 0 1 1 .334-1.478l8.53 1.93 1.083-.135zm10.211.26a.758.758 0 0 1-.186-1.503l10.024-1.243a.758.758 0 1 1 .187 1.504l-10.025 1.243zm20.05-2.485a.758.758 0 0 1-.187-1.504l10.024-1.243a.758.758 0 1 1 .187 1.504l-10.025 1.243zm20.048-2.486a.758.758 0 0 1-.186-1.504l10.025-1.243a.758.758 0 1 1 .186 1.504l-10.025 1.243zm-216.907 1.175a.758.758 0 1 1 .526-1.42l9.472 3.508a.758.758 0 1 1-.526 1.42l-9.472-3.508zm18.944 7.017a.758.758 0 0 1 .527-1.42l9.472 3.508a.758.758 0 0 1-.526 1.42l-9.473-3.508zm18.945 7.018a.758.758 0 1 1 .527-1.421l9.472 3.508a.758.758 0 1 1-.526 1.421l-9.473-3.508zm18.945 7.017a.758.758 0 0 1 .526-1.421l9.473 3.509a.758.758 0 0 1-.527 1.42l-9.472-3.508zm28.945 6.954a.758.758 0 1 1 .093 1.512l-5.3.327-4.793-1.776a.758.758 0 0 1 .526-1.42l4.494 1.664 4.98-.307zm10.175.89a.758.758 0 1 1-.093-1.512l10.082-.621a.758.758 0 1 1 .093 1.512l-10.082.622zm20.165-1.242a.758.758 0 0 1-.094-1.513l10.083-.621a.758.758 0 0 1 .093 1.512l-10.082.622zm20.164-1.244a.758.758 0 1 1-.093-1.512l10.082-.621a.758.758 0 1 1 .093 1.512l-10.082.621zm20.164-1.243a.758.758 0 0 1-.093-1.512l8.658-.534 1.642.688a.758.758 0 0 1-.585 1.398l-1.316-.552-8.306.512zm18.939 3.943a.758.758 0 0 1 .585-1.398l9.317 3.903a.758.758 0 1 1-.585 1.398l-9.317-3.903zm18.633 7.806a.758.758 0 0 1 .586-1.398l9.317 3.903a.758.758 0 0 1-.586 1.397l-9.317-3.902zm18.634 7.805a.758.758 0 0 1 .586-1.397l9.317 3.903a.758.758 0 0 1-.586 1.397l-9.317-3.903z" fill="#6E7287" fill-rule="nonzero"/><ellipse fill="#FFF" opacity=".6" cx="247.621" cy="46.758" rx="8.219" ry="8.518"/><ellipse fill="#FFF" opacity=".6" cx="247.621" cy="99.023" rx="8.219" ry="8.518"/><ellipse fill="#FFF" opacity=".6" cx="248.632" cy="152.294" rx="8.219" ry="8.518"/><path d="M247.621 56.5c-5.225 0-9.442-4.371-9.442-9.742 0-5.37 4.217-9.741 9.442-9.741 5.226 0 9.443 4.37 9.443 9.741 0 5.37-4.217 9.742-9.443 9.742zm0-2.447c3.854 0 6.997-3.256 6.997-7.295 0-4.038-3.143-7.295-6.997-7.295-3.853 0-6.996 3.257-6.996 7.295 0 4.039 3.143 7.295 6.996 7.295zm0 54.712c-5.225 0-9.442-4.371-9.442-9.742 0-5.37 4.217-9.741 9.442-9.741 5.226 0 9.443 4.37 9.443 9.741 0 5.37-4.217 9.742-9.443 9.742zm0-2.447c3.854 0 6.997-3.256 6.997-7.295 0-4.038-3.143-7.295-6.997-7.295-3.853 0-6.996 3.257-6.996 7.295 0 4.039 3.143 7.295 6.996 7.295zm1.011 55.717c-5.225 0-9.443-4.37-9.443-9.741 0-5.37 4.218-9.742 9.443-9.742s9.442 4.371 9.442 9.742c0 5.37-4.217 9.741-9.442 9.741zm0-2.446c3.854 0 6.996-3.257 6.996-7.295 0-4.039-3.142-7.295-6.996-7.295-3.854 0-6.997 3.256-6.997 7.295 0 4.038 3.143 7.295 6.997 7.295z" fill="#E88024" fill-rule="nonzero"/><ellipse fill="#FFF" opacity=".916" cx="24.382" cy="100.028" rx="8.219" ry="8.518"/><path d="M24.382 109.77c-5.225 0-9.443-4.371-9.443-9.742 0-5.37 4.218-9.741 9.443-9.741s9.442 4.37 9.442 9.741c0 5.371-4.217 9.742-9.442 9.742zm0-2.447c3.854 0 6.996-3.256 6.996-7.295 0-4.038-3.142-7.295-6.996-7.295-3.854 0-6.997 3.257-6.997 7.295 0 4.039 3.143 7.295 6.997 7.295z" fill="#E88024" fill-rule="nonzero"/><path fill="#2A3052" fill-rule="nonzero" d="M259.352 98.801v-1.515h34.85V98.8z"/><path d="M27.244 8.115c-.108 1.144-.532 2.035-1.272 2.676-.74.64-1.724.96-2.952.96-.859 0-1.614-.2-2.268-.607-.653-.405-1.157-.98-1.513-1.726-.355-.745-.54-1.612-.555-2.599v-1c0-1.012.18-1.902.54-2.673.36-.77.878-1.364 1.55-1.781.674-.418 1.452-.627 2.335-.627 1.189 0 2.145.322 2.87.965.726.644 1.147 1.551 1.265 2.724H25.38c-.088-.77-.313-1.327-.677-1.667-.363-.342-.894-.513-1.594-.513-.814 0-1.44.297-1.876.888-.436.592-.66 1.459-.67 2.603v.949c0 1.159.21 2.042.627 2.65.416.61 1.026.913 1.83.913.735 0 1.287-.164 1.657-.493.37-.33.605-.876.703-1.642h1.864zm6.282 3.49c-.078-.152-.147-.4-.207-.744a2.805 2.805 0 0 1-2.1.89c-.805 0-1.46-.228-1.969-.683a2.186 2.186 0 0 1-.761-1.694c0-.849.316-1.5.95-1.955.634-.453 1.54-.68 2.719-.68h1.103v-.523c0-.412-.116-.743-.348-.99-.232-.248-.586-.372-1.058-.372-.41 0-.745.102-1.006.306a.943.943 0 0 0-.392.776h-1.798c0-.436.145-.844.436-1.226.29-.38.687-.678 1.188-.894a4.19 4.19 0 0 1 1.676-.324c.936 0 1.684.235 2.241.704.558.467.844 1.127.859 1.976v3.592c0 .717.1 1.289.303 1.715v.126h-1.836zm-1.974-1.289c.354 0 .688-.085 1.002-.257.313-.172.55-.402.707-.693v-1.5h-.97c-.666 0-1.166.115-1.502.346-.335.23-.503.557-.503.98 0 .342.115.616.344.82.23.204.537.305.922.305zm7.302 1.289h-1.798V.297h1.798v11.308zm3.869 0h-1.798V.297h1.798v11.308zm11.534-2.761c0-.47-.166-.835-.499-1.09-.333-.254-.934-.513-1.802-.773s-1.558-.549-2.07-.868c-.982-.613-1.473-1.413-1.473-2.4 0-.864.353-1.575 1.06-2.135.708-.56 1.627-.84 2.758-.84.749 0 1.417.138 2.004.413a3.287 3.287 0 0 1 1.384 1.174c.335.508.503 1.07.503 1.69h-1.865c0-.56-.176-.998-.529-1.315-.352-.316-.857-.474-1.513-.474-.611 0-1.086.13-1.424.39-.338.26-.506.623-.506 1.09 0 .391.181.72.547.982.365.263.967.518 1.805.766.839.248 1.511.53 2.02.847.507.316.88.68 1.117 1.09.237.41.355.889.355 1.439 0 .892-.343 1.603-1.032 2.13-.687.528-1.621.791-2.8.791a5.286 5.286 0 0 1-2.15-.43c-.653-.287-1.162-.683-1.523-1.189-.364-.505-.545-1.094-.545-1.767h1.872c0 .61.202 1.08.606 1.414.405.334.985.5 1.74.5.651 0 1.141-.13 1.468-.393.329-.262.492-.61.492-1.042zm10.35-1.141c0 1.232-.28 2.215-.842 2.949-.563.733-1.317 1.1-2.265 1.1-.878 0-1.58-.287-2.108-.861v3.776h-1.798V3.64h1.656l.075.81c.528-.638 1.246-.957 2.153-.957.977 0 1.742.362 2.298 1.086.554.724.831 1.729.831 3.015v.11zm-1.79-.155c0-.794-.158-1.425-.477-1.892-.318-.466-.773-.7-1.365-.7-.735 0-1.263.302-1.583.906v3.534c.325.619.859.928 1.598.928.572 0 1.02-.23 1.343-.688.324-.46.484-1.155.484-2.088zm7.503-2.275a4.47 4.47 0 0 0-.733-.058c-.824 0-1.379.314-1.665.942v5.448h-1.798V3.639h1.718l.043.89c.434-.69 1.037-1.037 1.805-1.037.257 0 .469.035.637.103l-.007 1.678zm4.66 6.478c-1.14 0-2.062-.356-2.77-1.07-.708-.714-1.061-1.666-1.061-2.853v-.22c0-.796.153-1.506.462-2.132.284-.6.734-1.106 1.298-1.46a3.445 3.445 0 0 1 1.864-.524c1.091 0 1.933.346 2.527 1.038.595.692.892 1.671.892 2.938v.721h-5.23c.053.658.274 1.177.66 1.56.388.383.875.575 1.462.575.824 0 1.495-.332 2.013-.995l.97.92c-.322.478-.766.86-1.286 1.11a4.051 4.051 0 0 1-1.8.392zm-.214-6.824c-.494 0-.892.173-1.195.516-.303.343-.497.821-.58 1.436h3.424v-.133c-.039-.6-.2-1.051-.48-1.358-.28-.307-.67-.46-1.169-.46v-.001zm9.6 6.678c-.078-.152-.147-.4-.207-.744a2.805 2.805 0 0 1-2.1.89c-.805 0-1.46-.228-1.968-.683a2.186 2.186 0 0 1-.762-1.694c0-.849.316-1.5.95-1.955.634-.453 1.54-.68 2.72-.68h1.1v-.523c0-.412-.114-.743-.346-.99-.232-.248-.585-.372-1.058-.372-.41 0-.745.102-1.006.306a.943.943 0 0 0-.392.776h-1.798c0-.436.145-.844.436-1.226.29-.38.687-.678 1.188-.894a4.19 4.19 0 0 1 1.676-.324c.936 0 1.684.235 2.241.704.558.467.844 1.127.859 1.976v3.592c0 .717.1 1.289.303 1.715v.126h-1.836zm-1.974-1.289a2.05 2.05 0 0 0 1.002-.257c.313-.172.55-.402.707-.693v-1.5h-.97c-.666 0-1.166.115-1.501.346-.336.23-.504.557-.504.98 0 .342.115.616.344.82.23.204.537.305.922.305zm5.052-2.753c0-1.226.287-2.211.859-2.955.572-.744 1.34-1.116 2.301-1.116.849 0 1.533.295 2.057.884V.297h1.798v11.308H92.83l-.088-.825c-.538.648-1.255.971-2.152.971-.938 0-1.697-.375-2.276-1.125-.58-.751-.869-1.772-.869-3.063h-.002zm1.798.155c0 .809.157 1.441.47 1.895.313.454.759.68 1.336.68.735 0 1.272-.325 1.613-.978V5.914c-.33-.638-.864-.957-1.598-.957-.582 0-1.03.229-1.347.688-.316.46-.474 1.15-.474 2.073z" fill="#000" fill-rule="nonzero"/><path d="M233.834 175.366h-3.318v2.472h3.879v1.116h-5.283v-8.039h5.243v1.126h-3.84v2.22h3.32v1.104zm2.825-2.386l.038.69c.444-.533 1.026-.8 1.747-.8 1.251 0 1.887.712 1.91 2.136v3.948h-1.349v-3.87c0-.38-.082-.66-.246-.842-.165-.183-.435-.273-.809-.273-.543 0-.948.244-1.214.733v4.252h-1.348v-5.974h1.27zm4.816 2.943c0-.92.214-1.659.643-2.217.43-.557 1.004-.836 1.726-.836.636 0 1.151.221 1.542.663v-3.059h1.349v8.48h-1.22l-.067-.618c-.404.485-.942.729-1.616.729-.702 0-1.27-.282-1.706-.845-.434-.563-.651-1.33-.651-2.297zm1.348.116c0 .607.118 1.08.352 1.422.235.34.569.51 1.002.51.551 0 .955-.244 1.21-.734v-2.55c-.248-.479-.647-.718-1.199-.718-.436 0-.773.17-1.01.515-.236.345-.355.863-.355 1.555zM10.094 125.623c0-.353-.124-.625-.373-.817-.251-.19-.702-.385-1.352-.58-.652-.195-1.169-.412-1.554-.651-.736-.46-1.104-1.06-1.104-1.8 0-.647.265-1.181.796-1.601.53-.42 1.22-.63 2.067-.63.563 0 1.064.104 1.504.31.44.206.786.5 1.038.88.252.381.377.805.377 1.267h-1.399c0-.42-.131-.748-.396-.985-.264-.237-.643-.356-1.135-.356-.459 0-.814.098-1.068.292-.253.196-.38.468-.38.818 0 .294.137.54.41.737.273.197.726.389 1.354.573.63.186 1.134.398 1.515.636.381.237.66.51.839.817.176.307.265.667.265 1.08 0 .67-.257 1.202-.773 1.597-.517.396-1.217.593-2.101.593a3.965 3.965 0 0 1-1.612-.321c-.49-.216-.871-.513-1.143-.893a2.214 2.214 0 0 1-.408-1.324h1.404c0 .456.151.81.454 1.06.304.25.739.375 1.306.375.487 0 .854-.099 1.1-.296a.951.951 0 0 0 .37-.78zm4.195-5.355v1.452h1.061v.995h-1.06v3.334c0 .228.045.393.136.494.09.1.252.15.485.15.155 0 .313-.017.471-.053v1.038a3.337 3.337 0 0 1-.888.126c-1.035 0-1.553-.568-1.553-1.706v-3.384h-.988v-.994h.988v-1.452h1.348zm5.677 7.426c-.06-.115-.11-.3-.155-.558a2.104 2.104 0 0 1-1.576.668c-.603 0-1.095-.17-1.476-.513a1.639 1.639 0 0 1-.572-1.27c0-.637.238-1.125.714-1.466.474-.34 1.154-.51 2.038-.51h.827v-.393c0-.31-.087-.556-.26-.742-.174-.186-.439-.279-.794-.279-.307 0-.559.077-.755.23a.708.708 0 0 0-.294.582h-1.348c0-.328.109-.635.327-.92a2.18 2.18 0 0 1 .89-.67 3.142 3.142 0 0 1 1.258-.243c.703 0 1.262.175 1.681.527.418.351.633.845.644 1.482v2.694c0 .538.076.967.227 1.286v.095h-1.376zm-1.482-.966c.267 0 .518-.064.752-.194a1.29 1.29 0 0 0 .53-.519v-1.125h-.727c-.499 0-.875.086-1.126.259a.839.839 0 0 0-.377.734c0 .258.086.462.258.616.171.153.402.229.69.229zm7.187-3.782a3.353 3.353 0 0 0-.55-.044c-.618 0-1.034.235-1.248.706v4.086h-1.349v-5.974h1.287l.033.668c.327-.519.778-.778 1.354-.778.193 0 .352.025.478.076l-.005 1.26zm2.54-2.678v1.452h1.06v.995h-1.06v3.334c0 .228.046.393.136.494.091.1.253.15.485.15.157 0 .313-.017.473-.053v1.038c-.29.082-.588.124-.889.126-1.035 0-1.552-.568-1.552-1.706v-3.384h-.988v-.994h.988v-1.452h1.347zm21.584-66.952H48.75l.65-3.716h-3.945l-.65 3.716h-1.043l1.404-8.038h1.044l-.606 3.456h3.94l.605-3.456H51.2l-1.404 8.038zm2.813 0h-1l1.044-5.974h1l-1.044 5.974zm.827-8.154a.551.551 0 0 1 .424.15c.114.11.17.252.17.429a.598.598 0 0 1-.17.425.609.609 0 0 1-.424.177.538.538 0 0 1-.589-.569.624.624 0 0 1 .167-.43.588.588 0 0 1 .422-.182zm1.11 5.156c.088-.651.265-1.217.53-1.698.264-.48.585-.835.965-1.065a2.247 2.247 0 0 1 1.246-.329c.695.015 1.22.277 1.576.784l.2-.668h.92l-1 5.848c-.105.762-.416 1.372-.93 1.829-.515.46-1.15.677-1.904.655a2.713 2.713 0 0 1-1.167-.287 2.218 2.218 0 0 1-.88-.757l.572-.613c.362.535.841.808 1.436.824.478.014.882-.119 1.212-.398.331-.28.55-.677.659-1.193l.11-.53c-.488.486-1.06.722-1.714.707a1.772 1.772 0 0 1-.974-.302c-.276-.189-.489-.462-.64-.822a3.349 3.349 0 0 1-.251-1.2 6.14 6.14 0 0 1 .033-.785zm.971.569c-.011.527.08.935.275 1.223.194.289.487.44.879.456.599.015 1.115-.279 1.548-.878l.472-2.744c-.222-.546-.623-.83-1.204-.851-.545-.014-.99.207-1.34.663-.35.456-.556 1.073-.619 1.85l-.011.281zm6.853-2.816c.525-.57 1.13-.849 1.814-.834.563.008.98.2 1.252.577.271.377.372.907.302 1.588l-.655 3.914h-1.004l.66-3.93a2.13 2.13 0 0 0 .006-.503c-.064-.516-.37-.78-.917-.79-.614-.014-1.142.305-1.586.96l-.744 4.263h-1.004l1.482-8.48h1.004l-.61 3.236v-.001zm7.19 5.245l1.405-8.038 2.369.005c.825 0 1.442.184 1.853.552.41.368.59.882.539 1.54-.067.77-.554 1.35-1.46 1.739.363.14.633.38.813.719.18.338.253.711.22 1.12-.056.725-.348 1.3-.877 1.726-.53.425-1.213.637-2.054.637H69.56zm1.698-3.759l-.505 2.893 1.648.005c.503 0 .926-.135 1.266-.402.34-.27.539-.632.594-1.089.05-.434-.024-.774-.228-1.015-.203-.244-.523-.372-.96-.387l-1.814-.006-.001.001zm.15-.851l1.505.006c.47 0 .866-.12 1.19-.359.323-.24.513-.569.568-.989.049-.39-.028-.683-.23-.883-.202-.198-.535-.307-1.001-.326l-1.588-.005-.444 2.556zm8.59 4.61a1.331 1.331 0 0 1-.039-.314l.016-.315c-.55.508-1.135.754-1.752.74-.53-.007-.96-.174-1.291-.5-.33-.325-.482-.733-.452-1.223.037-.633.316-1.128.836-1.482.519-.355 1.202-.533 2.05-.533l1.048.005.066-.474c.038-.357-.032-.64-.208-.848-.175-.208-.439-.315-.79-.322a1.554 1.554 0 0 0-.913.25 1.07 1.07 0 0 0-.485.693l-1.01.005c.034-.35.17-.659.41-.93.24-.27.55-.48.927-.629.378-.15.767-.22 1.171-.213.625.015 1.112.203 1.46.566.347.362.494.845.438 1.445l-.488 2.959-.029.425c-.007.202.015.402.067.602l-.01.093h-1.022zm-1.576-.773c.322.007.626-.069.913-.229.287-.16.533-.382.74-.665l.218-1.231-.761-.005c-.632 0-1.117.098-1.455.297-.335.2-.526.48-.57.844-.034.28.032.513.197.7.164.186.404.281.718.29zm7.691-4.29l-.472-.05c-.643 0-1.15.29-1.52.868l-.737 4.245h-1.005l1.043-5.974.97-.005-.149.696c.424-.556.927-.827 1.503-.812.123 0 .282.028.478.083l-.111.95zm3.784 0l-.472-.05c-.643 0-1.15.29-1.52.868l-.737 4.245H86.16l1.044-5.974.97-.005-.149.696c.425-.556.927-.827 1.504-.812.122 0 .281.028.477.083l-.111.95zm1.137 5.063h-.998l1.043-5.974h1l-1.045 5.974zm.828-8.154a.551.551 0 0 1 .424.15.57.57 0 0 1 .17.429.598.598 0 0 1-.17.425.609.609 0 0 1-.424.177.538.538 0 0 1-.589-.569.624.624 0 0 1 .166-.43.588.588 0 0 1 .423-.182zm3.412 8.265c-.748-.015-1.331-.29-1.754-.823-.42-.533-.599-1.216-.532-2.049l.027-.237c.064-.593.24-1.134.53-1.623.29-.49.645-.858 1.063-1.107a2.489 2.489 0 0 1 1.354-.356c.618.015 1.103.219 1.454.614.35.393.544.926.576 1.6.012.239.004.478-.021.717l-.06.459h-3.924c-.067.541.023 1 .269 1.38.246.38.613.577 1.1.59.593.016 1.14-.25 1.644-.793l.576.485a2.63 2.63 0 0 1-.973.847 2.76 2.76 0 0 1-1.33.296zm.638-5.361a1.47 1.47 0 0 0-1.085.419c-.309.291-.553.723-.735 1.297l2.92.006.02-.088c.061-.463-.015-.85-.224-1.156-.209-.308-.508-.467-.896-.478zm6.392.188l-.471-.05c-.644 0-1.15.289-1.52.867l-.738 4.245H98.57l1.043-5.974.971-.005-.15.696c.425-.556.927-.827 1.504-.812.122 0 .282.028.478.083l-.112.95zm163.589-12.56h-3.285l-.621 3.55h-1.044l1.404-8.038h4.861l-.156.873h-3.818l-.477 2.748h3.291l-.155.868zm4.856 2.96c-.471.482-1.068.717-1.793.701-.573-.015-.998-.219-1.273-.613-.276-.394-.379-.93-.308-1.612l.643-3.86h1.004l-.65 3.877a2.561 2.561 0 0 0-.01.475c.019.265.099.472.239.623.14.15.336.232.588.243.717.022 1.273-.266 1.665-.866l.754-4.351h1.004l-1.042 5.974h-.95l.129-.591zm3.406.59h-.998l1.474-8.48h1.006l-1.482 8.48zm2.73 0h-.999l1.476-8.48h1.005l-1.482 8.48zm-10.659 10.108a4.723 4.723 0 0 1-.495 1.64c-.254.486-.57.849-.948 1.09-.373.24-.81.36-1.254.345-.696-.014-1.228-.248-1.598-.7l-.538 2.88h-1.004l1.442-8.27.91-.005-.11.668c.494-.53 1.089-.788 1.78-.774.578.015 1.027.227 1.348.636.323.409.492.971.512 1.69.003.235-.006.463-.029.684l-.016.116zm-.988-.116l.028-.464c0-.537-.103-.949-.309-1.234-.205-.285-.502-.435-.89-.45-.58-.014-1.081.26-1.504.823l-.505 2.864c.227.531.632.805 1.216.819.5.01.924-.183 1.272-.583.35-.4.581-.991.692-1.775zm5.465 3.075a1.331 1.331 0 0 1-.038-.314l.017-.315c-.552.508-1.137.754-1.754.74-.529-.007-.96-.174-1.29-.5-.331-.325-.482-.733-.452-1.223.037-.633.315-1.128.835-1.482.52-.355 1.202-.533 2.05-.533l1.05.005.065-.475c.037-.356-.032-.639-.208-.847-.175-.208-.439-.315-.79-.323a1.554 1.554 0 0 0-.913.252 1.07 1.07 0 0 0-.485.692l-1.01.005c.033-.35.17-.659.41-.93.24-.27.55-.48.927-.629.377-.15.768-.22 1.17-.213.625.015 1.112.203 1.46.566.348.362.495.844.438 1.445l-.488 2.959-.028.425c-.007.202.015.402.066.602l-.01.093h-1.022zm-1.576-.773c.324.007.627-.07.913-.229.287-.16.534-.382.74-.665l.218-1.231-.76-.006c-.633 0-1.118.099-1.455.298-.336.199-.525.48-.57.844-.034.28.031.513.196.7.165.186.404.281.72.29h-.002zm6.11-.733l2.136-4.468h1.11l-3.563 6.968c-.495.968-1.131 1.447-1.909 1.436a3.286 3.286 0 0 1-.604-.1l.09-.828.26.028c.318.014.593-.056.824-.213.231-.157.435-.41.613-.759l.36-.684-1.037-5.848h1.049l.67 4.467zm6.453-4.578c.503.007.935.143 1.293.408.359.266.625.63.796 1.096.172.466.23.975.175 1.528l-.01.12a4.004 4.004 0 0 1-.522 1.576c-.26.45-.63.828-1.077 1.096-.44.261-.922.386-1.448.37-.5-.006-.929-.143-1.29-.408a2.27 2.27 0 0 1-.79-1.082 3.468 3.468 0 0 1-.178-1.507 4.056 4.056 0 0 1 .505-1.668c.257-.468.63-.862 1.085-1.146a2.6 2.6 0 0 1 1.461-.383zm-2.041 3.203a3.332 3.332 0 0 0 0 .723c.036.433.167.78.39 1.038.224.257.523.392.897.402.333.012.64-.07.921-.246.28-.175.518-.438.71-.792.196-.365.322-.764.372-1.176.03-.338.035-.623.016-.855-.043-.445-.179-.797-.404-1.055-.226-.258-.525-.393-.9-.408-.517-.011-.958.19-1.32.607-.363.416-.586.96-.671 1.634l-.011.128zm8.86 2.291c-.469.482-1.066.716-1.791.7-.574-.014-.998-.218-1.273-.612-.277-.394-.379-.931-.31-1.613l.644-3.86h1.005l-.65 3.878a2.561 2.561 0 0 0-.01.474c.018.265.098.472.238.623.142.15.338.232.59.243.716.022 1.272-.266 1.664-.866l.754-4.351h1.004l-1.043 5.974h-.95l.129-.59zm4.973-6.83l-.256 1.447h1.093l-.138.789h-1.088l-.627 3.716a1.29 1.29 0 0 0-.006.264c.027.288.184.431.472.431.122 0 .285-.018.489-.055l-.078.834c-.24.066-.485.099-.732.099-.4-.007-.7-.154-.9-.438-.2-.286-.277-.67-.232-1.152l.61-3.7h-1.06l.138-.79h1.061l.255-1.445h.999zM267.08 155.738a1.052 1.052 0 0 0-.239-.828c-.196-.236-.528-.442-.996-.621-.467-.179-.84-.38-1.118-.605-.547-.445-.795-1.028-.743-1.75.04-.603.26-1.104.656-1.5.398-.395.925-.635 1.58-.72l.216-1.208h.81l-.222 1.225c.548.106.956.382 1.223.825.27.444.375 1.02.32 1.726h-.993c.03-.541-.05-.956-.242-1.246-.19-.288-.47-.439-.84-.45-.418-.007-.764.11-1.036.352-.271.241-.429.565-.474.974-.033.316.036.589.209.817.172.228.51.442 1.018.643.506.201.89.41 1.154.63.262.219.454.47.574.753.12.284.167.607.142.972-.049.63-.284 1.137-.707 1.524-.425.386-.986.616-1.685.69l-.19 1.055h-.803l.194-1.066c-.606-.088-1.065-.348-1.376-.779-.311-.43-.446-.988-.405-1.673h1.004c-.04.482.047.867.264 1.155.216.286.543.434.98.441.47.007.862-.11 1.178-.356.312-.236.51-.592.547-.98zm4.422 2.22c-.68-.016-1.192-.256-1.531-.721-.34-.466-.495-1.136-.466-2.012.007-.273.027-.542.06-.806l.2-1.342c.177-1.145.516-2 1.016-2.562.499-.563 1.157-.836 1.976-.817.687.015 1.2.249 1.54.703.338.455.494 1.116.468 1.98a9.17 9.17 0 0 1-.067.811l-.194 1.298c-.196 1.211-.542 2.097-1.037 2.655-.496.56-1.152.83-1.965.813zm2.225-4.948c.052-.445.076-.79.072-1.038-.018-.935-.383-1.415-1.093-1.44a1.462 1.462 0 0 0-1.256.57c-.32.4-.544 1.026-.67 1.88l-.238 1.602a8.09 8.09 0 0 0-.072 1.044c.019.975.382 1.475 1.088 1.501.492.022.898-.159 1.218-.54.32-.383.548-.991.685-1.823l.266-1.756zM260.96 90.373l-.55 3.147h-1.043l1.404-8.038 2.697.005c.833 0 1.474.22 1.926.66.45.44.645 1.024.582 1.753-.066.769-.374 1.375-.924 1.816-.55.442-1.272.663-2.171.663l-1.92-.006zm.15-.867l1.798.006c.566 0 1.03-.142 1.392-.425.363-.284.576-.678.638-1.182.06-.452-.035-.82-.283-1.1-.247-.282-.608-.43-1.081-.446l-1.915-.005-.55 3.152zm8.784 4.014a1.331 1.331 0 0 1-.04-.314l.018-.315c-.552.508-1.137.754-1.754.74-.53-.007-.96-.174-1.29-.5-.331-.325-.482-.733-.452-1.223.037-.633.315-1.127.835-1.482s1.202-.533 2.05-.533l1.05.005.066-.474c.036-.357-.034-.64-.208-.848-.176-.208-.44-.315-.791-.322a1.554 1.554 0 0 0-.913.25 1.07 1.07 0 0 0-.485.693l-1.01.005c.033-.35.17-.659.41-.93.24-.27.55-.48.927-.628.377-.15.768-.222 1.17-.214.626.016 1.112.204 1.46.566.348.362.494.845.438 1.445l-.488 2.959-.028.425c-.007.202.015.402.066.602l-.01.093h-1.021zm-1.576-.773c.321.008.626-.069.912-.229a2.32 2.32 0 0 0 .742-.665l.216-1.231-.76-.005c-.633 0-1.118.098-1.454.297-.337.2-.528.48-.572.844-.033.28.032.513.197.7.165.186.404.281.72.29zm6.11-.733l2.135-4.468h1.11l-3.563 6.968c-.495.968-1.131 1.447-1.909 1.436a3.286 3.286 0 0 1-.604-.1l.089-.828.26.028c.319.014.594-.056.825-.213.231-.157.435-.409.613-.759l.36-.684-1.037-5.848h1.049l.671 4.467zm6.452-4.577c.503.007.935.142 1.293.408.359.265.624.63.796 1.095.172.467.23.975.175 1.528l-.01.12a4.004 4.004 0 0 1-.522 1.577c-.26.45-.63.827-1.077 1.095-.44.261-.922.386-1.448.371-.5-.007-.93-.144-1.29-.41a2.27 2.27 0 0 1-.79-1.08 3.468 3.468 0 0 1-.178-1.508 4.056 4.056 0 0 1 .505-1.668c.257-.468.63-.862 1.085-1.146a2.6 2.6 0 0 1 1.461-.382zm-2.041 3.202a3.332 3.332 0 0 0 0 .723c.036.434.166.78.39 1.038.224.257.523.392.897.402.333.012.64-.07.92-.245.282-.175.52-.439.711-.793.196-.365.322-.764.372-1.175.03-.34.035-.624.017-.856-.045-.445-.18-.797-.405-1.055-.226-.257-.525-.393-.9-.408-.517-.011-.958.19-1.32.607-.363.416-.586.96-.671 1.634l-.011.128zm8.86 2.291c-.47.482-1.066.716-1.791.701-.574-.015-.998-.22-1.273-.613-.277-.394-.379-.93-.31-1.612l.645-3.86h1.004l-.65 3.877a2.561 2.561 0 0 0-.01.474c.018.266.098.473.238.623.141.151.337.233.589.244.717.022 1.273-.267 1.665-.867l.754-4.35h1.004l-1.043 5.973h-.95l.129-.59zm4.973-6.83l-.256 1.447h1.094l-.14.79h-1.086l-.628 3.715a1.29 1.29 0 0 0-.006.264c.027.288.184.431.472.431.122 0 .285-.018.489-.055l-.078.834c-.24.066-.485.099-.732.099-.4-.007-.7-.154-.9-.438-.2-.286-.277-.67-.233-1.152l.61-3.699h-1.06l.14-.79h1.06l.254-1.446h1zm-14.254 24.507h-5.142l.121-.779 2.98-2.881.544-.536c.626-.622.971-1.196 1.038-1.723.048-.405-.031-.735-.239-.99-.207-.256-.5-.392-.876-.406-.485-.015-.89.126-1.215.422-.326.297-.524.702-.594 1.217l-.993.006c.047-.493.2-.93.457-1.311a2.546 2.546 0 0 1 1.015-.879c.42-.204.876-.3 1.368-.29.67.016 1.202.217 1.596.606.394.388.563.891.507 1.51-.062.706-.472 1.45-1.226 2.23l-.51.513-2.597 2.458h3.9l-.132.833h-.002zM44.961 152.96h3.718l-.155.867h-4.76l1.403-8.04h1.049l-1.254 7.173zm7.97-5.217c.502.007.932.142 1.292.408.359.265.624.63.796 1.095.172.467.23.975.175 1.528l-.011.12a4.004 4.004 0 0 1-.522 1.577 3.06 3.06 0 0 1-1.076 1.095 2.63 2.63 0 0 1-1.449.371c-.499-.007-.93-.144-1.29-.409a2.27 2.27 0 0 1-.79-1.081 3.468 3.468 0 0 1-.178-1.508 4.056 4.056 0 0 1 .506-1.668c.256-.468.63-.862 1.083-1.145a2.61 2.61 0 0 1 1.463-.383zm-2.043 3.202a3.464 3.464 0 0 0 0 .724c.037.433.167.78.392 1.037.223.257.522.392.895.402a1.6 1.6 0 0 0 .922-.245c.28-.175.517-.439.71-.792.196-.366.322-.765.372-1.176.03-.34.035-.624.016-.856-.045-.445-.179-.797-.404-1.055-.227-.257-.526-.393-.9-.408-.518-.011-.959.19-1.32.607-.363.416-.586.96-.672 1.634l-.01.128h-.001zm10.437 1.467l1.915-4.56h1.037l-2.736 5.975h-.815l-.622-4.516-2.163 4.516h-.815l-.65-5.975h.96l.367 4.45 2.131-4.45h.81l.582 4.561zm5.893 1.415l1.405-8.04 2.368.006c.826 0 1.443.185 1.854.553.41.367.59.881.538 1.54-.066.77-.553 1.35-1.46 1.738.363.14.634.38.814.719a2 2 0 0 1 .219 1.12c-.056.725-.348 1.301-.877 1.726-.53.425-1.213.638-2.053.638h-2.809.001zm1.697-3.76l-.505 2.893 1.649.005c.503 0 .925-.135 1.266-.402.34-.27.537-.632.593-1.088.052-.435-.024-.774-.228-1.016-.203-.244-.523-.371-.96-.387l-1.814-.006v.001zm.151-.85l1.504.005c.47 0 .866-.12 1.19-.359.323-.239.513-.569.569-.989.048-.39-.029-.683-.23-.883-.203-.198-.536-.307-1.003-.326l-1.586-.005-.444 2.556zm8.59 4.61a1.331 1.331 0 0 1-.04-.315l.017-.315c-.55.508-1.135.754-1.753.74-.529-.007-.96-.174-1.29-.5-.33-.325-.482-.733-.452-1.223a1.834 1.834 0 0 1 .834-1.482c.52-.355 1.203-.533 2.05-.533l1.05.005.066-.474c.037-.357-.032-.64-.208-.848-.176-.208-.44-.315-.791-.322a1.554 1.554 0 0 0-.912.251 1.07 1.07 0 0 0-.485.693l-1.01.005c.032-.35.17-.66.41-.93a2.4 2.4 0 0 1 .926-.63c.378-.15.768-.22 1.172-.212.624.015 1.111.203 1.459.565.347.362.494.845.438 1.445l-.488 2.959-.028.425c-.007.202.015.402.067.602l-.01.094h-1.023zm-1.577-.773c.323.007.627-.07.914-.23.286-.16.533-.381.74-.665l.216-1.231-.76-.005c-.632 0-1.117.098-1.454.297-.336.2-.526.48-.57.845-.034.28.031.512.196.7.165.185.404.28.718.289zm7.692-4.29l-.472-.05c-.644 0-1.15.289-1.52.867l-.738 4.246h-1.005l1.044-5.975.97-.005-.15.696c.425-.556.927-.826 1.504-.811.122 0 .282.027.478.082l-.111.95zm3.783 0l-.471-.05c-.644 0-1.15.289-1.52.867l-.738 4.246H83.82l1.043-5.975.971-.005-.15.696c.426-.556.927-.826 1.505-.811.121 0 .28.027.477.082l-.112.95zm1.138 5.063h-1l1.044-5.975h1l-1.044 5.975zm.827-8.155a.551.551 0 0 1 .424.15c.114.11.17.252.17.43a.598.598 0 0 1-.17.424.609.609 0 0 1-.424.177.538.538 0 0 1-.589-.569.624.624 0 0 1 .167-.43.588.588 0 0 1 .422-.182zm3.412 8.265c-.747-.015-1.33-.29-1.753-.823-.421-.533-.6-1.216-.533-2.048l.028-.238c.063-.593.24-1.133.53-1.623.29-.49.645-.858 1.063-1.107a2.489 2.489 0 0 1 1.353-.355c.619.014 1.102.218 1.455.613.35.393.543.926.576 1.6.012.24.004.478-.022.718l-.06.458h-3.923c-.067.542.022 1 .268 1.38.247.38.613.577 1.101.59.592.016 1.14-.25 1.643-.793l.578.485a2.642 2.642 0 0 1-.974.848 2.775 2.775 0 0 1-1.33.295zm.639-5.361a1.47 1.47 0 0 0-1.085.419c-.31.291-.555.724-.735 1.298l2.919.006.021-.089c.06-.463-.015-.85-.224-1.156-.21-.308-.508-.467-.896-.478zm6.392.188l-.472-.05c-.643 0-1.15.289-1.52.867l-.737 4.246h-1.006l1.044-5.975.97-.005-.149.696c.424-.556.926-.826 1.503-.811.123 0 .282.027.478.082l-.111.95z" fill="#2A3052" fill-rule="nonzero"/></g></g></svg>