<svg width="299" height="197" xmlns="http://www.w3.org/2000/svg"><g fill="none" fill-rule="evenodd"><path fill="#F1F2F2" d="M0 0h299v197H0z"/><path d="M1.987 1.98v193.04h295.026V1.98H1.987zM299 0v197H0V0h299z" fill="#C2C2C2" fill-rule="nonzero"/><path d="M4.887 56.168v-1.206h289.656v1.206H4.887zm0 40.33v-1.206h289.656v1.205H4.887zm0 40.329v-1.206h289.656v1.206H4.887zm0 40.292v-1.206h289.656v1.206H4.887zm34.38-141.7h1.206v158.864h-1.206V35.419zm36.665 0h1.206v158.864h-1.206V35.419zm36.627 0h1.206v158.864h-1.206V35.419zm36.665 0h1.206v158.864h-1.206V35.419zm36.628 0h1.206v158.864h-1.206V35.419zm36.627 0h1.206v158.864h-1.206V35.419zM4.887 116.643v-1.205h289.656v1.205H4.887z" fill="#DFDEDE" fill-rule="nonzero"/><path d="M4.887 65.161v-1.127h7.469v1.127H4.887zm14.938 0v-1.127h7.468v1.127h-7.468zm14.937 0v-1.127h7.469v1.127h-7.469zm14.938 0v-1.127h7.468v1.127H49.7zm14.937 0v-1.127h7.469v1.127h-7.469zm14.938 0v-1.127h7.468v1.127h-7.468zm14.937 0v-1.127h7.469v1.127h-7.469zm14.938 0v-1.127h7.468v1.127h-7.468zm14.937 0v-1.127h7.469v1.127h-7.469zm14.938 0v-1.127h7.468v1.127h-7.468zm14.937 0v-1.127h7.469v1.127h-7.469zm14.938 0v-1.127h7.468v1.127H169.2zm14.937 0v-1.127h7.469v1.127h-7.469zm14.938 0v-1.127h7.468v1.127h-7.468zm14.937 0v-1.127h7.469v1.127h-7.469zm14.938 0v-1.127h7.468v1.127h-7.468zm14.937 0v-1.127h7.469v1.127h-7.469zm14.938 0v-1.127h7.468v1.127h-7.468zm14.937 0v-1.127h7.469v1.127h-7.469zm14.938 0v-1.127h5.843v1.127H288.7z" fill="#15212D" fill-rule="nonzero"/><path fill="#2A3052" fill-rule="nonzero" d="M240.457 35.42h1.206v158.863h-1.206z"/><path d="M4.887 156.934v-1.128h7.469v1.128H4.887zm14.938 0v-1.128h7.468v1.128h-7.468zm14.937 0v-1.128h7.469v1.128h-7.469zm14.938 0v-1.128h7.468v1.128H49.7zm14.937 0v-1.128h7.469v1.128h-7.469zm14.938 0v-1.128h7.468v1.128h-7.468zm14.937 0v-1.128h7.469v1.128h-7.469zm14.938 0v-1.128h7.468v1.128h-7.468zm14.937 0v-1.128h7.469v1.128h-7.469zm14.938 0v-1.128h7.468v1.128h-7.468zm14.937 0v-1.128h7.469v1.128h-7.469zm14.938 0v-1.128h7.468v1.128H169.2zm14.937 0v-1.128h7.469v1.128h-7.469zm14.938 0v-1.128h7.468v1.128h-7.468zm14.937 0v-1.128h7.469v1.128h-7.469zm14.938 0v-1.128h7.468v1.128h-7.468zm14.937 0v-1.128h7.469v1.128h-7.469zm14.938 0v-1.128h7.468v1.128h-7.468zm14.937 0v-1.128h7.469v1.128h-7.469zm14.938 0v-1.128h5.843v1.128H288.7z" fill="#15212D" fill-rule="nonzero"/><path fill="#C2C2C2" fill-rule="nonzero" d="M2.794 35.436v-2.412h293.842v2.412z"/><path d="M21.918 117.693a1.809 1.809 0 1 1-1.471-3.305l35.745-15.92a1.809 1.809 0 0 1 1.887.257l24.958 20.574 42.309-55.255c.905-1.182 2.772-.825 3.177.608l29.834 105.657 16.355-61.963c.096-.364.302-.688.59-.929l27.356-22.788a1.809 1.809 0 0 1 2.758.546l37.375 70.913a1.809 1.809 0 1 1-3.2 1.687l-36.334-68.937-25.195 20.99-17.897 67.807c-.47 1.78-2.99 1.803-3.49.03L126.022 69.111 84.77 122.987a1.809 1.809 0 0 1-2.587.296L56.64 102.23l-34.723 15.464z" fill="#2A3052" fill-rule="nonzero"/><ellipse cx="8.11" cy="9.259" rx="8.11" ry="8.4" opacity=".6" transform="translate(232.725 146.962)" fill="#FFF"/><path d="M240.835 165.828c-5.155 0-9.316-4.31-9.316-9.607 0-5.296 4.161-9.606 9.316-9.606 5.155 0 9.317 4.31 9.317 9.606s-4.162 9.607-9.317 9.607zm0-2.413c3.804 0 6.905-3.211 6.905-7.194s-3.101-7.194-6.905-7.194c-3.803 0-6.904 3.212-6.904 7.194 0 3.983 3.1 7.194 6.904 7.194z" fill="#E88024" fill-rule="nonzero"/><ellipse cx="8.979" cy="8.4" rx="8.11" ry="8.4" opacity=".6" transform="translate(117.862 56.755)" fill="#FFF"/><path d="M126.842 74.761c-5.155 0-9.317-4.31-9.317-9.606s4.162-9.606 9.317-9.606 9.316 4.31 9.316 9.606-4.161 9.606-9.316 9.606zm0-2.412c3.803 0 6.904-3.211 6.904-7.194s-3.1-7.194-6.904-7.194-6.905 3.211-6.905 7.194 3.101 7.194 6.905 7.194z" fill="#E88024" fill-rule="nonzero"/><path d="M13.278 129.05c.08-.58-.223-1.004-.909-1.271l-.949-.342-.318-.138c-1.066-.483-1.564-1.162-1.495-2.037.032-.424.191-.83.456-1.163a2.585 2.585 0 0 1 1.058-.78 3.418 3.418 0 0 1 1.405-.26c.45.001.892.111 1.29.319.366.193.665.49.86.855.2.378.292.804.265 1.23l-1.035-.004a1.41 1.41 0 0 0-.33-1.13 1.477 1.477 0 0 0-1.094-.408 2.049 2.049 0 0 0-1.252.345 1.36 1.36 0 0 0-.584.982c-.072.54.263.949 1.006 1.226l.815.29.41.175a2.048 2.048 0 0 1 1.428 2.104c-.032.42-.19.822-.455 1.152a2.541 2.541 0 0 1-1.07.758c-.462.18-.957.264-1.453.25a3.056 3.056 0 0 1-1.372-.317 2.234 2.234 0 0 1-.946-.858 2.135 2.135 0 0 1-.284-1.238l1.032.007c-.053.413.09.828.385 1.123.339.295.78.449 1.23.427.46.026.919-.094 1.308-.342.33-.214.548-.562.598-.951v-.004zm4.492-5.274l-.25 1.427h1.076l-.134.78h-1.073l-.62 3.662c-.01.086-.012.173-.004.26a.415.415 0 0 0 .463.427c.163-.004.326-.023.486-.055l-.078.821c-.236.066-.48.1-.725.1-.35.014-.684-.15-.886-.434-.21-.34-.29-.741-.228-1.134l.598-3.647h-1.047l.139-.78h1.046l.254-1.427h.983zm4.616 7.318a1.313 1.313 0 0 1-.037-.312l.015-.308a2.436 2.436 0 0 1-1.73.728 1.777 1.777 0 0 1-1.272-.49 1.486 1.486 0 0 1-.448-1.209 1.812 1.812 0 0 1 .822-1.46 3.52 3.52 0 0 1 2.026-.524l1.035.003.067-.468a1.073 1.073 0 0 0-.205-.836.993.993 0 0 0-.785-.316 1.535 1.535 0 0 0-.897.245c-.247.153-.42.4-.478.684l-.998.004c.032-.34.175-.662.407-.915.25-.276.563-.488.912-.62.368-.148.762-.22 1.159-.212a1.968 1.968 0 0 1 1.439.557c.35.386.508.91.43 1.424l-.483 2.921-.026.417c-.007.2.016.4.067.594l-.01.093h-1.01zm-1.555-.762c.315.01.627-.068.9-.223.29-.163.54-.388.733-.658l.213-1.215-.747-.004a2.854 2.854 0 0 0-1.439.294c-.313.17-.522.48-.56.833a.84.84 0 0 0 .19.687.93.93 0 0 0 .71.286zm7.587-4.23l-.463-.048a1.699 1.699 0 0 0-1.499.855l-.729 4.185h-.994l1.028-5.891.957-.004-.15.684c.328-.5.888-.8 1.488-.799.16.006.318.034.47.082l-.108.936zm2.942-2.326l-.25 1.427h1.076l-.135.78h-1.076l-.62 3.662c-.01.086-.012.173-.004.26a.415.415 0 0 0 .463.427c.162-.004.323-.023.482-.055l-.075.821c-.236.066-.48.1-.725.1-.35.014-.683-.15-.885-.434a1.665 1.665 0 0 1-.232-1.134l.602-3.647h-1.047l.138-.78h1.047l.25-1.427h.99zm220.998 49.343a2.856 2.856 0 0 1-.942 1.977 3.222 3.222 0 0 1-2.182.71 3.123 3.123 0 0 1-1.679-.446 2.953 2.953 0 0 1-1.12-1.279 4.588 4.588 0 0 1-.412-1.921v-.744a4.62 4.62 0 0 1 .4-1.974 3 3 0 0 1 1.147-1.32 3.213 3.213 0 0 1 1.73-.46 3.083 3.083 0 0 1 2.124.714c.56.527.895 1.248.934 2.014h-1.38a1.953 1.953 0 0 0-.5-1.234 1.662 1.662 0 0 0-1.177-.379 1.622 1.622 0 0 0-1.39.658 3.264 3.264 0 0 0-.494 1.925v.703a3.46 3.46 0 0 0 .46 1.959c.3.448.816.705 1.357.676a1.8 1.8 0 0 0 1.225-.368 1.9 1.9 0 0 0 .524-1.211h1.375zm2.527 2.58h-1.33v-8.364h1.33v8.363zm1.196-3a3.46 3.46 0 0 1 .347-1.562 2.51 2.51 0 0 1 .972-1.066 2.74 2.74 0 0 1 1.431-.372 2.594 2.594 0 0 1 1.944.766 3.01 3.01 0 0 1 .811 2.037l.004.312a3.48 3.48 0 0 1-.337 1.557 2.48 2.48 0 0 1-.964 1.06 2.763 2.763 0 0 1-1.446.375 2.578 2.578 0 0 1-2.007-.829 3.17 3.17 0 0 1-.752-2.215l-.003-.063zm1.334.111c-.031.503.1 1.003.374 1.427.241.338.638.53 1.054.513.415.016.81-.18 1.046-.52.28-.46.41-.995.374-1.531a2.342 2.342 0 0 0-.385-1.417 1.303 1.303 0 0 0-2.082-.007 2.56 2.56 0 0 0-.385 1.539l.004-.004zm8.622 1.286a.598.598 0 0 0-.295-.539 3.125 3.125 0 0 0-.972-.327 5.017 5.017 0 0 1-1.132-.357 1.506 1.506 0 0 1-.998-1.39 1.566 1.566 0 0 1 .647-1.275 2.562 2.562 0 0 1 1.644-.51 2.668 2.668 0 0 1 1.716.521c.423.322.666.827.654 1.357h-1.33a.816.816 0 0 0-.285-.632 1.095 1.095 0 0 0-.755-.256 1.182 1.182 0 0 0-.718.204.63.63 0 0 0-.276.539.535.535 0 0 0 .261.472 3.56 3.56 0 0 0 1.04.342c.426.082.84.22 1.23.409.264.13.492.324.66.565.15.242.226.522.217.806.01.514-.24.998-.665 1.29a2.837 2.837 0 0 1-1.734.49 3.08 3.08 0 0 1-1.297-.26 2.132 2.132 0 0 1-.886-.717 1.696 1.696 0 0 1-.317-.988h1.289c.001.282.132.55.355.724.254.18.56.269.87.253.282.018.562-.052.8-.2a.616.616 0 0 0 .277-.52zm5.076 1.71a2.76 2.76 0 0 1-2.052-.792 2.864 2.864 0 0 1-.785-2.107v-.164a3.518 3.518 0 0 1 .34-1.576 2.552 2.552 0 0 1 2.343-1.468 2.331 2.331 0 0 1 1.87.766c.475.622.708 1.394.657 2.174v.532h-3.868c.016.43.188.84.486 1.152.287.285.679.44 1.084.427a1.805 1.805 0 0 0 1.487-.736l.718.684a2.388 2.388 0 0 1-.95.818c-.415.198-.87.297-1.33.29zm-.16-5.048a1.124 1.124 0 0 0-.887.383 1.971 1.971 0 0 0-.43 1.063h2.538v-.1a1.604 1.604 0 0 0-.358-1.004 1.113 1.113 0 0 0-.864-.342zM124.001 49.32h-1.379v-3.523h-3.566v3.524h-1.382v-7.929h1.382v3.301h3.566v-3.3h1.383L124 49.32zm2.923 0h-1.33v-5.89h1.33v5.89zm-1.413-7.422a.7.7 0 0 1 .194-.506.735.735 0 0 1 .561-.2.746.746 0 0 1 .557.2.7.7 0 0 1 .194.506.678.678 0 0 1-.194.498.75.75 0 0 1-.56.2.742.742 0 0 1-.558-.2.682.682 0 0 1-.194-.498zm2.631 4.434a3.432 3.432 0 0 1 .647-2.193 2.086 2.086 0 0 1 1.72-.817 1.956 1.956 0 0 1 1.595.702l.06-.595h1.2v5.713a2.368 2.368 0 0 1-.726 1.83 2.775 2.775 0 0 1-1.958.668 3.17 3.17 0 0 1-1.27-.267 2.26 2.26 0 0 1-.946-.707l.628-.795c.364.462.923.73 1.513.725a1.48 1.48 0 0 0 1.047-.357c.27-.28.41-.661.381-1.048v-.398c-.39.427-.952.66-1.532.636a2.082 2.082 0 0 1-1.7-.818 3.543 3.543 0 0 1-.659-2.279zm1.323.112c-.028.492.099.98.363 1.397.226.331.607.524 1.009.51.499.023.965-.244 1.196-.684v-2.595a1.265 1.265 0 0 0-1.181-.669 1.176 1.176 0 0 0-1.024.52c-.272.46-.399.992-.363 1.525v-.004zm6.578-2.372a2.087 2.087 0 0 1 1.645-.75c1.263 0 1.903.716 1.92 2.148v3.85h-1.33v-3.798a1.159 1.159 0 0 0-.261-.866 1.088 1.088 0 0 0-.785-.253 1.283 1.283 0 0 0-1.192.706v4.212h-1.33v-8.363h1.33l.003 3.114z" fill="#2A3052" fill-rule="nonzero"/><path d="M27.525 23.302h-1.839v-4.698h-4.754v4.698H19.09V12.73h1.846v4.4h4.754v-4.4h1.839l-.004 10.57zm3.898 0h-1.775v-7.854h1.775v7.854zm-1.883-9.895a.934.934 0 0 1 .261-.676.982.982 0 0 1 .74-.268.994.994 0 0 1 .744.268c.176.18.27.425.262.676a.904.904 0 0 1-.262.666c-.202.185-.473.28-.748.26a.99.99 0 0 1-.74-.26.912.912 0 0 1-.261-.67l.004.004zm3.502 5.91a4.576 4.576 0 0 1 .867-2.921 2.783 2.783 0 0 1 2.295-1.093 2.608 2.608 0 0 1 2.126.937l.079-.792h1.6v7.616a3.158 3.158 0 0 1-.969 2.438 3.698 3.698 0 0 1-2.608.892 4.224 4.224 0 0 1-1.697-.36 3.015 3.015 0 0 1-1.26-.94l.837-1.06a2.54 2.54 0 0 0 2.019.967 1.965 1.965 0 0 0 1.39-.476c.363-.372.55-.88.512-1.398V22.6a2.62 2.62 0 0 1-2.044.848 2.775 2.775 0 0 1-2.265-1.097 4.724 4.724 0 0 1-.882-3.033zm1.767.149c-.037.657.133 1.31.486 1.866.302.44.81.695 1.346.676a1.71 1.71 0 0 0 1.592-.914v-3.457a1.684 1.684 0 0 0-1.577-.892 1.572 1.572 0 0 0-1.36.691 3.527 3.527 0 0 0-.487 2.034v-.004zm8.769-3.16a2.784 2.784 0 0 1 2.197-1.003c1.685 0 2.538.955 2.56 2.866v5.133h-1.771v-5.066a1.544 1.544 0 0 0-.355-1.153 1.452 1.452 0 0 0-1.04-.334 1.71 1.71 0 0 0-1.591.94v5.613h-1.776V12.15h1.776v4.156zm9.994 3.212h-3.835v-1.42h3.835v1.42zm9.743.342a3.809 3.809 0 0 1-1.255 2.639 4.3 4.3 0 0 1-2.916.948 4.162 4.162 0 0 1-2.235-.599 3.94 3.94 0 0 1-1.495-1.702 6.115 6.115 0 0 1-.545-2.565v-.985a6.16 6.16 0 0 1 .534-2.639 3.999 3.999 0 0 1 1.529-1.754 4.282 4.282 0 0 1 2.302-.617 4.115 4.115 0 0 1 2.833.951 3.964 3.964 0 0 1 1.248 2.688h-1.839a2.602 2.602 0 0 0-.669-1.647 2.21 2.21 0 0 0-1.57-.502 2.161 2.161 0 0 0-1.853.874 4.349 4.349 0 0 0-.662 2.565v.936a4.615 4.615 0 0 0 .617 2.613c.4.597 1.088.94 1.809.903a2.397 2.397 0 0 0 1.633-.486c.42-.44.666-1.016.695-1.621h1.84zm3.364 3.442h-1.768V12.15h1.772l-.004 11.15zm1.6-4a4.61 4.61 0 0 1 .46-2.081 3.348 3.348 0 0 1 1.293-1.424 3.656 3.656 0 0 1 1.913-.494 3.46 3.46 0 0 1 2.594 1.022 4.013 4.013 0 0 1 1.076 2.714l.008.416a4.65 4.65 0 0 1-.449 2.074 3.307 3.307 0 0 1-1.285 1.416 3.682 3.682 0 0 1-1.929.502 3.437 3.437 0 0 1-2.676-1.108 4.223 4.223 0 0 1-1.009-2.951l.004-.086zm1.775.15c-.04.67.137 1.337.505 1.902.32.45.848.707 1.401.684a1.621 1.621 0 0 0 1.398-.695 3.479 3.479 0 0 0 .497-2.044 3.11 3.11 0 0 0-.512-1.885 1.737 1.737 0 0 0-2.78-.011 3.416 3.416 0 0 0-.509 2.052v-.004zm11.497 1.716a.798.798 0 0 0-.393-.72 4.168 4.168 0 0 0-1.293-.436 6.654 6.654 0 0 1-1.514-.48 2.008 2.008 0 0 1-1.327-1.85 2.089 2.089 0 0 1 .86-1.699 3.418 3.418 0 0 1 2.19-.68 3.557 3.557 0 0 1 2.291.695c.565.43.889 1.103.871 1.81h-1.771a1.083 1.083 0 0 0-.382-.847 1.463 1.463 0 0 0-1.009-.335 1.576 1.576 0 0 0-.949.264.846.846 0 0 0-.37.721.713.713 0 0 0 .344.632c.434.222.9.374 1.383.454.57.107 1.123.29 1.644.542.354.174.658.435.882.758.2.324.3.699.288 1.078a2.04 2.04 0 0 1-.886 1.714 3.783 3.783 0 0 1-2.313.658 4.104 4.104 0 0 1-1.73-.35 2.845 2.845 0 0 1-1.182-.955 2.259 2.259 0 0 1-.422-1.316h1.72c.004.377.18.73.478.963a1.85 1.85 0 0 0 1.158.335c.374.026.746-.065 1.065-.26a.816.816 0 0 0 .367-.696zm6.764 2.279a3.681 3.681 0 0 1-2.728-1.056 3.816 3.816 0 0 1-1.05-2.814v-.219a4.691 4.691 0 0 1 .456-2.1 3.463 3.463 0 0 1 1.282-1.442 3.4 3.4 0 0 1 1.839-.513 3.11 3.11 0 0 1 2.493 1.022c.634.83.946 1.86.878 2.9v.706h-5.158c.02.575.252 1.124.65 1.542a1.97 1.97 0 0 0 1.443.565 2.408 2.408 0 0 0 1.985-.981l.957.91a3.19 3.19 0 0 1-1.267 1.093 3.98 3.98 0 0 1-1.78.387zm-.209-6.728a1.499 1.499 0 0 0-1.18.506 2.627 2.627 0 0 0-.573 1.416h3.379v-.13a2.137 2.137 0 0 0-.475-1.338 1.488 1.488 0 0 0-1.15-.454z" fill="#000" fill-rule="nonzero"/></g></svg>