<svg width="299" height="197" xmlns="http://www.w3.org/2000/svg"><g fill="none" fill-rule="evenodd"><path fill="#F1F2F2" d="M.993.99h297v195h-297z"/><path d="M1.987 1.98v193.04h295.026V1.98H1.987zM299 0v197H0V0h299z" fill="#C2C2C2" fill-rule="nonzero"/><path d="M3.9 54.944h291.633M3.9 75.334h291.633M3.9 95.687h291.633M3.9 136.431h291.633M3.9 156.785h291.633M3.9 177.138h291.633M39.122 34.59v160.498M76.037 34.59v160.498M112.914 34.59v160.498M149.83 34.59v160.498M186.707 34.59v160.498M223.584 34.59v160.498M260.5 34.59v160.498" stroke="#DFDEDE" stroke-width="1.215"/><path fill="#2A3052" d="M3.9 116.646v-1.21h291.633v1.21z"/><path fill="#C2C2C2" d="M1.793 34.6v-2.422H297.64V34.6z"/><path d="M112.609 90.222L76.96 133.787a1.826 1.826 0 0 1-2.996-.249L37.538 69.85a1.813 1.813 0 0 1 .681-2.478 1.826 1.826 0 0 1 2.486.679l35.11 61.387 35.348-43.198a1.827 1.827 0 0 1 2.798-.032l42.66 49.728 32.757-41.374a1.826 1.826 0 0 1 2.958.134l41.525 63.49 26.418-3.205c1-.12 1.908.588 2.03 1.584a1.818 1.818 0 0 1-1.59 2.023l-27.544 3.342a1.825 1.825 0 0 1-1.748-.811l-40.76-62.32-32.558 41.123a1.827 1.827 0 0 1-2.816.056l-42.684-49.756z" fill="#2A3052"/><path d="M31.332 53.855c0-.489-.188-.864-.526-1.202-.34-.3-.979-.6-1.882-.789-1.091-.263-1.957-.638-2.559-1.164a2.454 2.454 0 0 1-.903-1.915c0-.826.339-1.502.978-2.028.64-.563 1.506-.826 2.56-.826 1.128 0 2.031.3 2.709.939.677.638.978 1.352.978 2.178v.037h-1.392c0-.6-.188-1.089-.602-1.464-.414-.376-.979-.563-1.731-.563-.678 0-1.242.15-1.58.488a1.5 1.5 0 0 0-.565 1.239c0 .45.188.826.602 1.127.414.3 1.053.563 1.957.788 1.09.263 1.919.676 2.483 1.202.565.526.866 1.202.866 1.953 0 .826-.339 1.502-1.016 2.027-.678.526-1.58.751-2.672.751a4.68 4.68 0 0 1-2.747-.863c-.79-.564-1.167-1.315-1.167-2.253v-.038h1.317c0 .676.226 1.164.715 1.54.49.375 1.092.525 1.807.525.715 0 1.241-.15 1.655-.45.49-.338.715-.751.715-1.24zm5.005-6.985v1.877h1.468V49.8h-1.468v4.694c0 .375.075.6.226.751.15.15.339.225.602.225.075 0 .15 0 .263-.037.113-.038.189-.038.264-.075l.188.976a2.49 2.49 0 0 1-.452.225 3.3 3.3 0 0 1-.602.075 1.846 1.846 0 0 1-1.354-.525c-.339-.338-.49-.902-.49-1.615V49.76h-1.279v-1.05h1.204v-1.878h1.43v.038zm7.865 9.576c-.038-.226-.075-.451-.113-.639-.038-.187-.038-.338-.038-.525a3.484 3.484 0 0 1-1.016.938 2.46 2.46 0 0 1-1.354.376c-.79 0-1.393-.188-1.807-.639a2.288 2.288 0 0 1-.64-1.69c0-.75.302-1.314.904-1.727.602-.413 1.392-.638 2.408-.638h1.505v-.751a1.5 1.5 0 0 0-.414-1.09 1.631 1.631 0 0 0-1.166-.412c-.452 0-.828.112-1.091.338-.264.225-.414.525-.414.826h-1.317v-.038c-.038-.563.225-1.089.79-1.54a3.354 3.354 0 0 1 2.145-.713c.865 0 1.58.225 2.107.676.527.45.79 1.09.79 1.915v3.718c-.01.52.054 1.038.188 1.54h-1.467v.075zm-2.296-1.014c.49 0 .941-.113 1.355-.376.414-.263.677-.563.79-.901v-1.24h-1.58c-.565 0-1.016.151-1.355.414a1.26 1.26 0 0 0-.489 1.014c0 .338.113.6.301.826.226.15.565.263.978.263zm9.182-5.483l-.715-.037c-.376 0-.677.075-.94.262a1.728 1.728 0 0 0-.603.752v5.52h-1.392V48.71h1.242l.15 1.127c.226-.414.49-.714.79-.94.302-.225.678-.337 1.092-.337a.83.83 0 0 1 .3.037c.076 0 .19.038.227.038l-.15 1.314zm3.312-3.08v1.878h1.467V49.8H54.4v4.694c0 .375.075.6.225.751.15.15.34.225.602.225.076 0 .151 0 .264-.037.113-.038.188-.038.263-.075l.188.976c-.112.075-.263.15-.451.225a3.3 3.3 0 0 1-.602.075 1.846 1.846 0 0 1-1.355-.525c-.339-.338-.49-.902-.49-1.615V49.76h-1.203v-1.05h1.204v-1.878H54.4v.038zm201.32 127.302h-4.703v3.718h5.456v1.089h-6.849v-10.402h6.774v1.089h-5.344v3.38h4.704v1.126h-.037zm3.35-2.891l.112 1.164a2.545 2.545 0 0 1 2.258-1.277c.828 0 1.468.263 1.92.751.451.488.677 1.24.677 2.253v4.882h-1.393v-4.844c0-.676-.15-1.164-.413-1.465-.264-.3-.678-.413-1.205-.413-.414 0-.752.113-1.053.3a2.17 2.17 0 0 0-.753.79v5.632h-1.392v-7.736h1.242v-.037zm6.66 4.018c0-1.24.264-2.253.79-3.004.527-.751 1.28-1.127 2.22-1.127.452 0 .828.075 1.205.263.338.15.64.413.903.713V167.9h1.392v11.153h-1.129l-.188-.976a2.67 2.67 0 0 1-.903.826 2.79 2.79 0 0 1-1.28.263 2.6 2.6 0 0 1-2.182-1.014c-.527-.676-.79-1.578-.79-2.704v-.15h-.038zm1.392.15c0 .789.15 1.427.49 1.878.338.45.79.713 1.467.713.414 0 .753-.113 1.054-.3.3-.188.527-.451.677-.789v-3.643a2.278 2.278 0 0 0-.715-.75 1.896 1.896 0 0 0-1.016-.301c-.677 0-1.166.263-1.467.826-.301.563-.49 1.277-.49 2.178v.188z" fill="#2A3052" fill-rule="nonzero"/><path d="M188.25 147.021h-35.184l-5.42-8.224-5.418 8.224h-35.184c-2.634 0-4.741 2.14-4.741 4.807v24.822c0 2.666 2.145 4.806 4.741 4.806h81.243c2.635 0 4.742-2.14 4.742-4.806v-24.822c0-2.666-2.145-4.807-4.78-4.807z" fill="#E88024"/><ellipse cx="8.392" cy="8.535" rx="8.166" ry="8.487" opacity=".6" transform="translate(252.108 148.25)" fill="#FFF"/><path d="M260.5 166.482c-5.193 0-9.381-4.353-9.381-9.697 0-5.345 4.188-9.698 9.38-9.698 5.193 0 9.382 4.353 9.382 9.698 0 5.344-4.189 9.697-9.381 9.697zm0-2.422c3.826 0 6.95-3.246 6.95-7.275 0-4.03-3.124-7.276-6.95-7.276-3.827 0-6.95 3.246-6.95 7.276 0 4.029 3.123 7.275 6.95 7.275z" fill="#E88024" fill-rule="nonzero"/><ellipse cx="9.031" cy="9.05" rx="8.166" ry="8.487" opacity=".6" transform="translate(30.09 59.9)" fill="#FFF"/><path d="M39.122 78.648c-5.193 0-9.381-4.353-9.381-9.698 0-5.344 4.188-9.697 9.38-9.697 5.193 0 9.382 4.353 9.382 9.697 0 5.345-4.189 9.698-9.381 9.698zm0-2.422c3.827 0 6.95-3.246 6.95-7.276 0-4.029-3.123-7.275-6.95-7.275s-6.95 3.246-6.95 7.275c0 4.03 3.123 7.276 6.95 7.276z" fill="#E88024" fill-rule="nonzero"/><path d="M249.888 124.865h-2.559l-1.543 7.736h-1.129l1.543-7.736h-2.521l.188-.938h6.209l-.188.938zm2.446 7.774v-.489c0-.112.037-.262.037-.375-.263.3-.564.526-.903.713a2.11 2.11 0 0 1-1.016.3c-.564 0-1.016-.187-1.28-.525-.263-.338-.338-.826-.225-1.427.113-.638.452-1.164.94-1.464.528-.338 1.167-.489 1.958-.489h1.09l.114-.638c.075-.413.037-.713-.113-.901-.15-.188-.452-.3-.828-.3-.339 0-.64.112-.903.3a1.216 1.216 0 0 0-.49.676h-1.09v-.038c.075-.488.376-.939.865-1.314.527-.376 1.129-.563 1.844-.563.64 0 1.129.187 1.505.563.376.375.49.901.339 1.577l-.602 3.117-.113.676a1.82 1.82 0 0 0 0 .638h-1.13v-.037zm-1.505-.864c.3 0 .64-.075.978-.263.339-.188.602-.413.753-.676l.225-1.202h-1.129a1.58 1.58 0 0 0-1.053.376c-.301.263-.49.526-.565.826-.075.3-.037.526.076.714.113.187.376.225.715.225zm8.09-4.544l-.64-.037c-.256 0-.505.078-.715.225a1.578 1.578 0 0 0-.564.638l-.903 4.582h-1.13l1.28-6.46h1.016l-.075.864c.192-.293.45-.537.753-.713.263-.15.564-.263.903-.263.075 0 .15 0 .263.038a.51.51 0 0 0 .188.037l-.376 1.09zm.339 2.178c.226-1.089.564-1.953 1.053-2.516.49-.563 1.092-.826 1.844-.826.339 0 .678.075.941.225.263.15.49.376.677.676l.264-.788h.978l-1.242 6.346c-.188.901-.526 1.577-1.053 2.028-.527.45-1.242.676-2.07.676-.307 0-.612-.052-.903-.15a2.388 2.388 0 0 1-.828-.338l.452-.902c.15.113.376.226.64.3.263.076.526.113.79.113.489 0 .865-.15 1.166-.45a2.44 2.44 0 0 0 .64-1.24l.075-.45a2.211 2.211 0 0 1-1.618.638c-.677 0-1.204-.3-1.543-.938a3.295 3.295 0 0 1-.263-2.291v-.113zm1.129.113c-.15.676-.113 1.24.075 1.652.188.413.564.639 1.091.639.264 0 .527-.076.753-.226.226-.15.451-.375.64-.676l.602-3.004a1.619 1.619 0 0 0-.49-.638 1.312 1.312 0 0 0-.79-.226c-.489 0-.865.226-1.166.639a4.262 4.262 0 0 0-.678 1.727l-.037.113zm7.488 3.23c-.79 0-1.392-.301-1.806-.902-.414-.6-.527-1.39-.377-2.328l.038-.263c.15-.939.527-1.727 1.129-2.328.602-.601 1.242-.901 1.92-.901.79 0 1.354.262 1.692.788.34.526.452 1.24.302 2.103l-.113.751h-3.876c-.076.638-.038 1.164.188 1.577.226.376.564.564 1.054.564a2.83 2.83 0 0 0 1.768-.639l.339.751c-.226.225-.565.413-.903.563-.414.188-.866.263-1.355.263zm.715-5.746c-.339 0-.64.15-.94.488a3.292 3.292 0 0 0-.678 1.24v.037h2.634l.038-.15c.075-.489.037-.864-.15-1.165-.189-.3-.452-.45-.904-.45zm5.833-2.366l-.301 1.54h1.09l-.187.863h-1.092l-.79 3.906c-.075.3-.075.526.038.638.075.113.226.15.414.15.075 0 .188 0 .338-.037a.71.71 0 0 0 .302-.075v.788c-.113.075-.264.113-.49.188-.225.038-.414.075-.64.075-.413 0-.714-.15-.94-.45-.226-.3-.264-.751-.15-1.352l.79-3.906h-.941l.188-.863h.94l.302-1.54h1.129v.075z" fill="#6D6E71" fill-rule="nonzero"/><path d="M139.632 167.938h.075l2.183-10.553h2.972l-3.537 15.36h-2.86l-2.784-10.14h-.076l-2.784 10.14h-2.823l-3.574-15.36h2.972l2.183 10.515h.075l2.86-10.552h2.258l2.86 10.59zm9.896-9.313h-3.048v-2.329h3.048v2.329zm0 14.157h-3.048v-11.416h3.048v11.416zm5.306-11.416l.15 1.652c.377-.6.829-1.051 1.393-1.352.565-.338 1.167-.488 1.844-.488 1.129 0 2.032.376 2.672 1.09.64.713.978 1.877.978 3.416v7.135h-3.086v-7.135c0-.788-.15-1.314-.451-1.652-.301-.338-.753-.488-1.392-.488-.414 0-.753.075-1.092.263-.338.188-.602.413-.79.713v8.3h-3.048v-11.417h2.822v-.037zm12.569 6.12h-3.048v-10.063h3.048v10.064zm0 5.296h-3.048v-2.704h3.048v2.704z" fill="#FFF" fill-rule="nonzero"/><path d="M19.417 20.031h4.634v1.748h-6.817V11.222h2.183v8.81zm5.42-2.247c0-.778.15-1.472.45-2.081.302-.61.734-1.08 1.3-1.414.565-.334 1.22-.5 1.968-.5 1.062 0 1.929.324 2.6.971.672.648 1.047 1.528 1.125 2.64l.014.536c0 1.204-.337 2.17-1.011 2.897-.674.727-1.579 1.09-2.714 1.09s-2.04-.362-2.717-1.087-1.015-1.71-1.015-2.958v-.094zm2.102.152c0 .744.141 1.314.422 1.708.282.394.684.59 1.208.59.51 0 .907-.194 1.193-.583.287-.39.43-1.012.43-1.867 0-.73-.143-1.296-.43-1.697-.286-.401-.688-.602-1.207-.602-.515 0-.912.2-1.194.599-.28.398-.422 1.016-.422 1.852zm13.497.993l1.033-4.995h2.03l-2.008 7.845H39.73l-1.492-4.938-1.491 4.938h-1.754l-2.008-7.845h2.03l1.026 4.988 1.44-4.988h1.521l1.434 4.995zm7.726 2.995c-1.154 0-2.094-.353-2.82-1.059-.724-.705-1.087-1.646-1.087-2.82v-.203c0-.788.153-1.493.459-2.114.305-.62.738-1.1 1.298-1.435.56-.336 1.2-.504 1.917-.504 1.077 0 1.925.338 2.543 1.015.619.677.928 1.636.928 2.878v.856h-5.013c.068.512.273.923.615 1.232.342.31.775.465 1.298.465.81 0 1.443-.293 1.9-.878l1.033 1.153a3.154 3.154 0 0 1-1.281 1.04 4.213 4.213 0 0 1-1.79.374zm-.24-6.439c-.417 0-.755.14-1.015.42-.26.281-.425.682-.498 1.205h2.925v-.167c-.01-.464-.136-.823-.379-1.077-.242-.254-.587-.38-1.033-.38zm9.095.414a5.731 5.731 0 0 0-.757-.058c-.796 0-1.317.268-1.564.804v5.134h-2.103v-7.845h1.986l.058.935c.422-.72 1.007-1.08 1.754-1.08.233 0 .451.031.655.094l-.03 2.016z" fill="#000" fill-rule="nonzero"/></g></svg>