<svg width="299" height="197" xmlns="http://www.w3.org/2000/svg"><g fill="none" fill-rule="evenodd"><path fill="#F2F2F2" d="M0 0h299v197H0z"/><path d="M1.987 1.98v193.04h295.026V1.98H1.987zM299 0v197H0V0h299z" fill="#C2C2C2" fill-rule="nonzero"/><path d="M4.887 55.842h289.656M4.887 96.376h289.656M4.887 136.91h289.656M4.887 177.407h289.656M39.87 35.594v159.67m36.665-159.67v159.67m36.627-159.67v159.67m36.665-159.67v159.67m36.628-159.67v159.67m36.627-159.67v159.67M4.887 116.624h289.656" stroke="#DEDEDD" stroke-width="1.207"/><path fill="#293152" d="M4.887 76.731v-1.206h289.656v1.206z"/><path fill="#DEDEDD" fill-rule="nonzero" d="M4.887 157.762v-1.207h289.656v1.207z"/><path fill="#293152" d="M259.144 35.594h1.207v159.67h-1.207z"/><path fill="#C2C2C2" d="M2.794 35.606V33.19h293.842v2.415z"/><path d="M41.087 138.25a1.81 1.81 0 1 1-2.434-2.68l36.665-33.287a1.81 1.81 0 0 1 2.332-.086l31.97 24.988 32.488-24.996a1.81 1.81 0 0 1 2.247.031l33.563 27.343 35.438-31.587a1.81 1.81 0 0 1 1.684-.394l45.186 12.403a1.81 1.81 0 0 1-.958 3.491l-44.237-12.142-35.856 31.959a1.81 1.81 0 0 1-2.348.052l-33.647-27.412-32.464 24.978a1.81 1.81 0 0 1-2.22-.009L76.623 105.99l-35.535 32.26z" fill="#293152"/><path d="M187.987 147.445h-34.945l-5.382-8.181-5.382 8.181h-34.946c-2.616 0-4.71 2.13-4.71 4.782v24.694c0 2.653 2.131 4.782 4.71 4.782h80.692c2.617 0 4.71-2.13 4.71-4.782v-24.694c0-2.652-2.13-4.782-4.747-4.782z" fill="#E88124"/><ellipse cx="8.335" cy="8.863" rx="8.11" ry="8.443" opacity=".6" transform="translate(251.412 102.868)" fill="#FFF"/><path d="M259.747 121.38c-5.157 0-9.317-4.33-9.317-9.65 0-5.318 4.16-9.65 9.317-9.65s9.318 4.332 9.318 9.65c0 5.32-4.16 9.65-9.318 9.65zm0-2.413c3.802 0 6.903-3.23 6.903-7.236 0-4.007-3.101-7.236-6.903-7.236-3.801 0-6.903 3.229-6.903 7.236s3.102 7.236 6.903 7.236z" fill="#E88124" fill-rule="nonzero"/><ellipse cx="8.97" cy="8.891" rx="8.11" ry="8.443" opacity=".6" transform="translate(30.9 128.019)" fill="#FFF"/><path d="M39.87 146.56c-5.157 0-9.317-4.33-9.317-9.65 0-5.319 4.16-9.65 9.317-9.65s9.317 4.331 9.317 9.65c0 5.32-4.16 9.65-9.317 9.65zm0-2.414c3.802 0 6.903-3.229 6.903-7.236s-3.101-7.236-6.903-7.236c-3.802 0-6.903 3.23-6.903 7.236 0 4.007 3.101 7.236 6.903 7.236z" fill="#E88124" fill-rule="nonzero"/><path d="M26.714 23.751h-2.018l-4.149-7.06h-.037v7.06h-2.056V13.403h2.056l4.148 7.06h.038v-7.06h2.055v10.348h-.037zm1.458-3.922c0-1.158.299-2.092.934-2.84.635-.747 1.495-1.083 2.616-1.083s2.018.374 2.654 1.083c.635.748.972 1.682.972 2.84v.15c0 1.157-.3 2.091-.935 2.838-.635.71-1.495 1.084-2.616 1.084s-2.018-.374-2.654-1.084c-.672-.747-.971-1.68-.971-2.839v-.15zm2.018.15c0 .709.112 1.27.374 1.68.261.411.635.635 1.196.635.523 0 .934-.224 1.158-.635.224-.41.374-.971.374-1.68v-.15c0-.673-.112-1.233-.374-1.681a1.308 1.308 0 0 0-1.196-.636c-.523 0-.934.225-1.158.636-.262.448-.374.97-.374 1.68v.15zm17.23-4.97h-2.878v8.742h-2.056V15.01h-2.878v-1.606h7.812v1.606zm0 4.82c0-1.158.299-2.092.934-2.84.636-.747 1.495-1.083 2.616-1.083 1.122 0 2.019.374 2.654 1.083.635.748.972 1.682.972 2.84v.15c0 1.157-.3 2.091-.935 2.838-.635.71-1.495 1.084-2.616 1.084s-2.018-.374-2.654-1.084c-.635-.71-.934-1.68-.934-2.839v-.15h-.037zm2.055.15c0 .709.112 1.27.374 1.68.262.411.636.635 1.196.635.523 0 .934-.224 1.159-.635.224-.41.373-.971.373-1.68v-.15c0-.673-.112-1.233-.373-1.681-.262-.449-.636-.636-1.159-.636s-.934.225-1.159.636c-.261.448-.373.97-.373 1.68v.15h-.038zm11.026 2.652a2.4 2.4 0 0 1-2.13 1.27c-.785 0-1.42-.262-1.87-.785-.448-.523-.672-1.345-.672-2.428v-4.633h2.056v4.67c0 .56.112.972.299 1.196.187.261.448.373.822.373.336 0 .598-.037.86-.15.224-.111.41-.26.56-.485v-5.604h2.056v7.696h-1.757l-.224-1.12zm6.69-.337c.374 0 .673-.112.897-.336.224-.224.337-.486.337-.86h1.868l.038.038a2.316 2.316 0 0 1-.86 1.943c-.598.523-1.346.784-2.243.784-1.12 0-2.018-.373-2.616-1.083-.598-.71-.934-1.644-.934-2.802v-.187c0-1.12.299-2.054.934-2.802.598-.747 1.495-1.083 2.617-1.083.934 0 1.681.262 2.28.822.56.523.859 1.27.822 2.13v.037h-1.87a1.494 1.494 0 0 0-.335-1.009 1.136 1.136 0 0 0-.898-.41c-.56 0-.934.223-1.158.634a3.473 3.473 0 0 0-.336 1.644v.224c0 .673.112 1.233.336 1.644.187.486.56.672 1.121.672zm6.242-5.267c.224-.336.523-.635.897-.822a2.429 2.429 0 0 1 1.158-.299c.785 0 1.42.262 1.87.785.448.523.672 1.344.672 2.465v4.558h-2.056v-4.558c0-.598-.112-1.008-.299-1.27-.224-.261-.523-.374-.934-.374-.3 0-.523.038-.748.15-.224.112-.41.261-.523.448v5.641h-2.055V12.656h2.055v4.37h-.037z" fill="#231F20" fill-rule="nonzero"/><path d="M32.133 162.762c0-.485-.187-.859-.523-1.195-.336-.336-.972-.598-1.869-.785-1.084-.261-1.943-.635-2.541-1.158a2.443 2.443 0 0 1-.897-1.905c0-.822.336-1.494.972-2.017.635-.56 1.495-.822 2.541-.822 1.121 0 2.018.298 2.691.934.673.635.972 1.344.972 2.166v.038h-1.383c0-.598-.187-1.084-.598-1.457-.411-.374-.972-.56-1.72-.56-.672 0-1.233.149-1.569.485a1.494 1.494 0 0 0-.56 1.233c0 .448.186.822.597 1.12.412.3 1.047.561 1.944.785 1.084.262 1.906.673 2.467 1.196.56.523.86 1.195.86 1.942 0 .822-.337 1.495-1.01 2.018-.673.523-1.57.747-2.653.747a4.53 4.53 0 0 1-2.691-.86 2.607 2.607 0 0 1-1.16-2.241v-.037h1.309c0 .672.224 1.158.71 1.531.486.337 1.084.523 1.794.523s1.233-.149 1.645-.448c.448-.299.672-.71.672-1.233zm4.971-6.911v1.868h1.458v1.046h-1.458v4.67c0 .373.075.597.224.747.15.15.337.224.598.224.075 0 .15 0 .262-.037.112-.038.187-.038.262-.075l.187.971c-.112.075-.262.15-.449.224a3.273 3.273 0 0 1-.598.075c-.56 0-1.009-.187-1.345-.523-.337-.336-.486-.896-.486-1.606v-4.67h-1.271v-1.046h1.196v-1.868h1.42zm7.812 9.526c-.038-.224-.075-.448-.112-.597-.038-.15-.038-.374-.038-.523a3.462 3.462 0 0 1-1.009.934 2.44 2.44 0 0 1-1.346.373c-.784 0-1.382-.187-1.794-.598a2.278 2.278 0 0 1-.635-1.68c0-.748.3-1.308.897-1.72.598-.41 1.383-.634 2.392-.634h1.495v-.747a1.494 1.494 0 0 0-.411-1.084 1.619 1.619 0 0 0-1.159-.41c-.448 0-.822.111-1.084.335-.261.225-.41.523-.41.822h-1.309v-.037c-.037-.56.224-1.083.785-1.532a3.327 3.327 0 0 1 2.13-.71c.86 0 1.57.225 2.093.673.524.448.785 1.083.785 1.905v3.699c0 .261 0 .523.038.784.037.262.075.523.15.747h-1.458zm-2.28-1.008c.486 0 .971-.112 1.345-.374.411-.261.673-.56.785-.897v-1.232h-1.57c-.56 0-1.009.15-1.345.41a1.307 1.307 0 0 0-.486 1.01c0 .336.112.597.299.821.224.15.56.262.972.262zm9.12-5.455l-.71-.037c-.375 0-.674.075-.935.261a1.719 1.719 0 0 0-.598.748v5.491H48.13v-7.695h1.233l.15 1.12c.224-.41.486-.71.785-.934.299-.224.672-.336 1.084-.336.112 0 .186 0 .299.037a.658.658 0 0 0 .224.038l-.15 1.307zm3.288-3.063v1.868h1.458v1.046h-1.458v4.67c0 .373.075.597.225.747.149.15.336.224.598.224.074 0 .149 0 .261-.037.112-.038.187-.038.262-.075l.187.971c-.112.075-.262.15-.449.224a3.273 3.273 0 0 1-.598.075c-.56 0-1.009-.187-1.345-.523-.337-.336-.486-.896-.486-1.606v-4.67h-1.196v-1.046h1.196v-1.868h1.345zm217.971-19.016h-4.672v3.699h5.42v1.12h-6.802v-10.348h6.727v1.121h-5.345v3.362h4.672v1.046zm3.29-2.913l.111 1.158a2.527 2.527 0 0 1 2.243-1.27c.822 0 1.457.26 1.906.747.449.485.673 1.232.673 2.241v4.857h-1.383v-4.82c0-.672-.15-1.158-.411-1.457-.262-.298-.673-.41-1.196-.41-.411 0-.748.112-1.047.298-.299.187-.56.449-.747.785v5.604h-1.383v-7.696h1.233v-.037zm6.652 3.997c0-1.233.262-2.242.785-2.989.523-.747 1.27-1.12 2.205-1.12.449 0 .822.074 1.196.26.374.188.635.412.897.71v-4.22h1.383v11.095h-1.121l-.15-.934c-.262.373-.56.635-.897.822-.336.186-.785.261-1.27.261a2.58 2.58 0 0 1-2.168-1.009c-.524-.672-.785-1.569-.785-2.69v-.186h-.075zm1.383.15c0 .784.15 1.382.486 1.867.299.486.785.71 1.457.71.411 0 .748-.112 1.047-.299.299-.187.523-.448.673-.784v-3.587a1.958 1.958 0 0 0-.71-.747 1.88 1.88 0 0 0-1.01-.299c-.672 0-1.158.262-1.457.822-.3.56-.486 1.27-.486 2.167v.15z" fill="#293152" fill-rule="nonzero"/><path d="M29.704 60.923h-2.541l-1.495 7.733h-1.122l1.533-7.696h-2.542l.187-.934h6.167l-.187.897zm2.43 7.733v-.485c0-.113.037-.262.037-.374-.262.299-.56.523-.897.71a2.094 2.094 0 0 1-1.01.299c-.56 0-1.008-.187-1.27-.523-.262-.337-.337-.822-.224-1.42.112-.635.448-1.158.934-1.457.523-.336 1.159-.486 1.944-.486h1.083l.112-.635c.075-.41.038-.71-.112-.896-.15-.224-.448-.3-.822-.3-.336 0-.635.113-.897.3a1.21 1.21 0 0 0-.486.672H29.48v-.037c.075-.486.373-.934.897-1.308.523-.373 1.121-.56 1.831-.56.636 0 1.121.187 1.495.56.374.374.486.897.336 1.57l-.598 3.1-.112.672a1.81 1.81 0 0 0 0 .636h-1.196v-.038zm-1.496-.859c.3 0 .636-.075.972-.262.337-.186.598-.41.748-.672l.224-1.195H31.46a1.57 1.57 0 0 0-1.047.373 1.49 1.49 0 0 0-.56.822c-.075.299-.038.523.074.672.15.187.374.262.71.262zm7.999-4.52L38 63.239c-.254 0-.502.078-.71.224a1.86 1.86 0 0 0-.56.635l-.898 4.558h-1.12l1.27-6.425h1.01l-.076.859c.191-.292.447-.535.748-.71.339-.23.758-.312 1.159-.224.074 0 .149.037.186.037l-.373 1.084zm.336 2.166c.224-1.083.56-1.942 1.047-2.503.485-.56 1.083-.822 1.83-.822.337 0 .674.075.935.225.262.15.486.373.673.672l.262-.784h.971l-1.233 6.313c-.187.897-.523 1.57-1.047 2.018-.523.448-1.233.672-2.055.672-.262 0-.56-.037-.897-.112a2.37 2.37 0 0 1-.822-.336l.448-.897c.15.112.374.224.636.299.261.075.523.112.784.112.486 0 .86-.15 1.159-.448.327-.34.548-.77.635-1.233l.075-.448a2.194 2.194 0 0 1-1.607.635c-.673 0-1.196-.3-1.532-.934a3.283 3.283 0 0 1-.262-2.28v-.149zm1.121.112c-.15.673-.112 1.233.075 1.644.187.411.56.635 1.084.635.261 0 .523-.074.747-.224a2.21 2.21 0 0 0 .636-.672l.598-2.989a1.61 1.61 0 0 0-.486-.635c-.224-.187-.449-.224-.785-.224-.486 0-.86.224-1.159.635a4.855 4.855 0 0 0-.672 1.718l-.038.112zm7.438 3.213c-.785 0-1.383-.299-1.794-.896-.411-.598-.523-1.383-.374-2.317l.038-.261c.149-.934.523-1.719 1.12-2.316.599-.598 1.234-.897 1.907-.897.785 0 1.345.262 1.682.785.336.523.448 1.232.299 2.092l-.112.747h-3.813c-.074.635-.037 1.158.187 1.569.225.41.56.56 1.047.56a2.808 2.808 0 0 0 1.756-.635l.337.747a3.38 3.38 0 0 1-2.28.822zm.747-5.716c-.336 0-.635.15-.934.486a3.277 3.277 0 0 0-.673 1.233v.037h2.617l.037-.15c.075-.485.037-.858-.15-1.157-.15-.3-.448-.449-.897-.449zm5.756-2.353l-.299 1.532h1.084l-.187.859H53.55l-.785 3.885c-.074.336-.074.523.038.635.075.112.224.187.41.187.076 0 .188 0 .337-.037.112 0 .224-.038.3-.038v.785c-.113.075-.262.112-.487.187-.224.037-.41.074-.635.074-.367.019-.72-.15-.934-.448-.225-.299-.262-.747-.15-1.345l.785-3.885h-.934l.187-.86h.934l.299-1.531h1.121z" fill="#6E6F71" fill-rule="nonzero"/><path d="M139.699 168.254h.074l2.168-10.498h2.953l-3.513 15.317h-2.841l-2.766-10.087h-.075l-2.765 10.087h-2.803l-3.551-15.317h2.953l2.167 10.46h.075l2.84-10.497h2.243l2.84 10.535zm9.83-9.265H146.5v-2.316h3.027v2.316zm0 14.084H146.5v-11.357h3.027v11.357zm5.27-11.357l.149 1.644c.373-.598.822-1.046 1.382-1.345.561-.336 1.16-.486 1.832-.486 1.121 0 2.018.374 2.653 1.084.636.71.972 1.868.972 3.4v7.098h-3.065v-7.099c0-.784-.149-1.307-.448-1.643-.299-.337-.748-.486-1.383-.486-.411 0-.747.075-1.084.262-.336.149-.598.41-.785.71v8.256h-3.027v-11.357h2.803v-.038zm12.482 6.09h-3.027v-10.012h3.027v10.012zm0 5.267h-3.027v-2.69h3.027v2.69z" fill="#FFF" fill-rule="nonzero"/></g></svg>