<svg width="299" height="197" xmlns="http://www.w3.org/2000/svg"><g fill-rule="nonzero" fill="none"><path fill="#F1F1F2" d="M0 0h299v197H0z"/><path d="M1.987 1.98v193.04h295.026V1.98H1.987zM299 0v197H0V0h299z" fill="#C2C2C2"/><path d="M4.58 54.993v-1.211h290.408v1.21H4.58zm0 40.195v-1.21h290.408v1.21H4.58zm0 40.158v-1.211h290.408v1.211H4.58zm0 20.079v-1.211h290.408v1.211H4.58zm0 20.079v-1.211h290.408v1.21H4.58zM39.06 34.308h1.21V192.59h-1.21V34.308zm36.75 0h1.21V192.59h-1.21V34.308zm36.75 0h1.211V192.59h-1.21V34.308zm36.713 0h1.211V192.59h-1.211V34.308zm36.75 0h1.212V192.59h-1.212V34.308zm36.75 0h1.212V192.59h-1.211V34.308zm36.751 0h1.212V192.59h-1.212V34.308zM4.58 115.268v-1.212h290.408v1.211H4.58z" fill="#DEDEDD"/><path fill="#293052" d="M4.58 75.072V73.86h1.816v1.21zM10.03 75.072V73.86h3.633v1.21H10.03zm7.267 0V73.86h3.633v1.21h-3.633zm7.266 0V73.86h3.634v1.21h-3.634zm7.267 0V73.86h3.634v1.21H31.83zm7.267 0V73.86h3.634v1.21h-3.634zm7.267 0V73.86h3.633v1.21h-3.633zm7.267 0V73.86h3.633v1.21h-3.633zm7.267 0V73.86h3.633v1.21h-3.633zm7.266 0V73.86h3.634v1.21h-3.634zm7.267 0V73.86h3.634v1.21H75.43zm7.267 0V73.86h3.634v1.21h-3.634zm7.267 0V73.86h3.633v1.21h-3.633zm7.267 0V73.86h3.633v1.21h-3.633zm7.267 0V73.86h3.633v1.21h-3.633zm7.266 0V73.86h3.634v1.21h-3.634zm7.267 0V73.86h3.634v1.21h-3.634zm7.267 0V73.86h3.634v1.21h-3.634zm7.267 0V73.86h3.633v1.21h-3.633zm7.267 0V73.86h3.633v1.21h-3.633zm7.267 0V73.86h3.633v1.21H148.1zm7.266 0V73.86H159v1.21h-3.634zm7.267 0V73.86h3.634v1.21h-3.634zm7.267 0V73.86h3.634v1.21H169.9zm7.267 0V73.86h3.633v1.21h-3.633zm7.267 0V73.86h3.633v1.21h-3.633zm7.267 0V73.86h3.633v1.21h-3.633zm7.266 0V73.86h3.634v1.21h-3.634zm7.267 0V73.86h3.634v1.21h-3.634zm7.267 0V73.86h3.634v1.21H213.5zm7.267 0V73.86h3.633v1.21h-3.633zm7.267 0V73.86h3.633v1.21h-3.633zm7.267 0V73.86h3.633v1.21h-3.633zm7.266 0V73.86h3.634v1.21h-3.634zm7.267 0V73.86h3.634v1.21h-3.634zm7.267 0V73.86h3.634v1.21h-3.634zm7.267 0V73.86h3.633v1.21h-3.633zm7.267 0V73.86h3.633v1.21h-3.633zm7.267 0V73.86h3.633v1.21h-3.633zm7.266 0V73.86h3.634v1.21h-3.634zM293.21 75.072V73.86h1.778v1.21z"/><path fill="#C2C2C2" d="M2 30v-2h296v2z"/><path d="M76.186 81.92l-35.273 34.035a1.798 1.798 0 0 1-2.496-2.587l36.75-35.46a1.798 1.798 0 0 1 2.695.227l35.779 48.537 35.234-21.24a1.798 1.798 0 0 1 2.01.104l35.692 26.914 72.407-59.937a1.798 1.798 0 1 1 2.292 2.77l-73.5 60.842a1.798 1.798 0 0 1-2.23.051l-35.856-27.038-35.596 21.46a1.798 1.798 0 0 1-2.375-.473L76.186 81.92z" fill="#293052"/><path d="M188.65 147.07h-35.047l-5.526-8.07-5.299 8.07h-35.047a4.733 4.733 0 0 0-4.731 4.735v24.511a4.733 4.733 0 0 0 4.731 4.736h80.92a4.729 4.729 0 0 0 3.418-1.346 4.738 4.738 0 0 0 1.426-3.39v-24.473a4.738 4.738 0 0 0-1.412-3.414 4.729 4.729 0 0 0-3.433-1.36z" fill="#E88024"/><ellipse cx="8.333" cy="9.062" rx="8.137" ry="8.373" opacity=".6" transform="translate(251.797 65.404)" fill="#FFF"/><path d="M260.13 84.05c-5.17 0-9.348-4.299-9.348-9.584 0-5.285 4.177-9.583 9.348-9.583 5.17 0 9.348 4.298 9.348 9.583s-4.177 9.584-9.348 9.584zm0-2.422c3.817 0 6.926-3.2 6.926-7.162 0-3.963-3.109-7.161-6.926-7.161s-6.926 3.198-6.926 7.161c0 3.963 3.109 7.162 6.926 7.162z" fill="#E88024"/><ellipse cx="8.386" cy="8.585" rx="8.137" ry="8.373" opacity=".6" transform="translate(31.278 106.077)" fill="#FFF"/><path d="M39.665 124.245c-5.171 0-9.349-4.298-9.349-9.583 0-5.286 4.178-9.584 9.349-9.584 5.17 0 9.348 4.298 9.348 9.584 0 5.285-4.177 9.583-9.348 9.583zm0-2.422c3.817 0 6.926-3.199 6.926-7.161 0-3.963-3.109-7.162-6.926-7.162-3.818 0-6.926 3.199-6.926 7.162 0 3.962 3.108 7.161 6.926 7.161zM247.564 44.575h25.094v16.518h-25.094z" fill="#E88024"/><path fill="#E88024" d="M257.745 61.12l2.382-2.383 2.382 2.384-2.382 2.384z"/><path d="M257.367 53.478l.606-5.645h5.147v1.25h-3.785l-.605 2.955c.22-.169.462-.31.719-.416.3-.052.607-.052.908 0a2.762 2.762 0 0 1 2.233.909 3.79 3.79 0 0 1 .795 2.538 3.79 3.79 0 0 1-.833 2.5 3.026 3.026 0 0 1-2.422.948 3.29 3.29 0 0 1-2.157-.72 2.464 2.464 0 0 1-.833-2.084h1.249c-.025.48.154.948.492 1.288.34.311.789.475 1.249.455a1.627 1.627 0 0 0 1.363-.606 2.692 2.692 0 0 0 .492-1.705 2.54 2.54 0 0 0-.492-1.629 1.627 1.627 0 0 0-1.363-.644 2.193 2.193 0 0 0-1.173.265 1.402 1.402 0 0 0-.53.758l-1.06-.417z" fill="#FFF"/><path fill="#D5D3DA" d="M137.35 76.474h25.094v16.518h-25.093z"/><path fill="#D5D3DA" d="M147.505 93l2.382-2.385L152.268 93l-2.381 2.385z"/><path d="M153.323 89.923h-6.662v-.871l3.369-3.789a9.43 9.43 0 0 0 1.362-1.553 2.503 2.503 0 0 0 0-1.364c.01-.47-.15-.928-.454-1.288a1.475 1.475 0 0 0-1.173-.53 2.043 2.043 0 0 0-1.552.53 2.16 2.16 0 0 0-.492 1.515h-1.211a2.919 2.919 0 0 1 .87-2.235 3.48 3.48 0 0 1 2.536-.909 2.988 2.988 0 0 1 2.196.796c.549.536.85 1.277.832 2.045a3.298 3.298 0 0 1-.492 1.667c-.4.655-.87 1.264-1.4 1.819l-2.687 2.917h4.958v1.25z" fill="#293052"/><path fill="#D5D3DA" d="M27.1 84.43h25.093v16.517H27.099z"/><path fill="#D5D3DA" d="M37.28 100.966l2.381-2.384 2.382 2.384-2.382 2.384z"/><path fill="#293052" d="M40.422 97.955h-1.4v-8.903h-2.12v-.985l3.482-.38v10.268z"/><path d="M28.38 137.247c-1.206-.347-2.084-.773-2.633-1.278a2.442 2.442 0 0 1-.824-1.872c0-.84.336-1.534 1.007-2.084.671-.549 1.544-.824 2.618-.824.733 0 1.386.142 1.96.425a3.221 3.221 0 0 1 1.333 1.172c.315.498.472 1.043.472 1.633h-1.414c0-.644-.205-1.15-.615-1.52-.41-.368-.989-.552-1.736-.552-.693 0-1.234.152-1.622.457-.388.306-.582.73-.582 1.271 0 .435.184.802.553 1.102.368.3.996.575 1.882.824.886.25 1.58.524 2.08.824.5.3.872.651 1.113 1.051.242.4.363.872.363 1.414 0 .864-.337 1.556-1.01 2.076-.675.52-1.575.78-2.703.78-.733 0-1.416-.14-2.051-.42-.635-.281-1.124-.666-1.469-1.154a2.815 2.815 0 0 1-.516-1.663H26c0 .645.238 1.154.714 1.527.476.374 1.112.56 1.908.56.742 0 1.31-.15 1.706-.454.396-.302.593-.715.593-1.237 0-.523-.183-.927-.549-1.212-.366-.286-1.03-.568-1.992-.846zm7.383-5.09v1.918h1.48v1.048h-1.48v4.914c0 .317.066.556.197.714.132.159.357.238.674.238.157 0 .371-.029.645-.088V142a3.928 3.928 0 0 1-1.04.146c-.606 0-1.062-.183-1.37-.549-.307-.366-.461-.886-.461-1.56v-4.914h-1.443v-1.048h1.443v-1.919h1.355zM43.717 142c-.078-.156-.142-.435-.19-.835-.63.654-1.382.981-2.256.981-.782 0-1.423-.22-1.923-.662-.5-.442-.75-1.003-.75-1.681 0-.825.313-1.466.94-1.923.628-.456 1.51-.685 2.648-.685h1.318v-.622c0-.474-.141-.851-.424-1.132-.284-.28-.701-.421-1.253-.421-.483 0-.889.122-1.216.366-.327.244-.49.54-.49.886h-1.363c0-.395.14-.777.421-1.146.281-.368.662-.66 1.143-.875a3.844 3.844 0 0 1 1.586-.322c.913 0 1.628.228 2.146.685.517.456.786 1.085.805 1.886v3.647c0 .728.093 1.306.279 1.736V142h-1.421zm-2.249-1.033c.425 0 .828-.11 1.209-.33.38-.219.656-.505.827-.856v-1.626h-1.062c-1.66 0-2.49.486-2.49 1.457 0 .425.142.757.425.996.283.24.647.36 1.091.36zm9.346-5.676a4.06 4.06 0 0 0-.667-.051c-.888 0-1.491.378-1.809 1.135V142h-1.355v-7.925h1.319l.022.916c.444-.708 1.074-1.062 1.89-1.062.263 0 .463.034.6.102v1.26zm3.45-3.135v1.92h1.48v1.047h-1.48v4.914c0 .317.066.556.197.714.132.159.357.238.674.238.157 0 .371-.029.645-.088V142a3.928 3.928 0 0 1-1.04.146c-.606 0-1.062-.183-1.37-.549-.308-.366-.461-.886-.461-1.56v-4.914h-1.443v-1.048h1.443v-1.919h1.355zM255.266 99.07h-4.622v3.78h5.369V104h-6.775V93.336h6.701v1.157h-5.295v3.428h4.622v1.15zm3.567-2.995l.043.996c.606-.761 1.397-1.142 2.374-1.142 1.674 0 2.519.945 2.534 2.834V104h-1.355v-5.244c-.005-.571-.136-.994-.392-1.267-.256-.274-.656-.41-1.198-.41-.44 0-.825.117-1.157.351-.332.235-.59.542-.776.923V104h-1.355v-7.925h1.282zm6.665 3.897c0-1.216.288-2.194.864-2.934.576-.74 1.33-1.11 2.263-1.11.928 0 1.663.318 2.205.953V92.75h1.355V104h-1.246l-.065-.85c-.542.664-1.297.996-2.264.996-.918 0-1.666-.375-2.245-1.127-.578-.752-.867-1.734-.867-2.945v-.102zm1.355.153c0 .899.185 1.602.556 2.11.371.508.884.762 1.538.762.86 0 1.487-.386 1.883-1.158V98.2c-.406-.747-1.028-1.12-1.868-1.12-.664 0-1.182.256-1.553.769-.37.512-.556 1.272-.556 2.277z" fill="#2A3052"/><path d="M24.712 14.91c0 1.05-.186 1.97-.557 2.76-.37.792-.902 1.402-1.593 1.832-.69.43-1.483.644-2.376.644-.884 0-1.673-.212-2.366-.637-.694-.425-1.23-1.031-1.612-1.82-.38-.788-.573-1.695-.578-2.72v-.528c0-1.05.19-1.974.568-2.772.378-.799.913-1.411 1.604-1.839.69-.427 1.48-.64 2.369-.64.889 0 1.678.213 2.37.64.69.428 1.225 1.04 1.603 1.839.379.798.568 1.72.568 2.765v.476zm-2.227-.484c0-1.118-.2-1.968-.6-2.549-.4-.58-.972-.871-1.714-.871-.737 0-1.306.287-1.707.86-.4.574-.603 1.415-.608 2.524v.52c0 1.089.2 1.933.601 2.534.4.6.977.9 1.729.9.737 0 1.303-.289 1.699-.867.395-.579.595-1.422.6-2.53v-.52zm3.355 1.553c0-1.235.277-2.22.831-2.952.554-.732 1.312-1.098 2.274-1.098.772 0 1.409.288 1.912.864V8.75h2.124V20h-1.912l-.102-.842c-.528.659-1.206.988-2.036.988-.933 0-1.681-.367-2.245-1.102-.564-.735-.846-1.756-.846-3.065zm2.117.154c0 .742.129 1.31.388 1.706.259.396.634.594 1.128.594.654 0 1.115-.276 1.384-.828v-3.127c-.264-.552-.72-.828-1.37-.828-1.02 0-1.53.828-1.53 2.483zm6.335-.154c0-1.235.277-2.22.831-2.952.554-.732 1.313-1.098 2.274-1.098.772 0 1.41.288 1.912.864V8.75h2.124V20h-1.912l-.102-.842c-.527.659-1.206.988-2.036.988-.933 0-1.681-.367-2.245-1.102-.564-.735-.846-1.756-.846-3.065zm2.117.154c0 .742.13 1.31.388 1.706.259.396.635.594 1.128.594.654 0 1.116-.276 1.384-.828v-3.127c-.264-.552-.72-.828-1.37-.828-1.02 0-1.53.828-1.53 2.483z" fill="#000"/><path d="M142.202 167.056l1.627-8.6h2.482l-2.682 12.086h-2.506l-1.968-8.084-1.967 8.084h-2.507L132 158.457h2.482l1.635 8.583 1.992-8.583h2.109l1.984 8.6zm7.827 3.486h-2.407v-8.981h2.407v8.981zm-2.548-11.305c0-.36.12-.656.361-.888.24-.233.569-.349.984-.349.41 0 .736.116.98.349.243.232.364.528.364.888 0 .365-.123.664-.369.896-.246.233-.571.349-.975.349s-.73-.116-.976-.349c-.246-.232-.369-.53-.369-.896zm6.732 2.324l.075 1.038c.642-.803 1.502-1.204 2.581-1.204.952 0 1.66.28 2.125.838.465.56.703 1.395.714 2.507v5.802h-2.399v-5.744c0-.509-.11-.878-.332-1.108-.221-.23-.59-.344-1.104-.344-.675 0-1.181.287-1.519.863v6.333h-2.399v-8.981h2.258zm9.753 5.271h-1.992l-.282-8.375h2.557l-.283 8.375zm-.996 1.312c.404 0 .73.119.976.356.246.238.369.543.369.914 0 .365-.123.666-.37.904-.246.238-.57.357-.975.357-.398 0-.72-.119-.967-.357a1.204 1.204 0 0 1-.37-.904c0-.366.124-.669.37-.91.246-.24.569-.36.967-.36z" fill="#FFF"/></g></svg>