<svg width="299" height="197" xmlns="http://www.w3.org/2000/svg"><g fill="none" fill-rule="evenodd"><path fill="#F1F2F2" d="M0 0h299v197H0z"/><path d="M1.987 1.98v193.04h295.026V1.98H1.987zM299 0v197H0V0h299z" fill="#C2C2C2" fill-rule="nonzero"/><path d="M9.765 57.597V56.43h279.823v1.167H9.765zm0 39.175v-1.167h279.823v1.167H9.765zm0 39.175v-1.167h279.823v1.167H9.765zm0 39.14v-1.168h279.823v1.168H9.765zM42.977 37.444h1.168v154.318h-1.168V37.444zm35.42 0h1.168v154.318h-1.167V37.444zm35.385 0h1.168v154.318h-1.168V37.444z" fill="#DFDEDE" fill-rule="nonzero"/><path d="M149.203 37.444h1.167v5.873h-1.167v-5.873zm0 11.746h1.167v5.873h-1.167V49.19zm0 11.746h1.167v5.874h-1.167v-5.874zm0 11.747h1.167v5.873h-1.167v-5.873zm0 11.746h1.167v5.873h-1.167V84.43zm0 11.747h1.167v5.873h-1.167v-5.873zm0 11.746h1.167v5.873h-1.167v-5.873zm0 11.747h1.167v5.873h-1.167v-5.873zm0 11.746h1.167v5.873h-1.167v-5.873zm0 11.746h1.167v5.874h-1.167v-5.874zm0 11.747h1.167v5.873h-1.167v-5.873zm0 11.746h1.167v5.873h-1.167v-5.873zm0 11.747h1.167v5.873h-1.167V178.4zm0 11.746h1.167v1.615h-1.167v-1.615z" fill="#E98024" fill-rule="nonzero"/><path d="M184.584 37.444h1.168v154.318h-1.168V37.444zm35.385 0h1.168v154.318h-1.168V37.444zM9.765 116.342v-1.168h279.823v1.168H9.765z" fill="#DFDEDE" fill-rule="nonzero"/><path d="M255.39 37.444h1.167v154.318h-1.167V37.444zM9.765 77.202v-1.167h279.823v1.167H9.765z" fill="#2A3052" fill-rule="nonzero"/><path d="M9.765 155.517v-1.167h5.874v1.167H9.765zm11.747 0v-1.167h5.873v1.167h-5.873zm11.746 0v-1.167h5.873v1.167h-5.873zm11.747 0v-1.167h5.873v1.167h-5.873zm11.746 0v-1.167h5.873v1.167h-5.873zm11.746 0v-1.167h5.874v1.167h-5.874zm11.747 0v-1.167h5.873v1.167h-5.873zm11.746 0v-1.167h5.874v1.167H91.99zm11.747 0v-1.167h5.873v1.167h-5.873zm11.746 0v-1.167h5.873v1.167h-5.873zm11.747 0v-1.167h5.873v1.167h-5.873zm11.746 0v-1.167h5.873v1.167h-5.873zm11.746 0v-1.167h5.874v1.167h-5.874zm11.747 0v-1.167h5.873v1.167h-5.873zm11.746 0v-1.167h5.874v1.167h-5.874zm11.747 0v-1.167h5.873v1.167h-5.873zm11.746 0v-1.167h5.873v1.167h-5.873zm11.747 0v-1.167h5.873v1.167h-5.873zm11.746 0v-1.167h5.873v1.167h-5.873zm11.746 0v-1.167h5.874v1.167h-5.874zm11.747 0v-1.167h5.873v1.167h-5.873zm11.746 0v-1.167h5.874v1.167h-5.874zm11.747 0v-1.167h5.873v1.167h-5.873zm11.746 0v-1.167h5.873v1.167h-5.873z" fill="#E98024" fill-rule="nonzero"/><path fill="#C2C2C2" fill-rule="nonzero" d="M2 37.456V35.12h295v2.336z"/><path d="M44.17 155.022a1.751 1.751 0 1 1-2.398-2.553l40.078-37.65a1.751 1.751 0 0 1 1.612-.425l36.942 8.976 27.153-48.706a1.751 1.751 0 0 1 2.656-.488l34.96 29.378 34.693-1.918c.351-.02.7.068 1.001.25l35.42 21.361a1.751 1.751 0 0 1-1.808 3l-34.959-21.084-34.846 1.926a1.751 1.751 0 0 1-1.223-.408l-33.868-28.46-26.768 48.018a1.751 1.751 0 0 1-1.943.85l-37.315-9.067-39.387 37z" fill="#2A3052" fill-rule="nonzero"/><circle cx="8.161" cy="8.188" r="7.836" opacity=".6" transform="translate(247.222 115.222)" fill="#FFF"/><path d="M255.383 132.39a8.98 8.98 0 1 1 0-17.961 8.98 8.98 0 0 1 0 17.962zm0-2.288a6.692 6.692 0 1 0 0-13.384 6.692 6.692 0 0 0 0 13.384z" fill="#E88024" fill-rule="nonzero"/><circle cx="8.526" cy="8.228" r="7.836" opacity=".6" transform="translate(34.444 145.667)" fill="#FFF"/><path d="M42.97 162.876a8.98 8.98 0 1 1 0-17.962 8.98 8.98 0 0 1 0 17.962zm0-2.289a6.692 6.692 0 1 0 0-13.384 6.692 6.692 0 0 0 0 13.384z" fill="#E88024" fill-rule="nonzero"/><circle cx="8.026" cy="8.644" r="7.836" opacity=".6" transform="translate(140.556 68)" fill="#FFF"/><path d="M148.581 85.624a8.98 8.98 0 1 1 0-17.961 8.98 8.98 0 0 1 0 17.961zm0-2.288a6.692 6.692 0 1 0 0-13.385 6.692 6.692 0 0 0 0 13.385z" fill="#E88024" fill-rule="nonzero"/><path d="M258.65 150.92h-37.126l-5.28-7.898-5.28 7.9h-37.142a4.622 4.622 0 0 0-4.622 4.623v23.875a4.622 4.622 0 0 0 4.622 4.623h84.829a4.622 4.622 0 0 0 4.622-4.623v-23.879a4.622 4.622 0 0 0-4.622-4.622z" fill="#E88024"/><path d="M20.733 18.4v3.887h-1.955v-9.731h3.673a4.032 4.032 0 0 1 2.602.757c.638.52.988 1.312.943 2.133.01.463-.129.916-.395 1.294a2.72 2.72 0 0 1-1.156.875c.503.122.943.425 1.238.85.265.443.397.952.38 1.468v.711c.002.288.038.575.107.854.05.255.185.486.38.658v.138h-2.012a1.099 1.099 0 0 1-.356-.71 6.002 6.002 0 0 1-.07-.957v-.694a1.54 1.54 0 0 0-.4-1.13 1.486 1.486 0 0 0-1.116-.402h-1.863zm0-1.507h1.686c.438.033.873-.093 1.226-.355a1.27 1.27 0 0 0 .406-1.028 1.422 1.422 0 0 0-.406-1.066 1.646 1.646 0 0 0-1.194-.395h-1.718v2.844zm10.134 5.533a3.253 3.253 0 0 1-2.49-1 3.584 3.584 0 0 1-.938-2.549v-.266a3.936 3.936 0 0 1 .889-2.653 2.951 2.951 0 0 1 2.375-1.038c.85-.051 1.68.272 2.272.885.567.662.858 1.516.81 2.386v1.067h-4.323v.039c.02.435.189.85.48 1.173.3.302.713.462 1.138.441.36.009.72-.036 1.067-.131.325-.104.639-.242.935-.413l.53 1.209c-.348.268-.74.471-1.16.6a4.978 4.978 0 0 1-1.585.25zm-.167-5.998a1.006 1.006 0 0 0-.854.412c-.232.32-.371.698-.402 1.092l.022.032h2.393v-.175a1.579 1.579 0 0 0-.292-.995 1.067 1.067 0 0 0-.867-.366zm8.128 3.868a.672.672 0 0 0-.31-.551 3.228 3.228 0 0 0-1.155-.42 4.65 4.65 0 0 1-1.935-.768 1.682 1.682 0 0 1-.65-1.397 1.995 1.995 0 0 1 .786-1.582 3.2 3.2 0 0 1 2.1-.654 3.46 3.46 0 0 1 2.202.65c.521.38.818.995.79 1.64v.035h-1.889a.953.953 0 0 0-.274-.711 1.12 1.12 0 0 0-.814-.274 1.141 1.141 0 0 0-.747.231.74.74 0 0 0-.27.58.658.658 0 0 0 .285.547c.355.202.746.33 1.152.38.708.105 1.383.37 1.973.776.43.343.67.872.647 1.422a1.899 1.899 0 0 1-.835 1.596 3.609 3.609 0 0 1-2.205.616 3.353 3.353 0 0 1-2.283-.73 2.048 2.048 0 0 1-.8-1.667v-.039h1.778c-.015.325.127.637.38.84.28.184.61.274.943.259.29.02.58-.054.825-.21a.686.686 0 0 0 .306-.569zm6.353 2.13a3.26 3.26 0 0 1-2.489-1 3.595 3.595 0 0 1-.935-2.549v-.266a3.95 3.95 0 0 1 .886-2.653 3.296 3.296 0 0 1 4.65-.153 3.4 3.4 0 0 1 .807 2.386v1.067h-4.33v.039a1.9 1.9 0 0 0 .476 1.173c.301.313.722.48 1.156.459.36.009.72-.036 1.066-.132.327-.104.642-.242.94-.412l.525 1.209c-.346.267-.738.47-1.155.6a4.978 4.978 0 0 1-1.597.232zm-.177-5.998a1.01 1.01 0 0 0-.854.412c-.226.322-.36.7-.387 1.092l.017.032h2.393v-.175a1.6 1.6 0 0 0-.288-.995 1.067 1.067 0 0 0-.881-.366zm6.538-3.144v1.778h1.216v1.373h-1.216v3.673a.871.871 0 0 0 .174.604.636.636 0 0 0 .484.2c.088.005.176.005.263 0a1.98 1.98 0 0 0 .256-.061l.17 1.422a4.924 4.924 0 0 1-.575.15 3.3 3.3 0 0 1-.608.045 2.073 2.073 0 0 1-1.554-.55 2.44 2.44 0 0 1-.548-1.778v-3.712h-1.066v-1.373h1.066v-1.778l1.938.007zm7.982 5.472v3.531h-1.952v-9.731h3.872a3.836 3.836 0 0 1 2.639.853 2.87 2.87 0 0 1 .963 2.254 2.844 2.844 0 0 1-.963 2.247 3.85 3.85 0 0 1-2.639.846h-1.92zm0-1.504h1.92c.456.034.905-.127 1.234-.444.286-.306.438-.713.423-1.13a1.643 1.643 0 0 0-.412-1.167 1.586 1.586 0 0 0-1.245-.451h-1.92v3.192zm11.222 3.993c-.203.36-.494.663-.846.879a2.524 2.524 0 0 1-2.973-.427 3.37 3.37 0 0 1-.643-2.276v-4.366h1.944v4.391c-.033.397.06.794.267 1.134a.94.94 0 0 0 .79.356c.274.008.546-.043.8-.15.218-.099.407-.252.55-.444v-5.287h1.953v7.232H70.92l-.174-1.042zm5.632-7.96v1.777h1.22v1.373h-1.22v3.673a.871.871 0 0 0 .174.604.636.636 0 0 0 .47.181 1.8 1.8 0 0 0 .262 0 2.02 2.02 0 0 0 .26-.06l.167 1.422a4.587 4.587 0 0 1-.576.15c-.2.034-.404.05-.608.046a2.08 2.08 0 0 1-1.554-.551 2.44 2.44 0 0 1-.544-1.778v-3.694h-1.066v-1.373h1.066v-1.778l1.949.007z" fill="#000" fill-rule="nonzero"/><path d="M33.396 173.856a1.483 1.483 0 0 0-.516-1.148 4.338 4.338 0 0 0-1.828-.772 6.076 6.076 0 0 1-2.488-1.12 2.3 2.3 0 0 1-.875-1.838 2.421 2.421 0 0 1 .96-1.956c.71-.55 1.592-.83 2.489-.79a3.705 3.705 0 0 1 2.617.904 2.66 2.66 0 0 1 .938 2.09v.043h-1.315a1.863 1.863 0 0 0-.58-1.422 2.35 2.35 0 0 0-1.667-.544 2.325 2.325 0 0 0-1.55.459 1.49 1.49 0 0 0-.541 1.19c.001.438.22.846.583 1.089.58.373 1.223.633 1.899.768a5.4 5.4 0 0 1 2.407 1.155c.536.482.836 1.172.825 1.892a2.315 2.315 0 0 1-.992 1.948 4.235 4.235 0 0 1-2.585.736 4.498 4.498 0 0 1-2.649-.817 2.45 2.45 0 0 1-1.116-2.176v-.043h1.29a1.678 1.678 0 0 0 .711 1.465c.517.348 1.13.525 1.753.505.574.03 1.142-.12 1.625-.43.393-.265.622-.714.605-1.188zm4.86-6.713v1.778h1.422v1.006h-1.422v4.52c-.026.262.052.525.217.732.154.145.36.222.572.213a1.51 1.51 0 0 0 .26-.028c.086-.016.17-.038.252-.068l.178.928a1.234 1.234 0 0 1-.444.203 2.24 2.24 0 0 1-.587.081 1.756 1.756 0 0 1-1.316-.5 2.172 2.172 0 0 1-.487-1.562v-4.505h-1.18v-1.006h1.18v-1.778l1.355-.014zm7.652 9.234c-.043-.228-.082-.427-.104-.594a3.705 3.705 0 0 1-.046-.523 3.2 3.2 0 0 1-.985.9 2.57 2.57 0 0 1-1.312.356 2.44 2.44 0 0 1-1.777-.598 2.19 2.19 0 0 1-.608-1.639 1.913 1.913 0 0 1 .864-1.667 4.014 4.014 0 0 1 2.34-.601h1.471v-.736a1.369 1.369 0 0 0-.398-1.035 1.56 1.56 0 0 0-1.127-.38 1.64 1.64 0 0 0-1.067.33 1.003 1.003 0 0 0-.409.8h-1.283v-.039a1.806 1.806 0 0 1 .768-1.486 3.15 3.15 0 0 1 2.087-.672 3.076 3.076 0 0 1 2.034.64c.53.466.815 1.151.771 1.856v3.58c0 .257.013.513.04.768.027.249.078.494.152.733l-1.411.007zm-2.248-1c.47.007.93-.124 1.327-.376a1.8 1.8 0 0 0 .771-.864v-1.205H44.24a1.977 1.977 0 0 0-1.312.408c-.305.23-.486.589-.49.971-.016.292.097.577.309.779.256.209.583.312.913.288zm8.94-5.244l-.712-.042c-.32-.01-.635.078-.903.252a1.65 1.65 0 0 0-.565.711v5.334h-1.36v-7.453h1.213l.131 1.067c.186-.356.452-.663.779-.896a1.82 1.82 0 0 1 1.067-.324c.096 0 .193.008.288.025.077.008.153.025.227.05l-.167 1.276zm3.21-2.99v1.778h1.422v1.006H55.81v4.52a1 1 0 0 0 .217.732c.153.146.36.223.572.213.082.003.164-.002.245-.014.086-.015.171-.038.253-.068l.181.928a1.266 1.266 0 0 1-.444.203 2.23 2.23 0 0 1-.59.082 1.746 1.746 0 0 1-1.312-.502 2.172 2.172 0 0 1-.488-1.56v-4.52H53.29v-1.006h1.184v-1.778l1.337-.014zm214.802-25.621h-4.587v3.577h5.287v1.066h-6.642v-10.012h6.574v1.067h-5.22v3.235h4.588v1.067zm3.242-2.798l.1 1.105c.23-.376.549-.69.928-.917a2.5 2.5 0 0 1 1.276-.324 2.41 2.41 0 0 1 1.863.712c.49.614.726 1.392.662 2.176v4.693h-1.355v-4.676a2.027 2.027 0 0 0-.388-1.397 1.56 1.56 0 0 0-1.187-.409 1.934 1.934 0 0 0-1.035.281c-.3.191-.544.457-.71.772v5.422h-1.356v-7.438h1.202zm6.486 3.857a4.978 4.978 0 0 1 .768-2.894 2.457 2.457 0 0 1 2.133-1.099c.4-.007.795.074 1.159.239.34.166.636.41.864.71v-4.088h1.355v10.723h-1.11l-.156-.91a2.393 2.393 0 0 1-.896.786 2.649 2.649 0 0 1-1.23.274 2.542 2.542 0 0 1-2.134-.992 4.075 4.075 0 0 1-.771-2.592l.018-.157zm1.354.146a3.15 3.15 0 0 0 .462 1.806 1.61 1.61 0 0 0 1.423.676 1.81 1.81 0 0 0 1.017-.274c.285-.198.517-.463.675-.771v-3.474a2.133 2.133 0 0 0-.679-.733 1.82 1.82 0 0 0-1.003-.27 1.54 1.54 0 0 0-1.422.804 4.11 4.11 0 0 0-.466 2.09l-.007.146z" fill="#293052" fill-rule="nonzero"/><path d="M90.58 61.284l-.712 3.616H88.76l1.664-8.338h2.845a2.357 2.357 0 0 1 1.777.618 1.88 1.88 0 0 1 .356 1.753 2.489 2.489 0 0 1-.548 1.16 2.802 2.802 0 0 1-1.066.735c.346.129.622.397.76.74.137.387.16.806.065 1.205l-.157.786a2.628 2.628 0 0 0-.064.711.92.92 0 0 0 .178.494l-.029.14H93.4a.779.779 0 0 1-.154-.566 4.92 4.92 0 0 1 .103-.786l.157-.764a1.42 1.42 0 0 0-.128-1.106.974.974 0 0 0-.871-.395l-1.927-.003zm.177-.89h1.618c.459.023.912-.108 1.287-.373a1.81 1.81 0 0 0 .633-1.095 1.348 1.348 0 0 0-.139-1.11 1.316 1.316 0 0 0-1.066-.355h-1.757l-.576 2.934zm7.577 4.626a2.02 2.02 0 0 1-1.778-.867 3 3 0 0 1-.38-2.233l.04-.252a3.876 3.876 0 0 1 1.087-2.23 2.635 2.635 0 0 1 1.877-.85 1.778 1.778 0 0 1 1.632.761c.346.612.452 1.33.3 2.016l-.115.711h-3.73a2.453 2.453 0 0 0 .175 1.504c.2.374.604.594 1.027.559a2.71 2.71 0 0 0 1.714-.612l.313.736c-.26.238-.563.423-.892.548-.406.15-.837.221-1.27.21zm.711-5.546a1.29 1.29 0 0 0-.931.48c-.309.338-.53.747-.644 1.19v.036h2.55l.02-.149a1.739 1.739 0 0 0-.13-1.123.92.92 0 0 0-.861-.441l-.004.007zm6.336 3.78a.711.711 0 0 0-.156-.62 1.938 1.938 0 0 0-.903-.412 3.41 3.41 0 0 1-1.486-.668 1.173 1.173 0 0 1-.356-1.149c.084-.524.375-.992.807-1.301a2.628 2.628 0 0 1 1.653-.516 1.952 1.952 0 0 1 1.504.559c.346.356.488.863.377 1.347v.036h-1.066a.885.885 0 0 0-.2-.736.9.9 0 0 0-.753-.32c-.303-.014-.6.08-.84.266a1.03 1.03 0 0 0-.376.637.644.644 0 0 0 .135.587c.265.193.572.32.896.373a3.396 3.396 0 0 1 1.525.683c.314.297.45.737.356 1.159a1.977 1.977 0 0 1-.836 1.347 2.92 2.92 0 0 1-1.72.494 2.098 2.098 0 0 1-1.626-.608 1.508 1.508 0 0 1-.401-1.397v-.035h1.066a.91.91 0 0 0 .26.874c.236.19.533.289.835.278.311.01.618-.076.879-.246a.932.932 0 0 0 .426-.633zm4.587 1.766a2.016 2.016 0 0 1-1.778-.867 2.983 2.983 0 0 1-.38-2.233l.039-.252a3.876 3.876 0 0 1 1.088-2.23 2.628 2.628 0 0 1 1.877-.85 1.778 1.778 0 0 1 1.632.761c.345.612.452 1.33.299 2.016l-.117.711h-3.734a2.453 2.453 0 0 0 .174 1.504c.201.374.605.594 1.028.559a2.71 2.71 0 0 0 1.714-.612l.313.736c-.26.238-.563.423-.893.548-.403.149-.832.22-1.262.21zm.711-5.546a1.29 1.29 0 0 0-.931.48 2.77 2.77 0 0 0-.644 1.19v.036h2.546l.025-.149a1.739 1.739 0 0 0-.132-1.123.92.92 0 0 0-.857-.441l-.007.007zm5.657-2.269l-.302 1.497h1.066l-.167.832h-1.066l-.75 3.77a.814.814 0 0 0 .028.625.473.473 0 0 0 .405.16 2.432 2.432 0 0 0 .615-.078v.775c-.147.081-.307.14-.473.17a3.2 3.2 0 0 1-.604.064 1.092 1.092 0 0 1-.924-.423 1.586 1.586 0 0 1-.146-1.294l.75-3.769h-.907l.167-.832h.907l.302-1.497h1.099zm10.642.239h-2.49L123 64.91h-1.088l1.49-7.466h-2.464l.178-.89h6.044l-.181.89zm.682 7.456h-1.105l1.237-6.198h1.106L127.66 64.9zm1.558-7.787h-1.106l.228-1.152h1.105l-.227 1.152zm2.243 2.325a2.418 2.418 0 0 1 1.888-.85 1.284 1.284 0 0 1 1.351 1.113c.226-.334.523-.614.872-.817a2.129 2.129 0 0 1 1.112-.296 1.34 1.34 0 0 1 1.224.658c.29.607.346 1.3.156 1.945l-.74 3.709h-1.112l.746-3.72a2.213 2.213 0 0 0 0-1.333.836.836 0 0 0-.786-.355c-.34.012-.66.162-.888.416-.282.285-.49.633-.608 1.016v.029l-.786 3.936h-1.113l.747-3.72a2.087 2.087 0 0 0-.025-1.304.807.807 0 0 0-.779-.373 1.422 1.422 0 0 0-.779.22c-.239.158-.44.367-.59.612l-.917 4.565h-1.106l1.237-6.197h.985l-.089.746zm9.913 5.582a2.016 2.016 0 0 1-1.778-.867 2.983 2.983 0 0 1-.38-2.233l.04-.252a3.876 3.876 0 0 1 1.087-2.23 2.628 2.628 0 0 1 1.877-.85 1.778 1.778 0 0 1 1.632.761c.346.612.452 1.33.3 2.016l-.118.711H140.3a2.453 2.453 0 0 0 .175 1.504c.2.374.604.594 1.027.559a2.71 2.71 0 0 0 1.714-.612l.313.736c-.26.238-.563.423-.893.548-.403.149-.832.22-1.262.21zm.711-5.546a1.29 1.29 0 0 0-.931.48 2.77 2.77 0 0 0-.644 1.19l.018.036h2.546l.025-.149a1.739 1.739 0 0 0-.132-1.123.92.92 0 0 0-.875-.441l-.007.007zM265.431 84.96h-2.265l-1.365 6.834h-1.013l1.365-6.834h-2.258l.164-.814h5.536l-.164.814zm2.173 6.834v-.427c0-.11.02-.22.039-.334a3.271 3.271 0 0 1-.807.619c-.277.16-.59.247-.91.252a1.38 1.38 0 0 1-1.15-.466 1.45 1.45 0 0 1-.209-1.244 1.888 1.888 0 0 1 .857-1.298 3.24 3.24 0 0 1 1.756-.434h.971l.11-.562a.97.97 0 0 0-.113-.807.892.892 0 0 0-.736-.273 1.34 1.34 0 0 0-.8.256 1.01 1.01 0 0 0-.427.608h-.96v-.032c.095-.476.38-.892.79-1.152a2.688 2.688 0 0 1 1.628-.495c.496-.027.98.155 1.337.502.345.387.463.926.312 1.422l-.547 2.734a5.372 5.372 0 0 0-.096.594 2.89 2.89 0 0 0 0 .555l-1.045-.018zm-1.344-.758a1.78 1.78 0 0 0 .867-.248c.27-.14.503-.34.683-.584l.21-1.045h-1.003a1.511 1.511 0 0 0-.935.32 1.24 1.24 0 0 0-.494.736.711.711 0 0 0 .081.612c.156.16.377.237.598.21h-.007zm7.2-4.01l-.555-.036a1.099 1.099 0 0 0-.64.2c-.207.144-.38.334-.505.554l-.81 4.05h-1.014l1.138-5.69h.906l-.064.765c.177-.257.403-.476.665-.643.24-.147.516-.225.797-.224h.227c.062.01.122.023.182.042l-.327.982zm.305 1.927a4.712 4.712 0 0 1 .939-2.205 2.087 2.087 0 0 1 1.653-.743 1.72 1.72 0 0 1 .836.203c.246.137.45.339.59.583l.22-.683h.865l-1.12 5.611a2.955 2.955 0 0 1-.95 1.778 2.766 2.766 0 0 1-1.845.597 3.275 3.275 0 0 1-.797-.114 2.546 2.546 0 0 1-.71-.305l.412-.804a1.8 1.8 0 0 0 .569.256c.231.064.47.096.71.096.395.017.78-.125 1.067-.395.297-.3.492-.685.559-1.102l.081-.387a2.073 2.073 0 0 1-1.44.572 1.515 1.515 0 0 1-1.39-.825 2.823 2.823 0 0 1-.234-2.02l-.015-.113zm.996.107c-.134.479-.106.988.078 1.45a.96.96 0 0 0 .957.551c.242.002.478-.073.675-.213.221-.164.408-.37.551-.604l.53-2.65a1.237 1.237 0 0 0-.42-.543 1.116 1.116 0 0 0-.686-.207c-.43 0-.831.217-1.066.576-.314.46-.521.984-.608 1.533l-.011.107zm6.68 2.844a1.845 1.845 0 0 1-1.62-.796 2.727 2.727 0 0 1-.356-2.048l.035-.232a3.591 3.591 0 0 1 .996-2.044 2.425 2.425 0 0 1 1.72-.779 1.646 1.646 0 0 1 1.498.711c.316.56.414 1.216.274 1.842l-.107.65h-3.424c-.093.466-.037.949.16 1.38.186.34.555.54.942.509.296.004.59-.047.868-.153a2.43 2.43 0 0 0 .71-.405l.289.672a2.532 2.532 0 0 1-.818.501 3.093 3.093 0 0 1-1.166.192zm.655-5.084c-.334.02-.644.18-.853.44a2.56 2.56 0 0 0-.59 1.092l.017.032h2.336l.022-.139c.074-.347.031-.71-.121-1.03a.846.846 0 0 0-.811-.395zm5.18-2.08L287 86.108h.981l-.152.768h-.982l-.69 3.45a.772.772 0 0 0 .029.579c.09.099.221.152.355.146a2.59 2.59 0 0 0 .292-.022c.114 0 .203-.032.27-.05v.712a1.351 1.351 0 0 1-.434.153 2.489 2.489 0 0 1-.554.064 1 1 0 0 1-.846-.392 1.458 1.458 0 0 1-.136-1.187l.69-3.449h-.818l.15-.768h.828l.281-1.369 1.013-.003z" fill="#6D6E70" fill-rule="nonzero"/><path d="M208.471 171.05h.06l2.109-10.136h2.894l-3.445 14.784h-2.752l-2.713-9.76h-.06l-2.713 9.76h-2.752l-3.463-14.784h2.904l2.134 10.126h.06l2.774-10.137h2.183l2.78 10.148zm9.604-8.97h-2.966v-2.222h2.966v2.222zm0 13.618h-2.966V164.71h2.966v10.987zm5.17-10.987l.131 1.575a3.907 3.907 0 0 1 1.348-1.308 3.502 3.502 0 0 1 1.799-.47 3.307 3.307 0 0 1 2.599 1.046 4.83 4.83 0 0 1 .935 3.278v6.866h-2.976v-6.87a2.219 2.219 0 0 0-.448-1.571 1.778 1.778 0 0 0-1.348-.466 2.29 2.29 0 0 0-1.066.242c-.31.16-.577.391-.779.675v7.99h-2.965V164.71h2.77zm12.195 5.892h-2.951v-9.69h2.965l-.014 9.69zm0 5.095h-2.951v-2.6h2.965l-.014 2.6z" fill="#FFF" fill-rule="nonzero"/></g></svg>