<svg width="299" height="197" xmlns="http://www.w3.org/2000/svg"><g fill="none" fill-rule="evenodd"><path fill="#F1F2F2" d="M0 0h299v197H0z"/><path d="M1.987 1.98v193.04h295.026V1.98H1.987zM299 0v197H0V0h299z" fill="#C2C2C2" fill-rule="nonzero"/><path d="M8 56.36v-1.153h283v1.152H8zm0 39.6v-1.15h283v1.152H8zm0 39.602v-1.152h283v1.152H8zm0 39.566v-1.152h283v1.152H8zM41.603 36h1.152v156h-1.152V36zm35.823 0h1.152v156h-1.152V36zm35.787 0h1.152v156h-1.152V36z" fill="#DFDEDE" fill-rule="nonzero"/><path d="M147.924 36h1.152v5.796h-1.152V36zm0 11.591h1.152v5.796h-1.152v-5.796zm0 11.592h1.152v5.795h-1.152v-5.795zm0 11.591h1.152v5.796h-1.152v-5.796zm0 11.591h1.152v5.796h-1.152v-5.796zm0 11.592h1.152v5.795h-1.152v-5.795zm0 11.591h1.152v5.796h-1.152v-5.796zm0 11.592h1.152v5.795h-1.152v-5.795zm0 11.59h1.152v5.797h-1.152v-5.796zm0 11.592h1.152v5.796h-1.152v-5.796zm0 11.592h1.152v5.795h-1.152v-5.795zm0 11.591h1.152v5.796h-1.152v-5.796zm0 11.591h1.152v5.796h-1.152v-5.796zm0 11.592h1.152V192h-1.152v-5.312z" fill="#E98024" fill-rule="nonzero"/><path d="M184.819 36h1.152v156h-1.152V36zm35.786 0h1.152v156h-1.152V36zM8 115.744v-1.152h283v1.152H8z" fill="#DFDEDE" fill-rule="nonzero"/><path fill="#2A3052" fill-rule="nonzero" d="M256.924 36h1.152v156h-1.152z"/><path fill="#E98024" fill-rule="nonzero" d="M8 77.076v-1.152h3v1.152zm9 0v-1.152h5.757v1.152H17zm11.514 0v-1.152h5.757v1.152h-5.757zm11.514 0v-1.152h5.757v1.152h-5.757zm11.514 0v-1.152H57.3v1.152h-5.757zm11.514 0v-1.152h5.757v1.152h-5.757zm11.514 0v-1.152h5.757v1.152H74.57zm11.515 0v-1.152h5.757v1.152h-5.757zm11.514 0v-1.152h5.757v1.152h-5.757zm11.514 0v-1.152h5.757v1.152h-5.757zm11.514 0v-1.152h5.757v1.152h-5.757zm11.514 0v-1.152h5.757v1.152h-5.757zm11.514 0v-1.152h5.757v1.152h-5.757zm11.514 0v-1.152h5.757v1.152h-5.757zm11.514 0v-1.152h5.757v1.152h-5.757zm11.514 0v-1.152h5.757v1.152h-5.757zm11.514 0v-1.152h5.757v1.152h-5.757zm11.514 0v-1.152h5.757v1.152h-5.757zm11.514 0v-1.152h5.757v1.152h-5.757zm11.515 0v-1.152h5.757v1.152h-5.757zm11.514 0v-1.152h5.757v1.152h-5.757zm11.514 0v-1.152h5.757v1.152h-5.757zm11.514 0v-1.152h5.757v1.152h-5.757zm11.514 0v-1.152h5.757v1.152h-5.757zm11.514 0v-1.152H285v1.152h-3.176zm6.176 0v-1.152h3v1.152z"/><path fill="#2A3052" fill-rule="nonzero" d="M8 156.076v-1.152h283v1.152z"/><path fill="#C2C2C2" fill-rule="nonzero" d="M3 35.652v-2.304h293v2.304z"/><path d="M119.4 106.624l-37.426 9.073a1.728 1.728 0 0 1-1.59-.419L39.819 77.261a1.728 1.728 0 0 1 2.364-2.522l39.885 37.379 37.795-9.163a1.728 1.728 0 0 1 1.915.837l27.121 48.542 34.324-28.776a1.728 1.728 0 0 1 1.205-.401l35.286 1.945 35.396-21.298a1.728 1.728 0 0 1 1.782 2.962l-35.852 21.572c-.297.178-.64.264-.986.245l-35.134-1.938-35.4 29.68a1.73 1.73 0 0 1-2.62-.482l-27.499-49.22z" fill="#2A3052" fill-rule="nonzero"/><path d="M257.332 150.893H219.83L214.498 143l-5.332 7.897h-37.498c-2.578 0-4.668 2.068-4.668 4.62v23.863c0 2.552 2.09 4.62 4.668 4.62h85.664c2.578 0 4.668-2.068 4.668-4.62v-23.867c0-2.552-2.09-4.62-4.668-4.62z" fill="#E88024"/><circle cx="8.196" cy="8.684" r="7.836" opacity=".6" transform="translate(249 98)" fill="#FFF"/><path d="M257 116.13a9.13 9.13 0 1 1 0-18.26 9.13 9.13 0 0 1 0 18.26zm0-2.26a6.87 6.87 0 1 0 0-13.74 6.87 6.87 0 0 0 0 13.74z" fill="#E88024" fill-rule="nonzero"/><circle cx="8.116" cy="8.644" r="7.836" opacity=".6" transform="translate(33 67)" fill="#FFF"/><path d="M41 85.13a9.13 9.13 0 1 1 0-18.26 9.13 9.13 0 0 1 0 18.26zm0-2.26a6.87 6.87 0 1 0 0-13.74 6.87 6.87 0 0 0 0 13.74z" fill="#E88024" fill-rule="nonzero"/><circle cx="8.06" cy="8.228" r="7.836" opacity=".6" transform="translate(140 146)" fill="#FFF"/><path d="M148 163.13a9.13 9.13 0 1 1 0-18.26 9.13 9.13 0 0 1 0 18.26zm0-2.26a6.87 6.87 0 1 0 0-13.74 6.87 6.87 0 0 0 0 13.74z" fill="#E88024" fill-rule="nonzero"/><path d="M23.974 19.778v4.029H22V13.719h3.71a3.982 3.982 0 0 1 2.623.785c.644.538.997 1.36.951 2.211.01.48-.13.95-.398 1.342a2.754 2.754 0 0 1-1.166.907c.507.126.951.44 1.248.88.268.46.401.988.384 1.523v.737c.002.298.038.595.108.885.052.264.186.504.384.682v.143h-2.031a1.15 1.15 0 0 1-.359-.737 6.388 6.388 0 0 1-.072-.991v-.719a1.638 1.638 0 0 0-.398-1.172 1.49 1.49 0 0 0-1.13-.417h-1.88zm0-1.562h1.7c.443.033.882-.098 1.238-.37.288-.271.438-.664.41-1.064a1.497 1.497 0 0 0-.41-1.106 1.63 1.63 0 0 0-1.202-.41h-1.736v2.95zM34.2 23.95a3.239 3.239 0 0 1-2.512-1.036 3.775 3.775 0 0 1-.947-2.643v-.276a4.152 4.152 0 0 1 .897-2.75 2.943 2.943 0 0 1 2.397-1.076 2.901 2.901 0 0 1 2.293.918 3.57 3.57 0 0 1 .818 2.473v1.106h-4.363v.04c.02.45.192.88.484 1.217.302.312.72.479 1.148.457a3.62 3.62 0 0 0 1.077-.137c.328-.107.645-.25.943-.427l.535 1.253c-.35.277-.747.488-1.17.623a4.902 4.902 0 0 1-1.6.258zm-.169-6.218a1.006 1.006 0 0 0-.86.427 2.286 2.286 0 0 0-.406 1.132l.021.033h2.415v-.18a1.669 1.669 0 0 0-.294-1.033 1.064 1.064 0 0 0-.876-.38zm8.203 4.01a.701.701 0 0 0-.312-.571 3.204 3.204 0 0 0-1.166-.435 4.623 4.623 0 0 1-1.952-.796 1.762 1.762 0 0 1-.657-1.449c.001-.644.295-1.25.793-1.64a3.171 3.171 0 0 1 2.12-.678 3.419 3.419 0 0 1 2.222.674 2.01 2.01 0 0 1 .796 1.7v.036h-1.905a1.003 1.003 0 0 0-.276-.737 1.111 1.111 0 0 0-.822-.284 1.131 1.131 0 0 0-.753.24.775.775 0 0 0-.273.6.688.688 0 0 0 .287.568c.358.209.753.343 1.162.395a4.657 4.657 0 0 1 1.992.803c.434.356.677.904.653 1.474a1.984 1.984 0 0 1-.843 1.655 3.571 3.571 0 0 1-2.225.638 3.324 3.324 0 0 1-2.304-.756 2.145 2.145 0 0 1-.807-1.728v-.04h1.794c-.015.336.128.66.384.87.281.19.614.285.951.268.293.022.585-.055.832-.217a.717.717 0 0 0 .31-.59zm6.412 2.208a3.246 3.246 0 0 1-2.512-1.036 3.787 3.787 0 0 1-.943-2.643v-.276a4.168 4.168 0 0 1 .893-2.75 3.264 3.264 0 0 1 4.694-.158c.57.687.86 1.572.814 2.473v1.106h-4.37v.04c.02.45.19.88.48 1.217.304.324.73.497 1.167.475a3.61 3.61 0 0 0 1.076-.136 4.8 4.8 0 0 0 .947-.428l.532 1.253c-.35.278-.745.489-1.167.623a4.9 4.9 0 0 1-1.61.24zm-.18-6.218a1.01 1.01 0 0 0-.86.427 2.288 2.288 0 0 0-.391 1.132l.021.033h2.411v-.18a1.691 1.691 0 0 0-.29-1.033 1.063 1.063 0 0 0-.89-.38zm6.6-3.259v1.843h1.227v1.423h-1.227v3.808a.92.92 0 0 0 .175.626.634.634 0 0 0 .488.207c.089.006.178.006.266 0 .087-.015.174-.036.258-.063l.173 1.474a4.71 4.71 0 0 1-.582.155 3.244 3.244 0 0 1-.613.048 2.059 2.059 0 0 1-1.568-.571 2.575 2.575 0 0 1-.553-1.843v-3.848h-1.076V16.31h1.076v-1.843l1.956.007zm13.499 5.898v.044a3.34 3.34 0 0 1-.97 2.58 3.807 3.807 0 0 1-2.759.951 3.779 3.779 0 0 1-2.87-1.168 4.204 4.204 0 0 1-1.109-3.012v-2.001a4.285 4.285 0 0 1 1.076-3.015 3.636 3.636 0 0 1 2.806-1.18 4 4 0 0 1 2.85.962 3.34 3.34 0 0 1 .997 2.617v.04H66.67a2.253 2.253 0 0 0-.463-1.529 1.844 1.844 0 0 0-1.453-.527 1.627 1.627 0 0 0-1.403.737 3.196 3.196 0 0 0-.517 1.88v2.013c-.029.675.163 1.34.546 1.89.342.426.837.691 1.373.735a1.951 1.951 0 0 0 1.468-.502c.326-.432.484-.971.445-1.515h1.899zm5.54 3.435a4.473 4.473 0 0 1-.187-.538 4.624 4.624 0 0 1-.111-.582c-.197.358-.47.668-.797.906a1.975 1.975 0 0 1-1.184.369 2.413 2.413 0 0 1-1.769-.605 2.2 2.2 0 0 1-.62-1.65 2.009 2.009 0 0 1 .825-1.711 4.065 4.065 0 0 1 2.411-.605h1.102v-.608a1.181 1.181 0 0 0-.277-.837 1.279 1.279 0 0 0-1.557-.059.856.856 0 0 0-.258.664H69.78v-.044a1.919 1.919 0 0 1 .8-1.637 3.444 3.444 0 0 1 2.236-.693 3.214 3.214 0 0 1 2.124.686c.556.478.86 1.198.818 1.942v3.1a6.06 6.06 0 0 0 .065.98c.051.316.134.624.247.922h-1.966zm-1.794-1.349c.327.005.648-.087.925-.265.24-.14.43-.353.546-.609v-1.046H72.68a1.284 1.284 0 0 0-.95.324 1.06 1.06 0 0 0-.324.781c-.01.228.08.448.244.601.184.153.417.23.653.214h.008zm7 1.349h-1.97V13h1.97v10.807zm3.689 0h-1.97V13H83v10.807z" fill="#000" fill-rule="nonzero"/><path d="M35.065 59.692a1.489 1.489 0 0 0-.522-1.156 4.384 4.384 0 0 0-1.85-.776 6.137 6.137 0 0 1-2.52-1.128 2.31 2.31 0 0 1-.9-1.864 2.432 2.432 0 0 1 .971-1.969 3.835 3.835 0 0 1 2.52-.794 3.75 3.75 0 0 1 2.646.909c.622.521.972 1.296.95 2.104v.043h-1.313a1.88 1.88 0 0 0-.587-1.431 2.392 2.392 0 0 0-1.688-.548 2.382 2.382 0 0 0-1.574.462 1.492 1.492 0 0 0-.543 1.199c0 .44.222.85.59 1.095a5.584 5.584 0 0 0 1.922.773 5.445 5.445 0 0 1 2.434 1.163c.544.484.85 1.178.839 1.904.016.78-.36 1.515-1.005 1.96a4.335 4.335 0 0 1-2.617.742 4.565 4.565 0 0 1-2.682-.823 2.472 2.472 0 0 1-1.133-2.19v-.044h1.31c-.032.583.24 1.14.72 1.475a3.008 3.008 0 0 0 1.775.508 2.8 2.8 0 0 0 1.645-.433c.394-.263.625-.71.612-1.18zm4.924-6.757v1.79h1.44v1.013h-1.44v4.559c-.028.266.05.532.22.74a.787.787 0 0 0 .58.215 1.47 1.47 0 0 0 .262-.028c.086-.016.17-.038.252-.068l.184.93c-.135.1-.288.17-.45.208a2.27 2.27 0 0 1-.598.082 1.773 1.773 0 0 1-1.328-.504 2.182 2.182 0 0 1-.493-1.575v-4.545h-1.2v-1.013h1.2v-1.79l1.371-.014zm7.747 9.294a11.712 11.712 0 0 1-.108-.597 4.32 4.32 0 0 1-.043-.526 3.208 3.208 0 0 1-1.001.905c-.401.236-.859.36-1.325.358a2.493 2.493 0 0 1-1.8-.601 2.208 2.208 0 0 1-.612-1.65 1.919 1.919 0 0 1 .871-1.679 4.097 4.097 0 0 1 2.369-.604h1.494v-.741a1.363 1.363 0 0 0-.407-1.042 1.579 1.579 0 0 0-1.141-.386 1.655 1.655 0 0 0-1.08.336 1.011 1.011 0 0 0-.417.806h-1.307v-.04a1.811 1.811 0 0 1 .774-1.496c.6-.468 1.35-.708 2.113-.676a3.13 3.13 0 0 1 2.063.644c.536.47.823 1.16.777 1.868v3.604c0 .258.014.516.043.773.029.25.08.497.155.737l-1.418.007zm-2.275-1.005a2.45 2.45 0 0 0 1.342-.38c.35-.196.625-.502.782-.87v-1.212h-1.541a1.999 1.999 0 0 0-1.325.411c-.31.23-.495.59-.5.974-.016.295.098.582.313.787.261.21.593.315.929.29zm9.046-5.279l-.72-.043a1.587 1.587 0 0 0-.914.254c-.256.18-.455.429-.576.716v5.368h-1.372v-7.5h1.224l.137 1.074c.187-.359.458-.668.788-.902a1.844 1.844 0 0 1 1.08-.326c.098 0 .196.008.292.025.078.008.155.025.23.05l-.17 1.285zm3.25-3.01v1.79h1.44v1.013h-1.44v4.559c-.026.266.053.532.22.74a.795.795 0 0 0 .58.215c.088-.001.176-.01.262-.028a1.61 1.61 0 0 0 .256-.068l.18.93c-.134.1-.287.17-.45.208a2.244 2.244 0 0 1-.594.082 1.77 1.77 0 0 1-1.328-.504 2.167 2.167 0 0 1-.497-1.575v-4.545h-1.18v-1.013H56.4v-1.79l1.357-.014zm211.037 34.25h-4.644v3.6h5.353v1.073h-6.724V81.769h6.648v1.074h-5.277V86.1h4.644v1.084zm3.286-2.817l.098 1.116c.232-.38.556-.698.943-.923.392-.225.84-.339 1.292-.33a2.46 2.46 0 0 1 1.886.716 3.1 3.1 0 0 1 .67 2.194v4.724h-1.375v-4.71c.048-.5-.092-1-.393-1.402A1.586 1.586 0 0 0 274 85.34a1.945 1.945 0 0 0-1.047.283c-.304.19-.552.457-.72.773v5.46h-1.375v-7.49h1.223zm6.566 3.883a4.956 4.956 0 0 1 .774-2.91 2.524 2.524 0 0 1 2.16-1.11c.406-.008.808.074 1.177.24.343.168.642.413.871.716v-4.133H285V91.85h-1.12l-.162-.92c-.229.336-.54.61-.903.795-.389.187-.817.28-1.25.272a2.594 2.594 0 0 1-2.159-.995 4.116 4.116 0 0 1-.778-2.613l.018-.14zm1.368.146c-.03.64.133 1.272.468 1.818a1.63 1.63 0 0 0 1.44.68 1.85 1.85 0 0 0 1.033-.275 2.09 2.09 0 0 0 .68-.777V86.35a2.098 2.098 0 0 0-.683-.737 1.808 1.808 0 0 0-1.015-.272 1.571 1.571 0 0 0-1.458.805 4.174 4.174 0 0 0-.472 2.105l.007.146z" fill="#293052" fill-rule="nonzero"/><path d="M90.845 173.268l-.72 3.608H89l1.69-8.319h2.882a2.386 2.386 0 0 1 1.801.617c.412.486.548 1.144.36 1.75-.08.425-.27.824-.554 1.156a2.805 2.805 0 0 1-1.081.73c.35.13.63.397.771.738.14.388.162.807.065 1.206l-.159.784a2.572 2.572 0 0 0-.065.71.89.89 0 0 0 .184.49l-.032.141h-1.157a.779.779 0 0 1-.155-.567 4.86 4.86 0 0 1 .105-.78l.158-.763a1.4 1.4 0 0 0-.13-1.107.99.99 0 0 0-.878-.39l-1.96-.004zm.18-.887h1.64c.464.023.924-.11 1.303-.376.342-.274.57-.661.642-1.089.12-.373.068-.778-.14-1.11a1.35 1.35 0 0 0-1.082-.355h-1.75l-.613 2.93zm7.681 4.615a2.047 2.047 0 0 1-1.801-.865 2.941 2.941 0 0 1-.39-2.228l.04-.255c.113-.84.5-1.62 1.103-2.225a2.688 2.688 0 0 1 1.902-.848c.65-.06 1.283.23 1.654.76a2.8 2.8 0 0 1 .302 2.011l-.115.71h-3.776a2.427 2.427 0 0 0 .177 1.496c.202.375.611.595 1.04.561.328.002.653-.055.96-.17.283-.1.546-.25.777-.44l.321.734a2.923 2.923 0 0 1-.904.543 3.5 3.5 0 0 1-1.29.216zm.72-5.537a1.31 1.31 0 0 0-.943.482 2.8 2.8 0 0 0-.652 1.189v.035h2.583l.021-.149a1.721 1.721 0 0 0-.133-1.124.938.938 0 0 0-.872-.433h-.003zm6.42 3.774a.701.701 0 0 0-.154-.617 1.996 1.996 0 0 0-.919-.412 3.48 3.48 0 0 1-1.506-.67 1.153 1.153 0 0 1-.36-1.142c.084-.524.378-.992.818-1.299a2.706 2.706 0 0 1 1.679-.518 2.007 2.007 0 0 1 1.52.557c.35.356.494.862.382 1.345v.035h-1.08a.874.874 0 0 0-.205-.767.904.904 0 0 0-.747-.297 1.31 1.31 0 0 0-.847.266c-.201.16-.338.385-.385.635a.635.635 0 0 0 .137.586c.269.192.58.32.908.376a3.428 3.428 0 0 1 1.545.68 1.2 1.2 0 0 1 .36 1.154 1.969 1.969 0 0 1-.846 1.344 2.966 2.966 0 0 1-1.744.497 2.18 2.18 0 0 1-1.646-.607 1.492 1.492 0 0 1-.408-1.398v-.032h1.081a.917.917 0 0 0 .263.873c.24.188.54.286.847.277.316.01.627-.077.89-.249a.922.922 0 0 0 .418-.617zm4.652 1.763a2.047 2.047 0 0 1-1.801-.865 2.941 2.941 0 0 1-.39-2.228l.04-.255c.113-.84.5-1.62 1.103-2.225a2.688 2.688 0 0 1 1.902-.848c.65-.06 1.283.23 1.654.76a2.8 2.8 0 0 1 .302 2.011l-.115.71h-3.776a2.403 2.403 0 0 0 .177 1.496c.202.375.611.595 1.041.561.327.002.652-.055.958-.17.284-.1.547-.25.779-.44l.317.734a2.862 2.862 0 0 1-.901.543 3.52 3.52 0 0 1-1.29.216zm.72-5.537a1.31 1.31 0 0 0-.943.482 2.8 2.8 0 0 0-.652 1.189v.035h2.583l.021-.149a1.721 1.721 0 0 0-.133-1.124.938.938 0 0 0-.872-.433h-.003zm5.73-2.263l-.307 1.493h1.08l-.165.834h-1.08l-.772 3.756c-.065.309-.058.518.029.625a.49.49 0 0 0 .41.163c.11 0 .218-.01.325-.025.122-.018.223-.035.299-.053v.77c-.149.083-.31.14-.48.17a3.028 3.028 0 0 1-.612.067 1.113 1.113 0 0 1-.936-.422 1.571 1.571 0 0 1-.148-1.295l.753-3.756h-.919l.17-.834h.918l.306-1.493h1.128zm10.782.24h-2.522l-1.51 7.45h-1.12l1.51-7.45h-2.497l.18-.886h6.125l-.166.887zm.692 7.44h-1.12l1.253-6.187h1.12l-1.253 6.187zm1.578-7.773h-1.12l.234-1.146h1.117l-.23 1.146zm2.277 2.32a2.485 2.485 0 0 1 1.91-.848c.32-.01.633.088.89.277.256.213.427.51.479.837.23-.333.53-.613.882-.82a2.205 2.205 0 0 1 1.128-.294c.507-.023.985.23 1.243.66.292.607.347 1.297.155 1.94l-.75 3.7h-1.127l.756-3.71a2.115 2.115 0 0 0 0-1.33.845.845 0 0 0-.796-.355c-.344.011-.67.16-.9.412a2.476 2.476 0 0 0-.617 1.014v.029l-.796 3.93h-1.127l.756-3.71a2.066 2.066 0 0 0-.025-1.306.82.82 0 0 0-.79-.355 1.458 1.458 0 0 0-.788.217 1.994 1.994 0 0 0-.598.61l-.926 4.558h-1.12l1.25-6.186h1.001l-.09.73zm10.045 5.573a2.047 2.047 0 0 1-1.802-.865 2.941 2.941 0 0 1-.389-2.228l.04-.255c.113-.84.5-1.62 1.102-2.225a2.688 2.688 0 0 1 1.903-.848c.65-.06 1.283.23 1.653.76a2.8 2.8 0 0 1 .303 2.011l-.115.71h-3.776a2.403 2.403 0 0 0 .176 1.496c.203.375.612.595 1.042.561.327.002.652-.055.958-.17.284-.1.547-.25.778-.44l.32.734a2.923 2.923 0 0 1-.903.543 3.52 3.52 0 0 1-1.29.216zm.72-5.537a1.31 1.31 0 0 0-.944.482 2.8 2.8 0 0 0-.652 1.189v.035h2.584l.021-.149a1.721 1.721 0 0 0-.133-1.124.938.938 0 0 0-.872-.433h-.004zm123.105-31.65h-2.295l-1.383 6.818h-1.027l1.383-6.818h-2.287l.165-.809h5.6l-.156.809zm2.202 6.818v-.422c0-.11 0-.22.036-.337a3.305 3.305 0 0 1-.815.62c-.282.16-.6.245-.926.249a1.409 1.409 0 0 1-1.16-.461 1.422 1.422 0 0 1-.212-1.242 1.89 1.89 0 0 1 .864-1.295 3.33 3.33 0 0 1 1.78-.432h.987l.112-.564a.952.952 0 0 0-.119-.802.901.901 0 0 0-.746-.273 1.347 1.347 0 0 0-.807.255.997.997 0 0 0-.432.607h-.97v-.032c.096-.474.384-.89.797-1.15a2.765 2.765 0 0 1 1.65-.496c.503-.026.995.156 1.355.503.347.38.467.91.317 1.398l-.555 2.732a6.01 6.01 0 0 0-.094.592 2.795 2.795 0 0 0 0 .55h-1.062zm-1.362-.756c.31-.006.612-.09.879-.244a2.12 2.12 0 0 0 .692-.582l.212-1.043h-1.027a1.517 1.517 0 0 0-.947.32 1.21 1.21 0 0 0-.501.733.582.582 0 0 0 .083.617c.144.173.376.25.598.2h.01zm7.295-4.001l-.562-.032a1.14 1.14 0 0 0-.648.195 1.687 1.687 0 0 0-.512.557l-.821 4.037h-1.027l1.15-5.676h.925l-.065.76a2.25 2.25 0 0 1 .674-.64 1.549 1.549 0 0 1 1.038-.209c.062.01.124.024.184.043l-.336.965zm.307 1.923c.118-.802.446-1.56.95-2.2a2.136 2.136 0 0 1 1.676-.741 1.74 1.74 0 0 1 .843.205c.25.137.459.338.602.582l.223-.68h.876l-1.135 5.597a2.995 2.995 0 0 1-.962 1.774 2.84 2.84 0 0 1-1.87.596 3.19 3.19 0 0 1-.807-.117 2.544 2.544 0 0 1-.739-.302l.422-.802c.176.117.37.202.576.252.235.067.477.1.721.1.4.015.79-.128 1.08-.398.302-.298.5-.681.566-1.096l.08-.39a2.097 2.097 0 0 1-1.456.571 1.539 1.539 0 0 1-1.409-.82 2.799 2.799 0 0 1-.237-2.014v-.117zm1.005.11c-.132.478-.104.985.08 1.447a.986.986 0 0 0 .968.55 1.17 1.17 0 0 0 .685-.213 2.14 2.14 0 0 0 .562-.603l.537-2.643a1.248 1.248 0 0 0-.425-.546 1.17 1.17 0 0 0-.7-.203 1.28 1.28 0 0 0-1.08.575 3.79 3.79 0 0 0-.62 1.526l-.007.11zm6.773 2.834a1.884 1.884 0 0 1-1.64-.791 2.707 2.707 0 0 1-.36-2.043l.04-.231c.1-.77.455-1.487 1.01-2.04a2.46 2.46 0 0 1 1.74-.78 1.67 1.67 0 0 1 1.516.71 2.52 2.52 0 0 1 .277 1.837l-.104.649h-3.47a2.21 2.21 0 0 0 .163 1.373.994.994 0 0 0 .954.51 2.503 2.503 0 0 0 1.59-.556l.295.67a2.555 2.555 0 0 1-.833.5 3.168 3.168 0 0 1-1.178.192zm.667-5.07a1.195 1.195 0 0 0-.865.44c-.289.307-.495.68-.598 1.086v.032h2.385l.018-.135a1.54 1.54 0 0 0-.122-1.029.858.858 0 0 0-.818-.393zm5.245-2.075l-.284 1.366H289l-.155.763h-.998l-.695 3.444a.752.752 0 0 0 .025.575.454.454 0 0 0 .378.15 2.56 2.56 0 0 0 .296-.026c.115-.018.205-.028.274-.046v.71a1.478 1.478 0 0 1-.44.152 2.56 2.56 0 0 1-.562.06 1.037 1.037 0 0 1-.861-.386 1.438 1.438 0 0 1-.133-1.185l.698-3.445h-.843l.155-.762h.84l.284-1.366 1.016-.004z" fill="#6D6E70" fill-rule="nonzero"/><path d="M205.899 171.306h.05l2.122-10.24h2.908L207.521 176h-2.766l-2.737-9.859h-.06L199.235 176h-2.755L193 161.067h2.916l2.143 10.228h.061l2.787-10.24h2.183l2.809 10.25zm9.654-9.061h-2.98V160h2.98v2.245zm0 13.755h-2.98v-11.098h2.98V176zm5.174-11.098l.132 1.591a3.94 3.94 0 0 1 1.358-1.321 3.491 3.491 0 0 1 1.786-.474 3.307 3.307 0 0 1 2.612 1.056 4.899 4.899 0 0 1 .94 3.31V176h-2.99v-6.939a2.25 2.25 0 0 0-.451-1.587 1.78 1.78 0 0 0-1.354-.47 2.277 2.277 0 0 0-1.072.244 2.18 2.18 0 0 0-.786.682V176h-2.98v-11.098h2.805zM233 170.853h-2.98v-9.786H233v9.786zm0 5.147h-2.98v-2.625H233V176z" fill="#FFF" fill-rule="nonzero"/></g></svg>