<svg width="299" height="197" xmlns="http://www.w3.org/2000/svg"><g fill-rule="nonzero" fill="none"><path fill="#F1F1F2" d="M0 0h299v197H0z"/><path d="M1.987 1.98v193.04h295.026V1.98H1.987zM299 0v197H0V0h299z" fill="#C2C2C2"/><path d="M4.58 54.993v-1.212h290.408v1.212H4.58zm0 20.08V73.86h290.408v1.212H4.58zm0 60.274v-1.212h290.408v1.212H4.58z" fill="#DEDEDD"/><path d="M4.58 155.425v-1.212h3.598v1.212H4.58zm7.196 0v-1.212h3.598v1.212h-3.598zm7.196 0v-1.212h3.598v1.212h-3.598zm7.197 0v-1.212h3.598v1.212h-3.598zm7.196 0v-1.212h3.598v1.212h-3.598zm7.196 0v-1.212h3.598v1.212h-3.598zm7.197 0v-1.212h3.598v1.212h-3.598zm7.196 0v-1.212h3.598v1.212h-3.598zm7.196 0v-1.212h3.598v1.212H62.15zm7.196 0v-1.212h3.599v1.212h-3.599zm7.197 0v-1.212h3.598v1.212h-3.598zm7.196 0v-1.212h3.598v1.212H83.74zm7.196 0v-1.212h3.599v1.212h-3.599zm7.197 0v-1.212h3.598v1.212h-3.598zm7.196 0v-1.212h3.598v1.212h-3.598zm7.196 0v-1.212h3.599v1.212h-3.599zm7.197 0v-1.212h3.598v1.212h-3.598zm7.196 0v-1.212h3.598v1.212h-3.598zm7.196 0v-1.212h3.599v1.212h-3.599zm7.197 0v-1.212h3.598v1.212h-3.598zm7.196 0v-1.212h3.598v1.212h-3.598zm7.196 0v-1.212h3.598v1.212h-3.598zm7.197 0v-1.212h3.598v1.212h-3.598zm7.196 0v-1.212h3.598v1.212h-3.598zm7.196 0v-1.212h3.598v1.212h-3.598zm7.197 0v-1.212h3.598v1.212h-3.598zm7.196 0v-1.212h3.598v1.212h-3.598zm7.196 0v-1.212h3.598v1.212h-3.598zm7.197 0v-1.212h3.598v1.212h-3.598zm7.196 0v-1.212h3.598v1.212h-3.598zm7.196 0v-1.212h3.598v1.212h-3.598zm7.196 0v-1.212h3.599v1.212h-3.599zm7.197 0v-1.212h3.598v1.212h-3.598zm7.196 0v-1.212h3.598v1.212h-3.598zm7.196 0v-1.212h3.599v1.212h-3.599zm7.197 0v-1.212h3.598v1.212h-3.598zm7.196 0v-1.212h3.598v1.212h-3.598zm7.196 0v-1.212h3.599v1.212h-3.599zm7.197 0v-1.212h3.598v1.212h-3.598zm7.196 0v-1.212h3.598v1.212h-3.598zm7.196 0v-1.212h2.556v1.212h-2.556z" fill="#293052"/><path d="M4.58 175.504v-1.212h290.408v1.212H4.58zM39.059 34.308h1.212V192.59h-1.212V34.308zm36.75 0h1.212V192.59H75.81V34.308zm36.75 0h1.213V192.59h-1.212V34.308zm36.713 0h1.212V192.59h-1.212V34.308zm36.751 0h1.212V192.59h-1.212V34.308zm36.75 0h1.213V192.59h-1.213V34.308zm36.751 0h1.212V192.59h-1.212V34.308zM4.58 115.268v-1.212h290.408v1.212H4.58zm0-20.08v-1.211h290.408v1.212H4.58z" fill="#DEDEDD"/><path fill="#C2C2C2" d="M2 30v-2h296v2z"/><path fill="#293052" d="M247.564 126.292v-1.212h22.899v1.212zM149.164 115.366l41.391-30.602a1.8 1.8 0 0 1 2.7.685l32.057 68.609a1.8 1.8 0 1 1-3.26 1.523l-31.126-66.616-40.66 30.06a1.8 1.8 0 0 1-2.095.032l-41.895-29.075-28.651 26.012a1.8 1.8 0 0 1-2.363.049l-36.75-30.687a1.8 1.8 0 1 1 2.306-2.762l35.548 29.683 28.55-25.921a1.8 1.8 0 0 1 2.236-.146l42.012 29.156z"/><path d="M255.777 116.442l.682-6.592h5.98v1.44h-4.58l-.378 3.372c.256-.188.536-.341.832-.455.34-.124.699-.188 1.06-.19a3.216 3.216 0 0 1 2.612 1.1 4.322 4.322 0 0 1 .946 2.954 4.208 4.208 0 0 1-.984 2.88 3.556 3.556 0 0 1-2.801 1.098 3.782 3.782 0 0 1-2.536-.833 2.88 2.88 0 0 1-.984-2.425h1.476c-.036.563.17 1.115.568 1.516.4.37.932.561 1.476.53a1.892 1.892 0 0 0 1.59-.72 3.147 3.147 0 0 0 .416-2.121 2.957 2.957 0 0 0-.568-1.895 1.892 1.892 0 0 0-1.59-.757 2.534 2.534 0 0 0-1.4.303c-.305.21-.532.517-.643.871l-1.174-.076zm6.018 20.572h1.628v1.288h-1.628v2.765h-1.627v-2.803h-5.375v-.91l5.261-8.296h1.703v7.956h.038zm-5.26 0h3.784v-5.645.417l-3.785 5.228zm6.547 44.06h-7.759v-1.137l3.785-4.357a10.796 10.796 0 0 0 1.438-1.856 2.92 2.92 0 0 0 .379-1.402 2.237 2.237 0 0 0-.53-1.515 1.74 1.74 0 0 0-1.4-.606 2.383 2.383 0 0 0-1.817.644 2.54 2.54 0 0 0-.606 1.78h-1.438a3.373 3.373 0 0 1 1.022-2.614 4.01 4.01 0 0 1 2.952-1.06 3.48 3.48 0 0 1 2.574.947c.632.63.975 1.494.946 2.386a3.791 3.791 0 0 1-.568 1.97 12.463 12.463 0 0 1-1.627 2.122l-3.142 3.41h5.753v1.287h.038zm0-110.586a16.785 16.785 0 0 0-2.914 4.584 20.55 20.55 0 0 0-1.098 4.85v1.288h-1.703v-1.288c.2-1.78.673-3.517 1.4-5.153a19.4 19.4 0 0 1 2.726-4.357h-6.51V69.2h8.1v1.288zm-.454-17.616a2.654 2.654 0 0 1-.53 1.629 3.104 3.104 0 0 1-1.438 1.06 3.785 3.785 0 0 1 1.665 1.137c.404.505.618 1.135.606 1.78a3.07 3.07 0 0 1-1.098 2.54 4.992 4.992 0 0 1-5.64 0 3.108 3.108 0 0 1-1.059-2.54 2.805 2.805 0 0 1 .606-1.78 3.52 3.52 0 0 1 1.627-1.136 3.028 3.028 0 0 1-1.4-1.061 2.73 2.73 0 0 1-.492-1.63 3.07 3.07 0 0 1 .984-2.424c.72-.599 1.637-.91 2.573-.871a3.782 3.782 0 0 1 2.574.871 3.032 3.032 0 0 1 1.022 2.425zm-1.287 5.569a2.16 2.16 0 0 0-.643-1.63 2.27 2.27 0 0 0-1.628-.643 2.156 2.156 0 0 0-2.27 2.235c-.025.598.21 1.178.643 1.591a2.647 2.647 0 0 0 3.293 0c.413-.408.633-.973.605-1.553zm-.19-5.531a2.047 2.047 0 0 0-.567-1.478 2.005 2.005 0 0 0-2.8 0 2.085 2.085 0 0 0-.53 1.478c-.031.544.16 1.077.53 1.477.786.741 2.013.741 2.8 0 .384-.394.589-.928.568-1.477z" fill="#808184"/><path d="M188.65 147.07h-35.047l-5.526-8.07-5.299 8.07h-35.047a4.733 4.733 0 0 0-4.731 4.735v24.511a4.733 4.733 0 0 0 4.731 4.736h80.92a4.729 4.729 0 0 0 3.418-1.346 4.738 4.738 0 0 0 1.426-3.39v-24.473a4.738 4.738 0 0 0-1.412-3.414 4.729 4.729 0 0 0-3.433-1.36z" fill="#E88024"/><ellipse cx="8.43" cy="8.858" rx="8.137" ry="8.373" opacity=".6" transform="translate(214.95 145.962)" fill="#FFF"/><path d="M223.38 164.404c-5.172 0-9.35-4.299-9.35-9.585 0-5.285 4.178-9.584 9.35-9.584 5.17 0 9.349 4.299 9.349 9.584 0 5.286-4.178 9.585-9.35 9.585zm0-2.424c3.816 0 6.925-3.198 6.925-7.16 0-3.963-3.109-7.161-6.926-7.161-3.816 0-6.925 3.198-6.925 7.16 0 3.963 3.109 7.16 6.925 7.16z" fill="#E88024"/><path d="M259.903 88.9a5.294 5.294 0 0 1 1.211 0c.341.07.672.185.984.341l-.34 1.25-.833-.34a3.781 3.781 0 0 0-1.022 0 2.46 2.46 0 0 0-2.082 1.022c-.559.782-.839 1.73-.795 2.69a3.784 3.784 0 0 1 1.212-.72c.47-.18.971-.27 1.476-.265a3.216 3.216 0 0 1 2.573 1.099 4.17 4.17 0 0 1 .947 2.803 4.473 4.473 0 0 1-1.022 3.031 3.405 3.405 0 0 1-2.725 1.174 3.783 3.783 0 0 1-2.915-1.288 5.194 5.194 0 0 1-1.135-3.599v-2.273a5.383 5.383 0 0 1 1.287-3.788 4.085 4.085 0 0 1 3.179-1.137zm-.568 5.418a2.76 2.76 0 0 0-1.4.34c-.384.21-.7.526-.909.91v.985c-.05.903.204 1.796.72 2.538.396.57 1.047.91 1.74.91a1.74 1.74 0 0 0 1.666-.91 3.791 3.791 0 0 0 .568-2.084 3.07 3.07 0 0 0-.568-1.97 1.967 1.967 0 0 0-1.817-.757v.038z" fill="#808184"/><path fill="#E88024" d="M246.278 145.424h28.575v18.79h-28.575z"/><path fill="#E88024" d="M249.76 154.82l-3.331 3.333-5.185-3.334 5.185-3.333z"/><path d="M257.594 153.683h1.363c.462.033.916-.132 1.249-.455.293-.348.442-.795.416-1.25a1.63 1.63 0 0 0-.416-1.174 1.588 1.588 0 0 0-1.211-.266 1.664 1.664 0 0 0-1.136.38c-.3.253-.466.63-.454 1.022h-2.347a2.729 2.729 0 0 1 1.06-2.31 4.274 4.274 0 0 1 2.8-.91 4.614 4.614 0 0 1 2.953.871 3.07 3.07 0 0 1 1.098 2.539 2.54 2.54 0 0 1-.492 1.477c-.349.481-.82.86-1.363 1.099a3.028 3.028 0 0 1 1.514 1.098c.353.498.538 1.095.53 1.705a3.108 3.108 0 0 1-1.211 2.576 4.804 4.804 0 0 1-3.066.947 4.69 4.69 0 0 1-2.876-.87 2.805 2.805 0 0 1-1.136-2.501h2.498c-.01.432.17.848.492 1.136.344.304.79.467 1.25.455.484.032.96-.132 1.324-.455.332-.329.51-.783.492-1.25a1.82 1.82 0 0 0-.454-1.402 1.967 1.967 0 0 0-1.4-.454h-1.477v-2.008z" fill="#FFF"/><path d="M24.023 9.336v7.024c0 1.167-.365 2.09-1.095 2.768-.73.68-1.727 1.018-2.991 1.018-1.246 0-2.234-.33-2.967-.988-.732-.66-1.106-1.565-1.12-2.718V9.336h2.197v7.039c0 .698.167 1.207.502 1.527.334.32.797.48 1.388.48 1.235 0 1.862-.65 1.882-1.949V9.336h2.204zm3.611 2.74l.066.915c.567-.708 1.326-1.062 2.278-1.062.84 0 1.465.246 1.875.74.41.493.62 1.23.63 2.211V20h-2.117v-5.068c0-.45-.097-.776-.293-.978-.195-.203-.52-.304-.974-.304-.596 0-1.042.254-1.34.762V20h-2.117v-7.925h1.992zm6.123 3.903c0-1.235.277-2.22.832-2.952.554-.732 1.312-1.098 2.274-1.098.771 0 1.408.288 1.911.864V8.75h2.124V20h-1.911l-.103-.842c-.527.659-1.206.988-2.036.988-.932 0-1.68-.367-2.245-1.102-.564-.735-.846-1.756-.846-3.065zm2.117.154c0 .742.13 1.31.388 1.706.259.396.635.594 1.128.594.654 0 1.116-.276 1.384-.828v-3.127c-.263-.552-.72-.828-1.37-.828-1.02 0-1.53.828-1.53 2.483zm10.313 4.013c-1.163 0-2.109-.356-2.839-1.069s-1.095-1.662-1.095-2.849v-.205c0-.796.154-1.508.462-2.135a3.386 3.386 0 0 1 1.307-1.45c.564-.34 1.207-.51 1.93-.51 1.084 0 1.937.343 2.56 1.026.623.684.934 1.653.934 2.908v.864h-5.047c.069.518.275.933.62 1.245.344.313.78.469 1.307.469.815 0 1.452-.295 1.911-.886l1.04 1.164c-.317.45-.747.8-1.289 1.051a4.23 4.23 0 0 1-1.801.377zm-.242-6.503c-.42 0-.76.141-1.022.424-.261.284-.428.689-.502 1.216h2.945v-.168c-.01-.469-.137-.832-.381-1.088-.244-.256-.591-.384-1.04-.384zm9.155.417a5.75 5.75 0 0 0-.762-.059c-.8 0-1.325.271-1.574.813V20h-2.117v-7.925h2l.058.945c.425-.728 1.013-1.091 1.765-1.091.235 0 .454.031.66.095l-.03 2.036z" fill="#000"/><path d="M217.298 19.003h4.38V20h-5.605v-9.242h1.225v8.245zm9.826.997c-.068-.135-.123-.377-.165-.724-.546.567-1.198.851-1.955.851-.677 0-1.233-.192-1.666-.575a1.859 1.859 0 0 1-.651-1.456c0-.715.272-1.27.816-1.667.543-.395 1.308-.593 2.294-.593h1.143v-.54c0-.41-.123-.737-.368-.98-.246-.244-.607-.365-1.086-.365-.419 0-.77.105-1.053.317-.284.212-.426.468-.426.768h-1.18c0-.343.121-.674.365-.993.243-.32.573-.573.99-.759.417-.186.875-.28 1.374-.28.791 0 1.411.199 1.86.594.449.396.681.94.698 1.635v3.161c0 .63.08 1.132.241 1.504V20h-1.231zm-1.949-.895c.368 0 .718-.095 1.048-.286.33-.19.569-.438.717-.742v-1.41h-.92c-1.44 0-2.159.422-2.159 1.264 0 .368.123.656.368.863.246.207.561.311.946.311zm8.78-.927c0-.317-.12-.564-.36-.74-.239-.175-.655-.326-1.25-.453s-1.066-.28-1.416-.457c-.349-.178-.607-.39-.774-.635a1.518 1.518 0 0 1-.25-.876c0-.563.237-1.039.713-1.428.476-.39 1.085-.584 1.825-.584.779 0 1.41.2 1.895.603.485.402.727.916.727 1.542h-1.18c0-.321-.137-.598-.41-.831-.273-.233-.617-.35-1.032-.35-.427 0-.761.094-1.003.28a.88.88 0 0 0-.361.73c0 .284.112.497.336.641.224.144.63.282 1.216.413.586.13 1.06.287 1.425.47.364.181.633.4.809.656.176.256.263.569.263.937 0 .613-.245 1.105-.736 1.476-.49.37-1.128.555-1.91.555-.55 0-1.037-.097-1.46-.292a2.374 2.374 0 0 1-.994-.816 1.966 1.966 0 0 1-.359-1.133h1.175c.02.394.179.706.473.937.294.23.682.345 1.164.345.445 0 .801-.09 1.07-.27.269-.18.403-.42.403-.72zm4.296-6.71v1.664h1.283v.908h-1.283v4.259c0 .275.058.481.172.619.114.137.309.206.584.206.135 0 .321-.025.558-.076V20c-.308.085-.609.127-.9.127-.526 0-.921-.159-1.188-.476-.267-.318-.4-.768-.4-1.352v-4.26h-1.25v-.907h1.25v-1.663h1.174zM244.307 20v-9.242h2.609c.804 0 1.515.178 2.133.533a3.606 3.606 0 0 1 1.431 1.517c.337.656.507 1.41.511 2.26v.59c0 .872-.168 1.636-.504 2.292a3.55 3.55 0 0 1-1.441 1.51c-.625.352-1.351.532-2.18.54h-2.559zm1.219-8.24v7.243h1.282c.94 0 1.67-.292 2.193-.876.523-.584.784-1.415.784-2.494v-.54c0-1.05-.246-1.865-.74-2.447-.492-.582-1.192-.877-2.097-.885h-1.422zm8.398 8.24h-1.174v-6.868h1.174V20zm-1.27-8.69c0-.19.058-.351.175-.482.116-.132.289-.197.517-.197.229 0 .402.065.52.197a.694.694 0 0 1 .178.482c0 .19-.059.35-.177.476-.119.127-.292.19-.52.19-.23 0-.402-.063-.518-.19a.678.678 0 0 1-.175-.476zm2.87 5.199c0-1.07.247-1.922.742-2.555.495-.633 1.151-.95 1.968-.95.838 0 1.492.297 1.961.89l.057-.762h1.073v6.703c0 .889-.263 1.589-.79 2.101s-1.235.768-2.123.768c-.495 0-.98-.106-1.454-.317-.474-.212-.836-.502-1.085-.87l.609-.704c.504.622 1.12.933 1.847.933.571 0 1.017-.161 1.336-.483.32-.321.48-.774.48-1.358v-.59c-.47.541-1.111.812-1.924.812-.804 0-1.454-.324-1.952-.971-.497-.648-.746-1.53-.746-2.647zm1.18.133c0 .775.159 1.383.476 1.825.318.442.762.663 1.333.663.74 0 1.285-.336 1.632-1.009v-3.136c-.36-.656-.9-.984-1.62-.984-.57 0-1.017.223-1.338.667-.322.444-.483 1.102-.483 1.974zM264.372 20h-1.174v-6.868h1.174V20zm-1.27-8.69c0-.19.059-.351.175-.482.116-.132.289-.197.517-.197.229 0 .402.065.52.197a.694.694 0 0 1 .179.482c0 .19-.06.35-.178.476-.119.127-.292.19-.52.19-.23 0-.402-.063-.518-.19a.678.678 0 0 1-.174-.476zm4.742.159v1.663h1.282v.908h-1.282v4.259c0 .275.057.481.172.619.114.137.309.206.584.206.135 0 .321-.025.558-.076V20c-.309.085-.61.127-.901.127-.525 0-.92-.159-1.187-.476-.267-.318-.4-.768-.4-1.352v-4.26h-1.25v-.907h1.25v-1.663h1.174zm2.615 7.915c0-.203.06-.372.181-.508.121-.135.302-.203.543-.203.241 0 .424.068.55.203a.72.72 0 0 1 .186.508.681.681 0 0 1-.187.489c-.125.131-.308.197-.549.197-.241 0-.422-.066-.543-.197a.695.695 0 0 1-.18-.489zm.007-5.605c0-.203.06-.372.18-.508.121-.135.302-.203.543-.203.242 0 .425.068.55.203a.72.72 0 0 1 .187.508.681.681 0 0 1-.187.49c-.125.13-.308.196-.55.196-.24 0-.422-.066-.542-.197a.695.695 0 0 1-.181-.489zm6.817 1.587l.47-4.608h4.735v1.085h-3.738l-.28 2.52c.453-.266.967-.4 1.543-.4.842 0 1.51.279 2.006.835.495.557.742 1.309.742 2.257 0 .952-.257 1.702-.771 2.25s-1.233.822-2.155.822c-.817 0-1.483-.226-2-.68-.516-.452-.81-1.078-.882-1.878h1.111c.072.529.26.928.565 1.196.305.27.707.403 1.206.403.546 0 .974-.186 1.285-.558.311-.373.467-.887.467-1.543 0-.617-.168-1.114-.505-1.488-.336-.375-.784-.562-1.342-.562-.512 0-.914.112-1.206.337l-.311.253-.94-.24z" fill="#2A3052"/><path d="M141.492 166.514l1.627-8.6h2.482L142.92 170h-2.507l-1.967-8.085-1.967 8.085h-2.507l-2.681-12.086h2.481l1.636 8.583 1.992-8.583h2.108l1.984 8.6zM149.32 170h-2.407v-8.981h2.407V170zm-2.549-11.306c0-.36.12-.655.362-.888.24-.232.568-.348.983-.348.41 0 .736.116.98.348.243.233.365.529.365.888 0 .366-.123.664-.37.897-.246.232-.57.348-.975.348-.404 0-.729-.116-.975-.348-.246-.233-.37-.531-.37-.897zm6.732 2.325l.075 1.037c.642-.802 1.503-1.203 2.582-1.203.951 0 1.66.279 2.125.838.465.559.702 1.394.714 2.507V170h-2.4v-5.744c0-.51-.11-.879-.331-1.108-.222-.23-.59-.345-1.104-.345-.676 0-1.182.288-1.52.864V170h-2.398v-8.981h2.257zm9.754 5.27h-1.992l-.283-8.375h2.557l-.282 8.376zm-.996 1.312c.404 0 .729.12.975.357.246.238.37.542.37.913 0 .365-.124.667-.37.905s-.571.357-.975.357c-.399 0-.721-.12-.967-.357a1.204 1.204 0 0 1-.37-.905c0-.365.123-.668.37-.909.246-.24.568-.36.967-.36z" fill="#FFF"/></g></svg>