<svg xmlns="http://www.w3.org/2000/svg" width="128" height="128" viewBox="0 0 128 128">
    <g fill="none" fill-rule="evenodd">
        <path fill="#FFF" d="M0 0h128v128H0z"/>
        <path fill="#C6E4E4" fill-rule="nonzero" d="M92.897 122H18V0h74.897C97.372 0 101 3.65 101 8.152v105.685c-.006 4.502-3.628 8.152-8.103 8.163z"/>
        <path fill="#FFF" fill-rule="nonzero" d="M59.5 20C48.178 20 39 29.178 39 40.5S48.178 61 59.5 61 80 51.822 80 40.5A20.5 20.5 0 0 0 59.5 20zM40.816 41.05h8.128c.01 3.305.478 6.592 1.39 9.767H43.9a18.684 18.684 0 0 1-3.114-9.767h.031zm19.556-13.265v-5.937c2.17.467 4.152 2.678 5.563 5.937h-5.563zm6.228 1.744a33.475 33.475 0 0 1 1.733 9.746h-7.961V29.53H66.6zm-8.003-7.681v5.937h-5.532c1.432-3.26 3.394-5.47 5.563-5.937h-.031zm0 7.68v9.747h-7.93c.077-3.322.65-6.615 1.702-9.767l6.228.02zm-9.684 9.747h-8.097a18.684 18.684 0 0 1 3.478-9.746h6.228a34.897 34.897 0 0 0-1.61 9.746zm1.733 1.754h7.982v9.768h-6.477a34.471 34.471 0 0 1-1.505-9.747v-.02zm7.982 11.532v6.591c-2.315-.508-4.39-2.979-5.844-6.59h5.844zm1.744 6.591v-6.59h5.844c-1.453 3.611-3.53 6.082-5.844 6.59zm0-8.303V41.05h7.982a34.253 34.253 0 0 1-1.505 9.767l-6.477.032zm9.726-9.768h8.127a18.6 18.6 0 0 1-3.114 9.768h-6.435a36.018 36.018 0 0 0 1.422-9.799v.031zm0-1.754a35.841 35.841 0 0 0-1.578-9.767h6.166a18.684 18.684 0 0 1 3.508 9.715l-8.096.052zm3.114-11.511h-5.336a16.909 16.909 0 0 0-3.248-5.304 18.684 18.684 0 0 1 8.604 5.273l-.02.03zm-18.84-5.335a16.909 16.909 0 0 0-3.248 5.304h-5.356a18.684 18.684 0 0 1 8.604-5.304zm-9.206 30.101h5.708a17.365 17.365 0 0 0 3.498 5.958 18.746 18.746 0 0 1-9.206-5.979v.021zm19.462 5.958a17.459 17.459 0 0 0 3.54-5.979h5.708a18.756 18.756 0 0 1-9.248 5.958v.021z"/>
        <rect width="64" height="11" x="28" y="78" fill="#FFF" fill-rule="nonzero" rx="4.17"/>
        <rect width="105" height="64" x="5" y="50" fill="#FFF" fill-rule="nonzero" rx="5.5"/>
        <path fill="#F2F2F2" fill-rule="nonzero" d="M103.761 50.04c2.871 0 5.2 2.327 5.2 5.198v52.524a5.199 5.199 0 0 1-5.2 5.198H10.239a5.199 5.199 0 0 1-5.2-5.198V55.238a5.199 5.199 0 0 1 5.2-5.198h93.522zm0-1.04H10.239A6.238 6.238 0 0 0 4 55.238v52.524A6.238 6.238 0 0 0 10.239 114h93.522a6.238 6.238 0 0 0 6.239-6.238V55.238A6.238 6.238 0 0 0 103.761 49z"/>
        <rect width="34" height="43" x="13" y="61" fill="#F2F2F2" fill-rule="nonzero" rx="3"/>
        <rect width="35" height="5" x="57" y="70" fill="#E3E4E3" fill-rule="nonzero" rx="1.55"/>
        <rect width="35" height="5" x="57" y="82" fill="#E3E4E3" fill-rule="nonzero" rx="1.35"/>
        <rect width="35" height="5" x="57" y="89" fill="#E3E4E3" fill-rule="nonzero" rx="1.35"/>
        <circle cx="31" cy="75" r="7" fill="#84ABAE" fill-rule="nonzero"/>
        <path fill="#84ABAE" fill-rule="nonzero" d="M24.321 82s1.56 2.027 5.742 2.027c4.183 0 5.552-2.027 5.552-2.027S42 84.447 42 91.137c0 0-3.308 4.863-11.737 4.863C21.835 96 18 91.137 18 91.137s.2-7.205 6.321-9.137z"/>
        <g transform="translate(79 83)">
            <circle cx="22.552" cy="22.552" r="22.448" fill="#FF6444"/>
            <path stroke="#FFF" stroke-linecap="round" stroke-linejoin="round" stroke-width="2" d="M22.552 6.928l-.01 15.624H37.14"/>
        </g>
    </g>
</svg>
