<svg xmlns="http://www.w3.org/2000/svg" width="90" height="90" viewBox="0 0 90 90">
    <g fill="none" fill-rule="evenodd" transform="translate(-3 -3)">
        <circle cx="48" cy="48" r="44.25" fill="#E1F4F3" fill-rule="nonzero"/>
        <path fill="#FFFDFF" fill-rule="nonzero" d="M27.645 78.945V21.533H65.73a2.625 2.625 0 0 1 2.625 2.624V76.32a2.625 2.625 0 0 1-2.625 2.625H27.645z"/>
        <path fill="#F2F2F2" fill-rule="nonzero" d="M65.73 21.907a2.25 2.25 0 0 1 2.25 2.25V76.32a2.25 2.25 0 0 1-2.25 2.25H28.02V21.908h37.71zm0-.75H27.27V79.32h38.46a3 3 0 0 0 3-3V24.158a3 3 0 0 0-3-3z"/>
        <path fill="#E3E4E3" fill-rule="nonzero" d="M27.27 21.157l27.908-8.677a3 3 0 0 1 3.892 2.865v5.812h-31.8z"/>
        <rect width="27.442" height="5.393" x="34.275" y="65.662" fill="#E1F4F3" fill-rule="nonzero" rx="2.696"/>
        <path d="M0 0h96v96H0z"/>
        <circle cx="48" cy="40.545" r="12.922" stroke="#84ABAE" stroke-width="1.5"/>
        <ellipse cx="48" cy="40.545" stroke="#84ABAE" stroke-width="1.5" rx="6.15" ry="12.922"/>
        <path stroke="#84ABAE" stroke-width="1.5" d="M35.078 40.545h25.844M37.275 33.345h21.45M37.275 47.182h21.48M48 27.622V53.46"/>
    </g>
</svg>
