<svg xmlns="http://www.w3.org/2000/svg" width="178" height="128" fill="none"><g clip-path="url(#a)"><path fill="#0364B9" d="M0 24C0 10.745 10.745 0 24 0h80c13.255 0 24 10.745 24 24v80c0 13.255-10.745 24-24 24H24c-13.255 0-24-10.745-24-24V24Z"/><path fill="#0A559E" d="M24 0C10.745 0 0 10.745 0 24v.697L119.658 5.811A23.907 23.907 0 0 0 104 0H24ZM122.128 8.271 100.177 128H104c13.255 0 24-10.745 24-24V24a23.907 23.907 0 0 0-5.872-15.729Z"/><path fill="#fff" d="M29.368 47.008a74.58 74.58 0 0 1 1.968 3.936 110.985 110.985 0 0 1 2.352 5.04 178.29 178.29 0 0 1 2.448 5.52l2.256 5.328 2.256-5.328c.8-1.888 1.6-3.728 2.4-5.52a295.836 295.836 0 0 1 2.352-5.04c.768-1.568 1.44-2.88 2.016-3.936h6.816c.32 2.208.608 4.688.864 7.44.288 2.72.528 5.568.72 8.544.224 2.944.416 5.904.576 8.88.192 2.976.352 5.776.48 8.4h-7.296a863.617 863.617 0 0 0-.384-10.56c-.16-3.808-.4-7.648-.72-11.52-.576 1.344-1.216 2.832-1.92 4.464l-2.112 4.896c-.672 1.632-1.328 3.2-1.968 4.704a473.837 473.837 0 0 0-1.632 3.792h-5.232c-.448-1.056-.992-2.32-1.632-3.792a1038.46 1038.46 0 0 0-2.016-4.704 319.14 319.14 0 0 0-2.064-4.896c-.704-1.632-1.344-3.12-1.92-4.464-.32 3.872-.56 7.712-.72 11.52-.16 3.808-.288 7.328-.384 10.56h-7.296c.128-2.624.272-5.424.432-8.4.192-2.976.384-5.936.576-8.88.224-2.976.464-5.824.72-8.544.288-2.752.592-5.232.912-7.44h7.152ZM85.417 47.008v6.384H75.385v26.88h-7.488v-26.88H57.865v-6.384h27.552ZM101.27 70.48c0-.928-.208-1.744-.624-2.448-.416-.736-1.136-1.344-2.16-1.824-1.024-.48-2.4-.848-4.128-1.104-1.728-.256-3.904-.384-6.528-.384.352-2.976.64-6 .864-9.072.224-3.072.4-5.952.528-8.64h18v6h-12a103.676 103.676 0 0 1-.24 3.36 48.105 48.105 0 0 1-.24 2.784c4.672.32 8.112 1.424 10.32 3.312 2.24 1.856 3.36 4.448 3.36 7.776 0 1.536-.272 2.96-.816 4.272a9.19 9.19 0 0 1-2.448 3.408c-1.088.96-2.464 1.712-4.128 2.256-1.632.544-3.552.816-5.76.816-.864 0-1.776-.064-2.736-.192a25.64 25.64 0 0 1-2.736-.432 29.177 29.177 0 0 1-2.352-.528c-.704-.192-1.248-.384-1.632-.576l1.296-5.904c.8.352 1.856.704 3.168 1.056 1.312.32 2.88.48 4.704.48 2.208 0 3.808-.432 4.8-1.296.992-.896 1.488-1.936 1.488-3.12Z"/></g><rect width="100" height="36" x="78" y="87" fill="#4BB4B3" rx="4"/><path fill="#fff" d="m86.78 113-4.5-13.96h3.08l2.08 6.7 1.1 4.38h.06l1.06-4.38 2.08-6.7h2.98L90.18 113h-3.4Zm17.294 0-1-3.32h-4.66l-1 3.32h-3.08l4.6-13.96h3.76l4.54 13.96h-3.16Zm-3.3-11.2h-.1l-1.54 5.3h3.2l-1.56-5.3Zm12.651 4.6-1.34-2.8h-.06v9.4h-2.86V99.04h3.32l3.82 6.6 1.34 2.8h.06v-9.4h2.86V113h-3.32l-3.82-6.6Zm13.093-7.36v8.56c0 .987.193 1.727.58 2.22.386.48 1.033.72 1.94.72.906 0 1.553-.24 1.94-.72.386-.493.58-1.233.58-2.22v-8.56h2.96v8.24c0 1.027-.1 1.92-.3 2.68-.187.747-.5 1.367-.94 1.86-.44.48-1.007.84-1.7 1.08-.694.227-1.54.34-2.54.34s-1.847-.113-2.54-.34c-.694-.24-1.26-.6-1.7-1.08-.44-.493-.76-1.113-.96-1.86-.187-.76-.28-1.653-.28-2.68v-8.24h2.96ZM145.617 113l-1-3.32h-4.66l-1 3.32h-3.08l4.6-13.96h3.76l4.54 13.96h-3.16Zm-3.3-11.2h-.1l-1.54 5.3h3.2l-1.56-5.3Zm12.902-.06V113h-3.04v-11.26h-3.78v-2.7h10.6v2.7h-3.78Zm8.74-2.7v8.56c0 .987.193 1.727.58 2.22.387.48 1.033.72 1.94.72s1.553-.24 1.94-.72c.387-.493.58-1.233.58-2.22v-8.56h2.96v8.24c0 1.027-.1 1.92-.3 2.68-.187.747-.5 1.367-.94 1.86-.44.48-1.007.84-1.7 1.08-.693.227-1.54.34-2.54.34s-1.847-.113-2.54-.34c-.693-.24-1.26-.6-1.7-1.08-.44-.493-.76-1.113-.96-1.86-.187-.76-.28-1.653-.28-2.68v-8.24h2.96Z"/><defs><clipPath id="a"><path fill="#fff" d="M0 0h128v128H0z"/></clipPath></defs></svg>