<svg  viewBox="0 0 32 32"  fill="none" xmlns="http://www.w3.org/2000/svg"><path opacity=".01" fill="#fff" stroke="#979797" d="M0 0h32v32H0z"/><path fill-rule="evenodd" clip-rule="evenodd" d="M4 29.307a1.35 1.35 0 112.7 0 1.35 1.35 0 01-2.7 0zm4.923-16.35h-7.18c-.962 0-1.743.838-1.743 1.871v15.259c0 1.032.78 1.87 1.743 1.87h7.514c.962 0 1.743-.838 1.743-1.87V14.828c0-1.033-.78-1.871-1.743-1.871" fill="#85ACAF"/><mask id="prefix__a" maskUnits="userSpaceOnUse" x="2" y="0" width="30" height="22"><path fill-rule="evenodd" clip-rule="evenodd" d="M2.075 0H32v21.359H2.075V0z" fill="#fff"/></mask><g mask="url(#prefix__a)"><path fill-rule="evenodd" clip-rule="evenodd" d="M29.942 18.98V2.725C29.942 1.219 28.783 0 27.353 0H4.663c-1.43 0-2.588 1.22-2.588 2.725v9.198h2.044V3.441c0-.752.61-1.362 1.362-1.362h21.056c.752 0 1.362.61 1.362 1.362v14.845h-9.872v.833h-4.054v-.833H12v3.073H30.638c.752 0 1.362-.61 1.362-1.363V18.98h-2.058z" fill="#85ACAF"/></g><path fill-rule="evenodd" clip-rule="evenodd" d="M11 6v1.892h3.886l-8.994 8.994V13H4v7h7v-1.892H7.345l8.763-8.763V13H18V6h-7z" fill="#FF444F"/></svg>