<svg xmlns="http://www.w3.org/2000/svg" width="64" height="64" fill="none"><path fill="#333" d="M28 48h8v4h14a2 2 0 0 1 2 2v4a2 2 0 0 1-2 2H14a2 2 0 0 1-2-2v-4a2 2 0 0 1 2-2h14v-4Z"/><path fill="#FF6444" d="M60 8H4a4 4 0 0 0-4 4v32a4 4 0 0 0 4 4h56a4 4 0 0 0 4-4V12a4 4 0 0 0-4-4Z"/><path fill="#fff" d="M49.708 16.77a4 4 0 0 1 4.85 6.36l-.27.2-20 14a4 4 0 0 1-5.29-.62l-.21-.26-3.88-5.18-10.91 6.25a4 4 0 0 1-5.29-1.22l-.18-.25a4 4 0 0 1 1.22-5.29l.27-.16 14-8a4 4 0 0 1 5 .81l.21.26 3.68 4.9 16.8-11.8Z" opacity=".56"/></svg>