<?xml version="1.0" encoding="UTF-8"?>
<svg width="135px" height="240px" viewBox="0 0 135 240" version="1.1" xmlns="http://www.w3.org/2000/svg" xmlns:xlink="http://www.w3.org/1999/xlink">
    <title>afiq/images/card bg financial</title>
    <defs>
        <rect id="path-1" x="0" y="0" width="240" height="240"></rect>
    </defs>
    <g id="Symbols" stroke="none" stroke-width="1" fill="none" fill-rule="evenodd">
        <g id="MT5-account-cards/demo/created/fin" transform="translate(-185.000000, 0.000000)">
            <g id="illustration" transform="translate(80.000000, 0.000000)">
                <mask id="mask-2" fill="white">
                    <use xlink:href="#path-1"></use>
                </mask>
                <use id="bg" fill="#DEDEDE" fill-rule="nonzero" opacity="0" xlink:href="#path-1"></use>
                <g id="Group" opacity="0.08" mask="url(#mask-2)" fill="#FF6444" fill-rule="nonzero">
                    <g transform="translate(246.449747, 58.150758) rotate(45.000000) translate(-246.449747, -58.150758) translate(47.949747, -75.849242)" id="Combined-Shape">
                        <path d="M348.644661,75.3603897 C375.154329,75.3603897 396.644661,96.8507217 396.644661,123.36039 L396.644661,219.36039 C396.644661,245.870058 375.154329,267.36039 348.644661,267.36039 L252.644661,267.36039 C226.134993,267.36039 204.644661,245.870058 204.644661,219.36039 L204.644661,123.36039 C204.644661,96.8507217 226.134993,75.3603897 252.644661,75.3603897 L348.644661,75.3603897 Z M144,0.573593129 C170.509668,0.573593129 192,22.0639251 192,48.5735931 L192,144.573593 C192,171.083261 170.509668,192.573593 144,192.573593 L48,192.573593 C21.490332,192.573593 4.51112619e-10,171.083261 4.51109372e-10,144.573593 L4.51109372e-10,48.5735931 C4.51106126e-10,22.0639251 21.490332,0.573593129 48,0.573593129 L144,0.573593129 Z"></path>
                    </g>
                </g>
            </g>
        </g>
    </g>
</svg>