<svg xmlns="http://www.w3.org/2000/svg" width="64" height="64" fill="none"><path fill="#333" d="M28 48h8v4h14a2 2 0 0 1 2 2v4a2 2 0 0 1-2 2H14a2 2 0 0 1-2-2v-4a2 2 0 0 1 2-2h14v-4Z"/><path fill="#85ACB0" d="M60 8H4a4 4 0 0 0-4 4v32a4 4 0 0 0 4 4h56a4 4 0 0 0 4-4V12a4 4 0 0 0-4-4Z"/><path fill="#fff" d="m46.57 27.61-5.69-11.93-.09-.16v-.05l-.1-.08-.48-.39H25.21c-.163.085-.31.2-.43.34l-8.71 12.02-.07.11V28.67l5.7 12 .07.11h15.55l.12-.09.17-.2 8.57-12a1.38 1.38 0 0 0 .12-1.41l.27.53ZM25.5 19.14l.63 1.39v.07a1.45 1.45 0 0 0 1.28.75 1.46 1.46 0 0 0 1.45-1.42 1.28 1.28 0 0 0-.13-.57l-.76-1.68h8.76L31.3 25.3l-.63-1.39v-.07a1.43 1.43 0 0 0-1.27-.74 1.42 1.42 0 0 0-1.32 1.99l.76 1.68h-8.82l5.48-7.63Zm.12 19.59 1.14-1.71.05-.08a1.35 1.35 0 0 0 .18-.67 1.42 1.42 0 0 0-.67-1.2 1.49 1.49 0 0 0-.78-.22 1.47 1.47 0 0 0-1.22.64l-1.18 1.77-3.63-7.63h8.82l-1.12 1.67v.08a1.42 1.42 0 0 0 .5 1.88c.225.14.485.217.75.22h.11a1.47 1.47 0 0 0 1.13-.64l.53-.8.66-1 3.63 7.61-8.9.08Zm14.89-9.1h2l-5.55 7.67-3.67-7.69h2.1a1.42 1.42 0 0 0-.11-2.83h-1.49l5.52-7.7 3.67 7.7H40.4a1.421 1.421 0 0 0 .11 2.84v.01Z" opacity=".56"/></svg>