<svg width="96" height="96" fill="none" xmlns="http://www.w3.org/2000/svg"><path d="M0 18C0 8.059 8.059 0 18 0h60c9.941 0 18 8.059 18 18v60c0 9.941-8.059 18-18 18H18C8.059 96 0 87.941 0 78V18z" fill="#FFAD3A"/><path d="m60 36-7.508-9L45 36h15zM76.507 60 69 51h15l-7.493 9zM78.621 29.379a3 3 0 0 1 0 4.242L76.243 36h-8.486l6.622-6.621a3 3 0 0 1 4.242 0zM64.757 39l-9 9h8.486l9-9h-8.486zM61.243 51h-8.486L45 58.757 33.621 47.38a3 3 0 0 0-4.242 0l-15 15a3 3 0 1 0 4.242 4.242L31.5 53.743 42.879 65.12a3 3 0 0 0 4.242 0L61.243 51z" fill="#fff"/></svg>