<svg xmlns="http://www.w3.org/2000/svg" width="64" height="64"><g fill="none"><path fill="#333" d="M28 48h8v4h15.5a.5.5 0 01.5.5v7a.5.5 0 01-.5.5h-39a.5.5 0 01-.5-.5v-7a.5.5 0 01.5-.5H28v-4z"/><g transform="translate(0 8)"><rect width="64" height="40" fill="#85ACB0" rx="1"/><path fill="#C9DBDC" d="M46.57 19.61L40.88 7.68l-.09-.16v-.05l-.1-.08-.48-.39h-15c-.163.085-.31.2-.43.34l-8.71 12.02-.07.11v1.2l5.7 12 .07.11h15.55l.12-.09.17-.2 8.57-12c.296-.412.342-.954.12-1.41l.27.53zM25.5 11.14l.63 1.39v.07a1.45 1.45 0 001.28.75 1.46 1.46 0 001.45-1.42 1.28 1.28 0 00-.13-.57l-.76-1.68h8.76L31.3 17.3l-.63-1.39v-.07a1.43 1.43 0 00-1.27-.74 1.42 1.42 0 00-1.32 1.99l.76 1.68h-8.82l5.48-7.63zm.12 19.59l1.14-1.71.05-.08c.117-.204.18-.435.18-.67a1.42 1.42 0 00-.67-1.2 1.493 1.493 0 00-.78-.22 1.47 1.47 0 00-1.22.64l-1.18 1.77-3.63-7.63h8.82l-1.12 1.67v.08a1.42 1.42 0 00.5 1.88c.225.14.485.217.75.22h.11a1.469 1.469 0 001.13-.64l.53-.8.66-1 3.63 7.61-8.9.08zm14.89-9.1h2l-5.55 7.67-3.67-7.69h2.1a1.419 1.419 0 00-.11-2.83h-1.49l5.52-7.7 3.67 7.7H40.4a1.42 1.42 0 00-1.147 2.178c.27.43.75.682 1.257.662v.01z"/></g></g></svg>