<svg  viewBox="0 0 32 32"  fill="none" xmlns="http://www.w3.org/2000/svg"><path opacity=".01" fill="#fff" stroke="#979797" d="M0 0h32v32H0z"/><path fill-rule="evenodd" clip-rule="evenodd" d="M0 29.334a2.667 2.667 0 002.667 2.667H24a2.667 2.667 0 002.667-2.667v-1.555H0v1.555z" fill="#85ACAF"/><mask id="prefix__a" maskUnits="userSpaceOnUse" x="0" y="9" width="27" height="18"><path fill-rule="evenodd" clip-rule="evenodd" d="M0 9.21h26.667v17.47H0V9.21z" fill="#fff"/></mask><g mask="url(#prefix__a)"><path fill-rule="evenodd" clip-rule="evenodd" d="M17.754 20.19v3.965h-2.153V20.19H13.45l2.152-2.865 1.077-1.433 1.076 1.433 2.153 2.865h-2.153zm-6.689.376L9.99 21.998l-1.076-1.432-2.153-2.865h2.153v-3.965h2.152v3.965h2.152l-2.152 2.865zM24 9.21H2.667A2.667 2.667 0 000 11.878V26.68h26.667V11.878A2.667 2.667 0 0024 9.21z" fill="#85ACAF"/></g><path fill-rule="evenodd" clip-rule="evenodd" d="M23 0a9 9 0 100 18 9 9 0 000-18z" fill="#FF444F"/><path fill-rule="evenodd" clip-rule="evenodd" d="M21.418 6.21A1.21 1.21 0 1019 6.208a1.21 1.21 0 002.418 0zm.159 6.764h-1.76L24.891 5h1.76l-5.075 7.974zm3.004-1.183a1.21 1.21 0 112.419 0 1.21 1.21 0 01-2.419 0z" fill="#fff"/></svg>