<svg  viewBox="0 0 32 32"  fill="none" xmlns="http://www.w3.org/2000/svg"><path opacity=".01" fill="#fff" stroke="#979797" d="M0 0h32v32H0z"/><path fill-rule="evenodd" clip-rule="evenodd" d="M22.328 22.533a.792.792 0 110-1.585.792.792 0 010 1.585zm.793 3.016a.793.793 0 11-1.586 0v-1.537a.794.794 0 111.586 0v1.537zm-3.914-5.493a.793.793 0 110-1.586.793.793 0 010 1.586zm.794 5.493a.793.793 0 11-1.586 0v-3.838a.793.793 0 111.586 0v3.838zm-3.913-6.806a.794.794 0 110-1.587.794.794 0 010 1.587zm.793 6.806a.793.793 0 11-1.587 0v-5.23a.793.793 0 111.587 0v5.23zm-3.914-4.362a.793.793 0 110-1.586.793.793 0 010 1.586zm.793 4.362a.793.793 0 11-1.586 0v-2.686a.793.793 0 011.586 0v2.686zm9.351-14.883H3.555A3.556 3.556 0 000 14.222v4.889h3.837v-2.442l4.138 3.108 2.069 1.555-2.069 1.554-4.138 3.11v-2.443H0v4.891a3.555 3.555 0 003.555 3.555h19.556a3.555 3.555 0 003.556-3.555V14.222a3.556 3.556 0 00-3.556-3.556z" fill="#85ACAF"/><path fill-rule="evenodd" clip-rule="evenodd" d="M24.163.517L26.124 4.5a.927.927 0 00.697.507l4.386.639a.927.927 0 01.512 1.581l-3.173 3.1a.93.93 0 00-.266.82l.75 4.378a.926.926 0 01-1.343.978l-3.924-2.067a.926.926 0 00-.86 0l-3.923 2.067a.926.926 0 01-1.343-.978l.75-4.377a.93.93 0 00-.266-.821l-3.173-3.1a.928.928 0 01.511-1.581l4.387-.639a.925.925 0 00.696-.507L22.504.517a.924.924 0 011.659 0z" fill="#FF444F"/></svg>