<svg xmlns="http://www.w3.org/2000/svg" width="96" height="99" fill="none"><rect width="96" height="99" fill="#F2F3F4" rx="8"/><g clip-path="url(#a)"><path fill="#0364B9" d="M57.75 23h-22.5a6.75 6.75 0 0 0-6.75 6.75v19.688h36V29.75A6.75 6.75 0 0 0 57.75 23Z"/><path fill="#0A559E" d="M35.25 23a6.75 6.75 0 0 0-6.75 6.75v.196l33.654-5.312A6.723 6.723 0 0 0 57.75 23h-22.5ZM64.5 29.75c0-1.692-.623-3.24-1.651-4.424l-4.42 24.111H64.5V29.75Z"/><path fill="#71BD0E" d="M28.5 48.875h36v3.375A6.75 6.75 0 0 1 57.75 59h-22.5a6.75 6.75 0 0 1-6.75-6.75v-3.375Z"/><path fill="#fff" d="M36.76 33.895c.162.296.346.665.553 1.106.216.433.437.905.662 1.418.234.504.463 1.022.688 1.553.226.53.437 1.03.635 1.498l.634-1.498c.225-.532.45-1.049.675-1.553.235-.513.455-.985.662-1.417.216-.442.405-.81.567-1.108h1.917c.09.622.171 1.319.243 2.093.081.765.148 1.566.203 2.403.063.828.117 1.66.162 2.498.053.837.099 1.624.135 2.362h-2.053c-.026-.909-.063-1.899-.107-2.97a80.228 80.228 0 0 0-.203-3.24l-.54 1.255-.594 1.377a122.562 122.562 0 0 1-1.013 2.39h-1.471c-.126-.297-.279-.652-.459-1.066-.18-.424-.369-.864-.567-1.324a89.758 89.758 0 0 0-.58-1.377 582.26 582.26 0 0 1-.54-1.255 80.228 80.228 0 0 0-.203 3.24 242.892 242.892 0 0 0-.108 2.97h-2.052c.036-.738.077-1.526.121-2.362l.162-2.498c.063-.837.131-1.638.203-2.403.081-.774.166-1.471.257-2.093h2.011ZM52.524 33.895v1.795h-2.822v7.56h-2.106v-7.56h-2.821v-1.795h7.749ZM56.982 40.496c0-.261-.058-.49-.175-.689-.117-.207-.32-.378-.608-.513-.288-.134-.675-.238-1.16-.31-.487-.072-1.099-.108-1.837-.108.1-.837.18-1.688.243-2.551a96.92 96.92 0 0 0 .149-2.43h5.062v1.687h-3.375c-.018.324-.04.639-.067.945-.018.297-.04.558-.068.783 1.314.09 2.282.4 2.903.931.63.523.945 1.252.945 2.188 0 .431-.077.832-.23 1.201a2.585 2.585 0 0 1-.688.959c-.306.27-.693.481-1.161.634-.46.153-1 .23-1.62.23-.243 0-.5-.019-.77-.055a7.211 7.211 0 0 1-.77-.121 8.206 8.206 0 0 1-.66-.148 2.597 2.597 0 0 1-.46-.162L53 41.306c.225.099.522.198.89.297.37.09.81.135 1.324.135.62 0 1.07-.121 1.35-.364.279-.253.418-.545.418-.878ZM41.483 56.276V51.6h3.132v.884h-2.08v.979h1.85v.884h-1.85v1.93h-1.052ZM45.359 51.599h1.053v4.678h-1.053v-4.678ZM50.633 56.276a23.54 23.54 0 0 0-.979-1.586 16.12 16.12 0 0 0-1.12-1.478v3.064h-1.04V51.6h.858c.148.148.312.33.492.547.18.215.363.447.547.695.19.243.376.497.56.762.185.261.358.514.52.756V51.6h1.046v4.678h-.884Z"/></g><path fill="#333" d="M17.078 78v-9.772h6.482v1.89h-4.354v2.002h3.71v1.876h-3.71V78h-2.128Zm9.114-8.134c-.42 0-.729-.093-.925-.28a1.033 1.033 0 0 1-.28-.742v-.308c0-.299.094-.541.28-.728.197-.196.505-.294.925-.294.42 0 .723.098.91.294a.96.96 0 0 1 .293.728v.308c0 .299-.098.546-.293.742-.187.187-.49.28-.91.28Zm-1.037.784h2.072V78h-2.072v-7.35ZM29.162 78v-7.35h2.072v1.246h.084c.131-.383.36-.714.686-.994.327-.28.78-.42 1.358-.42.756 0 1.326.252 1.708.756.392.504.588 1.223.588 2.156V78h-2.072v-4.438c0-.476-.074-.826-.224-1.05-.149-.233-.415-.35-.798-.35-.168 0-.331.023-.49.07a1.22 1.22 0 0 0-.434.196c-.121.093-.219.21-.294.35a.915.915 0 0 0-.112.462V78h-2.072Zm13.772 0c-.373 0-.686-.117-.938-.35-.242-.233-.396-.546-.462-.938h-.084c-.112.476-.36.84-.742 1.092-.383.243-.854.364-1.414.364-.737 0-1.302-.196-1.694-.588-.392-.392-.588-.91-.588-1.554 0-.775.28-1.349.84-1.722.57-.383 1.34-.574 2.31-.574h1.162v-.462c0-.355-.093-.635-.28-.84-.187-.215-.5-.322-.938-.322-.41 0-.737.089-.98.266a2.628 2.628 0 0 0-.602.602l-1.232-1.092c.299-.439.672-.78 1.12-1.022.457-.252 1.073-.378 1.848-.378 1.045 0 1.83.229 2.352.686.523.457.784 1.125.784 2.002v3.22h.686V78h-1.148Zm-2.87-1.274c.345 0 .64-.075.882-.224.252-.15.378-.392.378-.728v-.868h-1.008c-.812 0-1.218.275-1.218.826v.21c0 .27.084.471.252.602.168.121.406.182.714.182ZM45.472 78v-7.35h2.072v1.246h.084c.13-.383.36-.714.686-.994.327-.28.78-.42 1.358-.42.756 0 1.325.252 1.708.756.392.504.588 1.223.588 2.156V78h-2.072v-4.438c0-.476-.075-.826-.224-1.05-.15-.233-.415-.35-.798-.35-.168 0-.332.023-.49.07a1.22 1.22 0 0 0-.434.196 1.07 1.07 0 0 0-.294.35.915.915 0 0 0-.112.462V78h-2.072Zm11.308.168c-.551 0-1.041-.089-1.47-.266a3.031 3.031 0 0 1-1.078-.77 3.4 3.4 0 0 1-.658-1.218 5.32 5.32 0 0 1-.224-1.596c0-.588.074-1.115.224-1.582a3.4 3.4 0 0 1 .658-1.218c.289-.336.648-.593 1.078-.77.429-.177.919-.266 1.47-.266.746 0 1.367.168 1.862.504.504.336.863.807 1.078 1.414l-1.68.728c-.066-.28-.201-.518-.406-.714-.206-.196-.49-.294-.854-.294-.42 0-.738.14-.952.42-.215.27-.322.64-.322 1.106v1.372c0 .467.107.835.322 1.106.214.27.532.406.952.406.373 0 .667-.098.882-.294.224-.205.387-.471.49-.798l1.61.7c-.243.7-.621 1.213-1.134 1.54-.504.327-1.12.49-1.848.49Zm5.3-8.302c-.42 0-.728-.093-.924-.28a1.033 1.033 0 0 1-.28-.742v-.308c0-.299.093-.541.28-.728.196-.196.504-.294.924-.294.42 0 .724.098.91.294a.96.96 0 0 1 .294.728v.308c0 .299-.098.546-.294.742-.187.187-.49.28-.91.28Zm-1.036.784h2.072V78h-2.072v-7.35ZM70.482 78c-.373 0-.686-.117-.938-.35-.243-.233-.397-.546-.462-.938h-.084c-.112.476-.36.84-.742 1.092-.383.243-.854.364-1.414.364-.737 0-1.302-.196-1.694-.588-.392-.392-.588-.91-.588-1.554 0-.775.28-1.349.84-1.722.57-.383 1.34-.574 2.31-.574h1.162v-.462c0-.355-.093-.635-.28-.84-.187-.215-.5-.322-.938-.322-.41 0-.737.089-.98.266a2.63 2.63 0 0 0-.602.602l-1.232-1.092c.299-.439.672-.78 1.12-1.022.457-.252 1.073-.378 1.848-.378 1.045 0 1.83.229 2.352.686.523.457.784 1.125.784 2.002v3.22h.686V78h-1.148Zm-2.87-1.274c.345 0 .64-.075.882-.224.252-.15.378-.392.378-.728v-.868h-1.008c-.812 0-1.218.275-1.218.826v.21c0 .27.084.471.252.602.168.121.406.182.714.182ZM75.079 78c-.71 0-1.232-.173-1.568-.518-.327-.345-.49-.845-.49-1.498V67.64h2.072v8.75h.924V78h-.938Z"/><rect width="27" height="13" x="52.5" y="16.5" fill="#999" rx="1.5"/><path fill="#fff" d="M59.03 27.12c-.613 0-1.133-.103-1.56-.31a3.636 3.636 0 0 1-1.09-.82l1-1.01c.473.533 1.057.8 1.75.8.373 0 .65-.077.83-.23a.761.761 0 0 0 .27-.61.72.72 0 0 0-.16-.48c-.107-.133-.323-.223-.65-.27l-.69-.09c-.74-.093-1.283-.317-1.63-.67-.34-.353-.51-.823-.51-1.41 0-.313.06-.6.18-.86s.29-.483.51-.67c.227-.187.5-.33.82-.43.327-.107.697-.16 1.11-.16.527 0 .99.083 1.39.25.4.167.743.41 1.03.73l-1.01 1.02a1.942 1.942 0 0 0-.61-.47c-.233-.127-.53-.19-.89-.19-.34 0-.593.06-.76.18a.582.582 0 0 0-.25.5c0 .24.063.413.19.52.133.107.347.183.64.23l.69.11c.72.113 1.253.337 1.6.67.347.327.52.793.52 1.4 0 .333-.06.64-.18.92s-.297.52-.53.72c-.227.2-.51.357-.85.47-.34.107-.727.16-1.16.16Zm5.424-.12-2.25-6.98h1.54l1.04 3.35.55 2.19h.03l.53-2.19 1.04-3.35h1.49L66.154 27h-1.7Zm9.002-1.11h-.05a1.327 1.327 0 0 1-.54.88c-.307.233-.724.35-1.25.35-.4 0-.773-.077-1.12-.23a2.57 2.57 0 0 1-.91-.68 3.22 3.22 0 0 1-.61-1.12c-.147-.447-.22-.963-.22-1.55 0-.587.076-1.107.23-1.56.153-.453.367-.833.64-1.14.28-.307.613-.54 1-.7.386-.16.816-.24 1.29-.24.627 0 1.166.137 1.62.41.453.267.81.67 1.07 1.21l-1.24.71a1.664 1.664 0 0 0-.5-.69c-.227-.193-.543-.29-.95-.29-.474 0-.85.137-1.13.41-.28.273-.42.703-.42 1.29v1.12c0 .58.14 1.01.42 1.29.28.273.656.41 1.13.41.187 0 .363-.02.53-.06a1.48 1.48 0 0 0 .44-.2.972.972 0 0 0 .29-.33.883.883 0 0 0 .11-.45v-.35h-1.3v-1.27h2.75V27h-1.28v-1.11Z"/><rect width="27" height="13" x="52.5" y="16.5" stroke="#999" rx="1.5"/><defs><clipPath id="a"><path fill="#fff" d="M28.5 23h36v36h-36z"/></clipPath></defs></svg>