<svg width="24" height="25" fill="none" xmlns="http://www.w3.org/2000/svg"><g clip-path="url(#clip0)"><path d="M15 4.503a.75.75 0 01.67.415l2.792 5.585h1.788a.75.75 0 01.597.296l.074.119 3 6a.75.75 0 01-.671 1.085H.75a.75.75 0 01-.67-1.085l3-6a.75.75 0 01.67-.415h1.786l2.793-5.585a.75.75 0 01.531-.402L9 4.503h6zm4.785 7.5h-5.016l-1.688 4.5h8.954l-2.25-4.5zm-10.556 0H4.213l-2.25 4.5h8.954l-1.688-4.5zm3.939 0H10.83l1.168 3.114 1.168-3.114zm1.367-6H9.463l-2.25 4.5h9.572l-2.25-4.5z" fill="#333"/></g><defs><clipPath id="clip0"><path fill="#fff" transform="translate(0 .003)" d="M0 0h24v24H0z"/></clipPath></defs></svg>