<svg fill="none" viewBox="0 0 32 32"><path fill="#F2F3F4" d="M0 6a6 6 0 016-6h20a6 6 0 016 6v20a6 6 0 01-6 6H6a6 6 0 01-6-6V6z"/><path fill="#6CAD56" fill-rule="evenodd" d="M18.325 6.164V6.16a5.279 5.279 0 013.405 1.989 5.398 5.398 0 011.11 3.816l-.83 5.976a.582.582 0 01-.32.436.565.565 0 01-.538-.025l-1.1-.7a.576.576 0 01-.263-.561l.357-2.875a3.211 3.211 0 00-.449-1.973l-.128.839-.772-.31a.565.565 0 00-.735.307.57.57 0 00-.358.2.583.583 0 00-.134.393l.049 1.319a.582.582 0 00.34.497l.95.42a10.886 10.886 0 01-5.761 0l.897-.353a.572.572 0 00.35-.512l.048-1.32a.583.583 0 00-.132-.377.57.57 0 00-.343-.2c-.146-.475-.755-.345-.755-.345l-.734.304-.138-.833c-.208.327-.356.69-.434 1.07l-2.416.995-.163-.943-.134-1.157a5.398 5.398 0 01.977-3.852 5.282 5.282 0 013.317-2.103 2.482 2.482 0 01.676-1.53 2.43 2.43 0 011.705-.75 2.406 2.406 0 011.731.689 2.462 2.462 0 01.725 1.474zm.017.25v.003-.004zm.014.782l.012.724a2.475 2.475 0 01-.681 1.75c-.448.47-1.062.74-1.706.752a2.415 2.415 0 01-1.731-.69 2.473 2.473 0 01-.742-1.726l-.012-.7-1.003 1.789.858.535-.452.868 2.659 1.77a.141.141 0 00.172-.014.144.144 0 00.034-.171l-.89-1.889a2.394 2.394 0 002.205-.04l-.827 1.92a.147.147 0 00.04.172.141.141 0 00.175.005l2.596-1.863-.483-.868.857-.578-1.082-1.746zM14.887 5.85c.05-.124.122-.237.215-.332.183-.19.432-.302.695-.31v-.578a1.595 1.595 0 00-1.552 1.611h.571a1.015 1.015 0 01.071-.39zm2.08 8.407a.43.43 0 01-.256.409.416.416 0 01-.165.034h-1.112a.415.415 0 01-.39-.265.432.432 0 01-.03-.163v-.651a.432.432 0 01.121-.303.421.421 0 01.299-.125h1.112a.417.417 0 01.389.264.43.43 0 01.031.164v.636z" clip-rule="evenodd"/><path fill="#6CAD56" d="M9.932 16.964l.265 1.186a.582.582 0 00.34.432.565.565 0 00.544-.053l1.078-.74a.578.578 0 00.246-.58l-.383-1.382-1.198.51a3.144 3.144 0 00-.892.627z"/><path fill="#3E9AC7" d="M19.946 15.836l-1.538-.677a.573.573 0 01-.349-.512l-.051-1.319a.585.585 0 01.243-.495.568.568 0 01.543-.063l1.304.524c.059.302.074.612.045.92l-.197 1.622z"/><path fill="#3E9AC7" fill-rule="evenodd" d="M24.317 15.047l-1.795-.743-.349 2.565a.866.866 0 01.34.793l-.408-.29-.049.35c-.097.738-.523.738-.726.695a.613.613 0 01-.75-.026l-1.103-.703a.576.576 0 01-.263-.561l.078-.625s-2.05 1.501-2.957 5.43l.992-.81a.568.568 0 01.612-.073l1.172.578a.585.585 0 01.286.668.585.585 0 01-.117.753l-.7.584.131.422a3.147 3.147 0 01-1.892-.662l-2.222-1.828a.568.568 0 00-.592-.073l-1.175.579a.574.574 0 00-.319.45.585.585 0 00.202.516l4.574 3.861a5.248 5.248 0 007.25-.797 2.407 2.407 0 001.62.159 2.436 2.436 0 001.494-1.118 2.474 2.474 0 00-.129-2.731 2.44 2.44 0 00-.488-.498 5.41 5.41 0 00.004-3.98 5.325 5.325 0 00-2.72-2.885zm1.85 6.32l-.966-1.805-.91.46-.494-.868-2.89 1.33a.144.144 0 00-.095.059.148.148 0 00.03.204c.031.023.07.033.108.027l2.046.244a2.409 2.409 0 012.548-.03l.622.379zm-4.299 1.562l-1.17-1.733a.144.144 0 00-.163-.054.143.143 0 00-.097.144l.186 3.208.975.04.025 1.05h2.041l-.623-.38a2.44 2.44 0 01-1.107-1.513 2.485 2.485 0 01-.067-.762zm-1.424-3.338l-.47 1.018a.43.43 0 01-.409.248.422.422 0 01-.162-.042l-.572-.29a.424.424 0 01-.203-.564l.47-1.018a.427.427 0 01.408-.251.42.42 0 01.163.043l.572.29c.1.048.178.134.216.24a.433.433 0 01-.013.326zm6.673 5.123l-.492-.288a1.026 1.026 0 00-.366-1.385l.286-.5c.36.212.623.56.73.967.107.408.05.841-.158 1.206z" clip-rule="evenodd"/><path fill="#D7CB3B" fill-rule="evenodd" d="M12.622 22.941a.582.582 0 01-.034-.665.585.585 0 01.311-.64l1.172-.578a.566.566 0 01.61.072l.963.796c-1.004-3.859-3.068-5.415-3.068-5.415l.235.848a.585.585 0 01-.243.578l-1.078.74a.567.567 0 01-.706-.052.567.567 0 01-.572-.387l-.143-.801-.589.228c.286-.726.815-1.079 1.467-1.38l2.638-1.125a.573.573 0 00.35-.512l.048-1.319a.583.583 0 00-.244-.497.57.57 0 00-.545-.06l-5.515 2.27a5.327 5.327 0 00-2.711 2.88 5.412 5.412 0 000 3.978c.067-.052.137-.1.21-.142l.643-.393.977-1.823.918.46.492-.867L11.1 20.48a.144.144 0 01.095.057.148.148 0 01-.03.205.143.143 0 01-.108.027l-2.055.237c.328.202.603.482.802.815.2.332.316.709.341 1.097l1.175-1.736a.143.143 0 01.164-.054.146.146 0 01.097.144l-.207 3.225-.975.032-.025 1.027h-2l.582-.354a2.443 2.443 0 001.107-1.515 2.49 2.49 0 00-.275-1.864 2.439 2.439 0 00-1.497-1.118 2.412 2.412 0 00-1.84.277l-1.275.778a2.438 2.438 0 00-1.105 1.512 2.484 2.484 0 00.276 1.86c.332.559.87.961 1.494 1.12.544.137 1.115.08 1.618-.156a5.247 5.247 0 007.257.796l1.29-1.085-3.385-2.866zm-.389-2.25l-.469-1.018a.426.426 0 01.203-.579l.572-.275a.422.422 0 01.572.206l.469 1.018a.435.435 0 01-.068.478.425.425 0 01-.135.1l-.572.29a.42.42 0 01-.572-.22zm-6.899 3a1.014 1.014 0 01.735-.843l-.148-.56a1.58 1.58 0 00-.955.745c-.208.366-.265.8-.157 1.208l.551-.156a1.02 1.02 0 01-.026-.395z" clip-rule="evenodd"/><path fill="#D7CB3B" d="M18.168 23.994l1.127-.966a.578.578 0 00.203-.515.583.583 0 00-.318-.451l-1.175-.579a.566.566 0 00-.609.072l-1.403 1.157.832.686c.391.31.853.514 1.343.596z"/></svg>