<svg width="25" height="25" fill="none" xmlns="http://www.w3.org/2000/svg"><g clip-path="url(#clip0)"><path fill-rule="evenodd" clip-rule="evenodd" d="M16.625.003v4a9.03 9.03 0 012.673 2.102l.916 1.055-3.21 3.211-1.053-1.255a4.5 4.5 0 100 5.776l1.052-1.256 3.211 3.21-.916 1.056a9.03 9.03 0 01-2.673 2.102v4h-3.75v-3.008a9.154 9.154 0 01-.75 0v3.007h-3.75v-3.999a8.998 8.998 0 01-4.875-8 8.999 8.999 0 014.875-8.001v-4h3.75v3.008a9.136 9.136 0 01.75 0V.003h3.75zm-3 4.584a7.53 7.53 0 00-3 .153V1.503h-.75v3.473A7.5 7.5 0 005 12.004a7.5 7.5 0 004.875 7.027v3.472h.75v-3.236a7.459 7.459 0 002.25.227 7.521 7.521 0 001.5-.227v3.236h.75v-3.472a7.428 7.428 0 001.948-1.083 7.51 7.51 0 001.092-1.03l-1.064-1.063a5.974 5.974 0 01-4.698 2.148 6 6 0 114.698-9.85l1.064-1.065a7.545 7.545 0 00-3.04-2.112V1.503h-.75V4.74a7.464 7.464 0 00-.75-.153z" fill="#333"/></g><defs><clipPath id="clip0"><path fill="#fff" transform="translate(.5 .003)" d="M0 0h24v24H0z"/></clipPath></defs></svg>