<svg width="64" height="40" xmlns="http://www.w3.org/2000/svg" fill="none"><path fill="#283991" d="M16 20c0-8.837 7.163-16 16-16s16 7.163 16 16-7.163 16-16 16-16-7.163-16-16z"/><path fill="#fff" d="m40.338 12.11-.612.763.638.752-.99-.177-.355.896-.327-.896-.97.152.636-.744-.613-.746.964.171.357-.914.327.914.945-.17zM26.973 28.527l1.079-1.345-1.667.302-.578-1.615-.629 1.615-1.702-.302 1.082 1.315-1.123 1.314 1.712-.269.577 1.582.629-1.58 1.745.311-1.125-1.328zm12.753 1.188.612-.762-.945.17-.327-.914-.357.915-.964-.171.613.745-.636.745.97-.153.327.896.356-.895.99.177-.639-.753zm3.958-12.485.612-.763-.944.171-.328-.914-.356.914-.965-.17.613.745-.636.744.97-.152.326.896.357-.896.989.177-.637-.752zm-6.77 1.174-.612.762.638.753-.989-.177-.356.895-.327-.895-.97.152.636-.745-.613-.745.964.172.357-.915.327.915.945-.172zM26.828 4.86c.262-.09.527-.173.795-.249v4.426L32 4.661v.368l-5.172 5.172V4.86zm-8.185 6.334h1.715l-.998-.998c.053-.07.107-.138.162-.207l2 2h-3.37c.157-.27.32-.536.49-.795zM32 18.525v.466l-3.483-3.483H32v.795h-2.22L32 18.525zm-9.486-.067V20h.795v-2.706L20.603 20h.369l1.542-1.542zm.766-2.95h-6.636c-.077.263-.147.528-.21.795h3.923L16.66 20h2.129l4.492-4.492zM32 11.989v-.795h-2.223L32 8.972V6.843l-5.145 5.146H32zm-9.486-2.951L21.45 7.975c-.377.332-.739.68-1.083 1.046l2.146 2.145.022.024.773.772V6.569c-.27.176-.537.357-.795.548v1.92zM29.164 20l-1.541-1.541v1.54h-.795v-4.366L31.195 20h-2.031z"/><path fill="#F44336" d="m29.311 16.303-.794-.795H32V11.99h-5.146l-.026.027v-.027h.026L32 6.844V5.029l-5.173 5.173V4.859a15.943 15.943 0 0 0-3.519 1.71v5.393l.028.027h-.028v-.027l-.772-.772.005.004h-.027v-.027L20.368 9.02a16.17 16.17 0 0 0-.846.969l2 2h-3.37a15.88 15.88 0 0 0-1.508 3.518h6.637l.027-.028v.028h-.027l-.767.768v.028h-.028L18.789 20h1.814l2.706-2.706V20h3.519v-4.367L31.195 20h.6c.068-.071.138-.142.205-.216v-.793l-2.689-2.688z"/></svg>