<svg xmlns="http://www.w3.org/2000/svg" viewBox="0 0 522.73 304.07"><defs><style>.cls-1{fill:#2a3052}.cls-2{fill:none;stroke:#dedede;stroke-miterlimit:10}.cls-3{fill:#f2f2f2}.cls-4{fill:#dedede}.cls-5{fill:#e98024}</style></defs><title>l1_ai</title><path class="cls-1" d="M216.85 259.93h8.07v1.82h-10.38v-17.06h2.31zM232.33 262a5.35 5.35 0 0 1-4.21-1.76 6.64 6.64 0 0 1-1.56-4.58v-.52a6.5 6.5 0 0 1 1.61-4.51 5 5 0 0 1 3.81-1.8 4.8 4.8 0 0 1 3.88 1.55 6.16 6.16 0 0 1 1.31 4.13v1.44h-8.23v.06a5 5 0 0 0 .93 3 3 3 0 0 0 2.5 1.17 5.81 5.81 0 0 0 2.06-.33 4.73 4.73 0 0 0 1.53-.92l.9 1.5a5.36 5.36 0 0 1-1.79 1.12 7.22 7.22 0 0 1-2.74.45zm-.33-11.35a2.5 2.5 0 0 0-2 1 4.61 4.61 0 0 0-1 2.45v.06h5.85v-.3a3.52 3.52 0 0 0-.73-2.27 2.59 2.59 0 0 0-2.12-.94zM243.84 258l.2.89h.07l.22-.89 2.92-8.94h2.36l-4.66 12.68h-1.75l-4.72-12.68h2.37zM256.79 262a5.35 5.35 0 0 1-4.21-1.76 6.64 6.64 0 0 1-1.56-4.58v-.52a6.5 6.5 0 0 1 1.61-4.51 5 5 0 0 1 3.81-1.8 4.8 4.8 0 0 1 3.88 1.55 6.16 6.16 0 0 1 1.31 4.13v1.44h-8.23v.06a5 5 0 0 0 .93 3 3 3 0 0 0 2.5 1.17 5.81 5.81 0 0 0 2.06-.33 4.73 4.73 0 0 0 1.53-.92l.9 1.5a5.36 5.36 0 0 1-1.79 1.12 7.22 7.22 0 0 1-2.74.45zm-.35-11.34a2.5 2.5 0 0 0-2 1 4.61 4.61 0 0 0-1 2.45v.06h5.85v-.3a3.52 3.52 0 0 0-.73-2.27 2.59 2.59 0 0 0-2.12-.95zM270.22 251.11L269 251a2.64 2.64 0 0 0-1.54.43 2.78 2.78 0 0 0-1 1.22v9.06h-2.31v-12.64h2.06l.22 1.85a4.4 4.4 0 0 1 1.33-1.54 3.11 3.11 0 0 1 1.82-.55 2.85 2.85 0 0 1 .49 0l.39.09zM280.24 261.75q-.12-.57-.18-1a7.44 7.44 0 0 1-.08-.88 5.38 5.38 0 0 1-1.68 1.53 4.3 4.3 0 0 1-2.23.62 4.14 4.14 0 0 1-3-1 3.73 3.73 0 0 1-1-2.79 3.27 3.27 0 0 1 1.47-2.84 6.87 6.87 0 0 1 4-1H280v-1.25a2.33 2.33 0 0 0-.68-1.76 2.67 2.67 0 0 0-1.92-.65 2.77 2.77 0 0 0-1.81.57 1.71 1.71 0 0 0-.7 1.37h-2.2v-.07A3.07 3.07 0 0 1 274 250a5.37 5.37 0 0 1 3.56-1.15 5.24 5.24 0 0 1 3.47 1.1 3.88 3.88 0 0 1 1.31 3.16v6.11a11.88 11.88 0 0 0 .07 1.31 6.75 6.75 0 0 0 .26 1.24zm-3.83-1.7a4.12 4.12 0 0 0 2.26-.64 3.06 3.06 0 0 0 1.31-1.47v-2.06h-2.59a3.37 3.37 0 0 0-2.23.7 2.09 2.09 0 0 0-.84 1.65 1.73 1.73 0 0 0 .53 1.33 2.21 2.21 0 0 0 1.56.49zM285.14 255.64a8.32 8.32 0 0 1 1.34-4.93 4.28 4.28 0 0 1 3.69-1.87 4.45 4.45 0 0 1 2.12.49 4.17 4.17 0 0 1 1.52 1.4l.28-1.65h1.84v12.75a4.84 4.84 0 0 1-1.42 3.74 5.83 5.83 0 0 1-4.09 1.31 8.57 8.57 0 0 1-2-.25 7.72 7.72 0 0 1-1.87-.69l.59-1.79a5.92 5.92 0 0 0 1.5.57 7.22 7.22 0 0 0 1.73.22 3.36 3.36 0 0 0 2.46-.77 3.18 3.18 0 0 0 .77-2.34v-1.43a4 4 0 0 1-1.49 1.2 4.66 4.66 0 0 1-2 .4 4.42 4.42 0 0 1-3.67-1.69 6.91 6.91 0 0 1-1.34-4.42zm2.31.25a5.27 5.27 0 0 0 .81 3.07 2.8 2.8 0 0 0 2.46 1.16 3.05 3.05 0 0 0 1.75-.47 3.6 3.6 0 0 0 1.16-1.34v-5.84a3.58 3.58 0 0 0-1.16-1.28 3 3 0 0 0-1.72-.47 2.69 2.69 0 0 0-2.47 1.38 6.88 6.88 0 0 0-.82 3.55zM304.54 262a5.35 5.35 0 0 1-4.21-1.76 6.64 6.64 0 0 1-1.56-4.58v-.52a6.5 6.5 0 0 1 1.61-4.51 5 5 0 0 1 3.81-1.8 4.8 4.8 0 0 1 3.88 1.55 6.16 6.16 0 0 1 1.31 4.13v1.44h-8.23v.06a5 5 0 0 0 .93 3 3 3 0 0 0 2.5 1.17 5.81 5.81 0 0 0 2.06-.33 4.73 4.73 0 0 0 1.53-.92l.9 1.5a5.36 5.36 0 0 1-1.79 1.12 7.22 7.22 0 0 1-2.74.45zm-.35-11.34a2.5 2.5 0 0 0-2 1 4.61 4.61 0 0 0-1 2.45v.06h5.85v-.3a3.52 3.52 0 0 0-.73-2.27 2.59 2.59 0 0 0-2.12-.95z"/><path class="cls-2" d="M82.87 304.07h357"/><path class="cls-1" d="M2.232 118.754L509.46 206.55l-2.217 12.81L.015 131.564z"/><path class="cls-3" d="M9.01 116.552L29.173 2.318l177.26 31.287L186.27 147.84z"/><path class="cls-4" d="M30.79 4.63l173.33 30.59-19.46 110.3-173.33-30.59L30.79 4.63M27.55 0L6.7 118.17l181.2 32L208.75 32 27.55 0z"/><path class="cls-4" d="M6.7 118.184l2.433-13.787 181.199 31.983-2.434 13.787z"/><path class="cls-1" d="M79.73 40.17l.15 1.39h.07l.61-1.26 6.57-11.86 2.46.43-9.21 15.7-2-.34-3.23-17.89 2.47.44zM88.59 39.48a7 7 0 0 1 2.31-4.3 5.64 5.64 0 0 1 8.18 1.44 7 7 0 0 1 .7 4.84v.25A6.94 6.94 0 0 1 97.42 46a5.67 5.67 0 0 1-8.17-1.45 6.93 6.93 0 0 1-.7-4.83zm2.23.65a6 6 0 0 0 .26 3.42 3.07 3.07 0 0 0 5 .88 6 6 0 0 0 1.42-3.12v-.25a6 6 0 0 0-.27-3.41A2.83 2.83 0 0 0 95 35.9a2.79 2.79 0 0 0-2.69.87 6 6 0 0 0-1.41 3.11zM103.89 48.74l-2.27-.4 3.18-18 2.27.4zM115.64 48.91a4.29 4.29 0 0 1-1.78 1.28 4.2 4.2 0 0 1-2.23.17 4.08 4.08 0 0 1-3-1.87 6.15 6.15 0 0 1-.43-4.26l1.3-7.36 2.27.4-1.3 7.39a4.74 4.74 0 0 0 .1 2.85 2.23 2.23 0 0 0 1.7 1.07 3.79 3.79 0 0 0 2.09-.14 3.11 3.11 0 0 0 1.44-1.18l1.59-9 2.27.4-2.2 12.49-2-.36zM125.05 39.6l-.13 1.67a4.31 4.31 0 0 1 1.8-1.11 4.74 4.74 0 0 1 2.27-.1 3.92 3.92 0 0 1 2 1 3.56 3.56 0 0 1 1 2 4.7 4.7 0 0 1 1.85-1.41 4.16 4.16 0 0 1 2.37-.22 3.79 3.79 0 0 1 2.78 1.84 6.07 6.07 0 0 1 .41 4.14l-1.32 7.47-2.27-.4 1.32-7.49a4.22 4.22 0 0 0-.17-2.73 2.35 2.35 0 0 0-1.76-1.1 2.45 2.45 0 0 0-2 .47 3.57 3.57 0 0 0-1.21 1.89v.09l-1.4 7.93-2.29-.4 1.32-7.49a4.16 4.16 0 0 0-.2-2.68 2.3 2.3 0 0 0-1.73-1.14 3.17 3.17 0 0 0-1.78.13 2.8 2.8 0 0 0-1.24 1l-1.63 9.24-2.27-.4L123 39.24zM146.61 56.53a5.35 5.35 0 0 1-3.84-2.47 6.64 6.64 0 0 1-.75-4.78l.09-.51a6.5 6.5 0 0 1 2.37-4.16 5 5 0 0 1 4.07-1.11 4.8 4.8 0 0 1 3.55 2.2 6.16 6.16 0 0 1 .58 4.29l-.25 1.42-8.1-1.41v.05a5 5 0 0 0 .39 3.11 3 3 0 0 0 2.25 1.59 5.82 5.82 0 0 0 2.08 0 4.75 4.75 0 0 0 1.67-.64l.63 1.63a5.36 5.36 0 0 1-2 .79 7.22 7.22 0 0 1-2.74 0zm1.63-11.23a2.51 2.51 0 0 0-2.12.62 4.62 4.62 0 0 0-1.42 2.23v.06l5.76 1 .05-.3a3.51 3.51 0 0 0-.32-2.36 2.59 2.59 0 0 0-1.95-1.25zM65 101l8 1.4-.32 1.79-10.22-1.8 3-16.8 2.27.4zM75.33 98.07a7 7 0 0 1 2.31-4.3A5.11 5.11 0 0 1 82 92.69a5.16 5.16 0 0 1 3.79 2.51 7 7 0 0 1 .7 4.84v.25a7 7 0 0 1-2.31 4.31 5.67 5.67 0 0 1-8.18-1.45 6.93 6.93 0 0 1-.7-4.83zm2.23.65a6 6 0 0 0 .26 3.42 3.07 3.07 0 0 0 5 .88 6 6 0 0 0 1.42-3.13v-.25a6 6 0 0 0-.24-3.42 2.82 2.82 0 0 0-2.26-1.74 2.79 2.79 0 0 0-2.69.87 6 6 0 0 0-1.41 3.11zM93.9 91.92l-.53 3 2.37.42-.3 1.66-2.37-.42-1.34 7.58a1.72 1.72 0 0 0 .15 1.3 1.33 1.33 0 0 0 .9.53 2.27 2.27 0 0 0 .44 0 2.82 2.82 0 0 0 .44 0v1.61a2 2 0 0 1-.8.21 3.84 3.84 0 0 1-1 0 3 3 0 0 1-2.06-1.23 3.7 3.7 0 0 1-.36-2.77l1.34-7.58-2-.35.3-1.69 2 .35.53-3zM110.06 107.33a1.57 1.57 0 0 0-.35-1.34 5.45 5.45 0 0 0-2-1.22 9.25 9.25 0 0 1-3.18-1.95 2.76 2.76 0 0 1-.74-2.51 3.31 3.31 0 0 1 1.75-2.36 6 6 0 0 1 6.83 1.25 3.36 3.36 0 0 1 .75 2.94v.07l-2.17-.38a2 2 0 0 0-.43-1.59 2.57 2.57 0 0 0-1.7-1 2.66 2.66 0 0 0-1.89.21 1.69 1.69 0 0 0-.81 1.18 1.45 1.45 0 0 0 .31 1.26 5.46 5.46 0 0 0 2 1.13 9.23 9.23 0 0 1 3.28 2 2.82 2.82 0 0 1 .74 2.54 3.28 3.28 0 0 1-1.82 2.45 5.72 5.72 0 0 1-3.7.41 5.57 5.57 0 0 1-3.55-1.87 3.51 3.51 0 0 1-.81-3.06v-.07l2.17.38a2.12 2.12 0 0 0 .59 1.92 3.55 3.55 0 0 0 1.88.91 3.26 3.26 0 0 0 2-.16 1.53 1.53 0 0 0 .85-1.14zM117 112l-2.27-.4L117 99.1l2.27.4zm2.8-15.7l-2.27-.4.41-2.32 2.27.4zM123 111.19l7.21 1.27-.32 1.79-9.89-1.75.28-1.6 8.36-7.9-6.67-1.18.32-1.79 9.45 1.67-.27 1.54zM137.37 115.82a5.35 5.35 0 0 1-3.84-2.47 6.64 6.64 0 0 1-.75-4.78l.09-.51a6.5 6.5 0 0 1 2.37-4.16 5 5 0 0 1 4.07-1.11 4.8 4.8 0 0 1 3.55 2.2 6.17 6.17 0 0 1 .58 4.29l-.25 1.42-8.1-1.43v.05a5 5 0 0 0 .39 3.11 3 3 0 0 0 2.25 1.59 5.82 5.82 0 0 0 2.08 0 4.73 4.73 0 0 0 1.67-.64l.63 1.64a5.36 5.36 0 0 1-2 .79 7.22 7.22 0 0 1-2.74.01zm1.63-11.23a2.5 2.5 0 0 0-2.12.62 4.62 4.62 0 0 0-1.42 2.23v.06l5.76 1 .05-.3a3.52 3.52 0 0 0-.32-2.36 2.59 2.59 0 0 0-1.95-1.25z"/><path class="cls-5" d="M116.6 69.83l-2.4-3.42-5.65 3.95-3.95-5.65-3.43 2.4 3.96 5.65-5.65 3.96 2.4 3.42 5.65-3.95 3.95 5.65 3.43-2.4-3.96-5.65 5.65-3.96z"/><path class="cls-3" d="M388.492 181.846l13.595-75.79L520.4 127.279l-13.596 75.79z"/><path class="cls-4" d="M403.72 108.39l114.37 20.52-12.89 71.85-114.38-20.52 12.89-71.85m-3.23-4.64l-14.3 79.73 122.25 21.92 14.3-79.73-122.25-21.93z"/><path class="cls-4" d="M386.166 183.473l1.669-9.302 122.249 21.93-1.669 9.302z"/><path class="cls-1" d="M424.46 136.1l2.9 14.61h.07l7.8-12.68 2.91.52-3 16.79-2.27-.41 1.13-6.63 1.46-6.79h-.06L427.58 154l-1.51-.27-3-14.42H423l-1 6.83-1.19 6.64-2.27-.41 3-16.79zM446.53 157.4v-1a7.45 7.45 0 0 1 .08-.88 5.38 5.38 0 0 1-1.93 1.21 4.29 4.29 0 0 1-2.3.21 4.14 4.14 0 0 1-2.79-1.53 3.73 3.73 0 0 1-.53-2.93 3.28 3.28 0 0 1 2-2.54 6.86 6.86 0 0 1 4.11-.3l2.47.44.22-1.23a2.32 2.32 0 0 0-.36-1.86 2.67 2.67 0 0 0-1.78-1 2.78 2.78 0 0 0-1.88.24 1.71 1.71 0 0 0-.93 1.22l-2.21-.45a3.07 3.07 0 0 1 1.73-2.26 5.37 5.37 0 0 1 3.7-.5 5.24 5.24 0 0 1 3.22 1.69 3.88 3.88 0 0 1 .73 3.34l-1.08 6a11.85 11.85 0 0 0-.16 1.3 6.8 6.8 0 0 0 0 1.27zm-3.47-2.35a4.11 4.11 0 0 0 2.34-.23 3.06 3.06 0 0 0 1.6-1.22l.36-2-2.55-.46a3.36 3.36 0 0 0-2.32.3 2.1 2.1 0 0 0-1.12 1.47 1.73 1.73 0 0 0 .28 1.4 2.2 2.2 0 0 0 1.41.74zM459.63 148.94l-1.15-.28a2.64 2.64 0 0 0-1.59.16 2.78 2.78 0 0 0-1.17 1l-1.6 8.92-2.27-.41 2.24-12.48 2 .36-.09 1.89a4.39 4.39 0 0 1 1.58-1.28 3.11 3.11 0 0 1 1.89-.22 2.84 2.84 0 0 1 .48.13l.37.16zM460.31 153.67a8.32 8.32 0 0 1 2.19-4.67 4.28 4.28 0 0 1 4-1.19 4.46 4.46 0 0 1 2 .85 4.19 4.19 0 0 1 1.25 1.65l.57-1.58 1.81.33-2.25 12.55a4.84 4.84 0 0 1-2.06 3.43 5.82 5.82 0 0 1-4.26.56 8.56 8.56 0 0 1-1.9-.6 7.64 7.64 0 0 1-1.72-1l.89-1.66a5.92 5.92 0 0 0 1.38.82 7.23 7.23 0 0 0 1.67.52 3.37 3.37 0 0 0 2.55-.32 3.18 3.18 0 0 0 1.17-2.17l.25-1.41a4 4 0 0 1-1.68.92 4.66 4.66 0 0 1-2 0 4.42 4.42 0 0 1-3.31-2.31 6.92 6.92 0 0 1-.54-4.58zm2.23.65a5.26 5.26 0 0 0 .25 3.17 2.79 2.79 0 0 0 2.22 1.58 3.06 3.06 0 0 0 1.8-.16 3.62 3.62 0 0 0 1.38-1.12l1-5.74a3.59 3.59 0 0 0-.91-1.47 3 3 0 0 0-1.61-.77 2.69 2.69 0 0 0-2.68.92 6.89 6.89 0 0 0-1.43 3.35zM475.61 162.62l-2.27-.41 2.24-12.48 2.27.41zm2.81-15.67l-2.27-.41.42-2.32 2.27.41zM483.38 151.13l-.18 1.87a4.6 4.6 0 0 1 1.84-1.26 4.25 4.25 0 0 1 2.24-.16 4.14 4.14 0 0 1 2.91 1.74 5.27 5.27 0 0 1 .45 3.85l-1.41 7.88-2.27-.41 1.4-7.83a3.42 3.42 0 0 0-.23-2.46 2.65 2.65 0 0 0-1.87-1 3.26 3.26 0 0 0-1.82.16 3.51 3.51 0 0 0-1.44 1.08l-1.63 9.1-2.27-.41 2.24-12.48zM261.33 194.28L337.59 231v62.09H185.14V231l76.19-36.7m0-12.21l-87.18 42v80h174.44v-80l-87.27-42z"/></svg>