<svg width="144" height="42.67" viewBox="0 0 216 64" xmlns="http://www.w3.org/2000/svg"><defs><linearGradient x1="91.495%" y1="4.946%" x2="-38.237%" y2="71.879%" id="a"><stop stop-color="#00A0FF" offset="0%"/><stop stop-color="#00A1FF" offset="1%"/><stop stop-color="#00BEFF" offset="26%"/><stop stop-color="#00D2FF" offset="51%"/><stop stop-color="#00DFFF" offset="76%"/><stop stop-color="#00E3FF" offset="100%"/></linearGradient><linearGradient x1="107.685%" y1="50%" x2="-130.64%" y2="50%" id="b"><stop stop-color="#FFE000" offset="0%"/><stop stop-color="#FFBD00" offset="41%"/><stop stop-color="orange" offset="78%"/><stop stop-color="#FF9C00" offset="100%"/></linearGradient><linearGradient x1="86.271%" y1="17.871%" x2="-50.18%" y2="194.64%" id="c"><stop stop-color="#FF3A44" offset="0%"/><stop stop-color="#C31162" offset="100%"/></linearGradient><linearGradient x1="-18.825%" y1="-54.03%" x2="42.086%" y2="24.928%" id="d"><stop stop-color="#32A071" offset="0%"/><stop stop-color="#2DA771" offset="7%"/><stop stop-color="#15CF74" offset="48%"/><stop stop-color="#06E775" offset="80%"/><stop stop-color="#00F076" offset="100%"/></linearGradient></defs><g fill="none" fill-rule="evenodd"><rect fill="#000" width="216" height="64" rx="8"/><path d="M208 1.28A6.72 6.72 0 0 1 214.72 8v48a6.72 6.72 0 0 1-6.72 6.72H8A6.72 6.72 0 0 1 1.28 56V8A6.72 6.72 0 0 1 8 1.28h200zM208 0H8a8 8 0 0 0-8 8v48a8 8 0 0 0 8 8h200a8 8 0 0 0 8-8V8a8 8 0 0 0-8-8z" fill="#A6A6A6" fill-rule="nonzero"/><path d="M75.872 16.384a4.352 4.352 0 0 1-1.2 3.2 4.64 4.64 0 0 1-3.52 1.408 4.8 4.8 0 0 1-3.536-1.44 5.104 5.104 0 0 1 0-7.136 5.056 5.056 0 0 1 5.504-1.04 4.064 4.064 0 0 1 1.504 1.072l-.848.848a3.2 3.2 0 0 0-2.624-1.152 3.84 3.84 0 1 0 2.688 6.608 3.072 3.072 0 0 0 .8-1.952h-3.488v-1.152h4.656a6 6 0 0 1 .064.736zM83.2 12.384h-4.32v3.04h3.936v1.152H78.88v3.04h4.32V20.8h-5.568v-9.6H83.2zM88.448 20.8h-1.232v-8.416h-2.688V11.2H91.2v1.184h-2.752zM95.904 20.8v-9.6h1.232v9.6zM102.608 20.8h-1.232v-8.416h-2.688V11.2h6.592v1.184h-2.672z" stroke="#FFF" stroke-width=".5" fill="#FFF"/><path d="M117.776 19.552a4.976 4.976 0 0 1-7.04 0 5.184 5.184 0 0 1 0-7.104 4.688 4.688 0 0 1 3.52-1.456 4.8 4.8 0 0 1 3.52 1.456A4.912 4.912 0 0 1 119.184 16a4.8 4.8 0 0 1-1.408 3.552zm-6.128-.8a3.664 3.664 0 0 0 5.216 0 4.064 4.064 0 0 0 0-5.504 3.664 3.664 0 0 0-5.216 0 4.064 4.064 0 0 0 0 5.504z" stroke="#FFF" stroke-width=".5" fill="#FFF" fill-rule="nonzero"/><path stroke="#FFF" stroke-width=".5" fill="#FFF" d="M120.928 20.8v-9.6h1.488l4.672 7.472h0V11.2h1.232v9.6h-1.28l-4.88-7.824h0V20.8z"/><path d="M109.024 34.8a6.816 6.816 0 1 0 6.832 6.8 6.704 6.704 0 0 0-6.832-6.8zm0 10.928a4.128 4.128 0 1 1 3.84-4.128 3.936 3.936 0 0 1-3.84 4.128zM94.112 34.8a6.816 6.816 0 1 0 6.832 6.8 6.704 6.704 0 0 0-6.832-6.8zm0 10.928a4.128 4.128 0 1 1 3.84-4.128 3.936 3.936 0 0 1-3.84 4.128zm-17.728-8.832v2.88h6.912a6.032 6.032 0 0 1-1.6 3.632 7.072 7.072 0 0 1-5.344 2.112 7.68 7.68 0 1 1 0-15.36 7.424 7.424 0 0 1 5.248 2.064l2.032-2.032a10.08 10.08 0 0 0-7.248-2.912 10.576 10.576 0 1 0 0 21.136 9.712 9.712 0 0 0 7.376-2.96 9.6 9.6 0 0 0 2.496-6.768c.006-.6-.042-1.2-.144-1.792h-9.728zm72.496 2.24a6.4 6.4 0 0 0-5.824-4.336 6.4 6.4 0 0 0-6.4 6.8 6.768 6.768 0 0 0 12.416 3.792l-2.32-1.6a3.856 3.856 0 0 1-3.344 1.872 3.44 3.44 0 0 1-3.296-2.064l9.104-3.76-.336-.704zm-9.28 2.272a3.744 3.744 0 0 1 3.568-3.984 2.624 2.624 0 0 1 2.512 1.456l-6.08 2.528zM132.208 48h2.992V28h-2.992v20zm-4.896-11.68h-.112a4.704 4.704 0 0 0-3.584-1.6 6.816 6.816 0 0 0 0 13.616 4.608 4.608 0 0 0 3.584-1.6h.112v.976c0 2.608-1.392 4-3.632 4a3.776 3.776 0 0 1-3.44-2.416l-2.592 1.072a6.4 6.4 0 0 0 6.032 4.032c3.504 0 6.4-2.064 6.4-7.088V35.2h-2.768v1.12zm-3.44 9.408a4.128 4.128 0 0 1 0-8.24 3.824 3.824 0 0 1 3.648 4.112 3.808 3.808 0 0 1-3.648 4.128zM162.896 28h-7.168v20h2.992v-7.584h4.176a6.224 6.224 0 1 0 0-12.416zm0 9.6h-4.176v-6.816h4.24a3.424 3.424 0 0 1 0 6.848l-.064-.032zm18.464-2.864a5.584 5.584 0 0 0-5.328 3.056l2.64 1.104a2.848 2.848 0 0 1 2.736-1.456 2.88 2.88 0 0 1 3.2 2.576v.192a6.688 6.688 0 0 0-3.12-.768c-2.848 0-5.76 1.6-5.76 4.512a4.624 4.624 0 0 0 4.976 4.4 4.24 4.24 0 0 0 3.808-1.952h.096V48h2.88v-7.696c0-3.504-2.656-5.536-6.064-5.536l-.064-.032zm-.368 10.96c-.976 0-2.336-.496-2.336-1.696 0-1.6 1.696-2.144 3.2-2.144.95-.023 1.89.209 2.72.672a3.616 3.616 0 0 1-3.52 3.2l-.064-.032zM197.984 35.2l-3.424 8.672h-.096l-3.552-8.672h-3.2l5.328 12.128-3.04 6.736h3.12l8.192-18.864h-3.328zM171.104 48h2.976V28h-2.976v20z" fill="#FFF" fill-rule="nonzero"/><path d="M16.704 12.064a3.2 3.2 0 0 0-.752 2.24v35.392a3.104 3.104 0 0 0 .752 2.24l.112.128L36.64 32.24v-.48L16.816 11.952l-.112.112z" fill="url(#a)"/><path d="M43.2 38.848l-6.56-6.608v-.48l6.56-6.608.144.096 7.856 4.448c2.24 1.264 2.24 3.344 0 4.624l-7.824 4.448-.176.08z" fill="url(#b)"/><path d="M43.392 38.752L36.64 32 16.704 51.936c.933.83 2.325.877 3.312.112l23.376-13.296" fill="url(#c)"/><path d="M43.392 25.248l-23.376-13.28a2.576 2.576 0 0 0-3.312.096L36.64 32l6.752-6.752z" fill="url(#d)"/><path d="M43.2 38.608l-23.184 13.2a2.656 2.656 0 0 1-3.2 0l-.112.112.112.128a2.656 2.656 0 0 0 3.2 0l23.376-13.296-.192-.144z" fill="#000" opacity=".2"/><path d="M16.704 51.712A3.2 3.2 0 0 1 16 49.456v.24a3.104 3.104 0 0 0 .752 2.24l.112-.112-.16-.112zM51.2 34.08l-8 4.528.144.144 7.856-4.448A2.8 2.8 0 0 0 52.896 32a2.976 2.976 0 0 1-1.696 2.08z" fill="#000" opacity=".12"/><path d="M20.016 12.192L51.2 29.92A2.976 2.976 0 0 1 52.896 32a2.8 2.8 0 0 0-1.696-2.304L20.016 11.968c-2.224-1.28-4.064-.224-4.064 2.336v.24c.048-2.56 1.84-3.616 4.064-2.352z" fill="#FFF" opacity=".25"/></g></svg>