<svg width="144" height="42.67" viewBox="0 0 216 64" xmlns="http://www.w3.org/2000/svg"><g fill="none" fill-rule="evenodd"><rect fill="#000" width="216" height="64" rx="8"/><path d="M208 1.28A6.72 6.72 0 0 1 214.72 8v48a6.72 6.72 0 0 1-6.72 6.72H8A6.72 6.72 0 0 1 1.28 56V8A6.72 6.72 0 0 1 8 1.28h200zM208 0H8a8 8 0 0 0-8 8v48a8 8 0 0 0 8 8h200a8 8 0 0 0 8-8V8a8 8 0 0 0-8-8z" fill="#A6A6A6" fill-rule="nonzero"/><g fill="#FFF"><path d="M30.369 15.137c7.193-1.1 14.394-2.146 21.604-3.137.005 6.316.007 12.63.005 18.943-7.202.027-14.404.138-21.61.16a8989.83 8989.83 0 0 1 0-15.966zM12.101 17.685c5.416-.835 10.855-1.556 16.294-2.237.005 5.238.008 10.474.01 15.71-5.435 0-10.87.077-16.305.063V17.685h.001zM12.101 32.87c5.43-.018 10.86.069 16.29.06 0 5.251.013 10.503 0 15.756-5.425-.804-10.86-1.508-16.294-2.243l.004-13.573zM30.336 33.08h21.637c.01 6.298.01 12.597 0 18.898-7.19-1.078-14.4-2.078-21.605-3.055-.01-5.28-.02-10.56-.032-15.842z"/></g><path d="M65.652 26V13.396h3.48c4.442 0 6.663 2.048 6.663 6.144 0 1.945-.617 3.508-1.85 4.689C72.71 25.409 71.06 26 68.992 26h-3.34zm1.477-11.268v9.932h1.88c1.653 0 2.94-.442 3.86-1.327.92-.885 1.379-2.139 1.379-3.762 0-3.228-1.717-4.843-5.15-4.843h-1.97zm14.713 11.479c-1.33 0-2.392-.42-3.186-1.261s-1.191-1.956-1.191-3.345c0-1.511.413-2.692 1.24-3.542.825-.85 1.941-1.274 3.348-1.274 1.342 0 2.389.413 3.142 1.24.753.825 1.13 1.971 1.13 3.436 0 1.435-.407 2.585-1.218 3.45-.812.864-1.9 1.296-3.265 1.296zm.105-8.209c-.926 0-1.658.315-2.197.945-.54.63-.809 1.498-.809 2.606 0 1.066.273 1.907.818 2.522.545.615 1.274.923 2.188.923.932 0 1.648-.302 2.15-.905.5-.604.75-1.462.75-2.575 0-1.125-.25-1.993-.75-2.602-.502-.61-1.218-.914-2.15-.914zM99.965 17l-2.698 9h-1.495l-1.854-6.442a4.198 4.198 0 0 1-.14-.835h-.036c-.017.21-.079.483-.184.817L91.545 26h-1.441l-2.725-9h1.512l1.863 6.768c.059.205.1.474.123.808h.07c.018-.258.07-.533.158-.826L93.18 17h1.318l1.863 6.785c.059.217.103.486.132.809h.07a3.74 3.74 0 0 1 .15-.809L98.54 17h1.424zm9.14 9h-1.44v-5.133c0-1.91-.698-2.865-2.093-2.865-.72 0-1.317.27-1.788.813-.472.542-.708 1.226-.708 2.052V26h-1.441v-9h1.441v1.494h.035c.68-1.137 1.664-1.705 2.953-1.705.985 0 1.738.318 2.26.954.52.635.781 1.554.781 2.755V26zm4.158 0h-1.442V12.676h1.442V26zm6.68.21c-1.33 0-2.393-.42-3.187-1.26-.794-.841-1.19-1.956-1.19-3.345 0-1.511.413-2.692 1.239-3.542.826-.85 1.942-1.274 3.348-1.274 1.342 0 2.39.413 3.142 1.24.753.825 1.13 1.971 1.13 3.436 0 1.435-.406 2.585-1.217 3.45-.812.864-1.9 1.296-3.266 1.296zm.105-8.208c-.926 0-1.658.315-2.197.945-.54.63-.809 1.498-.809 2.606 0 1.066.272 1.907.817 2.522.545.615 1.275.923 2.189.923.931 0 1.648-.302 2.149-.905.5-.604.751-1.462.751-2.575 0-1.125-.25-1.993-.751-2.602-.501-.61-1.218-.914-2.15-.914zM133.17 26h-1.441v-1.406h-.036c-.627 1.078-1.55 1.617-2.768 1.617-.897 0-1.598-.237-2.105-.712-.507-.475-.76-1.104-.76-1.89 0-1.681.99-2.66 2.97-2.935l2.699-.378c0-1.53-.619-2.294-1.855-2.294-1.084 0-2.062.37-2.936 1.107v-1.476c.885-.563 1.905-.844 3.06-.844 2.114 0 3.172 1.12 3.172 3.357V26zm-1.441-4.553l-2.171.3c-.668.093-1.172.258-1.512.496-.34.237-.51.657-.51 1.26 0 .44.157.8.47 1.078.314.278.731.417 1.253.417.715 0 1.305-.25 1.77-.751.467-.501.7-1.136.7-1.903v-.897zM143.567 26h-1.441v-1.53h-.035c-.668 1.16-1.7 1.74-3.094 1.74-1.13 0-2.035-.402-2.711-1.208-.677-.805-1.015-1.902-1.015-3.291 0-1.488.375-2.68 1.125-3.577.75-.897 1.749-1.345 2.997-1.345 1.236 0 2.135.486 2.698 1.459h.035v-5.572h1.441V26zm-1.441-4.07v-1.326c0-.727-.24-1.342-.72-1.846-.481-.504-1.09-.756-1.829-.756-.879 0-1.57.322-2.074.967-.504.644-.756 1.535-.756 2.672 0 1.037.242 1.856.725 2.456.484.6 1.132.901 1.947.901.803 0 1.455-.29 1.956-.87.5-.58.751-1.313.751-2.197zm13.737-7.989a1.92 1.92 0 0 0-.958-.237c-1.008 0-1.511.636-1.511 1.907V17h2.109v1.23h-2.11V26h-1.432v-7.77h-1.538V17h1.538v-1.459c0-.943.272-1.689.817-2.237.545-.548 1.225-.822 2.04-.822.439 0 .787.053 1.045.159v1.3zm4.949 12.27c-1.33 0-2.393-.42-3.187-1.261-.793-.841-1.19-1.956-1.19-3.345 0-1.511.413-2.692 1.239-3.542.826-.85 1.942-1.274 3.348-1.274 1.342 0 2.39.413 3.143 1.24.752.825 1.129 1.971 1.129 3.436 0 1.435-.406 2.585-1.217 3.45-.812.864-1.9 1.296-3.265 1.296zm.105-8.209c-.926 0-1.658.315-2.197.945-.54.63-.809 1.498-.809 2.606 0 1.066.273 1.907.818 2.522.544.615 1.274.923 2.188.923.932 0 1.648-.302 2.149-.905.5-.604.751-1.462.751-2.575 0-1.125-.25-1.993-.751-2.602-.501-.61-1.217-.914-2.149-.914zm11.373.457c-.252-.193-.615-.29-1.09-.29-.615 0-1.13.29-1.542.87-.413.58-.62 1.371-.62 2.373V26h-1.441v-9h1.441v1.854h.035c.205-.632.519-1.126.94-1.48a2.144 2.144 0 0 1 1.416-.532c.375 0 .662.04.861.123v1.494zM86.922 33.195L82.316 50h-3.152l-3.2-11.754a8.035 8.035 0 0 1-.245-1.64h-.047a7.961 7.961 0 0 1-.281 1.617L72.18 50h-3.223l-4.7-16.805h3.06L70.362 45.5c.125.516.203 1.055.235 1.617h.058c.032-.398.14-.937.328-1.617l3.446-12.305h2.87l3.188 12.399c.11.422.192.922.246 1.5h.047c.024-.39.114-.906.27-1.547l2.988-12.352h2.883zm3.398 2.285c-.445 0-.826-.144-1.142-.433a1.427 1.427 0 0 1-.475-1.102c0-.445.158-.816.475-1.113a1.61 1.61 0 0 1 1.142-.445c.461 0 .852.148 1.172.445.32.297.48.668.48 1.113 0 .422-.16.784-.48 1.084-.32.301-.71.451-1.172.451zM91.668 50h-2.719V38h2.719v12zm14.238 0h-2.719v-6.762c0-2.242-.792-3.363-2.378-3.363-.829 0-1.512.31-2.051.932-.54.62-.809 1.404-.809 2.35V50h-2.73V38h2.73v1.992h.047c.899-1.515 2.195-2.273 3.89-2.273 1.305 0 2.301.424 2.989 1.271.688.848 1.031 2.072 1.031 3.674V50zm14.227 0h-2.719v-2.04h-.047c-.875 1.548-2.222 2.321-4.043 2.321-1.476 0-2.658-.537-3.545-1.611-.886-1.074-1.33-2.537-1.33-4.389 0-1.984.49-3.574 1.47-4.77.981-1.195 2.288-1.792 3.92-1.792 1.618 0 2.794.648 3.528 1.945h.047v-7.43h2.719V50zm-2.684-5.484v-1.57c0-.852-.277-1.575-.832-2.169-.555-.593-1.262-.89-2.12-.89-1.017 0-1.815.379-2.397 1.136-.582.758-.873 1.809-.873 3.153 0 1.219.279 2.181.837 2.888.56.707 1.311 1.061 2.256 1.061.93 0 1.684-.342 2.262-1.025.578-.684.867-1.545.867-2.584zm11.555 5.765c-1.852 0-3.33-.56-4.436-1.681-1.105-1.121-1.658-2.608-1.658-4.46 0-2.015.576-3.59 1.729-4.722 1.152-1.133 2.705-1.7 4.658-1.7 1.875 0 3.336.552 4.383 1.653 1.047 1.102 1.57 2.629 1.57 4.582 0 1.914-.564 3.447-1.693 4.6-1.13 1.152-2.647 1.728-4.553 1.728zm.129-10.394c-1.063 0-1.903.37-2.52 1.113-.617.742-.925 1.766-.925 3.07 0 1.258.312 2.248.937 2.971.625.723 1.46 1.084 2.508 1.084 1.07 0 1.892-.355 2.467-1.066.574-.711.86-1.723.86-3.036 0-1.32-.286-2.34-.86-3.058-.575-.719-1.397-1.078-2.467-1.078zM154.153 38l-3.54 12h-2.847l-2.18-8.133a5.15 5.15 0 0 1-.164-1.054h-.047c-.016.265-.086.609-.21 1.03L142.796 50h-2.79l-3.527-12h2.813l2.18 8.648c.07.258.117.602.14 1.032h.082a5.57 5.57 0 0 1 .188-1.055L144.309 38h2.554l2.157 8.684c.07.273.12.617.152 1.03h.082a5.47 5.47 0 0 1 .176-1.03L151.562 38h2.59zm1.265 11.625v-2.52c1.016.774 2.137 1.16 3.363 1.16 1.64 0 2.461-.484 2.461-1.453 0-.273-.07-.505-.21-.697a2.014 2.014 0 0 0-.57-.51 4.468 4.468 0 0 0-.843-.398c-.324-.117-.685-.25-1.084-.398a11.476 11.476 0 0 1-1.33-.621 4.018 4.018 0 0 1-.984-.745 2.809 2.809 0 0 1-.592-.943c-.133-.352-.2-.762-.2-1.23 0-.579.137-1.088.41-1.53.274-.441.641-.812 1.102-1.113.461-.3.985-.527 1.57-.68a7.189 7.189 0 0 1 1.817-.228c1.11 0 2.102.168 2.977.504v2.379c-.844-.579-1.813-.868-2.907-.868-.343 0-.654.036-.931.106-.278.07-.514.168-.71.293a1.441 1.441 0 0 0-.456.451c-.11.176-.164.37-.164.58 0 .258.054.477.164.656.11.18.271.338.486.475a4.2 4.2 0 0 0 .774.375c.3.113.646.236 1.037.37.515.21.978.425 1.388.644.41.218.76.466 1.05.744.288.277.51.597.667.96.156.364.234.796.234 1.296 0 .609-.14 1.14-.421 1.593a3.516 3.516 0 0 1-1.125 1.125 5.266 5.266 0 0 1-1.623.662 8.432 8.432 0 0 1-1.94.217c-1.312 0-2.45-.218-3.41-.656z" fill="#FFF"/></g></svg>