<svg width="82" height="72" xmlns="http://www.w3.org/2000/svg"><g fill="none" fill-rule="evenodd"><g transform="translate(1 1)"><path d="M0 12h80" stroke="#2A3052" stroke-width="2"/><path d="M80 56.655C80 58.503 78.45 60 76.539 60H3.461C1.549 60 0 58.503 0 56.655V3.345C0 1.497 1.55 0 3.461 0h73.078C78.451 0 80 1.497 80 3.345v53.31z" stroke="#2A3052" stroke-width="2" stroke-linejoin="round"/><circle fill="#2A3052" fill-rule="nonzero" cx="6" cy="6" r="2"/><circle fill="#2A3052" fill-rule="nonzero" cx="14" cy="6" r="2"/><circle fill="#2A3052" fill-rule="nonzero" cx="22" cy="6" r="2"/></g><g transform="matrix(-1 0 0 1 61 17)" stroke-width="2"><path stroke="#E98024" d="M23 39V21h8v15M11 38V9h8v30"/><circle stroke="#2A3052" cx="20" cy="20" r="20"/><path d="M52.838 52.838h0a3.969 3.969 0 0 0 0-5.613L41.613 36 36 41.613l11.225 11.225a3.969 3.969 0 0 0 5.613 0z" stroke="#2A3052" fill="#FFF"/><path d="M39.2 39.2l-5.657-5.657" stroke="#2A3052"/></g></g></svg>