<svg width="28" height="20" viewBox="0 0 28 20" xmlns="http://www.w3.org/2000/svg" xmlns:xlink="http://www.w3.org/1999/xlink"><title>currency/ic-usd</title><defs><rect id="a" width="28" height="20" rx="2"/><linearGradient x1="50%" y1="0%" x2="50%" y2="100%" id="e"><stop stop-color="#FFF" offset="0%"/><stop stop-color="#F0F0F0" offset="100%"/></linearGradient><path d="M2 2.667a.667.667 0 1 1 0-1.334.667.667 0 0 1 0 1.334zm2.667 0a.667.667 0 1 1 0-1.334.667.667 0 0 1 0 1.334zm2.666 0a.667.667 0 1 1 0-1.334.667.667 0 0 1 0 1.334zm2.667 0a.667.667 0 1 1 0-1.334.667.667 0 0 1 0 1.334zM3.333 4a.667.667 0 1 1 0-1.333.667.667 0 0 1 0 1.333zM6 4a.667.667 0 1 1 0-1.333A.667.667 0 0 1 6 4zm2.667 0a.667.667 0 1 1 0-1.333.667.667 0 0 1 0 1.333zM10 5.333A.667.667 0 1 1 10 4a.667.667 0 0 1 0 1.333zm-2.667 0a.667.667 0 1 1 0-1.333.667.667 0 0 1 0 1.333zm-2.666 0a.667.667 0 1 1 0-1.333.667.667 0 0 1 0 1.333zM2 5.333A.667.667 0 1 1 2 4a.667.667 0 0 1 0 1.333zm1.333 1.334a.667.667 0 1 1 0-1.334.667.667 0 0 1 0 1.334zm2.667 0a.667.667 0 1 1 0-1.334.667.667 0 0 1 0 1.334zm2.667 0a.667.667 0 1 1 0-1.334.667.667 0 0 1 0 1.334zM10 8a.667.667 0 1 1 0-1.333A.667.667 0 0 1 10 8zM7.333 8a.667.667 0 1 1 0-1.333.667.667 0 0 1 0 1.333zM4.667 8a.667.667 0 1 1 0-1.333.667.667 0 0 1 0 1.333zM2 8a.667.667 0 1 1 0-1.333A.667.667 0 0 1 2 8z" id="d"/><filter x="-5.4%" y="-7.5%" width="110.7%" height="130%" filterUnits="objectBoundingBox" id="c"><feOffset dy="1" in="SourceAlpha" result="shadowOffsetOuter1"/><feColorMatrix values="0 0 0 0 0 0 0 0 0 0 0 0 0 0 0 0 0 0 0.06 0" in="shadowOffsetOuter1"/></filter></defs><g fill="none" fill-rule="evenodd"><mask id="b" fill="#fff"><use xlink:href="#a"/></mask><use fill="#FFF" xlink:href="#a"/><path d="M0 0h28v1.333H0V0zm0 2.667h28V4H0V2.667zm0 2.666h28v1.334H0V5.333zM0 8h28v1.333H0V8zm0 2.667h28V12H0v-1.333zm0 2.666h28v1.334H0v-1.334zM0 16h28v1.333H0V16zm0 2.667h28V20H0v-1.333z" fill="#D02F44" mask="url(#b)"/><path fill="#46467F" mask="url(#b)" d="M0 0h12v9.333H0z"/><g mask="url(#b)"><use fill="#000" filter="url(#c)" xlink:href="#d"/><use fill="url(#e)" xlink:href="#d"/></g></g></svg>