<svg width="96" height="96" viewBox="0 0 96 96" xmlns="http://www.w3.org/2000/svg"><title>96</title><g fill="none"><path d="M80.502 50.268c.324-1.294.728-2.506 1.051-3.72.162-.565.324-1.212.485-1.778.081-.242.162-.323.405-.323h2.83c.242 0 .242.08.161.323l-3.638 9.702c-.647 1.698-1.86 2.426-3.639 2.426H58.834c-.323 0-.404-.081-.323-.404.161-.485.242-1.051.323-1.537.08-.323.162-.404.485-.404h17.787c.405 0 .728-.08 1.051-.242.486-.324.647-.89.405-1.456l-3.396-8.004c-.162-.485-.162-.485.323-.485h2.83c.243 0 .404.08.485.323.485 1.617.97 3.234 1.536 4.851 0 .324-.08.566.162.728z" fill="#547BB0"/><path d="M28.272 46.791c-.161.243-.485.243-.727.162-.809-.162-1.213.162-1.617.97-.809 1.78-1.698 3.477-2.588 5.175-.08.242-.242.242-.485.242-1.293-.161-2.587-.242-3.961-.323-1.537-.162-3.073-.243-4.609-.404-.08 0-.162 0-.242-.162.323 0 .566-.08.889-.08h4.932c.242 0 .404-.082.485-.324.485-.89.89-1.86 1.374-2.75.162-.323.081-.323-.242-.403-2.102-.243-4.204-.485-6.307-.809-1.455-.162-2.991-.323-4.446-.566-.162 0-.243-.08-.405-.162h12.128c.243-.08.243-.242.323-.404 0-.242-.161-.162-.323-.162l-3.88-.727c-.971-.162-2.022-.404-2.992-.566-.081 0-.162 0-.324-.162h6.549c.324 0 .566-.08.647-.404.162-.566.566-.809 1.132-.647h.162c.161 0 .404 0 .404-.242 0-.243-.243-.162-.404-.162-2.183-.243-4.366-.566-6.63-.809-1.455-.161-2.992-.323-4.447-.646h12.37c.162-.081.405-.162.405-.405 0-.242-.243-.08-.405-.161-2.91-.405-5.821-.728-8.732-1.051-.08 0-.08 0-.161-.081 5.093 0 10.187-.324 15.361.08-.323.647-.808 1.213-1.132 1.78-.161.242-.323.403-.646.323-1.051-.162-1.617.161-2.102 1.05-.081.082-.162.243-.081.324.08.081.242.081.323.081.404-.08.728-.08 1.132-.08-.243.808-.728 1.454-.97 2.182.242.162.242.243.242.323z" fill="#E8953A"/><path d="M57.217 44.528c.485-.081.97 0 1.455-.081.162 0 .162.162.162.242v.97c.162 0 .162-.08.243-.161.97-1.051 2.102-1.375 3.476-1.051 1.213.242 1.86 1.05 2.345 2.102.647 1.374.647 2.83.323 4.285-.647 2.668-3.719 3.72-5.902 2.021-.162-.161-.323-.242-.323.081-.243 1.213-.566 2.507-.809 3.72-.08.242-.161.323-.404.323h-3.396c-.242 0-.323-.081-.242-.324l.727-3.153c.243-.242.324-.566.485-.89.89-1.859 1.78-3.718 2.507-5.578.485-1.132.404-1.94-.647-2.506zm1.86 4.446c0 .486 0 .89.242 1.294.324.566.809.809 1.455.809.566 0 .97-.405 1.132-.97.243-.728.162-1.456 0-2.103-.161-.647-.646-1.05-1.293-1.05-.647 0-1.132.323-1.375 1.05-.161.162-.161.566-.161.97z" fill="#547BB0"/><path d="M28.353 46.63c.162.08.162-.081.243-.162.97-1.213 2.264-1.86 3.8-2.102a12.237 12.237 0 0 1 4.204 0c1.132.243 1.617.97 1.374 2.021-.08.404-.242.728-.404 1.132-.647 1.294-1.293 2.668-2.021 3.962-.243.485-.485.97-.485 1.536 0 .243-.081.323-.324.323h-2.506c-.323 0-.485-.08-.404-.404 0-.162.08-.323.08-.566-.404.243-.808.485-1.212.647-1.132.485-2.345.728-3.638.485-1.375-.242-1.78-1.213-1.132-2.425.889-1.78 2.425-2.426 4.204-2.75 1.294-.242 2.587-.404 3.8-.808.323-.08.647-.485.566-.808-.081-.405-.404-.405-.647-.405-.89-.08-1.698.162-2.264.89-.161.08-.323.08-.485.08l-2.668-.242c-.162 0-.243-.08-.243-.243.162-.08.243-.08.162-.161zm5.013 2.506c-.97.243-1.86.485-2.749.728-.243.08-.485.162-.647.323-.323.324-.647.647-.566 1.132.081.324.566.404 1.132.324 1.375-.324 2.264-1.132 2.83-2.507z" fill="#E8953A"/><path d="M72.336 52.37c-1.374 1.294-2.991 1.456-4.69 1.132-1.616-.323-2.425-1.779-1.859-3.315.243-.727.809-1.213 1.536-1.455.89-.323 1.86-.485 2.83-.647a10.77 10.77 0 0 0 1.536-.404c.162-.081.485-.081.485-.324 0-.323-.08-.566-.323-.808-.728-.485-2.102-.08-2.506.647-.081.161-.162.242-.324.242-.89-.08-1.86-.161-2.83-.242-.242 0-.242-.162-.161-.324.242-1.05.97-1.778 2.021-2.102 1.375-.404 2.749-.404 4.204-.323.243 0 .566.08.809.08 1.698.324 2.587 1.375 2.668 3.154v3.88c0 .567.08 1.133.323 1.699.081.161.081.242-.161.242h-2.75c-.161 0-.242-.08-.323-.242-.323-.324-.404-.566-.485-.89zm-.162-2.587v-.323c0-.162 0-.243-.161-.162-.728.323-1.617.404-2.345.728-.404.242-.566.565-.485.97.08.404.404.647.808.727.89.081 2.264-.404 2.183-1.94z" fill="#547BB0"/><path d="M57.217 44.528c1.051.566 1.132 1.374.647 2.506-.728 1.94-1.617 3.72-2.507 5.579-.161.323-.242.647-.485.89-2.183.16-4.285.242-6.468.08-.566-.08-1.213-.08-1.778-.243-.809-.323-1.132-1.131-.728-1.94.323-.566.485-1.132.97-1.617.728-.809 1.698-1.132 2.749-1.374 1.617-.405 3.234-.324 4.851-.405h.404c.728.081 1.051-.404 1.294-.97.162-.404.08-.728-.404-.89-.485-.161-.97-.161-1.456-.161-.727.08-1.536.162-2.263.323-.566.162-.89.485-1.052.97-.242.647-1.617.81-2.102.324a.246.246 0 0 1 0-.323c.485-1.537 1.617-2.426 3.234-2.668a23.72 23.72 0 0 1 3.315-.243c.566-.162 1.132.08 1.779.162zm-6.387 8.408h.727c.243 0 .405-.08.405-.323 0-.162 0-.243.08-.404.162-.809 0-1.698.728-2.264.081-.081.081-.162.081-.243.162-.485-.08-.89-.647-.89-.808 0-1.374.728-1.293 1.537 0 .162 0 .323-.081.404a39.192 39.192 0 0 1-.97 1.86c-.081.242-.081.323.161.323h.809zm-11.239.647c-.727 0-1.536-.08-2.344-.323-.89-.324-1.375-1.294-1.051-2.183.08-.162.161-.162.323-.243 1.051-.08 2.021-.162 3.072-.323.162 0 .243 0 .243.242 0 .647.243.809.89.89.727 0 1.374-.081 1.859-.647.323-.405.243-.728-.243-.809l-2.183-.485c-.323-.08-.646-.162-.97-.323-.727-.324-.97-.89-.808-1.698.242-1.213 1.132-2.021 2.102-2.587.89-.485 1.86-.728 2.83-.809.97-.08 1.94-.08 2.91.081 1.051.162 1.536.808 1.456 1.86 0 .242-.081.404-.405.404-.97.08-1.86.161-2.83.242-.242 0-.323 0-.323-.242 0-.324-.162-.485-.404-.566-.647-.162-1.213-.162-1.779.323-.162.162-.323.324-.242.566.08.243.242.324.485.324.89.161 1.778.242 2.587.485 1.294.404 1.779 1.293 1.132 2.506-.809 1.536-2.102 2.426-3.72 2.91-.727.324-1.616.405-2.587.405zM28.353 46.63c.081.08 0 .161-.08.161 0-.08 0-.161.08-.161z" fill="#E8953A"/></g></svg>