<svg width="96" height="96" xmlns="http://www.w3.org/2000/svg"><path d="M28.546 58.387V38h1.002v20.387h-1.002zM39.072 40.65v-.103h4.01v10.194c0 2.815-2.244 5.097-5.013 5.097-2.768 0-5.012-2.282-5.012-5.097h4.01c0 .563.449 1.02 1.002 1.02.554 0 1.003-.457 1.003-1.02V40.65zm14.479 5.37a4.973 4.973 0 0 1 1.017 1.764c.227.673.343 1.435.343 2.264 0 .198-.008.38-.022.537-.021.22-.04.316-.08.398l-.111.227h-6.935c.034.161.084.314.151.455a2.247 2.247 0 0 0 2.064 1.318c.607 0 1.069-.135 1.373-.4l.162-.143 2.94.833-.313.47a4.565 4.565 0 0 1-1.034 1.096c-.407.31-.877.557-1.397.733a5.386 5.386 0 0 1-1.73.266c-.715 0-1.405-.13-2.05-.385a5.013 5.013 0 0 1-1.72-1.13 5.531 5.531 0 0 1-1.181-1.803c-.294-.706-.443-1.517-.443-2.411 0-.838.142-1.611.422-2.297.279-.684.662-1.28 1.137-1.771a5.183 5.183 0 0 1 1.651-1.149 4.82 4.82 0 0 1 1.943-.41c.797 0 1.525.133 2.165.397.647.266 1.201.65 1.648 1.14zm-5.695 2.641h3.847a2.268 2.268 0 0 0-.084-.271c-.08-.21-.2-.4-.36-.562a1.835 1.835 0 0 0-.61-.4 2.331 2.331 0 0 0-.891-.153 1.97 1.97 0 0 0-.81.159 1.913 1.913 0 0 0-.606.42 2.17 2.17 0 0 0-.486.807zm24.843-2.559c.49.505.876 1.109 1.149 1.795a6.08 6.08 0 0 1 .41 2.253c0 .809-.138 1.57-.41 2.26-.272.694-.66 1.302-1.149 1.807a5.348 5.348 0 0 1-1.733 1.19 5.48 5.48 0 0 1-2.182.43 5.5 5.5 0 0 1-2.17-.429 5.205 5.205 0 0 1-1.736-1.193 5.509 5.509 0 0 1-1.137-1.804 6.15 6.15 0 0 1-.41-2.261c0-.81.138-1.569.41-2.253a5.535 5.535 0 0 1 1.137-1.793 5.205 5.205 0 0 1 1.736-1.193 5.5 5.5 0 0 1 2.17-.429c.786 0 1.52.145 2.182.43.66.285 1.244.685 1.733 1.19zm-1.783 5.269a3.5 3.5 0 0 0 .194-1.221c0-.464-.065-.87-.194-1.21a2.473 2.473 0 0 0-.514-.84 2.051 2.051 0 0 0-.73-.496 2.414 2.414 0 0 0-.888-.166c-.309 0-.607.056-.887.166-.27.107-.511.272-.716.492a2.685 2.685 0 0 0-.52.85c-.135.337-.202.742-.202 1.204 0 .462.068.871.202 1.215.134.344.309.633.52.858.207.222.45.392.722.505.278.115.574.174.881.174.307 0 .604-.059.882-.174.274-.114.522-.285.736-.508.214-.224.387-.51.514-.85zm14.03-4.177c.158.513.239 1.069.239 1.65v6.688h-3.128v-6.28c0-.522-.127-.967-.376-1.322-.223-.317-.625-.472-1.228-.472-.54 0-.932.171-1.195.523-.289.386-.429.848-.429 1.414v6.137h-3.127V44.789h3.067v.592c.213-.186.448-.341.702-.462a4.128 4.128 0 0 1 1.784-.416c.656 0 1.238.116 1.73.343.495.229.912.552 1.238.96.318.398.56.866.723 1.388zm-23.55 5.517c.202-.025.26-.038.273-.042l.5-.127v2.756l-.252.102a4.371 4.371 0 0 1-.488.149c-.264.07-.619.105-1.085.105-1.013 0-1.83-.3-2.425-.89-.6-.594-.903-1.426-.903-2.474v-4.587h-1.203V44.79h1.202V41.75h3.108v3.038h2.025v2.915h-2.025v4.2c0 .313.062.54.179.655.12.118.35.18.663.18.143 0 .288-.009.432-.027zm-50.365-8.027c-.085.024-.156-.069-.113-.148a7.518 7.518 0 0 1 4.655-3.727 7.39 7.39 0 0 1 5.863.861c.076.047.06.163-.025.187l-10.38 2.827zm12.726-.757a7.75 7.75 0 0 1 1.262 4.789.102.102 0 0 1-.075.091L11.39 52.501a.1.1 0 0 1-.11-.042 7.756 7.756 0 0 1-1.262-4.789.103.103 0 0 1 .074-.091l13.555-3.693a.1.1 0 0 1 .11.042zm.249 7.773c.085-.023.155.07.113.15a7.518 7.518 0 0 1-4.655 3.725 7.39 7.39 0 0 1-5.863-.86c-.076-.048-.06-.163.025-.187l10.38-2.828z" fill="#FF6400" fill-rule="nonzero"/></svg>