<svg width="96" height="96" viewBox="0 0 96 96" xmlns="http://www.w3.org/2000/svg"><title>96</title><g fill="none" fill-rule="evenodd"><path d="M36.777 53.25h5.525v.8h-6.478V42.86h.953v10.39zm8.153.8h-.922v-8.315h.922v8.314zm-1.084-10.72a.601.601 0 0 1 .63-.622.61.61 0 0 1 .465.18.61.61 0 0 1 .173.441c0 .175-.057.32-.173.438a.62.62 0 0 1-.465.177.608.608 0 0 1-.46-.177.61.61 0 0 1-.17-.438zm5.01.276v2.129h1.722v.753h-1.721v5.54c0 .461.083.804.25 1.03.166.225.444.338.833.338.154 0 .402-.026.745-.077l.039.753c-.24.087-.569.13-.984.13-.63 0-1.088-.182-1.375-.549-.287-.366-.43-.905-.43-1.617v-5.548h-1.53v-.753h1.53v-2.129h.922zm6.847 10.597a3.61 3.61 0 0 1-1.917-.523 3.561 3.561 0 0 1-1.333-1.456c-.318-.622-.477-1.32-.477-2.094v-.33c0-.8.155-1.52.465-2.16.31-.64.742-1.143 1.295-1.51a3.194 3.194 0 0 1 1.798-.55c1.01 0 1.81.345 2.402 1.034.591.69.887 1.63.887 2.825v.514h-5.932v.177c0 .943.27 1.728.81 2.355.541.628 1.221.942 2.04.942.493 0 .927-.09 1.303-.27.377-.179.719-.465 1.026-.86l.577.438c-.677.979-1.658 1.468-2.944 1.468zm-.169-7.838a2.3 2.3 0 0 0-1.748.76c-.474.508-.762 1.189-.864 2.045h4.987v-.1c-.026-.8-.254-1.45-.684-1.952-.43-.502-.994-.753-1.69-.753zm8.154 7.062c.64 0 1.176-.18 1.61-.542a1.91 1.91 0 0 0 .703-1.402h.883c-.025.507-.184.97-.476 1.387-.292.417-.68.744-1.164.98a3.509 3.509 0 0 1-1.556.353c-1.092 0-1.956-.38-2.594-1.137-.638-.759-.957-1.778-.957-3.059v-.276c0-.82.144-1.545.43-2.175.288-.63.699-1.117 1.234-1.46.535-.343 1.162-.515 1.879-.515.912 0 1.663.271 2.255.814.592.544.908 1.258.95 2.144H66c-.041-.65-.276-1.175-.704-1.575-.427-.4-.967-.6-1.617-.6-.83 0-1.474.3-1.933.9-.458.6-.688 1.44-.688 2.52v.27c0 1.06.23 1.887.688 2.481.459.595 1.105.892 1.94.892zm4.526-3.658c0-.8.155-1.519.465-2.16.31-.64.747-1.138 1.314-1.494.566-.356 1.207-.534 1.925-.534 1.106 0 2.003.388 2.69 1.164.686.776 1.029 1.805 1.029 3.085v.193c0 .804-.155 1.527-.465 2.17-.31.643-.747 1.139-1.31 1.487-.564.349-1.207.523-1.93.523-1.1 0-1.996-.388-2.685-1.164-.689-.776-1.033-1.805-1.033-3.086v-.184zm.922.254c0 .993.257 1.81.772 2.447.515.638 1.19.957 2.025.957.83 0 1.502-.32 2.017-.957.515-.638.772-1.48.772-2.524v-.177a4.23 4.23 0 0 0-.353-1.744c-.236-.528-.566-.937-.991-1.226a2.533 2.533 0 0 0-1.46-.434c-.82 0-1.489.321-2.006.964-.518.643-.776 1.485-.776 2.524v.17zm9.429 4.026h-.923v-8.314h.923v8.314zM77.48 43.33a.601.601 0 0 1 .63-.622c.195 0 .35.06.465.18.115.12.173.268.173.442 0 .175-.058.32-.173.438a.62.62 0 0 1-.465.177.608.608 0 0 1-.46-.177.61.61 0 0 1-.17-.438zm4.457 2.406l.03 1.421c.313-.512.703-.903 1.169-1.172a3.035 3.035 0 0 1 1.544-.403c.892 0 1.555.251 1.99.753.436.502.656 1.255.661 2.26v5.455h-.914v-5.463c-.005-.743-.163-1.297-.473-1.66-.31-.364-.805-.546-1.486-.546-.57 0-1.072.178-1.51.534-.439.356-.763.837-.973 1.441v5.694h-.914v-8.314h.876z" fill-opacity=".603" fill="#000"/><path d="M19.492 38C13.697 38 9 42.697 9 48.492c0 5.795 4.697 10.492 10.492 10.492 5.794 0 10.492-4.697 10.492-10.492C29.984 42.697 25.286 38 19.492 38zm4.072 15.608h-8.197l.689-3.29-1.34.92.325-1.8 1.402-.965 1.374-6.561h2.56l-.947 4.505 3.332-2.293-.39 1.865-3.332 2.284-.659 3.138h5.639l-.456 2.197z" fill="#C2C2C2" fill-rule="nonzero"/></g></svg>