<svg width="96" height="96" viewBox="0 0 96 96" xmlns="http://www.w3.org/2000/svg"><title>96</title><g fill="none" fill-rule="evenodd"><g font-size="20" font-family="Times-Roman, Times" fill="#E5210B"><text transform="translate(10 27)"><tspan x="0" y="19">Perfect</tspan></text><text transform="translate(10 27)"><tspan x="0" y="35">Money</tspan></text></g><g transform="translate(70 39)" fill-rule="nonzero"><circle fill="#E33E23" cx="8" cy="8" r="8"/><path d="M2 8.108s3.555.773 4.054-.891c.49-1.632-1.134-1.97-1.134-1.97h-.714v2.737h-.764V5.336h-.677v-.28s2.565-.01 2.848.024c1.424.167 2.117 2.738-.164 3.25C3.675 8.728 2 8.108 2 8.108zm1.437.59v1.642s-.004.35-.317.35h-.39v.274h2.207v-.302h-.488s-.252-.029-.252-.287V8.682h-.755l-.005.015zm2.82 2.28H8.48v-.344h-.638s-.208-.118-.208-.357V6.143l2.477 4.829 2.423-4.737-.054 4.087s.061.337-.282.337c-.342 0-.415.01-.415.01l-.004.264H14v-.313h-.519s-.216.022-.216-.218v-4.96s.003-.108.195-.108h.45V5h-1.38l-2.27 4.74-2.256-4.707H6.772v.284h.391s.136-.015.136.193c0 .208-.053 4.789-.053 4.789s.018.355-.37.355h-.618V11v-.023z" fill="#FFF"/></g><path d="M10.252 66.978l.112.042c.014.075.05.14.108.196.059.056.13.104.214.143a1.337 1.337 0 0 0 .553.122c.28.001.484-.04.612-.122.129-.081.193-.234.193-.458v-2.247a.176.176 0 0 0-.084-.154.292.292 0 0 0-.161-.056v-.126h1.33v.126a.358.358 0 0 0-.203.056.176.176 0 0 0-.084.154v2.31c0 .182-.038.34-.115.476a.953.953 0 0 1-.326.336c-.14.089-.306.152-.497.189a3.336 3.336 0 0 1-1.036.028 3.06 3.06 0 0 1-.325-.067 5.327 5.327 0 0 1-.252-.073.608.608 0 0 0-.179-.035c-.051 0-.093.028-.126.084l-.105-.07.371-.854zm4.767-1.932c-.103 0-.154.035-.154.105v1.603c0 .224.082.404.245.539.163.135.413.203.749.203s.586-.068.749-.203a.665.665 0 0 0 .245-.539v-1.603c0-.07-.058-.105-.175-.105v-.126h.973v.126c-.103 0-.154.035-.154.105v1.771a.933.933 0 0 1-.098.416 1.01 1.01 0 0 1-.298.354 1.487 1.487 0 0 1-.51.242 2.72 2.72 0 0 1-.732.087c-.28 0-.524-.03-.731-.087a1.487 1.487 0 0 1-.511-.242 1.01 1.01 0 0 1-.298-.354.933.933 0 0 1-.098-.416v-1.771c0-.037-.014-.064-.042-.08a.357.357 0 0 0-.161-.025v-.126h1.001v.126zm3.927 1.883a.54.54 0 0 1-.003.06.603.603 0 0 0-.004.066c0 .07.044.134.133.192a1.3 1.3 0 0 0 .319.147c.123.04.247.072.37.095.124.023.221.035.291.035.065 0 .146-.005.242-.014a1.4 1.4 0 0 0 .283-.06.722.722 0 0 0 .238-.126.262.262 0 0 0 .098-.213c0-.103-.057-.177-.171-.224a1.89 1.89 0 0 0-.431-.109c-.173-.025-.36-.05-.56-.077a2.894 2.894 0 0 1-.56-.126 1.137 1.137 0 0 1-.43-.252c-.115-.11-.172-.264-.172-.465 0-.299.124-.537.371-.714.247-.177.595-.266 1.043-.266a2.615 2.615 0 0 1 1.221.283.38.38 0 0 0 .151.053.161.161 0 0 0 .084-.018.861.861 0 0 1 .07-.038l.077.077-.35.658-.126-.042-.014-.084c-.005-.028-.026-.056-.063-.084-.093-.08-.238-.147-.434-.203a2.393 2.393 0 0 0-.924-.067.872.872 0 0 0-.224.06.406.406 0 0 0-.154.108.247.247 0 0 0-.056.165c0 .103.057.176.171.22.115.045.258.08.431.105.173.026.36.052.56.077.2.026.387.07.56.13.173.06.316.15.43.266.115.117.172.278.172.483 0 .205-.05.373-.15.504-.1.13-.226.233-.375.308-.15.075-.314.124-.493.147a3.95 3.95 0 0 1-.508.035c-.159 0-.316-.015-.472-.046a4.088 4.088 0 0 1-.753-.217.732.732 0 0 0-.161-.052.106.106 0 0 0-.084.042l-.098-.07.322-.784.133.035zm4.424.945a.121.121 0 0 0 .07-.025c.023-.016.035-.043.035-.08v-2.331h-.91a.208.208 0 0 0-.105.028c-.033.019-.049.049-.049.091h-.126v-.805h.126c0 .065.016.11.049.133a.177.177 0 0 0 .105.035h2.492a.177.177 0 0 0 .105-.035c.033-.023.049-.068.049-.133h.126v.805h-.126c0-.042-.016-.072-.049-.091a.208.208 0 0 0-.105-.028h-.91v2.331c0 .07.042.105.126.105V68h-.903v-.126zm6.818-1.673a.71.71 0 0 0 .34-.074c.09-.049.136-.148.136-.297 0-.145-.045-.246-.136-.305a.617.617 0 0 0-.34-.087h-1.176v.763h1.176zm-1.848-1.05c0-.07-.058-.105-.175-.105v-.126h2.037c.378 0 .661.068.85.203.19.135.284.371.284.707 0 .336-.094.568-.283.696-.19.129-.473.193-.851.193h-1.19v1.05c0 .07.049.105.147.105V68h-.994v-.126c.117 0 .175-.035.175-.105v-2.618zm6.524.42c0-.089-.072-.133-.217-.133h-1.708v.7h1.078c.08 0 .138-.006.175-.018.037-.011.056-.043.056-.094h.126v.742h-.14c.014-.051-.005-.083-.056-.094a1.035 1.035 0 0 0-.217-.018h-1.022v.826h1.792a.241.241 0 0 0 .14-.038.118.118 0 0 0 .056-.102h.126v.735h-.126c0-.042-.019-.065-.056-.07a1.16 1.16 0 0 0-.14-.007h-2.569v-.126a.121.121 0 0 0 .07-.024c.023-.017.035-.044.035-.081v-2.618c0-.037-.012-.064-.035-.08a.121.121 0 0 0-.07-.025v-.126h2.485c.145 0 .217-.042.217-.126h.126v.777h-.126zm3.08.679c.457 0 .686-.145.686-.434 0-.117-.055-.209-.165-.277-.11-.067-.283-.101-.521-.101h-1.106v.812h1.106zm.014-1.33c.415 0 .74.069.973.206.233.138.35.373.35.704a.772.772 0 0 1-.256.591.995.995 0 0 1-.255.175 1.45 1.45 0 0 1-.287.102l.686 1.001c.037.051.078.09.122.115a.6.6 0 0 0 .144.06V68h-1.071v-.126c.06 0 .091-.021.091-.063 0-.047-.035-.119-.105-.217l-.553-.826h-.973v1.001c0 .037.015.064.045.08.03.017.06.025.088.025V68h-.931v-.126c.084 0 .126-.035.126-.105v-2.618c0-.07-.042-.105-.126-.105v-.126h1.932zm5.257.616c0-.023-.016-.045-.049-.067a.341.341 0 0 0-.168-.031h-1.897v.742h1.232c.08 0 .128-.008.147-.025.019-.016.03-.043.035-.08h.126v.735h-.126a.14.14 0 0 0-.035-.084c-.019-.019-.068-.028-.147-.028h-1.232v1.071c0 .037.016.064.049.08a.24.24 0 0 0 .112.025V68h-.966v-.126c.089 0 .133-.035.133-.105v-2.618c0-.07-.049-.105-.147-.105v-.126h2.716c.08 0 .135-.012.168-.035a.107.107 0 0 0 .049-.091h.126v.742h-.126zm3.71.035c0-.089-.072-.133-.217-.133H45v.7h1.078c.08 0 .138-.006.175-.018.037-.011.056-.043.056-.094h.126v.742h-.14c.014-.051-.005-.083-.056-.094a1.035 1.035 0 0 0-.217-.018H45v.826h1.792a.241.241 0 0 0 .14-.038.118.118 0 0 0 .056-.102h.126v.735h-.126c0-.042-.019-.065-.056-.07a1.16 1.16 0 0 0-.14-.007h-2.569v-.126a.121.121 0 0 0 .07-.024c.023-.017.035-.044.035-.081v-2.618c0-.037-.012-.064-.035-.08a.121.121 0 0 0-.07-.025v-.126h2.485c.145 0 .217-.042.217-.126h.126v.777h-.126zm3.619.231a.115.115 0 0 0-.003-.028.147.147 0 0 1-.004-.035c0-.023-.023-.055-.07-.095a.804.804 0 0 0-.2-.115 1.793 1.793 0 0 0-.69-.133c-.167 0-.32.022-.457.066a1.034 1.034 0 0 0-.361.2.892.892 0 0 0-.238.329c-.056.13-.084.28-.084.448 0 .168.031.318.095.451a1.09 1.09 0 0 0 .997.634c.126 0 .254-.016.385-.049.13-.033.25-.071.357-.116a1.17 1.17 0 0 0 .262-.143c.068-.051.102-.098.102-.14v-.056a.294.294 0 0 0-.007-.07l.077-.07.518.742-.07.035a.372.372 0 0 0-.119-.035.486.486 0 0 0-.182.063c-.084.042-.19.09-.319.143a2.62 2.62 0 0 1-1.018.193 2.27 2.27 0 0 1-.637-.091 1.564 1.564 0 0 1-.56-.29 1.48 1.48 0 0 1-.553-1.186c0-.262.051-.491.154-.687.103-.196.238-.36.406-.494.168-.133.36-.232.578-.297.217-.065.44-.098.668-.098.177 0 .34.016.486.049.148.033.277.07.389.112.112.042.205.08.28.112a.476.476 0 0 0 .161.049.088.088 0 0 0 .06-.021.257.257 0 0 1 .052-.035l.084.049-.462.665-.077-.056zm2.198 2.072a.121.121 0 0 0 .07-.025c.023-.016.035-.043.035-.08v-2.331h-.91a.208.208 0 0 0-.105.028c-.033.019-.049.049-.049.091h-.126v-.805h.126c0 .065.016.11.049.133a.177.177 0 0 0 .105.035h2.492a.177.177 0 0 0 .105-.035c.033-.023.049-.068.049-.133h.126v.805h-.126c0-.042-.016-.072-.049-.091a.208.208 0 0 0-.105-.028h-.91v2.331c0 .07.042.105.126.105V68h-.903v-.126z" fill="#000"/></g></svg>