<svg width="96" height="96" viewBox="0 0 96 96" xmlns="http://www.w3.org/2000/svg"><title>Qiwi</title><g fill-rule="nonzero" fill="none"><path d="M23.342 33.031a14.668 14.668 0 0 0-8.538 3.586c-.846.735-1.79 1.774-2.22 2.431a3.148 3.148 0 0 1-.187.256 1.218 1.218 0 0 0-.141.214c-.021.042-.105.183-.188.313-.726 1.117-1.379 2.672-1.729 4.097-.282 1.18-.339 1.701-.339 3.157 0 1.154.016 1.425.125 2.036.523 3.042 2.021 5.646 4.235 7.363 1.802 1.404 4.167 2.406 6.7 2.84 1.165.197 1.922.25 3.065.218 1.196-.036 1.734-.115 2.977-.428 1.123-.287 1.55-.339 2.7-.339 2.161 0 4 .48 5.785 1.514 1.442.835 2.852 2.155 3.431 3.23.126.224.22.162.183-.12-.042-.292-.496-1.18-.882-1.712-.747-1.033-2.272-2.301-3.54-2.959-1.265-.647-2.126-.871-4.962-1.284-1.149-.167-2.146-.563-3.237-1.278-.58-.376-1.081-.882-1.515-1.53l-.313-.459v.595c0 .475.026.69.125 1.023.068.235.105.433.09.444-.053.031-1.024-.063-1.536-.151-1.598-.272-3.327-.96-4.7-1.874-.7-.464-.71-.47-1.285-.981-.626-.553-1.451-1.503-1.817-2.103-1.29-2.103-1.958-4.718-1.796-6.993.146-2.036.684-3.617 1.728-5.104.303-.433 1.285-1.477 1.62-1.728 1.806-1.346 3.806-1.82 6.192-1.466 1.557.23 3.27.955 4.716 1.994 1.765 1.262 3.086 2.833 4.078 4.842.543 1.096.872 2.12 1.107 3.419.13.736.162 2.416.052 3.157-.062.423-.303 1.487-.35 1.53-.01.01-.156-.064-.323-.168-.695-.428-1.54-.642-2.282-.58-.559.048-.737.126-.303.126.632.01 1.4.282 2.125.762.402.266 1.238 1.101 1.337 1.336.031.083.078.151.1.151.072 0 .532 1.018.62 1.368.048.193.1.354.116.354.02 0 .271-.35.558-.777a14.06 14.06 0 0 0 2.314-6.163c.094-.72.078-2.406-.021-3.132-.162-1.153-.33-1.805-.726-2.865-.637-1.7-1.608-3.188-2.945-4.503-1.259-1.232-2.434-1.989-4.33-2.782-1.53-.642-4.046-1.018-5.874-.877z" fill="#F78F20"/><path d="M45.274 38.579c-2.872.297-4.935 2.228-5.634 5.27-.277 1.201-.324 2.892-.115 4.097.485 2.782 2.005 4.692 4.35 5.475.209.073.548.162.746.198l.366.073.24.454c.904 1.691 2.616 2.949 5.034 3.695.914.282 2.167.49 2.496.412.35-.078.548-.365.486-.694-.052-.282-.22-.386-.898-.58-2.126-.604-3.489-1.565-4.147-2.922-.114-.234-.208-.464-.208-.506 0-.042.135-.13.302-.198.162-.068.544-.271.846-.444.935-.542 1.943-1.628 2.455-2.64.893-1.764 1.17-4.118.73-6.231-.678-3.283-2.944-5.34-6.03-5.475a9.186 9.186 0 0 0-1.019.016zm1.332 1.8c2.02.517 3.117 2.824 2.981 6.289-.088 2.29-.642 3.783-1.718 4.634-.626.496-1.206.71-1.942.71-1.368 0-2.538-.976-3.128-2.62-.37-1.028-.554-2.698-.454-4.139.125-1.816.538-3.037 1.295-3.856.82-.882 1.953-1.273 2.966-1.018zM56.376 38.975c-.073.073-.084.794-.084 7.166 0 6.8.006 7.092.094 7.17.084.078.256.089 1.327.089 1.123 0 1.232-.01 1.31-.094.084-.089.09-.663.09-7.176 0-6.361-.011-7.082-.084-7.155-.068-.073-.261-.083-1.327-.083-1.065 0-1.258.01-1.326.083zM62.621 38.955c-.146.146-.12.27.564 2.65.173.59.465 1.624.653 2.297s.366 1.284.392 1.357c.026.073.167.563.313 1.096.146.532.334 1.19.418 1.46l.835 2.934c.444 1.56.731 2.479.794 2.547.089.093.162.104.789.104.38 0 .715-.021.746-.042.094-.057.204-.313.355-.82.079-.26.24-.761.356-1.121.245-.783.417-1.32.762-2.427l.58-1.826.59-1.89c.151-.495.292-.902.308-.902.031 0 .47 1.299 2.297 6.784.382 1.132.726 2.103.768 2.15.068.083.178.094.794.094.84 0 .82.01.987-.574.303-1.086.757-2.688.997-3.549.146-.532.397-1.425.559-1.983.156-.558.386-1.393.517-1.853.125-.459.313-1.116.412-1.46.1-.345.282-1.003.413-1.462.93-3.32.945-3.377.867-3.523-.053-.099-.11-.104-1.024-.104-.538 0-1.013.02-1.065.052-.12.063-.125.084-.6 1.957-.716 2.813-1.745 6.878-1.844 7.265-.052.208-.11.39-.125.407-.01.015-.183-.486-.376-1.107-.199-.626-.434-1.383-.528-1.685l-.36-1.149a435.013 435.013 0 0 0-.81-2.609c-.025-.073-.12-.365-.208-.652-.45-1.488-.7-2.255-.768-2.364-.068-.105-.115-.115-.59-.115-.423 0-.527.016-.59.089-.047.052-.25.647-.46 1.32-.355 1.169-.449 1.477-.934 3.053-.115.37-.33 1.075-.475 1.565-.152.486-.314 1.018-.36 1.175a77.67 77.67 0 0 0-.429 1.393c-.183.61-.35 1.09-.366 1.07-.036-.042-.224-.767-1.456-5.673-.523-2.066-.982-3.81-1.024-3.877-.073-.115-.084-.115-1.342-.115-.92 0-1.285.016-1.332.063zM83.206 39.075c-.062.15-.073 1.169-.073 7.066 0 4.733.016 6.93.058 7.034a.44.44 0 0 0 .114.183c.037.021.606.042 1.27.042.955 0 1.221-.016 1.305-.073.1-.073.1-.214.115-7.16.01-6.55.005-7.092-.073-7.181-.084-.089-.194-.094-1.363-.094h-1.274l-.079.183z" fill="#0769B3"/><path d="M32.924 53.666c-.057.167.016.454.21.856.198.407.349.543.48.433.12-.1.062-.631-.105-.965-.204-.397-.506-.57-.585-.324zM30.151 54.684c-.151.156-.177.224-.177.433 0 .318.078.548.256.736.292.313.679.396.987.208.203-.125.287-.307.282-.636a.848.848 0 0 0-.308-.673c-.214-.204-.345-.256-.622-.256-.214 0-.266.026-.418.188z" fill="#F78F20"/><path d="M66.815 57.142a.624.624 0 0 0-.272.078c-.052.042-.068.58-.068 2.421v2.37l.146.057c.079.031.418.068.752.084 1.588.078 2.444-.387 2.444-1.326 0-.36-.062-.6-.214-.82-.136-.198-.444-.427-.637-.474-.214-.058-.209-.105.016-.256.616-.407.694-1.289.156-1.774-.302-.272-.637-.36-1.436-.37a8.614 8.614 0 0 0-.887.01zm1.185.49c.48.105.72.37.72.804 0 .522-.48.856-1.237.861h-.277v-1.665l.225-.02c.12-.011.235-.022.256-.027.02-.005.162.016.313.047zm.402 2.218c.402.157.684.642.611 1.039a.948.948 0 0 1-.475.626c-.167.083-.313.104-.757.104h-.549l-.015-.923c-.01-.846-.006-.924.078-.95.172-.047.888.015 1.107.104zM56.277 57.189c-.052.052-.042 4.78.01 4.863.026.047.141.063.376.053l.334-.016.026-1.19.027-1.195.59.83.856 1.2.266.381h.413c.313 0 .418-.016.439-.078.036-.084.036-.078-1.07-1.581a27.182 27.182 0 0 1-.769-1.075c-.015-.037.303-.475.705-.982.768-.97.867-1.111.815-1.19-.016-.03-.167-.052-.329-.052l-.298.006-.809 1.017-.81 1.023-.026-1.012-.026-1.008-.339-.015c-.188-.01-.36 0-.381.02zM60.81 57.22c-.016.036-.021 1.148-.016 2.468l.015 2.401.34.016.344.015 1.275-1.774 1.279-1.774.026 1.758c.016.966.037 1.764.042 1.77.005.01.14.015.298.015h.287v-4.958h-.261c-.298 0-.136-.188-1.546 1.775-.444.615-.956 1.32-1.133 1.565l-.324.444-.016-1.894-.01-1.89h-.287c-.183 0-.298.026-.314.063zM71.28 59.636v2.48h.26c.314 0 .147.192 1.844-2.167l1.16-1.617.025 1.878.026 1.879h.575l.015-2.468.01-2.464h-.709l-.533.741c-.292.413-.778 1.086-1.08 1.503-.304.418-.638.882-.748 1.039l-.193.282-.026-1.77-.026-1.769-.298-.015-.303-.016v2.484z" fill="#0769B3"/></g></svg>