<svg width="96" height="96" viewBox="0 0 96 96" xmlns="http://www.w3.org/2000/svg"><title>96</title><g fill="none" fill-rule="evenodd"><path d="M70.436 31.554l6.327-1.134v24.324h-6.327v-23.19zM86 54.742h-6.331V31.554L86 30.42v24.322zm-30.573 0H49.05V44.73c0-5.225 2.97-7.852 8.815-8.042 0 0 1.053-.04 1.677.092v5.2c-3.705.128-4.116 1.469-4.116 4.595v8.167zm-18.33 0h-6.53v-23.03l6.53-1.292v12.704c2.45-2.97 3.463-5.838 3.604-6.193h7.465c-.213.682-1.545 4.792-4.583 8.65 0 0 3.385 5.942 4.16 9.163h-7.82s-.936-4.28-2.827-7.118v7.116zm24.38-22.618A3.118 3.118 0 0 1 64.59 29a3.12 3.12 0 0 1 3.119 3.124 3.118 3.118 0 0 1-3.119 3.122 3.119 3.119 0 0 1-3.114-3.122zm6.28 22.618h-6.325V36.95h6.325v17.79zm-38.78-7.58c0 3.902-3.123 7.838-10.096 7.838-3.232 0-5.988-.316-8.435-.963v-5.68c1.632.668 4.325 1.379 7.098 1.379 2.528 0 4.035-.841 4.035-2.266 0-1.725-1.84-1.83-2.532-1.873C10.878 45.04 10 40.201 10 38.147c0-3.565 2.528-7.727 9.659-7.727 4.133 0 6.365.647 8.286 1.32l.1.03v5.516l-.07-.02a33.774 33.774 0 0 0-1.682-.649c-1.625-.489-3.901-1.008-5.658-1.008-1 0-3.664 0-3.664 2.014 0 1.67 1.848 1.79 2.647 1.843 5.865.395 9.359 3.272 9.359 7.697z" fill="#852265" fill-rule="nonzero"/><path d="M16.572 61.502V65h-1.59v-2.465c0-.24-.006-.445-.018-.613a1.094 1.094 0 0 0-.097-.411.483.483 0 0 0-.24-.231 1.122 1.122 0 0 0-.45-.072 1.13 1.13 0 0 0-.452.094c-.147.063-.279.13-.396.2V65h-1.582v-4.935h1.582v.545c.273-.214.533-.381.782-.501.25-.12.525-.18.826-.18.326 0 .613.072.862.217.249.145.444.358.584.64.317-.267.624-.476.923-.629.299-.152.592-.228.88-.228.532 0 .937.16 1.214.479.277.32.415.779.415 1.38V65h-1.59v-2.465a10.3 10.3 0 0 0-.016-.616 1.064 1.064 0 0 0-.094-.408.462.462 0 0 0-.238-.231 1.153 1.153 0 0 0-.457-.072c-.131 0-.26.022-.386.068a2.89 2.89 0 0 0-.462.226zm9.743 1.033c0 .811-.237 1.45-.71 1.918-.473.467-1.137.7-1.993.7-.855 0-1.52-.233-1.993-.7-.473-.467-.71-1.107-.71-1.918 0-.818.239-1.46.715-1.925.476-.466 1.139-.699 1.988-.699.862 0 1.527.235 1.998.703.47.469.705 1.11.705 1.92zm-1.947 1.2a1.27 1.27 0 0 0 .23-.455c.052-.178.078-.423.078-.737 0-.29-.027-.533-.08-.729a1.277 1.277 0 0 0-.219-.47.771.771 0 0 0-.338-.255 1.196 1.196 0 0 0-.427-.075c-.152 0-.288.02-.406.062a.821.821 0 0 0-.34.246 1.259 1.259 0 0 0-.231.47c-.058.2-.086.45-.086.751 0 .27.025.504.075.701.05.198.123.357.22.477a.836.836 0 0 0 .335.25c.13.053.28.08.446.08.144 0 .281-.024.411-.073a.753.753 0 0 0 .332-.244zM32.406 65h-1.591v-2.448c0-.199-.01-.397-.03-.595-.021-.198-.056-.344-.106-.437a.526.526 0 0 0-.257-.238 1.2 1.2 0 0 0-.473-.074c-.143 0-.29.023-.437.07a2.349 2.349 0 0 0-.481.224V65h-1.582v-4.935h1.582v.545c.281-.22.551-.388.81-.506.26-.117.548-.175.864-.175.533 0 .95.155 1.25.466.3.31.45.774.45 1.393V65zm6.315-2.175H35.1c.023.386.17.682.441.887.271.205.67.308 1.198.308.334 0 .657-.06.971-.18.313-.12.561-.25.743-.387h.175v1.27a5.876 5.876 0 0 1-1.01.312 5.274 5.274 0 0 1-1.05.097c-.99 0-1.75-.223-2.277-.668-.527-.445-.791-1.08-.791-1.903 0-.814.25-1.46.75-1.936.499-.476 1.184-.714 2.054-.714.802 0 1.406.203 1.81.609.405.406.607.99.607 1.751v.554zm-1.574-.928c-.008-.33-.09-.58-.246-.747-.155-.167-.397-.25-.725-.25-.304 0-.555.079-.751.237-.196.158-.306.412-.33.76h2.052zm4.918 1.358l1.125-3.19h1.626l-2.742 6.746H40.36l.782-1.846-1.92-4.9h1.66l1.183 3.19zm8.78-.79c0 .776-.214 1.409-.644 1.898a2.05 2.05 0 0 1-1.606.734 2.71 2.71 0 0 1-.725-.088 2.468 2.468 0 0 1-.593-.255L47.21 65h-1.516v-6.838h1.582v2.417c.243-.193.491-.35.745-.47.253-.12.545-.18.876-.18.624 0 1.105.225 1.442.674.337.45.505 1.07.505 1.861zm-1.63.03c0-.44-.075-.778-.224-1.015-.15-.237-.416-.356-.8-.356-.15 0-.303.023-.462.068-.158.046-.309.11-.452.196v2.478c.114.041.223.07.325.084.103.014.226.022.37.022.418 0 .73-.123.935-.37.205-.246.308-.615.308-1.107zm7.818.04c0 .811-.237 1.45-.71 1.918-.473.467-1.137.7-1.993.7-.855 0-1.52-.233-1.993-.7-.473-.467-.71-1.107-.71-1.918 0-.818.238-1.46.715-1.925.476-.466 1.138-.699 1.988-.699.861 0 1.527.235 1.997.703.47.469.706 1.11.706 1.92zm-1.947 1.2a1.27 1.27 0 0 0 .23-.455c.052-.178.078-.423.078-.737 0-.29-.027-.533-.08-.729a1.277 1.277 0 0 0-.22-.47.771.771 0 0 0-.338-.255 1.196 1.196 0 0 0-.426-.075c-.152 0-.288.02-.406.062a.821.821 0 0 0-.341.246 1.259 1.259 0 0 0-.23.47c-.058.2-.086.45-.086.751 0 .27.025.504.074.701.05.198.123.357.22.477a.836.836 0 0 0 .336.25c.13.053.28.08.446.08.144 0 .28-.024.411-.073a.753.753 0 0 0 .332-.244zm8.125-1.2c0 .811-.236 1.45-.71 1.918-.472.467-1.137.7-1.992.7-.856 0-1.52-.233-1.993-.7-.473-.467-.71-1.107-.71-1.918 0-.818.238-1.46.714-1.925.476-.466 1.14-.699 1.989-.699.861 0 1.527.235 1.997.703.47.469.705 1.11.705 1.92zm-1.946 1.2a1.27 1.27 0 0 0 .23-.455c.052-.178.077-.423.077-.737 0-.29-.026-.533-.079-.729a1.277 1.277 0 0 0-.22-.47.771.771 0 0 0-.338-.255 1.196 1.196 0 0 0-.426-.075c-.153 0-.288.02-.407.062a.821.821 0 0 0-.34.246 1.259 1.259 0 0 0-.231.47c-.057.2-.086.45-.086.751 0 .27.025.504.075.701.05.198.123.357.22.477a.836.836 0 0 0 .336.25c.13.053.279.08.446.08.144 0 .28-.024.41-.073a.753.753 0 0 0 .333-.244zM69.583 65h-1.84l-1.385-2.149-.43.523V65h-1.583v-6.838h1.582v4.083l1.705-2.18h1.824l-1.775 2.127L69.583 65zm5.66-2.175h-3.62c.023.386.17.682.441.887.271.205.67.308 1.198.308.334 0 .657-.06.97-.18.314-.12.562-.25.744-.387h.175v1.27a5.876 5.876 0 0 1-1.01.312 5.274 5.274 0 0 1-1.05.097c-.99 0-1.75-.223-2.277-.668-.527-.445-.791-1.08-.791-1.903 0-.814.25-1.46.75-1.936.499-.476 1.184-.714 2.054-.714.802 0 1.406.203 1.81.609.405.406.607.99.607 1.751v.554zm-1.573-.928c-.008-.33-.09-.58-.246-.747-.155-.167-.397-.25-.725-.25-.304 0-.555.079-.751.237-.197.158-.306.412-.33.76h2.052zm6.267-.325h-.14a1.422 1.422 0 0 0-.326-.052 4.929 4.929 0 0 0-.373-.018 3.61 3.61 0 0 0-.598.044 3.39 3.39 0 0 0-.558.15V65H76.36v-4.935h1.582v.725c.349-.299.652-.497.91-.595a2.015 2.015 0 0 1 .9-.143c.07.003.132.007.185.013v1.507zm5.186 1.864c0 .51-.229.92-.686 1.232-.457.312-1.083.468-1.876.468-.44 0-.838-.04-1.196-.123a4.556 4.556 0 0 1-.861-.272V63.44h.145c.079.056.17.116.275.182a3.644 3.644 0 0 0 1 .387c.207.048.43.073.667.073.31 0 .54-.035.69-.104.15-.069.224-.17.224-.305 0-.12-.044-.207-.131-.262-.088-.054-.255-.106-.501-.156a7.369 7.369 0 0 0-.477-.085 5.2 5.2 0 0 1-.547-.112c-.449-.118-.781-.3-.998-.548-.217-.247-.325-.555-.325-.925 0-.474.225-.869.674-1.184.45-.315 1.065-.472 1.844-.472.37 0 .723.037 1.061.112.339.074.603.154.793.24v1.247h-.136a3.22 3.22 0 0 0-.802-.393 2.841 2.841 0 0 0-.912-.152c-.255 0-.47.036-.643.106-.175.07-.262.17-.262.299 0 .117.04.206.119.268.079.061.265.123.558.184.161.033.335.064.52.095.187.03.373.07.56.116.417.109.725.28.924.512.199.233.299.524.299.873z" fill="#000"/></g></svg>