<svg width="328" height="117" viewBox="0 0 328 117" fill="none" xmlns="http://www.w3.org/2000/svg">
    <g opacity="0.5" filter="url(#filter0_dd_15535_219)">
        <rect x="42.5" y="10" width="115.667" height="40" rx="6.05556" fill="#F2F3F4" />
        <rect x="42.8785" y="10.3785" width="114.91" height="39.2431" rx="5.67708" stroke="white"
            stroke-width="0.756944" />
        <path
            d="M54.9999 18C52.5147 18 50.5 20.0147 50.5 22.4999V22.6307L72.9355 19.0895C72.1475 18.4105 71.1216 18 69.9997 18H54.9999Z"
            fill="#2A3052" />
        <path
            d="M73.3986 19.5508L69.283 41.9997H69.9997C72.485 41.9997 74.4997 39.985 74.4997 37.4997V22.4999C74.4997 21.3718 74.0845 20.3406 73.3986 19.5508Z"
            fill="#2A3052" />
        <path fill-rule="evenodd" clip-rule="evenodd"
            d="M69.283 41.9997L54.9999 42C52.5147 42 50.5 39.9853 50.5 37.5001V22.6307L72.9355 19.0895C73.1008 19.2319 73.2556 19.3861 73.3986 19.5508L69.283 41.9997Z"
            fill="#384177" />
        <path
            d="M58.7887 33.7275C58.3897 33.7275 57.9907 33.7135 57.5917 33.6855C57.1997 33.6645 56.7902 33.6085 56.3632 33.5175V26.4615C56.6992 26.3985 57.0667 26.353 57.4657 26.325C57.8647 26.29 58.2357 26.2725 58.5787 26.2725C59.0407 26.2725 59.4642 26.3075 59.8492 26.3775C60.2412 26.4405 60.5772 26.5525 60.8572 26.7135C61.1372 26.8745 61.3542 27.088 61.5082 27.354C61.6692 27.613 61.7497 27.935 61.7497 28.32C61.7497 28.901 61.4697 29.3595 60.9097 29.6955C61.3717 29.8705 61.6867 30.1085 61.8547 30.4095C62.0227 30.7105 62.1067 31.05 62.1067 31.428C62.1067 32.191 61.8267 32.765 61.2667 33.15C60.7137 33.535 59.8877 33.7275 58.7887 33.7275ZM57.9592 30.462V32.3415C58.0782 32.3555 58.2077 32.366 58.3477 32.373C58.4877 32.38 58.6417 32.3835 58.8097 32.3835C59.2997 32.3835 59.6952 32.3135 59.9962 32.1735C60.2972 32.0335 60.4477 31.7745 60.4477 31.3965C60.4477 31.0605 60.3217 30.8225 60.0697 30.6825C59.8177 30.5355 59.4572 30.462 58.9882 30.462H57.9592ZM57.9592 29.2125H58.7572C59.2612 29.2125 59.6217 29.1495 59.8387 29.0235C60.0557 28.8905 60.1642 28.6805 60.1642 28.3935C60.1642 28.0995 60.0522 27.893 59.8282 27.774C59.6042 27.655 59.2752 27.5955 58.8412 27.5955C58.7012 27.5955 58.5507 27.599 58.3897 27.606C58.2287 27.606 58.0852 27.613 57.9592 27.627V29.2125Z"
            fill="white" />
        <path
            d="M65.3184 33.7275C64.9194 33.7275 64.5204 33.7135 64.1214 33.6855C63.7294 33.6645 63.3199 33.6085 62.8929 33.5175V26.4615C63.2289 26.3985 63.5964 26.353 63.9954 26.325C64.3944 26.29 64.7654 26.2725 65.1084 26.2725C65.5704 26.2725 65.9939 26.3075 66.3789 26.3775C66.7709 26.4405 67.1069 26.5525 67.3869 26.7135C67.6669 26.8745 67.8839 27.088 68.0379 27.354C68.1989 27.613 68.2794 27.935 68.2794 28.32C68.2794 28.901 67.9994 29.3595 67.4394 29.6955C67.9014 29.8705 68.2164 30.1085 68.3844 30.4095C68.5524 30.7105 68.6364 31.05 68.6364 31.428C68.6364 32.191 68.3564 32.765 67.7964 33.15C67.2434 33.535 66.4174 33.7275 65.3184 33.7275ZM64.4889 30.462V32.3415C64.6079 32.3555 64.7374 32.366 64.8774 32.373C65.0174 32.38 65.1714 32.3835 65.3394 32.3835C65.8294 32.3835 66.2249 32.3135 66.5259 32.1735C66.8269 32.0335 66.9774 31.7745 66.9774 31.3965C66.9774 31.0605 66.8514 30.8225 66.5994 30.6825C66.3474 30.5355 65.9869 30.462 65.5179 30.462H64.4889ZM64.4889 29.2125H65.2869C65.7909 29.2125 66.1514 29.1495 66.3684 29.0235C66.5854 28.8905 66.6939 28.6805 66.6939 28.3935C66.6939 28.0995 66.5819 27.893 66.3579 27.774C66.1339 27.655 65.8049 27.5955 65.3709 27.5955C65.2309 27.5955 65.0804 27.599 64.9194 27.606C64.7584 27.606 64.6149 27.613 64.4889 27.627V29.2125Z"
            fill="white" />
        <path
            d="M83.566 34.717C82.936 34.717 82.2903 34.6908 81.6288 34.6383C80.9673 34.5858 80.3688 34.5018 79.8333 34.3863L82.3533 23.8337C82.9518 23.7182 83.5765 23.6395 84.2275 23.5975C84.889 23.5555 85.4928 23.5345 86.0388 23.5345C86.6688 23.5345 87.2095 23.6027 87.661 23.7392C88.123 23.8652 88.4958 24.0385 88.7793 24.259C89.0733 24.4795 89.2885 24.742 89.425 25.0465C89.572 25.3405 89.6455 25.6555 89.6455 25.9915C89.6455 26.2225 89.6193 26.464 89.5668 26.716C89.5248 26.968 89.4303 27.22 89.2833 27.472C89.1468 27.7135 88.9525 27.9445 88.7005 28.165C88.459 28.3855 88.1388 28.585 87.7398 28.7635C88.2123 28.9735 88.5588 29.2622 88.7793 29.6297C88.9998 29.9867 89.11 30.3857 89.11 30.8267C89.11 31.3308 89.0103 31.819 88.8108 32.2915C88.6113 32.7535 88.291 33.1683 87.85 33.5358C87.409 33.8928 86.8368 34.1815 86.1333 34.402C85.4298 34.612 84.574 34.717 83.566 34.717ZM83.3455 29.803L82.6683 32.638C82.8363 32.6695 83.0463 32.6958 83.2983 32.7168C83.5608 32.7273 83.8023 32.7325 84.0228 32.7325C84.3378 32.7325 84.6475 32.7115 84.952 32.6695C85.267 32.617 85.5453 32.5278 85.7868 32.4018C86.0388 32.2758 86.2435 32.1025 86.401 31.882C86.5585 31.6615 86.6373 31.378 86.6373 31.0315C86.6373 30.8845 86.6058 30.7375 86.5428 30.5905C86.4903 30.4435 86.401 30.3122 86.275 30.1967C86.149 30.0812 85.981 29.9867 85.771 29.9132C85.5715 29.8397 85.33 29.803 85.0465 29.803H83.3455ZM83.8023 27.9602H85.3458C85.9758 27.9602 86.443 27.8237 86.7475 27.5507C87.0625 27.2777 87.22 26.9522 87.22 26.5742C87.22 26.3747 87.1728 26.2067 87.0783 26.0702C86.9943 25.9232 86.8788 25.8077 86.7318 25.7237C86.5848 25.6397 86.4168 25.582 86.2278 25.5505C86.0388 25.5085 85.8445 25.4875 85.645 25.4875C85.4245 25.4875 85.1883 25.498 84.9363 25.519C84.6843 25.5295 84.4953 25.5452 84.3693 25.5662L83.8023 27.9602Z"
            fill="#414652" />
        <path
            d="M91.6647 34.5753H89.3337L91.3025 26.2907H93.6492L91.6647 34.5753ZM92.7987 25.2827C92.4732 25.2827 92.1792 25.1882 91.9167 24.9992C91.6542 24.7997 91.523 24.5005 91.523 24.1015C91.523 23.881 91.565 23.6762 91.649 23.4872C91.7435 23.2877 91.8642 23.1197 92.0112 22.9832C92.1582 22.8362 92.3262 22.7207 92.5152 22.6367C92.7147 22.5527 92.9247 22.5107 93.1452 22.5107C93.4707 22.5107 93.7647 22.6105 94.0272 22.81C94.2897 22.999 94.421 23.293 94.421 23.692C94.421 23.9125 94.3737 24.1225 94.2792 24.322C94.1952 24.511 94.0797 24.679 93.9327 24.826C93.7857 24.9625 93.6125 25.0727 93.413 25.1567C93.224 25.2407 93.0192 25.2827 92.7987 25.2827Z"
            fill="#414652" />
        <path
            d="M94.9124 26.6687C95.0909 26.6162 95.2852 26.5585 95.4952 26.4955C95.7157 26.422 95.9572 26.359 96.2197 26.3065C96.4927 26.2435 96.7919 26.1962 97.1174 26.1647C97.4534 26.1227 97.8314 26.1017 98.2514 26.1017C99.4904 26.1017 100.341 26.4587 100.803 27.1727C101.265 27.8867 101.344 28.8632 101.039 30.1022L99.9682 34.5753H97.6214L98.6609 30.1967C98.7239 29.9237 98.7712 29.6612 98.8027 29.4092C98.8447 29.1467 98.8447 28.921 98.8027 28.732C98.7607 28.5325 98.6609 28.375 98.5034 28.2595C98.3564 28.1335 98.1254 28.0705 97.8104 28.0705C97.5059 28.0705 97.1962 28.102 96.8812 28.165L95.3534 34.5753H93.0067L94.9124 26.6687Z"
            fill="#414652" />
        <path
            d="M108.92 31C108.773 31.5985 108.731 32.2023 108.794 32.8113C108.857 33.4098 108.978 33.9453 109.156 34.4178L107.062 34.717C106.999 34.591 106.941 34.4703 106.888 34.3548C106.836 34.2393 106.783 34.108 106.731 33.961C106.437 34.2025 106.111 34.402 105.754 34.5595C105.397 34.717 104.998 34.7958 104.557 34.7958C104.032 34.7958 103.581 34.7065 103.203 34.528C102.835 34.339 102.531 34.0923 102.289 33.7878C102.058 33.4728 101.89 33.1105 101.785 32.701C101.68 32.281 101.628 31.8348 101.628 31.3623C101.628 30.6378 101.754 29.9552 102.006 29.3147C102.268 28.6742 102.625 28.1177 103.077 27.6452C103.539 27.1622 104.08 26.7842 104.699 26.5112C105.319 26.2382 105.991 26.1017 106.715 26.1017C106.81 26.1017 106.972 26.107 107.203 26.1175C107.445 26.128 107.718 26.1542 108.022 26.1962C108.327 26.2277 108.647 26.2855 108.983 26.3695C109.319 26.4535 109.639 26.569 109.944 26.716L108.92 31ZM107.282 28.102C107.146 28.081 107.02 28.0652 106.904 28.0547C106.799 28.0442 106.668 28.039 106.51 28.039C106.153 28.039 105.817 28.1282 105.502 28.3067C105.198 28.4852 104.93 28.7215 104.699 29.0155C104.468 29.299 104.284 29.6297 104.148 30.0077C104.022 30.3857 103.959 30.7795 103.959 31.189C103.959 31.693 104.043 32.092 104.211 32.386C104.379 32.68 104.689 32.827 105.14 32.827C105.382 32.827 105.597 32.7798 105.786 32.6853C105.985 32.5908 106.195 32.4333 106.416 32.2128C106.437 31.9503 106.468 31.6773 106.51 31.3938C106.563 31.0998 106.615 30.832 106.668 30.5905L107.282 28.102Z"
            fill="#414652" />
        <path
            d="M115.959 28.3067C115.749 28.2542 115.539 28.207 115.329 28.165C115.129 28.1125 114.83 28.0862 114.431 28.0862C114.284 28.0862 114.121 28.102 113.943 28.1335C113.764 28.1545 113.617 28.1807 113.502 28.2122L111.974 34.5753H109.627L111.517 26.7317C111.969 26.5847 112.473 26.4482 113.029 26.3222C113.596 26.1857 114.231 26.1175 114.935 26.1175C115.197 26.1175 115.486 26.1437 115.801 26.1962C116.127 26.2382 116.41 26.3117 116.652 26.4167L115.959 28.3067Z"
            fill="#414652" />
        <path
            d="M124.397 26.2907C124.103 27.0887 123.804 27.8342 123.5 28.5272C123.206 29.2202 122.896 29.8817 122.57 30.5117C122.245 31.1313 121.909 31.7245 121.562 32.2915C121.216 32.8585 120.848 33.4203 120.46 33.9768C120.176 34.3863 119.882 34.801 119.578 35.221C119.273 35.641 118.932 36.019 118.554 36.355C118.187 36.691 117.772 36.964 117.31 37.174C116.858 37.384 116.333 37.489 115.735 37.489C115.367 37.489 115.052 37.4523 114.79 37.3788C114.527 37.3158 114.281 37.2265 114.05 37.111L114.758 35.2683C114.968 35.3523 115.157 35.4153 115.325 35.4573C115.493 35.5098 115.698 35.536 115.94 35.536C116.307 35.536 116.654 35.4153 116.979 35.1738C117.315 34.9428 117.593 34.6278 117.814 34.2288C117.541 33.1788 117.289 32.0028 117.058 30.7008C116.837 29.3987 116.685 27.9287 116.601 26.2907H119.011C119.021 26.7002 119.042 27.1517 119.074 27.6452C119.105 28.1387 119.142 28.6375 119.184 29.1415C119.226 29.635 119.273 30.118 119.326 30.5905C119.378 31.063 119.436 31.4883 119.499 31.8663C120.003 31.1103 120.444 30.2702 120.822 29.3462C121.211 28.4222 121.573 27.4037 121.909 26.2907H124.397Z"
            fill="#414652" />
        <path
            d="M129.933 34.717C129.334 34.717 128.736 34.696 128.137 34.654C127.549 34.6225 126.935 34.5385 126.295 34.402V23.818C126.799 23.7235 127.35 23.6552 127.948 23.6132C128.547 23.5607 129.103 23.5345 129.618 23.5345C130.311 23.5345 130.946 23.587 131.524 23.692C132.112 23.7865 132.616 23.9545 133.036 24.196C133.456 24.4375 133.781 24.7577 134.012 25.1567C134.254 25.5452 134.374 26.0282 134.374 26.6057C134.374 27.4772 133.954 28.165 133.114 28.669C133.807 28.9315 134.28 29.2885 134.532 29.74C134.784 30.1915 134.91 30.7008 134.91 31.2678C134.91 32.4123 134.49 33.2733 133.65 33.8508C132.82 34.4283 131.581 34.717 129.933 34.717ZM128.689 29.8187V32.638C128.867 32.659 129.061 32.6748 129.271 32.6853C129.481 32.6958 129.712 32.701 129.964 32.701C130.699 32.701 131.293 32.596 131.744 32.386C132.196 32.176 132.421 31.7875 132.421 31.2205C132.421 30.7165 132.232 30.3595 131.854 30.1495C131.476 29.929 130.936 29.8187 130.232 29.8187H128.689ZM128.689 27.9445H129.886C130.642 27.9445 131.182 27.85 131.508 27.661C131.833 27.4615 131.996 27.1465 131.996 26.716C131.996 26.275 131.828 25.9652 131.492 25.7867C131.156 25.6082 130.663 25.519 130.012 25.519C129.802 25.519 129.576 25.5242 129.334 25.5347C129.093 25.5347 128.878 25.5452 128.689 25.5662V27.9445Z"
            fill="#414652" />
        <path
            d="M143.681 30.4172C143.681 31.0683 143.586 31.6668 143.397 32.2128C143.208 32.7483 142.935 33.2103 142.578 33.5988C142.221 33.9768 141.791 34.2708 141.287 34.4808C140.793 34.6908 140.237 34.7958 139.617 34.7958C139.008 34.7958 138.452 34.6908 137.948 34.4808C137.454 34.2708 137.029 33.9768 136.672 33.5988C136.315 33.2103 136.037 32.7483 135.837 32.2128C135.638 31.6668 135.538 31.0683 135.538 30.4172C135.538 29.7662 135.638 29.173 135.837 28.6375C136.047 28.102 136.331 27.6452 136.688 27.2672C137.055 26.8892 137.486 26.5952 137.979 26.3852C138.483 26.1752 139.029 26.0702 139.617 26.0702C140.216 26.0702 140.762 26.1752 141.255 26.3852C141.759 26.5952 142.19 26.8892 142.547 27.2672C142.904 27.6452 143.182 28.102 143.381 28.6375C143.581 29.173 143.681 29.7662 143.681 30.4172ZM141.287 30.4172C141.287 29.6927 141.14 29.1257 140.846 28.7162C140.562 28.2962 140.153 28.0862 139.617 28.0862C139.082 28.0862 138.667 28.2962 138.373 28.7162C138.079 29.1257 137.932 29.6927 137.932 30.4172C137.932 31.1418 138.079 31.7193 138.373 32.1498C138.667 32.5698 139.082 32.7798 139.617 32.7798C140.153 32.7798 140.562 32.5698 140.846 32.1498C141.14 31.7193 141.287 31.1418 141.287 30.4172Z"
            fill="#414652" />
        <path
            d="M144.632 24.2275L146.979 23.8495V26.2907H149.798V28.2437H146.979V31.1575C146.979 31.651 147.063 32.0448 147.231 32.3388C147.41 32.6328 147.761 32.7798 148.286 32.7798C148.538 32.7798 148.796 32.7588 149.058 32.7168C149.331 32.6643 149.578 32.596 149.798 32.512L150.129 34.339C149.846 34.4545 149.531 34.5543 149.184 34.6383C148.838 34.7223 148.412 34.7643 147.908 34.7643C147.268 34.7643 146.738 34.6803 146.318 34.5123C145.898 34.3338 145.562 34.0923 145.31 33.7878C145.058 33.4728 144.879 33.0948 144.774 32.6538C144.68 32.2128 144.632 31.7245 144.632 31.189V24.2275Z"
            fill="#414652" />
    </g>
    <g filter="url(#filter1_dd_15535_219)">
        <rect x="132.5" y="41" width="152" height="52" rx="6" fill="#F2F3F4" />
        <rect x="132.878" y="41.3785" width="151.243" height="51.2431" rx="5.62153" stroke="white"
            stroke-width="0.756944" />
        <path
            d="M148.5 57C148.5 53.6863 151.164 51 154.45 51H174.285C177.571 51 180.236 53.6863 180.236 57V77C180.236 80.3137 177.571 83 174.285 83H154.45C151.164 83 148.5 80.3137 148.5 77V57Z"
            fill="#FF444F" />
        <path
            d="M154.45 51C151.164 51 148.5 53.6863 148.5 57V57.1743L178.167 52.4526C177.125 51.5473 175.769 51 174.285 51H154.45Z"
            fill="#E12E3A" />
        <path
            d="M178.78 53.0677L173.337 83L174.285 83C177.571 83 180.236 80.3137 180.236 77V57C180.236 55.4958 179.687 54.1208 178.78 53.0677Z"
            fill="#E12E3A" />
        <path
            d="M158.034 70.0488C158.136 70.0581 158.251 70.0675 158.381 70.0768C158.52 70.0768 158.682 70.0768 158.867 70.0768C159.95 70.0768 160.75 69.8015 161.269 69.2508C161.796 68.7001 162.06 67.9395 162.06 66.9688C162.06 65.9515 161.81 65.1815 161.311 64.6588C160.811 64.1361 160.019 63.8748 158.936 63.8748C158.788 63.8748 158.635 63.8795 158.478 63.8888C158.321 63.8888 158.173 63.8981 158.034 63.9168V70.0488ZM164.296 66.9688C164.296 67.8088 164.166 68.5415 163.907 69.1668C163.648 69.7921 163.277 70.3101 162.796 70.7208C162.324 71.1315 161.746 71.4395 161.061 71.6448C160.376 71.8501 159.607 71.9528 158.756 71.9528C158.367 71.9528 157.913 71.9341 157.395 71.8968C156.877 71.8688 156.368 71.8035 155.868 71.7008V62.2508C156.368 62.1575 156.886 62.0968 157.423 62.0688C157.969 62.0315 158.436 62.0128 158.825 62.0128C159.649 62.0128 160.394 62.1061 161.061 62.2928C161.736 62.4795 162.315 62.7735 162.796 63.1748C163.277 63.5761 163.648 64.0895 163.907 64.7148C164.166 65.3401 164.296 66.0915 164.296 66.9688Z"
            fill="white" />
        <path
            d="M168.618 71.9528C168.09 71.9528 167.563 71.9341 167.035 71.8968C166.517 71.8688 165.975 71.7941 165.411 71.6728V62.2648C165.855 62.1808 166.341 62.1201 166.868 62.0828C167.396 62.0361 167.887 62.0128 168.34 62.0128C168.951 62.0128 169.511 62.0595 170.02 62.1528C170.539 62.2368 170.983 62.3861 171.353 62.6008C171.723 62.8155 172.01 63.1001 172.214 63.4548C172.427 63.8001 172.533 64.2295 172.533 64.7428C172.533 65.5175 172.163 66.1288 171.422 66.5768C172.033 66.8101 172.45 67.1275 172.672 67.5288C172.894 67.9301 173.005 68.3828 173.005 68.8868C173.005 69.9041 172.635 70.6695 171.895 71.1828C171.163 71.6961 170.071 71.9528 168.618 71.9528ZM167.521 67.5988V70.1048C167.678 70.1235 167.85 70.1375 168.035 70.1468C168.22 70.1561 168.423 70.1608 168.646 70.1608C169.294 70.1608 169.817 70.0675 170.215 69.8808C170.613 69.6941 170.812 69.3488 170.812 68.8448C170.812 68.3968 170.645 68.0795 170.312 67.8928C169.979 67.6968 169.502 67.5988 168.882 67.5988H167.521ZM167.521 65.9328H168.576C169.243 65.9328 169.719 65.8488 170.006 65.6808C170.293 65.5035 170.437 65.2235 170.437 64.8408C170.437 64.4488 170.289 64.1735 169.992 64.0148C169.696 63.8561 169.261 63.7768 168.687 63.7768C168.502 63.7768 168.303 63.7815 168.09 63.7908C167.877 63.7908 167.688 63.8001 167.521 63.8188V65.9328Z"
            fill="white" />
        <path fill-rule="evenodd" clip-rule="evenodd"
            d="M195.388 59.4838L194.602 63.9704H191.872C189.325 63.9704 186.898 66.0462 186.448 68.6082L186.258 69.6987C185.81 72.2608 187.509 74.3366 190.056 74.3366H192.332C194.188 74.3366 195.956 72.825 196.283 70.9577L198.38 59L195.388 59.4838ZM193.451 70.5345C193.351 71.1113 192.834 71.5808 192.261 71.5808H190.878C189.733 71.5808 188.967 70.6461 189.168 69.4924L189.288 68.8124C189.491 67.6609 190.583 66.724 191.727 66.724H194.119L193.451 70.5345Z"
            fill="#414652" />
        <path d="M216.41 74.3373H219.243L221.034 64.1143H218.201L216.41 74.3373Z" fill="#414652" />
        <path
            d="M216.504 65.447L216.505 65.4447C216.576 65.0405 216.647 64.6363 216.717 64.2321C213.81 63.4784 211.546 64.2581 210.624 64.6423C210.624 64.6423 209.308 72.1433 208.923 74.3397H211.758C212.218 71.7147 212.679 69.089 213.138 66.464C213.564 66.3787 214.948 66.245 216.291 66.6647C216.362 66.2588 216.433 65.8529 216.504 65.447Z"
            fill="#414652" />
        <path fill-rule="evenodd" clip-rule="evenodd"
            d="M205.227 63.9694H203.023C200.874 63.9694 198.826 65.7209 198.447 67.883L198.001 70.424C197.623 72.586 199.056 74.3376 201.205 74.3376H205.897L206.378 71.5903H201.969C201.253 71.5903 200.774 71.0071 200.902 70.285L200.916 70.1987H208.025L208.431 67.883C208.809 65.7209 207.376 63.9694 205.227 63.9694ZM205.587 67.664L205.57 67.8114H201.343L201.366 67.6809C201.494 66.9609 202.147 66.3272 202.864 66.3272H204.515C205.225 66.3272 205.704 66.9504 205.587 67.664Z"
            fill="#414652" />
        <path
            d="M225.959 70.8573C227.245 68.5288 228.663 65.4739 229.254 64.1143H232.092C231.126 66.6977 228.912 71.0924 226.768 74.3373H223.933C222.949 71.2489 222.313 66.9458 222.192 64.1143H225.027C225.079 65.0379 225.49 68.4639 225.959 70.8573Z"
            fill="#414652" />
        <path
            d="M240.625 74.8945C239.829 74.8945 239.032 74.8664 238.235 74.8102C237.453 74.768 236.635 74.6555 235.782 74.4727V60.2991C236.453 60.1725 237.187 60.0811 237.984 60.0249C238.78 59.9546 239.521 59.9194 240.206 59.9194C241.128 59.9194 241.974 59.9897 242.743 60.1303C243.525 60.2569 244.196 60.4819 244.755 60.8053C245.314 61.1287 245.748 61.5575 246.055 62.0919C246.377 62.6121 246.537 63.2589 246.537 64.0323C246.537 65.1994 245.978 66.1204 244.86 66.7953C245.783 67.1468 246.412 67.6249 246.747 68.2296C247.082 68.8342 247.25 69.5161 247.25 70.2754C247.25 71.8081 246.691 72.9611 245.573 73.7345C244.469 74.5079 242.82 74.8945 240.625 74.8945ZM238.969 68.335V72.1104C239.207 72.1386 239.465 72.1596 239.745 72.1737C240.024 72.1878 240.332 72.1948 240.667 72.1948C241.646 72.1948 242.435 72.0542 243.036 71.773C243.637 71.4917 243.938 70.9715 243.938 70.2122C243.938 69.5372 243.686 69.0592 243.183 68.7779C242.68 68.4827 241.96 68.335 241.024 68.335H238.969ZM238.969 65.8251H240.562C241.569 65.8251 242.288 65.6985 242.722 65.4454C243.155 65.1783 243.372 64.7564 243.372 64.1799C243.372 63.5894 243.148 63.1746 242.701 62.9355C242.253 62.6965 241.597 62.577 240.73 62.577C240.451 62.577 240.15 62.584 239.829 62.5981C239.507 62.5981 239.221 62.6121 238.969 62.6402V65.8251Z"
            fill="#414652" />
        <path
            d="M258.925 69.1365C258.925 70.0083 258.799 70.8098 258.548 71.541C258.296 72.2581 257.933 72.8768 257.457 73.397C256.982 73.9032 256.409 74.2969 255.738 74.5782C255.081 74.8594 254.341 75 253.516 75C252.705 75 251.965 74.8594 251.294 74.5782C250.637 74.2969 250.071 73.9032 249.596 73.397C249.12 72.8768 248.75 72.2581 248.484 71.541C248.219 70.8098 248.086 70.0083 248.086 69.1365C248.086 68.2647 248.219 67.4702 248.484 66.7531C248.764 66.036 249.141 65.4243 249.617 64.9181C250.106 64.4119 250.679 64.0182 251.336 63.737C252.007 63.4558 252.733 63.3152 253.516 63.3152C254.313 63.3152 255.039 63.4558 255.696 63.737C256.367 64.0182 256.94 64.4119 257.415 64.9181C257.891 65.4243 258.261 66.036 258.527 66.7531C258.792 67.4702 258.925 68.2647 258.925 69.1365ZM255.738 69.1365C255.738 68.1663 255.543 67.407 255.151 66.8586C254.774 66.2961 254.229 66.0149 253.516 66.0149C252.803 66.0149 252.251 66.2961 251.86 66.8586C251.468 67.407 251.273 68.1663 251.273 69.1365C251.273 70.1067 251.468 70.8801 251.86 71.4566C252.251 72.019 252.803 72.3003 253.516 72.3003C254.229 72.3003 254.774 72.019 255.151 71.4566C255.543 70.8801 255.738 70.1067 255.738 69.1365Z"
            fill="#414652" />
        <path
            d="M260.192 60.8474L263.315 60.3412V63.6105H267.068V66.2258H263.315V70.1278C263.315 70.7887 263.427 71.316 263.651 71.7097C263.888 72.1034 264.357 72.3003 265.055 72.3003C265.391 72.3003 265.733 72.2721 266.083 72.2159C266.446 72.1456 266.775 72.0542 267.068 71.9417L267.508 74.3883C267.131 74.543 266.712 74.6766 266.25 74.7891C265.789 74.9016 265.223 74.9578 264.552 74.9578C263.7 74.9578 262.994 74.8453 262.435 74.6203C261.876 74.3813 261.429 74.0579 261.093 73.6501C260.758 73.2283 260.52 72.7221 260.38 72.1315C260.255 71.541 260.192 70.8871 260.192 70.17V60.8474Z"
            fill="#414652" />
    </g>
    <g clip-path="url(#clip0_15535_219)">
        <path
            d="M195.735 43.1493C196.16 41.7223 196.579 40.2974 197.045 38.7258C197.954 39.1612 198.184 39.8839 198.054 40.5898C197.667 42.6798 197.249 44.7791 196.608 46.8407C196.242 48.0229 195.107 48.3122 194.16 47.5812C192.582 46.3617 191.086 45.0652 189.557 43.7975C189.467 43.725 189.336 43.6417 189.327 43.5487C189.299 43.2407 189.323 42.9263 189.323 42.6157C189.624 42.5912 190.009 42.4537 190.215 42.5592C190.908 42.9142 191.543 43.3553 192.198 43.7623C192.542 43.978 192.883 44.1924 193.531 44.2539C193.363 43.6919 193.219 43.1181 193.016 42.5723C188.904 31.4161 176.926 25.0996 163.081 26.8262C161.311 27.0463 159.545 27.4601 157.778 27.7754C157.161 27.8841 156.542 27.9639 155.924 28.0598C155.872 27.9433 155.817 27.8302 155.765 27.7138C156.062 27.4469 156.315 27.0581 156.658 26.9342C157.852 26.494 159.065 26.0649 160.294 25.7718C172.744 22.817 185.394 27.001 191.804 36.2773C193.027 38.0455 193.853 40.0574 194.846 41.9649C195.053 42.3567 195.188 42.7842 195.354 43.1943C195.479 43.1811 195.601 43.1714 195.726 43.1583L195.735 43.1493Z"
            fill="black" />
    </g>
    <defs>
        <filter id="filter0_dd_15535_219" x="36.5" y="8" width="127.667" height="52"
            filterUnits="userSpaceOnUse" color-interpolation-filters="sRGB">
            <feFlood flood-opacity="0" result="BackgroundImageFix" />
            <feColorMatrix in="SourceAlpha" type="matrix"
                values="0 0 0 0 0 0 0 0 0 0 0 0 0 0 0 0 0 0 127 0" result="hardAlpha" />
            <feMorphology radius="2" operator="erode" in="SourceAlpha"
                result="effect1_dropShadow_15535_219" />
            <feOffset dy="2" />
            <feGaussianBlur stdDeviation="2" />
            <feColorMatrix type="matrix"
                values="0 0 0 0 0.054902 0 0 0 0 0.054902 0 0 0 0 0.054902 0 0 0 0.06 0" />
            <feBlend mode="normal" in2="BackgroundImageFix" result="effect1_dropShadow_15535_219" />
            <feColorMatrix in="SourceAlpha" type="matrix"
                values="0 0 0 0 0 0 0 0 0 0 0 0 0 0 0 0 0 0 127 0" result="hardAlpha" />
            <feMorphology radius="2" operator="erode" in="SourceAlpha"
                result="effect2_dropShadow_15535_219" />
            <feOffset dy="4" />
            <feGaussianBlur stdDeviation="4" />
            <feColorMatrix type="matrix"
                values="0 0 0 0 0.054902 0 0 0 0 0.054902 0 0 0 0 0.054902 0 0 0 0.1 0" />
            <feBlend mode="normal" in2="effect1_dropShadow_15535_219"
                result="effect2_dropShadow_15535_219" />
            <feBlend mode="normal" in="SourceGraphic" in2="effect2_dropShadow_15535_219"
                result="shape" />
        </filter>
        <filter id="filter1_dd_15535_219" x="120.5" y="41" width="176" height="76"
            filterUnits="userSpaceOnUse" color-interpolation-filters="sRGB">
            <feFlood flood-opacity="0" result="BackgroundImageFix" />
            <feColorMatrix in="SourceAlpha" type="matrix"
                values="0 0 0 0 0 0 0 0 0 0 0 0 0 0 0 0 0 0 127 0" result="hardAlpha" />
            <feMorphology radius="2" operator="erode" in="SourceAlpha"
                result="effect1_dropShadow_15535_219" />
            <feOffset dy="4" />
            <feGaussianBlur stdDeviation="3" />
            <feColorMatrix type="matrix"
                values="0 0 0 0 0.054902 0 0 0 0 0.054902 0 0 0 0 0.054902 0 0 0 0.03 0" />
            <feBlend mode="normal" in2="BackgroundImageFix" result="effect1_dropShadow_15535_219" />
            <feColorMatrix in="SourceAlpha" type="matrix"
                values="0 0 0 0 0 0 0 0 0 0 0 0 0 0 0 0 0 0 127 0" result="hardAlpha" />
            <feMorphology radius="4" operator="erode" in="SourceAlpha"
                result="effect2_dropShadow_15535_219" />
            <feOffset dy="12" />
            <feGaussianBlur stdDeviation="8" />
            <feColorMatrix type="matrix"
                values="0 0 0 0 0.054902 0 0 0 0 0.054902 0 0 0 0 0.054902 0 0 0 0.08 0" />
            <feBlend mode="normal" in2="effect1_dropShadow_15535_219"
                result="effect2_dropShadow_15535_219" />
            <feBlend mode="normal" in="SourceGraphic" in2="effect2_dropShadow_15535_219"
                result="shape" />
        </filter>
        <clipPath id="clip0_15535_219">
            <rect width="45.7822" height="50.4309" fill="white"
                transform="matrix(0.488264 -0.872696 0.942864 0.333177 142.794 48.2368)" />
        </clipPath>
    </defs>
</svg>
    