<svg xmlns="http://www.w3.org/2000/svg" width="1000" height="250" fill="none"><mask id="a" fill="#fff"><path d="M48.166 74.34c.152.19.228.341.228.456.038.075.057.284.057.626v68.595c0 2.925.779 4.786 2.336 5.584 1.557.797 4.463 1.272 8.717 1.424v1.595H27.37v-1.709c4.596-.228 7.596-.855 9.002-1.88 1.405-1.026 2.108-3.248 2.108-6.666V89.608c0-1.823-.228-3.21-.684-4.159-.456-.95-1.443-1.424-2.962-1.424-.988 0-2.28.285-3.875.855a52.915 52.915 0 0 0-4.387 1.709v-1.595l20.91-10.654h.683Zm51.731 76.172c5.584 0 9.42-3.057 11.509-9.172 2.089-6.116 3.133-14.965 3.133-26.55 0-9.229-.626-16.598-1.88-22.105-2.355-10.255-6.761-15.383-13.218-15.383s-10.881 5.28-13.274 15.839c-1.254 5.621-1.88 13.027-1.88 22.219 0 8.622.645 15.516 1.937 20.681 2.43 9.647 6.988 14.471 13.673 14.471Zm-.17-76.286c8.735 0 15.515 4.576 20.339 13.73 3.836 7.407 5.754 15.915 5.754 25.524 0 7.558-1.178 14.68-3.533 21.365-4.443 12.572-12.135 18.858-23.073 18.858-7.483 0-13.636-3.4-18.46-10.199-5.165-7.254-7.748-17.11-7.748-29.568 0-9.8 1.728-18.232 5.185-25.296 4.671-9.61 11.85-14.414 21.535-14.414Zm58.51 76.286c5.584 0 9.42-3.057 11.509-9.172 2.089-6.116 3.133-14.965 3.133-26.55 0-9.229-.626-16.598-1.88-22.105-2.355-10.255-6.761-15.383-13.218-15.383-6.456 0-10.881 5.28-13.274 15.839-1.254 5.621-1.88 13.027-1.88 22.219 0 8.622.645 15.516 1.937 20.681 2.431 9.647 6.988 14.471 13.673 14.471Zm-.171-76.286c8.736 0 15.516 4.576 20.34 13.73 3.836 7.407 5.754 15.915 5.754 25.524 0 7.558-1.178 14.68-3.533 21.365-4.443 12.572-12.135 18.858-23.073 18.858-7.483 0-13.636-3.4-18.46-10.199-5.165-7.254-7.748-17.11-7.748-29.568 0-9.8 1.728-18.232 5.185-25.296 4.671-9.61 11.85-14.414 21.535-14.414Z"/></mask><path fill="#fff" d="M48.166 74.34c.152.19.228.341.228.456.038.075.057.284.057.626v68.595c0 2.925.779 4.786 2.336 5.584 1.557.797 4.463 1.272 8.717 1.424v1.595H27.37v-1.709c4.596-.228 7.596-.855 9.002-1.88 1.405-1.026 2.108-3.248 2.108-6.666V89.608c0-1.823-.228-3.21-.684-4.159-.456-.95-1.443-1.424-2.962-1.424-.988 0-2.28.285-3.875.855a52.915 52.915 0 0 0-4.387 1.709v-1.595l20.91-10.654h.683Zm51.731 76.172c5.584 0 9.42-3.057 11.509-9.172 2.089-6.116 3.133-14.965 3.133-26.55 0-9.229-.626-16.598-1.88-22.105-2.355-10.255-6.761-15.383-13.218-15.383s-10.881 5.28-13.274 15.839c-1.254 5.621-1.88 13.027-1.88 22.219 0 8.622.645 15.516 1.937 20.681 2.43 9.647 6.988 14.471 13.673 14.471Zm-.17-76.286c8.735 0 15.515 4.576 20.339 13.73 3.836 7.407 5.754 15.915 5.754 25.524 0 7.558-1.178 14.68-3.533 21.365-4.443 12.572-12.135 18.858-23.073 18.858-7.483 0-13.636-3.4-18.46-10.199-5.165-7.254-7.748-17.11-7.748-29.568 0-9.8 1.728-18.232 5.185-25.296 4.671-9.61 11.85-14.414 21.535-14.414Zm58.51 76.286c5.584 0 9.42-3.057 11.509-9.172 2.089-6.116 3.133-14.965 3.133-26.55 0-9.229-.626-16.598-1.88-22.105-2.355-10.255-6.761-15.383-13.218-15.383-6.456 0-10.881 5.28-13.274 15.839-1.254 5.621-1.88 13.027-1.88 22.219 0 8.622.645 15.516 1.937 20.681 2.431 9.647 6.988 14.471 13.673 14.471Zm-.171-76.286c8.736 0 15.516 4.576 20.34 13.73 3.836 7.407 5.754 15.915 5.754 25.524 0 7.558-1.178 14.68-3.533 21.365-4.443 12.572-12.135 18.858-23.073 18.858-7.483 0-13.636-3.4-18.46-10.199-5.165-7.254-7.748-17.11-7.748-29.568 0-9.8 1.728-18.232 5.185-25.296 4.671-9.61 11.85-14.414 21.535-14.414Z"/><path fill="#fff" d="m48.166 74.34.78-.625-.3-.375h-.48v1Zm.228.456h-1v.235l.105.212.895-.447Zm11.11 76.229h1v-.965l-.965-.034-.035.999Zm0 1.595v1h1v-1h-1Zm-32.133 0h-1v1h1v-1Zm0-1.709-.05-.999-.95.047v.952h1Zm3.59-66.031.323.946.013-.005-.337-.941Zm-4.388 1.709h-1v1.539l1.407-.625-.407-.914Zm0-1.595-.454-.891-.546.278v.613h1Zm20.91-10.654v-1h-.24l-.215.109.454.89Zm-.098.624c.05.062.061.087.058.08a.665.665 0 0 1-.049-.248h2c0-.27-.087-.495-.163-.647a2.479 2.479 0 0 0-.284-.434l-1.562 1.25Zm.114.279a.777.777 0 0 1-.06-.17c-.003-.01-.001-.004.002.027.005.061.01.165.01.322h2a5.72 5.72 0 0 0-.018-.503c-.01-.099-.032-.345-.145-.57l-1.788.894Zm-.048.18v68.594h2V75.422h-2Zm0 68.594c0 3.033.804 5.41 2.88 6.474l.912-1.78c-1.039-.532-1.792-1.877-1.792-4.694h-2Zm2.88 6.474c1.776.91 4.889 1.382 9.137 1.533l.071-1.998c-4.26-.153-6.958-.63-8.296-1.315l-.912 1.78Zm8.173.534v1.595h2v-1.595h-2Zm1 .595H27.37v2h32.133v-2Zm-31.133 1v-1.709h-2v1.709h2Zm-.95-.71c2.326-.116 4.282-.333 5.852-.661 1.549-.324 2.815-.773 3.69-1.41l-1.18-1.616c-.531.388-1.468.765-2.92 1.068-1.43.299-3.273.509-5.541.621l.099 1.998Zm9.541-2.071c1.829-1.335 2.519-4.02 2.519-7.474h-2c0 3.383-.716 5.141-1.698 5.858l1.18 1.616Zm2.519-7.474V89.608h-2v52.757h2Zm0-52.757c0-1.878-.23-3.442-.782-4.591l-1.803.865c.36.75.585 1.959.585 3.726h2Zm-.782-4.591c-.693-1.443-2.155-1.992-3.864-1.992v2c1.329 0 1.841.4 2.06.857l1.804-.865Zm-3.864-1.992c-1.156 0-2.574.328-4.211.913l.673 1.883c1.553-.554 2.718-.796 3.537-.796v-2Zm-4.198.908a53.86 53.86 0 0 0-4.47 1.742l.813 1.828a51.88 51.88 0 0 1 4.303-1.677l-.646-1.893Zm-3.064 2.656v-1.595h-2v1.595h2Zm-.546-.704 20.91-10.654-.909-1.782L26.12 84.103l.908 1.782ZM47.482 75.34h.684v-2h-.684v2Zm65.177 17.345.975-.222v-.002l-.975.224Zm-26.492.456-.975-.221-.001.003.976.218Zm.057 42.9-.97.243v.001l.97-.244Zm33.842-48.085.888-.46-.004-.006-.884.466Zm2.221 46.889.943.333.001-.001-.944-.332Zm-41.533 8.659.816-.578-.001-.002-.815.58ZM78.191 88.64l.898.44.001-.003-.9-.437Zm21.706 62.872c2.985 0 5.569-.822 7.688-2.511 2.108-1.68 3.68-4.156 4.767-7.338l-1.893-.647c-1.002 2.933-2.392 5.043-4.12 6.421-1.717 1.368-3.844 2.075-6.442 2.075v2Zm12.455-9.849c2.142-6.271 3.187-15.251 3.187-26.873h-2c0 11.547-1.044 20.267-3.08 26.226l1.893.647Zm3.187-26.873c0-9.263-.628-16.716-1.905-22.327l-1.95.444c1.23 5.403 1.855 12.688 1.855 21.883h2Zm-1.905-22.329c-1.196-5.206-2.936-9.228-5.287-11.965-2.383-2.773-5.37-4.194-8.906-4.194v2c2.922 0 5.366 1.143 7.389 3.498 2.055 2.39 3.695 6.06 4.854 11.109l1.95-.448ZM99.441 76.302c-3.546 0-6.54 1.468-8.927 4.317-2.357 2.812-4.109 6.946-5.322 12.3l1.95.443c1.18-5.205 2.836-8.99 4.904-11.458 2.037-2.43 4.485-3.602 7.395-3.602v-2Zm-14.25 16.621c-1.276 5.722-1.904 13.21-1.904 22.437h2c0-9.156.625-16.481 1.856-22.002l-1.952-.435Zm-1.904 22.437c0 8.66.647 15.645 1.967 20.924l1.94-.485c-1.263-5.053-1.907-11.855-1.907-20.439h-2Zm1.967 20.925c1.238 4.913 3.044 8.713 5.484 11.296 2.47 2.614 5.544 3.931 9.16 3.931v-2c-3.07 0-5.617-1.094-7.706-3.304-2.117-2.241-3.806-5.677-4.998-10.411l-1.94.488Zm14.472-61.06c8.289 0 14.766 4.299 19.455 13.197l1.769-.932c-4.958-9.409-12.041-14.264-21.224-14.264v2Zm19.452 13.191c3.752 7.244 5.642 15.59 5.642 25.064h2c0-9.745-1.946-18.415-5.866-25.984l-1.776.92Zm5.642 25.064c0 7.453-1.161 14.461-3.476 21.032l1.887.665c2.395-6.799 3.589-14.033 3.589-21.697h-2Zm-3.475 21.031c-2.182 6.171-5.128 10.709-8.792 13.703-3.648 2.982-8.076 4.489-13.34 4.489v2c5.676 0 10.563-1.637 14.606-4.941 4.028-3.292 7.149-8.183 9.411-14.584l-1.885-.667Zm-22.131 18.192c-7.118 0-12.983-3.208-17.644-9.777l-1.631 1.157c4.986 7.028 11.427 10.62 19.275 10.62v-2Zm-17.645-9.779c-5.005-7.029-7.563-16.658-7.563-28.988h-2c0 12.585 2.608 22.669 7.934 30.149l1.629-1.161Zm-7.563-28.988c0-9.684 1.708-17.958 5.083-24.857l-1.797-.879c-3.537 7.231-5.286 15.821-5.286 25.736h2Zm5.084-24.859c2.277-4.683 5.134-8.134 8.545-10.417 3.405-2.279 7.422-3.434 12.091-3.434v-2c-5.016 0-9.43 1.247-13.204 3.772-3.768 2.522-6.836 6.278-9.23 11.205l1.798.874Zm91.909 3.608.975-.222v-.002l-.975.224Zm-26.492.456-.975-.221-.001.003.976.218Zm.057 42.9-.97.243v.001l.97-.244Zm33.842-48.085.888-.46-.004-.006-.884.466Zm2.221 46.889.943.333.001-.001-.944-.332Zm-41.533 8.659.816-.578-.001-.002-.815.58Zm-2.563-54.864.898.44.001-.003-.899-.437Zm21.706 62.872c2.985 0 5.569-.822 7.688-2.511 2.108-1.68 3.68-4.156 4.767-7.338l-1.893-.647c-1.002 2.933-2.392 5.043-4.12 6.421-1.717 1.368-3.844 2.075-6.442 2.075v2Zm12.455-9.849c2.142-6.271 3.187-15.251 3.187-26.873h-2c0 11.547-1.044 20.267-3.08 26.226l1.893.647Zm3.187-26.873c0-9.263-.628-16.716-1.905-22.327l-1.95.444c1.23 5.403 1.855 12.688 1.855 21.883h2Zm-1.905-22.329c-1.196-5.206-2.936-9.228-5.287-11.965-2.383-2.773-5.37-4.194-8.906-4.194v2c2.922 0 5.366 1.143 7.389 3.498 2.055 2.39 3.695 6.06 4.854 11.109l1.95-.448Zm-14.193-16.159c-3.546 0-6.539 1.468-8.927 4.317-2.357 2.812-4.109 6.946-5.322 12.3l1.95.443c1.179-5.205 2.836-8.99 4.905-11.458 2.036-2.43 4.484-3.602 7.394-3.602v-2Zm-14.25 16.621c-1.276 5.722-1.904 13.21-1.904 22.437h2c0-9.156.625-16.481 1.856-22.002l-1.952-.435Zm-1.904 22.437c0 8.66.647 15.645 1.967 20.924l1.94-.485c-1.263-5.053-1.907-11.855-1.907-20.439h-2Zm1.967 20.925c1.238 4.913 3.044 8.713 5.484 11.296 2.47 2.614 5.544 3.931 9.159 3.931v-2c-3.069 0-5.616-1.094-7.705-3.304-2.117-2.241-3.806-5.677-4.999-10.411l-1.939.488Zm14.472-61.06c8.289 0 14.766 4.299 19.455 13.197l1.769-.932c-4.958-9.409-12.041-14.264-21.224-14.264v2Zm19.452 13.191c3.752 7.244 5.642 15.59 5.642 25.064h2c0-9.745-1.946-18.415-5.866-25.984l-1.776.92Zm5.642 25.064c0 7.453-1.161 14.461-3.476 21.032l1.887.665c2.395-6.799 3.589-14.033 3.589-21.697h-2Zm-3.475 21.031c-2.182 6.171-5.128 10.709-8.792 13.703-3.648 2.982-8.076 4.489-13.339 4.489v2c5.675 0 10.562-1.637 14.605-4.941 4.028-3.292 7.149-8.183 9.411-14.584l-1.885-.667Zm-22.131 18.192c-7.118 0-12.983-3.208-17.644-9.777l-1.631 1.157c4.986 7.028 11.427 10.62 19.275 10.62v-2Zm-17.645-9.779c-5.005-7.029-7.563-16.658-7.563-28.988h-2c0 12.585 2.608 22.669 7.934 30.149l1.629-1.161Zm-7.563-28.988c0-9.684 1.708-17.958 5.083-24.857l-1.797-.879c-3.537 7.231-5.286 15.821-5.286 25.736h2Zm5.084-24.859c2.277-4.683 5.134-8.134 8.545-10.417 3.405-2.279 7.422-3.434 12.091-3.434v-2c-5.016 0-9.43 1.247-13.204 3.772-3.768 2.522-6.836 6.278-9.231 11.205l1.799.874Z" mask="url(#a)"/><mask id="b" fill="#fff"><path d="M585.395 78.483c1.56.156 2.517.257 2.874.301.356.022.746.033 1.169.033 3.453 0 6.371-.79 8.755-2.372 2.405-1.604 3.608-4.299 3.608-8.086 0-2.873-.813-4.822-2.439-5.847-1.626-1.025-3.72-1.537-6.282-1.537-.913 0-1.626.111-2.138.334-.512.223-.88.724-1.103 1.504l-4.444 15.67Zm-17.575 23.924c1.604-.134 2.707-.423 3.308-.869.936-.668 1.704-2.06 2.305-4.176l8.421-30.272a22.99 22.99 0 0 0 .501-2.106c.178-.824.267-1.536.267-2.138 0-1.047-.379-1.76-1.136-2.138-.757-.401-1.982-.646-3.675-.736V58.87h16.94c3.252 0 5.959.4 8.119 1.203 4.099 1.537 6.148 4.377 6.148 8.52 0 3.965-1.782 7.04-5.346 9.222-1.938 1.18-4.644 2.15-8.119 2.907l6.315 16.773c.624 1.649 1.337 2.863 2.138 3.642.802.78 1.994 1.203 3.576 1.27v1.103h-10.125l-8.42-22.153-4.41-.334-3.909 14.267c-.156.602-.301 1.17-.435 1.704-.223 1.092-.334 1.938-.334 2.54 0 1.047.368 1.771 1.103 2.171.735.401 1.926.635 3.575.702v1.103H567.82v-1.103Zm47.079-16.305h15.036l-.969 4.276H613.93l.969-4.276Zm21.819 16.272 2.272-.034c1.492-.178 2.684-.501 3.575-.969.891-.49 1.504-1.325 1.838-2.506l9.422-33.68a14.84 14.84 0 0 0 .334-1.403 4.94 4.94 0 0 0 .134-1.07c0-.78-.256-1.303-.768-1.57-.513-.267-1.326-.401-2.44-.401l-3.274.167v-1.036l.869-.133a360.7 360.7 0 0 0 4.945-.97 399.01 399.01 0 0 0 5.747-1.169l1.036-.234.635-.1.401.234c0 .134-.012.267-.034.4 0 .135-.022.268-.067.402l-11.226 40.93-.134.535a4.362 4.362 0 0 0-.034.535c0 .913.401 1.493 1.203 1.738.802.245 2.35.401 4.645.467v1.003h-19.079v-1.136Z"/></mask><path fill="#fff" d="M585.395 78.483c1.56.156 2.517.257 2.874.301.356.022.746.033 1.169.033 3.453 0 6.371-.79 8.755-2.372 2.405-1.604 3.608-4.299 3.608-8.086 0-2.873-.813-4.822-2.439-5.847-1.626-1.025-3.72-1.537-6.282-1.537-.913 0-1.626.111-2.138.334-.512.223-.88.724-1.103 1.504l-4.444 15.67Zm-17.575 23.924c1.604-.134 2.707-.423 3.308-.869.936-.668 1.704-2.06 2.305-4.176l8.421-30.272a22.99 22.99 0 0 0 .501-2.106c.178-.824.267-1.536.267-2.138 0-1.047-.379-1.76-1.136-2.138-.757-.401-1.982-.646-3.675-.736V58.87h16.94c3.252 0 5.959.4 8.119 1.203 4.099 1.537 6.148 4.377 6.148 8.52 0 3.965-1.782 7.04-5.346 9.222-1.938 1.18-4.644 2.15-8.119 2.907l6.315 16.773c.624 1.649 1.337 2.863 2.138 3.642.802.78 1.994 1.203 3.576 1.27v1.103h-10.125l-8.42-22.153-4.41-.334-3.909 14.267c-.156.602-.301 1.17-.435 1.704-.223 1.092-.334 1.938-.334 2.54 0 1.047.368 1.771 1.103 2.171.735.401 1.926.635 3.575.702v1.103H567.82v-1.103Zm47.079-16.305h15.036l-.969 4.276H613.93l.969-4.276Zm21.819 16.272 2.272-.034c1.492-.178 2.684-.501 3.575-.969.891-.49 1.504-1.325 1.838-2.506l9.422-33.68a14.84 14.84 0 0 0 .334-1.403 4.94 4.94 0 0 0 .134-1.07c0-.78-.256-1.303-.768-1.57-.513-.267-1.326-.401-2.44-.401l-3.274.167v-1.036l.869-.133a360.7 360.7 0 0 0 4.945-.97 399.01 399.01 0 0 0 5.747-1.169l1.036-.234.635-.1.401.234c0 .134-.012.267-.034.4 0 .135-.022.268-.067.402l-11.226 40.93-.134.535a4.362 4.362 0 0 0-.034.535c0 .913.401 1.493 1.203 1.738.802.245 2.35.401 4.645.467v1.003h-19.079v-1.136Z"/><path fill="#fff" d="m585.395 78.483-.962-.273-.326 1.15 1.189.118.099-.995Zm2.874.301-.124.992.031.004.031.002.062-.998Zm9.924-2.339.552.833h.002l-.554-.833Zm-8.354-13.632-.961-.275-.001.002.962.273Zm-22.019 39.594-.083-.996-.917.076v.92h1Zm3.308-.869-.581-.813-.007.005-.007.005.595.803Zm2.305-4.176.962.273.002-.005-.964-.268Zm8.421-30.272-.959-.285-.003.008-.002.008.964.269Zm.501-2.106-.978-.21-.002.01-.002.01.982.19Zm-.869-4.276-.468.883.01.006.011.005.447-.894Zm-3.675-.736h-1v.95l.947.05.053-1Zm0-1.102v-1h-1v1h1Zm25.059 1.203.352-.937h-.004l-.348.937Zm.802 17.742.521.854.002-.001-.523-.853Zm-8.119 2.907-.213-.977-1.131.246.408 1.083.936-.352Zm6.315 16.773-.936.353.001.001.935-.354Zm5.714 4.912h1v-.959l-.958-.04-.042.999Zm0 1.103v1h1v-1h-1Zm-10.125 0-.934.355.245.645h.689v-1Zm-8.42-22.153.935-.355-.226-.594-.633-.048-.076.997Zm-4.41-.334.075-.997-.822-.063-.218.796.965.264Zm-3.909 14.267-.965-.264-.003.013.968.251Zm-.435 1.704-.97-.242-.005.02-.005.022.98.2Zm4.344 5.413h1v-.96l-.96-.039-.04.999Zm0 1.103v1h1v-1h-1Zm-16.807 0h-1v1h1v-1Zm17.476-24.032c1.564.157 2.508.256 2.849.298l.248-1.984c-.372-.047-1.344-.148-2.898-.304l-.199 1.99Zm2.911.304c.38.024.791.035 1.231.035v-2c-.406 0-.774-.01-1.107-.031l-.124 1.996Zm1.231.035c3.608 0 6.729-.827 9.307-2.539l-1.105-1.666c-2.189 1.452-4.904 2.206-8.202 2.206v2Zm9.309-2.54c2.768-1.845 4.054-4.912 4.054-8.918h-2c0 3.568-1.12 5.892-3.163 7.254l1.109 1.664Zm4.054-8.918c0-3.035-.863-5.406-2.906-6.693l-1.066 1.692c1.209.762 1.972 2.289 1.972 5.001h2Zm-2.906-6.693c-1.83-1.154-4.125-1.691-6.815-1.691v2c2.435 0 4.327.487 5.749 1.383l1.066-1.692Zm-6.815-1.691c-.974 0-1.844.116-2.537.417l.798 1.834c.331-.144.887-.251 1.739-.251v-2Zm-2.537.417c-.893.388-1.399 1.213-1.665 2.146l1.923.55c.179-.627.408-.805.54-.862l-.798-1.834Zm-1.666 2.148-4.444 15.67 1.924.546 4.444-15.67-1.924-.546Zm-20.974 40.864c1.621-.135 2.975-.436 3.82-1.062l-1.19-1.607c-.358.265-1.209.543-2.796.676l.166 1.993Zm3.806-1.052c1.226-.876 2.072-2.554 2.686-4.717l-1.923-.547c-.589 2.07-1.28 3.176-1.925 3.637l1.162 1.627Zm2.688-4.722 8.42-30.272-1.927-.537-8.42 30.273 1.927.536Zm8.415-30.256c.19-.64.364-1.374.524-2.199l-1.963-.381a21.629 21.629 0 0 1-.478 2.011l1.917.569Zm.52-2.178c.188-.868.29-1.655.29-2.35h-2c0 .509-.076 1.147-.245 1.927l1.955.423Zm.29-2.35c0-1.318-.506-2.441-1.689-3.033l-.894 1.789c.332.166.583.468.583 1.244h2Zm-1.668-3.022c-.959-.508-2.367-.76-4.091-.85l-.105 1.997c1.663.088 2.704.326 3.26.62l.936-1.767Zm-3.143.148V58.87h-2v1.102h2Zm-1-.102h16.94v-2h-16.94v2Zm16.94 0c3.178 0 5.758.393 7.771 1.14l.696-1.875c-2.307-.856-5.141-1.265-8.467-1.265v2Zm7.768 1.14c1.911.716 3.268 1.706 4.151 2.93.881 1.221 1.348 2.752 1.348 4.653h2c0-2.242-.557-4.203-1.726-5.823-1.165-1.615-2.883-2.813-5.07-3.634l-.703 1.873Zm5.499 7.583c0 3.595-1.581 6.356-4.868 8.37l1.045 1.705c3.841-2.353 5.823-5.74 5.823-10.075h-2Zm-4.866 8.368c-1.805 1.1-4.391 2.038-7.812 2.784l.426 1.954c3.529-.77 6.356-1.768 8.427-3.03l-1.041-1.708Zm-8.535 4.113 6.315 16.774 1.872-.705-6.315-16.773-1.872.704Zm6.316 16.775c.649 1.715 1.426 3.082 2.376 4.005l1.395-1.434c-.654-.635-1.302-1.697-1.901-3.279l-1.87.708Zm2.376 4.005c1.04 1.011 2.505 1.479 4.23 1.552l.085-1.998c-1.438-.061-2.356-.439-2.92-.988l-1.395 1.434Zm3.273.553v1.103h2v-1.103h-2Zm1 .103h-10.125v2h10.125v-2Zm-9.19.644-8.42-22.152-1.869.71 8.42 22.153 1.869-.711Zm-9.279-22.794-4.411-.334-.151 1.994 4.411.334.151-1.994Zm-5.451.398-3.909 14.268 1.929.528 3.909-14.267-1.929-.529ZM579.75 95.04c-.157.604-.303 1.175-.437 1.713l1.94.485c.133-.532.277-1.097.433-1.696l-1.936-.502Zm-.447 1.755c-.227 1.112-.354 2.037-.354 2.74h2c0-.5.095-1.269.314-2.34l-1.96-.4Zm-.354 2.74c0 1.305.483 2.427 1.624 3.049l.958-1.755c-.33-.18-.582-.506-.582-1.294h-2Zm1.624 3.049c.946.517 2.333.755 4.013.823l.081-1.998c-1.616-.066-2.613-.295-3.136-.58l-.958 1.755Zm3.054-.176v1.103h2v-1.103h-2Zm1 .103H567.82v2h16.807v-2Zm-15.807 1v-1.103h-2v1.103h2Zm46.079-17.409v-1h-.799l-.176.78.975.22Zm15.036 0 .975.222.277-1.221h-1.252v1Zm-.969 4.277v1h.799l.176-.779-.975-.22Zm-15.036 0-.975-.22-.277 1.22h1.252v-1Zm.969-3.276h15.036v-2h-15.036v2Zm14.061-1.221-.969 4.276 1.95.442.969-4.276-1.95-.442Zm.006 3.497H613.93v2h15.036v-2ZM614.905 90.6l.969-4.276-1.95-.442-.969 4.276 1.95.442Zm21.813 11.775-.015-1-.985.014v.986h1Zm2.272-.034.015 1 .052-.001.052-.006-.119-.993Zm3.575-.969.465.886.009-.005.008-.004-.482-.877Zm1.838-2.506.962.273.001-.003-.963-.27Zm9.422-33.68-.963-.27.963.27Zm.334-1.403-.976-.217-.004.021-.004.022.984.174Zm-3.074-3.041v-1h-.025l-.025.001.05.999Zm-3.274.167h-1v1.052l1.051-.053-.051-.999Zm0-1.036-.152-.988-.848.13v.858h1Zm.869-.133.152.988.012-.002.012-.002-.176-.984Zm4.945-.97-.195-.98h-.001l.196.98Zm5.747-1.169.211.978.009-.002-.22-.976Zm1.036-.234-.156-.987-.033.005-.032.007.221.975Zm.635-.1.503-.864-.307-.18-.352.056.156.988Zm.401.234h1v-.574l-.497-.29-.503.864Zm-.034.4-.986-.163-.014.081v.083h1Zm-.067.402-.948-.316-.009.025-.007.026.964.265Zm-11.226 40.93-.965-.264-.003.011-.003.011.971.243Zm-.134.535-.97-.242-.015.058-.007.06.992.124Zm5.814 2.74h1v-.971l-.971-.028-.029.999Zm0 1.003v1h1v-1h-1Zm-19.079 0h-1v1h1v-1Zm.015-.136 2.272-.034-.03-2-2.272.034.03 2Zm2.376-.041c1.559-.186 2.883-.531 3.921-1.076l-.93-1.771c-.743.39-1.803.691-3.229.861l.238 1.986Zm3.938-1.085c1.173-.645 1.927-1.729 2.318-3.11l-1.924-.545c-.278.98-.748 1.567-1.358 1.902l.964 1.753Zm2.319-3.113 9.422-33.68-1.926-.54-9.422 33.68 1.926.54Zm9.422-33.68c.161-.575.282-1.077.356-1.5l-1.969-.347c-.059.335-.162.768-.313 1.307l1.926.54Zm.348-1.456c.1-.452.157-.883.157-1.287h-2c0 .22-.032.502-.11.853l1.953.434Zm.157-1.287c0-1.002-.348-1.957-1.306-2.457l-.925 1.774c.067.035.231.126.231.683h2Zm-1.306-2.457c-.734-.383-1.75-.514-2.902-.514v2c1.076 0 1.687.136 1.977.288l.925-1.774Zm-2.952-.513-3.275.167.102 1.998 3.274-.167-.101-1.998Zm-2.224 1.166v-1.036h-2v1.036h2Zm-.848-.047.869-.134-.304-1.977-.869.134.304 1.977Zm.893-.138c.636-.114 2.296-.439 4.965-.973l-.392-1.96c-2.678.535-4.314.855-4.925.964l.352 1.97Zm4.963-.972c2.696-.535 4.619-.926 5.764-1.173l-.422-1.955c-1.127.243-3.035.631-5.731 1.166l.389 1.962Zm5.773-1.175 1.036-.234-.441-1.951-1.035.234.44 1.95Zm.972-.222.635-.1-.312-1.976-.635.1.312 1.976Zm-.025-.224.401.234 1.007-1.728-.401-.234-1.007 1.728Zm-.095-.63c0 .078-.007.156-.02.236l1.973.33c.031-.188.047-.377.047-.566h-2Zm-.034.4a.28.28 0 0 1-.015.086l1.897.632c.077-.23.118-.47.118-.717h-2Zm-.031.137-11.227 40.931 1.929.53 11.227-40.932-1.929-.529ZM649.146 98.99a25.4 25.4 0 0 0-.066.268l-.034.133-.033.134 1.94.485.033-.134.034-.133.067-.268-1.941-.485Zm-.155.654a5.187 5.187 0 0 0-.042.658h2c0-.136.009-.273.026-.41l-1.984-.248Zm-.042.658c0 .6.133 1.189.479 1.689.352.508.858.83 1.432 1.005l.585-1.913c-.229-.07-.323-.16-.373-.231-.054-.079-.123-.237-.123-.55h-2Zm1.911 2.694c.949.29 2.627.445 4.908.511l.058-1.999c-2.309-.067-3.727-.225-4.381-.425l-.585 1.913Zm3.937-.489v1.003h2v-1.003h-2Zm1 .003h-19.079v2h19.079v-2Zm-18.079 1v-1.136h-2v1.136h2Z" mask="url(#b)"/><path fill="#fff" stroke="#fff" d="M360.28 190.31h12.91v2.98h-26.42V65.77h26.41v2.75h-13.44c-3.16 0-5.442 1.007-6.634 3.16-.67 1.126-.986 2.634-.986 4.46v105.55c0 2.353.329 4.184 1.068 5.412 1.248 2.189 3.686 3.208 7.092 3.208ZM961.541 68.76h-12.98v-2.98h26.42V193.3h-26.43v-2.83h13.52c3.114 0 5.386-.989 6.638-3.072l.005-.009.005-.008c.617-1.123.902-2.628.902-4.451V77.38c0-2.56-.512-4.65-1.576-6.22l-.002-.002c-1.145-1.672-3.398-2.398-6.502-2.398ZM509.18 124.97c0-16.432 4.673-29.57 14.032-41.47h.009l.15-.189c5.715-7.187 12.442-12.993 20.172-17.42l.839 1.465a486.94 486.94 0 0 1-2.37 1.863c-7.393 5.789-14.556 11.396-18.452 20.555h-.001c-4.457 10.499-5.689 22.166-5.689 33.416 0 11.935 1.051 21.803 3.177 29.601v.001c3.697 13.511 13.1 23.64 23.244 30.415l-1.204 1.527c-5.438-2.707-11.354-7.877-17.743-15.564-10.777-12.962-16.164-27.69-16.164-44.2Zm168.19 58.237c10.154-6.775 19.547-16.914 23.243-30.415v-.001c2.126-7.798 3.178-17.666 3.178-29.601 0-11.24-1.222-22.917-5.69-33.416-3.95-9.28-10.892-14.682-18.156-20.333-.886-.69-1.776-1.382-2.666-2.086l.838-1.464c7.73 4.427 14.447 10.232 20.172 17.42 9.457 11.958 14.182 25.837 14.182 41.659v.5h.008c-.108 16.298-5.494 30.859-16.163 43.7-6.389 7.687-12.304 12.857-17.742 15.564l-1.204-1.527Zm57.299-87.163c3.206-7.543 9.105-12.164 15.17-16.915a358.26 358.26 0 0 0 1.912-1.503l-.607-1.056c-6.32 3.627-11.808 8.383-16.483 14.26l-.004-.002c-7.75 9.816-11.628 20.631-11.628 34.182 0 13.55 4.418 25.638 13.265 36.28 5.219 6.286 10.054 10.517 14.493 12.743l.883-1.117c-8.324-5.584-16.026-13.914-19.063-25.004v-.001c-1.746-6.418-2.618-14.546-2.618-24.361 0-9.25 1.002-18.857 4.68-27.506Zm0 0 .46.196m-.46-.196.46.196m0 0c3.152-7.418 8.945-11.957 15.019-16.717.748-.586 1.5-1.175 2.251-1.773l-19.31 70.03c-1.73-6.36-2.6-14.44-2.6-24.23 0-9.22 1-18.75 4.64-27.31Zm188.289-5.399c7.753 9.803 11.637 21.185 11.642 34.177l-.01.002c0 13.551-4.418 25.639-13.265 36.281-5.218 6.285-10.054 10.507-14.494 12.742l-.882-1.116c8.324-5.575 16.037-13.904 19.063-25.005 1.746-6.418 2.618-14.546 2.618-24.362 0-9.25-1.012-18.856-4.68-27.505-3.241-7.643-8.966-12.096-14.926-16.733a328.98 328.98 0 0 1-2.156-1.686l.607-1.055c6.311 3.627 11.808 8.383 16.483 14.26ZM213.697 142.39h48.649l-1.003 4.85h-48.649l1.003-4.85Zm4.16-19.59h48.649l-1.003 4.85h-48.649l1.003-4.85Z"/><path stroke="#fff" stroke-miterlimit="10" stroke-width="1.21" d="M545.711 140.17h140.2"/><mask id="c" fill="#fff"><path d="M297.718 128.436h1.256c.559 3.071 1.219 5.317 1.98 6.738 1.396 2.614 3.477 3.921 6.243 3.921 1.548 0 2.842-.546 3.883-1.637 1.065-1.091 1.598-2.538 1.598-4.339 0-1.117-.139-2.031-.418-2.741a8.236 8.236 0 0 0-.99-1.942l-3.16-4.682c-1.903-2.842-3.096-4.745-3.578-5.71-.736-1.446-1.104-2.893-1.104-4.339 0-2.208.787-4.149 2.36-5.824 1.599-1.701 3.858-2.551 6.776-2.551 1.244 0 2.665.241 4.264.723 1.598.457 2.69.686 3.273.686.635 0 1.104-.127 1.409-.381.304-.254.583-.596.837-1.028h1.104l-1.561 10.811h-1.256c-.33-2.462-.824-4.314-1.484-5.558-1.218-2.309-3.147-3.464-5.786-3.464-1.117 0-2.119.356-3.008 1.066-.862.685-1.294 1.7-1.294 3.045 0 1.041.19 1.955.571 2.741.406.787 1.307 2.183 2.703 4.188l2.703 3.882c1.395 2.005 2.385 3.642 2.969 4.911.583 1.269.875 2.639.875 4.111 0 2.741-1.167 5.05-3.502 6.928-2.335 1.878-5.113 2.817-8.336 2.817-1.041 0-2.526-.216-4.454-.647-1.929-.431-3.046-.647-3.35-.647-.508 0-.888.114-1.142.342-.228.229-.444.571-.647 1.028h-1.256l1.522-12.448Z"/></mask><path fill="#fff" d="M297.718 128.436h1.256c.559 3.071 1.219 5.317 1.98 6.738 1.396 2.614 3.477 3.921 6.243 3.921 1.548 0 2.842-.546 3.883-1.637 1.065-1.091 1.598-2.538 1.598-4.339 0-1.117-.139-2.031-.418-2.741a8.236 8.236 0 0 0-.99-1.942l-3.16-4.682c-1.903-2.842-3.096-4.745-3.578-5.71-.736-1.446-1.104-2.893-1.104-4.339 0-2.208.787-4.149 2.36-5.824 1.599-1.701 3.858-2.551 6.776-2.551 1.244 0 2.665.241 4.264.723 1.598.457 2.69.686 3.273.686.635 0 1.104-.127 1.409-.381.304-.254.583-.596.837-1.028h1.104l-1.561 10.811h-1.256c-.33-2.462-.824-4.314-1.484-5.558-1.218-2.309-3.147-3.464-5.786-3.464-1.117 0-2.119.356-3.008 1.066-.862.685-1.294 1.7-1.294 3.045 0 1.041.19 1.955.571 2.741.406.787 1.307 2.183 2.703 4.188l2.703 3.882c1.395 2.005 2.385 3.642 2.969 4.911.583 1.269.875 2.639.875 4.111 0 2.741-1.167 5.05-3.502 6.928-2.335 1.878-5.113 2.817-8.336 2.817-1.041 0-2.526-.216-4.454-.647-1.929-.431-3.046-.647-3.35-.647-.508 0-.888.114-1.142.342-.228.229-.444.571-.647 1.028h-1.256l1.522-12.448Z"/><path fill="#fff" d="M297.718 128.436v-1h-.885l-.107.879.992.121Zm1.256 0 .984-.178-.149-.822h-.835v1Zm1.98 6.738.882-.471-.001-.001-.881.472Zm10.126 2.284-.716-.699-.008.009.724.69Zm1.18-7.08-.942.336.005.015.006.015.931-.366Zm-.99-1.942-.829.56.004.006.004.006.821-.572Zm-3.16-4.682-.83.557.002.003.828-.56Zm-3.578-5.71.895-.447-.004-.006-.891.453Zm1.256-10.163-.728-.685.728.685Zm11.04-1.828-.289.958.007.002.007.002.275-.962Zm5.519-.723v-1h-.572l-.29.493.862.507Zm1.104 0 .99.143.165-1.143h-1.155v1Zm-1.561 10.811v1h.866l.124-.857-.99-.143Zm-1.256 0-.991.133.116.867h.875v-1Zm-1.484-5.558-.885.467.001.002.884-.469Zm-8.794-2.398.622.783.003-.002-.625-.781Zm-.723 5.786-.9.436.006.011.005.012.889-.459Zm2.703 4.188.821-.572h-.001l-.82.572Zm2.703 3.882-.821.572.821-.572Zm.342 15.95-.627-.779.627.779Zm-12.79 2.17-.218.976.218-.976Zm-4.492-.305-.669-.743-.02.018-.018.018.707.707Zm-.647 1.028v1h.65l.264-.594-.914-.406Zm-1.256 0-.993-.121-.137 1.121h1.13v-1Zm1.522-11.448h1.256v-2h-1.256v2Zm.273-.821c.563 3.097 1.244 5.468 2.081 7.031l1.763-.944c-.685-1.279-1.323-3.399-1.877-6.444l-1.967.357Zm2.081 7.03c.763 1.429 1.742 2.553 2.958 3.317 1.219.765 2.62 1.133 4.167 1.133v-2c-1.219 0-2.242-.286-3.104-.827-.865-.543-1.624-1.38-2.257-2.565l-1.764.942Zm7.125 4.45c1.813 0 3.372-.652 4.606-1.947l-1.447-1.38c-.846.888-1.876 1.327-3.159 1.327v2Zm4.598-1.938c1.281-1.311 1.883-3.026 1.883-5.038h-2c0 1.591-.463 2.769-1.314 3.64l1.431 1.398Zm1.883-5.038c0-1.189-.147-2.239-.488-3.107l-1.861.732c.217.553.349 1.33.349 2.375h2Zm-.477-3.077a9.224 9.224 0 0 0-1.11-2.177l-1.642 1.143c.353.506.643 1.074.869 1.706l1.883-.672Zm-1.102-2.165-3.16-4.682-1.657 1.119 3.159 4.682 1.658-1.119Zm-3.158-4.679c-1.91-2.853-3.066-4.703-3.514-5.601l-1.789.895c.515 1.031 1.746 2.987 3.642 5.819l1.661-1.113Zm-3.518-5.607c-.673-1.323-.995-2.616-.995-3.886h-2c0 1.622.414 3.223 1.213 4.793l1.782-.907Zm-.995-3.886c0-1.942.682-3.642 2.089-5.14l-1.457-1.369c-1.74 1.852-2.632 4.035-2.632 6.509h2Zm2.089-5.139c1.365-1.452 3.331-2.236 6.047-2.236v-2c-3.12 0-5.671.916-7.504 2.866l1.457 1.37Zm6.047-2.236c1.119 0 2.44.218 3.975.681l.577-1.915c-1.662-.501-3.184-.766-4.552-.766v2Zm3.989.685c1.58.452 2.803.724 3.548.724v-2c-.422 0-1.381-.185-2.999-.647l-.549 1.923Zm3.548.724c.737 0 1.484-.142 2.049-.613l-1.28-1.536c-.045.037-.236.149-.769.149v2Zm2.049-.613c.413-.344.762-.783 1.059-1.289l-1.724-1.014c-.21.357-.419.603-.615.767l1.28 1.536Zm.197-.796h1.104v-2h-1.104v2Zm.114-1.143-1.56 10.811 1.979.286 1.561-10.811-1.98-.286Zm-.571 9.954h-1.256v2h1.256v-2Zm-.265.867c-.335-2.503-.85-4.494-1.592-5.893l-1.767.937c.578 1.088 1.053 2.802 1.377 5.222l1.982-.266Zm-1.591-5.891c-.68-1.29-1.585-2.304-2.731-2.99-1.145-.685-2.471-1.008-3.939-1.008v2c1.17 0 2.128.255 2.912.724.783.469 1.452 1.188 1.989 2.207l1.769-.933Zm-6.67-3.998c-1.349 0-2.57.436-3.632 1.285l1.249 1.562c.715-.572 1.498-.847 2.383-.847v-2Zm-3.63 1.283c-1.154.917-1.672 2.253-1.672 3.828h2c0-1.114.345-1.808.916-2.262l-1.244-1.566Zm-1.672 3.828c0 1.163.213 2.231.671 3.177l1.8-.871c-.303-.628-.471-1.387-.471-2.306h-2Zm.682 3.2c.441.854 1.379 2.301 2.771 4.3l1.641-1.143c-1.399-2.01-2.263-3.355-2.634-4.074l-1.778.917Zm2.771 4.3 2.703 3.883 1.641-1.143-2.702-3.883-1.642 1.143Zm2.703 3.883c1.383 1.986 2.334 3.567 2.881 4.757l1.817-.836c-.62-1.348-1.648-3.041-3.057-5.064l-1.641 1.143Zm2.881 4.757c.52 1.131.784 2.357.784 3.693h2c0-1.608-.32-3.122-.967-4.529l-1.817.836Zm.784 3.693c0 2.407-1.005 4.441-3.129 6.149l1.254 1.558c2.545-2.047 3.875-4.632 3.875-7.707h-2Zm-3.129 6.149c-2.143 1.724-4.696 2.596-7.709 2.596v2c3.432 0 6.437-1.006 8.963-3.038l-1.254-1.558Zm-7.709 2.596c-.929 0-2.327-.196-4.236-.623l-.436 1.952c1.948.436 3.519.671 4.672.671v-2Zm-4.236-.623a84.575 84.575 0 0 0-2.313-.491c-.527-.102-.987-.18-1.255-.18v2c-.007 0 .054.002.231.029.159.024.373.062.645.114.544.106 1.295.265 2.256.48l.436-1.952Zm-3.568-.671c-.637 0-1.302.141-1.811.599l1.338 1.487c0-.001.022-.021.094-.043.076-.022.197-.043.379-.043v-2Zm-1.849.635c-.349.35-.625.815-.854 1.329l1.828.812c.177-.399.333-.619.44-.726l-1.414-1.415Zm.06.735h-1.256v2h1.256v-2Zm-.264 1.122 1.523-12.448-1.985-.243-1.523 12.448 1.985.243Z" mask="url(#c)"/><mask id="d" fill="#fff"><path d="M399.649 111.269c1.777.177 2.868.291 3.274.342a21 21 0 0 0 1.333.038c3.933 0 7.258-.901 9.973-2.703 2.741-1.827 4.111-4.897 4.111-9.212 0-3.273-.926-5.494-2.779-6.661-1.852-1.168-4.238-1.751-7.156-1.751-1.041 0-1.853.127-2.437.38-.583.254-1.002.825-1.256 1.713l-5.063 17.854Zm-20.022 27.255c1.827-.152 3.083-.482 3.768-.99 1.066-.761 1.942-2.347 2.627-4.758l9.592-34.488a25.81 25.81 0 0 0 .571-2.398c.203-.94.305-1.751.305-2.436 0-1.193-.431-2.005-1.294-2.437-.863-.457-2.259-.736-4.188-.837v-1.256h19.3c3.705 0 6.789.456 9.25 1.37 4.67 1.751 7.004 4.987 7.004 9.707 0 4.517-2.03 8.019-6.09 10.506-2.208 1.345-5.291 2.449-9.25 3.312l7.194 19.109c.711 1.878 1.523 3.261 2.436 4.15.914.888 2.272 1.37 4.074 1.446v1.256h-11.535l-9.592-25.238-5.025-.38-4.454 16.254c-.177.685-.342 1.332-.495 1.941-.253 1.244-.38 2.208-.38 2.893 0 1.193.418 2.018 1.256 2.475.837.456 2.195.723 4.073.799v1.256h-19.147v-1.256Zm55.5-15.95v-4.606h17.244v-17.244h4.606v17.244h17.245v4.606h-17.245v17.206h-4.606v-17.206h-17.244Z"/></mask><path fill="#fff" d="M399.649 111.269c1.777.177 2.868.291 3.274.342a21 21 0 0 0 1.333.038c3.933 0 7.258-.901 9.973-2.703 2.741-1.827 4.111-4.897 4.111-9.212 0-3.273-.926-5.494-2.779-6.661-1.852-1.168-4.238-1.751-7.156-1.751-1.041 0-1.853.127-2.437.38-.583.254-1.002.825-1.256 1.713l-5.063 17.854Zm-20.022 27.255c1.827-.152 3.083-.482 3.768-.99 1.066-.761 1.942-2.347 2.627-4.758l9.592-34.488a25.81 25.81 0 0 0 .571-2.398c.203-.94.305-1.751.305-2.436 0-1.193-.431-2.005-1.294-2.437-.863-.457-2.259-.736-4.188-.837v-1.256h19.3c3.705 0 6.789.456 9.25 1.37 4.67 1.751 7.004 4.987 7.004 9.707 0 4.517-2.03 8.019-6.09 10.506-2.208 1.345-5.291 2.449-9.25 3.312l7.194 19.109c.711 1.878 1.523 3.261 2.436 4.15.914.888 2.272 1.37 4.074 1.446v1.256h-11.535l-9.592-25.238-5.025-.38-4.454 16.254c-.177.685-.342 1.332-.495 1.941-.253 1.244-.38 2.208-.38 2.893 0 1.193.418 2.018 1.256 2.475.837.456 2.195.723 4.073.799v1.256h-19.147v-1.256Zm55.5-15.95v-4.606h17.244v-17.244h4.606v17.244h17.245v4.606h-17.245v17.206h-4.606v-17.206h-17.244Z"/><path fill="#fff" d="m399.649 111.269-.962-.273-.325 1.149 1.188.119.099-.995Zm3.274.342-.124.992.031.004.031.002.062-.998Zm11.306-2.665.553.834.002-.001-.555-.833Zm-9.517-15.53-.961-.275-.001.002.962.272Zm-25.085 45.108-.084-.996-.916.076v.92h1Zm3.768-.99-.581-.813-.007.005-.007.005.595.803Zm2.627-4.758.962.273.001-.005-.963-.268Zm9.592-34.488-.958-.284-.003.008-.002.008.963.268Zm.571-2.398-.977-.212-.002.01-.002.01.981.192Zm-.989-4.873-.468.884.01.005.01.006.448-.895Zm-4.188-.837h-1v.948l.948.05.052-.998Zm0-1.256v-1h-1v1h1Zm28.55 1.37.351-.936-.003-.002-.348.938Zm.914 20.213.52.854.002-.001-.522-.853Zm-9.25 3.312-.213-.977-1.131.246.408 1.083.936-.352Zm7.194 19.109-.936.353.001.001.935-.354Zm6.51 5.596h1v-.959l-.958-.04-.042.999Zm0 1.256v1h1v-1h-1Zm-11.535 0-.934.356.245.644h.689v-1Zm-9.592-25.238.934-.355-.225-.594-.634-.048-.075.997Zm-5.025-.38.075-.998-.822-.062-.218.795.965.265Zm-4.454 16.254-.964-.264-.004.013.968.251Zm-.495 1.941-.97-.242-.005.021-.004.021.979.2Zm4.949 6.167h1v-.96l-.96-.039-.04.999Zm0 1.256v1h1v-1h-1Zm-19.147 0h-1v1h1v-1Zm19.923-27.516c1.782.178 2.858.291 3.249.339l.248-1.984c-.421-.053-1.527-.168-3.298-.346l-.199 1.991Zm3.311.345c.43.027.895.04 1.395.04v-2c-.466 0-.889-.012-1.27-.036l-.125 1.996Zm1.395.04c4.088 0 7.615-.938 10.526-2.869l-1.106-1.667c-2.52 1.673-5.642 2.536-9.42 2.536v2Zm10.528-2.87c3.103-2.069 4.556-5.512 4.556-10.045h-2c0 4.096-1.287 6.795-3.666 8.38l1.11 1.665Zm4.556-10.045c0-3.435-.976-6.077-3.246-7.507l-1.066 1.692c1.436.904 2.312 2.703 2.312 5.815h2Zm-3.246-7.507c-2.057-1.297-4.643-1.905-7.689-1.905v2c2.791 0 4.975.558 6.623 1.597l1.066-1.692Zm-7.689-1.905c-1.102 0-2.071.131-2.835.463l.797 1.835c.403-.176 1.058-.298 2.038-.298v-2Zm-2.835.463c-.964.42-1.522 1.314-1.819 2.356l1.923.55c.21-.736.49-.983.693-1.072l-.797-1.834Zm-1.82 2.358-5.063 17.853 1.925.545 5.062-17.853-1.924-.545Zm-24.04 46.378c1.843-.154 3.352-.495 4.28-1.183l-1.19-1.607c-.442.327-1.446.646-3.257.797l.167 1.993Zm4.266-1.173c1.357-.969 2.309-2.841 3.008-5.299l-1.924-.546c-.672 2.364-1.471 3.664-2.246 4.218l1.162 1.627Zm3.009-5.304 9.593-34.488-1.927-.536-9.593 34.488 1.927.536Zm9.588-34.472a26.77 26.77 0 0 0 .594-2.491l-1.963-.382a25.179 25.179 0 0 1-.548 2.305l1.917.568Zm.59-2.471c.212-.983.327-1.87.327-2.647h-2c0 .592-.088 1.33-.282 2.224l1.955.423Zm.327-2.647c0-1.464-.559-2.687-1.847-3.331l-.895 1.789c.438.218.742.62.742 1.541h2Zm-1.826-3.32c-1.065-.564-2.644-.85-4.603-.953l-.105 1.997c1.898.1 3.11.373 3.772.723l.936-1.768Zm-3.656.046v-1.256h-2v1.256h2Zm-1-.256h19.3v-2h-19.3v2Zm19.3 0c3.631 0 6.588.448 8.902 1.307l.696-1.875c-2.608-.968-5.819-1.432-9.598-1.432v2Zm8.899 1.306c2.196.824 3.767 1.967 4.793 3.39 1.024 1.417 1.562 3.191 1.562 5.381h2c0-2.53-.628-4.735-1.94-6.552-1.308-1.814-3.24-3.164-5.713-4.091l-.702 1.872Zm6.355 8.771c0 4.147-1.829 7.336-5.613 9.653l1.045 1.706c4.338-2.657 6.568-6.472 6.568-11.359h-2Zm-5.61 9.652c-2.075 1.264-5.039 2.338-8.943 3.189l.426 1.954c4.013-.875 7.216-2.009 9.557-3.435l-1.04-1.708Zm-9.666 4.518 7.194 19.11 1.872-.705-7.194-19.109-1.872.704Zm7.195 19.111c.736 1.945 1.613 3.48 2.674 4.513l1.395-1.434c-.766-.745-1.513-1.975-2.199-3.787l-1.87.708Zm2.674 4.513c1.151 1.119 2.782 1.646 4.728 1.728l.085-1.998c-1.658-.07-2.742-.507-3.418-1.164l-1.395 1.434Zm3.771.729v1.256h2v-1.256h-2Zm1 .256h-11.535v2h11.535v-2Zm-10.6.645-9.593-25.238-1.869.711 9.593 25.238 1.869-.711Zm-10.452-25.88-5.025-.381-.151 1.995 5.025.38.151-1.994Zm-6.065.352-4.453 16.255 1.929.528 4.453-16.254-1.929-.529Zm-4.457 16.268c-.178.688-.344 1.338-.497 1.95l1.94.485c.152-.606.316-1.25.493-1.933l-1.936-.502Zm-.506 1.992c-.258 1.264-.401 2.307-.401 3.093h2c0-.583.11-1.469.36-2.693l-1.959-.4Zm-.401 3.093c0 1.451.534 2.674 1.777 3.353l.958-1.756c-.432-.236-.735-.662-.735-1.597h-2Zm1.777 3.353c1.049.572 2.601.843 4.511.92l.081-1.998c-1.845-.075-3.008-.337-3.634-.678l-.958 1.756Zm3.552-.079v1.256h2v-1.256h-2Zm1 .256h-19.147v2h19.147v-2Zm-18.147 1v-1.256h-2v1.256h2Zm54.5-17.206h-1v1h1v-1Zm0-4.606v-1h-1v1h1Zm17.244 0v1h1v-1h-1Zm0-17.244v-1h-1v1h1Zm4.606 0h1v-1h-1v1Zm0 17.244h-1v1h1v-1Zm17.245 0h1v-1h-1v1Zm0 4.606v1h1v-1h-1Zm-17.245 0v-1h-1v1h1Zm0 17.206v1h1v-1h-1Zm-4.606 0h-1v1h1v-1Zm0-17.206h1v-1h-1v1Zm-16.244 0v-4.606h-2v4.606h2Zm-1-3.606h17.244v-2h-17.244v2Zm18.244-1v-17.244h-2v17.244h2Zm-1-16.244h4.606v-2h-4.606v2Zm3.606-1v17.244h2v-17.244h-2Zm1 18.244h17.245v-2h-17.245v2Zm16.245-1v4.606h2v-4.606h-2Zm1 3.606h-17.245v2h17.245v-2Zm-18.245 1v17.206h2v-17.206h-2Zm1 16.206h-4.606v2h4.606v-2Zm-3.606 1v-17.206h-2v17.206h2Zm-1-18.206h-17.244v2h17.244v-2Z" mask="url(#d)"/><mask id="e" fill="#fff"><path d="M778.608 116.498c1.777.178 2.868.292 3.274.343.406.025.85.038 1.332.038 3.934 0 7.258-.901 9.974-2.703 2.741-1.827 4.111-4.898 4.111-9.212 0-3.274-.926-5.494-2.779-6.662-1.852-1.167-4.238-1.75-7.156-1.75-1.041 0-1.853.126-2.437.38-.583.254-1.002.825-1.256 1.713l-5.063 17.853Zm-20.022 27.256c1.827-.153 3.083-.483 3.768-.99 1.066-.761 1.941-2.348 2.627-4.758l9.592-34.489c.203-.685.394-1.484.571-2.398.203-.939.305-1.75.305-2.436 0-1.193-.431-2.005-1.294-2.436-.863-.457-2.259-.736-4.188-.838v-1.256h19.3c3.705 0 6.789.457 9.25 1.37 4.67 1.752 7.004 4.987 7.004 9.707 0 4.518-2.03 8.02-6.09 10.507-2.208 1.345-5.291 2.449-9.25 3.311l7.194 19.11c.711 1.878 1.523 3.261 2.436 4.149.914.888 2.272 1.37 4.074 1.447v1.256H792.35l-9.592-25.238-5.025-.381-4.454 16.254a315.63 315.63 0 0 0-.495 1.942c-.253 1.243-.38 2.208-.38 2.893 0 1.193.418 2.017 1.256 2.474.837.457 2.195.723 4.073.8v1.256h-19.147v-1.256Z"/></mask><path fill="#fff" d="M778.608 116.498c1.777.178 2.868.292 3.274.343.406.025.85.038 1.332.038 3.934 0 7.258-.901 9.974-2.703 2.741-1.827 4.111-4.898 4.111-9.212 0-3.274-.926-5.494-2.779-6.662-1.852-1.167-4.238-1.75-7.156-1.75-1.041 0-1.853.126-2.437.38-.583.254-1.002.825-1.256 1.713l-5.063 17.853Zm-20.022 27.256c1.827-.153 3.083-.483 3.768-.99 1.066-.761 1.941-2.348 2.627-4.758l9.592-34.489c.203-.685.394-1.484.571-2.398.203-.939.305-1.75.305-2.436 0-1.193-.431-2.005-1.294-2.436-.863-.457-2.259-.736-4.188-.838v-1.256h19.3c3.705 0 6.789.457 9.25 1.37 4.67 1.752 7.004 4.987 7.004 9.707 0 4.518-2.03 8.02-6.09 10.507-2.208 1.345-5.291 2.449-9.25 3.311l7.194 19.11c.711 1.878 1.523 3.261 2.436 4.149.914.888 2.272 1.37 4.074 1.447v1.256H792.35l-9.592-25.238-5.025-.381-4.454 16.254a315.63 315.63 0 0 0-.495 1.942c-.253 1.243-.38 2.208-.38 2.893 0 1.193.418 2.017 1.256 2.474.837.457 2.195.723 4.073.8v1.256h-19.147v-1.256Z"/><path fill="#fff" d="m778.608 116.498-.962-.273-.325 1.149 1.188.119.099-.995Zm3.274.343-.124.992.031.004.031.002.062-.998Zm11.306-2.665.553.833.002-.001-.555-.832Zm-9.517-15.531-.961-.275-.001.002.962.273Zm-25.085 45.109-.084-.997-.916.076v.921h1Zm3.768-.99-.581-.814-.007.005-.007.005.595.804Zm2.627-4.758.962.273.001-.005-.963-.268Zm9.592-34.489-.958-.284-.003.008-.002.008.963.268Zm.571-2.398-.977-.211-.002.01-.002.01.981.191Zm-.989-4.872-.468.883.01.006.01.005.448-.894Zm-4.188-.838h-1v.949l.948.05.052-.999Zm0-1.256v-1h-1v1h1Zm28.55 1.37.351-.936-.003-.001-.348.937Zm.914 20.214.52.854.002-.002-.522-.852Zm-9.25 3.311-.213-.977-1.131.247.408 1.083.936-.353Zm7.194 19.11-.936.352.001.002.935-.354Zm6.51 5.596h1v-.959l-.958-.041-.042 1Zm0 1.256v1h1v-1h-1Zm-11.535 0-.934.355.245.645h.689v-1Zm-9.592-25.238.934-.356-.225-.593-.634-.048-.075.997Zm-5.025-.381.075-.997-.822-.062-.218.795.965.264Zm-4.454 16.254-.964-.264-.004.013.968.251Zm-.495 1.942-.97-.243-.005.021-.005.022.98.2Zm4.949 6.167h1v-.961l-.96-.039-.04 1Zm0 1.256v1h1v-1h-1Zm-19.147 0h-1v1h1v-1Zm19.923-27.517c1.782.178 2.858.291 3.249.34l.248-1.985c-.421-.052-1.527-.168-3.298-.345l-.199 1.99Zm3.311.346c.43.027.895.04 1.394.04v-2c-.465 0-.888-.013-1.269-.036l-.125 1.996Zm1.394.04c4.089 0 7.616-.938 10.527-2.87l-1.106-1.666c-2.52 1.672-5.642 2.536-9.421 2.536v2Zm10.529-2.871c3.103-2.069 4.556-5.511 4.556-10.044h-2c0 4.095-1.287 6.794-3.666 8.38l1.11 1.664Zm4.556-10.044c0-3.435-.976-6.078-3.246-7.508l-1.066 1.692c1.436.905 2.312 2.704 2.312 5.816h2Zm-3.246-7.508c-2.057-1.296-4.643-1.905-7.689-1.905v2c2.791 0 4.975.559 6.623 1.597l1.066-1.692Zm-7.689-1.905c-1.102 0-2.071.131-2.835.464l.797 1.834c.403-.175 1.058-.298 2.038-.298v-2Zm-2.835.464c-.965.42-1.522 1.314-1.819 2.355l1.923.55c.21-.735.49-.983.693-1.071l-.797-1.834Zm-1.82 2.357-5.063 17.853 1.925.546 5.062-17.853-1.924-.546Zm-24.04 46.378c1.843-.154 3.352-.495 4.28-1.183l-1.19-1.607c-.442.327-1.446.646-3.257.797l.167 1.993Zm4.266-1.172c1.357-.969 2.309-2.842 3.008-5.299l-1.924-.547c-.672 2.364-1.471 3.664-2.246 4.218l1.162 1.628Zm3.009-5.304 9.593-34.489-1.927-.536-9.593 34.489 1.927.536Zm9.588-34.473c.215-.723.412-1.555.594-2.491l-1.963-.382a25.179 25.179 0 0 1-.548 2.305l1.917.568Zm.59-2.47c.212-.983.327-1.87.327-2.648h-2c0 .592-.089 1.33-.282 2.225l1.955.423Zm.327-2.648c0-1.464-.559-2.687-1.847-3.33l-.895 1.788c.438.219.742.62.742 1.542h2Zm-1.826-3.32c-1.065-.564-2.644-.85-4.603-.952l-.105 1.997c1.898.1 3.11.372 3.772.722l.936-1.767Zm-3.656.046v-1.256h-2v1.256h2Zm-1-.256h19.3v-2h-19.3v2Zm19.3 0c3.631 0 6.588.449 8.902 1.308l.696-1.875c-2.608-.968-5.819-1.433-9.598-1.433v2Zm8.899 1.307c2.196.823 3.767 1.966 4.793 3.389 1.024 1.418 1.562 3.192 1.562 5.381h2c0-2.53-.628-4.734-1.94-6.552-1.308-1.813-3.24-3.163-5.713-4.09l-.702 1.872Zm6.355 8.77c0 4.147-1.829 7.337-5.613 9.654l1.045 1.705c4.338-2.656 6.568-6.471 6.568-11.359h-2Zm-5.61 9.653c-2.075 1.264-5.039 2.337-8.943 3.188l.426 1.955c4.013-.875 7.216-2.009 9.557-3.435l-1.04-1.708Zm-9.666 4.518 7.194 19.109 1.872-.705-7.194-19.109-1.872.705Zm7.195 19.111c.736 1.944 1.613 3.48 2.674 4.512l1.395-1.434c-.766-.744-1.513-1.975-2.199-3.786l-1.87.708Zm2.674 4.512c1.151 1.119 2.782 1.646 4.728 1.729l.085-1.999c-1.658-.07-2.742-.507-3.418-1.164l-1.395 1.434Zm3.771.73v1.256h2v-1.256h-2Zm1 .256H792.35v2h11.535v-2Zm-10.6.644-9.593-25.238-1.869.711 9.593 25.238 1.869-.711Zm-10.452-25.879-5.025-.381-.151 1.994 5.025.381.151-1.994Zm-6.065.352-4.453 16.254 1.929.529 4.453-16.255-1.929-.528Zm-4.457 16.267c-.178.688-.344 1.338-.497 1.95l1.94.485c.152-.606.316-1.25.493-1.933l-1.936-.502Zm-.507 1.993c-.257 1.264-.4 2.306-.4 3.093h2c0-.584.11-1.47.36-2.693l-1.96-.4Zm-.4 3.093c0 1.451.534 2.674 1.777 3.352l.958-1.756c-.432-.235-.735-.661-.735-1.596h-2Zm1.777 3.352c1.049.572 2.601.843 4.511.921l.081-1.999c-1.845-.074-3.008-.336-3.634-.678l-.958 1.756Zm3.552-.078v1.256h2v-1.256h-2Zm1 .256h-19.147v2h19.147v-2Zm-18.147 1v-1.256h-2v1.256h2Z" mask="url(#e)"/><mask id="f" fill="#fff"><path d="m873.325 140.838 16.444-17.435c2.817-2.969 5.063-5.634 6.738-7.994 2.969-4.162 4.454-7.689 4.454-10.582 0-2.69-.876-4.974-2.627-6.852-1.725-1.878-4.098-2.817-7.118-2.817-2.842 0-5.329.952-7.461 2.855-1.142 1.04-2.297 2.538-3.464 4.492l-1.637-.571c1.954-5.279 5.025-8.933 9.212-10.963a15.987 15.987 0 0 1 6.966-1.561c3.985 0 7.119 1.358 9.403 4.073 2.309 2.715 3.464 5.735 3.464 9.06 0 2.893-.889 5.621-2.665 8.184-1.751 2.563-4.733 5.951-8.946 10.164l-14.998 14.998v.343h14.808c2.157 0 3.756-.343 4.796-1.028 1.066-.685 2.056-1.967 2.97-3.845l1.256.533-3.883 10.278h-27.712v-1.332Z"/></mask><path fill="#fff" d="m873.325 140.838 16.444-17.435c2.817-2.969 5.063-5.634 6.738-7.994 2.969-4.162 4.454-7.689 4.454-10.582 0-2.69-.876-4.974-2.627-6.852-1.725-1.878-4.098-2.817-7.118-2.817-2.842 0-5.329.952-7.461 2.855-1.142 1.04-2.297 2.538-3.464 4.492l-1.637-.571c1.954-5.279 5.025-8.933 9.212-10.963a15.987 15.987 0 0 1 6.966-1.561c3.985 0 7.119 1.358 9.403 4.073 2.309 2.715 3.464 5.735 3.464 9.06 0 2.893-.889 5.621-2.665 8.184-1.751 2.563-4.733 5.951-8.946 10.164l-14.998 14.998v.343h14.808c2.157 0 3.756-.343 4.796-1.028 1.066-.685 2.056-1.967 2.97-3.845l1.256.533-3.883 10.278h-27.712v-1.332Z"/><path fill="#fff" d="m873.325 140.838-.728-.687-.272.289v.398h1Zm16.444-17.435-.725-.688-.002.002.727.686Zm6.738-7.994-.814-.581-.001.002.815.579Zm1.827-17.434-.736.677.005.005.731-.682Zm-14.579.038-.666-.746-.008.007.674.739Zm-3.464 4.492-.329.944.769.268.418-.699-.858-.513Zm-1.637-.571-.938-.347-.354.955.963.336.329-.944Zm9.212-10.963-.43-.903-.006.003.436.9Zm16.369 2.512-.766.644.004.004.762-.648Zm.799 17.244-.822-.57-.004.006.826.564Zm-23.944 25.162-.707-.707-.293.293v.414h1Zm0 .343h-1v1h1v-1Zm19.604-1.028-.54-.841-.009.006.549.835Zm2.97-3.845.39-.921-.874-.37-.416.854.9.437Zm1.256.533.935.353.34-.898-.885-.376-.39.921Zm-3.883 10.278v1h.691l.245-.647-.936-.353Zm-27.712 0h-1v1h1v-1Zm.727-.646 16.445-17.435-1.455-1.372-16.445 17.434 1.455 1.373Zm16.443-17.433c2.837-2.99 5.117-5.692 6.828-8.103l-1.631-1.158c-1.639 2.31-3.852 4.937-6.648 7.885l1.451 1.376Zm6.826-8.101c3.009-4.217 4.64-7.955 4.64-11.163h-2c0 2.578-1.338 5.894-4.268 10.001l1.628 1.162Zm4.64-11.163c0-2.93-.963-5.462-2.895-7.534l-1.463 1.364c1.57 1.683 2.358 3.72 2.358 6.17h2Zm-2.89-7.529c-1.95-2.122-4.611-3.14-7.855-3.14v2c2.796 0 4.881.86 6.382 2.493l1.473-1.353Zm-7.855-3.14c-3.089 0-5.813 1.043-8.127 3.109l1.332 1.492c1.95-1.74 4.2-2.601 6.795-2.601v-2Zm-8.135 3.116c-1.239 1.13-2.452 2.716-3.649 4.718l1.717 1.026c1.139-1.906 2.235-3.315 3.279-4.266l-1.347-1.478Zm-2.461 4.287-1.637-.571-.658 1.888 1.637.571.658-1.888Zm-1.028.72c1.884-5.09 4.802-8.516 8.71-10.41l-.872-1.8c-4.467 2.165-7.69 6.049-9.714 11.516l1.876.694Zm8.704-10.408a14.989 14.989 0 0 1 6.536-1.463v-2a16.98 16.98 0 0 0-7.396 1.658l.86 1.805Zm6.536-1.463c3.73 0 6.568 1.257 8.637 3.717L905 92.839c-2.499-2.97-5.929-4.43-10.168-4.43v2Zm8.641 3.72c2.167 2.55 3.226 5.344 3.226 8.413h2c0-3.58-1.251-6.826-3.703-9.708l-1.523 1.296Zm3.226 8.413c0 2.673-.817 5.205-2.487 7.614l1.644 1.14c1.883-2.717 2.843-5.642 2.843-8.754h-2Zm-2.491 7.62c-1.697 2.485-4.626 5.82-8.827 10.021l1.415 1.414c4.224-4.224 7.259-7.665 9.064-10.307l-1.652-1.128Zm-8.827 10.021-14.998 14.998 1.414 1.414 14.999-14.998-1.415-1.414Zm-15.291 15.705v.343h2v-.343h-2Zm1 1.343h14.808v-2H881.09v2Zm14.808 0c2.226 0 4.062-.347 5.346-1.193l-1.099-1.67c-.797.524-2.159.863-4.247.863v2Zm5.337-1.187c1.29-.829 2.381-2.301 3.328-4.248l-1.799-.875c-.879 1.808-1.769 2.9-2.61 3.441l1.081 1.682Zm2.038-3.765 1.256.533.781-1.842-1.256-.533-.781 1.842Zm.711-.741-3.882 10.278 1.871.706 3.882-10.278-1.871-.706Zm-2.947 9.631h-27.712v2h27.712v-2Zm-26.712 1v-1.332h-2v1.332h2Z" mask="url(#f)"/><mask id="g" fill="#fff"><path d="M821.466 132.965c0-1.802 1.282-2.982 3.845-3.54 4.06-.914 7.08-2.018 9.06-3.312-1.929-1.167-4.974-2.284-9.136-3.35-2.512-.634-3.769-1.751-3.769-3.35 0-.812.254-1.459.762-1.941.507-.482 1.142-.723 1.903-.723 1.066 0 2.474 1.028 4.225 3.083 1.777 2.03 3.959 3.731 6.548 5.101v-.99c0-2.055-.343-4.149-1.028-6.281-.66-2.131-.99-3.616-.99-4.453 0-1.117.292-1.904.876-2.36.609-.457 1.256-.686 1.941-.686.787 0 1.434.279 1.942.838.507.533.761 1.269.761 2.208 0 .507-.368 1.954-1.104 4.339-.736 2.386-1.053 4.911-.952 7.575 2.487-1.573 4.606-3.375 6.357-5.405 1.751-2.056 3.16-3.083 4.226-3.083.736 0 1.383.253 1.941.761.558.482.838 1.142.838 1.979 0 1.701-1.13 2.779-3.388 3.236-3.807.761-6.928 1.954-9.365 3.578l.648.381c1.979 1.167 4.923 2.157 8.831 2.969 2.233.482 3.35 1.612 3.35 3.388 0 .964-.356 1.65-1.066 2.056-.685.406-1.32.609-1.903.609-1.066 0-2.5-1.092-4.302-3.274-1.776-2.183-3.654-3.769-5.634-4.758l-.533-.267v.533c0 3.045.356 5.571 1.066 7.575.736 2.005 1.104 3.211 1.104 3.617 0 .812-.292 1.548-.875 2.208-.559.634-1.295.951-2.208.951-.838 0-1.498-.304-1.98-.913s-.723-1.333-.723-2.17c0-.203.431-1.802 1.294-4.797.863-3.02 1.155-5.177.876-6.471l-.114-.533c-2.538 1.599-4.835 3.566-6.89 5.9-1.345 1.523-2.589 2.284-3.731 2.284-.914 0-1.599-.266-2.056-.799-.431-.533-.647-1.104-.647-1.713Z"/></mask><path fill="#fff" d="M821.466 132.965c0-1.802 1.282-2.982 3.845-3.54 4.06-.914 7.08-2.018 9.06-3.312-1.929-1.167-4.974-2.284-9.136-3.35-2.512-.634-3.769-1.751-3.769-3.35 0-.812.254-1.459.762-1.941.507-.482 1.142-.723 1.903-.723 1.066 0 2.474 1.028 4.225 3.083 1.777 2.03 3.959 3.731 6.548 5.101v-.99c0-2.055-.343-4.149-1.028-6.281-.66-2.131-.99-3.616-.99-4.453 0-1.117.292-1.904.876-2.36.609-.457 1.256-.686 1.941-.686.787 0 1.434.279 1.942.838.507.533.761 1.269.761 2.208 0 .507-.368 1.954-1.104 4.339-.736 2.386-1.053 4.911-.952 7.575 2.487-1.573 4.606-3.375 6.357-5.405 1.751-2.056 3.16-3.083 4.226-3.083.736 0 1.383.253 1.941.761.558.482.838 1.142.838 1.979 0 1.701-1.13 2.779-3.388 3.236-3.807.761-6.928 1.954-9.365 3.578l.648.381c1.979 1.167 4.923 2.157 8.831 2.969 2.233.482 3.35 1.612 3.35 3.388 0 .964-.356 1.65-1.066 2.056-.685.406-1.32.609-1.903.609-1.066 0-2.5-1.092-4.302-3.274-1.776-2.183-3.654-3.769-5.634-4.758l-.533-.267v.533c0 3.045.356 5.571 1.066 7.575.736 2.005 1.104 3.211 1.104 3.617 0 .812-.292 1.548-.875 2.208-.559.634-1.295.951-2.208.951-.838 0-1.498-.304-1.98-.913s-.723-1.333-.723-2.17c0-.203.431-1.802 1.294-4.797.863-3.02 1.155-5.177.876-6.471l-.114-.533c-2.538 1.599-4.835 3.566-6.89 5.9-1.345 1.523-2.589 2.284-3.731 2.284-.914 0-1.599-.266-2.056-.799-.431-.533-.647-1.104-.647-1.713Z"/><path fill="#fff" d="m825.311 129.425.213.977.007-.001-.22-.976Zm9.06-3.312.547.837 1.33-.87-1.359-.822-.518.855Zm-9.136-3.35.248-.968-.003-.001-.245.969Zm3.121-2.931-.761.649.009.01.752-.659Zm6.548 5.101-.468.884 1.468.777v-1.661h-1Zm-1.028-7.271-.955.296.003.01.952-.306Zm-.114-6.813-.6-.8-.008.006-.009.006.617.788Zm3.883.152-.74.672.007.009.008.008.725-.689Zm-1.295 14.122-.999.038.066 1.736 1.468-.929-.535-.845Zm6.357-5.405.758.653.004-.005-.762-.648Zm6.167-2.322-.673.74.01.008.01.009.653-.757Zm-2.55 5.215.196.981.002-.001-.198-.98Zm-9.365 3.578-.554-.832-1.328.885 1.375.809.507-.862Zm.648.381.507-.861v-.001l-.507.862Zm8.831 2.969.211-.977-.008-.002-.203.979Zm2.284 5.444-.496-.869-.007.004-.007.004.51.861Zm-6.205-2.665-.776.631.005.006.771-.637Zm-6.167-5.025.448-.894-1.448-.724v1.618h1Zm1.066 8.108-.942.334.003.011.939-.345Zm.229 5.825-.749-.663-.002.002.751.661Zm-3.617-6.929.961.277.001-.002-.962-.275Zm.876-6.471-.978.21v.001l.978-.211Zm-.114-.533.977-.209-.299-1.4-1.211.763.533.846Zm-6.89 5.9.749.663.001-.002-.75-.661Zm-5.787 1.485-.777.629.009.011.009.011.759-.651Zm.353-1.713c0-.632.212-1.107.639-1.501.46-.423 1.23-.803 2.419-1.062l-.426-1.954c-1.374.299-2.526.789-3.348 1.545-.854.787-1.284 1.803-1.284 2.972h2Zm3.065-2.564c4.102-.923 7.259-2.059 9.387-3.451l-1.094-1.674c-1.831 1.197-4.714 2.269-8.732 3.173l.439 1.952Zm9.358-5.143c-2.058-1.246-5.219-2.391-9.406-3.463l-.496 1.937c4.136 1.059 7.066 2.147 8.866 3.237l1.036-1.711Zm-9.409-3.464c-1.177-.298-1.947-.682-2.407-1.091-.427-.38-.607-.792-.607-1.29h-2c0 1.102.449 2.047 1.278 2.784.796.708 1.911 1.199 3.246 1.536l.49-1.939Zm-3.014-2.381c0-.585.174-.953.45-1.216l-1.377-1.45c-.739.702-1.073 1.628-1.073 2.666h2Zm.45-1.216c.305-.289.685-.448 1.215-.448v-2c-.993 0-1.882.323-2.592.998l1.377 1.45Zm1.215-.448c.224 0 .634.117 1.266.578.617.45 1.349 1.157 2.198 2.154l1.523-1.297c-.902-1.059-1.75-1.894-2.542-2.472-.776-.566-1.603-.963-2.445-.963v2Zm3.473 2.742c1.863 2.129 4.145 3.903 6.832 5.326l.936-1.768c-2.49-1.318-4.574-2.945-6.263-4.875l-1.505 1.317Zm8.3 4.442v-.99h-2v.99h2Zm0-.99c0-2.168-.362-4.365-1.076-6.587l-1.904.612c.656 2.042.98 4.032.98 5.975h2Zm-1.073-6.576c-.663-2.145-.945-3.493-.945-4.158h-2c0 1.009.379 2.63 1.035 4.749l1.91-.591Zm-.945-4.158c0-.969.254-1.386.492-1.573l-1.233-1.575c-.928.727-1.259 1.883-1.259 3.148h2Zm.476-1.56c.456-.343.896-.486 1.341-.486v-2c-.925 0-1.779.314-2.541.886l1.2 1.6Zm1.341-.486c.519 0 .893.17 1.202.51l1.48-1.345c-.707-.777-1.627-1.165-2.682-1.165v2Zm1.217.527c.286.3.486.763.486 1.519h2c0-1.122-.308-2.132-1.037-2.898l-1.449 1.379Zm.486 1.519c0 .108-.056.476-.245 1.219-.178.7-.449 1.64-.815 2.825l1.912.59c.37-1.2.651-2.176.841-2.922.179-.704.307-1.313.307-1.712h-2Zm-1.06 4.044c-.771 2.501-1.1 5.139-.995 7.908l1.999-.076c-.098-2.559.207-4.971.908-7.242l-1.912-.59Zm.539 8.715c2.562-1.62 4.758-3.485 6.58-5.597l-1.515-1.306c-1.681 1.949-3.723 3.687-6.134 5.213l1.069 1.69Zm6.584-5.602c.849-.996 1.581-1.703 2.198-2.153.632-.461 1.041-.578 1.266-.578v-2c-.842 0-1.67.396-2.445.963-.793.578-1.64 1.413-2.542 2.472l1.523 1.296Zm3.464-2.731c.48 0 .889.156 1.268.501l1.346-1.48a3.798 3.798 0 0 0-2.614-1.021v2Zm1.288.518c.307.265.491.632.491 1.222h2c0-1.084-.375-2.037-1.184-2.736l-1.307 1.514Zm.491 1.222c0 .604-.19 1.029-.538 1.361-.378.361-1.022.687-2.049.895l.397 1.96c1.232-.249 2.282-.691 3.033-1.408.781-.746 1.157-1.711 1.157-2.808h-2Zm-2.584 2.255c-3.896.779-7.149 2.011-9.723 3.727l1.109 1.664c2.299-1.532 5.288-2.686 9.006-3.429l-.392-1.962Zm-9.676 5.421.647.381 1.015-1.724-.648-.381-1.014 1.724Zm.647.38c2.118 1.25 5.187 2.267 9.135 3.087l.407-1.958c-3.867-.804-6.686-1.766-8.527-2.851l-1.015 1.722Zm9.128 3.086c1.006.217 1.638.555 2.012.934.351.354.549.817.549 1.476h2c0-1.117-.361-2.108-1.127-2.882-.742-.751-1.785-1.218-3.012-1.483l-.422 1.955Zm2.561 2.41c0 .682-.224.994-.562 1.187l.992 1.737c1.083-.619 1.57-1.677 1.57-2.924h-2Zm-.576 1.195c-.585.347-1.043.47-1.393.47v2c.817 0 1.627-.284 2.413-.749l-1.02-1.721Zm-1.393.47c-.209 0-.618-.118-1.27-.615-.631-.48-1.384-1.234-2.261-2.296l-1.542 1.274c.925 1.121 1.79 2.003 2.592 2.614.782.595 1.623 1.023 2.481 1.023v-2Zm-3.526-2.905c-1.843-2.264-3.827-3.954-5.963-5.022l-.894 1.789c1.823.912 3.595 2.394 5.306 4.495l1.551-1.262Zm-5.963-5.022-.532-.266-.895 1.789.533.266.894-1.789Zm-1.98.628v.533h2v-.533h-2Zm0 .533c0 3.114.362 5.762 1.124 7.909l1.885-.668c-.66-1.862-1.009-4.264-1.009-7.241h-2Zm1.127 7.92c.366.995.635 1.778.811 2.355.088.289.15.515.188.685.043.187.044.248.044.232h2c0-.22-.045-.462-.094-.677-.053-.234-.13-.51-.225-.824a49.01 49.01 0 0 0-.846-2.46l-1.878.689Zm1.043 3.272c0 .546-.188 1.051-.624 1.545l1.498 1.325c.73-.826 1.126-1.793 1.126-2.87h-2Zm-.626 1.547c-.352.4-.805.612-1.457.612v2c1.174 0 2.193-.422 2.958-1.291l-1.501-1.321Zm-1.457.612c-.56 0-.92-.185-1.196-.534l-1.568 1.241c.688.87 1.648 1.293 2.764 1.293v-2Zm-1.196-.534c-.331-.418-.507-.918-.507-1.549h-2c0 1.044.306 1.99.939 2.79l1.568-1.241Zm-.507-1.549c0 .085-.014.13.002.05.009-.049.026-.125.051-.231.051-.212.129-.514.236-.91.214-.791.535-1.933.966-3.429l-1.922-.553a223.037 223.037 0 0 0-.975 3.461c-.109.403-.192.726-.25.965a8.368 8.368 0 0 0-.069.313 1.75 1.75 0 0 0-.039.334h2Zm1.256-4.522c.439-1.538.741-2.881.895-4.023.153-1.13.171-2.124-.004-2.934l-1.955.422c.105.484.116 1.216-.023 2.244-.137 1.015-.413 2.26-.836 3.742l1.923.549Zm.892-6.955-.115-.533-1.955.419.114.533 1.956-.419Zm-1.625-1.17c-2.622 1.652-4.991 3.682-7.108 6.086l1.501 1.321c1.995-2.265 4.219-4.169 6.673-5.715l-1.066-1.692Zm-7.107 6.084c-1.293 1.465-2.283 1.946-2.981 1.946v2c1.587 0 3.084-1.041 4.48-2.621l-1.499-1.325Zm-2.981 1.946c-.716 0-1.083-.201-1.296-.45l-1.519 1.302c.701.817 1.704 1.148 2.815 1.148v-2Zm-1.278-.428c-.307-.379-.425-.733-.425-1.084h-2c0 .867.314 1.655.87 2.342l1.555-1.258Z" mask="url(#g)"/><mask id="h" fill="#fff"><path d="m595.239 194.378 12.736-13.503c2.182-2.299 3.921-4.363 5.218-6.191 2.3-3.223 3.45-5.955 3.45-8.196 0-2.084-.678-3.852-2.034-5.307-1.337-1.454-3.175-2.182-5.514-2.182-2.201 0-4.127.737-5.778 2.212-.885.805-1.779 1.965-2.683 3.478l-1.268-.442c1.514-4.088 3.892-6.918 7.135-8.491a12.376 12.376 0 0 1 5.395-1.208c3.086 0 5.513 1.051 7.282 3.154 1.789 2.103 2.683 4.442 2.683 7.017 0 2.241-.688 4.354-2.063 6.339-1.357 1.985-3.666 4.609-6.929 7.871l-11.616 11.617v.265h11.469c1.67 0 2.909-.265 3.715-.796.825-.531 1.592-1.523 2.299-2.978l.973.413-3.007 7.96h-21.463v-1.032Z"/></mask><path fill="#fff" d="m595.239 194.378 12.736-13.503c2.182-2.299 3.921-4.363 5.218-6.191 2.3-3.223 3.45-5.955 3.45-8.196 0-2.084-.678-3.852-2.034-5.307-1.337-1.454-3.175-2.182-5.514-2.182-2.201 0-4.127.737-5.778 2.212-.885.805-1.779 1.965-2.683 3.478l-1.268-.442c1.514-4.088 3.892-6.918 7.135-8.491a12.376 12.376 0 0 1 5.395-1.208c3.086 0 5.513 1.051 7.282 3.154 1.789 2.103 2.683 4.442 2.683 7.017 0 2.241-.688 4.354-2.063 6.339-1.357 1.985-3.666 4.609-6.929 7.871l-11.616 11.617v.265h11.469c1.67 0 2.909-.265 3.715-.796.825-.531 1.592-1.523 2.299-2.978l.973.413-3.007 7.96h-21.463v-1.032Z"/><path fill="#fff" d="m595.239 194.378-.728-.686-.272.289v.397h1Zm12.736-13.503-.725-.688-.002.002.727.686Zm5.218-6.191-.814-.581-.001.002.815.579Zm1.416-13.503-.737.677.005.005.732-.682Zm-11.292.03-.666-.746-.008.006.674.74Zm-2.683 3.478-.329.945.769.268.418-.7-.858-.513Zm-1.268-.442-.938-.347-.353.956.962.335.329-.944Zm7.135-8.491-.43-.902-.006.002.436.9Zm12.677 1.946-.765.644.004.004.761-.648Zm.62 13.356-.822-.57-.004.006.826.564Zm-18.545 19.488-.707-.708-.293.293v.415h1Zm0 .265h-1v1h1v-1Zm15.184-.796-.541-.841-.009.006.55.835Zm2.299-2.978.391-.92-.875-.371-.415.854.899.437Zm.973.413.936.353.339-.898-.884-.376-.391.921Zm-3.007 7.96v1h.691l.244-.646-.935-.354Zm-21.463 0h-1v1h1v-1Zm.727-.346 12.737-13.503-1.455-1.372-12.737 13.503 1.455 1.372Zm12.735-13.5c2.202-2.322 3.975-4.423 5.308-6.301l-1.631-1.158c-1.261 1.777-2.967 3.804-5.128 6.082l1.451 1.377Zm5.307-6.299c2.338-3.278 3.635-6.222 3.635-8.777h-2c0 1.926-1.003 4.447-3.264 7.615l1.629 1.162Zm3.635-8.777c0-2.323-.765-4.34-2.303-5.989l-1.463 1.364c1.175 1.26 1.766 2.781 1.766 4.625h2Zm-2.298-5.984c-1.561-1.698-3.687-2.505-6.25-2.505v2c2.116 0 3.665.648 4.777 1.859l1.473-1.354Zm-6.25-2.505c-2.448 0-4.611.829-6.444 2.466l1.332 1.491c1.469-1.311 3.158-1.957 5.112-1.957v-2Zm-6.452 2.472c-.982.895-1.935 2.144-2.868 3.706l1.717 1.025c.876-1.465 1.712-2.536 2.498-3.252l-1.347-1.479Zm-1.68 3.274-1.267-.442-.659 1.888 1.268.443.658-1.889Zm-.659.849c1.444-3.9 3.669-6.501 6.633-7.938l-.872-1.8c-3.523 1.708-6.054 4.768-7.637 9.044l1.876.694Zm6.627-7.935a11.377 11.377 0 0 1 4.965-1.111v-2a13.38 13.38 0 0 0-5.825 1.306l.86 1.805Zm4.965-1.111c2.832 0 4.963.95 6.517 2.798l1.531-1.288c-1.984-2.358-4.708-3.51-8.048-3.51v2Zm6.521 2.802c1.646 1.936 2.444 4.049 2.444 6.369h2c0-2.83-.99-5.395-2.921-7.665l-1.523 1.296Zm2.444 6.369c0 2.021-.616 3.937-1.885 5.769l1.643 1.139c1.483-2.138 2.242-4.448 2.242-6.908h-2Zm-1.889 5.775c-1.303 1.906-3.559 4.477-6.81 7.728l1.414 1.415c3.275-3.275 5.637-5.951 7.047-8.015l-1.651-1.128Zm-6.81 7.728-11.616 11.616 1.414 1.415 11.616-11.616-1.414-1.415Zm-11.909 12.324v.265h2v-.265h-2Zm1 1.265h11.469v-2h-11.469v2Zm11.469 0c1.74 0 3.215-.27 4.264-.961l-1.099-1.67c-.562.37-1.564.631-3.165.631v2Zm4.255-.955c1.05-.675 1.917-1.858 2.658-3.381l-1.798-.875c-.674 1.385-1.34 2.187-1.941 2.574l1.081 1.682Zm1.369-2.898.973.412.781-1.841-.973-.412-.781 1.841Zm.428-.861-3.008 7.96 1.871.707 3.008-7.961-1.871-.706Zm-2.072 7.313h-21.463v2h21.463v-2Zm-20.463 1v-1.032h-2v1.032h2Z" mask="url(#h)"/></svg>