<svg xmlns="http://www.w3.org/2000/svg" width="500" height="250" fill="none"><mask id="a" fill="#fff"><path d="M67.005 95.778c2.659.265 4.292.436 4.9.512.607.038 1.272.057 1.994.057 5.887 0 10.862-1.348 14.926-4.045 4.102-2.734 6.153-7.33 6.153-13.787 0-4.9-1.386-8.223-4.159-9.97-2.772-1.747-6.343-2.621-10.71-2.621-1.558 0-2.773.19-3.647.57-.873.38-1.5 1.234-1.88 2.564l-7.577 26.72ZM37.037 136.57c2.735-.228 4.615-.722 5.64-1.481 1.596-1.14 2.906-3.514 3.932-7.122L60.966 76.35c.304-1.025.588-2.222.854-3.59.304-1.405.456-2.62.456-3.645 0-1.786-.646-3.001-1.937-3.647-1.291-.683-3.38-1.101-6.267-1.253v-1.88h28.885c5.546 0 10.16.683 13.845 2.05 6.988 2.621 10.483 7.464 10.483 14.529 0 6.76-3.039 12.002-9.116 15.724-3.304 2.013-7.92 3.665-13.844 4.957l10.767 28.6c1.064 2.811 2.28 4.881 3.647 6.21 1.367 1.329 3.399 2.051 6.096 2.165v1.88H87.572l-14.357-37.773-7.52-.569-6.666 24.327a336.052 336.052 0 0 0-.741 2.906c-.38 1.861-.57 3.304-.57 4.329 0 1.786.627 3.02 1.88 3.704 1.254.683 3.286 1.082 6.097 1.196v1.88H37.037v-1.88Z"/></mask><path fill="#fff" d="M67.005 95.778c2.659.265 4.292.436 4.9.512.607.038 1.272.057 1.994.057 5.887 0 10.862-1.348 14.926-4.045 4.102-2.734 6.153-7.33 6.153-13.787 0-4.9-1.386-8.223-4.159-9.97-2.772-1.747-6.343-2.621-10.71-2.621-1.558 0-2.773.19-3.647.57-.873.38-1.5 1.234-1.88 2.564l-7.577 26.72ZM37.037 136.57c2.735-.228 4.615-.722 5.64-1.481 1.596-1.14 2.906-3.514 3.932-7.122L60.966 76.35c.304-1.025.588-2.222.854-3.59.304-1.405.456-2.62.456-3.645 0-1.786-.646-3.001-1.937-3.647-1.291-.683-3.38-1.101-6.267-1.253v-1.88h28.885c5.546 0 10.16.683 13.845 2.05 6.988 2.621 10.483 7.464 10.483 14.529 0 6.76-3.039 12.002-9.116 15.724-3.304 2.013-7.92 3.665-13.844 4.957l10.767 28.6c1.064 2.811 2.28 4.881 3.647 6.21 1.367 1.329 3.399 2.051 6.096 2.165v1.88H87.572l-14.357-37.773-7.52-.569-6.666 24.327a336.052 336.052 0 0 0-.741 2.906c-.38 1.861-.57 3.304-.57 4.329 0 1.786.627 3.02 1.88 3.704 1.254.683 3.286 1.082 6.097 1.196v1.88H37.037v-1.88Z"/><path fill="#fff" d="m67.005 95.778-.962-.273-.326 1.149 1.188.119.1-.995Zm4.9.512-.124.993.03.004.031.001.063-.998Zm16.92-3.988.553.834.002-.002-.555-.832ZM74.582 69.057l-.961-.274v.002l.961.273ZM37.037 136.57l-.083-.996-.917.076v.92h1Zm5.64-1.481-.58-.814-.008.005-.007.005.596.804Zm3.932-7.122.962.274.001-.006-.963-.268ZM60.966 76.35l-.959-.284-.002.008-.003.008.964.268Zm.854-3.59-.977-.21-.002.01-.002.01.981.19Zm-1.48-7.292-.469.884.01.005.01.006.448-.895Zm-6.268-1.253h-1v.949l.947.05.053-1Zm0-1.88v-1h-1v1h1Zm42.73 2.05.35-.936h-.002l-.348.937Zm1.367 30.253.52.854.002-.001-.522-.853Zm-13.844 4.957-.213-.977-1.131.246.408 1.083.936-.352Zm10.767 28.6-.936.352.001.002.935-.354Zm9.743 8.375h1v-.959l-.958-.04-.042.999Zm0 1.88v1h1v-1h-1Zm-17.263 0-.935.355.245.645h.69v-1Zm-14.357-37.773.935-.355-.226-.594-.634-.048-.075.997Zm-7.52-.569.075-.998-.822-.062-.218.795.965.265Zm-6.666 24.327-.965-.264-.003.013.968.251Zm-.741 2.906-.97-.243-.005.021-.005.022.98.2Zm7.407 9.229h1v-.96l-.96-.039-.04.999Zm0 1.88v1h1v-1h-1Zm-28.658 0h-1v1h1v-1Zm29.868-41.677c2.664.266 4.283.436 4.876.51l.247-1.985c-.622-.078-2.27-.25-4.924-.515l-.199 1.99Zm4.937.516c.632.039 1.318.058 2.057.058v-2c-.705 0-1.349-.018-1.932-.055l-.125 1.996Zm2.057.058c6.042 0 11.22-1.385 15.48-4.211l-1.107-1.667c-3.868 2.567-8.642 3.878-14.373 3.878v2Zm15.481-4.213c4.464-2.976 6.598-7.943 6.598-14.619h-2c0 6.238-1.968 10.462-5.707 12.955l1.11 1.664Zm6.598-14.619c0-5.061-1.436-8.806-4.625-10.816l-1.067 1.692c2.356 1.484 3.692 4.386 3.692 9.124h2Zm-4.625-10.816c-2.978-1.876-6.75-2.775-11.244-2.775v2c4.24 0 7.61.848 10.177 2.467l1.067-1.692Zm-11.244-2.775c-1.618 0-2.991.194-4.045.653l.797 1.834c.693-.301 1.751-.487 3.248-.487v-2Zm-4.045.653c-1.255.545-2.02 1.723-2.443 3.206l1.923.55c.336-1.177.824-1.708 1.317-1.922l-.797-1.834Zm-2.444 3.208-7.577 26.72 1.924.546 7.577-26.72-1.924-.546Zm-36.5 68.782c2.752-.23 4.884-.735 6.153-1.675l-1.19-1.607c-.783.579-2.41 1.062-5.129 1.289l.166 1.993Zm6.139-1.664c1.885-1.347 3.273-4.008 4.312-7.662l-1.924-.547c-1.012 3.562-2.246 5.649-3.55 6.581l1.162 1.628Zm4.313-7.668L61.93 76.618l-1.927-.536-14.357 51.617 1.927.536Zm14.353-51.6c.315-1.065.607-2.294.877-3.683l-1.963-.382a37.932 37.932 0 0 1-.832 3.496l1.918.568Zm.873-3.663c.313-1.45.478-2.739.478-3.857h-2c0 .932-.139 2.073-.433 3.434l1.955.423Zm.478-3.857c0-2.057-.773-3.683-2.49-4.541l-.894 1.789c.866.433 1.384 1.237 1.384 2.752h2Zm-2.469-4.53c-1.493-.79-3.765-1.215-6.682-1.369l-.105 1.997c2.856.15 4.761.562 5.851 1.139l.936-1.768Zm-5.735-.37v-1.88h-2v1.88h2Zm-1-.88h28.885v-2H54.072v2Zm28.885 0c5.472 0 9.96.675 13.497 1.988l.696-1.875c-3.832-1.422-8.574-2.113-14.193-2.113v2Zm13.493 1.987c3.356 1.259 5.797 3.02 7.403 5.246 1.603 2.222 2.432 4.984 2.432 8.346h2c0-3.703-.919-6.895-2.81-9.516-1.889-2.617-4.69-4.586-8.322-5.949l-.703 1.873Zm9.835 13.592c0 6.39-2.839 11.32-8.638 14.871l1.044 1.706c6.355-3.892 9.594-9.446 9.594-16.577h-2Zm-8.636 14.87c-3.172 1.932-7.666 3.554-13.537 4.834l.425 1.954c5.98-1.303 10.715-2.986 14.152-5.08l-1.04-1.708Zm-14.26 6.163 10.767 28.6 1.872-.704-10.768-28.6-1.871.704Zm10.768 28.602c1.089 2.877 2.369 5.1 3.885 6.573l1.394-1.434c-1.22-1.185-2.37-3.103-3.408-5.847l-1.87.708Zm3.885 6.573c1.604 1.56 3.91 2.327 6.75 2.447l.085-1.998c-2.553-.108-4.311-.784-5.441-1.883l-1.394 1.434Zm5.793 1.448v1.88h2v-1.88h-2Zm1 .88H87.572v2h17.263v-2Zm-16.328.645L74.15 100.322l-1.87.711 14.357 37.772 1.87-.71ZM73.29 99.68l-7.52-.57-.151 1.995 7.52.569.151-1.994Zm-8.56.163-6.666 24.328 1.93.528 6.665-24.327-1.929-.529Zm-6.67 24.341a345.514 345.514 0 0 0-.742 2.914l1.94.485c.227-.908.473-1.874.739-2.897l-1.936-.502Zm-.752 2.957c-.384 1.881-.59 3.402-.59 4.529h2c0-.924.174-2.289.55-4.13l-1.96-.399Zm-.59 4.529c0 2.044.742 3.676 2.402 4.582l.957-1.756c-.847-.462-1.359-1.299-1.359-2.826h-2Zm2.402 4.582c1.464.799 3.69 1.202 6.534 1.317l.081-1.998c-2.778-.113-4.616-.507-5.658-1.075l-.957 1.756Zm5.575.318v1.88h2v-1.88h-2Zm1 .88H37.037v2h28.658v-2Zm-27.658 1v-1.88h-2v1.88h2Z" mask="url(#a)"/><mask id="b" fill="#fff"><path d="M228.51 36.495c.102-.33.165-.66.191-.99.025-.33.038-.596.038-.799 0-.863-.356-1.383-1.066-1.56-.685-.203-2.068-.292-4.149-.267v-1.256a864.46 864.46 0 0 0 3.92-.533 126.15 126.15 0 0 0 2.932-.419c1.421-.254 3.146-.634 5.177-1.142.177 0 .355.127.533.38l-11.991 45.757a96.38 96.38 0 0 0-.495 1.98 3.135 3.135 0 0 0-.076.684c0 .483.088.901.266 1.257.178.33.508.494.99.494.913 0 2.106-.812 3.578-2.436 1.472-1.624 2.715-3.197 3.731-4.72l1.027.723c-2.182 3.223-3.882 5.456-5.101 6.7-2.106 2.106-4.225 3.16-6.357 3.16-.913 0-1.725-.229-2.436-.686-1.091-.685-1.637-1.852-1.637-3.502 0-.634.102-1.484.305-2.55.127-.635.292-1.37.495-2.208l10.125-38.067Zm16.179 37.99c0 2.107.52 3.858 1.56 5.254 1.066 1.37 2.614 2.055 4.644 2.055 4.137 0 7.804-3.121 11.002-9.364 2.715-5.355 4.073-10.278 4.073-14.77 0-1.903-.229-3.438-.686-4.606-.888-2.208-2.512-3.312-4.872-3.312-3.883 0-7.524 2.906-10.925 8.718-3.198 5.43-4.796 10.773-4.796 16.026Zm16.14-26.341c4.263 0 7.27 1.142 9.021 3.426 1.751 2.258 2.627 4.936 2.627 8.032 0 5.38-2.373 10.658-7.118 15.835-4.898 5.38-10.126 8.07-15.684 8.07-3.502 0-6.306-1.015-8.412-3.045-2.107-2.03-3.16-4.885-3.16-8.565 0-5.558 2.36-10.874 7.08-15.95 4.822-5.202 10.037-7.803 15.646-7.803Zm27.712 15.036c0 1.573.241 2.83.723 3.768.812 1.549 2.272 2.323 4.378 2.323 2.284 0 4.314-1.447 6.091-4.34 1.801-2.918 2.702-6.129 2.702-9.63 0-1.676-.368-2.983-1.104-3.922-.736-.964-1.84-1.446-3.311-1.446-2.843 0-5.139 1.51-6.89 4.53-1.726 3.02-2.589 5.925-2.589 8.717Zm1.332 33.955c3.02 0 5.52-.723 7.499-2.17 2.005-1.446 3.008-3.172 3.008-5.177 0-1.522-.521-2.804-1.561-3.844-.558-.559-1.459-1.155-2.703-1.79-1.04-.507-2.804-1.23-5.291-2.17-2.462-.964-3.883-1.446-4.263-1.446-.66 0-1.942.876-3.845 2.627-1.903 1.776-2.855 3.781-2.855 6.014 0 3.376 1.459 5.697 4.378 6.966 1.522.66 3.4.99 5.633.99Zm-14.236-6.966c0-1.903.723-3.718 2.169-5.444 1.472-1.7 3.794-3.4 6.966-5.1-.634-.406-1.154-.825-1.56-1.257-.406-.456-.609-1.053-.609-1.789 0-1.04.723-2.233 2.169-3.578.813-.761 2.132-1.764 3.959-3.007-1.624-.61-3.02-1.472-4.187-2.589-1.421-1.497-2.132-3.438-2.132-5.824 0-3.832 1.498-7.017 4.492-9.555 2.995-2.537 6.7-3.806 11.116-3.806 2.309 0 4.263.368 5.862 1.104 1.599.71 2.538 1.307 2.817 1.789h5.139v3.045h-3.883a15.6 15.6 0 0 1 .342 1.523c.077.457.115 1.104.115 1.941 0 4.111-1.599 7.347-4.797 9.707-3.172 2.36-6.598 3.54-10.278 3.54-.38 0-.736-.012-1.065-.038-.33-.05-.736-.127-1.219-.228-.38 0-.9.368-1.56 1.104-.686.736-1.028 1.396-1.028 1.98 0 .862 2.791 2.334 8.375 4.415 5.557 2.106 8.336 5.19 8.336 9.25 0 3.045-1.396 5.71-4.187 7.994-2.792 2.31-7.004 3.464-12.638 3.464-3.908 0-7.005-.837-9.289-2.512-2.283-1.675-3.425-3.718-3.425-6.129Z"/></mask><path fill="#fff" d="M228.51 36.495c.102-.33.165-.66.191-.99.025-.33.038-.596.038-.799 0-.863-.356-1.383-1.066-1.56-.685-.203-2.068-.292-4.149-.267v-1.256a864.46 864.46 0 0 0 3.92-.533 126.15 126.15 0 0 0 2.932-.419c1.421-.254 3.146-.634 5.177-1.142.177 0 .355.127.533.38l-11.991 45.757a96.38 96.38 0 0 0-.495 1.98 3.135 3.135 0 0 0-.076.684c0 .483.088.901.266 1.257.178.33.508.494.99.494.913 0 2.106-.812 3.578-2.436 1.472-1.624 2.715-3.197 3.731-4.72l1.027.723c-2.182 3.223-3.882 5.456-5.101 6.7-2.106 2.106-4.225 3.16-6.357 3.16-.913 0-1.725-.229-2.436-.686-1.091-.685-1.637-1.852-1.637-3.502 0-.634.102-1.484.305-2.55.127-.635.292-1.37.495-2.208l10.125-38.067Zm16.179 37.99c0 2.107.52 3.858 1.56 5.254 1.066 1.37 2.614 2.055 4.644 2.055 4.137 0 7.804-3.121 11.002-9.364 2.715-5.355 4.073-10.278 4.073-14.77 0-1.903-.229-3.438-.686-4.606-.888-2.208-2.512-3.312-4.872-3.312-3.883 0-7.524 2.906-10.925 8.718-3.198 5.43-4.796 10.773-4.796 16.026Zm16.14-26.341c4.263 0 7.27 1.142 9.021 3.426 1.751 2.258 2.627 4.936 2.627 8.032 0 5.38-2.373 10.658-7.118 15.835-4.898 5.38-10.126 8.07-15.684 8.07-3.502 0-6.306-1.015-8.412-3.045-2.107-2.03-3.16-4.885-3.16-8.565 0-5.558 2.36-10.874 7.08-15.95 4.822-5.202 10.037-7.803 15.646-7.803Zm27.712 15.036c0 1.573.241 2.83.723 3.768.812 1.549 2.272 2.323 4.378 2.323 2.284 0 4.314-1.447 6.091-4.34 1.801-2.918 2.702-6.129 2.702-9.63 0-1.676-.368-2.983-1.104-3.922-.736-.964-1.84-1.446-3.311-1.446-2.843 0-5.139 1.51-6.89 4.53-1.726 3.02-2.589 5.925-2.589 8.717Zm1.332 33.955c3.02 0 5.52-.723 7.499-2.17 2.005-1.446 3.008-3.172 3.008-5.177 0-1.522-.521-2.804-1.561-3.844-.558-.559-1.459-1.155-2.703-1.79-1.04-.507-2.804-1.23-5.291-2.17-2.462-.964-3.883-1.446-4.263-1.446-.66 0-1.942.876-3.845 2.627-1.903 1.776-2.855 3.781-2.855 6.014 0 3.376 1.459 5.697 4.378 6.966 1.522.66 3.4.99 5.633.99Zm-14.236-6.966c0-1.903.723-3.718 2.169-5.444 1.472-1.7 3.794-3.4 6.966-5.1-.634-.406-1.154-.825-1.56-1.257-.406-.456-.609-1.053-.609-1.789 0-1.04.723-2.233 2.169-3.578.813-.761 2.132-1.764 3.959-3.007-1.624-.61-3.02-1.472-4.187-2.589-1.421-1.497-2.132-3.438-2.132-5.824 0-3.832 1.498-7.017 4.492-9.555 2.995-2.537 6.7-3.806 11.116-3.806 2.309 0 4.263.368 5.862 1.104 1.599.71 2.538 1.307 2.817 1.789h5.139v3.045h-3.883a15.6 15.6 0 0 1 .342 1.523c.077.457.115 1.104.115 1.941 0 4.111-1.599 7.347-4.797 9.707-3.172 2.36-6.598 3.54-10.278 3.54-.38 0-.736-.012-1.065-.038-.33-.05-.736-.127-1.219-.228-.38 0-.9.368-1.56 1.104-.686.736-1.028 1.396-1.028 1.98 0 .862 2.791 2.334 8.375 4.415 5.557 2.106 8.336 5.19 8.336 9.25 0 3.045-1.396 5.71-4.187 7.994-2.792 2.31-7.004 3.464-12.638 3.464-3.908 0-7.005-.837-9.289-2.512-2.283-1.675-3.425-3.718-3.425-6.129Z"/><path fill="#fff" d="m228.51 36.495-.955-.294-.006.019-.005.018.966.257Zm-.837-3.35-.284.96.02.005.021.006.243-.97Zm-4.149-.266h-1v1.012l1.012-.012-.012-1Zm0-1.256-.133-.991-.867.115v.876h1Zm3.92-.533-.134-.991h-.002l.136.99Zm2.932-.419.164.987.011-.002-.175-.985Zm5.177-1.142v-1h-.124l-.119.03.243.97Zm.533.38.967.254.117-.447-.265-.38-.819.574Zm-11.991 45.757-.968-.254-.001.006.969.248Zm-.305 3.92-.894.448.006.013.008.014.88-.475Zm4.568-1.94-.741-.672.741.671Zm3.731-4.721.575-.818-.839-.59-.568.853.832.555Zm1.027.723.828.56.551-.812-.803-.566-.576.818Zm-5.101 6.7.708.707.007-.007-.715-.7Zm-8.793 2.474.541-.841-.009-.006-.532.847Zm-1.332-6.052-.981-.197-.002.01.983.187Zm.495-2.208-.967-.257-.003.01-.002.011.972.236Zm11.081-37.773c.122-.397.2-.8.232-1.207l-1.994-.153c-.02.253-.069.51-.149.772l1.911.588Zm.232-1.207c.026-.341.041-.636.041-.876h-2c0 .167-.011.405-.035.723l1.994.153Zm.041-.876c0-.56-.115-1.124-.441-1.601-.338-.495-.831-.792-1.383-.93l-.485 1.94c.159.04.199.092.216.118.03.043.093.17.093.473h2Zm-1.782-2.52c-.853-.252-2.388-.332-4.446-.307l.025 2c2.104-.026 3.336.072 3.853.225l.568-1.917Zm-3.433.693v-1.256h-2v1.256h2Zm-.868-.265c1.144-.152 2.452-.33 3.925-.533l-.273-1.982c-1.471.203-2.776.38-3.917.533l.265 1.982Zm3.923-.533c1.494-.203 2.486-.344 2.961-.423l-.329-1.973c-.439.073-1.4.21-2.901.414l.269 1.982Zm2.972-.425c1.451-.26 3.201-.646 5.244-1.157l-.485-1.94c-2.017.504-3.719.88-5.11 1.128l.351 1.969Zm5.002-1.127a.55.55 0 0 1-.315-.09c-.034-.025-.02-.025.028.044l1.639-1.147c-.228-.325-.667-.807-1.352-.807v2Zm-.435-.873-11.991 45.756 1.935.507 11.991-45.756-1.935-.507Zm-11.992 45.762a100.127 100.127 0 0 0-.502 2.01l1.952.434c.046-.209.206-.85.487-1.948l-1.937-.496Zm-.502 2.01c-.067.298-.1.6-.1.902h2c0-.153.017-.309.052-.468l-1.952-.434Zm-.1.902c0 .605.111 1.183.372 1.704l1.789-.895c-.095-.19-.161-.449-.161-.809h-2Zm.386 1.73c.403.75 1.143 1.021 1.87 1.021v-2c-.132 0-.172-.023-.162-.018a.148.148 0 0 1 .053.05l-1.761.948Zm1.87 1.021c.743 0 1.469-.323 2.142-.782.686-.467 1.412-1.139 2.177-1.982l-1.482-1.343c-.707.78-1.314 1.327-1.82 1.672-.519.353-.847.435-1.017.435v2Zm4.319-2.764c1.499-1.654 2.774-3.266 3.822-4.837l-1.664-1.11c-.983 1.475-2.195 3.01-3.64 4.604l1.482 1.343Zm2.414-4.574 1.028.723 1.151-1.636-1.028-.723-1.151 1.636Zm.775-.655c-2.179 3.218-3.837 5.386-4.987 6.56l1.429 1.4c1.286-1.313 3.029-3.612 5.214-6.84l-1.656-1.12Zm-4.98 6.553c-1.994 1.994-3.874 2.866-5.65 2.866v2c2.488 0 4.846-1.234 7.065-3.452l-1.415-1.414Zm-5.65 2.866c-.738 0-1.359-.181-1.895-.526l-1.082 1.682c.885.57 1.888.844 2.977.844v-2Zm-1.904-.532c-.718-.45-1.169-1.24-1.169-2.655h-2c0 1.884.641 3.43 2.105 4.35l1.064-1.695Zm-1.169-2.655c0-.543.089-1.322.287-2.363l-1.965-.374c-.207 1.09-.322 2.011-.322 2.737h2Zm.285-2.354c.124-.618.286-1.34.486-2.169l-1.943-.47a57.861 57.861 0 0 0-.504 2.246l1.961.393Zm.481-2.147 10.126-38.067-1.933-.514-10.126 38.067 1.933.514Zm26.898 4.92-.801.597.006.009.006.008.789-.614Zm15.646-7.309.89.456.001-.004-.891-.452Zm3.387-19.376.932-.364-.004-.009-.928.373Zm-15.797 5.406.862.507.001-.002-.863-.505Zm20.365-6.89-.793.608.003.004.79-.612Zm-4.491 23.867-.738-.675-.002.002.74.673Zm-20.176-19.49.733.681h.001l-.734-.68Zm-1.494 18.539c0 2.275.564 4.248 1.759 5.85l1.603-1.195c-.887-1.19-1.362-2.718-1.362-4.655h-2Zm1.771 5.867c1.289 1.657 3.153 2.441 5.433 2.441v-2c-1.78 0-3.011-.585-3.854-1.67l-1.579 1.229Zm5.433 2.441c4.724 0 8.648-3.576 11.892-9.908l-1.78-.912c-3.152 6.154-6.563 8.82-10.112 8.82v2Zm11.893-9.912c2.764-5.45 4.182-10.529 4.182-15.222h-2c0 4.291-1.298 9.058-3.965 14.318l1.783.904Zm4.182-15.222c0-1.97-.235-3.643-.754-4.97l-1.863.729c.394 1.007.617 2.405.617 4.241h2Zm-.758-4.979c-.502-1.249-1.241-2.252-2.25-2.938-1.009-.685-2.211-1-3.55-1v2c1.021 0 1.811.236 2.426.654.616.42 1.133 1.071 1.519 2.03l1.855-.746Zm-5.8-3.938c-4.441 0-8.342 3.322-11.788 9.212l1.726 1.01c3.355-5.734 6.737-8.223 10.062-8.223v-2Zm-11.787 9.21c-3.27 5.553-4.934 11.068-4.934 16.533h2c0-5.043 1.532-10.211 4.658-15.519l-1.724-1.015Zm12.206-8.81c4.107 0 6.744 1.1 8.228 3.035l1.587-1.217c-2.018-2.632-5.396-3.817-9.815-3.817v2Zm8.231 3.04c1.604 2.068 2.417 4.525 2.417 7.419h2c0-3.299-.938-6.196-2.836-8.645l-1.581 1.225Zm2.417 7.419c0 5.06-2.226 10.11-6.856 15.16l1.475 1.351c4.861-5.304 7.381-10.812 7.381-16.511h-2Zm-6.858 15.162c-4.77 5.24-9.748 7.743-14.944 7.743v2c5.92 0 11.398-2.876 16.423-8.397l-1.479-1.346Zm-14.944 7.743c-3.297 0-5.834-.949-7.718-2.765l-1.388 1.44c2.328 2.244 5.4 3.325 9.106 3.325v-2Zm-7.718-2.765c-1.864-1.796-2.854-4.363-2.854-7.845h-2c0 3.877 1.116 7.02 3.466 9.285l1.388-1.44Zm-2.854-7.845c0-5.246 2.22-10.33 6.813-15.269l-1.465-1.362c-4.848 5.213-7.348 10.762-7.348 16.631h2Zm6.814-15.27c4.686-5.056 9.651-7.483 14.912-7.483v-2c-5.957 0-11.421 2.775-16.379 8.123l1.467 1.36Zm43.347 10.321-.889.457.004.008.885-.465Zm10.469-2.017-.851-.525-.002.002.853.523Zm1.598-13.552-.795.607.008.01.787-.617Zm-10.201 3.084-.866-.502-.003.006.869.496Zm6.242 40.502-.585-.81-.005.003.59.807Zm1.447-9.021-.707.707.707-.707Zm-2.703-1.79.455-.89-.008-.004-.008-.004-.439.898Zm-5.291-2.17-.365.932.012.004.353-.935Zm-8.108 1.18-.677-.735-.005.005.682.73Zm1.523 12.981-.399.918h.001l.398-.918Zm-6.434-11.42-.756-.654-.005.006-.005.006.766.642Zm6.966-5.1.473.881 1.502-.805-1.435-.919-.54.843Zm-1.56-1.257-.748.665.01.01.01.01.728-.685Zm1.56-5.367.681.732.003-.002-.684-.73Zm3.959-3.007.563.826 1.595-1.085-1.807-.677-.351.936Zm-4.187-2.589-.725.689.016.017.018.017.691-.723Zm2.36-15.379-.646-.762.646.762Zm16.978-2.702-.418.908.012.006.406-.914Zm2.817 1.789-.866.5.289.5h.577v-1Zm5.139 0h1v-1h-1v1Zm0 3.045v1h1v-1h-1Zm-3.883 0v-1h-1.309l.344 1.263.965-.263Zm-4.34 13.171-.594-.804-.003.002.597.802Zm-11.343 3.502-.153.989.038.005.038.003.077-.997Zm-1.219-.228.206-.979-.101-.021h-.105v1Zm-1.56 1.104.732.681.006-.007.006-.007-.744-.667Zm7.347 6.395.354-.935-.005-.002-.349.937Zm4.149 17.244-.634-.774-.004.004.638.77ZM287.541 63.18c0 1.66.252 3.093.834 4.225l1.779-.913c-.383-.746-.613-1.826-.613-3.312h-2Zm.838 4.233c1.023 1.951 2.876 2.858 5.263 2.858v-2c-1.826 0-2.892-.642-3.492-1.787l-1.771.929Zm5.263 2.858c2.782 0 5.08-1.783 6.943-4.817l-1.705-1.046c-1.69 2.752-3.452 3.862-5.238 3.862v2Zm6.941-4.815c1.902-3.08 2.852-6.472 2.852-10.156h-2c0 3.32-.851 6.349-2.553 9.106l1.701 1.05Zm2.852-10.156c0-1.81-.397-3.364-1.317-4.537l-1.574 1.233c.552.704.891 1.764.891 3.304h2Zm-1.309-4.527c-.966-1.266-2.397-1.84-4.106-1.84v2c1.234 0 2.011.39 2.516 1.053l1.59-1.213Zm-4.106-1.84c-3.285 0-5.873 1.782-7.756 5.028l1.731 1.003c1.62-2.794 3.625-4.031 6.025-4.031v-2Zm-7.759 5.034c-1.791 3.134-2.72 6.21-2.72 9.213h2c0-2.58.796-5.316 2.457-8.221l-1.737-.992Zm-.388 44.168c3.182 0 5.902-.764 8.089-2.362l-1.18-1.615c-1.771 1.295-4.051 1.977-6.909 1.977v2Zm8.085-2.359c2.197-1.585 3.422-3.586 3.422-5.988h-2c0 1.608-.78 3.059-2.593 4.366l1.171 1.622Zm3.422-5.988c0-1.777-.619-3.316-1.854-4.551l-1.414 1.414c.846.846 1.268 1.87 1.268 3.137h2Zm-1.854-4.551c-.668-.669-1.678-1.322-2.955-1.973l-.909 1.781c1.21.618 2.002 1.157 2.45 1.606l1.414-1.414Zm-2.971-1.981c-1.086-.53-2.888-1.267-5.377-2.207l-.706 1.871c2.485.939 4.211 1.648 5.206 2.133l.877-1.797Zm-5.365-2.202a72.26 72.26 0 0 0-2.956-1.101 15.462 15.462 0 0 0-.933-.29c-.223-.06-.498-.125-.739-.125v2c-.051 0-.006-.004.222.057.195.052.462.135.808.252.689.234 1.643.589 2.868 1.069l.73-1.862Zm-4.628-1.516c-.368 0-.721.117-1.023.253a6.76 6.76 0 0 0-.998.578c-.698.477-1.534 1.17-2.501 2.06l1.354 1.472c.936-.862 1.692-1.482 2.276-1.88.291-.2.52-.33.691-.407.184-.083.238-.076.201-.076v-2Zm-4.527 2.896c-2.07 1.931-3.173 4.188-3.173 6.745h2c0-1.91.8-3.662 2.537-5.283l-1.364-1.462Zm-3.173 6.745c0 1.833.397 3.452 1.248 4.805.853 1.358 2.117 2.377 3.731 3.079l.797-1.835c-1.305-.567-2.229-1.343-2.835-2.308-.609-.968-.941-2.198-.941-3.74h-2Zm4.98 7.884c1.683.73 3.706 1.072 6.031 1.072v-2c-2.141 0-3.874-.317-5.236-.907l-.795 1.835Zm-7.205-6.894c0-1.627.611-3.22 1.936-4.801l-1.533-1.285c-1.569 1.871-2.403 3.906-2.403 6.086h2Zm1.925-4.789c1.359-1.57 3.561-3.201 6.683-4.874l-.945-1.763c-3.223 1.728-5.665 3.497-7.25 5.328l1.512 1.309Zm6.75-6.598c-.583-.373-1.035-.741-1.372-1.099l-1.456 1.37c.475.506 1.063.975 1.749 1.414l1.079-1.685Zm-1.353-1.078c-.211-.238-.356-.581-.356-1.125h-2c0 .929.261 1.778.861 2.454l1.495-1.329Zm-.356-1.125c0-.598.443-1.537 1.85-2.846l-1.361-1.464c-1.486 1.38-2.489 2.827-2.489 4.31h2Zm1.853-2.848c.754-.707 2.021-1.674 3.838-2.91l-1.125-1.654c-1.837 1.25-3.21 2.288-4.08 3.105l1.367 1.459Zm3.626-4.673c-1.506-.566-2.784-1.359-3.847-2.375l-1.382 1.445c1.272 1.217 2.786 2.15 4.527 2.802l.702-1.873Zm-3.813-2.341c-1.217-1.283-1.857-2.964-1.857-5.136h-2c0 2.599.782 4.8 2.407 6.513l1.45-1.377Zm-1.857-5.136c0-3.53 1.362-6.439 4.139-8.792l-1.293-1.525c-3.213 2.722-4.846 6.183-4.846 10.317h2Zm4.139-8.792c2.791-2.365 6.258-3.57 10.469-3.57v-2c-4.621 0-8.564 1.334-11.762 4.045l1.293 1.525Zm10.469-3.57c2.208 0 4.01.353 5.444 1.013l.836-1.817c-1.764-.812-3.87-1.195-6.28-1.195v2Zm5.456 1.019c.776.345 1.362.649 1.773.91.205.13.353.24.454.33.105.094.133.14.13.136l1.731-1.002c-.267-.46-.747-.837-1.243-1.152-.527-.335-1.211-.685-2.033-1.05l-.812 1.828Zm3.223 1.875h5.139v-2h-5.139v2Zm4.139-1v3.045h2v-3.045h-2Zm1 2.045h-3.883v2h3.883v-2Zm-4.848 1.263c.146.534.252 1.008.321 1.424l1.973-.329a16.628 16.628 0 0 0-.364-1.62l-1.93.525Zm.321 1.424c.063.376.101.958.101 1.777h2c0-.856-.038-1.568-.128-2.106l-1.973.33Zm.101 1.777c0 3.807-1.459 6.739-4.391 8.903l1.188 1.609c3.463-2.556 5.203-6.096 5.203-10.512h-2Zm-4.394 8.905c-3.013 2.242-6.232 3.342-9.681 3.342v2c3.912 0 7.544-1.26 10.875-3.737l-1.194-1.605Zm-9.681 3.342c-.358 0-.688-.012-.989-.035l-.153 1.994c.359.028.74.041 1.142.041v-2Zm-.913-.026a22.65 22.65 0 0 1-1.165-.219l-.412 1.957c.493.104.918.184 1.272.239l.305-1.977Zm-1.371-.24c-.494 0-.926.229-1.253.46-.345.243-.696.58-1.052.976l1.489 1.335c.304-.339.543-.555.718-.679.194-.137.213-.092.098-.092v-2Zm-2.292 1.422c-.743.798-1.296 1.696-1.296 2.661h2c0-.201.132-.624.76-1.298l-1.464-1.363Zm-1.296 2.661c0 .38.152.694.307.919.157.228.36.43.575.61.428.358 1.023.726 1.745 1.107 1.454.766 3.595 1.672 6.398 2.717l.699-1.874c-2.78-1.036-4.826-1.907-6.164-2.612-.674-.356-1.126-.647-1.395-.873a1.179 1.179 0 0 1-.21-.208c-.02-.029.045.05.045.214h-2Zm9.02 5.351c5.383 2.04 7.691 4.86 7.691 8.315h2c0-4.665-3.249-8.013-8.982-10.185l-.709 1.87Zm7.691 8.315c0 2.689-1.214 5.087-3.82 7.22l1.266 1.548c2.976-2.435 4.554-5.366 4.554-8.768h-2Zm-3.825 7.224c-2.536 2.098-6.477 3.234-12 3.234v2c5.744 0 10.228-1.173 13.275-3.694l-1.275-1.54Zm-12 3.234c-3.775 0-6.639-.81-8.697-2.319l-1.183 1.613c2.51 1.84 5.838 2.706 9.88 2.706v-2Zm-8.697-2.319c-2.078-1.524-3.017-3.288-3.017-5.322h-2c0 2.788 1.344 5.11 3.834 6.935l1.183-1.613Z" mask="url(#b)"/><mask id="c" fill="#fff"><path d="M382.565 40.454c2.84 0 5.055-.393 6.645-1.179 2.714-1.357 4.072-3.84 4.072-7.448 0-2.054-.581-3.5-1.742-4.34-1.143-.858-2.652-1.286-4.527-1.286-1.197 0-2.01.116-2.438.348-.411.214-.697.607-.858 1.179l-3.563 12.7 2.411.026Zm-2.84 18.165c3.608 0 6.252-.947 7.931-2.84 1.679-1.893 2.518-4.17 2.518-6.832 0-2.965-.982-4.903-2.947-5.814-1.25-.554-3.778-.857-7.582-.91l-3.43 12.43a8.59 8.59 0 0 0-.214.912c-.053.285-.08.553-.08.803 0 .983.455 1.635 1.366 1.956.518.197 1.331.295 2.438.295Zm-13.664.857c1.286-.107 2.17-.34 2.653-.696.75-.536 1.366-1.653 1.848-3.35l6.725-24.273.375-1.42c.179-.821.268-1.429.268-1.822 0-.928-.304-1.563-.911-1.902-.589-.34-1.706-.527-3.349-.563v-.884h14.173c2.411 0 4.537.313 6.377.938 3.09 1.304 4.635 3.644 4.635 7.02 0 2.804-1.26 4.983-3.778 6.537-1.375.84-3.286 1.527-5.733 2.063 1.893.714 3.313 1.5 4.259 2.357 1.697 1.554 2.546 3.662 2.546 6.323 0 3.001-1.331 5.51-3.992 7.529-2.662 2.018-6.305 3.027-10.931 3.027h-15.165v-.884Z"/></mask><path fill="#fff" d="M382.565 40.454c2.84 0 5.055-.393 6.645-1.179 2.714-1.357 4.072-3.84 4.072-7.448 0-2.054-.581-3.5-1.742-4.34-1.143-.858-2.652-1.286-4.527-1.286-1.197 0-2.01.116-2.438.348-.411.214-.697.607-.858 1.179l-3.563 12.7 2.411.026Zm-2.84 18.165c3.608 0 6.252-.947 7.931-2.84 1.679-1.893 2.518-4.17 2.518-6.832 0-2.965-.982-4.903-2.947-5.814-1.25-.554-3.778-.857-7.582-.91l-3.43 12.43a8.59 8.59 0 0 0-.214.912c-.053.285-.08.553-.08.803 0 .983.455 1.635 1.366 1.956.518.197 1.331.295 2.438.295Zm-13.664.857c1.286-.107 2.17-.34 2.653-.696.75-.536 1.366-1.653 1.848-3.35l6.725-24.273.375-1.42c.179-.821.268-1.429.268-1.822 0-.928-.304-1.563-.911-1.902-.589-.34-1.706-.527-3.349-.563v-.884h14.173c2.411 0 4.537.313 6.377.938 3.09 1.304 4.635 3.644 4.635 7.02 0 2.804-1.26 4.983-3.778 6.537-1.375.84-3.286 1.527-5.733 2.063 1.893.714 3.313 1.5 4.259 2.357 1.697 1.554 2.546 3.662 2.546 6.323 0 3.001-1.331 5.51-3.992 7.529-2.662 2.018-6.305 3.027-10.931 3.027h-15.165v-.884Z"/><path fill="#fff" d="m382.565 40.454-.011 1h.011v-1Zm6.645-1.179.443.897.004-.002-.447-.895Zm2.33-11.788-.6.8.007.005.008.005.585-.81Zm-6.965-.938.462.886.007-.003.007-.004-.476-.88Zm-.858 1.179-.962-.271h-.001l.963.27Zm-3.563 12.7-.963-.271-.352 1.256 1.304.014.011-1Zm7.073 2.705.421-.907-.008-.004-.008-.003-.405.914Zm-7.582-.91.014-1-.773-.012-.205.745.964.266Zm-3.43 12.43.96.283.002-.008.002-.008-.964-.266Zm-.214.912.983.184.002-.01-.985-.174Zm1.286 2.76.355-.936-.011-.004-.011-.004-.333.943Zm-11.226 1.151-.083-.996-.917.076v.92h1Zm2.653-.696-.582-.814-.007.005-.007.005.596.804Zm1.848-3.35.962.274.002-.006-.964-.267Zm6.725-24.273.964.267.003-.011-.967-.256Zm.375-1.42.967.255.006-.021.004-.021-.977-.213Zm-.643-3.724-.499.867.011.006.488-.873Zm-3.349-.563h-1v.979l.978.021.022-1Zm0-.884v-1h-1v1h1Zm20.55.938.388-.921-.033-.014-.034-.012-.321.947Zm.857 13.557.521.853.004-.002-.525-.851Zm-5.733 2.063-.214-.977-3.295.721 3.155 1.191.354-.935Zm4.259 2.357.676-.737-.004-.004-.672.741Zm-27.542 16.88h-1v1h1v-1Zm16.504-18.907c2.911 0 5.302-.4 7.088-1.282l-.887-1.793c-1.393.688-3.432 1.075-6.201 1.075v2Zm7.092-1.285c1.526-.762 2.7-1.86 3.484-3.294.779-1.424 1.141-3.121 1.141-5.048h-2c0 1.681-.316 3.029-.896 4.088-.573 1.05-1.435 1.871-2.624 2.466l.895 1.788Zm4.625-8.342c0-2.227-.634-4.05-2.156-5.15l-1.171 1.62c.8.579 1.327 1.649 1.327 3.53h2Zm-2.142-5.14c-1.363-1.023-3.103-1.486-5.127-1.486v2c1.726 0 3.005.393 3.927 1.086l1.2-1.6Zm-5.127-1.486c-.627 0-1.18.03-1.649.097-.455.065-.9.173-1.266.372l.953 1.758c.063-.034.238-.1.596-.15.344-.05.795-.077 1.366-.077v-2Zm-2.901.461c-.72.376-1.144 1.037-1.357 1.795l1.925.541c.108-.385.255-.51.357-.563l-.925-1.773Zm-1.358 1.796-3.563 12.699 1.926.54 3.563-12.7-1.926-.54Zm-2.611 13.969 2.411.027.022-2-2.411-.027-.022 2Zm-.418 18.192c3.769 0 6.74-.99 8.679-3.177l-1.497-1.327c-1.419 1.601-3.735 2.504-7.182 2.504v2Zm8.679-3.177c1.85-2.086 2.77-4.603 2.77-7.495h-2c0 2.43-.759 4.468-2.267 6.168l1.497 1.327Zm2.77-7.495c0-3.186-1.077-5.586-3.526-6.721l-.842 1.814c1.481.687 2.368 2.163 2.368 4.907h2Zm-3.542-6.728c-.763-.338-1.826-.566-3.119-.722-1.311-.157-2.932-.248-4.854-.275l-.028 2c1.882.027 3.427.115 4.643.261 1.235.148 2.061.349 2.548.565l.81-1.83Zm-8.951-.263-3.43 12.432 1.928.532 3.43-12.432-1.928-.532Zm-3.425 12.415a9.715 9.715 0 0 0-.24 1.02l1.97.347a7.44 7.44 0 0 1 .189-.802l-1.919-.565Zm-.238 1.01a5.384 5.384 0 0 0-.097.987h2c0-.179.019-.385.063-.62l-1.966-.368Zm-.097.987c0 .648.151 1.269.522 1.799.371.531.902.885 1.511 1.1l.666-1.886c-.302-.106-.454-.239-.538-.36-.085-.122-.161-.318-.161-.653h-2Zm2.011 2.891c.696.264 1.661.36 2.793.36v-2c-1.082 0-1.743-.1-2.083-.23l-.71 1.87Zm-10.788 1.214c1.303-.109 2.439-.352 3.165-.89l-1.191-1.607c-.238.177-.87.398-2.14.504l.166 1.993Zm3.151-.88c1.04-.743 1.734-2.146 2.229-3.889l-1.924-.547c-.469 1.65-1.008 2.48-1.468 2.809l1.163 1.627Zm2.231-3.895 6.725-24.274-1.928-.534-6.724 24.274 1.927.534Zm6.728-24.285.375-1.421-1.934-.51-.375 1.42 1.934.511Zm.385-1.463c.181-.831.291-1.528.291-2.035h-2c0 .279-.068.797-.245 1.61l1.954.425Zm.291-2.035c0-1.152-.394-2.2-1.423-2.775l-.976 1.746c.186.104.399.324.399 1.03h2Zm-1.412-2.769c-.444-.255-1.004-.412-1.612-.514-.622-.105-1.364-.163-2.214-.181l-.044 2c.793.016 1.432.07 1.926.153.508.085.801.192.946.276l.998-1.734Zm-2.848.304v-.884h-2v.884h2Zm-1 .116h14.173v-2H373.67v2Zm14.173 0c2.327 0 4.34.302 6.055.885l.643-1.894c-1.964-.667-4.202-.99-6.698-.99v2Zm5.988.86c1.399.59 2.387 1.387 3.03 2.362.645.975.994 2.203.994 3.735h2c0-1.843-.424-3.473-1.325-4.837-.901-1.365-2.231-2.39-3.922-3.103l-.777 1.842Zm4.024 6.098c0 2.434-1.06 4.302-3.303 5.686l1.05 1.702c2.794-1.724 4.253-4.215 4.253-7.389h-2Zm-3.299 5.683c-1.243.759-3.035 1.416-5.426 1.94l.427 1.954c2.503-.548 4.533-1.267 6.041-2.187l-1.042-1.707Zm-5.566 3.852c1.837.693 3.127 1.425 3.942 2.164l1.343-1.483c-1.078-.976-2.628-1.816-4.578-2.552l-.707 1.871Zm3.938 2.16c1.457 1.334 2.221 3.156 2.221 5.585h2c0-2.893-.933-5.286-2.87-7.06l-1.351 1.475Zm2.221 5.585c0 2.65-1.152 4.878-3.597 6.732l1.209 1.594c2.878-2.183 4.388-4.974 4.388-8.326h-2Zm-3.597 6.732c-2.431 1.844-5.836 2.824-10.326 2.824v2c4.761 0 8.644-1.038 11.535-3.23l-1.209-1.594Zm-10.326 2.824h-15.165v2h15.165v-2Zm-14.165 1v-.884h-2v.884h2Z" mask="url(#c)"/><mask id="d" fill="#fff"><path d="M368.571 97.614h.904c.402 2.21.877 3.828 1.425 4.851 1.005 1.881 2.503 2.822 4.494 2.822 1.114 0 2.046-.393 2.795-1.178.767-.786 1.151-1.827 1.151-3.124 0-.804-.101-1.462-.302-1.973a5.903 5.903 0 0 0-.712-1.398l-2.274-3.37c-1.371-2.046-2.229-3.416-2.576-4.11-.53-1.042-.795-2.083-.795-3.124 0-1.59.566-2.987 1.699-4.193 1.151-1.224 2.777-1.836 4.878-1.836.895 0 1.918.174 3.069.52 1.151.33 1.936.494 2.356.494.457 0 .795-.091 1.014-.274.219-.183.42-.43.603-.74h.795l-1.124 7.782h-.904c-.238-1.772-.594-3.105-1.069-4-.877-1.663-2.265-2.494-4.165-2.494-.804 0-1.525.256-2.165.767-.621.494-.931 1.224-.931 2.192 0 .75.137 1.407.411 1.974.292.566.94 1.57 1.945 3.014l1.946 2.795c1.005 1.443 1.717 2.621 2.137 3.535.42.913.63 1.9.63 2.96 0 1.972-.84 3.635-2.521 4.986-1.68 1.352-3.681 2.028-6.001 2.028-.749 0-1.817-.155-3.206-.466-1.388-.31-2.192-.466-2.411-.466-.366 0-.64.083-.822.247-.165.164-.32.411-.466.74h-.904l1.096-8.96Z"/></mask><path fill="#fff" d="M368.571 97.614h.904c.402 2.21.877 3.828 1.425 4.851 1.005 1.881 2.503 2.822 4.494 2.822 1.114 0 2.046-.393 2.795-1.178.767-.786 1.151-1.827 1.151-3.124 0-.804-.101-1.462-.302-1.973a5.903 5.903 0 0 0-.712-1.398l-2.274-3.37c-1.371-2.046-2.229-3.416-2.576-4.11-.53-1.042-.795-2.083-.795-3.124 0-1.59.566-2.987 1.699-4.193 1.151-1.224 2.777-1.836 4.878-1.836.895 0 1.918.174 3.069.52 1.151.33 1.936.494 2.356.494.457 0 .795-.091 1.014-.274.219-.183.42-.43.603-.74h.795l-1.124 7.782h-.904c-.238-1.772-.594-3.105-1.069-4-.877-1.663-2.265-2.494-4.165-2.494-.804 0-1.525.256-2.165.767-.621.494-.931 1.224-.931 2.192 0 .75.137 1.407.411 1.974.292.566.94 1.57 1.945 3.014l1.946 2.795c1.005 1.443 1.717 2.621 2.137 3.535.42.913.63 1.9.63 2.96 0 1.972-.84 3.635-2.521 4.986-1.68 1.352-3.681 2.028-6.001 2.028-.749 0-1.817-.155-3.206-.466-1.388-.31-2.192-.466-2.411-.466-.366 0-.64.083-.822.247-.165.164-.32.411-.466.74h-.904l1.096-8.96Z"/><path fill="#fff" d="M368.571 97.614v-1h-.885l-.108.879.993.121Zm.904 0 .984-.178-.149-.822h-.835v1Zm1.425 4.851.882-.471-.001-.002-.881.473Zm7.289 1.644-.716-.699-.008.009.724.69Zm.849-5.097-.941.336.005.015.006.014.93-.365Zm-.712-1.398-.829.56.004.006.004.005.821-.57Zm-2.274-3.37-.831.556.002.003.829-.56Zm-2.576-4.11.894-.448-.003-.006-.891.453Zm.904-7.317-.729-.685.729.685Zm7.947-1.315-.289.957.007.002.007.002.275-.961Zm3.973-.52v-1h-.572l-.29.492.862.507Zm.795 0 .989.142.165-1.143h-1.154v1Zm-1.124 7.781v1h.866l.124-.857-.99-.143Zm-.904 0-.991.133.116.867h.875v-1Zm-1.069-4-.884.466.001.002.883-.468Zm-6.33-1.727.622.783.003-.002-.625-.78Zm-.52 4.165-.901.436.006.012.006.011.889-.459Zm1.945 3.015.821-.572-.821.572Zm1.946 2.795-.821.571.821-.571Zm.246 11.481-.626-.779.626.779Zm-12.44 1.343-.669-.743-.02.017-.018.019.707.707Zm-.466.74v1h.65l.264-.594-.914-.406Zm-.904 0-.993-.121-.137 1.121h1.13v-1Zm1.096-7.96h.904v-2h-.904v2Zm-.08-.822c.407 2.236.903 3.979 1.527 5.144l1.763-.945c-.472-.881-.925-2.371-1.322-4.556l-1.968.357Zm1.527 5.143c.567 1.062 1.303 1.912 2.227 2.492.928.583 1.989.859 3.149.859v-2c-.832 0-1.515-.194-2.085-.552-.574-.361-1.09-.923-1.527-1.741l-1.764.942Zm5.376 3.351c1.379 0 2.575-.499 3.519-1.488l-1.448-1.38c-.555.581-1.222.868-2.071.868v2Zm3.51-1.48c.983-1.005 1.436-2.315 1.436-3.822h-2c0 1.086-.314 1.86-.866 2.425l1.43 1.397Zm1.436-3.822c0-.876-.108-1.67-.371-2.339l-1.861.731c.139.355.232.876.232 1.608h2Zm-.36-2.31a6.886 6.886 0 0 0-.833-1.632l-1.642 1.142c.239.344.437.73.592 1.163l1.883-.672Zm-.825-1.62-2.275-3.37-1.657 1.118 2.274 3.37 1.658-1.118Zm-2.273-3.368c-1.377-2.057-2.198-3.373-2.512-4l-1.789.894c.381.76 1.277 2.184 2.64 4.22l1.661-1.114Zm-2.515-4.007c-.467-.918-.686-1.805-.686-2.67h-2c0 1.217.311 2.413.903 3.577l1.783-.907Zm-.686-2.67c0-1.324.462-2.48 1.428-3.508l-1.458-1.37c-1.299 1.383-1.97 3.023-1.97 4.878h2Zm1.427-3.508c.917-.975 2.251-1.52 4.15-1.52v-2c-2.303 0-4.221.677-5.607 2.15l1.457 1.37Zm4.15-1.52c.77 0 1.693.15 2.78.477l.577-1.915c-1.214-.366-2.337-.563-3.357-.563v2Zm2.794.481c1.132.324 2.049.532 2.631.532v-2c-.258 0-.912-.12-2.082-.455l-.549 1.923Zm2.631.532c.559 0 1.175-.106 1.654-.506l-1.28-1.536c.023-.02.022-.008-.039.008a1.32 1.32 0 0 1-.335.034v2Zm1.654-.506a3.78 3.78 0 0 0 .825-1l-1.724-1.015c-.139.236-.27.386-.381.479l1.28 1.536Zm-.037-.508h.795v-2h-.795v2Zm-.195-1.143-1.124 7.783 1.98.285 1.123-7.782-1.979-.286Zm-.134 6.925h-.904v2h.904v-2Zm.087.868c-.243-1.814-.619-3.286-1.176-4.337l-1.767.937c.392.74.729 1.935.961 3.665l1.982-.265Zm-1.175-4.335c-.51-.967-1.195-1.738-2.07-2.262-.875-.523-1.881-.765-2.98-.765v2c.801 0 1.439.174 1.953.481.513.308.961.783 1.328 1.48l1.769-.934Zm-5.05-3.027a4.373 4.373 0 0 0-2.789.986l1.249 1.562a2.377 2.377 0 0 1 1.54-.548v-2Zm-2.787.984c-.912.725-1.309 1.777-1.309 2.975h2c0-.737.224-1.147.553-1.409l-1.244-1.566Zm-1.309 2.975c0 .872.159 1.684.51 2.409l1.801-.871c-.197-.407-.311-.91-.311-1.538h-2Zm.522 2.432c.327.633 1.013 1.69 2.013 3.127l1.642-1.143c-1.009-1.449-1.62-2.402-1.878-2.901l-1.777.917Zm2.013 3.127 1.946 2.795 1.641-1.142-1.945-2.796-1.642 1.143Zm1.946 2.795c.992 1.425 1.666 2.547 2.05 3.382l1.817-.836c-.457-.993-1.208-2.227-2.226-3.689l-1.641 1.143Zm2.05 3.382c.356.775.538 1.618.538 2.541h2a8.005 8.005 0 0 0-.721-3.377l-1.817.836Zm.538 2.541c0 1.639-.678 3.026-2.147 4.208l1.253 1.559c1.892-1.522 2.894-3.46 2.894-5.767h-2Zm-2.147 4.208c-1.49 1.198-3.264 1.807-5.375 1.807v2c2.53 0 4.756-.743 6.628-2.248l-1.253-1.559Zm-5.375 1.807c-.636 0-1.619-.135-2.988-.442l-.436 1.952c1.408.315 2.563.49 3.424.49v-2Zm-2.988-.442a59.949 59.949 0 0 0-1.672-.355c-.371-.072-.731-.135-.957-.135v2c-.007 0 .144.015.577.099.388.075.925.189 1.616.343l.436-1.952Zm-2.629-.49c-.495 0-1.053.11-1.491.504l1.338 1.486c-.035.032-.058.036-.039.03a.682.682 0 0 1 .192-.02v-2Zm-1.529.54c-.286.285-.501.655-.673 1.041l1.828.812c.12-.271.215-.395.259-.439l-1.414-1.414Zm.241.447h-.904v2h.904v-2Zm.088 1.121 1.096-8.96-1.985-.243-1.096 8.961 1.985.242Z" mask="url(#d)"/><mask id="e" fill="#fff"><path d="M328.008 63.104c0-8.832 2.639-16.584 7.918-23.259 3.248-4.086 7.08-7.372 11.496-9.859l.723 1.256c-4.086 3.248-7.004 6.408-8.755 9.479-3.071 5.354-4.606 12.486-4.606 21.393 0 6.598.583 12.042 1.751 16.33 2.055 7.512 5.925 13.133 11.61 16.864l-.99 1.256c-3.121-1.497-6.496-4.428-10.125-8.793-6.015-7.233-9.022-15.455-9.022-24.667Z"/></mask><path fill="#fff" d="M328.008 63.104c0-8.832 2.639-16.584 7.918-23.259 3.248-4.086 7.08-7.372 11.496-9.859l.723 1.256c-4.086 3.248-7.004 6.408-8.755 9.479-3.071 5.354-4.606 12.486-4.606 21.393 0 6.598.583 12.042 1.751 16.33 2.055 7.512 5.925 13.133 11.61 16.864l-.99 1.256c-3.121-1.497-6.496-4.428-10.125-8.793-6.015-7.233-9.022-15.455-9.022-24.667Z"/><path fill="#fff" d="m335.926 39.845-.783-.622-.002.002.785.62Zm11.496-9.859.866-.499-.494-.858-.863.486.491.871Zm.723 1.256.622.783.674-.536-.429-.746-.867.5Zm-8.755 9.479.867.497.001-.002-.868-.495Zm-2.855 37.724-.965.262v.002l.965-.264Zm11.61 16.863.786.619.674-.857-.911-.598-.549.836Zm-.99 1.256-.432.902.722.346.496-.629-.786-.619Zm-10.125-8.793.769-.64-.769.64Zm-8.022-24.667c0-8.616 2.569-16.148 7.702-22.639l-1.569-1.24c-5.423 6.858-8.133 14.831-8.133 23.879h2Zm7.701-22.636c3.17-3.988 6.904-7.189 11.204-9.61l-.982-1.743c-4.532 2.552-8.462 5.924-11.788 10.108l1.566 1.245Zm9.846-9.983.723 1.256 1.734-.998-.724-1.256-1.733.998Zm.968-.026c-4.143 3.294-7.165 6.546-9.002 9.766l1.737.991c1.666-2.92 4.48-5.988 8.509-9.191l-1.244-1.566Zm-9.001 9.764c-3.187 5.559-4.738 12.882-4.738 21.891h2c0-8.805 1.52-15.745 4.473-20.896l-1.735-.995Zm-4.738 21.891c0 6.649.587 12.188 1.786 16.593l1.93-.525c-1.136-4.173-1.716-9.52-1.716-16.068h-2Zm1.786 16.595c2.11 7.71 6.109 13.551 12.026 17.435l1.098-1.672c-5.452-3.578-9.193-8.978-11.195-16.291l-1.929.528Zm11.79 15.98-.99 1.256 1.571 1.238.99-1.256-1.571-1.238Zm.228.974c-2.935-1.408-6.201-4.215-9.789-8.531l-1.538 1.278c3.669 4.413 7.154 7.469 10.462 9.056l.865-1.803Zm-9.789-8.532c-5.869-7.057-8.791-15.054-8.791-24.027h-2c0 9.45 3.092 17.898 9.253 25.306l1.538-1.279Z" mask="url(#e)"/><path fill="#fff" stroke="#fff" d="M132.857 128.22h48.649l-1.003 4.85h-48.649l1.003-4.85Zm4.16-19.59h48.649l-1.003 4.85h-48.649l1.003-4.85Z"/><path stroke="#fff" stroke-miterlimit="10" stroke-width="1.38" d="M206.65 125.08h228.18"/><path stroke="#fff" stroke-miterlimit="10" stroke-width="1.25" d="M353.32 71.52h53.61"/><mask id="f" fill="#fff"><path d="M228.51 151.865c.102-.329.165-.659.191-.989.025-.33.038-.597.038-.8 0-.862-.356-1.383-1.066-1.56-.685-.203-2.068-.292-4.149-.267v-1.256c1.142-.152 2.449-.33 3.92-.533a126.15 126.15 0 0 0 2.932-.419c1.421-.253 3.146-.634 5.177-1.142.177 0 .355.127.533.381l-11.991 45.756a97.092 97.092 0 0 0-.495 1.979 3.14 3.14 0 0 0-.076.685c0 .483.088.901.266 1.257.178.33.508.495.99.495.913 0 2.106-.813 3.578-2.437 1.472-1.624 2.715-3.197 3.731-4.72l1.027.723c-2.182 3.223-3.882 5.456-5.101 6.7-2.106 2.106-4.225 3.159-6.357 3.159-.913 0-1.725-.228-2.436-.685-1.091-.685-1.637-1.852-1.637-3.502 0-.634.102-1.484.305-2.55.127-.635.292-1.371.495-2.208l10.125-38.067Zm16.179 37.991c0 2.106.52 3.857 1.56 5.253 1.066 1.37 2.614 2.056 4.644 2.056 4.137 0 7.804-3.122 11.002-9.365 2.715-5.354 4.073-10.278 4.073-14.77 0-1.903-.229-3.438-.686-4.606-.888-2.207-2.512-3.311-4.872-3.311-3.883 0-7.524 2.905-10.925 8.717-3.198 5.431-4.796 10.773-4.796 16.026Zm16.14-26.342c4.263 0 7.27 1.142 9.021 3.426 1.751 2.258 2.627 4.936 2.627 8.032 0 5.38-2.373 10.658-7.118 15.835-4.898 5.38-10.126 8.07-15.684 8.07-3.502 0-6.306-1.015-8.412-3.045-2.107-2.03-3.16-4.885-3.16-8.565 0-5.557 2.36-10.874 7.08-15.95 4.822-5.202 10.037-7.803 15.646-7.803Zm27.712 15.036c0 1.573.241 2.83.723 3.769.812 1.548 2.272 2.322 4.378 2.322 2.284 0 4.314-1.447 6.091-4.34 1.801-2.918 2.702-6.129 2.702-9.631 0-1.675-.368-2.982-1.104-3.921-.736-.964-1.84-1.446-3.311-1.446-2.843 0-5.139 1.51-6.89 4.53-1.726 3.02-2.589 5.926-2.589 8.717Zm1.332 33.955c3.02 0 5.52-.723 7.499-2.17 2.005-1.446 3.008-3.172 3.008-5.177 0-1.522-.521-2.804-1.561-3.844-.558-.559-1.459-1.155-2.703-1.789-1.04-.508-2.804-1.231-5.291-2.17-2.462-.965-3.883-1.447-4.263-1.447-.66 0-1.942.876-3.845 2.627-1.903 1.776-2.855 3.781-2.855 6.014 0 3.376 1.459 5.698 4.378 6.967 1.522.659 3.4.989 5.633.989Zm-14.236-6.966c0-1.903.723-3.718 2.169-5.443 1.472-1.701 3.794-3.401 6.966-5.101-.634-.406-1.154-.825-1.56-1.256-.406-.457-.609-1.054-.609-1.79 0-1.04.723-2.233 2.169-3.578.813-.761 2.132-1.764 3.959-3.007-1.624-.609-3.02-1.472-4.187-2.589-1.421-1.497-2.132-3.438-2.132-5.824 0-3.832 1.498-7.017 4.492-9.554 2.995-2.538 6.7-3.807 11.116-3.807 2.309 0 4.263.368 5.862 1.104 1.599.71 2.538 1.307 2.817 1.789h5.139v3.045h-3.883c.152.559.266 1.066.342 1.523.077.457.115 1.104.115 1.941 0 4.112-1.599 7.347-4.797 9.707-3.172 2.36-6.598 3.54-10.278 3.54-.38 0-.736-.012-1.065-.038-.33-.05-.736-.127-1.219-.228-.38 0-.9.368-1.56 1.104-.686.736-1.028 1.396-1.028 1.979 0 .863 2.791 2.335 8.375 4.416 5.557 2.106 8.336 5.19 8.336 9.25 0 3.046-1.396 5.71-4.187 7.994-2.792 2.31-7.004 3.464-12.638 3.464-3.908 0-7.005-.837-9.289-2.512-2.283-1.675-3.425-3.718-3.425-6.129Z"/></mask><path fill="#fff" d="M228.51 151.865c.102-.329.165-.659.191-.989.025-.33.038-.597.038-.8 0-.862-.356-1.383-1.066-1.56-.685-.203-2.068-.292-4.149-.267v-1.256c1.142-.152 2.449-.33 3.92-.533a126.15 126.15 0 0 0 2.932-.419c1.421-.253 3.146-.634 5.177-1.142.177 0 .355.127.533.381l-11.991 45.756a97.092 97.092 0 0 0-.495 1.979 3.14 3.14 0 0 0-.076.685c0 .483.088.901.266 1.257.178.33.508.495.99.495.913 0 2.106-.813 3.578-2.437 1.472-1.624 2.715-3.197 3.731-4.72l1.027.723c-2.182 3.223-3.882 5.456-5.101 6.7-2.106 2.106-4.225 3.159-6.357 3.159-.913 0-1.725-.228-2.436-.685-1.091-.685-1.637-1.852-1.637-3.502 0-.634.102-1.484.305-2.55.127-.635.292-1.371.495-2.208l10.125-38.067Zm16.179 37.991c0 2.106.52 3.857 1.56 5.253 1.066 1.37 2.614 2.056 4.644 2.056 4.137 0 7.804-3.122 11.002-9.365 2.715-5.354 4.073-10.278 4.073-14.77 0-1.903-.229-3.438-.686-4.606-.888-2.207-2.512-3.311-4.872-3.311-3.883 0-7.524 2.905-10.925 8.717-3.198 5.431-4.796 10.773-4.796 16.026Zm16.14-26.342c4.263 0 7.27 1.142 9.021 3.426 1.751 2.258 2.627 4.936 2.627 8.032 0 5.38-2.373 10.658-7.118 15.835-4.898 5.38-10.126 8.07-15.684 8.07-3.502 0-6.306-1.015-8.412-3.045-2.107-2.03-3.16-4.885-3.16-8.565 0-5.557 2.36-10.874 7.08-15.95 4.822-5.202 10.037-7.803 15.646-7.803Zm27.712 15.036c0 1.573.241 2.83.723 3.769.812 1.548 2.272 2.322 4.378 2.322 2.284 0 4.314-1.447 6.091-4.34 1.801-2.918 2.702-6.129 2.702-9.631 0-1.675-.368-2.982-1.104-3.921-.736-.964-1.84-1.446-3.311-1.446-2.843 0-5.139 1.51-6.89 4.53-1.726 3.02-2.589 5.926-2.589 8.717Zm1.332 33.955c3.02 0 5.52-.723 7.499-2.17 2.005-1.446 3.008-3.172 3.008-5.177 0-1.522-.521-2.804-1.561-3.844-.558-.559-1.459-1.155-2.703-1.789-1.04-.508-2.804-1.231-5.291-2.17-2.462-.965-3.883-1.447-4.263-1.447-.66 0-1.942.876-3.845 2.627-1.903 1.776-2.855 3.781-2.855 6.014 0 3.376 1.459 5.698 4.378 6.967 1.522.659 3.4.989 5.633.989Zm-14.236-6.966c0-1.903.723-3.718 2.169-5.443 1.472-1.701 3.794-3.401 6.966-5.101-.634-.406-1.154-.825-1.56-1.256-.406-.457-.609-1.054-.609-1.79 0-1.04.723-2.233 2.169-3.578.813-.761 2.132-1.764 3.959-3.007-1.624-.609-3.02-1.472-4.187-2.589-1.421-1.497-2.132-3.438-2.132-5.824 0-3.832 1.498-7.017 4.492-9.554 2.995-2.538 6.7-3.807 11.116-3.807 2.309 0 4.263.368 5.862 1.104 1.599.71 2.538 1.307 2.817 1.789h5.139v3.045h-3.883c.152.559.266 1.066.342 1.523.077.457.115 1.104.115 1.941 0 4.112-1.599 7.347-4.797 9.707-3.172 2.36-6.598 3.54-10.278 3.54-.38 0-.736-.012-1.065-.038-.33-.05-.736-.127-1.219-.228-.38 0-.9.368-1.56 1.104-.686.736-1.028 1.396-1.028 1.979 0 .863 2.791 2.335 8.375 4.416 5.557 2.106 8.336 5.19 8.336 9.25 0 3.046-1.396 5.71-4.187 7.994-2.792 2.31-7.004 3.464-12.638 3.464-3.908 0-7.005-.837-9.289-2.512-2.283-1.675-3.425-3.718-3.425-6.129Z"/><path fill="#fff" d="m228.51 151.865-.955-.294-.006.019-.005.018.966.257Zm-.837-3.349-.284.958.02.007.021.005.243-.97Zm-4.149-.267h-1v1.012l1.012-.012-.012-1Zm0-1.256-.133-.991-.867.115v.876h1Zm3.92-.533-.134-.991h-.002l.136.991Zm2.932-.419.164.987.011-.002-.175-.985Zm5.177-1.142v-1h-.124l-.119.03.243.97Zm.533.381.967.254.117-.448-.265-.379-.819.573Zm-11.991 45.756-.968-.254-.001.006.969.248Zm-.305 3.921-.894.447.006.013.008.014.88-.474Zm4.568-1.942-.741-.671.741.671Zm3.731-4.72.575-.818-.839-.59-.568.853.832.555Zm1.027.723.828.561.551-.813-.803-.566-.576.818Zm-5.101 6.7.708.707.007-.007-.715-.7Zm-8.793 2.474.541-.841-.009-.006-.532.847Zm-1.332-6.052-.981-.196-.002.009.983.187Zm.495-2.208-.967-.257-.003.011-.002.01.972.236Zm11.081-37.772c.122-.398.2-.801.232-1.208l-1.994-.153c-.02.253-.069.51-.149.772l1.911.589Zm.232-1.208c.026-.341.041-.636.041-.876h-2c0 .167-.011.405-.035.723l1.994.153Zm.041-.876c0-.56-.115-1.123-.441-1.601-.338-.495-.831-.792-1.383-.929l-.485 1.94c.159.039.199.092.216.117.03.043.093.171.093.473h2Zm-1.782-2.519c-.853-.253-2.388-.333-4.446-.308l.025 2c2.104-.026 3.336.072 3.853.225l.568-1.917Zm-3.433.692v-1.256h-2v1.256h2Zm-.868-.265c1.144-.152 2.452-.33 3.925-.533l-.273-1.982c-1.471.203-2.776.381-3.917.533l.265 1.982Zm3.923-.533c1.494-.203 2.486-.344 2.961-.423l-.329-1.973c-.439.073-1.4.211-2.901.414l.269 1.982Zm2.972-.425c1.451-.259 3.201-.646 5.244-1.157l-.485-1.94c-2.017.504-3.719.879-5.11 1.128l.351 1.969Zm5.002-1.127a.547.547 0 0 1-.315-.091c-.034-.024-.02-.024.028.045l1.639-1.146c-.228-.326-.667-.808-1.352-.808v2Zm-.435-.873-11.991 45.756 1.935.507 11.991-45.755-1.935-.508Zm-11.992 45.762a100.706 100.706 0 0 0-.502 2.01l1.952.434c.046-.209.206-.849.487-1.948l-1.937-.496Zm-.502 2.01c-.067.298-.1.599-.1.902h2c0-.153.017-.309.052-.468l-1.952-.434Zm-.1.902c0 .605.111 1.183.372 1.704l1.789-.895c-.095-.189-.161-.449-.161-.809h-2Zm.386 1.731c.403.749 1.143 1.021 1.87 1.021v-2c-.132 0-.172-.024-.162-.019a.134.134 0 0 1 .032.024c.013.013.02.024.021.026l-1.761.948Zm1.87 1.021c.743 0 1.469-.324 2.142-.783.686-.467 1.412-1.138 2.177-1.982l-1.482-1.343c-.707.78-1.314 1.327-1.82 1.672-.519.353-.847.436-1.017.436v2Zm4.319-2.765c1.499-1.654 2.774-3.266 3.822-4.837l-1.664-1.11c-.983 1.475-2.195 3.009-3.64 4.604l1.482 1.343Zm2.414-4.574 1.028.723 1.151-1.636-1.028-.723-1.151 1.636Zm.775-.655c-2.179 3.218-3.837 5.386-4.987 6.56l1.429 1.4c1.286-1.313 3.029-3.612 5.214-6.839l-1.656-1.121Zm-4.98 6.553c-1.994 1.994-3.874 2.866-5.65 2.866v2c2.488 0 4.846-1.234 7.065-3.452l-1.415-1.414Zm-5.65 2.866c-.738 0-1.359-.181-1.895-.526l-1.082 1.682c.885.569 1.888.844 2.977.844v-2Zm-1.904-.532c-.718-.45-1.169-1.24-1.169-2.655h-2c0 1.884.641 3.43 2.105 4.349l1.064-1.694Zm-1.169-2.655c0-.543.089-1.322.287-2.363l-1.965-.374c-.207 1.09-.322 2.011-.322 2.737h2Zm.285-2.354c.124-.618.286-1.34.486-2.169l-1.943-.471a57.705 57.705 0 0 0-.504 2.248l1.961.392Zm.481-2.147 10.126-38.066-1.933-.515-10.126 38.067 1.933.514Zm26.898 4.92-.801.598.006.008.006.008.789-.614Zm15.646-7.309.89.456.001-.004-.891-.452Zm3.387-19.376.932-.364-.004-.009-.928.373Zm-15.797 5.406.862.507.001-.002-.863-.505Zm20.365-6.89-.793.608.003.004.79-.612Zm-4.491 23.867-.738-.675-.002.002.74.673Zm-20.176-19.49.733.681.001-.001-.734-.68Zm-1.494 18.539c0 2.275.564 4.248 1.759 5.851l1.603-1.196c-.887-1.189-1.362-2.718-1.362-4.655h-2Zm1.771 5.867c1.289 1.657 3.153 2.442 5.433 2.442v-2c-1.78 0-3.011-.586-3.854-1.67l-1.579 1.228Zm5.433 2.442c4.724 0 8.648-3.577 11.892-9.909l-1.78-.912c-3.152 6.154-6.563 8.821-10.112 8.821v2Zm11.893-9.913c2.764-5.449 4.182-10.529 4.182-15.222h-2c0 4.291-1.298 9.058-3.965 14.318l1.783.904Zm4.182-15.222c0-1.97-.235-3.643-.754-4.97l-1.863.729c.394 1.007.617 2.405.617 4.241h2Zm-.758-4.979c-.502-1.248-1.241-2.252-2.25-2.938-1.009-.685-2.211-1-3.55-1v2c1.021 0 1.811.236 2.426.655.616.418 1.133 1.07 1.519 2.03l1.855-.747Zm-5.8-3.938c-4.441 0-8.342 3.323-11.788 9.212l1.726 1.01c3.355-5.734 6.737-8.222 10.062-8.222v-2Zm-11.787 9.209c-3.27 5.554-4.934 11.07-4.934 16.534h2c0-5.042 1.532-10.211 4.658-15.519l-1.724-1.015Zm12.206-8.808c4.107 0 6.744 1.099 8.228 3.034l1.587-1.217c-2.018-2.632-5.396-3.817-9.815-3.817v2Zm8.231 3.038c1.604 2.069 2.417 4.526 2.417 7.42h2c0-3.298-.938-6.196-2.836-8.645l-1.581 1.225Zm2.417 7.42c0 5.061-2.226 10.109-6.856 15.16l1.475 1.351c4.861-5.303 7.381-10.812 7.381-16.511h-2Zm-6.858 15.162c-4.77 5.24-9.748 7.743-14.944 7.743v2c5.92 0 11.398-2.876 16.423-8.396l-1.479-1.347Zm-14.944 7.743c-3.297 0-5.834-.949-7.718-2.765l-1.388 1.44c2.328 2.245 5.4 3.325 9.106 3.325v-2Zm-7.718-2.765c-1.864-1.796-2.854-4.362-2.854-7.845h-2c0 3.877 1.116 7.021 3.466 9.285l1.388-1.44Zm-2.854-7.845c0-5.246 2.22-10.33 6.813-15.269l-1.465-1.362c-4.848 5.213-7.348 10.762-7.348 16.631h2Zm6.814-15.27c4.686-5.056 9.651-7.483 14.912-7.483v-2c-5.957 0-11.421 2.775-16.379 8.124l1.467 1.359Zm43.347 10.322-.889.456.004.008.885-.464Zm10.469-2.018-.851-.525-.002.002.853.523Zm1.598-13.552-.795.607.008.01.787-.617Zm-10.201 3.084-.866-.502-.003.006.869.496Zm6.242 40.502-.585-.81-.005.003.59.807Zm1.447-9.021-.707.707.707-.707Zm-2.703-1.789.455-.891-.008-.004-.008-.004-.439.899Zm-5.291-2.17-.365.931.012.004.353-.935Zm-8.108 1.18-.677-.736-.005.005.682.731Zm1.523 12.981-.399.917h.001l.398-.917Zm-6.434-11.42-.756-.655-.005.006-.005.006.766.643Zm6.966-5.101.473.881 1.502-.805-1.435-.919-.54.843Zm-1.56-1.256-.748.664.01.011.01.01.728-.685Zm1.56-5.368.681.733.003-.003-.684-.73Zm3.959-3.007.563.827 1.595-1.086-1.807-.677-.351.936Zm-4.187-2.589-.725.689.016.017.018.017.691-.723Zm2.36-15.378-.646-.763.646.763Zm16.978-2.703-.418.908.012.006.406-.914Zm2.817 1.789-.866.501.289.499h.577v-1Zm5.139 0h1v-1h-1v1Zm0 3.045v1h1v-1h-1Zm-3.883 0v-1h-1.309l.344 1.263.965-.263Zm-4.34 13.171-.594-.804-.003.002.597.802Zm-11.343 3.502-.153.989.038.006.038.002.077-.997Zm-1.219-.228.206-.979-.101-.021h-.105v1Zm-1.56 1.104.732.681.006-.007.006-.007-.744-.667Zm7.347 6.395.354-.935-.005-.002-.349.937Zm4.149 17.244-.634-.774-.004.004.638.77Zm-13.448-32.166c0 1.661.252 3.093.834 4.225l1.779-.913c-.383-.745-.613-1.826-.613-3.312h-2Zm.838 4.233c1.023 1.951 2.876 2.858 5.263 2.858v-2c-1.826 0-2.892-.642-3.492-1.787l-1.771.929Zm5.263 2.858c2.782 0 5.08-1.783 6.943-4.817l-1.705-1.046c-1.69 2.752-3.452 3.863-5.238 3.863v2Zm6.941-4.815c1.902-3.079 2.852-6.472 2.852-10.156h-2c0 3.321-.851 6.349-2.553 9.106l1.701 1.05Zm2.852-10.156c0-1.81-.397-3.364-1.317-4.537l-1.574 1.233c.552.704.891 1.764.891 3.304h2Zm-1.309-4.527c-.966-1.266-2.397-1.84-4.106-1.84v2c1.234 0 2.011.39 2.516 1.053l1.59-1.213Zm-4.106-1.84c-3.285 0-5.873 1.782-7.756 5.028l1.731 1.003c1.62-2.793 3.625-4.031 6.025-4.031v-2Zm-7.759 5.034c-1.791 3.134-2.72 6.21-2.72 9.213h2c0-2.58.796-5.315 2.457-8.221l-1.737-.992Zm-.388 44.168c3.182 0 5.902-.764 8.089-2.362l-1.18-1.615c-1.771 1.295-4.051 1.977-6.909 1.977v2Zm8.085-2.359c2.197-1.585 3.422-3.586 3.422-5.988h-2c0 1.608-.78 3.059-2.593 4.367l1.171 1.621Zm3.422-5.988c0-1.777-.619-3.316-1.854-4.551l-1.414 1.414c.846.846 1.268 1.87 1.268 3.137h2Zm-1.854-4.551c-.668-.669-1.678-1.322-2.955-1.973l-.909 1.781c1.21.618 2.002 1.158 2.45 1.606l1.414-1.414Zm-2.971-1.981c-1.086-.53-2.888-1.267-5.377-2.207l-.706 1.871c2.485.939 4.211 1.648 5.206 2.133l.877-1.797Zm-5.365-2.202a70.58 70.58 0 0 0-2.956-1.101 15.15 15.15 0 0 0-.933-.29c-.223-.06-.498-.125-.739-.125v2c-.051 0-.006-.004.222.057.195.052.462.135.808.252.689.234 1.643.589 2.868 1.069l.73-1.862Zm-4.628-1.516c-.368 0-.721.117-1.023.253a6.76 6.76 0 0 0-.998.578c-.698.477-1.534 1.17-2.501 2.06l1.354 1.472c.936-.861 1.692-1.482 2.276-1.88.291-.2.52-.33.691-.407.184-.083.238-.076.201-.076v-2Zm-4.527 2.896c-2.07 1.931-3.173 4.188-3.173 6.745h2c0-1.909.8-3.661 2.537-5.283l-1.364-1.462Zm-3.173 6.745c0 1.833.397 3.452 1.248 4.805.853 1.358 2.117 2.377 3.731 3.079l.797-1.835c-1.305-.567-2.229-1.343-2.835-2.308-.609-.968-.941-2.198-.941-3.741h-2Zm4.98 7.884c1.683.73 3.706 1.072 6.031 1.072v-2c-2.141 0-3.874-.317-5.236-.907l-.795 1.835Zm-7.205-6.894c0-1.627.611-3.221 1.936-4.801l-1.533-1.285c-1.569 1.871-2.403 3.906-2.403 6.086h2Zm1.925-4.789c1.359-1.569 3.561-3.201 6.683-4.874l-.945-1.763c-3.223 1.728-5.665 3.497-7.25 5.328l1.512 1.309Zm6.75-6.598c-.583-.373-1.035-.741-1.372-1.099l-1.456 1.371c.475.505 1.063.974 1.749 1.413l1.079-1.685Zm-1.353-1.078c-.211-.238-.356-.581-.356-1.125h-2c0 .929.261 1.778.861 2.454l1.495-1.329Zm-.356-1.125c0-.598.443-1.537 1.85-2.845l-1.361-1.465c-1.486 1.381-2.489 2.827-2.489 4.31h2Zm1.853-2.848c.754-.706 2.021-1.674 3.838-2.91l-1.125-1.654c-1.837 1.25-3.21 2.288-4.08 3.105l1.367 1.459Zm3.626-4.673c-1.506-.566-2.784-1.359-3.847-2.375l-1.382 1.445c1.272 1.217 2.786 2.149 4.527 2.802l.702-1.872Zm-3.813-2.341c-1.217-1.283-1.857-2.964-1.857-5.136h-2c0 2.599.782 4.801 2.407 6.513l1.45-1.377Zm-1.857-5.136c0-3.53 1.362-6.438 4.139-8.792l-1.293-1.525c-3.213 2.722-4.846 6.183-4.846 10.317h2Zm4.139-8.792c2.791-2.365 6.258-3.569 10.469-3.569v-2c-4.621 0-8.564 1.334-11.762 4.044l1.293 1.525Zm10.469-3.569c2.208 0 4.01.352 5.444 1.012l.836-1.817c-1.764-.812-3.87-1.195-6.28-1.195v2Zm5.456 1.018c.776.345 1.362.649 1.773.91.205.13.353.241.454.331.105.093.133.139.13.135l1.731-1.002c-.267-.461-.747-.837-1.243-1.152-.527-.335-1.211-.685-2.033-1.05l-.812 1.828Zm3.223 1.875h5.139v-2h-5.139v2Zm4.139-1v3.045h2v-3.045h-2Zm1 2.045h-3.883v2h3.883v-2Zm-4.848 1.263c.146.534.252 1.008.321 1.424l1.973-.328a16.626 16.626 0 0 0-.364-1.622l-1.93.526Zm.321 1.424c.063.376.101.959.101 1.777h2c0-.856-.038-1.567-.128-2.105l-1.973.328Zm.101 1.777c0 3.807-1.459 6.739-4.391 8.903l1.188 1.609c3.463-2.556 5.203-6.096 5.203-10.512h-2Zm-4.394 8.905c-3.013 2.242-6.232 3.342-9.681 3.342v2c3.912 0 7.544-1.259 10.875-3.737l-1.194-1.605Zm-9.681 3.342c-.358 0-.688-.012-.989-.035l-.153 1.994c.359.028.74.041 1.142.041v-2Zm-.913-.026a21.61 21.61 0 0 1-1.165-.219l-.412 1.958c.493.103.918.183 1.272.238l.305-1.977Zm-1.371-.24c-.494 0-.926.229-1.253.46-.345.244-.696.58-1.052.976l1.489 1.335c.304-.339.543-.555.718-.679.194-.137.213-.092.098-.092v-2Zm-2.292 1.422c-.743.798-1.296 1.696-1.296 2.661h2c0-.201.132-.623.76-1.298l-1.464-1.363Zm-1.296 2.661c0 .38.152.694.307.919.157.228.36.431.575.61.428.358 1.023.726 1.745 1.107 1.454.766 3.595 1.672 6.398 2.717l.699-1.874c-2.78-1.036-4.826-1.907-6.164-2.612-.674-.355-1.126-.647-1.395-.872a1.179 1.179 0 0 1-.21-.209c-.02-.029.045.05.045.214h-2Zm9.02 5.351c5.383 2.04 7.691 4.86 7.691 8.315h2c0-4.665-3.249-8.012-8.982-10.185l-.709 1.87Zm7.691 8.315c0 2.689-1.214 5.087-3.82 7.22l1.266 1.548c2.976-2.435 4.554-5.366 4.554-8.768h-2Zm-3.825 7.224c-2.536 2.098-6.477 3.234-12 3.234v2c5.744 0 10.228-1.173 13.275-3.693l-1.275-1.541Zm-12 3.234c-3.775 0-6.639-.809-8.697-2.319l-1.183 1.613c2.51 1.841 5.838 2.706 9.88 2.706v-2Zm-8.697-2.319c-2.078-1.524-3.017-3.288-3.017-5.322h-2c0 2.788 1.344 5.109 3.834 6.935l1.183-1.613Z" mask="url(#f)"/><mask id="g" fill="#fff"><path d="M380.954 166.083c.896 0 1.691.246 2.385.738 1.075.739 1.612 1.96 1.612 3.662 0 .761-.19 1.825-.571 3.191-.358 1.343-1.019 3.515-1.982 6.516 2.486-3.807 4.624-6.707 6.416-8.7 3.247-3.605 6.113-5.407 8.599-5.407 1.052 0 2.015.358 2.888 1.074.874.717 1.31 1.87 1.31 3.46 0 .493-.212 1.691-.638 3.594l-4.938 18.306c-.089.291-.055.593.101.907.157.291.448.437.874.437.403 0 .75-.101 1.041-.303.313-.201.705-.537 1.175-1.007.448-.448.807-.84 1.075-1.176.291-.336 1.098-1.31 2.419-2.922l1.041.806-.336.47c-1.612 2.284-3.236 4.109-4.87 5.475-1.635 1.344-3.247 2.015-4.837 2.015-.717 0-1.321-.179-1.814-.537-.761-.582-1.142-1.556-1.142-2.922 0-.336.022-.694.067-1.075.067-.381.157-.806.269-1.276l4.837-18.81c.067-.269.112-.493.134-.672.045-.179.067-.358.067-.537 0-.538-.145-.952-.436-1.243-.269-.291-.616-.437-1.042-.437-1.5 0-3.247 1.131-5.24 3.393-1.992 2.261-3.728 4.557-5.206 6.885-1.343 2.374-2.295 4.367-2.855 5.979-.537 1.59-1.534 5.094-2.989 10.513h-5.207l6.382-23.881c.045-.202.079-.392.101-.571a2.77 2.77 0 0 0 .067-.605c0-.537-.123-.952-.369-1.243-.224-.313-.605-.47-1.142-.47-1.411 0-3.158 1.176-5.24 3.527-2.06 2.351-3.751 4.546-5.072 6.583-1.299 1.993-2.542 4.647-3.728 7.961-.717 2.015-1.669 4.915-2.855 8.699h-5.173l6.55-23.881c.067-.247.123-.482.168-.706a3.65 3.65 0 0 0 .067-.705c0-.873-.302-1.399-.907-1.579-.605-.179-1.769-.235-3.493-.168v-1.142c2.261-.358 5.923-1.097 10.983-2.216l.269.235-3.93 13.872c2.486-3.673 4.837-6.74 7.054-9.203 3.045-3.27 5.732-4.904 8.061-4.904Z"/></mask><path fill="#fff" d="M380.954 166.083c.896 0 1.691.246 2.385.738 1.075.739 1.612 1.96 1.612 3.662 0 .761-.19 1.825-.571 3.191-.358 1.343-1.019 3.515-1.982 6.516 2.486-3.807 4.624-6.707 6.416-8.7 3.247-3.605 6.113-5.407 8.599-5.407 1.052 0 2.015.358 2.888 1.074.874.717 1.31 1.87 1.31 3.46 0 .493-.212 1.691-.638 3.594l-4.938 18.306c-.089.291-.055.593.101.907.157.291.448.437.874.437.403 0 .75-.101 1.041-.303.313-.201.705-.537 1.175-1.007.448-.448.807-.84 1.075-1.176.291-.336 1.098-1.31 2.419-2.922l1.041.806-.336.47c-1.612 2.284-3.236 4.109-4.87 5.475-1.635 1.344-3.247 2.015-4.837 2.015-.717 0-1.321-.179-1.814-.537-.761-.582-1.142-1.556-1.142-2.922 0-.336.022-.694.067-1.075.067-.381.157-.806.269-1.276l4.837-18.81c.067-.269.112-.493.134-.672.045-.179.067-.358.067-.537 0-.538-.145-.952-.436-1.243-.269-.291-.616-.437-1.042-.437-1.5 0-3.247 1.131-5.24 3.393-1.992 2.261-3.728 4.557-5.206 6.885-1.343 2.374-2.295 4.367-2.855 5.979-.537 1.59-1.534 5.094-2.989 10.513h-5.207l6.382-23.881c.045-.202.079-.392.101-.571a2.77 2.77 0 0 0 .067-.605c0-.537-.123-.952-.369-1.243-.224-.313-.605-.47-1.142-.47-1.411 0-3.158 1.176-5.24 3.527-2.06 2.351-3.751 4.546-5.072 6.583-1.299 1.993-2.542 4.647-3.728 7.961-.717 2.015-1.669 4.915-2.855 8.699h-5.173l6.55-23.881c.067-.247.123-.482.168-.706a3.65 3.65 0 0 0 .067-.705c0-.873-.302-1.399-.907-1.579-.605-.179-1.769-.235-3.493-.168v-1.142c2.261-.358 5.923-1.097 10.983-2.216l.269.235-3.93 13.872c2.486-3.673 4.837-6.74 7.054-9.203 3.045-3.27 5.732-4.904 8.061-4.904Z"/><path fill="#fff" d="m383.339 166.821-.579.816.006.004.006.005.567-.825Zm1.041 6.853-.963-.269-.003.011.966.258Zm-1.982 6.516-.952-.306 1.79.853-.838-.547Zm6.416-8.7-.743-.669-.001.001.744.668Zm12.159 2.721.966.26.005-.021.005-.021-.976-.218Zm-4.938 18.306.956.294.005-.017.005-.017-.966-.26Zm.101.907-.894.447.007.014.007.013.88-.474Zm1.915.134-.541-.841-.014.009-.014.01.569.822Zm2.25-2.183-.755-.655-.013.015-.013.015.781.625Zm2.419-2.922.612-.791-.769-.595-.617.752.774.634Zm1.041.806.814.581.559-.783-.761-.589-.612.791Zm-.336.47-.814-.581-.003.004.817.577Zm-4.87 5.475.635.773.006-.006-.641-.767Zm-6.651 1.478-.607.794.009.008.01.007.588-.809Zm-1.075-3.997-.985-.174-.005.028-.003.029.993.117Zm.269-1.276-.969-.249-.002.008-.002.009.973.232Zm4.837-18.81.968.249.002-.007-.97-.242Zm.134-.672-.97-.243-.015.059-.007.06.992.124Zm-.369-1.78-.735.678.013.015.014.014.708-.707Zm-11.488 9.841-.844-.535-.014.021-.012.022.87.492Zm-2.855 5.979-.945-.328-.002.008.947.32Zm-2.989 10.513v1h.767l.199-.74-.966-.26Zm-5.207 0-.966-.258-.336 1.258h1.302v-1Zm6.382-23.881.966.258.006-.021.005-.02-.977-.217Zm.101-.571-.976-.217-.01.046-.006.047.992.124Zm-.302-1.848-.814.582.024.033.026.031.764-.646Zm-6.382 3.057-.749-.663-.003.004.752.659Zm-5.072 6.583.838.546.001-.002-.839-.544Zm-3.728 7.961-.942-.337-.001.002.943.335Zm-2.855 8.699v1h.734l.22-.7-.954-.3Zm-5.173 0-.964-.264-.347 1.264h1.311v-1Zm6.55-23.881.964.264.001-.001-.965-.263Zm-4.165-3.158h-1v1.04l1.039-.04-.039-1Zm0-1.142-.157-.987-.843.133v.854h1Zm10.983-2.216.659-.753-.381-.333-.494.109.216.977Zm.269.235.962.272.173-.608-.476-.417-.659.753Zm-3.93 13.872-.962-.273 1.79.833-.828-.56Zm7.054-9.203-.732-.682-.006.006-.006.007.744.669Zm8.061-3.904c.7 0 1.29.188 1.806.554l1.158-1.631c-.873-.619-1.872-.923-2.964-.923v2Zm1.818.563c.723.497 1.179 1.353 1.179 2.837h2c0-1.92-.619-3.505-2.046-4.486l-1.133 1.649Zm1.179 2.837c0 .623-.161 1.582-.534 2.922l1.926.537c.388-1.392.608-2.56.608-3.459h-2Zm-.537 2.933c-.351 1.317-1.005 3.469-1.968 6.468l1.905.611c.963-3.001 1.63-5.194 1.995-6.564l-1.932-.515Zm-.178 7.321c2.474-3.789 4.58-6.641 6.322-8.578l-1.488-1.337c-1.841 2.048-4.012 4.997-6.509 8.821l1.675 1.094Zm6.321-8.577c3.218-3.574 5.828-5.077 7.856-5.077v-2c-2.943 0-6.067 2.101-9.342 5.738l1.486 1.339Zm7.856-5.077c.803 0 1.545.266 2.254.847l1.269-1.546c-1.038-.851-2.222-1.301-3.523-1.301v2Zm2.254.847c.558.459.944 1.269.944 2.687h2c0-1.762-.487-3.258-1.675-4.233l-1.269 1.546Zm.944 2.687c0 .148-.037.492-.144 1.093a55.786 55.786 0 0 1-.47 2.283l1.952.436c.214-.958.377-1.75.487-2.369.106-.597.175-1.099.175-1.443h-2Zm-.603 3.334-4.938 18.306 1.931.52 4.938-18.306-1.931-.52Zm-4.928 18.272c-.177.574-.091 1.142.162 1.648l1.789-.894c-.061-.121-.042-.158-.04-.166l-1.911-.588Zm.176 1.675c.383.711 1.084.963 1.754.963v-2c-.104 0-.12-.019-.091-.004a.25.25 0 0 1 .098.093l-1.761.948Zm1.754.963a2.78 2.78 0 0 0 1.61-.481l-1.138-1.644c-.102.07-.244.125-.472.125v2Zm1.582-.462c.402-.259.854-.653 1.342-1.141l-1.415-1.415c-.452.453-.785.73-1.009.874l1.082 1.682Zm1.342-1.141a15.92 15.92 0 0 0 1.148-1.258l-1.562-1.25c-.237.297-.568.661-1.001 1.093l1.415 1.415Zm1.123-1.228c.302-.349 1.119-1.336 2.436-2.943l-1.547-1.268a222.575 222.575 0 0 1-2.4 2.901l1.511 1.31Zm1.051-2.787 1.041.807 1.224-1.582-1.041-.806-1.224 1.581Zm.839-.565-.336.47 1.628 1.162.336-.47-1.628-1.162Zm-.339.474c-1.577 2.234-3.144 3.989-4.695 5.285l1.283 1.534c1.718-1.435 3.398-3.331 5.046-5.665l-1.634-1.154Zm-4.688 5.28c-1.516 1.245-2.911 1.787-4.202 1.787v2c1.888 0 3.718-.801 5.472-2.242l-1.27-1.545Zm-4.202 1.787c-.544 0-.933-.133-1.226-.346l-1.176 1.618c.692.503 1.512.728 2.402.728v-2Zm-1.206-.331c-.421-.322-.75-.934-.75-2.128h-2c0 1.538.433 2.874 1.535 3.716l1.215-1.588Zm-.75-2.128c0-.292.02-.611.06-.958l-1.986-.234c-.049.414-.074.812-.074 1.192h2Zm.052-.901c.063-.357.148-.763.257-1.219l-1.946-.463c-.115.485-.209.93-.281 1.334l1.97.348Zm.252-1.201 4.837-18.81-1.937-.498-4.837 18.81 1.937.498Zm4.839-18.817c.072-.289.127-.556.156-.79l-1.984-.248c-.016.124-.05.305-.112.553l1.94.485Zm.134-.671c.064-.256.097-.517.097-.78h-2c0 .094-.011.192-.037.294l1.94.486Zm.097-.78c0-.719-.198-1.419-.729-1.95l-1.415 1.414c.052.051.144.179.144.536h2Zm-.702-1.921c-.473-.513-1.094-.759-1.776-.759v2c.17 0 .243.045.307.115l1.469-1.356Zm-1.776-.759c-1.97 0-3.976 1.446-5.99 3.731l1.501 1.323c1.972-2.238 3.459-3.054 4.489-3.054v-2Zm-5.99 3.731c-2.024 2.298-3.792 4.635-5.3 7.012l1.689 1.071c1.447-2.281 3.15-4.534 5.112-6.76l-1.501-1.323Zm-5.326 7.055c-1.358 2.399-2.342 4.451-2.93 6.143l1.89.656c.532-1.532 1.451-3.466 2.78-5.814l-1.74-.985Zm-2.932 6.151c-.55 1.626-1.555 5.163-3.008 10.574l1.932.519c1.457-5.427 2.445-8.899 2.97-10.453l-1.894-.64Zm-2.042 9.833h-5.207v2h5.207v-2Zm-4.24 1.259 6.381-23.882-1.932-.516-6.382 23.881 1.933.517Zm6.392-23.923c.05-.228.09-.45.116-.664l-1.984-.248a5.141 5.141 0 0 1-.085.478l1.953.434Zm.1-.571c.061-.271.091-.546.091-.822h-2c0 .127-.014.256-.043.388l1.952.434Zm.091-.822c0-.678-.155-1.355-.606-1.889l-1.527 1.292c.042.049.133.201.133.597h2Zm-.555-1.824c-.48-.671-1.233-.889-1.956-.889v2c.176 0 .269.026.308.042a.143.143 0 0 1 .018.009l.004.002v.001h.001-.001l-.001-.002h-.001l1.628-1.163Zm-1.956-.889c-.98 0-1.965.405-2.927 1.052-.968.652-1.989 1.601-3.062 2.812l1.498 1.326c1.009-1.14 1.903-1.955 2.681-2.479.785-.528 1.379-.711 1.81-.711v-2Zm-5.992 3.868c-2.084 2.378-3.806 4.611-5.159 6.698l1.678 1.088c1.289-1.987 2.948-4.143 4.985-6.468l-1.504-1.318Zm-5.158 6.696c-1.356 2.082-2.63 4.814-3.832 8.17l1.883.674c1.172-3.272 2.384-5.847 3.625-7.752l-1.676-1.092Zm-3.833 8.172c-.722 2.033-1.679 4.947-2.867 8.735l1.909.599c1.185-3.781 2.133-6.667 2.843-8.664l-1.885-.67Zm-1.912 8.034h-5.173v2h5.173v-2Zm-4.209 1.265 6.55-23.882-1.929-.529-6.549 23.882 1.928.529Zm6.551-23.883c.072-.266.133-.524.183-.772l-1.961-.393c-.04.199-.09.412-.152.639l1.93.526Zm.183-.772c.059-.294.087-.595.087-.902h-2c0 .186-.017.355-.048.509l1.961.393Zm.087-.902c0-.539-.092-1.081-.36-1.548a2.116 2.116 0 0 0-1.263-.989l-.568 1.917c.043.013.061.026.067.03a.13.13 0 0 1 .03.039c.034.059.094.217.094.551h2Zm-1.623-2.537c-.785-.233-2.11-.275-3.816-.209l.078 1.999c1.742-.068 2.746.002 3.17.127l.568-1.917Zm-2.777.79v-1.142h-2v1.142h2Zm-.844-.154c2.294-.363 5.981-1.108 11.043-2.228l-.432-1.953c-5.059 1.119-8.695 1.853-10.924 2.206l.313 1.975Zm10.169-2.452.268.235 1.318-1.505-.269-.235-1.317 1.505Zm-.035-.79-3.93 13.872 1.924.545 3.93-13.872-1.924-.545Zm-2.14 14.705c2.468-3.646 4.791-6.675 6.969-9.095l-1.487-1.337c-2.255 2.506-4.635 5.613-7.138 9.311l1.656 1.121Zm6.957-9.082c3.012-3.233 5.445-4.585 7.33-4.585v-2c-2.773 0-5.714 1.917-8.793 5.222l1.463 1.363Z" mask="url(#g)"/><mask id="h" fill="#fff"><path d="M328.008 178.474c0-8.831 2.639-16.584 7.918-23.259 3.248-4.085 7.08-7.372 11.496-9.859l.723 1.256c-4.086 3.249-7.004 6.408-8.755 9.479-3.071 5.355-4.606 12.486-4.606 21.393 0 6.598.583 12.042 1.751 16.331 2.055 7.511 5.925 13.133 11.61 16.863l-.99 1.256c-3.121-1.497-6.496-4.428-10.125-8.793-6.015-7.233-9.022-15.455-9.022-24.667Z"/></mask><path fill="#fff" d="M328.008 178.474c0-8.831 2.639-16.584 7.918-23.259 3.248-4.085 7.08-7.372 11.496-9.859l.723 1.256c-4.086 3.249-7.004 6.408-8.755 9.479-3.071 5.355-4.606 12.486-4.606 21.393 0 6.598.583 12.042 1.751 16.331 2.055 7.511 5.925 13.133 11.61 16.863l-.99 1.256c-3.121-1.497-6.496-4.428-10.125-8.793-6.015-7.233-9.022-15.455-9.022-24.667Z"/><path fill="#fff" d="m335.926 155.215-.783-.622-.002.002.785.62Zm11.496-9.859.866-.499-.494-.858-.863.486.491.871Zm.723 1.256.622.783.674-.536-.429-.746-.867.499Zm-8.755 9.479.867.497.001-.002-.868-.495Zm-2.855 37.724-.965.262v.002l.965-.264Zm11.61 16.863.786.619.674-.857-.911-.598-.549.836Zm-.99 1.256-.432.902.722.346.496-.629-.786-.619Zm-10.125-8.793.769-.639-.769.639Zm-8.022-24.667c0-8.616 2.569-16.148 7.702-22.638l-1.569-1.241c-5.423 6.858-8.133 14.832-8.133 23.879h2Zm7.701-22.636c3.17-3.988 6.904-7.189 11.204-9.611l-.982-1.742c-4.532 2.552-8.462 5.924-11.788 10.108l1.566 1.245Zm9.846-9.983.723 1.256 1.734-.998-.724-1.256-1.733.998Zm.968-.025c-4.143 3.293-7.165 6.545-9.002 9.765l1.737.991c1.666-2.92 4.48-5.987 8.509-9.191l-1.244-1.565Zm-9.001 9.763c-3.187 5.559-4.738 12.882-4.738 21.891h2c0-8.805 1.52-15.745 4.473-20.896l-1.735-.995Zm-4.738 21.891c0 6.649.587 12.188 1.786 16.593l1.93-.525c-1.136-4.173-1.716-9.52-1.716-16.068h-2Zm1.786 16.595c2.11 7.71 6.109 13.552 12.026 17.435l1.098-1.672c-5.452-3.577-9.193-8.978-11.195-16.291l-1.929.528Zm11.79 15.98-.99 1.256 1.571 1.238.99-1.256-1.571-1.238Zm.228.974c-2.935-1.408-6.201-4.215-9.789-8.531l-1.538 1.278c3.669 4.414 7.154 7.469 10.462 9.056l.865-1.803Zm-9.789-8.531c-5.869-7.058-8.791-15.055-8.791-24.028h-2c0 9.451 3.092 17.898 9.253 25.306l1.538-1.278Z" mask="url(#h)"/><mask id="i" fill="#fff"><path d="M432.422 62.434c0-8.831-2.64-16.584-7.918-23.259-3.248-4.085-7.08-7.372-11.496-9.859l-.723 1.256c4.085 3.249 7.004 6.408 8.755 9.479 3.071 5.355 4.606 12.486 4.606 21.393 0 6.598-.584 12.042-1.751 16.33-2.056 7.512-5.926 13.133-11.61 16.864l.989 1.256c3.122-1.497 6.497-4.428 10.126-8.793 6.015-7.233 9.022-15.455 9.022-24.667Z"/></mask><path fill="#fff" d="M432.422 62.434c0-8.831-2.64-16.584-7.918-23.259-3.248-4.085-7.08-7.372-11.496-9.859l-.723 1.256c4.085 3.249 7.004 6.408 8.755 9.479 3.071 5.355 4.606 12.486 4.606 21.393 0 6.598-.584 12.042-1.751 16.33-2.056 7.512-5.926 13.133-11.61 16.864l.989 1.256c3.122-1.497 6.497-4.428 10.126-8.793 6.015-7.233 9.022-15.455 9.022-24.667Z"/><path fill="#fff" d="m424.504 39.175.783-.622.001.002-.784.62Zm-11.496-9.859-.867-.499.495-.858.863.486-.491.871Zm-.723 1.256-.623.783-.674-.536.43-.746.867.5Zm8.755 9.479-.868.497-.001-.002.869-.495Zm2.855 37.724.965.262-.001.002-.964-.264Zm-11.61 16.863-.786.619-.675-.857.912-.598.549.836Zm.989 1.256.433.902-.722.346-.496-.629.785-.619Zm10.126-8.793-.769-.64.769.64Zm8.022-24.667c0-8.616-2.569-16.148-7.702-22.638l1.568-1.241c5.424 6.858 8.134 14.831 8.134 23.879h-2Zm-7.701-22.636c-3.17-3.988-6.904-7.189-11.204-9.61l.982-1.743c4.531 2.552 8.461 5.924 11.788 10.108l-1.566 1.245Zm-9.846-9.983-.724 1.256-1.733-.998.723-1.256 1.734.998Zm-.968-.026c4.142 3.294 7.165 6.546 9.002 9.767l-1.738.99c-1.665-2.92-4.479-5.987-8.509-9.191l1.245-1.566Zm9 9.764c3.188 5.559 4.739 12.882 4.739 21.891h-2c0-8.806-1.52-15.745-4.474-20.896l1.735-.995Zm4.739 21.891c0 6.649-.587 12.188-1.786 16.593l-1.93-.525c1.136-4.173 1.716-9.52 1.716-16.068h2Zm-1.787 16.595c-2.11 7.71-6.108 13.552-12.026 17.435l-1.097-1.672c5.451-3.578 9.193-8.978 11.194-16.291l1.929.528Zm-11.789 15.98.99 1.256-1.571 1.238-.99-1.256 1.571-1.238Zm-.228.974c2.934-1.408 6.2-4.215 9.789-8.531l1.538 1.278c-3.669 4.414-7.154 7.469-10.462 9.056l-.865-1.803Zm9.789-8.531c5.869-7.058 8.791-15.055 8.791-24.028h2c0 9.45-3.093 17.898-9.253 25.306l-1.538-1.278Z" mask="url(#i)"/><mask id="j" fill="#fff"><path d="M432.422 178.434c0-8.832-2.64-16.584-7.918-23.259-3.248-4.086-7.08-7.372-11.496-9.859l-.723 1.256c4.085 3.249 7.004 6.408 8.755 9.479 3.071 5.354 4.606 12.486 4.606 21.393 0 6.598-.584 12.042-1.751 16.331-2.056 7.511-5.926 13.133-11.61 16.863l.989 1.256c3.122-1.497 6.497-4.428 10.126-8.793 6.015-7.233 9.022-15.455 9.022-24.667Z"/></mask><path fill="#fff" d="M432.422 178.434c0-8.832-2.64-16.584-7.918-23.259-3.248-4.086-7.08-7.372-11.496-9.859l-.723 1.256c4.085 3.249 7.004 6.408 8.755 9.479 3.071 5.354 4.606 12.486 4.606 21.393 0 6.598-.584 12.042-1.751 16.331-2.056 7.511-5.926 13.133-11.61 16.863l.989 1.256c3.122-1.497 6.497-4.428 10.126-8.793 6.015-7.233 9.022-15.455 9.022-24.667Z"/><path fill="#fff" d="m424.504 155.175.783-.622.001.002-.784.62Zm-11.496-9.859-.867-.499.495-.858.863.486-.491.871Zm-.723 1.256-.623.783-.674-.536.43-.746.867.499Zm8.755 9.479-.868.497-.001-.002.869-.495Zm2.855 37.724.965.262-.001.002-.964-.264Zm-11.61 16.863-.786.619-.675-.857.912-.598.549.836Zm.989 1.256.433.902-.722.346-.496-.629.785-.619Zm10.126-8.793-.769-.639.769.639Zm8.022-24.667c0-8.616-2.569-16.148-7.702-22.638l1.568-1.241c5.424 6.858 8.134 14.832 8.134 23.879h-2Zm-7.701-22.636c-3.17-3.988-6.904-7.189-11.204-9.611l.982-1.742c4.531 2.552 8.461 5.924 11.788 10.108l-1.566 1.245Zm-9.846-9.983-.724 1.256-1.733-.998.723-1.256 1.734.998Zm-.968-.025c4.142 3.293 7.165 6.545 9.002 9.765l-1.738.991c-1.665-2.92-4.479-5.988-8.509-9.191l1.245-1.565Zm9 9.763c3.188 5.559 4.739 12.882 4.739 21.891h-2c0-8.805-1.52-15.745-4.474-20.896l1.735-.995Zm4.739 21.891c0 6.649-.587 12.188-1.786 16.593l-1.93-.525c1.136-4.173 1.716-9.52 1.716-16.068h2Zm-1.787 16.595c-2.11 7.71-6.108 13.552-12.026 17.435l-1.097-1.672c5.451-3.577 9.193-8.978 11.194-16.291l1.929.528Zm-11.789 15.98.99 1.256-1.571 1.238-.99-1.256 1.571-1.238Zm-.228.974c2.934-1.408 6.2-4.215 9.789-8.531l1.538 1.278c-3.669 4.414-7.154 7.469-10.462 9.056l-.865-1.803Zm9.789-8.531c5.869-7.058 8.791-15.055 8.791-24.028h2c0 9.451-3.093 17.898-9.253 25.306l-1.538-1.278Z" mask="url(#j)"/></svg>