<svg width="1200" height="180" fill="none" xmlns="http://www.w3.org/2000/svg"><g clip-path="url(#a)"><rect width="1200" height="180" rx="16" fill="#151717"/><g clip-path="url(#b)"><path d="M578 0h606c8.84 0 16 7.163 16 16v148c0 8.837-7.16 16-16 16H578V0Z" fill="#242828"/><path transform="rotate(180 600.5 90)" fill="url(#c)" d="M0 0h622v180H0z"/><path fill="#242828" d="m505 25 706.677-408 252 436.477-706.677 408z"/><g clip-path="url(#d)"><path d="m566.921-10.75-47.632 27.5c-7.891 4.556-10.595 14.648-6.039 22.54l24.062 41.677 76.211-44L589.46-4.711c-4.556-7.891-14.647-10.595-22.539-6.039Z" fill="#0364B9"/><path d="M519.289 16.75c-7.891 4.556-10.595 14.648-6.039 22.54l.24.415 64.751-52.378a16.435 16.435 0 0 0-11.32 1.923l-47.632 27.5ZM589.46-4.71a16.436 16.436 0 0 0-8.903-7.348l20.111 56.445 12.855-7.42L589.46-4.711Z" fill="#0A559E"/><path d="m536.625 79.776 76.21-44 4.125 7.145c4.557 7.892 1.853 17.983-6.039 22.54l-47.632 27.5c-7.891 4.556-17.983 1.852-22.539-6.04l-4.125-7.145Z" fill="#2A3052"/><path d="M535.802 37.968c.705.43 1.547.986 2.524 1.666a75.66 75.66 0 0 1 3.133 2.193c1.111.78 2.23 1.596 3.355 2.445l3.175 2.397-.488-3.948c-.173-1.4-.329-2.77-.469-4.112a201.946 201.946 0 0 1-.332-3.809 70.624 70.624 0 0 1-.153-3.036l4.058-2.343c.95 1.204 1.974 2.582 3.072 4.132a142.544 142.544 0 0 1 3.366 4.84 275.917 275.917 0 0 1 3.395 5.089 371.489 371.489 0 0 1 3.174 4.836l-4.344 2.508a595.434 595.434 0 0 0-3.859-6.155 195.003 195.003 0 0 0-4.389-6.612c.119.999.25 2.105.392 3.318l.425 3.641c.161 1.203.31 2.362.446 3.477.124 1.097.235 2.037.331 2.82l-3.115 1.798a310.04 310.04 0 0 0-2.275-1.697 730.295 730.295 0 0 0-2.817-2.108c-.961-.74-1.932-1.475-2.912-2.205s-1.873-1.396-2.678-1.998a196.56 196.56 0 0 0 3.532 7.106 578.976 578.976 0 0 0 3.401 6.42l-4.344 2.508c-.826-1.607-1.703-3.323-2.63-5.15l-2.71-5.485a308.097 308.097 0 0 1-2.508-5.335 131.26 131.26 0 0 1-2.015-4.743l4.259-2.458ZM569.173 18.7l2.194 3.802-5.973 3.448 9.24 16.004-4.458 2.574-9.24-16.004-5.973 3.449-2.194-3.801 16.404-9.471ZM586.68 27.226c-.319-.552-.724-.966-1.213-1.243-.501-.295-1.139-.41-1.913-.343-.775.066-1.721.32-2.838.762-1.116.441-2.456 1.113-4.018 2.015a141.09 141.09 0 0 0-2.604-5.699 237.812 237.812 0 0 0-2.656-5.325l10.717-6.188 2.063 3.573-7.145 4.125c.358.708.695 1.402 1.012 2.083.325.65.596 1.23.814 1.74 2.892-1.416 5.319-1.94 7.283-1.576 1.972.335 3.53 1.494 4.674 3.475a7.59 7.59 0 0 1 .982 2.824 6.316 6.316 0 0 1-.286 2.87c-.318.946-.878 1.867-1.682 2.763-.785.885-1.834 1.707-3.149 2.466-.515.297-1.08.572-1.695.826-.586.262-1.178.49-1.778.683-.569.202-1.096.367-1.581.494-.486.128-.875.2-1.17.218l-1.258-3.96c.597-.066 1.347-.22 2.249-.46.891-.261 1.88-.705 2.966-1.332 1.315-.759 2.119-1.566 2.412-2.422.283-.874.221-1.664-.186-2.369ZM572.84 77.513c.314-.181.558-.354.73-.517.177-.178.302-.346.377-.503a.876.876 0 0 0 .067-.477 1.327 1.327 0 0 0-.168-.456c-.187-.323-.493-.502-.919-.536-.431-.043-1.09.026-1.976.208-.39.072-.788.13-1.194.175-.412.034-.81.016-1.194-.054a3.225 3.225 0 0 1-1.099-.452c-.349-.23-.655-.574-.919-1.031a3.284 3.284 0 0 1-.453-1.378c-.043-.47.019-.925.185-1.364.166-.438.434-.853.805-1.245a5.719 5.719 0 0 1 1.391-1.09c.666-.384 1.284-.646 1.852-.783.569-.138 1.059-.212 1.473-.222l.372 2.13a6.42 6.42 0 0 0-1.144.164c-.399.078-.837.255-1.313.53-.534.308-.876.607-1.026.897-.146.275-.131.564.045.87a.904.904 0 0 0 .393.382c.157.075.342.12.555.137.217.002.45-.012.7-.042.253-.045.529-.096.826-.153a15.666 15.666 0 0 1 1.673-.204 3.866 3.866 0 0 1 1.314.099c.401.099.759.28 1.075.541.316.262.612.631.887 1.108.534.924.625 1.83.274 2.718-.356.88-1.187 1.695-2.492 2.449-.438.253-.85.453-1.235.599-.38.156-.73.275-1.051.359-.31.077-.591.131-.84.16-.24.025-.449.038-.626.038l-.395-2.134c.389-.009.837-.07 1.342-.184.51-.13 1.079-.376 1.708-.739ZM580.786 61.99l1.098 1.9-2.987 1.724 4.62 8.002-2.229 1.287-4.62-8.002-2.987 1.724-1.097-1.9 8.202-4.736ZM594.581 67.228a57.602 57.602 0 0 0-4.011-2.161 39.377 39.377 0 0 0-4.179-1.76l3.746 6.487-2.201 1.27-5.717-9.902 1.815-1.047a20.13 20.13 0 0 1 1.711.555c.645.237 1.314.505 2.007.803.697.284 1.403.594 2.118.93.71.327 1.385.649 2.025.965l-3.374-5.844 2.214-1.279 5.718 9.903-1.872 1.08Z" fill="#fff"/></g><g clip-path="url(#e)"><path d="m618.921 79.317-47.632 27.5c-7.891 4.556-10.595 14.647-6.039 22.539l24.062 41.678 76.211-44-24.063-41.678c-4.556-7.892-14.647-10.596-22.539-6.04Z" fill="#0364B9"/><path d="M571.289 106.817c-7.891 4.556-10.595 14.647-6.039 22.539l.24.415 64.751-52.377a16.435 16.435 0 0 0-11.32 1.923l-47.632 27.5ZM641.46 85.356a16.436 16.436 0 0 0-8.903-7.347l20.111 56.445 12.855-7.42-24.063-41.678Z" fill="#0A559E"/><path d="m588.625 169.843 76.21-44 4.125 7.144c4.557 7.892 1.853 17.984-6.039 22.54l-47.632 27.5c-7.891 4.556-17.983 1.852-22.539-6.04l-4.125-7.144Z" fill="#71BD0E"/><path d="M587.802 128.034a52.28 52.28 0 0 1 2.524 1.667c.986.651 2.03 1.381 3.133 2.192 1.111.781 2.23 1.596 3.355 2.446l3.175 2.396-.488-3.947c-.173-1.4-.329-2.77-.469-4.112a202.362 202.362 0 0 1-.332-3.809 70.661 70.661 0 0 1-.153-3.037l4.058-2.343c.95 1.205 1.974 2.582 3.072 4.133a142.912 142.912 0 0 1 3.366 4.839 275.994 275.994 0 0 1 3.395 5.09 367.51 367.51 0 0 1 3.174 4.836l-4.344 2.508a596.642 596.642 0 0 0-3.859-6.155 193.925 193.925 0 0 0-4.389-6.612c.119.998.25 2.104.392 3.318l.425 3.641c.161 1.203.31 2.362.446 3.477.124 1.097.235 2.036.331 2.819l-3.115 1.798c-.629-.474-1.388-1.04-2.275-1.696a699.777 699.777 0 0 0-2.817-2.108 219.789 219.789 0 0 0-2.912-2.206c-.98-.729-1.873-1.395-2.678-1.997a196.618 196.618 0 0 0 3.532 7.106 577.895 577.895 0 0 0 3.401 6.419l-4.344 2.508a1099.27 1099.27 0 0 1-2.63-5.149l-2.71-5.486a306.712 306.712 0 0 1-2.508-5.334 132.104 132.104 0 0 1-2.015-4.743l4.259-2.459ZM621.173 108.767l2.194 3.801-5.973 3.449 9.24 16.004-4.458 2.574-9.24-16.004-5.973 3.448-2.194-3.801 16.404-9.471ZM638.68 117.293c-.319-.552-.724-.967-1.213-1.243-.501-.295-1.139-.41-1.913-.343-.775.066-1.721.32-2.838.761-1.116.442-2.456 1.114-4.018 2.016a140.985 140.985 0 0 0-2.604-5.699 238.938 238.938 0 0 0-2.656-5.326l10.717-6.187 2.063 3.572-7.145 4.125c.358.708.695 1.403 1.012 2.083.325.651.596 1.231.814 1.74 2.892-1.415 5.319-1.94 7.283-1.575 1.972.335 3.53 1.493 4.674 3.475.528.914.855 1.856.982 2.824a6.313 6.313 0 0 1-.286 2.87c-.318.946-.878 1.867-1.682 2.762-.785.885-1.834 1.707-3.149 2.466-.515.297-1.08.573-1.695.826-.586.262-1.178.49-1.778.684a20.03 20.03 0 0 1-1.581.494c-.486.128-.875.2-1.17.218l-1.258-3.961c.597-.065 1.347-.219 2.249-.46.891-.26 1.88-.704 2.966-1.331 1.315-.759 2.119-1.566 2.412-2.422.283-.874.221-1.664-.186-2.369ZM625.155 169.644l-5.717-9.903 6.63-3.828 1.081 1.872-4.401 2.541 1.196 2.072 3.915-2.261 1.081 1.872-3.915 2.261 2.359 4.087-2.229 1.287ZM627.643 155.004l2.229-1.287 5.717 9.902-2.229 1.287-5.717-9.902ZM644.526 158.46a57.647 57.647 0 0 0-4.011-2.162 39.43 39.43 0 0 0-4.178-1.76l3.745 6.487-2.2 1.271-5.718-9.903 1.815-1.047c.496.132 1.066.318 1.711.555.645.237 1.315.505 2.008.803.697.284 1.403.594 2.118.93a84.75 84.75 0 0 1 2.024.965l-3.374-5.844 2.215-1.279 5.717 9.903-1.872 1.081Z" fill="#fff"/></g><g clip-path="url(#f)"><path d="m670.921 169.383-47.632 27.5c-7.891 4.557-10.595 14.648-6.039 22.54l24.062 41.677 76.211-44-24.063-41.677c-4.556-7.892-14.647-10.596-22.539-6.04Z" fill="#0364B9"/><path d="M623.289 196.883c-7.891 4.557-10.595 14.648-6.039 22.54l.24.415 64.751-52.377a16.434 16.434 0 0 0-11.32 1.922l-47.632 27.5ZM693.46 175.423a16.437 16.437 0 0 0-8.903-7.348l20.111 56.445 12.855-7.42-24.063-41.677Z" fill="#0A559E"/><path d="m640.625 259.909 76.21-44 4.125 7.145c4.557 7.892 1.853 17.983-6.039 22.54l-47.632 27.5c-7.891 4.556-17.983 1.852-22.539-6.04l-4.125-7.145Z" fill="#2A3052"/><path d="M639.802 218.101c.705.431 1.547.986 2.524 1.667.986.65 2.03 1.381 3.133 2.192 1.111.781 2.23 1.596 3.355 2.445l3.175 2.397-.488-3.948a216.748 216.748 0 0 1-.469-4.111 201.703 201.703 0 0 1-.332-3.81 70.546 70.546 0 0 1-.153-3.036l4.058-2.343a99.93 99.93 0 0 1 3.072 4.133 141.911 141.911 0 0 1 3.366 4.839 275.908 275.908 0 0 1 3.395 5.089 367.336 367.336 0 0 1 3.174 4.837l-4.344 2.508a585.64 585.64 0 0 0-3.859-6.156 194.886 194.886 0 0 0-4.389-6.611c.119.998.25 2.104.392 3.318l.425 3.641c.161 1.202.31 2.361.446 3.477.124 1.096.235 2.036.331 2.819l-3.115 1.798c-.629-.475-1.388-1.04-2.275-1.697a702.196 702.196 0 0 0-2.817-2.107 219.789 219.789 0 0 0-2.912-2.206c-.98-.73-1.873-1.396-2.678-1.998a196.668 196.668 0 0 0 3.532 7.107 577.895 577.895 0 0 0 3.401 6.419l-4.344 2.508c-.826-1.606-1.703-3.323-2.63-5.15l-2.71-5.485a310.208 310.208 0 0 1-2.508-5.334 131.33 131.33 0 0 1-2.015-4.744l4.259-2.458ZM673.173 198.834l2.194 3.801-5.973 3.448 9.24 16.005-4.458 2.574-9.24-16.005-5.973 3.449-2.194-3.801 16.404-9.471ZM690.68 207.36c-.319-.553-.724-.967-1.213-1.243-.501-.296-1.139-.41-1.913-.344-.775.066-1.721.32-2.838.762-1.116.441-2.456 1.113-4.018 2.015a140.95 140.95 0 0 0-2.604-5.698 238.938 238.938 0 0 0-2.656-5.326l10.717-6.187 2.063 3.572-7.145 4.125c.358.708.695 1.402 1.012 2.083.325.651.596 1.231.814 1.74 2.892-1.415 5.319-1.941 7.283-1.575 1.972.335 3.53 1.493 4.674 3.474.528.915.855 1.856.982 2.824a6.319 6.319 0 0 1-.286 2.871c-.318.945-.878 1.866-1.682 2.762-.785.885-1.834 1.707-3.149 2.466-.515.297-1.08.572-1.695.826a17.43 17.43 0 0 1-1.778.683c-.569.202-1.096.367-1.581.495-.486.127-.875.2-1.17.218l-1.258-3.961c.597-.065 1.347-.219 2.249-.46.891-.261 1.88-.705 2.966-1.332 1.315-.759 2.119-1.566 2.412-2.421.283-.875.221-1.664-.186-2.369ZM676.84 257.647c.314-.182.558-.354.73-.517.177-.178.302-.346.377-.503a.878.878 0 0 0 .067-.478 1.323 1.323 0 0 0-.168-.455c-.187-.324-.493-.503-.919-.536-.431-.044-1.09.026-1.976.207-.39.073-.788.131-1.194.175-.412.035-.81.017-1.194-.054a3.236 3.236 0 0 1-1.099-.451c-.349-.231-.655-.575-.919-1.032a3.28 3.28 0 0 1-.453-1.377 3.027 3.027 0 0 1 .185-1.364c.166-.439.434-.854.805-1.246a5.74 5.74 0 0 1 1.391-1.089c.666-.385 1.284-.646 1.852-.784.569-.137 1.059-.211 1.473-.221l.372 2.129a6.38 6.38 0 0 0-1.144.164c-.399.079-.837.255-1.313.53-.534.308-.876.607-1.026.897-.146.275-.131.565.045.87a.908.908 0 0 0 .393.383c.157.074.342.12.555.136.217.002.45-.012.7-.042.253-.044.529-.096.826-.153a15.904 15.904 0 0 1 1.673-.204 3.857 3.857 0 0 1 1.314.099c.401.099.759.28 1.075.541.316.262.612.632.887 1.108.534.924.625 1.83.274 2.719-.356.878-1.187 1.695-2.492 2.448-.438.253-.85.453-1.235.599-.38.156-.73.276-1.051.359a6.82 6.82 0 0 1-.84.161c-.24.024-.449.037-.626.038l-.395-2.135a6.91 6.91 0 0 0 1.342-.184c.51-.129 1.079-.375 1.708-.738ZM684.786 242.123l1.098 1.9-2.987 1.724 4.62 8.002-2.229 1.287-4.62-8.002-2.987 1.725-1.097-1.901 8.202-4.735ZM698.581 247.362a57.647 57.647 0 0 0-4.011-2.162 39.357 39.357 0 0 0-4.179-1.76l3.746 6.488-2.201 1.27-5.717-9.902 1.815-1.048a20.27 20.27 0 0 1 1.711.555 39.23 39.23 0 0 1 2.007.804c.697.283 1.403.593 2.118.929.71.327 1.385.649 2.025.966l-3.374-5.845 2.214-1.278 5.718 9.902-1.872 1.081Z" fill="#242828"/></g><g clip-path="url(#g)"><path d="m656.987-62.75-47.631 27.5c-7.892 4.556-10.596 14.648-6.04 22.54l24.063 41.677 76.21-44-24.062-41.678c-4.557-7.891-14.648-10.595-22.54-6.039Z" fill="#0364B9"/><path d="M609.356-35.25c-7.892 4.556-10.596 14.648-6.04 22.54l.24.415 64.751-52.378a16.436 16.436 0 0 0-11.32 1.923l-47.631 27.5ZM679.527-56.71a16.442 16.442 0 0 0-8.904-7.348l20.112 56.445 12.854-7.42-24.062-41.678Z" fill="#0A559E"/><path d="m626.691 27.776 76.211-44 4.125 7.145c4.556 7.892 1.852 17.983-6.04 22.54l-47.631 27.5c-7.892 4.556-17.983 1.852-22.54-6.04l-4.125-7.145Z" fill="#71BD0E"/><path d="M625.868-14.032c.706.43 1.547.986 2.525 1.666a77.03 77.03 0 0 1 3.133 2.193c1.111.78 2.229 1.596 3.355 2.445l3.174 2.397-.488-3.948c-.173-1.4-.329-2.77-.469-4.112a210.656 210.656 0 0 1-.332-3.809 72.08 72.08 0 0 1-.152-3.036l4.058-2.343a102.534 102.534 0 0 1 3.072 4.132 144.013 144.013 0 0 1 3.365 4.84 270.935 270.935 0 0 1 3.396 5.089 370.78 370.78 0 0 1 3.173 4.836l-4.344 2.508a579.398 579.398 0 0 0-3.859-6.155 196.536 196.536 0 0 0-4.388-6.612c.119.999.249 2.105.391 3.318l.426 3.641c.161 1.203.309 2.362.445 3.478.125 1.096.235 2.036.332 2.818l-3.115 1.799c-.63-.475-1.388-1.04-2.276-1.697a720.913 720.913 0 0 0-2.817-2.108c-.961-.74-1.932-1.476-2.912-2.205-.98-.73-1.872-1.396-2.677-1.998A194.905 194.905 0 0 0 632.415.21a595.822 595.822 0 0 0 3.401 6.42l-4.344 2.508c-.825-1.607-1.702-3.323-2.63-5.15l-2.71-5.485a323.766 323.766 0 0 1-2.508-5.335 131.127 131.127 0 0 1-2.014-4.743l4.258-2.458ZM659.239-33.3l2.195 3.802-5.973 3.448 9.24 16.004-4.458 2.574-9.24-16.004-5.973 3.449-2.195-3.801 16.404-9.471ZM676.746-24.774c-.319-.552-.723-.966-1.213-1.243-.501-.295-1.138-.41-1.913-.343-.775.066-1.72.32-2.837.762-1.117.441-2.457 1.113-4.019 2.015a138.377 138.377 0 0 0-2.604-5.699 237.812 237.812 0 0 0-2.656-5.325l10.717-6.188 2.063 3.573-7.145 4.125a68.92 68.92 0 0 1 1.012 2.083c.325.65.597 1.23.814 1.74 2.892-1.416 5.32-1.94 7.283-1.576 1.972.335 3.53 1.494 4.674 3.475a7.61 7.61 0 0 1 .983 2.824 6.33 6.33 0 0 1-.286 2.87c-.318.946-.879 1.867-1.683 2.763-.784.885-1.834 1.707-3.149 2.466-.514.297-1.079.572-1.695.826a17.58 17.58 0 0 1-1.777.683 20.14 20.14 0 0 1-1.582.494c-.485.128-.875.2-1.17.218l-1.258-3.96c.598-.066 1.347-.22 2.25-.46.891-.261 1.879-.705 2.965-1.332 1.315-.759 2.119-1.566 2.413-2.421.282-.875.22-1.665-.187-2.37ZM663.221 27.577l-5.717-9.903 6.63-3.828 1.081 1.872-4.401 2.541 1.196 2.072 3.916-2.26 1.08 1.872-3.915 2.26 2.36 4.087-2.23 1.287ZM665.709 12.937l2.23-1.287 5.717 9.903-2.229 1.287-5.718-9.903ZM682.593 16.393a57.602 57.602 0 0 0-4.011-2.162 39.377 39.377 0 0 0-4.179-1.76l3.746 6.488-2.201 1.27-5.717-9.902 1.814-1.048c.496.133 1.067.318 1.712.555.645.237 1.314.505 2.007.804.697.283 1.403.593 2.118.93.71.327 1.385.648 2.025.965l-3.375-5.845 2.215-1.278 5.717 9.902-1.871 1.081Z" fill="#fff"/></g><g clip-path="url(#h)"><path d="m708.987 27.317-47.631 27.5c-7.892 4.556-10.596 14.647-6.04 22.54l24.063 41.677 76.21-44-24.062-41.678c-4.557-7.892-14.648-10.596-22.54-6.04Z" fill="#0364B9"/><path d="M661.356 54.817c-7.892 4.556-10.596 14.647-6.04 22.54l.24.414 64.751-52.377a16.436 16.436 0 0 0-11.32 1.923l-47.631 27.5ZM731.527 33.356a16.442 16.442 0 0 0-8.904-7.347l20.112 56.445 12.854-7.42-24.062-41.678Z" fill="#0A559E"/><path d="m678.691 117.843 76.211-44 4.125 7.144c4.556 7.892 1.852 17.984-6.04 22.54l-47.631 27.5c-7.892 4.556-17.983 1.852-22.54-6.04l-4.125-7.144Z" fill="#2A3052"/><path d="M677.868 76.034c.706.431 1.547.987 2.525 1.667.985.65 2.029 1.382 3.133 2.193a124.12 124.12 0 0 1 3.355 2.444l3.174 2.397-.488-3.948c-.173-1.399-.329-2.77-.469-4.111a210.735 210.735 0 0 1-.332-3.81 72.085 72.085 0 0 1-.152-3.036l4.058-2.343a102.534 102.534 0 0 1 3.072 4.133 144.02 144.02 0 0 1 3.365 4.84 270.64 270.64 0 0 1 3.396 5.089 369.632 369.632 0 0 1 3.173 4.836l-4.344 2.508a578.764 578.764 0 0 0-3.859-6.156 196.483 196.483 0 0 0-4.388-6.61c.119.997.249 2.103.391 3.317l.426 3.641c.161 1.203.309 2.362.445 3.477.125 1.097.235 2.036.332 2.819l-3.115 1.798c-.63-.474-1.388-1.04-2.276-1.696a710.158 710.158 0 0 0-2.817-2.108c-.961-.74-1.932-1.476-2.912-2.206s-1.872-1.395-2.677-1.997a194.91 194.91 0 0 0 3.531 7.106 596.412 596.412 0 0 0 3.401 6.42l-4.344 2.507c-.825-1.606-1.702-3.323-2.63-5.15-.909-1.837-1.812-3.666-2.71-5.485a323.688 323.688 0 0 1-2.508-5.334 131.111 131.111 0 0 1-2.014-4.743l4.258-2.459ZM711.239 56.767l2.195 3.801-5.973 3.449 9.24 16.004-4.458 2.574-9.24-16.004-5.973 3.448-2.195-3.8 16.404-9.472ZM728.746 65.293c-.319-.553-.723-.967-1.213-1.243-.501-.295-1.138-.41-1.913-.343-.775.066-1.72.32-2.837.761-1.117.442-2.457 1.114-4.019 2.016a138.316 138.316 0 0 0-2.604-5.699 237.384 237.384 0 0 0-2.656-5.325l10.717-6.188 2.063 3.572-7.145 4.125c.358.708.696 1.403 1.012 2.083.325.651.597 1.231.814 1.74 2.892-1.415 5.32-1.94 7.283-1.575 1.972.335 3.53 1.493 4.674 3.475.528.914.855 1.855.983 2.824a6.33 6.33 0 0 1-.286 2.87c-.318.946-.879 1.867-1.683 2.763-.784.884-1.834 1.706-3.149 2.465-.514.297-1.079.573-1.695.826-.585.262-1.178.49-1.777.684a20.18 20.18 0 0 1-1.582.494c-.485.128-.875.2-1.17.218l-1.258-3.96c.598-.066 1.347-.22 2.25-.461.891-.26 1.879-.704 2.965-1.331 1.315-.76 2.119-1.566 2.413-2.422.282-.874.22-1.664-.187-2.369ZM714.906 115.58c.315-.182.558-.354.731-.517.176-.178.302-.346.376-.503a.886.886 0 0 0 .068-.477 1.328 1.328 0 0 0-.168-.456c-.187-.324-.494-.502-.92-.536-.431-.043-1.09.026-1.976.207-.39.073-.788.131-1.194.175-.412.035-.81.017-1.193-.054a3.2 3.2 0 0 1-1.099-.451c-.349-.23-.656-.574-.92-1.032a3.264 3.264 0 0 1-.452-1.377c-.043-.47.018-.925.184-1.364.166-.439.434-.854.805-1.246a5.76 5.76 0 0 1 1.391-1.089c.667-.385 1.284-.646 1.853-.783.568-.138 1.059-.212 1.472-.222l.372 2.129c-.359.017-.74.071-1.143.165-.4.078-.838.254-1.314.529-.533.308-.875.607-1.025.897-.146.275-.132.565.044.87a.908.908 0 0 0 .393.383c.157.074.342.12.555.137.217.001.45-.013.7-.042.254-.045.529-.096.826-.153a15.419 15.419 0 0 1 1.673-.204 3.867 3.867 0 0 1 1.315.098c.4.099.758.28 1.075.542.316.262.612.631.887 1.107.533.924.624 1.83.274 2.719-.357.879-1.187 1.695-2.492 2.448-.439.253-.85.453-1.236.599a8.25 8.25 0 0 1-1.05.359 6.85 6.85 0 0 1-.841.162c-.24.024-.448.036-.626.037l-.394-2.135c.389-.008.836-.07 1.342-.184.509-.129 1.079-.375 1.707-.738ZM722.853 100.056l1.097 1.9-2.987 1.725 4.62 8.002-2.229 1.287-4.62-8.002-2.986 1.724-1.097-1.901 8.202-4.735ZM736.647 105.295a57.647 57.647 0 0 0-4.011-2.162 39.42 39.42 0 0 0-4.178-1.759l3.745 6.487-2.2 1.27-5.718-9.902 1.815-1.048c.496.133 1.066.318 1.711.555.645.238 1.315.505 2.008.804.697.283 1.403.593 2.118.93a84.75 84.75 0 0 1 2.024.965l-3.374-5.844 2.215-1.28 5.717 9.903-1.872 1.081Z" fill="#fff"/></g><g clip-path="url(#i)"><path d="m760.987 117.383-47.631 27.5c-7.892 4.557-10.596 14.648-6.04 22.54l24.063 41.677 76.21-44-24.062-41.677c-4.557-7.892-14.648-10.596-22.54-6.04Z" fill="#0364B9"/><path d="M713.356 144.883c-7.892 4.557-10.596 14.648-6.04 22.54l.24.415 64.751-52.377a16.435 16.435 0 0 0-11.32 1.922l-47.631 27.5ZM783.527 123.423a16.443 16.443 0 0 0-8.904-7.348l20.112 56.445 12.854-7.42-24.062-41.677Z" fill="#0A559E"/><path d="m730.691 207.909 76.211-44 4.125 7.145c4.556 7.892 1.852 17.983-6.04 22.54l-47.631 27.5c-7.892 4.556-17.983 1.852-22.54-6.04l-4.125-7.145Z" fill="#0CC"/><path d="M729.877 166.096c.706.43 1.548.986 2.525 1.666a77.484 77.484 0 0 1 3.133 2.193c1.111.781 2.23 1.596 3.355 2.445l3.175 2.397-.489-3.948c-.172-1.399-.329-2.77-.468-4.112a194.31 194.31 0 0 1-.332-3.809 70.704 70.704 0 0 1-.153-3.036l4.058-2.343c.95 1.204 1.974 2.582 3.072 4.132a145.938 145.938 0 0 1 3.366 4.84 275.908 275.908 0 0 1 3.395 5.089 373.766 373.766 0 0 1 3.173 4.836l-4.344 2.508a595.617 595.617 0 0 0-3.858-6.155 195.926 195.926 0 0 0-4.389-6.612c.119.999.25 2.105.391 3.318l.426 3.641c.161 1.203.309 2.362.445 3.477.125 1.097.236 2.036.332 2.819l-3.115 1.799a310.77 310.77 0 0 0-2.275-1.697 727.03 727.03 0 0 0-2.818-2.108c-.961-.74-1.931-1.476-2.911-2.205-.981-.73-1.873-1.396-2.678-1.998a196.606 196.606 0 0 0 3.531 7.106 594.964 594.964 0 0 0 3.402 6.42l-4.344 2.508a1203.44 1203.44 0 0 1-2.631-5.15c-.908-1.838-1.812-3.666-2.709-5.485a314.51 314.51 0 0 1-2.509-5.335 130.433 130.433 0 0 1-2.014-4.743l4.258-2.458ZM763.249 146.829l2.194 3.801-5.973 3.448 9.24 16.004-4.458 2.574-9.24-16.004-5.973 3.449-2.195-3.801 16.405-9.471ZM780.755 155.354c-.319-.552-.723-.967-1.213-1.243-.5-.295-1.138-.409-1.913-.343-.774.066-1.72.32-2.837.761-1.117.442-2.456 1.114-4.019 2.016a138.886 138.886 0 0 0-2.604-5.699 236.785 236.785 0 0 0-2.655-5.325l10.717-6.188 2.062 3.573-7.144 4.125c.357.708.695 1.402 1.012 2.083.325.65.596 1.23.814 1.74 2.891-1.416 5.319-1.941 7.283-1.576 1.971.335 3.529 1.493 4.673 3.475.528.914.856 1.856.983 2.824a6.319 6.319 0 0 1-.286 2.871c-.318.945-.879 1.866-1.682 2.762-.785.885-1.835 1.707-3.149 2.466-.515.297-1.08.572-1.695.826-.586.262-1.178.489-1.778.683-.569.202-1.097.367-1.582.494-.485.128-.875.201-1.169.218l-1.258-3.96c.597-.066 1.347-.219 2.249-.461.891-.26 1.88-.704 2.966-1.331 1.314-.759 2.118-1.566 2.412-2.422.283-.874.22-1.664-.187-2.369ZM765.698 206.341c.315-.181.558-.354.731-.517.176-.178.302-.346.376-.503a.877.877 0 0 0 .068-.477 1.335 1.335 0 0 0-.168-.456c-.187-.324-.494-.502-.919-.536-.432-.043-1.09.026-1.977.207-.389.073-.788.132-1.194.176-.412.034-.81.016-1.193-.054a3.222 3.222 0 0 1-1.099-.452c-.349-.23-.656-.574-.92-1.031a3.273 3.273 0 0 1-.452-1.378c-.043-.47.018-.925.184-1.364.166-.438.434-.854.805-1.245a5.712 5.712 0 0 1 1.391-1.089c.667-.385 1.284-.647 1.853-.784.568-.138 1.059-.212 1.472-.222l.372 2.129c-.359.017-.74.072-1.143.165-.4.078-.837.255-1.314.53-.533.308-.875.607-1.025.897-.146.274-.131.564.045.869a.9.9 0 0 0 .392.383c.157.075.342.12.555.137.217.002.451-.012.7-.042.254-.045.529-.096.826-.153a15.419 15.419 0 0 1 1.673-.204 3.892 3.892 0 0 1 1.315.098c.4.1.758.28 1.075.542.316.262.612.631.887 1.107.533.924.625 1.831.274 2.719-.357.879-1.187 1.695-2.492 2.449-.439.253-.85.452-1.236.599-.38.156-.73.275-1.05.358a6.85 6.85 0 0 1-.841.162c-.24.024-.448.037-.626.037l-.394-2.135a6.769 6.769 0 0 0 1.342-.184c.509-.129 1.079-.375 1.707-.738ZM773.695 192.198c.339.325.719.696 1.138 1.115.424.403.863.823 1.318 1.259l1.393 1.291c.465.43.902.826 1.313 1.185a51.213 51.213 0 0 0-.544-1.8 49.221 49.221 0 0 0-.651-1.987c-.238-.675-.478-1.344-.72-2.004-.237-.676-.471-1.322-.7-1.939l2.315-1.337a111.73 111.73 0 0 1 1.755 5.713 80.954 80.954 0 0 1 1.404 5.666l-2.043 1.18a77.952 77.952 0 0 1-2.63-2.311 424.01 424.01 0 0 1-2.678-2.493l.835 3.557c.272 1.177.506 2.318.701 3.425l-2.044 1.18a87.365 87.365 0 0 1-4.219-4.042 124.226 124.226 0 0 1-4.056-4.384l2.415-1.394a125.168 125.168 0 0 0 2.734 3.184c.476.539.941 1.058 1.395 1.558.463.494.902.946 1.316 1.355a35.366 35.366 0 0 0-.358-1.775c-.141-.617-.286-1.232-.436-1.844a55.457 55.457 0 0 0-.46-1.754l-.394-1.506 1.901-1.098ZM785.707 197.057l-5.718-9.903 6.631-3.828 1.08 1.872-4.401 2.541 1.197 2.072 3.915-2.26 1.081 1.871-3.916 2.261 2.36 4.087-2.229 1.287Z" fill="#fff"/></g><g clip-path="url(#j)"><path d="M745.383 25.356c-4.556-7.892-1.852-17.983 6.04-22.54l47.631-27.5c7.892-4.556 17.983-1.852 22.54 6.04l27.5 47.632c4.556 7.891 1.852 17.983-6.04 22.539l-47.631 27.5c-7.892 4.556-17.983 1.852-22.54-6.04l-27.5-47.63Z" fill="#FF444F"/><path d="M751.423 2.817c-7.892 4.556-10.596 14.647-6.04 22.54l.24.414 64.751-52.377a16.436 16.436 0 0 0-11.32 1.923l-47.631 27.5ZM812.69-25.99l28.088 78.83 2.276-1.313c7.892-4.556 10.596-14.648 6.04-22.54l-27.5-47.63a16.44 16.44 0 0 0-8.904-7.347Z" fill="#E12E3A"/><path d="M787.02 42.807c.257-.119.548-.257.872-.414l1.167-.674c2.601-1.502 4.145-3.267 4.632-5.298.51-2.043.098-4.22-1.237-6.532-1.399-2.422-3.058-3.91-4.977-4.462-1.919-.551-4.178-.076-6.779 1.425a21.44 21.44 0 0 0-1.081.669 9.352 9.352 0 0 0-1.029.682l8.432 14.604Zm10.802-16.017c1.155 2 1.851 3.925 2.089 5.774.237 1.848.06 3.595-.531 5.24-.569 1.633-1.535 3.169-2.897 4.608-1.363 1.438-3.066 2.748-5.111 3.929a53.99 53.99 0 0 1-3.345 1.753 28.9 28.9 0 0 1-3.937 1.65L771.096 27.24a33.12 33.12 0 0 1 3.484-2.59 58.538 58.538 0 0 1 3.291-2.077c1.978-1.143 3.896-1.953 5.753-2.433 1.879-.492 3.673-.594 5.38-.305 1.708.288 3.303.997 4.785 2.127 1.483 1.13 2.827 2.74 4.033 4.83ZM810.195 4.265l2.561 4.434-6.969 4.023 10.78 18.672-5.201 3.003-10.78-18.672-6.969 4.024-2.56-4.435 19.138-11.05Z" fill="#fff"/></g><g clip-path="url(#k)"><path d="M797.383 115.423c-4.556-7.892-1.852-17.983 6.04-22.54l47.631-27.5c7.892-4.556 17.983-1.852 22.54 6.04l27.5 47.631c4.556 7.892 1.852 17.983-6.04 22.54l-47.631 27.5c-7.892 4.556-17.983 1.852-22.54-6.04l-27.5-47.631Z" fill="#0364B9"/><path d="M803.423 92.883c-7.892 4.557-10.596 14.648-6.04 22.54l.24.415 64.751-52.377a16.436 16.436 0 0 0-11.32 1.922l-47.631 27.5ZM864.69 64.076l28.088 78.831 2.276-1.313c7.892-4.557 10.596-14.648 6.04-22.54l-27.5-47.631a16.44 16.44 0 0 0-8.904-7.347Z" fill="#0A559E"/><path d="M822.778 119.026a52.25 52.25 0 0 1 2.525 1.667 76.713 76.713 0 0 1 3.132 2.192c1.112.781 2.23 1.596 3.355 2.446l3.175 2.396-.488-3.947c-.173-1.4-.329-2.77-.469-4.112a211.11 211.11 0 0 1-.332-3.809 70.661 70.661 0 0 1-.153-3.037l4.059-2.343a102.487 102.487 0 0 1 3.072 4.133 144.389 144.389 0 0 1 3.365 4.839 276.028 276.028 0 0 1 3.396 5.09 367.014 367.014 0 0 1 3.173 4.836l-4.344 2.508a579.947 579.947 0 0 0-3.859-6.155 195.392 195.392 0 0 0-4.388-6.612c.119.998.249 2.104.391 3.318l.426 3.641c.16 1.203.309 2.362.445 3.477.125 1.097.235 2.036.332 2.819l-3.115 1.798c-.63-.474-1.389-1.04-2.276-1.696a699.777 699.777 0 0 0-2.817-2.108 219.789 219.789 0 0 0-2.912-2.206c-.98-.729-1.873-1.395-2.678-1.997a196.618 196.618 0 0 0 3.532 7.106 595.2 595.2 0 0 0 3.401 6.419l-4.344 2.508c-.826-1.606-1.702-3.323-2.63-5.149l-2.71-5.486a322.164 322.164 0 0 1-2.508-5.334 131.953 131.953 0 0 1-2.014-4.743l4.258-2.459ZM856.149 99.76l2.195 3.8-5.973 3.449 9.24 16.004-4.459 2.574-9.24-16.004-5.973 3.448-2.194-3.801 16.404-9.47ZM873.656 108.285c-.319-.552-.723-.967-1.213-1.243-.501-.295-1.138-.41-1.913-.343-.775.066-1.72.32-2.837.761-1.117.442-2.457 1.114-4.019 2.016a138.276 138.276 0 0 0-2.604-5.699 237.778 237.778 0 0 0-2.656-5.326l10.717-6.187 2.063 3.572-7.145 4.125c.358.708.695 1.403 1.012 2.083.325.651.596 1.231.814 1.74 2.892-1.415 5.32-1.94 7.283-1.575 1.972.335 3.53 1.493 4.674 3.475.528.914.855 1.856.982 2.824a6.3 6.3 0 0 1-.286 2.87c-.317.946-.878 1.867-1.682 2.762-.785.885-1.834 1.707-3.149 2.466-.514.297-1.079.573-1.695.827-.585.261-1.178.489-1.777.683-.57.202-1.097.366-1.582.494-.485.128-.875.2-1.17.218l-1.258-3.961c.598-.065 1.347-.219 2.249-.46.892-.26 1.88-.704 2.966-1.331 1.315-.759 2.119-1.566 2.413-2.422.282-.874.22-1.664-.187-2.369Z" fill="#fff"/></g><g clip-path="url(#l)"><path d="M849.383 205.489c-4.556-7.891-1.852-17.983 6.04-22.539l47.631-27.5c7.892-4.556 17.983-1.852 22.54 6.039l27.5 47.632c4.556 7.892 1.852 17.983-6.04 22.539l-47.631 27.5c-7.892 4.557-17.983 1.853-22.54-6.039l-27.5-47.632Z" fill="#E22526"/><path d="M855.423 182.95c-7.892 4.556-10.596 14.648-6.04 22.539l.24.415 64.751-52.377a16.436 16.436 0 0 0-11.32 1.923l-47.631 27.5ZM916.69 154.143l28.088 78.831 2.276-1.314c7.892-4.556 10.596-14.647 6.04-22.539l-27.5-47.632a16.443 16.443 0 0 0-8.904-7.346Z" fill="#B51E1E"/><path d="M886.056 219.471c-.731-1.267-1.218-2.571-1.459-3.914-.232-1.377-.197-2.702.106-3.973.29-1.294.85-2.506 1.679-3.637.829-1.131 1.955-2.107 3.378-2.928.933-.539 1.84-.944 2.721-1.216a13.442 13.442 0 0 1 2.672-.608l1.257 4.564c-.57.092-1.171.231-1.804.419a9.234 9.234 0 0 0-1.982.878c-1.467.847-2.304 1.938-2.512 3.273-.185 1.322.152 2.727 1.012 4.216.911 1.579 1.951 2.609 3.118 3.091 1.19.469 2.629.216 4.318-.76a13.968 13.968 0 0 0 1.838-1.283 9.466 9.466 0 0 0 1.592-1.631l3.049 3.664c-.437.578-1.037 1.206-1.801 1.884-.765.679-1.669 1.32-2.714 1.923-1.6.924-3.113 1.486-4.538 1.687-1.439.178-2.773.074-4.004-.312-1.208-.399-2.311-1.052-3.308-1.958-.988-.941-1.861-2.067-2.618-3.379ZM911.087 185.904l2.561 4.434-6.969 4.023 10.78 18.672-5.201 3.003-10.78-18.672-6.969 4.024-2.56-4.435 19.138-11.049Z" fill="#fff"/></g><g clip-path="url(#m)"><path d="M835.45-26.644c-4.557-7.892-1.853-17.983 6.039-22.54l47.632-27.5c7.891-4.556 17.983-1.852 22.539 6.04l27.5 47.632c4.556 7.891 1.852 17.983-6.039 22.539l-47.632 27.5c-7.892 4.556-17.983 1.852-22.539-6.04l-27.5-47.63Z" fill="#FF444F"/><path d="M841.489-49.183c-7.892 4.556-10.596 14.647-6.039 22.54l.239.414 64.751-52.377a16.433 16.433 0 0 0-11.319 1.923l-47.632 27.5ZM902.757-77.99 930.845.84l2.276-1.313c7.891-4.556 10.595-14.648 6.039-22.54l-27.5-47.63a16.434 16.434 0 0 0-8.903-7.347Z" fill="#E12E3A"/><path d="M876.145-8.648c.257-.12.548-.258.872-.415l1.167-.674c2.601-1.501 4.145-3.267 4.633-5.297.509-2.043.097-4.22-1.238-6.532-1.399-2.423-3.058-3.91-4.977-4.462-1.919-.552-4.178-.077-6.779 1.424a21.44 21.44 0 0 0-1.081.669 9.352 9.352 0 0 0-1.029.683l8.432 14.604Zm10.802-16.018c1.155 2 1.852 3.925 2.089 5.774.238 1.849.061 3.596-.531 5.241-.568 1.633-1.534 3.168-2.897 4.607-1.362 1.439-3.066 2.748-5.111 3.93a53.97 53.97 0 0 1-3.345 1.752 28.9 28.9 0 0 1-3.937 1.651l-12.994-22.506a33.107 33.107 0 0 1 3.484-2.59 58.605 58.605 0 0 1 3.291-2.077c1.978-1.142 3.896-1.953 5.753-2.433 1.879-.492 3.673-.594 5.381-.305 1.707.288 3.302.997 4.785 2.127 1.482 1.13 2.826 2.74 4.032 4.83ZM904.18-18.788a62.78 62.78 0 0 1-3.878 2.06 29.072 29.072 0 0 1-4.209 1.72l-12.936-22.407a35.394 35.394 0 0 1 3.251-2.454 46.517 46.517 0 0 1 3.438-2.208c1.467-.847 2.876-1.512 4.227-1.995 1.36-.519 2.632-.78 3.816-.781 1.185-.003 2.265.278 3.242.84.986.527 1.832 1.402 2.538 2.625 1.065 1.845 1.016 3.814-.146 5.907 1.788-.29 3.225-.112 4.31.535 1.085.648 1.975 1.572 2.668 2.773 1.398 2.422 1.562 4.758.489 7.008-1.05 2.236-3.32 4.362-6.81 6.377Zm-8.621-8.85 3.446 5.97c.404-.175.834-.379 1.291-.613.458-.235.953-.506 1.487-.814 1.556-.898 2.683-1.846 3.382-2.842.7-.996.703-2.095.01-3.295-.616-1.067-1.453-1.592-2.51-1.574-1.069-.005-2.349.422-3.838 1.282l-3.268 1.887Zm-2.291-3.967 2.534-1.463c1.601-.924 2.63-1.785 3.088-2.583.446-.82.405-1.686-.121-2.597-.539-.934-1.273-1.384-2.203-1.351-.929.032-2.083.447-3.461 1.242-.445.257-.916.544-1.415.861-.511.296-.954.58-1.328.856l2.906 5.035Z" fill="#242828"/></g><g clip-path="url(#n)"><path d="M887.45 63.423c-4.557-7.892-1.853-17.983 6.039-22.54l47.632-27.5c7.891-4.556 17.983-1.852 22.539 6.04l27.5 47.631c4.556 7.892 1.852 17.983-6.039 22.54l-47.632 27.5c-7.892 4.556-17.983 1.852-22.539-6.04l-27.5-47.631Z" fill="#384177"/><path d="M893.489 40.883c-7.892 4.557-10.596 14.648-6.039 22.54l.239.415L952.44 11.46a16.433 16.433 0 0 0-11.319 1.923l-47.632 27.5ZM954.757 12.076l28.088 78.831 2.276-1.313c7.891-4.557 10.595-14.648 6.039-22.54l-27.5-47.631a16.435 16.435 0 0 0-8.903-7.347Z" fill="#2A3052"/><path d="M933.609 78.685c.734-.424 1.302-.826 1.704-1.206.412-.416.705-.807.879-1.174.16-.39.213-.76.157-1.114a3.082 3.082 0 0 0-.392-1.063c-.436-.755-1.151-1.172-2.144-1.25-1.007-.101-2.544.06-4.611.483-.91.17-1.839.306-2.787.409-.961.08-1.89.038-2.785-.126a7.5 7.5 0 0 1-2.564-1.054c-.814-.537-1.53-1.34-2.146-2.407-.616-1.067-.967-2.138-1.055-3.214a7.071 7.071 0 0 1 .43-3.182c.387-1.023 1.013-1.992 1.878-2.907.852-.937 1.934-1.783 3.246-2.54 1.556-.899 2.997-1.509 4.323-1.83 1.326-.32 2.471-.493 3.436-.516l.867 4.967c-.837.039-1.726.167-2.668.384-.932.183-1.953.595-3.065 1.236-1.244.72-2.042 1.417-2.392 2.093-.341.642-.306 1.318.104 2.03.244.422.549.72.916.893.367.173.799.28 1.296.319a12.97 12.97 0 0 0 1.633-.098c.591-.105 1.234-.224 1.927-.357 1.457-.249 2.759-.407 3.904-.476 1.133-.091 2.156-.014 3.067.23.934.231 1.77.653 2.508 1.264.738.61 1.428 1.472 2.07 2.584 1.245 2.156 1.458 4.27.639 6.343-.831 2.05-2.769 3.955-5.815 5.713a20.073 20.073 0 0 1-2.882 1.398c-.887.364-1.704.643-2.451.837-.725.182-1.379.307-1.961.377a15.49 15.49 0 0 1-1.461.087l-.92-4.981c.907-.02 1.951-.163 3.131-.43 1.189-.3 2.517-.875 3.984-1.722ZM950.484 43.425l2.56 4.434-6.969 4.024 10.78 18.671-5.201 3.003-10.78-18.671-6.968 4.023-2.561-4.435 19.139-11.05Z" fill="#fff"/></g><g clip-path="url(#o)"><path d="M939.45 153.489c-4.557-7.891-1.853-17.983 6.039-22.539l47.632-27.5c7.889-4.556 17.979-1.852 22.539 6.039l27.5 47.632c4.56 7.892 1.85 17.983-6.04 22.539l-47.631 27.5c-7.892 4.557-17.983 1.853-22.539-6.039l-27.5-47.632Z" fill="#FF444F"/><path d="M945.489 130.95c-7.892 4.556-10.596 14.648-6.039 22.539l.239.415 64.751-52.377a16.43 16.43 0 0 0-11.319 1.923l-47.632 27.5ZM1006.76 102.143l28.08 78.831 2.28-1.314c7.89-4.556 10.6-14.647 6.04-22.539l-27.5-47.632a16.46 16.46 0 0 0-8.9-7.346Z" fill="#E12E3A"/><path d="M976.859 153.621c-2.423 1.399-3.788 3.09-4.094 5.075-.297 1.95.228 4.092 1.576 6.425.654 1.134 1.385 2.091 2.19 2.87.793.758 1.649 1.316 2.567 1.675a6.442 6.442 0 0 0 2.906.412c1.005-.107 2.041-.468 3.108-1.084a31.669 31.669 0 0 0 1.448-.88c.41-.266.751-.523 1.023-.769l-4.639-8.035 5.202-3.003 6.602 11.436c-.481.604-1.334 1.437-2.558 2.499-1.211 1.085-2.828 2.211-4.851 3.379-1.734 1.001-3.466 1.646-5.196 1.933-1.709.275-3.358.19-4.949-.255-1.59-.445-3.093-1.251-4.509-2.42-1.393-1.181-2.642-2.727-3.745-4.639-1.117-1.934-1.805-3.819-2.065-5.654-.259-1.836-.162-3.567.292-5.193a11.934 11.934 0 0 1 2.301-4.484c1.115-1.355 2.472-2.495 4.073-3.419 1.089-.628 2.112-1.115 3.069-1.46.966-.38 1.818-.65 2.556-.809.747-.194 1.378-.307 1.894-.338.538-.044.928-.061 1.17-.053l.905 5.034c-.929.033-1.938.185-3.025.458-1.078.237-2.162.67-3.251 1.299ZM996.052 152.587c.654 1.133 1.378 2.079 2.171 2.836.815.745 1.67 1.303 2.567 1.675.91.336 1.84.464 2.8.383.96-.08 1.93-.403 2.91-.968.95-.551 1.71-1.223 2.26-2.015.57-.805.93-1.677 1.07-2.617.14-.975.09-1.995-.17-3.06-.24-1.079-.68-2.185-1.34-3.318-.65-1.134-1.39-2.073-2.2-2.817-.81-.78-1.66-1.338-2.57-1.675-.9-.371-1.84-.51-2.82-.417-.961.081-1.919.397-2.875.949-.978.565-1.736 1.254-2.273 2.068a6.225 6.225 0 0 0-1.049 2.65c-.139.94-.083 1.96.167 3.061.259 1.065.71 2.153 1.352 3.265Zm17.638-10.183c1.14 1.978 1.85 3.896 2.12 5.754.28 1.823.21 3.541-.22 5.154-.45 1.59-1.24 3.052-2.36 4.384-1.11 1.32-2.47 2.448-4.09 3.385-1.58.911-3.22 1.516-4.91 1.813-1.7.297-3.36.247-4.982-.15-1.635-.419-3.182-1.2-4.642-2.343-1.473-1.165-2.78-2.737-3.923-4.715-1.142-1.978-1.832-3.892-2.069-5.74-.25-1.871-.148-3.619.306-5.245a12.196 12.196 0 0 1 2.34-4.418 14.698 14.698 0 0 1 3.958-3.308c1.578-.911 3.215-1.515 4.912-1.813 1.69-.297 3.36-.236 4.99.184 1.64.419 3.19 1.211 4.67 2.376 1.46 1.143 2.76 2.703 3.9 4.682Z" fill="#fff"/></g><g clip-path="url(#p)"><path d="M977.517 11.423c-4.557-7.892-1.853-17.983 6.039-22.54l47.634-27.5c7.89-4.556 17.98-1.852 22.54 6.04l27.5 47.631c4.55 7.892 1.85 17.983-6.04 22.54l-47.63 27.5c-7.9 4.556-17.99 1.852-22.54-6.04l-27.503-47.631Z" fill="#E22526"/><path d="M983.556-11.117c-7.892 4.557-10.596 14.648-6.039 22.54l.239.415 64.754-52.377a16.431 16.431 0 0 0-11.32 1.922l-47.634 27.5ZM1044.82-39.924l28.09 78.831 2.28-1.313c7.89-4.557 10.59-14.648 6.04-22.54l-27.5-47.631a16.442 16.442 0 0 0-8.91-7.347Z" fill="#B51E1E"/><path d="M1014.19 25.405c-.73-1.267-1.22-2.572-1.46-3.914-.23-1.378-.2-2.702.11-3.974.29-1.294.85-2.506 1.68-3.637.82-1.13 1.95-2.106 3.37-2.928.94-.539 1.84-.944 2.72-1.215.87-.294 1.76-.497 2.68-.609l1.25 4.565c-.57.091-1.17.23-1.8.418-.63.188-1.29.48-1.98.878-1.47.847-2.31 1.938-2.51 3.273-.19 1.322.15 2.727 1.01 4.217.91 1.578 1.95 2.608 3.12 3.09 1.18.469 2.62.216 4.31-.76.6-.346 1.22-.774 1.84-1.283a9.057 9.057 0 0 0 1.59-1.63l3.05 3.663c-.43.578-1.03 1.206-1.8 1.885-.76.678-1.67 1.319-2.71 1.922-1.6.924-3.12 1.486-4.54 1.687-1.44.178-2.77.074-4-.312a9.09 9.09 0 0 1-3.31-1.957c-.99-.941-1.86-2.068-2.62-3.38ZM1039.22-8.163l2.56 4.434-6.97 4.024 10.78 18.671-5.2 3.003-10.78-18.671-6.97 4.023-2.56-4.434 19.14-11.05Z" fill="#fff"/></g><g clip-path="url(#q)"><path d="m1083.19 51.45-47.63 27.5c-7.9 4.556-10.6 14.647-6.04 22.539l24.06 41.678 76.21-44-24.06-41.678c-4.56-7.892-14.65-10.595-22.54-6.039Z" fill="#0364B9"/><path d="M1035.56 78.95c-7.9 4.556-10.6 14.647-6.04 22.539l.24.415 64.75-52.377a16.431 16.431 0 0 0-11.32 1.923l-47.63 27.5ZM1105.73 57.49a16.444 16.444 0 0 0-8.91-7.348l20.11 56.445 12.86-7.42-24.06-41.678Z" fill="#0A559E"/><path d="m1052.89 141.976 76.21-44 4.13 7.145c4.55 7.892 1.85 17.983-6.04 22.539l-47.63 27.5c-7.9 4.557-17.99 1.853-22.54-6.039l-4.13-7.145Z" fill="#71BD0E"/><path d="M1052.07 100.168c.7.43 1.55.986 2.52 1.666.99.651 2.03 1.382 3.14 2.193 1.11.781 2.23 1.596 3.35 2.445 1.13.849 2.18 1.648 3.18 2.397-.16-1.233-.32-2.549-.49-3.948-.18-1.399-.33-2.77-.47-4.112-.13-1.372-.24-2.641-.33-3.809a60.65 60.65 0 0 1-.16-3.037l4.06-2.342a93.86 93.86 0 0 1 3.07 4.132 142.31 142.31 0 0 1 3.37 4.84c1.14 1.676 2.28 3.372 3.39 5.089 1.14 1.706 2.2 3.318 3.18 4.836l-4.35 2.508a527.586 527.586 0 0 0-3.85-6.155 208.958 208.958 0 0 0-4.39-6.612c.12.999.25 2.105.39 3.318l.42 3.641c.16 1.203.31 2.362.45 3.477.12 1.097.23 2.036.33 2.819l-3.11 1.799c-.63-.475-1.39-1.041-2.28-1.697-.9-.675-1.84-1.378-2.82-2.108-.96-.74-1.93-1.476-2.91-2.205-.98-.73-1.87-1.396-2.68-1.998 1.14 2.415 2.32 4.784 3.54 7.106 1.21 2.323 2.34 4.462 3.4 6.42l-4.35 2.508c-.82-1.607-1.7-3.323-2.63-5.15-.91-1.838-1.81-3.666-2.71-5.485-.89-1.849-1.72-3.627-2.51-5.335-.77-1.737-1.44-3.318-2.01-4.743l4.26-2.458ZM1085.44 80.9l2.19 3.801-5.97 3.449 9.24 16.004-4.46 2.574-9.24-16.004-5.97 3.448-2.19-3.8 16.4-9.472ZM1102.95 89.426c-.32-.552-.73-.966-1.22-1.243-.5-.295-1.14-.41-1.91-.343-.77.066-1.72.32-2.84.761-1.11.442-2.45 1.114-4.02 2.016-.81-1.893-1.68-3.793-2.6-5.699-.92-1.906-1.81-3.68-2.66-5.325l10.72-6.188 2.06 3.573-7.14 4.125c.36.708.69 1.402 1.01 2.083.33.65.6 1.23.82 1.74 2.89-1.416 5.31-1.94 7.28-1.576 1.97.335 3.53 1.494 4.67 3.475.53.915.86 1.856.98 2.824.13.968.04 1.925-.28 2.87-.32.946-.88 1.867-1.68 2.763-.79.885-1.84 1.707-3.15 2.466-.52.297-1.08.572-1.7.826-.58.262-1.18.49-1.77.683-.57.202-1.1.367-1.59.494-.48.128-.87.2-1.17.218l-1.25-3.96c.59-.066 1.34-.22 2.24-.46.9-.261 1.88-.705 2.97-1.332 1.32-.759 2.12-1.566 2.41-2.421.29-.875.22-1.665-.18-2.37ZM1089.42 141.777l-5.72-9.903 6.63-3.828 1.09 1.872-4.41 2.541 1.2 2.072 3.92-2.26 1.08 1.872-3.92 2.26 2.36 4.087-2.23 1.287ZM1091.91 127.137l2.23-1.287 5.72 9.903-2.23 1.287-5.72-9.903ZM1108.79 130.593a57.171 57.171 0 0 0-4.01-2.162 39.058 39.058 0 0 0-4.18-1.76l3.75 6.488-2.2 1.27-5.72-9.902 1.82-1.048c.49.133 1.06.318 1.71.555.64.237 1.31.505 2 .804.7.283 1.41.593 2.12.93.71.327 1.39.648 2.03.965l-3.38-5.845 2.22-1.278 5.71 9.902-1.87 1.081Z" fill="#fff"/></g><g clip-path="url(#r)"><path d="M1081.52 191.556c-4.56-7.892-1.86-17.983 6.04-22.539l47.63-27.5c7.89-4.557 17.98-1.853 22.54 6.039l27.5 47.631c4.55 7.892 1.85 17.983-6.04 22.54l-47.63 27.5c-7.9 4.556-17.99 1.852-22.54-6.04l-27.5-47.631Z" fill="#384177"/><path d="M1087.56 169.017c-7.9 4.556-10.6 14.647-6.04 22.539l.24.415 64.75-52.377a16.431 16.431 0 0 0-11.32 1.923l-47.63 27.5ZM1148.82 140.21l28.09 78.831 2.28-1.314c7.89-4.557 10.59-14.648 6.04-22.54l-27.5-47.631a16.441 16.441 0 0 0-8.91-7.346Z" fill="#2A3052"/><path d="M1128.42 212.012a62.523 62.523 0 0 1-3.88 2.061 28.65 28.65 0 0 1-4.21 1.719l-12.93-22.406c.95-.816 2.03-1.634 3.25-2.454 1.2-.843 2.35-1.579 3.44-2.208 1.46-.847 2.87-1.512 4.22-1.995 1.36-.519 2.64-.779 3.82-.782 1.18-.002 2.26.278 3.24.841.99.527 1.83 1.402 2.54 2.625 1.06 1.844 1.02 3.814-.15 5.907 1.79-.291 3.23-.113 4.31.535 1.09.648 1.98 1.572 2.67 2.772 1.4 2.423 1.56 4.759.49 7.008-1.05 2.237-3.32 4.362-6.81 6.377Zm-8.62-8.848 3.45 5.968c.4-.174.83-.378 1.29-.612.45-.235.95-.506 1.48-.814 1.56-.898 2.69-1.846 3.39-2.842.7-.997.7-2.095.01-3.295-.62-1.067-1.46-1.592-2.51-1.575-1.07-.004-2.35.423-3.84 1.283l-3.27 1.887Zm-2.29-3.968 2.53-1.463c1.6-.924 2.63-1.785 3.09-2.583.45-.82.41-1.686-.12-2.597-.54-.934-1.27-1.384-2.2-1.352-.93.033-2.09.448-3.46 1.243-.45.257-.92.544-1.42.861-.51.295-.95.581-1.33.856l2.91 5.035ZM1149.16 200.041a62.523 62.523 0 0 1-3.88 2.061 29.58 29.58 0 0 1-4.21 1.719l-12.94-22.406c.95-.816 2.04-1.634 3.25-2.455a48.585 48.585 0 0 1 3.44-2.207c1.47-.847 2.88-1.512 4.23-1.996 1.36-.518 2.63-.779 3.81-.781 1.19-.002 2.27.278 3.25.841.98.527 1.83 1.402 2.53 2.624 1.07 1.845 1.02 3.815-.14 5.908 1.79-.291 3.22-.113 4.31.535 1.08.648 1.97 1.572 2.67 2.772 1.39 2.423 1.56 4.759.49 7.008-1.06 2.237-3.32 4.362-6.81 6.377Zm-8.63-8.849 3.45 5.969c.4-.174.83-.378 1.29-.613.46-.234.95-.505 1.49-.813 1.55-.899 2.68-1.846 3.38-2.842.7-.997.7-2.095.01-3.295-.62-1.067-1.45-1.592-2.51-1.575-1.07-.004-2.35.423-3.84 1.283l-3.27 1.886Zm-2.29-3.967 2.54-1.463c1.6-.924 2.63-1.785 3.09-2.583.44-.82.4-1.686-.13-2.597-.53-.934-1.27-1.384-2.2-1.352-.93.033-2.08.447-3.46 1.243-.44.257-.92.544-1.41.861-.52.295-.96.581-1.33.856l2.9 5.035Z" fill="#fff"/></g><g clip-path="url(#s)"><path d="m1121.25-90.617-47.63 27.5c-7.89 4.557-10.59 14.648-6.04 22.54L1091.65 1.1l76.21-44-24.07-41.677c-4.55-7.892-14.64-10.596-22.54-6.04Z" fill="#0364B9"/><path d="M1073.62-63.117c-7.89 4.557-10.59 14.648-6.04 22.54l.24.415 64.75-52.378a16.45 16.45 0 0 0-11.32 1.923l-47.63 27.5ZM1143.79-84.577a16.423 16.423 0 0 0-8.9-7.348L1155-35.48l12.86-7.42-24.07-41.677Z" fill="#0A559E"/><path d="m1090.96-.09 76.21-44 4.12 7.144c4.56 7.892 1.86 17.983-6.04 22.54l-47.63 27.5c-7.89 4.556-17.98 1.852-22.54-6.04l-4.12-7.145Z" fill="#2A3052"/><path d="M1090.13-41.9c.71.432 1.55.987 2.53 1.668.98.65 2.03 1.381 3.13 2.192 1.11.781 2.23 1.596 3.36 2.445 1.12.85 2.18 1.648 3.17 2.397-.15-1.233-.31-2.549-.49-3.948-.17-1.399-.33-2.77-.47-4.111-.13-1.372-.24-2.642-.33-3.81a73.38 73.38 0 0 1-.15-3.036l4.06-2.343c.95 1.204 1.97 2.582 3.07 4.133a142.49 142.49 0 0 1 3.37 4.84c1.14 1.675 2.27 3.371 3.39 5.088 1.14 1.706 2.2 3.318 3.17 4.836l-4.34 2.508a534.9 534.9 0 0 0-3.86-6.155c-1.4-2.212-2.87-4.416-4.39-6.611.12.998.25 2.104.39 3.318.15 1.213.29 2.427.43 3.64.16 1.203.31 2.362.45 3.478.12 1.096.23 2.036.33 2.819l-3.12 1.798c-.63-.475-1.39-1.04-2.27-1.697-.9-.675-1.84-1.378-2.82-2.107-.96-.741-1.93-1.476-2.91-2.206-.98-.73-1.87-1.396-2.68-1.998 1.14 2.416 2.32 4.784 3.53 7.107 1.22 2.322 2.35 4.462 3.4 6.419l-4.34 2.508c-.83-1.606-1.7-3.323-2.63-5.15-.91-1.838-1.81-3.666-2.71-5.485-.89-1.849-1.73-3.627-2.51-5.334-.77-1.738-1.45-3.319-2.01-4.744l4.25-2.458ZM1123.51-61.166l2.19 3.8-5.97 3.45 9.24 16.003-4.46 2.574-9.24-16.004-5.97 3.449-2.2-3.801 16.41-9.471ZM1141.01-52.64c-.32-.553-.72-.967-1.21-1.243-.5-.295-1.14-.41-1.91-.344-.78.066-1.72.32-2.84.762-1.12.441-2.46 1.113-4.02 2.015-.81-1.893-1.68-3.792-2.6-5.698-.93-1.906-1.81-3.681-2.66-5.326l10.72-6.187 2.06 3.572-7.14 4.125c.35.708.69 1.402 1.01 2.083.32.65.59 1.23.81 1.74 2.89-1.415 5.32-1.94 7.29-1.576 1.97.336 3.52 1.494 4.67 3.475.53.915.85 1.856.98 2.824.13.968.03 1.925-.28 2.87-.32.947-.88 1.867-1.69 2.763-.78.885-1.83 1.707-3.15 2.466-.51.297-1.08.572-1.69.826-.59.262-1.18.49-1.78.683-.57.202-1.1.367-1.58.495-.49.127-.88.2-1.17.218l-1.26-3.961c.6-.066 1.35-.219 2.25-.46.89-.26 1.88-.704 2.97-1.331 1.31-.76 2.12-1.567 2.41-2.422.28-.875.22-1.664-.19-2.37ZM1124.84-1.191c.11-.051.24-.11.38-.178.14-.083.31-.179.5-.289 1.11-.643 1.77-1.4 1.98-2.27.22-.876.04-1.809-.53-2.8-.6-1.038-1.31-1.675-2.13-1.912-.82-.236-1.79-.033-2.91.61-.15.089-.3.184-.46.287-.16.094-.31.191-.44.293l3.61 6.259Zm4.63-6.865c.5.857.8 1.682.9 2.475.1.792.02 1.54-.23 2.246-.24.7-.66 1.357-1.24 1.974-.59.617-1.32 1.178-2.19 1.684-.4.23-.88.481-1.44.751-.55.28-1.11.515-1.68.708l-5.57-9.646c.46-.392.96-.762 1.49-1.11.54-.362 1.01-.659 1.41-.89.85-.49 1.67-.837 2.47-1.042.8-.211 1.57-.255 2.3-.131.74.123 1.42.427 2.05.912.64.484 1.22 1.174 1.73 2.07ZM1131.31-15.864c1.49-.858 2.78-1.249 3.88-1.172 1.09.068 1.96.659 2.61 1.773.4.696.56 1.356.49 1.981-.06.61-.33 1.213-.78 1.807.34.132.71.297 1.12.494.4.188.81.398 1.22.63.42.216.84.457 1.26.722.41.256.81.516 1.19.779l-2.5 1.444c-.37-.22-.75-.441-1.13-.665-.37-.229-.75-.443-1.13-.641-.37-.205-.73-.39-1.08-.556-.36-.176-.7-.323-1.02-.442l-1.1.635 2.09 3.616-2.23 1.287-5.64-9.76c.43-.376.89-.731 1.39-1.066.5-.341.95-.63 1.36-.866Zm1.23 1.826c-.16.094-.31.184-.43.27l-.35.235 1.56 2.686.62-.363c.84-.484 1.38-.935 1.62-1.353.24-.419.22-.88-.07-1.386-.28-.486-.67-.721-1.15-.707-.49 0-1.09.206-1.8.618ZM1146.46-11.254a87.385 87.385 0 0 1-2.65-1.918c-.9-.675-1.77-1.352-2.62-2.03-.85-.68-1.65-1.333-2.41-1.963-.75-.635-1.41-1.207-1.98-1.714l2.46-1.42c.52.462 1.08.963 1.69 1.503.6.526 1.21 1.051 1.82 1.576.62.52 1.21 1.017 1.78 1.49.56.474 1.07.875 1.51 1.203-.07-.542-.17-1.177-.3-1.904-.12-.732-.25-1.492-.4-2.282-.14-.795-.3-1.584-.46-2.368-.15-.799-.3-1.539-.44-2.22l2.37-1.37c.15.755.31 1.616.48 2.58.18.966.35 1.986.51 3.06.16 1.075.31 2.17.45 3.285.14 1.116.25 2.2.34 3.255l-2.15 1.237Z" fill="#242828"/></g><g clip-path="url(#t)"><path d="M1119.58 49.49c-4.55-7.893-1.85-17.984 6.04-22.54l47.63-27.5c7.9-4.556 17.99-1.852 22.54 6.04l27.5 47.63c4.56 7.893 1.86 17.984-6.04 22.54l-47.63 27.5c-7.89 4.557-17.98 1.853-22.54-6.04l-27.5-47.63Z" fill="#FF444F"/><path d="M1125.62 26.95c-7.89 4.556-10.59 14.647-6.04 22.54l.24.414 64.75-52.377a16.45 16.45 0 0 0-11.32 1.923l-47.63 27.5ZM1186.89-1.857l28.09 78.831 2.27-1.314c7.9-4.556 10.6-14.647 6.04-22.54l-27.5-47.63a16.421 16.421 0 0 0-8.9-7.347Z" fill="#E12E3A"/><path d="M1160.28 67.484c.26-.12.55-.257.87-.415.33-.192.72-.417 1.17-.674 2.6-1.501 4.14-3.267 4.63-5.297.51-2.043.1-4.22-1.24-6.532-1.4-2.423-3.05-3.91-4.97-4.462-1.92-.552-4.18-.077-6.78 1.425-.36.205-.72.428-1.08.668-.38.218-.72.446-1.03.683l8.43 14.604Zm10.8-16.017c1.16 2 1.85 3.925 2.09 5.773.24 1.849.06 3.596-.53 5.241-.57 1.633-1.54 3.168-2.9 4.607-1.36 1.439-3.06 2.749-5.11 3.93-.93.538-2.05 1.123-3.34 1.752-1.29.652-2.6 1.203-3.94 1.651l-12.99-22.506a32.857 32.857 0 0 1 3.48-2.59 60.045 60.045 0 0 1 3.29-2.077c1.98-1.142 3.9-1.953 5.75-2.432 1.88-.493 3.68-.595 5.38-.306 1.71.288 3.31.998 4.79 2.128 1.48 1.13 2.82 2.74 4.03 4.829Z" fill="#fff"/><path d="M1192.44 54.562a70.538 70.538 0 0 0-4.39-2.669 48.81 48.81 0 0 0-4.98-2.547c-.08.58-.16 1.367-.24 2.36-.05.981-.1 2.013-.12 3.095-.01 1.07-.01 2.093-.01 3.07 0 .978.03 1.736.07 2.274l-5.94 3.426c-.06-2.365-.01-4.909.13-7.632.17-2.735.42-5.676.73-8.823l-13.86-6.843 6.3-3.639 8.66 4.603.24-9.742 5.94-3.427-.87 15.438c3.27 1.345 6.13 2.685 8.59 4.02 2.45 1.314 4.44 2.46 5.98 3.436l-6.23 3.6Z" fill="#fff"/></g><g clip-path="url(#u)"><path d="m1225.25 89.517-47.63 27.5c-7.89 4.556-10.59 14.647-6.04 22.539l24.07 41.677 76.21-44-24.07-41.677c-4.55-7.892-14.64-10.596-22.54-6.04Z" fill="#0364B9"/><path d="M1177.62 117.017c-7.89 4.556-10.59 14.647-6.04 22.539l.24.415 64.75-52.377a16.45 16.45 0 0 0-11.32 1.923l-47.63 27.5ZM1247.79 95.556a16.423 16.423 0 0 0-8.9-7.347l20.11 56.445 12.86-7.421-24.07-41.677Z" fill="#0A559E"/><path d="m1194.96 180.043 76.21-44 4.12 7.144c4.56 7.892 1.86 17.983-6.04 22.54l-47.63 27.5c-7.89 4.556-17.98 1.852-22.54-6.04l-4.12-7.144Z" fill="#71BD0E"/><path d="M1194.13 138.234c.71.431 1.55.987 2.53 1.667.98.651 2.03 1.381 3.13 2.192 1.11.781 2.23 1.596 3.36 2.445 1.12.85 2.18 1.648 3.17 2.397a572.7 572.7 0 0 0-.49-3.948c-.17-1.399-.33-2.769-.47-4.111a219.55 219.55 0 0 1-.33-3.809 73.42 73.42 0 0 1-.15-3.037l4.06-2.343c.95 1.205 1.97 2.582 3.07 4.133 1.11 1.52 2.23 3.134 3.37 4.839 1.14 1.676 2.27 3.373 3.39 5.09 1.14 1.705 2.2 3.317 3.17 4.836l-4.34 2.508a535.52 535.52 0 0 0-3.86-6.156c-1.4-2.212-2.87-4.416-4.39-6.611.12.998.25 2.104.39 3.318.15 1.214.29 2.427.43 3.641.16 1.203.31 2.362.45 3.477.12 1.097.23 2.036.33 2.819l-3.12 1.798c-.63-.474-1.39-1.04-2.27-1.696-.9-.676-1.84-1.378-2.82-2.108-.96-.741-1.93-1.476-2.91-2.206-.98-.729-1.87-1.395-2.68-1.997a201.67 201.67 0 0 0 3.53 7.106c1.22 2.322 2.35 4.462 3.4 6.419l-4.34 2.508c-.83-1.606-1.7-3.323-2.63-5.149-.91-1.838-1.81-3.667-2.71-5.486-.89-1.848-1.73-3.627-2.51-5.334-.77-1.738-1.45-3.319-2.01-4.743l4.25-2.459ZM1227.51 118.967l2.19 3.801-5.97 3.449 9.24 16.004-4.46 2.574-9.24-16.004-5.97 3.448-2.2-3.801 16.41-9.471ZM1245.01 127.493c-.32-.553-.72-.967-1.21-1.243-.5-.295-1.14-.41-1.91-.344-.78.067-1.72.321-2.84.762-1.12.442-2.46 1.114-4.02 2.016-.81-1.893-1.68-3.793-2.6-5.699-.93-1.906-1.81-3.681-2.66-5.326l10.72-6.187 2.06 3.572-7.14 4.125c.35.708.69 1.403 1.01 2.083.32.651.59 1.231.81 1.74 2.89-1.415 5.32-1.94 7.29-1.575 1.97.335 3.52 1.493 4.67 3.475.53.914.85 1.855.98 2.824a6.38 6.38 0 0 1-.28 2.87c-.32.946-.88 1.867-1.69 2.762-.78.885-1.83 1.707-3.15 2.466-.51.297-1.08.573-1.69.826-.59.262-1.18.49-1.78.684-.57.201-1.1.366-1.58.494-.49.128-.88.2-1.17.218l-1.26-3.961c.6-.065 1.35-.219 2.25-.46.89-.261 1.88-.704 2.97-1.331 1.31-.759 2.12-1.566 2.41-2.422.28-.874.22-1.664-.19-2.369ZM1231.49 179.844l-5.72-9.903 6.63-3.828 1.08 1.872-4.4 2.541 1.2 2.072 3.91-2.261 1.08 1.872-3.91 2.261 2.36 4.087-2.23 1.287ZM1233.98 165.204l2.23-1.287 5.71 9.902-2.23 1.287-5.71-9.902ZM1250.86 168.66a57.171 57.171 0 0 0-4.01-2.162 39.725 39.725 0 0 0-4.18-1.76l3.75 6.487-2.21 1.271-5.71-9.903 1.81-1.047c.5.132 1.07.318 1.71.555.65.237 1.32.505 2.01.803.7.284 1.4.594 2.12.93.71.327 1.38.649 2.02.965l-3.37-5.844 2.21-1.279 5.72 9.903-1.87 1.081Z" fill="#fff"/></g></g><path transform="rotate(180 599.5 89.5)" fill="url(#v)" d="M0 0h622v180H0z"/></g><rect x=".5" y=".5" width="1199" height="179" rx="15.5" stroke="#242828"/><defs><clipPath id="a"><rect width="1200" height="180" rx="16" fill="#fff"/></clipPath><clipPath id="b"><path d="M578 0h606c8.84 0 16 7.163 16 16v148c0 8.837-7.16 16-16 16H578V0Z" fill="#fff"/></clipPath><clipPath id="d"><path fill="#fff" transform="rotate(-30 299.15 -929.843)" d="M0 0h88v88H0z"/></clipPath><clipPath id="e"><path fill="#fff" transform="rotate(-30 493.218 -981.843)" d="M0 0h88v88H0z"/></clipPath><clipPath id="f"><path fill="#fff" transform="rotate(-30 687.283 -1033.843)" d="M0 0h88v88H0z"/></clipPath><clipPath id="g"><path fill="#fff" transform="rotate(-30 247.15 -1123.908)" d="M0 0h88v88H0z"/></clipPath><clipPath id="h"><path fill="#fff" transform="rotate(-30 441.217 -1175.908)" d="M0 0h88v88H0z"/></clipPath><clipPath id="i"><path fill="#fff" transform="rotate(-30 635.283 -1227.908)" d="M0 0h88v88H0z"/></clipPath><clipPath id="j"><path fill="#fff" transform="rotate(-30 389.217 -1369.976)" d="M0 0h88v88H0z"/></clipPath><clipPath id="k"><path fill="#fff" transform="rotate(-30 583.283 -1421.976)" d="M0 0h88v88H0z"/></clipPath><clipPath id="l"><path fill="#fff" transform="rotate(-30 777.35 -1473.976)" d="M0 0h88v88H0z"/></clipPath><clipPath id="m"><path fill="#fff" transform="rotate(-30 337.217 -1564.043)" d="M0 0h88v88H0z"/></clipPath><clipPath id="n"><path fill="#fff" transform="rotate(-30 531.284 -1616.043)" d="M0 0h88v88H0z"/></clipPath><clipPath id="o"><path fill="#fff" transform="rotate(-30 725.35 -1668.043)" d="M0 0h88v88H0z"/></clipPath><clipPath id="p"><path fill="#fff" transform="rotate(-30 479.284 -1810.11)" d="M0 0h88v88H0z"/></clipPath><clipPath id="q"><path fill="#fff" transform="rotate(-30 673.352 -1862.116)" d="M0 0h88v88H0z"/></clipPath><clipPath id="r"><path fill="#fff" transform="rotate(-30 867.42 -1914.116)" d="M0 0h88v88H0z"/></clipPath><clipPath id="s"><path fill="#fff" transform="rotate(-30 427.282 -2004.17)" d="M0 0h88v88H0z"/></clipPath><clipPath id="t"><path fill="#fff" transform="rotate(-30 621.35 -2056.17)" d="M0 0h88v88H0z"/></clipPath><clipPath id="u"><path fill="#fff" transform="rotate(-30 815.416 -2108.17)" d="M0 0h88v88H0z"/></clipPath><linearGradient id="c" x1="622" y1="90" x2="0" y2="90" gradientUnits="userSpaceOnUse"><stop stop-color="#fff"/><stop offset=".646" stop-color="#fff" stop-opacity=".651"/><stop offset="1" stop-color="#fff" stop-opacity="0"/></linearGradient><linearGradient id="v" x1="499" y1="90" x2="-212" y2="90" gradientUnits="userSpaceOnUse"><stop stop-color="#151717"/><stop offset=".646" stop-color="#151717" stop-opacity=".651"/><stop offset="1" stop-color="#151717" stop-opacity="0"/></linearGradient></defs></svg>