<svg width="16" height="16" viewBox="0 0 16 16" xmlns="http://www.w3.org/2000/svg" xmlns:xlink="http://www.w3.org/1999/xlink"><title>ic-otc-active</title><defs><circle id="a" cx="8" cy="8" r="8"/><path d="M0 0h4v9H0V0zm1 1v1h2V1H1zm0 2v1h2V3H1z" id="c"/><path d="M4 2h2v1h1v11H0V3h1V2h2V0h1v2zM1 5v1h2V5H1zm3 0v1h2V5H4zM1 7v1h2V7H1zm3 0v1h2V7H4zM1 9v1h2V9H1zm3 0v1h2V9H4z" id="d"/></defs><g fill="none" fill-rule="evenodd"><mask id="b" fill="#fff"><use xlink:href="#a"/></mask><use fill="#2A3052" fill-rule="nonzero" xlink:href="#a"/><g mask="url(#b)" fill-rule="nonzero"><circle fill="#FFF" cx="8" cy="8" r="8"/><use fill="#2A3052" xlink:href="#c" transform="translate(10 8)"/><use fill="#2A3052" xlink:href="#d" transform="translate(2 3)"/><path d="M8 15A7 7 0 1 0 8 1a7 7 0 0 0 0 14zm0 1A8 8 0 1 1 8 0a8 8 0 0 1 0 16z" fill="#2A3052"/></g></g></svg>