<svg viewBox="0 0 32 32" fill="none" xmlns="http://www.w3.org/2000/svg"><path d="M0 6a6 6 0 016-6h20a6 6 0 016 6v20a6 6 0 01-6 6H6a6 6 0 01-6-6V6z" fill="#FF444F"/><path d="M6 0a6 6 0 00-6 6v.174l29.914-4.721A5.976 5.976 0 0026 0H6zM30.532 2.068L25.044 32H26a6 6 0 006-6V6c0-1.504-.553-2.88-1.468-3.932z" fill="#E12E3A"/><path d="M9.544 19.066c.102.01.22.019.35.028h.49c1.092 0 1.9-.275 2.422-.826.532-.55.798-1.311.798-2.282 0-1.017-.252-1.787-.756-2.31-.504-.523-1.302-.784-2.394-.784-.15 0-.304.005-.462.014-.159 0-.308.01-.448.028v6.132zm6.314-3.08c0 .84-.13 1.573-.392 2.198a4.039 4.039 0 01-1.12 1.554c-.476.41-1.06.719-1.75.924-.69.206-1.466.308-2.324.308-.392 0-.85-.018-1.372-.056a10.521 10.521 0 01-1.54-.196v-9.45a12.002 12.002 0 011.568-.182 21.39 21.39 0 011.414-.056c.83 0 1.582.094 2.254.28.681.187 1.264.48 1.75.882a3.92 3.92 0 011.12 1.54c.261.626.392 1.377.392 2.254zM20.216 20.97c-.532 0-1.064-.018-1.596-.056a10.587 10.587 0 01-1.638-.224v-9.408c.448-.084.938-.145 1.47-.182a17.08 17.08 0 011.484-.07c.616 0 1.18.047 1.694.14.523.084.97.233 1.344.448.374.215.663.5.868.854.215.346.322.775.322 1.288 0 .775-.373 1.386-1.12 1.834.616.234 1.036.55 1.26.952.224.402.336.854.336 1.358 0 1.018-.373 1.783-1.12 2.296-.737.514-1.838.77-3.304.77zm-1.106-4.354v2.506c.159.019.332.033.518.042.187.01.392.014.616.014.654 0 1.18-.093 1.582-.28.402-.186.602-.532.602-1.036 0-.448-.168-.765-.504-.952-.336-.196-.816-.294-1.442-.294H19.11zm0-1.666h1.064c.672 0 1.153-.084 1.442-.252.29-.177.434-.457.434-.84 0-.392-.15-.667-.448-.826-.299-.159-.737-.238-1.316-.238-.187 0-.387.005-.602.014-.215 0-.406.01-.574.028v2.114z" fill="#fff"/></svg>