<svg viewBox="0 0 32 32" fill="none" xmlns="http://www.w3.org/2000/svg"><path d="M0 6a6 6 0 016-6h20a6 6 0 016 6v20a6 6 0 01-6 6H6a6 6 0 01-6-6V6z" fill="#FF444F"/><path d="M6 0a6 6 0 00-6 6v.174l29.914-4.721A5.976 5.976 0 0026 0H6zM30.532 2.068L25.044 32H26a6 6 0 006-6V6c0-1.504-.553-2.88-1.468-3.932z" fill="#E12E3A"/><path d="M9.94 19.066c.102.01.219.019.35.028h.49c1.091 0 1.899-.275 2.421-.826.532-.55.798-1.311.798-2.282 0-1.017-.252-1.787-.756-2.31-.504-.523-1.302-.784-2.394-.784-.15 0-.303.005-.462.014-.159 0-.308.01-.448.028v6.132zm6.313-3.08c0 .84-.13 1.573-.392 2.198a4.037 4.037 0 01-1.12 1.554c-.476.41-1.06.719-1.75.924-.69.205-1.465.308-2.324.308-.392 0-.85-.019-1.372-.056a10.52 10.52 0 01-1.54-.196v-9.45a12.019 12.019 0 011.568-.182c.55-.037 1.022-.056 1.414-.056.83 0 1.582.093 2.254.28.681.187 1.265.48 1.75.882a3.92 3.92 0 011.12 1.54c.261.625.392 1.377.392 2.254zM24.245 11.142v1.862H21.32v7.84h-2.184v-7.84H16.21v-1.862h8.036z" fill="#fff"/></svg>