<svg xmlns="http://www.w3.org/2000/svg" width="104" height="35" fill="none" viewBox="0 -5 114 45"><g clip-path="url(#a)"><path fill="#FF444F" d="m20.834 1.088-1.78 10.094h-6.18c-5.766 0-11.262 4.67-12.28 10.433l-.432 2.453c-1.014 5.764 2.833 10.434 8.6 10.434h5.154c4.202 0 8.206-3.4 8.945-7.602L27.608 0l-6.774 1.088Zm-4.385 24.86c-.227 1.298-1.396 2.354-2.694 2.354h-3.132c-2.591 0-4.325-2.103-3.87-4.698l.27-1.53c.459-2.59 2.932-4.698 5.524-4.698h5.414l-1.512 8.572Zm51.983 8.553 4.055-22.998h6.415l-4.055 22.998h-6.415Zm.693-22.733-.966 5.473c-3.039-.944-6.174-.643-7.138-.451l-3.123 17.717h-6.42l3.85-21.816c2.088-.864 7.215-2.618 13.797-.923Zm-26.01-.59h-4.993c-4.865 0-9.503 3.94-10.361 8.804l-1.01 5.716c-.857 4.864 2.389 8.804 7.254 8.804h10.622l1.09-6.18h-9.983c-1.62 0-2.705-1.312-2.416-2.936l.034-.194h16.094l.919-5.21c.857-4.864-2.388-8.804-7.254-8.804h.005Zm.811 8.311-.038.332h-9.57l.052-.294c.289-1.62 1.767-3.045 3.392-3.045H41.5c1.606 0 2.691 1.402 2.426 3.007Zm53.586-7.986h6.42c-2.187 5.812-7.199 15.698-12.053 22.998h-6.42c-2.228-6.947-3.667-16.628-3.942-22.998h6.42c.116 2.078 1.046 9.785 2.108 15.17 2.913-5.239 6.124-12.111 7.462-15.17h.005Z"/></g><defs><clipPath id="a"><path fill="#fff" d="M0 0h104v34.507H0z"/></clipPath></defs></svg>