<svg viewBox="0 0 32 32" fill="none" xmlns="http://www.w3.org/2000/svg"><path d="M26 0H6a6 6 0 00-6 6v17.5h32V6a6 6 0 00-6-6z" fill="#0364B9"/><path d="M6 0a6 6 0 00-6 6v.174l29.914-4.721A5.976 5.976 0 0026 0H6zM32 6c0-1.504-.553-2.88-1.468-3.933L26.602 23.5H32V6z" fill="#0A559E"/><path d="M0 23h32v3a6 6 0 01-6 6H6a6 6 0 01-6-6v-3z" fill="#2A3052"/><path d="M7.342 9.684c.144.264.308.592.492.984.192.384.388.804.588 1.26.208.448.412.908.612 1.38l.564 1.332.564-1.332c.2-.472.4-.932.6-1.38.208-.456.404-.876.588-1.26.192-.392.36-.72.504-.984h1.704c.08.552.152 1.172.216 1.86.072.68.132 1.392.18 2.136.056.736.104 1.476.144 2.22.048.744.088 1.444.12 2.1h-1.824c-.024-.808-.056-1.688-.096-2.64-.04-.952-.1-1.912-.18-2.88a517.564 517.564 0 01-1.008 2.34 108.944 108.944 0 01-.9 2.124H8.902c-.112-.264-.248-.58-.408-.948-.16-.376-.328-.768-.504-1.176-.168-.408-.34-.816-.516-1.224l-.48-1.116c-.08.968-.14 1.928-.18 2.88-.04.952-.072 1.832-.096 2.64H4.894c.032-.656.068-1.356.108-2.1l.144-2.22c.056-.744.116-1.456.18-2.136.072-.688.148-1.308.228-1.86h1.788zM21.355 9.684v1.596h-2.508V18h-1.872v-6.72h-2.508V9.684h6.888zM25.318 15.552a1.18 1.18 0 00-.156-.612c-.104-.184-.284-.336-.54-.456-.256-.12-.6-.212-1.032-.276a11.46 11.46 0 00-1.632-.096c.088-.744.16-1.5.216-2.268.056-.768.1-1.488.132-2.16h4.5v1.5h-3c-.016.288-.036.568-.06.84-.016.264-.036.496-.06.696 1.168.08 2.028.356 2.58.828.56.464.84 1.112.84 1.944 0 .384-.068.74-.204 1.068-.136.328-.34.612-.612.852a2.9 2.9 0 01-1.032.564c-.408.136-.888.204-1.44.204-.216 0-.444-.016-.684-.048a6.41 6.41 0 01-.684-.108 7.294 7.294 0 01-.588-.132 2.309 2.309 0 01-.408-.144l.324-1.476c.2.088.464.176.792.264.328.08.72.12 1.176.12.552 0 .952-.108 1.2-.324.248-.224.372-.484.372-.78zM10.871 28.814l.15.012h.21c.468 0 .814-.118 1.038-.354.228-.236.342-.562.342-.978 0-.436-.108-.766-.324-.99-.216-.224-.558-.336-1.026-.336-.064 0-.13.002-.198.006-.068 0-.132.004-.192.012v2.628zm2.706-1.32c0 .36-.056.674-.168.942a1.73 1.73 0 01-.48.666 2.005 2.005 0 01-.75.396 3.491 3.491 0 01-.996.132c-.168 0-.364-.008-.588-.024a4.512 4.512 0 01-.66-.084v-4.05c.216-.04.44-.066.672-.078.236-.016.438-.024.606-.024.356 0 .678.04.966.12.292.08.542.206.75.378.208.172.368.392.48.66.112.268.168.59.168.966zM15.577 25.37c.624 0 1.102.112 1.434.336.332.22.498.564.498 1.032 0 .292-.068.53-.204.714-.132.18-.324.322-.576.426.084.104.172.224.264.36.092.132.182.272.27.42a10.047 10.047 0 01.498.918h-1.05a49.787 49.787 0 00-.234-.414 6.822 6.822 0 00-.24-.408 7.53 7.53 0 00-.24-.372c-.08-.12-.16-.228-.24-.324h-.462v1.518h-.936v-4.098a5.31 5.31 0 01.63-.084 8.2 8.2 0 01.588-.024zm.054.798a2.628 2.628 0 00-.336.018v1.128h.264c.352 0 .604-.044.756-.132.152-.088.228-.238.228-.45 0-.204-.078-.348-.234-.432-.152-.088-.378-.132-.678-.132zM19.509 29.576c-.164-.348-.326-.71-.486-1.086-.16-.376-.312-.748-.456-1.116-.144-.368-.278-.72-.402-1.056-.12-.336-.224-.636-.312-.9h1.032l.258.78.288.828.288.792c.092.252.178.47.258.654.076-.184.16-.402.252-.654.096-.252.192-.516.288-.792a96.794 96.794 0 00.552-1.608h.996c-.092.264-.198.564-.318.9a37.712 37.712 0 01-.852 2.172c-.16.376-.322.738-.486 1.086h-.9z" fill="#fff"/></svg>