<svg xmlns="http://www.w3.org/2000/svg" viewBox="0 0 160 177"><path fill="#2A3152" d="M159.498 80.166c.12-9.514-5.054-14.746-5.054-14.746s-4.013-1.694-8.74-15.163c-4.728-13.468-7.938-16.055-7.938-16.055-1.16-1.07-3.033-.356-3.21-3.21-.18-2.855-5.353-12.31-5.353-12.31.535-14.092-16.232-16.946-16.232-16.946-7.313-3.3-10.792.804-10.88 2.318-.09 1.517-1.518 1.25-1.518 1.25-11.95-7.58-23.814 17.66-24.972 18.82-1.16 1.16-2.766-.268-4.728 2.497-1.963 2.766-4.966 4.193-4.966 4.193C51.516 36.64 48.78 56.38 48.78 56.38c-7.253 2.855-6.302-3.33-6.302-3.33 4.52-10.464 6.184-20.692 6.184-20.692 3.807-9.037-2.854-13.795-2.854-13.795 3.568-5.946-10.48-14.553-10.48-14.553-4.905-2.676-10.792 4.727-10.792 4.727-5.083 3.168-15.83 2.543-15.83 2.543-3.57-.357-3.257 1.338-3.257 1.338l-3.39 3.924c-3.746 4.37.134 5.174.134 5.174-2.187 2.453 2.23 2.408 2.23 2.408 1.024 2.363 5.588.387 5.588.387.358 1.31 5.59 3.212 5.59 3.212 1.07 1.664-1.547 5.113-1.547 5.113-11.772 18.434 2.26 44.002 2.26 44.002 12.25 21.642 32.825 14.39 32.825 14.39l1.9 5.23c-2.853 9.872.24 31.872.24 31.872-2.022 2.497-.596 8.442-.596 8.442 2.616 10.228-5.47 24.617-5.47 24.617l-1.31 3.687c-1.546 3.806-3.686 4.043-3.686 4.043-10.82 1.665-6.542 5.946-6.542 5.946l1.666-.237.356 1.663h11.18c5.944.477 4.16-7.254 4.16-7.254l2.38-3.57.12-8.68 2.02-6.422.594-6.065c3.21-4.64 4.28-12.248 4.28-12.248-.593-8.207 1.43-13.2 1.43-13.2 2.616-3.806 6.896-22.478 6.896-22.478L80 98.242c-3.982 5.59-3.39 9.157-3.39 9.157.475 4.993-4.64 10.583-4.64 10.583l.24 5.71c-3.45 4.042 2.377 9.632 2.377 9.632 7.373 5.47 15.103 15.46 15.103 15.46l.833 1.783-5.708 8.8c-9.87-.09-7.136 5.59-7.136 5.59l4.28-.238.832 1.07c10.228.952 11.893-2.497 11.893-2.497l-.236-2.974.95-3.45 2.496 2.736c0 7.254 5.71 7.373 5.71 7.373l.712-.952 1.666.594c1.664-.118 1.545-9.037 1.545-9.037.476-2.854-2.617-5.59-2.617-5.59l-4.162-4.4 12.963-18.55c2.973-2.856 2.26-7.257 2.26-7.257-2.38-22.95 10.584-36.746 10.584-36.746.237 8.086 2.736 15.222 2.736 15.222l7.968 21.406c1.31 2.14.715 3.806.715 3.806-2.498 4.28-.357 12.01-.357 12.01l-1.785 18.79c-3.21 3.212-2.854 10.704-2.854 10.704l-2.616 2.26c-2.022 5.113 2.14 5.827 2.14 5.827l2.14-1.903.715 1.903h5.945c4.52-1.784 1.19-7.492 1.19-7.492 1.783-4.4-1.19-8.562-1.19-8.562l-.356-3.807 1.426-14.27c4.638-7.97 1.664-14.986 1.664-14.986-1.783-1.902-.595-4.756-.595-4.756 2.498-6.064-.832-19.146-.832-19.146 1.664-3.568 1.783-17.363 1.783-17.363 4.162-11.654 4.995-17.6 4.995-17.6s3.57 3.566 2.022 7.016c-1.545 3.45.952 16.65.952 16.65s1.546 2.378-1.903 7.73-.593 12.01-.593 12.01c11.178-12.843 9.63-30.324 9.63-30.324zM25.11 16.096s-1.744-.292-2.25-.708l.645-.037s1.262.35 2.398-.028c0 0-.584 1.713 2.687 2.963 0 0-3.52-.397-3.48-2.188zm77.484 117.407l-7.075 11c-14.748-11.535-13.262-18.73-13.262-18.73 4.936-2.38 11.417-15.757 11.417-15.757l7.194-14.39c1.9-2.022 2.913 0 2.913 0s.595 18.908.95 25.747c.358 6.838-2.14 12.13-2.14 12.13z"/></svg>