<svg width="32" height="32" fill="none" xmlns="http://www.w3.org/2000/svg"><path d="m31.657 12.139-8.9-7.872A1.052 1.052 0 0 0 21 5.022v3.993h-7a1 1 0 0 0-1 1v4h6a3.008 3.008 0 0 1 3 3v3.97c.257.018.51-.061.712-.221l8.9-7.085a1.001 1.001 0 0 0 .045-1.54z" fill="#C6E4E5"/><path d="M20 22.981v-5.962a1 1 0 0 0-1-1h-8v-3.997A1.033 1.033 0 0 0 9.945 11a1.05 1.05 0 0 0-.7.267l-8.9 7.872a1 1 0 0 0 .042 1.544l8.9 7.085c.187.15.42.232.659.232A1.036 1.036 0 0 0 11 26.978v-2.993h8a1.007 1.007 0 0 0 1-1.004z" fill="#85ABB0"/></svg>