<svg width="128" height="128" fill="none" xmlns="http://www.w3.org/2000/svg"><path fill="#fff" d="M0 0h128v128H0z"/><path d="M94.345 43.769a8.851 8.851 0 0 0-8.854-8.854H21.944a8.851 8.851 0 0 0-8.854 8.854v46.46h81.255v-46.46z" fill="#B6CDD0"/><path d="M13.09 90.228v15.826a8.851 8.851 0 0 0 8.854 8.853H85.49a8.851 8.851 0 0 0 8.854-8.853V90.228H13.09zm49.449-31.651h-9.895v3.586h9.895v-3.586zm-26.694 4.825a6.282 6.282 0 0 0 6.286-6.286 6.282 6.282 0 0 0-6.286-6.286 6.282 6.282 0 0 0-6.286 6.286c-.022 3.475 2.81 6.286 6.286 6.286zm2.367 2.946h-4.76a7.066 7.066 0 0 0-7.06 7.06l-.044 5.003h18.88l.045-5.002a7.066 7.066 0 0 0-7.061-7.061zm42.853 8.254h-28.42v3.585h28.42v-3.585zm0-8.012h-28.42v3.587h28.42V66.59z" fill="#85ACB0"/><path d="M43.438 97.533h-17.93a4.298 4.298 0 0 0-4.293 4.294 4.298 4.298 0 0 0 4.294 4.294h17.929a4.298 4.298 0 0 0 4.294-4.294 4.298 4.298 0 0 0-4.294-4.294zm12.816 0h-.487a4.298 4.298 0 0 0-4.294 4.294 4.298 4.298 0 0 0 4.294 4.294h.487a4.298 4.298 0 0 0 4.294-4.294 4.298 4.298 0 0 0-4.294-4.294zm12.836 0h-.487a4.298 4.298 0 0 0-4.294 4.294 4.298 4.298 0 0 0 4.294 4.294h.487a4.298 4.298 0 0 0 4.294-4.294 4.298 4.298 0 0 0-4.294-4.294zm12.816 0h-.487a4.298 4.298 0 0 0-4.294 4.294 4.298 4.298 0 0 0 4.294 4.294h.487a4.298 4.298 0 0 0 4.294-4.294 4.298 4.298 0 0 0-4.294-4.294zm2.014 3.586-2.833 2.833a.242.242 0 0 1-.155.067.241.241 0 0 1-.155-.067l-1.594-1.594a.237.237 0 0 1-.066-.154.2.2 0 0 1 .066-.155l.664-.664a.24.24 0 0 1 .333 0l.752.752 2.014-2.014a.24.24 0 0 1 .332 0l.664.664a.24.24 0 0 1 .067.155.336.336 0 0 1-.089.177z" fill="#fff"/><path d="M94.987 52.933c11.002 0 19.921-8.92 19.921-19.921 0-11.002-8.919-19.921-19.92-19.921-11.003 0-19.922 8.919-19.922 19.92 0 11.003 8.92 19.922 19.921 19.922z" fill="#FF444F"/><path d="M97.466 21.037h-4.958v13.458h4.958V21.037zm-2.48 17.33a3.292 3.292 0 0 0-3.299 3.298 3.306 3.306 0 0 0 3.299 3.298 3.292 3.292 0 0 0 3.297-3.298 3.306 3.306 0 0 0-3.297-3.298z" fill="#fff"/></svg>