<svg width="128" height="80" fill="none" xmlns="http://www.w3.org/2000/svg"><path fill-rule="evenodd" clip-rule="evenodd" d="M80.706 27.561c2.434 0 4.318.562 5.551 1.669 1.168 1.04 1.818 2.56 1.834 4.295 0 1.784-.533 3.237-1.6 4.328-1.367 1.404-3.518 2.18-6.052 2.18-.4 0-.8-.017-1.184-.05v7.07h-3.751V28.008l.583-.1a29.139 29.139 0 0 1 4.619-.347Zm-.217 9.185c1.434 0 3.834-.397 3.834-3.106 0-2.345-1.95-2.84-3.55-2.84-.634 0-1.134.016-1.501.065v5.815c.333.05.733.066 1.217.066ZM14 47.053l6.669-19.36h3.801l6.686 19.36h-4.002l-1.934-5.649h-5.418l-1.884 5.65H14Zm8.236-13.132-1.467 4.262h3.501l-1.45-4.212a10.824 10.824 0 0 1-.193-.576c-.035-.111-.07-.222-.107-.333-.063.21-.134.42-.208.637l-.076.222Z" fill="#000"/><path d="M35.74 36.68c0 .512.2.843 2.001 1.553 1.65.611 3.868 1.75 3.868 4.51 0 2.741-2.234 4.591-5.552 4.591-1.45 0-2.917-.363-4.018-1.007l-.483-.281 1-3.122.767.446c.634.38 1.75.81 2.784.81.667 0 1.784-.15 1.784-1.206 0-.562-.15-1.025-1.934-1.685-1.8-.645-3.934-1.916-3.934-4.312 0-2.61 2.184-4.493 5.201-4.493 1.35 0 2.685.33 3.568.909l.467.297-1.017 3.073-.767-.48a4.446 4.446 0 0 0-2.284-.66c-.9 0-1.45.396-1.45 1.057Zm11.755-7.268-3.735 1.123v2.213h-2.017v3.188h2.017v6.327c0 1.767.35 3.023 1.1 3.865.734.777 1.818 1.223 3.085 1.223 1.133 0 1.95-.232 2.334-.364l.5-.165-.2-3.205-.867.248c-.25.066-.55.132-1.167.132-.45 0-1.067 0-1.067-1.8v-6.26h3.384v-3.189h-3.367v-3.336Zm11.803 3.105.684.1.017 3.716-.867-.182c-.167-.033-.35-.033-.65-.033-1.268 0-2.201.925-2.485 2.412a7.633 7.633 0 0 0-.066.958v7.566h-3.785v-9.581c0-1.619-.05-2.874-.117-3.981l-.05-.743h3.501l.05 1.04c.834-.842 1.918-1.321 3.102-1.321.266 0 .466.016.666.05Z" fill="#000"/><path fill-rule="evenodd" clip-rule="evenodd" d="M66.868 32.484c-4.218 0-7.17 3.09-7.17 7.533 0 4.328 2.851 7.334 6.953 7.334 3.468 0 7.186-2.362 7.186-7.549.016-4.311-2.851-7.318-6.97-7.318Zm3.15 7.4c0 2.495-1.367 4.312-3.234 4.312s-3.218-1.8-3.218-4.245c0-1.586.684-4.279 3.268-4.279 2.518-.033 3.185 2.742 3.185 4.213Zm29.56 3.37v-4.823c0-3.849-2.017-5.947-5.651-5.947-1.684 0-3.452.463-4.669 1.223l-.483.297 1.017 2.973.767-.512c.783-.528 1.917-.842 3.017-.842.767-.017 1.318.165 1.684.512.3.297.484.743.55 1.305-2.95.083-5.101.776-6.435 2.081-.917.909-1.384 2.048-1.384 3.42 0 2.197 1.6 4.41 4.702 4.41 1.317 0 2.55-.413 3.518-1.14l.1.86h3.584l-.133-.81c-.117-.793-.184-1.8-.184-3.007Zm-6.302.959c-.567 0-1.5-.199-1.5-1.537 0-.512.15-.925.483-1.239.434-.43 1.417-.925 3.618-.958v1.537c0 .115-.016.313-.066.512-.267.776-1.084 1.684-2.535 1.684Z" fill="#000"/><path d="m107.248 40.793 2.751-8.044H114l-3.918 10.142c-1.6 4.163-2.818 6.723-4.652 8.342-1.533 1.272-2.867 1.585-3.251 1.652l-.616.115-.967-3.204.666-.215c.317-.083 1.084-.364 1.834-1.008l.017-.016c.667-.529 1.334-1.42 1.784-2.363l.026-.065c.03-.076.065-.165.091-.215 0-.033-.034-.132-.117-.298l-.017-.033-5.168-12.834h4.118l3.001 8.077c.083.182.15.38.217.578l.1-.305c.033-.104.066-.207.1-.306Z" fill="#000"/><path d="M27.805 33.013c2.434-2.461 6.569-3.932 11.053-3.932 1.75 0 3.452.215 5.069.661l.133.033 2.868-.859-1.284-.495c-2.45-.925-5.268-1.421-8.17-1.421-4.217 0-8.152 1.008-11.07 2.841l-.317.198 1.218 3.519.5-.545Z" fill="red"/></svg>