<svg width="128" height="80" fill="none" xmlns="http://www.w3.org/2000/svg"><path d="m15.015 38.946 1.91-5.069H4l1.896 5.07h9.119Zm12.925 0 1.91-5.069h-8.028l1.895 5.07h4.223Zm-8.172 2.528 1.91 5.055H5.896L4 41.474h15.768Zm8.172 5.055 1.91-5.055h-5.113l1.939 5.055h1.264Z" fill="#00AF7E"/><path d="M23.353 51.394h5.04L23.54 38.756l-1.939-5.07L19.418 28H13.99l-2.183 5.687h4.897l1.896 5.07 4.753 12.637ZM9.868 38.756h4.926l-.948 2.528H8.892l.976-2.528Zm-2.915 7.583h4.998l-1.896 5.055H5l1.953-5.055Zm24.529 4.064c-.087.288-.302.46-.59.46a.586.586 0 0 1-.459-.187.7.7 0 0 1-.172-.488c0-.187.057-.345.187-.46a.597.597 0 0 1 .445-.186c.143 0 .273.043.373.129a.56.56 0 0 1 .216.33l-.245.086c-.043-.2-.172-.33-.344-.33-.216 0-.36.172-.36.445 0 .259.144.431.36.431.186 0 .301-.115.344-.33l.245.1Z" fill="#141A23"/><path fill-rule="evenodd" clip-rule="evenodd" d="M30.864 51.452a1.21 1.21 0 0 1-.89-.36 1.181 1.181 0 0 1-.36-.875c0-.345.116-.647.36-.876.244-.245.531-.36.89-.36.345 0 .646.115.876.36.244.244.36.53.36.876 0 .344-.116.646-.36.876-.23.23-.531.359-.876.359Zm.747-.489a1.04 1.04 0 0 0 .301-.76c0-.302-.1-.547-.301-.748a1.007 1.007 0 0 0-.747-.301 1.03 1.03 0 0 0-1.048 1.048c0 .302.1.546.301.761.201.201.46.302.747.302s.546-.1.747-.302Zm3.647.402h3.29l1.45-4.136h7.065l1.566 4.136h3.59l-6.807-17.707h-3.59l-6.564 17.707ZM46 44.4h-4.983l2.427-6.807L46 44.4Zm14.807 6.965v-3.418c-.446 2.283-1.68 3.662-4.021 3.662-2.413 0-4.811-1.939-4.811-6.204 0-4.136 2.412-6.075 4.81-6.075 2.341 0 3.562 1.35 4.022 3.62v-9.292h3.073v17.707h-3.073Zm-2.657-1.924c1.537 0 2.57-1.422 2.57-4.065 0-2.556-1.033-3.963-2.57-3.963s-2.757 1.422-2.757 3.964c-.015 2.656 1.22 4.064 2.757 4.064Z" fill="#141A23"/><path d="M70.112 51.365h2.126L77.48 39.56h-2.973l-3.073 7.698-3.016-7.698h-3.375l5.07 11.805ZM83.41 39.316c2.456 0 4.74 1.566 5.314 4.021l-2.815 1.034c-.402-2.168-1.393-3.073-2.685-3.073-1.58 0-2.614 1.465-2.614 4.136 0 2.858 1.25 4.136 2.643 4.136 1.436 0 2.197-1.106 2.67-3.303l2.816 1.034c-.446 2.614-2.815 4.294-5.314 4.294-3.418 0-6.233-2.527-6.233-6.16-.014-3.591 2.8-6.119 6.219-6.119Zm24.184 4.768c-1.895-.402-2.484-.732-2.484-1.364 0-.66.56-1.106 1.695-1.149 1.034 0 1.91.43 2.498 1.565l2.097-1.062c-.876-2.054-2.743-2.786-4.725-2.786-2.384 0-4.322 1.263-4.322 3.619 0 2.197 1.292 3.245 4.035 3.805 1.896.402 2.485.804 2.485 1.494 0 .632-.503 1.034-1.752 1.034-1.322 0-2.413-.489-3.002-1.623l-2.097 1.178c.876 1.866 2.571 2.786 5.027 2.786 3.288 0 4.581-1.767 4.581-3.82 0-1.954-1.02-3.045-4.036-3.677Zm8.631 7.281h-3.073V33.658h3.073v9.78c.446-2.614 1.681-4.108 4.021-4.108 1.839 0 3.548 1.25 3.548 3.706v8.329h-3.074v-7.18c0-.546-.172-1.035-.474-1.537-.301-.503-.804-.733-1.493-.733-1.896 0-2.528 1.91-2.528 2.83v6.62Z" fill="#141A23"/><path fill-rule="evenodd" clip-rule="evenodd" d="m90.002 42.993 2.815 1.034c.244-.862.517-1.465.833-1.795.33-.374.933-.56 1.81-.56.732 0 1.249.143 1.565.445.316.302.474.761.474 1.393v.503a20.4 20.4 0 0 1-3.03.876c-.934.186-1.738.402-2.413.631-.675.23-1.206.575-1.594 1.006-.388.43-.575 1.091-.575 1.967 0 .977.316 1.738.934 2.298.617.56 1.45.833 2.47.833.43 0 .876-.072 1.35-.201a.076.076 0 0 1 .035-.016 3.766 3.766 0 0 0 1.832-1.234l.99-1.206v.546l-.014 1.867h3.088v-8.387c0-1.307-.388-2.24-1.163-2.815-.776-.56-2.054-.847-3.835-.847-.675 0-1.32.072-1.938.215a5.45 5.45 0 0 0-1.652.66 4.54 4.54 0 0 0-1.25 1.15 4.267 4.267 0 0 0-.732 1.637Zm3.648 5.988c-.273-.272-.402-.617-.402-1.062 0-.675.287-1.22.862-1.637.435-.305 1.192-.527 2.265-.842.343-.101.717-.21 1.124-.336V47a3.512 3.512 0 0 1-1.206 1.81c-.245.186-.518.33-.79.43a2.13 2.13 0 0 1-.719.144c-.488 0-.861-.13-1.134-.403Z" fill="#141A23"/></svg>