<svg width="24" height="24" fill="none" xmlns="http://www.w3.org/2000/svg"><path d="M18.75 1.5h.035a.754.754 0 0 1 .404.142.755.755 0 0 1 .242.294l-.057-.103c.026.04.048.08.067.124l4.49 9.729a.644.644 0 0 1 .039.102A.824.824 0 0 1 24 12l-.005.083a.714.714 0 0 1-.006.044L24 12c0 .141-.04.274-.107.386l-.004.007-6 9.75-.005.008a.725.725 0 0 1-.299.27l-.038.018a.778.778 0 0 1-.068.025l.106-.043a.748.748 0 0 1-.335.079l.109-.008a.739.739 0 0 1-.072.007l-.037.001h-12a.72.72 0 0 1-.293-.06.754.754 0 0 1-.25-.173l.093.083a.75.75 0 0 1-.231-.286l.054.098a.742.742 0 0 1-.026-.043l-.028-.055-4.5-9.75A.724.724 0 0 1 0 12v-.016c0-.032.004-.065.009-.097L0 12a.753.753 0 0 1 .133-.427l-.047.079a.746.746 0 0 1 .03-.052l.017-.027 6.75-9.75a.75.75 0 0 1 .282-.244l.027-.013a.748.748 0 0 1 .059-.023l-.086.036A.752.752 0 0 1 7.5 1.5l-.124.01a.743.743 0 0 1 .107-.01H18.75Zm-8.51 11.25H1.92l3.483 7.547L6.9 18.3a.75.75 0 0 1 1.271.785L8.1 19.2 6.75 21h9.285l-4.052-8.103-2.375 3.292a.75.75 0 0 1-1.285-.762l.069-.116 1.849-2.561Zm8.366-9.021-5.432 7.521h2.576a.75.75 0 0 1 .135 1.488l-.135.012h-2.162l3.73 7.456 4.588-7.456H18.75a.75.75 0 0 1-.135-1.488l.135-.012h3.327l-3.471-7.521ZM17.281 3H8.715l.957 1.915A.75.75 0 0 1 8.4 5.7l-.072-.116-.936-1.868L2.18 11.25h8.98L9.83 8.585A.75.75 0 0 1 11.1 7.8l.07.116 1.049 2.096L17.282 3Z" fill="var(--fill-color1)"/></svg>