<svg width="128" height="128" fill="none" xmlns="http://www.w3.org/2000/svg"><path fill="none" d="M0 0h128v128H0z"/><path d="M102.136 52.18a8.105 8.105 0 00-8.1-8.1H21.19a8.105 8.105 0 00-8.101 8.1v9.673h89.046v-9.672zm-78.51 4.427a3.354 3.354 0 01-3.343-3.342 3.354 3.354 0 013.343-3.342 3.354 3.354 0 013.342 3.342 3.34 3.34 0 01-3.342 3.342zm10.78 0a3.354 3.354 0 01-3.343-3.342 3.354 3.354 0 013.342-3.342 3.354 3.354 0 013.343 3.342 3.354 3.354 0 01-3.343 3.342zm10.757 0a3.354 3.354 0 01-3.343-3.342 3.354 3.354 0 013.343-3.342 3.354 3.354 0 013.342 3.342 3.354 3.354 0 01-3.342 3.342zM13.09 106.809a8.105 8.105 0 008.101 8.101h72.866a8.105 8.105 0 008.102-8.101V64.931h-89.07v41.878z" fill="#85ACB0"/><path d="M76.174 77.436H39.076c-6.729 0-12.174 5.445-12.174 12.174 0 6.729 5.445 12.174 12.174 12.174h37.098c6.728 0 12.173-5.445 12.173-12.174-.022-6.73-5.467-12.174-12.173-12.174zm-29.35 12.44c-.975.31-1.948.575-2.878.73a45.26 45.26 0 011.925 2.235l.399.487-2.878 2.037-.332-.465a32.764 32.764 0 01-1.682-2.568c-.597 1.085-1.129 1.948-1.616 2.568l-.332.442-2.833-2.036.377-.487a42.683 42.683 0 011.925-2.28 69.348 69.348 0 01-2.877-.686l-.598-.155 1.107-3.408.553.199c1.151.398 2.059.752 2.79 1.084-.156-1.35-.222-2.324-.222-2.9v-.597h3.475l-.022.598c-.022.819-.111 1.815-.244 2.944a29.806 29.806 0 012.856-1.085l.553-.177 1.084 3.364-.53.155zm16.224 0c-.974.31-1.926.575-2.878.73a45.26 45.26 0 011.926 2.235l.398.487-2.877 2.037-.332-.465c-.487-.664-1.04-1.528-1.682-2.568-.598 1.063-1.13 1.948-1.616 2.568l-.332.442-2.833-2.036.376-.487a42.683 42.683 0 011.926-2.28 69.348 69.348 0 01-2.878-.686l-.597-.155 1.106-3.408.554.199c1.15.398 2.058.752 2.789 1.084a53.355 53.355 0 01-.222-2.944v-.597h3.498l-.023.597c-.022.82-.11 1.816-.243 2.944a29.821 29.821 0 012.855-1.084l.554-.177 1.084 3.364-.553.2zm16.224 0c-.974.31-1.925.575-2.877.73a45.153 45.153 0 011.925 2.235l.399.487-2.877 2.037-.332-.465c-.488-.664-1.04-1.528-1.683-2.568-.597 1.063-1.129 1.948-1.616 2.568l-.332.442-2.833-2.036.376-.487a73.267 73.267 0 011.926-2.28 69.348 69.348 0 01-2.877-.686l-.598-.155 1.107-3.408.553.199c1.151.398 2.059.752 2.79 1.084-.134-1.35-.2-2.346-.222-2.944v-.597h3.497l-.022.597c-.022.82-.11 1.816-.244 2.944a29.821 29.821 0 012.856-1.084l.553-.177 1.085 3.364-.554.2z" fill="#fff"/><path d="M90.559 61.786c13.447 0 24.348-10.9 24.348-24.347 0-13.447-10.901-24.348-24.348-24.348S66.21 23.99 66.21 37.439c0 13.447 10.9 24.347 24.348 24.347z" fill="#FF444F"/><path d="M81.793 48.617a2.3 2.3 0 002.302 2.302H97.02a2.3 2.3 0 002.302-2.302V30.622H81.815v17.995h-.022zM93.657 25.552v-.819a.77.77 0 00-.775-.774h-4.67a.77.77 0 00-.775.774v.841h-6.773v3.055h19.744v-3.077h-6.751z" fill="#fff"/></svg>