<svg width="25" height="24" fill="none" xmlns="http://www.w3.org/2000/svg"><path fill-rule="evenodd" clip-rule="evenodd" d="M16.625 0v4A9.03 9.03 0 0 1 19.298 6.1l.916 1.056-3.21 3.21-1.053-1.255a4.5 4.5 0 1 0 0 5.776l1.052-1.256 3.211 3.211-.916 1.056A9.03 9.03 0 0 1 16.625 20V24h-3.75v-3.008a9.154 9.154 0 0 1-.75 0V24h-3.75v-4A8.999 8.999 0 0 1 3.5 12a8.998 8.998 0 0 1 4.875-8V0h3.75v3.008a9.136 9.136 0 0 1 .75 0V0h3.75Zm-3 4.584a7.536 7.536 0 0 0-3 .152V1.5h-.75v3.472A7.5 7.5 0 0 0 5 12a7.5 7.5 0 0 0 4.875 7.028V22.5h.75v-3.236a7.459 7.459 0 0 0 2.25.227 7.55 7.55 0 0 0 1.5-.227V22.5h.75v-3.472a7.428 7.428 0 0 0 1.948-1.083 7.51 7.51 0 0 0 1.092-1.03l-1.064-1.064A5.974 5.974 0 0 1 12.403 18 6 6 0 1 1 17.1 8.15l1.064-1.064a7.545 7.545 0 0 0-3.04-2.113V1.5h-.75v3.236a7.464 7.464 0 0 0-.75-.152Z" fill="var(--fill-color1)"/></svg>