<svg width="25" height="24" fill="none" xmlns="http://www.w3.org/2000/svg"><g clip-path="url(#a)"><path d="M14.75 4.5a.75.75 0 0 1 .643.364L17 7.542l1.607-2.678a.75.75 0 0 1 .513-.353l.13-.011h4.5a.75.75 0 0 1 .6 1.2l-4.197 5.596 4.24 7.068a.75.75 0 0 1-.513 1.125l-.13.011h-4.5a.75.75 0 0 1-.67-.415L17 15.927l-1.58 3.158a.75.75 0 0 1-.53.402l-.14.013h-4.5a.75.75 0 0 1-.643-1.136l4.24-7.068L11.72 8.46A.75.75 0 0 1 11 9H5.75v1.5H9.5a.75.75 0 0 1 .738.615l.012.135v3a.75.75 0 0 1-.75.75H5.75v3.75a.75.75 0 0 1-.615.738L5 19.5H2a.75.75 0 0 1-.75-.75V5.25A.75.75 0 0 1 2 4.5h12.75ZM9.873 6H2.75v12h1.5v-3.75a.75.75 0 0 1 .615-.738L5 13.5h3.75V12H5a.75.75 0 0 1-.738-.615l-.012-.135v-3A.75.75 0 0 1 5 7.5h5.25v-.997L9.873 6Zm4.453 0H11.75v.002l3.6 4.798a.75.75 0 0 1 .14.574l-.04.146-.057.116L11.573 18h2.712l2.044-4.085a.75.75 0 0 1 1.27-.118l.072.118L19.714 18h2.712l-3.82-6.364a.75.75 0 0 1-.024-.727l.068-.109 3.6-4.8h-2.577l-2.03 3.386a.75.75 0 0 1-1.205.111l-.081-.111L14.326 6Z" fill="var(--fill-color1)"/></g><defs><clipPath id="a"><path fill="#fff" transform="translate(.5)" d="M0 0h24v24H0z"/></clipPath></defs></svg>