<svg xmlns="http://www.w3.org/2000/svg" width="120" height="120" fill="none" viewBox="0 0 128 128"><path fill="#EBECEE" fill-rule="evenodd" d="M31.812 35.17c-1.672 3.305-2.182 6.15-2.565 8.298-.405 2.337-.458 4.65-.551 9.25a216 216 0 0 0-.023 6.374c.837-.833 1.666-1.666 2.496-2.499a142.31 142.31 0 0 1 .002-5.214c.08-4.165.132-6.692.532-9.5.397-2.848 1.077-7.53 4.043-12.43q.16-.262.322-.516c-1.1 1.306-2.835 3.42-4.256 6.236" clip-rule="evenodd"/><path fill="#000" fill-rule="evenodd" d="M28.35 60.068a.28.28 0 0 0 .233-.063c1.007-.998 2.076-2.097 3.069-3.095l.002-.001a.28.28 0 0 0 .082-.207c-.026-1.27-.04-3.1 0-5.312.08-4.173.133-6.665.526-9.433.396-2.835 1.064-7.419 3.967-12.212a26 26 0 0 1 3.858-4.917q.056-.055.11-.1l.079-.073c.483-.472.934-.873 1.33-1.216a.28.28 0 0 0 .097-.215v-.013a.3.3 0 0 0-.068-.184q-1.327-1.562-2.656-3.12l-.001-.001q-1.329-1.558-2.657-3.12a.28.28 0 0 0-.412-.019l-1.564 1.525-.025.024q-.769.747-1.53 1.492a39 39 0 0 0-5.918 6.828c-1.248 1.827-3.915 5.817-5.302 11.537-.657 2.704-.762 5.619-.96 11.383a178.98 178.98 0 0 0-.093 8.842.284.284 0 0 0 .232.276c2.524.464 5.06.929 7.598 1.393zm3.461-24.899c-1.671 3.306-2.181 6.152-2.564 8.299-.405 2.337-.458 4.65-.551 9.25a216 216 0 0 0-.023 6.374c.837-.833 1.666-1.666 2.496-2.499a142.31 142.31 0 0 1 .002-5.214c.08-4.165.132-6.692.532-9.5.397-2.848 1.077-7.53 4.043-12.43q.16-.262.322-.516c-1.1 1.306-2.835 3.42-4.256 6.236m5.272-10.046c.27.315.553.648.83.958-.6.606-1.371 1.408-2.207 2.404-1.1 1.303-2.913 3.486-4.396 6.422-1.71 3.38-2.234 6.299-2.618 8.452-.414 2.39-.469 4.761-.56 9.348a219.63 219.63 0 0 0-.032 6.738c-2.344-.429-4.688-.858-7.02-1.287-.025-2.133-.032-5.08.095-8.583.198-5.787.304-8.634.944-11.267 1.362-5.618 3.982-9.54 5.22-11.352a37.3 37.3 0 0 1 5.64-6.515 692 692 0 0 1 2.856 3.259l.514.586c.244.277.487.552.734.837m.926.195q-.255-.284-.5-.569l-1.25-1.424-.13-.15q-1.064-1.21-2.12-2.421-.318-.363-.633-.727.666-.65 1.338-1.303l.024-.024q.674-.654 1.35-1.315 1.23 1.447 2.46 2.89l.005.005 2.477 2.909c-.33.29-.749.672-1.139 1.05l-1.567 1.435-.314-.355z" clip-rule="evenodd"/><path fill="#000" fill-rule="evenodd" d="M36.129 23.176q-1.064-1.211-2.12-2.422a782 782 0 0 1 2.25 2.57zm.69.786c-.015-.017.015.017 0 0" clip-rule="evenodd"/><path fill="#EBECEE" d="M37.508 24.75q.247.285.501.568v.001q.157.175.315.355l1.568-1.435c.39-.378.808-.76 1.138-1.05l-2.477-2.91-.004-.004-2.462-2.89-1.349 1.315-.024.024-1.338 1.303.632.727a782 782 0 0 1 2.252 2.57l.559.638z"/><path fill="#fff" d="M37.913 26.081c-.276-.31-.56-.643-.83-.958L35.835 23.7l-.129-.147q-1.062-1.211-2.122-2.424l-.606-.688a37.3 37.3 0 0 0-5.64 6.515c-1.237 1.811-3.857 5.734-5.22 11.352-.639 2.633-.745 5.48-.943 11.267-.128 3.502-.12 6.45-.095 8.583 2.332.429 4.676.858 7.02 1.287-.023-1.68-.018-3.993.031-6.738.092-4.587.147-6.959.561-9.348.384-2.153.909-5.071 2.618-8.452 1.483-2.936 3.297-5.12 4.396-6.422a39 39 0 0 1 2.207-2.404"/><path fill="#fff" fill-rule="evenodd" d="m43.04 14.894 1.581 3.225 1.629 3.322c3.962-1.087 12.448-2.78 22.18.304 16.576 5.246 23.496 20.11 24.823 23.193q1.605-.444 3.212-.884h.001l.008-.002q1.569-.43 3.138-.863c-1.45-3.65-8.266-19.248-25.81-26.54-13.937-5.798-26.456-2.967-30.763-1.755" clip-rule="evenodd"/><path fill="#EBECEE" fill-rule="evenodd" d="m45.71 11.819-2.188 2.357c4.86-1.282 17.032-3.658 30.497 1.949 17.593 7.312 24.522 22.868 26.076 26.747l2.631-2.642c-1.408-3.541-7.722-18.162-24.254-25.83-15.125-7.025-28.983-3.649-32.762-2.581" clip-rule="evenodd"/><path fill="#000" fill-rule="evenodd" d="m42.395 14.862 1.72 3.509 1.73 3.531c.061.123.2.185.33.148 3.81-1.068 12.313-2.86 22.086.237 16.778 5.31 23.53 20.642 24.57 23.1a.282.282 0 0 0 .335.164q1.724-.477 3.447-.95h.002q1.722-.47 3.444-.947a.3.3 0 0 0 .131-.075l3.067-3.08c.079-.08.104-.2.063-.305-1.276-3.245-7.59-18.415-24.611-26.309-15.413-7.159-29.518-3.646-33.228-2.59a.3.3 0 0 0-.13.079L42.43 14.52a.285.285 0 0 0-.035.342m2.226 3.257 1.629 3.322c3.962-1.087 12.448-2.78 22.18.304 16.576 5.246 23.496 20.11 24.823 23.193q1.605-.444 3.212-.884h.001l.008-.002q1.569-.43 3.138-.863c-1.45-3.65-8.266-19.248-25.81-26.54-13.937-5.798-26.456-2.967-30.763-1.755zm1.09-6.3-2.189 2.357c4.86-1.282 17.032-3.658 30.497 1.949 17.593 7.312 24.522 22.868 26.076 26.747l2.631-2.642c-1.408-3.541-7.722-18.162-24.254-25.83-15.125-7.025-28.983-3.649-32.762-2.581" clip-rule="evenodd"/><path fill="#000" fill-rule="evenodd" d="M43.425 54.97c.09.015.149.003.212-.061.529-.504 1.047-1.003 1.564-1.5h.001c.54-.518 1.077-1.035 1.621-1.554a.28.28 0 0 0 .086-.242 19.8 19.8 0 0 1 .573-7.826 19.3 19.3 0 0 1 2.37-5.24c5.63-4.231 13.949-4.29 20.424.317a.283.283 0 0 0 .368-.021 748 748 0 0 1 3.276-3.145.3.3 0 0 0 .058-.078q.772-1.531 1.546-3.06l.001-.002q.773-1.526 1.546-3.059a.3.3 0 0 1-.052.073l.052-.073a.283.283 0 0 0-.094-.363l-.003-.002c-.57-.386-3.686-2.445-8.189-3.799-4.511-1.356-10.433-2.007-16.578.467-6.262 2.526-9.817 7.107-11.325 9.359a.3.3 0 0 0-.029.054c-2.986 3.763-4.298 8.14-4.857 11.664-.563 3.551-.364 6.255-.33 6.63.013.128.11.233.238.253q1.883.3 3.761.605 1.877.303 3.76.604m1.65-23.019v.001a19.2 19.2 0 0 0-3.713 3.533c-2.952 3.679-4.254 7.99-4.808 11.483-.487 3.074-.393 5.5-.342 6.269q1.773.282 3.541.569h.004q1.676.272 3.356.54c-.096-.88-.24-3.013.183-5.58.522-3.164 1.947-7.032 5.375-10.003.277-.225.56-.455.841-.67 5.766-4.322 14.232-4.43 20.847.115.509-.937 1.023-1.888 1.531-2.828l1.557-2.878c-2.182-1.467-6.5-3.906-12.395-4.415-1.79-.16-7.606-.669-13.336 2.245-.887.453-1.772.988-2.64 1.62m28.982.621c-.55 1.014-1.133 2.095-1.683 3.112l-.795 1.471q.956-.918 1.917-1.835.762-1.512 1.525-3.017l.728-1.44c-.552.56-1.137 1.152-1.692 1.71m-21.64-6.243c5.99-2.412 11.773-1.782 16.207-.45 3.92 1.178 6.771 2.903 7.75 3.538-.86.866-1.713 1.733-2.573 2.609.003 0 .004-.003 0 0-.001.002-.004.003 0 0-2.223-1.496-6.638-3.984-12.674-4.517-1.81-.162-7.762-.69-13.646 2.306a20.3 20.3 0 0 0-3.124 1.958c1.893-1.936 4.54-4.024 8.06-5.444m-5.479 17.29a20 20 0 0 1 1.635-4.016c-2.983 2.798-4.233 6.312-4.72 9.255a21 21 0 0 0-.197 5.25L44.81 53q.766-.737 1.521-1.458a20 20 0 0 1 .608-7.924m26.864-11.592q-.005.003-.002-.001z" clip-rule="evenodd"/><path fill="#fff" d="M45.075 31.952a20 20 0 0 1 2.64-1.62c5.73-2.914 11.547-2.405 13.337-2.245 5.895.509 10.213 2.948 12.395 4.415L71.89 35.38l-1.53 2.828c-6.616-4.546-15.082-4.437-20.848-.115-.28.215-.564.445-.84.67-3.43 2.971-4.854 6.839-5.376 10.002-.424 2.568-.279 4.7-.183 5.581q-1.68-.268-3.356-.54h-.003q-1.77-.286-3.541-.57c-.052-.769-.146-3.193.341-6.268.554-3.493 1.856-7.804 4.808-11.483a19.2 19.2 0 0 1 3.713-3.533"/><path fill="#EBECEE" d="M68.624 25.88c-4.434-1.333-10.217-1.963-16.207.449-3.52 1.42-6.167 3.508-8.06 5.444q.178-.136.36-.268a20 20 0 0 1 2.764-1.69c5.884-2.995 11.835-2.468 13.646-2.306 6.036.533 10.45 3.021 12.673 4.517.861-.876 1.713-1.743 2.574-2.61-.979-.634-3.83-2.358-7.75-3.537M48.573 39.603a20 20 0 0 0-1.635 4.016 20 20 0 0 0-.608 7.924q-.755.722-1.52 1.458h-.001q-.576.555-1.153 1.106c-.09-.933-.19-2.904.198-5.249.486-2.943 1.736-6.456 4.72-9.255m23.8-3.918c.55-1.018 1.133-2.099 1.683-3.113a544.45 544.45 0 0 0 1.692-1.708l-.728 1.439q-.763 1.506-1.525 3.017-.96.917-1.917 1.835z"/><path fill="#000" fill-rule="evenodd" d="M84.438 35.417a.28.28 0 0 0-.418-.018c-.859.697-1.694 1.382-2.553 2.076q-1.29 1.04-2.579 2.085c-.548.53-1.115 1.075-1.663 1.603q-.824.79-1.646 1.587a.285.285 0 0 0-.018.39 25.3 25.3 0 0 1 3.81 6.596c1.188 3.041 1.45 5.503 1.727 8.144.263 2.587.42 6.176-.105 10.478a.284.284 0 0 0 .23.313l3.822.695.011.003.013.002 3.74.68c.22.04.217.048.39-.136l3.058-2.992a.3.3 0 0 0 .085-.21 87 87 0 0 0-.003-7.508c-.183-4.142-.346-7.798-1.435-11.694-.775-2.763-2.442-7.25-6.466-12.094m7.343 31.178a86 86 0 0 0-.004-7.311c-.185-4.163-.345-7.786-1.417-11.62-.746-2.66-2.344-6.97-6.157-11.642-.87.875-1.736 1.765-2.606 2.651a31.3 31.3 0 0 1 4.213 6.453 31.8 31.8 0 0 1 2.466 7.072c.376 1.688.552 3.087.667 4.052.227 1.942.266 3.656.32 7.066.045 2.306.012 4.246-.023 5.772zm-3.115 2.853c.038-1.562.08-3.659.031-6.122v-.001c-.053-3.414-.093-5.1-.315-7.008-.25-2.102-.788-6.245-3.066-10.928a30.7 30.7 0 0 0-4.134-6.333 1564.914 1564.914 0 0 0-4.997 3.945 25.9 25.9 0 0 1 3.712 6.528c1.218 3.119 1.485 5.649 1.763 8.292.26 2.564.42 6.104-.075 10.34l6.862 1.247z" clip-rule="evenodd"/><path fill="#fff" d="M88.697 63.326c.05 2.463.007 4.56-.031 6.122l-.219-.04-6.862-1.247c.494-4.236.336-7.776.075-10.34-.278-2.643-.545-5.173-1.763-8.292A25.9 25.9 0 0 0 76.185 43q2.498-1.982 4.997-3.945a30.646 30.646 0 0 1 4.134 6.333c2.278 4.683 2.816 8.826 3.066 10.928.222 1.909.262 3.594.315 7.008z"/><path fill="#EBECEE" d="M91.777 59.284c.13 3.014.081 5.543.004 7.311l-2.541 2.493c.035-1.526.068-3.466.022-5.772-.053-3.41-.093-5.124-.32-7.066a39 39 0 0 0-.666-4.052 31.8 31.8 0 0 0-2.466-7.072 31.3 31.3 0 0 0-4.213-6.453c.87-.886 1.736-1.776 2.606-2.651 3.813 4.672 5.411 8.982 6.157 11.642 1.072 3.834 1.232 7.456 1.417 11.62"/><path fill="#EBECEE" fill-rule="evenodd" d="M61.349 50.67a2.4 2.4 0 0 0-.875.285h-.002c-.982.546-1.371 1.578-1.428 1.729l-.001.003a3 3 0 0 0-.143.941v14.133l2.449-2.589z" clip-rule="evenodd"/><path fill="#000" fill-rule="evenodd" d="M69.803 46.446c-.94-.931-3.686-3.65-8.04-3.895 3.276.194 5.642 1.775 7.014 2.942.457.389.793.722 1.026.953" clip-rule="evenodd"/><path fill="#000" fill-rule="evenodd" d="M52.615 46.328a8 8 0 0 1 1.082-1.183q.493-.507.984-1.015.483-.5.972-1.003c3.056-4.07 8.261-3.806 9.125-3.762h.002c4.367.245 7.143 2.983 8.073 3.904 3.182 3.13 4.01 7.063 4.119 8.423a59 59 0 0 1 .156 4.83.28.28 0 0 1-.135.243l-2.97 3.14a.28.28 0 0 1-.223.087c-.693-.113-1.433-.238-2.166-.363-.56-.095-1.115-.19-1.643-.278q-1.887-.315-3.779-.623a.28.28 0 0 1-.237-.275 395 395 0 0 1-.033-1.973q-.014-.98-.033-1.96c-.029-.303-.28-2.08-1.818-3.135l-.01-.007c-.05-.03-.16-.101-.225-.137a5 5 0 0 0-.556-.268 4.2 4.2 0 0 0-1.386-.326v14.638a.28.28 0 0 1-.078.196l-3.037 3.208c-.068.072-.192.066-.286.046-.773-.135-1.53-.263-2.292-.392l-1.425-.242h-.002q-1.888-.323-3.773-.651a.28.28 0 0 1-.234-.28V53.297q0-.103-.005-.264c-.03-1.103-.11-4.12 1.833-6.705m1.445-.76c.392-.38 1.29-.967 1.726-1.238q.238-.127.48-.243c2.396-1.121 4.886-.998 5.47-.97 4.125.246 6.736 2.808 7.667 3.73l.009.008.005.005c1.579 1.56 2.56 3.325 3.153 4.843.536 1.38.743 2.547.794 3.159l.067 1.161c.026.392.039.852.052 1.383.021.775.025 1.438.026 1.952q-1.712-.281-3.421-.566h-.004q-1.772-.296-3.549-.587-.016-.866-.028-1.734l-.004-.247q-.011-.862-.03-1.725c-.027-.31-.276-2.354-2.048-3.572a5 5 0 0 0-.91-.48c-.5-.204-1.172-.397-1.894-.369a3.06 3.06 0 0 0-1.423.381c-1.225.666-1.66 1.955-1.691 2.046a3.7 3.7 0 0 0-.172 1.123v14.506q-1.612-.28-3.228-.556l-.215-.037h-.001q-1.771-.302-3.539-.61V53.284a11 11 0 0 0-.005-.297c-.03-1.134-.1-3.895 1.72-6.317.308-.412.64-.783.993-1.1m4.84 8.06a3.005 3.005 0 0 1 .143-.941v-.003c.058-.15.447-1.183 1.43-1.728l.001-.001c.282-.16.58-.247.875-.286v14.503l-2.45 2.589zm5.836-13.697c-.845-.043-5.888-.166-8.76 3.677 1.424-.663 2.885-.924 3.998-1.02.868-.075 1.526-.05 1.79-.037 3.275.194 5.641 1.775 7.012 2.942a18 18 0 0 1 1.162 1.087c3.08 3.12 3.91 6.928 4.017 8.27.014.19.04.642.066 1.14.005.152.013.325.02.505.012.278.025.584.033.897.017.608.023 1.154.026 1.608l2.412-2.551q.001-.289.013-.664c.012-.453.027-.989.011-1.564a22 22 0 0 0-.159-2.09 5 5 0 0 1-.023-.205c-.106-1.314-.912-5.125-4.032-8.192l-.164-.164c-1.028-1.033-3.398-3.413-7.422-3.64" clip-rule="evenodd"/><path fill="#EBECEE" d="M64.736 39.93c-.845-.042-5.888-.165-8.76 3.678 1.419-.663 2.882-.924 3.998-1.02q.126-.012.245-.02a13 13 0 0 1 1.545-.017c4.353.244 7.1 2.964 8.04 3.895l.134.134c3.08 3.12 3.91 6.928 4.017 8.27.014.19.04.642.066 1.14.005.152.013.325.02.505.012.278.025.584.033.897.017.608.023 1.154.026 1.608l2.412-2.551q.001-.289.013-.664c.012-.453.027-.989.011-1.564a22 22 0 0 0-.159-2.09 5 5 0 0 1-.023-.205c-.106-1.314-.912-5.125-4.032-8.192l-.164-.164c-1.028-1.033-3.398-3.413-7.422-3.64"/><path fill="#fff" d="M55.787 44.33c-.437.27-1.335.858-1.727 1.239a7.5 7.5 0 0 0-.993 1.1c-1.82 2.422-1.75 5.183-1.72 6.317v.043q.005.149.005.254v13.649q1.767.306 3.539.61h.001l.215.036 3.228.556V53.628c0-.272.028-.675.172-1.123.03-.09.466-1.38 1.691-2.046a3.06 3.06 0 0 1 1.423-.38c.722-.03 1.394.164 1.893.369.485.199.826.417.911.48 1.772 1.217 2.02 3.26 2.049 3.57l.03 1.726.003.247q.012.868.028 1.734 1.777.291 3.549.587h.004q1.71.285 3.421.566c0-.514-.005-1.177-.026-1.952a35 35 0 0 0-.052-1.383l-.067-1.161c-.05-.612-.258-1.779-.794-3.16-.593-1.517-1.574-3.283-3.153-4.842l-.005-.005-.009-.008c-.93-.922-3.542-3.484-7.667-3.73-.584-.028-3.074-.151-5.47.97a12 12 0 0 0-.48.243"/><path fill="#000" fill-rule="evenodd" d="m87.89 102.752 5.302 6.157c.1.113.326.227.444.134a36 36 0 0 0 6.528-6.745c2.878-3.894 4.224-7.373 4.571-8.287h.001c1.229-3.276 1.549-5.804 2.078-10.037.483-3.924.545-6.886.635-11.228.052-3.015.142-7.341-.197-12.723a143.33 143.33 0 0 0-.782-8.328.283.283 0 0 0-.286-.249l-7.402-.199a.28.28 0 0 0-.207.083l-1.521 1.534q-.758.767-1.52 1.533a.4.4 0 0 0-.082.131l.057.678c.247 2.078.495 4.746.688 7.775.338 5.359.265 9.491.213 12.504-.09 4.35-.168 7.446-.647 11.34-.53 4.238-1.4 5.226-3.155 8.246-.488.811-1.773 2.803-4.038 5.86-.187.264-.584.773-.866 1.144-.14.184-.132.281 0 .463zm8.871-39.808c.339 5.382.25 9.469.197 12.483l-.003.157c-.088 4.263-.154 7.435-.632 11.312-.528 4.232-1.405 5.286-3.187 8.377-.528.916-2.12 3.42-4.872 7.05l5.278 6.125c3.618-4.258 5.56-6.768 7.966-12.759 1.428-4.159 1.783-7.99 2.127-11.775.303-3.357.303-5.987.237-9.515a371 371 0 0 0-.906-19.466l-6.94-.05c.255 2.131.532 4.877.735 8.061m.694-9.68L96.41 54.32l6.691.047q.698-.685 1.395-1.376l.001-.002.003-.002 1.001-.99-6.614-.178q-.718.722-1.432 1.446zm6.065 1.498c.589 8.15.825 14.801.917 19.626.066 3.535.066 6.189-.239 9.577-.344 3.782-.703 7.678-2.156 11.91-.768 2.224-2.213 5.597-5.029 9.303.889-.94 1.802-2.01 2.698-3.219 2.832-3.833 4.156-7.256 4.496-8.15 1.203-3.203 1.517-5.668 2.046-9.905.48-3.895.542-6.906.633-11.256l.004-.26c.053-2.994.126-7.123-.202-12.329a141 141 0 0 0-.71-7.725l-1.07 1.058-.001.001-.001.001q-.69.685-1.386 1.368" clip-rule="evenodd"/><path fill="#EBECEE" fill-rule="evenodd" d="m96.41 54.319 1.045-1.055 1.433-1.446 6.614.178-1.001.99-.003.003h-.001q-.697.691-1.395 1.377z" clip-rule="evenodd"/><path fill="#fff" d="M96.958 75.427c.053-3.014.142-7.1-.197-12.483-.203-3.184-.48-5.93-.735-8.06l6.94.049c.581 8.08.814 14.676.906 19.466.066 3.528.066 6.158-.237 9.514-.344 3.786-.699 7.617-2.127 11.776-2.406 5.991-4.348 8.501-7.966 12.759l-5.278-6.125c2.752-3.63 4.344-6.134 4.872-7.05 1.782-3.091 2.659-4.145 3.187-8.377.478-3.877.544-7.049.632-11.312z"/><path fill="#EBECEE" d="M104.437 74.388a371 371 0 0 0-.917-19.626q.696-.683 1.386-1.368h.001l.001-.002 1.07-1.058c.247 2.078.517 4.697.71 7.725.328 5.206.255 9.335.202 12.328l-.004.261c-.091 4.35-.153 7.361-.633 11.256-.529 4.237-.843 6.702-2.046 9.905-.34.894-1.664 4.317-4.496 8.15a35 35 0 0 1-2.698 3.219c2.816-3.706 4.261-7.079 5.029-9.303 1.453-4.232 1.812-8.128 2.156-11.91.305-3.388.305-6.042.239-9.577"/><path fill="#000" fill-rule="evenodd" d="M43.972 74.437c-.856-4.954-.596-9.173-.21-12.098-.364 2.9-.605 7.38.21 12.098" clip-rule="evenodd"/><path fill="#000" fill-rule="evenodd" d="M38.816 57.675a.28.28 0 0 1 .247-.078l3.76.657.003.001 3.736.653a.28.28 0 0 1 .248.176 45.6 45.6 0 0 0 .098 11.54c.473 3.417.891 6.437 2.745 9.888 2.624 4.916 6.385 7.487 7.504 8.207 1.239.798 5.09 3.106 10.438 3.407 2.017.12 4.623.233 7.5-1.167a13.2 13.2 0 0 0 3.58-2.587c.323-.504.53-.9.77-1.405.265-.555.485-1.106.668-1.64.615-1.793.817-3.403.943-4.414.235-1.952.132-3.608.014-4.775a.28.28 0 0 1 .071-.288l3.093-3.066a.28.28 0 0 1 .246-.078l3.715.636.006.001 3.721.637a.6.6 0 0 1 .117.05.3.3 0 0 1 .103.14c.334 2.428.548 6.524-.951 11.001-.216.652-1.285 3.723-3.649 6.955a33.741 33.741 0 0 1-2.24 2.717l-.012.014v.001c-1.247 1.372-2.832 2.951-3.934 3.828l-.002.002a12.5 12.5 0 0 1-3.257 1.84c-6.244 3.634-12.445 2.972-15.138 2.652-6.654-.805-11.144-3.907-13.387-5.493-2.365-1.669-9.918-7.493-12.456-17.14-.868-3.3-1.08-6.768-1.358-11.421a102 102 0 0 1-.172-8.057.28.28 0 0 1 .072-.288c1.058-1.036 2.115-2.071 3.158-3.106m3.91 1.139 3.232.565-2.559 2.537-3.678-.595h-.004l-3.262-.528c.888-.87 1.776-1.74 2.655-2.611zm38.97 17.606 3.457.595.092.016.01.002.126.021.01.002.25.043.031.006.359.061 2.693.464c.235 2.179.446 6.722-1.904 12.02-.775 1.728-3.42 6.979-9.014 10.384-6.07 3.526-12.107 2.899-14.779 2.582-6.51-.788-10.904-3.82-13.129-5.394-2.34-1.65-9.75-7.377-12.235-16.822-.85-3.233-1.061-6.642-1.34-11.309a102 102 0 0 1-.164-7.763l3.498.565h.004l3.545.574c-.377 2.93-.623 7.245.21 12.066l.002.007c.605 3.514 1.235 7.171 3.808 11.08 1.311 2.004 4.377 5.943 9.772 8.323 2.222.976 7.007 3.077 12.772 1.488 1.459-.404 6.317-1.968 9.31-6.64.349-.545.648-1.095.904-1.64a16.04 16.04 0 0 0 .623-1.52c.666-1.898.884-3.636 1.014-4.673a22.36 22.36 0 0 0 .075-4.538m3.514.01-.002-.001-.014-.003h-.006l-3.257-.561 2.598-2.576 3.578.613 3.203.548-2.432 2.61zM43.763 62.338c-.387 2.925-.647 7.144.21 12.098.607 3.531 1.222 7.063 3.724 10.872 1.28 1.954 4.243 5.77 9.5 8.089 2.19.967 6.815 2.998 12.396 1.46 1.176-.325 4.576-1.416 7.345-4.316-.473.322-1.003.638-1.595.928-3.017 1.467-5.751 1.343-7.78 1.223-5.49-.31-9.437-2.675-10.71-3.496-1.155-.742-5.008-3.376-7.698-8.416-1.902-3.541-2.335-6.674-2.806-10.08a45.2 45.2 0 0 1-.17-10.758zm43.571 27.544c2.363-5.325 2.175-10.132 1.94-12.417l2.395-2.57c.273 2.412.331 6.077-1.014 10.095-.207.624-1.254 3.633-3.569 6.8a33.56 33.56 0 0 1-2.205 2.674l-.01.011a50 50 0 0 1-.831.893c1.857-2.316 2.84-4.473 3.294-5.485" clip-rule="evenodd"/><path fill="#EBECEE" d="M43.763 62.339c-.364 2.9-.606 7.38.21 12.098.607 3.531 1.222 7.063 3.724 10.872 1.28 1.954 4.243 5.77 9.5 8.089 2.19.967 6.815 2.998 12.396 1.46 1.176-.325 4.576-1.416 7.345-4.316-.473.322-1.003.638-1.595.928-3.017 1.467-5.751 1.343-7.78 1.223-5.49-.31-9.437-2.675-10.71-3.496-1.155-.742-5.008-3.376-7.698-8.416-1.902-3.541-2.335-6.674-2.806-10.08a45.2 45.2 0 0 1-.17-10.758z"/><path fill="#fff" d="m85.152 77.016-3.457-.595a22.3 22.3 0 0 1-.075 4.538c-.13 1.037-.348 2.775-1.014 4.673a16.04 16.04 0 0 1-.623 1.52 15 15 0 0 1-.904 1.64c-2.993 4.672-7.851 6.236-9.31 6.64-5.765 1.589-10.55-.512-12.772-1.488-5.395-2.38-8.46-6.32-9.772-8.322-2.573-3.91-3.203-7.567-3.808-11.08l-.002-.008c-.833-4.821-.587-9.137-.21-12.066l-3.545-.573h-.004q-1.747-.285-3.498-.566c-.032 1.948-.023 4.607.165 7.763.278 4.667.488 8.076 1.339 11.31 2.485 9.444 9.895 15.17 12.235 16.82 2.225 1.575 6.619 4.607 13.13 5.395 2.671.317 8.708.944 14.778-2.582 5.594-3.405 8.239-8.656 9.013-10.383 2.35-5.3 2.14-9.842 1.905-12.021l-2.693-.464-.359-.061-.032-.006h-.003l-.246-.043-.01-.002-.126-.021-.01-.002z"/><path fill="#EBECEE" d="m42.727 58.814 3.231.565-2.559 2.537-3.678-.595h-.004l-3.262-.528c.888-.87 1.776-1.74 2.655-2.611l3.615.631zM85.21 76.43h-.003l-.014-.003h-.006l-3.257-.561 2.598-2.576 3.578.613 3.203.548-2.432 2.61zm2.124 13.453c2.363-5.325 2.175-10.132 1.94-12.417l2.395-2.57c.273 2.412.331 6.077-1.014 10.095-.207.624-1.254 3.633-3.569 6.8a33.56 33.56 0 0 1-2.205 2.674l-.01.011a50 50 0 0 1-.831.893c1.857-2.316 2.84-4.473 3.294-5.485"/><path fill="#EBECEE" fill-rule="evenodd" d="M76.254 64.49q-1.029-.178-2.062-.36l-1.208-.211q-1.839-.323-3.67-.64l-2.52 2.497 2.477.425.422.08q.477.09.95.168l.101.017h.004q.781.139 1.558.272l1.418.247zm-22.022 7.591-2.516 2.495 1.263.208 1.811.298q.96.16 1.922.312.89.142 1.783.289l2.516-2.494q-1.59-.262-3.186-.52-1.798-.292-3.593-.588M72.93 83.046a9.74 9.74 0 0 1-1.23 1.704l.514-.553c1.57-1.686 2.559-2.747 3.581-5.134.456-1.179.767-2.73.754-3.46v-10.62l-2.461 2.439v10.794m-9.654 1.635c-.728.367-1.51.327-2.164.159.654.17 1.437.214 2.164-.16" clip-rule="evenodd"/><path fill="#EBECEE" d="M65.86 77.714c-1.056-.099-1.935-.603-2.127-.714-1.038-.624-1.63-1.544-1.964-2.335a6 6 0 0 1-.342-1.079L58.9 76.091c.075.56.452 2.405 2.108 3.395h.002l.005.004c.133.077.618.354 1.255.52.654.168 1.436.208 2.164-.16.258-.144.864-.524 1.16-1.107.144-.3.221-.602.265-1.03"/><path fill="#000" fill-rule="evenodd" d="M65.902 87.938c.58-.149 1.432-.4 2.183-.697a15 15 0 0 0 3.604-2.026 16.7 16.7 0 0 0 3.285-3.422l.002-.002.044-.064c.338-.487.893-1.288 1.348-2.463a10 10 0 0 0 .316-.925.3.3 0 0 0 .022-.052c.394-1.284.448-2.444.435-3.193V64.29a.28.28 0 0 0-.174-.262l-1.519-.26c-.794-.137-1.594-.274-2.368-.409q-1.91-.334-3.814-.664a.28.28 0 0 0-.246.078l-3.014 2.987a.25.25 0 0 0-.097.203c.013 3.36.026 6.731.026 10.09-.003.054-.01.294-.016.538-.007.252-.014.506-.017.557-.927-.089-1.7-.533-1.878-.635l-.003-.002c-.904-.544-1.428-1.35-1.732-2.068a5.3 5.3 0 0 1-.39-1.469.28.28 0 0 0-.184-.241c-1.243-.206-2.554-.422-3.8-.625q-1.868-.303-3.733-.61a.28.28 0 0 0-.244.078l-3.014 2.987a.28.28 0 0 0-.07.288c.08 1.497.416 4.15 2.158 6.916l.001.002c.257.4 1.346 2.072 3.184 3.614 1.84 1.543 4.447 2.972 7.731 2.85.236-.02 1.042-.086 1.974-.295M72.956 83c.982-1.795 1.132-3.68 1.132-4.784V67.422l2.46-2.44v10.62c.014.731-.297 2.282-.753 3.461-1.022 2.387-2.01 3.448-3.581 5.134l-.513.552a9.7 9.7 0 0 0 1.23-1.703l.024-.045m-8.522-3.15c-.727.374-1.51.33-2.164.16a5 5 0 0 1-1.255-.52l-.005-.003-.002-.001c-1.656-.99-2.033-2.836-2.108-3.395l2.527-2.505c.065.294.17.672.342 1.079.334.791.926 1.71 1.964 2.335.192.11 1.07.615 2.126.714-.044.427-.121.729-.265 1.029q-.06.121-.137.232c-.349.514-.847.782-1.023.876M72.197 67.3l1.325.23.04 10.809c0 1.047-.168 2.707-1.09 4.39q-.09.159-.189.303l-.023.035c-1.135 1.87-2.816 2.99-4.391 3.651-.719.284-1.485.515-2.036.658a14.28 14.28 0 0 1-1.936.291c-3.095.113-5.567-1.231-7.338-2.717a15.9 15.9 0 0 1-3.071-3.485c-1.54-2.447-1.935-4.874-2.048-6.373l1.453.24h.007l1.81.299q.964.159 1.924.312h.001q.858.137 1.714.278c.046.3.156.829.405 1.42.335.791.926 1.71 1.964 2.335l.009.005c.147.085.688.395 1.4.58.728.19 1.703.24 2.6-.222.212-.113.952-.512 1.374-1.346.221-.459.298-.826.339-1.44.013-.185.033-.477.046-.69.011-.282.026-.632.013-.818 0-3.244-.012-6.5-.025-9.744l2.68.46a35 35 0 0 0 .741.133h.001q.327.056.647.116l.09.017h.002q.784.139 1.562.272m-2.884-4.019a1859 1859 0 0 1 4.878.851q1.033.182 2.062.36l-2.53 2.495-1.418-.247-1.558-.272h-.004l-.101-.017a50 50 0 0 1-1.372-.248l-2.476-.425zM51.716 74.576l1.263.208 1.811.298q.96.16 1.922.312.89.142 1.783.289l2.516-2.494q-1.59-.262-3.186-.52-1.798-.292-3.593-.588z" clip-rule="evenodd"/><path fill="#fff" d="M73.523 67.528q-.664-.117-1.325-.23-.779-.134-1.562-.273h-.003l-.089-.017a51 51 0 0 1-.954-.17q-.218-.037-.435-.079l-2.68-.46c.013 3.244.025 6.5.025 9.744.013.186-.002.536-.013.818-.013.213-.033.505-.046.69-.041.614-.118.981-.339 1.44-.407.832-1.158 1.231-1.374 1.346-.897.461-1.872.411-2.6.222a5.6 5.6 0 0 1-1.4-.58l-.009-.005c-1.038-.624-1.63-1.544-1.964-2.335a6 6 0 0 1-.405-1.42q-.856-.14-1.714-.278-.963-.154-1.924-.312L52.9 75.33h-.007l-1.453-.24c.113 1.499.507 3.926 2.048 6.373a15.9 15.9 0 0 0 3.07 3.485c1.772 1.486 4.244 2.83 7.34 2.717.253-.02 1.04-.09 1.935-.291a18 18 0 0 0 2.036-.658c1.575-.661 3.255-1.78 4.391-3.651l.023-.035q.099-.144.19-.303c.92-1.683 1.088-3.343 1.088-4.39z"/><path fill="#000" fill-rule="evenodd" d="M67.732 118.49c8.505.187 15.052-2.313 18.485-3.916l3.171-3.068a.286.286 0 0 0 .043-.353c-1.031-1.679-2.07-3.351-3.11-5.026l-1.2-1.932a.28.28 0 0 0-.205-.131.43.43 0 0 0-.217.055c-2.766 1.316-7.773 3.249-14.265 3.249-8.689 0-15.033-3.45-17.708-5.122a.28.28 0 0 0-.347.038l-3.145 3.098-1.488 3.246-1.4 3.06a.285.285 0 0 0 .105.359c3.274 2.072 10.846 6.216 21.28 6.443m-19.472-9.625-1.297 2.834c3.336 2.083 10.707 6.004 20.781 6.224 8.16.179 14.493-2.149 17.95-3.733l-.27-.439-.002-.002q-.218-.355-.436-.702v-.002a1299 1299 0 0 0-3.303-5.335c-2.844 1.335-7.866 3.226-14.342 3.226-6.052 0-10.97-1.647-14.354-3.226a30 30 0 0 1-2.295-1.179c-.401-.228-.755-.44-1.073-.635zm35.26-3.596a33.7 33.7 0 0 1-13.086 2.666c-8.64 0-14.998-3.352-17.818-5.09l-2.678 2.62q.45.276 1.018.598a35 35 0 0 0 2.254 1.158c3.331 1.555 8.182 3.174 14.118 3.174a33.4 33.4 0 0 0 14.284-3.258zm-1.372 2.148a1252 1252 0 0 0 3.317 5.354l.437.705.001.003.249.402 2.68-2.623c-.99-1.61-1.987-3.214-2.985-4.822l-.004-.005v-.002l-1.015-1.634z" clip-rule="evenodd"/><path fill="#fff" d="m48.26 108.865 1.359-2.969c.318.195.672.407 1.073.635.655.376 1.429.777 2.294 1.179 3.384 1.579 8.303 3.226 14.355 3.226 6.476 0 11.498-1.891 14.342-3.226a1299 1299 0 0 1 3.302 5.335l.001.002q.217.347.436.702l.001.002.272.439c-3.458 1.584-9.792 3.912-17.951 3.733-10.074-.22-17.445-4.141-20.781-6.224z"/><path fill="#EBECEE" d="M85.465 112.771a1252 1252 0 0 1-3.317-5.354l2.68-2.622 1.014 1.634.001.002.004.005c.998 1.608 1.995 3.212 2.985 4.822l-2.68 2.623-.249-.402-.001-.003q-.218-.354-.437-.705m-15.031-4.836c5.61 0 10.13-1.419 13.086-2.666l-1.908 1.868a33.4 33.4 0 0 1-14.284 3.258c-5.936 0-10.787-1.619-14.118-3.174a35 35 0 0 1-2.254-1.158q-.57-.322-1.018-.598l2.678-2.62c2.82 1.738 9.178 5.09 17.818 5.09"/><path fill="#fff" d="M42.322 102.304c.308-.399.612-.821.92-1.219l.106-.074z"/><path fill="#000" fill-rule="evenodd" d="m42.368 103.128 3.861-4.86a.34.34 0 0 0 .09-.272c-.013-.09-.048-.18-.127-.221a42.3 42.3 0 0 1-10.82-14.511c-3.65-8.07-3.86-15.337-3.715-19.11.004-.115-.075-.206-.18-.253-.049-.022-.066-.018-.13-.039q-1.841-.3-3.682-.596a1461 1461 0 0 1-3.766-.61.28.28 0 0 0-.248.081 642.84 642.84 0 0 0-2.896 3.015c-.063.052-.075.103-.079.184-.2 4.392.013 12.057 3.457 20.684 4.215 10.563 11.021 16.986 14.544 19.884a.29.29 0 0 0 .394-.009 786 786 0 0 1 3.297-3.367m.875-2.043c-.309.398-.613.82-.921 1.219l1.026-1.293zm-.614-.161a66.29 66.29 0 0 1-1.08-.947v-.001c-2.981-2.7-7.374-7.459-10.395-14.612-2.635-6.216-3.234-11.884-3.287-15.76a43 43 0 0 1 .03-2.195q-1.682-.286-3.37-.57-1.65-.276-3.3-.556c-.172 4.39.11 11.806 3.43 20.126 4.079 10.222 10.614 16.522 14.154 19.47 1.273-1.644 2.545-3.299 3.819-4.955m3.005-2.884a42.9 42.9 0 0 1-10.776-14.541c-3.489-7.715-3.877-14.704-3.787-18.68l-1.102 1.044-1.517 1.436c-.033.667-.034 1.43-.034 2.299a41.5 41.5 0 0 0 3.243 15.544 41.2 41.2 0 0 0 10.253 14.412l.001.002q.593.542 1.094.959c.879-.825 1.757-1.65 2.625-2.475m-14.87-33.698q-1.593-.259-3.188-.516-1.81-.291-3.623-.587a583 583 0 0 0-2.421 2.52q1.542.262 3.088.52l.054.01q1.713.287 3.424.578l1.496-1.416z" clip-rule="evenodd"/><path fill="#fff" d="M41.55 99.977c.39.348.744.661 1.08.947a1861 1861 0 0 1-3.819 4.955c-3.54-2.948-10.075-9.248-14.154-19.47-3.32-8.32-3.602-15.736-3.43-20.126q1.65.28 3.3.557 1.688.281 3.37.569a43 43 0 0 0-.03 2.195c.053 3.876.652 9.544 3.287 15.76 3.021 7.153 7.414 11.912 10.394 14.612z"/><path fill="#EBECEE" d="M34.858 83.499a42.9 42.9 0 0 0 10.776 14.54c-.868.826-1.746 1.65-2.625 2.476a31 31 0 0 1-1.094-.96h-.001A41.2 41.2 0 0 1 31.66 85.141a41.5 41.5 0 0 1-3.242-15.544c0-.868 0-1.632.033-2.299l1.517-1.436 1.102-1.044c-.09 3.976.298 10.965 3.787 18.68m-7.281-19.672q1.595.257 3.188.516l-1.17 1.109-1.496 1.416q-1.71-.291-3.424-.578l-.054-.01q-1.546-.258-3.088-.52a583 583 0 0 1 2.421-2.52q1.812.297 3.623.587"/><path fill="#99FFDF" d="M14.346 104.064c-.096-1.496-.235-4.059.875-7.017.337-.898.976-2.537 2.409-4.128 2.235-2.483 4.97-3.173 6.273-3.483 4.345-1.036 7.981.514 9.98 1.387 7.762 3.385 11.102 10.613 11.918 12.45.707 1.591 1.941 4.442 1.973 8.322.012 1.646.003 4.29-1.47 7.132a12.4 12.4 0 0 1-3.474 4.161c-3.204 2.436-6.623 2.41-8.04 2.379-3.086-.068-5.318-1.159-7.133-2.048a23.8 23.8 0 0 1-5.724-3.996c-1.239-1.159-4.122-3.919-6.007-8.585-.495-1.228-1.38-3.472-1.58-6.572z"/><path fill="#000" d="M35.382 125.569c-.23 0-.432-.003-.598-.008-3.146-.07-5.418-1.181-7.245-2.076a24 24 0 0 1-5.793-4.044c-1.131-1.057-4.131-3.868-6.078-8.692-.453-1.121-1.395-3.452-1.602-6.666-.092-1.423-.261-4.069.895-7.147.31-.827.956-2.546 2.466-4.225 2.34-2.596 5.196-3.277 6.416-3.568 4.483-1.07 8.169.538 10.149 1.402 5.173 2.255 9.459 6.73 12.066 12.597.637 1.437 1.965 4.423 1.998 8.446.012 1.506.034 4.311-1.505 7.277a12.7 12.7 0 0 1-3.555 4.259c-2.926 2.223-5.997 2.442-7.61 2.442zm-20.757-21.526c.201 3.113 1.118 5.384 1.559 6.476 1.899 4.7 4.83 7.447 5.934 8.481a23.5 23.5 0 0 0 5.656 3.947c1.78.871 3.995 1.954 7.02 2.02 1.28.029 4.677.105 7.87-2.321a12.2 12.2 0 0 0 3.39-4.063c1.47-2.831 1.45-5.432 1.436-6.987-.03-3.895-1.323-6.801-1.945-8.199-2.547-5.735-6.73-10.101-11.772-12.302-1.922-.838-5.5-2.399-9.81-1.37-1.17.277-3.908.93-6.13 3.398-1.435 1.594-2.054 3.241-2.351 4.033-1.11 2.956-.945 5.513-.857 6.887"/><path fill="#26DAA7" d="M56.5 106.674a15.2 15.2 0 0 1-2.659 5.579l-9.685 9.461a12.7 12.7 0 0 0 2.146-2.988c1.475-2.842 1.482-5.486 1.47-7.131-.03-3.88-1.264-6.733-1.97-8.324-.815-1.837-4.157-9.065-11.92-12.448-1.998-.871-5.634-2.423-9.98-1.387-1.058.248-3.055.752-4.967 2.26l8.877-8.93c.886-.6 1.83-1.1 2.817-1.488 3.937-1.548 7.43-.875 8.79-.593 3.84.791 6.375 2.731 8.071 4.061a24.9 24.9 0 0 1 5.634 6.273c1.037 1.642 2.841 4.56 3.503 8.818.243 1.57.585 3.923-.128 6.833z"/><path fill="#000" d="M44.157 122.01a.27.27 0 0 1-.157-.05.3.3 0 0 1-.105-.134.31.31 0 0 1 .064-.324 12.3 12.3 0 0 0 2.097-2.918c1.469-2.831 1.448-5.433 1.434-6.986-.03-3.892-1.32-6.801-1.944-8.199-1.474-3.32-4.963-9.332-11.772-12.299-1.92-.84-5.493-2.402-9.808-1.373-.88.206-2.94.695-4.862 2.207a.27.27 0 0 1-.395-.035.307.307 0 0 1 .034-.417q4.439-4.47 8.877-8.93a.3.3 0 0 1 .042-.037 15 15 0 0 1 2.87-1.514c4.091-1.61 7.742-.855 8.942-.608 3.986.824 6.615 2.882 8.186 4.114a25.2 25.2 0 0 1 5.7 6.348c.928 1.469 2.862 4.531 3.547 8.934.228 1.47.61 3.927-.133 6.956a15.4 15.4 0 0 1-2.712 5.694l-.027.031-9.687 9.461a.27.27 0 0 1-.19.079M26.82 88.801c3.165 0 5.756 1.132 7.17 1.75 6.983 3.046 10.557 9.199 12.068 12.597.639 1.436 1.968 4.425 1.996 8.447.014 1.505.036 4.308-1.504 7.277a5 5 0 0 1-.111.21l7.197-7.027a14.8 14.8 0 0 0 2.595-5.453c.71-2.91.34-5.289.12-6.713-.666-4.275-2.484-7.153-3.46-8.7a24.6 24.6 0 0 0-5.564-6.199c-1.533-1.203-4.098-3.211-7.958-4.009-1.16-.24-4.695-.969-8.638.581-.959.378-1.877.861-2.74 1.442l-7.11 7.152a14 14 0 0 1 2.965-1.005 12.8 12.8 0 0 1 2.979-.347z"/><path fill="#000" fill-rule="evenodd" d="M35.442 102.462a2.286 2.286 0 0 1 3.232 3.232l-9.67 9.669-5.752-7.091a2.285 2.285 0 1 1 3.549-2.879l2.558 3.153zm2.829.403a1.714 1.714 0 0 0-2.425 0l-6.531 6.531-2.957-3.644a1.715 1.715 0 1 0-2.664 2.161l5.355 6.6 9.222-9.222c.67-.67.67-1.756 0-2.426" clip-rule="evenodd"/><path fill="#26DAA7" d="M35.846 102.865a1.714 1.714 0 1 1 2.425 2.426l-9.222 9.222-5.355-6.6a1.716 1.716 0 0 1 2.664-2.161l2.957 3.644z"/></svg>