<svg width="14" height="22" viewBox="0 0 14 22" fill="none" xmlns="http://www.w3.org/2000/svg"><g clip-path="url(#a)"><path d="M1.066 11.215a.633.633 0 0 1-.191-.465c0-.182.064-.337.191-.465L5.88 5.691c.328-.255.638-.255.93 0 .255.329.246.638-.028.93l-3.61 3.473h9.298c.4.036.62.255.656.656-.037.401-.255.62-.656.656H3.172l3.637 3.473c.255.292.255.601 0 .93-.292.255-.593.255-.903 0l-4.812-4.594h-.028Z" fill="#000"/></g><defs><clipPath id="a"><path fill="#fff" d="M.5 0h13v22H.5z"/></clipPath></defs></svg>