<svg width="96" height="96" fill="none" xmlns="http://www.w3.org/2000/svg"><path fill-rule="evenodd" clip-rule="evenodd" d="M48.001 0C74.51 0 96 21.491 96 48c0 26.508-21.49 48-47.999 48C21.491 96 0 74.508 0 48 0 21.491 21.49 0 48.001 0Z" fill="#FF444F"/><path d="M32.92 59.99c-.75.194-1.513.328-2.284.4 2.358 6.078 5.442 13.272 6.498 15.34 1.124 2.188 3.164 2.3 4.183 2.029l6.782-1.822c1.212-.313 3.202-1.807 2.434-4.491-.422-1.481-3.946-7.013-6.464-13.172a54.908 54.908 0 0 0-11.15 1.715Zm32.702-6.948c-1.028-.046-4.108-2.318-6.698-7.375a6.99 6.99 0 0 0 4.281-8.352 6.991 6.991 0 0 0-7.886-5.085c-.288-5.772 1.25-9.279 2.118-9.744 1.225 0 6.56 4.09 9.185 13.919 2.602 9.7.178 15.884-1 16.637ZM55.619 15.688c-3.021.81-5.205 3.657-6.376 7.666-6.373 7.285-17.167 11.382-22.7 12.866a10.544 10.544 0 0 0-7.44 12.914A10.547 10.547 0 0 0 32 56.596c5.533-1.485 16.93-3.325 26.095-.2 3.021 2.884 6.333 4.26 9.354 3.437 6.56-1.76 9.234-13.069 5.97-25.26-3.265-12.19-11.24-20.644-17.801-18.885Z" fill="#fff"/></svg>