<svg width="64" height="40" fill="none" xmlns="http://www.w3.org/2000/svg"><path d="m15.867 11.5 3.145 13.62L5.219 28.3 2 14.606 15.867 11.5Z" fill="#004361"/><path d="M54.323 23.947h-2.228v-8.02h2.228v8.02ZM53.184 14.85c.793 0 1.437-.587 1.437-1.32 0-.734-.644-1.32-1.437-1.32-.792 0-1.436.586-1.436 1.32 0 .733.644 1.32 1.436 1.32Z" fill="#B6CDED"/><path fill-rule="evenodd" clip-rule="evenodd" d="M9.875 12.283v4.646c1.238-1.712 4.457-1.712 5.2.978.668 2.396-.297 5.844-3.22 6.113-2.723.245-4.209-.244-4.209-.244V12.283h2.229Zm0 10.026s2.476.733 2.971-1.712c0 0 .495-2.69-1.238-2.935-1.733-.244-1.733 2.69-1.733 2.69v1.957ZM19.408 22.186c1.733.734 3.714-.244 3.714-.244l.248 1.711c-1.238.734-3.467.49-3.467.49-2.723-.245-3.219-1.712-3.466-2.935-.248-1.223 0-2.69 0-2.69.495-2.2 2.971-2.69 2.971-2.69 2.476-.244 3.467.734 3.962 1.957.495 1.222.124 2.567.124 2.567h-4.953c-.123 1.1.867 1.834.867 1.834Zm-.743-3.179h2.724s.248-1.712-1.486-1.712c-1.485.49-1.238 1.712-1.238 1.712Z" fill="#B6CDED"/><path d="M26.886 15.926H24.41l2.798 8.168C26.664 26.759 24.51 26 24.51 26l-.297 1.81c3.962.978 5.101-3.668 5.101-3.668l3.269-8.217h-2.476l-1.66 4.866-1.56-4.866Z" fill="#B6CDED"/><path fill-rule="evenodd" clip-rule="evenodd" d="M35.182 16.269s1.04-.563 2.402-.49c3.318.172 4.06 2.984 3.268 5.576-.668 2.176-2.798 2.617-2.798 2.617s-2.476.733-4.11-1.003c-1.635-1.712-.62-4.646-.322-5.16.297-.513.668-1.003 1.56-1.54Zm1.931 1.393c-1.015 0-1.708.979-1.708 2.275 0 1.296.396 2.323 1.708 2.323 1.016 0 1.709-1.052 1.709-2.323 0-1.272-.47-2.25-1.709-2.275Z" fill="#B6CDED"/><path d="M44.715 15.926H42.66c0-.098.05 8.045-.025 8.045h2.278v-4.255c.174-1.736 1.288-2.005 1.288-2.005 1.684-.44 1.337 1.516 1.337 1.516v4.671h2.278v-5.82c-.099-1.174-.52-1.883-1.213-2.127-.693-.245-1.288-.27-2.154-.098-.867.171-1.734 1.32-1.734 1.32v-1.247ZM55.933 19.814c-.075-3.203 3.269-4.817 6.042-3.692l-.446 1.785c-1.486-.66-3.046.024-3.269 1.638-.099.71-.05 1.663.545 2.201.743.636 2.006.392 2.798.05l.397 1.71c.021.086-.7.299-.942.37l-.074.022c-1.386.343-3.293.171-4.259-.978-.718-.856-.767-2.03-.792-3.106Z" fill="#B6CDED"/></svg>