<svg width="87" height="75" fill="none" xmlns="http://www.w3.org/2000/svg"><path fill-rule="evenodd" clip-rule="evenodd" d="M84.683 13.017C73.49 47.353 38.952 59.034 5.293 57.259a1.05 1.05 0 0 0-.11 2.096c34.601 1.827 69.99-10.391 81.496-45.689a1.049 1.049 0 1 0-1.996-.649Z" fill="#FF444F"/><path fill-rule="evenodd" clip-rule="evenodd" d="M5.871 58.338c1.651-.82 3.735-1.828 3.968-1.95 6.318-3.284 11.788-7.374 16.85-12.404a1.051 1.051 0 0 0-1.48-1.49c-4.907 4.88-10.21 8.846-16.34 12.032-.357.186-5.043 2.448-5.956 2.977-.375.215-.521.453-.55.513-.166.31-.145.58-.089.782.066.23.266.58.73.822.486.25 1.617.52 1.897.61 4.22 1.386 9.052 2.565 13.292 4.562 4.043 1.903 7.552 4.554 9.337 8.964a1.052 1.052 0 0 0 1.947-.789c-1.997-4.93-5.87-7.947-10.389-10.075-4.214-1.984-8.996-3.187-13.217-4.554Z" fill="#FF444F"/></svg>