<svg width="17" height="16" fill="none" xmlns="http://www.w3.org/2000/svg"><g clip-path="url(#clip0)" fill="#333"><path fill-rule="evenodd" clip-rule="evenodd" d="M8.5 16c.956 0 1.872-.168 2.722-.475l-.272-2.02c-.578.792-1.253 1.28-1.95 1.438v-2.939c.612.011 1.201.042 1.76.09l-.137-1.014A27.312 27.312 0 009 11.004V8.5h3.49a11.8 11.8 0 01-.058.782l.914.708c.076-.482.125-.98.145-1.49h1.991a6.958 6.958 0 01-.704 2.599l.805.623A8 8 0 108.5 16zM8 1.057c-.824.187-1.616.834-2.253 1.897a7.342 7.342 0 00-.436.853A24.72 24.72 0 008 3.996v-2.94zm1 0v2.939a24.72 24.72 0 002.69-.19 7.323 7.323 0 00-.437-.852C10.615 1.891 9.823 1.244 9 1.057zM8 4.996a25.389 25.389 0 01-3.04-.228c-.25.825-.41 1.748-.45 2.732H8V4.996zM9 7.5V4.996a25.386 25.386 0 003.04-.228c.25.825.41 1.748.45 2.732H9zm-1 1H4.51c.04.983.2 1.907.45 2.732.925-.13 1.955-.209 3.04-.228V8.5zm0 3.505c-.965.017-1.872.083-2.69.188.133.305.279.59.437.853.637 1.063 1.43 1.71 2.253 1.897v-2.938zM3.965 4.603c-.258.891-.416 1.87-.456 2.897H1.518a6.96 6.96 0 011.066-3.244c.41.131.874.247 1.381.347zM3.51 8.5H1.518a6.96 6.96 0 001.066 3.244c.41-.13.873-.247 1.381-.347A12.098 12.098 0 013.51 8.5zm10.907-4.244c.603.95.983 2.056 1.066 3.244h-1.991a12.1 12.1 0 00-.456-2.897c.508-.1.971-.216 1.38-.347zm-2.787-2.52c.822.412 1.552.98 2.15 1.667-.324.09-.683.172-1.072.245a8.517 8.517 0 00-.596-1.209 6.861 6.861 0 00-.482-.702zM5.371 14.264a6.88 6.88 0 01-.482-.703 8.517 8.517 0 01-.596-1.208c-.389.073-.748.155-1.072.245a7.025 7.025 0 002.15 1.666zM4.293 3.648a8.52 8.52 0 01.596-1.209c.15-.248.31-.483.482-.702a7.026 7.026 0 00-2.15 1.666c.324.09.683.172 1.072.245z"/><path d="M12.122 14.714l-.664-4.922 4.07 3.153-1.198.623 1.12 1.908-1.01.524-1.12-1.908-1.198.622z"/></g><defs><clipPath id="clip0"><path fill="#fff" transform="translate(.5)" d="M0 0h16v16H0z"/></clipPath></defs></svg>