<svg xmlns="http://www.w3.org/2000/svg" xmlns:xlink="http://www.w3.org/1999/xlink" width="16" height="16"><defs><path id="a" d="M8 0a8 8 0 110 16A8 8 0 018 0zm.003 10.667c-.366 0-.681.13-.943.392-.26.261-.393.577-.393.944 0 .368.132.683.393.942.262.259.577.388.943.388s.68-.13.94-.388c.26-.259.39-.573.39-.942 0-.367-.13-.683-.39-.944a1.276 1.276 0 00-.94-.392zm-.317-7.968c-.629.157-1.02.655-1.02 1.258.032.365.059.733.09 1.097l.27 4.135c.031.47.449.811.987.811.539 0 .961-.364.988-.839 0-.165.018-.717.031-.839.058-.89.122-1.779.18-2.668l.121-1.729c0-.207-.031-.392-.121-.576-.27-.516-.898-.779-1.526-.65z"/></defs><use fill="var(--fill-color1)" fill-rule="nonzero" xlink:href="#a"/></svg>