<svg width="128" height="80" fill="none" xmlns="http://www.w3.org/2000/svg"><path d="M23.195 21H21v37.949h2.195V21ZM107 21h-2.523v37.949H107V21ZM25.032 21h-1.174v37.949h1.174V21ZM30.953 21h-4.058v16.537h4.058V21ZM33.556 21h-1.174v16.537h1.174V21ZM46.725 21H45.55v16.537h1.174V21ZM55.248 21h-1.173v16.537h1.173V21ZM62.063 21h-1.175v16.537h1.175V21ZM70.995 21H69.82v16.537h1.174V21ZM72.373 21h-.919v16.537h.919V21ZM77.451 21h-1.276v16.537h1.276V21ZM80.412 21h-1.276v16.537h1.276V21ZM81.866 21h-.918v16.537h.918V21ZM86.868 21h-1.2v16.537h1.2V21ZM97.842 21h-2.144v16.537h2.144V21ZM94.448 21h-1.2v16.537h1.2V21ZM101.39 21h-1.2v16.537h1.2V21ZM102.87 21h-.996v16.537h.996V21ZM91.998 21H87.94v16.537h4.058V21ZM84.954 21h-2.143v16.537h2.143V21ZM67.498 21H65.38v16.537h2.118V21ZM75.537 21H73.42v16.537h2.118V21ZM40.319 21h-1.174v16.537h1.174V21ZM42.08 21h-1.174v16.537h1.174V21ZM63.492 21h-.92v16.537h.92V21ZM36.772 21h-2.118v16.537h2.118V21ZM44.938 21H42.82v16.537h2.118V21ZM52.671 21h-3.854v16.537h3.854V21ZM58.643 21h-2.297v16.537h2.297V21ZM27.508 58.668V39.477h7.222c1.48 0 2.654.179 3.547.587 1.761.765 2.808 2.577 2.808 4.313 0 1.633-.894 3.19-2.68 4.083 2.322.664 3.624 2.425 3.624 4.645 0 1.812-.893 3.47-1.99 4.287-1.098.868-2.731 1.276-5.207 1.276h-7.324Zm2.552-11.127h4.16c1.123 0 1.94-.076 2.424-.204 1.276-.408 1.965-1.276 1.965-2.654a3.06 3.06 0 0 0-.46-1.659c-.306-.485-.74-.816-1.326-.995-.562-.179-1.557-.28-2.935-.28H30.06v5.792Zm0 8.856h4.772c.842 0 1.404-.026 1.736-.077 1.607-.306 2.807-1.25 2.807-3.215 0-.715-.179-1.353-.536-1.889-.74-1.046-1.914-1.429-4.339-1.429h-4.44v6.61ZM46.47 45.985c1.199-1.021 2.654-1.532 4.363-1.532 1.915 0 3.497.613 4.696 1.889 1.2 1.276 1.812 2.986 1.812 5.18 0 1.787-.28 3.19-.816 4.211C55.453 57.801 53.258 59 50.808 59c-1.94 0-3.496-.612-4.696-1.889-1.2-1.25-1.812-3.062-1.812-5.384.026-2.578.766-4.466 2.17-5.742Zm4.389 11.05c2.348 0 4.109-1.735 4.109-5.385 0-1.71-.409-3.037-1.174-3.904-.766-.894-1.761-1.353-2.935-1.353-2.373 0-4.083 1.76-4.083 5.334 0 3.547 1.71 5.308 4.083 5.308ZM60.072 39.477h2.373v19.217h-2.373V39.477ZM78.064 54.483C77.298 57.34 75.154 59 71.939 59c-2.042 0-3.65-.612-4.823-1.889-1.2-1.25-1.787-3.01-1.787-5.282 0-2.323.587-4.16 1.787-5.436 1.199-1.276 2.756-1.94 4.695-1.94 1.863 0 3.369.613 4.568 1.889 1.174 1.25 1.761 3.062 1.761 5.36 0 .127 0 .356-.025.612H67.728c.179 3.088 1.889 4.72 4.21 4.72 1.736 0 2.961-.841 3.676-2.832l2.45.28ZM75.639 50.4c-.102-1.174-.408-2.068-.893-2.629-.74-.919-1.71-1.378-2.935-1.378-2.169 0-3.777 1.557-3.98 4.007h7.808ZM86.511 58.643c-.663.127-1.276.204-1.786.204-.868 0-1.532-.128-1.991-.409-.46-.28-.817-.612-.995-1.071-.179-.46-.306-1.378-.306-2.782v-7.988h-1.71v-1.863h1.71v-3.42l2.322-1.429v4.85h2.399v1.862h-2.4v8.141c0 .664.052 1.098.128 1.276.18.383.536.638 1.2.638.28 0 .612-.025 1.046-.102l.383 2.093ZM89.727 45.985c1.199-1.021 2.654-1.532 4.364-1.532 1.914 0 3.496.613 4.695 1.889 1.2 1.276 1.812 2.986 1.812 5.18 0 1.787-.28 3.19-.816 4.211C98.71 57.801 96.515 59 94.065 59c-1.94 0-3.496-.612-4.696-1.889-1.2-1.275-1.812-3.062-1.812-5.384.026-2.578.74-4.466 2.17-5.742Zm4.364 11.05c2.348 0 4.108-1.735 4.108-5.385 0-1.71-.408-3.037-1.174-3.904-.765-.894-1.76-1.353-2.934-1.353-2.374 0-4.084 1.76-4.084 5.334 0 3.547 1.736 5.308 4.084 5.308Z" fill="#333"/></svg>