<svg width="16" height="16" xmlns="http://www.w3.org/2000/svg"><path d="M1.5 2v2a.5.5 0 0 0 .5.5h2a.5.5 0 0 0 .5-.5V2a.5.5 0 0 0-.5-.5H2a.5.5 0 0 0-.5.5zm5 0v2a.5.5 0 0 0 .5.5h2a.5.5 0 0 0 .5-.5V2a.5.5 0 0 0-.5-.5H7a.5.5 0 0 0-.5.5zm5 0v2a.5.5 0 0 0 .5.5h2a.5.5 0 0 0 .5-.5V2a.5.5 0 0 0-.5-.5h-2a.5.5 0 0 0-.5.5zm-10 5v2a.5.5 0 0 0 .5.5h2a.5.5 0 0 0 .5-.5V7a.5.5 0 0 0-.5-.5H2a.5.5 0 0 0-.5.5zm5 0v2a.5.5 0 0 0 .5.5h2a.5.5 0 0 0 .5-.5V7a.5.5 0 0 0-.5-.5H7a.5.5 0 0 0-.5.5zm5 0v2a.5.5 0 0 0 .5.5h2a.5.5 0 0 0 .5-.5V7a.5.5 0 0 0-.5-.5h-2a.5.5 0 0 0-.5.5zm-10 5v2a.5.5 0 0 0 .5.5h2a.5.5 0 0 0 .5-.5v-2a.5.5 0 0 0-.5-.5H2a.5.5 0 0 0-.5.5zm5 0v2a.5.5 0 0 0 .5.5h2a.5.5 0 0 0 .5-.5v-2a.5.5 0 0 0-.5-.5H7a.5.5 0 0 0-.5.5zm5 0v2a.5.5 0 0 0 .5.5h2a.5.5 0 0 0 .5-.5v-2a.5.5 0 0 0-.5-.5h-2a.5.5 0 0 0-.5.5z" fill="none" fill-rule="evenodd" stroke="var(--fill-color1)"/></svg>