<svg viewBox="0 0 14 16" fill="none" xmlns="http://www.w3.org/2000/svg"><path fill-rule="evenodd" clip-rule="evenodd" d="M0 4.5A1.5 1.5 0 011.5 3h6A1.5 1.5 0 019 4.5v8A1.5 1.5 0 017.5 14h-6A1.5 1.5 0 010 12.5v-8zM1.5 4a.5.5 0 00-.5.5v8a.5.5 0 00.5.5h6a.5.5 0 00.5-.5v-8a.5.5 0 00-.5-.5h-6z" fill="var(--text-prominent)"/><path fill-rule="evenodd" clip-rule="evenodd" d="M2 6.5a.5.5 0 01.5-.5h4a.5.5 0 010 1h-4a.5.5 0 01-.5-.5zM2 8.5a.5.5 0 01.5-.5h4a.5.5 0 010 1h-4a.5.5 0 01-.5-.5zM2 10.5a.5.5 0 01.5-.5h4a.5.5 0 010 1h-4a.5.5 0 01-.5-.5z" fill="var(--text-prominent)"/><path fill-rule="evenodd" clip-rule="evenodd" d="M3 1.5A1.5 1.5 0 014.5 0h6A1.5 1.5 0 0112 1.5v8a1.5 1.5 0 01-1.5 1.5H9v-1h1.5a.5.5 0 00.5-.5v-8a.5.5 0 00-.5-.5h-6a.5.5 0 00-.5.5V3H3V1.5z" fill="var(--text-prominent)"/></svg>