<svg xmlns="http://www.w3.org/2000/svg" width="16" height="16"><path fill="var(--fill-color1)" d="M14.467 0H4.05a.535.535 0 00-.533.536v1.845H1.533A.535.535 0 001 2.917v12.547c0 .295.239.536.533.536H11.95c.294 0 .533-.24.533-.536v-1.845h1.984c.294 0 .533-.24.533-.536V.536A.535.535 0 0014.467 0zM1.931 15.063V3.319h7.185v1.928c0 .283.229.514.51.514h1.925v9.301h-9.62zm8.116-11.084l.842.844h-.842v-.844zm4.022 8.702h-1.586v-7.36a.532.532 0 00-.157-.38L9.93 2.538a.526.526 0 00-.376-.157H4.449V.938h9.62V12.68z"/></svg>