<svg xmlns="http://www.w3.org/2000/svg" width="16" height="15"><g fill="none" fill-rule="evenodd"><path stroke="var(--fill-color1)" stroke-linecap="round" stroke-linejoin="round" d="M13.667.438c.502 0 .956.193 1.284.501.341.32.549.762.549 1.249h0v7.188c0 .486-.208.929-.549 1.248a1.873 1.873 0 01-1.284.502h0H2.934L.5 14.776V2.188c0-.487.208-.93.549-1.249A1.87 1.87 0 012.333.438h0z"/><path fill="var(--fill-color1)" fill-rule="nonzero" d="M13 3.282c0 .259-.21.469-.469.469H3.47a.469.469 0 110-.938h9.062c.26 0 .469.21.469.469zM3.469 4.688h7.061a.468.468 0 110 .937H3.47a.468.468 0 110-.937zm0 1.875H6.53a.468.468 0 110 .937H3.47a.468.468 0 110-.937z"/></g></svg>