<svg xmlns="http://www.w3.org/2000/svg" width="12" height="16"><path fill="var(--fill-color1)" d="M7.5 0L12 4.5V15a1 1 0 01-1 1H1a1 1 0 01-1-1V1a1 1 0 011-1h6.5zM7 1H1v14h10V5H8.5a1.5 1.5 0 01-1.493-1.356L7 3.5V1zM6 5a.5.5 0 01.5.5v4.792l1.146-1.146a.5.5 0 11.708.708l-2 2-.013.011a.503.503 0 01-.039.033l.052-.044A.502.502 0 016 12h-.02a.503.503 0 01-.052-.005L6 12a.502.502 0 01-.354-.146l-2-2a.5.5 0 11.708-.708L5.5 10.292V5.5A.5.5 0 016 5zm2-3.086V3.5a.5.5 0 00.41.492L8.5 4h1.586L8 1.914z"/></svg>