<svg xmlns="http://www.w3.org/2000/svg" width="120" height="120" fill="none" viewBox="0 0 128 128"><path fill="#EBECEE" d="M33.147 47.735q.199.207.403.404c.133.14.265.272.402.405q.198.207.404.404.194.205.4.4.196.207.402.405.196.206.403.404.196.206.402.405.196.205.403.404.197.206.402.404.198.207.403.404.197.208.402.405.198.206.403.404.2.208.407.409.198.207.405.407.197.206.403.404.202.214.413.414.19.198.387.387.197.21.406.408.192.202.393.395l.096.1q.156.16.319.316.196.206.402.404.196.206.403.405-.102-.105-.2-.211 0-.002-.003-.003-.1-.105-.187-.21a8 8 0 0 1-.187-.213 6 6 0 0 1-.184-.22 6 6 0 0 1-.185-.225l-.051-.066-.125-.159a10 10 0 0 1-.171-.23l-.17-.235q-.087-.12-.167-.24a7 7 0 0 1-.163-.242 5 5 0 0 1-.157-.247 7 7 0 0 1-.158-.251q-.078-.128-.15-.254-.076-.129-.148-.258-.074-.132-.143-.262-.072-.135-.14-.269c-.046-.092-.093-.18-.133-.273a6 6 0 0 1-.133-.275 9 9 0 0 1-.126-.279 7 7 0 0 1-.123-.285 5 5 0 0 1-.119-.29 10 10 0 0 1-.112-.293c-.974-2.586-1.384-5.564-1.111-8.812 1.05-12.5 11.81-24.32 24.036-26.403 3.629-.616 6.98-.307 9.87.763q.146.05.289.11.142.053.285.115.14.057.28.119.138.059.276.125.138.06.273.128.134.064.265.132.133.066.262.136.13.067.26.142.128.069.256.147.128.072.253.148.125.074.245.153.124.077.243.158.122.08.24.16a11 11 0 0 1 .465.331q.118.085.23.174l.226.178q.11.087.218.176.111.092.219.186.11.093.213.19c.074.063.142.128.213.19l.003.004q.101.094.198.189a14 14 0 0 0-.403-.405 14 14 0 0 0-.402-.404 14 14 0 0 0-.403-.404 15 15 0 0 0-.413-.415 11 11 0 0 0-.39-.389 11 11 0 0 0-.403-.404 10 10 0 0 0-.402-.404 10 10 0 0 0-.402-.405 11 11 0 0 0-.414-.415q-.194-.205-.4-.401a12 12 0 0 0-.402-.404 12 12 0 0 0-.402-.405 14 14 0 0 0-.403-.404 14 14 0 0 0-.402-.404 14 14 0 0 0-.403-.404 14 14 0 0 0-.402-.405 14 14 0 0 0-.403-.404 12 12 0 0 0-.404-.404 11 11 0 0 0-.402-.404 11 11 0 0 0-.402-.405 12 12 0 0 0-.403-.404 12 12 0 0 0-.403-.404c-3.665-3.815-9.238-5.65-15.688-4.551-12.226 2.083-22.987 13.903-24.036 26.404-.515 6.134 1.404 11.294 4.938 14.707z"/><path fill="#000" d="M42.003 56.938a.32.32 0 0 1-.217-.088q-.22-.211-.412-.413a17 17 0 0 1-.402-.404 12 12 0 0 1-.317-.316l-.098-.101a12 12 0 0 1-.393-.395 10 10 0 0 1-.401-.403c-.131-.124-.26-.256-.386-.385-.13-.123-.266-.26-.418-.419a12 12 0 0 1-.402-.404 14 14 0 0 1-.406-.407 14 14 0 0 1-.405-.408 13 13 0 0 1-.403-.404 14 14 0 0 1-.402-.404c-.135-.128-.273-.27-.403-.404-.134-.128-.273-.27-.402-.404a13 13 0 0 1-.404-.406 12 12 0 0 1-.403-.405 14 14 0 0 1-.402-.404c-.136-.13-.275-.27-.403-.404a11 11 0 0 1-.394-.397q-.209-.2-.41-.408-.21-.203-.402-.405a14 14 0 0 1-.397-.4c-3.75-3.623-5.535-8.933-5.03-14.953 1.066-12.609 11.964-24.579 24.3-26.683 6.282-1.07 12.102.622 15.967 4.642q.18.172.402.405.176.165.396.398c.147.139.286.282.403.404.15.142.293.289.402.404q.217.207.409.409c.137.131.28.278.402.404.135.128.273.27.403.404.137.132.28.278.402.405.133.126.273.27.403.404.134.128.273.27.402.404q.184.175.404.406.181.173.403.404c.132.127.268.263.394.397q.2.189.414.415c.157.15.285.28.402.404.16.152.287.281.403.404q.214.205.4.403c.12.111.241.233.394.394q.214.206.413.415c.136.13.278.276.401.402.136.13.28.277.403.405.137.13.279.277.402.404a.313.313 0 0 1-.443.442q-.097-.095-.193-.185l-.003-.003-.075-.068q-.064-.06-.127-.114l-.012-.013a5 5 0 0 0-.17-.153l-.035-.03-.14-.12-.147-.121-.138-.113-.225-.178a6 6 0 0 0-.222-.165 9 9 0 0 0-.224-.164 7 7 0 0 0-.233-.162q-.12-.082-.237-.158l-.054-.036-.18-.115c-.087-.058-.167-.105-.245-.153l-.057-.035q-.091-.055-.184-.106l-.015-.01a5 5 0 0 0-.241-.137 6 6 0 0 0-.256-.139 4 4 0 0 0-.253-.129 11 11 0 0 0-.529-.256 8 8 0 0 0-.274-.123 6 6 0 0 0-.273-.116c-.1-.044-.19-.078-.28-.112a5 5 0 0 0-.279-.105c-2.953-1.094-6.22-1.345-9.717-.75-12.074 2.055-22.74 13.774-23.777 26.12-.264 3.132.103 6.051 1.092 8.676q.054.147.109.286.056.149.114.28.059.15.12.282.063.145.125.278c.042.09.082.18.128.265q.005.008.007.017.053.117.114.233l.013.025q.07.14.134.262l.027.051q.053.105.112.206l.026.047q.058.104.117.205c.046.08.086.15.128.22l.02.034q.072.121.149.239l.01.016q.067.114.144.229.081.125.158.237c.056.085.109.161.164.238q.082.115.162.223c.062.087.118.16.176.237l.12.153.053.067q.087.109.176.215c.064.08.122.149.183.219q.089.107.184.21.093.107.183.202l.006.006.014.016.18.192a.313.313 0 0 1-.222.53zm13.83-50.313q-1.734 0-3.537.306C40.22 8.988 29.556 20.707 28.518 33.053c-.49 5.833 1.231 10.966 4.846 14.458l.009.009c.122.126.25.256.393.395.131.137.259.265.403.404.138.145.266.273.402.403l.011.01q.18.193.387.39c.132.138.265.27.404.405q.19.2.402.404.193.203.403.405c.13.136.262.268.402.404q.2.207.401.403.2.207.403.404c.154.16.276.284.402.404q.198.207.403.404c.14.146.273.28.408.41.131.137.26.266.406.407q.15.158.312.317l-.108-.197-.026-.049a11 11 0 0 1-.137-.266l-.018-.033a6 6 0 0 1-.124-.256 8 8 0 0 1-.135-.28 6 6 0 0 1-.128-.285 7 7 0 0 1-.124-.292 5 5 0 0 1-.122-.3 7 7 0 0 1-.112-.295c-1.02-2.708-1.4-5.719-1.128-8.945 1.06-12.613 11.957-24.583 24.294-26.683 3.606-.614 6.98-.352 10.03.777.094.031.198.072.3.112.09.035.19.074.291.117q.136.055.283.12.135.058.282.127.135.059.28.13c.085.04.179.087.27.134.083.039.177.089.268.139.076.039.159.082.241.13a10 10 0 0 0-.332-.332l-.01-.01a10 10 0 0 0-.402-.403l-.012-.013q-.181-.192-.387-.389-.22-.23-.403-.404a13 13 0 0 0-.402-.404 14 14 0 0 0-.403-.404c-.152-.16-.276-.283-.402-.405a14 14 0 0 0-.402-.404c-.135-.137-.267-.275-.403-.404a14 14 0 0 0-.402-.404 12 12 0 0 0-.414-.414 10 10 0 0 0-.402-.404 10 10 0 0 0-.392-.393l-.01-.011c-.144-.15-.272-.278-.392-.394-.152-.159-.28-.287-.403-.404-2.992-3.112-7.2-4.774-11.885-4.774zm42.455 75.961a.31.31 0 0 1-.25-.127l-.148-.191-.059-.083-.098-.137a.313.313 0 0 1 .5-.373q.157.206.308.415a.311.311 0 0 1-.253.494z"/><path fill="#EBECEE" d="m4.312 109.339.337.456.337.455.337.455.337.455.674.91.337.456.337.456 1.01 1.366.336.454.335.456.336.454.335.455.337.456.336.456.335.454.335.456.674.911.336.455.335.455.674.912.337.456.337.455.674.912q-.001-.258.004-.515.001-.257.008-.517.005-.257.014-.518.007-.258.02-.52.01-.257.026-.518.011-.26.03-.52.016-.26.037-.519a28 28 0 0 1 .092-1.046q.023-.263.054-.523.029-.264.061-.526.028-.264.066-.526.034-.264.071-.526.036-.266.077-.531.04-.264.086-.529.042-.266.089-.53.045-.267.095-.533.05-.267.103-.533.053-.267.109-.534.054-.27.115-.534.058-.27.12-.535.062-.27.128-.537.064-.27.136-.539.066-.27.139-.538.07-.27.145-.54.075-.271.153-.542.076-.271.16-.542.081-.272.167-.546.084-.273.174-.545c6.193-19.148 23.309-35.143 43.453-38.698 12.868-2.27 24.501.972 32.84 8.031q.112.093.22.19a24 24 0 0 1 .431.376l.214.19q.107.096.21.192.107.097.211.195.107.098.21.198.104.097.207.198a24 24 0 0 1 .404.397l.201.203a23 23 0 0 1 .395.406l.195.203.192.204q.097.104.192.21l.19.21q.094.105.187.212.095.106.189.216l.185.215.181.214.183.217q.088.104.175.212l.176.218a13 13 0 0 1 .355.453l.185.239-.152-.212q-.165-.233-.337-.458l-.018-.023q-.18-.247-.36-.487l-.024-.033-.27-.365-.017-.022q-.158-.218-.32-.434l-.019-.023q-.157-.218-.318-.431l-.014-.02q-.16-.22-.323-.436l-.014-.02q-.16-.22-.323-.436-.001-.005-.008-.007-.18-.249-.362-.492-.15-.207-.304-.41l-.014-.02-.321-.435a32 32 0 0 0-.38-.515l-.023-.033q-.153-.21-.31-.416l-.296-.404-.018-.022a28 28 0 0 0-.32-.434l-.014-.02a28 28 0 0 0-.36-.487l-.296-.405q-.002-.005-.007-.008a42 42 0 0 0-.372-.502 23 23 0 0 0-.48-.642l-.15-.212q-.167-.231-.337-.457l-.02-.024q-.179-.246-.36-.487-.01-.017-.023-.032-.134-.185-.27-.366l-.017-.022q-.158-.218-.32-.433l-.019-.024q-.158-.217-.318-.43l-.014-.02q-.16-.222-.323-.436-.01-.015-.023-.03-.166-.232-.339-.457-.171-.235-.344-.469c-3.938-5.405-9.28-9.57-15.567-12.118-6.774-2.745-14.647-3.611-23.048-2.13q-.328.058-.653.12-.056.01-.113.023C24.465 60.242 4.312 84.215 4.312 109.34"/><path fill="#000" d="M14.078 122.854a.31.31 0 0 1-.252-.126l-.674-.91s-.007-.013-.012-.019l-.325-.437-.012-.019-.997-1.347s-.01-.012-.012-.019l-.315-.426-.01-.012-.329-.445-.008-.009-.674-.91-.012-.019-.318-.429-.007-.008-.329-.445-.008-.009-.329-.445-.008-.009-.336-.456-.015-.021-.316-.429-.006-.008-.33-.444-.007-.01-.33-.445s-.006-.006-.007-.011l-4.04-5.462a.3.3 0 0 1-.06-.186c0-12.215 4.714-24.564 13.277-34.773 8.55-10.197 19.966-17.105 32.145-19.451.024-.007.06-.013.095-.02l.017-.002q.33-.062.66-.12c8.167-1.441 16.196-.698 23.218 2.147 6.308 2.555 11.738 6.782 15.702 12.225q.174.23.347.468.165.218.332.45.014.016.026.034l.334.45a25 25 0 0 1 .33.447c.115.153.221.298.327.443l.014.018q.141.185.273.368l.024.031q.185.247.366.495l.016.02a24 24 0 0 1 .435.595l.058.081.148.194q.166.22.33.446.185.245.372.503l.008.01q.15.2.296.403a22 22 0 0 1 .364.49l.012.017a28 28 0 0 1 .332.452q.151.202.3.407.151.197.304.409l.022.03q.194.258.38.515l.004.004q.16.214.318.43l.02.03c.095.124.194.257.292.39l.012.018q.179.239.358.486l.009.012q.165.218.326.439l.01.014c.115.153.22.296.327.44l.01.014c.112.15.218.293.322.437l.016.02q.164.219.323.437l.008.008a20 20 0 0 1 .296.401q.182.241.356.482l.01.014s.013.018.016.02a24 24 0 0 1 .445.608l.05.07a.312.312 0 0 1-.501.372q-.09-.118-.183-.236l-.171-.222-.013-.015-.168-.211-.175-.217-.173-.21q-.09-.11-.181-.218-.09-.108-.18-.212l-.043-.051-.14-.161q-.094-.109-.188-.212c-.056-.066-.11-.125-.163-.186l-.025-.027-.188-.206-.139-.153-.243-.26a8 8 0 0 0-.19-.199 8 8 0 0 0-.198-.206l-.017-.018q-.088-.09-.177-.178l-.4-.398q-.09-.09-.183-.178l-.019-.017-.203-.194c-.073-.07-.138-.134-.209-.198l-.207-.194-.21-.192-.211-.189-.214-.188a7 7 0 0 0-.212-.185c-.072-.064-.14-.121-.21-.18l-.012-.01c-4.195-3.55-9.105-6.057-14.597-7.45-5.687-1.442-11.74-1.614-17.988-.513-19.514 3.443-36.88 18.91-43.211 38.486q-.09.27-.172.54a21 21 0 0 0-.165.542q-.085.274-.161.54-.079.271-.153.54-.075.268-.143.535-.074.268-.138.534c-.048.183-.092.359-.134.537q-.066.27-.128.535l-.118.531c-.043.181-.078.356-.116.532q-.057.269-.109.531l-.069.353-.034.178q-.048.26-.094.524c-.03.178-.06.351-.088.528a37 37 0 0 0-.161 1.053q-.038.264-.072.525-.036.26-.065.521-.035.265-.061.524-.03.261-.053.519-.028.266-.05.524a27 27 0 0 0-.077 1.032 21 21 0 0 0-.03.518q-.018.262-.026.513-.014.264-.02.517-.01.261-.014.515-.008.261-.008.511a28 28 0 0 0-.005.515.31.31 0 0 1-.312.312zm-.41-1.391.107.145.003-.109c.003-.168.006-.345.014-.52q.007-.254.02-.521.009-.256.027-.524.013-.257.031-.523.015-.256.036-.52.018-.264.044-.527.021-.265.05-.53.023-.26.054-.526.029-.265.063-.53.027-.262.065-.528.034-.263.073-.527.036-.266.078-.533.04-.266.086-.533.042-.266.09-.533.046-.265.096-.533l.034-.18q.033-.18.069-.359.053-.269.11-.538.055-.27.117-.54l.12-.536q.06-.272.129-.541.065-.272.135-.544.066-.267.14-.541a38 38 0 0 1 .462-1.634q.08-.271.167-.548.083-.275.175-.55c6.4-19.79 23.961-35.425 43.697-38.908 6.335-1.117 12.475-.94 18.25.523 5.583 1.416 10.578 3.965 14.847 7.578l.012.011q.108.09.214.183a17 17 0 0 1 .433.379l.214.19q.108.097.212.194l.113.103-.26-.348-.015-.022-.013-.016a20 20 0 0 0-.305-.41c-.103-.142-.202-.275-.3-.408l-.018-.025a28 28 0 0 0-.317-.429q-.005-.004-.006-.01-.008-.008-.014-.02a27 27 0 0 0-.353-.474c-.101-.142-.2-.273-.3-.406l-.009-.012v-.002q-.181-.249-.367-.495a41 41 0 0 0-.475-.636l-.067-.094-.083-.115-.01-.014q-.164-.226-.33-.447l-.017-.022a39 39 0 0 0-.382-.518c-.007-.006-.007-.008-.013-.016q-.132-.182-.267-.36l-.01-.013-.01-.012a28 28 0 0 0-.317-.43l-.012-.016a33 33 0 0 0-.348-.472q-.155-.212-.314-.423l.236-.207-.248.19s-.01-.01-.014-.017a24 24 0 0 0-.334-.453q-.174-.24-.345-.468c-3.898-5.352-9.235-9.505-15.436-12.017-6.912-2.801-14.823-3.532-22.875-2.111q-.327.057-.65.118l-.016.003-.085.017c-12.05 2.323-23.336 9.156-31.795 19.242C9.31 85.034 4.65 97.202 4.624 109.236l3.972 5.371.008.011.329.444.007.01.331.446s.005.005.006.008l.336.454.014.019.317.428.007.009.33.445.007.009.331.447.006.007.336.455.012.018.655.885.008.01.328.443.01.012.335.455.012.018.997 1.347.012.019.325.437s.01.013.012.019zM96.542 79.39l.003.005zm-.328-.44.002.003zm-6.07-8.21.005.005q-.001-.003-.004-.005"/><path fill="#000" d="M91.892 73.936a.31.31 0 0 1-.25-.127l-.148-.191-.067-.094q-.044-.063-.09-.125a.313.313 0 0 1 .5-.373q.157.206.308.415a.311.311 0 0 1-.253.495"/><path fill="#fff" d="m14.076 122.542 91.866-16.208c0-9.394-2.817-17.635-7.654-24.061q-.074-.1-.152-.198-.09-.12-.184-.24a22 22 0 0 0-.532-.67l-.174-.213-.183-.217-.181-.213-.186-.216-.188-.215q-.093-.108-.187-.212l-.19-.21q-.096-.106-.193-.21l-.192-.205q-.097-.103-.195-.203-.097-.104-.198-.206l-.196-.2-.201-.202-.2-.199-.205-.198q-.102-.101-.207-.198c-.07-.067-.137-.133-.21-.198q-.104-.099-.21-.195l-.21-.192-.214-.19-.215-.191q-.106-.094-.216-.186-.108-.095-.22-.189c-8.338-7.06-19.97-10.301-32.84-8.032-20.144 3.554-37.262 19.551-43.454 38.699q-.09.271-.173.545-.086.272-.167.546-.084.271-.16.542-.081.27-.153.541-.075.27-.145.54-.074.27-.14.539-.069.269-.135.538-.066.27-.128.537l-.12.536q-.06.266-.116.533t-.109.534l-.103.534q-.049.264-.095.532-.046.265-.089.531-.044.264-.085.529-.041.264-.077.531-.038.26-.072.526-.035.26-.065.526-.034.26-.061.526-.031.26-.055.522a30 30 0 0 0-.092 1.046 57 57 0 0 0-.112 2.078q-.01.257-.014.518-.008.257-.008.516a29 29 0 0 0-.005.516z"/><path fill="#000" d="M14.076 122.854a.31.31 0 0 1-.312-.312q-.001-.26.005-.52 0-.256.01-.521c.003-.169.006-.345.014-.52.004-.168.01-.345.02-.521q.009-.256.026-.525.012-.257.031-.522.015-.257.036-.52.019-.264.044-.528.023-.264.05-.529.024-.26.055-.526.027-.265.062-.531.028-.261.065-.527.033-.263.074-.528.035-.264.078-.532.04-.267.086-.534.041-.264.09-.532.046-.265.095-.534l.035-.179q.032-.18.068-.359.053-.27.111-.539.055-.269.117-.54.057-.263.119-.535t.129-.542q.064-.271.136-.543.065-.267.14-.541a38 38 0 0 1 .462-1.635c.051-.179.11-.363.167-.547q.082-.275.175-.55c6.4-19.79 23.96-35.426 43.696-38.908 6.335-1.117 12.476-.941 18.25.523 5.584 1.416 10.579 3.965 14.847 7.578l.012.01.214.183q.105.089.215.186.108.092.219.194.105.09.213.19l.213.194.212.196q.105.096.21.2c.067.062.14.131.21.2l.015.015.189.183.404.403q.09.09.18.184l.018.019.203.21.195.203.246.264q.073.078.144.158l.189.206.024.028q.086.094.167.189l.19.213.141.163.045.051.184.217.185.22.171.208.184.228q.084.102.17.212l.014.017q.091.115.175.227l.186.238q.077.099.152.202c5.049 6.705 7.718 15.09 7.718 24.247a.31.31 0 0 1-.258.307L14.14 122.848a.3.3 0 0 1-.054.005zm53.973-54.78a46 46 0 0 0-7.986.715c-19.514 3.443-36.88 18.91-43.211 38.487q-.09.269-.172.54-.088.273-.165.541-.084.274-.161.54-.079.272-.153.54-.075.27-.143.536-.074.268-.138.534-.071.272-.134.536l-.128.536-.118.53c-.042.182-.078.356-.116.533q-.057.267-.109.53l-.069.353-.034.178q-.048.26-.094.525l-.088.527a36 36 0 0 0-.161 1.054q-.038.263-.072.524-.036.261-.065.521c-.024.178-.042.35-.061.525q-.03.26-.053.518a35 35 0 0 0-.092 1.041q-.02.258-.036.515-.02.263-.031.518-.017.261-.025.514-.014.263-.02.516-.011.261-.015.516-.008.26-.007.51 0 .072-.002.142l91.239-16.097c-.05-8.918-2.672-17.078-7.593-23.612l-.146-.193-.184-.24-.172-.22-.012-.016-.169-.211a9 9 0 0 0-.175-.217l-.173-.21-.18-.218q-.09-.108-.18-.212l-.044-.051-.14-.161c-.063-.074-.125-.142-.187-.212q-.084-.098-.164-.186l-.025-.027-.187-.206-.14-.153-.242-.26a8 8 0 0 0-.19-.199 9 9 0 0 0-.199-.206l-.017-.018-.176-.178-.4-.398q-.091-.09-.184-.178l-.017-.017-.203-.194c-.073-.07-.139-.134-.209-.198l-.207-.194-.21-.192-.212-.189-.213-.188a7 7 0 0 0-.212-.185c-.072-.064-.14-.121-.21-.18l-.012-.01c-4.195-3.55-9.105-6.057-14.597-7.45a40.6 40.6 0 0 0-10.002-1.228z"/><path fill="#fff" d="M38.573 51.128q.054.148.112.292.056.149.119.29.058.145.123.286.06.14.127.28.062.137.132.274.062.136.134.273.066.135.14.269.069.131.143.262.071.13.148.257.071.128.15.255.074.126.157.251.073.125.158.247c.051.08.106.164.162.242q.081.121.167.24.085.12.17.234.085.117.171.231l.125.16.052.065q.089.114.184.225.09.112.184.22.09.108.187.214a6 6 0 0 0 .19.212q.1.108.2.21c3.664 3.818 9.24 5.652 15.692 4.555 3.22-.548 6.338-1.773 9.206-3.507 8.015-4.851 14.057-13.688 14.83-22.896.515-6.137-1.405-11.297-4.942-14.712l-.198-.189q0-.002-.003-.003c-.072-.064-.14-.13-.212-.19-.07-.067-.144-.13-.214-.19q-.11-.097-.218-.186l-.219-.177a17 17 0 0 0-.683-.517 8 8 0 0 0-.237-.165q-.12-.082-.24-.16a8 8 0 0 0-.244-.158q-.121-.079-.245-.153-.126-.077-.252-.149-.128-.078-.256-.146a7 7 0 0 0-.26-.142 5 5 0 0 0-.263-.136 9 9 0 0 0-.265-.133 5 5 0 0 0-.273-.128 7 7 0 0 0-.276-.125 7 7 0 0 0-.28-.118 6 6 0 0 0-.285-.116 5 5 0 0 0-.288-.11c-2.89-1.07-6.24-1.379-9.87-.762-12.226 2.082-22.987 13.902-24.037 26.402-.273 3.249.138 6.227 1.111 8.813z"/><path fill="#000" d="M54.104 61.8c-4.858 0-9.222-1.728-12.325-4.959a8 8 0 0 1-.189-.2l-.01-.01s-.006-.005-.007-.008a6 6 0 0 1-.198-.222 7 7 0 0 1-.187-.214 7 7 0 0 1-.192-.228 6 6 0 0 1-.187-.228l-.05-.064q-.064-.08-.127-.162l-.178-.239-.173-.237a6 6 0 0 1-.17-.247 5 5 0 0 1-.165-.25 4 4 0 0 1-.158-.247 6 6 0 0 1-.16-.258l-.02-.033-.135-.232a7 7 0 0 1-.12-.21l-.025-.045-.12-.218-.027-.049a11 11 0 0 1-.137-.267l-.017-.032a7 7 0 0 1-.125-.256 8 8 0 0 1-.134-.28 6 6 0 0 1-.128-.285 7 7 0 0 1-.125-.292 5 5 0 0 1-.121-.3c-.038-.092-.075-.193-.113-.293-1.02-2.711-1.399-5.722-1.13-8.947 1.06-12.613 11.958-24.583 24.295-26.684 3.606-.613 6.98-.35 10.03.778.094.03.198.071.3.112.09.034.19.073.291.117q.136.055.283.12c.089.038.186.081.282.127q.136.058.28.13c.085.04.179.087.27.134.084.039.177.088.268.138.084.044.176.092.266.146q.125.066.258.146.097.055.196.114l.058.035q.13.078.258.159c.057.034.123.078.19.122l.053.034.246.164q.122.082.244.17.117.082.234.17a15 15 0 0 1 .463.358l.147.118.154.128.148.127.033.028q.094.081.186.165l.137.122.069.062.024.024c.06.054.127.12.192.184 3.754 3.624 5.541 8.939 5.036 14.962-.757 9.006-6.636 18.088-14.98 23.136-2.994 1.81-6.128 3.004-9.315 3.547a21.7 21.7 0 0 1-3.644.314zm-12.072-5.6.014.016.18.192c3.718 3.872 9.337 5.499 15.418 4.464 3.109-.53 6.168-1.695 9.096-3.467 8.18-4.95 13.942-13.841 14.681-22.655.49-5.833-1.232-10.97-4.848-14.463l-.195-.185-.003-.003-.075-.07-.14-.126a5 5 0 0 0-.17-.152l-.033-.03-.14-.12-.147-.122-.14-.113-.224-.177a5 5 0 0 0-.221-.166 9 9 0 0 0-.225-.164 7 7 0 0 0-.233-.162l-.237-.158-.054-.036q-.09-.059-.18-.115c-.087-.058-.167-.105-.245-.153l-.057-.034q-.091-.056-.184-.107l-.014-.009a5 5 0 0 0-.242-.137 6 6 0 0 0-.256-.14 4 4 0 0 0-.253-.129 11 11 0 0 0-.529-.256 8 8 0 0 0-.274-.123q-.141-.064-.273-.115c-.1-.044-.19-.078-.28-.113a5 5 0 0 0-.279-.104c-2.953-1.095-6.22-1.346-9.717-.751-12.074 2.055-22.74 13.774-23.777 26.12-.264 3.133.103 6.051 1.092 8.677v.003q.051.142.107.282.056.149.114.281.058.147.12.281.063.145.125.278.062.136.128.265l.008.017q.052.117.114.233l.012.025c.049.095.09.18.135.262l.026.052q.054.102.112.206l.027.047q.057.103.117.204c.045.081.086.15.128.22l.02.035q.072.12.148.238l.01.016q.067.114.145.23.08.125.157.237c.056.084.11.16.164.237q.083.116.162.223c.063.087.119.16.177.237l.12.153.053.067q.086.11.176.216c.064.08.122.148.183.218q.089.106.184.21.092.108.182.202l.006.007z"/><path fill="#FF535E" d="M71.358 92.61c.053.833.157 1.985.387 3.34.346 2.041 1.135 6.43 4.066 11.084 2.947 4.677 6.556 7.203 8.762 8.712a34.8 34.8 0 0 0 10.625 4.879 26.3 26.3 0 0 1-6.173-4.733c-2.99-3.101-4.654-6.379-5.534-8.536-1.555-3.814-1.897-7.191-2.098-9.31a39 39 0 0 1-.161-4.275V79.976l-9.777-4.696z"/><path fill="#000" d="M95.198 120.969a.342.342 0 0 0 .166-.642 26 26 0 0 1-6.092-4.672c-2.902-3.01-4.574-6.245-5.464-8.427-1.565-3.842-1.884-7.204-2.074-9.213a38 38 0 0 1-.16-4.238V79.976a.34.34 0 0 0-.193-.309l-9.776-4.695a.34.34 0 0 0-.331.019.34.34 0 0 0-.162.287l-.097 17.33v.024c.072 1.135.204 2.27.39 3.376.326 1.915 1.086 6.401 4.115 11.209 3.051 4.842 6.828 7.425 8.858 8.812a35 35 0 0 0 10.73 4.927q.044.012.088.012zM80.89 80.192V93.77c-.026 1.433.03 2.885.163 4.308.182 1.913.518 5.472 2.122 9.408.912 2.238 2.626 5.554 5.604 8.643a26.4 26.4 0 0 0 3.98 3.381 34.3 34.3 0 0 1-7.991-4.048c-1.989-1.359-5.69-3.891-8.666-8.612-2.955-4.692-3.701-9.085-4.018-10.96a32 32 0 0 1-.384-3.29l.094-16.776z"/><path fill="#FF535E" d="m71.452 75.28 9.777 4.696c3.09-.25 5.575-.926 7.31-1.524 4.201-1.452 7.026-3.498 8.688-4.72a37 37 0 0 0 5.252-4.695l-9.972-4.696a33.8 33.8 0 0 1-8.422 6.777 33.9 33.9 0 0 1-12.633 4.162"/><path fill="#000" d="M81.23 80.319h.027a30.2 30.2 0 0 0 7.394-1.542c4.337-1.498 7.228-3.625 8.78-4.767a37.6 37.6 0 0 0 5.3-4.738.342.342 0 0 0-.107-.544l-9.972-4.695a.34.34 0 0 0-.4.08 33.4 33.4 0 0 1-8.337 6.708 33.3 33.3 0 0 1-12.504 4.12.342.342 0 0 0-.107.65l9.777 4.695a.35.35 0 0 0 .15.034zm20.679-11.172a37 37 0 0 1-4.884 4.31c-1.522 1.12-4.357 3.207-8.597 4.67a29.5 29.5 0 0 1-7.133 1.499l-8.667-4.162A34.08 34.08 0 0 0 92.593 64.76z"/><path fill="#FF7E88" d="M81.394 98.046c.2 2.119.543 5.496 2.098 9.311.88 2.156 2.544 5.434 5.534 8.535a26.3 26.3 0 0 0 6.176 4.735 28.5 28.5 0 0 0 7.312 2.816c3.629-1.995 9.401-5.82 14.029-12.416 3.117-4.44 4.581-8.52 4.986-9.705.363-1.057 1.32-4.011 1.815-7.987a41 41 0 0 0 .314-4.889l-.072-14.811a25 25 0 0 1-5.615.703c-4.332.046-7.587-1.05-8.857-1.526a24.1 24.1 0 0 1-6.631-3.775 37 37 0 0 1-5.253 4.695c-1.66 1.223-4.486 3.268-8.688 4.72a29.7 29.7 0 0 1-7.31 1.524v13.795a39 39 0 0 0 .162 4.275"/><path fill="#000" d="M102.513 123.786a.33.33 0 0 0 .165-.042c5.708-3.139 10.601-7.47 14.144-12.52 2.856-4.068 4.377-7.88 5.03-9.79.485-1.411 1.368-4.334 1.831-8.056a41 41 0 0 0 .317-4.93l-.072-14.815a.342.342 0 0 0-.423-.333 24.7 24.7 0 0 1-5.538.693 24.3 24.3 0 0 1-8.734-1.503 23.7 23.7 0 0 1-6.536-3.722.343.343 0 0 0-.467.034 37 37 0 0 1-5.204 4.653c-1.523 1.121-4.358 3.207-8.597 4.671a29.5 29.5 0 0 1-7.226 1.507.34.34 0 0 0-.316.341V93.77a39 39 0 0 0 .163 4.308c.182 1.913.518 5.472 2.123 9.408.912 2.239 2.626 5.555 5.604 8.644a26.7 26.7 0 0 0 6.231 4.783l.026.015a29 29 0 0 0 7.399 2.849.3.3 0 0 0 .078.009zm20.733-49.719.07 14.381a41 41 0 0 1-.31 4.845c-.456 3.66-1.324 6.531-1.8 7.918-.641 1.877-2.135 5.621-4.943 9.619-3.461 4.932-8.23 9.166-13.798 12.248a28.2 28.2 0 0 1-7.073-2.737l-.007-.004-.02-.012a26 26 0 0 1-6.093-4.671c-2.902-3.01-4.574-6.245-5.463-8.428-1.566-3.841-1.884-7.203-2.075-9.212a38 38 0 0 1-.16-4.238V80.29a30 30 0 0 0 7.08-1.514c4.336-1.498 7.227-3.626 8.778-4.767a37.6 37.6 0 0 0 5.085-4.507 24.4 24.4 0 0 0 6.474 3.63c1.943.73 5.08 1.586 8.982 1.549 1.77-.02 3.541-.227 5.269-.614z"/><path fill="#FF535E" d="M102.482 69.037a24.1 24.1 0 0 0 6.631 3.775c1.27.476 4.526 1.572 8.858 1.526a25 25 0 0 0 5.614-.703l-9.68-4.792c-2.395.48-5.337.79-8.664.533a31 31 0 0 1-2.759-.339"/><path fill="#000" d="M117.703 74.682h.272c1.915-.02 3.83-.26 5.692-.713a.342.342 0 0 0 .072-.64l-9.681-4.79a.34.34 0 0 0-.219-.03 31.4 31.4 0 0 1-8.57.528 31 31 0 0 1-2.727-.336.344.344 0 0 0-.371.197.344.344 0 0 0 .098.408 24.4 24.4 0 0 0 6.725 3.828c1.898.712 4.932 1.55 8.709 1.55zm4.86-1.17a25 25 0 0 1-4.595.483 24.3 24.3 0 0 1-8.734-1.504 23.6 23.6 0 0 1-5.48-2.92q.734.09 1.46.148c2.868.221 5.776.048 8.644-.516q4.35 2.156 8.705 4.308"/><path fill="#FF444F" d="m99.71 101.791-4.22-3.621a2.802 2.802 0 1 0-3.635 4.265l8.072 6.831a.44.44 0 0 0 .616-.048l15.723-18.221a2.789 2.789 0 1 0-4.233-3.635z"/><path stroke="#0E0E0E" stroke-width=".6" d="m99.71 101.791-4.22-3.621a2.802 2.802 0 1 0-3.635 4.265l8.072 6.831a.44.44 0 0 0 .616-.048l15.723-18.221a2.789 2.789 0 1 0-4.233-3.635z"/></svg>