<svg width="115" height="123" fill="none" xmlns="http://www.w3.org/2000/svg"><path d="M85.84 117.37H13.65V.49h72.19a7.81 7.81 0 0 1 7.81 7.81v101.25a7.83 7.83 0 0 1-7.81 7.82Z" fill="#C6E4E4"/><path d="M53.65 19.43c-10.907 0-19.75 8.843-19.75 19.75 0 10.908 8.843 19.75 19.75 19.75 10.908 0 19.75-8.842 19.75-19.75a19.75 19.75 0 0 0-19.75-19.75Zm-18 20.28h7.83c.01 3.184.461 6.35 1.34 9.41h-6.2a18 18 0 0 1-3-9.41h.03Zm18.84-12.78v-5.72c2.09.45 4 2.58 5.36 5.72h-5.36Zm6 1.68A32.248 32.248 0 0 1 62.16 38h-7.67v-9.39h6Zm-7.71-7.4v5.72h-5.33c1.38-3.14 3.27-5.27 5.36-5.72h-.03Zm0 7.4V38h-7.64a32.069 32.069 0 0 1 1.64-9.41l6 .02ZM43.45 38h-7.8A18 18 0 0 1 39 28.61h6A33.62 33.62 0 0 0 43.45 38Zm1.67 1.69h7.69v9.41h-6.24a33.211 33.211 0 0 1-1.45-9.39v-.02Zm7.69 11.11v6.35c-2.23-.49-4.23-2.87-5.63-6.35h5.63Zm1.68 6.35V50.8h5.63c-1.4 3.48-3.4 5.86-5.63 6.35Zm0-8v-9.44h7.69a33.002 33.002 0 0 1-1.45 9.41l-6.24.03Zm9.37-9.41h7.83a17.92 17.92 0 0 1-3 9.41h-6.2a34.701 34.701 0 0 0 1.37-9.44v.03Zm0-1.69a34.531 34.531 0 0 0-1.52-9.41h5.94A18 18 0 0 1 71.66 38l-7.8.05Zm3-11.09h-5.14a16.29 16.29 0 0 0-3.13-5.11 18 18 0 0 1 8.29 5.08l-.02.03Zm-18.15-5.14a16.288 16.288 0 0 0-3.13 5.11h-5.16a18 18 0 0 1 8.29-5.11Zm-8.87 29h5.5a16.73 16.73 0 0 0 3.37 5.74 18.06 18.06 0 0 1-8.87-5.76v.02Zm18.75 5.74A16.821 16.821 0 0 0 62 50.8h5.5a18.07 18.07 0 0 1-8.91 5.74v.02ZM80.3 75.41H27.55a4.17 4.17 0 0 0-4.17 4.17v2.14a4.17 4.17 0 0 0 4.17 4.17H80.3a4.17 4.17 0 0 0 4.17-4.17v-2.14a4.17 4.17 0 0 0-4.17-4.17Z" fill="#fff"/><path d="M96 47.98H6.06a5.5 5.5 0 0 0-5.5 5.5V104a5.5 5.5 0 0 0 5.5 5.5H96a5.5 5.5 0 0 0 5.501-5.5V53.48a5.5 5.5 0 0 0-5.5-5.5Z" fill="#fff"/><path d="M96 48.48a5 5 0 0 1 5.001 5V104a5 5 0 0 1-5 5H6.06a5 5 0 0 1-5-5V53.48a5 5 0 0 1 5-5H96Zm0-1H6.06a6 6 0 0 0-6 6V104a6 6 0 0 0 6 6H96a6 6 0 0 0 6.001-6V53.48a6 6 0 0 0-6-6Z" fill="#F2F2F2"/><path d="M38.911 58.24h-27.04a3 3 0 0 0-3 3v35.17a3 3 0 0 0 3 3h27.04a3 3 0 0 0 3-3V61.24a3 3 0 0 0-3-3Z" fill="#F2F2F2"/><path d="M82.751 67.37h-30.17a1.55 1.55 0 0 0-1.55 1.55v1.95c0 .856.694 1.55 1.55 1.55h30.17a1.55 1.55 0 0 0 1.55-1.55v-1.95a1.55 1.55 0 0 0-1.55-1.55ZM82.951 78.74h-30.57a1.35 1.35 0 0 0-1.35 1.35v1.68c0 .746.605 1.35 1.35 1.35h30.57a1.35 1.35 0 0 0 1.35-1.35v-1.68a1.35 1.35 0 0 0-1.35-1.35ZM82.951 85.56h-30.57a1.35 1.35 0 0 0-1.35 1.35v1.68c0 .746.605 1.35 1.35 1.35h30.57a1.35 1.35 0 0 0 1.35-1.35v-1.68a1.35 1.35 0 0 0-1.35-1.35Z" fill="#E3E4E3"/><path d="M25.45 78.79a6.77 6.77 0 1 0 0-13.54 6.77 6.77 0 0 0 0 13.54ZM20 79.07S21.48 81 25.45 81s5.27-1.93 5.27-1.93 6.06 2.33 6.06 8.7c0 0-3.14 4.63-11.14 4.63S14 87.77 14 87.77s.19-6.86 6-8.7Z" fill="#84ABAE"/><path d="M93.55 123c11.846 0 21.45-9.603 21.45-21.45 0-11.846-9.604-21.45-21.45-21.45-11.847 0-21.45 9.604-21.45 21.45 0 11.847 9.603 21.45 21.45 21.45Z" fill="#FF6444"/><path d="m93.55 86.62-.01 14.93h13.949" stroke="#fff" stroke-width="2" stroke-linecap="round" stroke-linejoin="round"/></svg>