<svg width="128" height="128" fill="none" xmlns="http://www.w3.org/2000/svg"><path fill="#fff" d="M0 0h128v128H0z"/><g clip-path="url(#a)"><path d="M85.69 29.914h-9.296l4.87-16.822H23.936c-5.977 0-10.846 4.87-10.846 10.846v61.755c0 3.762 3.099 6.861 6.861 6.861h65.74c3.763 0 6.861-3.099 6.861-6.861V36.776c0-3.763-3.099-6.862-6.861-6.862ZM23.937 17.74h51.13l-1.107 3.763H23.714a2.456 2.456 0 0 0-2.434 2.435 2.456 2.456 0 0 0 2.434 2.434h49.139l-1.107 3.763H25.928c-5.091 0-8.19-2.434-8.19-5.976 0-3.763 2.656-6.419 6.198-6.419Z" fill="#85ACB0"/><path d="M39.873 56.916H26.371v5.09h13.502v-5.09Zm20.805 0H47.176v5.09h13.502v-5.09Zm18.594 0H65.769v5.09h13.502v-5.09Zm-33.201 6.865h-5.09v5.091h5.09v-5.09Z" fill="#fff"/><path d="M88.378 114.941c14.669 0 26.561-11.892 26.561-26.561 0-14.67-11.892-26.562-26.561-26.562-14.67 0-26.562 11.892-26.562 26.562 0 14.669 11.892 26.561 26.562 26.561Z" fill="#FF444F" style="mix-blend-mode:multiply"/><path d="m84.615 99.005-9.517-9.518 3.984-4.205 5.533 5.533 13.06-13.06 3.984 4.206-17.044 17.044Z" fill="#fff"/></g><defs><clipPath id="a"><path fill="#fff" d="M13.09 13.092h101.818V114.91H13.09z"/></clipPath></defs></svg>