<svg xmlns="http://www.w3.org/2000/svg" width="16" height="16" viewBox="0 0 16 16" fill="none"><path d="M0 6.222A6.22 6.22 0 0 1 6.222 0h3.556A6.22 6.22 0 0 1 16 6.222v3.556A6.22 6.22 0 0 1 9.778 16H6.222A6.22 6.22 0 0 1 0 9.778z" fill="#FF444F"/><path d="M10.037 3.315 9.521 6.24h-1.79c-1.671 0-3.264 1.353-3.56 3.024l-.124.711C3.753 11.646 4.868 13 6.539 13h1.493c1.218 0 2.378-.986 2.592-2.204L12 3zm-1.27 7.206c-.066.376-.405.683-.781.683h-.908c-.75 0-1.253-.61-1.121-1.362l.078-.444c.133-.75.85-1.362 1.6-1.362h1.57z" fill="#fff"/></svg>