<svg xmlns="http://www.w3.org/2000/svg" width="20" height="20" fill="none"><path fill="var(--fill-color1)" fill-rule="evenodd" d="M2.5 7A1.5 1.5 0 0 0 1 8.5v7A1.5 1.5 0 0 0 2.5 17h11a1.5 1.5 0 0 0 1.5-1.5v-7A1.5 1.5 0 0 0 13.5 7h-11ZM0 8.5A2.5 2.5 0 0 1 2.5 6h11A2.5 2.5 0 0 1 16 8.5v7a2.5 2.5 0 0 1-2.5 2.5h-11A2.5 2.5 0 0 1 0 15.5v-7Z" clip-rule="evenodd"/><path fill="var(--fill-color1)" fill-rule="evenodd" d="M2.5 9a.5.5 0 0 1 .5.5v5a.5.5 0 0 1-1 0v-5a.5.5 0 0 1 .5-.5Zm2 0a.5.5 0 0 0-.5.5v5a.5.5 0 0 0 .5.5l2.043-.001.087-.006a2.622 2.622 0 0 0 1.135-.382C8.421 14.201 9 13.41 9 12c0-1.41-.579-2.201-1.235-2.611A2.621 2.621 0 0 0 6.515 9H4.5Zm2.002 5H5v-4h1.502l.04.003a1.62 1.62 0 0 1 .694.234C7.579 10.451 8 10.91 8 12c0 1.09-.421 1.549-.765 1.764a1.62 1.62 0 0 1-.733.236Zm5.488-4.402a.5.5 0 0 0-.98-.196l-.22 1.098h-.29a.5.5 0 1 0 0 1h.09l-.2 1H10a.5.5 0 1 0 0 1h.19l-.18.902a.5.5 0 0 0 .98.196l.22-1.098h.98l-.18.902a.5.5 0 0 0 .98.196l.22-1.098h.29a.5.5 0 0 0 0-1h-.09l.2-1H14a.5.5 0 0 0 0-1h-.19l.18-.902a.5.5 0 0 0-.98-.196l-.22 1.098h-.98l.18-.902Zm-.38 1.902h.98l-.2 1h-.98l.2-1Z" clip-rule="evenodd"/><circle cx="16" cy="4" r="4" fill="#FFAD3A"/><path fill="#fff" fill-rule="evenodd" d="M16 6.25a2.25 2.25 0 1 0 0-4.5 2.25 2.25 0 0 0 0 4.5ZM16 7a3 3 0 1 0 0-6 3 3 0 0 0 0 6Z" clip-rule="evenodd"/><path fill="#fff" fill-rule="evenodd" d="M16 2.5c.207 0 .375.168.375.375v.75h.75a.375.375 0 0 1 0 .75H16A.375.375 0 0 1 15.625 4V2.875c0-.207.168-.375.375-.375Z" clip-rule="evenodd"/></svg>