<svg xmlns="http://www.w3.org/2000/svg" width="16" height="16"><path fill="var(--fill-color1)" d="M10.5 1A1.5 1.5 0 0 1 12 2.5V3h2.5a.5.5 0 0 1 0 1H14v9.5a1.5 1.5 0 0 1-1.5 1.5h-9A1.5 1.5 0 0 1 2 13.5V4h-.5a.5.5 0 0 1 0-1H4v-.5A1.5 1.5 0 0 1 5.5 1zM13 4H3v9.5a.5.5 0 0 0 .5.5h9a.5.5 0 0 0 .5-.5V4zM8 6a.5.5 0 0 1 .5.5v5a.5.5 0 0 1-1 0v-5A.5.5 0 0 1 8 6zm2.5 0a.5.5 0 0 1 .5.5v5a.5.5 0 0 1-1 0v-5a.5.5 0 0 1 .5-.5zm-5 0a.5.5 0 0 1 .5.5v5a.5.5 0 0 1-1 0v-5a.5.5 0 0 1 .5-.5zm5-4h-5a.5.5 0 0 0-.5.5V3h6v-.5a.5.5 0 0 0-.5-.5z"/></svg>