<svg width="16" height="16" viewBox="0 0 16 16" fill="var(--fill-color1)" xmlns="http://www.w3.org/2000/svg">
<path fill-rule="evenodd" clip-rule="evenodd" d="M0.833313 4C0.833313 2.98748 1.65413 2.16667 2.66665 2.16667H13.3333C14.3458 2.16667 15.1666 2.98748 15.1666 4V10.6667C15.1666 11.6792 14.3458 12.5 13.3333 12.5H9.47565L9.97565 13.5H11.3333C11.6094 13.5 11.8333 13.7239 11.8333 14C11.8333 14.2761 11.6094 14.5 11.3333 14.5H4.66665C4.39051 14.5 4.16665 14.2761 4.16665 14C4.16665 13.7239 4.39051 13.5 4.66665 13.5H6.02429L6.52429 12.5H2.66665C1.65413 12.5 0.833313 11.6792 0.833313 10.6667V4ZM13.3333 11.5H2.66665C2.20641 11.5 1.83331 11.1269 1.83331 10.6667V4C1.83331 3.53976 2.20641 3.16667 2.66665 3.16667H13.3333C13.7936 3.16667 14.1666 3.53976 14.1666 4V10.6667C14.1666 11.1269 13.7936 11.5 13.3333 11.5Z" fill="var(--fill-color1)"/>
</svg>
