<svg xmlns="http://www.w3.org/2000/svg" width="128" height="128"><path fill="none" d="M0 0h128v128H0z"/><path fill="#84abae" d="M123 109.73H5V52L55.49 7.82A7.57 7.57 0 0157 6.75a14.93 14.93 0 0114 0 7.57 7.57 0 011.5 1.07L123 52z"/><path fill="#fff" d="M23.15 103.85a9.51 9.51 0 01-9.5-9.48L13.52 23A9.51 9.51 0 0123 13.5h65.31l26.34 26.12v54.69a9.6 9.6 0 01-9.63 9.54z"/><path fill="#f2f2f2" d="M88.11 14l26 25.82v54.49a9.09 9.09 0 01-9.13 9H23.15a9 9 0 01-9-9L14 23a9 9 0 019-9h65.11m.41-1H23a10 10 0 00-10 10l.13 71.35a10 10 0 0010 10H105a10.09 10.09 0 0010.13-10V39.41L88.52 13z"/><path fill="#e3e4e3" d="M98.51 39.5h16.63L88.51 13.09V29.5a10 10 0 0010 10z"/><path fill="#bbccce" d="M76.81 76.44H63.66c-15.83 0-25.09-10.34-25.09-25.35s9.63-25.72 25.09-25.72c14.4 0 24 9 24 23C87.7 58.17 83.13 64 76 64c-4.5 0-7.57-2.34-7.82-5.78h-.31a6.82 6.82 0 01-7.2 5.66c-5.51 0-9.64-4.37-9.64-12.74s4.13-12.74 9.64-12.74a6.42 6.42 0 016.45 4.8h.31v-4.29h7v16.55c0 2 1 3.08 2.75 3.08 2.82 0 4.76-3 4.76-9.23v-1.73c0-10.52-7.58-16.85-18.22-16.85-11.76 0-19.27 8-19.27 19.19v2.34C44.39 63.46 51.9 71 63.66 71h13.15zm-9.39-22v-7.16c0-1.91-2-3.33-4.19-3.33a4.75 4.75 0 00-4.95 5v4.18a4.74 4.74 0 004.95 5c2.12.1 4.19-1.87 4.19-3.72z"/><path fill="#e0f0f0" d="M113.78 123H14.22A9.18 9.18 0 015 113.86v-61.3l59 35.22 59-35.22v61.3a9.18 9.18 0 01-9.22 9.14z"/><path fill="#c6e4e4" d="M5 114.26l54.18-32.93a9.28 9.28 0 019.64 0L123 114.26a8.78 8.78 0 01-8.82 8.74H13.82A8.78 8.78 0 015 114.26z"/></svg>