<svg width="128" height="128" fill="none" xmlns="http://www.w3.org/2000/svg"><path d="M13 44.626v14.087l37.62 31.59 6.565-5.582 6.565-5.583 6.46 5.831 6.46 5.831L115 58.048V45.063a1.982 1.982 0 0 0-.94-1.688L66.11 13.602a4.024 4.024 0 0 0-4.23 0L14 42.929c-.612.35-.992.995-1 1.697Z" fill="#BBCCCE"/><path d="M21 30.248v59.404h86V30.248a3.993 3.993 0 0 0-4-3.988H25c-2.21 0-4 1.784-4 3.988Z" fill="#E1F4F3"/><path d="M74.043 70.26h-9.644C52.791 70.26 46 62.97 46 52.39c0-10.58 7.062-18.13 18.4-18.13 10.56 0 17.6 6.344 17.6 16.213.029 6.908-3.322 11.018-8.551 11.018-3.3 0-5.552-1.65-5.735-4.075h-.227c-.431 2.437-2.715 4.163-5.28 3.99-4.04 0-7.07-3.08-7.07-8.98s3.03-8.981 7.07-8.981c2.207-.078 4.174 1.329 4.73 3.383h.227v-3.024h5.133v11.667c0 1.41.734 2.17 2.017 2.17 2.068 0 3.49-2.114 3.49-6.506v-1.22c0-7.415-5.558-11.877-13.36-11.877-8.625 0-14.132 5.64-14.132 13.527v1.65c-.044 7.895 5.463 13.21 14.088 13.21h9.643v3.835Zm-6.886-15.508v-5.047c0-1.347-1.467-2.348-3.073-2.348a3.56 3.56 0 0 0-2.627.99 3.278 3.278 0 0 0-1.003 2.535v2.946a3.27 3.27 0 0 0 1 2.538 3.553 3.553 0 0 0 2.63.987c1.555.07 3.073-1.318 3.073-2.623v.022Z" fill="#84ABAE"/><path d="M13 49.197v61.815A3.994 3.994 0 0 0 17 115h93.969c2.209 0 4-1.785 4-3.988V49.197L76.782 82.003 66.6 72.926a3.877 3.877 0 0 0-5.3 0l-10.122 9.042L13 49.198Z" fill="#84ABAE"/><path fill-rule="evenodd" clip-rule="evenodd" d="m114.479 112.925-46.542-41.49-.006.004a5.873 5.873 0 0 0-7.968.007L13.51 112.96A4 4 0 0 0 17 115h.2l45.476-40.601.008-.008a1.884 1.884 0 0 1 2.572 0l.009.008L110.8 115h.169a3.998 3.998 0 0 0 3.51-2.075Z" fill="#E1F4F3"/></svg>