<svg xmlns="http://www.w3.org/2000/svg" width="128" height="103"><g fill="none" fill-rule="evenodd"><path fill="#E2F1F1" d="M117.56 29.876v58.365c0 5.706-4.626 10.333-10.334 10.333H14.142V29.876c0-5.707 4.626-10.333 10.333-10.333h82.75c5.709 0 10.335 4.626 10.335 10.333"/><path fill="#BCCDCF" d="M46.615 4.192L59.14 19.543H24.475c-5.706 0-10.333 4.626-10.333 10.334v68.698H10.56C4.853 98.575.227 93.947.227 88.24V10.724C.227 5.017 4.853.39 10.559.39h28.05a10.338 10.338 0 018.006 3.802"/><g transform="translate(86 61)"><circle cx="21" cy="21" r="21" fill="#FF444F" fill-rule="nonzero"/><path fill="#FFF" d="M18 7l.663 19h4.675L24 7h-6zm.826 22.856c-.55.57-.826 1.288-.826 2.153 0 .866.276 1.581.826 2.145.552.565 1.273.846 2.165.846.903 0 1.632-.281 2.182-.846.551-.564.827-1.279.827-2.145 0-.878-.276-1.6-.827-2.163-.55-.564-1.279-.846-2.182-.846-.892 0-1.613.285-2.165.856z"/></g></g></svg>