<svg width="80" height="96" fill="none" xmlns="http://www.w3.org/2000/svg"><path d="M76.413 54.146c-.007 1.084-.049 3.282-1.431 5.404a8.322 8.322 0 0 1-.892 1.139l-7.186 6.582a8.292 8.292 0 0 0 1.755-2.335c1.117-2.224.88-4.305.716-5.74-.46-4.036-2.642-6.748-3.612-7.92-.966-1.169-3.533-4.19-7.956-5.378-1.545-.414-4.113-1.103-6.913.062-.454.189-1.5.671-2.548 1.61l7.546-7.11c.95-.568 2.86-1.527 5.404-1.59 2.12-.053 3.681.54 4.733.954.732.287 4.347 1.772 7.204 5.686.836 1.145 3.206 4.392 3.18 8.636Z" fill="#FF444F"/><path d="M66.904 67.459a.188.188 0 0 1-.129-.325 8.11 8.11 0 0 0 1.717-2.282c1.09-2.174.863-4.173.697-5.633-.465-4.068-2.721-6.797-3.571-7.824-.843-1.019-3.407-4.121-7.86-5.316-1.516-.406-4.052-1.087-6.793.054a8.893 8.893 0 0 0-2.495 1.575.188.188 0 0 1-.254-.277l7.546-7.11c.01-.009.02-.017.033-.024 1.692-1.01 3.593-1.568 5.495-1.616 2.203-.054 3.833.584 4.806.967 1.303.51 4.618 2.093 7.287 5.75.803 1.1 3.243 4.444 3.216 8.748-.006.985-.02 3.292-1.461 5.505a8.55 8.55 0 0 1-.912 1.165l-.01.01-6.586 6.032-.6.55a.188.188 0 0 1-.127.05l.001.001ZM54.177 45.127c1.48 0 2.76.343 3.678.59 4.57 1.227 7.19 4.398 8.052 5.44.869 1.05 3.177 3.84 3.654 8.019.162 1.423.406 3.571-.735 5.845-.08.158-.164.314-.254.467l5.385-4.932c.32-.345.612-.717.867-1.108 1.38-2.121 1.394-4.35 1.4-5.303.026-4.181-2.276-7.336-3.143-8.524-2.612-3.578-5.85-5.124-7.122-5.623-.947-.371-2.533-.994-4.66-.941-1.831.046-3.661.583-5.295 1.554l-5.792 5.457a8.641 8.641 0 0 1 3.964-.941Z" fill="#000"/><path d="m70.42 64.05-.012 6.302-6.883 6.438c0-2.49-.003-4.983-.004-7.474.553-.198 2.027-.777 3.383-2.045l3.516-3.22Z" fill="#FF444F"/><path d="M63.525 76.978a.188.188 0 0 1-.188-.188l-.004-7.474c0-.08.05-.15.125-.177a9.694 9.694 0 0 0 3.318-2.005l3.518-3.221a.185.185 0 0 1 .202-.033c.069.03.112.097.112.172l-.011 6.3a.19.19 0 0 1-.06.137l-6.883 6.44a.19.19 0 0 1-.128.05l-.001-.001Zm.184-7.531.003 6.91 6.509-6.087.01-5.793-3.2 2.932a10.024 10.024 0 0 1-3.323 2.037v.001Z" fill="#000"/><path d="m70.4 76.2-6.895 6.48-2.99-3.708 3.01-2.181 4.211-3.94L70.4 76.2Z" fill="#FF444F"/><path d="M63.505 82.868h-.013a.19.19 0 0 1-.133-.069l-2.99-3.709a.191.191 0 0 1-.04-.142.184.184 0 0 1 .076-.127l3-2.175.247-.231 3.956-3.7a.187.187 0 0 1 .275.02l2.663 3.35a.187.187 0 0 1-.019.253l-4.685 4.404-2.21 2.077a.186.186 0 0 1-.128.05Zm-2.719-3.86 2.738 3.397 2.062-1.938 4.56-4.286-2.43-3.054c-1.268 1.187-2.537 2.374-3.807 3.56l-.256.24a.135.135 0 0 1-.018.016l-2.849 2.065Z" fill="#000"/><path d="m70.395 82.06-6.901 6.497-2.974-3.716 2.985-2.16 4.226-3.973 2.664 3.353Z" fill="#FF444F"/><path d="M63.494 88.744h-.013a.187.187 0 0 1-.134-.07l-2.973-3.715a.188.188 0 0 1 .037-.27c.992-.717 1.983-1.435 2.975-2.154l4.217-3.964a.187.187 0 0 1 .275.02l2.664 3.352a.188.188 0 0 1-.017.254l-6.902 6.496a.187.187 0 0 1-.128.05l-.001.001Zm-2.704-3.866 2.723 3.403 6.627-6.238-2.43-3.058-4.077 3.833-.02.015c-.94.682-1.883 1.364-2.824 2.045Z" fill="#000"/><path d="M60.467 55.566c-.011.231-.033.592-.241.989-.049.092-.309.57-.858.869-.812.44-1.674.172-2.08.046-.91-.284-1.446-.862-1.718-1.162-.268-.296-.98-1.084-1.053-2.242-.017-.264-.04-.722.195-1.232.077-.165.36-.755 1.02-1.06.45-.206.856-.18 1.166-.156 1.194.093 2.006.825 2.265 1.064.196.182.772.75 1.097 1.663.093.262.234.674.207 1.221Z" fill="#FF444F"/><path d="M58.372 57.853c-.485 0-.904-.13-1.139-.204-.973-.303-1.533-.919-1.801-1.214-.282-.312-1.024-1.135-1.102-2.357-.016-.245-.048-.755.212-1.322.314-.673.778-.997 1.112-1.15.505-.233.959-.198 1.26-.174.85.065 1.649.44 2.377 1.112.294.274.835.863 1.146 1.738.086.245.248.7.218 1.294a2.44 2.44 0 0 1-.263 1.066 2.377 2.377 0 0 1-.934.947 2.25 2.25 0 0 1-1.087.264h.001Zm-1.809-6.064c-.222 0-.48.031-.752.156-.277.127-.663.398-.928.968-.22.48-.192.91-.178 1.14.068 1.092.748 1.844 1.004 2.129.247.272.76.837 1.636 1.109.386.12 1.19.372 1.934-.032a1.99 1.99 0 0 0 .782-.792c.193-.368.21-.707.22-.91.026-.52-.114-.914-.198-1.15a4.068 4.068 0 0 0-1.048-1.588c-.664-.613-1.388-.955-2.15-1.014-.096-.008-.204-.016-.322-.016Z" fill="#000"/><path d="M23.362 22.411c-.054-1.46-.222-5.989 2.966-9.351 3.179-3.353 7.693-3.435 8.67-3.453 9.663-.175 19.968 10.634 19.091 20.38-.077.854-.555 6.179-4.768 9.095-3.442 2.383-7.413 1.797-9.059 1.553-8.52-1.257-16.575-9.413-16.9-18.225v.001Z" fill="#fff"/><path d="M43.127 41.07c-1.205 0-2.224-.15-2.892-.248-4.165-.614-8.404-2.924-11.633-6.336-3.343-3.535-5.271-7.821-5.428-12.068-.055-1.502-.224-6.068 3.018-9.487 2.085-2.2 5.212-3.446 8.804-3.511 4.656-.085 9.791 2.396 13.738 6.635 1.851 1.988 3.34 4.272 4.302 6.605 1.035 2.508 1.453 4.979 1.241 7.344-.17 1.884-.98 6.555-4.849 9.233-2.128 1.474-4.436 1.834-6.301 1.834Zm-7.9-31.277c-.074 0-.15 0-.224.002-3.491.064-6.524 1.268-8.539 3.395-3.133 3.305-2.97 7.753-2.916 9.214.153 4.157 2.046 8.355 5.326 11.824 3.171 3.352 7.332 5.62 11.415 6.223 1.66.245 5.544.818 8.925-1.523 3.737-2.587 4.525-7.126 4.689-8.958.207-2.304-.202-4.715-1.214-7.168-.947-2.29-2.41-4.536-4.23-6.492-3.813-4.094-8.74-6.518-13.232-6.518v.001Z" fill="#000"/><path d="M60.819 25.395c-.524 2.716-1.86 4.63-2.685 5.634l-7.513 6.973c3.018-2.991 3.4-7.259 3.47-8.015.875-9.746-9.429-20.555-19.091-20.38-.915.017-4.928.09-8.044 2.847l7.531-7.174a14.553 14.553 0 0 1 6.834-2.119c3.913-.194 6.767 1.337 8.566 2.296.836.446 4.11 2.267 6.94 6.04.904 1.205 3.42 4.641 4.044 9.555.133 1.04.304 2.49-.052 4.343Z" fill="#EBECEE"/><path d="M50.62 38.19a.185.185 0 0 1-.134-.059.186.186 0 0 1 .003-.262c2.677-2.653 3.28-6.405 3.415-7.896.207-2.307-.201-4.718-1.215-7.17-.946-2.29-2.409-4.536-4.229-6.491-3.876-4.163-8.906-6.599-13.456-6.517-4.018.074-6.527 1.563-7.923 2.8a.187.187 0 0 1-.263-.014.187.187 0 0 1 .008-.263l7.532-7.174c.01-.009.02-.016.032-.024a14.758 14.758 0 0 1 6.922-2.147c3.949-.195 6.886 1.37 8.64 2.306l.023.012c1.515.81 4.44 2.677 7.002 6.092 2.28 3.038 3.654 6.283 4.08 9.644.126.987.316 2.48-.054 4.403-.396 2.053-1.338 4.03-2.725 5.718a.35.35 0 0 1-.017.018l-7.513 6.973a.184.184 0 0 1-.127.05ZM35.227 9.418c4.596 0 9.627 2.468 13.509 6.638 1.851 1.988 3.338 4.271 4.302 6.604 1.035 2.507 1.453 4.979 1.24 7.344-.132 1.465-.569 3.924-1.976 6.183l5.697-5.286c1.342-1.637 2.254-3.553 2.638-5.54.358-1.865.174-3.322.05-4.285-.418-3.296-1.767-6.48-4.008-9.466-2.52-3.357-5.391-5.192-6.878-5.987l-.023-.012c-1.832-.977-4.6-2.453-8.445-2.262a14.37 14.37 0 0 0-6.728 2.082l-5.766 5.492c1.486-.8 3.504-1.453 6.158-1.502.077-.002.154-.002.232-.002l-.002-.001Z" fill="#000"/><path d="m51.48 66.093-.005 12.96L7.931 67.172c-.06-2.18.119-6.87 2.927-11.755 3.544-6.166 9.04-8.751 11.31-9.642 4.808-1.886 8.973-1.596 11.02-1.43 5.17.417 9.23 2.308 11.895 3.549.75.35 1.436.695 2.05 1.02a7.929 7.929 0 0 0-.38.576 9.093 9.093 0 0 0-1.157 3.323c-.127.884-.089 1.556-.054 2.128a15.023 15.023 0 0 0 1.148 4.856c.179.423.983 2.28 2.703 4.265a17.043 17.043 0 0 0 2.088 2.031Z" fill="#fff"/><path d="M51.475 79.24a.18.18 0 0 1-.05-.006L7.882 67.354a.186.186 0 0 1-.138-.176c-.08-2.926.366-7.356 2.953-11.854 3.389-5.895 8.6-8.622 11.405-9.724 4.948-1.941 9.261-1.591 11.103-1.442 5.202.42 9.267 2.314 11.958 3.566.683.318 1.376.663 2.059 1.025a.188.188 0 0 1 .064.274c-.137.191-.26.375-.371.563a8.891 8.891 0 0 0-1.133 3.254c-.125.877-.084 1.55-.051 2.09.1 1.612.492 3.27 1.134 4.795.28.662 1.099 2.4 2.671 4.215.627.724 1.322 1.4 2.066 2.009.043.035.069.089.069.145l-.006 12.96a.187.187 0 0 1-.188.188v-.001ZM8.115 67.029l43.173 11.78.005-12.627a17.194 17.194 0 0 1-2.042-1.997c-1.608-1.856-2.447-3.636-2.733-4.315a15.274 15.274 0 0 1-1.163-4.917c-.033-.557-.075-1.252.056-2.166a9.277 9.277 0 0 1 1.181-3.393c.083-.139.17-.275.265-.413a45.17 45.17 0 0 0-1.852-.916c-2.667-1.242-6.695-3.118-11.831-3.533-1.816-.147-6.07-.491-10.936 1.418-2.76 1.083-7.885 3.765-11.218 9.562-2.5 4.351-2.966 8.64-2.905 11.517Z" fill="#000"/><path d="m53.88 42.355-5.535 5.215a8.365 8.365 0 0 0-1.213 1.344 45.347 45.347 0 0 0-2.049-1.02c-2.665-1.24-6.725-3.131-11.894-3.549-2.048-.166-6.213-.456-11.02 1.43a23.298 23.298 0 0 0-7.03 4.347l6.845-6.704c.44-.421 1.08-.99 1.907-1.59 2.414-1.75 4.65-2.474 5.96-2.887a23.543 23.543 0 0 1 3.562-.823c2.143 1.285 4.478 2.168 6.849 2.518 1.472.218 4.803.709 7.954-.896.367.135.78.292 1.229.472 1.29.516 2.416.971 3.744 1.731.206.118.438.255.69.412Z" fill="#EBECEE"/><path d="M15.139 50.31c-.05 0-.1-.02-.137-.06a.187.187 0 0 1 .006-.263c2.281-2.234 4.563-4.47 6.845-6.703a18.661 18.661 0 0 1 1.928-1.608c2.487-1.804 4.782-2.526 6.014-2.914a23.81 23.81 0 0 1 3.59-.83.187.187 0 0 1 .124.025c2.161 1.295 4.506 2.158 6.78 2.494 1.418.21 4.74.7 7.84-.878a.188.188 0 0 1 .15-.009c.394.145.81.304 1.234.474 1.235.493 2.401.96 3.768 1.742.232.132.466.272.697.416a.187.187 0 0 1 .03.296l-2.804 2.64c-.91.857-1.822 1.715-2.732 2.574-.45.401-.848.844-1.19 1.317a.189.189 0 0 1-.24.056c-.677-.358-1.364-.7-2.04-1.016-2.667-1.241-6.695-3.117-11.83-3.532-1.817-.148-6.07-.492-10.937 1.417a23.138 23.138 0 0 0-6.973 4.311.184.184 0 0 1-.126.05h.003Zm15.42-6.276c1.117 0 2.022.074 2.645.124 5.202.42 9.267 2.314 11.958 3.566.635.297 1.279.615 1.915.949a8.57 8.57 0 0 1 1.144-1.243l2.728-2.57 2.624-2.473c-.158-.097-.318-.19-.477-.28-1.344-.77-2.499-1.231-3.72-1.72-.394-.158-.78-.307-1.148-.442-3.185 1.588-6.55 1.091-7.993.877-2.302-.34-4.672-1.206-6.86-2.508a23.435 23.435 0 0 0-3.467.806c-1.212.382-3.469 1.092-5.907 2.86-.662.48-1.297 1.01-1.888 1.574l-4.484 4.39a23.578 23.578 0 0 1 4.47-2.344c3.276-1.284 6.273-1.566 8.46-1.566Z" fill="#000"/><path d="M69.373 59.196c-.46-4.036-2.642-6.748-3.61-7.92-.967-1.169-3.534-4.19-7.957-5.378-1.546-.414-4.113-1.103-6.913.062-.697.29-2.787 1.269-4.141 3.53a9.093 9.093 0 0 0-1.157 3.322c-.127.884-.088 1.557-.053 2.128a15.001 15.001 0 0 0 1.149 4.856c.178.423.982 2.28 2.702 4.265a17.05 17.05 0 0 0 2.088 2.031l-.008 19.258 6.012 7.507c2.003-1.434 4.007-2.867 6.01-4.302l-2.973-3.715 2.984-2.162-2.99-3.708 3.01-2.182-.005-7.474c.819-.294 3.654-1.42 5.14-4.38 1.116-2.224.879-4.305.714-5.74l-.002.002Zm-8.907-3.63c-.011.231-.033.592-.242.99-.049.091-.309.57-.857.868-.812.441-1.674.173-2.08.046-.91-.283-1.447-.862-1.72-1.163-.267-.295-.98-1.083-1.052-2.24-.017-.264-.04-.722.195-1.233.076-.165.36-.755 1.02-1.059.45-.207.856-.181 1.165-.157 1.194.093 2.007.825 2.265 1.064.196.182.772.75 1.097 1.663.093.263.235.674.208 1.221h.001Z" fill="#FF7E88"/><path d="M57.483 93.045a.187.187 0 0 1-.147-.07l-6.012-7.506a.19.19 0 0 1-.04-.118l.008-19.17a17.32 17.32 0 0 1-2.043-1.996c-1.61-1.858-2.448-3.637-2.733-4.315a15.26 15.26 0 0 1-1.162-4.918c-.035-.555-.077-1.245.054-2.166a9.272 9.272 0 0 1 1.181-3.393c1.283-2.14 3.202-3.179 4.23-3.606 2.86-1.19 5.473-.49 7.035-.07 4.571 1.226 7.192 4.397 8.053 5.439.869 1.052 3.177 3.845 3.653 8.019.162 1.422.407 3.57-.734 5.845-1.34 2.67-3.73 3.91-5.118 4.426l.004 7.343c0 .06-.029.117-.078.152l-2.849 2.065 2.866 3.555c.031.04.046.092.04.143a.188.188 0 0 1-.076.126l-2.825 2.046 2.85 3.561a.19.19 0 0 1 .04.143.185.185 0 0 1-.077.126l-6.01 4.302a.187.187 0 0 1-.11.035v.002Zm-5.825-7.76 5.86 7.317 5.704-4.083-2.85-3.56a.188.188 0 0 1 .037-.27l2.824-2.045-2.865-3.555a.191.191 0 0 1-.04-.143.184.184 0 0 1 .075-.126l2.931-2.125-.004-7.38c0-.08.05-.15.124-.176 1.057-.378 3.662-1.552 5.035-4.287 1.09-2.175.863-4.174.696-5.634-.464-4.064-2.72-6.795-3.57-7.823-.843-1.019-3.405-4.12-7.86-5.316-1.515-.406-4.052-1.086-6.794.054-.987.41-2.825 1.405-4.052 3.452a8.875 8.875 0 0 0-1.131 3.253c-.127.884-.085 1.553-.052 2.09.1 1.612.492 3.27 1.134 4.795.278.661 1.096 2.397 2.67 4.214.63.725 1.323 1.4 2.066 2.009a.19.19 0 0 1 .068.145l-.008 19.193.002.002Zm6.712-27.431c-.484 0-.904-.13-1.139-.204-.977-.304-1.555-.943-1.802-1.216-.28-.31-1.025-1.132-1.101-2.356-.015-.245-.048-.759.212-1.322.245-.53.63-.928 1.111-1.15.504-.232.958-.198 1.26-.174.85.066 1.65.44 2.377 1.113.294.273.834.86 1.145 1.738.087.244.248.698.219 1.294-.01.218-.031.625-.263 1.067a2.343 2.343 0 0 1-.934.946 2.245 2.245 0 0 1-1.086.265l.001-.001Zm-1.809-6.064c-.223 0-.48.03-.752.156-.4.184-.721.519-.928.968-.22.478-.193.91-.178 1.142.068 1.092.749 1.844 1.005 2.128.245.27.756.835 1.635 1.109.386.12 1.191.371 1.934-.032.475-.258.718-.671.782-.791.194-.369.21-.709.22-.911.026-.522-.114-.915-.197-1.15a4.06 4.06 0 0 0-1.047-1.587c-.663-.613-1.386-.955-2.152-1.014-.096-.008-.202-.016-.32-.016l-.002-.002Z" fill="#000"/><path d="M3.442 66.52c-.064-.944-.157-2.564.583-4.432.225-.566.651-1.601 1.606-2.607 1.49-1.568 3.313-2.004 4.182-2.2 2.897-.654 5.321.326 6.653.876 5.175 2.138 7.402 6.704 7.946 7.863.471 1.005 1.294 2.806 1.315 5.256.008 1.04.002 2.71-.98 4.505a7.958 7.958 0 0 1-2.316 2.628c-2.137 1.538-4.415 1.522-5.36 1.502-2.057-.043-3.545-.732-4.755-1.293A15.91 15.91 0 0 1 8.5 76.095c-.826-.733-2.748-2.476-4.005-5.423-.33-.776-.92-2.193-1.053-4.15v-.002Z" fill="#fff"/><path d="M17.466 80.103c-.154 0-.288-.003-.399-.006-2.097-.044-3.612-.746-4.83-1.31a16.085 16.085 0 0 1-3.862-2.554c-.754-.668-2.754-2.444-4.052-5.49-.303-.708-.93-2.181-1.068-4.211-.061-.898-.175-2.57.597-4.514.207-.522.638-1.608 1.644-2.667 1.56-1.641 3.464-2.07 4.277-2.255 2.99-.674 5.446.34 6.766.886 3.449 1.425 6.305 4.25 8.044 7.957.425.906 1.31 2.793 1.332 5.333.008.952.023 2.723-1.004 4.597a8.157 8.157 0 0 1-2.37 2.69c-1.951 1.404-3.998 1.542-5.074 1.542l-.001.002ZM3.628 66.507c.134 1.967.745 3.4 1.039 4.09 1.266 2.968 3.22 4.703 3.956 5.356a15.7 15.7 0 0 0 3.772 2.494c1.186.55 2.662 1.233 4.68 1.276.852.017 3.117.065 5.246-1.467a7.797 7.797 0 0 0 2.26-2.566c.98-1.788.966-3.43.957-4.413-.02-2.459-.882-4.295-1.297-5.178-1.699-3.621-4.486-6.38-7.848-7.77-1.281-.528-3.666-1.513-6.54-.865-.78.175-2.605.587-4.087 2.147-.956 1.006-1.368 2.047-1.567 2.547-.74 1.866-.63 3.481-.572 4.35h.001Z" fill="#000"/><path d="M31.545 68.168a9.396 9.396 0 0 1-1.773 3.525l-6.458 5.974a8.045 8.045 0 0 0 1.432-1.887c.982-1.794.988-3.464.98-4.504-.02-2.45-.843-4.252-1.314-5.257-.543-1.16-2.771-5.725-7.946-7.862-1.332-.55-3.756-1.53-6.653-.876-.707.158-2.037.476-3.312 1.427l5.918-5.64a9.84 9.84 0 0 1 1.877-.939c2.626-.977 4.955-.552 5.861-.375 2.56.501 4.25 1.725 5.38 2.565a16.032 16.032 0 0 1 3.757 3.962c.691 1.037 1.894 2.88 2.335 5.57.162.992.39 2.477-.085 4.316h.001Z" fill="#EBECEE"/><path d="M23.315 77.855a.188.188 0 0 1-.13-.322 7.787 7.787 0 0 0 1.397-1.843c.979-1.788.964-3.43.956-4.412-.02-2.458-.881-4.295-1.296-5.178-.983-2.097-3.31-5.894-7.848-7.768-1.28-.53-3.662-1.516-6.539-.867-.587.131-1.96.439-3.241 1.394a.187.187 0 0 1-.241-.286c1.972-1.881 3.946-3.761 5.918-5.64a.162.162 0 0 1 .028-.023 10.09 10.09 0 0 1 1.913-.956c2.728-1.016 5.162-.54 5.962-.384 2.657.52 4.41 1.821 5.457 2.598a16.272 16.272 0 0 1 3.8 4.009c.619.929 1.908 2.862 2.364 5.643.152.927.407 2.48-.088 4.394a9.52 9.52 0 0 1-1.826 3.616l-6.458 5.974a.184.184 0 0 1-.128.05ZM11.758 56.879c2.11 0 3.837.715 4.78 1.106 4.655 1.923 7.038 5.81 8.045 7.956.426.907 1.31 2.794 1.331 5.334.009.951.024 2.722-1.003 4.596l-.074.134 4.798-4.439a9.155 9.155 0 0 0 1.73-3.443c.473-1.838.227-3.342.08-4.24-.444-2.7-1.656-4.52-2.307-5.496a15.878 15.878 0 0 0-3.71-3.915c-1.022-.759-2.732-2.028-5.305-2.531-.774-.152-3.13-.613-5.759.367a9.674 9.674 0 0 0-1.827.91L7.8 57.736a9.764 9.764 0 0 1 1.975-.634 8.977 8.977 0 0 1 1.986-.22l-.002-.002Z" fill="#000"/><path d="m10.527 69.45 6.903-4.894 1.998 2.49-6.92 4.9-1.997-.54.016-1.956Z" fill="#fff"/><path d="M12.508 72.133a.174.174 0 0 1-.048-.006l-1.998-.54a.189.189 0 0 1-.139-.184l.016-1.955c0-.06.03-.116.08-.152l6.902-4.894a.188.188 0 0 1 .256.036l1.997 2.49a.188.188 0 0 1-.037.27l-6.92 4.9a.19.19 0 0 1-.109.034v.001Zm-1.807-.871 1.772.48 6.684-4.734-1.761-2.196-6.681 4.735-.014 1.714Z" fill="#000"/><path d="M18.186 68.113a.185.185 0 0 1-.144-.068l-2.036-2.461a.189.189 0 0 1 .025-.265.189.189 0 0 1 .265.025l2.036 2.461a.189.189 0 0 1-.145.308ZM13.523 71.416a.186.186 0 0 1-.144-.066l-2.056-2.444a.188.188 0 0 1 .023-.265.188.188 0 0 1 .265.023l2.055 2.444a.188.188 0 0 1-.143.308Z" fill="#000"/></svg>