<svg xmlns="http://www.w3.org/2000/svg" width="32" height="32"><g fill="none"><path fill="#FF444F" d="M0 15c0-.13.05-.26.15-.357l2.5-2.45a.5.5 0 11.7.714L1 15.21v15.155c.01.369.283.645.605.635H30.41c.307.01.58-.266.59-.62V15.21l-2.35-2.303a.5.5 0 01.7-.714l2.5 2.45c.1.098.15.228.15.357v15.394c-.027.906-.744 1.633-1.605 1.606H1.62c-.876.027-1.593-.7-1.62-1.62V15zM12.67 3.857a185.89 185.89 0 012.702-2.613.929.929 0 011.259.003c.633.595 1.562 1.494 2.699 2.61a.5.5 0 10.7-.714A186.7 186.7 0 0017.312.516a1.931 1.931 0 00-2.621-.003 183 183 0 00-2.721 2.63.5.5 0 10.7.714z"/><path fill="#FF444F" d="M3.688 4.093a.5.5 0 01.373-.098L4.13 4h23.74l.069-.005a.5.5 0 01.561.407V16.5h1V4.365l-.004-.063A1.5 1.5 0 0027.839 3H4.16a1.5 1.5 0 00-1.657 1.302l-.004.063V16.5h1V4.402a.5.5 0 01.188-.309z"/><path fill="#FF444F" d="M2.5 8.344l1 .002a.5.5 0 00.362.482c1.55.425 5.202 1.523 9.751 2.916l-.292.956c-4.537-1.389-8.187-2.486-9.726-2.909A1.5 1.5 0 012.5 8.344zm16.201 4.375l-.285-.959 9.727-2.89a.5.5 0 00.357-.48h1a1.5 1.5 0 01-1.073 1.44l-9.726 2.889z"/><path fill="#FF444F" d="M14 15a1 1 0 01-1-1v-3a1 1 0 011-1h4a1 1 0 011 1v3a1 1 0 01-1 1v3.5h-1V15h-2v3.5h-1V15zm0-1h4v-3h-4v3z"/><path fill="#FF444F" d="M21.653 21.22c.75.576 1.569 1.207 2.45 1.889l.154.119a1564.368 1564.368 0 017.383 5.746l.168.132a.5.5 0 01-.616.788l-.169-.132a1222.09 1222.09 0 00-2.18-1.704 1563.4 1563.4 0 00-5.197-4.04l-.154-.118c-3.278-2.534-5.694-4.373-6.861-5.212a1.144 1.144 0 00-1.244-.012c-1.185.851-3.601 2.69-6.879 5.224l-.154.119a1563.397 1563.397 0 00-7.377 5.743l-.169.132a.5.5 0 11-.616-.788l.168-.132a1221.398 1221.398 0 012.182-1.705c1.766-1.377 3.538-2.755 5.2-4.041l.155-.12c.881-.68 1.7-1.312 2.45-1.888l-8.08-4.278a.5.5 0 11.467-.884l8.487 4.493a171.64 171.64 0 013.6-2.7 2.156 2.156 0 012.376.013 173 173 0 013.582 2.687l8.487-4.493a.5.5 0 01.468.884l-8.081 4.278z"/></g></svg> 
