<svg width="129" height="128" fill="none" xmlns="http://www.w3.org/2000/svg"><g clip-path="url(#a)"><path d="M13.5 44.626v14.087l37.62 31.59 6.565-5.582 6.565-5.583 6.46 5.831 6.46 5.831 38.33-32.752V45.063a1.982 1.982 0 0 0-.94-1.688L66.61 13.602a4.024 4.024 0 0 0-4.23 0L14.5 42.929c-.612.35-.992.995-1 1.697Z" fill="#BBCCCE"/><path d="M21.5 30.248v59.404h86V30.248a3.993 3.993 0 0 0-4-3.988h-78c-2.21 0-4 1.784-4 3.988Z" fill="#E1F4F3"/><path d="M13.5 49.197v61.815a3.994 3.994 0 0 0 4 3.988h93.969c2.209 0 4-1.785 4-3.988V49.197L77.282 82.003 67.1 72.926a3.877 3.877 0 0 0-5.3 0l-10.122 9.042L13.5 49.198Z" fill="#84ABAE"/><path fill-rule="evenodd" clip-rule="evenodd" d="m114.979 112.925-46.542-41.49-.006.004a5.873 5.873 0 0 0-7.968.007L14.01 112.96A4 4 0 0 0 17.5 115h.2l45.476-40.601.008-.008a1.884 1.884 0 0 1 2.572 0l.009.008L111.3 115h.169a3.998 3.998 0 0 0 3.51-2.075Z" fill="#E1F4F3"/><path fill-rule="evenodd" clip-rule="evenodd" d="M54.45 45.175c-3.175 0-5.775 2.6-5.775 5.775 0 3.175 2.6 5.775 5.775 5.775h7.95V60.9h-7.95c-5.475 0-9.95-4.475-9.95-9.95S48.975 41 54.45 41h7.95v4.175h-7.95ZM74.55 41H66.6v4.175h7.95c3.175 0 5.775 2.6 5.775 5.775 0 3.175-2.6 5.775-5.775 5.775H66.6V60.9h7.95c5.5 0 9.95-4.475 9.95-9.95S80.025 41 74.55 41Zm-.775 7.875H55.25v4.175h18.525v-4.175Z" fill="#85ACB0"/><path fill-rule="evenodd" clip-rule="evenodd" d="M128.5 23c0-12.702-10.298-23-23-23s-23 10.298-23 23 10.298 23 23 23 23-10.298 23-23Z" fill="#FF444F" style="mix-blend-mode:multiply"/><path d="M115.212 9.046A16.92 16.92 0 0 0 105.5 6c-9.388 0-17 7.612-17 17 0 3.61 1.126 6.959 3.046 9.712l23.666-23.666ZM119.454 13.288 95.788 36.954A16.92 16.92 0 0 0 105.5 40c9.388 0 17-7.612 17-17a16.92 16.92 0 0 0-3.046-9.712Z" fill="#fff"/></g><defs><clipPath id="a"><path fill="#fff" transform="translate(.5)" d="M0 0h128v128H0z"/></clipPath></defs></svg>