<svg width="24" height="24" fill="none" xmlns="http://www.w3.org/2000/svg"><path d="M3.096 9.4A.17.17 0 0 1 3 9.238c0-.075.016-.146.048-.213A10.242 10.242 0 0 1 6.83 5.7a10.553 10.553 0 0 1 4.889-1.175c1.734 0 3.368.383 4.902 1.15a10.196 10.196 0 0 1 3.817 3.3c.048.083.068.15.06.2a.286.286 0 0 1-.084.15.24.24 0 0 1-.18.075c-.073 0-.141-.042-.205-.125a9.525 9.525 0 0 0-3.625-3.15 10.35 10.35 0 0 0-4.685-1.1c-1.654 0-3.203.37-4.649 1.112a9.991 9.991 0 0 0-3.612 3.138c-.065.083-.125.133-.181.15a.237.237 0 0 1-.18-.025Zm11.49 12.575c-1.655-.433-3.016-1.292-4.083-2.575C9.435 18.117 8.9 16.558 8.9 14.725c0-.783.277-1.442.831-1.975a2.765 2.765 0 0 1 1.987-.8c.77 0 1.433.267 1.987.8s.831 1.192.831 1.975c0 .633.237 1.167.71 1.6a2.37 2.37 0 0 0 1.65.65c.61 0 1.145-.217 1.602-.65.458-.433.687-.967.687-1.6 0-2.05-.735-3.767-2.204-5.15-1.47-1.383-3.224-2.075-5.263-2.075-2.04 0-3.793.692-5.263 2.075-1.469 1.383-2.204 3.1-2.204 5.15 0 .4.045.92.133 1.563.088.641.277 1.37.566 2.187.032.083.032.146 0 .188a.532.532 0 0 1-.12.112.29.29 0 0 1-.205.025c-.072-.017-.125-.067-.157-.15a14.541 14.541 0 0 1-.494-1.938 11.05 11.05 0 0 1-.18-1.987c0-2.15.787-3.987 2.36-5.512C7.73 7.688 9.583 6.925 11.72 6.925c2.184 0 4.059.75 5.624 2.25 1.566 1.5 2.348 3.35 2.348 5.55 0 .767-.273 1.417-.819 1.95-.545.533-1.204.8-1.974.8a2.835 2.835 0 0 1-2.024-.8 2.586 2.586 0 0 1-.843-1.95c0-.65-.229-1.192-.686-1.625-.458-.433-1-.65-1.626-.65a2.33 2.33 0 0 0-1.638.65c-.465.433-.698.975-.698 1.625 0 1.733.506 3.18 1.517 4.338 1.012 1.158 2.272 1.97 3.782 2.437.096.033.156.075.18.125.024.05.028.108.012.175-.016.083-.048.142-.096.175s-.113.033-.193 0Zm-8.503-18c-.08.033-.14.038-.18.012a.355.355 0 0 1-.11-.112c-.031-.033-.047-.083-.047-.15 0-.067.024-.117.072-.15A12.214 12.214 0 0 1 8.696 2.4C9.7 2.133 10.707 2 11.72 2c1.044 0 2.067.133 3.071.4s1.963.642 2.878 1.125c.08.033.125.083.133.15a.257.257 0 0 1-.036.175.39.39 0 0 1-.133.125c-.056.033-.124.033-.205 0a14.165 14.165 0 0 0-2.77-1.063 11.298 11.298 0 0 0-2.938-.387c-.995 0-1.967.12-2.914.363-.948.241-1.855.604-2.722 1.087ZM9.31 21.7c-.93-1-1.657-2.05-2.18-3.15-.521-1.1-.782-2.375-.782-3.825 0-1.483.526-2.733 1.578-3.75 1.051-1.017 2.316-1.525 3.793-1.525 1.477 0 2.75.508 3.818 1.525 1.067 1.017 1.601 2.267 1.601 3.75 0 .083-.02.146-.06.188-.04.041-.1.062-.18.062a.284.284 0 0 1-.193-.063c-.048-.041-.072-.104-.072-.187 0-1.35-.486-2.483-1.458-3.4-.971-.917-2.123-1.375-3.456-1.375-1.333 0-2.477.458-3.432 1.375-.956.917-1.433 2.05-1.433 3.4 0 1.417.237 2.625.71 3.625.474 1 1.176 2 2.108 3 .064.067.092.13.084.188a.29.29 0 0 1-.084.162.398.398 0 0 1-.157.088c-.072.024-.14-.005-.205-.088Zm7.37-1.825c-1.412 0-2.637-.488-3.672-1.462-1.036-.976-1.554-2.205-1.554-3.688 0-.083.02-.15.06-.2.04-.05.1-.075.18-.075.081 0 .141.025.182.075.04.05.06.117.06.2 0 1.35.478 2.463 1.433 3.338.955.875 2.06 1.312 3.312 1.312.128 0 .28-.008.457-.025a9.18 9.18 0 0 0 .578-.075c.08-.017.145-.004.193.038.048.041.08.087.096.137a.256.256 0 0 1-.012.175c-.024.05-.076.083-.156.1-.29.083-.542.13-.759.137-.217.009-.35.013-.397.013Z" stroke="#999" stroke-width=".721"/></svg>