<svg width="40" height="40" fill="none" xmlns="http://www.w3.org/2000/svg"><path opacity=".01" fill="#fff" d="M0 0h40v40H0z"/><path d="M14.018 14.387H9.8A2.797 2.797 0 007 17.182v15.462a2.8 2.8 0 002.8 2.795h19.663c1.547 0 2.8-1.251 2.8-2.795V17.182a2.8 2.8 0 00-2.8-2.795h-4.217v2.105h4.912v16.842H9.105V16.492h4.912v-2.105z" fill="var(--fill-color1)"/><rect x="18.579" y="5.965" width="2.105" height="18.246" rx="1.053" fill="var(--fill-color1)"/><rect x="19.631" y="4.221" width="2.105" height="8.421" rx="1.053" transform="rotate(45 19.631 4.22)" fill="var(--fill-color1)"/><rect x="25.586" y="10.176" width="2.105" height="8.421" rx="1.053" transform="rotate(135 25.586 10.176)" fill="var(--fill-color1)"/></svg>