<svg width="81" height="80" fill="none" xmlns="http://www.w3.org/2000/svg"><rect x=".5" width="80" height="80" rx="8" fill="#F2F3F4"/><g clip-path="url(#a)"><path d="M49.291 47.613H31.788l-7.495 13.092c.902.459 1.926.752 2.588.752 6.885 0 20.937-.102 27.913-.102.717 0 1.388-.244 1.99-.627l-7.493-13.115Z" fill="#4185F3"/><path d="m24.293 60.706 7.495-13.093H16.6c-.008.91.316 1.742.822 2.692 1.413 2.642 3.802 6.865 5.205 9.07.346.544 1.72 1.358 1.666 1.33Z" fill="#1767D1"/><path d="m49.291 47.612 7.496 13.113c.971-.617 1.763-1.595 2.277-2.496a716.692 716.692 0 0 1 4.476-7.703c.63-1.064.874-2.02.858-2.915l-15.107.001Z" fill="#E94235"/><path d="m31.79 47.613 8.742-15.199-7.813-13.027c-.845.556-1.568 1.31-1.896 1.885-3.41 5.982-10.281 18.241-13.736 24.3a3.746 3.746 0 0 0-.489 2.041H31.79Z" fill="#30A753"/><path d="m49.292 47.614-8.759-15.2 7.6-13.012c.844.557 1.772 1.296 2.1 1.87 3.41 5.982 10.281 18.241 13.738 24.3.356.623.464 1.329.43 2.042H49.29Z" fill="#F9BC00"/><path d="m32.719 19.39 7.814 13.024 7.6-13.012c-.785-.458-1.896-.73-2.972-.764-2.993-.1-7.846-.14-10.458-.026-.644.028-1.976.772-1.984.778Z" fill="#0F8038"/></g><defs><clipPath id="a"><path fill="#fff" transform="translate(16.5 16)" d="M0 0h48v48H0z"/></clipPath></defs></svg>