<svg width="22" height="22" xmlns="http://www.w3.org/2000/svg"><path fill="var(--fill-color1)" fill-rule="evenodd" clip-rule="evenodd" d="M21.266 8.478l.09.566c.103.622.15 1.18.143 1.701 0 .526-.047 1.082-.146 1.702l-.09.566-1.728.577a9.03 9.03 0 01-.563 1.36l.816 1.629-.335.466a10.85 10.85 0 01-1.101 1.306c-.37.377-.797.738-1.304 1.103l-.464.335-1.63-.816c-.44.222-.895.41-1.357.561l-.576 1.73-.566.09c-.622.099-1.178.146-1.704.146s-1.082-.047-1.702-.146l-.566-.09-.575-1.73a8.993 8.993 0 01-1.36-.563l-1.628.816-.464-.335a10.904 10.904 0 01-1.304-1.103 10.56 10.56 0 01-1.1-1.306l-.336-.462.811-1.624a9.126 9.126 0 01-.563-1.36L.236 13.02l-.09-.566A10.735 10.735 0 010 10.75c0-.526.047-1.082.146-1.706l.09-.566 1.728-.573c.15-.466.34-.921.561-1.357l-.816-1.63.335-.466a10.804 10.804 0 012.41-2.406l.464-.335 1.627.818a9.569 9.569 0 011.36-.561L8.48.238l.566-.09A10.716 10.716 0 0110.751 0c.537 0 1.077.047 1.702.146l.561.087.575 1.723c.467.151.922.34 1.36.564l1.63-.816.464.335a11.03 11.03 0 012.412 2.406l.335.467-.816 1.629c.224.436.413.893.564 1.36l1.728.577zm-.764 2.263v-.013a7.39 7.39 0 00-.064-1.048l-.898-.3-.79-.264-.249-.794a8.412 8.412 0 00-.56-1.358l-.381-.734.792-1.586a9.96 9.96 0 00-1.51-1.506l-1.587.795-.736-.386a8.54 8.54 0 00-1.35-.556l-.795-.246-.564-1.683a9.152 9.152 0 00-1.06-.066c-.33 0-.678.023-1.062.066l-.3.899-.263.79-.795.248c-.47.147-.924.335-1.35.558l-.739.389-1.589-.795A9.782 9.782 0 003.15 4.654l.421.845.37.744-.385.736A8.267 8.267 0 003 8.329l-.246.797-1.686.561a8.63 8.63 0 000 2.127l1.69.561.247.8a7.8 7.8 0 00.556 1.345l.386.736-.792 1.587c.228.29.46.55.705.797.242.24.503.472.797.705l.846-.421.749-.373.74.386c.417.22.866.406 1.338.55l.8.247.261.794.3.899a8.63 8.63 0 002.127 0l.3-.899.258-.787.795-.248a8.517 8.517 0 001.355-.561l.736-.384 1.587.795c.294-.231.556-.462.792-.7l.005-.006a9.21 9.21 0 00.706-.797l-.797-1.591.39-.739a7.49 7.49 0 00.551-1.338l.247-.8.794-.268.899-.3c.043-.373.066-.72.066-1.063zm-9.497-3.826A4.09 4.09 0 006.92 11a4.09 4.09 0 004.085 4.085A4.09 4.09 0 0015.09 11a4.09 4.09 0 00-4.085-4.085zM11 14c.8 0 1.554-.314 2.12-.88.566-.566.88-1.32.88-2.12s-.314-1.551-.88-2.12A2.97 2.97 0 0011 8c-.8 0-1.554.314-2.12.88A2.97 2.97 0 008 11c0 .8.314 1.554.88 2.12A2.97 2.97 0 0011 14z"/></svg>