
<svg xmlns="http://www.w3.org/2000/svg" width="16" height="16" viewBox="0 0 16 16">
    <path fill="var(--fill-color1)" d="M8 0c4.418 0 8 3.582 8 8s-3.582 8-8 8-8-3.582-8-8 3.582-8 8-8zm0 1C4.134 1 1 4.134 1 8s3.134 7 7 7 7-3.134 7-7-3.134-7-7-7zm-.194 10.213c.307 0 .53.074.669.222.139.148.208.342.208.582v.18c0 .24-.07.434-.208.581-.14.148-.362.222-.67.222-.306 0-.53-.074-.668-.222-.14-.147-.209-.341-.209-.581v-.18c0-.24.07-.434.209-.582.139-.148.362-.222.669-.222zM8.108 3c.892 0 1.597.235 2.115.706.518.471.777 1.108.777 1.912 0 .443-.08.828-.237 1.156-.159.328-.363.607-.612.838-.25.231-.532.416-.849.554-.316.139-.633.236-.95.291v1.496H7.246V7.68c.786-.036 1.402-.221 1.849-.554.446-.332.669-.789.669-1.37v-.195c0-.47-.154-.847-.46-1.128-.308-.282-.72-.423-1.238-.423-.557 0-1 .152-1.331.457-.331.305-.554.693-.67 1.164L5 5.244c.086-.296.213-.58.381-.852s.38-.512.633-.72c.255-.208.554-.372.9-.492.345-.12.743-.18 1.194-.18z"/>
</svg>
