<svg xmlns="http://www.w3.org/2000/svg" width="16" height="16"><g fill="none" fill-rule="evenodd"><path d="M0 0h16v16H0z"/><path fill="var(--fill-color1)" fill-rule="nonzero" d="M7.5 15h8a.5.5 0 0 1 .09.992L15.5 16h-8a.5.5 0 0 1-.09-.992L7.5 15h8zM4.784 1.089l.07.057 3 3a.5.5 0 0 1-.638.765l-.07-.057L5 2.707V15.5a.5.5 0 0 1-.41.492L4.5 16a.5.5 0 0 1-.492-.41L4 15.5V2.707L1.854 4.854a.5.5 0 0 1-.638.057l-.07-.057a.5.5 0 0 1-.057-.638l.057-.07 3-3a.5.5 0 0 1 .638-.057zm6.743 13.909-.006.002H11.5l.027-.002zM11.5 15a.509.509 0 0 1-.151-.023l-.04-.015a.494.494 0 0 1-.076-.04l-.035-.024-.005-.003-.001-.001-.046-.04a.505.505 0 0 0 .042.037l.01.007a.503.503 0 0 1-.04-.033l-3.012-3.011a.5.5 0 0 1 .638-.765l.07.057L11 13.292V.5a.5.5 0 0 1 .41-.492L11.5 0a.5.5 0 0 1 .492.41L12 .5v12.792l2.146-2.146a.5.5 0 0 1 .638-.057l.07.057a.5.5 0 0 1 .057.638l-.057.07-3.013 3.012a.503.503 0 0 1-.236.123l-.036.005h-.002l-.014.003-.026.001h.02l.019-.004L11.5 15zM.5 0h8a.5.5 0 0 1 .09.992L8.5 1h-8A.5.5 0 0 1 .41.008L.5 0h8zm10.692 14.894-.004-.003.005.004-.001-.001z"/></g></svg>