<svg xmlns="http://www.w3.org/2000/svg" width="138" height="40"><g fill="none" fill-rule="evenodd"><path stroke="var(--fill-color2)" d="M134 .5H4c-.966 0-1.841.392-2.475 1.025A3.495 3.495 0 00.5 4v32c0 .966.392 1.841 1.025 2.475A3.495 3.495 0 004 39.5h130c.966 0 1.841-.392 2.475-1.025A3.493 3.493 0 00137.5 36V4c0-.966-.392-1.841-1.025-2.475A3.495 3.495 0 00134 .5z"/><text fill="var(--fill-color1)" font-family="IBMPlexSans-Bold, IBM Plex Sans" font-size="12" font-weight="bold"><tspan x="33.5" y="16">DOWNLOAD</tspan></text><text fill="var(--fill-color1)" font-family="IBMPlexSans, IBM Plex Sans" font-size="10"><tspan x="33.5" y="32">Installation on Linux</tspan></text><path fill="var(--fill-color1)" fill-rule="nonzero" d="M24.945 26.901c-.546-.442-.334-1.42-.9-1.902.548-3.339-.99-6.282-2.823-8.168-1.54-1.583-1.043-3.123-1.043-4.455 0-2.13-.874-4.376-3.523-4.376-2.83 0-3.606 2.362-3.634 3.709-.068 3.237.654 4.078-1.24 6.434-2.229 2.771-2.557 5.536-2.054 7.002a2.908 2.908 0 01-1.146.829c-1.64.714-.438 1.91-.891 2.758-.13.241-.191.493-.191.734 0 .744.591 1.388 1.666 1.292 1.45-.129 2.787.898 3.652.898.764 0 1.392-.434 1.683-1.033 1.367-.336 3.053-.293 4.419.059.245.685.91 1.132 1.649 1.132 1.618 0 1.93-1.835 3.786-2.456.67-.223 1.005-.872 1.005-1.476 0-.387-.137-.755-.415-.98zm-9.076-10.384c-.317 0-.579-.256-.993-.563-.524-.39-1.056-.613-1.05-1.022 0-.281.376-.367.862-.676.522-.33.725-.666 1.24-.666.525 0 .684.266 1.398.575.703.304 1.192.424 1.192.767 0 .352-.735.604-1.15.861-.607.375-.92.724-1.5.724zm1.652-5.174c.875.14.973 1.678.554 2.435l-.352-.144c.183-.539.18-1.426-.431-1.482-.388-.036-.639.476-.692.914a1.696 1.696 0 00-.519-.126c.061-.915.653-1.723 1.44-1.597zm-3.377.328c.67-.166 1.067.614 1.07 1.424l-.308.189c-.042-.34-.193-.89-.574-.773-.408.127-.342 1.074-.114 1.269l-.304.169c-.417-.702-.416-2.117.23-2.278zm-2.099 19.094c-1.947-.886-2.61-.685-2.981-.685-.771 0-1.023-.574-.733-1.118.246-.461.17-.944.109-1.332-.094-.595-.11-.788.474-1.044.809-.344 1.168-.785 1.436-1.115.752-.93 1.51.532 2.133 1.835.404.845 1.199 1.272 1.444 2.208.225.864-.705 1.787-1.882 1.251zm6.933-1.86c-1.373.668-3.122.975-4.431.297-.194-.558-.503-.92-.837-1.283.535-.14.932-.807.457-1.477-.507-.715-1.543-1.215-2.59-2.024-.98-.757-1.289-2.624.045-4.71-.65 1.848-.27 3.55.056 4.038.068-.98.145-2.618 1.485-4.58.675-.99.685-2.297.7-3.115l.615.42c.453.335.832.703 1.376.703.803 0 1.248-.462 1.867-.846.242-.149.608-.3.916-.51.516 2.458 2.653 5.413 2.773 7.095.497-1.024-.14-3.486-.14-3.486.835 1.275.901 2.337.938 3.641.585.24 1.212.863 1.27 1.683l-.244-.028c-.125-.912-2.587-2.251-2.808-.534-1.18.18-.751 2.05-.99 3.262-.108.555-.31.993-.458 1.455zm4.809-.04c-.978.377-1.637 1.178-2.09 1.675-.874.958-2.03.499-2.152-.398-.13-.958.357-1.481.567-2.554.192-.98-.022-2.487.428-2.647.293 1.74 2.05 1.008 2.451.533.652 0 .706.22.852.831.092.382.218.703.574 1.082.415.443.288 1.124-.63 1.478zM15.849 15.96c-.646 0-1.13-.43-1.522-.763-.202-.17.05-.483.25-.313.385.326.772.67 1.272.67.602 0 1.133-.515 1.852-.799.245-.096.385.283.142.38-.698.274-1.259.825-1.994.825z"/></g></svg>