<svg width="17" height="16" fill="none" xmlns="http://www.w3.org/2000/svg"><path d="M8.93 8.23c0 1.43-.745 2.335-1.935 2.335S5.06 9.66 5.06 8.23c0-1.435.745-2.335 1.935-2.335s1.935.9 1.935 2.335zM16.5 4.4v7.2c0 .57-.005 1.47-.315 2.27a3.4 3.4 0 01-2.15 1.93c-.515.15-1.15.2-1.935.2H4.9c-.785 0-1.42-.05-1.935-.205-.48-.145-.83-.36-1.125-.585-.51-.39-.87-.95-1.025-1.345C.505 13.07.5 12.17.5 11.6V4.4c0-.57.005-1.47.315-2.27A3.4 3.4 0 012.965.2C3.48.05 4.115 0 4.9 0h7.2c.79 0 1.42.05 1.935.205.48.145.835.36 1.125.585.51.39.87.95 1.025 1.345.31.795.315 1.695.315 2.265zM3.655 11.135v-3.47H2.94v3.47h.715zm.05-4.435c0-.225-.18-.41-.41-.41-.225 0-.41.18-.41.41 0 .225.185.41.41.41a.412.412 0 00.41-.41zm5.97 1.53c0-1.845-1.03-3.005-2.68-3.005-1.65 0-2.68 1.16-2.68 3.005s1.03 3 2.68 3c1.65 0 2.68-1.155 2.68-3zm4.64 1.255c0-.82-.48-1.305-1.69-1.57l-.645-.14c-.795-.175-1.105-.49-1.105-.945 0-.595.56-.945 1.285-.945.76 0 1.26.39 1.325 1.025h.725c-.035-.985-.87-1.68-2.03-1.68-1.205 0-2.05.675-2.05 1.63 0 .825.505 1.355 1.67 1.605l.645.14c.805.175 1.13.5 1.13.985 0 .575-.575.985-1.36.985-.835 0-1.415-.38-1.5-1.005H9.99c.07 1.005.915 1.655 2.185 1.655 1.295.005 2.14-.665 2.14-1.74z" fill="#333"/></svg>