<svg viewBox="0 0 138 40"><g fill="none" fill-rule="evenodd"><path stroke="#999" d="M134 .5c.966 0 1.841.392 2.475 1.025A3.493 3.493 0 0 1 137.5 4v32c0 .966-.392 1.841-1.025 2.475A3.493 3.493 0 0 1 134 39.5H4a3.493 3.493 0 0 1-2.475-1.025A3.495 3.495 0 0 1 .5 36V4c0-.966.392-1.841 1.025-2.475A3.495 3.495 0 0 1 4 .5h130z"/><path fill="var(--fill-color1)" fill-rule="nonzero" d="M44.08 18c2.22 0 3.684-1.404 3.684-4.188S46.3 9.624 44.08 9.624h-3.156V18h3.156zm0-1.62h-1.332v-5.136h1.332c1.08 0 1.752.588 1.752 1.92v1.296c0 1.332-.672 1.92-1.752 1.92zm8.568 1.764c2.22 0 3.684-1.488 3.684-4.332S54.868 9.48 52.648 9.48s-3.684 1.488-3.684 4.332 1.464 4.332 3.684 4.332zm0-1.62c-1.092 0-1.752-.756-1.752-2.088v-1.248c0-1.332.66-2.088 1.752-2.088s1.752.756 1.752 2.088v1.248c0 1.332-.66 2.088-1.752 2.088zM61.264 18l1.056-4.536.42-1.836h.036l.408 1.836L64.24 18h2.076l1.944-8.376h-1.728l-.804 4.02-.444 2.328h-.036l-.516-2.328-.936-4.02h-1.992l-.924 4.02-.528 2.328h-.036l-.444-2.328-.792-4.02h-1.8L59.176 18h2.088zm9.984 0v-5.64h.036l.804 1.68L74.38 18h1.992V9.624h-1.716v5.64h-.036l-.804-1.68-2.292-3.96h-1.992V18h1.716zm11.988 0v-1.62h-3.192V9.624H78.22V18h5.016zm4.704.144c2.22 0 3.684-1.488 3.684-4.332S90.16 9.48 87.94 9.48s-3.684 1.488-3.684 4.332 1.464 4.332 3.684 4.332zm0-1.62c-1.092 0-1.752-.756-1.752-2.088v-1.248c0-1.332.66-2.088 1.752-2.088s1.752.756 1.752 2.088v1.248c0 1.332-.66 2.088-1.752 2.088zM94.312 18l.6-1.992h2.796l.6 1.992h1.896L97.48 9.624h-2.256L92.464 18h1.848zm2.952-3.54h-1.92l.924-3.18h.06l.936 3.18zm7.26 3.54c2.22 0 3.684-1.404 3.684-4.188s-1.464-4.188-3.684-4.188h-3.156V18h3.156zm0-1.62h-1.332v-5.136h1.332c1.08 0 1.752.588 1.752 1.92v1.296c0 1.332-.672 1.92-1.752 1.92z"/><text fill="var(--fill-color1)" fill-rule="nonzero" font-family="IBMPlexSans, IBM Plex Sans" font-size="10" transform="translate(40 22)"><tspan x="0" y="10">for macOS .dmg</tspan></text><path fill="var(--fill-color1)" fill-rule="nonzero" d="m24.196 13.79.292.019a5.572 5.572 0 0 1 4.393 2.378 5.456 5.456 0 0 0-2.594 4.576 5.27 5.27 0 0 0 3.213 4.849 12.086 12.086 0 0 1-1.671 3.408c-.985 1.475-2.017 2.915-3.655 2.942-1.592.037-2.127-.938-3.953-.938-1.842 0-2.413.911-3.94.975-1.56.057-2.752-1.574-3.772-3.035-2.039-2.983-3.627-8.407-1.498-12.097a5.85 5.85 0 0 1 4.923-3.007c1.562-.032 3.012 1.056 3.972 1.056.942 0 2.733-1.301 4.582-1.107l-.292-.019zM24.507 8a5.37 5.37 0 0 1-1.227 3.847 4.508 4.508 0 0 1-3.562 1.687 5.115 5.115 0 0 1 1.259-3.705A5.456 5.456 0 0 1 24.507 8z"/><path d="M8 8h24v24H8z"/></g></svg>