<svg width="80" height="97" fill="none" xmlns="http://www.w3.org/2000/svg"><path d="M74.245 56.607c-.006 1.084-.049 3.282-1.43 5.404a8.327 8.327 0 0 1-.893 1.139l-7.185 6.582a8.293 8.293 0 0 0 1.755-2.335c1.117-2.224.88-4.305.716-5.74-.46-4.036-2.643-6.748-3.612-7.92-.966-1.169-3.533-4.19-7.956-5.378-1.545-.414-4.113-1.103-6.914.062-.454.189-1.5.671-2.548 1.61l7.546-7.11c.952-.568 2.86-1.527 5.404-1.59 2.12-.053 3.682.54 4.733.954.732.287 4.348 1.772 7.205 5.686.836 1.146 3.206 4.392 3.18 8.636Z" fill="#FF444F"/><path d="M64.737 69.92a.188.188 0 0 1-.129-.325 8.106 8.106 0 0 0 1.716-2.282c1.091-2.174.863-4.173.697-5.633-.464-4.068-2.72-6.796-3.57-7.824-.843-1.019-3.407-4.121-7.86-5.316-1.516-.406-4.052-1.087-6.793.054a8.897 8.897 0 0 0-2.495 1.575.188.188 0 0 1-.254-.277l7.546-7.11c.01-.009.02-.017.032-.024 1.693-1.01 3.594-1.568 5.495-1.616 2.203-.054 3.833.584 4.807.967 1.302.51 4.618 2.093 7.287 5.75.802 1.1 3.242 4.444 3.215 8.748-.006.985-.02 3.292-1.46 5.505-.268.411-.576.803-.913 1.165l-.01.01-6.585 6.032-.6.55a.188.188 0 0 1-.127.05v.001ZM52.009 47.588c1.48 0 2.761.344 3.679.59 4.569 1.227 7.19 4.398 8.051 5.44.87 1.05 3.177 3.84 3.655 8.019.162 1.423.406 3.571-.735 5.845-.08.158-.164.314-.254.467 1.794-1.645 3.59-3.288 5.384-4.932.32-.345.613-.717.867-1.108 1.381-2.121 1.394-4.35 1.4-5.303.027-4.181-2.275-7.336-3.142-8.523-2.612-3.579-5.85-5.125-7.122-5.624-.948-.372-2.533-.994-4.66-.941-1.831.046-3.662.583-5.295 1.554l-5.793 5.457a8.642 8.642 0 0 1 3.964-.941h.001Z" fill="#000"/><path d="m68.252 66.511-.011 6.301-6.884 6.44c0-2.492-.002-4.983-.004-7.475.554-.198 2.028-.777 3.384-2.045l3.515-3.22Z" fill="#FF444F"/><path d="M61.357 79.439a.188.188 0 0 1-.188-.188l-.003-7.474c0-.08.05-.15.125-.177a9.69 9.69 0 0 0 3.318-2.005l3.517-3.221a.185.185 0 0 1 .203-.033c.069.03.112.097.112.172l-.011 6.3a.19.19 0 0 1-.06.137l-6.883 6.44a.19.19 0 0 1-.129.05v-.001Zm.184-7.53.004 6.91 6.508-6.088.01-5.793-3.2 2.932a10.022 10.022 0 0 1-3.322 2.037v.001Z" fill="#000"/><path d="m68.233 78.66-6.895 6.482-2.99-3.709 3.01-2.181 4.211-3.94a4342.68 4342.68 0 0 1 2.663 3.349Z" fill="#FF444F"/><path d="M61.338 85.33h-.013a.189.189 0 0 1-.133-.07l-2.99-3.709a.191.191 0 0 1-.04-.142.184.184 0 0 1 .076-.127l3-2.175.247-.231 3.956-3.7a.187.187 0 0 1 .275.02l2.663 3.35a.187.187 0 0 1-.019.252l-4.685 4.404-2.21 2.078a.187.187 0 0 1-.128.05h.001Zm-2.719-3.861 2.738 3.397 2.062-1.939 4.56-4.285-2.43-3.054c-1.268 1.187-2.537 2.374-3.807 3.56l-.256.24a.143.143 0 0 1-.018.016l-2.849 2.065Z" fill="#000"/><path d="m68.228 84.52-6.901 6.497-2.974-3.715 2.985-2.161 4.226-3.972 2.664 3.352Z" fill="#FF444F"/><path d="M61.327 91.204h-.014a.187.187 0 0 1-.133-.07l-2.973-3.715a.188.188 0 0 1 .037-.27l2.975-2.153 4.217-3.964a.187.187 0 0 1 .275.02l2.664 3.352a.188.188 0 0 1-.018.253l-6.901 6.496a.187.187 0 0 1-.129.05v.001Zm-2.704-3.866 2.722 3.403 6.628-6.238-2.43-3.058-4.078 3.833a.153.153 0 0 1-.018.015l-2.825 2.045Z" fill="#000"/><path d="M58.3 58.027c-.012.23-.033.592-.241.989-.05.092-.31.57-.858.869-.813.44-1.675.172-2.08.046-.91-.284-1.447-.863-1.719-1.162-.267-.296-.98-1.084-1.052-2.242-.017-.264-.04-.722.195-1.232.077-.165.36-.755 1.02-1.06.45-.207.855-.18 1.166-.156 1.193.093 2.006.825 2.264 1.064.197.182.773.75 1.097 1.662.093.263.235.675.208 1.222Z" fill="#FF444F"/><path d="M56.204 60.314c-.485 0-.905-.131-1.14-.204-.972-.303-1.532-.919-1.8-1.214-.282-.312-1.024-1.135-1.102-2.357-.016-.245-.049-.755.212-1.322.313-.673.778-.997 1.112-1.151.505-.233.959-.197 1.259-.174.85.066 1.65.441 2.377 1.113.295.274.835.863 1.147 1.738.086.244.247.7.217 1.293-.01.219-.03.625-.262 1.067a2.378 2.378 0 0 1-.935.947 2.251 2.251 0 0 1-1.086.264Zm-1.81-6.064c-.221 0-.479.03-.752.156-.276.127-.663.398-.928.968-.22.48-.192.909-.178 1.14.069 1.092.748 1.844 1.004 2.128.248.272.761.837 1.636 1.11.387.12 1.19.372 1.935-.033a1.99 1.99 0 0 0 .781-.791c.194-.368.21-.708.22-.91.026-.52-.114-.914-.197-1.15a4.068 4.068 0 0 0-1.048-1.588c-.664-.614-1.389-.955-2.151-1.014-.096-.008-.204-.016-.321-.016Z" fill="#000"/><path d="M21.195 24.872c-.054-1.46-.222-5.989 2.966-9.351 3.179-3.353 7.693-3.435 8.67-3.453 9.663-.175 19.968 10.634 19.091 20.38-.077.853-.555 6.179-4.767 9.095-3.443 2.383-7.414 1.796-9.06 1.553-8.52-1.257-16.575-9.414-16.9-18.225Z" fill="#fff"/><path d="M40.96 43.532c-1.205 0-2.224-.15-2.892-.249-4.165-.614-8.405-2.924-11.633-6.337-3.344-3.535-5.272-7.82-5.428-12.067-.056-1.502-.225-6.068 3.018-9.488 2.085-2.199 5.212-3.446 8.804-3.51 4.656-.085 9.79 2.396 13.738 6.635 1.851 1.988 3.339 4.272 4.301 6.605 1.036 2.508 1.454 4.979 1.242 7.344-.17 1.884-.98 6.555-4.849 9.233-2.129 1.474-4.437 1.834-6.302 1.834Zm-7.9-31.278c-.074 0-.15 0-.224.002-3.492.064-6.524 1.268-8.54 3.394-3.133 3.306-2.968 7.754-2.915 9.215.153 4.157 2.045 8.355 5.326 11.823 3.171 3.353 7.332 5.621 11.415 6.224 1.659.245 5.544.818 8.925-1.523 3.737-2.587 4.524-7.126 4.688-8.958.208-2.304-.201-4.715-1.214-7.168-.946-2.29-2.409-4.536-4.23-6.492-3.812-4.094-8.74-6.518-13.231-6.518v.001Z" fill="#000"/><path d="M58.651 27.856c-.523 2.715-1.86 4.63-2.685 5.634l-7.513 6.973c3.018-2.991 3.401-7.259 3.47-8.015.876-9.746-9.428-20.555-19.09-20.38-.916.017-4.928.09-8.045 2.847L32.32 7.74a14.553 14.553 0 0 1 6.834-2.119c3.913-.194 6.767 1.337 8.565 2.296.836.446 4.11 2.266 6.94 6.04.905 1.205 3.421 4.641 4.045 9.554.132 1.04.304 2.49-.053 4.344Z" fill="#EBECEE"/><path d="M48.453 40.65a.186.186 0 0 1-.135-.058.186.186 0 0 1 .004-.262c2.677-2.653 3.279-6.405 3.414-7.896.207-2.307-.2-4.718-1.214-7.17-.947-2.291-2.41-4.536-4.23-6.491-3.875-4.163-8.906-6.599-13.456-6.517-4.017.074-6.526 1.563-7.923 2.8a.187.187 0 0 1-.263-.014.187.187 0 0 1 .009-.263l7.532-7.174c.009-.009.02-.017.031-.024a14.759 14.759 0 0 1 6.922-2.147c3.95-.195 6.887 1.37 8.641 2.306l.023.012c1.515.81 4.44 2.677 7.002 6.092 2.28 3.038 3.654 6.283 4.08 9.644.126.987.315 2.48-.055 4.403-.396 2.053-1.337 4.03-2.724 5.717a.287.287 0 0 1-.017.02L48.58 40.6a.185.185 0 0 1-.128.05ZM33.057 11.88c4.597 0 9.627 2.468 13.51 6.638 1.85 1.988 3.338 4.271 4.301 6.604 1.036 2.507 1.453 4.979 1.241 7.344-.132 1.465-.57 3.924-1.976 6.183l5.696-5.286c1.343-1.638 2.255-3.553 2.639-5.54.358-1.866.173-3.322.05-4.285-.418-3.296-1.767-6.48-4.009-9.466-2.519-3.357-5.39-5.192-6.878-5.987l-.022-.012c-1.832-.977-4.6-2.453-8.446-2.262a14.37 14.37 0 0 0-6.728 2.082l-5.766 5.492c1.486-.8 3.505-1.454 6.159-1.502.076-.002.153-.002.231-.002l-.002-.001Z" fill="#000"/><path d="m49.314 68.554-.006 12.96L5.764 69.633c-.06-2.18.119-6.87 2.927-11.755 3.544-6.166 9.04-8.751 11.31-9.643 4.808-1.885 8.973-1.596 11.02-1.43 5.17.418 9.23 2.309 11.895 3.55.75.35 1.436.695 2.05 1.02a7.942 7.942 0 0 0-.38.576 9.093 9.093 0 0 0-1.158 3.323c-.126.883-.088 1.556-.053 2.128a15.025 15.025 0 0 0 1.148 4.856c.178.423.982 2.28 2.702 4.265a17.036 17.036 0 0 0 2.089 2.03Z" fill="#fff"/><path d="M49.308 81.702a.181.181 0 0 1-.05-.007L5.714 69.814a.186.186 0 0 1-.138-.175c-.08-2.926.366-7.356 2.953-11.854 3.388-5.895 8.6-8.623 11.404-9.724 4.95-1.941 9.262-1.591 11.104-1.442 5.202.42 9.267 2.314 11.958 3.566.683.318 1.375.663 2.058 1.025a.187.187 0 0 1 .064.274c-.137.19-.259.375-.37.563a8.888 8.888 0 0 0-1.133 3.254c-.125.877-.084 1.55-.051 2.09.1 1.612.492 3.27 1.134 4.794.28.663 1.099 2.4 2.671 4.216.627.724 1.322 1.4 2.066 2.008a.19.19 0 0 1 .068.146l-.005 12.96a.187.187 0 0 1-.188.188v-.001ZM5.948 69.488a682648 682648 0 0 0 43.172 11.78l.006-12.626a17.201 17.201 0 0 1-2.042-1.997c-1.608-1.856-2.447-3.636-2.733-4.315a15.276 15.276 0 0 1-1.163-4.917c-.034-.557-.076-1.252.056-2.166a9.278 9.278 0 0 1 1.18-3.393 7.45 7.45 0 0 1 .265-.413 45.103 45.103 0 0 0-1.852-.916c-2.666-1.242-6.695-3.118-11.83-3.533-1.817-.147-6.07-.491-10.937 1.418-2.759 1.083-7.884 3.765-11.217 9.562-2.501 4.351-2.966 8.64-2.905 11.517Z" fill="#000"/><path d="m51.713 44.816-5.535 5.215a8.369 8.369 0 0 0-1.213 1.344 45.559 45.559 0 0 0-2.049-1.02c-2.665-1.241-6.725-3.132-11.894-3.55-2.048-.165-6.213-.455-11.02 1.43a23.297 23.297 0 0 0-7.03 4.347c2.281-2.234 4.563-4.47 6.845-6.703.44-.421 1.08-.99 1.907-1.59 2.414-1.75 4.649-2.474 5.96-2.887a23.54 23.54 0 0 1 3.562-.823c2.143 1.285 4.478 2.168 6.849 2.518 1.472.218 4.803.709 7.954-.896.367.134.78.292 1.229.472 1.29.516 2.416.971 3.744 1.731.206.117.437.254.69.412Z" fill="#EBECEE"/><path d="M12.972 52.77c-.05 0-.1-.02-.137-.06a.187.187 0 0 1 .005-.262l6.846-6.703a18.674 18.674 0 0 1 1.927-1.608c2.488-1.804 4.782-2.526 6.014-2.914a23.82 23.82 0 0 1 3.59-.83.187.187 0 0 1 .125.025c2.161 1.295 4.506 2.157 6.779 2.493 1.419.21 4.742.701 7.841-.877a.188.188 0 0 1 .15-.01c.394.145.81.305 1.234.475 1.235.493 2.401.96 3.768 1.742.232.132.465.272.696.415a.187.187 0 0 1 .03.296l-2.803 2.64-2.732 2.575c-.45.401-.848.844-1.19 1.317a.189.189 0 0 1-.24.056c-.677-.358-1.364-.7-2.04-1.016-2.667-1.241-6.696-3.118-11.831-3.532-1.817-.148-6.07-.492-10.937 1.417a23.137 23.137 0 0 0-6.972 4.311.184.184 0 0 1-.126.049l.003.001Zm15.42-6.275c1.117 0 2.022.074 2.645.124 5.202.42 9.267 2.314 11.958 3.566.635.297 1.279.615 1.915.949a8.564 8.564 0 0 1 1.144-1.243l2.728-2.571 2.624-2.472c-.159-.097-.318-.19-.477-.28-1.344-.77-2.5-1.232-3.72-1.72-.395-.158-.78-.307-1.148-.442-3.185 1.588-6.55 1.09-7.993.877-2.302-.34-4.673-1.207-6.86-2.508a23.434 23.434 0 0 0-3.467.806c-1.212.382-3.469 1.092-5.907 2.86-.662.48-1.298 1.01-1.888 1.574l-4.484 4.39a23.571 23.571 0 0 1 4.47-2.344c3.276-1.284 6.273-1.566 8.459-1.566Z" fill="#000"/><path d="M67.206 61.657c-.46-4.036-2.643-6.748-3.61-7.92-.967-1.169-3.534-4.19-7.957-5.378-1.546-.414-4.113-1.103-6.913.062-.697.29-2.787 1.269-4.142 3.53a9.093 9.093 0 0 0-1.156 3.322c-.127.884-.089 1.557-.053 2.128a15 15 0 0 0 1.148 4.856c.179.423.983 2.28 2.702 4.265a17.05 17.05 0 0 0 2.089 2.031l-.009 19.258 6.012 7.507c2.003-1.433 4.007-2.867 6.01-4.302l-2.973-3.715 2.985-2.161-2.99-3.71 3.01-2.18c-.003-2.492-.003-4.983-.005-7.475.819-.294 3.654-1.42 5.14-4.38 1.116-2.224.878-4.305.714-5.74l-.002.002Zm-8.907-3.63c-.011.231-.033.593-.242.99-.049.091-.309.57-.858.868-.811.441-1.673.173-2.08.046-.91-.283-1.446-.862-1.718-1.162-.268-.296-.98-1.084-1.053-2.242-.017-.263-.04-.721.195-1.232.076-.165.36-.755 1.02-1.059.45-.207.856-.18 1.165-.156 1.194.093 2.007.824 2.265 1.064.196.181.772.75 1.097 1.662.093.263.234.674.208 1.222Z" fill="#FF7E88"/><path d="M55.316 95.507a.187.187 0 0 1-.147-.07l-6.012-7.507a.19.19 0 0 1-.041-.118l.008-19.17a17.32 17.32 0 0 1-2.042-1.996c-1.61-1.858-2.448-3.637-2.733-4.315a15.265 15.265 0 0 1-1.162-4.918c-.035-.554-.077-1.245.054-2.166a9.273 9.273 0 0 1 1.181-3.393c1.283-2.14 3.201-3.178 4.23-3.606 2.86-1.19 5.473-.489 7.035-.07 4.57 1.226 7.191 4.397 8.053 5.44.868 1.05 3.176 3.844 3.653 8.018.162 1.422.407 3.57-.734 5.845-1.34 2.67-3.731 3.91-5.119 4.426l.005 7.344c0 .06-.029.116-.078.151l-2.849 2.065 2.865 3.555a.188.188 0 0 1-.036.27l-2.824 2.045 2.85 3.561a.186.186 0 0 1-.038.27l-6.01 4.301a.188.188 0 0 1-.108.035l-.002.003Zm-5.825-7.76 5.86 7.316 5.703-4.083-2.85-3.56a.188.188 0 0 1 .037-.27l2.825-2.045L58.2 81.55a.192.192 0 0 1-.04-.143.185.185 0 0 1 .076-.126l2.931-2.125-.005-7.38c0-.079.05-.15.125-.176 1.056-.378 3.662-1.552 5.035-4.287 1.09-2.175.863-4.174.696-5.634-.464-4.063-2.72-6.794-3.57-7.823-.843-1.019-3.405-4.12-7.86-5.316-1.516-.406-4.053-1.086-6.794.054-.987.41-2.826 1.405-4.052 3.453a8.874 8.874 0 0 0-1.131 3.252c-.127.884-.085 1.553-.052 2.09.1 1.612.492 3.27 1.133 4.795.279.661 1.097 2.397 2.671 4.214a16.97 16.97 0 0 0 2.065 2.009c.044.035.069.089.069.145l-.009 19.193.003.002Zm6.712-27.432c-.484 0-.904-.13-1.139-.204-.977-.304-1.555-.943-1.802-1.216-.28-.31-1.025-1.132-1.102-2.355-.015-.246-.047-.76.212-1.322.245-.531.63-.93 1.112-1.152.504-.231.958-.197 1.26-.173.85.066 1.65.44 2.377 1.114.294.272.834.86 1.145 1.737.087.244.248.698.219 1.294-.01.219-.031.625-.263 1.068a2.342 2.342 0 0 1-.934.945 2.245 2.245 0 0 1-1.086.265l.001-.001Zm-1.809-6.064c-.223 0-.48.03-.752.156-.4.184-.722.519-.928.968-.22.478-.193.91-.178 1.142.068 1.092.748 1.844 1.004 2.128.246.271.757.835 1.636 1.109.386.12 1.191.371 1.934-.032.475-.258.718-.67.782-.791.194-.369.21-.708.22-.911.026-.522-.114-.915-.197-1.15a4.058 4.058 0 0 0-1.047-1.587c-.663-.613-1.386-.955-2.152-1.014-.096-.007-.203-.016-.32-.016l-.002-.002Z" fill="#000"/></svg>