<svg width="137" height="45" viewBox="0 0 137 45" fill="none" xmlns="http://www.w3.org/2000/svg"><rect x=".5" y="1" width="136" height="43" rx="3.5" stroke="#000" stroke-opacity=".08"/><g clip-path="url(#a)"><path d="m21.224 23.053-10.86 11.03c.47.273.988.417 1.508.417a3 3 0 0 0 1.47-.389l12.318-6.903z" fill="#F93647"/><path d="m29.596 19.996-3.452-1.934-3.878 3.937 4.753 4.452 2.578-1.445c.928-.522 1.483-1.459 1.483-2.506a2.85 2.85 0 0 0-1.484-2.504" fill="#FFC801"/><path d="M13.34 10.884a2.96 2.96 0 0 0-2.93.008l10.771 10.09 3.618-3.674z" fill="#00EF77"/><path d="M9.328 11.918a2.83 2.83 0 0 0-.414 1.466v18.224c0 .513.137 1.002.386 1.43l10.831-11z" fill="#00D3FF"/></g><path d="M44.905 15.582h-.027q-.117.441-.576.738-.45.288-1.17.288-.576 0-1.062-.207a2.3 2.3 0 0 1-.819-.621 3.1 3.1 0 0 1-.54-1.017 4.8 4.8 0 0 1-.189-1.404q0-.783.189-1.386.189-.612.54-1.017.351-.414.846-.63t1.098-.216q.846 0 1.413.378t.873.999l-.621.378a1.76 1.76 0 0 0-.648-.792q-.423-.288-1.017-.288a1.8 1.8 0 0 0-.756.153 1.7 1.7 0 0 0-.594.414q-.243.27-.378.648t-.135.846v1.017q0 .468.135.855.135.378.378.648.252.27.612.423.36.144.81.144.324 0 .612-.081.297-.09.513-.261.225-.171.351-.423.126-.261.126-.612v-.621h-1.386v-.666h2.124V16.5h-.702zm2.19.918v-6.282h3.834v.666H47.85v2.106h2.898v.666H47.85v2.178h3.078v.666zm7.362-5.616V16.5H53.7v-5.616h-1.998v-.666h4.752v.666zm4.865 5.616v-.63h.882v-5.022h-.882v-.63h2.52v.63h-.882v5.022h.882v.63zm5.954-5.616V16.5h-.756v-5.616h-1.998v-.666h4.752v.666zm7.512 5.724q-.612 0-1.107-.207a2.4 2.4 0 0 1-.837-.621 3 3 0 0 1-.531-1.017 4.8 4.8 0 0 1-.19-1.404q0-.792.19-1.395t.53-1.017q.352-.414.838-.621a2.7 2.7 0 0 1 1.107-.216q.603 0 1.098.216.495.207.837.621.351.414.54 1.017t.189 1.395-.19 1.404a2.9 2.9 0 0 1-.54 1.017q-.34.405-.836.621a2.8 2.8 0 0 1-1.098.207m0-.675q.405 0 .747-.144t.585-.414q.252-.27.387-.648t.135-.846v-1.044q0-.468-.135-.846a1.85 1.85 0 0 0-.387-.648 1.6 1.6 0 0 0-.585-.414 1.9 1.9 0 0 0-.747-.144q-.406 0-.747.144a1.7 1.7 0 0 0-.594.414q-.243.27-.378.648t-.135.846v1.044q0 .468.135.846t.378.648q.252.27.594.414t.747.144m5.544-3.267-.756-1.395h-.027V16.5h-.738v-6.282h.873l2.295 3.834.756 1.395h.027v-5.229h.738V16.5h-.873z" fill="#000" fill-opacity=".72"/><mask id="b" maskUnits="userSpaceOnUse" x="39" y="19.5" width="90" height="18" fill="#000"><path fill="#fff" d="M39 19.5h90v18H39z"/><path d="M52.308 27.351q0 2.55-1.513 4.063-1.7 1.802-4.471 1.802-2.652 0-4.488-1.836T40 26.858t1.836-4.522 4.488-1.836q1.343 0 2.533.476t1.955 1.343l-1.122 1.122q-.56-.68-1.462-1.054a4.65 4.65 0 0 0-1.904-.391q-1.989 0-3.366 1.377-1.36 1.395-1.36 3.485 0 2.091 1.36 3.485 1.377 1.377 3.366 1.377 1.819 0 3.026-1.02 1.208-1.02 1.394-2.805h-4.42v-1.462h5.899q.085.476.085.918m1.069 1.428q0-1.92 1.207-3.179 1.224-1.258 3.077-1.258 1.854 0 3.06 1.258 1.224 1.258 1.224 3.179 0 1.938-1.224 3.179-1.206 1.258-3.06 1.258-1.852 0-3.077-1.258-1.207-1.258-1.207-3.179m1.564 0q0 1.342.782 2.176a2.55 2.55 0 0 0 1.938.833q1.156 0 1.938-.833.782-.832.782-2.176 0-1.326-.782-2.159-.798-.85-1.938-.85t-1.938.85q-.782.833-.782 2.159m7.949 0q0-1.92 1.207-3.179 1.224-1.258 3.077-1.258t3.06 1.258q1.224 1.258 1.224 3.179 0 1.938-1.224 3.179-1.207 1.258-3.06 1.258t-3.077-1.258Q62.89 30.7 62.89 28.779m1.564 0q0 1.342.782 2.176a2.55 2.55 0 0 0 1.938.833q1.156 0 1.938-.833.782-.832.782-2.176 0-1.326-.782-2.159-.8-.85-1.938-.85-1.14 0-1.938.85-.782.833-.782 2.159m12.165 3.009q1.156 0 1.887-.833.765-.832.765-2.176 0-1.309-.765-2.159a2.4 2.4 0 0 0-1.887-.85q-1.122 0-1.887.85t-.765 2.159q0 1.326.765 2.159.765.85 1.887.85m-.051 5.1q-.697 0-1.31-.187a4.2 4.2 0 0 1-1.121-.493 3.7 3.7 0 0 1-.85-.765 3.2 3.2 0 0 1-.544-.986l1.479-.612q.254.73.884 1.173.628.442 1.462.442 1.275 0 1.989-.765t.714-2.108v-.799h-.068a3.1 3.1 0 0 1-1.207 1.054 3.6 3.6 0 0 1-1.632.374q-1.632 0-2.805-1.275-1.156-1.31-1.156-3.162 0-1.853 1.156-3.145 1.173-1.292 2.805-1.292.883 0 1.632.391a3 3 0 0 1 1.207 1.037h.068v-1.156h1.496v7.973q0 2.006-1.14 3.145-1.155 1.155-3.06 1.156m7.671-16.116v12.172h-1.564V20.772zM89.8 33.216q-1.836 0-3.026-1.258t-1.19-3.179q0-1.904 1.156-3.162 1.157-1.275 2.958-1.275 1.854 0 2.941 1.207 1.105 1.19 1.105 3.349l-.017.17h-6.545q.035 1.224.816 1.972a2.6 2.6 0 0 0 1.87.748q1.497 0 2.346-1.496l1.394.68a4.14 4.14 0 0 1-1.564 1.649q-.985.595-2.244.595m-2.499-5.44h4.777a2.03 2.03 0 0 0-.714-1.428q-.629-.578-1.7-.578a2.3 2.3 0 0 0-1.53.544q-.629.544-.833 1.462m13.445.238v4.93h-1.564V20.772h4.148q1.58 0 2.686 1.054 1.122 1.054 1.122 2.567 0 1.547-1.122 2.584-1.088 1.037-2.686 1.037zm0-5.746v4.25h2.618q.935 0 1.547-.629.629-.63.629-1.496 0-.85-.629-1.479-.612-.646-1.547-.646zm9.407-1.496v12.172h-1.564V20.772zm2.961 9.622q0 .612.51 1.02.528.408 1.224.408.987 0 1.751-.731.783-.731.782-1.717-.73-.578-2.04-.578-.951 0-1.598.459-.629.46-.629 1.139m2.023-6.052q1.734 0 2.737.935 1.003.918 1.003 2.533v5.134h-1.496v-1.156h-.068q-.969 1.428-2.584 1.428-1.377 0-2.312-.816a2.62 2.62 0 0 1-.918-2.04q0-1.292.969-2.057.987-.765 2.618-.765 1.395 0 2.295.51v-.357q0-.816-.646-1.377a2.2 2.2 0 0 0-1.513-.578q-1.309 0-2.074 1.105l-1.377-.867q1.14-1.632 3.366-1.632m12.784.272-5.219 12.002h-1.615l1.938-4.199-3.434-7.803h1.7l2.482 5.984h.034l2.414-5.984z"/></mask><path d="M52.308 27.351q0 2.55-1.513 4.063-1.7 1.802-4.471 1.802-2.652 0-4.488-1.836T40 26.858t1.836-4.522 4.488-1.836q1.343 0 2.533.476t1.955 1.343l-1.122 1.122q-.56-.68-1.462-1.054a4.65 4.65 0 0 0-1.904-.391q-1.989 0-3.366 1.377-1.36 1.395-1.36 3.485 0 2.091 1.36 3.485 1.377 1.377 3.366 1.377 1.819 0 3.026-1.02 1.208-1.02 1.394-2.805h-4.42v-1.462h5.899q.085.476.085.918m1.069 1.428q0-1.92 1.207-3.179 1.224-1.258 3.077-1.258 1.854 0 3.06 1.258 1.224 1.258 1.224 3.179 0 1.938-1.224 3.179-1.206 1.258-3.06 1.258-1.852 0-3.077-1.258-1.207-1.258-1.207-3.179m1.564 0q0 1.342.782 2.176a2.55 2.55 0 0 0 1.938.833q1.156 0 1.938-.833.782-.832.782-2.176 0-1.326-.782-2.159-.798-.85-1.938-.85t-1.938.85q-.782.833-.782 2.159m7.949 0q0-1.92 1.207-3.179 1.224-1.258 3.077-1.258t3.06 1.258q1.224 1.258 1.224 3.179 0 1.938-1.224 3.179-1.207 1.258-3.06 1.258t-3.077-1.258Q62.89 30.7 62.89 28.779m1.564 0q0 1.342.782 2.176a2.55 2.55 0 0 0 1.938.833q1.156 0 1.938-.833.782-.832.782-2.176 0-1.326-.782-2.159-.8-.85-1.938-.85-1.14 0-1.938.85-.782.833-.782 2.159m12.165 3.009q1.156 0 1.887-.833.765-.832.765-2.176 0-1.309-.765-2.159a2.4 2.4 0 0 0-1.887-.85q-1.122 0-1.887.85t-.765 2.159q0 1.326.765 2.159.765.85 1.887.85m-.051 5.1q-.697 0-1.31-.187a4.2 4.2 0 0 1-1.121-.493 3.7 3.7 0 0 1-.85-.765 3.2 3.2 0 0 1-.544-.986l1.479-.612q.254.73.884 1.173.628.442 1.462.442 1.275 0 1.989-.765t.714-2.108v-.799h-.068a3.1 3.1 0 0 1-1.207 1.054 3.6 3.6 0 0 1-1.632.374q-1.632 0-2.805-1.275-1.156-1.31-1.156-3.162 0-1.853 1.156-3.145 1.173-1.292 2.805-1.292.883 0 1.632.391a3 3 0 0 1 1.207 1.037h.068v-1.156h1.496v7.973q0 2.006-1.14 3.145-1.155 1.155-3.06 1.156m7.671-16.116v12.172h-1.564V20.772zM89.8 33.216q-1.836 0-3.026-1.258t-1.19-3.179q0-1.904 1.156-3.162 1.157-1.275 2.958-1.275 1.854 0 2.941 1.207 1.105 1.19 1.105 3.349l-.017.17h-6.545q.035 1.224.816 1.972a2.6 2.6 0 0 0 1.87.748q1.497 0 2.346-1.496l1.394.68a4.14 4.14 0 0 1-1.564 1.649q-.985.595-2.244.595m-2.499-5.44h4.777a2.03 2.03 0 0 0-.714-1.428q-.629-.578-1.7-.578a2.3 2.3 0 0 0-1.53.544q-.629.544-.833 1.462m13.445.238v4.93h-1.564V20.772h4.148q1.58 0 2.686 1.054 1.122 1.054 1.122 2.567 0 1.547-1.122 2.584-1.088 1.037-2.686 1.037zm0-5.746v4.25h2.618q.935 0 1.547-.629.629-.63.629-1.496 0-.85-.629-1.479-.612-.646-1.547-.646zm9.407-1.496v12.172h-1.564V20.772zm2.961 9.622q0 .612.51 1.02.528.408 1.224.408.987 0 1.751-.731.783-.731.782-1.717-.73-.578-2.04-.578-.951 0-1.598.459-.629.46-.629 1.139m2.023-6.052q1.734 0 2.737.935 1.003.918 1.003 2.533v5.134h-1.496v-1.156h-.068q-.969 1.428-2.584 1.428-1.377 0-2.312-.816a2.62 2.62 0 0 1-.918-2.04q0-1.292.969-2.057.987-.765 2.618-.765 1.395 0 2.295.51v-.357q0-.816-.646-1.377a2.2 2.2 0 0 0-1.513-.578q-1.309 0-2.074 1.105l-1.377-.867q1.14-1.632 3.366-1.632m12.784.272-5.219 12.002h-1.615l1.938-4.199-3.434-7.803h1.7l2.482 5.984h.034l2.414-5.984z" fill="#000" fill-opacity=".72"/><path d="M52.308 27.351q0 2.55-1.513 4.063-1.7 1.802-4.471 1.802-2.652 0-4.488-1.836T40 26.858t1.836-4.522 4.488-1.836q1.343 0 2.533.476t1.955 1.343l-1.122 1.122q-.56-.68-1.462-1.054a4.65 4.65 0 0 0-1.904-.391q-1.989 0-3.366 1.377-1.36 1.395-1.36 3.485 0 2.091 1.36 3.485 1.377 1.377 3.366 1.377 1.819 0 3.026-1.02 1.208-1.02 1.394-2.805h-4.42v-1.462h5.899q.085.476.085.918Zm1.069 1.428q0-1.92 1.207-3.179 1.224-1.258 3.077-1.258 1.854 0 3.06 1.258 1.224 1.258 1.224 3.179 0 1.938-1.224 3.179-1.206 1.258-3.06 1.258-1.852 0-3.077-1.258-1.207-1.258-1.207-3.179Zm1.564 0q0 1.342.782 2.176a2.55 2.55 0 0 0 1.938.833q1.156 0 1.938-.833.782-.832.782-2.176 0-1.326-.782-2.159-.798-.85-1.938-.85t-1.938.85q-.782.833-.782 2.159Zm7.949 0q0-1.92 1.207-3.179 1.224-1.258 3.077-1.258t3.06 1.258q1.224 1.258 1.224 3.179 0 1.938-1.224 3.179-1.207 1.258-3.06 1.258t-3.077-1.258Q62.89 30.7 62.89 28.779Zm1.564 0q0 1.342.782 2.176a2.55 2.55 0 0 0 1.938.833q1.156 0 1.938-.833.782-.832.782-2.176 0-1.326-.782-2.159-.8-.85-1.938-.85-1.14 0-1.938.85-.782.833-.782 2.159Zm12.165 3.009q1.156 0 1.887-.833.765-.832.765-2.176 0-1.309-.765-2.159a2.4 2.4 0 0 0-1.887-.85q-1.122 0-1.887.85t-.765 2.159q0 1.326.765 2.159.765.85 1.887.85Zm-.051 5.1q-.697 0-1.31-.187a4.2 4.2 0 0 1-1.121-.493 3.7 3.7 0 0 1-.85-.765 3.2 3.2 0 0 1-.544-.986l1.479-.612q.254.73.884 1.173.628.442 1.462.442 1.275 0 1.989-.765t.714-2.108v-.799h-.068a3.1 3.1 0 0 1-1.207 1.054 3.6 3.6 0 0 1-1.632.374q-1.632 0-2.805-1.275-1.156-1.31-1.156-3.162 0-1.853 1.156-3.145 1.173-1.292 2.805-1.292.883 0 1.632.391a3 3 0 0 1 1.207 1.037h.068v-1.156h1.496v7.973q0 2.006-1.14 3.145-1.155 1.155-3.06 1.156Zm7.67-16.116v12.172h-1.564V20.772zM89.8 33.216q-1.836 0-3.026-1.258t-1.19-3.179q0-1.904 1.156-3.162 1.157-1.275 2.958-1.275 1.854 0 2.941 1.207 1.105 1.19 1.105 3.349l-.017.17h-6.545q.035 1.224.816 1.972a2.6 2.6 0 0 0 1.87.748q1.497 0 2.346-1.496l1.394.68a4.14 4.14 0 0 1-1.564 1.649q-.985.595-2.244.595Zm-2.499-5.44h4.777a2.03 2.03 0 0 0-.714-1.428q-.629-.578-1.7-.578a2.3 2.3 0 0 0-1.53.544q-.629.544-.833 1.462Zm13.445.238v4.93h-1.564V20.772h4.148q1.58 0 2.686 1.054 1.122 1.054 1.122 2.567 0 1.547-1.122 2.584-1.088 1.037-2.686 1.037zm0-5.746v4.25h2.618q.935 0 1.547-.629.629-.63.629-1.496 0-.85-.629-1.479-.612-.646-1.547-.646zm9.407-1.496v12.172h-1.564V20.772zm2.961 9.622q0 .612.51 1.02.528.408 1.224.408.987 0 1.751-.731.783-.731.782-1.717-.73-.578-2.04-.578-.951 0-1.598.459-.629.46-.629 1.139Zm2.023-6.052q1.734 0 2.737.935 1.003.918 1.003 2.533v5.134h-1.496v-1.156h-.068q-.969 1.428-2.584 1.428-1.377 0-2.312-.816a2.62 2.62 0 0 1-.918-2.04q0-1.292.969-2.057.987-.765 2.618-.765 1.395 0 2.295.51v-.357q0-.816-.646-1.377a2.2 2.2 0 0 0-1.513-.578q-1.309 0-2.074 1.105l-1.377-.867q1.14-1.632 3.366-1.632Zm12.784.272-5.219 12.002h-1.615l1.938-4.199-3.434-7.803h1.7l2.482 5.984h.034l2.414-5.984z" stroke="#000" stroke-opacity=".72" stroke-width=".3" mask="url(#b)"/><defs><clipPath id="a"><path fill="#fff" d="M8 10.5h24v24H8z"/></clipPath></defs></svg>