<svg xmlns="http://www.w3.org/2000/svg" width="236" height="144" viewBox="0 0 236 144">
    <defs>
        <filter id="sb9g1gwmza">
            <feColorMatrix in="SourceGraphic" values="0 0 0 0 0.780392 0 0 0 0 0.898039 0 0 0 0 0.898039 0 0 0 1.000000 0"/>
        </filter>
    </defs>
    <g fill="none" fill-rule="evenodd">
        <g>
            <g>
                <g transform="translate(-62 -204) translate(16 204) translate(46)">
                    <rect width="234" height="142" x="1" y="1" fill="#FFF" stroke="#F2F2F2" stroke-width="2" rx="16"/>
                    <path fill="#84ABAE" d="M34 56H22c-3.309 0-6 2.585-6 5.762v10.476C16 75.415 18.691 78 22 78h12c3.309 0 6-2.585 6-5.762V61.762C40 58.585 37.308 56 34 56zm2.727 12.571h-3.272v-2.619c0-.288.244-.523.545-.523h2.727v3.142zm0-6.81v.525H34c-2.105 0-3.818 1.645-3.818 3.666v8.905h-4.364V59.143H34c1.504 0 2.727 1.175 2.727 2.619zM19.273 65.43h3.272v3.142h-3.272V65.43zM22 59.143h.545v3.143h-3.272v-.524c0-1.444 1.223-2.62 2.727-2.62zm-2.727 13.095v-.524h3.272v3.143H22c-1.504 0-2.727-1.175-2.727-2.619zM34 74.858h-.545v-3.144h3.272v.524c0 1.444-1.223 2.62-2.727 2.62zM16 0h204c8.837 0 16 7.163 16 16v14H0V16C0 7.163 7.163 0 16 0z"/>
                    <rect width="110" height="12" x="16" y="86" fill="#E3E4E3" rx="4"/>
                    <rect width="110" height="12" x="16" y="106" fill="#E3E4E3" rx="4"/>
                    <g>
                        <path fill="#F2F2F2" d="M78 9.255v71.49C78 85.856 73.856 90 68.745 90H9.255C4.144 90 0 85.856 0 80.745V9.255C0 4.144 4.144 0 9.255 0h59.49C73.856 0 78 4.144 78 9.255z" transform="translate(142 42)"/>
                        <g transform="translate(142 42) translate(15 9)">
                            <path fill="#84ABAE" d="M9.6 52.8h28.8c5.302 0 9.6 4.298 9.6 9.6V72H0v-9.6c0-5.302 4.298-9.6 9.6-9.6z"/>
                            <path fill="#FFF" d="M13.2 52.8L15.6 62.4 21.6 57.6 20.4 52.8zM34.8 52.8L32.4 62.4 26.4 57.6 27.6 52.8z"/>
                            <g filter="url(#sb9g1gwmza)">
                                <g fill="#FFCBBE" fill-rule="nonzero">
                                    <path d="M27.6 31.2l-6.351 6.351c-.47.47-1.229.47-1.698 0L13.2 31.2l1.2-14.4h12l1.2 14.4zM2.4 0h2.4v8.4H2.4C1.075 8.4 0 7.325 0 6V2.4C0 1.075 1.075 0 2.4 0z" transform="translate(3.6 21.6)"/>
                                    <path d="M38.4 0h2.4v8.4h-2.4C37.075 8.4 36 7.325 36 6V2.4C36 1.075 37.075 0 38.4 0z" transform="translate(3.6 21.6) rotate(-180 38.4 4.2)"/>
                                </g>
                            </g>
                            <rect width="31.2" height="45.6" x="8.4" y="2.4" fill="#C7E5E5" fill-rule="nonzero" rx="15.6"/>
                            <path fill="#84ABAE" d="M36.6 6c4.4 4.8 5.4 10.8 3 18v3c0 .331-.269.6-.6.6-.331 0-.6-.269-.6-.6v-4.295c-1.76-1.857-2.552-2.61-4.8-7.105-4.166 2.4-8.766 3.6-13.8 3.6-1.6 0-4.2-.4-7.8-1.2-.901 2.163-1.701 3.555-2.4 4.174V27c0 .331-.269.6-.6.6-.331 0-.6-.269-.6-.6v-4.575c-.335-.208-.635-.683-.9-1.425C6 16.8 6.6 7.8 12 3.6 17.4-.6 30-1.2 36.6 6z"/>
                        </g>
                    </g>
                </g>
            </g>
        </g>
    </g>
</svg>
