<svg xmlns="http://www.w3.org/2000/svg" width="138" height="40"><g fill="none" fill-rule="evenodd"><path stroke="var(--fill-color2)" d="M134 .5H4c-.966 0-1.841.392-2.475 1.025A3.495 3.495 0 00.5 4v32c0 .966.392 1.841 1.025 2.475A3.495 3.495 0 004 39.5h130c.966 0 1.841-.392 2.475-1.025A3.493 3.493 0 00137.5 36V4c0-.966-.392-1.841-1.025-2.475A3.495 3.495 0 00134 .5z"/><text fill="var(--fill-color1)" font-family="IBMPlexSans-Bold, IBM Plex Sans" font-size="12" font-weight="bold"><tspan x="40" y="16">Web terminal</tspan></text><text fill="var(--fill-color1)" font-family="IBMPlexSans, IBM Plex Sans" font-size="10"><tspan x="40" y="32">Real account</tspan></text><g fill-rule="nonzero"><path fill="var(--fill-color1)" d="M19.997 8C13.37 8 8 13.371 8 19.997c0 6.625 5.371 11.996 11.997 11.996 2.66 0 5.118-.867 7.107-2.332a.416.416 0 01-.286-.139l-1.964-2.196-1.059 1.624-.873-4.414 4.493 1.398-1.934.83 1.965 2.197a.418.418 0 01.098.36c2.714-2.2 4.45-5.56 4.45-9.325C31.993 13.371 26.621 8 19.996 8z"/><path d="M12.481 20.846l.11.611.012.004.135-.615.888-2.82h.611l.888 2.82.143.668h.012l.139-.668.713-2.82h.75l-1.28 4.409h-.611l-.872-2.718-.192-.786h-.012l-.183.786-.856 2.718h-.615l-1.28-4.409h.754zm6.316 0l.11.611.012.004.135-.615.888-2.82h.611l.889 2.82.142.668h.012l.139-.668.713-2.82h.75l-1.28 4.409h-.611l-.872-2.718-.192-.786h-.012l-.183.786-.856 2.718h-.615l-1.28-4.409h.754zm6.316 0l.11.611.012.004.135-.615.888-2.82h.611l.889 2.82.142.668h.012l.139-.668.713-2.82h.75l-1.28 4.409h-.611l-.872-2.718-.191-.786h-.013l-.183.786-.856 2.718h-.615l-1.279-4.409h.753z" fill="var(--fill-color3)"/></g></g></svg>