<svg width="22" height="23" fill="none" xmlns="http://www.w3.org/2000/svg"><path d="M-.001 20.138c.005 1.255 1.04 2.27 2.317 2.276H19.62a2.34 2.34 0 0 0 1.657-.656c.441-.428.69-1.011.69-1.62V3.108c0-.608-.249-1.191-.69-1.619a2.34 2.34 0 0 0-1.657-.656H2.276C1.012.855-.001 1.867-.001 3.109v17.03Zm18.973.373-16.037-.049a1.148 1.148 0 0 1-1.159-1.128v-2.11l3.745-3.923 3.375 3.374a.514.514 0 0 0 .74 0l6.1-5.993 4.414 4.561v4.15c-.005.302-.132.589-.353.799a1.17 1.17 0 0 1-.825.319ZM2.935 2.668h16.037c.64 0 1.158.509 1.158 1.137V12.9l-4.034-4.14a.514.514 0 0 0-.739 0l-6.091 5.955L5.9 11.427a.514.514 0 0 0-.74 0L1.777 14.94V3.805c0-.628.52-1.137 1.159-1.137Z" fill="#C7E5E5"/></svg>