<svg fill="none" viewBox="0 0 132 40" xmlns="http://www.w3.org/2000/svg"><path d="M0 4a4 4 0 0 1 4-4h124a4 4 0 0 1 4 4v32a4 4 0 0 1-4 4H4a4 4 0 0 1-4-4V4z" fill="#0E0E0E"/><g clip-path="url(#a)"><path d="M26.382 8H13.616a5.617 5.617 0 0 0-5.617 5.617v12.766A5.617 5.617 0 0 0 13.616 32h12.766a5.617 5.617 0 0 0 5.617-5.617V13.617A5.617 5.617 0 0 0 26.382 8z" fill="#C8102E"/><path d="m22.336 20-.712 2.247-.694-2.245h-.677l1.093 3.266h.527l.714-2.146.713 2.146h.531l1.091-3.266h-.66l-.695 2.245L22.855 20h-.519zm-3.784 0-1.382 3.266h.65l.267-.632.018-.048h1.437l.281.68h.667l-1.37-3.246-.011-.02h-.557zm10.01.001v3.263h.628v-3.263h-.628zm-18.01 0v3.268h.637v-1.327h1.437v1.327h.637v-3.267h-.637v1.318H11.19v-1.318h-.637zm5.658.001v1.87c0 .532-.254.816-.714.816-.462 0-.717-.292-.717-.838v-1.845h-.636v1.868c0 .92.49 1.446 1.345 1.446.863 0 1.358-.537 1.358-1.473v-1.843h-.636zm9.225.002v3.263h2.37v-.595h-1.742v-.81h1.158v-.594h-1.158v-.669h1.68v-.595h-2.308zm-6.613.824.454 1.094.03.075h-.962l.03-.075.448-1.094z" fill="#fff"/><path d="M19.88 15.959c-2.346 0-4.266-1.84-4.266-4.13h.6c0 1.94 1.631 3.53 3.666 3.53s3.667-1.59 3.667-3.53h.6c0 2.29-1.92 4.13-4.267 4.13z" clip-rule="evenodd" fill="#fff" fill-rule="evenodd"/></g><path d="M43.339 11.92V10.9h-2.11V9.395h1.963V8.384H41.23v-1.28h2.11V6.092h-3.34v5.828h3.34zm1.796 0 1.349-2.205 1.348 2.205h1.404l-1.959-2.938 1.82-2.89h-1.324l-1.226 2.096-1.249-2.097h-1.356l1.8 2.823-1.923 3.006h1.317zm6.06 0V9.847h.528c.719 0 1.274-.166 1.664-.498.39-.333.584-.812.584-1.44 0-.603-.183-1.057-.549-1.361-.366-.304-.9-.457-1.604-.457h-1.852v5.829h1.23zm.405-3.086h-.405v-1.73h.56c.335 0 .582.07.74.207.157.139.235.352.235.642 0 .287-.094.506-.281.656-.188.15-.471.225-.85.225zm7.047 3.086V10.9h-2.352V6.09h-1.229v5.829h3.581zm3.51.08c.888 0 1.57-.26 2.046-.778s.714-1.26.714-2.224c0-.968-.236-1.71-.708-2.225C63.737 6.257 63.056 6 62.165 6s-1.575.255-2.052.767-.716 1.253-.716 2.223.238 1.714.714 2.232 1.158.778 2.046.778zm0-1.037c-.49 0-.857-.165-1.103-.494s-.368-.82-.368-1.471c0-.651.124-1.143.372-1.473.249-.331.618-.497 1.107-.497.975 0 1.463.657 1.463 1.97 0 1.31-.49 1.965-1.471 1.965zm5.191.957V9.683h.655l1.384 2.237h1.364c-.264-.383-.833-1.23-1.705-2.54.343-.151.61-.36.797-.628s.281-.572.281-.914c0-.588-.189-1.026-.567-1.314s-.96-.433-1.749-.433h-1.69v5.829h1.23zm.397-3.241h-.397V7.104h.373c.397 0 .69.058.878.175.19.117.284.314.284.59 0 .28-.092.484-.277.614-.186.13-.473.196-.861.196zm7.075 3.241V10.9h-2.11V9.395h1.963V8.384H72.71v-1.28h2.11V6.091h-3.34v5.83h3.34zm4.549 0V6.091h-1.23v5.829h1.23zm3.696 0v-4.8h1.575V6.091H80.26V7.12h1.575v4.8h1.229zm7.08.08c.887 0 1.57-.26 2.046-.778s.713-1.26.713-2.224c0-.968-.236-1.71-.708-2.225C91.725 6.257 91.043 6 90.152 6s-1.575.255-2.052.767c-.478.512-.716 1.253-.716 2.223s.238 1.714.714 2.232 1.158.778 2.046.778zm0-1.037c-.49 0-.857-.165-1.103-.494s-.37-.82-.37-1.471c0-.651.125-1.143.374-1.473.248-.331.617-.497 1.106-.497.976 0 1.463.657 1.463 1.97 0 1.31-.49 1.965-1.47 1.965zm5.06.957V9.177c0-.332-.026-.888-.076-1.666h.036l2.522 4.409h1.563V6.091h-1.107v2.805c.002.32.022.84.06 1.56h-.028l-2.518-4.365h-1.551v5.829h1.099zM42.31 30.401l1.033-2.929h4.366l1.049 2.929h2.451l-4.524-11.563H44.43L40 30.401h2.31zm4.76-4.716h-3.097l1.088-3.065c.173-.51.323-1 .45-1.468.152.564.307 1.056.464 1.476l1.096 3.057zM52.123 34l2.27-.168v-3.519a5.381 5.381 0 0 0 1.585.264c.804 0 1.519-.184 2.144-.551.625-.367 1.115-.912 1.47-1.636s.532-1.599.532-2.625c0-.953-.148-1.74-.445-2.362-.297-.623-.686-1.08-1.167-1.37a3.004 3.004 0 0 0-1.58-.434c-.52 0-.994.116-1.42.347a4.035 4.035 0 0 0-1.142.938 6.76 6.76 0 0 0-.15-1.117h-2.16c.042.766.063 1.476.063 2.13V34zm3.563-5.107c-.231 0-.464-.025-.697-.076a2.62 2.62 0 0 1-.595-.196v-4.3a3.97 3.97 0 0 1 .855-.675c.286-.162.597-.243.934-.243.494 0 .89.196 1.186.59s.445 1.032.445 1.915c0 .98-.185 1.721-.555 2.227-.37.505-.895.758-1.573.758zM61.675 34l2.27-.168v-3.519a5.38 5.38 0 0 0 1.584.264c.804 0 1.519-.184 2.144-.551.626-.367 1.116-.912 1.47-1.636s.532-1.599.532-2.625c0-.953-.148-1.74-.445-2.362-.297-.623-.686-1.08-1.167-1.37a3.004 3.004 0 0 0-1.58-.434c-.52 0-.993.116-1.419.347a4.034 4.034 0 0 0-1.143.938 6.76 6.76 0 0 0-.15-1.117h-2.16c.043.766.064 1.476.064 2.13V34zm3.563-5.107c-.232 0-.464-.025-.698-.076a2.62 2.62 0 0 1-.595-.196v-4.3c.284-.288.569-.513.855-.675.286-.162.598-.243.934-.243.494 0 .89.196 1.186.59s.446 1.032.446 1.915c0 .98-.185 1.721-.556 2.227s-.895.758-1.573.758zm11.175 1.668c.726 0 1.452-.083 2.18-.248s1.423-.401 2.085-.71v-5.02H75.98v1.724h2.507v2.13a5.896 5.896 0 0 1-1.971.328c-.788 0-1.437-.175-1.947-.527s-.884-.83-1.123-1.44-.359-1.307-.359-2.095c0-.899.155-1.664.465-2.294.31-.63.748-1.108 1.313-1.432.565-.325 1.228-.487 1.99-.487.94 0 1.918.245 2.932.734l.52-1.74a8.248 8.248 0 0 0-3.57-.798c-1.125 0-2.14.225-3.047.675s-1.626 1.126-2.16 2.03c-.533.905-.8 2.014-.8 3.328 0 1.208.233 2.25.698 3.128a4.8 4.8 0 0 0 1.978 2.015c.854.466 1.857.699 3.007.699zm8.347 0c.588 0 1.114-.123 1.576-.367s.841-.543 1.135-.894c.016.388.063.755.142 1.101h2.144a30.734 30.734 0 0 1-.063-1.62v-3.455c0-1.362-.32-2.324-.961-2.885s-1.55-.842-2.728-.842c-.651 0-1.27.065-1.856.196-.586.13-1.06.277-1.423.442l.331 1.644c.368-.17.792-.316 1.273-.439.481-.122.929-.183 1.344-.183.568 0 1.004.14 1.309.423.304.282.457.76.457 1.436v.144a10.46 10.46 0 0 0-1.482-.104c-2.596 0-3.894.915-3.894 2.745 0 .58.122 1.07.367 1.469.244.399.57.696.977.893.407.197.858.296 1.352.296zm.717-1.676c-.347 0-.62-.092-.82-.275-.2-.184-.3-.465-.3-.842 0-.394.137-.708.41-.942.274-.234.768-.351 1.483-.351.31 0 .706.026 1.19.08v1.428c-.242.26-.544.476-.907.646-.362.17-.714.256-1.056.256zm8.346 1.676c.284 0 .582-.027.895-.08.313-.053.574-.125.784-.216l-.26-1.612a1.82 1.82 0 0 1-.56.104c-.246 0-.434-.07-.563-.211-.129-.141-.193-.385-.193-.73V18l-2.262.16v10.07c0 .804.182 1.393.548 1.768s.902.563 1.611.563zm4.87 0c.284 0 .583-.027.895-.08a3.48 3.48 0 0 0 .784-.216l-.26-1.612c-.21.07-.396.104-.56.104-.246 0-.434-.07-.563-.211-.129-.141-.193-.385-.193-.73V18l-2.262.16v10.07c0 .804.182 1.393.548 1.768s.902.563 1.612.563zm6.502 0c1.225 0 2.337-.24 3.335-.719l-.49-1.548a7.398 7.398 0 0 1-1.225.391 5.583 5.583 0 0 1-1.233.144c-.71 0-1.268-.186-1.675-.559s-.645-.973-.713-1.803h5.502v-.51c0-.804-.136-1.536-.406-2.195a3.495 3.495 0 0 0-1.247-1.577c-.558-.39-1.256-.586-2.091-.586-.8 0-1.505.182-2.117.547-.612.364-1.09.893-1.43 1.588-.343.694-.514 1.52-.514 2.477 0 1.384.364 2.454 1.092 3.212s1.798 1.138 3.212 1.138zm1.309-5.49h-3.272c.096-.623.29-1.089.585-1.397.294-.309.667-.463 1.119-.463.461 0 .83.156 1.106.467s.43.775.462 1.392zm5.997 5.33v-5.41c.374-.506.727-.866 1.06-1.082a2.11 2.11 0 0 1 1.17-.323c.227 0 .438.027.632.08l.284-1.963a2.694 2.694 0 0 0-.773-.104c-.373 0-.702.081-.99.243a2.74 2.74 0 0 0-.752.63 7.324 7.324 0 0 0-.662.962c-.01-.207-.03-.478-.06-.814-.028-.335-.058-.62-.09-.853h-2.143a53.8 53.8 0 0 1 .062 2.154v6.48h2.263zM116.9 34c.688 0 1.28-.124 1.778-.371.496-.247.926-.63 1.288-1.15.363-.518.69-1.203.986-2.054l3.05-8.658h-2.254l-1.482 4.668a24.61 24.61 0 0 0-.481 1.843c-.074-.484-.221-1.104-.441-1.859l-1.435-4.652h-2.444l3.114 8.762-.102.255c-.184.479-.433.845-.745 1.097a1.71 1.71 0 0 1-1.108.38c-.179 0-.375-.02-.588-.057a4.958 4.958 0 0 1-.484-.103l-.403 1.644c.185.064.433.122.746.175s.647.08 1.004.08z" fill="#fff"/><defs><clipPath id="a"><path transform="translate(8 8)" fill="#fff" d="M0 0h24v24H0z"/></clipPath></defs></svg>