<svg xmlns="http://www.w3.org/2000/svg" width="40" height="40" fill="none"><path d="M0 6c0-3.3 2.7-6 6-6h28c3.3 0 6 2.7 6 6v28c0 3.3-2.7 6-6 6H6c-3.3 0-6-2.7-6-6V6Z" fill="var(--general-section-1)"/><path d="M29.4 27.2c-.5-.5-.3-1.5-.9-2 .6-3.5-1-6.5-3-8.5-1.6-1.6-1-3.3-1-4.6 0-2.3-1-4.6-3.7-4.6-3 0-3.8 2.5-3.8 3.9-.1 3.3.7 4.2-1.3 6.7-2.3 2.9-2.7 5.7-2.1 7.3-.3.2-.6.6-1.2.8-1.7.8-.5 2-1 2.9-.1.2-.1.5-.1.8 0 .7.6 1.4 1.7 1.3 1.5-.1 2.9.9 3.8.9.8 0 1.4-.4 1.7-1 1.5-.4 3.2-.3 4.6 0 .3.7 1 1.2 1.8 1.2 1.6 0 2-1.9 3.9-2.6.7-.2 1.1-.9 1.1-1.5 0-.4-.2-.8-.5-1ZM20 16.4c-.4 0-.6-.3-1.1-.6-.5-.4-1.1-.7-1.1-1.1 0-.3.4-.4.9-.7.6-.3.8-.7 1.3-.7.6 0 .7.3 1.5.6.7.3 1.2.5 1.2.8 0 .4-.7.7-1.2.9-.6.4-.9.8-1.5.8Zm1.7-5.4c.9.1 1 1.7.6 2.5l-.4-.1c.2-.6.2-1.5-.5-1.6-.4 0-.6.5-.7 1-.1-.1-.3-.1-.5-.2.1-.9.7-1.7 1.5-1.6Zm-3.5.3c.7-.1 1.1.7 1.1 1.5l-.3.2c-.1-.4-.2-.9-.6-.8-.5.1-.4 1.1-.2 1.3l-.3.2c-.4-.7-.4-2.2.3-2.4ZM16 31.2c-2-.9-2.7-.7-3.1-.7-.8 0-1.1-.6-.8-1.2.3-.4.2-.9.1-1.4-.1-.6-.1-.8.5-1 .9-.4 1.2-.9 1.5-1.2.8-1 1.6.6 2.2 1.9.5.9 1.3 1.3 1.5 2.3.3.9-.7 1.9-1.9 1.3Zm7.2-1.9c-1.4.7-3.2 1-4.6.3-.2-.6-.5-1-.9-1.4.6-.1 1-.8.5-1.5s-1.6-1.3-2.7-2.1c-1-.8-1.3-2.7 0-4.9-.6 1.9-.2 3.7.1 4.2.1-1 .2-2.7 1.5-4.8.8-1 .8-2.4.8-3.2l.6.4c.5.4.9.8 1.5.8.8 0 1.3-.5 1.9-.9.2-.2.6-.3 1-.6.5 2.6 2.7 5.7 2.8 7.4.6-1-.1-3.6-.1-3.6.9 1.3.9 2.4 1 3.8.6.2 1.2.9 1.3 1.7h-.3c-.1-.9-2.7-2.3-2.9-.5-1.2.2-.8 2.1-1 3.4-.1.5-.3 1-.5 1.5Zm5-.1c-1 .4-1.7 1.3-2.2 1.8-.9 1-2.1.5-2.2-.4-.1-1 .4-1.6.6-2.7.2-1 0-2.6.4-2.8.3 1.9 2.2 1.1 2.6.6.7 0 .7.2.9.9.1.4.2.7.6 1.1.4.5.3 1.2-.7 1.5Zm-8.3-13.4c-.6 0-1.1-.5-1.5-.8-.2-.2 0-.5.2-.3.4.3.8.7 1.3.7.7 0 1.2-.6 2-.9.2-.1.4.3.1.4-.7.3-1.3.9-2.1.9Z" fill="var(--text-prominent)"/></svg>