<?xml version="1.0" encoding="UTF-8"?>
<svg viewBox="0 0 140 101" xmlns="http://www.w3.org/2000/svg">
<path d="m110.09 17.188-8.444 65.744-0.044 0.3465-0.186 1.447-0.112 0.8709-0.017 0.1356c-0.057 0.4359-0.171 0.8473-0.338 1.2286-0.081 0.1893-0.175 0.37-0.28 0.5433-0.518 0.8539-1.3067 1.5092-2.2267 1.8679h-0.0019c-0.8005 0.3145-1.7007 0.402-2.6085 0.2024l-27.758-6.1056c-2.8174-0.6204-4.7025-3.2839-4.3525-6.1498l8.4049-68.662c0.2408-1.9752 1.6791-3.4864 3.4711-3.9373l0.2342-0.05273c0.6115-0.12239 1.2615-0.12145 1.9134 0.02636l1.5502 0.34741 1.6218 0.36436 1.712 0.38413 0.9698 0.21749 5.6281 1.2644 16.516 3.7085c2.833 0.6374 4.716 3.3273 4.347 6.2092z" fill="#fff"/>
<path d="m96.808 89.869c-0.3396 0-0.6801-0.0367-1.0178-0.1111l-27.758-6.1055c-2.9283-0.645-4.8623-3.3781-4.4992-6.357l8.4059-68.662c0.2436-1.9978 1.6612-3.6059 3.6122-4.0974l0.2389-0.05367c0.6641-0.13275 1.3339-0.12333 1.9961 0.02637l11.482 2.5778 16.516 3.7086c2.945 0.6628 4.876 3.4213 4.493 6.4172l-8.444 65.744-0.359 2.7991c-0.059 0.4482-0.177 0.8784-0.352 1.2804-0.082 0.1912-0.18 0.3813-0.292 0.5659-0.532 0.8775-1.3533 1.5676-2.3118 1.9432-0.0028 1e-3 -0.0057 0.0028-0.0085 0.0038-0.5446 0.2137-1.1203 0.321-1.6998 0.321h-0.0019zm-20.084-85.103c-0.2869 0-0.5729 0.02825-0.856 0.08474l-0.2295 0.05178c-1.7939 0.45192-3.1014 1.9338-3.3253 3.7763l-8.4059 68.663c-0.3406 2.785 1.4684 5.3402 4.2057 5.9427l27.758 6.1056c0.8382 0.1846 1.7008 0.1186 2.4937-0.1902 0.0029-9e-4 0.0057-0.0028 0.0085-0.0037 0.8852-0.3456 1.6427-0.9811 2.1347-1.7898 0.102-0.1695 0.193-0.3437 0.268-0.5197 0.162-0.371 0.271-0.7673 0.324-1.1788l0.129-1.0064 0.231-1.7936 8.443-65.744c0.36-2.8019-1.447-5.3816-4.201-6.0011l-26.448-5.939-1.5502-0.34741c-0.3255-0.07344-0.6528-0.11015-0.9793-0.11015l-9e-4 -9.5e-4z"/>
<path d="m118.5 15.3-8.444 65.744-0.23 1.7936-0.112 0.8708-0.017 0.1356c-0.084 0.6506-0.3 1.2484-0.618 1.7719-0.518 0.8539-1.307 1.5092-2.227 1.8679h-1e-3c-0.325 0.129-0.667 0.2185-1.019 0.2665h-6e-3l-7.3813 1.6231c0.9199-0.3587 1.7083-1.014 2.2263-1.8679 0.106-0.1732 0.2-0.354 0.281-0.5433 0.166-0.3813 0.281-0.7927 0.337-1.2286l0.017-0.1356 0.112-0.8709 0.186-1.447 0.045-0.3465 8.443-65.744c0.37-2.8819-1.513-5.5717-4.347-6.2091l-16.516-3.7086-3.8219-0.85864-1.8061-0.40579-0.9699-0.21748-1.712-0.38413-1.6217-0.36436-1.5503-0.34741c-0.6519-0.14781-1.3019-0.14876-1.9133-0.02636l8.1735-1.8369 0.1562-0.03671 0.0179-0.00377c0.6293-0.13463 1.3-0.1384 1.9735 0.01412l1.5502 0.34741 3.3338 0.74849 0.9698 0.21749 5.6281 1.2644 16.516 3.7086c2.833 0.63739 4.717 3.3272 4.347 6.2091z" fill="#EBECEE"/>
<path d="m98.441 89.561c-0.0809 0-0.1552-0.0528-0.1796-0.1337-0.0283-0.0942 0.0207-0.194 0.1119-0.2298 0.8852-0.3446 1.6429-0.981 2.1349-1.7897 0.102-0.1695 0.192-0.3437 0.268-0.5198 0.161-0.3709 0.271-0.7673 0.324-1.1787l0.129-1.0065 0.23-1.7935 8.444-65.744c0.359-2.8019-1.447-5.3816-4.201-6.0011l-26.448-5.9389-1.5502-0.34741c-0.6105-0.1384-1.2285-0.14687-1.8353-0.02542-0.1006 0.02071-0.1994-0.04425-0.221-0.14593-0.0217-0.10168 0.0423-0.20054 0.143-0.22313l8.1735-1.8369 0.1769-0.04142c0.6782-0.14499 1.3696-0.14029 2.0535 0.01506l11.482 2.5778 16.516 3.7085c2.946 0.66282 4.877 3.4214 4.493 6.4173l-8.443 65.744-0.36 2.7991c-0.085 0.6619-0.302 1.2833-0.644 1.8463-0.533 0.8784-1.355 1.5685-2.314 1.9442-2e-3 0-4e-3 0.0018-6e-3 0.0028-0.338 0.1337-0.696 0.2269-1.062 0.2768l-7.3719 1.6203c-0.0132 0.0028-0.0273 0.0047-0.0404 0.0047l-0.0029-9e-4zm-20.863-85.093c0.0697 0.01224 0.1383 0.02636 0.2079 0.04237l11.482 2.5778 16.517 3.7085c2.945 0.6628 4.876 3.4214 4.492 6.4172l-8.443 65.744-0.359 2.7991c-0.059 0.4481-0.177 0.8784-0.352 1.2804-0.082 0.1911-0.18 0.3813-0.292 0.5658-0.309 0.5094-0.716 0.9557-1.1898 1.3144l6.1448-1.3501s6e-3 -1e-3 0.01-0.0019c2e-3 0 9e-3 -0.0019 0.01-0.0019 0.335-0.0461 0.662-0.1309 0.971-0.2523 3e-3 -1e-3 5e-3 -0.0019 7e-3 -0.0028 0.885-0.3456 1.642-0.9811 2.134-1.7908 0.315-0.5178 0.514-1.0893 0.593-1.6984l0.129-1.0065 8.674-67.537c0.359-2.8019-1.447-5.3816-4.201-6.0011l-27.999-6.2864c-0.6312-0.1431-1.2681-0.14781-1.8927-0.01412l-0.1703 0.03954-6.469 1.4537-0.0038 9.4e-4z"/>
<path d="m100.62 40.376c-8e-3 -0.0011-0.016-0.0022-0.023-0.0043l-21.353-5.4646c-0.1114-0.0282-0.1783-0.1414-0.15-0.2528 0.0282-0.1114 0.1414-0.1783 0.2528-0.15l21.354 5.4646c0.111 0.0283 0.178 0.1415 0.15 0.2528-0.026 0.1033-0.127 0.1689-0.229 0.1544l-1e-3 -1e-4z"/>
<path d="m101.96 30.234c-7e-3 -0.0011-0.016-0.0022-0.023-0.0043l-21.353-5.4646c-0.1114-0.0282-0.1783-0.1414-0.15-0.2528 0.0282-0.1114 0.1414-0.1783 0.2528-0.15l21.353 5.4646c0.112 0.0283 0.178 0.1415 0.15 0.2528-0.026 0.1033-0.126 0.1689-0.229 0.1544l-1e-3 -1e-4z"/>
<path d="m99.928 45.27c-0.0072-1e-3 -0.0154-0.0022-0.0224-0.0042l-21.354-5.4646c-0.1114-0.0283-0.1783-0.1415-0.15-0.2529 0.0283-0.1113 0.1415-0.1782 0.2528-0.15l21.353 5.4646c0.112 0.0283 0.179 0.1415 0.15 0.2529-0.026 0.1033-0.126 0.1688-0.2288 0.1543l-0.0011-1e-4z"/>
<path d="m102.67 25.257c-7e-3 -1e-3 -0.016-0.0022-0.023-0.0042l-21.353-5.4646c-0.1114-0.0283-0.1783-0.1415-0.15-0.2528 0.0283-0.1114 0.1415-0.1783 0.2528-0.15l21.353 5.4646c0.112 0.0282 0.178 0.1414 0.15 0.2528-0.026 0.1033-0.126 0.1688-0.229 0.1544l-1e-3 -2e-4z"/>
<path d="m93.816 48.718c-0.0072-1e-3 -0.0154-0.0022-0.0225-0.0042l-15.927-4.0758c-0.1113-0.0283-0.1782-0.1415-0.15-0.2529 0.0283-0.1113 0.1415-0.1782 0.2529-0.15l15.927 4.0759c0.1113 0.0282 0.1782 0.1414 0.15 0.2528-0.0261 0.1033-0.1265 0.1688-0.2294 0.1543l-1e-3 -1e-4z"/>
<path d="m95.83 33.824c-0.0072-1e-3 -0.0154-0.0022-0.0225-0.0042l-15.927-4.0759c-0.1113-0.0282-0.1782-0.1414-0.15-0.2528 0.0283-0.1114 0.1415-0.1782 0.2529-0.15l15.927 4.0758c0.1113 0.0283 0.1782 0.1415 0.15 0.2529-0.0261 0.1032-0.1266 0.1688-0.2294 0.1543l-1e-3 -1e-4z"/>
<path d="m91.5 25.819-8.4435 65.744-0.0442 0.3465-0.1863 1.4471-0.1119 0.8709-0.0169 0.1355c-0.0565 0.436-0.1712 0.8474-0.3377 1.2287-0.0809 0.1892-0.175 0.37-0.2804 0.5432-0.5183 0.854-1.3066 1.5093-2.2265 1.868h-0.0019c-0.8005 0.3144-1.7008 0.402-2.6085 0.2024l-27.758-6.1056c-2.8173-0.6205-4.7024-3.2839-4.3525-6.1498l8.405-68.662c0.2408-1.9752 1.6791-3.4863 3.4711-3.9373l0.2342-0.0527c0.6114-0.1224 1.2614-0.1215 1.9133 0.0264l1.5503 0.3474 1.6217 0.3643 1.712 0.3842 0.9699 0.2174 5.628 1.2645 16.516 3.7085c2.8333 0.6374 4.7165 3.3272 4.3468 6.2092z" fill="#fff"/>
<path d="m78.219 98.5c-0.3396 0-0.6802-0.0367-1.0179-0.1111l-27.758-6.1056c-2.9284-0.6449-4.8624-3.3781-4.4993-6.357l8.4059-68.662c0.2436-1.9978 1.6612-3.6059 3.6122-4.0973l0.2389-0.0537c0.6642-0.1328 1.3339-0.1233 1.9962 0.0264l11.482 2.5778 16.516 3.7085c2.9453 0.6628 4.8765 3.4214 4.4927 6.4172l-8.4435 65.744-0.3594 2.7991c-0.0583 0.4481-0.1768 0.8784-0.3518 1.2804-0.0818 0.1911-0.1797 0.3813-0.2916 0.5658-0.5324 0.8775-1.3536 1.5676-2.3122 1.9433-0.0028 9e-4 -0.0056 0.0028-0.0085 0.0038-0.5446 0.2137-1.1203 0.321-1.6998 0.321h-0.0018zm-20.084-85.104c-0.2869 0-0.5728 0.0282-0.856 0.0847l-0.2295 0.0518c-1.7939 0.4519-3.1014 1.9338-3.3253 3.7763l-8.4059 68.663c-0.3405 2.7849 1.4684 5.3401 4.2058 5.9427l27.758 6.1056c0.8382 0.1845 1.7008 0.1186 2.4938-0.1902 0.0028-9e-4 0.0056-0.0028 0.0084-0.0038 0.8852-0.3455 1.6425-0.981 2.1344-1.7897 0.1026-0.1695 0.1929-0.3437 0.2681-0.5198 0.1618-0.3709 0.2709-0.7673 0.3246-1.1787l0.1288-1.0065 0.2305-1.7935 8.4435-65.744c0.3594-2.8019-1.4467-5.3816-4.201-6.0011l-26.448-5.9389-1.5503-0.3474c-0.3254-0.0735-0.6528-0.1102-0.9792-0.1102l-1e-3 -9e-4z"/>
<path d="m99.907 23.93-8.4435 65.744-0.2304 1.7935-0.112 0.8709-0.0169 0.1356c-0.0837 0.6506-0.3001 1.2484-0.618 1.7719-0.5184 0.8539-1.3066 1.5092-2.2266 1.8679h-0.0019c-0.3245 0.129-0.6669 0.2184-1.0188 0.2665h-0.0056l-7.3815 1.6231c0.92-0.3587 1.7083-1.014 2.2266-1.8679 0.1053-0.1733 0.1994-0.354 0.2803-0.5433 0.1665-0.3813 0.2813-0.7927 0.3377-1.2286l0.0169-0.1356 0.112-0.8709 0.1862-1.4471 0.0442-0.3464 8.4436-65.744c0.3697-2.8819-1.5136-5.5718-4.3469-6.2092l-16.516-3.7085-3.822-0.8586-1.8061-0.4058-0.9698-0.2175-1.7121-0.3841-1.6217-0.3644-1.5502-0.3474c-0.6519-0.1478-1.3019-0.1488-1.9134-0.0264l8.1736-1.8368 0.1561-0.0367 0.0179-0.0038c0.6293-0.1346 1.3-0.1384 1.9735 0.0141l1.5503 0.3474 3.3337 0.7485 0.9699 0.2175 5.6281 1.2644 16.516 3.7086c2.8333 0.6374 4.7168 3.3272 4.3468 6.2091z" fill="#EBECEE"/>
<path d="m79.852 98.19c-0.0809 0-0.1552-0.0527-0.1797-0.1337-0.0282-0.0941 0.0207-0.1939 0.1119-0.2297 0.8852-0.3446 1.6425-0.981 2.1344-1.7898 0.1026-0.1694 0.1929-0.3436 0.2681-0.5197 0.1618-0.3709 0.2709-0.7673 0.3246-1.1787l0.1288-1.0065 0.2305-1.7935 8.4435-65.744c0.3594-2.8019-1.4467-5.3816-4.201-6.0011l-26.448-5.9389-1.5503-0.3474c-0.6105-0.1384-1.2285-0.1469-1.8352-0.0255-0.1007 0.0208-0.1995-0.0442-0.2211-0.1459s0.0423-0.2005 0.143-0.2231l8.1735-1.8369 0.1769-0.0414c0.6782-0.145 1.3696-0.1403 2.0535 0.0151l11.482 2.5778 16.516 3.7085c2.9453 0.6628 4.8764 3.4214 4.4924 6.4172l-8.4432 65.744-0.3594 2.7991c-0.0856 0.6618-0.3019 1.2832-0.6443 1.8463-0.5334 0.8784-1.3546 1.5685-2.3141 1.9441-0.0019 0-0.0038 0.0019-0.0056 0.0029-0.3387 0.1337-0.6961 0.2269-1.0621 0.2768l-7.3721 1.6203c-0.0131 0.0028-0.0272 0.0047-0.0404 0.0047l-0.0028-1e-3zm-20.863-85.093c0.0696 0.0122 0.1383 0.0263 0.2079 0.0423l11.482 2.5779 16.516 3.7085c2.9453 0.6628 4.8765 3.4214 4.4927 6.4172l-8.4435 65.744-0.3594 2.7991c-0.0583 0.4481-0.1768 0.8784-0.3518 1.2804-0.0818 0.1911-0.1797 0.3813-0.2916 0.5658-0.3095 0.5094-0.7159 0.9556-1.19 1.3144l6.1445-1.3502s0.0066-9e-4 0.0104-0.0018c0.0019 0 0.0085-0.0019 0.0103-0.0019 0.3349-0.0461 0.6613-0.1309 0.9708-0.2523 0.0028-1e-3 0.0047-0.0019 0.0066-0.0029 0.8852-0.3455 1.6424-0.981 2.1344-1.7907 0.3151-0.5178 0.5136-1.0893 0.5926-1.6984l0.1289-1.0065 8.674-67.537c0.3592-2.8019-1.4468-5.3816-4.2011-6.0011l-27.998-6.2864c-0.6312-0.1431-1.268-0.1478-1.8927-0.0141l-0.1702 0.0396-6.4691 1.4536-0.0037 1e-3z"/>
<path d="m78.709 49.006c-0.0072-1e-3 -0.0154-0.0021-0.0225-0.0042l-21.353-5.4646c-0.1114-0.0282-0.1783-0.1415-0.15-0.2528 0.0282-0.1114 0.1414-0.1783 0.2528-0.15l21.353 5.4646c0.1114 0.0283 0.1783 0.1415 0.15 0.2528-0.026 0.1033-0.1265 0.1689-0.2293 0.1544l-1e-3 -2e-4z"/>
<path d="m80.055 38.865c-0.0072-1e-3 -0.0154-0.0022-0.0225-0.0042l-21.353-5.4646c-0.1114-0.0283-0.1783-0.1415-0.15-0.2528 0.0282-0.1114 0.1414-0.1783 0.2528-0.15l21.354 5.4646c0.1113 0.0282 0.1782 0.1414 0.15 0.2528-0.0261 0.1033-0.1266 0.1688-0.2294 0.1544l-1e-3 -2e-4z"/>
<path d="m78.02 53.901c-0.0072-1e-3 -0.0154-0.0021-0.0224-0.0042l-21.354-5.4646c-0.1114-0.0282-0.1783-0.1415-0.15-0.2528 0.0283-0.1114 0.1415-0.1783 0.2528-0.15l21.354 5.4646c0.1114 0.0283 0.1783 0.1415 0.15 0.2528-0.0261 0.1033-0.1265 0.1689-0.2293 0.1544l-0.0011-2e-4z"/>
<path d="m80.762 33.886c-0.0072-1e-3 -0.0154-0.0022-0.0224-0.0042l-21.354-5.4646c-0.1114-0.0283-0.1783-0.1415-0.15-0.2529 0.0283-0.1113 0.1415-0.1782 0.2528-0.15l21.354 5.4646c0.1114 0.0283 0.1782 0.1415 0.15 0.2529-0.0261 0.1033-0.1265 0.1688-0.2293 0.1543l-0.0011-1e-4z"/>
<path d="m71.908 57.349c-0.0072-0.0011-0.0154-0.0022-0.0225-0.0043l-15.927-4.0758c-0.1113-0.0282-0.1782-0.1414-0.15-0.2528 0.0283-0.1114 0.1415-0.1783 0.2529-0.15l15.927 4.0758c0.1113 0.0283 0.1782 0.1415 0.15 0.2528-0.0261 0.1033-0.1265 0.1689-0.2294 0.1544l-1e-3 -1e-4z"/>
<path d="m73.921 42.455c-0.0072-1e-3 -0.0154-0.0021-0.0225-0.0042l-15.927-4.0758c-0.1113-0.0283-0.1782-0.1415-0.15-0.2528 0.0283-0.1114 0.1415-0.1783 0.2529-0.15l15.927 4.0758c0.1113 0.0282 0.1782 0.1415 0.15 0.2528-0.0261 0.1033-0.1266 0.1688-0.2294 0.1544l-1e-3 -2e-4z"/>
<path d="m21.036 55.212c2.1896-1.6424 6.567-4.9289 6.567-4.9289s7.7977 2.9779 11.697 4.4677c-0.2007 0.1492-0.4013 0.2983-0.602 0.4475-0.0036 2.2544-0.0089 4.5089-0.0124 6.7633-9.0017-3.4408-8.6465-3.3088-17.648-6.7496h-0.0018z" fill="#FF444F" stroke="#000" stroke-linecap="round" stroke-linejoin="round" stroke-width=".5"/>
<path d="m38.695 55.198c2.2109-1.639 4.4236-3.2762 6.6345-4.9152 4.5035 6.2524 9.0088 12.503 13.512 18.756-2.1932 1.6389-4.3846 3.2762-6.5777 4.9152-4.523-6.2525-9.0461-12.503-13.569-18.756z" fill="#FF444F" stroke="#000" stroke-linecap="round" stroke-linejoin="round" stroke-width=".5"/>
<path d="m21.036 55.212c9.0017 3.4409 8.6465 3.3088 17.648 6.7496 0.0035-2.2544 0.0088-4.5088 0.0124-6.7633 4.523 6.2525 9.046 12.503 13.569 18.756-4.5195 2.8048-9.039 5.6078-13.558 8.4126-0.0053-2.2528-0.0106-4.5055-0.0142-6.7582-9.0176-3.4631-8.6749-3.3516-17.692-6.813 0.0124-4.5278 0.0249-9.0538 0.0373-13.582l-0.0018-0.0018z" fill="#FF7E88" stroke="#000" stroke-linecap="round" stroke-linejoin="round" stroke-width=".5"/>
<path d="m76.015 79.483-3.3627 1.8844-0.3264-2.8862-0.4408-3.9105 3.3627-1.8844 0.7672 6.7967z" fill="#EBECEE"/>
<path d="m72.652 81.556c-0.0291 0-0.0591-0.0066-0.0853-0.0206-0.0563-0.0291-0.0938-0.0835-0.1004-0.1454l-0.7673-6.7967c-0.0084-0.075 0.0291-0.1482 0.0948-0.1847l3.3636-1.8845c0.0544-0.0309 0.121-0.0319 0.1773-0.0028 0.0562 0.0291 0.0938 0.0835 0.1003 0.1454l0.7673 6.7967c0.0084 0.075-0.0291 0.1482-0.0947 0.1847l-3.3627 1.8845c-0.0282 0.0159-0.0601 0.0234-0.092 0.0234h-9e-4zm-0.5675-6.882 0.7223 6.3924 3.0072-1.6856-0.7213-6.3924-3.0082 1.6856z"/>
<path d="m74.743 84.823-1.6368 3.9348-3.3618 1.8845 2.4341-5.854 0.4831 0.0066 2.0814 0.0281z" fill="#EBECEE"/>
<path d="m69.744 90.83c-0.0451 0-0.0892-0.016-0.1248-0.0479-0.06-0.0534-0.0788-0.1379-0.0488-0.212l2.435-5.8539c0.0291-0.0713 0.0995-0.1135 0.1754-0.1154l2.5645 0.0347c0.0619 0 0.1201 0.0328 0.1538 0.0844 0.0338 0.0516 0.0404 0.1173 0.0169 0.1754l-1.6368 3.9349c-0.0159 0.0384-0.045 0.0713-0.0816 0.0919l-3.3627 1.8844c-0.029 0.016-0.06 0.0235-0.0919 0.0235h1e-3zm2.5588-5.8521-2.1771 5.2358 2.8327-1.5871 1.5055-3.6187-2.1602-0.0291-9e-4 -9e-4z"/>
<path d="m78.45 84.875-3.7069-0.0506-2.0814-0.0282-0.4831-0.0066-2.4341 5.854-0.7682-6.8304-5.7883-3.524 6.262 0.0854 0.0685-0.1642 0.7372-1.7559 1.6293-3.8823 0.4409 3.9104 0.3264 2.8862 2.8186 1.7043 2.9791 1.8019z" fill="#fff"/>
<path d="m69.744 90.831c-0.0084 0-0.0178 0-0.0262-0.0019-0.0844-0.0121-0.1501-0.0797-0.1604-0.165l-0.757-6.7395-5.7095-3.4761c-0.0722-0.0441-0.106-0.1304-0.0825-0.212 0.0234-0.0816 0.0984-0.1323 0.1829-0.136l6.1353 0.0834 0.7561-1.8028 1.6292-3.8823c0.0329-0.0788 0.1154-0.1257 0.1998-0.1135s0.1501 0.0797 0.1595 0.1642l0.7569 6.7056 5.7189 3.4574c0.0723 0.0441 0.107 0.1304 0.0835 0.212-0.0234 0.0807-0.0966 0.136-0.1801 0.136h-0.0028l-6.1447-0.0835-2.3863 5.7368c-0.029 0.0703-0.0985 0.1153-0.1735 0.1153l9e-4 0.0019zm-5.8718-10.345 5.2021 3.1666c0.0497 0.03 0.0826 0.0816 0.0891 0.1388l0.6866 6.1091 2.1555-5.1842c0.0291-0.0713 0.0995-0.1135 0.1754-0.1154l5.581 0.076-5.2067-3.1479c-0.0497-0.03-0.0826-0.0816-0.0891-0.1398l-0.6866-6.0809-2.1555 5.1383c-0.0291 0.0703-0.0976 0.1154-0.1735 0.1154h-0.0029l-5.5754-0.076z"/>
<path d="m81.812 82.989-3.3626 1.8853-2.9791-1.8019-2.8186-1.7043 3.3626-1.8844 5.7977 3.5053z" fill="#EBECEE"/>
<path d="m78.449 85.06c-0.0338 0-0.0676-0.0094-0.0966-0.0272l-5.7977-3.5053c-0.0573-0.0347-0.092-0.0966-0.0901-0.1641 1e-3 -0.0666 0.0375-0.1276 0.0957-0.1604l3.3627-1.8844c0.0591-0.0329 0.1313-0.0319 0.1885 0.0028l5.7977 3.5052c0.0572 0.0347 0.0919 0.0966 0.0901 0.1642-1e-3 0.0666-0.0376 0.1275-0.0957 0.1604l-3.3627 1.8853c-0.0281 0.016-0.06 0.0244-0.0919 0.0244v-9e-4zm-5.4253-3.6863 5.429 3.282 2.9866-1.6743-5.4291-3.282-2.9865 1.6734v9e-4z"/>
<path d="m70.256 78.455-0.7372 1.7559-0.0685 0.1641-6.262-0.0853 3.3636-1.8844 3.7041 0.0497z" fill="#EBECEE"/>
<path d="m69.45 80.563h-0.0028l-6.262-0.0854c-0.0845-9e-4 -0.1586-0.0591-0.1792-0.1416s0.016-0.1679 0.0901-0.2101l3.3636-1.8854c0.029-0.0159 0.0609-0.0234 0.0947-0.0234l3.7041 0.0506c0.0619 0 0.1201 0.0329 0.1548 0.0845 0.0337 0.0525 0.0403 0.1182 0.0159 0.1754l-0.8048 1.9191c-0.029 0.0703-0.0975 0.1154-0.1735 0.1154l-9e-4 9e-4zm-5.5604-0.4512 5.4366 0.0741 0.649-1.5467-3.3758-0.046-2.7098 1.5186z"/>
</svg>
