<svg width="49" height="48" viewBox="0 0 49 48" fill="none" xmlns="http://www.w3.org/2000/svg">
<path d="M32.4395 45C31.6613 45 31.0332 44.33 31.0332 43.5V37.5C31.0332 36.67 30.4051 36 29.627 36H18.377C17.5988 36 16.9707 36.67 16.9707 37.5V43.5C16.9707 44.33 16.3426 45 15.5645 45C14.7863 45 14.1582 45.67 14.1582 46.5C14.1582 47.33 14.7863 48 15.5645 48H32.4395C33.2176 48 33.8457 47.33 33.8457 46.5C33.8457 45.67 33.2176 45 32.4395 45Z" fill="#A8D0C8"/>
<path d="M43.9395 0H4.37695C2.04258 0 0.158203 2.01 0.158203 4.5V34.5C0.158203 36.99 2.04258 39 4.37695 39H43.9395C46.2738 39 48.1582 36.99 48.1582 34.5V4.5C48.1582 2.01 46.2738 0 43.9395 0Z" fill="#064E72"/>
</svg>
