<svg width="17" height="16" fill="none" xmlns="http://www.w3.org/2000/svg"><path d="M7.935 9.713c0 1.346-.7 2.193-1.82 2.193s-1.822-.852-1.822-2.193c0-1.35.701-2.198 1.821-2.198s1.821.847 1.821 2.198zm1.563-4.748l-.49.033c-.277.018-.4.117-.4.296 0 .188.156.292.372.292.296 0 .518-.193.518-.452v-.17zM16.5 8c0 4.466-3.534 8-8 8s-8-3.534-8-8 3.534-8 8-8 8 3.534 8 8zm-6.146-3.134c0 .65.358 1.045.941 1.045.494 0 .805-.278.857-.673h-.386c-.052.216-.221.334-.47.334-.33 0-.532-.268-.532-.706 0-.433.202-.692.531-.692.264 0 .428.15.47.344h.387c-.052-.386-.353-.678-.857-.678-.583-.005-.94.39-.94 1.026zm-5.379-.988v1.995h.396V4.649c0-.258.183-.465.423-.465.235 0 .386.14.386.367v1.322h.386V4.612c0-.24.165-.428.423-.428.26 0 .386.131.386.409v1.28h.396V4.494c0-.414-.236-.659-.64-.659-.278 0-.509.141-.607.358H6.49a.563.563 0 00-.551-.358c-.268 0-.47.132-.555.358h-.029v-.32l-.38.005zm3.661 5.835c0-1.737-.969-2.828-2.522-2.828S3.592 7.976 3.592 9.713c0 1.736.97 2.824 2.522 2.824 1.553 0 2.522-1.092 2.522-2.824zm.245-3.807c.264 0 .48-.113.603-.315h.032v.282h.382V4.508c0-.419-.283-.668-.786-.668-.457 0-.777.221-.82.555h.382c.042-.146.198-.226.419-.226.268 0 .41.123.41.344v.174l-.542.033c-.475.028-.743.235-.743.598-.005.357.277.588.663.588zm4.316 4.983c0-.776-.452-1.228-1.591-1.477l-.607-.132c-.748-.165-1.04-.461-1.04-.89 0-.555.527-.889 1.21-.889.714 0 1.185.367 1.246.97h.683c-.033-.927-.82-1.582-1.91-1.582-1.135 0-1.93.636-1.93 1.535 0 .776.475 1.275 1.571 1.515l.607.132c.758.164 1.064.47 1.064.927 0 .536-.541.927-1.28.927-.786 0-1.332-.358-1.412-.946h-.682c.066.946.861 1.558 2.056 1.558 1.22 0 2.014-.636 2.014-1.648z" fill="#333"/></svg>