<svg xmlns="http://www.w3.org/2000/svg" width="20" height="20" fill="none"><path fill="var(--fill-color1)" fill-rule="evenodd" d="M7.031 6.165a1.5 1.5 0 0 1 1.938 0l5.854 4.953a.5.5 0 1 1-.646.764L13 10.886V16.5a1.5 1.5 0 0 1-1.5 1.5h-7A1.5 1.5 0 0 1 3 16.5v-5.614l-1.177.996a.5.5 0 1 1-.646-.764l5.854-4.953ZM4 10.04v6.46a.5.5 0 0 0 .5.5H6v-2.5A1.5 1.5 0 0 1 7.5 13h1a1.5 1.5 0 0 1 1.5 1.5V17h1.5a.5.5 0 0 0 .5-.5v-6.46L8.323 6.928a.5.5 0 0 0-.646 0L4 10.04ZM9 17v-2.5a.5.5 0 0 0-.5-.5h-1a.5.5 0 0 0-.5.5V17h2Z" clip-rule="evenodd"/><circle cx="16" cy="4" r="4" fill="#FFAD3A"/><path fill="#fff" fill-rule="evenodd" d="M16 6.25a2.25 2.25 0 1 0 0-4.5 2.25 2.25 0 0 0 0 4.5ZM16 7a3 3 0 1 0 0-6 3 3 0 0 0 0 6Z" clip-rule="evenodd"/><path fill="#fff" fill-rule="evenodd" d="M16 2.5c.207 0 .375.168.375.375v.75h.75a.375.375 0 0 1 0 .75H16A.375.375 0 0 1 15.625 4V2.875c0-.207.168-.375.375-.375Z" clip-rule="evenodd"/></svg>