<svg width="24" height="24" viewBox="0 0 24 24" fill="none" xmlns="http://www.w3.org/2000/svg"><rect x=".5" y=".5" width="23" height="23" rx="7.5" stroke="#000"/><g clip-path="url(#a)"><path d="M6.844 14.96c.11-.343.289-.632.539-.866l7.125-7.149a1.536 1.536 0 0 1 1.055-.422c.406 0 .757.141 1.054.422l.938.938.187.234a1.5 1.5 0 0 1 .235.961 1.504 1.504 0 0 1-.422.914l-7.125 7.125-.094.094c-.234.203-.5.352-.797.445l-1.828.54-.984.28a.535.535 0 0 1-.563-.14.535.535 0 0 1-.14-.563l.28-.984.54-1.828Zm1.078.306-.14.562-.4 1.29 1.29-.376.562-.164c.141-.047.274-.125.399-.234l5.344-5.367-1.454-1.454-5.343 5.344-.024.024-.023.023c-.094.11-.164.227-.211.352Z" fill="#000" fill-opacity=".72"/></g><defs><clipPath id="a"><path fill="#fff" d="M6 3h12v18H6z"/></clipPath></defs></svg>