<svg xmlns="http://www.w3.org/2000/svg" width="14" height="13" fill="none"><path fill="var(--fill-color1)" fill-rule="evenodd" d="M6.031 1.165a1.5 1.5 0 0 1 1.938 0l5.854 4.953a.5.5 0 1 1-.646.764L12 5.886V11.5a1.5 1.5 0 0 1-1.5 1.5h-7A1.5 1.5 0 0 1 2 11.5V5.886l-1.177.996a.5.5 0 0 1-.646-.764l5.854-4.953ZM3 5.04v6.46a.5.5 0 0 0 .5.5H5V9.5A1.5 1.5 0 0 1 6.5 8h1A1.5 1.5 0 0 1 9 9.5V12h1.5a.5.5 0 0 0 .5-.5V5.04L7.323 1.928a.5.5 0 0 0-.646 0L3 5.04ZM8 12V9.5a.5.5 0 0 0-.5-.5h-1a.5.5 0 0 0-.5.5V12h2Z" clip-rule="evenodd"/></svg>