<svg width="128" height="128" fill="none" xmlns="http://www.w3.org/2000/svg"><g clip-path="url(#a)"><path d="M30.874 6a9.02 9.02 0 0 0-6.333 2.757 9.069 9.069 0 0 0-2.54 6.437v97.612a9.066 9.066 0 0 0 2.54 6.437A9.02 9.02 0 0 0 30.874 122h66.252a9.021 9.021 0 0 0 6.333-2.757 9.068 9.068 0 0 0 2.54-6.437V34L80 6H30.874Z" stroke="#BBCCCE" stroke-width="4" stroke-dasharray="4 4"/><rect x="36" y="87" width="56" height="6" rx="3" fill="#E0F0F0"/><rect x="36" y="73" width="56" height="6" rx="3" fill="#E0F0F0"/><rect x="36" y="59" width="56" height="6" rx="3" fill="#E0F0F0"/><rect x="36" y="45" width="24" height="6" rx="3" fill="#E0F0F0"/><rect x="36" y="101" width="56" height="6" rx="3" fill="#E0F0F0"/><path d="M80 6v23.45A4.483 4.483 0 0 0 84.415 34H106L80 6Z" fill="#BBCCCE"/><path d="M0 26a8 8 0 0 1 8-8h10v92H8a8 8 0 0 1-8-8V26Z" fill="#E0F0F0"/><path fill-rule="evenodd" clip-rule="evenodd" d="M82.355 95.71c6.168 0 11.842-2.12 16.332-5.67l8.21 8.21-.388 3.495 11.647 11.647a5.491 5.491 0 0 0 7.765-7.765L114.274 93.98l-3.495.388-8.161-8.161a26.245 26.245 0 0 0 6.092-16.852C108.71 54.799 96.91 43 82.355 43 67.799 43 56 54.8 56 69.355S67.8 95.71 82.355 95.71Zm20.315-26.355c0 11.22-9.096 20.315-20.315 20.315-11.22 0-20.315-9.095-20.315-20.315S71.135 49.04 82.355 49.04s20.315 9.095 20.315 20.315Z" fill="#85ACB0"/></g><defs><clipPath id="a"><path fill="#fff" d="M0 0h128v128H0z"/></clipPath></defs></svg>