<svg xmlns="http://www.w3.org/2000/svg" width="32" height="32" fill="none"><rect width="32" height="32" fill="var(--fill-color4)" rx="16"/><path fill="var(--fill-color5)" fill-rule="evenodd" d="M23 21v-6c0-3.35-2.36-6.15-5.5-6.83V7c0-.83-.67-1.5-1.5-1.5s-1.5.67-1.5 1.5v1.17C11.36 8.85 9 11.65 9 15v6l-1.29 1.29c-.63.63-.19 1.71.7 1.71H14c0 1.095.937 2 2 2s2-.905 2-2h5.58c.89 0 1.34-1.08.71-1.71L23 21zm-6 3h-2c0 .552.5 1 1 1s1-.448 1-1zm5-9v6.414l1.583 1.583L8.414 23 10 21.414V15a5.993 5.993 0 014.712-5.853l.788-.17V7c0-.278.222-.5.5-.5s.5.222.5.5v1.977l.788.17A5.993 5.993 0 0122 15z" clip-rule="evenodd"/></svg>