<svg width="25" height="24" viewBox="0 0 25 24" fill="none" xmlns="http://www.w3.org/2000/svg"><path d="M6.102 5.75v11c.041.458.291.708.75.75h13c.458.042.708.292.75.75-.042.458-.292.708-.75.75h-13c-.646-.02-1.178-.24-1.594-.656-.417-.417-.636-.948-.656-1.594v-11c.041-.458.291-.708.75-.75.458.042.708.292.75.75Zm8.5-.25V7c.291 0 .53.094.718.281a.973.973 0 0 1 .282.719v3a.974.974 0 0 1-.282.719.974.974 0 0 1-.718.281v1.5c-.021.313-.188.48-.5.5-.313-.02-.48-.188-.5-.5V12a.974.974 0 0 1-.72-.281.974.974 0 0 1-.28-.719V8c0-.292.093-.531.28-.719a.973.973 0 0 1 .72-.281V5.5c.02-.313.187-.48.5-.5.312.02.479.188.5.5Zm2 5.5c0-.292.093-.531.28-.719a.974.974 0 0 1 .72-.281V8.5c.02-.313.187-.48.5-.5.312.02.479.188.5.5V10c.291 0 .53.094.718.281a.974.974 0 0 1 .282.719v2a.974.974 0 0 1-.282.719.974.974 0 0 1-.718.281v1.5c-.021.313-.188.48-.5.5-.313-.02-.48-.188-.5-.5V14a.974.974 0 0 1-.72-.281.974.974 0 0 1-.28-.719v-2Zm-7-3V6.5c.02-.313.187-.48.5-.5.312.02.479.188.5.5V8c.291 0 .53.094.718.281a.973.973 0 0 1 .282.719v4a.974.974 0 0 1-.282.719.974.974 0 0 1-.718.281v1.5c-.021.313-.188.48-.5.5-.313-.02-.48-.188-.5-.5V14a.974.974 0 0 1-.72-.281.974.974 0 0 1-.28-.719V9c0-.292.093-.531.28-.719A.973.973 0 0 1 9.603 8Z" fill="#fff"/></svg>