<svg width="128" height="80" fill="none" xmlns="http://www.w3.org/2000/svg"><path fill-rule="evenodd" clip-rule="evenodd" d="M112.163 33.296c-1.27-.847-3.203-1.296-5.728-1.296h-6.618L97.35 45.152h-8.669l.55-2.95h5.271l.618-3.347h-5.26l.557-2.974H95.8l.72-3.857H85.59l-2.34 12.459h-4l2.347-12.45H75.86l-2.314 12.448H69.64l2.356-12.448h-5.711L63.819 45.16H55.08l.551-2.957h5.246l.618-3.39h-5.237l.56-2.982h5.483l.669-3.797H28.913l-1.94 10.424-3.856-10.424h-5.932L14 48.981h5.66l1.966-10.678 3.712 10.678h20.287l2.466-13.16h3.194l-2.49 13.16h53.385l1.552-8.305 2.542 8.305h5.669l-2.593-6.779.584-.127a5.097 5.097 0 0 0 3.044-1.755 5.423 5.423 0 0 0 1.015-3.406 4.03 4.03 0 0 0-1.83-3.618Zm-71.47 11.863h-8.662l.56-2.957h5.432l.619-3.39H33.26l.516-2.957h8.652l-1.737 9.304h.002Zm66.801-5.727a4.425 4.425 0 0 1-2.542.584h-1.126l.846-4.568h.848a3.948 3.948 0 0 1 2.093.45c.55.337.874.947.847 1.593a2.194 2.194 0 0 1-.965 1.932v.009h-.001Z" fill="#8DC640"/></svg>