<svg width="90" height="19" viewBox="0 0 90 19" fill="none" xmlns="http://www.w3.org/2000/svg"><path d="m.956 6.817 3.3 1.826 2.633-.609 2.967-1.217 3.46 3.416 5.934 6.155 3.956-7.745 4.45-1.826 4.45-3.18 2.472-1.355 5.439 4.535 3.955 3.416 3.956 4.396 4.944-1.758 6.922 2.638V6.817l3.462-1.86L67.706 1l3.46 5.276 3.956.54 2.967 1.827 3.956 2.469 4.944-3.517.989-2.198" stroke="#000"/><ellipse cx="19.272" cy="17.053" rx="2" ry="1.947" fill="#DE0040"/><ellipse cx="33.611" cy="2.947" rx="2" ry="1.947" fill="#2C9AFF"/><ellipse cx="88" cy="6.367" rx="2" ry="1.947" fill="#00C390"/></svg>