<svg xmlns="http://www.w3.org/2000/svg" width="17" height="14" fill="var(--fill-color1)"><g clip-path="url(#a)"><path fill="#var(--fill-color1)" d="M.5 1.75C.5.785 1.297 0 2.278 0h5.041c.473 0 .925.183 1.259.511l2.07 2.037c.333.329.519.774.519 1.24V5.43a4.894 4.894 0 0 0-.89.345V3.787a.867.867 0 0 0-.26-.618l-2.07-2.037A.894.894 0 0 0 7.32.875H2.278a.881.881 0 0 0-.89.875v10.5c0 .484.398.875.89.875H8.73c.272.323.583.61.93.856-.089.014-.178.019-.272.019H2.278C1.298 14 .5 13.215.5 12.25V1.75Zm8 8.313c0-2.174 1.792-3.938 4-3.938s4 1.764 4 3.938c0 2.173-1.792 3.937-4 3.937s-4-1.764-4-3.938Zm.889 0c0 1.692 1.392 3.062 3.111 3.062 1.72 0 3.111-1.37 3.111-3.063C15.611 8.37 14.22 7 12.5 7c-1.72 0-3.111 1.37-3.111 3.063Zm.889 0c0-.241.2-.438.444-.438h2.484l-.798-.785a.434.434 0 0 1 0-.618.451.451 0 0 1 .628 0l1.556 1.532a.434.434 0 0 1 0 .617l-1.556 1.532a.45.45 0 0 1-.628 0 .434.434 0 0 1 0-.618l.798-.785h-2.484a.442.442 0 0 1-.444-.438Z"/></g><defs><clipPath id="a"><path fill="var(--fill-color1)" d="M.5 0h16v14H.5z"/></clipPath></defs></svg>