<svg width="64" height="36" fill="none" xmlns="http://www.w3.org/2000/svg"><path d="M34.311 1.126a9.642 9.642 0 0 0-12.246 9.287 9.646 9.646 0 0 0 6.142 8.986l.004-.017.013.02.266-1.37.102-.493a.141.141 0 0 0-.006-.003l1.566-8.057 3.422 5.599h1.555l2.176-10.064a7.776 7.776 0 0 1-6.845 13.074l-.395 1.827c.534.092 1.082.14 1.642.14 5.326 0 9.643-4.317 9.643-9.643a9.642 9.642 0 0 0-5.23-8.576l-.008-.008-.001.004-.003-.002-.02.105-2.203 10.032-3.11-5.598h-1.867l-2.028 10.14a7.776 7.776 0 0 1 7.064-13.546l.367-1.837Z" fill="#008751"/><path d="M7.339 30.917c0 .866-.15 1.628-.45 2.284-.3.652-.729 1.154-1.288 1.507-.555.348-1.195.522-1.92.522-.716 0-1.356-.174-1.92-.522-.558-.353-.992-.853-1.3-1.5-.303-.649-.457-1.396-.461-2.243v-.498c0-.862.152-1.624.456-2.284.307-.66.739-1.164 1.294-1.513.558-.352 1.198-.528 1.92-.528.72 0 1.358.174 1.913.522.559.345.99.843 1.294 1.495.304.648.458 1.403.462 2.266v.492Zm-1.537-.462c0-.98-.187-1.731-.56-2.254-.368-.522-.892-.783-1.573-.783-.664 0-1.184.26-1.561.783-.373.519-.563 1.254-.571 2.206v.51c0 .972.188 1.723.565 2.254.38.53.907.795 1.58.795.68 0 1.202-.259 1.567-.777.368-.519.553-1.276.553-2.272v-.462ZM10.097 28.535l.042.76c.486-.588 1.124-.881 1.914-.881 1.369 0 2.065.784 2.09 2.35v4.345h-1.477V30.85c0-.417-.09-.725-.273-.923-.178-.203-.472-.304-.88-.304-.596 0-1.04.27-1.331.808v4.677H8.705v-6.573h1.392ZM17.223 35.108h-1.477v-9.33h1.477v9.33ZM20.406 35.108H18.93v-6.573h1.476v6.573Zm-1.567-8.28a.79.79 0 0 1 .212-.565c.146-.15.353-.224.62-.224s.474.074.62.224c.145.15.218.338.218.565a.77.77 0 0 1-.218.56c-.146.145-.353.218-.62.218s-.474-.073-.62-.219a.781.781 0 0 1-.212-.559ZM23.389 28.535l.042.76c.486-.588 1.124-.881 1.914-.881 1.369 0 2.065.784 2.09 2.35v4.345h-1.477V30.85c0-.417-.09-.725-.273-.923-.178-.203-.472-.304-.88-.304-.596 0-1.04.27-1.331.808v4.677h-1.477v-6.573h1.392ZM31.839 35.23c-.935 0-1.695-.294-2.278-.88-.58-.592-.869-1.378-.869-2.358v-.182c0-.656.126-1.241.377-1.756a2.907 2.907 0 0 1 1.069-1.209 2.82 2.82 0 0 1 1.53-.431c.896 0 1.587.285 2.072.856.49.572.736 1.38.736 2.424v.596H30.18c.045.542.225.972.541 1.288.32.316.721.473 1.203.473.676 0 1.227-.273 1.653-.82l.795.76a2.676 2.676 0 0 1-1.057.917c-.437.215-.93.322-1.476.322Zm-.176-5.631c-.405 0-.733.141-.984.425-.247.283-.405.678-.474 1.184h2.813V31.1c-.033-.494-.165-.867-.395-1.118-.231-.255-.551-.383-.96-.383ZM42.786 35.108H41.25l-3.943-6.275v6.276H35.77v-8.846h1.536l3.955 6.3v-6.3h1.525v8.845ZM48.387 35.108c-.065-.125-.121-.33-.17-.613-.47.49-1.045.735-1.725.735-.66 0-1.199-.188-1.616-.565a1.808 1.808 0 0 1-.626-1.397c0-.7.26-1.237.778-1.61.522-.377 1.267-.565 2.235-.565h.906v-.431c0-.34-.096-.612-.286-.814-.19-.207-.48-.31-.869-.31-.336 0-.611.085-.826.255a.772.772 0 0 0-.322.638H44.39c0-.36.12-.697.358-1.009.24-.316.563-.563.972-.74a3.446 3.446 0 0 1 1.38-.268c.769 0 1.383.194 1.84.583.458.385.693.927.705 1.628v2.965c0 .591.083 1.063.249 1.415v.103h-1.507Zm-1.622-1.063c.292 0 .565-.07.82-.212.26-.142.454-.332.584-.571v-1.24h-.796c-.547 0-.958.096-1.233.286a.925.925 0 0 0-.414.808c0 .283.094.51.28.68.19.166.443.25.76.25ZM52.761 35.108h-1.476v-6.573h1.476v6.573Zm-1.567-8.28a.79.79 0 0 1 .212-.565c.146-.15.353-.224.62-.224s.474.074.62.224c.146.15.218.338.218.565a.77.77 0 0 1-.218.56c-.146.145-.352.218-.62.218-.267 0-.474-.073-.62-.219a.782.782 0 0 1-.212-.559ZM57.816 29.884a3.654 3.654 0 0 0-.602-.049c-.676 0-1.132.26-1.367.778v4.495h-1.476v-6.573h1.41l.036.735c.356-.57.85-.856 1.482-.856.21 0 .385.028.523.085l-.006 1.385ZM62.493 35.108c-.064-.125-.121-.33-.17-.613-.47.49-1.045.735-1.725.735-.66 0-1.199-.188-1.616-.565a1.808 1.808 0 0 1-.626-1.397c0-.7.26-1.237.778-1.61.522-.377 1.268-.565 2.236-.565h.905v-.431c0-.34-.096-.612-.286-.814-.19-.207-.48-.31-.868-.31-.337 0-.612.085-.827.255a.772.772 0 0 0-.322.638h-1.476c0-.36.12-.697.358-1.009.24-.316.563-.563.973-.74a3.447 3.447 0 0 1 1.379-.268c.769 0 1.383.194 1.84.583.458.385.693.927.705 1.628v2.965c0 .591.083 1.063.249 1.415v.103h-1.507Zm-1.622-1.063c.292 0 .565-.07.82-.212.26-.142.454-.332.584-.571v-1.24h-.796c-.547 0-.958.096-1.233.286a.925.925 0 0 0-.413.808c0 .283.093.51.279.68.19.166.444.25.76.25Z" fill="#333"/></svg>