<svg width="96" height="116" fill="none" xmlns="http://www.w3.org/2000/svg"><rect width="80" height="100" rx="4" fill="#C6E3E3"/><path d="M21.7 32.8c-1.2 1.2-2.8 1.9-4.7 2.1v2.6h-2.1v-2.6c-1.8-.1-3.5-.7-4.9-2-1.1-1-2-2.6-2-4.4h3.5c0 1 .5 1.8 1.1 2.4.7.6 1.5.9 2.3 1v-5.7c-.5-.1-.9-.1-1.4-.2-3.1-.5-5-2.5-5-5.4 0-1.5.7-2.8 1.7-3.8 1.1-1.1 2.7-1.9 4.6-2.1V12h2.1v2.9c1.6.2 3 .8 4.1 1.8 1.1 1.1 1.9 2.5 2 4.1h-3.5c0-.7-.4-1.5-.9-1.9-.4-.4-1-.7-1.7-.9v5.2c.3.1.7.1 1 .1 2.9.5 5.3 2.3 5.3 5.5.1 1.8-.6 3.1-1.5 4zm-6.8-15c-.8.1-1.5.4-2.1.9-.5.4-.8 1.1-.8 1.8 0 1.3.8 1.9 2 2.1.3.1.6.1.9.1v-4.9zm2.6 8.9l-.5-.1v5.3c.8-.1 1.5-.4 2-.9s.8-1 .8-2c0-1.5-1.1-2.1-2.3-2.3z" fill="#fff"/><rect x="8" y="46" width="45" height="4" rx="2" fill="#fff"/><rect x="27" y="30" width="45" height="4" rx="2" fill="#fff"/><rect x="27" y="18" width="45" height="4" rx="2" fill="#fff"/><rect x="8" y="58" width="45" height="4" rx="2" fill="#fff"/><rect x="8" y="70" width="45" height="4" rx="2" fill="#fff"/><rect x="57" y="46" width="15" height="4" rx="2" fill="#fff"/><rect x="57" y="58" width="15" height="4" rx="2" fill="#fff"/><rect x="57" y="70" width="15" height="4" rx="2" fill="#fff"/><path d="M74.5 115.8c11.8 0 21.4-9.6 21.4-21.4 0-11.8-9.6-21.4-21.4-21.4C62.7 73 53 82.6 53 94.4c0 11.8 9.6 21.4 21.5 21.4z" fill="#F26447"/><path d="M86.9 98.9H73c-.3 0-.5-.1-.7-.3-.2-.2-.3-.4-.3-.7V83c0-.6.4-1 1-1s1 .4 1 1v14h12.9c.6 0 1 .4 1 1s-.4.9-1 .9z" fill="#fff"/></svg>