<svg xmlns="http://www.w3.org/2000/svg" width="16" height="16"><path fill="none" stroke="var(--fill-color1)" d="M13.455 8.07l.005.022-.03-.121.03-.12-.006.027c.008-.072-.03-.182-.21-.333a1.392 1.392 0 00-.192-.135l-.011-.007L3.627 1.54a.526.526 0 00-.204-.059 2.316 2.316 0 00-.32-.01l-.109.002c-.323 0-.441.076-.498.214a.708.708 0 00-.042.285v12c0 .115.01.2.046.281.061.14.182.216.494.216l.108.001c.164.002.24 0 .321-.01.09-.01.155-.03.193-.052l9.436-5.876c.075-.044.139-.09.192-.135.18-.152.218-.262.21-.332zm0-.192l-.001.001v-.003z"/></svg>