<svg width="40" height="40" fill="none" xmlns="http://www.w3.org/2000/svg"><path fill="none" d="M0 0h40v40H0z"/><path opacity=".6" d="M22.766 5.474c.38 0 .691.311.691.692v20.972c0 .38-.31.692-.691.692H6.165a.694.694 0 01-.692-.692V6.166c0-.38.312-.692.692-.692h16.6zm0-1.383H6.165A2.072 2.072 0 004.09 6.166v20.972c0 1.148.927 2.075 2.075 2.075h16.6a2.072 2.072 0 002.076-2.075V6.166a2.072 2.072 0 00-2.075-2.075z" fill="#85ACB0"/><path d="M33.86 35.909H15.82a2.052 2.052 0 01-2.047-2.048v-18.04c0-1.133.92-2.047 2.048-2.047h18.04c1.134 0 2.047.92 2.047 2.048v18.04c0 1.127-.92 2.047-2.048 2.047z" fill="#85ACB0"/><path d="M28.583 25.263l-2.946 2.65-4.15-4.434-4.6 5.706h15.618l-3.922-3.922zM26.474 23.437a1.62 1.62 0 001.619-1.618 1.62 1.62 0 00-1.619-1.619 1.62 1.62 0 00-1.619 1.619 1.62 1.62 0 001.619 1.618z" fill="#fff"/></svg>