<svg xmlns="http://www.w3.org/2000/svg" width="30" height="18"><path d="M28.774 8.009c-.25-.309-6.3-7.47-14.043-7.47C6.987.54.937 7.7.687 8.01c-.5.593-.5 1.471 0 2.065.25.308 6.3 7.469 14.044 7.469 7.743 0 13.794-7.16 14.043-7.402.54-.604.54-1.528 0-2.132zm-11.68-3.165a1.304 1.304 0 011.627.738 1.36 1.36 0 01-.263 1.796 1.301 1.301 0 01-1.627-.737 1.36 1.36 0 01.262-1.797zM14.73 14.941c-5.408 0-9.949-4.237-11.524-5.9a21.66 21.66 0 016.563-4.8 6.125 6.125 0 00.265 7c1.545 2.036 4.186 2.842 6.57 2.005 2.385-.837 3.985-3.13 3.98-5.707 0-1.173-.338-2.32-.972-3.298a21.736 21.736 0 016.562 4.8c-1.483 1.663-6.037 5.9-11.444 5.9z" fill="#C7E5E5" fill-rule="nonzero"/></svg>