<svg xmlns="http://www.w3.org/2000/svg" width="16" height="16"><path fill="var(--fill-color1)" d="M13.648 6.904c-.053 0-.106.001-.158.005V4.234c0-.95-.774-1.724-1.724-1.724H9.09A2.354 2.354 0 006.745 0a2.354 2.354 0 00-2.346 2.51H1.724C.774 2.51 0 3.284 0 4.234V7.48a.469.469 0 00.625.442A1.416 1.416 0 012.51 9.255 1.416 1.416 0 01.625 10.59a.468.468 0 00-.625.44v3.246C0 15.226.773 16 1.724 16H4.97a.469.469 0 00.434-.646 1.416 1.416 0 011.34-1.864 1.416 1.416 0 011.334 1.885.469.469 0 00.442.625h3.246c.95 0 1.724-.773 1.724-1.724v-2.675A2.354 2.354 0 0016 9.255a2.354 2.354 0 00-2.352-2.351z"/></svg>