<svg width="128" height="80" fill="none" xmlns="http://www.w3.org/2000/svg"><path d="M52.6 60.4c-.5 0-.9-.4-.9-.8V33.7c0-5.2 4.3-9.4 9.5-9.4h7.7c5.2 0 9.5 4.2 9.5 9.4v5.5c0 5.2-4.3 9.4-9.5 9.4H58.1c-.5 0-.9-.4-.9-.8 0-.5.4-.8.9-.8H69c4.3 0 7.8-3.5 7.8-7.8v-5.5c0-4.3-3.5-7.7-7.8-7.7h-7.7c-4.3 0-7.8 3.5-7.8 7.8v25.8c0 .4-.4.8-.9.8ZM86.7 48.8c-.5 0-.9-.4-.9-.8V28.6c0-1.5-1.2-2.7-2.7-2.7h-3.3c-.5 0-.9-.4-.9-.8s.4-.8.9-.8h3.3c2.4 0 4.4 2 4.4 4.4V48c0 .4-.4.8-.8.8Z" fill="#fff"/><path d="m85.9 22.1-1.5-1.5c-.4-.4-.4-1 0-1.3l1.5-1.5c.4-.4 1-.4 1.4 0l1.5 1.5c.4.4.4 1 0 1.3l-1.5 1.5c-.4.4-1 .4-1.4 0Z" fill="#32BCAD"/><path d="M110.4 36.2c-.9 0-1.8-.4-2.4-1l-7.7-7.7c-1-1-2.4-1.6-3.9-1.6H93c-.5 0-.9-.4-.9-.8s.4-.8.9-.8h3.3c1.9 0 3.8.7 5.1 2.1l7.7 7.7c.3.3.8.5 1.2.5.5 0 .9-.2 1.2-.5l7.7-7.6c1.4-1.4 3.2-2.1 5.1-2.1h2.7c.5 0 .9.4.9.8s-.4.8-.9.8h-2.7c-1.5 0-2.9.6-3.9 1.6l-7.7 7.6c-.5.7-1.4 1-2.3 1ZM96.4 48.6H93c-.5 0-.9-.4-.9-.8s.4-.8.9-.8h3.3c1.5 0 2.9-.6 3.9-1.6l7.7-7.7c.6-.6 1.5-1 2.4-1 .9 0 1.8.4 2.4 1l7.7 7.6c1 1 2.4 1.6 3.9 1.6h2.7c.5 0 .9.4.9.8 0 .5-.4.8-.9.8h-2.7c-1.9 0-3.8-.7-5.1-2.1l-7.7-7.6c-.3-.3-.8-.5-1.2-.5-.5 0-.9.2-1.2.5l-7.7 7.7c-1.3 1.3-3.1 2.1-5 2.1Z" fill="#fff"/><path d="M33 52.6c-1.7 0-3.2-.6-4.4-1.8l-6.3-6.3c-.4-.4-1.2-.4-1.7 0l-6.4 6.3c-1.2 1.2-2.7 1.8-4.4 1.8H8.6l8 8c2.5 2.5 6.6 2.5 9.1 0l8.1-8H33ZM9.8 30.4c1.7 0 3.2.6 4.4 1.8l6.4 6.3c.5.5 1.2.5 1.7 0l6.3-6.3c1.2-1.2 2.7-1.8 4.4-1.8h.8l-8-8c-2.5-2.5-6.6-2.5-9.1 0l-8 8h1.1Z" fill="#32BCAD"/><path d="m40.4 37-4.9-4.8c-.1 0-.2.1-.3.1H33c-1.1 0-2.3.5-3.1 1.3l-6.3 6.3c-.6.6-1.4.9-2.2.9-.8 0-1.6-.3-2.2-.9l-6.4-6.3c-.8-.8-1.9-1.3-3.1-1.3H7.1c-.1 0-.2 0-.3-.1L1.9 37c-2.5 2.5-2.5 6.5 0 9l4.9 4.8c.1 0 .2-.1.3-.1h2.7c1.1 0 2.3-.5 3.1-1.3l6.4-6.3c1.1-1.1 3.2-1.1 4.3 0l6.3 6.3c.8.8 1.9 1.3 3.1 1.3h2.2c.1 0 .2 0 .3.1l4.9-4.8c2.5-2.4 2.5-6.5 0-9Z" fill="#32BCAD"/><path d="M59.3 57.3c-.4 0-.8.1-1.2.2v1.6c.3.1.6.2.9.2.8 0 1.2-.3 1.2-1s-.3-1-.9-1Zm-1.5 2.9v-3.1h.2v.1c.4-.1.9-.2 1.2-.2.3 0 .6 0 .8.2.3.2.4.6.4 1s-.1.8-.5 1c-.3.1-.6.2-.9.2-.3 0-.6 0-1-.1v.9h-.2ZM62.4 57.3c-.8 0-1.1.2-1.1.9s.3 1 1.1 1 1.1-.2 1.1-.9c.1-.7-.3-1-1.1-1Zm1.1 1.9c-.3.2-.6.2-1 .2s-.8-.1-1-.2c-.3-.2-.4-.5-.4-1 0-.4.1-.8.4-1 .3-.2.6-.2 1-.2s.8.1 1 .2c.3.2.4.5.4 1s-.1.8-.4 1ZM67.2 59.4l-.9-1.9-.9 1.9h-.2l-.9-2.3h.3l.8 1.9.9-1.9h.2l.9 1.9.8-1.9h.3l-.9 2.3h-.4ZM70.1 57.3c-.7 0-1 .3-1 .8h2.1c-.1-.5-.3-.8-1.1-.8Zm0 2.2c-.4 0-.7-.1-1-.3-.3-.2-.4-.6-.4-.9 0-.4.1-.8.4-1 .3-.2.6-.2.9-.2.3 0 .6 0 .9.2.3.2.4.6.4 1h-2.4c0 .5.2.9 1.1.9.4 0 .8-.1 1.2-.1v.2c-.3.1-.7.2-1.1.2ZM72.2 59.4v-2.3h.2v.1c.5-.1.7-.2 1.1-.2v.3h-.1c-.4 0-.6 0-1.1.2v1.9h-.1ZM75.2 57.3c-.7 0-1 .3-1 .8h2.1c-.1-.5-.4-.8-1.1-.8Zm0 2.2c-.4 0-.7-.1-1-.3-.3-.2-.4-.6-.4-.9 0-.4.1-.8.4-1 .3-.2.6-.2.9-.2.3 0 .6 0 .9.2.3.2.4.6.4 1H74c0 .5.2.9 1.1.9.4 0 .8-.1 1.2-.1v.2c-.3.1-.7.2-1.1.2ZM79.4 57.5c-.3-.1-.6-.2-.9-.2-.8 0-1.2.3-1.2 1s.3.9.9.9c.4 0 .8-.1 1.2-.2v-1.5Zm.1 1.9v-.1c-.4.1-.9.2-1.2.2-.3 0-.6 0-.8-.2-.3-.2-.4-.6-.4-1s.1-.8.5-1c.3-.1.6-.2.9-.2.3 0 .6.1.9.1v-1h.3v3.2h-.2ZM83.6 57.3c-.4 0-.8.1-1.2.2v1.6c.3.1.6.2.9.2.8 0 1.2-.3 1.2-1s-.3-1-.9-1Zm.7 2c-.3.1-.6.2-.9.2-.3 0-.7-.1-1-.2v.1h-.2v-3.2h.3v1.1c.4-.1.9-.2 1.2-.2.3 0 .6 0 .8.2.3.2.4.6.4 1-.1.4-.2.8-.6 1ZM85.2 60.3V60h.3c.3 0 .5-.1.7-.5l.1-.2-1.2-2.3h.3l1 2 1-2h.3l-1.3 2.6c-.2.5-.5.6-1 .6 0 .1-.1.1-.2.1ZM91.4 58.1h-.9v.8h.9c.6 0 .8-.1.8-.4.1-.3-.2-.4-.8-.4Zm-.1-1.3h-.7v.8h.7c.6 0 .8-.1.8-.4 0-.3-.3-.4-.8-.4Zm1.4 2.4c-.3.2-.7.2-1.4.2h-1.4v-3.1h1.3c.6 0 1 0 1.3.2.2.1.3.3.3.6s-.1.5-.5.7c.4.1.7.3.7.7 0 .4-.1.6-.3.7ZM95.7 58.5h-.8c-.5 0-.6.1-.6.3 0 .2.1.3.5.3.3 0 .7-.1 1-.1l-.1-.5Zm.1.9v-.1c-.4.1-.8.2-1.2.2-.2 0-.5 0-.7-.2-.2-.1-.3-.3-.3-.5 0-.3.1-.5.4-.6.2-.1.6-.1.9-.1h.8c0-.4-.2-.5-.9-.5H94v-.5h1c.4 0 .8 0 1.1.2.3.2.3.4.3.8v1.3h-.6ZM99.3 59.4v-1.3c0-.4-.2-.6-.6-.6-.3 0-.6.1-.9.1v1.7h-.6V57h.5v.1c.4-.1.9-.2 1.2-.2.3 0 .6 0 .8.2.2.2.2.4.2.7v1.4l-.6.2ZM101.8 59.5c-.3 0-.6 0-.9-.2-.3-.2-.4-.6-.4-1s.1-.8.5-1c.3-.2.6-.2 1-.2h.8v.5h-.7c-.6 0-.9.2-.9.7 0 .5.2.7.7.7.3 0 .6-.1 1-.1v.5c-.4 0-.7.1-1.1.1ZM104.8 57.5c-.6 0-.9.2-.9.7 0 .5.3.7.9.7.6 0 .9-.2.9-.7 0-.4-.3-.7-.9-.7Zm1.1 1.7c-.3.2-.6.2-1.1.2-.5 0-.8-.1-1.1-.2-.3-.2-.4-.5-.4-1 0-.4.1-.8.4-1 .3-.2.6-.2 1.1-.2.5 0 .8.1 1.1.2.3.2.4.6.4 1 0 .5-.1.8-.4 1ZM110 59.5c-.4 0-.8-.1-1.1-.3-.4-.3-.5-.8-.5-1.3s.1-1 .6-1.3c.4-.2.8-.3 1.3-.3.3 0 .7 0 1.1.1v.6h-1.1c-.9 0-1.3.3-1.3 1s.3 1.1 1 1.1c.4 0 .9-.1 1.4-.2v.5c-.4 0-.9.1-1.4.1ZM113.4 57.5c-.5 0-.7.2-.8.5h1.5c.1-.4-.2-.5-.7-.5Zm-.1 2c-.4 0-.7 0-1-.3-.3-.2-.4-.6-.4-1 0-.3.1-.7.4-1 .3-.2.6-.2 1-.2.3 0 .7 0 1 .2.4.3.4.7.4 1.1h-2.2c0 .3.2.6.8.6.4 0 .8-.1 1.2-.1v.4c-.3.2-.7.3-1.2.3ZM117.7 59.4v-1.3c0-.4-.2-.6-.6-.6-.3 0-.6.1-.9.1v1.7h-.6V57h.5v.1c.4-.1.9-.2 1.2-.2.3 0 .6 0 .8.2.2.2.2.4.2.7v1.4l-.6.2ZM120.1 59.5c-.3 0-.6-.1-.7-.3-.1-.2-.2-.4-.2-.7v-.9h-.5v-.5h.5l.1-.7h.6v.7h.9v.5h-.9v.7c0 .2 0 .3.1.4.1.2.2.2.4.2h.5v.5c-.3 0-.6.1-.8.1ZM121.4 59.4v-2.3h.5v.1c.4-.1.7-.2 1.1-.2h.1v.5h-.2c-.3 0-.5 0-.9.1v1.7l-.6.1ZM125.5 58.5h-.8c-.5 0-.6.1-.6.3 0 .2.1.3.5.3.3 0 .7-.1 1-.1l-.1-.5Zm.1.9v-.1c-.4.1-.8.2-1.2.2-.2 0-.5 0-.7-.2-.2-.1-.3-.3-.3-.5 0-.3.1-.5.4-.6.2-.1.6-.1.9-.1h.8c0-.4-.2-.5-.9-.5h-.8v-.5h1c.4 0 .8 0 1.1.2.3.2.3.4.3.8v1.3h-.6ZM126.9 56.2h.6v3.2h-.6v-3.2Z" fill="#fff"/></svg>