<svg width="40" height="40" fill="none" xmlns="http://www.w3.org/2000/svg"><path fill="none" d="M0 0h40v40H0z"/><path opacity=".6" d="M28.3 35.909H6.164a2.072 2.072 0 01-2.075-2.075V6.166c0-1.148.927-2.075 2.075-2.075h22.134c1.149 0 2.075.927 2.075 2.075v27.668a2.072 2.072 0 01-2.075 2.075z" fill="#85ACB0"/><path d="M20.82 14.86l-2.718 2.442-3.838-4.095-4.24 5.27h14.415L20.82 14.86zM18.87 13.172c.822 0 1.493-.67 1.493-1.494 0-.823-.67-1.494-1.494-1.494-.823 0-1.494.671-1.494 1.494s.671 1.494 1.494 1.494z" fill="#fff"/><path d="M30.717 31.59h-17.8c-2.87 0-5.19-2.337-5.19-5.227s2.32-5.227 5.19-5.227h17.8c2.87 0 5.191 2.338 5.191 5.227 0 2.883-2.32 5.228-5.191 5.228z" fill="#85ACB0"/><path d="M19.61 28.82c-.284 0-.53-.037-.755-.104a1.498 1.498 0 01-.552-.29 1.225 1.225 0 01-.463-.986c0-.307.082-.553.254-.747a1.3 1.3 0 01.68-.404v-.052a1.346 1.346 0 01-.568-.396c-.15-.179-.224-.403-.224-.68 0-.178.037-.35.104-.507a1 1 0 01.314-.396c.142-.112.306-.194.508-.261.201-.06.433-.09.694-.09.261 0 .493.03.702.09.202.06.373.15.508.261.134.112.246.247.314.396.067.157.104.321.104.508 0 .276-.075.5-.224.68-.15.178-.336.306-.567.395v.052a1.3 1.3 0 01.68.404c.163.194.253.44.253.746 0 .202-.037.381-.12.553a1.28 1.28 0 01-.343.433c-.15.12-.336.217-.553.291a2.284 2.284 0 01-.746.105zm0-.783c.224 0 .403-.052.522-.157.12-.105.18-.254.18-.448v-.134a.574.574 0 00-.18-.449c-.12-.104-.29-.156-.522-.156-.224 0-.404.052-.523.156-.12.105-.18.254-.18.448v.135c0 .194.06.336.18.448.127.105.299.157.523.157zm0-2.099c.216 0 .38-.052.5-.156a.54.54 0 00.172-.419v-.112a.54.54 0 00-.172-.418c-.112-.104-.276-.15-.5-.15-.217 0-.381.053-.5.15a.54.54 0 00-.172.418v.12c0 .18.06.314.171.418.12.097.284.15.5.15zM25.734 25.617h-.022l-.351.695-.926 1.68-.904-1.673-.358-.746h-.022v3.166h-.971v-4.757h1.097l1.165 2.225h.015l1.15-2.225h1.105v4.757h-.97v-3.122h-.008zM27.758 23.989h2.307c.396 0 .702.112.926.336.217.224.329.515.329.888 0 .18-.023.336-.075.463a.831.831 0 01-.194.314.736.736 0 01-.276.18c-.105.037-.224.059-.344.066v.038c.112 0 .232.022.359.06a1.022 1.022 0 01.605.538c.067.141.104.313.104.515 0 .186-.03.358-.09.53-.06.164-.149.306-.253.433-.112.12-.24.216-.389.291-.15.067-.313.105-.493.105h-2.516v-4.757zm1.038 1.941h1.03c.135 0 .247-.037.321-.12a.446.446 0 00.12-.32v-.194c0-.135-.037-.247-.12-.322a.446.446 0 00-.32-.119h-1.031v1.075zm0 1.934h1.195a.442.442 0 00.32-.112c.083-.074.12-.179.12-.313v-.232c0-.134-.037-.239-.12-.313a.455.455 0 00-.32-.112h-1.195v1.082zM12.328 26.656v-.59l2.681-1.762v1.015l-1.62 1.023v.045l1.62 1.023v1.023l-2.68-1.777z" fill="#fff"/></svg>