<svg xmlns="http://www.w3.org/2000/svg" width="16" height="16" fill="none"><path fill="var(--fill-color1)" d="M4.53 1a1.41 1.41 0 0 1 1.4 1.18 8.88 8.88 0 0 0 .49 2 1.4 1.4 0 0 1-.32 1.48l-.89.9a11.22 11.22 0 0 0 4.2 4.21l.9-.89a1.39 1.39 0 0 1 1.48-.32 9 9 0 0 0 2 .5A1.4 1.4 0 0 1 15 11.48v2.11A1.41 1.41 0 0 1 13.6 15h-.13a13.93 13.93 0 0 1-6.08-2.16 13.7 13.7 0 0 1-4.22-4.22A13.86 13.86 0 0 1 1 2.53 1.4 1.4 0 0 1 2.28 1h2.25zm0 1H2.41a.41.41 0 0 0-.41.44 12.9 12.9 0 0 0 2 5.64 12.72 12.72 0 0 0 3.93 3.93 13 13 0 0 0 5.64 2 .41.41 0 0 0 .43-.41v-2.11a.41.41 0 0 0-.35-.43 10.49 10.49 0 0 1-2.19-.55h-.14a.43.43 0 0 0-.29.12l-.89.89a1 1 0 0 1-1.2.16 12.21 12.21 0 0 1-4.6-4.59 1 1 0 0 1 .16-1.2L5.4 5a.42.42 0 0 0 .08-.47 10.19 10.19 0 0 1-.55-2.19.4.4 0 0 0-.4-.34z"/></svg>