<svg width="24" height="24" fill="none" xmlns="http://www.w3.org/2000/svg"><path d="M4.5 7a2.5 2.5 0 1 0 0-5 2.5 2.5 0 0 0 0 5ZM6.792 20.5a2.5 2.5 0 1 1-1.378-3.328l3.921-3.921a2.5 2.5 0 0 1 3.416-3.416l4.421-4.421a2.5 2.5 0 1 1 1.414 1.414l-4.642 4.642A2.504 2.504 0 0 1 11.5 14.5c-.182 0-.359-.02-.53-.056L6.914 18.5h2.294a2.5 2.5 0 0 1 4.584 0h3.416a2.5 2.5 0 1 1 0 2h-3.416a2.5 2.5 0 0 1-4.584 0H6.792Z" fill="#999"/><path d="M14 4.5a2.5 2.5 0 1 1-5 0 2.5 2.5 0 0 1 5 0ZM7 12a2.5 2.5 0 1 1-5 0 2.5 2.5 0 0 1 5 0ZM22 12a2.5 2.5 0 1 1-5 0 2.5 2.5 0 0 1 5 0Z" fill="#999"/></svg>