<svg xmlns="http://www.w3.org/2000/svg" width="32" height="32" fill="none"><rect width="32" height="32" fill="var(--fill-color4)" rx="16"/><path fill="var(--fill-color5)" fill-rule="evenodd" d="M24 16a8 8 0 1 1-16 0 8 8 0 0 1 16 0zM9 16a6.992 6.992 0 0 0 3 5.745V19.5a2.5 2.5 0 0 1 2.5-2.5h3a2.5 2.5 0 0 1 2.5 2.5v2.245A7 7 0 1 0 9 16zm7 7a6.973 6.973 0 0 1-3-.674V19.5a1.5 1.5 0 0 1 1.5-1.5h3a1.5 1.5 0 0 1 1.5 1.5v2.826A6.973 6.973 0 0 1 16 23zm0-7a3 3 0 1 0 0-6 3 3 0 0 0 0 6zm0-1a2 2 0 1 1 0-4 2 2 0 0 1 0 4z" clip-rule="evenodd"/></svg>