<svg xmlns="http://www.w3.org/2000/svg" width="115" height="123"><g fill="none" fill-rule="evenodd"><path fill="#C6E4E4" fill-rule="nonzero" d="M85.84 117.37H13.65V.49h72.19a7.81 7.81 0 017.81 7.81v101.25a7.83 7.83 0 01-7.81 7.82z"/><path fill="#FFF" fill-rule="nonzero" d="M53.65 19.43c-10.908 0-19.75 8.842-19.75 19.75s8.842 19.75 19.75 19.75S73.4 50.088 73.4 39.18a19.75 19.75 0 00-19.75-19.75zm-18 20.28h7.83c.01 3.184.46 6.35 1.34 9.41h-6.2a18 18 0 01-3-9.41h.03zm18.84-12.78v-5.72c2.09.45 4 2.58 5.36 5.72h-5.36zm6 1.68A32.25 32.25 0 0162.16 38h-7.67v-9.39h6zm-7.71-7.4v5.72h-5.33c1.38-3.14 3.27-5.27 5.36-5.72h-.03zm0 7.4V38h-7.64a32.07 32.07 0 011.64-9.41l6 .02zM43.45 38h-7.8A18 18 0 0139 28.61h6A33.62 33.62 0 0043.45 38zm1.67 1.69h7.69v9.41h-6.24a33.21 33.21 0 01-1.45-9.39v-.02zm7.69 11.11v6.35c-2.23-.49-4.23-2.87-5.63-6.35h5.63zm1.68 6.35V50.8h5.63c-1.4 3.48-3.4 5.86-5.63 6.35zm0-8v-9.44h7.69a33 33 0 01-1.45 9.41l-6.24.03zm9.37-9.41h7.83a17.92 17.92 0 01-3 9.41h-6.2a34.7 34.7 0 001.37-9.44v.03zm0-1.69a34.53 34.53 0 00-1.52-9.41h5.94A18 18 0 0171.66 38l-7.8.05zm3-11.09h-5.14a16.29 16.29 0 00-3.13-5.11 18 18 0 018.29 5.08l-.02.03zm-18.15-5.14a16.29 16.29 0 00-3.13 5.11h-5.16a18 18 0 018.29-5.11zm-8.87 29h5.5a16.73 16.73 0 003.37 5.74 18.06 18.06 0 01-8.87-5.76v.02zm18.75 5.74A16.82 16.82 0 0062 50.8h5.5a18.07 18.07 0 01-8.91 5.74v.02z"/><rect width="61.09" height="10.48" x="23.38" y="75.41" fill="#FFF" fill-rule="nonzero" rx="4.17"/><rect width="100.94" height="61.52" x=".56" y="47.98" fill="#FFF" fill-rule="nonzero" rx="5.5"/><path fill="#F2F2F2" fill-rule="nonzero" d="M96 48.48a5 5 0 015 5V104a5 5 0 01-5 5H6.06a5 5 0 01-5-5V53.48a5 5 0 015-5H96zm0-1H6.06a6 6 0 00-6 6V104a6 6 0 006 6H96a6 6 0 006-6V53.48a6 6 0 00-6-6z"/><rect width="33.04" height="41.17" x="8.87" y="58.24" fill="#F2F2F2" fill-rule="nonzero" rx="3"/><rect width="33.27" height="5.05" x="51.03" y="67.37" fill="#E3E4E3" fill-rule="nonzero" rx="1.55"/><rect width="33.27" height="4.38" x="51.03" y="78.74" fill="#E3E4E3" fill-rule="nonzero" rx="1.35"/><rect width="33.27" height="4.38" x="51.03" y="85.56" fill="#E3E4E3" fill-rule="nonzero" rx="1.35"/><circle cx="25.45" cy="72.02" r="6.77" fill="#84ABAE" fill-rule="nonzero"/><path fill="#84ABAE" fill-rule="nonzero" d="M20 79.07S21.48 81 25.45 81s5.27-1.93 5.27-1.93 6.06 2.33 6.06 8.7c0 0-3.14 4.63-11.14 4.63S14 87.77 14 87.77s.19-6.86 6-8.7z"/><g transform="translate(72 80)"><circle cx="21.55" cy="21.55" r="21.45" fill="#FF6444"/><path fill="#FFF" d="M33.43 21.218L23.402 10.603A1.852 1.852 0 0022 10c-.565 0-1.027.201-1.386.603L10.585 21.218c-.39.413-.585.907-.585 1.483 0 .566.195 1.055.585 1.468l1.156 1.222c.37.413.832.62 1.386.62.555 0 1.017-.207 1.386-.62l4.53-4.777v11.479c0 .564.192 1.024.577 1.377.385.354.85.53 1.394.53h1.972a1.99 1.99 0 001.394-.53c.385-.353.578-.813.578-1.377V20.614l4.529 4.777c.37.413.831.62 1.386.62.544 0 1.012-.207 1.402-.62l1.155-1.222c.38-.424.57-.913.57-1.468 0-.565-.19-1.06-.57-1.483z"/></g></g></svg>