
<svg xmlns="http://www.w3.org/2000/svg" width="83" height="123" viewBox="0 0 83 123">
    <g fill="none">
        <rect width="61.17" height="117.33" x=".53" y=".33" fill="#F5F5F5" rx="6"/>
        <path fill="#C7E5E5" d="M2.35 10.63H59.85V103.72999999999999H2.35z"/>
        <circle cx="31.11" cy="110.53" r="5" fill="#E5E5E5"/>
        <rect width="16.39" height="1.71" x="22.91" y="4.45" fill="#E5E5E5" rx=".85"/>
        <path fill="#FFF" d="M25.91 39.44c.003-.869-.34-1.703-.954-2.319-.614-.615-1.447-.961-2.316-.961H12.8c-1.811 0-3.28 1.469-3.28 3.28v9.83c0 1.811 1.469 3.28 3.28 3.28h9.84c.869 0 1.702-.346 2.316-.961.613-.616.957-1.45.954-2.319v-9.83zM23 49.22c0 .103-.041.2-.115.272-.073.072-.172.11-.275.108h-9.82c-.212 0-.385-.169-.39-.38v-9.8c.005-.211.178-.38.39-.38h9.79c.103-.003.202.036.275.108.074.071.115.17.115.272v9.8H23z"/>
        <path fill="#FFF" d="M14.54 41.18H20.83V47.47H14.54zM25.91 65.06c.003-.869-.34-1.703-.954-2.319-.614-.615-1.447-.961-2.316-.961H12.8c-1.811 0-3.28 1.469-3.28 3.28v9.83c0 1.811 1.469 3.28 3.28 3.28h9.84c.869 0 1.702-.346 2.316-.961.613-.616.957-1.45.954-2.319v-9.83zM23 74.89c.006.212-.159.39-.37.4h-9.84c-.217-.005-.39-.183-.39-.4v-9.81c-.006-.223.167-.41.39-.42h9.81c.217.016.381.203.37.42v9.81H23z"/>
        <path fill="#FFF" d="M14.54 66.8H20.83V73.16H14.54zM51.4 39.44c0-1.811-1.469-3.28-3.28-3.28h-9.83c-.872-.003-1.708.342-2.326.957-.617.616-.964 1.451-.964 2.323v9.83c0 1.811 1.469 3.28 3.28 3.28h9.83c1.811 0 3.28-1.469 3.28-3.28l.01-9.83zm-2.94 9.78c-.005.211-.178.38-.39.38h-9.79c-.103.003-.202-.036-.275-.108-.074-.071-.115-.17-.115-.272v-9.8c0-.103.041-.2.115-.272.073-.072.172-.11.275-.108h9.79c.212 0 .385.169.39.38v9.8z"/>
        <path fill="#FFF" d="M40.03 41.18H46.39V47.47H40.03zM13.26 54.42c-.229-.003-.45.087-.611.249-.162.162-.252.382-.25.611v2.17c0 .227.092.445.253.605.162.16.38.248.608.245h2v.08c0 .471.379.855.85.86H21v.08c0 .227.09.445.252.605.162.16.38.248.608.245h2.17c.47 0 .85-.38.85-.85v-2.1c.003-.227-.086-.446-.245-.608-.16-.161-.378-.252-.605-.252H23v-1.08c.003-.227-.086-.446-.245-.608-.16-.161-.378-.252-.605-.252H21c-.475 0-.86.385-.86.86v1.08h-3.86v-1.08c.003-.227-.086-.446-.245-.608-.16-.161-.378-.252-.605-.252h-2.17zM29.19 50.22c0 .475.385.86.86.86h3.1c.473-.005.855-.387.86-.86v-2.17c-.005-.471-.389-.85-.86-.85h-1.08v-6.69h.14c.475 0 .86-.385.86-.86v-1.16c.003-.229-.087-.45-.249-.611-.162-.162-.382-.252-.611-.25h-4.1c-.229-.002-.45.088-.611.25-.162.162-.252.382-.25.611v1.16c0 .475.386.86.861.86h1.08v3.08h-1.08c-.227-.003-.446.086-.608.245-.161.16-.252.378-.252.605v.16c-.003.229.087.45.249.611.162.162.382.252.611.249h1.08v4.76zM31.67 53.34c0-.475-.385-.86-.86-.86h-2.17c-.227 0-.445.09-.605.252-.16.162-.248.38-.245.608v2.17c0 .47.38.85.85.85h2.17c.471 0 .855-.379.86-.85v-2.17zM47.05 63.12H46c-.471 0-.855.379-.86.85v4c.005.471.389.85.86.85h4.11c.47 0 .85-.38.85-.85V55.28c.003-.227-.086-.446-.245-.608-.16-.161-.378-.252-.605-.252h-2.2c-.475 0-.86.385-.86.86v7.84zM37.35 60h.15c.471 0 .855-.379.86-.85V57c0-.475-.385-.86-.86-.86h-2.17c-.227 0-.445.09-.605.252-.16.162-.248.38-.245.608v1.1h-4c-.229-.003-.45.087-.611.249-.162.162-.252.382-.25.611v5c-.002.229.088.45.25.611.162.162.382.252.611.25h6c.227 0 .445-.092.605-.253.16-.162.248-.38.245-.608V60h.02zM45.11 55.42v-1.08c0-.471-.379-.855-.85-.86H44c-.473.005-.855.387-.86.86v1.08h-2c-.471.005-.85.389-.85.86v3c0 .47.38.85.85.85h3.11c.47 0 .85-.38.85-.85l.01-3.86zM39.36 66h-2c-.473.005-.855.387-.86.86V68c.005.471.389.85.86.85h2v7.5c0 .227.09.445.252.605.162.16.38.248.608.245h2.1c.47 0 .85-.38.85-.85V63c0-.471-.379-.855-.85-.86h-2.1c-.475 0-.86.385-.86.86v3zM29.73 76.37c0 .47.38.85.85.85h3.11c.47 0 .85-.38.85-.85v-8.58c.003-.227-.086-.446-.245-.608-.16-.161-.378-.252-.605-.252h-3.11c-.227 0-.445.09-.605.252-.16.162-.248.38-.245.608v8.58zM44.44 76.37c.005.471.389.85.86.85h2.84c.47 0 .85-.38.85-.85v-2.11c0-.47-.38-.85-.85-.85H45.3c-.471 0-.855.379-.86.85v2.11z"/>
        <ellipse cx="59.99" cy="100" fill="#84ABAE" rx="23.01" ry="23"/>
        <path fill="#FFF" d="M58.38 107.38c-.247 0-.487-.085-.68-.24l-6.06-5c-.45-.38-.516-1.049-.15-1.51.18-.22.44-.36.724-.389.283-.028.566.058.786.239l5.23 4.28 9.45-11.61c.239-.305.623-.457 1.005-.398.383.06.704.32.84.683.135.362.064.77-.185 1.065L59.22 107c-.182.222-.445.362-.73.39l-.11-.01z"/>
    </g>
</svg>
