<svg width="17" height="16" fill="none" xmlns="http://www.w3.org/2000/svg"><g clip-path="url(#a)"><path d="M15.094 0H1.906C1.131 0 .5.63.5 1.406v13.188C.5 15.369 1.13 16 1.906 16h13.188c.775 0 1.406-.63 1.406-1.406V1.406C16.5.631 15.87 0 15.094 0ZM1.438 1.406a.47.47 0 0 1 .468-.468h6.125V3.2a.47.47 0 0 0 .78.35.939.939 0 1 1 0 1.4.47.47 0 0 0-.78.35v2.231H6.566A1.877 1.877 0 0 0 4.75 5.187a1.877 1.877 0 0 0-1.816 2.344H1.437V1.406ZM8.03 15.062H1.906a.47.47 0 0 1-.468-.468V8.469H3.7a.47.47 0 0 0 .35-.78.939.939 0 1 1 1.4 0 .47.47 0 0 0 .35.78h2.231v1.465a1.877 1.877 0 0 0-2.344 1.816 1.877 1.877 0 0 0 2.344 1.816v1.496Zm7.531-.468a.47.47 0 0 1-.468.469H8.969V12.8a.47.47 0 0 0-.78-.35.939.939 0 1 1 0-1.4.47.47 0 0 0 .78-.35V8.466h1.465a1.88 1.88 0 0 0 1.816 2.347 1.877 1.877 0 0 0 1.816-2.344h1.496v6.125Zm0-7.063H13.3a.47.47 0 0 0-.35.78.939.939 0 1 1-1.4 0 .47.47 0 0 0-.35-.78H8.969V6.066a1.877 1.877 0 0 0 2.344-1.816 1.877 1.877 0 0 0-2.344-1.816V.937h6.125a.47.47 0 0 1 .469.47V7.53Z" fill="var(--fill-color1)"/></g><defs><clipPath id="a"><path fill="#fff" transform="translate(.5)" d="M0 0h16v16H0z"/></clipPath></defs></svg>