<svg xmlns="http://www.w3.org/2000/svg" width="117" height="109"><g fill="none"><path fill="#E0F4F3" d="M10.37 88.69h95.25v8.26H10.37zM.46 36.13h115.86v29.76H.46z"/><rect width="6.72" height="50.68" x="98.92" y="58.18" fill="#E0F4F3" rx="3.36"/><rect width="6.72" height="50.68" x="10.39" y="58.18" fill="#E0F4F3" rx="3.36"/><circle cx="58" cy="43.45" r="32.73" fill="#fff"/><path fill="#FF444F" d="M29.07 12.52c-15.975 15.977-15.973 41.879.003 57.854 15.976 15.975 41.878 15.975 57.854 0a40.739 40.739 0 009.736-15.528c4.957-14.335 1.713-30.878-9.733-42.326a40.912 40.912 0 00-57.86 0z"/><rect width="57.53" height="16.41" x="29.23" y="33.25" fill="#fff" rx="4.23"/></g></svg>