<svg width="128" height="80" fill="none" xmlns="http://www.w3.org/2000/svg"><path d="M22.602 30.026a10.64 10.64 0 0 1 5.518 1.45l-1.695 4.007a8.142 8.142 0 0 0-3.73-1.186c-.454-.033-.906.1-1.27.373a1.402 1.402 0 0 0-.442 1.11c-.014.444.12.88.383 1.238A9.446 9.446 0 0 0 23 38.552a8.58 8.58 0 0 1 2.238 2.474c.5.9.753 1.92.738 2.95a5.93 5.93 0 0 1-1.883 4.669 7.68 7.68 0 0 1-5.254 1.694c-.9.008-1.797-.1-2.67-.322A6.874 6.874 0 0 1 14 49.007V44.29c.77.502 1.597.904 2.466 1.202a7.84 7.84 0 0 0 2.543.493 2.15 2.15 0 0 0 1.44-.425c.337-.298.519-.735.492-1.186 0-.235-.051-.467-.15-.678a3.263 3.263 0 0 0-.442-.635c-.187-.22-.696-.678-1.51-1.399a8.76 8.76 0 0 1-2.184-2.543 6.347 6.347 0 0 1-.706-2.948 6.111 6.111 0 0 1 .849-3.179 5.677 5.677 0 0 1 2.373-2.184 7.504 7.504 0 0 1 3.431-.78Zm37.16-.025a11.215 11.215 0 0 1 6.162 1.771l-1.89 4.118a12.625 12.625 0 0 0-2.194-1.118 5.788 5.788 0 0 0-2.078-.381 3.53 3.53 0 0 0-2.542 1.059 7.078 7.078 0 0 0-1.694 2.899 12.28 12.28 0 0 0-.636 4.007c-.072.957.18 1.91.72 2.704.51.609 1.276.939 2.068.89a9.033 9.033 0 0 0 2.153-.272c.871-.245 1.72-.56 2.542-.94v4.355a13.125 13.125 0 0 1-5.644 1.212 6.561 6.561 0 0 1-5.136-2c-1.203-1.33-1.795-3.22-1.795-5.669a16.2 16.2 0 0 1 1.304-6.583 10.182 10.182 0 0 1 3.575-4.528 8.876 8.876 0 0 1 5.085-1.524Zm-16.949.305-.847 4.354h-4.102l-3.042 15.375h-5.006l3.034-15.373h-4.06l.848-4.355h13.177-.002Zm6.849 0L45.71 50.035h-5.092l3.958-19.73h5.084l.002.002Zm28.559 1.534a5.417 5.417 0 0 1 1.795 4.372 6.773 6.773 0 0 1-2.195 5.34 8.789 8.789 0 0 1-6.025 1.931h-1.1l-1.289 6.552h-5.01l3.959-19.728h4.78a7.542 7.542 0 0 1 5.085 1.533Zm15.508-1.534 1.567 19.729h-4.881l-.145-3.696h-5.719l-1.612 3.696h-5.202l9.543-19.73h6.448l.001.002Zm9.541 0 1.145 7.313 4-7.314H114l-7.84 12.068L104.61 50h-5.017l1.542-7.627-3.034-12.068h5.169v.002ZM89.94 33.45a14.62 14.62 0 0 1-.779 2.238L86.356 42.1h3.754l-.221-5.718V35.22c0-.678 0-1.272.051-1.772Zm-16.652 1.162h-.762l-.898 4.559h.846a2.437 2.437 0 0 0 1.89-.788c.464-.562.697-1.28.653-2.008a1.81 1.81 0 0 0-.457-1.281 1.69 1.69 0 0 0-1.272-.482Z" fill="#F25822"/></svg>