<svg xmlns="http://www.w3.org/2000/svg" viewBox="0 0 19 20" id="ic-stage-3"><g transform="translate(0 1)" fill="none" fill-rule="evenodd"><path d="M8.416 8.207h.814c.512-.008.915-.143 1.207-.404.293-.262.44-.615.44-1.06 0-1-.498-1.5-1.494-1.5-.469 0-.843.133-1.122.4-.28.268-.42.623-.42 1.064H6.759c0-.676.247-1.237.741-1.685.494-.447 1.122-.67 1.884-.67.805 0 1.435.212 1.892.638.457.426.686 1.018.686 1.776 0 .37-.12.73-.36 1.078-.24.347-.568.607-.982.779.469.148.831.395 1.087.738.256.344.384.764.384 1.26 0 .766-.25 1.373-.75 1.822-.5.45-1.15.674-1.951.674-.801 0-1.452-.217-1.954-.65-.502-.434-.753-1.006-.753-1.717h1.09c0 .45.146.809.439 1.078.293.27.685.404 1.178.404.523 0 .923-.136 1.2-.41.278-.273.417-.666.417-1.177 0-.497-.152-.877-.457-1.143-.305-.266-.744-.402-1.319-.41h-.814v-.885z" fill-opacity=".4" fill="#000" fill-rule="nonzero"></path><circle stroke-opacity=".4" stroke="#000" cx="9.5" cy="9" r="9"></circle></g></svg>