<svg xmlns="http://www.w3.org/2000/svg" viewBox="0 0 19 20" id="ic-stage-2"><g transform="translate(0 1)" fill="none" fill-rule="evenodd"><path d="M12.43 13H6.84v-.78l2.953-3.28c.437-.497.74-.9.905-1.21a2.02 2.02 0 00.25-.964c0-.446-.135-.81-.405-1.096-.27-.285-.629-.428-1.078-.428-.54 0-.958.154-1.257.46-.299.307-.448.734-.448 1.28H6.676c0-.785.253-1.42.759-1.904.505-.484 1.182-.726 2.03-.726.793 0 1.42.208 1.88.624.462.416.692.97.692 1.66 0 .84-.535 1.84-1.605 3l-2.286 2.48h4.284V13z" fill-opacity=".4" fill="#000" fill-rule="nonzero"></path><circle stroke-opacity=".4" stroke="#000" cx="9.5" cy="9" r="9"></circle></g></svg>