<svg width="14" height="11" viewBox="0 0 14 11" fill="none" xmlns="http://www.w3.org/2000/svg">
<path fill-rule="evenodd" clip-rule="evenodd" d="M4.85355 0.43934C5.13486 0.158035 5.51639 0 5.91421 0H8.08579C8.48361 0 8.86514 0.158035 9.14645 0.43934L10.5607 1.85355C10.6544 1.94732 10.7816 2 10.9142 2H12.5C13.3284 2 14 2.67157 14 3.5V9.5C14 10.3284 13.3284 11 12.5 11H1.5C0.671573 11 0 10.3284 0 9.5V3.5C0 2.67157 0.671573 2 1.5 2H3.08579C3.21839 2 3.34557 1.94732 3.43934 1.85355L4.85355 0.43934ZM5.91421 1C5.78161 1 5.65443 1.05268 5.56066 1.14645L4.14645 2.56066C3.86514 2.84196 3.48361 3 3.08579 3H1.5C1.22386 3 1 3.22386 1 3.5V9.5C1 9.77614 1.22386 10 1.5 10H12.5C12.7761 10 13 9.77614 13 9.5V3.5C13 3.22386 12.7761 3 12.5 3H10.9142C10.5164 3 10.1349 2.84197 9.85355 2.56066L8.43934 1.14645C8.34557 1.05268 8.2184 1 8.08579 1H5.91421Z" fill="var(--fill-color1)"/>
<path fill-rule="evenodd" clip-rule="evenodd" d="M7 8C8.10457 8 9 7.10457 9 6C9 4.89543 8.10457 4 7 4C5.89543 4 5 4.89543 5 6C5 7.10457 5.89543 8 7 8ZM7 9C8.65685 9 10 7.65685 10 6C10 4.34315 8.65685 3 7 3C5.34315 3 4 4.34315 4 6C4 7.65685 5.34315 9 7 9Z" fill="var(--fill-color1)"/>
</svg>
