<svg xmlns="http://www.w3.org/2000/svg" width="16" height="16"><path fill="var(--fill-color1)" d="M11.5 0a1.5 1.5 0 011.493 1.356L13 1.5v3a.5.5 0 01-.992.09L12 4.5v-3a.5.5 0 00-.41-.492L11.5 1h-10a.5.5 0 00-.492.41L1 1.5v13a.5.5 0 00.41.492L1.5 15h9a.5.5 0 01.09.992L10.5 16h-9a1.5 1.5 0 01-1.493-1.356L0 14.5v-13A1.5 1.5 0 011.356.007L1.5 0h10zm.842 6.026a.489.489 0 01.316 0l3 1A.5.5 0 0116 7.5V11c0 1.273-.648 2.298-1.7 3.088a6.457 6.457 0 01-1.475.825l-.167.061a.489.489 0 01-.316 0 6.54 6.54 0 01-1.642-.887C9.648 13.299 9 12.274 9 11V7.5a.5.5 0 01.342-.474zm.158 1.001L10 7.86V11c0 .85.412 1.562 1.129 2.153l.171.134c.299.225.622.413.945.566l.255.112.255-.112c.323-.153.646-.341.945-.566.823-.617 1.3-1.372 1.3-2.287V7.86l-2.5-.833zM5.5 12a.5.5 0 01.09.992L5.5 13h-3a.5.5 0 01-.09-.992L2.5 12h3zm7 0a.5.5 0 110 1 .5.5 0 010-1zm0-4a.5.5 0 01.492.41L13 8.5v2a.5.5 0 01-.992.09L12 10.5v-2a.5.5 0 01.5-.5zm-5 1a.5.5 0 01.09.992L7.5 10h-5a.5.5 0 01-.09-.992L2.5 9h5zm0-3a.5.5 0 01.09.992L7.5 7h-5a.5.5 0 01-.09-.992L2.5 6h5zm0-3a.5.5 0 01.09.992L7.5 4h-5a.5.5 0 01-.09-.992L2.5 3h5z"/></svg>