<svg width="17" height="17" xmlns="http://www.w3.org/2000/svg"><path fill="var(--fill-color1)" d="M13.952 6.286h-2.998V3.819A1.78 1.78 0 0 0 10.56 2.5a1.825 1.825 0 0 0-1.603-.656h-.784a.76.76 0 0 0-.458.168.744.744 0 0 0-.257.41v.059l-.5 3.128L5.19 8.26H1.96v6.907h9.493c3.718 0 4.497-2.146 4.497-3.947V8.26a1.78 1.78 0 0 0-.396-1.318 1.825 1.825 0 0 0-1.603-.656ZM4.96 14.18H2.96V9.245H4.96v4.934Zm9.993-2.961c0 2.018-1.11 2.96-3.498 2.96H5.958V8.9l1.999-2.925.364-2.65.07-.493h.565c.72 0 1 .276 1 .987v3.454h3.996c.72 0 1 .276 1 .986v2.961Z"/></svg>