<svg width="16" height="17" xmlns="http://www.w3.org/2000/svg"><path fill="var(--fill-color1)" d="M12.992 6.119H9.994V3.65a1.78 1.78 0 0 0-.396-1.317 1.825 1.825 0 0 0-1.603-.656h-.784a.76.76 0 0 0-.458.168.744.744 0 0 0-.257.41v.058l-.5 3.129-1.768 2.65H1V15h9.493c3.718 0 4.497-2.146 4.497-3.947v-2.96a1.78 1.78 0 0 0-.396-1.319 1.825 1.825 0 0 0-1.602-.655Zm-8.994 7.894H1.999V9.08h1.999v4.934Zm9.993-2.96c0 2.018-1.11 2.96-3.498 2.96H4.997v-5.28l1.999-2.925.364-2.65.07-.493h.565c.72 0 1 .276 1 .986v3.454h3.997c.719 0 .999.277.999.987v2.96Z"/></svg>