<svg width="16" height="17" xmlns="http://www.w3.org/2000/svg"><path fill="var(--fill-color1)" d="M3.009 10.548h2.997v2.467c-.05.474.092.948.396 1.318a1.825 1.825 0 0 0 1.603.656h.784a.76.76 0 0 0 .457-.168.744.744 0 0 0 .258-.41v-.059l.5-3.128 1.768-2.65H15V1.668H5.507c-3.718 0-4.497 2.146-4.497 3.947v2.96c-.05.474.092.948.395 1.318a1.825 1.825 0 0 0 1.604.656Zm8.993-7.894h1.999v4.934h-1.999V2.654ZM2.01 5.614c0-2.018 1.11-2.96 3.498-2.96h5.496v5.28l-1.999 2.925-.364 2.65-.07.493h-.565c-.72 0-1-.276-1-.987V9.561H3.01c-.72 0-1-.276-1-.986V5.614Z"/></svg>