<?xml version="1.0" encoding="UTF-8"?>
<svg viewBox="0 0 112 100" xmlns="http://www.w3.org/2000/svg">
<path d="m70.058 64.602c2.708-0.0146 5.4153-0.0319 8.1217-0.0474-0.2557-0.1058-0.4287-0.3529-0.5148-0.4743-0.2161-0.309-0.2496-0.6266-0.2583-0.6938-0.0834-0.6688-0.5448-3.1169-1.1973-6.5361-0.0835-0.4209-0.2566-1.0493-0.6534-1.7207-0.1713-0.2892-0.3615-0.6112-0.6878-0.9159-0.7101-0.662-1.8206-1.0106-2.8518-0.798-0.9323 0.1903-1.5004 0.7765-1.9403 1.2404-2.1881 2.3165-1.7104 5.7141-1.6553 6.0713 0.0224 0.1455 0.1351 0.8462 0.4674 1.719 0.3426 0.9013 0.779 1.6201 1.169 2.1546l9e-4 9e-4z" fill="#EBECEE"/>
<path d="m70.058 64.775c-0.0551 0-0.1068-0.0258-0.1395-0.0706-0.4932-0.6766-0.8943-1.4151-1.1905-2.1942-0.3262-0.8565-0.4476-1.5597-0.4768-1.7543-0.0603-0.3873-0.5251-3.8598 1.7-6.215 0.4348-0.4588 1.0304-1.0872 2.0307-1.2912 1.045-0.2152 2.2243 0.1145 3.0033 0.841 0.3435 0.3211 0.5423 0.6559 0.7171 0.9512 0.3228 0.5466 0.5492 1.1431 0.6757 1.7767 0.699 3.661 1.1199 5.906 1.2 6.5481v0.0095c0.031 0.2299 0.1076 0.4339 0.2281 0.6069 0.0818 0.1153 0.2315 0.3271 0.4399 0.414 0.0757 0.031 0.1188 0.1119 0.1024 0.192-0.0164 0.08-0.0861 0.1386-0.1679 0.1386l-3.2615 0.0189c-1.6201 0.0095-3.2401 0.019-4.861 0.0284zm2.5781-11.246c-0.1971 0-0.3925 0.0189-0.5836 0.0585-0.8944 0.1825-1.447 0.7653-1.8499 1.1905-2.1124 2.2355-1.6674 5.5548-1.6106 5.9258 0.0284 0.1868 0.1446 0.86 0.4588 1.6846 0.2755 0.7239 0.6431 1.4109 1.0958 2.0427 1.5908-0.0086 3.1816-0.0181 4.7715-0.0275l2.7658-0.0164c-0.068-0.0775-0.1197-0.1515-0.1558-0.2032-0.1559-0.222-0.2523-0.4777-0.2893-0.7635v-0.0095c-0.0886-0.7007-0.6172-3.4862-1.1974-6.5266-0.1187-0.5948-0.3314-1.1552-0.6327-1.6648-0.173-0.2918-0.3494-0.5905-0.6567-0.8771-0.5578-0.52-1.3438-0.8135-2.1159-0.8135z"/>
<path d="m45.762 81.93c6.1513 0.0112 12.304 0.0207 18.456 0.0327-2.3698-4.7387-4.7396-9.4792-7.1103-14.218-0.0482-0.1412-0.136-0.3512-0.3021-0.5655-0.136-0.1748-0.2428-0.3134-0.4339-0.3865-0.3503-0.1343-0.705 0.0662-0.748 0.0929-0.2694 0.1575-0.371 0.4037-0.6 1.0502-0.204 0.5733-0.3064 0.8599-0.5388 1.5856-0.099 0.3116-0.2505 0.7618-0.4528 1.3093-0.1722 0.4889-0.439 1.1965-0.8143 2.0306-0.8367 1.849-1.2448 2.1779-1.4376 2.3113-0.9288 0.6439-1.9661 0.5337-2.1356 0.513h-6.877c0.9968 2.0815 1.9953 4.162 2.9947 6.2426v0.0017z" fill="#CED0D6"/>
<path d="m64.218 82.134c-3.6369-0.0069-7.2746-0.0129-10.912-0.0189l-7.5441-0.013c-0.0663 0-0.1266-0.0378-0.155-0.0972-0.9985-2.0806-1.997-4.1612-2.9947-6.2426-0.0258-0.0534-0.0215-0.1162 0.0095-0.1661 0.0318-0.05 0.086-0.0801 0.1454-0.0801h6.877c0.0069 0 0.0138 0 0.0207 9e-4 0.2634 0.0318 1.1862 0.0921 2.0168-0.4838 0.1455-0.1007 0.5311-0.3667 1.379-2.2407 0.3022-0.6697 0.5742-1.3489 0.8092-2.0168 0.2109-0.5707 0.3615-1.0244 0.4511-1.3042 0.2264-0.7093 0.3322-1.0062 0.5242-1.546l0.0163-0.0456c0.2316-0.6525 0.3478-0.9486 0.6758-1.1414 0.0757-0.0448 0.4794-0.2651 0.8969-0.105 0.2342 0.0895 0.3659 0.2582 0.5045 0.4373 0.1429 0.185 0.2522 0.3882 0.3288 0.6086l7.1051 14.208c0.0267 0.0534 0.0241 0.1171-0.0078 0.1679-0.031 0.0508-0.0869 0.0818-0.1463 0.0818l-9e-4 -0.0026zm-18.347-0.3762 7.4365 0.0129c3.544 0.0061 7.0879 0.0121 10.632 0.019l-6.9854-13.968c-0.0034-0.0069-0.0069-0.0138-0.0086-0.0215-0.0646-0.1886-0.1567-0.3624-0.2755-0.5157-0.1299-0.1678-0.2143-0.2754-0.3589-0.3305-0.2755-0.105-0.5664 0.0602-0.5991 0.08-0.2161 0.1266-0.3056 0.3383-0.526 0.9598l-0.0164 0.0457c-0.191 0.5362-0.2961 0.8315-0.5207 1.5348-0.0904 0.2832-0.2428 0.742-0.4554 1.3162-0.2376 0.6748-0.513 1.3626-0.8195 2.0418-0.8875 1.9618-1.3144 2.2562-1.4969 2.3827-0.9194 0.6378-1.9368 0.5793-2.2441 0.5432h-6.593c0.9418 1.966 1.8861 3.933 2.8295 5.8982l0.0017 0.0017z"/>
<path d="m30.968 75.594c0.4037 0.0973 0.7532 0.1059 0.9951 0.0956 3.6016 0 7.2015-0.0017 10.803-0.0026h6.877c-0.9176-0.1102-1.5133-0.6069-1.8861-0.9254-0.5311-0.4545-0.8711-0.9615-1.1164-1.4565-0.1713-0.34-0.2979-0.6765-0.4123-0.9864-0.198-0.5329-0.6-1.738-0.538-3.321 0.0223-0.5681 0.0645-1.4531 0.4751-2.4938 0.6723-1.7052 2.0444-3.0963 3.4441-3.7488 1.1044-0.5156 1.1879-0.5526 1.1879-0.5526 1.0924-0.4864 1.5486-0.6301 1.8766-1.1337 0.0396-0.0611 0.2048-0.3245 0.2737-0.7093 0.1283-0.7171-0.1765-1.317-0.2849-1.5348-2.3956-4.8197-4.793-9.6384-7.1877-14.459-6.1083-0.0327-12.217-0.0645-18.323-0.0964 2.4128 4.9049 4.8265 9.808 7.2385 14.712 0.0912 0.1868 0.2573 0.6018 0.2005 1.1346-0.0223 0.2049-0.0809 0.6895-0.4708 1.0949-0.2367 0.2462-0.4933 0.3547-0.5871 0.3934-2.0659 0.8651-3.9649 1.6597-5.0435 2.9207-0.6783 0.7928-0.9262 1.6468-1.0915 2.2132-0.3641 1.2507-0.2832 2.2716-0.222 2.9534 0.0482 0.5414 0.1971 1.6674 0.7721 2.95 0.2823 0.6292 0.5414 1.2025 1.1208 1.7982 0.2978 0.3064 0.9107 0.915 1.898 1.1552l9e-4 -9e-4z" fill="#CED0D6"/>
<path d="m31.798 75.865c-0.2901 0-0.5836-0.0344-0.8694-0.1042-1.0622-0.2582-1.7061-0.9202-1.9807-1.2025-0.6043-0.6207-0.8711-1.2163-1.1543-1.8473-0.4235-0.9443-0.6956-1.9833-0.7868-3.0051-0.0568-0.6387-0.1524-1.7087 0.2281-3.0162 0.1687-0.5793 0.4235-1.4557 1.1259-2.2769 1.1053-1.292 3.049-2.1063 5.1072-2.968 0.0869-0.0362 0.3168-0.1326 0.5303-0.3547 0.3563-0.3701 0.4054-0.8229 0.4235-0.9933 0.0482-0.4485-0.0741-0.8135-0.1842-1.0399l-3.4915-7.0956c-1.249-2.5385-2.498-5.077-3.7471-7.6164-0.0266-0.0534-0.0232-0.1171 0.0087-0.167 0.0318-0.0499 0.0869-0.0809 0.1463-0.0809h9e-4l6.6729 0.0353c3.8831 0.0206 7.7671 0.0404 11.65 0.062 0.0655 0 0.124 0.037 0.1533 0.0955 1.2103 2.4344 2.4206 4.8687 3.6308 7.3031 1.1862 2.3853 2.3716 4.7706 3.5578 7.155l0.0043 0.0077c0.1187 0.2376 0.4329 0.8694 0.2961 1.6338-0.0663 0.3693-0.2152 0.6422-0.2979 0.7713-0.3124 0.4803-0.7239 0.6603-1.5451 1.0192-0.1248 0.0542-0.26 0.1136-0.4063 0.1791-0.0035 0.0017-0.1076 0.0482-1.1853 0.5517-1.4471 0.6749-2.734 2.0763-3.3572 3.6567-0.4071 1.0321-0.4424 1.9119-0.4631 2.437-0.043 1.1009 0.1343 2.1959 0.5268 3.2547 0.1197 0.3254 0.241 0.6439 0.4046 0.9692 0.2806 0.5647 0.6318 1.0235 1.0751 1.4032 0.3409 0.2918 0.9108 0.7798 1.794 0.8849 0.0903 0.0112 0.1566 0.0903 0.1515 0.1807-0.0052 0.0913-0.081 0.1619-0.1722 0.1619h-6.877l-10.803 0.0025c-0.0551 0.0026-0.111 0.0035-0.1661 0.0035h-9e-4zm-0.7885-0.439c0.3091 0.0749 0.6276 0.105 0.9469 0.0904l10.812-0.0026h5.7605c-0.3942-0.2066-0.6852-0.4554-0.8814-0.6224-0.4786-0.4097-0.8582-0.9038-1.1587-1.5107-0.1713-0.3409-0.2961-0.6697-0.42-1.0037-0.4089-1.101-0.594-2.2407-0.5484-3.3873 0.0215-0.5474 0.0586-1.4633 0.4872-2.5497 0.6543-1.6587 2.0074-3.1307 3.5319-3.8417 1.0932-0.5096 1.1871-0.5527 1.1905-0.5535 0.1472-0.0655 0.2832-0.1249 0.408-0.1799 0.7816-0.3418 1.1389-0.4976 1.3937-0.8901 0.068-0.1068 0.1928-0.3349 0.2488-0.6456 0.117-0.6516-0.161-1.2094-0.266-1.4195l-0.0043-0.0086c-1.1854-2.3853-2.3716-4.7706-3.5577-7.1559-1.1948-2.4025-2.3896-4.805-3.5836-7.2083-3.8478-0.0207-7.6964-0.0414-11.544-0.0612l-6.395-0.0335c1.2078 2.4558 2.4163 4.9109 3.6249 7.3667l3.4914 7.0957c0.1309 0.2677 0.2746 0.6981 0.2169 1.2283-0.0223 0.2023-0.08 0.7403-0.5182 1.1957-0.2634 0.2737-0.55 0.3934-0.6447 0.433-2.0195 0.8453-3.927 1.6441-4.9789 2.8742-0.6542 0.7652-0.8961 1.5976-1.0571 2.1494-0.3624 1.2456-0.2711 2.2751-0.216 2.8897 0.0878 0.9839 0.3495 1.9851 0.7575 2.8949 0.2703 0.6026 0.5251 1.1716 1.0872 1.7483 0.2539 0.2617 0.8496 0.8729 1.8154 1.1079h0.0017z"/>
<path d="m27.152 44.269c6.1066 0.0327 12.216 0.0637 18.323 0.0964 6.4828-7.7636 12.966-15.528 19.449-23.291 0.2703-0.3615 0.8169-0.9925 1.7156-1.4444 0.2513-0.1257 0.9692-0.4734 1.9316-0.5199-5.9017-0.0491-11.802-0.0947-17.705-0.1438-0.6861-0.0628-1.2336 0.0431-1.5693 0.1352-0.6671 0.1816-1.1199 0.4777-1.4522 0.6998-0.4949 0.3271-0.8539 0.6714-1.094 0.9305-6.5327 7.8454-13.066 15.692-19.599 23.538v-9e-4z" fill="#EBECEE"/>
<path d="m45.477 44.537h-9e-4c-3.8831-0.0207-7.767-0.0414-11.65-0.062l-6.673-0.0353c-0.0663 0-0.1274-0.0388-0.1549-0.0999-0.0284-0.0602-0.019-0.1317 0.0241-0.1825l19.599-23.538s0.0043-0.0043 6e-3 -0.0069c0.3374-0.3641 0.7162-0.6861 1.1251-0.9572 0.315-0.2101 0.7928-0.5286 1.5021-0.7222 0.5242-0.1438 1.07-0.1911 1.6235-0.1412 2.931 0.0241 5.862 0.0482 8.7931 0.0714 2.968 0.0241 5.9361 0.0474 8.9041 0.0723 0.093 0 0.1688 0.0758 0.1705 0.1688 0.0017 0.0929-0.0706 0.1713-0.1636 0.1756-0.6309 0.0301-1.2576 0.1997-1.8628 0.5018-0.643 0.3237-1.2154 0.8057-1.6544 1.3937-0.0017 0.0025-0.0035 0.0051-6e-3 0.0077-6.4836 7.7636-12.966 15.527-19.449 23.291-0.0327 0.0396-0.0809 0.062-0.1325 0.062v9e-4zm-17.958-0.4391 6.308 0.0336c3.8564 0.0198 7.7128 0.0405 11.569 0.0611 6.4638-7.7412 12.928-15.484 19.394-23.225 0.4708-0.6292 1.0837-1.1448 1.7732-1.4917 0.1541-0.0766 0.3091-0.1464 0.4657-0.2066-2.4541-0.0198-4.9083-0.0396-7.3624-0.0594-2.9337-0.0233-5.8673-0.0474-8.8009-0.0715h-0.0146c-0.5139-0.0473-1.0218-0.0034-1.5082 0.13-0.655 0.1791-1.1044 0.4786-1.4022 0.6766-0.3857 0.2557-0.742 0.5578-1.0605 0.9004l-19.361 23.253z"/>
<path d="m56.372 66.793c0.1911 0.0732 0.2978 0.2118 0.4338 0.3865 0.1653 0.2144 0.254 0.4244 0.3022 0.5656 2.3698 4.7387 4.7396 9.4792 7.1102 14.218 3.2005-3.8022 6.401-7.6018 9.6006-11.403 0.1119-0.1851 0.4407-0.7747 0.3211-1.5331-0.0594-0.3805-0.2109-0.6688-0.3254-0.8453-1.1346-1.0407-2.2682-2.0814-3.4028-3.123-0.1102-0.1326-0.229-0.2849-0.3538-0.4545-0.3899-0.5346-0.8263-1.2525-1.1689-2.1546-0.3323-0.8728-0.4459-1.5735-0.4675-1.719-0.0551-0.3564-0.5328-3.7549 1.6554-6.0713 0.4398-0.464 1.008-1.0502 1.9402-1.2404 1.0313-0.2126 2.1417 0.136 2.8519 0.798 0.3262 0.3047 0.5165 0.6266 0.6878 0.9159 0.3968 0.6714 0.5698 1.2998 0.6533 1.7207 0.6525 3.4191 1.1139 5.8673 1.1974 6.5361 0.0086 0.0672 0.0422 0.3848 0.2582 0.6938 0.0861 0.1214 0.2591 0.3676 0.5148 0.4743 0.0809 0.0353 0.1704 0.0542 0.2686 0.0525 0.2987-0.0086 0.5078-0.2246 0.5767-0.3038 3.1721-3.797 6.3441-7.5941 9.5171-11.391-4.8567-9.8028-9.7151-19.604-14.573-29.406-0.0956-0.1799-0.2359-0.4399-0.4141-0.7455-0.6421-1.1001-1.0286-1.7655-1.6071-2.3224-0.266-0.2566-1.0502-0.9926-2.3009-1.2482-0.2023-0.0405-0.3986-0.0663-0.5888-0.0792h-0.0052-0.0069c-0.1575-0.0017-0.3159-0.0026-0.4734-0.0034-0.9624 0.0464-1.6803 0.3942-1.9316 0.5199-0.8987 0.4519-1.4453 1.0829-1.7156 1.4444-6.4836 7.7636-12.966 15.527-19.449 23.291 2.3957 4.8197 4.793 9.6384 7.1878 14.459 0.1084 0.2177 0.4131 0.8177 0.2849 1.5348-0.0689 0.3839-0.2341 0.6473-0.2737 0.7093-0.3272 0.5036-0.7842 0.6473-1.8766 1.1337 0 0-0.0835 0.0378-1.1879 0.5526-1.4005 0.6533-2.7718 2.0444-3.4441 3.7488-0.4106 1.0398-0.4528 1.9256-0.4752 2.4938-0.0628 1.5838 0.3401 2.7881 0.538 3.3209 0.1145 0.3108 0.2411 0.6465 0.4124 0.9865 0.2462 0.4958 0.5853 1.002 1.1164 1.4565 0.3719 0.3185 0.9676 0.8152 1.8861 0.9254 0.1695 0.0206 1.2068 0.1308 2.1356-0.5131 0.1937-0.1334 0.6017-0.4622 1.4376-2.3112 0.3753-0.8342 0.643-1.5417 0.8143-2.0307 0.2023-0.5474 0.3529-0.9976 0.4528-1.3093 0.2315-0.7256 0.3348-1.0123 0.5388-1.5856 0.2299-0.6473 0.3314-0.8926 0.6-1.0501 0.0439-0.0259 0.3977-0.2273 0.7481-0.093l-9e-4 -9e-4z" fill="#fff"/>
<path d="m64.218 82.134c-0.0068 0-0.0137 0-0.0206-9e-4 -0.0577-0.0068-0.1076-0.0421-0.1334-0.0938l-7.1103-14.218c-0.0034-0.0069-0.0069-0.0138-0.0086-0.0215-0.0646-0.1885-0.1567-0.3624-0.2755-0.5156-0.1299-0.1679-0.2143-0.2755-0.3589-0.3306-0.2746-0.105-0.5664 0.0603-0.5991 0.0801-0.2161 0.1265-0.3056 0.3383-0.526 0.9598l-0.0163 0.0456c-0.1911 0.5363-0.2962 0.8315-0.5208 1.5348-0.0904 0.2832-0.2428 0.742-0.4554 1.3162-0.2376 0.6748-0.513 1.3626-0.8195 2.0418-0.8875 1.9618-1.3144 2.2562-1.4969 2.3827-0.9297 0.6448-1.9609 0.5776-2.2545 0.5423-0.9865-0.1179-1.6303-0.6697-1.9764-0.9658-0.4786-0.4098-0.8582-0.9039-1.1586-1.5107-0.1713-0.3409-0.2961-0.6697-0.4201-1.0037-0.4089-1.101-0.5939-2.2407-0.5483-3.3873 0.0215-0.5475 0.0585-1.4634 0.4872-2.5497 0.6542-1.6588 2.0074-3.1307 3.5319-3.8418 1.0932-0.5096 1.187-0.5526 1.1905-0.5535 0.1472-0.0654 0.2832-0.1248 0.408-0.1799 0.7816-0.3417 1.1388-0.4975 1.3936-0.89 0.068-0.1068 0.1929-0.3349 0.2488-0.6457 0.1171-0.6516-0.161-1.2094-0.266-1.4194l-0.0043-0.0086c-1.1853-2.3853-2.3715-4.7706-3.5577-7.1559-1.2103-2.4344-2.4206-4.8687-3.6309-7.3031-0.0301-0.0611-0.0215-0.1343 0.0224-0.1868 6.481-7.7627 12.964-15.525 19.446-23.287 0.4708-0.6293 1.0837-1.1449 1.7732-1.4918 0.6482-0.3245 1.3214-0.5053 2.0005-0.538h0.0104l0.4734 0.0034h0.0086 0.0146c0.1989 0.013 0.4046 0.0405 0.6112 0.0818 0.8823 0.1799 1.6846 0.6155 2.387 1.2929 0.5931 0.5708 0.9831 1.2396 1.6295 2.3475l0.0069 0.012c0.1782 0.3065 0.3168 0.5621 0.4175 0.7515 4.8601 9.8063 9.7176 19.607 14.574 29.41 0.0301 0.0611 0.0215 0.1342-0.0224 0.1868l-9.517 11.391c-0.1163 0.1334-0.359 0.3555-0.7042 0.3658-0.1205 0.0026-0.235-0.0198-0.3417-0.0662-0.297-0.124-0.4915-0.3986-0.5854-0.5303-0.1558-0.2221-0.2522-0.4778-0.2892-0.7635v-0.0095c-0.0887-0.7007-0.6172-3.4863-1.1974-6.5266-0.1188-0.5948-0.3314-1.1552-0.6327-1.6648-0.173-0.2918-0.3495-0.5905-0.6568-0.8772-0.6998-0.6525-1.7595-0.9486-2.6994-0.7549-0.8944 0.1825-1.4471 0.7652-1.8499 1.1905-2.1124 2.2355-1.6674 5.5548-1.6097 5.9258 0.0284 0.1868 0.1446 0.8599 0.4588 1.6846 0.2858 0.7514 0.6714 1.4625 1.1466 2.1141 0.117 0.1592 0.2315 0.3056 0.34 0.4373l3.3941 3.1144c0.0104 0.0103 0.0207 0.0215 0.0285 0.0335 0.1824 0.2833 0.3012 0.5906 0.3512 0.9125 0.1179 0.7463-0.1653 1.3532-0.3444 1.6484-0.0043 0.0078-0.0094 0.0147-0.0155 0.0216l-4.2954 5.102c-1.7681 2.1003-3.5362 4.1998-5.3043 6.301-0.0327 0.0388-0.0809 0.0612-0.1317 0.0612v-9e-4zm-6.951-14.456 6.9881 13.974c1.7121-2.0341 3.4242-4.0673 5.1364-6.1005l4.2868-5.0917c0.1549-0.2591 0.3908-0.7764 0.2918-1.4057-0.0413-0.2677-0.1386-0.5234-0.2884-0.7609l-3.3855-3.1075c-6e-3 -0.0052-0.0112-0.0112-0.0164-0.0173-0.1153-0.1385-0.2358-0.2935-0.3598-0.4622-0.4941-0.6775-0.8944-1.4152-1.1905-2.1951-0.3262-0.8565-0.4476-1.5597-0.4769-1.7543-0.0602-0.3874-0.5251-3.8598 1.7001-6.215 0.4347-0.4588 1.0304-1.0872 2.0307-1.2912 1.045-0.2152 2.2243 0.1145 3.0033 0.841 0.3435 0.3211 0.5423 0.6559 0.7171 0.9512 0.3228 0.5466 0.5492 1.1431 0.6757 1.7767 0.699 3.661 1.1199 5.906 1.2 6.5481v0.0095c0.0309 0.2298 0.1076 0.4339 0.2281 0.6069 0.0818 0.1153 0.2315 0.3271 0.4398 0.414 0.0646 0.0276 0.1292 0.0396 0.1989 0.0388 0.2204-0.0069 0.3882-0.1731 0.4502-0.2445l9.4422-11.302c-4.8403-9.7693-9.6815-19.537-14.523-29.305-0.0973-0.1817-0.2333-0.4339-0.4089-0.7352l-0.0068-0.012c-0.631-1.082-1.0124-1.7354-1.571-2.2725-0.6542-0.6319-1.3997-1.0364-2.2166-1.2034-0.1851-0.0371-0.3701-0.062-0.5483-0.0749-0.0095 0-0.019 0-0.0284-9e-4l-0.4606-0.0034c-0.6292 0.031-1.255 0.1997-1.8584 0.5018-0.6431 0.3237-1.2155 0.8057-1.6545 1.3937-0.0017 0.0025-0.0034 0.0051-6e-3 0.0077-6.4595 7.7343-12.918 15.47-19.377 23.205 1.1931 2.4008 2.3871 4.8016 3.581 7.2024 1.1862 2.3853 2.3715 4.7706 3.5577 7.155l0.0043 0.0077c0.1188 0.2376 0.433 0.8695 0.2961 1.6338-0.0663 0.3693-0.2152 0.6422-0.2978 0.7713-0.3125 0.4804-0.724 0.6603-1.5452 1.0192-0.1248 0.0543-0.2599 0.1136-0.4063 0.1791-0.0034 0.0017-0.1076 0.0482-1.1853 0.5517-1.447 0.6749-2.7339 2.0763-3.3571 3.6567-0.4072 1.0322-0.4425 1.9119-0.4631 2.437-0.0431 1.101 0.1342 2.1959 0.5268 3.2547 0.1196 0.3254 0.241 0.6439 0.4045 0.9693 0.2807 0.5646 0.6319 1.0234 1.0752 1.4031 0.3409 0.2918 0.9107 0.7799 1.7939 0.8849 0.2634 0.0327 1.1871 0.0921 2.0169-0.4838 0.1455-0.1007 0.5311-0.3667 1.379-2.2407 0.3021-0.6697 0.5741-1.3489 0.8091-2.0168 0.2109-0.5707 0.3616-1.0244 0.4511-1.3042 0.2264-0.7093 0.3323-1.0062 0.5242-1.546l0.0164-0.0456c0.2315-0.6525 0.3478-0.9486 0.6757-1.1414 0.0758-0.0448 0.4795-0.2651 0.897-0.105 0.2341 0.0895 0.3658 0.2582 0.5044 0.4373 0.1429 0.185 0.2522 0.3882 0.3288 0.6085z"/>
<path d="m63.04 19.081c-1.5434-6e-3 -3.0877-0.0121-4.6302-0.0172 0.1446 0.062 0.2427 0.2031 0.2909 0.2729 0.1214 0.1773 0.1386 0.358 0.1438 0.3968 0.0439 0.3813 0.2935 1.7801 0.6473 3.7324 0.0456 0.2402 0.1403 0.6 0.3633 0.9848 0.0964 0.1661 0.2022 0.3503 0.3873 0.5259 0.4012 0.3814 1.0321 0.5863 1.6209 0.4709 0.5329-0.1033 0.8591-0.4347 1.113-0.6964 1.2603-1.3084 1.0063-3.2478 0.9771-3.4518-0.0121-0.0835-0.0724-0.4829-0.2574-0.9822-0.1903-0.5156-0.4347-0.9279-0.6542-1.2344l-0.0018-0.0017z" fill="#fff"/>
<path d="m61.53 25.651c-0.5139 0-1.039-0.1989-1.4074-0.5492-0.2015-0.192-0.3159-0.3891-0.4167-0.563-0.185-0.3202-0.3141-0.6697-0.3839-1.0399-0.3882-2.1434-0.606-3.3743-0.649-3.7445-0.0147-0.1239-0.0534-0.2298-0.1145-0.3193-0.0413-0.0603-0.1179-0.1705-0.2161-0.2118-0.0757-0.0318-0.1179-0.1127-0.1007-0.1928 0.0164-0.08 0.087-0.1377 0.1687-0.1377l1.9231 0.0069c0.9021 0.0034 1.8051 0.0069 2.7072 0.0103 0.0551 0 0.1076 0.0267 0.1395 0.0723 0.2814 0.3943 0.5087 0.8229 0.6757 1.2749 0.1842 0.4966 0.2505 0.9047 0.266 1.0183 0.0327 0.2247 0.2823 2.2398-1.0235 3.5956-0.2428 0.2513-0.6095 0.6309-1.2043 0.7463-0.1196 0.0232-0.2419 0.0353-0.365 0.0353l9e-4 -0.0017zm-2.6892-6.413c0.0947 0.1377 0.1524 0.2952 0.1731 0.47 0.0464 0.4037 0.3322 1.9936 0.6464 3.7281 0.0629 0.3306 0.1782 0.6439 0.3426 0.9288 0.0939 0.1627 0.1911 0.3297 0.3564 0.4872 0.3788 0.3598 0.9555 0.5268 1.4694 0.4261 0.4881-0.0947 0.7842-0.4011 1.0218-0.6473 1.1922-1.2378 0.9606-3.0989 0.9305-3.3072-0.0146-0.105-0.0766-0.4829-0.2479-0.9478-0.1463-0.3959-0.3418-0.773-0.5828-1.1224-0.8728-0.0035-1.7457-0.0069-2.6185-0.0104l-1.491-0.0051z"/>
<path d="m76.984 9.3384c-3.5069-0.0396-7.0138-0.07919-10.521-0.11965 1.3256 2.7142 2.6504 5.43 3.9752 8.144 0.0267 0.0809 0.0757 0.2006 0.1687 0.3237 0.0766 0.1007 0.1369 0.1799 0.2453 0.2229 0.1989 0.0784 0.402-0.0344 0.427-0.049 0.1541-0.0887 0.2135-0.2281 0.3478-0.5957 0.1196-0.3254 0.1799-0.4889 0.3159-0.9013 0.0585-0.1773 0.1472-0.433 0.2651-0.7437 0.1007-0.278 0.2565-0.68 0.4752-1.1535 0.4872-1.0493 0.7213-1.2352 0.8324-1.3101 0.5328-0.3624 1.1242-0.2936 1.2206-0.2807 1.3067 0.0121 2.6134 0.025 3.9201 0.0371-0.5569-1.1923-1.1148-2.3836-1.6726-3.575v8.6e-4z" fill="#EBECEE"/>
<path d="m71.002 18.108c-0.0672 0-0.1395-0.0112-0.2126-0.0396-0.1524-0.0594-0.2359-0.1696-0.3168-0.2755-0.0844-0.1119-0.1489-0.2341-0.1937-0.3658l-3.97-8.1338c-0.0259-0.05337-0.0224-0.11707 0.0094-0.16786 0.0319-0.05078 0.0878-0.07833 0.1472-0.08005 2.0453 0.02324 4.0906 0.04648 6.1359 0.06972l4.3849 0.04993c0.0663 0 0.1257 0.0396 0.1541 0.09899 0.5578 1.1914 1.1156 2.3836 1.6725 3.575 0.025 0.0533 0.0207 0.1162-0.0112 0.1661-0.0318 0.0499-0.0869 0.0783-0.1463 0.0792l-3.9201-0.037c-0.0069 0-0.0138 0-0.0207-0.0017-0.1437-0.019-0.6464-0.0569-1.1009 0.2522-0.0715 0.0482-0.2884 0.1945-0.773 1.2395-0.1748 0.3788-0.3332 0.7618-0.47 1.1397-0.124 0.3254-0.2118 0.5811-0.2634 0.7386-0.1335 0.4029-0.1954 0.5724-0.3074 0.8789l-0.0103 0.0275c-0.1377 0.3779-0.2135 0.5656-0.4244 0.6852-0.0353 0.0207-0.1825 0.099-0.3632 0.099v0.0018zm-4.2619-8.7157 3.853 7.8927c0.0034 0.0069 6e-3 0.0147 0.0086 0.0215 0.0327 0.1008 0.0809 0.1929 0.1429 0.2738 0.0732 0.0964 0.111 0.1429 0.1704 0.1661 0.1257 0.0499 0.2764-0.0361 0.2772-0.037 0.0981-0.0568 0.1438-0.1524 0.2729-0.5062l0.0103-0.0284c0.1111-0.303 0.1722-0.47 0.3039-0.8677 0.0534-0.1609 0.1429-0.4226 0.2677-0.7514 0.1394-0.384 0.3013-0.7765 0.4803-1.1638 0.5251-1.132 0.7825-1.3059 0.8918-1.3799 0.544-0.3702 1.1414-0.3331 1.3282-0.3099l3.6369 0.0344c-0.5035-1.0768-1.0071-2.1528-1.5115-3.2297l-4.2774-0.04821c-1.9523-0.02238-3.9037-0.0439-5.8569-0.06628h0.0017z"/>
<path d="m85.383 13.031c-0.2298-0.0576-0.4287-0.0645-0.5673-0.0594-2.053-0.0198-4.106-0.0387-6.159-0.0576-1.3067-0.0121-2.6134-0.025-3.9201-0.037 0.5225 0.068 0.859 0.3537 1.0699 0.538 0.3005 0.2625 0.4916 0.5526 0.6284 0.8367 0.0956 0.1945 0.1662 0.3873 0.2299 0.5646 0.1102 0.3048 0.3322 0.9943 0.2883 1.8964-0.0163 0.3237-0.0447 0.8281-0.2849 1.4186-0.3925 0.9684-1.1819 1.7535-1.9841 2.1184-0.6327 0.2876-0.6801 0.3091-0.6801 0.3091-0.6249 0.2711-0.8866 0.3503-1.076 0.6361-0.0224 0.0344-0.1188 0.1842-0.1601 0.4029-0.0775 0.408 0.0938 0.7515 0.1541 0.8763 1.3394 2.7606 2.6797 5.5212 4.0182 8.2818 3.482 0.0525 6.9639 0.1033 10.445 0.1558-1.3488-2.8088-2.6977-5.6176-4.0458-8.4264-0.0507-0.1068-0.1437-0.3444-0.1084-0.6474 0.0138-0.1162 0.0499-0.3925 0.2746-0.6215 0.136-0.1394 0.2832-0.1997 0.3366-0.2212 1.1827-0.482 2.269-0.9245 2.8905-1.6372 0.3908-0.4485 0.5372-0.934 0.6345-1.256 0.2143-0.711 0.1738-1.2938 0.1428-1.682-0.0241-0.309-0.1032-0.952-0.4243-1.6863-0.1576-0.3598-0.3022-0.6886-0.6293-1.0312-0.1687-0.1765-0.5139-0.5268-1.076-0.6689l0.0026-0.0026z" fill="#EBECEE"/>
<path d="m87.387 31.081h-0.0026l-3.6946-0.0551c-2.2501-0.0335-4.5003-0.0671-6.7504-0.1007-0.0654-8e-4 -0.124-0.0387-0.1524-0.0972-0.6809-1.404-1.3618-2.808-2.0435-4.2111l-1.9747-4.0708c-0.0715-0.1472-0.2548-0.5242-0.1687-0.983 0.0422-0.2229 0.1343-0.3865 0.185-0.4648 0.1929-0.291 0.4511-0.4003 0.9194-0.6 0.0714-0.0301 0.148-0.0628 0.2324-0.0999 0.0035-0.0017 0.068-0.0301 0.6775-0.3073 0.8126-0.3693 1.5391-1.1457 1.8955-2.0263 0.2332-0.5742 0.2573-1.0674 0.272-1.3627 0.0301-0.6172-0.0637-1.2326-0.2781-1.8292-0.0663-0.1842-0.1325-0.3641-0.2221-0.5474-0.1523-0.3151-0.3443-0.5708-0.587-0.7825-0.186-0.1627-0.4976-0.4347-0.9788-0.4967-0.0903-0.012-0.1558-0.0921-0.1497-0.1825 6e-3 -0.0912 0.0826-0.1584 0.173-0.1601l10.079 0.0947c0.1997-0.0069 0.4072 0.0146 0.6078 0.0646 0.6249 0.1583 0.9985 0.55 1.1578 0.717 0.3503 0.3667 0.5018 0.7136 0.6619 1.0812 0.2393 0.5483 0.3908 1.15 0.4382 1.7414 0.0292 0.3701 0.0783 0.989-0.1498 1.7457-0.1016 0.3357-0.254 0.8427-0.6697 1.3196-0.6482 0.7437-1.769 1.2008-2.9552 1.6837-0.0456 0.019-0.167 0.068-0.2789 0.1825-0.1868 0.1911-0.2143 0.4227-0.2264 0.5208-0.0275 0.2376 0.0353 0.4321 0.093 0.5535l4.0458 8.4264c0.0258 0.0534 0.0215 0.1171-0.0103 0.167-0.0319 0.05-0.0861 0.0792-0.1447 0.0792h-8e-4zm-10.337-0.4975c2.2149 0.0336 4.4297 0.0663 6.6446 0.099l3.4165 0.0508-3.9261-8.176c-0.0775-0.1627-0.161-0.4226-0.124-0.742 0.013-0.111 0.0526-0.4467 0.3228-0.7222 0.1627-0.1653 0.3375-0.2367 0.3952-0.26 1.1474-0.4674 2.2312-0.909 2.826-1.5916 0.3667-0.4201 0.5061-0.8849 0.5991-1.1922 0.2092-0.6947 0.1635-1.2731 0.136-1.6192-0.0439-0.5535-0.1859-1.1173-0.4097-1.6303-0.1541-0.353-0.2876-0.6586-0.5957-0.9814-0.1395-0.1454-0.4649-0.4872-0.9934-0.6206-0.1687-0.0422-0.3434-0.0611-0.5191-0.0542l-9.1856-0.0861c0.1179 0.0826 0.2118 0.1653 0.2832 0.2272 0.278 0.2428 0.4975 0.5346 0.6706 0.891 0.0972 0.198 0.1678 0.3882 0.2367 0.5819 0.2307 0.6387 0.3305 1.2998 0.2978 1.9626-0.0155 0.3168-0.0422 0.8462-0.297 1.4754-0.389 0.959-1.1827 1.806-2.0719 2.2106-0.6267 0.2849-0.6809 0.309-0.6826 0.3099-0.0844 0.037-0.1627 0.0697-0.2342 0.1007-0.4467 0.1902-0.6309 0.2686-0.7669 0.4726-0.0362 0.0559-0.1033 0.1747-0.1343 0.3391-0.0655 0.3469 0.0818 0.6499 0.1377 0.7644l1.9773 4.0751c0.6654 1.3721 1.3316 2.7442 1.997 4.1163v-8e-4z"/>
<path d="m87.386 30.909c-3.481-0.0516-6.963-0.1033-10.445-0.1558-3.7384 4.3901-7.4761 8.7811-11.214 13.171-0.1558 0.2049-0.4709 0.5613-0.9857 0.8143-0.1437 0.0706-0.5552 0.2643-1.1035 0.2858 3.364 0.0603 6.728 0.1188 10.092 0.1791 0.3908 0.0396 0.7033-0.0181 0.8952-0.068 0.3813-0.0999 0.6413-0.266 0.8315-0.3908 0.2841-0.1843 0.4907-0.3779 0.6293-0.5243 3.7669-4.4366 7.5346-8.874 11.302-13.311l-9e-4 -9e-4z" fill="#CED0D6"/>
<path d="m73.99 45.39c-0.0904 0-0.1808-0.0043-0.2711-0.0138-1.6631-0.0301-3.3253-0.0594-4.9875-0.0886-1.6993-0.0302-3.3985-0.0603-5.0977-0.0904-0.093-0.0017-0.1679-0.0775-0.1687-0.1705-9e-4 -0.0929 0.0723-0.1704 0.1652-0.1738 0.3495-0.0138 0.6981-0.1042 1.0347-0.2686 0.3581-0.1756 0.6775-0.4399 0.9245-0.7635 0.0017-0.0026 0.0035-0.0052 6e-3 -0.0069 3.7385-4.3901 7.477-8.7802 11.215-13.171 0.0336-0.0387 0.0861-0.0594 0.1334-0.0603 2.2502 0.0336 4.5003 0.0672 6.7505 0.1007l3.6945 0.0551c0.0663 9e-4 0.1266 0.0405 0.1541 0.1008 0.0276 0.0602 0.0172 0.1317-0.0258 0.1824l-11.302 13.311s-0.0043 0.0043-6e-3 0.0069c-0.1989 0.21-0.421 0.3951-0.6603 0.5509-0.185 0.1205-0.4648 0.303-0.8814 0.4132-0.2204 0.0585-0.4476 0.0869-0.6775 0.0869zm-9.1348-0.5148c1.2937 0.0233 2.5884 0.0457 3.8822 0.0689 1.6648 0.0293 3.3296 0.0585 4.9952 0.0887h0.0147c0.284 0.0292 0.5647 0.0077 0.8341-0.0637 0.3632-0.0956 0.6146-0.26 0.7816-0.3685 0.2161-0.1403 0.4158-0.3064 0.5948-0.4949l11.063-13.029-3.3305-0.0499c-2.2226-0.0327-4.446-0.0663-6.6695-0.099-3.7195 4.3686-7.4391 8.7372-11.16 13.106-0.2694 0.3529-0.6172 0.643-1.0062 0.8418z"/>
<path d="m70.852 17.908c-0.1085-0.0431-0.1688-0.1223-0.2454-0.223-0.0929-0.1231-0.142-0.2427-0.1687-0.3237-1.3256-2.7141-2.6504-5.4299-3.9752-8.144-1.8447 2.1503-3.6903 4.2988-5.535 6.4483-0.0645 0.105-0.2556 0.439-0.1919 0.872 0.0318 0.2177 0.117 0.3822 0.1807 0.4837 0.6405 0.6 1.2818 1.1991 1.9222 1.7991 0.062 0.0766 0.1291 0.1636 0.1989 0.2608 0.2195 0.3065 0.4639 0.7188 0.6542 1.2344 0.1842 0.4993 0.2453 0.8996 0.2574 0.9822 0.0292 0.204 0.2832 2.1434-0.9771 3.4518-0.253 0.2626-0.5801 0.5931-1.113 0.6964-0.5888 0.1154-1.2197-0.0895-1.6209-0.4708-0.1842-0.1756-0.2909-0.3598-0.3873-0.526-0.2221-0.3848-0.3177-0.7437-0.3633-0.9847-0.3538-1.9523-0.6034-3.3503-0.6473-3.7325-0.0052-0.0387-0.0215-0.2195-0.1438-0.3968-0.0482-0.0697-0.1454-0.2109-0.2909-0.2729-0.0465-0.0207-0.0964-0.0318-0.1532-0.031-0.1705 0.0035-0.291 0.1257-0.3306 0.1705-1.8292 2.1468-3.6584 4.2945-5.4876 6.4414 2.7149 5.615 5.4308 11.229 8.1458 16.843 0.0533 0.1033 0.1317 0.2522 0.2324 0.427 0.3598 0.631 0.5767 1.0123 0.9038 1.3325 0.1498 0.1481 0.5931 0.5716 1.305 0.724 0.1154 0.0241 0.2273 0.0404 0.3349 0.0482h0.0034 0.0043c0.0895 0.0017 0.1799 0.0034 0.2694 0.0043 0.5492-0.0216 0.9598-0.2152 1.1036-0.2858 0.5148-0.2531 0.8298-0.6095 0.9856-0.8143 3.7385-4.3902 7.477-8.7803 11.215-13.171-1.3394-2.7606-2.6797-5.5212-4.0183-8.2818-0.0602-0.1248-0.2315-0.4683-0.154-0.8763 0.0413-0.2187 0.1368-0.3676 0.1601-0.4029 0.1894-0.2849 0.4502-0.365 1.076-0.6361 0 0 0.0482-0.0207 0.68-0.3091 0.8014-0.3649 1.5916-1.15 1.9842-2.1184 0.2401-0.5905 0.2685-1.0949 0.2849-1.4186 0.0439-0.9021-0.1782-1.5916-0.2884-1.8964-0.0637-0.1773-0.1343-0.3701-0.2298-0.5646-0.1377-0.2841-0.3288-0.5742-0.6284-0.8367-0.21-0.1834-0.5475-0.47-1.07-0.538-0.0964-0.013-0.6878-0.0818-1.2206 0.2806-0.111 0.0749-0.3452 0.2599-0.8324 1.3101-0.2186 0.4735-0.3744 0.8755-0.4752 1.1535-0.1179 0.3107-0.2066 0.5673-0.2651 0.7437-0.136 0.4124-0.1963 0.5751-0.3159 0.9013-0.1343 0.3676-0.1937 0.507-0.3478 0.5957-0.0249 0.0146-0.2281 0.1274-0.4269 0.049l0.0026 0.0018z" fill="#fff"/>
<path d="m63.638 45.196h-0.0035l-0.2694-0.0043h-0.0172c-0.1171-0.0086-0.2376-0.0258-0.3581-0.0516-0.5165-0.1102-0.9839-0.3693-1.3902-0.7696-0.3426-0.3357-0.563-0.7222-0.928-1.3627-0.1058-0.1867-0.1867-0.34-0.2393-0.4398-2.7175-5.6185-5.4334-11.233-8.1483-16.848-0.0293-0.0611-0.0207-0.1343 0.0241-0.1868l5.4876-6.4414c0.0757-0.0861 0.2333-0.2264 0.4579-0.2307 0.0801-0.0026 0.1559 0.0146 0.2264 0.0456 0.1877 0.0801 0.3048 0.2497 0.3616 0.3306 0.0947 0.1377 0.1523 0.2952 0.173 0.47 0.0465 0.4037 0.3323 1.9936 0.6465 3.7281 0.0628 0.3306 0.1781 0.6439 0.3426 0.9288 0.0938 0.1627 0.1911 0.3297 0.3563 0.4872 0.3788 0.3599 0.9555 0.5269 1.4694 0.4261 0.4881-0.0946 0.7842-0.4011 1.0218-0.6473 1.1922-1.2378 0.9607-3.0989 0.9305-3.3072-0.0146-0.105-0.0766-0.4829-0.2479-0.9477-0.1566-0.4236-0.3693-0.8256-0.6327-1.194-0.0637-0.0886-0.1265-0.1704-0.185-0.2436l-1.9136-1.7905c-0.0103-0.0103-0.0198-0.0215-0.0276-0.0335-0.1084-0.1713-0.1773-0.3564-0.2057-0.5509-0.0663-0.4494 0.1068-0.8118 0.2152-0.9874 0.0043-0.0077 0.0103-0.0146 0.0155-0.0215l5.535-6.4483c0.0379-0.0439 0.0955-0.06542 0.1523-0.05854 0.0577 0.00775 0.1076 0.04304 0.1326 0.09555l3.9752 8.1441c0.0035 0.0069 6e-3 0.0146 0.0086 0.0215 0.0327 0.1007 0.0809 0.1928 0.1429 0.2737 0.0732 0.0965 0.1111 0.1429 0.1705 0.1662 0.1256 0.0499 0.2754-0.0362 0.2771-0.037 0.0982-0.0568 0.1438-0.1524 0.2729-0.5062l0.0103-0.0284c0.1111-0.303 0.1722-0.47 0.3039-0.8677 0.0534-0.161 0.1429-0.4226 0.2677-0.7515 0.1395-0.3839 0.3013-0.7764 0.4803-1.1638 0.5251-1.1319 0.7825-1.3058 0.8918-1.3798 0.5553-0.3771 1.1656-0.3315 1.3394-0.3091 0.5837 0.0758 0.959 0.4029 1.1604 0.5793 0.2781 0.2428 0.4976 0.5346 0.6706 0.891 0.0972 0.198 0.1678 0.3882 0.2367 0.5819 0.2307 0.6387 0.3305 1.2998 0.2978 1.9626-0.0155 0.3168-0.0421 0.8462-0.2969 1.4754-0.3891 0.959-1.1828 1.806-2.072 2.2106-0.6267 0.2849-0.6809 0.309-0.6826 0.3099-0.0844 0.037-0.1627 0.0697-0.2342 0.1007-0.4467 0.1902-0.6309 0.2686-0.7669 0.4726-0.0362 0.0559-0.1033 0.1747-0.1343 0.3391-0.0654 0.3469 0.0818 0.6499 0.1377 0.7644l1.9773 4.0751c0.6809 1.404 1.3626 2.8079 2.0435 4.211 0.0302 0.0612 0.0207 0.1352-0.0241 0.1868-3.7376 4.3893-7.4743 8.7785-11.212 13.168-0.2789 0.3641-0.6395 0.6619-1.0441 0.8608-0.3805 0.1859-0.7756 0.2883-1.1733 0.303h-0.0069l9e-4 -9e-4zm-0.2591-0.3486 0.2565 0.0043c0.3478-0.0138 0.6947-0.1042 1.0304-0.2686 0.3581-0.1756 0.6774-0.4399 0.9245-0.7635 0.0017-0.0026 0.0034-0.0052 6e-3 -0.0069 3.7144-4.3617 7.4279-8.7234 11.142-13.085-0.6646-1.3704-1.3291-2.7399-1.9945-4.1103l-1.9747-4.0708c-0.0714-0.1472-0.2548-0.5242-0.1687-0.983 0.0422-0.223 0.1343-0.3865 0.1851-0.4649 0.1928-0.2909 0.451-0.4002 0.9193-0.5999 0.0714-0.0302 0.1481-0.0629 0.2324-0.0999 0.0035-0.0017 0.068-0.0301 0.6775-0.3073 0.8126-0.3693 1.5391-1.1457 1.8955-2.0263 0.2332-0.5742 0.2573-1.0674 0.272-1.3627 0.0301-0.6172-0.0637-1.2327-0.2781-1.8292-0.0662-0.1842-0.1325-0.3641-0.222-0.5475-0.1524-0.315-0.3444-0.5707-0.5871-0.7825-0.186-0.1626-0.4976-0.4347-0.9788-0.4966-0.1437-0.019-0.6464-0.0569-1.1018 0.2522-0.0714 0.0482-0.2884 0.1945-0.773 1.2395-0.1747 0.3788-0.3331 0.7618-0.47 1.1397-0.1239 0.3254-0.2117 0.5811-0.2634 0.7386-0.1334 0.4029-0.1954 0.5725-0.3073 0.8789l-0.0103 0.0275c-0.1378 0.3779-0.2135 0.5656-0.4244 0.6852-0.0482 0.0284-0.3073 0.1653-0.5759 0.0594-0.1523-0.0602-0.2358-0.1695-0.3168-0.2754-0.0843-0.1119-0.1489-0.2342-0.1936-0.3659l-3.8556-7.8987-5.3559 6.2391c-0.0844 0.1395-0.2101 0.4132-0.161 0.7455 0.0207 0.1403 0.0689 0.2737 0.1446 0.3985l1.9058 1.7836c0.0061 0.0052 0.0112 0.0112 0.0155 0.0172 0.0655 0.0809 0.1343 0.1713 0.2058 0.2686 0.2823 0.3942 0.5096 0.8238 0.6766 1.2757 0.1842 0.4967 0.2505 0.9047 0.266 1.0183 0.0327 0.2247 0.2823 2.2399-1.0235 3.5956-0.2428 0.2514-0.6095 0.631-1.2043 0.7463-0.6198 0.1214-1.3153-0.0809-1.7724-0.5147-0.2014-0.192-0.3159-0.3891-0.4166-0.563-0.1851-0.3202-0.3142-0.6697-0.384-1.0398-0.3882-2.1434-0.606-3.3744-0.649-3.7445-0.0146-0.124-0.0534-0.2299-0.1145-0.3194-0.0413-0.0603-0.1179-0.1704-0.2161-0.2118-0.0275-0.012-0.0542-0.0172-0.0834-0.0172-0.0956 0.0017-0.1739 0.0792-0.2032 0.1119l-5.4127 6.3536c2.6986 5.5815 5.3981 11.162 8.0976 16.742 0.0482 0.093 0.1274 0.2428 0.2263 0.4175 0.3547 0.6215 0.5665 0.9925 0.8746 1.2947 0.3598 0.3538 0.7704 0.5819 1.2206 0.6783 0.1008 0.0215 0.2015 0.0361 0.2996 0.0439 6e-3 0 0.0121 0 0.0181 8e-4v-8e-4z"/>
<path d="m90.509 65.646 10.254 12.37 0.269-0.1501 5.489-3.0602-10.255-12.37-5.4172 3.0209-0.3401 0.19z" fill="#FF7E88"/>
<path d="m100.76 78.139c0.02 0 0.041-5e-3 0.06-0.0156l5.757-3.2103c0.033-0.0181 0.055-0.0492 0.062-0.086 7e-3 -0.0367-3e-3 -0.0741-0.027-0.1022l-10.254-12.37c-0.0386-0.0461-0.1046-0.0585-0.1563-0.0293l-5.7573 3.211c-0.0324 0.0181-0.0548 0.0498-0.0617 0.086-0.0068 0.0361 0.0031 0.0741 0.0268 0.1021l10.255 12.37c0.024 0.0293 0.059 0.0449 0.096 0.0449zm5.565-3.3704-5.536 3.087-10.093-12.175 0.2093-0.1171 5.3269-2.9705 10.092 12.176h1e-3z"/>
<path d="m95.274 76.234v9.692l5.7576-3.2103v-4.8529l-0.269 0.1501-5.4886-1.7789z" fill="#FF7E88"/>
<path d="m95.274 86.052c0.0212 0 0.0417-5e-3 0.0604-0.0156l5.7572-3.2104c0.039-0.0218 0.064-0.0635 0.064-0.109v-4.8528c0-0.0443-0.023-0.0854-0.061-0.1072s-0.086-0.023-0.124-0.0012l-0.222 0.1233-5.4366-1.7621c-0.038-0.0125-0.0798-0.0056-0.1115 0.0174-0.0324 0.0237-0.0511 0.0611-0.0511 0.1009v9.6921c0 0.0442 0.0237 0.0853 0.0617 0.1071 0.0193 0.0112 0.0411 0.0175 0.0629 0.0175zm5.6326-3.4078-5.508 3.0714v-9.3083l5.325 1.726c0.033 0.0105 0.068 0.0068 0.099-0.01l0.084-0.0467v4.5676z"/>
<path d="m86.011 68.156 5.4875 1.7795v9.6927l3.6526 1.1841 0.124 0.0405v-4.615l5.488 1.779-10.254-12.37-4.4978 2.509z" fill="#FF444F"/>
<path d="m95.275 80.977c0.0262 0 0.0517-0.0081 0.0729-0.0236 0.0324-0.0237 0.0517-0.0611 0.0517-0.1009v-4.4437l5.3251 1.726c0.053 0.0168 0.11-0.0025 0.141-0.0486s0.028-0.1065-7e-3 -0.1495l-10.255-12.37c-0.0386-0.0461-0.104-0.0585-0.1563-0.0292l-4.4979 2.5089c-0.0429 0.0243-0.0679 0.0717-0.0635 0.1209 5e-3 0.0492 0.0386 0.0909 0.0853 0.1065l5.4017 1.7515v9.6024c0 0.0542 0.0348 0.1021 0.0859 0.1183l3.7766 1.2246c0.0124 0.0044 0.0255 0.0062 0.0386 0.0062h6e-4zm0-4.8641c-0.0262 0-0.0517 0.0081-0.0735 0.0237-0.0324 0.0237-0.0511 0.0611-0.0511 0.1009v4.443l-3.5274-1.1436v-9.6023c0-0.0542-0.0348-0.1022-0.0859-0.1184l-5.216-1.6917 4.1577-2.3196 9.9149 11.96-5.0807-1.6469c-0.0125-0.0043-0.0255-0.0062-0.0386-0.0062l6e-4 0.0012z"/>
<path d="m80.254 71.366 5.4882 1.7802v9.692l3.6525 1.1847 0.1234 0.0405 5.7573 1.8662v-9.6921l5.488 1.779-10.254-12.37-5.4172 3.021-0.3401 0.1893-4.4978 2.509z" fill="#FF444F"/>
<path d="m95.275 86.054c0.0262 0 0.0517-0.0081 0.0735-0.0236 0.0324-0.0237 0.0511-0.0611 0.0511-0.1009v-9.5208l5.3251 1.726c0.052 0.0168 0.11-0.0025 0.141-0.0486s0.028-0.1065-7e-3 -0.1495l-10.255-12.37c-0.0386-0.0461-0.104-0.0585-0.1563-0.0292l-10.255 5.7193c-0.0429 0.0242-0.0679 0.0716-0.0635 0.1208 5e-3 0.0492 0.0386 0.0909 0.0853 0.1065l5.4023 1.7522v9.6017c0 0.0542 0.0349 0.1021 0.0859 0.1183l3.7753 1.2253 5.758 1.8661c0.0124 0.0044 0.0255 0.0062 0.0386 0.0062h6e-4zm0-9.9412c-0.0262 0-0.0517 0.0081-0.0735 0.0237-0.0324 0.0237-0.0511 0.0611-0.0511 0.1009v9.5208l-5.7174-1.8537-3.5666-1.1567v-9.6017c0-0.0542-0.0349-0.1022-0.086-0.1184l-5.2166-1.6924 9.915-5.5299 9.9149 11.96-5.0807-1.6469c-0.0125-0.0043-0.0255-0.0062-0.0386-0.0062l6e-4 6e-4z"/>
<path d="m18.28 67.014 15.094 18.208 0.3961-0.2209 8.0785-4.5046-15.094-18.209-7.9741 4.4468-0.5006 0.2797z" fill="#FF7E88"/>
<path d="m33.374 85.405c0.0302 0 0.0614-0.0073 0.0889-0.0229l8.4746-4.7255c0.0477-0.0266 0.0807-0.0725 0.0908-0.1266s-0.0046-0.1091-0.0394-0.1503l-15.094-18.209c-0.0568-0.0678-0.154-0.0862-0.2301-0.0431l-8.4746 4.7265c-0.0477 0.0266-0.0807 0.0733-0.0908 0.1265s0.0046 0.1091 0.0394 0.1504l15.094 18.208c0.0357 0.0431 0.088 0.066 0.1412 0.066zm8.1922-4.9612-8.1491 4.5441-14.857-17.921 0.308-0.1724 7.8411-4.3725 14.856 17.922h9e-4z"/>
<path d="m25.295 82.602v14.267l8.4746-4.7256v-7.1433l-0.3961 0.2209-8.0785-2.6186z" fill="#FF7E88"/>
<path d="m25.295 97.053c0.0312 0 0.0614-0.0074 0.0889-0.023l8.4747-4.7255c0.0578-0.0321 0.0944-0.0935 0.0944-0.1605v-7.1433c0-0.0651-0.0348-0.1256-0.0907-0.1577-0.056-0.0321-0.1257-0.0339-0.1825-0.0019l-0.3264 0.1816-8.0025-2.5938c-0.0559-0.0184-0.1173-0.0083-0.1641 0.0256-0.0477 0.0349-0.0752 0.0899-0.0752 0.1486v14.266c0 0.0651 0.0349 0.1256 0.0908 0.1577 0.0284 0.0165 0.0605 0.0257 0.0926 0.0257zm8.2913-5.0163-8.1079 4.5211v-13.702l7.8383 2.5407c0.0486 0.0156 0.1009 0.0101 0.1458-0.0147l0.1238-0.0688v6.7234z"/>
<path d="m11.659 70.706 8.0777 2.6195v14.267l5.3765 1.743 0.1825 0.0596v-6.7931l8.0785 2.6185-15.094-18.208-6.6208 3.6932z" fill="#FF444F"/>
<path d="m25.296 89.579c0.0385 0 0.0761-0.0119 0.1072-0.0348 0.0477-0.0349 0.0761-0.0899 0.0761-0.1486v-6.5409l7.8384 2.5406c0.0779 0.0248 0.1623-0.0036 0.2081-0.0715 0.0459-0.0678 0.0413-0.1568-0.011-0.22l-15.094-18.208c-0.0569-0.0678-0.1532-0.0862-0.2302-0.0431l-6.6207 3.6932c-0.0633 0.0357-0.0999 0.1054-0.0935 0.1778 0.0073 0.0725 0.0568 0.1339 0.1256 0.1568l7.9511 2.5783v14.134c0 0.0797 0.0513 0.1503 0.1265 0.1742l5.559 1.8025c0.0183 0.0065 0.0376 0.0092 0.0569 0.0092h9e-4zm0-7.1598c-0.0385 0-0.0761 0.0119-0.1082 0.0348-0.0477 0.0348-0.0752 0.0899-0.0752 0.1485v6.5401l-5.1922-1.6834v-14.134c0-0.0798-0.0514-0.1504-0.1266-0.1742l-7.6779-2.4902 6.1202-3.4144 14.594 17.605-7.478-2.4242c-0.0183-0.0064-0.0376-0.0092-0.0568-0.0092l9e-4 0.0019z"/>
<path d="m3.1847 75.431 8.0785 2.6204v14.266l5.3766 1.7439 0.1815 0.0596 8.4747 2.747v-14.266l8.0785 2.6185-15.094-18.208-7.9741 4.4468-0.50058 0.2787-6.6207 3.6932z" fill="#FF444F"/>
<path d="m25.296 97.052c0.0385 0 0.0761-0.0119 0.1082-0.0348 0.0476-0.0349 0.0751-0.0899 0.0751-0.1485v-14.014l7.8384 2.5406c0.077 0.0248 0.1623-0.0036 0.2081-0.0715 0.0459-0.0678 0.0413-0.1568-0.011-0.22l-15.094-18.208c-0.0569-0.0678-0.1532-0.0862-0.2302-0.0431l-15.095 8.4187c-0.06327 0.0358-0.09994 0.1055-0.09353 0.1779 0.00734 0.0724 0.05685 0.1339 0.12562 0.1568l7.9521 2.5791v14.134c0 0.0798 0.0513 0.1504 0.1265 0.1742l5.5571 1.8035 8.4756 2.747c0.0183 0.0064 0.0376 0.0091 0.0569 0.0091h9e-4zm0-14.633c-0.0385 0-0.0761 0.0119-0.1082 0.0348-0.0477 0.0348-0.0752 0.0899-0.0752 0.1485v14.014l-8.416-2.7286-5.25-1.7026v-14.134c0-0.0798-0.0513-0.1504-0.1265-0.1742l-7.6788-2.4911 14.595-8.14 14.594 17.605-7.478-2.4242c-0.0183-0.0064-0.0376-0.0092-0.0568-0.0092l9e-4 1e-3z"/>
</svg>
