<svg width="140" height="139" fill="none" xmlns="http://www.w3.org/2000/svg"><path fill-rule="evenodd" clip-rule="evenodd" d="M119.211 41.646a9.01 9.01 0 012.659 6.387V63.33H.13V48.033c0-2.395.957-4.693 2.66-6.387A9.101 9.101 0 019.21 39h103.582a9.1 9.1 0 016.419 2.646zM11.996 55.276c.752.5 1.635.767 2.539.767a4.611 4.611 0 003.222-1.34 4.566 4.566 0 001.347-3.207c0-.899-.268-1.778-.77-2.526a4.564 4.564 0 00-2.05-1.674 4.59 4.59 0 00-4.98.985 4.526 4.526 0 00-.99 4.955c.345.831.931 1.541 1.682 2.04zm14.737 0a4.586 4.586 0 005.77-.565 4.546 4.546 0 001.338-3.215c0-.899-.268-1.778-.77-2.526a4.564 4.564 0 00-2.05-1.674 4.59 4.59 0 00-4.98.985 4.526 4.526 0 00-.99 4.955c.345.831.931 1.541 1.682 2.04zm14.707 0c.752.5 1.635.767 2.539.767a4.611 4.611 0 003.222-1.34 4.566 4.566 0 001.347-3.207c0-.899-.268-1.778-.77-2.526a4.564 4.564 0 00-2.05-1.674 4.59 4.59 0 00-4.98.985 4.525 4.525 0 00-.99 4.955c.345.831.93 1.541 1.682 2.04zM.13 129.702V65.415h121.801v64.286a9.41 9.41 0 01-2.661 6.576 8.974 8.974 0 01-6.422 2.723H9.214a8.976 8.976 0 01-6.423-2.723 9.413 9.413 0 01-2.66-6.576z" fill="#85ACB0"/><path fill-rule="evenodd" clip-rule="evenodd" d="M61.5 99.855v8.431h14.01a13.27 13.27 0 01-5 7.924 13.395 13.395 0 01-9.01 2.676 15.624 15.624 0 01-11.02-4.542 15.47 15.47 0 01-4.565-10.966c0-4.113 1.642-8.057 4.565-10.965A15.623 15.623 0 0161.5 87.87a13.83 13.83 0 015.296.922 13.778 13.778 0 014.538 2.872l6.718-6.444A23.728 23.728 0 0061.5 78.777a24.755 24.755 0 00-17.46 7.197 24.51 24.51 0 00-7.232 17.374 24.507 24.507 0 007.232 17.374 24.755 24.755 0 0017.46 7.197c14.253 0 23.725-9.967 23.725-24.089a22.666 22.666 0 00-.363-3.975H61.499z" fill="#fff"/><g style="mix-blend-mode:multiply"><path d="M102.967 72.905c20.045 0 36.295-16.25 36.295-36.295S123.012.315 102.967.315 66.672 16.565 66.672 36.61s16.25 36.295 36.295 36.295z" fill="#FF444F"/></g><path fill-rule="evenodd" clip-rule="evenodd" d="M104.267 39.15l2.329 4.447 2.631 5.111 2.813 5.021-4.598 2.299-8.831-16.877h-6.836v-5.082h4.235l-2.33-4.446h-2.812a6.987 6.987 0 000 13.974h9.618v5.111h-9.618a12.099 12.099 0 010-24.196l-2.662-4.96 4.477-2.33 1.21 2.3 2.752 4.99 2.661 5.111 2.329 4.446 2.632 5.082zm10.798-14.638h-9.558v5.111h9.558a6.985 6.985 0 014.94 11.927 6.985 6.985 0 01-4.94 2.047h-2.813l2.813 5.111a12.1 12.1 0 0012.098-12.098 12.101 12.101 0 00-12.098-12.098zm-.908 14.639v-5.082h-6.836l2.662 5.082h4.174z" fill="#fff"/></svg>