<svg width="80" height="96" fill="none" xmlns="http://www.w3.org/2000/svg"><path d="M76.413 54.146c-.007 1.083-.049 3.281-1.431 5.404a8.322 8.322 0 0 1-.892 1.139l-7.186 6.582a8.292 8.292 0 0 0 1.755-2.335c1.117-2.225.88-4.306.716-5.74-.46-4.036-2.642-6.748-3.612-7.92-.966-1.17-3.533-4.191-7.956-5.378-1.545-.415-4.113-1.103-6.913.062a9.14 9.14 0 0 0-2.548 1.609l7.546-7.11c.95-.567 2.86-1.526 5.404-1.59 2.12-.053 3.681.541 4.733.954.732.287 4.347 1.772 7.204 5.687.836 1.145 3.206 4.391 3.18 8.636Z" fill="#FF444F"/><path d="M66.904 67.459a.188.188 0 0 1-.129-.325 8.108 8.108 0 0 0 1.717-2.282c1.09-2.174.863-4.174.697-5.633-.465-4.068-2.721-6.797-3.571-7.824-.843-1.019-3.407-4.122-7.86-5.316-1.516-.406-4.052-1.087-6.793.054a8.895 8.895 0 0 0-2.495 1.575.188.188 0 0 1-.254-.277l7.546-7.11c.01-.009.02-.017.033-.024 1.692-1.01 3.593-1.569 5.495-1.616 2.203-.054 3.833.584 4.806.967 1.303.51 4.618 2.093 7.287 5.75.803 1.1 3.243 4.443 3.216 8.748-.006.985-.02 3.292-1.461 5.505-.268.411-.575.803-.912 1.164l-.01.01-6.586 6.032-.6.551a.188.188 0 0 1-.127.05h.001ZM54.177 45.127c1.48 0 2.76.343 3.678.59 4.57 1.226 7.19 4.397 8.052 5.44.869 1.05 3.177 3.84 3.654 8.018.162 1.424.406 3.572-.735 5.845-.08.159-.164.315-.254.468l5.385-4.932c.32-.345.612-.717.867-1.108 1.38-2.122 1.394-4.35 1.4-5.303.026-4.182-2.276-7.336-3.143-8.524-2.612-3.578-5.85-5.124-7.122-5.623-.947-.372-2.533-.995-4.66-.941-1.831.046-3.661.582-5.295 1.553l-5.792 5.458a8.64 8.64 0 0 1 3.964-.941Z" fill="#000"/><path d="m70.42 64.05-.012 6.301-6.883 6.44c0-2.492-.003-4.984-.004-7.475.553-.198 2.027-.777 3.383-2.045l3.516-3.22Z" fill="#FF444F"/><path d="M63.525 76.978a.188.188 0 0 1-.188-.188l-.004-7.475c0-.08.05-.15.125-.176a9.69 9.69 0 0 0 3.319-2.005l3.517-3.222a.186.186 0 0 1 .203-.032c.068.03.111.097.111.171l-.011 6.301a.19.19 0 0 1-.06.137l-6.883 6.439a.19.19 0 0 1-.128.05h-.001Zm.184-7.531.003 6.91 6.509-6.087.01-5.793-3.2 2.932a10.023 10.023 0 0 1-3.322 2.037Z" fill="#000"/><path d="m70.4 76.2-6.895 6.48-2.989-3.708 3.009-2.182 4.212-3.939 2.663 3.348Z" fill="#FF444F"/><path d="M63.505 82.868h-.013a.188.188 0 0 1-.133-.07L60.37 79.09a.192.192 0 0 1-.04-.143.184.184 0 0 1 .076-.126l2.999-2.175.248-.232 3.955-3.699a.185.185 0 0 1 .142-.05c.052.004.1.03.133.07l2.664 3.349a.187.187 0 0 1-.02.253l-4.684 4.404-2.21 2.077a.186.186 0 0 1-.129.051h.001Zm-2.719-3.86 2.738 3.397 2.062-1.939 4.56-4.285-2.429-3.054-3.807 3.56-.256.24a.144.144 0 0 1-.018.015l-2.85 2.066Z" fill="#000"/><path d="m70.395 82.06-6.9 6.495-2.974-3.715 2.984-2.16 4.226-3.973 2.665 3.353Z" fill="#FF444F"/><path d="M63.494 88.743h-.013a.187.187 0 0 1-.133-.07l-2.974-3.716a.187.187 0 0 1 .037-.27c.992-.716 1.983-1.434 2.975-2.153l4.217-3.964a.187.187 0 0 1 .275.02l2.665 3.352a.188.188 0 0 1-.018.254l-6.902 6.496a.187.187 0 0 1-.128.05l-.001.001Zm-2.704-3.866 2.723 3.403 6.627-6.238-2.43-3.058-4.077 3.833-.019.015c-.94.682-1.884 1.364-2.825 2.045h.001Z" fill="#000"/><path d="M60.467 55.566c-.011.231-.033.592-.241.989-.049.092-.309.57-.858.869-.812.44-1.674.172-2.08.046-.91-.284-1.446-.862-1.718-1.162-.268-.296-.98-1.084-1.053-2.242-.017-.264-.04-.722.195-1.232.077-.165.36-.755 1.02-1.06.45-.206.856-.18 1.166-.156 1.194.093 2.006.825 2.265 1.064.196.182.772.75 1.097 1.663.093.262.234.674.207 1.221Z" fill="#FF444F"/><path d="M58.372 57.853c-.485 0-.904-.13-1.139-.204-.973-.303-1.533-.919-1.801-1.214-.282-.312-1.024-1.135-1.102-2.357-.016-.245-.048-.755.212-1.322.314-.673.778-.997 1.112-1.15.505-.233.959-.198 1.26-.174.85.065 1.649.44 2.377 1.112.294.274.835.863 1.146 1.738.086.245.248.7.218 1.294a2.44 2.44 0 0 1-.263 1.066 2.377 2.377 0 0 1-.934.947 2.25 2.25 0 0 1-1.087.264h.001Zm-1.809-6.064c-.222 0-.48.031-.752.156-.277.127-.663.398-.928.968-.22.48-.192.91-.178 1.14.068 1.092.748 1.844 1.004 2.129.247.272.76.837 1.636 1.109.386.12 1.19.372 1.934-.032a1.99 1.99 0 0 0 .782-.792c.193-.368.21-.707.22-.91.026-.52-.114-.914-.198-1.15a4.068 4.068 0 0 0-1.048-1.588c-.664-.613-1.388-.955-2.15-1.014-.096-.008-.204-.016-.322-.016Z" fill="#000"/><path d="M23.362 22.41c-.053-1.46-.221-5.988 2.967-9.35 3.178-3.353 7.693-3.435 8.67-3.453 9.663-.175 19.967 10.634 19.09 20.38-.076.854-.555 6.179-4.767 9.095-3.442 2.383-7.414 1.796-9.06 1.553-8.52-1.257-16.574-9.414-16.9-18.225Z" fill="#fff"/><path d="M43.127 41.07c-1.205 0-2.224-.15-2.892-.248-4.164-.615-8.404-2.924-11.632-6.337-3.344-3.535-5.272-7.82-5.429-12.068-.055-1.5-.224-6.067 3.018-9.487 2.085-2.199 5.212-3.446 8.804-3.51 4.657-.085 9.791 2.396 13.738 6.635 1.852 1.988 3.34 4.272 4.302 6.604 1.036 2.51 1.453 4.98 1.241 7.345-.17 1.883-.98 6.555-4.848 9.232-2.13 1.474-4.437 1.835-6.302 1.835ZM35.228 9.794c-.075 0-.15 0-.225.002-3.491.064-6.523 1.268-8.539 3.394-3.133 3.305-2.969 7.753-2.915 9.215.152 4.156 2.045 8.355 5.326 11.823 3.17 3.353 7.332 5.621 11.415 6.223 1.658.245 5.544.819 8.925-1.522 3.737-2.587 4.524-7.126 4.688-8.958.207-2.304-.202-4.716-1.214-7.168-.947-2.291-2.41-4.536-4.23-6.492-3.812-4.095-8.74-6.518-13.232-6.518l.001.001Z" fill="#000"/><path d="M60.819 25.395c-.524 2.715-1.86 4.63-2.685 5.634l-7.513 6.973c3.018-2.991 3.4-7.26 3.47-8.015C54.965 20.24 44.661 9.432 35 9.607c-.915.017-4.928.09-8.044 2.847l7.531-7.174a14.553 14.553 0 0 1 6.834-2.12c3.913-.193 6.767 1.338 8.566 2.297.836.446 4.11 2.266 6.94 6.04.904 1.204 3.42 4.641 4.044 9.554.133 1.04.304 2.49-.052 4.344Z" fill="#EBECEE"/><path d="M50.62 38.19a.186.186 0 0 1-.134-.059.186.186 0 0 1 .003-.263c2.677-2.652 3.28-6.405 3.415-7.895.207-2.307-.201-4.719-1.215-7.17-.946-2.291-2.409-4.536-4.229-6.492-3.876-4.162-8.906-6.598-13.456-6.516-4.018.074-6.527 1.563-7.923 2.8a.187.187 0 0 1-.263-.015.187.187 0 0 1 .008-.262l7.532-7.174c.01-.01.02-.017.032-.024a14.758 14.758 0 0 1 6.922-2.147c3.949-.195 6.886 1.37 8.64 2.305l.023.013c1.515.81 4.44 2.677 7.002 6.092 2.28 3.038 3.654 6.282 4.08 9.644.126.987.316 2.48-.054 4.403-.396 2.053-1.338 4.03-2.725 5.717a.319.319 0 0 1-.017.019l-7.513 6.973a.184.184 0 0 1-.127.05ZM35.227 9.417c4.596 0 9.627 2.468 13.509 6.637 1.851 1.989 3.338 4.272 4.302 6.604 1.035 2.508 1.453 4.98 1.24 7.345-.131 1.465-.569 3.924-1.976 6.183l5.697-5.286c1.342-1.638 2.254-3.553 2.638-5.54.358-1.866.174-3.322.05-4.285-.418-3.296-1.767-6.48-4.008-9.466-2.52-3.358-5.391-5.193-6.878-5.987l-.023-.013c-1.832-.976-4.6-2.452-8.445-2.262a14.37 14.37 0 0 0-6.728 2.082l-5.766 5.492c1.486-.8 3.504-1.453 6.158-1.502l.232-.001-.002-.001Z" fill="#000"/><path d="m51.481 66.093-.006 12.96c-14.514-3.96-29.03-7.92-43.544-11.882-.06-2.18.12-6.87 2.927-11.754 3.545-6.166 9.04-8.752 11.311-9.643 4.807-1.886 8.972-1.596 11.02-1.43 5.17.418 9.23 2.308 11.895 3.55a45.4 45.4 0 0 1 2.049 1.02 7.995 7.995 0 0 0-.38.575 9.093 9.093 0 0 0-1.157 3.323c-.127.884-.088 1.557-.054 2.128a15.028 15.028 0 0 0 1.149 4.856c.178.423.982 2.28 2.702 4.265a17.05 17.05 0 0 0 2.088 2.032Z" fill="#fff"/><path d="M51.476 79.24a.181.181 0 0 1-.05-.006L7.88 67.353a.186.186 0 0 1-.138-.176c-.08-2.925.366-7.355 2.953-11.853 3.389-5.895 8.6-8.623 11.405-9.724 4.949-1.942 9.262-1.592 11.103-1.442 5.203.42 9.268 2.313 11.959 3.566a45.57 45.57 0 0 1 2.058 1.024.187.187 0 0 1 .064.275c-.137.19-.26.374-.37.563a8.892 8.892 0 0 0-1.133 3.254c-.126.877-.085 1.55-.052 2.09.1 1.612.493 3.27 1.134 4.794.28.663 1.099 2.4 2.671 4.216.627.724 1.322 1.4 2.066 2.008a.19.19 0 0 1 .069.146l-.006 12.96a.188.188 0 0 1-.187.188l-.001-.001ZM8.115 67.028l43.173 11.78.006-12.626a17.2 17.2 0 0 1-2.043-1.998c-1.608-1.855-2.447-3.635-2.733-4.314a15.273 15.273 0 0 1-1.162-4.917c-.034-.558-.076-1.252.055-2.167a9.28 9.28 0 0 1 1.181-3.392c.083-.14.17-.275.265-.413a45.103 45.103 0 0 0-1.852-.917c-2.666-1.24-6.695-3.117-11.83-3.532-1.817-.147-6.07-.492-10.937 1.418-2.76 1.082-7.885 3.765-11.217 9.562-2.502 4.351-2.967 8.64-2.906 11.517Z" fill="#000"/><path d="m53.88 42.355-5.534 5.214a8.365 8.365 0 0 0-1.213 1.345 45.448 45.448 0 0 0-2.05-1.02c-2.665-1.241-6.724-3.132-11.894-3.55-2.048-.165-6.213-.455-11.02 1.43a23.297 23.297 0 0 0-7.03 4.347l6.845-6.703c.441-.421 1.081-.99 1.908-1.59 2.414-1.751 4.648-2.474 5.96-2.887a23.551 23.551 0 0 1 3.561-.823c2.143 1.284 4.478 2.168 6.85 2.518 1.471.218 4.803.708 7.953-.896.367.134.78.292 1.23.472 1.29.516 2.415.971 3.744 1.731.205.117.437.254.69.412Z" fill="#EBECEE"/><path d="M15.14 50.309c-.05 0-.1-.02-.138-.06a.187.187 0 0 1 .006-.262c2.282-2.235 4.563-4.47 6.845-6.703a18.675 18.675 0 0 1 1.928-1.608c2.487-1.805 4.782-2.526 6.014-2.914a23.821 23.821 0 0 1 3.59-.83.188.188 0 0 1 .124.025c2.162 1.295 4.506 2.157 6.78 2.493 1.418.21 4.741.701 7.84-.877a.188.188 0 0 1 .15-.01c.394.145.81.305 1.235.474 1.234.494 2.4.96 3.768 1.743.231.132.465.272.696.415a.186.186 0 0 1 .029.296l-2.803 2.64-2.732 2.574c-.449.402-.848.845-1.19 1.318a.188.188 0 0 1-.24.056c-.677-.358-1.364-.7-2.04-1.016-2.666-1.241-6.695-3.118-11.83-3.532-1.817-.148-6.07-.492-10.937 1.417a23.133 23.133 0 0 0-6.973 4.311.185.185 0 0 1-.126.049h.003Zm15.42-6.275c1.117 0 2.021.073 2.644.124 5.203.42 9.268 2.314 11.958 3.566.636.297 1.28.615 1.915.949a8.558 8.558 0 0 1 1.144-1.243c.907-.855 1.817-1.714 2.728-2.571l2.624-2.472c-.158-.097-.318-.19-.476-.28-1.345-.77-2.5-1.232-3.721-1.72a43.76 43.76 0 0 0-1.148-.442c-3.185 1.588-6.55 1.09-7.993.877-2.301-.34-4.672-1.207-6.86-2.508a23.421 23.421 0 0 0-3.467.806c-1.212.382-3.468 1.092-5.907 2.86-.662.48-1.297 1.01-1.887 1.574l-4.485 4.39A23.571 23.571 0 0 1 22.1 45.6c3.276-1.284 6.273-1.566 8.46-1.566Z" fill="#000"/><path d="M69.374 59.196c-.461-4.036-2.643-6.748-3.611-7.92-.967-1.169-3.534-4.19-7.956-5.378-1.547-.414-4.113-1.103-6.914.062-.697.29-2.786 1.269-4.141 3.53a9.09 9.09 0 0 0-1.157 3.322c-.127.884-.088 1.557-.053 2.128a15 15 0 0 0 1.149 4.856c.178.423.982 2.28 2.702 4.265a17.036 17.036 0 0 0 2.088 2.031l-.008 19.258 6.012 7.507c2.003-1.434 4.007-2.867 6.01-4.302l-2.973-3.715 2.984-2.162-2.989-3.708 3.009-2.181-.005-7.475c.82-.294 3.654-1.42 5.14-4.38 1.116-2.224.879-4.305.715-5.74l-.002.002Zm-8.908-3.63c-.01.231-.032.592-.242.99-.048.091-.308.57-.857.868-.812.441-1.674.173-2.08.046-.91-.283-1.447-.862-1.719-1.162-.267-.296-.98-1.084-1.053-2.242-.017-.263-.039-.721.196-1.232.076-.165.359-.755 1.02-1.059.45-.207.855-.18 1.165-.156 1.193.092 2.006.824 2.264 1.063.197.182.773.751 1.097 1.663.093.263.235.674.209 1.221Z" fill="#FF7E88"/><path d="M57.483 93.046a.187.187 0 0 1-.146-.07l-6.012-7.507a.19.19 0 0 1-.042-.118l.009-19.17a17.326 17.326 0 0 1-2.043-1.996c-1.61-1.858-2.447-3.637-2.733-4.315a15.26 15.26 0 0 1-1.162-4.918c-.035-.554-.077-1.245.054-2.166a9.27 9.27 0 0 1 1.182-3.393c1.282-2.14 3.2-3.178 4.23-3.606 2.86-1.19 5.472-.49 7.035-.07 4.57 1.226 7.19 4.397 8.052 5.439.869 1.052 3.177 3.845 3.653 8.019.163 1.422.408 3.57-.733 5.845-1.341 2.67-3.731 3.91-5.12 4.426l.006 7.343c0 .06-.03.117-.078.152l-2.85 2.065 2.866 3.555a.187.187 0 0 1-.036.27l-2.825 2.045 2.85 3.561a.186.186 0 0 1-.038.27l-6.01 4.301a.187.187 0 0 1-.108.035l-.001.003Zm-5.824-7.76 5.859 7.316 5.704-4.083-2.85-3.56a.188.188 0 0 1 .037-.27l2.824-2.045-2.865-3.555a.191.191 0 0 1-.04-.143.184.184 0 0 1 .076-.126l2.93-2.125-.004-7.38c0-.079.05-.15.125-.176 1.056-.378 3.661-1.552 5.034-4.287 1.091-2.175.863-4.174.696-5.634-.463-4.063-2.72-6.795-3.57-7.823-.842-1.019-3.404-4.12-7.86-5.316-1.515-.406-4.052-1.086-6.793.054-.987.41-2.826 1.405-4.053 3.453a8.874 8.874 0 0 0-1.13 3.252c-.128.884-.085 1.553-.053 2.09.1 1.612.492 3.27 1.134 4.795.278.661 1.097 2.397 2.67 4.214.63.725 1.324 1.4 2.066 2.009.043.035.068.089.068.145l-.008 19.193.003.002Zm6.712-27.432c-.485 0-.905-.13-1.14-.204-.977-.304-1.555-.943-1.802-1.216-.28-.31-1.024-1.132-1.101-2.355-.015-.246-.048-.76.212-1.322.245-.531.63-.93 1.112-1.152.503-.231.957-.197 1.259-.173.85.066 1.65.44 2.377 1.113.295.273.834.86 1.146 1.738.086.244.247.698.218 1.294-.01.218-.03.625-.263 1.068a2.342 2.342 0 0 1-.934.945 2.245 2.245 0 0 1-1.085.265v-.001Zm-1.81-6.064c-.223 0-.48.03-.752.156-.4.184-.721.519-.928.968-.22.478-.193.91-.178 1.142.069 1.092.749 1.845 1.005 2.128.246.271.756.835 1.635 1.109.387.12 1.192.371 1.935-.032.474-.258.718-.67.781-.791.195-.369.21-.708.22-.911.026-.522-.114-.915-.196-1.15a4.058 4.058 0 0 0-1.047-1.587c-.664-.613-1.387-.955-2.153-1.014-.095-.007-.202-.016-.32-.016l-.001-.002Z" fill="#000"/><path d="M3.441 66.52c-.063-.945-.156-2.564.584-4.432.225-.567.651-1.602 1.606-2.607 1.49-1.568 3.313-2.004 4.182-2.2 2.897-.654 5.321.325 6.652.876 5.176 2.138 7.403 6.703 7.947 7.863.471 1.005 1.294 2.806 1.314 5.256.009 1.04.002 2.71-.98 4.505a7.958 7.958 0 0 1-2.316 2.628c-2.136 1.537-4.415 1.522-5.36 1.502-2.056-.043-3.544-.732-4.754-1.293a15.908 15.908 0 0 1-3.817-2.524c-.825-.732-2.748-2.476-4.004-5.422-.33-.776-.92-2.193-1.054-4.151v-.001Z" fill="#fff"/><path d="M17.466 80.102c-.154 0-.288-.002-.399-.005-2.097-.044-3.612-.746-4.83-1.311a16.085 16.085 0 0 1-3.862-2.554c-.754-.668-2.754-2.443-4.052-5.49-.303-.708-.93-2.18-1.068-4.21-.061-.899-.175-2.57.597-4.514.207-.522.637-1.608 1.644-2.668 1.56-1.64 3.464-2.07 4.277-2.254 2.989-.675 5.446.34 6.766.886 3.449 1.424 6.305 4.25 8.044 7.956.425.907 1.31 2.793 1.332 5.334.008.951.023 2.723-1.003 4.596a8.157 8.157 0 0 1-2.37 2.69c-1.951 1.404-3.998 1.542-5.074 1.542l-.002.002ZM3.628 66.507c.134 1.966.745 3.4 1.039 4.09 1.266 2.968 3.22 4.703 3.956 5.356a15.687 15.687 0 0 0 3.77 2.493c1.187.55 2.663 1.234 4.681 1.276.853.018 3.118.066 5.247-1.466a7.798 7.798 0 0 0 2.26-2.566c.98-1.788.966-3.431.957-4.413-.02-2.46-.882-4.295-1.297-5.178-1.699-3.622-4.486-6.38-7.848-7.77-1.281-.529-3.666-1.514-6.54-.865-.78.175-2.605.587-4.087 2.146-.956 1.007-1.368 2.047-1.567 2.547-.74 1.867-.63 3.482-.572 4.35h.001Z" fill="#000"/><path d="M31.546 68.168a9.398 9.398 0 0 1-1.773 3.524l-6.458 5.975a8.043 8.043 0 0 0 1.432-1.887c.982-1.795.988-3.465.979-4.504-.02-2.45-.842-4.252-1.313-5.257-.544-1.16-2.772-5.725-7.947-7.862-1.331-.55-3.756-1.53-6.653-.876-.706.157-2.037.475-3.312 1.427 1.973-1.88 3.946-3.762 5.919-5.64a9.852 9.852 0 0 1 1.877-.939c2.625-.978 4.955-.553 5.86-.375 2.561.5 4.25 1.725 5.381 2.565a16.034 16.034 0 0 1 3.756 3.962c.691 1.037 1.894 2.88 2.335 5.569.162.992.39 2.478-.084 4.316v.002Z" fill="#EBECEE"/><path d="M23.316 77.854a.188.188 0 0 1-.132-.321 7.789 7.789 0 0 0 1.398-1.843c.979-1.788.965-3.431.956-4.412-.02-2.458-.88-4.295-1.295-5.178-.984-2.097-3.31-5.894-7.848-7.768-1.28-.53-3.663-1.517-6.54-.867-.587.13-1.96.439-3.241 1.394a.187.187 0 0 1-.241-.286c1.972-1.882 3.946-3.762 5.918-5.64a.168.168 0 0 1 .028-.023c.607-.388 1.25-.71 1.913-.956 2.728-1.017 5.162-.54 5.962-.384 2.657.52 4.41 1.82 5.457 2.598a16.27 16.27 0 0 1 3.8 4.009c.619.928 1.908 2.862 2.365 5.643.152.928.406 2.48-.088 4.393a9.519 9.519 0 0 1-1.808 3.596l-.02.02-6.457 5.975a.184.184 0 0 1-.127.05ZM11.758 56.88c2.111 0 3.837.715 4.78 1.105 4.655 1.924 7.038 5.81 8.045 7.956.426.907 1.312 2.795 1.332 5.335.008.951.023 2.721-1.003 4.596l-.075.133 4.798-4.438a9.152 9.152 0 0 0 1.73-3.444c.473-1.838.227-3.341.08-4.24-.444-2.7-1.656-4.518-2.307-5.495a15.878 15.878 0 0 0-3.71-3.915c-1.022-.76-2.732-2.028-5.305-2.532-.774-.151-3.13-.612-5.759.367a9.703 9.703 0 0 0-1.826.911l-4.74 4.517a9.76 9.76 0 0 1 1.977-.635 8.978 8.978 0 0 1 1.985-.219l-.002-.002Z" fill="#000"/><path d="m8.964 65.587 11.194 3.074v2.718L8.943 68.345l.02-2.758Z" fill="#fff"/><path d="M20.158 71.567a.175.175 0 0 1-.049-.007L8.894 68.526a.189.189 0 0 1-.139-.183l.021-2.758a.187.187 0 0 1 .237-.18l11.195 3.075a.188.188 0 0 1 .138.181v2.718a.187.187 0 0 1-.188.188ZM9.132 68.2l10.839 2.933v-2.33L9.149 65.833l-.017 2.37Z" fill="#000"/></svg>