<svg xmlns="http://www.w3.org/2000/svg" width="40" height="40" viewBox="0 0 40 40" fill="none"><path d="M0 6C0 2.7 2.7 0 6 0H34C37.3 0 40 2.7 40 6V34C40 37.3 37.3 40 34 40H6C2.7 40 0 37.3 0 34V6Z" fill="var(--general-section-1)"/><path d="M7.5 20C7.5 13.1 13.1 7.5 20 7.5 26.9 7.5 32.5 13.1 32.5 20 32.5 23.9 30.7 27.4 27.9 29.7 27.9 29.6 27.9 29.4 27.8 29.3L25.7 27.1 27.7 26.2 23 24.7 24 29.3 25.1 27.6 27.1 29.9C27.2 30 27.3 30.1 27.4 30.1 25.3 31.6 22.8 32.5 20 32.5 13.1 32.5 7.5 26.9 7.5 20ZM12.3 21.5L12.2 20.9 11.4 17.9H10.6L11.9 22.5H12.6L13.5 19.7 13.7 18.9H13.7L13.9 19.7 14.8 22.5H15.4L16.8 17.9H16L15.2 20.9 15.1 21.6H15.1L14.9 20.9 14 17.9H13.4L12.4 20.9 12.3 21.5 12.3 21.5ZM18.7 20.9L18.9 21.5 18.9 21.5 19 20.9 19.9 17.9H20.6L21.5 20.9 21.7 21.6H21.7L21.8 20.9 22.6 17.9H23.3L22 22.5H21.4L20.5 19.7 20.3 18.9H20.2L20.1 19.7 19.2 22.5H18.5L17.2 17.9H18L18.7 20.9ZM25.4 21.5L25.3 20.9 24.6 17.9H23.8L25.1 22.5H25.7L26.6 19.7 26.8 18.9H26.8L27 19.7 27.9 22.5H28.6L29.9 17.9H29.1L28.4 20.9 28.2 21.6H28.2L28.1 20.9 27.2 17.9H26.5L25.6 20.9 25.5 21.5 25.4 21.5Z" style="clip-rule:evenodd;fill-rule:evenodd;fill:var(--text-prominent)"/></svg>
