<svg xmlns="http://www.w3.org/2000/svg" width="128" height="128" fill="none"><path d="M0 0h128v128H0z"/><path fill="#85ACB0" d="M19.636 50.373V93.69l27.957-21.338-27.957-21.98ZM108.175 50.373V93.69L80.219 72.353l27.956-21.98ZM24.063 103.273h79.685a4.44 4.44 0 0 0 4.427-4.427v-.642L63.95 63.408 19.636 98.204v.642a4.44 4.44 0 0 0 4.427 4.427Z"/><path fill="#649198" d="M103.748 41.296H24.063a4.44 4.44 0 0 0-4.427 4.427v.642L63.95 81.161l44.225-34.796v-.642a4.44 4.44 0 0 0-4.427-4.427Z"/><path fill="#FF444F" d="M101.818 58.909c8.033 0 14.545-6.512 14.545-14.545 0-8.034-6.512-14.546-14.545-14.546-8.033 0-14.546 6.512-14.546 14.546 0 8.033 6.513 14.545 14.546 14.545Z"/><path fill="#fff" d="M100.76 50.71v-8.224h-3.187v-1.944c.45.013.873-.026 1.296-.093a3.103 3.103 0 0 0 1.124-.423c.331-.198.608-.463.846-.793.225-.33.384-.727.45-1.217h2.05v12.681h-2.579v.014Z"/></svg>