<svg width="40" height="40" viewBox="0 0 40 40" fill="none" xmlns="http://www.w3.org/2000/svg">
<path d="M0 6C0 2.68629 2.68629 0 6 0H34C37.3137 0 40 2.68629 40 6V34C40 37.3137 37.3137 40 34 40H6C2.68629 40 0 37.3137 0 34V6Z" fill="#F2F3F4"/>
<path fill-rule="evenodd" clip-rule="evenodd" d="M7.5 19.9999C7.5 13.0964 13.0964 7.5 20 7.5C26.9036 7.5 32.5 13.0964 32.5 19.9999C32.5 23.9233 30.692 27.4238 27.8642 29.7155C27.8892 29.5857 27.8569 29.4465 27.7619 29.3404L25.7146 27.0524L27.73 26.1865L23.0479 24.7301L23.9583 29.3296L25.0609 27.6374L27.1082 29.9253C27.1878 30.0143 27.2954 30.0626 27.4057 30.07C25.3328 31.597 22.772 32.4999 20 32.4999C13.0964 32.4999 7.5 26.9035 7.5 19.9999ZM12.283 21.5221L12.1684 20.8852L11.3914 17.9471H10.6059L11.9391 22.5411H12.5803L13.4719 19.7091L13.663 18.8896H13.6757L13.8752 19.7091L14.7838 22.5411H15.4207L16.7539 17.9471H15.9727L15.2296 20.8852L15.0853 21.5815H15.0726L14.9239 20.8852L13.9983 17.9471H13.3615L12.4359 20.8852L12.2957 21.5263L12.283 21.5221ZM18.7496 20.8852L18.8643 21.5221L18.877 21.5263L19.0171 20.8852L19.9427 17.9471H20.5796L21.5052 20.8852L21.6537 21.5815H21.6665L21.8109 20.8852L22.5539 17.9471H23.3351L22.0019 22.5411H21.365L20.4564 19.7091L20.2568 18.8896H20.2441L20.053 19.7091L19.1614 22.5411H18.5203L17.187 17.9471H17.9725L18.7496 20.8852ZM25.4455 21.5221L25.3308 20.8852L24.5539 17.9471H23.7684L25.1016 22.5411H25.7427L26.6344 19.7091L26.8254 18.8896H26.8382L27.0377 19.7091L27.9464 22.5411H28.5833L29.9164 17.9471H29.1352L28.3921 20.8852L28.2478 21.5815H28.235L28.0865 20.8852L27.1608 17.9471H26.524L25.5983 20.8852L25.4582 21.5263L25.4455 21.5221Z" fill="#333333"/>
</svg>
