<svg width="48" height="48" viewBox="0 0 48 48" fill="none" xmlns="http://www.w3.org/2000/svg">
<rect width="48" height="47.9991" rx="23.9995" fill="#F2F3F4"/>
<path d="M20.625 25.4995H27.75V28.0945C27.75 28.4545 28.1625 28.627 28.4025 28.3795L35.8875 20.5345C36.0375 20.377 36.0375 20.122 35.8875 19.9645L28.4025 12.1195C28.1625 11.8645 27.75 12.0445 27.75 12.4045V14.9995H20.625C20.415 14.9995 20.25 15.1645 20.25 15.3745V25.1245C20.25 25.3345 20.415 25.4995 20.625 25.4995Z" fill="#85ACB0"/>
<g style="mix-blend-mode:multiply">
<path d="M27.375 22.4996H20.25V19.9046C20.25 19.5446 19.8375 19.3721 19.5975 19.6196L12.1125 27.4646C11.9625 27.6221 11.9625 27.8771 12.1125 28.0346L19.5975 35.8796C19.8375 36.1346 20.25 35.9546 20.25 35.5946V32.9996H27.375C27.585 32.9996 27.75 32.8346 27.75 32.6246V22.8746C27.75 22.6646 27.585 22.4996 27.375 22.4996Z" fill="#FF444F"/>
</g>
</svg>
