<svg xmlns="http://www.w3.org/2000/svg" width="135" height="40"><g fill="none"><path fill="#F2F3F4" d="M4 0h126.5a4 4 0 014 4v32a4 4 0 01-4 4H4a4 4 0 01-4-4V4a4 4 0 014-4z"/><path fill="#333" d="M40.004 19.208h-1.128c-.648 0-1.12-.152-1.416-.456-.296-.304-.444-.744-.444-1.32v-.348c-.896-.16-1.606-.598-2.13-1.314-.524-.716-.786-1.702-.786-2.958 0-.712.088-1.338.264-1.878.176-.54.424-.992.744-1.356.32-.364.708-.638 1.164-.822.456-.184.96-.276 1.512-.276s1.056.092 1.512.276c.456.184.844.458 1.164.822.32.364.568.816.744 1.356.176.54.264 1.166.264 1.878 0 1.216-.246 2.18-.738 2.892a3.18 3.18 0 01-2.01 1.344v.672h1.284v1.488zm-2.22-3.684c.552 0 .982-.18 1.29-.54.308-.36.462-.876.462-1.548v-1.248c0-.672-.154-1.188-.462-1.548-.308-.36-.738-.54-1.29-.54s-.982.18-1.29.54c-.308.36-.462.876-.462 1.548v1.248c0 .672.154 1.188.462 1.548.308.36.738.54 1.29.54zm6.936-6.9v5.136c0 .592.116 1.034.348 1.326.232.292.62.438 1.164.438.544 0 .932-.146 1.164-.438.232-.292.348-.734.348-1.326V8.624h1.776v4.944c0 .616-.058 1.15-.174 1.602-.116.452-.306.824-.57 1.116a2.358 2.358 0 01-1.02.648c-.416.14-.924.21-1.524.21s-1.108-.07-1.524-.21a2.358 2.358 0 01-1.02-.648c-.264-.292-.454-.664-.57-1.116-.116-.452-.174-.986-.174-1.602V8.624h1.776zM50.996 17v-1.452h1.08v-5.472h-1.08V8.624h3.984v1.452H53.9v5.472h1.08V17h-3.984zm8.892.144c-.568 0-1.08-.09-1.536-.27a3.045 3.045 0 01-1.164-.804c-.32-.356-.568-.8-.744-1.332-.176-.532-.264-1.154-.264-1.866 0-.704.088-1.33.264-1.878.176-.548.424-1.008.744-1.38.32-.372.708-.654 1.164-.846a3.923 3.923 0 011.536-.288c.776 0 1.416.158 1.92.474.504.316.908.814 1.212 1.494l-1.572.816a1.87 1.87 0 00-.522-.846c-.236-.212-.582-.318-1.038-.318-.536 0-.966.174-1.29.522-.324.348-.486.854-.486 1.518v1.344c0 .664.162 1.17.486 1.518.324.348.754.522 1.29.522.448 0 .806-.122 1.074-.366s.466-.538.594-.882l1.488.864c-.312.64-.722 1.134-1.23 1.482-.508.348-1.15.522-1.926.522zm7.344-3.792l-1.092 1.32V17h-1.824V8.624h1.824v3.984h.072l1.188-1.62 1.884-2.364h2.064l-2.82 3.444L71.6 17h-2.148l-2.22-3.648zm13.584 2.316h-.06c-.064.424-.28.776-.648 1.056s-.868.42-1.5.42c-.48 0-.928-.092-1.344-.276a3.085 3.085 0 01-1.092-.816c-.312-.36-.556-.808-.732-1.344-.176-.536-.264-1.156-.264-1.86 0-.704.092-1.328.276-1.872.184-.544.442-1 .774-1.368.332-.368.73-.648 1.194-.84.464-.192.98-.288 1.548-.288.752 0 1.4.162 1.944.486.544.324.972.81 1.284 1.458l-1.488.852a2.04 2.04 0 00-.6-.834c-.272-.228-.652-.342-1.14-.342-.568 0-1.02.164-1.356.492-.336.328-.504.844-.504 1.548v1.344c0 .696.168 1.21.504 1.542.336.332.788.498 1.356.498.224 0 .436-.026.636-.078.2-.052.376-.132.528-.24.152-.108.27-.238.354-.39a1.1 1.1 0 00.126-.54v-.42h-1.56v-1.524h3.3V17h-1.536v-1.332zm5.04-7.044v5.136c0 .592.116 1.034.348 1.326.232.292.62.438 1.164.438.544 0 .932-.146 1.164-.438.232-.292.348-.734.348-1.326V8.624h1.776v4.944c0 .616-.058 1.15-.174 1.602-.116.452-.306.824-.57 1.116a2.358 2.358 0 01-1.02.648c-.416.14-.924.21-1.524.21s-1.108-.07-1.524-.21a2.358 2.358 0 01-1.02-.648c-.264-.292-.454-.664-.57-1.116-.116-.452-.174-.986-.174-1.602V8.624h1.776zM92.132 17v-1.452h1.08v-5.472h-1.08V8.624h3.984v1.452h-1.08v5.472h1.08V17h-3.984zm5.508-8.376h3.156c.552 0 1.056.088 1.512.264.456.176.844.438 1.164.786.32.348.568.784.744 1.308.176.524.264 1.134.264 1.83 0 .696-.088 1.306-.264 1.83-.176.524-.424.96-.744 1.308-.32.348-.708.61-1.164.786-.456.176-.96.264-1.512.264H97.64V8.624zm3.156 6.756c.544 0 .972-.152 1.284-.456.312-.304.468-.792.468-1.464v-1.296c0-.672-.156-1.16-.468-1.464-.312-.304-.74-.456-1.284-.456h-1.332v5.136h1.332zm5.208 1.62V8.624h5.7v1.62h-3.876v1.716h3.324v1.608h-3.324v1.812h3.876V17h-5.7zM34.1 33v-.7h.98v-5.58h-.98v-.7h2.8v.7h-.98v5.58h.98v.7h-2.8zm4.25 0v-5.16h.8v.84h.04a1.7 1.7 0 01.535-.7c.23-.173.538-.26.925-.26.533 0 .955.172 1.265.515.31.343.465.828.465 1.455V33h-.8v-3.17c0-.927-.39-1.39-1.17-1.39-.16 0-.315.02-.465.06-.15.04-.285.1-.405.18a.89.89 0 00-.285.305.867.867 0 00-.105.435V33h-.8zm7.23.12c-.48 0-.882-.092-1.205-.275a2.741 2.741 0 01-.835-.735l.57-.46c.2.253.423.448.67.585.247.137.533.205.86.205.34 0 .605-.073.795-.22.19-.147.285-.353.285-.62a.74.74 0 00-.195-.515c-.13-.143-.365-.242-.705-.295l-.41-.06a3.421 3.421 0 01-.66-.155c-.2-.07-.375-.163-.525-.28a1.204 1.204 0 01-.35-.435 1.419 1.419 0 01-.125-.62c0-.253.047-.475.14-.665a1.34 1.34 0 01.385-.475c.163-.127.358-.222.585-.285.227-.063.47-.095.73-.095.42 0 .772.073 1.055.22.283.147.532.35.745.61l-.53.48a1.59 1.59 0 00-.5-.435c-.22-.13-.497-.195-.83-.195-.333 0-.585.072-.755.215a.725.725 0 00-.255.585c0 .253.085.437.255.55.17.113.415.197.735.25l.4.06c.573.087.98.252 1.22.495s.36.562.36.955c0 .5-.17.893-.51 1.18-.34.287-.807.43-1.4.43zm4.46-.12c-.28 0-.492-.078-.635-.235-.143-.157-.215-.362-.215-.615v-3.61h-.85v-.7h.48c.173 0 .292-.035.355-.105.063-.07.095-.192.095-.365v-.96h.72v1.43h1.13v.7h-1.13v3.76h1.05v.7h-1zm6.12 0c-.3 0-.515-.08-.645-.24a1.19 1.19 0 01-.245-.6h-.05c-.113.32-.3.56-.56.72-.26.16-.57.24-.93.24-.547 0-.972-.14-1.275-.42-.303-.28-.455-.66-.455-1.14 0-.487.178-.86.535-1.12.357-.26.912-.39 1.665-.39h1.02v-.51c0-.367-.1-.647-.3-.84-.2-.193-.507-.29-.92-.29-.313 0-.575.07-.785.21a1.73 1.73 0 00-.525.56l-.48-.45c.14-.28.363-.518.67-.715.307-.197.693-.295 1.16-.295.627 0 1.113.153 1.46.46.347.307.52.733.52 1.28v2.84h.59v.7h-.45zm-2.3-.56c.2 0 .383-.023.55-.07.167-.047.31-.113.43-.2a.991.991 0 00.28-.3.717.717 0 00.1-.37v-.85h-1.06c-.46 0-.795.067-1.005.2a.646.646 0 00-.315.58v.21a.7.7 0 00.275.59c.183.14.432.21.745.21zm4.74.56c-.28 0-.492-.078-.635-.235a.848.848 0 01-.215-.595V25.6h.8v6.7h.76v.7h-.71zm2.72 0c-.28 0-.492-.078-.635-.235a.848.848 0 01-.215-.595V25.6h.8v6.7h.76v.7h-.71zm5.62 0c-.3 0-.515-.08-.645-.24a1.19 1.19 0 01-.245-.6H66c-.113.32-.3.56-.56.72-.26.16-.57.24-.93.24-.547 0-.972-.14-1.275-.42-.303-.28-.455-.66-.455-1.14 0-.487.178-.86.535-1.12.357-.26.912-.39 1.665-.39H66v-.51c0-.367-.1-.647-.3-.84-.2-.193-.507-.29-.92-.29-.313 0-.575.07-.785.21a1.73 1.73 0 00-.525.56l-.48-.45c.14-.28.363-.518.67-.715.307-.197.693-.295 1.16-.295.627 0 1.113.153 1.46.46.347.307.52.733.52 1.28v2.84h.59v.7h-.45zm-2.3-.56c.2 0 .383-.023.55-.07.167-.047.31-.113.43-.2a.991.991 0 00.28-.3.717.717 0 00.1-.37v-.85h-1.06c-.46 0-.795.067-1.005.2a.646.646 0 00-.315.58v.21a.7.7 0 00.275.59c.183.14.432.21.745.21zm5.03.56c-.28 0-.492-.078-.635-.235-.143-.157-.215-.362-.215-.615v-3.61h-.85v-.7h.48c.173 0 .292-.035.355-.105.063-.07.095-.192.095-.365v-.96h.72v1.43h1.13v.7h-1.13v3.76h1.05v.7h-1zm2.77-6.37c-.173 0-.298-.042-.375-.125a.461.461 0 01-.115-.325v-.13a.46.46 0 01.115-.325c.077-.083.202-.125.375-.125s.298.042.375.125a.461.461 0 01.115.325v.13a.461.461 0 01-.115.325c-.077.083-.202.125-.375.125zm-.4 1.21h.8V33h-.8v-5.16zm4.45 5.28a2.32 2.32 0 01-.95-.19 2.048 2.048 0 01-.735-.545 2.568 2.568 0 01-.475-.85 3.42 3.42 0 01-.17-1.115c0-.407.057-.777.17-1.11a2.56 2.56 0 01.475-.855c.203-.237.448-.418.735-.545.287-.127.603-.19.95-.19s.662.063.945.19c.283.127.528.308.735.545.207.237.367.522.48.855.113.333.17.703.17 1.11 0 .413-.057.785-.17 1.115a2.52 2.52 0 01-.48.85 2.107 2.107 0 01-.735.545 2.29 2.29 0 01-.945.19zm0-.71c.433 0 .787-.133 1.06-.4s.41-.673.41-1.22v-.74c0-.547-.137-.953-.41-1.22-.273-.267-.627-.4-1.06-.4-.433 0-.787.133-1.06.4s-.41.673-.41 1.22v.74c0 .547.137.953.41 1.22.273.267.627.4 1.06.4zm3.65.59v-5.16h.8v.84h.04a1.7 1.7 0 01.535-.7c.23-.173.538-.26.925-.26.533 0 .955.172 1.265.515.31.343.465.828.465 1.455V33h-.8v-3.17c0-.927-.39-1.39-1.17-1.39-.16 0-.315.02-.465.06-.15.04-.285.1-.405.18a.89.89 0 00-.285.305.867.867 0 00-.105.435V33h-.8zm9.99.12a2.32 2.32 0 01-.95-.19 2.048 2.048 0 01-.735-.545 2.568 2.568 0 01-.475-.85 3.42 3.42 0 01-.17-1.115c0-.407.057-.777.17-1.11a2.56 2.56 0 01.475-.855c.203-.237.448-.418.735-.545.287-.127.603-.19.95-.19s.662.063.945.19c.283.127.528.308.735.545.207.237.367.522.48.855.113.333.17.703.17 1.11 0 .413-.057.785-.17 1.115a2.52 2.52 0 01-.48.85 2.107 2.107 0 01-.735.545 2.29 2.29 0 01-.945.19zm0-.71c.433 0 .787-.133 1.06-.4s.41-.673.41-1.22v-.74c0-.547-.137-.953-.41-1.22-.273-.267-.627-.4-1.06-.4-.433 0-.787.133-1.06.4s-.41.673-.41 1.22v.74c0 .547.137.953.41 1.22.273.267.627.4 1.06.4zm3.65.59v-5.16h.8v.84h.04a1.7 1.7 0 01.535-.7c.23-.173.538-.26.925-.26.533 0 .955.172 1.265.515.31.343.465.828.465 1.455V33h-.8v-3.17c0-.927-.39-1.39-1.17-1.39-.16 0-.315.02-.465.06-.15.04-.285.1-.405.18a.89.89 0 00-.285.305.867.867 0 00-.105.435V33h-.8zm8.12 0v-6.98h.84v6.24h2.97V33h-3.81zm5.33-6.37c-.173 0-.298-.042-.375-.125a.461.461 0 01-.115-.325v-.13a.46.46 0 01.115-.325c.077-.083.202-.125.375-.125s.298.042.375.125a.461.461 0 01.115.325v.13a.461.461 0 01-.115.325c-.077.083-.202.125-.375.125zm-.4 1.21h.8V33h-.8v-5.16zm2.5 5.16v-5.16h.8v.84h.04a1.7 1.7 0 01.535-.7c.23-.173.538-.26.925-.26.533 0 .955.172 1.265.515.31.343.465.828.465 1.455V33h-.8v-3.17c0-.927-.39-1.39-1.17-1.39-.16 0-.315.02-.465.06-.15.04-.285.1-.405.18a.89.89 0 00-.285.305.867.867 0 00-.105.435V33h-.8zm8.86-.84h-.04c-.053.12-.118.238-.195.355a1.32 1.32 0 01-.285.31c-.113.09-.25.162-.41.215-.16.053-.347.08-.56.08-.533 0-.957-.172-1.27-.515-.313-.343-.47-.828-.47-1.455v-3.31h.8v3.17c0 .927.393 1.39 1.18 1.39.16 0 .315-.02.465-.06.15-.04.283-.1.4-.18a.91.91 0 00.28-.305.888.888 0 00.105-.445v-3.57h.8V33h-.8v-.84zm1.86.84l1.91-2.6-1.83-2.56h.94l1.31 1.92h.03l1.36-1.92h.89l-1.82 2.5L124.7 33h-.94l-1.34-2.02h-.03L120.94 33h-.89z"/><path fill="#000" d="M24.945 26.901c-.546-.442-.334-1.42-.9-1.902.548-3.339-.99-6.282-2.823-8.168-1.54-1.583-1.043-3.123-1.043-4.455 0-2.13-.874-4.376-3.523-4.376-2.83 0-3.606 2.362-3.634 3.709-.068 3.237.654 4.078-1.24 6.434-2.229 2.771-2.557 5.536-2.054 7.002a2.901 2.901 0 01-1.146.829c-1.64.714-.438 1.91-.891 2.758-.13.241-.191.493-.191.734 0 .744.591 1.388 1.666 1.292 1.45-.129 2.787.898 3.652.898.764 0 1.392-.434 1.683-1.033 1.367-.336 3.053-.293 4.419.059.245.685.91 1.132 1.649 1.132 1.618 0 1.93-1.835 3.786-2.456.67-.223 1.005-.872 1.005-1.476 0-.387-.137-.755-.415-.98zm-9.076-10.384c-.317 0-.579-.256-.993-.563-.524-.39-1.056-.613-1.05-1.022 0-.281.376-.367.862-.676.522-.33.725-.666 1.24-.666.525 0 .684.266 1.398.575.703.304 1.192.424 1.192.767 0 .352-.735.604-1.15.861-.607.375-.92.724-1.5.724zm1.652-5.174c.875.14.973 1.678.554 2.435l-.352-.144c.183-.539.18-1.426-.431-1.482-.388-.036-.639.476-.692.914a1.673 1.673 0 00-.519-.126c.061-.915.653-1.723 1.44-1.597zm-3.377.328c.67-.166 1.067.614 1.07 1.424l-.308.189c-.042-.34-.193-.89-.574-.773-.408.127-.342 1.074-.114 1.269l-.304.169c-.417-.702-.416-2.117.23-2.278zm-2.099 19.094c-1.947-.886-2.61-.685-2.981-.685-.771 0-1.023-.574-.733-1.118.246-.461.17-.944.109-1.332-.094-.595-.11-.788.474-1.044.809-.344 1.168-.785 1.436-1.115.752-.93 1.51.532 2.133 1.835.404.845 1.199 1.272 1.444 2.208.225.864-.705 1.787-1.882 1.251zm6.933-1.86c-1.373.668-3.122.975-4.431.297-.194-.558-.503-.92-.837-1.283.535-.14.932-.807.457-1.477-.507-.715-1.543-1.215-2.59-2.024-.98-.757-1.289-2.624.045-4.71-.65 1.848-.27 3.55.056 4.038.068-.98.145-2.618 1.485-4.58.675-.99.685-2.297.7-3.115l.615.42c.453.335.832.703 1.376.703.803 0 1.248-.462 1.867-.846.242-.149.608-.3.916-.51.516 2.458 2.653 5.413 2.773 7.095.497-1.024-.14-3.486-.14-3.486.835 1.275.901 2.337.938 3.641.585.24 1.212.863 1.27 1.683l-.244-.028c-.125-.912-2.587-2.251-2.808-.534-1.18.18-.751 2.05-.99 3.262-.108.555-.31.993-.458 1.455zm4.809-.04c-.978.377-1.637 1.178-2.09 1.675-.874.958-2.03.499-2.152-.398-.13-.958.357-1.481.567-2.554.192-.98-.022-2.487.428-2.647.293 1.74 2.05 1.008 2.451.533.652 0 .706.22.852.831.092.382.218.703.574 1.082.415.443.288 1.124-.63 1.478zM15.849 15.96c-.646 0-1.13-.43-1.522-.763-.202-.17.05-.483.25-.313.385.326.772.67 1.272.67.602 0 1.133-.515 1.852-.799.245-.096.385.283.142.38-.698.274-1.259.825-1.994.825z"/></g></svg>
