<svg xmlns="http://www.w3.org/2000/svg" width="196" height="28"><g fill="none" fill-rule="evenodd"><path fill="#F2F3F4" fill-rule="nonzero" d="M4 0h188a4 4 0 014 4v20a4 4 0 01-4 4H4a4 4 0 01-4-4V4a4 4 0 014-4z"/><text fill="#333" font-family="IBMPlexSans-Bold, IBM Plex Sans" font-size="10" font-weight="bold"><tspan x="28" y="17">Web Terminal</tspan> <tspan x="93.77" y="17" font-family="IBMPlexSans, IBM Plex Sans" font-weight="normal"> - Opens in a new tab</tspan></text><g fill-rule="nonzero"><path fill="#000" d="M15.998 7a7.998 7.998 0 104.738 14.44.28.28 0 01-.19-.092l-1.31-1.464-.706 1.083-.582-2.943 2.995.932-1.289.554 1.31 1.464c.06.068.081.157.065.24A7.998 7.998 0 0015.997 7z"/><path d="M10.987 15.564l.073.408.008.002.09-.41.592-1.88h.408l.592 1.88.095.446h.008l.093-.446.475-1.88h.5l-.853 2.94h-.408l-.581-1.812-.128-.525h-.008l-.122.525-.57 1.812h-.41l-.854-2.94h.503zm4.211 0l.073.408.008.002.09-.41.592-1.88h.408l.592 1.88.095.446h.008l.092-.446.476-1.88h.5l-.853 2.94h-.408l-.581-1.812-.128-.525h-.008l-.122.525-.57 1.812h-.411l-.853-2.94h.502zm4.21 0l.074.408.008.002.09-.41.592-1.88h.407l.593 1.88.095.446h.008l.092-.446.476-1.88h.5l-.854 2.94h-.407l-.581-1.812-.128-.525h-.008l-.123.525-.57 1.812h-.41l-.853-2.94h.502z" fill="#FFF"/></g></g></svg>
