<svg xmlns="http://www.w3.org/2000/svg" width="106" height="65"><g fill="#85ACB0"><path d="M61.789 61.399l-.099-.099v.739a.64.64 0 01-.642.64h-15.75a.64.64 0 01-.642-.64V61.3l-.098.099h17.23zm-17.33-.197v.837c0 .464.375.836.84.836h15.75a.836.836 0 00.838-.836v-.837H44.46zm49.33-59.963a3.694 3.694 0 013.692 3.694v52.18a3.694 3.694 0 01-3.693 3.695.246.246 0 00-.003.492 4.187 4.187 0 004.188-4.187V4.933A4.186 4.186 0 0093.79.746h-4.923a.246.246 0 100 .493h4.923zM12.558.746a4.186 4.186 0 00-4.185 4.187v52.18A4.186 4.186 0 0012.56 61.3a.246.246 0 00.003-.492 3.695 3.695 0 01-3.696-3.695V4.933a3.694 3.694 0 013.692-3.694h4.923a.246.246 0 000-.493h-4.923z"/><path d="M12.066 60.808h81.723v.492H12.066zM93.789 5.522l-.099 50.117-80.64-.099.099-50.117 80.64.099zM12.952 55.639l80.837.098.098-50.314-80.837-.098-.098 50.314z"/><path d="M1.449 60.808c-1.155 0-1.29.64-.215 1.068l.144.059a59.358 59.358 0 001.847.708c1.18.43 2.35.811 3.445 1.11.464.126.966.236 1.5.33 1.034.183 2.14.3 3.244.365a32.02 32.02 0 001.476.052.246.246 0 000-.492 31.53 31.53 0 01-1.447-.051 28.03 28.03 0 01-3.187-.358 16.403 16.403 0 01-1.456-.321 43.714 43.714 0 01-3.406-1.098 58.869 58.869 0 01-1.974-.76 1.918 1.918 0 01-.4-.202c-.026-.019-.018-.007-.032.06-.014.065-.021.07.013.061.097-.025.249-.039.448-.039h10.863a.246.246 0 000-.492H1.449zm103.297.492c.197 0 .349.014.444.039.033.008.024.002.01-.064-.012-.066-.005-.077-.032-.057a1.92 1.92 0 01-.398.2 21.733 21.733 0 01-.551.222 58.87 58.87 0 01-1.426.54 43.714 43.714 0 01-3.406 1.098c-.449.122-.936.229-1.456.32a28.03 28.03 0 01-3.187.359 31.53 31.53 0 01-1.448.05.246.246 0 100 .493 32.02 32.02 0 001.476-.052 28.508 28.508 0 003.244-.365 16.89 16.89 0 001.5-.33 44.19 44.19 0 003.445-1.11 59.357 59.357 0 001.995-.769c1.07-.426.943-1.066-.21-1.066H94.035a.246.246 0 100 .492h10.711z"/><path d="M12.558 64.008h81.231v1H12.558zm0-63.262h81.231v1H12.558zm40.862 3.2a.492.492 0 100-.984.492.492 0 000 .984z"/></g></svg>