<svg width="299" height="197" xmlns="http://www.w3.org/2000/svg"><g fill="none" fill-rule="evenodd"><path fill="#F1F2F2" d="M299 0v197H0V0z"/><path d="M297.013 1.98H1.987v193.04h295.026V1.98zM299 197H0V0h299v197z" fill="#C2C2C2" fill-rule="nonzero"/><g transform="translate(0 28)"><path fill="#2A3052" fill-rule="nonzero" d="M247.483 13.207h1.01v136.068h-1.01z"/><path d="M2.94 26.948v-1.223h293.571v1.223H2.941zm0 40.897v-1.223h293.571v1.223H2.941zm0 40.894v-1.224h293.571v1.224H2.941zm0 40.857v-1.223h293.571v1.223H2.941zM37.786 5.908h1.223v161.093h-1.223V5.908zm37.161 0h1.224v161.093h-1.224V5.908zm37.123 0h1.223v161.093h-1.223V5.908zm37.16 0h1.223v161.093h-1.223V5.908zm37.122 0h1.224v161.093h-1.224V5.908zm37.123 0h1.223v161.093h-1.223V5.908zM2.94 88.273v-1.224h293.57v1.224H2.941z" fill="#DFDEDE" fill-rule="nonzero"/><path d="M2.94 41.17v-1.144h293.571v1.144H2.941zm0 80.409v-1.145h293.571v1.145H2.941z" fill="#15212D" fill-rule="nonzero"/><path fill="#C2C2C2" fill-rule="nonzero" d="M.82 2.371V-.075h297.812V2.37z"/><path d="M21.478 83.14a.758.758 0 0 1-.67-1.359l9.063-4.461a.758.758 0 0 1 .67 1.36l-9.063 4.46zm18.125-8.922a.758.758 0 0 1-.669-1.36l9.063-4.46a.758.758 0 1 1 .67 1.359l-9.064 4.461zm18.126-8.922a.758.758 0 1 1-.669-1.36l9.063-4.46a.758.758 0 0 1 .669 1.359l-9.063 4.46zm18.126-8.922a.758.758 0 1 1-.67-1.36l9.064-4.461a.758.758 0 0 1 .669 1.36l-9.063 4.46zm18.122-6.579a.758.758 0 1 1 .154-1.507l10.05 1.024a.758.758 0 1 1-.154 1.508l-10.05-1.025zm20.1 2.049a.758.758 0 1 1 .153-1.508l10.049 1.024a.758.758 0 1 1-.154 1.508l-10.049-1.024zm20.098 2.048a.758.758 0 1 1 .153-1.508l10.05 1.024a.758.758 0 1 1-.154 1.508l-10.05-1.024zm20.098 2.048a.758.758 0 1 1 .154-1.508l10.05 1.024a.758.758 0 1 1-.154 1.508l-10.05-1.024zm29.456-1.538a.758.758 0 1 1 .59 1.395l-6.11 2.582-3.837-.391a.758.758 0 1 1 .154-1.507l3.45.351 5.753-2.43zm9.894-2.536a.758.758 0 1 1-.59-1.396l9.305-3.932a.758.758 0 1 1 .59 1.396l-9.305 3.932zm18.61-7.864a.758.758 0 1 1-.59-1.395l9.305-3.932a.758.758 0 0 1 .59 1.396l-9.305 3.931zm18.61-7.863a.758.758 0 1 1-.59-1.396l9.304-3.932a.758.758 0 0 1 .59 1.396l-9.305 3.932z" fill="#6E7287" fill-rule="nonzero"/><path d="M20.644 83.277a.758.758 0 1 1-.357-1.472l9.817-2.38a.758.758 0 0 1 .357 1.472l-9.817 2.38zm19.633-4.761a.758.758 0 1 1-.357-1.473l9.817-2.38a.758.758 0 1 1 .357 1.472l-9.817 2.38zm19.634-4.762a.758.758 0 1 1-.357-1.472L69.37 69.9a.758.758 0 1 1 .357 1.472l-9.817 2.381zm19.634-4.761a.758.758 0 0 1-.358-1.473l9.817-2.38a.758.758 0 0 1 .357 1.472l-9.816 2.38zm19.322-.272a.758.758 0 0 1 .334-1.478l9.853 2.229a.758.758 0 1 1-.335 1.478l-9.852-2.23zm19.705 4.458a.758.758 0 1 1 .334-1.478l9.852 2.229a.758.758 0 1 1-.334 1.478l-9.852-2.23zm19.704 4.458a.758.758 0 1 1 .335-1.478l9.852 2.229a.758.758 0 1 1-.334 1.478l-9.853-2.23zm19.705 4.458a.758.758 0 1 1 .335-1.478l9.852 2.229a.758.758 0 1 1-.334 1.478l-9.853-2.23zm28.698 4.939l-.26-.013.13-.016.13.029zm.954-.164a.758.758 0 0 1 .186 1.504l-1.346.167-8.787-1.988a.758.758 0 0 1 .334-1.478l8.53 1.93 1.083-.135zm10.211.26a.758.758 0 0 1-.186-1.503l10.024-1.243a.758.758 0 1 1 .187 1.504l-10.025 1.243zm20.05-2.485a.758.758 0 1 1-.187-1.504l10.024-1.243a.758.758 0 0 1 .187 1.504l-10.025 1.243zm20.048-2.486a.758.758 0 0 1-.186-1.504l10.025-1.243a.758.758 0 1 1 .186 1.504l-10.025 1.243zM21.035 83.334a.758.758 0 1 1 .526-1.42l9.472 3.508a.758.758 0 1 1-.526 1.42l-9.472-3.508zm18.944 7.017a.758.758 0 0 1 .527-1.42l9.472 3.508a.758.758 0 1 1-.526 1.42l-9.473-3.508zm18.945 7.018a.758.758 0 0 1 .527-1.421l9.472 3.508a.758.758 0 0 1-.526 1.421l-9.473-3.508zm18.945 7.017a.758.758 0 0 1 .526-1.421l9.473 3.509a.758.758 0 0 1-.527 1.42l-9.472-3.508zm28.945 6.954a.758.758 0 0 1 .093 1.512l-5.3.327-4.793-1.776a.758.758 0 1 1 .526-1.42l4.494 1.664 4.98-.307zm10.175.89a.758.758 0 1 1-.093-1.512l10.082-.621a.758.758 0 1 1 .093 1.512l-10.082.622zm20.165-1.242a.758.758 0 0 1-.094-1.513l10.083-.621a.758.758 0 0 1 .093 1.512l-10.082.622zm20.164-1.244a.758.758 0 1 1-.093-1.512l10.082-.621a.758.758 0 1 1 .093 1.512l-10.082.621zm20.164-1.243a.758.758 0 1 1-.093-1.512l8.658-.534 1.642.688a.758.758 0 0 1-.585 1.398l-1.316-.552-8.306.512zm18.939 3.943a.758.758 0 0 1 .585-1.398l9.317 3.903a.758.758 0 1 1-.585 1.398l-9.317-3.903zm18.633 7.806a.758.758 0 0 1 .586-1.398l9.317 3.903a.758.758 0 0 1-.586 1.397l-9.317-3.902zm18.634 7.805a.758.758 0 1 1 .586-1.397l9.317 3.903a.758.758 0 0 1-.586 1.397l-9.317-3.903z" fill="#6E7287" fill-rule="nonzero"/><path fill="#2A3052" fill-rule="nonzero" d="M259.352 79.801v-1.515h34.85V79.8z"/><ellipse fill="#FFF" opacity=".6" cx="247.621" cy="27.758" rx="8.219" ry="8.518"/><ellipse fill="#FFF" opacity=".6" cx="247.621" cy="80.023" rx="8.219" ry="8.518"/><ellipse fill="#FFF" opacity=".6" cx="248.632" cy="133.294" rx="8.219" ry="8.518"/><path d="M247.621 37.5c-5.225 0-9.442-4.371-9.442-9.742 0-5.37 4.217-9.741 9.442-9.741 5.226 0 9.443 4.37 9.443 9.741 0 5.37-4.217 9.742-9.443 9.742zm0-2.447c3.854 0 6.997-3.256 6.997-7.295 0-4.038-3.143-7.295-6.997-7.295-3.853 0-6.996 3.257-6.996 7.295 0 4.039 3.143 7.295 6.996 7.295zm0 54.712c-5.225 0-9.442-4.371-9.442-9.742 0-5.37 4.217-9.741 9.442-9.741 5.226 0 9.443 4.37 9.443 9.741 0 5.37-4.217 9.742-9.443 9.742zm0-2.447c3.854 0 6.997-3.256 6.997-7.295 0-4.038-3.143-7.295-6.997-7.295-3.853 0-6.996 3.257-6.996 7.295 0 4.039 3.143 7.295 6.996 7.295zm1.011 55.717c-5.225 0-9.443-4.37-9.443-9.741 0-5.37 4.218-9.742 9.443-9.742s9.442 4.371 9.442 9.742c0 5.37-4.217 9.741-9.442 9.741zm0-2.446c3.854 0 6.996-3.257 6.996-7.295 0-4.039-3.142-7.295-6.996-7.295-3.854 0-6.997 3.256-6.997 7.295 0 4.038 3.143 7.295 6.997 7.295z" fill="#E88024" fill-rule="nonzero"/><ellipse fill="#FFF" opacity=".916" cx="24.382" cy="81.028" rx="8.219" ry="8.518"/><path d="M24.382 90.77c-5.225 0-9.443-4.371-9.443-9.742 0-5.37 4.218-9.741 9.443-9.741s9.442 4.37 9.442 9.741c0 5.371-4.217 9.742-9.442 9.742zm0-2.447c3.854 0 6.996-3.256 6.996-7.295 0-4.038-3.142-7.295-6.996-7.295-3.854 0-6.997 3.257-6.997 7.295 0 4.039 3.143 7.295 6.997 7.295z" fill="#E88024" fill-rule="nonzero"/></g><path d="M26.444 16.924c-.11 1.159-.535 2.062-1.278 2.712-.742.649-1.729.973-2.961.973-.862 0-1.62-.204-2.275-.615-.656-.41-1.162-.994-1.519-1.75-.355-.755-.54-1.633-.556-2.634v-1.014c0-1.025.18-1.927.542-2.709.36-.78.88-1.382 1.555-1.805.676-.422 1.456-.634 2.342-.634 1.193 0 2.153.326 2.88.978.728.651 1.15 1.571 1.27 2.76h-1.872c-.088-.781-.314-1.345-.679-1.69-.363-.346-.897-.52-1.599-.52-.817 0-1.444.301-1.882.9-.438.6-.662 1.48-.672 2.638v.962c0 1.174.21 2.07.628 2.686.418.617 1.03.925 1.837.925.738 0 1.291-.166 1.662-.5.372-.333.607-.887.705-1.664h1.871l.001.001zm6.302 3.536c-.079-.154-.148-.405-.207-.754a2.8 2.8 0 0 1-2.108.903c-.807 0-1.465-.231-1.975-.693a2.226 2.226 0 0 1-.764-1.716c0-.861.317-1.521.953-1.981.636-.46 1.545-.69 2.728-.69h1.107v-.53c0-.417-.117-.753-.349-1.003-.233-.252-.588-.377-1.062-.377-.41 0-.747.103-1.01.31a.96.96 0 0 0-.393.786h-1.804c0-.442.146-.856.438-1.243.292-.385.69-.686 1.192-.905a4.167 4.167 0 0 1 1.681-.328c.94 0 1.69.237 2.25.713.559.473.846 1.142.86 2.002v3.641c0 .726.102 1.306.305 1.738v.127h-1.842zm-1.981-1.306a2.04 2.04 0 0 0 1.005-.26 1.74 1.74 0 0 0 .71-.702v-1.521h-.973c-.668 0-1.17.117-1.507.351-.337.233-.505.565-.505.992 0 .348.116.626.346.832.23.206.538.31.924.31v-.002zm7.327 1.306h-1.804V9h1.804v11.46zm3.881 0h-1.804V9h1.804v11.46zm11.574-2.798c0-.477-.167-.846-.5-1.104-.335-.258-.938-.52-1.809-.784-.872-.262-1.564-.556-2.078-.88-.985-.621-1.477-1.432-1.477-2.432 0-.875.354-1.596 1.064-2.164.71-.566 1.632-.85 2.767-.85.75 0 1.422.14 2.01.417.565.258 1.047.67 1.389 1.191a3.06 3.06 0 0 1 .505 1.711h-1.871c0-.566-.178-1.01-.531-1.331-.354-.32-.86-.48-1.519-.48-.613 0-1.09.132-1.429.394-.338.264-.507.632-.507 1.105 0 .397.182.73.549.996.366.266.97.524 1.811.776.841.25 1.516.537 2.027.858.509.32.883.688 1.12 1.104.238.416.357.901.357 1.459 0 .904-.345 1.624-1.036 2.16-.69.534-1.627.8-2.81.8a5.258 5.258 0 0 1-2.156-.435c-.656-.291-1.166-.693-1.529-1.205-.364-.513-.546-1.11-.546-1.791h1.878c0 .617.203 1.095.608 1.433.407.338.988.508 1.746.508.653 0 1.145-.134 1.473-.4.33-.266.494-.618.494-1.056zm10.384-1.156c0 1.249-.282 2.245-.845 2.988-.565.744-1.322 1.115-2.272 1.115-.881 0-1.586-.29-2.116-.872v3.827h-1.804V12.387h1.663l.075.821c.529-.646 1.25-.97 2.16-.97.98 0 1.748.367 2.305 1.1.557.734.834 1.753.834 3.057v.112-.001zm-1.796-.157c0-.805-.159-1.445-.478-1.917-.32-.473-.776-.71-1.37-.71-.737 0-1.267.306-1.589.919v3.581c.327.627.862.94 1.604.94.573 0 1.023-.233 1.348-.697.324-.466.485-1.17.485-2.116zm7.528-2.305a4.442 4.442 0 0 0-.735-.06c-.827 0-1.384.318-1.67.955v5.521h-1.804v-8.073h1.722l.044.903c.436-.7 1.04-1.051 1.811-1.051.258 0 .47.034.639.104l-.007 1.7v.001zm4.676 6.565c-1.143 0-2.07-.362-2.78-1.085s-1.064-1.688-1.064-2.89v-.225c0-.806.154-1.526.463-2.16a3.543 3.543 0 0 1 1.302-1.48 3.431 3.431 0 0 1 1.871-.53c1.095 0 1.94.35 2.535 1.05.597.703.895 1.695.895 2.978v.732h-5.248c.054.666.276 1.193.664 1.58.388.389.878.583 1.466.583.826 0 1.5-.336 2.02-1.008l.972.933a3.252 3.252 0 0 1-1.289 1.124 4.03 4.03 0 0 1-1.807.398zm-.215-6.917c-.495 0-.895.176-1.199.524-.304.347-.499.832-.583 1.454h3.436v-.134c-.038-.607-.2-1.065-.481-1.376-.282-.31-.673-.467-1.173-.467v-.001zm9.633 6.768c-.08-.154-.148-.405-.208-.754a2.8 2.8 0 0 1-2.108.903c-.807 0-1.465-.231-1.975-.693a2.226 2.226 0 0 1-.764-1.716c0-.861.317-1.521.953-1.981.636-.46 1.546-.69 2.73-.69h1.104v-.53c0-.417-.116-.753-.348-1.003-.233-.252-.586-.377-1.062-.377-.41 0-.747.103-1.01.31a.96.96 0 0 0-.393.786h-1.804c0-.442.146-.856.438-1.243.292-.385.69-.686 1.192-.905a4.167 4.167 0 0 1 1.682-.328c.94 0 1.69.237 2.249.713.559.473.846 1.142.861 2.002v3.641c0 .726.101 1.306.304 1.738v.127h-1.841zm-1.983-1.306c.356 0 .691-.086 1.006-.26a1.75 1.75 0 0 0 .709-.702v-1.521h-.973c-.668 0-1.17.117-1.506.351-.338.233-.506.565-.506.992 0 .348.116.626.346.832.23.206.538.31.924.31v-.002zm5.07-2.79c0-1.243.288-2.24.861-2.995.574-.753 1.344-1.13 2.309-1.13.851 0 1.539.298 2.064.895V9h1.804v11.46h-1.633l-.09-.835c-.539.656-1.258.984-2.158.984-.942 0-1.703-.38-2.284-1.141-.581-.761-.871-1.796-.871-3.104h-.002zm1.804.157c0 .82.157 1.46.471 1.921.314.46.761.69 1.34.69.738 0 1.277-.33 1.619-.992v-3.447c-.332-.646-.867-.97-1.604-.97-.584 0-1.034.232-1.35.698-.318.465-.476 1.165-.476 2.1z" fill="#000" fill-rule="nonzero"/><path d="M277.512 120.465h-5.174l.13-.79 3.093-3.106c.55-.555.933-.997 1.146-1.327.213-.33.348-.667.407-1.011.07-.438.017-.799-.158-1.084-.176-.285-.448-.428-.815-.428-.52 0-.936.153-1.25.46-.315.307-.515.73-.601 1.269h-1.078l-.012-.035c.105-.762.431-1.386.978-1.873.547-.486 1.248-.729 2.104-.729.687 0 1.215.226 1.582.677.367.45.496 1.018.387 1.702a3.348 3.348 0 0 1-.595 1.403c-.319.451-.757.95-1.316 1.497l-2.46 2.438.011.035h3.768l-.147.902zm-7.246 46.321c.053-.33-.005-.606-.175-.83-.17-.224-.479-.425-.926-.604-.638-.219-1.1-.51-1.386-.876-.287-.365-.381-.852-.285-1.46.097-.613.33-1.101.701-1.464.37-.364.839-.581 1.405-.653l.188-1.187h.827l-.194 1.198c.527.093.912.354 1.155.784.244.43.31.997.199 1.703h-1.031c.079-.505.043-.904-.108-1.196-.15-.291-.408-.437-.773-.437-.362 0-.659.112-.892.335-.232.224-.377.524-.435.9-.057.358-.004.642.159.851.163.21.486.411.97.605.644.236 1.102.53 1.374.883s.36.832.263 1.437c-.104.637-.353 1.133-.749 1.488-.396.354-.901.564-1.517.628l-.161 1.031h-.828l.162-1.03c-.541-.072-.965-.303-1.273-.691-.308-.389-.401-.955-.28-1.7h1.037c-.093.573-.037.971.17 1.195.205.224.494.336.867.336.404 0 .745-.112 1.023-.336.277-.224.448-.527.513-.91zm7.02-.962c-.215 1.064-.574 1.845-1.077 2.345-.503.5-1.122.749-1.856.749-.67 0-1.172-.271-1.506-.814-.335-.542-.404-1.302-.207-2.28l.37-1.853c.212-1.06.571-1.841 1.08-2.344a2.543 2.543 0 0 1 1.858-.755c.674 0 1.175.272 1.504.817.33.544.398 1.305.204 2.282l-.37 1.853zm-.623-2.078c.143-.72.138-1.24-.014-1.56-.152-.321-.441-.481-.867-.481-.39 0-.737.174-1.04.523-.302.35-.52.855-.652 1.518l-.457 2.293c-.143.72-.137 1.242.017 1.566.153.324.444.486.87.486.39 0 .735-.176 1.034-.527.299-.35.516-.859.652-1.525l.457-2.293zM263.648 46.283l-.519 2.611h-.863l1.301-6.51h2.348c.602 0 1.057.182 1.366.545.308.364.406.832.293 1.404-.128.63-.402 1.111-.82 1.447-.42.335-.958.503-1.617.503h-1.49.001zm.138-.689h1.49c.37 0 .683-.12.94-.362.259-.241.423-.538.495-.89.074-.381.038-.688-.11-.919-.147-.23-.422-.346-.825-.346h-1.484l-.506 2.517zm6.556 3.3c0-.146.003-.266.008-.36.006-.094.017-.19.032-.288-.2.211-.429.388-.687.53a1.599 1.599 0 0 1-.775.212c-.442 0-.767-.132-.977-.396-.21-.264-.27-.616-.177-1.057.095-.492.338-.861.727-1.107.389-.246.887-.369 1.495-.369h.828l.093-.478c.06-.301.027-.53-.098-.687-.125-.156-.334-.234-.626-.234-.25 0-.477.073-.68.221-.202.148-.323.32-.362.516h-.818l-.009-.026c.06-.373.283-.7.67-.982.388-.282.85-.422 1.387-.422.48 0 .86.142 1.138.427.279.284.367.683.266 1.196l-.465 2.33c-.039.181-.066.35-.08.505a2.47 2.47 0 0 0 0 .469h-.89zm-1.145-.644c.241 0 .487-.07.738-.21.25-.14.444-.306.58-.496l.18-.89h-.854c-.295 0-.56.09-.796.273-.236.181-.376.39-.42.626-.048.23-.026.403.067.52.092.118.26.177.505.177zm4.811-1.149l.022.55.027.004 1.798-3.599h.961l-2.996 5.58a3.49 3.49 0 0 1-.67.85 1.328 1.328 0 0 1-.93.362 2.587 2.587 0 0 1-.492-.072l.228-.693c.044 0 .087.004.13.01.128.008.207.013.236.013.155 0 .311-.09.468-.268.156-.18.282-.358.377-.537l.296-.505-.72-4.74h.965l.3 3.045zm2.813-.67c.119-.746.392-1.343.82-1.791.408-.44.985-.685 1.585-.673.602 0 1.053.233 1.353.7.3.466.393 1.054.28 1.763l-.014.099c-.122.748-.397 1.345-.825 1.79a2.11 2.11 0 0 1-1.585.669c-.602 0-1.053-.233-1.353-.698-.3-.465-.391-1.052-.275-1.761l.014-.099v.001zm.85.098c-.087.533-.061.962.077 1.285.139.324.404.485.794.485.364 0 .674-.169.93-.507.256-.338.425-.76.505-1.263l.014-.099c.083-.524.055-.95-.085-1.279-.14-.327-.403-.491-.787-.491-.367 0-.678.17-.932.51-.255.34-.423.76-.503 1.26l-.014.099h.001zm6.67 2.365l.077-.662a2.016 2.016 0 0 1-.651.564c-.246.129-.52.195-.798.192-.462 0-.804-.171-1.026-.514-.222-.343-.263-.865-.123-1.565l.567-2.853h.863l-.572 2.862c-.11.548-.116.911-.018 1.088.099.178.297.267.595.267.265 0 .506-.066.722-.197a1.69 1.69 0 0 0 .548-.546l.693-3.474h.863l-.966 4.838h-.774zm4.347-6.005l-.237 1.167h.836l-.13.653h-.836l-.586 2.938c-.05.241-.043.404.023.49.065.084.171.127.317.127.069 0 .151-.007.248-.02.097-.014.174-.028.23-.043l-.004.604c-.086.053-.21.097-.369.132a2.24 2.24 0 0 1-.472.05c-.313 0-.553-.11-.722-.33-.168-.22-.206-.557-.114-1.01l.586-2.938h-.706l.13-.653h.706l.237-1.167h.863zm-28.09 17.898c.257 0 .502-.091.736-.273.234-.182.372-.402.413-.662h.774l.009.027c-.06.435-.292.81-.698 1.125-.38.305-.853.472-1.341.471-.632 0-1.092-.232-1.382-.697-.289-.465-.378-1.039-.268-1.722l.031-.187c.11-.713.375-1.293.794-1.742.419-.449.96-.673 1.625-.673.513 0 .915.168 1.205.503.291.335.392.746.302 1.232l-.009.022h-.782c.05-.31 0-.565-.152-.764-.152-.2-.376-.3-.67-.3-.406 0-.73.168-.971.505a2.8 2.8 0 0 0-.474 1.217l-.031.187c-.08.513-.06.93.062 1.25.122.32.398.48.827.48v.001zm2.849-1.87c.119-.745.392-1.341.82-1.79.408-.44.985-.685 1.585-.673.602 0 1.053.233 1.353.7.3.466.393 1.054.28 1.764l-.014.098c-.122.748-.397 1.345-.825 1.79a2.11 2.11 0 0 1-1.585.67c-.602 0-1.053-.233-1.353-.698-.3-.465-.391-1.052-.275-1.762l.014-.098v-.001zm.85.1c-.087.533-.061.961.077 1.285.14.323.404.485.794.485.364 0 .674-.17.93-.508.257-.338.425-.76.505-1.263l.014-.098c.083-.525.055-.951-.085-1.28-.14-.327-.403-.491-.787-.491-.367 0-.677.17-.932.51-.255.34-.423.76-.503 1.26l-.014.1h.001zm5.45-1.897c.188-.214.405-.38.653-.494a1.92 1.92 0 0 1 .818-.172c.271 0 .5.073.686.22.187.145.31.363.37.652.19-.274.417-.488.679-.642.262-.153.551-.23.867-.23.427 0 .746.172.957.516.212.345.252.85.12 1.518l-.576 2.893h-.867l.58-2.901c.1-.513.096-.86-.008-1.04-.104-.18-.309-.27-.613-.27-.244 0-.475.107-.693.324a1.901 1.901 0 0 0-.478.807v.009l-.613 3.071h-.867l.581-2.901c.096-.486.09-.826-.018-1.02-.107-.194-.31-.29-.608-.29-.226 0-.43.057-.608.172a1.516 1.516 0 0 0-.46.476l-.716 3.563h-.863l.966-4.838h.769l-.058.577zm10.083 2.115c-.15.745-.4 1.305-.754 1.68-.353.373-.808.56-1.366.56-.259 0-.492-.049-.7-.147a1.31 1.31 0 0 1-.511-.43l-.47 2.344h-.863l1.337-6.699h.742l-.03.479c.34-.367.82-.573 1.32-.568.52 0 .907.258 1.158.774.252.515.304 1.153.155 1.913l-.018.094zm-.845-.094c.113-.578.096-1.051-.052-1.42-.147-.368-.416-.552-.807-.552-.2 0-.384.059-.554.175-.17.116-.324.276-.46.478l-.475 2.366c.07.178.192.331.349.44.155.106.353.159.595.159.354 0 .65-.14.885-.418.236-.279.402-.657.5-1.134l.019-.094zm2.383 2.24h-.863l1.395-6.975h.863l-1.395 6.975zm3.233.094c-.608 0-1.068-.225-1.38-.677-.311-.452-.41-1.032-.297-1.742l.031-.196c.114-.716.396-1.296.848-1.74.451-.444.94-.666 1.464-.666.593 0 1.018.198 1.274.595.257.396.334.92.233 1.57l-.09.55h-2.915c-.065.494-.02.887.137 1.18.156.292.424.438.802.438a2.07 2.07 0 0 0 1.337-.478l.246.572a2.2 2.2 0 0 1-.698.424c-.283.114-.614.17-.992.17zm.559-4.328c-.25 0-.493.125-.727.376a2.18 2.18 0 0 0-.503.93l.014.027h1.99l.017-.117c.057-.36.023-.653-.103-.878-.125-.225-.354-.338-.688-.338zm4.409-1.77l-.237 1.166h.836l-.13.653h-.836l-.586 2.938c-.05.241-.043.405.023.49.065.085.17.127.317.127.069 0 .151-.007.248-.02.097-.014.174-.028.23-.043l-.004.604a1.17 1.17 0 0 1-.369.132 2.24 2.24 0 0 1-.472.051c-.313 0-.553-.11-.722-.33-.168-.221-.206-.558-.114-1.011l.586-2.938h-.707l.13-.653h.707l.237-1.167h.863v.001zm.903 3.54c.119-.745.393-1.341.82-1.79.408-.44.985-.685 1.585-.673.603 0 1.053.233 1.353.7.3.466.393 1.054.28 1.764l-.014.098c-.122.748-.397 1.345-.825 1.79a2.11 2.11 0 0 1-1.585.67c-.602 0-1.053-.233-1.353-.698-.3-.465-.39-1.052-.275-1.762l.014-.098v-.001zm.85.1c-.087.533-.061.961.078 1.285.138.323.403.485.793.485.364 0 .674-.17.93-.508.257-.338.425-.76.506-1.263l.013-.098c.083-.525.055-.951-.085-1.28-.14-.327-.402-.491-.787-.491-.367 0-.677.17-.932.51-.255.34-.423.76-.503 1.26l-.014.1h.001zm-252.128.187l1.564-7.82h2.406c.713 0 1.26.179 1.644.537.383.358.504.884.365 1.579a1.89 1.89 0 0 1-.494.95c-.26.269-.58.471-.935.591.42.1.717.333.894.696.178.363.218.783.121 1.26-.154.762-.478 1.32-.972 1.675s-1.12.532-1.88.532h-2.713zm1.768-3.668l-.564 2.84h1.676c.404 0 .758-.12 1.06-.362.303-.241.5-.577.589-1.007.093-.487.067-.854-.078-1.1-.145-.248-.429-.371-.852-.371h-1.831zm.166-.828h1.585c.322 0 .622-.11.9-.33.277-.22.453-.52.529-.9.09-.447.036-.77-.159-.966-.195-.197-.524-.296-.985-.296h-1.37l-.5 2.492zm7.81 4.496a4.324 4.324 0 0 1 .048-.779 3.33 3.33 0 0 1-.824.637c-.31.17-.62.255-.932.255-.53 0-.921-.159-1.174-.476-.252-.316-.323-.74-.212-1.27.115-.59.406-1.034.873-1.33.467-.295 1.066-.442 1.797-.442h.993l.113-.575c.072-.362.032-.636-.118-.824-.15-.188-.401-.282-.752-.282-.3 0-.573.088-.816.265-.244.178-.389.384-.435.62h-.983l-.011-.031c.071-.448.34-.841.806-1.18.465-.338 1.02-.507 1.665-.507.576 0 1.032.171 1.367.513.334.342.44.82.32 1.437l-.56 2.798a5.55 5.55 0 0 0-.096.607 2.967 2.967 0 0 0 0 .564h-1.069zm-1.375-.773c.29 0 .585-.085.886-.253.301-.168.534-.367.698-.596l.215-1.069h-1.026c-.354 0-.673.11-.956.328-.283.218-.45.469-.505.752-.057.275-.03.484.081.625.111.142.313.213.607.213zm7.364-4.104l-.57-.032c-.236 0-.453.067-.652.201a1.772 1.772 0 0 0-.518.567l-.828 4.141h-1.035l1.16-5.812h.93l-.065.78c.2-.284.427-.502.68-.656a1.535 1.535 0 0 1 1.232-.172l-.333.983h-.001zm3.647 0l-.57-.032c-.236 0-.453.067-.652.201-.212.149-.39.342-.519.567l-.827 4.141H54.97l1.16-5.812h.93l-.065.78c.2-.284.427-.502.68-.656a1.535 1.535 0 0 1 1.232-.172l-.333.983zm1.16 4.877h-1.037l1.16-5.812h1.037l-1.16 5.812zm1.46-7.3h-1.036l.215-1.079h1.037l-.215 1.08-.001-.001zm2.423 7.413c-.73 0-1.283-.271-1.657-.814-.374-.542-.493-1.24-.357-2.092l.038-.236c.136-.86.475-1.556 1.017-2.09.543-.533 1.13-.8 1.76-.8.712 0 1.222.238 1.53.714.308.477.401 1.105.28 1.886l-.108.66h-3.502c-.079.595-.024 1.067.164 1.418s.51.527.964.527c.315 0 .61-.053.886-.159.276-.105.516-.244.72-.416l.295.687c-.245.22-.529.393-.837.51-.34.137-.738.205-1.193.205zm.672-5.2c-.301 0-.592.151-.873.452-.281.3-.483.673-.604 1.117l.016.032h2.39l.021-.14c.068-.433.027-.785-.123-1.055-.15-.27-.426-.405-.827-.405v-.001zm6.08.21l-.57-.032a1.14 1.14 0 0 0-.652.201c-.212.149-.39.342-.519.567l-.827 4.141h-1.036l1.16-5.812h.929l-.064.78c.2-.284.427-.502.679-.656a1.535 1.535 0 0 1 1.233-.172l-.333.983zm3.351 4.877c0-.175.004-.32.011-.432a3.91 3.91 0 0 1 .038-.347 3.33 3.33 0 0 1-.825.637c-.31.17-.62.255-.932.255-.53 0-.92-.159-1.173-.476-.253-.316-.324-.74-.213-1.27.115-.59.406-1.034.873-1.33.468-.295 1.066-.442 1.797-.442h.994l.112-.575c.072-.362.033-.636-.118-.824-.15-.188-.4-.282-.752-.282-.3 0-.573.088-.816.265-.244.178-.389.384-.435.62h-.983l-.01-.031c.07-.448.34-.841.805-1.18.465-.338 1.02-.507 1.665-.507.576 0 1.032.171 1.367.513.335.342.441.82.32 1.437l-.56 2.798a5.55 5.55 0 0 0-.096.607 2.967 2.967 0 0 0 0 .564H73.72zm-1.375-.773c.29 0 .586-.085.886-.253.301-.168.534-.367.699-.596l.215-1.069h-1.026c-.355 0-.674.11-.956.328-.283.218-.452.469-.505.752-.058.275-.03.484.08.625.111.142.314.213.607.213zm9.824-.769c.04-.24-.009-.433-.145-.58-.136-.146-.419-.275-.849-.386-.634-.154-1.098-.364-1.394-.629-.295-.265-.405-.623-.33-1.074.079-.49.331-.898.757-1.222.427-.324.944-.486 1.553-.486.608 0 1.078.176 1.407.526.33.351.448.772.354 1.263l-.016.032h-.993a.843.843 0 0 0-.172-.69c-.158-.2-.394-.298-.71-.298-.321 0-.583.083-.783.25a.95.95 0 0 0-.355.593c-.04.24.003.422.126.548.124.125.404.241.841.349.662.157 1.139.371 1.429.642.29.27.399.633.327 1.087a1.852 1.852 0 0 1-.784 1.265c-.437.31-.974.465-1.611.465-.666 0-1.175-.19-1.526-.57-.35-.38-.476-.816-.376-1.31l.011-.032h.994c-.047.376.034.65.242.824.207.174.469.26.784.26.326 0 .6-.076.824-.23a.876.876 0 0 0 .395-.597zm5.452 1.542l.09-.795a2.407 2.407 0 0 1-.78.677 2.023 2.023 0 0 1-.96.23c-.554 0-.965-.205-1.232-.617-.267-.412-.316-1.038-.148-1.88l.682-3.427h1.037l-.687 3.438c-.133.659-.14 1.095-.022 1.308.118.213.356.32.714.32.32 0 .608-.08.868-.237.26-.157.479-.376.658-.655l.832-4.174h1.037l-1.16 5.812h-.93.001zm7.557-2.578c-.18.895-.481 1.567-.905 2.017-.425.45-.972.674-1.641.674-.312 0-.592-.06-.84-.177a1.574 1.574 0 0 1-.616-.516l-.564 2.814h-1.036l1.606-8.046h.891l-.037.575c.214-.222.455-.391.722-.507.267-.117.554-.175.862-.175.627 0 1.091.31 1.394.93.302.619.364 1.385.185 2.298l-.021.113zm-1.015-.113c.136-.695.115-1.263-.062-1.705-.177-.442-.5-.664-.97-.664-.24 0-.462.07-.666.21-.204.14-.388.331-.553.575l-.57 2.84c.094.227.234.403.42.53.186.127.424.19.714.19.426 0 .78-.167 1.064-.502.282-.334.483-.788.601-1.361l.022-.113zm4.082 2.804c-.73 0-1.283-.271-1.657-.814-.375-.542-.494-1.24-.358-2.092l.038-.236c.136-.86.475-1.556 1.018-2.09.542-.533 1.129-.8 1.759-.8.712 0 1.223.238 1.53.714.309.477.402 1.105.28 1.886l-.107.66h-3.502c-.08.595-.025 1.067.163 1.418s.51.527.965.527a2.493 2.493 0 0 0 1.606-.575l.295.687a2.68 2.68 0 0 1-.838.51c-.34.137-.738.205-1.192.205zm.671-5.2c-.3 0-.592.151-.873.452-.28.3-.482.673-.604 1.117l.016.032h2.39l.022-.14c.068-.433.027-.785-.124-1.055-.15-.27-.426-.405-.827-.405v-.001zm6.08.21l-.57-.032c-.236 0-.453.067-.652.201a1.772 1.772 0 0 0-.518.567l-.827 4.141h-1.037l1.16-5.812h.93l-.065.78c.2-.284.427-.502.68-.656a1.535 1.535 0 0 1 1.232-.172l-.333.983zm1.16 4.877h-1.036l1.16-5.812h1.036l-1.16 5.812zm1.461-7.3h-1.036l.214-1.079h1.037l-.215 1.08v-.001zm.424 4.34c.144-.895.472-1.612.986-2.15.514-.54 1.149-.809 1.904-.809.723 0 1.265.28 1.625.84.36.561.472 1.267.336 2.12l-.017.118c-.146.898-.477 1.615-.99 2.15-.514.536-1.149.804-1.905.804-.723 0-1.264-.28-1.624-.838-.36-.559-.47-1.264-.33-2.116l.016-.118-.001-.001zm1.021.119c-.104.64-.073 1.155.094 1.544.167.388.484.583.953.583.437 0 .81-.204 1.118-.61.308-.406.51-.912.606-1.517l.017-.118c.1-.63.066-1.143-.102-1.537-.169-.393-.484-.59-.946-.59-.44 0-.813.204-1.12.612-.306.408-.507.913-.604 1.515l-.016.118zm8.132-2.036l-.57-.032c-.236 0-.453.067-.652.201a1.772 1.772 0 0 0-.518.567l-.828 4.141h-1.036l1.16-5.812h.93l-.065.78c.2-.284.427-.502.68-.656a1.535 1.535 0 0 1 1.232-.172l-.333.983zm2.277 4.99c-.73 0-1.283-.271-1.657-.814-.374-.542-.493-1.24-.357-2.092l.038-.236c.136-.86.475-1.556 1.017-2.09.543-.533 1.13-.8 1.76-.8.712 0 1.222.238 1.53.714.308.477.401 1.105.28 1.886l-.108.66h-3.502c-.079.595-.024 1.067.164 1.418s.51.527.964.527c.315 0 .61-.053.886-.159.276-.105.516-.244.72-.416l.295.687c-.245.22-.529.393-.837.51-.34.137-.738.205-1.193.205zm.672-5.2c-.301 0-.592.151-.873.452-.281.3-.483.673-.604 1.117l.016.032h2.39l.021-.14c.068-.433.027-.785-.123-1.055-.15-.27-.426-.405-.827-.405v-.001zM41.694 168.805l1.564-7.82h2.406c.713 0 1.26.179 1.644.537.383.358.504.884.365 1.58a1.89 1.89 0 0 1-.494.95c-.26.268-.58.47-.935.59.42.1.717.333.894.696.178.364.218.783.121 1.26-.154.762-.478 1.321-.972 1.675-.494.355-1.12.532-1.88.532h-2.713zm1.768-3.668l-.564 2.841h1.676c.404 0 .758-.12 1.06-.362.303-.242.5-.578.589-1.008.093-.487.067-.854-.078-1.1-.145-.248-.429-.371-.852-.371h-1.831zm.166-.827h1.585c.322 0 .622-.11.9-.33.277-.22.453-.52.529-.9.09-.448.036-.77-.159-.967-.195-.197-.524-.296-.985-.296h-1.37l-.5 2.493zm7.81 4.495a4.374 4.374 0 0 1 .048-.779 3.33 3.33 0 0 1-.824.637c-.31.17-.62.255-.932.255-.53 0-.921-.158-1.174-.475-.252-.317-.323-.74-.212-1.27.115-.591.406-1.035.873-1.33.467-.295 1.066-.443 1.797-.443h.993l.113-.575c.072-.361.032-.636-.118-.824-.15-.188-.401-.282-.752-.282-.3 0-.573.088-.816.266-.244.177-.389.384-.435.62h-.983l-.011-.032c.071-.448.34-.84.806-1.18.465-.338 1.02-.507 1.665-.507.576 0 1.032.171 1.367.513.334.342.44.821.32 1.437l-.56 2.798a5.588 5.588 0 0 0-.096.607 2.967 2.967 0 0 0 0 .564h-1.069zm-1.375-.773a1.8 1.8 0 0 0 .886-.253c.301-.168.534-.367.698-.596l.215-1.069h-1.026c-.354 0-.673.11-.956.328-.283.218-.45.469-.505.752-.057.276-.03.484.081.626.111.141.313.212.607.212zm7.364-4.104l-.57-.032c-.236 0-.453.067-.652.201a1.772 1.772 0 0 0-.518.567l-.828 4.141h-1.035l1.16-5.811h.93l-.065.778c.2-.282.427-.5.68-.655a1.535 1.535 0 0 1 1.232-.172l-.333.983h-.001zm3.647 0l-.57-.032c-.236 0-.453.067-.652.201-.212.149-.39.342-.519.567l-.827 4.141H57.47l1.16-5.811h.93l-.065.778c.2-.282.427-.5.68-.655a1.535 1.535 0 0 1 1.232-.172l-.333.983zm1.16 4.877h-1.037l1.16-5.811h1.037l-1.16 5.811zm1.46-7.3h-1.036l.215-1.079h1.037l-.215 1.08-.001-.001zm2.423 7.413c-.73 0-1.283-.271-1.657-.814-.374-.542-.493-1.24-.357-2.092l.038-.236c.136-.86.475-1.556 1.017-2.09.543-.533 1.13-.8 1.76-.8.712 0 1.222.238 1.53.715.308.476.401 1.104.28 1.885l-.108.66h-3.502c-.079.595-.024 1.068.164 1.418.188.351.51.527.964.527.315 0 .61-.053.886-.159.276-.105.516-.244.72-.416l.295.688c-.245.22-.529.393-.837.51-.34.136-.738.204-1.193.204zm.672-5.2c-.301 0-.592.151-.873.452-.281.3-.483.673-.604 1.117l.016.032h2.39l.021-.14c.068-.433.027-.784-.123-1.055-.15-.27-.426-.405-.827-.405v-.001zm6.08.21l-.57-.032a1.14 1.14 0 0 0-.652.201c-.212.149-.39.342-.519.567l-.827 4.141h-1.036l1.16-5.811h.929l-.064.778c.2-.282.427-.5.679-.655a1.535 1.535 0 0 1 1.233-.172l-.333.983zm3.351 4.877c0-.175.004-.32.011-.432.007-.113.02-.228.038-.347a3.33 3.33 0 0 1-.825.637c-.31.17-.62.255-.932.255-.53 0-.92-.158-1.173-.475-.253-.317-.324-.74-.213-1.27.115-.591.406-1.035.873-1.33.468-.295 1.066-.443 1.797-.443h.994l.112-.575c.072-.361.033-.636-.118-.824-.15-.188-.4-.282-.752-.282-.3 0-.573.088-.816.266-.244.177-.389.384-.435.62h-.983l-.01-.032c.07-.448.34-.84.805-1.18.465-.338 1.02-.507 1.665-.507.576 0 1.032.171 1.367.513.335.342.441.821.32 1.437l-.56 2.798a5.588 5.588 0 0 0-.096.607 2.967 2.967 0 0 0 0 .564H76.22zm-1.375-.773c.29 0 .586-.084.886-.253.301-.168.534-.367.699-.596l.215-1.069h-1.026c-.355 0-.674.11-.956.328-.283.218-.452.469-.505.752-.058.276-.03.484.08.626.111.141.314.212.607.212zm7.482.773h-1.036l1.16-5.811h1.036l-1.16 5.811zm1.461-7.3h-1.037l.215-1.079h1.038l-.215 1.08-.001-.001zm2.084 2.289c.236-.294.504-.518.803-.674.299-.156.62-.234.964-.234.548 0 .954.186 1.22.559.264.372.322.936.171 1.692l-.736 3.668h-1.036l.73-3.647c.108-.544.093-.916-.043-1.114-.136-.199-.4-.298-.795-.298-.25 0-.5.076-.746.228a2.3 2.3 0 0 0-.65.61l-.843 4.221h-1.037l1.16-5.811h.93l-.092.8zm4.35 5.011l1.005-5.027h-.838l.156-.784h.838l.15-.736c.13-.659.375-1.148.739-1.466.363-.32.824-.478 1.383-.478.107 0 .218.01.333.032.114.021.238.048.37.08l-.279.806a1.993 1.993 0 0 0-.467-.054.891.891 0 0 0-.669.282c-.18.188-.305.454-.373.798l-.15.736h1.1l-.155.784h-1.101l-1.005 5.027h-1.037zm5.356.113c-.73 0-1.283-.271-1.657-.814-.375-.542-.494-1.24-.358-2.092l.038-.236c.136-.86.475-1.556 1.018-2.09.542-.533 1.129-.8 1.759-.8.712 0 1.223.238 1.53.715.309.476.402 1.104.28 1.885l-.107.66h-3.502c-.08.595-.025 1.068.163 1.418.188.351.51.527.965.527a2.493 2.493 0 0 0 1.606-.575l.295.688a2.68 2.68 0 0 1-.838.51c-.34.136-.738.204-1.192.204zm.671-5.2c-.3 0-.592.151-.873.452-.28.3-.482.673-.604 1.117l.016.032h2.39l.022-.14c.068-.433.027-.784-.124-1.055-.15-.27-.426-.405-.827-.405v-.001zm6.08.21l-.57-.032c-.236 0-.453.067-.652.201a1.772 1.772 0 0 0-.518.567l-.827 4.141h-1.038l1.16-5.811h.93l-.065.778c.2-.282.427-.5.68-.655a1.535 1.535 0 0 1 1.232-.172l-.333.983h.001zm1.16 4.877h-1.036l1.16-5.811h1.036l-1.16 5.811zm1.461-7.3h-1.036l.214-1.079h1.037l-.215 1.08v-.001zm.425 4.34c.143-.894.471-1.611.985-2.15.514-.54 1.149-.809 1.904-.809.723 0 1.265.28 1.625.84.36.561.472 1.268.336 2.12l-.017.118c-.146.899-.477 1.616-.99 2.151-.514.535-1.149.803-1.905.803-.723 0-1.264-.28-1.624-.838-.36-.558-.47-1.264-.33-2.116l.016-.118v-.001zm1.02.119c-.104.64-.072 1.156.094 1.544.167.389.484.583.953.583.437 0 .81-.203 1.118-.61.308-.406.51-.912.606-1.517l.017-.118c.1-.63.066-1.143-.102-1.536-.169-.394-.484-.591-.946-.591-.44 0-.813.204-1.12.612-.306.408-.507.913-.604 1.515l-.016.118zm8.132-2.036l-.57-.032c-.236 0-.453.067-.652.201a1.772 1.772 0 0 0-.518.567l-.828 4.141h-1.036l1.16-5.811h.93l-.065.778c.2-.282.427-.5.68-.655a1.535 1.535 0 0 1 1.232-.172l-.333.983zm2.277 4.99c-.73 0-1.283-.271-1.657-.814-.374-.542-.493-1.24-.357-2.092l.038-.236c.136-.86.475-1.556 1.017-2.09.543-.533 1.13-.8 1.76-.8.712 0 1.222.238 1.53.715.308.476.401 1.104.28 1.885l-.108.66h-3.502c-.079.595-.024 1.068.164 1.418.188.351.51.527.964.527.315 0 .61-.053.886-.159.276-.105.516-.244.72-.416l.295.688c-.245.22-.529.393-.837.51-.34.136-.738.204-1.193.204zm.672-5.2c-.301 0-.592.151-.873.452-.281.3-.483.673-.604 1.117l.016.032h2.39l.021-.14c.068-.433.027-.784-.123-1.055-.15-.27-.426-.405-.827-.405v-.001zm143.738-65.245l-.623 3.137h-1.037l1.563-7.82h2.82c.723 0 1.27.218 1.641.655.37.437.488.999.352 1.686-.154.756-.483 1.335-.986 1.738s-1.15.604-1.941.604h-1.789zm.166-.827h1.789c.444 0 .82-.145 1.13-.435.31-.29.508-.646.594-1.069.09-.458.046-.826-.131-1.104-.178-.277-.508-.416-.991-.416h-1.784l-.607 3.024zm7.874 3.964c0-.176.004-.32.011-.433a3.93 3.93 0 0 1 .038-.346 3.33 3.33 0 0 1-.825.636c-.31.17-.62.256-.932.256-.53 0-.92-.159-1.173-.476-.253-.317-.323-.74-.212-1.27.114-.59.405-1.034.873-1.33.467-.295 1.066-.443 1.796-.443h.994l.113-.574c.071-.362.032-.637-.119-.825-.15-.188-.4-.282-.752-.282-.3 0-.572.089-.816.266-.243.177-.388.384-.435.62h-.983l-.01-.032c.071-.447.34-.84.805-1.179.466-.338 1.02-.507 1.665-.507.577 0 1.032.17 1.367.513.335.342.441.82.32 1.437l-.559 2.798a5.3 5.3 0 0 0-.097.607 2.968 2.968 0 0 0 0 .564h-1.069zm-1.375-.774c.29 0 .586-.084.887-.252.3-.168.533-.367.698-.596l.215-1.07h-1.026c-.355 0-.673.11-.956.328-.283.219-.451.47-.505.752-.057.276-.03.485.08.626.112.142.314.212.607.212zm5.78-1.38l.027.66.032.006 2.159-4.324h1.155l-3.599 6.703c-.222.39-.49.73-.805 1.02-.316.29-.688.436-1.118.436a3.107 3.107 0 0 1-.59-.086l.273-.833.156.011c.154.011.25.016.285.016.186 0 .373-.107.561-.322.188-.215.34-.43.454-.644l.355-.607-.865-5.694h1.16l.36 3.658zm3.378-.806c.143-.895.472-1.612.986-2.15a2.523 2.523 0 0 1 1.904-.81c.723 0 1.265.281 1.625.841.36.56.471 1.267.335 2.12l-.016.117c-.147.9-.477 1.616-.99 2.152-.515.535-1.15.803-1.905.803-.723 0-1.265-.28-1.625-.838-.36-.559-.47-1.264-.33-2.117l.016-.118zm1.02.118c-.103.641-.072 1.156.095 1.545.166.388.484.582.953.582.437 0 .81-.203 1.117-.61.308-.406.51-.911.607-1.517l.016-.118c.1-.63.067-1.142-.102-1.536-.168-.394-.483-.59-.945-.59-.44 0-.814.203-1.12.612-.306.408-.508.913-.604 1.514l-.016.118h-.001zm8.014 2.842l.092-.795c-.23.297-.49.523-.782.677a2.023 2.023 0 0 1-.959.23c-.555 0-.965-.205-1.232-.617-.267-.412-.316-1.039-.148-1.88l.682-3.427h1.037l-.688 3.438c-.132.659-.14 1.095-.021 1.308.118.213.356.32.714.32.319 0 .608-.08.868-.237.26-.158.479-.376.658-.655l.832-4.174h1.037l-1.16 5.812h-.93zm5.221-7.214l-.285 1.402h1.005l-.156.784h-1.004l-.704 3.53c-.06.29-.052.485.027.587.079.102.206.153.381.153.083 0 .182-.008.298-.024.117-.016.209-.033.277-.05l-.005.724a1.424 1.424 0 0 1-.444.159 2.69 2.69 0 0 1-.566.062c-.376 0-.665-.133-.868-.398-.202-.265-.248-.67-.137-1.214l.704-3.529h-.849l.156-.784h.849l.284-1.402h1.037zM9.305 134.465H8v-7.82h1.305v7.82zm2.799-5.811l.075.838c.19-.298.429-.53.717-.696.288-.166.613-.25.975-.25.605 0 1.077.184 1.415.55.339.368.508.94.508 1.717v3.652h-1.305v-3.641c0-.437-.09-.748-.272-.932-.18-.185-.455-.277-.824-.277a1.367 1.367 0 0 0-1.176.634v4.216h-1.306v-5.811h1.193zm6.44 5.811h-1.305v-5.811h1.305v5.811zm0-7.235h-1.305v-1.144h1.305v1.144zm2.846 6.193h3.105v1.042h-4.721v-.854l2.932-3.905h-2.872v-1.052h4.522v.827l-2.965 3.942h-.001zm5.581 1.042h-1.305v-5.811h1.305v5.811zm0-7.235h-1.305v-1.144h1.305v1.144zm1.22 4.276c0-.863.236-1.572.708-2.127.48-.555 1.13-.833 1.95-.833.834 0 1.488.278 1.96.833.477.551.715 1.26.715 2.127v.113c0 .873-.238 1.586-.715 2.137-.472.548-1.122.822-1.95.822-.83 0-1.484-.276-1.96-.827-.472-.552-.709-1.262-.709-2.132v-.113h.001zm1.304.113c0 .565.111 1.027.333 1.385.219.355.563.532 1.032.532.454 0 .795-.177 1.02-.532.23-.358.344-.82.344-1.385v-.113c0-.555-.115-1.012-.344-1.37-.225-.361-.57-.542-1.031-.542-.455 0-.795.18-1.02.542-.223.362-.334.818-.334 1.37v.113zm201.649 52.421h-3.427v3.336h-1.305v-7.82h5.28v1.047h-3.975v2.39h3.427v1.047zm2.873 3.336h-1.305v-5.812h1.305v5.812zm0-7.235h-1.305v-1.144h1.305v1.144zm2.643 1.423l.075.838c.19-.297.429-.529.717-.695.288-.167.613-.25.975-.25.605 0 1.077.183 1.415.55.338.367.508.94.508 1.717v3.652h-1.306v-3.642c0-.437-.09-.747-.27-.932-.182-.184-.456-.276-.825-.276a1.367 1.367 0 0 0-1.177.634v4.216h-1.305v-5.812h1.193zm7.54 5.925c-.823 0-1.48-.27-1.968-.809-.489-.539-.733-1.23-.733-2.076v-.214c0-.846.243-1.546.728-2.103.485-.557 1.093-.834 1.823-.83.784 0 1.385.237 1.802.712.417.474.626 1.11.626 1.909v.768h-3.626l-.01.027c.021.462.156.84.405 1.133.25.294.594.44 1.034.44a2.8 2.8 0 0 0 .903-.128c.25-.086.492-.21.725-.37l.419.853c-.219.194-.509.356-.87.489a3.66 3.66 0 0 1-1.257.199h-.001zm-.15-4.985a.98.98 0 0 0-.795.384c-.207.256-.336.581-.386.975l.01.027h2.305v-.134c0-.37-.094-.67-.282-.903-.188-.232-.472-.349-.852-.349z" fill="#2A3052" fill-rule="nonzero"/></g></svg>