<svg width="299" height="197" xmlns="http://www.w3.org/2000/svg"><g fill="none" fill-rule="evenodd"><path fill="#F1F2F2" d="M0 0h299v197H0z"/><path d="M1.987 1.98v193.04h295.026V1.98H1.987zM299 0v197H0V0h299z" fill="#C2C2C2" fill-rule="nonzero"/><path d="M2.926 53.113V51.89H296.51v1.223H2.926zm0 20.598v-1.223H296.51v1.223H2.926zm0 20.56v-1.224H296.51v1.224H2.926zm0 41.157v-1.223H296.51v1.223H2.926zm0 20.56v-1.223H296.51v1.223H2.926zm0 20.56v-1.223H296.51v1.223H2.926zM37.772 31.942h1.223v162.126h-1.223V31.942zm37.162 0h1.223v162.126h-1.223V31.942zm37.124 0h1.223v162.126h-1.223V31.942zm37.162 0h1.223v162.126h-1.223V31.942zm37.124 0h1.223v162.126h-1.223V31.942zm37.124 0h1.224v162.126h-1.224V31.942zm37.162 0h1.224v162.126h-1.224V31.942z" fill="#DFDEDE" fill-rule="nonzero"/><path fill="#C2C2C2" d="M1 30v-2h297v2z"/><path d="M188.522 146.307h-35.42L147.649 138l-5.455 8.307h-35.42c-2.652 0-4.773 2.163-4.773 4.856v25.074c0 2.693 2.16 4.855 4.773 4.855h81.787c2.652 0 4.773-2.162 4.773-4.855v-25.074c0-2.693-2.16-4.856-4.811-4.856z" fill="#E88024"/><path fill="#2A3052" d="M5.262 116.411v-1.485h288.35v1.485z"/><path d="M108.433 104.236L75.147 141.43a1.818 1.818 0 0 1-2.43.253l-33.463-24.547a1.818 1.818 0 1 1 2.15-2.932l32.134 23.572 33.52-37.454a1.818 1.818 0 0 1 2.69-.02l31.776 34.444 43.18-42.625a1.818 1.818 0 0 1 2.914.506l42.02 87.307 28.114-24.84a1.818 1.818 0 0 1 2.407 2.725l-29.915 26.43a1.818 1.818 0 0 1-2.841-.574l-41.957-87.179-42.706 42.158a1.818 1.818 0 0 1-2.613-.06l-31.694-34.357z" fill="#2A3052"/><ellipse fill="#FFF" opacity=".6" cx="40.33" cy="115.669" rx="8.067" ry="8.496"/><path d="M40.33 125.376c-5.14 0-9.28-4.36-9.28-9.707 0-5.348 4.14-9.708 9.28-9.708 5.139 0 9.279 4.36 9.279 9.708s-4.14 9.707-9.28 9.707zm0-2.423c3.771 0 6.855-3.248 6.855-7.284 0-4.037-3.084-7.284-6.855-7.284-3.772 0-6.856 3.247-6.856 7.284 0 4.036 3.084 7.284 6.856 7.284z" fill="#E88024" fill-rule="nonzero"/><ellipse fill="#FFF" opacity=".6" cx="258.956" cy="155.855" rx="8.067" ry="8.496"/><path d="M258.956 165.563c-5.14 0-9.28-4.36-9.28-9.707 0-5.348 4.14-9.708 9.28-9.708 5.139 0 9.279 4.36 9.279 9.708s-4.14 9.707-9.28 9.707zm0-2.423c3.771 0 6.855-3.248 6.855-7.284 0-4.037-3.084-7.284-6.855-7.284-3.772 0-6.856 3.247-6.856 7.284 0 4.036 3.084 7.284 6.856 7.284z" fill="#E88024" fill-rule="nonzero"/><path d="M279.062 131.84h.97l-1.16 6.38h-.941l1.131-6.38zm-2.4 5.374c.046.114.1.236.226.505-.955.727-2.053.628-2.566.327-.773-.452-.773-1.294-.77-1.944.006-.83.616-2.374 2.314-2.374 1.699 0 1.42 1.834 1.337 2.374-.173 0-1.11.017-2.81.05-.157 2.018 1.367 1.567 2.268 1.062h.001zm-.103-1.622c.099-.797-.146-1.195-.734-1.195-.883 0-1.192.935-1.29 1.195h2.024zm6.188-1.869c1.081.169 1.68 1.194 1.275 2.756-.407 1.562-1.783 2.035-2.818 1.742-1.034-.294-1.292-1.637-.925-2.801.367-1.164 1.386-1.865 2.468-1.697zm-.132.638c-.81-.192-1.34.567-1.538 1.115-.197.547-.358 2 .503 2.173.862.175 1.428-.465 1.668-1.277.24-.812.178-1.819-.633-2.011zm-15.656-.667c1.081.168 1.681 1.193 1.275 2.755-.407 1.562-1.783 2.035-2.817 1.742-1.035-.293-1.293-1.637-.926-2.8.367-1.164 1.386-1.865 2.468-1.697zm-.131.637c-.811-.192-1.342.568-1.539 1.115-.196.547-.357 2 .504 2.174.86.174 1.428-.466 1.667-1.278.24-.812.178-1.818-.632-2.01v-.001zm-20.299-.608c1.081.169 1.681 1.194 1.275 2.756-.406 1.562-1.783 2.035-2.817 1.742-1.035-.294-1.292-1.637-.925-2.801.366-1.164 1.385-1.865 2.467-1.697zm-.131.638c-.81-.192-1.341.567-1.538 1.115-.197.547-.358 2 .503 2.173.86.175 1.428-.465 1.667-1.277.24-.812.178-1.819-.632-2.011zm25.744.961h.722c.144-.62-.22-1.617-1.48-1.588-1.262.028-1.743.889-1.97 1.373-.228.485-.295 1.11-.295 1.56 0 .451.3 1.492 1.333 1.62 1.034.127 2.065-.518 2.179-1.439h-.711c-.082.26-.358.927-1.258.859-.64-.049-.819-.77-.777-1.225.042-.456.036-.779.275-1.271.28-.576.677-.862 1.148-.862.583 0 .86.325.833.973h.001zm-16.128-.012h.723c.144-.62-.22-1.616-1.48-1.588-1.262.029-1.743.89-1.97 1.374-.228.484-.295 1.11-.295 1.56 0 .45.3 1.492 1.334 1.62 1.033.127 2.064-.518 2.178-1.44h-.711c-.082.26-.358.928-1.258.86-.64-.05-.819-.77-.777-1.226.042-.455.036-.778.275-1.27.28-.576.677-.862 1.148-.862.583 0 .86.324.833.973v-.001zm-23.213-3.024h.812l-2.346 5.947h-.634l-.663-4.692-1.966 4.692h-.718l-.59-5.947h.848l.324 4.66 1.925-4.66h.778l.548 4.66 1.682-4.66zm1.879 2.687h-.755c-.06 0 .19-1.283 1.826-1.283 1.637 0 1.518 1.18 1.518 1.343 0 .162-.502 2.904-.351 3.16h-.853c-.008-.374.003-.597.033-.67-.046.104-.588.604-1.032.712-.656.159-1.52.049-1.668-.76-.15-.81.292-1.418.995-1.695.633-.249 1.46-.168 1.982-.168.246-.91-.014-1.287-.702-1.287s-.897.394-.993.648zm1.616 1.185c-.318-.01-.635-.016-.953-.018-.603.077-1.045.335-1.13.805-.124.695.492.79 1.09.593.457-.15.82-.503.877-.657.033-.088.072-.329.116-.723zm56.114-1.142h-.755c-.06 0 .19-1.283 1.826-1.283 1.637 0 1.518 1.181 1.518 1.343 0 .163-.503 2.905-.351 3.16h-.853c-.008-.373.003-.596.033-.668-.047.103-.588.602-1.032.71-.656.16-1.52.05-1.668-.76-.15-.809.292-1.417.994-1.694.634-.25 1.46-.168 1.982-.168.247-.91-.013-1.287-.701-1.287s-.897.393-.993.647zm1.616 1.186c-.318-.01-.635-.016-.953-.018-.603.077-1.045.335-1.13.805-.125.695.491.79 1.09.592.457-.15.819-.502.877-.657.033-.087.071-.328.116-.722zm-55.383-2.41h.703v.637c.42-.594.926-.82 1.516-.678l-.227.743c-.667-.114-1.126.081-1.376.586l-.476 3.124h-.8l.66-4.412zm3.484-1.086h.804l-.164 1.082h.846l-.082.59h-.837l-.423 2.742c-.033.22-.068.626.698.476.016.212.025.395.029.55-.304.206-1.726.44-1.532-1.026l.398-2.734-.688-.008.096-.59h.688l.167-1.082zm9.46 2.373h.76c.205-.507-.389-1.39-1.457-1.39-1.067 0-1.589.498-1.772 1.026-.184.527-.23 1.275 1.537 1.624.845.168.845.747.418 1.125-.49.434-1.732.237-1.637-.611h-.766c-.145.317.12 1.57 1.767 1.464 1.648-.104 2.248-1.608 1.278-2.274-.481-.331-1.554-.364-1.81-.715-.275-.374.269-1.003.75-1.003.621 0 .932.251.932.754zm-.988-1.832h.678l1.422-1.336h-1.097l-1.003 1.336zm4.495-.047h.678l1.422-1.334h-1.097l-1.003 1.334zm8.085-1.383h.798l-.936 6.414h-.622a6.556 6.556 0 0 0-.046-.56c-.247.251-.541.539-1.224.634-.683.095-1.3-.372-1.487-.913-.228-.666-.123-1.574.293-2.518.353-.8.974-1.061 1.36-1.13.283-.05 1.104-.159 1.501.563.16-.887.281-1.717.363-2.49zm-.462 3.167c-.187-.679-1.12-.791-1.592-.38-.471.411-.88 1.292-.722 2.337.159 1.046 1.55.845 2.013.066 0-.188.207-1.594.3-2.023h.001zm27.362-1.169h.812l-1.915 4.396h-.668l-.547-3.391-1.548 3.391h-.635l-.636-4.396h.85l.29 3.4 1.53-3.4h.623l.519 3.4 1.325-3.4z" fill="#6D6E71" fill-rule="nonzero"/><path d="M249.71 180.852l-1.304 1.355v3.604H247v-10.665h1.406v5.274l4.739-5.274h1.7l-4.198 4.71 4.527 5.955h-1.685l-3.779-4.959zm6.123.923c0-.776.153-1.475.458-2.095.305-.62.73-1.098 1.274-1.435.545-.337 1.166-.506 1.864-.506 1.08 0 1.952.374 2.619 1.12.666.748 1 1.742 1 2.982v.095c0 .772-.148 1.464-.444 2.076a3.365 3.365 0 0 1-1.267 1.432c-.55.342-1.18.513-1.893.513-1.074 0-1.945-.374-2.611-1.12-.667-.748-1-1.736-1-2.967v-.095zm1.362.161c0 .879.204 1.585.612 2.117.408.532.953.798 1.637.798.688 0 1.235-.27 1.64-.81.406-.539.608-1.294.608-2.266 0-.87-.206-1.574-.619-2.113-.412-.54-.96-.81-1.644-.81-.669 0-1.208.267-1.618.799-.41.532-.616 1.294-.616 2.285zm8.833-4.05l.044.996c.606-.762 1.397-1.143 2.373-1.143 1.675 0 2.52.945 2.534 2.835v5.237h-1.354v-5.245c-.005-.57-.136-.993-.392-1.267-.257-.273-.656-.41-1.198-.41-.44 0-.825.117-1.157.352-.332.234-.59.542-.776.923v5.647h-1.355v-7.925h1.281zm8.467 7.925h-1.355v-7.925h1.355v7.925zm-1.465-10.027c0-.22.067-.406.202-.557.134-.151.333-.227.597-.227.263 0 .463.076.6.227a.8.8 0 0 1 .205.557.77.77 0 0 1-.205.549c-.137.146-.337.22-.6.22-.264 0-.463-.074-.597-.22a.782.782 0 0 1-.202-.55zm6.922 10.173c-1.075 0-1.949-.353-2.622-1.058-.674-.706-1.011-1.65-1.011-2.831v-.25c0-.785.15-1.487.45-2.105.3-.618.72-1.1 1.26-1.45a3.167 3.167 0 0 1 1.754-.524c1.03 0 1.831.34 2.403 1.018.57.679.856 1.65.856 2.915v.564h-5.368c.02.782.248 1.413.685 1.894.437.48.992.721 1.666.721.478 0 .884-.098 1.216-.293a3.05 3.05 0 0 0 .871-.776l.828.644c-.664 1.02-1.66 1.531-2.988 1.531zm-.169-7.104a1.81 1.81 0 0 0-1.377.596c-.37.398-.6.956-.688 1.674h3.97v-.102c-.04-.689-.225-1.222-.557-1.6-.332-.38-.781-.568-1.348-.568zm8.006 5.998c.483 0 .905-.146 1.267-.44.361-.292.561-.659.6-1.098h1.282c-.024.454-.18.886-.469 1.296-.288.41-.672.738-1.153.982s-.99.366-1.527.366c-1.08 0-1.938-.36-2.575-1.08-.637-.72-.956-1.706-.956-2.956v-.227c0-.771.142-1.457.425-2.058.283-.6.69-1.067 1.22-1.399.53-.332 1.156-.498 1.878-.498.889 0 1.627.266 2.216.799.588.532.902 1.223.941 2.072h-1.282c-.039-.512-.233-.933-.582-1.263-.35-.33-.78-.494-1.293-.494-.688 0-1.222.247-1.6.743-.379.496-.568 1.212-.568 2.15v.256c0 .913.188 1.616.564 2.11.376.492.913.74 1.612.74zM23.794 139.057c-1.206-.347-2.084-.773-2.633-1.278a2.442 2.442 0 0 1-.824-1.871c0-.84.336-1.535 1.007-2.084.671-.55 1.544-.824 2.618-.824.733 0 1.386.142 1.96.425a3.221 3.221 0 0 1 1.333 1.172c.315.498.472 1.042.472 1.633h-1.414c0-.645-.205-1.151-.615-1.52-.41-.368-.989-.553-1.736-.553-.693 0-1.234.153-1.622.458-.388.305-.582.729-.582 1.27 0 .435.184.803.553 1.103.368.3.996.575 1.882.824.886.249 1.58.524 2.08.824.5.3.872.65 1.113 1.051.242.4.363.872.363 1.414 0 .864-.337 1.556-1.01 2.076-.675.52-1.575.78-2.703.78-.733 0-1.416-.14-2.051-.421-.635-.28-1.124-.665-1.469-1.154A2.815 2.815 0 0 1 20 140.72h1.414c0 .644.238 1.153.714 1.527.476.373 1.112.56 1.908.56.742 0 1.31-.151 1.706-.454.396-.303.593-.715.593-1.238 0-.522-.183-.926-.549-1.212-.366-.286-1.03-.568-1.992-.846zm7.383-5.09v1.919h1.48v1.047h-1.48v4.915c0 .317.066.555.198.714.131.158.356.238.673.238.157 0 .371-.03.645-.088v1.099a3.928 3.928 0 0 1-1.04.146c-.606 0-1.062-.183-1.37-.55-.307-.365-.461-.886-.461-1.56v-4.914h-1.443v-1.047h1.443v-1.92h1.355zm7.954 9.844c-.078-.157-.142-.435-.19-.835-.63.654-1.382.981-2.256.981-.782 0-1.423-.22-1.923-.663-.5-.442-.75-1.002-.75-1.68 0-.826.313-1.467.94-1.923.628-.457 1.51-.685 2.648-.685h1.318v-.623c0-.473-.141-.85-.424-1.131-.284-.281-.701-.421-1.253-.421-.483 0-.888.122-1.216.366-.327.244-.49.54-.49.886h-1.363c0-.396.14-.778.422-1.146.28-.369.661-.66 1.142-.875a3.844 3.844 0 0 1 1.586-.323c.913 0 1.628.229 2.146.685.517.457.786 1.085.805 1.886v3.648c0 .727.093 1.306.279 1.735v.118H39.13zm-2.249-1.033c.425 0 .828-.11 1.209-.33.38-.22.657-.505.827-.857v-1.626h-1.062c-1.66 0-2.49.486-2.49 1.458 0 .425.142.757.425.996.283.24.647.359 1.091.359zm9.346-5.676a4.06 4.06 0 0 0-.666-.052c-.89 0-1.492.379-1.81 1.136v5.625h-1.355v-7.925h1.319l.022.915c.444-.708 1.074-1.062 1.89-1.062.263 0 .463.034.6.103v1.26zm3.084-3.135v1.919h1.479v1.047h-1.48v4.915c0 .317.066.555.198.714.132.158.357.238.674.238.156 0 .371-.03.645-.088v1.099a3.928 3.928 0 0 1-1.04.146c-.606 0-1.062-.183-1.37-.55-.308-.365-.461-.886-.461-1.56v-4.914h-1.443v-1.047h1.443v-1.92h1.355z" fill="#2A3052" fill-rule="nonzero"/><path d="M124.078 166.188l1.75-8.563h1.961L125.164 169h-1.89l-2.165-8.305L118.9 169H117l-2.625-11.375h1.96l1.767 8.547 2.171-8.547h1.657l2.148 8.563zm7.93.093l1.719-5.734h2.023l-3.36 9.734c-.515 1.422-1.39 2.133-2.624 2.133a3.4 3.4 0 0 1-.914-.14v-1.47l.359.024c.48 0 .84-.087 1.082-.262.242-.174.434-.467.574-.879l.274-.726-2.97-8.414h2.048l1.789 5.734zm4.5-1.57c0-1.313.308-2.36.926-3.145.617-.783 1.436-1.175 2.457-1.175.963 0 1.721.336 2.273 1.007l.086-.851h1.71v8.195c0 1.11-.344 1.985-1.034 2.625-.69.64-1.621.961-2.793.961-.62 0-1.225-.129-1.817-.387-.59-.257-1.04-.595-1.347-1.011l.898-1.14c.584.692 1.302 1.038 2.156 1.038.63 0 1.128-.17 1.493-.512.364-.34.547-.842.547-1.504v-.57c-.547.61-1.277.914-2.188.914-.99 0-1.798-.393-2.426-1.18-.627-.786-.941-1.874-.941-3.265zm1.89.164c0 .849.174 1.517.52 2.004.346.487.827.73 1.441.73.766 0 1.334-.328 1.703-.984v-3.719c-.359-.64-.921-.96-1.687-.96-.625 0-1.11.247-1.457.742-.346.494-.52 1.223-.52 2.187zm11.938-2.594a4.698 4.698 0 0 0-.774-.062c-.87 0-1.455.333-1.757 1V169h-1.899v-8.453h1.813l.047.945c.458-.734 1.093-1.101 1.906-1.101.27 0 .495.036.672.109l-.008 1.781zm6.25 6.719c-.083-.161-.156-.424-.219-.79a2.955 2.955 0 0 1-2.219.946c-.849 0-1.541-.242-2.078-.726-.536-.485-.804-1.084-.804-1.797 0-.901.334-1.593 1.004-2.074.669-.482 1.626-.723 2.87-.723h1.165v-.555c0-.437-.123-.788-.368-1.05-.244-.264-.617-.395-1.117-.395-.432 0-.786.108-1.062.324a1.003 1.003 0 0 0-.414.824h-1.899c0-.463.154-.897.461-1.3.308-.404.726-.72 1.254-.95a4.404 4.404 0 0 1 1.77-.343c.99 0 1.778.248 2.367.746.588.497.89 1.196.906 2.097v3.813c0 .76.107 1.367.32 1.82V169h-1.937zm-2.086-1.367a2.16 2.16 0 0 0 1.059-.274c.33-.182.579-.427.746-.734v-1.594h-1.024c-.703 0-1.232.123-1.586.367-.354.245-.53.592-.53 1.04 0 .364.12.654.362.87.243.217.567.325.973.325zm7.453-7.086l.055.976c.625-.755 1.445-1.132 2.46-1.132 1.761 0 2.657 1.007 2.688 3.023V169h-1.898v-5.477c0-.536-.116-.933-.348-1.191-.232-.258-.61-.387-1.137-.387-.765 0-1.335.347-1.71 1.04V169h-1.899v-8.453h1.79zM174.141 169c-.084-.161-.157-.424-.22-.79a2.955 2.955 0 0 1-2.218.946c-.849 0-1.542-.242-2.078-.726-.536-.485-.805-1.084-.805-1.797 0-.901.335-1.593 1.004-2.074.67-.482 1.627-.723 2.871-.723h1.164v-.555c0-.437-.122-.788-.367-1.05-.245-.264-.617-.395-1.117-.395-.432 0-.786.108-1.063.324a1.003 1.003 0 0 0-.414.824H169c0-.463.154-.897.46-1.3.308-.404.726-.72 1.255-.95a4.404 4.404 0 0 1 1.77-.343c.989 0 1.778.248 2.367.746.588.497.89 1.196.906 2.097v3.813c0 .76.107 1.367.32 1.82V169h-1.937zm-2.086-1.367a2.16 2.16 0 0 0 1.058-.274 1.82 1.82 0 0 0 .746-.734v-1.594h-1.023c-.703 0-1.232.123-1.586.367-.354.245-.531.592-.531 1.04 0 .364.12.654.363.87.242.217.566.325.973.325zm7.703-1.985h-1.633l-.18-8.023h2l-.187 8.023zm-1.867 2.454c0-.297.096-.543.289-.739.192-.195.455-.293.789-.293.333 0 .596.098.789.293.193.196.289.442.289.739a.99.99 0 0 1-.281.718c-.188.193-.453.29-.797.29-.344 0-.61-.097-.797-.29a.99.99 0 0 1-.281-.718z" fill="#FFF" fill-rule="nonzero"/><path d="M15.952 21V10.336h3.281c.938 0 1.777.211 2.516.633a4.418 4.418 0 0 1 1.732 1.802c.415.78.623 1.664.623 2.655v.491c0 .991-.204 1.873-.612 2.644a4.38 4.38 0 0 1-1.724 1.794c-.743.425-1.58.64-2.513.645h-3.303zm2.197-8.884v7.119h1.062c.86 0 1.517-.28 1.97-.842.455-.562.687-1.365.696-2.41v-.564c0-1.084-.224-1.906-.673-2.465-.45-.559-1.106-.838-1.97-.838h-1.085zm7.083 4.848c0-.786.151-1.486.454-2.102a3.324 3.324 0 0 1 1.307-1.428c.57-.337 1.23-.505 1.982-.505 1.069 0 1.942.327 2.618.981.676.654 1.053 1.543 1.132 2.666l.014.542c0 1.216-.34 2.191-1.018 2.926-.679.735-1.59 1.102-2.732 1.102-1.142 0-2.054-.366-2.735-1.098-.681-.733-1.022-1.729-1.022-2.988v-.096zm2.117.154c0 .752.141 1.327.424 1.725.284.398.689.597 1.216.597.513 0 .913-.197 1.201-.59.289-.393.433-1.021.433-1.886 0-.737-.144-1.308-.433-1.714-.288-.405-.693-.607-1.215-.607-.518 0-.918.201-1.202.604-.283.403-.424 1.026-.424 1.871zm2.043-7.368H31.7l-2.029 2.27h-1.72l1.442-2.27zm7.141 4.585l1.04-.344v1.216l-1.04.344V21h-2.116v-4.746l-.967.322V15.36l.967-.322V9.75h2.116v4.585z" fill="#000" fill-rule="nonzero"/></g></svg>