<svg width="299" height="197" xmlns="http://www.w3.org/2000/svg"><g fill="none" fill-rule="evenodd"><path fill="#F1F2F2" d="M0 0h299v197H0z"/><path d="M1.987 1.98v193.04h295.026V1.98H1.987zM299 0v197H0V0h299z" fill="#C2C2C2" fill-rule="nonzero"/><path d="M4.887 56.446v-1.207h289.656v1.207H4.887zm0 40.534v-1.207h289.656v1.207H4.887zm0 40.534v-1.207h289.656v1.207H4.887zm0 40.496v-1.207h289.656v1.207H4.887zm34.38-142.416h1.206v159.67h-1.206V35.594zm36.664 0h1.207v159.67h-1.207V35.594zm36.628 0h1.207v159.67h-1.207V35.594zm36.665 0h1.207v159.67h-1.207V35.594zm36.627 0h1.207v159.67h-1.207V35.594zm36.628 0h1.207v159.67h-1.207V35.594zM4.887 117.228v-1.207h289.656v1.207H4.887z" fill="#DFDEDE" fill-rule="nonzero"/><path d="M259.144 35.594h1.207v159.67h-1.207V35.594zM4.887 76.731v-1.206h289.656v1.206H4.887zm0 81.03v-1.206h289.656v1.207H4.887z" fill="#2A3052" fill-rule="nonzero"/><path fill="#C2C2C2" fill-rule="nonzero" d="M2.794 35.606V33.19h293.842v2.415z"/><path d="M40.778 118.19a1.81 1.81 0 0 1-1.816-3.132l36.665-21.257a1.81 1.81 0 0 1 2.068.176l32.442 27.072 38.676-26.172a1.81 1.81 0 0 1 2.202.133l35.361 30.729 72.1-71.185a1.81 1.81 0 0 1 2.543 2.577l-73.292 72.363a1.81 1.81 0 0 1-2.46.078L149.69 98.655l-38.652 26.156a1.81 1.81 0 0 1-2.175-.11L76.347 97.57l-35.569 20.622z" fill="#2A3052" fill-rule="nonzero"/><path d="M187.987 147.445h-34.945l-5.382-8.181-5.382 8.181h-34.946a4.733 4.733 0 0 0-4.71 4.782v24.694a4.753 4.753 0 0 0 4.71 4.782h80.692a4.733 4.733 0 0 0 4.71-4.782v-24.694a4.758 4.758 0 0 0-4.747-4.782z" fill="#E88024"/><ellipse cx="8.335" cy="9.228" rx="8.11" ry="8.443" opacity=".6" transform="translate(251.412 45.83)" fill="#FFF"/><path d="M259.747 64.708c-5.157 0-9.317-4.331-9.317-9.65 0-5.32 4.16-9.65 9.317-9.65s9.318 4.33 9.318 9.65c0 5.319-4.16 9.65-9.318 9.65zm0-2.414c3.802 0 6.903-3.23 6.903-7.236 0-4.007-3.101-7.236-6.903-7.236-3.801 0-6.903 3.229-6.903 7.236s3.102 7.236 6.903 7.236z" fill="#E88024" fill-rule="nonzero"/><ellipse cx="8.97" cy="9.021" rx="8.11" ry="8.443" opacity=".6" transform="translate(30.9 107.604)" fill="#FFF"/><path d="M39.87 126.275c-5.157 0-9.317-4.332-9.317-9.65 0-5.32 4.16-9.65 9.317-9.65s9.317 4.33 9.317 9.65c0 5.318-4.16 9.65-9.317 9.65zm0-2.414c3.802 0 6.903-3.23 6.903-7.236 0-4.007-3.101-7.236-6.903-7.236-3.802 0-6.903 3.229-6.903 7.236 0 4.006 3.101 7.236 6.903 7.236z" fill="#E88024" fill-rule="nonzero"/><g fill="#000"><path d="M24.291 12.883h-3.155v9.336h-2.213v-9.336h-3.11v-1.706h8.48v1.706h-.002zm3.929 9.495c-1.224 0-2.18-.375-2.867-1.126-.688-.75-1.031-1.718-1.031-2.9v-.304c0-1.229.333-2.235 1-3.018.668-.784 1.586-1.173 2.754-1.168 1.102 0 1.947.337 2.536 1.012.59.675.884 1.584.884 2.727v1.145h-4.893l-.022.045c.035.561.206 1.016.511 1.365.306.35.76.524 1.362.524.495 0 .916-.051 1.262-.152a5.152 5.152 0 0 0 1.073-.463l.6 1.365c-.329.268-.774.493-1.335.675a5.92 5.92 0 0 1-1.835.273h.001zm-.144-6.81c-.445 0-.788.153-1.028.459-.24.306-.386.712-.436 1.217l.015.038h2.7v-.167c0-.48-.099-.858-.296-1.134-.197-.275-.516-.413-.955-.413zm9.024.349l-.811-.023c-.329 0-.6.068-.812.205-.215.14-.384.34-.485.576v5.544h-2.207v-8.206h2.055l.099 1.214c.192-.43.44-.765.747-1.005.306-.24.658-.36 1.058-.36.11 0 .213.009.307.026.093.018.188.04.284.065l-.235 1.964zm3.208-1.904l.091 1.085c.263-.394.593-.7.99-.914.397-.215.855-.322 1.376-.322.526 0 .976.116 1.35.349.374.232.657.584.85 1.054.252-.44.58-.784.985-1.032.405-.247.88-.371 1.426-.371.809 0 1.447.287 1.915.86.468.574.701 1.45.701 2.628v4.869h-2.214v-4.876c0-.658-.101-1.115-.303-1.373-.203-.258-.503-.387-.903-.387-.313 0-.585.07-.815.209a1.52 1.52 0 0 0-.55.58c0 .096.003.178.008.246.005.069.007.138.007.209v5.392h-2.207v-4.876c0-.642-.1-1.096-.303-1.362-.202-.265-.505-.398-.91-.398-.298 0-.56.057-.785.17-.225.115-.41.275-.557.482v5.984h-2.207v-8.206h2.055zm13.711 8.206h-2.214v-8.206h2.214v8.206zm0-10.17h-2.214v-1.66h2.214v1.66zm3.845 1.964l.099 1.176c.273-.42.61-.746 1.009-.978.399-.233.846-.35 1.342-.35.829 0 1.476.267 1.941.8.465.534.698 1.377.698 2.53v5.028h-2.222v-5.02c0-.587-.102-1.003-.307-1.248-.205-.245-.512-.368-.922-.368-.328 0-.618.062-.868.186s-.456.295-.618.512v5.938h-2.214v-8.206h2.062zm11.58 8.206a4.658 4.658 0 0 1-.208-.592 4.1 4.1 0 0 1-.125-.637c-.228.4-.528.731-.902.994-.375.263-.82.394-1.335.394-.86 0-1.522-.22-1.987-.663-.465-.443-.698-1.046-.698-1.809 0-.804.31-1.427.93-1.87.618-.442 1.522-.663 2.71-.663h1.244v-.652c0-.395-.104-.7-.31-.918-.208-.217-.517-.326-.926-.326-.359 0-.636.087-.83.262-.195.174-.292.413-.292.716h-2.132l-.016-.045c-.035-.693.267-1.29.907-1.794.64-.503 1.475-.754 2.506-.754.986 0 1.783.247 2.393.743.609.495.914 1.206.914 2.131v3.39c0 .384.029.746.087 1.084.058.34.15.675.277 1.009h-2.207zM67.42 20.74c.384 0 .728-.096 1.031-.288.304-.192.51-.415.622-.667v-1.16h-1.244c-.47 0-.825.116-1.065.348-.24.233-.36.518-.36.857 0 .278.09.5.269.664.18.164.428.246.747.246zm22.839.266a2.79 2.79 0 0 1-.963 1.016c-.39.237-.842.356-1.358.356-.864 0-1.54-.293-2.028-.88-.488-.586-.732-1.496-.732-2.73v-4.755h2.207v4.77c0 .719.097 1.21.292 1.476.194.265.496.398.906.398.354 0 .657-.057.91-.17a1.55 1.55 0 0 0 .622-.505v-5.969h2.214v8.206h-1.835l-.235-1.213zm3.397-2.966c0-1.223.342-2.225 1.024-3.007.683-.78 1.628-1.171 2.836-1.171 1.214 0 2.164.389 2.852 1.168.687.778 1.031 1.782 1.031 3.01v.16c0 1.233-.342 2.238-1.027 3.014-.685.776-1.632 1.164-2.84 1.164-1.214 0-2.163-.388-2.848-1.164-.685-.776-1.028-1.78-1.028-3.014v-.16zm2.207.16c0 .748.132 1.348.395 1.8.262.453.687.68 1.274.68.57 0 .99-.228 1.255-.683.265-.455.398-1.054.398-1.797v-.16c0-.728-.134-1.322-.402-1.782-.268-.46-.69-.69-1.267-.69-.57 0-.99.231-1.255.694-.265.463-.398 1.055-.398 1.778v.16zm11.216-2.283l-.811-.023c-.329 0-.6.068-.811.205-.215.14-.385.34-.486.576v5.544h-2.207v-8.206h2.056l.098 1.214c.192-.43.441-.765.747-1.005.306-.24.659-.36 1.058-.36.111 0 .214.009.307.026.094.018.189.04.285.065l-.236 1.964zm3.481 6.302h-2.214v-8.206h2.214v8.206zm0-10.17h-2.214v-1.66h2.214v1.66z" fill-rule="nonzero"/><path d="M83.401 17.54h-4.306v4.66h-2.25V10.985h7.341v1.733h-5.091v3.089h4.306z"/></g><path d="M25.053 60.042h-3.02l-1.226 8.183h-1.24l1.227-8.183h-2.981l.144-.975h7.24l-.145.975h.001zm3.377 8.183c-.007-.19-.011-.38-.012-.57 0-.144.008-.292.025-.443-.291.331-.64.607-1.029.815a2.57 2.57 0 0 1-1.242.33c-.684 0-1.19-.184-1.519-.55-.33-.367-.446-.865-.35-1.494a2.08 2.08 0 0 1 1.007-1.541c.575-.357 1.32-.535 2.233-.535h1.346l.1-.673c.064-.415-.009-.735-.216-.96-.208-.224-.536-.336-.984-.336-.382 0-.718.1-1.007.302-.29.201-.453.442-.49.723l-1.183.013-.006-.038c.05-.515.35-.974.9-1.374.549-.4 1.215-.6 2-.6.742 0 1.324.197 1.748.594.424.396.583.959.478 1.688l-.49 3.278c-.04.236-.065.474-.073.713-.006.22.007.44.041.658H28.43zm-1.918-.906a2.44 2.44 0 0 0 1.245-.352c.403-.235.681-.5.837-.793l.17-1.1h-1.39c-.483 0-.898.127-1.246.383s-.545.55-.591.88c-.05.315.005.557.166.727.162.17.431.255.809.255zm8.894-4.806l-.63-.037c-.322 0-.607.08-.855.242-.26.175-.476.409-.629.682l-.723 4.825h-1.24l1.02-6.806h1.107l-.025.962a2.86 2.86 0 0 1 .83-.802 1.92 1.92 0 0 1 1.286-.264c.086.015.154.03.205.047l-.346 1.151zm.585 2.435c.167-1.137.532-2.03 1.094-2.68.562-.65 1.266-.975 2.113-.975.424 0 .787.09 1.089.27.302.181.54.441.717.78l.29-.924h.987l-1.026 6.844c-.138.905-.491 1.584-1.06 2.034-.568.451-1.336.676-2.305.676-.314 0-.658-.046-1.031-.138a3.73 3.73 0 0 1-.956-.365l.333-.962c.222.126.496.227.82.305.32.077.65.116.979.116.579 0 1.032-.14 1.362-.418.329-.279.535-.695.62-1.248l.112-.774c-.25.276-.556.496-.896.648a2.71 2.71 0 0 1-1.104.22c-.797 0-1.392-.304-1.786-.912-.394-.608-.518-1.397-.371-2.365l.019-.132zm1.22.132c-.11.708-.054 1.264.167 1.667.22.402.625.603 1.217.603.36 0 .681-.087.962-.26.296-.19.55-.439.742-.733l.472-3.114a1.616 1.616 0 0 0-.525-.689c-.229-.17-.523-.254-.884-.254-.566 0-1.035.25-1.406.748-.37.5-.613 1.132-.726 1.9l-.02.132h.001zm8.63 3.277c-.94 0-1.645-.317-2.117-.95s-.632-1.45-.481-2.453l.044-.277c.147-1.015.546-1.832 1.198-2.453.652-.62 1.391-.93 2.217-.93.877 0 1.508.286 1.894.861.385.574.51 1.323.37 2.245l-.094.655h-4.403c-.096.72-.025 1.29.214 1.707.24.418.673.626 1.302.626.403 0 .777-.06 1.123-.182s.645-.285.896-.49l.365.804a3.58 3.58 0 0 1-1.05.595c-.424.161-.916.242-1.478.242zm.717-6.089c-.415 0-.792.168-1.13.503-.337.336-.579.76-.726 1.271l.013.038h3.063l.013-.1c.075-.508.016-.92-.177-1.237-.192-.317-.545-.475-1.056-.475zm6.214-2.49l-.245 1.641h1.29l-.139.918h-1.29l-.616 4.133c-.05.331-.02.559.091.682.111.124.278.186.5.186.16-.007.32-.036.472-.088l.044.849c-.105.075-.25.137-.437.186a2.17 2.17 0 0 1-.544.072c-.487 0-.86-.153-1.123-.46-.262-.305-.343-.781-.242-1.427l.616-4.133h-1.081l.138-.918h1.082l.245-1.642h1.24l-.001.001zm8.737 8.447c-.008-.19-.012-.38-.013-.57 0-.144.009-.292.026-.443-.291.331-.64.607-1.029.815a2.57 2.57 0 0 1-1.242.33c-.684 0-1.19-.184-1.52-.55-.328-.367-.445-.865-.348-1.494a2.08 2.08 0 0 1 1.006-1.541c.575-.357 1.319-.535 2.233-.535h1.346l.1-.673c.064-.415-.009-.735-.216-.96-.208-.224-.536-.336-.985-.336-.381 0-.717.1-1.006.302-.29.201-.453.442-.49.723l-1.183.013-.006-.038c.05-.515.35-.974.899-1.374.55-.4 1.216-.6 2-.6.742 0 1.325.197 1.749.594.423.396.583.959.478 1.688l-.49 3.278c-.04.236-.065.474-.073.713-.006.22.007.44.04.658h-1.276zm-1.918-.906a2.44 2.44 0 0 0 1.245-.352c.402-.235.681-.5.836-.793l.17-1.1h-1.39c-.482 0-.897.127-1.245.383-.348.256-.545.55-.591.88-.05.315.005.557.166.727.162.17.431.255.809.255zm6.157.906h-1.239l1.472-9.813h1.24l-1.473 9.813zm4.894-8.448l-.245 1.642h1.29l-.14.918h-1.289l-.616 4.133c-.05.331-.02.559.091.682.111.124.278.186.5.186.16-.007.32-.036.472-.088l.044.849c-.105.075-.25.137-.437.186a2.17 2.17 0 0 1-.544.072c-.487 0-.861-.153-1.123-.46-.262-.305-.343-.781-.242-1.427l.616-4.133h-1.082l.139-.918h1.082l.245-1.642h1.239zm1.585 4.982c.155-1.044.55-1.883 1.186-2.516.635-.633 1.424-.95 2.368-.95.906 0 1.592.328 2.06.985.467.656.628 1.483.481 2.481l-.025.138c-.16 1.053-.556 1.893-1.189 2.52-.633.626-1.424.94-2.371.94-.906 0-1.593-.327-2.06-.981-.468-.655-.626-1.48-.475-2.479l.025-.138zm1.214.138c-.113.747-.052 1.349.182 1.806.235.457.655.685 1.258.685.566 0 1.043-.238 1.431-.714.388-.476.637-1.068.746-1.777l.025-.138c.109-.738.045-1.338-.192-1.799-.237-.461-.655-.692-1.255-.692-.57 0-1.05.24-1.437.72-.388.48-.632 1.07-.733 1.771l-.025.138zm-51.318 99.08h-2.97l-1.207 8.052h-1.22l1.208-8.052H15l.143-.96h7.123l-.142.96h-.001zm3.324 8.052a16.4 16.4 0 0 1-.012-.56c0-.142.008-.288.025-.436a3.62 3.62 0 0 1-1.012.801 2.53 2.53 0 0 1-1.223.325c-.672 0-1.17-.18-1.494-.541-.324-.361-.439-.851-.344-1.47a2.05 2.05 0 0 1 .99-1.517c.566-.35 1.298-.526 2.198-.526h1.324l.1-.662c.061-.408-.01-.723-.214-.944-.205-.22-.527-.33-.969-.33a1.69 1.69 0 0 0-.99.296c-.285.198-.446.436-.483.712l-1.163.012-.007-.037c.05-.507.345-.958.885-1.352.54-.394 1.197-.591 1.968-.591.73 0 1.304.195 1.721.585.417.39.574.944.47 1.661l-.482 3.225a5.17 5.17 0 0 0-.071.702 3.5 3.5 0 0 0 .04.647h-1.257zm-1.887-.891c.42 0 .829-.116 1.225-.347.396-.23.67-.49.823-.78l.167-1.083h-1.367c-.475 0-.883.126-1.226.378-.342.252-.536.54-.582.866-.05.31.006.548.164.715.16.167.424.251.796.251zm8.751-4.728l-.619-.038c-.318 0-.598.08-.842.239a1.96 1.96 0 0 0-.618.671l-.712 4.747H28.3l1.003-6.696h1.09l-.025.947a2.8 2.8 0 0 1 .817-.79 1.889 1.889 0 0 1 1.265-.26c.085.015.152.03.201.047l-.34 1.133zm.576 2.395c.165-1.118.524-1.997 1.077-2.637.552-.64 1.246-.96 2.08-.96.416 0 .773.09 1.07.267.297.177.532.433.705.767l.285-.91h.972l-1.01 6.734c-.135.892-.483 1.559-1.042 2.003-.559.443-1.315.665-2.268.665-.31 0-.648-.046-1.015-.136a3.67 3.67 0 0 1-.941-.36l.328-.946c.219.124.488.224.808.3.32.076.64.114.962.114.57 0 1.016-.137 1.34-.411.324-.274.527-.684.61-1.229l.111-.76a2.67 2.67 0 0 1-.882.637c-.328.144-.69.216-1.086.216-.784 0-1.37-.299-1.758-.897-.388-.599-.51-1.374-.365-2.327l.019-.13zm1.2.13c-.107.697-.052 1.244.164 1.64.217.396.616.594 1.198.594.355 0 .67-.086.947-.257a2.45 2.45 0 0 0 .73-.72l.464-3.065a1.59 1.59 0 0 0-.516-.677c-.225-.167-.515-.25-.87-.25-.557 0-1.018.245-1.383.736-.365.49-.604 1.114-.715 1.869l-.019.13zm8.492 3.224c-.924 0-1.619-.311-2.083-.934-.464-.623-.622-1.428-.473-2.414l.043-.272c.144-.999.537-1.804 1.179-2.414.642-.61 1.369-.916 2.182-.916.862 0 1.483.282 1.863.848.38.565.5 1.302.365 2.21l-.093.643H41.23c-.095.71-.025 1.27.21 1.68.235.41.662.616 1.281.616.396 0 .764-.06 1.105-.18a2.9 2.9 0 0 0 .882-.482l.359.792a3.54 3.54 0 0 1-1.034.585c-.417.159-.901.238-1.454.238zm.705-5.99c-.408 0-.778.164-1.11.494a2.82 2.82 0 0 0-.715 1.25l.012.038h3.014l.012-.1c.075-.499.017-.904-.173-1.216-.19-.311-.536-.467-1.04-.467v.001zm6.115-2.452l-.241 1.616h1.269l-.137.903h-1.267l-.607 4.066c-.05.326-.02.55.09.672s.273.183.492.183a1.66 1.66 0 0 0 .464-.087l.043.835a1.294 1.294 0 0 1-.43.183c-.175.046-.354.07-.535.071-.479 0-.847-.15-1.105-.452-.258-.3-.337-.77-.238-1.405l.606-4.066h-1.064l.136-.903h1.065l.24-1.616h1.22-.001zm10.664 5.218c-.153 1.002-.501 1.79-1.046 2.364-.545.573-1.228.86-2.049.86-.433 0-.8-.09-1.101-.272a1.832 1.832 0 0 1-.706-.799l-.346.941h-.935l1.448-9.655h1.22l-.564 3.75c.26-.296.557-.523.892-.68a2.62 2.62 0 0 1 1.12-.235c.792 0 1.377.333 1.754 1 .378.666.488 1.531.332 2.596l-.02.13h.001zm-1.2-.13c.119-.797.074-1.43-.137-1.9-.21-.47-.606-.706-1.188-.706-.363 0-.69.094-.981.282-.291.187-.538.44-.74.758l-.433 2.884c.107.33.274.587.501.77.227.184.535.276.922.276.553 0 1.006-.207 1.359-.622.353-.415.579-.952.678-1.612l.018-.13h.001zm6.337 3.224a16.4 16.4 0 0 1-.012-.56c0-.142.008-.288.024-.436a3.62 3.62 0 0 1-1.012.801 2.53 2.53 0 0 1-1.222.325c-.673 0-1.17-.18-1.495-.541-.324-.361-.438-.851-.343-1.47a2.05 2.05 0 0 1 .99-1.517c.565-.35 1.298-.526 2.197-.526h1.325l.099-.662c.062-.408-.01-.723-.214-.944-.204-.22-.527-.33-.968-.33a1.69 1.69 0 0 0-.99.296c-.285.198-.446.436-.483.712l-1.164.012-.006-.037c.05-.507.344-.958.885-1.352.54-.394 1.196-.591 1.968-.591.73 0 1.304.195 1.72.585.417.39.574.944.471 1.661l-.483 3.225a5.296 5.296 0 0 0-.07.702c-.007.217.006.433.04.647H65.2zm-1.888-.891c.421 0 .83-.116 1.226-.347.396-.23.67-.49.823-.78l.167-1.083H64.16c-.474 0-.883.126-1.225.378-.343.252-.537.54-.582.866-.05.31.005.548.164.715.159.167.424.251.795.251zm8.919-.91c.037-.276-.033-.497-.21-.662-.178-.165-.545-.312-1.102-.44-.768-.169-1.342-.406-1.724-.711-.382-.306-.535-.714-.461-1.226.078-.569.374-1.041.888-1.417.514-.375 1.144-.563 1.89-.563.727 0 1.305.208 1.734.625.429.417.596.895.501 1.436l-.012.037h-1.17a.92.92 0 0 0-.266-.792c-.219-.231-.524-.347-.916-.347-.413 0-.744.098-.994.294-.25.196-.393.426-.43.69-.037.273.025.479.186.62.16.14.524.27 1.09.389.796.173 1.384.419 1.763.737.38.317.534.732.464 1.244-.086.614-.394 1.104-.922 1.47-.528.365-1.184.547-1.968.547-.817 0-1.45-.218-1.897-.656-.448-.437-.62-.94-.517-1.51l.013-.037h1.17c-.038.433.08.75.352.95.272.2.61.3 1.015.3.417 0 .764-.093 1.04-.278.276-.186.437-.42.483-.7zm6.628 0c.037-.276-.033-.497-.21-.662-.178-.165-.545-.312-1.102-.44-.767-.169-1.342-.406-1.724-.711-.381-.306-.535-.714-.46-1.226.078-.569.374-1.041.888-1.417.513-.375 1.143-.563 1.89-.563.726 0 1.304.208 1.733.625.43.417.596.895.502 1.436l-.013.037h-1.17a.92.92 0 0 0-.266-.792c-.218-.231-.524-.347-.916-.347-.412 0-.743.098-.993.294-.25.196-.393.426-.43.69-.037.273.025.479.185.62.161.14.525.27 1.09.389.796.173 1.384.419 1.764.737.38.317.534.732.464 1.244-.087.614-.394 1.104-.922 1.47-.528.365-1.184.547-1.968.547-.817 0-1.45-.218-1.897-.656-.448-.437-.62-.94-.517-1.51l.012-.037h1.17c-.037.433.08.75.353.95.272.2.61.3 1.015.3.416 0 .763-.093 1.04-.278.276-.186.437-.42.482-.7zm2.68-1.609c.153-1.027.542-1.853 1.167-2.476s1.402-.934 2.33-.934c.891 0 1.567.323 2.027.968.46.646.618 1.46.473 2.442l-.024.136c-.157 1.036-.547 1.862-1.17 2.479-.623.617-1.401.925-2.333.925-.892 0-1.567-.322-2.027-.965-.46-.644-.616-1.457-.468-2.439l.025-.136zm1.195.136c-.112.735-.052 1.327.18 1.776.23.45.643.675 1.237.675.557 0 1.026-.234 1.408-.702.382-.469.626-1.052.733-1.749l.025-.136c.107-.726.044-1.316-.189-1.77-.233-.454-.644-.68-1.234-.68-.562 0-1.033.235-1.415.708-.381.472-.622 1.053-.72 1.742l-.025.136z" fill="#6D6E71" fill-rule="nonzero"/><g fill="#2A3052" fill-rule="nonzero"><path d="M29.562 132.428l.107 1.107a2.413 2.413 0 0 1 2.142-1.214c.785 0 1.392.214 1.82.714.43.464.643 1.178.643 2.142v4.641h-1.32v-4.605c0-.643-.143-1.107-.393-1.393-.25-.285-.643-.393-1.143-.393-.392 0-.714.108-1 .286a2.062 2.062 0 0 0-.713.75v5.355h-1.322v-7.354l1.178-.036h.001zm-4.675-2.633h1.234v9.752h-1.234v-9.752zm21.798 2.57h1.304v7.177h-1.304v-7.177zm.018-3.26v1.295h1.328v-1.295h-1.328zm-10.384 3.271h1.304v7.178h-1.304v-7.178zm.018-3.26v1.294h1.328v-1.294h-1.328z"/><path d="M36.294 132.376h1.304v7.178h-1.304v-7.178zm.018-3.26v1.294h1.328v-1.294h-1.328zm3.091 4.235v-1.03h5.491v.869l-3.967 5.379h4.177v.978h-5.7v-.834l3.92-5.362h-3.921zm13.675-1.194c2.158 0 3.121 1.574 3.283 3.392.162 1.818-.602 4.001-2.988 4.187-2.385.187-3.578-1.74-3.578-3.772s1.126-3.807 3.283-3.807zm-.051 1.037c-.804 0-1.754.483-1.876 2.454-.122 1.97.672 3.052 1.938 3.052s1.935-1.15 1.935-3.052c0-1.903-1.194-2.454-1.997-2.454z"/></g><path d="M183.283 165.914h-2.22v-7.348h2.22v7.348zm0 3.866h-2.22v-1.974h2.22v1.974zm-19.085-8.159h1.597l.08 1.163c.655-.975 1.503-1.409 2.546-1.301.604.063 1.877.26 2.257 1.975.14.629.11 1.691.1 3.135-.005.56-.005 1.53 0 2.91h-1.753v-4.937c0-.58-.163-1.229-.65-1.474-.669-.338-1.929-.196-2.434.654v5.758h-1.743v-7.883zm-47.232 3.718v-1.294h3.914c.044 2.255.044 3.57 0 3.944-.33.988-4.239 2.782-6.763.506-.752-.679-1.106-1.43-1.3-2.569-.008-1.162-.029-2.253-.02-3.284.19-1.264.614-1.982.955-2.39 1.24-1.483 3.218-1.802 4.957-1.202 1.738.601 1.964 1.85 2.105 3.072-.403 0-.615-.018-1.703 0 .11-.688-.515-2.016-2.146-1.943-1.632.073-2.402 1.413-2.402 2.53 0 1.117-.058.742 0 2.96.074 2.549 3.129 3.233 4.548 1.872l.052-2.17-2.197-.032zm58.786-3.859c2.184 0 3.369 1.332 3.668 3.327.3 1.995-.777 4.813-3.514 4.813-2.738 0-3.623-2.081-3.623-4.235 0-2.154 1.285-3.904 3.469-3.904v-.001zm.02 1.399c-.65.061-1.8.516-1.733 2.67.067 2.153 1.009 2.659 1.733 2.659.723 0 1.944-.2 1.944-2.65 0-2.45-1.295-2.74-1.944-2.68v.001zm-52.966-1.197c.71.022 1.272.022 1.687 0v4.435c0 1.76.646 2.062 1.274 2.122a1.996 1.996 0 0 0 1.834-.874c.015-2.024.015-3.918 0-5.683h1.808v7.83h-1.546l-.165-1.15c-.546.941-1.402 1.36-2.568 1.257-1.75-.155-2.324-1.648-2.324-3.035 0-2.42-.038-3.681 0-4.902zm10.295 2.161c-.535-.004-1.096-.004-1.683 0 0-.845.604-2.376 3.021-2.376 2.418 0 2.998 1.66 3.064 2.018.065.358-.169 5.372.337 5.942l-1.796.002c-.148-.508-.222-.883-.222-1.126-.28.342-.763.967-1.503 1.197-.74.23-2.423.353-3.112-1.262-.454-1.063-.164-2.26.69-2.808 1.409-.906 3.346-.603 3.925-.603.074-1.615-.408-1.991-1.503-1.991-.73 0-1.136.335-1.218 1.007zm2.72 2.089a29.14 29.14 0 0 0-1.774.014c-.705.062-1.332.584-1.279 1.326.064.886 1.07 1.048 1.859.793.661-.214 1.122-.768 1.194-1.003v-1.13zm13.59-2.089c-.536-.004-1.097-.004-1.683 0 0-.845.604-2.376 3.021-2.376 2.418 0 2.998 1.66 3.064 2.018.065.358-.169 5.372.337 5.942l-1.796.002c-.148-.508-.223-.883-.223-1.126-.28.342-.762.967-1.502 1.197-.74.23-2.423.353-3.112-1.262-.454-1.063-.164-2.26.69-2.808 1.409-.906 3.346-.603 3.924-.603.075-1.615-.407-1.991-1.502-1.991-.73 0-1.136.335-1.218 1.007zm2.72 2.089a29.138 29.138 0 0 0-1.774.014c-.705.062-1.333.584-1.28 1.326.065.886 1.071 1.048 1.86.793.66-.214 1.122-.768 1.194-1.003v-1.13zm-8.048-7.702h1.703v11.285h-1.4c-.078-.332-.15-.665-.213-1-.28.78-3.127 2.155-4.536-.173-1.178-1.945-.53-4.559.07-5.505.45-.71 2.276-2.534 4.376-.303a853.79 853.79 0 0 0 0-4.305v.001zm.01 5.69c-.272-.86-2.097-1.404-2.83-.35-.732 1.053-.698 2.404-.28 3.639.42 1.235 2.212 1.471 3.11.112v-3.401zm16.644-1.247l.176-.992h1.434v7.944c.005 2.769-3.104 3.83-5.96 2.446.163-.816.253-1.273.27-1.37 1.244.416 4.341 1.456 3.947-1.99-1.778 1.821-3.79.717-4.487-.5-.768-1.342-1.268-5.348 1.204-6.428 1.424-.622 2.563-.326 3.416.89zm-.149 1.211c-.338-.511-.555-.938-1.69-.938-1.137 0-1.848 1.394-1.601 3.533.246 2.14 2.569 2.14 3.291.787v-3.382z" fill="#FFF" fill-rule="nonzero"/><path d="M279.43 64.709l.094.97a2.116 2.116 0 0 1 1.877-1.064c.689 0 1.221.188 1.597.626.375.407.563 1.033.563 1.878v4.068h-1.158V67.15c0-.563-.125-.97-.344-1.22-.22-.25-.564-.345-1.002-.345-.344 0-.626.094-.876.25a1.81 1.81 0 0 0-.626.658v4.694h-1.158V64.74l1.033-.031zm-5.477-2.336v.91h-4.365v3.091h3.718v.937h-3.718v3.957h-1.282v-8.895h5.647zm16.369 5.764h-4.151c0 .77.157 1.328.472 1.671.413.452.848.615 1.445.556 1.042-.104 1.244-.383 1.675-.63l.44.754c-.514.53-1.336.796-2.465.796-1.694 0-2.726-1.404-2.794-3.075-.067-1.67.6-3.61 2.794-3.69 1.86.049 2.72 1.255 2.584 3.618zm-1.166-.918c-.012-1.176-.484-1.763-1.417-1.763s-1.442.587-1.53 1.763h2.947zm-13.853-2.501h1.165v6.415h-1.166l.001-6.415zm.015-2.913v1.157h1.187v-1.157h-1.187z" fill="#2A3052" fill-rule="nonzero"/></g></svg>