<svg width="299" height="197" xmlns="http://www.w3.org/2000/svg"><g fill="none" fill-rule="evenodd"><path fill="#F1F1F2" d="M0 0h299v197H0z"/><path d="M1.987 1.98v193.04h295.026V1.98H1.987zM299 0v197H0V0h299z" fill="#C2C2C2" fill-rule="nonzero"/><path d="M4.58 54.993v-1.212h290.408v1.212H4.58zm0 20.08V73.86h290.408v1.212H4.58zm0 60.274v-1.212h290.408v1.212H4.58zm0 20.078v-1.212h290.408v1.212H4.58zm0 20.08v-1.213h290.408v1.212H4.58zM39.059 34.307h1.212V192.59h-1.212V34.308zm36.75 0h1.212V192.59H75.81V34.308zm36.75 0h1.213V192.59h-1.212V34.308zm36.713 0h1.212V192.59h-1.212V34.308zm36.751 0h1.212V192.59h-1.212V34.308zm36.75 0h1.213V192.59h-1.213V34.308zm36.751 0h1.212V192.59h-1.212V34.308zM4.58 115.268v-1.212h290.408v1.212H4.58z" fill="#DEDEDD" fill-rule="nonzero"/><path fill="#293052" d="M4.58 95.189v-1.212h1.816v1.212z"/><path d="M10.03 95.189v-1.212h3.636v1.212H10.03zm7.272 0v-1.212h3.636v1.212h-3.636zm7.272 0v-1.212h3.636v1.212h-3.636zm7.272 0v-1.212h3.636v1.212h-3.636zm7.272 0v-1.212h3.636v1.212h-3.636zm7.272 0v-1.212h3.636v1.212H46.39zm7.272 0v-1.212h3.636v1.212h-3.636zm7.272 0v-1.212h3.636v1.212h-3.636zm7.272 0v-1.212h3.636v1.212h-3.636zm7.272 0v-1.212h3.636v1.212h-3.636zm7.272 0v-1.212h3.636v1.212H82.75zm7.273 0v-1.212h3.636v1.212h-3.636zm7.272 0v-1.212h3.636v1.212h-3.636zm7.272 0v-1.212h3.636v1.212h-3.636zm7.272 0v-1.212h3.636v1.212h-3.636zm7.272 0v-1.212h3.636v1.212h-3.636zm7.272 0v-1.212h3.636v1.212h-3.636zm7.272 0v-1.212h3.636v1.212h-3.636zm7.272 0v-1.212h3.636v1.212h-3.636zm7.272 0v-1.212h3.636v1.212H148.2zm7.272 0v-1.212h3.636v1.212h-3.636zm7.272 0v-1.212h3.636v1.212h-3.636zm7.272 0v-1.212h3.636v1.212h-3.636zm7.272 0v-1.212h3.636v1.212h-3.636zm7.272 0v-1.212h3.636v1.212h-3.636zm7.272 0v-1.212h3.637v1.212h-3.637zm7.273 0v-1.212h3.636v1.212h-3.636zm7.272 0v-1.212h3.636v1.212h-3.636zm7.272 0v-1.212h3.636v1.212h-3.636zm7.272 0v-1.212h3.636v1.212h-3.636zm7.272 0v-1.212h3.636v1.212h-3.636zm7.272 0v-1.212h3.636v1.212h-3.636zm7.272 0v-1.212h3.636v1.212h-3.636zm7.272 0v-1.212h3.636v1.212h-3.636zm7.272 0v-1.212h3.636v1.212h-3.636zm7.272 0v-1.212h3.636v1.212h-3.636zm7.272 0v-1.212h3.636v1.212h-3.636zm7.272 0v-1.212h3.636v1.212h-3.636zm7.272 0v-1.212h3.636v1.212h-3.636z" fill="#293052" fill-rule="nonzero"/><path fill="#293052" d="M293.21 95.189v-1.212h1.778v1.212z"/><path fill="#C2C2C2" d="M2 30v-2h295v2z"/><path d="M222.098 93.32a1.8 1.8 0 1 1 2.563 2.526l-31.755 32.202a1.8 1.8 0 0 1-2.118.33l-41.55-21.853-42.212 24.394a1.8 1.8 0 0 1-1.698.054l-29.71-14.699a1.8 1.8 0 0 1-.356-.231l-36.75-30.687a1.8 1.8 0 1 1 2.306-2.762l36.587 30.55 28.655 14.177 42.237-24.408a1.8 1.8 0 0 1 1.738-.035l41.246 21.693 30.817-31.251z" fill="#293052"/><path d="M255.777 116.442l.682-6.592h5.98v1.44h-4.58l-.378 3.372c.257-.186.537-.339.832-.455a3.1 3.1 0 0 1 1.06-.19 3.216 3.216 0 0 1 2.612 1.061 4.36 4.36 0 0 1 .946 2.955 4.208 4.208 0 0 1-.946 2.88 3.556 3.556 0 0 1-2.801 1.098 3.782 3.782 0 0 1-2.536-.833 2.88 2.88 0 0 1-.984-2.463h1.476a2.009 2.009 0 0 0 .568 1.516c.402.366.933.557 1.476.53a1.892 1.892 0 0 0 1.59-.72 3.11 3.11 0 0 0 .378-2.045 2.995 2.995 0 0 0-.568-1.895 1.892 1.892 0 0 0-1.59-.72 2.534 2.534 0 0 0-1.362.304c-.305.21-.532.517-.643.871l-1.212-.114zm6.018 20.572h1.628v1.288h-1.628v2.765h-1.627v-2.803h-5.375v-.91l5.261-8.296h1.703v7.956h.038zm-5.26 0h3.784v-5.645.417l-3.785 5.228zm.832 17.73h1.4a1.891 1.891 0 0 0 1.514-.53c.328-.435.49-.973.455-1.516a2.199 2.199 0 0 0-.492-1.553 1.967 1.967 0 0 0-1.514-.53 2.08 2.08 0 0 0-1.514.567 1.971 1.971 0 0 0-.568 1.478h-1.4a2.918 2.918 0 0 1 .984-2.311 3.783 3.783 0 0 1 2.687-.947 3.782 3.782 0 0 1 2.65.871 3.222 3.222 0 0 1 .983 2.539 2.88 2.88 0 0 1-1.779 2.614c.622.17 1.16.56 1.514 1.098a3.564 3.564 0 0 1-.643 4.281 4.01 4.01 0 0 1-2.725.947 4.123 4.123 0 0 1-2.725-.871 2.843 2.843 0 0 1-1.022-2.387h1.552c-.037.563.17 1.115.567 1.516a2.194 2.194 0 0 0 1.59.568 2.232 2.232 0 0 0 1.627-.568 2.16 2.16 0 0 0 .644-1.895 1.857 1.857 0 0 0-2.157-2.159h-1.628v-1.212zm5.715 26.33h-7.759v-1.137l3.785-4.357a11.06 11.06 0 0 0 1.438-1.856c.241-.429.371-.91.379-1.402a2.237 2.237 0 0 0-.53-1.515 1.74 1.74 0 0 0-1.4-.606 2.383 2.383 0 0 0-1.817.644 2.54 2.54 0 0 0-.606 1.78h-1.438a3.373 3.373 0 0 1 1.022-2.614 4.047 4.047 0 0 1 2.952-1.06 3.518 3.518 0 0 1 2.574.947c.632.63.975 1.494.946 2.386a3.791 3.791 0 0 1-.568 1.97 12.652 12.652 0 0 1-1.627 2.122l-3.142 3.41h5.753v1.287h.038zm0-110.586a16.86 16.86 0 0 0-2.914 4.584 20.55 20.55 0 0 0-1.098 4.85v1.288h-1.703v-1.288a17.63 17.63 0 0 1 1.4-5.153 19.627 19.627 0 0 1 2.726-4.357h-6.51V69.2h8.1v1.288zm-.454-17.616a2.654 2.654 0 0 1-.53 1.629 3.104 3.104 0 0 1-1.438 1.06 3.785 3.785 0 0 1 1.665 1.137c.404.505.618 1.135.606 1.78a3.07 3.07 0 0 1-1.098 2.54 4.992 4.992 0 0 1-5.64 0 3.108 3.108 0 0 1-1.059-2.54 2.805 2.805 0 0 1 .606-1.78 3.52 3.52 0 0 1 1.627-1.136 3.028 3.028 0 0 1-1.4-1.061 2.73 2.73 0 0 1-.492-1.63 3.07 3.07 0 0 1 .984-2.424 3.778 3.778 0 0 1 2.573-.871 3.782 3.782 0 0 1 2.574.871 3.032 3.032 0 0 1 1.022 2.425zm-1.287 5.569a2.16 2.16 0 0 0-.643-1.63 2.27 2.27 0 0 0-1.628-.643 2.198 2.198 0 0 0-2.27 2.273 2.08 2.08 0 0 0 .643 1.591 2.647 2.647 0 0 0 3.293 0c.423-.417.644-.998.605-1.591zm-.19-5.531a2.047 2.047 0 0 0-.567-1.478 2.005 2.005 0 0 0-2.8 0 2.085 2.085 0 0 0-.53 1.478c-.031.544.16 1.077.53 1.477a2.08 2.08 0 0 0 2.8 0c.384-.394.589-.928.568-1.477z" fill="#808184" fill-rule="nonzero"/><path d="M188.65 147.07h-35.047l-5.526-8.07-5.299 8.07h-35.047a4.733 4.733 0 0 0-4.731 4.735v24.511a4.733 4.733 0 0 0 4.731 4.736h80.92a4.729 4.729 0 0 0 3.418-1.346 4.738 4.738 0 0 0 1.426-3.39v-24.473a4.738 4.738 0 0 0-1.412-3.414 4.729 4.729 0 0 0-3.433-1.36z" fill="#E88024"/><ellipse cx="8.43" cy="8.448" rx="8.137" ry="8.373" opacity=".6" transform="translate(214.95 86.135)" fill="#FFF"/><path d="M223.38 104.167c-5.172 0-9.35-4.298-9.35-9.584s4.178-9.585 9.35-9.585c5.17 0 9.349 4.3 9.349 9.585 0 5.286-4.178 9.584-9.35 9.584zm0-2.424c3.816 0 6.925-3.198 6.925-7.16s-3.109-7.16-6.926-7.16c-3.816 0-6.925 3.198-6.925 7.16s3.109 7.16 6.925 7.16z" fill="#E88024" fill-rule="nonzero"/><path fill="#E88024" d="M246.278 85.756h28.575v18.79h-28.575z"/><path d="M259.979 88.9a5.71 5.71 0 0 1 1.249 0c.389.092.769.218 1.135.379l-.416 1.743-.984-.265h-.984a2.157 2.157 0 0 0-1.741.833 3.336 3.336 0 0 0-.606 2.273 2.763 2.763 0 0 1 1.022-.644c.448-.163.923-.24 1.4-.227a3.027 3.027 0 0 1 2.498 1.136c.63.839.951 1.87.909 2.917a4.132 4.132 0 0 1-1.136 2.993 3.783 3.783 0 0 1-2.914 1.175 4.01 4.01 0 0 1-3.104-1.288 5.042 5.042 0 0 1-1.173-3.562v-2.348a5.117 5.117 0 0 1 1.363-3.789 4.615 4.615 0 0 1 3.482-1.326zm-.568 5.948a2.723 2.723 0 0 0-1.136.227 1.741 1.741 0 0 0-.719.569v.795a3.8 3.8 0 0 0 .53 2.198c.291.473.808.76 1.363.757a1.362 1.362 0 0 0 1.173-.682 2.92 2.92 0 0 0 .53-1.667c.03-.578-.13-1.15-.454-1.629a1.438 1.438 0 0 0-1.287-.606v.038z" fill="#FFF" fill-rule="nonzero"/><path fill="#E88024" d="M249.76 95.151l-3.331 3.334-5.185-3.334 5.185-3.296z"/><path fill="#293052" d="M247.564 126.292v-1.212h22.899v1.212z"/><path d="M190.812 15.345c0 .975-.165 1.826-.493 2.553-.328.727-.793 1.282-1.394 1.665-.602.382-1.304.574-2.106.574-.784 0-1.479-.193-2.085-.578-.606-.385-1.076-.934-1.411-1.647-.335-.714-.507-1.54-.516-2.478v-.718c0-.957.166-1.803.499-2.536.332-.734.803-1.296 1.411-1.685.609-.39 1.305-.585 2.089-.585.797 0 1.5.193 2.109.578.608.385 1.076.943 1.404 1.675.328.731.493 1.582.493 2.553v.629zm-1.306-.643c0-1.18-.237-2.086-.711-2.717-.474-.631-1.137-.947-1.99-.947-.829 0-1.482.316-1.958.947s-.721 1.507-.735 2.628v.732c0 1.144.24 2.043.721 2.697.481.653 1.143.98 1.986.98.848 0 1.504-.308 1.97-.926.464-.617.703-1.503.717-2.656v-.738zm7.383 3.336c0-.342-.13-.607-.387-.796-.257-.19-.706-.352-1.346-.49-.64-.136-1.149-.3-1.525-.491-.376-.192-.654-.42-.834-.684a1.635 1.635 0 0 1-.27-.943c0-.606.257-1.119.77-1.538.512-.42 1.167-.63 1.965-.63.838 0 1.518.217 2.04.65.522.433.783.987.783 1.661h-1.272c0-.346-.146-.645-.44-.895-.294-.25-.665-.376-1.111-.376-.46 0-.82.1-1.08.3a.948.948 0 0 0-.39.787c0 .305.12.535.362.69.242.155.678.303 1.31.445.63.14 1.142.31 1.534.505.392.196.683.432.872.708.189.276.283.612.283 1.008 0 .661-.264 1.19-.793 1.59-.528.398-1.214.598-2.057.598-.593 0-1.117-.105-1.573-.315a2.557 2.557 0 0 1-1.07-.878 2.117 2.117 0 0 1-.386-1.22h1.265c.023.423.193.76.51 1.008.316.248.734.372 1.254.372.478 0 .862-.096 1.152-.29.289-.194.434-.452.434-.776zm4.628-7.226v1.792h1.38v.977h-1.38v4.587c0 .296.061.518.184.666.123.149.333.223.63.223.145 0 .345-.028.6-.082V20a3.666 3.666 0 0 1-.97.137c-.565 0-.991-.171-1.278-.513-.287-.342-.431-.827-.431-1.456v-4.587h-1.347v-.977h1.347v-1.791h1.265zM208.94 20c-.072-.146-.132-.406-.177-.78-.588.611-1.29.917-2.106.917-.729 0-1.327-.206-1.794-.619a2.002 2.002 0 0 1-.7-1.569c0-.77.292-1.368.878-1.794.585-.426 1.409-.64 2.47-.64h1.231v-.58c0-.442-.132-.795-.396-1.057-.265-.262-.654-.393-1.17-.393-.45 0-.829.114-1.134.342-.305.228-.458.504-.458.827h-1.272c0-.369.132-.725.394-1.07a2.683 2.683 0 0 1 1.066-.816c.449-.2.942-.301 1.48-.301.852 0 1.52.213 2.003.639.483.426.734 1.013.752 1.76v3.405c0 .679.086 1.219.26 1.62V20h-1.327zm-2.098-.964c.396 0 .772-.102 1.128-.307a1.86 1.86 0 0 0 .772-.8V16.41h-.991c-1.55 0-2.324.454-2.324 1.36 0 .397.132.707.396.93.265.223.604.335 1.019.335zm6.863-8.224v1.792h1.38v.977h-1.38v4.587c0 .296.062.518.185.666.123.149.332.223.629.223.145 0 .346-.028.601-.082V20a3.666 3.666 0 0 1-.97.137c-.566 0-.992-.171-1.279-.513-.287-.342-.43-.827-.43-1.456v-4.587h-1.347v-.977h1.346v-1.791h1.265zm4.054 1.792l.04.93c.566-.712 1.304-1.067 2.216-1.067 1.563 0 2.351.882 2.365 2.645V20h-1.265v-4.895c-.004-.533-.126-.927-.365-1.182-.24-.255-.612-.383-1.118-.383-.41 0-.77.11-1.08.328a2.23 2.23 0 0 0-.725.861V20h-1.264v-7.396h1.196zM225.66 20h-1.265v-7.396h1.265V20zm-1.367-9.358c0-.205.063-.379.188-.52.125-.141.311-.212.557-.212.246 0 .433.07.56.212a.747.747 0 0 1 .192.52.722.722 0 0 1-.191.512c-.128.137-.315.205-.56.205-.247 0-.433-.068-.558-.205a.73.73 0 0 1-.188-.512zM232.25 20c-.073-.146-.132-.406-.178-.78-.588.611-1.29.917-2.105.917-.73 0-1.328-.206-1.795-.619a2.002 2.002 0 0 1-.7-1.569c0-.77.292-1.368.878-1.794.586-.426 1.41-.64 2.471-.64h1.23v-.58c0-.442-.131-.795-.396-1.057-.264-.262-.654-.393-1.169-.393-.45 0-.83.114-1.134.342-.306.228-.458.504-.458.827h-1.272c0-.369.131-.725.393-1.07a2.683 2.683 0 0 1 1.067-.816c.448-.2.942-.301 1.48-.301.852 0 1.52.213 2.002.639.484.426.734 1.013.752 1.76v3.405c0 .679.087 1.219.26 1.62V20h-1.326zm-2.099-.964a2.22 2.22 0 0 0 1.128-.307 1.86 1.86 0 0 0 .773-.8V16.41h-.991c-1.55 0-2.325.454-2.325 1.36 0 .397.132.707.397.93.264.223.604.335 1.018.335zm11.58.068c.452 0 .846-.136 1.183-.41a1.44 1.44 0 0 0 .56-1.025h1.197a2.293 2.293 0 0 1-.438 1.21 2.881 2.881 0 0 1-1.076.916 3.107 3.107 0 0 1-1.426.342c-1.007 0-1.808-.336-2.402-1.009-.595-.672-.893-1.591-.893-2.758v-.212c0-.72.133-1.36.397-1.92a3.02 3.02 0 0 1 1.138-1.306c.495-.31 1.08-.465 1.754-.465.829 0 1.518.248 2.067.745.55.497.842 1.142.879 1.934h-1.196c-.037-.478-.218-.871-.544-1.179-.326-.307-.728-.461-1.206-.461-.643 0-1.14.231-1.494.694-.353.462-.53 1.131-.53 2.006v.24c0 .852.176 1.508.527 1.968.35.46.852.69 1.503.69zm6.782-.957l1.722-5.543h1.354l-2.974 8.538c-.46 1.23-1.192 1.845-2.194 1.845l-.24-.02-.471-.09v-1.024l.342.027c.428 0 .762-.087 1.001-.26.24-.173.437-.49.592-.95l.28-.752-2.639-7.314h1.381l1.846 5.543zM253.34 20v-6.419h-1.17v-.977h1.17v-.76c0-.792.212-1.405.636-1.838.423-.433 1.023-.65 1.797-.65.292 0 .581.04.869.117l-.069 1.025a3.632 3.632 0 0 0-.683-.061c-.41 0-.727.12-.95.358-.224.24-.336.583-.336 1.03v.779h1.58v.977h-1.58V20h-1.264zm7.813-6.262a3.79 3.79 0 0 0-.622-.048c-.83 0-1.392.354-1.688 1.06V20h-1.265v-7.396h1.23l.021.854c.415-.66 1.003-.991 1.764-.991.246 0 .433.032.56.095v1.176zM266.882 20c-.073-.146-.132-.406-.178-.78-.588.611-1.29.917-2.105.917-.73 0-1.328-.206-1.795-.619a2.002 2.002 0 0 1-.7-1.569c0-.77.292-1.368.878-1.794.586-.426 1.41-.64 2.471-.64h1.23v-.58c0-.442-.132-.795-.396-1.057-.264-.262-.654-.393-1.169-.393-.451 0-.83.114-1.135.342-.305.228-.458.504-.458.827h-1.271c0-.369.13-.725.393-1.07a2.683 2.683 0 0 1 1.066-.816c.45-.2.943-.301 1.48-.301.853 0 1.52.213 2.003.639.483.426.734 1.013.752 1.76v3.405c0 .679.087 1.219.26 1.62V20h-1.326zm-2.099-.964a2.22 2.22 0 0 0 1.128-.307 1.86 1.86 0 0 0 .773-.8V16.41h-.992c-1.55 0-2.324.454-2.324 1.36 0 .397.132.707.397.93.264.223.603.335 1.018.335zm5.107.3c0-.218.065-.4.194-.546.13-.146.325-.219.585-.219.26 0 .457.073.591.219a.776.776 0 0 1 .202.547.73.73 0 0 1-.202.526c-.134.142-.331.212-.591.212-.26 0-.455-.07-.585-.212a.748.748 0 0 1-.194-.526zm.006-6.035c0-.219.065-.401.195-.547.13-.146.325-.219.585-.219.26 0 .457.073.591.219a.776.776 0 0 1 .202.547.73.73 0 0 1-.202.526c-.134.141-.331.212-.591.212-.26 0-.455-.07-.585-.212a.748.748 0 0 1-.195-.526zm7.342 1.709l.506-4.963h5.1v1.169h-4.027l-.3 2.714a3.207 3.207 0 0 1 1.66-.431c.908 0 1.628.3 2.16.899.534.6.8 1.41.8 2.43 0 1.026-.276 1.833-.83 2.423-.554.59-1.327.886-2.32.886-.88 0-1.598-.244-2.154-.732-.556-.487-.873-1.162-.95-2.023h1.196c.078.57.28.999.608 1.288.329.29.762.434 1.3.434.587 0 1.049-.2 1.384-.601.335-.401.502-.955.502-1.661 0-.666-.181-1.2-.543-1.603-.363-.404-.845-.605-1.446-.605-.552 0-.985.12-1.299.362l-.335.274-1.012-.26z" fill="#2A3052" fill-rule="nonzero"/><path d="M24.324 16.448c-.083 1.147-.507 2.05-1.271 2.71-.764.659-1.771.988-3.021.988-1.367 0-2.443-.46-3.227-1.38-.783-.92-1.175-2.184-1.175-3.79v-.652c0-1.026.18-1.929.542-2.71.361-.781.878-1.38 1.549-1.798.671-.418 1.451-.627 2.34-.627 1.23 0 2.222.33 2.974.99.752.658 1.186 1.584 1.303 2.775h-2.197c-.054-.688-.245-1.188-.575-1.498-.33-.31-.831-.465-1.505-.465-.732 0-1.28.263-1.644.788-.364.524-.55 1.339-.56 2.442v.806c0 1.152.174 1.994.523 2.527.35.532.9.798 1.652.798.678 0 1.185-.155 1.52-.465.334-.31.526-.79.574-1.44h2.198zm4.262.556l1.465-4.929h2.27l-3.185 9.155-.176.418c-.474 1.035-1.255 1.553-2.344 1.553a3.33 3.33 0 0 1-.937-.14v-1.603l.322.007c.4 0 .7-.061.897-.183.198-.122.353-.325.465-.608l.25-.652-2.777-7.947h2.278l1.472 4.93zM33.736 20v-6.372h-1.18v-1.553h1.18v-.674c0-.888.254-1.578.765-2.069.51-.49 1.224-.736 2.142-.736.293 0 .652.049 1.077.147l-.022 1.64a2.699 2.699 0 0 0-.645-.066c-.796 0-1.194.374-1.194 1.121v.637h1.575v1.553H35.86V20h-2.124zm9.25-5.94a5.75 5.75 0 0 0-.762-.059c-.8 0-1.326.271-1.575.813V20h-2.116v-7.925h2l.058.945c.425-.728 1.013-1.091 1.765-1.091.234 0 .454.031.66.095l-.03 2.036zm5.61 5.94a2.35 2.35 0 0 1-.212-.71c-.513.57-1.18.856-2 .856-.776 0-1.42-.224-1.93-.673a2.167 2.167 0 0 1-.765-1.7c0-.84.311-1.484.934-1.933.622-.45 1.522-.676 2.699-.681h.974v-.454c0-.367-.094-.66-.282-.88-.188-.219-.485-.329-.89-.329-.356 0-.636.086-.839.256-.202.171-.304.406-.304.704h-2.116c0-.46.141-.884.425-1.275.283-.39.683-.697 1.2-.919.518-.222 1.1-.333 1.744-.333.976 0 1.752.245 2.325.736.574.49.86 1.18.86 2.069v3.435c.006.752.11 1.32.316 1.706V20h-2.139zm-1.75-1.472c.312 0 .6-.07.864-.209.264-.14.459-.326.586-.56v-1.363h-.791c-1.06 0-1.624.367-1.692 1.1l-.007.124c0 .263.092.48.278.651.186.171.44.257.762.257zm15.827-1.406l1.04-5.047h2.044L63.735 20h-1.772l-1.502-4.988L58.96 20h-1.765l-2.022-7.925h2.044l1.033 5.04 1.45-5.04h1.53l1.443 5.047zM69.038 20h-2.124v-7.925h2.124V20zm-2.248-9.976c0-.317.106-.578.318-.783.213-.205.502-.308.868-.308.361 0 .65.103.864.308.215.205.323.466.323.783 0 .323-.109.586-.326.791-.218.206-.504.308-.86.308-.357 0-.644-.102-.862-.308a1.04 1.04 0 0 1-.325-.79zm10.73 8.694c-.303.445-.735.796-1.297 1.055h.007c-.36.205-.64.406-.834.604a.946.946 0 0 0-.293.685c0 .317.16.476.483.476.161 0 .356-.049.586-.146l.212 1.15a2.3 2.3 0 0 1-1.208.322c-.489 0-.888-.136-1.198-.407-.31-.27-.465-.645-.465-1.124 0-.474.154-.876.462-1.208-1.045-.093-1.886-.49-2.524-1.19-.637-.701-.955-1.596-.955-2.685v-.227c0-.796.153-1.508.461-2.135a3.386 3.386 0 0 1 1.307-1.45c.564-.34 1.208-.51 1.93-.51 1.084 0 1.938.343 2.56 1.026.623.684.934 1.653.934 2.908v.864h-5.046c.068.518.274.933.618 1.245.345.313.78.469 1.308.469.815 0 1.453-.295 1.911-.886l1.04 1.164zm-3.333-5.075c-.42 0-.76.141-1.022.424-.26.284-.428.689-.501 1.216h2.944v-.168c-.01-.469-.137-.832-.38-1.088-.245-.256-.592-.384-1.041-.384zm7.58 3.178l-.761.762V20h-2.117V8.75h2.117v6.233l.41-.527 2.029-2.38h2.541l-2.863 3.302L86.235 20h-2.431l-2.036-3.179zm9.427.99c0-.26-.128-.464-.385-.613-.256-.148-.667-.281-1.234-.399-1.885-.395-2.827-1.196-2.827-2.402 0-.703.292-1.29.875-1.762.584-.47 1.347-.706 2.29-.706 1.005 0 1.81.237 2.412.71.603.474.905 1.089.905 1.846h-2.117c0-.303-.097-.553-.293-.75-.195-.199-.5-.297-.915-.297-.357 0-.633.08-.828.241a.763.763 0 0 0-.293.615c0 .235.111.424.333.568.223.144.597.269 1.125.374.527.105.971.223 1.333.355 1.118.41 1.677 1.12 1.677 2.131 0 .723-.31 1.308-.93 1.754-.62.447-1.421.67-2.403.67-.664 0-1.253-.118-1.768-.355-.516-.237-.92-.561-1.213-.974a2.263 2.263 0 0 1-.439-1.337h2.007c.02.376.159.665.417.865.26.2.606.3 1.04.3.406 0 .712-.077.92-.23a.718.718 0 0 0 .31-.605zm5.852.482h3.874V20h-6.577v-1.29l3.728-4.92h-3.618v-1.715h6.35v1.253l-3.757 4.965zM106.838 20a2.35 2.35 0 0 1-.212-.71c-.513.57-1.18.856-2 .856-.776 0-1.42-.224-1.93-.673a2.167 2.167 0 0 1-.765-1.7c0-.84.311-1.484.934-1.933.623-.45 1.522-.676 2.699-.681h.974v-.454c0-.367-.094-.66-.282-.88-.188-.219-.485-.329-.89-.329-.356 0-.636.086-.838.256-.203.171-.304.406-.304.704h-2.117c0-.46.142-.884.425-1.275.283-.39.683-.697 1.2-.919.518-.222 1.1-.333 1.744-.333.977 0 1.752.245 2.326.736.573.49.86 1.18.86 2.069v3.435c.005.752.11 1.32.315 1.706V20h-2.139zm-1.75-1.472c.312 0 .6-.07.864-.209.264-.14.46-.326.586-.56v-1.363h-.79c-1.06 0-1.624.367-1.693 1.1l-.007.124c0 .263.093.48.278.651.186.171.44.257.762.257z" fill="#000" fill-rule="nonzero"/><path d="M126.078 166.188l1.75-8.563h1.961L127.164 169h-1.89l-2.165-8.305L120.9 169H119l-2.625-11.375h1.96l1.767 8.547 2.171-8.547h1.657l2.148 8.563zm7.93.093l1.719-5.734h2.023l-3.36 9.734c-.515 1.422-1.39 2.133-2.624 2.133a3.4 3.4 0 0 1-.914-.14v-1.47l.359.024c.48 0 .84-.087 1.082-.262.242-.174.434-.467.574-.879l.274-.726-2.97-8.414h2.048l1.789 5.734zm4.5-1.57c0-1.313.308-2.36.926-3.145.617-.783 1.436-1.175 2.457-1.175.963 0 1.721.336 2.273 1.007l.086-.851h1.71v8.195c0 1.11-.344 1.985-1.034 2.625-.69.64-1.621.961-2.793.961-.62 0-1.225-.129-1.817-.387-.59-.257-1.04-.595-1.347-1.011l.898-1.14c.584.692 1.302 1.038 2.156 1.038.63 0 1.128-.17 1.493-.512.364-.34.547-.842.547-1.504v-.57c-.547.61-1.277.914-2.188.914-.99 0-1.798-.393-2.426-1.18-.627-.786-.941-1.874-.941-3.265zm1.89.164c0 .849.174 1.517.52 2.004.346.487.827.73 1.441.73.766 0 1.334-.328 1.703-.984v-3.719c-.359-.64-.921-.96-1.687-.96-.625 0-1.11.247-1.457.742-.346.494-.52 1.223-.52 2.187zm11.938-2.594a4.698 4.698 0 0 0-.774-.062c-.87 0-1.455.333-1.757 1V169h-1.899v-8.453h1.813l.047.945c.458-.734 1.093-1.101 1.906-1.101.27 0 .495.036.672.109l-.008 1.781zm6.25 6.719c-.083-.161-.156-.424-.219-.79a2.955 2.955 0 0 1-2.219.946c-.849 0-1.541-.242-2.078-.726-.536-.485-.804-1.084-.804-1.797 0-.901.334-1.593 1.004-2.074.669-.482 1.626-.723 2.87-.723h1.165v-.555c0-.437-.123-.788-.368-1.05-.244-.264-.617-.395-1.117-.395-.432 0-.786.108-1.062.324a1.003 1.003 0 0 0-.414.824h-1.899c0-.463.154-.897.461-1.3.308-.404.726-.72 1.254-.95a4.404 4.404 0 0 1 1.77-.343c.99 0 1.778.248 2.367.746.588.497.89 1.196.906 2.097v3.813c0 .76.107 1.367.32 1.82V169h-1.937zm-2.086-1.367a2.16 2.16 0 0 0 1.059-.274c.33-.182.579-.427.746-.734v-1.594h-1.024c-.703 0-1.232.123-1.586.367-.354.245-.53.592-.53 1.04 0 .364.12.654.362.87.243.217.567.325.973.325zm7.453-7.086l.055.976c.625-.755 1.445-1.132 2.46-1.132 1.761 0 2.657 1.007 2.688 3.023V169h-1.898v-5.477c0-.536-.116-.933-.348-1.191-.232-.258-.61-.387-1.137-.387-.765 0-1.335.347-1.71 1.04V169h-1.899v-8.453h1.79zM176.141 169c-.084-.161-.157-.424-.22-.79a2.955 2.955 0 0 1-2.218.946c-.849 0-1.542-.242-2.078-.726-.536-.485-.805-1.084-.805-1.797 0-.901.335-1.593 1.004-2.074.67-.482 1.627-.723 2.871-.723h1.164v-.555c0-.437-.122-.788-.367-1.05-.245-.264-.617-.395-1.117-.395-.432 0-.786.108-1.063.324a1.003 1.003 0 0 0-.414.824H171c0-.463.154-.897.46-1.3.308-.404.726-.72 1.255-.95a4.404 4.404 0 0 1 1.77-.343c.989 0 1.778.248 2.367.746.588.497.89 1.196.906 2.097v3.813c0 .76.107 1.367.32 1.82V169h-1.937zm-2.086-1.367a2.16 2.16 0 0 0 1.058-.274 1.82 1.82 0 0 0 .746-.734v-1.594h-1.023c-.703 0-1.232.123-1.586.367-.354.245-.531.592-.531 1.04 0 .364.12.654.363.87.242.217.566.325.973.325zm7.703-1.985h-1.633l-.18-8.023h2l-.187 8.023zm-1.867 2.454c0-.297.096-.543.289-.739.192-.195.455-.293.789-.293.333 0 .596.098.789.293.193.196.289.442.289.739a.99.99 0 0 1-.281.718c-.188.193-.453.29-.797.29-.344 0-.61-.097-.797-.29a.99.99 0 0 1-.281-.718z" fill="#FFF" fill-rule="nonzero"/></g></svg>