<svg width="299" height="197" xmlns="http://www.w3.org/2000/svg"><g fill="none" fill-rule="evenodd"><path fill="#F1F2F2" d="M299 0v197H0V0z"/><path d="M297.013 1.98H1.987v193.04h295.026V1.98zM299 197H0V0h299v197z" fill="#C2C2C2" fill-rule="nonzero"/><path fill="#2A3052" fill-rule="nonzero" d="M247.483 40.196h1.01v136.07h-1.01z"/><path d="M2.94 53.948v-1.223h293.571v1.223H2.941zm0 40.897v-1.223h293.571v1.223H2.941zm0 40.894v-1.224h293.571v1.224H2.941zm0 40.857v-1.223h293.571v1.223H2.941zM37.786 32.908h1.223v161.093h-1.223V32.908zm37.161 0h1.224v161.093h-1.224V32.908zm37.123 0h1.223v161.093h-1.223V32.908zm37.16 0h1.223v161.093h-1.223V32.908zm37.122 0h1.224v161.093h-1.224V32.908zm37.123 0h1.223v161.093h-1.223V32.908zM2.94 115.273v-1.224h293.57v1.224H2.941z" fill="#DFDEDE" fill-rule="nonzero"/><path fill="#15212D" fill-rule="nonzero" d="M2.94 70.17v-1.144h293.571v1.144zm0 80.408v-1.144h293.571v1.144z"/><path fill="#C2C2C2" fill-rule="nonzero" d="M.82 31.371v-2.446h297.812v2.446z"/><path d="M33.462 111.905l-1.023-1.743 8.713-5.112 1.022 1.742-8.712 5.113zm17.425-10.225l-1.023-1.743 8.713-5.113 1.022 1.743-8.712 5.113zm17.425-10.226l-1.023-1.742 8.713-5.113 1.022 1.743-8.712 5.112zM85.737 81.23l-1.023-1.742 4.955-2.908 4.992.51-.205 2.01-4.335-.443-4.384 2.573zm18.77-1.107l.204-2.01 10.05 1.024-.205 2.01-10.05-1.024zm20.099 2.048l.204-2.01 10.05 1.025-.205 2.01-10.05-1.025zm20.1 2.049l.204-2.01 10.05 1.024-.205 2.01-10.05-1.024zm20.099 2.048l.204-2.01 10.05 1.024-.205 2.01-10.05-1.024zm20.083-1.436l-.787-1.86 9.305-3.933.787 1.861-9.305 3.932zm18.61-7.864l-.786-1.86 9.305-3.933.786 1.861-9.305 3.932zm18.61-7.863l-.786-1.861 9.305-3.932.787 1.86-9.306 3.933zm18.61-7.864l-.786-1.861 7.934-3.352.786 1.86-7.933 3.353z" fill="#6E7287" fill-rule="nonzero"/><path d="M33.23 112.004l-.558-1.941 9.71-2.788.557 1.942-9.71 2.787zm19.418-5.575l-.557-1.942 9.71-2.788.557 1.942-9.71 2.788zm19.42-5.576l-.558-1.942 9.71-2.788.557 1.942-9.71 2.788zm18.943-4.65l.445-1.971 9.853 2.229-.446 1.97-9.852-2.229zm19.705 4.457l.446-1.97 9.853 2.229-.446 1.97-9.853-2.229zm19.706 4.459l.446-1.97 9.852 2.228-.445 1.97-9.853-2.228zm19.705 4.458l.446-1.97 9.853 2.228-.446 1.971-9.853-2.23zm19.706 4.458l.446-1.97 9.853 2.229-.446 1.97-9.853-2.229zm20.11 3.33l-.249-2.005 10.025-1.243.249 2.005-10.025 1.243zm20.05-2.486l-.249-2.005 10.025-1.243.249 2.005-10.025 1.243zm20.05-2.486l-.249-2.005 10.025-1.243.249 2.005-10.025 1.243z" fill="#6E7287" fill-rule="nonzero"/><path d="M32.55 111.96l.802-1.854 9.271 4.01-.802 1.855-9.271-4.01zm18.543 8.02l.802-1.854 9.272 4.01-.802 1.854-9.272-4.01zM69.637 128l.802-1.854 9.272 4.01-.802 1.854-9.272-4.01zm18.544 8.02l.802-1.854 9.272 4.01-.802 1.854-9.272-4.01zm19.454 5.543l-.128-2.016 10.082-.638.127 2.016-10.081.638zm20.163-1.276l-.127-2.016 10.081-.638.128 2.016-10.082.638zm20.163-1.276l-.127-2.016 10.081-.638.128 2.016-10.082.638zm20.164-1.275l-.128-2.017 10.082-.638.127 2.017-10.081.638zm19.527-.357l.798-1.856 9.28 3.99-.798 1.857-9.28-3.99zm18.56 7.981l.799-1.856 9.28 3.99-.798 1.856-9.28-3.99zm18.561 7.98l.798-1.855 9.28 3.99-.798 1.856-9.28-3.99zm18.56 7.982l.799-1.856 4.384 1.885-.799 1.856-4.383-1.885z" fill="#6E7287" fill-rule="nonzero"/><path fill="#2A3052" fill-rule="nonzero" d="M259.352 108.801v-1.515h34.85v1.515z"/><ellipse cx="8.219" cy="8.518" rx="8.219" ry="8.518" opacity=".6" transform="translate(239.402 48.24)" fill="#FFF"/><ellipse cx="8.219" cy="8.518" rx="8.219" ry="8.518" opacity=".6" transform="translate(239.402 100.505)" fill="#FFF"/><ellipse cx="8.219" cy="8.518" rx="8.219" ry="8.518" opacity=".6" transform="translate(240.412 153.776)" fill="#FFF"/><path d="M247.621 66.5c-5.225 0-9.442-4.371-9.442-9.742 0-5.37 4.217-9.742 9.442-9.742 5.226 0 9.443 4.371 9.443 9.742 0 5.37-4.217 9.742-9.443 9.742zm0-2.447c3.854 0 6.997-3.257 6.997-7.295s-3.143-7.295-6.997-7.295c-3.853 0-6.996 3.257-6.996 7.295s3.143 7.295 6.996 7.295zm0 54.712c-5.225 0-9.442-4.371-9.442-9.742 0-5.37 4.217-9.741 9.442-9.741 5.226 0 9.443 4.37 9.443 9.741 0 5.37-4.217 9.742-9.443 9.742zm0-2.447c3.854 0 6.997-3.256 6.997-7.295 0-4.038-3.143-7.295-6.997-7.295-3.853 0-6.996 3.257-6.996 7.295 0 4.039 3.143 7.295 6.996 7.295zm1.011 55.717c-5.225 0-9.443-4.37-9.443-9.741 0-5.37 4.218-9.742 9.443-9.742s9.442 4.371 9.442 9.742c0 5.37-4.217 9.741-9.442 9.741zm0-2.446c3.853 0 6.996-3.257 6.996-7.295 0-4.039-3.143-7.295-6.996-7.295-3.854 0-6.996 3.256-6.996 7.295 0 4.038 3.142 7.295 6.996 7.295z" fill="#E88024" fill-rule="nonzero"/><ellipse fill="#FFF" opacity=".916" cx="35.026" cy="110.916" rx="8.11" ry="8.432"/><path d="M35.026 120.555c-5.156 0-9.316-4.325-9.316-9.639 0-5.313 4.16-9.638 9.316-9.638 5.156 0 9.317 4.325 9.317 9.638 0 5.314-4.16 9.64-9.317 9.64zm0-2.414c3.801 0 6.903-3.224 6.903-7.225 0-4-3.102-7.224-6.903-7.224-3.801 0-6.902 3.224-6.902 7.224s3.1 7.225 6.902 7.225z" fill="#E88024" fill-rule="nonzero"/><path d="M276.646 122.687h-5.174l.13-.79 3.093-3.106c.55-.555.933-.997 1.146-1.327.213-.33.348-.667.407-1.011.07-.438.017-.799-.158-1.084-.176-.285-.448-.428-.815-.428-.52 0-.936.153-1.25.46-.315.307-.515.73-.601 1.269h-1.078l-.012-.035c.105-.762.431-1.386.978-1.873.547-.486 1.248-.729 2.104-.729.687 0 1.215.226 1.582.677.367.45.496 1.018.387 1.702a3.348 3.348 0 0 1-.595 1.403c-.319.451-.757.95-1.316 1.497l-2.46 2.438.011.035h3.768l-.147.902zm-8.528-63.492c.054-.33-.005-.606-.175-.83-.17-.224-.479-.425-.926-.604-.637-.219-1.1-.51-1.386-.876-.286-.365-.381-.852-.285-1.46.097-.613.33-1.1.701-1.464.371-.364.84-.581 1.405-.653l.188-1.187h.827l-.193 1.198c.526.093.911.355 1.155.784.243.43.31.997.198 1.703h-1.031c.079-.505.043-.903-.107-1.195-.15-.292-.409-.438-.774-.438-.362 0-.659.112-.891.336-.233.224-.378.523-.436.9-.057.357-.004.641.159.85.163.21.486.412.97.605.644.236 1.102.53 1.374.883.273.353.36.832.264 1.437-.104.638-.354 1.134-.75 1.488-.395.355-.901.564-1.517.628l-.161 1.032h-.827l.16-1.032c-.54-.071-.964-.301-1.272-.69-.308-.388-.401-.955-.28-1.7h1.037c-.093.573-.037.972.17 1.195.205.224.494.336.867.336.404 0 .746-.112 1.023-.336.278-.223.449-.527.513-.91zm7.02-.961c-.215 1.063-.574 1.845-1.077 2.344-.503.5-1.122.75-1.856.75-.67 0-1.171-.272-1.506-.814-.335-.543-.404-1.303-.207-2.28l.37-1.853c.212-1.06.572-1.842 1.08-2.345a2.543 2.543 0 0 1 1.859-.755c.673 0 1.174.273 1.503.817.33.544.398 1.305.205 2.283l-.371 1.853zm-.623-2.079c.143-.72.139-1.24-.013-1.56-.153-.32-.442-.481-.868-.481-.39 0-.737.174-1.04.524-.302.349-.52.855-.652 1.517l-.456 2.293c-.144.72-.138 1.242.016 1.566.154.324.444.486.87.486.39 0 .735-.175 1.034-.526.299-.351.516-.86.652-1.526l.457-2.293z" fill="#2A3052" fill-rule="nonzero"/><path d="M16.72 16.383v4.043h-1.78V9.762h4.168c1.176 0 2.098.304 2.765.912.666.608 1 1.407 1 2.398 0 1.001-.334 1.803-1 2.406-.667.604-1.589.905-2.765.905H16.72zm0-1.428h2.388c.659 0 1.155-.176 1.487-.528.332-.351.498-.798.498-1.34s-.166-.994-.498-1.355c-.332-.361-.828-.542-1.487-.542H16.72v3.765zm12.62 4.314c-.25.42-.564.743-.945.97-.381.227-.82.34-1.319.34-.85 0-1.513-.27-1.992-.812-.478-.542-.717-1.384-.717-2.527v-4.739h1.771v4.754c0 .693.112 1.179.337 1.457.225.278.564.418 1.018.418.43 0 .79-.077 1.08-.231.29-.154.52-.377.685-.67v-5.728h1.78v7.925h-1.553l-.146-1.157h.001zm5.771-8.694v1.926h1.421v1.319h-1.42v4.38c0 .327.07.56.212.699.141.14.33.209.564.209.187-.002.373-.034.55-.095l.19 1.303c-.17.09-.354.155-.543.194-.21.047-.427.07-.652.07-.654 0-1.167-.192-1.538-.575-.37-.383-.556-.985-.556-1.806v-4.38H32.13v-1.318h1.209v-1.925h1.772v-.001zm12.744 7.112c0-.445-.165-.808-.494-1.092-.33-.283-.912-.537-1.747-.761-1.191-.313-2.108-.727-2.75-1.242-.642-.515-.963-1.19-.963-2.025 0-.86.355-1.567 1.065-2.124.71-.557 1.628-.835 2.75-.835 1.172 0 2.114.315 2.824.945.71.63 1.054 1.387 1.03 2.27l-.015.044h-1.707c0-.546-.186-.99-.557-1.329-.37-.34-.9-.509-1.589-.509-.65 0-1.149.142-1.498.425a1.35 1.35 0 0 0-.524 1.098c0 .406.19.743.568 1.011.379.269 1.005.523 1.879.762 1.147.308 2.019.732 2.615 1.274.595.542.893 1.233.893 2.073 0 .889-.355 1.596-1.066 2.12-.71.525-1.644.788-2.801.788-1.113 0-2.09-.294-2.93-.883-.84-.588-1.247-1.395-1.223-2.42l.015-.044h1.714c0 .65.224 1.134.673 1.453.45.32 1.033.48 1.75.48.66 0 1.173-.133 1.539-.399.366-.266.55-.626.55-1.08h-.001zm10.371-.96c0 1.153-.27 2.083-.813 2.79-.542.709-1.296 1.063-2.263 1.063-.449 0-.847-.08-1.194-.242a2.457 2.457 0 0 1-.893-.71v3.845h-1.78V12.501h1.501l.176.996c.254-.37.56-.654.92-.85.358-.195.775-.292 1.248-.292.977 0 1.737.387 2.282 1.16.544.775.816 1.794.816 3.058v.154zm-1.772-.154c0-.81-.153-1.473-.458-1.988-.305-.515-.76-.773-1.366-.773-.37 0-.686.08-.945.238a1.76 1.76 0 0 0-.622.663v3.582c.156.278.364.492.622.64.26.15.579.224.96.224.605 0 1.058-.223 1.358-.67.3-.447.45-1.034.45-1.762v-.154h.001zm7.273-2.468l-.762-.03c-.347 0-.636.074-.868.22a1.447 1.447 0 0 0-.538.623v5.508h-1.78v-7.925h1.626l.117 1.15c.2-.405.458-.723.773-.952.315-.23.677-.344 1.088-.344.107 0 .207.008.3.025s.178.038.256.063l-.212 1.662zm4.643 6.475c-1.123 0-2.017-.368-2.684-1.102-.666-.735-1-1.679-1-2.831v-.293c0-1.153.331-2.108.993-2.868.661-.759 1.49-1.136 2.486-1.131 1.07 0 1.889.323 2.458.97.568.647.853 1.515.853 2.604v1.047h-4.944l-.015.037c.03.63.214 1.145.553 1.545.34.4.81.6 1.41.6.479 0 .889-.058 1.23-.175.343-.117.672-.286.99-.505l.57 1.164c-.297.264-.693.486-1.186.667-.493.18-1.064.27-1.714.27v.001zm-.205-6.797c-.44 0-.8.174-1.084.524-.283.349-.459.792-.527 1.329l.015.037h3.142v-.184c0-.502-.128-.913-.385-1.23-.256-.317-.643-.476-1.16-.476h-.001zm9.515 6.643a6.568 6.568 0 0 1-.158-.586c-.041-.19-.07-.38-.084-.571-.25.377-.579.696-.963.934a2.45 2.45 0 0 1-1.337.377c-.825 0-1.459-.213-1.9-.637-.443-.425-.663-1.009-.663-1.75 0-.767.302-1.364.908-1.792.605-.427 1.457-.64 2.556-.64h1.384v-.696c0-.415-.122-.74-.366-.974-.244-.235-.593-.352-1.047-.352-.406 0-.728.098-.967.293a.93.93 0 0 0-.36.754H72.97l-.007-.044c-.034-.625.245-1.179.838-1.662.594-.484 1.366-.725 2.318-.725.923 0 1.668.234 2.234.703.567.469.85 1.142.85 2.021v3.523c0 .327.022.641.066.941.044.3.115.595.212.883H77.68zm-2.183-1.274c.45 0 .853-.113 1.212-.337.359-.225.597-.481.714-.77v-1.171H76.01c-.518 0-.923.128-1.216.384-.293.257-.44.558-.44.905 0 .303.1.543.297.721.198.178.48.268.846.268zm5.244-2.579c0-1.264.271-2.283.813-3.057.542-.774 1.304-1.161 2.285-1.161a2.5 2.5 0 0 1 1.154.26c.34.173.633.42.882.743V9h1.78v11.426h-1.494l-.176-.981a2.62 2.62 0 0 1-.915.846c-.357.192-.772.289-1.245.289-.972 0-1.729-.354-2.271-1.062-.542-.708-.813-1.638-.813-2.79v-.155zm1.78.154c0 .733.14 1.316.421 1.75.28.435.726.653 1.337.653.376 0 .694-.081.955-.242.27-.17.49-.408.641-.689v-3.457a1.874 1.874 0 0 0-.644-.684 1.742 1.742 0 0 0-.938-.246c-.605 0-1.052.255-1.34.766-.288.51-.432 1.175-.432 1.995v.154z" fill="#000" fill-rule="nonzero"/><path d="M261.445 166.444l-.564 2.838h-.938l1.414-7.075h2.552c.654 0 1.149.198 1.484.593.335.395.441.904.318 1.526-.139.683-.436 1.207-.891 1.572-.456.364-1.041.546-1.757.546h-1.618zm.15-.748h1.619c.401 0 .742-.131 1.023-.394a1.77 1.77 0 0 0 .536-.967c.081-.414.042-.747-.119-.998-.16-.251-.459-.377-.896-.377h-1.614l-.549 2.736zm7.124 3.586c0-.158.004-.289.01-.39.007-.103.018-.207.034-.314a3.02 3.02 0 0 1-.746.576c-.28.153-.561.23-.843.23-.48 0-.833-.143-1.062-.43-.228-.286-.292-.67-.192-1.149.104-.534.367-.935.79-1.203.423-.267.965-.4 1.626-.4h.899l.102-.52c.064-.328.029-.576-.107-.746-.136-.17-.363-.256-.68-.256-.273 0-.519.08-.74.24-.22.161-.35.348-.393.562h-.89l-.009-.029c.065-.405.308-.76.729-1.067.421-.306.923-.459 1.506-.459.522 0 .934.155 1.237.464.303.31.4.743.29 1.3l-.506 2.532a4.9 4.9 0 0 0-.088.55c-.016.17-.016.34 0 .51h-.967v-.001zm-1.244-.7c.263 0 .53-.076.802-.228.272-.152.483-.332.632-.54l.194-.966h-.928c-.32 0-.609.099-.865.296-.256.198-.408.425-.457.68-.051.25-.027.439.073.567.1.128.284.192.55.192l-.001-.001zm5.23-1.248l.024.597.029.005 1.953-3.912h1.045l-3.256 6.065c-.2.353-.444.66-.729.923a1.443 1.443 0 0 1-1.01.394 2.811 2.811 0 0 1-.535-.078l.248-.753.14.01c.14.01.226.014.258.014.169 0 .338-.097.508-.291.17-.195.307-.39.41-.583l.321-.55-.782-5.15h1.05l.325 3.309h.001zm3.056-.73c.13-.81.427-1.458.892-1.945a2.285 2.285 0 0 1 1.722-.732c.655 0 1.145.254 1.47.76.326.508.427 1.147.304 1.918l-.015.107c-.132.813-.431 1.462-.896 1.946a2.293 2.293 0 0 1-1.723.726c-.654 0-1.144-.252-1.47-.758-.325-.505-.425-1.143-.299-1.914l.015-.107v-.001zm.923.108c-.094.58-.065 1.045.085 1.397.15.351.438.527.863.527.395 0 .732-.184 1.01-.552.28-.367.462-.825.55-1.372l.014-.107c.091-.57.06-1.034-.092-1.39-.152-.356-.437-.535-.855-.535-.399 0-.737.185-1.014.554-.277.37-.459.826-.546 1.37l-.015.108zm7.25 2.57l.083-.719c-.189.253-.43.461-.707.612a1.83 1.83 0 0 1-.867.21c-.502 0-.874-.187-1.116-.56-.24-.372-.285-.939-.133-1.7l.617-3.1h.938l-.622 3.11c-.12.596-.127.99-.02 1.183.107.192.323.289.647.289.288 0 .55-.071.785-.214a1.84 1.84 0 0 0 .595-.593l.753-3.776h.938l-1.05 5.258h-.841zm4.724-6.526l-.258 1.268h.91l-.142.71h-.908l-.637 3.193c-.055.262-.047.44.024.532.072.092.187.138.345.138.075 0 .165-.007.27-.022.105-.014.189-.03.25-.046l-.005.656c-.124.07-.26.118-.4.144-.169.036-.34.055-.513.055-.34 0-.602-.12-.785-.36-.183-.239-.224-.605-.124-1.097l.637-3.193h-.768l.14-.71h.769l.257-1.268h.938zm-30.527 19.451c.278 0 .545-.098.799-.296.254-.198.404-.437.45-.72h.84l.01.03c-.065.473-.318.88-.758 1.222-.44.342-.927.513-1.458.513-.687 0-1.187-.253-1.502-.758-.314-.506-.411-1.13-.291-1.871l.034-.204c.12-.775.407-1.406.862-1.893.456-.488 1.044-.732 1.767-.732.557 0 .994.183 1.31.547.315.365.425.81.327 1.339l-.01.024h-.85c.055-.337 0-.614-.165-.83-.165-.218-.408-.326-.729-.326-.44 0-.792.183-1.054.549-.263.366-.435.806-.515 1.322l-.035.204c-.087.557-.064 1.01.069 1.358.132.348.432.522.899.522zm3.095-2.03c.13-.81.427-1.46.892-1.947a2.285 2.285 0 0 1 1.722-.732c.655 0 1.145.254 1.47.761.326.507.427 1.146.304 1.917l-.014.107c-.133.813-.432 1.462-.897 1.946a2.293 2.293 0 0 1-1.723.727c-.654 0-1.144-.253-1.47-.758-.325-.506-.425-1.144-.299-1.915l.015-.107v.001zm.923.106c-.094.58-.065 1.046.085 1.397.151.352.439.527.863.527.395 0 .732-.184 1.01-.551.28-.368.462-.826.55-1.373l.014-.107c.091-.57.06-1.033-.092-1.39-.152-.356-.437-.534-.855-.534-.399 0-.736.184-1.013.554-.277.369-.46.826-.547 1.37l-.015.107zm5.924-2.06c.204-.234.44-.413.71-.537a2.08 2.08 0 0 1 .889-.188c.295 0 .543.08.746.239.202.158.336.395.4.71.208-.299.454-.531.74-.698.284-.167.599-.25.942-.25.463 0 .81.187 1.04.56.23.375.274.925.131 1.65l-.627 3.145h-.942l.631-3.154c.107-.557.104-.934-.01-1.13-.113-.196-.335-.294-.665-.294-.266 0-.517.117-.753.352a2.066 2.066 0 0 0-.52.877v.01l-.666 3.339h-.943l.632-3.154c.104-.528.097-.898-.02-1.108-.116-.21-.336-.316-.66-.316-.247 0-.467.062-.661.187-.203.134-.374.31-.5.518l-.778 3.873h-.938l1.05-5.258h.835l-.063.627zm10.958 2.298c-.162.81-.435 1.418-.819 1.825-.383.406-.878.61-1.484.61-.282 0-.535-.054-.76-.16a1.424 1.424 0 0 1-.557-.467l-.51 2.546h-.938l1.453-7.28h.807l-.034.52a1.93 1.93 0 0 1 1.433-.617c.567 0 .987.28 1.261.841.274.56.33 1.254.168 2.08l-.02.102zm-.918-.102c.123-.628.104-1.143-.056-1.543-.16-.4-.453-.6-.877-.6-.217 0-.418.063-.603.19-.184.126-.351.3-.5.52l-.515 2.57c.084.204.21.364.379.479.168.115.384.172.646.172.386 0 .706-.151.962-.454.256-.303.438-.714.544-1.232l.02-.102zm2.59 2.435h-.938l1.516-7.581h.938l-1.516 7.58v.001zm3.513.102c-.66 0-1.16-.246-1.499-.737-.338-.49-.446-1.121-.323-1.892l.034-.214c.123-.778.43-1.408.921-1.89.49-.483 1.021-.725 1.591-.725.645 0 1.107.216 1.385.647.28.43.363 1 .253 1.705l-.097.598h-3.168c-.072.538-.022.966.148 1.283.17.318.46.476.872.476.53.003 1.045-.18 1.453-.52l.267.622c-.197.185-.45.339-.758.462-.345.13-.71.193-1.079.185zm.608-4.704c-.272 0-.535.136-.79.408a2.37 2.37 0 0 0-.547 1.01l.015.03h2.163l.019-.127c.062-.392.024-.71-.112-.954-.136-.245-.385-.367-.748-.367zm4.791-1.925l-.257 1.269h.909l-.141.71h-.91l-.636 3.192c-.055.262-.047.44.025.532.07.092.186.138.345.138.074 0 .164-.007.27-.021.105-.015.188-.03.25-.047l-.005.656c-.125.07-.26.119-.401.144-.169.037-.34.056-.513.056-.34 0-.602-.12-.785-.36-.183-.24-.224-.606-.124-1.098l.637-3.193h-.768l.141-.71h.768l.257-1.268h.938zm.982 3.85c.13-.81.427-1.46.892-1.947a2.285 2.285 0 0 1 1.722-.732c.655 0 1.145.254 1.47.761.326.507.427 1.146.304 1.917l-.014.107c-.133.813-.432 1.462-.897 1.946a2.293 2.293 0 0 1-1.723.727c-.654 0-1.144-.253-1.47-.758-.325-.506-.425-1.144-.299-1.915l.015-.107v.001zm.923.106c-.094.58-.065 1.046.085 1.397.151.352.438.527.863.527.395 0 .732-.184 1.01-.551.28-.368.462-.826.55-1.373l.014-.107c.091-.57.06-1.033-.092-1.39-.152-.356-.437-.534-.855-.534-.399 0-.736.184-1.013.554-.277.369-.46.826-.547 1.37l-.015.107zm-30.91-79.588l-.623 3.137h-1.037l1.563-7.82h2.82c.723 0 1.27.218 1.64.655.371.437.489.999.352 1.686-.153.756-.482 1.335-.985 1.738s-1.15.604-1.942.604h-1.788zm.166-.827h1.789c.444 0 .82-.145 1.13-.435.31-.29.508-.646.594-1.069.09-.458.046-.826-.132-1.104-.177-.277-.507-.416-.99-.416h-1.784l-.607 3.024zm7.874 3.964c0-.176.004-.32.01-.433a3.94 3.94 0 0 1 .039-.346 3.33 3.33 0 0 1-.825.636c-.31.17-.62.256-.932.256-.53 0-.92-.159-1.173-.476-.253-.317-.324-.74-.213-1.27.115-.59.406-1.034.873-1.33.468-.295 1.066-.443 1.797-.443h.994l.112-.574c.072-.362.033-.637-.118-.825-.15-.188-.4-.282-.752-.282-.3 0-.573.089-.816.266-.244.177-.389.384-.435.62h-.983l-.01-.032c.07-.447.34-.84.805-1.179.465-.338 1.02-.507 1.665-.507.576 0 1.032.17 1.367.513.335.342.441.82.32 1.437l-.56 2.798c-.046.218-.078.42-.096.607a2.967 2.967 0 0 0 0 .564h-1.069zm-1.375-.774c.29 0 .586-.084.886-.252.301-.168.534-.367.699-.596l.215-1.07h-1.026c-.355 0-.674.11-.956.328-.283.219-.452.47-.505.752-.058.276-.03.485.08.626.111.142.314.212.607.212zm5.78-1.38l.026.66.033.006 2.159-4.324h1.155l-3.6 6.703c-.221.39-.49.73-.805 1.02-.315.29-.687.436-1.117.436a3.107 3.107 0 0 1-.59-.086l.273-.833.156.011c.154.011.249.016.285.016.186 0 .373-.107.56-.322.189-.215.34-.43.455-.644l.354-.607-.865-5.694h1.16l.36 3.658h.001zm3.378-.806c.143-.895.472-1.612.986-2.15.513-.54 1.148-.81 1.904-.81.723 0 1.264.281 1.624.841.36.56.472 1.267.336 2.12l-.016.117c-.147.9-.477 1.616-.991 2.152-.514.535-1.149.803-1.904.803-.723 0-1.265-.28-1.625-.838-.36-.559-.47-1.264-.33-2.117l.016-.118zm1.02.118c-.103.641-.072 1.156.094 1.545.167.388.485.582.954.582.437 0 .809-.203 1.117-.61.308-.406.51-.911.607-1.517l.016-.118c.1-.63.066-1.142-.102-1.536-.168-.394-.483-.59-.945-.59-.44 0-.814.203-1.12.612-.306.408-.508.913-.604 1.514l-.017.118zm8.014 2.842l.091-.795a2.42 2.42 0 0 1-.781.677 2.023 2.023 0 0 1-.959.23c-.555 0-.966-.205-1.232-.617-.267-.412-.316-1.039-.148-1.88l.682-3.427h1.037l-.688 3.438c-.132.659-.14 1.095-.021 1.308.118.213.356.32.714.32.319 0 .608-.08.867-.237.26-.158.48-.376.658-.655l.833-4.174h1.036l-1.16 5.812h-.929zm5.22-7.214l-.284 1.402h1.005l-.156.784h-1.005l-.703 3.53c-.061.29-.052.485.027.587.078.102.206.153.381.153.082 0 .182-.008.298-.024.116-.016.209-.033.277-.05l-.006.724a1.46 1.46 0 0 1-.443.159 2.69 2.69 0 0 1-.566.062c-.376 0-.666-.133-.868-.398-.202-.265-.248-.67-.137-1.214l.704-3.529h-.849l.156-.784h.849l.284-1.402h1.037-.001zM31.7 61.426l1.563-7.82h2.406c.713 0 1.26.179 1.644.537.383.358.505.884.365 1.579a1.89 1.89 0 0 1-.494.95c-.26.269-.58.471-.935.591.42.1.717.333.895.696.177.363.217.783.12 1.26-.154.762-.478 1.32-.972 1.675s-1.12.532-1.88.532H31.7zm1.767-3.668l-.564 2.84h1.676c.404 0 .758-.12 1.06-.362.303-.241.5-.577.589-1.007.093-.487.067-.854-.078-1.1-.145-.248-.429-.371-.851-.371h-1.832zm.167-.828h1.584c.322 0 .622-.11.9-.33.277-.22.453-.52.529-.9.09-.447.036-.77-.159-.966-.195-.197-.523-.296-.985-.296h-1.37l-.5 2.492h.001zm7.81 4.496c0-.175.003-.32.01-.432.007-.113.02-.229.037-.347a3.33 3.33 0 0 1-.824.637c-.31.17-.62.255-.932.255-.53 0-.921-.159-1.174-.476-.252-.316-.323-.74-.212-1.27.115-.59.406-1.034.873-1.33.467-.295 1.066-.442 1.797-.442h.993l.113-.575c.072-.362.032-.636-.118-.824-.15-.188-.401-.282-.752-.282-.3 0-.573.088-.816.265-.244.178-.389.384-.435.62h-.983l-.011-.031c.072-.448.34-.841.806-1.18.465-.338 1.02-.507 1.665-.507.576 0 1.032.171 1.367.513.334.342.44.82.32 1.437l-.56 2.798a5.55 5.55 0 0 0-.096.607 2.967 2.967 0 0 0 0 .564h-1.069.001zm-1.376-.773c.29 0 .586-.085.886-.253.301-.168.534-.367.699-.596l.214-1.069h-1.025c-.355 0-.674.11-.957.328-.282.218-.45.469-.504.752-.058.275-.03.484.08.625.111.142.313.213.607.213zm7.364-4.104l-.57-.032c-.236 0-.453.067-.652.201a1.772 1.772 0 0 0-.518.567l-.828 4.141h-1.036l1.16-5.812h.93l-.065.78c.2-.284.427-.502.68-.656a1.535 1.535 0 0 1 1.232-.172l-.333.983zm3.647 0l-.57-.032c-.236 0-.453.067-.652.201a1.772 1.772 0 0 0-.518.567l-.828 4.141h-1.036l1.16-5.812h.93l-.065.78c.2-.284.427-.502.68-.656a1.535 1.535 0 0 1 1.232-.172l-.333.983zm1.159 4.877h-1.037l1.16-5.812h1.037l-1.159 5.812h-.001zm1.46-7.3h-1.036l.215-1.079h1.037l-.215 1.08-.001-.001zm2.423 7.413c-.73 0-1.283-.271-1.657-.814-.374-.542-.493-1.24-.357-2.092l.038-.236c.136-.86.475-1.556 1.018-2.09.542-.533 1.128-.8 1.759-.8.712 0 1.222.238 1.53.714.308.477.401 1.105.28 1.886l-.108.66h-3.502c-.079.595-.024 1.067.164 1.418s.51.527.964.527c.315 0 .61-.053.886-.159.276-.105.516-.244.72-.416l.296.687a2.68 2.68 0 0 1-.838.51c-.34.137-.738.205-1.193.205zm.672-5.2c-.301 0-.592.151-.873.452-.281.3-.483.673-.604 1.117l.016.032h2.39l.021-.14c.068-.433.027-.785-.123-1.055-.15-.27-.426-.405-.827-.405v-.001zm6.08.21l-.57-.032c-.236 0-.453.067-.652.201a1.772 1.772 0 0 0-.518.567l-.827 4.141H59.27l1.16-5.812h.93l-.065.78c.2-.284.427-.502.68-.656a1.535 1.535 0 0 1 1.232-.172l-.333.983h-.001zm3.352 4.877c0-.175.004-.32.011-.432a3.91 3.91 0 0 1 .038-.347 3.33 3.33 0 0 1-.825.637c-.31.17-.62.255-.932.255-.53 0-.92-.159-1.173-.476-.253-.316-.323-.74-.212-1.27.114-.59.405-1.034.872-1.33.468-.295 1.067-.442 1.797-.442h.994l.112-.575c.072-.362.033-.636-.118-.824-.15-.188-.4-.282-.752-.282-.3 0-.573.088-.816.265-.244.178-.389.384-.435.62h-.983l-.01-.031c.07-.448.34-.841.805-1.18.465-.338 1.02-.507 1.665-.507.576 0 1.032.171 1.367.513.335.342.441.82.32 1.437l-.56 2.798a5.55 5.55 0 0 0-.096.607 2.967 2.967 0 0 0 0 .564h-1.069zm-1.375-.773c.29 0 .586-.085.887-.253.3-.168.533-.367.698-.596l.215-1.069h-1.026c-.355 0-.673.11-.956.328-.283.218-.451.469-.505.752-.057.275-.03.484.08.625.111.142.314.213.607.213zm9.824-.769c.04-.24-.009-.433-.145-.58-.136-.146-.419-.275-.849-.386-.633-.154-1.098-.364-1.393-.629-.296-.265-.406-.623-.33-1.074.078-.49.33-.898.757-1.222.426-.324.943-.486 1.552-.486.609 0 1.078.176 1.407.526.33.351.448.772.355 1.263l-.017.032h-.993a.843.843 0 0 0-.172-.69c-.158-.2-.394-.298-.71-.298-.321 0-.583.083-.783.25a.95.95 0 0 0-.355.593c-.04.24.003.422.126.548.124.125.404.241.841.349.662.157 1.139.371 1.429.642.29.27.399.633.327 1.087a1.852 1.852 0 0 1-.784 1.265c-.437.31-.974.465-1.611.465-.666 0-1.175-.19-1.525-.57-.351-.38-.477-.816-.376-1.31l.01-.032h.994c-.047.376.034.65.242.824.207.174.469.26.784.26.326 0 .6-.076.824-.23a.876.876 0 0 0 .395-.597zm5.452 1.542l.091-.795a2.43 2.43 0 0 1-.781.677 2.023 2.023 0 0 1-.96.23c-.554 0-.965-.205-1.232-.617-.267-.412-.316-1.038-.148-1.88l.683-3.427h1.036l-.687 3.438c-.133.659-.14 1.095-.022 1.308.118.213.356.32.715.32.318 0 .607-.08.867-.237.26-.157.479-.376.658-.655l.832-4.174h1.037l-1.16 5.812h-.93.001zm7.557-2.578c-.18.895-.48 1.567-.905 2.017-.425.45-.971.674-1.641.674-.312 0-.592-.06-.84-.177a1.574 1.574 0 0 1-.616-.516l-.564 2.814h-1.036l1.606-8.046h.891l-.037.575c.215-.222.455-.391.722-.507.267-.117.554-.175.862-.175.627 0 1.091.31 1.394.93.303.619.364 1.385.185 2.298l-.021.113zm-1.015-.113c.136-.695.115-1.263-.062-1.705-.177-.442-.5-.664-.97-.664-.24 0-.461.07-.666.21-.204.14-.388.331-.553.575l-.57 2.84c.094.227.234.403.42.53.186.127.424.19.714.19.426 0 .78-.167 1.064-.502.283-.334.483-.788.601-1.361l.022-.113zm4.082 2.804c-.73 0-1.283-.271-1.657-.814-.374-.542-.494-1.24-.357-2.092l.037-.236c.136-.86.475-1.556 1.018-2.09.542-.533 1.129-.8 1.759-.8.713 0 1.223.238 1.53.714.309.477.402 1.105.28 1.886l-.107.66h-3.502c-.08.595-.024 1.067.164 1.418s.509.527.964.527c.315 0 .61-.053.886-.159a2.48 2.48 0 0 0 .72-.416l.295.687a2.68 2.68 0 0 1-.838.51c-.34.137-.738.205-1.192.205zm.671-5.2c-.3 0-.592.151-.873.452-.28.3-.482.673-.604 1.117l.016.032h2.39l.022-.14c.068-.433.027-.785-.124-1.055-.15-.27-.426-.405-.827-.405v-.001zm6.08.21l-.57-.032c-.235 0-.453.067-.652.201a1.772 1.772 0 0 0-.518.567l-.827 4.141h-1.037l1.16-5.812h.93l-.065.78c.2-.284.427-.502.68-.656a1.535 1.535 0 0 1 1.232-.172l-.333.983zm1.16 4.877h-1.036l1.16-5.812h1.036l-1.16 5.812zm1.461-7.3h-1.036l.215-1.079h1.036l-.215 1.08v-.001zm.425 4.34c.143-.895.471-1.612.985-2.15.514-.54 1.149-.809 1.904-.809.724 0 1.265.28 1.625.84.36.561.472 1.267.336 2.12l-.016.118c-.147.898-.478 1.615-.991 2.15-.514.536-1.149.804-1.904.804-.724 0-1.265-.28-1.625-.838-.36-.559-.47-1.264-.33-2.116l.016-.118v-.001zm1.02.119c-.104.64-.072 1.155.094 1.544.167.388.484.583.953.583.437 0 .81-.204 1.118-.61.308-.406.51-.912.607-1.517l.016-.118c.1-.63.066-1.143-.102-1.537-.169-.393-.484-.59-.946-.59-.44 0-.813.204-1.12.612-.306.408-.507.913-.604 1.515l-.016.118zm8.132-2.036l-.57-.032c-.236 0-.453.067-.652.201a1.772 1.772 0 0 0-.518.567l-.827 4.141h-1.037l1.16-5.812h.93l-.065.78c.2-.284.427-.502.68-.656a1.535 1.535 0 0 1 1.232-.172l-.333.983zm2.277 4.99c-.73 0-1.283-.271-1.657-.814-.374-.542-.493-1.24-.357-2.092l.038-.236c.136-.86.475-1.556 1.018-2.09.542-.533 1.128-.8 1.759-.8.712 0 1.222.238 1.53.714.308.477.401 1.105.28 1.886l-.108.66h-3.502c-.079.595-.024 1.067.164 1.418s.51.527.964.527c.315 0 .61-.053.886-.159.276-.105.516-.244.72-.416l.296.687a2.68 2.68 0 0 1-.838.51c-.34.137-.738.205-1.193.205zm.672-5.2c-.301 0-.592.151-.873.452-.281.3-.483.673-.604 1.117l.016.032h2.39l.021-.14c.068-.433.027-.785-.123-1.055-.15-.27-.426-.405-.827-.405v-.001zM34.2 171.027l1.563-7.82h2.406c.713 0 1.26.179 1.644.537.383.358.505.884.365 1.58a1.89 1.89 0 0 1-.494.95c-.26.268-.58.47-.935.59.42.1.717.333.895.696.177.364.217.783.12 1.26-.154.762-.478 1.321-.972 1.675-.494.355-1.12.532-1.88.532H34.2zm1.767-3.668l-.564 2.841h1.676c.404 0 .758-.12 1.06-.362.303-.242.5-.578.589-1.008.093-.487.067-.854-.078-1.1-.145-.248-.429-.371-.851-.371h-1.832zm.167-.827h1.584c.322 0 .622-.11.9-.33.277-.22.453-.52.529-.9.09-.448.036-.77-.159-.967-.195-.197-.523-.296-.985-.296h-1.37l-.5 2.493h.001zm7.81 4.495c0-.175.003-.32.01-.432.007-.113.02-.228.037-.347a3.33 3.33 0 0 1-.824.637c-.31.17-.62.255-.932.255-.53 0-.921-.158-1.174-.475-.252-.317-.323-.74-.212-1.27.115-.591.406-1.035.873-1.33.467-.295 1.066-.443 1.797-.443h.993l.113-.575c.072-.361.032-.636-.118-.824-.15-.188-.401-.282-.752-.282-.3 0-.573.088-.816.266-.244.177-.389.384-.435.62h-.983l-.011-.032c.072-.448.34-.84.806-1.18.465-.338 1.02-.507 1.665-.507.576 0 1.032.171 1.367.513.334.342.44.821.32 1.437l-.56 2.798a5.588 5.588 0 0 0-.096.607 2.967 2.967 0 0 0 0 .564h-1.069.001zm-1.376-.773c.29 0 .586-.084.886-.253.301-.168.534-.367.699-.596l.214-1.069h-1.025c-.355 0-.674.11-.957.328-.282.218-.45.469-.504.752-.058.276-.03.484.08.626.111.141.313.212.607.212zm7.364-4.104l-.57-.032c-.236 0-.453.067-.652.201a1.772 1.772 0 0 0-.518.567l-.828 4.141h-1.036l1.16-5.811h.93l-.065.778c.2-.282.427-.5.68-.655a1.535 1.535 0 0 1 1.232-.172l-.333.983zm3.647 0l-.57-.032c-.236 0-.453.067-.652.201a1.772 1.772 0 0 0-.518.567l-.828 4.141h-1.036l1.16-5.811h.93l-.065.778c.2-.282.427-.5.68-.655a1.535 1.535 0 0 1 1.232-.172l-.333.983zm1.16 4.877h-1.037l1.16-5.811h1.037l-1.16 5.811zm1.46-7.3h-1.036l.215-1.079h1.037l-.215 1.08-.001-.001zm2.423 7.413c-.73 0-1.283-.271-1.657-.814-.374-.542-.493-1.24-.357-2.092l.038-.236c.136-.86.475-1.556 1.018-2.09.542-.533 1.128-.8 1.759-.8.712 0 1.222.238 1.53.715.308.476.401 1.104.28 1.885l-.108.66h-3.502c-.079.595-.024 1.068.164 1.418.188.351.51.527.964.527.315 0 .61-.053.886-.159.276-.105.516-.244.72-.416l.296.688a2.68 2.68 0 0 1-.838.51c-.34.136-.738.204-1.193.204zm.672-5.2c-.301 0-.592.151-.873.452-.281.3-.483.673-.604 1.117l.016.032h2.39l.021-.14c.068-.433.027-.784-.123-1.055-.15-.27-.426-.405-.827-.405v-.001zm6.08.21l-.57-.032c-.236 0-.453.067-.652.201a1.772 1.772 0 0 0-.518.567l-.828 4.141H61.77l1.16-5.811h.93l-.065.778c.2-.282.427-.5.68-.655a1.535 1.535 0 0 1 1.232-.172l-.333.983zm3.351 4.877c0-.175.004-.32.011-.432.007-.113.02-.228.038-.347a3.33 3.33 0 0 1-.825.637c-.31.17-.62.255-.932.255-.53 0-.92-.158-1.173-.475-.253-.317-.323-.74-.212-1.27.114-.591.405-1.035.872-1.33.468-.295 1.067-.443 1.797-.443h.994l.112-.575c.072-.361.033-.636-.118-.824-.15-.188-.4-.282-.752-.282-.3 0-.573.088-.816.266-.244.177-.389.384-.435.62h-.983l-.01-.032c.07-.448.34-.84.805-1.18.465-.338 1.02-.507 1.665-.507.576 0 1.032.171 1.367.513.335.342.441.821.32 1.437l-.56 2.798a5.588 5.588 0 0 0-.096.607 2.967 2.967 0 0 0 0 .564h-1.069zm-1.375-.773c.29 0 .586-.084.887-.253.3-.168.533-.367.698-.596l.215-1.069h-1.026c-.355 0-.673.11-.956.328-.283.218-.451.469-.505.752-.057.276-.03.484.08.626.111.141.314.212.607.212zm7.482.773h-1.036l1.16-5.811h1.036l-1.16 5.811zm1.461-7.3h-1.035l.214-1.079h1.037l-.215 1.08-.001-.001zm2.084 2.289c.236-.294.504-.518.803-.674.3-.156.62-.234.964-.234.548 0 .955.186 1.22.559.264.372.322.936.171 1.692l-.735 3.668h-1.037l.73-3.647c.108-.544.093-.916-.043-1.114-.136-.199-.4-.298-.795-.298-.25 0-.499.076-.746.228a2.3 2.3 0 0 0-.65.61l-.843 4.221h-1.038l1.16-5.811h.93l-.092.8h.001zm4.35 5.011L83.732 166h-.838l.156-.784h.838l.15-.736c.13-.659.375-1.148.739-1.466.363-.32.824-.478 1.383-.478.107 0 .218.01.333.032.114.021.238.048.37.08l-.279.806a1.993 1.993 0 0 0-.467-.054.891.891 0 0 0-.669.282c-.18.188-.305.454-.373.798l-.15.736h1.1l-.155.784h-1.102l-1.005 5.027h-1.036zm5.356.113c-.73 0-1.283-.271-1.657-.814-.374-.542-.494-1.24-.357-2.092l.037-.236c.136-.86.476-1.556 1.018-2.09.542-.533 1.129-.8 1.759-.8.713 0 1.223.238 1.53.715.309.476.402 1.104.28 1.885l-.107.66h-3.502c-.08.595-.024 1.068.164 1.418.188.351.509.527.964.527.315 0 .61-.053.886-.159a2.48 2.48 0 0 0 .72-.416l.295.688a2.68 2.68 0 0 1-.838.51c-.34.136-.738.204-1.192.204zm.671-5.2c-.3 0-.592.151-.873.452-.28.3-.482.673-.604 1.117l.016.032h2.39l.022-.14c.068-.433.027-.784-.124-1.055-.15-.27-.426-.405-.827-.405v-.001zm6.08.21l-.57-.032c-.235 0-.453.067-.652.201a1.772 1.772 0 0 0-.518.567l-.827 4.141H91.23l1.16-5.811h.93l-.065.778c.2-.282.427-.5.68-.655a1.535 1.535 0 0 1 1.232-.172l-.333.983zm1.16 4.877h-1.036l1.16-5.811h1.037l-1.16 5.811h-.001zm1.461-7.3h-1.036l.215-1.079h1.036l-.215 1.08v-.001zm.425 4.34c.143-.894.471-1.611.985-2.15.514-.54 1.149-.809 1.904-.809.724 0 1.265.28 1.625.84.36.561.472 1.268.336 2.12l-.016.118c-.147.899-.478 1.616-.991 2.151-.514.535-1.149.803-1.904.803-.724 0-1.265-.28-1.625-.838-.36-.558-.47-1.264-.33-2.116l.016-.118v-.001zm1.02.119c-.104.64-.072 1.156.094 1.544.167.389.484.583.953.583.437 0 .81-.203 1.118-.61.308-.406.51-.912.607-1.517l.016-.118c.1-.63.066-1.143-.102-1.536-.169-.394-.484-.591-.946-.591-.44 0-.813.204-1.12.612-.306.408-.507.913-.604 1.515l-.016.118zm8.132-2.036l-.57-.032c-.236 0-.453.067-.652.201a1.772 1.772 0 0 0-.518.567l-.827 4.141h-1.037l1.16-5.811h.93l-.065.778c.2-.282.427-.5.68-.655a1.535 1.535 0 0 1 1.232-.172l-.333.983zm2.277 4.99c-.73 0-1.283-.271-1.657-.814-.374-.542-.493-1.24-.357-2.092l.038-.236c.136-.86.475-1.556 1.018-2.09.542-.533 1.128-.8 1.759-.8.712 0 1.222.238 1.53.715.308.476.401 1.104.28 1.885l-.108.66h-3.502c-.079.595-.024 1.068.164 1.418.188.351.51.527.964.527.315 0 .61-.053.886-.159.276-.105.516-.244.72-.416l.296.688a2.68 2.68 0 0 1-.838.51c-.34.136-.738.204-1.193.204zm.672-5.2c-.301 0-.592.151-.873.452-.281.3-.483.673-.604 1.117l.016.032h2.39l.021-.14c.068-.433.027-.784-.123-1.055-.15-.27-.426-.405-.827-.405v-.001zm115.55 14.322h-3.426v3.336h-1.306v-7.82h5.28v1.047h-3.974v2.39h3.426v1.047zm2.874 3.336H227.1v-5.812h1.305v5.812zm0-7.235H227.1v-1.144h1.305v1.144zm2.643 1.423l.075.838c.19-.297.429-.529.717-.695.288-.167.613-.25.975-.25.605 0 1.077.183 1.415.55.338.367.507.94.507 1.717v3.652h-1.305v-3.642c0-.437-.09-.747-.27-.932-.182-.184-.457-.276-.825-.276a1.367 1.367 0 0 0-1.177.634v4.216h-1.305v-5.812h1.193zm7.54 5.925c-.823 0-1.48-.27-1.968-.809-.489-.539-.733-1.23-.733-2.076v-.214c0-.846.242-1.546.728-2.103.485-.557 1.093-.834 1.823-.83.784 0 1.385.237 1.802.712.417.474.626 1.11.626 1.909v.768h-3.626l-.01.027c.021.462.156.84.405 1.133.249.294.594.44 1.034.44.351 0 .652-.042.902-.128a3 3 0 0 0 .726-.37l.419.853c-.219.194-.509.356-.87.489a3.66 3.66 0 0 1-1.257.199h-.001zm-.15-4.985a.98.98 0 0 0-.795.384c-.207.256-.336.581-.386.975l.01.027h2.304v-.134c0-.37-.094-.67-.282-.903-.188-.232-.471-.349-.85-.349h-.001zM9.305 136.687H8v-7.82h1.305v7.82zm2.798-5.811l.075.838c.19-.298.429-.53.717-.696a1.92 1.92 0 0 1 .975-.25c.605 0 1.077.184 1.415.55.339.368.508.94.508 1.717v3.652h-1.305v-3.641c0-.437-.09-.748-.271-.932-.181-.185-.456-.277-.825-.277a1.367 1.367 0 0 0-1.176.634v4.216h-1.305v-5.811h1.192zm6.44 5.811h-1.305v-5.811h1.305v5.811zm0-7.235h-1.305v-1.144h1.305v1.144zm2.847 6.193h3.104v1.042h-4.721v-.854l2.933-3.905h-2.874v-1.052h4.523v.827l-2.965 3.942zm5.58 1.042h-1.305v-5.811h1.305v5.811zm0-7.235h-1.305v-1.144h1.305v1.144zm1.22 4.276c0-.863.236-1.572.708-2.127.48-.555 1.13-.833 1.95-.833.834 0 1.488.278 1.96.833.477.551.715 1.26.715 2.127v.113c0 .873-.238 1.586-.714 2.137-.473.548-1.123.822-1.95.822-.83 0-1.484-.276-1.96-.827-.473-.552-.71-1.262-.71-2.132v-.113h.001zm1.305.113c0 .565.11 1.027.333 1.385.218.355.562.532 1.03.532.456 0 .796-.177 1.021-.532.23-.358.344-.82.344-1.385v-.113c0-.555-.114-1.012-.344-1.37-.225-.361-.569-.542-1.03-.542-.456 0-.796.18-1.021.542-.222.362-.333.818-.333 1.37v.113z" fill="#2A3052" fill-rule="nonzero"/></g></svg>