<svg width="700" height="561" viewBox="0 0 700 561" xmlns="http://www.w3.org/2000/svg"><title>define position image</title><g fill="none" fill-rule="evenodd"><path d="M.001 87.85H120.69v52.3H0z" fill="#FEFDEE"/><path stroke="#DEDEDE" stroke-width="1.609" d="M.806 88.655l-.001 50.69h119.08v-50.69z"/><path d="M39.732 109.908h-4.045v11.218h-1.65v-11.218H30v-1.366h9.732v1.366zm5.489 3.301a4.792 4.792 0 0 0-.787-.06c-1.049 0-1.76.446-2.135 1.34v6.637H40.7v-9.351h1.556l.026 1.08c.524-.836 1.268-1.253 2.23-1.253.311 0 .547.04.709.12v1.487zm6.897 7.917c-.092-.184-.167-.512-.225-.985-.743.772-1.63 1.158-2.662 1.158-.922 0-1.678-.26-2.269-.782-.59-.521-.886-1.183-.886-1.984 0-.973.37-1.73 1.11-2.268.741-.54 1.783-.808 3.125-.808h1.556v-.735c0-.56-.167-1.004-.501-1.335-.334-.332-.827-.497-1.478-.497-.57 0-1.049.144-1.435.432-.386.288-.579.636-.579 1.046h-1.608c0-.467.166-.918.497-1.353.332-.435.781-.78 1.349-1.033a4.536 4.536 0 0 1 1.87-.38c1.078 0 1.923.27 2.533.808.611.539.928 1.28.951 2.225v4.305c0 .858.11 1.541.329 2.048v.138h-1.677zm-2.654-1.218c.502 0 .977-.13 1.426-.39.45-.258.775-.596.977-1.01v-1.92h-1.253c-1.96 0-2.939.574-2.939 1.72 0 .502.167.894.502 1.176.334.283.763.424 1.287.424zm6.12-3.535c0-1.435.34-2.589 1.02-3.462.68-.873 1.57-1.31 2.67-1.31 1.095 0 1.962.375 2.602 1.124v-4.874h1.599v13.275h-1.47l-.077-1.002c-.64.783-1.53 1.175-2.671 1.175-1.083 0-1.966-.443-2.65-1.33-.682-.888-1.023-2.046-1.023-3.475v-.121zm1.599.181c0 1.06.219 1.89.657 2.49.437.599 1.042.898 1.815.898 1.014 0 1.754-.455 2.22-1.365v-4.296c-.477-.882-1.212-1.322-2.203-1.322-.784 0-1.395.302-1.832.907-.438.605-.657 1.501-.657 2.688zm12.653 4.745c-1.267 0-2.299-.416-3.094-1.249-.795-.832-1.193-1.946-1.193-3.34v-.294c0-.928.177-1.756.532-2.485.354-.729.85-1.3 1.486-1.711a3.738 3.738 0 0 1 2.07-.618c1.216 0 2.161.4 2.835 1.201.675.801 1.012 1.948 1.012 3.44v.666h-6.336c.023.922.293 1.666.808 2.234.516.567 1.171.851 1.967.851.564 0 1.043-.115 1.434-.346.392-.23.735-.535 1.029-.916l.977.76c-.784 1.205-1.96 1.807-3.527 1.807zm-.199-8.384c-.645 0-1.187.235-1.624.705-.438.47-.71 1.128-.813 1.975h4.685v-.121c-.046-.813-.265-1.442-.657-1.889-.392-.446-.922-.67-1.59-.67zm12.248-3.405v2.265h1.746v1.236h-1.746v5.8c0 .374.078.655.233.842.156.187.42.28.795.28.185 0 .438-.034.76-.103v1.296c-.42.116-.829.173-1.226.173-.715 0-1.254-.216-1.617-.648-.363-.432-.544-1.046-.544-1.84v-5.8h-1.703v-1.236h1.703v-2.265h1.599zm6.672 9.274l2.178-7.01h1.712l-3.76 10.796c-.582 1.556-1.507 2.333-2.775 2.333l-.302-.025-.596-.113v-1.296l.432.034c.541 0 .963-.11 1.266-.328.302-.22.552-.62.748-1.202l.354-.95-3.336-9.248h1.746l2.333 7.01zm13.216-2.23c0 1.423-.326 2.57-.977 3.44-.651.87-1.533 1.305-2.645 1.305-1.135 0-2.028-.36-2.68-1.08v4.503h-1.598v-12.947h1.46l.078 1.037c.651-.807 1.556-1.21 2.714-1.21 1.124 0 2.013.423 2.667 1.27.654.847.98 2.026.98 3.535v.147zm-1.6-.181c0-1.055-.224-1.887-.674-2.498-.449-.61-1.065-.916-1.85-.916-.967 0-1.693.429-2.177 1.287v4.469c.478.853 1.21 1.28 2.195 1.28.767 0 1.376-.305 1.828-.913.452-.608.679-1.51.679-2.71zm7.512 4.926c-1.268 0-2.3-.416-3.095-1.249-.795-.832-1.192-1.946-1.192-3.34v-.294c0-.928.177-1.756.531-2.485.354-.729.85-1.3 1.487-1.711a3.738 3.738 0 0 1 2.07-.618c1.216 0 2.16.4 2.835 1.201.674.801 1.01 1.948 1.01 3.44v.666h-6.334c.023.922.292 1.666.808 2.234.515.567 1.17.851 1.966.851.565 0 1.043-.115 1.435-.346.392-.23.734-.535 1.028-.916l.977.76c-.784 1.205-1.96 1.807-3.526 1.807zm-.2-8.384c-.645 0-1.186.235-1.624.705-.438.47-.709 1.128-.813 1.975h4.685v-.121c-.046-.813-.265-1.442-.657-1.889-.392-.446-.922-.67-1.59-.67z" fill="#000" fill-rule="nonzero"/><g transform="translate(5 105.85)"><circle fill="#E98024" cx="10" cy="10" r="10"/><path d="M12.824 14.5H6.768v-.844l3.2-3.555c.473-.537.8-.974.98-1.31.18-.337.27-.685.27-1.045 0-.482-.146-.878-.438-1.187-.292-.309-.682-.463-1.168-.463-.584 0-1.038.166-1.362.498-.323.332-.485.795-.485 1.387H6.59c0-.85.274-1.538.822-2.063.548-.525 1.282-.787 2.2-.787.859 0 1.538.225 2.037.676.5.45.75 1.05.75 1.8 0 .91-.58 1.993-1.74 3.25l-2.475 2.685h4.64v.958z" fill="#FFF"/></g><path d="M.001 7H120.69v52.299H0z" fill="#FEFDEE"/><path stroke="#DEDEDE" stroke-width="1.609" d="M.806 7.805l-.001 50.69h119.08V7.804z"/><path d="M32.18 27.703l4.183 10.442 4.184-10.442h2.188V40.5h-1.687v-4.983l.158-5.38L37.005 40.5h-1.292L31.52 30.164l.166 5.353V40.5H30V27.703h2.18zM51.33 40.5c-.094-.188-.17-.521-.228-1.002-.756.785-1.659 1.178-2.707 1.178-.938 0-1.707-.265-2.308-.796-.6-.53-.9-1.202-.9-2.017 0-.99.376-1.759 1.129-2.307s1.812-.822 3.177-.822h1.582v-.747c0-.568-.17-1.02-.51-1.358-.34-.337-.84-.505-1.503-.505-.58 0-1.066.147-1.459.44-.392.292-.588.647-.588 1.063H45.38c0-.475.168-.933.505-1.376.337-.442.794-.792 1.371-1.05a4.613 4.613 0 0 1 1.903-.387c1.096 0 1.954.274 2.575.822.621.548.944 1.302.967 2.263v4.377c0 .873.111 1.568.334 2.083v.141h-1.705zm-2.698-1.24c.51 0 .993-.131 1.45-.395.457-.263.788-.606.993-1.028v-1.951h-1.274c-1.992 0-2.989.583-2.989 1.749 0 .51.17.908.51 1.195.34.287.777.43 1.31.43zm11.215-6.81a4.872 4.872 0 0 0-.8-.062c-1.067 0-1.79.454-2.171 1.362v6.75h-1.626v-9.51h1.582l.026 1.099c.534-.85 1.29-1.275 2.268-1.275.316 0 .557.041.72.123v1.512zm4.148 3.647l-1.02 1.063v3.34h-1.625V27h1.626v8.165l.87-1.046 2.962-3.129h1.977l-3.7 3.973 4.13 5.537H67.31l-3.314-4.403zm10.24 4.579c-1.29 0-2.339-.424-3.147-1.27-.809-.847-1.213-1.98-1.213-3.397v-.299c0-.943.18-1.786.54-2.527.36-.741.865-1.321 1.512-1.74a3.8 3.8 0 0 1 2.105-.629c1.237 0 2.197.408 2.883 1.222.686.815 1.028 1.98 1.028 3.498v.677h-6.442c.023.937.297 1.695.822 2.272.524.577 1.19.866 2 .866.573 0 1.06-.118 1.458-.352a3.666 3.666 0 0 0 1.046-.932l.993.774c-.797 1.224-1.992 1.837-3.586 1.837zm-.203-8.526c-.656 0-1.207.24-1.652.717-.445.477-.72 1.147-.826 2.008h4.763v-.123c-.047-.826-.27-1.466-.668-1.92-.398-.455-.937-.682-1.617-.682zm7.998-3.462v2.302h1.776v1.257H82.03v5.898c0 .38.08.666.238.856.158.19.427.286.808.286.188 0 .445-.035.774-.105V40.5a4.714 4.714 0 0 1-1.248.176c-.727 0-1.275-.22-1.644-.66-.37-.439-.554-1.063-.554-1.871v-5.898h-1.731V30.99h1.731v-2.302h1.626z" fill="#000"/><g transform="translate(5 24)"><circle fill="#E98024" cx="10" cy="10" r="10"/><path fill="#FFF" d="M10.627 14.5h-1.18V6.673l-2.368.87V6.477l3.364-1.264h.184z"/></g><g transform="translate(128.736 27.115)"><path d="M13.678 6.437H31.38" stroke="#E98024" stroke-width="1.609" stroke-linecap="square"/><circle fill="#E98024" fill-rule="nonzero" cx="6.437" cy="6.437" r="6.437"/></g><g transform="translate(128.736 190.678)"><path d="M13.678 6.437H31.38" stroke="#E98024" stroke-width="1.609" stroke-linecap="square"/><circle fill="#E98024" fill-rule="nonzero" cx="6.437" cy="6.437" r="6.437"/></g><g transform="translate(128.736 335.506)"><path d="M13.678 6.437H31.38" stroke="#E98024" stroke-width="1.609" stroke-linecap="square"/><circle fill="#E98024" fill-rule="nonzero" cx="6.437" cy="6.437" r="6.437"/></g><g transform="translate(128.736 472.287)"><path d="M13.678 6.437H31.38" stroke="#E98024" stroke-width="1.609" stroke-linecap="square"/><circle fill="#E98024" fill-rule="nonzero" cx="6.437" cy="6.437" r="6.437"/></g><path d="M0 171.368h120.69v52.299H0z" fill="#FEFDEE"/><path stroke="#DEDEDE" stroke-width="1.609" d="M.805 172.172v50.69h119.08v-50.69z"/><path d="M29.817 203.552v-12.585h3.552c1.095 0 2.063.242 2.904.726a4.91 4.91 0 0 1 1.95 2.066c.458.893.69 1.919.695 3.077v.804c0 1.187-.229 2.227-.687 3.12a4.833 4.833 0 0 1-1.962 2.057c-.85.478-1.84.723-2.969.735h-3.483zm1.66-11.22v9.863h1.745c1.28 0 2.275-.398 2.987-1.193.711-.795 1.067-1.927 1.067-3.397v-.734c0-1.43-.336-2.54-1.007-3.332-.671-.793-1.623-1.195-2.856-1.206h-1.937zm15.47 10.295c-.622.732-1.535 1.098-2.74 1.098-.996 0-1.755-.29-2.277-.869-.521-.58-.785-1.436-.79-2.571V194.2h1.599v6.041c0 1.418.576 2.127 1.728 2.127 1.222 0 2.034-.456 2.437-1.366V194.2h1.6v9.352h-1.522l-.034-.925zm8.506-6.992a4.792 4.792 0 0 0-.787-.06c-1.049 0-1.76.446-2.135 1.339v6.638h-1.599V194.2h1.556l.026 1.08c.524-.835 1.268-1.253 2.23-1.253.311 0 .547.04.709.121v1.487zm6.897 7.917c-.092-.185-.167-.513-.225-.986-.743.773-1.63 1.159-2.662 1.159-.922 0-1.678-.261-2.269-.783-.59-.521-.886-1.182-.886-1.983 0-.974.37-1.73 1.11-2.269.741-.539 1.783-.808 3.125-.808H62.1v-.735c0-.559-.167-1.004-.501-1.335-.334-.332-.827-.497-1.478-.497-.57 0-1.049.144-1.435.432-.386.288-.579.637-.579 1.046h-1.608c0-.467.166-.918.497-1.353.332-.435.781-.78 1.349-1.033a4.536 4.536 0 0 1 1.87-.38c1.078 0 1.923.27 2.533.808.611.539.928 1.28.951 2.226v4.304c0 .859.11 1.541.329 2.048v.139H62.35zm-2.654-1.219c.502 0 .977-.13 1.426-.389.45-.26.775-.596.977-1.011v-1.919h-1.253c-1.96 0-2.939.573-2.939 1.72 0 .501.167.893.502 1.176.334.282.763.423 1.287.423zm8.678-10.398v2.265h1.746v1.236h-1.746v5.8c0 .374.078.655.233.842.156.187.421.281.796.281.184 0 .438-.035.76-.104v1.297c-.42.115-.83.173-1.227.173-.715 0-1.253-.216-1.616-.649-.363-.432-.545-1.045-.545-1.84v-5.8h-1.703V194.2h1.703v-2.265h1.6zm5.35 11.617h-1.599V194.2h1.6v9.352zm-1.728-11.833c0-.259.079-.478.237-.657.159-.178.393-.268.705-.268.31 0 .547.09.708.268a.944.944 0 0 1 .242.657c0 .26-.08.476-.242.649-.161.172-.397.259-.708.259-.312 0-.546-.087-.705-.26a.923.923 0 0 1-.237-.648zm3.863 7.07c0-.916.18-1.74.54-2.472.36-.731.862-1.296 1.504-1.694.643-.397 1.376-.596 2.2-.596 1.273 0 2.303.44 3.09 1.322.786.882 1.18 2.055 1.18 3.518v.113c0 .91-.175 1.727-.523 2.45a3.97 3.97 0 0 1-1.496 1.69c-.648.403-1.393.605-2.234.605-1.268 0-2.295-.441-3.081-1.323-.787-.881-1.18-2.048-1.18-3.5v-.113zm1.608.19c0 1.038.24 1.87.721 2.498.481.628 1.125.942 1.932.942.813 0 1.458-.318 1.936-.955.478-.636.718-1.528.718-2.675 0-1.025-.244-1.856-.73-2.493-.488-.637-1.135-.955-1.941-.955-.79 0-1.426.314-1.91.942-.484.628-.726 1.527-.726 2.697zm10.423-4.78l.052 1.176c.715-.899 1.648-1.348 2.8-1.348 1.977 0 2.974 1.115 2.991 3.345v6.18h-1.599v-6.189c-.006-.674-.16-1.172-.462-1.495-.303-.323-.774-.484-1.414-.484-.518 0-.973.138-1.365.415-.392.276-.697.64-.916 1.089v6.664h-1.6V194.2h1.513z" fill="#000" fill-rule="nonzero"/><g transform="translate(5 186.85)"><circle fill="#E98024" cx="10" cy="10" r="10"/><path d="M8.476 9.308h.882c.554-.009.99-.155 1.308-.438.317-.284.476-.667.476-1.15 0-1.083-.54-1.624-1.62-1.624-.507 0-.912.145-1.215.435-.302.29-.453.673-.453 1.152H6.679c0-.732.268-1.34.803-1.825.535-.485 1.216-.727 2.04-.727.873 0 1.556.23 2.051.692.495.461.743 1.102.743 1.923 0 .402-.13.791-.39 1.168-.26.377-.615.658-1.064.844.508.161.9.428 1.178.8.277.373.416.827.416 1.365 0 .83-.271 1.487-.813 1.974-.542.487-1.246.73-2.114.73-.867 0-1.573-.235-2.117-.705-.543-.47-.815-1.09-.815-1.86h1.18c0 .487.159.876.476 1.168.318.292.743.438 1.276.438.567 0 1.001-.148 1.302-.444.3-.296.45-.721.45-1.276 0-.537-.165-.95-.495-1.238-.33-.287-.806-.435-1.428-.444h-.882v-.958z" fill="#FFF"/></g><path d="M0 313.782h120.69v52.298H0z" fill="#FEFDEE"/><path stroke="#DEDEDE" stroke-width="1.609" d="M.805 314.586v50.69h119.08v-50.69z"/><path d="M30 346.539v-12.585h4.114c1.366 0 2.393.283 3.081.847.689.565 1.033 1.4 1.033 2.507 0 .588-.167 1.108-.501 1.56-.334.452-.79.802-1.366 1.05.68.19 1.218.552 1.612 1.085.395.533.592 1.168.592 1.906 0 1.13-.366 2.016-1.097 2.662-.732.645-1.766.968-3.103.968H30zm1.66-5.886v4.529h2.74c.771 0 1.38-.2 1.827-.6.447-.401.67-.953.67-1.656 0-1.515-.824-2.273-2.472-2.273H31.66zm0-1.331h2.506c.726 0 1.307-.182 1.742-.545.435-.363.652-.855.652-1.478 0-.691-.202-1.194-.605-1.508-.403-.314-1.017-.47-1.84-.47h-2.456v4zm14.883 7.217c-.092-.185-.167-.513-.225-.985-.743.772-1.63 1.158-2.662 1.158-.922 0-1.678-.261-2.269-.782-.59-.522-.886-1.183-.886-1.984 0-.974.37-1.73 1.111-2.269.74-.539 1.782-.808 3.125-.808h1.555v-.735c0-.559-.167-1.004-.501-1.335-.334-.331-.827-.497-1.478-.497-.57 0-1.049.144-1.435.432-.386.288-.579.637-.579 1.046h-1.607c0-.467.165-.918.497-1.353.33-.435.78-.779 1.348-1.033a4.536 4.536 0 0 1 1.871-.38c1.078 0 1.922.27 2.533.808.61.539.927 1.28.95 2.226v4.304c0 .859.11 1.542.329 2.049v.138h-1.677zm-2.653-1.219c.5 0 .976-.13 1.426-.389.45-.259.775-.596.976-1.011v-1.919H45.04c-1.96 0-2.939.574-2.939 1.72 0 .502.167.893.502 1.176.334.282.763.423 1.288.423zm11.028-6.698a4.792 4.792 0 0 0-.786-.06c-1.05 0-1.76.446-2.135 1.339v6.638h-1.6v-9.352h1.557l.026 1.08c.524-.835 1.267-1.253 2.23-1.253.31 0 .547.04.708.121v1.487zm5.99 0a4.792 4.792 0 0 0-.787-.06c-1.048 0-1.76.446-2.135 1.339v6.638h-1.598v-9.352h1.555l.026 1.08c.525-.835 1.268-1.253 2.23-1.253.311 0 .548.04.709.121v1.487zm3.206 7.917h-1.599v-9.352h1.6v9.352zm-1.728-11.833c0-.259.08-.478.238-.656.158-.18.393-.268.704-.268.311 0 .547.089.709.268a.944.944 0 0 1 .242.656c0 .26-.081.476-.242.649-.162.173-.398.259-.71.259-.31 0-.545-.086-.703-.26a.923.923 0 0 1-.238-.648zm8.168 12.006c-1.268 0-2.3-.417-3.095-1.25-.795-.832-1.192-1.945-1.192-3.34v-.294c0-.927.177-1.756.531-2.485.355-.728.85-1.299 1.487-1.71a3.738 3.738 0 0 1 2.07-.619c1.216 0 2.16.4 2.835 1.202.674.8 1.011 1.947 1.011 3.44v.665h-6.335c.023.922.292 1.667.808 2.234.515.568 1.17.852 1.966.852.565 0 1.043-.116 1.435-.346.392-.23.734-.536 1.028-.916l.977.76c-.784 1.205-1.96 1.807-3.526 1.807zm-.2-8.384c-.645 0-1.186.235-1.624.704-.438.47-.709 1.128-.813 1.975h4.685v-.12c-.046-.813-.265-1.443-.657-1.89-.392-.446-.922-.67-1.59-.67zm10.217.294a4.792 4.792 0 0 0-.787-.06c-1.048 0-1.76.446-2.134 1.339v6.638h-1.6v-9.352h1.556l.026 1.08c.525-.835 1.268-1.253 2.23-1.253.311 0 .548.04.709.121v1.487zm6.915 5.436c0-.432-.163-.767-.489-1.007-.325-.239-.893-.445-1.703-.618-.81-.172-1.452-.38-1.927-.622-.475-.242-.827-.53-1.054-.864-.228-.334-.342-.732-.342-1.193 0-.766.324-1.415.973-1.945.648-.53 1.476-.795 2.484-.795 1.06 0 1.92.274 2.58.821.66.548.99 1.248.99 2.1H87.39c0-.437-.185-.815-.557-1.132-.372-.317-.84-.475-1.405-.475-.582 0-1.037.127-1.365.38a1.197 1.197 0 0 0-.493.994c0 .386.153.677.458.873.306.196.857.383 1.655.562.798.179 1.445.392 1.94.64.496.247.864.545 1.103.894s.359.774.359 1.275c0 .835-.335 1.505-1.003 2.01-.669.504-1.536.756-2.602.756-.749 0-1.411-.133-1.988-.398-.576-.265-1.027-.635-1.352-1.11a2.677 2.677 0 0 1-.489-1.543h1.6c.028.536.243.96.643 1.275.4.314.93.47 1.586.47.605 0 1.09-.122 1.457-.367.366-.245.549-.572.549-.98z" fill="#000" fill-rule="nonzero"/><g transform="translate(5 329.782)"><circle fill="#E98024" cx="10" cy="10" r="10"/><path d="M11.726 11.396h1.282v.958h-1.282V14.5h-1.181v-2.146H6.336v-.691l4.14-6.405h1.25v6.138zm-4.057 0h2.876V6.864l-.14.254-2.736 4.278z" fill="#FFF"/></g><g><path d="M0 452.977h120.69v52.299H0z" fill="#FEFDEE"/><path stroke="#DEDEDE" stroke-width="1.609" d="M.805 453.782v50.69h119.08v-50.69z"/><path d="M32.66 478.635v4.926H31v-12.584h4.641c1.378 0 2.456.351 3.237 1.054.781.703 1.171 1.634 1.171 2.792 0 1.222-.381 2.162-1.145 2.822-.763.66-1.857.99-3.28.99H32.66zm0-1.357h2.981c.888 0 1.568-.209 2.04-.627.473-.418.709-1.021.709-1.81 0-.75-.236-1.349-.709-1.798-.472-.45-1.12-.683-1.945-.7H32.66v4.935zm14.935 6.283c-.092-.184-.167-.512-.225-.985-.743.772-1.63 1.158-2.662 1.158-.922 0-1.678-.26-2.269-.782-.59-.521-.886-1.183-.886-1.984 0-.973.37-1.73 1.11-2.268.741-.54 1.783-.808 3.125-.808h1.556v-.735c0-.56-.167-1.004-.501-1.336-.334-.33-.827-.496-1.478-.496-.57 0-1.049.144-1.435.432-.386.288-.579.636-.579 1.045h-1.608c0-.466.166-.917.497-1.352.332-.435.781-.78 1.349-1.033a4.536 4.536 0 0 1 1.871-.38c1.077 0 1.922.27 2.532.808.611.539.928 1.28.951 2.225v4.305c0 .858.11 1.541.329 2.048v.138h-1.677zm-2.654-1.218c.502 0 .977-.13 1.427-.39.449-.258.775-.596.976-1.01v-1.92h-1.253c-1.96 0-2.939.574-2.939 1.72 0 .502.167.894.502 1.176.334.283.763.424 1.287.424zm9.439-1.124l2.178-7.01h1.711l-3.76 10.796c-.582 1.556-1.506 2.333-2.774 2.333l-.303-.025-.596-.113v-1.296l.432.034c.542 0 .964-.11 1.266-.328.303-.22.552-.62.748-1.202l.354-.95-3.336-9.248h1.746l2.334 7.01zm4.762-2.42c0-.916.18-1.74.54-2.472.36-.732.862-1.296 1.504-1.694.643-.398 1.376-.596 2.2-.596 1.273 0 2.303.44 3.09 1.322.786.882 1.18 2.054 1.18 3.518v.112c0 .91-.175 1.727-.523 2.45a3.97 3.97 0 0 1-1.496 1.69c-.648.404-1.393.605-2.234.605-1.268 0-2.295-.44-3.081-1.322-.787-.882-1.18-2.049-1.18-3.5v-.113zm1.608.19c0 1.037.24 1.87.721 2.498.482.628 1.125.942 1.932.942.813 0 1.458-.318 1.936-.955s.718-1.528.718-2.675c0-1.026-.244-1.857-.73-2.493-.488-.637-1.134-.956-1.941-.956-.79 0-1.426.314-1.91.943-.484.628-.726 1.526-.726 2.696zm14.684 3.648c-.622.731-1.535 1.097-2.74 1.097-.996 0-1.755-.29-2.277-.868-.521-.58-.785-1.437-.79-2.572v-6.084h1.598v6.041c0 1.418.576 2.126 1.729 2.126 1.221 0 2.034-.455 2.437-1.365v-6.802h1.6v9.351h-1.522l-.035-.924zm6.154-10.692v2.265h1.746v1.236h-1.746v5.8c0 .374.078.654.234.842.155.187.42.28.795.28.184 0 .438-.034.76-.103v1.296c-.42.116-.83.173-1.227.173-.714 0-1.253-.216-1.616-.648-.363-.432-.545-1.046-.545-1.84v-5.8h-1.702v-1.236h1.702v-2.265h1.6zm9.058 9.136c0-.432-.162-.768-.488-1.007-.326-.24-.893-.445-1.703-.618s-1.452-.38-1.927-.622c-.476-.242-.827-.53-1.055-.865-.227-.334-.341-.731-.341-1.192 0-.767.324-1.415.972-1.945.649-.53 1.477-.795 2.485-.795 1.06 0 1.92.273 2.58.82.66.548.99 1.248.99 2.101H90.55c0-.438-.186-.815-.557-1.132-.372-.317-.84-.476-1.405-.476-.582 0-1.037.127-1.365.38a1.197 1.197 0 0 0-.493.995c0 .386.153.677.458.873.305.196.857.383 1.655.561.798.18 1.445.392 1.94.64.496.248.863.546 1.103.895.239.348.358.773.358 1.274 0 .836-.334 1.506-1.002 2.01-.669.504-1.536.756-2.602.756-.749 0-1.412-.132-1.988-.397-.576-.265-1.027-.636-1.352-1.11a2.677 2.677 0 0 1-.489-1.544h1.6c.028.536.243.961.643 1.275.4.314.93.471 1.586.471.605 0 1.09-.122 1.456-.367.366-.245.55-.572.55-.981z" fill="#000" fill-rule="nonzero"/><g transform="translate(5 468.977)"><circle fill="#E98024" cx="10" cy="10" r="10"/><path d="M7.308 9.866l.47-4.608h4.735v1.085h-3.74l-.278 2.52c.452-.266.967-.4 1.542-.4.842 0 1.51.279 2.006.835.495.557.743 1.309.743 2.257 0 .952-.257 1.702-.772 2.25-.514.548-1.232.822-2.155.822-.816 0-1.483-.226-2-.68-.515-.452-.81-1.078-.881-1.878h1.11c.072.529.26.928.565 1.196.305.27.707.403 1.206.403.546 0 .975-.186 1.286-.558.31-.373.466-.887.466-1.543 0-.617-.168-1.114-.504-1.488-.337-.375-.784-.562-1.343-.562-.512 0-.914.112-1.206.337l-.31.253-.94-.24z" fill="#FFF"/></g></g><g><g transform="translate(448 44)"><rect fill="#C03" width="73" height="25" rx="4"/><path d="M9.484 13c-.302.36-.662.648-1.082.867-.419.219-.879.328-1.379.328-.656 0-1.227-.161-1.714-.484-.487-.323-.864-.777-1.13-1.363a4.648 4.648 0 0 1-.398-1.942c0-.76.145-1.445.434-2.054.289-.61.7-1.076 1.23-1.399.532-.323 1.151-.484 1.86-.484 1.125 0 2.011.42 2.66 1.261.648.842.973 1.989.973 3.442v.422c0 2.213-.438 3.83-1.313 4.847-.875 1.019-2.195 1.54-3.96 1.567h-.282v-1.219h.304c1.193-.02 2.11-.332 2.75-.934.641-.601.99-1.553 1.047-2.855zm-2.226 0c.484 0 .93-.148 1.34-.445.409-.297.707-.664.894-1.102v-.578c0-.948-.206-1.719-.617-2.313-.411-.593-.932-.89-1.563-.89-.635 0-1.145.243-1.53.73-.386.487-.579 1.13-.579 1.926 0 .776.186 1.415.559 1.918.372.503.87.754 1.496.754zm7.773-1.39h1.086c.682-.011 1.219-.19 1.61-.54.39-.349.585-.82.585-1.414 0-1.333-.664-2-1.992-2-.625 0-1.123.179-1.496.535-.372.357-.558.83-.558 1.418H12.82c0-.9.33-1.65.989-2.246.658-.596 1.496-.894 2.511-.894 1.073 0 1.914.284 2.524.851.61.568.914 1.357.914 2.367 0 .495-.16.974-.48 1.438-.321.464-.757.81-1.31 1.04.626.197 1.109.525 1.45.983.341.459.512 1.019.512 1.68 0 1.021-.334 1.83-1 2.43-.667.599-1.534.898-2.602.898-1.068 0-1.936-.289-2.605-.867-.67-.578-1.004-1.341-1.004-2.289h1.453c0 .599.195 1.078.586 1.438.39.359.914.539 1.57.539.698 0 1.232-.183 1.602-.547.37-.365.554-.888.554-1.57 0-.662-.203-1.17-.609-1.524-.406-.354-.992-.537-1.758-.547h-1.086v-1.18zm8.985 0h1.086c.682-.011 1.218-.19 1.609-.54.39-.349.586-.82.586-1.414 0-1.333-.664-2-1.992-2-.625 0-1.124.179-1.496.535-.373.357-.559.83-.559 1.418h-1.445c0-.9.33-1.65.988-2.246.659-.596 1.496-.894 2.512-.894 1.073 0 1.914.284 2.523.851.61.568.914 1.357.914 2.367 0 .495-.16.974-.48 1.438-.32.464-.757.81-1.309 1.04.625.197 1.108.525 1.45.983.34.459.511 1.019.511 1.68 0 1.021-.333 1.83-1 2.43-.667.599-1.534.898-2.602.898-1.067 0-1.936-.289-2.605-.867-.67-.578-1.004-1.341-1.004-2.289h1.453c0 .599.196 1.078.586 1.438.39.359.914.539 1.57.539.698 0 1.232-.183 1.602-.547.37-.365.555-.888.555-1.57 0-.662-.203-1.17-.61-1.524-.406-.354-.992-.537-1.757-.547h-1.086v-1.18zM38.352 18h-7.454v-1.04l3.938-4.374c.583-.662.986-1.2 1.207-1.613.221-.414.332-.843.332-1.286 0-.593-.18-1.08-.54-1.46-.358-.38-.838-.57-1.437-.57-.718 0-1.277.204-1.675.613-.399.408-.598.977-.598 1.707H30.68c0-1.047.337-1.894 1.011-2.54.675-.645 1.577-.968 2.707-.968 1.058 0 1.894.277 2.508.832.615.554.922 1.293.922 2.215 0 1.12-.713 2.453-2.14 4L32.64 16.82h5.71V18zm1.71-.758c0-.25.075-.458.223-.625.149-.166.371-.25.668-.25.297 0 .522.084.676.25.154.167.23.375.23.625 0 .24-.076.44-.23.602-.154.161-.379.242-.676.242-.297 0-.52-.08-.668-.242a.855.855 0 0 1-.222-.602zm10.133-3.062h1.578v1.18h-1.578V18h-1.453v-2.64h-5.18v-.852l5.094-7.883h1.54v7.555zm-4.992 0h3.54V8.602l-.173.312-3.367 5.266zm8.54-1.883l.577-5.672h5.828v1.336h-4.601l-.344 3.101c.557-.328 1.19-.492 1.899-.492 1.036 0 1.859.343 2.468 1.028.61.685.914 1.61.914 2.777 0 1.172-.316 2.095-.949 2.77-.633.674-1.517 1.011-2.652 1.011-1.005 0-1.826-.278-2.461-.836-.636-.557-.998-1.328-1.086-2.312h1.367c.089.65.32 1.142.695 1.472.375.331.87.497 1.485.497.672 0 1.199-.23 1.582-.688.383-.458.574-1.091.574-1.898 0-.76-.207-1.371-.621-1.832-.414-.461-.965-.692-1.652-.692-.63 0-1.125.138-1.485.414l-.383.313-1.156-.297zm8.984 0l.578-5.672h5.828v1.336H64.53l-.344 3.101c.558-.328 1.19-.492 1.899-.492 1.036 0 1.86.343 2.469 1.028.61.685.914 1.61.914 2.777 0 1.172-.317 2.095-.95 2.77-.632.674-1.516 1.011-2.652 1.011-1.005 0-1.825-.278-2.46-.836-.636-.557-.998-1.328-1.087-2.312h1.367c.089.65.32 1.142.696 1.472.375.331.87.497 1.484.497.672 0 1.2-.23 1.582-.688.383-.458.574-1.091.574-1.898 0-.76-.207-1.371-.62-1.832-.415-.461-.965-.692-1.653-.692-.63 0-1.125.138-1.484.414l-.383.313-1.156-.297z" fill="#FFF"/></g><g transform="translate(161)"><path d="M19.404 51.94h-5.508l-1.152 3.31h-2.568l5.37-14.219h2.218l5.38 14.219h-2.578l-1.162-3.31zm-4.814-1.993h4.12l-2.06-5.898-2.06 5.898zm20.566-8.916v9.502c0 1.51-.483 2.707-1.45 3.59-.967.881-2.254 1.322-3.862 1.322-1.628 0-2.92-.434-3.877-1.303-.957-.87-1.436-2.076-1.436-3.619v-9.492h2.461v9.512c0 .95.241 1.676.723 2.178.482.501 1.191.752 2.129.752 1.9 0 2.851-1.003 2.851-3.008V41.03h2.461zm2.637 14.219V41.031h4.2c1.256 0 2.37.28 3.344.84a5.726 5.726 0 0 1 2.26 2.383c.535 1.029.801 2.207.801 3.535v.713c0 1.348-.268 2.533-.805 3.555a5.658 5.658 0 0 1-2.295 2.363c-.993.553-2.13.83-3.413.83h-4.092zm2.47-12.227v10.254h1.612c1.296 0 2.29-.405 2.983-1.215.694-.811 1.047-1.975 1.06-3.492v-.79c0-1.544-.335-2.722-1.006-3.536-.67-.814-1.644-1.22-2.92-1.22h-1.728zM51.3 56.471h-1.865l5.595-15.44h1.866l-5.596 15.44zm13.29-15.44h2.462v9.971c0 1.36-.425 2.441-1.275 3.242-.85.8-1.97 1.201-3.364 1.201-1.484 0-2.63-.374-3.437-1.123-.808-.748-1.211-1.79-1.211-3.125h2.46c0 .755.188 1.324.562 1.704.374.381.916.572 1.626.572.664 0 1.193-.22 1.587-.66.394-.439.59-1.046.59-1.82V41.03zm7.755 8.936v5.283h-2.471V41.031h5.44c1.588 0 2.85.414 3.784 1.24.934.827 1.401 1.921 1.401 3.282 0 1.393-.457 2.477-1.372 3.252-.915.774-2.196 1.162-3.843 1.162h-2.94zm0-1.983h2.969c.878 0 1.549-.206 2.011-.62.462-.413.694-1.01.694-1.792 0-.768-.235-1.382-.704-1.84-.468-.46-1.113-.696-1.933-.709h-3.037v4.961zm14.95-.214l3.272-6.739h2.735l-4.766 8.985v5.234h-2.48v-5.234l-4.776-8.985h2.744l3.272 6.739zM17.831 20.104h-4.65V25h-2.007V13.447h7.34v1.619h-5.332v3.436h4.65v1.602zm1.722.524c0-.841.167-1.599.5-2.273.333-.675.801-1.193 1.405-1.555.603-.363 1.295-.544 2.078-.544 1.159 0 2.1.373 2.821 1.119.722.746 1.112 1.735 1.17 2.967l.008.453c0 .846-.162 1.602-.488 2.269a3.607 3.607 0 0 1-1.396 1.547c-.606.365-1.305.548-2.099.548-1.211 0-2.18-.404-2.908-1.21-.727-.807-1.09-1.882-1.09-3.226v-.095zm1.928.167c0 .883.183 1.575.548 2.075.365.5.873.75 1.523.75.65 0 1.157-.255 1.52-.762.362-.508.543-1.251.543-2.23 0-.867-.186-1.555-.56-2.063-.372-.508-.879-.762-1.519-.762-.63 0-1.129.25-1.5.75-.37.5-.555 1.247-.555 2.242zm12.18-2.619a4.771 4.771 0 0 0-.786-.063c-.883 0-1.478.338-1.785 1.015V25h-1.928v-8.585h1.84l.048.96c.466-.746 1.111-1.119 1.936-1.119.276 0 .503.037.683.111l-.008 1.81zm4.999 6.983c-1.222 0-2.213-.385-2.972-1.155-.759-.77-1.138-1.794-1.138-3.074v-.238c0-.857.165-1.623.495-2.298.331-.674.795-1.199 1.393-1.575a3.681 3.681 0 0 1 2-.563c1.169 0 2.072.373 2.71 1.119.637.746.955 1.801.955 3.166v.777h-5.61c.059.71.295 1.27.71 1.682.416.413.938.62 1.568.62.883 0 1.603-.358 2.158-1.072l1.04.992a3.471 3.471 0 0 1-1.377 1.194c-.574.283-1.218.425-1.932.425zm-.23-7.356c-.53 0-.957.185-1.282.556-.325.37-.533.886-.623 1.547H40.2v-.143c-.042-.645-.214-1.133-.516-1.464-.301-.33-.72-.496-1.253-.496zm8.252 1.437l1.634-2.825h2.142l-2.626 4.229L50.546 25h-2.127l-1.714-2.936L45 25h-2.142l2.714-4.356-2.619-4.23h2.127l1.603 2.826z" fill="#000"/><rect stroke="#DEDEDE" stroke-width="1.875" x=".938" y=".938" width="108.125" height="68.125" rx="5"/><path fill="#2A3052" fill-rule="nonzero" d="M85.833 18.333L90 22.5l4.167-4.167z"/><path d="M80 10h20v20H80z"/></g><g transform="translate(290)"><path d="M22.734 55.25h-2.46v-6.318h-6.358v6.318h-2.47V41.031h2.47v5.918h6.357v-5.918h2.461V55.25zm5.215 0h-2.373V44.684h2.373V55.25zm-2.52-13.31c0-.365.116-.668.347-.909.231-.24.562-.361.992-.361.43 0 .761.12.996.361.234.241.351.544.351.908 0 .359-.117.656-.351.894-.235.238-.567.356-.996.356-.43 0-.76-.118-.992-.356a1.23 1.23 0 0 1-.346-.894zm4.688 7.949c0-1.641.386-2.951 1.157-3.931.772-.98 1.796-1.47 3.072-1.47 1.204 0 2.151.42 2.842 1.26l.107-1.064h2.139v10.244c0 1.386-.432 2.48-1.294 3.281-.863.8-2.027 1.201-3.492 1.201a5.627 5.627 0 0 1-2.27-.483c-.739-.323-1.3-.744-1.685-1.265l1.123-1.426c.73.866 1.628 1.3 2.696 1.3.787 0 1.41-.214 1.865-.64.456-.427.684-1.054.684-1.88v-.713c-.684.761-1.595 1.142-2.735 1.142-1.237 0-2.248-.491-3.032-1.474-.785-.983-1.177-2.344-1.177-4.082zm2.363.205c0 1.061.217 1.896.65 2.505.433.608 1.033.913 1.802.913.957 0 1.666-.41 2.129-1.23v-4.65c-.45-.8-1.153-1.2-2.11-1.2-.781 0-1.388.309-1.821.927-.433.619-.65 1.53-.65 2.735zm11.729-4.258c.775-.899 1.755-1.348 2.94-1.348 2.252 0 3.395 1.286 3.427 3.858v6.904h-2.373v-6.816c0-.73-.158-1.246-.474-1.548-.315-.303-.78-.454-1.391-.454-.95 0-1.66.423-2.129 1.27v7.548h-2.373v-15h2.373v5.586zm13.418 9.61c-1.504 0-2.723-.474-3.657-1.422-.935-.947-1.402-2.208-1.402-3.784v-.293c0-1.054.204-1.997.61-2.827.408-.83.979-1.476 1.715-1.938a4.531 4.531 0 0 1 2.46-.694c1.44 0 2.551.46 3.335 1.377.785.918 1.177 2.217 1.177 3.897v.957h-6.904c.072.872.363 1.562.874 2.07.511.508 1.154.762 1.929.762 1.087 0 1.972-.44 2.656-1.319l1.28 1.221a4.272 4.272 0 0 1-1.695 1.47c-.707.348-1.5.522-2.378.522zm-.283-9.053c-.651 0-1.177.227-1.577.683-.4.456-.656 1.09-.767 1.904h4.521v-.175c-.052-.795-.263-1.395-.634-1.802-.371-.407-.886-.61-1.543-.61zm11.894.459a5.872 5.872 0 0 0-.967-.079c-1.087 0-1.82.417-2.197 1.25v7.227h-2.373V44.684h2.266l.058 1.181c.573-.918 1.368-1.377 2.383-1.377.339 0 .619.046.84.137l-.01 2.227zm2.168 9.619h-1.865l5.596-15.44h1.865l-5.596 15.44zm9.942-3.194h6.455v1.973h-8.926V41.031h2.47v12.246zm7.675-3.408c0-1.035.206-1.968.616-2.798.41-.83.986-1.468 1.728-1.914.742-.446 1.595-.669 2.559-.669 1.426 0 2.583.46 3.471 1.377.89.918 1.37 2.136 1.44 3.653l.01.556c0 1.042-.2 1.973-.6 2.793-.4.82-.973 1.455-1.719 1.904-.745.45-1.606.674-2.583.674-1.49 0-2.684-.496-3.579-1.489-.895-.993-1.343-2.316-1.343-3.97v-.117zm2.373.205c0 1.087.225 1.939.674 2.554.45.615 1.075.923 1.875.923.801 0 1.424-.313 1.87-.938.446-.625.67-1.54.67-2.744 0-1.068-.23-1.914-.69-2.539-.458-.625-1.081-.937-1.87-.937-.774 0-1.39.307-1.845.922-.456.616-.684 1.535-.684 2.76zm18.74 1.905l1.68-7.295h2.315L111.25 55.25h-1.953l-2.266-7.256-2.226 7.256h-1.953L99.96 44.684h2.314l1.71 7.216 2.167-7.216h1.787l2.198 7.295zm10.235 3.466c-1.504 0-2.723-.473-3.657-1.42-.934-.948-1.401-2.21-1.401-3.785v-.293c0-1.054.203-1.997.61-2.827.407-.83.978-1.476 1.714-1.938a4.531 4.531 0 0 1 2.46-.694c1.44 0 2.551.46 3.336 1.377.784.918 1.176 2.217 1.176 3.897v.957h-6.904c.072.872.363 1.562.874 2.07.511.508 1.154.762 1.929.762 1.087 0 1.972-.44 2.656-1.319l1.28 1.221a4.272 4.272 0 0 1-1.695 1.47c-.706.348-1.499.522-2.378.522zm-.283-9.052c-.651 0-1.177.227-1.577.683-.4.456-.656 1.09-.767 1.904h4.522v-.175c-.052-.795-.264-1.395-.635-1.802-.371-.407-.886-.61-1.543-.61zm11.894.459a5.872 5.872 0 0 0-.966-.079c-1.088 0-1.82.417-2.198 1.25v7.227h-2.373V44.684h2.266l.059 1.181c.572-.918 1.367-1.377 2.382-1.377.339 0 .619.046.84.137l-.01 2.227z" fill="#000"/><path fill="#2A3052" fill-rule="nonzero" d="M118.333 18.333L122.5 22.5l4.167-4.167z"/><path d="M112.5 10h20v20h-20z"/><path d="M19.625 13.447v7.72c0 1.228-.393 2.2-1.179 2.917-.785.716-1.831 1.075-3.138 1.075-1.322 0-2.372-.353-3.15-1.06-.777-.706-1.166-1.686-1.166-2.94v-7.712h2v7.729c0 .772.195 1.362.586 1.769.392.407.969.61 1.73.61 1.545 0 2.317-.814 2.317-2.443v-7.665h2zm9.474 7.348c0 1.327-.302 2.387-.905 3.177-.603.791-1.412 1.187-2.428 1.187-.942 0-1.695-.31-2.261-.929v4.07h-1.928V16.416h1.777l.08.873c.565-.688 1.335-1.032 2.308-1.032 1.048 0 1.869.39 2.464 1.17.595.78.893 1.864.893 3.25v.119zm-1.92-.167c0-.857-.171-1.537-.512-2.04-.342-.502-.83-.753-1.464-.753-.789 0-1.355.325-1.698.976v3.809c.349.666.92 1 1.714 1 .613 0 1.093-.248 1.44-.742.346-.495.52-1.245.52-2.25zm4.094 5.364h-1.516l4.547-12.545h1.515l-4.546 12.545zm6.07-.992V13.447h3.411c1.021 0 1.927.228 2.718.683.79.455 1.403 1.1 1.837 1.936.434.835.65 1.793.65 2.872v.58c0 1.094-.218 2.057-.654 2.887a4.597 4.597 0 0 1-1.865 1.92c-.806.45-1.73.675-2.773.675h-3.324zm2.007-9.934v8.331h1.31c1.052 0 1.86-.33 2.423-.988.564-.658.85-1.604.861-2.836v-.643c0-1.254-.272-2.211-.817-2.872-.545-.661-1.336-.992-2.373-.992H39.35zm8.061 5.562c0-.841.167-1.599.5-2.273.334-.675.802-1.193 1.405-1.555.603-.363 1.296-.544 2.079-.544 1.158 0 2.098.373 2.82 1.119s1.113 1.735 1.17 2.967l.009.453c0 .846-.163 1.602-.488 2.269a3.607 3.607 0 0 1-1.397 1.547c-.605.365-1.305.548-2.098.548-1.212 0-2.181-.404-2.908-1.21-.728-.807-1.092-1.882-1.092-3.226v-.095zm1.929.167c0 .883.182 1.575.547 2.075.365.5.873.75 1.524.75.65 0 1.157-.255 1.519-.762.362-.508.544-1.251.544-2.23 0-.867-.187-1.555-.56-2.063-.373-.508-.88-.762-1.52-.762-.629 0-1.129.25-1.499.75-.37.5-.555 1.247-.555 2.242zm15.226 1.547l1.365-5.927h1.88L65.471 25h-1.587l-1.841-5.895L60.233 25h-1.586l-2.349-8.585h1.88l1.39 5.863 1.76-5.863h1.453l1.785 5.927zm6.324-5.927l.055.992c.635-.767 1.468-1.15 2.5-1.15 1.788 0 2.698 1.023 2.73 3.07V25h-1.929v-5.562c0-.545-.117-.948-.353-1.21-.235-.262-.62-.393-1.154-.393-.778 0-1.357.352-1.738 1.055V25h-1.928v-8.585h1.817z" fill="#000"/><rect stroke="#DEDEDE" stroke-width="1.875" x=".938" y=".938" width="140.625" height="68.125" rx="5"/></g><g transform="translate(454 15)"><path fill="#000" fill-rule="nonzero" d="M1.012 3.798v-1h3.776l.198.04 2.155.931 2.145-1.197.243-.064h3.967l.356.149 6.045 6.16 2.392 1.233 3.39-1.375 5.31 5.26 8.937.038 3.034-1.281 3.397 4.2h2.648l3.045-4.181 5.964 1.954-.312.95-5.272-1.728-2.916 4.005h-3.395l-.389-.186-3.078-3.804-2.532 1.032h-9.338l-.351-.145-4.988-4.94-2.99 1.214-.417-.019-2.724-1.43-6.025-6.106H9.66L7.413 4.762l-.442.023-2.287-.987z"/><circle fill="#F00100" cx="45.5" cy="17.5" r="1.5"/><circle fill="#00F000" cx="57.5" cy="15.5" r="1.5"/><circle fill="#0000F0" cx="3.5" cy="2.5" r="1.5"/></g></g><g transform="translate(197.126 182.632)"><rect stroke="#DEDEDE" stroke-width=".805" x=".402" y=".402" width="144.023" height="28.966" rx="2.414"/><path d="M123.874 7.368h15.833V23.2h-15.833z"/><path stroke="#DEDEDE" stroke-width="1.25" stroke-linecap="round" stroke-linejoin="round" d="M126.79 12.784l5 5 5-5"/><g fill="#000"><path d="M9.905 22.023V6.006h4.521c1.394 0 2.626.308 3.696.924 1.071.617 1.898 1.493 2.48 2.63.584 1.136.88 2.442.886 3.916v1.023c0 1.51-.291 2.834-.874 3.97-.583 1.138-1.415 2.01-2.497 2.619-1.082.609-2.341.92-3.779.935H9.905zm2.112-14.278v12.55h2.222c1.628 0 2.895-.505 3.8-1.517.907-1.012 1.36-2.453 1.36-4.323v-.935c0-1.819-.428-3.233-1.282-4.24-.855-1.01-2.066-1.52-3.636-1.535h-2.464zm19.69 13.101c-.791.931-1.954 1.397-3.486 1.397-1.27 0-2.235-.369-2.899-1.106-.664-.737-1-1.827-1.006-3.272V10.12h2.035v7.689c0 1.804.733 2.706 2.2 2.706 1.554 0 2.588-.58 3.102-1.738V10.12h2.035v11.902h-1.936l-.044-1.177zm10.825-8.9a6.098 6.098 0 0 0-1-.076c-1.336 0-2.241.568-2.718 1.705v8.448h-2.035V10.121h1.98l.033 1.375c.667-1.064 1.613-1.595 2.838-1.595.396 0 .697.05.902.154v1.892zm8.778 10.077c-.117-.235-.212-.653-.286-1.254-.946.983-2.075 1.474-3.388 1.474-1.173 0-2.136-.332-2.887-.996-.752-.663-1.128-1.505-1.128-2.524 0-1.24.471-2.202 1.414-2.888.942-.685 2.268-1.028 3.976-1.028h1.98v-.935c0-.712-.212-1.278-.638-1.7-.425-.422-1.052-.632-1.88-.632-.727 0-1.335.183-1.827.55-.491.366-.737.81-.737 1.33h-2.046c0-.593.211-1.167.633-1.72.421-.555.993-.993 1.716-1.315.722-.323 1.516-.484 2.381-.484 1.372 0 2.446.342 3.223 1.028.778.686 1.181 1.63 1.21 2.833v5.478c0 1.093.14 1.962.418 2.607v.176H51.31zm-3.377-1.551c.638 0 1.243-.165 1.815-.495.572-.33.987-.76 1.243-1.287v-2.442h-1.595c-2.493 0-3.74.73-3.74 2.189 0 .638.213 1.137.638 1.496.426.36.972.539 1.64.539zM58.978 7.239v2.882H61.2v1.573h-2.222v7.38c0 .478.099.835.297 1.073.198.239.535.358 1.012.358.234 0 .557-.044.968-.132v1.65a5.9 5.9 0 0 1-1.562.22c-.91 0-1.595-.275-2.057-.825-.462-.55-.693-1.331-.693-2.343v-7.381h-2.167V10.12h2.167V7.239h2.035zm6.809 14.784h-2.035V10.121h2.035v11.902zm-2.2-15.06c0-.33.1-.608.302-.836.202-.227.5-.34.897-.34.396 0 .697.113.902.34.205.228.308.506.308.836 0 .33-.103.606-.308.826-.205.22-.506.33-.902.33s-.695-.11-.897-.33a1.175 1.175 0 0 1-.302-.826zm4.917 8.999c0-1.166.23-2.215.687-3.146.459-.932 1.097-1.65 1.915-2.156.817-.506 1.75-.76 2.8-.76 1.62 0 2.93.562 3.932 1.684 1 1.122 1.501 2.614 1.501 4.477v.143c0 1.159-.222 2.198-.665 3.118-.444.92-1.078 1.638-1.903 2.151-.825.513-1.773.77-2.844.77-1.613 0-2.92-.561-3.921-1.683-1.002-1.122-1.502-2.607-1.502-4.455v-.143zm2.046.242c0 1.32.306 2.38.919 3.179.612.8 1.431 1.199 2.458 1.199 1.034 0 1.856-.405 2.464-1.216.609-.81.913-1.945.913-3.404 0-1.306-.31-2.363-.93-3.174-.619-.81-1.442-1.215-2.469-1.215-1.005 0-1.815.4-2.431 1.199-.616.8-.924 1.943-.924 3.432zm13.266-6.083l.066 1.496c.91-1.144 2.098-1.716 3.565-1.716 2.515 0 3.784 1.419 3.806 4.257v7.865h-2.035v-7.876c-.008-.858-.204-1.493-.589-1.903-.385-.411-.984-.616-1.798-.616-.66 0-1.24.176-1.739.528a3.586 3.586 0 0 0-1.166 1.386v8.481h-2.035V10.121h1.925z"/></g></g><g transform="translate(358.046 182.632)"><rect stroke="#DEDEDE" stroke-width=".805" x=".402" y=".402" width="119.885" height="28.966" rx="2.414"/><path d="M12.336 13.53h1.53c.96-.014 1.715-.267 2.265-.759.55-.49.825-1.155.825-1.99 0-1.878-.935-2.817-2.805-2.817-.88 0-1.582.251-2.106.754-.525.502-.787 1.168-.787 1.996H9.223c0-1.268.464-2.323 1.392-3.162.927-.84 2.106-1.26 3.536-1.26 1.51 0 2.695.4 3.553 1.2.858.799 1.287 1.91 1.287 3.332 0 .697-.225 1.372-.676 2.024-.451.653-1.065 1.14-1.843 1.463.88.28 1.56.741 2.04 1.387.481.645.721 1.433.721 2.365 0 1.437-.469 2.577-1.408 3.42-.938.844-2.16 1.266-3.663 1.266-1.503 0-2.726-.407-3.668-1.221-.943-.814-1.414-1.889-1.414-3.223h2.046c0 .843.275 1.518.825 2.024.55.506 1.287.759 2.211.759.983 0 1.735-.257 2.255-.77.52-.514.781-1.25.781-2.211 0-.932-.286-1.647-.858-2.145-.572-.5-1.397-.756-2.475-.77h-1.529V13.53z" fill="#000" fill-rule="nonzero"/></g><g transform="translate(494.828 182.632)"><rect stroke="#DEDEDE" stroke-width=".805" x=".402" y=".402" width="144.023" height="28.966" rx="2.414"/><path d="M125.172 7.368h15.833V23.2h-15.833z"/><path stroke="#DEDEDE" stroke-width="1.25" stroke-linecap="round" stroke-linejoin="round" d="M128.09 12.784l5 5 4.998-5"/><path d="M9.905 21.529V5.512h4.521c1.394 0 2.626.308 3.696.924 1.071.616 1.898 1.493 2.48 2.63.584 1.136.88 2.441.886 3.915v1.023c0 1.511-.291 2.835-.874 3.972-.583 1.136-1.415 2.009-2.497 2.618-1.082.608-2.341.92-3.779.935H9.905zM12.017 7.25v12.552h2.222c1.628 0 2.895-.506 3.8-1.518.907-1.012 1.36-2.453 1.36-4.324v-.935c0-1.818-.428-3.232-1.282-4.24-.855-1.009-2.066-1.52-3.636-1.535h-2.464zm19.69 14.279c-.117-.235-.212-.653-.285-1.254-.946.982-2.076 1.474-3.388 1.474-1.174 0-2.136-.332-2.888-.996-.752-.663-1.128-1.505-1.128-2.524 0-1.24.472-2.202 1.414-2.888.942-.686 2.268-1.028 3.977-1.028h1.98v-.936c0-.71-.213-1.277-.638-1.7-.426-.42-1.053-.632-1.881-.632-.726 0-1.335.184-1.826.55-.492.367-.737.81-.737 1.331H24.26c0-.594.21-1.167.632-1.721.422-.554.994-.992 1.716-1.315.722-.322 1.516-.484 2.382-.484 1.371 0 2.445.343 3.223 1.029.777.686 1.18 1.63 1.21 2.832v5.479c0 1.092.14 1.961.418 2.607v.176h-2.134zm-3.376-1.551c.638 0 1.243-.165 1.815-.495.572-.33.986-.76 1.243-1.287v-2.442h-1.595c-2.494 0-3.74.73-3.74 2.189 0 .638.212 1.136.638 1.496.425.359.971.539 1.639.539zm12.012-1.43l2.772-8.922h2.178l-4.785 13.74c-.74 1.98-1.918 2.97-3.531 2.97l-.385-.033-.76-.143v-1.65l.55.044c.69 0 1.227-.14 1.612-.418.385-.279.703-.789.952-1.53l.451-1.21-4.246-11.77h2.222l2.97 8.922zm13.695-.176c0-.55-.207-.978-.621-1.282-.414-.304-1.137-.566-2.167-.786-1.03-.22-1.848-.484-2.453-.792-.605-.308-1.053-.675-1.342-1.1-.29-.426-.435-.932-.435-1.519 0-.975.413-1.8 1.238-2.475.825-.674 1.879-1.012 3.162-1.012 1.35 0 2.444.349 3.284 1.045.84.697 1.26 1.588 1.26 2.673h-2.047c0-.557-.236-1.037-.709-1.44-.473-.404-1.069-.606-1.788-.606-.74 0-1.32.162-1.738.484a1.524 1.524 0 0 0-.627 1.265c0 .492.195.862.583 1.111.389.25 1.091.488 2.107.716 1.016.227 1.839.498 2.47.814.63.315 1.098.694 1.402 1.138.304.444.457.985.457 1.623 0 1.063-.426 1.916-1.276 2.557-.851.642-1.955.963-3.312.963-.953 0-1.796-.169-2.53-.506-.733-.338-1.307-.809-1.721-1.414a3.407 3.407 0 0 1-.622-1.963h2.035c.037.682.31 1.222.82 1.622.51.4 1.182.6 2.018.6.77 0 1.388-.156 1.854-.468.466-.312.698-.728.698-1.248zM163.633 11.568l.044 1.037c.685-.807 1.61-1.21 2.774-1.21 1.308 0 2.198.501 2.67 1.504.312-.45.717-.813 1.215-1.09.499-.276 1.088-.414 1.768-.414 2.051 0 3.094 1.086 3.129 3.258v6.267h-1.6v-6.172c0-.668-.152-1.168-.457-1.5-.306-.33-.819-.496-1.539-.496-.593 0-1.086.177-1.478.531-.392.355-.62.832-.683 1.43v6.207h-1.607v-6.128c0-1.36-.666-2.04-1.997-2.04-1.049 0-1.766.446-2.152 1.34v6.828h-1.6v-9.352h1.513zm15.748 9.352h-1.599v-9.352h1.6v9.352zm-1.728-11.833c0-.26.079-.478.237-.657.159-.178.394-.268.705-.268.31 0 .547.09.708.268a.944.944 0 0 1 .243.657c0 .26-.081.475-.243.648-.16.173-.397.26-.708.26-.311 0-.546-.087-.705-.26a.923.923 0 0 1-.237-.648zm5.8 2.48l.051 1.176c.715-.899 1.648-1.348 2.8-1.348 1.977 0 2.974 1.115 2.991 3.345v6.18h-1.599V14.73c-.006-.674-.16-1.173-.462-1.495-.303-.323-.774-.484-1.414-.484-.518 0-.973.138-1.365.415-.392.276-.697.64-.916 1.089v6.664h-1.6v-9.352h1.513zm17.726 9.353h-1.607V10.263l-3.224 1.184V9.995l4.58-1.72h.251V20.92z" fill="#000" fill-rule="nonzero"/></g><g transform="translate(197.126 464.241)"><rect stroke="#DEDEDE" stroke-width=".805" x=".402" y=".402" width="144.023" height="28.966" rx="2.414"/><path d="M123.874 7.759h15.833v15.833h-15.833z"/><path stroke="#DEDEDE" stroke-width="1.25" stroke-linecap="round" stroke-linejoin="round" d="M126.79 13.175l5 5 5-5"/><path d="M12.017 15.259v6.27H9.905V5.512h5.907c1.753 0 3.126.448 4.12 1.342.994.895 1.49 2.08 1.49 3.553 0 1.555-.485 2.752-1.457 3.592-.972.84-2.363 1.26-4.175 1.26h-3.773zm0-1.728h3.795c1.13 0 1.995-.265 2.596-.797.602-.532.902-1.3.902-2.305 0-.953-.3-1.716-.902-2.288-.601-.572-1.426-.869-2.475-.89h-3.916v6.28zm19.009 7.998c-.118-.235-.213-.653-.286-1.254-.946.982-2.076 1.474-3.388 1.474-1.174 0-2.136-.332-2.888-.996-.752-.663-1.128-1.505-1.128-2.524 0-1.24.472-2.202 1.414-2.888.942-.686 2.268-1.028 3.977-1.028h1.98v-.936c0-.71-.213-1.277-.638-1.7-.426-.42-1.053-.632-1.881-.632-.726 0-1.335.184-1.826.55-.492.367-.737.81-.737 1.331h-2.047c0-.594.211-1.167.633-1.721.422-.554.994-.992 1.716-1.315.722-.322 1.516-.484 2.382-.484 1.371 0 2.445.343 3.223 1.029.777.686 1.18 1.63 1.21 2.832v5.479c0 1.092.14 1.961.418 2.607v.176h-2.134zm-3.377-1.551c.638 0 1.243-.165 1.815-.495.572-.33.986-.76 1.243-1.287v-2.442h-1.595c-2.494 0-3.74.73-3.74 2.189 0 .638.212 1.136.638 1.496.425.359.971.539 1.639.539zm12.012-1.43l2.772-8.922h2.178l-4.785 13.74c-.74 1.98-1.918 2.97-3.531 2.97l-.385-.033-.76-.143v-1.65l.55.044c.69 0 1.227-.14 1.612-.418.385-.279.703-.789.952-1.53l.451-1.21-4.246-11.77h2.222l2.97 8.922zm6.061-3.08c0-1.167.23-2.215.688-3.147.458-.93 1.096-1.65 1.914-2.156.817-.506 1.75-.759 2.8-.759 1.62 0 2.931.561 3.932 1.683 1.001 1.122 1.502 2.615 1.502 4.478v.143c0 1.158-.222 2.198-.666 3.118-.444.92-1.078 1.637-1.903 2.15-.825.514-1.773.77-2.844.77-1.613 0-2.92-.56-3.921-1.682-1.001-1.122-1.502-2.607-1.502-4.455v-.143zm2.046.242c0 1.32.306 2.38.919 3.179.612.799 1.432 1.199 2.458 1.199 1.034 0 1.856-.405 2.464-1.216.61-.81.913-1.945.913-3.404 0-1.306-.31-2.364-.929-3.174-.62-.81-1.443-1.216-2.47-1.216-1.004 0-1.815.4-2.43 1.2-.617.799-.925 1.943-.925 3.432zm18.69 4.642c-.792.931-1.955 1.397-3.487 1.397-1.269 0-2.235-.369-2.899-1.106-.664-.737-.999-1.828-1.006-3.272V9.626H61.1v7.69c0 1.804.733 2.706 2.2 2.706 1.555 0 2.589-.58 3.102-1.738V9.626h2.035V21.53h-1.936l-.044-1.177zM74.29 6.744v2.882h2.222V11.2H74.29v7.382c0 .476.1.834.297 1.072.198.239.535.358 1.012.358.235 0 .558-.044.968-.132v1.65a5.9 5.9 0 0 1-1.562.22c-.91 0-1.595-.275-2.057-.825-.462-.55-.693-1.331-.693-2.343v-7.382h-2.167V9.626h2.167V6.744h2.035zM85.82 18.372c0-.55-.208-.978-.622-1.282-.414-.304-1.137-.566-2.167-.786-1.03-.22-1.848-.484-2.453-.792-.605-.308-1.053-.675-1.342-1.1-.29-.426-.435-.932-.435-1.519 0-.975.413-1.8 1.238-2.475.825-.674 1.879-1.012 3.162-1.012 1.35 0 2.444.349 3.284 1.045.84.697 1.26 1.588 1.26 2.673h-2.046c0-.557-.237-1.037-.71-1.44-.473-.404-1.069-.606-1.788-.606-.74 0-1.32.162-1.738.484a1.524 1.524 0 0 0-.627 1.265c0 .492.195.862.583 1.111.39.25 1.091.488 2.107.716 1.016.227 1.839.498 2.47.814.63.315 1.098.694 1.402 1.138.304.444.457.985.457 1.623 0 1.063-.426 1.916-1.276 2.557-.851.642-1.955.963-3.312.963-.953 0-1.796-.169-2.53-.506-.733-.338-1.307-.809-1.721-1.414a3.407 3.407 0 0 1-.622-1.963h2.035c.037.682.31 1.222.82 1.622.51.4 1.182.6 2.018.6.77 0 1.388-.156 1.854-.468.466-.312.699-.728.699-1.248z" fill="#000" fill-rule="nonzero"/></g><g transform="translate(358.046 464.241)"><rect stroke="#DEDEDE" stroke-width=".805" x=".402" y=".402" width="119.885" height="28.966" rx="2.414"/><path d="M17.46 18.487a2.29 2.29 0 0 0-.71-1.705c-.472-.462-1.27-.88-2.392-1.254-1.562-.477-2.7-1.098-3.415-1.865-.715-.766-1.073-1.74-1.073-2.92 0-1.203.35-2.189 1.05-2.959.7-.77 1.663-1.228 2.888-1.375V4h1.639v2.42c1.232.169 2.19.686 2.877 1.551.685.865 1.028 2.05 1.028 3.553h-2.024c0-1.034-.246-1.855-.737-2.464s-1.155-.913-1.991-.913c-.873 0-1.54.225-2.002.676-.462.452-.693 1.08-.693 1.887 0 .748.244 1.344.732 1.787.487.444 1.29.847 2.409 1.21 1.118.364 1.99.763 2.618 1.2.627.436 1.089.944 1.386 1.523.297.58.445 1.258.445 2.035 0 1.24-.372 2.237-1.116 2.992-.745.755-1.788 1.203-3.13 1.342V24.9h-1.628v-2.101c-1.364-.125-2.433-.61-3.206-1.458-.774-.847-1.161-1.996-1.161-3.448h2.035c0 1.02.268 1.804.803 2.354s1.294.825 2.277.825c.96 0 1.716-.231 2.266-.693.55-.462.825-1.093.825-1.892zm11.253 4.125h-2.046V9.049l-4.103 1.507V8.708l5.83-2.189h.319v16.093zm16.005-6.831c0 2.383-.407 4.154-1.221 5.313-.814 1.159-2.086 1.738-3.817 1.738-1.709 0-2.974-.566-3.795-1.7-.821-1.133-1.247-2.825-1.276-5.076v-2.717c0-2.354.407-4.103 1.221-5.247.814-1.144 2.09-1.716 3.828-1.716 1.723 0 2.992.552 3.806 1.655.814 1.104 1.232 2.807 1.254 5.11v2.64zm-2.035-2.783c0-1.723-.242-2.98-.726-3.768-.484-.788-1.25-1.182-2.299-1.182-1.041 0-1.8.392-2.277 1.177-.477.785-.722 1.991-.737 3.619V16.1c0 1.73.251 3.008.754 3.833.502.826 1.263 1.238 2.282 1.238 1.005 0 1.75-.389 2.239-1.166.487-.777.742-2.002.764-3.674v-3.333zm14.685 2.783c0 2.383-.407 4.154-1.221 5.313-.814 1.159-2.086 1.738-3.817 1.738-1.709 0-2.974-.566-3.795-1.7-.821-1.133-1.247-2.825-1.276-5.076v-2.717c0-2.354.407-4.103 1.221-5.247.814-1.144 2.09-1.716 3.828-1.716 1.723 0 2.992.552 3.806 1.655.814 1.104 1.232 2.807 1.254 5.11v2.64zm-2.035-2.783c0-1.723-.242-2.98-.726-3.768-.484-.788-1.25-1.182-2.299-1.182-1.041 0-1.8.392-2.277 1.177-.477.785-.722 1.991-.737 3.619V16.1c0 1.73.251 3.008.754 3.833.502.826 1.263 1.238 2.282 1.238 1.005 0 1.75-.389 2.239-1.166.487-.777.742-2.002.764-3.674v-3.333zm14.685 2.783c0 2.383-.407 4.154-1.221 5.313-.814 1.159-2.086 1.738-3.817 1.738-1.709 0-2.974-.566-3.795-1.7-.821-1.133-1.247-2.825-1.276-5.076v-2.717c0-2.354.407-4.103 1.221-5.247.814-1.144 2.09-1.716 3.828-1.716 1.723 0 2.992.552 3.806 1.655.814 1.104 1.232 2.807 1.254 5.11v2.64zm-2.035-2.783c0-1.723-.242-2.98-.726-3.768-.484-.788-1.25-1.182-2.299-1.182-1.041 0-1.8.392-2.277 1.177-.477.785-.722 1.991-.737 3.619V16.1c0 1.73.251 3.008.754 3.833.502.826 1.263 1.238 2.282 1.238 1.005 0 1.75-.389 2.239-1.166.487-.777.742-2.002.764-3.674v-3.333z" fill="#000"/></g><g transform="translate(206.782 296.885)"><rect stroke="#DEDEDE" stroke-width=".805" x="151.667" y=".402" width="280.805" height="28.966" rx="2.414"/><path d="M170.355 10.692c0 .8-.211 1.511-.633 2.134a4.304 4.304 0 0 1-1.71 1.463c.836.36 1.498.884 1.985 1.574.488.689.732 1.47.732 2.343 0 1.386-.468 2.49-1.403 3.31-.935.822-2.165 1.233-3.69 1.233-1.54 0-2.774-.413-3.702-1.238-.928-.825-1.392-1.927-1.392-3.305 0-.866.237-1.647.71-2.343.473-.697 1.127-1.225 1.963-1.585a4.198 4.198 0 0 1-1.683-1.463c-.41-.623-.616-1.33-.616-2.123 0-1.349.433-2.42 1.298-3.212.866-.792 2.006-1.188 3.422-1.188 1.408 0 2.546.396 3.415 1.188.87.792 1.304 1.863 1.304 3.212zm-1.661 7.47c0-.895-.285-1.625-.853-2.19-.568-.564-1.31-.847-2.227-.847-.917 0-1.652.28-2.206.837-.554.557-.83 1.29-.83 2.2 0 .909.269 1.624.808 2.145.539.52 1.289.78 2.25.78.953 0 1.7-.261 2.244-.786.542-.524.814-1.237.814-2.14zm-3.058-10.198c-.8 0-1.447.248-1.942.743-.495.495-.743 1.168-.743 2.018 0 .814.244 1.473.732 1.975s1.139.753 1.953.753c.814 0 1.464-.25 1.952-.753.488-.502.732-1.16.732-1.975 0-.814-.253-1.477-.76-1.99-.505-.514-1.147-.77-1.924-.77zm15.642-1.463v1.727h-.374c-1.584.03-2.845.499-3.784 1.408-.939.91-1.481 2.19-1.628 3.84.843-.969 1.995-1.453 3.454-1.453 1.393 0 2.506.492 3.339 1.474.832.983 1.248 2.252 1.248 3.807 0 1.65-.449 2.97-1.347 3.96-.899.99-2.103 1.485-3.614 1.485-1.533 0-2.776-.589-3.73-1.766-.953-1.177-1.43-2.693-1.43-4.548v-.781c0-2.949.63-5.202 1.887-6.76 1.258-1.559 3.13-2.356 5.616-2.393h.363zm-2.673 7.216c-.697 0-1.338.21-1.925.627-.587.418-.994.943-1.221 1.574v.748c0 1.32.297 2.383.89 3.19.595.806 1.336 1.21 2.223 1.21.917 0 1.637-.338 2.162-1.012.524-.675.786-1.559.786-2.651 0-1.1-.266-1.99-.797-2.668-.532-.678-1.238-1.018-2.118-1.018zm7.59 7.745c0-.352.105-.646.314-.88.209-.235.522-.352.94-.352.418 0 .735.117.952.352.216.234.324.528.324.88 0 .337-.108.62-.324.847-.217.227-.534.34-.952.34-.418 0-.731-.113-.94-.34a1.204 1.204 0 0 1-.314-.847zm16.017-13.806l-6.633 14.873h-2.135l6.612-14.345h-8.669V6.512h10.825v1.144zm3.245 6.842l.814-7.986h8.206v1.881h-6.48l-.483 4.367c.785-.462 1.676-.693 2.673-.693 1.46 0 2.618.483 3.476 1.447.858.964 1.287 2.268 1.287 3.91 0 1.65-.445 2.95-1.336 3.9-.891.95-2.136 1.425-3.735 1.425-1.415 0-2.57-.393-3.465-1.177-.895-.785-1.404-1.87-1.53-3.256h1.926c.125.916.45 1.607.979 2.073.528.466 1.225.699 2.09.699.946 0 1.689-.323 2.228-.968.539-.646.808-1.537.808-2.673 0-1.071-.291-1.931-.874-2.58s-1.359-.974-2.327-.974c-.887 0-1.584.195-2.09.583l-.54.44-1.627-.418zm19.701-7.997v1.727h-.374c-1.584.03-2.845.499-3.784 1.408-.938.91-1.481 2.19-1.628 3.84.844-.969 1.995-1.453 3.454-1.453 1.394 0 2.507.492 3.339 1.474.832.983 1.249 2.252 1.249 3.807 0 1.65-.45 2.97-1.348 3.96-.898.99-2.103 1.485-3.614 1.485-1.532 0-2.775-.589-3.729-1.766-.953-1.177-1.43-2.693-1.43-4.548v-.781c0-2.949.63-5.202 1.887-6.76 1.258-1.559 3.13-2.356 5.615-2.393h.363zm-2.673 7.216c-.696 0-1.338.21-1.925.627-.586.418-.993.943-1.22 1.574v.748c0 1.32.296 2.383.89 3.19.594.806 1.335 1.21 2.222 1.21.917 0 1.638-.338 2.162-1.012.524-.675.787-1.559.787-2.651 0-1.1-.266-1.99-.798-2.668-.532-.678-1.238-1.018-2.118-1.018zM12.56 20.92h-2.124v-7.404H2.362v7.404H.25V4.903h2.112v6.886h8.074V4.903h2.123V20.92zm5.642 0h-2.035V9.017h2.035V20.92zm-2.2-15.06c0-.33.101-.609.303-.836.202-.227.5-.341.896-.341s.697.114.902.341c.206.227.308.506.308.836 0 .33-.102.605-.308.825-.205.22-.506.33-.902.33s-.694-.11-.896-.33a1.175 1.175 0 0 1-.303-.825zm4.973 9.01c0-1.856.429-3.332 1.287-4.428.858-1.097 1.994-1.645 3.41-1.645 1.452 0 2.585.513 3.399 1.54l.099-1.32h1.859v11.617c0 1.54-.457 2.753-1.37 3.64-.913.888-2.14 1.332-3.68 1.332a6.122 6.122 0 0 1-2.518-.55c-.822-.367-1.449-.87-1.881-1.507l1.056-1.221c.872 1.078 1.94 1.617 3.2 1.617.99 0 1.763-.279 2.316-.836.554-.558.83-1.342.83-2.354v-1.023c-.813.938-1.924 1.408-3.332 1.408-1.394 0-2.521-.561-3.383-1.684-.862-1.122-1.292-2.65-1.292-4.587zm2.046.23c0 1.342.275 2.397.825 3.163.55.766 1.32 1.15 2.31 1.15 1.283 0 2.225-.584 2.827-1.75V12.23c-.624-1.136-1.559-1.705-2.805-1.705-.99 0-1.764.385-2.321 1.155-.558.77-.836 1.91-.836 3.421zm13.112-4.642c.902-1.107 2.075-1.66 3.52-1.66 2.516 0 3.784 1.418 3.806 4.256v7.866h-2.035v-7.877c-.007-.858-.203-1.492-.588-1.903-.385-.41-.985-.616-1.799-.616-.66 0-1.24.176-1.738.528a3.586 3.586 0 0 0-1.166 1.386v8.482h-2.035V4.023h2.035v6.435zm16.27 10.462V4.903h5.236c1.738 0 3.045.36 3.921 1.078.877.719 1.315 1.782 1.315 3.19 0 .748-.213 1.41-.638 1.986-.425.575-1.005 1.02-1.738 1.336.865.242 1.549.702 2.051 1.38.503.68.754 1.488.754 2.426 0 1.438-.466 2.567-1.397 3.389-.931.82-2.248 1.232-3.95 1.232h-5.554zm2.112-7.492v5.764h3.487c.982 0 1.758-.254 2.326-.764.569-.51.853-1.212.853-2.107 0-1.928-1.049-2.893-3.146-2.893h-3.52zm0-1.694h3.19c.924 0 1.663-.23 2.216-.693.554-.462.83-1.089.83-1.88 0-.88-.256-1.52-.77-1.92-.513-.4-1.294-.6-2.342-.6h-3.124v5.093zm18.942 9.186c-.117-.235-.212-.653-.286-1.255-.946.983-2.075 1.475-3.388 1.475-1.173 0-2.136-.332-2.887-.996-.752-.664-1.128-1.505-1.128-2.525 0-1.239.471-2.201 1.414-2.887.942-.686 2.267-1.029 3.976-1.029h1.98v-.935c0-.711-.212-1.278-.638-1.7-.425-.421-1.052-.632-1.88-.632-.727 0-1.336.184-1.827.55-.491.367-.737.81-.737 1.331H66.01c0-.594.21-1.168.633-1.721.421-.554.993-.992 1.716-1.315.722-.323 1.516-.484 2.381-.484 1.372 0 2.446.343 3.223 1.029.778.685 1.181 1.63 1.21 2.832v5.478c0 1.093.14 1.962.418 2.608v.176h-2.134zm-3.377-1.552c.638 0 1.243-.165 1.815-.495.572-.33.987-.759 1.243-1.287v-2.442h-1.595c-2.493 0-3.74.73-3.74 2.19 0 .637.213 1.136.638 1.495.425.36.972.54 1.64.54zm14.037-8.525a6.098 6.098 0 0 0-1.001-.077c-1.335 0-2.24.569-2.718 1.705v8.449h-2.035V9.017h1.98l.033 1.375c.668-1.063 1.614-1.595 2.839-1.595.396 0 .696.051.902.154v1.892zm7.623 0a6.098 6.098 0 0 0-1.001-.077c-1.335 0-2.24.569-2.717 1.705v8.449h-2.035V9.017h1.98L88 10.392c.667-1.063 1.613-1.595 2.838-1.595.396 0 .697.051.902.154v1.892zM95.82 20.92h-2.035V9.017h2.035V20.92zm-2.2-15.06c0-.33.1-.609.302-.836.202-.227.5-.341.897-.341.396 0 .697.114.902.341.205.227.308.506.308.836 0 .33-.103.605-.308.825-.205.22-.506.33-.902.33s-.695-.11-.897-.33a1.175 1.175 0 0 1-.302-.825zm10.395 15.28c-1.613 0-2.926-.53-3.938-1.59s-1.518-2.477-1.518-4.252v-.374c0-1.18.226-2.235.677-3.162.45-.928 1.081-1.654 1.892-2.178a4.757 4.757 0 0 1 2.634-.787c1.548 0 2.75.51 3.608 1.53.858 1.019 1.287 2.478 1.287 4.377v.847h-8.063c.03 1.174.372 2.122 1.029 2.844.656.722 1.49 1.083 2.502 1.083.719 0 1.328-.146 1.826-.44a4.588 4.588 0 0 0 1.31-1.166l1.242.968c-.997 1.533-2.493 2.3-4.488 2.3zm-.253-10.67c-.821 0-1.51.298-2.068.896-.557.597-.902 1.435-1.034 2.513h5.962v-.154c-.058-1.034-.337-1.835-.836-2.403-.498-.569-1.173-.853-2.024-.853zm13.003.373a6.098 6.098 0 0 0-1.001-.077c-1.335 0-2.24.569-2.717 1.705v8.449h-2.036V9.017h1.98l.034 1.375c.667-1.063 1.613-1.595 2.838-1.595.396 0 .696.051.902.154v1.892z" fill="#000" fill-rule="nonzero"/></g><g transform="translate(206.782 366.885)"><rect stroke="#DEDEDE" stroke-width=".805" x="151.667" y=".402" width="280.805" height="28.966" rx="2.414"/><path d="M170.355 10.692c0 .8-.211 1.511-.633 2.134a4.304 4.304 0 0 1-1.71 1.463c.836.36 1.498.884 1.985 1.574.488.689.732 1.47.732 2.343 0 1.386-.468 2.49-1.403 3.31-.935.822-2.165 1.233-3.69 1.233-1.54 0-2.774-.413-3.702-1.238-.928-.825-1.392-1.927-1.392-3.305 0-.866.237-1.647.71-2.343.473-.697 1.127-1.225 1.963-1.585a4.198 4.198 0 0 1-1.683-1.463c-.41-.623-.616-1.33-.616-2.123 0-1.349.433-2.42 1.298-3.212.866-.792 2.006-1.188 3.422-1.188 1.408 0 2.546.396 3.415 1.188.87.792 1.304 1.863 1.304 3.212zm-1.661 7.47c0-.895-.285-1.625-.853-2.19-.568-.564-1.31-.847-2.227-.847-.917 0-1.652.28-2.206.837-.554.557-.83 1.29-.83 2.2 0 .909.269 1.624.808 2.145.539.52 1.289.78 2.25.78.953 0 1.7-.261 2.244-.786.542-.524.814-1.237.814-2.14zm-3.058-10.198c-.8 0-1.447.248-1.942.743-.495.495-.743 1.168-.743 2.018 0 .814.244 1.473.732 1.975s1.139.753 1.953.753c.814 0 1.464-.25 1.952-.753.488-.502.732-1.16.732-1.975 0-.814-.253-1.477-.76-1.99-.505-.514-1.147-.77-1.924-.77zm15.642-1.463v1.727h-.374c-1.584.03-2.845.499-3.784 1.408-.939.91-1.481 2.19-1.628 3.84.843-.969 1.995-1.453 3.454-1.453 1.393 0 2.506.492 3.339 1.474.832.983 1.248 2.252 1.248 3.807 0 1.65-.449 2.97-1.347 3.96-.899.99-2.103 1.485-3.614 1.485-1.533 0-2.776-.589-3.73-1.766-.953-1.177-1.43-2.693-1.43-4.548v-.781c0-2.949.63-5.202 1.887-6.76 1.258-1.559 3.13-2.356 5.616-2.393h.363zm-2.673 7.216c-.697 0-1.338.21-1.925.627-.587.418-.994.943-1.221 1.574v.748c0 1.32.297 2.383.89 3.19.595.806 1.336 1.21 2.223 1.21.917 0 1.637-.338 2.162-1.012.524-.675.786-1.559.786-2.651 0-1.1-.266-1.99-.797-2.668-.532-.678-1.238-1.018-2.118-1.018zm7.59 7.745c0-.352.105-.646.314-.88.209-.235.522-.352.94-.352.418 0 .735.117.952.352.216.234.324.528.324.88 0 .337-.108.62-.324.847-.217.227-.534.34-.952.34-.418 0-.731-.113-.94-.34a1.204 1.204 0 0 1-.314-.847zm16.017-13.806l-6.633 14.873h-2.135l6.612-14.345h-8.669V6.512h10.825v1.144zm3.245 6.842l.814-7.986h8.206v1.881h-6.48l-.483 4.367c.785-.462 1.676-.693 2.673-.693 1.46 0 2.618.483 3.476 1.447.858.964 1.287 2.268 1.287 3.91 0 1.65-.445 2.95-1.336 3.9-.891.95-2.136 1.425-3.735 1.425-1.415 0-2.57-.393-3.465-1.177-.895-.785-1.404-1.87-1.53-3.256h1.926c.125.916.45 1.607.979 2.073.528.466 1.225.699 2.09.699.946 0 1.689-.323 2.228-.968.539-.646.808-1.537.808-2.673 0-1.071-.291-1.931-.874-2.58s-1.359-.974-2.327-.974c-.887 0-1.584.195-2.09.583l-.54.44-1.627-.418zm19.701-7.997v1.727h-.374c-1.584.03-2.845.499-3.784 1.408-.938.91-1.481 2.19-1.628 3.84.844-.969 1.995-1.453 3.454-1.453 1.394 0 2.507.492 3.339 1.474.832.983 1.249 2.252 1.249 3.807 0 1.65-.45 2.97-1.348 3.96-.898.99-2.103 1.485-3.614 1.485-1.532 0-2.775-.589-3.729-1.766-.953-1.177-1.43-2.693-1.43-4.548v-.781c0-2.949.63-5.202 1.887-6.76 1.258-1.559 3.13-2.356 5.615-2.393h.363zm-2.673 7.216c-.696 0-1.338.21-1.925.627-.586.418-.993.943-1.22 1.574v.748c0 1.32.296 2.383.89 3.19.594.806 1.335 1.21 2.222 1.21.917 0 1.638-.338 2.162-1.012.524-.675.787-1.559.787-2.651 0-1.1-.266-1.99-.798-2.668-.532-.678-1.238-1.018-2.118-1.018zM2.373 19.192h7.59v1.728H.25V4.903h2.123v14.29zm9.141-4.334c0-1.166.23-2.214.688-3.146.458-.931 1.096-1.65 1.914-2.156.818-.506 1.75-.759 2.8-.759 1.62 0 2.931.561 3.932 1.683 1.001 1.122 1.502 2.615 1.502 4.477v.143c0 1.16-.222 2.199-.666 3.119-.444.92-1.078 1.637-1.903 2.15-.825.514-1.773.77-2.844.77-1.613 0-2.92-.56-3.921-1.683-1.001-1.122-1.502-2.607-1.502-4.455v-.143zm2.046.242c0 1.32.306 2.38.919 3.18.612.799 1.432 1.198 2.458 1.198 1.034 0 1.856-.405 2.464-1.215.61-.81.914-1.945.914-3.405 0-1.305-.31-2.363-.93-3.173-.62-.81-1.443-1.216-2.47-1.216-1.004 0-1.815.4-2.43 1.2-.617.799-.925 1.943-.925 3.431zm21.88 3.014l2.288-9.097h2.035L36.298 20.92h-1.65l-2.893-9.02-2.816 9.02h-1.65L23.835 9.017h2.024l2.343 8.91 2.772-8.91h1.639l2.827 9.097zm12.287 2.806V4.903h5.237c1.738 0 3.045.36 3.921 1.078.877.719 1.315 1.782 1.315 3.19 0 .748-.213 1.41-.638 1.986-.426.575-1.005 1.02-1.738 1.336.865.242 1.549.702 2.051 1.38.503.68.754 1.488.754 2.426 0 1.438-.466 2.567-1.397 3.389-.932.82-2.248 1.232-3.95 1.232h-5.555zm2.112-7.492v5.764h3.488c.982 0 1.758-.254 2.326-.764.569-.51.853-1.212.853-2.107 0-1.928-1.049-2.893-3.146-2.893h-3.52zm0-1.694h3.19c.925 0 1.663-.23 2.217-.693.554-.462.83-1.089.83-1.88 0-.88-.256-1.52-.77-1.92-.513-.4-1.294-.6-2.342-.6h-3.125v5.093zm18.943 9.186c-.117-.235-.213-.653-.286-1.255-.946.983-2.075 1.475-3.388 1.475-1.173 0-2.136-.332-2.888-.996-.751-.664-1.127-1.505-1.127-2.525 0-1.239.471-2.201 1.413-2.887.943-.686 2.268-1.029 3.977-1.029h1.98v-.935c0-.711-.213-1.278-.638-1.7-.425-.421-1.052-.632-1.881-.632-.726 0-1.335.184-1.826.55-.491.367-.737.81-.737 1.331h-2.046c0-.594.21-1.168.632-1.721.422-.554.994-.992 1.716-1.315.723-.323 1.517-.484 2.382-.484 1.371 0 2.446.343 3.223 1.029.777.685 1.18 1.63 1.21 2.832v5.478c0 1.093.14 1.962.418 2.608v.176h-2.134zm-3.377-1.552c.638 0 1.243-.165 1.815-.495.572-.33.986-.759 1.243-1.287v-2.442h-1.595c-2.493 0-3.74.73-3.74 2.19 0 .637.213 1.136.638 1.495.425.36.972.54 1.639.54zm14.036-8.525a6.098 6.098 0 0 0-1-.077c-1.335 0-2.241.569-2.718 1.705v8.449h-2.035V9.017h1.98l.033 1.375c.668-1.063 1.614-1.595 2.838-1.595.396 0 .697.051.902.154v1.892zm7.624 0a6.098 6.098 0 0 0-1.001-.077c-1.335 0-2.24.569-2.717 1.705v8.449h-2.035V9.017h1.98l.033 1.375c.667-1.063 1.613-1.595 2.838-1.595.396 0 .696.051.902.154v1.892zm4.08 10.077h-2.034V9.017h2.035V20.92zm-2.2-15.06c0-.33.102-.609.303-.836.202-.227.5-.341.897-.341.396 0 .696.114.902.341.205.227.308.506.308.836 0 .33-.103.605-.308.825-.206.22-.506.33-.902.33s-.695-.11-.897-.33a1.175 1.175 0 0 1-.302-.825zm10.396 15.28c-1.613 0-2.926-.53-3.938-1.59s-1.518-2.477-1.518-4.252v-.374c0-1.18.225-2.235.676-3.162.451-.928 1.082-1.654 1.893-2.178a4.757 4.757 0 0 1 2.634-.787c1.547 0 2.75.51 3.608 1.53.858 1.019 1.287 2.478 1.287 4.377v.847H95.92c.03 1.174.372 2.122 1.029 2.844.656.722 1.49 1.083 2.502 1.083.719 0 1.327-.146 1.826-.44a4.588 4.588 0 0 0 1.31-1.166l1.242.968c-.997 1.533-2.493 2.3-4.488 2.3zm-.253-10.67c-.821 0-1.51.298-2.068.896-.557.597-.902 1.435-1.034 2.513h5.962v-.154c-.058-1.034-.337-1.835-.836-2.403-.499-.569-1.173-.853-2.024-.853zm13.003.373a6.098 6.098 0 0 0-1.002-.077c-1.334 0-2.24.569-2.717 1.705v8.449h-2.035V9.017h1.98l.033 1.375c.668-1.063 1.614-1.595 2.838-1.595.397 0 .697.051.903.154v1.892z" fill="#000" fill-rule="nonzero"/></g><g fill="#DEDEDE" fill-rule="nonzero"><path d="M160.92 92.517h1.609v466.667h-1.61z"/><path d="M160.92 560.793v-1.61H700v1.61zM160.92 92.517v-1.61H700v1.61z"/></g><g transform="translate(128.736 67.575)"><path stroke="#E98024" stroke-width="1.609" d="M12.515 48.437h219.48V.517"/><circle fill="#E98024" fill-rule="nonzero" cx="6.437" cy="48.437" r="6.437"/></g></g></svg>