<svg xmlns="http://www.w3.org/2000/svg" width="32" height="32"><g fill="none" fill-rule="evenodd"><path d="M0 0h32v32H0z"/><path fill="#333" fill-rule="nonzero" d="M9 14v3h5v-3H9zm0-1h5a1 1 0 0 1 1 1v3a1 1 0 0 1-1 1H9a1 1 0 0 1-1-1v-3a1 1 0 0 1 1-1zm3.5-.5a1 1 0 0 0-2 0h2zm-1-2a2 2 0 0 1 2 2v1h-4v-1a2 2 0 0 1 2-2zM7 8v13h18V8H7zm0-1h18a1 1 0 0 1 1 1v13a1 1 0 0 1-1 1H7a1 1 0 0 1-1-1V8a1 1 0 0 1 1-1zm5 14h1v4h-1v-4zm7 0h1v4h-1v-4zm-8.5 3h11a.5.5 0 1 1 0 1h-11a.5.5 0 1 1 0-1zM6 19h20v1H6v-1zm11-9v1h6v-1h-6zm0-1h6a1 1 0 0 1 1 1v1a1 1 0 0 1-1 1h-6a1 1 0 0 1-1-1v-1a1 1 0 0 1 1-1zm0 5v1h6v-1h-6zm0-1h6a1 1 0 0 1 1 1v1a1 1 0 0 1-1 1h-6a1 1 0 0 1-1-1v-1a1 1 0 0 1 1-1zm-.5 4h1a.5.5 0 1 1 0 1h-1a.5.5 0 1 1 0-1zm3 0a.5.5 0 1 1 0 1 .5.5 0 1 1 0-1zm2 0a.5.5 0 1 1 0 1 .5.5 0 1 1 0-1z"/></g></svg>