<svg width="238" height="168" viewBox="0 0 238 168" fill="none" xmlns="http://www.w3.org/2000/svg">
<g clip-path="url(#clip0_1977_84066)">
<rect x="0.5" width="201" height="120" rx="8" fill="white"/>
<g opacity="0.8" filter="url(#filter0_f_1977_84066)">
<circle cx="153.5" cy="180" r="128" fill="#CFCFCF"/>
</g>
<g opacity="0.8" filter="url(#filter1_f_1977_84066)">
<circle cx="225.5" cy="28" r="64" fill="#D6DADB"/>
</g>
<g opacity="0.8" filter="url(#filter2_f_1977_84066)">
<circle cx="16.5" cy="16" r="40" fill="#CFCFCF"/>
</g>
<g style="mix-blend-mode:overlay" opacity="0.16">
<path d="M209.875 -8.33325L81.4903 11.9227L57.9531 120H186.337L209.875 -8.33325Z" fill="white"/>
</g>
</g>
<rect x="16.5" y="16" width="64" height="40" rx="4" fill="#E0E0E0"/>
<rect x="16.5" y="72" width="64" height="12" rx="4" fill="#E0E0E0"/>
<rect x="16.5" y="88" width="101" height="16" rx="4" fill="#E0E0E0"/>
<g filter="url(#filter3_dd_1977_84066)">
<rect x="169.5" y="84" width="48" height="48" rx="24" fill="white"/>
<rect x="169.5" y="84" width="48" height="48" rx="24" fill="white"/>
<path fill-rule="evenodd" clip-rule="evenodd" d="M202.939 99.4393C203.525 98.8536 204.475 98.8536 205.061 99.4393C205.646 100.025 205.646 100.975 205.061 101.561L190.061 116.561C189.475 117.146 188.525 117.146 187.939 116.561L181.939 110.561C181.354 109.975 181.354 109.025 181.939 108.439C182.525 107.854 183.475 107.854 184.061 108.439L189 113.379L202.939 99.4393Z" fill="#4BB4B3"/>
</g>
<defs>
<filter id="filter0_f_1977_84066" x="-134.5" y="-108" width="576" height="576" filterUnits="userSpaceOnUse" color-interpolation-filters="sRGB">
<feFlood flood-opacity="0" result="BackgroundImageFix"/>
<feBlend mode="normal" in="SourceGraphic" in2="BackgroundImageFix" result="shape"/>
<feGaussianBlur stdDeviation="80" result="effect1_foregroundBlur_1977_84066"/>
</filter>
<filter id="filter1_f_1977_84066" x="33.5" y="-164" width="384" height="384" filterUnits="userSpaceOnUse" color-interpolation-filters="sRGB">
<feFlood flood-opacity="0" result="BackgroundImageFix"/>
<feBlend mode="normal" in="SourceGraphic" in2="BackgroundImageFix" result="shape"/>
<feGaussianBlur stdDeviation="64" result="effect1_foregroundBlur_1977_84066"/>
</filter>
<filter id="filter2_f_1977_84066" x="-151.5" y="-152" width="336" height="336" filterUnits="userSpaceOnUse" color-interpolation-filters="sRGB">
<feFlood flood-opacity="0" result="BackgroundImageFix"/>
<feBlend mode="normal" in="SourceGraphic" in2="BackgroundImageFix" result="shape"/>
<feGaussianBlur stdDeviation="64" result="effect1_foregroundBlur_1977_84066"/>
</filter>
<filter id="filter3_dd_1977_84066" x="149.5" y="64" width="88" height="104" filterUnits="userSpaceOnUse" color-interpolation-filters="sRGB">
<feFlood flood-opacity="0" result="BackgroundImageFix"/>
<feColorMatrix in="SourceAlpha" type="matrix" values="0 0 0 0 0 0 0 0 0 0 0 0 0 0 0 0 0 0 127 0" result="hardAlpha"/>
<feOffset dy="16"/>
<feGaussianBlur stdDeviation="10"/>
<feColorMatrix type="matrix" values="0 0 0 0 0 0 0 0 0 0 0 0 0 0 0 0 0 0 0.05 0"/>
<feBlend mode="normal" in2="BackgroundImageFix" result="effect1_dropShadow_1977_84066"/>
<feColorMatrix in="SourceAlpha" type="matrix" values="0 0 0 0 0 0 0 0 0 0 0 0 0 0 0 0 0 0 127 0" result="hardAlpha"/>
<feOffset/>
<feGaussianBlur stdDeviation="10"/>
<feColorMatrix type="matrix" values="0 0 0 0 0 0 0 0 0 0 0 0 0 0 0 0 0 0 0.05 0"/>
<feBlend mode="normal" in2="effect1_dropShadow_1977_84066" result="effect2_dropShadow_1977_84066"/>
<feBlend mode="normal" in="SourceGraphic" in2="effect2_dropShadow_1977_84066" result="shape"/>
</filter>
<clipPath id="clip0_1977_84066">
<rect x="0.5" width="201" height="120" rx="8" fill="white"/>
</clipPath>
</defs>
</svg>
