<svg width="240" height="168" viewBox="0 0 240 168" fill="none" xmlns="http://www.w3.org/2000/svg">
<g clip-path="url(#clip0_34639_531530)">
<g clip-path="url(#clip1_34639_531530)">
<g clip-path="url(#clip2_34639_531530)">
<rect width="200" height="120" fill="white"/>
<g opacity="0.8" filter="url(#filter0_f_34639_531530)">
<circle cx="152" cy="180" r="128" fill="#F44336"/>
</g>
<g opacity="0.8" filter="url(#filter1_f_34639_531530)">
<circle cx="224" cy="28" r="64" fill="#283991"/>
</g>
<g opacity="0.8" filter="url(#filter2_f_34639_531530)">
<circle cx="16" cy="16" r="40" fill="#F44336"/>
</g>
<g style="mix-blend-mode:overlay" opacity="0.16">
<path d="M208.334 -8.33398L80.588 11.9219L57.168 119.999H184.914L208.334 -8.33398Z" fill="white"/>
</g>
</g>
<rect x="16" y="16" width="32" height="32" rx="16" fill="white"/>
<path fill-rule="evenodd" clip-rule="evenodd" d="M31.3237 16C28.2422 16.1776 25.3967 17.2272 23.0269 18.9032H41.4908C39.1207 17.2272 36.2752 16.1776 33.1937 16H32.7014H31.3237ZM19.8981 21.8057C19.1645 22.6973 18.5288 23.671 18.0004 24.7087L37.2399 24.7089H46.5173C45.9886 23.6712 45.3535 22.6975 44.6193 21.806L37.5135 21.8057H19.8981ZM16.0664 30.5439C16.1538 29.547 16.3337 28.5773 16.5966 27.6414H47.3824C47.6452 28.5771 47.8252 29.547 47.9128 30.5439H16.0664ZM16.0724 33.4476C16.1651 34.445 16.3517 35.4147 16.6198 36.3501H47.3594C47.6278 35.4147 47.8141 34.4448 47.9067 33.4476H16.0724ZM19.6967 42.1563C18.954 41.2657 18.3093 40.292 17.7728 39.2533H37.9527L46.2063 39.2534C45.6699 40.292 45.0251 41.2658 44.2823 42.1563H36.4982L19.6967 42.1563ZM31.313 47.9449L31.3615 47.9467L31.4099 47.9485C31.6024 47.9554 31.7953 47.96 31.9894 47.96C35.3792 47.96 38.52 46.886 41.1067 45.06L35.9686 45.06H22.8725C25.2858 46.7638 28.1825 47.8124 31.313 47.9449Z" fill="#F44336"/>
<path d="M31.6588 16.0078C23.4652 16.1745 16.7871 22.5007 16.0684 30.5478H31.659V16.0078H31.6588Z" fill="#283991"/>
<path d="M19.1993 25.0397L19.4429 25.7882H20.2321L19.5936 26.251L19.8375 27L19.1993 26.5369L18.5613 27L18.8047 26.251L18.1664 25.7882H18.9556L19.1993 25.0397Z" fill="#EFEFEF"/>
<path d="M19.1993 27.684L19.4429 28.4329H20.2321L19.5936 28.8958L19.8375 29.6448L19.1993 29.1817L18.5613 29.6448L18.8047 28.8958L18.1664 28.4329H18.9556L19.1993 27.684Z" fill="#EFEFEF"/>
<path d="M21.8496 21.0723L22.0932 21.8211H22.8822L22.2439 22.2841L22.4876 23.0326L21.8496 22.5701L21.2113 23.0326L21.455 22.2841L20.8165 21.8211H21.6057L21.8496 21.0723Z" fill="#EFEFEF"/>
<path d="M21.8496 23.7171L22.0932 24.4658H22.8822L22.2439 24.9284L22.4876 25.6774L21.8496 25.2148L21.2113 25.6774L21.455 24.9284L20.8165 24.4658H21.6057L21.8496 23.7171Z" fill="#EFEFEF"/>
<path d="M21.8496 26.3618L22.0932 27.1108H22.8822L22.2439 27.5731L22.4876 28.3221L21.8496 27.8591L21.2113 28.3221L21.455 27.5731L20.8165 27.1108H21.6057L21.8496 26.3618Z" fill="#EFEFEF"/>
<path d="M17.1871 28.3221L16.9433 27.5731L17.5815 27.1106H16.7928L16.7751 27.0559C16.6885 27.3232 16.6103 27.5938 16.5381 27.8674L16.5492 27.8591L17.1871 28.3221Z" fill="#EFEFEF"/>
<path d="M18.5613 24.3553L19.1993 23.8922L19.8375 24.3553L19.5937 23.6063L20.2319 23.1432H19.4427L19.1991 22.3948L18.9554 23.1432H18.6646C18.6106 23.2249 18.5583 23.307 18.5058 23.3899L18.8047 23.6063L18.5613 24.3553Z" fill="#EFEFEF"/>
<path d="M21.8496 19.9253L22.4876 20.3879L22.2439 19.6394L22.8819 19.1764H22.4262C22.0392 19.4651 21.6658 19.7707 21.307 20.0931L21.2108 20.3879L21.8496 19.9253Z" fill="#EFEFEF"/>
<path d="M23.8617 19.0658L24.4999 18.6027L25.1379 19.0658L24.8943 18.3168L25.5322 17.8542H24.7433L24.7102 17.7534C24.4429 17.8897 24.1783 18.0315 23.9198 18.1824L24.1051 18.3167L23.8617 19.0658Z" fill="#EFEFEF"/>
<path d="M24.4999 19.7502L24.7435 20.4985H25.5325L24.8942 20.9615L25.1379 21.7105L24.4999 21.2474L23.8617 21.7105L24.1053 20.9615L23.4669 20.4985H24.256L24.4999 19.7502Z" fill="#EFEFEF"/>
<path d="M24.4999 22.395L24.7435 23.1432H25.5325L24.8942 23.6063L25.1379 24.3553L24.4999 23.8922L23.8617 24.3553L24.1053 23.6063L23.4669 23.1432H24.256L24.4999 22.395Z" fill="#EFEFEF"/>
<path d="M24.4999 25.0397L24.7435 25.7882H25.5325L24.8942 26.251L25.1379 27L24.4999 26.5369L23.8617 27L24.1053 26.251L23.4669 25.7882H24.256L24.4999 25.0397Z" fill="#EFEFEF"/>
<path d="M24.4999 27.684L24.7435 28.4329H25.5325L24.8942 28.8958L25.1379 29.6448L24.4999 29.1817L23.8617 29.6448L24.1053 28.8958L23.4669 28.4329H24.256L24.4999 27.684Z" fill="#EFEFEF"/>
<path d="M27.1502 18.4276L27.3939 19.1763H28.1828L27.5448 19.6394L27.7882 20.3879L27.1502 19.9253L26.5118 20.3879L26.7556 19.6394L26.1172 19.1763H26.9063L27.1502 18.4276Z" fill="#EFEFEF"/>
<path d="M27.1502 21.0723L27.3939 21.8211H28.1828L27.5448 22.2841L27.7882 23.0326L27.1502 22.5701L26.5118 23.0326L26.7556 22.2841L26.1172 21.8211H26.9063L27.1502 21.0723Z" fill="#EFEFEF"/>
<path d="M27.1502 23.7171L27.3939 24.4658H28.1828L27.5448 24.9284L27.7882 25.6774L27.1502 25.2148L26.5118 25.6774L26.7556 24.9284L26.1172 24.4658H26.9063L27.1502 23.7171Z" fill="#EFEFEF"/>
<path d="M27.1502 26.3618L27.3939 27.1108H28.1828L27.5448 27.5731L27.7882 28.3221L27.1502 27.8591L26.5118 28.3221L26.7556 27.5731L26.1172 27.1108H26.9063L27.1502 26.3618Z" fill="#EFEFEF"/>
<path d="M29.8006 17.1055L30.0442 17.8542H30.8331L30.1949 18.3168L30.4385 19.0658L29.8006 18.6027L29.1621 19.0658L29.406 18.3168L28.7675 17.8542H29.5564L29.8006 17.1055Z" fill="#EFEFEF"/>
<path d="M29.8006 19.7502L30.0442 20.4985H30.8331L30.1949 20.9615L30.4385 21.7105L29.8006 21.2474L29.1621 21.7105L29.406 20.9615L28.7675 20.4985H29.5564L29.8006 19.7502Z" fill="#EFEFEF"/>
<path d="M29.8006 22.395L30.0442 23.1432H30.8331L30.1949 23.6063L30.4385 24.3553L29.8006 23.8922L29.1621 24.3553L29.406 23.6063L28.7675 23.1432H29.5564L29.8006 22.395Z" fill="#EFEFEF"/>
<path d="M29.8006 25.0397L30.0442 25.7882H30.8331L30.1949 26.251L30.4385 27L29.8006 26.5369L29.1621 27L29.406 26.251L28.7675 25.7882H29.5564L29.8006 25.0397Z" fill="#EFEFEF"/>
<path d="M29.8006 27.684L30.0442 28.4329H30.8331L30.1949 28.8958L30.4385 29.6448L29.8006 29.1817L29.1621 29.6448L29.406 28.8958L28.7675 28.4329H29.5564L29.8006 27.684Z" fill="#EFEFEF"/>
<path d="M17.72 74.02V78.34C17.72 79.0067 17.8433 79.5133 18.09 79.86C18.3367 80.2 18.77 80.37 19.39 80.37C20.01 80.37 20.4433 80.2 20.69 79.86C20.9367 79.5133 21.06 79.0067 21.06 78.34V74.02H21.9V78.14C21.9 78.6467 21.8533 79.0867 21.76 79.46C21.6733 79.8333 21.53 80.1433 21.33 80.39C21.13 80.6367 20.8667 80.82 20.54 80.94C20.22 81.06 19.8267 81.12 19.36 81.12C18.8933 81.12 18.5 81.06 18.18 80.94C17.8667 80.82 17.6133 80.6367 17.42 80.39C17.2267 80.1433 17.0867 79.8333 17 79.46C16.92 79.0867 16.88 78.6467 16.88 78.14V74.02H17.72ZM25.6673 81.12C25.1007 81.12 24.6173 81.0133 24.2173 80.8C23.8173 80.58 23.4773 80.28 23.1973 79.9L23.8173 79.38C24.064 79.7067 24.3373 79.9567 24.6373 80.13C24.9373 80.2967 25.2907 80.38 25.6973 80.38C26.1973 80.38 26.5773 80.26 26.8373 80.02C27.104 79.78 27.2373 79.46 27.2373 79.06C27.2373 78.7267 27.1373 78.47 26.9373 78.29C26.7373 78.11 26.4073 77.9667 25.9473 77.86L25.3773 77.73C24.7373 77.5833 24.2473 77.3633 23.9073 77.07C23.574 76.77 23.4073 76.35 23.4073 75.81C23.4073 75.5033 23.464 75.23 23.5773 74.99C23.6907 74.75 23.8473 74.55 24.0473 74.39C24.254 74.23 24.4973 74.11 24.7773 74.03C25.064 73.9433 25.3773 73.9 25.7173 73.9C26.244 73.9 26.694 73.9967 27.0673 74.19C27.4473 74.3833 27.7673 74.6667 28.0273 75.04L27.3973 75.5C27.204 75.2333 26.9707 75.0233 26.6973 74.87C26.424 74.7167 26.084 74.64 25.6773 74.64C25.2307 74.64 24.8773 74.7367 24.6173 74.93C24.364 75.1167 24.2373 75.4 24.2373 75.78C24.2373 76.1133 24.344 76.3667 24.5573 76.54C24.7773 76.7067 25.1073 76.84 25.5473 76.94L26.1173 77.07C26.804 77.2233 27.3007 77.4567 27.6073 77.77C27.914 78.0833 28.0673 78.5 28.0673 79.02C28.0673 79.34 28.0107 79.63 27.8973 79.89C27.7907 80.15 27.634 80.37 27.4273 80.55C27.2207 80.73 26.9673 80.87 26.6673 80.97C26.374 81.07 26.0407 81.12 25.6673 81.12ZM29.5179 74.02H31.8579C32.2912 74.02 32.6846 74.0933 33.0379 74.24C33.3912 74.3867 33.6912 74.6067 33.9379 74.9C34.1912 75.1867 34.3846 75.55 34.5179 75.99C34.6512 76.4233 34.7179 76.93 34.7179 77.51C34.7179 78.09 34.6512 78.6 34.5179 79.04C34.3846 79.4733 34.1912 79.8367 33.9379 80.13C33.6912 80.4167 33.3912 80.6333 33.0379 80.78C32.6846 80.9267 32.2912 81 31.8579 81H29.5179V74.02ZM31.8579 80.26C32.1446 80.26 32.4079 80.2133 32.6479 80.12C32.8879 80.02 33.0946 79.8767 33.2679 79.69C33.4412 79.5033 33.5746 79.2767 33.6679 79.01C33.7679 78.7367 33.8179 78.4267 33.8179 78.08V76.94C33.8179 76.5933 33.7679 76.2867 33.6679 76.02C33.5746 75.7467 33.4412 75.5167 33.2679 75.33C33.0946 75.1433 32.8879 75.0033 32.6479 74.91C32.4079 74.81 32.1446 74.76 31.8579 74.76H30.3579V80.26H31.8579ZM39.5602 81L37.8602 74.02H38.7502L39.5002 77.38L40.0802 79.99H40.1002L40.7502 77.38L41.6302 74.02H42.5902L43.4402 77.38L44.0902 79.98H44.1202L44.7202 77.38L45.5102 74.02H46.3702L44.5802 81H43.6502L42.7402 77.52L42.1002 74.96H42.0802L41.4202 77.52L40.4902 81H39.5602ZM51.0688 81C50.7688 81 50.5521 80.92 50.4188 80.76C50.2921 80.6 50.2121 80.4 50.1788 80.16H50.1288C50.0154 80.48 49.8288 80.72 49.5688 80.88C49.3088 81.04 48.9988 81.12 48.6388 81.12C48.0921 81.12 47.6654 80.98 47.3588 80.7C47.0588 80.42 46.9088 80.04 46.9088 79.56C46.9088 79.0733 47.0854 78.7 47.4388 78.44C47.7988 78.18 48.3554 78.05 49.1087 78.05H50.1288V77.54C50.1288 77.1733 50.0288 76.8933 49.8288 76.7C49.6288 76.5067 49.3221 76.41 48.9088 76.41C48.5954 76.41 48.3321 76.48 48.1188 76.62C47.9121 76.76 47.7388 76.9467 47.5988 77.18L47.1188 76.73C47.2588 76.45 47.4821 76.2133 47.7887 76.02C48.0954 75.82 48.4821 75.72 48.9488 75.72C49.5754 75.72 50.0621 75.8733 50.4088 76.18C50.7554 76.4867 50.9288 76.9133 50.9288 77.46V80.3H51.5187V81H51.0688ZM48.7688 80.44C48.9688 80.44 49.1521 80.4167 49.3188 80.37C49.4854 80.3233 49.6288 80.2567 49.7488 80.17C49.8688 80.0833 49.9621 79.9833 50.0288 79.87C50.0954 79.7567 50.1288 79.6333 50.1288 79.5V78.65H49.0688C48.6088 78.65 48.2721 78.7167 48.0588 78.85C47.8521 78.9833 47.7488 79.1767 47.7488 79.43V79.64C47.7488 79.8933 47.8388 80.09 48.0188 80.23C48.2054 80.37 48.4554 80.44 48.7688 80.44ZM53.5105 81C53.2305 81 53.0172 80.9233 52.8705 80.77C52.7305 80.61 52.6605 80.41 52.6605 80.17V73.6H53.4605V80.3H54.2205V81H53.5105ZM56.1863 81C55.9063 81 55.693 80.9233 55.5463 80.77C55.4063 80.61 55.3363 80.41 55.3363 80.17V73.6H56.1363V80.3H56.8963V81H56.1863ZM60.0009 81.12C59.6476 81.12 59.3276 81.0567 59.0409 80.93C58.7609 80.8033 58.5176 80.6233 58.3109 80.39C58.1109 80.15 57.9543 79.8667 57.8409 79.54C57.7343 79.2067 57.6809 78.8333 57.6809 78.42C57.6809 78.0133 57.7343 77.6433 57.8409 77.31C57.9543 76.9767 58.1109 76.6933 58.3109 76.46C58.5176 76.22 58.7609 76.0367 59.0409 75.91C59.3276 75.7833 59.6476 75.72 60.0009 75.72C60.3476 75.72 60.6576 75.7833 60.9309 75.91C61.2043 76.0367 61.4376 76.2133 61.6309 76.44C61.8243 76.66 61.9709 76.9233 62.0709 77.23C62.1776 77.5367 62.2309 77.8733 62.2309 78.24V78.62H58.5209V78.86C58.5209 79.08 58.5543 79.2867 58.6209 79.48C58.6943 79.6667 58.7943 79.83 58.9209 79.97C59.0543 80.11 59.2143 80.22 59.4009 80.3C59.5943 80.38 59.8109 80.42 60.0509 80.42C60.3776 80.42 60.6609 80.3433 60.9009 80.19C61.1476 80.0367 61.3376 79.8167 61.4709 79.53L62.0409 79.94C61.8743 80.2933 61.6143 80.58 61.2609 80.8C60.9076 81.0133 60.4876 81.12 60.0009 81.12ZM60.0009 76.39C59.7809 76.39 59.5809 76.43 59.4009 76.51C59.2209 76.5833 59.0643 76.69 58.9309 76.83C58.8043 76.97 58.7043 77.1367 58.6309 77.33C58.5576 77.5167 58.5209 77.7233 58.5209 77.95V78.02H61.3709V77.91C61.3709 77.45 61.2443 77.0833 60.9909 76.81C60.7443 76.53 60.4143 76.39 60.0009 76.39ZM64.6892 81C64.4092 81 64.1959 80.9233 64.0492 80.77C63.9092 80.61 63.8392 80.4033 63.8392 80.15V76.54H62.9892V75.84H63.4692C63.6426 75.84 63.7592 75.8067 63.8192 75.74C63.8859 75.6667 63.9192 75.5433 63.9192 75.37V74.41H64.6392V75.84H65.7692V76.54H64.6392V80.3H65.6892V81H64.6892Z" fill="#333333"/>
<path d="M17.316 99V97.306H19.948V90.754H19.822L17.834 93.358L16.49 92.308L18.828 89.228H22.048V97.306H24.12V99H17.316ZM26.5645 96.634C26.9845 96.634 27.2925 96.7413 27.4885 96.956C27.6939 97.1613 27.7965 97.4273 27.7965 97.754V98.034C27.7965 98.6033 27.6565 99.1633 27.3765 99.714C27.1059 100.265 26.7465 100.713 26.2985 101.058H24.8985C25.2252 100.75 25.5052 100.442 25.7385 100.134C25.9719 99.8353 26.1492 99.4993 26.2705 99.126C25.9439 99.07 25.7059 98.944 25.5565 98.748C25.4072 98.5427 25.3325 98.3047 25.3325 98.034V97.754C25.3325 97.4273 25.4305 97.1613 25.6265 96.956C25.8319 96.7413 26.1445 96.634 26.5645 96.634ZM30.0445 99V97.306H32.6765V90.754H32.5505L30.5625 93.358L29.2185 92.308L31.5565 89.228H34.7765V97.306H36.8485V99H30.0445ZM41.323 99.168C40.0444 99.168 39.097 98.7247 38.481 97.838C37.865 96.9513 37.557 95.71 37.557 94.114C37.557 92.518 37.865 91.2767 38.481 90.39C39.097 89.5033 40.0444 89.06 41.323 89.06C42.6017 89.06 43.549 89.5033 44.165 90.39C44.781 91.2767 45.089 92.518 45.089 94.114C45.089 95.71 44.781 96.9513 44.165 97.838C43.549 98.7247 42.6017 99.168 41.323 99.168ZM41.323 97.39C41.883 97.39 42.2704 97.1847 42.485 96.774C42.6997 96.3633 42.807 95.7847 42.807 95.038V93.19C42.807 92.4433 42.6997 91.8647 42.485 91.454C42.2704 91.0433 41.883 90.838 41.323 90.838C40.763 90.838 40.3757 91.0433 40.161 91.454C39.9464 91.8647 39.839 92.4433 39.839 93.19V95.038C39.839 95.7847 39.9464 96.3633 40.161 96.774C40.3757 97.1847 40.763 97.39 41.323 97.39ZM49.7176 99.168C48.4389 99.168 47.4916 98.7247 46.8756 97.838C46.2596 96.9513 45.9516 95.71 45.9516 94.114C45.9516 92.518 46.2596 91.2767 46.8756 90.39C47.4916 89.5033 48.4389 89.06 49.7176 89.06C50.9962 89.06 51.9436 89.5033 52.5596 90.39C53.1756 91.2767 53.4836 92.518 53.4836 94.114C53.4836 95.71 53.1756 96.9513 52.5596 97.838C51.9436 98.7247 50.9962 99.168 49.7176 99.168ZM49.7176 97.39C50.2776 97.39 50.6649 97.1847 50.8796 96.774C51.0942 96.3633 51.2016 95.7847 51.2016 95.038V93.19C51.2016 92.4433 51.0942 91.8647 50.8796 91.454C50.6649 91.0433 50.2776 90.838 49.7176 90.838C49.1576 90.838 48.7702 91.0433 48.5556 91.454C48.3409 91.8647 48.2336 92.4433 48.2336 93.19V95.038C48.2336 95.7847 48.3409 96.3633 48.5556 96.774C48.7702 97.1847 49.1576 97.39 49.7176 97.39ZM56.0821 99.154C55.6621 99.154 55.3494 99.0513 55.1441 98.846C54.9481 98.6313 54.8501 98.3607 54.8501 98.034V97.754C54.8501 97.4273 54.9481 97.1613 55.1441 96.956C55.3494 96.7413 55.6621 96.634 56.0821 96.634C56.5021 96.634 56.8101 96.7413 57.0061 96.956C57.2114 97.1613 57.3141 97.4273 57.3141 97.754V98.034C57.3141 98.3607 57.2114 98.6313 57.0061 98.846C56.8101 99.0513 56.5021 99.154 56.0821 99.154ZM62.4461 99.168C61.1674 99.168 60.2201 98.7247 59.6041 97.838C58.9881 96.9513 58.6801 95.71 58.6801 94.114C58.6801 92.518 58.9881 91.2767 59.6041 90.39C60.2201 89.5033 61.1674 89.06 62.4461 89.06C63.7248 89.06 64.6721 89.5033 65.2881 90.39C65.9041 91.2767 66.2121 92.518 66.2121 94.114C66.2121 95.71 65.9041 96.9513 65.2881 97.838C64.6721 98.7247 63.7248 99.168 62.4461 99.168ZM62.4461 97.39C63.0061 97.39 63.3934 97.1847 63.6081 96.774C63.8228 96.3633 63.9301 95.7847 63.9301 95.038V93.19C63.9301 92.4433 63.8228 91.8647 63.6081 91.454C63.3934 91.0433 63.0061 90.838 62.4461 90.838C61.8861 90.838 61.4988 91.0433 61.2841 91.454C61.0694 91.8647 60.9621 92.4433 60.9621 93.19V95.038C60.9621 95.7847 61.0694 96.3633 61.2841 96.774C61.4988 97.1847 61.8861 97.39 62.4461 97.39ZM70.8406 99.168C69.562 99.168 68.6146 98.7247 67.9986 97.838C67.3826 96.9513 67.0746 95.71 67.0746 94.114C67.0746 92.518 67.3826 91.2767 67.9986 90.39C68.6146 89.5033 69.562 89.06 70.8406 89.06C72.1193 89.06 73.0666 89.5033 73.6826 90.39C74.2986 91.2767 74.6066 92.518 74.6066 94.114C74.6066 95.71 74.2986 96.9513 73.6826 97.838C73.0666 98.7247 72.1193 99.168 70.8406 99.168ZM70.8406 97.39C71.4006 97.39 71.788 97.1847 72.0026 96.774C72.2173 96.3633 72.3246 95.7847 72.3246 95.038V93.19C72.3246 92.4433 72.2173 91.8647 72.0026 91.454C71.788 91.0433 71.4006 90.838 70.8406 90.838C70.2806 90.838 69.8933 91.0433 69.6786 91.454C69.464 91.8647 69.3566 92.4433 69.3566 93.19V95.038C69.3566 95.7847 69.464 96.3633 69.6786 96.774C69.8933 97.1847 70.2806 97.39 70.8406 97.39ZM81.4378 89.228V95.22C81.4378 95.9107 81.5731 96.4287 81.8438 96.774C82.1144 97.11 82.5671 97.278 83.2018 97.278C83.8364 97.278 84.2891 97.11 84.5598 96.774C84.8304 96.4287 84.9658 95.9107 84.9658 95.22V89.228H87.0378V94.996C87.0378 95.7147 86.9678 96.34 86.8278 96.872C86.6971 97.3947 86.4778 97.8287 86.1698 98.174C85.8618 98.51 85.4651 98.762 84.9798 98.93C84.4944 99.0887 83.9018 99.168 83.2018 99.168C82.5018 99.168 81.9091 99.0887 81.4238 98.93C80.9384 98.762 80.5418 98.51 80.2338 98.174C79.9258 97.8287 79.7018 97.3947 79.5618 96.872C79.4311 96.34 79.3658 95.7147 79.3658 94.996V89.228H81.4378ZM92.3065 99.168C91.4478 99.168 90.7198 99.0233 90.1225 98.734C89.5251 98.4353 89.0165 98.0527 88.5965 97.586L89.9965 96.172C90.6591 96.9187 91.4758 97.292 92.4465 97.292C92.9691 97.292 93.3565 97.1847 93.6085 96.97C93.8605 96.7553 93.9865 96.4707 93.9865 96.116C93.9865 95.8453 93.9118 95.6213 93.7625 95.444C93.6131 95.2573 93.3098 95.1313 92.8525 95.066L91.8865 94.94C90.8505 94.8093 90.0898 94.4967 89.6045 94.002C89.1285 93.5073 88.8905 92.8493 88.8905 92.028C88.8905 91.5893 88.9745 91.188 89.1425 90.824C89.3105 90.46 89.5485 90.1473 89.8565 89.886C90.1738 89.6247 90.5565 89.424 91.0045 89.284C91.4618 89.1347 91.9798 89.06 92.5585 89.06C93.2958 89.06 93.9445 89.1767 94.5045 89.41C95.0645 89.6433 95.5451 89.984 95.9465 90.432L94.5325 91.86C94.2991 91.5893 94.0145 91.37 93.6785 91.202C93.3518 91.0247 92.9365 90.936 92.4325 90.936C91.9565 90.936 91.6018 91.02 91.3685 91.188C91.1351 91.356 91.0185 91.5893 91.0185 91.888C91.0185 92.224 91.1071 92.4667 91.2845 92.616C91.4711 92.7653 91.7698 92.8727 92.1805 92.938L93.1465 93.092C94.1545 93.2507 94.9011 93.5633 95.3865 94.03C95.8718 94.4873 96.1145 95.1407 96.1145 95.99C96.1145 96.4567 96.0305 96.886 95.8625 97.278C95.6945 97.67 95.4471 98.006 95.1205 98.286C94.8031 98.566 94.4065 98.7853 93.9305 98.944C93.4545 99.0933 92.9131 99.168 92.3065 99.168ZM97.8788 89.228H101.561C102.205 89.228 102.793 89.3307 103.325 89.536C103.857 89.7413 104.309 90.0493 104.683 90.46C105.056 90.8613 105.345 91.37 105.551 91.986C105.756 92.5927 105.859 93.302 105.859 94.114C105.859 94.926 105.756 95.64 105.551 96.256C105.345 96.8627 105.056 97.3713 104.683 97.782C104.309 98.1833 103.857 98.4867 103.325 98.692C102.793 98.8973 102.205 99 101.561 99H97.8788V89.228ZM101.561 97.11C102.195 97.11 102.695 96.9327 103.059 96.578C103.423 96.2233 103.605 95.654 103.605 94.87V93.358C103.605 92.574 103.423 92.0047 103.059 91.65C102.695 91.2953 102.195 91.118 101.561 91.118H100.007V97.11H101.561Z" fill="#333333"/>
<path d="M163.03 27.12C162.417 27.12 161.897 27.0167 161.47 26.81C161.043 26.5967 160.68 26.3233 160.38 25.99L161.38 24.98C161.853 25.5133 162.437 25.78 163.13 25.78C163.503 25.78 163.78 25.7033 163.96 25.55C164.14 25.3967 164.23 25.1933 164.23 24.94C164.23 24.7467 164.177 24.5867 164.07 24.46C163.963 24.3267 163.747 24.2367 163.42 24.19L162.73 24.1C161.99 24.0067 161.447 23.7833 161.1 23.43C160.76 23.0767 160.59 22.6067 160.59 22.02C160.59 21.7067 160.65 21.42 160.77 21.16C160.89 20.9 161.06 20.6767 161.28 20.49C161.507 20.3033 161.78 20.16 162.1 20.06C162.427 19.9533 162.797 19.9 163.21 19.9C163.737 19.9 164.2 19.9833 164.6 20.15C165 20.3167 165.343 20.56 165.63 20.88L164.62 21.9C164.453 21.7067 164.25 21.55 164.01 21.43C163.777 21.3033 163.48 21.24 163.12 21.24C162.78 21.24 162.527 21.3 162.36 21.42C162.193 21.54 162.11 21.7067 162.11 21.92C162.11 22.16 162.173 22.3333 162.3 22.44C162.433 22.5467 162.647 22.6233 162.94 22.67L163.63 22.78C164.35 22.8933 164.883 23.1167 165.23 23.45C165.577 23.7767 165.75 24.2433 165.75 24.85C165.75 25.1833 165.69 25.49 165.57 25.77C165.45 26.05 165.273 26.29 165.04 26.49C164.813 26.69 164.53 26.8467 164.19 26.96C163.85 27.0667 163.463 27.12 163.03 27.12ZM168.454 27L166.204 20.02H167.744L168.784 23.37L169.334 25.56H169.364L169.894 23.37L170.934 20.02H172.424L170.154 27H168.454ZM177.456 25.89H177.406C177.353 26.2433 177.173 26.5367 176.866 26.77C176.559 27.0033 176.143 27.12 175.616 27.12C175.216 27.12 174.843 27.0433 174.496 26.89C174.149 26.7367 173.846 26.51 173.586 26.21C173.326 25.91 173.123 25.5367 172.976 25.09C172.829 24.6433 172.756 24.1267 172.756 23.54C172.756 22.9533 172.833 22.4333 172.986 21.98C173.139 21.5267 173.353 21.1467 173.626 20.84C173.906 20.5333 174.239 20.3 174.626 20.14C175.013 19.98 175.443 19.9 175.916 19.9C176.543 19.9 177.083 20.0367 177.536 20.31C177.989 20.5767 178.346 20.98 178.606 21.52L177.366 22.23C177.259 21.9567 177.093 21.7267 176.866 21.54C176.639 21.3467 176.323 21.25 175.916 21.25C175.443 21.25 175.066 21.3867 174.786 21.66C174.506 21.9333 174.366 22.3633 174.366 22.95V24.07C174.366 24.65 174.506 25.08 174.786 25.36C175.066 25.6333 175.443 25.77 175.916 25.77C176.103 25.77 176.279 25.75 176.446 25.71C176.613 25.6633 176.759 25.5967 176.886 25.51C177.013 25.4167 177.109 25.3067 177.176 25.18C177.249 25.0533 177.286 24.9033 177.286 24.73V24.38H175.986V23.11H178.736V27H177.456V25.89Z" fill="#333333"/>
<rect x="156.5" y="16.5" width="27" height="13" rx="1.5" stroke="#333333"/>
</g>
</g>
<g clip-path="url(#clip3_34639_531530)">
<g clip-path="url(#clip4_34639_531530)">
<g clip-path="url(#clip5_34639_531530)">
<rect width="200" height="120" transform="translate(40 48)" fill="white"/>
<g opacity="0.8" filter="url(#filter3_f_34639_531530)">
<circle cx="192" cy="228" r="128" fill="#F7931B"/>
</g>
<g opacity="0.8" filter="url(#filter4_f_34639_531530)">
<circle cx="264" cy="76" r="64" fill="#F7C71B"/>
</g>
<g opacity="0.8" filter="url(#filter5_f_34639_531530)">
<circle cx="56" cy="64" r="40" fill="#F7931B"/>
</g>
<g style="mix-blend-mode:overlay" opacity="0.16">
<path d="M248.334 39.666L120.588 59.9219L97.168 167.999H224.914L248.334 39.666Z" fill="white"/>
</g>
</g>
<path d="M99.4132 82.1945C99.7482 82.1945 100.048 82.2265 100.311 82.2919C100.576 82.3573 100.816 82.4418 101.033 82.5482L100.463 83.8714C100.314 83.8099 100.159 83.7561 99.9991 83.7061C99.8392 83.6561 99.6437 83.6318 99.4132 83.6318C98.861 83.6318 98.4248 83.8259 98.1 84.2129C97.7765 84.6006 97.6141 85.1216 97.6141 85.7758C97.6141 86.1635 97.6956 86.4768 97.8599 86.7164C98.0236 86.9561 98.3261 87.0753 98.7642 87.0753C98.9807 87.0753 99.1903 87.0522 99.3902 87.0074C99.5915 86.9619 99.7698 86.9048 99.9265 86.8363L100.05 88.1928C99.8411 88.2761 99.6106 88.3504 99.3578 88.4164C99.1043 88.4792 98.8024 88.5125 98.4522 88.5125C97.9904 88.5125 97.5994 88.4433 97.2797 88.3075C96.9594 88.1691 96.6951 87.9858 96.4868 87.7539C96.278 87.5213 96.1277 87.2502 96.0347 86.9381C95.9417 86.6267 95.8946 86.2993 95.8946 85.9578C95.8946 85.4413 95.9761 84.9543 96.1398 84.4981C96.3028 84.0419 96.5384 83.6427 96.8441 83.2998C97.1485 82.9596 97.5192 82.6892 97.9554 82.4912C98.3904 82.2938 98.8763 82.1945 99.4125 82.1945H99.4132ZM85.8419 79.5039L85.1503 82.4451C85.298 82.3771 85.4477 82.3246 85.5961 82.2861C85.7457 82.2477 85.9056 82.2285 86.0762 82.2285C86.4341 82.2285 86.7437 82.2938 87.0035 82.4226C87.2646 82.5521 87.4799 82.727 87.6531 82.9474C87.8231 83.1685 87.9499 83.4267 88.032 83.7228C88.1135 84.0194 88.1543 84.3385 88.1543 84.6807C88.1543 85.2055 88.06 85.7015 87.8696 86.1686C87.6798 86.6363 87.4219 87.0426 87.0933 87.3893C86.7653 87.7353 86.3781 88.0076 85.9317 88.2094C85.4859 88.4106 85.0012 88.5119 84.4803 88.5119C84.4134 88.5119 84.295 88.51 84.1275 88.5061C83.9606 88.5029 83.7683 88.485 83.553 88.4549C83.3365 88.4247 83.1072 88.3792 82.8659 88.3177C82.6239 88.2581 82.3946 88.1736 82.1787 88.0672L84.1116 79.7775L85.8419 79.5039V79.5039ZM104.219 82.1945C104.607 82.1945 104.947 82.256 105.242 82.3771C105.535 82.4989 105.777 82.6706 105.968 82.8904C106.157 83.1115 106.301 83.371 106.398 83.6721C106.495 83.9714 106.543 84.3046 106.543 84.6692C106.543 85.1241 106.472 85.581 106.331 86.0379C106.191 86.4928 105.981 86.9035 105.705 87.2694C105.43 87.634 105.086 87.932 104.672 88.1639C104.26 88.3953 103.781 88.5119 103.237 88.5119C102.842 88.5119 102.5 88.4504 102.209 88.3293C101.919 88.2075 101.679 88.0371 101.489 87.816C101.299 87.5962 101.157 87.3354 101.059 87.0349C100.961 86.735 100.915 86.4025 100.915 86.0385C100.915 85.5816 100.987 85.1248 101.131 84.6692C101.277 84.2129 101.491 83.8029 101.775 83.4383C102.056 83.073 102.404 82.7744 102.813 82.5418C103.222 82.3111 103.692 82.1945 104.219 82.1945V82.1945ZM94.5368 80.5875L94.112 82.3547H95.9665L95.6316 83.7452H93.7885L93.2975 85.8437C93.2523 86.0186 93.2262 86.182 93.2192 86.3333C93.2109 86.4858 93.23 86.6171 93.2746 86.7273C93.3191 86.8375 93.3988 86.9228 93.5147 86.9836C93.6299 87.0445 93.7949 87.0753 94.0114 87.0753C94.1897 87.0753 94.3636 87.058 94.5317 87.024C94.6986 86.9901 94.868 86.9426 95.0393 86.8811L95.1628 88.1819C94.9393 88.2652 94.6973 88.337 94.4368 88.3978C94.1757 88.4593 93.8662 88.4888 93.5089 88.4888C92.9956 88.4888 92.5976 88.4106 92.3136 88.2556C92.0308 88.0999 91.8302 87.8865 91.7105 87.6161C91.592 87.347 91.5391 87.0368 91.5544 86.6876C91.5697 86.3371 91.6213 85.9693 91.7105 85.5816L92.8058 80.8611L94.5368 80.5875V80.5875ZM91.357 82.3547L89.9496 88.3523H88.2963L89.6923 82.3547H91.357ZM109.752 82.3547L108.344 88.3523H106.69L108.086 82.3547H109.752ZM113.309 82.2176C114.181 82.2176 114.782 82.4765 115.114 82.9929C115.445 83.51 115.503 84.2174 115.288 85.1139L114.528 88.3523H112.863L113.6 85.1824C113.645 84.9838 113.681 84.7928 113.707 84.6057C113.733 84.4206 113.731 84.2572 113.7 84.1162C113.671 83.9765 113.602 83.8618 113.495 83.7734C113.386 83.6862 113.221 83.6427 112.997 83.6427C112.781 83.6427 112.562 83.6664 112.339 83.7119L111.255 88.3523H109.59L110.942 82.6283C111.068 82.5905 111.208 82.5457 111.36 82.497C111.513 82.4476 111.684 82.4021 111.875 82.3611C112.064 82.3188 112.276 82.2842 112.511 82.2579C112.746 82.2304 113.012 82.2176 113.309 82.2176V82.2176ZM85.6636 83.6427C85.5591 83.6427 85.4241 83.6632 85.2566 83.6997C85.0885 83.7381 84.9382 83.8182 84.8038 83.9393L84.067 87.0631L84.1842 87.0862C84.2166 87.0939 84.2529 87.099 84.2892 87.1035C84.3274 87.1073 84.3714 87.1099 84.4242 87.1099H84.6249C84.886 87.1099 85.1312 87.0445 85.3617 86.9157C85.5929 86.7876 85.7928 86.6133 85.9603 86.3967C86.1272 86.1795 86.2597 85.9353 86.3565 85.6611C86.4526 85.3875 86.5017 85.1023 86.5017 84.8057C86.5017 84.4404 86.4418 84.1559 86.3233 83.9502C86.2042 83.7452 85.9839 83.6427 85.6642 83.6427H85.6636ZM104.063 83.6318C103.818 83.6318 103.602 83.7042 103.416 83.8477C103.23 83.9932 103.074 84.1751 102.948 84.3956C102.82 84.6166 102.725 84.8576 102.661 85.1196C102.599 85.3824 102.567 85.6303 102.567 85.8661C102.567 86.2468 102.627 86.5434 102.746 86.7568C102.866 86.9683 103.081 87.0753 103.393 87.0753C103.64 87.0753 103.855 87.0035 104.042 86.8581C104.226 86.7145 104.383 86.5313 104.511 86.3108C104.637 86.091 104.732 85.8495 104.796 85.5868C104.859 85.3253 104.891 85.0754 104.891 84.8403C104.891 84.4609 104.831 84.1636 104.711 83.9509C104.592 83.7381 104.376 83.6318 104.063 83.6318V83.6318ZM91.0004 79.6173C91.2309 79.6173 91.4392 79.6878 91.6251 79.8281C91.8111 79.9691 91.9047 80.1844 91.9047 80.4721C91.9047 80.6323 91.8729 80.7822 91.8092 80.9232C91.7461 81.0642 91.6627 81.1853 91.5583 81.2885C91.4551 81.391 91.3328 81.4717 91.1952 81.5332C91.057 81.5947 90.9106 81.6236 90.7545 81.6236C90.524 81.6236 90.3151 81.5531 90.1292 81.4128C89.9419 81.2731 89.8489 81.0584 89.8489 80.7688C89.8489 80.6086 89.8808 80.4599 89.9445 80.3183C90.0082 80.1774 90.0909 80.0569 90.196 79.9531C90.3005 79.8512 90.4208 79.7698 90.559 79.7083C90.6966 79.6474 90.8437 79.6173 91.0004 79.6173V79.6173ZM109.394 79.6173C109.625 79.6173 109.834 79.6878 110.02 79.8281C110.206 79.9691 110.3 80.1844 110.3 80.4721C110.3 80.6323 110.266 80.7822 110.204 80.9232C110.142 81.0642 110.057 81.1853 109.954 81.2885C109.849 81.391 109.728 81.4717 109.591 81.5332C109.452 81.5947 109.305 81.6236 109.149 81.6236C108.918 81.6236 108.709 81.5531 108.523 81.4128C108.337 81.2731 108.244 81.0584 108.244 80.7688C108.244 80.6086 108.276 80.4599 108.339 80.3183C108.402 80.1774 108.486 80.0569 108.59 79.9531C108.695 79.8512 108.816 79.7698 108.953 79.7083C109.091 79.6474 109.238 79.6173 109.394 79.6173V79.6173Z" fill="#4D4D4D"/>
<circle cx="70" cy="84" r="9" fill="#F7931B"/>
<path fill-rule="evenodd" clip-rule="evenodd" d="M69.2018 79.762L69.5991 78.1387L70.5668 78.3847L70.1772 79.9759C70.4381 80.0374 70.6994 80.0989 70.9539 80.163L71.3397 78.582L72.3075 78.828L71.9115 80.4525C73.1339 80.8817 74.0278 81.5262 73.8508 82.7254C73.7248 83.6017 73.2485 84.0271 72.6157 84.1757C73.4841 84.6382 73.9259 85.3454 73.5057 86.5741C72.9824 88.0975 71.7409 88.2269 70.0906 87.9066L69.6895 89.5465L68.7217 89.3005L69.1165 87.6836C68.8669 87.6196 68.6097 87.5517 68.3448 87.4786L67.9488 89.1032L66.981 88.8572L67.3821 87.2147C66.7326 87.0458 66.083 86.8779 65.4326 86.7125L65.9127 85.5812C65.9127 85.5812 66.6258 85.7734 66.6168 85.7605C66.8906 85.8297 67.0116 85.6465 67.06 85.5248C67.4228 84.0426 67.7847 82.5603 68.1462 81.0778C68.1589 80.8676 68.0876 80.6024 67.6954 80.5025C67.7107 80.491 66.9925 80.3244 66.9925 80.3244L67.2497 79.2687C67.8998 79.4341 68.5482 79.6105 69.2018 79.762ZM69.4251 84.168C69.3356 84.1475 69.2565 84.1294 69.1916 84.1129L68.6606 86.2884C68.7145 86.3021 68.7776 86.3191 68.8482 86.3382C69.6374 86.5512 71.3656 87.0178 71.6403 85.8912C71.9214 84.739 70.241 84.3546 69.4251 84.168ZM70.1156 81.1906C70.0395 81.1734 69.9723 81.1583 69.9174 81.1444L69.4348 83.1174C69.4809 83.1291 69.5351 83.1438 69.5958 83.1603C70.2553 83.3396 71.6888 83.7292 71.9395 82.7074C72.1949 81.6588 70.7969 81.344 70.1156 81.1906Z" fill="white"/>
<path d="M56.93 122.02H59.8C60.38 122.02 60.8333 122.183 61.16 122.51C61.4933 122.837 61.66 123.273 61.66 123.82C61.66 124.08 61.6233 124.3 61.55 124.48C61.4767 124.66 61.3833 124.81 61.27 124.93C61.1567 125.043 61.0333 125.13 60.9 125.19C60.7667 125.243 60.6433 125.28 60.53 125.3V125.36C60.6567 125.367 60.7967 125.4 60.95 125.46C61.11 125.52 61.26 125.617 61.4 125.75C61.54 125.877 61.6567 126.043 61.75 126.25C61.85 126.45 61.9 126.693 61.9 126.98C61.9 127.267 61.8533 127.533 61.76 127.78C61.6733 128.027 61.55 128.24 61.39 128.42C61.23 128.6 61.04 128.743 60.82 128.85C60.6 128.95 60.36 129 60.1 129H56.93V122.02ZM57.77 128.26H59.84C60.2 128.26 60.4833 128.17 60.69 127.99C60.8967 127.803 61 127.533 61 127.18V126.84C61 126.487 60.8967 126.22 60.69 126.04C60.4833 125.853 60.2 125.76 59.84 125.76H57.77V128.26ZM57.77 125.04H59.7C60.0333 125.04 60.2933 124.957 60.48 124.79C60.6667 124.623 60.76 124.383 60.76 124.07V123.73C60.76 123.417 60.6667 123.177 60.48 123.01C60.2933 122.843 60.0333 122.76 59.7 122.76H57.77V125.04ZM65.5593 122.76V129H64.7193V122.76H62.4993V122.02H67.7793V122.76H65.5593ZM71.1966 129.12C70.31 129.12 69.62 128.82 69.1266 128.22C68.6333 127.613 68.3866 126.723 68.3866 125.55C68.3866 124.377 68.6333 123.477 69.1266 122.85C69.62 122.217 70.31 121.9 71.1966 121.9C71.7833 121.9 72.2733 122.033 72.6666 122.3C73.0666 122.567 73.3766 122.943 73.5966 123.43L72.9166 123.84C72.7766 123.48 72.5633 123.193 72.2766 122.98C71.99 122.76 71.63 122.65 71.1966 122.65C70.8966 122.65 70.6266 122.707 70.3866 122.82C70.1533 122.933 69.9533 123.097 69.7866 123.31C69.6266 123.517 69.5033 123.767 69.4166 124.06C69.33 124.347 69.2866 124.67 69.2866 125.03V126.07C69.2866 126.79 69.4533 127.353 69.7866 127.76C70.12 128.167 70.59 128.37 71.1966 128.37C71.6433 128.37 72.0166 128.257 72.3166 128.03C72.6166 127.797 72.8366 127.49 72.9766 127.11L73.6466 127.53C73.4266 128.023 73.11 128.413 72.6966 128.7C72.2833 128.98 71.7833 129.12 71.1966 129.12ZM78.2809 129L76.5809 122.02H77.4709L78.2209 125.38L78.8009 127.99H78.8209L79.4709 125.38L80.3509 122.02H81.3109L82.1609 125.38L82.8109 127.98H82.8409L83.4409 125.38L84.2309 122.02H85.0909L83.3009 129H82.3709L81.4609 125.52L80.8209 122.96H80.8009L80.1409 125.52L79.2109 129H78.2809ZM89.7895 129C89.4895 129 89.2728 128.92 89.1395 128.76C89.0128 128.6 88.9328 128.4 88.8995 128.16H88.8495C88.7361 128.48 88.5495 128.72 88.2895 128.88C88.0295 129.04 87.7195 129.12 87.3595 129.12C86.8128 129.12 86.3861 128.98 86.0795 128.7C85.7795 128.42 85.6295 128.04 85.6295 127.56C85.6295 127.073 85.8061 126.7 86.1595 126.44C86.5195 126.18 87.0761 126.05 87.8295 126.05H88.8495V125.54C88.8495 125.173 88.7495 124.893 88.5495 124.7C88.3495 124.507 88.0428 124.41 87.6295 124.41C87.3161 124.41 87.0528 124.48 86.8395 124.62C86.6328 124.76 86.4595 124.947 86.3195 125.18L85.8395 124.73C85.9795 124.45 86.2028 124.213 86.5095 124.02C86.8161 123.82 87.2028 123.72 87.6695 123.72C88.2961 123.72 88.7828 123.873 89.1295 124.18C89.4761 124.487 89.6495 124.913 89.6495 125.46V128.3H90.2395V129H89.7895ZM87.4895 128.44C87.6895 128.44 87.8728 128.417 88.0395 128.37C88.2061 128.323 88.3495 128.257 88.4695 128.17C88.5895 128.083 88.6828 127.983 88.7495 127.87C88.8161 127.757 88.8495 127.633 88.8495 127.5V126.65H87.7895C87.3295 126.65 86.9928 126.717 86.7795 126.85C86.5728 126.983 86.4695 127.177 86.4695 127.43V127.64C86.4695 127.893 86.5595 128.09 86.7395 128.23C86.9261 128.37 87.1761 128.44 87.4895 128.44ZM92.2313 129C91.9513 129 91.7379 128.923 91.5913 128.77C91.4513 128.61 91.3813 128.41 91.3813 128.17V121.6H92.1813V128.3H92.9413V129H92.2313ZM94.907 129C94.627 129 94.4137 128.923 94.267 128.77C94.127 128.61 94.057 128.41 94.057 128.17V121.6H94.857V128.3H95.617V129H94.907ZM98.7216 129.12C98.3683 129.12 98.0483 129.057 97.7616 128.93C97.4816 128.803 97.2383 128.623 97.0316 128.39C96.8316 128.15 96.675 127.867 96.5616 127.54C96.455 127.207 96.4016 126.833 96.4016 126.42C96.4016 126.013 96.455 125.643 96.5616 125.31C96.675 124.977 96.8316 124.693 97.0316 124.46C97.2383 124.22 97.4816 124.037 97.7616 123.91C98.0483 123.783 98.3683 123.72 98.7216 123.72C99.0683 123.72 99.3783 123.783 99.6516 123.91C99.925 124.037 100.158 124.213 100.352 124.44C100.545 124.66 100.692 124.923 100.792 125.23C100.898 125.537 100.952 125.873 100.952 126.24V126.62H97.2416V126.86C97.2416 127.08 97.275 127.287 97.3416 127.48C97.415 127.667 97.515 127.83 97.6416 127.97C97.775 128.11 97.935 128.22 98.1216 128.3C98.315 128.38 98.5316 128.42 98.7716 128.42C99.0983 128.42 99.3816 128.343 99.6216 128.19C99.8683 128.037 100.058 127.817 100.192 127.53L100.762 127.94C100.595 128.293 100.335 128.58 99.9816 128.8C99.6283 129.013 99.2083 129.12 98.7216 129.12ZM98.7216 124.39C98.5016 124.39 98.3016 124.43 98.1216 124.51C97.9416 124.583 97.785 124.69 97.6516 124.83C97.525 124.97 97.425 125.137 97.3516 125.33C97.2783 125.517 97.2416 125.723 97.2416 125.95V126.02H100.092V125.91C100.092 125.45 99.965 125.083 99.7116 124.81C99.465 124.53 99.135 124.39 98.7216 124.39ZM103.41 129C103.13 129 102.917 128.923 102.77 128.77C102.63 128.61 102.56 128.403 102.56 128.15V124.54H101.71V123.84H102.19C102.363 123.84 102.48 123.807 102.54 123.74C102.607 123.667 102.64 123.543 102.64 123.37V122.41H103.36V123.84H104.49V124.54H103.36V128.3H104.41V129H103.41Z" fill="#333333"/>
<path d="M60.2 147.168C58.9213 147.168 57.974 146.725 57.358 145.838C56.742 144.951 56.434 143.71 56.434 142.114C56.434 140.518 56.742 139.277 57.358 138.39C57.974 137.503 58.9213 137.06 60.2 137.06C61.4787 137.06 62.426 137.503 63.042 138.39C63.658 139.277 63.966 140.518 63.966 142.114C63.966 143.71 63.658 144.951 63.042 145.838C62.426 146.725 61.4787 147.168 60.2 147.168ZM60.2 145.39C60.76 145.39 61.1473 145.185 61.362 144.774C61.5767 144.363 61.684 143.785 61.684 143.038V141.19C61.684 140.443 61.5767 139.865 61.362 139.454C61.1473 139.043 60.76 138.838 60.2 138.838C59.64 138.838 59.2527 139.043 59.038 139.454C58.8233 139.865 58.716 140.443 58.716 141.19V143.038C58.716 143.785 58.8233 144.363 59.038 144.774C59.2527 145.185 59.64 145.39 60.2 145.39ZM66.5645 147.154C66.1445 147.154 65.8319 147.051 65.6265 146.846C65.4305 146.631 65.3325 146.361 65.3325 146.034V145.754C65.3325 145.427 65.4305 145.161 65.6265 144.956C65.8319 144.741 66.1445 144.634 66.5645 144.634C66.9845 144.634 67.2925 144.741 67.4885 144.956C67.6939 145.161 67.7965 145.427 67.7965 145.754V146.034C67.7965 146.361 67.6939 146.631 67.4885 146.846C67.2925 147.051 66.9845 147.154 66.5645 147.154ZM76.0365 139.062H71.5985L71.3885 142.156H71.5005C71.5938 141.923 71.6965 141.713 71.8085 141.526C71.9298 141.33 72.0698 141.167 72.2285 141.036C72.3872 140.896 72.5785 140.789 72.8025 140.714C73.0265 140.639 73.2925 140.602 73.6005 140.602C74.0205 140.602 74.4125 140.672 74.7765 140.812C75.1405 140.952 75.4578 141.157 75.7285 141.428C75.9992 141.689 76.2138 142.016 76.3725 142.408C76.5312 142.791 76.6105 143.225 76.6105 143.71C76.6105 144.205 76.5265 144.667 76.3585 145.096C76.1998 145.516 75.9572 145.88 75.6305 146.188C75.3132 146.496 74.9212 146.739 74.4545 146.916C73.9878 147.084 73.4558 147.168 72.8585 147.168C72.3825 147.168 71.9625 147.117 71.5985 147.014C71.2345 146.911 70.9125 146.776 70.6325 146.608C70.3525 146.431 70.1098 146.23 69.9045 146.006C69.6992 145.782 69.5218 145.544 69.3725 145.292L70.8985 144.088C71.1132 144.471 71.3698 144.797 71.6685 145.068C71.9672 145.329 72.3685 145.46 72.8725 145.46C73.3765 145.46 73.7545 145.315 74.0065 145.026C74.2678 144.737 74.3985 144.354 74.3985 143.878V143.766C74.3985 143.318 74.2678 142.963 74.0065 142.702C73.7452 142.441 73.3858 142.31 72.9285 142.31C72.5458 142.31 72.2285 142.389 71.9765 142.548C71.7338 142.697 71.5472 142.847 71.4165 142.996L69.6945 142.758L70.0585 137.228H76.0365V139.062ZM81.323 147.168C80.0444 147.168 79.097 146.725 78.481 145.838C77.865 144.951 77.557 143.71 77.557 142.114C77.557 140.518 77.865 139.277 78.481 138.39C79.097 137.503 80.0444 137.06 81.323 137.06C82.6017 137.06 83.549 137.503 84.165 138.39C84.781 139.277 85.089 140.518 85.089 142.114C85.089 143.71 84.781 144.951 84.165 145.838C83.549 146.725 82.6017 147.168 81.323 147.168ZM81.323 145.39C81.883 145.39 82.2704 145.185 82.485 144.774C82.6997 144.363 82.807 143.785 82.807 143.038V141.19C82.807 140.443 82.6997 139.865 82.485 139.454C82.2704 139.043 81.883 138.838 81.323 138.838C80.763 138.838 80.3757 139.043 80.161 139.454C79.9464 139.865 79.839 140.443 79.839 141.19V143.038C79.839 143.785 79.9464 144.363 80.161 144.774C80.3757 145.185 80.763 145.39 81.323 145.39ZM93.2316 147H86.3156V145.082L89.3256 142.506C89.5962 142.273 89.8249 142.063 90.0116 141.876C90.1982 141.68 90.3476 141.493 90.4596 141.316C90.5809 141.129 90.6649 140.947 90.7116 140.77C90.7676 140.593 90.7956 140.401 90.7956 140.196V140C90.7956 139.813 90.7582 139.65 90.6836 139.51C90.6089 139.37 90.5109 139.253 90.3896 139.16C90.2682 139.067 90.1282 138.997 89.9696 138.95C89.8202 138.903 89.6662 138.88 89.5076 138.88C89.2742 138.88 89.0689 138.917 88.8916 138.992C88.7236 139.067 88.5742 139.169 88.4436 139.3C88.3222 139.421 88.2196 139.566 88.1356 139.734C88.0516 139.893 87.9862 140.065 87.9396 140.252L86.1056 139.552C86.2176 139.216 86.3716 138.899 86.5676 138.6C86.7636 138.292 87.0062 138.026 87.2956 137.802C87.5942 137.569 87.9442 137.387 88.3456 137.256C88.7469 137.125 89.1996 137.06 89.7036 137.06C90.2356 137.06 90.7069 137.135 91.1176 137.284C91.5282 137.433 91.8736 137.639 92.1536 137.9C92.4429 138.161 92.6622 138.474 92.8116 138.838C92.9609 139.193 93.0356 139.58 93.0356 140C93.0356 140.42 92.9656 140.803 92.8256 141.148C92.6856 141.493 92.4942 141.82 92.2516 142.128C92.0182 142.427 91.7429 142.711 91.4256 142.982C91.1082 143.253 90.7769 143.528 90.4316 143.808L88.6116 145.236H93.2316V147ZM95.2281 147V145.306H97.8601V138.754H97.7341L95.7461 141.358L94.4021 140.308L96.7401 137.228H99.9601V145.306H102.032V147H95.2281ZM110.021 147H103.105V145.082L106.115 142.506C106.385 142.273 106.614 142.063 106.801 141.876C106.987 141.68 107.137 141.493 107.249 141.316C107.37 141.129 107.454 140.947 107.501 140.77C107.557 140.593 107.585 140.401 107.585 140.196V140C107.585 139.813 107.547 139.65 107.473 139.51C107.398 139.37 107.3 139.253 107.179 139.16C107.057 139.067 106.917 138.997 106.759 138.95C106.609 138.903 106.455 138.88 106.297 138.88C106.063 138.88 105.858 138.917 105.681 138.992C105.513 139.067 105.363 139.169 105.233 139.3C105.111 139.421 105.009 139.566 104.925 139.734C104.841 139.893 104.775 140.065 104.729 140.252L102.895 139.552C103.007 139.216 103.161 138.899 103.357 138.6C103.553 138.292 103.795 138.026 104.085 137.802C104.383 137.569 104.733 137.387 105.135 137.256C105.536 137.125 105.989 137.06 106.493 137.06C107.025 137.06 107.496 137.135 107.907 137.284C108.317 137.433 108.663 137.639 108.943 137.9C109.232 138.161 109.451 138.474 109.601 138.838C109.75 139.193 109.825 139.58 109.825 140C109.825 140.42 109.755 140.803 109.615 141.148C109.475 141.493 109.283 141.82 109.041 142.128C108.807 142.427 108.532 142.711 108.215 142.982C107.897 143.253 107.566 143.528 107.221 143.808L105.401 145.236H110.021V147ZM114.901 147.168C113.623 147.168 112.675 146.725 112.059 145.838C111.443 144.951 111.135 143.71 111.135 142.114C111.135 140.518 111.443 139.277 112.059 138.39C112.675 137.503 113.623 137.06 114.901 137.06C116.18 137.06 117.127 137.503 117.743 138.39C118.359 139.277 118.667 140.518 118.667 142.114C118.667 143.71 118.359 144.951 117.743 145.838C117.127 146.725 116.18 147.168 114.901 147.168ZM114.901 145.39C115.461 145.39 115.849 145.185 116.063 144.774C116.278 144.363 116.385 143.785 116.385 143.038V141.19C116.385 140.443 116.278 139.865 116.063 139.454C115.849 139.043 115.461 138.838 114.901 138.838C114.341 138.838 113.954 139.043 113.739 139.454C113.525 139.865 113.417 140.443 113.417 141.19V143.038C113.417 143.785 113.525 144.363 113.739 144.774C113.954 145.185 114.341 145.39 114.901 145.39ZM120.412 147V145.306H123.044V138.754H122.918L120.93 141.358L119.586 140.308L121.924 137.228H125.144V145.306H127.216V147H120.412ZM135.204 147H128.288V145.082L131.298 142.506C131.569 142.273 131.798 142.063 131.984 141.876C132.171 141.68 132.32 141.493 132.432 141.316C132.554 141.129 132.638 140.947 132.684 140.77C132.74 140.593 132.768 140.401 132.768 140.196V140C132.768 139.813 132.731 139.65 132.656 139.51C132.582 139.37 132.484 139.253 132.362 139.16C132.241 139.067 132.101 138.997 131.942 138.95C131.793 138.903 131.639 138.88 131.48 138.88C131.247 138.88 131.042 138.917 130.864 138.992C130.696 139.067 130.547 139.169 130.416 139.3C130.295 139.421 130.192 139.566 130.108 139.734C130.024 139.893 129.959 140.065 129.912 140.252L128.078 139.552C128.19 139.216 128.344 138.899 128.54 138.6C128.736 138.292 128.979 138.026 129.268 137.802C129.567 137.569 129.917 137.387 130.318 137.256C130.72 137.125 131.172 137.06 131.676 137.06C132.208 137.06 132.68 137.135 133.09 137.284C133.501 137.433 133.846 137.639 134.126 137.9C134.416 138.161 134.635 138.474 134.784 138.838C134.934 139.193 135.008 139.58 135.008 140C135.008 140.42 134.938 140.803 134.798 141.148C134.658 141.493 134.467 141.82 134.224 142.128C133.991 142.427 133.716 142.711 133.398 142.982C133.081 143.253 132.75 143.528 132.404 143.808L130.584 145.236H135.204V147ZM140.271 137.228H145.017C145.829 137.228 146.459 137.457 146.907 137.914C147.365 138.371 147.593 138.978 147.593 139.734C147.593 140.107 147.542 140.425 147.439 140.686C147.346 140.947 147.215 141.162 147.047 141.33C146.889 141.498 146.697 141.624 146.473 141.708C146.259 141.783 146.025 141.825 145.773 141.834V141.918C146.007 141.918 146.249 141.96 146.501 142.044C146.763 142.128 147.001 142.263 147.215 142.45C147.43 142.627 147.607 142.861 147.747 143.15C147.897 143.439 147.971 143.794 147.971 144.214C147.971 144.597 147.906 144.961 147.775 145.306C147.654 145.642 147.481 145.936 147.257 146.188C147.033 146.44 146.767 146.641 146.459 146.79C146.151 146.93 145.815 147 145.451 147H140.271V137.228ZM142.399 145.208H144.849C145.129 145.208 145.349 145.133 145.507 144.984C145.675 144.825 145.759 144.606 145.759 144.326V143.85C145.759 143.57 145.675 143.355 145.507 143.206C145.349 143.047 145.129 142.968 144.849 142.968H142.399V145.208ZM142.399 141.232H144.513C144.793 141.232 145.013 141.153 145.171 140.994C145.33 140.835 145.409 140.616 145.409 140.336V139.916C145.409 139.636 145.33 139.417 145.171 139.258C145.013 139.099 144.793 139.02 144.513 139.02H142.399V141.232ZM153.314 139.118V147H151.186V139.118H148.54V137.228H155.96V139.118H153.314ZM161.008 147.168C160.346 147.168 159.748 147.065 159.216 146.86C158.684 146.645 158.232 146.333 157.858 145.922C157.485 145.502 157.196 144.984 156.99 144.368C156.785 143.743 156.682 143.015 156.682 142.184C156.682 141.363 156.785 140.635 156.99 140C157.196 139.356 157.485 138.819 157.858 138.39C158.232 137.951 158.684 137.62 159.216 137.396C159.748 137.172 160.346 137.06 161.008 137.06C161.914 137.06 162.66 137.247 163.248 137.62C163.836 137.984 164.308 138.563 164.662 139.356L162.828 140.308C162.698 139.897 162.492 139.571 162.212 139.328C161.942 139.076 161.54 138.95 161.008 138.95C160.383 138.95 159.879 139.155 159.496 139.566C159.123 139.967 158.936 140.555 158.936 141.33V142.898C158.936 143.673 159.123 144.265 159.496 144.676C159.879 145.077 160.383 145.278 161.008 145.278C161.531 145.278 161.946 145.138 162.254 144.858C162.572 144.569 162.805 144.223 162.954 143.822L164.69 144.83C164.326 145.577 163.846 146.155 163.248 146.566C162.66 146.967 161.914 147.168 161.008 147.168Z" fill="#333333"/>
<path d="M203.03 75.12C202.417 75.12 201.897 75.0167 201.47 74.81C201.043 74.5967 200.68 74.3233 200.38 73.99L201.38 72.98C201.853 73.5133 202.437 73.78 203.13 73.78C203.503 73.78 203.78 73.7033 203.96 73.55C204.14 73.3967 204.23 73.1933 204.23 72.94C204.23 72.7467 204.177 72.5867 204.07 72.46C203.963 72.3267 203.747 72.2367 203.42 72.19L202.73 72.1C201.99 72.0067 201.447 71.7833 201.1 71.43C200.76 71.0767 200.59 70.6067 200.59 70.02C200.59 69.7067 200.65 69.42 200.77 69.16C200.89 68.9 201.06 68.6767 201.28 68.49C201.507 68.3033 201.78 68.16 202.1 68.06C202.427 67.9533 202.797 67.9 203.21 67.9C203.737 67.9 204.2 67.9833 204.6 68.15C205 68.3167 205.343 68.56 205.63 68.88L204.62 69.9C204.453 69.7067 204.25 69.55 204.01 69.43C203.777 69.3033 203.48 69.24 203.12 69.24C202.78 69.24 202.527 69.3 202.36 69.42C202.193 69.54 202.11 69.7067 202.11 69.92C202.11 70.16 202.173 70.3333 202.3 70.44C202.433 70.5467 202.647 70.6233 202.94 70.67L203.63 70.78C204.35 70.8933 204.883 71.1167 205.23 71.45C205.577 71.7767 205.75 72.2433 205.75 72.85C205.75 73.1833 205.69 73.49 205.57 73.77C205.45 74.05 205.273 74.29 205.04 74.49C204.813 74.69 204.53 74.8467 204.19 74.96C203.85 75.0667 203.463 75.12 203.03 75.12ZM208.454 75L206.204 68.02H207.744L208.784 71.37L209.334 73.56H209.364L209.894 71.37L210.934 68.02H212.424L210.154 75H208.454ZM217.456 73.89H217.406C217.353 74.2433 217.173 74.5367 216.866 74.77C216.559 75.0033 216.143 75.12 215.616 75.12C215.216 75.12 214.843 75.0433 214.496 74.89C214.149 74.7367 213.846 74.51 213.586 74.21C213.326 73.91 213.123 73.5367 212.976 73.09C212.829 72.6433 212.756 72.1267 212.756 71.54C212.756 70.9533 212.833 70.4333 212.986 69.98C213.139 69.5267 213.353 69.1467 213.626 68.84C213.906 68.5333 214.239 68.3 214.626 68.14C215.013 67.98 215.443 67.9 215.916 67.9C216.543 67.9 217.083 68.0367 217.536 68.31C217.989 68.5767 218.346 68.98 218.606 69.52L217.366 70.23C217.259 69.9567 217.093 69.7267 216.866 69.54C216.639 69.3467 216.323 69.25 215.916 69.25C215.443 69.25 215.066 69.3867 214.786 69.66C214.506 69.9333 214.366 70.3633 214.366 70.95V72.07C214.366 72.65 214.506 73.08 214.786 73.36C215.066 73.6333 215.443 73.77 215.916 73.77C216.103 73.77 216.279 73.75 216.446 73.71C216.613 73.6633 216.759 73.5967 216.886 73.51C217.013 73.4167 217.109 73.3067 217.176 73.18C217.249 73.0533 217.286 72.9033 217.286 72.73V72.38H215.986V71.11H218.736V75H217.456V73.89Z" fill="#333333"/>
<rect x="196.5" y="64.5" width="27" height="13" rx="1.5" stroke="#333333"/>
</g>
</g>
<defs>
<filter id="filter0_f_34639_531530" x="-136" y="-108" width="576" height="576" filterUnits="userSpaceOnUse" color-interpolation-filters="sRGB">
<feFlood flood-opacity="0" result="BackgroundImageFix"/>
<feBlend mode="normal" in="SourceGraphic" in2="BackgroundImageFix" result="shape"/>
<feGaussianBlur stdDeviation="80" result="effect1_foregroundBlur_34639_531530"/>
</filter>
<filter id="filter1_f_34639_531530" x="32" y="-164" width="384" height="384" filterUnits="userSpaceOnUse" color-interpolation-filters="sRGB">
<feFlood flood-opacity="0" result="BackgroundImageFix"/>
<feBlend mode="normal" in="SourceGraphic" in2="BackgroundImageFix" result="shape"/>
<feGaussianBlur stdDeviation="64" result="effect1_foregroundBlur_34639_531530"/>
</filter>
<filter id="filter2_f_34639_531530" x="-152" y="-152" width="336" height="336" filterUnits="userSpaceOnUse" color-interpolation-filters="sRGB">
<feFlood flood-opacity="0" result="BackgroundImageFix"/>
<feBlend mode="normal" in="SourceGraphic" in2="BackgroundImageFix" result="shape"/>
<feGaussianBlur stdDeviation="64" result="effect1_foregroundBlur_34639_531530"/>
</filter>
<filter id="filter3_f_34639_531530" x="-96" y="-60" width="576" height="576" filterUnits="userSpaceOnUse" color-interpolation-filters="sRGB">
<feFlood flood-opacity="0" result="BackgroundImageFix"/>
<feBlend mode="normal" in="SourceGraphic" in2="BackgroundImageFix" result="shape"/>
<feGaussianBlur stdDeviation="80" result="effect1_foregroundBlur_34639_531530"/>
</filter>
<filter id="filter4_f_34639_531530" x="72" y="-116" width="384" height="384" filterUnits="userSpaceOnUse" color-interpolation-filters="sRGB">
<feFlood flood-opacity="0" result="BackgroundImageFix"/>
<feBlend mode="normal" in="SourceGraphic" in2="BackgroundImageFix" result="shape"/>
<feGaussianBlur stdDeviation="64" result="effect1_foregroundBlur_34639_531530"/>
</filter>
<filter id="filter5_f_34639_531530" x="-112" y="-104" width="336" height="336" filterUnits="userSpaceOnUse" color-interpolation-filters="sRGB">
<feFlood flood-opacity="0" result="BackgroundImageFix"/>
<feBlend mode="normal" in="SourceGraphic" in2="BackgroundImageFix" result="shape"/>
<feGaussianBlur stdDeviation="64" result="effect1_foregroundBlur_34639_531530"/>
</filter>
<clipPath id="clip0_34639_531530">
<rect width="200" height="120" fill="white"/>
</clipPath>
<clipPath id="clip1_34639_531530">
<rect width="200" height="120" rx="8" fill="white"/>
</clipPath>
<clipPath id="clip2_34639_531530">
<rect width="200" height="120" fill="white"/>
</clipPath>
<clipPath id="clip3_34639_531530">
<rect width="200" height="120" fill="white" transform="translate(40 48)"/>
</clipPath>
<clipPath id="clip4_34639_531530">
<rect x="40" y="48" width="200" height="120" rx="8" fill="white"/>
</clipPath>
<clipPath id="clip5_34639_531530">
<rect width="200" height="120" fill="white" transform="translate(40 48)"/>
</clipPath>
</defs>
</svg>
