<svg width="150" height="170" viewBox="0 0 150 170" fill="none" xmlns="http://www.w3.org/2000/svg"><path d="m45.9 16.743-1.491 4.64 18.505 4.925z" fill="#EBECEE" stroke="#000" stroke-width=".46" stroke-linecap="round" stroke-linejoin="round"/><path d="M62.91 26.308 50.775 12.982l-4.878 3.76zm-26.73-2.077 26.73 2.077-21.897-5.829z" fill="#fff" stroke="#000" stroke-width=".46" stroke-linecap="round" stroke-linejoin="round"/><path d="m110.121 37.933-1.655 5.146 20.527 5.465z" fill="#EBECEE" stroke="#000" stroke-width=".46" stroke-linecap="round" stroke-linejoin="round"/><path d="m128.988 48.544-13.46-14.782-5.412 4.171z" fill="#fff" stroke="#000" stroke-width=".46" stroke-linecap="round" stroke-linejoin="round"/><path d="m99.338 46.24 29.65 2.303-24.289-6.465z" fill="#fff" stroke="#000" stroke-width=".46" stroke-linecap="round" stroke-linejoin="round"/><path d="m119.896 112.133-.01 32.189c.003.231.005.567 0 .973-.012.823-.018 1.242-.065 1.676a7.4 7.4 0 0 1-.679 2.382 7.3 7.3 0 0 1-1.874 2.369c-.292.177-.708.4-1.233.592-1.122.409-2.06.428-2.575.432-1.244.013-2.18-.246-2.984-.475a13.4 13.4 0 0 1-1.882-.692l-2.812-1.064v-26.841a16 16 0 0 0-.087-1.968 15.3 15.3 0 0 0-.455-2.466c-.417-1.521-.989-2.594-1.341-3.246a17.8 17.8 0 0 0-2.227-3.201c-.512-.589-1.227-1.4-2.358-2.249a15 15 0 0 0-2.293-1.407c-.794-.405-1.5-.69-2.044-.887l-61.38-24.087c-.969-.31-1.73-.686-2.27-.994a9.4 9.4 0 0 1-1.407-.953c-.443-.365-.908-.751-1.331-1.395-.227-.346-.597-.91-.714-1.719-.169-1.165.294-2.087.51-2.498.46-.887 1.083-1.392 1.62-1.829.2-.16.672-.527 1.613-1.017a16.5 16.5 0 0 1 3.482-1.33c1.713-.44 3.06-.501 4.013-.54 2.008-.082 3.54.135 4.121.227a22 22 0 0 1 4.154 1.092l60.448 23.677c.388.14.944.353 1.601.637 1.023.44 1.947.84 2.974 1.493a14.5 14.5 0 0 1 2.37 1.893 17.8 17.8 0 0 1 2.563 3.126c1.167 1.799 1.708 3.331 1.838 3.709.46 1.339.592 2.321.628 2.606.088.714.099 1.327.086 1.785" fill="#EBECEE" stroke="#000" stroke-width=".46" stroke-linecap="round" stroke-linejoin="round"/><path d="m124.683 109.353-.038 33.184a8 8 0 0 1-.071 1.007 7 7 0 0 1-.475 1.827 7 7 0 0 1-1.335 2.043 7.2 7.2 0 0 1-1.191 1.028l-4.305 3.281a7.3 7.3 0 0 0 1.875-2.37c.11-.224.542-1.14.679-2.382.047-.433.053-.853.064-1.676.006-.405.004-.742 0-.973l.011-32.189c.012-.458.002-1.071-.087-1.784-.035-.285-.167-1.268-.627-2.607-.13-.378-.671-1.91-1.839-3.709a17.7 17.7 0 0 0-2.562-3.126 14.5 14.5 0 0 0-2.37-1.893c-1.027-.654-1.951-1.052-2.974-1.492a30 30 0 0 0-1.601-.638l-60.45-23.677a23 23 0 0 0-1.978-.627 22 22 0 0 0-2.174-.465 21 21 0 0 0-4.121-.227c-.953.039-2.3.101-4.013.541-.72.185-2.02.569-3.482 1.33-.941.49-1.414.856-1.613 1.017-.537.436-1.16.94-1.621 1.828-.215.412-.678 1.333-.51 2.498.118.81.488 1.374.715 1.72.422.643.888 1.03 1.33 1.395a9.4 9.4 0 0 0 1.407.952c.541.308 1.302.684 2.27.994l61.38 24.087c.545.197 1.251.482 2.045.887.498.256 1.337.689 2.293 1.407 1.131.849 1.845 1.661 2.358 2.249a17.8 17.8 0 0 1 2.227 3.202c.352.651.924 1.724 1.341 3.245.071.255.322 1.195.455 2.466.081.768.096 1.438.086 1.969v30.035l-.021 3.341c0 .32-.019.735-.097 1.212a7.2 7.2 0 0 1-.444 1.568 6.3 6.3 0 0 1-.833 1.477c-.34.445-.673.75-.951 1.005-.288.264-.546.469-.741.618l-3.962 3.028c.435-.378.692-.743.91-1.047.17-.24.682-.994 1.029-2.117.111-.359.233-.848.3-1.445l.073-34.929a12 12 0 0 0-.065-1.146c-.19-1.837-.748-3.167-1.125-4.046a18 18 0 0 0-2.423-4.044c-.621-.788-1.708-2.143-3.547-3.419a15.3 15.3 0 0 0-3.288-1.73L28.721 87.81a25 25 0 0 1-2.348-1.06c-.916-.473-1.839-.95-2.78-1.678-.876-.678-2.626-2.03-3.424-4.402a7.8 7.8 0 0 1-.39-2.017v-.01l.002-1.023c.023-.208.068-.508.162-.86.207-.781.585-1.56 1.33-2.498 1.286-1.617 2.873-2.709 3.731-3.245 1.59-.992 2.928-1.486 3.975-1.865.429-.156 2.428-.868 5.42-1.347a35.6 35.6 0 0 1 8.078-.374c1.32.096 4.067.37 7.415 1.363 1.404.417 2.57.859 3.44 1.217l59.427 23.282c.641.221 1.489.549 2.449 1.021.984.484 2.266 1.124 3.651 2.288 1.467 1.233 2.327 2.447 2.952 3.342.622.889 1.317 1.898 1.899 3.407a16 16 0 0 1 .973 6.002" fill="#fff" stroke="#000" stroke-width=".46" stroke-linecap="round" stroke-linejoin="round"/><path d="M23.593 85.073c.941.727 1.864 1.204 2.78 1.676.932.48 1.745.827 2.348 1.06l61.876 24.227c.866.328 2.035.862 3.288 1.73 1.839 1.276 2.926 2.631 3.548 3.418a18 18 0 0 1 2.422 4.045c.377.878.934 2.209 1.125 4.045.05.473.062.868.064 1.147l-.073 34.93a8 8 0 0 1-.3 1.443 7.6 7.6 0 0 1-1.03 2.117c-.216.304-.474.669-.909 1.047-.881.767-1.821 1.012-2.45 1.168a8 8 0 0 1-2.466.187c-1.003-.074-1.709-.304-2.896-.69a25 25 0 0 1-2.312-.884l-60.193-23.613a19.7 19.7 0 0 1-4.153-2.196 15 15 0 0 1-1.86-1.525c-.705-.684-1.218-1.18-1.7-2.012a7.9 7.9 0 0 1-.886-2.466 8 8 0 0 1-.13-1.741q.044-27.284.092-54.566a8 8 0 0 0 .39 3.05c.797 2.37 2.546 3.724 3.423 4.403z" fill="#EBECEE" stroke="#000" stroke-width=".46" stroke-linecap="round" stroke-linejoin="round"/><path d="M81.001 27.747 47.913 40.078l-12.007 9.225L69.081 36.92z" fill="#FF7E88" stroke="#000" stroke-width=".46" stroke-linecap="round" stroke-linejoin="round"/><path d="m102.162 75.507 11.933-9.115Q97.547 47.07 81.001 27.747L69.08 36.92z" fill="#FF7E88" stroke="#000" stroke-width=".46" stroke-linecap="round" stroke-linejoin="round"/><path d="m52.488 106.868.026-50.974-16.608-6.59 33.175-12.382 33.081 38.586-16.524-6.502-.03 51.002-33.121-13.139z" fill="#FF535E" stroke="#000" stroke-width=".46" stroke-linecap="round" stroke-linejoin="round"/><path d="m85.607 120.006 11.933-9.174.085-37.11q-5.995-2.357-11.988-4.717l-.03 51.002z" fill="#FF444F" stroke="#000" stroke-width=".46" stroke-linecap="round" stroke-linejoin="round"/><path d="M23.593 85.072c.941.727 1.864 1.204 2.78 1.677.932.48 1.745.826 2.348 1.06l61.876 24.226a15.3 15.3 0 0 1 3.288 1.731c1.839 1.276 2.926 2.63 3.548 3.418a18 18 0 0 1 2.422 4.045c.377.878.934 2.208 1.125 4.045.05.472.062.868.064 1.147l-.073 34.929a8 8 0 0 1-.3 1.443 7.6 7.6 0 0 1-1.03 2.117c-.216.305-.474.669-.909 1.047-.881.768-1.821 1.013-2.45 1.169a8 8 0 0 1-2.466.186c-1.003-.073-1.709-.303-2.896-.689a25 25 0 0 1-2.312-.884l-60.193-23.614a19 19 0 0 1-1.915-.855 18.5 18.5 0 0 1-2.238-1.341 15 15 0 0 1-1.86-1.525c-.705-.683-1.218-1.18-1.7-2.012a7.9 7.9 0 0 1-.886-2.466 8 8 0 0 1-.13-1.741q.044-27.283.092-54.565a8 8 0 0 0 .39 3.05c.797 2.37 2.546 3.724 3.423 4.402z" fill="#EBECEE" stroke="#000" stroke-width=".46" stroke-linecap="round" stroke-linejoin="round"/><path d="M25.958 70.461q-.46.25-.954.554c-.858.537-2.445 1.629-3.731 3.246-.745.937-1.123 1.717-1.33 2.498a6 6 0 0 0-.162.86l-.002 1.023v.01a7.8 7.8 0 0 0 .39 2.016c.798 2.372 2.548 3.725 3.424 4.403.941.727 1.864 1.204 2.78 1.677.932.48 1.745.826 2.348 1.06l61.876 24.226c.866.329 2.035.862 3.288 1.731 1.839 1.275 2.926 2.63 3.547 3.419a18 18 0 0 1 2.423 4.044c.377.879.935 2.208 1.125 4.046.049.471.062.868.065 1.146l-.073 34.929a8 8 0 0 1-.3 1.445 7.6 7.6 0 0 1-1.03 2.116c-.217.305-.474.669-.909 1.047l3.962-3.028c.195-.148.453-.354.741-.617.278-.255.611-.561.951-1.005a6.3 6.3 0 0 0 .833-1.477c.104-.251.319-.813.444-1.569.078-.477.098-.892.097-1.211l.021-3.342v-30.035c.01-.531-.005-1.201-.086-1.968a15.5 15.5 0 0 0-.455-2.467c-.417-1.52-.989-2.593-1.341-3.245a17.8 17.8 0 0 0-2.227-3.201c-.513-.589-1.227-1.4-2.358-2.249a15 15 0 0 0-2.293-1.407 18 18 0 0 0-2.044-.887l-61.38-24.087a12 12 0 0 1-2.271-.994 9.4 9.4 0 0 1-1.407-.953c-.442-.365-.908-.751-1.33-1.395-.227-.346-.597-.91-.714-1.719-.169-1.165.294-2.087.509-2.498.46-.887 1.084-1.392 1.621-1.829.2-.16.672-.527 1.613-1.017" fill="#fff"/><path d="M25.958 70.461q-.46.25-.954.554c-.858.537-2.445 1.629-3.731 3.246-.745.937-1.123 1.717-1.33 2.498a6 6 0 0 0-.162.86l-.002 1.023v.01a7.8 7.8 0 0 0 .39 2.016c.798 2.372 2.548 3.725 3.424 4.403.941.727 1.864 1.204 2.78 1.677.932.48 1.745.826 2.348 1.06l61.876 24.226c.866.329 2.035.862 3.288 1.731 1.839 1.275 2.926 2.63 3.547 3.419a18 18 0 0 1 2.423 4.044c.377.879.935 2.208 1.125 4.046.049.471.062.868.065 1.146l-.073 34.929a8 8 0 0 1-.3 1.445 7.6 7.6 0 0 1-1.03 2.116c-.217.305-.474.669-.909 1.047l3.962-3.028c.195-.148.453-.354.741-.617.278-.255.611-.561.951-1.005a6.3 6.3 0 0 0 .833-1.477c.104-.251.319-.813.444-1.569.078-.477.098-.892.097-1.211l.021-3.342v-30.035c.01-.531-.005-1.201-.086-1.968a15.5 15.5 0 0 0-.455-2.467c-.417-1.52-.989-2.593-1.341-3.245a17.8 17.8 0 0 0-2.227-3.201c-.513-.589-1.227-1.4-2.358-2.249a15 15 0 0 0-2.293-1.407 18 18 0 0 0-2.044-.887l-61.38-24.087a12 12 0 0 1-2.271-.994 9.4 9.4 0 0 1-1.407-.953c-.442-.365-.908-.751-1.33-1.395-.227-.346-.597-.91-.714-1.719-.169-1.165.294-2.087.509-2.498.46-.887 1.084-1.392 1.621-1.829.2-.16.672-.527 1.613-1.017" stroke="#000" stroke-width=".46" stroke-linecap="round" stroke-linejoin="round"/><path d="M128.772 133.406a1.4 1.4 0 0 1-.119.413c-.072.151-.168.254-.356.454a5 5 0 0 1-.289.284l-23.799 18.357a4.4 4.4 0 0 1-.861.446c-.503.195-.916.248-1.345.301a7.6 7.6 0 0 1-3.538-.398l-12.784-5.038a3.55 3.55 0 0 1-1.306-.681c-.202-.172-.369-.315-.499-.568a1.7 1.7 0 0 1-.162-.494 2 2 0 0 1-.033-.483l.04-15.805q.014.15.07.308c.14.38.426.591.73.819.271.201.528.319.706.388l12.551 4.922c.514.228.976.371 1.341.466a8 8 0 0 0 1.667.248c.281.01.722.025 1.297-.064a5.4 5.4 0 0 0 1.223-.326 6 6 0 0 0 1.005-.529c.266-.168.481-.329.638-.454l22.552-17.35c.094-.067.227-.168.378-.302.273-.241.462-.409.605-.681a1.5 1.5 0 0 0 .184-.638l.112 16.036a1.7 1.7 0 0 1-.008.369" fill="#EBECEE" stroke="#000" stroke-width=".46" stroke-linecap="round" stroke-linejoin="round"/><path d="m84.384 128.659 16.643 6.474q11.823-9.094 23.648-18.187l.003-2.629 1.969.682c.196.07.483.186.811.368.463.256.738.408.952.735.068.103.28.44.259.898a1.5 1.5 0 0 1-.183.637c-.144.273-.334.44-.606.682a5 5 0 0 1-.378.303L104.95 135.97a7 7 0 0 1-.637.454 6 6 0 0 1-1.006.53 5.3 5.3 0 0 1-1.223.324 6.3 6.3 0 0 1-1.297.064 8.4 8.4 0 0 1-3.006-.713l-12.552-4.921a3 3 0 0 1-.705-.39c-.305-.226-.59-.439-.73-.819-.231-.627.108-1.228.17-1.339a1.8 1.8 0 0 1 .422-.503z" fill="#fff" stroke="#000" stroke-width=".46" stroke-linecap="round" stroke-linejoin="round"/><path d="m24.302 104.608-2.672 8.308 33.139 8.822q-15.233-8.566-30.467-17.13" fill="#EBECEE" stroke="#000" stroke-width=".46" stroke-linecap="round" stroke-linejoin="round"/><path d="m54.766 121.737-21.73-23.863-8.737 6.734z" fill="#fff" stroke="#000" stroke-width=".46" stroke-linecap="round" stroke-linejoin="round"/><path d="m6.897 118.017 47.87 3.72-39.214-10.438z" fill="#fff" stroke="#000" stroke-width=".46" stroke-linecap="round" stroke-linejoin="round"/></svg>