<svg width="258" height="170" viewBox="0 0 258 170" fill="none" xmlns="http://www.w3.org/2000/svg"><g opacity=".7" filter="url(#a)"><rect x="54" y="132" width="150" height="36" rx="6.056" fill="#fff"/><g clip-path="url(#b)"><path d="M66.111 144.323a3.406 3.406 0 0 1 3.407-3.406h11.354a3.406 3.406 0 0 1 3.406 3.406v11.354a3.406 3.406 0 0 1-3.406 3.406H69.518a3.406 3.406 0 0 1-3.407-3.406v-11.354Z" fill="#FF444F"/><path d="M69.518 140.917a3.406 3.406 0 0 0-3.407 3.406v.099l16.983-2.681a3.392 3.392 0 0 0-2.222-.824H69.518Zm13.927 1.174-3.116 16.992h.543a3.406 3.406 0 0 0 3.406-3.406v-11.354a3.39 3.39 0 0 0-.833-2.232Z" fill="#E12E3A"/><path d="m71.53 151.741.198.015h.279c.62 0 1.078-.156 1.374-.468.303-.313.454-.745.454-1.296 0-.578-.143-1.015-.43-1.311-.286-.297-.739-.445-1.359-.445-.085 0-.172.002-.262.007-.09 0-.175.006-.254.016v3.482Zm3.584-1.749c0 .477-.074.893-.222 1.248-.149.355-.36.649-.636.882-.27.233-.602.408-.994.525a4.646 4.646 0 0 1-1.319.174c-.223 0-.482-.01-.779-.031a5.894 5.894 0 0 1-.874-.112v-5.364c.286-.053.583-.088.89-.104.313-.021.58-.032.803-.032.471 0 .898.053 1.28.159.386.106.717.273.993.501.275.228.487.519.636.874.148.355.222.782.222 1.28Z" fill="#fff"/><path d="M78.613 152.75a14.92 14.92 0 0 0-.509-.93c-.18-.318-.39-.641-.627-.97a8.973 8.973 0 0 0-.628.938 56.72 56.72 0 0 0-.318.549 6.267 6.267 0 0 0-.223.413h-1.415c.233-.429.504-.88.811-1.351.313-.472.66-.972 1.041-1.502l-1.772-2.655h1.502l1.073 1.717 1.05-1.717h1.414l-1.749 2.671a18.43 18.43 0 0 1 1.121 1.605c.302.487.54.898.715 1.232h-1.486Z" fill="#fff"/></g><path d="M97.374 141.103h2.48c.459 0 .876.078 1.25.233.375.156.693.389.954.7.269.303.474.689.615 1.155.141.459.212.996.212 1.611 0 .614-.071 1.155-.212 1.621a3.156 3.156 0 0 1-.615 1.155 2.507 2.507 0 0 1-.954.689 3.237 3.237 0 0 1-1.25.233h-2.48v-7.397Zm2.48 6.613c.304 0 .583-.05.837-.149.254-.106.473-.257.657-.455.184-.198.325-.438.424-.721.106-.29.159-.618.159-.985v-1.208c0-.368-.053-.693-.159-.975a2.014 2.014 0 0 0-.424-.732 1.766 1.766 0 0 0-.657-.445 2.152 2.152 0 0 0-.837-.159h-1.59v5.829h1.59Zm6.601.911c-.374 0-.714-.067-1.017-.201a2.276 2.276 0 0 1-.774-.572 2.858 2.858 0 0 1-.498-.901 3.884 3.884 0 0 1-.17-1.187c0-.431.057-.823.17-1.176.12-.354.286-.654.498-.901.219-.254.477-.449.774-.583a2.492 2.492 0 0 1 1.017-.201c.367 0 .696.067.985.201.29.134.537.321.742.562.205.233.361.512.467.837.113.325.169.682.169 1.07v.403h-3.931v.254c0 .233.035.452.106.657.077.198.183.371.317.519.142.149.311.265.509.35.205.085.435.127.689.127.346 0 .646-.081.901-.243.261-.163.462-.396.604-.7l.604.435a2.135 2.135 0 0 1-.827.911c-.374.226-.819.339-1.335.339Zm0-5.012c-.233 0-.445.042-.636.127a1.423 1.423 0 0 0-.498.339 1.778 1.778 0 0 0-.434 1.187v.074h3.02v-.117c0-.487-.134-.876-.403-1.165-.261-.297-.611-.445-1.049-.445Zm3.76 4.885v-5.468h.848v1.007h.053c.099-.262.275-.495.53-.7.254-.205.604-.307 1.049-.307h.328v.848h-.498c-.459 0-.819.088-1.081.265-.254.169-.381.385-.381.646v3.709h-.848Zm4.315-6.75c-.183 0-.318-.043-.402-.128a.519.519 0 0 1-.117-.349v-.138c0-.141.039-.254.117-.339.084-.092.219-.138.402-.138.184 0 .315.046.392.138a.458.458 0 0 1 .127.339v.138a.492.492 0 0 1-.127.349c-.077.085-.208.128-.392.128Zm-.424 1.282h.848v5.468h-.848v-5.468Zm3.858 5.468-1.918-5.468h.847l.954 2.713.594 1.865h.053l.593-1.865.975-2.713h.816l-1.929 5.468h-.985Zm11.853 0h-1.07l-1.94-3.105h-.021l-1.939 3.105h-1.018l2.417-3.762-2.353-3.635h1.07l1.855 2.946h.021l1.897-2.946h1.017l-2.373 3.603 2.437 3.794Zm-32.717 12v-.916h1.423v-3.542h-.068l-1.075 1.408-.726-.568 1.264-1.665h1.74v4.367h1.121v.916H97.1Zm6.098.091c-.691 0-1.203-.24-1.536-.719-.333-.48-.5-1.151-.5-2.014 0-.863.167-1.534.5-2.013.333-.48.845-.719 1.536-.719.692 0 1.204.239 1.537.719.333.479.499 1.15.499 2.013s-.166 1.534-.499 2.014c-.333.479-.845.719-1.537.719Zm0-.961c.303 0 .512-.112.628-.334.117-.222.175-.534.175-.938v-.999c0-.404-.058-.717-.175-.939-.116-.222-.325-.333-.628-.333s-.512.111-.628.333c-.116.222-.174.535-.174.939v.999c0 .404.058.716.174.938.116.222.325.334.628.334Zm4.539.961c-.691 0-1.204-.24-1.537-.719-.333-.48-.499-1.151-.499-2.014 0-.863.166-1.534.499-2.013.333-.48.846-.719 1.537-.719s1.203.239 1.537.719c.333.479.499 1.15.499 2.013s-.166 1.534-.499 2.014c-.334.479-.846.719-1.537.719Zm0-.961c.303 0 .512-.112.628-.334.116-.222.174-.534.174-.938v-.999c0-.404-.058-.717-.174-.939-.116-.222-.325-.333-.628-.333s-.512.111-.628.333c-.116.222-.174.535-.174.939v.999c0 .404.058.716.174.938.116.222.325.334.628.334Zm3.441.953c-.227 0-.396-.055-.507-.166a.627.627 0 0 1-.159-.439v-.152c0-.176.053-.32.159-.431.111-.116.28-.174.507-.174.227 0 .394.058.5.174a.583.583 0 0 1 .166.431v.152a.61.61 0 0 1-.166.439c-.106.111-.273.166-.5.166Zm3.441.008c-.691 0-1.204-.24-1.537-.719-.333-.48-.499-1.151-.499-2.014 0-.863.166-1.534.499-2.013.333-.48.846-.719 1.537-.719s1.203.239 1.537.719c.333.479.499 1.15.499 2.013s-.166 1.534-.499 2.014c-.334.479-.846.719-1.537.719Zm0-.961c.303 0 .512-.112.628-.334.116-.222.174-.534.174-.938v-.999c0-.404-.058-.717-.174-.939-.116-.222-.325-.333-.628-.333s-.512.111-.628.333c-.116.222-.174.535-.174.939v.999c0 .404.058.716.174.938.116.222.325.334.628.334Zm4.539.961c-.692 0-1.204-.24-1.537-.719-.333-.48-.5-1.151-.5-2.014 0-.863.167-1.534.5-2.013.333-.48.845-.719 1.537-.719.691 0 1.203.239 1.536.719.333.479.5 1.15.5 2.013s-.167 1.534-.5 2.014c-.333.479-.845.719-1.536.719Zm0-.961c.302 0 .512-.112.628-.334.116-.222.174-.534.174-.938v-.999c0-.404-.058-.717-.174-.939-.116-.222-.326-.333-.628-.333-.303 0-.513.111-.629.333-.116.222-.174.535-.174.939v.999c0 .404.058.716.174.938.116.222.326.334.629.334Zm5.729-4.413v3.239c0 .374.073.654.22.84.146.182.391.273.734.273.343 0 .588-.091.734-.273.147-.186.22-.466.22-.84v-3.239h1.12v3.118c0 .389-.038.727-.114 1.014-.07.283-.189.518-.355.704a1.535 1.535 0 0 1-.644.409 3.112 3.112 0 0 1-.961.129c-.379 0-.699-.043-.961-.129a1.535 1.535 0 0 1-.644-.409 1.7 1.7 0 0 1-.363-.704 4.26 4.26 0 0 1-.106-1.014v-3.118h1.12Zm5.877 5.374c-.465 0-.858-.078-1.181-.235a2.732 2.732 0 0 1-.825-.621l.757-.764c.358.404.8.606 1.324.606.283 0 .492-.059.629-.175a.576.576 0 0 0 .204-.461.544.544 0 0 0-.121-.364c-.081-.101-.245-.169-.492-.204l-.522-.068c-.561-.071-.972-.24-1.234-.507-.258-.268-.386-.624-.386-1.068a1.47 1.47 0 0 1 .522-1.158c.172-.141.378-.25.621-.325a2.69 2.69 0 0 1 .84-.121c.399 0 .749.063 1.052.189.303.126.563.31.78.552l-.765.773a1.458 1.458 0 0 0-.462-.356c-.176-.096-.401-.144-.673-.144-.258 0-.449.045-.576.136a.44.44 0 0 0-.189.379c0 .181.048.313.144.393.101.081.262.139.485.174l.522.084c.545.085.949.255 1.211.507.262.247.394.6.394 1.06 0 .252-.046.484-.137.696a1.467 1.467 0 0 1-.401.545c-.171.151-.386.27-.643.356-.258.08-.55.121-.878.121Zm3.012-5.374h1.991c.348 0 .666.055.954.166.288.111.532.278.734.5.202.217.359.492.47.825.111.328.166.711.166 1.15 0 .439-.055.825-.166 1.158a2.306 2.306 0 0 1-.47.825 1.94 1.94 0 0 1-.734.492 2.632 2.632 0 0 1-.954.167h-1.991v-5.283Zm1.991 4.261c.343 0 .613-.096.81-.288.197-.191.295-.499.295-.923v-.817c0-.424-.098-.732-.295-.924-.197-.192-.467-.288-.81-.288h-.84v3.24h.84Z" fill="#333"/><rect x="54.379" y="132.378" width="149.243" height="35.243" rx="5.677" stroke="#F2F3F4" stroke-width=".757"/></g><g opacity=".8" filter="url(#c)"><rect x="37" y="100" width="184" height="36" rx="6.056" fill="#fff"/><g clip-path="url(#d)"><path d="M63.872 108.917H52.518a3.406 3.406 0 0 0-3.407 3.406v9.935h18.167v-9.935a3.406 3.406 0 0 0-3.406-3.406Z" fill="#0364B9"/><path d="M52.518 108.917a3.406 3.406 0 0 0-3.407 3.406v.099l16.983-2.681a3.392 3.392 0 0 0-2.222-.824H52.518Zm14.76 3.406c0-.854-.314-1.635-.833-2.233l-2.231 12.168h3.064v-9.935Z" fill="#0A559E"/><path d="M49.111 121.974h18.167v1.703a3.406 3.406 0 0 1-3.406 3.406H52.518a3.406 3.406 0 0 1-3.407-3.406v-1.703Z" fill="#2A3052"/><path d="M53.28 114.414c.081.15.174.336.279.559.109.218.22.456.334.715.118.255.234.516.347.784l.32.756.32-.756c.114-.268.228-.529.341-.784.118-.259.23-.497.334-.715.109-.223.204-.409.286-.559h.967c.046.314.087.666.123 1.056.04.386.075.791.102 1.213.032.418.06.838.082 1.26.027.423.05.82.068 1.192h-1.035a124.93 124.93 0 0 0-.055-1.498 40.196 40.196 0 0 0-.102-1.635l-.273.633-.3.695a64.707 64.707 0 0 1-.51 1.206h-.743c-.063-.15-.14-.329-.231-.538l-.287-.668a44.73 44.73 0 0 0-.292-.695l-.273-.633c-.045.549-.08 1.094-.102 1.635-.023.54-.041 1.04-.055 1.498H51.89c.018-.372.038-.769.061-1.192l.082-1.26c.032-.422.066-.827.102-1.213.04-.39.084-.742.13-1.056h1.015Zm7.954 0v.906h-1.423v3.815h-1.063v-3.815h-1.424v-.906h3.91Zm2.25 3.332a.671.671 0 0 0-.088-.348.657.657 0 0 0-.307-.259 2.148 2.148 0 0 0-.586-.156 6.4 6.4 0 0 0-.926-.055c.05-.422.09-.851.123-1.287.031-.436.056-.845.074-1.227h2.555v.852h-1.703c-.01.163-.02.322-.034.477-.01.15-.02.281-.034.395.663.045 1.151.202 1.465.47.318.263.476.631.476 1.104 0 .218-.038.42-.115.606a1.313 1.313 0 0 1-.348.484c-.154.136-.35.243-.586.32a2.596 2.596 0 0 1-.817.116c-.123 0-.252-.01-.389-.028a3.547 3.547 0 0 1-.388-.061 4.386 4.386 0 0 1-.334-.075 1.234 1.234 0 0 1-.231-.082l.184-.838c.113.05.263.1.45.15.186.046.408.068.667.068.313 0 .54-.061.681-.184a.58.58 0 0 0 .211-.442Zm-8.201 7.529.085.006h.12c.265 0 .461-.067.589-.2.129-.134.194-.32.194-.556 0-.247-.062-.435-.184-.562-.123-.127-.317-.19-.583-.19a2.174 2.174 0 0 0-.221.01v1.492Zm1.536-.75c0 .205-.032.383-.095.535a.984.984 0 0 1-.273.378c-.115.1-.258.175-.425.225a1.98 1.98 0 0 1-.566.075c-.095 0-.207-.005-.334-.014a2.583 2.583 0 0 1-.374-.047v-2.3a5.283 5.283 0 0 1 .725-.058c.202 0 .385.023.548.069.166.045.308.117.426.214a.958.958 0 0 1 .273.375c.063.152.095.335.095.548Zm1.136-1.206c.354 0 .625.064.814.191.188.125.282.32.282.586a.662.662 0 0 1-.116.405.74.74 0 0 1-.327.242c.048.059.098.127.15.205.053.075.104.154.154.238a5.993 5.993 0 0 1 .283.521h-.597l-.133-.235a4.058 4.058 0 0 0-.136-.231 4.425 4.425 0 0 0-.136-.212 2.257 2.257 0 0 0-.136-.184h-.263v.862h-.531v-2.326a2.94 2.94 0 0 1 .358-.048c.125-.009.236-.014.334-.014Zm.03.454a1.693 1.693 0 0 0-.19.01v.64h.15c.2 0 .342-.025.428-.075.087-.05.13-.135.13-.255 0-.116-.044-.198-.133-.246-.086-.05-.215-.074-.385-.074Zm2.202 1.934a17.763 17.763 0 0 1-.276-.616 24.274 24.274 0 0 1-.259-.634 35.228 35.228 0 0 1-.228-.599 26.422 26.422 0 0 1-.177-.511h.586l.146.443.163.47.164.449c.052.143.101.267.146.372a17.14 17.14 0 0 0 .307-.821 63.125 63.125 0 0 0 .313-.913h.566l-.18.511a22.866 22.866 0 0 1-.76 1.849h-.511Z" fill="#fff"/></g><path d="M86.14 110.269h-.054l-.625 1.24-1.77 3.221-1.77-3.221-.625-1.24h-.053v6.231h-.869v-7.397h1.187l2.12 3.985h.053l2.13-3.985h1.144v7.397h-.869v-6.231Zm5.325-.382v6.613h-.89v-6.613h-2.353v-.784h5.595v.784h-2.352Zm7.865 0h-3.242l-.212 2.819h.074a2.35 2.35 0 0 1 .593-.593c.226-.149.534-.223.922-.223.318 0 .611.053.88.159.268.106.502.258.7.456a1.9 1.9 0 0 1 .455.71c.113.282.17.604.17.964 0 .361-.057.693-.17.996-.113.297-.28.555-.498.774a2.223 2.223 0 0 1-.784.498c-.304.12-.65.18-1.039.18a2.92 2.92 0 0 1-.826-.106 2.396 2.396 0 0 1-.626-.286 2.71 2.71 0 0 1-.487-.403 4.551 4.551 0 0 1-.371-.466l.668-.509c.091.149.187.283.286.403.106.12.219.223.339.307.127.085.272.152.434.202.163.042.357.063.583.063.509 0 .894-.134 1.155-.402.262-.269.392-.647.392-1.134v-.106c0-.488-.13-.866-.392-1.134-.261-.269-.646-.403-1.155-.403-.339 0-.607.064-.805.191-.191.12-.364.265-.52.434l-.752-.106.265-4.069h3.963v.784Zm4.567-.784h2.48c.459 0 .876.078 1.25.233.375.156.693.389.954.7.269.303.473.689.615 1.155.141.459.212.996.212 1.611 0 .614-.071 1.155-.212 1.621a3.17 3.17 0 0 1-.615 1.155 2.507 2.507 0 0 1-.954.689 3.237 3.237 0 0 1-1.25.233h-2.48v-7.397Zm2.48 6.613c.304 0 .583-.05.837-.149.254-.106.473-.257.657-.455.184-.198.325-.438.424-.721.106-.29.159-.618.159-.985v-1.208c0-.368-.053-.693-.159-.975a2.014 2.014 0 0 0-.424-.732 1.766 1.766 0 0 0-.657-.445 2.152 2.152 0 0 0-.837-.159h-1.59v5.829h1.59Zm6.601.911c-.375 0-.714-.067-1.017-.201a2.276 2.276 0 0 1-.774-.572 2.858 2.858 0 0 1-.498-.901 3.884 3.884 0 0 1-.17-1.187c0-.431.057-.823.17-1.176.12-.354.286-.654.498-.901.219-.254.477-.449.774-.583a2.488 2.488 0 0 1 1.017-.201c.367 0 .696.067.985.201.29.134.537.321.742.562.205.233.361.512.467.837.113.325.169.682.169 1.07v.403h-3.931v.254c0 .233.035.452.105.657.078.198.184.371.318.519.142.149.311.265.509.35.205.085.435.127.689.127.346 0 .646-.081.901-.243.261-.163.462-.396.604-.7l.604.435a2.135 2.135 0 0 1-.827.911c-.374.226-.819.339-1.335.339Zm0-5.012c-.233 0-.445.042-.636.127a1.423 1.423 0 0 0-.498.339 1.778 1.778 0 0 0-.434 1.187v.074h3.02v-.117c0-.487-.135-.876-.403-1.165-.261-.297-.611-.445-1.049-.445Zm3.76 4.885v-5.468h.848v1.007h.053c.099-.262.275-.495.53-.7.254-.205.604-.307 1.049-.307h.328v.848h-.498c-.459 0-.819.088-1.081.265-.254.169-.381.385-.381.646v3.709h-.848Zm4.315-6.75c-.184 0-.318-.043-.403-.128a.523.523 0 0 1-.116-.349v-.138c0-.141.039-.254.116-.339.085-.092.219-.138.403-.138.184 0 .315.046.392.138a.458.458 0 0 1 .127.339v.138a.492.492 0 0 1-.127.349c-.077.085-.208.128-.392.128Zm-.424 1.282h.848v5.468h-.848v-5.468Zm3.858 5.468-1.918-5.468h.847l.954 2.713.594 1.865h.053l.593-1.865.975-2.713h.816l-1.929 5.468h-.985Zm5.98.127c-.374 0-.713-.067-1.017-.201a2.272 2.272 0 0 1-.773-.572 2.88 2.88 0 0 1-.499-.901 3.885 3.885 0 0 1-.169-1.187c0-.431.056-.823.169-1.176.121-.354.287-.654.499-.901.219-.254.476-.449.773-.583a2.495 2.495 0 0 1 1.017-.201c.368 0 .696.067.986.201.29.134.537.321.742.562.205.233.36.512.466.837.113.325.17.682.17 1.07v.403h-3.932v.254c0 .233.035.452.106.657.078.198.184.371.318.519.141.149.311.265.509.35.204.085.434.127.688.127.347 0 .647-.081.901-.243.262-.163.463-.396.604-.7l.604.435a2.133 2.133 0 0 1-.826.911c-.375.226-.82.339-1.336.339Zm0-5.012c-.233 0-.445.042-.635.127a1.423 1.423 0 0 0-.498.339 1.778 1.778 0 0 0-.435 1.187v.074h3.02v-.117c0-.487-.134-.876-.402-1.165-.262-.297-.612-.445-1.05-.445Zm7.258 3.995h-.043c-.332.678-.865 1.017-1.6 1.017-.339 0-.646-.067-.922-.201a2.058 2.058 0 0 1-.71-.572 2.761 2.761 0 0 1-.445-.901 4.397 4.397 0 0 1-.148-1.187c0-.438.049-.834.148-1.187.106-.353.254-.653.445-.901.198-.247.435-.438.71-.572.276-.134.583-.201.922-.201.382 0 .707.084.975.254.276.162.484.417.625.763h.043v-3.264h.848v7.842h-.848v-.89Zm-1.41.254c.191 0 .371-.025.541-.074.176-.049.328-.12.455-.212.128-.099.227-.215.297-.35a.969.969 0 0 0 .117-.477v-2.034a.779.779 0 0 0-.117-.414.963.963 0 0 0-.297-.339 1.46 1.46 0 0 0-.455-.212 1.717 1.717 0 0 0-.541-.084c-.48 0-.858.152-1.134.455-.275.297-.413.689-.413 1.177v.932c0 .488.138.883.413 1.187.276.297.654.445 1.134.445Zm8.726.763c-.6 0-1.113-.113-1.536-.339a3.305 3.305 0 0 1-1.081-.954l.657-.551c.261.346.551.611.869.795.318.177.692.265 1.123.265.53 0 .932-.127 1.208-.382.283-.254.424-.593.424-1.017 0-.353-.106-.625-.318-.816-.212-.191-.562-.342-1.049-.456l-.604-.137c-.678-.156-1.198-.389-1.558-.7-.353-.318-.53-.763-.53-1.335 0-.325.06-.615.18-.869s.286-.466.498-.636c.219-.169.477-.296.774-.381.304-.092.636-.138.996-.138.558 0 1.035.102 1.431.307a2.75 2.75 0 0 1 1.017.901l-.668.488a2.287 2.287 0 0 0-.741-.668c-.29-.163-.65-.244-1.081-.244-.474 0-.848.103-1.124.307-.268.198-.402.499-.402.901 0 .353.113.622.339.806.233.176.583.318 1.049.424l.604.137c.728.163 1.254.41 1.579.742.325.332.487.774.487 1.325 0 .339-.06.646-.18.922a1.843 1.843 0 0 1-.498.699 2.326 2.326 0 0 1-.805.445 3.276 3.276 0 0 1-1.06.159Zm5.766-.127-2.459-7.397h.954l1.218 3.73.816 2.777h.053l.838-2.777 1.229-3.73h.922l-2.49 7.397h-1.081Zm9.438-1.081h-.032c-.092.346-.318.636-.678.869-.353.226-.812.339-1.378.339-.452 0-.869-.081-1.25-.244a2.704 2.704 0 0 1-.964-.731 3.626 3.626 0 0 1-.636-1.197c-.149-.481-.223-1.032-.223-1.653 0-.615.074-1.159.223-1.632.148-.481.36-.88.636-1.198.275-.325.607-.572.996-.742a3.205 3.205 0 0 1 1.293-.254c.664 0 1.218.148 1.663.445.445.297.788.689 1.028 1.176l-.731.445a2.071 2.071 0 0 0-.763-.932c-.332-.226-.731-.339-1.197-.339-.325 0-.622.06-.891.18a2.018 2.018 0 0 0-.699.487 2.267 2.267 0 0 0-.445.763 2.95 2.95 0 0 0-.159.997v1.197c0 .367.053.703.159 1.007.106.296.254.551.445.763.198.212.438.378.721.498.282.113.6.169.953.169.255 0 .495-.031.721-.095a1.82 1.82 0 0 0 .604-.307 1.42 1.42 0 0 0 .413-.498 1.64 1.64 0 0 0 .149-.721v-.731h-1.632v-.784h2.501v3.804h-.827v-1.081ZM80.1 128.5v-.916h1.423v-3.542h-.068l-1.075 1.408-.726-.568 1.264-1.665h1.74v4.367h1.121v.916H80.1Zm6.098.091c-.691 0-1.203-.24-1.536-.719-.333-.48-.5-1.151-.5-2.014 0-.863.167-1.534.5-2.013.333-.48.845-.719 1.536-.719.692 0 1.204.239 1.537.719.333.479.5 1.15.5 2.013s-.167 1.534-.5 2.014c-.333.479-.845.719-1.537.719Zm0-.961c.303 0 .512-.112.629-.334.115-.222.174-.534.174-.938v-.999c0-.404-.059-.717-.175-.939-.116-.222-.325-.333-.628-.333s-.512.111-.628.333c-.116.222-.174.535-.174.939v.999c0 .404.058.716.174.938.116.222.325.334.628.334Zm4.539.961c-.691 0-1.204-.24-1.537-.719-.333-.48-.5-1.151-.5-2.014 0-.863.167-1.534.5-2.013.333-.48.846-.719 1.537-.719s1.204.239 1.537.719c.333.479.5 1.15.5 2.013s-.167 1.534-.5 2.014c-.334.479-.846.719-1.537.719Zm0-.961c.303 0 .512-.112.628-.334.116-.222.174-.534.174-.938v-.999c0-.404-.058-.717-.174-.939-.116-.222-.325-.333-.628-.333s-.512.111-.628.333c-.116.222-.174.535-.174.939v.999c0 .404.058.716.174.938.116.222.325.334.628.334Zm3.441.953c-.227 0-.396-.055-.507-.166a.627.627 0 0 1-.159-.439v-.152c0-.176.053-.32.159-.431.11-.116.28-.174.507-.174.227 0 .394.058.5.174a.584.584 0 0 1 .166.431v.152a.61.61 0 0 1-.166.439c-.106.111-.273.166-.5.166Zm3.44.008c-.69 0-1.203-.24-1.536-.719-.333-.48-.5-1.151-.5-2.014 0-.863.167-1.534.5-2.013.333-.48.846-.719 1.537-.719s1.204.239 1.537.719c.333.479.5 1.15.5 2.013s-.167 1.534-.5 2.014c-.334.479-.846.719-1.537.719Zm0-.961c.304 0 .513-.112.63-.334.115-.222.173-.534.173-.938v-.999c0-.404-.058-.717-.174-.939-.116-.222-.325-.333-.628-.333s-.512.111-.628.333c-.116.222-.174.535-.174.939v.999c0 .404.058.716.174.938.116.222.325.334.628.334Zm4.54.961c-.692 0-1.204-.24-1.537-.719-.333-.48-.5-1.151-.5-2.014 0-.863.167-1.534.5-2.013.333-.48.845-.719 1.537-.719.691 0 1.203.239 1.536.719.333.479.5 1.15.5 2.013s-.167 1.534-.5 2.014c-.333.479-.845.719-1.536.719Zm0-.961c.302 0 .512-.112.628-.334.116-.222.174-.534.174-.938v-.999c0-.404-.058-.717-.174-.939-.116-.222-.326-.333-.628-.333-.303 0-.513.111-.629.333-.116.222-.174.535-.174.939v.999c0 .404.058.716.174.938.116.222.326.334.629.334Zm5.729-4.413v3.239c0 .374.073.654.22.84.146.182.391.273.734.273.343 0 .588-.091.734-.273.147-.186.22-.466.22-.84v-3.239h1.12v3.118c0 .389-.038.727-.114 1.014-.07.283-.189.518-.355.704a1.535 1.535 0 0 1-.644.409 3.112 3.112 0 0 1-.961.129c-.379 0-.699-.043-.961-.129a1.535 1.535 0 0 1-.644-.409 1.7 1.7 0 0 1-.363-.704 4.26 4.26 0 0 1-.106-1.014v-3.118h1.12Zm5.877 5.374c-.465 0-.858-.078-1.181-.235a2.732 2.732 0 0 1-.825-.621l.757-.764c.358.404.8.606 1.324.606.283 0 .492-.059.629-.175a.576.576 0 0 0 .204-.461.544.544 0 0 0-.121-.364c-.081-.101-.245-.169-.492-.204l-.522-.068c-.561-.071-.972-.24-1.234-.507-.258-.268-.386-.624-.386-1.068a1.47 1.47 0 0 1 .522-1.158c.172-.141.378-.25.621-.325a2.69 2.69 0 0 1 .84-.121c.399 0 .749.063 1.052.189.303.126.563.31.78.552l-.765.773a1.458 1.458 0 0 0-.462-.356c-.176-.096-.401-.144-.673-.144-.258 0-.449.045-.576.136a.44.44 0 0 0-.189.379c0 .181.048.313.144.393.101.081.262.139.485.174l.522.084c.545.085.949.255 1.211.507.262.247.394.6.394 1.06 0 .252-.046.484-.137.696a1.467 1.467 0 0 1-.401.545c-.171.151-.386.27-.643.356-.258.08-.55.121-.878.121Zm3.012-5.374h1.991c.348 0 .666.055.954.166.288.111.532.278.734.5.202.217.359.492.47.825.111.328.166.711.166 1.15 0 .439-.055.825-.166 1.158a2.306 2.306 0 0 1-.47.825 1.94 1.94 0 0 1-.734.492 2.632 2.632 0 0 1-.954.167h-1.991v-5.283Zm1.991 4.261c.343 0 .613-.096.81-.288.197-.191.295-.499.295-.923v-.817c0-.424-.098-.732-.295-.924-.197-.192-.467-.288-.81-.288h-.84v3.24h.84Z" fill="#333"/><rect x="37.379" y="100.378" width="183.243" height="35.243" rx="5.677" stroke="#F2F3F4" stroke-width=".757"/></g><g clip-path="url(#e)"><g clip-path="url(#f)"><g clip-path="url(#g)"><path fill="#fff" d="M50.666 0h156.668v94.001H50.666z"/><g opacity=".8" filter="url(#h)"><circle cx="159.666" cy="167" r="128" fill="#F44336"/></g><g opacity=".8" filter="url(#i)"><circle cx="231.666" cy="15" r="64" fill="#283991"/></g><g opacity=".8" filter="url(#j)"><circle cx="66.666" cy="16" r="40" fill="#F44336"/></g><path d="M213.861-6.528 113.793 9.34 95.447 94.001h100.068L213.861-6.528Z" fill="#fff" style="mix-blend-mode:overlay" opacity=".16"/></g><rect x="63.199" y="12.533" width="25.067" height="25.067" rx="12.533" fill="#fff"/><path fill-rule="evenodd" clip-rule="evenodd" d="M75.203 12.533a12.47 12.47 0 0 0-6.5 2.275h14.464a12.473 12.473 0 0 0-6.5-2.275h-1.465Zm-8.95 4.548a12.51 12.51 0 0 0-1.487 2.274h22.338a12.506 12.506 0 0 0-1.486-2.274H66.252Zm-3.002 6.845c.068-.78.21-1.54.415-2.273h24.116c.206.733.347 1.492.416 2.273H63.25Zm.005 2.275c.072.781.218 1.54.428 2.273h24.08c.21-.732.356-1.492.429-2.273H63.256Zm2.839 6.822a12.518 12.518 0 0 1-1.507-2.274H86.86a12.53 12.53 0 0 1-1.507 2.274H66.095Zm9.1 4.534.037.002h.038a12.338 12.338 0 0 0 7.596-2.263l-4.025.001H68.583a12.337 12.337 0 0 0 6.611 2.26Z" fill="#F44336"/><path d="M75.466 12.54c-6.419.13-11.65 5.086-12.213 11.39h12.213V12.54Z" fill="#283991"/><path d="m65.706 19.615.19.586h.619l-.5.363.19.586-.5-.362-.499.362.19-.586-.5-.363h.619l.19-.586Zm0 2.071.19.587h.619l-.5.363.19.586-.5-.363-.499.363.19-.587-.5-.362h.619l.19-.587Zm2.076-5.179.19.587h.619l-.5.362.19.587-.5-.363-.5.363.192-.587-.5-.362h.618l.19-.587Zm0 2.072.19.586h.619l-.5.363.19.586-.5-.362-.5.362.192-.586-.5-.363h.618l.19-.586Zm0 2.071.19.587h.619l-.5.362.19.587-.5-.363-.5.363.192-.587-.5-.362h.618l.19-.586Zm-3.652 1.536-.191-.587.5-.362h-.618l-.014-.043c-.068.21-.13.422-.186.636l.009-.007.5.363Zm1.076-3.107.5-.363.5.363-.191-.587.5-.363h-.619l-.19-.586-.191.586h-.228l-.125.194.235.169-.191.587Zm2.576-3.47.5.362-.191-.586.5-.363h-.357c-.304.226-.596.465-.877.718l-.076.23.5-.361Zm1.576-.674.5-.363.5.363-.191-.587.5-.362h-.618l-.026-.079c-.21.107-.417.218-.62.336l.146.105-.191.587Zm.5.536.19.587h.619l-.5.362.19.587-.5-.363-.5.363.192-.587-.5-.363h.618l.19-.586Zm0 2.072.19.586h.619l-.5.363.19.587-.5-.363-.5.363.192-.587-.5-.363h.618l.19-.586Zm0 2.072.19.586h.619l-.5.363.19.586-.5-.362-.5.362.192-.586-.5-.363h.618l.19-.586Zm0 2.071.19.587h.619l-.5.363.19.586-.5-.363-.5.363.192-.587-.5-.362h.618l.19-.587Zm2.076-7.251.19.587h.619l-.5.363.19.586-.499-.362-.5.362.19-.586-.5-.363h.619l.191-.587Zm0 2.072.19.587h.619l-.5.362.19.587-.499-.363-.5.363.19-.587-.5-.362h.619l.191-.587Zm0 2.072.19.586h.619l-.5.363.19.586-.499-.362-.5.362.19-.586-.5-.363h.619l.191-.586Zm0 2.071.19.587h.619l-.5.362.19.587-.499-.363-.5.363.19-.587-.5-.362h.619l.191-.586Zm2.076-7.25.191.586h.618l-.5.362.19.587-.499-.363-.5.363.191-.587-.5-.362h.618l.191-.586Zm0 2.071.191.587h.618l-.5.362.19.587-.499-.363-.5.363.191-.587-.5-.363h.618l.191-.586Zm0 2.072.191.586h.618l-.5.363.19.587-.499-.363-.5.363.191-.587-.5-.363h.618l.191-.586Zm0 2.072.191.586h.618l-.5.363.19.586-.499-.362-.5.362.191-.586-.5-.363h.618l.191-.586Zm0 2.071.191.587h.618l-.5.363.19.586-.499-.363-.5.363.191-.587-.5-.362h.618l.191-.587Z" fill="#EFEFEF"/><path d="M64.547 57v3.384c0 .522.096.919.29 1.19.193.267.532.4 1.018.4.485 0 .825-.133 1.018-.4.193-.271.29-.668.29-1.19V57h.658v3.227a4.3 4.3 0 0 1-.11 1.034c-.068.292-.18.535-.337.728a1.396 1.396 0 0 1-.618.431c-.251.094-.56.141-.925.141s-.673-.047-.924-.14a1.353 1.353 0 0 1-.595-.432 1.835 1.835 0 0 1-.33-.728 4.986 4.986 0 0 1-.093-1.034V57h.658Zm6.225 5.561c-.444 0-.823-.083-1.136-.25a2.452 2.452 0 0 1-.799-.705l.486-.408c.193.256.407.452.642.588.235.13.512.196.83.196.392 0 .69-.094.894-.282.208-.188.313-.44.313-.752 0-.261-.078-.463-.235-.604-.157-.14-.415-.253-.776-.336l-.446-.102c-.502-.115-.885-.288-1.152-.517-.26-.235-.391-.564-.391-.987 0-.24.044-.455.133-.643.089-.188.211-.344.368-.47.162-.125.353-.219.572-.282.224-.067.47-.101.736-.101.413 0 .765.075 1.058.227.297.151.548.373.752.666l-.494.36a1.7 1.7 0 0 0-.548-.494c-.214-.12-.48-.18-.8-.18-.349 0-.626.076-.83.227-.198.147-.297.369-.297.666 0 .261.083.46.25.596.173.13.431.235.776.313l.447.102c.537.12.927.303 1.167.548.24.245.36.572.36.98 0 .25-.044.477-.133.68a1.36 1.36 0 0 1-.368.518c-.162.14-.36.25-.596.329-.23.078-.49.117-.783.117ZM73.788 57h1.833c.34 0 .648.057.925.172.276.115.511.287.705.517.198.224.35.51.454.854.105.34.157.736.157 1.19 0 .455-.052.854-.157 1.199a2.34 2.34 0 0 1-.454.854 1.855 1.855 0 0 1-.705.509 2.391 2.391 0 0 1-.925.172h-1.833V57Zm1.833 4.888c.225 0 .431-.037.62-.11.187-.078.35-.19.485-.337.136-.146.24-.324.313-.533a2.09 2.09 0 0 0 .118-.728v-.893c0-.272-.04-.512-.118-.72a1.49 1.49 0 0 0-.313-.541 1.294 1.294 0 0 0-.486-.33 1.594 1.594 0 0 0-.619-.117h-1.175v4.309h1.175Zm6.034.58L80.323 57h.697l.588 2.632.454 2.044h.016l.509-2.044.69-2.632h.751l.666 2.632.51 2.036h.023l.47-2.036.619-2.632h.673l-1.402 5.467h-.728l-.713-2.726-.502-2.005h-.015l-.517 2.005-.729 2.726h-.728Zm9.015 0c-.235 0-.405-.063-.51-.189a.953.953 0 0 1-.187-.47h-.04a1.04 1.04 0 0 1-.438.564 1.363 1.363 0 0 1-.729.188c-.428 0-.762-.11-1.002-.329-.235-.22-.353-.517-.353-.893 0-.38.139-.673.415-.877.282-.204.719-.306 1.309-.306h.799v-.4c0-.286-.079-.506-.235-.657-.157-.151-.397-.227-.721-.227a1.11 1.11 0 0 0-.619.164 1.37 1.37 0 0 0-.407.439l-.376-.353c.11-.219.284-.404.525-.556.24-.156.543-.235.908-.235.491 0 .872.12 1.144.36.271.24.407.575.407 1.003v2.225h.462v.548h-.352Zm-1.802-.44c.157 0 .3-.018.431-.054a1.07 1.07 0 0 0 .337-.157.776.776 0 0 0 .22-.235.562.562 0 0 0 .078-.29v-.666h-.83c-.361 0-.625.053-.792.157a.508.508 0 0 0-.243.454v.165c0 .198.07.352.212.462.146.11.342.165.587.165Zm3.715.44c-.22 0-.387-.06-.502-.18a.688.688 0 0 1-.164-.47V56.67h.627v5.248h.595v.548h-.556Zm2.096 0c-.22 0-.387-.06-.502-.18a.688.688 0 0 1-.164-.47V56.67h.627v5.248h.595v.548h-.556Zm2.988.093c-.277 0-.528-.05-.752-.148-.22-.1-.41-.24-.572-.424a2.107 2.107 0 0 1-.368-.665 2.87 2.87 0 0 1-.125-.878c0-.318.041-.608.125-.87.089-.26.211-.482.368-.665.162-.188.353-.332.572-.43.224-.1.475-.15.752-.15.272 0 .514.05.728.15.215.098.397.237.549.414.151.173.266.379.344.62.084.24.126.503.126.79v.298h-2.906v.188c0 .172.026.334.078.486.057.146.136.274.235.383.104.11.23.196.376.259.151.063.321.094.51.094.255 0 .477-.06.665-.18.193-.12.342-.293.446-.517l.447.32c-.13.278-.334.502-.611.675-.277.167-.606.25-.987.25Zm0-3.705c-.172 0-.33.031-.47.094a1.05 1.05 0 0 0-.368.25 1.319 1.319 0 0 0-.321.877v.056h2.232v-.086c0-.36-.1-.648-.298-.862-.193-.22-.451-.329-.775-.329Zm3.672 3.611c-.219 0-.386-.06-.501-.18a.709.709 0 0 1-.164-.486v-2.827h-.666v-.549h.376c.136 0 .227-.026.274-.078.052-.058.078-.154.078-.29v-.752h.564v1.12h.885v.549h-.885v2.945h.823v.548h-.784Zm-37.109 15V76.14h2.062v-5.132h-.099l-1.557 2.04-1.053-.823 1.832-2.412h2.522v6.327h1.623v1.327h-5.33Zm7.245-1.853c.329 0 .57.084.724.252.16.161.24.37.24.625v.22c0 .446-.109.884-.328 1.316a2.943 2.943 0 0 1-.845 1.052H70.17a5.83 5.83 0 0 0 .658-.723c.183-.234.322-.498.416-.79-.255-.044-.442-.143-.559-.296a.926.926 0 0 1-.175-.56v-.219c0-.256.076-.464.23-.625.16-.168.406-.252.735-.252Zm2.726 1.853V76.14h2.062v-5.132h-.1l-1.556 2.04-1.053-.823 1.831-2.412h2.523v6.327h1.623v1.327H74.2Zm8.835.132c-1.002 0-1.744-.347-2.227-1.042-.482-.695-.723-1.667-.723-2.917 0-1.25.241-2.223.724-2.917.482-.695 1.224-1.042 2.226-1.042 1.001 0 1.743.347 2.226 1.042.483.694.724 1.667.724 2.917 0 1.25-.241 2.222-.724 2.917-.483.695-1.225 1.042-2.226 1.042Zm0-1.393c.438 0 .742-.16.91-.482.168-.322.252-.775.252-1.36v-1.448c0-.585-.084-1.038-.252-1.36-.168-.322-.472-.482-.91-.482-.439 0-.742.16-.91.482-.169.322-.253.775-.253 1.36v1.448c0 .585.084 1.038.252 1.36.169.321.472.482.91.482Zm6.576 1.393c-1.002 0-1.744-.347-2.227-1.042-.482-.695-.724-1.667-.724-2.917 0-1.25.242-2.223.724-2.917.483-.695 1.225-1.042 2.227-1.042 1.001 0 1.743.347 2.226 1.042.482.694.724 1.667.724 2.917 0 1.25-.242 2.222-.724 2.917-.483.695-1.225 1.042-2.226 1.042Zm0-1.393c.438 0 .742-.16.91-.482.168-.322.252-.775.252-1.36v-1.448c0-.585-.084-1.038-.252-1.36-.168-.322-.472-.482-.91-.482-.44 0-.742.16-.91.482-.169.322-.253.775-.253 1.36v1.448c0 .585.084 1.038.252 1.36.169.321.472.482.91.482Zm4.985 1.382c-.329 0-.574-.08-.735-.241a.907.907 0 0 1-.23-.636v-.22a.87.87 0 0 1 .23-.625c.161-.168.406-.252.735-.252.33 0 .57.084.724.252a.85.85 0 0 1 .241.625v.22c0 .255-.08.468-.241.636-.154.16-.395.24-.724.24Zm4.985.01c-1.001 0-1.743-.346-2.226-1.041-.482-.695-.724-1.667-.724-2.917 0-1.25.242-2.223.724-2.917.483-.695 1.225-1.042 2.226-1.042 1.002 0 1.744.347 2.227 1.042.482.694.723 1.667.723 2.917 0 1.25-.241 2.222-.723 2.917-.483.695-1.225 1.042-2.227 1.042Zm0-1.392c.439 0 .742-.16.911-.482.168-.322.252-.775.252-1.36v-1.448c0-.585-.084-1.038-.252-1.36-.169-.322-.472-.482-.91-.482-.44 0-.743.16-.91.482-.17.322-.253.775-.253 1.36v1.448c0 .585.084 1.038.252 1.36.168.321.472.482.91.482Zm6.576 1.393c-1.002 0-1.744-.347-2.226-1.042-.483-.695-.724-1.667-.724-2.917 0-1.25.241-2.223.724-2.917.482-.695 1.224-1.042 2.226-1.042s1.744.347 2.226 1.042c.483.694.724 1.667.724 2.917 0 1.25-.241 2.222-.724 2.917-.482.695-1.224 1.042-2.226 1.042Zm0-1.393c.439 0 .742-.16.91-.482.168-.322.253-.775.253-1.36v-1.448c0-.585-.085-1.038-.253-1.36-.168-.322-.471-.482-.91-.482-.439 0-.742.16-.91.482-.168.322-.252.775-.252 1.36v1.448c0 .585.084 1.038.252 1.36.168.321.471.482.91.482Zm8.301-6.394v4.694c0 .541.106.947.318 1.218.212.263.567.394 1.064.394.497 0 .852-.131 1.064-.394.212-.27.318-.677.318-1.218v-4.694h1.623v4.519c0 .563-.055 1.053-.165 1.47a2.368 2.368 0 0 1-.515 1.02c-.241.262-.552.46-.932.591-.38.125-.845.187-1.393.187s-1.013-.062-1.393-.187a2.222 2.222 0 0 1-.932-.592 2.455 2.455 0 0 1-.526-1.02 6.177 6.177 0 0 1-.154-1.47v-4.517h1.623Zm8.514 7.787c-.673 0-1.243-.113-1.711-.34a3.983 3.983 0 0 1-1.195-.9l1.097-1.107c.519.585 1.158.877 1.919.877.409 0 .713-.084.91-.252a.836.836 0 0 0 .296-.669.789.789 0 0 0-.175-.526c-.117-.147-.355-.245-.713-.296l-.757-.1c-.811-.101-1.407-.346-1.787-.734-.373-.387-.56-.903-.56-1.546 0-.344.066-.658.198-.943.131-.285.318-.53.559-.735.248-.205.548-.362.899-.472a3.914 3.914 0 0 1 1.218-.175c.577 0 1.085.091 1.524.274a3.1 3.1 0 0 1 1.129.8l-1.107 1.12a2.134 2.134 0 0 0-.669-.516c-.256-.14-.581-.209-.976-.209-.373 0-.651.066-.834.198a.64.64 0 0 0-.274.548c0 .263.07.454.209.57.146.117.38.202.701.253l.757.12c.79.125 1.375.37 1.755.735.38.358.57.87.57 1.535 0 .366-.066.702-.197 1.01-.132.306-.326.57-.582.789-.248.22-.559.391-.932.515a4.247 4.247 0 0 1-1.272.176Zm4.365-7.787h2.884c.505 0 .965.08 1.382.242.417.16.772.402 1.064.724.292.314.519.712.68 1.195.161.475.241 1.03.241 1.667 0 .636-.08 1.195-.241 1.678a3.353 3.353 0 0 1-.68 1.195 2.81 2.81 0 0 1-1.064.713c-.417.16-.877.241-1.382.241h-2.884v-7.654Zm2.884 6.175c.498 0 .889-.14 1.174-.417.285-.278.428-.724.428-1.338v-1.184c0-.615-.143-1.06-.428-1.338-.285-.278-.676-.417-1.174-.417h-1.217v4.694h1.217Z" fill="#333"/><g clip-path="url(#k)"><path d="M178.041 20.627c-.481 0-.888-.08-1.222-.242a2.84 2.84 0 0 1-.854-.643l.783-.79c.371.417.828.626 1.371.626.292 0 .509-.06.65-.18a.597.597 0 0 0 .212-.478.562.562 0 0 0-.126-.376c-.083-.105-.253-.175-.509-.212l-.54-.07c-.58-.073-1.006-.248-1.277-.525-.267-.277-.4-.645-.4-1.105 0-.245.047-.47.141-.673a1.5 1.5 0 0 1 .4-.525 1.87 1.87 0 0 1 .642-.337c.256-.083.546-.125.87-.125.412 0 .775.065 1.088.196a2.2 2.2 0 0 1 .807.571l-.791.8a1.527 1.527 0 0 0-.478-.369c-.183-.099-.415-.149-.697-.149-.266 0-.465.047-.595.141a.455.455 0 0 0-.196.392c0 .188.049.324.149.407.104.084.271.144.501.18l.541.087c.564.088.981.263 1.253.525.271.256.407.621.407 1.096 0 .261-.047.502-.141.72-.094.22-.232.408-.415.565a1.9 1.9 0 0 1-.666.368 3.028 3.028 0 0 1-.908.125Zm4.249-.094-1.763-5.467h1.207l.814 2.624.431 1.715h.024l.415-1.715.814-2.624h1.168l-1.779 5.467h-1.331Zm7.051-.87h-.039a1.041 1.041 0 0 1-.423.69c-.241.183-.567.274-.979.274-.314 0-.606-.06-.878-.18a2.023 2.023 0 0 1-.713-.532 2.536 2.536 0 0 1-.478-.878 3.92 3.92 0 0 1-.172-1.214c0-.46.06-.867.18-1.222s.288-.653.502-.893c.219-.24.48-.423.783-.548.303-.126.64-.188 1.011-.188.49 0 .913.107 1.269.32.355.21.634.526.838.949l-.972.556a1.301 1.301 0 0 0-.391-.54c-.178-.152-.426-.228-.744-.228-.371 0-.666.107-.886.321-.219.214-.329.551-.329 1.01v.878c0 .455.11.791.329 1.01.22.215.515.322.886.322.146 0 .284-.016.415-.047.13-.037.245-.089.344-.157a.763.763 0 0 0 .228-.258.696.696 0 0 0 .086-.353v-.274h-1.019v-.995h2.155v3.047h-1.003v-.87Z" fill="#333"/></g><rect x="172.926" y="12.925" width="21.483" height="10.217" rx="1.175" stroke="#333" stroke-width=".783"/></g></g><g filter="url(#l)"><rect x="20" y="68" width="218" height="36.333" rx="6.056" fill="#fff"/><g clip-path="url(#m)"><path d="M35.518 77.083a3.406 3.406 0 0 0-3.407 3.407v.099l16.983-2.68a3.393 3.393 0 0 0-2.222-.826H35.518Zm13.927 1.174L46.329 95.25h.542a3.406 3.406 0 0 0 3.407-3.406V80.49c0-.854-.314-1.635-.833-2.233Z" fill="#303541"/><path d="M32.111 80.589v11.255a3.406 3.406 0 0 0 3.407 3.406H46.57h-.242l3.116-16.993a3.42 3.42 0 0 0-.351-.349l-16.983 2.68Z" fill="#414652"/><path d="M41.762 87.87a1.14 1.14 0 0 1 1.136-1.136h2.27a1.14 1.14 0 0 1 1.136 1.136v2.27c0 .625-.51 1.136-1.135 1.136h-2.271a1.139 1.139 0 0 1-1.136-1.135V87.87Z" fill="#EF8933"/><path d="M36.085 87.87a1.14 1.14 0 0 1 1.136-1.136h2.27a1.14 1.14 0 0 1 1.136 1.136v2.27a1.14 1.14 0 0 1-1.136 1.136h-2.27a1.139 1.139 0 0 1-1.136-1.135V87.87Z" fill="#4B6FA8"/><path d="M41.762 82.193a1.14 1.14 0 0 1 1.136-1.136h2.27a1.14 1.14 0 0 1 1.136 1.136v2.27c0 .625-.51 1.136-1.135 1.136h-2.271c-.625 0-1.136-.51-1.136-1.135v-2.271Z" fill="#76C0E3"/><path d="M36.085 82.193a1.14 1.14 0 0 1 1.136-1.136h2.27a1.14 1.14 0 0 1 1.136 1.136v2.27a1.14 1.14 0 0 1-1.136 1.136h-2.27c-.625 0-1.136-.51-1.136-1.135v-2.271Z" fill="#FF444F"/></g><path d="M63.374 77.27h2.48c.46 0 .876.078 1.25.233.375.155.693.388.954.7.269.303.473.688.615 1.154.141.46.212.997.212 1.611 0 .615-.07 1.155-.212 1.622a3.17 3.17 0 0 1-.615 1.155c-.261.303-.58.533-.954.688a3.232 3.232 0 0 1-1.25.234h-2.48V77.27Zm2.48 6.612c.304 0 .583-.049.837-.148.254-.106.474-.258.657-.456a2.02 2.02 0 0 0 .424-.72c.106-.29.159-.618.159-.986v-1.208c0-.367-.053-.692-.159-.975a2.014 2.014 0 0 0-.424-.731 1.75 1.75 0 0 0-.657-.445 2.154 2.154 0 0 0-.837-.159h-1.59v5.828h1.59Zm6.601.912a2.49 2.49 0 0 1-1.017-.202 2.276 2.276 0 0 1-.774-.572 2.851 2.851 0 0 1-.498-.9 3.881 3.881 0 0 1-.17-1.188c0-.43.057-.823.17-1.176.12-.353.286-.653.498-.9a2.22 2.22 0 0 1 .774-.583 2.491 2.491 0 0 1 1.017-.202c.367 0 .696.067.986.202.29.134.536.321.741.561.205.233.36.513.467.837.113.325.17.682.17 1.07v.403h-3.932v.255c0 .233.035.452.106.657.077.198.183.37.318.52.14.148.31.264.508.349.205.085.435.127.689.127a1.582 1.582 0 0 0 1.505-.944l.604.435a2.135 2.135 0 0 1-.827.912c-.374.226-.82.339-1.335.339Zm0-5.013c-.233 0-.445.043-.636.127a1.42 1.42 0 0 0-.498.34 1.784 1.784 0 0 0-.434 1.187v.074h3.02v-.117c0-.487-.135-.876-.403-1.166-.261-.296-.611-.445-1.049-.445Zm3.76 4.886v-5.469h.848v1.007h.053a1.65 1.65 0 0 1 .53-.7c.254-.204.604-.306 1.049-.306h.328v.847h-.498c-.459 0-.82.088-1.08.265-.255.17-.382.385-.382.647v3.709h-.848Zm4.315-6.75c-.183 0-.318-.043-.403-.128a.523.523 0 0 1-.116-.35v-.137c0-.142.039-.255.117-.34.084-.091.219-.137.402-.137.184 0 .315.046.392.137a.458.458 0 0 1 .127.34v.137a.495.495 0 0 1-.127.35c-.077.085-.208.127-.392.127Zm-.424 1.281h.848v5.469h-.848v-5.469Zm3.858 5.469-1.918-5.469h.847l.954 2.713.594 1.865h.053l.593-1.865.975-2.713h.816l-1.929 5.469h-.985Zm11.228 0-.742-2.183h-2.99l-.741 2.183h-.901l2.586-7.397h1.133l2.586 7.397h-.932Zm-2.215-6.57h-.053l-1.25 3.602h2.553l-1.25-3.603Zm4.288 1.102h.847v.89h.043c.141-.347.346-.6.614-.763.276-.17.605-.255.986-.255.339 0 .646.067.922.202.276.134.509.325.699.572.198.247.347.547.446.9.105.354.158.75.158 1.188 0 .438-.053.833-.158 1.186a2.503 2.503 0 0 1-.446.901c-.19.248-.423.438-.699.572a2.078 2.078 0 0 1-.922.202c-.742 0-1.275-.34-1.6-1.017h-.043v3.01h-.847v-7.589Zm2.257 4.832c.48 0 .858-.149 1.134-.445.275-.304.413-.7.413-1.187v-.933c0-.487-.138-.88-.413-1.176-.276-.304-.654-.456-1.134-.456-.19 0-.375.029-.551.085-.17.05-.318.12-.445.212s-.23.205-.307.34a.837.837 0 0 0-.106.412v2.035c0 .177.035.336.106.477.077.134.18.25.307.35.127.091.275.162.445.212.176.05.36.074.55.074Zm3.89-4.833h.848v.89h.042c.141-.346.346-.6.615-.762.275-.17.604-.255.985-.255.339 0 .647.067.922.202.276.134.509.325.7.572.197.247.346.547.445.9.106.354.159.75.159 1.188 0 .438-.053.833-.159 1.186a2.518 2.518 0 0 1-.445.901 1.954 1.954 0 0 1-.7.572 2.075 2.075 0 0 1-.922.202c-.742 0-1.275-.34-1.6-1.017h-.042v3.01h-.848v-7.589Zm2.257 4.833c.481 0 .859-.149 1.134-.445.276-.304.413-.7.413-1.187v-.933c0-.487-.137-.88-.413-1.176-.275-.304-.653-.456-1.134-.456-.191 0-.374.029-.551.085-.169.05-.318.12-.445.212s-.23.205-.307.34a.834.834 0 0 0-.106.412v2.035c0 .177.035.336.106.477.077.134.18.25.307.35.127.091.276.162.445.212.177.05.36.074.551.074Zm5.533.763c-.509 0-.936-.096-1.283-.286a2.99 2.99 0 0 1-.879-.784l.604-.488c.212.268.449.477.71.625.261.141.565.212.911.212.361 0 .64-.077.837-.233.205-.155.308-.374.308-.657a.756.756 0 0 0-.212-.54c-.134-.156-.382-.262-.742-.318l-.434-.064a3.92 3.92 0 0 1-.7-.159 2.24 2.24 0 0 1-.562-.297 1.401 1.401 0 0 1-.37-.466 1.554 1.554 0 0 1-.128-.657c0-.268.05-.502.149-.7a1.44 1.44 0 0 1 .402-.508c.177-.134.386-.233.626-.297.24-.07.498-.106.773-.106.445 0 .816.078 1.113.233.304.156.569.371.795.647l-.562.509a1.634 1.634 0 0 0-.53-.456c-.233-.141-.526-.212-.879-.212-.354 0-.622.078-.806.233-.176.148-.265.353-.265.615 0 .268.089.462.265.582.184.12.445.209.785.266l.423.063c.608.092 1.039.269 1.293.53.255.254.382.59.382 1.007 0 .53-.18.946-.541 1.25-.36.304-.855.456-1.483.456Zm6.948-7.524v4.578c0 .706.13 1.243.392 1.61.261.36.72.541 1.377.541s1.117-.18 1.378-.54c.261-.368.392-.905.392-1.611V77.27h.89v4.366c0 .537-.049 1.003-.148 1.399a2.404 2.404 0 0 1-.456.985 1.89 1.89 0 0 1-.837.583c-.339.127-.756.19-1.25.19-.495 0-.912-.063-1.251-.19a1.83 1.83 0 0 1-.805-.583 2.473 2.473 0 0 1-.445-.985 6.73 6.73 0 0 1-.128-1.4V77.27h.891Zm8.422 7.524c-.601 0-1.113-.113-1.537-.34a3.32 3.32 0 0 1-1.081-.953l.657-.551c.261.346.551.611.869.795.318.176.692.265 1.123.265.53 0 .933-.128 1.208-.382.283-.254.424-.593.424-1.017 0-.354-.106-.626-.318-.816-.212-.191-.561-.343-1.049-.456l-.604-.138c-.678-.155-1.197-.388-1.558-.7-.353-.317-.529-.762-.529-1.334 0-.325.06-.615.18-.87.12-.254.286-.466.498-.635.219-.17.477-.297.773-.382.304-.091.636-.137.997-.137.558 0 1.035.102 1.43.307a2.76 2.76 0 0 1 1.018.9l-.668.488a2.3 2.3 0 0 0-.742-.667c-.29-.163-.65-.244-1.081-.244-.473 0-.848.102-1.123.307-.269.198-.403.498-.403.9 0 .354.113.623.339.806.233.177.583.318 1.049.424l.604.138c.728.162 1.254.41 1.579.742.325.332.488.773.488 1.324 0 .34-.06.647-.18.922a1.839 1.839 0 0 1-.498.7c-.219.19-.488.339-.806.445a3.274 3.274 0 0 1-1.059.159Zm4.08-7.524h2.48c.459 0 .876.078 1.25.233.375.155.693.388.954.7.269.303.473.688.615 1.154.141.46.212.997.212 1.611 0 .615-.071 1.155-.212 1.622a3.17 3.17 0 0 1-.615 1.155 2.502 2.502 0 0 1-.954.688 3.23 3.23 0 0 1-1.25.234h-2.48V77.27Zm2.48 6.612c.304 0 .583-.049.837-.148a1.87 1.87 0 0 0 .657-.456 2.02 2.02 0 0 0 .424-.72c.106-.29.159-.618.159-.986v-1.208c0-.367-.053-.692-.159-.975a2.012 2.012 0 0 0-.424-.731 1.756 1.756 0 0 0-.657-.445 2.152 2.152 0 0 0-.837-.159h-1.59v5.828h1.59ZM63.1 96.667v-.916h1.423v-3.543h-.068l-1.075 1.408-.726-.568 1.264-1.665h1.74v4.368h1.121v.916H63.1Zm5-1.28c.228 0 .394.058.5.174a.584.584 0 0 1 .167.432v.151c0 .308-.076.61-.227.909-.147.297-.341.54-.583.726H67.2c.176-.166.328-.333.454-.5.126-.16.222-.342.288-.544-.177-.03-.306-.099-.386-.205a.64.64 0 0 1-.121-.386v-.151c0-.177.052-.32.159-.431.11-.117.28-.175.507-.175Zm3.442 1.37c-.692 0-1.204-.24-1.537-.719-.333-.479-.5-1.15-.5-2.013s.167-1.534.5-2.014c.333-.479.845-.719 1.537-.719.69 0 1.203.24 1.536.72.333.479.5 1.15.5 2.013s-.167 1.534-.5 2.013c-.333.48-.845.72-1.537.72Zm0-.96c.302 0 .512-.112.628-.334.116-.222.174-.535.174-.938v-1c0-.403-.058-.716-.174-.938-.116-.222-.326-.333-.629-.333-.302 0-.512.11-.628.333-.116.222-.174.535-.174.938v1c0 .403.058.716.174.938.116.222.326.333.629.333Zm4.538.96c-.691 0-1.203-.24-1.536-.719-.334-.479-.5-1.15-.5-2.013s.166-1.534.5-2.014c.333-.479.845-.719 1.536-.719.692 0 1.204.24 1.537.72.333.479.5 1.15.5 2.013s-.167 1.534-.5 2.013c-.333.48-.846.72-1.537.72Zm0-.96c.303 0 .512-.112.629-.334.115-.222.174-.535.174-.938v-1c0-.403-.058-.716-.174-.938-.117-.222-.326-.333-.629-.333s-.512.11-.628.333c-.116.222-.174.535-.174.938v1c0 .403.058.716.174.938.116.222.325.333.628.333Zm4.539.96c-.691 0-1.204-.24-1.537-.719-.333-.479-.5-1.15-.5-2.013s.167-1.534.5-2.014c.333-.479.846-.719 1.537-.719s1.204.24 1.537.72c.333.479.5 1.15.5 2.013s-.167 1.534-.5 2.013c-.334.48-.846.72-1.537.72Zm0-.96c.303 0 .512-.112.628-.334.116-.222.174-.535.174-.938v-1c0-.403-.058-.716-.174-.938-.116-.222-.325-.333-.628-.333s-.512.11-.628.333c-.116.222-.174.535-.174.938v1c0 .403.058.716.174.938.116.222.325.333.628.333Zm3.441.953c-.227 0-.396-.056-.507-.167a.626.626 0 0 1-.16-.439v-.151c0-.177.054-.32.16-.431.11-.117.28-.175.507-.175.227 0 .394.058.5.174a.583.583 0 0 1 .166.432v.151a.61.61 0 0 1-.166.44c-.106.11-.273.166-.5.166Zm3.44.007c-.69 0-1.203-.24-1.536-.719-.333-.479-.5-1.15-.5-2.013s.167-1.534.5-2.014c.333-.479.846-.719 1.537-.719s1.203.24 1.536.72c.334.479.5 1.15.5 2.013s-.166 1.534-.5 2.013c-.333.48-.845.72-1.536.72Zm0-.96c.304 0 .513-.112.63-.334.115-.222.173-.535.173-.938v-1c0-.403-.058-.716-.174-.938-.116-.222-.325-.333-.628-.333s-.512.11-.628.333c-.116.222-.175.535-.175.938v1c0 .403.059.716.175.938.116.222.325.333.628.333Zm4.54.96c-.692 0-1.204-.24-1.537-.719-.333-.479-.5-1.15-.5-2.013s.167-1.534.5-2.014c.333-.479.845-.719 1.537-.719.69 0 1.203.24 1.536.72.333.479.5 1.15.5 2.013s-.167 1.534-.5 2.013c-.333.48-.845.72-1.536.72Zm0-.96c.302 0 .512-.112.628-.334.116-.222.174-.535.174-.938v-1c0-.403-.058-.716-.174-.938-.116-.222-.326-.333-.628-.333-.303 0-.513.11-.629.333-.116.222-.174.535-.174.938v1c0 .403.058.716.174.938.116.222.326.333.629.333Zm5.73-4.414v3.24c0 .373.072.653.219.84.146.182.39.273.734.273.343 0 .588-.091.734-.273.147-.187.22-.467.22-.84v-3.24h1.12v3.119a4 4 0 0 1-.114 1.014c-.07.283-.189.517-.355.704a1.54 1.54 0 0 1-.644.409 3.121 3.121 0 0 1-.961.128 3.11 3.11 0 0 1-.961-.128 1.536 1.536 0 0 1-.644-.409 1.698 1.698 0 0 1-.363-.704 4.286 4.286 0 0 1-.106-1.014v-3.119h1.12Zm5.876 5.374c-.465 0-.858-.078-1.181-.234a2.751 2.751 0 0 1-.825-.62l.757-.765c.358.403.8.605 1.324.605.283 0 .492-.058.629-.174a.577.577 0 0 0 .204-.462.543.543 0 0 0-.121-.363c-.081-.1-.245-.17-.492-.204l-.522-.069c-.561-.07-.972-.24-1.234-.507-.258-.267-.386-.623-.386-1.067 0-.237.045-.454.136-.65.091-.198.219-.367.386-.508.172-.141.378-.25.621-.326a2.7 2.7 0 0 1 .84-.12c.399 0 .749.062 1.052.189.303.126.563.31.78.552l-.765.772a1.466 1.466 0 0 0-.462-.356c-.176-.095-.401-.143-.673-.143-.258 0-.449.045-.576.136a.44.44 0 0 0-.189.378c0 .182.048.313.144.394.101.08.262.139.485.174l.522.083c.545.086.949.255 1.211.508.262.247.394.6.394 1.06 0 .251-.046.484-.137.696a1.471 1.471 0 0 1-.401.545c-.171.151-.386.27-.643.355-.258.081-.55.121-.878.121Zm3.012-5.374h1.991c.348 0 .666.056.954.167a1.9 1.9 0 0 1 .734.5c.202.216.358.491.47.824.111.328.166.712.166 1.15 0 .44-.055.826-.166 1.159a2.322 2.322 0 0 1-.47.825 1.94 1.94 0 0 1-.734.492 2.632 2.632 0 0 1-.954.167h-1.991v-5.284Zm1.991 4.262c.343 0 .613-.096.81-.288.197-.192.295-.5.295-.923v-.818c0-.424-.098-.732-.295-.923-.197-.192-.467-.288-.81-.288h-.84v3.24h.84Z" fill="#333"/><rect x="20.378" y="68.379" width="217.243" height="35.576" rx="5.677" stroke="#F2F3F4" stroke-width=".757"/></g><defs><clipPath id="b"><path fill="#fff" d="M66.111 140.917h18.167v18.167H66.111z"/></clipPath><clipPath id="d"><path fill="#fff" d="M49.111 108.917h18.167v18.167H49.111z"/></clipPath><clipPath id="e"><path fill="#fff" d="M50.666 0h156.668v94.001H50.666z"/></clipPath><clipPath id="f"><rect x="50.666" width="156.668" height="94.001" rx="6.267" fill="#fff"/></clipPath><clipPath id="g"><path fill="#fff" d="M50.666 0h156.668v94.001H50.666z"/></clipPath><clipPath id="k"><rect x="172.534" y="12.533" width="22.267" height="11" rx="1.567" fill="#fff"/></clipPath><clipPath id="m"><path fill="#fff" d="M32.111 77.083h18.167V95.25H32.111z"/></clipPath><filter id="a" x="42" y="124" width="174" height="72" filterUnits="userSpaceOnUse" color-interpolation-filters="sRGB"><feFlood flood-opacity="0" result="BackgroundImageFix"/><feColorMatrix in="SourceAlpha" values="0 0 0 0 0 0 0 0 0 0 0 0 0 0 0 0 0 0 127 0" result="hardAlpha"/><feOffset dy="16"/><feGaussianBlur stdDeviation="6"/><feColorMatrix values="0 0 0 0 0 0 0 0 0 0 0 0 0 0 0 0 0 0 0.02 0"/><feBlend in2="BackgroundImageFix" result="effect1_dropShadow_39837_350511"/><feColorMatrix in="SourceAlpha" values="0 0 0 0 0 0 0 0 0 0 0 0 0 0 0 0 0 0 127 0" result="hardAlpha"/><feOffset/><feGaussianBlur stdDeviation="4"/><feColorMatrix values="0 0 0 0 0 0 0 0 0 0 0 0 0 0 0 0 0 0 0.1 0"/><feBlend in2="effect1_dropShadow_39837_350511" result="effect2_dropShadow_39837_350511"/><feBlend in="SourceGraphic" in2="effect2_dropShadow_39837_350511" result="shape"/></filter><filter id="c" x="17" y="80" width="224" height="92" filterUnits="userSpaceOnUse" color-interpolation-filters="sRGB"><feFlood flood-opacity="0" result="BackgroundImageFix"/><feColorMatrix in="SourceAlpha" values="0 0 0 0 0 0 0 0 0 0 0 0 0 0 0 0 0 0 127 0" result="hardAlpha"/><feOffset dy="16"/><feGaussianBlur stdDeviation="10"/><feColorMatrix values="0 0 0 0 0 0 0 0 0 0 0 0 0 0 0 0 0 0 0.05 0"/><feBlend in2="BackgroundImageFix" result="effect1_dropShadow_39837_350511"/><feColorMatrix in="SourceAlpha" values="0 0 0 0 0 0 0 0 0 0 0 0 0 0 0 0 0 0 127 0" result="hardAlpha"/><feOffset/><feGaussianBlur stdDeviation="10"/><feColorMatrix values="0 0 0 0 0 0 0 0 0 0 0 0 0 0 0 0 0 0 0.05 0"/><feBlend in2="effect1_dropShadow_39837_350511" result="effect2_dropShadow_39837_350511"/><feBlend in="SourceGraphic" in2="effect2_dropShadow_39837_350511" result="shape"/></filter><filter id="h" x="-93.668" y="-86.334" width="506.669" height="506.669" filterUnits="userSpaceOnUse" color-interpolation-filters="sRGB"><feFlood flood-opacity="0" result="BackgroundImageFix"/><feBlend in="SourceGraphic" in2="BackgroundImageFix" result="shape"/><feGaussianBlur stdDeviation="62.667" result="effect1_foregroundBlur_39837_350511"/></filter><filter id="i" x="67.398" y="-149.267" width="328.535" height="328.535" filterUnits="userSpaceOnUse" color-interpolation-filters="sRGB"><feFlood flood-opacity="0" result="BackgroundImageFix"/><feBlend in="SourceGraphic" in2="BackgroundImageFix" result="shape"/><feGaussianBlur stdDeviation="50.134" result="effect1_foregroundBlur_39837_350511"/></filter><filter id="j" x="-73.602" y="-124.267" width="280.535" height="280.535" filterUnits="userSpaceOnUse" color-interpolation-filters="sRGB"><feFlood flood-opacity="0" result="BackgroundImageFix"/><feBlend in="SourceGraphic" in2="BackgroundImageFix" result="shape"/><feGaussianBlur stdDeviation="50.134" result="effect1_foregroundBlur_39837_350511"/></filter><filter id="l" x="0" y="48" width="258" height="92.333" filterUnits="userSpaceOnUse" color-interpolation-filters="sRGB"><feFlood flood-opacity="0" result="BackgroundImageFix"/><feColorMatrix in="SourceAlpha" values="0 0 0 0 0 0 0 0 0 0 0 0 0 0 0 0 0 0 127 0" result="hardAlpha"/><feOffset dy="16"/><feGaussianBlur stdDeviation="10"/><feColorMatrix values="0 0 0 0 0 0 0 0 0 0 0 0 0 0 0 0 0 0 0.05 0"/><feBlend in2="BackgroundImageFix" result="effect1_dropShadow_39837_350511"/><feColorMatrix in="SourceAlpha" values="0 0 0 0 0 0 0 0 0 0 0 0 0 0 0 0 0 0 127 0" result="hardAlpha"/><feOffset/><feGaussianBlur stdDeviation="10"/><feColorMatrix values="0 0 0 0 0 0 0 0 0 0 0 0 0 0 0 0 0 0 0.05 0"/><feBlend in2="effect1_dropShadow_39837_350511" result="effect2_dropShadow_39837_350511"/><feBlend in="SourceGraphic" in2="effect2_dropShadow_39837_350511" result="shape"/></filter></defs></svg>