<svg width="170" height="189" viewBox="0 0 170 189" fill="none" xmlns="http://www.w3.org/2000/svg">
<g clip-path="url(#clip0_4_28238)">
<g filter="url(#filter0_dd_4_28238)">
<g clip-path="url(#clip1_4_28238)">
<g clip-path="url(#clip2_4_28238)">
<rect width="94.3946" height="56.6368" transform="translate(145.131 63.4102) rotate(45)" fill="white"/>
<g opacity="0.8" filter="url(#filter1_f_4_28238)">
<circle cx="135.786" cy="174.21" r="60.4126" transform="rotate(45 135.786 174.21)" fill="#F7931B"/>
</g>
<g opacity="0.8" filter="url(#filter2_f_4_28238)">
<circle cx="210.543" cy="147.511" r="30.2063" transform="rotate(45 210.543 147.511)" fill="#F7C71B"/>
</g>
<g opacity="0.8" filter="url(#filter3_f_4_28238)">
<circle cx="145.131" cy="74.0897" r="18.8789" transform="rotate(45 145.131 74.0897)" fill="#F7931B"/>
</g>
<g style="mix-blend-mode:overlay" opacity="0.16">
<path d="M217.44 130.157L168.047 94.284L124.161 122.537L166.795 165.17L217.44 130.157Z" fill="white"/>
</g>
</g>
<g clip-path="url(#clip3_4_28238)">
<path d="M153.547 94.6504C153.659 94.7622 153.748 94.873 153.814 94.9826C153.881 95.0928 153.933 95.2012 153.969 95.309L153.338 95.5603C153.308 95.4901 153.275 95.4205 153.238 95.3504C153.201 95.2804 153.144 95.207 153.067 95.1301C152.883 94.9458 152.673 94.865 152.435 94.8858C152.198 94.9072 151.97 95.0269 151.751 95.2452C151.622 95.3746 151.545 95.5064 151.519 95.6412C151.494 95.7758 151.555 95.9165 151.701 96.0627C151.774 96.135 151.851 96.1972 151.933 96.249C152.015 96.301 152.094 96.3415 152.169 96.3709L151.758 96.8648C151.66 96.8229 151.558 96.7708 151.452 96.7084C151.346 96.6448 151.235 96.5552 151.118 96.4383C150.964 96.2842 150.856 96.1306 150.795 95.9785C150.734 95.8254 150.707 95.6761 150.715 95.5292C150.723 95.3818 150.763 95.2412 150.836 95.106C150.909 94.9711 151.003 94.8461 151.117 94.7321C151.289 94.5597 151.479 94.4244 151.686 94.3268C151.892 94.2289 152.104 94.1743 152.321 94.1619C152.536 94.15 152.75 94.1834 152.961 94.2629C153.172 94.3422 153.368 94.4713 153.547 94.6502L153.547 94.6504ZM149.916 89.2233L148.703 89.974C148.775 90.0006 148.843 90.0331 148.905 90.0698C148.968 90.1069 149.028 90.1538 149.085 90.2108C149.204 90.3302 149.286 90.4553 149.329 90.585C149.373 90.7154 149.387 90.8456 149.371 90.9769C149.354 91.1075 149.31 91.2359 149.239 91.3622C149.167 91.4884 149.074 91.6085 148.96 91.7227C148.785 91.8978 148.588 92.0319 148.368 92.1242C148.149 92.217 147.927 92.2665 147.702 92.2725C147.477 92.2785 147.257 92.2402 147.04 92.1586C146.824 92.0769 146.629 91.949 146.455 91.7751C146.433 91.7528 146.394 91.7126 146.339 91.6555C146.285 91.5987 146.226 91.5285 146.165 91.4466C146.102 91.3643 146.041 91.2726 145.981 91.1715C145.92 91.0709 145.872 90.9662 145.835 90.8586L149.247 88.7371L149.916 89.2233ZM155.151 96.2545C155.28 96.3837 155.373 96.5179 155.431 96.6568C155.488 96.7952 155.512 96.9332 155.502 97.0703C155.492 97.2072 155.453 97.3417 155.385 97.4745C155.317 97.6069 155.222 97.734 155.1 97.8557C154.949 98.0075 154.773 98.1364 154.573 98.2419C154.374 98.3468 154.167 98.4139 153.953 98.444C153.74 98.4739 153.525 98.4585 153.31 98.3978C153.095 98.3373 152.896 98.2164 152.715 98.0349C152.583 97.9031 152.489 97.7684 152.433 97.6309C152.377 97.4935 152.353 97.3565 152.364 97.2194C152.374 97.0825 152.413 96.9481 152.481 96.8153C152.548 96.6824 152.644 96.5559 152.765 96.4345C152.918 96.282 153.094 96.1535 153.294 96.0497C153.495 95.9459 153.703 95.8805 153.92 95.8536C154.136 95.8257 154.351 95.8421 154.566 95.9009C154.779 95.9603 154.975 96.0783 155.151 96.2545ZM152.456 92.4867L151.724 92.9347L152.343 93.5536L151.767 93.9059L151.152 93.2908L150.288 93.8273C150.215 93.8706 150.151 93.9164 150.099 93.9645C150.045 94.0127 150.007 94.0629 149.985 94.1145C149.964 94.1662 149.962 94.2212 149.98 94.2802C149.998 94.339 150.043 94.4043 150.115 94.4766C150.175 94.5361 150.239 94.5883 150.306 94.6331C150.373 94.6774 150.445 94.7182 150.523 94.7548L150.13 95.2301C150.028 95.1833 149.923 95.1265 149.816 95.0599C149.708 94.9933 149.595 94.8998 149.476 94.7806C149.305 94.6093 149.198 94.4504 149.155 94.3038C149.112 94.1575 149.117 94.0193 149.167 93.8891C149.217 93.7598 149.303 93.6386 149.425 93.5272C149.547 93.4153 149.687 93.3098 149.846 93.2102L151.787 92.0003L152.456 92.4867ZM150.805 92.0153L148.333 93.5472L147.782 92.9954L150.249 91.4597L150.805 92.0153ZM156.944 98.1543L154.472 99.6862L153.92 99.134L156.388 97.5985L156.944 98.1543ZM158.177 99.2957C158.468 99.5867 158.582 99.8737 158.52 100.157C158.458 100.44 158.241 100.695 157.871 100.923L156.536 101.75L155.981 101.194L157.284 100.382C157.366 100.331 157.441 100.279 157.512 100.225C157.583 100.172 157.637 100.117 157.674 100.06C157.711 100.003 157.726 99.9423 157.719 99.8768C157.712 99.8114 157.672 99.7418 157.597 99.6672C157.525 99.5952 157.444 99.53 157.354 99.4705L155.444 100.657L154.888 100.102L157.25 98.6428C157.304 98.6721 157.366 98.7039 157.433 98.7386C157.501 98.7732 157.573 98.8149 157.65 98.865C157.727 98.9138 157.81 98.9732 157.897 99.0429C157.984 99.1119 158.078 99.1967 158.177 99.2957ZM148.475 90.545C148.44 90.5101 148.388 90.4719 148.32 90.4282C148.251 90.3849 148.174 90.3615 148.089 90.3571L146.801 91.1537L146.832 91.2005C146.84 91.2139 146.851 91.2277 146.861 91.2413C146.873 91.2554 146.887 91.2709 146.904 91.2885L146.971 91.3555C147.058 91.4426 147.162 91.5026 147.282 91.5366C147.402 91.571 147.527 91.5795 147.655 91.5632C147.783 91.5464 147.909 91.5091 148.033 91.4499C148.156 91.3906 148.267 91.3118 148.366 91.2128C148.488 91.0909 148.563 90.976 148.592 90.8678C148.621 90.7597 148.582 90.6519 148.475 90.5452L148.475 90.545ZM154.619 96.6821C154.537 96.6002 154.441 96.5521 154.331 96.5382C154.22 96.5245 154.108 96.5331 153.992 96.5646C153.876 96.5959 153.764 96.6446 153.655 96.7106C153.546 96.7775 153.453 96.8498 153.374 96.9285C153.247 97.0555 153.168 97.1745 153.137 97.2853C153.106 97.3958 153.142 97.5033 153.246 97.6077C153.329 97.6899 153.424 97.7378 153.535 97.7516C153.645 97.7653 153.758 97.7564 153.874 97.7254C153.99 97.6943 154.102 97.6454 154.211 97.5791C154.319 97.5127 154.414 97.44 154.492 97.3615C154.619 97.2349 154.698 97.1157 154.729 97.0047C154.76 96.894 154.724 96.7864 154.619 96.6821ZM151.599 90.9827C151.676 91.0596 151.722 91.1526 151.738 91.2615C151.753 91.3707 151.712 91.4737 151.616 91.5698C151.562 91.6232 151.502 91.6626 151.433 91.6884C151.365 91.7144 151.297 91.727 151.228 91.7266C151.159 91.7264 151.091 91.7125 151.025 91.6871C150.958 91.6615 150.9 91.6223 150.848 91.5702C150.771 91.4933 150.725 91.4 150.709 91.2911C150.694 91.182 150.734 91.0794 150.831 90.9827C150.884 90.9292 150.945 90.8903 151.013 90.8642C151.081 90.8385 151.149 90.8259 151.219 90.8263C151.288 90.8272 151.355 90.8402 151.422 90.8658C151.488 90.8914 151.547 90.9304 151.599 90.9827ZM157.738 97.1213C157.815 97.1984 157.861 97.2916 157.877 97.4005C157.892 97.5096 157.851 97.613 157.755 97.709C157.702 97.7624 157.64 97.8012 157.572 97.8274C157.505 97.8536 157.436 97.866 157.367 97.8658C157.298 97.8649 157.231 97.8517 157.164 97.8263C157.098 97.8007 157.039 97.7613 156.987 97.709C156.91 97.632 156.863 97.5388 156.848 97.4299C156.833 97.3212 156.873 97.2184 156.97 97.1217C157.023 97.0682 157.084 97.0292 157.152 97.0032C157.22 96.977 157.288 96.9649 157.358 96.9651C157.427 96.9659 157.494 96.9794 157.56 97.0045C157.627 97.0301 157.686 97.0692 157.738 97.1213Z" fill="#4D4D4D"/>
<circle cx="143.128" cy="85.4367" r="4.24776" transform="rotate(45 143.128 85.4367)" fill="#F7931B"/>
<path fill-rule="evenodd" clip-rule="evenodd" d="M144.276 83.7559L144.951 83.3468L145.191 83.7519L144.53 84.1529C144.597 84.2605 144.664 84.3682 144.727 84.4745L145.384 84.0757L145.624 84.4807L144.95 84.8907C145.215 85.4419 145.298 85.9554 144.839 86.2965C144.504 86.5469 144.203 86.5299 143.943 86.3683C144.078 86.8125 143.989 87.196 143.439 87.4658C142.756 87.7995 142.299 87.4284 141.855 86.7707L141.174 87.1842L140.933 86.7791L141.604 86.3712C141.542 86.2665 141.479 86.158 141.415 86.0453L140.741 86.4553L140.5 86.0502L141.182 85.6359C141.021 85.3628 140.861 85.09 140.699 84.8177L141.236 84.6003C141.236 84.6003 141.41 84.9025 141.412 84.8952C141.48 85.0097 141.581 84.9889 141.638 84.9644C142.254 84.5909 142.869 84.2169 143.485 83.8428C143.559 83.7769 143.624 83.6646 143.526 83.5004C143.535 83.5016 143.351 83.2063 143.351 83.2063L143.789 82.9399C143.951 83.212 144.109 83.4873 144.276 83.7559ZM142.88 85.3009C142.857 85.2642 142.837 85.2318 142.821 85.2046L141.917 85.7534C141.931 85.776 141.946 85.8027 141.963 85.8327C142.156 86.1671 142.577 86.8996 143.044 86.6153C143.523 86.3246 143.09 85.6355 142.88 85.3009ZM144.104 84.5377C144.085 84.5066 144.067 84.4791 144.054 84.4561L143.234 84.9536C143.246 84.9728 143.259 84.9958 143.274 85.0216C143.434 85.3015 143.782 85.91 144.207 85.6526C144.642 85.3879 144.281 84.8163 144.104 84.5377Z" fill="white"/>
</g>
<path d="M121.579 98.5105L122.92 99.8514C123.191 100.122 123.327 100.411 123.327 100.716C123.33 101.024 123.204 101.306 122.948 101.561C122.827 101.683 122.707 101.769 122.589 101.818C122.47 101.868 122.356 101.895 122.247 101.898C122.142 101.898 122.043 101.881 121.953 101.846C121.866 101.809 121.791 101.769 121.729 101.725L121.701 101.753C121.757 101.815 121.807 101.896 121.85 101.996C121.897 102.099 121.922 102.214 121.925 102.342C121.931 102.466 121.908 102.599 121.855 102.739C121.808 102.879 121.718 103.016 121.584 103.15C121.45 103.284 121.304 103.387 121.145 103.458C120.989 103.533 120.832 103.575 120.673 103.585C120.514 103.594 120.358 103.572 120.206 103.519C120.056 103.463 119.921 103.374 119.799 103.253L118.318 101.772L121.579 98.5105ZM119.056 101.818L120.023 102.786C120.192 102.954 120.366 103.044 120.547 103.057C120.73 103.066 120.905 102.988 121.07 102.823L121.229 102.664C121.394 102.499 121.47 102.326 121.458 102.146C121.448 101.962 121.36 101.786 121.191 101.618L120.224 100.65L119.056 101.818ZM120.561 100.314L121.462 101.216C121.618 101.371 121.779 101.454 121.944 101.463C122.109 101.473 122.265 101.404 122.411 101.258L122.57 101.099C122.716 100.953 122.785 100.797 122.775 100.632C122.766 100.467 122.684 100.306 122.528 100.15L121.626 99.2487L120.561 100.314ZM124.496 101.997C124.415 101.917 124.375 101.839 124.375 101.764C124.381 101.689 124.415 101.621 124.478 101.558L124.538 101.498C124.601 101.435 124.668 101.403 124.739 101.399C124.817 101.396 124.897 101.435 124.978 101.516C125.059 101.597 125.096 101.675 125.09 101.75C125.09 101.825 125.059 101.893 124.996 101.955L124.935 102.016C124.873 102.078 124.803 102.111 124.725 102.114C124.654 102.117 124.577 102.078 124.496 101.997ZM123.744 102.376L124.118 102.75L121.707 105.161L121.333 104.787L123.744 102.376ZM123.034 106.488C122.903 106.357 122.839 106.221 122.842 106.081C122.852 105.941 122.916 105.812 123.034 105.693L124.721 104.007L124.323 103.609L124.65 103.282L124.875 103.507C124.956 103.588 125.026 103.627 125.085 103.623C125.15 103.62 125.224 103.578 125.305 103.497L125.753 103.049L126.09 103.385L125.421 104.053L125.949 104.581L125.622 104.908L125.094 104.38L123.338 106.137L123.828 106.628L123.501 106.955L123.034 106.488ZM124.962 108.528C124.794 108.36 124.672 108.179 124.598 107.986C124.523 107.793 124.493 107.595 124.509 107.392C124.528 107.193 124.59 106.991 124.696 106.785C124.805 106.583 124.956 106.385 125.149 106.192C125.342 105.999 125.54 105.848 125.742 105.739C125.948 105.633 126.15 105.57 126.35 105.552C126.552 105.536 126.75 105.566 126.943 105.64C127.136 105.715 127.317 105.837 127.485 106.005C127.725 106.245 127.864 106.489 127.901 106.738C127.945 106.988 127.918 107.232 127.821 107.472L127.35 107.318C127.431 107.15 127.455 106.981 127.424 106.813C127.393 106.645 127.303 106.486 127.153 106.337C127.041 106.224 126.924 106.145 126.803 106.098C126.685 106.048 126.565 106.028 126.443 106.038C126.325 106.044 126.206 106.078 126.088 106.14C125.973 106.2 125.862 106.282 125.756 106.388L125.345 106.799C125.133 107.011 125.015 107.241 124.99 107.491C124.971 107.74 125.073 107.975 125.294 108.196C125.596 108.498 125.954 108.576 126.368 108.43L126.457 108.883C126.205 108.98 125.949 109.001 125.691 108.948C125.435 108.899 125.193 108.758 124.962 108.528ZM127.299 110.864C127.137 110.702 127.018 110.525 126.943 110.332C126.869 110.139 126.838 109.939 126.85 109.734C126.869 109.528 126.928 109.322 127.028 109.117C127.13 108.908 127.278 108.707 127.471 108.514C127.661 108.324 127.861 108.178 128.069 108.075C128.278 107.972 128.484 107.913 128.686 107.897C128.895 107.882 129.096 107.911 129.289 107.986C129.482 108.061 129.66 108.179 129.822 108.341C129.984 108.503 130.1 108.679 130.172 108.869C130.247 109.062 130.276 109.263 130.261 109.472C130.248 109.678 130.191 109.885 130.088 110.093C129.985 110.302 129.839 110.501 129.649 110.691C129.456 110.885 129.255 111.033 129.046 111.135C128.84 111.235 128.633 111.293 128.425 111.308C128.219 111.321 128.02 111.29 127.826 111.215C127.636 111.143 127.46 111.026 127.299 110.864ZM127.63 110.533C127.833 110.735 128.06 110.838 128.312 110.841C128.565 110.844 128.819 110.718 129.074 110.463L129.42 110.117C129.675 109.861 129.801 109.607 129.798 109.355C129.795 109.103 129.692 108.875 129.49 108.673C129.287 108.471 129.06 108.368 128.808 108.365C128.555 108.362 128.301 108.488 128.046 108.743L127.7 109.089C127.445 109.344 127.319 109.598 127.322 109.85C127.325 110.103 127.428 110.33 127.63 110.533ZM132.221 109.722C132.14 109.641 132.1 109.563 132.1 109.489C132.106 109.414 132.14 109.345 132.202 109.283L132.263 109.222C132.325 109.16 132.392 109.127 132.464 109.124C132.542 109.121 132.621 109.16 132.702 109.241C132.783 109.322 132.821 109.4 132.814 109.475C132.814 109.549 132.783 109.618 132.721 109.68L132.66 109.741C132.598 109.803 132.528 109.836 132.45 109.839C132.378 109.842 132.302 109.803 132.221 109.722ZM131.469 110.101L131.843 110.475L129.432 112.885L129.058 112.512L131.469 110.101ZM130.226 113.68L132.637 111.269L133.011 111.643L132.618 112.035L132.637 112.054C132.833 111.976 133.025 111.949 133.212 111.974C133.402 112.002 133.587 112.107 133.768 112.287C134.017 112.537 134.132 112.814 134.113 113.119C134.101 113.424 133.948 113.723 133.655 114.016L132.109 115.563L131.735 115.189L133.216 113.708C133.649 113.275 133.684 112.876 133.319 112.512C133.244 112.437 133.162 112.373 133.071 112.32C132.984 112.27 132.894 112.236 132.8 112.217C132.707 112.199 132.614 112.202 132.52 112.227C132.433 112.252 132.35 112.303 132.272 112.381L130.6 114.054L130.226 113.68ZM137.284 114.216L138.625 115.557C138.896 115.828 139.032 116.116 139.032 116.421C139.035 116.729 138.909 117.011 138.653 117.267C138.532 117.388 138.412 117.474 138.294 117.524C138.175 117.573 138.062 117.6 137.953 117.603C137.847 117.603 137.749 117.586 137.658 117.552C137.571 117.514 137.496 117.474 137.434 117.43L137.406 117.458C137.462 117.52 137.512 117.601 137.555 117.701C137.602 117.804 137.627 117.919 137.63 118.047C137.636 118.171 137.613 118.304 137.56 118.444C137.513 118.584 137.423 118.721 137.289 118.855C137.155 118.989 137.009 119.092 136.85 119.164C136.694 119.238 136.537 119.28 136.378 119.29C136.219 119.299 136.063 119.277 135.911 119.224C135.761 119.168 135.626 119.079 135.504 118.958L134.023 117.477L137.284 114.216ZM134.761 117.524L135.729 118.491C135.897 118.659 136.071 118.749 136.252 118.762C136.436 118.771 136.61 118.693 136.775 118.528L136.934 118.369C137.099 118.204 137.175 118.031 137.163 117.851C137.154 117.667 137.065 117.491 136.897 117.323L135.929 116.355L134.761 117.524ZM136.266 116.019L137.168 116.921C137.323 117.077 137.484 117.159 137.649 117.168C137.814 117.178 137.97 117.109 138.116 116.963L138.275 116.804C138.421 116.658 138.49 116.502 138.481 116.337C138.471 116.172 138.389 116.011 138.233 115.856L137.331 114.954L136.266 116.019ZM140.971 118.593L138.055 121.509L137.663 121.116L140.578 118.201L139.541 117.163L139.887 116.818L142.354 119.285L142.008 119.63L140.971 118.593ZM140.633 124.199C140.219 123.784 140.036 123.322 140.086 122.811C140.139 122.297 140.44 121.766 140.988 121.218C141.536 120.67 142.072 120.364 142.595 120.302C143.122 120.237 143.592 120.411 144.006 120.825C144.28 121.099 144.447 121.391 144.506 121.699C144.569 122.011 144.537 122.331 144.413 122.662L143.903 122.535C144.006 122.302 144.041 122.068 144.006 121.835C143.975 121.598 143.858 121.378 143.656 121.176C143.516 121.036 143.363 120.936 143.198 120.877C143.036 120.821 142.866 120.804 142.689 120.825C142.517 120.847 142.343 120.906 142.165 121.003C141.991 121.096 141.82 121.227 141.651 121.395L141.166 121.881C140.829 122.218 140.644 122.559 140.61 122.904C140.575 123.25 140.7 123.565 140.983 123.848C141.192 124.057 141.419 124.178 141.665 124.213C141.915 124.244 142.161 124.203 142.404 124.091L142.52 124.601C142.187 124.728 141.857 124.763 141.53 124.703C141.206 124.641 140.907 124.473 140.633 124.199ZM145.667 124.299L146.031 124.663L145.246 125.962L144.447 127.275L144.457 127.284L145.807 126.523L147.153 125.785L147.484 126.116L146.756 127.471L145.999 128.826L146.008 128.836L147.312 128.027L148.615 127.247L148.966 127.597L145.915 129.368L145.452 128.906L146.274 127.411L146.798 126.467L146.788 126.457L145.849 126.985L144.354 127.808L143.901 127.354L145.667 124.299ZM148.806 132.259C148.666 132.119 148.602 131.981 148.614 131.844C148.63 131.71 148.686 131.579 148.782 131.451L148.759 131.428C148.557 131.524 148.357 131.549 148.161 131.502C147.965 131.456 147.782 131.348 147.614 131.18C147.359 130.925 147.225 130.66 147.212 130.386C147.203 130.115 147.311 129.867 147.535 129.643C147.762 129.416 148.019 129.324 148.306 129.367C148.595 129.414 148.916 129.613 149.268 129.965L149.745 130.442L149.983 130.204C150.154 130.032 150.239 129.855 150.235 129.671C150.232 129.487 150.134 129.299 149.941 129.106C149.795 128.959 149.639 128.869 149.474 128.835C149.312 128.803 149.144 128.81 148.969 128.853L148.955 128.419C149.151 128.353 149.366 128.347 149.6 128.4C149.837 128.45 150.064 128.584 150.282 128.802C150.575 129.095 150.731 129.394 150.749 129.699C150.768 130.004 150.65 130.285 150.394 130.54L149.067 131.867L149.343 132.143L149.016 132.47L148.806 132.259ZM147.993 130.923C148.086 131.017 148.183 131.091 148.282 131.147C148.382 131.203 148.48 131.239 148.577 131.255C148.673 131.27 148.764 131.267 148.848 131.246C148.932 131.224 149.005 131.182 149.067 131.119L149.465 130.722L148.969 130.227C148.754 130.012 148.566 129.886 148.404 129.849C148.245 129.814 148.106 129.856 147.988 129.975L147.89 130.073C147.772 130.191 147.722 130.325 147.74 130.475C147.762 130.627 147.846 130.777 147.993 130.923ZM149.947 133.4C149.816 133.269 149.752 133.134 149.755 132.994C149.764 132.854 149.825 132.727 149.937 132.615L153.007 129.546L153.381 129.919L150.25 133.05L150.605 133.405L150.278 133.732L149.947 133.4ZM151.197 134.65C151.066 134.52 151.002 134.384 151.005 134.244C151.015 134.104 151.075 133.978 151.187 133.866L154.257 130.796L154.631 131.17L151.5 134.3L151.856 134.655L151.529 134.982L151.197 134.65ZM152.923 136.489C152.758 136.324 152.638 136.145 152.563 135.952C152.492 135.762 152.462 135.564 152.474 135.358C152.493 135.153 152.552 134.947 152.652 134.741C152.758 134.536 152.907 134.336 153.101 134.143C153.291 133.953 153.488 133.805 153.694 133.699C153.903 133.597 154.108 133.538 154.311 133.522C154.519 133.506 154.719 133.534 154.909 133.606C155.102 133.681 155.281 133.801 155.446 133.966C155.608 134.128 155.723 134.302 155.792 134.489C155.86 134.676 155.887 134.868 155.871 135.064C155.859 135.257 155.804 135.448 155.708 135.638C155.614 135.832 155.482 136.014 155.311 136.185L155.133 136.363L153.4 134.629L153.287 134.741C153.185 134.844 153.104 134.956 153.045 135.078C152.992 135.199 152.962 135.322 152.956 135.447C152.953 135.575 152.976 135.701 153.026 135.825C153.079 135.953 153.161 136.073 153.273 136.185C153.426 136.338 153.594 136.434 153.778 136.475C153.965 136.518 154.157 136.504 154.353 136.433L154.428 136.891C154.185 136.978 153.929 136.99 153.661 136.928C153.396 136.863 153.15 136.716 152.923 136.489ZM155.133 134.279C155.03 134.176 154.918 134.101 154.797 134.055C154.678 134.005 154.555 133.981 154.428 133.985C154.303 133.991 154.178 134.022 154.054 134.078C153.932 134.131 153.819 134.21 153.713 134.316L153.68 134.349L155.012 135.681L155.063 135.629C155.278 135.414 155.39 135.184 155.399 134.938C155.415 134.692 155.326 134.472 155.133 134.279ZM155.17 138.623C155.039 138.492 154.975 138.357 154.978 138.217C154.987 138.077 155.051 137.947 155.17 137.829L156.856 136.142L156.459 135.745L156.786 135.418L157.01 135.642C157.091 135.723 157.162 135.762 157.221 135.759C157.286 135.756 157.359 135.714 157.44 135.633L157.889 135.184L158.225 135.521L157.557 136.189L158.085 136.717L157.758 137.044L157.23 136.516L155.473 138.273L155.964 138.763L155.637 139.091L155.17 138.623Z" fill="#333333"/>
</g>
</g>
<g filter="url(#filter4_dd_4_28238)">
<g clip-path="url(#clip4_4_28238)">
<g clip-path="url(#clip5_4_28238)">
<rect width="94.3946" height="56.6368" transform="translate(72.8438 -8.10938) rotate(45)" fill="white"/>
<g opacity="0.8" filter="url(#filter5_f_4_28238)">
<circle cx="63.4991" cy="102.691" r="60.4126" transform="rotate(45 63.4991 102.691)" fill="#F44336"/>
</g>
<g opacity="0.8" filter="url(#filter6_f_4_28238)">
<circle cx="138.256" cy="75.9918" r="30.2063" transform="rotate(45 138.256 75.9918)" fill="#283991"/>
</g>
<g opacity="0.8" filter="url(#filter7_f_4_28238)">
<circle cx="72.8437" cy="2.57018" r="18.8789" transform="rotate(45 72.8437 2.57018)" fill="#F44336"/>
</g>
<g style="mix-blend-mode:overlay" opacity="0.16">
<path d="M145.153 58.6376L95.7597 22.7644L51.8743 51.0176L94.5076 93.6509L145.153 58.6376Z" fill="white"/>
</g>
</g>
<rect x="72.8438" y="2.57007" width="15.1031" height="15.1031" rx="7.55157" transform="rotate(45 72.8438 2.57007)" fill="white"/>
<path fill-rule="evenodd" clip-rule="evenodd" d="M77.9577 7.68396C76.87 6.71482 75.57 6.11546 74.2198 5.88393L80.3819 12.046C80.1503 10.6957 79.5509 9.39573 78.5817 8.30805L78.4174 8.14375L77.9577 7.68396ZM72.207 5.80842C71.6646 5.86113 71.1275 5.97393 70.6048 6.14391L77.0256 12.5649L80.1218 15.6611C80.2917 15.1383 80.4047 14.6014 80.4572 14.0588L78.0859 11.6873L72.207 5.80842ZM68.012 7.44582C68.3738 7.14227 68.7575 6.87871 69.1576 6.65409L79.4319 16.9284C79.2073 17.3284 78.9437 17.7121 78.6402 18.0741L68.012 7.44582ZM67.0449 8.4169C66.7429 8.78068 66.4816 9.16657 66.2589 9.56822L76.5178 19.8271C76.9195 19.6045 77.3054 19.343 77.6691 19.0411L67.0449 8.4169ZM65.3481 12.5329C65.3974 11.9878 65.5072 11.4477 65.6748 10.922L72.4096 17.6567L75.1641 20.4113C74.6384 20.5789 74.0982 20.6887 73.5531 20.738L70.9553 18.1402L65.3481 12.5329ZM67.2929 18.3415L67.3085 18.3582L67.3241 18.375C67.386 18.4415 67.4488 18.5075 67.5136 18.5723C68.6449 19.7035 70.0516 20.3933 71.5242 20.6472L69.8095 18.9324L65.4388 14.5618C65.6756 15.9358 66.2924 17.2525 67.2929 18.3415Z" fill="#F44336"/>
<path d="M78.0668 7.79878C75.2767 5.11993 70.9367 5.00249 68.0113 7.44822L73.2144 12.6514L78.0669 7.79887L78.0668 7.79878Z" fill="#283991"/>
<path d="M70.8946 6.65497L70.7261 6.98605L70.9895 7.24944L70.622 7.19082L70.4534 7.52217L70.3949 7.15464L70.0275 7.09628L70.3587 6.92753L70.3001 6.56007L70.5635 6.82345L70.8946 6.65497Z" fill="#EFEFEF"/>
<path d="M70.0121 7.53746L69.8435 7.8687L70.1069 8.13208L69.7393 8.07347L69.5707 8.40482L69.5123 8.03729L69.1448 7.97892L69.476 7.81018L69.4175 7.44271L69.6809 7.7061L70.0121 7.53746Z" fill="#EFEFEF"/>
<path d="M73.1032 6.21541L72.9346 6.5466L73.1979 6.8099L72.8303 6.75144L72.6619 7.08254L72.6033 6.71526L72.2359 6.65662L72.5671 6.48815L72.5085 6.1205L72.7719 6.38389L73.1032 6.21541Z" fill="#EFEFEF"/>
<path d="M72.2205 7.09806L72.052 7.42925L72.3153 7.69254L71.9479 7.63391L71.7792 7.96519L71.7207 7.59791L71.3533 7.53927L71.6846 7.37062L71.6259 7.00315L71.8892 7.26653L72.2205 7.09806Z" fill="#EFEFEF"/>
<path d="M71.3379 7.98071L71.1692 8.31199L71.4325 8.57528L71.0652 8.51656L70.8966 8.84784L70.8382 8.4804L70.4707 8.42192L70.8019 8.25326L70.7431 7.88589L71.0065 8.14927L71.3379 7.98071Z" fill="#EFEFEF"/>
<path d="M69.1276 7.0789L69.2962 6.74755L69.6636 6.80618L69.4004 6.54296L69.4127 6.51882C69.2946 6.57913 69.1782 6.64331 69.0628 6.71053L69.0693 6.71148L69.1276 7.0789Z" fill="#EFEFEF"/>
<path d="M70.9101 6.21362L71.2776 6.27201L71.336 6.63954L71.5046 6.30819L71.8722 6.36667L71.6088 6.10329L71.7773 5.77219L71.4462 5.94066L71.3491 5.8436C71.3038 5.85282 71.259 5.86279 71.2138 5.87292L71.2413 6.0449L70.9101 6.21362Z" fill="#EFEFEF"/>
<path d="M73.486 5.83262L73.5445 6.1999L73.713 5.8688L74.0804 5.92719L73.9284 5.77511C73.7028 5.7423 73.4762 5.71967 73.2489 5.70755L73.1184 5.7738L73.486 5.83262Z" fill="#EFEFEF"/>
<path d="M74.4443 6.21726L74.8119 6.27574L74.8703 6.64318L75.0389 6.3119L75.4062 6.37044L75.1429 6.10715L75.1655 6.06248C75.0308 6.01874 74.8952 5.97777 74.7585 5.94184L74.7756 6.04849L74.4443 6.21726Z" fill="#EFEFEF"/>
<path d="M74.4289 6.65869L74.2605 6.98972L74.5238 7.25301L74.1563 7.19454L73.9876 7.52582L73.9292 7.15835L73.5617 7.0999L73.893 6.93124L73.8344 6.56364L74.0978 6.827L74.4289 6.65869Z" fill="#EFEFEF"/>
<path d="M73.5463 7.54133L73.3779 7.87237L73.6411 8.13566L73.2736 8.07718L73.105 8.40846L73.0466 8.041L72.679 7.98255L73.0103 7.81389L72.9518 7.44629L73.2151 7.70965L73.5463 7.54133Z" fill="#EFEFEF"/>
<path d="M72.6636 8.42398L72.4951 8.75508L72.7584 9.01837L72.391 8.95983L72.2223 9.29111L72.164 8.92365L71.7964 8.86519L72.1277 8.69654L72.0691 8.329L72.3324 8.59236L72.6636 8.42398Z" fill="#EFEFEF"/>
<path d="M71.7811 9.30647L71.6125 9.63773L71.8758 9.90102L71.5083 9.84248L71.3397 10.1738L71.2813 9.80629L70.9137 9.74784L71.245 9.57918L71.1864 9.21165L71.4498 9.47501L71.7811 9.30647Z" fill="#EFEFEF"/>
<path d="M75.7548 7.10178L75.5863 7.43298L75.8496 7.69627L75.4821 7.6379L75.3135 7.96892L75.255 7.60163L74.8875 7.54293L75.2187 7.37452L75.1602 7.0069L75.4236 7.27026L75.7548 7.10178Z" fill="#EFEFEF"/>
<path d="M74.8722 7.98443L74.7036 8.31562L74.9669 8.57891L74.5995 8.52055L74.4309 8.85156L74.3723 8.48428L74.0049 8.42557L74.3361 8.25716L74.2775 7.88954L74.5409 8.1529L74.8722 7.98443Z" fill="#EFEFEF"/>
<path d="M73.9895 8.86708L73.821 9.19827L74.0843 9.46156L73.717 9.40302L73.5482 9.73421L73.4897 9.36692L73.1222 9.30822L73.4536 9.13963L73.3949 8.77219L73.6583 9.03555L73.9895 8.86708Z" fill="#EFEFEF"/>
<path d="M73.1069 9.74972L72.9382 10.081L73.2015 10.3443L72.8343 10.2857L72.6656 10.6169L72.6072 10.2494L72.2396 10.1909L72.571 10.0223L72.5122 9.65493L72.7755 9.91829L73.1069 9.74972Z" fill="#EFEFEF"/>
<path d="M77.0806 7.54506L76.912 7.87625L77.1753 8.13954L76.8079 8.08091L76.6393 8.41219L76.5809 8.04472L76.2133 7.9862L76.5446 7.81761L76.4859 7.45017L76.7492 7.71346L77.0806 7.54506Z" fill="#EFEFEF"/>
<path d="M76.1979 8.4277L76.0295 8.75874L76.2928 9.02203L75.9253 8.96355L75.7566 9.29484L75.6983 8.92737L75.3306 8.86885L75.662 8.70026L75.6034 8.33266L75.8667 8.59595L76.1979 8.4277Z" fill="#EFEFEF"/>
<path d="M75.3153 9.31035L75.1469 9.64139L75.4102 9.90468L75.0426 9.8462L74.874 10.1775L74.8156 9.81002L74.448 9.7515L74.7793 9.58291L74.7208 9.21531L74.9841 9.4786L75.3153 9.31035Z" fill="#EFEFEF"/>
<path d="M74.4326 10.193L74.2642 10.5241L74.5275 10.7874L74.16 10.7288L73.9913 11.0601L73.933 10.6927L73.5653 10.6341L73.8967 10.4656L73.8381 10.098L74.1014 10.3613L74.4326 10.193Z" fill="#EFEFEF"/>
<path d="M73.5501 11.0755L73.3815 11.4067L73.6448 11.67L73.2773 11.6115L73.1087 11.9428L73.0503 11.5753L72.6827 11.5168L73.014 11.3482L72.9554 10.9807L73.2187 11.244L73.5501 11.0755Z" fill="#EFEFEF"/>
<path d="M49.6613 27.36L47.6429 29.3785C47.3314 29.69 47.1523 29.9843 47.1055 30.2615C47.0619 30.5356 47.185 30.8175 47.4747 31.1072C47.7643 31.3969 48.0462 31.5199 48.3203 31.4763C48.5976 31.4296 48.8919 31.2505 49.2034 30.939L51.2218 28.9206L51.6143 29.3131L49.6893 31.238C49.4526 31.4748 49.2252 31.6586 49.0072 31.7894C48.7922 31.9233 48.5804 32.0012 48.3717 32.023C48.163 32.0448 47.9543 32.0074 47.7457 31.9109C47.5401 31.8174 47.3283 31.6617 47.1102 31.4436C46.8922 31.2256 46.7364 31.0138 46.643 30.8082C46.5527 30.6057 46.52 30.4017 46.5449 30.1961C46.5698 29.9905 46.6492 29.7803 46.7832 29.5654C46.9202 29.3536 47.1071 29.1293 47.3438 28.8926L49.2688 26.9676L49.6613 27.36ZM50.0572 34.3906C49.7924 34.1258 49.6164 33.8502 49.5292 33.5636C49.4451 33.2739 49.4264 32.9749 49.4732 32.6665L50.0058 32.7132C49.9684 32.9811 49.9793 33.2256 50.0385 33.4468C50.1008 33.6648 50.227 33.8689 50.417 34.0589C50.6506 34.2925 50.8842 34.414 51.1178 34.4233C51.3545 34.4358 51.5663 34.3486 51.7532 34.1617C51.909 34.0059 51.9822 33.8393 51.9728 33.6617C51.9635 33.4842 51.8763 33.263 51.7112 32.9983L51.5056 32.6712C51.2751 32.3036 51.149 31.9719 51.1272 31.676C51.1116 31.3801 51.2299 31.106 51.4822 30.8537C51.6255 30.7104 51.7797 30.6092 51.9448 30.55C52.1099 30.4908 52.2765 30.4705 52.4447 30.4892C52.6161 30.511 52.7858 30.5687 52.954 30.6621C53.1285 30.7556 53.2951 30.8817 53.454 31.0406C53.7 31.2866 53.8651 31.5421 53.9492 31.8068C54.0364 32.0747 54.0536 32.3566 54.0006 32.6525L53.4913 32.5731C53.5256 32.3582 53.5147 32.151 53.4586 31.9517C53.4026 31.7523 53.2795 31.5576 53.0895 31.3676C52.8808 31.1589 52.6706 31.039 52.4588 31.0079C52.2532 30.9767 52.0616 31.0499 51.8841 31.2275C51.7283 31.3832 51.6598 31.5514 51.6785 31.7321C51.7034 31.9127 51.7953 32.1292 51.9541 32.3815L52.1597 32.7086C52.4089 33.1011 52.532 33.4421 52.5288 33.7318C52.5257 34.0215 52.4027 34.2878 52.1597 34.5308C52.0102 34.6803 51.8482 34.7893 51.6738 34.8578C51.5025 34.9295 51.3265 34.9591 51.1458 34.9466C50.9652 34.9341 50.7814 34.8812 50.5945 34.7877C50.4107 34.6974 50.2316 34.565 50.0572 34.3906ZM55.1736 32.8724L56.2669 33.9657C56.4694 34.1681 56.6189 34.3862 56.7155 34.6198C56.812 34.8534 56.8494 35.0964 56.8276 35.3487C56.812 35.601 56.7326 35.8611 56.5893 36.129C56.4492 36.3937 56.2436 36.6616 55.9726 36.9326C55.7016 37.2036 55.4321 37.4107 55.1643 37.554C54.8995 37.6942 54.6394 37.7736 54.384 37.7923C54.1348 37.811 53.8934 37.772 53.6598 37.6755C53.4262 37.5789 53.2081 37.4294 53.0057 37.2269L51.9124 36.1336L55.1736 32.8724ZM53.3514 36.8812C53.4854 37.0151 53.6302 37.1164 53.7859 37.1849C53.9448 37.2503 54.1083 37.2799 54.2765 37.2737C54.4447 37.2674 54.6129 37.2238 54.7811 37.1428C54.9556 37.0619 55.1238 36.9404 55.2858 36.7784L55.8184 36.2458C55.9804 36.0838 56.1003 35.9171 56.1782 35.7458C56.2623 35.5745 56.3074 35.4047 56.3137 35.2365C56.3199 35.0683 56.2887 34.9064 56.2202 34.7506C56.1548 34.5918 56.0551 34.4454 55.9212 34.3114L55.2203 33.6106L52.6506 36.1803L53.3514 36.8812ZM58.2724 37.6719L58.6368 38.0363L57.8519 39.3352L57.0529 40.6481L57.0623 40.6575L58.4126 39.8959L59.7582 39.1577L60.0899 39.4894L59.3611 40.8444L58.6041 42.1993L58.6135 42.2087L59.9171 41.4004L61.2206 40.6201L61.571 40.9705L58.52 42.7413L58.0575 42.2788L58.8798 40.7836L59.4031 39.8398L59.3938 39.8305L58.4546 40.3584L56.9595 41.1808L56.5063 40.7276L58.2724 37.6719ZM61.4112 45.6325C61.271 45.4923 61.2072 45.3537 61.2196 45.2166C61.2352 45.0827 61.2913 44.9519 61.3878 44.8242L61.3645 44.8008C61.162 44.8974 60.9627 44.9223 60.7664 44.8756C60.5702 44.8288 60.388 44.7214 60.2198 44.5532C59.9643 44.2978 59.8304 44.033 59.818 43.7589C59.8086 43.4879 59.9161 43.2403 60.1403 43.016C60.3677 42.7886 60.6247 42.6967 60.9113 42.7403C61.201 42.7871 61.5218 42.9864 61.8738 43.3384L62.3503 43.815L62.5886 43.5767C62.7599 43.4054 62.844 43.2278 62.8409 43.044C62.8378 42.8603 62.7397 42.6718 62.5466 42.4787C62.4002 42.3323 62.2444 42.242 62.0793 42.2077C61.9174 42.1765 61.7492 42.1828 61.5747 42.2264L61.5607 41.7919C61.757 41.7264 61.9719 41.7202 62.2055 41.7732C62.4422 41.823 62.6696 41.9569 62.8876 42.175C63.1804 42.4678 63.3362 42.7668 63.3549 43.0721C63.3736 43.3773 63.2552 43.6577 62.9998 43.9131L61.6729 45.24L61.9485 45.5157L61.6215 45.8427L61.4112 45.6325ZM60.5982 44.2962C60.6917 44.3896 60.7882 44.4644 60.8879 44.5205C60.9876 44.5765 61.0857 44.6124 61.1823 44.6279C61.2788 44.6435 61.3692 44.6404 61.4533 44.6186C61.5374 44.5968 61.6106 44.5547 61.6729 44.4924L62.07 44.0953L61.5747 43.6C61.3598 43.3851 61.1714 43.259 61.0094 43.2216C60.8505 43.1873 60.7119 43.2294 60.5936 43.3477L60.4954 43.4458C60.3771 43.5642 60.3272 43.6981 60.3459 43.8477C60.3677 44.0003 60.4518 44.1498 60.5982 44.2962ZM62.5521 46.7734C62.4213 46.6425 62.3574 46.507 62.3605 46.3669C62.3699 46.2267 62.4306 46.1005 62.5427 45.9884L65.6124 42.9187L65.9862 43.2925L62.8558 46.4229L63.2109 46.778L62.8838 47.1051L62.5521 46.7734ZM63.8023 48.0236C63.6715 47.8927 63.6076 47.7572 63.6107 47.6171C63.6201 47.4769 63.6808 47.3508 63.7929 47.2386L66.8626 44.1689L67.2364 44.5427L64.106 47.6731L64.4611 48.0282L64.134 48.3553L63.8023 48.0236ZM65.5285 49.8619C65.3634 49.6968 65.2435 49.5177 65.1688 49.3246C65.0971 49.1346 65.0675 48.9368 65.08 48.7312C65.0987 48.5257 65.1578 48.3201 65.2575 48.1145C65.3634 47.9089 65.5129 47.7096 65.7061 47.5164C65.8961 47.3264 66.0939 47.1785 66.2994 47.0726C66.5081 46.9698 66.7137 46.9106 66.9162 46.895C67.1249 46.8794 67.3242 46.9075 67.5142 46.9791C67.7074 47.0539 67.8865 47.1738 68.0516 47.3389C68.2135 47.5009 68.3288 47.6753 68.3973 47.8622C68.4658 48.0491 68.4923 48.2406 68.4767 48.4369C68.4643 48.63 68.4098 48.8216 68.3132 49.0116C68.2198 49.2047 68.0874 49.3869 67.9161 49.5582L67.7385 49.7358L66.0051 48.0024L65.893 48.1145C65.7902 48.2173 65.7092 48.3294 65.65 48.4509C65.597 48.5724 65.5675 48.6954 65.5612 48.82C65.5581 48.9477 65.5815 49.0739 65.6313 49.1985C65.6843 49.3262 65.7668 49.4461 65.8789 49.5582C66.0316 49.7109 66.1998 49.8074 66.3835 49.8479C66.5704 49.8915 66.762 49.8775 66.9582 49.8059L67.033 50.2638C66.79 50.351 66.5346 50.3634 66.2667 50.3011C66.002 50.2357 65.7559 50.0893 65.5285 49.8619ZM67.7385 47.6519C67.6357 47.5491 67.5236 47.4744 67.4021 47.4277C67.2837 47.3778 67.1607 47.3545 67.033 47.3576C66.9084 47.3638 66.7838 47.395 66.6592 47.451C66.5377 47.504 66.424 47.5834 66.3181 47.6893L66.2854 47.722L67.617 49.0536L67.6684 49.0022C67.8834 48.7873 67.9955 48.5568 68.0048 48.3107C68.0204 48.0647 67.9316 47.8451 67.7385 47.6519ZM67.7751 51.9964C67.6443 51.8655 67.5804 51.73 67.5835 51.5899C67.5929 51.4497 67.6567 51.3204 67.7751 51.2021L69.4618 49.5154L69.0646 49.1182L69.3917 48.7912L69.616 49.0154C69.697 49.0964 69.767 49.1354 69.8262 49.1323C69.8916 49.1291 69.9648 49.0871 70.0458 49.0061L70.4944 48.5576L70.8308 48.894L70.1626 49.5621L70.6906 50.0901L70.3635 50.4171L69.8356 49.8892L68.0788 51.6459L68.5694 52.1365L68.2423 52.4636L67.7751 51.9964Z" fill="#333333"/>
</g>
</g>
<g filter="url(#filter8_dd_4_28238)">
<g clip-path="url(#clip6_4_28238)">
<g clip-path="url(#clip7_4_28238)">
<rect width="94.3946" height="56.6368" transform="translate(-0.15625 -82.1094) rotate(45)" fill="white"/>
<g opacity="0.8" filter="url(#filter9_f_4_28238)">
<circle cx="-9.50087" cy="28.6907" r="60.4126" transform="rotate(45 -9.50087 28.6907)" fill="#009393"/>
</g>
<g opacity="0.8" filter="url(#filter10_f_4_28238)">
<circle cx="65.2559" cy="1.99182" r="30.2063" transform="rotate(45 65.2559 1.99182)" fill="#04D9D9"/>
</g>
<g opacity="0.8" filter="url(#filter11_f_4_28238)">
<circle cx="-0.156255" cy="-71.4298" r="18.8789" transform="rotate(45 -0.156255 -71.4298)" fill="#009393"/>
</g>
<g style="mix-blend-mode:overlay" opacity="0.16">
<path d="M72.1531 -15.3624L22.7597 -51.2356L-21.1257 -22.9824L21.5076 19.6509L72.1531 -15.3624Z" fill="white"/>
</g>
</g>
</g>
</g>
<g filter="url(#filter12_dd_4_28238)">
<g clip-path="url(#clip8_4_28238)">
<g clip-path="url(#clip9_4_28238)">
<rect width="94.3946" height="56.6368" transform="translate(190.293 18.5) rotate(45)" fill="white"/>
<g opacity="0.8" filter="url(#filter13_f_4_28238)">
<circle cx="180.948" cy="129.3" r="60.4126" transform="rotate(45 180.948 129.3)" fill="#52567F"/>
</g>
<g opacity="0.8" filter="url(#filter14_f_4_28238)">
<circle cx="255.705" cy="102.601" r="30.2063" transform="rotate(45 255.705 102.601)" fill="#828CAD"/>
</g>
<g opacity="0.8" filter="url(#filter15_f_4_28238)">
<circle cx="190.293" cy="29.1796" r="18.8789" transform="rotate(45 190.293 29.1796)" fill="#52567F"/>
</g>
<g style="mix-blend-mode:overlay" opacity="0.16">
<path d="M262.602 85.247L213.209 49.3738L169.324 77.627L211.957 120.26L262.602 85.247Z" fill="white"/>
</g>
</g>
<path d="M163.48 56.8616L166.741 53.6003L168.732 55.5907L168.386 55.9365L166.788 54.3385L165.695 55.4318L167.199 56.9363L166.854 57.2821L165.349 55.7776L164.218 56.9083L165.816 58.5062L165.471 58.852L163.48 56.8616ZM166.699 60.0808C166.569 59.95 166.505 59.8145 166.508 59.6743C166.517 59.5342 166.581 59.4049 166.699 59.2865L168.386 57.5998L167.989 57.2027L168.316 56.8756L168.54 57.0999C168.621 57.1809 168.691 57.2198 168.751 57.2167C168.816 57.2136 168.889 57.1715 168.97 57.0905L169.419 56.642L169.755 56.9784L169.087 57.6465L169.615 58.1745L169.288 58.5016L168.76 57.9736L167.003 59.7304L167.494 60.221L167.167 60.548L166.699 60.0808ZM171.262 57.7287L171.636 58.1025L170.197 59.5416L170.216 59.5603C170.412 59.4824 170.603 59.4559 170.79 59.4808C170.98 59.5089 171.166 59.6132 171.346 59.7939C171.596 60.0431 171.711 60.3203 171.692 60.6255C171.68 60.9308 171.527 61.2298 171.234 61.5226L169.688 63.0692L169.314 62.6954L170.795 61.2142C171.228 60.7813 171.262 60.3826 170.898 60.0181C170.823 59.9434 170.741 59.8795 170.65 59.8266C170.563 59.7767 170.473 59.7425 170.379 59.7238C170.286 59.7051 170.192 59.7082 170.099 59.7331C170.012 59.758 169.929 59.8094 169.851 59.8873L168.179 61.56L167.805 61.1862L171.262 57.7287ZM171.311 64.8043C171.146 64.6392 171.026 64.4601 170.951 64.2669C170.879 64.0769 170.85 63.8791 170.862 63.6736C170.881 63.468 170.94 63.2624 171.04 63.0568C171.146 62.8512 171.295 62.6519 171.488 62.4588C171.678 62.2688 171.876 62.1208 172.082 62.0149C172.29 61.9121 172.496 61.8529 172.698 61.8373C172.907 61.8218 173.106 61.8498 173.296 61.9214C173.49 61.9962 173.669 62.1161 173.834 62.2812C173.996 62.4432 174.111 62.6176 174.179 62.8045C174.248 62.9914 174.274 63.183 174.259 63.3792C174.246 63.5723 174.192 63.7639 174.095 63.9539C174.002 64.147 173.87 64.3292 173.698 64.5006L173.521 64.6781L171.787 62.9447L171.675 63.0568C171.572 63.1596 171.491 63.2717 171.432 63.3932C171.379 63.5147 171.35 63.6377 171.343 63.7623C171.34 63.89 171.364 64.0162 171.413 64.1408C171.466 64.2685 171.549 64.3884 171.661 64.5006C171.814 64.6532 171.982 64.7497 172.166 64.7902C172.353 64.8338 172.544 64.8198 172.74 64.7482L172.815 65.2061C172.572 65.2933 172.317 65.3057 172.049 65.2434C171.784 65.178 171.538 65.0316 171.311 64.8043ZM173.521 62.5943C173.418 62.4915 173.306 62.4167 173.184 62.37C173.066 62.3201 172.943 62.2968 172.815 62.2999C172.691 62.3061 172.566 62.3373 172.441 62.3933C172.32 62.4463 172.206 62.5257 172.1 62.6316L172.068 62.6643L173.399 63.9959L173.451 63.9445C173.666 63.7296 173.778 63.4991 173.787 63.253C173.803 63.007 173.714 62.7874 173.521 62.5943ZM173.025 66.406L175.436 63.9951L175.809 64.3689L175.365 64.8128L175.389 64.8362C175.548 64.7645 175.728 64.7396 175.931 64.7614C176.133 64.7832 176.333 64.8922 176.529 65.0885L176.674 65.2333L176.3 65.6071L176.08 65.3875C175.878 65.185 175.68 65.0651 175.487 65.0277C175.3 64.9903 175.149 65.0293 175.034 65.1445L173.398 66.7798L173.025 66.406ZM175.568 69.0613C175.403 68.8962 175.283 68.7171 175.208 68.524C175.136 68.334 175.107 68.1362 175.119 67.9306C175.138 67.7251 175.197 67.5195 175.297 67.3139C175.403 67.1083 175.552 66.909 175.745 66.7158C175.935 66.5258 176.133 66.3779 176.339 66.272C176.547 66.1692 176.753 66.11 176.955 66.0944C177.164 66.0789 177.363 66.1069 177.553 66.1785C177.747 66.2533 177.926 66.3732 178.091 66.5383C178.253 66.7003 178.368 66.8747 178.437 67.0616C178.505 67.2485 178.532 67.44 178.516 67.6363C178.504 67.8294 178.449 68.021 178.352 68.211C178.259 68.4041 178.127 68.5863 177.955 68.7576L177.778 68.9352L176.044 67.2018L175.932 67.3139C175.829 67.4167 175.748 67.5288 175.689 67.6503C175.636 67.7718 175.607 67.8948 175.6 68.0194C175.597 68.1471 175.621 68.2733 175.671 68.3979C175.724 68.5256 175.806 68.6455 175.918 68.7576C176.071 68.9103 176.239 69.0068 176.423 69.0473C176.61 69.0909 176.801 69.0769 176.997 69.0053L177.072 69.4632C176.829 69.5504 176.574 69.5628 176.306 69.5005C176.041 69.4351 175.795 69.2887 175.568 69.0613ZM177.778 66.8513C177.675 66.7485 177.563 66.6738 177.441 66.6271C177.323 66.5772 177.2 66.5539 177.072 66.557C176.948 66.5632 176.823 66.5944 176.698 66.6504C176.577 66.7034 176.463 66.7828 176.357 66.8887L176.325 66.9214L177.656 68.253L177.708 68.2016C177.923 67.9867 178.035 67.7562 178.044 67.5101C178.06 67.2641 177.971 67.0445 177.778 66.8513ZM179.16 71.7564L179.141 71.7378C179.06 71.7689 178.973 71.7938 178.88 71.8125C178.792 71.8312 178.701 71.8359 178.604 71.8265C178.511 71.8141 178.414 71.7829 178.314 71.7331C178.215 71.6832 178.115 71.6085 178.015 71.5088C177.766 71.2596 177.648 70.9824 177.66 70.6771C177.676 70.3688 177.83 70.0682 178.123 69.7754L179.669 68.2289L180.043 68.6026L178.562 70.0838C178.129 70.5167 178.096 70.917 178.464 71.2845C178.539 71.3593 178.62 71.4216 178.707 71.4714C178.797 71.5244 178.887 71.5587 178.978 71.5742C179.071 71.5929 179.162 71.5898 179.249 71.5649C179.342 71.54 179.429 71.487 179.51 71.406L181.178 69.738L181.552 70.1118L179.141 72.5227L178.767 72.1489L179.16 71.7564ZM179.937 73.3187L182.348 70.9078L182.722 71.2816L182.329 71.674L182.348 71.6927C182.438 71.6585 182.527 71.632 182.614 71.6133C182.708 71.5946 182.8 71.5899 182.89 71.5993C182.984 71.6117 183.075 71.6413 183.166 71.688C183.259 71.7317 183.353 71.8002 183.446 71.8936C183.605 72.0525 183.712 72.2378 183.769 72.4496C183.828 72.6583 183.803 72.8826 183.694 73.1224L183.703 73.1318C183.878 73.0446 184.072 73.0119 184.287 73.0337C184.508 73.0555 184.722 73.1692 184.927 73.3747C185.173 73.6208 185.284 73.8934 185.259 74.1924C185.24 74.4914 185.085 74.7873 184.792 75.0801L183.245 76.6267L182.871 76.2529L184.353 74.7718C184.567 74.5568 184.687 74.3528 184.712 74.1597C184.737 73.9666 184.658 73.7781 184.474 73.5943C184.399 73.5196 184.318 73.4573 184.231 73.4074C184.147 73.3607 184.06 73.3296 183.969 73.314C183.879 73.2984 183.789 73.3047 183.698 73.3327C183.611 73.3576 183.529 73.409 183.451 73.4869L181.778 75.1596L181.404 74.7858L182.885 73.3047C183.1 73.0897 183.22 72.8857 183.245 72.6926C183.27 72.4995 183.194 72.3141 183.016 72.1366C182.942 72.0618 182.861 71.9995 182.773 71.9497C182.686 71.8999 182.597 71.8671 182.507 71.8516C182.417 71.836 182.325 71.8407 182.231 71.8656C182.144 71.8905 182.062 71.9419 181.984 72.0198L180.311 73.6925L179.937 73.3187ZM185.158 78.5394L188.419 75.2781L190.41 77.2685L190.064 77.6143L188.466 76.0163L187.373 77.1097L188.877 78.6141L188.531 78.9599L187.027 77.4554L185.896 78.5861L187.494 80.184L187.148 80.5298L185.158 78.5394ZM191.895 79.4458L188.98 82.3614L188.587 81.9689L191.503 79.0534L190.466 78.0161L190.811 77.6704L193.278 80.1373L192.933 80.4831L191.895 79.4458ZM194.074 84.5025L192.425 82.8532L190.948 84.3296L190.556 83.9372L193.817 80.6759L194.209 81.0684L192.77 82.5074L194.42 84.1568L195.859 82.7177L196.251 83.1102L192.99 86.3714L192.598 85.979L194.074 84.5025ZM197.085 85.6442L197.449 86.0087L196.664 87.3076L195.865 88.6205L195.874 88.6298L197.225 87.8682L198.57 87.13L198.902 87.4618L198.173 88.8167L197.416 90.1717L197.426 90.181L198.729 89.3727L200.033 88.5925L200.383 88.9429L197.332 90.7137L196.87 90.2511L197.692 88.756L198.215 87.8122L198.206 87.8028L197.267 88.3308L195.772 89.1531L195.318 88.6999L197.085 85.6442ZM200.223 93.6048C200.083 93.4647 200.019 93.3261 200.032 93.189C200.047 93.0551 200.103 92.9242 200.2 92.7965L200.177 92.7732C199.974 92.8697 199.775 92.8947 199.579 92.8479C199.382 92.8012 199.2 92.6937 199.032 92.5255C198.777 92.2701 198.643 92.0054 198.63 91.7313C198.621 91.4603 198.728 91.2126 198.953 90.9884C199.18 90.761 199.437 90.6691 199.723 90.7127C200.013 90.7594 200.334 90.9588 200.686 91.3107L201.163 91.7873L201.401 91.549C201.572 91.3777 201.656 91.2002 201.653 91.0164C201.65 90.8326 201.552 90.6442 201.359 90.451C201.212 90.3046 201.057 90.2143 200.892 90.18C200.73 90.1489 200.561 90.1551 200.387 90.1987L200.373 89.7642C200.569 89.6988 200.784 89.6926 201.018 89.7455C201.254 89.7954 201.482 89.9293 201.7 90.1473C201.993 90.4401 202.148 90.7392 202.167 91.0444C202.186 91.3497 202.067 91.63 201.812 91.8854L200.485 93.2124L200.761 93.488L200.434 93.8151L200.223 93.6048ZM199.41 92.2686C199.504 92.362 199.6 92.4368 199.7 92.4928C199.8 92.5489 199.898 92.5847 199.994 92.6003C200.091 92.6159 200.181 92.6128 200.265 92.591C200.35 92.5691 200.423 92.5271 200.485 92.4648L200.882 92.0677L200.387 91.5724C200.172 91.3575 199.984 91.2313 199.822 91.1939C199.663 91.1597 199.524 91.2017 199.406 91.3201L199.308 91.4182C199.189 91.5366 199.139 91.6705 199.158 91.82C199.18 91.9727 199.264 92.1222 199.41 92.2686ZM201.364 94.7457C201.233 94.6149 201.17 94.4794 201.173 94.3392C201.182 94.1991 201.243 94.0729 201.355 93.9608L204.425 90.8911L204.798 91.2649L201.668 94.3953L202.023 94.7504L201.696 95.0775L201.364 94.7457ZM202.614 95.9959C202.484 95.8651 202.42 95.7296 202.423 95.5894C202.432 95.4493 202.493 95.3231 202.605 95.211L205.675 92.1413L206.049 92.5151L202.918 95.6455L203.273 96.0006L202.946 96.3277L202.614 95.9959ZM204.341 97.8343C204.176 97.6692 204.056 97.4901 203.981 97.297C203.909 97.107 203.88 96.9092 203.892 96.7036C203.911 96.498 203.97 96.2924 204.07 96.0869C204.176 95.8813 204.325 95.6819 204.518 95.4888C204.708 95.2988 204.906 95.1508 205.112 95.0449C205.32 94.9421 205.526 94.883 205.728 94.8674C205.937 94.8518 206.136 94.8798 206.326 94.9515C206.52 95.0262 206.699 95.1462 206.864 95.3113C207.026 95.4732 207.141 95.6477 207.21 95.8345C207.278 96.0214 207.305 96.213 207.289 96.4092C207.276 96.6024 207.222 96.7939 207.125 96.9839C207.032 97.1771 206.9 97.3593 206.728 97.5306L206.551 97.7081L204.817 95.9747L204.705 96.0869C204.602 96.1896 204.521 96.3018 204.462 96.4233C204.409 96.5447 204.38 96.6678 204.373 96.7924C204.37 96.9201 204.394 97.0462 204.444 97.1708C204.496 97.2985 204.579 97.4185 204.691 97.5306C204.844 97.6832 205.012 97.7798 205.196 97.8203C205.383 97.8639 205.574 97.8499 205.77 97.7782L205.845 98.2361C205.602 98.3233 205.347 98.3358 205.079 98.2735C204.814 98.2081 204.568 98.0617 204.341 97.8343ZM206.551 95.6243C206.448 95.5215 206.336 95.4467 206.214 95.4C206.096 95.3502 205.973 95.3268 205.845 95.3299C205.721 95.3362 205.596 95.3673 205.471 95.4234C205.35 95.4763 205.236 95.5558 205.13 95.6617L205.098 95.6944L206.429 97.026L206.481 96.9746C206.696 96.7597 206.808 96.5292 206.817 96.2831C206.833 96.037 206.744 95.8174 206.551 95.6243ZM206.587 99.9687C206.456 99.8379 206.393 99.7024 206.396 99.5622C206.405 99.4221 206.469 99.2928 206.587 99.1744L208.274 97.4877L207.877 97.0906L208.204 96.7635L208.428 96.9878C208.509 97.0688 208.579 97.1077 208.638 97.1046C208.704 97.1015 208.777 97.0594 208.858 96.9785L209.307 96.5299L209.643 96.8663L208.975 97.5345L209.503 98.0624L209.176 98.3895L208.648 97.8615L206.891 99.6183L207.382 100.109L207.055 100.436L206.587 99.9687Z" fill="#333333"/>
</g>
</g>
<g filter="url(#filter16_dd_4_28238)">
<g clip-path="url(#clip10_4_28238)">
<g clip-path="url(#clip11_4_28238)">
<rect width="94.3946" height="56.6368" transform="translate(118.293 -53.5) rotate(45)" fill="white"/>
<g opacity="0.8" filter="url(#filter17_f_4_28238)">
<circle cx="108.948" cy="57.3" r="60.4126" transform="rotate(45 108.948 57.3)" fill="#283991"/>
</g>
<g opacity="0.8" filter="url(#filter18_f_4_28238)">
<circle cx="183.705" cy="30.6012" r="30.2063" transform="rotate(45 183.705 30.6012)" fill="#F8D12E"/>
</g>
<g opacity="0.8" filter="url(#filter19_f_4_28238)">
<circle cx="118.293" cy="-42.8204" r="18.8789" transform="rotate(45 118.293 -42.8204)" fill="#283991"/>
</g>
<g style="mix-blend-mode:overlay" opacity="0.16">
<path d="M190.602 13.247L141.209 -22.6262L97.3236 5.62698L139.957 48.2602L190.602 13.247Z" fill="white"/>
</g>
</g>
<path d="M91.4801 -15.1384L94.7414 -18.3997L96.7318 -16.4093L96.386 -16.0635L94.7881 -17.6615L93.6948 -16.5682L95.1993 -15.0637L94.8535 -14.7179L93.3491 -16.2224L92.2184 -15.0917L93.8163 -13.4938L93.4705 -13.148L91.4801 -15.1384ZM97.8345 -15.3066L95.8161 -13.2882C95.5046 -12.9767 95.3255 -12.6823 95.2787 -12.4051C95.2351 -12.131 95.3582 -11.8491 95.6479 -11.5594C95.9375 -11.2697 96.2194 -11.1467 96.4935 -11.1903C96.7708 -11.237 97.0651 -11.4161 97.3766 -11.7276L99.395 -13.7461L99.7875 -13.3536L97.8625 -11.4286C97.6258 -11.1919 97.3984 -11.0081 97.1804 -10.8773C96.9654 -10.7433 96.7536 -10.6655 96.5449 -10.6436C96.3362 -10.6218 96.1276 -10.6592 95.9189 -10.7558C95.7133 -10.8492 95.5015 -11.005 95.2834 -11.223C95.0654 -11.4411 94.9096 -11.6529 94.8162 -11.8584C94.7259 -12.0609 94.6932 -12.2649 94.7181 -12.4705C94.743 -12.6761 94.8224 -12.8864 94.9564 -13.1013C95.0934 -13.3131 95.2803 -13.5374 95.517 -13.7741L97.442 -15.6991L97.8345 -15.3066ZM97.7632 -8.8554L97.3707 -9.24787L100.632 -12.5091L101.931 -11.2102C102.217 -10.9237 102.361 -10.6215 102.361 -10.3038C102.364 -9.98298 102.216 -9.67305 101.917 -9.37402C101.677 -9.13418 101.423 -8.99245 101.155 -8.94884C100.894 -8.90524 100.63 -8.96598 100.366 -9.13106L99.6741 -6.94443L99.2303 -7.3883L99.9264 -9.4955L99.1649 -10.2571L97.7632 -8.8554ZM100.408 -9.68707C100.563 -9.53132 100.724 -9.4519 100.889 -9.44878C101.057 -9.44255 101.216 -9.51419 101.366 -9.66371L101.608 -9.90667C101.758 -10.0562 101.83 -10.215 101.823 -10.3832C101.82 -10.5483 101.741 -10.7087 101.585 -10.8645L100.679 -11.7709L99.5013 -10.5935L100.408 -9.68707ZM103.585 -7.85564L103.949 -7.4912L103.164 -6.1923L102.365 -4.87938L102.375 -4.87004L103.725 -5.63162L105.071 -6.36985L105.402 -6.03811L104.673 -4.68315L103.916 -3.32818L103.926 -3.31884L105.229 -4.12714L106.533 -4.90742L106.883 -4.55699L103.832 -2.78619L103.37 -3.24875L104.192 -4.74389L104.715 -5.68769L104.706 -5.69704L103.767 -5.16907L102.272 -4.34674L101.819 -4.79995L103.585 -7.85564ZM106.724 0.104972C106.583 -0.0351968 106.52 -0.173808 106.532 -0.310862C106.548 -0.444801 106.604 -0.575626 106.7 -0.703335L106.677 -0.726697C106.474 -0.630136 106.275 -0.605217 106.079 -0.65194C105.883 -0.698663 105.7 -0.806126 105.532 -0.974329C105.277 -1.22975 105.143 -1.49451 105.13 -1.76862C105.121 -2.03961 105.228 -2.28724 105.453 -2.51151C105.68 -2.7389 105.937 -2.83079 106.224 -2.78718C106.513 -2.74046 106.834 -2.54111 107.186 -2.18913L107.663 -1.71255L107.901 -1.95084C108.072 -2.12216 108.156 -2.2997 108.153 -2.48348C108.15 -2.66726 108.052 -2.85571 107.859 -3.04883C107.713 -3.19523 107.557 -3.28556 107.392 -3.31982C107.23 -3.35097 107.062 -3.34474 106.887 -3.30113L106.873 -3.73566C107.069 -3.80107 107.284 -3.8073 107.518 -3.75434C107.755 -3.70451 107.982 -3.57057 108.2 -3.35253C108.493 -3.05973 108.649 -2.7607 108.667 -2.45545C108.686 -2.15019 108.568 -1.86985 108.312 -1.61443L106.985 -0.287501L107.261 -0.0118353L106.934 0.315225L106.724 0.104972ZM105.911 -1.2313C106.004 -1.13786 106.101 -1.0631 106.2 -1.00703C106.3 -0.950967 106.398 -0.915146 106.495 -0.899572C106.591 -0.883997 106.681 -0.887112 106.766 -0.908916C106.85 -0.93072 106.923 -0.972771 106.985 -1.03507L107.382 -1.43221L106.887 -1.92748C106.672 -2.1424 106.484 -2.26855 106.322 -2.30593C106.163 -2.3402 106.024 -2.29815 105.906 -2.17978L105.808 -2.08166C105.689 -1.9633 105.64 -1.82936 105.658 -1.67985C105.68 -1.52722 105.764 -1.3777 105.911 -1.2313ZM107.864 1.24585C107.734 1.11503 107.67 0.979531 107.673 0.839362C107.682 0.699193 107.743 0.573041 107.855 0.460906L110.925 -2.60879L111.299 -2.23501L108.168 0.89543L108.523 1.25052L108.196 1.57759L107.864 1.24585ZM109.115 2.49606C108.984 2.36523 108.92 2.22974 108.923 2.08957C108.932 1.9494 108.993 1.82325 109.105 1.71111L112.175 -1.35859L112.549 -0.984803L109.418 2.14564L109.773 2.50073L109.446 2.82779L109.115 2.49606ZM110.841 4.33442C110.676 4.16934 110.556 3.99023 110.481 3.79711C110.409 3.6071 110.38 3.40931 110.392 3.20373C110.411 2.99815 110.47 2.79257 110.57 2.58698C110.676 2.3814 110.825 2.18205 111.018 1.98893C111.208 1.79892 111.406 1.65097 111.612 1.54506C111.82 1.44227 112.026 1.38309 112.229 1.36752C112.437 1.35194 112.637 1.37998 112.827 1.45162C113.02 1.52637 113.199 1.6463 113.364 1.81138C113.526 1.97336 113.641 2.14779 113.71 2.33468C113.778 2.52157 113.805 2.71314 113.789 2.90937C113.777 3.1025 113.722 3.29406 113.626 3.48407C113.532 3.67719 113.4 3.85941 113.228 4.03072L113.051 4.20827L111.317 2.47485L111.205 2.58698C111.103 2.68978 111.022 2.80191 110.962 2.92339C110.909 3.04487 110.88 3.16791 110.874 3.2925C110.87 3.42021 110.894 3.54636 110.944 3.67096C110.997 3.79867 111.079 3.91859 111.191 4.03072C111.344 4.18335 111.512 4.27991 111.696 4.32041C111.883 4.36402 112.074 4.35 112.271 4.27836L112.345 4.73624C112.102 4.82346 111.847 4.83592 111.579 4.77362C111.314 4.70821 111.068 4.56181 110.841 4.33442ZM113.051 2.12443C112.948 2.02164 112.836 1.94688 112.714 1.90016C112.596 1.85032 112.473 1.82696 112.345 1.83007C112.221 1.8363 112.096 1.86745 111.972 1.92352C111.85 1.97647 111.736 2.0559 111.63 2.16181L111.598 2.19451L112.929 3.52612L112.981 3.47472C113.196 3.2598 113.308 3.0293 113.317 2.78322C113.333 2.53715 113.244 2.31755 113.051 2.12443ZM113.087 6.46886C112.957 6.33804 112.893 6.20254 112.896 6.06237C112.905 5.9222 112.969 5.79293 113.087 5.67457L114.774 3.98787L114.377 3.59073L114.704 3.26366L114.928 3.48793C115.009 3.56892 115.079 3.60786 115.139 3.60474C115.204 3.60163 115.277 3.55958 115.358 3.47859L115.807 3.03005L116.143 3.36646L115.475 4.03459L116.003 4.56256L115.676 4.88962L115.148 4.36165L113.391 6.11844L113.882 6.60903L113.555 6.93609L113.087 6.46886Z" fill="#333333"/>
</g>
</g>
</g>
<defs>
<filter id="filter0_dd_4_28238" x="102.083" y="61.4102" width="112.795" height="112.795" filterUnits="userSpaceOnUse" color-interpolation-filters="sRGB">
<feFlood flood-opacity="0" result="BackgroundImageFix"/>
<feColorMatrix in="SourceAlpha" type="matrix" values="0 0 0 0 0 0 0 0 0 0 0 0 0 0 0 0 0 0 127 0" result="hardAlpha"/>
<feOffset dy="1"/>
<feGaussianBlur stdDeviation="1"/>
<feColorMatrix type="matrix" values="0 0 0 0 0.054902 0 0 0 0 0.054902 0 0 0 0 0.054902 0 0 0 0.06 0"/>
<feBlend mode="normal" in2="BackgroundImageFix" result="effect1_dropShadow_4_28238"/>
<feColorMatrix in="SourceAlpha" type="matrix" values="0 0 0 0 0 0 0 0 0 0 0 0 0 0 0 0 0 0 127 0" result="hardAlpha"/>
<feOffset dy="1"/>
<feGaussianBlur stdDeviation="1.5"/>
<feColorMatrix type="matrix" values="0 0 0 0 0.054902 0 0 0 0 0.054902 0 0 0 0 0.054902 0 0 0 0.1 0"/>
<feBlend mode="normal" in2="effect1_dropShadow_4_28238" result="effect2_dropShadow_4_28238"/>
<feBlend mode="normal" in="SourceGraphic" in2="effect2_dropShadow_4_28238" result="shape"/>
</filter>
<filter id="filter1_f_4_28238" x="-0.142059" y="38.2821" width="271.857" height="271.857" filterUnits="userSpaceOnUse" color-interpolation-filters="sRGB">
<feFlood flood-opacity="0" result="BackgroundImageFix"/>
<feBlend mode="normal" in="SourceGraphic" in2="BackgroundImageFix" result="shape"/>
<feGaussianBlur stdDeviation="37.7579" result="effect1_foregroundBlur_4_28238"/>
</filter>
<filter id="filter2_f_4_28238" x="119.924" y="56.8926" width="181.238" height="181.238" filterUnits="userSpaceOnUse" color-interpolation-filters="sRGB">
<feFlood flood-opacity="0" result="BackgroundImageFix"/>
<feBlend mode="normal" in="SourceGraphic" in2="BackgroundImageFix" result="shape"/>
<feGaussianBlur stdDeviation="30.2063" result="effect1_foregroundBlur_4_28238"/>
</filter>
<filter id="filter3_f_4_28238" x="65.8394" y="-5.20188" width="158.583" height="158.583" filterUnits="userSpaceOnUse" color-interpolation-filters="sRGB">
<feFlood flood-opacity="0" result="BackgroundImageFix"/>
<feBlend mode="normal" in="SourceGraphic" in2="BackgroundImageFix" result="shape"/>
<feGaussianBlur stdDeviation="30.2063" result="effect1_foregroundBlur_4_28238"/>
</filter>
<filter id="filter4_dd_4_28238" x="29.7955" y="-10.1094" width="112.795" height="112.795" filterUnits="userSpaceOnUse" color-interpolation-filters="sRGB">
<feFlood flood-opacity="0" result="BackgroundImageFix"/>
<feColorMatrix in="SourceAlpha" type="matrix" values="0 0 0 0 0 0 0 0 0 0 0 0 0 0 0 0 0 0 127 0" result="hardAlpha"/>
<feOffset dy="1"/>
<feGaussianBlur stdDeviation="1"/>
<feColorMatrix type="matrix" values="0 0 0 0 0.054902 0 0 0 0 0.054902 0 0 0 0 0.054902 0 0 0 0.06 0"/>
<feBlend mode="normal" in2="BackgroundImageFix" result="effect1_dropShadow_4_28238"/>
<feColorMatrix in="SourceAlpha" type="matrix" values="0 0 0 0 0 0 0 0 0 0 0 0 0 0 0 0 0 0 127 0" result="hardAlpha"/>
<feOffset dy="1"/>
<feGaussianBlur stdDeviation="1.5"/>
<feColorMatrix type="matrix" values="0 0 0 0 0.054902 0 0 0 0 0.054902 0 0 0 0 0.054902 0 0 0 0.1 0"/>
<feBlend mode="normal" in2="effect1_dropShadow_4_28238" result="effect2_dropShadow_4_28238"/>
<feBlend mode="normal" in="SourceGraphic" in2="effect2_dropShadow_4_28238" result="shape"/>
</filter>
<filter id="filter5_f_4_28238" x="-72.4292" y="-33.2376" width="271.857" height="271.857" filterUnits="userSpaceOnUse" color-interpolation-filters="sRGB">
<feFlood flood-opacity="0" result="BackgroundImageFix"/>
<feBlend mode="normal" in="SourceGraphic" in2="BackgroundImageFix" result="shape"/>
<feGaussianBlur stdDeviation="37.7579" result="effect1_foregroundBlur_4_28238"/>
</filter>
<filter id="filter6_f_4_28238" x="47.637" y="-14.6269" width="181.238" height="181.238" filterUnits="userSpaceOnUse" color-interpolation-filters="sRGB">
<feFlood flood-opacity="0" result="BackgroundImageFix"/>
<feBlend mode="normal" in="SourceGraphic" in2="BackgroundImageFix" result="shape"/>
<feGaussianBlur stdDeviation="30.2063" result="effect1_foregroundBlur_4_28238"/>
</filter>
<filter id="filter7_f_4_28238" x="-6.44773" y="-76.7214" width="158.583" height="158.583" filterUnits="userSpaceOnUse" color-interpolation-filters="sRGB">
<feFlood flood-opacity="0" result="BackgroundImageFix"/>
<feBlend mode="normal" in="SourceGraphic" in2="BackgroundImageFix" result="shape"/>
<feGaussianBlur stdDeviation="30.2063" result="effect1_foregroundBlur_4_28238"/>
</filter>
<filter id="filter8_dd_4_28238" x="-43.2045" y="-84.1094" width="112.795" height="112.795" filterUnits="userSpaceOnUse" color-interpolation-filters="sRGB">
<feFlood flood-opacity="0" result="BackgroundImageFix"/>
<feColorMatrix in="SourceAlpha" type="matrix" values="0 0 0 0 0 0 0 0 0 0 0 0 0 0 0 0 0 0 127 0" result="hardAlpha"/>
<feOffset dy="1"/>
<feGaussianBlur stdDeviation="1"/>
<feColorMatrix type="matrix" values="0 0 0 0 0.054902 0 0 0 0 0.054902 0 0 0 0 0.054902 0 0 0 0.06 0"/>
<feBlend mode="normal" in2="BackgroundImageFix" result="effect1_dropShadow_4_28238"/>
<feColorMatrix in="SourceAlpha" type="matrix" values="0 0 0 0 0 0 0 0 0 0 0 0 0 0 0 0 0 0 127 0" result="hardAlpha"/>
<feOffset dy="1"/>
<feGaussianBlur stdDeviation="1.5"/>
<feColorMatrix type="matrix" values="0 0 0 0 0.054902 0 0 0 0 0.054902 0 0 0 0 0.054902 0 0 0 0.1 0"/>
<feBlend mode="normal" in2="effect1_dropShadow_4_28238" result="effect2_dropShadow_4_28238"/>
<feBlend mode="normal" in="SourceGraphic" in2="effect2_dropShadow_4_28238" result="shape"/>
</filter>
<filter id="filter9_f_4_28238" x="-145.429" y="-107.238" width="271.857" height="271.857" filterUnits="userSpaceOnUse" color-interpolation-filters="sRGB">
<feFlood flood-opacity="0" result="BackgroundImageFix"/>
<feBlend mode="normal" in="SourceGraphic" in2="BackgroundImageFix" result="shape"/>
<feGaussianBlur stdDeviation="37.7579" result="effect1_foregroundBlur_4_28238"/>
</filter>
<filter id="filter10_f_4_28238" x="-25.363" y="-88.6269" width="181.238" height="181.238" filterUnits="userSpaceOnUse" color-interpolation-filters="sRGB">
<feFlood flood-opacity="0" result="BackgroundImageFix"/>
<feBlend mode="normal" in="SourceGraphic" in2="BackgroundImageFix" result="shape"/>
<feGaussianBlur stdDeviation="30.2063" result="effect1_foregroundBlur_4_28238"/>
</filter>
<filter id="filter11_f_4_28238" x="-79.4477" y="-150.721" width="158.583" height="158.583" filterUnits="userSpaceOnUse" color-interpolation-filters="sRGB">
<feFlood flood-opacity="0" result="BackgroundImageFix"/>
<feBlend mode="normal" in="SourceGraphic" in2="BackgroundImageFix" result="shape"/>
<feGaussianBlur stdDeviation="30.2063" result="effect1_foregroundBlur_4_28238"/>
</filter>
<filter id="filter12_dd_4_28238" x="147.245" y="16.5" width="112.795" height="112.795" filterUnits="userSpaceOnUse" color-interpolation-filters="sRGB">
<feFlood flood-opacity="0" result="BackgroundImageFix"/>
<feColorMatrix in="SourceAlpha" type="matrix" values="0 0 0 0 0 0 0 0 0 0 0 0 0 0 0 0 0 0 127 0" result="hardAlpha"/>
<feOffset dy="1"/>
<feGaussianBlur stdDeviation="1"/>
<feColorMatrix type="matrix" values="0 0 0 0 0.054902 0 0 0 0 0.054902 0 0 0 0 0.054902 0 0 0 0.06 0"/>
<feBlend mode="normal" in2="BackgroundImageFix" result="effect1_dropShadow_4_28238"/>
<feColorMatrix in="SourceAlpha" type="matrix" values="0 0 0 0 0 0 0 0 0 0 0 0 0 0 0 0 0 0 127 0" result="hardAlpha"/>
<feOffset dy="1"/>
<feGaussianBlur stdDeviation="1.5"/>
<feColorMatrix type="matrix" values="0 0 0 0 0.054902 0 0 0 0 0.054902 0 0 0 0 0.054902 0 0 0 0.1 0"/>
<feBlend mode="normal" in2="effect1_dropShadow_4_28238" result="effect2_dropShadow_4_28238"/>
<feBlend mode="normal" in="SourceGraphic" in2="effect2_dropShadow_4_28238" result="shape"/>
</filter>
<filter id="filter13_f_4_28238" x="45.0201" y="-6.62827" width="271.857" height="271.857" filterUnits="userSpaceOnUse" color-interpolation-filters="sRGB">
<feFlood flood-opacity="0" result="BackgroundImageFix"/>
<feBlend mode="normal" in="SourceGraphic" in2="BackgroundImageFix" result="shape"/>
<feGaussianBlur stdDeviation="37.7579" result="effect1_foregroundBlur_4_28238"/>
</filter>
<filter id="filter14_f_4_28238" x="165.086" y="11.9824" width="181.238" height="181.238" filterUnits="userSpaceOnUse" color-interpolation-filters="sRGB">
<feFlood flood-opacity="0" result="BackgroundImageFix"/>
<feBlend mode="normal" in="SourceGraphic" in2="BackgroundImageFix" result="shape"/>
<feGaussianBlur stdDeviation="30.2063" result="effect1_foregroundBlur_4_28238"/>
</filter>
<filter id="filter15_f_4_28238" x="111.001" y="-50.112" width="158.583" height="158.583" filterUnits="userSpaceOnUse" color-interpolation-filters="sRGB">
<feFlood flood-opacity="0" result="BackgroundImageFix"/>
<feBlend mode="normal" in="SourceGraphic" in2="BackgroundImageFix" result="shape"/>
<feGaussianBlur stdDeviation="30.2063" result="effect1_foregroundBlur_4_28238"/>
</filter>
<filter id="filter16_dd_4_28238" x="75.2448" y="-55.5" width="112.795" height="112.795" filterUnits="userSpaceOnUse" color-interpolation-filters="sRGB">
<feFlood flood-opacity="0" result="BackgroundImageFix"/>
<feColorMatrix in="SourceAlpha" type="matrix" values="0 0 0 0 0 0 0 0 0 0 0 0 0 0 0 0 0 0 127 0" result="hardAlpha"/>
<feOffset dy="1"/>
<feGaussianBlur stdDeviation="1"/>
<feColorMatrix type="matrix" values="0 0 0 0 0.054902 0 0 0 0 0.054902 0 0 0 0 0.054902 0 0 0 0.06 0"/>
<feBlend mode="normal" in2="BackgroundImageFix" result="effect1_dropShadow_4_28238"/>
<feColorMatrix in="SourceAlpha" type="matrix" values="0 0 0 0 0 0 0 0 0 0 0 0 0 0 0 0 0 0 127 0" result="hardAlpha"/>
<feOffset dy="1"/>
<feGaussianBlur stdDeviation="1.5"/>
<feColorMatrix type="matrix" values="0 0 0 0 0.054902 0 0 0 0 0.054902 0 0 0 0 0.054902 0 0 0 0.1 0"/>
<feBlend mode="normal" in2="effect1_dropShadow_4_28238" result="effect2_dropShadow_4_28238"/>
<feBlend mode="normal" in="SourceGraphic" in2="effect2_dropShadow_4_28238" result="shape"/>
</filter>
<filter id="filter17_f_4_28238" x="-26.9799" y="-78.6283" width="271.857" height="271.857" filterUnits="userSpaceOnUse" color-interpolation-filters="sRGB">
<feFlood flood-opacity="0" result="BackgroundImageFix"/>
<feBlend mode="normal" in="SourceGraphic" in2="BackgroundImageFix" result="shape"/>
<feGaussianBlur stdDeviation="37.7579" result="effect1_foregroundBlur_4_28238"/>
</filter>
<filter id="filter18_f_4_28238" x="93.0862" y="-60.0176" width="181.238" height="181.238" filterUnits="userSpaceOnUse" color-interpolation-filters="sRGB">
<feFlood flood-opacity="0" result="BackgroundImageFix"/>
<feBlend mode="normal" in="SourceGraphic" in2="BackgroundImageFix" result="shape"/>
<feGaussianBlur stdDeviation="30.2063" result="effect1_foregroundBlur_4_28238"/>
</filter>
<filter id="filter19_f_4_28238" x="39.0015" y="-122.112" width="158.583" height="158.583" filterUnits="userSpaceOnUse" color-interpolation-filters="sRGB">
<feFlood flood-opacity="0" result="BackgroundImageFix"/>
<feBlend mode="normal" in="SourceGraphic" in2="BackgroundImageFix" result="shape"/>
<feGaussianBlur stdDeviation="30.2063" result="effect1_foregroundBlur_4_28238"/>
</filter>
<clipPath id="clip0_4_28238">
<rect width="344" height="203" fill="white"/>
</clipPath>
<clipPath id="clip1_4_28238">
<rect x="145.131" y="63.4102" width="94.3946" height="56.6368" rx="3.77579" transform="rotate(45 145.131 63.4102)" fill="white"/>
</clipPath>
<clipPath id="clip2_4_28238">
<rect width="94.3946" height="56.6368" fill="white" transform="translate(145.131 63.4102) rotate(45)"/>
</clipPath>
<clipPath id="clip3_4_28238">
<rect width="30.2063" height="18.8789" fill="white" transform="translate(145.131 74.0896) rotate(45)"/>
</clipPath>
<clipPath id="clip4_4_28238">
<rect x="72.8438" y="-8.10938" width="94.3946" height="56.6368" rx="3.77579" transform="rotate(45 72.8438 -8.10938)" fill="white"/>
</clipPath>
<clipPath id="clip5_4_28238">
<rect width="94.3946" height="56.6368" fill="white" transform="translate(72.8438 -8.10938) rotate(45)"/>
</clipPath>
<clipPath id="clip6_4_28238">
<rect x="-0.15625" y="-82.1094" width="94.3946" height="56.6368" rx="3.77579" transform="rotate(45 -0.15625 -82.1094)" fill="white"/>
</clipPath>
<clipPath id="clip7_4_28238">
<rect width="94.3946" height="56.6368" fill="white" transform="translate(-0.15625 -82.1094) rotate(45)"/>
</clipPath>
<clipPath id="clip8_4_28238">
<rect x="190.293" y="18.5" width="94.3946" height="56.6368" rx="3.77579" transform="rotate(45 190.293 18.5)" fill="white"/>
</clipPath>
<clipPath id="clip9_4_28238">
<rect width="94.3946" height="56.6368" fill="white" transform="translate(190.293 18.5) rotate(45)"/>
</clipPath>
<clipPath id="clip10_4_28238">
<rect x="118.293" y="-53.5" width="94.3946" height="56.6368" rx="3.77579" transform="rotate(45 118.293 -53.5)" fill="white"/>
</clipPath>
<clipPath id="clip11_4_28238">
<rect width="94.3946" height="56.6368" fill="white" transform="translate(118.293 -53.5) rotate(45)"/>
</clipPath>
</defs>
</svg>
