<svg width="169" height="179" viewBox="0 0 169 179" fill="none" xmlns="http://www.w3.org/2000/svg">
<g clip-path="url(#clip0_1_10276)">
<g clip-path="url(#clip1_1_10276)">
<g clip-path="url(#clip2_1_10276)">
<rect width="94.3946" height="56.6368" transform="translate(144.844 63.8906) rotate(45)" fill="white"/>
<g opacity="0.8" filter="url(#filter0_f_1_10276)">
<circle cx="135.499" cy="174.691" r="60.4126" transform="rotate(45 135.499 174.691)" fill="#283991"/>
</g>
<g opacity="0.8" filter="url(#filter1_f_1_10276)">
<circle cx="210.256" cy="147.992" r="30.2063" transform="rotate(45 210.256 147.992)" fill="#F8D12E"/>
</g>
<g opacity="0.8" filter="url(#filter2_f_1_10276)">
<circle cx="144.844" cy="74.5702" r="18.8789" transform="rotate(45 144.844 74.5702)" fill="#283991"/>
</g>
<g style="mix-blend-mode:overlay" opacity="0.16">
<path d="M217.153 130.638L167.76 94.7646L123.874 123.018L166.508 165.651L217.153 130.638Z" fill="white"/>
</g>
</g>
<rect x="144.844" y="74.5702" width="15.1031" height="15.1031" rx="7.55157" transform="rotate(45 144.844 74.5702)" fill="#283991"/>
<path d="M148.978 81.358L149.248 80.8269L148.717 81.0974L148.296 80.6759L148.389 81.2647L147.858 81.5353L148.447 81.6284L148.54 82.2173L148.811 81.6862L149.399 81.7795L148.978 81.358Z" fill="#F8D12E"/>
<path d="M141.411 88.9248L141.682 88.3936L141.15 88.6643L140.729 88.2428L140.822 88.8316L140.291 89.1021L140.88 89.1954L140.973 89.7841L141.244 89.2531L141.832 89.3464L141.411 88.9248Z" fill="#F8D12E"/>
<path d="M150.654 83.5742L150.384 84.1053L150.805 84.5268L150.216 84.4337L149.946 84.9647L149.853 84.3759L149.264 84.2827L149.795 84.0122L149.702 83.4233L150.123 83.8449L150.654 83.5742Z" fill="#F8D12E"/>
<path d="M150.403 86.92L150.673 86.389L150.142 86.6594L149.721 86.238L149.814 86.8268L149.283 87.0974L149.872 87.1907L149.965 87.7794L150.235 87.2483L150.824 87.3415L150.403 86.92Z" fill="#F8D12E"/>
<path d="M147.175 89.9545L146.904 90.4857L147.326 90.9073L146.737 90.8139L146.467 91.345L146.373 90.7564L145.785 90.6629L146.316 90.3925L146.222 89.8037L146.644 90.2253L147.175 89.9545Z" fill="#F8D12E"/>
<path d="M143.467 79.9842L143.738 79.4532L143.207 79.7238L142.785 79.3022L142.878 79.891L142.347 80.1616L142.936 80.2549L143.029 80.8435L143.3 80.3125L143.888 80.4056L143.467 79.9842Z" fill="#F8D12E"/>
<path d="M149.317 88.4017L149.047 88.9327L149.468 89.3543L148.879 89.261L148.609 89.7921L148.515 89.2035L147.927 89.1101L148.458 88.8396L148.365 88.2507L148.786 88.6722L149.317 88.4017Z" fill="#F8D12E"/>
<path d="M141.46 81.3465L141.731 80.8155L141.2 81.086L140.778 80.6645L140.872 81.2532L140.341 81.5239L140.929 81.6173L141.023 82.2059L141.293 81.6746L141.882 81.768L141.46 81.3465Z" fill="#F8D12E"/>
<path d="M140.16 82.9393L139.889 83.4705L140.311 83.8919L139.722 83.7987L139.451 84.3296L139.358 83.7411L138.769 83.6477L139.3 83.3772L139.207 82.7885L139.629 83.21L140.16 82.9393Z" fill="#F8D12E"/>
<path d="M144.058 90.5536L144.328 90.0226L143.797 90.2932L143.376 89.8716L143.469 90.4605L142.938 90.731L143.526 90.8244L143.62 91.4131L143.89 90.8819L144.479 90.9751L144.058 90.5536Z" fill="#F8D12E"/>
<path d="M146.568 79.4881L146.297 80.0192L146.719 80.4407L146.13 80.3476L145.86 80.8787L145.767 80.2898L145.178 80.1967L145.709 79.9262L145.616 79.3373L146.037 79.7587L146.568 79.4881Z" fill="#F8D12E"/>
<path d="M139.782 86.2272L140.053 85.6959L139.522 85.9666L139.1 85.5452L139.193 86.1338L138.662 86.4044L139.251 86.4978L139.344 87.0864L139.615 86.5553L140.204 86.6487L139.782 86.2272Z" fill="#F8D12E"/>
<path d="M118.031 102.252L121.292 98.9908L123.283 100.981L122.937 101.327L121.339 99.729L120.246 100.822L121.75 102.327L121.404 102.673L119.9 101.168L118.769 102.299L120.367 103.897L120.021 104.242L118.031 102.252ZM124.385 102.084L122.367 104.102C122.055 104.414 121.876 104.708 121.829 104.985C121.786 105.26 121.909 105.541 122.199 105.831C122.488 106.121 122.77 106.244 123.044 106.2C123.321 106.153 123.616 105.974 123.927 105.663L125.946 103.644L126.338 104.037L124.413 105.962C124.177 106.199 123.949 106.382 123.731 106.513C123.516 106.647 123.304 106.725 123.096 106.747C122.887 106.769 122.678 106.731 122.47 106.635C122.264 106.541 122.052 106.386 121.834 106.167C121.616 105.949 121.46 105.738 121.367 105.532C121.277 105.33 121.244 105.126 121.269 104.92C121.294 104.714 121.373 104.504 121.507 104.289C121.644 104.077 121.831 103.853 122.068 103.616L123.993 101.691L124.385 102.084ZM124.314 108.535L123.921 108.143L127.183 104.881L128.482 106.18C128.768 106.467 128.911 106.769 128.911 107.087C128.915 107.408 128.767 107.717 128.468 108.016C128.228 108.256 127.974 108.398 127.706 108.442C127.444 108.485 127.181 108.425 126.916 108.259L126.225 110.446L125.781 110.002L126.477 107.895L125.716 107.133L124.314 108.535ZM126.958 107.703C127.114 107.859 127.275 107.939 127.44 107.942C127.608 107.948 127.767 107.876 127.916 107.727L128.159 107.484C128.309 107.334 128.38 107.175 128.374 107.007C128.371 106.842 128.292 106.682 128.136 106.526L127.229 105.62L126.052 106.797L126.958 107.703ZM130.135 109.535L130.5 109.899L129.715 111.198L128.916 112.511L128.925 112.52L130.276 111.759L131.621 111.021L131.953 111.352L131.224 112.707L130.467 114.062L130.477 114.072L131.78 113.263L133.084 112.483L133.434 112.834L130.383 114.604L129.921 114.142L130.743 112.647L131.266 111.703L131.257 111.693L130.318 112.221L128.823 113.044L128.369 112.591L130.135 109.535ZM133.274 117.495C133.134 117.355 133.07 117.217 133.083 117.08C133.098 116.946 133.154 116.815 133.251 116.687L133.228 116.664C133.025 116.76 132.826 116.785 132.629 116.739C132.433 116.692 132.251 116.584 132.083 116.416C131.827 116.161 131.693 115.896 131.681 115.622C131.672 115.351 131.779 115.103 132.003 114.879C132.231 114.652 132.488 114.56 132.774 114.603C133.064 114.65 133.385 114.849 133.737 115.201L134.213 115.678L134.452 115.44C134.623 115.268 134.707 115.091 134.704 114.907C134.701 114.723 134.603 114.535 134.41 114.342C134.263 114.195 134.107 114.105 133.942 114.071C133.78 114.04 133.612 114.046 133.438 114.089L133.424 113.655C133.62 113.589 133.835 113.583 134.069 113.636C134.305 113.686 134.533 113.82 134.751 114.038C135.044 114.331 135.199 114.63 135.218 114.935C135.237 115.24 135.118 115.521 134.863 115.776L133.536 117.103L133.812 117.379L133.485 117.706L133.274 117.495ZM132.461 116.159C132.555 116.253 132.651 116.327 132.751 116.383C132.851 116.44 132.949 116.475 133.045 116.491C133.142 116.507 133.232 116.503 133.316 116.482C133.4 116.46 133.474 116.418 133.536 116.355L133.933 115.958L133.438 115.463C133.223 115.248 133.034 115.122 132.872 115.085C132.714 115.05 132.575 115.092 132.457 115.211L132.358 115.309C132.24 115.427 132.19 115.561 132.209 115.711C132.231 115.863 132.315 116.013 132.461 116.159ZM134.415 118.636C134.284 118.506 134.22 118.37 134.224 118.23C134.233 118.09 134.294 117.964 134.406 117.851L137.475 114.782L137.849 115.155L134.719 118.286L135.074 118.641L134.747 118.968L134.415 118.636ZM135.665 119.887C135.535 119.756 135.471 119.62 135.474 119.48C135.483 119.34 135.544 119.214 135.656 119.102L138.726 116.032L139.099 116.406L135.969 119.536L136.324 119.891L135.997 120.218L135.665 119.887ZM137.392 121.725C137.226 121.56 137.107 121.381 137.032 121.188C136.96 120.998 136.931 120.8 136.943 120.594C136.962 120.389 137.021 120.183 137.121 119.977C137.226 119.772 137.376 119.573 137.569 119.379C137.759 119.189 137.957 119.041 138.163 118.936C138.371 118.833 138.577 118.774 138.779 118.758C138.988 118.742 139.187 118.77 139.377 118.842C139.57 118.917 139.75 119.037 139.915 119.202C140.077 119.364 140.192 119.538 140.26 119.725C140.329 119.912 140.355 120.104 140.34 120.3C140.327 120.493 140.273 120.685 140.176 120.875C140.083 121.068 139.95 121.25 139.779 121.421L139.602 121.599L137.868 119.865L137.756 119.977C137.653 120.08 137.572 120.192 137.513 120.314C137.46 120.435 137.431 120.558 137.424 120.683C137.421 120.811 137.445 120.937 137.494 121.061C137.547 121.189 137.63 121.309 137.742 121.421C137.895 121.574 138.063 121.67 138.247 121.711C138.433 121.755 138.625 121.741 138.821 121.669L138.896 122.127C138.653 122.214 138.398 122.226 138.13 122.164C137.865 122.099 137.619 121.952 137.392 121.725ZM139.602 119.515C139.499 119.412 139.387 119.337 139.265 119.291C139.147 119.241 139.024 119.217 138.896 119.221C138.771 119.227 138.647 119.258 138.522 119.314C138.401 119.367 138.287 119.446 138.181 119.552L138.148 119.585L139.48 120.917L139.531 120.865C139.746 120.65 139.859 120.42 139.868 120.174C139.883 119.928 139.795 119.708 139.602 119.515ZM139.638 123.859C139.507 123.729 139.443 123.593 139.447 123.453C139.456 123.313 139.52 123.183 139.638 123.065L141.325 121.378L140.928 120.981L141.255 120.654L141.479 120.878C141.56 120.959 141.63 120.998 141.689 120.995C141.755 120.992 141.828 120.95 141.909 120.869L142.357 120.421L142.694 120.757L142.026 121.425L142.554 121.953L142.227 122.28L141.699 121.752L139.942 123.509L140.432 124L140.105 124.327L139.638 123.859Z" fill="#333333"/>
</g>
<g clip-path="url(#clip3_1_10276)">
<g clip-path="url(#clip4_1_10276)">
<rect width="94.3946" height="56.6368" transform="translate(72.8438 -8.10938) rotate(45)" fill="white"/>
<g opacity="0.8" filter="url(#filter3_f_1_10276)">
<circle cx="63.4991" cy="102.691" r="60.4126" transform="rotate(45 63.4991 102.691)" fill="#F44336"/>
</g>
<g opacity="0.8" filter="url(#filter4_f_1_10276)">
<circle cx="138.256" cy="75.9919" r="30.2063" transform="rotate(45 138.256 75.9919)" fill="#283991"/>
</g>
<g opacity="0.8" filter="url(#filter5_f_1_10276)">
<circle cx="72.8437" cy="2.57018" r="18.8789" transform="rotate(45 72.8437 2.57018)" fill="#F44336"/>
</g>
<g style="mix-blend-mode:overlay" opacity="0.16">
<path d="M145.153 58.6377L95.7597 22.7646L51.8744 51.0177L94.5076 93.651L145.153 58.6377Z" fill="white"/>
</g>
</g>
<rect x="72.8438" y="2.57019" width="15.1031" height="15.1031" rx="7.55157" transform="rotate(45 72.8438 2.57019)" fill="white"/>
<path fill-rule="evenodd" clip-rule="evenodd" d="M77.9577 7.68408C76.87 6.71494 75.5701 6.11558 74.2198 5.88405L80.3819 12.0461C80.1503 10.6958 79.5509 9.39585 78.5818 8.30817L78.4175 8.14387L77.9577 7.68408ZM72.207 5.80855C71.6646 5.86125 71.1275 5.97405 70.6048 6.14403L77.0256 12.565L80.1218 15.6612C80.2917 15.1385 80.4047 14.6015 80.4572 14.059L78.0859 11.6875L72.207 5.80855ZM68.012 7.446C68.3738 7.14245 68.7575 6.87889 69.1576 6.65427L79.4319 16.9286C79.2073 17.3286 78.9437 17.7123 78.6402 18.0743L68.012 7.446ZM67.0449 8.41708C66.743 8.78086 66.4816 9.16675 66.2589 9.5684L76.5178 19.8273C76.9196 19.6047 77.3054 19.3432 77.6691 19.0413L67.0449 8.41708ZM65.3481 12.5331C65.3974 11.988 65.5072 11.4478 65.6748 10.9221L72.4096 17.6569L75.1641 20.4114C74.6384 20.5791 74.0982 20.6888 73.5532 20.7382L70.9553 18.1403L65.3481 12.5331ZM67.293 18.3417L67.3086 18.3584L67.3241 18.3752C67.386 18.4417 67.4489 18.5077 67.5136 18.5724C68.6449 19.7037 70.0516 20.3935 71.5243 20.6474L69.8095 18.9326L65.4389 14.562C65.6757 15.936 66.2924 17.2527 67.293 18.3417Z" fill="#F44336"/>
<path d="M78.0668 7.79866C75.2767 5.1198 70.9366 5.00236 68.0112 7.44809L73.2144 12.6513L78.0669 7.79875L78.0668 7.79866Z" fill="#283991"/>
<path d="M70.8946 6.65485L70.7261 6.98593L70.9894 7.24931L70.6219 7.1907L70.4533 7.52205L70.3949 7.15452L70.0274 7.09615L70.3586 6.92741L70.3001 6.55994L70.5635 6.82333L70.8946 6.65485Z" fill="#EFEFEF"/>
<path d="M70.0121 7.53734L69.8434 7.86858L70.1068 8.13196L69.7393 8.07335L69.5707 8.4047L69.5122 8.03717L69.1448 7.9788L69.476 7.81006L69.4174 7.44259L69.6808 7.70597L70.0121 7.53734Z" fill="#EFEFEF"/>
<path d="M73.1031 6.21529L72.9345 6.54648L73.1978 6.80978L72.8303 6.75132L72.6618 7.08242L72.6033 6.71514L72.2359 6.6565L72.567 6.48803L72.5084 6.12038L72.7718 6.38377L73.1031 6.21529Z" fill="#EFEFEF"/>
<path d="M72.2205 7.09794L72.0519 7.42913L72.3152 7.69242L71.9478 7.63379L71.7792 7.96507L71.7206 7.59778L71.3532 7.53915L71.6845 7.37049L71.6258 7.00303L71.8892 7.26641L72.2205 7.09794Z" fill="#EFEFEF"/>
<path d="M71.3378 7.98059L71.1692 8.31187L71.4325 8.57516L71.0652 8.51644L70.8965 8.84772L70.8381 8.48027L70.4706 8.4218L70.8019 8.25314L70.7431 7.88577L71.0064 8.14915L71.3378 7.98059Z" fill="#EFEFEF"/>
<path d="M69.1276 7.07878L69.2962 6.74743L69.6635 6.80606L69.4003 6.54284L69.4126 6.5187C69.2945 6.57901 69.1781 6.64319 69.0627 6.7104L69.0692 6.71136L69.1276 7.07878Z" fill="#EFEFEF"/>
<path d="M70.9101 6.2135L71.2775 6.27189L71.336 6.63942L71.5046 6.30807L71.8721 6.36655L71.6087 6.10317L71.7772 5.77206L71.4461 5.94054L71.349 5.84348C71.3038 5.8527 71.2589 5.86267 71.2137 5.8728L71.2413 6.04478L70.9101 6.2135Z" fill="#EFEFEF"/>
<path d="M73.4859 5.8325L73.5445 6.19978L73.7129 5.86868L74.0804 5.92707L73.9283 5.77498C73.7028 5.74218 73.4762 5.71955 73.2488 5.70742L73.1184 5.77368L73.4859 5.8325Z" fill="#EFEFEF"/>
<path d="M74.4443 6.21714L74.8118 6.27562L74.8702 6.64306L75.0389 6.31178L75.4061 6.37032L75.1429 6.10703L75.1654 6.06235C75.0307 6.01862 74.8951 5.97765 74.7585 5.94172L74.7755 6.04837L74.4443 6.21714Z" fill="#EFEFEF"/>
<path d="M74.4289 6.65856L74.2604 6.9896L74.5237 7.25289L74.1562 7.19441L73.9875 7.5257L73.9292 7.15823L73.5616 7.09978L73.8929 6.93112L73.8344 6.56352L74.0977 6.82688L74.4289 6.65856Z" fill="#EFEFEF"/>
<path d="M73.5462 7.54121L73.3778 7.87225L73.6411 8.13554L73.2736 8.07706L73.1049 8.40834L73.0465 8.04088L72.679 7.98242L73.0103 7.81377L72.9517 7.44617L73.2151 7.70953L73.5462 7.54121Z" fill="#EFEFEF"/>
<path d="M72.6636 8.42386L72.4951 8.75496L72.7584 9.01825L72.3909 8.95971L72.2223 9.29099L72.1639 8.92352L71.7963 8.86507L72.1276 8.69641L72.069 8.32888L72.3324 8.59224L72.6636 8.42386Z" fill="#EFEFEF"/>
<path d="M71.7811 9.30635L71.6124 9.63761L71.8757 9.9009L71.5083 9.84235L71.3396 10.1736L71.2812 9.80617L70.9137 9.74772L71.245 9.57906L71.1864 9.21153L71.4497 9.47489L71.7811 9.30635Z" fill="#EFEFEF"/>
<path d="M75.7548 7.10166L75.5862 7.43285L75.8495 7.69615L75.482 7.63778L75.3135 7.96879L75.2549 7.60151L74.8875 7.54281L75.2187 7.3744L75.1601 7.00678L75.4235 7.27014L75.7548 7.10166Z" fill="#EFEFEF"/>
<path d="M74.8721 7.98431L74.7036 8.3155L74.9669 8.57879L74.5994 8.52043L74.4308 8.85144L74.3723 8.48415L74.0048 8.42545L74.336 8.25704L74.2775 7.88942L74.5408 8.15278L74.8721 7.98431Z" fill="#EFEFEF"/>
<path d="M73.9895 8.86695L73.8209 9.19815L74.0842 9.46144L73.7169 9.40289L73.5482 9.73409L73.4896 9.3668L73.1222 9.3081L73.4535 9.13951L73.3948 8.77207L73.6582 9.03543L73.9895 8.86695Z" fill="#EFEFEF"/>
<path d="M73.1068 9.7496L72.9382 10.0809L73.2015 10.3442L72.8343 10.2855L72.6655 10.6167L72.6071 10.2493L72.2395 10.1907L72.5709 10.0222L72.5121 9.65481L72.7755 9.91817L73.1068 9.7496Z" fill="#EFEFEF"/>
<path d="M77.0805 7.54493L76.912 7.87613L77.1752 8.13942L76.8079 8.08078L76.6392 8.41207L76.5808 8.0446L76.2132 7.98608L76.5446 7.81749L76.4859 7.45005L76.7492 7.71334L77.0805 7.54493Z" fill="#EFEFEF"/>
<path d="M76.1979 8.42758L76.0295 8.75862L76.2928 9.02191L75.9252 8.96343L75.7566 9.29471L75.6982 8.92725L75.3306 8.86873L75.6619 8.70014L75.6034 8.33254L75.8667 8.59583L76.1979 8.42758Z" fill="#EFEFEF"/>
<path d="M75.3152 9.31023L75.1468 9.64126L75.4101 9.90456L75.0426 9.84608L74.8739 10.1774L74.8156 9.8099L74.4479 9.75137L74.7793 9.58279L74.7207 9.21519L74.984 9.47848L75.3152 9.31023Z" fill="#EFEFEF"/>
<path d="M74.4326 10.1929L74.2641 10.524L74.5274 10.7873L74.1599 10.7287L73.9913 11.06L73.9329 10.6925L73.5653 10.634L73.8966 10.4654L73.838 10.0979L74.1013 10.3612L74.4326 10.1929Z" fill="#EFEFEF"/>
<path d="M73.5501 11.0754L73.3815 11.4066L73.6447 11.6699L73.2773 11.6114L73.1086 11.9427L73.0503 11.5752L72.6826 11.5167L73.014 11.3481L72.9554 10.9805L73.2187 11.2438L73.5501 11.0754Z" fill="#EFEFEF"/>
<path d="M49.6612 27.3599L47.6428 29.3783C47.3313 29.6898 47.1522 29.9842 47.1055 30.2614C47.0619 30.5355 47.1849 30.8174 47.4746 31.1071C47.7643 31.3968 48.0462 31.5198 48.3203 31.4762C48.5975 31.4295 48.8919 31.2504 49.2033 30.9389L51.2218 28.9205L51.6143 29.3129L49.6893 31.2379C49.4525 31.4747 49.2252 31.6584 49.0071 31.7893C48.7922 31.9232 48.5804 32.0011 48.3717 32.0229C48.163 32.0447 47.9543 32.0073 47.7456 31.9107C47.54 31.8173 47.3282 31.6615 47.1102 31.4435C46.8921 31.2255 46.7364 31.0137 46.6429 30.8081C46.5526 30.6056 46.5199 30.4016 46.5448 30.196C46.5697 29.9904 46.6492 29.7802 46.7831 29.5652C46.9202 29.3534 47.107 29.1292 47.3438 28.8924L49.2688 26.9674L49.6612 27.3599ZM50.0571 34.3905C49.7924 34.1257 49.6164 33.8501 49.5292 33.5635C49.4451 33.2738 49.4264 32.9748 49.4731 32.6664L50.0057 32.7131C49.9684 32.981 49.9793 33.2255 50.0384 33.4467C50.1007 33.6647 50.2269 33.8687 50.4169 34.0587C50.6505 34.2924 50.8841 34.4138 51.1177 34.4232C51.3545 34.4356 51.5663 34.3484 51.7532 34.1615C51.9089 34.0058 51.9821 33.8392 51.9728 33.6616C51.9634 33.4841 51.8762 33.2629 51.7111 32.9981L51.5055 32.6711C51.275 32.3035 51.1489 31.9718 51.1271 31.6759C51.1115 31.38 51.2299 31.1059 51.4822 30.8536C51.6255 30.7103 51.7797 30.609 51.9447 30.5499C52.1098 30.4907 52.2765 30.4704 52.4447 30.4891C52.616 30.5109 52.7858 30.5685 52.954 30.662C53.1284 30.7554 53.295 30.8816 53.4539 31.0404C53.7 31.2865 53.8651 31.5419 53.9492 31.8067C54.0364 32.0746 54.0535 32.3565 54.0006 32.6524L53.4913 32.573C53.5255 32.358 53.5146 32.1509 53.4586 31.9515C53.4025 31.7522 53.2795 31.5575 53.0895 31.3675C52.8808 31.1588 52.6705 31.0389 52.4587 31.0077C52.2531 30.9766 52.0616 31.0498 51.884 31.2273C51.7283 31.3831 51.6597 31.5513 51.6784 31.7319C51.7033 31.9126 51.7952 32.1291 51.9541 32.3814L52.1597 32.7085C52.4089 33.1009 52.5319 33.442 52.5288 33.7317C52.5257 34.0214 52.4026 34.2877 52.1597 34.5307C52.0102 34.6802 51.8482 34.7892 51.6737 34.8577C51.5024 34.9294 51.3264 34.9589 51.1458 34.9465C50.9651 34.934 50.7813 34.8811 50.5944 34.7876C50.4107 34.6973 50.2316 34.5649 50.0571 34.3905ZM55.1736 32.8722L56.2669 33.9656C56.4693 34.168 56.6189 34.3861 56.7154 34.6197C56.812 34.8533 56.8494 35.0963 56.8275 35.3486C56.812 35.6009 56.7325 35.861 56.5893 36.1288C56.4491 36.3936 56.2435 36.6615 55.9725 36.9325C55.7015 37.2035 55.4321 37.4106 55.1642 37.5539C54.8994 37.6941 54.6394 37.7735 54.3839 37.7922C54.1347 37.8109 53.8933 37.7719 53.6597 37.6754C53.4261 37.5788 53.2081 37.4293 53.0056 37.2268L51.9123 36.1335L55.1736 32.8722ZM53.3514 36.8811C53.4853 37.015 53.6301 37.1162 53.7859 37.1848C53.9447 37.2502 54.1083 37.2798 54.2765 37.2735C54.4447 37.2673 54.6129 37.2237 54.7811 37.1427C54.9555 37.0617 55.1237 36.9403 55.2857 36.7783L55.8183 36.2456C55.9803 36.0837 56.1002 35.917 56.1781 35.7457C56.2622 35.5744 56.3074 35.4046 56.3136 35.2364C56.3198 35.0682 56.2887 34.9062 56.2201 34.7505C56.1547 34.5916 56.0551 34.4452 55.9211 34.3113L55.2203 33.6105L52.6505 36.1802L53.3514 36.8811ZM58.2723 37.6717L58.6368 38.0362L57.8518 39.3351L57.0529 40.648L57.0622 40.6573L58.4125 39.8958L59.7581 39.1575L60.0899 39.4893L59.361 40.8442L58.6041 42.1992L58.6134 42.2086L59.917 41.4002L61.2206 40.62L61.571 40.9704L58.52 42.7412L58.0574 42.2786L58.8797 40.7835L59.403 39.8397L59.3937 39.8304L58.4546 40.3583L56.9594 41.1806L56.5062 40.7274L58.2723 37.6717ZM61.4111 45.6324C61.271 45.4922 61.2071 45.3536 61.2196 45.2165C61.2352 45.0826 61.2912 44.9518 61.3878 44.8241L61.3644 44.8007C61.162 44.8973 60.9626 44.9222 60.7664 44.8754C60.5701 44.8287 60.3879 44.7213 60.2197 44.5531C59.9643 44.2976 59.8303 44.0329 59.8179 43.7588C59.8085 43.4878 59.916 43.2401 60.1403 43.0159C60.3677 42.7885 60.6246 42.6966 60.9112 42.7402C61.2009 42.7869 61.5217 42.9863 61.8737 43.3383L62.3503 43.8148L62.5886 43.5765C62.7599 43.4052 62.844 43.2277 62.8409 43.0439C62.8378 42.8601 62.7396 42.6717 62.5465 42.4786C62.4001 42.3322 62.2444 42.2418 62.0793 42.2076C61.9173 42.1764 61.7491 42.1826 61.5747 42.2263L61.5607 41.7917C61.7569 41.7263 61.9718 41.7201 62.2054 41.773C62.4422 41.8229 62.6695 41.9568 62.8876 42.1749C63.1804 42.4677 63.3361 42.7667 63.3548 43.0719C63.3735 43.3772 63.2551 43.6575 62.9997 43.913L61.6728 45.2399L61.9485 45.5156L61.6214 45.8426L61.4111 45.6324ZM60.5982 44.2961C60.6916 44.3895 60.7882 44.4643 60.8878 44.5204C60.9875 44.5764 61.0856 44.6122 61.1822 44.6278C61.2788 44.6434 61.3691 44.6403 61.4532 44.6185C61.5373 44.5967 61.6105 44.5546 61.6728 44.4923L62.0699 44.0952L61.5747 43.5999C61.3597 43.385 61.1713 43.2588 61.0093 43.2215C60.8505 43.1872 60.7119 43.2292 60.5935 43.3476L60.4954 43.4457C60.377 43.5641 60.3272 43.698 60.3459 43.8475C60.3677 44.0002 60.4518 44.1497 60.5982 44.2961ZM62.552 46.7732C62.4212 46.6424 62.3573 46.5069 62.3605 46.3667C62.3698 46.2266 62.4305 46.1004 62.5427 45.9883L65.6124 42.9186L65.9862 43.2924L62.8557 46.4228L63.2108 46.7779L62.8838 47.105L62.552 46.7732ZM63.8022 48.0234C63.6714 47.8926 63.6075 47.7571 63.6107 47.617C63.62 47.4768 63.6807 47.3506 63.7929 47.2385L66.8626 44.1688L67.2364 44.5426L64.1059 47.673L64.461 48.0281L64.134 48.3552L63.8022 48.0234ZM65.5285 49.8618C65.3634 49.6967 65.2434 49.5176 65.1687 49.3245C65.097 49.1345 65.0675 48.9367 65.0799 48.7311C65.0986 48.5255 65.1578 48.32 65.2575 48.1144C65.3634 47.9088 65.5129 47.7094 65.706 47.5163C65.896 47.3263 66.0938 47.1784 66.2994 47.0724C66.5081 46.9697 66.7137 46.9105 66.9161 46.8949C67.1248 46.8793 67.3242 46.9074 67.5142 46.979C67.7073 47.0538 67.8864 47.1737 68.0515 47.3388C68.2135 47.5007 68.3287 47.6752 68.3972 47.8621C68.4658 48.049 68.4923 48.2405 68.4767 48.4368C68.4642 48.6299 68.4097 48.8214 68.3131 49.0115C68.2197 49.2046 68.0873 49.3868 67.916 49.5581L67.7385 49.7357L66.005 48.0022L65.8929 48.1144C65.7901 48.2172 65.7091 48.3293 65.6499 48.4508C65.597 48.5723 65.5674 48.6953 65.5612 48.8199C65.558 48.9476 65.5814 49.0737 65.6312 49.1983C65.6842 49.3261 65.7667 49.446 65.8789 49.5581C66.0315 49.7107 66.1997 49.8073 66.3835 49.8478C66.5704 49.8914 66.7619 49.8774 66.9582 49.8057L67.0329 50.2636C66.79 50.3508 66.5346 50.3633 66.2667 50.301C66.0019 50.2356 65.7558 50.0892 65.5285 49.8618ZM67.7385 47.6518C67.6357 47.549 67.5235 47.4743 67.402 47.4275C67.2837 47.3777 67.1606 47.3543 67.0329 47.3575C66.9083 47.3637 66.7837 47.3948 66.6592 47.4509C66.5377 47.5039 66.424 47.5833 66.3181 47.6892L66.2854 47.7219L67.617 49.0535L67.6684 49.0021C67.8833 48.7872 67.9954 48.5567 68.0048 48.3106C68.0203 48.0645 67.9316 47.8449 67.7385 47.6518ZM67.775 51.9962C67.6442 51.8654 67.5803 51.7299 67.5835 51.5898C67.5928 51.4496 67.6567 51.3203 67.775 51.202L69.4617 49.5153L69.0646 49.1181L69.3916 48.7911L69.6159 49.0153C69.6969 49.0963 69.767 49.1352 69.8262 49.1321C69.8916 49.129 69.9648 49.087 70.0458 49.006L70.4943 48.5574L70.8307 48.8938L70.1626 49.562L70.6905 50.0899L70.3635 50.417L69.8355 49.889L68.0787 51.6458L68.5693 52.1364L68.2423 52.4635L67.775 51.9962Z" fill="#333333"/>
</g>
<g clip-path="url(#clip5_1_10276)">
<g clip-path="url(#clip6_1_10276)">
<rect width="94.3946" height="56.6368" transform="translate(-0.15625 -82.1094) rotate(45)" fill="white"/>
<g opacity="0.8" filter="url(#filter6_f_1_10276)">
<circle cx="-9.50087" cy="28.6908" r="60.4126" transform="rotate(45 -9.50087 28.6908)" fill="#283991"/>
</g>
<g opacity="0.8" filter="url(#filter7_f_1_10276)">
<circle cx="65.2559" cy="1.99194" r="30.2063" transform="rotate(45 65.2559 1.99194)" fill="#F44336"/>
</g>
<g opacity="0.8" filter="url(#filter8_f_1_10276)">
<circle cx="-0.156255" cy="-71.4298" r="18.8789" transform="rotate(45 -0.156255 -71.4298)" fill="#283991"/>
</g>
<g style="mix-blend-mode:overlay" opacity="0.16">
<path d="M72.1531 -15.3622L22.7597 -51.2354L-21.1256 -22.9822L21.5076 19.651L72.1531 -15.3622Z" fill="white"/>
</g>
</g>
</g>
<g clip-path="url(#clip7_1_10276)">
<g clip-path="url(#clip8_1_10276)">
<rect width="94.3946" height="56.6368" transform="translate(189.844 18.8906) rotate(45)" fill="white"/>
<g opacity="0.8" filter="url(#filter9_f_1_10276)">
<circle cx="180.499" cy="129.691" r="60.4126" transform="rotate(45 180.499 129.691)" fill="#F44336"/>
</g>
<g opacity="0.8" filter="url(#filter10_f_1_10276)">
<circle cx="255.256" cy="102.992" r="30.2063" transform="rotate(45 255.256 102.992)" fill="#283991"/>
</g>
<g opacity="0.8" filter="url(#filter11_f_1_10276)">
<circle cx="189.844" cy="29.5702" r="18.8789" transform="rotate(45 189.844 29.5702)" fill="#F44336"/>
</g>
<g style="mix-blend-mode:overlay" opacity="0.16">
<path d="M262.153 85.6377L212.76 49.7646L168.874 78.0177L211.508 120.651L262.153 85.6377Z" fill="white"/>
</g>
</g>
<path d="M166.661 54.3599L164.643 56.3783C164.331 56.6898 164.152 56.9842 164.105 57.2614C164.062 57.5355 164.185 57.8174 164.475 58.1071C164.764 58.3968 165.046 58.5198 165.32 58.4762C165.598 58.4295 165.892 58.2504 166.203 57.9389L168.222 55.9205L168.614 56.3129L166.689 58.2379C166.453 58.4747 166.225 58.6584 166.007 58.7893C165.792 58.9232 165.58 59.0011 165.372 59.0229C165.163 59.0447 164.954 59.0073 164.746 58.9107C164.54 58.8173 164.328 58.6615 164.11 58.4435C163.892 58.2255 163.736 58.0137 163.643 57.8081C163.553 57.6056 163.52 57.4016 163.545 57.196C163.57 56.9904 163.649 56.7802 163.783 56.5652C163.92 56.3534 164.107 56.1292 164.344 55.8924L166.269 53.9674L166.661 54.3599ZM167.057 61.3905C166.792 61.1257 166.616 60.8501 166.529 60.5635C166.445 60.2738 166.426 59.9748 166.473 59.6664L167.006 59.7131C166.968 59.981 166.979 60.2255 167.038 60.4467C167.101 60.6647 167.227 60.8687 167.417 61.0587C167.651 61.2924 167.884 61.4138 168.118 61.4232C168.354 61.4356 168.566 61.3484 168.753 61.1615C168.909 61.0058 168.982 60.8392 168.973 60.6616C168.963 60.4841 168.876 60.2629 168.711 59.9981L168.506 59.6711C168.275 59.3035 168.149 58.9718 168.127 58.6759C168.112 58.38 168.23 58.1059 168.482 57.8536C168.625 57.7103 168.78 57.609 168.945 57.5499C169.11 57.4907 169.276 57.4704 169.445 57.4891C169.616 57.5109 169.786 57.5685 169.954 57.662C170.128 57.7554 170.295 57.8816 170.454 58.0404C170.7 58.2865 170.865 58.5419 170.949 58.8067C171.036 59.0746 171.054 59.3565 171.001 59.6524L170.491 59.573C170.526 59.358 170.515 59.1509 170.459 58.9515C170.402 58.7522 170.279 58.5575 170.089 58.3675C169.881 58.1588 169.671 58.0389 169.459 58.0077C169.253 57.9766 169.062 58.0498 168.884 58.2273C168.728 58.3831 168.66 58.5513 168.678 58.7319C168.703 58.9126 168.795 59.1291 168.954 59.3814L169.16 59.7085C169.409 60.1009 169.532 60.442 169.529 60.7317C169.526 61.0214 169.403 61.2877 169.16 61.5307C169.01 61.6802 168.848 61.7892 168.674 61.8577C168.502 61.9294 168.326 61.9589 168.146 61.9465C167.965 61.934 167.781 61.8811 167.594 61.7876C167.411 61.6973 167.232 61.5649 167.057 61.3905ZM172.174 59.8722L173.267 60.9656C173.469 61.168 173.619 61.3861 173.715 61.6197C173.812 61.8533 173.849 62.0963 173.828 62.3486C173.812 62.6009 173.733 62.861 173.589 63.1288C173.449 63.3936 173.244 63.6615 172.973 63.9325C172.702 64.2035 172.432 64.4106 172.164 64.5539C171.899 64.6941 171.639 64.7735 171.384 64.7922C171.135 64.8109 170.893 64.7719 170.66 64.6754C170.426 64.5788 170.208 64.4293 170.006 64.2268L168.912 63.1335L172.174 59.8722ZM170.351 63.8811C170.485 64.015 170.63 64.1162 170.786 64.1848C170.945 64.2502 171.108 64.2798 171.276 64.2735C171.445 64.2673 171.613 64.2237 171.781 64.1427C171.956 64.0617 172.124 63.9403 172.286 63.7783L172.818 63.2456C172.98 63.0837 173.1 62.917 173.178 62.7457C173.262 62.5744 173.307 62.4046 173.314 62.2364C173.32 62.0682 173.289 61.9062 173.22 61.7505C173.155 61.5916 173.055 61.4452 172.921 61.3113L172.22 60.6105L169.651 63.1802L170.351 63.8811ZM175.272 64.6717L175.637 65.0362L174.852 66.3351L174.053 67.648L174.062 67.6573L175.413 66.8958L176.758 66.1575L177.09 66.4893L176.361 67.8442L175.604 69.1992L175.613 69.2086L176.917 68.4002L178.221 67.62L178.571 67.9704L175.52 69.7412L175.057 69.2786L175.88 67.7835L176.403 66.8397L176.394 66.8304L175.455 67.3583L173.959 68.1806L173.506 67.7274L175.272 64.6717ZM178.411 72.6324C178.271 72.4922 178.207 72.3536 178.22 72.2165C178.235 72.0826 178.291 71.9518 178.388 71.8241L178.364 71.8007C178.162 71.8973 177.963 71.9222 177.766 71.8754C177.57 71.8287 177.388 71.7213 177.22 71.5531C176.964 71.2976 176.83 71.0329 176.818 70.7588C176.809 70.4878 176.916 70.2401 177.14 70.0159C177.368 69.7885 177.625 69.6966 177.911 69.7402C178.201 69.7869 178.522 69.9863 178.874 70.3383L179.35 70.8148L179.589 70.5765C179.76 70.4052 179.844 70.2277 179.841 70.0439C179.838 69.8601 179.74 69.6717 179.547 69.4786C179.4 69.3322 179.244 69.2418 179.079 69.2076C178.917 69.1764 178.749 69.1826 178.575 69.2263L178.561 68.7917C178.757 68.7263 178.972 68.7201 179.205 68.773C179.442 68.8229 179.67 68.9568 179.888 69.1749C180.18 69.4677 180.336 69.7667 180.355 70.0719C180.374 70.3772 180.255 70.6575 180 70.913L178.673 72.2399L178.948 72.5156L178.621 72.8426L178.411 72.6324ZM177.598 71.2961C177.692 71.3895 177.788 71.4643 177.888 71.5204C177.988 71.5764 178.086 71.6122 178.182 71.6278C178.279 71.6434 178.369 71.6403 178.453 71.6185C178.537 71.5967 178.61 71.5546 178.673 71.4923L179.07 71.0952L178.575 70.5999C178.36 70.385 178.171 70.2588 178.009 70.2215C177.85 70.1872 177.712 70.2292 177.593 70.3476L177.495 70.4457C177.377 70.5641 177.327 70.698 177.346 70.8475C177.368 71.0002 177.452 71.1497 177.598 71.2961ZM179.552 73.7732C179.421 73.6424 179.357 73.5069 179.36 73.3667C179.37 73.2266 179.431 73.1004 179.543 72.9883L182.612 69.9186L182.986 70.2924L179.856 73.4228L180.211 73.7779L179.884 74.105L179.552 73.7732ZM180.802 75.0234C180.671 74.8926 180.608 74.7571 180.611 74.617C180.62 74.4768 180.681 74.3506 180.793 74.2385L183.863 71.1688L184.236 71.5426L181.106 74.673L181.461 75.0281L181.134 75.3552L180.802 75.0234ZM182.528 76.8618C182.363 76.6967 182.243 76.5176 182.169 76.3245C182.097 76.1345 182.067 75.9367 182.08 75.7311C182.099 75.5255 182.158 75.32 182.257 75.1144C182.363 74.9088 182.513 74.7094 182.706 74.5163C182.896 74.3263 183.094 74.1784 183.299 74.0724C183.508 73.9697 183.714 73.9105 183.916 73.8949C184.125 73.8793 184.324 73.9074 184.514 73.979C184.707 74.0538 184.886 74.1737 185.051 74.3388C185.213 74.5007 185.329 74.6752 185.397 74.8621C185.466 75.049 185.492 75.2405 185.477 75.4368C185.464 75.6299 185.41 75.8214 185.313 76.0115C185.22 76.2046 185.087 76.3868 184.916 76.5581L184.738 76.7357L183.005 75.0022L182.893 75.1144C182.79 75.2172 182.709 75.3293 182.65 75.4508C182.597 75.5723 182.567 75.6953 182.561 75.8199C182.558 75.9476 182.581 76.0737 182.631 76.1983C182.684 76.3261 182.767 76.446 182.879 76.5581C183.032 76.7107 183.2 76.8073 183.383 76.8478C183.57 76.8914 183.762 76.8774 183.958 76.8057L184.033 77.2636C183.79 77.3508 183.535 77.3633 183.267 77.301C183.002 77.2356 182.756 77.0892 182.528 76.8618ZM184.738 74.6518C184.636 74.549 184.524 74.4743 184.402 74.4275C184.284 74.3777 184.161 74.3543 184.033 74.3575C183.908 74.3637 183.784 74.3948 183.659 74.4509C183.538 74.5039 183.424 74.5833 183.318 74.6892L183.285 74.7219L184.617 76.0535L184.668 76.0021C184.883 75.7872 184.995 75.5567 185.005 75.3106C185.02 75.0645 184.932 74.8449 184.738 74.6518ZM184.775 78.9962C184.644 78.8654 184.58 78.7299 184.583 78.5898C184.593 78.4496 184.657 78.3203 184.775 78.202L186.462 76.5153L186.065 76.1181L186.392 75.7911L186.616 76.0153C186.697 76.0963 186.767 76.1352 186.826 76.1321C186.892 76.129 186.965 76.087 187.046 76.006L187.494 75.5574L187.831 75.8938L187.163 76.562L187.691 77.0899L187.363 77.417L186.836 76.889L185.079 78.6458L185.569 79.1364L185.242 79.4635L184.775 78.9962Z" fill="#333333"/>
</g>
<g clip-path="url(#clip9_1_10276)">
<g clip-path="url(#clip10_1_10276)">
<rect width="94.3946" height="56.6368" transform="translate(117.844 -53.1094) rotate(45)" fill="white"/>
<g opacity="0.8" filter="url(#filter12_f_1_10276)">
<circle cx="108.499" cy="57.6908" r="60.4126" transform="rotate(45 108.499 57.6908)" fill="#283991"/>
</g>
<g opacity="0.8" filter="url(#filter13_f_1_10276)">
<circle cx="183.256" cy="30.9919" r="30.2063" transform="rotate(45 183.256 30.9919)" fill="#F44336"/>
</g>
<g opacity="0.8" filter="url(#filter14_f_1_10276)">
<circle cx="117.844" cy="-42.4298" r="18.8789" transform="rotate(45 117.844 -42.4298)" fill="#283991"/>
</g>
<g style="mix-blend-mode:overlay" opacity="0.16">
<path d="M190.153 13.6377L140.76 -22.2354L96.8744 6.01773L139.508 48.651L190.153 13.6377Z" fill="white"/>
</g>
</g>
<path d="M93.6193 -13.1126L93.6053 -13.1266C93.4122 -13.0145 93.1848 -12.9865 92.9231 -13.0425C92.6677 -13.0986 92.4154 -13.2512 92.1662 -13.5004C91.9669 -13.6998 91.8189 -13.9194 91.7224 -14.1592C91.632 -14.3991 91.5978 -14.6483 91.6196 -14.9068C91.6445 -15.1684 91.727 -15.4379 91.8672 -15.7151C92.0136 -15.9923 92.2239 -16.268 92.498 -16.5421C92.769 -16.8131 93.0415 -17.0202 93.3156 -17.1635C93.5928 -17.3099 93.8623 -17.3925 94.1239 -17.4111C94.3887 -17.4329 94.6441 -17.3956 94.8902 -17.299C95.1362 -17.2024 95.3636 -17.0498 95.5723 -16.8411C95.8651 -16.5483 96.0442 -16.2384 96.1096 -15.9113C96.1751 -15.5843 96.1533 -15.2603 96.0442 -14.9395L95.5256 -15.0656C95.6253 -15.3148 95.6502 -15.564 95.6004 -15.8132C95.5536 -16.0593 95.4275 -16.2851 95.2219 -16.4907C95.0786 -16.634 94.9213 -16.7383 94.75 -16.8037C94.5818 -16.8723 94.4074 -16.9034 94.2267 -16.8972C94.0492 -16.8878 93.8716 -16.8411 93.6941 -16.757C93.5165 -16.6729 93.3468 -16.5499 93.1848 -16.3879L92.6568 -15.8599C92.4948 -15.698 92.3702 -15.5266 92.283 -15.346C92.1989 -15.1684 92.1522 -14.9909 92.1429 -14.8133C92.1366 -14.6327 92.1693 -14.4536 92.241 -14.276C92.3157 -14.1016 92.431 -13.9365 92.5867 -13.7808C92.6989 -13.6686 92.8188 -13.5767 92.9465 -13.5051C93.0804 -13.4335 93.2144 -13.3899 93.3483 -13.3743C93.4854 -13.3556 93.6193 -13.368 93.7501 -13.4117C93.8841 -13.4584 94.0118 -13.5425 94.1333 -13.664L94.4557 -13.9863L93.7361 -14.7059L94.0819 -15.0516L95.1845 -13.949L93.5072 -12.2716L93.1427 -12.6361L93.6193 -13.1126ZM97.5408 -14.7605L98.8818 -13.4195C99.1528 -13.1485 99.2883 -12.8604 99.2883 -12.5552C99.2914 -12.2468 99.1652 -11.9649 98.9098 -11.7095C98.7883 -11.588 98.6684 -11.5023 98.55 -11.4525C98.4317 -11.4027 98.318 -11.3762 98.209 -11.3731C98.1031 -11.3731 98.0049 -11.3902 97.9146 -11.4245C97.8274 -11.4618 97.7526 -11.5023 97.6903 -11.5459L97.6623 -11.5179C97.7184 -11.4556 97.7682 -11.3746 97.8118 -11.275C97.8585 -11.1722 97.8835 -11.0569 97.8866 -10.9292C97.8928 -10.8046 97.8694 -10.6722 97.8165 -10.5321C97.7698 -10.3919 97.6794 -10.2548 97.5455 -10.1209C97.4116 -9.98696 97.2652 -9.88417 97.1063 -9.81253C96.9506 -9.73777 96.7933 -9.69572 96.6344 -9.68637C96.4755 -9.67703 96.3198 -9.69883 96.1672 -9.75179C96.0177 -9.80785 95.8822 -9.89663 95.7607 -10.0181L94.2796 -11.4992L97.5408 -14.7605ZM95.0178 -11.4525L95.985 -10.4853C96.1532 -10.3171 96.3276 -10.2268 96.5082 -10.2143C96.692 -10.205 96.8665 -10.2829 97.0315 -10.448L97.1904 -10.6068C97.3555 -10.7719 97.4318 -10.9448 97.4193 -11.1254C97.41 -11.3092 97.3212 -11.4852 97.153 -11.6534L96.1859 -12.6206L95.0178 -11.4525ZM96.5223 -12.957L97.424 -12.0552C97.5798 -11.8995 97.7402 -11.8169 97.9053 -11.8076C98.0704 -11.7983 98.2261 -11.8668 98.3725 -12.0132L98.5314 -12.172C98.6778 -12.3184 98.7463 -12.4742 98.7369 -12.6393C98.7276 -12.8044 98.645 -12.9648 98.4893 -13.1205L97.5875 -14.0223L96.5223 -12.957ZM97.3321 -8.44672L100.593 -11.708L101.892 -10.4091C102.185 -10.1163 102.325 -9.80791 102.313 -9.48397C102.307 -9.16002 102.159 -8.85321 101.869 -8.56352C101.579 -8.27384 101.271 -8.12433 100.944 -8.11498C100.623 -8.10564 100.316 -8.24737 100.023 -8.54016L99.1169 -9.44659L97.7245 -8.05425L97.3321 -8.44672ZM99.4626 -9.79234L100.369 -8.88591C100.525 -8.73017 100.685 -8.65074 100.85 -8.64763C101.019 -8.6414 101.177 -8.71304 101.327 -8.86255L101.57 -9.10551C101.719 -9.25502 101.791 -9.41388 101.785 -9.58209C101.782 -9.74717 101.702 -9.90759 101.546 -10.0633L100.64 -10.9698L99.4626 -9.79234ZM103.391 -7.20962L103.755 -6.84518L102.97 -5.54628L102.172 -4.23336L102.181 -4.22402L103.531 -4.9856L104.877 -5.72383L105.209 -5.39209L104.48 -4.03713L103.723 -2.68216L103.732 -2.67282L105.036 -3.48112L106.339 -4.2614L106.69 -3.91097L103.639 -2.14017L103.176 -2.60273L103.998 -4.09787L104.522 -5.04167L104.512 -5.05102L103.573 -4.52305L102.078 -3.70072L101.625 -4.15394L103.391 -7.20962ZM106.53 0.750992C106.39 0.610823 106.326 0.472211 106.338 0.335157C106.354 0.201218 106.41 0.0703937 106.506 -0.0573158L106.483 -0.0806772C106.281 0.0158835 106.081 0.0408024 105.885 -0.00592066C105.689 -0.0526436 105.507 -0.160106 105.338 -0.328309C105.083 -0.583728 104.949 -0.848492 104.937 -1.1226C104.927 -1.39359 105.035 -1.64122 105.259 -1.86549C105.486 -2.09288 105.743 -2.18477 106.03 -2.14116C106.32 -2.09444 106.64 -1.89509 106.992 -1.54311L107.469 -1.06653L107.707 -1.30482C107.879 -1.47614 107.963 -1.65368 107.959 -1.83746C107.956 -2.02124 107.858 -2.20969 107.665 -2.40281C107.519 -2.54921 107.363 -2.63954 107.198 -2.6738C107.036 -2.70495 106.868 -2.69872 106.693 -2.65511L106.679 -3.08964C106.876 -3.15505 107.09 -3.16128 107.324 -3.10833C107.561 -3.05849 107.788 -2.92455 108.006 -2.70651C108.299 -2.41371 108.455 -2.11468 108.473 -1.80943C108.492 -1.50417 108.374 -1.22383 108.118 -0.968413L106.791 0.358519L107.067 0.634184L106.74 0.961245L106.53 0.750992ZM105.717 -0.585285C105.81 -0.491839 105.907 -0.417083 106.006 -0.361015C106.106 -0.304948 106.204 -0.269127 106.301 -0.253552C106.397 -0.237978 106.488 -0.241093 106.572 -0.262897C106.656 -0.284701 106.729 -0.326751 106.791 -0.389049L107.189 -0.786194L106.693 -1.28146C106.478 -1.49638 106.29 -1.62254 106.128 -1.65991C105.969 -1.69418 105.83 -1.65213 105.712 -1.53376L105.614 -1.43564C105.496 -1.31728 105.446 -1.18334 105.464 -1.03383C105.486 -0.881198 105.57 -0.731684 105.717 -0.585285ZM107.671 1.89187C107.54 1.76105 107.476 1.62555 107.479 1.48538C107.488 1.34521 107.549 1.21906 107.661 1.10693L110.731 -1.96277L111.105 -1.58899L107.974 1.54145L108.329 1.89654L108.002 2.2236L107.671 1.89187ZM108.921 3.14208C108.79 3.01125 108.726 2.87576 108.729 2.73559C108.739 2.59542 108.799 2.46927 108.912 2.35713L111.981 -0.712567L112.355 -0.338784L109.225 2.79165L109.58 3.14675L109.253 3.47381L108.921 3.14208ZM110.647 4.98044C110.482 4.81536 110.362 4.63625 110.287 4.44313C110.216 4.25312 110.186 4.05533 110.199 3.84975C110.217 3.64417 110.276 3.43859 110.376 3.233C110.482 3.02742 110.632 2.82807 110.825 2.63495C111.015 2.44494 111.212 2.29699 111.418 2.19108C111.627 2.08829 111.832 2.02911 112.035 2.01353C112.243 1.99796 112.443 2.02599 112.633 2.09764C112.826 2.17239 113.005 2.29232 113.17 2.4574C113.332 2.61938 113.447 2.79381 113.516 2.9807C113.584 3.16759 113.611 3.35916 113.595 3.55539C113.583 3.74851 113.528 3.94008 113.432 4.13009C113.338 4.32321 113.206 4.50543 113.035 4.67674L112.857 4.85429L111.124 3.12087L111.012 3.233C110.909 3.33579 110.828 3.44793 110.769 3.56941C110.716 3.69089 110.686 3.81393 110.68 3.93852C110.677 4.06623 110.7 4.19238 110.75 4.31698C110.803 4.44469 110.885 4.56461 110.998 4.67674C111.15 4.82937 111.318 4.92593 111.502 4.96643C111.689 5.01003 111.881 4.99602 112.077 4.92438L112.152 5.38226C111.909 5.46948 111.653 5.48194 111.385 5.41964C111.121 5.35423 110.874 5.20783 110.647 4.98044ZM112.857 2.77045C112.754 2.66766 112.642 2.5929 112.521 2.54618C112.402 2.49634 112.279 2.47298 112.152 2.47609C112.027 2.48232 111.902 2.51347 111.778 2.56954C111.656 2.62249 111.543 2.70192 111.437 2.80783L111.404 2.84053L112.736 4.17214L112.787 4.12074C113.002 3.90582 113.114 3.67532 113.123 3.42924C113.139 3.18317 113.05 2.96357 112.857 2.77045ZM112.894 7.11488C112.763 6.98406 112.699 6.84856 112.702 6.70839C112.711 6.56822 112.775 6.43895 112.894 6.32059L114.58 4.63389L114.183 4.23674L114.51 3.90968L114.735 4.13395C114.816 4.21494 114.886 4.25388 114.945 4.25076C115.01 4.24765 115.083 4.2056 115.164 4.12461L115.613 3.67607L115.949 4.01247L115.281 4.68061L115.809 5.20858L115.482 5.53564L114.954 5.00767L113.197 6.76446L113.688 7.25505L113.361 7.58211L112.894 7.11488Z" fill="#333333"/>
</g>
</g>
<defs>
<filter id="filter0_f_1_10276" x="-0.429169" y="38.7625" width="271.857" height="271.857" filterUnits="userSpaceOnUse" color-interpolation-filters="sRGB">
<feFlood flood-opacity="0" result="BackgroundImageFix"/>
<feBlend mode="normal" in="SourceGraphic" in2="BackgroundImageFix" result="shape"/>
<feGaussianBlur stdDeviation="37.7579" result="effect1_foregroundBlur_1_10276"/>
</filter>
<filter id="filter1_f_1_10276" x="119.637" y="57.3731" width="181.238" height="181.238" filterUnits="userSpaceOnUse" color-interpolation-filters="sRGB">
<feFlood flood-opacity="0" result="BackgroundImageFix"/>
<feBlend mode="normal" in="SourceGraphic" in2="BackgroundImageFix" result="shape"/>
<feGaussianBlur stdDeviation="30.2063" result="effect1_foregroundBlur_1_10276"/>
</filter>
<filter id="filter2_f_1_10276" x="65.5522" y="-4.72129" width="158.583" height="158.583" filterUnits="userSpaceOnUse" color-interpolation-filters="sRGB">
<feFlood flood-opacity="0" result="BackgroundImageFix"/>
<feBlend mode="normal" in="SourceGraphic" in2="BackgroundImageFix" result="shape"/>
<feGaussianBlur stdDeviation="30.2063" result="effect1_foregroundBlur_1_10276"/>
</filter>
<filter id="filter3_f_1_10276" x="-72.4292" y="-33.2375" width="271.857" height="271.857" filterUnits="userSpaceOnUse" color-interpolation-filters="sRGB">
<feFlood flood-opacity="0" result="BackgroundImageFix"/>
<feBlend mode="normal" in="SourceGraphic" in2="BackgroundImageFix" result="shape"/>
<feGaussianBlur stdDeviation="37.7579" result="effect1_foregroundBlur_1_10276"/>
</filter>
<filter id="filter4_f_1_10276" x="47.637" y="-14.6269" width="181.238" height="181.238" filterUnits="userSpaceOnUse" color-interpolation-filters="sRGB">
<feFlood flood-opacity="0" result="BackgroundImageFix"/>
<feBlend mode="normal" in="SourceGraphic" in2="BackgroundImageFix" result="shape"/>
<feGaussianBlur stdDeviation="30.2063" result="effect1_foregroundBlur_1_10276"/>
</filter>
<filter id="filter5_f_1_10276" x="-6.44776" y="-76.7213" width="158.583" height="158.583" filterUnits="userSpaceOnUse" color-interpolation-filters="sRGB">
<feFlood flood-opacity="0" result="BackgroundImageFix"/>
<feBlend mode="normal" in="SourceGraphic" in2="BackgroundImageFix" result="shape"/>
<feGaussianBlur stdDeviation="30.2063" result="effect1_foregroundBlur_1_10276"/>
</filter>
<filter id="filter6_f_1_10276" x="-145.429" y="-107.238" width="271.857" height="271.857" filterUnits="userSpaceOnUse" color-interpolation-filters="sRGB">
<feFlood flood-opacity="0" result="BackgroundImageFix"/>
<feBlend mode="normal" in="SourceGraphic" in2="BackgroundImageFix" result="shape"/>
<feGaussianBlur stdDeviation="37.7579" result="effect1_foregroundBlur_1_10276"/>
</filter>
<filter id="filter7_f_1_10276" x="-25.363" y="-88.6269" width="181.238" height="181.238" filterUnits="userSpaceOnUse" color-interpolation-filters="sRGB">
<feFlood flood-opacity="0" result="BackgroundImageFix"/>
<feBlend mode="normal" in="SourceGraphic" in2="BackgroundImageFix" result="shape"/>
<feGaussianBlur stdDeviation="30.2063" result="effect1_foregroundBlur_1_10276"/>
</filter>
<filter id="filter8_f_1_10276" x="-79.4478" y="-150.721" width="158.583" height="158.583" filterUnits="userSpaceOnUse" color-interpolation-filters="sRGB">
<feFlood flood-opacity="0" result="BackgroundImageFix"/>
<feBlend mode="normal" in="SourceGraphic" in2="BackgroundImageFix" result="shape"/>
<feGaussianBlur stdDeviation="30.2063" result="effect1_foregroundBlur_1_10276"/>
</filter>
<filter id="filter9_f_1_10276" x="44.5708" y="-6.23752" width="271.857" height="271.857" filterUnits="userSpaceOnUse" color-interpolation-filters="sRGB">
<feFlood flood-opacity="0" result="BackgroundImageFix"/>
<feBlend mode="normal" in="SourceGraphic" in2="BackgroundImageFix" result="shape"/>
<feGaussianBlur stdDeviation="37.7579" result="effect1_foregroundBlur_1_10276"/>
</filter>
<filter id="filter10_f_1_10276" x="164.637" y="12.3731" width="181.238" height="181.238" filterUnits="userSpaceOnUse" color-interpolation-filters="sRGB">
<feFlood flood-opacity="0" result="BackgroundImageFix"/>
<feBlend mode="normal" in="SourceGraphic" in2="BackgroundImageFix" result="shape"/>
<feGaussianBlur stdDeviation="30.2063" result="effect1_foregroundBlur_1_10276"/>
</filter>
<filter id="filter11_f_1_10276" x="110.552" y="-49.7213" width="158.583" height="158.583" filterUnits="userSpaceOnUse" color-interpolation-filters="sRGB">
<feFlood flood-opacity="0" result="BackgroundImageFix"/>
<feBlend mode="normal" in="SourceGraphic" in2="BackgroundImageFix" result="shape"/>
<feGaussianBlur stdDeviation="30.2063" result="effect1_foregroundBlur_1_10276"/>
</filter>
<filter id="filter12_f_1_10276" x="-27.4292" y="-78.2375" width="271.857" height="271.857" filterUnits="userSpaceOnUse" color-interpolation-filters="sRGB">
<feFlood flood-opacity="0" result="BackgroundImageFix"/>
<feBlend mode="normal" in="SourceGraphic" in2="BackgroundImageFix" result="shape"/>
<feGaussianBlur stdDeviation="37.7579" result="effect1_foregroundBlur_1_10276"/>
</filter>
<filter id="filter13_f_1_10276" x="92.637" y="-59.6269" width="181.238" height="181.238" filterUnits="userSpaceOnUse" color-interpolation-filters="sRGB">
<feFlood flood-opacity="0" result="BackgroundImageFix"/>
<feBlend mode="normal" in="SourceGraphic" in2="BackgroundImageFix" result="shape"/>
<feGaussianBlur stdDeviation="30.2063" result="effect1_foregroundBlur_1_10276"/>
</filter>
<filter id="filter14_f_1_10276" x="38.5522" y="-121.721" width="158.583" height="158.583" filterUnits="userSpaceOnUse" color-interpolation-filters="sRGB">
<feFlood flood-opacity="0" result="BackgroundImageFix"/>
<feBlend mode="normal" in="SourceGraphic" in2="BackgroundImageFix" result="shape"/>
<feGaussianBlur stdDeviation="30.2063" result="effect1_foregroundBlur_1_10276"/>
</filter>
<clipPath id="clip0_1_10276">
<rect width="344" height="179" fill="white"/>
</clipPath>
<clipPath id="clip1_1_10276">
<rect x="144.844" y="63.8906" width="94.3946" height="56.6368" rx="3.77579" transform="rotate(45 144.844 63.8906)" fill="white"/>
</clipPath>
<clipPath id="clip2_1_10276">
<rect width="94.3946" height="56.6368" fill="white" transform="translate(144.844 63.8906) rotate(45)"/>
</clipPath>
<clipPath id="clip3_1_10276">
<rect x="72.8438" y="-8.10938" width="94.3946" height="56.6368" rx="3.77579" transform="rotate(45 72.8438 -8.10938)" fill="white"/>
</clipPath>
<clipPath id="clip4_1_10276">
<rect width="94.3946" height="56.6368" fill="white" transform="translate(72.8438 -8.10938) rotate(45)"/>
</clipPath>
<clipPath id="clip5_1_10276">
<rect x="-0.15625" y="-82.1094" width="94.3946" height="56.6368" rx="3.77579" transform="rotate(45 -0.15625 -82.1094)" fill="white"/>
</clipPath>
<clipPath id="clip6_1_10276">
<rect width="94.3946" height="56.6368" fill="white" transform="translate(-0.15625 -82.1094) rotate(45)"/>
</clipPath>
<clipPath id="clip7_1_10276">
<rect x="189.844" y="18.8906" width="94.3946" height="56.6368" rx="3.77579" transform="rotate(45 189.844 18.8906)" fill="white"/>
</clipPath>
<clipPath id="clip8_1_10276">
<rect width="94.3946" height="56.6368" fill="white" transform="translate(189.844 18.8906) rotate(45)"/>
</clipPath>
<clipPath id="clip9_1_10276">
<rect x="117.844" y="-53.1094" width="94.3946" height="56.6368" rx="3.77579" transform="rotate(45 117.844 -53.1094)" fill="white"/>
</clipPath>
<clipPath id="clip10_1_10276">
<rect width="94.3946" height="56.6368" fill="white" transform="translate(117.844 -53.1094) rotate(45)"/>
</clipPath>
</defs>
</svg>
