<svg width="467" height="230" viewBox="0 0 467 230" fill="none" xmlns="http://www.w3.org/2000/svg"><g filter="url(#a)"><g clip-path="url(#b)"><g clip-path="url(#c)"><path fill="#fff" d="M354.898 158.105 480.056 32.947l74.953 74.954-125.158 125.158z"/><g opacity=".8" filter="url(#d)"><circle cx="568.445" cy="189.218" r="128" transform="rotate(-45 568.445 189.218)" fill="#283991"/></g><g opacity=".8" filter="url(#e)"><circle cx="511.876" cy="30.826" r="64" transform="rotate(-45 511.876 30.826)" fill="#F8D12E"/></g><g opacity=".8" filter="url(#f)"><circle cx="377.526" cy="158.105" r="40" transform="rotate(-45 377.526 158.105)" fill="#283991"/></g><path d="m480.066 22.528-67.29 92.593 52.851 82.163 79.942-79.942-65.503-94.814Z" fill="#fff" style="mix-blend-mode:overlay" opacity=".16"/></g><rect x="374.978" y="158.105" width="28.397" height="28.397" rx="14.199" transform="rotate(-45 374.978 158.105)" fill="#283991"/><path d="m387.741 150.333-.999-.509.509.999-.793.792 1.107-.175.509.998.175-1.107 1.107-.175-.998-.509.175-1.107-.792.793Zm14.227 14.227-.999-.509.509.999-.792.793 1.107-.176.508.998.176-1.106 1.107-.176-.999-.509.176-1.106-.793.792Zm-10.06-17.38.998.509.793-.792-.175 1.107.998.509-1.107.175-.175 1.107-.509-.998-1.107.175.793-.793-.509-.999Zm6.291.474-.999-.509.509.998-.793.793 1.107-.175.509.998.176-1.107 1.106-.175-.998-.509.175-1.107-.792.793Zm5.705 6.068.999.509.792-.793-.175 1.107.999.509-1.107.175-.176 1.107-.508-.998-1.107.175.792-.792-.509-.999Zm-18.746 6.972-.999-.509.509.999-.792.792 1.107-.175.508.999.176-1.107 1.106-.175-.998-.509.175-1.107-.792.792Zm15.827-11 .998.509.793-.792-.176 1.106.999.509-1.107.176-.175 1.107-.509-.999-1.107.175.792-.792-.508-.999Zm-13.266 14.773-.998-.509.508.999-.792.792 1.107-.175.509.998.175-1.106 1.107-.176-.999-.509.176-1.107-.793.793Zm2.995 2.445.999.509.792-.792-.175 1.107.998.508-1.106.176-.176 1.106-.509-.998-1.107.176.793-.793-.509-.999Zm14.316-7.328-.998-.509.509.998-.793.793 1.107-.175.509.999.176-1.108 1.106-.175-.998-.508.175-1.108-.793.793Zm-20.805-4.721.999.509.792-.792-.175 1.107.999.508-1.108.176-.175 1.107-.508-.999-1.108.175.793-.792-.509-.999Zm12.671 12.76-.999-.51.509.999-.792.793 1.106-.176.509.999.176-1.107 1.106-.176-.998-.508.176-1.107-.793.793Z" fill="#F8D12E"/><path d="m427.237 208.523-6.91-6.91 4.217-4.217.733.732-3.386 3.386 2.317 2.316 3.187-3.187.733.732-3.188 3.188 2.396 2.396 3.385-3.386.733.733-4.217 4.217Zm-.356-13.464 4.276 4.277c.66.66 1.284 1.039 1.871 1.138.581.093 1.178-.168 1.792-.782.614-.613.874-1.211.782-1.791-.099-.588-.478-1.211-1.138-1.871l-4.277-4.277.832-.832 4.078 4.079c.502.502.891.983 1.168 1.445.284.456.449.904.495 1.347.046.442-.033.884-.237 1.326-.198.436-.528.885-.99 1.347-.462.462-.911.791-1.347.989a2.41 2.41 0 0 1-1.296.208c-.436-.052-.882-.221-1.337-.505-.449-.29-.924-.686-1.425-1.187l-4.079-4.079.832-.832Zm13.668.152-.831.831-6.91-6.91 2.752-2.752c.607-.607 1.247-.911 1.92-.911.68-.006 1.337.307 1.97.941.508.508.809 1.046.901 1.613.093.555-.036 1.113-.386 1.674l4.633 1.465-.94.94-4.465-1.475-1.614 1.614 2.97 2.97Zm-1.762-5.604c.33-.33.498-.669.505-1.019.013-.357-.139-.693-.455-1.01l-.515-.515c-.317-.317-.654-.468-1.01-.455-.35.006-.69.175-1.02.505l-1.92 1.92 2.495 2.495 1.92-1.921Zm3.88-6.731.773-.772 2.752 1.663 2.781 1.693.02-.02-1.613-2.861-1.565-2.851.703-.703 2.871 1.544 2.871 1.604.02-.02-1.713-2.762-1.653-2.762.742-.742 3.752 6.464-.98.98-3.168-1.742-1.999-1.109-.02.02 1.119 1.99 1.742 3.168-.96.96-6.475-3.742Zm16.867-6.65c-.297.297-.591.432-.881.406a1.701 1.701 0 0 1-.832-.357l-.049.05c.205.429.257.851.158 1.267-.099.416-.326.802-.683 1.158-.541.541-1.102.825-1.683.851-.574.02-1.099-.208-1.574-.683-.481-.481-.676-1.026-.584-1.633.099-.614.522-1.294 1.267-2.039l1.01-1.01-.505-.505c-.363-.363-.739-.541-1.128-.535-.39.007-.789.215-1.198.624-.31.31-.502.64-.574.99-.066.343-.053.7.039 1.069l-.92.03c-.139-.416-.152-.871-.04-1.366.106-.502.389-.984.851-1.446.621-.62 1.254-.95 1.901-.99.647-.039 1.241.212 1.782.753l2.811 2.811.585-.584.693.693-.446.446Zm-2.831 1.722c.198-.198.356-.402.475-.614.119-.211.195-.419.228-.623a1.39 1.39 0 0 0-.02-.574 1 1 0 0 0-.267-.466l-.842-.841-1.049 1.049c-.456.456-.723.855-.802 1.198-.073.337.016.63.267.881l.208.208c.251.251.535.356.851.317.324-.046.641-.225.951-.535Zm5.248-4.14c-.277.278-.564.413-.861.406-.297-.02-.564-.148-.802-.386l-6.504-6.504.792-.792 6.633 6.633.752-.752.693.693-.703.702Zm2.649-2.649c-.277.278-.564.413-.861.406-.297-.019-.564-.148-.802-.386l-6.504-6.504.792-.792 6.633 6.633.752-.752.693.693-.703.702Zm3.895-3.657c-.35.35-.729.604-1.138.762a2.996 2.996 0 0 1-1.257.188 3.752 3.752 0 0 1-1.307-.376 5.112 5.112 0 0 1-1.267-.95 5.106 5.106 0 0 1-.941-1.257 3.573 3.573 0 0 1-.376-1.307 2.926 2.926 0 0 1 .178-1.267c.159-.409.413-.789.763-1.139a3.056 3.056 0 0 1 1.108-.732 2.848 2.848 0 0 1 1.218-.169c.409.027.815.142 1.218.347.409.198.795.478 1.158.841l.376.377-3.673 3.672.238.238c.218.218.455.389.713.515.257.112.518.175.782.188.27.006.538-.043.802-.149.27-.112.524-.287.762-.524.323-.324.528-.68.614-1.07a2.097 2.097 0 0 0-.09-1.217l.971-.159c.184.515.211 1.056.079 1.624-.139.561-.449 1.082-.931 1.564Zm-4.682-4.682a2.036 2.036 0 0 0-.475.712 1.881 1.881 0 0 0-.149.782 2.348 2.348 0 0 0 .703 1.515l.069.069 2.822-2.821-.109-.109c-.456-.455-.944-.693-1.465-.713-.522-.033-.987.155-1.396.565Zm9.205-.078c-.278.277-.565.413-.862.406-.297-.02-.571-.155-.821-.406l-3.574-3.574-.841.842-.693-.693.475-.475c.171-.172.254-.32.247-.446-.006-.138-.095-.294-.267-.465l-.95-.95.712-.713 1.416 1.415 1.119-1.118.693.693-1.119 1.118 3.722 3.723 1.04-1.04.693.693-.99.99Z" fill="#333"/></g></g><g clip-path="url(#g)"><rect x="382" y="305.158" width="177" height="106" rx="8" transform="rotate(-45 382 305.158)" fill="#fff"/><g opacity=".8" filter="url(#h)"><circle cx="595.546" cy="336.271" r="128" transform="rotate(-45 595.546 336.271)" fill="#CFCFCF"/></g><g opacity=".8" filter="url(#i)"><circle cx="538.978" cy="177.879" r="64" transform="rotate(-45 538.978 177.879)" fill="#D6DADB"/></g><g opacity=".8" filter="url(#j)"><circle cx="404.627" cy="305.158" r="40" transform="rotate(-45 404.627 305.158)" fill="#CFCFCF"/></g><path d="m507.168 169.58-67.29 92.594 52.85 82.162 79.942-79.942-65.502-94.814Z" fill="#fff" style="mix-blend-mode:overlay" opacity=".16"/></g><g filter="url(#k)"><g clip-path="url(#l)"><g clip-path="url(#m)"><path fill="#fff" d="m218.897 294.105 125.158-125.158 74.954 74.954L293.85 369.058z"/><g opacity=".8" filter="url(#n)"><circle cx="432.445" cy="325.218" r="128" transform="rotate(-45 432.445 325.218)" fill="#283991"/></g><g opacity=".8" filter="url(#o)"><circle cx="375.876" cy="166.826" r="64" transform="rotate(-45 375.876 166.826)" fill="#F44336"/></g><g opacity=".8" filter="url(#p)"><circle cx="241.526" cy="294.105" r="40" transform="rotate(-45 241.526 294.105)" fill="#283991"/></g><path d="m344.066 158.528-67.29 92.593 52.851 82.163 79.942-79.942-65.503-94.814Z" fill="#fff" style="mix-blend-mode:overlay" opacity=".16"/></g></g></g><g clip-path="url(#q)"><g clip-path="url(#r)"><path fill="#fff" d="m208.3 34 125.158 125.158-74.954 74.953-125.158-125.158z"/><g opacity=".8" filter="url(#s)"><circle cx="177.187" cy="247.546" r="128" transform="rotate(45 177.187 247.546)" fill="#F44336"/></g><g opacity=".8" filter="url(#t)"><circle cx="335.578" cy="190.978" r="64" transform="rotate(45 335.578 190.978)" fill="#283991"/></g><g opacity=".8" filter="url(#u)"><circle cx="208.299" cy="56.627" r="40" transform="rotate(45 208.299 56.627)" fill="#F44336"/></g><path d="m343.877 159.168-92.594-67.29-82.162 52.85 79.942 79.942 94.814-65.502Z" fill="#fff" style="mix-blend-mode:overlay" opacity=".16"/></g><rect x="208.299" y="54.08" width="28.397" height="28.397" rx="14.199" transform="rotate(45 208.299 54.08)" fill="#fff"/><path fill-rule="evenodd" clip-rule="evenodd" d="M217.915 63.695a14.134 14.134 0 0 0-7.028-3.384l11.586 11.586a14.136 14.136 0 0 0-3.385-7.029l-.309-.308-.864-.865Zm-10.813-3.526c-1.02.099-2.03.31-3.012.63l12.072 12.073 5.822 5.822a14.14 14.14 0 0 0 .63-3.013l-4.458-4.459-11.054-11.053Zm-7.888 3.079a14.098 14.098 0 0 1 2.154-1.49l19.318 19.319a14.098 14.098 0 0 1-1.488 2.154l-19.984-19.983Zm-1.818 1.825a14.067 14.067 0 0 0-1.478 2.165l19.289 19.289c.756-.419 1.481-.91 2.165-1.478l-19.976-19.976Zm-3.19 7.74c.093-1.026.299-2.041.614-3.03l12.663 12.663 5.179 5.18c-.988.314-2.004.52-3.029.614l-4.884-4.885-10.543-10.543Zm3.657 10.92.029.032.029.032a13.975 13.975 0 0 0 7.897 4.272l-3.224-3.224-8.217-8.218a13.968 13.968 0 0 0 3.486 7.107Z" fill="#F44336"/><path d="M218.12 63.91c-5.246-5.036-13.406-5.257-18.907-.659l9.783 9.783 9.124-9.123Z" fill="#283991"/><path d="m204.634 61.76-.316.622.495.496-.691-.11-.317.622-.11-.69-.691-.11.623-.318-.11-.69.495.495.622-.317Zm-1.659 1.66-.317.622.495.495-.691-.11-.317.623-.11-.691-.691-.11.623-.317-.11-.691.495.495.623-.317Zm5.812-2.487-.317.623.495.495-.691-.11-.317.623-.11-.69-.691-.111.623-.317-.11-.691.495.495.623-.317Zm-1.66 1.66-.317.623.496.495-.691-.11-.317.622-.11-.69-.691-.11.623-.318-.111-.69.496.495.622-.317Zm-1.659 1.659-.317.623.495.495-.691-.11-.317.623-.11-.691-.691-.11.623-.317-.11-.69.495.494.623-.317Zm-4.156-1.695.317-.623.691.11-.495-.495.023-.045c-.222.113-.441.234-.658.36l.012.002.11.69Zm3.352-1.627.69.11.11.69.317-.622.691.11-.495-.495.317-.623-.623.317-.182-.183-.254.055.051.324-.622.317Zm4.843-.716.11.69.317-.622.69.11-.285-.287a14.138 14.138 0 0 0-1.278-.127l-.245.125.691.11Zm1.802.723.691.11.11.69.317-.622.69.11-.495-.495.043-.084c-.254-.082-.509-.16-.766-.227l.032.2-.622.318Zm-.029.83-.317.622.495.495-.691-.11-.317.623-.11-.69-.691-.11.623-.318-.11-.69.495.494.623-.316Zm-1.66 1.659-.317.623.496.495-.692-.11-.317.623-.109-.691-.691-.11.622-.317-.11-.691.496.495.622-.317Zm-1.659 1.66-.317.623.495.495-.691-.11-.317.622-.11-.69-.691-.11.623-.318-.11-.69.495.495.623-.317Zm-1.66 1.659-.317.623.495.495-.691-.11-.317.623-.11-.691-.691-.11.623-.317-.11-.691.495.495.623-.317Zm7.472-4.145-.317.623.495.495-.691-.11-.317.622-.11-.69-.691-.11.623-.317-.11-.691.495.495.623-.317Zm-1.66 1.66-.317.622.495.495-.691-.11-.317.623-.11-.69-.691-.111.623-.317-.11-.69.495.494.623-.316Zm-1.659 1.66-.317.622.495.495-.691-.11-.317.622-.11-.69-.691-.11.623-.317-.111-.691.496.495.623-.317Zm-1.66 1.659-.317.623.495.495-.69-.11-.318.622-.11-.69-.691-.11.623-.318-.11-.69.495.495.623-.317Zm7.471-4.146-.317.623.495.495-.69-.11-.317.623-.11-.691-.691-.11.623-.317-.111-.691.495.495.623-.317Zm-1.659 1.66-.317.622.495.495-.691-.11-.317.623-.11-.69-.691-.11.623-.318-.11-.69.495.494.623-.316Zm-1.66 1.659-.316.623.495.495-.691-.11-.318.623-.109-.691-.691-.11.623-.317-.111-.691.496.495.622-.317Zm-1.659 1.66-.317.623.495.495-.691-.11-.317.623-.11-.691-.691-.11.623-.318-.11-.69.495.495.623-.317Zm-1.66 1.659-.317.623.495.495-.691-.11-.317.623-.109-.69-.692-.11.623-.318-.11-.69.495.494.623-.317Z" fill="#EFEFEF"/><path d="m165.574 100.211-4.277 4.276c-.66.66-1.039 1.284-1.138 1.871-.093.581.168 1.178.782 1.792.614.614 1.211.875 1.792.782.587-.099 1.211-.478 1.871-1.138l4.276-4.277.832.832-4.079 4.078c-.501.502-.983.891-1.445 1.168-.455.284-.904.449-1.346.495a2.495 2.495 0 0 1-1.327-.237c-.436-.198-.884-.528-1.346-.99-.462-.462-.792-.911-.99-1.347a2.408 2.408 0 0 1-.208-1.296c.053-.436.221-.881.505-1.337.29-.449.686-.924 1.188-1.425l4.078-4.079.832.832Zm.839 14.896c-.561-.561-.934-1.145-1.119-1.752a4.388 4.388 0 0 1-.119-1.901l1.129.099c-.079.567-.056 1.085.069 1.554.132.462.399.894.802 1.297.495.495.99.752 1.485.772.501.026.95-.158 1.346-.554.33-.33.485-.683.465-1.06-.019-.376-.204-.844-.554-1.405l-.436-.693c-.488-.779-.755-1.482-.801-2.109-.033-.627.217-1.208.752-1.742.304-.304.63-.518.98-.644.35-.125.703-.168 1.059-.128.363.046.723.168 1.079.366.37.198.723.465 1.06.802.521.521.871 1.062 1.049 1.623.185.568.221 1.165.109 1.792l-1.079-.168a3.048 3.048 0 0 0-.07-1.317c-.118-.422-.379-.835-.782-1.237-.442-.442-.887-.696-1.336-.762-.436-.066-.841.089-1.218.465-.33.33-.475.686-.435 1.069.053.383.247.841.584 1.376l.435.693c.528.832.789 1.554.782 2.168-.006.614-.267 1.178-.782 1.693-.316.317-.66.548-1.029.693a2.433 2.433 0 0 1-1.119.188 3.091 3.091 0 0 1-1.168-.337 4.324 4.324 0 0 1-1.138-.841Zm10.84-3.217 2.317 2.316c.429.429.745.891.95 1.386.205.495.284 1.01.238 1.545-.033.534-.202 1.085-.505 1.653-.297.561-.733 1.128-1.307 1.703-.574.574-1.145 1.013-1.713 1.316-.561.297-1.112.466-1.653.505a3.315 3.315 0 0 1-1.534-.247 4.279 4.279 0 0 1-1.386-.951l-2.317-2.316 6.91-6.91Zm-3.861 8.494c.284.284.591.498.921.643.337.139.683.201 1.039.188a2.672 2.672 0 0 0 1.07-.277 3.769 3.769 0 0 0 1.069-.772l1.128-1.129c.343-.343.598-.696.763-1.059.178-.363.273-.723.287-1.079a2.317 2.317 0 0 0-.198-1.029 2.852 2.852 0 0 0-.634-.931l-1.485-1.485-5.445 5.445 1.485 1.485Zm10.427 1.675.772.772-1.663 2.752-1.693 2.782.02.02 2.861-1.614 2.851-1.564.703.703-1.545 2.871-1.603 2.871.019.019 2.762-1.712 2.762-1.653.743.742-6.465 3.752-.98-.98 1.743-3.168 1.108-2-.019-.019-1.99 1.118-3.168 1.743-.96-.961 3.742-6.474Zm6.65 16.867c-.297-.297-.432-.591-.406-.881.033-.284.152-.561.357-.832l-.05-.049c-.429.204-.851.257-1.267.158-.416-.099-.802-.327-1.158-.683-.541-.541-.825-1.102-.852-1.683-.019-.574.208-1.099.683-1.574.482-.482 1.027-.677 1.634-.584.614.099 1.293.521 2.039 1.267l1.01 1.01.505-.505c.363-.363.541-.739.534-1.129-.006-.389-.214-.788-.623-1.198-.31-.31-.64-.501-.99-.574a2.46 2.46 0 0 0-1.069.04l-.03-.921c.416-.138.871-.152 1.366-.039.502.105.983.389 1.445.851.621.62.951 1.254.99 1.901.04.646-.211 1.24-.752 1.782l-2.812 2.811.585.584-.693.693-.446-.445Zm-1.722-2.832c.198.198.402.357.613.476.212.118.419.194.624.227.205.033.396.027.574-.02.178-.046.333-.135.465-.267l.842-.841-1.049-1.05c-.456-.455-.855-.722-1.198-.801a.905.905 0 0 0-.881.267l-.208.208c-.251.25-.357.534-.317.851.046.323.224.64.535.95Zm4.139 5.249c-.277-.277-.412-.564-.406-.861.02-.297.149-.565.387-.802l6.504-6.504.792.792-6.633 6.632.752.753-.693.693-.703-.703Zm2.649 2.649c-.277-.277-.412-.564-.406-.861.02-.297.149-.565.386-.802l6.504-6.504.792.792-6.632 6.632.752.753-.693.693-.703-.703Zm3.658 3.895a3.295 3.295 0 0 1-.763-1.139 3.024 3.024 0 0 1-.188-1.257c.04-.435.165-.871.377-1.307a5.13 5.13 0 0 1 .95-1.267 5.083 5.083 0 0 1 1.257-.94 3.568 3.568 0 0 1 1.307-.376c.442-.033.864.026 1.267.178.409.158.789.412 1.138.762.344.343.588.713.733 1.109.145.396.201.802.168 1.218a3.113 3.113 0 0 1-.346 1.217 4.283 4.283 0 0 1-.842 1.158l-.376.377-3.673-3.673-.237.237a2.664 2.664 0 0 0-.515.713 2.226 2.226 0 0 0-.188.782c-.007.271.043.538.149.802.112.271.287.525.524.762.324.324.68.528 1.069.614.396.093.802.063 1.218-.089l.158.97a2.816 2.816 0 0 1-1.623.079c-.561-.138-1.082-.448-1.564-.93Zm4.682-4.683a2.053 2.053 0 0 0-.713-.475 1.874 1.874 0 0 0-.782-.148 2.34 2.34 0 0 0-1.514.703l-.07.069 2.822 2.821.109-.109c.455-.455.693-.943.712-1.465.033-.521-.155-.986-.564-1.396Zm.078 9.205c-.277-.277-.413-.564-.406-.861.02-.297.155-.571.406-.822l3.573-3.573-.841-.842.693-.693.475.475c.172.172.32.254.446.248.138-.007.293-.096.465-.267l.95-.951.713.713-1.416 1.416 1.119 1.118-.693.693-1.119-1.118-3.722 3.722 1.04 1.039-.693.693-.99-.99Z" fill="#333"/></g><g clip-path="url(#v)"><g clip-path="url(#w)"><path fill="#fff" d="M75.3-104 200.456 21.158 125.504 96.11.346-29.047z"/><g opacity=".8" filter="url(#x)"><circle cx="44.187" cy="109.546" r="128" transform="rotate(45 44.187 109.546)" fill="#283991"/></g><g opacity=".8" filter="url(#y)"><circle cx="202.578" cy="52.978" r="64" transform="rotate(45 202.578 52.978)" fill="#F8D12E"/></g><g opacity=".8" filter="url(#z)"><circle cx="75.299" cy="-81.373" r="40" transform="rotate(45 75.3 -81.373)" fill="#283991"/></g><path d="m210.877 21.168-92.594-67.29-82.162 52.85 79.942 79.942 94.814-65.502Z" fill="#fff" style="mix-blend-mode:overlay" opacity=".16"/></g><path d="m24.882-31.662 6.91-6.91 4.217 4.218-.733.732-3.385-3.385-2.317 2.316 3.188 3.188-.733.732-3.187-3.187-2.396 2.395 3.386 3.386-.733.733-4.217-4.218Zm13.463-.356L34.07-27.74c-.66.66-1.04 1.283-1.139 1.87-.092.581.169 1.179.782 1.793.614.613 1.211.874 1.792.782.588-.1 1.211-.479 1.871-1.139l4.277-4.277.831.832-4.078 4.079c-.502.501-.984.89-1.446 1.168-.455.284-.904.449-1.346.495a2.497 2.497 0 0 1-1.326-.238c-.436-.198-.885-.528-1.347-.99-.462-.462-.792-.91-.99-1.346a2.419 2.419 0 0 1-.208-1.297c.053-.436.221-.881.505-1.336.29-.45.687-.924 1.188-1.426l4.079-4.078.831.831Zm-.15 13.669-.832-.832 6.91-6.91 2.752 2.752c.607.607.91 1.248.91 1.92.007.68-.306 1.337-.94 1.97-.508.509-1.046.81-1.614.902-.554.092-1.112-.037-1.673-.386L42.243-14.3l-.94-.94 1.475-4.466-1.614-1.613-2.97 2.97Zm5.602-1.762c.33.33.67.498 1.02.504.356.014.693-.138 1.01-.455l.515-.515c.316-.316.468-.653.455-1.01-.007-.35-.175-.69-.505-1.02l-1.92-1.92-2.495 2.495 1.92 1.92Zm6.732 3.88.772.772-1.663 2.752-1.693 2.782.02.02 2.86-1.614 2.852-1.564.703.703-1.545 2.87-1.603 2.872.02.02 2.761-1.713 2.762-1.653.743.742-6.465 3.752-.98-.98 1.743-3.168 1.108-2-.02-.02-1.99 1.12-3.167 1.741-.96-.96 3.742-6.474ZM57.179.636c-.297-.297-.432-.591-.406-.881.033-.284.152-.561.357-.832l-.05-.05c-.429.205-.851.258-1.267.159-.416-.1-.802-.327-1.158-.683-.541-.541-.825-1.102-.852-1.683-.02-.574.208-1.099.684-1.574.481-.482 1.026-.677 1.633-.584.614.099 1.293.521 2.04 1.267l1.009 1.01.505-.505c.363-.363.541-.74.534-1.129-.006-.39-.214-.788-.623-1.198-.31-.31-.64-.501-.99-.574a2.454 2.454 0 0 0-1.07.04l-.03-.92c.417-.14.872-.153 1.367-.04.502.105.983.389 1.445.851.62.62.95 1.254.99 1.9.04.647-.21 1.241-.752 1.783L57.733-.196l.585.584-.693.693-.446-.445Zm-1.722-2.832c.198.198.402.357.613.476.212.118.42.194.624.227.205.033.396.027.574-.02a.996.996 0 0 0 .465-.267l.842-.841-1.05-1.05c-.455-.455-.854-.722-1.197-.802a.908.908 0 0 0-.881.268l-.208.208c-.25.25-.356.534-.317.851.046.323.225.64.535.95Zm4.14 5.249c-.278-.277-.413-.564-.407-.861.02-.297.149-.565.387-.802l6.504-6.504.791.792L60.24 2.31l.752.753-.693.693-.703-.703Zm2.648 2.649c-.277-.277-.412-.565-.406-.862.02-.296.149-.564.386-.801l6.505-6.504.791.792-6.632 6.632.752.753-.693.693-.703-.703Zm3.658 3.895a3.29 3.29 0 0 1-.763-1.139 3.008 3.008 0 0 1-.188-1.257c.04-.435.165-.871.377-1.307.224-.435.54-.858.95-1.267a5.079 5.079 0 0 1 1.257-.94 3.572 3.572 0 0 1 1.307-.376 2.93 2.93 0 0 1 1.267.178c.41.158.789.412 1.139.762.343.343.587.713.732 1.109.145.396.201.802.168 1.217-.026.41-.142.816-.346 1.218-.198.41-.479.795-.842 1.158l-.376.377-3.672-3.673-.238.237c-.218.218-.39.456-.515.713a2.223 2.223 0 0 0-.188.782c-.006.27.043.538.149.802.112.27.287.525.524.762.324.324.68.528 1.07.614.395.092.801.063 1.217-.089l.158.97a2.82 2.82 0 0 1-1.623.08c-.561-.14-1.082-.45-1.564-.931Zm4.682-4.683a2.046 2.046 0 0 0-.712-.475 1.876 1.876 0 0 0-.783-.148 2.355 2.355 0 0 0-1.515.703l-.069.069 2.822 2.821.109-.109c.455-.455.693-.943.713-1.465.032-.521-.156-.986-.565-1.396Zm.078 9.205c-.278-.277-.413-.564-.406-.861.02-.297.155-.571.406-.822l3.573-3.573-.841-.842.693-.693.475.475c.172.172.32.254.446.248.138-.007.293-.096.465-.268l.95-.95.713.713-1.416 1.416 1.119 1.118-.693.693-1.119-1.118-3.722 3.722 1.04 1.04-.693.692-.99-.99Z" fill="#333"/></g><g clip-path="url(#A)"><g clip-path="url(#B)"><path fill="#fff" d="M295.299-54 420.457 71.158l-74.954 74.953L220.345 20.953z"/><g opacity=".8" filter="url(#C)"><circle cx="264.187" cy="159.546" r="128" transform="rotate(45 264.187 159.546)" fill="#283991"/></g><g opacity=".8" filter="url(#D)"><circle cx="422.578" cy="102.978" r="64" transform="rotate(45 422.578 102.978)" fill="#F44336"/></g><g opacity=".8" filter="url(#E)"><circle cx="295.299" cy="-31.373" r="40" transform="rotate(45 295.299 -31.373)" fill="#283991"/></g><path d="m430.877 71.168-92.594-67.29-82.162 52.85 79.942 79.942 94.814-65.502Z" fill="#fff" style="mix-blend-mode:overlay" opacity=".16"/></g><rect x="295.299" y="-33.92" width="28.397" height="28.397" rx="14.199" transform="rotate(45 295.299 -33.92)" fill="#fff"/><path fill-rule="evenodd" clip-rule="evenodd" d="M307.612-20.915a14.13 14.13 0 0 1 1.764 5.223h-6.987l5.223-5.223Zm-19.388-5.238a14.15 14.15 0 0 1 5.223-1.764v6.987l-5.223-5.223Zm21.152 14.165a14.13 14.13 0 0 1-1.764 5.223l-5.223-5.223h6.987Zm-26.39-8.927a14.166 14.166 0 0 0-1.764 5.223h6.987l-5.223-5.223Zm-1.764 8.927a14.166 14.166 0 0 0 1.764 5.223l5.223-5.223h-6.987Zm15.929-15.93c1.815.238 3.592.826 5.223 1.764l-5.223 5.223v-6.986Zm-8.927 26.39a14.152 14.152 0 0 0 5.223 1.765V-6.75l-5.223 5.223Zm8.927 1.765V-6.75l5.223 5.223a14.145 14.145 0 0 1-5.223 1.764Z" fill="#283991"/><path fill-rule="evenodd" clip-rule="evenodd" d="m306.564-5.195-8.646-8.645 8.646-8.646a14.346 14.346 0 0 0-2.619-2.619l-8.646 8.646-8.645-8.646a14.312 14.312 0 0 0-2.619 2.62l8.645 8.645-8.645 8.645a14.335 14.335 0 0 0 2.619 2.62l8.645-8.646 8.646 8.645a14.402 14.402 0 0 0 2.619-2.619Zm-11.265-3.407v8.96c.412 0 .824-.018 1.235-.054v-7.671l-1.235-1.235Zm-5.238-5.238-1.234 1.234h-7.672c-.036-.41-.054-.822-.054-1.234h8.96Zm5.241-5.236v-8.96c-.412 0-.824.018-1.235.054v7.671l1.235 1.235Zm14.196 5.236h-8.961l1.235-1.235h7.671c.036.41.055.823.055 1.235Z" fill="#F44336"/><path d="m250.366 21.803-.029-.03c-.41.238-.891.298-1.446.179-.541-.119-1.076-.442-1.604-.97a4.182 4.182 0 0 1-.94-1.396 3.593 3.593 0 0 1-.218-1.584c.053-.554.228-1.125.525-1.713.31-.587.756-1.171 1.336-1.752.575-.574 1.152-1.013 1.733-1.317.587-.31 1.158-.485 1.712-.524a3.584 3.584 0 0 1 1.624.237 4.227 4.227 0 0 1 1.445.97c.621.62 1 1.277 1.139 1.97a3.92 3.92 0 0 1-.139 2.06l-1.099-.268a2.745 2.745 0 0 0 .159-1.584c-.099-.521-.367-1-.802-1.435a2.851 2.851 0 0 0-1-.663 2.663 2.663 0 0 0-1.109-.198c-.376.02-.752.118-1.128.297a3.876 3.876 0 0 0-1.079.782l-1.119 1.118a4.023 4.023 0 0 0-.792 1.09 2.998 2.998 0 0 0-.297 1.128 2.76 2.76 0 0 0 .208 1.138c.158.37.402.72.732 1.05.238.237.492.432.763.584.283.151.567.244.851.277.29.04.574.013.851-.08.284-.098.555-.277.812-.534l.683-.683-1.524-1.525.732-.732 2.337 2.336-3.554 3.554-.773-.772 1.01-1.01Zm8.309-3.491 2.841 2.841c.574.574.861 1.185.861 1.831.007.654-.26 1.251-.801 1.792-.258.258-.512.44-.763.545-.25.105-.491.161-.722.168-.225 0-.433-.036-.624-.109a2.638 2.638 0 0 1-.475-.257l-.06.06c.119.131.225.303.317.514.099.218.152.462.159.732.013.264-.037.545-.149.842-.099.297-.29.587-.574.871a3.138 3.138 0 0 1-.931.653 2.65 2.65 0 0 1-.999.268 2.536 2.536 0 0 1-.99-.139 2.413 2.413 0 0 1-.862-.564l-3.138-3.138 6.91-6.91Zm-5.346 7.009 2.049 2.049c.357.356.726.548 1.109.574.39.02.759-.145 1.109-.495l.337-.337c.349-.35.511-.716.485-1.098-.02-.39-.208-.763-.565-1.119l-2.049-2.05-2.475 2.476Zm3.188-3.188 1.911 1.91c.33.33.669.506 1.019.525.35.02.68-.125.99-.435l.337-.337c.31-.31.455-.64.435-.99-.02-.35-.194-.69-.524-1.02l-1.911-1.91-2.257 2.257Zm1.716 9.556 6.91-6.91 2.752 2.752c.62.62.917 1.274.891 1.96-.014.687-.327 1.337-.941 1.95-.614.615-1.267.931-1.96.951-.68.02-1.33-.28-1.95-.9l-1.921-1.921-2.95 2.95-.831-.832Zm4.514-2.85 1.92 1.92c.33.33.67.498 1.02.505.356.013.693-.139 1.01-.456l.515-.515c.316-.316.468-.653.455-1.01-.007-.35-.175-.689-.505-1.019l-1.92-1.92-2.495 2.494Zm8.323 5.471.772.773-1.663 2.752-1.693 2.781.02.02 2.861-1.614 2.851-1.564.703.703-1.544 2.871-1.604 2.871.02.02 2.762-1.713 2.762-1.653.742.742-6.464 3.752-.98-.98 1.742-3.168 1.109-2-.02-.02-1.99 1.12-3.168 1.742-.96-.96 3.742-6.475Zm6.65 16.867c-.297-.297-.432-.59-.405-.881a1.7 1.7 0 0 1 .356-.832l-.05-.05c-.428.206-.851.258-1.267.16-.415-.1-.802-.327-1.158-.684-.541-.541-.825-1.102-.851-1.683-.02-.574.208-1.099.683-1.574.482-.482 1.026-.676 1.633-.584.614.1 1.294.522 2.04 1.267l1.009 1.01.505-.505c.363-.363.541-.739.535-1.128-.007-.39-.215-.789-.624-1.198-.31-.31-.64-.502-.99-.574a2.453 2.453 0 0 0-1.069.04l-.03-.921c.416-.139.871-.152 1.366-.04.502.106.984.39 1.446.851.62.62.95 1.254.99 1.901.039.647-.212 1.24-.753 1.782l-2.811 2.811.584.584-.693.694-.446-.446Zm-1.722-2.831c.198.198.403.356.614.475.211.119.419.195.623.228.205.033.396.026.575-.02.178-.046.333-.136.465-.268l.841-.84-1.049-1.05c-.455-.456-.855-.723-1.198-.802a.908.908 0 0 0-.881.267l-.208.208c-.251.25-.356.535-.317.851.047.324.225.64.535.95Zm4.14 5.248c-.277-.277-.413-.564-.406-.861.02-.297.148-.564.386-.802l6.504-6.504.792.792-6.633 6.633.753.752-.693.693-.703-.703Zm2.649 2.65c-.278-.278-.413-.565-.406-.862.02-.297.148-.564.386-.802l6.504-6.504.792.792-6.633 6.633.752.752-.693.693-.702-.703Zm3.657 3.894a3.28 3.28 0 0 1-.762-1.138 2.995 2.995 0 0 1-.188-1.258 3.76 3.76 0 0 1 .376-1.306c.224-.436.541-.858.95-1.267a5.084 5.084 0 0 1 1.258-.94 3.567 3.567 0 0 1 1.306-.377c.442-.033.865.026 1.267.178.41.159.789.413 1.139.762.343.344.587.713.732 1.11.146.395.202.801.169 1.217a3.12 3.12 0 0 1-.347 1.218 4.279 4.279 0 0 1-.841 1.158l-.376.376-3.673-3.673-.238.238a2.654 2.654 0 0 0-.515.713 2.245 2.245 0 0 0-.188.782c-.006.27.043.538.149.802.112.27.287.524.525.762.323.323.679.528 1.069.614.396.092.802.062 1.217-.09l.159.97a2.821 2.821 0 0 1-1.624.08c-.561-.139-1.082-.449-1.564-.93Zm4.683-4.682a2.052 2.052 0 0 0-.713-.475 1.878 1.878 0 0 0-.782-.149 2.346 2.346 0 0 0-1.515.703l-.069.07 2.821 2.82.109-.108c.455-.456.693-.944.713-1.465.033-.522-.155-.987-.564-1.396Zm.077 9.205c-.277-.278-.412-.565-.406-.862.02-.297.155-.57.406-.821l3.574-3.574-.842-.842.693-.692.475.475c.172.171.321.254.446.247.139-.006.294-.096.465-.267l.951-.95.712.712-1.415 1.416 1.118 1.119-.693.693-1.118-1.12-3.722 3.723 1.039 1.04-.693.692-.99-.99Z" fill="#333"/></g><g clip-path="url(#F)"><rect x="159.953" y="-190" width="177" height="106" rx="8" transform="rotate(45 159.953 -190)" fill="#fff"/><g opacity=".8" filter="url(#G)"><circle cx="128.841" cy="23.546" r="128" transform="rotate(45 128.841 23.546)" fill="#CFCFCF"/></g><g opacity=".8" filter="url(#H)"><circle cx="287.233" cy="-33.022" r="64" transform="rotate(45 287.233 -33.022)" fill="#D6DADB"/></g><g opacity=".8" filter="url(#I)"><circle cx="159.953" cy="-167.373" r="40" transform="rotate(45 159.953 -167.373)" fill="#CFCFCF"/></g><path d="m295.531-64.832-92.594-67.29-82.162 52.85L200.717.67l94.814-65.502Z" fill="#fff" style="mix-blend-mode:overlay" opacity=".16"/></g><g clip-path="url(#J)"><g clip-path="url(#K)"><path fill="#fff" d="M382.3-140 507.456-14.842l-74.953 74.954L307.346-65.046z"/><g opacity=".8" filter="url(#L)"><circle cx="351.187" cy="73.546" r="128" transform="rotate(45 351.187 73.546)" fill="#F44336"/></g><g opacity=".8" filter="url(#M)"><circle cx="509.578" cy="16.978" r="64" transform="rotate(45 509.578 16.978)" fill="#283991"/></g><g opacity=".8" filter="url(#N)"><circle cx="382.299" cy="-117.373" r="40" transform="rotate(45 382.299 -117.373)" fill="#F44336"/></g><path d="m517.877-14.832-92.594-67.29-82.162 52.85 79.942 79.942 94.814-65.502Z" fill="#fff" style="mix-blend-mode:overlay" opacity=".16"/></g></g><defs><filter id="a" x="348.898" y="30.607" width="212.798" height="212.798" filterUnits="userSpaceOnUse" color-interpolation-filters="sRGB"><feFlood flood-opacity="0" result="BackgroundImageFix"/><feColorMatrix in="SourceAlpha" values="0 0 0 0 0 0 0 0 0 0 0 0 0 0 0 0 0 0 127 0" result="hardAlpha"/><feMorphology radius="2" in="SourceAlpha" result="effect1_dropShadow_2_12201"/><feOffset dy="2"/><feGaussianBlur stdDeviation="2"/><feColorMatrix values="0 0 0 0 0.054902 0 0 0 0 0.054902 0 0 0 0 0.054902 0 0 0 0.06 0"/><feBlend in2="BackgroundImageFix" result="effect1_dropShadow_2_12201"/><feColorMatrix in="SourceAlpha" values="0 0 0 0 0 0 0 0 0 0 0 0 0 0 0 0 0 0 127 0" result="hardAlpha"/><feMorphology radius="2" in="SourceAlpha" result="effect2_dropShadow_2_12201"/><feOffset dy="4"/><feGaussianBlur stdDeviation="4"/><feColorMatrix values="0 0 0 0 0.054902 0 0 0 0 0.054902 0 0 0 0 0.054902 0 0 0 0.1 0"/><feBlend in2="effect1_dropShadow_2_12201" result="effect2_dropShadow_2_12201"/><feBlend in="SourceGraphic" in2="effect2_dropShadow_2_12201" result="shape"/></filter><filter id="d" x="298.459" y="-80.767" width="539.971" height="539.971" filterUnits="userSpaceOnUse" color-interpolation-filters="sRGB"><feFlood flood-opacity="0" result="BackgroundImageFix"/><feBlend in="SourceGraphic" in2="BackgroundImageFix" result="shape"/><feGaussianBlur stdDeviation="70.993" result="effect1_foregroundBlur_2_12201"/></filter><filter id="e" x="334.288" y="-146.762" width="355.177" height="355.177" filterUnits="userSpaceOnUse" color-interpolation-filters="sRGB"><feFlood flood-opacity="0" result="BackgroundImageFix"/><feBlend in="SourceGraphic" in2="BackgroundImageFix" result="shape"/><feGaussianBlur stdDeviation="56.794" result="effect1_foregroundBlur_2_12201"/></filter><filter id="f" x="223.937" y="4.517" width="307.177" height="307.177" filterUnits="userSpaceOnUse" color-interpolation-filters="sRGB"><feFlood flood-opacity="0" result="BackgroundImageFix"/><feBlend in="SourceGraphic" in2="BackgroundImageFix" result="shape"/><feGaussianBlur stdDeviation="56.794" result="effect1_foregroundBlur_2_12201"/></filter><filter id="h" x="307.546" y="48.271" width="576" height="576" filterUnits="userSpaceOnUse" color-interpolation-filters="sRGB"><feFlood flood-opacity="0" result="BackgroundImageFix"/><feBlend in="SourceGraphic" in2="BackgroundImageFix" result="shape"/><feGaussianBlur stdDeviation="80" result="effect1_foregroundBlur_2_12201"/></filter><filter id="i" x="346.978" y="-14.121" width="384" height="384" filterUnits="userSpaceOnUse" color-interpolation-filters="sRGB"><feFlood flood-opacity="0" result="BackgroundImageFix"/><feBlend in="SourceGraphic" in2="BackgroundImageFix" result="shape"/><feGaussianBlur stdDeviation="64" result="effect1_foregroundBlur_2_12201"/></filter><filter id="j" x="236.627" y="137.158" width="336" height="336" filterUnits="userSpaceOnUse" color-interpolation-filters="sRGB"><feFlood flood-opacity="0" result="BackgroundImageFix"/><feBlend in="SourceGraphic" in2="BackgroundImageFix" result="shape"/><feGaussianBlur stdDeviation="64" result="effect1_foregroundBlur_2_12201"/></filter><filter id="k" x="212.898" y="166.607" width="212.798" height="212.798" filterUnits="userSpaceOnUse" color-interpolation-filters="sRGB"><feFlood flood-opacity="0" result="BackgroundImageFix"/><feColorMatrix in="SourceAlpha" values="0 0 0 0 0 0 0 0 0 0 0 0 0 0 0 0 0 0 127 0" result="hardAlpha"/><feMorphology radius="2" in="SourceAlpha" result="effect1_dropShadow_2_12201"/><feOffset dy="2"/><feGaussianBlur stdDeviation="2"/><feColorMatrix values="0 0 0 0 0.054902 0 0 0 0 0.054902 0 0 0 0 0.054902 0 0 0 0.06 0"/><feBlend in2="BackgroundImageFix" result="effect1_dropShadow_2_12201"/><feColorMatrix in="SourceAlpha" values="0 0 0 0 0 0 0 0 0 0 0 0 0 0 0 0 0 0 127 0" result="hardAlpha"/><feMorphology radius="2" in="SourceAlpha" result="effect2_dropShadow_2_12201"/><feOffset dy="4"/><feGaussianBlur stdDeviation="4"/><feColorMatrix values="0 0 0 0 0.054902 0 0 0 0 0.054902 0 0 0 0 0.054902 0 0 0 0.1 0"/><feBlend in2="effect1_dropShadow_2_12201" result="effect2_dropShadow_2_12201"/><feBlend in="SourceGraphic" in2="effect2_dropShadow_2_12201" result="shape"/></filter><filter id="n" x="162.459" y="55.233" width="539.971" height="539.971" filterUnits="userSpaceOnUse" color-interpolation-filters="sRGB"><feFlood flood-opacity="0" result="BackgroundImageFix"/><feBlend in="SourceGraphic" in2="BackgroundImageFix" result="shape"/><feGaussianBlur stdDeviation="70.993" result="effect1_foregroundBlur_2_12201"/></filter><filter id="o" x="198.288" y="-10.762" width="355.177" height="355.177" filterUnits="userSpaceOnUse" color-interpolation-filters="sRGB"><feFlood flood-opacity="0" result="BackgroundImageFix"/><feBlend in="SourceGraphic" in2="BackgroundImageFix" result="shape"/><feGaussianBlur stdDeviation="56.794" result="effect1_foregroundBlur_2_12201"/></filter><filter id="p" x="87.937" y="140.517" width="307.177" height="307.177" filterUnits="userSpaceOnUse" color-interpolation-filters="sRGB"><feFlood flood-opacity="0" result="BackgroundImageFix"/><feBlend in="SourceGraphic" in2="BackgroundImageFix" result="shape"/><feGaussianBlur stdDeviation="56.794" result="effect1_foregroundBlur_2_12201"/></filter><filter id="s" x="-92.799" y="-22.439" width="539.971" height="539.971" filterUnits="userSpaceOnUse" color-interpolation-filters="sRGB"><feFlood flood-opacity="0" result="BackgroundImageFix"/><feBlend in="SourceGraphic" in2="BackgroundImageFix" result="shape"/><feGaussianBlur stdDeviation="70.993" result="effect1_foregroundBlur_2_12201"/></filter><filter id="t" x="157.99" y="13.389" width="355.177" height="355.177" filterUnits="userSpaceOnUse" color-interpolation-filters="sRGB"><feFlood flood-opacity="0" result="BackgroundImageFix"/><feBlend in="SourceGraphic" in2="BackgroundImageFix" result="shape"/><feGaussianBlur stdDeviation="56.794" result="effect1_foregroundBlur_2_12201"/></filter><filter id="u" x="54.711" y="-96.961" width="307.177" height="307.177" filterUnits="userSpaceOnUse" color-interpolation-filters="sRGB"><feFlood flood-opacity="0" result="BackgroundImageFix"/><feBlend in="SourceGraphic" in2="BackgroundImageFix" result="shape"/><feGaussianBlur stdDeviation="56.794" result="effect1_foregroundBlur_2_12201"/></filter><filter id="x" x="-225.799" y="-160.439" width="539.971" height="539.971" filterUnits="userSpaceOnUse" color-interpolation-filters="sRGB"><feFlood flood-opacity="0" result="BackgroundImageFix"/><feBlend in="SourceGraphic" in2="BackgroundImageFix" result="shape"/><feGaussianBlur stdDeviation="70.993" result="effect1_foregroundBlur_2_12201"/></filter><filter id="y" x="24.99" y="-124.611" width="355.177" height="355.177" filterUnits="userSpaceOnUse" color-interpolation-filters="sRGB"><feFlood flood-opacity="0" result="BackgroundImageFix"/><feBlend in="SourceGraphic" in2="BackgroundImageFix" result="shape"/><feGaussianBlur stdDeviation="56.794" result="effect1_foregroundBlur_2_12201"/></filter><filter id="z" x="-78.289" y="-234.961" width="307.177" height="307.177" filterUnits="userSpaceOnUse" color-interpolation-filters="sRGB"><feFlood flood-opacity="0" result="BackgroundImageFix"/><feBlend in="SourceGraphic" in2="BackgroundImageFix" result="shape"/><feGaussianBlur stdDeviation="56.794" result="effect1_foregroundBlur_2_12201"/></filter><filter id="C" x="-5.799" y="-110.439" width="539.971" height="539.971" filterUnits="userSpaceOnUse" color-interpolation-filters="sRGB"><feFlood flood-opacity="0" result="BackgroundImageFix"/><feBlend in="SourceGraphic" in2="BackgroundImageFix" result="shape"/><feGaussianBlur stdDeviation="70.993" result="effect1_foregroundBlur_2_12201"/></filter><filter id="D" x="244.99" y="-74.611" width="355.177" height="355.177" filterUnits="userSpaceOnUse" color-interpolation-filters="sRGB"><feFlood flood-opacity="0" result="BackgroundImageFix"/><feBlend in="SourceGraphic" in2="BackgroundImageFix" result="shape"/><feGaussianBlur stdDeviation="56.794" result="effect1_foregroundBlur_2_12201"/></filter><filter id="E" x="141.711" y="-184.961" width="307.177" height="307.177" filterUnits="userSpaceOnUse" color-interpolation-filters="sRGB"><feFlood flood-opacity="0" result="BackgroundImageFix"/><feBlend in="SourceGraphic" in2="BackgroundImageFix" result="shape"/><feGaussianBlur stdDeviation="56.794" result="effect1_foregroundBlur_2_12201"/></filter><filter id="G" x="-159.159" y="-264.454" width="576" height="576" filterUnits="userSpaceOnUse" color-interpolation-filters="sRGB"><feFlood flood-opacity="0" result="BackgroundImageFix"/><feBlend in="SourceGraphic" in2="BackgroundImageFix" result="shape"/><feGaussianBlur stdDeviation="80" result="effect1_foregroundBlur_2_12201"/></filter><filter id="H" x="95.233" y="-225.022" width="384" height="384" filterUnits="userSpaceOnUse" color-interpolation-filters="sRGB"><feFlood flood-opacity="0" result="BackgroundImageFix"/><feBlend in="SourceGraphic" in2="BackgroundImageFix" result="shape"/><feGaussianBlur stdDeviation="64" result="effect1_foregroundBlur_2_12201"/></filter><filter id="I" x="-8.047" y="-335.373" width="336" height="336" filterUnits="userSpaceOnUse" color-interpolation-filters="sRGB"><feFlood flood-opacity="0" result="BackgroundImageFix"/><feBlend in="SourceGraphic" in2="BackgroundImageFix" result="shape"/><feGaussianBlur stdDeviation="64" result="effect1_foregroundBlur_2_12201"/></filter><filter id="L" x="81.201" y="-196.439" width="539.971" height="539.971" filterUnits="userSpaceOnUse" color-interpolation-filters="sRGB"><feFlood flood-opacity="0" result="BackgroundImageFix"/><feBlend in="SourceGraphic" in2="BackgroundImageFix" result="shape"/><feGaussianBlur stdDeviation="70.993" result="effect1_foregroundBlur_2_12201"/></filter><filter id="M" x="331.99" y="-160.611" width="355.177" height="355.177" filterUnits="userSpaceOnUse" color-interpolation-filters="sRGB"><feFlood flood-opacity="0" result="BackgroundImageFix"/><feBlend in="SourceGraphic" in2="BackgroundImageFix" result="shape"/><feGaussianBlur stdDeviation="56.794" result="effect1_foregroundBlur_2_12201"/></filter><filter id="N" x="228.711" y="-270.961" width="307.177" height="307.177" filterUnits="userSpaceOnUse" color-interpolation-filters="sRGB"><feFlood flood-opacity="0" result="BackgroundImageFix"/><feBlend in="SourceGraphic" in2="BackgroundImageFix" result="shape"/><feGaussianBlur stdDeviation="56.794" result="effect1_foregroundBlur_2_12201"/></filter><clipPath id="b"><rect x="354.898" y="158.105" width="177.482" height="106.489" rx="7.099" transform="rotate(-45 354.898 158.105)" fill="#fff"/></clipPath><clipPath id="c"><path fill="#fff" d="M354.898 158.105 480.056 32.947l74.953 74.954-125.158 125.158z"/></clipPath><clipPath id="g"><rect x="382" y="305.158" width="177" height="106" rx="8" transform="rotate(-45 382 305.158)" fill="#fff"/></clipPath><clipPath id="l"><rect x="218.898" y="294.105" width="177.482" height="106.489" rx="7.099" transform="rotate(-45 218.898 294.105)" fill="#fff"/></clipPath><clipPath id="m"><path fill="#fff" d="m218.897 294.105 125.158-125.158 74.954 74.954L293.85 369.058z"/></clipPath><clipPath id="q"><rect x="208.299" y="34" width="177.482" height="106.489" rx="7.099" transform="rotate(45 208.299 34)" fill="#fff"/></clipPath><clipPath id="r"><path fill="#fff" d="m208.3 34 125.158 125.158-74.954 74.953-125.158-125.158z"/></clipPath><clipPath id="v"><rect x="75.299" y="-104" width="177.482" height="106.489" rx="7.099" transform="rotate(45 75.3 -104)" fill="#fff"/></clipPath><clipPath id="w"><path fill="#fff" d="M75.3-104 200.456 21.158 125.504 96.11.346-29.047z"/></clipPath><clipPath id="A"><rect x="295.299" y="-54" width="177.482" height="106.489" rx="7.099" transform="rotate(45 295.299 -54)" fill="#fff"/></clipPath><clipPath id="B"><path fill="#fff" d="M295.299-54 420.457 71.158l-74.954 74.953L220.345 20.953z"/></clipPath><clipPath id="F"><rect x="159.953" y="-190" width="177" height="106" rx="8" transform="rotate(45 159.953 -190)" fill="#fff"/></clipPath><clipPath id="J"><rect x="382.299" y="-140" width="177.482" height="106.489" rx="7.099" transform="rotate(45 382.299 -140)" fill="#fff"/></clipPath><clipPath id="K"><path fill="#fff" d="M382.3-140 507.456-14.842l-74.953 74.954L307.346-65.046z"/></clipPath></defs></svg>