<svg width="170" height="189" viewBox="0 0 170 189" fill="none" xmlns="http://www.w3.org/2000/svg"><g clip-path="url(#a)"><g filter="url(#b)"><g clip-path="url(#c)"><g clip-path="url(#d)"><path fill="#fff" d="m145.131 63.41 66.748 66.747-40.049 40.049-66.747-66.748z"/><g opacity=".8" filter="url(#e)"><circle cx="135.786" cy="174.21" r="60.413" transform="rotate(45 135.786 174.21)" fill="#F7931B"/></g><g opacity=".8" filter="url(#f)"><circle cx="210.543" cy="147.511" r="30.206" transform="rotate(45 210.543 147.511)" fill="#F7C71B"/></g><g opacity=".8" filter="url(#g)"><circle cx="145.131" cy="74.09" r="18.879" transform="rotate(45 145.131 74.09)" fill="#F7931B"/></g><path d="m217.44 130.157-49.393-35.873-43.886 28.253 42.634 42.634 50.645-35.014Z" fill="#fff" style="mix-blend-mode:overlay" opacity=".16"/></g><g clip-path="url(#h)"><path d="M153.547 94.65c.112.112.201.223.267.332.067.11.119.22.155.327l-.631.251c-.03-.07-.063-.14-.1-.21a.946.946 0 0 0-.171-.22.765.765 0 0 0-.632-.244c-.237.021-.465.14-.684.36a.779.779 0 0 0-.232.395c-.025.135.036.275.182.422a1.369 1.369 0 0 0 .468.308l-.411.494a2.71 2.71 0 0 1-.306-.157 1.78 1.78 0 0 1-.334-.27 1.412 1.412 0 0 1-.323-.46.993.993 0 0 1 .041-.872c.073-.135.167-.26.281-.374a2.02 2.02 0 0 1 .569-.405c.206-.098.418-.153.635-.165.215-.012.429.021.64.1.211.08.407.21.586.388Zm-3.631-5.427-1.213.75c.072.028.14.06.202.097a.907.907 0 0 1 .18.14c.119.12.201.245.244.375.044.13.058.26.042.392-.017.13-.061.259-.132.385a1.712 1.712 0 0 1-.279.36c-.175.176-.372.31-.592.402a1.82 1.82 0 0 1-.666.148 1.732 1.732 0 0 1-.662-.114 1.647 1.647 0 0 1-.585-.383 14.971 14.971 0 0 1-.116-.12 2.82 2.82 0 0 1-.358-.484 1.616 1.616 0 0 1-.146-.312l3.412-2.122.669.486Zm5.235 7.031c.129.13.222.264.28.403a.904.904 0 0 1 .071.413c-.01.137-.049.272-.117.404-.068.133-.163.26-.285.382-.151.151-.327.28-.527.386a1.885 1.885 0 0 1-.62.202c-.213.03-.428.014-.643-.046a1.36 1.36 0 0 1-.595-.363 1.24 1.24 0 0 1-.282-.404.89.89 0 0 1-.069-.412c.01-.137.049-.271.117-.404.067-.133.163-.26.284-.38a2.14 2.14 0 0 1 .529-.385 1.85 1.85 0 0 1 .626-.197c.216-.027.431-.011.646.048.213.06.409.177.585.353Zm-2.695-3.767-.732.448.619.618-.576.353-.615-.615-.864.536c-.073.043-.137.09-.189.137a.431.431 0 0 0-.114.15.24.24 0 0 0-.005.166.511.511 0 0 0 .135.196c.06.06.124.112.191.157.067.044.139.085.217.122l-.393.475a2.83 2.83 0 0 1-.314-.17 1.914 1.914 0 0 1-.34-.28c-.171-.17-.278-.33-.321-.476a.631.631 0 0 1 .012-.415c.05-.13.136-.25.258-.362a2.91 2.91 0 0 1 .421-.317l1.941-1.21.669.487Zm-1.651-.472-2.472 1.532-.551-.552 2.467-1.535.556.555Zm6.139 6.14-2.472 1.531-.552-.552 2.468-1.536.556.556Zm1.233 1.14c.291.292.405.579.343.862-.062.283-.279.538-.649.766l-1.335.827-.555-.556 1.303-.812c.082-.051.157-.103.228-.157a.66.66 0 0 0 .162-.165.274.274 0 0 0 .045-.183c-.007-.066-.047-.135-.122-.21a1.54 1.54 0 0 0-.243-.197l-1.91 1.187-.556-.555 2.362-1.46c.054.03.116.062.183.097a2.774 2.774 0 0 1 .464.304c.087.069.181.154.28.253Zm-9.702-8.75a.966.966 0 0 0-.155-.117.473.473 0 0 0-.231-.071l-1.288.797.031.046c.008.014.019.028.029.041a.81.81 0 0 0 .043.047l.067.067a.703.703 0 0 0 .311.181.92.92 0 0 0 .373.027 1.248 1.248 0 0 0 .711-.35.81.81 0 0 0 .226-.345c.029-.108-.01-.216-.117-.323Zm6.144 6.137a.485.485 0 0 0-.288-.144.869.869 0 0 0-.339.026c-.116.032-.228.08-.337.147a1.52 1.52 0 0 0-.281.217.864.864 0 0 0-.237.357c-.031.11.005.218.109.323a.48.48 0 0 0 .289.143c.11.014.223.005.339-.026.116-.03.228-.08.337-.146.108-.066.203-.14.281-.218a.86.86 0 0 0 .237-.356c.031-.111-.005-.219-.11-.323Zm-3.02-5.7c.077.078.123.17.139.28.015.109-.026.212-.122.308a.56.56 0 0 1-.591.117.5.5 0 0 1-.316-.396c-.015-.11.025-.212.122-.308a.51.51 0 0 1 .182-.119.565.565 0 0 1 .409.002.506.506 0 0 1 .177.117Zm6.139 6.14a.48.48 0 0 1 .139.278c.015.11-.026.213-.122.309a.556.556 0 0 1-.591.117.507.507 0 0 1-.316-.396c-.015-.109.025-.212.122-.308a.56.56 0 0 1 .59-.117.504.504 0 0 1 .178.116Z" fill="#4D4D4D"/><circle cx="143.128" cy="85.437" r="4.248" transform="rotate(45 143.128 85.437)" fill="#F7931B"/><path fill-rule="evenodd" clip-rule="evenodd" d="m144.276 83.756.675-.41.241.406-.662.4c.067.108.134.216.197.323l.657-.4.241.406-.675.41c.265.55.348 1.064-.111 1.405-.335.25-.636.234-.896.072.135.445.047.828-.504 1.098-.683.334-1.14-.038-1.584-.695l-.681.413-.241-.405.671-.408a20.716 20.716 0 0 1-.189-.326l-.674.41-.241-.405.682-.414c-.161-.273-.321-.546-.483-.818l.538-.218s.173.303.175.295c.068.115.17.094.226.07l1.847-1.122c.074-.066.139-.178.041-.343a5.483 5.483 0 0 0-.175-.294l.438-.266c.162.272.32.547.487.816ZM142.88 85.3a4.201 4.201 0 0 1-.059-.096l-.903.548.046.08c.192.334.613 1.067 1.081.782.478-.29.045-.98-.165-1.314Zm1.225-.763a1.797 1.797 0 0 1-.051-.082l-.82.498.04.068c.16.28.508.888.933.63.435-.264.074-.836-.102-1.114Z" fill="#fff"/></g><path d="m121.579 98.51 1.341 1.341c.271.271.407.559.407.865.003.308-.123.59-.379.845a1.148 1.148 0 0 1-.359.257.952.952 0 0 1-.342.08.808.808 0 0 1-.294-.052 1.258 1.258 0 0 1-.224-.121l-.028.028a.877.877 0 0 1 .149.243.987.987 0 0 1 .005.743c-.047.14-.137.277-.271.411-.134.134-.28.237-.439.308a1.244 1.244 0 0 1-.472.126 1.181 1.181 0 0 1-.467-.065 1.143 1.143 0 0 1-.407-.266l-1.481-1.481 3.261-3.262Zm-2.523 3.308.967.967c.169.169.343.259.524.271.183.01.358-.068.523-.233l.159-.159c.165-.165.241-.338.229-.519-.01-.183-.098-.359-.267-.528l-.967-.967-1.168 1.168Zm1.505-1.504.901.902c.156.155.317.238.482.247.165.01.321-.059.467-.205l.159-.159c.146-.147.215-.302.205-.467-.009-.166-.091-.326-.247-.482l-.902-.901-1.065 1.065Zm3.935 1.683c-.081-.081-.121-.158-.121-.233a.321.321 0 0 1 .103-.206l.06-.061a.304.304 0 0 1 .201-.098c.078-.003.158.036.239.117.081.081.118.159.112.234a.283.283 0 0 1-.094.205l-.061.061a.308.308 0 0 1-.21.098c-.071.003-.148-.036-.229-.117Zm-.752.379.374.374-2.411 2.411-.374-.374 2.411-2.411Zm-.71 4.111c-.131-.13-.195-.266-.192-.406a.607.607 0 0 1 .192-.388l1.687-1.687-.398-.397.327-.327.225.225c.081.081.151.119.21.116.065-.003.139-.045.22-.126l.448-.448.337.336-.669.668.528.528-.327.327-.528-.528-1.756 1.757.49.491-.327.327-.467-.468Zm1.928 2.041a1.56 1.56 0 0 1-.364-.542 1.332 1.332 0 0 1-.089-.594c.019-.199.081-.401.187-.607.109-.202.26-.4.453-.593.193-.194.391-.345.593-.454a1.67 1.67 0 0 1 .608-.187c.202-.015.4.015.593.089.193.075.374.196.542.365.24.24.379.484.416.733.044.249.017.494-.08.734l-.471-.154a.805.805 0 0 0 .074-.505.911.911 0 0 0-.271-.477 1.024 1.024 0 0 0-.35-.238.766.766 0 0 0-.36-.061.871.871 0 0 0-.355.103 1.336 1.336 0 0 0-.332.248l-.411.411c-.212.212-.33.442-.355.691-.019.25.083.485.304.706.302.302.66.38 1.074.234l.089.453a1.35 1.35 0 0 1-.766.065c-.256-.05-.498-.19-.729-.42Zm2.337 2.336a1.541 1.541 0 0 1-.356-.532 1.425 1.425 0 0 1-.093-.598c.019-.206.078-.412.178-.617.102-.209.25-.41.443-.603.19-.19.39-.336.598-.439.209-.103.415-.162.617-.178.209-.015.41.014.603.089s.371.193.533.355c.162.162.278.338.35.528.075.193.104.394.089.603-.013.205-.07.413-.173.621a2.267 2.267 0 0 1-.439.598 2.292 2.292 0 0 1-.603.444c-.206.1-.413.158-.621.173a1.411 1.411 0 0 1-.599-.093 1.485 1.485 0 0 1-.527-.351Zm.331-.332c.203.203.43.306.682.309.253.003.507-.123.762-.379l.346-.345c.255-.256.381-.51.378-.762-.003-.252-.106-.48-.308-.682-.203-.203-.43-.305-.682-.308-.253-.004-.507.123-.762.378l-.346.346c-.255.255-.381.509-.378.761.003.253.106.48.308.682Zm4.591-.81c-.081-.081-.121-.159-.121-.233a.325.325 0 0 1 .102-.206l.061-.061a.3.3 0 0 1 .201-.098c.078-.003.157.036.238.117.081.081.119.159.112.234a.286.286 0 0 1-.093.205l-.061.061a.308.308 0 0 1-.21.098c-.072.003-.148-.036-.229-.117Zm-.752.379.374.373-2.411 2.411-.374-.373 2.411-2.411Zm-1.243 3.579 2.411-2.411.374.373-.393.393.019.019c.196-.078.388-.105.575-.08.19.028.375.133.556.313.249.249.364.527.345.832-.012.305-.165.604-.458.897l-1.546 1.547-.374-.374 1.481-1.481c.433-.433.468-.832.103-1.196a1.211 1.211 0 0 0-.248-.192.896.896 0 0 0-.271-.103.604.604 0 0 0-.28.01.57.57 0 0 0-.248.154l-1.672 1.672-.374-.373Zm7.058.535 1.341 1.341c.271.271.407.56.407.865.003.308-.123.59-.379.845a1.132 1.132 0 0 1-.359.257.947.947 0 0 1-.341.08.813.813 0 0 1-.295-.052 1.197 1.197 0 0 1-.224-.121l-.028.028a.877.877 0 0 1 .149.243.987.987 0 0 1 .005.743c-.047.14-.137.277-.271.411-.134.134-.28.237-.439.308a1.2 1.2 0 0 1-.939.061 1.143 1.143 0 0 1-.407-.266l-1.481-1.481 3.261-3.262Zm-2.523 3.308.968.968c.168.168.342.258.523.271.184.009.358-.069.523-.234l.159-.159c.165-.165.241-.338.229-.518-.009-.184-.098-.36-.266-.528l-.968-.968-1.168 1.168Zm1.505-1.504.902.902c.155.155.316.238.481.247.165.01.321-.059.467-.205l.159-.159c.146-.146.215-.302.206-.467-.01-.165-.092-.326-.248-.482l-.902-.901-1.065 1.065Zm4.705 2.574-2.916 2.916-.392-.393 2.915-2.915-1.037-1.038.346-.345 2.467 2.467-.346.345-1.037-1.037Zm-.338 5.606c-.414-.415-.597-.877-.547-1.388.053-.514.354-1.045.902-1.593.548-.549 1.084-.854 1.607-.916.527-.066.997.109 1.411.523.274.274.441.566.5.874.063.311.031.632-.093.962l-.51-.126a1.25 1.25 0 0 0 .103-.701c-.031-.236-.148-.456-.35-.658a1.225 1.225 0 0 0-.458-.299 1.118 1.118 0 0 0-.509-.052 1.488 1.488 0 0 0-.524.178 2.23 2.23 0 0 0-.514.392l-.485.486c-.337.337-.522.678-.556 1.023-.035.346.09.661.373.944.209.209.436.33.682.365.25.031.496-.01.739-.122l.116.509a1.816 1.816 0 0 1-.99.103c-.324-.062-.623-.23-.897-.504Zm5.034.1.364.364-.785 1.299-.799 1.313.01.009 1.35-.761 1.346-.739.331.332-.728 1.355-.757 1.355.009.009 1.304-.808 1.303-.78.351.35-3.051 1.771-.463-.462.822-1.496.524-.943-.01-.01-.939.528-1.495.823-.453-.454 1.766-3.055Zm3.139 7.96c-.14-.14-.204-.278-.192-.416a.815.815 0 0 1 .168-.392l-.023-.023a.883.883 0 0 1-.598.074 1.146 1.146 0 0 1-.547-.322c-.255-.255-.389-.52-.402-.794-.009-.271.099-.519.323-.743.227-.228.484-.319.771-.276.289.047.61.246.962.598l.477.477.238-.239c.171-.171.256-.348.252-.532-.003-.184-.101-.372-.294-.566a.938.938 0 0 0-.467-.271 1.172 1.172 0 0 0-.505.019l-.014-.434c.196-.066.411-.072.645-.019.237.05.464.184.682.402.293.293.449.592.467.897.019.305-.099.585-.355.841l-1.327 1.327.276.275-.327.328-.21-.211Zm-.813-1.336c.093.093.19.168.289.224.1.056.198.092.295.108a.662.662 0 0 0 .271-.01.458.458 0 0 0 .219-.126l.398-.397-.496-.495c-.215-.215-.403-.341-.565-.379a.428.428 0 0 0-.416.127l-.098.098a.467.467 0 0 0-.15.401c.022.153.106.303.253.449Zm1.954 2.477c-.131-.131-.195-.266-.192-.406a.58.58 0 0 1 .182-.379l3.07-3.069.374.373-3.131 3.131.355.355-.327.327-.331-.332Zm1.25 1.25c-.131-.13-.195-.266-.192-.406.01-.14.07-.266.182-.379l3.07-3.069.374.374-3.131 3.13.356.355-.327.327-.332-.332Zm1.726 1.839a1.552 1.552 0 0 1-.36-.538 1.435 1.435 0 0 1-.089-.593 1.78 1.78 0 0 1 .178-.617c.106-.205.255-.405.449-.598.19-.19.387-.338.593-.444.209-.102.414-.162.617-.177.208-.016.408.012.598.084.193.075.372.195.537.36.162.162.277.336.346.523.068.187.095.378.079.575a1.468 1.468 0 0 1-.163.574 2.036 2.036 0 0 1-.397.547l-.178.178-1.733-1.734-.113.112a1.255 1.255 0 0 0-.242.337 1.039 1.039 0 0 0-.089.369.942.942 0 0 0 .07.378c.053.128.135.248.247.36.153.153.321.249.505.29a1 1 0 0 0 .575-.042l.075.458a1.338 1.338 0 0 1-.767.037 1.576 1.576 0 0 1-.738-.439Zm2.21-2.21a.974.974 0 0 0-.705-.295 1.104 1.104 0 0 0-.715.332l-.033.033 1.332 1.331.051-.051c.215-.215.327-.445.336-.691.016-.247-.073-.466-.266-.659Zm.037 4.344c-.131-.131-.195-.266-.192-.406a.596.596 0 0 1 .192-.388l1.686-1.687-.397-.397.327-.327.224.224c.081.081.152.12.211.117.065-.003.138-.045.219-.126l.449-.449.336.337-.668.668.528.528-.327.327-.528-.528-1.757 1.757.491.49-.327.327-.467-.467Z" fill="#333"/></g></g><g filter="url(#i)"><g clip-path="url(#j)"><g clip-path="url(#k)"><path fill="#fff" d="M72.844-8.109 139.59 58.64 99.543 98.687 32.795 31.94z"/><g opacity=".8" filter="url(#l)"><circle cx="63.499" cy="102.691" r="60.413" transform="rotate(45 63.5 102.691)" fill="#F44336"/></g><g opacity=".8" filter="url(#m)"><circle cx="138.256" cy="75.992" r="30.206" transform="rotate(45 138.256 75.992)" fill="#283991"/></g><g opacity=".8" filter="url(#n)"><circle cx="72.844" cy="2.57" r="18.879" transform="rotate(45 72.844 2.57)" fill="#F44336"/></g><path d="M145.153 58.638 95.76 22.765 51.874 51.018 94.508 93.65l50.645-35.013Z" fill="#fff" style="mix-blend-mode:overlay" opacity=".16"/></g><rect x="72.844" y="2.57" width="15.103" height="15.103" rx="7.552" transform="rotate(45 72.844 2.57)" fill="#fff"/><path fill-rule="evenodd" clip-rule="evenodd" d="M77.958 7.684a7.514 7.514 0 0 0-3.738-1.8l6.162 6.162a7.515 7.515 0 0 0-1.8-3.738l-.164-.164-.46-.46ZM72.207 5.81a7.54 7.54 0 0 0-1.602.335l6.42 6.421 3.097 3.096a7.5 7.5 0 0 0 .335-1.602l-2.371-2.372-5.879-5.878Zm-4.195 1.637a7.471 7.471 0 0 1 1.146-.792L79.432 16.93c-.225.4-.488.783-.792 1.145L68.012 7.446Zm-.967.971c-.302.364-.563.75-.786 1.151l10.259 10.26a7.47 7.47 0 0 0 1.151-.787L67.045 8.417Zm-1.697 4.116c.05-.545.16-1.085.327-1.61l6.735 6.734 2.754 2.754a7.54 7.54 0 0 1-1.61.327l-2.599-2.598-5.607-5.607Zm1.945 5.809.016.016.015.017a7.434 7.434 0 0 0 4.2 2.272l-1.714-1.714-4.371-4.371a7.432 7.432 0 0 0 1.854 3.78Z" fill="#F44336"/><path d="M78.067 7.799a7.544 7.544 0 0 0-10.056-.35l5.203 5.202L78.067 7.8Z" fill="#283991"/><path d="m70.895 6.655-.169.33.264.264-.368-.058-.169.331-.058-.367-.367-.059.33-.169-.058-.367.264.263.33-.168Zm-.883.882-.168.332.263.263-.368-.059-.168.332-.059-.368-.367-.058.331-.169-.058-.367.263.263.331-.169Zm3.091-1.322-.168.331.263.264-.368-.059-.168.331-.059-.367-.367-.058.331-.169-.058-.368.263.264.331-.169Zm-.883.883-.168.331.263.263-.367-.058-.169.331-.058-.367-.368-.059.332-.169-.06-.367.264.263.332-.168Zm-.882.882-.169.332.264.263-.368-.059-.168.332-.059-.368-.367-.058.33-.169-.058-.367.264.263.33-.168Zm-2.21-.901.168-.332.368.06-.264-.264.013-.024c-.118.06-.235.124-.35.191l.006.001.059.368Zm1.782-.866.368.059.058.367.169-.33.367.058-.263-.264.168-.33-.33.168-.098-.098-.135.03.027.172-.33.168Zm2.576-.381.058.368.169-.331.367.058-.152-.152a7.5 7.5 0 0 0-.68-.068l-.13.067.368.058Zm.958.385.368.059.058.367.169-.331.367.058-.263-.263.022-.045a7.466 7.466 0 0 0-.407-.12l.018.106-.332.17Zm-.015.442-.169.33.264.264-.368-.059-.168.332-.059-.368-.367-.058.331-.169-.059-.367.264.263.33-.168Zm-.883.882-.168.331.263.264-.367-.059-.169.331-.058-.367-.368-.059.331-.168-.058-.368.263.264.331-.169Zm-.882.883-.169.331.263.263-.367-.058-.169.331-.058-.367-.368-.059.332-.169-.059-.367.263.263.332-.168Zm-.883.882-.169.332.264.263-.368-.059-.168.332-.059-.368-.367-.058.331-.169-.059-.367.264.263.331-.169Zm3.974-2.204-.169.33.264.264-.368-.058-.168.33-.059-.366-.367-.06.33-.168-.058-.367.264.263.33-.168Zm-.883.882-.168.332.263.263-.367-.059-.17.331-.058-.367-.367-.059.331-.168-.058-.368.263.264.331-.169Zm-.882.883-.169.331.263.263-.367-.058-.169.331-.058-.367-.368-.059.332-.168-.06-.368.264.263.332-.168Zm-.883.883-.169.33.263.264-.367-.058-.168.33-.059-.367-.367-.058.331-.169-.059-.367.263.263.332-.168Zm3.973-2.205-.168.331.263.263-.367-.058-.169.331-.058-.367-.368-.059.332-.169-.06-.367.264.263.332-.168Zm-.882.883-.168.33.263.264-.368-.059-.168.332-.059-.368-.367-.058.331-.169-.059-.367.264.263.33-.168Zm-.883.882-.168.331.263.264-.367-.059-.169.331-.058-.367-.368-.059.331-.168-.058-.368.263.263.331-.168Zm-.882.883-.169.331.264.263-.368-.058-.169.331-.058-.367-.368-.059.332-.169-.059-.367.263.263.332-.168Zm-.883.882-.168.332.263.263-.368-.059-.168.332-.059-.368-.367-.058.331-.169-.059-.368.264.264.331-.169Z" fill="#EFEFEF"/><path d="m49.661 27.36-2.018 2.018c-.312.312-.49.606-.538.883-.043.274.08.556.37.846.29.29.571.413.845.37.278-.047.572-.227.883-.538l2.019-2.018.392.392-1.925 1.925c-.236.237-.464.42-.682.551a1.499 1.499 0 0 1-.635.234 1.178 1.178 0 0 1-.626-.112 2.234 2.234 0 0 1-.636-.468 2.232 2.232 0 0 1-.467-.635 1.142 1.142 0 0 1-.098-.612 1.55 1.55 0 0 1 .238-.63 4.21 4.21 0 0 1 .56-.674l1.926-1.925.392.393Zm.396 7.03c-.265-.264-.44-.54-.528-.827a2.068 2.068 0 0 1-.056-.897l.533.047c-.038.268-.027.512.032.734.063.218.189.422.379.612.234.233.467.355.7.364a.812.812 0 0 0 .636-.262c.156-.155.23-.322.22-.5-.01-.177-.097-.398-.262-.663l-.205-.327c-.23-.367-.357-.7-.379-.995-.015-.296.103-.57.355-.822.144-.144.298-.245.463-.304.165-.06.331-.08.5-.06.171.02.34.079.509.172.175.093.341.22.5.378.246.247.411.502.495.767.087.268.105.55.052.845l-.51-.079a1.434 1.434 0 0 0-.032-.622c-.056-.199-.18-.393-.37-.584-.208-.208-.418-.328-.63-.36-.206-.03-.397.043-.575.22-.156.156-.224.324-.206.505.025.18.117.397.276.65l.206.327c.249.392.372.733.369 1.023-.003.29-.126.556-.37.799a1.41 1.41 0 0 1-.485.327 1.147 1.147 0 0 1-.528.089 1.454 1.454 0 0 1-.552-.16 2.041 2.041 0 0 1-.537-.396Zm5.117-1.518 1.093 1.094c.202.202.352.42.448.654.097.233.134.476.113.729a1.904 1.904 0 0 1-.239.78c-.14.265-.345.532-.616.803s-.54.479-.809.622c-.264.14-.525.22-.78.238-.25.019-.49-.02-.724-.117a2.015 2.015 0 0 1-.654-.448l-1.094-1.093 3.262-3.262Zm-1.823 4.01c.134.133.28.234.435.303.159.065.322.095.49.088.169-.006.337-.05.505-.13a1.78 1.78 0 0 0 .505-.365l.532-.532c.162-.162.282-.329.36-.5.084-.172.13-.341.136-.51a1.092 1.092 0 0 0-.094-.485 1.344 1.344 0 0 0-.299-.44l-.7-.7-2.57 2.57.7.7Zm4.921.79.365.364-.785 1.3-.8 1.312.01.01 1.35-.762 1.346-.739.332.332-.729 1.355-.757 1.355.01.01 1.303-.809 1.304-.78.35.35-3.051 1.771-.463-.462.823-1.496.523-.943-.01-.01-.938.528-1.495.823-.454-.454 1.766-3.055Zm3.14 7.96c-.141-.14-.205-.278-.192-.415a.804.804 0 0 1 .168-.393l-.023-.023a.882.882 0 0 1-.599.074 1.15 1.15 0 0 1-.546-.322c-.256-.255-.39-.52-.402-.794-.01-.271.098-.519.322-.743.228-.227.485-.32.771-.276.29.047.61.246.963.598l.476.477.239-.238c.17-.172.255-.35.252-.533-.003-.184-.101-.372-.294-.565a.931.931 0 0 0-.468-.271 1.156 1.156 0 0 0-.504.018l-.014-.434c.196-.066.41-.072.645-.019.236.05.464.184.682.402.292.293.448.592.467.897.019.305-.1.585-.355.841l-1.327 1.327.276.276-.328.327-.21-.21Zm-.814-1.336c.094.093.19.168.29.224a.91.91 0 0 0 .294.108.655.655 0 0 0 .271-.01.474.474 0 0 0 .22-.126l.397-.397-.495-.495c-.215-.215-.404-.341-.566-.379a.428.428 0 0 0-.415.127l-.099.098a.466.466 0 0 0-.15.401c.023.153.107.303.253.45Zm1.954 2.477c-.13-.13-.195-.266-.191-.406a.58.58 0 0 1 .182-.379l3.07-3.07.373.374-3.13 3.13.355.356-.327.327-.332-.332Zm1.25 1.25c-.13-.13-.194-.266-.191-.406a.58.58 0 0 1 .182-.378l3.07-3.07.373.374-3.13 3.13.355.355-.327.327-.332-.332Zm1.726 1.839a1.552 1.552 0 0 1-.36-.538 1.418 1.418 0 0 1-.088-.593 1.8 1.8 0 0 1 .177-.617 2.42 2.42 0 0 1 .45-.598c.19-.19.387-.338.592-.444a1.7 1.7 0 0 1 .617-.177 1.37 1.37 0 0 1 .598.084c.193.075.373.195.538.36.161.162.277.336.345.523.069.187.095.378.08.575a1.47 1.47 0 0 1-.164.575 2.019 2.019 0 0 1-.397.546l-.177.178-1.734-1.734-.112.112a1.248 1.248 0 0 0-.243.337 1.05 1.05 0 0 0-.089.369.949.949 0 0 0 .07.378c.053.128.136.248.248.36.153.153.32.25.504.29a.99.99 0 0 0 .575-.042l.075.458c-.243.087-.498.1-.766.037a1.58 1.58 0 0 1-.739-.44Zm2.21-2.21a.966.966 0 0 0-.336-.224.884.884 0 0 0-.369-.07 1.112 1.112 0 0 0-.715.332l-.033.032 1.332 1.331.051-.05c.215-.216.328-.446.337-.692a.828.828 0 0 0-.266-.66Zm.037 4.344c-.13-.13-.195-.266-.192-.406a.6.6 0 0 1 .192-.388l1.687-1.687-.397-.397.327-.327.224.224c.081.081.151.12.21.117.066-.003.139-.045.22-.126l.448-.449.337.337-.668.668.528.528-.328.327-.527-.528-1.757 1.757.49.49-.327.328-.467-.468Z" fill="#333"/></g></g><g filter="url(#o)"><g clip-path="url(#p)"><g clip-path="url(#q)"><path fill="#fff" d="m-.156-82.11 66.747 66.748-40.048 40.048-66.747-66.747z"/><g opacity=".8" filter="url(#r)"><circle cx="-9.501" cy="28.691" r="60.413" transform="rotate(45 -9.5 28.69)" fill="#009393"/></g><g opacity=".8" filter="url(#s)"><circle cx="65.256" cy="1.992" r="30.206" transform="rotate(45 65.256 1.992)" fill="#04D9D9"/></g><g opacity=".8" filter="url(#t)"><circle cx="-.156" cy="-71.43" r="18.879" transform="rotate(45 -.156 -71.43)" fill="#009393"/></g><path d="M72.153-15.362 22.76-51.235l-43.886 28.253L21.508 19.65l50.645-35.013Z" fill="#fff" style="mix-blend-mode:overlay" opacity=".16"/></g></g></g><g filter="url(#u)"><g clip-path="url(#v)"><g clip-path="url(#w)"><path fill="#fff" d="m190.293 18.5 66.747 66.747-40.048 40.049-66.747-66.748z"/><g opacity=".8" filter="url(#x)"><circle cx="180.948" cy="129.3" r="60.413" transform="rotate(45 180.948 129.3)" fill="#52567F"/></g><g opacity=".8" filter="url(#y)"><circle cx="255.705" cy="102.601" r="30.206" transform="rotate(45 255.705 102.601)" fill="#828CAD"/></g><g opacity=".8" filter="url(#z)"><circle cx="190.293" cy="29.18" r="18.879" transform="rotate(45 190.293 29.18)" fill="#52567F"/></g><path d="m262.602 85.247-49.393-35.873-43.885 28.253 42.633 42.633 50.645-35.013Z" fill="#fff" style="mix-blend-mode:overlay" opacity=".16"/></g><path d="m163.48 56.861 3.261-3.26 1.991 1.99-.346.345-1.598-1.598-1.093 1.094 1.504 1.504-.345.346-1.505-1.504-1.131 1.13 1.598 1.598-.345.346-1.991-1.99Zm3.219 3.22c-.13-.131-.194-.267-.191-.407a.599.599 0 0 1 .191-.388l1.687-1.686-.397-.397.327-.328.224.225c.081.08.151.12.211.117.065-.003.138-.046.219-.127l.449-.448.336.336-.668.668.528.528-.327.328-.528-.529-1.757 1.757.491.49-.327.328-.468-.467Zm4.563-2.352.374.373-1.439 1.44.019.018a1.14 1.14 0 0 1 .574-.08c.19.029.376.133.556.314.25.249.365.526.346.831-.012.306-.165.605-.458.898l-1.546 1.546-.374-.374 1.481-1.48c.433-.434.467-.833.103-1.197a1.216 1.216 0 0 0-.248-.191.89.89 0 0 0-.271-.103.609.609 0 0 0-.28.009.58.58 0 0 0-.248.154l-1.672 1.673-.374-.374 3.457-3.457Zm.049 7.075a1.559 1.559 0 0 1-.36-.537 1.422 1.422 0 0 1-.089-.594 1.78 1.78 0 0 1 .178-.616c.106-.206.255-.405.448-.598.19-.19.388-.338.594-.444.208-.103.414-.162.616-.178a1.4 1.4 0 0 1 .598.084c.194.075.373.195.538.36.162.162.277.337.345.523.069.187.095.379.08.575a1.473 1.473 0 0 1-.164.575 1.995 1.995 0 0 1-.397.546l-.177.178-1.734-1.733-.112.112a1.24 1.24 0 0 0-.243.336 1.066 1.066 0 0 0-.089.37.965.965 0 0 0 .07.378c.053.127.136.247.248.36.153.152.321.249.505.29a.99.99 0 0 0 .574-.043l.075.458a1.33 1.33 0 0 1-.766.037 1.577 1.577 0 0 1-.738-.439Zm2.21-2.21a.964.964 0 0 0-.337-.224.882.882 0 0 0-.369-.07 1.119 1.119 0 0 0-.715.332l-.032.032 1.331 1.332.052-.052c.215-.215.327-.445.336-.691.016-.246-.073-.466-.266-.659Zm-.496 3.812 2.411-2.411.373.374-.444.444.024.023a1.03 1.03 0 0 1 .542-.075c.202.022.402.131.598.327l.145.145-.374.374-.22-.22c-.202-.202-.4-.322-.593-.36-.187-.037-.338.002-.453.117l-1.636 1.636-.373-.374Zm2.543 2.655a1.559 1.559 0 0 1-.36-.537 1.422 1.422 0 0 1-.089-.594 1.78 1.78 0 0 1 .178-.616c.106-.206.255-.405.448-.598.19-.19.388-.338.594-.444.208-.103.414-.162.616-.178a1.4 1.4 0 0 1 .598.084c.194.075.373.195.538.36.162.162.277.337.346.523.068.187.095.379.079.575a1.457 1.457 0 0 1-.164.575 1.995 1.995 0 0 1-.397.546l-.177.178-1.734-1.733-.112.112a1.24 1.24 0 0 0-.243.336 1.066 1.066 0 0 0-.089.37.948.948 0 0 0 .071.378c.053.127.135.247.247.36a.987.987 0 0 0 1.079.248l.075.457a1.33 1.33 0 0 1-.766.037 1.577 1.577 0 0 1-.738-.439Zm2.21-2.21a.966.966 0 0 0-.337-.224.882.882 0 0 0-.369-.07 1.119 1.119 0 0 0-.715.332l-.032.032 1.331 1.332.052-.052c.215-.214.327-.445.336-.691.016-.246-.073-.466-.266-.659Zm1.382 4.905-.019-.018a1.606 1.606 0 0 1-.261.074.898.898 0 0 1-.276.014.93.93 0 0 1-.29-.093 1.19 1.19 0 0 1-.299-.224c-.249-.25-.367-.527-.355-.832.016-.308.17-.609.463-.902l1.546-1.546.374.374-1.481 1.48c-.433.434-.466.834-.098 1.201.075.075.156.137.243.187.09.053.18.087.271.103a.568.568 0 0 0 .532-.168l1.668-1.668.374.374-2.411 2.41-.374-.373.393-.393Zm.777 1.563 2.411-2.411.374.373-.393.393.019.019a1.78 1.78 0 0 1 .266-.08.922.922 0 0 1 .276-.014 1.006 1.006 0 0 1 .556.294c.159.16.266.345.323.556.059.21.034.433-.075.673l.009.01c.175-.088.369-.12.584-.099.221.022.435.136.64.342.246.246.357.518.332.817-.019.3-.174.595-.467.888l-1.547 1.546-.374-.373 1.482-1.481c.214-.215.334-.42.359-.612.025-.194-.054-.382-.238-.566a1.166 1.166 0 0 0-.243-.187.82.82 0 0 0-.262-.093.573.573 0 0 0-.518.173l-1.673 1.672-.374-.373 1.481-1.481c.215-.215.335-.42.36-.613.025-.193-.051-.378-.229-.555a1.11 1.11 0 0 0-.243-.187.81.81 0 0 0-.266-.099.638.638 0 0 0-.276.014.576.576 0 0 0-.247.155l-1.673 1.672-.374-.373Zm5.221 5.22 3.261-3.261 1.991 1.99-.346.346-1.598-1.598-1.093 1.093 1.504 1.505-.346.346-1.504-1.505-1.131 1.131 1.598 1.598-.346.346-1.99-1.99Zm6.737.907-2.915 2.915-.393-.392 2.916-2.916-1.037-1.037.345-.346 2.467 2.467-.345.346-1.038-1.037Zm2.179 5.056-1.649-1.649-1.477 1.477-.392-.393 3.261-3.261.392.392-1.439 1.44 1.65 1.649 1.439-1.44.392.393-3.261 3.261-.392-.392 1.476-1.477Zm3.011 1.142.364.365-.785 1.298-.799 1.313.009.01 1.351-.762 1.345-.738.332.332-.729 1.355-.757 1.355.01.009 1.303-.808 1.304-.78.35.35-3.051 1.77-.462-.462.822-1.495.523-.944-.009-.01-.939.529-1.495.822-.454-.453 1.767-3.056Zm3.138 7.96c-.14-.14-.204-.278-.191-.415a.793.793 0 0 1 .168-.393l-.023-.023a.883.883 0 0 1-.598.075 1.146 1.146 0 0 1-.547-.323c-.255-.255-.389-.52-.402-.794-.009-.27.098-.518.323-.743.227-.227.484-.319.77-.275.29.046.611.246.963.598l.477.476.238-.238c.171-.171.255-.349.252-.533-.003-.184-.101-.372-.294-.565a.934.934 0 0 0-.467-.271 1.16 1.16 0 0 0-.505.019l-.014-.435c.196-.065.411-.072.645-.019.236.05.464.184.682.402.293.293.448.592.467.897.019.306-.1.586-.355.841l-1.327 1.327.276.276-.327.327-.211-.21Zm-.813-1.336c.094.094.19.169.29.225.1.056.198.092.294.107a.654.654 0 0 0 .271-.01.469.469 0 0 0 .22-.125l.397-.398-.495-.495c-.215-.215-.403-.34-.565-.378a.428.428 0 0 0-.416.126l-.098.098a.463.463 0 0 0-.15.402c.022.153.106.302.252.448Zm1.954 2.478c-.131-.131-.194-.267-.191-.407a.579.579 0 0 1 .182-.378l3.07-3.07.373.374-3.13 3.13.355.355-.327.327-.332-.331Zm1.25 1.25c-.13-.131-.194-.266-.191-.407a.579.579 0 0 1 .182-.378l3.07-3.07.374.374-3.131 3.13.355.356-.327.326-.332-.331Zm1.727 1.838a1.559 1.559 0 0 1-.36-.537 1.422 1.422 0 0 1-.089-.593c.019-.206.078-.412.178-.617.106-.206.255-.405.448-.598.19-.19.388-.338.594-.444a1.68 1.68 0 0 1 .616-.178 1.4 1.4 0 0 1 .598.084c.194.075.373.195.538.36.162.162.277.336.346.523.068.187.095.379.079.575a1.473 1.473 0 0 1-.164.575 1.995 1.995 0 0 1-.397.547l-.177.177-1.734-1.733-.112.112a1.241 1.241 0 0 0-.243.336 1.066 1.066 0 0 0-.089.37.948.948 0 0 0 .071.378 1.1 1.1 0 0 0 .247.36c.153.152.321.249.505.29a.99.99 0 0 0 .574-.043l.075.458a1.33 1.33 0 0 1-.766.037 1.577 1.577 0 0 1-.738-.439Zm2.21-2.21a.965.965 0 0 0-.337-.224.884.884 0 0 0-.369-.07 1.116 1.116 0 0 0-.715.332l-.032.032 1.331 1.332.052-.051c.215-.215.327-.446.336-.692.016-.246-.073-.466-.266-.659Zm.036 4.345c-.131-.131-.194-.267-.191-.407a.599.599 0 0 1 .191-.388l1.687-1.686-.397-.397.327-.328.224.225c.081.08.151.12.21.117.066-.004.139-.046.22-.127l.449-.448.336.336-.668.668.528.528-.327.327-.528-.528-1.757 1.757.491.491-.327.327-.468-.467Z" fill="#333"/></g></g><g filter="url(#A)"><g clip-path="url(#B)"><g clip-path="url(#C)"><path fill="#fff" d="m118.293-53.5 66.747 66.747-40.048 40.048-66.748-66.747z"/><g opacity=".8" filter="url(#D)"><circle cx="108.948" cy="57.3" r="60.413" transform="rotate(45 108.948 57.3)" fill="#283991"/></g><g opacity=".8" filter="url(#E)"><circle cx="183.705" cy="30.601" r="30.206" transform="rotate(45 183.705 30.601)" fill="#F8D12E"/></g><g opacity=".8" filter="url(#F)"><circle cx="118.293" cy="-42.82" r="18.879" transform="rotate(45 118.293 -42.82)" fill="#283991"/></g><path d="m190.602 13.247-49.393-35.873L97.324 5.627l42.633 42.633 50.645-35.013Z" fill="#fff" style="mix-blend-mode:overlay" opacity=".16"/></g><path d="m91.48-15.139 3.261-3.26 1.99 1.99-.345.345-1.598-1.598-1.093 1.094 1.504 1.504-.346.346-1.504-1.505-1.13 1.131 1.597 1.598-.346.346-1.99-1.99Zm6.355-.168-2.019 2.019c-.311.311-.49.606-.537.883-.044.274.08.556.369.845.29.29.571.413.846.37.277-.047.571-.226.883-.538l2.018-2.018.392.392-1.925 1.925c-.236.237-.464.42-.682.552a1.497 1.497 0 0 1-.635.233 1.178 1.178 0 0 1-.626-.112 2.236 2.236 0 0 1-.636-.467 2.234 2.234 0 0 1-.467-.636 1.142 1.142 0 0 1-.098-.612 1.55 1.55 0 0 1 .238-.63c.137-.212.324-.436.561-.673l1.925-1.925.393.392Zm-.072 6.451-.392-.392 3.261-3.261 1.299 1.299c.286.286.43.588.43.906.003.32-.145.63-.444.93-.24.24-.494.381-.762.425-.261.044-.525-.017-.789-.182l-.692 2.186-.444-.443.696-2.108-.761-.761-1.402 1.401Zm2.645-.831c.155.156.316.235.481.238.168.006.327-.065.477-.215l.242-.243c.15-.15.222-.308.215-.476-.003-.165-.082-.326-.238-.482l-.906-.906-1.178 1.177.907.907Zm3.177 1.831.364.365-.785 1.299-.799 1.312.01.01 1.35-.762 1.346-.738.331.332-.729 1.355-.757 1.355.01.009 1.303-.808 1.304-.78.35.35-3.051 1.77-.462-.462.822-1.495.523-.944-.009-.01-.939.529-1.495.822-.453-.453 1.766-3.056Zm3.139 7.96c-.141-.14-.204-.278-.192-.415a.812.812 0 0 1 .168-.392l-.023-.024a.882.882 0 0 1-.598.075 1.15 1.15 0 0 1-.547-.322c-.255-.256-.389-.52-.402-.795-.009-.27.098-.518.323-.743.227-.227.484-.319.771-.275.289.046.61.246.962.598l.477.476.238-.238c.171-.171.255-.349.252-.533-.003-.183-.101-.372-.294-.565a.93.93 0 0 0-.467-.27 1.16 1.16 0 0 0-.505.018l-.014-.435c.196-.065.411-.071.645-.018.237.05.464.183.682.401.293.293.449.592.467.897.019.306-.099.586-.355.841l-1.327 1.327.276.276-.327.327-.21-.21Zm-.813-1.335c.093.093.19.168.289.224a.88.88 0 0 0 .295.107.656.656 0 0 0 .271-.009.47.47 0 0 0 .219-.126l.397-.397-.495-.496c-.215-.215-.403-.34-.565-.378a.428.428 0 0 0-.416.126l-.098.098a.466.466 0 0 0-.15.402c.022.153.106.302.253.449Zm1.953 2.477c-.13-.131-.194-.267-.191-.407a.579.579 0 0 1 .182-.378l3.07-3.07.374.374-3.131 3.13.355.355-.327.327-.332-.331Zm1.251 1.25c-.131-.13-.195-.266-.192-.407a.579.579 0 0 1 .182-.378l3.07-3.07.374.374-3.131 3.13.355.356-.327.327-.331-.332Zm1.726 1.838a1.558 1.558 0 0 1-.36-.537 1.422 1.422 0 0 1-.089-.593c.019-.206.078-.412.178-.617.106-.206.255-.405.448-.598.19-.19.388-.338.594-.444a1.68 1.68 0 0 1 .617-.178c.208-.015.408.013.598.085.193.074.372.194.537.36.162.161.277.336.346.523.068.186.095.378.079.574a1.471 1.471 0 0 1-.163.575 2.02 2.02 0 0 1-.398.547l-.177.177-1.734-1.733-.112.112a1.284 1.284 0 0 0-.243.336 1.042 1.042 0 0 0-.088.37.93.93 0 0 0 .07.378c.053.128.135.247.247.36.153.152.321.249.505.29a.994.994 0 0 0 .575-.043l.074.458a1.33 1.33 0 0 1-.766.038 1.577 1.577 0 0 1-.738-.44Zm2.21-2.21a.965.965 0 0 0-.337-.224.883.883 0 0 0-.369-.07 1.11 1.11 0 0 0-.715.332l-.032.032 1.331 1.332.052-.051c.215-.215.327-.446.336-.692.016-.246-.073-.466-.266-.659Zm.036 4.345c-.13-.131-.194-.267-.191-.407a.599.599 0 0 1 .191-.388l1.687-1.686-.397-.397.327-.327.224.224c.081.08.151.12.211.117.065-.003.138-.046.219-.127l.449-.448.336.336-.668.668.528.528-.327.327-.528-.527-1.757 1.756.491.49-.327.328-.468-.467Z" fill="#333"/></g></g></g><defs><filter id="b" x="102.083" y="61.41" width="112.795" height="112.795" filterUnits="userSpaceOnUse" color-interpolation-filters="sRGB"><feFlood flood-opacity="0" result="BackgroundImageFix"/><feColorMatrix in="SourceAlpha" values="0 0 0 0 0 0 0 0 0 0 0 0 0 0 0 0 0 0 127 0" result="hardAlpha"/><feOffset dy="1"/><feGaussianBlur stdDeviation="1"/><feColorMatrix values="0 0 0 0 0.054902 0 0 0 0 0.054902 0 0 0 0 0.054902 0 0 0 0.06 0"/><feBlend in2="BackgroundImageFix" result="effect1_dropShadow_1_10241"/><feColorMatrix in="SourceAlpha" values="0 0 0 0 0 0 0 0 0 0 0 0 0 0 0 0 0 0 127 0" result="hardAlpha"/><feOffset dy="1"/><feGaussianBlur stdDeviation="1.5"/><feColorMatrix values="0 0 0 0 0.054902 0 0 0 0 0.054902 0 0 0 0 0.054902 0 0 0 0.1 0"/><feBlend in2="effect1_dropShadow_1_10241" result="effect2_dropShadow_1_10241"/><feBlend in="SourceGraphic" in2="effect2_dropShadow_1_10241" result="shape"/></filter><filter id="e" x="-.142" y="38.282" width="271.857" height="271.857" filterUnits="userSpaceOnUse" color-interpolation-filters="sRGB"><feFlood flood-opacity="0" result="BackgroundImageFix"/><feBlend in="SourceGraphic" in2="BackgroundImageFix" result="shape"/><feGaussianBlur stdDeviation="37.758" result="effect1_foregroundBlur_1_10241"/></filter><filter id="f" x="119.924" y="56.893" width="181.238" height="181.238" filterUnits="userSpaceOnUse" color-interpolation-filters="sRGB"><feFlood flood-opacity="0" result="BackgroundImageFix"/><feBlend in="SourceGraphic" in2="BackgroundImageFix" result="shape"/><feGaussianBlur stdDeviation="30.206" result="effect1_foregroundBlur_1_10241"/></filter><filter id="g" x="65.839" y="-5.202" width="158.583" height="158.583" filterUnits="userSpaceOnUse" color-interpolation-filters="sRGB"><feFlood flood-opacity="0" result="BackgroundImageFix"/><feBlend in="SourceGraphic" in2="BackgroundImageFix" result="shape"/><feGaussianBlur stdDeviation="30.206" result="effect1_foregroundBlur_1_10241"/></filter><filter id="i" x="29.796" y="-10.109" width="112.795" height="112.795" filterUnits="userSpaceOnUse" color-interpolation-filters="sRGB"><feFlood flood-opacity="0" result="BackgroundImageFix"/><feColorMatrix in="SourceAlpha" values="0 0 0 0 0 0 0 0 0 0 0 0 0 0 0 0 0 0 127 0" result="hardAlpha"/><feOffset dy="1"/><feGaussianBlur stdDeviation="1"/><feColorMatrix values="0 0 0 0 0.054902 0 0 0 0 0.054902 0 0 0 0 0.054902 0 0 0 0.06 0"/><feBlend in2="BackgroundImageFix" result="effect1_dropShadow_1_10241"/><feColorMatrix in="SourceAlpha" values="0 0 0 0 0 0 0 0 0 0 0 0 0 0 0 0 0 0 127 0" result="hardAlpha"/><feOffset dy="1"/><feGaussianBlur stdDeviation="1.5"/><feColorMatrix values="0 0 0 0 0.054902 0 0 0 0 0.054902 0 0 0 0 0.054902 0 0 0 0.1 0"/><feBlend in2="effect1_dropShadow_1_10241" result="effect2_dropShadow_1_10241"/><feBlend in="SourceGraphic" in2="effect2_dropShadow_1_10241" result="shape"/></filter><filter id="l" x="-72.429" y="-33.237" width="271.857" height="271.857" filterUnits="userSpaceOnUse" color-interpolation-filters="sRGB"><feFlood flood-opacity="0" result="BackgroundImageFix"/><feBlend in="SourceGraphic" in2="BackgroundImageFix" result="shape"/><feGaussianBlur stdDeviation="37.758" result="effect1_foregroundBlur_1_10241"/></filter><filter id="m" x="47.637" y="-14.627" width="181.238" height="181.238" filterUnits="userSpaceOnUse" color-interpolation-filters="sRGB"><feFlood flood-opacity="0" result="BackgroundImageFix"/><feBlend in="SourceGraphic" in2="BackgroundImageFix" result="shape"/><feGaussianBlur stdDeviation="30.206" result="effect1_foregroundBlur_1_10241"/></filter><filter id="n" x="-6.448" y="-76.721" width="158.583" height="158.583" filterUnits="userSpaceOnUse" color-interpolation-filters="sRGB"><feFlood flood-opacity="0" result="BackgroundImageFix"/><feBlend in="SourceGraphic" in2="BackgroundImageFix" result="shape"/><feGaussianBlur stdDeviation="30.206" result="effect1_foregroundBlur_1_10241"/></filter><filter id="o" x="-43.205" y="-84.109" width="112.795" height="112.795" filterUnits="userSpaceOnUse" color-interpolation-filters="sRGB"><feFlood flood-opacity="0" result="BackgroundImageFix"/><feColorMatrix in="SourceAlpha" values="0 0 0 0 0 0 0 0 0 0 0 0 0 0 0 0 0 0 127 0" result="hardAlpha"/><feOffset dy="1"/><feGaussianBlur stdDeviation="1"/><feColorMatrix values="0 0 0 0 0.054902 0 0 0 0 0.054902 0 0 0 0 0.054902 0 0 0 0.06 0"/><feBlend in2="BackgroundImageFix" result="effect1_dropShadow_1_10241"/><feColorMatrix in="SourceAlpha" values="0 0 0 0 0 0 0 0 0 0 0 0 0 0 0 0 0 0 127 0" result="hardAlpha"/><feOffset dy="1"/><feGaussianBlur stdDeviation="1.5"/><feColorMatrix values="0 0 0 0 0.054902 0 0 0 0 0.054902 0 0 0 0 0.054902 0 0 0 0.1 0"/><feBlend in2="effect1_dropShadow_1_10241" result="effect2_dropShadow_1_10241"/><feBlend in="SourceGraphic" in2="effect2_dropShadow_1_10241" result="shape"/></filter><filter id="r" x="-145.429" y="-107.238" width="271.857" height="271.857" filterUnits="userSpaceOnUse" color-interpolation-filters="sRGB"><feFlood flood-opacity="0" result="BackgroundImageFix"/><feBlend in="SourceGraphic" in2="BackgroundImageFix" result="shape"/><feGaussianBlur stdDeviation="37.758" result="effect1_foregroundBlur_1_10241"/></filter><filter id="s" x="-25.363" y="-88.627" width="181.238" height="181.238" filterUnits="userSpaceOnUse" color-interpolation-filters="sRGB"><feFlood flood-opacity="0" result="BackgroundImageFix"/><feBlend in="SourceGraphic" in2="BackgroundImageFix" result="shape"/><feGaussianBlur stdDeviation="30.206" result="effect1_foregroundBlur_1_10241"/></filter><filter id="t" x="-79.448" y="-150.721" width="158.583" height="158.583" filterUnits="userSpaceOnUse" color-interpolation-filters="sRGB"><feFlood flood-opacity="0" result="BackgroundImageFix"/><feBlend in="SourceGraphic" in2="BackgroundImageFix" result="shape"/><feGaussianBlur stdDeviation="30.206" result="effect1_foregroundBlur_1_10241"/></filter><filter id="u" x="147.245" y="16.5" width="112.795" height="112.795" filterUnits="userSpaceOnUse" color-interpolation-filters="sRGB"><feFlood flood-opacity="0" result="BackgroundImageFix"/><feColorMatrix in="SourceAlpha" values="0 0 0 0 0 0 0 0 0 0 0 0 0 0 0 0 0 0 127 0" result="hardAlpha"/><feOffset dy="1"/><feGaussianBlur stdDeviation="1"/><feColorMatrix values="0 0 0 0 0.054902 0 0 0 0 0.054902 0 0 0 0 0.054902 0 0 0 0.06 0"/><feBlend in2="BackgroundImageFix" result="effect1_dropShadow_1_10241"/><feColorMatrix in="SourceAlpha" values="0 0 0 0 0 0 0 0 0 0 0 0 0 0 0 0 0 0 127 0" result="hardAlpha"/><feOffset dy="1"/><feGaussianBlur stdDeviation="1.5"/><feColorMatrix values="0 0 0 0 0.054902 0 0 0 0 0.054902 0 0 0 0 0.054902 0 0 0 0.1 0"/><feBlend in2="effect1_dropShadow_1_10241" result="effect2_dropShadow_1_10241"/><feBlend in="SourceGraphic" in2="effect2_dropShadow_1_10241" result="shape"/></filter><filter id="x" x="45.02" y="-6.628" width="271.857" height="271.857" filterUnits="userSpaceOnUse" color-interpolation-filters="sRGB"><feFlood flood-opacity="0" result="BackgroundImageFix"/><feBlend in="SourceGraphic" in2="BackgroundImageFix" result="shape"/><feGaussianBlur stdDeviation="37.758" result="effect1_foregroundBlur_1_10241"/></filter><filter id="y" x="165.086" y="11.982" width="181.238" height="181.238" filterUnits="userSpaceOnUse" color-interpolation-filters="sRGB"><feFlood flood-opacity="0" result="BackgroundImageFix"/><feBlend in="SourceGraphic" in2="BackgroundImageFix" result="shape"/><feGaussianBlur stdDeviation="30.206" result="effect1_foregroundBlur_1_10241"/></filter><filter id="z" x="111.001" y="-50.112" width="158.583" height="158.583" filterUnits="userSpaceOnUse" color-interpolation-filters="sRGB"><feFlood flood-opacity="0" result="BackgroundImageFix"/><feBlend in="SourceGraphic" in2="BackgroundImageFix" result="shape"/><feGaussianBlur stdDeviation="30.206" result="effect1_foregroundBlur_1_10241"/></filter><filter id="A" x="75.245" y="-55.5" width="112.795" height="112.795" filterUnits="userSpaceOnUse" color-interpolation-filters="sRGB"><feFlood flood-opacity="0" result="BackgroundImageFix"/><feColorMatrix in="SourceAlpha" values="0 0 0 0 0 0 0 0 0 0 0 0 0 0 0 0 0 0 127 0" result="hardAlpha"/><feOffset dy="1"/><feGaussianBlur stdDeviation="1"/><feColorMatrix values="0 0 0 0 0.054902 0 0 0 0 0.054902 0 0 0 0 0.054902 0 0 0 0.06 0"/><feBlend in2="BackgroundImageFix" result="effect1_dropShadow_1_10241"/><feColorMatrix in="SourceAlpha" values="0 0 0 0 0 0 0 0 0 0 0 0 0 0 0 0 0 0 127 0" result="hardAlpha"/><feOffset dy="1"/><feGaussianBlur stdDeviation="1.5"/><feColorMatrix values="0 0 0 0 0.054902 0 0 0 0 0.054902 0 0 0 0 0.054902 0 0 0 0.1 0"/><feBlend in2="effect1_dropShadow_1_10241" result="effect2_dropShadow_1_10241"/><feBlend in="SourceGraphic" in2="effect2_dropShadow_1_10241" result="shape"/></filter><filter id="D" x="-26.98" y="-78.628" width="271.857" height="271.857" filterUnits="userSpaceOnUse" color-interpolation-filters="sRGB"><feFlood flood-opacity="0" result="BackgroundImageFix"/><feBlend in="SourceGraphic" in2="BackgroundImageFix" result="shape"/><feGaussianBlur stdDeviation="37.758" result="effect1_foregroundBlur_1_10241"/></filter><filter id="E" x="93.086" y="-60.018" width="181.238" height="181.238" filterUnits="userSpaceOnUse" color-interpolation-filters="sRGB"><feFlood flood-opacity="0" result="BackgroundImageFix"/><feBlend in="SourceGraphic" in2="BackgroundImageFix" result="shape"/><feGaussianBlur stdDeviation="30.206" result="effect1_foregroundBlur_1_10241"/></filter><filter id="F" x="39.002" y="-122.112" width="158.583" height="158.583" filterUnits="userSpaceOnUse" color-interpolation-filters="sRGB"><feFlood flood-opacity="0" result="BackgroundImageFix"/><feBlend in="SourceGraphic" in2="BackgroundImageFix" result="shape"/><feGaussianBlur stdDeviation="30.206" result="effect1_foregroundBlur_1_10241"/></filter><clipPath id="a"><path fill="#fff" d="M0 0h344v203H0z"/></clipPath><clipPath id="c"><rect x="145.131" y="63.41" width="94.395" height="56.637" rx="3.776" transform="rotate(45 145.131 63.41)" fill="#fff"/></clipPath><clipPath id="d"><path fill="#fff" d="m145.131 63.41 66.748 66.747-40.049 40.049-66.747-66.748z"/></clipPath><clipPath id="h"><path fill="#fff" d="m145.13 74.09 21.36 21.359-13.35 13.35-21.359-21.36z"/></clipPath><clipPath id="j"><rect x="72.844" y="-8.109" width="94.395" height="56.637" rx="3.776" transform="rotate(45 72.844 -8.11)" fill="#fff"/></clipPath><clipPath id="k"><path fill="#fff" d="M72.844-8.109 139.59 58.64 99.543 98.687 32.795 31.94z"/></clipPath><clipPath id="p"><rect x="-.156" y="-82.109" width="94.395" height="56.637" rx="3.776" transform="rotate(45 -.156 -82.11)" fill="#fff"/></clipPath><clipPath id="q"><path fill="#fff" d="m-.156-82.11 66.747 66.748-40.048 40.048-66.747-66.747z"/></clipPath><clipPath id="v"><rect x="190.293" y="18.5" width="94.395" height="56.637" rx="3.776" transform="rotate(45 190.293 18.5)" fill="#fff"/></clipPath><clipPath id="w"><path fill="#fff" d="m190.293 18.5 66.747 66.747-40.048 40.049-66.747-66.748z"/></clipPath><clipPath id="B"><rect x="118.293" y="-53.5" width="94.395" height="56.637" rx="3.776" transform="rotate(45 118.293 -53.5)" fill="#fff"/></clipPath><clipPath id="C"><path fill="#fff" d="m118.293-53.5 66.747 66.747-40.048 40.048-66.748-66.747z"/></clipPath></defs></svg>