<svg width="150" height="170" viewBox="0 0 150 170" fill="none" xmlns="http://www.w3.org/2000/svg"><path d="m118.063 112.133-.01 32.189c.003.231.006.567 0 .973-.011.823-.017 1.242-.064 1.676a7.4 7.4 0 0 1-.679 2.382 7 7 0 0 1-.972 1.476 7 7 0 0 1-.903.893c-.292.177-.708.4-1.233.592-1.121.409-2.059.428-2.574.432-1.245.013-2.18-.246-2.984-.475-.79-.226-1.43-.485-1.883-.692l-2.812-1.064v-26.841a16 16 0 0 0-.086-1.968 15.5 15.5 0 0 0-.455-2.466c-.417-1.521-.99-2.594-1.341-3.246a17.8 17.8 0 0 0-2.227-3.201c-.513-.589-1.228-1.4-2.359-2.249a15 15 0 0 0-2.292-1.407c-.794-.405-1.5-.69-2.044-.887l-61.38-24.087c-.97-.31-1.73-.686-2.271-.994a9.4 9.4 0 0 1-1.407-.953c-.442-.365-.908-.751-1.33-1.395-.227-.346-.597-.91-.714-1.719-.17-1.165.294-2.087.509-2.498.46-.887 1.083-1.392 1.621-1.829.2-.16.671-.527 1.613-1.017a16.5 16.5 0 0 1 3.482-1.33c1.713-.44 3.06-.501 4.013-.54a21 21 0 0 1 4.12.227c.31.05 1.131.186 2.175.464a23 23 0 0 1 1.979.628l60.449 23.677c.387.14.943.353 1.601.637 1.022.44 1.946.84 2.974 1.493a14.5 14.5 0 0 1 2.369 1.893 17.7 17.7 0 0 1 2.563 3.126c1.168 1.799 1.709 3.331 1.839 3.709.459 1.339.592 2.321.627 2.606.089.714.099 1.327.086 1.785" fill="#EBECEE" stroke="#000" stroke-width=".46" stroke-linecap="round" stroke-linejoin="round"/><path d="m122.848 109.353-.038 33.184a8 8 0 0 1-.072 1.007 7 7 0 0 1-.474 1.827 7.23 7.23 0 0 1-2.526 3.071l-4.305 3.281c.259-.215.577-.508.903-.893.54-.636.845-1.217.971-1.477a7.4 7.4 0 0 0 .68-2.382c.047-.433.052-.853.064-1.676.006-.405.003-.742 0-.973l.01-32.189c.013-.458.003-1.071-.086-1.784-.036-.285-.168-1.268-.627-2.607-.13-.378-.672-1.91-1.839-3.709a17.7 17.7 0 0 0-2.563-3.126 14.5 14.5 0 0 0-2.369-1.893c-1.028-.654-1.952-1.052-2.974-1.492a30 30 0 0 0-1.601-.638l-60.45-23.677a23 23 0 0 0-1.978-.627 22 22 0 0 0-2.175-.465 21 21 0 0 0-4.12-.227c-.953.039-2.3.101-4.014.541-.719.185-2.019.569-3.482 1.33-.94.49-1.413.856-1.612 1.017-.538.436-1.16.94-1.621 1.828-.215.412-.678 1.333-.51 2.498.118.81.488 1.374.714 1.72.423.643.888 1.03 1.33 1.395a9.4 9.4 0 0 0 1.407.952c.542.308 1.303.684 2.271.994l61.38 24.087c.545.197 1.25.482 2.045.887.497.256 1.336.689 2.292 1.407 1.131.849 1.846 1.661 2.359 2.249a18 18 0 0 1 2.227 3.202c.351.651.924 1.724 1.341 3.245.071.255.321 1.195.455 2.466.08.768.095 1.438.086 1.969v30.035l-.022 3.341a7.3 7.3 0 0 1-.54 2.78 6.4 6.4 0 0 1-.833 1.477c-.34.445-.674.75-.952 1.005-.287.264-.546.469-.741.618l-3.961 3.028c.434-.378.692-.743.909-1.047.17-.24.683-.994 1.03-2.117.111-.359.233-.848.3-1.445l.073-34.929a12 12 0 0 0-.066-1.146c-.19-1.837-.748-3.167-1.125-4.046a18 18 0 0 0-2.422-4.044c-.622-.788-1.709-2.143-3.547-3.419a15.3 15.3 0 0 0-3.288-1.73L26.885 87.81a25 25 0 0 1-2.348-1.06c-.915-.473-1.838-.95-2.78-1.678-.875-.678-2.625-2.03-3.423-4.402a7.8 7.8 0 0 1-.39-2.017v-.01l.002-1.023c.023-.208.067-.508.162-.86.206-.781.585-1.56 1.33-2.498 1.285-1.617 2.872-2.709 3.73-3.245 1.59-.992 2.929-1.486 3.976-1.865.428-.156 2.428-.868 5.42-1.347a35.6 35.6 0 0 1 8.078-.374c1.32.096 4.067.37 7.414 1.363 1.405.417 2.571.859 3.44 1.217l59.428 23.282c.641.221 1.489.549 2.449 1.021.983.484 2.266 1.124 3.65 2.288 1.468 1.233 2.328 2.447 2.953 3.342.621.889 1.317 1.898 1.898 3.407.135.348.707 1.873.909 3.991.077.808.081 1.498.065 2.011" fill="#fff" stroke="#000" stroke-width=".46" stroke-linecap="round" stroke-linejoin="round"/><path d="M21.76 85.073c.942.727 1.865 1.204 2.78 1.676.933.48 1.746.827 2.348 1.06l61.877 24.227c.865.328 2.035.862 3.288 1.73 1.838 1.276 2.926 2.631 3.547 3.418a18 18 0 0 1 2.423 4.045c.377.878.934 2.209 1.125 4.045.05.473.062.868.064 1.147l-.073 34.93a8 8 0 0 1-.3 1.443 7.6 7.6 0 0 1-1.03 2.117c-.216.304-.475.669-.909 1.047-.881.767-1.821 1.012-2.45 1.168a8 8 0 0 1-2.466.187c-1.003-.074-1.709-.304-2.896-.69a25 25 0 0 1-2.312-.884l-60.193-23.613a19.6 19.6 0 0 1-4.153-2.196 15 15 0 0 1-1.86-1.525c-.705-.684-1.218-1.18-1.7-2.012a7.9 7.9 0 0 1-.887-2.466 8 8 0 0 1-.13-1.741l.092-54.566a8 8 0 0 0 .39 3.05c.798 2.37 2.547 3.724 3.424 4.403zm100.516-23.365c-1.015-1.617-2.327-2.518-2.803-2.835-2.374-1.586-4.761-1.615-6.39-1.636-4.904-.06-8.49 2.242-10.043 3.27-1.524 1.006-3.739 2.505-5.44 5.348-.86 1.439-3.25 5.437-1.723 9.658a8.5 8.5 0 0 0 .804 1.642l-2.528-3.93a8 8 0 0 1-.832-1.636c-.117-.317-.583-1.628-.476-3.625.145-2.707 1.236-4.736 1.754-5.677 1.414-2.569 3.183-4.066 4.19-4.903a19.5 19.5 0 0 1 7.221-3.773c1.045-.289 2.834-.768 5.2-.654 1.182.056 2.696.143 4.444.951a10.3 10.3 0 0 1 3.551 2.734l3.07 5.063z" fill="#EBECEE" stroke="#000" stroke-width=".46" stroke-linecap="round" stroke-linejoin="round"/><path d="M97.603 65.855c1.701-2.844 3.915-4.341 5.438-5.35 1.554-1.025 5.139-3.328 10.045-3.269 1.629.02 4.014.049 6.39 1.635.636.425 2.77 1.895 3.685 4.725.841 2.603.154 4.82-.268 6.182-1.017 3.282-3.082 5.254-4.427 6.537a19.3 19.3 0 0 1-5.914 3.864c-1.531.633-4.291 1.737-7.875 1.396-1.467-.14-3.535-.337-5.588-1.842-.702-.515-2.367-1.892-3.21-4.22-1.527-4.22.865-8.22 1.724-9.658Z" fill="#F6F7F8" stroke="#000" stroke-width=".46" stroke-miterlimit="10"/><path d="M110.145 71.403q-1.226 2.758-2.454 5.514l-2.905-.334 2.453-5.53a26 26 0 0 0 2.906.348z" fill="#53AE95" stroke="#000" stroke-width=".46" stroke-miterlimit="10"/><path d="M111.66 68.117c2.92.534 5.833 1.524 5.761 2.255-.09.904-4.745 1.386-8.782.892-3.319-.407-7.409-1.618-7.325-2.481.077-.802 3.752-1.286 7.41-1.037" fill="#F6F7F8"/><path d="M111.66 68.117c2.92.534 5.833 1.524 5.761 2.255-.09.904-4.745 1.386-8.782.892-3.319-.407-7.409-1.618-7.325-2.481.077-.802 3.752-1.286 7.41-1.037" stroke="#000" stroke-width=".46" stroke-miterlimit="10"/><path d="m106.185 63.205 11.619 1.27-1.17 2.714-4.352-.462-1.788 3.906-2.935-.29 1.79-3.975-4.368-.497 1.205-2.665z" fill="#53AE95" stroke="#000" stroke-width=".46" stroke-miterlimit="10"/><path d="m101.432 26.48 1.97.48 3.173-2.6-5.765-1.337zm-8.319 3.789 5.709 1.432 3.075-2.632-5.736-1.341-3.05 2.54z" fill="#FF535E" stroke="#000" stroke-width=".46" stroke-linecap="round" stroke-linejoin="round"/><path d="m90.3 14.731-.483-2.568 3.106-2.599 1.029 6.01zm-3.97 8.204-1.145-6.053 3.107-2.615 1.067 6.078z" fill="#FF444F" stroke="#000" stroke-width=".46" stroke-linecap="round" stroke-linejoin="round"/><path d="m91.95 24.307-5.62-1.372 3.03-2.59 5.704 1.336-3.115 2.627z" fill="#FF535E" stroke="#000" stroke-width=".46" stroke-linecap="round" stroke-linejoin="round"/><path d="m96.158 27.727-3.05 2.54-1.162-5.961 3.115-2.627 1.098 6.047z" fill="#FF444F" stroke="#000" stroke-width=".46" stroke-linecap="round" stroke-linejoin="round"/><path d="m99.747 16.91-1.052-6.03-5.77-1.317 1.03 6.01q-2.832-.652-5.662-1.308l1.067 6.078 5.704 1.337 1.098 6.047 5.735 1.341-1.087-6.046 5.766 1.337-1.148-6.125z" fill="#FF7E88" stroke="#000" stroke-width=".46" stroke-linecap="round" stroke-linejoin="round"/><path d="M73.782 77.68c-1.516 3.653-3.61 5.932-4.294 6.643-.754.783-1.79 1.844-3.45 2.836a15.1 15.1 0 0 1-5.302 1.925l-2.172.28-5.43.08c3.77-.178 6.53-1.712 7.445-2.237 4.802-2.755 6.71-7.064 7.598-9.072 2.925-6.61 1.626-12.632 1.223-14.381-.452-1.955-1.5-6.253-5.205-10.114-1.218-1.268-4.336-4.43-9.33-5.353a15.5 15.5 0 0 0-2.648-.256l5.524-.283c.601-.02 1.45-.008 2.45.148 2.884.448 4.882 1.757 6.24 2.664a20 20 0 0 1 3.995 3.526c2.716 3.162 3.684 6.374 4.165 8.03a24 24 0 0 1 .809 8.938c-.33 3.388-1.298 5.846-1.62 6.623z" fill="#EBECEE" stroke="#000" stroke-width=".46" stroke-linecap="round" stroke-linejoin="round"/><path d="M34.924 69.71c-.06-.947-.114-2.747.23-4.963.218-1.407.687-4.256 2.498-7.451.665-1.171 2.173-3.772 5.2-6.022 1.126-.835 3.12-2.285 6.149-2.935.68-.146 2.976-.587 5.866-.053 4.995.924 8.112 4.086 9.33 5.354 3.705 3.86 4.754 8.158 5.205 10.113.403 1.75 1.702 7.772-1.223 14.382-.888 2.008-2.796 6.317-7.598 9.073-1.129.648-5.06 2.828-10.24 2.111-6.322-.874-9.888-5.426-10.831-6.63-2.536-3.236-3.412-6.743-3.909-8.726a24 24 0 0 1-.677-4.251z" fill="#F6F7F8" stroke="#000" stroke-width=".46" stroke-linecap="round" stroke-linejoin="round"/><path d="M61.087 72.047c-.053-.48-.174-1.465-.883-2.453-.218-.305-.803-1.096-1.898-1.545a4.2 4.2 0 0 0-1.396-.304c.349-.215 1.718-1.11 2.21-2.882.155-.555.36-1.684-.097-2.892a4.8 4.8 0 0 0-.81-1.356c-.236-.28-.622-.73-1.285-1.07a3.8 3.8 0 0 0-1.288-.395l-1.118.033-.175-3.957-2.204.034.115 3.907-1.734.114q-.113-1.97-.223-3.94l-2.184.105.131 3.9-4.084.193.231 2.628 1.011-.083c.112-.02.308-.042.54.02.134.036.333.09.488.27.192.226.19.497.186.579q.197 5.661.398 11.323a.93.93 0 0 1-.204.63c-.275.333-.684.33-.735.33l-1.268.03.137 2.677 4.005-.226.163 4.03 2.187-.083-.147-4.014 1.788-.044.181 3.97q1.117-.06 2.232-.123l-.176-3.99c.197.013.476.027.81.023 1.028-.011 1.98-.023 2.845-.473 1.028-.536 1.506-1.468 1.738-1.92.686-1.337.566-2.584.514-3.047zM50.1 61.957l2.731-.14a2.38 2.38 0 0 1 1.699.456c.107.08.534.41.796 1.019.231.538.208 1.003.192 1.338-.015.303-.04.727-.273 1.207-.126.257-.392.807-.99 1.052-.21.086-.399.11-.53.117l-3.422.178-.205-5.228zm6.936 11.245c-.081.253-.224.678-.603 1.074-.242.25-.471.379-.52.405a2.1 2.1 0 0 1-.955.249l-4.294.168-.294-5.228 4.62-.23c.166-.001.427.016.718.13.452.18.708.488.875.697a2.84 2.84 0 0 1 .596 1.401 2.96 2.96 0 0 1-.143 1.335z" fill="#F7931A" stroke="#000" stroke-width=".46" stroke-linecap="round" stroke-linejoin="round"/><path d="M47.448 25.738c.305-1.657.841-2.841 1.144-3.498.196-.428.837-1.77 2.049-3.326.843-1.085 2.314-2.94 4.895-4.39.907-.51 2.382-1.32 4.497-1.61 1.072-.147 2.843-.39 4.843.439.387.16 1.835.796 3.086 2.274 2.181 2.577 2.097 5.743 2.062 7.103-.09 3.412-1.524 5.836-2.328 7.157-.894 1.469-2.539 3.655-5.268 5.361-1.302.814-3.121 1.953-5.76 2.129-1.043.07-3.365.225-5.6-1.25-2.1-1.387-2.913-3.413-3.192-4.138-.531-1.379-.604-2.61-.64-3.3a13.2 13.2 0 0 1 .213-2.953z" fill="#F6F7F8" stroke="#000" stroke-width=".46" stroke-linecap="round" stroke-linejoin="round"/><path d="M71.42 32.017c-.743 1.325-2.262 3.616-4.95 5.507-.993.698-2.447 1.702-4.63 2.214-.935.22-2.977.675-5.367-.039a9.2 9.2 0 0 1-1.736-.718l-3.672-2.854c2.236 1.476 4.556 1.32 5.601 1.25 2.639-.176 4.458-1.314 5.76-2.128 2.73-1.706 4.375-3.892 5.268-5.36.804-1.32 2.238-3.746 2.328-7.157.035-1.361.12-4.527-2.062-7.105a8.2 8.2 0 0 0-1.175-1.136l4.015 2.966.99 1.018c.273.411.621.997.932 1.742.747 1.792.794 3.33.812 4.117.078 3.69-1.562 6.695-2.116 7.682z" fill="#EBECEE" stroke="#000" stroke-width=".46" stroke-linecap="round" stroke-linejoin="round"/><path d="m63.109 24.833-3.802-3.002.948-4.9z" fill="#5C616D" stroke="#000" stroke-width=".46" stroke-linecap="round" stroke-linejoin="round"/><path d="m63.112 24.833-4.83 1.946-4.06-1.447 5.09-3.502zM59.31 21.83l.948-4.9-6.035 8.4zm3.449 4.6-4.755 1.879-1.142 5.698zM58 28.308l-4.103-1.4 2.963 7.099z" fill="#5C616D" stroke="#000" stroke-width=".46" stroke-linecap="round" stroke-linejoin="round"/><path d="m124.003 91.564 6.024-1.478 1.554-3.2-5.976 1.49-1.602 3.187z" fill="#FF535E" stroke="#000" stroke-width=".46" stroke-linecap="round" stroke-linejoin="round"/><path d="m119.6 82.769-1.642 3.2 6.046 5.595 1.602-3.187-6.006-5.607z" fill="#FF444F" stroke="#000" stroke-width=".46" stroke-linecap="round" stroke-linejoin="round"/><path d="m125.608 88.376-6.006-5.607 11.981 4.116z" fill="#FF7E88" stroke="#000" stroke-width=".46" stroke-linecap="round" stroke-linejoin="round"/><path d="M113.557 87.352c.732 1.352 2.275 4.292 2.233 8.364a16.1 16.1 0 0 1-1.376 6.318l-2.666 4.27c.436-.761.82-1.603 1.123-2.531 1.359-4.17.311-7.745-.193-9.38-1.298-4.21-3.861-6.721-5.071-7.88-1.158-1.106-5.58-5.209-12.46-5.633-1.844-.114-5.93-.308-10.025 2.239-.755.47-2.727 1.73-4.385 4.088l2.361-4.096c.78-.952 2.04-2.284 3.884-3.471.959-.618 3.788-2.3 7.833-2.617 3.336-.262 5.846.534 7.355 1.027 3.801 1.245 6.235 3.241 6.952 3.856 2.63 2.254 3.989 4.621 4.435 5.445z" fill="#EBECEE" stroke="#000" stroke-width=".46" stroke-linecap="round" stroke-linejoin="round"/><path d="M107.605 86.513c1.211 1.159 3.774 3.67 5.073 7.88.504 1.635 1.552 5.21.193 9.38-1.745 5.349-6.205 7.853-7.625 8.562-4.385 2.188-8.47 1.568-10.444 1.268-1.766-.269-6.23-1.192-10.303-4.869-1.297-1.17-4.44-4.087-5.688-9.064-.415-1.654-1.386-5.79.66-10.257 1.743-3.806 4.689-5.694 5.652-6.293 4.093-2.547 8.18-2.353 10.025-2.239 6.879.424 11.301 4.527 12.458 5.633z" fill="#F6F7F8" stroke="#000" stroke-width=".46" stroke-linecap="round" stroke-linejoin="round"/><path d="M100.509 91.603a13.7 13.7 0 0 0-2.645-.572 8 8 0 0 0-1.284-.048c-.553.022-.926.04-1.384.22-.089.035-.495.2-.925.563a2.8 2.8 0 0 0-.623.687 2.6 2.6 0 0 0-.38 1.163l6.493.347-.312 2.7-6.405-.275a8.2 8.2 0 0 0 .131 1.807l6.05.308-.329 2.707-5.019-.223c.082.235.21.556.41.913.209.377.498.897 1.046 1.341.543.441 1.077.595 1.482.711.742.213 1.34.204 2.01.195a11 11 0 0 0 1.502-.131 15 15 0 0 0 1.707-.345l1.07 3.228a14.2 14.2 0 0 1-3.582.659c-1.257.066-3.04.159-5.057-.72a9 9 0 0 1-2.82-1.923c-1.525-1.56-2.065-3.296-2.266-4.129l-2.144-.183q-.101-1.37-.204-2.737l1.83.094-.044-1.768-1.982-.185-.088-2.647q1.108.04 2.214.084c.135-.81.362-1.459.559-1.916.188-.442.508-1.168 1.173-1.926.243-.277.582-.658 1.139-1.007.469-.294.858-.42 1.395-.587a11 11 0 0 1 2.218-.446 11.5 11.5 0 0 1 2.294.026 12.6 12.6 0 0 1 1.948.38c.601.169 1.109.358 1.507.527l-.686 3.108z" fill="#7989FB" stroke="#000" stroke-width=".46" stroke-linecap="round" stroke-linejoin="round"/><path d="M81.052 73.361c-4.606-1.194-7.327-4.014-8.417-5.172-4.209-4.478-4.935-9.657-5.155-11.398-.212-1.687-.886-7.782 2.946-13.782.9-1.409 4.095-6.253 10.31-8.1 4.242-1.262 7.8-.507 8.627-.316.652.15 3.249.794 6.032 2.77 4.137 2.939 5.861 6.816 6.488 8.277.43 1 2.488 6.016 1.263 12.414-.832 4.342-2.773 7.216-3.191 7.82-.91 1.313-3.314 4.686-7.96 6.629-1.202.502-5.566 2.252-10.942.86z" fill="#F6F7F8" stroke="#000" stroke-width=".46" stroke-linecap="round" stroke-linejoin="round"/><path d="M70.427 43.01c-3.833 6-3.158 12.095-2.946 13.782.219 1.74.946 6.918 5.156 11.397 1.089 1.159 3.81 3.98 8.416 5.173 1.226.317 2.399.472 3.494.515l-4.593-.046a14 14 0 0 1-2.022-.277c-.45-.096-1.805-.44-3.676-1.338-2.934-1.409-4.795-3.196-5.442-3.853-3.394-3.445-4.478-7.346-4.892-8.907-.37-1.403-1.376-5.783.053-11.1.415-1.54 1.318-4.758 4.05-7.942 0 0 3.15-3.67 7.549-5.327 1.806-.68 3.708-.973 3.708-.973.712-.11 1.382-.17 2-.197q2.288.137 4.575.279a17.4 17.4 0 0 0-5.119.712c-6.213 1.85-9.41 6.692-10.31 8.102z" fill="#EBECEE" stroke="#000" stroke-width=".46" stroke-linecap="round" stroke-linejoin="round"/><path d="m86.6 43.564.92-3.17 3.341 1.17-.867 3.045a14.1 14.1 0 0 1 3.667 2.389l-1.832 3.244c-.28-.254-.672-.59-1.166-.956-.462-.34-.973-.714-1.71-1.078-.095-.046-.81-.395-1.789-.64-.405-.101-.735-.154-1.122-.08a1.56 1.56 0 0 0-1.209.938 1.7 1.7 0 0 0-.097.93c.06.41.237.693.377.911.186.29.376.48.62.71.595.558 1.087.959 1.221 1.07.224.184.829.683 1.396 1.247.376.374.997.998 1.598 1.94.326.511.587.92.79 1.546.075.234.312 1.023.243 2.07a6.1 6.1 0 0 1-.611 2.23c-.195.397-.545 1.1-1.289 1.762-.29.258-.8.653-1.519.94-1.309.52-2.5.356-3.044.243l-1.085 3.63q-1.67-.59-3.34-1.177.482-1.77.966-3.538a12 12 0 0 1-1.63-.802c-.226-.133-.934-.56-1.763-1.263a14 14 0 0 1-1.13-1.078l2.143-2.971c.302.298.693.663 1.17 1.052.606.494 1.15.933 1.966 1.348a9.5 9.5 0 0 0 1.473.592c.746.245 1.106.283 1.295.295.405.028.689.047 1.02-.092.595-.249.847-.802.907-.94.26-.588.13-1.122.086-1.295-.11-.43-.33-.699-.658-1.098-.262-.32-.478-.513-1.005-.974a248 248 0 0 0-1.204-1.045c-.882-.767-1.323-1.15-1.788-1.684-.49-.562-.89-1.022-1.2-1.762a5.5 5.5 0 0 1-.404-2.27c.036-1.122.4-1.928.587-2.332.213-.459.553-1.174 1.298-1.841a4.9 4.9 0 0 1 1.534-.938c.724-.27 1.344-.293 1.824-.311.42-.016.773.007 1.024.033z" fill="#78CBD4" stroke="#000" stroke-width=".46" stroke-linecap="round" stroke-linejoin="round"/><path d="m122.434 45.065-3.59 1.998-14.198-6.915 3.543-1.986z" fill="#FF444F" stroke="#000" stroke-width=".46" stroke-linecap="round" stroke-linejoin="round"/><path d="m108.188 38.162 8.037-4.4 6.207 11.304-14.244-6.903z" fill="#FF7E88" stroke="#000" stroke-width=".46" stroke-linecap="round" stroke-linejoin="round"/><path d="m75.172 88.717 1.698 6.03-.242 2.683-1.76-6.045q.15-1.335.303-2.668z" fill="#FF535E" stroke="#000" stroke-width=".46" stroke-linecap="round" stroke-linejoin="round"/><path d="m54.216 95.171.333-2.665 20.62-3.79-.303 2.668z" fill="#FF7E88" stroke="#000" stroke-width=".46" stroke-linecap="round" stroke-linejoin="round"/><path d="m54.216 95.172 20.649-3.788 1.76 6.044-20.746 3.761z" fill="#FF444F" stroke="#000" stroke-width=".46" stroke-linecap="round" stroke-linejoin="round"/><path d="M21.76 85.072c.942.727 1.865 1.204 2.78 1.677.933.48 1.746.826 2.348 1.06l61.877 24.226a15.3 15.3 0 0 1 3.288 1.731c1.838 1.276 2.926 2.63 3.547 3.418a18 18 0 0 1 2.423 4.045c.377.878.934 2.208 1.125 4.045.05.472.062.868.064 1.147l-.073 34.929a8 8 0 0 1-.3 1.443 7.6 7.6 0 0 1-1.03 2.117c-.216.305-.475.669-.909 1.047-.881.768-1.821 1.013-2.45 1.169a8 8 0 0 1-2.466.186c-1.003-.073-1.709-.303-2.896-.689a25 25 0 0 1-2.312-.884l-60.193-23.614a19 19 0 0 1-1.915-.855 18.5 18.5 0 0 1-2.238-1.341 15 15 0 0 1-1.86-1.525c-.705-.683-1.218-1.18-1.7-2.012a7.9 7.9 0 0 1-.887-2.466 8 8 0 0 1-.13-1.741l.092-54.565a8 8 0 0 0 .39 3.05c.798 2.37 2.547 3.724 3.424 4.402z" fill="#EBECEE" stroke="#000" stroke-width=".46" stroke-linecap="round" stroke-linejoin="round"/><path d="M24.123 70.461q-.461.25-.954.554c-.859.537-2.446 1.629-3.732 3.246-.744.937-1.123 1.717-1.33 2.498a6 6 0 0 0-.161.86q0 .51-.003 1.023v.01c.037.594.144 1.283.391 2.016.798 2.372 2.548 3.725 3.424 4.403.94.727 1.864 1.204 2.78 1.677.931.48 1.745.826 2.347 1.06l61.877 24.226a15.3 15.3 0 0 1 3.287 1.731c1.84 1.275 2.926 2.63 3.548 3.419a18 18 0 0 1 2.422 4.044c.377.879.936 2.208 1.125 4.046.05.471.063.868.066 1.146l-.073 34.929a8 8 0 0 1-.3 1.445 7.6 7.6 0 0 1-1.03 2.116c-.217.305-.475.669-.91 1.047l3.962-3.028c.195-.148.454-.354.741-.617.278-.255.612-.561.952-1.005a6.4 6.4 0 0 0 .833-1.477 7.3 7.3 0 0 0 .54-2.78l.022-3.342v-30.035a16 16 0 0 0-.086-1.968 15.6 15.6 0 0 0-.455-2.467c-.417-1.52-.99-2.593-1.341-3.245a18 18 0 0 0-2.227-3.201c-.513-.589-1.228-1.4-2.359-2.249a15 15 0 0 0-2.292-1.407c-.794-.406-1.5-.691-2.045-.887l-61.38-24.087c-.968-.31-1.73-.686-2.27-.994a9.4 9.4 0 0 1-1.407-.953c-.443-.365-.908-.751-1.33-1.395-.227-.346-.597-.91-.714-1.719-.17-1.165.294-2.087.509-2.498.46-.887 1.083-1.392 1.621-1.829.199-.16.671-.527 1.612-1.017" fill="#fff"/><path d="M24.123 70.461q-.461.25-.954.554c-.859.537-2.446 1.629-3.732 3.246-.744.937-1.123 1.717-1.33 2.498a6 6 0 0 0-.161.86q0 .51-.003 1.023v.01c.037.594.144 1.283.391 2.016.798 2.372 2.548 3.725 3.424 4.403.94.727 1.864 1.204 2.78 1.677.931.48 1.745.826 2.347 1.06l61.877 24.226a15.3 15.3 0 0 1 3.287 1.731c1.84 1.275 2.926 2.63 3.548 3.419a18 18 0 0 1 2.422 4.044c.377.879.936 2.208 1.125 4.046.05.471.063.868.066 1.146l-.073 34.929a8 8 0 0 1-.3 1.445 7.6 7.6 0 0 1-1.03 2.116c-.217.305-.475.669-.91 1.047l3.962-3.028c.195-.148.454-.354.741-.617.278-.255.612-.561.952-1.005a6.4 6.4 0 0 0 .833-1.477 7.3 7.3 0 0 0 .54-2.78l.022-3.342v-30.035a16 16 0 0 0-.086-1.968 15.6 15.6 0 0 0-.455-2.467c-.417-1.52-.99-2.593-1.341-3.245a18 18 0 0 0-2.227-3.201c-.513-.589-1.228-1.4-2.359-2.249a15 15 0 0 0-2.292-1.407c-.794-.406-1.5-.691-2.045-.887l-61.38-24.087c-.968-.31-1.73-.686-2.27-.994a9.4 9.4 0 0 1-1.407-.953c-.443-.365-.908-.751-1.33-1.395-.227-.346-.597-.91-.714-1.719-.17-1.165.294-2.087.509-2.498.46-.887 1.083-1.392 1.621-1.829.199-.16.671-.527 1.612-1.017" stroke="#000" stroke-width=".46" stroke-linecap="round" stroke-linejoin="round"/><path d="M126.939 133.406a1.4 1.4 0 0 1-.118.413c-.073.151-.168.254-.357.454a5 5 0 0 1-.288.284l-23.8 18.357a4.4 4.4 0 0 1-.86.446c-.504.195-.916.248-1.346.301a7.6 7.6 0 0 1-3.537-.398l-12.785-5.038a3.55 3.55 0 0 1-1.305-.681c-.203-.172-.37-.315-.5-.568a1.7 1.7 0 0 1-.161-.494 2 2 0 0 1-.033-.483l.039-15.805q.015.15.07.308c.141.38.426.591.73.819.272.201.528.319.706.388l12.552 4.922a9 9 0 0 0 1.34.466 8 8 0 0 0 1.667.248c.281.01.723.025 1.297-.064a5.4 5.4 0 0 0 1.223-.326 6 6 0 0 0 1.006-.529c.265-.168.48-.329.637-.454l22.552-17.35c.094-.067.228-.168.378-.302.274-.241.462-.409.606-.681a1.5 1.5 0 0 0 .184-.638l.111 16.036a1.6 1.6 0 0 1-.008.369" fill="#EBECEE" stroke="#000" stroke-width=".46" stroke-linecap="round" stroke-linejoin="round"/><path d="m82.551 128.659 16.644 6.474q11.823-9.094 23.648-18.187l.003-2.629 1.969.682c.196.07.482.186.811.368.463.256.738.408.951.735.068.103.281.44.26.898a1.5 1.5 0 0 1-.184.637c-.143.273-.333.44-.605.682a5 5 0 0 1-.378.303l-22.552 17.348a7 7 0 0 1-.638.454 6 6 0 0 1-1.005.53 5.3 5.3 0 0 1-1.223.324 6.3 6.3 0 0 1-1.297.064 8.4 8.4 0 0 1-3.006-.713l-12.552-4.921a3 3 0 0 1-.706-.39c-.304-.226-.59-.439-.73-.819-.23-.627.109-1.228.17-1.339a1.8 1.8 0 0 1 .422-.503z" fill="#fff" stroke="#000" stroke-width=".46" stroke-linecap="round" stroke-linejoin="round"/></svg>