<svg width="94" height="66" viewBox="0 0 94 66" fill="none" xmlns="http://www.w3.org/2000/svg"><path d="m31.745 41.4-3.033.632-3.448-15.942-1.063.22 3.448 15.942-3.033.633a.958.958 0 0 0-.75 1.135l7.987 36.948h9.446L32.904 42.13a.975.975 0 0 0-1.155-.738l-.004.008ZM9.943 57.954a.975.975 0 0 0-1.155-.738l-3.033.632L2.307 41.91l-1.063.22 3.448 15.942-3.033.633a.958.958 0 0 0-.75 1.135l4.566 21.132h9.446L9.943 57.95v.003ZM41.948 27.57l-3.033.632-3.448-15.942-1.063.22 3.448 15.942-3.032.632a.958.958 0 0 0-.752 1.136l10.977 50.78h9.446L43.103 28.305a.975.975 0 0 0-1.155-.738v.003Z" fill="#FF444F"/><path d="m55.471 29.095-3.032.632-3.449-15.942-1.063.22 3.449 15.942-3.033.633a.958.958 0 0 0-.751 1.135L58.24 80.968h9.447L56.63 29.826a.975.975 0 0 0-1.155-.74l-.004.009Zm-40.173-7.383a.975.975 0 0 0-1.155-.738l-3.032.632-2.486-11.463h-1.11L10.04 21.83l-3.033.633a.958.958 0 0 0-.751 1.135L18.659 80.97h9.446L15.298 21.712Z" fill="#85ACB0"/><path d="m69.612 33.485-3.033.633-3.448-15.942-1.063.22 3.448 15.942-3.032.632a.959.959 0 0 0-.752 1.136l9.698 44.86h9.446l-10.105-46.75a.975.975 0 0 0-1.155-.738l-.004.007Z" fill="#FF444F"/><path d="m81.065 25.448-3.033.633-3.448-15.938-1.063.22 3.449 15.942-3.033.632a.958.958 0 0 0-.751 1.136L84.62 80.97h9.447L82.224 26.183a.975.975 0 0 0-1.155-.739l-.004.004Zm11-10-3.033.633L85.584.143l-1.063.22 3.449 15.942-3.033.632a.958.958 0 0 0-.751 1.136L95.62 70.97h9.446L93.224 16.183a.975.975 0 0 0-1.155-.739l-.004.004Z" fill="#85ACB0"/></svg>