<svg xmlns="http://www.w3.org/2000/svg" width="36" height="36"><defs><filter id="a" width="103.2%" height="105.8%" x="-1.6%" y="-2.9%" filterUnits="objectBoundingBox"><feOffset dy="4" in="SourceAlpha" result="shadowOffsetOuter1"/><feGaussianBlur in="shadowOffsetOuter1" result="shadowBlurOuter1" stdDeviation="3"/><feColorMatrix in="shadowBlurOuter1" result="shadowMatrixOuter1" values="0 0 0 0 0 0 0 0 0 0 0 0 0 0 0 0 0 0 0.24 0"/><feMerge><feMergeNode in="shadowMatrixOuter1"/><feMergeNode in="SourceGraphic"/></feMerge></filter></defs><g fill="none" fill-rule="evenodd" filter="url(#a)" transform="translate(6 2)"><rect width="24" height="24" fill="#F4F4F6" fill-rule="nonzero" rx="4"/><path fill="#000" fill-opacity=".8" d="M6.083 13H6a1 1 0 0 1 0-2h.083A6.005 6.005 0 0 1 11 6.083V6a1 1 0 0 1 2 0v.083A6.005 6.005 0 0 1 17.917 11H18a1 1 0 0 1 0 2h-.083A6.005 6.005 0 0 1 13 17.917V18a1 1 0 0 1-2 0v-.083A6.005 6.005 0 0 1 6.083 13zm2.043-2H9a1 1 0 0 1 0 2h-.874A4.007 4.007 0 0 0 11 15.874V15a1 1 0 0 1 2 0v.874A4.007 4.007 0 0 0 15.874 13H15a1 1 0 0 1 0-2h.874A4.007 4.007 0 0 0 13 8.126V9a1 1 0 0 1-2 0v-.874A4.007 4.007 0 0 0 8.126 11z"/></g></svg>