<svg width="258" height="140" xmlns="http://www.w3.org/2000/svg"><g fill="none" fill-rule="nonzero"><rect fill="#FFF" width="258" height="140" rx="4"/><rect fill="#F2F3F4" width="258" height="140" rx="4"/><path d="M149.033 85.333h31.085c3.053 0 5.527 2.289 5.527 5.111 0 2.823-2.474 5.112-5.527 5.112H38.507c-3.053 0-5.527-2.289-5.527-5.112 0-2.822 2.474-5.11 5.527-5.11h60.79c3.051 0 5.525-2.289 5.525-5.112s-2.474-5.11-5.526-5.11H52.322v-.04c-2.763-.323-4.834-2.496-4.834-5.072s2.071-4.749 4.834-5.072v-.04h19.342c3.053 0 5.527-2.287 5.527-5.11 0-2.823-2.474-5.111-5.527-5.111H46.105c-3.052 0-5.526-2.289-5.526-5.111 0-2.823 2.474-5.112 5.526-5.112h131.25c3.052 0 5.527 2.289 5.527 5.112 0 2.822-2.475 5.11-5.527 5.11h-51.118c-3.052 0-5.526 2.289-5.526 5.112s2.474 5.11 5.526 5.11h30.395c3.052 0 5.526 2.29 5.526 5.112 0 2.823-2.474 5.111-5.526 5.111h-16.58c-3.051 0-5.526 2.288-5.526 5.111s2.475 5.111 5.527 5.111h8.98ZM29.526 44.444c3.052 0 5.527 2.289 5.527 5.112 0 2.822-2.475 5.11-5.527 5.11S24 52.379 24 49.557c0-2.823 2.474-5.112 5.526-5.112ZM159.395 24h38.684c3.052 0 5.526 2.288 5.526 5.111s-2.474 5.111-5.526 5.111h-38.684c-3.052 0-5.527-2.288-5.527-5.11 0-2.824 2.475-5.112 5.527-5.112Zm-23.487 0c3.052 0 5.526 2.288 5.526 5.111s-2.474 5.111-5.526 5.111c-3.052 0-5.526-2.288-5.526-5.11 0-2.824 2.474-5.112 5.526-5.112Zm67.006 20.444h9.672c3.052 0 5.526 2.289 5.526 5.112 0 2.822-2.474 5.11-5.526 5.11h-9.672c-3.052 0-5.526-2.288-5.526-5.11 0-2.823 2.474-5.112 5.526-5.112ZM178.737 64.89h20.724c3.052 0 5.526 2.288 5.526 5.111s-2.474 5.111-5.526 5.111h-20.724c-3.052 0-5.526-2.288-5.526-5.111s2.474-5.111 5.526-5.111Zm19.342 20.444h30.395c3.052 0 5.526 2.289 5.526 5.111 0 2.823-2.474 5.112-5.526 5.112h-30.395c-3.052 0-5.526-2.289-5.526-5.112 0-2.822 2.474-5.11 5.526-5.11Zm-131.94 20.445h62.17c3.052 0 5.527 2.288 5.527 5.11 0 2.824-2.475 5.112-5.527 5.112H66.14c-3.053 0-5.527-2.288-5.527-5.111s2.474-5.111 5.526-5.111Zm82.894 0h9.67c3.053 0 5.527 2.288 5.527 5.11 0 2.824-2.474 5.112-5.526 5.112h-9.671c-3.052 0-5.526-2.288-5.526-5.111s2.474-5.111 5.526-5.111Z" fill="#FFF"/><path d="M199 69.952V78h-21.336L185 85.34a7.956 7.956 0 0 1 0 11.26l-.024.028L169 80.652l8.992-8.992a7.912 7.912 0 0 0 1.24-1.66L199 69.952Zm-45.976-30.58 16.968 16.972a8 8 0 0 1 0 11.312l-16.968 16.972L153 84.6a7.952 7.952 0 0 1 0-11.256L160.336 66 139 66.048V58h21.336L153 50.66a7.956 7.956 0 0 1 0-11.26l.024-.028Zm31.948 12a7.976 7.976 0 0 1 2.368 5.662 7.95 7.95 0 0 1-1.865 5.117l-.475.517-4.8 4.8a8 8 0 0 0-1.763-6.642l-.445-.482-.992-.996 7.972-7.976Z" fill="#FF444F"/><path d="M175 90v12h-8V90h8Zm0-52v12h-8V38h8Z" fill="#85ACB0"/><path d="m71.028 47.372 16.964 16.972a8 8 0 0 1 0 11.312L71.024 92.628 71 92.6a7.952 7.952 0 0 1 0-11.256L78.336 74 57 74.048V66h21.336L71 58.66a7.956 7.956 0 0 1 0-11.26l.028-.028Zm35.944 0 .028.028a7.952 7.952 0 0 1 0 11.256L99.664 66 121 65.952V74H99.664l7.34 7.34a7.956 7.956 0 0 1 0 11.26l-.028.028L93 78.652l2.992-2.996a8 8 0 0 0 0-11.312L93 61.348l13.972-13.976Z" fill="#FF444F"/><path d="M93 86v16h-8V86h8Zm0-48v16h-8V38h8Z" fill="#85ACB0"/></g></svg>