<svg width="258" height="140" xmlns="http://www.w3.org/2000/svg"><g fill="none" fill-rule="nonzero"><rect fill="#FFF" width="258" height="140" rx="4"/><rect fill="#F2F3F4" width="258" height="140" rx="4"/><path d="M149.033 85.333h31.085c3.053 0 5.527 2.289 5.527 5.111 0 2.823-2.474 5.112-5.527 5.112H38.507c-3.053 0-5.527-2.289-5.527-5.112 0-2.822 2.474-5.11 5.527-5.11h60.79c3.051 0 5.525-2.289 5.525-5.112s-2.474-5.11-5.526-5.11H52.322v-.04c-2.763-.323-4.834-2.496-4.834-5.072s2.071-4.749 4.834-5.072v-.04h19.342c3.053 0 5.527-2.287 5.527-5.11 0-2.823-2.474-5.111-5.527-5.111H46.105c-3.052 0-5.526-2.289-5.526-5.111 0-2.823 2.474-5.112 5.526-5.112h131.25c3.052 0 5.527 2.289 5.527 5.112 0 2.822-2.475 5.11-5.527 5.11h-51.118c-3.052 0-5.526 2.289-5.526 5.112s2.474 5.11 5.526 5.11h30.395c3.052 0 5.526 2.29 5.526 5.112 0 2.823-2.474 5.111-5.526 5.111h-16.58c-3.051 0-5.526 2.288-5.526 5.111s2.475 5.111 5.527 5.111h8.98ZM29.526 44.444c3.052 0 5.527 2.289 5.527 5.112 0 2.822-2.475 5.11-5.527 5.11S24 52.379 24 49.557c0-2.823 2.474-5.112 5.526-5.112ZM159.395 24h38.684c3.052 0 5.526 2.288 5.526 5.111s-2.474 5.111-5.526 5.111h-38.684c-3.052 0-5.527-2.288-5.527-5.11 0-2.824 2.475-5.112 5.527-5.112Zm-23.487 0c3.052 0 5.526 2.288 5.526 5.111s-2.474 5.111-5.526 5.111c-3.052 0-5.526-2.288-5.526-5.11 0-2.824 2.474-5.112 5.526-5.112Zm67.006 20.444h9.672c3.052 0 5.526 2.289 5.526 5.112 0 2.822-2.474 5.11-5.526 5.11h-9.672c-3.052 0-5.526-2.288-5.526-5.11 0-2.823 2.474-5.112 5.526-5.112ZM178.737 64.89h20.724c3.052 0 5.526 2.288 5.526 5.111s-2.474 5.111-5.526 5.111h-20.724c-3.052 0-5.526-2.288-5.526-5.111s2.474-5.111 5.526-5.111Zm19.342 20.444h30.395c3.052 0 5.526 2.289 5.526 5.111 0 2.823-2.474 5.112-5.526 5.112h-30.395c-3.052 0-5.526-2.289-5.526-5.112 0-2.822 2.474-5.11 5.526-5.11Zm-131.94 20.445h62.17c3.052 0 5.527 2.288 5.527 5.11 0 2.824-2.475 5.112-5.527 5.112H66.14c-3.053 0-5.527-2.288-5.527-5.111s2.474-5.111 5.526-5.111Zm82.894 0h9.67c3.053 0 5.527 2.288 5.527 5.11 0 2.824-2.474 5.112-5.526 5.112h-9.671c-3.052 0-5.526-2.288-5.526-5.111s2.474-5.111 5.526-5.111Z" fill="#FFF"/><path d="m151 73.5 14 21h-28l14-21Zm36 0 14 21h-28l14-21Z" fill="#85ACB0"/><path fill="#FF444F" d="m155 66.5 14-21 14 21z"/><path d="M81 78v24H57V78h24Zm40-40v24H97V38h24Z" fill="#85ACB0"/><path d="M121 78v24H97V78h24ZM81 38v24H57V38h24Z" fill="#FF444F"/></g></svg>