<svg width="258" height="140" xmlns="http://www.w3.org/2000/svg"><g fill="none" fill-rule="nonzero"><rect fill="#FFF" width="258" height="140" rx="4"/><rect fill="#F2F3F4" width="258" height="140" rx="4"/><path d="M149.033 85.333h31.085c3.053 0 5.527 2.289 5.527 5.111 0 2.823-2.474 5.112-5.527 5.112H38.507c-3.053 0-5.527-2.289-5.527-5.112 0-2.822 2.474-5.11 5.527-5.11h60.79c3.051 0 5.525-2.289 5.525-5.112s-2.474-5.11-5.526-5.11H52.322v-.04c-2.763-.323-4.834-2.496-4.834-5.072s2.071-4.749 4.834-5.072v-.04h19.342c3.053 0 5.527-2.287 5.527-5.11 0-2.823-2.474-5.111-5.527-5.111H46.105c-3.052 0-5.526-2.289-5.526-5.111 0-2.823 2.474-5.112 5.526-5.112h131.25c3.052 0 5.527 2.289 5.527 5.112 0 2.822-2.475 5.11-5.527 5.11h-51.118c-3.052 0-5.526 2.289-5.526 5.112s2.474 5.11 5.526 5.11h30.395c3.052 0 5.526 2.29 5.526 5.112 0 2.823-2.474 5.111-5.526 5.111h-16.58c-3.051 0-5.526 2.288-5.526 5.111s2.475 5.111 5.527 5.111h8.98ZM29.526 44.444c3.052 0 5.527 2.289 5.527 5.112 0 2.822-2.475 5.11-5.527 5.11S24 52.379 24 49.557c0-2.823 2.474-5.112 5.526-5.112ZM159.395 24h38.684c3.052 0 5.526 2.288 5.526 5.111s-2.474 5.111-5.526 5.111h-38.684c-3.052 0-5.527-2.288-5.527-5.11 0-2.824 2.475-5.112 5.527-5.112Zm-23.487 0c3.052 0 5.526 2.288 5.526 5.111s-2.474 5.111-5.526 5.111c-3.052 0-5.526-2.288-5.526-5.11 0-2.824 2.474-5.112 5.526-5.112Zm67.006 20.444h9.672c3.052 0 5.526 2.289 5.526 5.112 0 2.822-2.474 5.11-5.526 5.11h-9.672c-3.052 0-5.526-2.288-5.526-5.11 0-2.823 2.474-5.112 5.526-5.112ZM178.737 64.89h20.724c3.052 0 5.526 2.288 5.526 5.111s-2.474 5.111-5.526 5.111h-20.724c-3.052 0-5.526-2.288-5.526-5.111s2.474-5.111 5.526-5.111Zm19.342 20.444h30.395c3.052 0 5.526 2.289 5.526 5.111 0 2.823-2.474 5.112-5.526 5.112h-30.395c-3.052 0-5.526-2.289-5.526-5.112 0-2.822 2.474-5.11 5.526-5.11Zm-131.94 20.445h62.17c3.052 0 5.527 2.288 5.527 5.11 0 2.824-2.475 5.112-5.527 5.112H66.14c-3.053 0-5.527-2.288-5.527-5.111s2.474-5.111 5.526-5.111Zm82.894 0h9.67c3.053 0 5.527 2.288 5.527 5.11 0 2.824-2.474 5.112-5.526 5.112h-9.671c-3.052 0-5.526-2.288-5.526-5.111s2.474-5.111 5.526-5.111Z" fill="#FFF"/><path d="m169 60.28 24 24.08v-10.4a7.96 7.96 0 0 1 7.96-7.96h.04v24a8 8 0 0 1-8 8h-24v-.04a7.96 7.96 0 0 1 7.96-7.96h10.384L169 71.656V60.28ZM150.796 42l7.96 8h-11.412l-8-8h11.452Z" fill="#FF444F"/><path fill="#85ACB0" d="M137 50h64v8h-64z"/><path d="m78.756 90-7.96 8H59.344l8-8h11.412ZM113 42a8 8 0 0 1 8 8v24h-.04a7.96 7.96 0 0 1-7.96-7.96v-10.4L89 79.72V68.344L107.344 50H96.96A7.96 7.96 0 0 1 89 42.04V42h24Z" fill="#FF444F"/><path fill="#85ACB0" d="M57 82h64v8H57z"/></g></svg>