<svg xmlns="http://www.w3.org/2000/svg" xmlns:xlink="http://www.w3.org/1999/xlink" width="128" height="128" viewBox="0 0 128 128"><defs><circle id="a" cx="64" cy="64" r="64"/></defs><g fill="none" fill-rule="evenodd"><use fill="#F2F2F2" xlink:href="#a"/><circle cx="64" cy="64" r="62" stroke="#E98024" stroke-width="4"/><g fill="#E98024" transform="translate(24.615 24.615)"><rect width="49.375" height="4.938" x="14.813" y="39.5" rx="2.469"/><path fill-rule="nonzero" d="M18.823 40.043a2.469 2.469 0 1 0-3.084 3.855l12.344 9.874a2.469 2.469 0 0 0 3.356-.254l29.625-32.093a2.469 2.469 0 0 0-3.628-3.35L29.371 48.48l-10.548-8.436z"/><path fill-rule="nonzero" d="M59.25 19.75v7.406a2.469 2.469 0 1 0 4.938 0v-9.875a2.469 2.469 0 0 0-2.47-2.468h-9.874a2.469 2.469 0 1 0 0 4.937h7.406z"/></g></g></svg>