<svg width="32" height="24" xmlns="http://www.w3.org/2000/svg"><g fill="none" fill-rule="evenodd"><g fill-rule="nonzero"><path d="M22.203.013H1.797C.805.013 0 .831 0 1.84v12.322c0 1.008.805 1.826 1.797 1.826h20.406c.992 0 1.797-.818 1.797-1.826V1.839C24 .831 23.195.013 22.203.013z" fill="#0D47A1"/><path d="M12.168 1.842l.166.505.525.005c.068 0 .096.088.041.13l-.422.316.158.508c.02.065-.053.12-.108.08l-.427-.31-.426.31c-.056.04-.13-.015-.109-.08l.158-.508-.422-.317c-.054-.04-.026-.129.042-.13l.524-.004.166-.505a.07.07 0 0 1 .134 0zm0 10.85l.166.506.525.004c.068 0 .096.089.041.13l-.422.316.158.508c.02.066-.053.12-.108.08l-.427-.31-.426.31a.071.071 0 0 1-.109-.08l.158-.508-.422-.316c-.054-.041-.026-.13.042-.13l.524-.004.166-.505a.07.07 0 0 1 .134 0zm5.34-5.425l.167.506.524.004c.068 0 .096.088.042.13l-.422.316.158.508c.02.066-.053.12-.109.08l-.426-.31-.427.31c-.055.04-.129-.014-.108-.08l.158-.508-.422-.317c-.055-.04-.027-.129.041-.13l.525-.003.166-.506a.07.07 0 0 1 .134 0zm-10.68 0l.166.506.524.004c.068 0 .096.088.041.13l-.421.316.158.508c.02.066-.053.12-.109.08l-.426-.31-.427.31c-.055.04-.129-.014-.108-.08l.158-.508-.422-.317c-.055-.04-.027-.129.041-.13l.525-.003.166-.506a.07.07 0 0 1 .134 0zm.801-2.833l.166.506.525.004c.068 0 .096.088.041.13l-.422.316.159.508c.02.065-.054.12-.109.08l-.427-.31-.426.31c-.055.04-.13-.015-.109-.08l.159-.508-.422-.317c-.055-.04-.027-.129.041-.13l.524-.003.166-.506a.07.07 0 0 1 .134 0zm9.25 5.426l.166.505.525.004c.068 0 .096.089.041.13l-.422.316.159.508c.02.066-.054.12-.109.08l-.427-.31-.426.31c-.055.04-.13-.014-.109-.08l.159-.508-.422-.316c-.055-.041-.027-.13.041-.13l.524-.004.166-.505a.07.07 0 0 1 .134 0zm-1.954-7.412l.166.506.524.004c.068 0 .096.088.042.13l-.422.316.158.508c.02.066-.053.12-.109.08l-.426-.31-.427.31c-.055.04-.129-.014-.108-.08l.158-.508-.422-.317c-.055-.04-.027-.129.041-.129l.525-.004.166-.506a.07.07 0 0 1 .134 0zm-5.34 9.397l.165.506.525.004c.067 0 .096.088.041.13l-.422.316.158.508c.02.066-.053.12-.108.08l-.427-.31-.426.31a.071.071 0 0 1-.109-.08l.158-.508-.422-.317c-.054-.04-.026-.129.042-.13l.524-.003.166-.506a.07.07 0 0 1 .134 0zm7.16-7.41a.07.07 0 0 1 .134 0l.166.505.525.004c.068 0 .096.088.041.13l-.422.316.159.508c.02.065-.054.12-.109.08l-.427-.31-.426.31c-.055.04-.13-.015-.109-.08l.159-.508-.422-.317c-.055-.04-.027-.129.041-.13l.524-.003.166-.506zM7.495 9.86a.07.07 0 0 1 .134 0l.166.505.525.004c.068 0 .096.089.041.13l-.422.316.159.508c.02.066-.054.12-.109.08l-.427-.31-.426.31c-.055.04-.13-.014-.109-.08l.159-.508-.422-.316c-.055-.041-.027-.13.041-.13l.524-.004.166-.505zM9.45 2.448a.07.07 0 0 1 .134 0l.166.506.525.004c.067 0 .096.088.041.13l-.422.316.158.508c.02.066-.053.12-.108.08l-.427-.31-.426.31a.071.071 0 0 1-.109-.08l.158-.508-.422-.317c-.054-.04-.026-.129.042-.129l.524-.004.166-.506zm5.34 9.397a.07.07 0 0 1 .135 0l.166.506.524.004c.068 0 .096.088.041.13l-.421.316.158.508c.02.066-.053.12-.109.08l-.426-.31-.427.31c-.055.04-.129-.014-.108-.08l.158-.508-.422-.317c-.055-.04-.027-.129.041-.13l.525-.003.166-.506z" fill="#FFEB3B"/></g><rect stroke-opacity=".04" stroke="#000" x=".5" y=".5" width="23" height="15" rx="2"/><rect stroke-opacity=".04" stroke="#000" x=".5" y=".5" width="23" height="15" rx="2"/><g transform="translate(8 8)"><g fill-rule="nonzero"><path d="M22.203.013H1.797C.805.013 0 .831 0 1.84v12.322c0 1.008.805 1.826 1.797 1.826h20.406c.992 0 1.797-.818 1.797-1.826V1.839C24 .831 23.195.013 22.203.013z" fill="#0D47A1"/><path d="M23.975 1.537A1.806 1.806 0 0 0 22.203.013h-.468l-7.666 5.102V.013H9.931v5.102L2.265.013h-.468C.906.013.167.673.025 1.537l6.552 4.361H0v4.204h6.577l-6.552 4.36a1.806 1.806 0 0 0 1.772 1.525h.468l7.666-5.102v5.102h4.138v-5.102l7.666 5.102h.468c.891 0 1.63-.66 1.772-1.524l-6.552-4.361H24V5.898h-6.577l6.552-4.36z" fill="#FFF"/><path d="M13.241.013V6.74H24v2.52H13.241v6.726H10.76V9.26H0V6.74h10.759V.013h2.482zM1.162 15.87a1.8 1.8 0 0 1-.73-.52l7.956-5.247h1.52L1.162 15.87zm15.075-5.767l7.527 4.963a1.82 1.82 0 0 1-.576.623l-8.471-5.586h1.52zM.19 1.022C.316.767.5.545.725.374l8.378 5.525h-1.52L.19 1.023zm15.399 4.876h-1.52L22.824.125a1.8 1.8 0 0 1 .735.517l-7.97 5.256z" fill="#F44336"/></g><rect stroke-opacity=".04" stroke="#000" x=".5" y=".5" width="23" height="15" rx="2"/></g><rect stroke-opacity=".04" stroke="#000" x="8.5" y="8.5" width="23" height="15" rx="2"/></g></svg>