<svg id="Layer_1" data-name="Layer 1" xmlns="http://www.w3.org/2000/svg" viewBox="0 0 32 32" height="32" width="32"><defs><style>.cls-1,.cls-4,.cls-5,.cls-6{fill:none}.cls-2{fill:#84aaaf}.cls-3{fill:#ef4852}.cls-4,.cls-5{stroke:#e4e4e4}.cls-4,.cls-5,.cls-6{stroke-linecap:round;stroke-linejoin:round}.cls-5{stroke-dasharray:.96 1.92}.cls-6{stroke:#84aaaf}.cls-7,.cls-9{fill:#fff}.cls-8{fill:#2a2a2a}.cls-9{font-size:6px;font-family:Roboto-Medium,Roboto;font-weight:500}</style></defs><title>Volatility 50</title><path class="cls-1" d="M0 0h32v32H0z"/><path class="cls-2" d="M27.5 30a.5.5 0 0 1-.5-.5v-4a.5.5 0 0 1 1 0v4a.5.5 0 0 1-.5.5z"/><path class="cls-2" d="M29.5 28a.47.47 0 0 1-.35-.15l-1.65-1.64-1.65 1.64a.49.49 0 0 1-.7-.7l2-2a.48.48 0 0 1 .7 0l2 2a.48.48 0 0 1 0 .7.47.47 0 0 1-.35.15z"/><path class="cls-3" d="M4.5 10a.5.5 0 0 1-.5-.5v-4a.5.5 0 0 1 1 0v4a.5.5 0 0 1-.5.5z"/><path class="cls-3" d="M4.51 10a.49.49 0 0 1-.35-.15l-2-2a.48.48 0 0 1 0-.7.5.5 0 0 1 .71 0l1.64 1.64 1.65-1.64a.5.5 0 0 1 .71 0 .5.5 0 0 1 0 .7l-2 2a.51.51 0 0 1-.36.15z"/><path class="cls-4" d="M28.5 12.5H28"/><path class="cls-5" d="M26.08 12.5H3.96"/><path class="cls-4" d="M3 12.5h-.5M29.5 22.5H29"/><path class="cls-5" d="M27.08 22.5H4.96"/><path class="cls-4" d="M4 22.5h-.5"/><path class="cls-6" d="M3.5 21.5l5-4 5 3 5-5 5 4 5-6"/><circle class="cls-7" cx="13.5" cy="20.5" r="1"/><path class="cls-2" d="M13.5 20a.5.5 0 1 1-.5.5.5.5 0 0 1 .5-.5m0-1a1.5 1.5 0 1 0 1.5 1.5 1.5 1.5 0 0 0-1.5-1.5z"/><circle class="cls-7" cx="23.5" cy="19.5" r="1"/><path class="cls-2" d="M23.5 19a.5.5 0 1 1-.5.5.5.5 0 0 1 .5-.5m0-1a1.5 1.5 0 1 0 1.5 1.5 1.5 1.5 0 0 0-1.5-1.5z"/><circle class="cls-7" cx="28.5" cy="13.5" r="1"/><path class="cls-2" d="M28.5 13a.5.5 0 1 1-.5.5.5.5 0 0 1 .5-.5m0-1a1.5 1.5 0 1 0 1.5 1.5 1.5 1.5 0 0 0-1.5-1.5z"/><circle class="cls-7" cx="18.5" cy="15.5" r="1"/><path class="cls-2" d="M18.5 15a.5.5 0 1 1-.5.5.5.5 0 0 1 .5-.5m0-1a1.5 1.5 0 1 0 1.5 1.5 1.5 1.5 0 0 0-1.5-1.5z"/><circle class="cls-7" cx="8.5" cy="17.5" r="1"/><path class="cls-2" d="M8.5 17a.5.5 0 1 1-.5.5.5.5 0 0 1 .5-.5m0-1a1.5 1.5 0 1 0 1.5 1.5A1.5 1.5 0 0 0 8.5 16z"/><circle class="cls-7" cx="3.5" cy="21.5" r="1"/><path class="cls-2" d="M3.5 21a.5.5 0 1 1-.5.5.5.5 0 0 1 .5-.5m0-1A1.5 1.5 0 1 0 5 21.5 1.5 1.5 0 0 0 3.5 20z"/><rect class="cls-8" x="18" y="2" width="12" height="8" rx="1"/><text class="cls-9" transform="translate(20.59 8.19)">50</text></svg>