<svg id="Layer_1" data-name="Layer 1" xmlns="http://www.w3.org/2000/svg" viewBox="0 0 32 32" height="32" width="32"><defs><style>.cls-1,.cls-2,.cls-3,.cls-4{fill:none}.cls-1,.cls-2{stroke:#e4e4e4}.cls-1,.cls-2,.cls-4{stroke-linecap:round;stroke-linejoin:round}.cls-2{stroke-dasharray:.96 1.92}.cls-4{stroke:#84aaaf}.cls-5{fill:#fff}.cls-6{fill:#84aaaf}.cls-7{fill:#ef4852}.cls-8{fill:#2a2a2a}</style></defs><title>Volatility 100</title><path class="cls-1" d="M28.5 12.5H28"/><path class="cls-2" d="M26.08 12.5H3.96"/><path class="cls-1" d="M3 12.5h-.5M29.5 22.5H29"/><path class="cls-2" d="M27.08 22.5H4.96"/><path class="cls-1" d="M4 22.5h-.5"/><path class="cls-3" d="M.01-.12h32V32h-32z"/><path class="cls-4" d="M3.5 21.5l5-4 5 3 5-5 5 4 5-6"/><circle class="cls-5" cx="13.5" cy="20.5" r="1"/><path class="cls-6" d="M13.5 20a.5.5 0 1 1-.5.5.5.5 0 0 1 .5-.5m0-1a1.5 1.5 0 1 0 1.5 1.5 1.5 1.5 0 0 0-1.5-1.5z"/><circle class="cls-5" cx="23.5" cy="19.5" r="1"/><path class="cls-6" d="M23.5 19a.5.5 0 1 1-.5.5.5.5 0 0 1 .5-.5m0-1a1.5 1.5 0 1 0 1.5 1.5 1.5 1.5 0 0 0-1.5-1.5z"/><circle class="cls-5" cx="28.5" cy="13.5" r="1"/><path class="cls-6" d="M28.5 13a.5.5 0 1 1-.5.5.5.5 0 0 1 .5-.5m0-1a1.5 1.5 0 1 0 1.5 1.5 1.5 1.5 0 0 0-1.5-1.5z"/><circle class="cls-5" cx="18.5" cy="15.5" r="1"/><path class="cls-6" d="M18.5 15a.5.5 0 1 1-.5.5.5.5 0 0 1 .5-.5m0-1a1.5 1.5 0 1 0 1.5 1.5 1.5 1.5 0 0 0-1.5-1.5z"/><circle class="cls-5" cx="8.5" cy="17.5" r="1"/><path class="cls-6" d="M8.5 17a.5.5 0 1 1-.5.5.5.5 0 0 1 .5-.5m0-1a1.5 1.5 0 1 0 1.5 1.5A1.5 1.5 0 0 0 8.5 16z"/><circle class="cls-5" cx="3.5" cy="21.5" r="1"/><path class="cls-6" d="M3.5 21a.5.5 0 1 1-.5.5.5.5 0 0 1 .5-.5m0-1A1.5 1.5 0 1 0 5 21.5 1.5 1.5 0 0 0 3.5 20z"/><path class="cls-7" d="M4.5 10a.5.5 0 0 1-.5-.5v-4a.5.5 0 0 1 1 0v4a.5.5 0 0 1-.5.5z"/><path class="cls-7" d="M4.51 10a.49.49 0 0 1-.35-.15l-2-2a.48.48 0 0 1 0-.7.5.5 0 0 1 .71 0l1.64 1.64 1.65-1.64a.5.5 0 0 1 .71 0 .5.5 0 0 1 0 .7l-2 2a.51.51 0 0 1-.36.15z"/><path class="cls-6" d="M27.5 30a.5.5 0 0 1-.5-.5v-4a.5.5 0 0 1 1 0v4a.5.5 0 0 1-.5.5z"/><path class="cls-6" d="M29.5 28a.47.47 0 0 1-.35-.15l-1.65-1.64-1.65 1.64a.49.49 0 0 1-.7-.7l2-2a.48.48 0 0 1 .7 0l2 2a.48.48 0 0 1 0 .7.47.47 0 0 1-.35.15z"/><rect class="cls-8" x="16" y="2" width="14" height="8" rx="1"/><path class="cls-5" d="M20.16 8.31h-.71V4.88l-1 .35v-.59L20.07 4h.09zM23.94 6.51a2.36 2.36 0 0 1-.34 1.39 1.22 1.22 0 0 1-1.05.46 1.23 1.23 0 0 1-1-.45 2.31 2.31 0 0 1-.36-1.35v-.74a2.3 2.3 0 0 1 .35-1.38A1.22 1.22 0 0 1 22.55 4a1.23 1.23 0 0 1 1 .45 2.19 2.19 0 0 1 .35 1.34zm-.71-.8a1.81 1.81 0 0 0-.16-.88.58.58 0 0 0-.52-.28.56.56 0 0 0-.52.27 1.69 1.69 0 0 0-.17.83v1a1.84 1.84 0 0 0 .14.85.6.6 0 0 0 1 0 1.65 1.65 0 0 0 .17-.84zM27.59 6.51a2.36 2.36 0 0 1-.34 1.39 1.22 1.22 0 0 1-1.05.46 1.23 1.23 0 0 1-1-.45 2.31 2.31 0 0 1-.36-1.35v-.74a2.3 2.3 0 0 1 .35-1.38A1.22 1.22 0 0 1 26.2 4a1.23 1.23 0 0 1 1 .45 2.19 2.19 0 0 1 .35 1.34zm-.71-.8a1.81 1.81 0 0 0-.16-.88.58.58 0 0 0-.52-.28.56.56 0 0 0-.52.27 1.69 1.69 0 0 0-.17.83v1a1.84 1.84 0 0 0 .17.89.6.6 0 0 0 1 0 1.65 1.65 0 0 0 .17-.84z"/></svg>