<svg width="32" height="32" xmlns="http://www.w3.org/2000/svg"><g fill="none" fill-rule="evenodd"><path d="M2 9h3v1H2V9zm5 0h3v1H7V9zm5 0h3v1h-3V9zm5 0h3v1h-3V9zm5 0h3v1h-3V9zm5 0h3v1h-3V9zM2 22h3v1H2v-1zm5 0h3v1H7v-1zm5 0h3v1h-3v-1zm5 0h3v1h-3v-1zm5 0h3v1h-3v-1zm5 0h3v1h-3v-1z" fill-opacity=".109" fill="#64809C"/><path d="M21.375 5.203l.328-2.89h3.188v.94h-2.262l-.14 1.224a1.79 1.79 0 0 1 .855-.215c.541 0 .966.168 1.273.504.307.336.461.806.461 1.41 0 .367-.077.696-.232.986a1.64 1.64 0 0 1-.666.676c-.29.16-.63.24-1.024.24a2.21 2.21 0 0 1-.957-.209 1.698 1.698 0 0 1-.697-.588 1.602 1.602 0 0 1-.272-.863h1.118c.023.237.106.421.248.553a.786.786 0 0 0 .556.197c.256 0 .452-.092.59-.275.138-.184.207-.444.207-.78 0-.323-.08-.57-.238-.742-.159-.172-.384-.258-.676-.258-.268 0-.486.07-.652.211l-.11.102-.898-.223zm8.25.445c0 .787-.163 1.388-.488 1.805-.326.417-.802.625-1.43.625-.62 0-1.094-.204-1.422-.613-.328-.409-.496-.995-.504-1.758V4.66c0-.794.165-1.397.494-1.808.33-.412.804-.618 1.424-.618.62 0 1.094.204 1.422.612.328.407.496.993.504 1.756v1.046zM28.496 4.5c0-.471-.064-.814-.193-1.03-.13-.214-.33-.322-.604-.322-.265 0-.461.103-.588.307-.126.205-.193.524-.2.96v1.382c0 .463.062.808.189 1.033.126.225.328.338.607.338.276 0 .475-.108.598-.324.122-.216.186-.547.191-.992V4.5z" fill="#465463"/><path d="M25.145 13.144a1.5 1.5 0 1 1 .705.709l-2.996 3a1.5 1.5 0 1 1-2.786.198l-1.736-1.302a1.493 1.493 0 0 1-1.479.105l-2 2a1.5 1.5 0 1 1-2.786.198l-1.735-1.303a1.493 1.493 0 0 1-1.479.105l-2 2a1.5 1.5 0 1 1-.707-.707l2-2a1.5 1.5 0 1 1 2.786-.198l1.736 1.302a1.493 1.493 0 0 1 1.479-.105l2-2a1.5 1.5 0 1 1 2.786-.198l1.735 1.303a1.493 1.493 0 0 1 1.479-.105l2.998-3.002zM5.5 20.25a.75.75 0 1 0 0-1.5.75.75 0 0 0 0 1.5zm4-4a.75.75 0 1 0 0-1.5.75.75 0 0 0 0 1.5zm4 3a.75.75 0 1 0 0-1.5.75.75 0 0 0 0 1.5zm4-4a.75.75 0 1 0 0-1.5.75.75 0 0 0 0 1.5zm4 3a.75.75 0 1 0 0-1.5.75.75 0 0 0 0 1.5zm5-5a.75.75 0 1 0 0-1.5.75.75 0 0 0 0 1.5z" fill="#64809C" fill-rule="nonzero"/><path d="M26 19.707l-1.146 1.147a.5.5 0 1 1-.708-.708l2-2a.5.5 0 0 1 .708 0l2 2a.5.5 0 1 1-.708.708L27 19.707V23.5a.5.5 0 0 1-1 0v-3.793z" fill="#32C0BD" fill-rule="nonzero"/><path d="M5 12.293V8.5a.5.5 0 0 1 1 0v3.793l1.146-1.147a.5.5 0 1 1 .708.708l-2 2a.5.5 0 0 1-.708 0l-2-2a.5.5 0 1 1 .708-.708L5 12.293z" fill="#E94A6B" fill-rule="nonzero"/></g></svg>