<svg width="32" height="32" xmlns="http://www.w3.org/2000/svg"><g fill="none" fill-rule="evenodd"><path d="M2 9h3v1H2V9zm5 0h3v1H7V9zm5 0h3v1h-3V9zm5 0h3v1h-3V9zm5 0h3v1h-3V9zm5 0h3v1h-3V9zM2 22h3v1H2v-1zm5 0h3v1H7v-1zm5 0h3v1h-3v-1zm5 0h3v1h-3v-1zm5 0h3v1h-3v-1zm5 0h3v1h-3v-1z" fill-opacity=".109" fill="#64809C"/><path d="M25.074 2.945L22.875 8h-1.191l2.203-4.773h-2.828v-.914h4.015v.632zm.89 2.258l.329-2.89h3.187v.94h-2.26l-.14 1.224a1.79 1.79 0 0 1 .855-.215c.541 0 .966.168 1.273.504.307.336.461.806.461 1.41 0 .367-.078.696-.232.986a1.64 1.64 0 0 1-.666.676c-.29.16-.63.24-1.024.24a2.21 2.21 0 0 1-.957-.209 1.698 1.698 0 0 1-.697-.588 1.602 1.602 0 0 1-.272-.863h1.117c.024.237.107.421.249.553a.786.786 0 0 0 .556.197c.255 0 .452-.092.59-.275.138-.184.207-.444.207-.78 0-.323-.08-.57-.238-.742-.16-.172-.384-.258-.676-.258-.268 0-.486.07-.652.211l-.11.102-.898-.223z" fill="#465463"/><path d="M25.145 13.144a1.5 1.5 0 1 1 .705.709l-2.996 3a1.5 1.5 0 1 1-2.786.198l-1.736-1.302a1.493 1.493 0 0 1-1.479.105l-2 2a1.5 1.5 0 1 1-2.786.198l-1.735-1.303a1.493 1.493 0 0 1-1.479.105l-2 2a1.5 1.5 0 1 1-.707-.707l2-2a1.5 1.5 0 1 1 2.786-.198l1.736 1.302a1.493 1.493 0 0 1 1.479-.105l2-2a1.5 1.5 0 1 1 2.786-.198l1.735 1.303a1.493 1.493 0 0 1 1.479-.105l2.998-3.002zM5.5 20.25a.75.75 0 1 0 0-1.5.75.75 0 0 0 0 1.5zm4-4a.75.75 0 1 0 0-1.5.75.75 0 0 0 0 1.5zm4 3a.75.75 0 1 0 0-1.5.75.75 0 0 0 0 1.5zm4-4a.75.75 0 1 0 0-1.5.75.75 0 0 0 0 1.5zm4 3a.75.75 0 1 0 0-1.5.75.75 0 0 0 0 1.5zm5-5a.75.75 0 1 0 0-1.5.75.75 0 0 0 0 1.5z" fill="#64809C" fill-rule="nonzero"/><path d="M26 19.707l-1.146 1.147a.5.5 0 1 1-.708-.708l2-2a.5.5 0 0 1 .708 0l2 2a.5.5 0 1 1-.708.708L27 19.707V23.5a.5.5 0 0 1-1 0v-3.793z" fill="#32C0BD" fill-rule="nonzero"/><path d="M5 12.293V8.5a.5.5 0 0 1 1 0v3.793l1.146-1.147a.5.5 0 1 1 .708.708l-2 2a.5.5 0 0 1-.708 0l-2-2a.5.5 0 1 1 .708-.708L5 12.293z" fill="#E94A6B" fill-rule="nonzero"/></g></svg>