<svg width="32" height="32" xmlns="http://www.w3.org/2000/svg" fill="none"><path fill="#D2D3DA" d="M17.514 4.857 21.8 12H27a1 1 0 1 1 0 2H5a1 1 0 1 1 0-2h5.2l4.285-7.143a1.766 1.766 0 0 1 3.03 0h-.001zM13.186 12l2.729-4.605a.1.1 0 0 1 .172 0L18.815 12h-5.63.001zm12.534 4a1 1 0 0 1 .97 1.242l-2.5 10a1 1 0 0 1-.97.758H8.78a1 1 0 0 1-.97-.758l-2.5-10A1 1 0 0 1 6.28 16h19.44zM10 20a1 1 0 1 1 2 0v4a1 1 0 1 1-2 0v-4zm6-1a1 1 0 0 0-1 1v4a1 1 0 1 0 2 0v-4a1 1 0 0 0-1-1zm4 1a1 1 0 1 1 2 0v4a1 1 0 1 1-2 0v-4z" clip-rule="evenodd" fill-rule="evenodd"/><g stroke="null"><g fill-rule="evenodd"><g fill-rule="nonzero"><path fill="#0D47A1" d="M30.997.065H18.44c-.611 0-1.107.512-1.107 1.144v7.715c0 .632.496 1.143 1.107 1.143h12.556c.611 0 1.107-.511 1.107-1.143V1.21c0-.632-.496-1.144-1.106-1.144z"/><path fill="#FFEB3B" d="m24.822 1.21.102.317.322.002c.042 0 .06.056.026.082l-.26.198.098.318c.012.04-.033.075-.067.05l-.263-.194-.262.194c-.034.025-.08-.01-.067-.05l.097-.318-.26-.198c-.033-.026-.016-.081.026-.082l.323-.002.102-.317a.043.043 0 0 1 .083 0zm0 6.795.102.316.322.003c.042 0 .06.055.026.08l-.26.2.098.317c.012.041-.033.075-.067.05l-.263-.194-.262.194c-.034.025-.08-.009-.067-.05l.097-.318-.26-.198c-.033-.026-.016-.08.026-.081l.323-.003.102-.316a.043.043 0 0 1 .083 0zm3.286-3.397.102.316.323.003c.042 0 .059.055.025.08l-.26.199.098.318c.013.041-.033.075-.067.05l-.262-.194-.263.194c-.034.025-.08-.009-.066-.05l.097-.318-.26-.198c-.033-.026-.016-.081.026-.081l.322-.003.103-.316c.013-.041.069-.041.082 0zm-6.573 0 .102.316.323.003c.042 0 .059.055.025.08l-.26.199.098.318c.013.041-.033.075-.067.05l-.262-.194-.263.194c-.034.025-.079-.009-.066-.05l.097-.318-.26-.198c-.033-.026-.016-.081.026-.081l.322-.003.103-.316c.013-.041.069-.041.082 0zm.493-1.774.103.316.322.003c.042 0 .06.055.026.08l-.26.199.098.318c.012.041-.033.075-.067.05l-.263-.194-.262.194c-.034.025-.08-.009-.067-.05l.097-.318-.26-.198c-.033-.026-.016-.081.026-.081l.323-.003.102-.316a.043.043 0 0 1 .082 0zm5.693 3.397.102.316.323.003c.041 0 .059.055.025.08l-.26.199.098.318c.012.041-.033.075-.067.05l-.262-.194-.263.194c-.034.025-.08-.009-.067-.05l.098-.318-.26-.198c-.034-.026-.016-.08.025-.081l.323-.003.102-.316c.013-.041.07-.041.083 0zm-1.203-4.64.102.316.323.002c.041 0 .059.056.025.081l-.26.198.098.318c.012.042-.033.076-.067.05l-.262-.193-.263.194c-.034.025-.08-.01-.067-.05l.098-.319-.26-.198c-.034-.025-.016-.08.026-.08l.322-.003.102-.317c.014-.04.07-.04.083 0zM23.23 7.473l.102.317.323.002c.042 0 .06.056.026.081l-.26.198.097.319c.013.04-.032.075-.066.05l-.263-.194-.262.194c-.034.025-.08-.01-.067-.05l.097-.319-.26-.198c-.033-.025-.016-.08.026-.08l.323-.003.102-.317a.043.043 0 0 1 .082 0zm4.407-4.64a.043.043 0 0 1 .083 0l.102.316.323.003c.041 0 .059.055.025.08l-.26.199.098.318c.012.041-.033.075-.067.05l-.262-.194-.263.194c-.034.025-.08-.009-.067-.05l.098-.318-.26-.198c-.034-.026-.016-.081.025-.081l.323-.003.102-.316zM21.946 6.23c.013-.041.07-.041.082 0l.103.316.322.003c.042 0 .06.055.026.08l-.26.199.098.318c.012.041-.033.075-.067.05l-.263-.194-.262.194c-.034.025-.08-.009-.067-.05l.097-.318-.26-.198c-.033-.026-.016-.08.026-.081l.323-.003.102-.316zm1.203-4.64c.013-.042.07-.042.082 0l.102.316.323.002c.042 0 .06.056.026.081l-.26.198.097.318c.013.042-.032.076-.066.05l-.263-.193-.262.194c-.034.025-.08-.01-.067-.05l.097-.319-.26-.198c-.033-.025-.016-.08.026-.08l.323-.003.102-.317zm3.286 5.883a.043.043 0 0 1 .083 0l.102.317.323.002c.041 0 .059.056.025.081l-.26.198.098.319c.012.04-.033.075-.067.05l-.262-.194-.263.194c-.034.025-.08-.01-.067-.05l.098-.319-.26-.198c-.034-.025-.016-.08.026-.08l.322-.003.102-.317z"/></g><rect stroke="#000" rx="2" height="9.393" width="14.154" y=".37" x="17.641" stroke-opacity=".04"/></g></g></svg>