<svg width="216" height="128" fill="none" xmlns="http://www.w3.org/2000/svg"><path d="M65.27 128H0L22.73 0H88L65.27 128Z" fill="url(#a)"/><path d="M68.918 7.294C69.549 3.713 72.96.813 76.54.813h132.861c3.581 0 5.971 2.9 5.339 6.48l-20.002 113.418c-.632 3.581-4.043 6.481-7.624 6.481H54.262c-3.58 0-5.97-2.9-5.338-6.481L68.918 7.294Z" fill="#fff"/><path d="M68.553 13.977h145.159l-.073.396H68.48l.073-.396ZM64.122 39.086h145.167l-.073.397H64.049l.073-.397ZM59.698 64.203h145.159l-.073.397H59.625l.073-.397ZM55.266 89.32h145.159l-.065.397H55.193l.073-.397ZM50.834 114.43h145.167l-.073.397H50.769l.065-.397Z" fill="#F2F3F4"/><path d="M87.655 3.242h.405L68.423 114.635h-.405L87.655 3.242Z" fill="#F2F3F4"/><path d="M63.676 121.971c-.332 0-.559-.13-.664-.381-.106-.251-.122-.608-.04-1.07.08-.461.218-.81.412-1.069a.984.984 0 0 1 .802-.381c.332 0 .56.13.665.381.113.251.121.608.04 1.069-.08.462-.219.811-.421 1.07a.958.958 0 0 1-.794.381Zm.049-.292c.113 0 .21-.024.291-.065a.556.556 0 0 0 .219-.194c.065-.081.113-.179.154-.292.04-.113.08-.235.105-.373l.081-.453c.025-.138.033-.26.033-.373a.788.788 0 0 0-.049-.292.46.46 0 0 0-.154-.194.466.466 0 0 0-.267-.065.664.664 0 0 0-.292.065.564.564 0 0 0-.219.194 1.255 1.255 0 0 0-.162.292c-.04.113-.073.235-.097.373l-.08.453c-.025.138-.033.26-.033.373 0 .113.024.211.056.292a.401.401 0 0 0 .154.194.466.466 0 0 0 .268.065h-.008Zm1.733.292c-.089 0-.146-.025-.178-.065-.032-.041-.04-.097-.024-.17v-.049a.393.393 0 0 1 .097-.17.3.3 0 0 1 .203-.065c.089 0 .145.024.17.065.032.04.04.097.032.17v.049a.393.393 0 0 1-.097.17.298.298 0 0 1-.195.065h-.008Zm.292-1.645c-.09 0-.146-.024-.178-.065-.033-.04-.04-.097-.025-.17v-.057a.393.393 0 0 1 .098-.17.306.306 0 0 1 .202-.065c.09 0 .146.025.17.065.033.041.04.097.033.17v.057a.438.438 0 0 1-.098.17.293.293 0 0 1-.194.065h-.008Zm1.499 1.645c-.332 0-.56-.13-.665-.381-.105-.251-.121-.608-.04-1.07.08-.461.219-.81.413-1.069a.984.984 0 0 1 .802-.381c.332 0 .559.13.664.381.114.251.122.608.04 1.069-.08.462-.218.811-.42 1.07a.958.958 0 0 1-.794.381Zm.048-.292a.64.64 0 0 0 .292-.065.556.556 0 0 0 .219-.194c.064-.081.113-.179.154-.292.04-.113.08-.235.105-.373l.08-.453c.025-.138.033-.26.033-.373a.788.788 0 0 0-.048-.292.406.406 0 0 0-.154-.194.466.466 0 0 0-.268-.065.664.664 0 0 0-.291.065.564.564 0 0 0-.219.194 1.255 1.255 0 0 0-.162.292c-.04.113-.073.235-.097.373l-.081.453c-.025.138-.033.26-.033.373 0 .113.025.211.057.292a.401.401 0 0 0 .154.194.465.465 0 0 0 .267.065h-.008Zm2.35.292c-.333 0-.56-.13-.665-.381-.105-.251-.121-.608-.04-1.07.08-.461.219-.81.413-1.069a.984.984 0 0 1 .802-.381c.332 0 .559.13.664.381.114.251.122.608.04 1.069-.08.462-.218.811-.42 1.07a.958.958 0 0 1-.794.381Zm.048-.292a.64.64 0 0 0 .292-.065.556.556 0 0 0 .219-.194c.064-.081.113-.179.153-.292.041-.113.082-.235.106-.373l.08-.453c.025-.138.033-.26.033-.373a.788.788 0 0 0-.048-.292.46.46 0 0 0-.154-.194.465.465 0 0 0-.268-.065.665.665 0 0 0-.291.065.564.564 0 0 0-.219.194 1.255 1.255 0 0 0-.162.292c-.04.113-.073.235-.097.373l-.081.453c-.024.138-.033.26-.033.373 0 .113.025.211.057.292a.401.401 0 0 0 .154.194.465.465 0 0 0 .267.065h-.008Z" fill="#333"/><path d="M109.528 3.242h.405L90.296 114.635h-.405L109.528 3.242Z" fill="#F2F3F4"/><path d="m84.707 121.922.049-.3h.785l.397-2.252h-.024l-.818.656-.162-.21.867-.697h.526l-.437 2.503h.72l-.048.3h-1.855Zm2.633.049c-.09 0-.146-.025-.178-.065-.033-.041-.04-.097-.025-.17v-.049a.393.393 0 0 1 .098-.17.3.3 0 0 1 .202-.065c.09 0 .146.024.17.065.033.04.04.097.033.17v.049a.393.393 0 0 1-.097.17.298.298 0 0 1-.195.065h-.008Zm.292-1.645c-.09 0-.146-.024-.179-.065-.032-.04-.04-.097-.024-.17v-.057a.393.393 0 0 1 .097-.17.306.306 0 0 1 .203-.065c.089 0 .146.025.17.065.032.041.04.097.032.17v.057a.438.438 0 0 1-.097.17.293.293 0 0 1-.194.065h-.008Zm1.498 1.645c-.332 0-.559-.13-.664-.381-.105-.251-.121-.608-.04-1.07.08-.461.218-.81.413-1.069a.984.984 0 0 1 .802-.381c.332 0 .559.13.664.381.113.251.121.608.04 1.069-.08.462-.218.811-.42 1.07a.958.958 0 0 1-.795.381Zm.049-.292a.64.64 0 0 0 .292-.065.556.556 0 0 0 .218-.194c.065-.081.114-.179.154-.292.04-.113.081-.235.106-.373l.08-.453c.025-.138.033-.26.033-.373a.788.788 0 0 0-.049-.292.406.406 0 0 0-.154-.194.466.466 0 0 0-.267-.065.664.664 0 0 0-.291.065.563.563 0 0 0-.22.194 1.255 1.255 0 0 0-.161.292c-.04.113-.073.235-.097.373l-.081.453c-.025.138-.033.26-.033.373 0 .113.024.211.057.292a.401.401 0 0 0 .154.194.465.465 0 0 0 .267.065h-.008Zm2.35.292c-.333 0-.56-.13-.665-.381-.105-.251-.121-.608-.04-1.07.08-.461.218-.81.413-1.069a.984.984 0 0 1 .802-.381c.332 0 .559.13.664.381.113.251.121.608.04 1.069-.08.462-.218.811-.42 1.07a.958.958 0 0 1-.795.381Zm.048-.292a.64.64 0 0 0 .292-.065.556.556 0 0 0 .218-.194c.065-.081.114-.179.154-.292.04-.113.081-.235.106-.373l.08-.453c.025-.138.033-.26.033-.373a.788.788 0 0 0-.049-.292.46.46 0 0 0-.154-.194.465.465 0 0 0-.267-.065.665.665 0 0 0-.292.065.564.564 0 0 0-.218.194 1.255 1.255 0 0 0-.162.292c-.04.113-.073.235-.097.373l-.082.453c-.024.138-.032.26-.032.373 0 .113.024.211.057.292a.401.401 0 0 0 .154.194.465.465 0 0 0 .267.065h-.008Z" fill="#333"/><path d="M131.403 3.242h.405l-19.637 111.393h-.405L131.403 3.242Z" fill="#F2F3F4"/><path d="M108.362 121.922h-1.839l.065-.348 1.062-.843c.153-.121.283-.251.396-.381a.894.894 0 0 0 .203-.405v-.048c.032-.154.016-.284-.057-.373-.065-.097-.186-.146-.364-.146a.7.7 0 0 0-.235.033.791.791 0 0 0-.187.097c-.056.04-.097.097-.145.154-.041.056-.073.121-.106.186l-.283-.113c.04-.081.089-.162.154-.243a1.05 1.05 0 0 1 .21-.211.87.87 0 0 1 .284-.146c.105-.04.227-.057.364-.057a.98.98 0 0 1 .357.057.666.666 0 0 1 .243.17.687.687 0 0 1 .121.259.747.747 0 0 1 0 .333c-.016.105-.056.21-.105.307a1.435 1.435 0 0 1-.17.268 1.74 1.74 0 0 1-.243.243 7.958 7.958 0 0 1-.284.243l-.874.68h1.474l-.049.3.008-.016Zm.843.049c-.089 0-.146-.025-.178-.065-.033-.041-.041-.097-.025-.17v-.049a.397.397 0 0 1 .098-.17.298.298 0 0 1 .202-.065c.089 0 .146.024.17.065.033.04.041.097.033.17v.049a.397.397 0 0 1-.098.17.296.296 0 0 1-.194.065h-.008Zm.292-1.645c-.09 0-.146-.024-.179-.065-.032-.04-.04-.097-.024-.17v-.057a.396.396 0 0 1 .097-.17.308.308 0 0 1 .203-.065c.089 0 .146.025.17.065.032.041.04.097.032.17v.057a.43.43 0 0 1-.097.17.29.29 0 0 1-.194.065h-.008Zm1.498 1.645c-.332 0-.559-.13-.664-.381-.105-.251-.121-.608-.04-1.07.081-.461.218-.81.413-1.069a.983.983 0 0 1 .802-.381c.332 0 .559.13.664.381.113.251.122.608.041 1.069-.081.462-.219.811-.422 1.07a.957.957 0 0 1-.794.381Zm.049-.292a.642.642 0 0 0 .292-.065.55.55 0 0 0 .218-.194.986.986 0 0 0 .154-.292c.041-.113.081-.235.106-.373l.081-.453c.024-.138.032-.26.032-.373a.776.776 0 0 0-.049-.292.403.403 0 0 0-.154-.194.463.463 0 0 0-.267-.065.667.667 0 0 0-.292.065.558.558 0 0 0-.218.194 1.226 1.226 0 0 0-.162.292 2.272 2.272 0 0 0-.098.373l-.081.453c-.024.138-.032.26-.032.373a.77.77 0 0 0 .057.292.398.398 0 0 0 .154.194.465.465 0 0 0 .267.065h-.008Zm2.349.292c-.332 0-.559-.13-.664-.381-.105-.251-.121-.608-.04-1.07.081-.461.218-.81.413-1.069a.983.983 0 0 1 .802-.381c.332 0 .559.13.664.381.113.251.122.608.041 1.069-.081.462-.219.811-.422 1.07a.957.957 0 0 1-.794.381Zm.049-.292a.642.642 0 0 0 .292-.065.55.55 0 0 0 .218-.194.986.986 0 0 0 .154-.292c.041-.113.081-.235.106-.373l.081-.453c.024-.138.032-.26.032-.373a.776.776 0 0 0-.049-.292.456.456 0 0 0-.154-.194.463.463 0 0 0-.267-.065.667.667 0 0 0-.292.065.558.558 0 0 0-.218.194 1.226 1.226 0 0 0-.162.292 2.272 2.272 0 0 0-.098.373l-.081.453c-.024.138-.032.26-.032.373a.77.77 0 0 0 .057.292.398.398 0 0 0 .154.194.465.465 0 0 0 .267.065h-.008Z" fill="#333"/><path d="M153.276 3.242h.405l-19.637 111.393h-.405L153.276 3.242Z" fill="#F2F3F4"/><path d="M129.434 120.31c.186 0 .34-.041.445-.13a.532.532 0 0 0 .203-.332v-.032c.032-.146 0-.26-.081-.333a.497.497 0 0 0-.34-.113.689.689 0 0 0-.373.097.886.886 0 0 0-.267.251l-.219-.194c.049-.057.097-.113.154-.162a1.176 1.176 0 0 1 .454-.251c.089-.024.194-.041.307-.041.114 0 .227.017.324.049a.58.58 0 0 1 .243.138.434.434 0 0 1 .138.218.596.596 0 0 1 .016.3.776.776 0 0 1-.089.243.652.652 0 0 1-.146.186.801.801 0 0 1-.194.138.743.743 0 0 1-.227.081v.016a.66.66 0 0 1 .203.081.452.452 0 0 1 .162.138c.048.057.081.13.097.211a.532.532 0 0 1 0 .275.905.905 0 0 1-.13.332 1.166 1.166 0 0 1-.235.26 1.06 1.06 0 0 1-.332.162c-.121.04-.259.056-.397.056-.121 0-.227-.016-.316-.04a.85.85 0 0 1-.227-.105.628.628 0 0 1-.162-.154c-.04-.057-.081-.114-.113-.179l.284-.194c.024.057.056.105.081.154a.397.397 0 0 0 .121.113.418.418 0 0 0 .162.073.916.916 0 0 0 .219.025c.194 0 .356-.041.47-.13a.556.556 0 0 0 .218-.381v-.032c.033-.17 0-.292-.081-.381-.089-.089-.226-.138-.421-.138h-.332l.049-.291h.308l.024.016Zm1.652 1.661c-.089 0-.145-.025-.178-.065-.032-.041-.04-.097-.024-.17v-.049a.396.396 0 0 1 .097-.17.303.303 0 0 1 .203-.065c.089 0 .146.024.17.065.032.04.04.097.032.17v.049a.386.386 0 0 1-.097.17.298.298 0 0 1-.194.065h-.009Zm.292-1.645c-.089 0-.146-.024-.178-.065-.033-.04-.041-.097-.024-.17v-.057a.386.386 0 0 1 .097-.17.303.303 0 0 1 .202-.065c.089 0 .146.025.17.065.033.041.041.097.033.17v.057a.442.442 0 0 1-.097.17.295.295 0 0 1-.195.065h-.008Zm1.499 1.645c-.332 0-.559-.13-.664-.381-.106-.251-.122-.608-.041-1.07.081-.461.219-.81.413-1.069a.984.984 0 0 1 .802-.381c.332 0 .559.13.665.381.113.251.121.608.04 1.069-.081.462-.219.811-.421 1.07a.959.959 0 0 1-.794.381Zm.048-.292a.664.664 0 0 0 .292-.065.62.62 0 0 0 .219-.194 1.01 1.01 0 0 0 .154-.292c.04-.113.081-.235.105-.373l.081-.453c.024-.138.033-.26.033-.373a.656.656 0 0 0-.057-.292.463.463 0 0 0-.154-.194.465.465 0 0 0-.267-.065.664.664 0 0 0-.292.065.63.63 0 0 0-.219.194 1.262 1.262 0 0 0-.162.292c-.04.113-.073.235-.097.373l-.081.453c-.024.138-.033.26-.033.373a.79.79 0 0 0 .057.292.404.404 0 0 0 .154.194.465.465 0 0 0 .267.065Zm2.35.292c-.332 0-.559-.13-.664-.381-.106-.251-.122-.608-.041-1.07.081-.461.219-.81.413-1.069a.984.984 0 0 1 .802-.381c.332 0 .559.13.665.381.113.251.129.608.048 1.069-.081.462-.219.811-.421 1.07a.959.959 0 0 1-.794.381h-.008Zm.048-.292a.639.639 0 0 0 .292-.065.552.552 0 0 0 .219-.194 1.01 1.01 0 0 0 .154-.292c.04-.113.081-.235.105-.373l.081-.453c.024-.138.032-.26.032-.373a.797.797 0 0 0-.048-.292.463.463 0 0 0-.154-.194.45.45 0 0 0-.267-.065.69.69 0 0 0-.292.065.567.567 0 0 0-.219.194 1.262 1.262 0 0 0-.162.292c-.04.113-.073.235-.097.373l-.081.453c-.024.138-.032.26-.032.373a.79.79 0 0 0 .056.292.404.404 0 0 0 .154.194.467.467 0 0 0 .268.065h-.009Z" fill="#333"/><path d="M175.149 3.242h.405l-19.637 111.393h-.405L175.149 3.242Z" fill="#F2F3F4"/><path d="m151.476 121.922.098-.551h-1.353l.048-.3 1.515-1.952h.503l-.349 1.969h.405l-.048.283h-.405l-.098.551h-.324.008Zm-.891-.826h1.037l.3-1.71h-.016l-1.313 1.71h-.008Zm2.366.875c-.081 0-.146-.025-.178-.065-.033-.041-.041-.097-.025-.17v-.049a.397.397 0 0 1 .098-.17.298.298 0 0 1 .202-.065c.089 0 .146.024.17.065.033.04.041.097.033.17v.049a.397.397 0 0 1-.098.17.296.296 0 0 1-.194.065h-.008Zm.291-1.645c-.081 0-.145-.024-.178-.065-.032-.04-.04-.097-.024-.17v-.057a.396.396 0 0 1 .097-.17.308.308 0 0 1 .203-.065c.089 0 .146.025.17.065.032.041.04.097.032.17v.057a.43.43 0 0 1-.097.17.293.293 0 0 1-.194.065h-.009Zm1.499 1.645c-.332 0-.559-.13-.664-.381-.105-.251-.122-.608-.041-1.07.081-.461.219-.81.414-1.069a.982.982 0 0 1 .802-.381c.332 0 .559.13.664.381.113.251.121.608.04 1.069-.081.462-.218.811-.421 1.07a.957.957 0 0 1-.794.381Zm.049-.292c.105 0 .21-.024.291-.065a.612.612 0 0 0 .219-.194.986.986 0 0 0 .154-.292c.041-.113.081-.235.105-.373l.081-.453c.025-.138.033-.26.033-.373a.643.643 0 0 0-.057-.292.456.456 0 0 0-.154-.194.465.465 0 0 0-.267-.065.667.667 0 0 0-.292.065.619.619 0 0 0-.218.194 1.264 1.264 0 0 0-.163.292 2.38 2.38 0 0 0-.097.373l-.081.453c-.024.138-.032.26-.032.373a.77.77 0 0 0 .057.292.402.402 0 0 0 .153.194.469.469 0 0 0 .268.065Zm2.349.292c-.332 0-.559-.13-.664-.381-.105-.251-.122-.608-.041-1.07.081-.461.219-.81.414-1.069a.982.982 0 0 1 .802-.381c.332 0 .559.13.664.381.113.251.13.608.049 1.069-.082.462-.219.811-.422 1.07a.957.957 0 0 1-.794.381h-.008Zm.049-.292c.113 0 .21-.024.291-.065a.553.553 0 0 0 .219-.194.986.986 0 0 0 .154-.292c.041-.113.081-.235.105-.373l.081-.453c.025-.138.033-.26.033-.373a.776.776 0 0 0-.049-.292.456.456 0 0 0-.154-.194.465.465 0 0 0-.267-.065.694.694 0 0 0-.292.065.558.558 0 0 0-.218.194 1.226 1.226 0 0 0-.162.292 2.272 2.272 0 0 0-.098.373l-.081.453c-.024.138-.032.26-.032.373a.77.77 0 0 0 .057.292.398.398 0 0 0 .154.194.463.463 0 0 0 .267.065h-.008Z" fill="#333"/><path d="M197.022 3.242h.405L177.79 114.635h-.405L197.022 3.242Z" fill="#F2F3F4"/><path d="M174.284 119.419h-1.224l-.267 1.069h.032c.081-.097.171-.17.268-.227a.71.71 0 0 1 .364-.081c.122 0 .227.016.324.057a.61.61 0 0 1 .235.17.507.507 0 0 1 .122.267.93.93 0 0 1 0 .365 1.071 1.071 0 0 1-1.11.915c-.122 0-.219-.016-.308-.04a.925.925 0 0 1-.219-.105.593.593 0 0 1-.154-.154 1.425 1.425 0 0 1-.105-.179l.284-.194a.865.865 0 0 0 .081.154.476.476 0 0 0 .105.113.38.38 0 0 0 .154.073c.057.016.13.025.219.025.194 0 .348-.049.461-.154a.733.733 0 0 0 .227-.43v-.04c.041-.187.017-.324-.064-.43-.081-.097-.219-.154-.414-.154a.616.616 0 0 0-.316.073 1.482 1.482 0 0 0-.226.162l-.276-.04.373-1.539h1.499l-.049.299-.016.025Zm.543 2.552c-.082 0-.146-.025-.179-.065-.032-.041-.04-.097-.024-.17v-.049a.396.396 0 0 1 .097-.17.303.303 0 0 1 .203-.065c.089 0 .146.024.17.065.032.04.04.097.032.17v.049a.386.386 0 0 1-.097.17.298.298 0 0 1-.194.065h-.008Zm.291-1.645c-.081 0-.146-.024-.178-.065-.032-.04-.041-.097-.024-.17v-.057a.386.386 0 0 1 .097-.17.303.303 0 0 1 .202-.065c.089 0 .146.025.17.065.033.041.041.097.033.17v.057a.442.442 0 0 1-.097.17.295.295 0 0 1-.195.065h-.008Zm1.499 1.645c-.332 0-.559-.13-.664-.381-.106-.251-.122-.608-.041-1.07.081-.461.219-.81.413-1.069a.984.984 0 0 1 .802-.381c.332 0 .559.13.665.381.113.251.121.608.04 1.069-.081.462-.219.811-.421 1.07a.959.959 0 0 1-.794.381Zm.048-.292a.664.664 0 0 0 .292-.065.62.62 0 0 0 .219-.194 1.01 1.01 0 0 0 .154-.292c.04-.113.081-.235.105-.373l.081-.453c.024-.138.033-.26.033-.373a.656.656 0 0 0-.057-.292.463.463 0 0 0-.154-.194.465.465 0 0 0-.267-.065.664.664 0 0 0-.292.065.63.63 0 0 0-.219.194 1.262 1.262 0 0 0-.162.292c-.04.113-.073.235-.097.373l-.081.453c-.024.138-.032.26-.032.373a.79.79 0 0 0 .056.292.404.404 0 0 0 .154.194.465.465 0 0 0 .267.065Zm2.35.292c-.332 0-.559-.13-.664-.381-.106-.251-.122-.608-.041-1.07.081-.461.219-.81.413-1.069a.984.984 0 0 1 .802-.381c.332 0 .559.13.665.381.113.251.129.608.048 1.069-.081.462-.219.811-.421 1.07a.959.959 0 0 1-.794.381h-.008Zm.048-.292a.639.639 0 0 0 .292-.065.56.56 0 0 0 .219-.194 1.01 1.01 0 0 0 .154-.292c.04-.113.081-.235.105-.373l.081-.453c.024-.138.033-.26.033-.373a.796.796 0 0 0-.049-.292.463.463 0 0 0-.154-.194.465.465 0 0 0-.267-.065.69.69 0 0 0-.292.065.567.567 0 0 0-.219.194 1.262 1.262 0 0 0-.162.292c-.04.113-.073.235-.097.373l-.081.453c-.024.138-.032.26-.032.373a.79.79 0 0 0 .056.292.404.404 0 0 0 .154.194.467.467 0 0 0 .268.065h-.009Z" fill="#333"/><mask id="b" style="mask-type:luminance" maskUnits="userSpaceOnUse" x="49" y="13" width="103" height="103"><path d="M67.775 13.773h83.849L133.768 115.04H49.92L67.775 13.773Z" fill="#fff"/></mask><g mask="url(#b)"><path d="m197.784 64.4-29.805 24.303-20.852-49.417-30.728 50.228H94.525L77.083 64.4H59.665l-8.855 50.228h214.28l17.709-100.456-28.905 7.696-19.111 14.177L197.784 64.4Z" fill="#4BB4B3" opacity=".08"/><path d="m166.514 89.829-.081-.219-19.362-49.88-30.582 49.985H94.396l-.048-.073-17.394-25.04H59.221l.073-.406h17.912l.048.073L94.648 89.31h21.654l30.883-50.47 19.548 50.357 31.352-24.944 32.373-25.114 23.412-17.466 28.906-7.696.04.388-28.856 7.68-23.284 17.394-32.38 25.106-31.782 25.284Z" fill="#85ACB0"/><path d="M77.455 65.268c.446-.408.53-1.04.189-1.414-.342-.373-.98-.344-1.425.064-.446.408-.53 1.04-.189 1.413.342.373.98.345 1.425-.063ZM95.123 89.971c.446-.408.53-1.04.188-1.414-.34-.373-.979-.344-1.424.064-.446.408-.53 1.04-.189 1.413.342.373.98.345 1.425-.063ZM117 89.979c.446-.408.53-1.041.188-1.414-.341-.373-.979-.344-1.424.064-.446.407-.53 1.04-.189 1.413.342.373.98.345 1.425-.063Z" fill="#85ACB0"/></g><path d="M197.25.813h12.354c3.581 0 5.971 2.9 5.339 6.48l-20.002 113.418c-.632 3.581-4.043 6.481-7.624 6.481h-12.354L197.25.812Z" fill="#fff"/><path d="m202.873 15.39.097-.55h-1.353l.049-.3 1.515-1.952h.502l-.348 1.968h.405l-.049.284h-.405l-.097.55h-.324.008Zm-.891-.826h1.037l.299-1.709h-.016l-1.312 1.71h-.008Zm2.325.875c-.089 0-.146-.024-.178-.065-.033-.04-.041-.097-.025-.17v-.048c.025-.073.049-.13.098-.17a.3.3 0 0 1 .202-.065c.089 0 .146.024.17.065.033.04.041.097.033.17v.048c-.025.073-.049.13-.098.17a.293.293 0 0 1-.194.065h-.008Zm1.75 0c-.332 0-.559-.13-.665-.38-.105-.252-.121-.608-.04-1.07.081-.462.219-.81.413-1.07a.984.984 0 0 1 .802-.38c.332 0 .559.13.664.38.114.252.122.608.041 1.07-.081.462-.219.81-.421 1.07a.958.958 0 0 1-.794.38Zm.048-.291a.645.645 0 0 0 .292-.065.637.637 0 0 0 .219-.195c.064-.08.113-.178.154-.291.04-.114.081-.235.105-.373l.081-.454c.024-.137.032-.259.032-.372a.794.794 0 0 0-.048-.292.462.462 0 0 0-.154-.194.47.47 0 0 0-.268-.065.697.697 0 0 0-.291.065.636.636 0 0 0-.219.194 1.25 1.25 0 0 0-.162.292c-.04.113-.073.235-.097.373l-.081.453c-.024.138-.033.26-.033.373 0 .113.025.21.057.291a.408.408 0 0 0 .154.195.468.468 0 0 0 .267.065h-.008Zm2.358.291c-.332 0-.559-.13-.665-.38-.105-.252-.121-.608-.04-1.07.081-.462.219-.81.413-1.07a.984.984 0 0 1 .802-.38c.332 0 .559.13.664.38.114.252.122.608.041 1.07-.081.462-.219.81-.421 1.07a.958.958 0 0 1-.794.38Zm.048-.291a.645.645 0 0 0 .292-.065.637.637 0 0 0 .219-.195c.065-.08.113-.178.154-.291.04-.114.081-.235.105-.373l.081-.454c.024-.137.032-.259.032-.372a.654.654 0 0 0-.056-.292.462.462 0 0 0-.154-.194.47.47 0 0 0-.268-.065.67.67 0 0 0-.291.065.636.636 0 0 0-.219.194 1.25 1.25 0 0 0-.162.292c-.04.113-.073.235-.097.373l-.081.453c-.024.138-.033.26-.033.373 0 .113.025.21.057.291a.408.408 0 0 0 .154.195.468.468 0 0 0 .267.065ZM198.27 38.888c.186 0 .34-.04.445-.13a.531.531 0 0 0 .203-.34v-.024c.032-.146 0-.26-.081-.332a.493.493 0 0 0-.34-.114.69.69 0 0 0-.373.097.87.87 0 0 0-.267.252l-.219-.195c.048-.057.097-.113.154-.162a1.164 1.164 0 0 1 .453-.251c.09-.024.195-.04.308-.04.122 0 .227.016.324.048a.586.586 0 0 1 .243.138c.065.056.114.13.138.218.033.09.033.187.016.3a.773.773 0 0 1-.089.243.823.823 0 0 1-.34.324.762.762 0 0 1-.227.081v.017c.073.016.138.04.203.08a.457.457 0 0 1 .162.138c.048.057.081.13.097.21a.534.534 0 0 1 0 .276.91.91 0 0 1-.13.332 1.203 1.203 0 0 1-.235.26 1.049 1.049 0 0 1-.332.162c-.121.04-.259.056-.397.056a1.2 1.2 0 0 1-.316-.04.845.845 0 0 1-.227-.105.77.77 0 0 1-.162-.154c-.04-.057-.081-.114-.113-.178l.284-.195c.024.057.056.105.081.154a.395.395 0 0 0 .121.113.496.496 0 0 0 .162.073.907.907 0 0 0 .219.025c.194 0 .356-.04.47-.13a.556.556 0 0 0 .218-.389v-.032c.033-.162 0-.292-.081-.381-.089-.09-.226-.138-.421-.138h-.332l.049-.291h.307l.025.024Zm1.612 1.66c-.089 0-.146-.024-.178-.064-.033-.04-.041-.097-.025-.17v-.049c.025-.073.049-.13.098-.17a.3.3 0 0 1 .202-.065c.089 0 .146.024.17.065.033.04.041.097.033.17v.049c-.025.073-.049.13-.098.17a.293.293 0 0 1-.194.065h-.008Zm1.75 0c-.332 0-.559-.129-.665-.38-.105-.251-.121-.608-.04-1.07.081-.461.219-.81.413-1.069a.984.984 0 0 1 .802-.38c.332 0 .559.13.664.38.114.251.122.608.041 1.07-.081.461-.219.81-.421 1.069a.958.958 0 0 1-.794.38Zm.048-.291a.645.645 0 0 0 .292-.065.637.637 0 0 0 .219-.194c.065-.081.113-.178.154-.292.04-.113.081-.235.105-.373l.081-.453c.024-.138.032-.26.032-.373a.794.794 0 0 0-.048-.291.462.462 0 0 0-.154-.195.468.468 0 0 0-.267-.065.698.698 0 0 0-.292.065.637.637 0 0 0-.219.194 1.252 1.252 0 0 0-.162.292c-.04.114-.073.235-.097.373l-.081.453c-.024.138-.032.26-.032.373 0 .114.024.21.056.292a.408.408 0 0 0 .154.194.468.468 0 0 0 .267.065h-.008Zm2.358.292c-.332 0-.559-.13-.664-.381-.106-.251-.122-.608-.041-1.07.081-.461.219-.81.413-1.069a.984.984 0 0 1 .802-.38c.332 0 .559.13.665.38.113.251.121.608.04 1.07-.081.461-.219.81-.421 1.069a.958.958 0 0 1-.794.38Zm.048-.292a.645.645 0 0 0 .292-.065.637.637 0 0 0 .219-.194c.065-.081.113-.178.154-.292.04-.113.081-.235.105-.373l.081-.453c.024-.138.033-.26.033-.373a.654.654 0 0 0-.057-.291.462.462 0 0 0-.154-.195.468.468 0 0 0-.267-.065.67.67 0 0 0-.292.065.637.637 0 0 0-.219.194 1.252 1.252 0 0 0-.162.292c-.04.114-.073.235-.097.373l-.081.453c-.024.138-.032.26-.032.373 0 .114.024.21.056.292a.408.408 0 0 0 .154.194.468.468 0 0 0 .267.065ZM194.65 65.617h-1.839l.064-.348 1.062-.843c.154-.121.283-.25.397-.38a.907.907 0 0 0 .202-.405v-.049c.033-.154.016-.284-.057-.38-.073-.098-.186-.147-.364-.147a.718.718 0 0 0-.235.033.796.796 0 0 0-.186.097c-.057.04-.098.097-.146.154-.041.057-.073.121-.106.186l-.283-.113c.04-.081.089-.162.154-.243a1.04 1.04 0 0 1 .21-.21.86.86 0 0 1 .284-.147c.105-.04.227-.056.365-.056.137 0 .251.016.356.056a.6.6 0 0 1 .243.17.647.647 0 0 1 .122.26.773.773 0 0 1 0 .332 1 1 0 0 1-.106.308 1.456 1.456 0 0 1-.17.267 1.735 1.735 0 0 1-.243.243c-.089.081-.186.162-.283.243l-.875.68h1.474l-.049.3.009-.008Zm.802.049c-.09 0-.146-.024-.179-.065-.032-.04-.04-.097-.024-.17v-.049a.352.352 0 0 1 .097-.17.305.305 0 0 1 .203-.065c.089 0 .146.025.17.065.032.04.04.097.032.17v.049c-.024.073-.048.13-.097.17a.295.295 0 0 1-.194.065h-.008Zm1.749 0c-.332 0-.559-.13-.664-.38-.105-.252-.121-.609-.04-1.07.081-.462.218-.81.413-1.07a.982.982 0 0 1 .802-.38c.332 0 .559.13.664.38.114.252.122.608.041 1.07-.081.462-.219.81-.422 1.07a.955.955 0 0 1-.794.38Zm.049-.292a.648.648 0 0 0 .292-.065.625.625 0 0 0 .218-.194.978.978 0 0 0 .154-.292 2.27 2.27 0 0 0 .106-.372l.081-.454c.024-.138.032-.26.032-.373a.773.773 0 0 0-.049-.291.46.46 0 0 0-.153-.195.47.47 0 0 0-.268-.064.697.697 0 0 0-.291.064.628.628 0 0 0-.219.195 1.214 1.214 0 0 0-.162.291 2.19 2.19 0 0 0-.097.373l-.081.454c-.025.137-.033.259-.033.372 0 .114.024.211.057.292a.402.402 0 0 0 .154.194.468.468 0 0 0 .267.065h-.008Zm2.358.292c-.333 0-.559-.13-.665-.38-.105-.252-.121-.609-.04-1.07.081-.462.218-.81.413-1.07a.982.982 0 0 1 .802-.38c.332 0 .559.13.664.38.114.252.122.608.041 1.07-.081.462-.219.81-.422 1.07a.955.955 0 0 1-.793.38Zm.048-.292a.645.645 0 0 0 .292-.065.637.637 0 0 0 .219-.194 1 1 0 0 0 .153-.292 2.27 2.27 0 0 0 .106-.372l.081-.454c.024-.138.032-.26.032-.373a.64.64 0 0 0-.057-.291.46.46 0 0 0-.153-.195.47.47 0 0 0-.268-.064.67.67 0 0 0-.291.064.628.628 0 0 0-.219.195 1.214 1.214 0 0 0-.162.291 2.19 2.19 0 0 0-.097.373l-.081.454c-.025.137-.033.259-.033.372 0 .114.024.211.057.292a.402.402 0 0 0 .154.194.468.468 0 0 0 .267.065ZM188.436 90.734l.048-.3h.778l.397-2.251h-.033l-.818.656-.162-.21.867-.698h.527l-.438 2.504h.721l-.048.3h-1.839Zm2.592.05c-.089 0-.146-.025-.178-.066-.033-.04-.041-.097-.025-.17V90.5a.396.396 0 0 1 .098-.17.3.3 0 0 1 .202-.064c.089 0 .146.024.17.064.033.04.041.098.033.17v.05a.406.406 0 0 1-.097.17.298.298 0 0 1-.195.064h-.008Zm1.75 0c-.332 0-.559-.13-.664-.382-.106-.25-.122-.607-.041-1.07.081-.46.219-.81.413-1.068a.984.984 0 0 1 .802-.381c.332 0 .559.13.665.38.113.252.121.608.04 1.07-.081.462-.219.81-.421 1.07a.958.958 0 0 1-.794.38Zm.048-.293a.645.645 0 0 0 .292-.064.637.637 0 0 0 .219-.195c.065-.08.113-.178.154-.291.04-.114.081-.235.105-.373l.081-.454c.024-.138.032-.259.032-.373a.794.794 0 0 0-.048-.291.462.462 0 0 0-.154-.195.468.468 0 0 0-.267-.064.698.698 0 0 0-.292.064.637.637 0 0 0-.219.195 1.25 1.25 0 0 0-.162.291c-.04.114-.073.236-.097.373l-.081.454c-.024.138-.032.26-.032.373 0 .113.024.21.056.291a.408.408 0 0 0 .154.195.47.47 0 0 0 .268.064h-.009Zm2.358.292c-.332 0-.559-.13-.664-.38-.106-.252-.122-.608-.041-1.07.081-.462.219-.81.413-1.07a.984.984 0 0 1 .802-.38c.332 0 .559.13.665.38.113.252.121.608.04 1.07-.081.462-.219.81-.421 1.07a.958.958 0 0 1-.794.38Zm.049-.292c.113 0 .21-.024.291-.064a.637.637 0 0 0 .219-.195c.065-.08.113-.178.154-.291.04-.114.081-.235.105-.373l.081-.454c.024-.138.033-.259.033-.373a.653.653 0 0 0-.057-.291.462.462 0 0 0-.154-.195.468.468 0 0 0-.267-.064.67.67 0 0 0-.292.064.637.637 0 0 0-.219.195 1.25 1.25 0 0 0-.162.291c-.04.114-.073.236-.097.373l-.081.454c-.024.138-.032.26-.032.373 0 .113.024.21.056.291a.408.408 0 0 0 .154.195.47.47 0 0 0 .268.064ZM184.846 115.892c-.332 0-.559-.129-.664-.38-.106-.251-.122-.608-.041-1.07.081-.461.219-.81.413-1.069a.984.984 0 0 1 .802-.381c.332 0 .559.13.665.381.113.251.121.608.04 1.069-.081.462-.219.81-.421 1.07a.958.958 0 0 1-.794.38Zm.048-.291a.678.678 0 0 0 .292-.065.63.63 0 0 0 .219-.194 1.01 1.01 0 0 0 .154-.292c.04-.114.081-.235.105-.373l.081-.453c.024-.138.033-.26.033-.373a.656.656 0 0 0-.057-.292.457.457 0 0 0-.154-.194.465.465 0 0 0-.267-.065.664.664 0 0 0-.292.065.56.56 0 0 0-.219.194 1.262 1.262 0 0 0-.162.292c-.04.113-.073.235-.097.373l-.081.453a2.135 2.135 0 0 0-.032.373.79.79 0 0 0 .056.292.409.409 0 0 0 .154.194.465.465 0 0 0 .267.065Zm1.694.291c-.089 0-.146-.024-.179-.064-.032-.041-.04-.098-.024-.17v-.049a.39.39 0 0 1 .097-.17.303.303 0 0 1 .203-.065c.089 0 .146.024.17.065.032.04.041.097.032.17v.049a.392.392 0 0 1-.097.17.296.296 0 0 1-.194.064h-.008Zm1.75 0c-.333 0-.559-.129-.665-.38-.105-.251-.121-.608-.04-1.07.081-.461.218-.81.413-1.069a.983.983 0 0 1 .802-.381c.332 0 .559.13.664.381.114.251.122.608.041 1.069-.081.462-.219.81-.422 1.07a.955.955 0 0 1-.793.38Zm.048-.291a.652.652 0 0 0 .292-.065.567.567 0 0 0 .219-.194c.064-.081.113-.179.153-.292.041-.114.081-.235.106-.373l.081-.453c.024-.138.032-.26.032-.373a.797.797 0 0 0-.048-.292.465.465 0 0 0-.154-.194.467.467 0 0 0-.268-.065.69.69 0 0 0-.291.065.56.56 0 0 0-.219.194 1.262 1.262 0 0 0-.162.292 2.178 2.178 0 0 0-.097.373l-.081.453a2.05 2.05 0 0 0-.033.373.79.79 0 0 0 .057.292.403.403 0 0 0 .154.194.465.465 0 0 0 .267.065h-.008Zm2.358.291c-.333 0-.559-.129-.665-.38-.105-.251-.121-.608-.04-1.07.081-.461.219-.81.413-1.069a.984.984 0 0 1 .802-.381c.332 0 .559.13.664.381.114.251.122.608.041 1.069-.081.462-.219.81-.421 1.07a.958.958 0 0 1-.794.38Zm.048-.291a.652.652 0 0 0 .292-.065.567.567 0 0 0 .219-.194c.064-.081.113-.179.154-.292.04-.114.081-.235.105-.373l.081-.453c.024-.138.032-.26.032-.373a.657.657 0 0 0-.056-.292.465.465 0 0 0-.154-.194.467.467 0 0 0-.268-.065.663.663 0 0 0-.291.065.56.56 0 0 0-.219.194 1.226 1.226 0 0 0-.162.292 2.178 2.178 0 0 0-.097.373l-.081.453a2.05 2.05 0 0 0-.033.373.79.79 0 0 0 .057.292.403.403 0 0 0 .154.194.465.465 0 0 0 .267.065Z" fill="#333"/><path d="M147.535 39.963c.446-.408.53-1.04.189-1.413-.342-.373-.98-.345-1.425.063-.446.408-.53 1.04-.189 1.414.342.373.98.344 1.425-.064Z" fill="#FF444F"/><path d="M147.535 39.963c.446-.408.53-1.04.189-1.413-.342-.373-.98-.345-1.425.063-.446.408-.53 1.04-.189 1.414.342.373.98.344 1.425-.064Z" fill="#FF444F"/><path d="M190.388 39.491h-.802l.073-.405h.802l-.073.405Zm-1.604 0h-.802l.073-.405h.802l-.073.405Zm-1.604 0h-.802l.073-.405h.802l-.073.405Zm-1.604 0h-.802l.073-.405h.802l-.073.405Zm-1.604 0h-.802l.073-.405h.802l-.073.405Zm-1.604 0h-.802l.073-.405h.802l-.073.405Zm-1.604 0h-.802l.073-.405h.802l-.073.405Zm-1.604 0h-.802l.073-.405h.802l-.073.405Zm-1.604 0h-.802l.073-.405h.802l-.073.405Zm-1.604 0h-.802l.073-.405h.802l-.073.405Zm-1.604 0h-.802l.073-.405h.802l-.073.405Zm-1.604 0h-.802l.073-.405h.802l-.073.405Zm-1.604 0h-.802l.073-.405h.802l-.073.405Zm-1.604 0h-.802l.072-.405h.803l-.073.405Zm-1.604 0h-.802l.072-.405h.802l-.072.405Zm-1.605 0h-.802l.073-.405h.802l-.073.405Zm-1.604 0h-.802l.073-.405h.802l-.073.405Zm-1.604 0h-.802l.073-.405h.802l-.073.405Zm-1.604 0h-.802l.073-.405h.802l-.073.405Zm-1.604 0h-.802l.073-.405h.802l-.073.405Zm-1.604 0h-.802l.073-.405h.802l-.073.405Zm-1.604 0h-.802l.073-.405h.802l-.073.405Zm-1.604 0h-.802l.073-.405h.802l-.073.405Zm-1.604 0h-.802l.073-.405h.802l-.073.405Zm-1.604 0h-.802l.073-.405h.802l-.073.405Zm-1.604 0h-.802l.073-.405h.802l-.073.405Zm-1.604 0h-.802l.073-.405h.802l-.073.405ZM193.563 44.46l1.766-10.03-4.893 5.014 3.127 5.015Z" fill="#FF444F"/><path d="M195.337 34.43h14.525l-1.766 10.03h-14.534l1.775-10.03Z" fill="#FF444F"/><path d="M197.986 39.002c.154 0 .26-.024.341-.08a.332.332 0 0 0 .145-.22v-.023c.025-.106 0-.187-.048-.244-.057-.064-.138-.089-.259-.089a.707.707 0 0 0-.333.09c-.105.056-.21.137-.299.242l-.316-.356c.065-.073.137-.13.202-.186.073-.057.154-.106.235-.146.089-.04.178-.073.276-.097.097-.025.21-.033.332-.033.146 0 .283.016.397.049.113.032.21.089.283.154.081.065.13.137.162.235.033.089.041.194.017.308a.635.635 0 0 1-.09.243.679.679 0 0 1-.145.186.634.634 0 0 1-.195.13.75.75 0 0 1-.219.064v.025c.073.016.146.04.211.08a.44.44 0 0 1 .162.138.505.505 0 0 1 .089.203.703.703 0 0 1 0 .26.802.802 0 0 1-.137.34.982.982 0 0 1-.26.259c-.105.073-.227.13-.364.17-.138.04-.284.056-.446.056-.146 0-.267-.016-.373-.04a1.024 1.024 0 0 1-.267-.113.932.932 0 0 1-.186-.17 1.045 1.045 0 0 1-.122-.203l.511-.348c.04.113.097.21.178.283.081.073.194.105.348.105a.522.522 0 0 0 .332-.097.467.467 0 0 0 .171-.283v-.025c.024-.113 0-.202-.081-.259-.073-.057-.187-.089-.341-.089h-.251l.089-.502h.259l-.008-.017Zm1.669 1.734c-.121 0-.202-.032-.251-.089-.048-.065-.057-.138-.04-.235l.016-.08a.37.37 0 0 1 .121-.228c.073-.065.162-.089.284-.089.121 0 .202.033.251.09.049.056.065.137.049.226l-.017.081a.377.377 0 0 1-.129.235.425.425 0 0 1-.284.09Zm1.823 0c-.365 0-.616-.13-.745-.38-.13-.252-.154-.608-.073-1.07.081-.462.235-.81.453-1.07.219-.258.519-.38.884-.38.364 0 .615.13.745.38.129.252.154.608.073 1.07-.081.462-.235.81-.454 1.07-.219.25-.518.38-.883.38Zm.089-.51c.162 0 .284-.057.365-.178.081-.122.146-.284.178-.495l.097-.526a1.09 1.09 0 0 0 0-.494c-.04-.122-.138-.179-.3-.179-.162 0-.283.057-.364.179a1.21 1.21 0 0 0-.178.494l-.098.526c-.04.211-.032.381 0 .495.041.121.138.178.3.178Zm2.317.51c-.364 0-.616-.13-.745-.38-.13-.252-.154-.608-.073-1.07.081-.462.235-.81.454-1.07.218-.25.518-.38.883-.38.364 0 .615.13.745.38.13.252.154.608.073 1.07-.081.462-.235.81-.454 1.07-.219.25-.518.38-.883.38Zm.089-.51c.162 0 .284-.057.365-.178.081-.122.146-.284.178-.495l.097-.526a1.09 1.09 0 0 0 0-.494c-.04-.122-.137-.179-.3-.179-.162 0-.283.057-.364.179a1.338 1.338 0 0 0-.178.494l-.098.526c-.04.211-.04.381 0 .495.041.121.138.178.3.178Z" fill="#fff"/><path d="M186.978 128H54.118c-4.019 0-6.717-3.273-6.004-7.291L68.108 7.291C68.821 3.273 72.661 0 76.688 0h132.861c4.018 0 6.716 3.273 6.003 7.291L195.55 120.71c-.713 4.018-4.553 7.291-8.58 7.291h.008ZM76.542.81c-3.573 0-6.992 2.908-7.624 6.481L48.916 120.71c-.632 3.573 1.766 6.481 5.339 6.481h132.861c3.573 0 6.992-2.908 7.624-6.481L214.742 7.291c.631-3.573-1.766-6.48-5.339-6.48H76.542Z" fill="#E6E9E9"/><path d="M76.555.813h9.543L63.795 127.28h-9.349c-3.694 0-6.165-2.997-5.508-6.691L68.915 7.31c.632-3.59 4.051-6.497 7.64-6.497Z" fill="url(#c)"/><path d="m69.07 7.292-1.613 9.163H213.28l1.58-8.968c.624-3.549-2.325-6.425-6.586-6.425H77.657c-4.14 0-7.98 2.787-8.588 6.23Z" fill="url(#d)"/><defs><linearGradient id="a" x1="77.508" y1="59.139" x2="14.71" y2="48.462" gradientUnits="userSpaceOnUse"><stop stop-color="#85ACB0"/><stop offset="1" stop-color="#fff" stop-opacity="0"/></linearGradient><linearGradient id="c" x1="-345.79" y1="64.043" x2="-333.152" y2="64.043" gradientUnits="userSpaceOnUse"><stop stop-color="#fff"/><stop offset="1" stop-color="#fff" stop-opacity="0"/></linearGradient><linearGradient id="d" x1="184.283" y1="-200.281" x2="182.136" y2="-188.107" gradientUnits="userSpaceOnUse"><stop stop-color="#fff"/><stop offset="1" stop-color="#fff" stop-opacity="0"/></linearGradient></defs></svg>