<svg width="216" height="128" fill="none" xmlns="http://www.w3.org/2000/svg" class="chart-image"><path d="M65.27 128H0L22.73 0H88L65.27 128z" fill="url(#paint0_linear_13947_9849)"></path><path d="M68.92 7.3A8.06 8.06 0 0176.54.8H209.4c3.58 0 5.97 2.9 5.34 6.48l-20 113.42a8.07 8.07 0 01-7.63 6.48H54.27c-3.58 0-5.97-2.9-5.34-6.48l20-113.42z" fill="#fff" style="
    fill: #151718;
"></path><path d="M68.55 13.98h145.16l-.07.4H68.48l.07-.4zM64.12 39.09H209.3l-.07.4H64.05l.07-.4zM59.7 64.2h145.16l-.08.4H59.62l.08-.4zM55.27 89.32h145.16l-.07.4H55.19l.08-.4zM50.83 114.43H196l-.07.4H50.77l.06-.4z" fill="#F2F3F4"></path><path d="M87.66 3.24h.4l-19.64 111.4h-.4L87.66 3.23z" fill="#F2F3F4"></path><path d="M63.68 121.97c-.34 0-.56-.13-.67-.38-.1-.25-.12-.6-.04-1.07.08-.46.22-.81.41-1.07.2-.25.47-.38.8-.38.34 0 .57.13.67.38.11.25.12.6.04 1.07-.08.46-.22.81-.42 1.07a.96.96 0 01-.8.38zm.04-.3c.12 0 .22-.02.3-.06.09-.04.16-.1.22-.19a1 1 0 00.15-.3c.04-.1.08-.23.1-.37l.09-.45.03-.37a.79.79 0 00-.05-.3.46.46 0 00-.15-.19.47.47 0 00-.27-.06c-.1 0-.21.02-.3.06a.56.56 0 00-.21.2c-.07.08-.12.18-.16.29-.05.11-.08.23-.1.37l-.08.45c-.03.14-.04.27-.04.38 0 .11.03.2.06.29a.4.4 0 00.16.2c.07.04.16.06.26.06zm1.74.3c-.1 0-.15-.02-.18-.06-.03-.05-.04-.1-.02-.17v-.05a.4.4 0 01.1-.17.3.3 0 01.2-.07c.08 0 .14.03.17.07.03.04.04.1.03.17v.05a.4.4 0 01-.1.17.3.3 0 01-.2.06zm.29-1.64c-.09 0-.15-.03-.18-.07-.03-.04-.04-.1-.02-.17v-.06a.4.4 0 01.1-.17.3.3 0 01.2-.06c.09 0 .14.02.17.06.03.05.04.1.03.17v.06a.44.44 0 01-.1.17.3.3 0 01-.2.07zm1.5 1.64c-.33 0-.56-.13-.67-.38-.1-.25-.12-.6-.04-1.07.08-.46.22-.81.42-1.07.2-.25.47-.38.8-.38.33 0 .56.13.66.38.12.25.12.6.04 1.07-.08.46-.21.81-.42 1.07a.96.96 0 01-.8.38zm.05-.3c.11 0 .2-.02.29-.06.09-.04.16-.1.22-.19a1 1 0 00.15-.3c.04-.1.08-.23.1-.37l.09-.45.03-.37a.79.79 0 00-.05-.3.4.4 0 00-.15-.19.47.47 0 00-.27-.06c-.1 0-.21.02-.3.06a.56.56 0 00-.21.2c-.06.08-.11.18-.16.29l-.1.37-.08.45-.03.38c0 .11.02.2.05.29a.4.4 0 00.16.2c.07.04.16.06.27.06h-.01zm2.35.3c-.34 0-.56-.13-.67-.38-.1-.25-.12-.6-.04-1.07.08-.46.22-.81.42-1.07.2-.25.46-.38.8-.38.33 0 .56.13.66.38.11.25.12.6.04 1.07-.08.46-.22.81-.42 1.07a.96.96 0 01-.8.38zm.05-.3c.1 0 .2-.02.29-.06.09-.04.16-.1.22-.19a1 1 0 00.15-.3c.04-.1.08-.23.1-.37l.09-.45.03-.37a.79.79 0 00-.05-.3.46.46 0 00-.15-.19.47.47 0 00-.27-.06c-.1 0-.21.02-.3.06a.56.56 0 00-.21.2c-.07.08-.12.18-.16.29-.04.11-.08.23-.1.37l-.08.45c-.03.14-.03.27-.03.38 0 .11.02.2.05.29a.4.4 0 00.16.2c.07.04.16.06.26.06z" fill="#333"></path><path d="M109.53 3.24h.4L90.3 114.64h-.4l19.63-111.4z" fill="#F2F3F4"></path><path d="M84.7 121.92l.06-.3h.78l.4-2.25h-.03l-.81.66-.17-.21.87-.7h.53l-.44 2.5h.72l-.05.3h-1.85zm2.64.05c-.09 0-.15-.02-.18-.06-.03-.05-.04-.1-.02-.17v-.05a.4.4 0 01.1-.17.3.3 0 01.2-.07c.09 0 .14.03.17.07.03.04.04.1.03.17v.05a.4.4 0 01-.1.17.3.3 0 01-.2.06zm.3-1.64c-.1 0-.15-.03-.19-.07-.03-.04-.04-.1-.02-.17v-.06a.4.4 0 01.1-.17.3.3 0 01.2-.06c.09 0 .14.02.17.06.03.05.04.1.03.17v.06a.44.44 0 01-.1.17.3.3 0 01-.19.07zm1.49 1.64c-.33 0-.56-.13-.66-.38-.1-.25-.13-.6-.04-1.07.08-.46.21-.81.4-1.07.21-.25.48-.38.81-.38.33 0 .56.13.67.38.1.25.12.6.04 1.07-.09.46-.22.81-.43 1.07a.96.96 0 01-.79.38zm.05-.3c.11 0 .21-.02.3-.06.08-.04.15-.1.2-.19a1 1 0 00.16-.3c.04-.1.08-.23.1-.37l.09-.45.03-.37a.79.79 0 00-.05-.3.4.4 0 00-.15-.19.47.47 0 00-.27-.06c-.1 0-.2.02-.29.06a.56.56 0 00-.22.2c-.06.08-.11.18-.16.29l-.1.37-.08.45-.03.38c0 .11.02.2.06.29a.4.4 0 00.15.2c.07.04.16.06.27.06h-.01zm2.35.3c-.33 0-.56-.13-.67-.38-.1-.25-.12-.6-.04-1.07.08-.46.22-.81.42-1.07.2-.25.47-.38.8-.38.33 0 .56.13.66.38.12.25.12.6.04 1.07-.08.46-.22.81-.42 1.07a.96.96 0 01-.8.38zm.05-.3c.11 0 .2-.02.29-.06.09-.04.16-.1.22-.19a1 1 0 00.15-.3c.04-.1.08-.23.1-.37l.09-.45.03-.37a.79.79 0 00-.05-.3.46.46 0 00-.15-.19.47.47 0 00-.27-.06c-.1 0-.21.02-.3.06a.56.56 0 00-.21.2c-.07.08-.11.18-.16.29-.04.11-.08.23-.1.37l-.08.45a2.1 2.1 0 00-.03.38c0 .11.02.2.05.29a.4.4 0 00.16.2c.07.04.16.06.27.06h-.01z" fill="#333"></path><path d="M131.4 3.24h.4l-19.63 111.4h-.4L131.4 3.23z" fill="#F2F3F4"></path><path d="M108.36 121.92h-1.84l.07-.35 1.06-.84c.15-.12.28-.25.4-.38a.9.9 0 00.2-.4v-.05c.03-.16.02-.29-.06-.38-.06-.1-.18-.14-.36-.14a.7.7 0 00-.24.03.8.8 0 00-.18.1c-.06.04-.1.1-.15.15l-.1.19-.29-.11a1.3 1.3 0 01.37-.46.87.87 0 01.28-.14c.1-.05.23-.06.36-.06.14 0 .26.02.36.06.1.04.18.1.24.17s.1.16.13.25a1.04 1.04 0 01-.1.64 1.44 1.44 0 01-.42.52l-.29.24-.87.68h1.47l-.05.3.01-.02zm.84.05c-.08 0-.14-.02-.17-.06-.04-.05-.04-.1-.03-.17v-.05a.4.4 0 01.1-.17.3.3 0 01.2-.07c.1 0 .15.03.17.07.03.04.04.1.03.17v.05a.4.4 0 01-.1.17.3.3 0 01-.19.06zm.3-1.64c-.1 0-.15-.03-.18-.07-.03-.04-.04-.1-.03-.17v-.06a.4.4 0 01.1-.17.3.3 0 01.2-.06c.1 0 .15.02.17.06.04.05.04.1.04.17v.06a.43.43 0 01-.1.17.3.3 0 01-.2.07zm1.5 1.64c-.34 0-.56-.13-.67-.38-.1-.25-.12-.6-.04-1.07.08-.46.22-.81.41-1.07.2-.25.47-.38.8-.38.34 0 .56.13.67.38.11.25.12.6.04 1.07-.08.46-.22.81-.42 1.07a.96.96 0 01-.8.38zm.04-.3c.12 0 .21-.02.3-.06.08-.04.16-.1.21-.19a.99.99 0 00.16-.3c.04-.1.08-.23.1-.37l.08-.45c.03-.14.04-.26.04-.37a.78.78 0 00-.05-.3.4.4 0 00-.16-.19.46.46 0 00-.26-.06c-.1 0-.21.02-.3.06a.56.56 0 00-.21.2c-.07.08-.12.18-.17.29l-.1.37-.07.45c-.03.14-.04.27-.04.38 0 .11.03.2.06.29a.4.4 0 00.16.2c.07.04.16.06.26.06zm2.35.3c-.33 0-.56-.13-.66-.38-.1-.25-.12-.6-.04-1.07.08-.46.22-.81.41-1.07.2-.25.47-.38.8-.38.34 0 .56.13.67.38.11.25.12.6.04 1.07-.08.46-.22.81-.42 1.07a.96.96 0 01-.8.38zm.05-.3c.12 0 .21-.02.3-.06.08-.04.16-.1.21-.19a.99.99 0 00.16-.3c.04-.1.08-.23.1-.37l.08-.45c.03-.14.03-.26.03-.37a.78.78 0 00-.04-.3.46.46 0 00-.16-.19.46.46 0 00-.27-.06c-.1 0-.2.02-.29.06a.56.56 0 00-.22.2c-.06.08-.1.18-.16.29l-.1.37-.08.45-.03.38c0 .11.03.2.06.29a.4.4 0 00.15.2c.08.04.16.06.27.06z" fill="#333"></path><path d="M153.28 3.24h.4l-19.64 111.4h-.4l19.64-111.4z" fill="#F2F3F4"></path><path d="M129.43 120.31c.19 0 .34-.04.45-.13.11-.09.18-.2.2-.33v-.03c.03-.15 0-.26-.08-.34a.5.5 0 00-.34-.11.69.69 0 00-.37.1c-.1.06-.2.14-.27.25l-.22-.2.16-.16a1.18 1.18 0 01.45-.25 1.19 1.19 0 01.63 0c.1.04.18.08.24.15.07.05.12.13.14.21a.6.6 0 01.02.3.78.78 0 01-.24.43.8.8 0 01-.2.14.74.74 0 01-.22.08v.02c.07.02.14.04.2.08.07.03.13.08.17.14a.53.53 0 01.1.49.9.9 0 01-.14.33c-.06.1-.14.18-.23.26a1.28 1.28 0 01-1.04.18.85.85 0 01-.23-.11.63.63 0 01-.17-.16c-.03-.05-.08-.1-.1-.17l.28-.2.08.16a.4.4 0 00.12.1c.04.04.1.07.16.08.06.02.14.03.22.03.2 0 .36-.04.47-.13.12-.1.2-.22.22-.38v-.04c.03-.17 0-.29-.08-.38-.1-.09-.23-.14-.43-.14h-.33l.05-.29h.31l.02.02zm1.66 1.66c-.1 0-.15-.02-.18-.06-.03-.05-.04-.1-.03-.17v-.05a.4.4 0 01.1-.17.3.3 0 01.2-.07c.1 0 .15.03.17.07.04.04.04.1.04.17v.05a.39.39 0 01-.1.17.3.3 0 01-.2.06zm.29-1.64c-.1 0-.15-.03-.18-.07-.03-.04-.04-.1-.02-.17v-.06a.39.39 0 01.1-.17.3.3 0 01.2-.06c.08 0 .14.02.17.06.03.05.04.1.03.17v.06a.44.44 0 01-.1.17.3.3 0 01-.2.07zm1.5 1.64c-.34 0-.56-.13-.67-.38-.1-.25-.12-.6-.04-1.07.08-.46.22-.81.42-1.07.2-.25.47-.38.8-.38.33 0 .56.13.66.38.11.25.12.6.04 1.07-.08.46-.22.81-.42 1.07a.96.96 0 01-.8.38zm.05-.3c.1 0 .2-.02.29-.06.08-.04.16-.1.22-.19.06-.08.1-.18.15-.3.04-.1.08-.23.1-.37l.09-.45.03-.37a.66.66 0 00-.06-.3.46.46 0 00-.15-.19.47.47 0 00-.27-.06c-.1 0-.21.02-.3.06a.63.63 0 00-.21.2c-.06.08-.11.18-.16.29l-.1.37-.08.45-.03.38c0 .11.02.2.05.29a.4.4 0 00.16.2c.07.04.16.06.27.06zm2.34.3c-.33 0-.55-.13-.66-.38-.1-.25-.12-.6-.04-1.07.08-.46.22-.81.41-1.07.2-.25.47-.38.8-.38.34 0 .56.13.67.38.11.25.13.6.05 1.07-.08.46-.22.81-.42 1.07a.96.96 0 01-.8.38zm.05-.3c.12 0 .21-.02.3-.06.08-.04.16-.1.21-.19.07-.08.12-.18.16-.3.04-.1.08-.23.1-.37l.08-.45c.03-.14.04-.26.04-.37a.8.8 0 00-.05-.3.46.46 0 00-.16-.19.45.45 0 00-.26-.06c-.1 0-.2.02-.3.06a.57.57 0 00-.21.2c-.07.08-.12.18-.17.29l-.1.37-.07.45c-.03.14-.04.27-.04.38 0 .11.03.2.06.29a.4.4 0 00.15.2c.08.04.17.06.27.06z" fill="#333"></path><path d="M175.15 3.24h.4l-19.63 111.4h-.4l19.63-111.4z" fill="#F2F3F4"></path><path d="M151.48 121.92l.1-.55h-1.36l.05-.3 1.51-1.95h.5l-.34 1.97h.4l-.05.28h-.4l-.1.55h-.32zm-.9-.82h1.04l.3-1.71h-.01l-1.32 1.7zm2.37.87c-.08 0-.14-.02-.18-.06-.03-.05-.04-.1-.02-.17v-.05a.4.4 0 01.1-.17.3.3 0 01.2-.07c.09 0 .14.03.17.07.03.04.04.1.03.17v.05a.4.4 0 01-.1.17.3.3 0 01-.2.06zm.3-1.64c-.09 0-.15-.03-.19-.07-.03-.04-.04-.1-.02-.17v-.06a.4.4 0 01.1-.17.3.3 0 01.2-.06c.09 0 .15.02.17.06.03.05.04.1.03.17v.06a.43.43 0 01-.1.17.3.3 0 01-.19.07zm1.5 1.64c-.34 0-.57-.13-.67-.38-.1-.25-.13-.6-.04-1.07.08-.46.22-.81.41-1.07.2-.25.47-.38.8-.38.33 0 .56.13.67.38.1.25.12.6.04 1.07-.09.46-.22.81-.43 1.07a.96.96 0 01-.79.38zm.04-.3c.1 0 .21-.02.3-.06.07-.04.15-.1.21-.19a.99.99 0 00.15-.3c.05-.1.09-.23.1-.37l.09-.45c.03-.14.03-.26.03-.37a.64.64 0 00-.05-.3.46.46 0 00-.16-.19.47.47 0 00-.27-.06c-.1 0-.2.02-.29.06a.62.62 0 00-.22.2c-.06.08-.1.18-.16.29l-.1.37-.08.45-.03.38c0 .11.03.2.06.29a.4.4 0 00.15.2c.07.04.16.06.27.06zm2.35.3c-.33 0-.56-.13-.66-.38-.11-.25-.13-.6-.05-1.07.08-.46.22-.81.42-1.07.2-.25.47-.38.8-.38.33 0 .56.13.66.38.12.25.13.6.05 1.07-.08.46-.22.81-.42 1.07a.96.96 0 01-.8.38zm.05-.3c.11 0 .2-.02.29-.06.09-.04.16-.1.22-.19a.99.99 0 00.15-.3c.04-.1.08-.23.1-.37l.09-.45.03-.37a.78.78 0 00-.05-.3.46.46 0 00-.15-.19.47.47 0 00-.27-.06.7.7 0 00-.3.06.56.56 0 00-.2.2c-.07.08-.12.18-.17.29l-.1.37-.08.45-.03.38c0 .11.02.2.06.29a.4.4 0 00.15.2c.07.04.16.06.27.06h-.01z" fill="#333"></path><path d="M197.02 3.24h.4l-19.63 111.4h-.4l19.63-111.4z" fill="#F2F3F4"></path><path d="M174.28 119.42h-1.22l-.27 1.07h.03c.09-.1.18-.17.27-.23.1-.06.22-.08.37-.08.12 0 .22.02.32.06.1.04.17.1.24.17.06.07.1.16.12.26a1.12 1.12 0 01-.37 1.03c-.1.08-.2.15-.34.19a1.1 1.1 0 01-.4.06c-.12 0-.22-.01-.31-.04a.92.92 0 01-.22-.1.6.6 0 01-.15-.16 1.43 1.43 0 01-.1-.17l.28-.2.08.16c.03.04.06.08.1.1.04.04.1.07.16.08.05.02.13.03.22.03.19 0 .34-.05.46-.16.11-.1.2-.24.22-.43v-.04c.04-.18.02-.32-.06-.43-.08-.1-.22-.15-.42-.15a.62.62 0 00-.31.07l-.23.16-.27-.04.37-1.53h1.5l-.05.3-.02.02zm.55 2.55c-.09 0-.15-.02-.18-.06-.03-.05-.04-.1-.03-.17v-.05a.4.4 0 01.1-.17.3.3 0 01.2-.07c.1 0 .15.03.17.07.04.04.04.1.04.17v.05a.39.39 0 01-.1.17.3.3 0 01-.2.06zm.29-1.64c-.08 0-.15-.03-.18-.07-.03-.04-.04-.1-.02-.17v-.06a.39.39 0 01.1-.17.3.3 0 01.2-.06c.08 0 .14.02.16.06.04.05.05.1.04.17v.06a.44.44 0 01-.1.17.3.3 0 01-.2.07zm1.5 1.64c-.34 0-.56-.13-.67-.38-.1-.25-.12-.6-.04-1.07.08-.46.22-.81.41-1.07.2-.25.47-.38.8-.38.34 0 .57.13.67.38.12.25.12.6.04 1.07-.08.46-.22.81-.42 1.07a.96.96 0 01-.8.38zm.04-.3c.11 0 .22-.02.3-.06.08-.04.16-.1.22-.19.06-.08.1-.18.15-.3.04-.1.08-.23.1-.37l.09-.45.03-.37a.66.66 0 00-.06-.3.46.46 0 00-.15-.19.47.47 0 00-.27-.06c-.1 0-.21.02-.3.06a.63.63 0 00-.21.2c-.06.08-.11.18-.16.29-.04.11-.08.23-.1.37l-.08.45-.03.38c0 .11.02.2.05.29a.4.4 0 00.16.2c.07.04.16.06.26.06zm2.35.3c-.33 0-.55-.13-.66-.38-.1-.25-.12-.6-.04-1.07.08-.46.22-.81.41-1.07.2-.25.47-.38.8-.38.34 0 .56.13.67.38.11.25.13.6.05 1.07-.08.46-.22.81-.42 1.07a.96.96 0 01-.8.38zm.05-.3c.12 0 .21-.02.3-.06.08-.04.16-.1.21-.19.07-.08.12-.18.16-.3.04-.1.08-.23.1-.37l.08-.45c.03-.14.04-.26.04-.37a.8.8 0 00-.05-.3.46.46 0 00-.16-.19.47.47 0 00-.26-.06c-.1 0-.2.02-.3.06a.57.57 0 00-.21.2c-.07.08-.12.18-.17.29l-.1.37-.07.45c-.03.14-.04.27-.04.38 0 .11.03.2.06.29a.4.4 0 00.15.2c.08.04.17.06.27.06z" fill="#333"></path><mask id="a" maskUnits="userSpaceOnUse" x="49" y="13" width="103" height="103" style="mask-type: luminance;"><path d="M67.78 13.77h83.84l-17.85 101.27H49.92L67.78 13.77z" fill="#fff"></path></mask><g mask="url(#a)"><path d="M197.78 64.4l-29.8 24.3-20.85-49.41L116.4 89.5H94.53L77.08 64.4H59.67l-8.86 50.23h214.28l17.7-100.46-28.9 7.7-19.1 14.18-37 28.35z" fill="#4BB4B3" opacity=".08"></path><path d="M166.51 89.83l-.08-.22-19.36-49.88-30.58 49.99h-22.1l-.04-.08-17.4-25.04H59.22l.07-.4h17.92l.04.07 17.4 25.04h21.65l30.89-50.47 19.54 50.36 31.36-24.95 32.37-25.11 23.41-17.47 28.9-7.7.05.4-28.86 7.68-23.28 17.39-32.38 25.1-31.79 25.29z" fill="#85ACB0"></path><path d="M77.46 65.27c.44-.41.53-1.04.18-1.42-.34-.37-.98-.34-1.42.07-.45.4-.53 1.04-.19 1.41.34.37.98.35 1.43-.06zM95.12 89.97c.45-.4.53-1.04.2-1.41-.35-.38-.99-.35-1.43.06-.45.4-.53 1.04-.2 1.41.35.38.99.35 1.43-.06zM117 89.98c.45-.4.53-1.04.19-1.41-.34-.38-.98-.35-1.43.06-.44.4-.53 1.04-.19 1.41.35.38.99.35 1.43-.06z" fill="#85ACB0"></path></g><path d="M197.25.81h12.35c3.59 0 5.97 2.9 5.34 6.48l-20 113.42a8.07 8.07 0 01-7.62 6.48h-12.36L197.25.81z" fill="#fff" style="
    fill: #151718;
"></path><path d="M202.87 15.4l.1-.56h-1.35l.05-.3 1.51-1.95h.5l-.34 1.97h.4l-.05.28h-.4l-.1.55h-.32zm-.89-.84h1.04l.3-1.7h-.02l-1.31 1.7zm2.33.88c-.1 0-.15-.03-.18-.07-.03-.04-.04-.1-.03-.17v-.04c.03-.08.05-.13.1-.17a.3.3 0 01.2-.07c.1 0 .15.03.17.07.04.04.05.1.04.17v.04c-.03.08-.05.13-.1.17a.3.3 0 01-.2.07zm1.75 0c-.34 0-.56-.13-.67-.38-.1-.25-.12-.6-.04-1.07.08-.46.22-.81.41-1.07.2-.25.48-.38.8-.38.34 0 .57.13.67.38.12.25.12.6.04 1.07-.08.46-.22.8-.42 1.07a.96.96 0 01-.8.38zm.04-.3c.12 0 .22-.02.3-.06a.64.64 0 00.22-.2c.06-.07.1-.17.15-.28.04-.12.08-.24.1-.38l.09-.45.03-.37a.8.8 0 00-.05-.3.46.46 0 00-.15-.19.47.47 0 00-.27-.06.7.7 0 00-.3.06.64.64 0 00-.21.2c-.07.08-.11.17-.16.29-.04.11-.08.23-.1.37l-.08.45c-.03.14-.03.26-.03.38 0 .11.02.2.05.29a.4.4 0 00.16.2c.07.04.16.06.26.06zm2.36.3c-.33 0-.56-.13-.66-.38-.1-.25-.12-.6-.04-1.07.08-.46.22-.81.41-1.07.2-.25.47-.38.8-.38.34 0 .56.13.67.38.11.25.12.6.04 1.07-.08.46-.22.8-.42 1.07a.96.96 0 01-.8.38zm.05-.3c.12 0 .21-.02.3-.06a.64.64 0 00.21-.2 1 1 0 00.16-.28c.04-.12.08-.24.1-.38l.08-.45c.03-.14.03-.26.03-.37a.65.65 0 00-.05-.3.46.46 0 00-.16-.19.47.47 0 00-.26-.06c-.1 0-.21.02-.3.06a.64.64 0 00-.21.2c-.07.08-.12.17-.17.29l-.1.37-.07.45c-.03.14-.04.26-.04.38 0 .11.03.2.06.29a.4.4 0 00.15.2c.08.04.17.06.27.06zM198.27 38.89c.19 0 .34-.04.44-.13.12-.1.18-.2.2-.34v-.03c.04-.14 0-.26-.07-.33a.5.5 0 00-.34-.11.69.69 0 00-.38.1c-.1.06-.2.14-.26.25l-.22-.2a1.38 1.38 0 01.35-.3c.08-.05.16-.09.25-.11a1.19 1.19 0 01.64 0c.1.04.18.08.24.14.06.06.11.13.14.22a.6.6 0 01.01.3.77.77 0 01-.23.43.82.82 0 01-.2.14.76.76 0 01-.22.08v.02c.07.01.14.04.2.08.06.03.12.08.16.14.05.05.08.13.1.2.02.09.02.18 0 .28a.91.91 0 01-.13.33c-.06.1-.15.2-.23.26a1.27 1.27 0 01-1.05.18.84.84 0 01-.23-.1.77.77 0 01-.16-.16c-.04-.05-.08-.11-.11-.18l.28-.19.08.15a.4.4 0 00.12.12l.17.07a.9.9 0 00.22.02c.19 0 .35-.04.47-.13.12-.08.19-.21.21-.38v-.04c.04-.16 0-.29-.08-.38-.09-.09-.22-.13-.42-.13h-.33l.05-.3h.3l.03.03zm1.61 1.66c-.09 0-.14-.03-.18-.07-.03-.04-.04-.1-.02-.17v-.04c.02-.08.05-.13.1-.18a.3.3 0 01.2-.06c.09 0 .15.02.17.06.03.05.04.1.03.18v.04c-.02.08-.05.13-.1.17a.3.3 0 01-.19.07zm1.75 0c-.33 0-.56-.13-.66-.38-.1-.25-.12-.61-.04-1.07.08-.46.22-.81.41-1.07.2-.25.47-.38.8-.38.33 0 .56.13.67.38.11.25.12.6.04 1.07-.08.46-.22.8-.42 1.07a.96.96 0 01-.8.38zm.05-.3c.11 0 .21-.02.3-.06a.64.64 0 00.21-.2 1 1 0 00.16-.28c.03-.12.08-.24.1-.38l.08-.45c.03-.14.03-.26.03-.37a.8.8 0 00-.05-.3.46.46 0 00-.15-.19.47.47 0 00-.27-.06.7.7 0 00-.29.06.64.64 0 00-.22.2c-.06.08-.11.17-.16.29l-.1.37-.08.45-.03.38c0 .11.03.2.06.29a.4.4 0 00.15.2c.07.04.16.06.27.06h-.01zm2.36.3c-.33 0-.56-.13-.67-.38-.1-.25-.12-.61-.04-1.07.08-.46.22-.81.42-1.07.2-.25.47-.38.8-.38.33 0 .56.13.66.38.12.25.12.6.04 1.07-.08.46-.22.8-.42 1.07a.96.96 0 01-.8.38zm.05-.3c.11 0 .2-.02.29-.06a.64.64 0 00.22-.2 1 1 0 00.15-.28c.04-.12.08-.24.1-.38l.09-.45.03-.37a.65.65 0 00-.06-.3.46.46 0 00-.15-.19.47.47 0 00-.27-.06c-.1 0-.2.02-.29.06a.64.64 0 00-.22.2c-.06.08-.11.17-.16.29l-.1.37-.08.45-.03.38c0 .11.02.2.05.29a.4.4 0 00.16.2c.07.04.16.06.27.06zM194.65 65.62h-1.84l.06-.35 1.07-.84c.15-.13.28-.25.4-.38a.9.9 0 00.2-.4v-.06c.03-.15.01-.28-.06-.38-.07-.1-.19-.14-.36-.14-.1 0-.17 0-.24.03a.8.8 0 00-.19.1l-.14.15c-.04.06-.08.12-.1.19l-.3-.12a1.3 1.3 0 01.37-.45.86.86 0 01.29-.15c.1-.04.22-.05.36-.05.14 0 .25.01.36.05.1.04.18.1.24.17.06.08.1.16.12.26.03.1.03.21 0 .33a1.46 1.46 0 01-.52.82l-.28.25-.87.68h1.47l-.05.3.01-.01zm.8.05c-.09 0-.14-.03-.18-.07-.03-.04-.04-.1-.02-.17v-.05a.35.35 0 01.1-.17.3.3 0 01.2-.06c.09 0 .14.02.17.06.03.04.04.1.03.17v.05c-.02.07-.05.13-.1.17a.3.3 0 01-.19.07zm1.75 0c-.33 0-.56-.13-.66-.38-.1-.26-.12-.61-.04-1.07.08-.47.22-.81.41-1.07.2-.25.47-.38.8-.38.33 0 .56.13.67.38.11.25.12.6.04 1.07-.08.46-.22.8-.42 1.07a.96.96 0 01-.8.38zm.05-.3c.11 0 .21-.02.3-.06a.62.62 0 00.21-.2.98.98 0 00.15-.29c.05-.11.09-.23.11-.37l.08-.45c.03-.14.03-.26.03-.38a.77.77 0 00-.05-.29.46.46 0 00-.15-.2.47.47 0 00-.27-.06.7.7 0 00-.29.07.63.63 0 00-.22.2c-.06.07-.11.17-.16.28l-.1.38-.08.45-.03.37c0 .12.02.21.06.3a.4.4 0 00.15.19c.07.05.16.06.27.06h-.01zm2.36.3c-.34 0-.56-.13-.67-.38-.1-.26-.12-.61-.04-1.07.08-.47.22-.81.42-1.07.2-.25.47-.38.8-.38.33 0 .56.13.66.38.12.25.12.6.04 1.07-.08.46-.22.8-.42 1.07a.95.95 0 01-.8.38zm.05-.3c.11 0 .2-.02.29-.06a.64.64 0 00.22-.2 1 1 0 00.15-.29c.04-.11.08-.23.1-.37l.09-.45.03-.38a.64.64 0 00-.06-.29.46.46 0 00-.15-.2.47.47 0 00-.27-.06c-.1 0-.2.03-.29.07a.63.63 0 00-.22.2c-.06.07-.11.17-.16.28l-.1.38-.08.45-.03.37c0 .12.02.21.06.3a.4.4 0 00.15.19c.07.05.16.06.27.06zM188.44 90.73l.04-.3h.78l.4-2.25h-.03l-.82.66-.16-.21.86-.7h.53l-.44 2.5h.72l-.04.3h-1.84zm2.59.05c-.1 0-.15-.02-.18-.06-.03-.04-.04-.1-.03-.17v-.05a.4.4 0 01.1-.17.3.3 0 01.2-.07c.1 0 .15.03.17.07.04.04.05.1.04.17v.05a.4.4 0 01-.1.17.3.3 0 01-.2.06zm1.75 0c-.33 0-.56-.13-.67-.38-.1-.25-.12-.6-.04-1.07.08-.46.22-.8.42-1.07.2-.25.47-.38.8-.38.33 0 .56.13.66.38.12.25.12.61.04 1.07-.08.46-.22.81-.42 1.07a.96.96 0 01-.8.38zm.05-.29c.11 0 .2-.02.29-.06a.64.64 0 00.22-.2 1 1 0 00.15-.29c.04-.11.08-.23.1-.37l.09-.46.03-.37a.8.8 0 00-.05-.29.46.46 0 00-.15-.2.47.47 0 00-.27-.06.7.7 0 00-.3.07.64.64 0 00-.21.19c-.07.08-.11.18-.16.3a2.3 2.3 0 00-.1.36l-.08.46-.03.37c0 .11.02.21.05.3a.4.4 0 00.16.19c.07.05.16.06.27.06h-.01zm2.35.3c-.33 0-.56-.14-.66-.39-.1-.25-.12-.6-.04-1.07.08-.46.22-.8.41-1.07.2-.25.47-.38.8-.38.34 0 .56.13.67.38.11.25.12.61.04 1.07-.08.46-.22.81-.42 1.07a.96.96 0 01-.8.38zm.05-.3c.12 0 .21-.02.3-.06a.64.64 0 00.21-.2 1 1 0 00.16-.29c.04-.11.08-.23.1-.37l.08-.46c.03-.13.04-.25.04-.37a.65.65 0 00-.06-.29.46.46 0 00-.16-.2.47.47 0 00-.26-.06c-.1 0-.21.03-.3.07a.64.64 0 00-.21.19c-.07.08-.12.18-.16.3a2.3 2.3 0 00-.1.36l-.08.46c-.03.14-.03.26-.03.37 0 .11.02.21.05.3a.4.4 0 00.16.19c.07.05.16.06.26.06zM184.85 115.9c-.34 0-.56-.14-.67-.39-.1-.25-.12-.6-.04-1.07.08-.46.22-.8.41-1.07.2-.25.47-.38.8-.38.34 0 .56.13.67.38.11.25.12.61.04 1.07-.08.46-.22.81-.42 1.07a.96.96 0 01-.8.38zm.04-.3c.11 0 .22-.02.3-.06.08-.05.16-.1.22-.2.06-.08.1-.18.15-.29.04-.11.08-.23.1-.37l.09-.46.03-.37a.66.66 0 00-.06-.3.46.46 0 00-.15-.19.47.47 0 00-.27-.06c-.1 0-.21.02-.3.06a.56.56 0 00-.21.2c-.07.08-.11.18-.16.3-.04.1-.08.23-.1.36l-.08.46-.03.37c0 .11.02.21.05.3a.4.4 0 00.16.19c.07.04.16.06.26.06zm1.7.3c-.1 0-.15-.03-.18-.07-.03-.04-.04-.1-.03-.17v-.05a.39.39 0 01.1-.17.3.3 0 01.2-.07c.1 0 .15.03.17.07.04.04.05.1.04.17v.05a.4.4 0 01-.1.17.3.3 0 01-.2.06zm1.75 0c-.34 0-.56-.14-.67-.39-.1-.25-.12-.6-.04-1.07.08-.46.22-.8.42-1.07.2-.25.47-.38.8-.38.33 0 .56.13.66.38.12.25.12.61.04 1.07-.08.46-.22.81-.42 1.07a.95.95 0 01-.8.38zm.05-.3c.11 0 .2-.02.29-.06.09-.05.16-.1.22-.2a1 1 0 00.15-.29c.04-.11.08-.23.1-.37l.09-.46.03-.37a.8.8 0 00-.05-.3.46.46 0 00-.15-.19.47.47 0 00-.27-.06c-.1 0-.2.02-.3.06a.56.56 0 00-.21.2c-.07.08-.11.18-.16.3-.04.1-.08.23-.1.36l-.08.46c-.03.13-.03.26-.03.37 0 .11.02.21.05.3a.4.4 0 00.16.19c.07.04.16.06.26.06zm2.35.3c-.33 0-.56-.14-.66-.39-.1-.25-.12-.6-.04-1.07.08-.46.22-.8.41-1.07.2-.25.47-.38.8-.38.34 0 .56.13.67.38.11.25.12.61.04 1.07-.08.46-.22.81-.42 1.07a.96.96 0 01-.8.38zm.05-.3c.12 0 .21-.02.3-.06.08-.05.16-.1.21-.2.07-.08.12-.18.16-.29.04-.11.08-.23.1-.37l.08-.46c.03-.13.04-.26.04-.37a.66.66 0 00-.06-.3.46.46 0 00-.16-.19.47.47 0 00-.26-.06c-.1 0-.21.02-.3.06a.56.56 0 00-.21.2c-.07.08-.12.18-.16.3-.05.1-.08.23-.1.36l-.08.46c-.03.13-.04.26-.04.37 0 .11.03.21.06.3a.4.4 0 00.16.19c.07.04.16.06.26.06z" fill="#333" style="
    fill: white;
"></path><path d="M147.53 39.96c.45-.4.53-1.04.2-1.41-.35-.37-.99-.34-1.43.06-.45.41-.53 1.04-.19 1.42.34.37.98.34 1.42-.07z" fill="#FF444F"></path><path d="M147.53 39.96c.45-.4.53-1.04.2-1.41-.35-.37-.99-.34-1.43.06-.45.41-.53 1.04-.19 1.42.34.37.98.34 1.42-.07z" fill="#FF444F"></path><path d="M190.39 39.5h-.8l.07-.41h.8l-.07.4zm-1.6 0h-.8l.06-.41h.8l-.07.4zm-1.61 0h-.8l.07-.41h.8l-.07.4zm-1.6 0h-.8l.07-.41h.8l-.07.4zm-1.6 0h-.81l.07-.41h.8l-.07.4zm-1.61 0h-.8l.07-.41h.8l-.07.4zm-1.6 0h-.8l.06-.41h.8l-.07.4zm-1.61 0h-.8l.07-.41h.8l-.07.4zm-1.6 0h-.8l.07-.41h.8l-.07.4zm-1.6 0h-.81l.07-.41h.8l-.07.4zm-1.61 0h-.8l.07-.41h.8l-.07.4zm-1.6 0h-.8l.06-.41h.8l-.07.4zm-1.61 0h-.8l.07-.41h.8l-.07.4zm-1.6 0h-.8l.07-.41h.8l-.07.4zm-1.6 0h-.81l.07-.41h.8l-.07.4zm-1.61 0h-.8l.07-.41h.8l-.07.4zm-1.6 0h-.8l.06-.41h.8l-.07.4zm-1.61 0h-.8l.07-.41h.8l-.07.4zm-1.6 0h-.8l.07-.41h.8l-.08.4zm-1.6 0h-.81l.07-.41h.8l-.07.4zm-1.61 0h-.8l.07-.41h.8l-.07.4zm-1.6 0h-.8l.06-.41h.8l-.07.4zm-1.61 0h-.8l.07-.41h.8l-.07.4zm-1.6 0h-.8l.07-.41h.8l-.07.4zm-1.6 0h-.81l.07-.41h.8l-.07.4zm-1.61 0h-.8l.07-.41h.8l-.07.4zm-1.6 0h-.8l.06-.41h.8l-.07.4zM193.56 44.46l1.77-10.03-4.9 5.01 3.13 5.02zM195.34 34.43h14.52l-1.76 10.03h-14.54l1.78-10.03z" fill="#FF444F"></path><path d="M197.99 39c.15 0 .26-.02.34-.08a.33.33 0 00.14-.22v-.02c.03-.1 0-.19-.05-.24-.05-.07-.13-.1-.25-.1a.7.7 0 00-.34.1c-.1.05-.2.13-.3.24l-.31-.36a1.42 1.42 0 01.71-.43c.1-.02.21-.03.33-.03.15 0 .28.02.4.05.11.03.2.09.28.15.08.07.13.14.16.24.04.09.05.2.02.3a.63.63 0 01-.09.25.68.68 0 01-.14.18.75.75 0 01-.41.2v.02c.06.02.14.04.2.08a.5.5 0 01.25.34.8.8 0 01-.14.6.98.98 0 01-.25.26c-.1.08-.23.13-.37.17a1.64 1.64 0 01-.82.02c-.1-.03-.19-.06-.26-.11a.93.93 0 01-.19-.17 1.04 1.04 0 01-.12-.2l.51-.35c.04.1.1.2.18.28.08.07.2.1.35.1.13 0 .25-.03.33-.1a.47.47 0 00.17-.28v-.02c.02-.11 0-.2-.08-.26a.55.55 0 00-.34-.09h-.25l.09-.5h.25V39zm1.66 1.74c-.12 0-.2-.04-.25-.1-.04-.06-.05-.13-.04-.23l.02-.08c.02-.1.06-.17.12-.23.07-.06.16-.08.28-.08.13 0 .2.03.26.08.05.06.06.14.05.23l-.02.08a.38.38 0 01-.13.24.42.42 0 01-.28.09zm1.83 0c-.37 0-.62-.13-.75-.38-.13-.26-.15-.61-.07-1.07.08-.47.24-.81.45-1.07.22-.26.52-.38.89-.38.36 0 .61.13.74.38s.16.6.07 1.07a2.2 2.2 0 01-.45 1.07c-.22.25-.52.38-.88.38zm.09-.51c.16 0 .28-.06.36-.18.08-.12.15-.29.18-.5l.1-.52a1.1 1.1 0 000-.5c-.04-.12-.14-.18-.3-.18-.16 0-.29.06-.37.18-.08.12-.14.29-.17.5l-.1.52c-.04.21-.03.38 0 .5.04.12.13.18.3.18zm2.31.5c-.36 0-.61-.12-.74-.37-.13-.26-.15-.61-.07-1.07.08-.47.23-.81.45-1.07.22-.25.52-.38.88-.38.37 0 .62.13.75.38s.15.6.07 1.07a2.2 2.2 0 01-.45 1.07c-.22.25-.52.38-.89.38zm.1-.5c.16 0 .28-.06.36-.18.08-.12.14-.29.18-.5l.1-.52a1.1 1.1 0 000-.5c-.05-.12-.14-.18-.3-.18-.17 0-.29.06-.37.18-.08.12-.14.29-.18.5l-.1.52c-.04.21-.04.38 0 .5s.14.18.3.18z" fill="#fff"></path><path d="M186.98 128H54.12c-4.02 0-6.72-3.27-6-7.3L68.1 7.3c.71-4.03 4.55-7.3 8.58-7.3h132.86c4.02 0 6.71 3.27 6 7.3l-20 113.4c-.71 4.03-4.55 7.3-8.58 7.3zM76.54.81c-3.57 0-6.99 2.9-7.62 6.48l-20 113.42c-.64 3.57 1.76 6.48 5.34 6.48h132.86c3.57 0 6.99-2.9 7.62-6.48l20-113.42c.63-3.57-1.76-6.48-5.34-6.48H76.54z" fill="#E6E9E9"></path><path d="M76.55.81h9.55L63.8 127.28h-9.35c-3.7 0-6.17-3-5.51-6.69L68.92 7.31a8.08 8.08 0 017.63-6.5z" fill="url(#paint1_linear_13947_9849)"></path><path d="M69.07 7.3l-1.61 9.15h145.82l1.58-8.96c.62-3.55-2.33-6.43-6.59-6.43H77.66c-4.14 0-7.98 2.79-8.6 6.23z" fill="url(#paint2_linear_13947_9849)"></path><defs><linearGradient id="paint0_linear_13947_9849" x1="77.51" y1="59.14" x2="14.71" y2="48.46" gradientUnits="userSpaceOnUse"><stop stop-color="#85ACB0"></stop><stop offset="1" stop-color="#fff" stop-opacity="0"></stop></linearGradient><linearGradient id="paint1_linear_13947_9849" x1="-345.79" y1="64.04" x2="-333.15" y2="64.04" gradientUnits="userSpaceOnUse"><stop stop-color="#fff"></stop><stop offset="1" stop-color="#fff" stop-opacity="0"></stop></linearGradient><linearGradient id="paint2_linear_13947_9849" x1="184.28" y1="-200.28" x2="182.14" y2="-188.11" gradientUnits="userSpaceOnUse"><stop stop-color="#fff"></stop><stop offset="1" stop-color="#fff" stop-opacity="0"></stop></linearGradient></defs></svg>