<svg xmlns="http://www.w3.org/2000/svg" viewBox="-17807.5 -21099.5 142 142"><defs><style>.cls-1,.cls-3{fill:#f2f2f2}.cls-1{stroke:#cecdcd;stroke-width:2px}.cls-2{fill:#2a3052}.cls-4{fill:#e98024}</style></defs><g id="Group_1081" data-name="Group 1081" transform="translate(-18051.5 -22097.5)"><path id="XMLID_1056_" class="cls-1" transform="translate(245.001 999)" d="M0 0h140v140H0z"/><g id="Group_1082" data-name="Group 1082" transform="translate(265.5 1021.499)"><g id="Group_1084" data-name="Group 1084"><path id="Rectangle_693" data-name="Rectangle 693" class="cls-2" transform="translate(2 69.4)" d="M0 0h62v2H0z"/></g><g id="Group_1085" data-name="Group 1085"><path id="Path_5738" data-name="Path 5738" class="cls-2" d="M71 80.4H0v-18h6v-29H0V19.3L35.5 0 71 19.3v14.1h-6v29h6zm-69-2h67v-14h-6v-33h6V20.5L35.5 2.3 2 20.5v10.9h6v33H2z"/></g><g id="Group_1086" data-name="Group 1086"><path id="Rectangle_694" data-name="Rectangle 694" class="cls-2" transform="translate(15 31.4)" d="M0 0h2v32H0z"/></g><g id="Group_1087" data-name="Group 1087"><path id="Rectangle_695" data-name="Rectangle 695" class="cls-2" transform="translate(30 31.4)" d="M0 0h2v32H0z"/></g><g id="Group_1088" data-name="Group 1088"><path id="Rectangle_696" data-name="Rectangle 696" class="cls-2" transform="translate(39 31.4)" d="M0 0h2v32H0z"/></g><g id="Group_1089" data-name="Group 1089"><path id="Rectangle_697" data-name="Rectangle 697" class="cls-2" transform="translate(54 31.4)" d="M0 0h2v32H0z"/></g><g id="Group_1090" data-name="Group 1090"><path id="Rectangle_698" data-name="Rectangle 698" class="cls-2" transform="translate(6 31.4)" d="M0 0h59v2H0z"/></g><g id="Group_1091" data-name="Group 1091"><path id="Rectangle_699" data-name="Rectangle 699" class="cls-2" transform="translate(5 62.4)" d="M0 0h60v2H0z"/></g><g id="Group_1092" data-name="Group 1092"><path id="Path_5739" data-name="Path 5739" class="cls-3" d="M68.9 94.4h28.2a1.988 1.988 0 0 0 1.9-2v-36a1.923 1.923 0 0 0-1.9-2H68.9a1.988 1.988 0 0 0-1.9 2v36a1.923 1.923 0 0 0 1.9 2z"/><path id="Path_5740" data-name="Path 5740" class="cls-4" d="M97.1 95.3H68.9a2.883 2.883 0 0 1-2.8-2.9v-36a2.883 2.883 0 0 1 2.8-2.9h28.2a2.883 2.883 0 0 1 2.8 2.9v36a2.818 2.818 0 0 1-2.8 2.9zm-28.2-40a1.1 1.1 0 0 0-1 1.1v36a1.028 1.028 0 0 0 1 1.1h28.2a1.1 1.1 0 0 0 1-1.1v-36a1.028 1.028 0 0 0-1-1.1H68.9z"/></g><g id="Group_1093" data-name="Group 1093"><path id="Rectangle_700" data-name="Rectangle 700" class="cls-4" transform="translate(67 61.5)" d="M0 0h32v1.9H0z"/></g><g id="Group_1094" data-name="Group 1094"><path id="Rectangle_701" data-name="Rectangle 701" class="cls-4" transform="translate(67 69.5)" d="M0 0h32v1.9H0z"/></g><g id="Group_1095" data-name="Group 1095"><path id="Rectangle_702" data-name="Rectangle 702" class="cls-4" transform="translate(67 77.5)" d="M0 0h32v1.9H0z"/></g><g id="Group_1096" data-name="Group 1096"><path id="Rectangle_703" data-name="Rectangle 703" class="cls-4" transform="translate(67 85.5)" d="M0 0h32v1.9H0z"/></g><g id="Group_1103" data-name="Group 1103"><g id="Group_1099" data-name="Group 1099"><g id="Group_1097" data-name="Group 1097"><path id="Path_5741" data-name="Path 5741" class="cls-3" d="M52 94.4a16 16 0 1 1 16-16 16.047 16.047 0 0 1-16 16z"/></g><g id="Group_1098" data-name="Group 1098"><path id="Path_5742" data-name="Path 5742" class="cls-4" d="M52 63.4a15 15 0 1 1-15 15 14.98 14.98 0 0 1 15-15m0-2a17 17 0 1 0 17 17 16.986 16.986 0 0 0-17-17z"/></g></g><g id="Group_1100" data-name="Group 1100"><path id="Path_5743" data-name="Path 5743" class="cls-4" d="M53.2 85.4H48v-2h5.2a.789.789 0 0 0 .8-.8v-2.3a.789.789 0 0 0-.8-.8h-1.9a3.222 3.222 0 0 1-3.2-3.2v-1.5a3.159 3.159 0 0 1 3.2-3.2H55v2h-3.8a1.216 1.216 0 0 0-1.2 1.2v1.5a1.216 1.216 0 0 0 1.2 1.2h1.9a2.8 2.8 0 0 1 2.8 2.8v2.3a2.711 2.711 0 0 1-2.7 2.8z"/></g><g id="Group_1101" data-name="Group 1101"><path id="Rectangle_704" data-name="Rectangle 704" class="cls-4" transform="translate(51 68.4)" d="M0 0h2v4H0z"/></g><g id="Group_1102" data-name="Group 1102"><path id="Rectangle_705" data-name="Rectangle 705" class="cls-4" transform="translate(51 84.4)" d="M0 0h2v3H0z"/></g></g></g></g></svg>