<svg id="Layer_1" xmlns="http://www.w3.org/2000/svg" viewBox="0 0 140 140"><style>.st0{fill:#f2f2f2;stroke:#cecdcd;stroke-width:2}.st1,.st2,.st3,.st4,.st5{fill:none;stroke:#2a3052;stroke-width:1.8138;stroke-miterlimit:10}.st2,.st3,.st4,.st5{stroke-width:1.5947}.st3,.st4,.st5{stroke-width:2}.st4,.st5{stroke:#e88024;stroke-width:1.8138}.st5{stroke-width:2}</style><g id="XMLID_836_"><path id="XMLID_1056_" class="st0" d="M1 1h138v138H1z"/><g id="XMLID_837_"><g id="XMLID_902_"><g id="XMLID_195_"><path class="st1" d="M88.8 73.3v45.5H21V51h45.5l22.3 22.3zM66 50.3v22.8h22.8M30.8 67.8h24.7m-24.7 6.1h24.7M30.8 89.1h46m.1 7.1h-46m46 7.2h-46"/><g><path class="st2" d="M88.8 73.3v45.5H21V51h45.5l22.3 22.3zM66 50.3v22.8h22.8M30.8 67.8h24.7m-24.7 6.1h24.7M30.8 89.1h46m.1 7.1h-46m46 7.2h-46"/></g></g><path id="XMLID_187_" class="st1" d="M51.2 51.3V21.2h45.5L119 43.5V89H88.6m7.6-68.5v22.8H119M85.8 38H61m24.8 6.1H61m46 15.2H74.7m7.1 7.1H107m0 7.2H89"/><g><g id="XMLID_165_"><path class="st3" d="M88.8 73.3v45.5H21V51h45.5l22.3 22.3zM66 50.3v22.8h22.8M30.8 67.8h24.7m-24.7 6.1h24.7M30.8 89.1h46m.1 7.1h-46m46 7.2h-46"/><path class="st3" d="M88.8 73.3v45.5H21V51h45.5l22.3 22.3zM66 50.3v22.8h22.8M30.8 67.8h24.7m-24.7 6.1h24.7M30.8 89.1h46m.1 7.1h-46m46 7.2h-46"/><g><path class="st3" d="M88.8 73.3v45.5H21V51h45.5l22.3 22.3zM66 50.3v22.8h22.8M30.8 67.8h24.7m-24.7 6.1h24.7M30.8 89.1h46m.1 7.1h-46m46 7.2h-46"/></g></g><path id="XMLID_157_" class="st3" d="M51.2 51.3V21.2h45.5L119 43.5V89H88.6m7.6-68.5v22.8H119M85.8 38H61m24.8 6.1H61m46 15.2H74.7m7.1 7.1H107m0 7.2H89"/></g></g><g id="XMLID_838_"><path id="XMLID_35_" class="st4" d="M36.7 52.6c0-11.2 9.1-20.3 20.3-20.3M30.1 49.1l6.6 6.6 6.6-6.6"/><path id="XMLID_32_" class="st4" d="M100.7 86.7c0 11.2-9.1 20.3-20.3 20.3m26.8-16.8l-6.6-6.6-6.6 6.6"/><g><path id="XMLID_29_" class="st5" d="M36.7 52.6c0-11.2 9.1-20.3 20.3-20.3M30.1 49.1l6.6 6.6 6.6-6.6"/><path id="XMLID_26_" class="st5" d="M100.7 86.7c0 11.2-9.1 20.3-20.3 20.3m26.8-16.8l-6.6-6.6-6.6 6.6"/></g></g></g></g></svg>