<svg id="Layer_1" xmlns="http://www.w3.org/2000/svg" viewBox="0 0 36 36"><style>.st0{fill:#2aaae2}</style><path class="st0" d="M0 0v36h36V0H0zm5.6 20.9H4.5v-4.7H3.3v-.8l2.3-.2v5.7zm22.1 6.3H9.2V8.8h18.5v18.4zm4.8-6.7c-.3.4-.8.5-1.4.5-.5 0-1-.1-1.3-.4-.4-.3-.6-.7-.5-1.2l1.1-.1c0 .3.1.5.2.6.1.1.3.2.6.2s.5-.1.6-.3.2-.4.2-.7c0-.3-.1-.6-.2-.8s-.5-.3-.8-.3c-.2 0-.4 0-.5.1-.1.1-.2.2-.2.3l-1-.1.3-3.2h3.2v.9h-2.2l-.2 1.3c.1-.1.2-.1.4-.2s.3-.1.5-.1c.5 0 1 .2 1.3.5.3.3.5.8.5 1.4-.1.7-.3 1.2-.6 1.6z"/><path class="st0" d="M26.2 10.2H10.7v15.5h15.5V10.2zm-6.1 11c-.6.5-1.4.7-2.4.7-.9 0-1.6-.2-2.2-.7-.6-.5-.9-1.1-.9-1.9h1.8c0 .4.1.6.4.9s.6.3 1 .3.8-.1 1-.4c.2-.2.4-.6.4-1 0-.5-.1-.8-.4-1.1s-.6-.3-1.1-.3h-1v-1.4h1c.4 0 .8-.1 1-.3s.3-.6.3-1-.1-.7-.3-.9-.5-.3-.9-.3c-.3 0-.6.1-.9.3-.2.2-.4.5-.4.8h-1.8c0-.7.3-1.3.8-1.8.6-.5 1.3-.7 2.2-.7 1 0 1.7.2 2.3.7s.9 1.1.9 2c0 .4-.1.8-.4 1.1-.3.4-.6.6-1 .8.5.2.9.5 1.2.8.3.4.4.8.4 1.3-.1 1-.4 1.6-1 2.1z"/></svg>