<svg id="Layer_1" xmlns="http://www.w3.org/2000/svg" viewBox="0 0 36 36"><style>.st0{fill:#2aaae2}</style><path class="st0" d="M31.2 18c-.2 0-.4 0-.5.1-.1.1-.3.2-.3.3v.4c0 .5.1.8.2 1 .2.2.4.4.7.4.2 0 .4-.1.6-.3.1-.2.2-.5.2-.8 0-.3-.1-.6-.2-.8s-.5-.3-.7-.3zM26.2 10.2H10.7v15.5h15.5V10.2zm-4.9 9.6h-1v2h-1.8v-2h-3.8l-.1-1.1 3.8-6.1h1.9v5.8h1v1.4z"/><path class="st0" d="M18.2 15.3l-1.9 3.1h2.1V15h-.1z"/><path class="st0" d="M0 0v36h36V0H0zm6.9 20.9H3v-.7l1.8-2c.3-.3.5-.6.6-.8.1-.2.2-.4.2-.6 0-.2-.1-.4-.2-.6s-.3-.2-.5-.2c-.3 0-.5.1-.6.3-.1.2-.2.4-.2.7H3c0-.5.2-.9.5-1.3s.8-.5 1.4-.5c.6 0 1 .2 1.4.5s.5.7.5 1.2c0 .3-.1.7-.3 1-.2.3-.5.7-.9 1.1l-1 1.1H7v.8zm20.8 6.3H9.2V8.8h18.5v18.4zm4.8-6.8c-.4.4-.8.6-1.4.6-.6 0-1.1-.2-1.5-.6-.4-.4-.6-1-.6-1.7v-1.1c0-.7.2-1.3.6-1.8.4-.4 1-.7 1.6-.7.2 0 .4 0 .6.1.2 0 .4.1.5.2l-.2.8c-.2-.1-.3-.1-.5-.1h-.5c-.3 0-.6.1-.8.4-.2.3-.3.6-.3 1.1.1-.1.3-.2.5-.3.2-.1.4-.1.7-.1.5 0 .9.2 1.2.5.3.4.4.8.4 1.4.3.5.1 1-.3 1.3z"/></svg>