<svg xmlns="http://www.w3.org/2000/svg" width="16" height="16" viewBox="0 0 16 16">
    <path fill="#000" fill-rule="nonzero" d="M14.246.703a2.38 2.38 0 0 0-3.378 0l-9.467 9.515a.534.534 0 0 0-.137.235L.02 14.97a.535.535 0 0 0 .136.52.53.53 0 0 0 .517.137l4.495-1.252a.53.53 0 0 0 .234-.137l9.467-9.515a2.411 2.411 0 0 0 0-3.394l-.622-.626zm-11.69 9.862l7.75-7.788 2.498 2.512-7.748 7.787-2.5-2.511zm-.498 1.006l1.996 2.007-2.761.769.765-2.776zm12.06-7.602l-.563.565-2.5-2.511.564-.566a1.322 1.322 0 0 1 1.876 0l.623.626a1.34 1.34 0 0 1 0 1.886z"/>
</svg>
