<svg width="32" height="32" fill="none" xmlns="http://www.w3.org/2000/svg"><path d="M2 11a9 9 0 1 1 18 0 9 9 0 1 1-18 0z" fill="#F3BA2F"/><path d="M12.761 10.267c-.043-.007-.067-.034-.09-.06l-.019-.02-.219-.219c-.443-.442-.886-.884-1.325-1.331-.085-.087-.13-.087-.216 0-.285.29-.572.578-.86.866-.228.228-.456.457-.682.686-.074.075-.116.084-.196.001a33.606 33.606 0 0 0-.839-.837c-.072-.07-.068-.113 0-.18.875-.872 1.748-1.745 2.619-2.62.055-.056.085-.05.137.002.868.871 1.738 1.742 2.609 2.61.07.07.084.115.005.191-.197.191-.391.386-.585.58l-.255.256c-.019.02-.04.036-.058.053a2.261 2.261 0 0 0-.026.022zM13.741 12.76a.951.951 0 0 1-.042.046l-.603.604c-.676.679-1.353 1.358-2.028 2.038-.057.057-.085.047-.136-.004-.874-.88-1.75-1.759-2.628-2.635-.063-.063-.06-.1.001-.16.296-.288.591-.578.88-.874.069-.07.104-.034.144.008l.013.013.353.354h.001c.402.402.803.803 1.2 1.21.091.093.131.077.213-.006.26-.266.523-.53.786-.792.25-.251.5-.502.748-.754.085-.086.133-.085.217.002.192.2.388.394.584.59l.254.252.016.015c.02.018.043.037.044.074l-.01.01a.553.553 0 0 1-.007.009z" fill="#fff"/><path d="m10.971 12 .014.01c.04.004.058-.016.077-.035l.005-.006.003-.003.236-.237c.22-.219.438-.438.66-.653.061-.06.065-.094.002-.156a91.235 91.235 0 0 1-.91-.914c-.038-.039-.063-.05-.107-.006-.31.315-.621.63-.935.941-.051.05-.034.072.008.113.21.209.418.419.626.628l.282.284c.012.013.027.024.04.034zM14.5 9.993l.019.018.051.047.253.252c.215.213.43.427.646.638.037.037.044.05.004.09-.31.304-.618.61-.924.918-.046.046-.073.056-.125.003a60.604 60.604 0 0 0-.886-.886c-.062-.062-.062-.095 0-.156.214-.208.424-.42.635-.63a186.772 186.772 0 0 1 .255-.257c.017-.019.034-.038.071-.037zM7.492 11.991a.714.714 0 0 1 .011.01c.03.002.043-.012.056-.026l.007-.006.233-.232.702-.696c.032-.032.035-.06-.004-.098a71.718 71.718 0 0 1-.908-.9c-.058-.059-.09-.056-.146.002-.303.305-.61.607-.917.908-.033.034-.036.048 0 .082l.697.691.238.236.031.03zM12 21a9 9 0 1 1 18 0 9 9 0 1 1-18 0z" fill="#fff"/><path fill-rule="evenodd" clip-rule="evenodd" d="M20.62 12c-1.734.1-3.335.69-4.668 1.633h10.386A8.956 8.956 0 0 0 21.671 12H20.62zm-6.428 3.266a8.985 8.985 0 0 0-1.067 1.633h16.041a8.973 8.973 0 0 0-1.068-1.633H14.192zm-2.155 4.915c.05-.56.15-1.106.298-1.633h17.317c.148.527.25 1.072.299 1.633H12.037zm.003 1.633c.053.561.158 1.107.308 1.633H29.64a8.897 8.897 0 0 0 .308-1.633H12.041zm2.04 4.899a8.99 8.99 0 0 1-1.083-1.633H28.99a8.981 8.981 0 0 1-1.082 1.633H14.08zm6.533 3.256.028.001.027.001a8.86 8.86 0 0 0 5.454-1.625H15.866a8.859 8.859 0 0 0 4.747 1.623z" fill="#F44336"/><path d="M20.808 12.004a8.991 8.991 0 0 0-8.77 8.179h8.77v-8.18z" fill="#283991"/><path d="m13.8 17.084.137.421h.444l-.36.26.138.422-.36-.26-.358.26.137-.422-.36-.26h.445l.137-.42zM13.8 18.572l.137.42h.444l-.36.261.138.421-.36-.26-.358.26.137-.42-.36-.261h.445l.137-.421zM15.29 14.852l.138.422h.443l-.359.26.137.421-.358-.26-.36.26.138-.42-.36-.261h.444l.137-.421zM15.29 16.34l.138.421h.443l-.359.26.137.422-.358-.26-.36.26.138-.422-.36-.26h.444l.137-.42zM15.29 17.828l.138.421h.443l-.359.26.137.421-.358-.26-.36.26.138-.42-.36-.26h.444l.137-.422zM12.668 18.93l-.137-.42.359-.261h-.444l-.01-.03c-.049.15-.093.302-.133.456l.006-.005.359.26zM13.44 16.7l.36-.261.359.26-.138-.421.36-.26h-.444l-.137-.422-.138.421H13.5l-.09.14.169.12-.137.422zM15.29 14.207l.36.26-.138-.42.36-.261h-.257a8.915 8.915 0 0 0-.63.516l-.054.165.36-.26zM16.422 13.724l.36-.26.358.26-.137-.422.359-.26h-.444l-.018-.056c-.15.076-.3.156-.445.24l.104.076-.137.422zM16.781 14.109l.137.42h.444l-.359.261.137.421-.359-.26-.359.26.137-.42-.359-.261h.444l.137-.421zM16.781 15.596l.137.421h.444l-.359.26.137.422-.359-.26-.359.26.137-.421-.359-.26h.444l.137-.422zM16.781 17.084l.137.421h.444l-.359.26.137.422-.359-.26-.359.26.137-.422-.359-.26h.444l.137-.42zM16.781 18.572l.137.42h.444l-.359.261.137.421-.359-.26-.359.26.137-.42-.359-.261h.444l.137-.421zM18.272 13.365l.137.42h.444l-.359.261.137.421-.359-.26-.36.26.138-.42-.359-.261h.444l.137-.421zM18.272 14.852l.137.422h.444l-.359.26.137.421-.359-.26-.36.26.138-.42-.359-.261h.444l.137-.421zM18.272 16.34l.137.421h.444l-.359.26.137.422-.359-.26-.36.26.138-.422-.359-.26h.444l.137-.42zM18.272 17.828l.137.421h.444l-.359.26.137.421-.359-.26-.36.26.138-.42-.359-.26h.444l.137-.422zM19.763 12.621l.137.421h.444l-.36.26.138.422-.36-.26-.358.26.137-.422-.36-.26h.445l.137-.42zM19.763 14.109l.137.42h.444l-.36.261.138.421-.36-.26-.358.26.137-.42-.36-.261h.445l.137-.421zM19.763 15.596l.137.421h.444l-.36.26.138.422-.36-.26-.358.26.137-.421-.36-.26h.445l.137-.422zM19.763 17.084l.137.421h.444l-.36.26.138.422-.36-.26-.358.26.137-.422-.36-.26h.445l.137-.42zM19.763 18.572l.137.42h.444l-.36.261.138.421-.36-.26-.358.26.137-.42-.36-.261h.445l.137-.421z" fill="#EFEFEF"/></svg>