<svg width="32" height="32" xmlns="http://www.w3.org/2000/svg" fill="none"><path fill="#D2D3DA" d="M17.514 4.857 21.8 12H27a1 1 0 1 1 0 2H5a1 1 0 1 1 0-2h5.2l4.285-7.143a1.766 1.766 0 0 1 3.03 0h-.001zM13.186 12l2.729-4.605a.1.1 0 0 1 .172 0L18.815 12h-5.63.001zm12.534 4a1 1 0 0 1 .97 1.242l-2.5 10a1 1 0 0 1-.97.758H8.78a1 1 0 0 1-.97-.758l-2.5-10A1 1 0 0 1 6.28 16h19.44zM10 20a1 1 0 1 1 2 0v4a1 1 0 1 1-2 0v-4zm6-1a1 1 0 0 0-1 1v4a1 1 0 1 0 2 0v-4a1 1 0 0 0-1-1zm4 1a1 1 0 1 1 2 0v4a1 1 0 1 1-2 0v-4z" clip-rule="evenodd" fill-rule="evenodd"/><g stroke="null"><path fill="#fff" d="M18.778.222h11.88a1.188 1.241 0 0 1 1.188 1.242v7.448a1.188 1.241 0 0 1-1.188 1.242h-11.88a1.188 1.241 0 0 1-1.188-1.242V1.464A1.188 1.241 0 0 1 18.778.222"/><path fill="#f44336" d="M30.361.843h-6.118v.136h6.587a.897.937 0 0 0-.469-.136m.297-.62h-.297a1.491 1.558 0 0 1 1.277.756h.113a1.188 1.241 0 0 0-1.093-.757M31.252 1.743h-7.01V2.5h7.01v-.757m.594 0V2.5v-.757M31.252 3.264h-7.01v.757h7.01v-.757m.594 0v.757-.757M31.252 4.778h-7.01v.764h7.01v-.764m.594 0v.764-.764M31.252 6.299H18.184v.751h13.068V6.3m.594 0v.751V6.3M30.902 9.34H18.534a.897.937 0 0 0 .54.193h11.287a.897.937 0 0 0 .54-.192m.874 0h-.107a1.485 1.552 0 0 1-1.307.813H19.075a1.485 1.552 0 0 1-1.307-.813h-.107a1.188 1.241 0 0 0 1.117.813h11.88a1.188 1.241 0 0 0 1.117-.813m-.523-1.521H18.184v.757h13.068V7.82m.594 0v.757-.757"/><path d="M17.59.222h14.256v9.932H17.59V.222"/><path fill="#0d47a1" d="M18.778.222h5.465v5.32H17.59V1.464A1.188 1.241 0 0 1 18.778.222"/><path fill="#f5f5f5" d="m18.237.843.06.174h.172l-.143.111.054.174-.143-.105-.142.105v-.149l-.143-.111h.19l.042-.2h.036m0 .907.059.174h.172l-.107.161.054.174-.143-.105-.142.105-.018-.174-.143-.136h.178l.054-.217h.036m0 .906.059.174h.172l-.142.105.053.174-.142-.106-.143.106.053-.174-.178-.056h.19l.042-.223h.036m0 .906.059.174h.172l-.142.112.053.173-.142-.056-.143.112.053-.174-.178-.124h.178l.054-.217h.036m0 .912.059.174h.172l-.142.112.053.174-.142-.037-.143.105.053-.174-.178-.136h.19l.042-.218h.036m.695-3.19.053.199h.178v.03l-.142.106.053.18-.142-.105-.137.124V1.6l-.149-.136h.179l.053-.174h.042m0 .906.053.174h.178l-.142.105.077.23-.143-.105-.148.105V2.5l-.155-.105h.185l.053-.174h.042m0 .912.053.174h.178l-.142.112.053.174-.142-.106-.125.124v-.198l-.149-.087h.179l.053-.174h.042m0 .906.053.174h.178l-.119.087.054.174-.143-.106-.148.137v-.205l-.143-.106h.184l.054-.173h.042m.67-3.197.06.174h.172l-.142.111.053.174-.142-.105-.143.105h-.071l.06-.174-.143-.111h.202l.06-.174h.035m0 .906.06.174h.177l-.13.161.053.174h-.036l-.142-.105-.143.105h-.053l.071-.174-.142-.111h.178l.053-.174h.042m0 .906.06.174h.172l-.143.105.053.174-.142-.105-.143.105h-.06l.06-.174-.142-.105h.202l.06-.18h.035m0 .906.06.174h.171l-.142.112.053.173-.166-.118-.143.112h-.047l.053-.174-.13-.124h.178l.06-.174h.035m0 .913.06.174h.172l-.143.111.053.174-.148-.08-.143.105h-.047l.06-.174-.143-.111h.202l.06-.174h.035m.677-3.259.053.199h.179l-.143.105.053.18-.142-.105-.143.105.06-.174-.214-.111h.178l.054-.174h.065m0 .906.053.174h.179l-.143.105.065.23-.142-.105-.178.105.053-.174-.184-.136h.184l.054-.174h.059m0 .912.053.174h.179v.019l-.143.112.053.173-.142-.105-.143.105.06-.173-.214-.112h.178l.054-.174h.065m0 .906.053.174h.179l-.143.106.053.173-.142-.105-.143.105.054-.173-.208-.125h.184l.054-.173h.059m.671-3.197.06.174h.16l-.119.136.06.174-.143-.105-.143.105.054-.174-.143-.111h.179v-.2h.035m0 .907.06.174h.16l-.119.161.06.174-.143-.105-.143.105-.023-.174-.143-.111h.178l.06-.174h.035m0 .906.06.174h.178l-.143.105.06.174-.143-.105-.142.105.053-.174-.142-.105h.178l.06-.174h.035m0 .906.06.174h.124l-.143.112.06.174-.16-.124-.143.111.053-.174-.178-.124h.178l.06-.173h.035m0 .912.06.174h.178l-.143.111.06.174-.16-.08-.143.105.06-.174-.143-.111h.178l.06-.174h.035m.647-3.259.06.18h.178v.019l-.143.105.048.205-.143-.106-.142.106.053-.18-.196-.13v-.031h.178l.054-.18h.042m0 .906.059.174h.178l-.142.105.059.267-.143-.105-.16.105.053-.174-.178-.136h.178l.054-.174h.042m0 .912.059.174h.178v.019l-.142.112.059.148-.143-.105-.142.105.053-.173-.196-.087h.178l.054-.174h.042m0 .906.059.174h.178l-.142.106.059.155-.143-.106-.142.106.053-.174-.142-.106h.178l.053-.173h.042m.63-3.197.059.174h.172l-.142.111.053.174-.142-.105-.143.105.054-.174-.143-.111h.172l.018-.174m0 .906.06.174h.172l-.083.161.053.174-.143-.105-.142.105-.018-.174-.143-.111h.173l.06-.174h.04m0 .906.06.174h.172l-.142.105.053.174-.142-.105-.143.105.054-.174-.143-.105h.172l.06-.174m0 .906.06.174h.171l-.142.112.053.174-.148-.124-.143.111.054-.174-.179-.124h.173l.06-.173h.04m0 .912.078.13h.172l-.142.112.053.174-.166-.037-.143.105.054-.174-.143-.111h.172l.06-.174m.677-3.259.071.199h.178v.03l-.142.106.053.18-.16-.087-.143.106.054-.18-.184-.155h.178l.095-.199m0 .906.053.174h.179l-.143.106.083.254-.172-.105-.149.105.054-.174-.178-.136h.178l.095-.224m0 .913.053.174h.179l-.143.111.054.174-.143-.037-.143.105.054-.173-.184-.112h.178l.095-.242m0 .906.053.174h.179l-.113.155.053.174-.172-.075-.143.106.054-.174-.143-.106h.179l.053-.254v-.043m.689-3.104.06.174h.172l-.143.111.054.174-.143-.105-.143.105h-.047l.06-.174-.143-.111h.178l.06-.174m0 .906.059.174h.172l-.089.161.053.174-.142-.105-.143.105h-.065l.042-.174-.143-.111h.196l.06-.174h.041m0 .906.06.174h.172l-.143.105.054.174-.143-.105-.143.105h-.053l.06-.174-.143-.105h.178l.06-.18m0 .906.059.174h.172l-.143.112.054.173-.125-.117-.142.111h-.03l.053-.174-.154-.124h.196l.06-.173h.041m0 .912.06.174h.172l-.143.112.054.173-.143-.105-.143.105h-.053l.06-.173-.143-.112h.178l.06-.174M30.361.222H19.075 30.36M18.184 8.577h-.594a1.485 1.552 0 0 0 .178.739h.766a.897.937 0 0 1-.35-.714m13.662 0h-.594a.897.937 0 0 1-.35.739h.766a1.485 1.552 0 0 0 .178-.74m-13.662-1.55h-.594v.756h.594V7.05m13.662 0h-.594v.757h.594V7.05M18.184 5.542h-.594v.757h.594v-.757m13.662 0h-.594v.757h.594v-.757m0-1.521h-.594v.757h.594v-.757m0-1.52h-.594v.763h.594V2.5M31.638.98h-.808a.903.944 0 0 1 .422.763h.594a1.515 1.583 0 0 0-.208-.764"/><path fill="#ea4034" d="M30.361.222h-6.118v.62h6.118a.897.937 0 0 1 .47.137h.807a1.491 1.558 0 0 0-1.277-.757M31.846 1.743h-.594V2.5h.594v-.757M31.846 3.264h-.594v.757h.594v-.757M31.846 4.778h-.594v.764h.594v-.764M18.184 6.299h-.594v.751h.594V6.3m13.662 0h-.594v.751h.594V6.3M31.668 9.34h-.766a.897.937 0 0 1-.54.193H19.074a.897.937 0 0 1-.54-.192h-.767a1.485 1.552 0 0 0 1.307.813H30.36a1.485 1.552 0 0 0 1.307-.813M18.184 7.82h-.594v.757h.594V7.82m13.662 0h-.594v.757h.594V7.82"/><path fill="#0c449b" d="M24.243.222h-5.168a1.485 1.552 0 0 0-1.485 1.552v3.768h.594V4.92l-.107.08.053-.173-.178-.155h.19l.042-.168V3.99l-.107.087.053-.174-.178-.143h.178l.054-.161v-.51l-.107.082.053-.174-.178-.137h.19l.042-.155v-.528l-.107.081.018-.174-.143-.136h.178l.054-.168a.88.919 0 0 1 .119-.465l-.084-.062-.142.105.018-.205-.143-.112h.19l.042-.198h.035l.06.174h.172l-.142.111v.062a.897.937 0 0 1 .766-.347h5.049v-.62"/><path fill="#ebebeb" d="m18.184 4.505-.042.124h-.172l.143.112-.054.174.125-.013v-.397m0-.906-.042.118h-.178l.143.112-.054.173.13-.012v-.391m0-.894-.04.124h-.173l.143.106-.072.205.143-.05v-.385m0-.925-.042.124h-.178l.13.18-.053.174.143-.08V1.78m.053-.937h-.053l-.06.174h-.154l.143.111-.054.174.143-.105.083.062a.772.807 0 0 1 .06-.093v-.062l.142-.112h-.19l-.06-.15m1.349 0h-.036.048m1.336 0h-.036.054m2.673 0h.048M22.27.807v.037h.012V.806"/></g></svg>