<svg width="32" height="32" fill="none" xmlns="http://www.w3.org/2000/svg"><path d="M29.5 26H29a.5.5 0 0 1 0-1h.5a.5.5 0 0 1 0 1zM27 26h-1a.5.5 0 0 1 0-1h1a.5.5 0 0 1 0 1zm-3 0h-1a.5.5 0 0 1 0-1h1a.5.5 0 0 1 0 1zm-3 0h-1a.5.5 0 0 1 0-1h1a.5.5 0 0 1 0 1zm-3 0h-1a.5.5 0 0 1 0-1h1a.5.5 0 0 1 0 1zm-3 0h-1a.5.5 0 0 1 0-1h1a.5.5 0 0 1 0 1zm-3 0h-1a.5.5 0 0 1 0-1h1a.5.5 0 0 1 0 1zm-3 0H8a.5.5 0 0 1 0-1h1a.5.5 0 0 1 0 1zm-3 0H5a.5.5 0 0 1 0-1h1a.5.5 0 0 1 0 1zM3 26h-.5a.5.5 0 0 1 0-1H3a.5.5 0 0 1 0 1z" fill="#E4E4E4"/><path fill-rule="evenodd" clip-rule="evenodd" d="M28.724 3.053a.5.5 0 0 1 .223.67l-10 20a.5.5 0 0 1-.854.068l-4.517-6.325-5.629 11.258a.5.5 0 0 1-.863.053l-4-6a.5.5 0 0 1 .832-.554l3.522 5.283 5.615-11.23a.5.5 0 0 1 .854-.067l4.517 6.325 9.629-19.258a.5.5 0 0 1 .67-.223z" fill="#85ACB0"/><path d="M5 22.5a1.5 1.5 0 1 1-3 0 1.5 1.5 0 0 1 3 0z" fill="#fff"/><path fill-rule="evenodd" clip-rule="evenodd" d="M3.5 23a.5.5 0 1 0 0-1 .5.5 0 0 0 0 1zm0 1a1.5 1.5 0 1 0 0-3 1.5 1.5 0 0 0 0 3z" fill="#85ACB0"/><path d="M9 28.5a1.5 1.5 0 1 1-3 0 1.5 1.5 0 0 1 3 0z" fill="#fff"/><path fill-rule="evenodd" clip-rule="evenodd" d="M7.5 29a.5.5 0 1 0 0-1 .5.5 0 0 0 0 1zm0 1a1.5 1.5 0 1 0 0-3 1.5 1.5 0 0 0 0 3z" fill="#85ACB0"/><path d="M15 16.5a1.5 1.5 0 1 1-3 0 1.5 1.5 0 0 1 3 0z" fill="#fff"/><path fill-rule="evenodd" clip-rule="evenodd" d="M13.5 17a.5.5 0 1 0 0-1 .5.5 0 0 0 0 1zm0 1a1.5 1.5 0 1 0 0-3 1.5 1.5 0 0 0 0 3z" fill="#85ACB0"/><path d="M20 23.5a1.5 1.5 0 1 1-3 0 1.5 1.5 0 0 1 3 0z" fill="#fff"/><path fill-rule="evenodd" clip-rule="evenodd" d="M18.5 24a.5.5 0 1 0 0-1 .5.5 0 0 0 0 1zm0 1a1.5 1.5 0 1 0 0-3 1.5 1.5 0 0 0 0 3z" fill="#85ACB0"/><path d="M30 3.5a1.5 1.5 0 1 1-3 0 1.5 1.5 0 0 1 3 0z" fill="#fff"/><path fill-rule="evenodd" clip-rule="evenodd" d="M28.5 4a.5.5 0 1 0 0-1 .5.5 0 0 0 0 1zm0 1a1.5 1.5 0 1 0 0-3 1.5 1.5 0 0 0 0 3z" fill="#85ACB0"/><path d="M17 2H3a1 1 0 0 0-1 1v6a1 1 0 0 0 1 1h14a1 1 0 0 0 1-1V3a1 1 0 0 0-1-1z" fill="#2A2A2A"/><path d="M4.326 8.443v-.658h1.372V4.131h-.056L4.508 5.342l-.483-.434L5.27 3.557h1.204v4.228h1.19v.658h-3.34zM11.463 4.243h-2.17l-.126 1.729h.049c.056-.098.114-.184.175-.259.06-.08.13-.147.21-.203a.862.862 0 0 1 .273-.126 1.569 1.569 0 0 1 .945.056c.182.07.338.17.469.301.135.13.24.292.315.483.075.187.112.399.112.637 0 .243-.04.467-.119.672a1.437 1.437 0 0 1-.336.532 1.61 1.61 0 0 1-.553.343c-.215.08-.46.119-.735.119-.22 0-.413-.026-.581-.077a1.773 1.773 0 0 1-.448-.189 1.982 1.982 0 0 1-.336-.28 3.247 3.247 0 0 1-.252-.329l.574-.455c.06.098.124.187.189.266.065.08.14.15.224.21.084.06.177.107.28.14.107.033.229.049.364.049.29 0 .511-.08.665-.238.159-.159.238-.378.238-.658v-.084c0-.28-.08-.5-.238-.658-.154-.159-.376-.238-.665-.238-.21 0-.378.04-.504.119a1.53 1.53 0 0 0-.322.266l-.651-.091.182-2.723h2.772v.686zM14.204 8.527c-.303 0-.567-.056-.79-.168a1.487 1.487 0 0 1-.554-.497 2.304 2.304 0 0 1-.322-.791A4.928 4.928 0 0 1 12.433 6c0-.397.035-.751.105-1.064.07-.317.178-.583.322-.798a1.43 1.43 0 0 1 .553-.49 1.69 1.69 0 0 1 .791-.175c.607 0 1.053.222 1.337.665.29.443.434 1.064.434 1.862s-.144 1.419-.434 1.862c-.284.443-.73.665-1.337.665zm0-.672c.168 0 .31-.033.427-.098a.808.808 0 0 0 .294-.294c.075-.126.129-.275.161-.448.033-.177.05-.373.05-.588v-.854c0-.215-.017-.408-.05-.581a1.378 1.378 0 0 0-.16-.455.816.816 0 0 0-.721-.392.854.854 0 0 0-.435.105.769.769 0 0 0-.287.287 1.374 1.374 0 0 0-.16.455 3.137 3.137 0 0 0-.05.581v.854c0 .215.017.41.05.588.032.173.086.322.16.448.075.126.17.224.287.294a.903.903 0 0 0 .434.098z" fill="#fff"/></svg>