<svg width="33" height="32" fill="none" xmlns="http://www.w3.org/2000/svg"><path d="M.666 2a2 2 0 0 1 2-2h15a2 2 0 0 1 2 2v6a2 2 0 0 1-2 2h-15a2 2 0 0 1-2-2V2Z" fill="#0E0E0E"/><path d="M7.146 3.464H4.61l-.12 1.768h.064c.053-.133.112-.253.176-.36.07-.112.15-.205.24-.28.09-.08.2-.141.328-.184.128-.042.28-.064.456-.064.24 0 .464.04.672.12a1.6 1.6 0 0 1 .912.912c.09.219.136.467.136.744 0 .283-.048.547-.144.792-.09.24-.23.448-.416.624a1.94 1.94 0 0 1-.672.416c-.267.096-.57.144-.912.144a2.66 2.66 0 0 1-.72-.088 2.26 2.26 0 0 1-.552-.232 2.042 2.042 0 0 1-.416-.344 2.457 2.457 0 0 1-.304-.408l.872-.688a2.2 2.2 0 0 0 .44.56c.17.15.4.224.688.224.288 0 .504-.082.648-.248.15-.165.224-.384.224-.656v-.064c0-.256-.075-.458-.224-.608-.15-.149-.355-.224-.616-.224-.219 0-.4.046-.544.136a1.423 1.423 0 0 0-.32.256l-.984-.136.208-3.16h3.416v1.048Zm3.021 4.632c-.73 0-1.272-.253-1.624-.76-.352-.506-.528-1.216-.528-2.128 0-.912.176-1.621.528-2.128.352-.506.893-.76 1.624-.76.73 0 1.272.254 1.624.76.352.507.528 1.216.528 2.128 0 .912-.176 1.622-.528 2.128-.352.507-.894.76-1.624.76Zm0-1.016c.32 0 .541-.117.664-.352.122-.234.184-.565.184-.992V4.68c0-.426-.062-.757-.184-.992-.123-.234-.344-.352-.664-.352-.32 0-.542.118-.664.352-.123.235-.184.566-.184.992v1.056c0 .427.061.758.184.992.122.235.344.352.664.352Zm4.797 1.016c-.731 0-1.272-.253-1.624-.76-.352-.506-.528-1.216-.528-2.128 0-.912.176-1.621.528-2.128.352-.506.893-.76 1.624-.76.73 0 1.272.254 1.624.76.352.507.528 1.216.528 2.128 0 .912-.176 1.622-.528 2.128-.352.507-.894.76-1.624.76Zm0-1.016c.32 0 .541-.117.664-.352.122-.234.184-.565.184-.992V4.68c0-.426-.062-.757-.184-.992-.123-.234-.344-.352-.664-.352-.32 0-.542.118-.664.352-.123.235-.184.566-.184.992v1.056c0 .427.061.758.184.992.122.235.344.352.664.352Z" fill="#fff"/><path d="m.666 17.414 7 7 3-3 7 7 3-3 6 6v-2.828l-6-6-3 3-7-7-3 3-7-7v2.828Z" fill="#FF444F"/><path d="m27.666 10 4.707 4.707-1.414 1.414-2.293-2.293V32h-1.414l-.586-.586V13.828l-2.293 2.293-1.414-1.414L27.666 10Z" fill="#85ACB0"/></svg>