<svg width="33" height="32" fill="none" xmlns="http://www.w3.org/2000/svg"><path fill-rule="evenodd" clip-rule="evenodd" d="M4.666 12v2h-2v-2h2Zm4 0v4h-2v-4h2Zm4 0v17h-2V12h2Zm4 14v6h-2v-6h2Z" fill="#FF444F"/><path fill-rule="evenodd" clip-rule="evenodd" d="M20.666 22v7h-2v-7h2Zm4-22v26h-2V0h2Zm4 4v8h-2V4h2Zm4 4v4h-2V8h2Z" fill="#85ACB0"/><path d="M.666 2a2 2 0 0 1 2-2h10a2 2 0 0 1 2 2v6a2 2 0 0 1-2 2h-10a2 2 0 0 1-2-2V2Z" fill="#0E0E0E"/><path d="M7.277 8H3.325V6.904l1.72-1.472a7.32 7.32 0 0 0 .392-.36c.107-.112.192-.218.256-.32.07-.106.117-.21.144-.312.032-.101.048-.21.048-.328V4a.586.586 0 0 0-.232-.48.88.88 0 0 0-.504-.16.901.901 0 0 0-.352.064.844.844 0 0 0-.256.176.945.945 0 0 0-.176.248c-.048.091-.085.19-.112.296l-1.048-.4c.064-.192.152-.373.264-.544.112-.176.25-.328.416-.456.17-.133.37-.237.6-.312a2.5 2.5 0 0 1 .776-.112c.304 0 .573.043.808.128.235.086.432.203.592.352.165.15.29.328.376.536.085.203.128.424.128.664 0 .24-.04.459-.12.656-.08.198-.19.384-.328.56-.133.171-.29.334-.472.488-.181.155-.37.312-.568.472l-1.04.816h2.64V8Zm4.565-4.536H9.306l-.12 1.768h.064c.053-.133.112-.253.176-.36.07-.112.15-.205.24-.28.09-.08.2-.141.328-.184.128-.042.28-.064.456-.064.24 0 .464.04.672.12a1.602 1.602 0 0 1 .912.912c.09.219.136.467.136.744 0 .283-.048.547-.144.792-.09.24-.23.448-.416.624a1.94 1.94 0 0 1-.672.416c-.267.096-.57.144-.912.144a2.66 2.66 0 0 1-.72-.088 2.26 2.26 0 0 1-.552-.232 2.043 2.043 0 0 1-.416-.344 2.457 2.457 0 0 1-.304-.408l.872-.688c.123.219.27.406.44.56.17.15.4.224.688.224.288 0 .504-.082.648-.248.15-.165.224-.384.224-.656v-.064c0-.256-.075-.458-.224-.608-.15-.149-.355-.224-.616-.224-.219 0-.4.046-.544.136a1.423 1.423 0 0 0-.32.256l-.984-.136.208-3.16h3.416v1.048Z" fill="#fff"/></svg>