<svg id="Layer_1" data-name="Layer 1" xmlns="http://www.w3.org/2000/svg" viewBox="0 0 32 32"><defs><style>.cls-2{fill:#fff}</style></defs><circle cx="25" cy="25" r="5" fill="#ef4852"/><path class="cls-2" fill="#FFF" d="M22.15 27.23v-.61h1.27v-3.39h-.05l-1.05 1.12-.45-.4L23 22.69h1.12v3.93h1.11v.61zm4.64.08a1.64 1.64 0 01-1.37-.64l.46-.42a1.3 1.3 0 00.42.36 1.12 1.12 0 00.53.13.76.76 0 00.47-.12.42.42 0 00.15-.34.41.41 0 00-.11-.28.61.61 0 00-.37-.14h-.31a1.66 1.66 0 01-.82-.3.85.85 0 01-.29-.71 1 1 0 01.09-.44 1 1 0 01.25-.32 1.27 1.27 0 01.4-.21 2 2 0 01.51-.07 1.74 1.74 0 01.74.14 1.68 1.68 0 01.52.4l-.43.42a1.06 1.06 0 00-.35-.27 1 1 0 00-.48-.12.63.63 0 00-.43.12.37.37 0 00-.14.31.36.36 0 00.12.29 1 1 0 00.4.14h.31a1.6 1.6 0 01.82.33.85.85 0 01.25.65 1.06 1.06 0 01-.09.45 1 1 0 01-.27.34 1.4 1.4 0 01-.42.22 1.94 1.94 0 01-.56.08z"/><path fill="none" d="M0 0h32v32H0z"/><path d="M29.93 11.76a.5.5 0 10-.86-.52L26.8 15h-.3a1.52 1.52 0 00-.79.23L22.91 13a1.37 1.37 0 00.09-.5 1.5 1.5 0 00-3 0 1.46 1.46 0 00.35.95L18.8 16a1.48 1.48 0 00-1.09.2l-2.8-2.2a1.37 1.37 0 00.09-.5 1.5 1.5 0 10-2.58 1L10.68 18h-.18a1.52 1.52 0 00-.79.23L6.91 16a1.48 1.48 0 000-.91A1.51 1.51 0 005.5 14a1.52 1.52 0 00-.42.06 1.5 1.5 0 00-1 1.86 1.43 1.43 0 00.53.76L3.47 20a1.51 1.51 0 10.95.32L5.53 17a1.52 1.52 0 00.42-.06 1.87 1.87 0 00.37-.17L9.09 19a1.37 1.37 0 00-.09.5 1.5 1.5 0 102.58-1l1.74-3.5h.18a1.52 1.52 0 00.79-.23l2.8 2.23a1.37 1.37 0 00-.09.49 1.5 1.5 0 003 0 1.46 1.46 0 00-.35-.95L21.2 14h.3a1.52 1.52 0 00.79-.23l2.8 2.23a1.37 1.37 0 00-.09.49 1.5 1.5 0 003 0 1.46 1.46 0 00-.35-.95zM3.5 22a.5.5 0 11.5-.5.5.5 0 01-.5.5zm.5-1.92zM5.64 16H5.5a.5.5 0 01-.14-1h.14a.5.5 0 01.14 1zm4.86 4a.5.5 0 11.5-.5.5.5 0 01-.5.5zm3-6a.5.5 0 11.5-.5.5.5 0 01-.5.5zm5 4a.5.5 0 11.5-.5.5.5 0 01-.5.5zm3-5a.5.5 0 11.5-.5.5.5 0 01-.5.5zm5 4a.5.5 0 11.5-.5.5.5 0 01-.5.5z" fill="#84aaaf"/><rect x="2" y="2" width="12" height="8" rx="1" fill="#2a2a2a"/><path class="cls-2" fill="#FFF" d="M7.44 4.24H5.27L5.14 6h.05a2.94 2.94 0 01.17-.26 1.31 1.31 0 01.21-.2.8.8 0 01.28-.13 1.28 1.28 0 01.36 0 1.63 1.63 0 01.59.1 1.31 1.31 0 01.46.3 1.35 1.35 0 01.32.48 1.92 1.92 0 010 1.31 1.34 1.34 0 01-.34.53 1.46 1.46 0 01-.55.34 1.86 1.86 0 01-.69.06 2.1 2.1 0 01-.59-.08 2 2 0 01-.44-.19A1.88 1.88 0 014.58 8a3.59 3.59 0 01-.25-.33l.57-.47a2.93 2.93 0 00.19.26 1.15 1.15 0 00.23.21.82.82 0 00.28.14 1 1 0 00.4.05.9.9 0 00.67-.24.89.89 0 00.19-.62v-.12a.93.93 0 00-.23-.66A.94.94 0 006 6a.9.9 0 00-.5.12 1.23 1.23 0 00-.33.26l-.65-.09.18-2.72h2.74zM9.9 8.53a1.77 1.77 0 01-.79-.17 1.46 1.46 0 01-.55-.5 2.19 2.19 0 01-.33-.79A4.93 4.93 0 018.13 6a5 5 0 01.1-1.07 2.19 2.19 0 01.33-.79 1.46 1.46 0 01.55-.5 1.77 1.77 0 01.79-.17 1.47 1.47 0 011.34.67A3.37 3.37 0 0111.67 6a3.37 3.37 0 01-.43 1.86 1.47 1.47 0 01-1.34.67zm0-.67a.83.83 0 00.43-.11.68.68 0 00.29-.29 1.14 1.14 0 00.16-.46 3.39 3.39 0 00.05-.58v-.85a3.39 3.39 0 00-.05-.57 1.14 1.14 0 00-.16-.45.68.68 0 00-.29-.29 1 1 0 00-.86 0 .68.68 0 00-.29.29A1.14 1.14 0 009 5a3.39 3.39 0 000 .58v.86A3.39 3.39 0 009 7a1.14 1.14 0 00.16.45.68.68 0 00.29.29.83.83 0 00.45.12z"/></svg>