<svg width="32" height="32" fill="none" xmlns="http://www.w3.org/2000/svg"><path d="M20 6a1 1 0 011 1v2a2 2 0 012 2h2a1 1 0 110 2h-2v2h2a1 1 0 110 2h-2v2h2a1 1 0 110 2h-2a2 2 0 01-2 2v2a1 1 0 11-2 0v-2h-2v2a1 1 0 11-2 0v-2h-2v2a1 1 0 11-2 0v-2l-.15-.006A2 2 0 019 21H7a1 1 0 110-2h2v-2H7a1 1 0 110-2h2v-2H7a1 1 0 110-2h2a2 2 0 012-2V7a1 1 0 112 0v2h2V7a1 1 0 112 0v2h2V7a1 1 0 011-1zm1 4H11a1 1 0 00-1 1v10a1 1 0 001 1h10a1 1 0 001-1V11a1 1 0 00-1-1zm-2 2a1 1 0 011 1v6a1 1 0 01-1 1h-6a1 1 0 01-1-1v-6a1 1 0 011-1h6zm0 1h-6v6h6v-6z" fill="#6E7287"/><mask id="a" maskUnits="userSpaceOnUse" x="17" y="3" width="12" height="8"><path d="M28 3H18a1 1 0 00-1 1v6a1 1 0 001 1h10a1 1 0 001-1V4a1 1 0 00-1-1z" fill="#fff"/></mask><g mask="url(#a)"><path d="M28 3H18a1 1 0 00-1 1v6a1 1 0 001 1h10a1 1 0 001-1V4a1 1 0 00-1-1z" fill="#fff"/><path fill-rule="evenodd" clip-rule="evenodd" d="M29 10.344a.656.656 0 01-.656.656H17.656a.656.656 0 01-.656-.656h12zm0-1.224v.612H17V9.12h12zm0-1.224v.612H17v-.612h12zm0-1.224v.612H17v-.612h12zm0-1.224v.612H17v-.612h12zm0-1.224v.612H17v-.612h12zM28.388 3c.304 0 .557.222.604.513l.008.099H17.344c0-.338.274-.612.612-.612h10.432z" fill="#F44336"/></g><mask id="b" maskUnits="userSpaceOnUse" x="17" y="3" width="6" height="5"><path d="M18 3h4.6v4.284H17V4a1 1 0 011-1z" fill="#fff"/></mask><g mask="url(#b)"><path d="M18 3h4.6v4.284H17V4a1 1 0 011-1z" fill="#0D47A1"/></g><rect x="14.5" y="18" width="14" height="8" rx="4" fill="#0E0E0E"/><path d="M16.668 24v-.726h1.128v-2.808h-.055l-.851 1.116-.576-.45 1.002-1.32h1.38v3.462h.887V24h-2.915zm4.833.072c-.548 0-.954-.19-1.218-.57-.264-.38-.396-.912-.396-1.596s.132-1.216.396-1.596c.264-.38.67-.57 1.218-.57.548 0 .954.19 1.218.57.264.38.396.912.396 1.596s-.132 1.216-.396 1.596c-.264.38-.67.57-1.218.57zm0-.762c.24 0 .406-.088.498-.264.092-.176.138-.424.138-.744v-.792c0-.32-.046-.568-.138-.744-.092-.176-.258-.264-.498-.264s-.406.088-.498.264c-.092.176-.138.424-.138.744v.792c0 .32.046.568.138.744.092.176.258.264.498.264zm3.598.762c-.548 0-.954-.19-1.218-.57-.264-.38-.396-.912-.396-1.596s.132-1.216.396-1.596c.264-.38.67-.57 1.218-.57.548 0 .954.19 1.218.57.264.38.396.912.396 1.596s-.132 1.216-.396 1.596c-.264.38-.67.57-1.218.57zm0-.762c.24 0 .406-.088.498-.264.092-.176.138-.424.138-.744v-.792c0-.32-.046-.568-.138-.744-.092-.176-.258-.264-.498-.264s-.406.088-.498.264c-.092.176-.138.424-.138.744v.792c0 .32.046.568.138.744.092.176.258.264.498.264z" fill="#fff"/></svg>