<svg width="32" height="32" fill="none" xmlns="http://www.w3.org/2000/svg"><path d="M23 8H9v20h14V8z" fill="#5798B4"/><path fill-rule="evenodd" clip-rule="evenodd" d="M23.5 8h-15a.5.5 0 000 1h15a.5.5 0 000-1zm-15 17h15a.5.5 0 010 1h-15a.5.5 0 010-1zm0 2h15a.5.5 0 010 1h-15a.5.5 0 010-1zm0-17h15a.5.5 0 010 1h-15a.5.5 0 010-1z" fill="#3B7B96"/><path d="M18.99 19.15c0 1.583-1.346 2.85-2.99 2.85-1.644 0-2.99-1.267-2.99-2.85C13.01 17.567 16 14 16 14s2.99 3.583 2.99 5.15z" fill="#FFC521"/><path d="M16 21.25c-1.207 0-2.203-.933-2.203-2.1 0-.133.122-.25.262-.25s.262.117.262.25c0 .883.752 1.6 1.679 1.6.14 0 .262.117.262.25s-.122.25-.262.25z" fill="#fff"/><mask id="a" maskUnits="userSpaceOnUse" x="16" y="2" width="14" height="9"><path d="M28.833 2H17.167C16.522 2 16 2.504 16 3.125v6.75c0 .621.522 1.125 1.167 1.125h11.666C29.478 11 30 10.496 30 9.875v-6.75C30 2.504 29.478 2 28.833 2z" fill="#fff"/></mask><g mask="url(#a)"><path d="M28.833 2H17.167C16.522 2 16 2.504 16 3.125v6.75c0 .621.522 1.125 1.167 1.125h11.666C29.478 11 30 10.496 30 9.875v-6.75C30 2.504 29.478 2 28.833 2z" fill="#fff"/><path d="M30 10.262a.752.752 0 01-.765.738h-12.47a.752.752 0 01-.765-.738h14zm0-1.377v.688H16v-.688h14zm0-1.377v.689H16v-.689h14zm0-1.377v.688H16v-.688h14zm0-1.377v.689H16v-.689h14zm0-1.377v.689H16v-.689h14zM29.286 2c.37 0 .674.27.71.618l.004.07H16.402c0-.38.32-.688.714-.688h12.17z" fill="#F44336"/><path d="M17.167 2h5.541v4.82H16V3.124C16 2.504 16.522 2 17.167 2z" fill="#0D47A1"/><path d="M16.638 5.834l.055.159h.173c.01 0 .018.006.021.015a.022.022 0 01-.007.025l-.14.1.052.158c.004.009 0 .02-.008.025a.024.024 0 01-.028-.001l-.14-.097-.14.097a.024.024 0 01-.026 0 .022.022 0 01-.01-.024l.058-.158-.14-.1a.022.022 0 01-.008-.024.023.023 0 01.022-.015h.173l.055-.159c.003-.022.031-.022.038 0zm5.27-.014a.02.02 0 01.02.014l.056.159h.172c.01 0 .018.006.021.015a.022.022 0 01-.007.025l-.14.1.052.158c.004.009 0 .02-.008.025a.024.024 0 01-.027-.001l-.14-.097-.14.097a.024.024 0 01-.027 0 .022.022 0 01-.01-.024l.058-.158-.14-.1a.022.022 0 01-.008-.024.023.023 0 01.022-.015h.172l.056-.159a.02.02 0 01.018-.015zm-1.323 0a.02.02 0 01.02.014l.055.159h.172c.01 0 .019.006.022.015a.022.022 0 01-.008.025l-.14.1.053.158c.003.009 0 .02-.009.025a.024.024 0 01-.027-.001l-.14-.097-.14.097a.024.024 0 01-.027 0 .022.022 0 01-.009-.024l.058-.158-.14-.1a.022.022 0 01-.008-.024.023.023 0 01.022-.015h.172l.055-.159a.02.02 0 01.02-.015zm-2.624.014l.055.159h.173c.01 0 .018.006.021.015a.022.022 0 01-.007.025l-.14.1.052.158c.004.009 0 .02-.008.025a.024.024 0 01-.028-.001l-.14-.097-.14.097a.024.024 0 01-.026 0 .022.022 0 01-.01-.024l.058-.158-.14-.1a.022.022 0 01-.008-.024.023.023 0 01.022-.015h.173l.055-.159c0-.022.031-.022.038 0zm1.323 0l.056.159h.172c.01 0 .018.006.022.015a.022.022 0 01-.008.025l-.14.1.053.158c.003.009 0 .02-.009.025a.024.024 0 01-.027-.001l-.14-.097-.14.097a.024.024 0 01-.027 0 .022.022 0 01-.009-.024l.057-.158-.14-.1a.022.022 0 01-.007-.024.023.023 0 01.021-.015h.173l.056-.159c0-.022.03-.022.037 0zM17.3 5.416l.055.158h.172c.01 0 .019.007.022.016a.022.022 0 01-.008.024l-.14.1.053.158c.003.01 0 .02-.008.025a.024.024 0 01-.028 0l-.14-.097-.14.096a.024.024 0 01-.027 0 .022.022 0 01-.009-.024l.053-.158-.14-.1a.022.022 0 01-.008-.024.023.023 0 01.022-.016h.177l.056-.158c.003-.022.031-.022.038 0zm3.956-.018a.02.02 0 01.01.018l.056.158h.172c.01 0 .018.007.021.016a.022.022 0 01-.007.024l-.14.1.053.158c.003.01 0 .02-.009.025a.024.024 0 01-.027 0l-.14-.097-.14.096a.024.024 0 01-.027 0 .022.022 0 01-.01-.024l.054-.158-.14-.1a.022.022 0 01-.008-.024.023.023 0 01.022-.016h.172l.055-.158a.02.02 0 01.011-.018.022.022 0 01.022 0zm-1.31.018l.056.158h.172c.01 0 .018.007.021.016a.022.022 0 01-.007.024l-.14.1.053.158c.003.01 0 .02-.009.025a.024.024 0 01-.027 0l-.14-.097-.14.096a.024.024 0 01-.027 0 .022.022 0 01-.01-.024l.053-.158-.14-.1a.022.022 0 01-.007-.024.023.023 0 01.021-.016h.173l.055-.158c.006-.022.037-.022.043 0zm-1.323 0l.055.158h.172c.01 0 .019.007.022.016a.022.022 0 01-.008.024l-.14.1.053.158c.003.01 0 .02-.008.025a.024.024 0 01-.028 0l-.14-.097-.14.096a.024.024 0 01-.027 0 .022.022 0 01-.009-.024l.053-.158-.14-.1a.022.022 0 01-.008-.024.023.023 0 01.022-.016h.177l.056-.158c0-.022.031-.022.038 0zm-.662-.406l.055.159h.173c.01 0 .018.006.021.015a.022.022 0 01-.007.025l-.14.1.052.158c.004.009 0 .02-.008.025a.024.024 0 01-.028-.001l-.14-.097-.14.097a.024.024 0 01-.026 0 .022.022 0 01-.01-.024l.053-.159-.14-.1a.022.022 0 01-.007-.024.023.023 0 01.021-.015h.178l.055-.159c0-.018.031-.018.038 0zm3.967 0l.056.159h.172c.01 0 .018.006.021.015a.022.022 0 01-.007.025l-.14.1.052.158c.004.009 0 .02-.008.025a.024.024 0 01-.027-.001l-.14-.097-.14.097a.024.024 0 01-.027 0 .022.022 0 01-.01-.024l.053-.159-.14-.1a.022.022 0 01-.007-.024.023.023 0 01.021-.015h.173l.055-.159c.008-.018.04-.018.043 0zm-5.29 0l.055.159h.173c.01 0 .018.006.021.015a.022.022 0 01-.007.025l-.14.1.052.158c.004.009 0 .02-.008.025a.024.024 0 01-.028-.001l-.14-.097-.14.097a.024.024 0 01-.026 0 .022.022 0 01-.01-.024l.053-.159-.14-.1a.022.022 0 01-.007-.024.023.023 0 01.021-.015h.178l.055-.159c.003-.018.031-.018.038 0zm3.967 0l.055.159h.172c.01 0 .019.006.022.015a.022.022 0 01-.008.025l-.14.1.053.158c.003.009 0 .02-.009.025a.024.024 0 01-.027-.001l-.14-.097-.14.097a.024.024 0 01-.027 0 .022.022 0 01-.009-.024l.053-.159-.14-.1a.022.022 0 01-.008-.024.023.023 0 01.022-.015h.172l.056-.159c.008-.018.039-.018.043 0zm-1.32 0l.055.159h.172c.01 0 .018.006.022.015a.022.022 0 01-.008.025l-.14.1.053.158c.003.009 0 .02-.009.025a.024.024 0 01-.027-.001l-.14-.097-.14.097a.024.024 0 01-.027 0 .022.022 0 01-.009-.024l.053-.159-.14-.1a.022.022 0 01-.008-.024.023.023 0 01.022-.015h.177l.056-.159c0-.018.03-.018.037 0zM17.3 4.592l.055.159h.172c.01 0 .019.006.022.015a.022.022 0 01-.008.025l-.14.1.053.158c.003.009 0 .02-.008.025a.024.024 0 01-.028-.001l-.14-.097-.14.097a.024.024 0 01-.027 0 .022.022 0 01-.009-.024l.058-.158-.14-.1a.022.022 0 01-.008-.024.023.023 0 01.022-.015h.172l.056-.159c.003-.022.031-.022.038 0zm3.945-.02c.012 0 .021.009.021.02l.056.159h.172c.01 0 .018.006.021.015a.022.022 0 01-.007.025l-.14.1.053.158c.003.009 0 .02-.009.025a.024.024 0 01-.027-.001l-.14-.097-.14.097a.024.024 0 01-.027 0 .022.022 0 01-.01-.024l.054-.159-.14-.1a.022.022 0 01-.008-.024.023.023 0 01.022-.015h.172l.055-.159c0-.011.01-.02.022-.02zm-1.299.02l.056.159h.172c.01 0 .018.006.021.015a.022.022 0 01-.007.025l-.14.1.053.158c.003.009 0 .02-.009.025a.024.024 0 01-.027-.001l-.14-.097-.14.097a.024.024 0 01-.027 0 .022.022 0 01-.01-.024l.053-.159-.14-.1a.022.022 0 01-.007-.024.023.023 0 01.021-.015h.173l.055-.159c.006-.021.037-.021.043 0zm-1.323 0l.055.159h.172c.01 0 .019.006.022.015a.022.022 0 01-.008.025l-.14.1.053.158c.003.009 0 .02-.008.025a.024.024 0 01-.028-.001l-.14-.097-.14.097a.024.024 0 01-.027 0 .022.022 0 01-.009-.024l.058-.158-.14-.1a.022.022 0 01-.008-.024.023.023 0 01.022-.015h.172l.056-.159c0-.022.031-.022.038 0zm-.662-.402l.055.158h.173c.01 0 .018.006.021.015a.022.022 0 01-.007.025l-.14.1.052.158c.004.01 0 .02-.008.025a.024.024 0 01-.028 0l-.14-.098-.14.097a.024.024 0 01-.026 0 .022.022 0 01-.01-.024l.058-.158-.14-.099a.022.022 0 01-.008-.025.023.023 0 01.022-.015h.173l.055-.158c0-.023.031-.023.038-.001zm3.948-.015a.02.02 0 01.019.015l.056.158h.172c.01 0 .018.006.021.015a.022.022 0 01-.007.025l-.14.1.052.158c.004.01 0 .02-.008.025a.024.024 0 01-.027 0l-.14-.098-.14.097a.024.024 0 01-.027 0 .022.022 0 01-.01-.024l.058-.158-.14-.099a.022.022 0 01-.008-.025.023.023 0 01.022-.015h.172l.056-.158a.02.02 0 01.018-.016zm-1.326-.006c.012 0 .022.01.022.02l.055.159h.172c.01 0 .019.006.022.015a.022.022 0 01-.008.025l-.14.1.053.158c.003.01 0 .02-.009.025a.024.024 0 01-.027 0l-.14-.098-.14.097a.024.024 0 01-.027 0 .022.022 0 01-.009-.024l.053-.158-.14-.1a.022.022 0 01-.008-.025.023.023 0 01.022-.015h.172l.056-.158c0-.012.01-.021.021-.021zm-3.945.02l.055.159h.173c.01 0 .018.006.021.015a.022.022 0 01-.007.025l-.14.1.052.158c.004.01 0 .02-.008.025a.024.024 0 01-.028 0l-.14-.098-.14.097a.024.024 0 01-.026 0 .022.022 0 01-.01-.024l.058-.158-.14-.099a.022.022 0 01-.008-.025.023.023 0 01.022-.015h.173l.055-.158c.003-.023.031-.023.038-.001zm2.646 0l.056.159h.172c.01 0 .018.006.022.015a.022.022 0 01-.008.025l-.14.1.053.158c.003.01 0 .02-.009.025a.024.024 0 01-.027 0l-.14-.098-.14.097a.024.024 0 01-.027 0 .022.022 0 01-.009-.024l.053-.158-.14-.1a.022.022 0 01-.008-.025.023.023 0 01.022-.015h.177l.056-.158c0-.022.03-.022.037 0zM17.3 3.769l.055.158h.172c.01 0 .019.007.022.016a.022.022 0 01-.008.024l-.14.1.053.158c.003.01 0 .02-.008.025a.024.024 0 01-.028 0l-.14-.097-.14.097a.024.024 0 01-.027 0 .022.022 0 01-.009-.025l.053-.158-.14-.1a.022.022 0 01-.008-.024.023.023 0 01.022-.016h.177l.056-.158c.003-.018.031-.018.038 0zm2.646 0l.056.158h.172c.01 0 .018.007.021.016a.022.022 0 01-.007.024l-.14.1.053.158c.003.01 0 .02-.009.025a.024.024 0 01-.027 0l-.14-.097-.14.097a.024.024 0 01-.027 0 .022.022 0 01-.01-.025l.053-.158-.14-.1a.022.022 0 01-.007-.024.023.023 0 01.021-.016h.173l.055-.158c.006-.018.037-.018.043 0zm-1.323 0l.055.158h.172c.01 0 .019.007.022.016a.022.022 0 01-.008.024l-.14.1.053.158c.003.01 0 .02-.008.025a.024.024 0 01-.028 0l-.14-.097-.14.097a.024.024 0 01-.027 0 .022.022 0 01-.009-.025l.053-.158-.14-.1a.022.022 0 01-.008-.024.023.023 0 01.022-.016h.177l.056-.158c0-.018.031-.018.038 0zm2.643 0l.056.158h.172c.01 0 .018.007.021.016a.022.022 0 01-.007.024l-.14.1.053.158c.003.01 0 .02-.009.025a.024.024 0 01-.027 0l-.14-.097-.14.097a.024.024 0 01-.027 0 .022.022 0 01-.01-.025l.054-.158-.14-.1a.022.022 0 01-.008-.024.023.023 0 01.022-.016h.172l.055-.158c.009-.018.04-.018.043 0zm-1.982-.402l.056.158h.172c.01 0 .018.006.022.015a.022.022 0 01-.008.025l-.14.1.053.158c.003.01 0 .02-.009.025a.024.024 0 01-.027 0l-.14-.097-.14.096a.024.024 0 01-.027 0 .022.022 0 01-.009-.024l.053-.158-.14-.1a.022.022 0 01-.008-.025.023.023 0 01.022-.015h.177l.056-.158c0-.019.03-.019.037 0zm-2.646 0l.055.158h.173c.01 0 .018.006.021.015a.022.022 0 01-.007.025l-.14.1.052.158c.004.01 0 .02-.008.025a.024.024 0 01-.028 0l-.14-.097-.14.096a.024.024 0 01-.026 0 .022.022 0 01-.01-.024l.053-.158-.14-.1a.022.022 0 01-.007-.025.023.023 0 01.021-.015h.178l.055-.158c.003-.019.031-.019.038 0zm1.325 0l.055.158h.173c.01 0 .019.006.022.015a.022.022 0 01-.008.025l-.14.1.053.158c.003.01 0 .02-.008.025a.024.024 0 01-.028 0l-.14-.097-.14.096a.024.024 0 01-.027 0 .022.022 0 01-.009-.024l.053-.158-.14-.1a.022.022 0 01-.007-.025.023.023 0 01.021-.015h.172l.055-.158c.004-.019.034-.019.043 0zm2.642 0l.055.158h.172c.01 0 .019.006.022.015a.022.022 0 01-.008.025l-.14.1.053.158c.003.01 0 .02-.009.025a.024.024 0 01-.027 0l-.14-.097-.14.096a.024.024 0 01-.027 0 .022.022 0 01-.009-.024l.053-.158-.14-.1a.022.022 0 01-.008-.025.023.023 0 01.022-.015h.172l.056-.158c.008-.019.039-.019.043 0zm1.323 0l.056.158h.172c.01 0 .018.006.021.015a.022.022 0 01-.007.025l-.14.1.052.158c.004.01 0 .02-.008.025a.024.024 0 01-.027 0l-.14-.097-.14.096a.024.024 0 01-.027 0 .022.022 0 01-.01-.024l.053-.158-.14-.1a.022.022 0 01-.007-.025.023.023 0 01.021-.015h.173l.055-.158c.008-.019.04-.019.043 0zm-1.982-.419l.056.159h.172c.01 0 .018.006.021.015a.022.022 0 01-.007.025l-.14.1.053.157c.003.01 0 .02-.009.026a.024.024 0 01-.027-.001l-.14-.097-.14.097a.024.024 0 01-.027 0 .022.022 0 01-.01-.025l.053-.158-.14-.1a.022.022 0 01-.007-.024.023.023 0 01.021-.015h.173l.055-.159c.006-.021.037-.021.043 0zm-1.323 0l.055.159h.172c.01 0 .019.006.022.015a.022.022 0 01-.008.025l-.14.1.053.157c.003.01 0 .02-.008.026a.024.024 0 01-.028-.001l-.14-.097-.14.097a.024.024 0 01-.027 0 .022.022 0 01-.009-.025l.058-.157-.14-.1a.022.022 0 01-.008-.024.023.023 0 01.022-.016h.172l.056-.158c0-.022.031-.022.038 0zm-1.323 0l.055.159h.172c.01 0 .019.006.022.015a.022.022 0 01-.008.025l-.14.1.053.157c.003.01 0 .02-.008.026a.024.024 0 01-.028-.001l-.14-.097-.14.097a.024.024 0 01-.027 0 .022.022 0 01-.009-.025l.058-.157-.14-.1a.022.022 0 01-.008-.024.023.023 0 01.022-.016h.172l.056-.158c.003-.022.031-.022.038 0zm3.956-.018a.02.02 0 01.01.018l.056.159h.172c.01 0 .018.006.021.015a.022.022 0 01-.007.025l-.14.1.053.157c.003.01 0 .02-.009.026a.024.024 0 01-.027-.001l-.14-.097-.14.097a.024.024 0 01-.027 0 .022.022 0 01-.01-.025l.054-.158-.14-.1a.022.022 0 01-.008-.024.023.023 0 01.022-.015h.172l.055-.159a.02.02 0 01.011-.018.022.022 0 01.022 0zm-4.618-.384l.055.158h.173c.01 0 .018.007.021.016a.022.022 0 01-.007.024l-.14.1.052.158c.004.01 0 .02-.008.025a.024.024 0 01-.028 0l-.14-.097-.14.096a.024.024 0 01-.026 0 .022.022 0 01-.01-.024l.058-.157-.14-.1a.022.022 0 01-.008-.025.023.023 0 01.022-.015h.173l.055-.158c.003-.023.031-.023.038-.001zm1.323 0l.055.158h.173c.01 0 .018.007.021.016a.022.022 0 01-.007.024l-.14.1.052.158c.004.01 0 .02-.008.025a.024.024 0 01-.028 0l-.14-.097-.14.096a.024.024 0 01-.026 0 .022.022 0 01-.01-.024l.058-.157-.14-.1a.022.022 0 01-.008-.025.023.023 0 01.022-.015h.173l.055-.158c0-.023.031-.023.038-.001zm1.323 0l.056.158h.172c.01 0 .018.007.022.016a.022.022 0 01-.008.024l-.14.1.053.158c.003.01 0 .02-.009.025a.024.024 0 01-.027 0l-.14-.097-.14.096a.024.024 0 01-.027 0 .022.022 0 01-.009-.024l.053-.158-.14-.1a.022.022 0 01-.008-.024.023.023 0 01.022-.016h.177l.056-.158c0-.022.03-.022.037 0zm1.31-.018a.02.02 0 01.01.018l.056.158h.172c.01 0 .019.007.022.016a.022.022 0 01-.008.024l-.14.1.053.158c.003.01 0 .02-.009.025a.024.024 0 01-.027 0l-.14-.097-.14.096a.024.024 0 01-.027 0 .022.022 0 01-.009-.024l.053-.158-.14-.1a.022.022 0 01-.008-.024.023.023 0 01.022-.016h.172l.056-.158a.02.02 0 01.01-.018.022.022 0 01.022 0zm1.314.003a.02.02 0 01.02.015l.056.158h.172c.01 0 .018.007.021.016a.022.022 0 01-.007.024l-.14.1.052.158c.004.01 0 .02-.008.025a.024.024 0 01-.027 0l-.14-.097-.14.096a.024.024 0 01-.027 0 .022.022 0 01-.01-.024l.058-.157-.14-.1a.022.022 0 01-.008-.025.023.023 0 01.022-.015h.172l.056-.158a.02.02 0 01.018-.015z" fill="#F5F5F5"/><path fill-rule="evenodd" clip-rule="evenodd" d="M28.833 2.563H17.167a.573.573 0 00-.584.562v6.75c0 .31.262.563.584.563h11.666a.573.573 0 00.584-.563v-6.75a.573.573 0 00-.584-.563zM17.167 2C16.522 2 16 2.504 16 3.125v6.75c0 .621.522 1.125 1.167 1.125h11.666C29.478 11 30 10.496 30 9.875v-6.75C30 2.504 29.478 2 28.833 2H17.167z" fill="#000" fill-opacity=".04"/></g></svg>