<?xml version="1.0" encoding="UTF-8"?>
<svg width="32px" height="32px" viewBox="0 0 32 32" version="1.1" xmlns="http://www.w3.org/2000/svg" xmlns:xlink="http://www.w3.org/1999/xlink">
    <!-- Generator: Sketch 64 (93537) - https://sketch.com -->
    <title>assets/otc/ic-otcspain</title>
    <desc>Created with Sketch.</desc>
    <defs>
        <rect id="path-1" x="0" y="0" width="24.0000001" height="16.0000001" rx="2"></rect>
    </defs>
    <g id="assets/otc/ic-otcspain" stroke="none" stroke-width="1" fill="none" fill-rule="evenodd">
        <g id="assets/otc/ic-otc">
            <g id="assets/flags/normal/ic-spain" transform="translate(4.000000, 8.000000)">
                <g id="Group" transform="translate(-0.000000, -0.000000)">
                    <mask id="mask-2" fill="white">
                        <use xlink:href="#path-1"></use>
                    </mask>
                    <use id="bg" fill="#DD172C" xlink:href="#path-1"></use>
                    <rect id="center" fill="#FFD133" fill-rule="nonzero" mask="url(#mask-2)" x="0" y="4.00000002" width="24.0000001" height="8.00000003"></rect>
                    <g id="emblem" mask="url(#mask-2)">
                        <g transform="translate(2.000000, 4.000000)">
                            <polygon id="Rectangle-139-Copy" stroke="none" fill="#FFEDB1" fill-rule="evenodd" points="3.33333334 3.33333334 4.66666669 3.33333334 4.66666669 4.00000002 3.33333334 4.00000002"></polygon>
                            <path d="M2.05389182,3.2995035 L2.22118676,5.30704278 C2.26842018,5.87384381 2.76814425,6.33333336 3.33333334,6.33333336 C3.89937134,6.33333336 4.39839996,5.87200258 4.44547994,5.30704278 L4.61277488,3.2995035 C4.62723549,3.12597612 4.50798854,3.00000001 4.32545028,3.00000001 L2.34121642,3.00000001 C2.16543786,3.00000001 2.04000833,3.13290167 2.05389182,3.2995035 Z" id="Rectangle-137" stroke="#A41517" stroke-width="0.666666667" fill="none"></path>
                            <polygon id="Rectangle-139" stroke="none" fill="#A41517" fill-rule="evenodd" points="2.00000001 4.00000002 4.66666669 4.00000002 4.66666669 4.66666669 4.00000002 4.66666669 3.33333334 6.00000003 2.66666668 4.66666669 2.00000001 4.66666669"></polygon>
                            <rect id="Rectangle-135" stroke="none" fill="#A41517" fill-rule="evenodd" x="0" y="2.00000001" width="1.33333334" height="4.66666669"></rect>
                            <rect id="Rectangle-135-Copy" stroke="none" fill="#A41517" fill-rule="evenodd" x="5.33333335" y="2.00000001" width="1.33333334" height="4.66666669"></rect>
                            <path d="M2.00000001,1.33333334 C2.00000001,0.965143504 2.30590058,0.66666667 2.67291261,0.66666667 L3.99375409,0.66666667 C4.36539345,0.66666667 4.66666669,0.962576552 4.66666669,1.33333334 L4.66666669,1.66354371 C4.66666669,1.84936339 4.5232951,2.00000001 4.33968101,2.00000001 L2.32698569,2.00000001 C2.14639648,2.00000001 2.00000001,1.85730999 2.00000001,1.66354371 L2.00000001,1.33333334 Z" id="Rectangle-138" stroke="none" fill="#A41517" fill-rule="evenodd"></path>
                        </g>
                    </g>
                    <rect id="border" stroke-opacity="0.04" stroke="#000000" fill-rule="nonzero" mask="url(#mask-2)" x="0.50000005" y="0.5" width="23" height="15" rx="1"></rect>
                </g>
            </g>
        </g>
    </g>
</svg>