<svg width="32" height="32" fill="none" xmlns="http://www.w3.org/2000/svg"><path d="M4 19h24v3a2 2 0 01-2 2H6a2 2 0 01-2-2v-3z" fill="#FFCD00"/><path d="M28 13H4v6h24v-6z" fill="#F10000"/><path d="M6 8h20a2 2 0 012 2v3H4v-3a2 2 0 012-2z" fill="#333"/><path fill-rule="evenodd" clip-rule="evenodd" d="M26 9H6a1 1 0 00-1 1v12a1 1 0 001 1h20a1 1 0 001-1V10a1 1 0 00-1-1zM6 8a2 2 0 00-2 2v12a2 2 0 002 2h20a2 2 0 002-2V10a2 2 0 00-2-2H6z" fill="#000" fill-opacity=".04"/><rect x="19" y="2" width="11" height="8" rx="1" fill="#0E0E0E"/><path d="M22.474 5.534c.26 0 .452-.054.576-.162a.549.549 0 00.186-.426v-.042c0-.192-.06-.338-.18-.438-.12-.104-.282-.156-.486-.156-.2 0-.37.046-.51.138-.14.088-.258.212-.354.372l-.45-.39c.064-.092.136-.18.216-.264a1.433 1.433 0 01.648-.366c.136-.04.292-.06.468-.06.196 0 .378.024.546.072.168.048.312.12.432.216a.974.974 0 01.384.792.946.946 0 01-.066.36.881.881 0 01-.432.486c-.096.052-.198.09-.306.114v.03c.12.024.232.064.336.12a.912.912 0 01.468.516c.048.116.072.25.072.402 0 .184-.036.352-.108.504a1.132 1.132 0 01-.306.384 1.38 1.38 0 01-.468.252 2.096 2.096 0 01-.612.084 1.816 1.816 0 01-.912-.228 1.795 1.795 0 01-.3-.24 2.363 2.363 0 01-.222-.282l.498-.39c.052.084.106.162.162.234.06.068.126.128.198.18a1.032 1.032 0 00.576.156c.256 0 .452-.06.588-.18.136-.124.204-.294.204-.51V6.77c0-.216-.072-.38-.216-.492-.144-.112-.348-.168-.612-.168h-.444v-.576h.426zM26.3 8.072c-.26 0-.486-.048-.678-.144-.192-.1-.35-.242-.474-.426a1.975 1.975 0 01-.276-.678 4.224 4.224 0 01-.09-.918c0-.34.03-.644.09-.912.06-.272.152-.5.276-.684.124-.184.282-.324.474-.42.192-.1.418-.15.678-.15.52 0 .902.19 1.146.57.248.38.372.912.372 1.596s-.124 1.216-.372 1.596c-.244.38-.626.57-1.146.57zm0-.576a.74.74 0 00.366-.084.692.692 0 00.252-.252c.064-.108.11-.236.138-.384a2.79 2.79 0 00.042-.504V5.54c0-.184-.014-.35-.042-.498a1.18 1.18 0 00-.138-.39.7.7 0 00-.618-.336.732.732 0 00-.372.09.66.66 0 00-.246.246 1.18 1.18 0 00-.138.39 2.691 2.691 0 00-.042.498v.732c0 .184.014.352.042.504.028.148.074.276.138.384a.708.708 0 00.246.252.774.774 0 00.372.084z" fill="#fff"/></svg>