<svg width="40" height="40" fill="none" xmlns="http://www.w3.org/2000/svg"><rect width="40" height="40" rx="4" fill="#F2F3F4"/><path d="M33.5 27a.5.5 0 010 1H33a.5.5 0 010-1h.5zM10 27a.5.5 0 010 1H9a.5.5 0 010-1h1zm3 0a.5.5 0 010 1h-1a.5.5 0 010-1h1zm3 0a.5.5 0 010 1h-1a.5.5 0 010-1h1zm3 0a.5.5 0 010 1h-1a.5.5 0 010-1h1zm3 0a.5.5 0 010 1h-1a.5.5 0 010-1h1zm2.5 0a.5.5 0 010 1H24a.5.5 0 010-1h.5zm3.5 0a.5.5 0 010 1h-1a.5.5 0 010-1h1zm3 0a.5.5 0 010 1h-1a.5.5 0 010-1h1zM7 27a.5.5 0 010 1h-.5a.5.5 0 010-1H7zm26.5-11a.5.5 0 010 1H33a.5.5 0 010-1h.5zM10 16a.5.5 0 010 1H9a.5.5 0 010-1h1zm3 0a.5.5 0 010 1h-1a.5.5 0 010-1h1zm3 0a.5.5 0 010 1h-1a.5.5 0 010-1h1zm3 0a.5.5 0 010 1h-1a.5.5 0 010-1h1zm3 0a.5.5 0 010 1h-1a.5.5 0 010-1h1zm6 0a.5.5 0 010 1h-1a.5.5 0 010-1h1zm3 0a.5.5 0 010 1h-1a.5.5 0 010-1h1zM7 16a.5.5 0 010 1h-.5a.5.5 0 010-1H7z" fill="#E4E4E4"/><path d="M28.794 11.096a.5.5 0 00-.698.11l-3.187 4.381a1 1 0 01.59.889l3.405-4.682.047-.077a.5.5 0 00-.157-.621zM20.927 21.062l2.83-3.892a.998.998 0 001.027.289l-3.048 4.191a1.502 1.502 0 00-.81-.588zM19.545 21.343L16.5 19.517a1 1 0 01-.514.857l3.044 1.827a1.5 1.5 0 01.515-.858zM14.615 19.966l-2.231 3.54a.999.999 0 01.927.407l2.15-3.414a1 1 0 01-.846-.533zM12.046 23.609a1 1 0 00-.545.86L8.068 21.77a.5.5 0 01.561-.822l.075.051 3.342 2.609z" fill="#85ACB0"/><path d="M12.5 23a1.5 1.5 0 110 3 1.5 1.5 0 010-3zm0 1a.5.5 0 100 1 .5.5 0 000-1zm8-3a1.5 1.5 0 110 3 1.5 1.5 0 010-3zm0 1a.5.5 0 100 1 .5.5 0 000-1zm-13-3a1.5 1.5 0 110 3 1.5 1.5 0 010-3zm0 1a.5.5 0 100 1 .5.5 0 000-1zm8-2a1.5 1.5 0 110 3 1.5 1.5 0 010-3zm0 1a.5.5 0 100 1 .5.5 0 000-1z" fill="#85ACB0"/><path d="M24.5 16a.5.5 0 110 1 .5.5 0 010-1zm0-1a1.5 1.5 0 100 3 1.5 1.5 0 000-3z" fill="#58595B"/><path d="M31.82 6.109l.066.061 2.004 2.083a.427.427 0 01-.077.64.54.54 0 01-.64-.012l-.063-.059-1.115-1.075v2.799c0 .25-.223.454-.5.454a.479.479 0 01-.482-.373l-.008-.082V7.753L29.89 8.82a.534.534 0 01-.628.117l-.075-.046a.428.428 0 01-.128-.57l.05-.068 1.995-2.083a.535.535 0 01.642-.11l.073.048z" fill="#85ACB0"/><path d="M23.41 25.67a.49.49 0 00.7-.05.5.5 0 000-.7l-1.15-1a.503.503 0 00-.66.76l1.11.99zM27.61 29.38l.56.5a.503.503 0 00.66-.76l-.57-.49a.5.5 0 10-.65.75zM25.5 27a.5.5 0 110 1 .5.5 0 010-1zm0-1a1.5 1.5 0 100 3 1.5 1.5 0 000-3zM31.18 33.891l-.066-.061-2.004-2.083a.427.427 0 01.077-.64.54.54 0 01.64.012l.063.059 1.115 1.075v-2.799c0-.25.223-.454.5-.454.245 0 .44.16.482.373l.008.081v2.794l1.114-1.069a.534.534 0 01.628-.117l.075.046c.192.139.241.38.129.57l-.05.068-1.996 2.083a.535.535 0 01-.642.11l-.073-.048z" fill="#FF444F"/><rect x="6" y="6" width="14" height="8" rx="1" fill="#333"/><path fill-rule="evenodd" clip-rule="evenodd" d="M10.161 12.305h-.709V8.879l-1.046.356v-.597l1.664-.613h.091v4.28zM13.232 9.712c0-.4-.055-.694-.164-.88-.11-.187-.283-.28-.522-.28-.232 0-.403.088-.512.265-.11.177-.167.453-.173.828v.966c0 .398.056.695.167.891a.56.56 0 00.524.293c.229 0 .398-.09.507-.27.11-.182.167-.465.173-.85v-.963zm.712.797c0 .614-.115 1.076-.344 1.387-.23.312-.58.467-1.048.467-.461 0-.808-.15-1.041-.455-.234-.304-.353-.754-.36-1.35V9.82c0-.613.116-1.073.345-1.379.23-.307.58-.46 1.05-.46.467 0 .815.15 1.045.448.229.3.347.746.353 1.342v.738zM16.882 9.712c0-.4-.055-.694-.164-.88-.11-.187-.283-.28-.522-.28-.232 0-.403.088-.512.265-.11.177-.167.453-.173.828v.966c0 .398.056.695.167.891a.56.56 0 00.524.293c.229 0 .398-.09.507-.27.11-.182.167-.465.173-.85v-.963zm.712.797c0 .614-.115 1.076-.344 1.387-.23.312-.58.467-1.048.467-.461 0-.808-.15-1.041-.455-.234-.304-.353-.754-.36-1.35V9.82c0-.613.116-1.073.345-1.379.23-.307.58-.46 1.05-.46.467 0 .815.15 1.045.448.229.3.347.746.353 1.342v.738z" fill="#fff"/></svg>