<svg width="32" height="32" fill="none" xmlns="http://www.w3.org/2000/svg"><path d="M29.5 23H29a.5.5 0 0 1 0-1h.5a.5.5 0 0 1 0 1zM27 23h-1a.5.5 0 0 1 0-1h1a.5.5 0 0 1 0 1zm-3 0h-1a.5.5 0 0 1 0-1h1a.5.5 0 0 1 0 1zm-3 0h-1a.5.5 0 0 1 0-1h1a.5.5 0 0 1 0 1zm-3 0h-1a.5.5 0 0 1 0-1h1a.5.5 0 0 1 0 1zm-3 0h-1a.5.5 0 0 1 0-1h1a.5.5 0 0 1 0 1zm-6 0H8a.5.5 0 0 1 0-1h1a.5.5 0 0 1 0 1zm-3 0H5a.5.5 0 0 1 0-1h1a.5.5 0 0 1 0 1zM29.5 12H29a.5.5 0 0 1 0-1h.5a.5.5 0 0 1 0 1zM27 12h-1a.5.5 0 0 1 0-1h1a.5.5 0 0 1 0 1zm-3 0h-1a.5.5 0 0 1 0-1h1a.5.5 0 0 1 0 1zm-3 0h-1a.5.5 0 0 1 0-1h1a.5.5 0 0 1 0 1zm-3 0h-1a.5.5 0 0 1 0-1h1a.5.5 0 0 1 0 1zm-3 0h-1a.5.5 0 0 1 0-1h1a.5.5 0 0 1 0 1zm-3 0h-1a.5.5 0 0 1 0-1h1a.5.5 0 0 1 0 1zm-3 0H8a.5.5 0 0 1 0-1h1a.5.5 0 0 1 0 1zm-3 0H5a.5.5 0 0 1 0-1h1a.5.5 0 0 1 0 1zM3 12h-.5a.5.5 0 0 1 0-1H3a.5.5 0 0 1 0 1z" fill="#E4E4E4"/><path d="M29.85 6.15a.48.48 0 0 0-.7 0L28 7.29V2.5a.5.5 0 0 0-1 0v4.79l-1.15-1.14a.495.495 0 1 0-.7.7l2 2a.36.36 0 0 0 .16.11.47.47 0 0 0 .38 0 .36.36 0 0 0 .16-.11l2-2a.48.48 0 0 0 0-.7z" fill="#EF4852"/><path d="m28.53 27-4.11-12.32a1.5 1.5 0 1 0-2-.14L19.68 20h-.29l-2.58-5.79a1.5 1.5 0 1 0-2.62 0L11.61 20h-.22l-2.58-5.78a1.5 1.5 0 1 0-2.62 0L3.61 20H3.5a1.5 1.5 0 1 0 1 .41L7 14.9a1.4 1.4 0 0 0 1 0l2.45 5.51a1.5 1.5 0 1 0 2.06 0L15 14.9a1.4 1.4 0 0 0 1 0l2.45 5.51a1.5 1.5 0 1 0 2.11.05L23.32 15h.18l4.11 12.32a1.5 1.5 0 1 0 1-.32h-.08zm-25-5a.5.5 0 1 1 .343-.135A.5.5 0 0 1 3.5 22h.03zm4-8a.5.5 0 1 1 .343-.135A.5.5 0 0 1 7.5 14h.03zm4 8a.5.5 0 1 1 .343-.135.5.5 0 0 1-.373.135h.03zm4-8a.5.5 0 1 1 .343-.135.5.5 0 0 1-.373.135h.03zm4 8a.5.5 0 1 1 .343-.135.5.5 0 0 1-.373.135h.03zm4-8a.5.5 0 1 1 .343-.135.5.5 0 0 1-.373.135h.03zm5 15a.5.5 0 1 1 .343-.135.5.5 0 0 1-.373.135h.03z" fill="#58595B"/><path d="M13 2H4a2 2 0 0 0-2 2v4a2 2 0 0 0 2 2h9a2 2 0 0 0 2-2V4a2 2 0 0 0-2-2z" fill="#EF4852"/><path d="M4.72 5.628c.26 0 .451-.054.575-.162a.549.549 0 0 0 .186-.426v-.042c0-.192-.06-.338-.18-.438-.12-.104-.282-.156-.486-.156-.2 0-.37.046-.51.138-.14.088-.258.212-.354.372l-.45-.39c.064-.092.136-.18.216-.264a1.433 1.433 0 0 1 .648-.366c.136-.04.292-.06.468-.06.196 0 .378.024.546.072.168.048.312.12.432.216a.974.974 0 0 1 .384.792.946.946 0 0 1-.066.36.881.881 0 0 1-.432.486c-.096.052-.198.09-.306.114v.03a1.2 1.2 0 0 1 .336.12.912.912 0 0 1 .468.516c.048.116.072.25.072.402 0 .184-.036.352-.108.504a1.132 1.132 0 0 1-.306.384 1.38 1.38 0 0 1-.468.252 2.096 2.096 0 0 1-.612.084 1.816 1.816 0 0 1-.912-.228 1.795 1.795 0 0 1-.3-.24 2.363 2.363 0 0 1-.222-.282l.498-.39c.052.084.106.162.162.234.06.068.126.128.198.18a1.032 1.032 0 0 0 .576.156c.256 0 .452-.06.588-.18.136-.124.204-.294.204-.51v-.042c0-.216-.072-.38-.216-.492-.144-.112-.348-.168-.612-.168h-.444v-.576h.426zM8.545 8.166c-.26 0-.486-.048-.678-.144-.192-.1-.35-.242-.474-.426a1.975 1.975 0 0 1-.276-.678A4.224 4.224 0 0 1 7.027 6c0-.34.03-.644.09-.912.06-.272.152-.5.276-.684.124-.184.282-.324.474-.42.192-.1.418-.15.678-.15.52 0 .902.19 1.146.57.248.38.372.912.372 1.596s-.124 1.216-.372 1.596c-.244.38-.626.57-1.146.57zm0-.576a.74.74 0 0 0 .366-.084.692.692 0 0 0 .252-.252c.064-.108.11-.236.138-.384a2.79 2.79 0 0 0 .042-.504v-.732c0-.184-.014-.35-.042-.498a1.18 1.18 0 0 0-.138-.39.7.7 0 0 0-.618-.336.732.732 0 0 0-.372.09.66.66 0 0 0-.246.246 1.18 1.18 0 0 0-.138.39 2.691 2.691 0 0 0-.042.498v.732c0 .184.014.352.042.504.028.148.074.276.138.384a.708.708 0 0 0 .246.252.774.774 0 0 0 .372.084zM12.143 8.166c-.26 0-.486-.048-.678-.144-.192-.1-.35-.242-.474-.426a1.975 1.975 0 0 1-.276-.678 4.224 4.224 0 0 1-.09-.918c0-.34.03-.644.09-.912.06-.272.152-.5.276-.684.124-.184.282-.324.474-.42.192-.1.418-.15.678-.15.52 0 .902.19 1.146.57.248.38.372.912.372 1.596s-.124 1.216-.372 1.596c-.244.38-.626.57-1.146.57zm0-.576a.74.74 0 0 0 .366-.084.692.692 0 0 0 .252-.252c.064-.108.11-.236.138-.384a2.79 2.79 0 0 0 .042-.504v-.732c0-.184-.014-.35-.042-.498a1.18 1.18 0 0 0-.138-.39.7.7 0 0 0-.618-.336.732.732 0 0 0-.372.09.66.66 0 0 0-.246.246 1.18 1.18 0 0 0-.138.39 2.691 2.691 0 0 0-.042.498v.732c0 .184.014.352.042.504.028.148.074.276.138.384a.708.708 0 0 0 .246.252.774.774 0 0 0 .372.084z" fill="#fff"/></svg>