<svg width="32" height="32" fill="none" xmlns="http://www.w3.org/2000/svg"><path d="M26.203 8.025H5.797C4.805 8.025 4 8.843 4 9.851v12.322C4 23.182 4.805 24 5.797 24h20.406c.992 0 1.797-.817 1.797-1.826V9.851c0-1.008-.805-1.826-1.797-1.826z" fill="#fff"/><path d="M16 20.636c2.514 0 4.551-2.07 4.551-4.623 0-2.554-2.037-4.624-4.551-4.624-2.514 0-4.552 2.07-4.552 4.623 0 2.554 2.038 4.624 4.552 4.624z" fill="#ED293F"/><path fill-rule="evenodd" clip-rule="evenodd" d="M26 9H6a1 1 0 00-1 1v12a1 1 0 001 1h20a1 1 0 001-1V10a1 1 0 00-1-1zM6 8a2 2 0 00-2 2v12a2 2 0 002 2h20a2 2 0 002-2V10a2 2 0 00-2-2H6z" fill="#000" fill-opacity=".04"/><path d="M16 3a1 1 0 011-1h12a1 1 0 011 1v6a1 1 0 01-1 1H17a1 1 0 01-1-1V3z" fill="#0E0E0E"/><path d="M20.845 8.094h-2.844v-.648l1.338-1.194c.212-.192.374-.374.486-.546A.988.988 0 0020 5.154v-.078c0-.204-.062-.364-.186-.48-.12-.116-.284-.174-.492-.174a.804.804 0 00-.306.054.67.67 0 00-.222.138.841.841 0 00-.162.21 1.32 1.32 0 00-.096.258l-.594-.228c.044-.132.104-.258.18-.378a1.326 1.326 0 01.696-.558c.16-.056.346-.084.558-.084.212 0 .402.032.57.096.168.06.308.146.42.258.116.108.204.238.264.39.06.152.09.318.09.498 0 .168-.026.324-.078.468-.052.144-.124.28-.216.408a2.5 2.5 0 01-.324.366 11.5 11.5 0 01-.384.354l-.984.846h2.112v.576zM24.443 8.094H21.6v-.648l1.338-1.194c.212-.192.374-.374.486-.546a.988.988 0 00.174-.552v-.078c0-.204-.062-.364-.186-.48-.12-.116-.284-.174-.492-.174a.804.804 0 00-.306.054.67.67 0 00-.222.138.841.841 0 00-.162.21 1.32 1.32 0 00-.096.258l-.594-.228c.044-.132.104-.258.18-.378a1.326 1.326 0 01.696-.558c.16-.056.346-.084.558-.084.212 0 .402.032.57.096.168.06.308.146.42.258.116.108.204.238.264.39.06.152.09.318.09.498 0 .168-.026.324-.078.468-.052.144-.124.28-.216.408a2.5 2.5 0 01-.324.366 11.5 11.5 0 01-.384.354l-.984.846h2.112v.576zM27.843 4.494h-1.86l-.108 1.482h.042c.048-.084.098-.158.15-.222a.739.739 0 01.414-.282 1.345 1.345 0 01.81.048c.156.06.29.146.402.258.116.112.206.25.27.414.064.16.096.342.096.546 0 .208-.034.4-.102.576a1.23 1.23 0 01-.288.456 1.38 1.38 0 01-.474.294 1.81 1.81 0 01-.63.102 1.707 1.707 0 01-.882-.228 1.699 1.699 0 01-.288-.24 2.781 2.781 0 01-.216-.282l.492-.39c.052.084.106.16.162.228.056.068.12.128.192.18a.844.844 0 00.24.12c.092.028.196.042.312.042.248 0 .438-.068.57-.204.136-.136.204-.324.204-.564v-.072c0-.24-.068-.428-.204-.564-.132-.136-.322-.204-.57-.204a.803.803 0 00-.432.102 1.31 1.31 0 00-.276.228l-.558-.078.156-2.334h2.376v.588z" fill="#fff"/></svg>