<svg width="32" height="32" fill="none" xmlns="http://www.w3.org/2000/svg"><path d="M26 8H6a2 2 0 00-2 2v12a2 2 0 002 2h20a2 2 0 002-2V10a2 2 0 00-2-2z" fill="#0D47A1"/><path d="M16.168 20.693l.166.505.525.004c.068 0 .096.089.041.13l-.422.316.158.508c.02.066-.053.12-.108.08l-.427-.31-.426.31c-.056.04-.13-.014-.109-.08l.158-.508-.421-.316c-.055-.041-.027-.13.04-.13l.525-.004.166-.505a.07.07 0 01.134 0zm-2.584-.848l.166.506.525.004c.067 0 .096.088.041.13l-.422.316.158.508c.02.066-.053.12-.108.08l-.427-.31-.426.31c-.056.04-.13-.014-.109-.08l.158-.508-.422-.317c-.054-.04-.026-.129.042-.13l.524-.003.166-.506a.07.07 0 01.134 0zm5.207 0a.07.07 0 01.134 0l.166.506.524.004c.068 0 .096.088.042.13l-.422.316.158.508c.02.066-.053.12-.109.08l-.426-.31-.427.31c-.055.04-.129-.014-.108-.08l.158-.508-.422-.317c-.055-.04-.027-.129.041-.13l.525-.003.166-.506zm2.088-1.985l.166.505.525.004c.068 0 .096.088.041.13l-.422.316.159.508c.02.066-.054.12-.109.08l-.427-.31-.426.31c-.055.04-.13-.014-.109-.08l.159-.508-.422-.317c-.055-.04-.027-.129.041-.129l.524-.004.166-.505a.07.07 0 01.134 0zm-9.27-.032l.02.032.166.505.525.004c.054 0 .083.057.064.1l-.023.03-.422.316.159.508a.072.072 0 01-.075.093l-.034-.013-.427-.31-.426.31c-.044.032-.1.004-.11-.043l.001-.037.159-.508-.422-.317a.073.073 0 01.006-.12l.035-.009.524-.004.166-.505a.07.07 0 01.114-.032zm9.9-2.56l.166.505.524.004c.068 0 .096.088.042.13l-.422.316.158.508c.02.066-.053.12-.109.08l-.426-.31-.427.31c-.055.04-.129-.014-.108-.08l.158-.508-.422-.317c-.055-.04-.027-.129.041-.13l.525-.003.166-.506a.07.07 0 01.134 0zm-10.681 0l.166.505.524.004c.068 0 .096.088.041.13l-.421.316.158.508c.02.066-.053.12-.109.08l-.426-.31-.427.31c-.055.04-.129-.014-.108-.08l.158-.508-.422-.317c-.055-.04-.027-.129.041-.13l.525-.003.166-.506a.07.07 0 01.134 0zm.802-2.834l.165.506.525.004c.068 0 .096.088.041.13l-.422.316.159.508c.02.065-.054.12-.109.08l-.427-.31-.426.31c-.055.04-.13-.015-.109-.08l.159-.508-.422-.317c-.055-.04-.027-.129.041-.13l.524-.003.166-.506a.07.07 0 01.135 0zm9.23-.031l.02.031.166.506.524.004c.054 0 .083.056.064.1l-.023.03-.422.316.159.508a.072.072 0 01-.074.093l-.035-.013-.427-.31-.426.31c-.044.032-.1.003-.11-.043l.001-.037.159-.508-.422-.317a.073.073 0 01.006-.12l.035-.01.524-.003.166-.506a.07.07 0 01.114-.031zm-1.935-1.955l.166.506.524.004c.068 0 .096.088.042.13l-.422.316.158.508c.02.065-.053.12-.109.08l-.426-.31-.427.31c-.055.04-.129-.014-.108-.08l.158-.508-.422-.317c-.055-.04-.027-.129.041-.13l.525-.003.166-.506a.07.07 0 01.134 0zm-5.36-.031l.02.031.165.506.525.004c.054 0 .083.057.064.1l-.023.03-.422.316.158.508a.072.072 0 01-.074.093l-.034-.013-.427-.31-.426.31c-.045.032-.1.003-.11-.043l.001-.037.158-.508-.422-.317a.073.073 0 01.006-.12l.036-.01.524-.003.166-.506a.07.07 0 01.114-.031zm2.603-.575l.166.505.525.005c.068 0 .096.088.041.13l-.422.316.158.508c.02.065-.053.12-.108.08l-.427-.31-.426.31c-.056.04-.13-.015-.109-.08l.158-.508-.421-.317c-.055-.04-.027-.129.04-.13l.525-.004.166-.505a.07.07 0 01.134 0z" fill="#FFEB3B"/><path fill-rule="evenodd" clip-rule="evenodd" d="M26 9H6a1 1 0 00-1 1v12a1 1 0 001 1h20a1 1 0 001-1V10a1 1 0 00-1-1zM6 8a2 2 0 00-2 2v12a2 2 0 002 2h20a2 2 0 002-2V10a2 2 0 00-2-2H6z" fill="#000" fill-opacity=".04"/></svg>