<svg width="32" height="33" fill="none" xmlns="http://www.w3.org/2000/svg"><path d="M22 4.33H2a2 2 0 0 0-2 2v12a2 2 0 0 0 2 2h20a2 2 0 0 0 2-2v-12a2 2 0 0 0-2-2z" fill="#0D47A1"/><path d="m12.168 17.023.166.505.525.005c.068 0 .096.088.041.129l-.422.317.158.507c.02.066-.053.12-.108.08l-.427-.31-.426.31a.071.071 0 0 1-.109-.08l.158-.508-.421-.316c-.055-.041-.027-.129.04-.13l.525-.004.166-.505a.07.07 0 0 1 .134 0zm-2.584-.847.166.505.524.004c.069 0 .097.089.042.13l-.422.316.158.508c.02.066-.053.12-.108.08l-.427-.31-.426.31a.071.071 0 0 1-.109-.08l.158-.508-.422-.316c-.054-.041-.026-.13.042-.13l.524-.004.166-.505a.07.07 0 0 1 .134 0zm5.207 0a.07.07 0 0 1 .134 0l.166.505.524.004c.068 0 .096.089.041.13l-.421.316.158.508c.02.066-.054.12-.109.08l-.426-.31-.427.31c-.055.04-.129-.014-.108-.08l.158-.508-.422-.316c-.055-.041-.027-.13.041-.13l.525-.004.166-.505zm2.088-1.986.166.505.525.004c.068 0 .096.089.041.13l-.422.316.159.508c.02.066-.054.12-.109.08l-.427-.31-.426.31c-.055.04-.13-.014-.109-.08l.159-.508-.422-.316c-.055-.041-.027-.13.041-.13l.524-.004.166-.505a.07.07 0 0 1 .134 0zm-9.27-.032.02.032.166.505.525.004c.054 0 .083.057.064.1l-.023.03-.422.316.159.508a.072.072 0 0 1-.075.094l-.034-.014-.427-.31-.426.31a.07.07 0 0 1-.11-.042l.001-.038.159-.508-.422-.316a.073.073 0 0 1 .005-.12l.036-.01.524-.004.166-.505a.07.07 0 0 1 .114-.032zm9.9-2.56.166.505.524.004c.068 0 .096.089.042.13l-.422.316.158.508c.02.066-.053.12-.109.08l-.426-.31-.427.31c-.055.04-.129-.014-.108-.08l.158-.508-.422-.316c-.055-.041-.027-.13.041-.13l.525-.004.166-.505a.07.07 0 0 1 .134 0zm-10.681 0 .166.505.524.004c.068 0 .096.089.041.13l-.421.316.158.508c.02.066-.053.12-.109.08l-.426-.31-.427.31c-.055.04-.129-.014-.108-.08l.158-.508-.422-.316c-.055-.041-.027-.13.041-.13l.525-.004.166-.505a.07.07 0 0 1 .134 0zm.801-2.833.166.505.525.004c.068 0 .096.089.041.13l-.422.316.159.508c.02.066-.054.12-.109.08l-.427-.31-.426.31c-.055.04-.13-.014-.109-.08l.159-.508-.422-.316c-.055-.041-.027-.13.041-.13l.524-.004.166-.505a.07.07 0 0 1 .134 0zm9.23-.032.02.032.166.505.525.004c.054 0 .083.057.064.1l-.023.03-.422.316.159.508a.072.072 0 0 1-.075.093l-.034-.013-.427-.31-.426.31c-.044.032-.1.004-.11-.043l.001-.037.159-.508-.422-.316a.073.073 0 0 1 .006-.12l.035-.01.524-.004.166-.505a.07.07 0 0 1 .114-.032zM14.925 6.78l.166.505.524.004c.068 0 .096.089.041.13l-.421.316.158.508c.02.066-.053.12-.109.08l-.426-.31-.427.31c-.055.04-.129-.014-.108-.08l.158-.508-.422-.316c-.055-.041-.027-.13.041-.13l.525-.004.166-.505a.07.07 0 0 1 .134 0zm-5.36-.032.02.032.165.505.524.004c.055 0 .084.057.065.1l-.023.03-.422.316.158.508a.072.072 0 0 1-.074.094l-.034-.014-.427-.31-.426.31a.07.07 0 0 1-.11-.042l.001-.038.158-.508-.422-.316a.073.073 0 0 1 .006-.12l.036-.01.524-.004.166-.505a.07.07 0 0 1 .114-.032zm2.603-.575.166.506.525.004c.068 0 .096.088.041.13l-.422.316.158.508c.02.066-.053.12-.108.08l-.427-.31-.426.31a.071.071 0 0 1-.109-.08l.158-.508-.421-.317c-.055-.04-.027-.129.04-.13l.525-.003.166-.506a.07.07 0 0 1 .134 0z" fill="#FFEB3B"/><path fill-rule="evenodd" clip-rule="evenodd" d="M22 5.33H2a1 1 0 0 0-1 1v12a1 1 0 0 0 1 1h20a1 1 0 0 0 1-1v-12a1 1 0 0 0-1-1zm-20-1a2 2 0 0 0-2 2v12a2 2 0 0 0 2 2h20a2 2 0 0 0 2-2v-12a2 2 0 0 0-2-2H2z" fill="#000" fill-opacity=".04"/><path fill-rule="evenodd" clip-rule="evenodd" d="M8 26.33c0 1.105.897 2 2.005 2h19.99a1.998 1.998 0 0 0 2.005-2v-2H8v2z" fill="#0E46D4"/><path d="M32 16.33H8v8h24v-8z" fill="#fff"/><path clip-rule="evenodd" d="m20 17.576 2.43 4.254h-4.86L20 17.576z" stroke="#093EC5" stroke-width=".5"/><path clip-rule="evenodd" d="m20 23.084 2.43-4.254h-4.86L20 23.084z" stroke="#093EC5" stroke-width=".5"/><path fill-rule="evenodd" clip-rule="evenodd" d="M8 16.33h24v-2c0-1.104-.897-2-2.005-2h-19.99a1.998 1.998 0 0 0-2.005 2v2z" fill="#0E46D4"/><path fill-rule="evenodd" clip-rule="evenodd" d="M30 13.33H10a1 1 0 0 0-1 1v12a1 1 0 0 0 1 1h20a1 1 0 0 0 1-1v-12a1 1 0 0 0-1-1zm-20-1a2 2 0 0 0-2 2v12a2 2 0 0 0 2 2h20a2 2 0 0 0 2-2v-12a2 2 0 0 0-2-2H10z" fill="#000" fill-opacity=".04"/></svg>