<svg width="32" height="32" xmlns="http://www.w3.org/2000/svg" fill="none"><path fill="#D2D3DA" d="M17.514 4.857 21.8 12H27a1 1 0 1 1 0 2H5a1 1 0 1 1 0-2h5.2l4.285-7.143a1.766 1.766 0 0 1 3.03 0h-.001zM13.186 12l2.729-4.605a.1.1 0 0 1 .172 0L18.815 12h-5.63.001zm12.534 4a1 1 0 0 1 .97 1.242l-2.5 10a1 1 0 0 1-.97.758H8.78a1 1 0 0 1-.97-.758l-2.5-10A1 1 0 0 1 6.28 16h19.44zM10 20a1 1 0 1 1 2 0v4a1 1 0 1 1-2 0v-4zm6-1a1 1 0 0 0-1 1v4a1 1 0 1 0 2 0v-4a1 1 0 0 0-1-1zm4 1a1 1 0 1 1 2 0v4a1 1 0 1 1-2 0v-4z" clip-rule="evenodd" fill-rule="evenodd"/><circle fill="#FFDA5B" r="5.026" cy="5.231" cx="24.974" stroke="null"/></svg>