<svg width="32" height="32" xmlns="http://www.w3.org/2000/svg"><g fill="none" fill-rule="evenodd"><g fill-rule="nonzero"><path fill="#FF444F" d="m2 18.353 6.192 5.824 2.654-2.496 6.192 5.823 2.654-2.496L25.15 30l.003-2.265-5.46-5.08-2.655 2.496-6.192-5.823-2.654 2.495L2 16z"/><path fill="#85ACB0" d="m26 12 4 3.851-1.202 1.157-1.948-1.876V30h-1.7V15.132l-1.948 1.876L22 15.851z"/></g><path d="M15 10H3a1 1 0 0 1-1-1V3a1 1 0 0 1 1-1h12a1 1 0 0 1 1 1v6a1 1 0 0 1-1 1" fill="#2A2A2A"/><path d="M5.474 8.059c.455 0 .82-.115 1.097-.343.277-.229.415-.532.415-.911 0-.235-.06-.438-.177-.61a1.06 1.06 0 0 0-.538-.386c.193-.088.35-.214.469-.378a.898.898 0 0 0 .178-.54c0-.378-.127-.676-.383-.891-.256-.216-.61-.324-1.06-.324-.26 0-.498.05-.714.15a1.2 1.2 0 0 0-.504.414c-.12.177-.18.376-.18.599h.846c0-.143.055-.258.164-.347a.625.625 0 0 1 .408-.134c.18 0 .32.048.423.144.103.096.154.23.154.401a.59.59 0 0 1-.155.428c-.104.107-.263.161-.478.161h-.451v.662h.448c.469 0 .703.213.703.639a.551.551 0 0 1-.171.423c-.114.107-.272.16-.473.16a.664.664 0 0 1-.444-.152.49.49 0 0 1-.18-.393h-.847c0 .37.135.666.406.89.27.225.618.338 1.044.338zm3.527 0c.471 0 .829-.157 1.073-.47.244-.312.366-.763.366-1.353v-.785c-.006-.572-.132-1.011-.378-1.317-.246-.305-.602-.458-1.066-.458-.465 0-.821.154-1.068.463-.247.308-.37.76-.37 1.356v.785c.005.573.131 1.012.377 1.319.246.306.602.46 1.066.46zm0-.683c-.209 0-.36-.084-.455-.253-.095-.17-.142-.428-.142-.775V5.31c.006-.327.056-.566.15-.72.095-.153.242-.23.442-.23.205 0 .356.08.452.242.097.161.145.418.145.772v1.014c-.004.334-.051.582-.143.744-.092.162-.242.243-.449.243zm3.443.683c.47 0 .828-.157 1.072-.47.244-.312.366-.763.366-1.353v-.785c-.006-.572-.132-1.011-.378-1.317-.246-.305-.601-.458-1.066-.458-.465 0-.82.154-1.068.463-.247.308-.37.76-.37 1.356v.785c.005.573.131 1.012.377 1.319.247.306.602.46 1.067.46zm0-.683c-.21 0-.361-.084-.456-.253-.094-.17-.142-.428-.142-.775V5.31c.006-.327.056-.566.151-.72.095-.153.242-.23.441-.23.205 0 .356.08.453.242.096.161.145.418.145.772v1.014c-.004.334-.052.582-.144.744-.092.162-.241.243-.448.243z" fill="#FFF" fill-rule="nonzero"/></g></svg>