<svg width="32" height="33" fill="none" xmlns="http://www.w3.org/2000/svg"><path d="M22 4.33H2a2 2 0 00-2 2v12a2 2 0 002 2h20a2 2 0 002-2v-12a2 2 0 00-2-2z" fill="#0D47A1"/><path d="M.414 12.317h.719l3.833-2.551v2.551h2.069V9.766l3.832 2.551h.72a.417.417 0 00.413-.42v-.334L8.712 9.375H12V7.273H8.711L12 5.084v-.333a.417.417 0 00-.414-.42h-.719L7.034 6.88v-2.55H4.965v2.55L1.258 4.414a1.807 1.807 0 00-1.017.83l3.048 2.029H0v2.102h3.289L0 11.563v.334c0 .232.185.42.414.42zM6.125 14.61l.313 1.047 1-.405c.086-.035.163.064.111.14l-.611.902.936.542c.08.047.052.17-.04.177l-1.075.076.166 1.081c.014.092-.098.147-.16.078l-.729-.806-.729.806c-.062.07-.174.014-.16-.078l.166-1.081-1.075-.076c-.091-.007-.12-.13-.04-.177l.937-.542-.612-.901c-.052-.077.026-.176.111-.141l1 .405.313-1.048a.093.093 0 01.178 0zm12.31 1.523l.152.512.49-.198c.041-.017.08.031.054.069l-.3.44.458.265c.039.023.025.083-.02.086l-.524.037.08.529c.008.045-.047.072-.078.038l-.356-.394-.356.394c-.03.034-.085.007-.078-.038l.081-.529-.525-.037c-.045-.003-.058-.063-.02-.086l.458-.265-.299-.44c-.025-.038.013-.086.054-.069l.49.198.152-.512a.045.045 0 01.087 0zm1.18-4.125a.052.052 0 01.1 0l.122.373.387.003c.05 0 .07.066.03.096l-.31.234.116.375c.015.048-.04.088-.08.059l-.315-.229-.315.229c-.04.03-.095-.01-.08-.06l.117-.374-.312-.234c-.04-.03-.02-.095.03-.096l.388-.003.122-.373zm-4.582-.92l.152.513.49-.198c.041-.017.08.031.054.069l-.3.44.458.265c.039.023.025.083-.02.086l-.524.037.08.528c.008.046-.047.072-.078.039l-.356-.394-.356.394c-.03.033-.085.006-.078-.039l.081-.528-.525-.037c-.045-.003-.058-.063-.02-.086l.458-.265-.299-.44c-.025-.038.013-.086.055-.07l.488.199.153-.512a.045.045 0 01.087 0zm6.62-1.68l.153.511.49-.198c.04-.017.079.032.053.07l-.298.44.457.264c.039.023.025.083-.02.086l-.525.038.081.528c.007.045-.047.072-.078.038l-.356-.394-.356.394c-.03.034-.085.007-.078-.038l.081-.528-.525-.038c-.045-.003-.058-.063-.02-.086l.458-.265-.299-.44c-.025-.037.013-.086.054-.069l.49.198.152-.512a.045.045 0 01.087 0zM18.436 7.16l.152.512.49-.198c.041-.017.08.032.054.07l-.3.44.458.265c.039.022.025.082-.02.086l-.524.037.08.528c.008.045-.047.072-.078.038l-.356-.393-.356.393c-.03.034-.085.007-.078-.038l.081-.528-.525-.037c-.045-.004-.058-.064-.02-.086l.458-.265-.299-.44c-.025-.038.013-.087.054-.07l.49.198.152-.512a.045.045 0 01.087 0z" fill="#fff"/><path d="M6.62 4.33v3.363H12v1.261H6.62v3.363H5.38V8.954H0v-1.26h5.38V4.33h1.24zM4.955 9.375L.492 12.317H.414a.398.398 0 01-.305-.145l-.05-.07 4.135-2.727h.76zm3.164 0l3.875 2.555a.416.416 0 01-.234.346l-4.4-2.901h.76zM.685 4.723l3.867 2.55h-.76L.386 5.027c.087-.113.188-.215.299-.304zm10.901-.393c.122 0 .227.056.301.142l.05.07-4.142 2.73h-.76l4.462-2.942h.09z" fill="#F44336"/><path fill-rule="evenodd" clip-rule="evenodd" d="M22 5.33H2a1 1 0 00-1 1v12a1 1 0 001 1h20a1 1 0 001-1v-12a1 1 0 00-1-1zm-20-1a2 2 0 00-2 2v12a2 2 0 002 2h20a2 2 0 002-2v-12a2 2 0 00-2-2H2z" fill="#000" fill-opacity=".04"/><path d="M8 20.33h24v6a2 2 0 01-2 2H10a2 2 0 01-2-2v-6z" fill="#fff"/><path d="M10 12.33h20a2 2 0 012 2v6H8v-6a2 2 0 012-2z" fill="#E12237"/><path d="M12.625 14.33c.62 0 1.19.205 1.639.547a2.287 2.287 0 00-.764-.13c-1.208 0-2.188.933-2.188 2.083 0 1.15.98 2.084 2.188 2.084.269 0 .526-.047.764-.13-.45.342-1.02.546-1.639.546-1.45 0-2.625-1.119-2.625-2.5 0-1.38 1.175-2.5 2.625-2.5zm1.313 3.334c.241 0 .437.186.437.416 0 .23-.196.417-.438.417a.428.428 0 01-.437-.417c0-.23.196-.416.438-.416zm1.75 0c.241 0 .437.186.437.416 0 .23-.196.417-.438.417a.428.428 0 01-.437-.417c0-.23.196-.416.438-.416zm-2.626-1.667c.242 0 .438.186.438.417 0 .23-.196.416-.438.416a.427.427 0 01-.437-.416c0-.23.196-.417.438-.417zm3.5 0c.242 0 .438.186.438.417 0 .23-.196.416-.438.416a.427.427 0 01-.437-.416c0-.23.196-.417.438-.417zm-1.75-1.25c.242 0 .438.187.438.417 0 .23-.196.416-.438.416a.427.427 0 01-.437-.416c0-.23.196-.417.438-.417z" fill="#fff"/><path fill-rule="evenodd" clip-rule="evenodd" d="M30 13.33H10a1 1 0 00-1 1v12a1 1 0 001 1h20a1 1 0 001-1v-12a1 1 0 00-1-1zm-20-1a2 2 0 00-2 2v12a2 2 0 002 2h20a2 2 0 002-2v-12a2 2 0 00-2-2H10z" fill="#000" fill-opacity=".04"/></svg>