<svg width="32" height="32" xmlns="http://www.w3.org/2000/svg"><g transform="translate(4 8)" fill="none"><rect fill="#F44336" width="24" height="16" rx="2"/><path d="M16.552 6.319h-2.897V3.376a.417.417 0 00-.414-.42H10.76a.417.417 0 00-.414.42v2.943H7.448a.417.417 0 00-.414.42v2.522c0 .232.186.42.414.42h2.897v2.943c0 .232.185.42.414.42h2.482a.417.417 0 00.414-.42V9.681h2.897a.417.417 0 00.414-.42V6.739a.417.417 0 00-.414-.42z" fill="#FFF"/><rect stroke-opacity=".04" stroke="#000" x=".5" y=".5" width="23" height="15" rx="1"/></g></svg>