<svg xmlns="http://www.w3.org/2000/svg" width="32" height="32"><g fill="none" fill-rule="evenodd"><path d="M0 0h32v32H0z"/><path fill="#FFF" fill-rule="nonzero" d="M8.88 8.35a1.68 1.68 0 01-.74-.16 1.33 1.33 0 01-.51-.46 1.92 1.92 0 01-.3-.73 4.25 4.25 0 01-.1-1 4.25 4.25 0 01.1-1 2 2 0 01.3-.74 1.33 1.33 0 01.51-.46 1.68 1.68 0 01.74-.16 1.38 1.38 0 011.24.62 3.14 3.14 0 01.4 1.74 3.14 3.14 0 01-.4 1.73 1.38 1.38 0 01-1.24.62zm0-.63a.84.84 0 00.4-.09.7.7 0 00.27-.27 1.3 1.3 0 00.15-.42 3 3 0 000-.54v-.8a3 3 0 000-.54 1.3 1.3 0 00-.15-.42.7.7 0 00-.27-.27.84.84 0 00-.4-.09.82.82 0 00-.4.09.7.7 0 00-.27.27 1.3 1.3 0 00-.15.42A2.92 2.92 0 008 5.6v.8c0 .181.017.362.05.54a1.3 1.3 0 00.15.42.7.7 0 00.27.27.82.82 0 00.41.09z"/><circle cx="25" cy="25" r="5" fill="#EF4852" fill-rule="nonzero"/><path fill="#FFF" fill-rule="nonzero" d="M22.15 27.23v-.61h1.27v-3.39h-.05l-1.05 1.12-.45-.4L23 22.69h1.12v3.93h1.11v.61zm4.64.08a1.64 1.64 0 01-1.37-.64l.46-.42a1.3 1.3 0 00.42.36c.163.086.345.131.53.13a.76.76 0 00.47-.12.42.42 0 00.15-.34.41.41 0 00-.11-.28.61.61 0 00-.37-.14h-.31a1.66 1.66 0 01-.82-.3.85.85 0 01-.29-.71 1 1 0 01.09-.44 1 1 0 01.25-.32 1.27 1.27 0 01.4-.21 2 2 0 01.51-.07c.254-.008.507.04.74.14.198.098.375.234.52.4l-.43.42a1.06 1.06 0 00-.35-.27 1 1 0 00-.48-.12.63.63 0 00-.43.12.37.37 0 00-.14.31.36.36 0 00.12.29 1 1 0 00.4.14h.31a1.6 1.6 0 01.82.33.85.85 0 01.25.65 1.06 1.06 0 01-.09.45 1 1 0 01-.27.34 1.4 1.4 0 01-.42.22 1.94 1.94 0 01-.56.08z"/><path fill="#84AAAF" fill-rule="nonzero" d="M29.93 12.76a.502.502 0 10-.86-.52L26.8 16h-.3a1.52 1.52 0 00-.79.23L22.91 14c.06-.16.091-.33.09-.5a1.5 1.5 0 00-3 0c0 .348.124.685.35.95L18.8 17a1.48 1.48 0 00-1.09.2l-2.8-2.2c.06-.16.091-.33.09-.5a1.5 1.5 0 10-2.58 1L10.68 19h-.18a1.52 1.52 0 00-.79.23L6.91 17a1.48 1.48 0 000-.91A1.51 1.51 0 005.5 15c-.142 0-.283.02-.42.06a1.5 1.5 0 00-1 1.86c.087.305.274.573.53.76L3.47 21a1.51 1.51 0 10.95.32L5.53 18c.142 0 .283-.02.42-.06.13-.043.253-.1.37-.17L9.09 20c-.06.16-.091.33-.09.5a1.5 1.5 0 102.58-1l1.74-3.5h.18a1.52 1.52 0 00.79-.23l2.8 2.23a1.37 1.37 0 00-.09.49 1.5 1.5 0 003 0 1.46 1.46 0 00-.35-.95L21.2 15h.3a1.52 1.52 0 00.79-.23l2.8 2.23a1.37 1.37 0 00-.09.49 1.5 1.5 0 003 0 1.46 1.46 0 00-.35-.95l2.28-3.78zM3.5 23a.5.5 0 110-1 .5.5 0 010 1zm2.14-6H5.5a.505.505 0 01-.14-1h.14a.505.505 0 01.14 1zm4.86 4a.5.5 0 110-1 .5.5 0 010 1zm3-6a.5.5 0 110-1 .5.5 0 010 1zm5 4a.5.5 0 110-1 .5.5 0 010 1zm3-5a.5.5 0 110-1 .5.5 0 010 1zm5 4a.5.5 0 110-1 .5.5 0 010 1z"/><rect width="14" height="9" x="2" y="2" fill="#2A2A2A" fill-rule="nonzero" rx="1"/><path fill="#FFF" fill-rule="nonzero" d="M3.301 8.97v-.658h1.372V4.658h-.056L3.483 5.869 3 5.435l1.246-1.351H5.45v4.228h1.19v.658H3.301zm5.684.084c-.303 0-.567-.057-.791-.171a1.458 1.458 0 01-.553-.494 2.304 2.304 0 01-.322-.791 4.928 4.928 0 01-.105-1.071c0-.397.035-.752.105-1.067.07-.316.177-.58.322-.795.145-.215.329-.38.553-.494.224-.114.488-.171.791-.171.607 0 1.053.222 1.34.665.288.443.431 1.064.431 1.862s-.143 1.419-.43 1.862c-.288.443-.734.665-1.341.665zm0-.672a.858.858 0 00.43-.101.788.788 0 00.291-.291 1.37 1.37 0 00.161-.452c.033-.175.049-.37.049-.584V6.1c0-.215-.016-.41-.049-.584a1.374 1.374 0 00-.161-.452.788.788 0 00-.29-.29.858.858 0 00-.431-.102.858.858 0 00-.43.102.788.788 0 00-.291.29 1.374 1.374 0 00-.161.452c-.033.175-.049.37-.049.584v.854c0 .215.016.41.049.585s.086.325.161.451a.788.788 0 00.29.29.858.858 0 00.431.102zm4.2.672c-.303 0-.567-.057-.791-.171a1.458 1.458 0 01-.553-.494 2.304 2.304 0 01-.322-.791 4.928 4.928 0 01-.105-1.071c0-.397.035-.752.105-1.067.07-.316.177-.58.322-.795.145-.215.329-.38.553-.494.224-.114.488-.171.791-.171.607 0 1.053.222 1.34.665.288.443.431 1.064.431 1.862s-.143 1.419-.43 1.862c-.288.443-.734.665-1.341.665zm0-.672a.858.858 0 00.43-.101.788.788 0 00.291-.291 1.37 1.37 0 00.161-.452c.033-.175.049-.37.049-.584V6.1c0-.215-.016-.41-.049-.584a1.374 1.374 0 00-.161-.452.788.788 0 00-.29-.29.858.858 0 00-.431-.102.858.858 0 00-.43.102.788.788 0 00-.291.29 1.374 1.374 0 00-.161.452c-.033.175-.049.37-.049.584v.854c0 .215.016.41.049.585s.086.325.161.451a.788.788 0 00.29.29.858.858 0 00.431.102z"/></g></svg>