<svg width="32" height="32" fill="none" xmlns="http://www.w3.org/2000/svg"><path d="M0 2a2 2 0 012-2h15a2 2 0 012 2v6a2 2 0 01-2 2H2a2 2 0 01-2-2V2z" fill="#414652"/><path d="M6.769 4.536c0 .395-.062.765-.184 1.112-.118.347-.272.67-.464.968-.187.293-.4.557-.64.792A4.704 4.704 0 014.769 8H3.113c.341-.245.648-.477.92-.696.272-.224.506-.448.704-.672.202-.224.368-.45.496-.68.128-.235.221-.485.28-.752l-.072-.024c-.048.107-.107.21-.176.312a1.084 1.084 0 01-.248.272 1.24 1.24 0 01-.344.184 1.368 1.368 0 01-.464.072c-.23 0-.446-.04-.648-.12a1.66 1.66 0 01-.52-.352A1.663 1.663 0 012.697 5a2.039 2.039 0 01-.12-.72c0-.288.048-.552.144-.792.101-.24.242-.445.424-.616.186-.176.408-.312.664-.408.256-.096.544-.144.864-.144.33 0 .626.053.888.16.261.101.48.25.656.448.181.192.317.424.408.696.096.272.144.576.144.912zm-2.096.56c.266 0 .474-.072.624-.216.149-.15.224-.36.224-.632v-.144c0-.272-.075-.48-.224-.624-.15-.15-.358-.224-.624-.224-.267 0-.475.075-.624.224-.15.144-.224.352-.224.624v.144c0 .272.074.483.224.632.149.144.357.216.624.216zM9.502 8.096c-.731 0-1.272-.253-1.624-.76-.352-.507-.528-1.216-.528-2.128 0-.912.176-1.621.528-2.128.352-.507.893-.76 1.624-.76.73 0 1.272.253 1.624.76.352.507.528 1.216.528 2.128 0 .912-.176 1.621-.528 2.128-.352.507-.894.76-1.624.76zm0-1.016c.32 0 .54-.117.664-.352.122-.235.184-.565.184-.992V4.68c0-.427-.062-.757-.184-.992-.123-.235-.344-.352-.664-.352-.32 0-.542.117-.664.352-.123.235-.184.565-.184.992v1.056c0 .427.06.757.184.992.122.235.344.352.664.352zM14.298 8.096c-.73 0-1.272-.253-1.624-.76-.352-.507-.528-1.216-.528-2.128 0-.912.176-1.621.528-2.128.352-.507.894-.76 1.624-.76.731 0 1.272.253 1.624.76.352.507.528 1.216.528 2.128 0 .912-.176 1.621-.528 2.128-.352.507-.893.76-1.624.76zm0-1.016c.32 0 .542-.117.664-.352.123-.235.184-.565.184-.992V4.68c0-.427-.06-.757-.184-.992-.122-.235-.344-.352-.664-.352-.32 0-.54.117-.664.352-.122.235-.184.565-.184.992v1.056c0 .427.062.757.184.992.123.235.344.352.664.352z" fill="#fff"/><path d="M.01 17.414l7 7 3-3 7 7 3-3 6 6v-2.828l-6-6-3 3-7-7-3 3-7-7v2.828z" fill="#FF444F"/><path d="M27.01 10l4.708 4.707-1.415 1.414-2.292-2.293V32h-1.415l-.585-.586V13.828l-2.293 2.293-1.415-1.414L27.011 10z" fill="#0AA0B0"/></svg>