<svg xmlns="http://www.w3.org/2000/svg" width="32" height="24"><g fill="none" fill-rule="evenodd"><path fill="#0D47A1" fill-rule="nonzero" d="M22.203 0H1.797C.805 0 0 .817 0 1.826v12.322c0 1.008.805 1.826 1.797 1.826h20.406c.992 0 1.797-.818 1.797-1.826V1.826C24 .817 23.195 0 22.203 0z"/><path fill="#FFF" fill-rule="nonzero" d="M.414 7.987h.719l3.833-2.551v2.55h2.069v-2.55l3.832 2.55h.72a.417.417 0 00.413-.42v-.333L8.712 5.044H12V2.943H8.711L12 .753V.42a.417.417 0 00-.414-.42h-.719L7.034 2.551V0H4.965v2.551L1.258.084a1.807 1.807 0 00-1.017.83l3.048 2.029H0v2.101h3.289L0 7.233v.333c0 .233.185.42.414.42zm5.711 2.292l.313 1.047 1-.405c.086-.034.163.065.111.142l-.611.9.936.543c.08.046.052.17-.04.176l-1.075.076.166 1.082c.014.092-.098.147-.16.078l-.729-.806-.729.806c-.062.069-.174.014-.16-.078l.166-1.082-1.075-.076c-.091-.006-.119-.13-.04-.176l.937-.542-.612-.901c-.052-.077.026-.176.111-.142l1 .405.313-1.047a.093.093 0 01.178 0zm12.31-7.448l.153.512.488-.198c.042-.017.08.031.055.069l-.3.44.458.265c.039.023.025.083-.02.086l-.524.037.08.529a.045.045 0 01-.078.038l-.356-.394-.356.394c-.03.034-.085.007-.078-.038l.081-.529-.525-.037c-.045-.003-.058-.063-.02-.086l.458-.265-.299-.44c-.025-.038.013-.086.054-.069l.49.198.152-.512a.045.045 0 01.087 0zM15.033 6.76l.152.511.49-.198c.041-.016.08.032.054.07l-.3.44.458.265c.039.022.025.082-.02.086l-.524.037.08.528a.045.045 0 01-.078.038l-.356-.393-.356.393c-.03.034-.085.007-.078-.038l.081-.528-.525-.037c-.045-.004-.058-.064-.02-.086l.458-.265-.299-.44c-.025-.038.013-.086.054-.07l.49.198.152-.511a.045.045 0 01.087 0zm6.62-1.682l.153.512.49-.198c.04-.017.079.031.053.069l-.298.44.457.265c.039.023.025.083-.02.086l-.525.037.081.529c.007.045-.047.072-.078.038l-.356-.394-.356.394c-.03.033-.085.007-.078-.038l.081-.529-.525-.037c-.045-.003-.058-.063-.02-.086l.458-.265-.299-.44c-.025-.038.013-.086.054-.07l.49.199.152-.512a.045.045 0 01.087 0zm-3.218 6.726l.153.512.488-.198c.042-.017.08.031.055.069l-.3.44.458.265c.039.022.025.083-.02.086l-.524.037.08.528c.008.045-.047.072-.078.039l-.356-.394-.356.394c-.03.033-.085.006-.078-.039l.081-.528-.525-.037c-.045-.003-.058-.064-.02-.086l.458-.265-.299-.44c-.025-.038.013-.086.054-.07l.49.199.152-.512a.045.045 0 01.087 0zm1.18-4.125a.052.052 0 01.1 0l.122.373.387.003c.05 0 .071.065.03.096l-.31.233.116.375c.015.049-.04.09-.08.06l-.315-.23-.315.23c-.04.03-.095-.011-.08-.06l.117-.375-.312-.233c-.04-.03-.02-.095.03-.096l.388-.003.122-.373z"/><path fill="#F44336" fill-rule="nonzero" d="M12 3.363v1.261H6.62v3.363H5.38V4.624H0V3.363h5.38V0h1.24v3.363H12zM.386.696C.473.584.574.482.685.393l3.867 2.55h-.76L.386.696zm7.409 2.247h-.76L11.496 0h.09c.151 0 .278.087.35.21L7.795 2.944zm-3.6 2.101h.76L.491 7.987H.414a.408.408 0 01-.355-.216l4.135-2.727zM11.992 7.6a.416.416 0 01-.234.346l-4.4-2.902h.76L11.992 7.6z"/><rect width="23" height="15" x=".5" y=".5" stroke="#000" stroke-opacity=".04" rx="2"/><rect width="23" height="15" x=".5" y=".5" stroke="#000" stroke-opacity=".04" rx="2"/><g transform="translate(8 8)"><g fill-rule="nonzero"><path fill="#0D47A1" d="M22.203 15.987H1.797C.805 15.987 0 15.169 0 14.16V1.839C0 .831.805.013 1.797.013h20.406C23.195.013 24 .831 24 1.84v12.322c0 1.008-.805 1.826-1.797 1.826z"/><path fill="#FFF" d="M.414 8h.719l3.833-2.551V8h2.069V5.449L10.867 8h.72A.417.417 0 0012 7.58v-.334L8.712 5.057H12V2.956H8.711L12 .767V.434a.417.417 0 00-.414-.42h-.719l-3.833 2.55V.014H4.965v2.55L1.258.097a1.807 1.807 0 00-1.017.83l3.048 2.029H0v2.101h3.289L0 7.247v.333c0 .232.185.42.414.42z"/><path fill="#F44336" d="M12 3.376v1.261H6.62V8H5.38V4.637H0V3.376h5.38V.013h1.24v3.363H12zM.386.71C.473.597.574.495.685.406l3.867 2.55h-.76L.386.71zm7.409 2.246h-.76L11.496.013h.09c.151 0 .278.087.35.211L7.795 2.956zm-3.6 2.101h.76L.491 8H.414a.408.408 0 01-.355-.216l4.135-2.727zm7.798 2.556a.416.416 0 01-.234.346l-4.4-2.902h.76l3.874 2.556z"/><path fill="#F44336" stroke="#FFF" stroke-width=".2" d="M18.538 13.339a.083.083 0 01-.048-.016l-.49-.355-.49.355a.082.082 0 01-.097 0 .085.085 0 01-.03-.094l.182-.583-.484-.363a.085.085 0 01-.03-.093.083.083 0 01.078-.059l.602-.005.19-.58a.083.083 0 01.08-.057c.035 0 .066.023.078.057l.19.58.602.005c.036 0 .067.024.078.059a.085.085 0 01-.03.093l-.484.363.182.583a.083.083 0 01-.08.11zm0-6.777a.083.083 0 01-.048-.016L18 6.19l-.49.356a.082.082 0 01-.097 0 .085.085 0 01-.03-.094l.182-.583-.484-.363a.085.085 0 01-.03-.094.083.083 0 01.078-.058l.602-.005.19-.58a.083.083 0 01.08-.057c.035 0 .066.023.078.057l.19.58.602.005c.036 0 .067.024.078.058a.085.085 0 01-.03.094l-.484.363.182.583a.083.083 0 01-.08.11zm2.896 2.101a.083.083 0 01-.048-.015l-.49-.356-.49.356a.082.082 0 01-.097 0 .085.085 0 01-.03-.094l.182-.583-.484-.363a.085.085 0 01-.03-.094.083.083 0 01.079-.058l.602-.005.19-.58a.083.083 0 01.079-.057c.035 0 .067.023.078.057l.19.58.603.005c.035 0 .067.023.078.058a.085.085 0 01-.03.094l-.484.363.182.583a.084.084 0 01-.08.11zm-5.793.841a.083.083 0 01-.048-.016l-.49-.355-.49.355a.082.082 0 01-.097 0 .085.085 0 01-.03-.094l.182-.582-.484-.364a.085.085 0 01-.03-.093.083.083 0 01.079-.059l.602-.004.19-.58a.083.083 0 01.079-.058c.035 0 .067.024.078.058l.19.58.602.004c.036 0 .068.024.079.059a.085.085 0 01-.03.093l-.484.364.182.582a.085.085 0 01-.03.094.083.083 0 01-.05.016z"/></g><rect width="23" height="15" x=".5" y=".5" stroke="#000" stroke-opacity=".04" rx="2"/></g><rect width="23" height="15" x="8.5" y="8.5" stroke="#000" stroke-opacity=".04" rx="2"/></g></svg>