<svg xmlns="http://www.w3.org/2000/svg" width="32" height="32"><g fill="none" fill-rule="evenodd"><path d="M0 0h32v32H0z"/><path fill="#E4E4E4" fill-rule="nonzero" d="M29.5 15H29a.5.5 0 000 1h.5a.5.5 0 000-1M6 15H5a.5.5 0 000 1h1a.5.5 0 000-1zm3 0H8a.5.5 0 000 1h1a.5.5 0 000-1zm3 0h-1a.5.5 0 000 1h1a.5.5 0 000-1zm3 0h-1a.5.5 0 000 1h1a.5.5 0 000-1zm3 0h-1a.5.5 0 000 1h1a.5.5 0 000-1zm3 0h-1a.5.5 0 000 1h1a.5.5 0 000-1zm3 0h-1a.5.5 0 000 1h1a.5.5 0 000-1zm3 0h-1a.5.5 0 000 1h1a.5.5 0 000-1zM3 15h-.5a.5.5 0 000 1H3a.5.5 0 000-1"/><path fill="#84AAAF" fill-rule="nonzero" d="M2.027 15.678L6.022 28.65a.517.517 0 00.457.35.505.505 0 00.486-.32L16.37 4.93l3.664 10.68a.499.499 0 10.944-.33L16.895 3.34a.487.487 0 00-.486-.34.487.487 0 00-.467.32L6.578 27 3.02 15.378c-.083-.276-.372-.46-.646-.378-.274.083-.43.402-.347.678z"/><path fill="#84AAAF" fill-rule="nonzero" d="M21 15.72l.22-.45a.5.5 0 10-.9-.44l-.22.45a.5.5 0 10.9.44"/><path fill="#EF4852" fill-rule="nonzero" d="M20.07 15.7l.2.46a.488.488 0 00.66.25.488.488 0 00.26-.65L21 15.3a.51.51 0 00-.66-.26.499.499 0 00-.26.66"/><circle cx="6.5" cy="28.5" r="1" fill="#FFF" fill-rule="nonzero"/><path fill="#84AAAF" fill-rule="nonzero" d="M6.5 28a.5.5 0 110 1 .5.5 0 010-1m0-1a1.5 1.5 0 10.001 3.001A1.5 1.5 0 006.5 27z"/><circle cx="11.5" cy="15.5" r="1" fill="#FFF" fill-rule="nonzero"/><path fill="#84AAAF" fill-rule="nonzero" d="M11.5 15a.5.5 0 110 1 .5.5 0 010-1m0-1a1.5 1.5 0 10.001 3.001A1.5 1.5 0 0011.5 14z"/><circle cx="16.5" cy="3.5" r="1" fill="#FFF" fill-rule="nonzero"/><path fill="#84AAAF" fill-rule="nonzero" d="M16.5 3a.5.5 0 110 1 .5.5 0 010-1m0-1a1.5 1.5 0 10.001 3.001A1.5 1.5 0 0016.5 2z"/><circle cx="20.5" cy="15.5" r="1" fill="#FFF" fill-rule="nonzero"/><path fill="#84AAAF" fill-rule="nonzero" d="M20.5 15a.5.5 0 110 1 .5.5 0 010-1m0-1a1.5 1.5 0 10.001 3.001A1.5 1.5 0 0020.5 14zm1.447-1.276l.447-.895a.5.5 0 10-.894-.447l-.447.894a.5.5 0 10.894.448zm1.342-2.684l.447-.894a.499.499 0 10-.894-.447l-.448.894a.5.5 0 00.894.447zm1.341-2.683l.317-.633a.5.5 0 10-.894-.448l-.317.634a.5.5 0 00.894.447z"/><path fill="#EF4852" fill-rule="nonzero" d="M21.04 18.697l.394.92a.5.5 0 00.919-.395l-.393-.919a.502.502 0 00-.92.394zm1.182 2.757l.394.92a.5.5 0 00.919-.394l-.394-.92a.5.5 0 00-.919.394zm1.182 2.758l.394.919a.5.5 0 00.919-.394l-.394-.92a.5.5 0 00-.919.395z"/><path fill="#85ACB0" fill-rule="nonzero" d="M27.82 2.109l.066.061 2.004 2.083a.428.428 0 01-.077.64.538.538 0 01-.64-.012l-.063-.059-1.115-1.075v2.798c0 .251-.223.455-.5.455a.477.477 0 01-.482-.373l-.008-.082V3.752L25.89 4.82a.536.536 0 01-.628.117l-.075-.046a.427.427 0 01-.129-.57l.05-.068 1.996-2.083a.535.535 0 01.642-.11l.074.048z"/><path fill="#FF444F" fill-rule="nonzero" d="M27.18 29.891l-.066-.061-2.004-2.083a.428.428 0 01.077-.64.538.538 0 01.64.012l.063.059 1.115 1.075v-2.798c0-.251.223-.455.5-.455.245 0 .44.16.482.373l.008.082v2.793l1.115-1.068a.536.536 0 01.628-.117l.075.046c.192.139.241.38.129.57l-.05.068-1.996 2.083a.535.535 0 01-.642.11l-.074-.048z"/></g></svg>