<svg width="32" height="32" fill="none" xmlns="http://www.w3.org/2000/svg"><path fill-rule="evenodd" clip-rule="evenodd" d="M29 16a3 3 0 10-2.708-1.707L18.5 22.086l-4.5-4.5-4.5 4.5-4.5-4.5-5 5v2.828l5-5 4.5 4.5 4.5-4.5 4.5 4.5 9.207-9.206c.391.187.83.292 1.293.292zm0-2a1 1 0 100-2 1 1 0 000 2z" fill="#0AA0B0"/><path d="M22.017 14H0v-2h24l-1.983 2zM24 32H0v-2h24v2z" fill="#0AA0B0"/><path d="M21.793 23.207l1.8 1.8 1.414-1.414-1.8-1.8-1.414 1.414z" fill="#FF444F"/><path fill-rule="evenodd" clip-rule="evenodd" d="M26.293 27.707l-1.8-1.8 1.414-1.414 1.8 1.8a3 3 0 11-1.414 1.414zM30 29a1 1 0 11-2 0 1 1 0 012 0z" fill="#FF444F"/><path d="M9.502 7.08c.32 0 .54-.117.664-.352.122-.235.184-.565.184-.992V4.68c0-.427-.062-.757-.184-.992-.123-.235-.344-.352-.664-.352-.32 0-.542.117-.664.352-.123.235-.184.565-.184.992v1.056c0 .427.06.757.184.992.122.235.344.352.664.352zM14.963 6.728c-.123.235-.345.352-.664.352-.32 0-.542-.117-.665-.352-.122-.235-.184-.565-.184-.992V4.68c0-.427.062-.757.184-.992.123-.235.345-.352.665-.352.32 0 .54.117.664.352.122.235.184.565.184.992v1.056c0 .427-.062.757-.184.992z" fill="#414652"/><path fill-rule="evenodd" clip-rule="evenodd" d="M2 0a2 2 0 00-2 2v6a2 2 0 002 2h15a2 2 0 002-2V2a2 2 0 00-2-2H2zm7.502 8.096c-.731 0-1.272-.253-1.624-.76-.352-.507-.528-1.216-.528-2.128 0-.912.176-1.621.528-2.128.352-.507.893-.76 1.624-.76.73 0 1.272.253 1.624.76.352.507.528 1.216.528 2.128 0 .912-.176 1.621-.528 2.128-.352.507-.894.76-1.624.76zM3.057 8v-.968H4.56V3.288h-.072L3.353 4.776l-.768-.6 1.336-1.76h1.84v4.616h1.184V8H3.057zm9.617-.664c.353.507.894.76 1.625.76.73 0 1.271-.253 1.623-.76.352-.507.529-1.216.529-2.128 0-.912-.177-1.621-.529-2.128-.352-.507-.893-.76-1.623-.76-.731 0-1.272.253-1.624.76-.353.507-.529 1.216-.529 2.128 0 .912.176 1.621.528 2.128z" fill="#414652"/><path d="M3.057 8v-.968H4.56V3.288h-.072L3.353 4.776l-.768-.6 1.336-1.76h1.84v4.616h1.184V8H3.057zM9.502 8.096c-.731 0-1.272-.253-1.624-.76-.352-.507-.528-1.216-.528-2.128 0-.912.176-1.621.528-2.128.352-.507.893-.76 1.624-.76.73 0 1.272.253 1.624.76.352.507.528 1.216.528 2.128 0 .912-.176 1.621-.528 2.128-.352.507-.894.76-1.624.76zm0-1.016c.32 0 .54-.117.664-.352.122-.235.184-.565.184-.992V4.68c0-.427-.062-.757-.184-.992-.123-.235-.344-.352-.664-.352-.32 0-.542.117-.664.352-.123.235-.184.565-.184.992v1.056c0 .427.06.757.184.992.122.235.344.352.664.352zM14.299 8.096c-.731 0-1.272-.253-1.624-.76-.353-.507-.529-1.216-.529-2.128 0-.912.176-1.621.528-2.128.353-.507.894-.76 1.625-.76.73 0 1.271.253 1.623.76.352.507.529 1.216.529 2.128 0 .912-.177 1.621-.529 2.128-.352.507-.893.76-1.623.76zm0-1.016c.32 0 .54-.117.664-.352.122-.235.184-.565.184-.992V4.68c0-.427-.062-.757-.184-.992-.123-.235-.345-.352-.664-.352-.32 0-.542.117-.665.352-.122.235-.184.565-.184.992v1.056c0 .427.062.757.184.992.123.235.345.352.665.352z" fill="#fff"/></svg>