<svg width="32" height="32" fill="none" xmlns="http://www.w3.org/2000/svg"><mask id="a" maskUnits="userSpaceOnUse" x="0" y="4" width="24" height="16"><path d="M22 4H2a2 2 0 00-2 2v12a2 2 0 002 2h20a2 2 0 002-2V6a2 2 0 00-2-2z" fill="#fff"/></mask><g mask="url(#a)"><path d="M22 4H2a2 2 0 00-2 2v12a2 2 0 002 2h20a2 2 0 002-2V6a2 2 0 00-2-2z" fill="#fff"/><path d="M24 18.688c0 .725-.587 1.312-1.312 1.312H1.312A1.312 1.312 0 010 18.688h24zm0-2.448v1.224H0V16.24h24zm0-2.448v1.224H0v-1.224h24zm0-2.448v1.224H0v-1.224h24zm0-2.448v1.224H0V8.896h24zm0-2.448v1.224H0V6.448h24zM22.776 4c.634 0 1.155.482 1.218 1.099l.006.125H.688C.688 4.548 1.236 4 1.912 4h20.864z" fill="#F44336"/><path d="M2 4h9.5v8.568H0V6a2 2 0 012-2z" fill="#0D47A1"/><path d="M1.094 10.817l.095.281h.295a.04.04 0 01.024.071l-.24.177.09.282a.04.04 0 01-.061.043l-.24-.172-.24.172a.04.04 0 01-.062-.043l.099-.28-.24-.177a.04.04 0 01.024-.071h.296l.095-.282c.006-.04.054-.04.065-.001zm9.035-.026c.016 0 .03.01.034.026l.095.281h.295a.04.04 0 01.024.071l-.24.177.09.282a.04.04 0 01-.061.043l-.24-.172-.24.172a.04.04 0 01-.062-.043l.099-.28-.24-.177a.04.04 0 01.024-.071h.295l.095-.282a.034.034 0 01.032-.027zm-2.269 0c.016 0 .03.01.034.026l.095.281h.295a.04.04 0 01.024.071l-.24.177.09.282a.04.04 0 01-.061.043l-.24-.172-.24.172a.04.04 0 01-.062-.043l.099-.28-.24-.177a.04.04 0 01.024-.071h.295l.095-.282a.034.034 0 01.032-.027zm-4.498.026l.095.281h.295a.04.04 0 01.024.071l-.24.177.09.282a.04.04 0 01-.061.043l-.24-.172-.24.172a.04.04 0 01-.062-.043l.099-.28-.24-.177a.04.04 0 01.024-.071h.296l.095-.282c0-.04.054-.04.065-.001zm2.269 0l.095.281h.295a.04.04 0 01.024.071l-.24.177.09.282a.04.04 0 01-.061.043l-.24-.172-.24.172a.04.04 0 01-.062-.043l.099-.28-.24-.177a.04.04 0 01.024-.071h.296l.095-.282c0-.04.053-.04.065-.001zm-3.403-.744l.095.281h.296a.04.04 0 01.024.072l-.24.176.09.282a.04.04 0 01-.062.043l-.24-.172-.24.172a.04.04 0 01-.061-.043l.09-.282-.24-.177a.04.04 0 01.024-.07h.304l.095-.282c.006-.039.054-.039.065 0zm6.782-.032a.037.037 0 01.018.032l.095.281h.296a.04.04 0 01.024.072l-.24.176.09.282a.04.04 0 01-.062.043l-.24-.172-.24.172a.04.04 0 01-.061-.043l.09-.282-.24-.177a.04.04 0 01.024-.07h.295l.096-.282a.037.037 0 01.055-.032zm-2.245.032l.095.281h.295a.04.04 0 01.024.072l-.24.176.09.282a.04.04 0 01-.06.043l-.24-.172-.24.172a.04.04 0 01-.062-.043l.09-.282-.24-.177a.04.04 0 01.024-.07h.295l.095-.282c.01-.039.063-.039.074 0zm-2.269 0l.095.281h.296a.04.04 0 01.024.072l-.24.176.09.282a.04.04 0 01-.062.043l-.24-.172-.24.172a.04.04 0 01-.061-.043l.09-.282-.24-.177a.04.04 0 01.024-.07h.304l.095-.282c.001-.039.054-.039.065 0zm-1.134-.721l.095.281h.295a.04.04 0 01.024.072l-.24.176.09.282a.04.04 0 01-.061.043l-.24-.172-.24.172a.04.04 0 01-.062-.043l.09-.282-.24-.176a.04.04 0 01.025-.072h.304l.095-.281c0-.033.054-.033.065 0zm6.8 0l.096.281h.295a.04.04 0 01.024.072l-.24.176.09.282a.04.04 0 01-.061.043l-.24-.172-.24.172a.04.04 0 01-.062-.043l.09-.282-.24-.176a.04.04 0 01.025-.072h.295l.095-.281c.014-.033.067-.033.074 0zm-9.068 0l.095.281h.295a.04.04 0 01.024.072l-.24.176.09.282a.04.04 0 01-.061.043l-.24-.172-.24.172a.04.04 0 01-.062-.043l.09-.282-.24-.176a.04.04 0 01.025-.072h.304l.095-.281c.006-.033.054-.033.065 0zm6.8 0l.095.281h.295a.04.04 0 01.024.072l-.24.176.09.282a.04.04 0 01-.061.043l-.24-.172-.24.172a.04.04 0 01-.062-.043l.09-.282-.24-.176a.04.04 0 01.025-.072h.295l.095-.281c.015-.033.067-.033.074 0zm-2.263 0l.095.281h.295a.04.04 0 01.024.072l-.24.176.09.282a.04.04 0 01-.061.043l-.24-.172-.24.172a.04.04 0 01-.062-.043l.09-.282-.24-.176a.04.04 0 01.025-.072h.304l.095-.281c0-.033.053-.033.065 0zm-3.403-.743l.095.281h.296a.04.04 0 01.024.071l-.24.177.09.282a.04.04 0 01-.062.043l-.24-.172-.24.172a.04.04 0 01-.061-.043l.098-.28-.24-.177a.04.04 0 01.024-.071h.296l.095-.282c.006-.04.054-.04.065-.001zm6.763-.037c.02 0 .037.016.037.037l.095.281h.296a.04.04 0 01.024.071l-.24.177.09.282a.04.04 0 01-.062.043l-.24-.172-.24.172a.04.04 0 01-.061-.043l.09-.282-.24-.177a.04.04 0 01.024-.07h.295l.096-.282c0-.02.016-.037.036-.037zm-2.226.037l.095.281h.295a.04.04 0 01.024.071l-.24.177.09.282a.04.04 0 01-.06.043l-.24-.172-.24.172a.04.04 0 01-.062-.043l.09-.282-.24-.177a.04.04 0 01.024-.07h.295l.095-.282c.01-.039.063-.039.074 0zm-2.269 0l.095.281h.296a.04.04 0 01.024.071l-.24.177.09.282a.04.04 0 01-.062.043l-.24-.172-.24.172a.04.04 0 01-.061-.043l.098-.28-.24-.177a.04.04 0 01.024-.071h.296l.095-.282c.001-.04.054-.04.065-.001zm-1.134-.716l.095.281h.295a.04.04 0 01.024.071l-.24.177.09.282a.04.04 0 01-.061.043l-.24-.172-.24.172a.04.04 0 01-.062-.043l.099-.28-.24-.177a.04.04 0 01.024-.071h.296l.095-.282c0-.04.054-.04.065-.001zm6.767-.026c.016 0 .03.01.034.026l.095.281h.295a.04.04 0 01.024.071l-.24.177.09.282a.04.04 0 01-.061.043l-.24-.172-.24.172a.04.04 0 01-.062-.043l.099-.28-.24-.177a.04.04 0 01.024-.071h.295l.095-.282a.034.034 0 01.032-.027zm-2.272-.011c.02 0 .037.016.037.037l.095.281h.295a.04.04 0 01.024.071l-.24.177.09.282a.04.04 0 01-.061.043l-.24-.172-.24.172a.04.04 0 01-.062-.043l.09-.282-.24-.177a.04.04 0 01.025-.07h.295l.095-.282c0-.02.017-.037.037-.037zm-6.763.037l.095.281h.295a.04.04 0 01.024.071l-.24.177.09.282a.04.04 0 01-.061.043l-.24-.172-.24.172a.04.04 0 01-.062-.043l.099-.28-.24-.177a.04.04 0 01.024-.071h.296l.095-.282c.006-.04.054-.04.065-.001zm4.537 0l.095.281h.295a.04.04 0 01.024.071l-.24.177.09.282a.04.04 0 01-.061.043l-.24-.172-.24.172a.04.04 0 01-.062-.043l.09-.282-.24-.177a.04.04 0 01.025-.07h.304l.095-.282c0-.039.053-.039.065 0zm-3.403-.75l.095.282h.296a.04.04 0 01.024.07l-.24.178.09.281a.04.04 0 01-.062.043l-.24-.172-.24.172a.04.04 0 01-.061-.043l.09-.281-.24-.177a.04.04 0 01.024-.071h.304l.095-.282c.006-.033.054-.033.065 0zm4.537 0l.095.282h.295a.04.04 0 01.024.07l-.24.178.09.281a.04.04 0 01-.06.043l-.24-.172-.24.172a.04.04 0 01-.062-.043l.09-.281-.24-.177a.04.04 0 01.024-.071h.295l.095-.282c.01-.033.063-.033.074 0zm-2.269 0l.095.282h.296a.04.04 0 01.024.07l-.24.178.09.281a.04.04 0 01-.062.043l-.24-.172-.24.172a.04.04 0 01-.061-.043l.09-.281-.24-.177a.04.04 0 01.024-.071h.304l.095-.282c.001-.033.054-.033.065 0zm4.532 0l.095.282h.296a.04.04 0 01.024.07l-.24.178.09.281a.04.04 0 01-.062.043l-.24-.172-.24.172a.04.04 0 01-.061-.043l.09-.281-.24-.177a.04.04 0 01.024-.071h.295l.096-.282c.014-.033.067-.033.073 0zm-3.397-.715l.095.281h.295a.04.04 0 01.024.072l-.24.176.09.282a.04.04 0 01-.061.043l-.24-.172-.24.172a.04.04 0 01-.062-.043l.09-.282-.24-.176a.04.04 0 01.025-.072h.304l.095-.281c0-.033.053-.033.065 0zm-4.537 0l.095.281h.295a.04.04 0 01.024.072l-.24.176.09.282a.04.04 0 01-.061.043l-.24-.172-.24.172a.04.04 0 01-.062-.043l.09-.282-.24-.176a.04.04 0 01.025-.072h.304l.095-.281c.006-.033.054-.033.065 0zm2.271 0l.095.281h.297a.04.04 0 01.024.072l-.24.176.09.282a.04.04 0 01-.061.043l-.24-.172-.24.172a.04.04 0 01-.062-.043l.09-.282-.24-.176a.04.04 0 01.025-.072h.294l.095-.281c.006-.033.059-.033.073 0zm4.529 0l.095.281h.295a.04.04 0 01.024.072l-.24.176.09.282a.04.04 0 01-.061.043l-.24-.172-.24.172a.04.04 0 01-.062-.043l.09-.282-.24-.176a.04.04 0 01.025-.072h.295l.095-.281c.015-.033.067-.033.074 0zm2.269 0l.095.281h.295a.04.04 0 01.024.072l-.24.176.09.282a.04.04 0 01-.061.043l-.24-.172-.24.172a.04.04 0 01-.062-.043l.09-.282-.24-.176a.04.04 0 01.025-.072h.295l.095-.281c.014-.033.067-.033.074 0zm-3.398-.744l.095.281h.295a.04.04 0 01.024.072l-.24.176.09.282a.04.04 0 01-.06.043l-.24-.172-.24.172a.04.04 0 01-.062-.043l.09-.282-.24-.176a.04.04 0 01.024-.072h.295l.095-.281c.01-.039.063-.039.074 0zm-2.269 0l.095.281h.296a.04.04 0 01.024.072l-.24.176.09.282a.04.04 0 01-.062.043l-.24-.172-.24.172a.04.04 0 01-.061-.043l.098-.28-.24-.177a.04.04 0 01.024-.07h.296l.095-.283c.001-.04.054-.04.065-.001zm-2.268 0l.095.281h.296a.04.04 0 01.024.072l-.24.176.09.282a.04.04 0 01-.062.043l-.24-.172-.24.172a.04.04 0 01-.061-.043l.098-.28-.24-.177a.04.04 0 01.024-.07h.296l.095-.283c.006-.04.054-.04.065-.001zm6.782-.032a.037.037 0 01.018.032l.095.281h.296a.04.04 0 01.024.072l-.24.176.09.282a.04.04 0 01-.062.043l-.24-.172-.24.172a.04.04 0 01-.061-.043l.09-.282-.24-.176a.04.04 0 01.024-.072h.295l.096-.281a.037.037 0 01.055-.032zm-7.916-.683l.095.281h.295a.04.04 0 01.024.071l-.24.177.09.282a.04.04 0 01-.061.043l-.24-.172-.24.172a.04.04 0 01-.062-.043l.099-.28-.24-.177a.04.04 0 01.024-.071h.296l.095-.282c.006-.04.054-.04.065-.001zm2.268 0l.095.281h.295a.04.04 0 01.024.071l-.24.177.09.282a.04.04 0 01-.061.043l-.24-.172-.24.172a.04.04 0 01-.062-.043l.099-.28-.24-.177a.04.04 0 01.024-.071h.296l.095-.282c0-.04.054-.04.065-.001zm2.269 0l.095.281h.295a.04.04 0 01.024.071l-.24.177.09.282a.04.04 0 01-.061.043l-.24-.172-.24.172a.04.04 0 01-.062-.043l.09-.282-.24-.177a.04.04 0 01.025-.07h.304l.095-.282c0-.039.053-.039.065 0zm2.244-.032a.037.037 0 01.019.032l.095.281h.295a.04.04 0 01.024.071l-.24.177.09.282a.04.04 0 01-.061.043l-.24-.172-.24.172a.04.04 0 01-.062-.043l.09-.282-.24-.177a.04.04 0 01.025-.07h.295l.095-.282a.037.037 0 01.055-.032zm2.254.006c.016 0 .03.01.034.026l.095.281h.295a.04.04 0 01.024.071l-.24.177.09.282a.04.04 0 01-.061.043l-.24-.172-.24.172a.04.04 0 01-.062-.043l.099-.28-.24-.177a.04.04 0 01.024-.071h.295l.095-.282a.034.034 0 01.032-.027z" fill="#F5F5F5"/><path fill-rule="evenodd" clip-rule="evenodd" d="M22 5H2a1 1 0 00-1 1v12a1 1 0 001 1h20a1 1 0 001-1V6a1 1 0 00-1-1zM2 4a2 2 0 00-2 2v12a2 2 0 002 2h20a2 2 0 002-2V6a2 2 0 00-2-2H2z" fill="#000" fill-opacity=".04"/></g><path d="M30 12H10a2 2 0 00-2 2v12a2 2 0 002 2h20a2 2 0 002-2V14a2 2 0 00-2-2z" fill="#F1361D"/><path d="M17.13 21.103l-.008-.676-.565.372-.676.008.372.565.008.675.565-.37.676-.009-.372-.565zM18.147 18.95l-.606-.3.075.673-.3.606.672-.075.606.3-.075-.672.3-.606-.672.075zM18.51 16.99l.016-.676-.577.351-.676-.015.352.577-.016.676.577-.351.676.015-.351-.577zM16.892 14.861l-.5-.455-.113.666-.455.5.666.114.5.455.114-.666.455-.5-.667-.114zM11.862 20.253L13.48 19.1l1.618 1.153-.597-1.895 1.597-1.183-1.987-.017-.63-1.885-.632 1.885-1.987.017 1.597 1.183-.597 1.895z" fill="#FFDC42"/><path fill-rule="evenodd" clip-rule="evenodd" d="M30 13H10a1 1 0 00-1 1v12a1 1 0 001 1h20a1 1 0 001-1V14a1 1 0 00-1-1zm-20-1a2 2 0 00-2 2v12a2 2 0 002 2h20a2 2 0 002-2V14a2 2 0 00-2-2H10z" fill="#000" fill-opacity=".04"/></svg>