<svg width="32" height="32" fill="none" xmlns="http://www.w3.org/2000/svg"><path d="M24 14H8v10h16V14z" fill="#6E7287"/><path fill-rule="evenodd" clip-rule="evenodd" d="M7 24h18a1 1 0 0 1 1 1H6a1 1 0 0 1 1-1zM6 14h20a1 1 0 0 1-1 1H7a1 1 0 0 1-1-1z" fill="#D2D3DA"/><path d="M26.5 25h-21a.5.5 0 0 0 0 1h21a.5.5 0 0 0 0-1zM8.75 15h-1.5v9h1.5v-9z" fill="#B0B3BF"/><path fill-rule="evenodd" clip-rule="evenodd" d="M7.333 23h1.334c.184 0 .333.15.333.333V24H7v-.667c0-.184.15-.333.333-.333zM7 15h2v.667c0 .184-.15.333-.333.333H7.333A.333.333 0 0 1 7 15.667V15z" fill="#E9E9ED"/><path d="M13.75 15h-1.5v9h1.5v-9z" fill="#B0B3BF"/><path fill-rule="evenodd" clip-rule="evenodd" d="M12.333 23h1.334c.184 0 .333.15.333.333V24h-2v-.667c0-.184.15-.333.333-.333zM12 15h2v.667c0 .184-.15.333-.333.333h-1.334a.333.333 0 0 1-.333-.333V15z" fill="#E9E9ED"/><path d="M19.75 15h-1.5v9h1.5v-9z" fill="#B0B3BF"/><path fill-rule="evenodd" clip-rule="evenodd" d="M18.333 23h1.334c.184 0 .333.15.333.333V24h-2v-.667c0-.184.15-.333.333-.333zM18 15h2v.667c0 .184-.15.333-.333.333h-1.334a.333.333 0 0 1-.333-.333V15z" fill="#E9E9ED"/><path d="M24.75 15h-1.5v9h1.5v-9z" fill="#B0B3BF"/><path fill-rule="evenodd" clip-rule="evenodd" d="M23.333 23h1.334c.184 0 .333.15.333.333V24h-2v-.667c0-.184.15-.333.333-.333zM23 15h2v.667c0 .184-.15.333-.333.333h-1.334a.333.333 0 0 1-.333-.333V15z" fill="#E9E9ED"/><path fill-rule="evenodd" clip-rule="evenodd" d="M5.5 13.5h21L16 6.5l-10.5 7z" fill="#F4F4F6"/><path fill-rule="evenodd" clip-rule="evenodd" d="M15.723 6.084a.5.5 0 0 1 .554 0l10.5 7A.5.5 0 0 1 26.5 14h-21a.5.5 0 0 1-.277-.916l10.5-7zM7.15 13H24.85L16 7.1 7.151 13z" fill="#B0B3BF"/><path d="M16 11a1 1 0 1 0 0-2 1 1 0 0 0 0 2z" fill="#B0B3BF"/><circle cx="26" cy="6" r="4" fill="#FFDA5B"/><path d="M28.55 2.918a4.01 4.01 0 0 0-.556-.387l-5.462 5.463c.113.196.242.382.386.556l5.632-5.632zM23.93 9.423a4.017 4.017 0 0 1-.788-.625l5.656-5.657c.24.235.45.5.626.789L23.93 9.423zM25.1 9.898a3.966 3.966 0 0 1-.369-.104l5.064-5.063c.04.12.074.243.103.368L25.1 9.898z" fill="#FDF1CA"/><g clip-path="url(#a)"><circle cx="26" cy="6" r="3.25" fill="#FFC329"/><path d="M26 9.25a3.25 3.25 0 0 0 2.871-4.774 6.458 6.458 0 0 0-4.395 4.395c.454.242.973.379 1.524.379z" fill="#F8B712"/></g><path d="M28.42 3.83a3.25 3.25 0 0 0-4.59 4.59 3.25 3.25 0 1 1 4.59-4.59z" fill="#DB9E43"/><defs><clipPath id="a"><rect x="22.75" y="2.75" width="6.5" height="6.5" rx="3.25" fill="#fff"/></clipPath></defs></svg>