<svg xmlns="http://www.w3.org/2000/svg" xmlns:xlink="http://www.w3.org/1999/xlink" width="32" height="32"><defs><rect id="a" width="24" height="16" rx="2"/></defs><g fill="none" fill-rule="evenodd"><g transform="translate(4 8)"><mask id="b" fill="#fff"><use xlink:href="#a"/></mask><g mask="url(#b)"><path fill="#4CAF50" d="M2 0h20a2 2 0 012 2v12a2 2 0 01-2 2H2a2 2 0 01-2-2V2a2 2 0 012-2z"/><path fill="#FFF" d="M7.895 8.872L8.42 6.09h.803L8.356 10h-.81l-.637-2.616L6.272 10h-.81l-.868-3.91h.803l.529 2.777.645-2.777h.682l.642 2.782zm3.971.322h-1.412l-.269.806H9.33l1.455-3.91h.747L12.994 10h-.856l-.272-.806zm-1.195-.652h.978l-.492-1.464-.486 1.464zm3.494.81h1.711V10H13.36V6.09h.805v3.263zm2.979 0h1.71V10h-2.516V6.09h.806v3.263zm2.368-4.005a.263.263 0 00-.102-.223 1.345 1.345 0 00-.37-.164 2.617 2.617 0 01-.421-.17c-.283-.153-.424-.358-.424-.617a.6.6 0 01.113-.36.741.741 0 01.327-.247c.142-.059.301-.088.478-.088s.336.032.475.096a.756.756 0 01.323.273.71.71 0 01.116.4h-.513a.336.336 0 00-.108-.266.443.443 0 00-.302-.095.473.473 0 00-.292.08.25.25 0 00-.104.209c0 .08.04.148.122.203.081.055.201.106.36.154.291.088.504.197.637.326.133.13.2.292.2.486a.599.599 0 01-.245.506c-.162.123-.382.184-.657.184a1.27 1.27 0 01-.523-.105.828.828 0 01-.36-.288.737.737 0 01-.124-.424h.514c0 .275.164.412.493.412a.479.479 0 00.285-.074.242.242 0 00.102-.208zm2.735-1.42h-.762V6h-.513V3.927h-.752v-.415h2.027v.415z"/><path fill="#FFF" fill-opacity=".402" fill-rule="nonzero" d="M2 1a1 1 0 00-1 1v12a1 1 0 001 1h20a1 1 0 001-1V2a1 1 0 00-1-1H2zm0-1h20a2 2 0 012 2v12a2 2 0 01-2 2H2a2 2 0 01-2-2V2a2 2 0 012-2z"/></g><rect width="23" height="15" x=".5" y=".5" stroke="#000" stroke-opacity=".04" mask="url(#b)" rx="2"/></g><path fill="#494C5A" fill-opacity=".4" fill-rule="nonzero" d="M21 2h9a2 2 0 012 2v5a2 2 0 01-2 2h-9a2 2 0 01-2-2V4a2 2 0 012-2z"/><path fill="#494C5A" d="M21 3a1 1 0 00-1 1v5a1 1 0 001 1h9a1 1 0 001-1V4a1 1 0 00-1-1h-9z"/><path fill="#FFF" d="M24.063 6.566c0 .288-.052.54-.157.756a1.16 1.16 0 01-.45.502 1.273 1.273 0 01-.67.176c-.25 0-.472-.058-.668-.174a1.171 1.171 0 01-.455-.499 1.67 1.67 0 01-.163-.745v-.144c0-.288.053-.54.16-.76.107-.218.258-.386.453-.503.195-.117.418-.175.669-.175.25 0 .473.058.668.175.195.117.346.285.453.504.107.218.16.47.16.757v.13zm-.628-.132c0-.306-.057-.539-.17-.698a.558.558 0 00-.483-.239.558.558 0 00-.482.236c-.113.157-.17.387-.172.69v.143c0 .298.057.53.17.694a.556.556 0 00.488.247c.208 0 .368-.08.48-.238.111-.158.168-.39.169-.693v-.142zm3.345-.907h-.922V7.96h-.62V5.527h-.91V5.04h2.452v.487zm2.716 1.46c-.024.314-.143.562-.359.742-.215.18-.5.271-.853.271-.385 0-.689-.126-.91-.378-.221-.252-.332-.598-.332-1.038v-.178c0-.281.051-.528.153-.742a1.13 1.13 0 01.437-.493c.19-.114.41-.171.66-.171.348 0 .628.09.84.27.212.181.335.435.368.76h-.62c-.015-.188-.07-.324-.162-.41-.093-.084-.235-.127-.425-.127-.207 0-.362.072-.464.216-.103.144-.156.367-.158.669v.22c0 .316.049.546.147.692.099.146.254.219.466.219.192 0 .335-.043.43-.128.094-.085.148-.216.162-.394h.62z"/></g></svg>