<svg xmlns="http://www.w3.org/2000/svg" xmlns:xlink="http://www.w3.org/1999/xlink" width="128" height="128" viewBox="0 0 128 128"><defs><path id="a" d="M0 0h128v128H0z"/></defs><g fill="none" fill-rule="evenodd"><use fill="#F2F2F2" xlink:href="#a"/><path stroke="#DEDEDE" stroke-width="2" d="M1 1h126v126H1z"/><g transform="matrix(1 0 0 -1 52 102)"><circle cx="26" cy="26" r="26" fill="#F2F2F2" stroke="#E98024" stroke-width="2"/><path fill="#E98024" d="M12 20.667h26.667v2.667H12zm0 8h26.667V30H12zM12 34h26.667v1.333H12z"/><path fill="#E98024" fill-rule="nonzero" d="M25.53 29.814L36.612 16.96l-2.02-1.741-9.455 10.967-2.696-2.022-9.476 11.662 2.07 1.681 7.858-9.67z"/><path fill="#E98024" d="M37.153 14.8v4.416l-2.014 2.013v-4.378h-4.531l2.103-2.051z"/></g><g transform="translate(24 26)"><circle cx="26" cy="26" r="26" fill="#F2F2F2" stroke="#2A3052" stroke-width="2"/><path fill="#2A3052" d="M12 20.667h26.667v2.667H12zm0 8h26.667V30H12zM12 34h26.667v1.333H12z"/><path fill="#2A3052" fill-rule="nonzero" d="M25.53 29.814L36.612 16.96l-2.02-1.741-9.455 10.967-2.696-2.022-9.476 11.662 2.07 1.681 7.858-9.67z"/><path fill="#2A3052" d="M37.153 14.8v4.416l-2.014 2.013v-4.378h-4.531l2.103-2.051z"/></g></g></svg>