<svg xmlns="http://www.w3.org/2000/svg" xmlns:xlink="http://www.w3.org/1999/xlink" width="128" height="128" viewBox="0 0 128 128"><defs><path id="a" d="M0 0h128v128H0z"/></defs><g fill="none" fill-rule="evenodd"><use fill="#F2F2F2" xlink:href="#a"/><path stroke="#DEDEDE" stroke-width="2" d="M1 1h126v126H1z"/><g transform="translate(52 50)"><circle cx="26" cy="26" r="26" fill="#F2F2F2" stroke="#E98024" stroke-width="2"/><path fill="#E98024" d="M21 23.5L19 26h3l3-4-3-4h-3l2 2.5h-8v3h8zm10 10l2 2.5h-3l-3-4 3-4h3l-2 2.5h8v3h-8zM25 10h2v32h-2z"/></g><g transform="translate(24 26)"><circle cx="26" cy="26" r="26" fill="#F2F2F2" stroke="#2A3052" stroke-width="2"/><path d="M21 27.5L19 30h3l3-4-3-4h-3l2 2.5h-8v3h8zm10 0l2 2.5h-3l-3-4 3-4h3l-2 2.5h8v3h-8zM25 10h2v32h-2z" fill="#2A3052"/></g></g></svg>