<svg xmlns="http://www.w3.org/2000/svg" width="16pt" height="16pt" viewBox="0 0 16 16"><path d="M2.668 0h10.664A2.669 2.669 0 0116 2.668v10.664A2.669 2.669 0 0113.332 16H2.668A2.669 2.669 0 010 13.332V2.668A2.669 2.669 0 012.668 0zm0 0" fill="#f2f3f4"/><path d="M8 12.668c2-2.668 3.332-4.16 3.332-6A3.333 3.333 0 008 3.332a3.333 3.333 0 00-3.332 3.336C4.668 8.508 6 10 8 12.668zm0 0" fill="#999cac"/><path d="M10 6.668c0 1.102-.895 2-2 2s-2-.898-2-2c0-1.106.895-2 2-2s2 .894 2 2zm0 0" fill="#fff"/></svg>