<svg xmlns="http://www.w3.org/2000/svg" width="32" height="32"><g fill="none" fill-rule="evenodd"><path d="M0 0h32v32H0z"/><path fill="#333" fill-rule="nonzero" d="M9 14v2h14v-2H9zm0-1h14a1 1 0 0 1 1 1v2a1 1 0 0 1-1 1H9a1 1 0 0 1-1-1v-2a1 1 0 0 1 1-1zm0 7v2h5v-2H9zm0-1h5a1 1 0 0 1 1 1v2a1 1 0 0 1-1 1H9a1 1 0 0 1-1-1v-2a1 1 0 0 1 1-1zm9 1v2h5v-2h-5zm0-1h5a1 1 0 0 1 1 1v2a1 1 0 0 1-1 1h-5a1 1 0 0 1-1-1v-2a1 1 0 0 1 1-1zM7 7v18h18V7H7zm0-1h18a1 1 0 0 1 1 1v18a1 1 0 0 1-1 1H7a1 1 0 0 1-1-1V7a1 1 0 0 1 1-1zm-1 4h20v1H6v-1zm17.5-1a.5.5 0 1 0 0-1 .5.5 0 0 0 0 1zm-2 0a.5.5 0 1 0 0-1 .5.5 0 0 0 0 1zm-2 0a.5.5 0 1 0 0-1 .5.5 0 0 0 0 1z"/></g></svg>