<svg xmlns="http://www.w3.org/2000/svg" width="24" height="24"><g fill="none"><rect width="24" height="24" fill="#F2F3F4" rx="4"/><path fill="#333" d="M12 4a8 8 0 110 16 8 8 0 010-16zm0 1.143a6.858 6.858 0 00-6.84 6.356h6.969l-1.962-2.003a.593.593 0 01-.066-.744l.066-.081a.563.563 0 01.808 0l2.858 2.917A.585.585 0 0114 12l-.006-.081a.598.598 0 01.005.05L14 12a.457.457 0 01-.006.082l-.004.012a.566.566 0 01-.157.318l-2.858 2.917a.563.563 0 01-.808 0 .592.592 0 010-.825l1.964-2.005h-6.97A6.858 6.858 0 1012 5.144z"/></g></svg>