<svg xmlns="http://www.w3.org/2000/svg" width="936" height="152" viewBox="0 0 936 152" fill="none">
<g clip-path="url(#clip0)">
<path d="M0 8C0 3.58172 3.58172 0 8 0H928C932.418 0 936 3.58172 936 8V144C936 148.418 932.418 152 928 152H8C3.58172 152 0 148.418 0 144V8Z" fill="white"/>
<rect x="769" y="27" width="300" height="300" rx="40" transform="rotate(-30 769 27)" fill="white" fill-opacity="0.64"/>
<path fill-rule="evenodd" clip-rule="evenodd" d="M853 8C853 9.10457 852.105 10 851 10C849.895 10 849 9.10457 849 8C849 6.89543 849.895 6 851 6C852.105 6 853 6.89543 853 8ZM862.894 8C862.894 9.10457 861.999 10 860.894 10C859.79 10 858.894 9.10457 858.894 8C858.894 6.89543 859.79 6 860.894 6C861.999 6 862.894 6.89543 862.894 8ZM870.79 10C871.894 10 872.79 9.10457 872.79 8C872.79 6.89543 871.894 6 870.79 6C869.685 6 868.79 6.89543 868.79 8C868.79 9.10457 869.685 10 870.79 10ZM882.684 8C882.684 9.10457 881.788 10 880.684 10C879.579 10 878.684 9.10457 878.684 8C878.684 6.89543 879.579 6 880.684 6C881.788 6 882.684 6.89543 882.684 8ZM890.579 10C891.684 10 892.579 9.10457 892.579 8C892.579 6.89543 891.684 6 890.579 6C889.475 6 888.579 6.89543 888.579 8C888.579 9.10457 889.475 10 890.579 10ZM902.474 8C902.474 9.10457 901.578 10 900.474 10C899.369 10 898.474 9.10457 898.474 8C898.474 6.89543 899.369 6 900.474 6C901.578 6 902.474 6.89543 902.474 8ZM910.369 10C911.474 10 912.369 9.10457 912.369 8C912.369 6.89543 911.474 6 910.369 6C909.264 6 908.369 6.89543 908.369 8C908.369 9.10457 909.264 10 910.369 10ZM922.263 8C922.263 9.10457 921.368 10 920.263 10C919.159 10 918.263 9.10457 918.263 8C918.263 6.89543 919.159 6 920.263 6C921.368 6 922.263 6.89543 922.263 8ZM930.157 10C931.262 10 932.157 9.10457 932.157 8C932.157 6.89543 931.262 6 930.157 6C929.053 6 928.157 6.89543 928.157 8C928.157 9.10457 929.053 10 930.157 10ZM942.053 8C942.053 9.10457 941.157 10 940.053 10C938.948 10 938.053 9.10457 938.053 8C938.053 6.89543 938.948 6 940.053 6C941.157 6 942.053 6.89543 942.053 8ZM853 17.8947C853 18.9993 852.105 19.8947 851 19.8947C849.895 19.8947 849 18.9993 849 17.8947C849 16.7901 849.895 15.8947 851 15.8947C852.105 15.8947 853 16.7901 853 17.8947ZM862.894 17.8947C862.894 18.9993 861.999 19.8947 860.894 19.8947C859.79 19.8947 858.894 18.9993 858.894 17.8947C858.894 16.7902 859.79 15.8947 860.894 15.8947C861.999 15.8947 862.894 16.7902 862.894 17.8947ZM870.79 19.8947C871.894 19.8947 872.79 18.9993 872.79 17.8947C872.79 16.7902 871.894 15.8947 870.79 15.8947C869.685 15.8947 868.79 16.7902 868.79 17.8947C868.79 18.9993 869.685 19.8947 870.79 19.8947ZM882.684 17.8947C882.684 18.9993 881.788 19.8947 880.684 19.8947C879.579 19.8947 878.684 18.9993 878.684 17.8947C878.684 16.7902 879.579 15.8947 880.684 15.8947C881.788 15.8947 882.684 16.7902 882.684 17.8947ZM890.579 19.8947C891.684 19.8947 892.579 18.9993 892.579 17.8947C892.579 16.7902 891.684 15.8947 890.579 15.8947C889.475 15.8947 888.579 16.7902 888.579 17.8947C888.579 18.9993 889.475 19.8947 890.579 19.8947ZM902.474 17.8947C902.474 18.9993 901.578 19.8947 900.474 19.8947C899.369 19.8947 898.474 18.9993 898.474 17.8947C898.474 16.7902 899.369 15.8947 900.474 15.8947C901.578 15.8947 902.474 16.7902 902.474 17.8947ZM910.369 19.8947C911.474 19.8947 912.369 18.9993 912.369 17.8947C912.369 16.7902 911.474 15.8947 910.369 15.8947C909.264 15.8947 908.369 16.7902 908.369 17.8947C908.369 18.9993 909.264 19.8947 910.369 19.8947ZM922.263 17.8947C922.263 18.9993 921.368 19.8947 920.263 19.8947C919.159 19.8947 918.263 18.9993 918.263 17.8947C918.263 16.7902 919.159 15.8947 920.263 15.8947C921.368 15.8947 922.263 16.7902 922.263 17.8947ZM930.157 19.8947C931.262 19.8947 932.157 18.9993 932.157 17.8947C932.157 16.7902 931.262 15.8947 930.157 15.8947C929.053 15.8947 928.157 16.7902 928.157 17.8947C928.157 18.9993 929.053 19.8947 930.157 19.8947ZM942.053 17.8947C942.053 18.9993 941.157 19.8947 940.053 19.8947C938.948 19.8947 938.053 18.9993 938.053 17.8947C938.053 16.7902 938.948 15.8947 940.053 15.8947C941.157 15.8947 942.053 16.7902 942.053 17.8947ZM860.894 29.7895C861.999 29.7895 862.894 28.894 862.894 27.7895C862.894 26.6849 861.999 25.7895 860.894 25.7895C859.79 25.7895 858.894 26.6849 858.894 27.7895C858.894 28.894 859.79 29.7895 860.894 29.7895ZM851 29.7895C852.105 29.7895 853 28.8941 853 27.7895C853 26.6849 852.105 25.7895 851 25.7895C849.895 25.7895 849 26.6849 849 27.7895C849 28.8941 849.895 29.7895 851 29.7895ZM872.79 27.7895C872.79 28.894 871.894 29.7895 870.79 29.7895C869.685 29.7895 868.79 28.894 868.79 27.7895C868.79 26.6849 869.685 25.7895 870.79 25.7895C871.894 25.7895 872.79 26.6849 872.79 27.7895ZM880.684 29.7895C881.788 29.7895 882.684 28.894 882.684 27.7895C882.684 26.6849 881.788 25.7895 880.684 25.7895C879.579 25.7895 878.684 26.6849 878.684 27.7895C878.684 28.894 879.579 29.7895 880.684 29.7895ZM892.579 27.7895C892.579 28.894 891.684 29.7895 890.579 29.7895C889.475 29.7895 888.579 28.894 888.579 27.7895C888.579 26.6849 889.475 25.7895 890.579 25.7895C891.684 25.7895 892.579 26.6849 892.579 27.7895ZM900.474 29.7895C901.578 29.7895 902.474 28.894 902.474 27.7895C902.474 26.6849 901.578 25.7895 900.474 25.7895C899.369 25.7895 898.474 26.6849 898.474 27.7895C898.474 28.894 899.369 29.7895 900.474 29.7895ZM912.369 27.7895C912.369 28.894 911.474 29.7895 910.369 29.7895C909.264 29.7895 908.369 28.894 908.369 27.7895C908.369 26.6849 909.264 25.7895 910.369 25.7895C911.474 25.7895 912.369 26.6849 912.369 27.7895ZM920.263 29.7895C921.368 29.7895 922.263 28.894 922.263 27.7895C922.263 26.6849 921.368 25.7895 920.263 25.7895C919.159 25.7895 918.263 26.6849 918.263 27.7895C918.263 28.894 919.159 29.7895 920.263 29.7895ZM932.157 27.7895C932.157 28.894 931.262 29.7895 930.157 29.7895C929.053 29.7895 928.157 28.894 928.157 27.7895C928.157 26.6849 929.053 25.7895 930.157 25.7895C931.262 25.7895 932.157 26.6849 932.157 27.7895ZM940.053 29.7895C941.157 29.7895 942.053 28.894 942.053 27.7895C942.053 26.6849 941.157 25.7895 940.053 25.7895C938.948 25.7895 938.053 26.6849 938.053 27.7895C938.053 28.894 938.948 29.7895 940.053 29.7895ZM862.894 37.6842C862.894 38.7888 861.999 39.6842 860.894 39.6842C859.79 39.6842 858.894 38.7888 858.894 37.6842C858.894 36.5796 859.79 35.6842 860.894 35.6842C861.999 35.6842 862.894 36.5796 862.894 37.6842ZM853 37.6842C853 38.7888 852.105 39.6842 851 39.6842C849.895 39.6842 849 38.7888 849 37.6842C849 36.5796 849.895 35.6842 851 35.6842C852.105 35.6842 853 36.5796 853 37.6842ZM870.79 39.6842C871.894 39.6842 872.79 38.7888 872.79 37.6842C872.79 36.5796 871.894 35.6842 870.79 35.6842C869.685 35.6842 868.79 36.5796 868.79 37.6842C868.79 38.7888 869.685 39.6842 870.79 39.6842ZM882.684 37.6842C882.684 38.7888 881.788 39.6842 880.684 39.6842C879.579 39.6842 878.684 38.7888 878.684 37.6842C878.684 36.5796 879.579 35.6842 880.684 35.6842C881.788 35.6842 882.684 36.5796 882.684 37.6842ZM890.579 39.6842C891.684 39.6842 892.579 38.7888 892.579 37.6842C892.579 36.5796 891.684 35.6842 890.579 35.6842C889.475 35.6842 888.579 36.5796 888.579 37.6842C888.579 38.7888 889.475 39.6842 890.579 39.6842ZM902.474 37.6842C902.474 38.7888 901.578 39.6842 900.474 39.6842C899.369 39.6842 898.474 38.7888 898.474 37.6842C898.474 36.5796 899.369 35.6842 900.474 35.6842C901.578 35.6842 902.474 36.5796 902.474 37.6842ZM910.369 39.6842C911.474 39.6842 912.369 38.7888 912.369 37.6842C912.369 36.5796 911.474 35.6842 910.369 35.6842C909.264 35.6842 908.369 36.5796 908.369 37.6842C908.369 38.7888 909.264 39.6842 910.369 39.6842ZM922.263 37.6842C922.263 38.7888 921.368 39.6842 920.263 39.6842C919.159 39.6842 918.263 38.7888 918.263 37.6842C918.263 36.5796 919.159 35.6842 920.263 35.6842C921.368 35.6842 922.263 36.5796 922.263 37.6842ZM930.157 39.6842C931.262 39.6842 932.157 38.7888 932.157 37.6842C932.157 36.5796 931.262 35.6842 930.157 35.6842C929.053 35.6842 928.157 36.5796 928.157 37.6842C928.157 38.7888 929.053 39.6842 930.157 39.6842ZM942.053 37.6842C942.053 38.7888 941.157 39.6842 940.053 39.6842C938.948 39.6842 938.053 38.7888 938.053 37.6842C938.053 36.5796 938.948 35.6842 940.053 35.6842C941.157 35.6842 942.053 36.5796 942.053 37.6842ZM851 49.579C852.105 49.579 853 48.6835 853 47.579C853 46.4744 852.105 45.579 851 45.579C849.895 45.579 849 46.4744 849 47.579C849 48.6835 849.895 49.579 851 49.579ZM860.894 49.579C861.999 49.579 862.894 48.6835 862.894 47.579C862.894 46.4744 861.999 45.579 860.894 45.579C859.79 45.579 858.894 46.4744 858.894 47.579C858.894 48.6835 859.79 49.579 860.894 49.579ZM872.79 47.579C872.79 48.6835 871.894 49.579 870.79 49.579C869.685 49.579 868.79 48.6835 868.79 47.579C868.79 46.4744 869.685 45.579 870.79 45.579C871.894 45.579 872.79 46.4744 872.79 47.579ZM880.684 49.579C881.788 49.579 882.684 48.6835 882.684 47.579C882.684 46.4744 881.788 45.579 880.684 45.579C879.579 45.579 878.684 46.4744 878.684 47.579C878.684 48.6835 879.579 49.579 880.684 49.579ZM892.579 47.579C892.579 48.6835 891.684 49.579 890.579 49.579C889.475 49.579 888.579 48.6835 888.579 47.579C888.579 46.4744 889.475 45.579 890.579 45.579C891.684 45.579 892.579 46.4744 892.579 47.579ZM900.474 49.579C901.578 49.579 902.474 48.6835 902.474 47.579C902.474 46.4744 901.578 45.579 900.474 45.579C899.369 45.579 898.474 46.4744 898.474 47.579C898.474 48.6835 899.369 49.579 900.474 49.579ZM912.369 47.579C912.369 48.6835 911.474 49.579 910.369 49.579C909.264 49.579 908.369 48.6835 908.369 47.579C908.369 46.4744 909.264 45.579 910.369 45.579C911.474 45.579 912.369 46.4744 912.369 47.579ZM920.263 49.579C921.368 49.579 922.263 48.6835 922.263 47.579C922.263 46.4744 921.368 45.579 920.263 45.579C919.159 45.579 918.263 46.4744 918.263 47.579C918.263 48.6835 919.159 49.579 920.263 49.579ZM932.157 47.579C932.157 48.6835 931.262 49.579 930.157 49.579C929.053 49.579 928.157 48.6835 928.157 47.579C928.157 46.4744 929.053 45.579 930.157 45.579C931.262 45.579 932.157 46.4744 932.157 47.579ZM940.053 49.579C941.157 49.579 942.053 48.6835 942.053 47.579C942.053 46.4744 941.157 45.579 940.053 45.579C938.948 45.579 938.053 46.4744 938.053 47.579C938.053 48.6835 938.948 49.579 940.053 49.579ZM853 57.4737C853 58.5782 852.105 59.4737 851 59.4737C849.895 59.4737 849 58.5782 849 57.4737C849 56.3691 849.895 55.4737 851 55.4737C852.105 55.4737 853 56.3691 853 57.4737ZM862.894 57.4737C862.894 58.5782 861.999 59.4737 860.894 59.4737C859.79 59.4737 858.894 58.5782 858.894 57.4737C858.894 56.3691 859.79 55.4737 860.894 55.4737C861.999 55.4737 862.894 56.3691 862.894 57.4737ZM870.79 59.4737C871.894 59.4737 872.79 58.5782 872.79 57.4737C872.79 56.3691 871.894 55.4737 870.79 55.4737C869.685 55.4737 868.79 56.3691 868.79 57.4737C868.79 58.5782 869.685 59.4737 870.79 59.4737ZM882.684 57.4737C882.684 58.5782 881.788 59.4737 880.684 59.4737C879.579 59.4737 878.684 58.5782 878.684 57.4737C878.684 56.3691 879.579 55.4737 880.684 55.4737C881.788 55.4737 882.684 56.3691 882.684 57.4737ZM890.579 59.4737C891.684 59.4737 892.579 58.5782 892.579 57.4737C892.579 56.3691 891.684 55.4737 890.579 55.4737C889.475 55.4737 888.579 56.3691 888.579 57.4737C888.579 58.5782 889.475 59.4737 890.579 59.4737ZM902.474 57.4737C902.474 58.5782 901.578 59.4737 900.474 59.4737C899.369 59.4737 898.474 58.5782 898.474 57.4737C898.474 56.3691 899.369 55.4737 900.474 55.4737C901.578 55.4737 902.474 56.3691 902.474 57.4737ZM910.369 59.4737C911.474 59.4737 912.369 58.5782 912.369 57.4737C912.369 56.3691 911.474 55.4737 910.369 55.4737C909.264 55.4737 908.369 56.3691 908.369 57.4737C908.369 58.5782 909.264 59.4737 910.369 59.4737ZM922.263 57.4737C922.263 58.5782 921.368 59.4737 920.263 59.4737C919.159 59.4737 918.263 58.5782 918.263 57.4737C918.263 56.3691 919.159 55.4737 920.263 55.4737C921.368 55.4737 922.263 56.3691 922.263 57.4737ZM930.157 59.4737C931.262 59.4737 932.157 58.5782 932.157 57.4737C932.157 56.3691 931.262 55.4737 930.157 55.4737C929.053 55.4737 928.157 56.3691 928.157 57.4737C928.157 58.5782 929.053 59.4737 930.157 59.4737ZM942.053 57.4737C942.053 58.5782 941.157 59.4737 940.053 59.4737C938.948 59.4737 938.053 58.5782 938.053 57.4737C938.053 56.3691 938.948 55.4737 940.053 55.4737C941.157 55.4737 942.053 56.3691 942.053 57.4737ZM860.894 69.3684C861.999 69.3684 862.894 68.473 862.894 67.3684C862.894 66.2639 861.999 65.3684 860.894 65.3684C859.79 65.3684 858.894 66.2639 858.894 67.3684C858.894 68.473 859.79 69.3684 860.894 69.3684ZM851 69.3684C852.105 69.3684 853 68.473 853 67.3684C853 66.2639 852.105 65.3684 851 65.3684C849.895 65.3684 849 66.2639 849 67.3684C849 68.473 849.895 69.3684 851 69.3684ZM872.79 67.3684C872.79 68.473 871.894 69.3684 870.79 69.3684C869.685 69.3684 868.79 68.473 868.79 67.3684C868.79 66.2639 869.685 65.3684 870.79 65.3684C871.894 65.3684 872.79 66.2639 872.79 67.3684ZM880.684 69.3684C881.788 69.3684 882.684 68.473 882.684 67.3684C882.684 66.2639 881.788 65.3684 880.684 65.3684C879.579 65.3684 878.684 66.2639 878.684 67.3684C878.684 68.473 879.579 69.3684 880.684 69.3684ZM892.579 67.3684C892.579 68.473 891.684 69.3684 890.579 69.3684C889.475 69.3684 888.579 68.473 888.579 67.3684C888.579 66.2639 889.475 65.3684 890.579 65.3684C891.684 65.3684 892.579 66.2639 892.579 67.3684ZM900.474 69.3684C901.578 69.3684 902.474 68.473 902.474 67.3684C902.474 66.2639 901.578 65.3684 900.474 65.3684C899.369 65.3684 898.474 66.2639 898.474 67.3684C898.474 68.473 899.369 69.3684 900.474 69.3684ZM912.369 67.3684C912.369 68.473 911.474 69.3684 910.369 69.3684C909.264 69.3684 908.369 68.473 908.369 67.3684C908.369 66.2639 909.264 65.3684 910.369 65.3684C911.474 65.3684 912.369 66.2639 912.369 67.3684ZM920.263 69.3684C921.368 69.3684 922.263 68.473 922.263 67.3684C922.263 66.2639 921.368 65.3684 920.263 65.3684C919.159 65.3684 918.263 66.2639 918.263 67.3684C918.263 68.473 919.159 69.3684 920.263 69.3684ZM932.157 67.3684C932.157 68.473 931.262 69.3684 930.157 69.3684C929.053 69.3684 928.157 68.473 928.157 67.3684C928.157 66.2639 929.053 65.3684 930.157 65.3684C931.262 65.3684 932.157 66.2639 932.157 67.3684ZM940.053 69.3684C941.157 69.3684 942.053 68.473 942.053 67.3684C942.053 66.2639 941.157 65.3684 940.053 65.3684C938.948 65.3684 938.053 66.2639 938.053 67.3684C938.053 68.473 938.948 69.3684 940.053 69.3684ZM862.894 77.2631C862.894 78.3677 861.999 79.2631 860.894 79.2631C859.79 79.2631 858.894 78.3677 858.894 77.2631C858.894 76.1586 859.79 75.2631 860.894 75.2631C861.999 75.2631 862.894 76.1586 862.894 77.2631ZM853 77.2632C853 78.3677 852.105 79.2632 851 79.2632C849.895 79.2632 849 78.3677 849 77.2632C849 76.1586 849.895 75.2632 851 75.2632C852.105 75.2632 853 76.1586 853 77.2632ZM870.79 79.2631C871.894 79.2631 872.79 78.3677 872.79 77.2631C872.79 76.1586 871.894 75.2631 870.79 75.2631C869.685 75.2631 868.79 76.1586 868.79 77.2631C868.79 78.3677 869.685 79.2631 870.79 79.2631ZM882.684 77.2631C882.684 78.3677 881.788 79.2631 880.684 79.2631C879.579 79.2631 878.684 78.3677 878.684 77.2631C878.684 76.1586 879.579 75.2631 880.684 75.2631C881.788 75.2631 882.684 76.1586 882.684 77.2631ZM890.579 79.2631C891.684 79.2631 892.579 78.3677 892.579 77.2631C892.579 76.1586 891.684 75.2631 890.579 75.2631C889.475 75.2631 888.579 76.1586 888.579 77.2631C888.579 78.3677 889.475 79.2631 890.579 79.2631ZM902.474 77.2631C902.474 78.3677 901.578 79.2631 900.474 79.2631C899.369 79.2631 898.474 78.3677 898.474 77.2631C898.474 76.1586 899.369 75.2631 900.474 75.2631C901.578 75.2631 902.474 76.1586 902.474 77.2631ZM910.369 79.2631C911.474 79.2631 912.369 78.3677 912.369 77.2631C912.369 76.1586 911.474 75.2631 910.369 75.2631C909.264 75.2631 908.369 76.1586 908.369 77.2631C908.369 78.3677 909.264 79.2631 910.369 79.2631ZM922.263 77.2631C922.263 78.3677 921.368 79.2631 920.263 79.2631C919.159 79.2631 918.263 78.3677 918.263 77.2631C918.263 76.1586 919.159 75.2631 920.263 75.2631C921.368 75.2631 922.263 76.1586 922.263 77.2631ZM930.157 79.2631C931.262 79.2631 932.157 78.3677 932.157 77.2631C932.157 76.1586 931.262 75.2631 930.157 75.2631C929.053 75.2631 928.157 76.1586 928.157 77.2631C928.157 78.3677 929.053 79.2631 930.157 79.2631ZM942.053 77.2631C942.053 78.3677 941.157 79.2631 940.053 79.2631C938.948 79.2631 938.053 78.3677 938.053 77.2631C938.053 76.1586 938.948 75.2631 940.053 75.2631C941.157 75.2631 942.053 76.1586 942.053 77.2631Z" fill="#E6E6E6"/>
<rect x="-390" y="-21.5" width="337" height="383.148" rx="40" transform="rotate(-30 -390 -21.5)" fill="#F7F7F7"/>
<g style="mix-blend-mode:multiply">
<rect x="-312" y="-151.5" width="337" height="383.148" rx="40" transform="rotate(-30 -312 -151.5)" fill="#F7F7F7"/>
</g>
</g>
<defs>
<clipPath id="clip0">
<path d="M0 8C0 3.58172 3.58172 0 8 0H928C932.418 0 936 3.58172 936 8V144C936 148.418 932.418 152 928 152H8C3.58172 152 0 148.418 0 144V8Z" fill="white"/>
</clipPath>
</defs>
</svg>