<svg width="936" height="200" viewBox="0 0 936 200" fill="none" xmlns="http://www.w3.org/2000/svg">
<g clip-path="url(#clip0)">
<g clip-path="url(#clip1)">
<rect width="936" height="200" rx="8" fill="#EBEBEB"/>
<rect x="532" y="218.5" width="337" height="383.148" rx="40" transform="rotate(-30 532 218.5)" fill="#F7F7F7"/>
<g style="mix-blend-mode:multiply">
<rect x="610" y="88.5" width="337" height="383.148" rx="40" transform="rotate(-30 610 88.5)" fill="#F7F7F7"/>
</g>
<rect x="-124" y="-11.5" width="337" height="383.148" rx="40" transform="rotate(-30 -124 -11.5)" fill="#F7F7F7"/>
<path fill-rule="evenodd" clip-rule="evenodd" d="M31.9474 65.4737C31.9474 66.8399 30.8399 67.9474 29.4737 67.9474C28.1075 67.9474 27 66.8399 27 65.4737C27 64.1075 28.1075 63 29.4737 63C30.8399 63 31.9474 64.1075 31.9474 65.4737ZM41.8416 65.4737C41.8416 66.8399 40.7341 67.9474 39.3679 67.9474C38.0017 67.9474 36.8942 66.8399 36.8942 65.4737C36.8942 64.1075 38.0017 63 39.3679 63C40.7341 63 41.8416 64.1075 41.8416 65.4737ZM49.2634 67.9474C50.6295 67.9474 51.737 66.8399 51.737 65.4737C51.737 64.1075 50.6295 63 49.2634 63C47.8972 63 46.7897 64.1075 46.7897 65.4737C46.7897 66.8399 47.8972 67.9474 49.2634 67.9474ZM61.6313 65.4737C61.6313 66.8399 60.5237 67.9474 59.1576 67.9474C57.7914 67.9474 56.6839 66.8399 56.6839 65.4737C56.6839 64.1075 57.7914 63 59.1576 63C60.5237 63 61.6313 64.1075 61.6313 65.4737ZM69.053 67.9474C70.4192 67.9474 71.5267 66.8399 71.5267 65.4737C71.5267 64.1075 70.4192 63 69.053 63C67.6868 63 66.5793 64.1075 66.5793 65.4737C66.5793 66.8399 67.6868 67.9474 69.053 67.9474ZM81.4209 65.4737C81.4209 66.8399 80.3134 67.9474 78.9472 67.9474C77.5811 67.9474 76.4736 66.8399 76.4736 65.4737C76.4736 64.1075 77.5811 63 78.9472 63C80.3134 63 81.4209 64.1075 81.4209 65.4737ZM88.8427 67.9474C90.2089 67.9474 91.3164 66.8399 91.3164 65.4737C91.3164 64.1075 90.2089 63 88.8427 63C87.4765 63 86.369 64.1075 86.369 65.4737C86.369 66.8399 87.4765 67.9474 88.8427 67.9474ZM101.211 65.4737C101.211 66.8399 100.103 67.9474 98.7369 67.9474C97.3707 67.9474 96.2632 66.8399 96.2632 65.4737C96.2632 64.1075 97.3707 63 98.7369 63C100.103 63 101.211 64.1075 101.211 65.4737ZM108.631 67.9474C109.997 67.9474 111.105 66.8399 111.105 65.4737C111.105 64.1075 109.997 63 108.631 63C107.265 63 106.157 64.1075 106.157 65.4737C106.157 66.8399 107.265 67.9474 108.631 67.9474ZM121 65.4737C121 66.8399 119.893 67.9474 118.527 67.9474C117.16 67.9474 116.053 66.8399 116.053 65.4737C116.053 64.1075 117.16 63 118.527 63C119.893 63 121 64.1075 121 65.4737ZM31.9474 75.3684C31.9474 76.7346 30.8399 77.8421 29.4737 77.8421C28.1075 77.8421 27 76.7346 27 75.3684C27 74.0022 28.1075 72.8947 29.4737 72.8947C30.8399 72.8947 31.9474 74.0022 31.9474 75.3684ZM41.8416 75.3684C41.8416 76.7346 40.7341 77.8421 39.3679 77.8421C38.0017 77.8421 36.8942 76.7346 36.8942 75.3684C36.8942 74.0022 38.0017 72.8947 39.3679 72.8947C40.7341 72.8947 41.8416 74.0022 41.8416 75.3684ZM49.2634 77.8421C50.6295 77.8421 51.737 76.7346 51.737 75.3684C51.737 74.0022 50.6295 72.8947 49.2634 72.8947C47.8972 72.8947 46.7897 74.0022 46.7897 75.3684C46.7897 76.7346 47.8972 77.8421 49.2634 77.8421ZM61.6313 75.3684C61.6313 76.7346 60.5237 77.8421 59.1576 77.8421C57.7914 77.8421 56.6839 76.7346 56.6839 75.3684C56.6839 74.0022 57.7914 72.8947 59.1576 72.8947C60.5237 72.8947 61.6313 74.0022 61.6313 75.3684ZM69.053 77.8421C70.4192 77.8421 71.5267 76.7346 71.5267 75.3684C71.5267 74.0022 70.4192 72.8947 69.053 72.8947C67.6868 72.8947 66.5793 74.0022 66.5793 75.3684C66.5793 76.7346 67.6868 77.8421 69.053 77.8421ZM81.4209 75.3684C81.4209 76.7346 80.3134 77.8421 78.9472 77.8421C77.5811 77.8421 76.4736 76.7346 76.4736 75.3684C76.4736 74.0022 77.5811 72.8947 78.9472 72.8947C80.3134 72.8947 81.4209 74.0022 81.4209 75.3684ZM88.8427 77.8421C90.2089 77.8421 91.3164 76.7346 91.3164 75.3684C91.3164 74.0022 90.2089 72.8947 88.8427 72.8947C87.4765 72.8947 86.369 74.0022 86.369 75.3684C86.369 76.7346 87.4765 77.8421 88.8427 77.8421ZM101.211 75.3684C101.211 76.7346 100.103 77.8421 98.7369 77.8421C97.3707 77.8421 96.2632 76.7346 96.2632 75.3684C96.2632 74.0022 97.3707 72.8947 98.7369 72.8947C100.103 72.8947 101.211 74.0022 101.211 75.3684ZM108.631 77.8421C109.997 77.8421 111.105 76.7346 111.105 75.3684C111.105 74.0022 109.997 72.8947 108.631 72.8947C107.265 72.8947 106.157 74.0022 106.157 75.3684C106.157 76.7346 107.265 77.8421 108.631 77.8421ZM121 75.3684C121 76.7346 119.893 77.8421 118.527 77.8421C117.16 77.8421 116.053 76.7346 116.053 75.3684C116.053 74.0022 117.16 72.8947 118.527 72.8947C119.893 72.8947 121 74.0022 121 75.3684ZM39.3679 87.7368C40.7341 87.7368 41.8416 86.6293 41.8416 85.2632C41.8416 83.897 40.7341 82.7895 39.3679 82.7895C38.0017 82.7895 36.8942 83.897 36.8942 85.2632C36.8942 86.6293 38.0017 87.7368 39.3679 87.7368ZM29.4737 87.7369C30.8399 87.7369 31.9474 86.6294 31.9474 85.2632C31.9474 83.897 30.8399 82.7895 29.4737 82.7895C28.1075 82.7895 27 83.897 27 85.2632C27 86.6294 28.1075 87.7369 29.4737 87.7369ZM51.737 85.2632C51.737 86.6293 50.6295 87.7368 49.2634 87.7368C47.8972 87.7368 46.7897 86.6293 46.7897 85.2632C46.7897 83.897 47.8972 82.7895 49.2634 82.7895C50.6295 82.7895 51.737 83.897 51.737 85.2632ZM59.1576 87.7368C60.5237 87.7368 61.6313 86.6293 61.6313 85.2632C61.6313 83.897 60.5237 82.7895 59.1576 82.7895C57.7914 82.7895 56.6839 83.897 56.6839 85.2632C56.6839 86.6293 57.7914 87.7368 59.1576 87.7368ZM71.5267 85.2632C71.5267 86.6293 70.4192 87.7368 69.053 87.7368C67.6868 87.7368 66.5793 86.6293 66.5793 85.2632C66.5793 83.897 67.6868 82.7895 69.053 82.7895C70.4192 82.7895 71.5267 83.897 71.5267 85.2632ZM78.9472 87.7368C80.3134 87.7368 81.4209 86.6293 81.4209 85.2632C81.4209 83.897 80.3134 82.7895 78.9472 82.7895C77.5811 82.7895 76.4736 83.897 76.4736 85.2632C76.4736 86.6293 77.5811 87.7368 78.9472 87.7368ZM91.3164 85.2632C91.3164 86.6293 90.2089 87.7368 88.8427 87.7368C87.4765 87.7368 86.369 86.6293 86.369 85.2632C86.369 83.897 87.4765 82.7895 88.8427 82.7895C90.2089 82.7895 91.3164 83.897 91.3164 85.2632ZM98.7369 87.7368C100.103 87.7368 101.211 86.6293 101.211 85.2632C101.211 83.897 100.103 82.7895 98.7369 82.7895C97.3707 82.7895 96.2632 83.897 96.2632 85.2632C96.2632 86.6293 97.3707 87.7368 98.7369 87.7368ZM111.105 85.2632C111.105 86.6293 109.997 87.7368 108.631 87.7368C107.265 87.7368 106.157 86.6293 106.157 85.2632C106.157 83.897 107.265 82.7895 108.631 82.7895C109.997 82.7895 111.105 83.897 111.105 85.2632ZM118.527 87.7368C119.893 87.7368 121 86.6293 121 85.2632C121 83.897 119.893 82.7895 118.527 82.7895C117.16 82.7895 116.053 83.897 116.053 85.2632C116.053 86.6293 117.16 87.7368 118.527 87.7368ZM41.8416 95.1579C41.8416 96.5241 40.7341 97.6316 39.3679 97.6316C38.0017 97.6316 36.8942 96.5241 36.8942 95.1579C36.8942 93.7917 38.0017 92.6842 39.3679 92.6842C40.7341 92.6842 41.8416 93.7917 41.8416 95.1579ZM31.9474 95.1579C31.9474 96.5241 30.8399 97.6316 29.4737 97.6316C28.1075 97.6316 27 96.5241 27 95.1579C27 93.7917 28.1075 92.6842 29.4737 92.6842C30.8399 92.6842 31.9474 93.7917 31.9474 95.1579ZM49.2634 97.6316C50.6295 97.6316 51.737 96.5241 51.737 95.1579C51.737 93.7917 50.6295 92.6842 49.2634 92.6842C47.8972 92.6842 46.7897 93.7917 46.7897 95.1579C46.7897 96.5241 47.8972 97.6316 49.2634 97.6316ZM61.6313 95.1579C61.6313 96.5241 60.5237 97.6316 59.1576 97.6316C57.7914 97.6316 56.6839 96.5241 56.6839 95.1579C56.6839 93.7917 57.7914 92.6842 59.1576 92.6842C60.5237 92.6842 61.6313 93.7917 61.6313 95.1579ZM69.053 97.6316C70.4192 97.6316 71.5267 96.5241 71.5267 95.1579C71.5267 93.7917 70.4192 92.6842 69.053 92.6842C67.6868 92.6842 66.5793 93.7917 66.5793 95.1579C66.5793 96.5241 67.6868 97.6316 69.053 97.6316ZM81.4209 95.1579C81.4209 96.5241 80.3134 97.6316 78.9472 97.6316C77.5811 97.6316 76.4736 96.5241 76.4736 95.1579C76.4736 93.7917 77.5811 92.6842 78.9472 92.6842C80.3134 92.6842 81.4209 93.7917 81.4209 95.1579ZM88.8427 97.6316C90.2089 97.6316 91.3164 96.5241 91.3164 95.1579C91.3164 93.7917 90.2089 92.6842 88.8427 92.6842C87.4765 92.6842 86.369 93.7917 86.369 95.1579C86.369 96.5241 87.4765 97.6316 88.8427 97.6316ZM101.211 95.1579C101.211 96.5241 100.103 97.6316 98.7369 97.6316C97.3707 97.6316 96.2632 96.5241 96.2632 95.1579C96.2632 93.7917 97.3707 92.6842 98.7369 92.6842C100.103 92.6842 101.211 93.7917 101.211 95.1579ZM108.631 97.6316C109.997 97.6316 111.105 96.5241 111.105 95.1579C111.105 93.7917 109.997 92.6842 108.631 92.6842C107.265 92.6842 106.157 93.7917 106.157 95.1579C106.157 96.5241 107.265 97.6316 108.631 97.6316ZM121 95.1579C121 96.5241 119.893 97.6316 118.527 97.6316C117.16 97.6316 116.053 96.5241 116.053 95.1579C116.053 93.7917 117.16 92.6842 118.527 92.6842C119.893 92.6842 121 93.7917 121 95.1579ZM29.4737 107.526C30.8399 107.526 31.9474 106.419 31.9474 105.053C31.9474 103.686 30.8399 102.579 29.4737 102.579C28.1075 102.579 27 103.686 27 105.053C27 106.419 28.1075 107.526 29.4737 107.526ZM39.3679 107.526C40.7341 107.526 41.8416 106.419 41.8416 105.053C41.8416 103.686 40.7341 102.579 39.3679 102.579C38.0017 102.579 36.8942 103.686 36.8942 105.053C36.8942 106.419 38.0017 107.526 39.3679 107.526ZM51.737 105.053C51.737 106.419 50.6295 107.526 49.2634 107.526C47.8972 107.526 46.7897 106.419 46.7897 105.053C46.7897 103.686 47.8972 102.579 49.2634 102.579C50.6295 102.579 51.737 103.686 51.737 105.053ZM59.1576 107.526C60.5237 107.526 61.6313 106.419 61.6313 105.053C61.6313 103.686 60.5237 102.579 59.1576 102.579C57.7914 102.579 56.6839 103.686 56.6839 105.053C56.6839 106.419 57.7914 107.526 59.1576 107.526ZM71.5267 105.053C71.5267 106.419 70.4192 107.526 69.053 107.526C67.6868 107.526 66.5793 106.419 66.5793 105.053C66.5793 103.686 67.6868 102.579 69.053 102.579C70.4192 102.579 71.5267 103.686 71.5267 105.053ZM78.9472 107.526C80.3134 107.526 81.4209 106.419 81.4209 105.053C81.4209 103.686 80.3134 102.579 78.9472 102.579C77.5811 102.579 76.4736 103.686 76.4736 105.053C76.4736 106.419 77.5811 107.526 78.9472 107.526ZM91.3164 105.053C91.3164 106.419 90.2089 107.526 88.8427 107.526C87.4765 107.526 86.369 106.419 86.369 105.053C86.369 103.686 87.4765 102.579 88.8427 102.579C90.2089 102.579 91.3164 103.686 91.3164 105.053ZM98.7369 107.526C100.103 107.526 101.211 106.419 101.211 105.053C101.211 103.686 100.103 102.579 98.7369 102.579C97.3707 102.579 96.2632 103.686 96.2632 105.053C96.2632 106.419 97.3707 107.526 98.7369 107.526ZM111.105 105.053C111.105 106.419 109.997 107.526 108.631 107.526C107.265 107.526 106.157 106.419 106.157 105.053C106.157 103.686 107.265 102.579 108.631 102.579C109.997 102.579 111.105 103.686 111.105 105.053ZM118.527 107.526C119.893 107.526 121 106.419 121 105.053C121 103.686 119.893 102.579 118.527 102.579C117.16 102.579 116.053 103.686 116.053 105.053C116.053 106.419 117.16 107.526 118.527 107.526ZM31.9474 114.947C31.9474 116.314 30.8399 117.421 29.4737 117.421C28.1075 117.421 27 116.314 27 114.947C27 113.581 28.1075 112.474 29.4737 112.474C30.8399 112.474 31.9474 113.581 31.9474 114.947ZM41.8416 114.947C41.8416 116.314 40.7341 117.421 39.3679 117.421C38.0017 117.421 36.8942 116.314 36.8942 114.947C36.8942 113.581 38.0017 112.474 39.3679 112.474C40.7341 112.474 41.8416 113.581 41.8416 114.947ZM49.2634 117.421C50.6295 117.421 51.737 116.314 51.737 114.947C51.737 113.581 50.6295 112.474 49.2634 112.474C47.8972 112.474 46.7897 113.581 46.7897 114.947C46.7897 116.314 47.8972 117.421 49.2634 117.421ZM61.6313 114.947C61.6313 116.314 60.5237 117.421 59.1576 117.421C57.7914 117.421 56.6839 116.314 56.6839 114.947C56.6839 113.581 57.7914 112.474 59.1576 112.474C60.5237 112.474 61.6313 113.581 61.6313 114.947ZM69.053 117.421C70.4192 117.421 71.5267 116.314 71.5267 114.947C71.5267 113.581 70.4192 112.474 69.053 112.474C67.6868 112.474 66.5793 113.581 66.5793 114.947C66.5793 116.314 67.6868 117.421 69.053 117.421ZM81.4209 114.947C81.4209 116.314 80.3134 117.421 78.9472 117.421C77.5811 117.421 76.4736 116.314 76.4736 114.947C76.4736 113.581 77.5811 112.474 78.9472 112.474C80.3134 112.474 81.4209 113.581 81.4209 114.947ZM88.8427 117.421C90.2089 117.421 91.3164 116.314 91.3164 114.947C91.3164 113.581 90.2089 112.474 88.8427 112.474C87.4765 112.474 86.369 113.581 86.369 114.947C86.369 116.314 87.4765 117.421 88.8427 117.421ZM101.211 114.947C101.211 116.314 100.103 117.421 98.7369 117.421C97.3707 117.421 96.2632 116.314 96.2632 114.947C96.2632 113.581 97.3707 112.474 98.7369 112.474C100.103 112.474 101.211 113.581 101.211 114.947ZM108.631 117.421C109.997 117.421 111.105 116.314 111.105 114.947C111.105 113.581 109.997 112.474 108.631 112.474C107.265 112.474 106.157 113.581 106.157 114.947C106.157 116.314 107.265 117.421 108.631 117.421ZM121 114.947C121 116.314 119.893 117.421 118.527 117.421C117.16 117.421 116.053 116.314 116.053 114.947C116.053 113.581 117.16 112.474 118.527 112.474C119.893 112.474 121 113.581 121 114.947ZM39.3679 127.316C40.7341 127.316 41.8416 126.208 41.8416 124.842C41.8416 123.476 40.7341 122.368 39.3679 122.368C38.0017 122.368 36.8942 123.476 36.8942 124.842C36.8942 126.208 38.0017 127.316 39.3679 127.316ZM29.4737 127.316C30.8399 127.316 31.9474 126.208 31.9474 124.842C31.9474 123.476 30.8399 122.368 29.4737 122.368C28.1075 122.368 27 123.476 27 124.842C27 126.208 28.1075 127.316 29.4737 127.316ZM51.737 124.842C51.737 126.208 50.6295 127.316 49.2634 127.316C47.8972 127.316 46.7897 126.208 46.7897 124.842C46.7897 123.476 47.8972 122.368 49.2634 122.368C50.6295 122.368 51.737 123.476 51.737 124.842ZM59.1576 127.316C60.5237 127.316 61.6313 126.208 61.6313 124.842C61.6313 123.476 60.5237 122.368 59.1576 122.368C57.7914 122.368 56.6839 123.476 56.6839 124.842C56.6839 126.208 57.7914 127.316 59.1576 127.316ZM71.5267 124.842C71.5267 126.208 70.4192 127.316 69.053 127.316C67.6868 127.316 66.5793 126.208 66.5793 124.842C66.5793 123.476 67.6868 122.368 69.053 122.368C70.4192 122.368 71.5267 123.476 71.5267 124.842ZM78.9472 127.316C80.3134 127.316 81.4209 126.208 81.4209 124.842C81.4209 123.476 80.3134 122.368 78.9472 122.368C77.5811 122.368 76.4736 123.476 76.4736 124.842C76.4736 126.208 77.5811 127.316 78.9472 127.316ZM91.3164 124.842C91.3164 126.208 90.2089 127.316 88.8427 127.316C87.4765 127.316 86.369 126.208 86.369 124.842C86.369 123.476 87.4765 122.368 88.8427 122.368C90.2089 122.368 91.3164 123.476 91.3164 124.842ZM98.7369 127.316C100.103 127.316 101.211 126.208 101.211 124.842C101.211 123.476 100.103 122.368 98.7369 122.368C97.3707 122.368 96.2632 123.476 96.2632 124.842C96.2632 126.208 97.3707 127.316 98.7369 127.316ZM111.105 124.842C111.105 126.208 109.997 127.316 108.631 127.316C107.265 127.316 106.157 126.208 106.157 124.842C106.157 123.476 107.265 122.368 108.631 122.368C109.997 122.368 111.105 123.476 111.105 124.842ZM118.527 127.316C119.893 127.316 121 126.208 121 124.842C121 123.476 119.893 122.368 118.527 122.368C117.16 122.368 116.053 123.476 116.053 124.842C116.053 126.208 117.16 127.316 118.527 127.316ZM41.8416 134.737C41.8416 136.103 40.7341 137.211 39.3679 137.211C38.0017 137.211 36.8942 136.103 36.8942 134.737C36.8942 133.371 38.0017 132.263 39.3679 132.263C40.7341 132.263 41.8416 133.371 41.8416 134.737ZM31.9474 134.737C31.9474 136.103 30.8399 137.211 29.4737 137.211C28.1075 137.211 27 136.103 27 134.737C27 133.371 28.1075 132.263 29.4737 132.263C30.8399 132.263 31.9474 133.371 31.9474 134.737ZM49.2634 137.211C50.6295 137.211 51.737 136.103 51.737 134.737C51.737 133.371 50.6295 132.263 49.2634 132.263C47.8972 132.263 46.7897 133.371 46.7897 134.737C46.7897 136.103 47.8972 137.211 49.2634 137.211ZM61.6313 134.737C61.6313 136.103 60.5237 137.211 59.1576 137.211C57.7914 137.211 56.6839 136.103 56.6839 134.737C56.6839 133.371 57.7914 132.263 59.1576 132.263C60.5237 132.263 61.6313 133.371 61.6313 134.737ZM69.053 137.211C70.4192 137.211 71.5267 136.103 71.5267 134.737C71.5267 133.371 70.4192 132.263 69.053 132.263C67.6868 132.263 66.5793 133.371 66.5793 134.737C66.5793 136.103 67.6868 137.211 69.053 137.211ZM81.4209 134.737C81.4209 136.103 80.3134 137.211 78.9472 137.211C77.5811 137.211 76.4736 136.103 76.4736 134.737C76.4736 133.371 77.5811 132.263 78.9472 132.263C80.3134 132.263 81.4209 133.371 81.4209 134.737ZM88.8427 137.211C90.2089 137.211 91.3164 136.103 91.3164 134.737C91.3164 133.371 90.2089 132.263 88.8427 132.263C87.4765 132.263 86.369 133.371 86.369 134.737C86.369 136.103 87.4765 137.211 88.8427 137.211ZM101.211 134.737C101.211 136.103 100.103 137.211 98.7369 137.211C97.3707 137.211 96.2632 136.103 96.2632 134.737C96.2632 133.371 97.3707 132.263 98.7369 132.263C100.103 132.263 101.211 133.371 101.211 134.737ZM108.631 137.211C109.997 137.211 111.105 136.103 111.105 134.737C111.105 133.371 109.997 132.263 108.631 132.263C107.265 132.263 106.157 133.371 106.157 134.737C106.157 136.103 107.265 137.211 108.631 137.211ZM121 134.737C121 136.103 119.893 137.211 118.527 137.211C117.16 137.211 116.053 136.103 116.053 134.737C116.053 133.371 117.16 132.263 118.527 132.263C119.893 132.263 121 133.371 121 134.737Z" fill="#E6E6E6"/>
</g>
<g clip-path="url(#clip2)">
<g clip-path="url(#clip3)">
<g clip-path="url(#clip4)">
<rect x="-70.3984" y="70.9521" width="134" height="144" transform="rotate(-30 -70.3984 70.9521)" fill="#F0B90B"/>
<circle cx="53.0684" cy="82.8057" r="200" transform="rotate(-30 53.0684 82.8057)" fill="url(#paint0_radial)"/>
<path d="M-29.6934 47.4521L52.5719 81.94L14.5938 188.16L117.651 128.66L45.6508 3.95215L-29.6934 47.4521Z" fill="#F0B90B"/>
<path d="M52.5719 81.9404L56.163 164.16L14.5938 188.16L52.5719 81.9404Z" fill="#C49C1F"/>
</g>
</g>
<path d="M-25.1099 111.541L-21.2648 109.321C-20.1944 108.703 -19.9282 107.316 -20.5882 106.173C-21.3082 104.926 -22.5179 105.015 -23.2038 105.411L-23.2398 105.348C-22.5199 104.891 -22.1468 104.121 -22.7888 103.009C-23.4368 101.887 -24.5798 101.563 -25.775 102.253L-29.2979 104.287L-25.1099 111.541ZM-25.2583 107.636L-23.4397 106.586C-23.024 106.346 -22.6262 106.435 -22.3862 106.851L-22.1822 107.204C-21.9422 107.62 -22.064 108.009 -22.4797 108.249L-24.2983 109.299L-25.2583 107.636ZM-26.9503 104.705L-25.3811 103.799C-24.9654 103.559 -24.572 103.665 -24.332 104.081L-24.152 104.392C-23.912 104.808 -24.0174 105.201 -24.4331 105.441L-26.0023 106.347L-26.9503 104.705ZM-22.4079 100.309L-19.9359 104.591C-18.6999 106.732 -17.3789 107.244 -15.3004 106.044C-13.222 104.844 -13.0049 103.444 -14.2409 101.303L-16.7129 97.0213L-18.251 97.9093L-15.683 102.357C-15.095 103.376 -15.1751 104.101 -16.1104 104.641C-17.0457 105.181 -17.7139 104.888 -18.3019 103.869L-20.8699 99.4213L-22.4079 100.309ZM-8.54195 102.142C-6.73369 101.098 -6.27324 99.5433 -7.07724 98.1508C-7.79724 96.9037 -8.89831 96.6526 -10.5224 97.2716L-11.3055 97.5712C-11.9622 97.8257 -12.33 97.7886 -12.618 97.2898C-12.87 96.8533 -12.6831 96.3851 -11.9764 95.9771C-11.2282 95.5451 -10.5985 95.5557 -10.0216 95.763L-9.58395 94.097C-10.5543 93.7843 -11.5957 93.9006 -12.6869 94.5306C-14.3912 95.5146 -14.8877 97.0067 -14.1377 98.3057C-13.4357 99.5216 -12.3074 99.8679 -10.6657 99.1833L-9.89465 98.8629C-9.16515 98.5664 -8.83087 98.7614 -8.60287 99.1563C-8.29687 99.6863 -8.473 100.245 -9.24203 100.689C-9.9487 101.097 -10.7342 101.177 -11.5407 100.908L-11.9739 102.557C-10.9544 102.883 -9.80981 102.874 -8.54195 102.142ZM-4.47757 99.629L-1.74439 98.051C0.178182 96.941 0.744043 94.9931 -0.647957 92.5821C-2.03996 90.171 -4.00982 89.6871 -5.93239 90.7971L-8.66557 92.3751L-4.47757 99.629ZM-3.70794 97.314L-6.27594 92.8661L-5.12239 92.2001C-4.18709 91.6601 -3.31112 91.8333 -2.64512 92.9869L-1.99712 94.1092C-1.33112 95.2628 -1.61909 96.108 -2.55439 96.648L-3.70794 97.314ZM8.17604 92.3234L6.82256 87.8671L6.26829 86.0671L6.29947 86.0491L7.5708 87.4351L10.7533 90.8354L12.5512 89.7974L10.0467 81.5716L8.55026 82.4356L9.86397 86.319L10.6435 88.5571L10.6123 88.5751L9.00141 86.817L6.18081 83.8036L4.45569 84.7996L5.66548 88.743L6.37222 91.0231L6.34104 91.0411L4.79253 89.247L2.09664 86.1616L0.537789 87.0616L6.36777 93.3674L8.17604 92.3234ZM19.8194 85.6011L19.1294 84.406L18.6202 84.7L17.2402 82.3098C16.4962 81.0211 15.2984 80.7704 13.7603 81.6584C12.6171 82.3184 12.2216 83.0733 12.1571 83.9697L13.5396 84.2523C13.5867 83.7817 13.7288 83.2839 14.342 82.9299C14.9863 82.5579 15.4381 82.7405 15.7441 83.2705L15.9421 83.6135L15.0795 84.1115C13.635 84.9455 13.0593 86.0122 13.7253 87.1658C14.2713 88.1115 15.246 88.4078 16.3372 87.7778C17.1686 87.2978 17.5554 86.5757 17.3136 85.773L17.376 85.737C17.8055 86.265 18.4164 86.4111 18.9672 86.0931L19.8194 85.6011ZM16.2908 86.3774C15.8335 86.6414 15.4657 86.6043 15.2377 86.2094L15.1477 86.0536C14.9197 85.6586 15.1055 85.2604 15.6979 84.9184L16.4461 84.4864L16.8181 85.1307C17.1061 85.6296 16.8 86.0834 16.2908 86.3774ZM23.0757 83.7211L22.3857 82.526L21.6998 82.922L17.9498 76.4268L16.4117 77.3148L19.9877 83.5086C20.5457 84.4751 21.3298 84.7291 22.3794 84.1231L23.0757 83.7211ZM26.1406 81.9516L25.4506 80.7564L24.7647 81.1524L21.0147 74.6573L19.4766 75.5453L23.0526 81.7391C23.6106 82.7056 24.3947 82.9596 25.4443 82.3536L26.1406 81.9516ZM29.4107 80.2299C30.4083 79.6539 31.0105 78.8489 31.175 78.0057L29.8539 77.4936C29.715 78.045 29.5357 78.5504 28.8913 78.9224C28.0703 79.3964 27.4218 79.1611 27.0078 78.444L26.9598 78.3609L30.462 76.3389L30.198 75.8816C29.346 74.4059 27.8626 73.5165 26.0543 74.5605C24.4123 75.5085 24.1458 77.1589 25.1418 78.884C26.1498 80.6299 27.7375 81.1959 29.4107 80.2299ZM26.7395 75.6752C27.3526 75.3212 27.912 75.5941 28.296 76.2592L28.35 76.3528L26.4378 77.4568L26.3898 77.3736C25.9998 76.6981 26.1263 76.0292 26.7395 75.6752ZM35.725 76.418L35.035 75.2229L34.0373 75.7989L32.2673 72.7332L33.3481 72.1092L32.6581 70.9141L31.5773 71.5381L30.7253 70.0623L29.3431 70.8603L29.8591 71.7541C30.0751 72.1282 30.0704 72.4081 29.6547 72.6481L29.2702 72.8701L29.9602 74.0652L30.7293 73.6212L32.2713 76.292C32.8713 77.3312 33.7504 77.558 34.8105 76.946L35.725 76.418Z" fill="white"/>
</g>
<g clip-path="url(#clip5)">
<g clip-path="url(#clip6)">
<g clip-path="url(#clip7)">
<rect x="-9.39844" y="70.9521" width="134" height="144" transform="rotate(-30 -9.39844 70.9521)" fill="#666666"/>
<circle cx="114.068" cy="82.8057" r="200" transform="rotate(-30 114.068 82.8057)" fill="url(#paint1_radial)"/>
<path d="M31.3066 47.4521L113.572 81.94L75.5938 188.16L178.651 128.66L106.651 3.95215L31.3066 47.4521Z" fill="#666666"/>
<path d="M113.572 81.9404L117.163 164.16L75.5938 188.16L113.572 81.9404Z" fill="#4B4B4B"/>
</g>
</g>
<path d="M40.8264 108.691L40.0164 107.288L36.6597 109.226L35.7537 107.657L38.6324 105.995L37.8284 104.602L34.9497 106.264L34.0917 104.778L37.4484 102.84L36.6384 101.437L31.7021 104.287L35.8901 111.541L40.8264 108.691ZM43.8129 99.1657L43.0029 97.7627L37.4949 100.943L38.3049 102.346L40.2691 101.212L43.6471 107.063L45.2267 106.151L41.8487 100.3L43.8129 99.1657ZM52.6155 101.885L54.1951 100.973L50.0071 93.7188L48.4275 94.6308L50.0955 97.5199L47.3311 99.1159L45.6631 96.2268L44.0835 97.1388L48.2715 104.393L49.8511 103.481L48.1351 100.508L50.8995 98.9124L52.6155 101.885ZM61.1991 96.9289L59.8457 92.4726L59.2914 90.6726L59.3226 90.6546L60.5939 92.0406L63.7764 95.4409L65.5743 94.4029L63.0698 86.177L61.5734 87.041L62.8871 90.9245L63.6666 93.1626L63.6354 93.1806L62.0245 91.4225L59.2039 88.409L57.4788 89.405L58.6886 93.3485L59.3953 95.6286L59.3641 95.6466L57.8156 93.8525L55.1197 90.767L53.5609 91.667L59.3909 97.9729L61.1991 96.9289ZM72.8425 90.2066L72.1525 89.0115L71.6433 89.3055L70.2633 86.9152C69.5193 85.6266 68.3215 85.3759 66.7834 86.2639C65.6402 86.9239 65.2447 87.6788 65.1802 88.5751L66.5627 88.8577C66.6098 88.3872 66.7519 87.8894 67.3651 87.5354C68.0094 87.1634 68.4612 87.346 68.7672 87.876L68.9652 88.2189L68.1026 88.7169C66.6581 89.5509 66.0824 90.6177 66.7484 91.7713C67.2944 92.717 68.2691 93.0133 69.3603 92.3833C70.1917 91.9033 70.5785 91.1812 70.3367 90.3785L70.3991 90.3425C70.8286 90.8705 71.4395 91.0166 71.9903 90.6986L72.8425 90.2066ZM69.3139 90.9829C68.8566 91.2469 68.4888 91.2098 68.2608 90.8149L68.1708 90.659C67.9428 90.2641 68.1286 89.8659 68.721 89.5239L69.4692 89.0919L69.8412 89.7362C70.1292 90.235 69.8231 90.6889 69.3139 90.9829ZM76.0988 88.3266L75.4088 87.1314L74.7229 87.5274L70.9729 81.0323L69.4348 81.9203L73.0108 88.1141C73.5688 89.0806 74.3529 89.3346 75.4025 88.7286L76.0988 88.3266ZM79.1637 86.557L78.4737 85.3619L77.7878 85.7579L74.0378 79.2627L72.4997 80.1507L76.0757 86.3445C76.6337 87.311 77.4178 87.565 78.4674 86.959L79.1637 86.557ZM82.4338 84.8353C83.4314 84.2593 84.0336 83.4544 84.1981 82.6112L82.877 82.0991C82.7381 82.6504 82.5588 83.1558 81.9144 83.5278C81.0934 84.0018 80.4449 83.7666 80.0309 83.0495L79.9829 82.9664L83.4851 80.9444L83.2211 80.4871C82.3691 79.0114 80.8857 78.122 79.0774 79.166C77.4354 80.114 77.1689 81.7643 78.1649 83.4894C79.1729 85.2354 80.7606 85.8013 82.4338 84.8353ZM79.7626 80.2807C80.3757 79.9267 80.9351 80.1996 81.3191 80.8647L81.3731 80.9582L79.4609 82.0622L79.4129 81.9791C79.0229 81.3036 79.1494 80.6347 79.7626 80.2807ZM88.7481 81.0235L88.0581 79.8284L87.0604 80.4044L85.2904 77.3386L86.3712 76.7146L85.6812 75.5195L84.6004 76.1435L83.7484 74.6678L82.3662 75.4658L82.8822 76.3596C83.0982 76.7337 83.0935 77.0135 82.6778 77.2535L82.2933 77.4755L82.9833 78.6706L83.7524 78.2266L85.2944 80.8975C85.8944 81.9367 86.7735 82.1635 87.8336 81.5515L88.7481 81.0235Z" fill="white"/>
</g>
<g clip-path="url(#clip8)">
<g clip-path="url(#clip9)">
<g clip-path="url(#clip10)">
<rect x="51.6016" y="70.9521" width="134" height="144" transform="rotate(-30 51.6016 70.9521)" fill="#1954B0"/>
<circle cx="175.068" cy="82.8057" r="200" transform="rotate(-30 175.068 82.8057)" fill="url(#paint2_radial)"/>
<g clip-path="url(#clip11)">
<rect x="64.5938" y="63.4521" width="119" height="144" transform="rotate(-30 64.5938 63.4521)" fill="#0D47A1"/>
<circle cx="175.072" cy="82.8057" r="200" transform="rotate(-30 175.072 82.8057)" fill="url(#paint3_radial)"/>
<path d="M92.3066 47.4521L174.572 81.94L136.594 188.16L239.651 128.66L167.651 3.95215L92.3066 47.4521Z" fill="#0D47A1"/>
<path d="M174.572 81.9404L178.163 164.16L136.594 188.16L174.572 81.9404Z" fill="#154082"/>
</g>
</g>
</g>
<path d="M101.826 108.691L101.016 107.288L97.6597 109.226L96.7537 107.657L99.6324 105.995L98.8284 104.602L95.9497 106.264L95.0917 104.778L98.4484 102.84L97.6384 101.437L92.7021 104.287L96.8901 111.541L101.826 108.691ZM98.973 100.667L101.445 104.948C102.681 107.089 104.002 107.601 106.08 106.401C108.159 105.201 108.376 103.801 107.14 101.66L104.668 97.3787L103.13 98.2667L105.698 102.715C106.286 103.733 106.206 104.458 105.27 104.998C104.335 105.538 103.667 105.245 103.079 104.227L100.511 99.7787L98.973 100.667ZM110.462 100.158L111.595 99.5041L114.399 101.433L116.155 100.419L113.087 98.393C113.778 97.5505 113.765 96.5191 113.201 95.5422C112.403 94.16 111.011 93.7167 109.67 94.4907L106.23 96.4767L110.418 103.731L111.998 102.819L110.462 100.158ZM109.694 98.8279L108.602 96.9365L110.265 95.9765C110.732 95.7065 111.167 95.7879 111.437 96.2556L111.701 96.7128C111.971 97.1805 111.824 97.5979 111.357 97.8679L109.694 98.8279ZM122.828 96.5656L121.475 92.1093L120.921 90.3093L120.952 90.2913L122.223 91.6773L125.406 95.0776L127.204 94.0396L124.699 85.8138L123.203 86.6778L124.516 90.5612L125.296 92.7993L125.265 92.8173L123.654 91.0592L120.833 88.0458L119.108 89.0418L120.318 92.9852L121.025 95.2653L120.993 95.2833L119.445 93.4892L116.749 90.4038L115.19 91.3038L121.02 97.6096L122.828 96.5656ZM134.472 89.8433L133.782 88.6482L133.272 88.9422L131.892 86.5519C131.148 85.2633 129.951 85.0126 128.413 85.9006C127.269 86.5606 126.874 87.3155 126.809 88.2119L128.192 88.4945C128.239 88.0239 128.381 87.5261 128.994 87.1721C129.639 86.8001 130.09 86.9827 130.396 87.5127L130.594 87.8556L129.732 88.3536C128.287 89.1876 127.712 90.2544 128.378 91.408C128.924 92.3537 129.898 92.65 130.99 92.02C131.821 91.54 132.208 90.8179 131.966 90.0152L132.028 89.9792C132.458 90.5072 133.069 90.6533 133.62 90.3353L134.472 89.8433ZM130.943 90.6196C130.486 90.8836 130.118 90.8465 129.89 90.4516L129.8 90.2957C129.572 89.9008 129.758 89.5026 130.35 89.1606L131.098 88.7286L131.47 89.3729C131.758 89.8717 131.452 90.3256 130.943 90.6196ZM137.728 87.9633L137.038 86.7682L136.352 87.1642L132.602 80.669L131.064 81.557L134.64 87.7508C135.198 88.7173 135.982 88.9713 137.032 88.3653L137.728 87.9633ZM140.793 86.1937L140.103 84.9986L139.417 85.3946L135.667 78.8994L134.129 79.7874L137.705 85.9813C138.263 86.9477 139.047 87.2017 140.097 86.5957L140.793 86.1937ZM144.063 84.472C145.061 83.896 145.663 83.0911 145.827 82.2479L144.506 81.7358C144.367 82.2872 144.188 82.7925 143.544 83.1645C142.723 83.6385 142.074 83.4033 141.66 82.6862L141.612 82.6031L145.114 80.5811L144.85 80.1238C143.998 78.6481 142.515 77.7587 140.707 78.8027C139.065 79.7507 138.798 81.401 139.794 83.1262C140.802 84.8721 142.39 85.438 144.063 84.472ZM141.392 79.9174C142.005 79.5634 142.564 79.8363 142.948 80.5014L143.002 80.5949L141.09 81.6989L141.042 81.6158C140.652 80.9403 140.779 80.2714 141.392 79.9174ZM150.377 80.6602L149.687 79.4651L148.69 80.0411L146.92 76.9754L148 76.3514L147.31 75.1562L146.23 75.7802L145.378 74.3045L143.995 75.1025L144.511 75.9963C144.727 76.3704 144.723 76.6502 144.307 76.8902L143.923 77.1122L144.613 78.3074L145.382 77.8634L146.924 80.5342C147.524 81.5734 148.403 81.8002 149.463 81.1882L150.377 80.6602Z" fill="white"/>
</g>
<g clip-path="url(#clip12)">
<g clip-path="url(#clip13)">
<g clip-path="url(#clip14)">
<rect x="113.141" y="70.9521" width="134" height="144" transform="rotate(-30 113.141 70.9521)" fill="#F9A136"/>
<circle cx="236.607" cy="82.8057" r="200" transform="rotate(-30 236.607 82.8057)" fill="url(#paint4_radial)"/>
<path d="M153.846 47.4521L236.111 81.94L198.133 188.16L301.19 128.66L229.19 3.95215L153.846 47.4521Z" fill="#F9A136"/>
<path d="M236.111 81.9404L239.702 164.16L198.133 188.16L236.111 81.9404Z" fill="#E88A17"/>
</g>
</g>
<path d="M158.429 111.541L162.274 109.321C163.345 108.703 163.611 107.316 162.951 106.173C162.231 104.926 161.021 105.015 160.335 105.411L160.299 105.348C161.019 104.891 161.392 104.121 160.75 103.009C160.102 101.887 158.959 101.563 157.764 102.253L154.241 104.287L158.429 111.541ZM158.281 107.636L160.099 106.586C160.515 106.346 160.913 106.435 161.153 106.851L161.357 107.204C161.597 107.62 161.475 108.009 161.059 108.249L159.241 109.299L158.281 107.636ZM156.589 104.705L158.158 103.799C158.574 103.559 158.967 103.665 159.207 104.081L159.387 104.392C159.627 104.808 159.522 105.201 159.106 105.441L157.537 106.347L156.589 104.705ZM166.697 98.9665L165.887 97.5635L160.379 100.743L161.189 102.146L163.153 101.012L166.531 106.863L168.111 105.951L164.733 100.1L166.697 98.9665ZM173.894 102.778C175.225 102.01 175.721 100.879 175.626 99.465L173.905 99.4607C174.029 100.179 173.864 100.926 173.084 101.376C172.159 101.91 171.186 101.64 170.526 100.497L169.854 99.3329C169.194 98.1897 169.447 97.2122 170.372 96.6782C171.152 96.2282 171.77 96.4115 172.305 96.9062L173.259 95.4136C172.057 94.5556 170.893 94.5072 169.562 95.2752C167.609 96.4032 167.131 98.4802 168.547 100.933C169.963 103.385 171.941 103.906 173.894 102.778ZM183.068 97.3156L181.715 92.8593L181.161 91.0593L181.192 91.0413L182.463 92.4273L185.646 95.8276L187.444 94.7896L184.939 86.5638L183.443 87.4278L184.756 91.3112L185.536 93.5493L185.505 93.5673L183.894 91.8092L181.073 88.7958L179.348 89.7918L180.558 93.7352L181.265 96.0153L181.233 96.0333L179.685 94.2392L176.989 91.1538L175.43 92.0538L181.26 98.3596L183.068 97.3156ZM194.712 90.5933L194.022 89.3982L193.513 89.6922L192.133 87.3019C191.389 86.0133 190.191 85.7626 188.653 86.6506C187.509 87.3106 187.114 88.0655 187.049 88.9619L188.432 89.2445C188.479 88.7739 188.621 88.2761 189.234 87.9221C189.879 87.5501 190.33 87.7327 190.636 88.2627L190.834 88.6056L189.972 89.1036C188.527 89.9376 187.952 91.0044 188.618 92.158C189.164 93.1037 190.138 93.4 191.23 92.77C192.061 92.29 192.448 91.5679 192.206 90.7652L192.268 90.7292C192.698 91.2572 193.309 91.4033 193.86 91.0853L194.712 90.5933ZM191.183 91.3696C190.726 91.6336 190.358 91.5965 190.13 91.2016L190.04 91.0457C189.812 90.6508 189.998 90.2526 190.59 89.9106L191.338 89.4786L191.71 90.1229C191.998 90.6217 191.692 91.0756 191.183 91.3696ZM197.968 88.7133L197.278 87.5182L196.592 87.9142L192.842 81.419L191.304 82.307L194.88 88.5008C195.438 89.4673 196.222 89.7213 197.272 89.1153L197.968 88.7133ZM201.033 86.9437L200.343 85.7486L199.657 86.1446L195.907 79.6494L194.369 80.5374L197.945 86.7313C198.503 87.6977 199.287 87.9517 200.337 87.3457L201.033 86.9437ZM204.303 85.222C205.301 84.646 205.903 83.8411 206.067 82.9979L204.746 82.4858C204.607 83.0372 204.428 83.5425 203.784 83.9145C202.963 84.3885 202.314 84.1533 201.9 83.4362L201.852 83.3531L205.354 81.3311L205.09 80.8738C204.238 79.3981 202.755 78.5087 200.947 79.5527C199.305 80.5007 199.038 82.151 200.034 83.8762C201.042 85.6221 202.63 86.188 204.303 85.222ZM201.632 80.6674C202.245 80.3134 202.804 80.5863 203.188 81.2514L203.242 81.3449L201.33 82.4489L201.282 82.3658C200.892 81.6903 201.019 81.0214 201.632 80.6674ZM210.617 81.4102L209.927 80.2151L208.93 80.7911L207.16 77.7254L208.24 77.1014L207.55 75.9062L206.47 76.5302L205.618 75.0545L204.235 75.8525L204.751 76.7463C204.967 77.1204 204.963 77.4002 204.547 77.6402L204.163 77.8622L204.853 79.0574L205.622 78.6134L207.164 81.2842C207.764 82.3234 208.643 82.5502 209.703 81.9382L210.617 81.4102Z" fill="white"/>
</g>
<g clip-path="url(#clip15)">
<g clip-path="url(#clip16)">
<g clip-path="url(#clip17)">
<rect x="174.082" y="70.8486" width="133" height="144" transform="rotate(-30 174.082 70.8486)" fill="#283991"/>
<circle cx="296.686" cy="83.2021" r="200" transform="rotate(-30 296.686 83.2021)" fill="url(#paint5_radial)"/>
<path d="M213.92 47.8486L296.185 82.3364L258.207 188.556L361.264 129.056L289.264 4.34863L213.92 47.8486Z" fill="#D53A30"/>
<path d="M296.185 82.3369L299.776 164.557L258.207 188.557L296.185 82.3369Z" fill="#B13027"/>
</g>
</g>
<path d="M215.2 104.311L217.672 108.593C218.908 110.734 220.229 111.246 222.307 110.046C224.385 108.846 224.603 107.446 223.367 105.305L220.895 101.023L219.356 101.911L221.924 106.359C222.512 107.378 222.432 108.103 221.497 108.643C220.562 109.183 219.894 108.89 219.306 107.871L216.738 103.423L215.2 104.311ZM229.066 106.144C230.874 105.1 231.334 103.545 230.53 102.153C229.81 100.906 228.709 100.655 227.085 101.274L226.302 101.573C225.645 101.828 225.277 101.791 224.989 101.292C224.737 100.855 224.924 100.387 225.631 99.9791C226.379 99.5471 227.009 99.5577 227.586 99.765L228.024 98.099C227.053 97.7863 226.012 97.9025 224.921 98.5325C223.216 99.5165 222.72 101.009 223.47 102.308C224.172 103.524 225.3 103.87 226.942 103.185L227.713 102.865C228.442 102.568 228.777 102.763 229.005 103.158C229.311 103.688 229.134 104.247 228.365 104.691C227.659 105.099 226.873 105.179 226.067 104.91L225.634 106.559C226.653 106.885 227.798 106.876 229.066 106.144ZM233.13 103.631L235.863 102.053C237.786 100.943 238.352 98.995 236.96 96.584C235.568 94.173 233.598 93.6891 231.675 94.7991L228.942 96.3771L233.13 103.631ZM233.9 101.316L231.332 96.8681L232.485 96.2021C233.42 95.6621 234.296 95.8353 234.962 96.9888L235.61 98.1112C236.276 99.2647 235.988 100.11 235.053 100.65L233.9 101.316ZM245.784 96.3254L244.43 91.8691L243.876 90.069L243.907 90.051L245.178 91.4371L248.361 94.8374L250.159 93.7994L247.654 85.5735L246.158 86.4375L247.471 90.321L248.251 92.5591L248.22 92.5771L246.609 90.819L243.788 87.8055L242.063 88.8015L243.273 92.745L243.98 95.0251L243.949 95.0431L242.4 93.249L239.704 90.1635L238.145 91.0635L243.975 97.3694L245.784 96.3254ZM257.427 89.6031L256.737 88.4079L256.228 88.7019L254.848 86.3117C254.104 85.0231 252.906 84.7724 251.368 85.6604C250.225 86.3204 249.829 87.0753 249.765 87.9716L251.147 88.2542C251.194 87.7837 251.336 87.2859 251.949 86.9319C252.594 86.5599 253.046 86.7425 253.352 87.2725L253.55 87.6154L252.687 88.1134C251.242 88.9474 250.667 90.0142 251.333 91.1677C251.879 92.1134 252.854 92.4098 253.945 91.7798C254.776 91.2998 255.163 90.5776 254.921 89.775L254.983 89.739C255.413 90.2669 256.024 90.4131 256.575 90.0951L257.427 89.6031ZM253.898 90.3794C253.441 90.6434 253.073 90.6063 252.845 90.2114L252.755 90.0555C252.527 89.6606 252.713 89.2624 253.305 88.9204L254.054 88.4884L254.426 89.1327C254.714 89.6315 254.408 90.0854 253.898 90.3794ZM260.683 87.723L259.993 86.5279L259.307 86.9239L255.557 80.4287L254.019 81.3167L257.595 87.5106C258.153 88.477 258.937 88.731 259.987 88.125L260.683 87.723ZM263.748 85.9535L263.058 84.7584L262.372 85.1544L258.622 78.6592L257.084 79.5472L260.66 85.741C261.218 86.7075 262.002 86.9615 263.052 86.3555L263.748 85.9535ZM267.018 84.2318C268.016 83.6558 268.618 82.8509 268.782 82.0077L267.461 81.4956C267.322 82.0469 267.143 82.5523 266.499 82.9243C265.678 83.3983 265.029 83.163 264.615 82.446L264.567 82.3628L268.07 80.3408L267.806 79.8836C266.954 78.4079 265.47 77.5184 263.662 78.5624C262.02 79.5104 261.753 81.1608 262.749 82.8859C263.757 84.6318 265.345 85.1978 267.018 84.2318ZM264.347 79.6772C264.96 79.3232 265.519 79.5961 265.903 80.2612L265.957 80.3547L264.045 81.4587L263.997 81.3756C263.607 80.7001 263.734 80.0312 264.347 79.6772ZM273.332 80.42L272.642 79.2249L271.645 79.8009L269.875 76.7351L270.956 76.1111L270.266 74.916L269.185 75.54L268.333 74.0643L266.951 74.8623L267.467 75.756C267.683 76.1302 267.678 76.41 267.262 76.65L266.878 76.872L267.568 78.0671L268.337 77.6231L269.879 80.2939C270.479 81.3332 271.358 81.56 272.418 80.948L273.332 80.42Z" fill="white"/>
</g>
</g>
<defs>
<radialGradient id="paint0_radial" cx="0" cy="0" r="1" gradientUnits="userSpaceOnUse" gradientTransform="translate(53.0684 82.8057) rotate(90) scale(312.5 166.641)">
<stop stop-color="#FFDD64"/>
<stop offset="1" stop-color="#F0B90B" stop-opacity="0"/>
</radialGradient>
<radialGradient id="paint1_radial" cx="0" cy="0" r="1" gradientUnits="userSpaceOnUse" gradientTransform="translate(114.068 82.8057) rotate(90) scale(312.5 166.641)">
<stop stop-color="#949494"/>
<stop offset="1" stop-color="#949494" stop-opacity="0"/>
</radialGradient>
<radialGradient id="paint2_radial" cx="0" cy="0" r="1" gradientUnits="userSpaceOnUse" gradientTransform="translate(175.068 82.8057) rotate(90) scale(102 54.3915)">
<stop stop-color="#1954AF"/>
<stop offset="1" stop-color="#1954AF" stop-opacity="0.5"/>
</radialGradient>
<radialGradient id="paint3_radial" cx="0" cy="0" r="1" gradientUnits="userSpaceOnUse" gradientTransform="translate(175.072 82.8057) rotate(90) scale(312.5 166.641)">
<stop stop-color="#2360BD"/>
<stop offset="1" stop-color="#2360BD" stop-opacity="0"/>
</radialGradient>
<radialGradient id="paint4_radial" cx="0" cy="0" r="1" gradientUnits="userSpaceOnUse" gradientTransform="translate(236.607 82.8057) rotate(90) scale(312.5 166.641)">
<stop stop-color="#FFBE6F"/>
<stop offset="1" stop-color="#FFBE6F" stop-opacity="0"/>
</radialGradient>
<radialGradient id="paint5_radial" cx="0" cy="0" r="1" gradientUnits="userSpaceOnUse" gradientTransform="translate(296.686 83.2021) rotate(90) scale(312.5 166.641)">
<stop stop-color="#D53A30"/>
<stop offset="1" stop-color="#D53A30" stop-opacity="0"/>
</radialGradient>
<clipPath id="clip0">
<rect width="936" height="200" fill="white"/>
</clipPath>
<clipPath id="clip1">
<rect width="936" height="200" rx="8" fill="white"/>
</clipPath>
<clipPath id="clip2">
<rect x="-56" y="95.8887" width="133.778" height="86" rx="8" transform="rotate(-30 -56 95.8887)" fill="white"/>
</clipPath>
<clipPath id="clip3">
<rect x="-70.3984" y="70.9521" width="134" height="144" rx="8" transform="rotate(-30 -70.3984 70.9521)" fill="white"/>
</clipPath>
<clipPath id="clip4">
<rect width="134" height="144" fill="white" transform="translate(-70.3984 70.9521) rotate(-30)"/>
</clipPath>
<clipPath id="clip5">
<rect x="5" y="95.8887" width="133.778" height="86" rx="8" transform="rotate(-30 5 95.8887)" fill="white"/>
</clipPath>
<clipPath id="clip6">
<rect x="-9.39844" y="70.9521" width="134" height="144" rx="8" transform="rotate(-30 -9.39844 70.9521)" fill="white"/>
</clipPath>
<clipPath id="clip7">
<rect width="134" height="144" fill="white" transform="translate(-9.39844 70.9521) rotate(-30)"/>
</clipPath>
<clipPath id="clip8">
<rect x="66" y="95.8887" width="133.778" height="86" rx="8" transform="rotate(-30 66 95.8887)" fill="white"/>
</clipPath>
<clipPath id="clip9">
<rect x="51.6016" y="70.9521" width="134" height="144" rx="8" transform="rotate(-30 51.6016 70.9521)" fill="white"/>
</clipPath>
<clipPath id="clip10">
<rect width="134" height="144" fill="white" transform="translate(51.6016 70.9521) rotate(-30)"/>
</clipPath>
<clipPath id="clip11">
<rect width="119" height="144" fill="white" transform="translate(64.5938 63.4521) rotate(-30)"/>
</clipPath>
<clipPath id="clip12">
<rect x="127.539" y="95.8887" width="133.778" height="86" rx="8" transform="rotate(-30 127.539 95.8887)" fill="white"/>
</clipPath>
<clipPath id="clip13">
<rect x="113.141" y="70.9521" width="134" height="144" rx="8" transform="rotate(-30 113.141 70.9521)" fill="white"/>
</clipPath>
<clipPath id="clip14">
<rect width="134" height="144" fill="white" transform="translate(113.141 70.9521) rotate(-30)"/>
</clipPath>
<clipPath id="clip15">
<rect x="188.539" y="95.8887" width="133.3" height="86" rx="8" transform="rotate(-30 188.539 95.8887)" fill="white"/>
</clipPath>
<clipPath id="clip16">
<rect x="174.082" y="70.8486" width="133" height="144" rx="8" transform="rotate(-30 174.082 70.8486)" fill="white"/>
</clipPath>
<clipPath id="clip17">
<rect width="133" height="144" fill="white" transform="translate(174.082 70.8486) rotate(-30)"/>
</clipPath>
</defs>
</svg>
