<svg xmlns="http://www.w3.org/2000/svg" width="20" height="20"><g fill="none" fill-rule="evenodd"><circle cx="10" cy="10" r="10" fill="#FFF"/><path fill="#F44336" fill-rule="nonzero" d="M14.616 2.2h4.3A11.942 11.942 0 0 0 12.693.021h-.37c1.089.136 1.588.94 2.293 2.177zm1.112 4.353h6.958a11.971 11.971 0 0 0-1.424-2.177h-6.078c.214.677.396 1.407.544 2.177zm8.206 4.355c-.065-.748-.2-1.475-.397-2.177h-7.428c.075.713.124 1.442.148 2.177h7.677zm-.414 4.355a11.87 11.87 0 0 0 .41-2.177h-7.49a30.539 30.539 0 0 1-.152 2.177h7.23zm-8.147 4.354h5.838a11.982 11.982 0 0 0 1.443-2.177h-6.73c-.15.77-.333 1.501-.55 2.177zm-3.381 4.353c2.542 0 4.898-.806 6.838-2.175h-4.34c-.77 1.347-1.279 2.175-2.498 2.175z"/><path fill="#F44336" fill-rule="nonzero" d="M5.068 2.2h9.945C14.308.961 13.412.157 12.323.021h-1.032a11.94 11.94 0 0 0-6.223 2.177zM2.721 4.376a11.98 11.98 0 0 0-1.423 2.177h15.178a19.18 19.18 0 0 0-.543-2.177H2.721zM.05 10.908h16.89a30.675 30.675 0 0 0-.148-2.177H.447a11.86 11.86 0 0 0-.397 2.177zm.415 4.355h16.322c.076-.713.127-1.442.153-2.177H.054c.07.748.21 1.475.41 2.177zm.865 2.177c.402.779.885 1.51 1.442 2.177h13.142c.217-.676.4-1.407.55-2.177H1.33zm10.154 6.519l.073.002c.144.006.29.009.435.009 1.22 0 2.214-.828 2.984-2.175H5.154a11.812 11.812 0 0 0 6.33 2.164z"/><path fill="#283991" fill-rule="nonzero" d="M11.744.006C5.599.131.59 4.876.05 10.911h11.693V.006z"/><path fill="#EFEFEF" fill-rule="nonzero" d="M2.4 6.78l.182.561h.592l-.479.347.183.562-.479-.347-.478.347.183-.562-.48-.347h.593zm0 1.983l.182.562h.592l-.479.347.183.562-.479-.348-.478.348.183-.562-.48-.347h.593zm1.987-4.959l.183.562h.592l-.479.347.183.562-.479-.347-.478.347.182-.562-.479-.347h.592zm0 1.984l.183.562h.592l-.479.346.183.562-.479-.347-.478.347.182-.562-.479-.346h.592zm0 1.984l.183.561h.592l-.479.347.183.562-.479-.347-.478.347.182-.562-.479-.347h.592zM.89 9.242L.707 8.68l.48-.347H.594l-.014-.04c-.065.2-.123.403-.177.608l.008-.006.478.347zm1.031-2.975l.478-.348.48.348-.184-.562.479-.347h-.592L2.4 4.796l-.182.562h-.219c-.04.06-.08.122-.119.185l.225.162-.183.562zm2.466-3.323l.479.347-.183-.561.478-.348H4.82c-.29.217-.57.446-.84.688l-.072.221.48-.347zM5.896 2.3l.479-.348.478.348-.182-.562.478-.347h-.591l-.025-.076c-.2.102-.4.209-.593.322l.139.1-.183.563zm.479.513l.183.561h.591l-.478.347.182.562-.478-.347-.479.347.183-.562-.479-.347h.592zm0 1.983l.183.562h.591l-.478.347.182.562-.478-.348-.479.348.183-.562-.479-.347h.592zm0 1.984l.183.561h.591l-.478.347.182.562-.478-.347-.479.347.183-.562-.479-.347h.592zm0 1.983l.183.562h.591l-.478.347.182.562-.478-.348-.479.348.183-.562-.479-.347h.592zM8.363 1.82l.182.562h.592l-.478.348.182.561-.478-.347-.48.347.184-.561-.48-.348h.593zm0 1.984l.182.562h.592l-.478.347.182.562-.478-.347-.48.347.184-.562-.48-.347h.593zm0 1.984l.182.562h.592l-.478.346.182.562-.478-.347-.48.347.184-.562-.48-.346h.593zm0 1.984l.182.561h.592l-.478.347.182.562-.478-.347-.48.347.184-.562-.48-.347h.593zM10.35.83l.183.56h.592l-.479.348.183.562-.479-.348-.478.348.183-.562-.48-.347h.592zm0 1.983l.183.561h.592l-.479.347.183.562-.479-.347-.478.347.183-.562-.48-.347h.592zm0 1.983l.183.562h.592l-.479.347.183.562-.479-.348-.478.348.183-.562-.48-.347h.592zm0 1.984l.183.561h.592l-.479.347.183.562-.479-.347-.478.347.183-.562-.48-.347h.592zm0 1.983l.183.562h.592l-.479.347.183.562-.479-.348-.478.348.183-.562-.48-.347h.592z"/></g></svg>