<svg xmlns="http://www.w3.org/2000/svg" width="32" height="32" viewBox="0 0 32 32"><g fill="none"><rect width="32" height="32" fill="#00BFA5" rx="3"/><path fill="#FFF" d="M23.28 8.815l-3 3.905-1.77-2.315 1.225-1.59h3.545zm2.29-1.5h-6.38a.375.375 0 0 0-.285.14l-2.27 2.95 3.655 4.785 5.58-7.29a.36.36 0 0 0-.285-.585h-.015zm-5.105 12.11l2.87 3.755h-3.5l-1.115-1.45 1.76-2.305h-.015zm.015-2.465l-3.655 4.775L19 24.54c.067.09.173.142.285.14h6.35a.36.36 0 0 0 .29-.58l-5.46-7.14h.015zM13.1 7.615a.36.36 0 0 0-.285-.14h-6.45a.36.36 0 0 0-.29.58l6.165 8-6.165 8a.365.365 0 0 0 .29.585h6.45a.365.365 0 0 0 .285-.145l6.47-8.41-6.47-8.47z"/></g></svg>