<svg xmlns="http://www.w3.org/2000/svg" viewBox="0 0 106.705 137.144"><defs><style>.a{fill:#f2f2f3;}.b,.e{fill:#2a3052;}.c{fill:#fff;font-size:11px;}.c,.e{font-family:Roboto-Medium, Roboto;font-weight:500;}.d{fill:#dfdede;}.e{font-size:12px;}</style></defs><g transform="translate(-598.558 -1230.95)"><g transform="translate(598.558 1230.95)"><path class="a" d="M13.013,106.861.6,23.415,105.938.6,90.223,106.861Z" transform="translate(0.083 0.156)"/><path class="b" d="M105.338,1.639,89.851,106.387h-76.3L1.253,24.076,105.338,1.639M106.7,0,0,23.067l12.641,84.454H90.875L106.7,0Z"/></g><g transform="translate(606.188 1338.598)"><rect class="b" width="78.235" height="21.681" transform="translate(5.011)"/><rect class="b" width="88.256" height="7.815" transform="translate(0 21.681)"/></g><text class="c" transform="translate(650.642 1354.362)"><tspan x="-12.504" y="0">2012</tspan></text><g transform="translate(609.718 1315.152)"><path class="d" d="M9.8,72.85,91.793,66.8l-3.53,23.446H12.419Z" transform="translate(-9.8 -66.8)"/></g><text class="e" transform="translate(619.056 1261.808)"><tspan x="19.82" y="13">BEST </tspan><tspan x="0.226" y="29">FIXED-ODDS </tspan><tspan x="19.952" y="45">FIRM</tspan></text></g></svg>