<svg xmlns="http://www.w3.org/2000/svg" xmlns:xlink="http://www.w3.org/1999/xlink" width="40" height="40"><defs><path id="a" d="M0 9.342h36.875V.016H0z"/></defs><g transform="translate(1.563 15.643)" fill="none" fill-rule="evenodd"><path fill="#FFF" d="M4.628 2.523c-1.168-.19-1.487.36-1.487.36v-.32H2.134v4.234h1.007V3.755a1.074 1.074 0 0 1 1.032-.443c.754.09.734 1.02.734 1.02v2.465h1.054V3.97s-.165-1.258-1.333-1.448m5.117.25v.91s-.64-.51-1.344-.455c-.245.019-.601.144-.667.413-.093.379.347.538.646.591.797.14 1.241.47 1.365.7.124.229.507 1.068-.248 1.658-.755.59-2.036.208-2.036.208l-.704-.248v-.88s.559.32.92.4c.362.08 1.076.19 1.2-.38.124-.568-.918-.708-.92-.709-.535-.072-1.103-.406-1.15-.973-.041-.516.187-1.09.67-1.342.097-.05.2-.09.304-.122.95-.3 1.964.23 1.964.23m1.21.629c.03 0 0 3.426 0 3.426s1.075-.01 1.085 0c.01.01 0-3.436 0-3.436h.982v-.84h-.982V1.493l-1.085.09v.97h-.507s-.114.799-.114.849h.62zm4.3 1.49c-.21.045-.425.129-.57.288-.283.314-.182.857.31.866.718.014.89-.264.89-.264V4.81c0-.026-.583.071-.63.082m.774-2.332c1.02.32.92 1.459.92 1.459v2.81h-1.063v-.31c0 .172-.91.322-1.047.327-.594.025-1.146-.203-1.355-.76-.181-.482-.107-1.058.332-1.387.762-.57 2.07-.611 2.07-.611.014-.708-.446-.708-.892-.722-.445-.014-1.106.347-1.106.347l-.072-.861s1.193-.611 2.213-.292"/><path fill="#C32126" d="M27.87 4.574h-1.163s-.877.041-.647.75c.15.46.794.492 1.195.383.48-.13.773-.675.615-1.133m-.086-3.083c1.854.347 1.667 1.722 1.667 1.722v3.635H28v-.594c-.606.832-1.98.888-2.787.3-.461-.335-.797-.892-.763-1.461.032-.524.243-.95.713-1.222.84-.488 1.859-.353 2.795-.353-.016-.534-.26-.827-.815-.842-.325-.01-.677.013-.997.117-.075.024-.791.32-.76.364l-.662-.958s1.207-1.055 3.061-.708m1.853.062h1.61l1.365 3.257 1.35-3.257h2.912l-1.647.868-.896 2.198c-.372.912-.768 2.1-1.126 3.016-.279.716-.513 1.497-1.412 1.653-1.121.195-1.552-.18-2.07-.541l.661-1.06s.403.445.949.333c.68-.138.273-1.64.273-1.64l-1.969-4.827z"/><mask id="b" fill="#fff"><use xlink:href="#a"/></mask><path fill="#FFF" d="M0 6.796h1.048V2.563H0zm0-4.942h1.048V.842H0z" mask="url(#b)"/><path fill="#C32126" d="M22.992 2.543v-.648h-4.41v-.042h4.454v.618l1.489-.829-1.488-.765.016.568h-4.466v-.041h4.422l-.018-.598 1.623.834z" mask="url(#b)"/><path fill="#C32126" d="m23.031 1.425-.017-.583 1.13.58a1.73 1.73 0 0 0-.254-.473C23.079-.1 21.945.02 20.744.02h-2.849c-.011 0-.136.01-.141 0l.833 1.405h4.444zm-.017 1.082v-.633h-4.427v1.162l.313-.174.492-.274-.007.57h4.85s.136-.66.014-1.339l-1.235.688z" mask="url(#b)"/><path fill="#273476" d="m19.414 4.012-1.365-.701 1.364-.759v.604h-.043v-.532l-1.231.686 1.23.631-.014-.471h4.762l-.025.042H19.4z" mask="url(#b)"/><path fill="#FFF" d="m19.378 3.49.014.487-.834-.429v3.3h1.61V4.92s1.035.125 2.4-.194c1.091-.256 1.438-.963 1.533-1.236h-4.723z" mask="url(#b)"/><path fill="#C32126" d="M19.434 3.126h4.467v-.021h-4.467z" mask="url(#b)"/></g></svg>