<svg width="116" height="38" fill="none" xmlns="http://www.w3.org/2000/svg"><path d="M63.776 37.674c-1.445-.417-2.27-1.308-2.712-2.932-.258-.949-.266-4.631-.013-5.63.622-2.446 2.047-3.45 4.7-3.31 1.834.095 2.934.914 3.46 2.576.197.624.375 2.09.376 3.084v.74h-2.909c-2.556 0-2.88-.018-2.933.124-.117.303.104 2.273.316 2.688.323.632.583.718 1.179.806.74.11 1.506-.862 1.544-2.086l2.635.017c0 .64-.372 1.938-.756 2.514-.435.65-.915 1.034-1.625 1.297-.608.225-2.627.295-3.262.112Zm2.999-7.797c-.152-1.468-.502-2.044-1.296-2.134-.63-.07-1.144.19-1.414.72-.239.468-.457 1.901-.304 1.996l3.074-.001-.06-.581Zm6.736 7.864a10.79 10.79 0 0 1-.813-.257c-1.286-.451-1.87-1.279-1.964-2.784l-.054-.868h2.553l.068.542c.037.298.158.69.269.873.356.585 1.221.783 2.023.462.542-.217.763-.575.764-1.241.002-.815-.266-1.026-2.22-1.752-2.182-.81-2.822-1.29-3.185-2.383-.232-.698-.158-2.103.14-2.68.317-.612 1.13-1.295 1.88-1.58.557-.21.817-.243 1.967-.243 1.716 0 2.32.18 3.073.914.595.58.851 1.231.851 2.163v.542h-2.507l-.123-.594c-.157-.762-.447-1.05-1.12-1.114-.987-.095-1.642.513-1.521 1.412.098.733.346.9 2.35 1.585 1.905.65 2.5 1.06 2.94 2.025.323.71.326 2.218.005 2.927-.645 1.425-2.035 2.13-4.148 2.106-.563-.007-1.115-.032-1.228-.055Zm9.944-.008c-1.414-.265-2.51-1.346-2.931-2.892-.264-.966-.26-4.952.005-5.895.624-2.219 1.927-3.17 4.337-3.166 2.11.003 3.403.967 3.873 2.885.107.437.31 2.525.316 3.256l.002.28h-5.912v.637c.002 1.474.362 2.56.956 2.88.494.266 1.15.16 1.51-.244.263-.293.647-1.343.647-1.74l2.535-.035c.135.119.032.504-.086 1.064-.333 1.57-1.184 2.533-2.55 2.887-.572.148-2.104.195-2.702.083Zm2.768-7.68c-.094-1.66-.534-2.338-1.519-2.337-.855 0-1.4.729-1.522 2.032l-.066.714 1.467.03c.807.017 1.512.027 1.566.021.055-.005.088-.212.074-.46Zm24.072 7.649c-1.281-.254-2.323-1.263-2.731-2.647-.417-1.413-.396-5.029.038-6.423.392-1.258 1.17-2.148 2.236-2.558.878-.337 2.524-.389 3.45-.107.913.277 1.55.777 1.952 1.532.466.874.629 1.633.698 3.25L116 32.2h-5.867l.047 1.147c.069 1.69.447 2.395 1.333 2.495.843.095 1.356-.415 1.61-1.6l.11-.513h2.532l-.001.383c-.004 1.292-.815 2.71-1.861 3.25-.797.412-2.451.568-3.608.339Zm2.853-8.127c-.136-1.03-.357-1.49-.82-1.71-.447-.212-1.169-.154-1.471.12-.384.347-.627.97-.677 1.741l-.048.736 3.026-.017c.059-.046.055-.381-.01-.87Zm-63.745-7.272 3.492.03c3.362.03 3.512.04 4.066.264a3.379 3.379 0 0 1 1.766 1.617c.257.522.3.739.34 1.726.05 1.246-.1 1.996-.535 2.684-.326.517-.881.983-1.347 1.132-.6.192-.606.27-.032.407.307.074.677.257.88.436.71.622.896 1.32 1.002 3.743.086 1.955.194 2.622.475 2.92l.224.24h-3.308l-.157-.378c-.113-.27-.183-.976-.244-2.472-.047-1.152-.136-2.255-.196-2.45-.268-.87-.786-1.122-2.294-1.122H52.46v6.422h-3.058V22.303Zm5.291 6.537c.538-.154 1.012-.529 1.171-.924.386-.96.276-2.192-.247-2.788-.37-.422-.894-.58-2.16-.649l-.997-.055v4.515h.944c.519 0 1.099-.044 1.29-.099Zm35.91-2.78 2.804-.015.032 1.617.356-.527c.602-.895 1.382-1.356 2.292-1.356h.513v2.73l-.79.04c-.941.045-1.457.27-1.905.833l-.313.391-.06 7.729h-2.947c0-3.808.018-7.634.018-11.441Zm9.65 11.42-.777-2.93c-.416-1.567-.834-3.23-.938-3.623-.459-1.732-1.243-4.775-1.243-4.833l3.025-.008.806 4.077c.444 2.242.834 4.077.867 4.077.053 0 .376-1.626 1.326-6.677l.269-1.427 2.897-.003c-.029.1-.668 2.625-1.374 5.456-.706 2.832-1.329 5.32-1.385 5.53l-.101.383-3.372-.022Zm-1.513-20.238h.651c.988 0 1.432-.355 1.628-1.3.046-.223-.373-1.857-1.552-6.049C98.271 5.636 97.88 4.1 97.984 4.1l2.839.004c.083 0 .724 3.102 1.391 6.282.331 1.578.365 1.703.442 1.623.022-.024.369-1.785.771-3.914.401-2.13.79-3.95.819-3.98h2.707c.051.133-.164 1.113-1.177 4.997-.161.617-.552 2.13-.87 3.364-1.008 3.919-1.285 4.777-1.802 5.585-.626.98-1.454 1.293-3.42 1.295h-.943v-2.114Zm-29.563-1.44c-.547-.18-.914-.436-1.365-.951l-.469-.537v1.271h-2.752l.033-15.23L67.5.352l.028 4.734c.046 0 .218-.143.382-.318.614-.65 1.037-.839 1.994-.886.792-.04.94-.016 1.506.238.946.425 1.442 1.1 1.793 2.444.396 1.512.445 4.347.107 6.116-.275 1.436-.927 2.464-1.846 2.909-.494.24-1.83.364-2.287.213Zm.615-2.324c.597-.353.813-1.338.81-3.703 0-1.708-.169-2.827-.49-3.262-.103-.14-.379-.323-.612-.405-.373-.132-.476-.132-.854 0-.854.297-1.131 1.202-1.14 3.718-.007 2.286.241 3.332.876 3.684.334.186 1.07.169 1.41-.032Zm8.053 2.25c-.763-.205-1.32-.552-1.869-1.162-.782-.87-1.084-2.146-1.087-4.588-.003-3.657.876-5.41 2.995-5.975.811-.216 2.356-.18 3.177.073.57.176.792.314 1.268.79.88.88 1.135 1.72 1.282 4.22l.07 1.198h-5.97l.057.943c.076 1.258.234 1.825.635 2.29.302.35.382.386.834.386.314 0 .607-.07.786-.187.32-.209.67-.917.75-1.51l.071-.465h2.582c.134.118-.005.546-.123 1.105-.352 1.659-1.316 2.649-2.857 2.934-.818.15-1.927.129-2.6-.053ZM80.8 8.046c0-.89-.197-1.548-.576-1.927-.331-.331-.37-.343-.97-.3-.543.04-.662.087-.91.363-.322.362-.47.814-.564 1.731l-.066.637H80.8v-.504Zm13.66 7.545c-.57-.173-.925-.438-1.146-.85-.226-.424-.23-.498-.261-4.534l-.031-4.103h-1.518V4.102l1.478.015.001-3.295h2.935l.02 3.284 1.682-.014v2.013h-1.733V9.42c0 3.626.041 3.928.563 4.126.401.114.775.083 1.188.083l.018 2.11c-2.136.028-2.58.105-3.197-.148ZM49.606.345h3.007l.053 12.794h5.4v2.446h-8.46V.345Zm9.935 15.24.004-11.468H62.4l.053 11.468h-2.911Zm25.71-11.453 2.735-.015.01 1.656.323-.5c.307-.474.971-1.086 1.408-1.268.188-.079.596-.143.906-.143h.564V6.59l-.841.046c-1.185.064-1.893.497-2.114 1.292-.06.216-.102 1.881-.103 4.014v3.644h-2.888c.027-3.818-.029-7.636 0-11.453ZM59.494.192h2.956V2.64h-2.956V.192ZM13.44.565l13.364 13.701-.012 10.387-13.36-13.786L.382 25.039l.106-11.198L13.44.565ZM30.223 14.65 43.218.902l.105 10.438L29.94 24.675l.284-10.026Z" fill="#393E42"/><path d="m4.378 24.77 9.404-8.719 8.75 8.679-18.154.04Z" fill="#DA251C"/><path d="m34.438 24.888 8.923-8.525-.192 8.467-8.73.058ZM.042 27.703c14.623-.007 29.246-.028 43.865.01.093 3.227.035 6.457.031 9.687-14.638.017-29.28.052-43.92-.021 0-3.227-.054-6.453.024-9.676Z" fill="#393E42"/></svg>
