<svg xmlns="http://www.w3.org/2000/svg" width="40" height="40"><g fill="none"><path fill="#FFF" d="M11.996 29.63v-1.327c0-.498-.29-.828-.786-.833a.785.785 0 0 0-.72.375.746.746 0 0 0-.676-.375.688.688 0 0 0-.615.31v-.257h-.41v2.106h.423v-1.197a.501.501 0 0 1 .517-.56c.294 0 .462.2.462.556v1.212h.423v-1.208a.503.503 0 0 1 .517-.559c.305 0 .466.199.466.555v1.212l.399-.01zm6.663-2.107h-.744v-.635h-.423v.635h-.424v.384h.424v.996c0 .487.167.78.692.78.198 0 .391-.057.558-.164l-.13-.375a.78.78 0 0 1-.392.119c-.212 0-.313-.14-.313-.352v-1.004h.743l.009-.384zm3.794-.053a.624.624 0 0 0-.546.31v-.257h-.424v2.106h.424v-1.186c0-.348.16-.572.453-.572a.681.681 0 0 1 .278.053l.137-.396a.908.908 0 0 0-.322-.058zm-5.735.212a1.489 1.489 0 0 0-.835-.212c-.516 0-.832.252-.832.67 0 .343.23.55.688.616l.212.032c.246.034.377.123.377.242 0 .163-.18.269-.483.269a1.053 1.053 0 0 1-.68-.212l-.212.33c.26.183.57.279.886.274.591 0 .915-.282.915-.685 0-.368-.248-.559-.697-.635l-.212-.03c-.192-.027-.364-.089-.364-.229s.163-.26.407-.26c.224.004.442.066.635.18l.195-.35zm6.201.886a1.039 1.039 0 0 0 1.075 1.106c.268.012.53-.078.735-.252l-.212-.33a.878.878 0 0 1-.534.19.719.719 0 0 1 0-1.428.876.876 0 0 1 .534.188l.212-.328a1.107 1.107 0 0 0-1.81.847v.007zm-2.872-1.106c-.6 0-1.011.445-1.011 1.102 0 .656.424 1.11 1.04 1.11.31.012.613-.094.848-.297l-.212-.311a.961.961 0 0 1-.593.212.607.607 0 0 1-.636-.547h1.528v-.176c-.007-.64-.392-1.085-.964-1.085v-.008zm0 .392a.527.527 0 0 1 .538.533h-1.113a.553.553 0 0 1 .566-.525l.009-.008zm-5.536.714v-1.06h-.42v.257a.796.796 0 0 0-.659-.295c-.572 0-1.008.462-1.008 1.106 0 .644.436 1.106 1.008 1.106a.79.79 0 0 0 .663-.31v.257h.411l.005-1.061zm-1.655 0a.653.653 0 0 1 .636-.714c.375 0 .622.305.622.714s-.247.714-.622.714a.652.652 0 0 1-.645-.706l.009-.008zm15.782-1.106a.621.621 0 0 0-.555.31v-.257h-.407v2.106h.41v-1.187c0-.347.164-.572.454-.572a.716.716 0 0 1 .278.053l.138-.396a.931.931 0 0 0-.327-.049l.009-.008zm-1.572 1.106v-1.06h-.42v.257a.8.8 0 0 0-.663-.31c-.574 0-1.01.462-1.01 1.106 0 .645.436 1.106 1.01 1.106a.8.8 0 0 0 .663-.309v.256h.411l.009-1.046zm-1.657 0a.653.653 0 0 1 .635-.714c.378 0 .636.305.636.714s-.248.714-.636.714a.654.654 0 0 1-.644-.706l.009-.008zm5.784 0V26.66h-.411v1.102a.8.8 0 0 0-.663-.31c-.575 0-1.01.462-1.01 1.106 0 .644.435 1.106 1.01 1.106a.797.797 0 0 0 .663-.31v.257h.41v-1.044zm-1.657 0a.653.653 0 0 1 .636-.714c.377 0 .635.305.635.714s-.248.714-.635.714a.655.655 0 0 1-.638-.705l.002-.01z"/><path fill="#FF5F00" d="M16.267 11.649h7.425v12.127h-7.425z"/><path fill="#EB001B" d="M17.031 17.714a7.701 7.701 0 0 1 2.946-6.063 7.713 7.713 0 0 0-10.43 11.296 7.711 7.711 0 0 0 10.43.831 7.7 7.7 0 0 1-2.946-6.064z"/><path fill="#F79E1B" d="M32.455 17.714a7.711 7.711 0 0 1-12.478 6.062 7.712 7.712 0 0 0 0-12.127 7.711 7.711 0 0 1 12.478 6.063v.002z"/></g></svg>