<svg width="24" height="24" fill="none" xmlns="http://www.w3.org/2000/svg"><path d="M0 4a4 4 0 0 1 4-4h16a4 4 0 0 1 4 4v16a4 4 0 0 1-4 4H4a4 4 0 0 1-4-4V4Z" fill="#333"/><path fill-rule="evenodd" clip-rule="evenodd" d="M6 6.75v.75h-.75A2.25 2.25 0 0 0 3 9.75v6A2.25 2.25 0 0 0 5.25 18h10.5A2.25 2.25 0 0 0 18 15.75V15h.75A2.25 2.25 0 0 0 21 12.75v-6a2.25 2.25 0 0 0-2.25-2.25H8.25A2.25 2.25 0 0 0 6 6.75ZM8.25 6a.75.75 0 0 0-.75.75v.75h8.25A2.25 2.25 0 0 1 18 9.75v3.75h.75a.75.75 0 0 0 .75-.75v-6a.75.75 0 0 0-.75-.75H8.25Zm8.25 6.75v3a.75.75 0 0 1-.75.75H5.25a.75.75 0 0 1-.75-.75v-3h12Zm0-2.25v-.75a.75.75 0 0 0-.75-.75H5.25a.75.75 0 0 0-.75.75v.75h12Z" fill="#fff"/></svg>