<svg xmlns="http://www.w3.org/2000/svg" width="40" height="40"><g fill="none"><path fill="#FFF" d="m17.493 24.553-.026 1.839h-.259l.022-.876c0-.013.004-.053.013-.114l.013-.127a.961.961 0 0 1-.135.245l-.675.942-.219-.96a.999.999 0 0 1-.03-.223l-.036.119a.921.921 0 0 1-.052.127l-.394.867h-.259l.846-1.84.24 1.113c.005.017.01.048.014.088.004.039.013.091.022.153.03-.053.07-.114.122-.193.013-.022.026-.035.03-.048l.763-1.112zm-13.822 0 .832 1.077c.022.03.044.061.066.096.022.035.044.075.07.118l.294-1.221h.258l-.438 1.83-.85-1.099-.065-.092a.47.47 0 0 1-.053-.105l-.293 1.226h-.259l.438-1.83zm15.74 0 .832 1.077c.022.03.044.061.066.096.022.035.044.075.07.118l.293-1.221h.259l-.438 1.83-.85-1.099-.066-.092a.513.513 0 0 1-.052-.105l-.294 1.226h-.258l.438-1.83zm5.89 0 .832 1.077c.022.03.044.061.066.096.022.035.044.075.07.118l.294-1.221h.258l-.438 1.83-.85-1.099-.065-.092a.47.47 0 0 1-.053-.105l-.293 1.226h-.259l.438-1.83zm-23.167.07-.258 1.073c-.04.157-.031.28.022.359.052.079.148.118.293.118.14 0 .258-.04.35-.118a.677.677 0 0 0 .193-.36l.258-1.072h.28l-.262 1.099c-.057.236-.158.416-.307.534-.144.118-.337.18-.573.18-.237 0-.399-.057-.486-.175-.088-.119-.106-.298-.049-.535l.263-1.103h.276zm20.903-.04c.127 0 .228.026.302.075a.287.287 0 0 1 .127.214l-.245.114a.27.27 0 0 0-.083-.123.214.214 0 0 0-.131-.039.32.32 0 0 0-.193.061.276.276 0 0 0-.105.162c-.027.106.048.206.219.298.013.009.022.013.03.018.15.079.25.157.294.236.044.08.052.171.026.29a.7.7 0 0 1-.25.398.725.725 0 0 1-.45.149.496.496 0 0 1-.338-.105c-.087-.07-.127-.171-.122-.298l.25-.105c.004.079.025.14.074.18.048.039.113.06.201.06a.33.33 0 0 0 .333-.258c.026-.105-.035-.197-.184-.276-.022-.013-.035-.022-.048-.026-.167-.096-.272-.18-.316-.258a.381.381 0 0 1-.026-.28.608.608 0 0 1 .228-.351.658.658 0 0 1 .407-.136zm11.597-.004c.1 0 .193.013.28.044.083.03.162.074.232.135l-.074.294a.547.547 0 0 0-.215-.153.627.627 0 0 0-.267-.053.764.764 0 0 0-.503.184.87.87 0 0 0-.294.482c-.044.188-.026.346.061.473.084.122.215.184.39.184a.825.825 0 0 0 .302-.057c.101-.035.202-.092.307-.167l-.079.324a.958.958 0 0 1-.276.123c-.096.026-.192.04-.298.04a.892.892 0 0 1-.35-.066.626.626 0 0 1-.372-.495.881.881 0 0 1 .022-.368 1.204 1.204 0 0 1 .42-.661 1.102 1.102 0 0 1 .714-.263zm-25.458.044-.057.245H8.44l-.105.442h.68l-.062.25h-.679l-.136.57h.68l-.062.258h-.96l.421-1.765h.96zm-3.306 0-.42 1.765h-.281l.42-1.765h.28zm7.896-.07.394 1.835h-.293l-.088-.456h-.683l-.307.456h-.293l1.27-1.835zm19.09 0 .394 1.835h-.293l-.088-.456h-.683l-.307.456h-.293l1.27-1.835zm3.622.07-.057.245h-.679l-.105.442h.679l-.062.25h-.678l-.136.57h.679l-.062.258h-.959l.42-1.765h.96zm-28.66 0-.42 1.765h-.28l.42-1.765h.28zm17.063 0-.42 1.765h-.28l.42-1.765h.28zm-12.45 0c.126 0 .214.008.27.022a.288.288 0 0 1 .224.236.574.574 0 0 1-.009.228.738.738 0 0 1-.1.232.612.612 0 0 1-.167.166.604.604 0 0 1-.17.07 1.456 1.456 0 0 1-.28.022h-.163v-.004l-.188.793h-.263l.42-1.765h.425zm16.97 0-.057.245h-.68l-.104.442h.679l-.062.25h-.679l-.135.57h.678l-.06.258h-.964l.42-1.765h.964zm-10.327 0-.057.245h-.679l-.105.442h.679l-.062.25h-.678l-.136.57h.679l-.062.258h-.959l.42-1.765h.96zm-11.847 0-.057.245h-.678l-.105.438h.678l-.061.25h-.679l-.197.827h-.28l.42-1.76h.96zm2.65 0c.245 0 .416.013.508.039.092.026.17.066.232.127.079.079.131.18.153.298.022.122.013.263-.022.416a1.354 1.354 0 0 1-.175.416 1.02 1.02 0 0 1-.587.425c-.1.026-.254.04-.455.04l-.45-.001.42-1.76h.376zm4.822.004.219.6a.496.496 0 0 0 .017.061c.009.027.013.053.022.08l.053-.08c.017-.026.035-.048.052-.07l.513-.591h.28l-.82.95-.192.806h-.28l.193-.801-.35-.955h.293zm7.637-.009-.056.245h-.456l-.363 1.52h-.28l.363-1.52h-.456l.057-.245h1.191zm5.89 0-.056.245h-.456l-.363 1.52h-.28l.363-1.52h-.455l.057-.245h1.19zm1.88 0c.114 0 .201.009.258.022.061.013.11.04.145.075.043.043.07.096.083.166a.552.552 0 0 1-.009.223.644.644 0 0 1-.18.333.596.596 0 0 1-.328.145l.399.801h-.316l-.38-.788h-.031l-.189.788h-.263l.42-1.765h.39zm1.918.005-.057.245h-.679l-.105.438h.679l-.062.25h-.678l-.197.827h-.28l.42-1.76h.959zm-22.103.254h-.202l-.298 1.248h.237c.127 0 .228-.009.298-.026a.59.59 0 0 0 .188-.088.701.701 0 0 0 .197-.215.946.946 0 0 0 .118-.297.771.771 0 0 0 .022-.294.4.4 0 0 0-.096-.215.302.302 0 0 0-.153-.087 1.289 1.289 0 0 0-.311-.026zm3.727.214a.875.875 0 0 1-.057.11.94.94 0 0 1-.053.092l-.276.398h.478l-.08-.403a.585.585 0 0 1-.008-.087c-.004-.035-.004-.07-.004-.11zm19.085 0a.76.76 0 0 1-.057.11.944.944 0 0 1-.052.092l-.276.398h.477l-.079-.403a.585.585 0 0 1-.008-.087c-.005-.035-.005-.07-.005-.11zm-2.746-.228h-.052l-.118.509h.052c.15 0 .25-.018.307-.053.057-.035.096-.096.118-.188.022-.097.013-.167-.03-.206-.044-.04-.136-.062-.277-.062zm-17.684.005h-.07l-.123.49h.07c.154 0 .263-.017.325-.052.06-.035.1-.097.122-.184.022-.092.009-.162-.035-.197-.048-.04-.144-.057-.289-.057zm16.082-11.404c.28 0 .486.092.617.276.131.184.158.416.074.705l-1.068 3.862c-.075.272-.232.5-.469.684-.236.184-.49.276-.762.276h-8.64l-1.069 3.862h-1.923l1.595-5.759h1.922v.005h7.686l.56-2.02H17.3l.521-1.891zm-21.469 0-2.159 7.778h7.69l2.16-7.778h1.922l-2.505 9.017a.885.885 0 0 1-.85.648h-9.91c-.272 0-.473-.092-.604-.276-.132-.184-.162-.411-.084-.683l2.418-8.706h1.922zm25.756-.027-2.671 9.648h-1.923l2.671-9.648h1.923z"/><path fill="#00823E" d="m35.992 13.455 2.43 4.835-5.111 4.835z"/><path fill="#ED7610" d="m34.284 13.455 2.43 4.835-5.115 4.835z"/></g></svg>