<svg width="40" height="25" fill="none" xmlns="http://www.w3.org/2000/svg"><g opacity=".997" fill="#fff"><path d="M5.95 8.75a2.884 2.884 0 00-2.883 2.883 3.03 3.03 0 001.532 2.623v-1.084c-.012-.41-.007-.834-.003-1.121l.003-.25v-.104a3.217 3.217 0 012.86-1.673 2.57 2.57 0 011.003.218A2.887 2.887 0 005.95 8.75z"/><path d="M4.873 11.85a3.055 3.055 0 012.62-1.578 2.923 2.923 0 012.88 2.92 2.88 2.88 0 01-1.49 2.522c.14-.316.215-.657.218-1.003a3.214 3.214 0 00-1.672-2.86h-.06l-.213-.003a22.342 22.342 0 00-1.242.003h-1.04zM4.472 14.56l-.06-.027c-1.004-.769-1.576-1.511-1.59-2.826-.013-.324.02-.649.098-.963-.877.5-1.4 1.45-1.355 2.458a2.853 2.853 0 002.853 2.857 2.99 2.99 0 002.583-1.499H4.47z"/><path d="M7.298 12.148v1.077c.012.393.007.796.003 1.08a21.09 21.09 0 00-.003.258v.114a3.184 3.184 0 01-2.83 1.672 2.577 2.577 0 01-1.003-.214 2.854 2.854 0 005.352-1.381 2.98 2.98 0 00-1.519-2.606z"/><path fill-rule="evenodd" clip-rule="evenodd" d="M17.401 13.066a1.025 1.025 0 00-.578-.163c-.326 0-.604.133-.834.397-.23.265-.346.633-.346 1.104 0 .499.114.857.343 1.073.229.217.496.325.8.325.22 0 .395-.035.528-.105a.925.925 0 00.342-.321c.005.387-.025.656-.092.807-.112.256-.35.383-.712.383-.23 0-.397-.052-.505-.157a.5.5 0 01-.123-.231l-.013-.06h-.48c.024.288.14.5.346.636.207.136.461.204.765.204.544 0 .915-.191 1.111-.573.095-.186.147-.433.156-.741l.002-.105v-2.56h-.437v.355a1.294 1.294 0 00-.273-.268zm-1.174.723c.122-.312.35-.468.683-.468a.69.69 0 01.549.252c.144.169.215.427.215.776 0 .23-.038.433-.115.607-.139.306-.378.46-.717.46a.623.623 0 01-.52-.249c-.128-.165-.192-.407-.192-.724 0-.27.032-.488.097-.654zM38.353 13.066a1.025 1.025 0 00-.578-.163c-.326 0-.604.133-.834.397-.23.265-.346.633-.346 1.104 0 .499.114.857.343 1.073.228.217.495.325.8.325.219 0 .395-.035.528-.105a.927.927 0 00.342-.321c.005.387-.025.656-.092.807-.112.256-.35.383-.712.383-.23 0-.398-.052-.505-.157a.496.496 0 01-.123-.231l-.013-.06h-.481c.024.288.14.5.346.636.207.136.462.204.765.204.545 0 .916-.191 1.112-.573.094-.186.146-.433.156-.741l.002-.105v-2.56h-.437v.355a1.294 1.294 0 00-.273-.268zm-1.175.723c.123-.312.35-.468.684-.468a.69.69 0 01.549.252c.143.169.215.427.215.776 0 .23-.038.433-.115.607-.139.306-.378.46-.718.46a.623.623 0 01-.519-.249c-.128-.165-.193-.407-.193-.724 0-.27.032-.488.097-.654zM32.85 13.234a1.275 1.275 0 00-.92-.362c-.404 0-.727.14-.967.42-.24.28-.36.657-.36 1.13 0 .441.114.793.342 1.055.228.262.535.393.922.393.465 0 .807-.148 1.028-.444.22-.296.331-.67.331-1.125 0-.47-.125-.825-.376-1.067zm-1.563.382c.13-.221.341-.332.63-.332.326 0 .556.13.689.39.084.164.126.378.126.64 0 .29-.058.555-.175.793-.116.237-.331.356-.645.356-.285 0-.494-.1-.625-.3-.132-.2-.198-.449-.198-.749 0-.312.066-.578.198-.798zM20.733 13.074c-.207-.126-.475-.189-.806-.189-.286 0-.537.068-.753.204-.216.136-.33.377-.338.724h.442a.656.656 0 01.113-.329c.103-.133.278-.2.525-.2.214 0 .378.037.493.11.114.072.172.19.172.35 0 .08-.01.14-.032.182-.037.077-.11.122-.218.136l-.754.095a1.164 1.164 0 00-.641.265c-.163.144-.244.346-.244.607a.79.79 0 00.248.596.887.887 0 00.64.238c.217 0 .416-.047.596-.14.18-.093.32-.202.415-.328.016.112.043.199.082.26.073.116.192.174.355.174.066 0 .119-.003.157-.009a1.32 1.32 0 00.168-.039v-.35a1.066 1.066 0 01-.155.016c-.064 0-.107-.015-.127-.045a.208.208 0 01-.03-.118v-1.621c0-.267-.103-.463-.308-.589zm-.212 1.288l.047-.027v.381a.65.65 0 01-.394.629 1.077 1.077 0 01-.484.115.554.554 0 01-.355-.118.39.39 0 01-.15-.323c0-.18.073-.312.219-.395a.98.98 0 01.315-.097l.071-.01.287-.037c.087-.01.176-.028.267-.053a.92.92 0 00.177-.065z"/><path d="M28.275 14.822v-1.869h-.483v1.914c0 .24.039.431.118.575.145.268.418.402.82.402.257 0 .476-.074.657-.22a.928.928 0 00.19-.21l.038-.062-.005.416h.447v-2.815h-.473v1.383c0 .275-.032.49-.097.649-.12.294-.344.441-.673.441-.23 0-.386-.084-.47-.252a.725.725 0 01-.067-.283l-.002-.07zM14.473 15.035l-1.95-3.128h-.617v3.86h.499v-3.124l1.979 3.125h.586v-3.86h-.497v3.127zM23.994 13.308c-.14-.278-.41-.418-.809-.418-.182 0-.348.036-.497.108-.127.061-.25.157-.365.287l-.058.068v-.4h-.449v2.815h.473v-1.475c0-.183.012-.325.035-.424a.699.699 0 01.154-.288.711.711 0 01.342-.231.932.932 0 01.276-.034c.22 0 .373.087.457.263.043.09.069.204.075.343l.001.072v1.774h.481v-1.806c0-.284-.039-.502-.116-.654zM25.395 15.308v-3.4h-.523v3.86h2.478v-.46h-1.955zM35.967 13.308c-.14-.278-.41-.418-.81-.418-.182 0-.347.036-.496.108-.128.061-.25.157-.366.287l-.057.068v-.4h-.45v2.815h.473v-1.475c0-.183.012-.325.036-.424a.695.695 0 01.154-.288.711.711 0 01.341-.231.932.932 0 01.276-.034c.22 0 .373.087.457.263.044.09.069.204.075.343l.002.072v1.774h.48v-1.806c0-.284-.038-.502-.115-.654z"/></g></svg>