<svg width="40" height="25" fill="none" xmlns="http://www.w3.org/2000/svg"><path d="M12.524 21.368h-.303c-.06-.155-.054-.325-.105-.488h-.56l-.212.486h-.339l.852-1.858h.324l.343 1.86zm-.55-1.456c-.053.057-.28.612-.294.72h.405l-.111-.72zm-2.022.715-.107.738h-.32c.031-.307.083-.609.123-.912.04-.303.084-.611.126-.91.013-.01.018-.018.023-.018.205-.01.41-.022.613.016a.492.492 0 0 1 .415.411.559.559 0 0 1-.225.567.6.6 0 0 1-.343.108h-.305zm.034-.264c.124.013.24.02.351-.032a.28.28 0 0 0 .164-.306.255.255 0 0 0-.224-.227c-.066-.011-.135-.002-.21-.002l-.08.567zm3.585 1.003h-.312l.118-.851-.408-.986c.113-.022.215-.006.32-.011l.278.674c.098-.111.157-.232.233-.341.076-.11.146-.22.218-.328h.34c-.017.031-.028.056-.042.077-.184.274-.366.55-.554.82a.501.501 0 0 0-.084.232l-.088.66a.32.32 0 0 1-.019.054z" fill="#0074BB"/><path d="M16.124 21.366h-.347l-.183-.376a2.876 2.876 0 0 0-.143-.265c-.08-.126-.166-.154-.333-.126l-.11.77h-.325c.08-.617.17-1.228.256-1.844.042-.003.072-.008.102-.006.188.005.376.003.562.022.217.022.382.163.421.349.055.263-.026.478-.295.594l-.053.023c.056.094.112.18.16.272.083.16.162.322.243.484.015.029.026.06.045.103zm-.966-1.039c.085 0 .158.008.23-.002a.568.568 0 0 0 .185-.062c.09-.048.129-.13.125-.234-.002-.087-.034-.156-.114-.193a.608.608 0 0 0-.354-.036l-.072.527zm12.412-.81c.237.007.456-.017.673.02a.492.492 0 0 1 .327.794c-.056.068-.122.114-.282.182.102.088.147.208.205.322l.214.429c.015.03.028.062.046.102h-.34c-.013-.024-.031-.052-.046-.083l-.232-.466a.913.913 0 0 0-.064-.107c-.078-.112-.177-.145-.323-.107-.047.25-.063.51-.117.765h-.313c.01-.213.051-.415.08-.619l.083-.607.089-.625zm.218.81c.085 0 .155.007.223 0a.382.382 0 0 0 .25-.112c.116-.126.091-.355-.108-.403a.714.714 0 0 0-.293-.01l-.072.526zm-2.085-.805h1.067l-.038.267h-.74l-.072.497h.652c-.012.098-.02.178-.032.269-.217.02-.431-.002-.659.013l-.075.532h.929l-.037.267h-1.255l.26-1.845zm-8.722.002h1.057l-.039.266h-.74l-.072.497h.655l-.04.274h-.654l-.075.538H18l-.031.255c-.084.026-1.139.03-1.239.006-.026-.065.218-1.69.251-1.835zm4.289 1.355h-.56l-.214.49h-.342c.284-.628.567-1.241.853-1.861h.309c.044.09.352 1.767.339 1.86h-.295l-.09-.489zm-.164-.97-.293.723h.414a6.124 6.124 0 0 0-.121-.722zm8.147 1.331.047-.294c.094.046.175.093.261.126.097.037.197.067.305.033.18-.059.231-.225.102-.365-.056-.06-.127-.107-.19-.161-.087-.075-.18-.143-.259-.226a.493.493 0 0 1 .131-.76c.225-.13.458-.12.694-.035.032.012.062.027.104.044l-.045.29c-.036-.015-.062-.029-.09-.037-.088-.028-.176-.063-.268-.078-.138-.023-.268.054-.305.163-.023.065-.017.125.027.176.05.053.103.103.16.15.104.09.222.167.317.268a.508.508 0 0 1 .01.668.542.542 0 0 1-.361.188.944.944 0 0 1-.64-.15zm-10.628-1.716h1.433l-.042.27h-.548l-.223 1.573h-.329l.22-1.57h-.524c-.032-.1.016-.18.013-.273zm6.158 1.58c-.004.055-.005.09-.01.123-.007.044-.018.088-.026.13-.086.024-.998.025-1.103 0l.257-1.831h.325l-.114.786-.112.793.783-.001zm-2.066.266H22.4l.26-1.845h.308c.025.076-.216 1.704-.25 1.844z" fill="#468534"/><path d="M5.906 6.745c.046-.003.084-.006.12-.006.852 0 1.704-.007 2.555.002.455.005.908.049 1.344.2.77.265 1.205.822 1.391 1.594.05.22.071.447.06.672-.022.609-.176 1.18-.509 1.695a2.6 2.6 0 0 1-.832.79 3.05 3.05 0 0 1-1.284.426c-.27.028-.54.04-.811.037-.334-.002-.668 0-1.002 0h-.127l-.444 2.256c-.076.025-1.837.032-1.992.008l1.531-7.674zm1.118 3.953h.116c.334 0 .668 0 1-.002.196.003.39-.025.575-.085.357-.119.638-.33.806-.677.144-.296.2-.607.143-.93-.06-.344-.237-.611-.56-.769a1.591 1.591 0 0 0-.696-.146c-.242-.002-.48 0-.72 0-.03 0-.06.004-.102.007l-.562 2.602zm10.327-1.889-1.024 5.637h-1.604l.125-.6c-.148.105-.275.2-.406.29-.326.225-.68.38-1.077.415a1.694 1.694 0 0 1-1.239-.365c-.428-.34-.663-.796-.765-1.323a2.712 2.712 0 0 1-.058-.558c.011-.607.129-1.191.409-1.737.427-.832 1.089-1.392 1.966-1.704a4.174 4.174 0 0 1 1.23-.253c.38-.016.764-.027 1.145-.014.424.013.841.087 1.254.187a.33.33 0 0 1 .044.025zm-2.299 3.85c.026-.135.054-.274.08-.414l.387-2.148c.006-.036.006-.072.009-.114-.04-.005-.067-.01-.094-.01a3.49 3.49 0 0 0-.766.062c-.579.119-1.04.413-1.353.922-.189.305-.31.646-.353 1.002-.034.284-.024.562.088.828.12.284.355.488.7.478.15-.003.298-.029.44-.076.324-.111.597-.306.862-.53zm4.919 4.062h-1.785l1.519-2.787-1.923-5.171h1.724l1.086 3.113 1.511-3.112h1.787c-.02.093-3.81 7.788-3.919 7.957z" fill="#0074BB"/><path d="m25.801 8.754-1.865 5.664h1.91l.637-2.218h.041s1.056 2.287 3.24 2.406c0 0 2.645.46 4.539-1.638 1.894-2.098 2.321-7.268-2.61-8.89 0 0-2.18-.845-4.965.177a8.535 8.535 0 0 0-4.154 3.3c-.07.103-.14.213-.214.329h1.843s1.689-3.054 6.04-2.577c0 0 2.201-.085 3.395 2.423 1.195 2.508-.529 5.34-2.815 5.46 0 0-1.45.222-2.133-.99l2.253-1.945s.784-.563.563-2.013c-.22-1.45-1.894-1.757-2.372-1.723 0 0-1.962-.273-3.054 1.45l3.14-.017s.613-.068.716.546c.102.614-.392.904-.392.904l-3.003 2.526 1.091-3.156-1.831-.018z" fill="#8DB73C"/><path d="M35.457 7.849c-.396-1.575-1.531-3.036-3.764-3.77 0 0-2.18-.846-4.965.176a8.535 8.535 0 0 0-4.154 3.3c-.07.103-.14.213-.214.329h1.843s1.689-3.054 6.04-2.577c0 0 2.201-.085 3.395 2.423a3.96 3.96 0 0 1 .388 1.606c.051 1.94-1.343 3.689-3.096 3.846 1.338-.011 4.536-.488 4.64-4.758a5.476 5.476 0 0 0-.113-.575z" fill="url(#a)"/><defs><linearGradient id="a" x1="22.36" y1="8.466" x2="35.57" y2="8.466" gradientUnits="userSpaceOnUse"><stop stop-color="#8DB73C"/><stop offset=".08" stop-color="#81AF3B"/><stop offset=".3" stop-color="#669C37"/><stop offset=".53" stop-color="#538F35"/><stop offset=".76" stop-color="#488733"/><stop offset="1" stop-color="#448433"/></linearGradient></defs></svg>