<svg width="128" height="128" xmlns="http://www.w3.org/2000/svg"><g fill="none" fill-rule="evenodd"><path d="M0 0h128v128H0z"/><path d="M102.5 52.57H13.34a6 6 0 0 1-6-6V13.33a6 6 0 0 1 6-6h89.16a6 6 0 0 1 6 6v33.24a6 6 0 0 1-6 6" fill="#BCCDCE"/><path d="M97.84 45.14H17.99a6 6 0 0 1-6-6V20.1a6 6 0 0 1 6-6h79.85a6 6 0 0 1 6 6v19.04a6 6 0 0 1-6 6" fill="#F5F5F5"/><path d="M101.79 40.36H21.65a6 6 0 0 1-6-6v-9.49a6 6 0 0 1 6-6h80.14a6 6 0 0 1 6 6v9.49a6 6 0 0 1-6 6" fill="#BCCDCE"/><path d="M83.6 23.56s10.69 2.37 10.69 16.62v63.76a4.73 4.73 0 0 1-4.73 4.73H40.84a4.72 4.72 0 0 1-4.72-4.72V40.18s0-16.62-10.69-16.62H83.6z" fill="#E0F4F3"/><path d="M83.6 23.56s10.69 2.37 10.69 16.62v63.76a4.73 4.73 0 0 1-4.73 4.73H40.84a4.72 4.72 0 0 1-4.72-4.72V40.18s0-16.62-10.69-16.62H83.6z" stroke="#85ACB0" stroke-width="1.5"/><path d="M25.43 23.56h-1.94a1.562 1.562 0 0 0-.84.23 18.87 18.87 0 0 0-9 14.57 1.688 1.688 0 0 0 1.68 1.82h20.79s0-16.62-10.69-16.62" fill="#C7E5E5"/><path d="M25.43 23.56h-1.94a1.562 1.562 0 0 0-.84.23 18.87 18.87 0 0 0-9 14.57 1.688 1.688 0 0 0 1.68 1.82h20.79s0-16.62-10.69-16.62z" stroke="#85ACB0" stroke-width="1.5"/><path d="M18.06 14.1h79.85a6.29 6.29 0 0 1 6 6.51v18a6.291 6.291 0 0 1-6 6.51H95.6v-4.77h.4c3.3 0 3.91-2.93 3.91-6.52v-8.44a6.29 6.29 0 0 0-6-6.51H21.06c-3.3 0-5.42 2.93-5.42 6.51v8.46c0 3.59 2.12 6.52 5.42 6.52h14.45v4.77H18.06a6.29 6.29 0 0 1-6-6.51v-18a6.29 6.29 0 0 1 6-6.53" fill="#F5F5F5"/><path d="M75.116 46.981c0-4.849-4.03-8.78-9-8.78s-9 3.931-9 8.78l18 7.293c0 4.85-4.03 8.78-9 8.78s-9-3.93-9-8.78m9 8.781v2.195m0-29v1.951" stroke="#85ACB0" stroke-width="2" stroke-linecap="round" stroke-linejoin="round"/><path d="M85.116 50.25c0 10.493-8.507 19-19 19-10.494 0-19-8.507-19-19s8.506-19 19-19c10.493 0 19 8.507 19 19z" stroke="#85ACB0" stroke-width="2"/><path d="M122 99c0-12.702-10.298-23-23-23S76 86.298 76 99s10.298 23 23 23 23-10.298 23-23" fill="#FF444F"/><path d="M109 110.046a1.956 1.956 0 0 1-1.949 1.954H90.95a1.951 1.951 0 0 1-1.95-1.954h20zm-1.949-15.002c1.071.003 1.94.87 1.949 1.944v13.053H89V97.003a1.957 1.957 0 0 1 .569-1.385 1.946 1.946 0 0 1 1.38-.574h16.102zm-8.2 4.378a1.84 1.84 0 0 0-1.691 1.86c0 .723.425 1.378 1.083 1.674l-.977 3.893a.61.61 0 0 0 .587.761h2.288a.612.612 0 0 0 .593-.761l-.977-3.893a1.833 1.833 0 0 0 1.058-1.97 1.839 1.839 0 0 0-1.965-1.564zM99.204 86c4.269.003 7.73 3.47 7.735 7.75v1.279h-2.46v-1.28a5.27 5.27 0 0 0-1.538-3.746 5.242 5.242 0 0 0-3.737-1.542h-.137a5.242 5.242 0 0 0-3.724 1.55 5.27 5.27 0 0 0-1.53 3.739v1.289h-2.475v-1.29c.005-4.277 3.463-7.743 7.73-7.749h.136z" fill="#FFF" fill-rule="nonzero"/></g></svg>