<svg xmlns="http://www.w3.org/2000/svg" xmlns:xlink="http://www.w3.org/1999/xlink" width="40" height="40"><defs><path id="a" d="M0 15.86h36.836V0H0z"/></defs><g transform="translate(1.563 12.188)" fill="none" fill-rule="evenodd"><path fill="#D71635" d="M.916 0H15.05c.506 0 .916.406.916.907v14.046c0 .501-.41.907-.916.907H.916A.911.911 0 0 1 0 14.953V.907C0 .406.41 0 .916 0"/><path fill="#FFF" d="M6.49 2.944c-2.147.64-3.71 2.611-3.71 4.945 0 2.333 1.566 4.304 3.713 4.942l-.002-9.887zm1.504-.219c-.121 0-.242.004-.362.013v.53c.07-.005.144-.008.215-.008 1.793 0 3.246 1.437 3.247 3.21 0 1.761-1.431 3.192-3.206 3.213v3.365h.11c2.88 0 5.214-2.312 5.214-5.163-.001-2.85-2.337-5.161-5.218-5.16m12.122 2.878h1.155c.382 0 .653-.07.813-.211.16-.14.241-.339.241-.594a.788.788 0 0 0-.142-.475.66.66 0 0 0-.373-.261c-.1-.026-.283-.04-.552-.04h-1.142v1.58zm-.592 2.319V3.501h1.686c.296 0 .523.014.68.042.219.036.402.105.55.207.15.101.268.243.359.426.09.183.136.385.136.604 0 .376-.121.694-.363.954s-.679.39-1.31.39h-1.146v1.798h-.592zm4.453-1.602c0 .41.09.718.27.922.182.204.41.306.684.306a.869.869 0 0 0 .68-.308c.18-.205.27-.517.27-.937 0-.397-.09-.697-.272-.9a.87.87 0 0 0-.678-.307.876.876 0 0 0-.683.305c-.181.203-.271.51-.271.92m-.564 0c0-.593.166-1.033.5-1.318a1.515 1.515 0 0 1 1.018-.356c.444 0 .808.144 1.09.433.283.288.424.687.424 1.195 0 .413-.063.737-.187.973-.125.236-.307.42-.546.55a1.6 1.6 0 0 1-.781.196c-.454 0-.82-.143-1.1-.43-.278-.288-.418-.702-.418-1.243m3.456.645.542-.084a.74.74 0 0 0 .255.494c.139.115.333.172.583.172.252 0 .439-.05.56-.152a.452.452 0 0 0 .184-.358.33.33 0 0 0-.162-.29c-.075-.047-.262-.109-.56-.183-.403-.1-.682-.188-.837-.26A.825.825 0 0 1 27.08 6a.804.804 0 0 1-.12-.43.81.81 0 0 1 .1-.397.878.878 0 0 1 .269-.303c.085-.062.201-.115.349-.158.147-.044.305-.065.474-.065a1.9 1.9 0 0 1 .669.108c.191.073.333.17.425.295.091.123.154.289.189.496l-.537.072a.578.578 0 0 0-.212-.386c-.116-.093-.281-.139-.495-.139-.252 0-.432.041-.54.124-.107.082-.16.179-.16.29 0 .07.022.133.066.19a.487.487 0 0 0 .21.144c.056.02.217.067.485.139.388.102.659.186.812.252.154.065.274.16.361.285.088.124.131.28.131.464a.9.9 0 0 1-.16.511c-.106.16-.26.284-.461.371a1.688 1.688 0 0 1-.683.131c-.42 0-.74-.086-.961-.259-.22-.173-.361-.43-.422-.769m4.537.471.08.48a2.142 2.142 0 0 1-.415.047c-.2 0-.353-.03-.463-.093a.528.528 0 0 1-.232-.246c-.045-.102-.067-.315-.067-.64V5.141h-.402v-.423h.402v-.793l.546-.326v1.12h.551v.422h-.551v1.872c0 .155.01.255.029.299.019.044.05.08.094.105.044.027.106.04.187.04.062 0 .142-.007.241-.021m-11.315 5.475h1.113c.19 0 .324-.007.402-.02a.99.99 0 0 0 .341-.121.633.633 0 0 0 .225-.246.754.754 0 0 0 .089-.373.735.735 0 0 0-.128-.43.687.687 0 0 0-.355-.256c-.151-.049-.37-.073-.654-.073h-1.033v1.52zm0-2.041h.966c.262 0 .45-.017.564-.052a.624.624 0 0 0 .34-.22.627.627 0 0 0 .114-.386.705.705 0 0 0-.106-.387.546.546 0 0 0-.305-.23c-.132-.04-.36-.061-.68-.061h-.893v1.336zm-.591 2.563V9.012h1.676c.341 0 .615.045.821.134.207.09.368.227.485.413.117.186.175.38.175.584a1 1 0 0 1-.155.534c-.104.167-.26.301-.47.404.27.078.478.212.623.4.146.19.219.413.219.67 0 .208-.045.4-.133.578a1.122 1.122 0 0 1-.328.412c-.13.096-.293.169-.489.218-.196.05-.436.074-.72.074H19.5z"/><mask id="b" fill="#fff"><use xlink:href="#a"/></mask><path fill="#FFF" d="M23.62 13.433h.549V10.23h-.549v3.203zm0-3.797h.549v-.624h-.549v.624zm1.371 3.797h.549V9.012h-.549zm1.387 0h.549V9.012h-.549zm1.767 1.019h-.482v-3.897h.482v.33c.258-.243.566-.366.916-.366.382 0 .714.147.986.438.27.289.407.642.407 1.05 0 .407-.137.76-.407 1.048a1.31 1.31 0 0 1-.986.437c-.35 0-.658-.122-.916-.362v1.322zm.916-1.424a.89.89 0 0 0 .672-.299c.184-.2.277-.442.277-.723 0-.28-.093-.522-.277-.722a.886.886 0 0 0-.672-.299.89.89 0 0 0-.674.299c-.187.199-.28.439-.28.72v.002c0 .281.093.522.28.723.186.199.41.299.674.299zm3.041-2a.858.858 0 0 0-.647.289.991.991 0 0 0-.27.697c0 .27.091.504.27.695a.857.857 0 0 0 1.288 0c.18-.19.27-.425.27-.695a.98.98 0 0 0-.27-.697.843.843 0 0 0-.641-.29m0 2.472c-.385 0-.719-.146-.991-.436a1.493 1.493 0 0 1-.408-1.049c0-.407.137-.761.407-1.051.273-.29.607-.436.992-.436.347 0 .653.122.911.363v-.335h.482v2.915h-.482v-.332c-.258.24-.564.361-.911.361m3.39.959a1.24 1.24 0 0 1-.657-.195 1.435 1.435 0 0 1-.526-.512l-.019-.03.408-.27.02.034c.087.143.197.257.33.341a.891.891 0 0 0 .444.128.753.753 0 0 0 .583-.275.995.995 0 0 0 .271-.581 1.23 1.23 0 0 1-.854.354c-.369 0-.686-.147-.942-.437a1.45 1.45 0 0 1-.406-1.022v-1.438h.482v1.438c0 .253.09.479.27.672.173.188.374.284.596.286a.737.737 0 0 0 .59-.285.964.964 0 0 0 .271-.673v-1.438h.483v2.478l-.016.16c-.05.36-.208.662-.466.901a1.192 1.192 0 0 1-.862.364" mask="url(#b)"/></g></svg>