<svg xmlns="http://www.w3.org/2000/svg" xmlns:xlink="http://www.w3.org/1999/xlink" width="40" height="40"><defs><path id="a" d="M0 7.784h36.606V0H0z"/></defs><g transform="translate(1.563 16.25)" fill="none" fill-rule="evenodd"><path fill="#2C90E9" d="M9.483 5.138c-.13.135-.281.248-.447.335a1.09 1.09 0 0 1-.506.122c-.245 0-.428-.073-.55-.22-.122-.147-.184-.354-.184-.622V1.966h-1.04v2.787c0 .245.03.47.094.673.058.194.153.373.28.528.125.149.282.267.458.344.181.082.39.122.626.122.143 0 .277-.015.402-.045.24-.055.463-.163.656-.316.096-.076.188-.16.278-.25l.072.35c.042.128.13.193.265.193h.637V1.966H9.483v3.172z"/><mask id="b" fill="#fff"><use xlink:href="#a"/></mask><path fill="#2C90E9" d="M4.743 6.352h1.042V0H4.743zm-1.91-1.567a1.36 1.36 0 0 1-.205.464.816.816 0 0 1-.322.273.985.985 0 0 1-.426.09c-.163 0-.314-.029-.453-.088a.977.977 0 0 1-.386-.31V3.25c.132-.168.275-.3.428-.392.153-.092.338-.139.554-.139a.857.857 0 0 1 .37.078.686.686 0 0 1 .275.243c.076.111.135.256.175.434.041.178.061.395.061.652 0 .253-.023.473-.071.66m.702-2.31a1.456 1.456 0 0 0-.506-.43 1.422 1.422 0 0 0-.647-.148c-.29 0-.543.056-.759.165a2.057 2.057 0 0 0-.582.443V0H0v6.351h.687c.07 0 .126-.015.167-.046a.267.267 0 0 0 .086-.158l.047-.296c.067.084.142.161.22.233a1.244 1.244 0 0 0 .551.291c.11.028.23.04.363.04.283 0 .54-.057.769-.172.228-.115.428-.279.586-.481a2.25 2.25 0 0 0 .373-.727c.087-.279.13-.583.13-.91 0-.359-.038-.677-.115-.954a2.064 2.064 0 0 0-.33-.696m8.753 1.18c.048-.32.157-.566.329-.74.171-.174.409-.26.712-.26.155 0 .29.025.405.079a.819.819 0 0 1 .455.534c.037.12.055.25.055.387h-1.956zm2.365-1.238a1.65 1.65 0 0 0-.592-.387 2.086 2.086 0 0 0-.753-.132 2.14 2.14 0 0 0-.87.17 1.96 1.96 0 0 0-.654.465c-.18.199-.32.433-.41.688-.098.27-.146.556-.144.844 0 .385.055.723.164 1.015.11.292.26.537.452.735.19.198.42.35.674.45.258.1.538.15.839.15.152 0 .308-.01.47-.034.162-.022.32-.061.476-.117.158-.056.308-.13.449-.222.144-.093.273-.207.388-.344l-.304-.385a.217.217 0 0 0-.19-.098c-.064 0-.13.02-.2.06-.068.04-.148.084-.24.132-.103.053-.21.098-.32.133-.122.04-.268.06-.436.06-.343 0-.619-.106-.827-.317-.208-.21-.327-.541-.358-.992h2.673c.04.002.08-.005.118-.019a.158.158 0 0 0 .074-.064.351.351 0 0 0 .038-.124 2.383 2.383 0 0 0-.129-1.043 1.78 1.78 0 0 0-.388-.624zm20.08.387h-2.218v-.002h2.218v.002zm-5.123 0 1.864-.001v.001h-1.864zm5.123-2.33v1.5h-2.218V.623h-.54a.241.241 0 0 0-.153.047.208.208 0 0 0-.078.133l-.215 1.17h-1.953v-.26c0-.163.017-.299.052-.408a.562.562 0 0 1 .401-.406c.097-.027.207-.04.331-.04a1 1 0 0 0 .244-.03c.07-.02.109-.072.114-.155l.021-.53a1.836 1.836 0 0 0-.556-.08c-.25 0-.475.036-.675.11-.2.074-.368.181-.508.32-.142.145-.25.318-.32.51a1.926 1.926 0 0 0-.112.675v.293h-.678l.003-.007h-.835a.308.308 0 0 0-.286.196l-.869 2.27c-.03.08-.06.159-.086.236a3.542 3.542 0 0 0-.074.239 3.005 3.005 0 0 0-.14-.47l-.922-2.274a.416.416 0 0 0-.101-.137.285.285 0 0 0-.194-.06h-.911l1.75 4.06-.81 1.757h.776c.101 0 .176-.019.226-.057a.421.421 0 0 0 .12-.17l2.002-4.751h.005-.005 1.029-1.024l1.024.01v3.537h1.042V2.825l1.864.02v2.36c0 .38.101.676.304.891.202.215.49.323.864.323.207 0 .414-.033.61-.099.192-.062.37-.16.524-.29l-.312-.513a.321.321 0 0 0-.064-.07.115.115 0 0 0-.076-.024.135.135 0 0 0-.075.023.905.905 0 0 1-.201.099.497.497 0 0 1-.162.023.342.342 0 0 1-.27-.115.472.472 0 0 1-.1-.32V2.856l2.217.023v1.395l1.362-1.38.512-.52-1.874-1.9zm-11.86 1.888a1.22 1.22 0 0 0-.457-.342 1.52 1.52 0 0 0-.628-.122c-.273 0-.51.05-.713.15-.204.1-.392.233-.556.393V0h-1.041v6.352h1.04V3.18a1.86 1.86 0 0 1 .448-.338c.156-.082.33-.125.506-.124.244 0 .428.074.55.22.122.147.183.355.183.623v2.79h1.041v-2.79c0-.245-.031-.47-.095-.674a1.5 1.5 0 0 0-.278-.525m-4.444 1.825a1.33 1.33 0 0 0-.34-.222 4.35 4.35 0 0 0-.387-.157 13.326 13.326 0 0 0-.388-.126 2.326 2.326 0 0 1-.34-.13.812.812 0 0 1-.24-.169.333.333 0 0 1-.09-.237c0-.143.059-.258.177-.346.118-.089.28-.133.485-.133.116-.002.231.012.343.043.089.025.176.058.26.096l.2.096a.357.357 0 0 0 .162.043.222.222 0 0 0 .118-.028.273.273 0 0 0 .089-.096l.236-.38a1.83 1.83 0 0 0-.612-.394c-.244-.1-.515-.15-.813-.15-.267 0-.503.037-.706.11-.204.073-.374.17-.51.29-.137.122-.24.263-.31.426a1.28 1.28 0 0 0-.106.513c0 .193.03.359.09.496.057.13.14.248.241.346.102.094.217.173.342.233.127.06.258.114.392.16.133.045.264.088.392.126.117.034.231.078.341.13.1.049.18.106.24.171.061.066.091.15.091.253a.504.504 0 0 1-.04.198.458.458 0 0 1-.126.17.673.673 0 0 1-.22.117.99.99 0 0 1-.318.045c-.157 0-.287-.019-.39-.056a1.724 1.724 0 0 1-.267-.12 2.849 2.849 0 0 1-.2-.12.346.346 0 0 0-.344-.016.33.33 0 0 0-.11.11l-.24.402c.09.082.188.153.293.214a2.417 2.417 0 0 0 1.208.324c.278 0 .524-.035.74-.108.214-.073.395-.174.541-.303.144-.127.258-.285.333-.462.076-.178.114-.373.114-.583 0-.177-.03-.328-.09-.453a1.036 1.036 0 0 0-.24-.323" mask="url(#b)"/></g></svg>