<svg xmlns="http://www.w3.org/2000/svg" width="40" height="40"><path d="M24.147 15.625a5.368 5.368 0 0 1 1.95.357l-.02-.007-.295 1.834-.195-.098a3.864 3.864 0 0 0-1.628-.316c-.85 0-1.238.332-1.244.73-.007.399.46.658 1.218 1.053 1.257.604 1.83 1.334 1.83 2.301 0 1.758-1.496 2.896-3.779 2.896a6.637 6.637 0 0 1-2.425-.452l.315-1.897.28.133a4.334 4.334 0 0 0 2.047.446c.627 0 1.304-.26 1.304-.828.003-.37-.305-.648-1.13-1.053-.826-.405-1.906-1.084-1.906-2.301.013-1.647 1.528-2.798 3.678-2.798zm5.725.15.123.008h1.682l1.76 8.469H31.42s-.202-.968-.268-1.265h-2.784c-.085.218-.456 1.265-.456 1.265h-2.287l3.231-7.767c.17-.473.644-.764 1.14-.702zm-10.307-.001-1.36 8.475h-2.173l1.36-8.475h2.173zm-9.466.003c.472.019.857.177.989.714l.762 3.885-.013-.034.013.04.227 1.176 2.129-5.778h2.305l-3.44 8.459h-2.289L8.85 16.881a8.85 8.85 0 0 0-2.287-.93l.028-.174zm20.048 2.288c-.107.32-.287.81-.287.81l-.005.013c-.062.171-.69 1.892-.861 2.354h1.804c-.085-.423-.503-2.443-.503-2.443z" fill="#FFF"/></svg>