<svg width="26" height="19" fill="none" xmlns="http://www.w3.org/2000/svg"><path d="m25.13 12.304-1.73 4.563c-.134.37-.354.704-.642.973a1.53 1.53 0 0 1-1.018.41h-.12l-.327-.027V17.14l.212.02.166.01h.052a.438.438 0 0 0 .17-.035.601.601 0 0 0 .17-.114c.14-.14.248-.309.32-.494l.022-.057-1.806-4.162h1.166l1.193 2.717 1.028-2.717h.642l.502-.005zm-5.312.289c.343.33.523.794.494 1.27v2.643h-.887v-.494h-.04c-.131.19-.308.346-.513.454a1.554 1.554 0 0 1-.76.183 1.793 1.793 0 0 1-.811-.188 1.321 1.321 0 0 1-.553-.494 1.394 1.394 0 0 1-.198-.74c-.015-.405.17-.79.494-1.033a1.976 1.976 0 0 1 1.235-.38c.226-.004.451.02.672.068.161.036.319.087.47.154v-.215a.788.788 0 0 0-.29-.633 1.11 1.11 0 0 0-.74-.247c-.211 0-.42.047-.608.141a1.2 1.2 0 0 0-.457.373l-.635-.494a1.9 1.9 0 0 1 .726-.603c.309-.145.647-.219.988-.215a2.038 2.038 0 0 1 1.413.45zm-3.1-6.514a1.883 1.883 0 0 1 1.467.74l.005.013c.81 1.11.81 2.617 0 3.728-.35.458-.89.731-1.467.74-.497 0-.97-.214-1.297-.587v5.81H14.22V6.173h1.206v.494a1.73 1.73 0 0 1 1.292-.588zm.993 8.611a.652.652 0 0 0-.247.524.586.586 0 0 0 .225.477c.164.129.37.194.578.185.209.007.416-.045.598-.148v-.008a1.15 1.15 0 0 0 .56-.99 1.859 1.859 0 0 0-.442-.173 2.048 2.048 0 0 0-.53-.06 1.149 1.149 0 0 0-.742.193zM9.613 6.38c.366.216.66.533.848.914.199.407.298.856.291 1.31a2.504 2.504 0 0 1-.03.345h-3.85c.011.411.19.8.493 1.077a1.58 1.58 0 0 0 1.82.168c.23-.142.417-.34.547-.575l.916.434a2.7 2.7 0 0 1-.926.974c-.413.246-.888.37-1.369.355a2.564 2.564 0 0 1-1.319-.348 2.436 2.436 0 0 1-.916-.949 2.814 2.814 0 0 1-.329-1.366c-.006-.463.101-.92.311-1.334.204-.403.512-.744.892-.988A2.354 2.354 0 0 1 8.3 6.044a2.47 2.47 0 0 1 1.314.336zm3.32-5.63v10.583h-1.277V.75h1.277zM1.814.91v5.018l.064-.047.073-.04a2.13 2.13 0 0 1 1.032-.252h.075a2.006 2.006 0 0 1 1.446.64c.381.456.58 1.037.556 1.63v3.313H3.825V8.047a1.114 1.114 0 0 0-.232-.758.684.684 0 0 0-.247-.183 1.075 1.075 0 0 0-.403-.074 1.045 1.045 0 0 0-.795.339 1.65 1.65 0 0 0-.344 1.126v2.675H.584V.911h1.23zm14.803 6.016c-.541.002-.961.768-.961 1.756s.42 1.76.96 1.76c.544-.003.964-.774.964-1.76 0-.985-.422-1.759-.963-1.756zm-8.325.052a1.304 1.304 0 0 0-.873.301 1.61 1.61 0 0 0-.494.833l2.725.007a1.262 1.262 0 0 0-.168-.526 1.178 1.178 0 0 0-.45-.437 1.415 1.415 0 0 0-.74-.178z" fill="#333"/><path d="M12.54 13.828a.55.55 0 0 1 .549.549v.002a.548.548 0 0 1-.549.548H1.048A.548.548 0 0 1 .5 14.38v-.002c0-.303.246-.549.548-.549H12.54zm9.84-12.5c1.072 0 1.836.227 2.292.682.445.427.693 1.019.685 1.635a2.63 2.63 0 0 1-.215 1.02 3.084 3.084 0 0 1-.845 1.073c-.328.296-.672.575-1.03.835l-.465.316c-1.457 1.003-2.187 1.979-2.188 2.927v.232h4.94v1.045h-6.138v-.988c.021-.59.185-1.165.476-1.677.402-.7.948-1.305 1.604-1.776l.64-.494c.856-.66 1.4-1.153 1.632-1.483a1.75 1.75 0 0 0 .341-1.02 1.287 1.287 0 0 0-.457-.966 1.895 1.895 0 0 0-1.322-.42 1.843 1.843 0 0 0-1.16.316.87.87 0 0 0-.379.682v.06h-1.136v-.062a1.56 1.56 0 0 1 .339-.949 2.44 2.44 0 0 1 .928-.719 3.455 3.455 0 0 1 1.458-.269z" fill="#A9C51A"/></svg>