<svg width="56" height="35" fill="none" xmlns="http://www.w3.org/2000/svg"><path fill-rule="evenodd" clip-rule="evenodd" d="M48.707 13.877c-.028.058-.05.099-.067.14l-3.929 9.768c-.092.23-.14.264-.372.264h-.517c-.295 0-.414-.187-.3-.476l.63-1.554 4.231-10.44.01-.03c.055-.141.124-.268.296-.273.173-.003.244.12.304.261.144.342.29.682.435 1.023l4.668 10.982c.016.04.034.077.046.117.06.199-.07.39-.27.39h-7.37c-.162 0-.278-.105-.288-.278a5.406 5.406 0 0 1 0-.552c.008-.166.114-.268.273-.284.055-.006.111-.003.167-.003h5.901l-3.848-9.055z" fill="#4AC0BA"/><path fill-rule="evenodd" clip-rule="evenodd" d="M3.029 22.919c.043.005.079.011.114.011.881-.003 1.762.007 2.643-.014.823-.02 1.627-.161 2.395-.481.867-.362 1.346-1.003 1.387-1.961.036-.866-.284-1.55-1.037-1.99a4.598 4.598 0 0 0-.733-.337c-.371-.136-.748-.251-1.123-.37-.15-.048-.27-.12-.283-.292-.012-.167.095-.254.23-.321.367-.183.733-.369 1.097-.559.462-.24.84-.571.997-1.09.293-.969.056-2.009-1.032-2.544a4.45 4.45 0 0 0-1.716-.465c-.946-.055-1.894-.063-2.842-.089-.03 0-.06.007-.097.011V22.92zM1.843 11.691c0-.293.113-.41.404-.408 1.015.01 2.031.003 3.046.036.873.027 1.733.167 2.55.5.75.304 1.384.756 1.795 1.484.588 1.044.576 2.87-.742 3.888-.044.034-.086.071-.124.104.252.161.506.302.737.475.785.587 1.175 1.39 1.23 2.37.107 1.912-1.097 2.988-2.417 3.464-.833.3-1.698.43-2.577.44-1.187.014-2.374.003-3.56.003-.232 0-.342-.108-.342-.343V11.691zm23.315 1.88v10.042c0 .053.003.106-.002.159-.017.173-.13.28-.295.28h-.469c-.17-.002-.278-.116-.287-.304-.002-.042 0-.084 0-.126V11.635c0-.33.096-.438.402-.438.098 0 .197 0 .292.002.225.006.36.08.473.287.75 1.386 1.51 2.768 2.266 4.15l3.248 5.935a.25.25 0 0 0 .088.1V11.637c0-.333.095-.433.403-.433.107 0 .214-.003.322 0 .208.004.324.13.325.356.002.423 0 .847 0 1.27v10.779c0 .058.003.117-.001.174-.015.159-.126.277-.272.279-.172.001-.32.003-.513-.006a.339.339 0 0 1-.317-.201c-.476-.874-.955-1.746-1.433-2.619l-4.153-7.585c-.015-.029-.034-.057-.052-.086l-.025.008m-8.404.304c-.029.058-.05.099-.067.14l-3.929 9.768c-.092.23-.141.264-.372.264h-.517c-.296 0-.415-.187-.299-.476l.628-1.554 4.232-10.44.01-.03c.055-.141.124-.268.296-.273.172-.003.244.12.304.261.144.342.29.682.435 1.023l4.668 10.982c.016.04.033.077.046.117.06.199-.07.39-.27.39h-7.37c-.162 0-.278-.105-.288-.278a5.584 5.584 0 0 1 0-.552c.008-.166.114-.268.273-.284.055-.006.112-.003.167-.003h5.901l-3.848-9.055zm21.488 4.595-.55 1.056c-.729 1.407-1.462 2.812-2.183 4.224-.114.22-.242.31-.48.306-.142.008-.29.003-.434 0-.188-.003-.313-.217-.244-.41.029-.077.07-.15.108-.223 1.037-2 2.074-3.999 3.115-5.997.05-.096.044-.165-.004-.256-.937-1.8-1.873-3.601-2.808-5.402-.178-.344-.061-.572.297-.572.12 0 .255 0 .363.004a.4.4 0 0 1 .386.242c.547 1.064 1.1 2.125 1.65 3.186.255.492.511.982.778 1.493.03-.05.054-.085.074-.122.769-1.48 1.542-2.957 2.301-4.441.131-.257.287-.36.56-.36.099 0 .193.003.289.003.307.003.43.24.278.533l-2.49 4.797c-.11.212-.214.428-.334.631-.062.107-.047.182.006.284l3.157 6.08c.068.133.122.268.018.395a.351.351 0 0 1-.216.121c-.173.018-.348-.006-.52.009-.166.014-.261-.068-.336-.215-.372-.723-.748-1.444-1.122-2.165l-1.66-3.201z" fill="#fff"/></svg>