<svg width="117" height="31" fill="none" xmlns="http://www.w3.org/2000/svg"><path d="m0 15.497 9.222 5.457V.186L0 15.497Z" fill="#828CAD"/><path d="M9.222.186v20.768l9.234-5.457L9.222.186Z" fill="#63688E"/><path d="m0 17.253 9.222 13.001v-7.557L0 17.253Z" fill="#8A93B3"/><path d="M9.222 22.697v7.557l9.234-13-9.234 5.443Z" fill="#63688E"/><path opacity=".6" d="M9.222 11.309 0 15.498l9.222 5.456v-9.646Z" fill="#63688E"/><path opacity=".6" d="M9.222 11.309v9.645l9.233-5.456-9.233-4.19Z" fill="#474A75"/><path d="M47.5 5.75a.75.75 0 0 1 .75.75v7.26a4.25 4.25 0 0 1 7 3.24v4.5a.75.75 0 0 1-1.5 0V17a2.75 2.75 0 1 0-5.5 0v4.5a.75.75 0 0 1-1.5 0v-15a.75.75 0 0 1 .75-.75Zm57.5 7a4.23 4.23 0 0 0-2.75 1.01v-.26a.75.75 0 0 0-1.5 0v8a.75.75 0 0 0 1.5 0V17a2.75 2.75 0 1 1 5.5 0v4.5a.75.75 0 0 0 1.5 0V17a2.75 2.75 0 1 1 5.5 0v4.5a.75.75 0 0 0 1.5 0V17a4.25 4.25 0 0 0-7.75-2.412 4.245 4.245 0 0 0-3.5-1.838Zm-14.25.75a.75.75 0 0 0-1.5 0V18a4.25 4.25 0 0 0 7 3.24v.26a.75.75 0 0 0 1.5 0v-8a.75.75 0 0 0-1.5 0V18a2.75 2.75 0 1 1-5.5 0v-4.5Zm-20 0v8a.75.75 0 0 0 1.5 0v-4.925l.007-.03a3.62 3.62 0 0 1 .492-1.129c.393-.59 1.055-1.166 2.251-1.166a.75.75 0 0 0 0-1.5c-1.22 0-2.112.422-2.75.977V13.5a.75.75 0 0 0-1.5 0Zm-29.5-3a.75.75 0 0 0-1.5 0v2.25H38a.75.75 0 0 0 0 1.5h1.75v7.25a.75.75 0 0 0 1.5 0v-7.25H43a.75.75 0 0 0 0-1.5h-1.75V10.5Z" fill="#63688E"/><path fill-rule="evenodd" clip-rule="evenodd" d="M30.253 12.81a4.75 4.75 0 1 0 3.067 7.513.75.75 0 1 0-1.206-.891 3.25 3.25 0 0 1-5.776-1.182H33.5a.75.75 0 0 0 .75-.75 4.75 4.75 0 0 0-3.997-4.69Zm2.41 3.94h-6.325a3.25 3.25 0 0 1 6.325 0Zm28.367-3.308a4.75 4.75 0 0 1 7.22 4.058v.75h-7.912a3.25 3.25 0 0 0 5.776 1.182.75.75 0 1 1 1.206.891 4.75 4.75 0 1 1-6.29-6.88Zm-.692 3.308h6.324a3.25 3.25 0 0 0-6.324 0Zm22.915-3.94a4.75 4.75 0 1 0 3.067 7.513.75.75 0 1 0-1.206-.891 3.25 3.25 0 0 1-5.776-1.182h7.912v-.75a4.75 4.75 0 0 0-3.997-4.69Zm2.41 3.94h-6.325a3.25 3.25 0 0 1 6.325 0Z" fill="#63688E"/></svg>
