<svg width="72" height="45" fill="none" xmlns="http://www.w3.org/2000/svg"><path d="M48.84 20.47a4.018 4.018 0 0 1 1.822.398l-.642 1.488a6.245 6.245 0 0 0-.522-.186c-.18-.056-.4-.084-.659-.084-.62 0-1.112.219-1.477.654-.364.436-.547 1.022-.547 1.758 0 .436.092.789.277 1.058.184.27.524.404 1.017.404a3.342 3.342 0 0 0 1.308-.269l.139 1.526a6.633 6.633 0 0 1-.779.252c-.285.07-.625.108-1.019.108-.52 0-.96-.078-1.319-.23a2.516 2.516 0 0 1-.892-.623 2.36 2.36 0 0 1-.508-.918 3.839 3.839 0 0 1-.158-1.103c0-.581.092-1.129.276-1.642.183-.514.448-.963.792-1.348a3.72 3.72 0 0 1 1.25-.91 3.924 3.924 0 0 1 1.64-.334zm-15.268-3.028-.779 3.31c.167-.077.335-.136.502-.18.168-.043.348-.064.54-.064.403 0 .751.073 1.043.218.294.146.536.342.731.59.191.249.334.54.426.873.092.333.138.692.138 1.077 0 .59-.106 1.149-.32 1.674a4.346 4.346 0 0 1-.874 1.373 4.09 4.09 0 0 1-1.306.923 3.927 3.927 0 0 1-1.633.34c-.075 0-.209-.002-.397-.006a5.517 5.517 0 0 1-.646-.058 7.078 7.078 0 0 1-.773-.154 3.805 3.805 0 0 1-.773-.282l2.174-9.326 1.947-.308zm20.674 3.027c.436 0 .82.07 1.151.206.33.137.602.33.817.577.213.249.374.54.483.88.11.336.163.711.163 1.121 0 .512-.08 1.026-.238 1.54a4.489 4.489 0 0 1-.704 1.386c-.31.41-.697.745-1.162 1.006-.465.26-1.003.391-1.615.391-.444 0-.829-.069-1.156-.205a2.138 2.138 0 0 1-.81-.578 2.5 2.5 0 0 1-.484-.878 3.596 3.596 0 0 1-.162-1.121c0-.514.08-1.028.243-1.54.164-.514.404-.975.724-1.386a3.88 3.88 0 0 1 1.168-1.008c.46-.26.989-.39 1.582-.39zm-10.893-1.808-.477 1.988h2.086l-.377 1.565h-2.073l-.553 2.36a2.79 2.79 0 0 0-.088.551c-.01.172.012.32.062.444s.14.22.27.288c.13.069.316.103.56.103.2 0 .395-.02.585-.058.187-.038.378-.091.57-.16l.14 1.463a6.728 6.728 0 0 1-.817.243c-.294.07-.642.102-1.044.102-.577 0-1.025-.088-1.345-.262a1.51 1.51 0 0 1-.678-.72 2.315 2.315 0 0 1-.176-1.044c.017-.394.075-.808.176-1.244l1.232-5.31 1.947-.309zm-3.577 1.988-1.583 6.748h-1.86l1.57-6.747h1.873zm20.694 0-1.583 6.748h-1.861l1.57-6.747h1.874zm4.002-.154c.981 0 1.658.291 2.03.872.373.582.438 1.378.196 2.386l-.855 3.644h-1.872l.829-3.566c.05-.224.09-.439.12-.65a1.56 1.56 0 0 0-.008-.55.66.66 0 0 0-.231-.386c-.123-.098-.308-.147-.56-.147-.242 0-.489.027-.74.078l-1.22 5.22h-1.873l1.521-6.439c.142-.042.3-.093.471-.148a6.693 6.693 0 0 1 1.295-.269 8 8 0 0 1 .897-.045zm-31.101 1.603a2.3 2.3 0 0 0-.458.065 1.124 1.124 0 0 0-.51.27l-.828 3.513.132.026a1.121 1.121 0 0 0 .27.027h.225c.294 0 .57-.073.83-.218.26-.145.484-.34.673-.584a2.97 2.97 0 0 0 .609-1.79c0-.411-.068-.731-.2-.963-.135-.23-.383-.346-.742-.346h-.001zm20.7-.012c-.276 0-.52.082-.728.243-.21.164-.386.369-.527.616-.144.25-.25.52-.323.815-.07.296-.105.575-.105.84 0 .428.067.762.2 1.002.135.238.377.358.73.358.276 0 .519-.08.729-.244.207-.162.384-.368.527-.616a3.09 3.09 0 0 0 .322-.815 3.63 3.63 0 0 0 .106-.84c0-.426-.068-.76-.203-1-.133-.24-.376-.359-.728-.359zM39.375 17.57c.26 0 .493.08.703.237.209.159.314.4.314.725 0 .18-.036.349-.107.507a1.336 1.336 0 0 1-.69.686c-.156.07-.321.102-.497.102-.259 0-.494-.08-.703-.237-.21-.157-.316-.399-.316-.725 0-.18.036-.347.108-.506a1.35 1.35 0 0 1 .691-.687c.155-.068.32-.102.497-.102zm20.693 0c.26 0 .495.08.704.237.21.159.315.4.315.725 0 .18-.038.349-.108.507a1.336 1.336 0 0 1-.69.686c-.156.07-.321.102-.497.102-.26 0-.495-.08-.704-.237-.209-.157-.314-.399-.314-.725 0-.18.035-.347.107-.506a1.333 1.333 0 0 1 .69-.687c.156-.068.321-.102.497-.102z" fill="#4D4D4D"/><circle cx="15.75" cy="22.5" r="10.125" fill="#F7931B"/><path fill-rule="evenodd" clip-rule="evenodd" d="m14.852 17.732.447-1.826 1.088.277-.438 1.79c.293.07.588.139.874.21l.434-1.778 1.089.277-.446 1.827c1.375.483 2.381 1.208 2.182 2.557-.142.986-.678 1.465-1.39 1.632.977.52 1.474 1.316 1.002 2.698-.59 1.714-1.986 1.86-3.842 1.5L15.4 28.74l-1.088-.277.444-1.819c-.281-.072-.57-.148-.868-.23l-.446 1.827-1.089-.276.452-1.848c-.731-.19-1.462-.38-2.194-.565l.54-1.273s.803.216.793.202c.308.078.444-.128.498-.265.408-1.668.816-3.335 1.222-5.003.014-.237-.066-.535-.507-.648.017-.012-.79-.2-.79-.2l.289-1.188c.731.187 1.46.385 2.196.555zm.251 4.957c-.1-.023-.19-.043-.263-.062l-.597 2.448.211.056c.888.24 2.832.764 3.141-.503.316-1.296-1.574-1.729-2.492-1.939zm.777-3.35-.223-.051-.543 2.22c.052.012.113.03.181.048.742.201 2.355.64 2.637-.51.287-1.18-1.286-1.534-2.052-1.706z" fill="#fff"/></svg>