<svg width="38" height="13" fill="none" xmlns="http://www.w3.org/2000/svg"><path d="M13.893 8.29h2.341v.344H13.49v-4.8h.404V8.29zm3.455.344h-.39V5.067h.39v3.566zm-.46-4.598a.26.26 0 01.076-.193.25.25 0 01.192-.074.256.256 0 01.27.266.26.26 0 01-.073.188.26.26 0 01-.198.076.257.257 0 01-.195-.076.265.265 0 01-.072-.188zm2.123.118v.913h.73v.323h-.73v2.376c0 .198.036.345.107.442.07.097.188.145.353.145.064 0 .17-.011.315-.033l.016.323a1.257 1.257 0 01-.416.056c-.267 0-.461-.078-.582-.235-.122-.158-.183-.389-.183-.694V5.39h-.648v-.323h.648v-.912h.39zM21.914 8.7a1.514 1.514 0 01-1.378-.849 1.965 1.965 0 01-.202-.898v-.141c0-.343.066-.652.197-.927a1.59 1.59 0 01.549-.647A1.34 1.34 0 0121.84 5c.428 0 .768.148 1.018.443.25.296.376.7.376 1.212v.22h-2.513v.076c0 .405.114.741.343 1.01.23.27.517.404.864.404.209 0 .393-.038.552-.115.16-.077.305-.2.436-.37l.244.189c-.288.42-.703.63-1.247.63zm-.073-3.362a.967.967 0 00-.74.326c-.201.218-.323.51-.366.878h2.113v-.043c-.011-.343-.108-.622-.29-.838a.894.894 0 00-.716-.323zm3.456 3.03c.27 0 .498-.078.681-.233a.823.823 0 00.299-.601h.373c-.01.217-.078.416-.201.595a1.276 1.276 0 01-.494.42 1.47 1.47 0 01-.659.151c-.463 0-.829-.163-1.099-.487-.27-.326-.405-.763-.405-1.312V6.78c0-.352.061-.662.182-.933a1.42 1.42 0 01.523-.626c.227-.147.492-.22.796-.22.386 0 .705.115.955.348.251.234.385.54.403.92h-.375a.976.976 0 00-.298-.676.957.957 0 00-.686-.257c-.351 0-.624.129-.819.386-.194.257-.291.618-.291 1.08v.117c0 .455.098.81.291 1.064.195.255.468.382.822.382h.002zm1.917-1.57c0-.343.066-.651.197-.926a1.51 1.51 0 01.556-.64c.24-.153.512-.23.816-.23.469 0 .849.167 1.14.5.29.332.436.774.436 1.323v.082c0 .345-.066.655-.197.931a1.484 1.484 0 01-.555.638c-.239.15-.512.224-.818.224-.466 0-.845-.166-1.137-.5-.293-.332-.438-.773-.438-1.323v-.079zm.39.11c0 .425.11.776.327 1.05.219.273.505.41.858.41.352 0 .637-.138.855-.41.218-.275.328-.636.328-1.084v-.076a1.832 1.832 0 00-.15-.748c-.1-.226-.24-.401-.42-.525a1.062 1.062 0 00-.619-.187c-.347 0-.63.138-.85.414-.22.276-.328.637-.328 1.082v.073zm3.995 1.726h-.39V5.067h.39v3.566zm-.46-4.597a.258.258 0 01.267-.267.257.257 0 01.271.267.26.26 0 01-.073.188.26.26 0 01-.198.076.258.258 0 01-.195-.076.263.263 0 01-.071-.188zm1.889 1.032l.013.61c.133-.22.297-.388.495-.503.199-.116.425-.176.655-.173.377 0 .658.107.843.323.184.215.277.538.28.969v2.34h-.388V6.29c-.002-.319-.069-.556-.2-.712-.132-.156-.341-.234-.63-.234a.978.978 0 00-.64.229 1.339 1.339 0 00-.411.618v2.442h-.388V5.068h.371z" fill="#626264"/><path d="M6.57 1.75c-2.455 0-4.445 2.015-4.445 4.5s1.99 4.5 4.445 4.5 4.445-2.015 4.445-4.5-1.99-4.5-4.445-4.5zm1.726 6.694H4.823l.291-1.411-.567.395.138-.772.594-.414.581-2.814h1.085L6.543 5.36l1.412-.984-.165.8-1.412.98L6.1 7.503h2.389l-.193.942z" fill="#B8B9BB"/></svg>