<svg width="38" height="11" fill="none" xmlns="http://www.w3.org/2000/svg"><path d="M13.427 3.382h.273c.07 0 .126.056.126.126v2.446c0 .774.42 1.262 1.199 1.262.78 0 1.198-.488 1.198-1.261V3.508c0-.07.056-.126.126-.126h.273c.07 0 .127.056.127.126V5.96c0 1.053-.578 1.724-1.724 1.724-1.147 0-1.725-.678-1.725-1.718V3.508a.124.124 0 0 1 .127-.126zm4.127 3.333a.112.112 0 0 1 .165-.012c.283.275.706.513 1.243.513.754 0 .995-.406.995-.729 0-.508-.512-.647-1.07-.799-.678-.178-1.434-.367-1.434-1.198 0-.698.622-1.173 1.453-1.173.597 0 1.069.183 1.417.504.05.046.055.124.01.175l-.164.202a.111.111 0 0 1-.162.01c-.309-.29-.716-.422-1.14-.422-.507 0-.869.273-.869.67 0 .426.489.553 1.028.698.69.185 1.476.4 1.476 1.288 0 .614-.419 1.242-1.559 1.242-.682 0-1.197-.241-1.546-.59a.127.127 0 0 1-.01-.169l.167-.21zm3.574-3.207c0-.07.057-.126.126-.126h1.318c1.312 0 2.17.919 2.17 2.117 0 1.204-.857 2.11-2.17 2.11h-1.318a.126.126 0 0 1-.126-.126V3.508zm1.446 3.632c1.027 0 1.622-.736 1.622-1.641 0-.914-.577-1.648-1.622-1.648h-.919v3.29h.919zm7.428-1.064c0-.888.584-1.604 1.515-1.604.932 0 1.516.716 1.516 1.604 0 .888-.584 1.611-1.516 1.611-.931 0-1.515-.725-1.515-1.61zm2.53 0c0-.62-.361-1.18-1.014-1.18-.654 0-1.021.56-1.021 1.18 0 .627.367 1.186 1.02 1.186.654 0 1.014-.559 1.014-1.186zm.957-2.365c0-.177.146-.317.317-.317a.32.32 0 0 1 .323.317.324.324 0 0 1-.323.324.324.324 0 0 1-.317-.324zm.209.837h.221c.07 0 .126.056.126.126v2.81a.125.125 0 0 1-.126.125h-.221a.126.126 0 0 1-.127-.126v-2.81c0-.069.057-.125.127-.125zm3.087 1.059c0-.538-.273-.71-.684-.71-.374 0-.73.228-.907.476v2.11c0 .07-.057.126-.127.126h-.221a.126.126 0 0 1-.126-.126v-2.81c0-.069.056-.125.126-.125h.221c.07 0 .127.056.127.126v.317c.214-.254.634-.52 1.09-.52.64 0 .976.324.976.989v2.021c0 .07-.056.127-.126.127h-.221a.126.126 0 0 1-.127-.127V5.607h-.001zm-10.842-.108c0-1.3.957-2.186 2.156-2.186.71 0 1.208.309 1.544.732a.112.112 0 0 1-.032.167l-.237.13a.126.126 0 0 1-.16-.03 1.444 1.444 0 0 0-1.115-.53c-.908 0-1.611.711-1.611 1.718 0 1.002.703 1.718 1.61 1.718.462 0 .867-.213 1.116-.529a.128.128 0 0 1 .16-.032l.24.131a.111.111 0 0 1 .032.168c-.35.427-.837.731-1.548.731C26.9 7.686 25.943 6.8 25.943 5.5z" fill="#4D4E50"/><path d="M5.875 10.5a5 5 0 1 0 0-10 5 5 0 0 0 0 10z" fill="#2775CA"/><path d="M4.938 8.84c0 .118-.092.185-.206.15a3.752 3.752 0 0 1 0-7.146c.114-.036.206.031.206.15v.29c0 .078-.06.17-.135.195a3.131 3.131 0 0 0-2.054 2.936A3.13 3.13 0 0 0 4.803 8.35a.227.227 0 0 1 .135.196v.294z" fill="#fff"/><path d="M6.187 7.76c0 .086-.07.157-.157.157h-.312a.158.158 0 0 1-.157-.157v-.494c-.682-.092-1.015-.475-1.106-.995a.146.146 0 0 1 .146-.168h.357c.074 0 .137.053.152.127.067.31.246.548.793.548.404 0 .69-.226.69-.563 0-.338-.169-.465-.76-.563-.875-.118-1.29-.382-1.29-1.069 0-.53.4-.94 1.02-1.03V3.07c0-.087.071-.158.158-.158h.31c.087 0 .158.07.158.158v.497c.504.091.824.377.928.851a.145.145 0 0 1-.144.175h-.328a.159.159 0 0 1-.152-.115c-.088-.303-.303-.432-.678-.432-.413 0-.628.2-.628.48 0 .297.122.446.757.538.86.117 1.302.362 1.302 1.094 0 .555-.411 1.003-1.056 1.108v.494h-.003z" fill="#fff"/><path d="M7.019 8.989c-.114.035-.206-.032-.206-.15v-.29c0-.086.052-.166.135-.195A3.132 3.132 0 0 0 9 5.418a3.132 3.132 0 0 0-2.053-2.936.225.225 0 0 1-.135-.196v-.29c0-.117.092-.186.206-.149A3.751 3.751 0 0 1 9.626 5.42 3.754 3.754 0 0 1 7.02 8.989z" fill="#fff"/></svg>