<svg xmlns="http://www.w3.org/2000/svg" width="16" height="16"><path fill="var(--fill-color1)" d="M12 0c2.21 0 4 1.79 4 4v9.5a2.501 2.501 0 0 1-2.336 2.495L13.5 16l-9.46-.001L4 16a4 4 0 0 1-3.995-3.8L0 12a3.999 3.999 0 0 1 5.13-3.838l3.032-3.031A3.999 3.999 0 0 1 12 0zM4 9a3 3 0 1 0 0 6h.03A3 3 0 0 0 4 9zm4.6-2.893L6.106 8.599A3.998 3.998 0 0 1 6.646 15H13.5a1.5 1.5 0 0 0 1.493-1.356L15 13.5l.001-6.855A3.994 3.994 0 0 1 12 8a3.996 3.996 0 0 1-3.4-1.893zM4.407 9.183v.67c.53.176.894.673.894 1.238v.112h-.82v-.112a.485.485 0 1 0-.969 0c0 .27.218.487.485.487a1.308 1.308 0 0 1 .41 2.548v.67h-.819v-.67a1.308 1.308 0 0 1-.895-1.238v-.113h.819v.113c0 .268.218.486.485.486a.486.486 0 0 0 0-.974 1.308 1.308 0 0 1-.409-2.547v-.67h.819zM12 1a3 3 0 1 0 0 6 3 3 0 0 0 0-6zM6.5 3l.086.007a.5.5 0 0 1 .268.847l-3 3-.07.057a.501.501 0 0 1-.638-.057l-.057-.07a.501.501 0 0 1 .057-.638L5.293 4H4.5l-.09-.008A.5.5 0 0 1 4.5 3h2zm5.002-1.343v.667h.664v-.667h.664v.667a.997.997 0 0 1 .737 1.667c.168.187.26.427.259.677a.994.994 0 0 1-.996.992v.667h-.664V5.66h-.664v.667h-.664V5.66h-.665v-.668h.665V2.99h-.665v-.667h.665v-.666h.664zm1.328 2.668h-1.328v.667h1.328a.332.332 0 0 0 .332-.332.332.332 0 0 0-.332-.335zm0-1.335h-1.328v.668h1.328a.331.331 0 0 0 .332-.333.332.332 0 0 0-.332-.335z"/></svg>