<svg width="39" height="14" fill="none" xmlns="http://www.w3.org/2000/svg"><path d="M6.78.563c1.84.032 3.653.458 5.321 1.25l.086.04.033.088a15.732 15.732 0 0 1 .634 2.75c.087.598.137 1.202.148 1.806V7.2a16.104 16.104 0 0 1-.782 4.572l-.033.088-.086.04a12.536 12.536 0 0 1-5.186 1.162H6.78v-.43h.135a12.123 12.123 0 0 0 4.936-1.088c.707-2.186.91-4.51.59-6.788-.061-.44-.148-.895-.254-1.339a19.113 19.113 0 0 0-.336-1.25A12.513 12.513 0 0 0 6.991.995L6.78.99h-.039a10.3 10.3 0 0 0-4.766 1.176 12.363 12.363 0 0 0-.994 4.606 11.465 11.465 0 0 0 .988 4.765 12.116 12.116 0 0 0 4.807 1.094v.428a12.512 12.512 0 0 1-5.048-1.163l-.112-.107A12.054 12.054 0 0 1 .563 6.968v-.2a12.923 12.923 0 0 1 1.054-4.84l.1-.108A10.734 10.734 0 0 1 6.741.562h.038zm-.125 10.602.02.01.042-.001c.045 0 .09.008.134.02a.231.231 0 0 1 .135.095c.04.054.056.122.048.19a.368.368 0 0 1-.03.15.47.47 0 0 1-.08.094.711.711 0 0 1-.105.043.949.949 0 0 1-.138.01v.003h-.173v.366h-.192l.019-.98h.32zm1.366-.023a.222.222 0 0 1 .102.03c.033.015.061.04.08.071.02.034.034.072.039.111a.219.219 0 0 1-.026.128.236.236 0 0 1-.093.094.249.249 0 0 1 .145.075.224.224 0 0 1 .06.138.446.446 0 0 1-.019.13.29.29 0 0 1-.073.108.372.372 0 0 1-.125.059l-.228.023h-.006l-.32.032-.087-.963.378-.03h.016l.006-.006.05-.005a.563.563 0 0 1 .1.005zm-2.404-.056-.045.523v.157a.17.17 0 0 0 .051.101.18.18 0 0 0 .122.049.192.192 0 0 0 .125-.023.173.173 0 0 0 .061-.075c0-.033 0-.088.02-.163l.041-.536.192.02-.041.503a.826.826 0 0 1-.039.245.302.302 0 0 1-.06.11.265.265 0 0 1-.126.073.434.434 0 0 1-.18 0 .467.467 0 0 1-.208-.033.368.368 0 0 1-.105-.088.33.33 0 0 1-.042-.115 1.525 1.525 0 0 1 0-.245l.048-.503h.186zm-1.032-.147.317.055v-.032h.08a.594.594 0 0 1 .209.062.204.204 0 0 1 .093.115.253.253 0 0 1 0 .157.27.27 0 0 1-.093.163.316.316 0 0 1-.196.055.367.367 0 0 1 .084.095.765.765 0 0 1 .08.176l.08.206-.221-.042-.1-.232-.013-.033v.007c-.015-.034-.034-.062-.042-.08l-.002-.012a.246.246 0 0 0-.048-.052.43.43 0 0 0-.093-.026h-.042l-.07.398-.183-.032.16-.948zm4.465.121c.057.038.1.093.125.157l-.18.075a.198.198 0 0 0-.221-.124.224.224 0 0 0-.157.105.389.389 0 0 0-.022.258c.01.091.047.177.109.245a.203.203 0 0 0 .179.052.227.227 0 0 0 .119-.075.332.332 0 0 0 .035-.17l.192.023a.38.38 0 0 1-.32.379.42.42 0 0 1-.32-.075.525.525 0 0 1-.187-.327.538.538 0 0 1 .061-.392.42.42 0 0 1 .292-.186.394.394 0 0 1 .295.055zm-1.18.627h-.147l.019.258h.173a.713.713 0 0 0 .128-.02.096.096 0 0 0 .061-.042.126.126 0 0 0 .026-.081.158.158 0 0 0-.029-.075.109.109 0 0 0-.064-.04.655.655 0 0 0-.167 0zm1.789-.895.038.056v-.003l.555.787-.2.049-.134-.193-.22.075-.001-.01-.14.03-.027.235-.198.049.131-1.026.196-.049zm-5.574-.022a.463.463 0 0 1 .247.147.33.33 0 0 1 .067.232h-.192a.205.205 0 0 0-.042-.131.233.233 0 0 0-.125-.075.265.265 0 0 0-.208.023.386.386 0 0 0-.138.215.413.413 0 0 0 0 .268.254.254 0 0 0 .167.134.41.41 0 0 0 .125 0 .595.595 0 0 0 .115-.033l.032-.12-.19-.046.036-.157.4.108-.099.369a.385.385 0 0 1-.195.058.657.657 0 0 1-.228-.02.506.506 0 0 1-.237-.127.453.453 0 0 1-.115-.218.558.558 0 0 1 .128-.51.38.38 0 0 1 .218-.117.442.442 0 0 1 .234 0zm25.337-8.532.961.552.013-.003.932.529-.932 2.25-.122.3c-1.84-1.338-4.554-.117-4.708 1.307-.154 1.477.961 2.672 3.769 1.777l-.962 2.643c-3.718.421-5.163-1.082-5.378-2.835v-.98c.053-.448.16-.887.32-1.307 1.83-4.641 4.808-3.593 5.933-3.684l.174-.549zm-22.683 9.1H6.68v.003h-.167v.275h.167v-.004a.257.257 0 0 0 .087 0 .132.132 0 0 0 .06-.042.176.176 0 0 0 .02-.075.106.106 0 0 0-.035-.111.112.112 0 0 0-.074-.046zm26.493-8.76 1.061.003h3.004l.766 8.963h-3.004V9.803h-.766v.013h-1.442l-.593 1.633h-2.795l.933-2.048 2.08-4.573h-.426l1.182-2.25zM7.87 11.305h-.19l.016.22h.132a.094.094 0 0 0 .041 0h.093a.127.127 0 0 0 .074-.043.08.08 0 0 0 .02-.075.076.076 0 0 0-.033-.07.076.076 0 0 0-.074-.032h-.08zm9.148-8.855 2.634.056 1.497.03c1.073.018 1.657.613 1.814 1.353l.013.067v.738A2.682 2.682 0 0 1 21.62 6.6c1.958 1.943.003 4.383-1.987 4.785-.176.038-.355.06-.535.065H14.86l1.474-6.617-.548.042 1.23-2.424zm-7.395 8.607-.038.376.112-.05.122-.032-.122-.18v.013l-.074-.127zm-4.721-.025-.01.113-.147-.026-.038.239.138.026h.06l.02.003c.025 0 .05 0 .073-.003a.12.12 0 0 0 .064-.033.169.169 0 0 0 .03-.069.117.117 0 0 0 0-.081.093.093 0 0 0-.068-.05.922.922 0 0 0-.122-.025v-.094zm3.981-7.278c.103 1.15-1.266 1.923-1.622 3.018-.356 1.094-.253 2.351-.372 3.527-.086-1.202-.028-2.45-.381-3.593-.32-1.068-1.567-1.679-1.603-2.851a1.953 1.953 0 0 1 .554-1.416 1.88 1.88 0 0 1 1.389-.567c1.064-.032 1.963.799 2.035 1.882zm2.215 2.649a2.052 2.052 0 0 1-1.856 1.551c-.494.046-.705.448-1.013.68a4.764 4.764 0 0 0 2.885-1.271c.093.49.157 1.306-.221 1.597-.74.536-1.423.101-2.295.353-.475.157-.776.47-1.231.695a8.316 8.316 0 0 1 .234-2.94c.32-1.005.962-1.854 1.968-2.132.683-.186 1.689.63 1.529 1.467zm-8.4 0c-.168-.837.842-1.653 1.528-1.467 1.006.278 1.647 1.127 1.968 2.133.249.958.326 1.954.227 2.94-.455-.226-.753-.54-1.208-.683-.868-.252-1.554.183-2.295-.353-.375-.29-.314-1.107-.22-1.597a4.764 4.764 0 0 0 2.884 1.27c-.311-.231-.526-.633-1.013-.679a2.048 2.048 0 0 1-1.872-1.564zm16.876.933a1.37 1.37 0 0 0-.143.004h-1.14l-.507 1.992h1.51a.592.592 0 0 0 .339-.12c.587-.396.907-1.68 0-1.856V7.34l-.059-.003zm3.415.42v.979a4.29 4.29 0 0 1-.014-.84l.014-.14zm12.07-2.843-.766 1.571-.763 1.558h.763V8.03h.766V4.913zM19.633 2.506v1.721h-.622l-.426 1.774h1.048v1.338l.013.001V6h.375c.84 0 .926-1.773.253-1.773h-.622v-1.72l-.019-.001zm3.356 1.45c.041.248.041.5 0 .748v-.748z" fill="#039"/></svg>