<svg width="120" height="18" fill="none" xmlns="http://www.w3.org/2000/svg"><path d="M18.913 0H0v18h18.913V0Z" fill="#fff"/><path fill-rule="evenodd" clip-rule="evenodd" d="M2.38 3.141h10.133l5.067 5.827-5.067 6.378H2.38l4.543-6.378L2.38 3.141Z" fill="#E2071F"/><path fill-rule="evenodd" clip-rule="evenodd" d="m17.58 8.968-5.067-5.827H2.38l4.543 5.827" fill="#7B141F"/><path d="m33.733 4.77-2.02 1.702a2.761 2.761 0 0 0-2.246-.994c-1.927.209-3.396 1.873-3.417 3.87-.02 1.998 1.413 3.694 3.334 3.946.98.03 1.906-.462 2.452-1.301l2.184 1.66c-1.018 1.379-2.618 2.166-4.297 2.115-3.713 0-6.42-2.474-6.42-6.345 0-3.87 2.707-6.345 6.42-6.345a5.052 5.052 0 0 1 4.01 1.692Zm73.231-.043-1.026 1.11a4.263 4.263 0 0 0-3.148-1.363c-2.565.153-4.557 2.361-4.522 5.01.036 2.648 2.087 4.798 4.655 4.878a6.712 6.712 0 0 0 2.872-.688v-3.616h-2.667v-1.29h4.051v5.848a8.622 8.622 0 0 1-4.318 1.057 5.747 5.747 0 0 1-4.418-1.728 6.13 6.13 0 0 1-1.735-4.533 6.234 6.234 0 0 1 1.773-4.49 5.852 5.852 0 0 1 4.38-1.76 5.443 5.443 0 0 1 4.103 1.565ZM38.031 3.321v12.13h-2.616V3.321h2.616Zm6.348 0 2.739 7.91h.04l2.75-7.91h3.948v12.13h-2.615V6.155H51.2l-3.118 9.296h-2l-3.005-9.296h-.041v9.296H40.42V3.321h3.96Zm26.308.2 6.677 9.89h.041V3.52h1.364v11.91h-1.733l-6.677-9.9h-.03v9.9h-1.375V3.52h1.733Zm12.328 0v11.91h-1.374V3.52h1.374Zm7.908 0 4.913 11.898h-1.61l-1.17-2.918h-5.774l-1.19 2.918h-1.549l5.088-11.897h1.292Zm24.164 0L120 15.42h-1.6l-1.18-2.918h-5.764l-1.2 2.918h-1.538l5.087-11.897h1.282Zm-54.38-.2c2.052 0 4.35.444 4.35 3.088.002 1.212-.77 2.273-1.883 2.619l-.169.046c1.49.123 2.632 1.42 2.605 2.961 0 2.538-2.359 3.374-4.472 3.374h-4.861V3.32h4.43Zm.175 7.107h-1.99v2.76h2.36c.82 0 1.743-.36 1.743-1.417 0-1.058-1.262-1.343-2.113-1.343ZM90.256 5.33l-2.39 5.86h4.708l-2.318-5.86Zm24.164 0-2.4 5.86h4.718l-2.318-5.86Zm-53.743.254h-1.785v2.591H60.8c.8 0 1.641-.349 1.641-1.322 0-.973-.933-1.269-1.764-1.269Z" fill="#fff"/></svg>