<svg width="62" height="64" fill="none" xmlns="http://www.w3.org/2000/svg"><path fill-rule="evenodd" clip-rule="evenodd" d="M6.894 17.679c-.057.131.076-.276.114-.414l.149-.54C8.693 11.15 10.229 5.575 11.767 0l49.447.097L6.567 44.545 31.54 14.456l-18.76.053c-.347.001-.694 0-1.04.023-2.225.19-4.152 1.538-4.846 3.147Z" fill="#808285"/><path fill-rule="evenodd" clip-rule="evenodd" d="M58.53 30.472c.056-.131-1.495 9.471-4.23 19.397l-51.605.288L58.429 5.02 33.45 35.393l18.76-.053c.347-.001.694 0 1.04-.024 2.225-.189 4.585-3.235 5.279-4.844Z" fill="#ED1C24"/><path fill-rule="evenodd" clip-rule="evenodd" d="M9.568 64H.786l6.07-8.243H2.83l.292-2.28h8.363l-6.056 8.23h4.432L9.568 64Zm1.655 0 1.347-10.522h6.088l-.295 2.306h-3.447l-.234 1.825h3.25l-.289 2.258h-3.25l-.227 1.776h3.447L17.31 64h-6.088Zm7.879 0 1.346-10.522h2.613l3.06 5.412c.058.11.148.331.272.665.122.334.252.728.392 1.19.002-.437.012-.825.031-1.166.018-.338.045-.64.08-.905l.664-5.196h2.599L28.812 64h-2.599l-3.057-5.434a5.546 5.546 0 0 1-.278-.664c-.122-.334-.25-.725-.387-1.176-.003.442-.014.832-.032 1.173-.018.339-.045.64-.08.905L21.714 64h-2.612Zm11.909 0 1.346-10.522h2.736L33.746 64H31.01Zm6.35 0 1.03-8.034h-2.227l.319-2.488h7.16l-.318 2.488h-2.227L40.07 64h-2.708Zm6.258 0 1.346-10.522h2.708l-.523 4.09h3.61l.523-4.09h2.714L52.65 64h-2.714l.548-4.283h-3.609L46.326 64H43.62Z" fill="#808285"/></svg>