<svg width="32" height="32" fill="none" xmlns="http://www.w3.org/2000/svg"><rect width="32" height="32" rx="8" fill="#F2F3F4"/><g clip-path="url(#a)"><path d="M12.5 8a4.49 4.49 0 0 1 4.242 2.989H20.5a2.5 2.5 0 0 1 2.5 2.5v2.779A2 2 0 0 1 24 18v2a2 2 0 0 1-1.016 1.741C22.844 22.995 21.786 24 20.5 24h-9.96c-1.38 0-2.537-1.16-2.537-2.54V13h.024A4.5 4.5 0 0 1 12.5 8Zm8 3.989h-3.528a4.5 4.5 0 0 1-7.969 3.344v6.127c0 .828.709 1.54 1.537 1.54h9.96c.64 0 1.186-.425 1.402-1H19a2 2 0 0 1-2-2v-2a2 2 0 0 1 2-2h3v-2.511a1.5 1.5 0 0 0-1.5-1.5ZM22 17h-3a1 1 0 0 0-1 1v2a1 1 0 0 0 1 1h3a1 1 0 0 0 1-1v-2a1 1 0 0 0-1-1Zm-2 1a1 1 0 1 1 0 2 1 1 0 0 1 0-2Zm-7.5-9a3.5 3.5 0 1 0 0 7 3.5 3.5 0 0 0 0-7Zm1.5 3a.5.5 0 0 1 0 1h-3a.5.5 0 1 1 0-1h3Z" fill="#333"/></g><defs><clipPath id="a"><path fill="#fff" transform="translate(8 8)" d="M0 0h16v16H0z"/></clipPath></defs></svg>