<svg width="120" height="42" fill="none" xmlns="http://www.w3.org/2000/svg"><path d="M41.837 21c0 11.553-9.366 20.918-20.919 20.918S0 32.553 0 21C0 9.447 9.365.082 20.918.082 32.471.082 41.837 9.447 41.837 21Z" fill="#EE312A"/><path d="M76.483 15.509h6.014l4.706 13.858L91.91 15.51h6.014l-8.106 21.44h-5.23l-8.105-21.44ZM6.145 8.972h7.06l7.975 20.134 7.975-20.134h6.93L23.924 36.95h-5.49L6.144 8.972Z" fill="#fff"/><path fill-rule="evenodd" clip-rule="evenodd" d="M41.706 27.798h13.858c.523-4.183-.523-12.603-8.89-12.812-10.46-.262-10.72 9.152-10.72 12.812 0 3.661 3.006 9.675 9.674 9.675 5.334 0 8.324-.697 9.152-1.046l-.654-4.968c-3.922 1.002-11.897 1.673-12.42-3.66Zm0-4.183h8.629c-.175-1.482-1.255-4.445-4.184-4.445-3.66 0-4.445 3.66-4.445 4.445Zm64.324 4.183h13.858c.523-4.183-.523-12.603-8.89-12.812-10.459-.262-10.721 9.152-10.721 12.812 0 3.661 3.007 9.675 9.675 9.675 5.334 0 8.324-.697 9.152-1.046l-.654-4.968c-3.922 1.002-11.897 1.673-12.42-3.66Zm0-4.183h8.629c-.175-1.482-1.256-4.445-4.184-4.445-3.661 0-4.445 3.66-4.445 4.445Z" fill="#fff"/><path d="M60.532 36.95h5.753V21.13c1.36-1.464 4.576-1.045 6.014-.653.523-3.007.784-4.968.784-4.968-6.903-1.465-11.243.784-12.55 2.092v19.35Z" fill="#fff"/></svg>
