<svg xmlns="http://www.w3.org/2000/svg" xmlns:xlink="http://www.w3.org/1999/xlink" width="40" height="40"><defs><path id="a" d="M0 12.854h35.576V0H0z"/></defs><g transform="translate(2.188 13.438)" fill="none" fill-rule="evenodd"><path fill="#FFF" d="m.01 11.692.364-.036a.456.456 0 0 0 .134.272.405.405 0 0 0 .272.086c.12 0 .211-.025.272-.077a.228.228 0 0 0 .092-.18c0-.044-.012-.082-.038-.113s-.07-.058-.135-.081a4.623 4.623 0 0 0-.299-.081c-.2-.05-.341-.111-.422-.184a.483.483 0 0 1-.17-.374.497.497 0 0 1 .312-.454.924.924 0 0 1 .365-.065c.233 0 .409.051.526.154.118.103.18.24.186.412l-.376.015c-.016-.096-.05-.165-.103-.207-.053-.042-.132-.063-.238-.063a.428.428 0 0 0-.256.067.136.136 0 0 0-.059.116.14.14 0 0 0 .056.113c.047.04.162.081.344.124.182.044.317.088.404.135.088.046.156.11.205.19.05.08.074.18.074.297 0 .108-.03.208-.088.301a.539.539 0 0 1-.251.209 1.06 1.06 0 0 1-.405.068c-.235 0-.415-.055-.541-.164-.126-.11-.201-.27-.225-.48"/><mask id="b" fill="#fff"><use xlink:href="#a"/></mask><path fill="#FFF" d="M1.91 12.303h.357v-1.35H1.91v1.35zm0-1.536h.357v-.329H1.91v.33zm2.025 1.536h-.357v-.69a1.09 1.09 0 0 0-.023-.285.199.199 0 0 0-.074-.1.215.215 0 0 0-.123-.035.287.287 0 0 0-.165.05.26.26 0 0 0-.1.136c-.019.056-.028.16-.028.31v.614h-.357v-1.35h.332v.198a.537.537 0 0 1 .658-.189.374.374 0 0 1 .148.109.414.414 0 0 1 .07.15c.012.056.019.136.019.24v.842zm.723-.705c0 .144.027.25.082.316.055.067.123.1.203.1.086 0 .16-.034.219-.103.06-.068.089-.17.089-.304 0-.14-.028-.244-.085-.312a.273.273 0 0 0-.216-.102.26.26 0 0 0-.21.1c-.055.067-.082.169-.082.305m-.32.793.404.045c.007.05.023.085.048.104.033.027.087.04.16.04a.418.418 0 0 0 .21-.042.167.167 0 0 0 .07-.09.508.508 0 0 0 .017-.164l.001-.197a.478.478 0 0 1-.401.216.499.499 0 0 1-.43-.23.795.795 0 0 1-.124-.454c0-.227.054-.4.163-.52a.524.524 0 0 1 .405-.18c.166 0 .304.074.412.22v-.187h.332v1.214c0 .16-.013.28-.04.358a.438.438 0 0 1-.11.186.487.487 0 0 1-.19.106 1.01 1.01 0 0 1-.3.038c-.228 0-.39-.04-.486-.119a.373.373 0 0 1-.143-.3l.001-.044m1.696-.088h.357v-1.865h-.357zm1.602-.788a.361.361 0 0 0-.08-.24.247.247 0 0 0-.187-.082.25.25 0 0 0-.194.086.345.345 0 0 0-.075.236h.536zm-.02.362.355.06a.582.582 0 0 1-.217.297.636.636 0 0 1-.37.102c-.235 0-.409-.077-.521-.23a.776.776 0 0 1-.134-.468c0-.225.058-.4.175-.528a.577.577 0 0 1 .444-.19c.2 0 .359.066.475.2.116.133.171.337.166.613h-.895a.357.357 0 0 0 .087.248c.055.06.124.089.207.089a.218.218 0 0 0 .142-.046.287.287 0 0 0 .087-.147zm1.543.426v-1.865h1.374v.315h-.998v.414h.928v.314h-.928v.507h1.035v.315zm2.688 0V12.1a.519.519 0 0 1-.194.171.525.525 0 0 1-.497.004.352.352 0 0 1-.156-.168.757.757 0 0 1-.048-.3v-.856h.357v.621c0 .19.007.307.02.35a.192.192 0 0 0 .071.102c.035.025.08.037.133.037.06 0 .115-.016.163-.05a.255.255 0 0 0 .099-.125c.018-.05.026-.17.026-.364v-.57h.358v1.35h-.332zm1.117 0h-.357v-1.35h.331v.192c.057-.091.108-.151.153-.181s.097-.045.154-.045a.45.45 0 0 1 .235.068l-.109.312a.32.32 0 0 0-.168-.058.196.196 0 0 0-.127.042c-.035.027-.062.077-.082.15-.02.071-.03.222-.03.452v.418zm1.025-.675c0 .134.032.237.095.308.064.072.142.108.235.108s.172-.036.235-.108c.063-.07.094-.175.094-.311 0-.133-.031-.235-.094-.306a.3.3 0 0 0-.235-.108.302.302 0 0 0-.235.108c-.063.071-.095.174-.095.309m-.365-.02c0-.119.03-.234.087-.345a.613.613 0 0 1 .248-.256.741.741 0 0 1 .358-.088c.204 0 .371.067.501.2s.195.301.195.505a.7.7 0 0 1-.197.51.663.663 0 0 1-.496.202.777.777 0 0 1-.353-.084.582.582 0 0 1-.256-.247.832.832 0 0 1-.087-.397m2.929-.855v.532h.204c.148 0 .247-.01.296-.029a.245.245 0 0 0 .159-.238.247.247 0 0 0-.21-.252 1.688 1.688 0 0 0-.268-.013h-.181zm-.376 1.55v-1.865h.602c.228 0 .376.01.445.028.107.028.196.09.268.183a.586.586 0 0 1 .107.363.61.61 0 0 1-.062.29.501.501 0 0 1-.157.182.556.556 0 0 1-.194.09c-.09.017-.22.026-.389.026h-.244v.703h-.376zm2.545-.648a1.891 1.891 0 0 1-.216.055.688.688 0 0 0-.194.063.15.15 0 0 0-.069.126c0 .05.018.094.056.13a.191.191 0 0 0 .141.056.314.314 0 0 0 .184-.064.233.233 0 0 0 .084-.12.666.666 0 0 0 .014-.174v-.072zm-.479-.292-.32-.059a.501.501 0 0 1 .187-.29c.089-.063.22-.095.396-.095.158 0 .277.02.355.057a.362.362 0 0 1 .164.144c.031.058.047.165.047.32l-.003.418c0 .119.005.207.016.263a.772.772 0 0 0 .065.182h-.354a.937.937 0 0 1-.034-.105l-.013-.04a.639.639 0 0 1-.195.133.553.553 0 0 1-.221.045.46.46 0 0 1-.328-.113.38.38 0 0 1-.12-.287c0-.076.019-.145.055-.205a.352.352 0 0 1 .153-.137c.065-.032.16-.06.283-.084a1.81 1.81 0 0 0 .346-.088v-.036c0-.07-.017-.12-.05-.149-.035-.03-.1-.044-.193-.044a.26.26 0 0 0-.15.038.269.269 0 0 0-.086.132zm1.086-.411h.38l.321.96.315-.96h.369l-.474 1.3-.087.237a.82.82 0 0 1-.089.181.382.382 0 0 1-.234.162.67.67 0 0 1-.181.022.915.915 0 0 1-.203-.022l-.033-.28a.81.81 0 0 0 .152.017c.083 0 .145-.025.185-.074.04-.05.07-.112.092-.188l-.513-1.355zm1.664 0h.328v.185a.527.527 0 0 1 .42-.218c.087 0 .162.018.226.054.063.035.115.09.155.161a.63.63 0 0 1 .192-.161.468.468 0 0 1 .22-.054c.099 0 .182.02.25.06.07.041.12.1.155.178a.793.793 0 0 1 .036.28v.866h-.357v-.773c0-.135-.013-.221-.037-.26-.033-.052-.083-.077-.152-.077a.249.249 0 0 0-.235.18.955.955 0 0 0-.03.28v.65h-.357v-.742c0-.132-.006-.217-.019-.255a.158.158 0 0 0-.059-.085.18.18 0 0 0-.108-.028c-.055 0-.104.015-.148.045s-.075.072-.094.128a.935.935 0 0 0-.029.28v.657h-.357v-1.35zm3.213.563a.356.356 0 0 0-.08-.24.244.244 0 0 0-.186-.082.25.25 0 0 0-.194.086.345.345 0 0 0-.075.236h.535zm-.018.362.353.06a.58.58 0 0 1-.216.297.638.638 0 0 1-.37.102c-.235 0-.41-.077-.522-.23a.782.782 0 0 1-.133-.468c0-.225.058-.4.175-.528a.577.577 0 0 1 .443-.19c.201 0 .36.066.475.2.117.133.172.337.167.613h-.895c.002.106.03.189.086.248.056.06.125.089.208.089a.218.218 0 0 0 .142-.046.287.287 0 0 0 .087-.147zm1.963.426h-.358v-.69a1.09 1.09 0 0 0-.023-.285.199.199 0 0 0-.074-.1.215.215 0 0 0-.123-.035.291.291 0 0 0-.165.05.26.26 0 0 0-.1.136c-.018.056-.027.16-.027.31v.614h-.358v-1.35h.332v.198a.537.537 0 0 1 .658-.189.36.36 0 0 1 .148.109.398.398 0 0 1 .07.15c.013.056.02.136.02.24v.842zm1.054-1.351v.285h-.243v.547c0 .11.002.174.006.193a.082.082 0 0 0 .031.045.1.1 0 0 0 .06.018.436.436 0 0 0 .14-.034l.031.277a.705.705 0 0 1-.279.053.434.434 0 0 1-.173-.032.254.254 0 0 1-.113-.085.337.337 0 0 1-.05-.139 1.937 1.937 0 0 1-.01-.253v-.59h-.163v-.285h.162v-.27l.358-.21v.48h.243zm.201.97.357-.056c.016.07.046.122.092.158a.322.322 0 0 0 .196.053c.091 0 .16-.017.207-.051a.116.116 0 0 0 .047-.096.094.094 0 0 0-.026-.068.276.276 0 0 0-.12-.047c-.288-.064-.472-.123-.548-.175a.348.348 0 0 1-.16-.305c0-.117.045-.216.138-.296.093-.08.236-.12.43-.12.186 0 .323.03.413.09.09.06.152.148.186.265l-.335.063a.206.206 0 0 0-.083-.12.302.302 0 0 0-.174-.042.391.391 0 0 0-.204.04.082.082 0 0 0-.04.072c0 .026.012.047.035.066.032.023.144.057.334.1.19.044.324.097.4.16a.336.336 0 0 1 .111.268.41.41 0 0 1-.154.32c-.103.09-.256.135-.457.135-.184 0-.329-.037-.435-.111a.514.514 0 0 1-.21-.303m3.432-.355-.26-.692-.251.692h.51zm.688.736h-.404l-.16-.422h-.75l-.152.422h-.398l.72-1.864h.394l.75 1.864zm.615 0h-.358v-1.35h.331v.192a.593.593 0 0 1 .154-.181.267.267 0 0 1 .153-.045.45.45 0 0 1 .235.068l-.109.312a.32.32 0 0 0-.168-.058.196.196 0 0 0-.127.042c-.035.027-.062.077-.082.15-.02.071-.03.222-.03.452v.418zm1.547-.788a.361.361 0 0 0-.08-.24.244.244 0 0 0-.186-.082.248.248 0 0 0-.194.086.345.345 0 0 0-.075.236h.535zm-.019.362.354.06a.58.58 0 0 1-.216.297.64.64 0 0 1-.37.102c-.236 0-.41-.077-.522-.23a.775.775 0 0 1-.133-.468c0-.225.058-.4.175-.528a.577.577 0 0 1 .443-.19c.2 0 .36.066.475.2.116.133.172.337.167.613h-.895c.002.106.03.189.086.248.056.06.125.089.208.089a.22.22 0 0 0 .142-.046.28.28 0 0 0 .086-.147zm1.481-.222a2.013 2.013 0 0 1-.216.055.665.665 0 0 0-.194.063.148.148 0 0 0-.07.126.192.192 0 0 0 .198.186.308.308 0 0 0 .183-.064.229.229 0 0 0 .085-.12.715.715 0 0 0 .014-.174v-.072zm-.48-.292-.32-.059a.506.506 0 0 1 .187-.29c.089-.063.221-.095.396-.095.159 0 .277.02.355.057a.352.352 0 0 1 .164.144c.032.058.048.165.048.32l-.004.418c0 .119.006.207.017.263a.766.766 0 0 0 .064.182h-.354c-.01-.024-.02-.058-.034-.105l-.013-.04a.616.616 0 0 1-.195.133.55.55 0 0 1-.221.045.46.46 0 0 1-.327-.113.38.38 0 0 1-.12-.287.363.363 0 0 1 .207-.342 1.2 1.2 0 0 1 .283-.084c.167-.031.283-.06.347-.088v-.036c0-.07-.017-.12-.051-.149-.034-.03-.098-.044-.193-.044a.259.259 0 0 0-.149.038.27.27 0 0 0-.087.132zM7.902 3.112H5.468c0-.4-.047-.67-.14-.806C5.183 2.103 4.783 2 4.129 2c-.635 0-1.056.059-1.262.176-.205.117-.308.372-.308.764 0 .355.091.59.274.701.13.08.303.127.518.14l.491.035c1.052.07 1.709.12 1.97.148.833.084 1.436.306 1.81.666.294.28.47.648.526 1.1.032.272.049.579.049.92 0 .785-.075 1.36-.225 1.725-.27.669-.879 1.091-1.826 1.269-.397.075-1.004.112-1.82.112-1.363 0-2.313-.081-2.849-.245-.658-.2-1.092-.606-1.302-1.218C.058 7.953 0 7.386 0 6.592h2.433v.203c0 .424.122.696.364.817.168.084.37.128.609.133H4.3c.456 0 .748-.023.874-.07.223-.089.37-.23.44-.428a1.6 1.6 0 0 0 .056-.47c0-.429-.156-.69-.468-.784-.117-.037-.66-.089-1.628-.154-.778-.056-1.318-.11-1.62-.161C1.157 5.528.626 5.22.36 4.753c-.233-.397-.35-.997-.35-1.8 0-.612.064-1.103.19-1.472S.529.832.81.641c.41-.295.935-.468 1.574-.52a20.62 20.62 0 0 1 1.77-.07c1.021 0 1.749.06 2.183.177 1.059.285 1.588 1.085 1.588 2.4 0 .108-.008.269-.023.484m13.316 1.863h1.63c.518-.019.832-.06.945-.121.155-.086.259-.257.31-.513.033-.17.05-.424.05-.76 0-.414-.033-.72-.099-.92-.094-.28-.32-.45-.676-.511-.07-.01-.24-.015-.507-.015h-1.653v2.84zm-2.615 4.782V0h4.873c.668 0 1.178.055 1.529.164.801.252 1.339.769 1.614 1.549.143.41.214 1.026.214 1.849 0 .99-.08 1.7-.235 2.134-.313.857-.956 1.35-1.927 1.477-.115.02-.6.037-1.46.05l-.433.015h-1.56v2.52h-2.615zM31.897 6.17 30.67 1.94l-1.19 4.23h2.416zm.52 1.9h-3.498l-.47 1.687h-2.706L28.663 0h3.946l2.956 9.757h-2.65l-.499-1.686zM14.992 1.373c1.08 0 2.042.499 2.675 1.28l.564-1.213A4.932 4.932 0 0 0 14.825.087a4.902 4.902 0 0 0-4.548 3.019h-1.1l-.649 1.397h1.415a4.648 4.648 0 0 0 .006.866h-.71l-.65 1.398h1.722a4.904 4.904 0 0 0 4.514 2.935 4.943 4.943 0 0 0 2.756-.833V7.156a3.43 3.43 0 0 1-5.473-.39h3.605l.649-1.397h-4.784a3.498 3.498 0 0 1-.02-.866h5.206l.65-1.397h-5.406a3.444 3.444 0 0 1 2.984-1.733" mask="url(#b)"/><path fill="#FFF" d="M12.008 3.148h5.406l-.039-.06-.648 1.397.037-.024H11.52l-.004.038a3.516 3.516 0 0 0 .021.877l.005.035h4.82l-.038-.06-.649 1.398.038-.024H12.03l.042.065a3.48 3.48 0 0 0 2.92 1.587c1 0 1.956-.435 2.62-1.193l-.073-.028v1.713l.018-.035a4.899 4.899 0 0 1-2.733.826c-1.956 0-3.713-1.142-4.476-2.91l-.01-.025H8.59l.038.06.649-1.398-.039.024h.757l-.004-.046a4.698 4.698 0 0 1-.006-.859l.003-.045h-1.46l.038.06.65-1.398-.038.025h1.127l.01-.027A4.791 4.791 0 0 1 12.073.968a4.89 4.89 0 0 1 2.752-.839c1.267 0 2.466.476 3.377 1.34l-.01-.047-.563 1.213.07-.008a3.47 3.47 0 0 0-2.707-1.296 3.5 3.5 0 0 0-3.02 1.754l-.037.063h.073zm2.984-1.733c1.028 0 1.991.46 2.642 1.265l.042.052.029-.06.564-1.215.012-.027-.022-.021A4.961 4.961 0 0 0 14.825.045a4.978 4.978 0 0 0-2.799.853 4.862 4.862 0 0 0-1.787 2.191l.038-.025H9.151l-.011.024-.65 1.397-.027.06h1.48L9.9 4.5a4.586 4.586 0 0 0 .007.875l.041-.046h-.737l-.011.024-.65 1.397-.027.06h1.786l-.037-.025c.775 1.798 2.563 2.96 4.552 2.96a4.98 4.98 0 0 0 2.78-.84l.018-.013V7.045l-.073.083a3.4 3.4 0 0 1-2.558 1.166c-1.15 0-2.215-.58-2.849-1.55l-.035.065h3.632l.01-.024.65-1.398.028-.06h-4.85l.041.036a3.631 3.631 0 0 1-.02-.856l-.041.038h5.233l.011-.024.65-1.398.027-.06h-5.471l.036.064a3.42 3.42 0 0 1 2.948-1.712z" mask="url(#b)"/></g></svg>