<svg width="56" height="35" fill="none" xmlns="http://www.w3.org/2000/svg"><path d="M9.034 12.024a5.735 5.735 0 0 0-3.63 10.87l.001-.01.008.01.159-.813.06-.294-.003-.001.931-4.793 2.036 3.33h.925l1.294-5.986a4.625 4.625 0 0 1-4.072 7.777l-.235 1.087a5.736 5.736 0 0 0 3.601-10.754l-.004-.005v.002h-.002l-.012.061-1.31 5.968-1.85-3.33H5.82l-1.207 6.031a4.625 4.625 0 0 1 4.202-8.058l.218-1.092z" fill="#008751"/><path d="M20.546 17.46c0 .515-.089.968-.267 1.358a2.03 2.03 0 0 1-.766.897c-.33.207-.71.31-1.142.31-.426 0-.807-.103-1.142-.31a2.08 2.08 0 0 1-.773-.893c-.18-.385-.272-.83-.275-1.333v-.297c0-.513.09-.966.271-1.358.183-.393.44-.693.77-.9a2.09 2.09 0 0 1 1.142-.314c.429 0 .808.103 1.138.31.332.205.589.501.77.89.18.385.272.834.274 1.347v.293zm-.914-.275c0-.583-.11-1.03-.332-1.34-.22-.311-.532-.467-.936-.467-.395 0-.705.156-.929.466-.222.309-.335.746-.34 1.312v.304c0 .578.112 1.025.336 1.34.227.316.54.474.94.474.405 0 .716-.154.932-.463.22-.308.33-.759.33-1.351v-.275zm2.555-1.142.025.452c.29-.35.669-.524 1.139-.524.814 0 1.228.466 1.242 1.398v2.584h-.878V17.42c0-.248-.054-.431-.162-.55-.106-.12-.28-.18-.524-.18-.354 0-.618.16-.791.48v2.783h-.879v-3.91h.828zm4.239 3.91h-.878v-5.55h.878v5.55zm1.894 0h-.879v-3.91h.878v3.91zm-.933-4.925a.47.47 0 0 1 .126-.336c.087-.09.21-.134.369-.134s.282.045.368.134c.087.089.13.2.13.336a.458.458 0 0 1-.13.332c-.086.087-.21.13-.368.13-.16 0-.282-.043-.369-.13a.465.465 0 0 1-.126-.332zm2.706 1.015.026.452c.289-.35.668-.524 1.138-.524.814 0 1.229.466 1.243 1.398v2.584h-.878V17.42c0-.248-.054-.431-.163-.55-.106-.12-.28-.18-.524-.18-.354 0-.618.16-.791.48v2.783h-.878v-3.91h.827zm5.027 3.982c-.557 0-1.008-.174-1.355-.524-.345-.351-.517-.819-.517-1.402v-.108c0-.39.075-.738.224-1.044a1.685 1.685 0 0 1 1.546-.976c.533 0 .944.17 1.233.51.291.34.437.82.437 1.441v.354h-2.555c.027.323.134.579.322.767a.98.98 0 0 0 .715.281c.403 0 .73-.162.983-.487l.474.451a1.592 1.592 0 0 1-.63.546c-.26.128-.552.191-.877.191zm-.105-3.35a.745.745 0 0 0-.585.254c-.147.168-.241.403-.282.704h1.673v-.065c-.02-.294-.098-.515-.235-.665-.137-.151-.328-.227-.571-.227zm6.617 3.278h-.915l-2.345-3.733v3.733h-.914v-5.261h.914l2.352 3.747v-3.747h.908v5.261zm3.331 0a1.351 1.351 0 0 1-.101-.365c-.28.292-.622.437-1.026.437-.393 0-.713-.112-.962-.336a1.075 1.075 0 0 1-.372-.83c0-.418.154-.737.463-.958.31-.224.754-.336 1.33-.336h.538v-.257c0-.202-.056-.364-.17-.484-.113-.123-.285-.184-.516-.184a.77.77 0 0 0-.492.151.46.46 0 0 0-.191.38h-.878a.96.96 0 0 1 .213-.6c.142-.188.334-.335.578-.441a2.05 2.05 0 0 1 .82-.159c.458 0 .823.116 1.095.347.272.229.412.552.42.968v1.764c0 .351.049.632.147.842v.061h-.896zm-.965-.632a.99.99 0 0 0 .488-.127.842.842 0 0 0 .347-.34v-.736h-.473c-.325 0-.57.056-.734.17a.55.55 0 0 0-.246.48c0 .168.056.303.167.405a.662.662 0 0 0 .451.148zm3.567.632h-.878v-3.91h.878v3.91zm-.932-4.925a.47.47 0 0 1 .126-.336c.087-.09.21-.134.369-.134s.282.045.368.134c.087.089.13.2.13.336a.458.458 0 0 1-.13.332c-.086.087-.21.13-.368.13-.16 0-.282-.043-.369-.13a.465.465 0 0 1-.126-.332zm3.938 1.818a2.17 2.17 0 0 0-.357-.03c-.403 0-.674.155-.813.463v2.674h-.879v-3.91h.839l.022.438c.212-.34.505-.51.881-.51.125 0 .23.017.311.05l-.004.825zm2.783 3.107a1.351 1.351 0 0 1-.101-.365c-.28.292-.622.437-1.027.437-.392 0-.713-.112-.96-.336a1.075 1.075 0 0 1-.373-.83c0-.418.154-.737.463-.958.31-.224.754-.336 1.33-.336h.538v-.257a.679.679 0 0 0-.17-.484c-.113-.123-.285-.184-.517-.184-.2 0-.364.05-.491.151a.46.46 0 0 0-.192.38h-.878c0-.215.071-.415.213-.6.142-.188.335-.335.578-.441a2.05 2.05 0 0 1 .82-.159c.458 0 .823.116 1.096.347.272.229.412.552.419.968v1.764c0 .351.05.632.148.842v.061h-.896zm-.965-.632a.99.99 0 0 0 .488-.127.842.842 0 0 0 .347-.34v-.736h-.474c-.325 0-.57.056-.733.17a.55.55 0 0 0-.246.48c0 .168.056.303.166.405a.662.662 0 0 0 .452.148z" fill="#fff"/></svg>