<svg xmlns="http://www.w3.org/2000/svg" width="32" height="32" fill="none"><path fill="#85ACB0" d="M6.455 0A2.499 2.499 0 0 0 4 2.536V29.46a2.497 2.497 0 0 0 2.455 2.536l19.09.004A2.499 2.499 0 0 0 28 29.464V10L18 .004 6.455 0Z"/><path fill="#BBCCCE" d="M18 0v8.351a1.54 1.54 0 0 0 .122.623c.083.198.207.379.365.532.157.153.345.275.553.36.208.084.431.13.658.133H28L18 0Z"/><path fill="#fff" d="M23 13.998H9a1 1 0 0 0 0 2h14a1 1 0 0 0 0-2ZM23 19.997H9a1 1 0 0 0 0 2h14a1 1 0 0 0 0-2ZM23 25.997H9a1 1 0 0 0 0 2h14a1 1 0 0 0 0-2Z"/><path fill="#BBCCCE" d="m10.391 9.733-.286-.951H8.77l-.287.95h-.882l1.318-4h1.077l1.3 4h-.905Zm-.945-3.21h-.029l-.441 1.52h.917l-.447-1.52ZM11.85 5.733h1.507c.264 0 .505.042.722.126.218.084.403.21.556.378.153.164.271.373.356.625.084.248.126.539.126.87 0 .333-.042.626-.127.878a1.745 1.745 0 0 1-.355.624 1.471 1.471 0 0 1-.556.373 1.99 1.99 0 0 1-.722.126H11.85v-4Zm1.507 3.226c.26 0 .465-.072.614-.217.149-.146.223-.379.223-.7v-.619c0-.32-.075-.554-.224-.699-.149-.145-.353-.217-.613-.217h-.636v2.452h.636Z"/></svg>