<svg xmlns="http://www.w3.org/2000/svg" width="128" height="128"><g fill="none" fill-rule="evenodd"><path d="M0 0h128v128H0z"/><rect width="85" height="66" x="16" y="46" fill="#BBCCCE" fill-rule="nonzero" rx="10" transform="rotate(-180 58.5 79)"/><path fill="#C7E5E5" fill-rule="nonzero" stroke="#85ACB0" d="m31.957 18.091 39.785-.218a2.5 2.5 0 0 1 2.514 2.486l.471 88.289a2.502 2.502 0 0 1-2.486 2.514l-39.786.218a2.5 2.5 0 0 1-2.514-2.486l-.471-88.29a2.5 2.5 0 0 1 2.487-2.513z"/><path fill="#85ACB0" fill-rule="nonzero" d="M38.015 65.16c-.361-8.003 5.83-14.783 13.83-15.145 8-.362 14.778 5.832 15.14 13.835.362 8.002-5.829 14.783-13.828 15.146h-.625c-7.821.173-14.31-6.012-14.517-13.836zm27.583-.15a13.203 13.203 0 0 0-7.727-12.488 13.192 13.192 0 0 0-14.487 2.385 13.207 13.207 0 0 0-3.318 14.307 13.197 13.197 0 0 0 11.956 8.524h.572c7.09.044 12.893-5.635 13.004-12.728z"/><path fill="#85ACB0" fill-rule="nonzero" d="M42.027 63.952h2.134a7.19 7.19 0 0 1 .78-2.888A7.681 7.681 0 0 1 46.544 59l1.904 2.046c-.452.424-.835.92-1.134 1.467a5.109 5.109 0 0 0-.593 1.747h4.172a7.158 7.158 0 0 1 1.771-3.72 3.978 3.978 0 0 1 2.808-1.133 4.074 4.074 0 0 1 2.94 1.069 5.49 5.49 0 0 1 1.427 3.35H62v2.598h-2.135a7.596 7.596 0 0 1-.673 2.408 5.73 5.73 0 0 1-1.4 1.811l-1.957-2.037c.32-.293.6-.628.833-.996.266-.426.452-.899.549-1.394h-3.888a7.892 7.892 0 0 1-1.586 3.621 3.582 3.582 0 0 1-2.799 1.16 4.479 4.479 0 0 1-3.011-1.114 5.347 5.347 0 0 1-1.692-3.386H42l.027-2.545zm13.454-1.44a1.33 1.33 0 0 0-1.045.4c-.295.374-.507.81-.62 1.276h3.428a2.216 2.216 0 0 0-.603-1.313 1.541 1.541 0 0 0-1.116-.39l-.044.028zM48.67 67.81c.352-.003.697-.11.992-.308.393-.304.669-.74.78-1.23h-3.65c.115.46.373.87.735 1.167.353.263.787.388 1.222.353l-.08.018z"/><path fill="#E6E7E8" fill-rule="nonzero" d="m31.2 104.014 8.506-87.867a2.5 2.5 0 0 1 2.729-2.248h.006l39.597 3.933a2.5 2.5 0 0 1 2.241 2.729l-8.506 87.868a2.5 2.5 0 0 1-2.729 2.247h-.006l-39.597-3.933a2.5 2.5 0 0 1-2.241-2.729z"/><path fill="#C7E5E5" fill-rule="nonzero" stroke="#85ACB0" d="m32.594 103.755 8.505-87.868a2.5 2.5 0 0 1 2.73-2.247h.006l39.597 3.933a2.5 2.5 0 0 1 2.241 2.728l-8.506 87.868a2.502 2.502 0 0 1-2.73 2.248l-.005-.001-39.597-3.933a2.499 2.499 0 0 1-2.241-2.728z"/><path fill="#85ACB0" fill-rule="nonzero" d="M45.043 60.67c.458-7.99 7.3-14.098 15.284-13.646 7.986.451 14.095 7.291 13.65 15.282-.445 7.99-7.275 14.11-15.26 13.672l-.625-.053c-7.813-.608-13.655-7.437-13.049-15.256zm27.425 2.69a13.192 13.192 0 0 0-6.39-13.208 13.173 13.173 0 0 0-14.639.878 13.196 13.196 0 0 0-4.766 13.878 13.183 13.183 0 0 0 11.006 9.698l.554.07c7.044.774 13.395-4.275 14.235-11.316z"/><path fill="#85ACB0" fill-rule="nonzero" d="m49.28 59.579 2.106.203a7.414 7.414 0 0 1 1.061-2.866A7.57 7.57 0 0 1 54.202 55l1.666 2.276c-.475.383-.89.844-1.228 1.363a5.21 5.21 0 0 0-.754 1.75l4.096.434c.34-1.4 1.07-2.66 2.097-3.621a3.858 3.858 0 0 1 2.877-.848 3.985 3.985 0 0 1 2.833 1.456 5.721 5.721 0 0 1 1.08 3.547l2.131.221-.246 2.635-2.131-.23a7.617 7.617 0 0 1-.877 2.368A5.675 5.675 0 0 1 64.193 68l-1.754-2.266a5.4 5.4 0 0 0 .877-.922 4.32 4.32 0 0 0 .675-1.354l-3.824-.378a8.132 8.132 0 0 1-1.921 3.446 3.492 3.492 0 0 1-2.878.921 4.419 4.419 0 0 1-2.824-1.53 5.544 5.544 0 0 1-1.351-3.565L49 62.112l.28-2.533zm13.395 0a1.287 1.287 0 0 0-1.061.304c-.333.34-.588.757-.746 1.216l3.378.341a2.315 2.315 0 0 0-.5-1.336 1.59 1.59 0 0 0-1.035-.553l-.036.028zm-7.201 4.607c.347.034.697-.036 1.008-.203.392-.283.677-.7.807-1.18l-3.587-.368c.068.478.28.92.605 1.262.323.3.736.473 1.167.489z"/><path fill="#E6E7E8" fill-rule="nonzero" d="m33.764 99.123 22.177-85.38a2.5 2.5 0 0 1 3.048-1.791l.016.004 38.48 10.254a2.5 2.5 0 0 1 1.776 3.045l-22.177 85.38a2.5 2.5 0 0 1-3.048 1.791l-.015-.004-38.48-10.254a2.501 2.501 0 0 1-1.777-3.045z"/><path fill="#C7E5E5" fill-rule="nonzero" stroke="#85ACB0" d="m35.19 99.09 22.177-85.38a2.5 2.5 0 0 1 3.049-1.79l.015.003 38.48 10.255a2.5 2.5 0 0 1 1.777 3.044l-22.177 85.38a2.5 2.5 0 0 1-3.048 1.791l-.016-.004-38.48-10.254a2.5 2.5 0 0 1-1.776-3.044z"/><path fill="#85ACB0" fill-rule="nonzero" d="M54.407 58.34c1.74-7.809 9.466-12.727 17.26-10.992 7.795 1.736 12.713 9.47 10.989 17.282-1.725 7.812-9.439 12.747-17.237 11.028l-.614-.15a14.17 14.17 0 0 1-8.75-6.426 14.223 14.223 0 0 1-1.648-10.743zm26.604 7.032c2.087-6.947-1.84-14.275-8.774-16.37-6.933-2.095-14.249 1.835-16.344 8.78-2.095 6.946 1.823 14.278 8.754 16.382l.544.15c6.813 1.87 13.86-2.107 15.794-8.915l.026-.027z"/><path fill="#85ACB0" fill-rule="nonzero" d="m58.665 58.565 2.068.534a7.031 7.031 0 0 1 1.5-2.566A7.34 7.34 0 0 1 64.309 55l1.278 2.433a5.729 5.729 0 0 0-1.465 1.105 4.819 4.819 0 0 0-1.011 1.506l4.028 1.07a6.94 6.94 0 0 1 2.618-3.075 3.979 3.979 0 0 1 3.008-.348c1.08.24 2.02.904 2.609 1.845.582 1.09.77 2.35.532 3.565l2.094.561-.612 2.468-2.094-.56a6.985 6.985 0 0 1-1.26 2.111A5.615 5.615 0 0 1 72.259 69l-1.375-2.442a4.76 4.76 0 0 0 1.056-.73c.366-.334.667-.733.887-1.177l-3.762-.98a7.829 7.829 0 0 1-2.45 2.985c-.9.551-1.991.688-2.998.375a4.578 4.578 0 0 1-2.662-1.854 5.195 5.195 0 0 1-.799-3.618L58 60.979l.665-2.414zm13.381 2.138a1.347 1.347 0 0 0-1.136.08 3.152 3.152 0 0 0-.887 1.043l3.319.891a2.171 2.171 0 0 0-.302-1.363 1.617 1.617 0 0 0-.985-.668l-.009.017zm-7.906 3.27c.339.105.7.105 1.038 0 .436-.202.788-.552.994-.988l-3.55-.891c-.004.469.139.927.41 1.31.275.339.662.569 1.09.65l.018-.08z"/><rect width="86" height="66" x="19" y="49" fill="#E0F0F0" fill-rule="nonzero" rx="10" transform="rotate(-180 62 82)"/><path stroke="#FFF" stroke-dasharray="3.11" stroke-linecap="round" stroke-linejoin="round" stroke-width="1.05" d="M23 106.5h79"/><path stroke="#FFF" stroke-linecap="round" stroke-linejoin="round" stroke-width="1.05" d="M103 106.5h1m-85-48h1"/><path stroke="#FFF" stroke-dasharray="3.11" stroke-linecap="round" stroke-linejoin="round" stroke-width="1.05" d="M23 58.5h79"/><path stroke="#FFF" stroke-linecap="round" stroke-linejoin="round" stroke-width="1.05" d="M103 58.5h1"/><path fill="#FFF" fill-rule="nonzero" d="M14.538 89.965c-1.87-.02-3.412-1.452-3.538-3.29V75.21c.165-1.803 1.69-3.19 3.53-3.21h12.602C32.022 72 36 75.528 36 79.787v2.426C36 86.508 32.023 90 27.132 90H14.538v-.035z"/><path fill="#E5E5E5" fill-rule="nonzero" d="M14.861 72.887h12.155c4.475 0 8.12 3.32 8.12 7.393v2.44c0 4.074-3.645 7.393-8.12 7.393H14.87c-1.583.013-2.901-1.244-3.006-2.867V75.71c.126-1.59 1.417-2.818 2.972-2.822h.025zM14.836 72c-2.02 0-3.695 1.604-3.836 3.674v11.599c.115 2.094 1.803 3.73 3.844 3.727h12.172C31.966 91 36 87.282 36 82.72v-2.44C36 75.7 31.974 72 27.016 72h-12.18z"/><path fill="#BCCDCE" fill-rule="nonzero" d="M22 81.472a4.5 4.5 0 1 0 1.318-3.154A4.499 4.499 0 0 0 22 81.5v-.028z"/></g></svg>