<svg xmlns="http://www.w3.org/2000/svg" width="40" height="40"><g fill="none"><path fill="var(--fill-color1)" d="M11.097 20.563c1.475 0 1.9.938 1.9 1.938l.004 1.671c-.006.37.016.74.065 1.107h-1.05l-.075-.51h-.028a1.705 1.705 0 0 1-1.356.625 1.367 1.367 0 0 1-1.447-1.368c0-1.163 1.028-1.747 2.728-1.738v-.1c0-.313-.122-.803-.938-.803-.434.001-.86.119-1.234.34l-.228-.756a3.335 3.335 0 0 1 1.66-.406zm11.897-1.728v5.15c0 .472.019.981.038 1.294h-1.039l-.047-.728h-.018a1.652 1.652 0 0 1-1.5.83c-1.094 0-1.963-.937-1.963-2.35 0-1.537.938-2.455 2.056-2.455.507-.036.997.193 1.294.606h.019v-2.347h1.16zm-15.94 1.74c.762 0 1.537.522 1.537 1.994v2.71H7.457v-2.541c0-.763-.266-1.216-.822-1.216a.886.886 0 0 0-.813.625 1.645 1.645 0 0 0-.056.388v2.756H4.635v-2.675c0-.64-.256-1.094-.794-1.094a.908.908 0 0 0-.831.666c-.046.12-.068.249-.066.378v2.719H1.813v-3.234c0-.529 0-.972-.038-1.37h1l.038.679h.028c.294-.5.836-.8 1.416-.784a1.326 1.326 0 0 1 1.275.85h.018c.14-.234.335-.431.566-.576.274-.19.604-.287.938-.274zm9.278 0c.8 0 1.631.522 1.631 1.976v2.728h-1.16v-2.597c0-.66-.246-1.16-.877-1.16a.973.973 0 0 0-.907.666c-.036.123-.051.25-.047.378v2.7h-1.171v-3.215c0-.529 0-.972-.038-1.37h1.019l.056.691h.031c.309-.51.867-.814 1.463-.796zm8.668.107v4.597h-1.184v-4.597H25zm3.375 0v1.019a1.582 1.582 0 0 0-.337-.038 1.023 1.023 0 0 0-1.038.878 2.074 2.074 0 0 0-.037.36v2.378h-1.156v-3.116c0-.625 0-1.066-.038-1.481h1.01l.037.875h.038a1.263 1.263 0 0 1 1.25-.875c.09-.01.181-.01.271 0zm1.716 0v4.597h-1.168v-4.597h1.17zm-19.818 3.21a.626.626 0 0 0 .666.659.938.938 0 0 0 .906-.625.865.865 0 0 0 .038-.257l-.007-.637c-.821-.019-1.603.16-1.603.86zm10.535-2.438c-.747 0-1.163.659-1.163 1.518 0 .86.416 1.454 1.153 1.454a1.026 1.026 0 0 0 1-.822c.028-.112.04-.226.038-.341v-.678c0-.105-.009-.21-.028-.313a1.016 1.016 0 0 0-1-.818z"/><path fill="#FAB900" d="M37.376 15.822c-.582-.662-1.197-.362-1.685-.118-.206.1-1.694.937-1.694.937a1.446 1.446 0 0 1-1.696-.34.532.532 0 0 1-.063-.094l-.06-.1a4.293 4.293 0 0 0-.312-.488 3.1 3.1 0 0 0-.234-.265c-.556-.563-1.447-.957-2.938-.244-.703.41-3 1.722-3 1.722-.6.287-1.318.124-1.734-.394l-.025-.04-.028-.047-.157-.232c-.062-.1-.13-.2-.209-.312-.078-.113-.15-.181-.234-.269-.556-.56-1.44-.938-2.916-.25l-2.965 1.697-1.52.869.785.962c.473.552 1.26.715 1.913.397l2.665-1.54c2.269-1.25 3.388-.057 3.881.737.02.025.032.053.047.075v.025l.057.094c.23.37.638.595 1.075.59a1.34 1.34 0 0 0 .668-.225l2.578-1.468c2.297-1.25 3.438 0 3.922.8.038.067.08.132.125.193.22.335.594.535.994.532.22-.022.434-.091.625-.204l3.078-1.778a12.83 12.83 0 0 0-.944-1.222z"/></g></svg>