<svg width="110" height="76" fill="none" xmlns="http://www.w3.org/2000/svg"><path d="M81.095 28.108H27.783c-2.328 0-4.215 1.878-4.215 4.196v2.154c0 2.317 1.887 4.196 4.215 4.196h53.312c2.328 0 4.215-1.879 4.215-4.196v-2.154c0-2.318-1.887-4.197-4.215-4.197Z" fill="#fff"/><path d="M97.407.503H6.51C3.439.503.95 2.981.95 6.038V56.88c0 3.057 2.489 5.535 5.559 5.535h90.898c3.07 0 5.559-2.478 5.559-5.535V6.04c0-3.058-2.489-5.536-5.559-5.536Z" fill="#C6E4E4"/><path d="M96.963 1.006c2.79 0 5.053 2.253 5.053 5.032V56.88c0 2.78-2.263 5.032-5.053 5.032H6.064c-2.79 0-5.053-2.253-5.053-5.032V6.04c0-2.78 2.262-5.033 5.053-5.033h90.898Zm0-1.006H6.064C2.714 0 0 2.703 0 6.038V56.88c0 3.335 2.715 6.038 6.064 6.038h90.898c3.35 0 6.064-2.703 6.064-6.038V6.04c0-3.336-2.714-6.039-6.063-6.039Z" fill="#F2F2F2"/><path d="M85.038 14.076H19.444c-.725 0-1.313.556-1.313 1.241v1.544c0 .685.588 1.24 1.313 1.24h65.594c.725 0 1.313-.555 1.313-1.24v-1.544c0-.685-.588-1.24-1.313-1.24ZM85.038 24.14H19.444c-.725 0-1.313.555-1.313 1.24v1.545c0 .685.588 1.24 1.313 1.24h65.594c.725 0 1.313-.555 1.313-1.24V25.38c0-.686-.588-1.241-1.313-1.241ZM65.632 34.203H19.443c-.724 0-1.312.556-1.312 1.241v1.544c0 .685.588 1.24 1.313 1.24h46.188c.725 0 1.313-.555 1.313-1.24v-1.544c0-.685-.588-1.24-1.313-1.24ZM57.547 44.267H19.444c-.725 0-1.313.555-1.313 1.24v1.545c0 .685.588 1.24 1.313 1.24h38.103c.725 0 1.312-.555 1.312-1.24v-1.544c0-.686-.587-1.241-1.312-1.241Z" fill="#fff"/><path d="M88.321 76C100.294 76 110 66.335 110 54.414c0-11.922-9.706-21.587-21.679-21.587-11.972 0-21.678 9.665-21.678 21.587C66.643 66.335 76.349 76 88.32 76Z" fill="#FF6444"/><path d="m88.321 39.389-.01 15.025h14.099" stroke="#fff" stroke-width="2" stroke-linecap="round" stroke-linejoin="round"/></svg>