<svg width="117" height="31" fill="none" xmlns="http://www.w3.org/2000/svg"><path d="m0 15.498 9.222 5.456 9.233-5.456L9.222.186 0 15.498Z" fill="#fff"/><path d="m0 17.253 9.222 13.001 9.234-13-9.234 5.443L0 17.253ZM48.25 6.5a.75.75 0 0 0-1.5 0v15a.75.75 0 0 0 1.5 0V17a2.75 2.75 0 1 1 5.5 0v4.5a.75.75 0 0 0 1.5 0V17a4.25 4.25 0 0 0-7-3.24V6.5Zm54 7.26a4.232 4.232 0 0 1 2.75-1.01c1.452 0 2.733.728 3.5 1.838A4.25 4.25 0 0 1 116.25 17v4.5a.75.75 0 0 1-1.5 0V17a2.75 2.75 0 1 0-5.5 0v4.5a.75.75 0 0 1-1.5 0V17a2.75 2.75 0 1 0-5.5 0v4.5a.75.75 0 0 1-1.5 0v-8a.75.75 0 0 1 1.5 0v.26Zm-11.5-.26a.75.75 0 0 0-1.5 0V18a4.25 4.25 0 0 0 7 3.24v.26a.75.75 0 0 0 1.5 0v-8a.75.75 0 0 0-1.5 0V18a2.75 2.75 0 1 1-5.5 0v-4.5Zm-20 2.988V13.5a.75.75 0 0 1 1.5 0v.227c.638-.555 1.53-.977 2.75-.977a.75.75 0 0 1 0 1.5c-1.196 0-1.858.576-2.25 1.166a3.62 3.62 0 0 0-.493 1.129l-.007.03V21.5a.75.75 0 0 1-1.5 0v-5.012ZM41.25 10.5a.75.75 0 0 0-1.5 0v2.25H38a.75.75 0 0 0 0 1.5h1.75v7.25a.75.75 0 0 0 1.5 0v-7.25H43a.75.75 0 0 0 0-1.5h-1.75V10.5Z" fill="#fff"/><path fill-rule="evenodd" clip-rule="evenodd" d="M27.03 13.442a4.75 4.75 0 0 1 7.22 4.058.75.75 0 0 1-.75.75h-7.162a3.25 3.25 0 0 0 5.776 1.182.75.75 0 1 1 1.206.891 4.75 4.75 0 1 1-6.29-6.88Zm-.692 3.308h6.324a3.25 3.25 0 0 0-6.324 0Zm34.692-3.308a4.75 4.75 0 0 1 7.22 4.058v.75h-7.912a3.25 3.25 0 0 0 5.776 1.182.75.75 0 1 1 1.206.891 4.75 4.75 0 1 1-6.29-6.88Zm-.692 3.308h6.324a3.25 3.25 0 0 0-6.324 0Zm19.692-3.308a4.75 4.75 0 0 1 7.22 4.058v.75h-7.912a3.25 3.25 0 0 0 5.776 1.182.75.75 0 1 1 1.206.891 4.75 4.75 0 1 1-6.29-6.88Zm-.692 3.308h6.324a3.25 3.25 0 0 0-6.324 0Z" fill="#fff"/></svg>
