<svg width="56" height="35" fill="none" xmlns="http://www.w3.org/2000/svg"><path d="M11.307 23.188H8.694a.777.777 0 0 1-.664-.362L6.781 20.85l-1.248 1.976a.777.777 0 0 1-.665.361H2.256a.504.504 0 0 1-.399-.813l2.937-4.667-2.964-4.689c-.221-.361.045-.768.443-.768H5.02c.221 0 .398.09.487.271l1.275 2.027 1.276-2.027c.088-.18.265-.271.487-.271h2.745c.399 0 .665.407.443.768L8.77 17.707l2.937 4.667a.504.504 0 0 1-.399.814z" fill="#fff"/><path fill-rule="evenodd" clip-rule="evenodd" d="M19.813 20.688h-1.38l-.55-1.425H15.4l-.506 1.424h-1.332l2.435-6.25h1.333l2.482 6.25zm-2.344-2.528-.828-2.344-.827 2.344h1.655z" fill="#fff"/><path d="M21.408 20.642v-6.204h1.482l2.639 4.105v-4.105h1.296v6.204h-1.389l-2.731-4.334v4.334h-1.297zm28.467-6.204v6.204h4.375v-1.195h-3.002v-5.01h-1.373z" fill="#fff"/><path fill-rule="evenodd" clip-rule="evenodd" d="M29.517 18.28v2.407h-1.096v-6.25h2.368c1.009 0 1.798.834 1.798 1.899s-.789 1.898-1.798 1.898l-1.272.046zm0-1.018h.57c.44 0 .702-.047.834-.093.131-.046.263-.185.35-.324a.973.973 0 0 0 .132-.51c0-.23-.044-.416-.175-.555a.903.903 0 0 0-.439-.278c-.131-.046-.395-.046-.745-.046h-.527v1.806zm10.916.301a3.116 3.116 0 0 1-3.125 3.125 3.115 3.115 0 0 1-3.125-3.125c0-1.742 1.4-3.125 3.125-3.125a3.115 3.115 0 0 1 3.125 3.124zm-3.125-1.965a1.976 1.976 0 0 0-1.959 1.964c0 1.072.887 1.965 1.96 1.965a1.976 1.976 0 0 0 1.958-1.965 1.976 1.976 0 0 0-1.959-1.964zm7.846 5.09a3.115 3.115 0 0 0 3.125-3.125c0-1.742-1.4-3.125-3.125-3.125a3.115 3.115 0 0 0-3.125 3.124c0 1.742 1.4 3.125 3.125 3.125zm-1.959-3.125c0-1.072.886-1.965 1.96-1.965 1.072 0 1.958.893 1.958 1.964a1.976 1.976 0 0 1-1.959 1.965 1.976 1.976 0 0 1-1.959-1.965z" fill="#fff"/></svg>