<svg width="72" height="45" fill="none" xmlns="http://www.w3.org/2000/svg"><path d="M40.922 21.77c-.409 0-.778-.064-1.107-.191a2.26 2.26 0 0 1-.838-.58 2.72 2.72 0 0 1-.537-.96 4.331 4.331 0 0 1-.19-1.349c0-.507.063-.957.19-1.349.127-.398.306-.73.537-.995.23-.27.51-.475.838-.614a2.827 2.827 0 0 1 1.108-.207c.559 0 1.02.115 1.383.346.364.225.655.582.874 1.072l-1.133.588a1.3 1.3 0 0 0-.38-.605c-.168-.156-.416-.234-.745-.234-.386 0-.697.127-.934.38-.23.249-.346.612-.346 1.09v.97c0 .478.116.844.346 1.098.237.248.548.372.934.372.323 0 .58-.087.77-.26.196-.179.34-.392.433-.64l1.072.623c-.225.461-.522.819-.89 1.072-.364.248-.825.372-1.385.372zm3.126-.105v-4.54h1.28v.986h.043a1.347 1.347 0 0 1 .346-.684 1.176 1.176 0 0 1 .813-.302h.225v1.193h-.32c-.375 0-.655.05-.84.147-.178.098-.267.28-.267.545v2.655h-1.28zm5.348.105a2.46 2.46 0 0 1-.925-.165 2.03 2.03 0 0 1-.692-.476 2.133 2.133 0 0 1-.424-.752 3.288 3.288 0 0 1-.138-.986c0-.358.046-.68.138-.969a2.1 2.1 0 0 1 .407-.752c.184-.208.409-.367.674-.476.265-.115.568-.173.908-.173.375 0 .695.063.96.19.271.127.49.297.658.51.173.214.296.462.371.744.081.277.122.568.122.874v.38H48.54v.07c0 .3.08.539.242.717.162.173.415.26.761.26.266 0 .482-.052.649-.156.167-.11.323-.24.467-.389l.64.796a2.02 2.02 0 0 1-.796.553 2.894 2.894 0 0 1-1.107.2zm-.026-3.806c-.26 0-.464.086-.614.26-.144.166-.216.391-.216.674v.069h1.591v-.078c0-.277-.063-.499-.19-.666-.121-.173-.311-.26-.57-.26zm5.773 2.94H55.1c-.034.121-.09.237-.164.346a1.178 1.178 0 0 1-.64.45 1.26 1.26 0 0 1-.415.07c-.577 0-1.012-.203-1.306-.606-.294-.41-.441-1-.441-1.773 0-.773.147-1.361.44-1.765.295-.403.73-.605 1.307-.605.294 0 .553.08.778.242.23.162.378.37.441.623h.043v-2.62h1.28v6.4h-1.28v-.762zm-.839-.173c.243 0 .442-.057.597-.173a.584.584 0 0 0 .242-.493v-1.34a.561.561 0 0 0-.242-.485c-.155-.12-.354-.181-.597-.181a.794.794 0 0 0-.605.26c-.156.166-.233.394-.233.683v.787c0 .288.077.518.233.691a.804.804 0 0 0 .605.251zm3.956-4.091c-.26 0-.45-.057-.57-.172a.638.638 0 0 1-.173-.459v-.19c0-.185.057-.335.173-.45.12-.121.31-.181.57-.181.26 0 .447.06.563.181a.593.593 0 0 1 .181.45v.19c0 .185-.06.337-.181.459-.116.115-.303.172-.563.172zm-.64.485h1.28v4.54h-1.28v-4.54zm4.066 4.54c-.444 0-.78-.112-1.011-.337-.225-.225-.338-.553-.338-.986V18.12h-.64v-.994h.32c.173 0 .291-.04.355-.121a.605.605 0 0 0 .095-.364v-.743h1.15v1.228h.9v.994h-.9v2.552h.83v.994h-.76zM38.25 29.713l2.17-6.024h1.056l-2.17 6.024H38.25zm5.784-5.976h2.274c.398 0 .761.063 1.09.19.329.127.608.317.839.57.23.249.41.563.536.943.127.375.19.813.19 1.315s-.063.943-.19 1.323a2.637 2.637 0 0 1-.536.943 2.22 2.22 0 0 1-.839.562c-.329.127-.692.19-1.09.19h-2.274v-6.036zm2.274 4.869c.392 0 .7-.11.926-.329.225-.219.337-.57.337-1.055v-.934c0-.484-.112-.836-.337-1.055-.225-.22-.534-.329-.926-.329h-.96v3.702h.96zm5.667 1.271a2.46 2.46 0 0 1-.925-.164 2.03 2.03 0 0 1-.692-.476 2.13 2.13 0 0 1-.424-.752 3.287 3.287 0 0 1-.138-.986c0-.358.046-.68.138-.969.093-.294.228-.545.407-.752.184-.208.41-.366.674-.476.266-.115.568-.173.908-.173.375 0 .695.063.96.19.271.127.49.297.658.51.173.214.297.462.372.744.08.277.12.568.12.874v.38H51.12v.07c0 .3.08.539.242.718.162.172.416.259.761.259.266 0 .482-.052.65-.156a2.75 2.75 0 0 0 .466-.389l.64.796a2.02 2.02 0 0 1-.796.553 2.892 2.892 0 0 1-1.107.2zm-.026-3.805c-.259 0-.464.086-.614.26-.144.166-.216.391-.216.674v.069h1.592v-.078c0-.277-.064-.499-.19-.666-.122-.173-.312-.26-.572-.26zm3.166-2.699h1.28v2.62h.043a1.07 1.07 0 0 1 .432-.622 1.34 1.34 0 0 1 .788-.242c.576 0 1.011.202 1.306.605.294.404.44.992.44 1.765 0 .772-.147 1.363-.44 1.773-.295.403-.73.605-1.306.605-.15 0-.292-.023-.424-.069a1.318 1.318 0 0 1-.364-.173 1.189 1.189 0 0 1-.432-.623h-.043v.761h-1.28v-6.4zm2.119 5.466a.78.78 0 0 0 .596-.25c.162-.173.243-.404.243-.692v-.787c0-.289-.081-.516-.242-.684a.767.767 0 0 0-.597-.26.98.98 0 0 0-.606.183.568.568 0 0 0-.233.484v1.34c0 .208.078.372.233.493.162.116.364.173.606.173zm3.76-4.091c-.26 0-.45-.057-.571-.172a.638.638 0 0 1-.173-.459v-.19a.61.61 0 0 1 .173-.45c.121-.12.311-.181.57-.181.26 0 .448.06.563.181a.593.593 0 0 1 .181.45v.19c0 .185-.06.337-.181.459-.115.115-.303.172-.562.172zm-.64.485h1.28v4.54h-1.28v-4.54zm4.066 4.54c-.444 0-.782-.112-1.012-.337-.225-.225-.337-.553-.337-.986v-2.223h-.64v-.994h.32c.172 0 .29-.04.354-.121a.605.605 0 0 0 .095-.363v-.744h1.15v1.228h.9v.994h-.9v2.552h.83v.994h-.76z" fill="#fff"/><path d="M31.725 10.688h-17.55a2.027 2.027 0 0 0-2.025 2.024v11.476c0 1.117.908 2.024 2.025 2.024h17.55a2.027 2.027 0 0 0 2.025-2.024V12.713a2.027 2.027 0 0 0-2.025-2.025zm2.025 6.493h-21.6v-2.518h21.6v2.518z" fill="#FF444F"/><path d="M26.325 18.788H8.775a2.027 2.027 0 0 0-2.025 2.025v11.475c0 1.117.908 2.025 2.025 2.025h17.55a2.027 2.027 0 0 0 2.025-2.025V20.813a2.027 2.027 0 0 0-2.025-2.025z" fill="#122D96"/><path fill-rule="evenodd" clip-rule="evenodd" d="M28.35 26.213v-5.4a2.027 2.027 0 0 0-2.025-2.025H12.15v5.4c0 1.117.908 2.025 2.025 2.025H28.35z" fill="#122D96"/><path fill-rule="evenodd" clip-rule="evenodd" d="M24.752 21.396a1.221 1.221 0 1 1 0 2.444H21.92a1.222 1.222 0 1 1 0-2.444h2.832zm0-.675H21.92a1.898 1.898 0 0 0 0 3.794h2.832a1.896 1.896 0 1 0 0-3.794zM8.839 30.468h3.31v1.013H8.84v-1.013zm4.705 0h3.31v1.013h-3.31v-1.013zm8.012 0h-3.311v1.013h3.31v-1.013zm1.394 0h3.31v1.013h-3.31v-1.013zm-14.111-7.63v.306c0 .362.293.655.655.655h.6v-.962H8.84zm0-.747c0-.36.293-.654.655-.654h.604v.962h-1.26v-.308zm1.694 1.708h.604a.653.653 0 0 0 .655-.655v-1.053a.655.655 0 0 0-.655-.654h-.604v2.362z" fill="#fff"/></svg>