<svg xmlns="http://www.w3.org/2000/svg" xmlns:xlink="http://www.w3.org/1999/xlink" width="40" height="40"><defs><path id="a" d="M0 13.75h36.875V0H0z"/></defs><g transform="translate(1.563 13.125)" fill="none" fill-rule="evenodd"><path fill="#BD202E" d="M34.351 0H2.524C1.132 0 0 1.1 0 2.453v8.844c0 1.353 1.132 2.453 2.524 2.453H34.35c1.392 0 2.524-1.1 2.524-2.453V2.453C36.875 1.1 35.743 0 34.351 0"/><path fill="#FFF" d="M2.639.625c-1.11 0-2.014.864-2.014 1.927v8.646c0 1.062.903 1.927 2.014 1.927h31.597c1.11 0 2.014-.865 2.014-1.927V2.552c0-1.063-.903-1.927-2.014-1.927H2.64z"/><path fill="#414141" d="M2.681 9.678V5.042h-.81v-.707h.81v-.582c0-.354.042-.624.104-.81.062-.23.229-.417.436-.562.23-.125.541-.208.936-.208.291 0 .561.042.852.083l-.145.79c-.187-.02-.354-.042-.54-.042-.271 0-.479.063-.583.167-.125.125-.166.353-.166.665v.499h1.04v.707h-1.04v4.636H2.68z"/><mask id="b" fill="#fff"><use xlink:href="#a"/></mask><path fill="#414141" d="M5.301 9.678h.914v-7.38h-.914zm2.993-3.181h2.994c-.042-.457-.146-.79-.333-1.019-.29-.353-.665-.52-1.123-.52a1.43 1.43 0 0 0-1.04.416c-.27.27-.477.645-.498 1.123m2.973 1.455.935.125c-.145.54-.416.977-.831 1.268-.395.312-.915.458-1.539.458-.79 0-1.413-.25-1.87-.728-.458-.478-.687-1.164-.687-2.038 0-.893.23-1.6.707-2.1.458-.498 1.06-.748 1.809-.748.707 0 1.31.25 1.746.728.458.478.686 1.164.686 2.058v.25h-3.97c.041.582.207 1.039.498 1.35.291.313.665.458 1.123.458.333 0 .624-.083.852-.27.229-.146.416-.416.54-.81m1.477 1.725 1.954-2.786-1.809-2.557h1.123l.831 1.247c.146.25.27.437.375.603.145-.229.29-.415.415-.582l.894-1.268h1.081l-1.85 2.516 1.996 2.827H16.63l-1.1-1.663-.27-.437-1.414 2.1h-1.102zm10.498-2.703c0 .686.146 1.206.416 1.518.27.332.624.499 1.018.499.396 0 .749-.167 1.04-.5.291-.332.437-.872.437-1.58 0-.685-.146-1.184-.416-1.538-.27-.332-.624-.498-.998-.498-.395 0-.728.187-1.019.54-.332.354-.478.873-.478 1.56zm-.831 4.698v-7.4h.831v.706c.187-.27.416-.478.665-.623.25-.146.54-.208.894-.208.458 0 .853.125 1.206.353.353.229.624.562.79.998.166.437.27.894.27 1.414 0 .54-.104 1.04-.29 1.476-.188.436-.479.77-.853.998-.374.228-.77.353-1.185.353a1.78 1.78 0 0 1-.81-.187 1.89 1.89 0 0 1-.583-.478v2.598h-.935zm5.758-2.058h.915V4.273h-.915v5.342zm0-6.34h.915v-1.04h-.915v1.04zm2.287 6.34V4.273h.81v.769c.396-.582.957-.873 1.705-.873.312 0 .603.062.894.166.27.125.478.27.603.457a2.1 2.1 0 0 1 .291.666c.042.166.063.457.063.873v3.284h-.936V6.372c0-.374-.042-.644-.104-.831a.964.964 0 0 0-.374-.437 1.29 1.29 0 0 0-.645-.166c-.395 0-.727.125-.997.374-.27.25-.416.707-.416 1.393v2.91h-.894z" mask="url(#b)"/><path fill="#BD202E" d="M18.917 7.1s-.042-1.809 1.185-1.746c1.226.062-.582 1.829-1.185 1.746m.146.935s1.372-.498 1.975-1.33c.602-.832.748-1.996-.583-2.37-1.268-.353-2.245.707-2.577 1.85-.208.686-.915 4.49 3.139 3.243 0 0 .665-.27 1.455-.914V7.1s-2.62 2.411-3.41.935" mask="url(#b)"/></g></svg>