<svg xmlns="http://www.w3.org/2000/svg" width="32" height="32"><g fill="none"><path fill="#85ACB0" d="m15.175 1.14 11.818 2.084a2 2 0 0 1 1.622 2.317l-2.257 12.803L10.6 15.565l2.257-12.802a2 2 0 0 1 2.317-1.623z"/><path fill="#FFF" d="m22.912 26.367 2.691-15.264c-2.394-1.776-3.032-3.92-1.912-6.43L17.782 3.63c.194 2.742-1.139 4.538-3.996 5.388l-2.692 15.264 11.818 2.084z"/><path fill="#85ACB0" d="M7 0h12a2 2 0 0 1 2 2v13H5V2a2 2 0 0 1 2-2z"/><path fill="#FFF" d="M19 23.5V8c-2.667-1.333-3.667-3.333-3-6h-6c.667 2.667-.333 4.667-3 6v15.5h12z"/><path fill="#FF444F" d="M9 10.303a.5.5 0 0 1 .41-.492l.09-.008h.487A2.301 2.301 0 0 1 12.235 8a.5.5 0 1 1 0 1 1.303 1.303 0 0 0-.393 2.546l.124.032L14.07 8h.286c1.1 0 2.02.772 2.249 1.804h.37a.5.5 0 1 1 0 1h-.37a2.304 2.304 0 0 1-2.249 1.802.5.5 0 1 1 0-1 1.303 1.303 0 0 0 .394-2.545l-.124-.033-2.106 3.578h-.286c-1.1 0-2.021-.772-2.249-1.804l-.018.001H9.5a.5.5 0 0 1-.5-.5z"/><path fill="#C7E5E5" d="m0 10 4 4h24a2 2 0 0 1 2 2v14a2 2 0 0 1-2 2H4a4 4 0 0 1-4-4V10z"/><path fill="#C7E5E5" d="M4 6h1v8H4a4 4 0 1 1 0-8z"/><path fill="#2A2A2A" d="M4.5 7H5v7h-.5a3.5 3.5 0 0 1 0-7z"/><path fill="#BCCDCE" d="M23 18h8a1 1 0 0 1 1 1v6a1 1 0 0 1-1 1h-8a4 4 0 1 1 0-8z"/><circle cx="24" cy="22" r="2" fill="#2A2A2A"/></g></svg>