<svg xmlns="http://www.w3.org/2000/svg" width="40" height="40"><g fill="#FFF" fill-rule="evenodd"><path d="M18.915 19.64c1.297 0 1.297-.985 1.297-1.388 0-.895-.46-1.254-1.548-1.254h-1.381v2.642h1.632zm-1.632 4.837h-1.758v-9.002h3.85c1.632 0 2.595 1.075 2.595 2.866 0 .806-.419 2.865-2.678 2.865h-2.009v3.27zm7.174-3.448h2.144l-1.03-3.538h-.042l-1.072 3.538zm-1.031 3.448h-1.814l2.969-9.002h1.98l2.927 9h-1.897l-.536-1.88h-3.052l-.578 1.88zm9.65 0h-1.765v-3.404l-2.897-5.597h2.058l1.764 3.896 1.68-3.896h2.016l-2.856 5.597zM9.338 19.309c.779 0 1.402-.288 1.402-1.039 0-.773-.556-.994-1.446-.994H7.291v6.12h2.425c.957 0 1.513-.42 1.513-1.37 0-.817-.712-1.126-1.424-1.126h-.89v-1.591h.423z"/><path d="M2.148 3.601h1.79V2.16h-1.79zM5.63 2.16v1.604h2.41c2.256 0 2.848 1.408 2.848 2.361 0 1.322-.505 1.647-.877 1.885 1.14.412 1.424 1.3 1.424 2.21 0 .737-.307 1.43-.789 1.907-.547.498-1.051.823-2.935.823H3.77V5.367H2.15v9.035h10.38V2.16h-6.9z" mask="url(#6ppe9m8xcb)" transform="translate(1.563 11.875)"/><path d="M.328 16.232h36.218V.33H.328v15.902zm-.328.33h36.875V0H0v16.563z" mask="url(#6ppe9m8xcb)" transform="translate(1.563 11.875)"/></g></svg>