<svg width="32" height="19" fill="none" xmlns="http://www.w3.org/2000/svg"><path d="M1.906 3.745c.046-.003.084-.006.12-.006.852 0 1.704-.007 2.555.002.455.005.908.049 1.344.2.77.265 1.205.822 1.391 1.594.05.22.071.447.06.672-.022.609-.176 1.18-.509 1.695-.213.329-.5.584-.832.79a3.053 3.053 0 0 1-1.284.426c-.27.028-.54.04-.811.037-.334-.002-.668 0-1.002 0h-.127l-.444 2.256c-.076.025-1.837.032-1.992.008l1.531-7.674zm1.118 3.953h.116c.334 0 .668 0 1-.002a1.8 1.8 0 0 0 .575-.085c.357-.119.638-.33.806-.677.144-.296.2-.607.143-.93-.06-.344-.237-.611-.56-.769a1.591 1.591 0 0 0-.696-.146c-.242-.002-.48 0-.72 0-.03 0-.06.004-.102.007l-.562 2.602zM13.351 5.81l-1.024 5.636h-1.604l.125-.6c-.148.105-.275.2-.406.29-.326.225-.68.38-1.077.415a1.694 1.694 0 0 1-1.239-.365c-.428-.34-.663-.796-.765-1.323a2.713 2.713 0 0 1-.058-.558c.011-.607.129-1.191.409-1.737.427-.832 1.089-1.392 1.966-1.704a4.174 4.174 0 0 1 1.23-.253c.38-.016.764-.027 1.145-.014.424.013.841.087 1.254.187a.33.33 0 0 1 .044.025zm-2.299 3.85.08-.415.387-2.149c.006-.035.006-.071.009-.113-.04-.005-.067-.01-.094-.01a3.491 3.491 0 0 0-.766.062c-.579.119-1.04.413-1.353.922-.189.305-.31.647-.353 1.002-.034.284-.024.562.088.828.12.284.355.488.7.478.15-.003.298-.029.44-.076.324-.111.597-.306.862-.53zm4.919 4.061h-1.784l1.518-2.787-1.923-5.171h1.724l1.086 3.113 1.511-3.112h1.787c-.02.093-3.81 7.788-3.919 7.957z" fill="#0074BB"/><path d="M12.124 18.366h-.347l-.183-.376a2.876 2.876 0 0 0-.143-.265c-.08-.126-.166-.154-.333-.126l-.11.77h-.325c.08-.617.17-1.228.256-1.844.042-.003.072-.008.103-.006.188.005.375.003.561.022.217.022.382.163.421.349.055.263-.026.478-.295.594l-.053.023c.056.094.112.18.16.272.083.16.163.322.243.484.015.029.026.06.045.103zm-.966-1.039c.085 0 .158.008.23-.002a.568.568 0 0 0 .185-.062c.09-.048.129-.13.126-.234-.002-.087-.035-.156-.115-.193a.608.608 0 0 0-.354-.036l-.072.527zm12.412-.81c.237.007.456-.017.673.02a.492.492 0 0 1 .327.794c-.056.068-.122.114-.282.182.102.088.147.208.205.322l.214.429c.015.03.028.062.046.102h-.34c-.013-.024-.031-.052-.046-.083l-.232-.466a.927.927 0 0 0-.064-.107c-.078-.112-.176-.145-.323-.107-.047.25-.062.51-.117.765h-.313c.01-.213.051-.415.08-.619l.083-.607.089-.625zm.218.81c.085 0 .155.007.223 0a.381.381 0 0 0 .25-.112c.116-.126.092-.354-.108-.403a.715.715 0 0 0-.293-.01l-.072.526zm-2.085-.805h1.067l-.038.267h-.74l-.072.497h.652c-.011.098-.02.178-.032.269-.217.02-.431-.002-.659.013l-.075.532h.929l-.037.267h-1.255l.26-1.845zm-8.722.002h1.057l-.039.266h-.74l-.072.497h.655l-.04.274h-.654l-.075.538H14l-.03.255c-.084.026-1.139.029-1.239.006-.026-.065.218-1.69.251-1.835zm4.289 1.355h-.56l-.213.49h-.343c.284-.628.567-1.241.853-1.861h.309c.044.09.352 1.767.339 1.86h-.294l-.091-.489zm-.164-.969-.293.722h.414a6.14 6.14 0 0 0-.121-.722z" fill="#468534"/><path d="M8.524 18.368h-.303c-.06-.155-.054-.325-.105-.488h-.56l-.212.486h-.339l.852-1.858h.324l.343 1.86zm-.55-1.456c-.053.057-.28.612-.294.72h.405l-.111-.72zm-2.022.715-.107.738h-.32c.031-.307.083-.609.123-.912.04-.303.085-.611.126-.91.013-.01.018-.018.023-.018.205-.01.41-.022.613.016a.492.492 0 0 1 .415.411.559.559 0 0 1-.225.567.6.6 0 0 1-.343.108h-.305zm.034-.264c.124.013.24.02.351-.032a.281.281 0 0 0 .164-.307.255.255 0 0 0-.224-.227c-.066-.01-.135-.001-.21-.001l-.08.567z" fill="#0074BB"/><path d="m25.253 18.24.047-.294c.094.046.175.093.262.126.096.037.196.067.304.033.18-.059.231-.225.102-.365-.056-.06-.127-.107-.19-.161-.087-.075-.18-.143-.259-.226a.493.493 0 0 1 .131-.76c.225-.13.458-.12.694-.035.032.012.062.027.104.044l-.045.29c-.036-.015-.062-.029-.09-.037-.088-.028-.176-.063-.267-.078-.139-.023-.269.054-.306.163-.023.065-.017.125.028.176.05.053.102.103.158.15.105.09.223.167.318.268a.507.507 0 0 1 .01.668.541.541 0 0 1-.361.188.945.945 0 0 1-.64-.15zm-10.628-1.716h1.433l-.042.27h-.548l-.223 1.573h-.328l.219-1.57h-.524c-.032-.1.017-.18.013-.273z" fill="#468534"/><path d="M9.571 18.366H9.26l.119-.851-.41-.986c.114-.022.216-.006.321-.011l.278.674c.099-.111.157-.232.233-.341.076-.11.146-.22.218-.328h.34c-.017.031-.028.056-.042.077-.184.274-.366.55-.554.82a.502.502 0 0 0-.084.232c-.028.22-.058.44-.088.66a.328.328 0 0 1-.019.054z" fill="#0074BB"/><path d="M20.783 18.104c-.004.055-.005.09-.01.123-.007.044-.018.088-.026.13-.086.024-.998.025-1.103 0l.257-1.831h.326c-.04.267-.078.526-.115.786l-.112.793.783-.001zm-2.066.266H18.4l.258-1.845h.309c.025.076-.216 1.704-.25 1.844z" fill="#468534"/><path d="m21.801 5.754-1.865 5.664h1.91l.637-2.218h.041s1.056 2.287 3.24 2.406c0 0 2.645.46 4.539-1.638 1.894-2.098 2.321-7.268-2.61-8.89 0 0-2.18-.845-4.965.177a8.535 8.535 0 0 0-4.154 3.3c-.07.103-.14.213-.214.329h1.843s1.689-3.054 6.04-2.577c0 0 2.201-.085 3.395 2.423 1.195 2.509-.529 5.34-2.815 5.46 0 0-1.45.222-2.133-.99l2.253-1.945s.784-.563.563-2.013c-.22-1.45-1.894-1.757-2.372-1.723 0 0-1.962-.273-3.054 1.45l3.14-.017s.613-.068.716.546c.102.614-.392.904-.392.904L22.54 8.928l1.093-3.156-1.832-.018z" fill="#8DB73C"/><path d="M31.457 4.849c-.396-1.575-1.531-3.036-3.764-3.77 0 0-2.18-.846-4.965.176a8.535 8.535 0 0 0-4.154 3.3c-.07.103-.14.213-.214.329h1.843s1.689-3.054 6.04-2.577c0 0 2.201-.085 3.395 2.423a3.96 3.96 0 0 1 .388 1.606c.051 1.94-1.343 3.689-3.096 3.846 1.338-.011 4.536-.488 4.64-4.758a5.45 5.45 0 0 0-.113-.575z" fill="url(#a)"/><defs><linearGradient id="a" x1="18.36" y1="5.466" x2="31.57" y2="5.466" gradientUnits="userSpaceOnUse"><stop stop-color="#8DB73C"/><stop offset=".08" stop-color="#81AF3B"/><stop offset=".3" stop-color="#669C37"/><stop offset=".53" stop-color="#538F35"/><stop offset=".76" stop-color="#488733"/><stop offset="1" stop-color="#448433"/></linearGradient></defs></svg>