<svg width="480" height="160" viewBox="0 0 480 160" xmlns="http://www.w3.org/2000/svg"><title>Metal_Image</title><g fill="none" fill-rule="evenodd"><path fill="#FFF" d="M0 0h480v160H0z"/><g transform="translate(63 18)"><ellipse fill-opacity=".1" fill="#000" cx="176.5" cy="122.5" rx="176.5" ry="2.5"/><g fill-rule="nonzero"><path d="M351.706 118.281h-107.85A1.876 1.876 0 0 1 242 116.42V46.862c0-1.016.844-1.862 1.857-1.862h107.849c1.013 0 1.856.846 1.856 1.862v69.558c0 .846-.843 1.692-1.856 1.861z" fill="#F5F5F5"/><g fill="#FF4B55"><path d="M353.39 50.62H242v-3.746c0-1.022.841-1.874 1.85-1.874h107.522c1.01 0 1.85.852 1.85 1.874l.169 3.747zM242 67.654h111.39v5.62H242zM242 56.412h111.39v5.62H242zM353.39 84.687H243.85c-1.009 0-1.85-.852-1.85-1.874v-3.747h111.39v5.62zM242 101.89h111.39v5.62H242zM351.372 118.62H243.85c-1.01 0-1.851-.85-1.851-1.873V113h111.39v3.747c-.168.852-1.009 1.874-2.018 1.874zM242 90.478h111.39v5.62H242z"/></g><path d="M291.564 45h-47.722c-1.005 0-1.842.845-1.842 1.859v35.657c0 1.014.837 1.859 1.842 1.859h47.722c1.005 0 1.842-.845 1.842-1.859V46.86c0-1.014-.837-1.859-1.842-1.859z" fill="#41479B"/><g fill="#F5F5F5"><path d="M247.488 49.545l.509 1.356h1.358c.17 0 .17.17.17.17v.169l-1.019.848.34 1.356c0 .17 0 .17-.17.17h-.17l-1.018-.848-1.019.848h-.34v-.17l.34-1.356-1.018-.848s-.17-.17 0-.34h1.528l.509-1.355c-.17-.17 0-.17 0 0zM247.488 56.157l.509 1.356h1.358c.17 0 .17.17.17.17v.17l-1.019.847.34 1.357c0 .17 0 .17-.17.17h-.17l-1.018-.849-1.019.848h-.34v-.17l.34-1.356-1.018-.848s-.17-.17 0-.339h1.528l.509-1.356c-.17-.17 0-.17 0 0zM247.488 62.939l.509 1.356h1.358c.17 0 .17.17.17.17v.17l-1.019.847.34 1.357c0 .17 0 .17-.17.17h-.17l-1.018-.849-1.019.848h-.34v-.17l.34-1.356-1.018-.848s-.17-.17 0-.339h1.528l.509-1.356c-.17-.17 0-.17 0 0zM247.488 69.72l.509 1.357h1.358c.17 0 .17 0 .17.17v.17l-1.019.847.34 1.357c0 .17 0 .17-.17.17h-.17l-1.018-.849-1.019.848h-.34v-.17l.34-1.356-1.018-.848s-.17-.17 0-.339h1.528l.509-1.356c-.17-.17 0-.17 0 0zM247.488 76.333l.509 1.357h1.358c.17 0 .17 0 .17.17v.169l-1.019.848.34 1.356c0 .17 0 .17-.17.17h-.17l-1.018-.848-1.019.848h-.34v-.17l.34-1.356-1.018-.848s-.17-.17 0-.34h1.528l.509-1.356c-.17-.17 0-.17 0 0zM252.75 52.766l.509 1.356h1.358c.17 0 .17.17.17.17v.17l-1.019.847.34 1.357c0 .17 0 .17-.17.17h-.17l-1.018-.849-1.019.848h-.34v-.17l.34-1.356-1.018-.848s-.17-.17 0-.339h1.527l.51-1.356c-.17-.17 0-.17 0 0zM252.75 59.548l.509 1.356h1.358c.17 0 .17.17.17.17v.17l-1.019.847.34 1.357c0 .17 0 .17-.17.17h-.17l-1.018-.849-1.019.848h-.34v-.17l.34-1.356-1.018-.848s-.17-.17 0-.339h1.527l.51-1.356c-.17-.17 0-.17 0 0zM252.75 66.16l.509 1.357h1.358c.17 0 .17.17.17.17v.169l-1.019.848.34 1.356c0 .17 0 .17-.17.17h-.17l-1.018-.848-1.019.848h-.34v-.17l.34-1.356-1.018-.848s-.17-.17 0-.34h1.527l.51-1.356c-.17-.17 0-.17 0 0zM252.75 72.942l.509 1.357h1.358c.17 0 .17.17.17.17v.169l-1.019.848.34 1.356c0 .17 0 .17-.17.17h-.17l-1.018-.848-1.019.848h-.34v-.17l.34-1.356-1.018-.848s-.17-.17 0-.34h1.527l.51-1.356c-.17-.17 0-.17 0 0zM258.012 49.545l.509 1.356h1.358c.17 0 .17.17.17.17v.169l-1.02.848.34 1.356c0 .17 0 .17-.17.17h-.17l-1.017-.848-1.019.848h-.34v-.17l.34-1.356-1.018-.848s-.17-.17 0-.34h1.527l.51-1.355c-.34-.17 0-.17 0 0zM258.012 56.157l.509 1.356h1.358c.17 0 .17.17.17.17v.17l-1.189.847.34 1.357c0 .17 0 .17-.17.17h-.17l-1.018-.849-1.019.848h-.34v-.17l.34-1.356-1.018-.848s-.17-.17 0-.339h1.528l.509-1.356c-.17-.17.17-.17.17 0zM258.012 62.939l.509 1.356h1.358c.17 0 .17.17.17.17v.17l-1.02.847.34 1.357c0 .17 0 .17-.17.17h-.17l-1.017-.849-1.019.848h-.34v-.17l.34-1.356-1.018-.848s-.17-.17 0-.339h1.527l.51-1.356c-.34-.17 0-.17 0 0zM258.012 69.72l.509 1.357h1.358c.17 0 .17.17.17.17v.17l-1.02.847.34 1.357c0 .17 0 .17-.17.17h-.17l-1.017-.849-1.019.848h-.34v-.17l.34-1.356-1.018-.848s-.17-.17 0-.339h1.527l.51-1.356c-.34-.17 0-.17 0 0zM258.012 76.333l.509 1.357h1.358c.17 0 .17 0 .17.17v.169l-1.02.848.34 1.356c0 .17 0 .17-.17.17h-.17l-1.017-.848-1.019.848h-.34v-.17l.34-1.356-1.018-.848s-.17-.17 0-.34h1.527l.51-1.356c-.34-.17 0-.17 0 0zM263.273 52.766l.51 1.356h1.357c.17 0 .17.17.17.17v.17l-1.018.847.34 1.357c0 .17 0 .17-.17.17h-.17l-1.019-.849-1.018.848h-.34v-.17l.34-1.356-1.018-.848s-.17-.17 0-.339h1.527l.51-1.356c-.34-.17-.17-.17 0 0zM263.273 59.548l.51 1.356h1.357c.17 0 .17.17.17.17v.17l-1.018.847.34 1.357c0 .17 0 .17-.17.17h-.17l-1.019-.849-1.018.848h-.34v-.17l.34-1.356-1.018-.848s-.17-.17 0-.339h1.527l.51-1.356c-.34-.17-.17-.17 0 0zM263.273 66.16l.51 1.357h1.357c.17 0 .17.17.17.17v.169l-1.018.848.34 1.356c0 .17 0 .17-.17.17h-.17l-1.019-.848-1.018.848h-.34v-.17l.34-1.356-1.018-.848s-.17-.17 0-.34h1.527l.51-1.356c-.34-.17-.17-.17 0 0zM263.273 72.942l.51 1.357h1.357c.17 0 .17.17.17.17v.169l-1.018.848.34 1.356c0 .17 0 .17-.17.17h-.17l-1.019-.848-1.018.848h-.34v-.17l.34-1.356-1.018-.848s-.17-.17 0-.34h1.527l.51-1.356c-.34-.17-.17-.17 0 0zM268.535 49.545l.51 1.356h1.357c.17 0 .17.17.17.17v.169l-1.018.848.34 1.356c0 .17 0 .17-.17.17h-.17l-1.019-.848-1.018.848h-.34v-.17l.34-1.356-1.019-.848s-.17-.17 0-.34h1.528l.51-1.355c-.34-.17-.17-.17 0 0zM268.535 56.157l.51 1.356h1.357c.17 0 .17.17.17.17v.17l-1.018.847.34 1.357c0 .17 0 .17-.17.17h-.17l-1.019-.849-1.018.848h-.34v-.17l.34-1.356-1.019-.848s-.17-.17 0-.339h1.528l.51-1.356c-.34-.17-.17-.17 0 0zM268.535 62.939l.51 1.356h1.357c.17 0 .17.17.17.17v.17l-1.018.847.34 1.357c0 .17 0 .17-.17.17h-.17l-1.019-.849-1.018.848h-.34v-.17l.34-1.356-1.019-.848s-.17-.17 0-.339h1.528l.51-1.356c-.34-.17-.17-.17 0 0zM268.535 69.72l.51 1.357h1.357c.17 0 .17.17.17.17v.17l-1.018.847.34 1.357c0 .17 0 .17-.17.17h-.17l-1.019-.849-1.018.848h-.34v-.17l.34-1.356-1.019-.848s-.17-.17 0-.339h1.528l.51-1.356c-.34-.17-.17-.17 0 0zM268.535 76.333l.51 1.357h1.357c.17 0 .17 0 .17.17v.169l-1.018.848.34 1.356c0 .17 0 .17-.17.17h-.17l-1.019-.848-1.018.848h-.34v-.17l.34-1.356-1.019-.848s-.17-.17 0-.34h1.528l.51-1.356c-.34-.17-.17-.17 0 0zM273.627 52.766l.51 1.356h1.357c.17 0 .17.17.17.17v.17l-1.018.847.34 1.357c0 .17 0 .17-.17.17h-.17l-1.019-.849-1.018.848h-.34v-.17l.34-1.356-1.019-.848s-.17-.17 0-.339h1.528l.51-1.356c-.17-.17 0-.17 0 0zM273.627 59.548l.51 1.356h1.357c.17 0 .17.17.17.17v.17l-1.018.847.34 1.357c0 .17 0 .17-.17.17h-.17l-1.019-.849-1.018.848h-.34v-.17l.34-1.356-1.019-.848s-.17-.17 0-.339h1.528l.51-1.356c-.17-.17 0-.17 0 0zM273.627 66.16l.51 1.357h1.357c.17 0 .17.17.17.17v.169l-1.018.848.34 1.356c0 .17 0 .17-.17.17h-.17l-1.019-.848-1.018.848h-.34v-.17l.34-1.356-1.019-.848s-.17-.17 0-.34h1.528l.51-1.356c-.17-.17 0-.17 0 0zM273.627 72.942l.51 1.357h1.357c.17 0 .17.17.17.17v.169l-1.018.848.34 1.356c0 .17 0 .17-.17.17h-.17l-1.019-.848-1.018.848h-.34v-.17l.34-1.356-1.019-.848s-.17-.17 0-.34h1.528l.51-1.356c-.17-.17 0-.17 0 0zM278.89 49.545l.508 1.356h1.358c.17 0 .17.17.17.17v.169l-1.018.848.339 1.356c0 .17 0 .17-.17.17h-.17l-1.018-.848-1.018.848h-.34v-.17l.34-1.356-1.019-.848s-.17-.17 0-.34h1.528l.51-1.355c-.34-.17-.17-.17 0 0 0-.17 0-.17 0 0zM278.89 56.157l.508 1.356h1.358c.17 0 .17.17.17.17v.17l-1.018.847.339 1.357c0 .17 0 .17-.17.17h-.17l-1.018-.849-1.018.848h-.34v-.17l.34-1.356-1.019-.848s-.17-.17 0-.339h1.528l.51-1.356c-.34-.17 0-.17 0 0zM278.89 62.939l.508 1.356h1.358c.17 0 .17.17.17.17v.17l-1.018.847.339 1.357c0 .17 0 .17-.17.17h-.17l-1.018-.849-1.018.848h-.34v-.17l.34-1.356-1.019-.848s-.17-.17 0-.339h1.528l.51-1.356c-.34 0-.17-.17 0 0 0-.17 0 0 0 0zM278.89 69.72l.508 1.357h1.358c.17 0 .17.17.17.17v.17l-1.018.847.339 1.357c0 .17 0 .17-.17.17h-.17l-1.018-.849-1.018.848h-.34v-.17l.34-1.356-1.019-.848s-.17-.17 0-.339h1.528l.51-1.356c-.34-.17 0-.17 0 0zM278.89 76.333l.508 1.357h1.358c.17 0 .17 0 .17.17v.169l-1.018.848.339 1.356c0 .17 0 .17-.17.17h-.17l-1.018-.848-1.018.848h-.34v-.17l.34-1.356-1.019-.848s-.17-.17 0-.34h1.528l.51-1.356c-.34 0-.17-.17 0 0zM284.151 52.766l.51 1.356h1.357c.17 0 .17.17.17.17v.17l-1.019.847.34 1.357c0 .17 0 .17-.17.17h-.17l-1.018-.849-1.018.848h-.34v-.17l.34-1.356-1.019-.848s-.17-.17 0-.339h1.528l.509-1.356c-.34 0-.17-.17 0 0-.17 0 0 0 0 0zM284.151 59.548l.51 1.356h1.357c.17 0 .17.17.17.17v.17l-1.019.847.34 1.357c0 .17 0 .17-.17.17h-.17l-1.018-.849-1.018.848h-.34v-.17l.34-1.356-1.019-.848s-.17-.17 0-.339h1.528l.509-1.356c-.34-.17-.17-.17 0 0zM284.151 66.16l.51 1.357h1.357c.17 0 .17.17.17.17v.169l-1.019.848.34 1.356c0 .17 0 .17-.17.17h-.17l-1.018-.848-1.018.848h-.34v-.17l.34-1.356-1.019-.848s-.17-.17 0-.34h1.528l.509-1.356c-.34 0-.17 0 0 0-.17 0 0 0 0 0zM284.151 72.942l.51 1.357h1.357c.17 0 .17.17.17.17v.169l-1.019.848.34 1.356c0 .17 0 .17-.17.17h-.17l-1.018-.848-1.018.848h-.34v-.17l.34-1.356-1.019-.848s-.17-.17 0-.34h1.528l.509-1.356c-.34 0-.17-.17 0 0-.17-.17 0 0 0 0zM289.243 49.545l.51 1.356h1.357c.17 0 .17.17.17.17v.169l-1.018.848.339 1.356c0 .17 0 .17-.17.17h-.17l-1.018-.848-1.018.848h-.34v-.17l.34-1.356-1.019-.848s-.17-.17 0-.34h1.528l.51-1.355c-.17-.17-.17-.17 0 0 0-.17 0-.17 0 0zM289.243 56.157l.51 1.356h1.357c.17 0 .17.17.17.17v.17l-1.018.847.339 1.357c0 .17 0 .17-.17.17h-.17l-1.018-.849-1.018.848h-.34v-.17l.34-1.356-1.019-.848s-.17-.17 0-.339h1.528l.51-1.356c-.17-.17 0-.17 0 0zM289.243 62.939l.51 1.356h1.357c.17 0 .17.17.17.17v.17l-1.018.847.339 1.357c0 .17 0 .17-.17.17h-.17l-1.018-.849-1.018.848h-.34v-.17l.34-1.356-1.019-.848s-.17-.17 0-.339h1.528l.51-1.356c-.17 0-.17-.17 0 0 0-.17 0 0 0 0zM289.243 69.72l.51 1.357h1.357c.17 0 .17 0 .17.17v.17l-1.018.847.339 1.357c0 .17 0 .17-.17.17h-.17l-1.018-.849-1.018.848h-.34v-.17l.34-1.356-1.019-.848s-.17-.17 0-.339h1.528l.51-1.356c-.17-.17 0-.17 0 0zM289.243 76.333l.51 1.357h1.357c.17 0 .17 0 .17.17v.169l-1.018.848.339 1.356c0 .17 0 .17-.17.17h-.17l-1.018-.848-1.018.848h-.34v-.17l.34-1.356-1.019-.848s-.17-.17 0-.34h1.528l.51-1.356c-.17 0-.17-.17 0 0z"/></g></g><g fill-rule="nonzero"><path d="M60.54 107.54c13.857-13.856 13.857-36.312 0-50.148-13.856-13.856-36.292-13.856-50.148 0-13.856 13.856-13.856 36.292 0 50.148 13.856 13.857 36.292 13.857 50.148 0z" fill="#EFB533"/><path d="M60.54 107.54c13.857-13.856 13.857-36.312 0-50.148L10.392 107.54c13.856 13.857 36.292 13.857 50.148 0z" fill="#E5AA17"/><path d="M57.197 104.197c12.004-12.003 12.004-31.458 0-43.462-12.003-12.003-31.458-12.003-43.462 0-12.003 12.004-12.003 31.459 0 43.462 12.004 12.004 31.459 12.004 43.462 0z" fill="#F4DE7F"/><path d="M57.197 104.197c12.004-12.003 12.004-31.458 0-43.462l-43.462 43.462c12.004 12.004 31.459 12.004 43.462 0z" fill="#F2D55A"/><path d="M47.248 71.853c0 2.255-2.558 3.866-2.719 3.665-1.913-2.215-5.176-3.867-8.499-3.867-3.363 0-5.417 1.51-5.417 3.766 0 2.619 2.759 3.323 6.626 4.17 4.612 1.006 10.694 2.86 10.694 9.445 0 5.075-3.525 8.58-9.385 9.486v1.953c0 2.316-.907 3.424-2.92 3.424h-.262c-2.115 0-2.86-1.047-2.86-3.424v-1.853c-6.082-.644-9.547-3.423-9.547-6.223 0-2.155 2.417-3.726 2.619-3.524 1.913 2.316 5.619 4.209 9.546 4.209 3.565 0 5.619-1.51 5.619-3.766 0-2.76-3.122-3.525-6.787-4.37-4.41-.947-10.251-2.72-10.251-9.345 0-4.814 3.423-8.278 8.841-9.285v-1.853c0-2.316.846-3.424 2.86-3.424h.302c2.054 0 2.86 1.048 2.86 3.424v1.712c5.619.604 8.68 3.102 8.68 5.68z" fill="#E5AA17"/><g fill="#F2D55A"><path d="M40.763 89.314c0-2.76-3.122-3.525-6.787-4.37-.262-.06-.544-.121-.826-.182l-5.78 5.78c2.034 1.49 4.834 2.558 7.754 2.558 3.585-.02 5.64-1.51 5.64-3.786z"/><path d="M57.197 60.735l-10.11 10.11c.1.323.161.665.161 1.008 0 2.255-2.558 3.866-2.719 3.665a10.501 10.501 0 0 0-1.067-1.047l-5.317 5.317c4.471 1.067 9.788 3.081 9.788 9.244 0 5.075-3.525 8.58-9.385 9.486v1.953c0 2.316-.907 3.424-2.92 3.424h-.262c-2.115 0-2.86-1.047-2.86-3.424v-1.853c-4.632-.503-7.734-2.215-8.962-4.249l-9.829 9.828c12.004 12.004 31.459 12.004 43.462 0 12.024-12.003 12.024-31.458.02-43.462z"/></g><g fill="#EFB533"><path d="M25.598 88.87c-.202-.2-2.618 1.35-2.618 3.525 0 .665.201 1.35.584 1.974l3.826-3.827a10.277 10.277 0 0 1-1.792-1.671zM37.259 79.586c-3.867-.846-6.626-1.55-6.626-4.169 0-2.255 2.054-3.766 5.417-3.766 2.76 0 5.499 1.148 7.432 2.82l3.605-3.605c-.685-2.195-3.625-4.15-8.479-4.673v-1.712c0-2.356-.805-3.423-2.86-3.423h-.302c-2.014 0-2.86 1.107-2.86 3.423v1.853c-5.417 1.007-8.841 4.471-8.841 9.285 0 6.223 5.136 8.156 9.425 9.163l4.995-4.994c-.322-.08-.624-.141-.906-.202z"/></g><path d="M44.53 75.518c.14.201 2.718-1.41 2.718-3.665 0-.343-.06-.665-.161-1.007l-3.605 3.605c.383.342.725.684 1.047 1.067z" fill="#E5AA17"/></g><g fill-rule="nonzero"><path fill="#F6C358" d="M183.671 82.23h-37.024l-5.301 36.785h47.627z"/><path fill="#FCD462" d="M183.671 82.23h-37.024l-5.301 36.785 33.542-12.93z"/><path fill="#F6C358" d="M231.167 82.23h-37.025l-5.301 36.785h47.627z"/><path fill="#FCD462" d="M231.167 82.23h-37.025l-5.301 36.785 33.542-12.93z"/><path fill="#F6C358" d="M278.929 82.23h-37.025l-5.301 36.785h47.627z"/><path fill="#FCD462" d="M278.929 82.23h-37.025l-5.301 36.785 33.542-12.93z"/><path fill="#F6C358" d="M207.419 42.392h-37.024l-5.302 36.785h47.627z"/><path fill="#FCD462" d="M207.419 42.392h-37.024l-5.302 36.785 33.542-12.931z"/><path fill="#F6C358" d="M255.18 42.392h-37.023l-5.302 36.785h47.627z"/><path fill="#FCD462" d="M255.18 42.392h-37.023l-5.302 36.785 33.542-12.931z"/><path fill="#F6C358" d="M231.3 2.554h-37.024l-5.302 36.784h47.627z"/><path fill="#FCD462" d="M231.3 2.554h-37.024l-5.302 36.784 33.542-12.93z"/><g><path fill="#C2C2C2" d="M88.52 82.21H50.99l-5.374 37.12h48.278z"/><path fill="#DEDEDE" d="M88.147 82.21H50.943l-5.327 37.12 33.704-13.049z"/><path fill="#C2C2C2" d="M136.797 82.21h-37.53l-5.373 37.12h48.277z"/><path fill="#DEDEDE" d="M136.424 82.21H99.221l-5.327 37.12 33.704-13.049z"/><path fill="#C2C2C2" d="M183.925 82.21h-37.53l-5.373 37.12h48.277z"/><path fill="#DEDEDE" d="M183.552 82.21h-37.203l-5.327 37.12 33.704-13.049z"/><path fill="#C2C2C2" d="M112.659 40.965h-37.53l-5.374 37.12h48.278z"/><path fill="#DEDEDE" d="M112.285 40.965H75.082l-5.327 37.12 33.704-13.048z"/><path fill="#C2C2C2" d="M159.787 40.965h-37.53l-5.374 37.12h48.278z"/><path fill="#DEDEDE" d="M159.413 40.965H122.21l-5.327 37.12 33.704-13.048z"/><path fill="#C2C2C2" d="M136.797 1.096H99.268l-5.374 37.12h48.277z"/><path fill="#DEDEDE" d="M136.424 1.096H99.221l-5.327 37.12 33.704-13.05z"/></g></g></g></g></svg>