<svg width="80" height="80" xmlns="http://www.w3.org/2000/svg"><g fill="none" fill-rule="evenodd"><path d="M53.351 2.914C32.795-4.556 9.907 6.04 2.437 26.649c-7.47 20.61 3.179 43.444 23.735 50.914 20.556 7.47 43.444-3.126 50.914-23.735 7.47-20.61-3.179-43.444-23.735-50.914z" fill="#2A3052" fill-rule="nonzero"/><path d="M56.506 28.699v4.358L62 30.194v6.55l-5.494 2.864v8.587c-.02 4.466-1.368 8.12-4.04 10.96-2.674 2.84-6.299 4.433-10.875 4.78L39.999 64c-4.971 0-8.934-1.398-11.888-4.195a13.451 13.451 0 0 1-2.868-3.906L18 59.673v-6.55l5.71-2.976c-.056-.61-.087-1.24-.092-1.887v-2.423L18 48.764v-6.55l5.618-2.928V16h5.928v32.065c0 3.426.905 6.087 2.715 7.984 1.81 1.897 4.39 2.845 7.738 2.845 3.391 0 5.986-.943 7.786-2.829 1.799-1.886 2.699-4.542 2.699-7.967V16h6.022v6.148L62 19.285v6.55L56.506 28.7z" fill="#FFF"/></g></svg>