<svg xmlns="http://www.w3.org/2000/svg" width="300" height="112" viewBox="0 0 300 112"><g fill="none" fill-rule="evenodd"><path fill="#F68D11" fill-rule="nonzero" d="M84.004 38.62l-17.562-5.818V7.724l17.614 5.15V38.62m4.534-25.747l17.613-5.15-.104 25.078-17.51 5.819V12.874m14.07-7.88L86.14 0 69.986 4.995 86.14 9.32l16.52-4.274m25.639 33.575l-17.562-5.82V7.725l17.614 5.15V38.62m4.534-25.747l17.613-5.15-.104 25.078-17.51 5.819V12.874m14.07-7.88L130.436 0l-16.154 4.995 16.154 4.325 16.52-4.274M17.614 49.59L0 44.439v25.078l17.562 5.82V49.588m4.585 0l17.614-5.15-.156 25.078-17.458 5.82V49.588m14.018-7.879l-16.363-5.046L3.648 41.71l16.154 4.274 16.363-4.274m25.691 33.626l-17.561-5.819V44.388l17.614 5.15v25.747m4.533-25.696l17.614-5.15-.104 25.078-17.458 5.82V49.588M80.46 41.71l-16.363-5.046-16.154 5.046 16.154 4.274L80.46 41.71M39.71 112l-17.562-5.819V81.103l17.614 5.15V112m4.534-25.747l17.614-5.15-.105 25.078L44.294 112V86.253m14.071-7.879L41.898 73.38l-16.155 4.995L41.898 82.7l16.415-4.326"/><path fill="#000" fill-rule="nonzero" d="M117.01 90.181h-1.295c-.518 0-1.036.305-1.191.812l-3.936 13.447-3.78-13.396c-.103-.355-.517-.812-1.035-.812h-1.554c-.517 0-.932.507-1.035.863l-3.625 13.345-3.624-13.345c-.208-.508-.829-.812-1.295-.812h-1.864c-.414 0-.777.152-1.036.507 0 .102-.103.305 0 .507l5.696 19.79c.104.507.518.862 1.036.862h1.812c.518 0 1.036-.253 1.14-.76l3.52-13.194 3.832 13.193c.104.406.518.812 1.036.812h1.812c.414 0 .828-.254 1.036-.761l5.436-19.79c0-.253 0-.507-.103-.659-.207-.254-.518-.406-.932-.406l-.052-.203zm15.896 8.423h-9.735c.259-2.638 2.071-5.43 5.023-5.581 3.21.152 4.66 2.841 4.763 5.581h-.051zm-4.764-8.626c-6.524 0-9.528 5.734-9.528 11.011 0 6.596 3.728 10.859 9.476 10.859 4.039 0 7.25-2.03 8.544-5.582v-.558a2.554 2.554 0 0 0-.777-.507l-1.812-.305c-.518 0-1.036.203-1.243.61-.828 2.029-2.434 3.044-4.453 3.196-1.968-.102-3.728-1.218-4.557-2.892-.673-1.421-.776-2.74-.776-4.161h13.203c.311 0 .518-.102.777-.305a.832.832 0 0 0 .26-.609c0-5.074-2.435-10.655-9.062-10.655l-.052-.102zm25.268 11.062c0 1.218-.207 7.256-4.66 7.408-1.45 0-2.9-.863-3.728-2.131-.621-1.015-1.035-2.283-1.035-3.907v-3.552c0-2.74 1.967-5.734 4.815-5.835 4.35.152 4.557 6.698 4.557 8.017h.051zm-3.935-11.163h-.31c-2.175 0-3.936.862-5.178 2.689v-8.322c0-.507-.518-.913-1.036-.913h-1.968c-.518 0-1.035.406-1.035.913v26.03c0 .508.517 1.016 1.035 1.016h.518c.518 0 .932-.508 1.036-.863l.621-1.877c1.398 1.928 3.47 3.044 5.696 3.044h.31c5.852 0 8.492-5.581 8.492-11.062 0-2.74-.724-5.378-1.915-7.205-1.398-2.131-3.78-3.45-6.214-3.45h-.052zm28.894 10.554c-1.191-.863-2.693-1.167-4.143-1.42l-2.848-.508c-2.071-.355-3.262-.914-3.262-2.639 0-1.877 1.968-2.537 3.625-2.638 2.07 0 3.624 1.014 4.35 2.537.206.355.517.609 1.035.609h.155l1.76-.406c.26 0 .518-.254.674-.508.103-.203.155-.507.103-.609-1.139-3.146-3.935-4.77-8.077-4.77-3.78 0-7.767 1.675-7.767 6.242 0 3.146 1.967 5.074 5.954 5.937l3.107.609c1.76.304 3.521.862 3.521 2.74 0 2.689-3.21 3.044-4.142 3.044-2.227-.101-4.66-1.015-5.334-3.044-.103-.508-.673-.812-1.19-.71l-1.865.405c-.258 0-.517.254-.673.508-.155.152-.155.405-.103.608 1.035 3.35 4.297 5.379 8.906 5.43h.103c4.143 0 8.492-1.675 8.492-6.597a5.85 5.85 0 0 0-2.433-4.77l.052-.05zm18.796-1.827h-9.683c.207-2.638 1.967-5.43 4.97-5.581 3.211.152 4.66 2.892 4.66 5.581h.053zm-4.66-8.524c-6.628 0-9.58 5.683-9.58 10.96 0 6.596 3.625 10.808 9.424 10.808 4.143 0 7.25-2.03 8.647-5.582 0-.152 0-.355-.103-.507-.104-.305-.363-.508-.673-.508l-1.864-.406c-.415 0-1.036.153-1.191.66-.88 2.03-2.59 3.045-4.557 3.146-1.916 0-3.728-1.218-4.505-2.892-.673-1.37-.777-2.74-.777-4.06h13.153c.259 0 .517-.202.776-.405.156-.153.26-.356.26-.508 0-5.176-2.434-10.656-9.062-10.656l.051-.05zm21.436.203h-.724c-2.227 0-4.04 1.167-5.282 3.4v-2.03c0-.406-.414-.812-1.036-.812h-1.553c-.518 0-1.036.406-1.036.862v19.18c0 .508.518.914 1.036.914h1.916c.518 0 1.035-.406 1.035-.913v-9.641c0-1.624.156-2.791.932-4.212 1.036-2.03 2.59-3.044 4.66-3.044.622 0 1.036-.508 1.036-1.015v-1.776c0-.507-.414-.913-.932-1.015l-.052.102zm20.143-.305h-1.553c-.415 0-1.036.305-1.191.761l-4.92 15.223-4.97-15.223c-.156-.507-.777-.812-1.243-.812h-2.175c-.414 0-.777.102-1.036.406a.453.453 0 0 0 0 .508l6.835 20.043c.104.355.518.812 1.036.812h2.59c.517 0 .88-.356 1.035-.863l6.731-19.992c0-.254 0-.508-.155-.61-.156-.304-.518-.507-1.036-.507l.052.254zm5.023-7.713c-1.398 0-2.59 1.117-2.59 2.538 0 1.319 1.192 2.435 2.59 2.435s2.589-1.116 2.589-2.537c0-1.32-1.191-2.436-2.59-2.436zm1.035 7.561h-2.071c-.518 0-1.036.406-1.036.913v20.297c0 .304 0 .507.26.71.206.102.517.203.776.203h2.071c.518 0 1.036-.406 1.036-.913V90.739c0-.507-.518-1.015-1.036-1.015v.102zm19.418 13.75h-1.709c-.518 0-.932.305-1.036.813-.673 2.69-2.07 4.06-4.297 4.06-4.246 0-4.557-5.836-4.557-7.612 0-3.552 1.243-7.358 4.66-7.46 2.175 0 3.625 1.523 4.143 3.959.103.507.517.862 1.035.913h1.813c.517 0 1.035-.507.932-1.015-.622-4.313-3.729-7.104-7.767-7.104h-.363c-5.955 0-8.647 5.48-8.647 10.91 0 4.973 2.278 10.757 8.647 10.757h.31c4.04 0 7.043-2.74 7.923-7.205 0-.203-.103-.508-.259-.61-.207-.253-.518-.354-.88-.405h.052zm17.19-4.972h-9.837c.207-2.638 1.967-5.43 4.97-5.581 3.21.152 4.66 2.892 4.66 5.581h.208zm-4.763-8.524c-6.576 0-9.528 5.683-9.528 10.96 0 6.596 3.729 10.808 9.424 10.808 4.143 0 7.25-2.03 8.648-5.582 0-.152 0-.355-.104-.507 0-.305-.31-.508-.621-.508l-1.864-.406c-.415 0-1.036.153-1.191.66-.932 2.03-2.59 3.045-4.66 3.146-1.865 0-3.625-1.218-4.454-2.892-.673-1.37-.776-2.74-.776-4.06h13.1c.259 0 .518-.202.777-.405.155-.153.259-.356.259-.508 0-5.176-2.434-10.656-9.062-10.656l.052-.05zm25.58 10.35c-1.243-.862-2.745-1.166-4.143-1.42l-2.9-.507c-2.071-.355-3.262-.914-3.262-2.639 0-2.435 3.107-2.638 3.625-2.638 2.07 0 3.624 1.014 4.35 2.537.206.355.517.609 1.035.609h.155l1.812-.406c.26 0 .518-.254.674-.508.103-.203.155-.507.103-.609-1.035-3.146-3.883-4.77-8.026-4.77-3.78 0-7.767 1.675-7.767 6.242 0 3.146 1.968 5.074 5.955 5.937l3.107.609c1.812.304 3.624.862 3.624 2.74 0 2.689-3.262 3.044-4.246 3.044-2.07-.101-4.66-.913-5.281-3.044-.104-.508-.673-.812-1.191-.71l-1.864.405c-.26 0-.518.254-.673.508-.156.152-.156.405-.104.608.932 3.35 4.246 5.379 8.803 5.43h.155c4.142 0 8.492-1.675 8.492-6.597 0-1.877-.932-3.653-2.485-4.77l.051-.05z"/><path fill="#000" d="M212.587 48.524v-4.597c0-.766.517-1.226 1.138-1.226h21.103c.672 0 1.19.51 1.19 1.226v3.984c0 .664-.518 1.532-1.552 2.911l-11.017 15.323c4.138 0 8.43.51 12.103 2.554.828.51 1.035 1.174 1.138 1.838v4.955c0 .715-.776 1.532-1.552 1.021-6.517-3.32-15.155-3.677-22.24.102-.777.358-1.553-.408-1.553-1.021v-4.852c0-.664 0-2.043.776-3.065l12.724-17.979h-11.017c-.724 0-1.241-.51-1.241-1.174zm-76.965 29.01h-6.414c-.62 0-1.034-.51-1.138-1.02V43.926c0-.664.517-1.175 1.241-1.175h5.949c.62 0 1.138.51 1.19 1.022v4.29h.103c1.552-4.086 4.5-6.027 8.43-6.027 4.035 0 6.518 1.89 8.277 5.976 1.551-4.086 5.172-6.027 8.948-6.027 2.69 0 5.586 1.021 7.396 3.575 1.966 2.707 1.552 6.64 1.552 10.113V76.36c0 .664-.517 1.175-1.241 1.175H163.5c-.62 0-1.138-.511-1.138-1.175V59.147c0-1.379.103-4.8-.155-6.129-.517-2.145-1.914-2.758-3.776-2.758-1.552 0-3.207 1.022-3.828 2.554-.672 1.685-.62 4.444-.62 6.282V76.36c0 .664-.518 1.175-1.242 1.175h-6.362c-.62 0-1.138-.511-1.138-1.175V59.147c0-3.575.518-8.989-3.982-8.989-4.552 0-4.345 5.21-4.345 8.99V76.36c0 .664-.517 1.175-1.241 1.175h-.052zM254.224 48.78c-4.655 0-5.017 6.333-5.017 10.215 0 4.086 0 12.514 4.966 12.514 4.965 0 5.172-6.844 5.172-10.982 0-2.758 0-6.027-.93-8.682-.673-2.197-2.07-3.065-4.139-3.065h-.052zm0-6.64c9.466 0 14.638 8.019 14.638 18.285 0 9.909-5.69 17.877-14.69 17.877-9.31 0-14.482-8.172-14.482-18.183 0-10.215 5.172-18.03 14.483-18.03l.051.051zm27 35.396h-6.413c-.621 0-1.138-.511-1.138-1.175V43.825c.103-.511.62-1.022 1.241-1.022h5.948c.517 0 1.035.409 1.138.868v5.006h.104c1.81-4.444 4.293-6.64 8.793-6.64 2.793 0 5.69 1.021 7.448 3.882C300 48.473 300 52.916 300 56.032v20.43c0 .613-.517 1.022-1.241 1.022h-6.414c-.62 0-1.035-.409-1.138-1.022V58.841c0-3.575.414-8.683-4.035-8.683-1.551 0-3 1.022-3.724 2.554-.879 2.043-1.034 3.984-1.034 6.129V76.36c0 .664-.517 1.175-1.19 1.175zm-78.982-.051c-.517.357-1.034.357-1.552.102-2.069-1.737-2.586-2.554-3.62-4.188-3.621 3.575-6.104 4.596-10.655 4.596-5.38 0-9.621-3.32-9.621-9.857 0-5.21 2.845-8.683 6.88-10.42 3.516-1.532 8.378-1.787 12.103-2.196v-.817c0-1.533.103-3.32-.776-4.597-.828-1.175-2.328-1.634-3.621-1.634-2.483 0-4.655 1.225-5.172 3.78-.156.51-.518 1.02-1.138 1.123l-6.207-.664c-.517-.153-1.138-.51-1.035-1.38 1.552-7.456 8.276-9.704 14.483-9.704 3.103 0 7.138.818 9.569 3.167 3.103 2.86 2.845 6.64 2.845 10.88v9.908c0 2.962 1.241 4.24 2.43 5.823.415.613.518 1.277 0 1.685-1.344 1.022-3.62 3.065-4.965 4.188l.052.205zm-6.569-15.425c0 2.4 0 4.494-1.19 6.64-1.034 1.838-2.586 2.91-4.396 2.91-2.483 0-3.931-1.838-3.931-4.596 0-5.363 4.862-6.384 9.517-6.384v1.43zm-77.586 15.425c-.413.357-1.034.357-1.551.102-2.07-1.737-2.483-2.554-3.621-4.188-3.517 3.575-6.052 4.596-10.603 4.596-5.38 0-9.621-3.32-9.621-9.857 0-5.21 2.845-8.683 6.88-10.42 3.465-1.532 8.275-1.787 12.05-2.196v-.817c0-1.533.104-3.32-.775-4.597-.776-1.175-2.276-1.634-3.62-1.634-2.432 0-4.656 1.225-5.173 3.78-.103.51-.517 1.02-1.034 1.123l-6.207-.664c-.518-.153-1.19-.51-1.035-1.38 1.448-7.456 8.276-9.704 14.38-9.704 3.103 0 7.24.818 9.724 3.167 3.103 2.86 2.793 6.64 2.793 10.88v9.908c0 2.962 1.241 4.24 2.43 5.823.363.613.518 1.277-.103 1.685-1.293 1.022-3.62 3.065-4.914 4.188v.205zm-6.465-15.425c0 2.4 0 4.494-1.19 6.64-1.034 1.838-2.586 2.91-4.448 2.91-2.586 0-3.931-1.838-3.931-4.596 0-5.363 4.862-6.384 9.517-6.384v1.379l.052.05z"/></g></svg>