<svg xmlns="http://www.w3.org/2000/svg" width="64" height="64" viewBox="0 0 64 64"><g fill="none"><path fill="#FFF" d="M31.858 0C14.303 0 0 14.303 0 31.858s14.303 31.858 31.858 31.858 31.858-14.304 31.858-31.858S49.412 0 31.858 0zm0 61.548c-16.363 0-29.69-13.328-29.69-29.69 0-16.363 13.327-29.69 29.69-29.69 16.362 0 29.69 13.327 29.69 29.69 0 16.362-13.328 29.69-29.69 29.69z"/><path fill="#E98024" d="M46.012 21.631l-14.845 11.92-11.703-5.852c-.542-.216-1.192 0-1.409.434-.216.433 0 1.192.434 1.409l12.353 6.284c.325.217.867.109 1.192-.108L47.42 23.365c.433-.433.542-1.084.108-1.517-.433-.433-1.083-.542-1.517-.217z"/></g></svg>