<svg xmlns="http://www.w3.org/2000/svg" width="81" height="64" viewBox="0 0 81 64"><g fill="none"><path fill="#FFF" stroke="#FFF" stroke-width=".5" d="M40.5 62.833l14.062-5.74-1.185-1.277L40.5 61.08l-18.091-7.336L3.37 60.68l6.162-21.449c-.395-.638-.711-1.276-1.106-1.914L1 63.232l21.409-7.814L40.5 62.833zm22.673-52.387L77.63 60.68l-8.611-3.19c-.395.4-.79.798-1.264 1.197L80 63.152 64.437 9.09l-12.64-2.95-.474.08a31.653 31.653 0 0 1 1.58 1.754l10.27 2.472z"/><path fill="#FFF" stroke="#FFF" stroke-width=".5" d="M32.679 50.554c5.451 0 10.507-1.755 14.615-4.785a2.1 2.1 0 0 0 .474 2.472l14.457 14.353 6.557-6.379-14.378-14.592c-.553-.638-1.501-.797-2.291-.558 3.397-4.306 5.372-9.648 5.372-15.549C57.485 11.721 46.346.478 32.679.478 19.012.478 7.952 11.801 7.952 25.596c0 13.794 11.06 24.958 24.727 24.958zm20.145-7.974c.158 0 .316.08.474.16L66.57 56.214l-4.345 4.226-13.351-13.316a.63.63 0 0 1 0-.877l3.555-3.509a.6.6 0 0 1 .395-.16zM32.679 2.153c12.798 0 23.226 10.525 23.226 23.443 0 12.917-10.428 23.363-23.226 23.363-12.798 0-23.147-10.446-23.147-23.363S19.881 2.153 32.679 2.153z"/><path fill="#E98024" stroke="#E98024" d="M30.388 31.018l-18.407-4.705-.237.798 17.222 4.385-9.401 10.845.632.478zm3.081-5.342l-21.251-5.343-.237.718 21.725 5.502 13.746-15.31-.632-.558zm13.588-4.546l4.503-5.501-.553-.559-5.372 6.539 7.979 1.834.237-.797zm-4.424 5.423l10.902 2.87.158-.797-11.376-2.95L25.253 45.45l.553.479z"/></g></svg>