<svg width="64" height="64" viewBox="0 0 64 64" xmlns="http://www.w3.org/2000/svg"><title>Presentation_Icon</title><g fill-rule="nonzero" fill="none"><g><circle fill="#2A3052" cx="32" cy="32" r="32"/><circle fill="#E68026" cx="32.533" cy="32.533" r="21.867"/><path d="M14.871 32c0-15.115 10.493-27.773 24.596-31.124A32.12 32.12 0 0 0 32.03 0C14.34 0 0 14.327 0 32c0 17.673 14.34 32 32.03 32 2.562 0 5.05-.309 7.437-.876C25.364 59.773 14.87 47.114 14.87 32z" fill="#565B80"/><path d="M21.333 51.2c-3.798-5.26-6.055-11.696-6.055-18.667 0-6.97 2.257-13.405 6.055-18.666-6.381 3.806-10.666 10.73-10.666 18.666 0 7.937 4.285 14.861 10.666 18.667z" fill="#E68026"/></g><path fill="#CCD4DA" d="M25.97 54.766l5.992-6.028 5.992 6.028h3.337l-8.145-8.145V38.98h-2.368v7.642l-8.145 8.145z"/><path d="M15 19v20.452a2.48 2.48 0 0 0 2.476 2.476h29.853a2.48 2.48 0 0 0 2.475-2.476V19H15z" fill="#FFF"/><path d="M49.436 14.078H14.488a2.48 2.48 0 0 0-2.475 2.475 2.48 2.48 0 0 0 2.475 2.476h34.948a2.48 2.48 0 0 0 2.476-2.476 2.48 2.48 0 0 0-2.476-2.475zM24.103 30.586l4.173-4.793a.824.824 0 0 0-.07-1.172.824.824 0 0 0-1.172.069l-4.655 5.344a.84.84 0 0 0 0 1.104l4.655 5.345c.173.172.38.276.621.276a.783.783 0 0 0 .552-.207.737.737 0 0 0 .276-.586c0-.207-.07-.449-.207-.621l-4.173-4.759zM36.966 24.69a.737.737 0 0 0-.587-.276c-.207 0-.448.069-.62.207a.824.824 0 0 0-.07 1.172l4.208 4.793-4.173 4.793a.963.963 0 0 0-.207.621c0 .207.104.414.276.586a.783.783 0 0 0 .552.207.807.807 0 0 0 .62-.276l4.656-5.345a.84.84 0 0 0 0-1.103l-4.655-5.38zM33.483 23.103c-.449-.103-.897.207-1 .656l-2.655 13.31c-.104.448.206.897.655 1h.172a.82.82 0 0 0 .828-.69l2.655-13.31c.103-.448-.172-.862-.655-.966z" fill="#CCD4DA"/></g></svg>