<svg width="32" height="24" xmlns="http://www.w3.org/2000/svg"><g fill="none" fill-rule="evenodd"><g fill-rule="nonzero"><path d="M22.203.013H1.797C.805.013 0 .831 0 1.84v12.322c0 1.008.805 1.826 1.797 1.826h20.406c.992 0 1.797-.818 1.797-1.826V1.839C24 .831 23.195.013 22.203.013z" fill="#0D47A1"/><path d="M23.975 1.537A1.806 1.806 0 0 0 22.203.013h-.468l-7.666 5.102V.013H9.931v5.102L2.265.013h-.468C.906.013.167.673.025 1.537l6.552 4.361H0v4.204h6.577l-6.552 4.36a1.806 1.806 0 0 0 1.772 1.525h.468l7.666-5.102v5.102h4.138v-5.102l7.666 5.102h.468c.891 0 1.63-.66 1.772-1.524l-6.552-4.361H24V5.898h-6.577l6.552-4.36z" fill="#FFF"/><path d="M13.241.013V6.74H24v2.52H13.241v6.726H10.76V9.26H0V6.74h10.759V.013h2.482zM1.162 15.87a1.8 1.8 0 0 1-.73-.52l7.956-5.247h1.52L1.162 15.87zm15.075-5.767l7.527 4.963a1.82 1.82 0 0 1-.576.623l-8.471-5.586h1.52zM.19 1.022C.316.767.5.545.725.374l8.378 5.525h-1.52L.19 1.023zm15.399 4.876h-1.52L22.824.125a1.8 1.8 0 0 1 .735.517l-7.97 5.256z" fill="#F44336"/></g><rect stroke-opacity=".04" stroke="#000" x=".5" y=".5" width="23" height="15" rx="2"/><rect stroke-opacity=".04" stroke="#000" x=".5" y=".5" width="23" height="15" rx="2"/><g transform="translate(8 8)"><g fill-rule="nonzero"><path d="M0 14.16c0 1.01.805 1.827 1.797 1.827h20.406c.992 0 1.797-.818 1.797-1.826V8H0v6.16z" fill="#F44336"/><path d="M22.203.013H1.797C.805.013 0 .831 0 1.84V8h24V1.84C24 .83 23.195.012 22.203.012z" fill="#FFF"/></g><rect stroke-opacity=".04" stroke="#000" x=".5" y=".5" width="23" height="15" rx="2"/></g><rect stroke-opacity=".04" stroke="#000" x="8.5" y="8.5" width="23" height="15" rx="2"/></g></svg>