<svg width="32" height="32" xmlns="http://www.w3.org/2000/svg"><g fill="none" fill-rule="evenodd"><g transform="translate(5 6)"><path fill="#6E7287" d="M3 8h16v10H3z"/><path d="M2 18h18a1 1 0 0 1 1 1H1a1 1 0 0 1 1-1zM1 8h20a1 1 0 0 1-1 1H2a1 1 0 0 1-1-1z" fill="#D2D3DA"/><rect fill="#B0B3BF" y="19" width="22" height="1" rx=".5"/><path fill="#B0B3BF" d="M2.25 9h1.5v9h-1.5z"/><path d="M2.333 17h1.334c.184 0 .333.15.333.333V18H2v-.667c0-.184.15-.333.333-.333zM2 9h2v.667c0 .184-.15.333-.333.333H2.333A.333.333 0 0 1 2 9.667V9z" fill="#E9E9ED"/><path fill="#B0B3BF" d="M7.25 9h1.5v9h-1.5z"/><path d="M7.333 17h1.334c.184 0 .333.15.333.333V18H7v-.667c0-.184.15-.333.333-.333zM7 9h2v.667c0 .184-.15.333-.333.333H7.333A.333.333 0 0 1 7 9.667V9z" fill="#E9E9ED"/><path fill="#B0B3BF" d="M13.25 9h1.5v9h-1.5z"/><path d="M13.333 17h1.334c.184 0 .333.15.333.333V18h-2v-.667c0-.184.15-.333.333-.333zM13 9h2v.667c0 .184-.15.333-.333.333h-1.334A.333.333 0 0 1 13 9.667V9z" fill="#E9E9ED"/><path fill="#B0B3BF" d="M18.25 9h1.5v9h-1.5z"/><path d="M18.333 17h1.334c.184 0 .333.15.333.333V18h-2v-.667c0-.184.15-.333.333-.333zM18 9h2v.667c0 .184-.15.333-.333.333h-1.334A.333.333 0 0 1 18 9.667V9z" fill="#E9E9ED"/><path stroke="#B0B3BF" fill="#F4F4F6" stroke-linecap="round" stroke-linejoin="round" d="M.5 7.5h21L11 .5z"/><circle fill="#B0B3BF" cx="11" cy="4" r="1"/></g><g transform="translate(17 3)"><g fill-rule="nonzero"><path d="M11.101.007H.9A.906.906 0 0 0 0 .92v6.16c0 .505.402.913.899.913H11.1a.906.906 0 0 0 .9-.913V.92a.906.906 0 0 0-.899-.913z" fill="#0D47A1"/><path d="M6.084.921l.083.253.262.002c.034 0 .048.044.021.065l-.21.158.078.254c.01.033-.026.06-.054.04l-.213-.155-.214.155c-.027.02-.064-.007-.054-.04l.08-.254-.212-.158c-.027-.02-.013-.065.02-.065l.263-.002.083-.253a.035.035 0 0 1 .067 0zm0 5.425l.083.253.262.002c.034 0 .048.044.021.065l-.21.158.078.254c.01.033-.026.06-.054.04l-.213-.155-.214.155c-.027.02-.064-.007-.054-.04l.08-.254-.212-.158c-.027-.02-.013-.065.02-.065l.263-.002.083-.253a.035.035 0 0 1 .067 0zm2.67-2.712l.083.252.263.002c.034 0 .048.045.02.065l-.21.158.078.254c.01.033-.026.06-.054.04l-.213-.154-.213.154c-.028.02-.065-.007-.055-.04l.08-.254-.212-.158c-.027-.02-.013-.064.021-.065l.262-.002.083-.252a.035.035 0 0 1 .067 0zm-5.34 0l.083.252.262.002c.034 0 .048.045.02.065l-.21.158.079.254c.01.033-.027.06-.054.04l-.214-.154-.213.154c-.028.02-.064-.007-.054-.04l.079-.254-.211-.158c-.027-.02-.013-.064.02-.065l.263-.002.083-.252a.035.035 0 0 1 .067 0zm.4-1.417l.084.253.262.002c.034 0 .048.044.02.065l-.21.158.079.254c.01.033-.027.06-.054.04l-.214-.155-.213.155a.035.035 0 0 1-.054-.04l.079-.254-.211-.158c-.027-.02-.013-.065.02-.065l.263-.002.083-.253a.035.035 0 0 1 .067 0zM8.44 4.93l.083.252.262.003c.034 0 .048.044.02.064l-.21.159.079.253c.01.033-.027.06-.054.04l-.214-.154-.213.155c-.028.02-.065-.008-.054-.04l.079-.254-.211-.159c-.027-.02-.013-.064.02-.064l.263-.003.083-.252a.035.035 0 0 1 .067 0zm-.978-3.706l.083.253.263.002c.034 0 .048.044.02.065l-.21.158.078.254c.01.033-.026.06-.054.04l-.213-.155-.213.155c-.028.02-.065-.007-.055-.04l.08-.254-.212-.158c-.027-.02-.013-.065.021-.065l.262-.002.083-.253a.035.035 0 0 1 .067 0zm-2.67 4.699l.083.252.262.002c.034 0 .048.045.021.065l-.211.158.08.254c.01.033-.027.06-.055.04l-.213-.154-.214.154c-.027.02-.064-.007-.054-.04l.08-.254-.212-.158c-.027-.02-.013-.064.02-.065l.263-.002.083-.252a.035.035 0 0 1 .067 0zm3.58-3.706a.035.035 0 0 1 .068 0l.083.253.262.002c.034 0 .048.044.02.065l-.21.158.079.254c.01.033-.027.06-.054.04l-.214-.155-.213.155a.035.035 0 0 1-.054-.04l.079-.254-.211-.158c-.027-.02-.013-.065.02-.065l.263-.002.083-.253zM3.749 4.93a.035.035 0 0 1 .067 0l.083.252.262.003c.034 0 .048.044.02.064l-.21.159.079.253c.01.033-.027.06-.054.04l-.214-.154-.213.155c-.028.02-.065-.008-.054-.04l.079-.254-.211-.159c-.027-.02-.013-.064.02-.064l.263-.003.083-.252zm.977-3.706a.035.035 0 0 1 .067 0l.083.253.262.002c.034 0 .048.044.021.065l-.211.158.08.254c.01.033-.027.06-.055.04l-.213-.155-.214.155c-.027.02-.064-.007-.054-.04l.08-.254-.212-.158c-.027-.02-.013-.065.02-.065l.263-.002.083-.253zm2.67 4.699a.035.035 0 0 1 .067 0l.083.252.263.002c.033 0 .048.045.02.065l-.21.158.078.254c.01.033-.026.06-.054.04L7.43 6.54l-.213.154c-.028.02-.065-.007-.055-.04l.08-.254-.212-.158c-.027-.02-.013-.064.021-.065l.262-.002.083-.252z" fill="#FFEB3B"/></g><rect stroke-opacity=".04" stroke="#000" stroke-width=".5" x=".25" y=".25" width="11.5" height="7.5" rx="1"/></g></g></svg>