<svg width="32" height="32" xmlns="http://www.w3.org/2000/svg" xmlns:xlink="http://www.w3.org/1999/xlink"><defs><rect id="a" width="12" height="8" rx="1"/><path d="M1 0h4.6v4.284H0V1a1 1 0 0 1 1-1z" id="c"/></defs><g fill="none" fill-rule="evenodd"><g transform="translate(5 6)"><path fill="#6E7287" d="M3 8h16v10H3z"/><path d="M2 18h18a1 1 0 0 1 1 1H1a1 1 0 0 1 1-1zM1 8h20a1 1 0 0 1-1 1H2a1 1 0 0 1-1-1z" fill="#D2D3DA"/><rect fill="#B0B3BF" y="19" width="22" height="1" rx=".5"/><path fill="#B0B3BF" d="M2.25 9h1.5v9h-1.5z"/><path d="M2.333 17h1.334c.184 0 .333.15.333.333V18H2v-.667c0-.184.15-.333.333-.333zM2 9h2v.667c0 .184-.15.333-.333.333H2.333A.333.333 0 0 1 2 9.667V9z" fill="#E9E9ED"/><path fill="#B0B3BF" d="M7.25 9h1.5v9h-1.5z"/><path d="M7.333 17h1.334c.184 0 .333.15.333.333V18H7v-.667c0-.184.15-.333.333-.333zM7 9h2v.667c0 .184-.15.333-.333.333H7.333A.333.333 0 0 1 7 9.667V9z" fill="#E9E9ED"/><path fill="#B0B3BF" d="M13.25 9h1.5v9h-1.5z"/><path d="M13.333 17h1.334c.184 0 .333.15.333.333V18h-2v-.667c0-.184.15-.333.333-.333zM13 9h2v.667c0 .184-.15.333-.333.333h-1.334A.333.333 0 0 1 13 9.667V9z" fill="#E9E9ED"/><path fill="#B0B3BF" d="M18.25 9h1.5v9h-1.5z"/><path d="M18.333 17h1.334c.184 0 .333.15.333.333V18h-2v-.667c0-.184.15-.333.333-.333zM18 9h2v.667c0 .184-.15.333-.333.333h-1.334A.333.333 0 0 1 18 9.667V9z" fill="#E9E9ED"/><path stroke="#B0B3BF" fill="#F4F4F6" stroke-linecap="round" stroke-linejoin="round" d="M.5 7.5h21L11 .5z"/><circle fill="#B0B3BF" cx="11" cy="4" r="1"/></g><g transform="translate(17 3)"><mask id="b" fill="#fff"><use xlink:href="#a"/></mask><use fill="#FFF" xlink:href="#a"/><path d="M.956 0h10.432c.338 0 .612.274.612.612H.344C.344.274.618 0 .956 0zM0 1.224h12v.612H0v-.612zm0 1.224h12v.612H0v-.612zm0 1.224h12v.612H0v-.612zm0 1.224h12v.612H0v-.612zM0 6.12h12v.612H0V6.12zm0 1.224h12a.656.656 0 0 1-.656.656H.656A.656.656 0 0 1 0 7.344z" fill="#F44336" mask="url(#b)"/><use fill="#0D47A1" xlink:href="#c"/><path d="M.547.484l.047.141h.148a.02.02 0 0 1 .012.036l-.12.088.045.141a.02.02 0 0 1-.03.022L.528.826l-.12.086A.02.02 0 0 1 .377.89l.05-.14-.12-.088A.02.02 0 0 1 .319.626h.148l.047-.14C.517.465.541.465.547.483zm0 .73l.047.14h.148a.02.02 0 0 1 .012.036l-.12.089.045.14a.02.02 0 0 1-.03.022l-.12-.086-.12.086a.02.02 0 0 1-.031-.021l.045-.141-.12-.089a.02.02 0 0 1 .012-.035h.152l.047-.141c.003-.016.027-.016.033 0zm0 .732l.047.141h.148a.02.02 0 0 1 .012.036l-.12.088.045.141a.02.02 0 0 1-.03.022l-.12-.086-.12.086a.02.02 0 0 1-.031-.022l.049-.14-.12-.088a.02.02 0 0 1 .012-.036h.148l.047-.14c.003-.02.027-.02.033-.002zm0 .73l.047.14h.148a.02.02 0 0 1 .012.036l-.12.089.045.14a.02.02 0 0 1-.03.022l-.12-.086-.12.086a.02.02 0 0 1-.031-.021l.045-.141-.12-.089a.02.02 0 0 1 .012-.035h.152l.047-.141c.003-.016.027-.016.033 0zm0 .732l.047.141h.148a.02.02 0 0 1 .012.036l-.12.088.045.141a.02.02 0 0 1-.03.022l-.12-.086-.12.086a.02.02 0 0 1-.031-.022l.049-.14-.12-.088a.02.02 0 0 1 .012-.036h.148l.047-.14c.003-.02.027-.02.033-.002zM1.114.842l.048.14h.147a.02.02 0 0 1 .012.036l-.12.089.045.14a.02.02 0 0 1-.03.022l-.12-.086-.12.086a.02.02 0 0 1-.031-.021l.049-.14-.12-.089A.02.02 0 0 1 .886.984h.148l.048-.141c.002-.02.026-.02.032-.001zm0 .73l.048.14h.147a.02.02 0 0 1 .012.036l-.12.088.045.141a.02.02 0 0 1-.03.022l-.12-.086-.12.086a.02.02 0 0 1-.031-.022l.045-.14-.12-.089a.02.02 0 0 1 .012-.036h.152l.048-.14c.002-.017.026-.017.032 0zm0 .732l.048.141h.147a.02.02 0 0 1 .012.036l-.12.088.045.141a.02.02 0 0 1-.03.022l-.12-.086-.12.086a.02.02 0 0 1-.031-.022l.049-.14-.12-.088a.02.02 0 0 1 .012-.036h.148l.048-.14c.002-.02.026-.02.032-.002zm0 .732l.048.141h.147a.02.02 0 0 1 .012.036l-.12.088.045.141a.02.02 0 0 1-.03.022l-.12-.086-.12.086a.02.02 0 0 1-.031-.022l.045-.14-.12-.09a.02.02 0 0 1 .012-.035h.152l.048-.14c.002-.02.026-.02.032 0zM1.681.484l.047.141h.148a.02.02 0 0 1 .012.036l-.12.088.045.141a.02.02 0 0 1-.03.022l-.12-.086-.12.086A.02.02 0 0 1 1.511.89L1.56.75 1.44.662a.02.02 0 0 1 .012-.036H1.6l.047-.14c0-.02.027-.02.033-.002zm.001.73l.048.14h.148a.02.02 0 0 1 .012.036l-.12.089.046.14a.02.02 0 0 1-.031.022l-.12-.086-.12.086a.02.02 0 0 1-.031-.021l.045-.141-.12-.089a.02.02 0 0 1 .012-.035h.147l.048-.141c.003-.016.03-.016.036 0zm-.001.732l.047.141h.148a.02.02 0 0 1 .012.036l-.12.088.045.141a.02.02 0 0 1-.03.022l-.12-.086-.12.086a.02.02 0 0 1-.031-.022l.049-.14-.12-.088a.02.02 0 0 1 .012-.036H1.6l.047-.14c0-.02.027-.02.033-.002zm0 .73l.047.14h.148a.02.02 0 0 1 .012.036l-.12.089.045.14a.02.02 0 0 1-.03.022l-.12-.086-.12.086a.02.02 0 0 1-.031-.021l.045-.141-.12-.089a.02.02 0 0 1 .012-.035H1.6l.047-.141c0-.016.027-.016.033 0zm0 .732l.047.141h.148a.02.02 0 0 1 .012.036l-.12.088.045.141a.02.02 0 0 1-.03.022l-.12-.086-.12.086a.02.02 0 0 1-.031-.022l.049-.14-.12-.088a.02.02 0 0 1 .012-.036H1.6l.047-.14c0-.02.027-.02.033-.002zM2.248.842l.048.14h.147a.02.02 0 0 1 .012.036l-.12.089.045.14a.02.02 0 0 1-.03.022l-.12-.086-.12.086a.02.02 0 0 1-.031-.021l.049-.14-.12-.089A.02.02 0 0 1 2.02.984h.148l.048-.141c0-.02.026-.02.032-.001zm0 .73l.048.14h.147a.02.02 0 0 1 .012.036l-.12.088.045.141A.02.02 0 0 1 2.35 2l-.12-.086L2.11 2a.02.02 0 0 1-.031-.022l.045-.14-.12-.089a.02.02 0 0 1 .012-.036h.152l.048-.14c0-.017.026-.017.032 0zm0 .732l.048.141h.147a.02.02 0 0 1 .012.036l-.12.088.045.141a.02.02 0 0 1-.03.022l-.12-.086-.12.086a.02.02 0 0 1-.031-.022l.049-.14-.12-.088a.02.02 0 0 1 .012-.036h.148l.048-.14c0-.02.026-.02.032-.002zm0 .732l.048.141h.147a.02.02 0 0 1 .012.036l-.12.088.045.141a.02.02 0 0 1-.03.022l-.12-.086-.12.086a.02.02 0 0 1-.031-.022l.045-.14-.12-.09a.02.02 0 0 1 .012-.035h.152l.048-.14c0-.02.026-.02.032 0zM2.815.484l.048.141h.147a.02.02 0 0 1 .012.036l-.12.088.046.141a.02.02 0 0 1-.031.022l-.12-.086-.12.086A.02.02 0 0 1 2.646.89l.045-.14-.12-.09a.02.02 0 0 1 .012-.035h.152l.048-.14c0-.02.027-.02.032 0zm0 .73l.048.14h.147a.02.02 0 0 1 .012.036l-.12.089.046.14a.02.02 0 0 1-.031.022l-.12-.086-.12.086a.02.02 0 0 1-.031-.021l.045-.141-.12-.089a.02.02 0 0 1 .012-.035h.152l.048-.141c0-.016.027-.016.032 0zm0 .732l.048.141h.147a.02.02 0 0 1 .012.036l-.12.088.046.141a.02.02 0 0 1-.031.022l-.12-.086-.12.086a.02.02 0 0 1-.031-.022l.045-.14-.12-.09a.02.02 0 0 1 .012-.035h.152l.048-.14c0-.02.027-.02.032 0zm0 .73l.048.14h.147a.02.02 0 0 1 .012.036l-.12.089.046.14a.02.02 0 0 1-.031.022l-.12-.086-.12.086a.02.02 0 0 1-.031-.021l.045-.141-.12-.089a.02.02 0 0 1 .012-.035h.152l.048-.141c0-.016.027-.016.032 0zm0 .732l.048.141h.147a.02.02 0 0 1 .012.036l-.12.088.046.141a.02.02 0 0 1-.031.022l-.12-.086-.12.086a.02.02 0 0 1-.031-.022l.05-.14-.12-.088a.02.02 0 0 1 .011-.036h.148l.048-.14c0-.02.027-.02.032-.002zM3.382.842l.048.14h.148a.02.02 0 0 1 .012.036l-.12.089.045.14a.02.02 0 0 1-.031.022l-.12-.086-.12.086a.02.02 0 0 1-.03-.021l.044-.141-.12-.089A.02.02 0 0 1 3.15.983h.148l.048-.141c.004-.02.03-.02.036 0zm0 .73l.048.14h.148a.02.02 0 0 1 .012.036l-.12.088.045.141A.02.02 0 0 1 3.484 2l-.12-.086-.12.086a.02.02 0 0 1-.03-.022l.044-.14-.12-.089a.02.02 0 0 1 .012-.036h.148l.048-.14c.004-.017.03-.017.036 0zm0 .732l.048.141h.148a.02.02 0 0 1 .012.036l-.12.088.045.141a.02.02 0 0 1-.031.022l-.12-.086-.12.086a.02.02 0 0 1-.03-.022l.044-.14-.12-.09a.02.02 0 0 1 .012-.035h.148l.048-.14c.004-.02.03-.02.036 0zm0 .732l.048.141h.148a.02.02 0 0 1 .012.036l-.12.088.045.141a.02.02 0 0 1-.031.022l-.12-.086-.12.086a.02.02 0 0 1-.03-.022l.044-.14-.12-.09a.02.02 0 0 1 .012-.035h.148l.048-.14c.004-.02.03-.02.036 0zM3.947.484l.047.141h.148a.02.02 0 0 1 .012.036l-.12.088.045.141a.02.02 0 0 1-.03.022l-.12-.086-.12.086A.02.02 0 0 1 3.777.89l.045-.14-.12-.09a.02.02 0 0 1 .012-.035h.147l.048-.14a.018.018 0 1 1 .037 0zm0 .73l.047.14h.148a.02.02 0 0 1 .012.036l-.12.089.045.14a.02.02 0 0 1-.03.022l-.12-.086-.12.086a.02.02 0 0 1-.031-.021l.045-.141-.12-.089a.02.02 0 0 1 .012-.035h.147l.048-.141c.007-.016.034-.016.037 0zm0 .732l.047.141h.148a.02.02 0 0 1 .012.036l-.12.088.045.141a.02.02 0 0 1-.03.022l-.12-.086-.12.086a.02.02 0 0 1-.031-.022l.045-.14-.12-.09a.02.02 0 0 1 .012-.035h.147l.048-.14a.018.018 0 1 1 .037 0zm0 .73l.047.14h.148a.02.02 0 0 1 .012.036l-.12.089.045.14a.02.02 0 0 1-.03.022l-.12-.086-.12.086a.02.02 0 0 1-.031-.021l.045-.141-.12-.089a.02.02 0 0 1 .012-.035h.147l.048-.141c.007-.016.034-.016.037 0zm0 .732l.047.141h.148a.02.02 0 0 1 .012.036l-.12.088.045.141a.02.02 0 0 1-.03.022l-.12-.086-.12.086a.02.02 0 0 1-.031-.022l.049-.14-.12-.088a.02.02 0 0 1 .012-.036h.147l.048-.14a.017.017 0 0 1 .033-.002zM4.514.842l.048.14h.147a.02.02 0 0 1 .012.036l-.12.089.045.14a.02.02 0 0 1-.03.022l-.12-.086-.12.086a.02.02 0 0 1-.031-.021l.045-.141-.12-.089a.02.02 0 0 1 .012-.035h.148l.047-.141a.018.018 0 1 1 .037 0zm0 .73l.048.14h.147a.02.02 0 0 1 .012.036l-.12.088.045.141a.02.02 0 0 1-.03.022l-.12-.086-.12.086a.02.02 0 0 1-.031-.022l.045-.14-.12-.089a.02.02 0 0 1 .012-.036h.148l.047-.14c.007-.017.034-.017.037 0zm0 .732l.048.141h.147a.02.02 0 0 1 .012.036l-.12.088.045.141a.02.02 0 0 1-.03.022l-.12-.086-.12.086a.02.02 0 0 1-.031-.022l.045-.14-.12-.09a.02.02 0 0 1 .012-.035h.148l.047-.14a.018.018 0 1 1 .037 0zm0 .732l.048.141h.147a.02.02 0 0 1 .012.036l-.12.088.045.141a.02.02 0 0 1-.03.022l-.12-.086-.12.086a.02.02 0 0 1-.031-.022l.045-.14-.12-.09a.02.02 0 0 1 .012-.035h.148l.047-.14a.018.018 0 0 1 .037 0zM5.081.484l.048.141h.147a.02.02 0 0 1 .012.036l-.12.088.046.141a.02.02 0 0 1-.031.022l-.12-.086-.12.086A.02.02 0 0 1 4.912.89l.05-.14-.12-.088a.02.02 0 0 1 .011-.036h.148l.047-.14a.017.017 0 0 1 .033-.002zm0 .73l.048.14h.147a.02.02 0 0 1 .012.036l-.12.089.046.14a.02.02 0 0 1-.031.022l-.12-.086-.12.086a.02.02 0 0 1-.031-.021l.045-.141-.12-.089a.02.02 0 0 1 .012-.035h.148l.047-.141c.008-.016.034-.016.037 0zm0 .732l.048.141h.147a.02.02 0 0 1 .012.036l-.12.088.046.141a.02.02 0 0 1-.031.022l-.12-.086-.12.086a.02.02 0 0 1-.031-.022l.05-.14-.12-.088a.02.02 0 0 1 .011-.036h.148l.047-.14a.017.017 0 0 1 .033-.002zm0 .73l.048.14h.147a.02.02 0 0 1 .012.036l-.12.089.046.14a.02.02 0 0 1-.031.022l-.12-.086-.12.086a.02.02 0 0 1-.031-.021l.045-.141-.12-.089a.02.02 0 0 1 .012-.035h.148l.047-.141c.008-.016.034-.016.037 0zm0 .732l.048.141h.147a.02.02 0 0 1 .012.036l-.12.088.046.141a.02.02 0 0 1-.031.022l-.12-.086-.12.086a.02.02 0 0 1-.031-.022l.05-.14-.12-.088a.02.02 0 0 1 .011-.036h.148l.047-.14a.017.017 0 0 1 .033-.002z" fill="#F5F5F5" fill-rule="nonzero"/><rect stroke-opacity=".04" stroke="#000" stroke-width=".5" x=".25" y=".25" width="11.5" height="7.5" rx="1"/></g></g></svg>