<svg xmlns="http://www.w3.org/2000/svg" width="289" height="157"><g fill="none" fill-rule="evenodd"><circle cx="104.5" cy="123.5" r="2.5" fill="#FFF" fill-rule="nonzero"/><circle cx="171.5" cy="154.5" r="2.5" fill="#FFF" fill-rule="nonzero"/><path fill="#FFF" fill-rule="nonzero" d="M267.934 130.507a1.313 1.313 0 0 0-1.656-.838l-.466.153v-.51a1.312 1.312 0 1 0-2.624 0v.51l-.466-.153a1.313 1.313 0 0 0-.818 2.494l.484.16-.305.422a1.313 1.313 0 0 0 2.13 1.534l.287-.399c.276.383.578.944 1.353.944 1.057 0 1.692-1.206 1.064-2.079l-.304-.423.483-.158a1.312 1.312 0 0 0 .838-1.657z"/><g fill="#FFF" fill-rule="nonzero"><path d="M283 56c-1.105 0-2 .923-2 2.06v7.88c0 1.137.895 2.06 2 2.06s2-.923 2-2.06v-7.88c0-1.137-.895-2.06-2-2.06z"/><path d="M289 62c0-1.105-.923-2-2.06-2h-7.88c-1.137 0-2.06.895-2.06 2s.923 2 2.06 2h7.88c1.137 0 2.06-.895 2.06-2z"/></g><g fill="#FFF" fill-rule="nonzero"><path d="M55.5 12c-.828 0-1.5.615-1.5 1.374v5.252c0 .759.672 1.374 1.5 1.374s1.5-.615 1.5-1.374v-5.252c0-.759-.672-1.374-1.5-1.374z"/><path d="M59.5 16c0-.828-.615-1.5-1.374-1.5h-5.252c-.759 0-1.374.672-1.374 1.5s.615 1.5 1.374 1.5h5.252c.759 0 1.374-.672 1.374-1.5z"/></g><path fill="#FFF" fill-rule="nonzero" d="M6.5 115a6.507 6.507 0 0 0-6.5 6.5c0 3.584 2.916 6.5 6.5 6.5s6.5-2.916 6.5-6.5-2.916-6.5-6.5-6.5zm0 8.667a2.17 2.17 0 0 1-2.167-2.167 2.17 2.17 0 0 1 2.167-2.167 2.17 2.17 0 0 1 2.167 2.167 2.17 2.17 0 0 1-2.167 2.167z"/><g fill-rule="nonzero"><path fill="#E98024" d="M229.56.44A1.51 1.51 0 0 0 228.5 0a1.506 1.506 0 0 0-1.5 1.5 1.505 1.505 0 0 0 1.5 1.5 1.504 1.504 0 0 0 1.5-1.5c0-.394-.159-.781-.44-1.06zm-5.136 5.11a2.035 2.035 0 0 0-2.784 0l-18.064 17.243a1.82 1.82 0 0 0 0 2.657c.385.366.888.55 1.392.55.503 0 1.007-.184 1.391-.55l18.065-17.243a1.819 1.819 0 0 0 0-2.657zm-73.998 10.326l-11.079-10.34a2.062 2.062 0 0 0-2.773 0 1.745 1.745 0 0 0 0 2.588l11.079 10.34a2.03 2.03 0 0 0 1.386.536c.502 0 1.004-.179 1.386-.536a1.745 1.745 0 0 0 0-2.588zM144.04 45h-11.08c-1.082 0-1.96.672-1.96 1.5s.878 1.5 1.96 1.5h11.08c1.082 0 1.96-.672 1.96-1.5s-.878-1.5-1.96-1.5zm84.013 0h-11.106c-1.075 0-1.947.672-1.947 1.5s.872 1.5 1.947 1.5h11.106c1.075 0 1.947-.672 1.947-1.5s-.872-1.5-1.947-1.5zM180.5 0c-.828 0-1.5.788-1.5 1.759V15.24c0 .971.672 1.759 1.5 1.759s1.5-.788 1.5-1.759V1.758c0-.97-.672-1.758-1.5-1.758zm-37.734 30h-.532C141 30 140 30.672 140 31.5s1 1.5 2.234 1.5h1.532C145 33 146 32.328 146 31.5s-2-1.5-3.234-1.5zm-8 0h-1.532C132 30 131 30.672 131 31.5s1 1.5 2.234 1.5h1.532C136 33 137 32.328 137 31.5s-1-1.5-2.234-1.5zm2.734 3c-.828 0-1.5.834-1.5 1.862v1.276c0 1.028.672 1.862 1.5 1.862s1.5-.834 1.5-1.862v-1.276c0-1.029-.672-1.862-1.5-1.862zm0-9c-.828 0-1.5.834-1.5 1.862v1.276c0 1.028.672 1.862 1.5 1.862s1.5-.834 1.5-1.862v-1.276c0-1.028-.672-1.862-1.5-1.862zm65-21a5.506 5.506 0 0 0-5.5 5.5c0 3.033 2.467 5.5 5.5 5.5s5.5-2.467 5.5-5.5-2.467-5.5-5.5-5.5zm0 7.333a1.836 1.836 0 0 1-1.833-1.833c0-1.01.822-1.833 1.833-1.833 1.01 0 1.833.822 1.833 1.833 0 1.01-.822 1.833-1.833 1.833zM162.56 7.44A1.512 1.512 0 0 0 161.5 7a1.506 1.506 0 0 0-1.5 1.5 1.505 1.505 0 0 0 1.5 1.5 1.506 1.506 0 0 0 1.5-1.5c0-.394-.16-.78-.44-1.06z"/><path fill="#E96924" d="M223.56 27.44a1.505 1.505 0 0 0-1.06-.44 1.505 1.505 0 0 0-1.5 1.5c0 .395.16.78.44 1.06.279.28.666.44 1.06.44a1.506 1.506 0 0 0 1.5-1.5c0-.396-.16-.781-.44-1.06z"/><path fill="#E98024" d="M215.524 64.662h-74.04a4.986 4.986 0 0 0-1.421-4.026l-14.004-14.078a4.938 4.938 0 0 0-7.002 0l-8.616 8.662-9.49-9.54c-2.32-2.332-5.597-3.214-8.768-2.361-3.17.854-5.569 3.266-6.418 6.452l-4.963 18.618a12.33 12.33 0 0 0-6.546 6.581l-18.52 4.988c-6.75 1.818-9.015 10.295-4.07 15.267l9.49 9.539-8.617 8.662a4.993 4.993 0 0 0 0 7.038l14.004 14.078a4.922 4.922 0 0 0 3.501 1.455 4.922 4.922 0 0 0 3.5-1.455l64.564-64.903h74.94v58.895a2.494 2.494 0 0 1-2.475 2.489h-83.508a2.494 2.494 0 0 1-2.476-2.489V96.797a2.486 2.486 0 0 0-2.476-2.489 2.486 2.486 0 0 0-2.475 2.482v31.744c0 1.995.772 3.87 2.175 5.28a7.374 7.374 0 0 0 5.252 2.186h83.508c4.086 0 7.427-3.322 7.427-7.466V67.15a2.487 2.487 0 0 0-2.476-2.488zM90.41 51.042c.832-3.048 4.711-4.072 6.986-1.838L107 58.63 95.418 70l3.023-11.074c.358-1.313-.435-2.661-1.771-3.013-1.337-.351-2.711.427-3.069 1.74l-2.91 10.66A12.63 12.63 0 0 0 86 67.195l4.41-16.153zm-7.002 21.264A7.491 7.491 0 0 1 91 74.366L80.366 85c-4.251-4.005-2.495-11.08 3.041-12.694zm-28.203 19.09a4.187 4.187 0 0 1-1.06-4.034c.383-1.458 1.467-2.562 2.898-2.953L73.195 80a12.638 12.638 0 0 0 1.118 4.691l-10.66 2.91c-1.313.358-2.091 1.732-1.74 3.069.352 1.336 1.7 2.13 3.013 1.772L76 89.419 64.631 101l-9.427-9.604zM70.086 131L56 116.913l10.428-10.428 46.055-46.056L122.91 50 137 64.084 70.086 131z"/></g><path stroke="#E98024" stroke-linecap="square" stroke-width="5" d="M160.5 90.5v42m19.75-62v63"/><path fill="#FFF" d="M164.03 42.138c0-.694-.193-1.247-.578-1.657-.385-.41-1.04-.79-1.962-1.136a23.14 23.14 0 0 1-2.386-1.035 7.604 7.604 0 0 1-1.72-1.18 4.744 4.744 0 0 1-1.118-1.568c-.266-.601-.4-1.317-.4-2.146 0-1.43.457-2.603 1.371-3.517.914-.914 2.129-1.447 3.644-1.6v-2.716h2.031v2.755c1.498.211 2.67.836 3.517 1.872.846 1.037 1.27 2.38 1.27 4.031h-3.67c0-1.015-.21-1.775-.628-2.279-.42-.503-.98-.755-1.682-.755-.694 0-1.232.197-1.613.59-.38.394-.57.938-.57 1.632 0 .643.185 1.16.558 1.549.372.389 1.064.787 2.075 1.193 1.012.406 1.843.79 2.495 1.149a7.2 7.2 0 0 1 1.65 1.219c.449.452.792.969 1.029 1.548.237.58.355 1.255.355 2.025 0 1.44-.448 2.607-1.345 3.504-.898.897-2.133 1.426-3.707 1.587v2.526h-2.019v-2.513c-1.735-.186-3.079-.802-4.03-1.847-.953-1.046-1.429-2.436-1.429-4.17h3.669c0 1.006.239 1.779.717 2.316.478.538 1.166.806 2.063.806.745 0 1.333-.196 1.765-.59.431-.394.647-.925.647-1.593zm9.876-6.005h1.955c.931 0 1.621-.233 2.07-.698.448-.466.673-1.084.673-1.854 0-.745-.223-1.324-.667-1.74-.444-.414-1.056-.621-1.834-.621-.703 0-1.291.192-1.765.577-.474.385-.711.887-.711 1.505h-3.669c0-.965.26-1.83.78-2.596.521-.766 1.25-1.365 2.184-1.797.936-.431 1.966-.647 3.092-.647 1.955 0 3.487.467 4.595 1.403 1.11.935 1.663 2.223 1.663 3.865a3.89 3.89 0 0 1-.774 2.336 5.031 5.031 0 0 1-2.031 1.638c1.04.372 1.817.93 2.33 1.676.511.744.767 1.625.767 2.64 0 1.642-.598 2.958-1.796 3.949-1.198.99-2.782 1.485-4.754 1.485-1.845 0-3.354-.487-4.526-1.46-1.172-.973-1.759-2.26-1.759-3.86h3.67c0 .695.26 1.262.78 1.702.52.44 1.162.66 1.924.66.871 0 1.555-.23 2.05-.692.495-.461.743-1.073.743-1.834 0-1.846-1.016-2.768-3.047-2.768h-1.943v-2.87zm23.626 3.224c0 2.556-.529 4.511-1.587 5.866-1.058 1.354-2.606 2.03-4.646 2.03-2.015 0-3.555-.663-4.621-1.992-1.067-1.329-1.613-3.233-1.638-5.713v-3.402c0-2.582.535-4.541 1.606-5.878 1.07-1.338 2.613-2.006 4.627-2.006 2.015 0 3.555.662 4.622 1.987 1.066 1.324 1.612 3.226 1.637 5.706v3.402zm-3.669-3.732c0-1.532-.21-2.647-.628-3.345-.42-.698-1.073-1.048-1.962-1.048-.863 0-1.5.333-1.91.997-.41.664-.629 1.703-.654 3.117v4.494c0 1.506.205 2.626.616 3.358.41.732 1.068 1.098 1.974 1.098.897 0 1.544-.351 1.942-1.054.398-.702.605-1.777.622-3.224v-4.393z"/></g></svg>