<svg width="32" height="32" xmlns="http://www.w3.org/2000/svg"><g fill="none" fill-rule="evenodd"><path d="M0 0h32v32H0z"/><path d="M24.602 15.645a19.639 19.639 0 0 0-2.054-1.978c-2.127-1.763-4.354-2.81-6.548-2.81s-4.42 1.047-6.548 2.81A19.639 19.639 0 0 0 7.086 16a19.639 19.639 0 0 0 2.366 2.333c2.127 1.763 4.354 2.81 6.548 2.81s4.42-1.047 6.548-2.81A19.639 19.639 0 0 0 24.914 16c-.096-.113-.2-.232-.312-.355zM16 22c-5.523 0-10-6-10-6s4.477-6 10-6 10 6 10 6-4.477 6-10 6zm0-2.143c2.071 0 3.75-1.727 3.75-3.857s-1.679-3.857-3.75-3.857c-2.071 0-3.75 1.727-3.75 3.857s1.679 3.857 3.75 3.857zM16 19c-1.61 0-2.917-1.343-2.917-3S14.39 13 16 13c1.61 0 2.917 1.343 2.917 3S17.61 19 16 19z" fill="#B0B3BF" fill-rule="nonzero"/></g></svg>