<svg width="140" height="140" viewBox="0 0 140 140" xmlns="http://www.w3.org/2000/svg" xmlns:xlink="http://www.w3.org/1999/xlink"><title>range-of-markets</title><defs><path id="a" d="M0 0h140v140H0z"/></defs><g fill="none" fill-rule="evenodd"><use fill="#F2F2F2" xlink:href="#a"/><path stroke="#DEDEDE" stroke-width="2" d="M1 1h138v138H1z"/><g transform="translate(40 29)"><circle stroke="#2A3052" cx="18.462" cy="18.462" r="18.462"/><path d="M17.54 28.54v-1.742a11.984 11.984 0 0 1-5.65-2.737l2.212-2.736c1.228 1.12 2.333 1.741 3.316 2.115v-3.608c-1.72-.497-2.948-.995-3.685-1.741-.737-.747-1.228-1.742-1.228-3.11 0-1.368.491-2.488 1.351-3.358.86-.871 2.088-1.493 3.562-1.617V8.762h2.58v1.244c1.596.248 3.193.87 4.79 1.99l-1.966 2.86c-.982-.746-1.965-1.243-2.825-1.492v3.483c1.72.497 2.948.995 3.808 1.866.86.746 1.228 1.866 1.228 3.234 0 1.368-.491 2.488-1.35 3.483-.86.87-2.089 1.492-3.686 1.617v1.741h-2.456v-.249zm0-15.3c-.736.248-.982.746-.982 1.368 0 .622.369 1.12.983 1.493V13.24zm3.686 8.707c0-.373-.123-.622-.246-.87-.123-.25-.491-.374-.983-.623v2.986c.86-.25 1.229-.747 1.229-1.493z" fill="#2A3052" fill-rule="nonzero"/></g><g transform="translate(78.802 32.755)"><circle stroke="#E98024" cx="7.51" cy="7.51" r="7.51"/><g fill-rule="nonzero" fill="#E98024"><path d="M9.71 7.823a.313.313 0 0 0 0-.626v-2.19a.313.313 0 0 0 0-.626H5.33a.313.313 0 0 0 0 .626v2.19a.313.313 0 0 0 0 .626v2.19a.313.313 0 0 0 0 .626h4.38a.313.313 0 0 0 0-.626v-2.19zM7.52 9.075c-.691 0-1.252-.701-1.252-1.565s.56-1.565 1.252-1.565c.691 0 1.251.701 1.251 1.565s-.56 1.565-1.251 1.565z"/><path d="M6.894 7.823a.625.625 0 1 0 1.252 0c0-.611-.626-1.252-.626-1.252s-.626.629-.626 1.252z"/></g></g><g transform="translate(73.795 54.033)"><circle stroke="#2A3052" cx="12.517" cy="12.517" r="12.517"/><path d="M13.353 10.007V9.002c0-.482.328-.597.565-.597h1.443V6.258h-1.987c-2.21 0-2.704 1.59-2.704 2.622v1.127H9.387v2.506h1.297v6.262h2.572v-6.262h1.903l.083-.985.153-1.52h-2.042" fill="#2A3052"/></g><g transform="translate(55.646 67.802)"><circle stroke="#2A3052" cx="9.387" cy="9.387" r="9.387"/><g fill-rule="nonzero"><path d="M6.102 11.847H4.109a.25.25 0 0 0-.241.174l-.739 2.461h3.953l-.739-2.461a.25.25 0 0 0-.241-.174zm2.657-3.12a.25.25 0 0 0-.242-.174H6.525a.25.25 0 0 0-.242.174l-.738 2.461h3.952L8.76 8.727zm4.911 2.461l-.739-2.461a.25.25 0 0 0-.242-.174h-1.992a.25.25 0 0 0-.242.174l-.738 2.461h3.952zm-3.177.659H8.501a.25.25 0 0 0-.242.174l-.738 2.461h3.953l-.739-2.461a.25.25 0 0 0-.242-.174zm4.414.173a.25.25 0 0 0-.241-.173h-1.993a.25.25 0 0 0-.241.174l-.739 2.461h3.953l-.739-2.461z" fill="#2A3052"/><path fill="#E98024" d="M6.862 7.235l.368-.73.73-.367-.73-.369-.368-.73-.368.73-.73.369.73.368zm2.745.659l.184-.364.365-.185-.365-.184-.184-.365-.184.365-.365.184.365.185zm1.866-1.756l.295-.584.584-.295-.584-.295-.295-.583-.294.583-.584.295.584.295z"/></g></g><g transform="translate(40 66.55)"><circle stroke="#E98024" cx="6.258" cy="6.258" r="6.258"/><path d="M7.593 3.13v5.769h1.793V3.13H7.593zM3.13 5.707v3.191h1.793v-3.19H3.129zm2.232.306V8.9h1.793V6.014H5.36z" fill="#E98024" fill-rule="nonzero"/></g><path d="M106.878 91.018c-.476-1.777-2.2-3.018-4.192-3.018a4.78 4.78 0 0 0-2.058.47c-2.548 1.2-11.874 5.576-15.74 7.287.003-.07.012-.14.012-.21h-.087c-.365-2.1-2.188-3.704-4.39-3.704h-8.685c-2.472 0-4.71-.689-7.079-1.417-2.5-.769-5.085-1.564-8.08-1.564-5.004 0-7.412 1.237-10.745 2.95-1.378.707-2.925 1.498-4.892 2.328v-2.297H32v23.843h8.941v-3.274c4.41-1.233 9.475-1.91 14.896-1.941l.86-.002c5.486 0 8.48.32 12.318 1.315 2.137.555 4.249.352 6.508-.629 7.713-3.35 20.461-10.028 27.85-14.294 3.963-2.287 3.77-4.849 3.505-5.843zM39.45 114.196h-5.96V93.333h5.96v20.863zm63.178-18.626c-7.354 4.245-20.034 10.888-27.698 14.218-1.95.845-3.728 1.02-5.541.553-3.978-1.031-7.062-1.363-12.693-1.363l-.867.002c-5.386.03-10.44.69-14.889 1.888V95.753c2.289-.935 4.034-1.827 5.573-2.617 3.264-1.677 5.421-2.784 10.065-2.784 2.77 0 5.247.762 7.642 1.498 2.37.728 4.82 1.482 7.517 1.482h8.684a2.975 2.975 0 0 1 2.947 2.63c-.2 1.866-1.766 3.331-3.686 3.331H58.819v1.49h20.864A5.215 5.215 0 0 0 84.5 97.55c3.412-1.442 16.63-7.67 16.763-7.733a3.302 3.302 0 0 1 1.422-.326c1.297 0 2.455.804 2.752 1.912.376 1.401-.649 2.92-2.809 4.167z" fill="#2A3052" fill-rule="nonzero"/></g></svg>