<svg width="216" height="164" viewBox="0 0 216 164" fill="none" xmlns="http://www.w3.org/2000/svg">
<g filter="url(#filter0_dd_4473_9088)">
<g clip-path="url(#clip0_4473_9088)">
<rect x="85" y="2" width="128" height="158" rx="4" fill="white"/>
<path fill-rule="evenodd" clip-rule="evenodd" d="M112.85 31.2979C114.246 30.0709 115.126 28.2724 115.126 26.2682C115.126 24.264 114.246 22.4655 112.85 21.2386C114.029 20.2021 115.576 19.5735 117.269 19.5735C120.966 19.5735 123.963 22.5708 123.963 26.2682C123.963 29.9656 120.966 32.963 117.269 32.963C115.576 32.963 114.029 32.3344 112.85 31.2979ZM112.85 31.2979C111.671 32.3344 110.125 32.963 108.432 32.963C104.734 32.963 101.737 29.9656 101.737 26.2682C101.737 22.5708 104.734 19.5735 108.432 19.5735C110.125 19.5735 111.671 20.2021 112.85 21.2386C111.455 22.4655 110.574 24.264 110.574 26.2682C110.574 28.2724 111.455 30.0709 112.85 31.2979Z" fill="#FFAD3A"/>
<path d="M98.3895 17.0631H327.684V13.7157H98.3895V17.0631ZM327.684 35.4736H98.3895V38.821H327.684V35.4736Z" fill="#4BB4B3" mask="url(#path-3-inside-1_4473_9088)"/>
<path d="M102.457 53.6957V57.8464C102.457 58.1142 102.412 58.3597 102.323 58.5829C102.239 58.8004 102.113 58.9873 101.946 59.1435C101.779 59.2942 101.575 59.4141 101.335 59.5034C101.101 59.5871 100.833 59.6289 100.532 59.6289C100.242 59.6289 99.9851 59.5899 99.7619 59.5118C99.5444 59.4337 99.3547 59.3221 99.1929 59.177C99.0367 59.032 98.9084 58.859 98.8079 58.6582C98.7075 58.4573 98.6378 58.2342 98.5987 57.9887L99.7871 57.7544C99.8819 58.2621 100.125 58.5159 100.515 58.5159C100.699 58.5159 100.855 58.4573 100.984 58.3402C101.118 58.223 101.185 58.0389 101.185 57.7879V54.7167H99.4105V53.6957H102.457ZM105.424 59.6373C105.1 59.6373 104.81 59.5843 104.554 59.4783C104.303 59.3723 104.088 59.2189 103.909 59.018C103.736 58.8172 103.602 58.5745 103.508 58.29C103.413 58.0054 103.365 57.6874 103.365 57.336C103.365 56.9845 103.413 56.6665 103.508 56.382C103.602 56.0974 103.736 55.8575 103.909 55.6623C104.088 55.4614 104.303 55.308 104.554 55.202C104.81 55.096 105.1 55.043 105.424 55.043C105.748 55.043 106.035 55.096 106.286 55.202C106.543 55.308 106.757 55.4614 106.93 55.6623C107.109 55.8575 107.245 56.0974 107.34 56.382C107.435 56.6665 107.483 56.9845 107.483 57.336C107.483 57.6874 107.435 58.0054 107.34 58.29C107.245 58.5745 107.109 58.8172 106.93 59.018C106.757 59.2189 106.543 59.3723 106.286 59.4783C106.035 59.5843 105.748 59.6373 105.424 59.6373ZM105.424 58.6582C105.669 58.6582 105.859 58.5829 105.993 58.4322C106.127 58.2816 106.194 58.0668 106.194 57.7879V56.8924C106.194 56.6135 106.127 56.3987 105.993 56.2481C105.859 56.0974 105.669 56.0221 105.424 56.0221C105.178 56.0221 104.989 56.0974 104.855 56.2481C104.721 56.3987 104.654 56.6135 104.654 56.8924V57.7879C104.654 58.0668 104.721 58.2816 104.855 58.4322C104.989 58.5829 105.178 58.6582 105.424 58.6582ZM108.365 53.3442H109.604V55.8882H109.654C109.732 55.6595 109.869 55.4614 110.064 55.2941C110.259 55.1267 110.53 55.043 110.876 55.043C111.327 55.043 111.668 55.1937 111.897 55.4949C112.131 55.7962 112.248 56.2258 112.248 56.7837V59.5369H111.009V56.8841C111.009 56.5995 110.965 56.3903 110.876 56.2564C110.786 56.117 110.627 56.0472 110.399 56.0472C110.298 56.0472 110.201 56.0612 110.106 56.0891C110.011 56.1114 109.924 56.1504 109.846 56.2062C109.774 56.262 109.715 56.3318 109.671 56.4154C109.626 56.4935 109.604 56.5856 109.604 56.6916V59.5369H108.365V53.3442ZM113.35 59.5369V55.1434H114.589V55.8882H114.639C114.717 55.6595 114.854 55.4614 115.049 55.2941C115.244 55.1267 115.515 55.043 115.861 55.043C116.313 55.043 116.653 55.1937 116.882 55.4949C117.116 55.7962 117.233 56.2258 117.233 56.7837V59.5369H115.995V56.8841C115.995 56.5995 115.95 56.3903 115.861 56.2564C115.771 56.117 115.612 56.0472 115.384 56.0472C115.283 56.0472 115.186 56.0612 115.091 56.0891C114.996 56.1114 114.909 56.1504 114.831 56.2062C114.759 56.262 114.7 56.3318 114.656 56.4154C114.611 56.4935 114.589 56.5856 114.589 56.6916V59.5369H113.35ZM124.087 58.608H124.045C124.001 58.9037 123.85 59.1491 123.593 59.3444C123.337 59.5397 122.988 59.6373 122.547 59.6373C122.213 59.6373 121.9 59.5731 121.61 59.4448C121.32 59.3165 121.066 59.1268 120.849 58.8758C120.631 58.6247 120.461 58.3123 120.338 57.9385C120.215 57.5647 120.154 57.1323 120.154 56.6414C120.154 56.1504 120.218 55.7153 120.346 55.3359C120.475 54.9565 120.653 54.6385 120.882 54.3819C121.116 54.1253 121.395 53.93 121.719 53.7961C122.042 53.6622 122.402 53.5953 122.798 53.5953C123.323 53.5953 123.775 53.7097 124.154 53.9384C124.533 54.1615 124.832 54.4991 125.049 54.951L124.012 55.5451C123.923 55.3164 123.783 55.1239 123.593 54.9677C123.404 54.8059 123.139 54.725 122.798 54.725C122.402 54.725 122.087 54.8394 121.853 55.0681C121.618 55.2969 121.501 55.6567 121.501 56.1477V57.0849C121.501 57.5703 121.618 57.9301 121.853 58.1644C122.087 58.3932 122.402 58.5075 122.798 58.5075C122.955 58.5075 123.102 58.4908 123.242 58.4573C123.381 58.4183 123.504 58.3625 123.61 58.29C123.716 58.2119 123.797 58.1198 123.853 58.0138C123.914 57.9078 123.945 57.7823 123.945 57.6372V57.3443H122.857V56.2815H125.158V59.5369H124.087V58.608ZM128.11 59.6373C127.787 59.6373 127.497 59.5843 127.24 59.4783C126.989 59.3723 126.774 59.2189 126.596 59.018C126.423 58.8172 126.289 58.5745 126.194 58.29C126.099 58.0054 126.052 57.6874 126.052 57.336C126.052 56.9845 126.099 56.6665 126.194 56.382C126.289 56.0974 126.423 55.8575 126.596 55.6623C126.774 55.4614 126.989 55.308 127.24 55.202C127.497 55.096 127.787 55.043 128.11 55.043C128.434 55.043 128.721 55.096 128.972 55.202C129.229 55.308 129.444 55.4614 129.617 55.6623C129.795 55.8575 129.932 56.0974 130.027 56.382C130.121 56.6665 130.169 56.9845 130.169 57.336C130.169 57.6874 130.121 58.0054 130.027 58.29C129.932 58.5745 129.795 58.8172 129.617 59.018C129.444 59.2189 129.229 59.3723 128.972 59.4783C128.721 59.5843 128.434 59.6373 128.11 59.6373ZM128.11 58.6582C128.356 58.6582 128.545 58.5829 128.679 58.4322C128.813 58.2816 128.88 58.0668 128.88 57.7879V56.8924C128.88 56.6135 128.813 56.3987 128.679 56.2481C128.545 56.0974 128.356 56.0221 128.11 56.0221C127.865 56.0221 127.675 56.0974 127.541 56.2481C127.407 56.3987 127.34 56.6135 127.34 56.8924V57.7879C127.34 58.0668 127.407 58.2816 127.541 58.4322C127.675 58.5829 127.865 58.6582 128.11 58.6582ZM131.051 59.5369V55.1434H132.29V55.8882H132.34C132.418 55.6595 132.555 55.4614 132.75 55.2941C132.945 55.1267 133.216 55.043 133.562 55.043C134.014 55.043 134.354 55.1937 134.583 55.4949C134.817 55.7962 134.934 56.2258 134.934 56.7837V59.5369H133.696V56.8841C133.696 56.5995 133.651 56.3903 133.562 56.2564C133.473 56.117 133.314 56.0472 133.085 56.0472C132.984 56.0472 132.887 56.0612 132.792 56.0891C132.697 56.1114 132.611 56.1504 132.533 56.2062C132.46 56.262 132.401 56.3318 132.357 56.4154C132.312 56.4935 132.29 56.5856 132.29 56.6916V59.5369H131.051ZM135.785 59.5369V58.5578L137.97 56.1058H135.861V55.1434H139.409V56.1142L137.216 58.5745H139.467V59.5369H135.785ZM143.615 59.5369C143.392 59.5369 143.205 59.4671 143.054 59.3277C142.909 59.1882 142.817 59.0013 142.778 58.767H142.728C142.661 59.0515 142.513 59.2691 142.284 59.4197C142.055 59.5648 141.774 59.6373 141.439 59.6373C140.998 59.6373 140.661 59.5201 140.426 59.2858C140.192 59.0515 140.075 58.7419 140.075 58.3569C140.075 57.8939 140.242 57.5508 140.577 57.3276C140.917 57.0989 141.378 56.9845 141.958 56.9845H142.652V56.7083C142.652 56.4963 142.597 56.329 142.485 56.2062C142.373 56.0779 142.186 56.0138 141.924 56.0138C141.679 56.0138 141.484 56.0668 141.338 56.1728C141.193 56.2788 141.073 56.3987 140.979 56.5326L140.242 55.8799C140.421 55.6177 140.644 55.414 140.912 55.269C141.185 55.1183 141.553 55.043 142.016 55.043C142.641 55.043 143.11 55.1797 143.422 55.4531C143.735 55.7264 143.891 56.1253 143.891 56.6498V58.5745H144.301V59.5369H143.615ZM141.899 58.7753C142.106 58.7753 142.281 58.7307 142.426 58.6414C142.577 58.5522 142.652 58.4071 142.652 58.2063V57.6874H142.05C141.564 57.6874 141.322 57.852 141.322 58.1812V58.3067C141.322 58.4685 141.372 58.5884 141.472 58.6665C141.573 58.7391 141.715 58.7753 141.899 58.7753ZM146.362 59.5369C145.938 59.5369 145.626 59.4337 145.425 59.2272C145.23 59.0208 145.132 58.7223 145.132 58.3318V53.3442H146.371V58.5745H146.923V59.5369H146.362ZM149.498 59.6373C149.164 59.6373 148.865 59.5843 148.603 59.4783C148.341 59.3667 148.118 59.2133 147.933 59.018C147.755 58.8172 147.618 58.5745 147.523 58.29C147.434 58.0054 147.389 57.6874 147.389 57.336C147.389 56.9901 147.434 56.6777 147.523 56.3987C147.613 56.1142 147.744 55.8715 147.917 55.6707C148.095 55.4698 148.313 55.3164 148.569 55.2104C148.826 55.0988 149.119 55.043 149.448 55.043C149.811 55.043 150.12 55.1044 150.377 55.2271C150.639 55.3499 150.851 55.5144 151.013 55.7209C151.18 55.9273 151.3 56.1672 151.373 56.4405C151.451 56.7083 151.49 56.9901 151.49 57.2858V57.654H148.67V57.7209C148.67 58.011 148.748 58.2425 148.904 58.4155C149.06 58.5829 149.306 58.6665 149.641 58.6665C149.897 58.6665 150.106 58.6163 150.268 58.5159C150.43 58.4099 150.581 58.2844 150.72 58.1393L151.339 58.9092C151.144 59.138 150.887 59.3165 150.569 59.4448C150.257 59.5731 149.9 59.6373 149.498 59.6373ZM149.473 55.9552C149.222 55.9552 149.024 56.0389 148.879 56.2062C148.74 56.368 148.67 56.5856 148.67 56.859V56.9259H150.21V56.8506C150.21 56.5828 150.148 56.368 150.026 56.2062C149.908 56.0389 149.724 55.9552 149.473 55.9552ZM152.073 59.5369V58.5578L154.257 56.1058H152.148V55.1434H155.696V56.1142L153.504 58.5745H155.755V59.5369H152.073Z" fill="#3F6FE5"/>
<path d="M99.1259 73.2104V72.5912H100.758V67.8881H100.699L99.2264 69.2606L98.8163 68.817L100.364 67.3693H101.461V72.5912H102.967V73.2104H99.1259ZM105.926 73.3109C105.625 73.3109 105.352 73.2607 105.106 73.1602C104.866 73.0542 104.66 72.9064 104.487 72.7167C104.319 72.5214 104.191 72.2843 104.102 72.0054C104.013 71.7264 103.968 71.414 103.968 71.0681C103.968 70.633 104.032 70.2257 104.16 69.8463C104.289 69.4614 104.453 69.1127 104.654 68.8003C104.861 68.4823 105.087 68.2033 105.332 67.9634C105.578 67.718 105.817 67.5199 106.052 67.3693H106.956C106.643 67.598 106.364 67.8212 106.119 68.0388C105.873 68.2563 105.658 68.4851 105.474 68.725C105.29 68.9593 105.134 69.2131 105.006 69.4865C104.877 69.7543 104.774 70.0583 104.696 70.3987L104.738 70.4154C104.877 70.1755 105.056 69.9774 105.273 69.8212C105.497 69.6594 105.787 69.5786 106.144 69.5786C106.395 69.5786 106.626 69.6204 106.838 69.7041C107.05 69.7878 107.232 69.9077 107.382 70.0639C107.533 70.2201 107.65 70.4098 107.734 70.633C107.823 70.8561 107.868 71.1044 107.868 71.3778C107.868 71.6623 107.82 71.9245 107.725 72.1644C107.636 72.3987 107.505 72.6023 107.332 72.7753C107.165 72.9427 106.961 73.0738 106.721 73.1686C106.481 73.2634 106.216 73.3109 105.926 73.3109ZM105.918 72.7C106.303 72.7 106.601 72.594 106.813 72.382C107.031 72.17 107.14 71.8659 107.14 71.4698V71.4029C107.14 71.0068 107.031 70.7027 106.813 70.4907C106.601 70.2787 106.303 70.1727 105.918 70.1727C105.533 70.1727 105.232 70.2787 105.014 70.4907C104.802 70.7027 104.696 71.0068 104.696 71.4029V71.4698C104.696 71.8659 104.802 72.17 105.014 72.382C105.232 72.594 105.533 72.7 105.918 72.7ZM114.838 70.566H111.884V73.2104H111.181V67.3693H111.884V69.9468H114.838V67.3693H115.541V73.2104H114.838V70.566ZM120.169 73.2104C119.918 73.2104 119.737 73.1435 119.625 73.0096C119.519 72.8757 119.452 72.7083 119.424 72.5075H119.382C119.288 72.7753 119.131 72.9761 118.914 73.11C118.696 73.2439 118.437 73.3109 118.135 73.3109C117.678 73.3109 117.321 73.1937 117.064 72.9594C116.813 72.7251 116.688 72.4071 116.688 72.0054C116.688 71.5981 116.836 71.2857 117.131 71.0681C117.433 70.8506 117.898 70.7418 118.529 70.7418H119.382V70.315C119.382 70.0081 119.299 69.7738 119.131 69.612C118.964 69.4502 118.707 69.3693 118.361 69.3693C118.099 69.3693 117.879 69.4279 117.7 69.5451C117.527 69.6622 117.382 69.8184 117.265 70.0137L116.863 69.6371C116.981 69.4028 117.168 69.2048 117.424 69.043C117.681 68.8756 118.004 68.7919 118.395 68.7919C118.919 68.7919 119.327 68.9202 119.617 69.1769C119.907 69.4335 120.052 69.7906 120.052 70.248V72.6247H120.546V73.2104H120.169ZM118.244 72.7418C118.412 72.7418 118.565 72.7223 118.705 72.6832C118.844 72.6442 118.964 72.5884 119.064 72.5159C119.165 72.4433 119.243 72.3597 119.299 72.2648C119.354 72.17 119.382 72.0668 119.382 71.9552V71.2439H118.495C118.11 71.2439 117.829 71.2997 117.65 71.4112C117.477 71.5228 117.391 71.6846 117.391 71.8966V72.0723C117.391 72.2843 117.466 72.4489 117.617 72.5661C117.773 72.6832 117.982 72.7418 118.244 72.7418ZM121.501 73.2104V68.8923H122.171V69.6873H122.212C122.291 69.4809 122.43 69.2968 122.631 69.135C122.832 68.9732 123.108 68.8923 123.459 68.8923H123.719V69.5618H123.325C122.963 69.5618 122.678 69.6316 122.472 69.771C122.271 69.9049 122.171 70.0751 122.171 70.2815V73.2104H121.501ZM124.574 73.2104V68.8923H125.243V69.5953H125.277C125.327 69.4837 125.383 69.3805 125.444 69.2857C125.511 69.1852 125.589 69.0988 125.678 69.0262C125.773 68.9537 125.882 68.8979 126.005 68.8589C126.128 68.8142 126.273 68.7919 126.44 68.7919C126.725 68.7919 126.987 68.8617 127.227 69.0011C127.467 69.135 127.645 69.3582 127.762 69.6706H127.779C127.857 69.4363 128.002 69.2327 128.214 69.0597C128.432 68.8812 128.725 68.7919 129.093 68.7919C129.534 68.7919 129.877 68.937 130.122 69.2271C130.373 69.5116 130.499 69.9161 130.499 70.4405V73.2104H129.829V70.5577C129.829 70.1727 129.754 69.8826 129.603 69.6873C129.453 69.4921 129.213 69.3944 128.884 69.3944C128.75 69.3944 128.621 69.4112 128.499 69.4447C128.381 69.4781 128.275 69.5283 128.181 69.5953C128.086 69.6622 128.01 69.7487 127.955 69.8547C127.899 69.9551 127.871 70.0751 127.871 70.2146V73.2104H127.202V70.5577C127.202 70.1727 127.126 69.8826 126.976 69.6873C126.825 69.4921 126.591 69.3944 126.273 69.3944C126.139 69.3944 126.01 69.4112 125.888 69.4447C125.765 69.4781 125.656 69.5283 125.561 69.5953C125.466 69.6622 125.388 69.7487 125.327 69.8547C125.271 69.9551 125.243 70.0751 125.243 70.2146V73.2104H124.574ZM133.512 73.3109C133.222 73.3109 132.957 73.2579 132.717 73.1519C132.477 73.0459 132.27 72.8952 132.097 72.7C131.93 72.4991 131.799 72.262 131.704 71.9887C131.609 71.7097 131.562 71.3973 131.562 71.0514C131.562 70.7111 131.609 70.4014 131.704 70.1225C131.799 69.8436 131.93 69.6064 132.097 69.4112C132.27 69.2103 132.477 69.0569 132.717 68.9509C132.957 68.8449 133.222 68.7919 133.512 68.7919C133.802 68.7919 134.064 68.8449 134.298 68.9509C134.538 69.0569 134.745 69.2103 134.918 69.4112C135.091 69.6064 135.224 69.8436 135.319 70.1225C135.414 70.4014 135.462 70.7111 135.462 71.0514C135.462 71.3973 135.414 71.7097 135.319 71.9887C135.224 72.262 135.091 72.4991 134.918 72.7C134.745 72.8952 134.538 73.0459 134.298 73.1519C134.064 73.2579 133.802 73.3109 133.512 73.3109ZM133.512 72.7167C133.874 72.7167 134.17 72.6051 134.399 72.382C134.628 72.1588 134.742 71.8185 134.742 71.361V70.7418C134.742 70.2843 134.628 69.944 134.399 69.7208C134.17 69.4977 133.874 69.3861 133.512 69.3861C133.149 69.3861 132.853 69.4977 132.625 69.7208C132.396 69.944 132.282 70.2843 132.282 70.7418V71.361C132.282 71.8185 132.396 72.1588 132.625 72.382C132.853 72.6051 133.149 72.7167 133.512 72.7167ZM136.563 73.2104V68.8923H137.232V69.5953H137.266C137.372 69.3498 137.519 69.1546 137.709 69.0095C137.904 68.8644 138.164 68.7919 138.487 68.7919C138.934 68.7919 139.285 68.937 139.542 69.2271C139.804 69.5116 139.935 69.9161 139.935 70.4405V73.2104H139.266V70.5577C139.266 69.7822 138.939 69.3944 138.286 69.3944C138.153 69.3944 138.021 69.4112 137.893 69.4447C137.77 69.4781 137.659 69.5283 137.558 69.5953C137.458 69.6622 137.377 69.7487 137.316 69.8547C137.26 69.9551 137.232 70.0751 137.232 70.2146V73.2104H136.563ZM143.915 68.8923H144.576L142.643 74.2147C142.592 74.343 142.542 74.449 142.492 74.5327C142.442 74.6219 142.38 74.6917 142.308 74.7419C142.235 74.7921 142.143 74.8283 142.032 74.8507C141.926 74.873 141.795 74.8841 141.638 74.8841H141.295V74.2983H141.973L142.3 73.3778L140.684 68.8923H141.354L142.392 71.8297L142.592 72.5326H142.634L142.869 71.8297L143.915 68.8923ZM149.114 73.3109C148.64 73.3109 148.236 73.2216 147.901 73.0431C147.566 72.859 147.282 72.6079 147.047 72.2899L147.566 71.8548C147.773 72.1281 148.001 72.3373 148.252 72.4824C148.503 72.6219 148.799 72.6916 149.139 72.6916C149.558 72.6916 149.876 72.5912 150.093 72.3903C150.317 72.1895 150.428 71.9217 150.428 71.587C150.428 71.308 150.345 71.0932 150.177 70.9426C150.01 70.792 149.734 70.672 149.349 70.5828L148.872 70.474C148.336 70.3512 147.926 70.1671 147.642 69.9217C147.363 69.6706 147.223 69.3191 147.223 68.8672C147.223 68.6106 147.271 68.3819 147.365 68.181C147.46 67.9802 147.591 67.8128 147.759 67.6789C147.932 67.545 148.135 67.4446 148.37 67.3777C148.609 67.3051 148.872 67.2689 149.156 67.2689C149.597 67.2689 149.974 67.3498 150.286 67.5116C150.604 67.6733 150.872 67.9104 151.089 68.2229L150.562 68.6078C150.4 68.3847 150.205 68.2089 149.976 68.0806C149.748 67.9523 149.463 67.8881 149.123 67.8881C148.749 67.8881 148.453 67.969 148.236 68.1308C148.024 68.287 147.918 68.5241 147.918 68.8421C147.918 69.1211 148.007 69.3331 148.185 69.4781C148.37 69.6176 148.646 69.7292 149.014 69.8129L149.491 69.9217C150.066 70.05 150.481 70.2452 150.738 70.5074C150.994 70.7697 151.123 71.1183 151.123 71.5535C151.123 71.8213 151.075 72.064 150.981 72.2816C150.891 72.4991 150.76 72.6832 150.587 72.8339C150.414 72.9845 150.202 73.1017 149.951 73.1853C149.706 73.269 149.427 73.3109 149.114 73.3109ZM153.224 73.2104C152.989 73.2104 152.811 73.1463 152.688 73.018C152.571 72.8841 152.512 72.7111 152.512 72.4991V69.4781H151.801V68.8923H152.203C152.348 68.8923 152.445 68.8644 152.496 68.8087C152.551 68.7473 152.579 68.6441 152.579 68.499V67.6957H153.182V68.8923H154.128V69.4781H153.182V72.6247H154.061V73.2104H153.224ZM155.63 73.3109C155.452 73.3109 155.321 73.2662 155.237 73.177C155.159 73.0877 155.12 72.9706 155.12 72.8255V72.7167C155.12 72.5717 155.159 72.4545 155.237 72.3652C155.321 72.276 155.452 72.2313 155.63 72.2313C155.809 72.2313 155.937 72.276 156.015 72.3652C156.099 72.4545 156.141 72.5717 156.141 72.7167V72.8255C156.141 72.9706 156.099 73.0877 156.015 73.177C155.937 73.2662 155.809 73.3109 155.63 73.3109Z" fill="#3F6FE5"/>
<path d="M101.226 86.9847C100.484 86.9847 99.907 86.7336 99.4942 86.2315C99.0813 85.7239 98.8749 84.9791 98.8749 83.9972C98.8749 83.0153 99.0813 82.2621 99.4942 81.7377C99.907 81.2077 100.484 80.9427 101.226 80.9427C101.717 80.9427 102.127 81.0543 102.457 81.2774C102.791 81.5006 103.051 81.8158 103.235 82.2231L102.666 82.5662C102.549 82.2649 102.37 82.025 102.13 81.8465C101.89 81.6624 101.589 81.5703 101.226 81.5703C100.975 81.5703 100.749 81.6178 100.549 81.7126C100.353 81.8074 100.186 81.9441 100.046 82.1226C99.9126 82.2956 99.8094 82.5048 99.7368 82.7503C99.6643 82.9902 99.6281 83.2608 99.6281 83.562V84.4323C99.6281 85.0349 99.7675 85.5063 100.046 85.8466C100.325 86.1869 100.719 86.3571 101.226 86.3571C101.6 86.3571 101.913 86.2622 102.164 86.0725C102.415 85.8773 102.599 85.6206 102.716 85.3026L103.277 85.6541C103.093 86.067 102.828 86.3933 102.482 86.6332C102.136 86.8675 101.717 86.9847 101.226 86.9847ZM105.93 86.9847C105.64 86.9847 105.375 86.9317 105.135 86.8257C104.895 86.7197 104.689 86.5691 104.516 86.3738C104.349 86.173 104.218 85.9359 104.123 85.6625C104.028 85.3835 103.98 85.0711 103.98 84.7252C103.98 84.3849 104.028 84.0753 104.123 83.7963C104.218 83.5174 104.349 83.2803 104.516 83.085C104.689 82.8842 104.895 82.7308 105.135 82.6248C105.375 82.5188 105.64 82.4658 105.93 82.4658C106.22 82.4658 106.483 82.5188 106.717 82.6248C106.957 82.7308 107.163 82.8842 107.336 83.085C107.509 83.2803 107.643 83.5174 107.738 83.7963C107.833 84.0753 107.88 84.3849 107.88 84.7252C107.88 85.0711 107.833 85.3835 107.738 85.6625C107.643 85.9359 107.509 86.173 107.336 86.3738C107.163 86.5691 106.957 86.7197 106.717 86.8257C106.483 86.9317 106.22 86.9847 105.93 86.9847ZM105.93 86.3905C106.293 86.3905 106.589 86.279 106.817 86.0558C107.046 85.8326 107.16 85.4923 107.16 85.0349V84.4156C107.16 83.9581 107.046 83.6178 106.817 83.3946C106.589 83.1715 106.293 83.0599 105.93 83.0599C105.568 83.0599 105.272 83.1715 105.043 83.3946C104.814 83.6178 104.7 83.9581 104.7 84.4156V85.0349C104.7 85.4923 104.814 85.8326 105.043 86.0558C105.272 86.279 105.568 86.3905 105.93 86.3905ZM110.278 86.9847C109.877 86.9847 109.539 86.9094 109.266 86.7588C108.998 86.6025 108.766 86.3961 108.571 86.1395L109.048 85.7545C109.215 85.9665 109.402 86.1311 109.609 86.2483C109.815 86.3599 110.055 86.4156 110.328 86.4156C110.613 86.4156 110.833 86.3543 110.99 86.2315C111.151 86.1088 111.232 85.9359 111.232 85.7127C111.232 85.5453 111.176 85.4031 111.065 85.2859C110.959 85.1632 110.764 85.0795 110.479 85.0349L110.136 84.9846C109.935 84.9568 109.751 84.9149 109.584 84.8591C109.416 84.7978 109.268 84.7196 109.14 84.6248C109.017 84.5244 108.92 84.4016 108.847 84.2566C108.78 84.1115 108.747 83.9386 108.747 83.7378C108.747 83.5258 108.786 83.3416 108.864 83.1854C108.942 83.0236 109.048 82.8898 109.182 82.7838C109.321 82.6778 109.486 82.5996 109.676 82.5494C109.865 82.4936 110.069 82.4658 110.287 82.4658C110.638 82.4658 110.931 82.5271 111.165 82.6499C111.405 82.7726 111.614 82.9428 111.793 83.1603L111.349 83.562C111.255 83.4281 111.115 83.3082 110.931 83.2022C110.747 83.0906 110.515 83.0348 110.236 83.0348C109.957 83.0348 109.745 83.0962 109.6 83.2189C109.461 83.3361 109.391 83.4979 109.391 83.7043C109.391 83.9163 109.461 84.0697 109.6 84.1645C109.745 84.2594 109.952 84.3291 110.22 84.3738L110.554 84.424C111.034 84.4965 111.375 84.636 111.575 84.8424C111.776 85.0432 111.877 85.3082 111.877 85.6374C111.877 86.0558 111.734 86.385 111.45 86.6249C111.165 86.8648 110.775 86.9847 110.278 86.9847ZM113.059 86.8843V82.5662H113.729V83.2691H113.762C113.812 83.1575 113.868 83.0543 113.929 82.9595C113.996 82.8591 114.074 82.7726 114.164 82.7001C114.259 82.6275 114.367 82.5718 114.49 82.5327C114.613 82.4881 114.758 82.4658 114.925 82.4658C115.21 82.4658 115.472 82.5355 115.712 82.675C115.952 82.8089 116.13 83.032 116.247 83.3444H116.264C116.342 83.1101 116.487 82.9065 116.699 82.7335C116.917 82.555 117.21 82.4658 117.578 82.4658C118.019 82.4658 118.362 82.6108 118.607 82.9009C118.858 83.1854 118.984 83.5899 118.984 84.1143V86.8843H118.314V84.2315C118.314 83.8465 118.239 83.5564 118.089 83.3612C117.938 83.1659 117.698 83.0683 117.369 83.0683C117.235 83.0683 117.107 83.085 116.984 83.1185C116.867 83.152 116.761 83.2022 116.666 83.2691C116.571 83.3361 116.496 83.4225 116.44 83.5285C116.384 83.629 116.356 83.7489 116.356 83.8884V86.8843H115.687V84.2315C115.687 83.8465 115.611 83.5564 115.461 83.3612C115.31 83.1659 115.076 83.0683 114.758 83.0683C114.624 83.0683 114.496 83.085 114.373 83.1185C114.25 83.152 114.141 83.2022 114.047 83.2691C113.952 83.3361 113.874 83.4225 113.812 83.5285C113.756 83.629 113.729 83.7489 113.729 83.8884V86.8843H113.059ZM121.997 86.9847C121.707 86.9847 121.442 86.9317 121.202 86.8257C120.962 86.7197 120.756 86.5691 120.583 86.3738C120.415 86.173 120.284 85.9359 120.189 85.6625C120.095 85.3835 120.047 85.0711 120.047 84.7252C120.047 84.3849 120.095 84.0753 120.189 83.7963C120.284 83.5174 120.415 83.2803 120.583 83.085C120.756 82.8842 120.962 82.7308 121.202 82.6248C121.442 82.5188 121.707 82.4658 121.997 82.4658C122.287 82.4658 122.549 82.5188 122.784 82.6248C123.024 82.7308 123.23 82.8842 123.403 83.085C123.576 83.2803 123.71 83.5174 123.805 83.7963C123.899 84.0753 123.947 84.3849 123.947 84.7252C123.947 85.0711 123.899 85.3835 123.805 85.6625C123.71 85.9359 123.576 86.173 123.403 86.3738C123.23 86.5691 123.024 86.7197 122.784 86.8257C122.549 86.9317 122.287 86.9847 121.997 86.9847ZM121.997 86.3905C122.36 86.3905 122.655 86.279 122.884 86.0558C123.113 85.8326 123.227 85.4923 123.227 85.0349V84.4156C123.227 83.9581 123.113 83.6178 122.884 83.3946C122.655 83.1715 122.36 83.0599 121.997 83.0599C121.634 83.0599 121.339 83.1715 121.11 83.3946C120.881 83.6178 120.767 83.9581 120.767 84.4156V85.0349C120.767 85.4923 120.881 85.8326 121.11 86.0558C121.339 86.279 121.634 86.3905 121.997 86.3905ZM125.048 82.5662H125.717V83.2691H125.751C125.862 82.9958 126.024 82.7949 126.236 82.6666C126.454 82.5327 126.713 82.4658 127.014 82.4658C127.282 82.4658 127.525 82.5188 127.742 82.6248C127.96 82.7308 128.144 82.8814 128.295 83.0766C128.451 83.2719 128.568 83.509 128.646 83.788C128.73 84.0669 128.772 84.3793 128.772 84.7252C128.772 85.0711 128.73 85.3835 128.646 85.6625C128.568 85.9414 128.451 86.1785 128.295 86.3738C128.144 86.5691 127.96 86.7197 127.742 86.8257C127.525 86.9317 127.282 86.9847 127.014 86.9847C126.429 86.9847 126.007 86.7169 125.751 86.1813H125.717V88.558H125.048V82.5662ZM126.83 86.3822C127.21 86.3822 127.508 86.265 127.726 86.0307C127.943 85.7908 128.052 85.4784 128.052 85.0934V84.357C128.052 83.9721 127.943 83.6624 127.726 83.4281C127.508 83.1882 127.21 83.0683 126.83 83.0683C126.68 83.0683 126.535 83.0906 126.395 83.1352C126.261 83.1743 126.144 83.2301 126.044 83.3026C125.943 83.3751 125.862 83.4644 125.801 83.5704C125.745 83.6708 125.717 83.7796 125.717 83.8968V85.5035C125.717 85.643 125.745 85.7685 125.801 85.8801C125.862 85.9861 125.943 86.0781 126.044 86.1562C126.144 86.2288 126.261 86.2845 126.395 86.3236C126.535 86.3626 126.68 86.3822 126.83 86.3822ZM131.534 86.9847C131.244 86.9847 130.979 86.9317 130.739 86.8257C130.499 86.7197 130.293 86.5691 130.12 86.3738C129.952 86.173 129.821 85.9359 129.726 85.6625C129.632 85.3835 129.584 85.0711 129.584 84.7252C129.584 84.3849 129.632 84.0753 129.726 83.7963C129.821 83.5174 129.952 83.2803 130.12 83.085C130.293 82.8842 130.499 82.7308 130.739 82.6248C130.979 82.5188 131.244 82.4658 131.534 82.4658C131.824 82.4658 132.086 82.5188 132.321 82.6248C132.561 82.7308 132.767 82.8842 132.94 83.085C133.113 83.2803 133.247 83.5174 133.342 83.7963C133.436 84.0753 133.484 84.3849 133.484 84.7252C133.484 85.0711 133.436 85.3835 133.342 85.6625C133.247 85.9359 133.113 86.173 132.94 86.3738C132.767 86.5691 132.561 86.7197 132.321 86.8257C132.086 86.9317 131.824 86.9847 131.534 86.9847ZM131.534 86.3905C131.897 86.3905 132.192 86.279 132.421 86.0558C132.65 85.8326 132.764 85.4923 132.764 85.0349V84.4156C132.764 83.9581 132.65 83.6178 132.421 83.3946C132.192 83.1715 131.897 83.0599 131.534 83.0599C131.171 83.0599 130.876 83.1715 130.647 83.3946C130.418 83.6178 130.304 83.9581 130.304 84.4156V85.0349C130.304 85.4923 130.418 85.8326 130.647 86.0558C130.876 86.279 131.171 86.3905 131.534 86.3905ZM135.296 86.8843C135.062 86.8843 134.883 86.8201 134.761 86.6918C134.643 86.5579 134.585 86.3905 134.585 86.1897V80.6916H135.254V86.2985H135.89V86.8843H135.296ZM137.2 81.5536C137.055 81.5536 136.949 81.5201 136.882 81.4532C136.82 81.3806 136.79 81.2886 136.79 81.177V81.0682C136.79 80.9566 136.82 80.8674 136.882 80.8004C136.949 80.7279 137.055 80.6916 137.2 80.6916C137.345 80.6916 137.448 80.7279 137.509 80.8004C137.576 80.8674 137.61 80.9566 137.61 81.0682V81.177C137.61 81.2886 137.576 81.3806 137.509 81.4532C137.448 81.5201 137.345 81.5536 137.2 81.5536ZM136.865 82.5662H137.534V86.8843H136.865V82.5662ZM140.254 86.9847C139.853 86.9847 139.515 86.9094 139.242 86.7588C138.974 86.6025 138.742 86.3961 138.547 86.1395L139.024 85.7545C139.191 85.9665 139.378 86.1311 139.585 86.2483C139.791 86.3599 140.031 86.4156 140.304 86.4156C140.589 86.4156 140.809 86.3543 140.966 86.2315C141.127 86.1088 141.208 85.9359 141.208 85.7127C141.208 85.5453 141.152 85.4031 141.041 85.2859C140.935 85.1632 140.74 85.0795 140.455 85.0349L140.112 84.9846C139.911 84.9568 139.727 84.9149 139.56 84.8591C139.392 84.7978 139.244 84.7196 139.116 84.6248C138.993 84.5244 138.896 84.4016 138.823 84.2566C138.756 84.1115 138.723 83.9386 138.723 83.7378C138.723 83.5258 138.762 83.3416 138.84 83.1854C138.918 83.0236 139.024 82.8898 139.158 82.7838C139.297 82.6778 139.462 82.5996 139.652 82.5494C139.841 82.4936 140.045 82.4658 140.263 82.4658C140.614 82.4658 140.907 82.5271 141.141 82.6499C141.381 82.7726 141.59 82.9428 141.769 83.1603L141.325 83.562C141.231 83.4281 141.091 83.3082 140.907 83.2022C140.723 83.0906 140.491 83.0348 140.212 83.0348C139.933 83.0348 139.721 83.0962 139.576 83.2189C139.437 83.3361 139.367 83.4979 139.367 83.7043C139.367 83.9163 139.437 84.0697 139.576 84.1645C139.721 84.2594 139.928 84.3291 140.196 84.3738L140.53 84.424C141.01 84.4965 141.35 84.636 141.551 84.8424C141.752 85.0432 141.853 85.3082 141.853 85.6374C141.853 86.0558 141.71 86.385 141.426 86.6249C141.141 86.8648 140.751 86.9847 140.254 86.9847ZM143.421 85.9052C143.6 85.9052 143.728 85.9526 143.806 86.0474C143.89 86.1367 143.931 86.2539 143.931 86.3989V86.5161C143.931 86.7448 143.865 86.9959 143.731 87.2692C143.597 87.5482 143.41 87.7909 143.17 87.9973H142.609C142.777 87.8188 142.911 87.6486 143.011 87.4868C143.117 87.3306 143.192 87.1549 143.237 86.9596C143.125 86.9317 143.042 86.8787 142.986 86.8006C142.936 86.7225 142.911 86.6276 142.911 86.5161V86.3989C142.911 86.2539 142.95 86.1367 143.028 86.0474C143.111 85.9526 143.242 85.9052 143.421 85.9052ZM151.101 86.0307H151.076C151.004 86.3041 150.825 86.5328 150.541 86.7169C150.262 86.8954 149.899 86.9847 149.453 86.9847C149.096 86.9847 148.767 86.9205 148.465 86.7922C148.17 86.6583 147.916 86.4659 147.704 86.2148C147.492 85.9582 147.324 85.643 147.202 85.2692C147.085 84.8898 147.026 84.4546 147.026 83.9637C147.026 83.4783 147.085 83.0488 147.202 82.675C147.319 82.2956 147.486 81.9804 147.704 81.7293C147.921 81.4727 148.184 81.2774 148.49 81.1435C148.797 81.0096 149.138 80.9427 149.511 80.9427C150.036 80.9427 150.474 81.0599 150.825 81.2942C151.177 81.5285 151.447 81.8381 151.637 82.2231L151.06 82.5745C150.926 82.2621 150.725 82.0166 150.457 81.8381C150.195 81.6596 149.88 81.5703 149.511 81.5703C149.255 81.5703 149.02 81.6178 148.808 81.7126C148.596 81.8019 148.412 81.9302 148.256 82.0975C148.106 82.2649 147.988 82.4658 147.905 82.7001C147.821 82.9344 147.779 83.1966 147.779 83.4867V84.4323C147.779 84.7224 147.821 84.9874 147.905 85.2273C147.988 85.4616 148.106 85.6625 148.256 85.8299C148.412 85.9972 148.602 86.1283 148.825 86.2232C149.048 86.3124 149.299 86.3571 149.578 86.3571C149.779 86.3571 149.969 86.332 150.147 86.2818C150.332 86.226 150.491 86.1451 150.624 86.0391C150.764 85.9331 150.873 85.802 150.951 85.6458C151.029 85.484 151.068 85.2943 151.068 85.0767V84.4993H149.779V83.88H151.754V86.8843H151.101V86.0307ZM153.782 86.8843C153.548 86.8843 153.369 86.8201 153.246 86.6918C153.129 86.5579 153.071 86.3905 153.071 86.1897V80.6916H153.74V86.2985H154.376V86.8843H153.782ZM156.983 86.9847C156.692 86.9847 156.427 86.9317 156.188 86.8257C155.948 86.7197 155.741 86.5691 155.568 86.3738C155.401 86.173 155.27 85.9359 155.175 85.6625C155.08 85.3835 155.033 85.0711 155.033 84.7252C155.033 84.3849 155.08 84.0753 155.175 83.7963C155.27 83.5174 155.401 83.2803 155.568 83.085C155.741 82.8842 155.948 82.7308 156.188 82.6248C156.427 82.5188 156.692 82.4658 156.983 82.4658C157.273 82.4658 157.535 82.5188 157.769 82.6248C158.009 82.7308 158.215 82.8842 158.388 83.085C158.561 83.2803 158.695 83.5174 158.79 83.7963C158.885 84.0753 158.932 84.3849 158.932 84.7252C158.932 85.0711 158.885 85.3835 158.79 85.6625C158.695 85.9359 158.561 86.173 158.388 86.3738C158.215 86.5691 158.009 86.7197 157.769 86.8257C157.535 86.9317 157.273 86.9847 156.983 86.9847ZM156.983 86.3905C157.345 86.3905 157.641 86.279 157.87 86.0558C158.098 85.8326 158.213 85.4923 158.213 85.0349V84.4156C158.213 83.9581 158.098 83.6178 157.87 83.3946C157.641 83.1715 157.345 83.0599 156.983 83.0599C156.62 83.0599 156.324 83.1715 156.095 83.3946C155.867 83.6178 155.752 83.9581 155.752 84.4156V85.0349C155.752 85.4923 155.867 85.8326 156.095 86.0558C156.324 86.279 156.62 86.3905 156.983 86.3905ZM160.033 80.6916H160.703V83.2691H160.736C160.848 82.9958 161.01 82.7949 161.222 82.6666C161.439 82.5327 161.699 82.4658 162 82.4658C162.268 82.4658 162.51 82.5188 162.728 82.6248C162.946 82.7308 163.13 82.8814 163.28 83.0766C163.437 83.2719 163.554 83.509 163.632 83.788C163.716 84.0669 163.757 84.3793 163.757 84.7252C163.757 85.0711 163.716 85.3835 163.632 85.6625C163.554 85.9414 163.437 86.1785 163.28 86.3738C163.13 86.5691 162.946 86.7197 162.728 86.8257C162.51 86.9317 162.268 86.9847 162 86.9847C161.414 86.9847 160.993 86.7169 160.736 86.1813H160.703V86.8843H160.033V80.6916ZM161.816 86.3822C162.195 86.3822 162.494 86.265 162.711 86.0307C162.929 85.7908 163.038 85.4784 163.038 85.0934V84.357C163.038 83.9721 162.929 83.6624 162.711 83.4281C162.494 83.1882 162.195 83.0683 161.816 83.0683C161.665 83.0683 161.52 83.0906 161.381 83.1352C161.247 83.1743 161.13 83.2301 161.029 83.3026C160.929 83.3751 160.848 83.4644 160.787 83.5704C160.731 83.6708 160.703 83.7796 160.703 83.8968V85.5035C160.703 85.643 160.731 85.7685 160.787 85.8801C160.848 85.9861 160.929 86.0781 161.029 86.1562C161.13 86.2288 161.247 86.2845 161.381 86.3236C161.52 86.3626 161.665 86.3822 161.816 86.3822ZM168.026 86.8843C167.775 86.8843 167.594 86.8173 167.482 86.6834C167.376 86.5495 167.309 86.3822 167.281 86.1813H167.239C167.144 86.4491 166.988 86.65 166.771 86.7839C166.553 86.9178 166.294 86.9847 165.992 86.9847C165.535 86.9847 165.178 86.8675 164.921 86.6332C164.67 86.3989 164.545 86.0809 164.545 85.6792C164.545 85.272 164.692 84.9595 164.988 84.742C165.289 84.5244 165.755 84.4156 166.386 84.4156H167.239V83.9888C167.239 83.682 167.156 83.4476 166.988 83.2859C166.821 83.1241 166.564 83.0432 166.218 83.0432C165.956 83.0432 165.736 83.1018 165.557 83.2189C165.384 83.3361 165.239 83.4923 165.122 83.6875L164.72 83.311C164.838 83.0766 165.024 82.8786 165.281 82.7168C165.538 82.5494 165.861 82.4658 166.252 82.4658C166.776 82.4658 167.183 82.5941 167.474 82.8507C167.764 83.1073 167.909 83.4644 167.909 83.9219V86.2985H168.402V86.8843H168.026ZM166.101 86.4156C166.269 86.4156 166.422 86.3961 166.561 86.3571C166.701 86.318 166.821 86.2622 166.921 86.1897C167.022 86.1172 167.1 86.0335 167.156 85.9386C167.211 85.8438 167.239 85.7406 167.239 85.629V84.9177H166.352C165.967 84.9177 165.686 84.9735 165.507 85.0851C165.334 85.1966 165.248 85.3584 165.248 85.5704V85.7462C165.248 85.9582 165.323 86.1228 165.474 86.2399C165.63 86.3571 165.839 86.4156 166.101 86.4156ZM170.069 86.8843C169.835 86.8843 169.656 86.8201 169.534 86.6918C169.417 86.5579 169.358 86.3905 169.358 86.1897V80.6916H170.027V86.2985H170.663V86.8843H170.069ZM175.323 86.9847C174.849 86.9847 174.444 86.8954 174.109 86.7169C173.775 86.5328 173.49 86.2818 173.256 85.9638L173.775 85.5286C173.981 85.802 174.21 86.0112 174.461 86.1562C174.712 86.2957 175.008 86.3654 175.348 86.3654C175.766 86.3654 176.084 86.265 176.302 86.0642C176.525 85.8633 176.637 85.5955 176.637 85.2608C176.637 84.9819 176.553 84.7671 176.386 84.6164C176.218 84.4658 175.942 84.3459 175.557 84.2566L175.08 84.1478C174.545 84.0251 174.135 83.841 173.85 83.5955C173.571 83.3444 173.432 82.993 173.432 82.5411C173.432 82.2844 173.479 82.0557 173.574 81.8549C173.669 81.654 173.8 81.4866 173.967 81.3528C174.14 81.2189 174.344 81.1184 174.578 81.0515C174.818 80.979 175.08 80.9427 175.365 80.9427C175.805 80.9427 176.182 81.0236 176.494 81.1854C176.812 81.3472 177.08 81.5843 177.298 81.8967L176.771 82.2816C176.609 82.0585 176.414 81.8828 176.185 81.7544C175.956 81.6261 175.672 81.562 175.331 81.562C174.957 81.562 174.662 81.6429 174.444 81.8046C174.232 81.9609 174.126 82.198 174.126 82.516C174.126 82.7949 174.215 83.0069 174.394 83.152C174.578 83.2914 174.854 83.403 175.222 83.4867L175.699 83.5955C176.274 83.7238 176.69 83.9191 176.946 84.1813C177.203 84.4435 177.331 84.7922 177.331 85.2273C177.331 85.4951 177.284 85.7378 177.189 85.9554C177.1 86.173 176.969 86.3571 176.796 86.5077C176.623 86.6583 176.411 86.7755 176.16 86.8592C175.914 86.9429 175.635 86.9847 175.323 86.9847ZM179.432 86.8843C179.198 86.8843 179.019 86.8201 178.897 86.6918C178.78 86.5579 178.721 86.385 178.721 86.173V83.152H178.01V82.5662H178.411C178.556 82.5662 178.654 82.5383 178.704 82.4825C178.76 82.4211 178.788 82.3179 178.788 82.1729V81.3695H179.39V82.5662H180.336V83.152H179.39V86.2985H180.269V86.8843H179.432ZM184.55 86.8843C184.299 86.8843 184.118 86.8173 184.006 86.6834C183.9 86.5495 183.833 86.3822 183.805 86.1813H183.764C183.669 86.4491 183.513 86.65 183.295 86.7839C183.077 86.9178 182.818 86.9847 182.517 86.9847C182.059 86.9847 181.702 86.8675 181.446 86.6332C181.195 86.3989 181.069 86.0809 181.069 85.6792C181.069 85.272 181.217 84.9595 181.513 84.742C181.814 84.5244 182.28 84.4156 182.91 84.4156H183.764V83.9888C183.764 83.682 183.68 83.4476 183.513 83.2859C183.345 83.1241 183.089 83.0432 182.743 83.0432C182.48 83.0432 182.26 83.1018 182.082 83.2189C181.909 83.3361 181.764 83.4923 181.646 83.6875L181.245 83.311C181.362 83.0766 181.549 82.8786 181.805 82.7168C182.062 82.5494 182.386 82.4658 182.776 82.4658C183.301 82.4658 183.708 82.5941 183.998 82.8507C184.288 83.1073 184.433 83.4644 184.433 83.9219V86.2985H184.927V86.8843H184.55ZM182.626 86.4156C182.793 86.4156 182.946 86.3961 183.086 86.3571C183.225 86.318 183.345 86.2622 183.446 86.1897C183.546 86.1172 183.624 86.0335 183.68 85.9386C183.736 85.8438 183.764 85.7406 183.764 85.629V84.9177H182.877C182.492 84.9177 182.21 84.9735 182.031 85.0851C181.858 85.1966 181.772 85.3584 181.772 85.5704V85.7462C181.772 85.9582 181.847 86.1228 181.998 86.2399C182.154 86.3571 182.363 86.4156 182.626 86.4156ZM186.836 86.8843C186.602 86.8843 186.424 86.8201 186.301 86.6918C186.184 86.5579 186.125 86.385 186.125 86.173V83.152H185.414V82.5662H185.815C185.96 82.5662 186.058 82.5383 186.108 82.4825C186.164 82.4211 186.192 82.3179 186.192 82.1729V81.3695H186.795V82.5662H187.74V83.152H186.795V86.2985H187.673V86.8843H186.836ZM190.407 86.9847C190.111 86.9847 189.844 86.9317 189.604 86.8257C189.369 86.7197 189.166 86.5691 188.993 86.3738C188.825 86.173 188.694 85.9359 188.599 85.6625C188.51 85.3835 188.466 85.0711 188.466 84.7252C188.466 84.3849 188.51 84.0753 188.599 83.7963C188.694 83.5174 188.825 83.2803 188.993 83.085C189.166 82.8842 189.369 82.7308 189.604 82.6248C189.844 82.5188 190.111 82.4658 190.407 82.4658C190.697 82.4658 190.957 82.5188 191.185 82.6248C191.414 82.7308 191.609 82.8786 191.771 83.0683C191.933 83.2524 192.056 83.4728 192.139 83.7294C192.229 83.986 192.273 84.2678 192.273 84.5746V84.8926H189.168V85.0934C189.168 85.2775 189.196 85.4505 189.252 85.6123C189.314 85.7685 189.397 85.9052 189.503 86.0223C189.615 86.1395 189.749 86.2315 189.905 86.2985C190.067 86.3654 190.248 86.3989 190.449 86.3989C190.722 86.3989 190.959 86.3348 191.16 86.2064C191.367 86.0781 191.526 85.894 191.637 85.6541L192.114 85.9972C191.975 86.2929 191.757 86.5328 191.461 86.7169C191.166 86.8954 190.814 86.9847 190.407 86.9847ZM190.407 83.0264C190.223 83.0264 190.056 83.0599 189.905 83.1269C189.754 83.1882 189.623 83.2775 189.512 83.3946C189.406 83.5118 189.322 83.6513 189.261 83.8131C189.199 83.9693 189.168 84.1422 189.168 84.3319V84.3905H191.553V84.2984C191.553 83.9135 191.447 83.6066 191.235 83.3779C191.029 83.1436 190.753 83.0264 190.407 83.0264Z" fill="#3F6FE5"/>
<path d="M100.574 97.1938C100.97 97.1938 101.265 97.1045 101.461 96.926C101.662 96.7419 101.762 96.5075 101.762 96.223V96.1644C101.762 95.8576 101.664 95.6289 101.469 95.4782C101.279 95.322 101.028 95.2439 100.716 95.2439C100.415 95.2439 100.169 95.3109 99.9795 95.4448C99.7898 95.5731 99.6336 95.7488 99.5109 95.972L98.9921 95.5703C99.0646 95.4531 99.1511 95.3388 99.2515 95.2272C99.3575 95.11 99.4802 95.0068 99.6197 94.9175C99.7592 94.8283 99.9209 94.7558 100.105 94.7C100.289 94.6442 100.498 94.6163 100.733 94.6163C100.978 94.6163 101.21 94.6498 101.427 94.7167C101.645 94.7781 101.832 94.8729 101.988 95.0012C102.15 95.124 102.275 95.2774 102.365 95.4615C102.459 95.6456 102.507 95.8548 102.507 96.0891C102.507 96.2788 102.476 96.449 102.415 96.5996C102.359 96.7502 102.281 96.8813 102.18 96.9929C102.08 97.1045 101.96 97.1993 101.821 97.2774C101.687 97.3555 101.542 97.4141 101.385 97.4532V97.4867C101.542 97.5201 101.692 97.5759 101.837 97.654C101.988 97.7265 102.119 97.8242 102.231 97.9469C102.348 98.0641 102.44 98.2091 102.507 98.3821C102.579 98.5494 102.616 98.7419 102.616 98.9595C102.616 99.2105 102.568 99.4421 102.473 99.6541C102.378 99.8605 102.245 100.039 102.072 100.19C101.899 100.335 101.689 100.449 101.444 100.533C101.199 100.616 100.928 100.658 100.632 100.658C100.381 100.658 100.158 100.63 99.9628 100.575C99.7675 100.519 99.5946 100.443 99.4439 100.349C99.2933 100.254 99.1594 100.148 99.0423 100.031C98.9307 99.9135 98.8303 99.7908 98.741 99.6624L99.2682 99.2608C99.3407 99.3779 99.4188 99.4839 99.5025 99.5788C99.5918 99.6736 99.6894 99.7545 99.7954 99.8214C99.9014 99.8884 100.021 99.9414 100.155 99.9804C100.289 100.014 100.445 100.031 100.624 100.031C101.037 100.031 101.349 99.9386 101.561 99.7545C101.773 99.5648 101.879 99.297 101.879 98.9511V98.8842C101.879 98.5383 101.773 98.2733 101.561 98.0892C101.349 97.8995 101.037 97.8047 100.624 97.8047H99.9377V97.1938H100.574ZM105.591 97.1938C105.988 97.1938 106.283 97.1045 106.479 96.926C106.679 96.7419 106.78 96.5075 106.78 96.223V96.1644C106.78 95.8576 106.682 95.6289 106.487 95.4782C106.297 95.322 106.046 95.2439 105.734 95.2439C105.432 95.2439 105.187 95.3109 104.997 95.4448C104.808 95.5731 104.651 95.7488 104.529 95.972L104.01 95.5703C104.082 95.4531 104.169 95.3388 104.269 95.2272C104.375 95.11 104.498 95.0068 104.637 94.9175C104.777 94.8283 104.939 94.7558 105.123 94.7C105.307 94.6442 105.516 94.6163 105.75 94.6163C105.996 94.6163 106.227 94.6498 106.445 94.7167C106.663 94.7781 106.85 94.8729 107.006 95.0012C107.168 95.124 107.293 95.2774 107.382 95.4615C107.477 95.6456 107.525 95.8548 107.525 96.0891C107.525 96.2788 107.494 96.449 107.433 96.5996C107.377 96.7502 107.299 96.8813 107.198 96.9929C107.098 97.1045 106.978 97.1993 106.838 97.2774C106.704 97.3555 106.559 97.4141 106.403 97.4532V97.4867C106.559 97.5201 106.71 97.5759 106.855 97.654C107.006 97.7265 107.137 97.8242 107.248 97.9469C107.366 98.0641 107.458 98.2091 107.525 98.3821C107.597 98.5494 107.633 98.7419 107.633 98.9595C107.633 99.2105 107.586 99.4421 107.491 99.6541C107.396 99.8605 107.262 100.039 107.089 100.19C106.916 100.335 106.707 100.449 106.462 100.533C106.216 100.616 105.946 100.658 105.65 100.658C105.399 100.658 105.176 100.63 104.981 100.575C104.785 100.519 104.612 100.443 104.462 100.349C104.311 100.254 104.177 100.148 104.06 100.031C103.948 99.9135 103.848 99.7908 103.759 99.6624L104.286 99.2608C104.359 99.3779 104.437 99.4839 104.52 99.5788C104.61 99.6736 104.707 99.7545 104.813 99.8214C104.919 99.8884 105.039 99.9414 105.173 99.9804C105.307 100.014 105.463 100.031 105.642 100.031C106.055 100.031 106.367 99.9386 106.579 99.7545C106.791 99.5648 106.897 99.297 106.897 98.9511V98.8842C106.897 98.5383 106.791 98.2733 106.579 98.0892C106.367 97.8995 106.055 97.8047 105.642 97.8047H104.955V97.1938H105.591ZM110.936 100.658C110.238 100.658 109.728 100.393 109.404 99.8633C109.086 99.3333 108.927 98.5913 108.927 97.6373C108.927 96.6833 109.086 95.9413 109.404 95.4113C109.728 94.8813 110.238 94.6163 110.936 94.6163C111.633 94.6163 112.141 94.8813 112.459 95.4113C112.782 95.9413 112.944 96.6833 112.944 97.6373C112.944 98.5913 112.782 99.3333 112.459 99.8633C112.141 100.393 111.633 100.658 110.936 100.658ZM110.936 100.047C111.164 100.047 111.36 100 111.521 99.9051C111.683 99.8103 111.814 99.6764 111.915 99.5034C112.015 99.3305 112.088 99.1269 112.132 98.8925C112.183 98.6582 112.208 98.3988 112.208 98.1143V97.1603C112.208 96.8758 112.183 96.6163 112.132 96.382C112.088 96.1477 112.015 95.9441 111.915 95.7711C111.814 95.5982 111.683 95.4643 111.521 95.3694C111.36 95.2746 111.164 95.2272 110.936 95.2272C110.707 95.2272 110.512 95.2746 110.35 95.3694C110.188 95.4643 110.057 95.5982 109.957 95.7711C109.856 95.9441 109.781 96.1477 109.731 96.382C109.686 96.6163 109.664 96.8758 109.664 97.1603V98.1143C109.664 98.3988 109.686 98.6582 109.731 98.8925C109.781 99.1269 109.856 99.3305 109.957 99.5034C110.057 99.6764 110.188 99.8103 110.35 99.9051C110.512 100 110.707 100.047 110.936 100.047ZM114.179 100.558V99.9386H115.811V95.2355H115.753L114.28 96.608L113.87 96.1644L115.418 94.7167H116.514V99.9386H118.02V100.558H114.179ZM120.971 100.658C120.274 100.658 119.763 100.393 119.44 99.8633C119.122 99.3333 118.963 98.5913 118.963 97.6373C118.963 96.6833 119.122 95.9413 119.44 95.4113C119.763 94.8813 120.274 94.6163 120.971 94.6163C121.669 94.6163 122.176 94.8813 122.494 95.4113C122.818 95.9413 122.98 96.6833 122.98 97.6373C122.98 98.5913 122.818 99.3333 122.494 99.8633C122.176 100.393 121.669 100.658 120.971 100.658ZM120.971 100.047C121.2 100.047 121.395 100 121.557 99.9051C121.719 99.8103 121.85 99.6764 121.95 99.5034C122.051 99.3305 122.123 99.1269 122.168 98.8925C122.218 98.6582 122.243 98.3988 122.243 98.1143V97.1603C122.243 96.8758 122.218 96.6163 122.168 96.382C122.123 96.1477 122.051 95.9441 121.95 95.7711C121.85 95.5982 121.719 95.4643 121.557 95.3694C121.395 95.2746 121.2 95.2272 120.971 95.2272C120.742 95.2272 120.547 95.2746 120.385 95.3694C120.224 95.4643 120.093 95.5982 119.992 95.7711C119.892 95.9441 119.816 96.1477 119.766 96.382C119.722 96.6163 119.699 96.8758 119.699 97.1603V98.1143C119.699 98.3988 119.722 98.6582 119.766 98.8925C119.816 99.1269 119.892 99.3305 119.992 99.5034C120.093 99.6764 120.224 99.8103 120.385 99.9051C120.547 100 120.742 100.047 120.971 100.047Z" fill="#3F6FE5"/>
<g opacity="0.16">
<rect x="98.3895" y="130.874" width="60.2526" height="6.69474" fill="#377CFC"/>
<rect x="192.116" y="130.874" width="43.5158" height="6.69474" fill="#377CFC"/>
<path d="M98.3895 128.363H327.684V126.69H98.3895V128.363ZM327.684 140.079H98.3895V141.753H327.684V140.079Z" fill="#D6D6D6" mask="url(#path-10-inside-2_4473_9088)"/>
<rect x="98.3895" y="147.611" width="60.2526" height="6.69474" fill="#377CFC"/>
<rect x="192.116" y="147.611" width="43.5158" height="6.69474" fill="#377CFC"/>
</g>
<rect opacity="0.16" x="166" y="109.116" width="83.6842" height="11.7158" fill="#377CFC"/>
</g>
<rect x="85.4184" y="2.41842" width="127.163" height="157.163" rx="3.58158" stroke="#F2F3F4" stroke-width="0.836842"/>
</g>
<path d="M34.8218 27.4111H76.4451C77.358 27.4111 78.1006 28.1578 78.1006 29.0758V44.2955C78.1006 45.2134 77.358 45.9601 76.4451 45.9601H4.55025C3.63737 45.9601 2.89478 45.2134 2.89478 44.2955V29.0758C2.89478 28.1578 3.63737 27.4111 4.55025 27.4111H7.89431" fill="white"/>
<path d="M34.8218 27.4111H76.4451C77.358 27.4111 78.1006 28.1578 78.1006 29.0758V44.2955C78.1006 45.2134 77.358 45.9601 76.4451 45.9601H4.55025C3.63737 45.9601 2.89478 45.2134 2.89478 44.2955V29.0758C2.89478 28.1578 3.63737 27.4111 4.55025 27.4111H7.89431" stroke="#D6DADB"/>
<path d="M10.666 28.6003V25.2805H11.0633V28.2484H12.4681V28.6003H10.666ZM14.7669 28.6003C14.625 28.6003 14.5209 28.5623 14.4594 28.4862C14.3979 28.4101 14.3601 28.3149 14.3459 28.2008H14.3223C14.2702 28.353 14.1804 28.4671 14.0574 28.5432C13.9344 28.6193 13.7878 28.6574 13.6175 28.6574C13.3573 28.6574 13.1587 28.5908 13.0121 28.4576C12.8702 28.3245 12.7992 28.1437 12.7992 27.9154C12.7992 27.6871 12.8844 27.5064 13.0499 27.3827C13.2202 27.2591 13.4851 27.1972 13.8398 27.1972H14.3223V26.9547C14.3223 26.7787 14.275 26.6455 14.1804 26.5552C14.0858 26.4648 13.9391 26.4172 13.7452 26.4172C13.5986 26.4172 13.4709 26.4505 13.3715 26.5171C13.2722 26.5837 13.1918 26.6741 13.1256 26.7835L12.8985 26.5694C12.9648 26.4363 13.0688 26.3221 13.2154 26.2317C13.3621 26.1366 13.5418 26.0891 13.7641 26.0891C14.0621 26.0891 14.2891 26.1604 14.4547 26.3078C14.6202 26.4553 14.7006 26.655 14.7006 26.9166V28.2674H14.9797V28.6003H14.7669ZM13.679 28.334C13.7736 28.334 13.8587 28.3245 13.9391 28.3007C14.0195 28.2769 14.0858 28.2484 14.1425 28.2056C14.1993 28.1627 14.2418 28.1152 14.275 28.0629C14.3081 28.0106 14.3223 27.9487 14.3223 27.8869V27.4826H13.8209C13.6033 27.4826 13.4425 27.5159 13.3432 27.5777C13.2438 27.6396 13.1965 27.7347 13.1965 27.8536V27.9535C13.1965 28.0724 13.2391 28.1675 13.3242 28.2341C13.4141 28.3007 13.5324 28.334 13.679 28.334ZM16.2521 28.6574C16.025 28.6574 15.8358 28.6146 15.6797 28.529C15.5284 28.4386 15.3959 28.3245 15.2872 28.177L15.5568 27.9582C15.6514 28.0771 15.7554 28.1723 15.8737 28.2388C15.9919 28.3007 16.1244 28.334 16.2804 28.334C16.4365 28.334 16.5642 28.3007 16.6541 28.2293C16.744 28.158 16.7913 28.0629 16.7913 27.9345C16.7913 27.8393 16.7582 27.7585 16.6967 27.6919C16.6352 27.6205 16.5264 27.573 16.3656 27.5492L16.1717 27.5207C16.0581 27.5064 15.9541 27.4826 15.8595 27.4493C15.7649 27.416 15.6797 27.3685 15.6088 27.3162C15.5378 27.2591 15.4858 27.1877 15.4432 27.1069C15.4054 27.026 15.3865 26.9261 15.3865 26.812C15.3865 26.6931 15.4101 26.5885 15.4527 26.4981C15.4953 26.4077 15.5568 26.3316 15.6324 26.2698C15.7128 26.208 15.8027 26.1652 15.9115 26.1366C16.0203 26.1033 16.1338 26.0891 16.2568 26.0891C16.4554 26.0891 16.621 26.1224 16.7534 26.1937C16.8906 26.265 17.0088 26.3602 17.1082 26.4838L16.8575 26.7121C16.8055 26.636 16.7251 26.5694 16.621 26.5076C16.5169 26.4458 16.3845 26.4125 16.2284 26.4125C16.0723 26.4125 15.9493 26.4458 15.8689 26.5171C15.7885 26.5837 15.7507 26.6741 15.7507 26.793C15.7507 26.9119 15.7885 27.0022 15.8689 27.0546C15.9493 27.1069 16.0676 27.1497 16.219 27.1735L16.4081 27.202C16.6778 27.2448 16.8717 27.3209 16.9852 27.4398C17.0987 27.554 17.1555 27.7062 17.1555 27.8916C17.1555 28.1295 17.0751 28.3149 16.9142 28.4529C16.7534 28.5908 16.5311 28.6574 16.2521 28.6574ZM18.3285 28.6003C18.1961 28.6003 18.0967 28.5623 18.0258 28.4909C17.9596 28.4148 17.9265 28.3149 17.9265 28.196V26.4791H17.5244V26.1461H17.7514C17.8319 26.1461 17.8886 26.1319 17.917 26.0986C17.9501 26.0653 17.9643 26.0035 17.9643 25.9226V25.466H18.3048V26.1461H18.8393V26.4791H18.3048V28.2674H18.8015V28.6003H18.3285ZM20.5658 28.6003V26.1461H20.9441V26.5457H20.9631C21.0246 26.4077 21.105 26.2936 21.2138 26.2127C21.3225 26.1319 21.4692 26.0891 21.6536 26.0891C21.9043 26.0891 22.103 26.1699 22.2496 26.3364C22.3962 26.4981 22.4719 26.7264 22.4719 27.026V28.6003H22.0935V27.0926C22.0935 26.6503 21.9091 26.4315 21.5401 26.4315C21.4644 26.4315 21.3888 26.441 21.3178 26.46C21.2469 26.4791 21.1854 26.5076 21.1286 26.5457C21.0719 26.5837 21.0246 26.6313 20.9914 26.6931C20.9583 26.7502 20.9441 26.8168 20.9441 26.8976V28.6003H20.5658ZM25.0261 28.6003C24.8842 28.6003 24.7801 28.5623 24.7186 28.4862C24.6571 28.4101 24.6193 28.3149 24.6051 28.2008H24.5815C24.5294 28.353 24.4396 28.4671 24.3166 28.5432C24.1936 28.6193 24.047 28.6574 23.8767 28.6574C23.6166 28.6574 23.4179 28.5908 23.2713 28.4576C23.1294 28.3245 23.0584 28.1437 23.0584 27.9154C23.0584 27.6871 23.1436 27.5064 23.3091 27.3827C23.4794 27.2591 23.7443 27.1972 24.099 27.1972H24.5815V26.9547C24.5815 26.7787 24.5342 26.6455 24.4396 26.5552C24.345 26.4648 24.1983 26.4172 24.0044 26.4172C23.8578 26.4172 23.7301 26.4505 23.6307 26.5171C23.5314 26.5837 23.451 26.6741 23.3848 26.7835L23.1578 26.5694C23.224 26.4363 23.328 26.3221 23.4747 26.2317C23.6213 26.1366 23.801 26.0891 24.0233 26.0891C24.3213 26.0891 24.5484 26.1604 24.7139 26.3078C24.8794 26.4553 24.9599 26.655 24.9599 26.9166V28.2674H25.2389V28.6003H25.0261ZM23.9382 28.334C24.0328 28.334 24.1179 28.3245 24.1983 28.3007C24.2787 28.2769 24.345 28.2484 24.4017 28.2056C24.4585 28.1627 24.5011 28.1152 24.5342 28.0629C24.5673 28.0106 24.5815 27.9487 24.5815 27.8869V27.4826H24.0801C23.8625 27.4826 23.7017 27.5159 23.6024 27.5777C23.503 27.6396 23.4557 27.7347 23.4557 27.8536V27.9535C23.4557 28.0724 23.4983 28.1675 23.5834 28.2341C23.6733 28.3007 23.7916 28.334 23.9382 28.334ZM25.7781 28.6003V26.1461H26.1565V26.5457H26.1754C26.2038 26.4838 26.2369 26.422 26.27 26.3697C26.3079 26.3126 26.3505 26.265 26.4025 26.2222C26.4545 26.1794 26.516 26.1509 26.587 26.1271C26.6579 26.1033 26.7383 26.0891 26.8329 26.0891C26.9937 26.0891 27.1404 26.1271 27.2775 26.208C27.4147 26.2841 27.514 26.4125 27.5802 26.5885H27.5897C27.6323 26.4553 27.7174 26.3411 27.8357 26.2413C27.9586 26.1414 28.1242 26.0891 28.3323 26.0891C28.583 26.0891 28.7769 26.1699 28.9141 26.3364C29.056 26.4981 29.1269 26.7264 29.1269 27.026V28.6003H28.7485V27.0926C28.7485 26.8738 28.706 26.7074 28.6208 26.598C28.5357 26.4886 28.3985 26.4315 28.214 26.4315C28.1384 26.4315 28.0674 26.441 27.9965 26.46C27.9303 26.4791 27.8688 26.5076 27.8167 26.5457C27.7647 26.5837 27.7221 26.6313 27.689 26.6931C27.6559 26.7502 27.6417 26.8168 27.6417 26.8976V28.6003H27.2633V27.0926C27.2633 26.8738 27.2208 26.7074 27.1356 26.598C27.0505 26.4886 26.918 26.4315 26.7383 26.4315C26.6626 26.4315 26.5917 26.441 26.5207 26.46C26.4498 26.4791 26.3883 26.5076 26.3363 26.5457C26.2842 26.5837 26.2369 26.6313 26.2038 26.6931C26.1707 26.7502 26.1565 26.8168 26.1565 26.8976V28.6003H25.7781ZM30.825 28.6574C30.6594 28.6574 30.5081 28.6289 30.3709 28.567C30.2385 28.5052 30.1249 28.4196 30.0256 28.3102C29.931 28.196 29.8553 28.0629 29.8033 27.9059C29.7513 27.749 29.7276 27.5682 29.7276 27.3732C29.7276 27.1782 29.7513 27.0022 29.8033 26.8453C29.8553 26.6883 29.931 26.5504 30.0256 26.441C30.1249 26.3269 30.2385 26.2413 30.3709 26.1794C30.5081 26.1176 30.6594 26.0891 30.825 26.0891C30.9905 26.0891 31.1371 26.1176 31.2648 26.1794C31.3926 26.2413 31.5061 26.3221 31.5959 26.4315C31.6858 26.5361 31.7568 26.6598 31.8041 26.8072C31.8561 26.9547 31.8797 27.1116 31.8797 27.2876V27.4684H30.1249V27.5825C30.1249 27.6871 30.1391 27.787 30.1722 27.8774C30.2053 27.9677 30.2526 28.0438 30.3141 28.1104C30.3756 28.177 30.4513 28.2293 30.5412 28.2674C30.631 28.3054 30.7351 28.3245 30.8486 28.3245C31.0047 28.3245 31.1371 28.2864 31.2507 28.2151C31.3689 28.1437 31.4588 28.0391 31.5203 27.9012L31.7899 28.0962C31.7095 28.2626 31.5865 28.4006 31.4209 28.5052C31.2554 28.6051 31.0567 28.6574 30.825 28.6574ZM30.825 26.4077C30.7209 26.4077 30.6263 26.4268 30.5412 26.4648C30.456 26.4981 30.3804 26.5504 30.3189 26.617C30.2574 26.6836 30.2101 26.7644 30.177 26.8548C30.1439 26.9452 30.1249 27.0403 30.1249 27.1497V27.183H31.473V27.1307C31.473 26.9119 31.4115 26.7359 31.2932 26.6075C31.175 26.4743 31.0189 26.4077 30.825 26.4077Z" fill="#333333"/>
<path d="M34.8218 57.8506H76.4451C77.358 57.8506 78.1006 58.5973 78.1006 59.5152V74.7349C78.1006 75.6529 77.358 76.3996 76.4451 76.3996H4.55025C3.63737 76.3996 2.89478 75.6529 2.89478 74.7349V59.5152C2.89478 58.5973 3.63737 57.8506 4.55025 57.8506H8.33419" fill="white"/>
<path d="M34.8218 57.8506H76.4451C77.358 57.8506 78.1006 58.5973 78.1006 59.5152V74.7349C78.1006 75.6529 77.358 76.3996 76.4451 76.3996H4.55025C3.63737 76.3996 2.89478 75.6529 2.89478 74.7349V59.5152C2.89478 58.5973 3.63737 57.8506 4.55025 57.8506H8.33419" stroke="#D6DADB"/>
<path d="M10.666 59.0396V55.7198H12.6337V56.0717H11.0633V57.1847H12.4965V57.5366H11.0633V59.0396H10.666ZM13.4614 56.0099C13.381 56.0099 13.3195 55.9909 13.2817 55.9528C13.2486 55.91 13.2296 55.8577 13.2296 55.7959V55.734C13.2296 55.6722 13.2486 55.6199 13.2817 55.5819C13.3195 55.539 13.381 55.52 13.4614 55.52C13.5418 55.52 13.6033 55.539 13.6364 55.5819C13.6742 55.6199 13.6932 55.6722 13.6932 55.734V55.7959C13.6932 55.8577 13.6742 55.91 13.6364 55.9528C13.6033 55.9909 13.5418 56.0099 13.4614 56.0099ZM13.2722 56.5854H13.6506V59.0396H13.2722V56.5854ZM14.4547 59.0396V56.5854H14.8331V57.0372H14.8567C14.8993 56.9183 14.9797 56.8137 15.0932 56.7233C15.2067 56.633 15.3628 56.5854 15.5615 56.5854H15.7081V56.9659H15.4858C15.2824 56.9659 15.1216 57.0039 15.0034 57.0848C14.8898 57.1609 14.8331 57.256 14.8331 57.3749V59.0396H14.4547ZM16.9237 59.0967C16.6967 59.0967 16.5075 59.0538 16.3514 58.9682C16.2 58.8779 16.0676 58.7637 15.9588 58.6163L16.2284 58.3975C16.323 58.5164 16.4271 58.6115 16.5453 58.6781C16.6636 58.7399 16.796 58.7732 16.9521 58.7732C17.1082 58.7732 17.2359 58.7399 17.3258 58.6686C17.4156 58.5973 17.4629 58.5021 17.4629 58.3737C17.4629 58.2786 17.4298 58.1977 17.3683 58.1312C17.3068 58.0598 17.198 58.0122 17.0372 57.9885L16.8433 57.9599C16.7298 57.9457 16.6257 57.9219 16.5311 57.8886C16.4365 57.8553 16.3514 57.8077 16.2804 57.7554C16.2095 57.6983 16.1575 57.627 16.1149 57.5461C16.0771 57.4653 16.0581 57.3654 16.0581 57.2513C16.0581 57.1324 16.0818 57.0277 16.1244 56.9374C16.1669 56.847 16.2284 56.7709 16.3041 56.7091C16.3845 56.6472 16.4744 56.6044 16.5832 56.5759C16.6919 56.5426 16.8055 56.5283 16.9284 56.5283C17.1271 56.5283 17.2926 56.5616 17.4251 56.633C17.5622 56.7043 17.6805 56.7994 17.7798 56.9231L17.5291 57.1514C17.4771 57.0753 17.3967 57.0087 17.2926 56.9469C17.1886 56.885 17.0561 56.8517 16.9001 56.8517C16.744 56.8517 16.621 56.885 16.5406 56.9564C16.4602 57.023 16.4223 57.1133 16.4223 57.2322C16.4223 57.3511 16.4602 57.4415 16.5406 57.4938C16.621 57.5461 16.7392 57.5889 16.8906 57.6127L17.0798 57.6413C17.3494 57.6841 17.5433 57.7602 17.6568 57.8791C17.7704 57.9932 17.8271 58.1454 17.8271 58.3309C17.8271 58.5687 17.7467 58.7542 17.5859 58.8921C17.4251 59.0301 17.2028 59.0967 16.9237 59.0967ZM19.0001 59.0396C18.8677 59.0396 18.7684 59.0015 18.6974 58.9302C18.6312 58.8541 18.5981 58.7542 18.5981 58.6353V56.9183H18.1961V56.5854H18.4231C18.5035 56.5854 18.5603 56.5711 18.5886 56.5378C18.6218 56.5045 18.6359 56.4427 18.6359 56.3619V55.9053H18.9765V56.5854H19.511V56.9183H18.9765V58.7066H19.4731V59.0396H19.0001ZM21.2374 59.0396V56.5854H21.6158V56.9849H21.6347C21.6962 56.847 21.7766 56.7328 21.8854 56.652C21.9942 56.5711 22.1408 56.5283 22.3253 56.5283C22.576 56.5283 22.7746 56.6092 22.9213 56.7756C23.0679 56.9374 23.1436 57.1657 23.1436 57.4653V59.0396H22.7652V57.5319C22.7652 57.0896 22.5807 56.8708 22.2118 56.8708C22.1361 56.8708 22.0604 56.8803 21.9895 56.8993C21.9185 56.9183 21.857 56.9469 21.8003 56.9849C21.7435 57.023 21.6962 57.0705 21.6631 57.1324C21.63 57.1894 21.6158 57.256 21.6158 57.3369V59.0396H21.2374ZM25.6977 59.0396C25.5558 59.0396 25.4518 59.0015 25.3903 58.9254C25.3288 58.8493 25.2909 58.7542 25.2768 58.6401H25.2531C25.2011 58.7923 25.1112 58.9064 24.9882 58.9825C24.8653 59.0586 24.7186 59.0967 24.5484 59.0967C24.2882 59.0967 24.0895 59.0301 23.9429 58.8969C23.801 58.7637 23.7301 58.583 23.7301 58.3547C23.7301 58.1264 23.8152 57.9457 23.9808 57.822C24.151 57.6983 24.4159 57.6365 24.7707 57.6365H25.2531V57.3939C25.2531 57.218 25.2058 57.0848 25.1112 56.9944C25.0166 56.9041 24.87 56.8565 24.6761 56.8565C24.5294 56.8565 24.4017 56.8898 24.3024 56.9564C24.2031 57.023 24.1227 57.1133 24.0564 57.2227L23.8294 57.0087C23.8956 56.8755 23.9997 56.7614 24.1463 56.671C24.2929 56.5759 24.4727 56.5283 24.695 56.5283C24.993 56.5283 25.22 56.5997 25.3855 56.7471C25.5511 56.8946 25.6315 57.0943 25.6315 57.3559V58.7066H25.9106V59.0396H25.6977ZM24.6098 58.7732C24.7044 58.7732 24.7896 58.7637 24.87 58.7399C24.9504 58.7162 25.0166 58.6876 25.0734 58.6448C25.1301 58.602 25.1727 58.5545 25.2058 58.5021C25.2389 58.4498 25.2531 58.388 25.2531 58.3262V57.9219H24.7517C24.5342 57.9219 24.3733 57.9552 24.274 58.017C24.1747 58.0788 24.1274 58.174 24.1274 58.2929V58.3927C24.1274 58.5116 24.17 58.6068 24.2551 58.6734C24.345 58.7399 24.4632 58.7732 24.6098 58.7732ZM26.4498 59.0396V56.5854H26.8282V56.9849H26.8471C26.8755 56.9231 26.9086 56.8613 26.9417 56.8089C26.9795 56.7519 27.0221 56.7043 27.0741 56.6615C27.1262 56.6187 27.1877 56.5902 27.2586 56.5664C27.3295 56.5426 27.41 56.5283 27.5046 56.5283C27.6654 56.5283 27.812 56.5664 27.9492 56.6472C28.0863 56.7233 28.1857 56.8517 28.2519 57.0277H28.2613C28.3039 56.8946 28.3891 56.7804 28.5073 56.6805C28.6303 56.5806 28.7958 56.5283 29.0039 56.5283C29.2546 56.5283 29.4486 56.6092 29.5857 56.7756C29.7276 56.9374 29.7986 57.1657 29.7986 57.4653V59.0396H29.4202V57.5319C29.4202 57.3131 29.3776 57.1466 29.2925 57.0372C29.2073 56.9278 29.0702 56.8708 28.8857 56.8708C28.81 56.8708 28.7391 56.8803 28.6681 56.8993C28.6019 56.9183 28.5404 56.9469 28.4884 56.9849C28.4364 57.023 28.3938 57.0705 28.3607 57.1324C28.3276 57.1894 28.3134 57.256 28.3134 57.3369V59.0396H27.935V57.5319C27.935 57.3131 27.8924 57.1466 27.8073 57.0372C27.7221 56.9278 27.5897 56.8708 27.41 56.8708C27.3343 56.8708 27.2633 56.8803 27.1924 56.8993C27.1214 56.9183 27.0599 56.9469 27.0079 56.9849C26.9559 57.023 26.9086 57.0705 26.8755 57.1324C26.8424 57.1894 26.8282 57.256 26.8282 57.3369V59.0396H26.4498ZM31.4966 59.0967C31.3311 59.0967 31.1797 59.0681 31.0425 59.0063C30.9101 58.9445 30.7966 58.8588 30.6973 58.7495C30.6027 58.6353 30.527 58.5021 30.475 58.3452C30.4229 58.1882 30.3993 58.0075 30.3993 57.8125C30.3993 57.6175 30.4229 57.4415 30.475 57.2846C30.527 57.1276 30.6027 56.9897 30.6973 56.8803C30.7966 56.7661 30.9101 56.6805 31.0425 56.6187C31.1797 56.5569 31.3311 56.5283 31.4966 56.5283C31.6622 56.5283 31.8088 56.5569 31.9365 56.6187C32.0642 56.6805 32.1777 56.7614 32.2676 56.8708C32.3575 56.9754 32.4284 57.0991 32.4757 57.2465C32.5277 57.3939 32.5514 57.5509 32.5514 57.7269V57.9076H30.7966V58.0218C30.7966 58.1264 30.8108 58.2263 30.8439 58.3166C30.877 58.407 30.9243 58.4831 30.9858 58.5497C31.0473 58.6163 31.1229 58.6686 31.2128 58.7066C31.3027 58.7447 31.4067 58.7637 31.5203 58.7637C31.6764 58.7637 31.8088 58.7257 31.9223 58.6543C32.0406 58.583 32.1304 58.4784 32.1919 58.3404L32.4615 58.5354C32.3811 58.7019 32.2581 58.8398 32.0926 58.9445C31.927 59.0443 31.7284 59.0967 31.4966 59.0967ZM31.4966 56.847C31.3926 56.847 31.298 56.866 31.2128 56.9041C31.1277 56.9374 31.052 56.9897 30.9905 57.0563C30.929 57.1228 30.8817 57.2037 30.8486 57.2941C30.8155 57.3844 30.7966 57.4796 30.7966 57.5889V57.6222H32.1446V57.5699C32.1446 57.3511 32.0831 57.1752 31.9649 57.0467C31.8466 56.9136 31.6905 56.847 31.4966 56.847Z" fill="#333333"/>
<path d="M13.27 38.388H13.252C13.2 38.584 13.072 38.748 12.868 38.88C12.668 39.008 12.408 39.072 12.088 39.072C11.832 39.072 11.596 39.026 11.38 38.934C11.168 38.838 10.986 38.7 10.834 38.52C10.682 38.336 10.562 38.11 10.474 37.842C10.39 37.57 10.348 37.258 10.348 36.906C10.348 36.558 10.39 36.25 10.474 35.982C10.558 35.71 10.678 35.484 10.834 35.304C10.99 35.12 11.178 34.98 11.398 34.884C11.618 34.788 11.862 34.74 12.13 34.74C12.506 34.74 12.82 34.824 13.072 34.992C13.324 35.16 13.518 35.382 13.654 35.658L13.24 35.91C13.144 35.686 13 35.51 12.808 35.382C12.62 35.254 12.394 35.19 12.13 35.19C11.946 35.19 11.778 35.224 11.626 35.292C11.474 35.356 11.342 35.448 11.23 35.568C11.122 35.688 11.038 35.832 10.978 36C10.918 36.168 10.888 36.356 10.888 36.564V37.242C10.888 37.45 10.918 37.64 10.978 37.812C11.038 37.98 11.122 38.124 11.23 38.244C11.342 38.364 11.478 38.458 11.638 38.526C11.798 38.59 11.978 38.622 12.178 38.622C12.322 38.622 12.458 38.604 12.586 38.568C12.718 38.528 12.832 38.47 12.928 38.394C13.028 38.318 13.106 38.224 13.162 38.112C13.218 37.996 13.246 37.86 13.246 37.704V37.29H12.322V36.846H13.738V39H13.27V38.388ZM15.8519 39.072C15.6439 39.072 15.4539 39.034 15.2819 38.958C15.1099 38.882 14.9619 38.774 14.8379 38.634C14.7179 38.49 14.6239 38.32 14.5559 38.124C14.4879 37.924 14.4539 37.7 14.4539 37.452C14.4539 37.208 14.4879 36.986 14.5559 36.786C14.6239 36.586 14.7179 36.416 14.8379 36.276C14.9619 36.132 15.1099 36.022 15.2819 35.946C15.4539 35.87 15.6439 35.832 15.8519 35.832C16.0599 35.832 16.2479 35.87 16.4159 35.946C16.5879 36.022 16.7359 36.132 16.8599 36.276C16.9839 36.416 17.0799 36.586 17.1479 36.786C17.2159 36.986 17.2499 37.208 17.2499 37.452C17.2499 37.7 17.2159 37.924 17.1479 38.124C17.0799 38.32 16.9839 38.49 16.8599 38.634C16.7359 38.774 16.5879 38.882 16.4159 38.958C16.2479 39.034 16.0599 39.072 15.8519 39.072ZM15.8519 38.646C16.1119 38.646 16.3239 38.566 16.4879 38.406C16.6519 38.246 16.7339 38.002 16.7339 37.674V37.23C16.7339 36.902 16.6519 36.658 16.4879 36.498C16.3239 36.338 16.1119 36.258 15.8519 36.258C15.5919 36.258 15.3799 36.338 15.2159 36.498C15.0519 36.658 14.9699 36.902 14.9699 37.23V37.674C14.9699 38.002 15.0519 38.246 15.2159 38.406C15.3799 38.566 15.5919 38.646 15.8519 38.646ZM18.0393 39V35.904H18.5193V36.408H18.5433C18.6193 36.232 18.7253 36.092 18.8613 35.988C19.0013 35.884 19.1873 35.832 19.4193 35.832C19.7393 35.832 19.9913 35.936 20.1753 36.144C20.3633 36.348 20.4573 36.638 20.4573 37.014V39H19.9773V37.098C19.9773 36.542 19.7433 36.264 19.2753 36.264C19.1793 36.264 19.0853 36.276 18.9933 36.3C18.9053 36.324 18.8253 36.36 18.7533 36.408C18.6813 36.456 18.6233 36.518 18.5793 36.594C18.5393 36.666 18.5193 36.752 18.5193 36.852V39H18.0393ZM22.3795 39.072C22.0915 39.072 21.8495 39.018 21.6535 38.91C21.4615 38.798 21.2955 38.65 21.1555 38.466L21.4975 38.19C21.6175 38.342 21.7515 38.46 21.8995 38.544C22.0475 38.624 22.2195 38.664 22.4155 38.664C22.6195 38.664 22.7775 38.62 22.8895 38.532C23.0055 38.444 23.0635 38.32 23.0635 38.16C23.0635 38.04 23.0235 37.938 22.9435 37.854C22.8675 37.766 22.7275 37.706 22.5235 37.674L22.2775 37.638C22.1335 37.618 22.0015 37.588 21.8815 37.548C21.7615 37.504 21.6555 37.448 21.5635 37.38C21.4755 37.308 21.4055 37.22 21.3535 37.116C21.3055 37.012 21.2815 36.888 21.2815 36.744C21.2815 36.592 21.3095 36.46 21.3655 36.348C21.4215 36.232 21.4975 36.136 21.5935 36.06C21.6935 35.984 21.8115 35.928 21.9475 35.892C22.0835 35.852 22.2295 35.832 22.3855 35.832C22.6375 35.832 22.8475 35.876 23.0155 35.964C23.1875 36.052 23.3375 36.174 23.4655 36.33L23.1475 36.618C23.0795 36.522 22.9795 36.436 22.8475 36.36C22.7155 36.28 22.5495 36.24 22.3495 36.24C22.1495 36.24 21.9975 36.284 21.8935 36.372C21.7935 36.456 21.7435 36.572 21.7435 36.72C21.7435 36.872 21.7935 36.982 21.8935 37.05C21.9975 37.118 22.1455 37.168 22.3375 37.2L22.5775 37.236C22.9215 37.288 23.1655 37.388 23.3095 37.536C23.4535 37.68 23.5255 37.87 23.5255 38.106C23.5255 38.406 23.4235 38.642 23.2195 38.814C23.0155 38.986 22.7355 39.072 22.3795 39.072ZM26.6233 39C26.4433 39 26.3133 38.952 26.2333 38.856C26.1573 38.76 26.1093 38.64 26.0893 38.496H26.0593C25.9913 38.688 25.8793 38.832 25.7233 38.928C25.5673 39.024 25.3813 39.072 25.1653 39.072C24.8373 39.072 24.5813 38.988 24.3973 38.82C24.2173 38.652 24.1273 38.424 24.1273 38.136C24.1273 37.844 24.2333 37.62 24.4453 37.464C24.6613 37.308 24.9953 37.23 25.4473 37.23H26.0593V36.924C26.0593 36.704 25.9993 36.536 25.8793 36.42C25.7593 36.304 25.5753 36.246 25.3273 36.246C25.1393 36.246 24.9813 36.288 24.8533 36.372C24.7293 36.456 24.6253 36.568 24.5413 36.708L24.2533 36.438C24.3373 36.27 24.4713 36.128 24.6553 36.012C24.8393 35.892 25.0713 35.832 25.3513 35.832C25.7273 35.832 26.0193 35.924 26.2273 36.108C26.4353 36.292 26.5393 36.548 26.5393 36.876V38.58H26.8933V39H26.6233ZM25.2433 38.664C25.3633 38.664 25.4733 38.65 25.5733 38.622C25.6733 38.594 25.7593 38.554 25.8313 38.502C25.9033 38.45 25.9593 38.39 25.9993 38.322C26.0393 38.254 26.0593 38.18 26.0593 38.1V37.59H25.4233C25.1473 37.59 24.9453 37.63 24.8173 37.71C24.6933 37.79 24.6313 37.906 24.6313 38.058V38.184C24.6313 38.336 24.6853 38.454 24.7933 38.538C24.9053 38.622 25.0553 38.664 25.2433 38.664ZM28.0884 39C27.9204 39 27.7924 38.954 27.7044 38.862C27.6204 38.766 27.5784 38.646 27.5784 38.502V34.56H28.0584V38.58H28.5144V39H28.0884ZM30.3771 39.072C30.1651 39.072 29.9731 39.034 29.8011 38.958C29.6331 38.882 29.4871 38.774 29.3631 38.634C29.2431 38.49 29.1491 38.32 29.0811 38.124C29.0171 37.924 28.9851 37.7 28.9851 37.452C28.9851 37.208 29.0171 36.986 29.0811 36.786C29.1491 36.586 29.2431 36.416 29.3631 36.276C29.4871 36.132 29.6331 36.022 29.8011 35.946C29.9731 35.87 30.1651 35.832 30.3771 35.832C30.5851 35.832 30.7711 35.87 30.9351 35.946C31.0991 36.022 31.2391 36.128 31.3551 36.264C31.4711 36.396 31.5591 36.554 31.6191 36.738C31.6831 36.922 31.7151 37.124 31.7151 37.344V37.572H29.4891V37.716C29.4891 37.848 29.5091 37.972 29.5491 38.088C29.5931 38.2 29.6531 38.298 29.7291 38.382C29.8091 38.466 29.9051 38.532 30.0171 38.58C30.1331 38.628 30.2631 38.652 30.4071 38.652C30.6031 38.652 30.7731 38.606 30.9171 38.514C31.0651 38.422 31.1791 38.29 31.2591 38.118L31.6011 38.364C31.5011 38.576 31.3451 38.748 31.1331 38.88C30.9211 39.008 30.6691 39.072 30.3771 39.072ZM30.3771 36.234C30.2451 36.234 30.1251 36.258 30.0171 36.306C29.9091 36.35 29.8151 36.414 29.7351 36.498C29.6591 36.582 29.5991 36.682 29.5551 36.798C29.5111 36.91 29.4891 37.034 29.4891 37.17V37.212H31.1991V37.146C31.1991 36.87 31.1231 36.65 30.9711 36.486C30.8231 36.318 30.6251 36.234 30.3771 36.234ZM32.1648 39V38.598L33.9228 36.324H32.2188V35.904H34.5048V36.264L32.7108 38.58H34.5528V39H32.1648Z" fill="black"/>
<path d="M12.532 65.812V68.914C12.532 69.09 12.502 69.25 12.442 69.394C12.386 69.538 12.304 69.66 12.196 69.76C12.092 69.86 11.966 69.938 11.818 69.994C11.67 70.046 11.508 70.072 11.332 70.072C11.008 70.072 10.746 69.986 10.546 69.814C10.35 69.638 10.224 69.406 10.168 69.118L10.624 69.01C10.664 69.19 10.74 69.338 10.852 69.454C10.964 69.566 11.128 69.622 11.344 69.622C11.56 69.622 11.728 69.556 11.848 69.424C11.968 69.292 12.028 69.092 12.028 68.824V66.256H10.588V65.812H12.532ZM14.7386 70.072C14.5306 70.072 14.3406 70.034 14.1686 69.958C13.9966 69.882 13.8486 69.774 13.7246 69.634C13.6046 69.49 13.5106 69.32 13.4426 69.124C13.3746 68.924 13.3406 68.7 13.3406 68.452C13.3406 68.208 13.3746 67.986 13.4426 67.786C13.5106 67.586 13.6046 67.416 13.7246 67.276C13.8486 67.132 13.9966 67.022 14.1686 66.946C14.3406 66.87 14.5306 66.832 14.7386 66.832C14.9466 66.832 15.1346 66.87 15.3026 66.946C15.4746 67.022 15.6226 67.132 15.7466 67.276C15.8706 67.416 15.9666 67.586 16.0346 67.786C16.1026 67.986 16.1366 68.208 16.1366 68.452C16.1366 68.7 16.1026 68.924 16.0346 69.124C15.9666 69.32 15.8706 69.49 15.7466 69.634C15.6226 69.774 15.4746 69.882 15.3026 69.958C15.1346 70.034 14.9466 70.072 14.7386 70.072ZM14.7386 69.646C14.9986 69.646 15.2106 69.566 15.3746 69.406C15.5386 69.246 15.6206 69.002 15.6206 68.674V68.23C15.6206 67.902 15.5386 67.658 15.3746 67.498C15.2106 67.338 14.9986 67.258 14.7386 67.258C14.4786 67.258 14.2666 67.338 14.1026 67.498C13.9386 67.658 13.8566 67.902 13.8566 68.23V68.674C13.8566 69.002 13.9386 69.246 14.1026 69.406C14.2666 69.566 14.4786 69.646 14.7386 69.646ZM16.926 70V66.904H17.406V67.408H17.43C17.506 67.232 17.612 67.092 17.748 66.988C17.888 66.884 18.074 66.832 18.306 66.832C18.626 66.832 18.878 66.936 19.062 67.144C19.25 67.348 19.344 67.638 19.344 68.014V70H18.864V68.098C18.864 67.542 18.63 67.264 18.162 67.264C18.066 67.264 17.972 67.276 17.88 67.3C17.792 67.324 17.712 67.36 17.64 67.408C17.568 67.456 17.51 67.518 17.466 67.594C17.426 67.666 17.406 67.752 17.406 67.852V70H16.926ZM22.5862 70C22.4062 70 22.2762 69.952 22.1962 69.856C22.1202 69.76 22.0722 69.64 22.0522 69.496H22.0222C21.9542 69.688 21.8422 69.832 21.6862 69.928C21.5302 70.024 21.3442 70.072 21.1282 70.072C20.8002 70.072 20.5442 69.988 20.3602 69.82C20.1802 69.652 20.0902 69.424 20.0902 69.136C20.0902 68.844 20.1962 68.62 20.4082 68.464C20.6242 68.308 20.9582 68.23 21.4102 68.23H22.0222V67.924C22.0222 67.704 21.9622 67.536 21.8422 67.42C21.7222 67.304 21.5382 67.246 21.2902 67.246C21.1022 67.246 20.9442 67.288 20.8162 67.372C20.6922 67.456 20.5882 67.568 20.5042 67.708L20.2162 67.438C20.3002 67.27 20.4342 67.128 20.6182 67.012C20.8022 66.892 21.0342 66.832 21.3142 66.832C21.6902 66.832 21.9822 66.924 22.1902 67.108C22.3982 67.292 22.5022 67.548 22.5022 67.876V69.58H22.8562V70H22.5862ZM21.2062 69.664C21.3262 69.664 21.4362 69.65 21.5362 69.622C21.6362 69.594 21.7222 69.554 21.7942 69.502C21.8662 69.45 21.9222 69.39 21.9622 69.322C22.0022 69.254 22.0222 69.18 22.0222 69.1V68.59H21.3862C21.1102 68.59 20.9082 68.63 20.7802 68.71C20.6562 68.79 20.5942 68.906 20.5942 69.058V69.184C20.5942 69.336 20.6482 69.454 20.7562 69.538C20.8682 69.622 21.0182 69.664 21.2062 69.664ZM24.2253 70C24.0573 70 23.9293 69.954 23.8413 69.862C23.7573 69.766 23.7153 69.642 23.7153 69.49V67.324H23.2053V66.904H23.4933C23.5973 66.904 23.6673 66.884 23.7033 66.844C23.7433 66.8 23.7633 66.726 23.7633 66.622V66.046H24.1953V66.904H24.8733V67.324H24.1953V69.58H24.8253V70H24.2253ZM25.6448 65.56H26.1248V67.408H26.1488C26.2248 67.232 26.3308 67.092 26.4668 66.988C26.6068 66.884 26.7928 66.832 27.0248 66.832C27.3448 66.832 27.5968 66.936 27.7808 67.144C27.9688 67.348 28.0628 67.638 28.0628 68.014V70H27.5828V68.098C27.5828 67.542 27.3488 67.264 26.8808 67.264C26.7848 67.264 26.6908 67.276 26.5988 67.3C26.5108 67.324 26.4308 67.36 26.3588 67.408C26.2868 67.456 26.2288 67.518 26.1848 67.594C26.1448 67.666 26.1248 67.752 26.1248 67.852V70H25.6448V65.56ZM31.3049 70C31.1249 70 30.9949 69.952 30.9149 69.856C30.8389 69.76 30.7909 69.64 30.7709 69.496H30.7409C30.6729 69.688 30.5609 69.832 30.4049 69.928C30.2489 70.024 30.0629 70.072 29.8469 70.072C29.5189 70.072 29.2629 69.988 29.0789 69.82C28.8989 69.652 28.8089 69.424 28.8089 69.136C28.8089 68.844 28.9149 68.62 29.1269 68.464C29.3429 68.308 29.6769 68.23 30.1289 68.23H30.7409V67.924C30.7409 67.704 30.6809 67.536 30.5609 67.42C30.4409 67.304 30.2569 67.246 30.0089 67.246C29.8209 67.246 29.6629 67.288 29.5349 67.372C29.4109 67.456 29.3069 67.568 29.2229 67.708L28.9349 67.438C29.0189 67.27 29.1529 67.128 29.3369 67.012C29.5209 66.892 29.7529 66.832 30.0329 66.832C30.4089 66.832 30.7009 66.924 30.9089 67.108C31.1169 67.292 31.2209 67.548 31.2209 67.876V69.58H31.5749V70H31.3049ZM29.9249 69.664C30.0449 69.664 30.1549 69.65 30.2549 69.622C30.3549 69.594 30.4409 69.554 30.5129 69.502C30.5849 69.45 30.6409 69.39 30.6809 69.322C30.7209 69.254 30.7409 69.18 30.7409 69.1V68.59H30.1049C29.8289 68.59 29.6269 68.63 29.4989 68.71C29.3749 68.79 29.3129 68.906 29.3129 69.058V69.184C29.3129 69.336 29.3669 69.454 29.4749 69.538C29.5869 69.622 29.7369 69.664 29.9249 69.664ZM32.26 70V66.904H32.74V67.408H32.764C32.84 67.232 32.946 67.092 33.082 66.988C33.222 66.884 33.408 66.832 33.64 66.832C33.96 66.832 34.212 66.936 34.396 67.144C34.584 67.348 34.678 67.638 34.678 68.014V70H34.198V68.098C34.198 67.542 33.964 67.264 33.496 67.264C33.4 67.264 33.306 67.276 33.214 67.3C33.126 67.324 33.046 67.36 32.974 67.408C32.902 67.456 32.844 67.518 32.8 67.594C32.76 67.666 32.74 67.752 32.74 67.852V70H32.26Z" fill="black"/>
<path d="M67.8184 51.2011C67.923 49.9751 68.0306 48.7519 68.1465 47.4019C67.4188 47.5638 67.0672 48.0938 66.9617 48.6838C66.6512 50.4314 66.359 52.1929 66.2262 53.9697C66.1491 54.9882 66.8316 55.4513 67.6661 55.0613C69.0568 54.4103 70.4133 53.6808 71.7845 52.9814C71.8645 52.9418 71.9755 52.9023 72.0068 52.8298C72.1093 52.5896 72.1791 52.3337 72.2639 52.0858C72.069 52.0048 71.848 51.8162 71.681 51.8583C71.1199 52.0002 70.5734 52.2225 70.0234 52.4136C69.7337 52.5154 69.4467 52.6169 68.9954 52.5335C69.2613 52.1192 69.5144 51.6905 69.7995 51.2964C75.5995 43.2303 85.3547 40.6361 94.1674 44.8443C95.2946 45.3819 96.3658 46.0732 97.4648 46.6861C97.849 46.8991 98.2419 47.0891 98.6307 47.2922C98.6974 47.2099 98.7645 47.1306 98.8313 47.0483C98.7049 46.7746 98.6417 46.4125 98.4454 46.2435C97.765 45.648 97.0682 45.0574 96.3241 44.5723C88.7817 39.6686 79.1578 40.4232 72.3288 46.5184C71.0264 47.6801 69.9238 49.1174 68.7376 50.4373C68.4921 50.7078 68.2853 51.0216 68.062 51.315C67.982 51.279 67.9023 51.2462 67.8223 51.2102L67.8184 51.2011Z" fill="black"/>
<defs>
<filter id="filter0_dd_4473_9088" x="82.4895" y="0.326316" width="133.021" height="163.021" filterUnits="userSpaceOnUse" color-interpolation-filters="sRGB">
<feFlood flood-opacity="0" result="BackgroundImageFix"/>
<feColorMatrix in="SourceAlpha" type="matrix" values="0 0 0 0 0 0 0 0 0 0 0 0 0 0 0 0 0 0 127 0" result="hardAlpha"/>
<feOffset dy="0.836842"/>
<feGaussianBlur stdDeviation="0.836842"/>
<feColorMatrix type="matrix" values="0 0 0 0 0.054902 0 0 0 0 0.054902 0 0 0 0 0.054902 0 0 0 0.06 0"/>
<feBlend mode="normal" in2="BackgroundImageFix" result="effect1_dropShadow_4473_9088"/>
<feColorMatrix in="SourceAlpha" type="matrix" values="0 0 0 0 0 0 0 0 0 0 0 0 0 0 0 0 0 0 127 0" result="hardAlpha"/>
<feOffset dy="0.836842"/>
<feGaussianBlur stdDeviation="1.25526"/>
<feColorMatrix type="matrix" values="0 0 0 0 0.054902 0 0 0 0 0.054902 0 0 0 0 0.054902 0 0 0 0.1 0"/>
<feBlend mode="normal" in2="effect1_dropShadow_4473_9088" result="effect2_dropShadow_4473_9088"/>
<feBlend mode="normal" in="SourceGraphic" in2="effect2_dropShadow_4473_9088" result="shape"/>
</filter>
<clipPath id="clip0_4473_9088">
<rect x="85" y="2" width="128" height="158" rx="4" fill="white"/>
</clipPath>
</defs>
</svg>
