<svg xmlns="http://www.w3.org/2000/svg" width="130" height="80" viewBox="0 0 130 80" fill="none">
  <path d="M106.221 1H124.661C127.058 1 129 2.94263 129 5.33898V19.4167" stroke="#BCCDCE" stroke-width="1.08475" stroke-linecap="round"/>
  <path d="M23.7793 1H5.33862C2.94227 1 0.999636 2.94263 0.999636 5.33898V19.4167" stroke="#BCCDCE" stroke-width="1.08475" stroke-linecap="round"/>
  <path d="M23.7793 79H5.33862C2.94227 79 0.999636 77.0574 0.999636 74.661V60.5833" stroke="#BCCDCE" stroke-width="1.08475" stroke-linecap="round"/>
  <path d="M106.221 79H124.661C127.058 79 129 77.0574 129 74.661V60.5833" stroke="#BCCDCE" stroke-width="1.08475" stroke-linecap="round"/>
  <path fill-rule="evenodd" clip-rule="evenodd" d="M71.5097 41.0844C73.1369 40.5427 77.4758 40.2719 79.6453 38.3761C81.8148 36.4802 87.7809 36.7511 87.7809 42.7094C87.7809 46.0881 90.3097 47.2764 88.5945 53.2719C87.5097 57.0636 86.959 57.3624 87.7809 58.4177C89.0465 60.0427 93.0239 63.2927 99.7131 68.1677C99.4026 71.9814 96.4589 71.9594 92.3911 71.9594C90.384 71.9594 88.1803 71.9594 86.1538 71.9594C81.8148 71.9594 80.1358 71.9594 78.5606 71.9594L76.3911 69.251C69.8826 68.1677 65.2724 67.8969 63.9165 61.6677C63.3292 58.9695 60.7768 59.9125 59.0352 57.3344L60.6623 56.251L79.6996 47.4761C79.5029 47.0649 79.4968 47.0669 79.4905 47.0682C74.9002 48.0424 72.0592 47.6728 70.9674 45.9594C69.0691 42.9802 69.8826 41.6261 71.5097 41.0844Z" fill="#BCCDCE"/>
  <path d="M74.7643 8.04297H47.6456C45.2493 8.04297 43.3066 9.9856 43.3066 12.382V67.6207C43.3066 70.017 45.2493 71.9596 47.6456 71.9596H74.7643C77.1606 71.9596 79.1033 70.017 79.1033 67.6207V12.382C79.1033 9.9856 77.1606 8.04297 74.7643 8.04297Z" fill="#85ACB0"/>
  <path fill-rule="evenodd" clip-rule="evenodd" d="M45.4766 14.548V65.4533C45.4766 67.8497 47.4192 69.7923 49.8155 69.7923H72.5952C74.9916 69.7923 76.9342 67.8497 76.9342 65.4533V14.548C76.9342 12.1516 74.9916 10.209 72.5952 10.209C72.2939 10.209 71.9926 10.209 71.6913 10.209C70.7541 10.209 69.3975 10.209 69.0698 10.209C67.0706 10.209 69.0698 12.7178 66.4483 12.7178C65.7929 12.7178 63.2845 12.6465 60.663 12.6465C58.0415 12.6465 56.6178 12.7178 55.9624 12.7178C53.341 12.7178 55.3071 10.209 53.341 10.209C52.0302 10.209 52.6228 10.209 50.7195 10.209C50.4182 10.209 50.1169 10.209 49.8155 10.209C47.4192 10.209 45.4766 12.1516 45.4766 14.548Z" fill="white"/>
  <path fill-rule="evenodd" clip-rule="evenodd" d="M54.6964 45.418H67.7134C70.1097 45.418 72.0523 47.3581 72.0523 49.7513V54.0846H50.3574V49.7513C50.3574 47.3581 52.3001 45.418 54.6964 45.418Z" fill="#84ABAE"/>
  <path fill-rule="evenodd" clip-rule="evenodd" d="M56.3242 45.418L57.409 49.7513L60.1208 47.5846L59.5785 45.418H56.3242Z" fill="white"/>
  <path fill-rule="evenodd" clip-rule="evenodd" d="M66.0857 45.418L65.0009 49.7513L62.2891 47.5846L62.8314 45.418H66.0857Z" fill="white"/>
  <path d="M68.2556 36.2005C68.2556 39.0148 66.6067 41.4441 64.2222 42.5748L64.459 45.418L61.588 48.2852C61.3762 48.4967 61.0332 48.4967 60.8214 48.2852L57.9505 45.418L58.1876 42.575C55.803 41.4443 54.1539 39.015 54.1539 36.2005V35.1263H53.0691C52.47 35.1263 51.9844 34.6413 51.9844 34.043V32.418C51.9844 31.8197 52.47 31.3346 53.0691 31.3346H54.1539V29.7188C54.1539 25.8247 57.3106 22.668 61.2047 22.668C65.0988 22.668 68.2556 25.8247 68.2556 29.7188V31.3346H69.3403C69.9394 31.3346 70.4251 31.8197 70.4251 32.418V34.043C70.4251 34.6413 69.9394 35.1263 69.3403 35.1263H68.2556V36.2005Z" fill="#C7E5E5"/>
  <path fill-rule="evenodd" clip-rule="evenodd" d="M66.8993 24.2921C68.888 26.4588 69.34 29.1671 68.2552 32.4171V33.7709C68.2552 33.9207 68.1338 34.0421 67.984 34.0421C67.8342 34.0421 67.7128 33.9207 67.7128 33.7709L67.7128 31.8326C66.9173 30.9945 66.5592 30.6545 65.5433 28.6254C63.6604 29.7088 61.5813 30.2504 59.3061 30.2504C58.5829 30.2504 57.4077 30.0699 55.7806 29.7088C55.3732 30.6852 55.0118 31.3133 54.6962 31.593L54.6959 33.7709C54.6959 33.9207 54.5745 34.0421 54.4247 34.0421C54.2749 34.0421 54.1535 33.9207 54.1535 33.7709L54.1528 31.7058C54.0017 31.6116 53.8663 31.3972 53.7467 31.0629C53.0688 29.1671 53.34 25.1046 55.7806 23.2088C58.2213 21.3129 63.9162 21.0421 66.8993 24.2921Z" fill="#84ABAE"/>
  <path d="M69.3418 18.877H73.6808C73.9803 18.877 74.2232 19.1198 74.2232 19.4193V23.752" stroke="#FF444F" stroke-width="1.08475" stroke-linecap="round"/>
  <path d="M69.3418 51.918H73.6808C73.9803 51.918 74.2232 51.6751 74.2232 51.3756V47.043" stroke="#FF444F" stroke-width="1.08475" stroke-linecap="round"/>
  <path d="M52.5273 18.877H48.1884C47.8888 18.877 47.646 19.1198 47.646 19.4193V23.752" stroke="#FF444F" stroke-width="1.08475" stroke-linecap="round"/>
  <path d="M52.5273 51.918H48.1884C47.8888 51.918 47.646 51.6751 47.646 51.3756V47.043" stroke="#FF444F" stroke-width="1.08475" stroke-linecap="round"/>
  <path d="M45.4766 54.084H76.9342V65.4533C76.9342 67.8497 74.9916 69.7923 72.5952 69.7923H49.8155C47.4192 69.7923 45.4766 67.8497 45.4766 65.4533V54.084Z" fill="#C7E5E5"/>
  <path d="M61.2054 67.625C63.0027 67.625 64.4596 66.1699 64.4596 64.375C64.4596 62.5801 63.0027 61.125 61.2054 61.125C59.4081 61.125 57.9512 62.5801 57.9512 64.375C57.9512 66.1699 59.4081 67.625 61.2054 67.625Z" fill="white"/>
  <path fill-rule="evenodd" clip-rule="evenodd" d="M70.9667 41.0844C72.5938 40.5427 76.9328 40.2719 79.1023 38.3761C81.2718 36.4802 87.2379 36.7511 87.2379 42.7094C87.2379 46.6816 84.8876 48.1261 80.1871 47.0427C74.9441 48.3066 71.6899 47.9455 70.4243 45.9594C68.526 42.9802 69.3396 41.6261 70.9667 41.0844Z" fill="#BCCDCE"/>
  <path d="M45.9815 35.6372L42.1289 32.6271C40.8323 31.6141 38.9601 31.844 37.9471 33.1406C36.9341 34.4371 37.164 36.3094 38.4605 37.3224L42.3132 40.3324C43.6098 41.3454 45.482 41.1155 46.495 39.8189C47.508 38.5224 47.2781 36.6502 45.9815 35.6372Z" fill="#BCCDCE"/>
  <path fill-rule="evenodd" clip-rule="evenodd" d="M46.4942 39.8198C45.4813 41.1163 43.609 41.3462 42.3125 40.3332L38.4598 37.3232C37.1632 36.3102 36.9334 34.438 37.9463 33.1414C38.0026 33.0694 38.0615 33.0006 38.1229 32.9352C37.2957 34.2168 37.5689 35.9397 38.7933 36.8963L42.646 39.9064C43.8704 40.863 45.6082 40.7112 46.6509 39.5994C46.603 39.6739 46.5505 39.7477 46.4942 39.8198Z" fill="white"/>
  <path d="M45.9815 51.8872L42.1289 48.8771C40.8323 47.8641 38.9601 48.094 37.9471 49.3906C36.9341 50.6871 37.164 52.5594 38.4605 53.5724L42.3132 56.5824C43.6098 57.5954 45.482 57.3655 46.495 56.0689C47.508 54.7724 47.2781 52.9002 45.9815 51.8872Z" fill="#BCCDCE"/>
  <path fill-rule="evenodd" clip-rule="evenodd" d="M46.4942 56.0698C45.4813 57.3663 43.609 57.5962 42.3125 56.5832L38.4598 53.5732C37.1632 52.5602 36.9334 50.688 37.9463 49.3914C38.0026 49.3194 38.0615 49.2506 38.1229 49.1852C37.2957 50.4668 37.5689 52.1897 38.7933 53.1463L42.646 56.1564C43.8704 57.113 45.6082 56.9612 46.6509 55.8494C46.603 55.9239 46.5505 55.9977 46.4942 56.0698Z" fill="white"/>
  <path d="M45.9815 43.7622L42.1289 40.7521C40.8323 39.7391 38.9601 39.969 37.9471 41.2656C36.9341 42.5621 37.164 44.4344 38.4605 45.4474L42.3132 48.4574C43.6098 49.4704 45.482 49.2405 46.495 47.9439C47.508 46.6474 47.2781 44.7752 45.9815 43.7622Z" fill="#BCCDCE"/>
  <path fill-rule="evenodd" clip-rule="evenodd" d="M46.4942 47.9448C45.4813 49.2413 43.609 49.4712 42.3125 48.4582L38.4598 45.4482C37.1632 44.4352 36.9334 42.563 37.9463 41.2664C38.0026 41.1944 38.0615 41.1256 38.1229 41.0602C37.2957 42.3418 37.5689 44.0647 38.7933 45.0213L42.646 48.0314C43.8704 48.988 45.6082 48.8362 46.6509 47.7244C46.603 47.7989 46.5505 47.8727 46.4942 47.9448Z" fill="white"/>
  <path d="M45.9815 27.5122L42.1289 24.5021C40.8323 23.4891 38.9601 23.719 37.9471 25.0156C36.9341 26.3121 37.164 28.1844 38.4605 29.1974L42.3132 32.2074C43.6098 33.2204 45.482 32.9905 46.495 31.6939C47.508 30.3974 47.2781 28.5252 45.9815 27.5122Z" fill="#BCCDCE"/>
  <path fill-rule="evenodd" clip-rule="evenodd" d="M46.4942 31.6948C45.4813 32.9913 43.609 33.2212 42.3125 32.2082L38.4598 29.1982C37.1632 28.1852 36.9334 26.313 37.9463 25.0164C38.0026 24.9444 38.0615 24.8756 38.1229 24.8102C37.2957 26.0918 37.5689 27.8147 38.7933 28.7713L42.646 31.7814C43.8704 32.738 45.6082 32.5862 46.6509 31.4744C46.603 31.5489 46.5505 31.6227 46.4942 31.6948Z" fill="white"/>
</svg>