<svg id="Layer_1" xmlns="http://www.w3.org/2000/svg" viewBox="0 0 26 26"><style>.st0{fill:#2a3052}</style><path class="st0" d="M14.52 15.3c0-.4-.12-.73-.35-.98-.23-.25-.64-.49-1.2-.71-1.12-.4-1.95-.85-2.49-1.34-.54-.49-.81-1.19-.81-2.08 0-.83.27-1.51.81-2.05.54-.53 1.27-.84 2.19-.94V5.6h1.2v1.61c.89.13 1.58.49 2.09 1.09.51.6.75 1.38.74 2.33l-.02.04h-2.15c0-.58-.12-1.03-.37-1.35-.24-.32-.58-.48-1-.48-.43 0-.75.12-.97.37-.21.25-.32.57-.32.98 0 .39.11.7.34.94.22.24.64.48 1.23.71 1.11.43 1.94.89 2.47 1.38.54.49.8 1.18.8 2.06 0 .86-.27 1.55-.81 2.06s-1.27.82-2.2.91v1.47h-1.2v-1.46c-.94-.09-1.72-.42-2.33-.98-.61-.56-.91-1.39-.89-2.48l.02-.04h2.15c0 .66.15 1.14.46 1.43.31.29.7.43 1.18.43.46 0 .81-.12 1.05-.36.26-.23.38-.55.38-.96z"/><path class="st0" d="M13 25.31C6.11 25.31.5 19.79.5 13S6.11.69 13 .69 25.5 6.21 25.5 13 19.89 25.31 13 25.31zm0-23.23C6.87 2.08 1.88 6.98 1.88 13S6.87 23.92 13 23.92 24.12 19.02 24.12 13 19.13 2.08 13 2.08z"/><path transform="rotate(45.478 13 12.999)" class="st0" d="M12.47 1.34h1.06v23.32h-1.06z"/></svg>