<svg id="Layer_1" xmlns="http://www.w3.org/2000/svg" viewBox="0 0 26 26"><style>.st0{fill:#2a3052}</style><path class="st0" d="M20.68 4.47h-8.66c-2.66 0-4.82 2.04-4.82 4.55v3.63c0 2.51 2.16 4.55 4.82 4.55h3.73c1.1 1.17 2.9 2.52 5.45 2.71h.05c.25 0 .47-.15.57-.38a.6.6 0 0 0-.16-.69c-.26-.23-.99-.91-1.27-1.64h.29c2.66 0 4.82-2.04 4.82-4.55V9.02c0-2.51-2.16-4.55-4.82-4.55zm3.84 8.18c0 1.97-1.72 3.57-3.84 3.57h-1.4l.02.51c.03.76.45 1.48.92 2.04-1.78-.42-3.07-1.49-3.89-2.39l-.15-.16h-4.16c-2.12 0-3.84-1.6-3.84-3.57V9.02c0-1.97 1.72-3.57 3.84-3.57h8.66c2.12 0 3.84 1.6 3.84 3.57v3.63z"/><ellipse class="st0" cx="11.47" cy="10.83" rx=".55" ry=".52"/><ellipse class="st0" cx="13.91" cy="10.83" rx=".55" ry=".52"/><ellipse class="st0" cx="18.78" cy="10.83" rx=".55" ry=".52"/><ellipse class="st0" cx="16.35" cy="10.83" rx=".55" ry=".52"/><ellipse class="st0" cx="21.22" cy="10.83" rx=".55" ry=".52"/><ellipse class="st0" cx="5.94" cy="14.18" rx=".45" ry=".42"/><ellipse class="st0" cx="3.97" cy="14.18" rx=".45" ry=".42"/><path class="st0" d="M11.42 18.54H8.05l-.12.13c-.66.73-1.7 1.59-3.15 1.93.38-.46.72-1.04.74-1.65l.01-.41H4.41c-1.72 0-3.11-1.3-3.11-2.89v-2.94c0-1.6 1.4-2.89 3.11-2.89h2.21v-.8H4.41C2.26 9.02.5 10.67.5 12.71v2.94c0 2.03 1.75 3.69 3.91 3.69h.24c-.23.59-.82 1.15-1.03 1.33a.492.492 0 0 0 .33.86h.04c2.06-.15 3.52-1.25 4.42-2.19h3.02c1.35 0 2.54-.65 3.24-1.63h-1.06c-.56.51-1.33.83-2.19.83z"/></svg>