<svg width="72" height="72" viewBox="0 0 72 72" xmlns="http://www.w3.org/2000/svg"><title>Crypto_Icon</title><g fill="none" fill-rule="evenodd"><path d="M35.886 16.413c-10.729 0-19.47 8.67-19.47 19.312 0 10.642 8.741 19.312 19.47 19.312 10.73 0 19.47-8.67 19.47-19.312 0-10.642-8.74-19.312-19.47-19.312zm0 36.514c-9.573 0-17.342-7.707-17.342-17.202 0-9.496 7.77-17.202 17.342-17.202 9.574 0 17.343 7.706 17.343 17.202 0 9.495-7.77 17.202-17.343 17.202z" stroke="#2A3052" stroke-width=".2" fill="#2A3052" fill-rule="nonzero"/><path d="M41.243 43.741a5.098 5.098 0 0 1-2.097.869c-.751.158-1.528.158-2.357.052a11.054 11.054 0 0 1-1.76-.368l-1.166 3.289L32 46.899l1.165-3.29-1.89-.71-1.165 3.29-1.865-.685 1.166-3.289-4.04-1.5.7-1.973.595.158c.207.08.492.132.88.237.492.132.673.105.725.132.207 0 .285-.053.285-.053a.7.7 0 0 0 .155-.29l3.885-10.866c.051-.158.051-.263.051-.368 0-.026-.051-.105-.18-.237-.182-.184-.415-.316-.622-.473-.285-.158-.518-.264-.674-.369l-.57-.263.7-1.973 3.936 1.447 1.165-3.236 1.864.684-1.113 3.289 1.89.71 1.166-3.289 1.864.684-1.191 3.315c.388.158.75.369 1.087.553.596.368 1.114.79 1.606 1.29.466.499.803 1.078 1.01 1.736.207.684.181 1.42-.078 2.157-.233.632-.57 1.158-1.036 1.579-.44.394-.984.684-1.58.868a7.707 7.707 0 0 1-1.216.237c.44.368.828.736 1.165 1.157a5.042 5.042 0 0 1 1.01 1.921c.207.737.155 1.552-.13 2.368-.336.763-.802 1.42-1.476 1.894z" fill="#E98024"/><path d="M38.395 40.11c-.544 1.5-2.175 2.29-3.651 1.737l-2.72-1 1.943-5.446 2.719 1c1.476.552 2.227 2.21 1.709 3.71zM40.052 32.612a2.371 2.371 0 0 1-3.055 1.447l-2.227-.815 1.631-4.579 2.227.816c1.217.474 1.864 1.894 1.424 3.131z" fill="#FFF" fill-rule="nonzero"/></g></svg>