<svg width="72" height="72" viewBox="0 0 72 72" xmlns="http://www.w3.org/2000/svg"><title>MT5Financial_Icon</title><g transform="translate(16 17)" fill="none" fill-rule="evenodd"><ellipse fill="#E98024" cx="20.359" cy="8.462" rx="3.476" ry="3.485"/><path d="M38.823 15.88a.89.89 0 0 0 .903-.88V11.47c0-.31-.168-.6-.442-.758L21.623.465 21.599.45C20.5-.143 19.263-.16 18.102.463L.442 10.713a.877.877 0 0 0-.442.758V15c0 .487.404.88.903.88H3.61v15.88C1.62 31.76 0 33.341 0 35.287v2.646c0 .488.404.882.903.882h37.92c.499 0 .903-.394.903-.882v-2.646c0-1.946-1.62-3.529-3.612-3.529V15.88h2.709zm-.903 19.407v1.765H1.806v-1.765c0-.972.81-1.764 1.805-1.764h32.503c.996 0 1.806.792 1.806 1.764zM5.417 31.76v-15.88H9.03v15.88H5.417zm5.417 0v-15.88h5.417v15.88h-5.417zm7.223 0v-15.88h3.612v15.88h-3.612zm5.417 0v-15.88h5.417v15.88h-5.417zm7.223 0v-15.88h3.612v15.88h-3.612zM1.806 14.115v-2.144l17.192-9.98a1.754 1.754 0 0 1 1.716-.006L37.92 11.97v2.144H1.806z" stroke="#2A3052" stroke-width=".2" fill="#2A3052" fill-rule="nonzero"/></g></svg>