<svg width="72" height="72" viewBox="0 0 72 72" xmlns="http://www.w3.org/2000/svg"><title>Webinars_Icon</title><g fill-rule="nonzero" fill="none"><path d="M53.114 16H18.886A2.894 2.894 0 0 0 16 18.896v.465c0 1.327.895 2.446 2.11 2.787v24.517c0 .558.451 1.01 1.007 1.01h15.876v2.08a3.208 3.208 0 0 0-2.186 3.04A3.202 3.202 0 0 0 36 56a3.202 3.202 0 0 0 3.193-3.205 3.208 3.208 0 0 0-2.186-3.04v-2.08h15.876c.556 0 1.007-.452 1.007-1.01V22.148A2.897 2.897 0 0 0 56 19.361v-.465A2.894 2.894 0 0 0 53.114 16zM36 53.98a1.183 1.183 0 1 1 0-2.368c.65 0 1.18.53 1.18 1.184 0 .652-.53 1.184-1.18 1.184zm15.876-8.326H20.124V22.257h31.752v23.397zm2.11-26.293a.875.875 0 0 1-.872.876H18.886a.875.875 0 0 1-.873-.876v-.465c0-.483.392-.875.873-.875h34.228c.481 0 .873.392.873.875v.465z" stroke="#2A3052" stroke-width=".1" fill="#2A3052"/><path d="M22.843 43.5c.258 0 .517-.1.714-.298l3.87-3.9 3.736 1.881c.456.23 1.01.081 1.291-.345l3.826-5.782 5.738 3.855a1.005 1.005 0 0 0 1.48-.425l3.947-8.735.79 1.776a1.01 1.01 0 0 0 1.334.513 1.02 1.02 0 0 0 .51-1.345l-1.82-4.094a1.005 1.005 0 0 0-1.334-.513l-4.064 1.834a1.02 1.02 0 0 0-.509 1.345c.229.512.826.742 1.335.512l1.918-.866-3.454 7.641-5.59-3.755a1.005 1.005 0 0 0-1.401.282l-3.891 5.88-3.589-1.807a1.004 1.004 0 0 0-1.166.19l-4.385 4.419a1.023 1.023 0 0 0 0 1.439c.197.199.456.298.714.298z" fill="#E98024"/></g></svg>