<svg xmlns="http://www.w3.org/2000/svg" width="128" height="128" viewBox="0 0 128 128" fill="none">
  <g clip-path="url(#clip0_18338_34634)">
    <path d="M23.9997 0C10.745 0 0 10.745 0 23.9997V24.697L119.656 5.81063C115.453 2.18936 109.982 0 103.999 0H23.9997Z" fill="#B51E1E"/>
    <path d="M122.126 8.27089L100.176 127.998H103.999C117.253 127.998 127.998 117.253 127.998 103.999V23.9997C127.998 17.9828 125.784 12.4831 122.126 8.27089Z" fill="#B51E1E"/>
    <path fill-rule="evenodd" clip-rule="evenodd" d="M100.176 127.998L23.9997 128C10.745 128 0 117.255 0 104V24.697L119.656 5.81063C120.538 6.57007 121.363 7.39249 122.126 8.27089L100.176 127.998Z" fill="#E22526"/>
    <path d="M36.0272 68.2842C36.0272 66.1562 36.3632 64.1588 37.0352 62.2922C37.7445 60.3882 38.7525 58.7455 40.0592 57.3642C41.3659 55.9455 42.9525 54.8255 44.8192 54.0042C46.6859 53.1828 48.8139 52.7722 51.2032 52.7722C52.7712 52.7722 54.2085 52.9215 55.5152 53.2202C56.8219 53.4815 58.0912 53.8735 59.3232 54.3962L57.5872 61.0602C56.8032 60.7615 55.9445 60.5002 55.0112 60.2761C54.0779 60.0522 53.0325 59.9402 51.8752 59.9402C49.4112 59.9402 47.5632 60.7055 46.3312 62.2362C45.1365 63.7668 44.5392 65.7828 44.5392 68.2842C44.5392 70.9348 45.0992 72.9882 46.2192 74.4442C47.3765 75.9002 49.3739 76.6282 52.2112 76.6282C53.2192 76.6282 54.3019 76.5348 55.4592 76.3482C56.6165 76.1615 57.6805 75.8628 58.6512 75.4521L59.8272 82.2842C58.8565 82.6948 57.6432 83.0495 56.1872 83.3482C54.7312 83.6468 53.1259 83.7962 51.3712 83.7962C48.6832 83.7962 46.3685 83.4042 44.4272 82.6202C42.4859 81.7988 40.8805 80.6975 39.6112 79.3161C38.3792 77.9348 37.4645 76.3108 36.8672 74.4442C36.3072 72.5402 36.0272 70.4868 36.0272 68.2842Z" fill="white"/>
    <path d="M91.9712 44.2042V51.6522H80.2672V83.0122H71.5312V51.6522H59.8272V44.2042H91.9712Z" fill="white"/>
  </g>
  <defs>
    <clipPath id="clip0_18338_34634">
      <rect width="128" height="128" fill="white"/>
    </clipPath>
  </defs>
</svg>