<svg xmlns="http://www.w3.org/2000/svg" width="128" height="128" viewBox="0 0 128 128" fill="none">
  <g clip-path="url(#clip0_17000_285806)">
    <path d="M0 92H128V104C128 117.255 117.255 128 104 128H24C10.7452 128 0 117.255 0 104V92Z" fill="#71BD0E"/>
    <path d="M106.778 92H0V24.6991L119.658 5.8125C120.539 6.57195 121.365 7.39438 122.128 8.27279L106.778 92Z" fill="#0364B9"/>
    <path d="M0 24C0 10.7452 10.7452 0 24 0H104C109.983 0 115.455 2.19117 119.658 5.8125L0 24.6991V24Z" fill="#0A559E"/>
    <path d="M106.778 92L122.128 8.27279C125.786 12.4851 128 17.9831 128 24V92H106.778Z" fill="#0A559E"/>
    <path d="M29.3689 38.736C29.9449 39.792 30.6009 41.104 31.3369 42.672C32.1049 44.208 32.8889 45.888 33.6889 47.712C34.5209 49.504 35.3369 51.344 36.1369 53.232C36.9369 55.12 37.6889 56.896 38.3929 58.56C39.0969 56.896 39.8489 55.12 40.6489 53.232C41.4489 51.344 42.2489 49.504 43.0489 47.712C43.8809 45.888 44.6649 44.208 45.4009 42.672C46.1689 41.104 46.8409 39.792 47.4169 38.736H54.2329C54.5529 40.944 54.8409 43.424 55.0969 46.176C55.3849 48.896 55.6249 51.744 55.8169 54.72C56.0409 57.664 56.2329 60.624 56.3929 63.6C56.5849 66.576 56.7449 69.376 56.8729 72H49.5769C49.4809 68.768 49.3529 65.248 49.1929 61.44C49.0329 57.632 48.7929 53.792 48.4729 49.92C47.8969 51.264 47.2569 52.752 46.5529 54.384C45.8489 56.016 45.1449 57.648 44.4409 59.28C43.7689 60.912 43.1129 62.48 42.4729 63.984C41.8329 65.456 41.2889 66.72 40.8409 67.776H35.6089C35.1609 66.72 34.6169 65.456 33.9769 63.984C33.3369 62.48 32.6649 60.912 31.9609 59.28C31.2889 57.648 30.6009 56.016 29.8969 54.384C29.1929 52.752 28.5529 51.264 27.9769 49.92C27.6569 53.792 27.4169 57.632 27.2569 61.44C27.0969 65.248 26.9689 68.768 26.8729 72H19.5769C19.7049 69.376 19.8489 66.576 20.0089 63.6C20.2009 60.624 20.3929 57.664 20.5849 54.72C20.8089 51.744 21.0489 48.896 21.3049 46.176C21.5929 43.424 21.8969 40.944 22.2169 38.736H29.3689Z" fill="white"/>
    <path d="M85.4183 38.736V45.12H75.3863V72H67.8983V45.12H57.8663V38.736H85.4183Z" fill="white"/>
    <path d="M101.271 62.208C101.271 61.28 101.063 60.464 100.647 59.76C100.231 59.024 99.5106 58.416 98.4866 57.936C97.4626 57.456 96.0866 57.088 94.3586 56.832C92.6306 56.576 90.4546 56.448 87.8306 56.448C88.1826 53.472 88.4706 50.448 88.6946 47.376C88.9186 44.304 89.0946 41.424 89.2226 38.736H107.223V44.736H95.2226C95.1586 45.888 95.0786 47.008 94.9826 48.096C94.9186 49.152 94.8386 50.08 94.7426 50.88C99.4146 51.2 102.855 52.304 105.063 54.192C107.303 56.048 108.423 58.64 108.423 61.968C108.423 63.504 108.151 64.928 107.607 66.24C107.063 67.552 106.247 68.688 105.159 69.648C104.071 70.608 102.695 71.36 101.031 71.904C99.3986 72.448 97.4786 72.72 95.2706 72.72C94.4066 72.72 93.4946 72.656 92.5346 72.528C91.6066 72.432 90.6946 72.288 89.7986 72.096C88.9346 71.936 88.1506 71.76 87.4466 71.568C86.7426 71.376 86.1986 71.184 85.8146 70.992L87.1106 65.088C87.9106 65.44 88.9666 65.792 90.2786 66.144C91.5906 66.464 93.1586 66.624 94.9826 66.624C97.1906 66.624 98.7906 66.192 99.7826 65.328C100.775 64.432 101.271 63.392 101.271 62.208Z" fill="white"/>
    <path d="M46.1607 118.316V101.684H57.2967V104.828H49.9047V108.308H56.4807V111.452H49.9047V118.316H46.1607Z" fill="white"/>
    <path d="M59.942 101.684H63.686V118.316H59.942V101.684Z" fill="white"/>
    <path d="M78.6957 118.316C77.6237 116.412 76.4637 114.532 75.2157 112.676C73.9677 110.82 72.6397 109.068 71.2317 107.42V118.316H67.5357V101.684H70.5837C71.1117 102.212 71.6957 102.86 72.3357 103.628C72.9757 104.396 73.6237 105.22 74.2797 106.1C74.9517 106.964 75.6157 107.868 76.2717 108.812C76.9277 109.74 77.5437 110.636 78.1197 111.5V101.684H81.8397V118.316H78.6957Z" fill="white"/>
  </g>
  <defs>
    <clipPath id="clip0_17000_285806">
      <rect width="128" height="128" fill="white"/>
    </clipPath>
  </defs>
</svg>