<svg xmlns="http://www.w3.org/2000/svg" width="409.584" height="81.667" viewBox="0 0 409.584 81.667"><defs><clipPath id="a"><path d="M0 65.333h327.667V0H0v65.333z"/></clipPath></defs><g clip-path="url(#a)" transform="matrix(1.25 0 0 -1.25 0 81.667)"><path d="M23.86 6.663l10.367 28.43L4.81 25.076c-3.346-1.14-1.184 1.58-1.184 1.58l4.548 5.72c2.162 2.72 5.71 2.72 5.71 2.72s-3.548 0-5.71 2.72l-4.548 5.718s-2.162 2.72 1.185 1.58l29.417-10.02v-19.66s0-3.43-2.814-5.52l-5.918-4.395s-2.813-2.09-1.634 1.145m10.367 48.092v-19.66L23.86 63.524c-1.178 3.234 1.635 1.145 1.635 1.145l5.918-4.395c2.814-2.09 2.814-5.52 2.814-5.52" fill="#d2282c"/><path d="M173.364 18.795h2.743l1.36 3.62h5.158l1.405-3.62h2.853l-5.816 14.528h-2.107l-5.596-14.528zm4.872 5.772l1.053 2.853c.395 1.12.614 1.756.746 2.26h.044c.13-.482.33-1.14.724-2.238l1.01-2.875h-3.578zm15.852-5.99c2.655 0 4.542.92 5.442 2.786.373.746.55 1.712.55 2.83v9.065h-2.635V24.39c0-.788-.13-1.447-.395-1.974-.504-1.03-1.514-1.624-2.962-1.624-1.45 0-2.458.593-2.963 1.624-.264.527-.395 1.186-.395 1.953v8.888h-2.634v-9.064c0-1.098.176-2.063.55-2.81.877-1.887 2.764-2.808 5.442-2.808m12.15.22h2.633V31.02h3.863l.724 2.238h-11.434V31.02h4.214V18.795zm9.067 0h2.634v6.254h6.912v-6.255h2.655v14.463h-2.655v-5.97h-6.913v5.97h-2.635V18.795zm22.36-.22c4.213 0 7.285 2.962 7.285 7.395 0 4.37-3.007 7.42-7.286 7.42-4.28 0-7.286-3.03-7.286-7.42 0-4.432 3.028-7.394 7.286-7.394m0 2.216c-2.678 0-4.477 1.91-4.477 5.18 0 3.29 1.8 5.2 4.477 5.2 2.743 0 4.477-1.996 4.477-5.2 0-3.27-1.82-5.18-4.476-5.18m10.132-1.997h2.634v5.64h1.25c.352-.088.88-.68 1.58-1.975l2.086-3.665h3.028l-2.414 4.214c-.767 1.315-1.36 2.106-1.8 2.347v.044c1.67.528 2.83 1.8 2.83 3.732 0 1.47-.613 2.81-2.15 3.533-.767.373-1.733.593-3.093.593h-3.95V18.795zm2.634 7.79v4.523h1.207c.79 0 1.272-.177 1.624-.417.638-.373.967-1.054.967-1.822 0-.9-.396-1.557-1.01-1.91-.438-.24-.922-.372-1.603-.372h-1.184zm10.065-7.79h2.635v14.463h-2.635V18.795zm8.81 0h2.634V31.02h3.862l.725 2.238h-11.435V31.02h4.214V18.795zm13.236 0h2.657V24.5l4.938 8.758h-2.853l-3.358-6.387h-.044l-3.38 6.388h-2.897l4.938-8.734v-5.73zM173.364 37.606h2.634v8.23c0 .504 0 1.25-.022 1.82h.044c.285-.547.68-1.052.987-1.49l3.16-4.544h1.207l2.853 4.433c.264.395.79 1.206.988 1.623h.044c-.045-.57-.045-1.315-.045-1.908v-8.164h2.655V52.07h-2.414l-3.467-5.378c-.506-.77-.88-1.405-1.186-1.953h-.044c-.33.57-.702 1.118-1.207 1.864l-3.797 5.465h-2.392V37.605zm16.45 0h2.744l1.36 3.62h5.158l1.405-3.62h2.854l-5.816 14.527h-2.107l-5.595-14.527zm4.873 5.77l1.053 2.855c.395 1.12.615 1.757.747 2.26h.043c.132-.482.33-1.14.725-2.238l1.01-2.875h-3.578zm10.58-5.77h7.77v2.238H207.9V52.07h-2.633V37.605zm11.114 0h2.634V49.83h3.863l.724 2.24h-11.433v-2.24h4.214V37.606zm5.917 0h2.743l1.36 3.62h5.158l1.405-3.62h2.853L230 52.133h-2.107l-5.596-14.527zm4.872 5.77l1.053 2.855c.395 1.12.614 1.757.746 2.26h.043c.13-.482.33-1.14.724-2.238l1.01-2.875h-3.578zm27.52 1.252h-2.656v-4.586c-.57-.263-1.45-.44-2.414-.44-3.117 0-4.938 2.042-4.938 5.157 0 3.073 1.843 5.224 5.333 5.224 1.558 0 2.853-.396 3.994-.966v2.458c-1.1.395-2.503.724-4.192.724-4.807 0-7.945-3.226-7.945-7.615 0-4.148 2.81-7.2 7.55-7.2 2.018 0 3.95.506 5.266 1.164v6.078zm1.72-7.022h2.746l1.36 3.62h5.157l1.404-3.62h2.854l-5.816 14.527h-2.106l-5.597-14.527zm4.874 5.77l1.053 2.855c.395 1.12.615 1.757.746 2.26h.045c.13-.482.328-1.14.724-2.238l1.01-2.875h-3.578zm10.58-5.77h2.633v8.23c0 .504 0 1.25-.02 1.82h.043c.285-.547.68-1.052.987-1.49l3.16-4.544h1.207l2.853 4.433c.264.395.79 1.206.988 1.623h.044c-.045-.57-.045-1.315-.045-1.908v-8.164h2.655V52.07h-2.414l-3.467-5.378c-.506-.77-.88-1.405-1.186-1.953h-.044c-.33.57-.702 1.118-1.207 1.864l-3.797 5.465h-2.392V37.605zm18.104 0h2.634V52.07h-2.634V37.605zm19.11 0V52.07h-2.654v-7.727c0-.79.02-1.668.043-2.436h-.043c-.44.68-.967 1.383-1.604 2.24l-6.056 7.922h-2.612V37.605h2.634v8.208c0 .834 0 1.668-.045 2.237h.046c.48-.656.987-1.38 1.624-2.192l6.275-8.252h2.393zm15.65 7.022h-2.656v-4.586c-.57-.263-1.447-.44-2.414-.44-3.115 0-4.938 2.042-4.938 5.157 0 3.073 1.844 5.224 5.332 5.224 1.56 0 2.854-.396 3.997-.966v2.458c-1.1.395-2.503.724-4.195.724-4.804 0-7.943-3.226-7.943-7.615 0-4.148 2.808-7.2 7.55-7.2 2.018 0 3.95.506 5.266 1.164v6.078z" fill="#c5c7ca"/><path d="M41.172 18.654h10.423v22.364c1.863 1.38 4.28 2.14 6.28 2.14 3.866 0 4.28-2.76 4.28-5.937V18.655h10.423v22.364c1.864 1.38 4.21 2.14 6.212 2.14 3.865 0 4.35-2.623 4.35-5.798V18.654h10.42V40.05c0 9.114-5.59 12.082-11.595 12.082-3.382 0-7.523-1.45-11.458-4.625-1.725 2.898-4.762 4.625-8.904 4.625-3.934 0-7.662-1.865-10.7-4.143L49.94 51.3h-8.766V18.654zm71.005-16.358c12.424 0 18.29 5.314 18.29 11.18 0 12.218-21.465 6.905-21.465 12.426 0 .346 0 .69.276 1.45.966-.277 2.346-.415 3.727-.415 8.352 0 14.22 4.763 14.22 12.286 0 2.693-.83 5.246-2.348 7.248.552.208 1.52.278 1.933.278.828 0 1.863-.14 2.76-.346l1.933 7.18c-.552.067-1.656.136-2.346.136-4.694 0-6.834-1.172-8.697-2.9-.277-.274-.484-.413-.83-.206-1.38.828-3.795 1.52-6.832 1.52-10.078 0-14.15-6.56-14.15-12.288 0-4.28 1.933-8.283 5.73-10.284-2.624-1.45-4.35-3.727-4.35-6.005 0-1.657.76-3.244 2.14-4.004-2.968-1.034-5.798-3.726-5.798-7.522 0-5.453 5.522-9.732 15.807-9.732m1.518 7.04c-5.177 0-8.145 1.863-8.145 4.555 0 1.45.76 2.487 1.38 3.038 3.314-1.725 13.737-.758 13.737-4.624 0-2.002-3.314-2.967-6.972-2.967m-.76 25.193c-3.105 0-4.624 2.484-4.624 4.97 0 3.45 2.003 5.04 4.488 5.04 3.175 0 4.763-2.624 4.763-5.11 0-3.244-2-4.9-4.624-4.9m41.034-15.876h8.56c-.553 1.795-.553 4.418-.553 6.42V39.71c0 7.937-4.142 12.425-14.22 12.425-5.176 0-9.594-1.244-13.46-3.175l3.245-6.56c2.347 1.244 5.522 2.003 8.283 2.003 3.52 0 5.73-1.242 5.73-4.28v-.345l-5.178-.207c-3.313-.138-6.28-.76-8.628-2-3.383-1.796-5.454-4.487-5.454-8.905 0-6.28 4.694-10.698 11.113-10.698 4.072 0 6.902 1.517 9.11 3.45l1.45-2.76zm-2.416 14.564v-6.074c-.76-.483-2.485-1.173-4.763-1.173-2.484 0-4.07 1.105-4.07 3.383 0 1.38.482 2.208 1.448 2.83.898.552 2.21.828 3.866.898l3.52.138z" fill="#858488"/></g></svg>