<svg width="48" height="36" viewBox="0 0 48 36" xmlns="http://www.w3.org/2000/svg"><title>ic-browser</title><g fill-rule="nonzero" fill="none"><path stroke="#2A3052" stroke-width="1.5" d="M20 20l4 4 8-10"/><path d="M24 11.25v1.5A8.25 8.25 0 1 0 32.25 21h1.5c0 5.385-4.365 9.75-9.75 9.75s-9.75-4.365-9.75-9.75 4.365-9.75 9.75-9.75z" fill="#2A3052"/><g><path d="M.75.75v34.5h46.5V.75H.75zM1.5 7.5h45" stroke="#2A3052" stroke-width="1.5"/><path d="M5.55 5.087c-.58 0-1.05-.467-1.05-1.044C4.5 3.467 4.97 3 5.55 3c.58 0 1.05.467 1.05 1.043 0 .577-.47 1.044-1.05 1.044zm4.2 0c-.58 0-1.05-.467-1.05-1.044C8.7 3.467 9.17 3 9.75 3c.58 0 1.05.467 1.05 1.043 0 .577-.47 1.044-1.05 1.044zm4.2 0c-.58 0-1.05-.467-1.05-1.044 0-.576.47-1.043 1.05-1.043.58 0 1.05.467 1.05 1.043 0 .577-.47 1.044-1.05 1.044z" fill="#2A3052"/></g></g></svg>