<svg width="32" height="32" fill="none" xmlns="http://www.w3.org/2000/svg"><g clip-path="url(#clip0)"><path d="M25.53 2.41C24.05.72 21.37 0 17.94 0H8a1.43 1.43 0 00-1.41 1.2L2.45 27.46a.86.86 0 00.85 1h6.13L11 18.67l-.05.31a1.42 1.42 0 011.4-1.21h2.92c5.73 0 10.22-2.32 11.53-9.06 0-.2.07-.39.1-.58.39-2.49 0-4.18-1.35-5.72" fill="#27356A"/><path d="M13.33 7.23a1.33 1.33 0 01.53-.12h7.8c.86-.006 1.72.057 2.57.19l.66.12.62.16.29.09c.373.121.734.275 1.08.46.39-2.49 0-4.18-1.35-5.72C24.05.72 21.37 0 17.94 0H8a1.43 1.43 0 00-1.41 1.2L2.45 27.46a.86.86 0 00.84 1h6.14l3.2-20.29a1.29 1.29 0 01.7-.94z" fill="#27356A"/><path d="M26.78 8.71c-1.31 6.74-5.8 9.06-11.53 9.06h-2.92a1.42 1.42 0 00-1.4 1.23L9 31.14a.75.75 0 00.74.86h5.17a1.24 1.24 0 001.24-1l.05-.26 1-6.19.06-.34a1.25 1.25 0 011.23-1.05h.78c5 0 8.93-2 10.08-7.93.48-2.46.23-4.51-1-6a5.002 5.002 0 00-1.42-1.09c0 .19-.06.38-.1.58l-.05-.01z" fill="#2791C3"/><path d="M25.51 7.58l-.62-.16-.66-.12c-.85-.133-1.71-.196-2.57-.19h-7.8a1.33 1.33 0 00-.53.12 1.29 1.29 0 00-.7.93L11 18.67l-.05.31a1.42 1.42 0 011.4-1.21h2.92c5.73 0 10.22-2.32 11.53-9.06 0-.2.07-.39.1-.58a5.832 5.832 0 00-1.08-.45l-.29-.1" fill="#1E274F"/></g><defs><clipPath id="clip0"><path fill="#fff" d="M0 0h32v32H0z"/></clipPath></defs></svg>