<svg width="32" height="32" fill="none" xmlns="http://www.w3.org/2000/svg"><path fill-rule="evenodd" clip-rule="evenodd" d="M17.69 15.11v-2.32h2.13v-2.53l2.5-1.34v3.87h2.58v2.32h-2.66v6.65c0 .92.4 1.39 1.18 1.39a3.719 3.719 0 001.88-.62l.15-.09-.61 2.35a4 4 0 01-2.24.57 2.6 2.6 0 01-2-.93 3.41 3.41 0 01-.78-2.32v-7h-2.13zm-4.85-2.34h2.53v12.39h-2.53V12.77zm17.11 0h-2.56v12.39h2.56V12.77zm-20.533.367a5.43 5.43 0 011.913 1.583h-.01l-1.43 1.73v-.05a4.21 4.21 0 00-3-1.4 3.76 3.76 0 00-2.79 1.13A4 4 0 003 19a3.87 3.87 0 001.23 2.84A3.7 3.7 0 007 22.97a4.25 4.25 0 003-1.4v-.05l1.43 1.77h-.05A5.47 5.47 0 017 25.39a6.39 6.39 0 01-4.6-1.67A6.13 6.13 0 01.47 19a6.14 6.14 0 011.93-4.76A6.47 6.47 0 017 12.57a5.43 5.43 0 012.417.567z" fill="#33347E"/><path fill-rule="evenodd" clip-rule="evenodd" d="M14.09 10.73a10.58 10.58 0 013.38-2.34 9.64 9.64 0 013.87-.79 9.91 9.91 0 013.89.79 10.909 10.909 0 013.35 2.34h2.91l-.11-.17A12.42 12.42 0 0027 6.75a12.24 12.24 0 00-11.29 0 12.42 12.42 0 00-4.44 3.85l-.11.17h2.92l.01-.04z" fill="#EB2E2E"/></svg>