<svg width="32" height="32" fill="none" xmlns="http://www.w3.org/2000/svg"><path d="M11.94 11.73V9.82h.56c5.24-.17 8.67 4.49 8.67 4.49s-3.71 5.15-7.68 5.15a4.942 4.942 0 01-1.55-.24v-5.8c2 .24 2.45 1.14 3.67 3.18l2.72-2.29A7.188 7.188 0 0013 11.67c-.35 0-.701.02-1.05.06h-.01zm.01-6.32v2.86h.56c7.28-.25 12 6 12 6s-5.45 6.62-11.12 6.62c-.49 0-.978-.044-1.46-.13v1.77c.405.052.812.08 1.22.08 5.28 0 9.09-2.7 12.79-5.89.61.49 3.12 1.69 3.64 2.21-3.52 2.94-11.71 5.31-16.35 5.31-.45 0-.88 0-1.3-.06v2.48H32V5.41H11.95zm0 13.78v1.5c-4.88-.87-6.24-5.94-6.24-5.94a10.57 10.57 0 016.24-3v1.66c-2-.24-3.64 1.67-3.64 1.67s.9 3.21 3.65 4.14l-.01-.03zm-8.68-4.66a12.081 12.081 0 018.67-4.71V8.27C5.54 8.78 0 14.2 0 14.2s3.14 9.08 11.94 9.91v-1.65c-6.46-.81-8.67-7.93-8.67-7.93z" fill="#80BC00"/></svg>