<svg width="32" height="32" fill="none" xmlns="http://www.w3.org/2000/svg"><path fill-rule="evenodd" clip-rule="evenodd" d="M15.82 16.39A12.531 12.531 0 0118.08 13a6.421 6.421 0 013.25-2 1.19 1.19 0 011 .22.2.2 0 00.18.06 4 4 0 013.06 0c.524.27 1.032.57 1.52.9.04 0 .026.047.012.09a.202.202 0 00-.012.05c-.29.32-.53.64-.79 1h-.1l-1.33-.92a2.94 2.94 0 00-2.15-.59c-.048 0-.045.046-.04.102.003.047.008.101-.02.138a4 4 0 01-.66 2.21 2.45 2.45 0 01-1.23 1.09.6.6 0 01-.61-.21c-.364-.56-.048-1.234.199-1.76l.001-.003v-.002c.018-.035.034-.07.05-.105a5.28 5.28 0 011.38-1.55v-.07c0-.047-.068-.03-.133-.015a.425.425 0 01-.087.015 5.83 5.83 0 00-2.28 1.85 13.909 13.909 0 00-2.61 4.8c-.16.65-.37 1.66.3 2.11.61.41 1.061.008 1.47-.354l.12-.106a4.69 4.69 0 001.3-2.37c0-.059.006-.123.011-.19.02-.224.042-.473-.151-.62-.205-.155-.342.004-.468.149a1.725 1.725 0 01-.082.091 2.63 2.63 0 00-.55 1.44 2.247 2.247 0 01-.272.177c-.075.045-.153.09-.228.143-.31.225-.592.487-.84.78a4.15 4.15 0 01.86-2.58 1.7 1.7 0 011.65-.76.82.82 0 01.53.66 4.14 4.14 0 01-.69 2.48c-.67 1-1.73 2.12-3.08 2a1.49 1.49 0 01-1.21-.86 4.41 4.41 0 01.18-3.29l.29-.81zm4.57-1.75a.31.31 0 00.17.28c.206.063.372-.067.527-.189l.053-.041a3.87 3.87 0 001.08-2.25v-.4a.21.21 0 00-.15 0c-.42.307-.783.686-1.07 1.12a2.86 2.86 0 00-.61 1.48zm-15.08-3.5a8.75 8.75 0 00-4.38 4.17c-.213.413-.403.837-.57 1.27-.48 1.23-.58 3.06.42 4.06a3 3 0 002.63.61c.688-.098 1.344-.29 2-.482 1.088-.319 2.173-.637 3.39-.518a2.31 2.31 0 011.54 1h.05a5.85 5.85 0 013.83.08 4.64 4.64 0 00-2.19-1.61 7.22 7.22 0 00-4.48 0l-1.46.43-.77.24a3.87 3.87 0 01-2.72.08 2.08 2.08 0 01-1-2.11 8.89 8.89 0 011.14-3.24A11.231 11.231 0 015.3 12a1.42 1.42 0 01.95-.41.28.28 0 01.16.14c0 .02.007.047.014.072.013.05.026.098-.014.098a1 1 0 00-.72.76.46.46 0 00.09.45.26.26 0 00.21.09c.47-.07.75-.59.84-1a.91.91 0 00-.28-1 1.492 1.492 0 00-1.24-.06zm-1.68 4.78a4.55 4.55 0 012.25-2.3.88.88 0 01.79.14c.44.44.27 1.2.12 1.72a.08.08 0 000 .07 1.52 1.52 0 001-.47c.065-.072.13-.147.196-.223.556-.635 1.17-1.336 2.054-1.247a.67.67 0 01.47.31 1.33 1.33 0 01-.34 1.44.5.5 0 01-.49.16.33.33 0 01-.17-.18.87.87 0 01.49-.86c.028-.028.078-.037.127-.045.09-.015.178-.03.133-.165a.24.24 0 00-.26-.08 2.81 2.81 0 00-1 1.11 7.233 7.233 0 00-.82 1.76 1 1 0 000 .72.4.4 0 00.42.15c.47-.22.89-.537 1.23-.93.3-.362.552-.756.803-1.15.441-.694.883-1.387 1.597-1.91a1.23 1.23 0 011.25-.2c.03 0 .056.02.083.04.036.028.075.057.127.04.036-.012.06-.047.086-.084.039-.056.08-.114.164-.096h1l-.09.22-1.74 3.53a.318.318 0 000 .14h.14a2.36 2.36 0 00.62-.64c.152-.208.286-.429.4-.66l.01-.014c.046-.066.096-.135.18-.126.062.007.143.004.214.002l.086-.002c-.13.291-.278.575-.44.85a3.78 3.78 0 01-2 1.78.5.5 0 01-.43-.08c-.131-.092-.161-.238-.19-.383h-.001a1.948 1.948 0 00-.03-.127.1.1 0 00-.07 0 1.59 1.59 0 01-1.27.6.57.57 0 01-.33-.26 2 2 0 01-.1-.87h-.07a4 4 0 01-1.93 1.18 1 1 0 01-.9-.3c-.522-.703-.15-1.605.137-2.302l.044-.108a.06.06 0 00.02-.045.06.06 0 00-.02-.045l-.59.08-.07.07a7 7 0 01-1.78 2.37 1.19 1.19 0 01-1.24.18 1.24 1.24 0 01-.39-1.26c.107-.52.282-1.025.52-1.5zm1.29 0a3.58 3.58 0 00-.49 1.54.31.31 0 00.21.25.4.4 0 00.36-.13c.422-.411.762-.9 1-1.44 0 0 .08-.14.05-.14a1.93 1.93 0 01-.76-.55s-.06 0-.09.08l-.28.39zm.73-1a.71.71 0 00.47.56c.02 0 .042.006.066.013.047.013.097.027.124-.013a1.82 1.82 0 00.18-.51c0-.047.003-.098.007-.15.013-.204.028-.43-.147-.55a.32.32 0 00-.27 0 .73.73 0 00-.43.63v.02zm5.72 2a1.18 1.18 0 00-.09.67.159.159 0 00.11.09c.183 0 .31-.149.427-.285l.013-.015a13.687 13.687 0 001.37-2.49c.083-.173.137-.36.16-.55 0 0 0-.07-.08-.09a.25.25 0 00-.23.06 5.56 5.56 0 00-1.53 2.18l-.15.43zm4.15-3.22a9.183 9.183 0 00-.52 1c0 .04-.01.07-.01.07.333.02.667.02 1 0a.36.36 0 00.23-.17c.17-.33.32-.66.46-1h-.83a.47.47 0 00-.33.1zm6.571 2.897a3 3 0 00-.851.913 5.62 5.62 0 00-1.14 2.71 1 1 0 00.5 1 1.33 1.33 0 001.25-.42 7.602 7.602 0 001.47-2.1l.08-.1h.52c.08.01.08.08.08.08a4 4 0 00-.03 2.11.68.68 0 00.51.46c.619.06 1.089-.498 1.458-.938l.002-.002v.05l.001.014c.03.327.064.698.389.846.527.15.936-.226 1.304-.565l.006-.005c.01 0 .012-.022.014-.042.004-.04.007-.076.066.042.03.062.049.13.067.197.034.129.068.258.193.343a.79.79 0 00.73-.08 4.83 4.83 0 001.91-2.28c0-.024.007-.054.014-.083.013-.055.025-.107-.014-.107a.54.54 0 00-.31 0c-.053.083-.105.167-.156.25-.102.167-.204.333-.324.5a2 2 0 01-.63.64c-.06.01-.15.01-.15-.06.017-.145.065-.284.14-.41l1.39-2.89.23-.47v-.09h-1c-.06 0-.079.033-.1.072-.017.031-.035.066-.08.088-.06.03-.108-.007-.154-.042-.032-.025-.063-.048-.096-.048a1.32 1.32 0 00-1.35.33c-.659.56-1.073 1.241-1.488 1.925-.297.489-.594.979-.982 1.425l-.048.046c-.117.112-.244.234-.402.164a.259.259 0 01-.11-.2 5.5 5.5 0 01.32-1.39 1.35 1.35 0 00.055-.161c.034-.118.07-.237.165-.319l.65-.51a15.772 15.772 0 002.473-2.89c.053-.07.107-.143.107-.22a1.21 1.21 0 00-.43.07 14.924 14.924 0 01-2.11 2.47 2.99 2.99 0 00-.114.09c-.107.087-.226.183-.226.14v-.06c.124-.342.285-.672.444-.999l.001-.002.135-.279c.6-1.252 1.35-2.427 2.23-3.5.23-.295.515-.543.84-.73.02 0 .047-.008.075-.017.06-.018.125-.037.125.017a.41.41 0 010 .22 2.356 2.356 0 00-.09.45c.035-.012.072-.022.11-.031.144-.037.294-.075.35-.289.07-.27.11-.64-.11-.81-.22-.17-.55-.07-.78 0a6.74 6.74 0 00-2.44 2.15A19.727 19.727 0 0024.27 18l-.02.1a.89.89 0 01-.51.07.08.08 0 01-.06-.09c.022-.092.05-.187.078-.285.133-.469.283-.993.002-1.415a.641.641 0 00-.52-.27 3 3 0 00-1.149.487zm-.648 3.418a.37.37 0 01-.063-.205c.02-.375.115-.742.28-1.08.117-.273.261-.535.43-.78a.08.08 0 01.1 0c.2.223.436.409.7.55.05.04 0 .17 0 .17a3.93 3.93 0 01-1 1.43.39.39 0 01-.28.05.37.37 0 01-.167-.135zm1.308-2.222a.73.73 0 01-.151-.353.82.82 0 01.37-.71.36.36 0 01.39.082.31.31 0 01.07.128 1.83 1.83 0 01-.2 1.08h-.17a.73.73 0 01-.31-.227zm4.569 2.267c-.06-.09-.06-.25-.06-.37l.16-.39a6.7 6.7 0 011.37-2.3c.15-.11.52-.28.52-.23V17a14.911 14.911 0 01-1.24 2.45 1.72 1.72 0 01-.56.61.17.17 0 01-.19 0zm.93-6.67l.45-.58.07-.06A4.84 4.84 0 0032 11a1 1 0 01-.1.34 4.31 4.31 0 01-3.64 2.68h-.37c-.047 0-.031-.035-.016-.071.008-.018.016-.036.016-.049l.36-.51zm1.66 7.342a.299.299 0 00-.02.118.299.299 0 00.3.31.31.31 0 10-.117-.596.3.3 0 00-.163.168zm.443.49a.38.38 0 01-.163.008.381.381 0 01-.407-.535.381.381 0 01.407-.215.38.38 0 01.163.741zm-.163-.342h-.08v.19h-.06v-.43h.16c.11 0 .16 0 .16.12s-.05.12-.12.12l.13.19h-.08l-.11-.19zm-.08-.19v.14h.08c.06 0 .11 0 .11-.07s-.05-.07-.1-.07h-.09z" fill="#ED1A3B"/></svg>