<svg width="32" height="32" fill="none" xmlns="http://www.w3.org/2000/svg"><path fill-rule="evenodd" clip-rule="evenodd" d="M0 14.43a50.646 50.646 0 018.84-3.77v.01c.82.24 1.61.53 2.4.82a48.54 48.54 0 00-8.58 4C1.79 15.12.9 14.77 0 14.43zm15.2-1.32c-.93-.45-1.83-.84-2.83-1.21a59.218 59.218 0 00-8.54 4.09c.95.42 1.89.89 2.82 1.37a59.714 59.714 0 018.55-4.25z" fill="#0067B1"/><path fill-rule="evenodd" clip-rule="evenodd" d="M15.09 7.91c2.604.71 5.15 1.612 7.62 2.7-.84.21-1.71.47-2.56.73a49.998 49.998 0 00-7.54-2.87c.82-.21 1.64-.4 2.48-.56zm-3.8.93a54.58 54.58 0 017.49 2.93v.02c-.84.29-1.66.58-2.48.89a53.998 53.998 0 00-7.7-3 60.8 60.8 0 012.69-.84zm17.76 3.88a66.402 66.402 0 00-17.26 8.78c1.32.82 2.59 1.66 3.83 2.59A69.704 69.704 0 0132 14.4c-1-.6-1.95-1.16-2.95-1.68zM6.83 18.78a59.57 59.57 0 0117.94-8.07c1.044.412 2.038.891 3.028 1.369l.272.131a63.001 63.001 0 00-17.62 8.5c-1.19-.69-2.4-1.32-3.62-1.93z" fill="#EE2A24"/></svg>