<svg width="40" height="25" fill="none" xmlns="http://www.w3.org/2000/svg"><path d="M24.148 8.125a5.359 5.359 0 011.949.357l-.02-.007-.295 1.834-.195-.098a3.852 3.852 0 00-1.628-.316c-.85 0-1.238.332-1.244.73-.007.399.46.658 1.218 1.053 1.257.604 1.83 1.334 1.83 2.301 0 1.758-1.496 2.896-3.779 2.896a6.631 6.631 0 01-2.425-.452l.315-1.897.28.133a4.343 4.343 0 002.047.446c.627 0 1.304-.26 1.304-.828.003-.37-.305-.648-1.13-1.053-.826-.405-1.906-1.084-1.906-2.301.013-1.647 1.528-2.798 3.678-2.798zm4.707.86a1.07 1.07 0 011.14-.702h1.682l1.76 8.469H31.42l-.122-.581-.026-.123a63.769 63.769 0 00-.12-.56h-2.784c-.085.217-.456 1.264-.456 1.264h-2.287l3.232-7.767zm-9.29-.711l-1.36 8.475h-2.173l1.36-8.475h2.173zm-9.466.003c.472.019.857.177.989.714l.762 3.885-.01-.028.01.034.227 1.176 2.129-5.778h2.305l-3.44 8.459h-2.289L8.85 9.38a8.836 8.836 0 00-2.287-.93l.028-.173h3.508zm20.048 2.289c-.062.182-.146.42-.208.59l-.029.08-.05.139s-.686 1.88-.866 2.367h1.805c-.038-.187-.14-.686-.244-1.184l-.032-.157-.228-1.102-.148-.733z" fill="#fff"/></svg>