<svg width="32" height="32" fill="none" xmlns="http://www.w3.org/2000/svg"><path d="M31.82 30.125V1.875A1.443 1.443 0 0030.375.432H1.624A1.443 1.443 0 00.181 1.868v28.26a1.443 1.443 0 001.443 1.441h15.967v-12.5h-4.12v-4.308h4.12v-4.677A4.818 4.818 0 0122.183 5.4H26.8v3.916h-2.13c-1.05 0-2.448.851-2.448 1.9v3.546h4.157v4.307h-4.157v12.5h8.154a1.443 1.443 0 001.443-1.444z" fill="url(#paint0_linear)"/><path d="M30.376 31.749h-8.335V18.888H26.2v-3.946h-4.159v-3.727c0-1.12 1.445-2.079 2.628-2.079h1.948V5.578h-4.434a4.645 4.645 0 00-4.411 4.506v4.858H13.65v3.946h4.122v12.861H1.624A1.626 1.626 0 010 30.128V1.868A1.627 1.627 0 011.624.251h28.752A1.626 1.626 0 0132 1.875v28.25a1.626 1.626 0 01-1.624 1.624zm-7.976-.361h7.974a1.264 1.264 0 001.263-1.263V1.875A1.264 1.264 0 0030.376.612H1.624A1.265 1.265 0 00.362 1.869v28.259a1.264 1.264 0 001.263 1.26h15.786v-12.14h-4.122v-4.667h4.122v-4.5a5.013 5.013 0 014.772-4.867h4.8V9.5h-2.314c-1 0-2.267.809-2.267 1.718v3.366h4.156v4.667H22.4v12.137z" fill="#3D568E"/><defs><linearGradient id="paint0_linear" x1="16" y1=".591" x2="16" y2="31.728" gradientUnits="userSpaceOnUse"><stop stop-color="#4D69A2"/><stop offset="1" stop-color="#3C5A99"/></linearGradient></defs></svg>