<svg width="32" height="32" fill="none" xmlns="http://www.w3.org/2000/svg"><path d="M30.074 16.838v-2.133h-.714v-.7h.714v-1.243h.764v1.246h1v.7h-1v2.072c0 .457.191.664.548.664a.765.765 0 00.348-.066l.266.656c-.195.08-.404.116-.614.108a1.18 1.18 0 01-1.312-1.304zm-4.923-.8a2.05 2.05 0 011.993-2.167 1.953 1.953 0 011.992 2.167c0 .058-.008.141-.008.141h-3.213a1.305 1.305 0 001.3 1.328 1.132 1.132 0 001.113-.7L29 17.1a1.844 1.844 0 01-1.776 1.112 2.044 2.044 0 01-2.076-2.166l.003-.008zm1.976-1.47a1.2 1.2 0 00-1.162.98h2.358a1.1 1.1 0 00-1.196-.976v-.004zm-5.719 2.939h-.033v.564h-.731v-5.939h.764v1.876l-.033.564h.033a1.627 1.627 0 011.386-.7 2.055 2.055 0 011.935 2.167 2.055 2.055 0 01-1.935 2.166 1.628 1.628 0 01-1.386-.694v-.004zm2.557-1.469a1.305 1.305 0 10-2.59 0 1.305 1.305 0 102.59 0zm-7.72.8c0-.922.83-1.42 1.785-1.42.381-.008.76.078 1.1.249v-.107a1.077 1.077 0 00-2.034-.4l-.7-.3a1.68 1.68 0 011.652-.988 1.67 1.67 0 011.809 1.743v2.457h-.73v-.564H19.1a1.533 1.533 0 01-1.337.7 1.394 1.394 0 01-1.518-1.361v-.009zm2.889-.523a1.6 1.6 0 00-.972-.266c-.8 0-1.12.432-1.12.8 0 .432.448.648.847.648a1.266 1.266 0 001.245-1.173v-.009zm-6.351-2.316l-.033.564h.033a1.544 1.544 0 011.287-.7 1.5 1.5 0 011.553 1.71v2.49h-.764V15.7c0-.847-.424-1.129-1.005-1.129a1.167 1.167 0 00-1.071 1.254v2.249h-.763v-5.942h.763v1.876-.009zm-4.656 3.5h-.033l.033.564v1.793h-.764v-5.86h.731v.564h.033a1.627 1.627 0 011.386-.7 2.055 2.055 0 011.934 2.167 2.055 2.055 0 01-1.934 2.166 1.63 1.63 0 01-1.386-.682v-.012zm2.557-1.469a1.305 1.305 0 10-2.59 0 1.305 1.305 0 102.59 0zm-4.9 2.033h.766v-5.931h-.764l-.002 5.931zm-3.543-5.931L0 18.075h.847l.581-1.61h2.5l.572 1.61h.847l-2.242-5.943h-.864zm.415.938h.034l.971 2.681H1.685l.971-2.681z" fill="#ED1C24"/></svg>