<svg width="32" height="32" fill="none" xmlns="http://www.w3.org/2000/svg"><g clip-path="url(#clip0)"><path fill-rule="evenodd" clip-rule="evenodd" d="M11.014.09a1.13 1.13 0 01.433-.085h10.261l9.524 9.047H10.316V1.134a1.13 1.13 0 01.698-1.043zm20.9 10.925c.057.137.086.284.086.432V21.71l-9.048 9.524V10.318h7.917a1.127 1.127 0 011.045.697zM20.555 32a1.128 1.128 0 001.127-1.131v-7.921H.764l9.525 9.045h10.266V32zM.085 20.985A1.128 1.128 0 010 20.553V10.292L9.048.766v20.918H1.127a1.128 1.128 0 01-1.042-.699z" fill="#0079C1"/></g><defs><clipPath id="clip0"><path fill="#fff" d="M0 0h32v32H0z"/></clipPath></defs></svg>