<svg width="40" height="40" fill="none" xmlns="http://www.w3.org/2000/svg"><g clip-path="url(#clip0)"><path fill-rule="evenodd" clip-rule="evenodd" d="M28.89 6.696a16 16 0 10-17.78 26.607A16 16 0 0028.89 6.696zM10.946 8.97A14.27 14.27 0 0120 5.73a14.23 14.23 0 0110.09 4.18 14.27 14.27 0 11-19.143-.941zM32.2 21.3h-2.4v-4.87h-2.4v6.87h4.8v-2zm-17.81-.14L18 24l4-3.08v2.38h4.79v-2H24.4v-4.87H22v2.39l-3.36 2.6-.64-.5 3.34-2.6L20 17.27l-3.34 2.55-.63-.5 3.31-2.6-1.34-1-3.6 2.84a3.44 3.44 0 00-3.22-2.13H8.09v6.86h3.07a3.5 3.5 0 003.23-2.13zm-2.05-1.87c.072.185.102.383.09.58a1.38 1.38 0 01-1.51 1.47h-.52v-2.93h.54a1.381 1.381 0 011.4.88z" fill="#0087CC"/></g><defs><clipPath id="clip0"><path fill="#fff" transform="translate(4 4)" d="M0 0h32v32H0z"/></clipPath></defs></svg>