<svg width="32" height="32" fill="none" xmlns="http://www.w3.org/2000/svg"><path d="M0 4a4 4 0 014-4h24a4 4 0 014 4v24a4 4 0 01-4 4H4a4 4 0 01-4-4V4z" fill="#005BAA"/><path fill-rule="evenodd" clip-rule="evenodd" d="M12.347 11.908h1.78v-1.383C14.043 8.48 12.57 8 11.04 8c-1.61 0-3.04.66-3.04 3.768v3.029c.003.349.001.683 0 1-.01 2.653-.016 4.166 2.603 4.166a2.7 2.7 0 001.756-.852v.697h1.715v-6.643h-2.973v1.644h1.235v2.086c0 1.088-.592 1.288-1.293 1.288-1.222 0-1.22-1.055-1.206-2.516V12.56c0-.087-.002-.186-.004-.293-.02-.957-.052-2.579 1.21-2.579.962.048 1.25.286 1.303 1.322v.898zm7.714 4.016l-1.52-7.652h-2.414v11.524h1.732v-7.64l1.462 7.64h1.403l1.544-7.678-.003 7.678h1.733V8.272h-2.417l-1.52 7.652zM24 21.514V24H8v-2.486h16z" fill="#fff"/></svg>