<svg width="60" height="40" xmlns="http://www.w3.org/2000/svg"><g fill-rule="nonzero" fill="none"><rect fill="#0D47A1" width="60" height="40" rx="1"/><path d="M30.42 4.605l.416 1.264 1.31.01c.17.001.24.221.104.324l-1.055.791.396 1.27c.051.164-.133.3-.271.2l-1.067-.775-1.066.775c-.138.1-.323-.036-.272-.2l.396-1.27-1.055-.791c-.136-.103-.066-.323.104-.324l1.31-.01.416-1.264a.176.176 0 0 1 .335 0zm0 27.127l.416 1.263 1.31.01c.17.002.24.222.104.324l-1.055.792.396 1.27c.051.164-.133.3-.271.2l-1.067-.775-1.066.774c-.138.1-.323-.035-.272-.2l.396-1.27-1.055-.79c-.136-.103-.066-.323.104-.324l1.31-.01.416-1.264a.176.176 0 0 1 .335 0zm13.352-13.564l.415 1.264 1.31.01c.17.002.24.222.104.324l-1.054.791.395 1.27c.051.164-.133.3-.271.2l-1.067-.774-1.066.774c-.138.1-.322-.036-.271-.2l.395-1.27-1.055-.79c-.136-.103-.066-.323.104-.325l1.311-.01.415-1.264a.176.176 0 0 1 .335 0zm-26.703 0l.415 1.264 1.311.01c.17.002.24.222.104.324l-1.055.791.395 1.27c.052.164-.133.3-.27.2l-1.067-.774-1.067.774c-.138.1-.322-.036-.271-.2l.395-1.27-1.054-.79c-.137-.103-.066-.323.103-.325l1.311-.01.415-1.264a.176.176 0 0 1 .335 0zm2.005-7.082l.415 1.263 1.31.01c.17.002.24.222.104.324l-1.055.791.396 1.27c.051.164-.133.3-.271.2l-1.067-.774-1.066.774c-.138.1-.323-.035-.272-.2l.396-1.27-1.055-.79c-.136-.103-.066-.323.104-.325l1.31-.01.416-1.263a.176.176 0 0 1 .335 0zm23.125 13.563l.415 1.263 1.31.01c.17.002.24.222.104.324l-1.055.792.396 1.27c.051.164-.133.3-.271.2l-1.067-.775-1.066.774c-.138.1-.323-.035-.272-.2l.396-1.27-1.055-.79c-.136-.103-.066-.323.104-.324l1.31-.01.416-1.264a.176.176 0 0 1 .335 0zM37.312 6.12l.415 1.264 1.31.01c.17.001.24.221.104.324l-1.054.79.395 1.27c.051.165-.133.301-.271.2l-1.067-.774-1.066.775c-.138.1-.323-.036-.271-.2l.395-1.27-1.055-.791c-.136-.103-.066-.323.104-.324l1.31-.01.416-1.264a.176.176 0 0 1 .335 0zM23.96 29.613l.414 1.264 1.311.01c.17.002.24.222.104.324l-1.055.791.396 1.27c.05.164-.133.3-.272.2l-1.066-.774-1.067.774c-.138.1-.322-.036-.27-.2l.395-1.27-1.055-.79c-.137-.103-.066-.323.104-.325l1.31-.01.415-1.263a.176.176 0 0 1 .336 0zm17.903-18.527a.176.176 0 0 1 .335 0l.415 1.263 1.31.01c.17.002.24.222.104.324l-1.055.791.396 1.27c.051.165-.133.3-.271.2l-1.067-.774-1.066.774c-.139.1-.323-.036-.272-.2l.396-1.27-1.055-.79c-.136-.103-.066-.323.104-.325l1.31-.01.416-1.263zM18.739 24.649a.176.176 0 0 1 .335 0l.415 1.263 1.31.01c.17.002.24.222.104.324l-1.055.792.396 1.27c.051.164-.133.3-.271.2l-1.067-.775-1.066.774c-.139.1-.323-.035-.272-.2l.396-1.27-1.055-.79c-.136-.103-.066-.323.104-.324l1.31-.01.416-1.264zM23.625 6.12a.176.176 0 0 1 .336 0l.414 1.264 1.311.01c.17.001.24.221.104.324l-1.055.79.396 1.27c.05.165-.134.301-.272.2l-1.066-.774-1.067.775c-.138.1-.322-.036-.27-.2l.395-1.27-1.055-.791c-.137-.103-.066-.323.104-.324l1.31-.01.415-1.264zm13.352 23.492a.176.176 0 0 1 .335 0l.415 1.264 1.31.01c.17.002.24.222.104.324l-1.054.791.395 1.27c.051.164-.133.3-.271.2l-1.067-.774-1.066.774c-.138.1-.323-.036-.271-.2l.395-1.27-1.055-.79c-.136-.103-.066-.323.104-.325l1.31-.01.416-1.264z" fill="#FFEB3B"/></g></svg>