<svg xmlns="http://www.w3.org/2000/svg" width="78" height="78" viewBox="0 0 78 78"><g fill="none"><path fill="#DEDEDE" d="M39 78c21.48 0 39-17.52 39-39S60.48 0 39 0 0 17.52 0 39s17.52 39 39 39z"/><path fill="#FFF" stroke="#2A3052" stroke-width="1.5" d="M65.128 30.546C65.128 17.54 54.551 7 41.514 7c-11.118 0-20.466 7.684-22.925 18.029v.098c-.148.69-.296 1.33-.394 2.02-.197.985-.492 2.069-.836 2.61-1.82 3.153-5.018 8.67-5.018 8.67-.59.986-.246 2.266.738 2.857l4.92 2.956v10.443c0 1.084.885 1.97 1.967 1.97h9.249v11.33c0 1.084.886 2.02 1.968 2.02l21.154-7.241c1.033-.345 1.968-.887 1.968-2.02V50.2c6.395-4.187 10.823-11.428 10.823-19.654z"/><path fill="#E98024" d="M57.024 33.776c.011-1.59-.617-2.848-1.87-3.736-.966-.684-2.14-1.04-3.276-1.383-2.365-.718-3.051-1.096-3.051-2.229 0-1.261 1.637-1.71 3.039-1.71 1.02 0 2.195.318 2.925.789l1.446-2.242c-.954-.619-2.258-1.04-3.547-1.172V20h-2.667v2.24c-2.371.522-3.865 2.074-3.865 4.188 0 1.481.615 2.656 1.823 3.484.92.632 2.041.972 3.125 1.3 2.32.703 3.262 1.13 3.251 2.547v.01c0 1.19-1.574 1.612-2.923 1.612-1.274 0-2.659-.559-3.444-1.39l-1.938 1.835c.994 1.053 2.44 1.798 3.97 2.09V40.1h2.668v-2.138c2.635-.377 4.331-1.965 4.334-4.186zM41.35 25.184c.007-1.06-.412-1.899-1.247-2.49-.645-.457-1.427-.694-2.184-.923-1.577-.479-2.035-.73-2.035-1.485 0-.841 1.092-1.14 2.027-1.14.68 0 1.463.211 1.95.525l.963-1.494c-.635-.413-1.505-.694-2.364-.781V16h-1.778v1.494c-1.58.348-2.577 1.382-2.577 2.792 0 .987.41 1.77 1.216 2.322.613.422 1.36.648 2.083.867 1.546.468 2.175.753 2.167 1.698v.007c0 .792-1.05 1.074-1.948 1.074-.85 0-1.773-.372-2.296-.926l-1.292 1.223c.663.702 1.626 1.198 2.647 1.393V29.4h1.778v-1.425c1.757-.252 2.887-1.31 2.89-2.791zM42.512 44.888c.006-.795-.308-1.424-.935-1.868-.483-.342-1.07-.52-1.638-.692-1.183-.359-1.526-.548-1.526-1.114 0-.63.819-.855 1.52-.855.51 0 1.098.159 1.462.394l.723-1.12c-.476-.31-1.129-.52-1.773-.586V38h-1.334v1.12c-1.185.261-1.932 1.037-1.932 2.094 0 .74.307 1.328.912 1.742.46.316 1.02.486 1.562.65 1.16.351 1.63.565 1.626 1.274v.005c0 .594-.788.806-1.462.806-.637 0-1.33-.28-1.722-.695l-.969.917c.497.527 1.22.899 1.985 1.045v1.092h1.334v-1.07c1.318-.189 2.166-.983 2.167-2.093z"/></g></svg>