<svg xmlns="http://www.w3.org/2000/svg" width="214" height="65" viewBox="0 0 214 65"><g fill="none" fill-rule="evenodd"><path fill="#0C0CBB" d="M0 1h106v64H0z"/><path fill="#C03" d="M108 1h106v64H108z"/><path fill="#FFF" d="M16.75 17.88c-1.045-.3-1.806-.67-2.282-1.107a2.116 2.116 0 0 1-.714-1.622c0-.728.291-1.33.873-1.806.582-.476 1.338-.714 2.27-.714.634 0 1.2.123 1.697.368.497.245.883.584 1.156 1.016.272.431.409.903.409 1.415h-1.225c0-.558-.178-.997-.533-1.317-.356-.32-.857-.48-1.505-.48-.6 0-1.07.133-1.406.398-.336.264-.504.631-.504 1.1 0 .377.16.696.479.956.32.26.863.498 1.631.714.768.216 1.37.454 1.803.714.434.26.755.564.965.911.21.347.314.756.314 1.225 0 .75-.292 1.35-.876 1.8-.584.45-1.365.676-2.342.676a4.344 4.344 0 0 1-1.778-.365c-.55-.243-.974-.577-1.272-1a2.44 2.44 0 0 1-.448-1.44h1.225c0 .558.207.999.62 1.323.412.324.963.485 1.653.485.643 0 1.136-.13 1.479-.393.342-.263.514-.62.514-1.073 0-.453-.159-.803-.476-1.05-.318-.248-.893-.492-1.727-.734zm10.214-.152h-4.006v3.275h4.653V22H21.74v-9.242h5.808v1.003h-4.59v2.97h4.006v.997zm3.39 3.275h4.38V22h-5.606v-9.242h1.225v8.245zm6.994 0h4.38V22h-5.605v-9.242h1.225v8.245zM176.407 22v-9.242h3.022c1.003 0 1.757.207 2.263.622.506.415.758 1.028.758 1.84 0 .432-.122.814-.368 1.146a2.38 2.38 0 0 1-1.003.772c.5.14.894.405 1.184.796.29.392.435.858.435 1.4 0 .83-.269 1.481-.806 1.955-.538.474-1.297.711-2.279.711h-3.206zm1.22-4.323v3.326h2.011c.567 0 1.015-.147 1.343-.44.328-.295.492-.7.492-1.216 0-1.113-.605-1.67-1.816-1.67h-2.03zm0-.977h1.84c.533 0 .96-.134 1.28-.4.319-.267.478-.629.478-1.086 0-.507-.148-.877-.444-1.107-.296-.23-.747-.346-1.352-.346h-1.803V16.7zm13.38-3.942v6.284c-.004.872-.278 1.585-.822 2.14-.544.554-1.281.865-2.212.932l-.324.013c-1.011 0-1.817-.273-2.418-.819-.601-.546-.906-1.297-.914-2.253v-6.297h1.206v6.259c0 .668.184 1.188.552 1.558.368.37.893.555 1.574.555.69 0 1.218-.184 1.584-.552.366-.368.549-.886.549-1.555v-6.265h1.225zm4.742 4.64l2.412-4.64h1.384l-3.187 5.795V22h-1.219v-3.447l-3.186-5.795h1.396l2.4 4.64z"/><path fill="#FFF" stroke="#FFF" d="M55 .713v25.104h51V.713zm53 0v25.104h51V.713z"/><path stroke="#979797" d="M57.5 1.5h99v22h-99z"/><path stroke="#979797" d="M57.5 1.5h25v22h-25zm74 0h25v22h-25z"/><path fill="#000" d="M100.163 17h-6.055v-.844l3.199-3.555c.474-.537.8-.974.98-1.31.18-.337.27-.685.27-1.045 0-.482-.146-.878-.438-1.187-.292-.309-.68-.463-1.168-.463-.584 0-1.037.166-1.361.498-.324.332-.486.795-.486 1.387H93.93c0-.85.274-1.538.822-2.063.548-.525 1.281-.787 2.2-.787.858 0 1.538.225 2.037.676.5.45.749 1.05.749 1.8 0 .91-.58 1.993-1.74 3.25l-2.475 2.685h4.64V17zm1.39-.616c0-.203.06-.372.181-.508.121-.135.302-.203.543-.203.241 0 .424.068.55.203a.72.72 0 0 1 .186.508.681.681 0 0 1-.187.489c-.125.131-.308.197-.549.197-.241 0-.422-.066-.543-.197a.695.695 0 0 1-.18-.489zm9.071-3.326c0 1.375-.235 2.397-.704 3.066-.47.669-1.204 1.003-2.203 1.003-.986 0-1.716-.327-2.19-.98-.474-.655-.72-1.631-.736-2.93v-1.568c0-1.358.235-2.368.704-3.028.47-.66 1.206-.99 2.21-.99.994 0 1.726.318 2.196.955.47.637.71 1.62.723 2.949v1.523zm-1.174-1.606c0-.994-.14-1.719-.419-2.174-.28-.455-.722-.682-1.327-.682-.6 0-1.039.226-1.314.679-.275.453-.416 1.149-.425 2.088v1.88c0 .998.145 1.735.435 2.211.29.476.729.714 1.317.714.58 0 1.01-.224 1.292-.672.281-.449.428-1.156.441-2.12v-1.924zm8.474 1.606c0 1.375-.235 2.397-.705 3.066s-1.203 1.003-2.202 1.003c-.986 0-1.716-.327-2.19-.98-.474-.655-.72-1.631-.736-2.93v-1.568c0-1.358.234-2.368.704-3.028.47-.66 1.206-.99 2.21-.99.994 0 1.726.318 2.195.955.47.637.711 1.62.724 2.949v1.523zm-1.174-1.606c0-.994-.14-1.719-.42-2.174-.278-.455-.72-.682-1.326-.682-.6 0-1.039.226-1.314.679-.275.453-.417 1.149-.425 2.088v1.88c0 .998.145 1.735.435 2.211.29.476.729.714 1.317.714.58 0 1.01-.224 1.292-.672.281-.449.428-1.156.44-2.12v-1.924zM67 11h6l-3 3zm74 0h6l-3 3z"/><g fill="#FFF"><path d="M22.467 52h-1.18v-7.827l-2.368.87v-1.066l3.364-1.264h.184V52zm3.586-.616c0-.203.06-.372.181-.508.121-.135.302-.203.543-.203.241 0 .424.068.55.203a.72.72 0 0 1 .186.508.681.681 0 0 1-.187.489c-.125.131-.308.197-.549.197-.241 0-.422-.066-.543-.197a.695.695 0 0 1-.18-.489zm9.332.616h-6.056v-.844l3.2-3.555c.473-.537.8-.974.98-1.31.18-.337.27-.685.27-1.045 0-.482-.146-.878-.438-1.187-.292-.309-.682-.463-1.168-.463-.584 0-1.038.166-1.362.498-.324.332-.486.795-.486 1.387h-1.174c0-.85.274-1.538.822-2.063.548-.525 1.281-.787 2.2-.787.859 0 1.538.225 2.037.676.5.45.75 1.05.75 1.8 0 .91-.58 1.993-1.74 3.25l-2.476 2.685h4.64V52zm7.3 0h-6.056v-.844l3.199-3.555c.474-.537.8-.974.98-1.31.18-.337.27-.685.27-1.045 0-.482-.146-.878-.438-1.187-.292-.309-.68-.463-1.168-.463-.584 0-1.037.166-1.361.498-.324.332-.486.795-.486 1.387h-1.174c0-.85.274-1.538.822-2.063.548-.525 1.281-.787 2.2-.787.858 0 1.538.225 2.037.676.5.45.749 1.05.749 1.8 0 .91-.58 1.993-1.74 3.25l-2.475 2.685h4.64V52z"/><text font-family="Roboto-Regular, Roboto" font-size="13" transform="translate(18 35)"><tspan x="61.35" y="12">1</tspan></text><path d="M60.544 39.477L54.066 54h-2.084l6.456-14.008h-8.464V38.36h10.57v1.118zm12.353 0L66.42 54h-2.084l6.456-14.008h-8.465V38.36h10.57v1.118z"/></g><path d="M132.467 52h-1.18v-7.827l-2.368.87v-1.066l3.364-1.264h.184V52zm3.586-.616c0-.203.06-.372.181-.508.121-.135.302-.203.543-.203.241 0 .424.068.55.203a.72.72 0 0 1 .186.508.681.681 0 0 1-.187.489c-.125.131-.308.197-.549.197-.241 0-.422-.066-.543-.197a.695.695 0 0 1-.18-.489zm9.332.616h-6.056v-.844l3.2-3.555c.473-.537.8-.974.98-1.31.18-.337.27-.685.27-1.045 0-.482-.146-.878-.438-1.187-.292-.309-.682-.463-1.168-.463-.584 0-1.038.166-1.362.498-.324.332-.486.795-.486 1.387h-1.174c0-.85.274-1.538.822-2.063.548-.525 1.281-.787 2.2-.787.859 0 1.538.225 2.037.676.5.45.75 1.05.75 1.8 0 .91-.58 1.993-1.74 3.25l-2.476 2.685h4.64V52zm7.3 0h-6.056v-.844l3.199-3.555c.474-.537.8-.974.98-1.31.18-.337.27-.685.27-1.045 0-.482-.146-.878-.438-1.187-.292-.309-.68-.463-1.168-.463-.584 0-1.037.166-1.361.498-.324.332-.486.795-.486 1.387h-1.174c0-.85.274-1.538.822-2.063.548-.525 1.281-.787 2.2-.787.858 0 1.538.225 2.037.676.5.45.749 1.05.749 1.8 0 .91-.58 1.993-1.74 3.25l-2.475 2.685h4.64V52zm41.293-5h-1.181v-7.827l-2.368.87v-1.066l3.364-1.264h.185zm-23.434-7.523L164.066 54h-2.084l6.456-14.008h-8.464V38.36h10.57v1.118zm11.741 2.964c0 .781-.206 1.476-.618 2.084a4.203 4.203 0 0 1-1.67 1.43c.816.35 1.463.862 1.939 1.535.476.673.714 1.436.714 2.288 0 1.354-.456 2.432-1.37 3.234-.912.802-2.114 1.203-3.603 1.203-1.504 0-2.71-.403-3.615-1.209-.906-.805-1.359-1.881-1.359-3.228 0-.845.231-1.607.693-2.288.462-.68 1.101-1.196 1.917-1.547a4.099 4.099 0 0 1-1.643-1.428 3.688 3.688 0 0 1-.602-2.074c0-1.317.423-2.363 1.268-3.136.845-.774 1.959-1.16 3.34-1.16 1.376 0 2.488.386 3.336 1.16.849.773 1.273 1.819 1.273 3.136zm-1.622 7.294c0-.873-.277-1.586-.832-2.137-.555-.552-1.28-.827-2.176-.827-.895 0-1.613.272-2.154.816-.54.544-.81 1.26-.81 2.148 0 .888.263 1.587.789 2.095.526.509 1.259.763 2.197.763.93 0 1.661-.256 2.191-.768.53-.512.795-1.209.795-2.09zm-2.986-9.958c-.78 0-1.413.242-1.896.725-.484.484-.725 1.14-.725 1.972 0 .795.238 1.437.714 1.928.476.49 1.112.736 1.907.736.795 0 1.43-.246 1.906-.736.477-.49.715-1.133.715-1.928 0-.795-.247-1.443-.741-1.945-.495-.501-1.121-.752-1.88-.752z" fill="#FFF"/><path stroke="#FFF" stroke-linecap="square" d="M8.5 27.5h38m122 0h38"/></g></svg>