<svg width="40" height="33" viewBox="0 0 40 33" xmlns="http://www.w3.org/2000/svg"><title>Education_Icon</title><defs><path id="a" d="M0 0h40v40H0z"/></defs><path d="M33.83 32c0 .552-.427 1-.954 1H5.033c-1.798 0-3.26-1.533-3.26-3.416v-3.75c0-1.884 1.462-3.417 3.26-3.417h27.843c.527 0 .954.448.954 1s-.427 1-.954 1h-.578V31h.578c.527 0 .954.448.954 1zm4.086-11.879c0 .552-.427 1-.954 1H13.06c-1.671 0-3.031-1.425-3.031-3.177v-2.669c0-1.751 1.36-3.176 3.031-3.176h23.902c.527 0 .954.447.954 1 0 .552-.427 1-.954 1h-.481v5.022h.48c.528 0 .955.448.955 1zm-24.856-1h21.513v-5.023H13.06c-.619 0-1.123.528-1.123 1.177v2.669c0 .65.504 1.177 1.123 1.177zM39.046 0H.954C.427 0 0 .448 0 1s.427 1 .954 1h.82v8.55a1.782 1.782 0 0 0-.725 1.445c0 .97.753 1.759 1.678 1.759.925 0 1.678-.79 1.678-1.759 0-.598-.287-1.127-.724-1.445V2h4.491v7.883c0 .552.427 1 .954 1h21.748c.527 0 .954-.448.954-1V2h7.218c.527 0 .954-.448.954-1s-.427-1-.954-1z" fill-rule="nonzero" fill="#2A3052"/></svg>