<svg width="40" height="34" viewBox="0 0 40 34" xmlns="http://www.w3.org/2000/svg"><title>Experience_Icon</title><defs><path id="a" d="M0 0h40v40H0z"/></defs><g fill-rule="nonzero" fill="#2A3052"><path d="M27.004 33.086a1.097 1.097 0 0 1 .967 0l1.575.773a.515.515 0 0 0 .746-.453v-7.244c-.868.341-1.814.53-2.804.53-.99 0-1.936-.189-2.804-.53v7.244c0 .377.403.622.746.453l1.574-.773zM27.488 13.925c-2.988 0-5.418 2.387-5.418 5.322 0 2.934 2.43 5.322 5.418 5.322 2.987 0 5.417-2.388 5.417-5.322 0-2.935-2.43-5.322-5.417-5.322z"/><path d="M38.649.087H1.35A1.34 1.34 0 0 0 0 1.414v27.478a1.34 1.34 0 0 0 1.351 1.327h21.17v-5.354c-1.599-1.367-2.613-3.378-2.613-5.618 0-4.106 3.4-7.446 7.58-7.446s7.58 3.34 7.58 7.446c0 2.24-1.015 4.251-2.614 5.618v5.354h6.195A1.34 1.34 0 0 0 40 28.892V1.414A1.34 1.34 0 0 0 38.649.087zM13.007 23.084H6.013a1.072 1.072 0 0 1-1.08-1.062c0-.586.483-1.061 1.08-1.061h6.994c.597 0 1.08.475 1.08 1.061 0 .587-.483 1.062-1.08 1.062zm2.33-6.869H6.014a1.072 1.072 0 0 1-1.08-1.062c0-.586.483-1.062 1.08-1.062h9.325c.597 0 1.08.476 1.08 1.062 0 .586-.483 1.062-1.08 1.062zm6.994-6.87H6.013a1.072 1.072 0 0 1-1.08-1.061c0-.587.483-1.062 1.08-1.062h16.318c.597 0 1.081.475 1.081 1.062 0 .586-.484 1.062-1.081 1.062z"/></g></svg>