<svg width="374" height="128" viewBox="0 0 374 128" xmlns="http://www.w3.org/2000/svg"><title>Front-End</title><g fill="none" fill-rule="evenodd"><g><ellipse fill="#000" opacity=".1" cx="32" cy="96.5" rx="32" ry="2.5"/><path d="M6.048 0h4.044v4.008h3.728V0h4.044v12.129H13.82V8.086h-3.693v4.043H6.048m17.16-8.086H19.64V0h11.2v4.043h-3.587v8.086h-4.044M32.615 0h4.238l2.602 4.271L42.057 0h4.238v12.129H42.25V6.117l-2.831 4.36-2.831-4.36v6.012h-3.974M48.3 0h4.044v8.121h5.732v4.008h-9.776" fill="#000" fill-rule="nonzero"/><path fill="#E44D26" fill-rule="nonzero" d="M5.908 82.793L.105 17.683h63.79l-5.803 65.075L31.947 90"/><path fill="#F16529" fill-rule="nonzero" d="M32 84.463V23.027h26.075l-4.976 55.547"/><path d="M11.956 30.99H32v7.98H20.712l.739 8.175H32v7.962H14.136m.352 4.008h8.017l.563 6.381L32 67.886v8.333l-16.387-4.57" fill="#EBEBEB" fill-rule="nonzero"/><path d="M51.974 30.99h-20.01v7.98h19.271m-.72 8.175h-18.55v7.98h9.846l-.932 10.371-8.914 2.39v8.298l16.351-4.536" fill="#FFF" fill-rule="nonzero"/></g><g transform="translate(96 55)"><ellipse fill="#000" opacity=".104" cx="33" cy="70.5" rx="32" ry="2.5"/><path fill="#F5DE1B" d="M0 64h64V0H0z"/><path d="M38.07 52.728l4.884-2.868c1.287 2.129 2.962 3.697 5.919 3.697 2.486 0 4.07-1.262 4.07-3.003 0-2.087-1.628-2.826-4.373-4.045l-1.499-.653c-4.332-1.87-7.203-4.22-7.203-9.177 0-4.568 3.43-8.047 8.79-8.047 3.815 0 6.557 1.35 8.532 4.871l-4.673 3.047c-1.031-1.872-2.143-2.609-3.859-2.609-1.757 0-2.871 1.13-2.871 2.61 0 1.824 1.114 2.563 3.685 3.693l1.5.656c5.101 2.218 7.975 4.479 7.975 9.565 0 5.483-4.243 8.482-9.945 8.482-5.575 0-9.175-2.695-10.935-6.219m-21.222.653l4.887-3c.94 1.697 1.802 3.131 3.859 3.131 1.972 0 3.215-.784 3.215-3.828V28.98h6.001v20.79c0 6.306-3.644 9.177-8.957 9.177-4.803 0-7.591-2.522-9.008-5.566" fill="#020303"/></g><g transform="translate(193 7)"><path d="M73.023 36.727c-2.966.016-5.534.733-7.688 1.8-.795-1.584-1.59-2.967-1.723-4-.15-1.2-.332-1.934-.15-3.367.183-1.433 1.011-3.467 1.011-3.633-.016-.15-.182-.884-1.889-.9-1.706-.017-3.18.333-3.347.783-.165.45-.497 1.483-.712 2.55-.298 1.567-3.413 7.117-5.186 10.033-.58-1.133-1.077-2.133-1.177-2.933-.149-1.2-.33-1.933-.149-3.367.183-1.433 1.011-3.466 1.011-3.633-.017-.15-.182-.883-1.889-.9-1.706-.017-3.181.333-3.347.783-.166.45-.348 1.517-.712 2.55-.348 1.034-4.49 10.3-5.568 12.717a51.724 51.724 0 0 1-1.375 2.883c-.348.667-.016.05-.05.117l-.463.883v.017c-.232.417-.481.817-.597.817-.083 0-.248-1.117.033-2.65.613-3.217 2.104-8.234 2.088-8.417 0-.083.282-.967-.961-1.417-1.21-.45-1.64.3-1.74.3-.1 0-.182.267-.182.267s1.342-5.65-2.568-5.65c-2.453 0-5.833 2.683-7.506 5.133-1.06.584-3.314 1.817-5.7 3.134-.911.5-1.856 1.033-2.75 1.516l-.183-.2C14.815 36.86 6.05 33.26 6.414 26.427c.133-2.484.995-9.034 16.835-16.967 12.974-6.5 23.363-4.717 25.169-.75 2.568 5.667-5.55 16.2-19.038 17.717-5.137.583-7.837-1.417-8.517-2.167-.712-.783-.812-.817-1.077-.667-.43.234-.165.934 0 1.35.398 1.05 2.055 2.917 4.872 3.85 2.468.817 8.5 1.267 15.79-1.566 8.169-3.184 14.548-12.017 12.675-19.4C51.218.31 38.824-2.157 27.11 2.027c-6.976 2.5-14.531 6.4-19.966 11.516C.682 19.61-.346 24.91.085 27.11c1.508 7.85 12.262 12.967 16.57 16.75-.216.117-.415.233-.597.333-2.154 1.067-10.356 5.384-12.41 9.95-2.32 5.167.364 8.884 2.154 9.384 5.534 1.55 11.2-1.234 14.266-5.817 3.049-4.583 2.684-10.533 1.276-13.25l-.05-.1 1.69-1c1.094-.65 2.17-1.25 3.115-1.767-.53 1.45-.911 3.167-1.11 5.667-.232 2.933.961 6.733 2.535 8.233.696.65 1.524.667 2.038.667 1.823 0 2.651-1.517 3.562-3.333 1.127-2.217 2.121-4.784 2.121-4.784s-1.242 6.95 2.154 6.95c1.243 0 2.486-1.616 3.049-2.45v.017s.033-.05.1-.167c.132-.2.198-.316.198-.316v-.034c.497-.866 1.607-2.85 3.264-6.133 2.138-4.233 4.192-9.533 4.192-9.533s.2 1.3.812 3.433c.365 1.267 1.16 2.65 1.773 4-.497.7-.795 1.1-.795 1.1l.016.017c-.397.533-.845 1.1-1.309 1.666-1.69 2.034-3.711 4.35-3.976 5.017-.315.783-.249 1.367.364 1.833.448.334 1.243.4 2.088.334 1.524-.1 2.585-.484 3.115-.717.829-.3 1.773-.75 2.684-1.417 1.657-1.233 2.668-2.983 2.569-5.316-.05-1.284-.464-2.55-.978-3.75.15-.217.298-.434.447-.667 2.618-3.85 4.64-8.083 4.64-8.083s.199 1.3.812 3.433c.314 1.083.944 2.267 1.507 3.433-2.452 2.017-3.993 4.35-4.523 5.884-.978 2.833-.215 4.116 1.226 4.416.646.134 1.574-.166 2.27-.466a10.256 10.256 0 0 0 2.867-1.484c1.657-1.233 3.247-2.95 3.164-5.266-.05-1.067-.331-2.117-.712-3.117 2.088-.867 4.788-1.367 8.218-.95 7.373.867 8.832 5.5 8.55 7.433-.282 1.934-1.823 3-2.336 3.334-.514.316-.68.433-.63.666.066.35.298.334.746.267.613-.1 3.877-1.583 4.01-5.15.198-4.583-4.126-9.583-11.798-9.533zM16.158 56.01c-2.436 2.683-5.866 3.7-7.324 2.833-1.574-.916-.961-4.866 2.038-7.716 1.823-1.734 4.192-3.334 5.75-4.317.347-.217.878-.533 1.507-.917.1-.066.166-.1.166-.1.116-.066.249-.15.381-.233 1.11 4.067.05 7.633-2.518 10.45zm17.811-12.183c-.845 2.083-2.634 7.433-3.711 7.133-.928-.25-1.491-4.3-.182-8.3.662-2.017 2.07-4.417 2.9-5.35 1.341-1.5 2.8-2 3.164-1.383.43.8-1.64 6.6-2.17 7.9zm14.697 7.066c-.364.184-.696.317-.845.217-.116-.067.15-.317.15-.317s1.839-1.983 2.568-2.9c.414-.533.911-1.15 1.441-1.85v.2c0 2.4-2.286 4-3.314 4.65zM60 48.293c-.265-.2-.232-.816.662-2.75.348-.766 1.144-2.05 2.519-3.266.166.5.265.983.248 1.433-.016 3-2.137 4.117-3.43 4.583z" fill="#CF649A" fill-rule="nonzero"/><ellipse fill="#000" opacity=".104" cx="42" cy="71.5" rx="41" ry="2.5"/></g><g transform="translate(310 51)"><ellipse fill="#000" opacity=".104" cx="32" cy="74.5" rx="32" ry="2.5"/><path fill="#FFF" fill-rule="nonzero" d="M32 0l32 17.992v35.992L32 71.975 0 53.984V17.992z"/><path d="M58.286 52.742L33.058 66.93V55.882l15.72-8.597 9.508 5.457zm1.728-1.553V21.526l-9.227 5.301v19.069l9.227 5.293zm-54.4 1.553L30.842 66.93V55.882l-15.727-8.597-9.5 5.457zM3.886 51.19V21.526l9.228 5.301v19.069l-9.228 5.293zM4.97 19.603L30.842 5.055v10.677l-16.578 9.065-.133.074-9.161-5.268zm53.961 0L33.058 5.055v10.677l16.58 9.057.132.074 9.161-5.26z" fill="#8ED6FB" fill-rule="nonzero"/><path d="M30.842 53.367L15.33 44.885V28.093l15.512 8.902v16.372zm2.216 0l15.513-8.474v-16.8l-15.513 8.902v16.372zM16.38 26.153l15.57-8.506 15.57 8.506-15.57 8.935-15.57-8.935z" fill="#1C78C0" fill-rule="nonzero"/></g></g></svg>