<svg width="63" height="72" viewBox="0 0 63 72" xmlns="http://www.w3.org/2000/svg"><title>Program5_Icon</title><defs><path id="a" d="M0 0h72v72H0z"/></defs><path d="M21.242 9.982C21.242 4.47 25.684 0 31.163 0c5.478 0 9.92 4.47 9.92 9.982 0 5.513-4.442 9.982-9.92 9.982-5.48 0-9.921-4.47-9.921-9.982zM35.93 26.765c.1-2.173.843-4.185 2.04-5.849-.84-.177-1.707-.27-2.597-.27h-8.418c-.888 0-1.755.092-2.59.268a10.874 10.874 0 0 1 2.048 6.296 10.712 10.712 0 0 1 5.208-1.345c1.531 0 2.988.321 4.31.9zm1.68.896a11.403 11.403 0 0 1 5.27 8.465c1.176.553 2.48.87 3.863.87 5.048 0 9.14-4.117 9.14-9.196 0-5.08-4.092-9.197-9.14-9.197-5 0-9.057 4.044-9.133 9.058zm-5.989 18.831c5.049 0 9.14-4.118 9.14-9.198 0-5.078-4.092-9.196-9.14-9.196-5.047 0-9.142 4.118-9.142 9.196 0 5.08 4.095 9.198 9.142 9.198zm3.878.627h-7.756c-6.454 0-11.704 5.283-11.704 11.775v9.545l.024.149.654.206c6.158 1.936 11.509 2.582 15.912 2.582 8.602 0 13.587-2.467 13.895-2.625l.61-.311h.065v-9.546c.003-6.492-5.247-11.775-11.7-11.775zm15.123-9.494h-7.696a11.368 11.368 0 0 1-3.477 7.895 13.98 13.98 0 0 1 9.933 13.39v2.941c7.599-.28 11.978-2.448 12.266-2.593l.61-.311h.066V49.4c0-6.493-5.25-11.775-11.702-11.775zm-35.038-.629a9.038 9.038 0 0 0 4.86-1.419 11.396 11.396 0 0 1 4.253-7.26c.01-.171.025-.342.025-.516 0-5.08-4.092-9.197-9.138-9.197-5.05 0-9.14 4.117-9.14 9.197-.002 5.079 4.09 9.195 9.14 9.195zm8.207 8.524a11.374 11.374 0 0 1-3.474-7.85c-.285-.022-.568-.045-.859-.045h-7.755C5.25 37.625 0 42.907 0 49.4v9.545l.024.147.653.207c4.94 1.553 9.35 2.267 13.18 2.493V58.91a13.983 13.983 0 0 1 9.934-13.39z" fill-rule="nonzero" fill="#2A3052"/></svg>