<svg width="62" height="72" viewBox="0 0 62 72" xmlns="http://www.w3.org/2000/svg"><title>Program3_Icon</title><defs><path id="a" d="M0 0h72v72H0z"/></defs><g fill-rule="nonzero" fill="#2A3052"><ellipse cx="57.869" cy="67.159" rx="4.077" ry="4.096"/><ellipse cx="57.869" cy="34.386" rx="4.077" ry="4.096"/><ellipse cx="57.869" cy="5.71" rx="4.077" ry="4.096"/><path d="M41.562 3.6c-1.16 0-2.1.945-2.1 2.11v26.566h-1.976c-1.16 0-2.1.945-2.1 2.11 0 1.166.94 2.11 2.1 2.11h1.976V67.16c0 1.165.94 2.11 2.1 2.11h9.071a7.58 7.58 0 0 1 0-4.22h-6.97V36.495h6.97a7.58 7.58 0 0 1 0-4.22h-6.97V7.82h6.97a7.58 7.58 0 0 1 0-4.221h-9.07zM14.307 16.805c4.61 0 8.362-3.77 8.362-8.403C22.669 3.77 18.917 0 14.307 0S5.945 3.77 5.945 8.402c0 4.634 3.751 8.403 8.362 8.403zM23.49 20.877l-.013-.005-2.387-.736a.74.74 0 0 0-.913.457L15.158 34.43c-.29.798-1.413.798-1.702 0L8.438 20.593a.741.741 0 0 0-.913-.457l-2.385.735a7.441 7.441 0 0 0-5.085 7.072v14.636c0 .145.042.287.121.409l5.237 8.007v20.26c0 .411.331.745.74.745H22.46c.41 0 .741-.334.741-.745v-20.26l5.236-8.007a.747.747 0 0 0 .122-.409V27.904a7.391 7.391 0 0 0-5.068-7.027z"/><path d="M16.1 19.75a1.008 1.008 0 0 0-.747-.311H13.26c-.28 0-.558.104-.747.312a.979.979 0 0 0-.128 1.148l1.118 1.694-.524 4.437 1.031 2.755c.1.277.49.277.591 0l1.03-2.755-.523-4.437 1.118-1.694a.978.978 0 0 0-.127-1.148z"/></g></svg>