<svg id="Layer_1" data-name="Layer 1" xmlns="http://www.w3.org/2000/svg" viewBox="0 0 140 140"><defs><style>.cls-1{fill:#f3f2f2}.cls-2{fill:#c2c2c2}.cls-3{fill:#2a3052}</style></defs><title>contact_icon</title><path class="cls-1" d="M1 1h138v138H1z"/><path class="cls-2" d="M138 2v136H2V2h136m2-2H0v140h140V0z"/><path class="cls-3" d="M75.75 87.94l-.75.36c-3.49 1.52-7.53-3-12.19-13.44-4.81-10.93-5.43-17.11-2.03-18.64l.81-.36A24.16 24.16 0 0 0 60 43.77a21.75 21.75 0 0 0-3.85-5.65 37.1 37.1 0 0 0-9 8.6 77.43 77.43 0 0 0 2.42 15.5A104.55 104.55 0 0 0 55 77.82a100.75 100.75 0 0 0 8 14.78 83.14 83.14 0 0 0 9.77 12.19 32.55 32.55 0 0 0 12.39-.79 30.15 30.15 0 0 0-2.06-6.45 26.75 26.75 0 0 0-7.35-9.61z"/><path class="cls-3" d="M63.65 55l1.25-.54c2.78-1.25 4.39-2.87 4.93-5.11s0-5.11-1.61-8.69C67.06 38 65.89 36.51 64.64 36s-3-.36-5.38.72l-1.52.72a20.13 20.13 0 0 1 4 5.82A24.42 24.42 0 0 1 63.65 55zM79.15 86.6l-1.61.72a24.38 24.38 0 0 1 7.35 9.59 25 25 0 0 1 2 6.54l1.7-.81c2.06-.9 3.32-2.06 3.76-3.32s0-3.14-1.08-5.65c-3.16-6.89-7.19-9.22-12.12-7.07z"/><path class="cls-3" d="M70 20a50 50 0 1 0 50 50 50 50 0 0 0-50-50zm0 93.75A43.75 43.75 0 1 1 113.75 70 43.8 43.8 0 0 1 70 113.75z"/></svg>