<svg width="299" height="197" xmlns="http://www.w3.org/2000/svg"><g fill-rule="nonzero" fill="none"><path fill="#F1F1F2" d="M0 0h299v197H0z"/><path d="M1.987 1.98v193.04h295.026V1.98H1.987zM299 0v197H0V0h299z" fill="#C2C2C2"/><path d="M6.007 54.9v-1.192h286V54.9h-286zm0 20.044v-1.192h286v1.192h-286zm0 60.166v-1.193h286v1.193h-286zm0 20.043v-1.192h286v1.192h-286zm0 20.045v-1.192h286v1.192h-286zM39.962 34.26h1.193v158h-1.193v-158zm36.194 0h1.192v158h-1.192v-158zm36.192 0h1.192v158h-1.192v-158zm36.156 0h1.192v158h-1.192v-158zm36.192 0h1.192v158h-1.192v-158zm36.193 0h1.193v158h-1.193v-158zm36.192 0h1.193v158h-1.193v-158zM6.007 115.067v-1.192h286v1.192h-286z" fill="#DEDEDD"/><path fill="#293052" d="M2.607 95.132v-1.219h1.83v1.22zM8.093 95.132v-1.219h3.659v1.22H8.093zm7.317 0v-1.219h3.658v1.22H15.41zm7.317 0v-1.219h3.658v1.22h-3.658zm7.316 0v-1.219h3.659v1.22h-3.659zm7.317 0v-1.219h3.658v1.22H37.36zm7.317 0v-1.219h3.658v1.22h-3.658zm7.316 0v-1.219h3.659v1.22h-3.659zm7.317 0v-1.219h3.658v1.22H59.31zm7.316 0v-1.219h3.659v1.22h-3.659zm7.317 0v-1.219h3.658v1.22h-3.658zm7.317 0v-1.219h3.658v1.22H81.26zm7.316 0v-1.219h3.659v1.22h-3.659zm7.317 0v-1.219h3.658v1.22h-3.658zm7.317 0v-1.219h3.658v1.22h-3.658zm7.316 0v-1.219h3.659v1.22h-3.659zm7.317 0v-1.219h3.658v1.22h-3.658zm7.317 0v-1.219h3.658v1.22h-3.658zm7.316 0v-1.219h3.659v1.22h-3.659zm7.317 0v-1.219h3.658v1.22h-3.658zm7.316 0v-1.219h3.659v1.22h-3.659zm7.317 0v-1.219h3.658v1.22h-3.658zm7.317 0v-1.219h3.658v1.22h-3.658zm7.316 0v-1.219h3.659v1.22h-3.659zm7.317 0v-1.219h3.658v1.22h-3.658zm7.317 0v-1.219h3.658v1.22h-3.658zm7.316 0v-1.219h3.659v1.22h-3.659zm7.317 0v-1.219h3.658v1.22h-3.658zm7.317 0v-1.219h3.658v1.22h-3.658zm7.316 0v-1.219h3.658v1.22h-3.658zm7.317 0v-1.219h3.658v1.22h-3.658zm7.316 0v-1.219h3.659v1.22h-3.659zm7.317 0v-1.219h3.658v1.22h-3.658zm7.317 0v-1.219h3.658v1.22h-3.658zm7.316 0v-1.219h3.659v1.22h-3.659zm7.317 0v-1.219h3.658v1.22h-3.658zm7.317 0v-1.219h3.658v1.22h-3.658zm7.316 0v-1.219h3.659v1.22h-3.659zm7.317 0v-1.219h3.658v1.22h-3.658zm7.316 0v-1.219h3.659v1.22h-3.659zM293.174 95.132v-1.219h1.79v1.22z"/><path fill="#C2C2C2" d="M1 34v-2h296v2z"/><path d="M221.578 93.26a1.81 1.81 0 1 1 2.595 2.525l-31.968 32.869a1.81 1.81 0 0 1-2.149.335l-41.82-22.3-42.486 24.894a1.81 1.81 0 0 1-1.727.056l-29.91-15.004a1.81 1.81 0 0 1-.358-.237L36.758 85.076a1.81 1.81 0 1 1 2.339-2.763l36.833 31.183 28.838 14.467 42.512-24.91a1.81 1.81 0 0 1 1.767-.035l41.512 22.137 31.02-31.894z" fill="#293052"/><path d="M187.232 146.498H151.95l-5.563-8.238-5.334 8.238H105.77a4.716 4.716 0 0 0-3.366 1.413 4.882 4.882 0 0 0-1.397 3.42v25.02a4.882 4.882 0 0 0 1.397 3.42 4.716 4.716 0 0 0 3.366 1.413h81.462a4.725 4.725 0 0 0 3.442-1.374 4.87 4.87 0 0 0 1.434-3.46v-24.98a4.87 4.87 0 0 0-1.42-3.485 4.726 4.726 0 0 0-3.456-1.388z" fill="#E88024"/><ellipse fill="#FFF" opacity=".6" cx="222.875" cy="94.523" rx="8.192" ry="8.547"/><path d="M222.876 104.288c-5.21 0-9.412-4.383-9.412-9.765 0-5.383 4.202-9.766 9.412-9.766 5.21 0 9.411 4.383 9.411 9.766 0 5.382-4.202 9.765-9.411 9.765zm0-2.438c3.84 0 6.973-3.27 6.973-7.327 0-4.059-3.134-7.328-6.973-7.328-3.84 0-6.974 3.27-6.974 7.328s3.134 7.327 6.974 7.327zM245.927 85.513h28.767v19.179h-28.766z" fill="#E88024"/><path d="M259.72 88.722a5.67 5.67 0 0 1 1.257 0 6.6 6.6 0 0 1 1.144.387l-.42 1.779-.99-.27h-.991a2.16 2.16 0 0 0-1.753.85 3.44 3.44 0 0 0-.609 2.32 2.787 2.787 0 0 1 1.029-.658c.451-.166.93-.245 1.41-.231a3.03 3.03 0 0 1 2.514 1.16c.634.856.957 1.908.915 2.977a4.25 4.25 0 0 1-1.144 3.055 3.781 3.781 0 0 1-2.934 1.199 4.01 4.01 0 0 1-3.123-1.315 5.192 5.192 0 0 1-1.182-3.636v-2.396a5.267 5.267 0 0 1 1.371-3.868 4.612 4.612 0 0 1 3.506-1.353zm-.572 6.071a2.709 2.709 0 0 0-1.143.232 1.757 1.757 0 0 0-.723.58v.812a3.917 3.917 0 0 0 .533 2.244c.293.482.812.775 1.371.772a1.369 1.369 0 0 0 1.182-.696 2.998 2.998 0 0 0 .533-1.701c.03-.59-.13-1.174-.457-1.663a1.44 1.44 0 0 0-1.296-.619v.039z" fill="#FFF"/><path fill="#E88024" d="M249.433 95.102l-3.354 3.403-5.22-3.403 5.22-3.364z"/><path d="M119.65 19.506l2.438-7.037h1.23L120.154 21h-.996L116 12.469h1.225l2.425 7.037zm4.084-1.735c0-.62.122-1.18.367-1.675a2.732 2.732 0 0 1 1.02-1.149c.435-.27.932-.404 1.49-.404.864 0 1.562.299 2.095.896.533.598.8 1.393.8 2.385v.076c0 .618-.118 1.171-.355 1.662-.236.49-.574.872-1.013 1.145-.44.273-.945.41-1.515.41-.86 0-1.556-.299-2.089-.896-.533-.598-.8-1.389-.8-2.373v-.077zm1.09.13c0 .703.163 1.267.49 1.693.326.426.762.638 1.309.638.55 0 .988-.215 1.313-.647.324-.432.486-1.036.486-1.814 0-.695-.165-1.258-.495-1.69a1.574 1.574 0 0 0-1.316-.647c-.535 0-.966.212-1.295.638-.328.426-.492 1.035-.492 1.828zm9.106-2.268a3.248 3.248 0 0 0-.534-.041c-.71 0-1.193.303-1.447.908V21h-1.084v-6.34h1.055l.017.733c.356-.567.86-.85 1.512-.85.211 0 .371.027.48.082v1.008zM138.605 21c-.062-.125-.113-.348-.152-.668-.504.523-1.105.785-1.805.785-.625 0-1.137-.177-1.538-.53-.4-.354-.6-.802-.6-1.345 0-.66.25-1.173.753-1.538.502-.365 1.208-.548 2.118-.548h1.055v-.498c0-.379-.114-.68-.34-.905-.227-.225-.56-.337-1.002-.337-.387 0-.711.098-.973.293-.262.195-.392.432-.392.709h-1.09c0-.316.112-.622.337-.917a2.3 2.3 0 0 1 .914-.7 3.075 3.075 0 0 1 1.268-.258c.73 0 1.303.183 1.717.548.414.365.629.868.645 1.509v2.918c0 .582.074 1.044.222 1.388V21h-1.137zm-1.798-.826c.34 0 .662-.088.966-.264.305-.176.526-.404.663-.685v-1.301h-.85c-1.328 0-1.992.388-1.992 1.166 0 .34.113.605.34.797.226.191.517.287.873.287zm8.326.199c-.422.496-1.041.744-1.858.744-.675 0-1.19-.196-1.544-.589-.353-.392-.532-.973-.536-1.743V14.66h1.084v4.096c0 .96.39 1.441 1.172 1.441.828 0 1.38-.308 1.653-.926v-4.61h1.083V21h-1.03l-.024-.627zm6.392-1.055c0-.293-.11-.52-.33-.682-.221-.162-.606-.302-1.155-.42-.549-.116-.984-.257-1.307-.421-.322-.164-.56-.36-.714-.586a1.402 1.402 0 0 1-.232-.809c0-.52.22-.959.66-1.318.439-.36 1-.539 1.684-.539.719 0 1.302.186 1.749.557.447.37.67.845.67 1.423h-1.09c0-.296-.125-.552-.377-.767-.252-.215-.57-.322-.952-.322-.395 0-.703.086-.926.257a.812.812 0 0 0-.334.674c0 .262.104.46.31.592.208.133.582.26 1.123.38.54.122.98.267 1.315.434.336.168.585.37.747.607.162.236.243.524.243.864 0 .567-.226 1.02-.68 1.362-.452.342-1.04.513-1.763.513-.508 0-.957-.09-1.348-.27-.39-.179-.696-.43-.917-.752a1.815 1.815 0 0 1-.33-1.046h1.083c.02.363.165.651.437.864.271.213.63.32 1.075.32.41 0 .74-.084.987-.25.248-.166.372-.387.372-.665zm6.188 0c0-.293-.11-.52-.331-.682-.22-.162-.606-.302-1.154-.42-.55-.116-.985-.257-1.307-.421-.322-.164-.56-.36-.715-.586a1.402 1.402 0 0 1-.231-.809c0-.52.22-.959.659-1.318.44-.36 1-.539 1.684-.539.72 0 1.302.186 1.75.557.447.37.67.845.67 1.423h-1.09c0-.296-.126-.552-.377-.767-.252-.215-.57-.322-.953-.322-.394 0-.703.086-.925.257a.812.812 0 0 0-.334.674c0 .262.103.46.31.592.207.133.581.26 1.122.38.541.122.98.267 1.316.434.336.168.585.37.747.607.162.236.243.524.243.864 0 .567-.227 1.02-.68 1.362-.453.342-1.04.513-1.763.513-.508 0-.958-.09-1.348-.27-.39-.179-.696-.43-.917-.752a1.815 1.815 0 0 1-.331-1.046h1.084c.02.363.165.651.436.864.272.213.63.32 1.076.32.41 0 .739-.084.987-.25.248-.166.372-.387.372-.665zm6.41 1.682c-.062-.125-.113-.348-.152-.668-.504.523-1.106.785-1.805.785-.625 0-1.138-.177-1.538-.53-.4-.354-.6-.802-.6-1.345 0-.66.25-1.173.752-1.538s1.208-.548 2.118-.548h1.055v-.498c0-.379-.113-.68-.34-.905-.226-.225-.56-.337-1.002-.337-.386 0-.71.098-.972.293-.262.195-.393.432-.393.709h-1.09c0-.316.113-.622.337-.917a2.3 2.3 0 0 1 .914-.7 3.075 3.075 0 0 1 1.269-.258c.73 0 1.303.183 1.717.548.414.365.628.868.644 1.509v2.918c0 .582.074 1.044.223 1.388V21h-1.137zm-1.799-.826c.34 0 .662-.088.967-.264.305-.176.525-.404.662-.685v-1.301h-.85c-1.328 0-1.992.388-1.992 1.166 0 .34.114.605.34.797.227.191.518.287.873.287zm4.155-2.397c0-.988.228-1.774.685-2.358.457-.584 1.063-.876 1.816-.876.774 0 1.377.273 1.811.82l.053-.703h.99v6.188c0 .82-.243 1.466-.73 1.94-.486.472-1.14.708-1.96.708a3.26 3.26 0 0 1-1.341-.293c-.438-.195-.772-.463-1.002-.803l.562-.65c.465.574 1.033.861 1.705.861.528 0 .939-.148 1.234-.445.295-.297.442-.715.442-1.254v-.545c-.433.5-1.025.75-1.775.75-.742 0-1.343-.299-1.802-.896-.459-.598-.688-1.412-.688-2.444zm1.09.123c0 .715.146 1.277.439 1.685.293.408.703.612 1.23.612.684 0 1.186-.31 1.506-.931V16.37c-.332-.605-.83-.908-1.494-.908-.527 0-.94.205-1.236.615-.297.41-.446 1.018-.446 1.822zm8.53 3.217c-.859 0-1.558-.282-2.097-.846-.54-.565-.809-1.32-.809-2.265v-.2c0-.628.12-1.19.36-1.684s.577-.88 1.009-1.16c.431-.28.899-.419 1.403-.419.824 0 1.465.271 1.922.814.457.543.685 1.32.685 2.332v.452h-4.295c.016.625.199 1.13.548 1.514.35.385.794.577 1.333.577.383 0 .707-.078.973-.234.265-.156.498-.363.697-.621l.662.516c-.531.816-1.328 1.224-2.39 1.224zm-.134-5.683c-.438 0-.805.159-1.102.477-.297.318-.48.765-.55 1.339h3.175v-.082c-.031-.55-.18-.978-.445-1.28-.266-.303-.625-.454-1.078-.454zm6.568 2.343c0-.972.23-1.755.692-2.346.46-.592 1.064-.888 1.81-.888.742 0 1.33.254 1.764.762V12h1.084v9h-.996l-.053-.68c-.434.532-1.037.797-1.81.797-.735 0-1.334-.3-1.796-.902-.463-.602-.695-1.387-.695-2.356v-.082zm1.084.123c0 .72.149 1.282.446 1.688.296.406.707.61 1.23.61.687 0 1.19-.31 1.506-.927V16.36c-.324-.597-.822-.896-1.494-.896-.532 0-.946.205-1.243.615-.296.41-.445 1.018-.445 1.822zm8.578 3.217c-.86 0-1.558-.282-2.097-.846-.54-.565-.809-1.32-.809-2.265v-.2c0-.628.12-1.19.36-1.684s.577-.88 1.008-1.16c.432-.28.9-.419 1.404-.419.824 0 1.464.271 1.921.814.457.543.686 1.32.686 2.332v.452h-4.295c.016.625.198 1.13.548 1.514.35.385.794.577 1.333.577.383 0 .707-.078.973-.234.265-.156.498-.363.697-.621l.662.516c-.531.816-1.328 1.224-2.39 1.224zm-.134-5.683c-.438 0-.805.159-1.102.477-.297.318-.48.765-.55 1.339h3.175v-.082c-.031-.55-.18-.978-.445-1.28-.266-.303-.625-.454-1.078-.454zm6.925.199a3.248 3.248 0 0 0-.533-.041c-.71 0-1.193.303-1.447.908V21h-1.084v-6.34h1.055l.017.733c.356-.567.86-.85 1.512-.85.21 0 .371.027.48.082v1.008zm5.268 4.447h4.043V21h-5.174v-8.531h1.13v7.611zm7.787 1.037c-.86 0-1.559-.282-2.098-.846-.539-.565-.808-1.32-.808-2.265v-.2c0-.628.12-1.19.36-1.684s.576-.88 1.008-1.16c.432-.28.9-.419 1.403-.419.824 0 1.465.271 1.922.814.457.543.686 1.32.686 2.332v.452h-4.295c.015.625.198 1.13.548 1.514.35.385.794.577 1.333.577.382 0 .707-.078.972-.234.266-.156.498-.363.698-.621l.662.516c-.532.816-1.328 1.224-2.391 1.224zm-.135-5.683c-.437 0-.804.159-1.101.477-.297.318-.48.765-.551 1.339h3.176v-.082c-.032-.55-.18-.978-.446-1.28-.265-.303-.625-.454-1.078-.454zm5.332-2.309v1.535h1.184v.838h-1.184v3.932c0 .254.053.444.158.571.106.127.286.19.54.19.125 0 .296-.023.515-.07V21a3.143 3.143 0 0 1-.832.117c-.484 0-.85-.146-1.096-.44-.246-.292-.369-.708-.369-1.247v-3.932H215v-.838h1.154v-1.535h1.084zm3.469 6.99h3.709V21h-5.033v-.797l3.498-4.646h-3.445v-.897h4.804v.768l-3.533 4.687zm6.398-6.99v1.535h1.184v.838h-1.184v3.932c0 .254.053.444.159.571.105.127.285.19.539.19.125 0 .297-.023.515-.07V21a3.143 3.143 0 0 1-.832.117c-.484 0-.85-.146-1.095-.44-.246-.292-.37-.708-.37-1.247v-3.932h-1.154v-.838h1.154v-1.535h1.084zm5.08 7.992c-.859 0-1.558-.282-2.097-.846-.54-.565-.809-1.32-.809-2.265v-.2c0-.628.12-1.19.36-1.684s.577-.88 1.008-1.16c.432-.28.9-.419 1.404-.419.824 0 1.465.271 1.922.814.457.543.685 1.32.685 2.332v.452h-4.295c.016.625.199 1.13.548 1.514.35.385.794.577 1.333.577.383 0 .707-.078.973-.234.265-.156.498-.363.697-.621l.662.516c-.531.816-1.328 1.224-2.39 1.224zm-.134-5.683c-.438 0-.805.159-1.102.477-.297.318-.48.765-.55 1.339h3.175v-.082c-.031-.55-.18-.978-.445-1.28-.266-.303-.625-.454-1.078-.454zm4.886-.774l.036.797c.484-.61 1.117-.914 1.898-.914 1.34 0 2.016.756 2.027 2.268V21h-1.084v-4.195c-.003-.457-.108-.795-.313-1.014-.205-.219-.524-.328-.958-.328-.352 0-.66.094-.926.281a1.91 1.91 0 0 0-.62.738V21h-1.085v-6.34h1.025zm11.25 2.537c-.964-.277-1.666-.618-2.106-1.022a1.954 1.954 0 0 1-.66-1.497c0-.672.27-1.228.807-1.667.537-.44 1.235-.66 2.094-.66.586 0 1.109.114 1.568.34.459.227.814.54 1.066.938.252.398.378.834.378 1.307h-1.13c0-.516-.165-.921-.493-1.216-.328-.295-.791-.443-1.389-.443-.554 0-.987.122-1.298.367-.31.244-.465.583-.465 1.016 0 .348.147.642.442.882.295.24.797.46 1.506.66.709.198 1.264.418 1.664.658.4.24.697.52.89.841.194.32.29.697.29 1.131 0 .691-.269 1.245-.808 1.661-.54.416-1.26.624-2.162.624a4.01 4.01 0 0 1-1.64-.337c-.509-.224-.9-.532-1.176-.923a2.252 2.252 0 0 1-.413-1.33h1.131c0 .516.19.923.571 1.222.381.299.89.448 1.527.448.594 0 1.049-.12 1.365-.363.317-.242.475-.572.475-.99 0-.418-.147-.741-.44-.97-.293-.228-.824-.454-1.594-.677zm5.907-4.072v1.535h1.183v.838h-1.183v3.932c0 .254.052.444.158.571.105.127.285.19.539.19.125 0 .297-.023.516-.07V21a3.143 3.143 0 0 1-.832.117c-.485 0-.85-.146-1.096-.44-.246-.292-.37-.708-.37-1.247v-3.932h-1.154v-.838h1.155v-1.535h1.084zm5.08 7.992c-.86 0-1.559-.282-2.098-.846-.539-.565-.808-1.32-.808-2.265v-.2c0-.628.12-1.19.36-1.684s.576-.88 1.008-1.16c.431-.28.9-.419 1.403-.419.824 0 1.465.271 1.922.814.457.543.685 1.32.685 2.332v.452h-4.294c.015.625.198 1.13.547 1.514.35.385.794.577 1.333.577.383 0 .707-.078.973-.234.266-.156.498-.363.697-.621l.662.516c-.53.816-1.328 1.224-2.39 1.224zm-.135-5.683c-.437 0-.805.159-1.102.477-.296.318-.48.765-.55 1.339h3.175v-.082c-.03-.55-.18-.978-.445-1.28-.265-.303-.625-.454-1.078-.454zM264.08 21h-1.085v-9h1.084v9zm2.911 0h-1.084v-9h1.084v9zm4.365.117c-.859 0-1.558-.282-2.097-.846-.54-.565-.809-1.32-.809-2.265v-.2c0-.628.12-1.19.36-1.684s.577-.88 1.008-1.16c.432-.28.9-.419 1.404-.419.824 0 1.465.271 1.922.814.457.543.685 1.32.685 2.332v.452h-4.295c.016.625.198 1.13.548 1.514.35.385.794.577 1.333.577.383 0 .707-.078.973-.234.265-.156.498-.363.697-.621l.662.516c-.531.816-1.328 1.224-2.39 1.224zm-.134-5.683c-.438 0-.805.159-1.102.477-.297.318-.48.765-.55 1.339h3.175v-.082c-.031-.55-.18-.978-.445-1.28-.266-.303-.625-.454-1.078-.454z" fill="#2A3052"/><g fill="#000"><path d="M19.24 18.708l2.095-6.95h2.12L20.237 21H18.25l-3.206-9.242h2.114l2.082 6.95zm7.846 2.419c-1.007 0-1.827-.309-2.46-.927-.632-.618-.949-1.44-.949-2.469v-.178c0-.69.134-1.306.4-1.85a2.935 2.935 0 0 1 1.133-1.257c.489-.294 1.047-.441 1.673-.441.94 0 1.679.296 2.218.889.54.592.81 1.432.81 2.52v.749h-4.374c.06.448.238.808.536 1.079.299.27.677.406 1.134.406.706 0 1.258-.256 1.656-.768l.902 1.01c-.275.388-.648.692-1.118.91-.47.218-.99.327-1.561.327zm-.21-5.637c-.363 0-.659.123-.885.368-.226.246-.371.597-.435 1.054h2.552v-.146c-.009-.406-.119-.72-.33-.943-.212-.222-.512-.333-.902-.333zm7.935.362c-.25-.034-.47-.05-.66-.05-.694 0-1.149.234-1.365.704V21h-1.834v-6.868h1.733l.05.819c.369-.63.878-.946 1.53-.946.203 0 .394.027.571.082l-.025 1.765zm4.602 3.25c0-.224-.111-.4-.333-.53-.222-.129-.579-.244-1.07-.346-1.633-.343-2.45-1.037-2.45-2.082 0-.61.253-1.118.759-1.527.505-.408 1.167-.612 1.983-.612.872 0 1.57.205 2.092.616.522.41.784.943.784 1.6h-1.835a.888.888 0 0 0-.254-.651c-.169-.172-.433-.258-.793-.258-.309 0-.548.07-.717.21a.661.661 0 0 0-.254.533c0 .203.096.367.289.492.192.125.517.233.974.324.457.09.842.193 1.155.308.97.355 1.454.97 1.454 1.847 0 .626-.269 1.133-.806 1.52-.538.387-1.232.581-2.082.581-.576 0-1.087-.103-1.533-.308a2.572 2.572 0 0 1-1.05-.844 1.962 1.962 0 0 1-.382-1.159h1.74c.016.326.137.576.361.75.225.173.525.26.902.26.35 0 .616-.067.796-.2a.622.622 0 0 0 .27-.524zm5.82.546c.34 0 .614-.093.826-.28a.979.979 0 0 0 .33-.742h1.72a2.353 2.353 0 0 1-.38 1.279c-.25.387-.592.688-1.026.901-.433.214-.913.321-1.437.321-.982 0-1.757-.312-2.324-.936-.567-.625-.85-1.487-.85-2.587v-.12c0-1.059.281-1.903.844-2.533.563-.63 1.335-.946 2.317-.946.859 0 1.548.244 2.066.733.518.489.782 1.14.79 1.952h-1.72c-.008-.356-.118-.644-.33-.867-.212-.222-.49-.333-.838-.333-.427 0-.75.156-.968.467-.218.31-.327.815-.327 1.514v.19c0 .707.108 1.215.324 1.524.216.308.544.463.984.463zm5.714-4.767c.486-.584 1.098-.876 1.834-.876 1.49 0 2.245.865 2.266 2.596V21h-1.834v-4.348c0-.394-.085-.685-.254-.873-.17-.188-.45-.282-.844-.282-.538 0-.927.207-1.168.622V21h-1.835v-9.75h1.835v3.63zM58.367 21h-1.84v-6.868h1.84V21zm-1.949-8.646c0-.275.092-.501.277-.679.184-.177.434-.266.752-.266.313 0 .563.089.749.266.186.178.28.404.28.68a.9.9 0 0 1-.283.685c-.189.178-.437.267-.746.267-.31 0-.558-.09-.746-.267a.9.9 0 0 1-.283-.686zm6.621 8.773c-1.007 0-1.827-.309-2.46-.927-.632-.618-.949-1.44-.949-2.469v-.178c0-.69.134-1.306.4-1.85a2.935 2.935 0 0 1 1.133-1.257c.49-.294 1.047-.441 1.673-.441.94 0 1.679.296 2.218.889.54.592.81 1.432.81 2.52v.749H61.49c.06.448.238.808.537 1.079.298.27.676.406 1.133.406.706 0 1.259-.256 1.656-.768l.902 1.01c-.275.388-.648.692-1.117.91-.47.218-.99.327-1.562.327zm-.21-5.637c-.363 0-.659.123-.885.368-.226.246-.371.597-.435 1.054h2.552v-.146c-.008-.406-.118-.72-.33-.943-.212-.222-.512-.333-.901-.333zm3.79 2.025c0-1.07.24-1.923.72-2.558.48-.635 1.138-.952 1.972-.952.668 0 1.22.25 1.656.749V11.25h1.841V21h-1.657l-.088-.73c-.458.571-1.046.857-1.765.857-.808 0-1.457-.318-1.946-.955-.488-.637-.733-1.523-.733-2.657zm1.835.133c0 .644.112 1.137.336 1.48.224.342.55.514.978.514.567 0 .967-.24 1.2-.718v-2.71c-.23-.478-.625-.717-1.188-.717-.884 0-1.326.717-1.326 2.151zm8.937 3.479c-1.007 0-1.827-.309-2.46-.927-.632-.618-.949-1.44-.949-2.469v-.178c0-.69.134-1.306.4-1.85a2.935 2.935 0 0 1 1.133-1.257c.49-.294 1.047-.441 1.673-.441.94 0 1.679.296 2.218.889.54.592.81 1.432.81 2.52v.749h-4.374c.06.448.238.808.537 1.079.298.27.676.406 1.133.406.706 0 1.259-.256 1.656-.768l.902 1.01c-.275.388-.648.692-1.117.91-.47.218-.99.327-1.562.327zm-.21-5.637c-.363 0-.658.123-.885.368-.226.246-.371.597-.435 1.054h2.552v-.146c-.008-.406-.118-.72-.33-.943-.212-.222-.512-.333-.901-.333zm5.764-1.358l.057.793c.491-.613 1.15-.92 1.975-.92.727 0 1.27.214 1.625.641.355.427.537 1.066.545 1.917V21h-1.834v-4.393c0-.389-.085-.671-.254-.847-.17-.176-.45-.263-.844-.263-.516 0-.904.22-1.162.66V21H81.22v-6.868h1.726z"/><path d="M19.24 18.708l2.095-6.95h2.12L20.237 21H18.25l-3.206-9.242h2.114l2.082 6.95zm7.846 2.419c-1.007 0-1.827-.309-2.46-.927-.632-.618-.949-1.44-.949-2.469v-.178c0-.69.134-1.306.4-1.85a2.935 2.935 0 0 1 1.133-1.257c.489-.294 1.047-.441 1.673-.441.94 0 1.679.296 2.218.889.54.592.81 1.432.81 2.52v.749h-4.374c.06.448.238.808.536 1.079.299.27.677.406 1.134.406.706 0 1.258-.256 1.656-.768l.902 1.01c-.275.388-.648.692-1.118.91-.47.218-.99.327-1.561.327zm-.21-5.637c-.363 0-.659.123-.885.368-.226.246-.371.597-.435 1.054h2.552v-.146c-.009-.406-.119-.72-.33-.943-.212-.222-.512-.333-.902-.333zm7.935.362c-.25-.034-.47-.05-.66-.05-.694 0-1.149.234-1.365.704V21h-1.834v-6.868h1.733l.05.819c.369-.63.878-.946 1.53-.946.203 0 .394.027.571.082l-.025 1.765zm4.602 3.25c0-.224-.111-.4-.333-.53-.222-.129-.579-.244-1.07-.346-1.633-.343-2.45-1.037-2.45-2.082 0-.61.253-1.118.759-1.527.505-.408 1.167-.612 1.983-.612.872 0 1.57.205 2.092.616.522.41.784.943.784 1.6h-1.835a.888.888 0 0 0-.254-.651c-.169-.172-.433-.258-.793-.258-.309 0-.548.07-.717.21a.661.661 0 0 0-.254.533c0 .203.096.367.289.492.192.125.517.233.974.324.457.09.842.193 1.155.308.97.355 1.454.97 1.454 1.847 0 .626-.269 1.133-.806 1.52-.538.387-1.232.581-2.082.581-.576 0-1.087-.103-1.533-.308a2.572 2.572 0 0 1-1.05-.844 1.962 1.962 0 0 1-.382-1.159h1.74c.016.326.137.576.361.75.225.173.525.26.902.26.35 0 .616-.067.796-.2a.622.622 0 0 0 .27-.524zm5.82.546c.34 0 .614-.093.826-.28a.979.979 0 0 0 .33-.742h1.72a2.353 2.353 0 0 1-.38 1.279c-.25.387-.592.688-1.026.901-.433.214-.913.321-1.437.321-.982 0-1.757-.312-2.324-.936-.567-.625-.85-1.487-.85-2.587v-.12c0-1.059.281-1.903.844-2.533.563-.63 1.335-.946 2.317-.946.859 0 1.548.244 2.066.733.518.489.782 1.14.79 1.952h-1.72c-.008-.356-.118-.644-.33-.867-.212-.222-.49-.333-.838-.333-.427 0-.75.156-.968.467-.218.31-.327.815-.327 1.514v.19c0 .707.108 1.215.324 1.524.216.308.544.463.984.463zm5.714-4.767c.486-.584 1.098-.876 1.834-.876 1.49 0 2.245.865 2.266 2.596V21h-1.834v-4.348c0-.394-.085-.685-.254-.873-.17-.188-.45-.282-.844-.282-.538 0-.927.207-1.168.622V21h-1.835v-9.75h1.835v3.63zM58.367 21h-1.84v-6.868h1.84V21zm-1.949-8.646c0-.275.092-.501.277-.679.184-.177.434-.266.752-.266.313 0 .563.089.749.266.186.178.28.404.28.68a.9.9 0 0 1-.283.685c-.189.178-.437.267-.746.267-.31 0-.558-.09-.746-.267a.9.9 0 0 1-.283-.686zm6.621 8.773c-1.007 0-1.827-.309-2.46-.927-.632-.618-.949-1.44-.949-2.469v-.178c0-.69.134-1.306.4-1.85a2.935 2.935 0 0 1 1.133-1.257c.49-.294 1.047-.441 1.673-.441.94 0 1.679.296 2.218.889.54.592.81 1.432.81 2.52v.749H61.49c.06.448.238.808.537 1.079.298.27.676.406 1.133.406.706 0 1.259-.256 1.656-.768l.902 1.01c-.275.388-.648.692-1.117.91-.47.218-.99.327-1.562.327zm-.21-5.637c-.363 0-.659.123-.885.368-.226.246-.371.597-.435 1.054h2.552v-.146c-.008-.406-.118-.72-.33-.943-.212-.222-.512-.333-.901-.333zm3.79 2.025c0-1.07.24-1.923.72-2.558.48-.635 1.138-.952 1.972-.952.668 0 1.22.25 1.656.749V11.25h1.841V21h-1.657l-.088-.73c-.458.571-1.046.857-1.765.857-.808 0-1.457-.318-1.946-.955-.488-.637-.733-1.523-.733-2.657zm1.835.133c0 .644.112 1.137.336 1.48.224.342.55.514.978.514.567 0 .967-.24 1.2-.718v-2.71c-.23-.478-.625-.717-1.188-.717-.884 0-1.326.717-1.326 2.151zm8.937 3.479c-1.007 0-1.827-.309-2.46-.927-.632-.618-.949-1.44-.949-2.469v-.178c0-.69.134-1.306.4-1.85a2.935 2.935 0 0 1 1.133-1.257c.49-.294 1.047-.441 1.673-.441.94 0 1.679.296 2.218.889.54.592.81 1.432.81 2.52v.749h-4.374c.06.448.238.808.537 1.079.298.27.676.406 1.133.406.706 0 1.259-.256 1.656-.768l.902 1.01c-.275.388-.648.692-1.117.91-.47.218-.99.327-1.562.327zm-.21-5.637c-.363 0-.658.123-.885.368-.226.246-.371.597-.435 1.054h2.552v-.146c-.008-.406-.118-.72-.33-.943-.212-.222-.512-.333-.901-.333zm5.764-1.358l.057.793c.491-.613 1.15-.92 1.975-.92.727 0 1.27.214 1.625.641.355.427.537 1.066.545 1.917V21h-1.834v-4.393c0-.389-.085-.671-.254-.847-.17-.176-.45-.263-.844-.263-.516 0-.904.22-1.162.66V21H81.22v-6.868h1.726z"/></g><path d="M276.61 20.307a.71.71 0 0 1 .227-.547.806.806 0 0 1 .57-.21c.23 0 .422.07.573.21a.71.71 0 0 1 .227.547.7.7 0 0 1-.225.54.816.816 0 0 1-.576.207.809.809 0 0 1-.571-.208.7.7 0 0 1-.225-.54zm0-4a.71.71 0 0 1 .227-.546.806.806 0 0 1 .57-.21c.23 0 .422.07.573.21a.71.71 0 0 1 .227.547.7.7 0 0 1-.225.54.816.816 0 0 1-.576.207.809.809 0 0 1-.571-.208.7.7 0 0 1-.225-.54zM283.734 15.855h.815c.512-.007.914-.142 1.207-.404.293-.262.44-.615.44-1.06 0-1-.499-1.5-1.495-1.5-.469 0-.843.133-1.122.401-.28.268-.419.622-.419 1.063h-1.084c0-.675.247-1.237.741-1.684.495-.447 1.122-.671 1.884-.671.805 0 1.436.213 1.893.639.457.425.685 1.017.685 1.775 0 .371-.12.73-.36 1.078-.24.348-.567.608-.981.78.468.148.83.394 1.086.738.256.344.384.763.384 1.26 0 .765-.25 1.373-.75 1.822-.5.449-1.15.674-1.951.674-.8 0-1.452-.217-1.954-.65-.502-.434-.753-1.007-.753-1.718h1.09c0 .45.146.809.44 1.079.292.27.685.404 1.177.404.523 0 .924-.137 1.201-.41.278-.274.416-.666.416-1.178 0-.496-.152-.877-.457-1.143-.305-.265-.744-.402-1.318-.41h-.815v-.885z" fill="#2A3052"/><path d="M166.005 160.17h1.945l.098 1.417c.796-1.188 1.83-1.717 3.1-1.585.736.076 2.287.317 2.75 2.406.17.766.133 2.06.12 3.818-.004.683-.004 1.865 0 3.547h-2.134v-6.016c0-.707-.198-1.496-.79-1.795-.816-.411-2.35-.239-2.967.797v7.014h-2.122v-9.603zm-10.182 0h1.946l.097 1.417c.797-1.188 1.83-1.717 3.101-1.585.735.076 2.287.317 2.75 2.406.17.766.133 2.06.12 3.818-.005.683-.005 1.865 0 3.547h-2.135v-6.016c0-.707-.197-1.496-.79-1.795-.815-.411-2.35-.239-2.966.797v7.014h-2.123v-9.603zm-8.992.09h2.113l-2.594 9.513h-1.737l-2.1-6.295-1.983 6.295h-1.76l-2.688-9.513h2.21l1.43 6.652 2.054-6.652h1.573l2.027 6.652 1.455-6.652zm-11.989 5.1h-5.853c.13 2.703 1.8 3.356 5.016 1.96l.684 1.315a4.779 4.779 0 0 1-2.044.989c-1.59.346-3.144.081-4.222-.714-2.336-1.723-1.74-5.343-1.225-6.59.24-.583 1.425-2.226 2.833-2.385 1.276-.143 4.434-.447 4.811 3.798.03.864.03 1.406 0 1.627zm-2.069-1.76c.002-1.51-.596-2.266-1.792-2.266-1.795 0-1.976 2.266-1.976 2.266h3.768zm-12.648.939v-1.59h4.81c.053 2.771.053 4.387 0 4.847-.407 1.213-5.209 3.418-8.31.62-.924-.833-1.359-1.757-1.596-3.155-.01-1.428-.037-2.768-.027-4.035.235-1.553.755-2.435 1.174-2.936 1.525-1.822 3.954-2.214 6.09-1.476 2.136.738 2.414 2.273 2.586 3.773-.494 0-.755-.021-2.09 0 .134-.844-.634-2.477-2.638-2.387-2.005.09-2.95 1.737-2.95 3.109 0 1.372-.073.911 0 3.637.09 3.13 3.843 3.97 5.587 2.298l.064-2.665-2.7-.04zm30.564-4.354h2.054v9.588h-2.054v-9.588zm.042-4.185h2.096v1.82h-2.096V156zm27.848 9.75h-2.398v-7.644h2.398v7.644zm0 4.023h-2.398v-2.054h2.398v2.054z" fill="#FFF"/></g></svg>