<svg width="300" height="199" viewBox="0 0 300 199" xmlns="http://www.w3.org/2000/svg"><title>Deutsch end out</title><g fill="none" fill-rule="evenodd"><path fill="#F1F2F2" d="M0 0h300v199H0z"/><path d="M39.125 55.375V74.75H75.25V55.375H39.125zm0-1H75.25V34h1v20.375h36.125V34h1v20.375H149.5V34h1v20.375h36.125V34h1v20.375h36.125V34h1v20.375h36.125V34h1v20.375H299.5v1h-37.625V74.75H299.5v1h-37.625v19.375H299.5v1h-37.625V115.5H299.5v1h-37.625v19.375H299.5v1h-37.625v19.375H299.5v1h-37.625v19.375H299.5v1h-37.625V199h-1v-21.375H224.75V199h-1v-21.375h-36.125V199h-1v-21.375H150.5V199h-1v-21.375h-36.125V199h-1v-21.375H76.25V199h-1v-21.375H39.125V199h-1v-21.375H1.5v-1h36.625V157.25H1.5v-1h36.625v-19.375H1.5v-1h36.625V116.5H1.5v-1h36.625V96.125H1.5v-1h36.625V75.75H1.5v-1h36.625V55.375H1.5v-1h36.625V34h1v20.375zm221.75 1H224.75V74.75h36.125V55.375zm-37.125 0h-36.125V74.75h36.125V55.375zm-37.125 0H150.5V74.75h36.125V55.375zm-37.125 0h-36.125V74.75H149.5V55.375zm-37.125 0H76.25V74.75h36.125V55.375zM39.125 75.75v19.375H75.25V75.75H39.125zm221.75 0H224.75v19.375h36.125V75.75zm-37.125 0h-36.125v19.375h36.125V75.75zm-37.125 0H150.5v19.375h36.125V75.75zm-37.125 0h-36.125v19.375H149.5V75.75zm-37.125 0H76.25v19.375h36.125V75.75zm-73.25 20.375V115.5H75.25V96.125H39.125zm221.75 0H224.75V115.5h36.125V96.125zm-37.125 0h-36.125V115.5h36.125V96.125zm-37.125 0H150.5V115.5h36.125V96.125zm-37.125 0h-36.125V115.5H149.5V96.125zm-37.125 0H76.25V115.5h36.125V96.125zM39.125 116.5v19.375H75.25V116.5H39.125zm221.75 0H224.75v19.375h36.125V116.5zm-37.125 0h-36.125v19.375h36.125V116.5zm-37.125 0H150.5v19.375h36.125V116.5zm-37.125 0h-36.125v19.375H149.5V116.5zm-37.125 0H76.25v19.375h36.125V116.5zm-73.25 20.375v19.375H75.25v-19.375H39.125zm221.75 0H224.75v19.375h36.125v-19.375zm-37.125 0h-36.125v19.375h36.125v-19.375zm-37.125 0H150.5v19.375h36.125v-19.375zm-37.125 0h-36.125v19.375H149.5v-19.375zm-37.125 0H76.25v19.375h36.125v-19.375zm-73.25 20.375v19.375H75.25V157.25H39.125zm221.75 0H224.75v19.375h36.125V157.25zm-37.125 0h-36.125v19.375h36.125V157.25zm-37.125 0H150.5v19.375h36.125V157.25zm-37.125 0h-36.125v19.375H149.5V157.25zm-37.125 0H76.25v19.375h36.125V157.25z" fill="#DFDEDE"/><path stroke="#C2C2C2" stroke-width="2" d="M1 1h298v197H1z"/><path fill="#C2C2C2" d="M0 33h300v2H0z"/><g transform="translate(4 33.941)"><path d="M256.613.725V161M.9 41.412h290.625M.9 122.75h290.625" stroke="#2A3052" stroke-width="1.211" stroke-linejoin="round"/><path stroke="#2A3052" stroke-width="3.633" stroke-linecap="round" stroke-linejoin="round" d="M36 82.063l36.787-21.338 33.6 28.05 39.938-27.038 36.75 31.95 73.538-72.637"/><path d="M28.238 103.513a1.616 1.616 0 0 0-.526-1.2 4.219 4.219 0 0 0-1.875-.788 5.974 5.974 0 0 1-2.55-1.163 2.453 2.453 0 0 1-.9-1.912c-.01-.79.351-1.54.976-2.025a3.728 3.728 0 0 1 2.55-.825 3.761 3.761 0 0 1 2.7.938c.625.548.981 1.342.974 2.175v.037H28.2a1.871 1.871 0 0 0-.6-1.463 2.449 2.449 0 0 0-1.725-.562 2.205 2.205 0 0 0-1.575.488 1.5 1.5 0 0 0-.563 1.237c-.004.453.222.877.6 1.125.597.38 1.258.647 1.95.787a5.456 5.456 0 0 1 2.476 1.2c.55.499.864 1.208.862 1.95.013.8-.365 1.556-1.012 2.025a4.23 4.23 0 0 1-2.663.75 4.657 4.657 0 0 1-2.738-.862 2.617 2.617 0 0 1-1.162-2.25v-.037h1.313c-.036.6.231 1.177.712 1.537a2.846 2.846 0 0 0 1.8.525 2.696 2.696 0 0 0 1.65-.45c.45-.246.726-.724.713-1.237zm4.987-6.938v1.875h1.462v1.05h-1.462v4.688c-.03.27.05.54.225.75.16.156.377.237.6.224.09.004.178-.009.263-.037.088-.02.176-.045.262-.075l.188.975c-.143.09-.293.165-.45.225a3.281 3.281 0 0 1-.6.075 1.838 1.838 0 0 1-1.35-.525 2.246 2.246 0 0 1-.488-1.612V99.5H30.6v-1.05h1.2v-1.875h1.425zm7.837 9.563c-.037-.226-.075-.45-.112-.638a2.475 2.475 0 0 1-.038-.525 3.473 3.473 0 0 1-1.012.938 2.449 2.449 0 0 1-1.35.374 2.205 2.205 0 0 1-2.438-2.325 1.961 1.961 0 0 1 .9-1.725 4.136 4.136 0 0 1 2.4-.637h1.5v-.75a1.5 1.5 0 0 0-.412-1.087 1.624 1.624 0 0 0-1.163-.413 1.639 1.639 0 0 0-1.087.338 1.106 1.106 0 0 0-.413.825h-1.312v-.038a1.8 1.8 0 0 1 .788-1.537 3.338 3.338 0 0 1 2.137-.713 3.139 3.139 0 0 1 2.1.675c.54.484.83 1.188.788 1.912v3.713c-.01.519.053 1.036.187 1.537h-1.462v.076zm-2.287-1.013c.477.01.946-.121 1.35-.375.359-.2.637-.518.788-.9v-1.237h-1.575a2.145 2.145 0 0 0-1.35.412c-.311.227-.493.59-.488.975-.004.302.103.596.3.825.28.21.625.316.975.3zm9.15-5.475l-.712-.038a1.537 1.537 0 0 0-.938.263 1.725 1.725 0 0 0-.6.75v5.513h-1.387v-7.726h1.237l.15 1.125c.191-.366.46-.686.788-.937a1.785 1.785 0 0 1 1.087-.337.825.825 0 0 1 .3.037c.075 0 .188.038.225.038l-.15 1.312zm3.3-3.075v1.875h1.462v1.05h-1.462v4.688c-.03.27.05.54.225.75.16.156.377.237.6.224.09.004.178-.009.263-.037.088-.02.176-.045.262-.075l.188.975c-.143.09-.293.165-.45.225a3.281 3.281 0 0 1-.6.075 1.838 1.838 0 0 1-1.35-.525 2.246 2.246 0 0 1-.488-1.612V99.5h-1.2v-1.05h1.2v-1.875h1.35z" fill="#2A3052" fill-rule="nonzero"/><path d="M184.613 113H149.55l-5.4-8.213-5.4 8.213h-35.063a4.747 4.747 0 0 0-4.724 4.8v24.788a4.77 4.77 0 0 0 4.725 4.8h80.962a4.747 4.747 0 0 0 4.725-4.8V117.8a4.777 4.777 0 0 0-4.762-4.8z" fill="#E88024" fill-rule="nonzero"/><ellipse cx="8.363" cy="9.262" rx="8.137" ry="8.475" opacity=".6" transform="translate(248.25 11)" fill="#FFF" fill-rule="nonzero"/><ellipse stroke="#E88024" stroke-width="2.422" cx="256.613" cy="20.262" rx="8.137" ry="8.475"/><ellipse cx="9" cy="11.063" rx="8.137" ry="8.475" opacity=".6" transform="translate(27 71)" fill="#FFF" fill-rule="nonzero"/><ellipse stroke="#E88024" stroke-width="2.422" cx="36" cy="82.063" rx="8.137" ry="8.475"/></g><path d="M28.474 19.369c0-.376-.13-.677-.392-.905-.261-.228-.72-.443-1.377-.644-1.127-.34-1.981-.74-2.564-1.2-.584-.46-.875-1.088-.875-1.883 0-.8.328-1.454.985-1.961.657-.507 1.495-.76 2.514-.76 1.081 0 1.952.272 2.61.817.66.545.978 1.26.956 2.145l-.013.04H28.42c0-.487-.148-.861-.443-1.123-.295-.261-.708-.392-1.24-.392-.483 0-.856.116-1.12.349-.263.232-.395.53-.395.891 0 .331.143.603.43.815.285.212.779.437 1.48.674 1.073.303 1.89.7 2.454 1.19.563.489.845 1.133.845 1.933 0 .836-.327 1.495-.98 1.978-.652.482-1.514.724-2.587.724-1.05 0-1.951-.262-2.704-.785-.753-.522-1.119-1.302-1.096-2.34l.013-.04h1.897c0 .577.17 1.002.51 1.274.34.273.8.41 1.38.41.523 0 .922-.11 1.197-.33.275-.218.412-.51.412-.877zm6.281 1.186c.34 0 .61-.102.811-.305.201-.203.302-.475.302-.814h1.783l.013.04c.018.733-.254 1.346-.817 1.84s-1.26.74-2.092.74c-1.072 0-1.901-.342-2.487-1.028-.585-.686-.878-1.563-.878-2.631v-.201c0-1.064.292-1.941.875-2.631.583-.69 1.409-1.036 2.477-1.036.885 0 1.597.255 2.138.764.54.51.802 1.18.784 2.011l-.013.04h-1.783c0-.375-.1-.687-.298-.935-.2-.248-.475-.372-.828-.372-.505 0-.864.202-1.076.607-.212.404-.318.921-.318 1.552v.2c0 .644.106 1.165.318 1.563.212.397.575.596 1.09.596zm5.96-4.974c.227-.33.507-.588.837-.774.331-.185.698-.278 1.1-.278.755 0 1.348.251 1.78.754.43.503.646 1.28.646 2.33v4.303h-1.957v-4.317c0-.563-.09-.962-.271-1.197-.181-.234-.453-.351-.815-.351-.3 0-.56.048-.78.144a1.348 1.348 0 0 0-.54.412v5.309h-1.958V11.459h1.958v4.122zm7.896 6.335h-1.957V11.459h1.957v10.457zm3.667 0H50.32v-7.253h1.958v7.253zm0-8.99H50.32V11.46h1.958v1.468zm4.752 9.13c-1.081 0-1.926-.331-2.533-.995-.608-.663-.912-1.518-.912-2.564v-.268c0-1.086.295-1.975.885-2.668.59-.693 1.4-1.037 2.433-1.032.974 0 1.722.298 2.242.895.521.596.781 1.4.781 2.41v1.012h-4.323l-.02.04c.03.496.182.898.452 1.207.27.308.671.462 1.203.462.438 0 .81-.045 1.116-.134.306-.09.623-.226.949-.409l.53 1.207c-.291.237-.684.436-1.18.596a5.232 5.232 0 0 1-1.623.242zm-.127-6.019c-.393 0-.696.135-.908.406-.213.27-.341.629-.386 1.076l.014.033h2.386v-.147c0-.425-.087-.759-.261-1.003-.175-.243-.456-.365-.845-.365zm6.268 5.879H61.22v-7.38c0-1.01.288-1.79.865-2.34.576-.55 1.363-.824 2.36-.824.804 0 1.472.213 2.004.64.531.427.797 1.033.797 1.82 0 .482-.12.942-.358 1.377-.24.436-.359.806-.359 1.11 0 .25.335.691 1.006 1.324.67.632 1.005 1.26 1.005 1.887 0 .844-.257 1.477-.77 1.897-.515.42-1.257.63-2.226.63a5.79 5.79 0 0 1-1.076-.1c-.355-.068-.62-.16-.795-.276l.37-1.495c.173.099.388.185.643.259.254.073.527.11.817.11.34 0 .606-.085.798-.255.192-.17.288-.4.288-.69 0-.317-.335-.776-1.005-1.378-.67-.6-1.006-1.218-1.006-1.853 0-.402.122-.827.366-1.274.243-.447.365-.838.365-1.173 0-.304-.1-.556-.302-.757a.95.95 0 0 0-.69-.302c-.34 0-.616.151-.828.453-.212.301-.318.714-.318 1.236v7.354zm8.915-9.03v1.777h1.227v1.374h-1.227v3.694c0 .281.06.482.178.603.118.12.273.18.466.18.102 0 .192-.005.268-.016.076-.011.163-.03.261-.057l.161 1.415a3.417 3.417 0 0 1-1.18.201c-.675 0-1.194-.186-1.558-.557-.364-.37-.547-.958-.547-1.763v-3.7h-1.059v-1.374h1.06v-1.776h1.95zm11.087 6.925H80.01l-.656 2.105h-2.045l3.291-9.76h2.005l3.278 9.76h-2.045l-.664-2.105zm-2.68-1.535h2.205l-1.08-3.439h-.04l-1.086 3.439zm10.55 2.567a2.462 2.462 0 0 1-.851.899c-.344.21-.744.315-1.2.315-.764 0-1.362-.26-1.793-.778-.431-.518-.647-1.323-.647-2.413v-4.203h1.95v4.216c0 .635.087 1.07.259 1.304.172.235.439.352.8.352.314 0 .582-.05.805-.15.224-.101.407-.25.55-.447v-5.275h1.957v7.253h-1.622l-.208-1.073zm5.41 1.073h-1.95v-7.38c0-1.01.287-1.79.864-2.34.576-.55 1.363-.824 2.36-.824.804 0 1.472.213 2.004.64.531.427.797 1.033.797 1.82 0 .482-.12.942-.358 1.377-.24.436-.359.806-.359 1.11 0 .25.335.691 1.006 1.324.67.632 1.005 1.26 1.005 1.887 0 .844-.257 1.477-.77 1.897-.515.42-1.257.63-2.226.63a5.79 5.79 0 0 1-1.076-.1c-.355-.068-.62-.16-.794-.276l.368-1.495c.174.099.389.185.644.259.254.073.527.11.818.11.34 0 .605-.085.797-.255.192-.17.288-.4.288-.69 0-.317-.335-.776-1.005-1.378-.67-.6-1.006-1.218-1.006-1.853 0-.402.122-.827.366-1.274.243-.447.365-.838.365-1.173 0-.304-.1-.556-.302-.757a.95.95 0 0 0-.69-.302c-.34 0-.616.151-.828.453-.212.301-.318.714-.318 1.236v7.354zm9.713.14c-1.082 0-1.926-.331-2.534-.995-.608-.663-.912-1.518-.912-2.564v-.268c0-1.086.295-1.975.885-2.668.59-.693 1.401-1.037 2.434-1.032.974 0 1.721.298 2.242.895.52.596.78 1.4.78 2.41v1.012h-4.323l-.02.04c.031.496.182.898.452 1.207.27.308.672.462 1.204.462.438 0 .81-.045 1.116-.134.306-.09.622-.226.948-.409l.53 1.207c-.29.237-.684.436-1.18.596a5.232 5.232 0 0 1-1.622.242zm-.127-6.019c-.394 0-.697.135-.909.406-.212.27-.34.629-.385 1.076l.013.033h2.387v-.147c0-.425-.088-.759-.262-1.003-.174-.243-.456-.365-.844-.365zm7.976.308l-.717-.02c-.29 0-.53.06-.717.181-.188.121-.33.29-.429.51v4.9h-1.95v-7.253h1.816l.087 1.072c.17-.38.39-.675.66-.888.27-.212.582-.318.935-.318.099 0 .19.008.272.023.083.016.166.035.251.057l-.208 1.736zm2.93-.764c.228-.33.507-.588.838-.774.33-.185.697-.278 1.1-.278.754 0 1.348.251 1.779.754.431.503.647 1.28.647 2.33v4.303h-1.958v-4.317c0-.563-.09-.962-.271-1.197-.181-.234-.453-.351-.815-.351-.299 0-.56.048-.78.144a1.348 1.348 0 0 0-.54.412v5.309h-1.958V11.459h1.958v4.122zm10.115 6.335a4.117 4.117 0 0 1-.184-.523 3.637 3.637 0 0 1-.11-.563 2.683 2.683 0 0 1-.798.878c-.331.233-.724.349-1.18.349-.76 0-1.345-.196-1.757-.587-.41-.39-.616-.924-.616-1.599 0-.71.273-1.26.82-1.652.548-.391 1.347-.587 2.397-.587h1.1v-.576c0-.349-.092-.619-.275-.811-.183-.192-.456-.288-.818-.288-.317 0-.562.077-.734.23-.172.155-.258.366-.258.634h-1.884l-.013-.04c-.031-.612.236-1.14.801-1.585.565-.445 1.304-.667 2.215-.667.872 0 1.577.219 2.115.657.539.438.808 1.066.808 1.883v2.997c0 .34.026.659.077.958.052.3.133.597.245.892h-1.95zm-1.79-1.307c.34 0 .644-.085.912-.255.268-.17.451-.366.55-.59V18.74h-1.1c-.415 0-.73.102-.941.308a1.013 1.013 0 0 0-.319.757c0 .246.08.442.238.587.159.145.379.218.66.218zm6.945 1.307h-1.957V11.459h1.957v10.457zm8.151-3.425c0 1.081-.241 1.946-.724 2.594-.482.648-1.18.972-2.091.972-.425 0-.794-.09-1.11-.268a2.293 2.293 0 0 1-.8-.785l-.161.912h-1.656V11.459h1.95v3.975c.21-.29.462-.514.755-.67a2.108 2.108 0 0 1 1.009-.235c.92 0 1.622.347 2.104 1.042.483.695.724 1.621.724 2.779v.14zm-1.95-.141c0-.706-.104-1.266-.312-1.68-.208-.413-.562-.62-1.063-.62-.303 0-.56.064-.77.192-.21.127-.376.309-.496.546v3.07c.12.219.287.387.499.503.212.116.473.174.78.174.506 0 .859-.178 1.06-.533.201-.355.302-.859.302-1.511v-.141z" fill="#000"/><path d="M29.457 67.995h-1.144l.558-3.734h-4.106l-.557 3.734h-1.144l1.266-8.455h1.144l-.575 3.82h4.105l.575-3.82h1.144l-1.266 8.455zm2.033-3.2c.143-.964.508-1.738 1.094-2.323.587-.584 1.316-.876 2.187-.876.836 0 1.47.303 1.901.908.432.606.58 1.37.445 2.291l-.024.128c-.147.972-.513 1.747-1.097 2.326-.585.579-1.314.868-2.19.868-.836 0-1.47-.302-1.901-.906-.432-.604-.578-1.367-.439-2.288l.024-.128zm1.12.128c-.104.69-.048 1.245.169 1.667.217.422.604.633 1.161.633.523 0 .963-.22 1.321-.66.358-.439.588-.986.688-1.64l.024-.128c.1-.681.041-1.235-.177-1.66-.22-.426-.605-.64-1.159-.64-.526 0-.969.222-1.327.666-.358.443-.583.988-.676 1.634l-.024.128zm7.387-2.404c.263-.294.563-.522.9-.682a2.49 2.49 0 0 1 1.086-.241c.646 0 1.131.203 1.455.61.323.406.424 1.023.304 1.852l-.592 3.937h-1.144l.592-3.949c.082-.534.03-.921-.156-1.161s-.502-.36-.947-.36c-.329 0-.632.07-.909.209-.276.14-.512.333-.705.58l-.703 4.68h-1.144l1.359-9.058h1.144l-.54 3.583zm7.38 5.598c-.867 0-1.518-.292-1.953-.877-.436-.585-.584-1.34-.445-2.265l.041-.255c.136-.937.504-1.692 1.106-2.265.602-.573 1.285-.86 2.047-.86.81 0 1.392.266 1.748.796.356.53.47 1.222.343 2.073l-.087.604h-4.065c-.09.666-.023 1.192.197 1.577s.622.578 1.202.578c.372 0 .717-.057 1.037-.169.32-.112.595-.263.827-.453l.337.744c-.255.216-.579.4-.97.548-.39.15-.846.224-1.364.224zm.663-5.621c-.384 0-.731.155-1.043.464-.311.31-.535.701-.67 1.173l.011.035h2.828l.012-.093c.07-.468.015-.849-.163-1.14-.178-.293-.503-.44-.975-.44zm6.898 3.81c.035-.26-.03-.467-.197-.622-.166-.155-.511-.293-1.034-.413-.72-.158-1.259-.38-1.617-.667-.358-.287-.502-.67-.433-1.15.074-.534.352-.978.834-1.33.482-.352 1.073-.528 1.774-.528.681 0 1.223.195 1.626.586.402.391.56.84.47 1.347l-.011.035h-1.098a.864.864 0 0 0-.25-.743c-.205-.217-.491-.325-.86-.325-.386 0-.697.092-.931.276-.234.183-.369.4-.404.647-.035.256.023.45.174.58.151.132.492.254 1.022.367.748.162 1.3.392 1.655.69.357.299.502.688.436 1.168-.081.577-.37 1.036-.865 1.379-.496.343-1.111.514-1.847.514-.766 0-1.36-.205-1.78-.616-.42-.41-.581-.882-.485-1.417l.012-.034h1.098c-.035.406.075.703.33.891.256.188.573.282.953.282.39 0 .716-.088.975-.262.26-.174.41-.393.453-.656zm6.452.795h4.297l-.133.894h-5.488l.012-.848 4.738-6.707H60.95l.133-.9h5.192l-.122.819L61.39 67.1zm6.69.894h-1.144l.94-6.283h1.144l-.94 6.283zm1.184-7.892H68.12l.175-1.167h1.144l-.175 1.167zm3.16 8.014c-.868 0-1.52-.292-1.955-.877-.435-.585-.583-1.34-.444-2.265l.04-.255c.136-.937.505-1.692 1.107-2.265.602-.573 1.284-.86 2.047-.86.81 0 1.392.266 1.748.796.356.53.47 1.222.342 2.073l-.087.604h-4.065c-.089.666-.023 1.192.198 1.577.22.385.621.578 1.202.578.372 0 .717-.057 1.036-.169.32-.112.596-.263.828-.453l.337.744c-.256.216-.579.4-.97.548-.391.15-.846.224-1.365.224zm.661-5.621c-.383 0-.73.155-1.042.464-.312.31-.535.701-.67 1.173l.01.035h2.829l.012-.093c.07-.468.015-.849-.163-1.14-.178-.293-.503-.44-.976-.44zm4.216 5.499h-1.144l1.36-9.059h1.143l-1.359 9.059zM24.272 173.39h-1.146l-3.112-6.474-.034.006-.966 6.467h-1.146l1.268-8.468h1.146l3.112 6.467.035-.005.965-6.462h1.146l-1.268 8.468zm3.065 0h-1.146l.942-6.294h1.146l-.942 6.293zm1.186-7.905h-1.145l.174-1.17h1.146l-.175 1.17zm3.164 8.026c-.868 0-1.52-.293-1.957-.878-.436-.585-.584-1.342-.445-2.268l.041-.256c.136-.939.505-1.695 1.108-2.269.603-.573 1.286-.86 2.05-.86.81 0 1.394.265 1.75.797.358.53.472 1.223.344 2.076l-.087.605H30.42c-.09.667-.024 1.193.197 1.579.221.386.623.579 1.204.579a3.11 3.11 0 0 0 1.038-.17c.32-.112.597-.263.83-.453l.337.745c-.256.217-.58.4-.972.55-.391.149-.847.223-1.367.223zm.664-5.63c-.384 0-.732.155-1.044.466a2.65 2.65 0 0 0-.672 1.174l.011.035h2.833l.011-.093c.07-.469.016-.85-.162-1.143-.179-.292-.504-.439-.977-.439zm3.175 2.478c.155-1.05.493-1.877 1.012-2.478.52-.6 1.173-.901 1.96-.901.36 0 .674.071.94.215.265.143.481.35.648.622l.523-3.501h1.146l-1.36 9.073h-.879l-.052-.797c-.252.303-.541.531-.867.687a2.498 2.498 0 0 1-1.088.232c-.74 0-1.293-.28-1.657-.843-.365-.562-.479-1.291-.343-2.187l.017-.122zm1.128.122c-.1.655-.049 1.17.155 1.541.203.373.58.559 1.13.559.33 0 .625-.08.885-.239.26-.159.486-.38.68-.663l.437-2.914a1.419 1.419 0 0 0-.48-.625c-.212-.153-.482-.23-.812-.23-.527 0-.962.23-1.305.69-.343.459-.567 1.045-.672 1.759l-.018.122zm9.219-2.373l-.582-.035c-.298 0-.562.075-.79.224-.23.15-.423.36-.582.631l-.669 4.461h-1.146l.942-6.293h1.024l-.023.89c.225-.318.48-.565.767-.742a1.775 1.775 0 0 1 1.19-.244c.08.014.142.028.189.044l-.32 1.064zm1.64 5.281h-1.146l.943-6.293h1.145l-.942 6.293zm1.187-7.904h-1.146l.174-1.17h1.146l-.174 1.17zm.826 4.874c.155-1.05.492-1.877 1.012-2.478.52-.6 1.17-.901 1.954-.901.391 0 .727.083 1.006.25.28.167.5.407.663.721l.268-.855h.913l-.948 6.328c-.128.838-.455 1.465-.98 1.882-.526.416-1.236.625-2.132.625-.29 0-.609-.043-.954-.128a3.448 3.448 0 0 1-.884-.338l.308-.89c.206.117.459.21.76.283.3.071.601.107.904.107.535 0 .955-.129 1.259-.387.304-.257.495-.642.573-1.154l.105-.715c-.245.263-.521.463-.83.599a2.506 2.506 0 0 1-1.02.203c-.737 0-1.287-.28-1.652-.843-.364-.562-.479-1.291-.343-2.187l.018-.122zm1.128.122c-.1.655-.05 1.17.154 1.541.204.373.579.559 1.125.559.334 0 .63-.08.89-.242.26-.16.489-.386.687-.677l.436-2.88a1.495 1.495 0 0 0-.486-.636c-.211-.157-.484-.236-.817-.236-.523 0-.957.231-1.3.692-.343.462-.567 1.047-.672 1.757l-.017.122zm7.98 3.03c-.869 0-1.521-.293-1.957-.878-.437-.585-.585-1.342-.445-2.268l.04-.256c.136-.939.505-1.695 1.108-2.269.603-.573 1.287-.86 2.05-.86.81 0 1.394.265 1.751.797.357.53.471 1.223.343 2.076l-.087.605h-4.071c-.09.667-.024 1.193.197 1.579.221.386.623.579 1.204.579a3.11 3.11 0 0 0 1.039-.17c.32-.112.596-.263.828-.453l.338.745c-.256.217-.58.4-.972.55-.391.149-.847.223-1.366.223zm.663-5.63c-.384 0-.732.155-1.044.466a2.65 2.65 0 0 0-.672 1.174l.012.035h2.832l.012-.093c.07-.469.015-.85-.163-1.143-.179-.292-.504-.439-.977-.439zm6.91 3.816c.034-.26-.032-.468-.198-.623-.167-.155-.512-.292-1.036-.413-.721-.159-1.26-.382-1.62-.669-.358-.286-.503-.67-.433-1.151.074-.535.352-.98.835-1.332.482-.353 1.075-.53 1.777-.53.682 0 1.225.197 1.628.588.403.392.56.842.471 1.35l-.011.034h-1.1a.865.865 0 0 0-.25-.744c-.205-.217-.492-.326-.86-.326-.388 0-.7.092-.934.276-.235.185-.37.4-.404.649-.035.256.023.45.174.582.151.131.493.254 1.024.366.748.163 1.3.394 1.657.692.357.299.503.688.437 1.17-.082.577-.37 1.037-.867 1.38-.496.344-1.113.515-1.85.515-.767 0-1.361-.205-1.782-.616-.42-.411-.583-.884-.486-1.42l.012-.034h1.1c-.036.407.075.704.33.892.257.189.574.283.954.283.392 0 .718-.088.978-.262.26-.175.41-.394.453-.657zm6.461.796h4.304l-.134.896h-5.496l.012-.85 4.746-6.717h-3.874l.134-.901h5.2l-.123.82-4.769 6.752zm6.7.896h-1.146l.943-6.293h1.145l-.942 6.293zm1.187-7.904h-1.146l.174-1.17h1.146l-.174 1.17zm3.164 8.026c-.869 0-1.521-.293-1.957-.878-.437-.585-.585-1.342-.445-2.268l.04-.256c.136-.939.505-1.695 1.108-2.269.603-.573 1.287-.86 2.05-.86.81 0 1.394.265 1.751.797.357.53.471 1.223.343 2.076l-.087.605h-4.071c-.09.667-.024 1.193.197 1.579.221.386.623.579 1.204.579a3.11 3.11 0 0 0 1.039-.17c.32-.112.596-.263.828-.453l.338.745c-.256.217-.58.4-.972.55-.391.149-.847.223-1.366.223zm.663-5.63c-.384 0-.732.155-1.044.466a2.65 2.65 0 0 0-.672 1.174l.012.035h2.832l.012-.093c.07-.469.015-.85-.163-1.143-.179-.292-.504-.439-.977-.439zm4.222 5.508h-1.146l1.361-9.073h1.146l-1.36 9.073z" fill="#6D6E71"/><g fill="#2A3052"><path d="M270.267 87.075h-4.249v3.402h4.929v.996h-6.186v-9.519h6.118v.997h-4.86v3.093h4.248v1.03zM273.564 84.36l.102 1.065a2.293 2.293 0 0 1 2.04-1.168c.747 0 1.325.206 1.733.687.407.447.611 1.134.611 2.062v4.467h-1.257V87.04c0-.618-.136-1.065-.374-1.34-.238-.275-.612-.378-1.088-.378-.374 0-.68.103-.951.275-.272.172-.51.412-.68.722v5.154h-1.258v-7.079l1.122-.034zM279.32 87.898c0-1.134.237-2.062.713-2.75.476-.687 1.156-1.03 2.005-1.03.408 0 .782.068 1.088.24.306.138.578.378.816.653v-3.883h1.257v10.206h-1.02l-.135-.859c-.21.313-.49.571-.816.756-.361.172-.757.254-1.156.24-.85 0-1.495-.309-1.971-.927-.476-.619-.714-1.443-.714-2.474v-.172h-.068zm1.24.139c0 .721.136 1.306.442 1.718.305.412.713.653 1.325.653.374 0 .68-.103.952-.275.272-.172.476-.412.612-.722v-3.299a1.792 1.792 0 0 0-.646-.687 1.696 1.696 0 0 0-.918-.275c-.612 0-1.053.24-1.325.756s-.442 1.169-.442 1.993v.138zM292.267 88.169h-5.013c.13 1.543.757 2.315 1.882 2.315 1.689 0 1.923-1.447 1.923-1.356l1.109-.005c-.54 1.567-1.551 2.35-3.032 2.35-2.221 0-3-1.589-3.094-3.304-.093-1.716.472-4.019 3.113-4.019 2.165.04 3.202 1.38 3.112 4.019zm-1.257-.913c-.127-1.364-.754-2.045-1.883-2.045s-1.756.681-1.882 2.045h3.765z"/></g><g fill="#FFF"><path d="M168.786 160.863h2.031l.102 1.495c.832-1.254 1.91-1.812 3.237-1.673.768.08 2.388.335 2.87 2.54.178.808.14 2.174.127 4.03-.005.72-.005 1.968 0 3.743h-2.229v-6.35c0-.746-.206-1.579-.825-1.894-.852-.434-2.454-.252-3.097.84v7.404h-2.216v-10.135zM157.964 160.863h2.03l.103 1.495c.831-1.254 1.91-1.812 3.237-1.673.768.08 2.387.335 2.87 2.54.177.808.14 2.174.126 4.03-.005.72-.005 1.968 0 3.743h-2.228v-6.35c0-.746-.207-1.579-.826-1.894-.85-.434-2.453-.252-3.096.84v7.404h-2.216v-10.135zM148.78 160.958h2.206l-2.709 10.04h-1.812l-2.193-6.644-2.07 6.644h-1.837l-2.807-10.04h2.308l1.492 7.02 2.145-7.02h1.642l2.116 7.02zM135.853 166.34h-6.11c.134 2.853 1.88 3.543 5.237 2.07l.713 1.387c-.629.522-1.34.87-2.133 1.044-1.661.365-3.283.086-4.408-.753-2.44-1.82-1.817-5.64-1.28-6.956.252-.615 1.489-2.35 2.958-2.517 1.332-.152 4.63-.472 5.023 4.008.032.912.032 1.484 0 1.717zm-2.16-1.857c.002-1.595-.622-2.392-1.871-2.392-1.873 0-2.063 2.392-2.063 2.392h3.934zM120.638 165.474v-1.678h5.02c.057 2.925.057 4.63 0 5.115-.423 1.28-5.437 3.608-8.674.656-.965-.88-1.419-1.855-1.667-3.331-.011-1.507-.038-2.921-.028-4.259.246-1.64.789-2.57 1.226-3.1 1.592-1.923 4.127-2.337 6.358-1.557 2.23.779 2.52 2.399 2.7 3.982-.516 0-.79-.022-2.184 0 .142-.89-.66-2.614-2.753-2.519-2.092.095-3.08 1.833-3.08 3.281 0 1.448-.075.962 0 3.84.095 3.304 4.013 4.19 5.833 2.426l.067-2.814-2.818-.042zM152.667 160.879h2.144v10.12h-2.144v-10.12zm.043-4.418h2.188v1.92h-2.188v-1.92z"/><path d="M181.773 166.753h-2.503v-8.07h2.503v8.07zm0 4.245h-2.503v-2.168h2.503v2.168z" fill-rule="nonzero"/></g></g></svg>