<svg width="299" height="197" xmlns="http://www.w3.org/2000/svg"><g fill="none" fill-rule="evenodd"><path fill="#F1F1F2" d="M0 0h299v197H0z"/><path d="M1.987 1.98v193.04h295.026V1.98H1.987zM299 0v197H0V0h299z" fill="#C2C2C2" fill-rule="nonzero"/><path d="M4.58 54.993v-1.211h290.408v1.21H4.58zm0 80.353v-1.211h290.408v1.211H4.58zm0 20.079v-1.211h290.408v1.211H4.58zm0 20.079v-1.211h290.408v1.21H4.58zM39.06 34.308h1.21V192.59h-1.21V34.308zm36.75 0h1.21V192.59h-1.21V34.308zm36.75 0h1.211V192.59h-1.21V34.308zm36.713 0h1.211V192.59h-1.211V34.308zm36.75 0h1.212V192.59h-1.212V34.308zm36.75 0h1.212V192.59h-1.211V34.308zm36.751 0h1.212V192.59h-1.212V34.308zM4.58 115.268v-1.212h290.408v1.211H4.58zm0-40.196V73.86h290.408v1.21H4.58z" fill="#DEDEDD" fill-rule="nonzero"/><path d="M4.58 95.188v-1.21h3.595v1.21H4.58zm7.19 0v-1.21h3.596v1.21h-3.595zm7.192 0v-1.21h3.595v1.21h-3.595zm7.191 0v-1.21h3.596v1.21h-3.596zm7.191 0v-1.21h3.596v1.21h-3.596zm7.191 0v-1.21h3.596v1.21h-3.596zm7.191 0v-1.21h3.596v1.21h-3.596zm7.192 0v-1.21h3.595v1.21h-3.595zm7.19 0v-1.21h3.596v1.21H62.11zm7.192 0v-1.21h3.595v1.21H69.3zm7.191 0v-1.21h3.596v1.21H76.49zm7.191 0v-1.21h3.596v1.21h-3.596zm7.191 0v-1.21h3.596v1.21h-3.596zm7.191 0v-1.21h3.596v1.21h-3.596zm7.192 0v-1.21h3.595v1.21h-3.595zm7.19 0v-1.21h3.596v1.21h-3.595zm7.192 0v-1.21h3.595v1.21h-3.595zm7.191 0v-1.21h3.596v1.21h-3.596zm7.191 0v-1.21h3.596v1.21h-3.596zm7.191 0v-1.21h3.596v1.21h-3.596zm7.191 0v-1.21h3.596v1.21h-3.596zm7.192 0v-1.21h3.595v1.21h-3.595zm7.19 0v-1.21h3.596v1.21h-3.595zm7.192 0v-1.21h3.595v1.21h-3.595zm7.191 0v-1.21h3.596v1.21h-3.596zm7.191 0v-1.21h3.596v1.21h-3.596zm7.191 0v-1.21h3.596v1.21h-3.596zm7.191 0v-1.21h3.596v1.21h-3.596zm7.192 0v-1.21h3.595v1.21h-3.595zm7.19 0v-1.21h3.596v1.21h-3.595zm7.192 0v-1.21h3.595v1.21h-3.595zm7.19 0v-1.21h3.597v1.21h-3.596zm7.192 0v-1.21h3.596v1.21h-3.596zm7.191 0v-1.21h3.596v1.21h-3.596zm7.191 0v-1.21h3.596v1.21h-3.596zm7.191 0v-1.21h3.596v1.21h-3.596zm7.192 0v-1.21h3.595v1.21h-3.595zm7.19 0v-1.21h3.596v1.21h-3.595zm7.192 0v-1.21h3.595v1.21h-3.595zm7.191 0v-1.21h3.596v1.21h-3.596zm7.191 0v-1.21h2.763v1.21h-2.763z" fill="#293052" fill-rule="nonzero"/><path fill="#C2C2C2" d="M1 34v-2h296v2z"/><path d="M40.913 115.955a1.798 1.798 0 0 1-2.496-2.587l36.75-35.46a1.798 1.798 0 0 1 2.695.227l35.663 48.38 35.183-26.994a1.798 1.798 0 0 1 2.31.102l35.878 32.923 72.372-39.54a1.798 1.798 0 0 1 1.724 3.155l-73.501 40.157a1.798 1.798 0 0 1-2.078-.253L149.7 103.293l-35.44 27.191a1.798 1.798 0 0 1-2.541-.36L76.186 81.922l-35.273 34.034z" fill="#293052"/><path d="M188.65 145.07h-35.047l-5.526-8.07-5.299 8.07h-35.047a4.733 4.733 0 0 0-4.731 4.735v24.511a4.733 4.733 0 0 0 4.731 4.736h80.92a4.729 4.729 0 0 0 3.418-1.346 4.738 4.738 0 0 0 1.426-3.39v-24.473a4.738 4.738 0 0 0-1.412-3.414 4.729 4.729 0 0 0-3.433-1.36z" fill="#E88024"/><ellipse cx="8.333" cy="8.585" rx="8.137" ry="8.373" opacity=".6" transform="translate(251.797 87.135)" fill="#FFF"/><path d="M260.13 105.303c-5.17 0-9.348-4.298-9.348-9.584 0-5.285 4.177-9.583 9.348-9.583 5.17 0 9.348 4.298 9.348 9.583 0 5.286-4.177 9.584-9.348 9.584zm0-2.422c3.817 0 6.926-3.199 6.926-7.162 0-3.962-3.109-7.16-6.926-7.16s-6.926 3.198-6.926 7.16c0 3.963 3.109 7.162 6.926 7.162z" fill="#E88024" fill-rule="nonzero"/><ellipse cx="8.386" cy="8.585" rx="8.137" ry="8.373" opacity=".6" transform="translate(31.278 106.077)" fill="#FFF"/><path d="M39.665 124.245c-5.171 0-9.349-4.298-9.349-9.583 0-5.286 4.178-9.584 9.349-9.584 5.17 0 9.348 4.298 9.348 9.584 0 5.285-4.177 9.583-9.348 9.583zm0-2.422c3.817 0 6.926-3.199 6.926-7.161 0-3.963-3.109-7.162-6.926-7.162-3.818 0-6.926 3.199-6.926 7.162 0 3.962 3.108 7.161 6.926 7.161z" fill="#E88024" fill-rule="nonzero"/><path fill="#E88024" d="M247.564 65.98h25.094v16.518h-25.094z"/><path fill="#E88024" d="M257.698 82.48l2.382-2.385 2.382 2.384-2.382 2.384z"/><path d="M262.439 76.057h1.4v1.099h-1.4v2.349h-1.287v-2.349h-4.693v-.796l4.693-7.122h1.476v6.82h-.19zm-4.504 0h3.217v-4.811.34l-3.217 4.471z" fill="#FFF" fill-rule="nonzero"/><path fill="#D5D3DA" d="M137.35 79.202h25.094v16.517h-25.093z"/><path fill="#D5D3DA" d="M147.51 95.696l2.383-2.384 2.381 2.384-2.381 2.384z"/><path d="M148.554 86.93h1.21c.476.045.946-.122 1.288-.454.273-.372.407-.828.378-1.288a1.857 1.857 0 0 0-.454-1.326 1.702 1.702 0 0 0-1.287-.455 1.778 1.778 0 0 0-1.287.492 1.706 1.706 0 0 0-.492 1.25h-1.286c-.019-.8.347-1.56.984-2.045a3.782 3.782 0 0 1 4.58 0c.579.563.883 1.352.832 2.16a2.462 2.462 0 0 1-1.552 2.234 2.271 2.271 0 0 1 1.325.948c.253.437.384.934.378 1.44a2.766 2.766 0 0 1-.908 2.197 3.442 3.442 0 0 1-2.347.795 3.518 3.518 0 0 1-2.308-.758 2.425 2.425 0 0 1-1.06-2.197h1.362c-.024.48.154.947.492 1.288.371.339.861.516 1.363.493a1.93 1.93 0 0 0 1.4-.493c.31-.356.472-.816.454-1.288a1.592 1.592 0 0 0-1.854-1.856h-1.211V86.93z" fill="#293052"/><path fill="#D5D3DA" d="M27.1 84.43h25.093v16.517H27.099z"/><path fill="#D5D3DA" d="M37.28 100.966l2.381-2.384 2.382 2.384-2.382 2.384z"/><path fill="#293052" d="M40.384 97.955H39.02v-8.903H36.9v-.985l3.483-.38z"/><path d="M31.947 139.048a1.571 1.571 0 0 0-.535-1.208 4.391 4.391 0 0 0-1.911-.818 6.252 6.252 0 0 1-2.562-1.169 2.432 2.432 0 0 1-.917-1.947 2.588 2.588 0 0 1 .994-2.065 3.775 3.775 0 0 1 2.561-.818 3.778 3.778 0 0 1 2.714.935c.633.554.984 1.371.956 2.22H31.91a1.966 1.966 0 0 0-.612-1.519 2.418 2.418 0 0 0-1.72-.584 2.376 2.376 0 0 0-1.606.467 1.57 1.57 0 0 0-.573 1.247c0 .47.229.908.612 1.169a5.71 5.71 0 0 0 1.95.818c.916.19 1.77.604 2.484 1.207a2.63 2.63 0 0 1 .841 1.987c.017.82-.37 1.595-1.032 2.064a4.3 4.3 0 0 1-2.676.78 4.566 4.566 0 0 1-2.752-.858 2.59 2.59 0 0 1-1.07-2.376h1.337c-.044.61.231 1.2.727 1.558.528.37 1.156.56 1.796.546a2.752 2.752 0 0 0 1.682-.468c.393-.256.636-.693.65-1.168h-.001zm5.008-7.09v1.909h1.453v1.052h-1.453v4.752c-.029.28.054.561.23.779.16.162.383.247.611.234h.421v.974a1.26 1.26 0 0 1-.459.194h-.611a1.777 1.777 0 0 1-1.377-.506 2.328 2.328 0 0 1-.497-1.636v-4.791h-.917v-1.052h1.223v-1.909h1.376zm7.952 9.738v-.623a4.525 4.525 0 0 1 0-.545c-.274.381-.626.7-1.032.935a2.564 2.564 0 0 1-1.338.39 2.493 2.493 0 0 1-1.835-.624 2.322 2.322 0 0 1-.65-1.714c-.024-.7.309-1.363.88-1.753a4.107 4.107 0 0 1 2.408-.623h1.529v-.78a1.456 1.456 0 0 0-.42-1.09 1.586 1.586 0 0 0-1.186-.39 1.66 1.66 0 0 0-1.108.351c-.268.2-.424.52-.42.857H40.28a1.92 1.92 0 0 1 .803-1.558 3.21 3.21 0 0 1 2.141-.701 3.17 3.17 0 0 1 2.103.662c.547.49.843 1.207.803 1.948v3.895a7.184 7.184 0 0 0 0 .818 3.91 3.91 0 0 0 0 .78h-1.224v-.235h.001zm-2.332-1.051a2.45 2.45 0 0 0 1.376-.39c.357-.202.638-.516.803-.896v-1.285H43.15a2.041 2.041 0 0 0-1.377.506c-.31.241-.494.615-.497 1.013-.02.305.092.604.306.818.288.209.646.293.994.234h-.001zm9.252-5.532H51.1a1.584 1.584 0 0 0-.955.273 1.71 1.71 0 0 0-.574.74v5.57h-1.414v-7.79h1.261v1.13c.195-.37.47-.69.803-.935a1.85 1.85 0 0 1 1.109-.351h.535l-.038 1.363zm3.326-3.155v1.909h1.452v1.052h-1.452v4.752c-.03.28.053.561.23.779.16.162.383.247.61.234h.536v.974a1.26 1.26 0 0 1-.459.194h-.611a1.815 1.815 0 0 1-1.377-.506 2.328 2.328 0 0 1-.497-1.636v-4.791h-1.07v-1.052h1.223v-1.909h1.415z" fill="#293052" fill-rule="nonzero"/><path d="M22.275 20.826c-.307.401-.765.75-1.375 1.046-.609.295-1.394.443-2.356.443-1.191 0-2.166-.375-2.924-1.124-.758-.749-1.137-1.722-1.137-2.918v-2.058c0-1.191.367-2.162 1.103-2.914.736-.751 1.681-1.127 2.837-1.127 1.205 0 2.128.285 2.768.856.641.571.95 1.333.928 2.285l-.014.04h-1.861c0-.523-.152-.93-.454-1.221-.302-.291-.742-.437-1.32-.437-.605 0-1.092.234-1.462.7-.37.468-.555 1.07-.555 1.805v2.071c0 .745.19 1.352.568 1.821.38.47.887.705 1.523.705.47 0 .841-.048 1.114-.143.273-.094.484-.214.633-.358v-1.91h-1.895v-1.367h3.879v3.805zm3.608 1.347h-1.977v-10.56h1.977v10.56zm4.8.142c-1.093 0-1.946-.335-2.56-1.005-.613-.67-.92-1.534-.92-2.59v-.27c0-1.097.298-1.995.894-2.695.595-.7 1.414-1.047 2.457-1.042.984 0 1.739.3 2.264.903.526.603.789 1.414.789 2.434v1.022h-4.366l-.02.04c.03.502.183.908.456 1.22.273.31.678.467 1.215.467.443 0 .818-.046 1.128-.136.309-.09.628-.228.957-.413l.535 1.219c-.293.239-.69.44-1.191.602-.53.167-1.083.25-1.638.244zm-.13-6.08c-.396 0-.702.137-.916.41-.215.273-.345.636-.39 1.087l.014.034h2.41v-.15c0-.428-.088-.765-.264-1.011-.176-.246-.46-.37-.853-.37h-.001zm6.283 5.938H34.86v-7.325h1.977v7.325h-.001zm0-9.078H34.86v-1.483h1.977v1.483h-.001zm4.685 7.704c.343 0 .616-.103.819-.308.203-.206.305-.48.305-.823h1.8l.014.04c.018.74-.257 1.36-.826 1.859-.569.499-1.273.748-2.112.748-1.083 0-1.92-.346-2.512-1.04-.591-.692-.887-1.578-.887-2.656v-.203c0-1.075.295-1.96.884-2.658.589-.697 1.423-1.045 2.501-1.045.894 0 1.614.257 2.16.771.546.515.81 1.192.792 2.031l-.014.04h-1.8c0-.378-.1-.693-.302-.944-.2-.25-.48-.375-.836-.375-.51 0-.872.204-1.086.612-.215.409-.322.931-.322 1.568v.203c0 .65.107 1.175.322 1.577.214.402.58.603 1.1.603zm6.018-5.024c.23-.334.512-.594.846-.781a2.23 2.23 0 0 1 1.11-.281c.763 0 1.362.253 1.798.761.435.508.653 1.292.653 2.353v4.346H49.97v-4.36c0-.569-.091-.971-.274-1.208-.183-.237-.457-.356-.822-.356-.303 0-.566.049-.789.146-.214.09-.402.233-.545.416v5.362h-1.977v-10.56h1.977v4.162h-.001z" fill="#020202" fill-rule="nonzero"/><path d="M253.883 116.672h-4.303v3.445h4.991v1.009h-6.264v-9.64h6.195v1.01h-4.922v3.132h4.303v1.044zm3.339-2.75l.103 1.08a2.322 2.322 0 0 1 2.065-1.184c.757 0 1.342.209 1.755.696.413.452.62 1.148.62 2.088v4.524h-1.274v-4.49c0-.626-.137-1.078-.378-1.356-.241-.279-.62-.383-1.102-.383-.378 0-.688.104-.963.278a2 2 0 0 0-.689.731v5.22h-1.273v-7.169l1.136-.035zm5.828 3.583c0-1.148.24-2.088.722-2.784.482-.696 1.17-1.044 2.031-1.044.413 0 .792.07 1.102.244.31.14.585.383.826.661v-3.932h1.273v10.335h-1.032l-.138-.87a2.454 2.454 0 0 1-.826.766 2.523 2.523 0 0 1-1.17.243c-.86 0-1.515-.313-1.997-.94-.482-.626-.723-1.46-.723-2.505v-.174h-.068zm1.256.14c0 .732.138 1.323.447 1.74.31.418.723.662 1.343.662.378 0 .688-.104.963-.278.276-.174.482-.418.62-.731v-3.34a1.815 1.815 0 0 0-.654-.697c-.277-.18-.6-.277-.93-.278-.619 0-1.066.243-1.342.765-.275.522-.447 1.184-.447 2.019v.139-.001zm11.855.135h-5.076c.13 1.563.766 2.344 1.906 2.344 1.71 0 1.947-1.465 1.947-1.373l1.123-.005c-.547 1.586-1.57 2.38-3.07 2.38-2.25 0-3.038-1.61-3.133-3.346-.095-1.738.477-4.07 3.152-4.07 2.192.041 3.243 1.398 3.151 4.07zm-1.273-.925c-.128-1.38-.763-2.071-1.906-2.071-1.143 0-1.779.69-1.907 2.071h3.813z" fill="#2A3052" fill-rule="nonzero"/><path d="M125.409 166.645c-.37.526-.963.995-1.776 1.406-.814.411-1.864.617-3.15.617-1.596 0-2.908-.515-3.938-1.545-1.03-1.03-1.545-2.36-1.545-3.994v-2.82c0-1.633.498-2.964 1.494-3.994.995-1.03 2.276-1.545 3.84-1.545 1.572 0 2.796.396 3.674 1.188.879.792 1.305 1.824 1.28 3.099l-.027.055h-2.143c0-.76-.237-1.373-.71-1.837-.473-.464-1.152-.695-2.036-.695-.934 0-1.687.349-2.26 1.048-.571.699-.858 1.586-.858 2.662v2.84c0 1.088.299 1.983.896 2.685s1.374 1.053 2.333 1.053c.724 0 1.296-.082 1.716-.246.42-.164.74-.363.956-.598v-2.793h-2.83v-1.688h5.084v5.102zm6.782 2.023c-1.466 0-2.612-.462-3.437-1.387-.826-.925-1.239-2.123-1.239-3.595v-.371c0-1.472.413-2.686 1.239-3.641.825-.956 1.89-1.43 3.196-1.425 1.348 0 2.369.416 3.061 1.248.693.832 1.04 1.944 1.04 3.335v1.216h-6.207l-.019.046c.025.823.241 1.49.65 2.004.408.513 1.023.77 1.846.77.612 0 1.143-.074 1.59-.223a4.542 4.542 0 0 0 1.249-.64l.733 1.475c-.384.334-.891.616-1.522.845-.63.228-1.357.343-2.18.343zm-.241-8.61c-.588 0-1.058.212-1.41.636-.353.424-.572.976-.66 1.656l.02.046h3.924v-.176c0-.643-.15-1.164-.45-1.563-.3-.399-.775-.598-1.424-.598v-.001zm14.77 5.437h.055l1.466-7.06h2.254l-2.746 10.038h-1.846l-2.125-6.643h-.055l-2.097 6.643h-1.846l-2.746-10.038h2.254l1.503 6.967h.056l2.096-6.967h1.643l2.133 7.06h.001zm7.755 2.978h-2.254v-10.038h2.254v10.038zm0-12.497h-2.254V154h2.254v1.976zm4.565 2.459l.13 1.447a3.59 3.59 0 0 1 1.238-1.201 3.305 3.305 0 0 1 1.684-.432c1.045 0 1.86.322 2.444.965.585.644.877 1.649.877 3.015v6.244h-2.254v-6.225c0-.78-.152-1.333-.455-1.66-.303-.328-.76-.492-1.373-.492-.482 0-.9.09-1.252.273a2.193 2.193 0 0 0-.845.756v7.348h-2.254v-10.038h2.06zm10.761 0l.13 1.447a3.59 3.59 0 0 1 1.239-1.201 3.305 3.305 0 0 1 1.684-.432c1.045 0 1.86.322 2.444.965.585.644.877 1.649.877 3.015v6.244h-2.255v-6.225c0-.78-.151-1.333-.454-1.66-.303-.328-.76-.492-1.373-.492-.483 0-.9.09-1.253.273a2.193 2.193 0 0 0-.844.756v7.348h-2.254v-10.038h2.06-.001zm11.217 5.483h-2.255v-8.953h2.255v8.953zm0 4.555h-2.255v-2.17h2.255v2.17z" fill="#FFF" fill-rule="nonzero"/></g></svg>