<svg width="299" height="197" xmlns="http://www.w3.org/2000/svg"><g fill="none" fill-rule="evenodd"><path fill="#F1F2F2" d="M0 0h299v197H0z"/><path d="M1.987 1.98v193.04h295.026V1.98H1.987zM299 0v197H0V0h299z" fill="#C2C2C2" fill-rule="nonzero"/><path d="M4.887 56.168v-1.206h289.656v1.206H4.887zm0 40.33v-1.206h289.656v1.205H4.887zm0 40.329v-1.206h289.656v1.206H4.887zm0 40.292v-1.206h289.656v1.206H4.887zm34.38-141.7h1.206v158.864h-1.206V35.419zm36.665 0h1.206v158.864h-1.206V35.419zm36.627 0h1.206v158.864h-1.206V35.419zm36.665 0h1.206v158.864h-1.206V35.419zm36.628 0h1.206v158.864h-1.206V35.419zm36.627 0h1.206v158.864h-1.206V35.419zM4.887 116.643v-1.205h289.656v1.205H4.887z" fill="#DFDEDE" fill-rule="nonzero"/><path d="M4.887 65.161v-1.127h7.469v1.127H4.887zm14.938 0v-1.127h7.468v1.127h-7.468zm14.937 0v-1.127h7.469v1.127h-7.469zm14.938 0v-1.127h7.468v1.127H49.7zm14.937 0v-1.127h7.469v1.127h-7.469zm14.938 0v-1.127h7.468v1.127h-7.468zm14.937 0v-1.127h7.469v1.127h-7.469zm14.938 0v-1.127h7.468v1.127h-7.468zm14.937 0v-1.127h7.469v1.127h-7.469zm14.938 0v-1.127h7.468v1.127h-7.468zm14.937 0v-1.127h7.469v1.127h-7.469zm14.938 0v-1.127h7.468v1.127H169.2zm14.937 0v-1.127h7.469v1.127h-7.469zm14.938 0v-1.127h7.468v1.127h-7.468zm14.937 0v-1.127h7.469v1.127h-7.469zm14.938 0v-1.127h7.468v1.127h-7.468zm14.937 0v-1.127h7.469v1.127h-7.469zm14.938 0v-1.127h7.468v1.127h-7.468zm14.937 0v-1.127h7.469v1.127h-7.469zm14.938 0v-1.127h5.843v1.127H288.7z" fill="#15212D" fill-rule="nonzero"/><path fill="#2A3052" fill-rule="nonzero" d="M240.457 35.42h1.206v158.863h-1.206z"/><path d="M4.887 157.677v-1.128h7.469v1.128H4.887zm14.938 0v-1.128h7.468v1.128h-7.468zm14.937 0v-1.128h7.469v1.128h-7.469zm14.938 0v-1.128h7.468v1.128H49.7zm14.937 0v-1.128h7.469v1.128h-7.469zm14.938 0v-1.128h7.468v1.128h-7.468zm14.937 0v-1.128h7.469v1.128h-7.469zm14.938 0v-1.128h7.468v1.128h-7.468zm14.937 0v-1.128h7.469v1.128h-7.469zm14.938 0v-1.128h7.468v1.128h-7.468zm14.937 0v-1.128h7.469v1.128h-7.469zm14.938 0v-1.128h7.468v1.128H169.2zm14.937 0v-1.128h7.469v1.128h-7.469zm14.938 0v-1.128h7.468v1.128h-7.468zm14.937 0v-1.128h7.469v1.128h-7.469zm14.938 0v-1.128h7.468v1.128h-7.468zm14.937 0v-1.128h7.469v1.128h-7.469zm14.938 0v-1.128h7.468v1.128h-7.468zm14.937 0v-1.128h7.469v1.128h-7.469zm14.938 0v-1.128h5.843v1.128H288.7z" fill="#15212D" fill-rule="nonzero"/><path fill="#C2C2C2" fill-rule="nonzero" d="M2.794 35.436v-2.412h293.842v2.412z"/><path d="M21.918 117.693a1.809 1.809 0 1 1-1.471-3.305l35.745-15.92a1.809 1.809 0 0 1 1.887.257l24.958 20.574 42.309-55.255c.879-1.148 2.683-.852 3.148.517l29.886 87.844 16.384-44.226c.11-.297.296-.56.539-.762l27.355-22.788a1.809 1.809 0 0 1 2.164-.113l36.927 24.744a1.809 1.809 0 0 1-2.014 3.005l-35.802-23.99-25.944 21.613-17.985 48.549c-.592 1.596-2.86 1.566-3.409-.046L126.16 68.93l-41.39 54.056a1.809 1.809 0 0 1-2.587.296L56.64 102.23l-34.723 15.464z" fill="#2A3052" fill-rule="nonzero"/><ellipse cx="8.11" cy="9.374" rx="8.11" ry="8.4" opacity=".6" transform="translate(150.5 147.962)" fill="#FFF"/><path d="M158.61 166.943c-5.155 0-9.316-4.31-9.316-9.607 0-5.296 4.161-9.606 9.316-9.606 5.155 0 9.317 4.31 9.317 9.606s-4.162 9.607-9.317 9.607zm0-2.412c3.804 0 6.905-3.212 6.905-7.195 0-3.982-3.101-7.194-6.905-7.194-3.803 0-6.904 3.212-6.904 7.194 0 3.983 3.1 7.195 6.904 7.195z" fill="#E88024" fill-rule="nonzero"/><ellipse cx="8.979" cy="8.4" rx="8.11" ry="8.4" opacity=".6" transform="translate(117.862 56.755)" fill="#FFF"/><path d="M126.842 74.761c-5.155 0-9.317-4.31-9.317-9.606s4.162-9.606 9.317-9.606 9.316 4.31 9.316 9.606-4.161 9.606-9.316 9.606zm0-2.412c3.803 0 6.904-3.211 6.904-7.194s-3.1-7.194-6.904-7.194-6.905 3.211-6.905 7.194 3.101 7.194 6.905 7.194z" fill="#E88024" fill-rule="nonzero"/><path d="M12.574 128.716c.08-.585-.224-1.013-.912-1.283l-.952-.345-.319-.139c-1.07-.487-1.57-1.172-1.5-2.055.032-.428.191-.837.458-1.174.28-.35.645-.62 1.061-.787a3.412 3.412 0 0 1 1.41-.263c.45.003.895.113 1.294.323.367.195.667.495.862.862.201.382.294.811.267 1.242l-1.04-.004a1.42 1.42 0 0 0-.33-1.14 1.477 1.477 0 0 0-1.098-.412 2.048 2.048 0 0 0-1.256.348c-.33.229-.545.59-.585.99-.073.545.263.958 1.008 1.238l.818.292.412.177a2.066 2.066 0 0 1 1.433 2.122c-.032.425-.192.83-.457 1.162a2.55 2.55 0 0 1-1.073.766c-.464.18-.96.266-1.459.25a3.052 3.052 0 0 1-1.376-.318 2.246 2.246 0 0 1-.949-.866 2.164 2.164 0 0 1-.285-1.249l1.035.008c-.053.416.09.834.387 1.132.34.298.782.453 1.233.431.463.026.923-.094 1.313-.345a1.35 1.35 0 0 0 .6-.96v-.004.001zm4.507-5.322l-.25 1.44h1.08l-.136.788H16.7l-.623 3.694a1.29 1.29 0 0 0-.003.262.42.42 0 0 0 .465.431c.163-.004.326-.023.487-.056l-.079.829c-.237.066-.48.1-.727.101a1.039 1.039 0 0 1-.889-.439 1.687 1.687 0 0 1-.229-1.144l.6-3.678h-1.05l.14-.788h1.05l.254-1.44h.986zm4.631 7.384a1.331 1.331 0 0 1-.037-.315l.015-.311a2.437 2.437 0 0 1-1.736.735 1.777 1.777 0 0 1-1.275-.495 1.504 1.504 0 0 1-.45-1.219 1.83 1.83 0 0 1 .825-1.474 3.518 3.518 0 0 1 2.032-.529l1.04.004.066-.472a1.087 1.087 0 0 0-.206-.844.994.994 0 0 0-.787-.319 1.534 1.534 0 0 0-.9.248 1.065 1.065 0 0 0-.48.69l-1.002.004c.033-.344.177-.668.41-.923.25-.278.564-.493.914-.626.37-.149.765-.222 1.163-.214a1.969 1.969 0 0 1 1.444.563c.352.39.51.917.43 1.436l-.483 2.947-.026.42a2.09 2.09 0 0 0 .067.6l-.01.094h-1.013zm-1.56-.769c.317.01.63-.069.904-.225.29-.165.542-.391.735-.663l.214-1.227-.75-.004a2.85 2.85 0 0 0-1.444.297 1.091 1.091 0 0 0-.562.84.851.851 0 0 0 .191.694.93.93 0 0 0 .713.288zm7.613-4.267l-.465-.049a1.703 1.703 0 0 0-1.504.862l-.73 4.223h-.998l1.03-5.944.96-.004-.15.69a1.78 1.78 0 0 1 1.493-.806c.16.007.32.035.473.083l-.109.945zm2.951-2.348l-.25 1.44h1.08l-.136.788h-1.08l-.622 3.694c-.01.087-.012.175-.004.262a.42.42 0 0 0 .465.431c.162-.005.324-.023.483-.056l-.074.829c-.237.066-.482.1-.728.101a1.039 1.039 0 0 1-.889-.439 1.688 1.688 0 0 1-.232-1.144l.604-3.678h-1.05l.138-.788h1.05l.252-1.44h.993zm91.381-73.526h-1.433v-3.663h-3.839v3.662h-1.433v-8.585h1.433v3.774h3.84v-3.774h1.432v8.586zm1.391-3.25c0-.951.26-1.73.781-2.338.521-.607 1.234-.91 2.138-.91.916 0 1.634.303 2.155.91.521.608.781 1.387.781 2.338v.124c0 .96-.26 1.74-.78 2.344-.522.603-1.236.905-2.144.905-.912 0-1.629-.303-2.15-.908-.52-.605-.78-1.386-.78-2.34v-.125zm1.433.124c0 .625.122 1.132.366 1.521.243.39.62.584 1.132.584.5 0 .873-.195 1.123-.587.25-.39.374-.897.374-1.518v-.124c0-.61-.124-1.111-.374-1.506s-.628-.593-1.135-.593c-.5 0-.872.198-1.117.593-.246.395-.369.897-.369 1.506v.124zm8.273 2.105c.326 0 .602-.102.828-.307.226-.204.34-.463.34-.778h1.297l.011.036c.016.597-.22 1.112-.71 1.544-.49.433-1.078.649-1.766.649-.92 0-1.63-.304-2.129-.911-.5-.607-.749-1.373-.749-2.297v-.206c0-.92.25-1.684.75-2.294.498-.61 1.206-.914 2.122-.914.743 0 1.346.223 1.81.67.464.446.688 1.013.672 1.7l-.01.036h-1.299c0-.35-.108-.647-.324-.89-.216-.244-.5-.366-.85-.366-.51 0-.878.198-1.102.593-.224.395-.336.883-.336 1.465v.206c0 .594.111 1.086.333 1.477.222.392.593.587 1.112.587zm5.094-4.534c.213-.3.471-.531.776-.696.31-.167.659-.252 1.011-.248.676 0 1.204.214 1.583.64.38.427.57 1.084.57 1.972v3.886h-1.434V45.97c0-.5-.097-.862-.29-1.088-.196-.226-.486-.34-.87-.34-.308 0-.573.055-.797.163a1.45 1.45 0 0 0-.549.45v4.712h-1.432v-9.198h1.432v3.644z" fill="#2A3052" fill-rule="nonzero"/><path d="M22.433 21.544h-1.948v-4.036h-3.954v4.035h-1.948v-9.71h1.948v4.174h3.954v-4.174h1.948v9.711zm1.34-3.675c0-1.076.3-1.957.9-2.644.6-.687 1.432-1.03 2.495-1.03 1.067 0 1.903.342 2.508 1.026.604.685.907 1.568.907 2.648v.14c0 1.085-.302 1.969-.904 2.651-.603.683-1.435 1.024-2.498 1.024-1.067 0-1.902-.341-2.504-1.024-.602-.682-.904-1.566-.904-2.65v-.141zm1.941.14c0 .658.116 1.186.347 1.584.231.398.604.597 1.12.597.503 0 .87-.2 1.104-.6.233-.4.35-.927.35-1.58v-.14c0-.641-.118-1.164-.353-1.568-.236-.405-.607-.607-1.114-.607-.503 0-.87.203-1.104.61-.233.407-.35.928-.35 1.564v.14zm9.083 2.181c.338 0 .607-.101.807-.303.2-.203.3-.473.3-.81h1.775l.013.04c.018.728-.254 1.339-.814 1.83-.56.491-1.254.737-2.08.737-1.068 0-1.892-.341-2.475-1.024-.582-.682-.873-1.555-.873-2.617v-.2c0-1.059.29-1.931.87-2.618.58-.687 1.401-1.03 2.464-1.03.88 0 1.59.253 2.128.76s.798 1.173.78 2l-.013.04h-1.774c0-.373-.1-.683-.297-.93-.198-.247-.473-.37-.824-.37-.502 0-.86.201-1.07.604-.212.402-.317.917-.317 1.543v.2c0 .64.105 1.159.317 1.554.21.396.572.594 1.083.594zm5.93-4.949c.226-.329.504-.585.833-.77a2.197 2.197 0 0 1 1.094-.277c.751 0 1.341.25 1.77.75.43.5.644 1.273.644 2.318v4.282h-1.947v-4.296c0-.56-.09-.957-.27-1.19-.18-.234-.45-.35-.81-.35-.299 0-.558.047-.778.143a1.34 1.34 0 0 0-.537.41v5.282H38.78V11.14h1.947v4.101h.001zm9.963 2.902h-3.928v-1.501h3.928v1.501zm8.71-4.809h-2.774v8.21h-1.948v-8.21h-2.733v-1.5h7.456v1.5zm2.968 8.21H60.42v-7.216h1.948v7.216zm0-8.944H60.42v-1.46h1.948v1.46zm4.728 9.084c-1.076 0-1.916-.33-2.52-.99-.605-.66-.908-1.511-.908-2.551v-.267c0-1.08.294-1.965.88-2.655.587-.689 1.394-1.031 2.422-1.027.97 0 1.712.297 2.23.89.518.594.777 1.393.777 2.398v1.007h-4.3l-.02.04c.03.494.18.894.45 1.2.268.308.667.461 1.196.461.436 0 .806-.044 1.11-.133.33-.1.646-.236.944-.407l.527 1.2c-.29.236-.68.434-1.174.594-.493.16-1.03.24-1.614.24zm-.126-5.989c-.392 0-.693.134-.904.403-.21.27-.34.626-.384 1.07l.014.034h2.374v-.147c0-.422-.087-.754-.26-.997-.174-.242-.454-.363-.84-.363zm4.648 5.849v-5.849h-1.074v-1.367h1.074v-.8c0-.81.233-1.433.7-1.871.467-.438 1.123-.657 1.968-.657.164 0 .332.012.503.037.171.024.36.058.564.103l-.167 1.447a9.63 9.63 0 0 0-.31-.047c-.1-.013-.217-.02-.35-.02-.316 0-.555.087-.717.26-.163.174-.244.423-.244.747v.8h1.388v1.368h-1.388v5.849h-1.947z" fill="#020202" fill-rule="nonzero"/><path d="M252.672 117.208h-3.48v2.786h4.037v.817h-5.067v-7.797h5.011v.816h-3.98v2.533h3.48v.845zm2.701-2.224l.083.873a1.878 1.878 0 0 1 1.67-.957c.613 0 1.086.168 1.42.563.335.365.502.928.502 1.688v3.66h-1.03v-3.631c0-.507-.112-.873-.307-1.098-.195-.225-.5-.31-.89-.31a1.42 1.42 0 0 0-.78.225 1.619 1.619 0 0 0-.557.591v4.223h-1.03v-5.799l.92-.028zm4.714 2.898c0-.929.195-1.689.584-2.252.39-.563.947-.844 1.643-.844.334 0 .64.056.89.197.251.112.474.31.67.535v-3.181h1.03v8.36h-.836l-.11-.704a1.998 1.998 0 0 1-.67.62c-.295.14-.62.208-.946.196-.696 0-1.225-.253-1.615-.76-.39-.506-.584-1.182-.584-2.026v-.14h-.056v-.001zm1.016.114c0 .59.111 1.07.362 1.407.25.338.585.535 1.086.535.306 0 .556-.084.78-.225.222-.14.39-.338.5-.591v-2.702a1.468 1.468 0 0 0-.529-.563 1.39 1.39 0 0 0-.75-.226c-.502 0-.864.197-1.087.62-.223.422-.362.957-.362 1.632v.113zm9.59.108h-4.107c.106 1.264.62 1.896 1.542 1.896 1.383 0 1.575-1.185 1.575-1.11l.908-.005c-.443 1.284-1.27 1.926-2.483 1.926-1.82 0-2.458-1.302-2.534-2.707-.077-1.405.386-3.291 2.55-3.291 1.773.033 2.622 1.13 2.55 3.29l-.002.001zm-1.03-.748c-.104-1.117-.618-1.675-1.543-1.675-.924 0-1.438.558-1.542 1.675h3.084zM153.632 174.59h-3v8.408h-1.62v-8.408h-2.954v-1.3h7.574v1.3zm2.794 8.408h-1.62v-7.215h1.62v7.215zm0-8.981h-1.62v-1.42h1.62v1.42zm4.873 9.12c-1.053 0-1.876-.332-2.47-.996-.593-.665-.89-1.526-.89-2.584v-.267c0-1.057.297-1.93.89-2.616.594-.687 1.36-1.028 2.297-1.024.97 0 1.702.299 2.2.897.498.598.747 1.397.747 2.397v.873h-4.46l-.014.034c.018.59.174 1.07.467 1.44.293.369.736.553 1.327.553.44 0 .82-.053 1.143-.16.322-.107.621-.26.897-.46l.527 1.06c-.276.24-.64.442-1.094.607-.453.164-.975.247-1.567.247v-.001zm-.173-6.187c-.422 0-.76.152-1.013.457-.254.304-.412.701-.474 1.19l.014.033h2.82v-.126c0-.463-.108-.837-.324-1.124-.215-.286-.556-.43-1.023-.43zm4.787 6.048v-6.014h-1.1v-1.2h1.1v-.84c0-.796.217-1.41.65-1.84.434-.432 1.041-.648 1.824-.648.155 0 .313.013.473.037.16.025.34.059.54.103l-.166 1.254a4.002 4.002 0 0 0-.297-.047 2.885 2.885 0 0 0-.35-.02c-.35 0-.615.1-.79.3-.176.2-.264.487-.264.86v.84h1.34v1.2h-1.34v6.015h-1.62z" fill="#2A3052" fill-rule="nonzero"/></g></svg>