<svg width="299" height="197" xmlns="http://www.w3.org/2000/svg"><g fill="none" fill-rule="evenodd"><path fill="#F1F1F2" d="M0 0h299v197H0z"/><path d="M1.987 1.98v193.04h295.026V1.98H1.987zM299 0v197H0V0h299z" fill="#C2C2C2" fill-rule="nonzero"/><path d="M4.58 54.993v-1.211h290.408v1.21H4.58zm0 40.195v-1.21h290.408v1.21H4.58zm0 40.158v-1.211h290.408v1.211H4.58zm0 20.079v-1.211h290.408v1.211H4.58zm0 20.079v-1.211h290.408v1.21H4.58zM39.06 34.308h1.21V192.59h-1.21V34.308zm36.75 0h1.21V192.59h-1.21V34.308zm36.75 0h1.211V192.59h-1.21V34.308zm36.713 0h1.211V192.59h-1.211V34.308zm36.75 0h1.212V192.59h-1.212V34.308zm36.75 0h1.212V192.59h-1.211V34.308zm36.751 0h1.212V192.59h-1.212V34.308zM4.58 115.268v-1.212h290.408v1.211H4.58z" fill="#DEDEDD" fill-rule="nonzero"/><path fill="#293052" d="M4.58 75.072V73.86h1.816v1.21z"/><path d="M10.03 75.072V73.86h3.633v1.21H10.03zm7.267 0V73.86h3.633v1.21h-3.633zm7.266 0V73.86h3.634v1.21h-3.634zm7.267 0V73.86h3.634v1.21H31.83zm7.267 0V73.86h3.634v1.21h-3.634zm7.267 0V73.86h3.633v1.21h-3.633zm7.267 0V73.86h3.633v1.21h-3.633zm7.267 0V73.86h3.633v1.21h-3.633zm7.266 0V73.86h3.634v1.21h-3.634zm7.267 0V73.86h3.634v1.21H75.43zm7.267 0V73.86h3.634v1.21h-3.634zm7.267 0V73.86h3.633v1.21h-3.633zm7.267 0V73.86h3.633v1.21h-3.633zm7.267 0V73.86h3.633v1.21h-3.633zm7.266 0V73.86h3.634v1.21h-3.634zm7.267 0V73.86h3.634v1.21h-3.634zm7.267 0V73.86h3.634v1.21h-3.634zm7.267 0V73.86h3.633v1.21h-3.633zm7.267 0V73.86h3.633v1.21h-3.633zm7.267 0V73.86h3.633v1.21H148.1zm7.266 0V73.86H159v1.21h-3.634zm7.267 0V73.86h3.634v1.21h-3.634zm7.267 0V73.86h3.634v1.21H169.9zm7.267 0V73.86h3.633v1.21h-3.633zm7.267 0V73.86h3.633v1.21h-3.633zm7.267 0V73.86h3.633v1.21h-3.633zm7.266 0V73.86h3.634v1.21h-3.634zm7.267 0V73.86h3.634v1.21h-3.634zm7.267 0V73.86h3.634v1.21H213.5zm7.267 0V73.86h3.633v1.21h-3.633zm7.267 0V73.86h3.633v1.21h-3.633zm7.267 0V73.86h3.633v1.21h-3.633zm7.266 0V73.86h3.634v1.21h-3.634zm7.267 0V73.86h3.634v1.21h-3.634zm7.267 0V73.86h3.634v1.21h-3.634zm7.267 0V73.86h3.633v1.21h-3.633zm7.267 0V73.86h3.633v1.21h-3.633zm7.267 0V73.86h3.633v1.21h-3.633zm7.266 0V73.86h3.634v1.21h-3.634z" fill="#293052" fill-rule="nonzero"/><path fill="#293052" d="M293.21 75.072V73.86h1.778v1.21z"/><path fill="#C2C2C2" d="M2 34v-2h295v2z"/><path d="M76.186 81.92l-35.273 34.035a1.798 1.798 0 0 1-2.496-2.587l36.75-35.46a1.798 1.798 0 0 1 2.695.227l35.779 48.537 35.234-21.24a1.798 1.798 0 0 1 2.01.104l35.692 26.914 72.407-59.937a1.798 1.798 0 1 1 2.292 2.77l-73.5 60.842a1.798 1.798 0 0 1-2.23.051l-35.856-27.038-35.596 21.46a1.798 1.798 0 0 1-2.375-.473L76.186 81.92z" fill="#293052"/><path d="M188.65 145.07h-35.047l-5.526-8.07-5.299 8.07h-35.047a4.733 4.733 0 0 0-4.731 4.735v24.511a4.733 4.733 0 0 0 4.731 4.736h80.92a4.729 4.729 0 0 0 3.418-1.346 4.738 4.738 0 0 0 1.426-3.39v-24.473a4.738 4.738 0 0 0-1.412-3.414 4.729 4.729 0 0 0-3.433-1.36z" fill="#E88024"/><ellipse cx="8.333" cy="9.062" rx="8.137" ry="8.373" opacity=".6" transform="translate(251.797 65.404)" fill="#FFF"/><path d="M260.13 84.05c-5.17 0-9.348-4.299-9.348-9.584 0-5.285 4.177-9.583 9.348-9.583 5.17 0 9.348 4.298 9.348 9.583s-4.177 9.584-9.348 9.584zm0-2.422c3.817 0 6.926-3.2 6.926-7.162 0-3.963-3.109-7.161-6.926-7.161s-6.926 3.198-6.926 7.161c0 3.963 3.109 7.162 6.926 7.162z" fill="#E88024" fill-rule="nonzero"/><ellipse cx="8.386" cy="8.585" rx="8.137" ry="8.373" opacity=".6" transform="translate(31.278 106.077)" fill="#FFF"/><path d="M39.665 124.245c-5.171 0-9.349-4.298-9.349-9.583 0-5.286 4.178-9.584 9.349-9.584 5.17 0 9.348 4.298 9.348 9.584 0 5.285-4.177 9.583-9.348 9.583zm0-2.422c3.817 0 6.926-3.199 6.926-7.161 0-3.963-3.109-7.162-6.926-7.162-3.818 0-6.926 3.199-6.926 7.162 0 3.962 3.108 7.161 6.926 7.161z" fill="#E88024" fill-rule="nonzero"/><path fill="#E88024" d="M247.564 44.575h25.094v16.518h-25.094z"/><path fill="#E88024" d="M257.745 61.12l2.382-2.383 2.382 2.384-2.382 2.384z"/><path d="M257.367 53.478l.606-5.645h5.147v1.25h-3.785l-.605 2.955c.22-.169.462-.31.719-.416.3-.052.607-.052.908 0a2.762 2.762 0 0 1 2.233.909 3.79 3.79 0 0 1 .795 2.538 3.79 3.79 0 0 1-.833 2.5 3.026 3.026 0 0 1-2.422.948 3.29 3.29 0 0 1-2.157-.72 2.464 2.464 0 0 1-.833-2.084h1.249c-.025.48.154.948.492 1.288.34.311.789.475 1.249.455a1.627 1.627 0 0 0 1.363-.606 2.692 2.692 0 0 0 .492-1.705 2.54 2.54 0 0 0-.492-1.629 1.627 1.627 0 0 0-1.363-.644 2.193 2.193 0 0 0-1.173.265 1.402 1.402 0 0 0-.53.758l-1.06-.417z" fill="#FFF"/><path fill="#D5D3DA" d="M137.35 76.474h25.094v16.518h-25.093z"/><path fill="#D5D3DA" d="M147.505 93l2.382-2.385L152.268 93l-2.381 2.385z"/><path d="M153.323 89.923h-6.662v-.871l3.369-3.789a9.43 9.43 0 0 0 1.362-1.553 2.503 2.503 0 0 0 0-1.364 1.93 1.93 0 0 0-.454-1.288 1.475 1.475 0 0 0-1.173-.53 2.043 2.043 0 0 0-1.552.53 2.16 2.16 0 0 0-.492 1.515h-1.211a2.919 2.919 0 0 1 .87-2.235 3.48 3.48 0 0 1 2.536-.909 2.988 2.988 0 0 1 2.196.796c.549.536.85 1.277.832 2.045a3.298 3.298 0 0 1-.492 1.667c-.4.655-.87 1.264-1.4 1.819l-2.687 2.917h4.958v1.25z" fill="#293052"/><path fill="#D5D3DA" d="M27.1 84.43h25.093v16.517H27.099z"/><path fill="#D5D3DA" d="M37.28 100.966l2.381-2.384 2.382 2.384-2.382 2.384z"/><path fill="#293052" d="M40.422 97.955h-1.4v-8.903h-2.12v-.985l3.482-.38v10.268z"/><path d="M30.22 134.361a1.571 1.571 0 0 0-.534-1.207 4.391 4.391 0 0 0-1.912-.818 6.252 6.252 0 0 1-2.561-1.169 2.432 2.432 0 0 1-.918-1.948 2.588 2.588 0 0 1 .994-2.064 3.775 3.775 0 0 1 2.562-.818 3.778 3.778 0 0 1 2.714.935c.632.554.984 1.37.956 2.22h-1.338c.022-.57-.2-1.124-.612-1.52a2.418 2.418 0 0 0-1.72-.583 2.376 2.376 0 0 0-1.606.467 1.57 1.57 0 0 0-.574 1.246c0 .47.23.908.612 1.17.594.39 1.255.667 1.95.817a5.576 5.576 0 0 1 2.485 1.208c.549.507.856 1.231.84 1.986a2.43 2.43 0 0 1-1.031 2.065 4.3 4.3 0 0 1-2.676.779 4.566 4.566 0 0 1-2.753-.857 2.63 2.63 0 0 1-1.07-2.376h1.338c-.044.61.23 1.2.726 1.558.528.369 1.157.56 1.797.545a2.79 2.79 0 0 0 1.682-.467c.392-.257.635-.694.65-1.169h-.001zm5.009-7.09v1.91h1.453v1.051h-1.453v4.752c-.03.281.053.562.23.78.16.162.383.246.61.233h.421v.974a1.249 1.249 0 0 1-.458.195h-.612a1.815 1.815 0 0 1-1.376-.507 2.328 2.328 0 0 1-.497-1.636v-4.79h-.918v-1.053h1.224v-1.907h1.376v-.002zm7.913 9.739v-.623a5.438 5.438 0 0 1 0-.546c-.274.381-.626.7-1.032.935a2.564 2.564 0 0 1-1.338.39 2.493 2.493 0 0 1-1.835-.623 2.322 2.322 0 0 1-.65-1.714c-.024-.7.309-1.363.88-1.753a4.107 4.107 0 0 1 2.408-.624h1.53v-.779a1.456 1.456 0 0 0-.421-1.09 1.586 1.586 0 0 0-1.185-.39 1.66 1.66 0 0 0-1.11.35c-.266.201-.423.52-.42.858h-1.414a1.92 1.92 0 0 1 .803-1.558 3.21 3.21 0 0 1 2.14-.702 3.133 3.133 0 0 1 2.103.663c.547.489.843 1.207.803 1.947v3.896a8.176 8.176 0 0 0 0 .818c-.023.259-.023.52 0 .779h-1.262v-.234zm-2.332-1.052a2.45 2.45 0 0 0 1.377-.39 1.85 1.85 0 0 0 .802-.895v-1.286h-1.567a2.041 2.041 0 0 0-1.376.507c-.31.24-.494.615-.497 1.013a1.1 1.1 0 0 0 .306.818c.288.208.645.292.994.233h-.039zm9.29-5.531h-.726a1.584 1.584 0 0 0-.956.273 1.71 1.71 0 0 0-.573.74v5.57H46.43v-7.79h1.262v1.129c.194-.37.469-.69.803-.935a1.85 1.85 0 0 1 1.108-.35h.535l-.038 1.363zm3.326-3.155v1.908h1.453v1.052h-1.453v4.752c-.029.281.054.562.23.78a.79.79 0 0 0 .611.233h.535v.974a1.249 1.249 0 0 1-.458.195h-.612a1.815 1.815 0 0 1-1.376-.507 2.328 2.328 0 0 1-.497-1.636v-4.79h-1.07v-1.053h1.223v-1.907h1.414v-.001z" fill="#293052" fill-rule="nonzero"/><path d="M22.632 12.448v5.8c0 .999-.33 1.78-.992 2.344-.662.564-1.52.846-2.575.846-1.05 0-1.904-.282-2.56-.846-.655-.564-.982-1.345-.982-2.343v-5.8h1.783v5.8c0 .592.158 1.045.475 1.357.316.313.744.469 1.284.469.548 0 .982-.156 1.303-.469.32-.312.48-.765.48-1.357v-5.8h1.784v-.001zm3.03 2.277l.08.943c.22-.337.489-.598.81-.785.32-.187.68-.28 1.077-.28.665 0 1.185.214 1.558.642.373.428.56 1.105.56 2.03v4.035h-1.783v-4.029c0-.47-.083-.804-.247-1.001-.164-.197-.41-.295-.74-.295-.263 0-.495.05-.696.149a1.36 1.36 0 0 0-.496.41v4.766h-1.778v-6.585h1.656-.001zm5.15 3.347c0-1.038.225-1.876.676-2.513.45-.638 1.083-.956 1.899-.956.369 0 .694.083.974.25.28.166.519.403.718.712l.14-.84h1.528v6.555c0 .856-.28 1.519-.84 1.987-.56.469-1.341.703-2.344.703-.332 0-.685-.045-1.059-.137a4.918 4.918 0 0 1-1.035-.374l.299-1.327c.272.13.553.228.843.295.29.067.603.1.94.1.487 0 .845-.1 1.074-.304.23-.203.344-.519.344-.95v-.596a1.988 1.988 0 0 1-.688.566c-.263.13-.566.195-.906.195-.808 0-1.437-.296-1.887-.888-.45-.593-.676-1.376-.676-2.35v-.128zm1.777.128c0 .576.097 1.03.29 1.36.192.331.508.497.946.497.272 0 .502-.05.69-.15.19-.099.34-.244.454-.435v-2.854a1.215 1.215 0 0 0-.453-.469 1.33 1.33 0 0 0-.679-.164c-.434 0-.75.192-.95.578-.198.385-.298.888-.298 1.51v.127zm8.376 3.238c-.982 0-1.75-.301-2.301-.904-.552-.602-.828-1.378-.828-2.328v-.243c0-.986.268-1.794.803-2.423.536-.629 1.273-.941 2.21-.937.884 0 1.563.27 2.036.813.473.541.709 1.27.709 2.188v.919h-3.926l-.018.036c.028.45.165.816.41 1.096.246.28.61.42 1.093.42.398 0 .736-.04 1.014-.122.278-.081.565-.205.86-.371l.482 1.095c-.264.215-.621.396-1.071.542a4.75 4.75 0 0 1-1.473.22v-.001zm-.116-5.466c-.357 0-.632.123-.825.369-.193.245-.31.57-.35.977l.012.03h2.167v-.134c0-.385-.079-.689-.237-.91-.158-.221-.414-.332-.767-.332zm7.243.28l-.651-.018c-.264 0-.481.055-.652.165-.17.11-.3.263-.39.462v4.45h-1.77v-6.586h1.65l.078.974c.154-.345.354-.614.6-.807.245-.193.528-.289.849-.289.09 0 .171.007.246.021a3.4 3.4 0 0 1 .229.052l-.19 1.576h.001zM52.9 21.31a3.738 3.738 0 0 1-.167-.474 3.302 3.302 0 0 1-.1-.512c-.183.32-.425.587-.725.798-.3.21-.657.316-1.071.316-.69 0-1.221-.177-1.595-.532-.373-.355-.56-.84-.56-1.452 0-.645.249-1.145.746-1.5s1.222-.533 2.176-.533h.998v-.523c0-.317-.083-.562-.25-.737-.166-.174-.413-.262-.742-.262-.288 0-.51.07-.667.21-.156.14-.234.332-.234.576H49l-.012-.037c-.029-.556.214-1.036.727-1.44.513-.403 1.184-.605 2.012-.605.79 0 1.431.199 1.92.596.489.398.733.968.733 1.71v2.721c0 .309.024.599.07.87.047.273.121.543.223.81H52.9zm-1.625-1.187c.309 0 .585-.077.828-.23.243-.155.41-.334.5-.536v-.932h-1c-.376 0-.662.094-.854.28a.92.92 0 0 0-.29.688c0 .223.073.4.217.533.144.132.344.197.6.197h-.001zm4.163-2.05c0-1.04.225-1.877.673-2.514.448-.638 1.08-.956 1.896-.956.329 0 .625.071.889.213.263.142.495.345.693.609v-3.61h1.784v9.495h-1.516l-.152-.81c-.188.287-.44.526-.736.698a1.95 1.95 0 0 1-.974.24c-.808 0-1.436-.296-1.884-.888-.448-.593-.673-1.376-.673-2.35v-.128.001zm1.772.127c0 .576.097 1.03.292 1.36.195.331.511.497.95.497.255 0 .478-.052.669-.156a1.23 1.23 0 0 0 .468-.453v-2.806a1.368 1.368 0 0 0-.465-.484 1.238 1.238 0 0 0-.66-.173c-.435 0-.752.192-.953.578-.2.385-.301.888-.301 1.51v.127zm8.393 3.238c-.982 0-1.749-.301-2.3-.904-.553-.602-.828-1.378-.828-2.328v-.243c0-.986.267-1.794.803-2.423s1.272-.941 2.21-.937c.884 0 1.563.27 2.035.813.473.541.71 1.27.71 2.188v.919h-3.926l-.019.036c.029.45.166.816.411 1.096.246.28.61.42 1.093.42.397 0 .735-.04 1.013-.122.278-.081.565-.205.861-.371l.481 1.095c-.264.215-.62.396-1.071.542a4.75 4.75 0 0 1-1.473.22v-.001zm-.116-5.466c-.357 0-.632.123-.824.369-.193.245-.31.57-.35.977l.012.03h2.167v-.134c0-.385-.08-.689-.238-.91-.158-.221-.414-.332-.767-.332z" fill="#020202" fill-rule="nonzero"/><path d="M254.584 96.128h-4.303v3.445h4.991v1.01h-6.264v-9.64h6.195v1.009h-4.922v3.132h4.303v1.044zm3.338-2.749l.104 1.078a2.322 2.322 0 0 1 2.065-1.183c.757 0 1.342.209 1.755.696.413.453.62 1.149.62 2.088v4.524h-1.274v-4.489c0-.626-.138-1.079-.379-1.357-.24-.279-.62-.383-1.1-.383-.38 0-.69.104-.965.278a2 2 0 0 0-.688.731v5.22h-1.274v-7.169l1.136-.034zm5.828 3.583c0-1.149.241-2.088.723-2.784.482-.696 1.17-1.044 2.03-1.044.414 0 .793.07 1.102.243.31.14.585.383.826.661v-3.932h1.274v10.335h-1.033l-.137-.87a2.454 2.454 0 0 1-.826.766 2.523 2.523 0 0 1-1.17.244c-.861 0-1.515-.314-1.997-.94-.482-.626-.723-1.461-.723-2.505v-.174h-.069zm1.257.14c0 .731.137 1.323.447 1.74.31.418.723.661 1.342.661.38 0 .689-.104.964-.278.276-.174.482-.418.62-.73v-3.342a1.815 1.815 0 0 0-.654-.696c-.277-.18-.6-.277-.93-.278-.62 0-1.067.244-1.342.766-.275.522-.447 1.183-.447 2.018v.14-.001zm11.855.134h-5.076c.13 1.563.766 2.344 1.906 2.344 1.71 0 1.947-1.465 1.947-1.373l1.123-.005c-.547 1.587-1.57 2.38-3.07 2.38-2.25 0-3.038-1.609-3.133-3.346-.095-1.738.477-4.07 3.151-4.07 2.193.042 3.244 1.398 3.152 4.07zm-1.273-.924c-.128-1.381-.764-2.072-1.907-2.072s-1.778.69-1.906 2.072h3.813z" fill="#2A3052" fill-rule="nonzero"/><path d="M169.176 158.457h2.057l.103 1.514c.843-1.27 1.935-1.835 3.278-1.694.778.081 2.418.339 2.907 2.572.18.818.141 2.201.128 4.081-.005.73-.005 1.993 0 3.79h-2.257v-6.429c0-.756-.209-1.6-.836-1.92-.862-.439-2.485-.254-3.136.853v7.497h-2.244v-10.264zm-10.959 0h2.057l.103 1.514c.842-1.27 1.935-1.835 3.278-1.694.778.081 2.418.339 2.907 2.572.18.818.14 2.201.128 4.081-.006.73-.006 1.993 0 3.79h-2.257v-6.429c0-.756-.21-1.6-.836-1.92-.862-.439-2.485-.254-3.136.853v7.497h-2.244v-10.264zm-9.3.097h2.233l-2.742 10.167h-1.836l-2.22-6.728-2.097 6.728h-1.86l-2.842-10.168h2.337l1.511 7.11 2.172-7.11h1.663l2.142 7.11 1.54-7.109zm-13.09 5.45h-6.189c.137 2.889 1.904 3.587 5.304 2.095l.722 1.406a5.03 5.03 0 0 1-2.16 1.057c-1.682.37-3.324.086-4.463-.763-2.47-1.842-1.84-5.711-1.296-7.044.254-.623 1.507-2.38 2.995-2.55 1.35-.153 4.688-.477 5.087 4.06.031.923.031 1.503 0 1.739zm-2.189-1.881c.002-1.615-.63-2.422-1.895-2.422-1.897 0-2.089 2.422-2.089 2.422h3.984zm-13.22 1.004v-1.7h5.084c.058 2.962.058 4.689 0 5.18-.428 1.297-5.506 3.654-8.784.664-.977-.89-1.436-1.878-1.687-3.373-.012-1.526-.039-2.958-.029-4.313.25-1.66.8-2.603 1.242-3.138 1.611-1.948 4.18-2.367 6.438-1.578 2.258.79 2.552 2.43 2.734 4.033-.522 0-.799-.023-2.21 0 .142-.902-.67-2.647-2.789-2.551-2.119.096-3.12 1.856-3.12 3.323 0 1.466-.075.974 0 3.888.097 3.346 4.064 4.244 5.908 2.456l.067-2.849-2.854-.042zm32.435-4.654h2.171v10.248h-2.17v-10.248zm.044-4.473h2.216v1.944h-2.216V154zm29.431 10.421h-2.535v-8.171h2.535v8.171zm0 4.3h-2.535v-2.196h2.535v2.196z" fill="#FFF" fill-rule="nonzero"/></g></svg>