<svg width="299" height="197" xmlns="http://www.w3.org/2000/svg"><g fill="none" fill-rule="evenodd"><path fill="#F1F1F2" d="M0 0h299v197H0z"/><path d="M1.987 1.98v193.04h295.026V1.98H1.987zM299 0v197H0V0h299z" fill="#C2C2C2" fill-rule="nonzero"/><path d="M4.58 52.993v-1.212h290.408v1.212H4.58zm0 20.08V71.86h290.408v1.212H4.58zm0 60.274v-1.212h290.408v1.212H4.58z" fill="#DEDEDD" fill-rule="nonzero"/><path d="M4.58 153.425v-1.212h3.598v1.212H4.58zm7.196 0v-1.212h3.598v1.212h-3.598zm7.196 0v-1.212h3.598v1.212h-3.598zm7.197 0v-1.212h3.598v1.212h-3.598zm7.196 0v-1.212h3.598v1.212h-3.598zm7.196 0v-1.212h3.598v1.212h-3.598zm7.197 0v-1.212h3.598v1.212h-3.598zm7.196 0v-1.212h3.598v1.212h-3.598zm7.196 0v-1.212h3.598v1.212H62.15zm7.196 0v-1.212h3.599v1.212h-3.599zm7.197 0v-1.212h3.598v1.212h-3.598zm7.196 0v-1.212h3.598v1.212H83.74zm7.196 0v-1.212h3.599v1.212h-3.599zm7.197 0v-1.212h3.598v1.212h-3.598zm7.196 0v-1.212h3.598v1.212h-3.598zm7.196 0v-1.212h3.599v1.212h-3.599zm7.197 0v-1.212h3.598v1.212h-3.598zm7.196 0v-1.212h3.598v1.212h-3.598zm7.196 0v-1.212h3.599v1.212h-3.599zm7.197 0v-1.212h3.598v1.212h-3.598zm7.196 0v-1.212h3.598v1.212h-3.598zm7.196 0v-1.212h3.598v1.212h-3.598zm7.197 0v-1.212h3.598v1.212h-3.598zm7.196 0v-1.212h3.598v1.212h-3.598zm7.196 0v-1.212h3.598v1.212h-3.598zm7.197 0v-1.212h3.598v1.212h-3.598zm7.196 0v-1.212h3.598v1.212h-3.598zm7.196 0v-1.212h3.598v1.212h-3.598zm7.197 0v-1.212h3.598v1.212h-3.598zm7.196 0v-1.212h3.598v1.212h-3.598zm7.196 0v-1.212h3.598v1.212h-3.598zm7.196 0v-1.212h3.599v1.212h-3.599zm7.197 0v-1.212h3.598v1.212h-3.598zm7.196 0v-1.212h3.598v1.212h-3.598zm7.196 0v-1.212h3.599v1.212h-3.599zm7.197 0v-1.212h3.598v1.212h-3.598zm7.196 0v-1.212h3.598v1.212h-3.598zm7.196 0v-1.212h3.599v1.212h-3.599zm7.197 0v-1.212h3.598v1.212h-3.598zm7.196 0v-1.212h3.598v1.212h-3.598zm7.196 0v-1.212h2.556v1.212h-2.556z" fill="#293052" fill-rule="nonzero"/><path d="M4.58 173.504v-1.212h290.408v1.212H4.58zM39.059 32.308h1.212V190.59h-1.212V32.308zm36.75 0h1.212V190.59H75.81V32.308zm36.75 0h1.213V190.59h-1.212V32.308zm36.713 0h1.212V190.59h-1.212V32.308zm36.751 0h1.212V190.59h-1.212V32.308zm36.75 0h1.213V190.59h-1.213V32.308zm36.751 0h1.212V190.59h-1.212V32.308zM4.58 113.268v-1.212h290.408v1.212H4.58zm0-20.08v-1.211h290.408v1.212H4.58z" fill="#DEDEDD" fill-rule="nonzero"/><path fill="#C2C2C2" d="M2 34v-2h295v2z"/><path d="M190.555 82.764a1.8 1.8 0 0 1 2.7.685l32.057 68.609a1.8 1.8 0 1 1-3.26 1.523l-31.126-66.616-40.66 30.06a1.8 1.8 0 0 1-2.095.032l-41.895-29.075-28.651 26.012a1.8 1.8 0 0 1-2.363.049l-36.75-30.687a1.8 1.8 0 1 1 2.306-2.762l35.548 29.683 28.55-25.921a1.8 1.8 0 0 1 2.236-.146l42.012 29.156 41.391-30.602z" fill="#293052"/><path d="M255.777 116.442l.682-6.592h5.98v1.44h-4.58l-.378 3.372a3.58 3.58 0 0 1 .832-.455c.34-.124.699-.188 1.06-.19a3.216 3.216 0 0 1 2.612 1.1 4.322 4.322 0 0 1 .946 2.954 4.208 4.208 0 0 1-.984 2.88 3.556 3.556 0 0 1-2.801 1.098 3.782 3.782 0 0 1-2.536-.833 2.88 2.88 0 0 1-.984-2.425h1.476c-.036.563.17 1.115.568 1.516.4.37.932.561 1.476.53a1.892 1.892 0 0 0 1.59-.72 3.147 3.147 0 0 0 .416-2.121 2.957 2.957 0 0 0-.568-1.895 1.892 1.892 0 0 0-1.59-.757 2.534 2.534 0 0 0-1.4.303c-.305.21-.532.517-.643.871l-1.174-.076zm6.018 20.572h1.628v1.288h-1.628v2.765h-1.627v-2.803h-5.375v-.91l5.261-8.296h1.703v7.956h.038zm-5.26 0h3.784v-5.645.417l-3.785 5.228zm6.547 44.06h-7.759v-1.137l3.785-4.357a10.796 10.796 0 0 0 1.438-1.856 2.92 2.92 0 0 0 .379-1.402 2.237 2.237 0 0 0-.53-1.515 1.74 1.74 0 0 0-1.4-.606 2.383 2.383 0 0 0-1.817.644 2.54 2.54 0 0 0-.606 1.78h-1.438a3.373 3.373 0 0 1 1.022-2.614 4.01 4.01 0 0 1 2.952-1.06 3.48 3.48 0 0 1 2.574.947c.632.63.975 1.494.946 2.386a3.791 3.791 0 0 1-.568 1.97 12.463 12.463 0 0 1-1.627 2.122l-3.142 3.41h5.753v1.287h.038zm0-110.586a16.785 16.785 0 0 0-2.914 4.584 20.55 20.55 0 0 0-1.098 4.85v1.288h-1.703v-1.288a17.5 17.5 0 0 1 1.4-5.153 19.4 19.4 0 0 1 2.726-4.357h-6.51V69.2h8.1v1.288zm-.454-17.616a2.654 2.654 0 0 1-.53 1.629 3.104 3.104 0 0 1-1.438 1.06 3.785 3.785 0 0 1 1.665 1.137c.404.505.618 1.135.606 1.78a3.07 3.07 0 0 1-1.098 2.54 4.992 4.992 0 0 1-5.64 0 3.108 3.108 0 0 1-1.059-2.54 2.805 2.805 0 0 1 .606-1.78 3.52 3.52 0 0 1 1.627-1.136 3.028 3.028 0 0 1-1.4-1.061 2.73 2.73 0 0 1-.492-1.63 3.07 3.07 0 0 1 .984-2.424 3.778 3.778 0 0 1 2.573-.871 3.782 3.782 0 0 1 2.574.871 3.032 3.032 0 0 1 1.022 2.425zm-1.287 5.569a2.16 2.16 0 0 0-.643-1.63 2.27 2.27 0 0 0-1.628-.643 2.156 2.156 0 0 0-2.27 2.235 2.08 2.08 0 0 0 .643 1.591 2.647 2.647 0 0 0 3.293 0c.413-.408.633-.973.605-1.553zm-.19-5.531a2.047 2.047 0 0 0-.567-1.478 2.005 2.005 0 0 0-2.8 0 2.085 2.085 0 0 0-.53 1.478c-.031.544.16 1.077.53 1.477a2.041 2.041 0 0 0 2.8 0c.384-.394.589-.928.568-1.477z" fill="#808184" fill-rule="nonzero"/><path d="M188.65 145.07h-35.047l-5.526-8.07-5.299 8.07h-35.047a4.733 4.733 0 0 0-4.731 4.735v24.511a4.733 4.733 0 0 0 4.731 4.736h80.92a4.729 4.729 0 0 0 3.418-1.346 4.738 4.738 0 0 0 1.426-3.39v-24.473a4.738 4.738 0 0 0-1.412-3.414 4.729 4.729 0 0 0-3.433-1.36z" fill="#E88024"/><ellipse cx="8.43" cy="8.858" rx="8.137" ry="8.373" opacity=".6" transform="translate(214.95 145.962)" fill="#FFF"/><path d="M223.38 162.404c-5.172 0-9.35-4.299-9.35-9.585 0-5.285 4.178-9.584 9.35-9.584 5.17 0 9.349 4.299 9.349 9.584 0 5.286-4.178 9.585-9.35 9.585zm0-2.424c3.816 0 6.925-3.198 6.925-7.16 0-3.963-3.109-7.161-6.926-7.161-3.816 0-6.925 3.198-6.925 7.16 0 3.963 3.109 7.16 6.925 7.16z" fill="#E88024" fill-rule="nonzero"/><path d="M259.903 88.9a5.294 5.294 0 0 1 1.211 0 4 4 0 0 1 .984.341l-.34 1.25-.833-.34a3.781 3.781 0 0 0-1.022 0 2.46 2.46 0 0 0-2.082 1.022 4.29 4.29 0 0 0-.795 2.69 3.784 3.784 0 0 1 1.212-.72c.47-.18.971-.27 1.476-.265a3.216 3.216 0 0 1 2.573 1.099 4.17 4.17 0 0 1 .947 2.803 4.473 4.473 0 0 1-1.022 3.031 3.405 3.405 0 0 1-2.725 1.174 3.783 3.783 0 0 1-2.915-1.288 5.194 5.194 0 0 1-1.135-3.599v-2.273a5.383 5.383 0 0 1 1.287-3.788 4.085 4.085 0 0 1 3.179-1.137zm-.568 5.418a2.76 2.76 0 0 0-1.4.34c-.384.21-.7.526-.909.91v.985c-.05.903.204 1.796.72 2.538a2.12 2.12 0 0 0 1.74.91 1.74 1.74 0 0 0 1.666-.91 3.791 3.791 0 0 0 .568-2.084 3.07 3.07 0 0 0-.568-1.97 1.967 1.967 0 0 0-1.817-.757v.038z" fill="#808184" fill-rule="nonzero"/><path fill="#E88024" d="M246.278 145.424h28.575v18.79h-28.575z"/><path fill="#E88024" d="M249.76 154.82l-3.331 3.333-5.185-3.334 5.185-3.333z"/><path d="M257.594 153.683h1.363c.462.033.916-.132 1.249-.455.293-.348.442-.795.416-1.25a1.63 1.63 0 0 0-.416-1.174 1.588 1.588 0 0 0-1.211-.266 1.664 1.664 0 0 0-1.136.38c-.3.253-.466.63-.454 1.022h-2.347a2.729 2.729 0 0 1 1.06-2.31 4.274 4.274 0 0 1 2.8-.91 4.614 4.614 0 0 1 2.953.871 3.07 3.07 0 0 1 1.098 2.539 2.54 2.54 0 0 1-.492 1.477c-.349.481-.82.86-1.363 1.099a3.028 3.028 0 0 1 1.514 1.098c.353.498.538 1.095.53 1.705a3.108 3.108 0 0 1-1.211 2.576 4.804 4.804 0 0 1-3.066.947 4.69 4.69 0 0 1-2.876-.87 2.805 2.805 0 0 1-1.136-2.501h2.498c-.01.432.17.848.492 1.136.344.304.79.467 1.25.455.484.032.96-.132 1.324-.455a1.67 1.67 0 0 0 .492-1.25 1.82 1.82 0 0 0-.454-1.402 1.967 1.967 0 0 0-1.4-.454h-1.477v-2.008z" fill="#FFF"/><path fill="#293052" d="M247.564 124.292v-1.212h22.899v1.212z"/><path d="M270.376 15.208H269v-1.48h1.415v1.48h-.039zm0 6.349H269v-1.48h1.415v1.48h-.039zm6.002-4.753L276.99 11h5.2v1.286h-3.824l-.344 2.96c.225-.161.469-.292.727-.39.303-.052.614-.052.917 0 .857-.055 1.69.29 2.256.936.568.742.853 1.67.803 2.61a3.944 3.944 0 0 1-.841 2.57 3.066 3.066 0 0 1-2.447.974 3.293 3.293 0 0 1-2.447-.974 2.556 2.556 0 0 1-.84-2.142h1.26c-.024.493.156.974.498 1.324.358.38.86.579 1.376.546a1.633 1.633 0 0 0 1.53-.74 2.76 2.76 0 0 0 .496-1.753c.025-.6-.15-1.19-.497-1.675a1.632 1.632 0 0 0-1.376-.662 2.18 2.18 0 0 0-1.185.233c-.26.19-.449.465-.535.78l-1.339-.079z" fill="#293052" fill-rule="nonzero"/><path d="M194.265 21.031h4.56v.989H193v-9.352h1.265v8.363zm8.671 1.124c-.997 0-1.776-.32-2.335-.957-.558-.638-.838-1.478-.838-2.518v-.283c0-.997.288-1.823.864-2.476.576-.653 1.28-.98 2.11-.98.93 0 1.626.29 2.09.868.465.578.698 1.347.698 2.306v.668h-4.445l-.02.032c0 .698.155 1.264.463 1.699.308.434.78.652 1.413.652.428 0 .804-.061 1.127-.183.324-.122.601-.29.832-.505l.495.822c-.249.24-.576.443-.983.607-.407.165-.897.248-1.47.248h-.001zm-.199-6.218c-.44 0-.806.17-1.095.51-.289.341-.466.777-.53 1.308l.013.032h3.134v-.103c0-.505-.124-.922-.372-1.252-.249-.33-.632-.495-1.15-.495zm5.967-2.543v1.676h1.317v.938h-1.317v4.22c0 .325.067.554.202.687s.314.2.537.2c.072 0 .154-.01.244-.03.09-.019.165-.04.225-.06l.173.866c-.094.077-.233.14-.418.19-.184.05-.366.074-.545.074-.514 0-.923-.155-1.227-.466-.304-.31-.456-.797-.456-1.461v-4.22h-1.105v-.938h1.105v-1.675h1.265v-.001zm3.867 7.637h4.014v.989h-5.524v-.887l3.758-5.06h-3.713V15.07h5.26v.86l-3.795 5.1v.001zm7.18-7.637v1.676h1.317v.938h-1.316v4.22c0 .325.067.554.202.687s.314.2.536.2c.073 0 .154-.01.244-.03.09-.019.165-.04.225-.06l.173.866c-.094.077-.233.14-.417.19-.184.05-.366.074-.546.074-.514 0-.923-.155-1.227-.466-.304-.31-.456-.797-.456-1.461v-4.22h-1.105v-.938h1.105v-1.675h1.266l-.001-.001zm5.55 8.76c-.998 0-1.776-.318-2.335-.956-.559-.638-.838-1.478-.838-2.518v-.283c0-.997.288-1.823.864-2.476.576-.653 1.28-.98 2.11-.98.93 0 1.626.29 2.09.868.465.578.697 1.347.697 2.306v.668h-4.444l-.02.032c0 .698.155 1.264.463 1.699.308.434.78.652 1.413.652.428 0 .804-.061 1.127-.183.324-.122.6-.29.832-.505l.495.822c-.249.24-.576.443-.983.607-.407.165-.897.248-1.471.248v-.001zm-.2-6.217c-.44 0-.805.17-1.094.51-.29.341-.466.777-.53 1.308l.013.032h3.134v-.103c0-.505-.124-.922-.372-1.252-.249-.33-.632-.495-1.15-.495h-.001zm12.641 3.726c0-.424-.152-.78-.456-1.067-.304-.286-.839-.53-1.606-.732-.95-.235-1.692-.582-2.225-1.04-.533-.458-.8-1.034-.8-1.728 0-.732.287-1.342.861-1.83.574-.489 1.319-.733 2.235-.733.985 0 1.77.28 2.354.838.585.56.868 1.211.851 1.956l-.02.039h-1.207c0-.531-.185-.97-.555-1.317-.37-.347-.845-.52-1.423-.52-.59 0-1.044.143-1.358.43-.315.287-.472.66-.472 1.118 0 .406.172.746.517 1.018.344.272.904.51 1.68.716.941.244 1.659.604 2.15 1.079.493.475.74 1.062.74 1.76 0 .753-.297 1.36-.89 1.817-.593.459-1.367.688-2.322.688-.903 0-1.7-.253-2.392-.758s-1.027-1.182-1.006-2.03l.013-.038h1.208c0 .586.222 1.04.668 1.358.445.32.948.479 1.51.479.599 0 1.073-.135 1.422-.405s.523-.636.523-1.098zm4.644-6.27v1.677h1.317v.938h-1.317v4.22c0 .325.068.554.202.687.135.133.314.2.537.2.072 0 .154-.01.244-.03.09-.019.165-.04.225-.06l.173.866c-.094.077-.233.14-.417.19-.185.05-.367.074-.546.074-.514 0-.923-.155-1.227-.466-.304-.31-.456-.797-.456-1.461v-4.22h-1.105v-.938h1.105v-1.675h1.265v-.002zm5.55 8.762c-.998 0-1.776-.32-2.335-.957-.559-.638-.838-1.478-.838-2.518v-.283c0-.997.288-1.823.863-2.476.576-.653 1.28-.98 2.11-.98.93 0 1.626.29 2.091.868.465.578.697 1.347.697 2.306v.668h-4.445l-.019.032c0 .698.154 1.264.462 1.699.309.434.78.652 1.414.652.428 0 .803-.061 1.127-.183.323-.122.6-.29.832-.505l.494.822c-.248.24-.576.443-.983.607-.406.165-.897.248-1.47.248zm-.2-6.218c-.44 0-.806.17-1.095.51-.289.341-.465.777-.53 1.308l.013.032h3.135v-.103c0-.505-.125-.922-.373-1.252-.248-.33-.631-.495-1.15-.495zm5.576 6.083h-1.266V12h1.266v10.02zm3.314 0h-1.266V12h1.266v10.02zm4.823.135c-.997 0-1.776-.32-2.334-.957-.56-.638-.839-1.478-.839-2.518v-.283c0-.997.288-1.823.864-2.476.576-.653 1.28-.98 2.11-.98.93 0 1.626.29 2.091.868.465.578.697 1.347.697 2.306v.668h-4.445l-.02.032c0 .698.155 1.264.463 1.699.309.434.78.652 1.413.652.429 0 .804-.061 1.128-.183a2.5 2.5 0 0 0 .831-.505l.495.822c-.248.24-.576.443-.983.607-.407.165-.897.248-1.47.248h-.001zm-.199-6.218c-.44 0-.806.17-1.095.51-.289.341-.465.777-.53 1.308l.013.032h3.135v-.103c0-.505-.125-.922-.373-1.252-.248-.33-.632-.495-1.15-.495z" fill="#2A3052" fill-rule="nonzero"/><path d="M168.702 157.917h2.056l.104 1.515c.842-1.27 1.935-1.835 3.278-1.694.777.08 2.418.339 2.907 2.571.179.819.14 2.202.127 4.082-.005.73-.005 1.993 0 3.79h-2.257v-6.43c0-.755-.209-1.6-.836-1.919-.861-.439-2.484-.255-3.135.852v7.497h-2.244v-10.264zm-10.96 0h2.057l.103 1.515c.843-1.27 1.935-1.835 3.279-1.694.777.08 2.417.339 2.906 2.571.18.819.141 2.202.128 4.082-.005.73-.005 1.993 0 3.79h-2.257v-6.43c0-.755-.209-1.6-.836-1.919-.862-.439-2.485-.255-3.136.852v7.497h-2.244v-10.264zm-9.3.097h2.234l-2.743 10.167h-1.835l-2.22-6.728-2.098 6.728h-1.86l-2.841-10.167h2.336l1.512 7.11 2.171-7.11h1.663l2.143 7.11 1.538-7.11zm-13.09 5.451h-6.188c.136 2.889 1.904 3.587 5.303 2.094l.723 1.406a5.03 5.03 0 0 1-2.16 1.057c-1.683.37-3.325.087-4.464-.762-2.47-1.843-1.84-5.711-1.295-7.045.254-.623 1.506-2.38 2.995-2.549 1.348-.153 4.687-.477 5.086 4.06.032.923.032 1.503 0 1.739zm-2.187-1.882c.001-1.614-.63-2.421-1.895-2.421-1.897 0-2.09 2.421-2.09 2.421h3.985zm-13.221 1.004v-1.699h5.084c.057 2.962.057 4.688 0 5.18-.429 1.297-5.506 3.654-8.784.664-.977-.891-1.437-1.878-1.688-3.373-.011-1.526-.038-2.959-.028-4.313.248-1.66.798-2.603 1.241-3.138 1.612-1.949 4.18-2.367 6.438-1.578 2.259.789 2.552 2.429 2.734 4.033-.522 0-.798-.023-2.21 0 .142-.903-.67-2.648-2.789-2.551-2.119.096-3.119 1.856-3.119 3.322 0 1.467-.076.974 0 3.888.096 3.346 4.064 4.244 5.907 2.457l.068-2.85-2.854-.042zm32.434-4.653h2.172v10.247h-2.172v-10.247zm.044-4.474h2.216v1.945h-2.216v-1.945zm29.431 10.422h-2.534v-8.172h2.534v8.172zm0 4.3h-2.534v-2.196h2.534v2.196z" fill="#FFF" fill-rule="nonzero"/><path d="M22.422 12.047v6.556c0 1.089-.34 1.95-1.022 2.584-.681.633-1.612.95-2.793.95-1.162 0-2.085-.308-2.768-.923-.684-.615-1.032-1.46-1.046-2.536v-6.631h2.05v6.57c0 .65.157 1.126.469 1.425.312.298.744.447 1.295.447 1.153 0 1.739-.606 1.757-1.818v-6.624h2.058zm3.37 2.557l.062.854c.528-.66 1.237-.991 2.125-.991.784 0 1.368.23 1.75.69.383.46.58 1.149.588 2.065V22h-1.975v-4.73c0-.42-.091-.724-.274-.913-.182-.19-.485-.284-.909-.284-.556 0-.973.237-1.25.711V22h-1.976v-7.396h1.859zm8.388-1.819v1.819h1.264v1.449H34.18v3.691c0 .274.052.47.157.588.105.119.305.178.601.178.22 0 .413-.016.582-.048v1.497a4.067 4.067 0 0 1-1.197.178c-1.385 0-2.092-.7-2.119-2.099v-3.985h-1.08v-1.45h1.08v-1.818h1.976zm5.77 9.352c-1.085 0-1.968-.333-2.65-.998-.681-.666-1.022-1.552-1.022-2.66v-.19c0-.744.144-1.408.431-1.994a3.16 3.16 0 0 1 1.22-1.353c.527-.317 1.127-.475 1.801-.475 1.012 0 1.809.319 2.39.957.58.638.871 1.542.871 2.714v.806h-4.71c.064.483.257.87.578 1.162.321.292.728.438 1.22.438.761 0 1.356-.276 1.784-.827l.971 1.087a2.957 2.957 0 0 1-1.203.98 3.947 3.947 0 0 1-1.682.353zm-.226-6.07c-.392 0-.71.132-.954.396s-.4.642-.468 1.135h2.748v-.158c-.01-.437-.128-.775-.356-1.015-.228-.239-.551-.359-.97-.359zm8.545.39a5.367 5.367 0 0 0-.711-.056c-.748 0-1.238.253-1.47.76V22h-1.976v-7.396h1.867l.054.881c.397-.679.946-1.018 1.648-1.018.218 0 .423.03.615.089l-.027 1.9z" fill="#000"/></g></svg>