<svg width="299" height="197" xmlns="http://www.w3.org/2000/svg"><g fill="none" fill-rule="evenodd"><path fill="#F1F2F2" d="M0 0h299v197H0z"/><path d="M2 2v193h295V2H2zm297-2v197H0V0h299z" fill="#C2C2C2" fill-rule="nonzero"/><path d="M3 55.067v-1.204h290v1.204H3zm0 22.326v-1.204h290v1.204H3zm0 18.604v-1.204h290v1.204H3zm0 40.93v-1.203h290v1.204H3zm0 18.605v-1.204h290v1.204H3zm0 22.326v-1.204h290v1.204H3zM37.72 34h1.2v160h-1.2V34zm37.18 0h1.2v160h-1.2V34zm37.18 0h1.2v160h-1.2V34zm33.46 0h1.201v160h-1.2V34zm37.18 0h1.2v160h-1.2V34zm37.18 0h1.2v160h-1.2V34zm37.18 0h1.2v160h-1.2V34z" fill="#DFDEDE" fill-rule="nonzero"/><path fill="#2A3052" d="M2.906 117.82v-1.215h291.607v1.215z"/><path fill="#C2C2C2" d="M1 34v-2h296v2z"/><path d="M186.94 148.223h-35.182L146.34 140l-5.418 8.223H105.74c-2.634 0-4.741 2.14-4.741 4.807v24.82c0 2.667 2.145 4.807 4.741 4.807h81.236c2.634 0 4.74-2.14 4.74-4.807v-24.82c0-2.666-2.144-4.807-4.778-4.807z" fill="#E88024"/><path d="M21.921 20.207H18.07l-.733 2.197H15l3.97-10.664h2.036l3.992 10.664H22.66l-.74-2.197zm-3.259-1.78h2.666l-1.34-3.992-1.326 3.992zm11.858 3.171c-.522.635-1.245.952-2.168.952-.85 0-1.498-.244-1.945-.732-.446-.488-.675-1.204-.684-2.146v-5.193h2.116v5.12c0 .825.376 1.237 1.128 1.237.718 0 1.211-.249 1.48-.747v-5.61h2.124v7.925h-1.992l-.059-.806zm4.226.806v-6.372h-1.18v-1.553h1.18v-.674c0-.889.255-1.578.765-2.069.51-.49 1.225-.736 2.143-.736.293 0 .652.049 1.076.146l-.022 1.641a2.699 2.699 0 0 0-.644-.066c-.796 0-1.194.374-1.194 1.12v.638h1.575v1.553H36.87v6.372h-2.124z" fill="#000" fill-rule="nonzero"/><g transform="translate(36 62)"><path d="M36.145 33.28l-25.23 23.225a1.805 1.805 0 0 1-2.444-2.656L34.976 29.45a1.805 1.805 0 0 1 2.5.054l34.551 34.651 31.793-45.67a1.805 1.805 0 0 1 2.81-.19l45.25 49.217 38.143-65.757a1.805 1.805 0 0 1 2.497-.637l24.47 14.84a1.805 1.805 0 0 1-1.871 3.087L192.222 5.159l-38.45 66.286a1.805 1.805 0 0 1-2.89.316l-45.386-49.365-31.74 45.595a1.805 1.805 0 0 1-2.76.243L36.145 33.281z" fill="#2A3052"/><ellipse fill="#FFF" opacity=".6" cx="216.055" cy="17.501" rx="7.608" ry="7.855"/><path d="M216.055 26.56c-4.875 0-8.811-4.064-8.811-9.059 0-4.994 3.936-9.058 8.81-9.058 4.876 0 8.812 4.064 8.812 9.058 0 4.995-3.936 9.059-8.811 9.059zm0-2.407c3.528 0 6.404-2.97 6.404-6.652s-2.876-6.651-6.404-6.651-6.404 2.97-6.404 6.651c0 3.682 2.876 6.652 6.404 6.652z" fill="#E88024" fill-rule="nonzero"/><ellipse fill="#FFF" opacity=".6" cx="9.692" cy="55.177" rx="7.608" ry="7.855"/><path d="M9.693 64.235c-4.875 0-8.81-4.064-8.81-9.058s3.935-9.058 8.81-9.058 8.811 4.064 8.811 9.058-3.936 9.058-8.81 9.058zm0-2.407c3.528 0 6.404-2.97 6.404-6.651 0-3.682-2.876-6.652-6.404-6.652s-6.404 2.97-6.404 6.652 2.876 6.651 6.404 6.651z" fill="#E88024" fill-rule="nonzero"/></g><g fill="#6D6E71" fill-rule="nonzero"><path d="M263.702 135.671h1.126l.968-6.673h-1.153l-.941 6.673zm2.571-9.674l-.179 1.473h-1.312l.225-1.473h1.266z"/><path d="M251.182 127.829l.159-.927h5.255l-.106.927-4.882 7.148h4.424l-.152.963h-5.58v-.963l4.841-7.148h-3.959zm17.202-1.832h1.17l-1.4 9.686h-1.135l1.365-9.686zm-7.014 8.317c.069.175.148.362.333.775-1.398 1.117-3.005.964-3.756.503-1.132-.696-1.132-1.987-1.126-2.986.008-1.274.9-3.643 3.386-3.643s2.078 2.815 1.957 3.643c-.254 0-1.625.026-4.113.079-.23 3.096 2 2.404 3.32 1.63l-.001-.001zm-.15-2.49c.146-1.223-.213-1.834-1.074-1.834-1.291 0-1.744 1.435-1.888 1.834h2.963-.001z" opacity=".9"/></g><path d="M165.737 162.176h1.926l.097 1.417c.79-1.19 1.812-1.718 3.07-1.586.728.076 2.265.317 2.722 2.408.168.767.133 2.062.12 3.822-.005.684-.005 1.867 0 3.55h-2.114v-6.021c0-.708-.195-1.498-.782-1.797-.808-.412-2.327-.24-2.937.797v7.022h-2.102v-9.613.001zm-10.263 0h1.926l.096 1.417c.79-1.19 1.813-1.718 3.07-1.586.73.076 2.265.317 2.723 2.408.168.767.132 2.062.12 3.822-.006.684-.006 1.867 0 3.55h-2.114v-6.021c0-.708-.196-1.498-.783-1.797-.807-.412-2.327-.24-2.937.797v7.022h-2.1v-9.613.001zm-8.71.09h2.091l-2.568 9.522h-1.719l-2.08-6.301-1.963 6.3h-1.742l-2.662-9.522h2.19l1.414 6.659 2.034-6.659h1.557l2.007 6.659 1.441-6.658zm-12.26 5.104h-5.795c.127 2.706 1.783 3.36 4.967 1.962l.676 1.317a4.71 4.71 0 0 1-2.023.99c-1.575.346-3.114.08-4.18-.715-2.314-1.725-1.723-5.348-1.213-6.597.238-.583 1.41-2.228 2.805-2.387 1.263-.144 4.39-.447 4.763 3.802.03.864.03 1.407 0 1.628zm-2.048-1.761c.001-1.513-.59-2.269-1.775-2.269-1.777 0-1.957 2.269-1.957 2.269h3.732zm-12.382.94v-1.592h4.761c.054 2.774.054 4.391 0 4.851-.4 1.215-5.157 3.422-8.227.622-.915-.834-1.345-1.759-1.58-3.159-.01-1.43-.036-2.77-.026-4.039.232-1.555.747-2.438 1.162-2.94 1.51-1.824 3.914-2.216 6.03-1.477 2.115.74 2.39 2.275 2.56 3.777-.49 0-.748-.021-2.07 0 .134-.845-.627-2.48-2.612-2.39-1.984.09-2.92 1.74-2.92 3.113s-.072.912 0 3.641c.09 3.134 3.805 3.975 5.532 2.3l.063-2.668-2.673-.04v.001zm30.376-4.359h2.034v9.598h-2.034v-9.598zm.04-4.19h2.076v1.822h-2.075V158zm27.564 9.761h-2.374v-7.653h2.374v7.653zm0 4.027h-2.374v-2.056h2.374v2.056z" fill="#FFF" fill-rule="nonzero"/><path d="M31.38 138.247c-1.206-.347-2.084-.773-2.633-1.278a2.442 2.442 0 0 1-.824-1.872c0-.84.336-1.534 1.007-2.084.671-.549 1.544-.824 2.618-.824.733 0 1.386.142 1.96.425a3.221 3.221 0 0 1 1.333 1.172c.315.498.472 1.043.472 1.633h-1.414c0-.644-.205-1.15-.615-1.52-.41-.368-.989-.552-1.736-.552-.693 0-1.234.152-1.622.457-.388.306-.582.73-.582 1.271 0 .435.184.802.553 1.102.368.3.996.575 1.882.824.886.25 1.58.524 2.08.824.5.3.872.651 1.113 1.051.242.4.363.872.363 1.414 0 .864-.337 1.556-1.01 2.076-.675.52-1.575.78-2.703.78-.733 0-1.416-.14-2.051-.42-.635-.281-1.124-.666-1.469-1.154a2.815 2.815 0 0 1-.516-1.663H29c0 .645.238 1.154.714 1.527.476.374 1.112.56 1.908.56.742 0 1.31-.15 1.706-.454.396-.302.593-.715.593-1.237 0-.523-.183-.927-.549-1.212-.366-.286-1.03-.568-1.992-.846zm7.383-5.09v1.918h1.48v1.048h-1.48v4.914c0 .317.066.556.197.714.132.159.357.238.674.238.157 0 .371-.029.645-.088V143a3.928 3.928 0 0 1-1.04.146c-.606 0-1.062-.183-1.37-.549-.307-.366-.461-.886-.461-1.56v-4.914h-1.443v-1.048h1.443v-1.919h1.355zM46.717 143c-.078-.156-.142-.435-.19-.835-.63.654-1.382.981-2.256.981-.782 0-1.423-.22-1.923-.662-.5-.442-.75-1.003-.75-1.681 0-.825.313-1.466.94-1.923.628-.456 1.51-.685 2.648-.685h1.318v-.622c0-.474-.141-.851-.424-1.132-.284-.28-.701-.421-1.253-.421-.483 0-.889.122-1.216.366-.327.244-.49.54-.49.886h-1.363c0-.395.14-.777.421-1.146.281-.368.662-.66 1.143-.875a3.844 3.844 0 0 1 1.586-.322c.913 0 1.628.228 2.146.685.517.456.786 1.085.805 1.886v3.647c0 .728.093 1.306.279 1.736V143h-1.421zm-2.249-1.033c.425 0 .828-.11 1.209-.33.38-.219.656-.505.827-.856v-1.626h-1.062c-1.66 0-2.49.486-2.49 1.457 0 .425.142.757.425.996.283.24.647.36 1.091.36zm9.346-5.676a4.06 4.06 0 0 0-.667-.051c-.888 0-1.491.378-1.809 1.135V143h-1.355v-7.925h1.319l.022.916c.444-.708 1.074-1.062 1.89-1.062.263 0 .463.034.6.102v1.26zm3.083-3.135v1.92h1.48v1.047h-1.48v4.914c0 .317.066.556.198.714.132.159.357.238.674.238.156 0 .371-.029.645-.088V143a3.928 3.928 0 0 1-1.04.146c-.606 0-1.062-.183-1.37-.549-.308-.366-.462-.886-.462-1.56v-4.914H54.1v-1.048h1.442v-1.919h1.355zm193.369-31.086h-4.622v3.78h5.369V107h-6.775V96.336h6.701v1.157h-5.295v3.428h4.622v1.15zm3.567-2.995l.043.996c.606-.761 1.397-1.142 2.374-1.142 1.674 0 2.519.945 2.534 2.834V107h-1.355v-5.244c-.005-.571-.136-.994-.392-1.267-.256-.274-.656-.41-1.198-.41-.44 0-.825.117-1.157.351-.332.235-.59.542-.776.923V107h-1.355v-7.925h1.282zm6.665 3.897c0-1.216.288-2.194.864-2.934.576-.74 1.33-1.11 2.263-1.11.928 0 1.663.318 2.205.953V95.75h1.355V107h-1.246l-.065-.85c-.542.664-1.297.996-2.264.996-.918 0-1.666-.375-2.245-1.127-.578-.752-.867-1.734-.867-2.945v-.102zm1.355.153c0 .899.185 1.602.556 2.11.371.508.884.762 1.538.762.86 0 1.487-.386 1.883-1.158v-3.64c-.406-.747-1.028-1.12-1.868-1.12-.664 0-1.182.256-1.553.769-.37.512-.556 1.272-.556 2.277zm10.722 4.021c-1.074 0-1.948-.352-2.622-1.058-.674-.705-1.01-1.649-1.01-2.83v-.25c0-.786.15-1.488.45-2.105.3-.618.72-1.101 1.26-1.45a3.167 3.167 0 0 1 1.754-.524c1.03 0 1.83.34 2.402 1.018.571.678.857 1.65.857 2.915v.564h-5.369c.02.781.248 1.412.685 1.893.437.481.993.722 1.666.722.479 0 .884-.098 1.216-.293.332-.196.623-.455.872-.777l.827.645c-.664 1.02-1.66 1.53-2.988 1.53zm-.168-7.104c-.547 0-1.006.199-1.377.597-.371.398-.6.956-.689 1.674h3.97v-.103c-.039-.689-.225-1.222-.557-1.6-.332-.379-.78-.568-1.347-.568z" fill="#2A3052" fill-rule="nonzero"/></g></svg>