<svg width="32" height="24" xmlns="http://www.w3.org/2000/svg"><g fill="none" fill-rule="evenodd"><g fill-rule="nonzero"><path d="M22.203 15.987H1.797C.805 15.987 0 15.169 0 14.16V1.839C0 .831.805.013 1.797.013h20.406C23.195.013 24 .831 24 1.84v12.322c0 1.008-.805 1.826-1.797 1.826z" fill="#0D47A1"/><path d="M.414 8h.719l3.833-2.551V8h2.069V5.449L10.867 8h.72A.417.417 0 0 0 12 7.58v-.334L8.712 5.057H12V2.956H8.711L12 .767V.434a.417.417 0 0 0-.414-.42h-.719l-3.833 2.55V.014H4.965v2.55L1.258.097a1.807 1.807 0 0 0-1.017.83l3.048 2.029H0v2.101h3.289L0 7.247v.333c0 .232.185.42.414.42z" fill="#FFF"/><path d="M12 3.376v1.261H6.62V8H5.38V4.637H0V3.376h5.38V.013h1.24v3.363H12zM.386.71C.473.597.574.495.685.406l3.867 2.55h-.76L.386.71zm7.409 2.246h-.76L11.496.013h.09c.151 0 .278.087.35.211L7.795 2.956zm-3.6 2.101h.76L.491 8H.414a.408.408 0 0 1-.355-.216l4.135-2.727zm7.798 2.556a.416.416 0 0 1-.234.346l-4.4-2.902h.76l3.874 2.556z" fill="#F44336"/><path d="M18.538 13.339a.083.083 0 0 1-.048-.016l-.49-.355-.49.355a.082.082 0 0 1-.097 0 .085.085 0 0 1-.03-.094l.182-.583-.484-.363a.085.085 0 0 1-.03-.093.083.083 0 0 1 .078-.059l.602-.005.19-.58a.083.083 0 0 1 .08-.057c.035 0 .066.023.078.057l.19.58.602.005c.036 0 .067.024.078.059a.085.085 0 0 1-.03.093l-.484.363.182.583a.083.083 0 0 1-.08.11zm0-6.777a.083.083 0 0 1-.048-.016L18 6.19l-.49.356a.082.082 0 0 1-.097 0 .085.085 0 0 1-.03-.094l.182-.583-.484-.363a.085.085 0 0 1-.03-.094.083.083 0 0 1 .078-.058l.602-.005.19-.58a.083.083 0 0 1 .08-.057c.035 0 .066.023.078.057l.19.58.602.005c.036 0 .067.024.078.058a.085.085 0 0 1-.03.094l-.484.363.182.583a.083.083 0 0 1-.08.11zm2.896 2.101a.083.083 0 0 1-.048-.015l-.49-.356-.49.356a.082.082 0 0 1-.097 0 .085.085 0 0 1-.03-.094l.182-.583-.484-.363a.085.085 0 0 1-.03-.094.083.083 0 0 1 .079-.058l.602-.005.19-.58a.083.083 0 0 1 .079-.057c.035 0 .067.023.078.057l.19.58.603.005c.035 0 .067.023.078.058a.085.085 0 0 1-.03.094l-.484.363.182.583a.084.084 0 0 1-.08.11zm-5.793.841a.083.083 0 0 1-.048-.016l-.49-.355-.49.355a.082.082 0 0 1-.097 0 .085.085 0 0 1-.03-.094l.182-.582-.484-.364a.085.085 0 0 1-.03-.093.083.083 0 0 1 .079-.059l.602-.004.19-.58a.083.083 0 0 1 .079-.058c.035 0 .067.024.078.058l.19.58.602.004c.036 0 .068.024.079.059a.085.085 0 0 1-.03.093l-.484.364.182.582a.085.085 0 0 1-.03.094.083.083 0 0 1-.05.016z" stroke="#FFF" stroke-width=".2" fill="#F44336"/></g><rect stroke-opacity=".04" stroke="#000" x=".5" y=".5" width="23" height="15" rx="2"/><rect stroke-opacity=".04" stroke="#000" x=".5" y=".5" width="23" height="15" rx="2"/><g transform="translate(8 8)"><g fill-rule="nonzero"><path d="M22.203.013H1.797C.805.013 0 .831 0 1.84v12.322c0 1.008.805 1.826 1.797 1.826h20.406c.992 0 1.797-.818 1.797-1.826V1.839C24 .831 23.195.013 22.203.013z" fill="#FFF"/><ellipse fill="#ED293F" cx="12" cy="8" rx="4.552" ry="4.624"/></g><rect stroke-opacity=".04" stroke="#000" x=".5" y=".5" width="23" height="15" rx="2"/></g><rect stroke-opacity=".04" stroke="#000" x="8.5" y="8.5" width="23" height="15" rx="2"/></g></svg>