<svg width="32" height="32" xmlns="http://www.w3.org/2000/svg"><g fill="none" fill-rule="evenodd"><path d="M2 9h3v1H2V9zm5 0h3v1H7V9zm5 0h3v1h-3V9zm5 0h3v1h-3V9zm5 0h3v1h-3V9zm5 0h3v1h-3V9zM2 22h3v1H2v-1zm5 0h3v1H7v-1zm5 0h3v1h-3v-1zm5 0h3v1h-3v-1zm5 0h3v1h-3v-1zm5 0h3v1h-3v-1z" fill-opacity=".109" fill="#64809C"/><path d="M19.36 8h-1.13V3.648l-1.347.418v-.918l2.355-.843h.121V8zm5.675-2.352c0 .787-.163 1.388-.488 1.805-.326.417-.802.625-1.43.625-.62 0-1.094-.204-1.422-.613-.328-.409-.496-.995-.504-1.758V4.66c0-.794.165-1.397.495-1.808.329-.412.804-.618 1.423-.618.62 0 1.094.204 1.422.612.328.407.496.993.504 1.756v1.046zM23.906 4.5c0-.471-.064-.814-.193-1.03-.129-.214-.33-.322-.604-.322-.265 0-.461.103-.588.307-.126.205-.193.524-.2.96v1.382c0 .463.062.808.189 1.033.126.225.329.338.607.338.276 0 .475-.108.598-.324.122-.216.186-.547.191-.992V4.5zm5.719 1.148c0 .787-.163 1.388-.488 1.805-.326.417-.802.625-1.43.625-.62 0-1.094-.204-1.422-.613-.328-.409-.496-.995-.504-1.758V4.66c0-.794.165-1.397.494-1.808.33-.412.804-.618 1.424-.618.62 0 1.094.204 1.422.612.328.407.496.993.504 1.756v1.046zM28.496 4.5c0-.471-.064-.814-.193-1.03-.13-.214-.33-.322-.604-.322-.265 0-.461.103-.588.307-.126.205-.193.524-.2.96v1.382c0 .463.062.808.189 1.033.126.225.328.338.607.338.276 0 .475-.108.598-.324.122-.216.186-.547.191-.992V4.5z" fill="#465463"/><path d="M25.145 13.144a1.5 1.5 0 1 1 .705.709l-2.996 3a1.5 1.5 0 1 1-2.786.198l-1.736-1.302a1.493 1.493 0 0 1-1.479.105l-2 2a1.5 1.5 0 1 1-2.786.198l-1.735-1.303a1.493 1.493 0 0 1-1.479.105l-2 2a1.5 1.5 0 1 1-.707-.707l2-2a1.5 1.5 0 1 1 2.786-.198l1.736 1.302a1.493 1.493 0 0 1 1.479-.105l2-2a1.5 1.5 0 1 1 2.786-.198l1.735 1.303a1.493 1.493 0 0 1 1.479-.105l2.998-3.002zM5.5 20.25a.75.75 0 1 0 0-1.5.75.75 0 0 0 0 1.5zm4-4a.75.75 0 1 0 0-1.5.75.75 0 0 0 0 1.5zm4 3a.75.75 0 1 0 0-1.5.75.75 0 0 0 0 1.5zm4-4a.75.75 0 1 0 0-1.5.75.75 0 0 0 0 1.5zm4 3a.75.75 0 1 0 0-1.5.75.75 0 0 0 0 1.5zm5-5a.75.75 0 1 0 0-1.5.75.75 0 0 0 0 1.5z" fill="#64809C" fill-rule="nonzero"/><path d="M26 19.707l-1.146 1.147a.5.5 0 1 1-.708-.708l2-2a.5.5 0 0 1 .708 0l2 2a.5.5 0 1 1-.708.708L27 19.707V23.5a.5.5 0 0 1-1 0v-3.793z" fill="#32C0BD" fill-rule="nonzero"/><path d="M5 12.293V8.5a.5.5 0 0 1 1 0v3.793l1.146-1.147a.5.5 0 1 1 .708.708l-2 2a.5.5 0 0 1-.708 0l-2-2a.5.5 0 1 1 .708-.708L5 12.293z" fill="#E94A6B" fill-rule="nonzero"/></g></svg>