<svg width="32" height="32" xmlns="http://www.w3.org/2000/svg"><g fill="none" fill-rule="evenodd"><g transform="translate(5 6)"><path fill="#6E7287" d="M3 8h16v10H3z"/><path d="M2 18h18a1 1 0 0 1 1 1H1a1 1 0 0 1 1-1zM1 8h20a1 1 0 0 1-1 1H2a1 1 0 0 1-1-1z" fill="#D2D3DA"/><rect fill="#B0B3BF" y="19" width="22" height="1" rx=".5"/><path fill="#B0B3BF" d="M2.25 9h1.5v9h-1.5z"/><path d="M2.333 17h1.334c.184 0 .333.15.333.333V18H2v-.667c0-.184.15-.333.333-.333zM2 9h2v.667c0 .184-.15.333-.333.333H2.333A.333.333 0 0 1 2 9.667V9z" fill="#E9E9ED"/><path fill="#B0B3BF" d="M7.25 9h1.5v9h-1.5z"/><path d="M7.333 17h1.334c.184 0 .333.15.333.333V18H7v-.667c0-.184.15-.333.333-.333zM7 9h2v.667c0 .184-.15.333-.333.333H7.333A.333.333 0 0 1 7 9.667V9z" fill="#E9E9ED"/><path fill="#B0B3BF" d="M13.25 9h1.5v9h-1.5z"/><path d="M13.333 17h1.334c.184 0 .333.15.333.333V18h-2v-.667c0-.184.15-.333.333-.333zM13 9h2v.667c0 .184-.15.333-.333.333h-1.334A.333.333 0 0 1 13 9.667V9z" fill="#E9E9ED"/><path fill="#B0B3BF" d="M18.25 9h1.5v9h-1.5z"/><path d="M18.333 17h1.334c.184 0 .333.15.333.333V18h-2v-.667c0-.184.15-.333.333-.333zM18 9h2v.667c0 .184-.15.333-.333.333h-1.334A.333.333 0 0 1 18 9.667V9z" fill="#E9E9ED"/><path stroke="#B0B3BF" fill="#F4F4F6" stroke-linecap="round" stroke-linejoin="round" d="M.5 7.5h21L11 .5z"/><circle fill="#B0B3BF" cx="11" cy="4" r="1"/></g><g transform="translate(17 3)"><g fill-rule="nonzero"><path d="M11.101.007H.9A.906.906 0 0 0 0 .92v6.16c0 .505.402.913.899.913H11.1a.906.906 0 0 0 .9-.913V.92a.906.906 0 0 0-.899-.913z" fill="#0D47A1"/><path d="M11.988.769A.903.903 0 0 0 11.1.007h-.234l-3.833 2.55V.008H4.966v2.55L1.133.008H.899A.903.903 0 0 0 .012.77l3.276 2.18H0v2.102h3.288L.012 7.23a.903.903 0 0 0 .887.762h.234l3.833-2.55v2.55h2.068v-2.55l3.833 2.55h.234c.446 0 .816-.33.887-.762L8.712 5.05H12V2.949H8.712L11.988.77z" fill="#FFF"/><path d="M6.62.007v3.362H12v1.262H6.62v3.362H5.38V4.631H0V3.369h5.38V.007h1.24zM.582 7.935a.9.9 0 0 1-.365-.261l3.978-2.623h.76L.581 7.935zM8.118 5.05l3.764 2.482a.911.911 0 0 1-.288.31l-4.236-2.79h.76zM.095.51A.913.913 0 0 1 .363.187l4.189 2.762h-.76L.095.511zm7.7 2.438h-.76L11.411.063a.9.9 0 0 1 .368.258L7.795 2.95z" fill="#F44336"/></g><rect stroke-opacity=".04" stroke="#000" stroke-width=".5" x=".25" y=".25" width="11.5" height="7.5" rx="1"/></g></g></svg>