<svg width="320" height="220" viewBox="0 0 320 220" fill="none" xmlns="http://www.w3.org/2000/svg"><path d="M140.662 135.775c-.059 3.833-.291 12.112-5.355 20.915-3.5 6.084-7.886 9.94-10.703 12.059q-5.504 3.016-11.011 6.03a34 34 0 0 0 5.532-4.135c8.046-7.407 10.13-16.461 11.029-20.632 2.319-10.742-.189-19.331-1.409-23.325-1.164-3.819-5.772-18.14-20.216-27.459-3.872-2.5-12.522-7.912-24.532-7.37-2.215.101-8.043.435-14.525 3.538q5.067-3.014 10.13-6.028a41.8 41.8 0 0 1 12.685-2.806c2.839-.173 11.044-.376 20.227 3.874 7.574 3.502 12.063 8.296 14.74 11.211 6.747 7.351 9.603 14.661 10.413 16.875 2.966 8.109 3.035 14.917 2.998 17.255z" fill="#EBECEE" stroke="#000" stroke-width=".754" stroke-linecap="round" stroke-linejoin="round"/><path d="M128.743 126.687c1.221 3.997 3.728 12.586 1.41 23.328-.9 4.171-2.987 13.225-11.032 20.632-10.322 9.503-23.08 9.503-27.032 9.31-12.207-.595-20.332-6.932-24.26-9.994-3.513-2.741-12.091-10.197-16.462-23.167-1.39-4.128-4.668-14.309-1.303-26.652 1.119-4.105 4.056-14.286 13.957-21.501 8.436-6.15 17.145-6.66 19.97-6.786 12.011-.54 20.662 4.872 24.535 7.371 14.443 9.32 19.05 23.638 20.217 27.459" fill="#F6F7F8" stroke="#000" stroke-width=".754" stroke-linecap="round" stroke-linejoin="round"/><path d="M107.098 129.092c-1.999-2.135-3.795-3.57-5.055-4.474a21 21 0 0 0-2.731-1.671c-1.232-.627-2.065-1.044-3.28-1.21a8.5 8.5 0 0 0-2.7.093c-.559.106-1.33.26-2.193.733a6.5 6.5 0 0 0-2.245 2.067l13.696 8.682-3.977 5.492-13.59-8.417a20.7 20.7 0 0 0-1.923 4.09l12.783 8.055-4.02 5.483-10.641-6.611a14 14 0 0 0-.226 2.487c-.005 1.075-.01 2.559.64 4.195.641 1.62 1.616 2.607 2.352 3.353 1.353 1.37 2.666 2.084 4.138 2.881 1.374.746 2.488 1.184 3.424 1.546a37 37 0 0 0 4.135 1.334l-1.614 8.326a35.5 35.5 0 0 1-8.594-2.94c-2.817-1.392-6.808-3.363-10.12-7.739-2.56-3.379-3.507-6.602-3.784-7.623-1.415-5.256-.47-9.689.11-11.747l-4.435-3.015q1.447-3.1 2.899-6.202 1.934 1.22 3.864 2.441l2.061-3.896-4.082-2.822 3.04-5.866 4.715 2.885a20.7 20.7 0 0 1 3.553-3.485c.949-.729 2.53-1.919 4.903-2.757.868-.305 2.069-.72 3.704-.8 1.38-.066 2.379.136 3.752.427a27 27 0 0 1 5.367 1.739c.65.288 2.643 1.204 4.957 2.858a30 30 0 0 1 3.77 3.206 32 32 0 0 1 2.636 2.983l-5.286 5.921z" fill="#7989FB" stroke="#000" stroke-width=".754" stroke-linecap="round" stroke-linejoin="round"/><path d="M112.738 246.049c1.19 8.427-.195 14.942-.684 17.009-.54 2.276-1.298 5.377-3.289 9.032a32.4 32.4 0 0 1-7.716 9.369l-3.716 2.897-9.976 6.092c6.794-4.46 10.228-10.319 11.348-12.294 5.884-10.362 4.702-20.434 4.15-25.128-1.814-15.446-10.812-25.186-13.474-27.984-2.976-3.129-9.623-9.945-20.713-13.044-3.645-1.016-12.882-3.462-23.146.293a33.3 33.3 0 0 0-5.187 2.424l9.926-6.569a28 28 0 0 1 4.7-2.406c5.834-2.326 10.97-2.089 14.478-1.894 5.468.309 9.6 1.595 11.263 2.16 8.492 2.887 13.802 7.778 16.507 10.322 2.235 2.103 7.395 7.342 11.283 15.676 3.097 6.638 3.994 12.253 4.246 14.045" fill="#EBECEE" stroke="#000" stroke-width=".754" stroke-linecap="round" stroke-linejoin="round"/><path d="M32.02 273.812a49.5 49.5 0 0 1-5.005-9.449c-1.135-2.846-3.385-8.638-3.527-16.542-.052-2.897-.1-9.369 3.045-16.849 1.168-2.78 3.278-7.648 8.18-12.166 1.1-1.014 4.871-4.345 10.813-6.518 10.264-3.755 19.502-1.309 23.147-.29 11.09 3.098 17.736 9.912 20.712 13.041 2.662 2.798 11.659 12.539 13.475 27.986.551 4.692 1.733 14.764-4.148 25.125-1.383 2.435-6.281 10.78-16.664 15.12-12.67 5.296-24.258.768-27.326-.433-8.239-3.219-13.703-8.758-16.793-11.891-3.237-3.281-5.252-6.175-5.907-7.137zm131.815-12.528c-.306-5.6.508-9.845.977-12.209.304-1.536 1.334-6.372 4.037-12.353 1.883-4.166 5.2-11.313 12.417-18.013 2.536-2.354 6.678-6.125 13.29-8.708 3.353-1.31 8.896-3.472 16.005-2.351 1.378.217 6.558 1.149 11.754 4.955 9.061 6.635 11.256 16.941 12.203 21.373 2.366 11.107-.385 20.062-1.958 24.963-1.746 5.446-5.365 13.798-12.865 21.444-3.577 3.647-8.577 8.745-16.976 11.371-3.319 1.038-10.708 3.347-19.09.317-7.876-2.849-12.079-8.768-13.549-10.896-2.794-4.048-3.985-7.972-4.636-10.174-.27-.914-1.333-4.636-1.611-9.718z" fill="#F6F7F8" stroke="#000" stroke-width=".754" stroke-linecap="round" stroke-linejoin="round"/><path d="M246.265 262.929c-1.371 4.865-4.502 13.459-11.72 21.668-2.668 3.035-6.589 7.41-13.249 10.769-2.856 1.44-9.106 4.499-17.393 4.052a31 31 0 0 1-6.176-.973l-14.098-6.372c8.382 3.032 15.768.722 19.09-.315 8.396-2.626 13.397-7.723 16.974-11.37 7.499-7.646 11.119-15.998 12.865-21.444 1.573-4.899 4.326-13.857 1.957-24.963-.943-4.431-3.139-14.737-12.2-21.374a27.5 27.5 0 0 0-4.686-2.76l15.299 6.467q1.996 1.261 3.997 2.521a34.6 34.6 0 0 1 4.37 4.912c3.811 5.213 5.162 10.153 5.83 12.684 3.128 11.879.161 22.874-.86 26.498" fill="#EBECEE" stroke="#000" stroke-width=".754" stroke-linecap="round" stroke-linejoin="round"/><path d="M143.94 258.428c-12.008-.21-20.353-5.522-23.71-7.723-12.976-8.504-17.819-20.782-19.384-24.923-1.518-4.015-6.77-18.574-.913-35.562 1.376-3.988 6.358-17.763 20.516-25.97 9.663-5.6 18.841-5.851 20.984-5.871 1.687-.014 8.44.029 16.439 3.236 11.887 4.766 18.41 13.264 20.811 16.478 1.648 2.203 9.66 13.293 10.431 29.72.524 11.146-2.54 19.347-3.212 21.076-1.458 3.759-5.365 13.457-15.621 20.968-2.652 1.942-12.328 8.815-26.344 8.571z" fill="#F6F7F8" stroke="#000" stroke-width=".754" stroke-linecap="round" stroke-linejoin="round"/><path d="M99.932 190.221c-5.86 16.988-.605 31.547.913 35.561 1.565 4.141 6.407 16.42 19.383 24.924 3.357 2.2 11.703 7.515 23.71 7.722a41.6 41.6 0 0 0 8.877-.799l-11.299 2.601a35 35 0 0 1-5.124.515c-1.163.031-4.69-.01-9.811-1.111-8.034-1.725-13.654-5.011-15.631-6.24-10.365-6.448-15.328-15.38-17.268-18.968-1.74-3.224-6.795-13.379-6.426-27.27.107-4.025.423-12.457 5.247-21.885 0 0 5.56-10.867 15.379-17.531 4.031-2.736 8.525-4.579 8.525-4.579a47 47 0 0 1 4.79-1.664q5.695-1.012 11.391-2.021a43.9 43.9 0 0 0-12.141 4.773c-14.158 8.208-19.14 21.981-20.516 25.972" fill="#EBECEE" stroke="#000" stroke-width=".754" stroke-linecap="round" stroke-linejoin="round"/><path d="m139.946 182.027.387-8.321 8.889.898-.332 7.983a35.5 35.5 0 0 1 10.409 3.698q-1.29 4.523-2.581 9.042c-.838-.458-2-1.054-3.426-1.656-1.333-.565-2.808-1.177-4.832-1.638-.259-.058-2.22-.491-4.768-.514-1.056-.009-1.895.055-2.801.469-.373.17-1.059.495-1.637 1.236a3.94 3.94 0 0 0-.778 1.781c-.179 1.078.145 1.922.311 2.339.389.973.99 1.558 1.465 2.015.629.603 1.204.953 1.941 1.373a60 60 0 0 0 3.629 1.905c.657.318 2.435 1.184 4.164 2.236 1.144.695 3.035 1.86 5.066 3.816 1.102 1.062 1.983 1.91 2.849 3.326.324.532 1.373 2.328 1.821 4.941.102.594.461 2.912-.183 5.831-.243 1.091-.688 3.02-2.123 5.087a13 13 0 0 1-3.173 3.204c-2.904 2.051-5.925 2.35-7.327 2.395q-.257 4.775-.519 9.547-4.447-.456-8.894-.916l.283-9.253a31 31 0 0 1-4.476-1.005 32.7 32.7 0 0 1-5.071-2.056 34 34 0 0 1-3.412-1.979q1.751-4.281 3.504-8.561a41 41 0 0 0 3.492 1.889c1.781.856 3.374 1.609 5.622 2.147 1.645.394 2.913.496 3.964.581 1.976.161 2.881.042 3.355-.038 1.008-.171 1.716-.293 2.446-.829 1.313-.964 1.604-2.468 1.671-2.842.286-1.597-.346-2.834-.555-3.231-.527-.993-1.222-1.519-2.263-2.306-.831-.63-1.477-.975-3.044-1.795-1.867-.977-3.079-1.6-3.57-1.854-2.618-1.358-3.928-2.039-5.384-3.074-1.532-1.092-2.787-1.982-3.988-3.616-.359-.489-1.725-2.414-2.331-5.335-.576-2.773-.158-4.966.064-6.071.251-1.25.665-3.205 2.097-5.284a12.3 12.3 0 0 1 3.211-3.208c1.62-1.089 3.126-1.514 4.292-1.841a19 19 0 0 1 2.532-.525z" fill="#78CBD4" stroke="#000" stroke-width=".754" stroke-linecap="round" stroke-linejoin="round"/><path d="M32.542 156.497q-.822-2.28-1.64-4.558l-9.362-2.896 4.936 13.248 6.068-5.794zm18.513 11.581q-2.336-6.63-4.67-13.261l-9.295-2.659 4.886 13.194z" fill="#FF535E" stroke="#000" stroke-width=".754" stroke-linecap="round" stroke-linejoin="round"/><path d="m23.801 194.148-4.482 4.349-9.27-2.763 10.62-9.969 3.13 8.386zm21.579-2.895q-5.275 5.126-10.549 10.257l-9.307-2.744 10.703-10.134z" fill="#FF444F" stroke="#000" stroke-width=".754" stroke-linecap="round" stroke-linejoin="round"/><path d="m40.71 178.249 4.672 13.005-9.154-2.622-4.855-13.127 9.335 2.745z" fill="#FF535E" stroke="#000" stroke-width=".754" stroke-linecap="round" stroke-linejoin="round"/><path d="m41.974 165.352 9.08 2.726-10.345 10.172-9.336-2.745z" fill="#FF444F" stroke="#000" stroke-width=".754" stroke-linecap="round" stroke-linejoin="round"/><path d="M15.7 172.46 5.073 182.504l4.976 13.228q5.31-4.987 10.619-9.969l4.854 13.001q5.352-5.066 10.703-10.134c-1.62-4.374-3.237-8.752-4.856-13.126L41.97 165.35l-4.886-13.194-10.61 10.132-4.936-13.248-10.69 10.356 4.85 13.063z" fill="#FF7E88" stroke="#000" stroke-width=".754" stroke-linecap="round" stroke-linejoin="round"/><path d="m214.959 151.671-4.944 14.122-4.152 4.915 4.845-14.237 4.252-4.802z" fill="#FF535E" stroke="#000" stroke-width=".754" stroke-linecap="round" stroke-linejoin="round"/><path d="m165.128 135.574 4.306-4.756 45.528 20.853-4.252 4.802-45.58-20.898z" fill="#FF7E88" stroke="#000" stroke-width=".754" stroke-linecap="round" stroke-linejoin="round"/><path d="m165.128 135.574 45.58 20.898q-2.42 7.117-4.844 14.237l-45.734-21.087z" fill="#FF444F" stroke="#000" stroke-width=".754" stroke-linecap="round" stroke-linejoin="round"/><path d="M164.473 77.558q3.922 10.755 7.841 21.514l-.324 9.822-7.79-21.513.272-9.822z" fill="#FF535E" stroke="#000" stroke-width=".754" stroke-linecap="round" stroke-linejoin="round"/><path d="m164.202 87.381.271-9.822-30.277 5.157-.169 9.981z" fill="#FF7E88" stroke="#000" stroke-width=".754" stroke-linecap="round" stroke-linejoin="round"/><path d="m171.99 108.895-7.789-21.513-30.176 5.317z" fill="#FF444F" stroke="#000" stroke-width=".754" stroke-linecap="round" stroke-linejoin="round"/></svg>