<svg xmlns="http://www.w3.org/2000/svg" fill="none" viewBox="0 0 448 173"><path fill="#EBECEE" stroke="#000" stroke-linecap="round" stroke-linejoin="round" stroke-width=".677" d="M101.71 59.051c3.27 2.685 10.263 8.576 14.39 19 2.851 7.205 3.17 13.643 3.065 17.534q-1.174 6.826-2.355 13.655c.318-2.394.421-4.94.228-7.621-.872-12.04-7.262-20.063-10.247-23.706-7.688-9.386-16.83-13.123-21.12-14.814-4.099-1.62-19.636-7.482-37.61-1.41-4.819 1.627-15.437 5.379-23.219 16.126-1.435 1.982-5.15 7.246-6.922 14.978q.878-6.45 1.752-12.894a46.1 46.1 0 0 1 6.289-12.885c1.8-2.571 7.262-9.798 17.242-14.81 8.228-4.135 15.454-4.718 19.812-5.027C74 46.4 82.277 48.959 84.747 49.78c9.042 3.012 14.972 7.631 16.966 9.27z"/><path fill="#F6F7F8" stroke="#000" stroke-linecap="round" stroke-linejoin="round" stroke-width=".677" d="M85.674 63.096c4.29 1.692 13.433 5.429 21.121 14.815 2.985 3.643 9.374 11.668 10.246 23.708 1.119 15.448-7.645 26.467-10.526 29.748-8.9 10.135-19.956 12.799-25.3 14.086-4.78 1.152-17.116 3.437-31.323-1.702-4.52-1.636-15.568-5.802-23.92-17.192-2.778-3.787-9.555-13.321-8.987-26.832.482-11.513 6.025-19.386 7.857-21.914 7.783-10.746 18.402-14.498 23.222-16.127 17.972-6.07 33.507-.209 37.61 1.41"/><path fill="#7989FB" stroke="#000" stroke-linecap="round" stroke-linejoin="round" stroke-width=".677" d="M72.882 83.446c-3.218.259-5.692.824-7.338 1.292a23 23 0 0 0-3.32 1.21c-1.388.633-2.32 1.067-3.3 2.002a9.4 9.4 0 0 0-1.772 2.395c-.294.556-.69 1.328-.873 2.399a7.2 7.2 0 0 0 .242 3.36l16.91-5.864 2.012 7.21-16.608 5.954a22.7 22.7 0 0 0 2.213 4.472l15.74-5.506 1.976 7.241-13.022 4.648c.455.518 1.114 1.2 1.994 1.904.925.743 2.203 1.768 4.063 2.331 1.84.559 3.363.395 4.513.272 2.113-.227 3.632-.87 5.331-1.593 1.588-.675 2.732-1.336 3.688-1.896a41 41 0 0 0 3.993-2.655l6.084 7.116a39.2 39.2 0 0 1-8.444 5.403c-3.137 1.476-7.581 3.569-13.637 3.423-4.677-.112-8.113-1.508-9.186-1.971-5.512-2.39-8.693-6.253-10.072-8.169l-5.651 1.76-3.367-6.767q2.384-.832 4.764-1.66-.977-2.23-1.95-4.458l-5.242 1.586-2.98-6.658 5.73-2.089a22.8 22.8 0 0 1-.569-5.464c.023-1.32.08-3.504.987-6.13.332-.96.799-2.282 1.853-3.749.891-1.237 1.752-1.961 2.947-2.948a29.7 29.7 0 0 1 5.188-3.44 31.7 31.7 0 0 1 5.874-2.318 33.5 33.5 0 0 1 5.36-1.053 35 35 0 0 1 4.389-.227l1.483 8.636z"/><path fill="#EBECEE" stroke="#000" stroke-linecap="round" stroke-linejoin="round" stroke-width=".677" d="M430.097 51.68c-4.347-4.525-9.175-6.547-10.917-7.25-8.704-3.514-16.403-2.005-21.658-.98-15.827 3.097-25.825 12.91-30.137 17.258-4.231 4.264-10.355 10.569-13.923 20.864-1.804 5.206-6.821 19.682.921 32.246a28 28 0 0 0 3.689 4.749l-10.77-10.958a26.6 26.6 0 0 1-3.772-4.705c-.591-.942-2.965-4.852-3.957-11.353-1.347-8.808.805-16.072 1.842-19.448 2.833-9.215 7.523-15.223 10.202-18.592 2.959-3.718 9.692-11.324 20.715-16.99 3.167-1.63 8.606-4.369 16.299-5.592 3.838-.608 8.774-1.344 14.937.084 6.302 1.46 10.784 4.467 13.261 6.422q6.634 7.12 13.268 14.245"/><path fill="#F6F7F8" stroke="#000" stroke-miterlimit="10" stroke-width=".677" d="M353.468 81.572c3.568-10.295 9.689-16.6 13.921-20.864 4.312-4.347 14.31-14.16 30.14-17.255 5.254-1.029 12.954-2.534 21.658.98 2.332.94 10.184 4.244 15.023 12.741 4.451 7.817 3.725 15.413 3.278 20.08-1.077 11.247-6.404 18.977-9.873 24.013-6.12 8.881-13.047 14.088-16.447 16.4-4.502 3.064-12.649 8.473-24.41 9.774-4.814.533-11.602 1.284-19.215-2.186-2.604-1.189-8.887-4.504-13.156-11.434-7.743-12.566-2.725-27.042-.918-32.246z"/><path fill="#53AE95" stroke="#000" stroke-miterlimit="10" stroke-width=".677" d="M397.549 91.023q-2.1 9.702-4.206 19.401l-9.573.872 4.193-19.448a84 84 0 0 0 9.586-.825Z"/><path fill="#F6F7F8" d="M400.232 79.43c9.755-.237 19.795 1 20.05 3.4.319 2.97-14.34 7.64-27.665 8.755-10.953.916-24.926-.243-25.238-3.079-.288-2.633 11.217-6.654 23.154-8.302"/><path stroke="#000" stroke-miterlimit="10" stroke-width=".677" d="M400.232 79.43c9.755-.237 19.795 1 20.05 3.4.319 2.97-14.34 7.64-27.665 8.755-10.953.916-24.926-.243-25.238-3.079-.288-2.633 11.217-6.654 23.154-8.302"/><path fill="#53AE95" stroke="#000" stroke-miterlimit="10" stroke-width=".677" d="m379.309 67.288 38.242-3.699-1.948 9.52c-4.773.478-9.543.951-14.316 1.428l-3.142 13.773-9.639 1.034 3.101-13.994q-7.196.663-14.393 1.324z"/><path fill="#EBECEE" stroke="#000" stroke-linecap="round" stroke-linejoin="round" stroke-width=".677" d="M192.417 70.784c1.023 9.34-.728 16.481-1.339 18.745-.674 2.492-1.616 5.889-3.938 9.853a35.8 35.8 0 0 1-8.833 10.075l-4.199 3.07-11.214 6.381c7.648-4.689 11.637-11.038 12.941-13.178 6.845-11.233 5.888-22.387 5.44-27.585-1.471-17.105-11.063-28.16-13.903-31.338-3.175-3.555-10.273-11.303-22.4-15.1-3.986-1.246-14.092-4.261-25.544-.469a37 37 0 0 0-5.805 2.498l11.175-6.909a31 31 0 0 1 5.267-2.494c6.516-2.367 12.174-1.93 16.036-1.595 6.021.527 10.536 2.087 12.35 2.767 9.269 3.476 14.96 9.054 17.855 11.954 2.394 2.396 7.906 8.354 11.909 17.683 3.189 7.43 3.985 13.656 4.202 15.642"/><path fill="#F6F7F8" stroke="#000" stroke-linecap="round" stroke-linejoin="round" stroke-width=".677" d="M102.425 98.66a54.7 54.7 0 0 1-5.196-10.597c-1.155-3.18-3.438-9.648-3.323-18.373.042-3.198.21-10.341 3.936-18.488 1.385-3.027 3.88-8.327 9.441-13.144 1.249-1.082 5.523-4.629 12.152-6.823 11.452-3.793 21.558-.778 25.544.47 12.127 3.798 19.225 11.544 22.4 15.098 2.84 3.178 12.431 14.233 13.903 31.34.448 5.196 1.405 16.35-5.438 27.582-1.609 2.639-7.298 11.679-18.901 16.113-14.158 5.412-26.786.019-30.129-1.411-8.977-3.833-14.814-10.131-18.116-13.694-3.458-3.731-5.581-6.992-6.271-8.076z"/><path fill="#F7931A" stroke="#000" stroke-linecap="round" stroke-linejoin="round" stroke-width=".677" d="M159.553 73.588c-.659-.94-2.038-2.853-4.646-4.1-.804-.383-2.927-1.365-5.717-1.04a10 10 0 0 0-3.256.964c.482-.846 2.307-4.278 1.306-8.531-.314-1.332-1.177-3.915-3.511-5.908-.267-.228-1.431-1.197-3.238-1.895-.81-.313-2.127-.808-3.901-.76a9.1 9.1 0 0 0-3.133.653q-1.143.676-2.288 1.349l-4.889-8.038-4.55 2.593 4.707 8.003q-1.74 1.11-3.479 2.222l-4.972-7.947-4.423 2.719 4.732 7.965q-4.14 2.536-8.28 5.076l3.487 5.207 2.008-1.33a2.9 2.9 0 0 1 1.147-.576c.318-.08.792-.194 1.324.005.659.248.963.818 1.049.991l13.779 23.118c.091.148.446.756.297 1.545-.19 1.01-1.043 1.471-1.153 1.529l-2.603 1.515q1.672 2.71 3.348 5.417l8.08-5.053 4.95 8.201 4.459-2.676q-2.45-4.094-4.897-8.188c1.224-.714 2.447-1.424 3.672-2.138l4.92 8.059q2.252-1.406 4.505-2.81l-4.931-8.107c.426-.198 1.02-.491 1.712-.882 2.125-1.2 4.092-2.31 5.38-4.238 1.53-2.291 1.457-4.779 1.424-5.986-.101-3.57-1.779-6.028-2.415-6.934zm-34.411-8.436c1.841-1.14 3.685-2.276 5.526-3.416a5.7 5.7 0 0 1 4.061-.994 6 6 0 0 1 2.82 1.21c1.096.857 1.581 1.85 1.931 2.568.315.645.748 1.557.813 2.824.035.677.109 2.128-.857 3.323a3.8 3.8 0 0 1-.97.851l-6.918 4.286-6.406-10.65zm27.3 15.474c.118.62.31 1.67-.028 2.925a5.2 5.2 0 0 1-.618 1.438 4.9 4.9 0 0 1-1.704 1.61l-8.747 5.265-6.591-10.548 9.353-5.765c.344-.194.91-.455 1.646-.55 1.149-.146 2.031.206 2.619.446a6.75 6.75 0 0 1 2.84 2.235c.88 1.2 1.116 2.36 1.23 2.944"/><path fill="#F6F7F8" stroke="#000" stroke-linecap="round" stroke-linejoin="round" stroke-width=".677" d="M265.994 114.168c-.145-6.19.898-10.845 1.496-13.438.389-1.685 1.691-6.986 4.878-13.493 2.219-4.532 6.124-12.304 14.315-19.45 2.879-2.512 7.577-6.531 14.959-9.156 3.745-1.33 9.933-3.526 17.737-2.047 1.512.287 7.194 1.492 12.796 5.87 9.767 7.63 11.835 19.076 12.726 24 2.23 12.335-1.113 22.123-3.016 27.477-2.113 5.949-6.392 15.041-14.928 23.221-4.071 3.902-9.762 9.356-19.116 11.967-3.698 1.033-11.928 3.327-21.069-.302-8.59-3.413-13.024-10.088-14.573-12.486-2.942-4.562-4.121-8.932-4.764-11.383-.267-1.019-1.312-5.162-1.444-10.779z"/><path fill="#EBECEE" stroke="#000" stroke-linecap="round" stroke-linejoin="round" stroke-width=".677" d="M356.868 118.8c-1.679 5.321-5.428 14.697-13.673 23.509-3.047 3.257-7.523 7.951-14.984 11.43-3.2 1.491-10.2 4.653-19.326 3.876a34 34 0 0 1-6.78-1.284l-15.332-7.513c9.142 3.632 17.369 1.335 21.069.305 9.352-2.611 15.043-8.065 19.114-11.967 8.536-8.18 12.815-17.272 14.928-23.221 1.904-5.352 5.248-15.142 3.016-27.478-.888-4.92-2.956-16.368-12.723-24a30.4 30.4 0 0 0-5.075-3.207l16.654 7.66 4.323 2.917a38 38 0 0 1 4.652 5.57c4.025 5.882 5.346 11.378 5.995 14.194 3.043 13.214-.607 25.245-1.858 29.209"/><path fill="#5C616D" stroke="#000" stroke-linecap="round" stroke-linejoin="round" stroke-width=".677" d="M321.612 99.19 305.7 91.24l-.257-18.326zm-.001 0-15.904 10.611-15.68-2.161q7.836-8.203 15.673-16.4z"/><path fill="#5C616D" stroke="#000" stroke-linecap="round" stroke-linejoin="round" stroke-width=".677" d="m305.704 91.238-.257-18.326-15.416 34.727q7.836-8.203 15.673-16.401m15.85 13.956-15.69 10.317.162 21.347 15.531-31.662zm-15.694 10.317-15.8-1.961 15.962 23.308z"/><path fill="#F6F7F8" stroke="#000" stroke-linecap="round" stroke-linejoin="round" stroke-width=".677" d="M234.247 142.418c-13.238-.642-22.262-6.788-25.889-9.331-14.022-9.827-18.942-23.541-20.527-28.163-1.536-4.482-6.831-20.726.214-39.27 1.655-4.354 7.623-19.383 23.523-27.955 10.852-5.85 20.985-5.812 23.349-5.761 1.862.042 9.31.32 18.022 4.131 12.95 5.665 19.853 15.265 22.392 18.893 1.742 2.488 10.199 14.998 10.486 33.15.195 12.317-3.466 21.261-4.267 23.146-1.737 4.097-6.38 14.665-17.951 22.602-2.992 2.052-13.902 9.306-29.354 8.558z"/><path fill="#EBECEE" stroke="#000" stroke-linecap="round" stroke-linejoin="round" stroke-width=".677" d="M188.047 65.652c-7.047 18.545-1.75 34.789-.213 39.271 1.584 4.623 6.504 18.337 20.527 28.164 3.628 2.542 12.652 8.691 25.89 9.331a46 46 0 0 0 9.82-.579l-12.554 2.484c-1.406.2-3.349.403-5.67.394-1.284-.006-5.173-.172-10.785-1.562-8.803-2.178-14.89-5.995-17.029-7.419-11.212-7.469-16.38-17.494-18.397-21.52-1.81-3.616-7.037-14.994-6.153-30.31.256-4.438.894-13.731 6.539-23.97 0 0 6.508-11.8 17.568-18.818 4.54-2.881 9.562-4.762 9.562-4.762a52 52 0 0 1 5.34-1.672q6.318-.922 12.635-1.84a48.4 48.4 0 0 0-13.556 4.85c-15.9 8.575-21.869 23.602-23.524 27.958"/><path fill="#78CBD4" stroke="#000" stroke-linecap="round" stroke-linejoin="round" stroke-width=".677" d="m232.467 57.98.712-9.168 9.774 1.294-.64 8.798a39.2 39.2 0 0 1 11.356 4.436l-3.157 9.889a41 41 0 0 0-3.724-1.945c-1.451-.668-3.057-1.394-5.274-1.972-.283-.073-2.432-.617-5.241-.73-1.165-.046-2.092-.004-3.106.422-.417.174-1.185.51-1.849 1.307a4.35 4.35 0 0 0-.919 1.94c-.234 1.183.094 2.124.263 2.59.396 1.087 1.038 1.754 1.546 2.274.673.687 1.296 1.093 2.095 1.581a65 65 0 0 0 3.938 2.227c.714.373 2.645 1.39 4.516 2.61 1.238.804 3.285 2.155 5.458 4.383 1.179 1.21 2.122 2.174 3.028 3.767.339.598 1.435 2.615 1.839 5.514.092.66.409 3.229-.402 6.428-.305 1.196-.862 3.308-2.516 5.54a14.4 14.4 0 0 1-3.61 3.428c-3.275 2.164-6.618 2.39-8.165 2.392q-.449 5.26-.901 10.517-4.89-.656-9.779-1.315l.63-10.2a34 34 0 0 1-4.904-1.262 36 36 0 0 1-5.523-2.442 37 37 0 0 1-3.696-2.301l4.159-9.326a45 45 0 0 0 3.788 2.204c1.934 1.005 3.667 1.891 6.128 2.56 1.801.492 3.196.647 4.352.778 2.174.244 3.177.144 3.702.072 1.119-.154 1.904-.264 2.728-.831 1.481-1.019 1.854-2.669 1.941-3.079.37-1.753-.284-3.138-.502-3.584-.547-1.113-1.295-1.718-2.416-2.622-.896-.723-1.597-1.126-3.297-2.084-2.027-1.143-3.342-1.87-3.875-2.168-2.841-1.588-4.263-2.384-5.833-3.576-1.654-1.257-3.007-2.282-4.275-4.126-.38-.552-1.821-2.723-2.389-5.966-.54-3.08-.004-5.485.279-6.698.32-1.37.844-3.513 2.495-5.758a13.6 13.6 0 0 1 3.652-3.43c1.824-1.147 3.5-1.565 4.798-1.885a21 21 0 0 1 2.811-.493z"/><path fill="#FF535E" stroke="#000" stroke-linecap="round" stroke-linejoin="round" stroke-width=".677" d="m330.737 10.273-1.282-3.567-7.325-2.265 3.861 10.365q2.375-2.266 4.748-4.534zm14.49 9.06q-1.829-5.186-3.653-10.374l-7.273-2.081 3.823 10.322z"/><path fill="#FF444F" stroke="#000" stroke-linecap="round" stroke-linejoin="round" stroke-width=".677" d="m323.904 39.729-3.506 3.402-7.252-2.161 8.308-7.8 2.449 6.561zm16.878-2.266-8.254 8.025-7.281-2.147 8.373-7.928z"/><path fill="#FF535E" stroke="#000" stroke-linecap="round" stroke-linejoin="round" stroke-width=".677" d="m337.133 27.29 3.655 10.174-7.162-2.05-3.798-10.27q3.653 1.072 7.303 2.147z"/><path fill="#FF444F" stroke="#000" stroke-linecap="round" stroke-linejoin="round" stroke-width=".677" d="m338.124 17.2 7.103 2.133-8.093 7.958q-3.654-1.073-7.304-2.148z"/><path fill="#FF7E88" stroke="#000" stroke-linecap="round" stroke-linejoin="round" stroke-width=".677" d="m317.566 22.762-8.315 7.857 3.894 10.349 8.307-7.8 3.798 10.172 8.373-7.928-3.799-10.27q4.148-3.97 8.294-7.943l-3.823-10.322-8.301 7.926-3.861-10.364q-4.182 4.05-8.363 8.102l3.794 10.22z"/><path fill="#FF535E" stroke="#000" stroke-linecap="round" stroke-linejoin="round" stroke-width=".677" d="m172.121 149.778-3.868 11.048-3.248 3.845 3.79-11.138 3.327-3.757z"/><path fill="#FF7E88" stroke="#000" stroke-linecap="round" stroke-linejoin="round" stroke-width=".677" d="m133.138 137.184 3.368-3.721 35.619 16.315-3.327 3.757-35.659-16.35z"/><path fill="#FF444F" stroke="#000" stroke-linecap="round" stroke-linejoin="round" stroke-width=".677" d="m133.142 137.184 35.659 16.349-3.79 11.138-35.779-16.497z"/><path fill="#FF535E" stroke="#000" stroke-linecap="round" stroke-linejoin="round" stroke-width=".677" d="M190.741 47.837q3.41 9.353 6.818 18.708-.14 4.271-.282 8.54l-6.773-18.706.236-8.54z"/><path fill="#FF7E88" stroke="#000" stroke-linecap="round" stroke-linejoin="round" stroke-width=".677" d="m190.506 56.379.235-8.541-26.326 4.484-.148 8.68z"/><path fill="#FF444F" stroke="#000" stroke-linecap="round" stroke-linejoin="round" stroke-width=".677" d="m197.277 75.086-6.773-18.706-26.239 4.622 33.01 14.085z"/><path fill="#FF535E" stroke="#000" stroke-linecap="round" stroke-linejoin="round" stroke-width=".677" d="M266.351 149.931q-5.056-8.27-10.11-16.542l-1.377-8.205 10.068 16.548 1.42 8.197z"/><path fill="#FF444F" stroke="#000" stroke-linecap="round" stroke-linejoin="round" stroke-width=".677" d="m264.932 141.733 1.421 8.197 24.262-9.352-1.531-8.311z"/><path fill="#FF7E88" stroke="#000" stroke-linecap="round" stroke-linejoin="round" stroke-width=".677" d="m254.865 125.183 10.067 16.549q12.075-4.734 24.152-9.466l-34.218-7.084z"/></svg>