<svg width="128" height="80" viewBox="0 0 128 80" fill="none" xmlns="http://www.w3.org/2000/svg">
<path d="M22.9128 31H4V49H22.9128V31Z" fill="white"/>
<path fill-rule="evenodd" clip-rule="evenodd" d="M6.37988 34.1406H16.5132L21.5799 39.9679L16.5132 46.3451H6.37988L10.9235 39.9679L6.37988 34.1406Z" fill="#E2071F"/>
<path fill-rule="evenodd" clip-rule="evenodd" d="M21.5799 39.9679L16.5132 34.1406H6.37988L10.9235 39.9679" fill="#7B141F"/>
<path d="M37.7335 35.7695L35.713 37.4722C35.1515 36.8035 34.3237 36.4371 33.4668 36.478C31.5404 36.6867 30.0713 38.3508 30.0503 40.3481C30.0293 42.3454 31.4631 44.0419 33.3848 44.2935C34.3644 44.3231 35.2901 43.8319 35.8361 42.9927L38.0207 44.6531C37.0027 46.0314 35.4027 46.8189 33.7232 46.7683C30.0104 46.7683 27.3027 44.2935 27.3027 40.4228C27.3027 36.5521 30.0104 34.0773 33.7232 34.0773C35.2368 34.0027 36.7048 34.6222 37.7335 35.7695ZM110.964 35.7271L109.939 36.8376C109.115 35.957 107.976 35.4638 106.79 35.4733C104.226 35.6268 102.233 37.8349 102.269 40.4833C102.304 43.1317 104.356 45.2818 106.923 45.3617C107.917 45.3491 108.897 45.1146 109.795 44.6743V41.0573H107.128V39.7671H111.18V45.6155C109.851 46.3409 108.365 46.7049 106.862 46.6731C105.219 46.7638 103.615 46.1362 102.443 44.9446C101.272 43.753 100.642 42.1075 100.708 40.4122C100.676 38.728 101.317 37.1043 102.481 35.9222C103.645 34.7401 105.229 34.1035 106.862 34.1619C108.38 34.0811 109.863 34.6471 110.964 35.7271ZM42.0309 34.3206V46.451H39.4156V34.3206H42.0309ZM48.3797 34.3206L51.1181 42.2313H51.1591L53.9079 34.3206H57.8566V46.451H55.2412V37.1549H55.2002L52.0822 46.451H50.0822L47.0771 37.1549H47.0361V46.451H44.4207V34.3206H48.3797ZM74.6873 34.5215L81.3643 44.4099H81.4053V34.5215H82.7694V46.4299H81.0361L74.3591 36.5309H74.3284V46.4299H72.954V34.5215H74.6873ZM87.0156 34.5215V46.4299H85.6412V34.5215H87.0156ZM94.9232 34.5215L99.8361 46.4193H98.2258L97.0566 43.5004H91.2822L90.0925 46.4193H88.5438L93.6309 34.5215H94.9232ZM119.087 34.5215L124 46.4193H122.4L121.221 43.5004H115.457L114.257 46.4193H112.718L117.805 34.5215H119.087ZM64.7079 34.3206C66.7591 34.3206 69.0566 34.7648 69.0566 37.4087C69.0593 38.6211 68.2874 39.6819 67.1747 40.0274L67.0053 40.0738C68.4959 40.1965 69.6368 41.4934 69.6104 43.035C69.6104 45.5732 67.2514 46.4087 65.1386 46.4087H60.2771V34.3206H64.7079ZM64.8822 41.4275H62.8925V44.1878H65.2514C66.072 44.1878 66.995 43.8282 66.995 42.7706C66.995 41.713 65.7335 41.4275 64.8822 41.4275ZM94.2566 36.33L91.8668 42.189H96.5745L94.2566 36.33ZM118.421 36.33L116.021 42.189H120.739L118.421 36.33ZM64.6771 36.5838H62.8925V39.1749H64.8002C65.6002 39.1749 66.4412 38.8259 66.4412 37.8529C66.4412 36.8799 65.5079 36.5838 64.6771 36.5838Z" fill="white"/>
</svg>
