<svg width="64" height="40" fill="none" xmlns="http://www.w3.org/2000/svg"><g opacity=".72"><g clip-path="url(#a)"><path d="M0 4a4 4 0 0 1 4-4h56a4 4 0 0 1 4 4v32a4 4 0 0 1-4 4H4a4 4 0 0 1-4-4V4z" fill="#fff"/><g filter="url(#b)"><circle cx="-4" cy="20" r="20" fill="#283991"/></g><g filter="url(#c)"><circle cx="72" cy="20" r="24" fill="#F44336"/></g></g><path d="M20 20c0-6.627 5.373-12 12-12s12 5.373 12 12-5.373 12-12 12-12-5.373-12-12z" fill="#fff"/><path fill-rule="evenodd" clip-rule="evenodd" d="M35.131 8.414a11.957 11.957 0 0 1 4.175 2.067l-4.175 4.176V8.414zM20.414 16.87a11.955 11.955 0 0 1 2.067-4.175l4.176 4.175h-6.243zm21.106-4.175a11.958 11.958 0 0 1 2.067 4.175h-6.242l4.175-4.175zM20.414 23.13a11.957 11.957 0 0 0 2.067 4.176l4.176-4.176h-6.243zm4.28 6.389a11.958 11.958 0 0 0 4.176 2.067v-6.242l-4.175 4.175zm0-19.039a11.957 11.957 0 0 1 4.176-2.067v6.243l-4.175-4.176zm10.437 21.106a11.956 11.956 0 0 0 4.175-2.067l-4.175-4.175v6.242zm6.389-4.28-4.175-4.176h6.242a11.957 11.957 0 0 1-2.067 4.176z" fill="#283991"/><path fill-rule="evenodd" clip-rule="evenodd" d="M43.898 18.435H33.565V8.102a12.121 12.121 0 0 0-3.13 0v10.333H20.102a12.121 12.121 0 0 0 0 3.13h10.333v10.333a12.12 12.12 0 0 0 3.13 0V21.565h10.333a12.12 12.12 0 0 0 0-3.13zM35.13 23.13l5.355 5.354c.247-.246.482-.503.706-.77l-4.585-4.584H35.13zm-6.26 0v1.475l-4.585 4.585c-.267-.224-.524-.46-.77-.706l5.354-5.354zm.003-6.261-5.355-5.355c-.246.246-.481.503-.706.77l4.585 4.585h1.476zm11.612-5.355L35.13 16.87v-1.476l4.585-4.585c.267.225.524.46.77.706z" fill="#F44336"/></g><defs><filter id="b" x="-72" y="-48" width="136" height="136" filterUnits="userSpaceOnUse" color-interpolation-filters="sRGB"><feFlood flood-opacity="0" result="BackgroundImageFix"/><feBlend in="SourceGraphic" in2="BackgroundImageFix" result="shape"/><feGaussianBlur stdDeviation="24" result="effect1_foregroundBlur_17197_228318"/></filter><filter id="c" x="0" y="-52" width="144" height="144" filterUnits="userSpaceOnUse" color-interpolation-filters="sRGB"><feFlood flood-opacity="0" result="BackgroundImageFix"/><feBlend in="SourceGraphic" in2="BackgroundImageFix" result="shape"/><feGaussianBlur stdDeviation="24" result="effect1_foregroundBlur_17197_228318"/></filter><clipPath id="a"><path d="M0 4a4 4 0 0 1 4-4h56a4 4 0 0 1 4 4v32a4 4 0 0 1-4 4H4a4 4 0 0 1-4-4V4z" fill="#fff"/></clipPath></defs></svg>