<svg width="128" height="80" viewBox="0 0 128 80" fill="none" xmlns="http://www.w3.org/2000/svg">
<path d="M15.0148 38.9462L16.9248 33.8768H4L5.89564 38.9462H15.0148Z" fill="#00AF7E"/>
<path d="M27.9395 38.9462L29.8495 33.8768H21.8217L23.7174 38.9462H27.9395Z" fill="#00AF7E"/>
<path d="M19.7683 41.4737L21.6783 46.5288H5.89564L4 41.4737H19.7683Z" fill="#00AF7E"/>
<path d="M27.9397 46.5288L29.8497 41.4737H24.7372L26.6759 46.5288H27.9397Z" fill="#00AF7E"/>
<path d="M23.5739 51.584H28.6146L23.7606 38.9463L21.8219 33.8769L19.639 28.19H14.2106L12.0277 33.8769H16.9248L18.8204 38.9463L23.5739 51.584Z" fill="#141A23"/>
<path d="M10.0888 38.9462H15.0146L14.0668 41.4737H9.11227L10.0888 38.9462Z" fill="#141A23"/>
<path d="M7.17379 46.5288H12.1714L10.2758 51.5838H5.2207L7.17379 46.5288Z" fill="#141A23"/>
<path d="M31.7023 50.5933C31.6161 50.8805 31.4007 51.0529 31.1135 51.0529C30.9268 51.0529 30.7688 50.9954 30.6539 50.8662C30.539 50.7369 30.4816 50.5789 30.4816 50.3779C30.4816 50.1912 30.539 50.0332 30.6683 49.9183C30.7975 49.7891 30.9411 49.7317 31.1135 49.7317C31.2571 49.7317 31.3863 49.7747 31.4868 49.8609C31.6017 49.9471 31.6735 50.062 31.7023 50.1912L31.4581 50.2774C31.415 50.0763 31.2858 49.9471 31.1135 49.9471C30.898 49.9471 30.7544 50.1194 30.7544 50.3923C30.7544 50.6508 30.898 50.8231 31.1135 50.8231C31.3001 50.8231 31.415 50.7082 31.4581 50.4928L31.7023 50.5933Z" fill="#141A23"/>
<path fill-rule="evenodd" clip-rule="evenodd" d="M31.0847 51.6417C30.7401 51.6417 30.4385 51.5268 30.1944 51.2826C29.9502 51.0385 29.8353 50.7513 29.8353 50.4066C29.8353 50.062 29.9502 49.7604 30.1944 49.5306C30.4385 49.2865 30.7257 49.1716 31.0847 49.1716C31.4294 49.1716 31.731 49.2865 31.9607 49.5306C32.2049 49.7747 32.3198 50.062 32.3198 50.4066C32.3198 50.7513 32.2049 51.0529 31.9607 51.2826C31.731 51.5124 31.4294 51.6417 31.0847 51.6417ZM31.8315 51.1534C32.0326 50.9523 32.1331 50.6938 32.1331 50.3923C32.1331 50.0907 32.0326 49.8465 31.8315 49.6455C31.6304 49.4444 31.3863 49.3439 31.0847 49.3439C30.7975 49.3439 30.539 49.4444 30.338 49.6455C30.1369 49.8465 30.0364 50.105 30.0364 50.3923C30.0364 50.6938 30.1369 50.938 30.338 51.1534C30.539 51.3544 30.7975 51.455 31.0847 51.455C31.372 51.455 31.6304 51.3544 31.8315 51.1534Z" fill="#141A23"/>
<path fill-rule="evenodd" clip-rule="evenodd" d="M35.4792 51.555H38.7678L40.2183 47.419H47.2838L48.8492 51.555H52.4394L45.6323 33.848H42.0421L35.4792 51.555ZM46.2211 44.5899H41.2379L43.6649 37.7828L46.2211 44.5899Z" fill="#141A23"/>
<path fill-rule="evenodd" clip-rule="evenodd" d="M61.0273 51.555V48.1371C60.5822 50.4205 59.3471 51.7991 57.0063 51.7991C54.5936 51.7991 52.1954 49.8604 52.1954 45.5952C52.1954 41.4593 54.608 39.5205 57.0063 39.5205C59.3471 39.5205 60.5678 40.8705 61.0273 43.1395V33.848H64.1006V51.555H61.0273ZM58.3706 49.6306C59.9072 49.6306 60.9412 48.2089 60.9412 45.5665C60.9412 43.0102 59.9072 41.6029 58.3706 41.6029C56.8339 41.6029 55.6133 43.0246 55.6133 45.5665C55.5989 48.2233 56.8339 49.6306 58.3706 49.6306Z" fill="#141A23"/>
<path d="M70.3332 51.555H72.4587L77.7004 39.7503H74.7277L71.6544 47.4478L68.6386 39.7503H65.2638L70.3332 51.555Z" fill="#141A23"/>
<path d="M83.6313 39.5065C86.087 39.5065 88.3704 41.0718 88.9448 43.5275L86.1301 44.5615C85.728 42.393 84.737 41.4883 83.4446 41.4883C81.8649 41.4883 80.8309 42.9531 80.8309 45.6242C80.8309 48.4821 82.0803 49.7602 83.4733 49.7602C84.9094 49.7602 85.6705 48.6544 86.1444 46.4572L88.9592 47.4912C88.514 50.1049 86.1444 51.7851 83.6456 51.7851C80.2277 51.7851 77.413 49.2576 77.413 45.6242C77.3986 42.034 80.2133 39.5065 83.6313 39.5065Z" fill="#141A23"/>
<path d="M107.815 44.2742C105.92 43.8721 105.331 43.5418 105.331 42.9099C105.331 42.2493 105.891 41.8041 107.025 41.761C108.059 41.761 108.935 42.1919 109.524 43.3264L111.621 42.2637C110.745 40.2101 108.878 39.4777 106.896 39.4777C104.512 39.4777 102.573 40.7414 102.573 43.0966C102.573 45.2938 103.866 46.3422 106.609 46.9023C108.504 47.3044 109.093 47.7065 109.093 48.3958C109.093 49.0277 108.591 49.4298 107.341 49.4298C106.02 49.4298 104.929 48.9415 104.34 47.807L102.243 48.9846C103.119 50.8515 104.814 51.7706 107.269 51.7706C110.558 51.7706 111.851 50.0042 111.851 47.9506C111.851 45.9975 110.831 44.9061 107.815 44.2742Z" fill="#141A23"/>
<path d="M116.446 51.555H113.373V33.848H116.446V43.6277C116.891 41.0141 118.126 39.5205 120.467 39.5205C122.305 39.5205 124.014 40.7699 124.014 43.2256V51.555H120.941V44.3745C120.941 43.8288 120.769 43.3405 120.467 42.8379C120.166 42.3353 119.663 42.1055 118.974 42.1055C117.078 42.1055 116.446 44.0155 116.446 44.9346V51.555Z" fill="#141A23"/>
<path fill-rule="evenodd" clip-rule="evenodd" d="M90.223 43.1829L93.0378 44.2169C93.2819 43.3553 93.5548 42.7521 93.8707 42.4218C94.201 42.0484 94.8042 41.8617 95.6802 41.8617C96.4126 41.8617 96.9296 42.0053 97.2455 42.3069C97.5615 42.6085 97.7194 43.068 97.7194 43.6999V44.2026C96.628 44.6047 95.6227 44.8919 94.6893 45.0786C93.7558 45.2653 92.9516 45.4807 92.2766 45.7105C91.6017 45.9402 91.0703 46.2849 90.6826 46.7157C90.2948 47.1466 90.1081 47.8072 90.1081 48.6832C90.1081 49.6597 90.4241 50.4209 91.0416 50.9809C91.6591 51.541 92.4921 51.8139 93.5117 51.8139C93.9425 51.8139 94.3877 51.7421 94.8616 51.6128C94.8697 51.6047 94.8823 51.6012 94.8969 51.5971C94.9082 51.5939 94.9208 51.5904 94.9334 51.5841C95.6371 51.3687 96.2546 50.9378 96.7285 50.3634L97.7194 49.1571V49.7028L97.7051 51.5697H100.793V43.1829C100.793 41.8761 100.405 40.9426 99.6295 40.3682C98.854 39.8081 97.5758 39.5209 95.7951 39.5209C95.1201 39.5209 94.4739 39.5927 93.8563 39.7363C93.2388 39.8799 92.6931 40.0953 92.2048 40.3969C91.7166 40.6985 91.3001 41.0862 90.9554 41.5458C90.6108 42.0053 90.3666 42.5511 90.223 43.1829ZM93.8707 49.1715C93.5978 48.8986 93.4686 48.5539 93.4686 48.1087C93.4686 47.4338 93.7558 46.8881 94.3303 46.4716C94.7657 46.1668 95.523 45.9445 96.5959 45.6295C96.9383 45.529 97.3129 45.4191 97.7194 45.294V47.1896C97.6045 47.5917 97.4322 47.9508 97.2168 48.2523C97.0014 48.5539 96.7716 48.7981 96.5131 48.9991C96.269 49.1858 95.9961 49.3294 95.7233 49.4299C95.4504 49.5305 95.2063 49.5736 95.0052 49.5736C94.517 49.5736 94.1436 49.4443 93.8707 49.1715Z" fill="#141A23"/>
</svg>
