<svg width="368" height="154" viewBox="0 0 368 154" fill="none" xmlns="http://www.w3.org/2000/svg"><path d="M75.747 56.775c2.821 2.32 8.842 7.412 12.389 16.426 2.453 6.232 2.73 11.797 2.637 15.154-.674 3.932-1.349 7.874-2.034 11.807.276-2.074.358-4.271.194-6.592-.746-10.41-6.256-17.34-8.821-20.492-6.624-8.11-14.495-11.345-18.186-12.802-3.526-1.397-16.907-6.468-32.394-1.212-4.15 1.407-13.3 4.65-20.005 13.942-1.237 1.715-4.436 6.263-5.97 12.947.501-3.717 1.012-7.434 1.513-11.15a39.9 39.9 0 0 1 5.418-11.14c1.554-2.227 6.256-8.47 14.853-12.802 7.084-3.573 13.31-4.086 17.071-4.353 9.466-.678 16.59 1.54 18.717 2.248 7.79 2.598 12.89 6.592 14.608 8.008z" fill="#EBECEE" stroke="#000" stroke-width=".68" stroke-linecap="round" stroke-linejoin="round"/><path d="M61.937 60.276c3.7 1.458 11.571 4.692 18.185 12.802 2.566 3.152 8.075 10.082 8.822 20.493.96 13.357-6.594 22.884-9.078 25.718-7.666 8.767-17.193 11.067-21.793 12.186-4.12.996-14.74 2.978-26.977-1.468-3.895-1.417-13.411-5.01-20.598-14.856-2.392-3.275-8.229-11.509-7.738-23.192.42-9.949 5.193-16.755 6.777-18.942 6.706-9.291 15.855-12.536 20.005-13.942 15.477-5.247 28.858-.185 32.395 1.211z" fill="#F6F7F8" stroke="#000" stroke-width=".68" stroke-linecap="round" stroke-linejoin="round"/><path d="M50.907 77.873c-2.77.226-4.907.718-6.318 1.119-.654.185-1.656.503-2.862 1.047-1.196.544-1.993.924-2.842 1.735a8 8 0 0 0-1.523 2.074c-.255.483-.593 1.15-.756 2.074-.205 1.19 0 2.218.204 2.905 4.856-1.694 9.711-3.377 14.567-5.071.583 2.073 1.155 4.147 1.738 6.231-4.774 1.715-9.538 3.44-14.311 5.154.214.586.48 1.222.807 1.9.358.739.736 1.396 1.104 1.97 4.518-1.59 9.037-3.171 13.555-4.763.562 2.084 1.134 4.179 1.697 6.263-3.742 1.345-7.483 2.679-11.214 4.024.388.452.96 1.037 1.717 1.643.798.637 1.902 1.53 3.496 2.012 1.585.483 2.893.339 3.885.236 1.82-.195 3.128-.749 4.59-1.375 1.37-.585 2.35-1.15 3.179-1.643a33 33 0 0 0 3.434-2.3c1.748 2.054 3.496 4.097 5.234 6.15a33.4 33.4 0 0 1-7.278 4.671c-2.699 1.273-6.532 3.091-11.745 2.957-4.028-.092-6.992-1.304-7.913-1.704-4.743-2.064-7.482-5.4-8.678-7.064-1.626.504-3.25 1.017-4.866 1.52-.971-1.951-1.932-3.901-2.903-5.852 1.37-.483 2.74-.955 4.1-1.437a607 607 0 0 1-1.677-3.85c-1.503.462-3.006.913-4.519 1.375-.858-1.92-1.707-3.84-2.565-5.76 1.645-.605 3.291-1.2 4.937-1.806a20 20 0 0 1-.49-4.723c.02-1.14.07-3.028.848-5.297.286-.832.685-1.972 1.594-3.245.767-1.068 1.513-1.694 2.536-2.546a25.5 25.5 0 0 1 4.467-2.977 26.7 26.7 0 0 1 5.06-2.002 29.6 29.6 0 0 1 8.402-1.109c.43 2.484.849 4.98 1.278 7.464z" fill="#7989FB" stroke="#000" stroke-width=".68" stroke-linecap="round" stroke-linejoin="round"/><path d="M358.616 50.42c-3.741-3.912-7.902-5.657-9.404-6.273-7.493-3.04-14.128-1.735-18.656-.852-13.626 2.68-22.244 11.16-25.954 14.917-3.65 3.686-8.914 9.137-11.991 18.039-1.554 4.496-5.878 17.011.797 27.874a24 24 0 0 0 3.18 4.106l-9.282-9.476a22.6 22.6 0 0 1-3.251-4.065c-.511-.812-2.555-4.2-3.414-9.815-1.165-7.618.695-13.891 1.584-16.817 2.443-7.967 6.481-13.162 8.781-16.068 2.546-3.213 8.352-9.784 17.838-14.68 2.729-1.407 7.411-3.779 14.035-4.837 3.312-.523 7.554-1.16 12.87.072 5.428 1.263 9.292 3.86 11.428 5.555 3.813 4.106 7.616 8.213 11.429 12.32z" fill="#EBECEE" stroke="#000" stroke-width=".68" stroke-linecap="round" stroke-linejoin="round"/><path d="M292.611 76.251c3.077-8.901 8.341-14.353 11.991-18.039 3.71-3.757 12.328-12.237 25.954-14.907 4.528-.883 11.152-2.187 18.656.852 2.003.812 8.77 3.676 12.941 11.017 3.833 6.755 3.21 13.326 2.821 17.36-.93 9.723-5.51 16.407-8.505 20.76-5.264 7.679-11.234 12.176-14.168 14.178-3.874 2.649-10.897 7.32-21.027 8.449-4.15.462-9.997 1.109-16.55-1.889-2.238-1.026-7.656-3.891-11.336-9.886-6.675-10.863-2.351-23.378-.797-27.874z" fill="#F6F7F8" stroke="#000" stroke-width=".68" stroke-miterlimit="10"/><path d="M330.577 84.423c-1.207 5.585-2.413 11.18-3.619 16.765-2.75.247-5.5.503-8.25.75 1.207-5.606 2.403-11.211 3.609-16.807a71 71 0 0 0 4.007-.226 66 66 0 0 0 4.242-.482z" fill="#53AE95" stroke="#000" stroke-width=".68" stroke-miterlimit="10"/><path d="M332.887 74.403c8.402-.205 17.05.862 17.275 2.946.276 2.567-12.348 6.602-23.828 7.567-9.435.79-21.477-.216-21.742-2.67-.246-2.279 9.66-5.749 19.943-7.176" fill="#F6F7F8"/><path d="M332.887 74.403c8.402-.205 17.05.862 17.275 2.946.276 2.567-12.348 6.602-23.828 7.567-9.435.79-21.477-.216-21.742-2.67-.246-2.279 9.66-5.749 19.943-7.176" stroke="#000" stroke-width=".68" stroke-miterlimit="10"/><path d="M314.865 63.9c10.979-1.068 21.957-2.125 32.936-3.193-.562 2.741-1.114 5.482-1.676 8.234l-12.328 1.232c-.9 3.963-1.8 7.936-2.709 11.91l-8.301.892c.89-4.034 1.779-8.07 2.668-12.094l-12.399 1.14c.603-2.7 1.206-5.41 1.799-8.11z" fill="#53AE95" stroke="#000" stroke-width=".68" stroke-miterlimit="10"/><path d="M153.875 66.94c.879 8.069-.624 14.25-1.155 16.2-.583 2.156-1.39 5.092-3.394 8.521a30.9 30.9 0 0 1-7.605 8.706l-3.619 2.649-9.66 5.513c6.583-4.055 10.018-9.537 11.142-11.385 5.899-9.713 5.071-19.353 4.682-23.84-1.267-14.784-9.527-24.342-11.98-27.093-2.74-3.07-8.853-9.774-19.3-13.06-3.435-1.078-12.134-3.685-21.998-.41a31.4 31.4 0 0 0-4.999 2.156c3.21-1.992 6.42-3.984 9.62-5.975a27.4 27.4 0 0 1 4.538-2.156c5.612-2.043 10.488-1.664 13.81-1.376 5.183.462 9.078 1.807 10.642 2.392 7.983 3.008 12.89 7.833 15.384 10.339 2.065 2.073 6.808 7.217 10.263 15.287 2.75 6.427 3.435 11.806 3.619 13.52z" fill="#EBECEE" stroke="#000" stroke-width=".68" stroke-linecap="round" stroke-linejoin="round"/><path d="M76.36 91.024a47.2 47.2 0 0 1-4.477-9.158c-.992-2.751-2.965-8.336-2.863-15.882.031-2.762.184-8.943 3.384-15.985 1.196-2.619 3.343-7.198 8.127-11.366 1.073-.934 4.753-4.004 10.467-5.893 9.865-3.275 18.564-.667 21.998.41 10.448 3.286 16.56 9.98 19.3 13.05 2.443 2.751 10.713 12.31 11.98 27.093.389 4.497 1.217 14.138-4.681 23.84-1.391 2.279-6.287 10.092-16.274 13.921-12.195 4.682-23.072.011-25.954-1.221-7.739-3.317-12.758-8.758-15.61-11.838-2.985-3.224-4.804-6.047-5.407-6.981z" fill="#F6F7F8" stroke="#000" stroke-width=".68" stroke-linecap="round" stroke-linejoin="round"/><path d="M125.56 69.362c-.563-.811-1.759-2.464-3.997-3.542-.695-.329-2.525-1.18-4.927-.904a8.5 8.5 0 0 0-2.801.832c.419-.729 1.983-3.696 1.124-7.372-.266-1.15-1.012-3.387-3.026-5.102-.235-.195-1.236-1.037-2.79-1.643-.695-.267-1.83-.698-3.363-.657a7.8 7.8 0 0 0-2.699.565c-.654.39-1.319.78-1.973 1.17-1.41-2.32-2.811-4.63-4.212-6.95-1.308.75-2.606 1.499-3.915 2.238 1.35 2.31 2.71 4.61 4.059 6.92-1.002.636-1.994 1.283-2.996 1.92-1.43-2.29-2.852-4.58-4.283-6.869-1.267.78-2.545 1.57-3.812 2.351l4.078 6.89c-2.371 1.457-4.753 2.925-7.135 4.383l3.005 4.497c.573-.38 1.155-.77 1.728-1.15a2.5 2.5 0 0 1 .992-.493c.275-.072.684-.164 1.144 0 .563.216.828.709.9.852l11.868 19.99c.082.123.388.657.256 1.334-.164.873-.9 1.273-.992 1.325-.746.43-1.492.872-2.239 1.314l2.883 4.681c2.32-1.458 4.641-2.905 6.961-4.363 1.421 2.361 2.842 4.733 4.263 7.094 1.278-.77 2.556-1.54 3.844-2.31-1.411-2.361-2.812-4.722-4.222-7.073l3.158-1.849c1.411 2.32 2.822 4.641 4.243 6.971 1.288-.81 2.586-1.622 3.874-2.433-1.411-2.33-2.832-4.671-4.253-7.012.368-.174.88-.42 1.472-.76 1.83-1.036 3.527-2.001 4.631-3.665 1.319-1.981 1.257-4.127 1.227-5.174-.082-3.08-1.534-5.205-2.075-5.996zm-29.635-7.3c1.585-.985 3.17-1.97 4.764-2.946a4.7 4.7 0 0 1 1.308-.657 4.9 4.9 0 0 1 2.198-.195 5.2 5.2 0 0 1 2.433 1.047c.941.739 1.36 1.601 1.666 2.217.266.555.644 1.345.695 2.444.031.585.092 1.838-.736 2.875a3.2 3.2 0 0 1-.838.739c-1.983 1.232-3.976 2.464-5.959 3.706l-5.52-9.21zm23.512 13.378c.102.534.265 1.447-.021 2.525a4.5 4.5 0 0 1-.531 1.243 4.3 4.3 0 0 1-1.462 1.386c-2.515 1.52-5.019 3.028-7.534 4.548l-5.673-9.117c2.688-1.663 5.366-3.327 8.055-4.98.296-.164.787-.39 1.421-.472.991-.123 1.748.175 2.259.39a5.83 5.83 0 0 1 2.443 1.93c.756 1.037.961 2.044 1.063 2.547z" fill="#F7931A" stroke="#000" stroke-width=".68" stroke-linecap="round" stroke-linejoin="round"/><path d="M217.263 104.423c-.123-5.35.777-9.374 1.288-11.622.337-1.458 1.452-6.037 4.201-11.663 1.912-3.922 5.275-10.637 12.328-16.817 2.474-2.166 6.522-5.647 12.88-7.916 3.22-1.15 8.556-3.049 15.272-1.766 1.299.247 6.195 1.294 11.02 5.072 8.413 6.602 10.202 16.488 10.968 20.75 1.922 10.666-.95 19.126-2.596 23.746-1.82 5.144-5.5 12.998-12.849 20.071-3.507 3.378-8.403 8.09-16.468 10.339-3.179.893-10.274 2.874-18.145-.267-7.401-2.947-11.224-8.717-12.553-10.79-2.535-3.943-3.547-7.721-4.109-9.846-.235-.883-1.135-4.466-1.247-9.322z" fill="#F6F7F8" stroke="#000" stroke-width=".68" stroke-linecap="round" stroke-linejoin="round"/><path d="M295.535 108.436c-1.442 4.6-4.672 12.7-11.776 20.318-2.628 2.813-6.481 6.868-12.901 9.876-2.76 1.284-8.781 4.025-16.642 3.347a28.7 28.7 0 0 1-5.837-1.109c-4.405-2.166-8.801-4.332-13.207-6.498 7.871 3.141 14.966 1.16 18.145.267 8.055-2.259 12.951-6.971 16.458-10.339 7.349-7.074 11.029-14.928 12.849-20.071 1.635-4.63 4.518-13.09 2.596-23.747-.766-4.25-2.545-14.148-10.968-20.749a25.2 25.2 0 0 0-4.375-2.772c4.784 2.207 9.568 4.415 14.342 6.622 1.236.842 2.484 1.684 3.72 2.526a32.4 32.4 0 0 1 4.008 4.815c3.465 5.082 4.61 9.835 5.162 12.268 2.627 11.427-.522 21.817-1.595 25.246z" fill="#EBECEE" stroke="#000" stroke-width=".68" stroke-linecap="round" stroke-linejoin="round"/><path d="M265.164 91.487c-4.569-2.29-9.138-4.59-13.708-6.879-.071-5.277-.153-10.564-.225-15.841a29590 29590 0 0 0 13.933 22.72" fill="#5C616D" stroke="#000" stroke-width=".68" stroke-linecap="round" stroke-linejoin="round"/><path d="M265.164 91.486c-4.569 3.06-9.128 6.109-13.697 9.168-4.498-.626-9.006-1.252-13.504-1.868 4.498-4.723 8.996-9.456 13.493-14.179 4.57 2.29 9.139 4.59 13.708 6.88" fill="#5C616D" stroke="#000" stroke-width=".68" stroke-linecap="round" stroke-linejoin="round"/><path d="M251.467 84.608c-.072-5.277-.154-10.564-.225-15.841-4.426 10-8.853 20.01-13.269 30.02 4.498-4.723 8.996-9.456 13.494-14.179m13.646 12.062c-4.508 2.978-9.005 5.945-13.513 8.923.051 6.149.092 12.299.143 18.449 4.457-9.117 8.913-18.244 13.37-27.371" fill="#5C616D" stroke="#000" stroke-width=".68" stroke-linecap="round" stroke-linejoin="round"/><path d="M251.599 105.592c-4.538-.564-9.077-1.129-13.605-1.694 4.579 6.715 9.169 13.429 13.749 20.154-.052-6.15-.092-12.3-.144-18.449z" fill="#5C616D" stroke="#000" stroke-width=".68" stroke-linecap="round" stroke-linejoin="round"/><path d="M189.919 128.847c-11.398-.555-19.177-5.873-22.305-8.07-12.083-8.501-16.315-20.349-17.685-24.353-1.318-3.87-5.888-17.915.174-33.941 1.421-3.768 6.563-16.755 20.261-24.158 9.343-5.05 18.072-5.02 20.107-4.979 1.605.041 8.014.277 15.527 3.573 11.153 4.897 17.102 13.203 19.29 16.334 1.502 2.146 8.791 12.967 9.036 28.654.174 10.647-2.985 18.378-3.67 20.01-1.492 3.542-5.489 12.679-15.456 19.538-2.576 1.776-11.97 8.038-25.279 7.392" fill="#F6F7F8" stroke="#000" stroke-width=".68" stroke-linecap="round" stroke-linejoin="round"/><path d="M150.113 62.493c-6.061 16.026-1.502 30.07-.173 33.941 1.369 3.994 5.601 15.852 17.684 24.353 3.128 2.197 10.897 7.515 22.295 8.07a39.2 39.2 0 0 0 8.453-.504c-3.608.719-7.206 1.428-10.815 2.146a33 33 0 0 1-4.886.339c-1.104 0-4.457-.154-9.292-1.355-7.585-1.889-12.829-5.185-14.669-6.417-9.66-6.458-14.106-15.123-15.844-18.603-1.554-3.121-6.062-12.957-5.306-26.2.215-3.84.767-11.869 5.633-20.719 0 0 5.602-10.205 15.129-16.262 3.905-2.495 8.239-4.117 8.239-4.117a45 45 0 0 1 4.6-1.448c3.629-.534 7.258-1.057 10.876-1.591a41.7 41.7 0 0 0-11.673 4.189c-13.688 7.412-18.83 20.4-20.261 24.157z" fill="#EBECEE" stroke="#000" stroke-width=".68" stroke-linecap="round" stroke-linejoin="round"/><path d="m188.375 55.861.613-7.925c2.801.37 5.612.749 8.424 1.119l-.552 7.607c1.308.288 2.77.698 4.324 1.263a34.6 34.6 0 0 1 5.448 2.567c-.91 2.854-1.809 5.698-2.719 8.552a36 36 0 0 0-3.21-1.684c-1.247-.575-2.637-1.201-4.539-1.704-.245-.062-2.095-.534-4.518-.637-1.002-.04-1.799 0-2.678.36-.358.154-1.022.441-1.595 1.129a3.7 3.7 0 0 0-.787 1.673c-.204 1.027.082 1.838.225 2.239.337.944.9 1.519 1.329 1.96.583.596 1.114.945 1.799 1.366a47 47 0 0 0 3.394 1.92 48 48 0 0 1 3.895 2.258c1.063.699 2.831 1.869 4.702 3.789 1.012 1.047 1.83 1.879 2.606 3.254.297.514 1.237 2.26 1.585 4.764.082.575.358 2.793-.348 5.554-.265 1.037-.746 2.865-2.167 4.785a12.5 12.5 0 0 1-3.107 2.967c-2.822 1.868-5.694 2.063-7.033 2.063-.256 3.029-.511 6.058-.777 9.086l-8.423-1.139c.184-2.937.358-5.883.542-8.819a30 30 0 0 1-4.222-1.089 31.8 31.8 0 0 1-7.933-4.106c1.196-2.69 2.392-5.37 3.578-8.06a42 42 0 0 0 3.261 1.91c1.666.873 3.159 1.632 5.275 2.218 1.553.43 2.749.554 3.751.667 1.871.216 2.74.123 3.19.061.96-.133 1.635-.225 2.351-.718 1.277-.883 1.594-2.31 1.666-2.66.317-1.508-.245-2.71-.429-3.1-.471-.965-1.115-1.488-2.086-2.269-.766-.626-1.38-.975-2.842-1.807a986 986 0 0 0-3.342-1.878c-2.443-1.376-3.67-2.064-5.03-3.09-1.42-1.089-2.586-1.972-3.68-3.563-.327-.472-1.564-2.351-2.054-5.154-.47-2.66 0-4.743.235-5.79.276-1.181.726-3.04 2.147-4.98a11.7 11.7 0 0 1 3.148-2.967c1.574-.986 3.016-1.355 4.13-1.632.981-.247 1.819-.36 2.422-.421z" fill="#78CBD4" stroke="#000" stroke-width=".68" stroke-linecap="round" stroke-linejoin="round"/><path d="m239.559 17.638-2.496-2.116c-2.152.484-4.29.972-6.443 1.455 2.459 2.03 4.909 4.066 7.368 6.096.525-1.809 1.06-3.623 1.58-5.44zm14.726.543c-2.406-2.06-4.803-4.127-7.213-6.197-2.104.527-4.213 1.045-6.325 1.578 2.435 2.031 4.875 4.049 7.311 6.08 2.07-.483 4.148-.972 6.218-1.456z" fill="#FF535E" stroke="#000" stroke-width=".68" stroke-linecap="round" stroke-linejoin="round"/><path d="M247.191 42.632c-.375 1.354-.764 2.705-1.144 4.05-2.119.5-4.224 1.005-6.343 1.505.938-3.138 1.886-6.281 2.824-9.42q2.336 1.925 4.657 3.856zm11.616-8.972a2258 2258 0 0 0-2.682 9.563c-2.123.514-4.242 1.014-6.365 1.529q1.406-4.774 2.817-9.534c2.077-.512 4.149-1.032 6.235-1.549z" fill="#FF444F" stroke="#000" stroke-width=".68" stroke-linecap="round" stroke-linejoin="round"/><path d="M251.682 27.615c2.375 2.008 4.746 4.03 7.126 6.046-2.078.512-4.15 1.032-6.227 1.544-2.425-2.014-4.847-4.042-7.273-6.056 2.123-.514 4.251-1.02 6.374-1.534" fill="#FF535E" stroke="#000" stroke-width=".68" stroke-linecap="round" stroke-linejoin="round"/><path d="M248.067 19.638c2.078-.49 4.148-.973 6.227-1.462l-2.599 9.443c-2.122.515-4.25 1.02-6.373 1.534l2.754-9.52z" fill="#FF444F" stroke="#000" stroke-width=".68" stroke-linecap="round" stroke-linejoin="round"/><path d="M235.128 32.656c-.928 3.156-1.871 6.308-2.804 9.455 2.454 2.021 4.921 4.047 7.375 6.068.938-3.138 1.886-6.281 2.824-9.42 2.41 1.988 4.817 3.989 7.227 5.976.941-3.175 1.877-6.359 2.817-9.534a3332 3332 0 0 1-7.273-6.055l2.754-9.521c-2.445-2.027-4.875-4.05-7.311-6.08-.923 3.164-1.841 6.338-2.764 9.502a3153 3153 0 0 0-7.368-6.096c-.915 3.22-1.825 6.448-2.731 9.662 2.42 2.005 4.832 4.015 7.252 6.02z" fill="#FF7E88" stroke="#000" stroke-width=".68" stroke-linecap="round" stroke-linejoin="round"/><path d="M138.806 121c1.962 5.39 3.915 10.78 5.878 16.17l-.246 7.382c-1.942-5.39-3.884-10.78-5.837-16.17.072-2.464.133-4.918.205-7.382" fill="#FF535E" stroke="#000" stroke-width=".68" stroke-linecap="round" stroke-linejoin="round"/><path d="M138.601 128.382c.072-2.464.133-4.918.205-7.382l-22.673 3.881-.123 7.505c7.534-1.335 15.068-2.659 22.602-3.994z" fill="#FF7E88" stroke="#000" stroke-width=".68" stroke-linecap="round" stroke-linejoin="round"/><path d="M144.438 144.552c-1.942-5.39-3.884-10.78-5.837-16.17-7.533 1.335-15.067 2.659-22.601 3.994 9.476 4.055 18.952 8.12 28.438 12.176" fill="#FF444F" stroke="#000" stroke-width=".68" stroke-linecap="round" stroke-linejoin="round"/></svg>