<svg width="64" height="40" fill="none" xmlns="http://www.w3.org/2000/svg"><g opacity=".72"><g clip-path="url(#a)"><path d="M0 4a4 4 0 0 1 4-4h56a4 4 0 0 1 4 4v32a4 4 0 0 1-4 4H4a4 4 0 0 1-4-4V4z" fill="#fff"/><g filter="url(#b)"><circle cx="-4" cy="20" r="20" fill="#F44336"/></g><g filter="url(#c)"><circle cx="72" cy="20" r="24" fill="#283991"/></g></g><path d="M20 20c0-6.627 5.373-12 12-12s12 5.373 12 12-5.373 12-12 12-12-5.373-12-12z" fill="#fff"/><path fill-rule="evenodd" clip-rule="evenodd" d="M31.492 8a11.94 11.94 0 0 0-6.223 2.177h13.848A11.942 11.942 0 0 0 32.894 8h-1.402zm-8.57 4.354a11.982 11.982 0 0 0-1.423 2.178H42.887a11.969 11.969 0 0 0-1.423-2.178H22.923zm-2.873 6.554c.065-.748.2-1.475.397-2.177h23.09c.197.702.332 1.43.398 2.177H20.049zm.004 2.178c.07.748.21 1.475.41 2.177H43.52a11.87 11.87 0 0 0 .41-2.177H20.053zm2.719 6.531a11.984 11.984 0 0 1-1.443-2.177h21.325a11.99 11.99 0 0 1-1.443 2.177H22.772zm8.712 4.342.036.001.037.001a11.813 11.813 0 0 0 7.273-2.166H25.152a11.813 11.813 0 0 0 6.33 2.164z" fill="#F44336"/><path d="M31.744 8.006c-6.146.125-11.154 4.87-11.693 10.905h11.693V8.006z" fill="#283991"/><path d="m22.4 14.78.183.562h.592l-.48.347.184.562-.479-.347-.478.347.182-.562-.478-.347h.591l.183-.561zM22.4 16.764l.183.562h.592l-.48.347.184.562-.479-.348-.478.348.182-.562-.478-.347h.591l.183-.562zM24.388 11.805l.183.562h.591l-.478.347.182.561-.478-.347-.479.347.183-.56-.479-.348h.592l.183-.562zM24.388 13.789l.183.561h.591l-.478.347.182.562-.478-.347-.479.347.183-.562-.479-.347h.592l.183-.561zM24.388 15.772l.183.562h.591l-.478.347.182.562-.478-.348-.479.348.183-.562-.479-.347h.592l.183-.562zM20.891 17.243l-.183-.562.479-.347h-.592l-.013-.041c-.065.2-.124.403-.178.608l.009-.006.478.348zM21.922 14.267l.478-.347.479.347-.183-.561.479-.348h-.592l-.183-.56-.183.56H22l-.119.185.224.163-.182.561zM24.388 10.945l.478.347-.182-.562.478-.347h-.342c-.29.217-.57.446-.839.688l-.072.22.479-.346zM25.897 10.3l.479-.347.478.347-.183-.561.479-.347h-.592l-.025-.076c-.2.102-.399.209-.593.322l.14.1-.183.562zM26.376 10.814l.182.56h.592l-.479.348.183.562-.478-.348-.479.348.183-.562-.48-.347h.593l.183-.561zM26.376 12.797l.182.561h.592l-.479.348.183.561-.478-.347-.479.347.183-.561-.48-.348h.593l.183-.56zM26.376 14.78l.182.562h.592l-.479.347.183.562-.478-.347-.479.347.183-.562-.48-.347h.593l.183-.561zM26.376 16.764l.182.562h.592l-.479.347.183.562-.478-.348-.479.348.183-.562-.48-.347h.593l.183-.562zM28.363 9.822l.183.561h.592l-.479.348.183.56-.479-.346-.478.347.182-.562-.478-.347h.591l.183-.561zM28.363 11.805l.183.562h.592l-.479.347.183.561-.479-.347-.478.347.182-.56-.478-.348h.591l.183-.562zM28.363 13.789l.183.561h.592l-.479.347.183.562-.479-.347-.478.347.182-.562-.478-.347h.591l.183-.561zM28.363 15.772l.183.562h.592l-.479.347.183.562-.479-.348-.478.348.182-.562-.478-.347h.591l.183-.562zM30.351 8.83l.183.562h.592l-.48.347.184.561-.479-.347-.479.347.183-.561-.479-.347h.592l.183-.562zM30.351 10.814l.183.56h.592l-.48.348.184.562-.479-.348-.479.348.183-.562-.479-.347h.592l.183-.561zM30.351 12.797l.183.561h.592l-.48.348.184.561-.479-.347-.479.347.183-.561-.479-.348h.592l.183-.56zM30.351 14.78l.183.562h.592l-.48.347.184.562-.479-.347-.479.347.183-.562-.479-.347h.592l.183-.561zM30.351 16.764l.183.562h.592l-.48.347.184.562-.479-.348-.479.348.183-.562-.479-.347h.592l.183-.562z" fill="#EFEFEF"/></g><defs><filter id="b" x="-72" y="-48" width="136" height="136" filterUnits="userSpaceOnUse" color-interpolation-filters="sRGB"><feFlood flood-opacity="0" result="BackgroundImageFix"/><feBlend in="SourceGraphic" in2="BackgroundImageFix" result="shape"/><feGaussianBlur stdDeviation="24" result="effect1_foregroundBlur_17346_263914"/></filter><filter id="c" x="0" y="-52" width="144" height="144" filterUnits="userSpaceOnUse" color-interpolation-filters="sRGB"><feFlood flood-opacity="0" result="BackgroundImageFix"/><feBlend in="SourceGraphic" in2="BackgroundImageFix" result="shape"/><feGaussianBlur stdDeviation="24" result="effect1_foregroundBlur_17346_263914"/></filter><clipPath id="a"><path d="M0 4a4 4 0 0 1 4-4h56a4 4 0 0 1 4 4v32a4 4 0 0 1-4 4H4a4 4 0 0 1-4-4V4z" fill="#fff"/></clipPath></defs></svg>