<svg width="64" height="64" viewBox="0 0 64 64" fill="none" xmlns="http://www.w3.org/2000/svg">
<g clip-path="url(#clip0_26153_90537)">
<path d="M0 12C0 5.38 5.38 0 12 0H52C58.62 0 64 5.38 64 12V52C64 58.62 58.62 64 52 64H12C5.38 64 0 58.62 0 52V12Z" fill="url(#paint0_linear_26153_90537)"/>
<path d="M0 12C0 5.38 5.38 0 12 0H52C58.62 0 64 5.38 64 12V52C64 58.62 58.62 64 52 64H12C5.38 64 0 58.62 0 52V12Z" fill="url(#paint1_radial_26153_90537)"/>
<path d="M3 43V52C3 56.96 7.04 61 12 61H52C56.96 61 61 56.96 61 52V43H3Z" fill="#7448D3"/>
<path fill-rule="evenodd" clip-rule="evenodd" d="M35.0991 8.87998C36.8991 9.13998 38.5191 10.08 39.6391 11.52C40.7591 12.96 41.2991 14.78 41.1191 16.6L40.0191 24.56C40.0191 24.68 39.9591 24.8 39.8791 24.9C39.7991 25 39.6991 25.08 39.5991 25.14C39.4791 25.2 39.3591 25.22 39.2391 25.22C39.1191 25.22 38.9991 25.18 38.8791 25.12L37.4191 24.18C37.2991 24.1 37.1991 24 37.1391 23.86C37.0791 23.72 37.0591 23.58 37.0791 23.44L37.5591 19.6C37.6391 18.68 37.4391 17.76 36.9591 16.96L36.7791 18.08L35.7591 17.66C35.5791 17.58 35.3791 17.58 35.1791 17.66C34.9991 17.74 34.8591 17.88 34.7791 18.06C34.5991 18.08 34.4191 18.18 34.2991 18.32C34.1791 18.46 34.1191 18.66 34.1191 18.84L34.1791 20.6C34.1791 20.74 34.2391 20.88 34.3191 21C34.3991 21.12 34.5191 21.2 34.6391 21.26L35.8991 21.82C33.3791 22.5 30.7391 22.5 28.2191 21.82L29.4191 21.34C29.5591 21.28 29.6591 21.18 29.7591 21.06C29.8591 20.94 29.8791 20.8 29.8991 20.66L29.9591 18.9C29.9591 18.72 29.8991 18.54 29.7791 18.4C29.6591 18.26 29.4991 18.16 29.3191 18.14C29.1191 17.5 28.3191 17.68 28.3191 17.68L27.3391 18.08L27.1591 16.96C26.8791 17.4 26.6791 17.88 26.5791 18.38L23.3591 19.7L23.1391 18.44L22.9591 16.9C22.7191 15.08 23.1991 13.24 24.2591 11.76C25.3191 10.28 26.8991 9.27998 28.6791 8.95998C28.6991 8.63998 28.7791 8.29998 28.8991 7.99998C29.0591 7.59998 29.2791 7.23998 29.5791 6.91998C29.8791 6.61998 30.2191 6.35998 30.6191 6.19998C31.0191 6.01998 31.4191 5.93998 31.8591 5.91998C32.2791 5.91998 32.6991 5.97998 33.0991 6.13998C33.4991 6.29998 33.8591 6.53998 34.1591 6.83998C34.4591 7.13998 34.7191 7.49998 34.8791 7.89998C34.9991 8.19998 35.0791 8.49998 35.1191 8.81998L35.0991 8.87998ZM35.1191 10.26V11.22C35.1591 12.08 34.8191 12.92 34.2191 13.56C33.6191 14.18 32.7991 14.54 31.9391 14.56C31.0791 14.56 30.2591 14.24 29.6391 13.64C29.0191 13.04 28.6591 12.2 28.6591 11.34V10.4L27.2991 12.78L28.4391 13.5L27.8391 14.66L31.3791 17.02C31.3791 17.02 31.4591 17.06 31.4991 17.06C31.5391 17.06 31.5791 17.04 31.6191 17.02C31.6591 17 31.6791 16.96 31.6791 16.92C31.6791 16.88 31.6791 16.84 31.6791 16.8L30.4991 14.28C30.9591 14.5 31.4591 14.62 31.9791 14.62C32.4991 14.62 32.9991 14.48 33.4391 14.24L32.3391 16.8C32.3391 16.8 32.3191 16.88 32.3391 16.92C32.3391 16.96 32.3791 17 32.3991 17.02C32.4391 17.04 32.4791 17.06 32.5191 17.06C32.5591 17.06 32.5991 17.06 32.6391 17.02L36.0991 14.54L35.4591 13.38L36.5991 12.6L35.1591 10.28L35.1191 10.26ZM30.4991 8.45998C30.5591 8.29998 30.6591 8.13998 30.7791 8.01998C31.0191 7.75998 31.3591 7.61998 31.6991 7.59998V6.81998C31.1391 6.81998 30.6191 7.05998 30.2191 7.45998C29.8391 7.85998 29.6191 8.39998 29.6191 8.95998H30.3791C30.3791 8.77998 30.3991 8.59998 30.4791 8.43998L30.4991 8.45998ZM33.2791 19.68C33.2791 19.68 33.2791 19.84 33.2391 19.9C33.2191 19.98 33.1791 20.04 33.1191 20.1C33.0591 20.16 32.9991 20.2 32.9391 20.22C32.8791 20.24 32.7991 20.26 32.7191 20.26H31.2391C31.2391 20.26 31.0991 20.26 31.0191 20.22C30.9591 20.2 30.8791 20.14 30.8391 20.1C30.7791 20.04 30.7391 19.98 30.7191 19.92C30.6991 19.86 30.6791 19.78 30.6791 19.7V18.84C30.6791 18.84 30.6791 18.7 30.7191 18.62C30.7391 18.56 30.7791 18.48 30.8391 18.44C30.8991 18.38 30.9591 18.34 31.0191 18.32C31.0791 18.3 31.1591 18.28 31.2391 18.28H32.7191C32.7191 18.28 32.8591 18.28 32.9391 18.32C33.0191 18.36 33.0791 18.4 33.1191 18.44C33.1791 18.5 33.2191 18.56 33.2391 18.62C33.2591 18.68 33.2791 18.76 33.2791 18.84V19.68Z" fill="#6CAD56"/>
<path d="M23.8984 23.28L24.2584 24.86C24.2784 24.98 24.3384 25.1 24.4184 25.2C24.4984 25.3 24.5984 25.38 24.7184 25.42C24.8384 25.48 24.9584 25.5 25.0984 25.48C25.2184 25.48 25.3384 25.42 25.4584 25.36L26.8984 24.38C27.0184 24.3 27.1184 24.18 27.1784 24.04C27.2384 23.9 27.2584 23.76 27.2384 23.6L26.7184 21.76L25.1184 22.44C24.6784 22.64 24.2784 22.94 23.9384 23.28H23.8984Z" fill="#6CAD56"/>
<path d="M37.2602 21.78L35.2002 20.88C35.0602 20.82 34.9602 20.72 34.8602 20.6C34.7602 20.48 34.7402 20.34 34.7202 20.2L34.6602 18.44C34.6602 18.32 34.6802 18.18 34.7402 18.06C34.8002 17.94 34.8802 17.84 34.9802 17.78C35.0802 17.7 35.2002 17.66 35.3402 17.64C35.4602 17.64 35.6002 17.64 35.7202 17.7L37.4602 18.4C37.5402 18.8 37.5602 19.22 37.5202 19.62L37.2602 21.78Z" fill="#3E9AC7"/>
<path fill-rule="evenodd" clip-rule="evenodd" d="M43.0989 20.74L40.6989 19.74L40.2389 23.16C40.3989 23.28 40.5189 23.44 40.5989 23.62C40.6789 23.8 40.6989 24 40.6789 24.2L40.1389 23.82L40.0789 24.28C39.9589 25.26 39.3789 25.26 39.1189 25.2C38.9789 25.3 38.7989 25.36 38.6189 25.36C38.4389 25.36 38.2589 25.28 38.1189 25.18L36.6389 24.24C36.5189 24.16 36.4189 24.06 36.3589 23.92C36.2989 23.78 36.2789 23.64 36.2989 23.5L36.3989 22.66C36.3989 22.66 33.6589 24.66 32.4589 29.9L33.7789 28.82C33.8989 28.72 34.0189 28.66 34.1789 28.66C34.3189 28.66 34.4789 28.66 34.5989 28.74L36.1589 29.52C36.3189 29.6 36.4389 29.74 36.4989 29.9C36.5589 30.06 36.5789 30.24 36.5389 30.42C36.6389 30.58 36.6789 30.76 36.6389 30.96C36.6189 31.14 36.5189 31.32 36.3789 31.44L35.4389 32.22L35.6189 32.78C34.6989 32.78 33.8189 32.46 33.0989 31.9L30.1389 29.46C30.0189 29.38 29.8989 29.32 29.7589 29.3C29.6189 29.3 29.4789 29.3 29.3589 29.36L27.7989 30.14C27.6789 30.2 27.5789 30.28 27.5189 30.38C27.4389 30.48 27.3989 30.6 27.3789 30.74C27.3789 30.86 27.3789 31 27.4189 31.12C27.4589 31.24 27.5389 31.34 27.6389 31.42L33.7389 36.56C35.1789 37.68 36.9789 38.18 38.7789 37.98C40.5789 37.78 42.2389 36.9 43.3989 35.5C44.0789 35.82 44.8389 35.9 45.5589 35.72C46.3989 35.5 47.0989 34.98 47.5589 34.22C47.7789 33.86 47.9189 33.44 47.9789 33.02C48.0389 32.6 48.0189 32.16 47.9189 31.74C47.8189 31.32 47.6389 30.92 47.3789 30.58C47.1989 30.32 46.9789 30.1 46.7189 29.92C47.3989 28.22 47.3989 26.32 46.7189 24.62C46.0389 22.92 44.7389 21.54 43.0989 20.78V20.74ZM45.5589 29.16L44.2789 26.76L43.0589 27.38L42.3989 26.22L38.5389 28C38.5389 28 38.4389 28.04 38.4189 28.08C38.3789 28.12 38.3789 28.18 38.3789 28.22C38.3789 28.28 38.4189 28.32 38.4589 28.34C38.4989 28.38 38.5589 28.38 38.5989 28.38L41.3189 28.7C41.5989 28.52 41.9189 28.38 42.2589 28.3C43.0989 28.08 43.9789 28.22 44.7189 28.66L45.5389 29.16H45.5589ZM39.8189 31.24L38.2589 28.92C38.2589 28.92 38.1989 28.86 38.1589 28.84C38.1189 28.84 38.0789 28.84 38.0389 28.84C37.9989 28.84 37.9589 28.88 37.9389 28.92C37.9189 28.96 37.8989 29 37.8989 29.04L38.1389 33.32L39.4389 33.38L39.4789 34.78H42.1989L41.3589 34.28C40.9989 34.06 40.6789 33.76 40.4189 33.42C40.1589 33.08 39.9789 32.68 39.8789 32.26C39.7989 31.92 39.7589 31.58 39.7989 31.24H39.8189ZM37.9189 26.78L37.2989 28.14C37.2989 28.14 37.2189 28.28 37.1589 28.32C37.0989 28.38 37.0389 28.42 36.9589 28.44C36.8789 28.46 36.8189 28.48 36.7389 28.48C36.6589 28.48 36.5989 28.46 36.5189 28.42L35.7589 28.04C35.6189 27.98 35.5189 27.86 35.4789 27.72C35.4189 27.58 35.4389 27.42 35.4789 27.28L36.0989 25.92C36.0989 25.92 36.1789 25.78 36.2389 25.74C36.2989 25.68 36.3589 25.64 36.4389 25.62C36.5189 25.6 36.5789 25.58 36.6589 25.58C36.7389 25.58 36.7989 25.6 36.8789 25.64L37.6389 26.02C37.7789 26.08 37.8789 26.2 37.9189 26.34C37.9789 26.48 37.9589 26.64 37.9189 26.78ZM46.8189 33.62L46.1589 33.24C46.3389 32.92 46.3789 32.56 46.2989 32.22C46.1989 31.88 45.9789 31.58 45.6789 31.4L46.0589 30.74C46.5389 31.02 46.8989 31.48 47.0389 32.04C47.1789 32.58 47.0989 33.16 46.8189 33.64V33.62Z" fill="#3E9AC7"/>
<path fill-rule="evenodd" clip-rule="evenodd" d="M27.5011 31.26C27.4011 31.14 27.3411 30.98 27.3411 30.82C27.3411 30.66 27.3811 30.5 27.4611 30.36C27.4211 30.2 27.4611 30.02 27.5211 29.86C27.6011 29.7 27.7211 29.58 27.8811 29.5L29.4411 28.72C29.5811 28.66 29.7211 28.64 29.8611 28.64C30.0011 28.64 30.1411 28.72 30.2611 28.8L31.5411 29.86C30.2011 24.72 27.4411 22.64 27.4411 22.64L27.7611 23.78C27.7811 23.92 27.7611 24.08 27.7211 24.22C27.6611 24.36 27.5611 24.48 27.4411 24.56L26.0011 25.54C25.8611 25.64 25.6811 25.68 25.5211 25.68C25.3411 25.68 25.1811 25.6 25.0611 25.48C24.9011 25.48 24.7411 25.44 24.6011 25.36C24.4611 25.26 24.3611 25.14 24.3011 24.98L24.1011 23.92L23.3211 24.22C23.7011 23.26 24.4011 22.78 25.2811 22.38L28.8011 20.88C28.9411 20.82 29.0411 20.72 29.1411 20.6C29.2211 20.48 29.2611 20.34 29.2811 20.2L29.3411 18.44C29.3411 18.32 29.3211 18.18 29.2611 18.06C29.2011 17.94 29.1211 17.84 29.0211 17.78C28.9211 17.7 28.8011 17.66 28.6611 17.64C28.5411 17.64 28.4011 17.64 28.2811 17.7L20.9211 20.72C19.2811 21.48 17.9811 22.86 17.3011 24.56C16.6211 26.26 16.6211 28.16 17.3011 29.86C17.3811 29.8 17.4811 29.72 17.5811 29.68L18.4411 29.16L19.7411 26.72L20.9611 27.34L21.6211 26.18L25.4811 27.98C25.4811 27.98 25.5811 28.02 25.6011 28.06C25.6411 28.1 25.6411 28.16 25.6411 28.2C25.6411 28.26 25.6011 28.3 25.5611 28.32C25.5211 28.36 25.4611 28.36 25.4211 28.36L22.6811 28.68C23.1211 28.96 23.4811 29.32 23.7611 29.76C24.0411 30.2 24.1811 30.7 24.2211 31.22L25.7811 28.9C25.7811 28.9 25.8411 28.84 25.8811 28.82C25.9211 28.82 25.9611 28.82 26.0011 28.82C26.0411 28.82 26.0811 28.86 26.1011 28.9C26.1211 28.94 26.1411 28.98 26.1411 29.02L25.8611 33.32L24.5611 33.36L24.5211 34.72H21.8611L22.6411 34.24C23.0011 34.02 23.3211 33.72 23.5811 33.38C23.8411 33.04 24.0211 32.64 24.1211 32.22C24.2211 31.8 24.2411 31.36 24.1811 30.94C24.1211 30.52 23.9811 30.1 23.7611 29.74C23.3211 29 22.6011 28.46 21.7611 28.24C20.9211 28.02 20.0411 28.16 19.3011 28.6L17.6011 29.64C17.2411 29.86 16.9211 30.16 16.6611 30.5C16.4011 30.84 16.2211 31.24 16.1211 31.66C16.0211 32.08 16.0011 32.52 16.0611 32.94C16.1211 33.36 16.2611 33.78 16.4811 34.14C16.9211 34.88 17.6411 35.42 18.4811 35.64C19.2011 35.82 19.9611 35.74 20.6411 35.44C21.8011 36.84 23.4611 37.74 25.2611 37.92C27.0611 38.12 28.8811 37.6 30.3011 36.5L32.0211 35.06L27.5011 31.24V31.26ZM26.9811 28.26L26.3611 26.9C26.3611 26.9 26.3011 26.76 26.3011 26.68C26.3011 26.6 26.3011 26.52 26.3411 26.46C26.3611 26.38 26.4011 26.32 26.4611 26.26C26.5211 26.2 26.5811 26.16 26.6411 26.12L27.4011 25.76C27.4011 25.76 27.5411 25.7 27.6211 25.7C27.7011 25.7 27.7811 25.7 27.8411 25.74C27.9211 25.76 27.9811 25.8 28.0411 25.86C28.1011 25.92 28.1411 25.98 28.1811 26.04L28.8011 27.4C28.8011 27.4 28.8611 27.54 28.8611 27.62C28.8611 27.7 28.8611 27.78 28.8211 27.84C28.8011 27.92 28.7611 27.98 28.7011 28.04C28.6411 28.1 28.5811 28.14 28.5211 28.18L27.7611 28.56C27.7611 28.56 27.6211 28.62 27.5411 28.62C27.4611 28.62 27.3811 28.62 27.3211 28.58C27.2411 28.56 27.1811 28.52 27.1211 28.46C27.0611 28.4 27.0211 28.34 27.0011 28.28L26.9811 28.26ZM17.7811 32.26C17.8011 32.08 17.8611 31.92 17.9411 31.76C18.1211 31.46 18.4211 31.22 18.7611 31.14L18.5611 30.4C18.0211 30.54 17.5611 30.9 17.2811 31.4C17.0011 31.88 16.9211 32.46 17.0611 33.02L17.8011 32.82C17.7611 32.64 17.7411 32.46 17.7611 32.3L17.7811 32.26Z" fill="#D7CB3B"/>
<path d="M34.9005 32.66L36.4005 31.38C36.4005 31.38 36.5805 31.2 36.6205 31.08C36.6605 30.96 36.6805 30.84 36.6605 30.7C36.6605 30.58 36.6005 30.44 36.5205 30.34C36.4405 30.24 36.3405 30.14 36.2405 30.1L34.6805 29.32C34.5405 29.26 34.4005 29.24 34.2605 29.24C34.1205 29.24 33.9805 29.32 33.8605 29.4L31.9805 30.94L33.0805 31.86C33.6005 32.28 34.2205 32.54 34.8805 32.66H34.9005Z" fill="#D7CB3B"/>
<path d="M17.0781 46.42H21.1381C24.0581 46.42 25.9581 48.3 25.9581 52C25.9581 55.7 24.0581 57.58 21.1381 57.58H17.0781V46.42ZM21.1381 55.72C22.6981 55.72 23.7181 54.8 23.7181 52.88V51.12C23.7181 49.22 22.7181 48.28 21.1381 48.28H19.1781V55.7H21.1381V55.72Z" fill="white"/>
<path d="M30.2177 57.58H28.0977V46.42H33.1377C35.1777 46.42 36.4377 47.76 36.4377 49.88C36.4377 51.42 35.7377 52.58 34.3577 53.04L36.6377 57.58H34.2777L32.1977 53.28H30.1977V57.58H30.2177ZM32.9377 51.5C33.7577 51.5 34.2577 51.06 34.2577 50.24V49.5C34.2577 48.68 33.7577 48.26 32.9377 48.26H30.2177V51.5H32.9377Z" fill="white"/>
<path d="M40.8588 57.58L37.2188 46.42H39.3788L41.0987 51.86L42.0987 55.56H42.1388L43.1187 51.86L44.8388 46.42H46.9388L43.2988 57.58H40.8988H40.8588Z" fill="white"/>
</g>
<defs>
<linearGradient id="paint0_linear_26153_90537" x1="32" y1="64" x2="32" y2="0" gradientUnits="userSpaceOnUse">
<stop stop-color="#9F9F9F"/>
<stop offset="0.49" stop-color="#F1F2F2"/>
</linearGradient>
<radialGradient id="paint1_radial_26153_90537" cx="0" cy="0" r="1" gradientUnits="userSpaceOnUse" gradientTransform="translate(32.21 25.13) rotate(-90) scale(97)">
<stop offset="0.2" stop-color="#F1F2F2"/>
<stop offset="0.55" stop-color="#C1D2D2"/>
</radialGradient>
<clipPath id="clip0_26153_90537">
<rect width="64" height="64" fill="white"/>
</clipPath>
</defs>
</svg>
