<svg width="11" height="15" fill="none" xmlns="http://www.w3.org/2000/svg"><path d="M2.446 4.662c-1.069 1.069-.976 2.816.108 3.9 1.083 1.083 2.83 1.176 3.9.106a.5.5 0 1 0-.708-.707c-.635.635-1.747.632-2.485-.107-.739-.738-.742-1.85-.107-2.485l3.042-3.043c.635-.635 1.747-.632 2.486.107.739.739.742 1.85.107 2.486a.5.5 0 0 0 .707.707c1.07-1.07.977-2.816-.107-3.9s-2.83-1.176-3.9-.107L2.446 4.662Z" fill="#fff"/><path d="M1.504 9.376c-1.07 1.069-.977 2.816.107 3.9 1.084 1.083 2.83 1.176 3.9.107l3.042-3.043c1.07-1.07.977-2.816-.107-3.9s-2.83-1.176-3.9-.107a.5.5 0 1 0 .707.707c.635-.635 1.747-.632 2.486.107.739.739.742 1.85.107 2.486l-3.043 3.042c-.634.635-1.746.632-2.485-.107-.739-.738-.742-1.85-.107-2.485a.5.5 0 0 0-.707-.707Z" fill="#fff"/></svg>