<svg width="52" height="52" viewBox="0 0 52 52" fill="none" xmlns="http://www.w3.org/2000/svg">
<g clip-path="url(#clip0_24284_195301)">
<path d="M0.199951 10.3C0.199951 5.00401 4.50395 0.700012 9.79995 0.700012H41.8C47.096 0.700012 51.4 5.00401 51.4 10.3V42.3C51.4 47.596 47.096 51.9 41.8 51.9H9.79995C4.50395 51.9 0.199951 47.596 0.199951 42.3V10.3Z" fill="url(#paint0_linear_24284_195301)"/>
<path d="M27.3999 31.1C27.3999 29.34 28.8399 27.9 30.5999 27.9H36.9999C38.7599 27.9 40.1999 29.34 40.1999 31.1V37.5C40.1999 39.26 38.7599 40.7 36.9999 40.7H30.5999C28.8399 40.7 27.3999 39.26 27.3999 37.5V31.1Z" fill="#FF6444"/>
<path d="M11.3999 31.1C11.3999 29.34 12.8399 27.9 14.5999 27.9H20.9999C22.7599 27.9 24.1999 29.34 24.1999 31.1V37.5C24.1999 39.26 22.7599 40.7 20.9999 40.7H14.5999C12.8399 40.7 11.3999 39.26 11.3999 37.5V31.1Z" fill="#336F9A"/>
<path d="M27.3999 15.1C27.3999 13.34 28.8399 11.9 30.5999 11.9H36.9999C38.7599 11.9 40.1999 13.34 40.1999 15.1V21.5C40.1999 23.26 38.7599 24.7 36.9999 24.7H30.5999C28.8399 24.7 27.3999 23.26 27.3999 21.5V15.1Z" fill="#85ACB0"/>
<path d="M11.3999 15.1C11.3999 13.34 12.8399 11.9 14.5999 11.9H20.9999C22.7599 11.9 24.1999 13.34 24.1999 15.1V21.5C24.1999 23.26 22.7599 24.7 20.9999 24.7H14.5999C12.8399 24.7 11.3999 23.26 11.3999 21.5V15.1Z" fill="#FF444F"/>
</g>
<defs>
<linearGradient id="paint0_linear_24284_195301" x1="25.8" y1="51.9" x2="25.8" y2="0.700012" gradientUnits="userSpaceOnUse">
<stop/>
<stop offset="1" stop-color="#58595B"/>
</linearGradient>
<clipPath id="clip0_24284_195301">
<rect width="51.2" height="51.2" fill="white" transform="translate(0.199951 0.700012)"/>
</clipPath>
</defs>
</svg>
