<svg width="64" height="40" fill="none" xmlns="http://www.w3.org/2000/svg"><g opacity=".72"><g clip-path="url(#a)"><path d="M0 4a4 4 0 0 1 4-4h56a4 4 0 0 1 4 4v32a4 4 0 0 1-4 4H4a4 4 0 0 1-4-4V4z" fill="#fff"/><g filter="url(#b)"><circle cx="-4" cy="20" r="20" fill="#0DB43D"/></g><g filter="url(#c)"><circle cx="72" cy="20" r="24" fill="#FFCD00"/></g></g><path d="M20 20c0-6.627 5.373-12 12-12s12 5.373 12 12-5.373 12-12 12-12-5.373-12-12z" fill="#283991"/><path d="m38.254 14.083-.46.572.479.564-.742-.132-.267.671-.245-.672-.728.115.477-.559-.46-.559.724.128.267-.686.246.686.709-.128zM28.23 26.395l.809-1.008-1.25.226-.434-1.21-.471 1.21-1.277-.226.811.986-.842.986 1.284-.202.433 1.186.471-1.185 1.31.234-.844-.997zm9.565.892.459-.572-.71.128-.245-.686-.267.686-.723-.128.46.559-.478.558.728-.114.245.672.267-.672.742.133-.478-.564zm2.968-9.365.459-.571-.708.128-.246-.686-.267.686-.724-.128.46.559-.477.558.727-.114.245.672.267-.672.742.133-.478-.564zm-5.077.882-.46.571.48.565-.743-.133-.267.671-.245-.671-.727.114.476-.559-.46-.558.724.128.267-.686.246.686.709-.128zM28.121 8.645c.197-.067.395-.129.596-.186v3.32l3.284-3.283v.277l-3.88 3.879V8.645zm-6.138 4.751h1.286l-.748-.749.121-.154 1.5 1.5h-2.527c.117-.203.24-.402.368-.597zM32 18.894v.35l-2.612-2.612h2.613v.596h-1.666L32 18.894zm-7.114-.05v1.157h.596v-2.03l-2.03 2.03h.277l1.157-1.157zm.575-2.212h-4.978c-.057.197-.11.395-.157.596h2.942l-2.772 2.773h1.596l3.37-3.37zM32 13.992v-.596h-1.666L32 11.73v-1.596l-3.86 3.86H32zm-7.114-2.213-.797-.797c-.283.249-.554.51-.813.784l1.61 1.61.017.017.579.58V9.926c-.203.132-.402.268-.596.411v1.441zM29.873 20l-1.155-1.155V20h-.597v-3.275L31.397 20h-1.524z" fill="#fff"/><path d="m29.983 17.227-.596-.596H32v-2.64h-3.86l-.02.021v-.02h.02l3.86-3.86v-1.36l-3.88 3.88V8.644c-.938.32-1.822.752-2.64 1.282v4.044l.021.02h-.02v-.02l-.58-.579.004.004h-.02v-.021l-1.61-1.61c-.22.234-.432.476-.634.727l1.5 1.5h-2.527a11.91 11.91 0 0 0-1.132 2.64h4.978l.02-.022v.021h-.02l-.575.576v.02h-.021L22.09 20h1.36l2.03-2.03V20h2.64v-3.275L31.394 20h.45c.052-.054.105-.107.155-.162v-.594l-2.017-2.017z" fill="#F44336"/></g><defs><filter id="b" x="-72" y="-48" width="136" height="136" filterUnits="userSpaceOnUse" color-interpolation-filters="sRGB"><feFlood flood-opacity="0" result="BackgroundImageFix"/><feBlend in="SourceGraphic" in2="BackgroundImageFix" result="shape"/><feGaussianBlur stdDeviation="24" result="effect1_foregroundBlur_17197_228290"/></filter><filter id="c" x="0" y="-52" width="144" height="144" filterUnits="userSpaceOnUse" color-interpolation-filters="sRGB"><feFlood flood-opacity="0" result="BackgroundImageFix"/><feBlend in="SourceGraphic" in2="BackgroundImageFix" result="shape"/><feGaussianBlur stdDeviation="24" result="effect1_foregroundBlur_17197_228290"/></filter><clipPath id="a"><path d="M0 4a4 4 0 0 1 4-4h56a4 4 0 0 1 4 4v32a4 4 0 0 1-4 4H4a4 4 0 0 1-4-4V4z" fill="#fff"/></clipPath></defs></svg>