<svg xmlns="http://www.w3.org/2000/svg" viewBox="0 0 156 138"><path fill="#ebecee" stroke="#000" stroke-linecap="round" stroke-linejoin="round" stroke-width=".5" d="M79.78 34.1c-.03 2.17-.16 6.87-3.05 11.88-1.99 3.45-4.5 5.64-6.1 6.85-2.09 1.14-4.19 2.29-6.28 3.42a19.006 19.006 0 0 0 3.15-2.35c4.59-4.21 5.78-9.34 6.29-11.71 1.33-6.1-.1-10.97-.81-13.24-.67-2.16-3.29-10.3-11.54-15.59-2.21-1.42-7.14-4.49-14-4.18-1.27.06-4.58.25-8.29 2.01 1.92-1.14 3.86-2.28 5.78-3.42 1.63-.64 4.12-1.41 7.24-1.6 1.62-.09 6.3-.22 11.54 2.2 4.32 1.99 6.88 4.71 8.41 6.37 3.85 4.17 5.48 8.32 5.94 9.58 1.69 4.61 1.73 8.47 1.71 9.8v-.02Z"/><path fill="#f6f7f8" stroke="#000" stroke-linecap="round" stroke-linejoin="round" stroke-width=".5" d="M72.99 28.95c.69 2.27 2.12 7.14.81 13.24-.51 2.37-1.71 7.5-6.29 11.71-5.88 5.4-13.16 5.39-15.42 5.29-6.96-.34-11.6-3.93-13.84-5.68-2-1.55-6.9-5.79-9.39-13.15-.8-2.35-2.66-8.12-.75-15.13.64-2.33 2.31-8.11 7.96-12.2 4.81-3.49 9.78-3.78 11.39-3.86 6.86-.31 11.79 2.77 14 4.18C69.7 18.64 72.33 26.77 73 28.94Z"/><path fill="#7989fb" stroke="#000" stroke-linecap="round" stroke-linejoin="round" stroke-width=".5" d="M60.64 30.31a19.027 19.027 0 0 0-2.89-2.54c-.33-.24-.86-.6-1.56-.95-.7-.35-1.18-.6-1.87-.69-.13-.02-.75-.09-1.54.05-.32.06-.76.15-1.25.41-.63.34-1.04.82-1.28 1.17 2.61 1.64 5.21 3.29 7.81 4.92-.75 1.03-1.51 2.08-2.27 3.11-2.58-1.6-5.17-3.18-7.76-4.78-.2.32-.4.67-.59 1.08-.22.44-.38.86-.51 1.24 2.44 1.53 4.86 3.05 7.29 4.57-.76 1.03-1.53 2.08-2.3 3.11-2.02-1.25-4.05-2.5-6.07-3.75-.06.35-.13.83-.13 1.41s0 1.45.36 2.38c.36.92.92 1.48 1.34 1.91.77.78 1.52 1.18 2.36 1.64.78.42 1.42.67 1.95.88.94.36 1.75.6 2.36.76-.3 1.58-.62 3.15-.92 4.73-2.1-.43-3.74-1.1-4.91-1.66-1.6-.79-3.88-1.91-5.77-4.39-1.46-1.91-2-3.75-2.16-4.33-.81-2.98-.27-5.5.06-6.67-.84-.57-1.69-1.14-2.53-1.71.55-1.17 1.1-2.35 1.66-3.52.74.47 1.47.92 2.2 1.39.39-.74.78-1.47 1.18-2.21-.78-.53-1.55-1.07-2.33-1.6.58-1.11 1.15-2.22 1.73-3.33.89.54 1.79 1.1 2.69 1.64.73-.91 1.46-1.55 2.03-1.98.54-.41 1.44-1.09 2.8-1.56.49-.17 1.18-.41 2.11-.46.79-.03 1.36.08 2.14.24 1.34.28 2.4.7 3.06.98.37.16 1.51.68 2.83 1.62.35.24 1.19.86 2.15 1.82.62.62 1.13 1.21 1.51 1.69-1.01 1.12-2.01 2.24-3.02 3.36l.03-.02Z"/><path fill="#ebecee" stroke="#000" stroke-linecap="round" stroke-linejoin="round" stroke-width=".5" d="M135.36 25.73c-2.32-2.26-4.85-3.22-5.76-3.55-4.55-1.66-8.51-.77-11.21-.16-8.13 1.85-13.14 7.05-15.29 9.35-2.11 2.26-5.18 5.6-6.86 10.95-.85 2.71-3.21 10.23 1 16.56.61.92 1.29 1.71 1.98 2.38-1.92-1.82-3.83-3.64-5.74-5.46-.56-.52-1.31-1.3-2.03-2.35-.32-.47-1.61-2.45-2.23-5.77-.84-4.5.16-8.27.64-10.02 1.32-4.78 3.64-7.94 4.97-9.72a32.992 32.992 0 0 1 10.43-9.06c1.61-.89 4.38-2.38 8.33-3.13 1.98-.37 4.52-.83 7.72-.2 3.28.65 5.64 2.12 6.95 3.09l7.08 7.11Z"/><path fill="#f6f7f8" stroke="#000" stroke-miterlimit="10" stroke-width=".5" d="M96.26 42.31c1.68-5.35 4.74-8.69 6.86-10.95 2.16-2.3 7.17-7.5 15.3-9.35 2.69-.61 6.65-1.51 11.21.16 1.22.45 5.33 2.02 7.96 6.31 2.43 3.95 2.18 7.87 2.02 10.27-.37 5.8-3.01 9.86-4.72 12.5a32.698 32.698 0 0 1-8.23 8.69c-2.28 1.65-6.4 4.55-12.45 5.42-2.48.35-5.97.85-9.96-.82-1.36-.57-4.66-2.17-6.98-5.67-4.2-6.34-1.85-13.86-1-16.56Z"/><path fill="#53ae95" stroke="#000" stroke-miterlimit="10" stroke-width=".5" d="M119.18 46.47c-.61 3.35-1.24 6.69-1.86 10.04l-4.93.6c.61-3.36 1.24-6.71 1.85-10.07.81-.05 1.62-.12 2.4-.21.84-.09 1.69-.22 2.54-.37Z"/><path fill="#f6f7f8" d="M120.38 40.47c5.04-.28 10.24.2 10.42 1.43.22 1.52-7.29 4.16-14.15 4.94-5.64.65-12.88.27-13.09-1.18-.19-1.35 5.69-3.6 11.83-4.64"/><path fill="none" stroke="#000" stroke-miterlimit="10" stroke-width=".5" d="M120.38 40.47c5.04-.28 10.24.2 10.42 1.43.22 1.52-7.29 4.16-14.15 4.94-5.64.65-12.88.27-13.09-1.18-.19-1.35 5.69-3.6 11.83-4.64"/><path fill="#53ae95" stroke="#000" stroke-miterlimit="10" stroke-width=".5" d="M109.38 34.56c6.57-.84 13.13-1.67 19.7-2.51-.29 1.64-.57 3.29-.85 4.92-2.46.32-4.91.64-7.37.97-.47 2.37-.94 4.75-1.4 7.13-1.65.23-3.31.46-4.97.68l1.38-7.25c-2.47.3-4.94.6-7.41.91l.93-4.86Z"/><path fill="#ebecee" stroke="#000" stroke-linecap="round" stroke-linejoin="round" stroke-width=".5" d="M63.86 96.7c.68 4.79-.11 8.49-.39 9.66-.31 1.29-.74 3.05-1.88 5.12-1.42 2.6-3.2 4.32-4.4 5.32-.7.55-1.41 1.1-2.12 1.65-1.9 1.15-3.8 2.3-5.69 3.46 3.87-2.53 5.83-5.86 6.47-6.98 3.35-5.88 2.68-11.6 2.37-14.27-1.03-8.77-6.17-14.3-7.69-15.89-1.7-1.78-5.49-5.65-11.81-7.41-2.08-.58-7.35-1.97-13.21.16-1.13.41-2.11.89-2.96 1.38 1.89-1.24 3.78-2.48 5.66-3.73.62-.4 1.53-.91 2.68-1.36 3.33-1.32 6.26-1.19 8.26-1.08 3.12.17 5.48.91 6.42 1.22 4.84 1.64 7.87 4.42 9.41 5.86 1.27 1.19 4.22 4.17 6.44 8.9 1.77 3.77 2.28 6.95 2.43 7.97h.02Z"/><path fill="#f6f7f8" stroke="#000" stroke-linecap="round" stroke-linejoin="round" stroke-width=".5" d="M17.81 112.47a27.407 27.407 0 0 1-2.85-5.36c-.65-1.61-1.93-4.91-2.01-9.39-.03-1.65-.06-5.32 1.73-9.57.67-1.58 1.87-4.34 4.66-6.91.62-.58 2.78-2.47 6.17-3.7 5.86-2.13 11.13-.74 13.21-.16 6.33 1.76 10.11 5.62 11.81 7.4 1.52 1.59 6.65 7.12 7.69 15.89.31 2.67.99 8.38-2.37 14.26-.79 1.38-3.58 6.11-9.51 8.58-7.23 3.01-13.84.44-15.59-.24-4.7-1.83-7.82-4.97-9.58-6.75-1.85-1.86-3-3.5-3.37-4.05Z"/><path fill="#f7931a" stroke="#000" stroke-linecap="round" stroke-linejoin="round" stroke-width=".5" d="M46.92 98.67c-.36-.47-1.1-1.43-2.47-2.04-.42-.18-1.53-.66-2.97-.45-.73.1-1.3.35-1.66.55.23-.44 1.13-2.23.54-4.41-.18-.68-.67-1.99-1.91-2.98-.14-.11-.76-.6-1.71-.92-.42-.15-1.11-.38-2.03-.33-.7.04-1.27.23-1.61.39-.39.24-.77.49-1.16.73-.88-1.35-1.77-2.7-2.65-4.05l-2.31 1.41c.86 1.35 1.71 2.69 2.56 4.04-.59.4-1.17.79-1.76 1.2-.9-1.34-1.79-2.67-2.7-4-.75.49-1.49.97-2.24 1.47l2.57 4.02c-1.4.91-2.8 1.83-4.19 2.74.62.87 1.26 1.75 1.89 2.62.34-.24.68-.47 1.01-.72.1-.09.3-.23.58-.31.16-.04.41-.11.68-.02.35.12.51.41.55.49 2.5 3.89 4.99 7.78 7.49 11.66.05.08.24.38.18.79-.08.53-.51.78-.57.8-.44.28-.88.55-1.32.82.61.91 1.21 1.82 1.82 2.73 1.36-.91 2.73-1.82 4.09-2.73.89 1.38 1.79 2.76 2.69 4.14.75-.48 1.51-.97 2.26-1.45-.88-1.38-1.78-2.75-2.66-4.13.62-.39 1.24-.77 1.86-1.16.89 1.35 1.79 2.71 2.67 4.06.76-.51 1.53-1.01 2.28-1.52l-2.68-4.09c.22-.11.52-.27.87-.48 1.07-.65 2.08-1.25 2.71-2.27.75-1.2.68-2.48.64-3.1-.11-1.83-1.01-3.07-1.36-3.53Zm-17.91-3.79c.94-.61 1.86-1.22 2.8-1.85.17-.13.42-.29.77-.41.55-.2 1.04-.19 1.31-.16.16.02.82.09 1.47.58.58.42.85.92 1.04 1.29.17.33.41.78.47 1.44.03.35.09 1.1-.39 1.73-.16.22-.36.36-.49.46-1.17.77-2.34 1.54-3.5 2.31l-3.48-5.37Zm14.35 7.52c.07.32.19.85.03 1.5-.1.41-.26.69-.29.75-.28.47-.64.72-.86.85l-4.44 2.85c-1.2-1.78-2.38-3.55-3.57-5.31 1.58-1.03 3.16-2.08 4.74-3.11.17-.1.46-.25.84-.31.59-.09 1.05.08 1.36.19.83.31 1.33.87 1.5 1.1.48.6.62 1.2.68 1.49Z"/><path fill="#f6f7f8" stroke="#000" stroke-linecap="round" stroke-linejoin="round" stroke-width=".5" d="M90.13 110.57c-.17-3.18.29-5.59.55-6.93.17-.87.76-3.61 2.31-7.01 1.07-2.36 2.96-6.43 7.08-10.23 1.45-1.34 3.81-3.48 7.58-4.94 1.92-.74 5.08-1.97 9.13-1.34.79.12 3.74.66 6.71 2.81 5.17 3.77 6.42 9.62 6.96 12.14 1.35 6.3-.22 11.39-1.12 14.17-1 3.09-3.06 7.83-7.34 12.17-2.04 2.07-4.9 4.97-9.68 6.45-1.89.59-6.11 1.9-10.89.18-4.49-1.62-6.89-4.98-7.73-6.18-1.59-2.29-2.27-4.53-2.64-5.78-.16-.52-.76-2.63-.92-5.52v.02Z"/><path fill="#ebecee" stroke="#000" stroke-linecap="round" stroke-linejoin="round" stroke-width=".5" d="M137.15 111.5c-.78 2.76-2.57 7.64-6.69 12.3-1.53 1.72-3.76 4.21-7.56 6.11-1.63.82-5.19 2.55-9.92 2.3-1.47-.08-2.67-.33-3.53-.55-2.68-1.21-5.37-2.42-8.04-3.61 4.78 1.73 9 .41 10.89-.18 4.79-1.49 7.64-4.38 9.68-6.45 4.28-4.34 6.34-9.08 7.34-12.17.9-2.78 2.47-7.87 1.12-14.17-.54-2.52-1.79-8.37-6.96-12.14-.91-.66-1.83-1.17-2.67-1.57 2.91 1.22 5.81 2.45 8.73 3.67.76.47 1.52.96 2.28 1.43.68.64 1.59 1.56 2.5 2.79 2.18 2.96 2.95 5.76 3.33 7.2 1.79 6.74.1 12.99-.49 15.04Z"/><path fill="#5c616d" stroke="#000" stroke-linecap="round" stroke-linejoin="round" stroke-width=".5" d="M118.62 101.99c-2.78-1.28-5.56-2.55-8.35-3.83-.14-3.14-.29-6.28-.42-9.42 2.92 4.42 5.85 8.83 8.78 13.25Zm0 0c-2.69 1.91-5.37 3.8-8.05 5.71-2.71-.28-5.43-.58-8.14-.86 2.61-2.89 5.23-5.79 7.83-8.68 2.78 1.28 5.56 2.55 8.35 3.83Z"/><path fill="#5c616d" stroke="#000" stroke-linecap="round" stroke-linejoin="round" stroke-width=".5" d="M110.28 98.15c-.14-3.14-.29-6.28-.43-9.42-2.47 6.03-4.94 12.07-7.41 18.1 2.61-2.9 5.23-5.79 7.83-8.68Zm8.41 6.93c-2.64 1.85-5.3 3.7-7.94 5.56.14 3.66.29 7.31.43 10.97 2.5-5.51 5.01-11.01 7.51-16.53m-7.95 5.55c-2.73-.25-5.46-.51-8.2-.76 2.88 3.91 5.75 7.81 8.62 11.73-.14-3.66-.29-7.31-.42-10.97"/><path fill="#f6f7f8" stroke="#000" stroke-linecap="round" stroke-linejoin="round" stroke-width=".5" d="M81.66 103.73c-6.85-.12-11.61-3.13-13.53-4.38-7.4-4.83-10.17-11.8-11.06-14.15-.87-2.28-3.87-10.54-.52-20.19.79-2.26 3.62-10.08 11.7-14.74 5.51-3.18 10.75-3.32 11.97-3.33.96 0 4.81.02 9.38 1.84 6.78 2.71 10.5 7.53 11.87 9.36.94 1.25 5.51 7.55 5.95 16.87.29 6.33-1.45 10.98-1.83 11.96-.83 2.13-3.06 7.64-8.91 11.9-1.52 1.1-7.03 5-15.03 4.86Z"/><path fill="#ebecee" stroke="#000" stroke-linecap="round" stroke-linejoin="round" stroke-width=".5" d="M56.55 65.02c-3.35 9.64-.35 17.91.52 20.19.89 2.35 3.66 9.32 11.06 14.15 1.92 1.25 6.67 4.27 13.53 4.38 1.82.03 3.52-.15 5.06-.46l-6.45 1.47c-.72.13-1.72.26-2.92.29-.67.02-2.68 0-5.6-.63-4.58-.98-7.79-2.85-8.92-3.54-5.91-3.66-8.74-8.73-9.85-10.77-1-1.83-3.87-7.6-3.67-15.48.06-2.29.24-7.07 2.99-12.43 0 0 3.17-6.17 8.77-9.95 2.3-1.55 4.86-2.6 4.86-2.6.96-.39 1.88-.7 2.73-.94 2.17-.38 4.33-.77 6.5-1.15-2.03.47-4.45 1.28-6.92 2.71-8.08 4.66-10.92 12.48-11.7 14.74v.02Z"/><path fill="#78cbd4" stroke="#000" stroke-linecap="round" stroke-linejoin="round" stroke-width=".5" d="M79.38 60.36c.08-1.58.15-3.15.23-4.73l5.07.51c-.06 1.51-.12 3.02-.19 4.53.79.15 1.67.36 2.62.67 1.3.43 2.41.94 3.32 1.43l-1.47 5.13c-.48-.26-1.14-.6-1.96-.94-.76-.32-1.6-.66-2.76-.93-.15-.03-1.27-.28-2.72-.29-.61 0-1.08.03-1.59.27-.22.09-.61.28-.94.7-.31.4-.41.8-.44 1.01-.1.61.09 1.09.17 1.33.23.55.56.89.83 1.15.36.34.68.54 1.11.78 1.02.58 1.85.97 2.07 1.08.37.18 1.39.67 2.37 1.27.65.4 1.73 1.05 2.89 2.16.63.6 1.14 1.09 1.63 1.89.18.3.78 1.32 1.04 2.8.06.34.26 1.66-.1 3.31-.14.62-.39 1.72-1.21 2.89-.32.46-.9 1.18-1.81 1.82-1.66 1.16-3.38 1.34-4.18 1.36-.1 1.81-.2 3.61-.29 5.42-1.69-.17-3.38-.35-5.07-.52.05-1.75.1-3.5.16-5.25-1.02-.15-1.89-.37-2.56-.57a19.325 19.325 0 0 1-4.84-2.28c.67-1.62 1.33-3.24 2-4.86.52.32 1.2.69 1.99 1.07 1.01.48 1.92.91 3.21 1.22.94.22 1.66.28 2.26.33 1.13.09 1.65.03 1.92-.03.57-.09.98-.16 1.4-.47.75-.54.92-1.4.95-1.61.16-.91-.2-1.61-.31-1.84-.3-.56-.69-.86-1.29-1.31-.48-.35-.84-.55-1.73-1.02-1.07-.55-1.76-.91-2.04-1.05-1.49-.77-2.24-1.16-3.07-1.74-.88-.62-1.59-1.12-2.28-2.05a7.707 7.707 0 0 1-1.33-3.03c-.33-1.58-.09-2.82.03-3.45.15-.71.38-1.82 1.2-3a7.116 7.116 0 0 1 1.83-1.82c.93-.62 1.79-.86 2.45-1.04.58-.16 1.08-.25 1.45-.3v.03Z"/><path fill="#ff535e" stroke="#000" stroke-linecap="round" stroke-linejoin="round" stroke-width=".5" d="m18.1 45.87-.94-2.59-5.34-1.65c.94 2.51 1.87 5.01 2.82 7.52 1.15-1.1 2.31-2.19 3.46-3.29Zm10.57 6.57c-.89-2.51-1.78-5.02-2.66-7.53-1.77-.5-3.54-1.01-5.3-1.51.93 2.5 1.85 4.99 2.79 7.49 1.72.52 3.45 1.03 5.18 1.54Z"/><path fill="#ff444f" stroke="#000" stroke-linecap="round" stroke-linejoin="round" stroke-width=".5" d="m13.12 67.24-2.56 2.47c-1.76-.53-3.53-1.04-5.29-1.57 2.02-1.89 4.04-3.78 6.06-5.66.6 1.59 1.19 3.17 1.79 4.76m12.32-1.64c-2 1.94-4.01 3.88-6.01 5.82l-5.31-1.56c2.04-1.91 4.07-3.84 6.1-5.75 1.74.5 3.48.99 5.23 1.49Z"/><path fill="#ff535e" stroke="#000" stroke-linecap="round" stroke-linejoin="round" stroke-width=".5" d="M22.77 58.22c.88 2.46 1.78 4.92 2.66 7.38-1.74-.5-3.48-.99-5.22-1.49-.93-2.48-1.85-4.97-2.77-7.45 1.78.52 3.55 1.03 5.32 1.56Z"/><path fill="#ff444f" stroke="#000" stroke-linecap="round" stroke-linejoin="round" stroke-width=".5" d="M23.49 50.9c1.72.52 3.45 1.03 5.18 1.54-1.97 1.92-3.93 3.85-5.9 5.77-1.78-.52-3.55-1.03-5.32-1.56 2.02-1.92 4.03-3.84 6.05-5.76Z"/><path fill="#ff7e88" stroke="#000" stroke-linecap="round" stroke-linejoin="round" stroke-width=".5" d="M8.5 54.93c-2.02 1.9-4.04 3.8-6.07 5.7.94 2.5 1.89 5.01 2.84 7.51 2.02-1.89 4.04-3.78 6.06-5.66q1.395 3.69 2.76 7.38c2.04-1.91 4.07-3.84 6.1-5.75-.93-2.48-1.85-4.97-2.77-7.45 2.02-1.92 4.03-3.84 6.05-5.76-.93-2.5-1.85-4.99-2.79-7.49-2.02 1.91-4.04 3.84-6.05 5.75-.94-2.51-1.88-5.01-2.82-7.52-2.04 1.96-4.06 3.92-6.1 5.88.92 2.48 1.85 4.94 2.76 7.42l.02-.02Z"/><path fill="#ff444f" stroke="#000" stroke-linecap="round" stroke-linejoin="round" stroke-width=".5" d="M127.57 64.95c8.67 3.96 17.33 7.91 26 11.87-.92 2.69-1.84 5.39-2.76 8.08-8.69-3.99-17.39-7.98-26.09-11.97.95-2.66 1.9-5.31 2.85-7.98"/><path fill="#ff535e" stroke="#000" stroke-linecap="round" stroke-linejoin="round" stroke-width=".5" d="M71.67 135.83c-2.46-4-4.91-8-7.38-12.01-.34-1.98-.67-3.97-1.01-5.95 2.44 4 4.9 8 7.34 12.01.35 1.98.69 3.97 1.04 5.95Z"/><path fill="#ff444f" stroke="#000" stroke-linecap="round" stroke-linejoin="round" stroke-width=".5" d="M70.63 129.88c.35 1.98.69 3.97 1.04 5.95l17.69-6.79c-.37-2.01-.75-4.02-1.12-6.03-5.87 2.29-11.74 4.58-17.61 6.86Z"/><path fill="#ff7e88" stroke="#000" stroke-linecap="round" stroke-linejoin="round" stroke-width=".5" d="M63.29 117.87c2.44 4 4.9 8 7.34 12.01 5.87-2.29 11.74-4.58 17.61-6.86-8.31-1.72-16.63-3.42-24.95-5.14Z"/><path fill="#ff535e" stroke="#000" stroke-linecap="round" stroke-linejoin="round" stroke-width=".5" d="m93.37 1.05 4.47 12.21-.18 5.57c-1.48-4.07-2.96-8.14-4.45-12.21.05-1.85.1-3.72.16-5.58Z"/><path fill="#ff7e88" stroke="#000" stroke-linecap="round" stroke-linejoin="round" stroke-width=".5" d="M93.21 6.63c.05-1.86.1-3.72.16-5.58C87.62 2.02 81.85 3 76.1 3.97c-.03 1.89-.06 3.78-.1 5.67 5.74-1.01 11.47-2.01 17.21-3.02Z"/><path fill="#ff444f" stroke="#000" stroke-linecap="round" stroke-linejoin="round" stroke-width=".5" d="M97.65 18.85c-1.48-4.07-2.96-8.14-4.45-12.21-5.74 1.01-11.47 2.01-17.21 3.02 7.22 3.06 14.44 6.13 21.66 9.19"/></svg>