<svg width="64" height="40" fill="none" xmlns="http://www.w3.org/2000/svg"><g opacity=".72"><g clip-path="url(#a)"><path d="M0 4a4 4 0 0 1 4-4h56a4 4 0 0 1 4 4v32a4 4 0 0 1-4 4H4a4 4 0 0 1-4-4V4z" fill="#fff"/><g filter="url(#b)"><circle cx="-4" cy="20" r="20" fill="#009393"/></g><g filter="url(#c)"><circle cx="72" cy="20" r="24" fill="#04D9D9"/></g></g><path d="m22.086 15.336 1.892 4.132-5.364 5.402-5.364-5.403 1.893-4.131h6.943zm-1.168 1.608h-4.68v1.154h1.718v.757c-1.397.064-2.448.342-2.448.676s1.052.613 2.448.678v2.425H19.2V20.21c1.396-.065 2.444-.343 2.444-.677 0-.333-1.048-.612-2.444-.677v-.757h1.719v-1.154zm-2.962 1.997v.846c.08.005.312.02.632.02.384 0 .576-.017.611-.02v-.845c1.233.055 2.152.271 2.152.53s-.92.475-2.152.53a8.867 8.867 0 0 1-.521.012h-.096c-.321 0-.546-.009-.626-.012-1.235-.055-2.156-.271-2.156-.531 0-.258.922-.475 2.156-.53z" fill="#1DB193"/><path d="M28.013 17.26v1.223h1.18v.918h-1.189v1.861c0 .41.226.612.556.612.165 0 .356-.053.512-.131l.295.908a2.362 2.362 0 0 1-.877.184c-.928.035-1.535-.498-1.535-1.573v-1.861h-.799v-.918h.799v-1.11l1.057-.114zm20.351 1.165.078.498c.33-.533.772-.612 1.206-.612.443 0 .868.175 1.102.41l-.477.927a1.051 1.051 0 0 0-.763-.28c-.556 0-1.068.297-1.068 1.092v2.272h-1.059v-4.308l.981.001zm-2.594 1.651c-.07-.56-.504-.84-1.11-.84-.573 0-1.042.28-1.199.84h2.309zm-2.326.883c.07.533.53.918 1.276.918.39 0 .902-.15 1.146-.402l.676.672c-.451.472-1.189.7-1.84.7-1.475 0-2.352-.918-2.352-2.298 0-1.311.885-2.255 2.274-2.255 1.432 0 2.326.891 2.161 2.665h-3.34zm-4.667-4.344v2.395c.381-.499.85-.647 1.336-.647 1.214 0 1.753.83 1.753 2.097v2.272h-1.059V20.47c0-.787-.408-1.119-.972-1.119-.625 0-1.058.533-1.058 1.18v2.203h-1.06v-6.118h1.06zm-2.812.595v1.223h1.18v.918h-1.188v1.86c0 .412.226.613.555.613.165 0 .356-.053.513-.131l.294.908a2.351 2.351 0 0 1-.876.184c-.929.035-1.536-.5-1.536-1.573v-1.86h-.798v-.919h.798v-1.108l1.058-.114v-.001zm-2.924 2.867c-.07-.56-.503-.84-1.11-.84-.573 0-1.043.28-1.198.84h2.308zm-2.325.882c.069.534.529.918 1.275.918.39 0 .903-.149 1.145-.402l.677.673c-.452.472-1.188.7-1.84.7-1.476 0-2.352-.918-2.352-2.299 0-1.31.886-2.255 2.274-2.255 1.431 0 2.324.892 2.16 2.665h-3.34z" fill="#5B5A5D"/></g><defs><filter id="b" x="-72" y="-48" width="136" height="136" filterUnits="userSpaceOnUse" color-interpolation-filters="sRGB"><feFlood flood-opacity="0" result="BackgroundImageFix"/><feBlend in="SourceGraphic" in2="BackgroundImageFix" result="shape"/><feGaussianBlur stdDeviation="24" result="effect1_foregroundBlur_17228_232808"/></filter><filter id="c" x="0" y="-52" width="144" height="144" filterUnits="userSpaceOnUse" color-interpolation-filters="sRGB"><feFlood flood-opacity="0" result="BackgroundImageFix"/><feBlend in="SourceGraphic" in2="BackgroundImageFix" result="shape"/><feGaussianBlur stdDeviation="24" result="effect1_foregroundBlur_17228_232808"/></filter><clipPath id="a"><path d="M0 4a4 4 0 0 1 4-4h56a4 4 0 0 1 4 4v32a4 4 0 0 1-4 4H4a4 4 0 0 1-4-4V4z" fill="#fff"/></clipPath></defs></svg>