<svg width="128" height="80" viewBox="0 0 128 80" fill="none" xmlns="http://www.w3.org/2000/svg">
<path d="M64.7249 16.499C68.7773 18.0528 71.6536 21.9772 71.6609 26.5793C71.6536 31.1804 68.7773 35.103 64.7249 36.6587V16.499Z" fill="white"/>
<path d="M56.9932 16.5008V36.655C52.9436 35.0975 50.0718 31.1786 50.0609 26.5793C50.0718 21.9791 52.9436 18.0602 56.9932 16.5008Z" fill="white"/>
<path fill-rule="evenodd" clip-rule="evenodd" d="M42.0457 26.7741C42.0457 36.9275 50.5209 45.272 60.8188 45.2235H65.645C75.8204 45.2235 85.1077 36.9257 85.1077 26.7741C85.1077 15.6713 75.8204 7.99817 65.645 8H60.8188C50.5209 7.99817 42.0457 15.675 42.0457 26.7741ZM43.8245 26.5793C43.8263 17.1685 51.4501 9.54286 60.8609 9.53921C70.2717 9.54286 77.8973 17.1685 77.8992 26.5793C77.8973 35.9883 70.2717 43.613 60.8609 43.6148C51.4501 43.613 43.8263 35.9883 43.8245 26.5793Z" fill="white"/>
<path fill-rule="evenodd" clip-rule="evenodd" d="M18.245 47.0389C19.0632 47.0483 19.8602 47.0574 19.8602 48.6925V58.1509C19.8044 59.4563 19.2533 59.5122 18.1198 59.6272L18.0677 59.6325V60.1391C18.9438 60.119 19.8035 60.1007 20.6806 60.1007C21.1285 60.1007 21.5772 60.11 22.0349 60.1194H22.0359C22.5132 60.1292 23.0008 60.1391 23.5075 60.1391C30.4106 60.1391 31.5419 55.2856 31.5419 53.3531C31.5419 49.9007 28.7909 46.5296 23.7425 46.5296C22.9187 46.5296 22.2032 46.5415 21.5886 46.5517C21.1258 46.5594 20.7203 46.5662 20.3687 46.5662C19.6069 46.5662 18.8277 46.5662 18.0677 46.5296V47.0362C18.1266 47.0375 18.186 47.0382 18.245 47.0389ZM23.7992 59.5145C22.8444 59.5145 21.7716 59.3398 21.7716 57.8381L21.7707 57.8372V47.232C21.8649 47.2263 21.9603 47.2182 22.0648 47.2092C22.351 47.1846 22.7057 47.1542 23.2926 47.1542C27.056 47.1542 29.3945 49.7854 29.3945 53.4327C29.3945 56.3364 28.0126 59.5145 23.7992 59.5145Z" fill="white"/>
<path d="M32.5945 59.6325H32.2251V60.1391C32.9457 60.119 33.6481 60.1007 34.3496 60.1007C34.7042 60.1007 35.0549 60.1106 35.4007 60.1203C35.737 60.1298 36.069 60.1391 36.3955 60.1391V59.6325H36.0662C35.5193 59.6325 35.0895 59.6325 35.0895 58.9877V51.502C35.0895 51.3447 35.0492 51.2277 34.9541 51.2277C34.8544 51.2277 34.7392 51.2487 34.602 51.3264C34.5252 51.385 33.4323 51.7535 32.515 52.0288V52.3407L32.6037 52.3882C33.2615 52.7398 33.5301 52.8833 33.5301 53.7034V58.9877C33.5301 59.6325 33.1396 59.6325 32.5945 59.6325Z" fill="white"/>
<path d="M33.3555 47.2512C33.3555 47.7578 33.8027 48.2261 34.3103 48.2261C34.837 48.2261 35.2669 47.778 35.2669 47.2512C35.2669 46.7244 34.8169 46.3128 34.3103 46.3128C33.8237 46.3128 33.3555 46.7628 33.3555 47.2512Z" fill="white"/>
<path d="M37.1189 52.5346C38.0344 52.9068 38.2493 53.1007 38.2493 53.8214V58.9868C38.2493 59.6316 37.8597 59.6316 37.3146 59.6316H36.9625V60.1382C37.664 60.1181 38.3663 60.0998 39.0669 60.0998C39.4211 60.0998 39.77 60.1096 40.1163 60.1192C40.4574 60.1288 40.7962 60.1382 41.1347 60.1382V59.6316H40.7844C40.2384 59.6316 39.8077 59.6316 39.8077 58.9868V53.2168C40.4524 52.7861 41.4475 52.2803 42.0712 52.2803C43.1842 52.2803 43.8638 52.8254 43.8638 53.9384V58.9877C43.8638 59.6325 43.4751 59.6325 42.9291 59.6325H42.577V60.1391C43.2794 60.119 43.9817 60.1007 44.685 60.1007C45.0373 60.1007 45.3847 60.1104 45.7301 60.1201C46.0717 60.1297 46.4114 60.1391 46.7519 60.1391V59.6325H46.3998C45.8548 59.6325 45.4249 59.6325 45.4249 58.9877V53.9576C45.4249 52.4367 44.8396 51.2268 43.1842 51.2268C41.8764 51.2268 40.9207 51.8916 39.8077 52.6901V51.4225C39.8077 51.2661 39.751 51.2277 39.6915 51.2277C38.8105 51.6131 38.0508 51.861 37.2672 52.1167L37.1189 52.1651V52.5346Z" fill="white"/>
<path fill-rule="evenodd" clip-rule="evenodd" d="M48.2335 55.8892C48.1942 55.2252 48.1942 54.9335 48.2335 54.7588H53.7127L53.8882 54.6408C53.9065 54.5238 53.9065 54.4085 53.9065 54.2896C53.8892 52.2218 52.1908 51.2277 50.6105 51.2277C49.2469 51.2277 46.6733 52.359 46.6733 56.1809C46.6733 57.4284 47.2979 60.4327 50.3983 60.4327C51.996 60.4327 53.1072 59.4176 54.0044 58.2286L53.7319 57.9561C53.0121 58.6758 52.1725 59.2612 51.0988 59.2612C49.5413 59.2612 48.3488 57.7412 48.2335 55.8892ZM52.2302 53.6449C52.2302 53.8799 52.1725 54.1341 51.686 54.1341H48.2921C48.5253 52.7285 49.3447 51.8523 50.5336 51.8523C51.6265 51.8523 52.2302 52.6526 52.2302 53.6449Z" fill="white"/>
<path d="M54.8833 59.6325H54.3565V60.1382C55.058 60.1181 55.8774 60.0998 56.6767 60.0998C57.3973 60.0998 58.1003 60.1133 58.9633 60.1298L59.4049 60.1382V59.6316H58.3138C57.7678 59.6316 57.3782 59.6316 57.3782 58.9868V54.4067C57.3782 53.236 58.4702 52.7861 58.8013 52.7861C59.153 52.7861 59.3237 52.911 59.4892 53.0321C59.6452 53.1463 59.7967 53.2571 60.0908 53.2571C60.6359 53.2571 61.0054 52.7861 61.0054 52.2602C61.0054 51.5578 60.3816 51.2268 59.8942 51.2268C58.7062 51.2268 57.8849 52.4761 57.3992 53.237H57.359V51.481C57.359 51.2853 57.2996 51.2268 57.1852 51.2268C57.1037 51.2268 56.8945 51.3341 56.554 51.5087C56.1539 51.714 55.5723 52.0124 54.8037 52.3389V52.6306C54.865 52.6632 54.945 52.6941 55.0332 52.7282C55.3665 52.8571 55.8171 53.0313 55.8171 53.5086V58.9877C55.8171 59.6325 55.4265 59.6325 54.8833 59.6325Z" fill="white"/>
<path d="M64.3206 59.809C62.8957 59.809 62.1165 58.7152 61.8623 57.4284L61.5111 57.5262L61.7269 59.7697C62.4074 60.1584 63.3256 60.4327 64.1048 60.4327C66.4259 60.4327 67.4576 59.0664 67.4576 57.7805C67.4576 56.1373 66.1552 55.5785 64.9482 55.0606C63.9061 54.6135 62.9351 54.1968 62.9351 53.1391C62.9351 52.3005 63.6759 51.8523 64.456 51.8523C65.7053 51.8523 66.3866 52.5547 66.5814 53.782H67.0296L66.8924 51.7947C66.1324 51.4042 65.2937 51.2277 64.6718 51.2277C62.5263 51.2277 61.6483 52.6315 61.6483 53.7244C61.6483 55.4152 62.8815 55.98 64.0194 56.5011C64.9938 56.9473 65.8983 57.3615 65.8983 58.4234C65.8983 59.1057 65.4693 59.809 64.3206 59.809Z" fill="white"/>
<path d="M84.58 50.057H85.0647L84.8717 47.2704C83.3709 46.7436 81.85 46.2351 80.2706 46.2351C76.4495 46.2351 72.8809 49.1022 72.8809 53.1007C72.8809 57.4878 75.7664 60.4327 80.3273 60.4327C81.6159 60.4327 83.82 59.905 84.6385 59.3974L85.0866 56.5495L84.6385 56.4333C84.2489 58.482 82.6475 59.8081 80.7187 59.8081C77.7162 59.8081 74.9076 56.9812 74.9076 53.0403C74.9076 48.3605 78.1625 46.8607 80.4077 46.8607C82.5899 46.8607 84.2087 47.778 84.58 50.057Z" fill="white"/>
<path d="M86.1384 59.6325H85.7689V60.1391C86.4914 60.119 87.1929 60.1007 87.8943 60.1007C88.2508 60.1007 88.6021 60.1106 88.9481 60.1204C89.2839 60.1298 89.6146 60.1391 89.9402 60.1391V59.6325H89.61C89.065 59.6325 88.6351 59.6325 88.6351 58.9868V45.5153C88.6351 45.3599 88.5967 45.241 88.4778 45.241C88.4356 45.241 88.3373 45.2961 88.2023 45.3718C88.1559 45.3979 88.1051 45.4264 88.0507 45.4559C87.641 45.6909 86.8206 46.0421 86.0414 46.2945V46.6073L86.1149 46.6284C86.8025 46.8254 87.0749 46.9034 87.0749 48.1291V58.9877C87.0749 59.6325 86.6862 59.6325 86.1384 59.6325Z" fill="white"/>
<path d="M98.8325 59.4368C98.5014 59.4368 98.2892 59.4185 98.2892 59.0664L98.2883 51.8724C98.2883 51.6575 98.2883 51.5212 98.131 51.5212C98.062 51.5212 97.8801 51.5408 97.5959 51.5713C97.0785 51.6269 96.2219 51.7189 95.0901 51.7956V52.1459C95.1553 52.164 95.2226 52.1824 95.291 52.201L95.2932 52.2015C95.9584 52.3825 96.7262 52.5914 96.7262 52.9443V58.1902C95.9077 58.8725 95.0306 59.3773 94.3685 59.3773C92.672 59.3773 92.672 57.7018 92.672 57.1165V52.0864C92.672 51.6575 92.672 51.5212 92.4562 51.5212C92.3417 51.5212 91.9631 51.5448 91.5174 51.5725C90.9734 51.6064 90.329 51.6465 89.9429 51.6575V52.0288C91.0331 52.1249 91.1108 52.6123 91.1108 53.1199V58.1134C91.1108 59.7486 92.2019 60.4327 93.2546 60.4327C94.6401 60.4327 95.5382 59.7486 96.707 58.7938V60.3733L96.8049 60.4327C97.1753 60.3157 98.7748 59.9059 99.6144 59.8291V59.4185C99.4837 59.4185 99.3439 59.4232 99.2071 59.4279C99.076 59.4324 98.9475 59.4368 98.8325 59.4368Z" fill="white"/>
<path fill-rule="evenodd" clip-rule="evenodd" d="M105.073 51.2277C104.001 51.2277 102.947 51.9703 102.167 52.6306L102.168 45.5153C102.168 45.3599 102.129 45.241 102.012 45.241C101.969 45.241 101.876 45.293 101.747 45.3653C101.697 45.3931 101.642 45.4239 101.583 45.4559C101.173 45.6909 100.355 46.0421 99.5742 46.2945V46.6073L99.648 46.6285C100.335 46.8254 100.609 46.9036 100.609 48.1291V56.5129C100.609 57.7028 100.51 58.8332 100.336 59.9837L100.745 60.1968L101.328 59.7486C101.404 59.7805 101.484 59.818 101.572 59.8587C102.077 60.0924 102.811 60.4327 104.038 60.4327C106.828 60.4327 108.701 57.8774 108.701 55.324C108.701 53.1986 107.335 51.2277 105.073 51.2277ZM104.176 59.9251C102.87 59.9251 102.167 58.6758 102.167 57.9351L102.168 57.936V53.1986C102.694 52.7495 103.297 52.2812 104.021 52.2812C105.542 52.2812 107.139 54.0363 107.139 56.1407C107.139 57.8765 106.261 59.9251 104.176 59.9251Z" fill="white"/>
<path d="M20.4566 71.8201C20.7429 71.8306 21.028 71.8409 21.2824 71.8409H21.3299V71.4312H21.1342C20.7492 71.4212 20.3971 71.391 20.3952 70.8724V65.3146C20.3971 64.7952 20.7492 64.7613 21.1342 64.7549H21.3299V64.3434H21.2824C21.035 64.3434 20.7549 64.3534 20.4712 64.3636C20.1802 64.374 19.8849 64.3845 19.6179 64.3845C19.344 64.3845 19.0378 64.3731 18.7484 64.3623C18.489 64.3526 18.2428 64.3434 18.0457 64.3434H18V64.754H18.1948C18.5798 64.7613 18.9301 64.7952 18.9329 65.3146V70.8733C18.9301 71.391 18.5789 71.4221 18.1948 71.4312H18V71.8409H18.0457C18.2425 71.8409 18.4854 71.8315 18.7416 71.8216H18.7426C19.0289 71.8106 19.3321 71.7989 19.606 71.7989C19.8722 71.7989 20.1655 71.8095 20.4566 71.8201Z" fill="white"/>
<path d="M29.1851 72.0001L28.7479 71.9854L23.3639 65.9841V70.2368C23.3767 71.1587 23.5166 71.4212 24.315 71.4312H24.5428V71.8409H24.4952C24.2655 71.8409 24.0363 71.8304 23.8077 71.8198C23.5802 71.8093 23.3533 71.7989 23.127 71.7989C22.8899 71.7989 22.6501 71.8093 22.4096 71.8198C22.1677 71.8304 21.9251 71.8409 21.6838 71.8409H21.6381V71.4312H21.8329C22.5344 71.4276 22.7347 70.9767 22.7429 70.1316V65.6631C22.7402 65.0979 22.2765 64.754 21.8238 64.754H21.6372V64.3434H21.6838C21.8879 64.3434 22.0943 64.3538 22.2996 64.3641C22.5029 64.3743 22.7051 64.3845 22.903 64.3845C23.0321 64.3845 23.1595 64.3777 23.2895 64.3707C23.4778 64.3605 23.6718 64.3501 23.8834 64.3598L28.5467 69.6094V65.7061C28.5412 64.8638 27.9778 64.7613 27.6687 64.7549H27.3889V64.3434H27.4346C27.6864 64.3434 27.9348 64.3537 28.1825 64.3641C28.4284 64.3743 28.6738 64.3845 28.9208 64.3845C29.1357 64.3845 29.3513 64.3743 29.5678 64.3641C29.7861 64.3538 30.0055 64.3434 30.2258 64.3434H30.2716V64.7549H30.0676C29.6295 64.7659 29.1805 64.8043 29.1677 66.0554V70.8834C29.1677 71.2547 29.1796 71.6242 29.2299 71.947L29.239 72.0001H29.1851Z" fill="white"/>
<path d="M35.2601 71.8223C35.5426 71.832 35.8051 71.8409 35.9985 71.8409H36.0424V71.4312H35.7946C35.2888 71.4212 34.9715 71.3654 34.9605 70.5651V64.9653H36.6543C37.3234 64.9653 37.3655 65.5396 37.3948 65.9382L37.3951 65.942L37.3978 66.0033L37.7737 65.8661L37.8039 65.8542V65.8222C37.8039 65.535 37.8039 65.2497 37.824 64.9653C37.856 64.6818 37.8972 64.3955 37.9392 64.1111L37.9475 64.0644L37.6475 64.016L37.599 64.0068L37.5954 64.0571C37.5771 64.3342 37.3622 64.3388 37.0667 64.3434H31.5391L31.5347 64.3433C31.2663 64.3388 31.0714 64.3355 31.0014 64.069L30.9922 64.0361H30.6557V64.0827C30.6557 64.3873 30.6356 64.6818 30.5917 64.9753C30.57 65.1897 30.5373 65.3993 30.505 65.6067C30.4908 65.6975 30.4767 65.7878 30.4636 65.878L30.4572 65.9329H30.866L30.8743 65.8963L30.9013 65.7723C31.0476 65.0984 31.0732 64.9808 31.8163 64.9653H33.5082V70.5871C33.4954 71.4102 33.2613 71.4175 32.6759 71.4312H32.4272V71.8409H32.4729C32.6578 71.8409 32.9071 71.8326 33.183 71.8234L33.184 71.8234L33.1877 71.8233C33.5314 71.8118 33.9162 71.7989 34.2682 71.7989C34.5742 71.7989 34.931 71.8111 35.2601 71.8223Z" fill="white"/>
<path d="M43.9095 71.8409C43.5977 71.8409 43.1722 71.8317 42.7112 71.8217C42.1661 71.8099 41.5714 71.7971 41.0561 71.7971C40.5241 71.7971 39.8975 71.8106 39.3418 71.8227L39.3407 71.8227L39.3381 71.8228C38.897 71.8324 38.5009 71.8409 38.2328 71.8409H38.1889V71.4312H38.3828C38.7669 71.4248 39.1163 71.391 39.1209 70.8733V65.3146C39.1163 64.7961 38.7669 64.7613 38.3828 64.754H38.1889V64.3434H38.2328C38.532 64.3434 38.9274 64.3521 39.3538 64.3615C39.8529 64.3726 40.3948 64.3845 40.8741 64.3845C41.3433 64.3845 41.8709 64.3731 42.3707 64.3623H42.3719C42.8213 64.3526 43.2484 64.3434 43.5903 64.3434H43.637L43.636 64.3928C43.6287 64.551 43.6241 64.7403 43.6241 64.9397C43.6241 65.3055 43.636 65.7079 43.6562 66.0097L43.6589 66.0481L43.6223 66.0591L43.2501 66.156L43.2483 66.1012C43.1852 65.4134 43.0928 64.9122 42.0008 64.9031H40.5704V67.5892H41.7868C42.3996 67.5828 42.5084 67.2709 42.5806 66.6984L42.5834 66.6554H42.9913L42.9904 66.7039C42.9693 67.1191 42.9574 67.5315 42.9574 67.944C42.9574 68.3464 42.9693 68.7488 42.9904 69.1512V69.1906L42.9529 69.1997L42.5834 69.2729L42.5806 69.2226L42.5709 69.1354C42.5055 68.5433 42.4698 68.2198 41.7987 68.212H40.5704V70.6383C40.5722 71.2766 41.1172 71.2794 41.7989 71.283L41.8197 71.2831C43.0974 71.2757 43.6086 71.2136 43.9287 70.0228L43.9397 69.9798L43.9836 69.9871L44.3238 70.0758L44.3146 70.1197C44.1775 70.6813 44.0494 71.2419 43.9543 71.8035L43.9461 71.8409H43.9095Z" fill="white"/>
<path fill-rule="evenodd" clip-rule="evenodd" d="M51.4784 71.8198C51.6515 71.8303 51.8252 71.8409 52.0033 71.8409H52.0482V71.4376L52.0097 71.4312C51.4939 71.3654 51.3092 71.2547 51.0129 70.8148L49.2313 68.1452C50.0489 67.8123 50.6818 67.2133 50.6818 66.2557C50.6791 64.7147 49.4481 64.3461 48.1101 64.3434C47.8354 64.3434 47.574 64.3531 47.3052 64.3631C47.0207 64.3737 46.728 64.3845 46.4026 64.3845C46.0282 64.3845 45.6514 64.3708 45.3338 64.3592C45.1025 64.3507 44.9017 64.3434 44.7573 64.3434H44.7116V64.754H44.9493L44.9694 64.7547C45.2933 64.7652 45.6464 64.7766 45.6535 65.5131V70.9053C45.6526 71.262 45.3298 71.4285 44.9493 71.4312H44.7116V71.8409H44.7573C45.0267 71.8409 45.2874 71.8302 45.545 71.8195C45.7962 71.8091 46.0444 71.7989 46.2947 71.7989C46.5947 71.7989 46.8985 71.8094 47.2028 71.8199C47.5085 71.8304 47.8155 71.8409 48.1192 71.8409H48.1658V71.4312H47.9281L47.9055 71.4307C47.428 71.4202 47.1176 71.4134 47.1059 70.6273V68.4049H47.7333C48.4183 69.6167 49.1161 70.7554 49.93 71.8236C50.1504 71.8339 50.3601 71.8231 50.562 71.8127C50.6984 71.8057 50.8315 71.7989 50.9617 71.7989C51.1356 71.7989 51.3067 71.8093 51.4784 71.8198ZM49.1691 66.3225C49.1581 67.5553 48.6295 67.9193 47.5787 67.9303L47.1059 67.9294V64.8565C47.1247 64.8547 47.1435 64.8526 47.1627 64.8505L47.2052 64.8455C47.3149 64.8325 47.4449 64.8171 47.6628 64.8171C48.5875 64.8208 49.1627 65.396 49.1691 66.3225Z" fill="white"/>
<path d="M59.821 72.0001L59.3857 71.9854L54.0007 65.985V70.2359C54.0126 71.1596 54.1526 71.4212 54.9519 71.4312H55.1778V71.8409H55.1321C54.9019 71.8409 54.6727 71.8299 54.4441 71.8189C54.2167 71.808 53.9896 71.797 53.763 71.797C53.5267 71.797 53.2863 71.808 53.0453 71.8189C52.8031 71.8299 52.5604 71.8409 52.3207 71.8409H52.2731V71.4312H52.4689C53.1694 71.4285 53.3706 70.9767 53.377 70.1289V65.6613C53.3761 65.0961 52.9133 64.754 52.4597 64.754H52.2731V64.3434H52.3207C52.5238 64.3434 52.7295 64.3537 52.9346 64.364C53.1385 64.3743 53.342 64.3845 53.5416 64.3845C53.6716 64.3845 53.801 64.3773 53.9337 64.37C54.1184 64.3597 54.3096 64.3491 54.5166 64.3571L59.1808 69.6085V65.7061C59.1781 64.8638 58.6138 64.7595 58.3047 64.7549H58.0248V64.3434H58.0705C58.3218 64.3434 58.57 64.3537 58.8176 64.364C59.0638 64.3743 59.3095 64.3845 59.5567 64.3845C59.7724 64.3845 59.9886 64.3743 60.2053 64.364C60.4232 64.3537 60.6417 64.3434 60.8609 64.3434H60.9084V64.7549H60.7036C60.2655 64.7641 59.8146 64.8043 59.8045 66.0554V70.8834C59.8045 71.2547 59.8137 71.6224 59.8676 71.9479L59.8731 72.0001H59.821Z" fill="white"/>
<path fill-rule="evenodd" clip-rule="evenodd" d="M68.0417 71.8332L68.2212 71.8409L68.2679 71.8437V71.4294H68.1609C67.8197 71.4276 67.6249 71.3169 67.5024 71.0343C67.3775 70.7517 67.2622 70.4063 67.1499 70.0698L67.1119 69.956L65.1584 64.4074C65.1264 64.3223 65.0925 64.2263 65.0623 64.1394C65.0267 64.0836 64.9709 64.0772 64.9444 64.0782C64.9068 64.0782 64.8797 64.0886 64.854 64.0986L64.8429 64.1028C64.6389 64.2309 64.2118 64.4449 63.8789 64.5583C63.7973 64.9363 63.6354 65.3974 63.5041 65.7718L63.4582 65.9027L61.759 70.7718C61.6053 71.2035 61.2761 71.4285 60.881 71.4294H60.7712V71.8437L60.8206 71.8409L60.969 71.833C61.3006 71.815 61.6335 71.797 61.9629 71.797C62.3357 71.797 62.7155 71.8154 63.09 71.8335L63.2451 71.8409L63.2927 71.8437V71.4294H63.1299C62.7778 71.4294 62.3818 71.3654 62.3781 71.1066C62.3769 70.9928 62.4318 70.8335 62.4999 70.6359C62.5357 70.5318 62.5753 70.417 62.6122 70.2926L62.9415 69.2207H65.2818L65.6861 70.4206C65.8031 70.7581 65.8983 71.0489 65.8955 71.1697C65.8946 71.3745 65.5306 71.4294 65.2846 71.4294H65.1209V71.8437L65.1693 71.8409L65.4148 71.8316C65.8715 71.8142 66.3192 71.797 66.7607 71.797C67.2027 71.797 67.6245 71.8152 68.0417 71.8332ZM65.0294 68.5348H63.1729L64.1057 65.6914L65.0294 68.5348Z" fill="white"/>
<path d="M72.1351 71.8224C71.8053 71.8111 71.4471 71.7989 71.1396 71.7989C70.7895 71.7989 70.4062 71.8117 70.063 71.8232C69.785 71.8325 69.5333 71.8409 69.3471 71.8409H69.3013V71.4312H69.5492C70.1345 71.4175 70.3686 71.4102 70.3833 70.5871L70.3823 64.9653H68.6904C67.9478 64.9782 67.9218 65.098 67.7758 65.771L67.7484 65.8963L67.7402 65.9329H67.3305L67.3369 65.8798C67.348 65.8059 67.3595 65.7319 67.3711 65.6579C67.4062 65.4335 67.4415 65.2077 67.4649 64.9781C67.5079 64.6818 67.528 64.3873 67.528 64.0827V64.0361H67.8646L67.8737 64.069C67.9474 64.3356 68.1387 64.3388 68.409 64.3433L68.4133 64.3434H73.9427C74.2354 64.3388 74.4503 64.3342 74.4686 64.058L74.4704 64.0068L74.5198 64.016L74.8216 64.0644L74.8143 64.1111C74.7704 64.3955 74.7302 64.6818 74.6981 64.9653C74.6762 65.2497 74.6762 65.5359 74.6762 65.8221V65.8542L74.6451 65.8661L74.2701 66.0033L74.2683 65.942C74.2409 65.5433 74.1979 64.9653 73.5275 64.9653H71.8337V70.5651C71.8447 71.3654 72.1621 71.4212 72.6678 71.4312H72.9148V71.8409H72.8709C72.6793 71.8409 72.4189 71.8321 72.1381 71.8225L72.137 71.8224L72.1351 71.8224Z" fill="white"/>
<path d="M77.572 71.8193C77.8586 71.8301 78.1432 71.8409 78.3975 71.8409H78.4405V71.4312H78.2485C77.8598 71.4248 77.5113 71.391 77.5077 70.8724V65.3146C77.5113 64.7961 77.8598 64.7613 78.2485 64.7549H78.4414V64.3434H78.3975C78.1493 64.3434 77.8685 64.3534 77.5841 64.3636C77.2922 64.374 76.9966 64.3845 76.7285 64.3845C76.4566 64.3845 76.1506 64.3731 75.8613 64.3623C75.602 64.3526 75.3558 64.3434 75.16 64.3434H75.1143V64.754H75.3091C75.6914 64.7613 76.0444 64.7961 76.0462 65.3146V70.8733C76.0444 71.391 75.6914 71.4248 75.3091 71.4312H75.1143V71.8409H75.16C75.3554 71.8409 75.5981 71.8312 75.8545 71.8209C76.1416 71.8093 76.4458 71.797 76.7202 71.797C76.9871 71.797 77.2808 71.8082 77.572 71.8193Z" fill="white"/>
<path fill-rule="evenodd" clip-rule="evenodd" d="M82.6265 64.1852V64.2309L82.6274 64.1842C84.9046 64.187 86.7337 65.6018 86.7374 67.891C86.7356 70.3566 84.9632 71.9955 82.6823 72.0001C80.4132 71.9955 78.6701 70.4526 78.6664 68.1452C78.671 65.9137 80.3986 64.1879 82.6265 64.1852ZM82.7884 71.4413C84.8059 71.4404 85.1571 69.6725 85.1598 68.126C85.1598 66.5886 84.3321 64.7467 82.6073 64.744C80.7873 64.7458 80.2495 66.3609 80.245 67.7739C80.245 69.6634 81.1083 71.4385 82.7884 71.4413Z" fill="white"/>
<path d="M94.0201 71.9854L94.459 72.0001H94.5093L94.5002 71.9479C94.4499 71.6242 94.4408 71.2547 94.4408 70.8834V66.0554C94.4499 64.8061 94.9008 64.7659 95.3379 64.7549H95.5437V64.3434H95.498C95.2768 64.3434 95.0576 64.3537 94.8393 64.3641C94.6225 64.3743 94.4066 64.3845 94.1902 64.3845C93.9432 64.3845 93.6977 64.3743 93.4517 64.364C93.2047 64.3537 92.9573 64.3434 92.7077 64.3434H92.6592V64.7549H92.9391C93.2491 64.7613 93.8134 64.8638 93.817 65.7061V69.6094L89.1546 64.3598C88.9417 64.3501 88.7481 64.3605 88.5602 64.3707C88.4309 64.3777 88.3043 64.3845 88.176 64.3845C87.9766 64.3845 87.7737 64.3743 87.5701 64.3641C87.3648 64.3538 87.1585 64.3434 86.9542 64.3434H86.9112V64.754H87.0932C87.5495 64.754 88.0132 65.0961 88.0132 65.6613V70.1316C88.005 70.9767 87.8038 71.4276 87.1042 71.4294H86.9112V71.8409H86.9542C87.1959 71.8409 87.439 71.8304 87.6813 71.8198C87.9221 71.8093 88.1622 71.7989 88.3992 71.7989C88.6258 71.7989 88.8527 71.8093 89.0801 71.8198C89.3087 71.8304 89.5381 71.8409 89.7683 71.8409H89.8131V71.4294H89.5844C88.7879 71.4202 88.6479 71.1605 88.6351 70.2368V65.985L94.0201 71.9854Z" fill="white"/>
<path fill-rule="evenodd" clip-rule="evenodd" d="M102.762 71.8373L102.594 71.8306C102.203 71.8148 101.809 71.7989 101.395 71.7989C100.981 71.7989 100.557 71.8141 100.127 71.8296L99.8964 71.8378L99.8046 71.8409L99.758 71.8437V71.4312H99.9199C100.167 71.4312 100.532 71.3745 100.533 71.1697C100.534 71.0489 100.438 70.759 100.32 70.4206L99.9171 69.2207H97.575L97.2475 70.2926C97.2109 70.4169 97.1721 70.5312 97.137 70.6346C97.0697 70.8328 97.0156 70.9921 97.0162 71.1056C97.0162 71.3654 97.414 71.4312 97.7652 71.4312H97.9271V71.8437L97.8795 71.8409C97.8039 71.8377 97.7279 71.8343 97.6518 71.8308C97.3007 71.8149 96.9456 71.7989 96.5991 71.7989C96.2901 71.7989 95.9817 71.8145 95.6724 71.8301L95.6692 71.8303C95.5979 71.8339 95.5265 71.8375 95.455 71.8409L95.4093 71.8437V71.4312H95.5154C95.9105 71.4294 96.2415 71.2026 96.397 70.7727L98.0935 65.9027L98.1359 65.7817C98.2677 65.4056 98.431 64.9397 98.5142 64.5592C98.848 64.444 99.2733 64.23 99.4809 64.1019L99.4952 64.0969C99.5188 64.0885 99.5451 64.0791 99.5815 64.0791C99.6089 64.0772 99.6638 64.0836 99.6967 64.1413C99.7102 64.1766 99.7237 64.2141 99.7373 64.252L99.7377 64.2534L99.7618 64.3201C99.7654 64.3298 99.769 64.3395 99.7725 64.3491C99.7798 64.3686 99.7872 64.3878 99.7946 64.4065L101.745 69.956C101.77 70.027 101.794 70.0987 101.819 70.1704C101.922 70.4744 102.026 70.78 102.138 71.0352C102.262 71.3169 102.454 71.4285 102.793 71.4312H102.903V71.8437L102.856 71.8409L102.762 71.8373ZM97.8082 68.5348H99.6647L98.741 65.6933L97.8082 68.5348Z" fill="white"/>
<path d="M107.428 71.8199C107.895 71.8304 108.363 71.8409 108.831 71.8409L108.866 71.8419L108.875 71.8053C108.927 71.5645 108.981 71.3258 109.035 71.0873L109.035 71.0855C109.116 70.7258 109.197 70.3666 109.269 70.0018L109.279 69.9469H108.879L108.87 69.9816C108.806 70.2121 108.714 70.5029 108.55 70.7298C108.367 70.9822 107.995 71.2328 107.562 71.284C107.288 71.3132 107.019 71.3251 106.759 71.3251C106.554 71.3251 106.357 71.3187 106.17 71.3059C105.839 71.2584 105.579 71.1523 105.576 70.7554V65.2817C105.584 64.7682 105.82 64.7635 106.202 64.756L106.252 64.7549H106.561V64.3434H106.519C106.246 64.3434 105.976 64.3537 105.707 64.3641C105.44 64.3743 105.173 64.3845 104.904 64.3845C104.625 64.3845 104.347 64.3743 104.069 64.364C103.79 64.3537 103.51 64.3434 103.228 64.3434H103.183V64.754H103.377C103.762 64.7613 104.124 64.7961 104.129 65.3119V70.7673C104.124 71.3946 103.76 71.4221 103.377 71.4312H103.182V71.8409H103.228C103.696 71.8409 104.164 71.8304 104.631 71.8199C105.098 71.8094 105.564 71.7989 106.03 71.7989C106.495 71.7989 106.961 71.8094 107.428 71.8199Z" fill="white"/>
<path fill-rule="evenodd" clip-rule="evenodd" d="M108.539 65.7436V65.7975L109.078 65.7984V65.7436L109.044 65.7389C108.937 65.7244 108.915 65.7215 108.915 65.6549V65.2845H109.038C109.101 65.3745 109.154 65.4576 109.199 65.5295C109.302 65.692 109.368 65.7975 109.44 65.7975H109.658V65.7628C109.595 65.7244 109.497 65.6146 109.412 65.4985L109.227 65.2424C109.383 65.1948 109.493 65.0714 109.493 64.9058C109.493 64.7028 109.312 64.6086 109.115 64.6086H108.543V64.6653C108.689 64.6589 108.701 64.6991 108.701 64.8162V65.6439C108.701 65.7213 108.678 65.7243 108.566 65.7398L108.539 65.7436ZM109.047 65.2086H108.915V64.6827H109.04C109.155 64.6827 109.258 64.7458 109.258 64.9232C109.258 65.0997 109.191 65.2086 109.047 65.2086Z" fill="white"/>
<path fill-rule="evenodd" clip-rule="evenodd" d="M110.211 65.2086C110.211 64.5803 109.734 64.0891 109.094 64.0891C108.455 64.0891 107.977 64.5803 107.977 65.2086C107.977 65.8359 108.455 66.3225 109.094 66.3225C109.734 66.3225 110.211 65.8359 110.211 65.2086ZM109.978 65.2095C109.978 65.6887 109.595 66.1149 109.094 66.1149C108.591 66.1149 108.209 65.6887 108.209 65.2086C108.209 64.7275 108.591 64.2986 109.094 64.2986C109.6 64.2986 109.978 64.7275 109.978 65.2095Z" fill="white"/>
</svg>
