<svg width="190" height="74" viewBox="0 0 190 74" fill="none" xmlns="http://www.w3.org/2000/svg"><path d="M94.22 40.242c.427 3.95-.313 6.972-.572 7.93-.285 1.055-.683 2.492-1.663 4.17a15.2 15.2 0 0 1-3.728 4.264l-1.772 1.3-4.73 2.703c3.226-1.986 4.91-4.673 5.46-5.579 2.89-4.754 2.49-9.471 2.304-11.67-.615-7.235-4.656-11.908-5.852-13.252-1.338-1.502-4.329-4.777-9.44-6.38-1.681-.526-5.941-1.798-10.771-.19-.93.31-1.749.682-2.449 1.059l4.714-2.926c.519-.31 1.27-.71 2.222-1.057 2.749-1.004 5.134-.82 6.763-.68 2.538.221 4.441.88 5.206 1.167 3.907 1.467 6.305 3.825 7.525 5.05a24.1 24.1 0 0 1 5.015 7.476c1.343 3.142 1.676 5.776 1.767 6.615" fill="#EBECEE" stroke="#000" stroke-width=".5" stroke-linecap="round" stroke-linejoin="round"/><path d="M56.275 52.058a23 23 0 0 1-2.187-4.48c-.486-1.345-1.447-4.08-1.395-7.77.019-1.353.092-4.375 1.665-7.822.585-1.28 1.639-3.523 3.985-5.562.527-.458 2.33-1.96 5.125-2.89 4.83-1.608 9.09-.336 10.77.19 5.11 1.603 8.1 4.877 9.438 6.379 1.196 1.343 5.236 6.016 5.851 13.25.187 2.198.587 6.916-2.301 11.669-.68 1.116-3.081 4.942-7.974 6.821-5.97 2.294-11.293.017-12.702-.587-3.783-1.618-6.242-4.28-7.633-5.786a24 24 0 0 1-2.641-3.414zm55.087 10.194c-5.581-.267-9.383-2.863-10.911-3.937-5.909-4.152-7.978-9.95-8.645-11.905-.646-1.895-2.873-8.764.103-16.61.7-1.842 3.22-8.2 9.926-11.83 4.577-2.479 8.849-2.466 9.846-2.445.785.017 3.924.132 7.596 1.741 5.458 2.392 8.365 6.45 9.434 7.984.734 1.05 4.295 6.34 4.41 14.017.078 5.209-1.468 8.993-1.806 9.79-.734 1.734-2.695 6.205-7.576 9.566-1.262.87-5.864 3.94-12.378 3.63z" fill="#F6F7F8" stroke="#000" stroke-width=".5" stroke-linecap="round" stroke-linejoin="round"/><path d="M91.917 29.788c-2.978 7.848-.75 14.718-.103 16.613.667 1.955 2.737 7.755 8.647 11.908 1.529 1.075 5.333 3.673 10.916 3.939a19.3 19.3 0 0 0 4.141-.248l-5.295 1.055c-.593.085-1.412.172-2.391.168-.542-.002-2.182-.07-4.548-.657-3.711-.918-6.277-2.531-7.179-3.133-4.726-3.156-6.902-7.395-7.751-9.098-.763-1.529-2.963-6.34-2.585-12.82.11-1.877.381-5.81 2.765-10.142 0 0 2.749-4.995 7.415-7.967 1.916-1.22 4.034-2.018 4.034-2.018a22 22 0 0 1 2.253-.709l5.329-.783a20.4 20.4 0 0 0-5.719 2.057c-6.708 3.633-9.23 9.992-9.93 11.835" fill="#EBECEE" stroke="#000" stroke-width=".5" stroke-linecap="round" stroke-linejoin="round"/><path d="m110.639 26.537.304-3.878 4.121.544-.273 3.722a16.4 16.4 0 0 1 4.787 1.872l-1.334 4.185a17 17 0 0 0-1.57-.822c-.611-.282-1.288-.588-2.223-.832a11 11 0 0 0-2.21-.307c-.491-.02-.882-.001-1.31.18a1.9 1.9 0 0 0-.78.553c-.265.32-.355.652-.388.82-.099.501.039.9.11 1.097.166.46.437.741.651.96.284.291.546.463.883.67.816.5 1.477.845 1.66.94.301.157 1.115.587 1.903 1.102.522.34 1.385.91 2.3 1.853.497.511.895.919 1.276 1.592.143.253.604 1.106.774 2.332a7.3 7.3 0 0 1-.172 2.72c-.129.505-.365 1.4-1.063 2.344a6.1 6.1 0 0 1-1.523 1.451c-1.382.917-2.791 1.014-3.444 1.015l-.383 4.45-4.123-.554.268-4.315c-.832-.149-1.53-.35-2.067-.532a15.7 15.7 0 0 1-3.886-2.003l1.757-3.947c.418.272.955.598 1.596.931.816.425 1.546.798 2.584 1.081.759.208 1.347.273 1.835.327.916.103 1.339.06 1.561.03.472-.066.803-.113 1.15-.352.625-.432.783-1.13.82-1.304.156-.741-.119-1.327-.211-1.516-.23-.47-.545-.726-1.018-1.108-.377-.306-.673-.476-1.389-.88-.854-.483-1.409-.79-1.634-.916-1.197-.671-1.796-1.008-2.458-1.511-.697-.532-1.267-.965-1.802-1.744a6.5 6.5 0 0 1-1.005-2.523c-.227-1.303 0-2.32.12-2.834.135-.58.357-1.486 1.054-2.436a5.8 5.8 0 0 1 1.541-1.453c.77-.485 1.476-.663 2.024-.799a9 9 0 0 1 1.186-.209z" fill="#78CBD4" stroke="#000" stroke-width=".5" stroke-linecap="round" stroke-linejoin="round"/><path d="m145.277 36.345-.54-1.508-3.088-.956 1.625 4.383zm6.104 3.833-1.537-4.388-3.067-.878 1.609 4.366z" fill="#FF535E" stroke="#000" stroke-width=".5" stroke-linecap="round" stroke-linejoin="round"/><path d="m142.397 48.808-1.479 1.44-3.056-.911 3.505-3.302zm7.113-.958-3.481 3.396-3.068-.905 3.531-3.355z" fill="#FF444F" stroke="#000" stroke-width=".5" stroke-linecap="round" stroke-linejoin="round"/><path d="m147.973 43.547 1.537 4.303-3.019-.866-1.598-4.343 3.079.906z" fill="#FF535E" stroke="#000" stroke-width=".5" stroke-linecap="round" stroke-linejoin="round"/><path d="m148.39 39.28 2.993.898-3.414 3.368-3.077-.905z" fill="#FF444F" stroke="#000" stroke-width=".5" stroke-linecap="round" stroke-linejoin="round"/><path d="m139.725 41.633-3.509 3.327 1.638 4.376 3.506-3.302 1.597 4.3 3.533-3.356-1.598-4.342 3.5-3.363-1.608-4.365-3.503 3.356-1.624-4.382-3.529 3.43 1.596 4.32z" fill="#FF7E88" stroke="#000" stroke-width=".5" stroke-linecap="round" stroke-linejoin="round"/><path d="m55.433 56.485-1.629 4.675-1.368 1.627 1.596-4.713z" fill="#FF535E" stroke="#000" stroke-width=".5" stroke-linecap="round" stroke-linejoin="round"/><path d="m39.008 51.154 1.419-1.574 15.008 6.907-1.4 1.589z" fill="#FF7E88" stroke="#000" stroke-width=".5" stroke-linecap="round" stroke-linejoin="round"/><path d="m39.009 51.155 15.026 6.921-1.596 4.712-15.077-6.984z" fill="#FF444F" stroke="#000" stroke-width=".5" stroke-linecap="round" stroke-linejoin="round"/><path d="m87.953 10.585 2.872 7.916-.119 3.614-2.853-7.915z" fill="#FF535E" stroke="#000" stroke-width=".5" stroke-linecap="round" stroke-linejoin="round"/><path d="m87.853 14.2.1-3.614-11.093 1.898-.062 3.672z" fill="#FF7E88" stroke="#000" stroke-width=".5" stroke-linecap="round" stroke-linejoin="round"/><path d="M90.706 22.115 87.853 14.2l-11.056 1.957z" fill="#FF444F" stroke="#000" stroke-width=".5" stroke-linecap="round" stroke-linejoin="round"/><path d="m124.911 65.443-4.265-7-.582-3.472 4.247 7.003.6 3.468z" fill="#FF535E" stroke="#000" stroke-width=".5" stroke-linecap="round" stroke-linejoin="round"/><path d="m124.309 61.97.601 3.469 10.222-3.95-.647-3.517z" fill="#FF444F" stroke="#000" stroke-width=".5" stroke-linecap="round" stroke-linejoin="round"/><path d="m120.066 54.967 4.247 7.004 10.173-3.997z" fill="#FF7E88" stroke="#000" stroke-width=".5" stroke-linecap="round" stroke-linejoin="round"/><path d="M73.806 34.096a16 16 0 0 0-3.092.543 10 10 0 0 0-1.399.51c-.585.268-.977.45-1.39.846a4 4 0 0 0-.746 1.012 3.3 3.3 0 0 0-.367 1.014 3.05 3.05 0 0 0 .104 1.421l7.124-2.473.852 3.05-6.998 2.512a9.7 9.7 0 0 0 .935 1.892l6.632-2.321.836 3.063-5.487 1.96c.192.22.47.508.841.806.39.315.93.749 1.714.988.776.237 1.418.169 1.903.117.89-.095 1.53-.367 2.246-.672a13 13 0 0 0 1.553-.8 17 17 0 0 0 1.682-1.12q1.284 1.505 2.567 3.012a16.5 16.5 0 0 1-3.556 2.281c-1.322.623-3.194 1.506-5.746 1.442a10.5 10.5 0 0 1-3.873-.838c-2.324-1.013-3.667-2.648-4.249-3.46l-2.38.742-1.423-2.863q1.004-.352 2.007-.7l-.824-1.887-2.208.669-1.259-2.817 2.414-.881a9.7 9.7 0 0 1-.242-2.311c.009-.56.032-1.483.413-2.593.14-.406.336-.965.78-1.585.374-.523.737-.828 1.24-1.245a12.5 12.5 0 0 1 2.186-1.453 13.3 13.3 0 0 1 2.474-.978c.33-.094 1.158-.317 2.259-.443.719-.082 1.348-.1 1.85-.094l.629 3.653z" fill="#7989FB" stroke="#000" stroke-width=".5" stroke-linecap="round" stroke-linejoin="round"/></svg>