<svg width="128" height="80" viewBox="0 0 128 80" fill="none" xmlns="http://www.w3.org/2000/svg">
<circle cx="28" cy="40" r="18" fill="#F7931B"/>
<path fill-rule="evenodd" clip-rule="evenodd" d="M26.4031 31.5239L27.1976 28.2773L29.1331 28.7693L28.3538 31.9518C28.8756 32.0748 29.3983 32.1979 29.9073 32.3259L30.679 29.1639L32.6145 29.6559L31.8225 32.9051C34.2673 33.7635 36.0551 35.0523 35.7011 37.4508C35.449 39.2034 34.4965 40.0542 33.2308 40.3514C34.9677 41.2764 35.8514 42.6909 35.011 45.1482C33.9643 48.1949 31.4812 48.4537 28.1807 47.8131L27.3784 51.093L25.4429 50.601L26.2324 47.3673C25.7333 47.2392 25.2188 47.1033 24.6891 46.9573L23.8971 50.2064L21.9616 49.7144L22.7638 46.4294C21.4648 46.0917 20.1656 45.7558 18.8647 45.425L19.8249 43.1624C19.8249 43.1624 21.251 43.5467 21.2332 43.5211C21.7807 43.6595 22.0227 43.293 22.1195 43.0496C22.8451 40.0853 23.5689 37.1205 24.2918 34.1555C24.3173 33.7353 24.1747 33.2048 23.3903 33.005C23.4208 32.9819 21.9845 32.6488 21.9845 32.6488L22.4989 30.5374C23.799 30.8682 25.096 31.221 26.4031 31.5239ZM26.8498 40.3359C26.6708 40.295 26.5126 40.2588 26.3827 40.2258L25.3207 44.5768C25.4284 44.6042 25.5547 44.6383 25.6959 44.6764C27.2743 45.1025 30.7307 46.0356 31.28 43.7825C31.8423 41.478 28.4814 40.7092 26.8498 40.3359ZM28.2308 34.3811C28.0785 34.3468 27.9442 34.3166 27.8343 34.2888L26.8691 38.2349C26.9613 38.2582 27.0697 38.2877 27.1912 38.3207C28.5101 38.6792 31.3772 39.4584 31.8785 37.4149C32.3893 35.3175 29.5932 34.6879 28.2308 34.3811Z" fill="white"/>
<path d="M86.8254 36.39C87.4953 36.39 88.0952 36.4541 88.6213 36.5848C89.1511 36.7155 89.6313 36.8847 90.0644 37.0974L88.9244 39.7438C88.6264 39.6208 88.3169 39.5131 87.9972 39.4132C87.6775 39.3132 87.2864 39.2645 86.8254 39.2645C85.7211 39.2645 84.8486 39.6528 84.199 40.4269C83.552 41.2022 83.2272 42.2441 83.2272 43.5526C83.2272 44.3279 83.3902 44.9546 83.7188 45.4339C84.0461 45.9132 84.6512 46.1515 85.5275 46.1515C85.9605 46.1515 86.3796 46.1054 86.7795 46.0157C87.182 45.9247 87.5386 45.8106 87.852 45.6735L88.0991 48.3865C87.6813 48.5531 87.2202 48.7018 86.7146 48.8338C86.2076 48.9594 85.6039 49.026 84.9033 49.026C83.9799 49.026 83.1979 48.8876 82.5585 48.6159C81.9178 48.3391 81.3892 47.9726 80.9727 47.5087C80.5549 47.0435 80.2543 46.5014 80.0684 45.8773C79.8824 45.2544 79.7882 44.5996 79.7882 43.9165C79.7882 42.8836 79.9512 41.9096 80.2785 40.9972C80.6046 40.0847 81.0759 39.2863 81.6873 38.6007C82.2961 37.9202 83.0374 37.3794 83.9099 36.9834C84.7798 36.5886 85.7516 36.39 86.8241 36.39H86.8254ZM59.6828 31.0088L58.2995 36.8911C58.595 36.7552 58.8944 36.6502 59.1911 36.5733C59.4905 36.4964 59.8101 36.4579 60.1515 36.4579C60.8673 36.4579 61.4863 36.5886 62.006 36.8462C62.5282 37.1051 62.9587 37.455 63.3052 37.8958C63.6453 38.3379 63.8987 38.8544 64.063 39.4465C64.2261 40.0398 64.3076 40.678 64.3076 41.3624C64.3076 42.412 64.1191 43.4039 63.7382 44.3381C63.3587 45.2737 62.8428 46.0862 62.1856 46.7795C61.5296 47.4715 60.7552 48.0162 59.8624 48.4199C58.9708 48.8223 58.0015 49.0248 56.9596 49.0248C56.8259 49.0248 56.589 49.0209 56.254 49.0132C55.9203 49.0068 55.5356 48.9709 55.1051 48.9107C54.672 48.8505 54.2135 48.7595 53.7308 48.6364C53.2468 48.5173 52.7882 48.3481 52.3564 48.1354L56.2221 31.556L59.6828 31.0088ZM96.438 36.39C97.2124 36.39 97.8938 36.513 98.4836 36.7552C99.0695 36.9987 99.5535 37.3422 99.9356 37.7818C100.314 38.2239 100.6 38.7429 100.794 39.3452C100.989 39.9437 101.084 40.6101 101.084 41.3393C101.084 42.2492 100.943 43.163 100.662 44.0767C100.38 44.9866 99.9611 45.8081 99.4095 46.5398C98.8593 47.269 98.1715 47.865 97.3436 48.3289C96.5182 48.7915 95.5604 49.0248 94.4727 49.0248C93.683 49.0248 92.999 48.9017 92.4169 48.6595C91.8374 48.416 91.3572 48.0751 90.9776 47.633C90.5968 47.1934 90.3128 46.6718 90.1179 46.0708C89.9217 45.471 89.8288 44.8059 89.8288 44.078C89.8288 43.1642 89.9727 42.2505 90.2618 41.3393C90.5522 40.4269 90.9802 39.6067 91.5483 38.8775C92.1112 38.147 92.8067 37.5498 93.6244 37.0846C94.4421 36.6232 95.3821 36.39 96.438 36.39ZM77.0726 33.1759L76.2231 36.7104H79.9321L79.2621 39.4913H75.576L74.594 43.6884C74.5036 44.0383 74.4514 44.3651 74.4373 44.6675C74.4208 44.9725 74.459 45.2352 74.5482 45.4556C74.6373 45.6761 74.7965 45.8465 75.0283 45.9683C75.2589 46.09 75.5888 46.1515 76.0218 46.1515C76.3785 46.1515 76.7262 46.1169 77.0624 46.049C77.3962 45.9811 77.735 45.8862 78.0776 45.7632L78.3247 48.3648C77.8776 48.5314 77.3936 48.6749 76.8727 48.7966C76.3504 48.9197 75.7314 48.9786 75.0169 48.9786C73.9903 48.9786 73.1942 48.8223 72.6261 48.5121C72.0606 48.2007 71.6594 47.774 71.4199 47.2331C71.183 46.6949 71.0773 46.0746 71.1079 45.3762C71.1385 44.6752 71.2416 43.9396 71.4199 43.1642L73.6107 33.7231L77.0726 33.1759ZM70.713 36.7104L67.8982 48.7056H64.5916L67.3836 36.7104H70.713ZM107.503 36.7104L104.688 48.7056H101.379L104.172 36.7104H107.503ZM114.618 36.4361C116.361 36.4361 117.564 36.9539 118.227 37.9868C118.89 39.021 119.004 40.4358 118.575 42.2287L117.054 48.7056H113.726L115.2 42.3658C115.289 41.9686 115.36 41.5867 115.412 41.2125C115.465 40.8421 115.462 40.5153 115.4 40.2334C115.341 39.954 115.203 39.7246 114.988 39.5477C114.77 39.3734 114.44 39.2863 113.993 39.2863C113.562 39.2863 113.123 39.3337 112.676 39.4247L110.509 48.7056H107.179L109.883 37.2576C110.134 37.182 110.414 37.0923 110.72 36.9949C111.026 36.8962 111.367 36.8052 111.749 36.7232C112.126 36.6386 112.552 36.5694 113.022 36.5169C113.49 36.4618 114.024 36.4361 114.618 36.4361ZM59.3261 39.2863C59.1173 39.2863 58.8472 39.3273 58.5122 39.4003C58.176 39.4772 57.8754 39.6374 57.6066 39.8796L56.133 46.1272L56.3673 46.1733C56.4323 46.1887 56.5049 46.1989 56.5775 46.2079C56.6539 46.2156 56.7418 46.2207 56.8475 46.2207H57.2487C57.771 46.2207 58.2613 46.09 58.7224 45.8324C59.1848 45.5761 59.5847 45.2275 59.9197 44.7944C60.2534 44.3599 60.5183 43.8717 60.7119 43.3232C60.9043 42.7759 61.0023 42.2056 61.0023 41.6123C61.0023 40.8818 60.8826 40.3128 60.6457 39.9014C60.4075 39.4913 59.9668 39.2863 59.3274 39.2863H59.3261ZM96.1259 39.2645C95.6356 39.2645 95.2025 39.4093 94.8319 39.6964C94.4587 39.9873 94.1466 40.3513 93.8944 40.7921C93.6397 41.2342 93.4499 41.7161 93.3212 42.2402C93.1964 42.7657 93.134 43.2616 93.134 43.7332C93.134 44.4945 93.2537 45.0878 93.4906 45.5146C93.7301 45.9375 94.1606 46.1515 94.786 46.1515C95.2789 46.1515 95.7094 46.008 96.0826 45.7171C96.452 45.43 96.7653 45.0635 97.0201 44.6226C97.2735 44.1831 97.4633 43.6999 97.592 43.1745C97.7168 42.6516 97.7805 42.1518 97.7805 41.6815C97.7805 40.9228 97.6608 40.3282 97.4213 39.9027C97.1831 39.4772 96.7513 39.2645 96.1259 39.2645ZM69.9998 31.2356C70.4608 31.2356 70.8773 31.3766 71.2493 31.6573C71.6212 31.9392 71.8084 32.3698 71.8084 32.9452C71.8084 33.2656 71.7447 33.5655 71.6174 33.8474C71.4913 34.1294 71.3244 34.3716 71.1155 34.5779C70.9092 34.7829 70.6646 34.9444 70.3895 35.0674C70.1131 35.1905 69.8202 35.2481 69.5081 35.2481C69.047 35.2481 68.6293 35.1072 68.2573 34.8265C67.8829 34.5471 67.6969 34.1178 67.6969 33.5386C67.6969 33.2182 67.7606 32.9209 67.888 32.6376C68.0153 32.3557 68.1809 32.1148 68.3911 31.9072C68.6 31.7034 68.8407 31.5406 69.1171 31.4176C69.3922 31.2959 69.6864 31.2356 69.9998 31.2356ZM106.787 31.2356C107.249 31.2356 107.667 31.3766 108.039 31.6573C108.411 31.9392 108.599 32.3698 108.599 32.9452C108.599 33.2656 108.532 33.5655 108.407 33.8474C108.282 34.1294 108.114 34.3716 107.906 34.5779C107.696 34.7829 107.456 34.9444 107.18 35.0674C106.904 35.1905 106.61 35.2481 106.296 35.2481C105.835 35.2481 105.418 35.1072 105.046 34.8265C104.674 34.5471 104.487 34.1178 104.487 33.5386C104.487 33.2182 104.55 32.9209 104.678 32.6376C104.802 32.3557 104.971 32.1148 105.179 31.9072C105.388 31.7034 105.632 31.5406 105.905 31.4176C106.181 31.2959 106.475 31.2356 106.787 31.2356Z" fill="white"/>
</svg>
