<svg width="24" height="24" fill="none" xmlns="http://www.w3.org/2000/svg"><mask id="a" style="mask-type:alpha" maskUnits="userSpaceOnUse" x="0" y="0" width="24" height="24"><path d="M0 4.5A4.5 4.5 0 0 1 4.5 0h15A4.5 4.5 0 0 1 24 4.5v15a4.5 4.5 0 0 1-4.5 4.5h-15A4.5 4.5 0 0 1 0 19.5v-15Z" fill="#fff"/></mask><g mask="url(#a)"><path fill="#333" d="M0 0h24v9H0z"/><path d="m4.786 4.188.085 1.195h.44l-.2-2.237H4.54l-.304 1.11a3.19 3.19 0 0 1-.04.182c-.014.06-.028.12-.04.182-.013-.054-.024-.11-.034-.165a2.288 2.288 0 0 0-.042-.188l-.292-1.121H3.21L3 5.38h.446l.076-1.168c.009-.134.014-.268.017-.402.022.134.054.266.09.397l.32 1.176h.383l.353-1.225c.032-.115.062-.227.084-.345.003.126.009.249.017.375Z" fill="#fff"/><path fill-rule="evenodd" clip-rule="evenodd" d="M6.405 5.099c-.25 0-.353-.173-.353-.405h.952c0-.476-.099-.998-.695-.998-.312 0-.555.18-.667.475a1.19 1.19 0 0 0 .008.78c.126.3.388.47.714.47a.977.977 0 0 0 .62-.23l-.166-.257a.664.664 0 0 1-.413.165ZM6.317 4.01c.123 0 .219.09.233.213.005.052.008.104.008.156H6.06a.9.9 0 0 1 .014-.147c.019-.126.112-.222.243-.222Z" fill="#fff"/><path d="M7.414 5.295c.18.173.509.15.72.052l-.058-.262a.4.4 0 0 1-.17.033c-.159 0-.17-.132-.17-.263V4.03h.277l.11-.295h-.386c0-.167.01-.331.024-.498l-.437.11c-.019.107-.018.216-.017.324v.064h-.164v.298h.164v.894c0 .134.003.268.107.37Z" fill="#fff"/><path fill-rule="evenodd" clip-rule="evenodd" d="M9.26 5.268a.488.488 0 0 0 .232.2l.23-.268c-.145-.101-.156-.208-.156-.367v-.552c0-.375-.142-.585-.563-.585-.25 0-.498.104-.706.235l.186.309c.134-.101.306-.189.479-.189.164 0 .188.101.188.249v.068c-.26-.032-.683.017-.823.28a.598.598 0 0 0-.065.284c0 .336.235.514.566.514a.552.552 0 0 0 .432-.178Zm-.536-.339c-.006-.08.016-.161.074-.205.083-.067.238-.063.34-.06h.004l-.005.355a.304.304 0 0 1-.225.112c-.114 0-.18-.095-.188-.202Z" fill="#fff"/><path d="M10.857 3.515h.533l.077-.37H9.853v.37h.547v1.868h.457V3.515ZM12.438 3.731l-.12.38c-.132-.084-.299 0-.39.107v1.165h-.431v-1.1c0-.16-.006-.33-.06-.483l.385-.104a.51.51 0 0 1 .069.235c.125-.164.341-.307.547-.2Z" fill="#fff"/><path fill-rule="evenodd" clip-rule="evenodd" d="M13.466 5.268a.488.488 0 0 0 .232.2l.23-.268c-.142-.101-.156-.203-.156-.367v-.552c0-.388-.15-.585-.563-.585-.25 0-.498.104-.706.235l.183.312c.134-.102.307-.19.479-.19.19 0 .19.152.189.293v.022a1.224 1.224 0 0 0-.602.085c-.2.093-.287.263-.287.479 0 .095.016.175.05.238.106.205.292.276.519.276.177 0 .303-.05.432-.178Zm-.536-.364c0-.068.016-.136.074-.18.079-.064.222-.063.323-.063h.021l-.005.355a.304.304 0 0 1-.225.113c-.125 0-.188-.11-.188-.225ZM15.183 5.287a.2.2 0 0 0 .025.096h.377c-.064-.159-.062-.349-.06-.523V3.07l-.424-.068v.566c0 .08 0 .159.014.238a.385.385 0 0 0-.293-.11.66.66 0 0 0-.517.241c-.142.18-.188.427-.188.651 0 .21.04.43.177.596a.622.622 0 0 0 .51.238.582.582 0 0 0 .38-.134Zm-.312-1.23c.093 0 .173.043.241.106h.003v.79a.292.292 0 0 1-.23.107c-.273 0-.284-.27-.284-.47 0-.183.013-.533.27-.533Z" fill="#fff"/><path d="M18.041 4.218c.09-.107.257-.191.388-.107l.12-.383c-.204-.106-.42.036-.546.2a.51.51 0 0 0-.069-.235l-.385.104c.052.153.06.325.06.484v1.102h.432V4.218Z" fill="#fff"/><path fill-rule="evenodd" clip-rule="evenodd" d="M16.704 5.099c-.25 0-.353-.173-.353-.405h.952c0-.088 0-.175-.006-.263-.03-.424-.251-.735-.689-.735-.314 0-.555.183-.667.475a1.078 1.078 0 0 0-.058.383c0 .235.055.473.222.648a.78.78 0 0 0 .558.22.977.977 0 0 0 .62-.23l-.166-.258a.664.664 0 0 1-.413.165Zm-.09-1.089c.07 0 .136.03.18.085.063.082.063.186.06.282h-.498c0-.102.011-.208.077-.288a.224.224 0 0 1 .18-.079Z" fill="#fff"/><path d="M20.62 5.69c.24-.198.38-.477.38-.788 0-.583-.552-.92-1.108-.815l.06-.594h.887l.046-.492h-1.468l-.143 1.635h.002c.194-.06.475-.147.707-.115a.434.434 0 0 1 .39.452c0 .413-.401.629-.779.629-.134 0-.279-.022-.413-.069l-.032.37c.155.065.328.095.495.095.344 0 .702-.09.976-.309Z" fill="#fff"/><path fill="#FF444F" d="M0 9h24v15H0z"/><path d="M11.871 15.241a1.2 1.2 0 1 0-2.143 0L7.742 17.23a1.2 1.2 0 1 0 .53.53l1.988-1.988a1.194 1.194 0 0 0 1.082 0l1.388 1.388a1.2 1.2 0 1 0 2.143 0l1.387-1.388a1.2 1.2 0 1 0-.53-.53L14.34 16.63a1.196 1.196 0 0 0-1.082 0l-1.388-1.388Z" fill="#fff"/></g></svg>