<svg xmlns="http://www.w3.org/2000/svg" width="184" height="114" fill="none"><g stroke="#000" stroke-linecap="round" stroke-linejoin="round" stroke-width=".68"><path fill="#EBECEE" d="M92.09 54.039q-.002 15.187.007 30.364v.918c.008.78.015 1.174.06 1.584.126 1.173.513 2.038.617 2.247.111.247.393.795.884 1.39.297.363.587.64.817.841.268.17.64.379 1.123.556 1.017.387 1.872.402 2.333.41 1.13.015 1.977-.232 2.712-.448a11.7 11.7 0 0 0 1.71-.657c.854-.332 1.701-.671 2.556-1.004V64.92c-.008-.502 0-1.136.082-1.854a13.97 13.97 0 0 1 1.635-5.382c.267-.518.921-1.707 2.021-3.02.468-.556 1.115-1.32 2.14-2.123.87-.68 1.628-1.09 2.081-1.328.721-.387 1.36-.65 1.858-.834l55.727-22.727a11 11 0 0 0 2.059-.934c.312-.186.758-.448 1.278-.896.401-.348.825-.71 1.211-1.313.208-.324.543-.857.647-1.621.156-1.097-.268-1.97-.461-2.356-.416-.834-.981-1.312-1.471-1.722-.179-.154-.61-.494-1.464-.957a14.5 14.5 0 0 0-3.159-1.251c-1.553-.417-2.779-.471-3.641-.51a18.5 18.5 0 0 0-3.738.216 19.4 19.4 0 0 0-3.775 1.035 164102 164102 0 0 0-54.881 22.34c-.349.132-.854.332-1.456.603-.929.417-1.769.787-2.698 1.405a13 13 0 0 0-2.147 1.784 16.5 16.5 0 0 0-2.326 2.95 16.7 16.7 0 0 0-1.672 3.498c-.416 1.266-.535 2.193-.573 2.456-.081.671-.089 1.25-.081 1.683z"/><path fill="#fff" d="M87.74 51.413c.015 10.433.023 20.873.038 31.306 0 .247.014.571.066.95.045.34.134.973.431 1.722.097.231.446 1.073 1.212 1.93a7 7 0 0 0 1.077.973c1.3 1.035 2.609 2.062 3.91 3.097-.239-.2-.521-.479-.818-.842a7.2 7.2 0 0 1-.885-1.39 7.3 7.3 0 0 1-.616-2.247c-.045-.41-.045-.803-.06-1.583v-.919c0-10.124 0-20.248-.007-30.364-.015-.432 0-1.011.082-1.683.03-.27.148-1.197.572-2.456.119-.355.61-1.799 1.672-3.498a16.5 16.5 0 0 1 2.326-2.95c.416-.409 1.107-1.096 2.147-1.784.937-.617 1.769-.996 2.698-1.405.595-.27 1.1-.471 1.457-.602 18.296-7.444 36.584-14.889 54.88-22.34a19 19 0 0 1 1.798-.595 19 19 0 0 1 1.977-.44 18.5 18.5 0 0 1 3.738-.217c.862.039 2.088.093 3.641.51.654.178 1.836.533 3.159 1.251.854.463 1.285.81 1.464.958.49.409 1.055.888 1.471 1.722.193.386.617 1.258.461 2.355-.104.764-.446 1.297-.647 1.622-.386.61-.81.973-1.211 1.312-.52.448-.966.718-1.278.896-.491.294-1.182.649-2.059.934-18.578 7.576-37.149 15.152-55.727 22.727-.498.185-1.137.456-1.858.834-.453.24-1.211.649-2.081 1.328-1.025.803-1.672 1.568-2.14 2.124a17 17 0 0 0-2.021 3.02c-.32.617-.84 1.629-1.219 3.057-.067.24-.29 1.127-.416 2.325-.075.725-.089 1.359-.082 1.853v28.333c0 1.05.015 2.1.022 3.15 0 .301.015.695.089 1.143.112.71.313 1.243.402 1.483.111.278.327.81.758 1.39.312.417.609.71.862.95.26.247.498.44.676.579l3.597 2.857c-.394-.355-.632-.703-.825-.989a7.2 7.2 0 0 1-.937-2 7.3 7.3 0 0 1-.274-1.359l-.067-32.95c0-.263.015-.633.059-1.081.171-1.73.676-2.989 1.018-3.815.275-.664.944-2.162 2.2-3.815.565-.741 1.553-2.023 3.218-3.228a13.6 13.6 0 0 1 2.987-1.63c18.727-7.621 37.454-15.235 56.173-22.857a22 22 0 0 0 2.133-1.004c.833-.448 1.672-.895 2.527-1.583.795-.64 2.385-1.915 3.106-4.154.223-.695.32-1.344.357-1.9v-.973a5.5 5.5 0 0 0-.149-.81c-.185-.734-.527-1.476-1.204-2.356-1.166-1.529-2.608-2.556-3.388-3.058-1.442-.934-2.661-1.405-3.612-1.76-.386-.147-2.207-.82-4.919-1.275a31.4 31.4 0 0 0-7.335-.355 30.7 30.7 0 0 0-6.733 1.29c-1.278.393-2.333.81-3.121 1.15L98.56 36.24c-.58.209-1.352.517-2.222.965-.891.456-2.058 1.058-3.314 2.163-1.33 1.166-2.11 2.309-2.683 3.15-.564.842-1.196 1.792-1.724 3.213-.119.332-.639 1.768-.825 3.768a16 16 0 0 0-.059 1.9z"/><path fill="#EBECEE" d="M179.514 28.509c-.854.687-1.694 1.135-2.526 1.583a22 22 0 0 1-2.133 1.004c-18.727 7.622-37.454 15.235-56.173 22.857-.788.31-1.851.811-2.988 1.63-1.672 1.204-2.653 2.479-3.218 3.228a17.5 17.5 0 0 0-2.199 3.814c-.342.827-.847 2.085-1.018 3.815-.045.448-.06.819-.06 1.081l.067 32.951c.06.563.171 1.027.275 1.359a7.2 7.2 0 0 0 .936 2c.194.286.431.633.825.988.803.726 1.65.958 2.222 1.105.193.054 1.063.262 2.237.177.914-.069 1.553-.285 2.631-.648a23 23 0 0 0 2.095-.834c18.215-7.43 36.429-14.85 54.65-22.279a18 18 0 0 0 1.739-.803 16.5 16.5 0 0 0 2.037-1.267c.364-.27.98-.725 1.686-1.436.64-.648 1.108-1.112 1.539-1.9.119-.208.579-1.073.802-2.324.119-.664.134-1.228.119-1.645-.029-17.158-.052-34.317-.081-51.476a7.8 7.8 0 0 1-.357 2.88c-.721 2.24-2.311 3.514-3.107 4.155z"/></g><g stroke="#000" stroke-linecap="round" stroke-linejoin="round" stroke-width=".68"><path fill="#CED0D6" d="M14.777 103.568c.825 1.335 2.148 1.814 2.326 1.876 1.27.44 2.363.124 3.151-.116 1.71-.517 2.78-1.56 3.7-2.479.893-.888 2.23-2.255 2.936-4.494.283-.911.699-2.27.327-3.93-.148-.665-.483-2.178-1.79-3.082-1.019-.702-2.096-.664-2.706-.648a5.7 5.7 0 0 0-1.88.386c-.06.957-.26 2.216-.855 3.567-1.612 3.638-4.875 5.097-5.818 5.475-.141 1.128-.06 2.356.617 3.445z"/><path fill="#fff" d="m13.086 84.108 3.322 2.595c.037.262.14.687.416 1.12.617.95 1.598 1.18 1.865 1.235.877.185 1.576-.085 2.103-.286 1.182-.455 1.903-1.235 2.267-1.63 1.315-1.45 1.768-3.119 1.932-4.022-2.103-1.66-4.214-3.313-6.317-4.974a8 8 0 0 1-1.174 2.889c-.342.525-1.285 1.9-3.106 2.68a6.3 6.3 0 0 1-1.308.4zM1.277 98.858c2.074 1.675 4.154 3.351 6.228 5.027a7.7 7.7 0 0 0 2.653-1.576c.43-.393 1.479-1.374 2.043-3.034.156-.472.424-1.282.327-2.333-.052-.555-.119-1.312-.676-1.969-.58-.687-1.33-.872-1.627-.934-1.383-1.12-2.772-2.232-4.154-3.352.104.71.26 2.41-.558 4.255-1.233 2.78-3.738 3.746-4.236 3.923z"/><path fill="#CED0D6" d="M28.936 91.15c.074.425.253 1.452 1.1 2.07 1.114.826 2.57.324 2.846.232.446-.155.78-.371 1.003-.533-1.605-1.251-3.203-2.51-4.808-3.769a4.25 4.25 0 0 0-.141 2M11.598 108.982c1.746 1.374 3.492 2.756 5.246 4.131.178-.355.431-.965.49-1.745.038-.525.127-1.653-.601-2.564-.862-1.073-2.252-1.05-2.482-1.043-1.093.024-1.903.603-2.653 1.221"/><path fill="#fff" d="M1.864 102.81a9.3 9.3 0 0 0 1.68 2.811l6.45 5.012a9.56 9.56 0 0 1-2.393-5.182 10.6 10.6 0 0 1-.089-1.56c-2.073-1.675-4.154-3.351-6.227-5.027a9.5 9.5 0 0 0 .587 3.946zM3.922 88.95c.713.58 1.434 1.158 2.147 1.738 1.382 1.12 2.772 2.231 4.154 3.351a19.8 19.8 0 0 1 2.445-3.83c.446-.549.9-1.043 1.338-1.475a19.5 19.5 0 0 1 2.385-2.016l-3.321-2.594q-1.57-1.23-3.13-2.448a22.7 22.7 0 0 0-3.306 3.228 23 23 0 0 0-2.72 4.062zM18.672 78.146c2.103 1.66 4.213 3.313 6.316 4.974.26-.024.617-.04 1.026-.016.758.039 1.724.2 2.75.68.594.278 1.1.602 1.5.918l-5.96-4.942a7.2 7.2 0 0 0-2.846-1.482 6.9 6.9 0 0 0-2.794-.132z"/><path fill="#EBECEE" d="M7.596 105.452c.104.757.312 1.645.713 2.58a9.7 9.7 0 0 0 1.68 2.602 8.2 8.2 0 0 1 1.293-1.382c.104-.085.208-.178.312-.263.743-.618 1.56-1.197 2.653-1.22.23 0 1.62-.031 2.482 1.042.728.904.64 2.039.602 2.564a4.7 4.7 0 0 1-.49 1.745c1.248-.115 2.98-.44 4.874-1.312a15 15 0 0 0 2.832-1.691 6.1 6.1 0 0 1-.35-2.865c.186-1.398.84-2.348 1.353-3.097.394-.571.855-1.236 1.702-1.822.424-.294 1.434-.973 2.846-.966.661 0 1.19.155 1.538.286a18.2 18.2 0 0 0 1.88-5.143 18 18 0 0 0 .365-3.59 3.8 3.8 0 0 1-1.004.532c-.282.093-1.731.595-2.846-.232-.84-.617-1.018-1.644-1.1-2.07-.126-.725-.037-1.39.142-2 .185-.61.46-1.173.72-1.683a9.7 9.7 0 0 1 1.33-1.992 7 7 0 0 0-.453-.432c-.134-.116-.267-.224-.401-.333a7.6 7.6 0 0 0-1.501-.918c-1.033-.48-2-.641-2.75-.68a7 7 0 0 0-1.025.016c-.171.903-.617 2.571-1.932 4.023-.364.401-1.085 1.174-2.267 1.63-.528.2-1.226.47-2.103.285-.26-.054-1.248-.286-1.865-1.236a2.75 2.75 0 0 1-.416-1.12 18.4 18.4 0 0 0-2.386 2.016c-.446.44-.892.927-1.337 1.475a19 19 0 0 0-1.383 1.923 18 18 0 0 0-1.062 1.907c.29.054 1.047.24 1.627.935.557.664.624 1.42.676 1.969.097 1.058-.17 1.868-.327 2.332-.565 1.66-1.62 2.649-2.043 3.035a7.65 7.65 0 0 1-2.653 1.575c-.008.402 0 .934.089 1.56zm6.57-5.328c.148-1.143.527-2.178.78-2.85.17-.47 1.092-2.864 3.478-4.725.557-.44 1.36-1.066 2.415-1.468a6.1 6.1 0 0 1 1.88-.386c.61-.023 1.687-.054 2.705.649 1.308.903 1.642 2.417 1.79 3.081.365 1.66-.044 3.027-.326 3.93-.706 2.248-2.044 3.615-2.936 4.495-.921.919-1.984 1.961-3.7 2.479-.788.239-1.88.556-3.151.116-.186-.062-1.501-.541-2.326-1.877-.67-1.089-.758-2.317-.617-3.444z"/><path fill="#CED0D6" d="M145.628 35.691c1.092 1.768 2.839 2.402 3.084 2.487 1.679.579 3.128.162 4.169-.155 2.266-.687 3.671-2.062 4.897-3.282 1.174-1.173 2.95-2.98 3.879-5.953.379-1.205.922-3.004.431-5.205-.193-.873-.632-2.88-2.363-4.078-1.345-.934-2.772-.88-3.582-.857a7.7 7.7 0 0 0-2.489.51c-.082 1.266-.342 2.934-1.137 4.718-2.133 4.811-6.451 6.75-7.699 7.251-.193 1.49-.075 3.12.81 4.556z"/><path fill="#fff" d="M143.387 9.946c1.464 1.143 2.928 2.293 4.392 3.436.052.348.185.911.557 1.483.81 1.258 2.118 1.56 2.467 1.637 1.167.247 2.088-.108 2.779-.378 1.568-.603 2.52-1.63 2.995-2.163 1.739-1.922 2.341-4.131 2.564-5.328-2.787-2.193-5.573-4.386-8.368-6.58a10.6 10.6 0 0 1-1.545 3.815c-.454.695-1.695 2.518-4.11 3.545a8.8 8.8 0 0 1-1.731.533M127.761 29.467c2.75 2.216 5.492 4.44 8.242 6.657a10.2 10.2 0 0 0 3.507-2.085c.565-.518 1.962-1.823 2.705-4.024.208-.625.565-1.698.431-3.088-.067-.734-.156-1.73-.891-2.61-.766-.912-1.762-1.159-2.148-1.236l-5.499-4.44c.141.942.349 3.189-.743 5.63-1.635 3.675-4.95 4.949-5.611 5.188z"/><path fill="#CED0D6" d="M164.362 19.266c.096.556.341 1.915 1.449 2.741 1.479 1.09 3.403.425 3.767.301a5 5 0 0 0 1.331-.702c-2.126-1.66-4.244-3.32-6.369-4.981-.238.81-.357 1.683-.186 2.649zM141.414 42.866c2.311 1.822 4.63 3.645 6.941 5.467a6.2 6.2 0 0 0 .654-2.309c.052-.695.163-2.193-.803-3.39-1.144-1.429-2.98-1.39-3.284-1.382-1.442.03-2.52.795-3.508 1.614"/><path fill="#fff" d="M128.532 34.688a12.3 12.3 0 0 0 2.222 3.722 3752 3752 0 0 1 8.531 6.633 12.5 12.5 0 0 1-2.222-3.444 13 13 0 0 1-.944-3.405 13 13 0 0 1-.119-2.07c-2.749-2.216-5.491-4.44-8.241-6.656a12.7 12.7 0 0 0 .773 5.228zM131.269 16.347c.951.765 1.895 1.53 2.846 2.294l5.5 4.44c.371-.764.832-1.614 1.404-2.525a25 25 0 0 1 3.604-4.502 24.4 24.4 0 0 1 3.159-2.664c-1.464-1.143-2.928-2.294-4.392-3.437q-2.074-1.62-4.147-3.243a30.3 30.3 0 0 0-4.377 4.27 31.2 31.2 0 0 0-3.604 5.375zM150.781 2.054q4.179 3.29 8.368 6.579c.349-.031.81-.046 1.36-.016.996.054 2.281.27 3.641.896.788.363 1.449.796 1.992 1.22-2.631-2.177-5.262-4.363-7.885-6.54a9.45 9.45 0 0 0-3.768-1.962 9.2 9.2 0 0 0-3.7-.177z"/><path fill="#EBECEE" d="M136.123 38.193c.134.997.409 2.17.944 3.406a12.7 12.7 0 0 0 2.222 3.444c.364-.487.922-1.158 1.717-1.83.133-.116.275-.232.408-.348.989-.818 2.066-1.583 3.508-1.614.305 0 2.14-.046 3.285 1.383.966 1.197.847 2.695.802 3.39a6.2 6.2 0 0 1-.654 2.309c1.65-.155 3.946-.58 6.451-1.73a20 20 0 0 0 3.745-2.24c-.327-.88-.661-2.224-.461-3.791.238-1.854 1.107-3.105 1.791-4.093.52-.757 1.13-1.637 2.252-2.417.565-.386 1.895-1.29 3.768-1.282.877 0 1.575.209 2.028.378a24 24 0 0 0 2.49-6.81c.364-1.792.483-3.406.483-4.75a5 5 0 0 1-1.33.703c-.372.124-2.297.788-3.768-.301-1.115-.819-1.353-2.178-1.449-2.741-.171-.958-.052-1.838.186-2.65.245-.81.609-1.551.951-2.223a12.6 12.6 0 0 1 1.761-2.641c-.171-.178-.364-.37-.594-.58l-.535-.44a10 10 0 0 0-1.992-1.22 9.7 9.7 0 0 0-3.641-.895c-.55-.031-1.019-.008-1.36.015-.223 1.197-.818 3.406-2.564 5.328-.483.526-1.434 1.553-2.995 2.163-.699.27-1.62.625-2.779.378-.35-.077-1.657-.378-2.467-1.637a3.9 3.9 0 0 1-.558-1.483 25.7 25.7 0 0 0-4.934 4.618 25 25 0 0 0-1.828 2.548 24 24 0 0 0-1.405 2.526c.387.077 1.39.316 2.148 1.235.735.88.825 1.877.892 2.61.126 1.398-.223 2.471-.431 3.09-.751 2.2-2.141 3.505-2.705 4.022a10.2 10.2 0 0 1-3.508 2.085c-.015.525 0 1.236.119 2.07zm8.688-7.058c.193-1.506.698-2.88 1.032-3.768.231-.626 1.45-3.792 4.608-6.255.743-.58 1.806-1.413 3.203-1.946a7.7 7.7 0 0 1 2.489-.51c.81-.023 2.23-.077 3.582.857 1.732 1.197 2.17 3.205 2.363 4.078.483 2.2-.059 4-.431 5.204-.936 2.973-2.705 4.78-3.879 5.954-1.219 1.22-2.631 2.595-4.897 3.282-1.04.317-2.49.734-4.169.155-.238-.085-1.992-.719-3.084-2.487-.892-1.436-1.003-3.066-.81-4.556z"/><path fill="#FF7E88" d="M17.768 60.535a26.2 26.2 0 0 0 3.79 8.657c3.203 2.494 6.406 4.98 9.609 7.475-2.46-2.51-3.62-5.197-4.103-6.348-3.15-7.544-.906-14.927.64-20.008 3.359-11.066 10.047-17.676 12.87-20.394 3.768-3.63 9.253-8.796 17.71-10.449 3.15-.617 8.077-1.505 13.138 1.159.855.448 1.62.957 2.311 1.482L63.39 13.955A20.8 20.8 0 0 0 57.258 12c-6.376-.965-11.43 1.444-14.93 3.166-9.014 4.448-14.06 11.313-16.341 14.518-2 2.803-6.22 8.842-8.011 17.76-.654 3.252-1.486 7.638-.215 13.082z"/><path fill="#FF535E" d="M27.074 70.311c.483 1.15 1.643 3.838 4.102 6.348a17.2 17.2 0 0 0 2.654 2.216c3.968 2.68 7.884 2.857 10.158 2.927 7.09.231 12.403-3.012 14.677-4.61l9.668 7.683c0-5.29-.007-10.587-.015-15.877a50.6 50.6 0 0 0 7.922-11.56c1.947-3.907 4.66-9.513 4.816-17.128.067-3.32.156-7.845-2.505-12.548-.535-.95-2.014-3.498-4.815-5.645a16 16 0 0 0-2.311-1.483c-5.061-2.664-9.988-1.776-13.139-1.158-8.457 1.652-13.941 6.819-17.709 10.448-2.816 2.718-9.505 9.32-12.87 20.394-1.547 5.082-3.791 12.464-.64 20.008zM61.4 54.45c-3.456 1.42-6.911 2.834-10.374 4.255-.93-.718-1.866-1.437-2.795-2.155q.059-12.244.104-24.48a5903 5903 0 0 1 10.397-4.254c.892.726 1.79 1.452 2.683 2.185-.008 8.155-.023 16.302-.03 24.456zM48.21 72.219c.029-3.614.051-7.22.08-10.835l10.345-4.425a684 684 0 0 0 2.66 2.263c.023 3.63.038 7.259.053 10.888-3.411 1.406-6.822 2.819-10.24 4.224l-2.899-2.131z"/><path fill="#fff" d="M51.03 58.705c3.455-1.42 6.91-2.834 10.374-4.255.007-8.155.014-16.301.03-24.456-.9-.726-1.792-1.46-2.683-2.185-3.463 1.42-6.934 2.834-10.397 4.254q-.057 12.246-.104 24.48c.929.718 1.865 1.436 2.794 2.154zM48.21 72.22c.967.71 1.933 1.412 2.9 2.13 3.41-1.405 6.828-2.818 10.24-4.224-.015-3.629-.038-7.258-.052-10.888-.885-.757-1.777-1.506-2.66-2.262L48.292 61.4c-.03 3.607-.052 7.22-.082 10.835z"/><path fill="#FF7E88" d="M48.29 61.393c.92.71 1.842 1.413 2.764 2.123q5.114-2.142 10.24-4.286c-.884-.756-1.776-1.505-2.66-2.262z"/><path fill="#FF7E88" d="M48.21 72.22c.967.71 1.933 1.412 2.9 2.13-.016-3.614-.038-7.22-.053-10.834q-1.382-1.067-2.764-2.123c-.03 3.606-.052 7.22-.082 10.834z"/><path fill="#FF535E" d="M51.05 63.516c.016 3.607.038 7.22.053 10.835 3.41-1.406 6.83-2.819 10.24-4.224-.015-3.63-.037-7.26-.052-10.889q-5.114 2.144-10.24 4.286zM51.027 34.28v24.425c3.456-1.42 6.911-2.834 10.374-4.255.008-8.154.015-16.301.03-24.456-3.463 1.429-6.933 2.857-10.396 4.286z"/><path fill="#FF7E88" d="M48.234 56.55c.93.719 1.866 1.437 2.794 2.155V34.28c-.899-.734-1.79-1.475-2.682-2.209q-.057 12.246-.104 24.48z"/><path fill="#FF7E88" d="m48.344 32.071 2.682 2.209c3.463-1.429 6.934-2.857 10.397-4.286-.9-.726-1.791-1.46-2.683-2.185-3.463 1.42-6.933 2.834-10.396 4.254z"/><path fill="#fff" d="M70.724 39.029a20.5 20.5 0 0 0 2.972 6.787l7.536 5.861c-1.925-1.969-2.84-4.077-3.21-4.973-2.468-5.915-.707-11.699.497-15.683 2.63-8.672 7.877-13.854 10.084-15.985 2.95-2.842 7.254-6.889 13.882-8.186 2.467-.486 6.332-1.181 10.293.911.668.356 1.27.75 1.813 1.166-2.705-2.13-5.403-4.262-8.108-6.394a16.2 16.2 0 0 0-4.808-1.529c-5.001-.756-8.954 1.128-11.697 2.487-7.067 3.483-11.02 8.865-12.811 11.375-1.568 2.193-4.875 6.927-6.28 13.915-.513 2.549-1.166 5.993-.163 10.248"/><path fill="#EBECEE" d="M78.015 46.697c.38.895 1.286 3.011 3.21 4.973a14 14 0 0 0 2.081 1.737c3.114 2.1 6.183 2.24 7.96 2.294 5.558.177 9.719-2.363 11.503-3.614l7.58 6.023c0-4.147 0-8.294-.015-12.44a39.8 39.8 0 0 0 6.213-9.066c1.523-3.066 3.648-7.46 3.775-13.43.052-2.601.126-6.146-1.962-9.83-.424-.74-1.583-2.74-3.775-4.424a13 13 0 0 0-1.813-1.166c-3.969-2.085-7.826-1.39-10.293-.911-6.629 1.297-10.924 5.343-13.882 8.185-2.207 2.131-7.453 7.305-10.084 15.985-1.211 3.977-2.972 9.769-.498 15.684"/><path fill="#fff" d="M100.892 19.491c-.037 6.379-.081 12.75-.119 19.128q1.104.871 2.208 1.73V21.198c-.699-.572-1.39-1.143-2.089-1.707"/><path fill="#fff" d="M110.99 17.816c-.676-.572-1.352-1.15-2.029-1.722-2.69 1.135-5.372 2.262-8.063 3.397.699.572 1.39 1.143 2.089 1.707a7200 7200 0 0 1 8.011-3.382z"/><path fill="#EBECEE" d="M110.988 17.815a9257 9257 0 0 1-8.011 3.383v19.15c2.69-1.134 5.372-2.262 8.063-3.397-.023-6.379-.038-12.757-.06-19.143z"/><path fill="#fff" d="M89.224 24.596c-.037 6.378-.081 12.749-.118 19.128q1.102.87 2.207 1.73V26.301c-.699-.571-1.39-1.143-2.089-1.706"/><path fill="#fff" d="M99.314 22.92c-.676-.571-1.352-1.15-2.028-1.722-2.69 1.135-5.373 2.263-8.063 3.398.698.571 1.39 1.143 2.088 1.707q4-1.691 8.01-3.383z"/><path fill="#EBECEE" d="M99.312 22.92a8485 8485 0 0 1-8.011 3.382v19.151l8.063-3.398c-.023-6.378-.037-12.757-.06-19.143z"/></g><path fill="#EBECEE" stroke="#000" stroke-linecap="round" stroke-linejoin="round" stroke-width=".68" d="M179.511 28.51c-.855.687-1.695 1.135-2.527 1.583-.847.455-1.583.78-2.133 1.004-18.727 7.621-37.454 15.236-56.173 22.857-.788.31-1.851.811-2.988 1.63-1.672 1.204-2.653 2.478-3.217 3.228a17.5 17.5 0 0 0-2.2 3.814c-.342.827-.847 2.085-1.018 3.815-.045.448-.06.819-.06 1.081l.067 32.951c.06.563.171 1.027.275 1.359a7.2 7.2 0 0 0 .936 2c.194.286.431.633.825.988.803.726 1.65.958 2.222 1.105.194.054 1.063.262 2.237.177.914-.069 1.553-.286 2.631-.648a23 23 0 0 0 2.095-.834c18.215-7.43 36.429-14.85 54.651-22.279a18 18 0 0 0 1.738-.803 16.5 16.5 0 0 0 2.037-1.266c.364-.27.981-.726 1.687-1.437.639-.648 1.107-1.112 1.538-1.9.119-.208.579-1.073.802-2.324.119-.664.134-1.228.119-1.645-.029-17.158-.052-34.317-.081-51.476a7.8 7.8 0 0 1-.357 2.88c-.721 2.24-2.311 3.514-3.106 4.155z"/><path fill="#fff" d="M177.367 14.726c.282.154.565.332.87.525.78.51 2.222 1.536 3.388 3.058.676.888 1.018 1.621 1.204 2.355.089.332.126.618.149.81v.966a7.6 7.6 0 0 1-.357 1.915c-.721 2.24-2.311 3.514-3.106 4.155-.855.687-1.695 1.135-2.527 1.583-.847.455-1.583.78-2.133 1.004-18.727 7.621-37.454 15.236-56.173 22.857-.788.31-1.851.811-2.988 1.63-1.672 1.204-2.652 2.478-3.217 3.227a17.3 17.3 0 0 0-2.2 3.815c-.342.827-.847 2.085-1.018 3.815-.045.448-.06.819-.06 1.081l.067 32.951c.06.563.171 1.027.275 1.359a7.2 7.2 0 0 0 .937 2c.2.286.431.633.825.988l-3.597-2.857a11 11 0 0 1-.676-.579 6.7 6.7 0 0 1-.863-.95c-.431-.587-.646-1.12-.757-1.39a6.8 6.8 0 0 1-.402-1.483 7 7 0 0 1-.089-1.142c0-1.05-.015-2.1-.022-3.151V64.935c-.008-.502 0-1.135.081-1.853.119-1.197.35-2.085.417-2.325.379-1.436.899-2.447 1.218-3.057.268-.518.922-1.707 2.022-3.02.468-.556 1.114-1.32 2.14-2.123a13.3 13.3 0 0 1 2.081-1.329 15 15 0 0 1 1.858-.834c18.578-7.575 37.149-15.15 55.727-22.726a11 11 0 0 0 2.059-.934c.312-.186.758-.448 1.278-.896.401-.348.825-.71 1.211-1.313.208-.324.543-.857.647-1.622.156-1.096-.268-1.969-.461-2.355-.416-.834-.981-1.313-1.472-1.722-.178-.154-.609-.494-1.464-.957"/><path stroke="#000" stroke-linecap="round" stroke-linejoin="round" stroke-width=".68" d="M177.367 14.726c.282.154.565.332.87.525.78.51 2.222 1.536 3.388 3.058.676.888 1.018 1.621 1.204 2.355.089.332.126.618.149.81v.966a7.6 7.6 0 0 1-.357 1.915c-.721 2.24-2.311 3.514-3.106 4.155-.855.687-1.695 1.135-2.527 1.583-.847.455-1.583.78-2.133 1.004-18.727 7.621-37.454 15.236-56.173 22.857-.788.31-1.851.811-2.988 1.63-1.672 1.204-2.652 2.478-3.217 3.227a17.3 17.3 0 0 0-2.2 3.815c-.342.827-.847 2.085-1.018 3.815-.045.448-.06.819-.06 1.081l.067 32.951c.06.563.171 1.027.275 1.359a7.2 7.2 0 0 0 .937 2c.2.286.431.633.825.988l-3.597-2.857a11 11 0 0 1-.676-.579 6.7 6.7 0 0 1-.863-.95c-.431-.587-.646-1.12-.757-1.39a6.8 6.8 0 0 1-.402-1.483 7 7 0 0 1-.089-1.142c0-1.05-.015-2.1-.022-3.151V64.935c-.008-.502 0-1.135.081-1.853.119-1.197.35-2.085.417-2.325.379-1.436.899-2.447 1.218-3.057.268-.518.922-1.707 2.022-3.02.468-.556 1.114-1.32 2.14-2.123a13.3 13.3 0 0 1 2.081-1.329c.721-.386 1.36-.648 1.858-.834 18.578-7.575 37.149-15.15 55.727-22.726a11 11 0 0 0 2.059-.934c.312-.186.758-.448 1.278-.896.401-.348.825-.71 1.211-1.313.208-.324.543-.857.647-1.622.156-1.096-.268-1.969-.461-2.355-.416-.834-.981-1.313-1.472-1.722-.178-.154-.609-.494-1.464-.957"/><path fill="#EBECEE" stroke="#000" stroke-linecap="round" stroke-linejoin="round" stroke-width=".68" d="M84.03 74.108c.015.085.03.232.104.394.067.139.149.24.327.425.104.115.193.208.26.27 7.201 5.776 14.402 11.545 21.61 17.32.179.124.439.287.781.418.453.185.832.231 1.218.285.595.078 1.056.055 1.234.047a6.9 6.9 0 0 0 1.984-.417c3.872-1.583 7.736-3.166 11.608-4.75.126-.038.29-.092.483-.185.394-.185.639-.401.706-.463.186-.162.334-.293.453-.533.097-.193.134-.378.149-.463.03-.186.037-.34.03-.456-.015-4.973-.023-9.938-.037-14.911a1.1 1.1 0 0 1-.067.293c-.127.355-.387.556-.662.772a2.4 2.4 0 0 1-.639.363c-3.797 1.545-7.595 3.097-11.392 4.641a8 8 0 0 1-1.219.44c-.743.201-1.337.224-1.516.232-.252.008-.654.023-1.181-.062-.223-.038-.625-.1-1.108-.308-.408-.17-.698-.363-.914-.502a7 7 0 0 1-.579-.425 36479 36479 0 0 1-20.474-16.371 4 4 0 0 1-.341-.286c-.246-.224-.417-.386-.55-.64a1.3 1.3 0 0 1-.164-.603q-.047 7.563-.104 15.128c0 .085-.015.208 0 .347"/><path fill="#fff" stroke="#000" stroke-linecap="round" stroke-linejoin="round" stroke-width=".68" d="M124.321 69.63c-5.038 2.04-10.076 4.07-15.107 6.11-7.157-5.723-14.313-11.437-21.47-17.16v-2.478q-.89.326-1.79.64c-.179.07-.439.178-.736.348-.424.24-.669.386-.862.695-.06.1-.253.417-.238.85.015.293.119.51.163.602.134.255.305.417.55.64.134.124.26.225.342.286l20.474 16.364c.141.116.334.27.579.424.208.14.506.333.914.502.491.201.885.27 1.108.31.52.084.921.069 1.181.061a6.8 6.8 0 0 0 1.509-.232 7 7 0 0 0 1.218-.44c3.798-1.544 7.595-3.096 11.393-4.64.163-.063.394-.178.639-.371.275-.217.535-.418.661-.773.208-.594-.096-1.158-.156-1.266a1.7 1.7 0 0 0-.386-.471z"/></svg>
