<svg xmlns="http://www.w3.org/2000/svg" fill="none" viewBox="0 0 240 272"><path fill="#EBECEE" stroke="#000" stroke-linecap="round" stroke-linejoin="round" stroke-width=".735" d="m73.437 26.789-2.386 7.423q14.804 3.942 29.608 7.88L73.437 26.787z"/><path fill="#fff" stroke="#000" stroke-linecap="round" stroke-linejoin="round" stroke-width=".735" d="M100.657 42.092 81.24 20.771q-3.902 3.01-7.805 6.016z"/><path fill="#fff" stroke="#000" stroke-linecap="round" stroke-linejoin="round" stroke-width=".735" d="m57.89 38.77 42.768 3.322-35.036-9.325q-3.867 3-7.734 6.003z"/><path fill="#EBECEE" stroke="#000" stroke-linecap="round" stroke-linejoin="round" stroke-width=".735" d="m176.183 60.693-2.648 8.234 32.843 8.742z"/><path fill="#fff" stroke="#000" stroke-linecap="round" stroke-linejoin="round" stroke-width=".735" d="m206.377 77.67-21.536-23.652-8.659 6.675zm-47.442-3.687 47.44 3.686-38.862-10.344z"/><path fill="#EBECEE" stroke="#000" stroke-linecap="round" stroke-linejoin="round" stroke-width=".735" d="m191.831 179.413-.016 51.501c.005.37.009.909 0 1.558-.019 1.316-.028 1.987-.103 2.681a11.8 11.8 0 0 1-1.087 3.811 11.6 11.6 0 0 1-2.999 3.792c-.467.283-1.132.64-1.973.947-1.794.654-3.295.684-4.118.691-1.992.02-3.488-.394-4.775-.761a21.4 21.4 0 0 1-3.012-1.107q-2.25-.853-4.5-1.703v-42.944c.015-.85-.009-1.922-.137-3.15a25 25 0 0 0-.729-3.946c-.667-2.432-1.583-4.15-2.145-5.192a28.5 28.5 0 0 0-3.564-5.123c-.82-.941-1.963-2.239-3.773-3.598-1.529-1.149-2.872-1.843-3.668-2.251a28 28 0 0 0-3.271-1.419q-49.104-19.268-98.208-38.539a19 19 0 0 1-3.633-1.591 15 15 0 0 1-2.25-1.524c-.709-.585-1.453-1.202-2.13-2.232-.362-.553-.954-1.456-1.142-2.751-.27-1.864.47-3.339.815-3.997.737-1.419 1.734-2.227 2.594-2.925.318-.258 1.074-.844 2.58-1.628a26.4 26.4 0 0 1 5.571-2.127c2.742-.704 4.896-.803 6.42-.866a33.7 33.7 0 0 1 6.594.364c.495.079 1.81.298 3.48.743 1.225.327 2.29.682 3.165 1.004l96.719 37.882c.62.226 1.51.567 2.561 1.021 1.637.704 3.115 1.342 4.759 2.388 1.844 1.172 3.061 2.328 3.791 3.029.633.606 2.372 2.335 4.101 5.001 1.868 2.879 2.734 5.33 2.941 5.935.736 2.142.947 3.714 1.004 4.17.142 1.142.159 2.122.138 2.856"/><path fill="#fff" stroke="#000" stroke-linecap="round" stroke-linejoin="round" stroke-width=".735" d="m199.49 174.965-.061 53.094c-.004.417-.027.969-.114 1.611a11.3 11.3 0 0 1-.759 2.923c-.166.399-.785 1.817-2.137 3.269a11.5 11.5 0 0 1-1.905 1.644l-6.887 5.25c.413-.344.923-.813 1.445-1.429a11.4 11.4 0 0 0 1.553-2.363c.177-.358.868-1.824 1.087-3.811.075-.693.085-1.365.103-2.681.009-.649.006-1.188 0-1.557l.017-51.502a19 19 0 0 0-.138-2.856c-.057-.456-.269-2.028-1.004-4.17-.208-.605-1.074-3.056-2.942-5.935-1.728-2.666-3.468-4.395-4.1-5.001-.73-.701-1.948-1.857-3.792-3.029-1.644-1.046-3.122-1.684-4.758-2.388a49 49 0 0 0-2.562-1.021l-96.718-37.882a36 36 0 0 0-3.167-1.004 35 35 0 0 0-3.478-.743 34 34 0 0 0-6.594-.364c-1.524.063-3.68.162-6.42.866-1.152.296-3.231.91-5.572 2.127-1.506.784-2.262 1.37-2.58 1.628-.86.698-1.857 1.506-2.594 2.925-.344.658-1.085 2.133-.814 3.997.187 1.295.78 2.198 1.141 2.751.677 1.03 1.422 1.648 2.13 2.232.919.76 1.704 1.212 2.25 1.524a19 19 0 0 0 3.633 1.591q49.104 19.271 98.208 38.539c.872.314 2.001.77 3.271 1.419.797.409 2.139 1.102 3.669 2.251 1.809 1.359 2.953 2.657 3.773 3.598a28.5 28.5 0 0 1 3.563 5.123c.563 1.042 1.478 2.76 2.146 5.192.114.408.515 1.913.728 3.946.129 1.228.153 2.3.138 3.15v48.056l-.035 5.347a11.6 11.6 0 0 1-.864 4.448 10 10 0 0 1-1.333 2.362c-.545.712-1.078 1.201-1.523 1.609-.459.421-.873.75-1.186.987l-6.338 4.845c.695-.605 1.107-1.187 1.455-1.675a12.1 12.1 0 0 0 1.647-3.387 12.5 12.5 0 0 0 .48-2.311l.118-55.887a20 20 0 0 0-.105-1.833c-.303-2.94-1.197-5.067-1.8-6.474-.48-1.122-1.659-3.663-3.876-6.47-.995-1.262-2.734-3.429-5.676-5.47a24.4 24.4 0 0 0-5.261-2.769L45.95 140.495a39 39 0 0 1-3.757-1.697c-1.465-.756-2.941-1.519-4.447-2.683-1.401-1.084-4.202-3.249-5.478-7.044a12.5 12.5 0 0 1-.625-3.227v-.014l.004-1.639c.037-.332.108-.812.259-1.375.331-1.25.936-2.497 2.127-3.997 2.058-2.587 4.597-4.334 5.97-5.193 2.544-1.586 4.686-2.377 6.36-2.984.687-.248 3.886-1.388 8.672-2.155 6.167-.987 11.061-.732 12.926-.597a56.2 56.2 0 0 1 11.863 2.18 57 57 0 0 1 5.503 1.947l95.084 37.251c1.026.354 2.383.878 3.919 1.634 1.574.774 3.626 1.798 5.841 3.661 2.348 1.973 3.724 3.915 4.724 5.347.995 1.423 2.107 3.037 3.037 5.452.216.557 1.131 2.997 1.455 6.385.123 1.293.128 2.396.103 3.218"/><path fill="#EBECEE" stroke="#000" stroke-linecap="round" stroke-linejoin="round" stroke-width=".735" d="M37.746 136.115c1.506 1.164 2.982 1.927 4.448 2.683a39 39 0 0 0 3.756 1.697l99.003 38.762a24.5 24.5 0 0 1 5.26 2.769c2.942 2.041 4.681 4.208 5.676 5.468 2.218 2.808 3.396 5.35 3.876 6.472.603 1.405 1.495 3.534 1.8 6.472.079.756.099 1.388.103 1.835q-.057 27.945-.118 55.887a12.6 12.6 0 0 1-.479 2.31 12.1 12.1 0 0 1-1.648 3.386c-.346.488-.759 1.071-1.454 1.676-1.411 1.228-2.915 1.619-3.92 1.869-.344.085-1.876.449-3.946.298-1.605-.117-2.734-.485-4.634-1.103a39 39 0 0 1-3.699-1.414l-96.309-37.781a31 31 0 0 1-3.063-1.368 30 30 0 0 1-3.582-2.146 24 24 0 0 1-2.977-2.44c-1.127-1.094-1.947-1.888-2.717-3.219-.206-.357-1.028-1.819-1.42-3.946-.208-1.124-.232-2.089-.208-2.786l.147-87.305a12.8 12.8 0 0 0 .624 4.88c1.276 3.794 4.074 5.959 5.477 7.044z"/><path fill="#FF7E88" stroke="#000" stroke-linecap="round" stroke-linejoin="round" stroke-width=".735" d="M129.603 44.394 76.661 64.125l-19.21 14.76 53.079-19.813z"/><path fill="#FF7E88" stroke="#000" stroke-linecap="round" stroke-linejoin="round" stroke-width=".735" d="m163.459 120.81 19.093-14.583-52.95-61.833-19.073 14.678z"/><path fill="#FF535E" stroke="#000" stroke-linecap="round" stroke-linejoin="round" stroke-width=".735" d="M83.981 170.988q.023-40.78.042-81.559-13.284-5.272-26.572-10.543l53.079-19.812 52.93 61.738-26.438-10.403-.048 81.603-52.995-21.022z"/><path fill="#FF444F" stroke="#000" stroke-linecap="round" stroke-linejoin="round" stroke-width=".735" d="M136.973 192.01q9.546-7.34 19.093-14.678l.136-59.375-19.182-7.548-.047 81.603z"/><path fill="#EBECEE" stroke="#000" stroke-linecap="round" stroke-linejoin="round" stroke-width=".735" d="M37.746 136.115c1.506 1.164 2.982 1.927 4.448 2.683a39 39 0 0 0 3.756 1.697l99.003 38.762a24.5 24.5 0 0 1 5.26 2.769c2.942 2.041 4.681 4.208 5.676 5.468 2.218 2.808 3.396 5.35 3.876 6.472.603 1.405 1.495 3.534 1.8 6.472.079.756.099 1.388.103 1.835q-.057 27.945-.118 55.887a12.6 12.6 0 0 1-.479 2.31 12.1 12.1 0 0 1-1.648 3.386c-.346.488-.759 1.071-1.454 1.676-1.411 1.228-2.915 1.619-3.92 1.869-.344.085-1.876.449-3.946.298-1.605-.117-2.734-.485-4.634-1.103a39 39 0 0 1-3.699-1.414l-96.309-37.781a31 31 0 0 1-3.063-1.368 30 30 0 0 1-3.582-2.146 24 24 0 0 1-2.977-2.44c-1.127-1.094-1.947-1.888-2.717-3.219-.206-.357-1.028-1.819-1.42-3.946-.208-1.124-.232-2.089-.208-2.786l.147-87.305a12.8 12.8 0 0 0 .624 4.88c1.276 3.794 4.074 5.959 5.477 7.044z"/><path fill="#fff" d="M41.53 112.738c-.491.267-1 .559-1.526.887-1.374.858-3.913 2.605-5.97 5.192-1.192 1.5-1.797 2.747-2.128 3.997a9 9 0 0 0-.26 1.376q0 .819-.003 1.638v.015c.059.95.23 2.053.625 3.227 1.276 3.795 4.077 5.959 5.478 7.044 1.506 1.163 2.982 1.926 4.447 2.682a39 39 0 0 0 3.757 1.697l99.002 38.762a24.5 24.5 0 0 1 5.261 2.769c2.942 2.041 4.681 4.209 5.676 5.47 2.217 2.808 3.396 5.349 3.876 6.47.603 1.407 1.497 3.534 1.8 6.474.079.754.099 1.388.105 1.833l-.118 55.887a12.5 12.5 0 0 1-.48 2.312 12.1 12.1 0 0 1-1.647 3.387c-.348.487-.76 1.07-1.455 1.675q3.17-2.425 6.338-4.845c.313-.238.727-.567 1.186-.988.445-.408.978-.897 1.523-1.609a10 10 0 0 0 1.333-2.362 11.6 11.6 0 0 0 .864-4.448l.035-5.347v-48.056a26 26 0 0 0-.138-3.15 25 25 0 0 0-.728-3.946c-.668-2.432-1.583-4.149-2.146-5.192a28.5 28.5 0 0 0-3.563-5.123c-.82-.941-1.964-2.239-3.773-3.598-1.53-1.149-2.872-1.842-3.669-2.25a28 28 0 0 0-3.271-1.42q-49.104-19.268-98.208-38.539a19 19 0 0 1-3.633-1.59 15 15 0 0 1-2.25-1.525c-.708-.584-1.453-1.202-2.13-2.232-.362-.553-.954-1.456-1.142-2.75-.27-1.865.471-3.34.815-3.998.737-1.419 1.734-2.226 2.594-2.925.319-.258 1.074-.844 2.58-1.627"/><path stroke="#000" stroke-linecap="round" stroke-linejoin="round" stroke-width=".735" d="M41.53 112.738c-.491.267-1 .559-1.526.887-1.374.858-3.913 2.605-5.97 5.192-1.192 1.5-1.797 2.747-2.128 3.997a9 9 0 0 0-.26 1.376q0 .819-.003 1.638v.015c.059.95.23 2.053.625 3.227 1.276 3.795 4.077 5.959 5.478 7.044 1.506 1.163 2.982 1.926 4.447 2.682a39 39 0 0 0 3.757 1.697l99.002 38.762a24.5 24.5 0 0 1 5.261 2.769c2.942 2.041 4.681 4.209 5.676 5.47 2.217 2.808 3.396 5.349 3.876 6.47.603 1.407 1.497 3.534 1.8 6.474.079.754.099 1.388.105 1.833l-.118 55.887a12.5 12.5 0 0 1-.48 2.312 12.1 12.1 0 0 1-1.647 3.387c-.348.487-.76 1.07-1.455 1.675q3.17-2.425 6.338-4.845c.313-.238.727-.567 1.186-.988.445-.408.978-.897 1.523-1.609a10 10 0 0 0 1.333-2.362 11.6 11.6 0 0 0 .864-4.448l.035-5.347v-48.056a26 26 0 0 0-.138-3.15 25 25 0 0 0-.728-3.946c-.668-2.432-1.583-4.149-2.146-5.192a28.5 28.5 0 0 0-3.563-5.123c-.82-.941-1.964-2.239-3.773-3.598-1.53-1.149-2.872-1.842-3.669-2.25a28 28 0 0 0-3.271-1.42q-49.104-19.268-98.208-38.539a19 19 0 0 1-3.633-1.59 15 15 0 0 1-2.25-1.525c-.708-.584-1.453-1.202-2.13-2.232-.362-.553-.954-1.456-1.142-2.75-.27-1.865.471-3.34.815-3.998.737-1.419 1.734-2.226 2.594-2.925.319-.258 1.074-.844 2.58-1.627"/><path fill="#EBECEE" stroke="#000" stroke-linecap="round" stroke-linejoin="round" stroke-width=".735" d="M206.032 213.449a2.2 2.2 0 0 1-.189.662c-.116.241-.269.406-.57.726-.184.195-.346.35-.462.454l-38.079 29.372a7 7 0 0 1-1.377.713c-.805.313-1.465.397-2.153.482a12.6 12.6 0 0 1-2.168.077 12.3 12.3 0 0 1-3.492-.713q-10.225-4.031-20.455-8.061a6 6 0 0 1-.85-.311 5.4 5.4 0 0 1-1.239-.78c-.323-.275-.59-.503-.798-.908a2.7 2.7 0 0 1-.259-.791 3.3 3.3 0 0 1-.053-.772l.062-25.289q.024.24.114.493c.224.608.68.947 1.168 1.311.434.321.844.511 1.129.621l20.082 7.875c.822.364 1.561.594 2.146.745 1.314.334 2.351.386 2.666.397.45.017 1.156.04 2.076-.103a8.6 8.6 0 0 0 1.956-.52 9.4 9.4 0 0 0 1.609-.848c.425-.268.768-.526 1.02-.726l36.083-27.759c.15-.108.364-.27.605-.484.437-.386.739-.654.969-1.09a2.35 2.35 0 0 0 .294-1.02l.178 25.657c.013.147.02.351-.013.59"/><path fill="#fff" stroke="#000" stroke-linecap="round" stroke-linejoin="round" stroke-width=".735" d="m135.011 205.855 26.629 10.357q18.917-14.55 37.837-29.099l.005-4.205 3.15 1.091c.314.112.772.297 1.298.588.741.41 1.181.653 1.523 1.177.108.165.448.704.415 1.436-.024.498-.209.86-.294 1.02-.23.436-.533.704-.969 1.091a8 8 0 0 1-.605.485l-36.082 27.757c-.254.202-.596.458-1.021.726a9.3 9.3 0 0 1-1.609.848 8.5 8.5 0 0 1-1.956.518c-.919.144-1.626.122-2.076.103a13 13 0 0 1-2.664-.397 13.3 13.3 0 0 1-2.146-.745q-10.043-3.936-20.082-7.873c-.285-.11-.695-.3-1.129-.623-.487-.362-.943-.703-1.168-1.311-.369-1.004.173-1.966.272-2.142.217-.386.486-.647.675-.806z"/><path fill="#EBECEE" stroke="#000" stroke-linecap="round" stroke-linejoin="round" stroke-width=".735" d="m38.87 167.372-4.275 13.293q26.511 7.058 53.023 14.114z"/><path fill="#fff" stroke="#000" stroke-linecap="round" stroke-linejoin="round" stroke-width=".735" d="m87.618 194.779-34.77-38.182-13.978 10.775zm-76.592-5.951 76.591 5.951-62.742-16.7-13.847 10.749z"/></svg>