<svg width="64" height="64" fill="none" xmlns="http://www.w3.org/2000/svg"><g clip-path="url(#a)"><path d="M0 12C0 5.376 5.375 0 12 0h40c6.625 0 12 5.375 12 12v40c0 6.625-5.375 12-12 12H12C5.376 64 0 58.625 0 52V12Z" fill="url(#b)"/><path d="M0 12C0 5.376 5.375 0 12 0h40c6.625 0 12 5.375 12 12v40c0 6.625-5.375 12-12 12H12C5.376 64 0 58.625 0 52V12Z" fill="url(#c)"/><path d="M3 43.004V52c0 4.96 4.035 8.996 8.997 8.996h39.999c4.96 0 8.996-4.035 8.996-8.996v-8.997H3Z" fill="#FFC71B"/><path d="M19.562 57.805V46.633h7.182v1.874H21.67v2.703h4.42v1.875h-4.42v4.72h-2.115.007Zm8.771 0v-1.694h1.476v-7.777h-1.476V46.64h5.074v1.694h-1.49v7.777h1.49v1.694h-5.074Zm10.434-5.729-1.151-2.319h-.045v8.048h-2.003V46.633h2.319l3.357 5.729 1.152 2.319h.045v-8.048h2.003v11.172h-2.319l-3.358-5.73Z" fill="#fff"/><path fill-rule="evenodd" clip-rule="evenodd" d="M35.099 8.887V8.88a7.038 7.038 0 0 1 4.54 2.652 7.2 7.2 0 0 1 1.479 5.09l-1.106 7.97a.777.777 0 0 1-.427.581.755.755 0 0 1-.716-.034l-1.468-.933a.768.768 0 0 1-.35-.749l.476-3.834a4.284 4.284 0 0 0-.598-2.631l-.172 1.119-1.03-.413a.754.754 0 0 0-.57.004.766.766 0 0 0-.409.405.76.76 0 0 0-.477.268.777.777 0 0 0-.178.523l.064 1.759a.777.777 0 0 0 .454.663l1.266.56a14.51 14.51 0 0 1-7.681 0l1.197-.471a.765.765 0 0 0 .465-.683l.064-1.759a.777.777 0 0 0-.175-.504.76.76 0 0 0-.457-.268c-.195-.632-1.007-.459-1.007-.459l-.98.405-.182-1.11a4.248 4.248 0 0 0-.58 1.427l-3.22 1.327-.218-1.258-.18-1.543a7.2 7.2 0 0 1 1.304-5.137 7.042 7.042 0 0 1 4.423-2.805 3.312 3.312 0 0 1 .9-2.04 3.209 3.209 0 0 1 4.582-.082 3.279 3.279 0 0 1 .967 1.967Zm.023.332v.005-.005Zm.017 1.043.017.965a3.3 3.3 0 0 1-.908 2.336 3.223 3.223 0 0 1-2.275 1.001 3.22 3.22 0 0 1-2.308-.92 3.298 3.298 0 0 1-.99-2.3l-.015-.934-1.337 2.385 1.143.714-.602 1.157 3.545 2.36a.188.188 0 0 0 .23-.017.194.194 0 0 0 .044-.23l-1.185-2.518a3.193 3.193 0 0 0 2.939-.054l-1.102 2.561a.196.196 0 0 0 .054.23.189.189 0 0 0 .232.005l3.461-2.484-.644-1.157 1.144-.771-1.443-2.329ZM30.516 8.47c.066-.166.163-.316.287-.443.244-.255.576-.403.926-.413V6.84a2.104 2.104 0 0 0-1.475.649c-.387.4-.6.94-.595 1.5h.763a1.358 1.358 0 0 1 .094-.52Zm2.772 11.212a.572.572 0 0 1-.34.544.553.553 0 0 1-.22.046h-1.483a.555.555 0 0 1-.519-.353.574.574 0 0 1-.041-.218v-.868a.574.574 0 0 1 .345-.527.551.551 0 0 1 .215-.044h1.483a.552.552 0 0 1 .398.168.567.567 0 0 1 .162.403v.849Z" fill="#6CAD56"/><path d="m23.908 23.29.354 1.58a.777.777 0 0 0 .453.577.755.755 0 0 0 .725-.07l1.437-.988a.77.77 0 0 0 .328-.772l-.51-1.844-1.598.68a4.2 4.2 0 0 0-1.19.836Z" fill="#6CAD56"/><path d="m37.263 21.784-2.051-.903a.777.777 0 0 1-.465-.683l-.069-1.759a.779.779 0 0 1 .324-.66.757.757 0 0 1 .724-.084l1.739.698c.079.404.1.817.06 1.227l-.262 2.164Z" fill="#3E9AC7"/><path fill-rule="evenodd" clip-rule="evenodd" d="m43.091 20.732-2.394-.992-.465 3.422a1.155 1.155 0 0 1 .454 1.057l-.545-.386-.065.467c-.13.983-.698.983-.968.926a.816.816 0 0 1-.999-.035l-1.471-.938a.768.768 0 0 1-.351-.748l.103-.833s-2.733 2.002-3.941 7.24l1.322-1.08a.758.758 0 0 1 .816-.096l1.563.771a.78.78 0 0 1 .381.891.78.78 0 0 1-.156 1.003l-.934.78.175.563a4.195 4.195 0 0 1-2.523-.884l-2.962-2.437a.757.757 0 0 0-.79-.097l-1.566.772a.764.764 0 0 0-.426.6.78.78 0 0 0 .27.688l6.099 5.15a6.995 6.995 0 0 0 9.666-1.063 3.208 3.208 0 0 0 2.159.21 3.247 3.247 0 0 0 1.993-1.49 3.3 3.3 0 0 0 .369-2.484 3.291 3.291 0 0 0-1.192-1.823 7.216 7.216 0 0 0 .005-5.306 7.1 7.1 0 0 0-3.627-3.848Zm2.465 8.428-1.287-2.407-1.212.613-.66-1.157-3.853 1.775a.193.193 0 0 0-.127.077.197.197 0 0 0 .04.273c.042.03.093.043.144.035l2.728.326a3.21 3.21 0 0 1 3.398-.04l.83.505Zm-5.73 2.084-1.56-2.311a.191.191 0 0 0-.219-.073.194.194 0 0 0-.129.192l.248 4.278 1.3.054.034 1.4h2.721l-.83-.506a3.254 3.254 0 0 1-.937-.86 3.297 3.297 0 0 1-.628-2.174Zm-1.9-4.452-.625 1.358a.577.577 0 0 1-.325.298.561.561 0 0 1-.437-.024l-.763-.386a.573.573 0 0 1-.27-.752l.625-1.358a.57.57 0 0 1 .323-.303.558.558 0 0 1 .44.025l.762.386a.57.57 0 0 1 .289.321.578.578 0 0 1-.019.435Zm8.898 6.832-.657-.384c.177-.31.225-.68.134-1.026a1.352 1.352 0 0 0-.621-.822l.38-.667c.481.283.831.747.974 1.291a2.148 2.148 0 0 1-.21 1.608Z" fill="#3E9AC7"/><path fill-rule="evenodd" clip-rule="evenodd" d="M27.496 31.26a.777.777 0 0 1-.046-.888.78.78 0 0 1 .416-.852l1.562-.772a.755.755 0 0 1 .812.096l1.285 1.061c-1.338-5.146-4.09-7.22-4.09-7.22l.312 1.13a.78.78 0 0 1-.324.77l-1.437.988a.755.755 0 0 1-.941-.07.755.755 0 0 1-.467-.128.769.769 0 0 1-.296-.388l-.19-1.068-.785.304c.38-.968 1.086-1.439 1.955-1.84l3.518-1.5a.764.764 0 0 0 .465-.683l.065-1.76a.78.78 0 0 0-.325-.663.757.757 0 0 0-.727-.08l-7.353 3.027a7.104 7.104 0 0 0-3.615 3.842 7.22 7.22 0 0 0 .002 5.305 2.74 2.74 0 0 1 .278-.19l.857-.524 1.304-2.43 1.224.613.655-1.157 3.858 1.794a.19.19 0 0 1 .126.076.197.197 0 0 1-.04.273.191.191 0 0 1-.143.036l-2.74.317c.437.27.804.642 1.07 1.086.265.444.42.946.454 1.463l1.567-2.314a.19.19 0 0 1 .346.12l-.274 4.3-1.3.043-.034 1.37h-2.668l.777-.473c.365-.222.684-.515.937-.861a3.3 3.3 0 0 0 .6-2.439 3.308 3.308 0 0 0-.428-1.205 3.251 3.251 0 0 0-1.995-1.492 3.215 3.215 0 0 0-2.453.37l-1.7 1.037a3.25 3.25 0 0 0-.936.86 3.292 3.292 0 0 0-.598 2.434 3.3 3.3 0 0 0 .428 1.204 3.247 3.247 0 0 0 1.993 1.493 3.209 3.209 0 0 0 2.157-.209 6.996 6.996 0 0 0 9.676 1.062l1.72-1.446-4.514-3.823Zm-.519-3.002-.625-1.358a.568.568 0 0 1 .27-.771l.763-.367a.561.561 0 0 1 .63.092c.056.051.1.113.133.182l.625 1.358a.575.575 0 0 1-.27.772l-.763.385a.558.558 0 0 1-.634-.104.572.572 0 0 1-.129-.189Zm-9.198 4c.023-.175.08-.345.168-.499.18-.308.471-.532.812-.625l-.198-.744a2.108 2.108 0 0 0-1.273.992 2.152 2.152 0 0 0-.21 1.611l.736-.208a1.36 1.36 0 0 1-.035-.526Z" fill="#D7CB3B"/><path d="m34.891 32.663 1.502-1.288a.772.772 0 0 0 .271-.686.777.777 0 0 0-.424-.602l-1.566-.772a.755.755 0 0 0-.812.096l-1.872 1.543 1.11.915a3.933 3.933 0 0 0 1.791.794Z" fill="#D7CB3B"/></g><defs><radialGradient id="c" cx="0" cy="0" r="1" gradientUnits="userSpaceOnUse" gradientTransform="matrix(0 -97 97 0 32 25)"><stop offset=".196" stop-color="#F1F2F2"/><stop offset=".552" stop-color="#C1D2D2"/></radialGradient><linearGradient id="b" x1="32.004" y1="64" x2="32.004" y2="0" gradientUnits="userSpaceOnUse"><stop stop-color="#9F9F9F"/><stop offset=".49" stop-color="#F1F2F2"/></linearGradient><clipPath id="a"><path fill="#fff" d="M0 0h64v64H0z"/></clipPath></defs></svg>