<svg width="24" height="24" viewBox="0 0 24 24" fill="none" xmlns="http://www.w3.org/2000/svg">
<g clip-path="url(#clip0_18952_1588)">
<path d="M4.5 0C2.01472 0 0 2.01472 0 4.5V4.63071L22.4358 1.08948C21.6478 0.4105 20.6218 0 19.5 0H4.5Z" fill="#303541"/>
<path d="M22.899 1.55081L18.7833 24L19.1026 24H19.5C21.9853 24 24 21.9853 24 19.5V4.5C24 3.37182 23.5848 2.34061 22.899 1.55081Z" fill="#303541"/>
<path d="M0 4.63071V19.5C0 21.9853 2.01472 24 4.5 24L19.1026 24L18.7833 24L22.899 1.55081C22.7559 1.3861 22.6011 1.23189 22.4358 1.08948L0 4.63071Z" fill="#414652"/>
<path d="M12.75 14.25C12.75 13.425 13.425 12.75 14.25 12.75H17.25C18.075 12.75 18.75 13.425 18.75 14.25V17.25C18.75 18.075 18.075 18.75 17.25 18.75H14.25C13.425 18.75 12.75 18.075 12.75 17.25V14.25Z" fill="#EF8933"/>
<path d="M5.25 14.25C5.25 13.425 5.925 12.75 6.75 12.75H9.75C10.575 12.75 11.25 13.425 11.25 14.25V17.25C11.25 18.075 10.575 18.75 9.75 18.75H6.75C5.925 18.75 5.25 18.075 5.25 17.25V14.25Z" fill="#4B6FA8"/>
<path d="M12.75 6.75C12.75 5.925 13.425 5.25 14.25 5.25H17.25C18.075 5.25 18.75 5.925 18.75 6.75V9.75C18.75 10.575 18.075 11.25 17.25 11.25H14.25C13.425 11.25 12.75 10.575 12.75 9.75V6.75Z" fill="#76C0E3"/>
<path d="M5.25 6.75C5.25 5.925 5.925 5.25 6.75 5.25H9.75C10.575 5.25 11.25 5.925 11.25 6.75V9.75C11.25 10.575 10.575 11.25 9.75 11.25H6.75C5.925 11.25 5.25 10.575 5.25 9.75V6.75Z" fill="#FF444F"/>
</g>
<defs>
<clipPath id="clip0_18952_1588">
<rect width="24" height="24" fill="white"/>
</clipPath>
</defs>
</svg>
