<svg width="32" height="32" viewBox="0 0 32 32" fill="none" xmlns="http://www.w3.org/2000/svg">
<path d="M0 16C0 7.16344 7.16344 0 16 0C24.8366 0 32 7.16344 32 16C32 24.8366 24.8366 32 16 32C7.16344 32 0 24.8366 0 16Z" fill="#FF444F"/>
<path fill-rule="evenodd" clip-rule="evenodd" d="M22.2929 10.2929C22.6834 9.90237 23.3166 9.90237 23.7071 10.2929C24.0976 10.6834 24.0976 11.3166 23.7071 11.7071L13.7071 21.7071C13.3166 22.0976 12.6834 22.0976 12.2929 21.7071L8.29289 17.7071C7.90237 17.3166 7.90237 16.6834 8.29289 16.2929C8.68342 15.9024 9.31658 15.9024 9.70711 16.2929L13 19.5858L22.2929 10.2929Z" fill="white"/>
</svg>
