<svg width="64" height="40" fill="none" xmlns="http://www.w3.org/2000/svg"><g opacity=".72"><g clip-path="url(#a)"><path d="M0 4a4 4 0 0 1 4-4h56a4 4 0 0 1 4 4v32a4 4 0 0 1-4 4H4a4 4 0 0 1-4-4V4z" fill="#fff"/><g filter="url(#b)"><circle cx="-4" cy="20" r="20" fill="#2775CA"/></g><g filter="url(#c)"><circle cx="72" cy="20" r="24" fill="#224CE1"/></g></g><path d="M25.312 17.458h.328c.083 0 .151.068.151.151v2.936c0 .928.503 1.514 1.438 1.514.936 0 1.438-.586 1.438-1.513V17.61c0-.084.068-.152.152-.152h.328c.083 0 .151.068.151.151v2.945c0 1.263-.693 2.068-2.069 2.068s-2.069-.813-2.069-2.061V17.61a.149.149 0 0 1 .152-.151zm4.953 4a.134.134 0 0 1 .197-.014c.34.33.848.615 1.492.615.905 0 1.194-.487 1.194-.874 0-.61-.615-.777-1.285-.96-.813-.213-1.72-.44-1.72-1.437 0-.837.747-1.408 1.744-1.408.716 0 1.282.22 1.7.606.06.054.066.148.013.21l-.197.242a.133.133 0 0 1-.195.012c-.37-.348-.86-.507-1.368-.507-.609 0-1.042.328-1.042.805 0 .51.586.662 1.232.837.829.221 1.772.48 1.772 1.545 0 .737-.503 1.49-1.87 1.49-.82 0-1.437-.289-1.856-.708a.153.153 0 0 1-.012-.202l.2-.252zm4.288-3.849a.15.15 0 0 1 .152-.15h1.581c1.574 0 2.603 1.102 2.603 2.54 0 1.445-1.027 2.532-2.603 2.532h-1.581a.151.151 0 0 1-.151-.151v-4.77zm1.735 4.36c1.233 0 1.947-.884 1.947-1.97 0-1.097-.693-1.978-1.947-1.978h-1.102v3.947h1.102zm8.914-1.277c0-1.067.701-1.926 1.819-1.926 1.117 0 1.818.86 1.818 1.926 0 1.065-.7 1.932-1.818 1.932s-1.819-.869-1.819-1.932zm3.035 0c0-.746-.433-1.416-1.216-1.416-.785 0-1.225.67-1.225 1.416 0 .752.44 1.422 1.225 1.422.783 0 1.216-.67 1.216-1.422zm1.15-2.838c0-.214.174-.38.38-.38.213 0 .388.166.388.38a.39.39 0 0 1-.388.388.39.39 0 0 1-.38-.388zm.25 1.003h.266c.083 0 .15.068.15.151v3.372a.151.151 0 0 1-.15.15h-.266a.151.151 0 0 1-.152-.15v-3.372c0-.083.068-.15.152-.15zm3.704 1.271c0-.646-.327-.852-.82-.852-.449 0-.875.274-1.09.571v2.533a.151.151 0 0 1-.15.15h-.266a.151.151 0 0 1-.152-.15v-3.372c0-.083.068-.15.152-.15h.265c.084 0 .152.067.152.15v.38c.257-.304.76-.622 1.308-.622.768 0 1.172.388 1.172 1.186v2.425a.151.151 0 0 1-.151.152h-.266a.151.151 0 0 1-.152-.151v-2.25h-.002zm-13.01-.13c0-1.56 1.149-2.623 2.587-2.623.852 0 1.45.37 1.853.88a.134.134 0 0 1-.039.2l-.283.156a.151.151 0 0 1-.192-.036 1.732 1.732 0 0 0-1.339-.636c-1.089 0-1.933.853-1.933 2.062 0 1.202.844 2.06 1.933 2.06.553 0 1.04-.255 1.339-.634a.153.153 0 0 1 .192-.039l.288.158c.073.04.09.138.038.202-.42.512-1.005.877-1.858.877-1.438-.002-2.586-1.066-2.586-2.626z" fill="#4D4E50"/><path d="M16.25 26a6 6 0 1 0 0-12 6 6 0 0 0 0 12z" fill="#2775CA"/><path d="M15.126 24.009c0 .14-.11.221-.247.178a4.502 4.502 0 0 1 0-8.574c.136-.042.247.038.247.18v.347c0 .095-.073.205-.162.236a3.757 3.757 0 0 0-2.465 3.522 3.757 3.757 0 0 0 2.465 3.522c.09.034.162.142.162.236v.353z" fill="#fff"/><path d="M16.624 22.712a.189.189 0 0 1-.188.189h-.374a.19.19 0 0 1-.188-.19v-.592c-.819-.11-1.219-.57-1.327-1.193a.175.175 0 0 1 .174-.202h.429c.089 0 .164.064.183.153.08.372.294.657.95.657.485 0 .829-.271.829-.676s-.203-.558-.913-.676c-1.05-.14-1.546-.458-1.546-1.282 0-.635.48-1.129 1.223-1.235v-.581a.19.19 0 0 1 .19-.189h.373a.19.19 0 0 1 .188.189v.597c.605.109.988.452 1.113 1.021a.174.174 0 0 1-.172.21h-.394a.19.19 0 0 1-.182-.138c-.105-.364-.364-.518-.814-.518-.496 0-.753.24-.753.576 0 .356.146.534.908.645 1.032.14 1.563.435 1.563 1.313 0 .666-.494 1.204-1.268 1.33v.592h-.004z" fill="#fff"/><path d="M17.623 24.187c-.137.043-.247-.038-.247-.179v-.349c0-.103.063-.2.162-.234A3.758 3.758 0 0 0 20 19.902a3.759 3.759 0 0 0-2.463-3.523.27.27 0 0 1-.162-.235v-.348c0-.141.11-.224.247-.179a4.502 4.502 0 0 1 3.129 4.287 4.505 4.505 0 0 1-3.13 4.283z" fill="#fff"/></g><defs><filter id="b" x="-72" y="-48" width="136" height="136" filterUnits="userSpaceOnUse" color-interpolation-filters="sRGB"><feFlood flood-opacity="0" result="BackgroundImageFix"/><feBlend in="SourceGraphic" in2="BackgroundImageFix" result="shape"/><feGaussianBlur stdDeviation="24" result="effect1_foregroundBlur_17228_232823"/></filter><filter id="c" x="0" y="-52" width="144" height="144" filterUnits="userSpaceOnUse" color-interpolation-filters="sRGB"><feFlood flood-opacity="0" result="BackgroundImageFix"/><feBlend in="SourceGraphic" in2="BackgroundImageFix" result="shape"/><feGaussianBlur stdDeviation="24" result="effect1_foregroundBlur_17228_232823"/></filter><clipPath id="a"><path d="M0 4a4 4 0 0 1 4-4h56a4 4 0 0 1 4 4v32a4 4 0 0 1-4 4H4a4 4 0 0 1-4-4V4z" fill="#fff"/></clipPath></defs></svg>