<svg xmlns="http://www.w3.org/2000/svg" fill="none" width="20" height="20" viewBox="0 0 20 20"><path d="M8.477 6.528a.594.594 0 0 0-.909.503v5.938a.594.594 0 0 0 .909.503l4.75-2.969a.594.594 0 0 0 0-1.007l-4.75-2.968ZM11.792 10l-3.036 1.897V8.102L11.792 10Z" fill="#333" fill-rule="evenodd" clip-rule="evenodd"/><path d="M.443 1.687C.443 1.032.975.5 1.631.5h16.625c.656 0 1.187.532 1.187 1.187v1.188c0 .656-.531 1.187-1.187 1.187v11.282a1.78 1.78 0 0 1-1.781 1.78h-2.602l.758 1.517a.594.594 0 0 1-1.063.53l-1.023-2.046H7.342l-1.024 2.047a.594.594 0 0 1-1.062-.531l.758-1.516H3.412a1.781 1.781 0 0 1-1.781-1.781V4.062A1.187 1.187 0 0 1 .443 2.875V1.687Zm16.032 14.25h-3.551a.5.5 0 0 0-.025 0H3.413a.594.594 0 0 1-.595-.593V4.062h14.25v11.282a.594.594 0 0 1-.593.593Zm1.78-14.25H1.632v1.188h16.625V1.687Z" fill="#333" fill-rule="evenodd" clip-rule="evenodd"/></svg>