<svg xmlns="http://www.w3.org/2000/svg" width="118" height="138" viewBox="0 0 118 138" fill="none"><g clip-path="url(#a)"><path d="M79.785 34.103c-.034 2.173-.164 6.874-3.05 11.877-1.994 3.45-4.498 5.64-6.102 6.848-2.088 1.138-4.186 2.285-6.283 3.424a19.4 19.4 0 0 0 3.155-2.346c4.593-4.209 5.78-9.34 6.292-11.713 1.326-6.098-.104-10.97-.806-13.24-.668-2.164-3.294-10.297-11.536-15.584-2.21-1.424-7.141-4.494-13.996-4.184-1.266.06-4.585.25-8.286 2.01 1.924-1.139 3.857-2.277 5.781-3.424a23.8 23.8 0 0 1 7.237-1.596c1.62-.095 6.3-.215 11.535 2.2 4.316 1.992 6.881 4.709 8.407 6.365 3.848 4.174 5.477 8.323 5.936 9.582 1.69 4.606 1.734 8.47 1.708 9.798z" fill="#EBECEE" stroke="#000" stroke-width=".5" stroke-linecap="round" stroke-linejoin="round"/><path d="M72.99 28.946c.694 2.268 2.124 7.141.807 13.239-.512 2.372-1.708 7.504-6.292 11.713-5.885 5.399-13.165 5.39-15.418 5.287-6.96-.337-11.596-3.933-13.841-5.675-2.002-1.553-6.899-5.788-9.395-13.154-.797-2.346-2.66-8.124-.745-15.128.641-2.329 2.314-8.107 7.965-12.204 4.81-3.493 9.776-3.778 11.388-3.856 6.855-.31 11.786 2.769 13.996 4.184 8.242 5.287 10.868 13.42 11.536 15.585z" fill="#F6F7F8" stroke="#000" stroke-width=".5" stroke-linecap="round" stroke-linejoin="round"/><path d="M60.64 30.308a19 19 0 0 0-2.885-2.536 11 11 0 0 0-1.56-.948c-.702-.354-1.179-.596-1.872-.69a5 5 0 0 0-1.543.051c-.32.06-.763.147-1.248.414a3.74 3.74 0 0 0-1.283 1.173c2.609 1.639 5.209 3.286 7.809 4.925-.754 1.035-1.508 2.079-2.27 3.114-2.583-1.596-5.166-3.183-7.757-4.779-.2.32-.399.673-.59 1.079-.216.44-.381.862-.511 1.242 2.435 1.526 4.862 3.053 7.289 4.57-.763 1.036-1.526 2.08-2.297 3.114-2.02-1.25-4.047-2.5-6.067-3.751-.06.345-.13.828-.13 1.414 0 .612 0 1.45.364 2.38.364.924.919 1.484 1.344 1.907.771.776 1.516 1.181 2.357 1.639.78.422 1.421.672 1.95.88.936.361 1.75.603 2.357.758-.303 1.579-.615 3.148-.918 4.727a21 21 0 0 1-4.906-1.665c-1.603-.793-3.882-1.906-5.772-4.39-1.456-1.915-2.002-3.752-2.158-4.33-.806-2.984-.268-5.503.061-6.667-.84-.57-1.69-1.138-2.53-1.708.554-1.173 1.1-2.346 1.655-3.519.736.466 1.473.923 2.201 1.389.39-.742.78-1.475 1.179-2.208-.78-.535-1.552-1.07-2.332-1.604.581-1.113 1.153-2.217 1.734-3.33l2.686 1.64a11.4 11.4 0 0 1 2.028-1.976c.538-.414 1.439-1.087 2.8-1.561.494-.172 1.178-.405 2.114-.457.789-.035 1.361.078 2.141.241 1.343.285 2.4.699 3.06.984.372.164 1.507.681 2.825 1.621a16.7 16.7 0 0 1 2.149 1.82 19 19 0 0 1 1.508 1.69l-3.016 3.364z" fill="#7989FB" stroke="#000" stroke-width=".5" stroke-linecap="round" stroke-linejoin="round"/><path d="M135.365 25.729c-2.323-2.26-4.845-3.217-5.755-3.554-4.55-1.665-8.511-.768-11.206-.155-8.129 1.846-13.139 7.047-15.288 9.35-2.115 2.26-5.183 5.597-6.855 10.945-.85 2.708-3.207 10.229.996 16.56a14 14 0 0 0 1.985 2.38q-2.875-2.73-5.737-5.46a13.8 13.8 0 0 1-2.028-2.354c-.32-.475-1.612-2.45-2.228-5.77-.84-4.503.156-8.272.642-10.023 1.317-4.778 3.64-7.943 4.974-9.72a33.2 33.2 0 0 1 10.426-9.065c1.612-.888 4.377-2.38 8.329-3.13 1.976-.372 4.515-.829 7.722-.2 3.276.648 5.642 2.123 6.951 3.089 2.357 2.372 4.723 4.743 7.08 7.107z" fill="#EBECEE" stroke="#000" stroke-width=".5" stroke-linecap="round" stroke-linejoin="round"/><path d="M96.26 42.314c1.682-5.348 4.741-8.685 6.856-10.945 2.158-2.303 7.167-7.504 15.297-9.35 2.695-.612 6.647-1.51 11.206.155 1.222.449 5.33 2.019 7.964 6.314 2.427 3.95 2.176 7.866 2.02 10.272-.373 5.796-3.008 9.859-4.715 12.498a32.7 32.7 0 0 1-8.233 8.694c-2.28 1.647-6.396 4.554-12.454 5.416-2.479.354-5.972.846-9.958-.819-1.361-.57-4.663-2.173-6.977-5.667-4.203-6.339-1.846-13.86-.997-16.56z" fill="#F6F7F8" stroke="#000" stroke-width=".5" stroke-miterlimit="10"/><path d="M119.184 46.472c-.615 3.346-1.239 6.693-1.863 10.04a829 829 0 0 0-4.932.603c.616-3.355 1.24-6.71 1.855-10.065a53 53 0 0 0 2.401-.207 45 45 0 0 0 2.539-.371Z" fill="#53AE95" stroke="#000" stroke-width=".5" stroke-miterlimit="10"/><path d="M120.38 40.469c5.035-.276 10.244.198 10.417 1.431.217 1.518-7.288 4.158-14.152 4.943-5.642.646-12.879.267-13.087-1.182-.191-1.346 5.685-3.597 11.83-4.64" fill="#F6F7F8"/><path d="M120.38 40.469c5.035-.276 10.244.198 10.417 1.431.217 1.518-7.288 4.158-14.152 4.943-5.642.646-12.879.267-13.087-1.182-.191-1.346 5.685-3.597 11.83-4.64" stroke="#000" stroke-width=".5" stroke-miterlimit="10"/><path d="m109.382 34.56 19.699-2.51a937 937 0 0 0-.849 4.926c-2.461.319-4.914.638-7.375.966-.468 2.371-.936 4.752-1.404 7.133q-2.484.347-4.966.68l1.378-7.244-7.41.905c.312-1.621.624-3.242.927-4.855Z" fill="#53AE95" stroke="#000" stroke-width=".5" stroke-miterlimit="10"/><path d="M63.856 96.703c.676 4.787-.113 8.487-.39 9.66-.312 1.294-.737 3.054-1.88 5.124a18.5 18.5 0 0 1-4.403 5.321c-.702.552-1.413 1.096-2.124 1.648-1.898 1.155-3.796 2.302-5.694 3.458 3.874-2.527 5.833-5.856 6.474-6.977 3.354-5.883 2.678-11.601 2.366-14.266-1.031-8.772-6.17-14.3-7.687-15.887-1.699-1.777-5.486-5.65-11.813-7.41-2.08-.577-7.349-1.966-13.208.165a18.5 18.5 0 0 0-2.955 1.38q2.837-1.863 5.66-3.726a16 16 0 0 1 2.677-1.363c3.328-1.32 6.258-1.19 8.26-1.078 3.12.172 5.477.905 6.422 1.224 4.844 1.64 7.869 4.416 9.412 5.857 1.274 1.19 4.22 4.166 6.439 8.9 1.768 3.77 2.28 6.953 2.427 7.97z" fill="#EBECEE" stroke="#000" stroke-width=".5" stroke-linecap="round" stroke-linejoin="round"/><path d="M17.81 112.47a27.5 27.5 0 0 1-2.851-5.365c-.65-1.612-1.933-4.907-2.011-9.392-.026-1.647-.06-5.322 1.733-9.565.668-1.579 1.872-4.339 4.663-6.909.624-.578 2.782-2.467 6.17-3.7 5.86-2.13 11.129-.742 13.209-.164 6.326 1.76 10.114 5.624 11.812 7.4 1.517 1.587 6.648 7.116 7.688 15.888.312 2.665.988 8.383-2.366 14.265-.789 1.38-3.58 6.115-9.508 8.582-7.228 3.01-13.84.44-15.591-.241-4.697-1.829-7.817-4.968-9.577-6.754-1.846-1.863-2.998-3.501-3.371-4.053z" fill="#F6F7F8" stroke="#000" stroke-width=".5" stroke-linecap="round" stroke-linejoin="round"/><path d="M46.921 98.67c-.355-.475-1.1-1.432-2.47-2.036-.424-.18-1.534-.655-2.972-.448a4.9 4.9 0 0 0-1.664.552c.234-.44 1.126-2.234.537-4.407-.182-.682-.667-1.993-1.907-2.985a5.9 5.9 0 0 0-1.707-.923c-.425-.146-1.11-.38-2.028-.327a4.7 4.7 0 0 0-1.612.388c-.39.241-.771.491-1.161.733-.884-1.354-1.768-2.7-2.652-4.054-.772.466-1.543.94-2.306 1.406q1.285 2.019 2.557 4.037c-.59.396-1.17.793-1.76 1.198-.9-1.337-1.793-2.673-2.695-4.002-.745.492-1.49.975-2.244 1.467l2.574 4.019c-1.396.914-2.8 1.828-4.195 2.743.624.87 1.257 1.75 1.89 2.622.337-.242.675-.475 1.013-.716.104-.095.304-.233.581-.31.165-.044.407-.113.685-.018.346.12.511.405.554.492 2.496 3.889 4.992 7.779 7.488 11.661.052.077.243.379.182.793a1.12 1.12 0 0 1-.572.802c-.442.276-.884.552-1.317.82.607.914 1.213 1.819 1.82 2.734l4.09-2.726c.893 1.38 1.795 2.76 2.687 4.14l2.262-1.449c-.884-1.38-1.776-2.751-2.66-4.131.624-.388 1.24-.768 1.863-1.156q1.341 2.031 2.67 4.062c.762-.508 1.525-1.009 2.279-1.518l-2.678-4.088c.216-.112.52-.267.866-.483 1.075-.655 2.08-1.25 2.713-2.268.754-1.199.676-2.484.641-3.097-.112-1.828-1.014-3.07-1.36-3.527zm-17.914-3.787c.936-.612 1.864-1.224 2.8-1.845a2.8 2.8 0 0 1 .771-.414 2.9 2.9 0 0 1 1.309-.155 3.03 3.03 0 0 1 1.473.577c.58.423.85.923 1.04 1.285.173.328.407.785.468 1.44.026.346.087 1.096-.39 1.726-.165.224-.355.362-.485.457-1.17.768-2.34 1.544-3.502 2.311-1.16-1.793-2.322-3.579-3.484-5.373zm14.352 7.521c.07.32.191.854.035 1.501-.095.414-.26.69-.295.751a2.46 2.46 0 0 1-.858.853c-1.482.949-2.955 1.898-4.437 2.847l-3.57-5.313 4.74-3.114c.173-.103.46-.25.84-.31.59-.095 1.05.077 1.361.19.832.31 1.326.87 1.5 1.103.476.604.615 1.199.684 1.492" fill="#F7931A" stroke="#000" stroke-width=".5" stroke-linecap="round" stroke-linejoin="round"/><path d="M90.133 110.572c-.173-3.182.286-5.589.555-6.934.173-.871.763-3.614 2.305-7.012 1.075-2.364 2.964-6.426 7.081-10.23 1.447-1.336 3.813-3.475 7.583-4.942 1.916-.741 5.079-1.966 9.126-1.336.789.12 3.744.655 6.708 2.811 5.166 3.77 6.422 9.617 6.96 12.136 1.352 6.304-.217 11.393-1.118 14.17-.997 3.088-3.06 7.832-7.341 12.17-2.037 2.07-4.897 4.968-9.681 6.452-1.889.586-6.11 1.897-10.885.181-4.49-1.622-6.89-4.977-7.73-6.184-1.595-2.294-2.271-4.528-2.644-5.779-.156-.517-.763-2.631-.919-5.52z" fill="#F6F7F8" stroke="#000" stroke-width=".5" stroke-linecap="round" stroke-linejoin="round"/><path d="M137.15 111.504c-.78 2.76-2.565 7.642-6.691 12.299-1.525 1.725-3.761 4.209-7.557 6.115-1.629.82-5.191 2.553-9.923 2.303a17.5 17.5 0 0 1-3.528-.552 3551 3551 0 0 0-8.042-3.614c4.784 1.725 8.996.414 10.894-.181 4.792-1.492 7.644-4.381 9.68-6.451 4.282-4.339 6.344-9.082 7.341-12.17.901-2.777 2.47-7.866 1.118-14.17-.537-2.52-1.794-8.367-6.959-12.136a16.4 16.4 0 0 0-2.67-1.57c2.912 1.225 5.816 2.45 8.728 3.674.762.475 1.516.958 2.279 1.432a20.6 20.6 0 0 1 2.496 2.786c2.175 2.958 2.947 5.761 3.328 7.202 1.785 6.744.095 12.989-.494 15.042z" fill="#EBECEE" stroke="#000" stroke-width=".5" stroke-linecap="round" stroke-linejoin="round"/><path d="m118.621 101.99-8.346-3.83c-.139-3.139-.286-6.278-.425-9.418q4.383 6.624 8.779 13.248zm0 .001-8.052 5.709c-2.712-.284-5.425-.577-8.138-.862l7.835-8.677 8.346 3.83z" fill="#5C616D" stroke="#000" stroke-width=".5" stroke-linecap="round" stroke-linejoin="round"/><path d="M110.275 98.153c-.139-3.14-.286-6.28-.425-9.419-2.47 6.03-4.94 12.067-7.41 18.096 2.609-2.898 5.226-5.788 7.835-8.677m8.415 6.925c-2.643 1.855-5.295 3.7-7.939 5.555.139 3.657.286 7.314.425 10.971 2.505-5.512 5.009-11.015 7.514-16.526m-7.947 5.555c-2.73-.25-5.46-.509-8.199-.759 2.877 3.907 5.746 7.814 8.623 11.73-.138-3.657-.286-7.314-.424-10.971" fill="#5C616D" stroke="#000" stroke-width=".5" stroke-linecap="round" stroke-linejoin="round"/><path d="M81.657 103.733c-6.846-.121-11.613-3.131-13.528-4.381-7.402-4.83-10.166-11.8-11.06-14.154-.866-2.277-3.864-10.54-.52-20.191.79-2.26 3.624-10.083 11.7-14.74 5.513-3.183 10.748-3.32 11.97-3.33.962 0 4.81.018 9.377 1.838 6.777 2.708 10.504 7.53 11.873 9.358.936 1.25 5.512 7.547 5.954 16.87.295 6.331-1.447 10.98-1.828 11.963-.832 2.13-3.06 7.642-8.91 11.903-1.516 1.104-7.028 5.002-15.028 4.864" fill="#F6F7F8" stroke="#000" stroke-width=".5" stroke-linecap="round" stroke-linejoin="round"/><path d="M56.55 65.015c-3.345 9.643-.347 17.906.52 20.192.893 2.346 3.657 9.323 11.059 14.145 1.915 1.25 6.673 4.269 13.528 4.381a23.4 23.4 0 0 0 5.062-.457l-6.448 1.475c-.72.129-1.725.259-2.92.293-.668.017-2.679 0-5.6-.63-4.584-.983-7.79-2.846-8.918-3.544-5.91-3.657-8.744-8.729-9.854-10.773-.996-1.829-3.874-7.599-3.666-15.482.061-2.286.243-7.072 2.99-12.429 0 0 3.172-6.166 8.771-9.953 2.297-1.552 4.862-2.596 4.862-2.596a27 27 0 0 1 2.73-.94c2.167-.38 4.334-.768 6.5-1.147a25 25 0 0 0-6.925 2.708c-8.077 4.658-10.92 12.48-11.7 14.74z" fill="#EBECEE" stroke="#000" stroke-width=".5" stroke-linecap="round" stroke-linejoin="round"/><path d="M79.378 60.357c.078-1.578.147-3.148.225-4.726 1.69.172 3.38.336 5.07.509-.06 1.51-.12 3.018-.19 4.528a20.3 20.3 0 0 1 5.936 2.104c-.494 1.708-.979 3.425-1.473 5.132a23 23 0 0 0-1.959-.94c-.762-.319-1.603-.664-2.756-.931a14 14 0 0 0-2.72-.294c-.608 0-1.084.035-1.596.268a2.4 2.4 0 0 0-.936.698 2.2 2.2 0 0 0-.442 1.01c-.104.612.087 1.086.174 1.328.225.552.563.888.832 1.147.355.345.684.543 1.11.776 1.022.578 1.845.975 2.07 1.078.373.181 1.387.673 2.375 1.268.65.397 1.733 1.052 2.886 2.165.633.604 1.135 1.087 1.63 1.889.181.302.78 1.32 1.04 2.803.06.336.26 1.656-.105 3.312-.138.621-.39 1.716-1.213 2.89a7.5 7.5 0 0 1-1.811 1.82c-1.656 1.164-3.38 1.336-4.178 1.362-.095 1.811-.199 3.614-.294 5.416l-5.07-.517q.076-2.626.164-5.253a18 18 0 0 1-2.556-.569c-.364-.112-1.5-.466-2.895-1.164a21 21 0 0 1-1.95-1.121l2.002-4.865c.52.32 1.196.69 1.993 1.07 1.014.483 1.924.914 3.207 1.216.936.224 1.664.284 2.262.327 1.127.095 1.647.026 1.915-.026.572-.094.98-.163 1.396-.465.745-.544.918-1.398.953-1.613.165-.906-.2-1.613-.312-1.837-.303-.56-.693-.863-1.291-1.311-.477-.354-.84-.552-1.734-1.018-1.066-.552-1.759-.906-2.036-1.052-1.49-.768-2.236-1.156-3.068-1.743-.876-.62-1.595-1.12-2.28-2.052-.208-.276-.988-1.372-1.334-3.028-.33-1.578-.087-2.82.034-3.45.148-.707.382-1.82 1.196-3.001a7.1 7.1 0 0 1 1.83-1.82c.926-.621 1.784-.862 2.452-1.044a11 11 0 0 1 1.447-.302z" fill="#78CBD4" stroke="#000" stroke-width=".5" stroke-linecap="round" stroke-linejoin="round"/><path d="m12.433 46.021-2.104-1.773c-1.815.41-3.633.833-5.447 1.243 2.065 1.706 4.126 3.404 6.2 5.105zm12.436.409a2363 2363 0 0 1-6.07-5.19c-1.78.45-3.566.894-5.348 1.345 2.054 1.702 4.104 3.397 6.16 5.088a870 870 0 0 0 5.26-1.254z" fill="#FF535E" stroke="#000" stroke-width=".5" stroke-linecap="round" stroke-linejoin="round"/><path d="m18.804 67.023-.981 3.414c-1.787.424-3.577.86-5.363 1.284q1.205-3.969 2.417-7.929c1.311 1.076 2.615 2.155 3.927 3.23m9.846-7.577c-.764 2.682-1.535 5.368-2.298 8.05-1.79.435-3.58.87-5.382 1.303.807-2.676 1.609-5.36 2.408-8.032 1.758-.438 3.513-.883 5.272-1.321" fill="#FF444F" stroke="#000" stroke-width=".5" stroke-linecap="round" stroke-linejoin="round"/><path d="M22.646 54.386c1.995 1.687 4.001 3.377 5.996 5.064-1.759.438-3.513.883-5.264 1.316-2.046-1.687-4.083-3.38-6.128-5.067 1.797-.44 3.595-.88 5.389-1.308z" fill="#FF535E" stroke="#000" stroke-width=".5" stroke-linecap="round" stroke-linejoin="round"/><path d="M19.608 47.685a870 870 0 0 0 5.26-1.254l-2.226 7.948c-1.797.44-3.594.88-5.389 1.309l2.358-8.014z" fill="#FF444F" stroke="#000" stroke-width=".5" stroke-linecap="round" stroke-linejoin="round"/><path d="M8.65 58.674c-.8 2.653-1.596 5.313-2.404 7.97 2.069 1.694 4.142 3.395 6.218 5.085a3581 3581 0 0 1 2.417-7.929c2.032 1.665 4.061 3.342 6.086 5.011.807-2.676 1.609-5.36 2.408-8.032-2.046-1.688-4.083-3.38-6.128-5.067l2.358-8.015a1911 1911 0 0 0-6.16-5.088c-.792 2.668-1.579 5.344-2.363 8.007-2.065-1.706-4.134-3.4-6.2-5.105-.784 2.714-1.562 5.424-2.342 8.145 2.033 1.684 4.07 3.357 6.103 5.041z" fill="#FF7E88" stroke="#000" stroke-width=".5" stroke-linecap="round" stroke-linejoin="round"/><path d="m93.366 1.053 4.472 12.213-.182 5.571L93.21 6.624l.156-5.58z" fill="#FF535E" stroke="#000" stroke-width=".5" stroke-linecap="round" stroke-linejoin="round"/><path d="m93.21 6.633.156-5.58-17.273 2.924c-.034 1.888-.06 3.777-.095 5.666 5.737-1.009 11.475-2.01 17.212-3.019z" fill="#FF7E88" stroke="#000" stroke-width=".5" stroke-linecap="round" stroke-linejoin="round"/><path d="M97.656 18.846 93.21 6.633c-5.737 1.009-11.475 2.01-17.212 3.019 7.22 3.061 14.439 6.132 21.658 9.194" fill="#FF444F" stroke="#000" stroke-width=".5" stroke-linecap="round" stroke-linejoin="round"/><path d="m80.368 114.009 4.472 12.213-.182 5.571-4.446-12.213.156-5.58z" fill="#FF535E" stroke="#000" stroke-width=".5" stroke-linecap="round" stroke-linejoin="round"/><path d="m80.212 119.589.156-5.58-17.273 2.924c-.034 1.889-.06 3.777-.095 5.666 5.737-1.009 11.475-2.009 17.212-3.018z" fill="#FF7E88" stroke="#000" stroke-width=".5" stroke-linecap="round" stroke-linejoin="round"/><path d="m84.658 131.802-4.446-12.213c-5.737 1.009-11.475 2.009-17.212 3.019 7.22 3.061 14.439 6.132 21.658 9.194" fill="#FF444F" stroke="#000" stroke-width=".5" stroke-linecap="round" stroke-linejoin="round"/></g><defs><clipPath id="a"><path fill="#fff" d="M0 0h156v138H0z"/></clipPath></defs></svg>