<svg width="20" height="20" fill="none" xmlns="http://www.w3.org/2000/svg"><path fill-rule="evenodd" clip-rule="evenodd" d="M8.533 6.528a.594.594 0 0 0-.908.503v5.938a.594.594 0 0 0 .908.503l4.75-2.969a.594.594 0 0 0 0-1.007l-4.75-2.968ZM11.85 10l-3.037 1.897V8.102L11.85 10Z" fill="#C2C2C2"/><path fill-rule="evenodd" clip-rule="evenodd" d="M.5 1.687C.5 1.032 1.032.5 1.688.5h16.625c.655 0 1.187.532 1.187 1.187v1.188c0 .656-.532 1.187-1.188 1.187v11.282c0 .983-.797 1.78-1.78 1.78h-2.603l.758 1.517a.594.594 0 1 1-1.062.53l-1.023-2.046H7.398l-1.023 2.047a.594.594 0 0 1-1.062-.531l.758-1.516H3.469a1.781 1.781 0 0 1-1.781-1.781V4.062A1.187 1.187 0 0 1 .5 2.875V1.687Zm16.031 14.25h-3.55a.5.5 0 0 0-.025 0H3.469a.594.594 0 0 1-.594-.593V4.062h14.25v11.282a.594.594 0 0 1-.594.593Zm1.782-14.25H1.688v1.188h16.625V1.687Z" fill="#C2C2C2"/></svg>