<svg viewBox="0 0 27 26" fill="none" xmlns="http://www.w3.org/2000/svg"><g clip-path="url(#a)"><path fill-rule="evenodd" clip-rule="evenodd" d="M5.32.1h16c2.648 0 4.8 2.152 4.8 4.8v16c0 2.648-2.152 4.8-4.8 4.8h-16a4.804 4.804 0 0 1-4.8-4.8v-16C.52 2.252 2.672.1 5.32.1Z" fill="url(#b)"/><path d="m16.17 10.996-3.512-1.592.584 2.928 1.888.864c.64.28 1.152.792 1.424 1.44.272.64.296 1.368.064 2.024a2.741 2.741 0 0 1-1.336 1.52 2.795 2.795 0 0 1-2.016.208 1.972 1.972 0 0 1-.416-.144l-1.792-.824-2.76 1.352 3.592 1.632a5.165 5.165 0 0 0 6.664-2.648 5.175 5.175 0 0 0-2.392-6.768l.008.008Z" fill="#fff"/><path d="M11.529 12.668a2.78 2.78 0 0 1-1.432-1.432 2.725 2.725 0 0 1-.064-2.024 2.787 2.787 0 0 1 1.336-1.528 2.757 2.757 0 0 1 2.016-.2c.144.032.28.08.416.144l1.816.824 2.76-1.352-3.592-1.632a5.169 5.169 0 0 0-6.92 3.016 5.186 5.186 0 0 0 2.632 6.408l3.512 1.592-.6-2.952-1.888-.848.008-.016Z" fill="#fff"/></g><defs><linearGradient id="b" x1="13.32" y1="25.7" x2="13.32" y2=".1" gradientUnits="userSpaceOnUse"><stop stop-color="#2A3052"/><stop offset="1" stop-color="#4B62AA"/></linearGradient><clipPath id="a"><path fill="#fff" transform="translate(.52 .1)" d="M0 0h25.6v25.6H0z"/></clipPath></defs></svg>