<svg viewBox="0 0 64 64" fill="none" xmlns="http://www.w3.org/2000/svg"><g clip-path="url(#prefix__clip0_26153_90537)"><path d="M0 12C0 5.38 5.38 0 12 0h40c6.62 0 12 5.38 12 12v40c0 6.62-5.38 12-12 12H12C5.38 64 0 58.62 0 52V12z" fill="url(#prefix__paint0_linear_26153_90537)"/><path d="M0 12C0 5.38 5.38 0 12 0h40c6.62 0 12 5.38 12 12v40c0 6.62-5.38 12-12 12H12C5.38 64 0 58.62 0 52V12z" fill="url(#prefix__paint1_radial_26153_90537)"/><path d="M3 43v9c0 4.96 4.04 9 9 9h40c4.96 0 9-4.04 9-9v-9H3z" fill="#7448D3"/><path fill-rule="evenodd" clip-rule="evenodd" d="M35.1 8.88c1.8.26 3.42 1.2 4.54 2.64a7.144 7.144 0 011.48 5.08l-1.1 7.96c0 .12-.06.24-.14.34-.08.1-.18.18-.28.24-.12.06-.24.08-.36.08s-.24-.04-.36-.1l-1.46-.94a.728.728 0 01-.28-.32.772.772 0 01-.06-.42l.48-3.84c.08-.92-.12-1.84-.6-2.64l-.18 1.12-1.02-.42a.73.73 0 00-.58 0 .78.78 0 00-.4.4c-.18.02-.36.12-.48.26s-.18.34-.18.52l.06 1.76c0 .14.06.28.14.4.08.12.2.2.32.26l1.26.56c-2.52.68-5.16.68-7.68 0l1.2-.48c.14-.06.24-.16.34-.28.1-.12.12-.26.14-.4l.06-1.76c0-.18-.06-.36-.18-.5a.72.72 0 00-.46-.26c-.2-.64-1-.46-1-.46l-.98.4-.18-1.12c-.28.44-.48.92-.58 1.42l-3.22 1.32-.22-1.26-.18-1.54c-.24-1.82.24-3.66 1.3-5.14a6.94 6.94 0 014.42-2.8 3.4 3.4 0 01.9-2.04c.3-.3.64-.56 1.04-.72.4-.18.8-.26 1.24-.28.42 0 .84.06 1.24.22s.76.4 1.06.7c.3.3.56.66.72 1.06.12.3.2.6.24.92l-.02.06zm.02 1.38v.96c.04.86-.3 1.7-.9 2.34-.6.62-1.42.98-2.28 1-.86 0-1.68-.32-2.3-.92-.62-.6-.98-1.44-.98-2.3v-.94l-1.36 2.38 1.14.72-.6 1.16 3.54 2.36s.08.04.12.04c.04 0 .08-.02.12-.04a.11.11 0 00.06-.1v-.12l-1.18-2.52c.46.22.96.34 1.48.34s1.02-.14 1.46-.38l-1.1 2.56s-.02.08 0 .12c0 .04.04.08.06.1.04.02.08.04.12.04.04 0 .08 0 .12-.04l3.46-2.48-.64-1.16 1.14-.78-1.44-2.32-.04-.02zm-4.62-1.8a1.36 1.36 0 011.2-.86v-.78c-.56 0-1.08.24-1.48.64-.38.4-.6.94-.6 1.5h.76c0-.18.02-.36.1-.52l.02.02zm2.78 11.22s0 .16-.04.22c-.02.08-.06.14-.12.2s-.12.1-.18.12c-.06.02-.14.04-.22.04h-1.48s-.14 0-.22-.04a.567.567 0 01-.3-.3.719.719 0 01-.04-.22v-.86s0-.14.04-.22a.36.36 0 01.12-.18c.06-.06.12-.1.18-.12.06-.02.14-.04.22-.04h1.48s.14 0 .22.04c.08.04.14.08.18.12.06.06.1.12.12.18.02.06.04.14.04.22v.84z" fill="#6CAD56"/><path d="M23.898 23.28l.36 1.58c.02.12.08.24.16.34.08.1.18.18.3.22.12.06.24.08.38.06.12 0 .24-.06.36-.12l1.44-.98c.12-.08.22-.2.28-.34.06-.14.08-.28.06-.44l-.52-1.84-1.6.68c-.44.2-.84.5-1.18.84h-.04z" fill="#6CAD56"/><path d="M37.26 21.78l-2.06-.9a.915.915 0 01-.34-.28c-.1-.12-.12-.26-.14-.4l-.06-1.76c0-.12.02-.26.08-.38s.14-.22.24-.28c.1-.08.22-.12.36-.14.12 0 .26 0 .38.06l1.74.7c.08.4.1.82.06 1.22l-.26 2.16z" fill="#3E9AC7"/><path fill-rule="evenodd" clip-rule="evenodd" d="M43.099 20.74l-2.4-1-.46 3.42c.16.12.28.28.36.46.08.18.1.38.08.58l-.54-.38-.06.46c-.12.98-.7.98-.96.92-.14.1-.32.16-.5.16s-.36-.08-.5-.18l-1.48-.94a.728.728 0 01-.28-.32c-.06-.14-.08-.28-.06-.42l.1-.84s-2.74 2-3.94 7.24l1.32-1.08c.12-.1.24-.16.4-.16.14 0 .3 0 .42.08l1.56.78c.16.08.28.22.34.38s.08.34.04.52c.1.16.14.34.1.54-.02.18-.12.36-.26.48l-.94.78.18.56c-.92 0-1.8-.32-2.52-.88l-2.96-2.44a.91.91 0 00-.38-.16c-.14 0-.28 0-.4.06l-1.56.78c-.12.06-.22.14-.28.24-.08.1-.12.22-.14.36 0 .12 0 .26.04.38s.12.22.22.3l6.1 5.14a6.937 6.937 0 005.04 1.42c1.8-.2 3.46-1.08 4.62-2.48.68.32 1.44.4 2.16.22a3.28 3.28 0 002-1.5c.22-.36.36-.78.42-1.2.06-.42.04-.86-.06-1.28-.1-.42-.28-.82-.54-1.16-.18-.26-.4-.48-.66-.66.68-1.7.68-3.6 0-5.3a7.162 7.162 0 00-3.62-3.84v-.04zm2.46 8.42l-1.28-2.4-1.22.62-.66-1.16-3.86 1.78s-.1.04-.12.08c-.04.04-.04.1-.04.14 0 .06.04.1.08.12.04.04.1.04.14.04l2.72.32c.28-.18.6-.32.94-.4.84-.22 1.72-.08 2.46.36l.82.5h.02zm-5.74 2.08l-1.56-2.32s-.06-.06-.1-.08h-.12c-.04 0-.08.04-.1.08-.02.04-.04.08-.04.12l.24 4.28 1.3.06.04 1.4h2.72l-.84-.5c-.36-.22-.68-.52-.94-.86-.26-.34-.44-.74-.54-1.16-.08-.34-.12-.68-.08-1.02h.02zm-1.9-4.46l-.62 1.36s-.08.14-.14.18c-.06.06-.12.1-.2.12-.08.02-.14.04-.22.04-.08 0-.14-.02-.22-.06l-.76-.38a.495.495 0 01-.28-.32c-.06-.14-.04-.3 0-.44l.62-1.36s.08-.14.14-.18c.06-.06.12-.1.2-.12.08-.02.14-.04.22-.04.08 0 .14.02.22.06l.76.38c.14.06.24.18.28.32.06.14.04.3 0 .44zm8.9 6.84l-.66-.38c.18-.32.22-.68.14-1.02-.1-.34-.32-.64-.62-.82l.38-.66a2.129 2.129 0 01.76 2.9v-.02z" fill="#3E9AC7"/><path fill-rule="evenodd" clip-rule="evenodd" d="M27.501 31.26a.699.699 0 01-.16-.44c0-.16.04-.32.12-.46-.04-.16 0-.34.06-.5.08-.16.2-.28.36-.36l1.56-.78c.14-.06.28-.08.42-.08.14 0 .28.08.4.16l1.28 1.06c-1.34-5.14-4.1-7.22-4.1-7.22l.32 1.14c.02.14 0 .3-.04.44-.06.14-.16.26-.28.34l-1.44.98a.84.84 0 01-.48.14c-.18 0-.34-.08-.46-.2a.93.93 0 01-.46-.12.8.8 0 01-.3-.38l-.2-1.06-.78.3c.38-.96 1.08-1.44 1.96-1.84l3.52-1.5c.14-.06.24-.16.34-.28.08-.12.12-.26.14-.4l.06-1.76c0-.12-.02-.26-.08-.38a.665.665 0 00-.24-.28.719.719 0 00-.36-.14c-.12 0-.26 0-.38.06l-7.36 3.02a7.162 7.162 0 00-3.62 3.84 7.14 7.14 0 000 5.3c.08-.06.18-.14.28-.18l.86-.52 1.3-2.44 1.22.62.66-1.16 3.86 1.8s.1.04.12.08c.04.04.04.1.04.14 0 .06-.04.1-.08.12-.04.04-.1.04-.14.04l-2.74.32c.44.28.8.64 1.08 1.08.28.44.42.94.46 1.46l1.56-2.32s.06-.06.1-.08h.12c.04 0 .08.04.1.08.02.04.04.08.04.12l-.28 4.3-1.3.04-.04 1.36h-2.66l.78-.48c.36-.22.68-.52.94-.86.26-.34.44-.74.54-1.16.1-.42.12-.86.06-1.28-.06-.42-.2-.84-.42-1.2a3.299 3.299 0 00-2-1.5c-.84-.22-1.72-.08-2.46.36l-1.7 1.04c-.36.22-.68.52-.94.86-.26.34-.44.74-.54 1.16-.1.42-.12.86-.06 1.28.06.42.2.84.42 1.2.44.74 1.16 1.28 2 1.5.72.18 1.48.1 2.16-.2 1.16 1.4 2.82 2.3 4.62 2.48 1.8.2 3.62-.32 5.04-1.42l1.72-1.44-4.52-3.82v.02zm-.52-3l-.62-1.36s-.06-.14-.06-.22c0-.08 0-.16.04-.22.02-.08.06-.14.12-.2s.12-.1.18-.14l.76-.36s.14-.06.22-.06c.08 0 .16 0 .22.04.08.02.14.06.2.12s.1.12.14.18l.62 1.36s.06.14.06.22c0 .08 0 .16-.04.22-.02.08-.06.14-.12.2s-.12.1-.18.14l-.76.38s-.14.06-.22.06c-.08 0-.16 0-.22-.04a.415.415 0 01-.2-.12.472.472 0 01-.12-.18l-.02-.02zm-9.2 4c.02-.18.08-.34.16-.5.18-.3.48-.54.82-.62l-.2-.74c-.54.14-1 .5-1.28 1-.28.48-.36 1.06-.22 1.62l.74-.2c-.04-.18-.06-.36-.04-.52l.02-.04z" fill="#D7CB3B"/><path d="M34.9 32.66l1.5-1.28s.18-.18.22-.3c.04-.12.06-.24.04-.38 0-.12-.06-.26-.14-.36-.08-.1-.18-.2-.28-.24l-1.56-.78c-.14-.06-.28-.08-.42-.08-.14 0-.28.08-.4.16l-1.88 1.54 1.1.92c.52.42 1.14.68 1.8.8h.02z" fill="#D7CB3B"/><path d="M17.078 46.42h4.06c2.92 0 4.82 1.88 4.82 5.58s-1.9 5.58-4.82 5.58h-4.06V46.42zm4.06 9.3c1.56 0 2.58-.92 2.58-2.84v-1.76c0-1.9-1-2.84-2.58-2.84h-1.96v7.42h1.96v.02zM30.218 57.58h-2.12V46.42h5.04c2.04 0 3.3 1.34 3.3 3.46 0 1.54-.7 2.7-2.08 3.16l2.28 4.54h-2.36l-2.08-4.3h-2v4.3h.02zm2.72-6.08c.82 0 1.32-.44 1.32-1.26v-.74c0-.82-.5-1.24-1.32-1.24h-2.72v3.24h2.72zM40.859 57.58l-3.64-11.16h2.16l1.72 5.44 1 3.7h.04l.98-3.7 1.72-5.44h2.1l-3.64 11.16h-2.44z" fill="#fff"/></g><defs><radialGradient id="prefix__paint1_radial_26153_90537" cx="0" cy="0" r="1" gradientUnits="userSpaceOnUse" gradientTransform="matrix(0 -97 97 0 32.21 25.13)"><stop offset=".2" stop-color="#F1F2F2"/><stop offset=".55" stop-color="#C1D2D2"/></radialGradient><linearGradient id="prefix__paint0_linear_26153_90537" x1="32" y1="64" x2="32" y2="0" gradientUnits="userSpaceOnUse"><stop stop-color="#9F9F9F"/><stop offset=".49" stop-color="#F1F2F2"/></linearGradient><clipPath id="prefix__clip0_26153_90537"><path fill="#fff" d="M0 0h64v64H0z"/></clipPath></defs></svg>