<svg viewBox="0 0 27 26" fill="none" xmlns="http://www.w3.org/2000/svg"><g clip-path="url(#a)"><path d="M.84 4.9C.84 2.252 2.992.1 5.64.1h16c2.648 0 4.8 2.152 4.8 4.8v16c0 2.648-2.152 4.8-4.8 4.8h-16a4.804 4.804 0 0 1-4.8-4.8v-16z" fill="url(#b)"/><path d="m5.617 9.7 2.448 3.2-3.928 3.2h3.968c1.16 0 2.16-.8 2.424-1.928l.328-1.424A2.484 2.484 0 0 0 8.433 9.7H5.609h.008z" fill="url(#c)"/><path d="M8.065 12.9 6.32 16.1H4.137l3.928-3.2z" fill="#CC2E3D"/><path d="M22.976 11.284A2.385 2.385 0 0 0 21.6 9.892c-.352-.136-.72-.2-1.096-.2-.304 0-.608.04-.904.128a3.02 3.02 0 0 0-.8.368c-.248.16-.472.352-.672.576-.2.232-.376.48-.512.76a4.054 4.054 0 0 0-.32.904l-.024.112h-3.008l-.272 1.288h1.368c-.04.064-.08.12-.12.176-.144.184-.32.344-.52.456-.192.104-.408.16-.624.16-.152 0-.304-.024-.448-.088a.996.996 0 0 1-.336-.24 1.191 1.191 0 0 1-.224-.392 1.656 1.656 0 0 1-.08-.528c0-.304.04-.6.136-.888.08-.256.2-.496.36-.704.144-.184.32-.344.52-.456.192-.104.408-.16.624-.16a1.03 1.03 0 0 1 .776.328c.096.112.176.248.224.392l1.52-.6A2.36 2.36 0 0 0 15.8 9.9c-.352-.136-.72-.2-1.096-.2-.304 0-.608.04-.904.128a3.02 3.02 0 0 0-.8.368c-.248.16-.472.352-.672.576-.2.232-.376.48-.512.76a3.98 3.98 0 0 0-.32.912c-.08.344-.112.688-.112 1.04 0 .352.064.704.192 1.032.12.312.304.6.544.84.24.24.528.424.84.552a3.165 3.165 0 0 0 1.992.072 3.067 3.067 0 0 0 1.464-.936c.2-.232.376-.48.512-.752.112-.216.2-.44.264-.68.008.312.072.616.184.912.12.312.304.6.544.84.24.24.528.424.84.552a3.165 3.165 0 0 0 1.992.072 3.067 3.067 0 0 0 1.464-.936c.2-.232.376-.48.512-.752.144-.288.248-.6.32-.912.072-.344.112-.688.112-1.04 0-.352-.064-.704-.184-1.032v-.032zm-1.568 2.024c-.08.256-.2.488-.36.704-.144.184-.32.344-.52.456-.192.104-.408.16-.624.16-.152 0-.304-.024-.448-.088a.996.996 0 0 1-.336-.24 1.191 1.191 0 0 1-.224-.392 1.656 1.656 0 0 1-.08-.528c0-.304.04-.6.136-.888.08-.256.2-.496.36-.704.144-.184.32-.344.528-.456.192-.104.408-.16.624-.16a1.03 1.03 0 0 1 .776.328c.096.112.176.248.224.392.056.168.08.344.08.528 0 .304-.04.608-.136.896v-.008z" fill="#fff"/></g><defs><linearGradient id="b" x1="13.64" y1="25.7" x2="13.64" y2=".1" gradientUnits="userSpaceOnUse"><stop/><stop offset="1" stop-color="#58595B"/></linearGradient><linearGradient id="c" x1="8.425" y1="8.596" x2="7.153" y2="16.636" gradientUnits="userSpaceOnUse"><stop stop-color="#FF6444"/><stop offset="1" stop-color="#FF444F"/></linearGradient><clipPath id="a"><path fill="#fff" transform="translate(.84 .1)" d="M0 0h25.6v25.6H0z"/></clipPath></defs></svg>