<svg width="298" height="27" fill="none" xmlns="http://www.w3.org/2000/svg"><path fill-rule="evenodd" clip-rule="evenodd" d="M185.393 5c1.09 0 2.012.249 2.765.746.754.498 1.302 1.231 1.645 2.2l.304.832-4.239 1.492a1.27 1.27 0 00.019-.246c0-.101-.038-.269-.114-.503a1.511 1.511 0 00-.304-.559.797.797 0 00-.608-.265c-.697 0-1.261.5-1.691 1.5-.292.697-.52 1.61-.685 2.737-.076.468-.126.81-.152 1.025a10.537 10.537 0 00-.114 1.368c0 .596.086 1.074.257 1.435.171.36.472.541.903.541.342 0 .693-.182 1.054-.545.362-.363.58-.78.656-1.252l.076-.497h-1.539l.513-3.204h5.835l-.248 1.46c-.342 2.225-1.02 4.007-2.033 5.346-1.204 1.593-2.788 2.389-4.751 2.389-1.762 0-3.06-.625-3.897-1.875-.697-1.035-1.045-2.423-1.045-4.166a11.859 11.859 0 01.133-1.78c.317-2.31 1.052-4.196 2.205-5.66C181.655 5.838 183.341 5 185.393 5zm107.893 0c1.09 0 2.012.249 2.766.746.753.498 1.302 1.231 1.644 2.2l.304.832-4.238 1.492c.012-.063.019-.145.019-.246s-.038-.269-.114-.503a1.526 1.526 0 00-.304-.559.8.8 0 00-.609-.265c-.697 0-1.26.5-1.691 1.5-.292.697-.52 1.61-.684 2.737-.076.468-.127.81-.152 1.025a10.537 10.537 0 00-.114 1.368c0 .596.085 1.074.256 1.435.171.36.472.541.903.541.342 0 .694-.182 1.055-.545a2.26 2.26 0 00.656-1.252l.075-.497h-1.539l.513-3.204h5.835l-.247 1.46c-.342 2.225-1.02 4.007-2.034 5.346-1.204 1.593-2.787 2.389-4.751 2.389-1.762 0-3.06-.625-3.896-1.875-.697-1.035-1.046-2.423-1.046-4.166a11.834 11.834 0 01.133-1.78c.317-2.31 1.052-4.196 2.205-5.66C289.549 5.838 291.234 5 293.286 5zm-92.346.265l-.57 3.697h-3.612l-.342 2.047h3.193l-.57 3.697h-3.212L195.466 17h3.573l-.589 3.697h-7.678l2.47-15.432h7.698zm10.51 0l-.59 3.697h-2.394l-1.901 11.735h-4.219l1.9-11.735-2.29-.001.617-3.696h8.877zm15.622 0l-.589 3.697h-2.395l-1.901 11.735h-4.219l1.901-11.735-2.291-.001.618-3.696h8.876zm6.215 0c1.989 0 3.427.36 4.314 1.08.773.63 1.159 1.552 1.159 2.764 0 .379-.038.789-.114 1.23-.139.809-.399 1.515-.779 2.121a4.021 4.021 0 01-1.787 1.59l-.437.19 2.053 6.457h-4.485l-.59-2.56a254.84 254.84 0 01-.456-2.426 33.022 33.022 0 00-.247-1.346 81.573 81.573 0 00-.171 1.346c-.114.796-.241 1.611-.38 2.445-.064.43-.158.98-.285 1.65-.038.215-.095.511-.171.89h-4.181l2.489-15.43h4.068zm16.572 0l.875 15.432h-4.296v-1.953h-2.832l-.684 1.953h-4.276l6.12-15.432h5.093zm8.819 0c1.976 0 3.478.65 4.504 1.95.9 1.137 1.349 2.614 1.349 4.431 0 .416-.031.878-.094 1.382-.305 2.285-1.097 4.09-2.376 5.415-1.445 1.503-3.396 2.254-5.854 2.254h-3.725l2.452-15.432h3.744zm13.456 0l-2.528 15.432h-4.181l2.508-15.432h4.201zm6.366 0l.894 4.257.95 5.108.152-1.892c.114-1.374.221-2.522.323-3.443.063-.593.171-1.457.323-2.592.038-.353.102-.832.19-1.438h3.991l-2.451 15.432h-3.916a12.447 12.447 0 01-.17-.759c-.317-1.415-.52-2.35-.609-2.805a99.234 99.234 0 01-.627-3.47l-.304-1.914c-.076.77-.133 1.384-.171 1.839a73.744 73.744 0 01-.361 3.146 91.74 91.74 0 01-.418 2.617c-.051.329-.133.777-.247 1.346h-3.954l2.452-15.432h3.953zm-19.86 3.868h-.114L257.271 17h.133c.735 0 1.356-.415 1.863-1.245.418-.68.709-1.522.874-2.529.076-.44.114-.911.114-1.415 0-.792-.108-1.408-.323-1.849-.279-.553-.71-.83-1.292-.83zM246.666 9l-2.014 6.502h1.786L246.666 9zm-13.455-.474h-.362l-.608 3.848h.456c.457 0 .862-.22 1.217-.66.316-.39.519-.849.608-1.377.025-.176.038-.302.038-.377 0-.44-.13-.79-.39-1.047a1.306 1.306 0 00-.959-.387z" fill="#999"/><path d="M6.13 0v.03L16.314 13.5 0 26.97V27h16.474c4.807 0 8.979-3.373 10.06-8.136l1.363-6.008a10.63 10.63 0 00-1.98-8.894A10.261 10.261 0 0017.84 0H6.13z" fill="url(#prefix__paint0_linear_32779_294525)"/><path d="M16.308 13.527L9.144 27H0l16.308-13.473z" fill="#B51A31"/><path d="M139.883 0l3.62 18.88L153.67 0h6.254l-15.343 27h-5.123l-5.977-27h6.402zM49.931 0c8.279 0 13.01 5.782 11.703 13.327l-.014.076C60.31 20.95 53.57 26.81 45.282 26.81H35L39.647 0h10.284zm57.219 0c3.353 0 5.785.959 7.204 2.72 1.21 1.492 1.64 3.6 1.197 6.127l-.013.077c-.742 4.326-3.51 7.046-7.082 8.311l4.778 9.574h-6.781l-6.309-13.793h4.364c2.826 0 4.712-1.541 5.103-3.791l.014-.076c.438-2.523-1.069-3.825-3.895-3.825h-5.754l-3.727 21.485h-5.8L95.096 0h12.054zm21.621 0l-4.647 26.809h-5.802L122.971 0h5.8zm-39.4 0l-.911 5.247H74.336l-.945 5.438h9.118l-.91 5.247h-9.117l-.976 5.625h14.313l-.91 5.247H64.834L69.481 0h19.89zM49.008 5.324h-4.481l-2.804 16.161h4.484c4.744 0 8.51-3.255 9.334-8.005l.013-.077c.824-4.747-1.799-8.08-6.546-8.08z" fill="#fff"/><path d="M168.5 0v27" stroke="#fff"/><defs><linearGradient id="prefix__paint0_linear_32779_294525" x1="14.081" y1="0" x2="14.081" y2="27" gradientUnits="userSpaceOnUse"><stop stop-color="#FF6544"/><stop offset="1" stop-color="#FF4449"/></linearGradient></defs></svg>