<svg viewBox="0 0 64 64" fill="none" xmlns="http://www.w3.org/2000/svg"><g clip-path="url(#prefix__clip0_26153_90581)"><path d="M0 12C0 5.376 5.375 0 12 0h40c6.625 0 12 5.375 12 12v40c0 6.625-5.375 12-12 12H12C5.376 64 0 58.625 0 52V12z" fill="url(#prefix__paint0_linear_26153_90581)"/><path d="M0 12C0 5.376 5.375 0 12 0h40c6.625 0 12 5.375 12 12v40c0 6.625-5.375 12-12 12H12C5.376 64 0 58.625 0 52V12z" fill="url(#prefix__paint1_radial_26153_90581)"/><path d="M3 43.004V52c0 4.96 4.035 8.996 8.997 8.996h39.999c4.96 0 8.996-4.035 8.996-8.996v-8.997H3z" fill="#FFC71B"/><path d="M19.562 57.805V46.633h7.182v1.874H21.67v2.703h4.42v1.875h-4.42v4.72h-2.115.007zM28.332 57.805v-1.694h1.476v-7.777h-1.476V46.64h5.074v1.694h-1.49v7.777h1.49v1.694h-5.074zM38.766 52.076l-1.152-2.319h-.045v8.048h-2.003V46.633h2.32l3.357 5.729 1.152 2.319h.045v-8.048h2.003v11.172h-2.32l-3.357-5.73z" fill="#fff"/><path fill-rule="evenodd" clip-rule="evenodd" d="M35.097 8.887V8.88a7.038 7.038 0 014.54 2.652 7.2 7.2 0 011.48 5.09l-1.106 7.97a.776.776 0 01-.428.581.756.756 0 01-.716-.034l-1.467-.933a.769.769 0 01-.35-.749l.476-3.834a4.285 4.285 0 00-.599-2.631l-.171 1.119-1.03-.413a.754.754 0 00-.571.004.766.766 0 00-.408.405.76.76 0 00-.478.268.778.778 0 00-.178.523l.065 1.759a.778.778 0 00.453.663l1.266.56c-2.515.69-5.166.69-7.68 0l1.196-.471a.765.765 0 00.465-.683l.065-1.759a.778.778 0 00-.176-.504.76.76 0 00-.457-.268c-.194-.632-1.006-.459-1.006-.459l-.98.405-.183-1.11c-.278.435-.474.919-.58 1.427l-3.22 1.327-.217-1.258-.18-1.543a7.2 7.2 0 011.303-5.137 7.042 7.042 0 014.423-2.805 3.309 3.309 0 01.9-2.04 3.208 3.208 0 014.582-.082 3.282 3.282 0 01.967 1.967zm.023.332v.005-.005zm.018 1.043l.017.965c.015.87-.312 1.71-.909 2.336a3.223 3.223 0 01-2.274 1.001 3.22 3.22 0 01-2.308-.92 3.297 3.297 0 01-.99-2.3l-.015-.934-1.338 2.385 1.144.714-.602 1.157 3.545 2.36a.188.188 0 00.23-.017.193.193 0 00.044-.23l-1.185-2.518a3.193 3.193 0 002.938-.054l-1.101 2.561a.194.194 0 00.053.23.189.189 0 00.233.005l3.46-2.484-.643-1.157 1.143-.771-1.442-2.329zM30.515 8.47c.065-.166.163-.316.287-.443.243-.255.576-.403.926-.413V6.84a2.104 2.104 0 00-1.475.649c-.387.4-.601.94-.595 1.5h.762c-.003-.178.03-.355.095-.52zm2.772 11.212a.572.572 0 01-.34.544.553.553 0 01-.22.046h-1.483a.555.555 0 01-.52-.353.572.572 0 01-.04-.218v-.868a.572.572 0 01.344-.527.551.551 0 01.216-.044h1.483a.551.551 0 01.397.168.57.57 0 01.163.403v.849z" fill="#6CAD56"/><path d="M23.906 23.29l.355 1.58a.776.776 0 00.453.577.755.755 0 00.725-.07l1.437-.988a.77.77 0 00.327-.772l-.51-1.844-1.598.68c-.44.206-.843.49-1.189.836z" fill="#6CAD56"/><path d="M37.263 21.784l-2.051-.903a.777.777 0 01-.465-.683l-.069-1.759a.779.779 0 01.324-.66.757.757 0 01.724-.084l1.739.698c.079.404.1.817.06 1.227l-.262 2.164z" fill="#3E9AC7"/><path fill-rule="evenodd" clip-rule="evenodd" d="M43.091 20.732l-2.394-.992-.465 3.422a1.155 1.155 0 01.454 1.057l-.545-.386-.065.467c-.13.983-.698.983-.968.926a.816.816 0 01-.999-.035l-1.471-.938a.768.768 0 01-.351-.748l.103-.833s-2.733 2.002-3.941 7.24l1.322-1.08a.758.758 0 01.816-.096l1.563.771a.78.78 0 01.381.891.78.78 0 01-.156 1.003l-.934.78.175.563a4.195 4.195 0 01-2.523-.884l-2.962-2.437a.757.757 0 00-.79-.097l-1.566.772a.764.764 0 00-.426.6.78.78 0 00.27.688l6.099 5.15a6.995 6.995 0 009.666-1.063 3.208 3.208 0 002.159.21 3.247 3.247 0 001.993-1.49 3.3 3.3 0 00.369-2.484 3.291 3.291 0 00-1.192-1.823 7.216 7.216 0 00.005-5.306 7.1 7.1 0 00-3.627-3.848zm2.465 8.428l-1.287-2.407-1.212.613-.66-1.157-3.853 1.775a.193.193 0 00-.127.077.197.197 0 00.04.273c.042.03.093.043.144.035l2.728.326a3.21 3.21 0 013.398-.04l.83.505zm-5.73 2.084l-1.56-2.311a.191.191 0 00-.219-.073.194.194 0 00-.129.192l.248 4.278 1.3.054.034 1.4h2.721l-.83-.506a3.254 3.254 0 01-.937-.86 3.297 3.297 0 01-.628-2.174zm-1.9-4.452l-.625 1.358a.577.577 0 01-.325.298.561.561 0 01-.437-.024l-.763-.386a.573.573 0 01-.27-.752l.625-1.358a.57.57 0 01.323-.303.558.558 0 01.44.025l.762.386c.134.064.238.18.289.321a.578.578 0 01-.019.435zm8.898 6.832l-.657-.384c.177-.31.225-.68.134-1.026a1.352 1.352 0 00-.621-.822l.38-.667c.481.283.831.747.974 1.291a2.148 2.148 0 01-.21 1.608z" fill="#3E9AC7"/><path fill-rule="evenodd" clip-rule="evenodd" d="M27.496 31.26a.777.777 0 01-.046-.888.78.78 0 01.416-.852l1.562-.772a.755.755 0 01.812.096l1.285 1.061c-1.338-5.146-4.09-7.22-4.09-7.22l.312 1.13a.78.78 0 01-.324.77l-1.437.988a.755.755 0 01-.941-.07.755.755 0 01-.467-.128.769.769 0 01-.296-.388l-.19-1.068-.785.304c.38-.968 1.086-1.439 1.955-1.84l3.518-1.5a.764.764 0 00.465-.683l.065-1.76a.78.78 0 00-.325-.663.757.757 0 00-.727-.08l-7.353 3.027a7.104 7.104 0 00-3.615 3.842 7.22 7.22 0 00.002 5.305 2.74 2.74 0 01.278-.19l.857-.524 1.304-2.43 1.224.613.655-1.157 3.858 1.794c.05.007.096.035.126.076a.197.197 0 01-.04.273.191.191 0 01-.143.036l-2.74.317c.437.27.804.642 1.07 1.086.265.444.42.946.454 1.463l1.567-2.314a.19.19 0 01.346.12l-.274 4.3-1.3.043-.034 1.37h-2.668l.777-.473c.365-.222.684-.515.937-.861a3.3 3.3 0 00.6-2.439 3.308 3.308 0 00-.428-1.205 3.251 3.251 0 00-1.995-1.492 3.215 3.215 0 00-2.453.37l-1.7 1.037a3.25 3.25 0 00-.936.86 3.292 3.292 0 00-.598 2.434 3.3 3.3 0 00.428 1.204 3.247 3.247 0 001.993 1.493 3.209 3.209 0 002.157-.209 6.996 6.996 0 009.676 1.062l1.72-1.446-4.514-3.823zm-.519-3.002l-.625-1.358a.568.568 0 01.27-.771l.763-.367a.561.561 0 01.63.092c.056.051.1.113.133.182l.625 1.358a.575.575 0 01-.27.772l-.763.385a.558.558 0 01-.634-.104.572.572 0 01-.129-.189zm-9.198 4c.023-.175.08-.345.168-.499.18-.308.471-.532.812-.625l-.198-.744a2.108 2.108 0 00-1.273.992 2.152 2.152 0 00-.21 1.611l.736-.208a1.36 1.36 0 01-.035-.526z" fill="#D7CB3B"/><path d="M34.891 32.663l1.502-1.288a.772.772 0 00.271-.686.777.777 0 00-.424-.602l-1.566-.772a.755.755 0 00-.812.096l-1.872 1.543 1.11.915a3.933 3.933 0 001.791.794z" fill="#D7CB3B"/></g><defs><radialGradient id="prefix__paint1_radial_26153_90581" cx="0" cy="0" r="1" gradientUnits="userSpaceOnUse" gradientTransform="matrix(0 -97 97 0 32 25)"><stop offset=".196" stop-color="#F1F2F2"/><stop offset=".552" stop-color="#C1D2D2"/></radialGradient><linearGradient id="prefix__paint0_linear_26153_90581" x1="32.004" y1="64" x2="32.004" y2="0" gradientUnits="userSpaceOnUse"><stop stop-color="#9F9F9F"/><stop offset=".49" stop-color="#F1F2F2"/></linearGradient><clipPath id="prefix__clip0_26153_90581"><path fill="#fff" d="M0 0h64v64H0z"/></clipPath></defs></svg>