<svg width="64" height="64" viewBox="0 0 64 64" fill="none" xmlns="http://www.w3.org/2000/svg"><g clip-path="url(#clip0_34837_163603)"><path d="M0 46H64V52C64 58.6274 58.6274 64 52 64H12C5.37258 64 0 58.6274 0 52V46Z" fill="#2A3052"/><path d="M53.3889 46H0V12.3495L59.8289 2.90625C60.2697 3.28597 60.6825 3.69719 61.0639 4.1364L53.3889 46Z" fill="#0364B9"/><path d="M0 12C0 5.37258 5.37258 0 12 0H52C54.9916 0 57.7275 1.09559 59.8289 2.90625L0 12.3495V12Z" fill="#0A559E"/><path d="M53.3889 46L61.0639 4.1364C62.8929 6.24253 64 8.99153 64 12V46H53.3889Z" fill="#0A559E"/><path d="M14.6844 19.368C14.9724 19.896 15.3004 20.552 15.6684 21.336C16.0524 22.104 16.4444 22.944 16.8444 23.856C17.2604 24.752 17.6684 25.672 18.0684 26.616C18.4684 27.56 18.8444 28.448 19.1964 29.28C19.5484 28.448 19.9244 27.56 20.3244 26.616C20.7244 25.672 21.1244 24.752 21.5244 23.856C21.9404 22.944 22.3324 22.104 22.7004 21.336C23.0844 20.552 23.4204 19.896 23.7084 19.368H27.1164C27.2764 20.472 27.4204 21.712 27.5484 23.088C27.6924 24.448 27.8124 25.872 27.9084 27.36C28.0204 28.832 28.1164 30.312 28.1964 31.8C28.2924 33.288 28.3724 34.688 28.4364 36H24.7884C24.7404 34.384 24.6764 32.624 24.5964 30.72C24.5164 28.816 24.3964 26.896 24.2364 24.96C23.9484 25.632 23.6284 26.376 23.2764 27.192C22.9244 28.008 22.5724 28.824 22.2204 29.64C21.8844 30.456 21.5564 31.24 21.2364 31.992C20.9164 32.728 20.6444 33.36 20.4204 33.888H17.8044C17.5804 33.36 17.3084 32.728 16.9884 31.992C16.6684 31.24 16.3324 30.456 15.9804 29.64C15.6444 28.824 15.3004 28.008 14.9484 27.192C14.5964 26.376 14.2764 25.632 13.9884 24.96C13.8284 26.896 13.7084 28.816 13.6284 30.72C13.5484 32.624 13.4844 34.384 13.4364 36H9.78844C9.85244 34.688 9.92444 33.288 10.0044 31.8C10.1004 30.312 10.1964 28.832 10.2924 27.36C10.4044 25.872 10.5244 24.448 10.6524 23.088C10.7964 21.712 10.9484 20.472 11.1084 19.368H14.6844Z" fill="white"/><path d="M42.7091 19.368V22.56H37.6931V36H33.9491V22.56H28.9331V19.368H42.7091Z" fill="white"/><path d="M50.6353 31.104C50.6353 30.64 50.5313 30.232 50.3233 29.88C50.1153 29.512 49.7553 29.208 49.2433 28.968C48.7313 28.728 48.0433 28.544 47.1793 28.416C46.3153 28.288 45.2273 28.224 43.9153 28.224C44.0913 26.736 44.2353 25.224 44.3473 23.688C44.4593 22.152 44.5473 20.712 44.6113 19.368H53.6113V22.368H47.6113C47.5793 22.944 47.5393 23.504 47.4913 24.048C47.4593 24.576 47.4193 25.04 47.3713 25.44C49.7073 25.6 51.4273 26.152 52.5313 27.096C53.6513 28.024 54.2113 29.32 54.2113 30.984C54.2113 31.752 54.0753 32.464 53.8033 33.12C53.5313 33.776 53.1233 34.344 52.5793 34.824C52.0353 35.304 51.3473 35.68 50.5153 35.952C49.6993 36.224 48.7393 36.36 47.6353 36.36C47.2033 36.36 46.7473 36.328 46.2673 36.264C45.8033 36.216 45.3473 36.144 44.8993 36.048C44.4673 35.968 44.0753 35.88 43.7233 35.784C43.3713 35.688 43.0993 35.592 42.9073 35.496L43.5553 32.544C43.9553 32.72 44.4833 32.896 45.1393 33.072C45.7953 33.232 46.5793 33.312 47.4913 33.312C48.5953 33.312 49.3953 33.096 49.8913 32.664C50.3873 32.216 50.6353 31.696 50.6353 31.104Z" fill="white"/><path d="M21.7422 57.6283C21.8302 57.6363 21.9302 57.6443 22.0422 57.6523C22.1622 57.6523 22.3022 57.6523 22.4622 57.6523C23.3982 57.6523 24.0902 57.4163 24.5382 56.9443C24.9942 56.4723 25.2222 55.8203 25.2222 54.9883C25.2222 54.1163 25.0062 53.4563 24.5742 53.0083C24.1422 52.5603 23.4582 52.3363 22.5222 52.3363C22.3942 52.3363 22.2622 52.3403 22.1262 52.3483C21.9902 52.3483 21.8622 52.3563 21.7422 52.3723V57.6283ZM27.1542 54.9883C27.1542 55.7083 27.0422 56.3363 26.8182 56.8723C26.5942 57.4083 26.2742 57.8523 25.8582 58.2043C25.4502 58.5563 24.9502 58.8203 24.3582 58.9963C23.7662 59.1723 23.1022 59.2603 22.3662 59.2603C22.0302 59.2603 21.6382 59.2443 21.1902 59.2123C20.7422 59.1883 20.3022 59.1323 19.8702 59.0443V50.9443C20.3022 50.8643 20.7502 50.8123 21.2142 50.7883C21.6862 50.7563 22.0902 50.7403 22.4262 50.7403C23.1382 50.7403 23.7822 50.8203 24.3582 50.9803C24.9422 51.1403 25.4422 51.3923 25.8582 51.7363C26.2742 52.0803 26.5942 52.5203 26.8182 53.0563C27.0422 53.5923 27.1542 54.2363 27.1542 54.9883Z" fill="white"/><path d="M31.1538 50.7403C32.4018 50.7403 33.3578 50.9643 34.0218 51.4123C34.6858 51.8523 35.0178 52.5403 35.0178 53.4763C35.0178 54.0603 34.8818 54.5363 34.6098 54.9043C34.3458 55.2643 33.9618 55.5483 33.4578 55.7563C33.6258 55.9643 33.8018 56.2043 33.9858 56.4763C34.1698 56.7403 34.3498 57.0203 34.5258 57.3163C34.7098 57.6043 34.8858 57.9083 35.0538 58.2283C35.2218 58.5403 35.3778 58.8483 35.5218 59.1523H33.4218C33.2698 58.8803 33.1138 58.6043 32.9538 58.3243C32.8018 58.0443 32.6418 57.7723 32.4738 57.5083C32.3138 57.2443 32.1538 56.9963 31.9938 56.7643C31.8338 56.5243 31.6738 56.3083 31.5138 56.1163H30.5898V59.1523H28.7178V50.9563C29.1258 50.8763 29.5458 50.8203 29.9778 50.7883C30.4178 50.7563 30.8098 50.7403 31.1538 50.7403ZM31.2618 52.3363C31.1258 52.3363 31.0018 52.3403 30.8898 52.3483C30.7858 52.3563 30.6858 52.3643 30.5898 52.3723V54.6283H31.1178C31.8218 54.6283 32.3258 54.5403 32.6298 54.3643C32.9338 54.1883 33.0858 53.8883 33.0858 53.4643C33.0858 53.0563 32.9298 52.7683 32.6178 52.6003C32.3138 52.4243 31.8618 52.3363 31.2618 52.3363Z" fill="white"/><path d="M39.0179 59.1523C38.6899 58.4563 38.3659 57.7323 38.0459 56.9803C37.7259 56.2283 37.4219 55.4843 37.1339 54.7483C36.8459 54.0123 36.5779 53.3083 36.3299 52.6363C36.0899 51.9643 35.8819 51.3643 35.7059 50.8363H37.7699C37.9299 51.3163 38.1019 51.8363 38.2859 52.3963C38.4779 52.9483 38.6699 53.5003 38.8619 54.0523C39.0619 54.6043 39.2539 55.1323 39.4379 55.6363C39.6219 56.1403 39.7939 56.5763 39.9539 56.9443C40.1059 56.5763 40.2739 56.1403 40.4579 55.6363C40.6499 55.1323 40.8419 54.6043 41.0339 54.0523C41.2339 53.5003 41.4259 52.9483 41.6099 52.3963C41.8019 51.8363 41.9779 51.3163 42.1379 50.8363H44.1299C43.9459 51.3643 43.7339 51.9643 43.4939 52.6363C43.2539 53.3083 42.9899 54.0123 42.7019 54.7483C42.4139 55.4843 42.1099 56.2283 41.7899 56.9803C41.4699 57.7323 41.1459 58.4563 40.8179 59.1523H39.0179Z" fill="white"/></g><defs><clipPath id="clip0_34837_163603"><rect width="64" height="64" fill="white"/></clipPath></defs></svg>