<svg width="32" height="32" viewBox="0 0 32 32" xmlns="http://www.w3.org/2000/svg"><title>Artboard</title><g fill="none" fill-rule="evenodd"><path d="M11 27a2 2 0 0 1-2 2H7a2 2 0 0 1-2-2v-7.17A3.001 3.001 0 0 1 3 17v-6a3 3 0 0 1 3-3h4a3 3 0 0 1 3 3v6a3.001 3.001 0 0 1-2 2.83V27zM8 9a3 3 0 1 1 0-6 3 3 0 0 1 0 6z" fill="#F2F2F2" fill-rule="nonzero"/><path d="M10 19a2 2 0 0 0 2-2v-6a2 2 0 0 0-2-2H6a2 2 0 0 0-2 2v6a2 2 0 0 0 2 2v8a1 1 0 0 0 1 1h2a1 1 0 0 0 1-1v-8zM8 8a2 2 0 1 0 0-4 2 2 0 0 0 0 4z" fill="#293055"/><path d="M27 27a2 2 0 0 1-2 2h-2a2 2 0 0 1-2-2v-7.17A3.001 3.001 0 0 1 19 17v-6a3 3 0 0 1 3-3h4a3 3 0 0 1 3 3v6a3.001 3.001 0 0 1-2 2.83V27zM24 9a3 3 0 1 1 0-6 3 3 0 0 1 0 6z" fill="#F2F2F2" fill-rule="nonzero"/><path d="M26 19a2 2 0 0 0 2-2v-6a2 2 0 0 0-2-2h-4a2 2 0 0 0-2 2v6a2 2 0 0 0 2 2v8a1 1 0 0 0 1 1h2a1 1 0 0 0 1-1v-8zM24 8a2 2 0 1 0 0-4 2 2 0 0 0 0 4z" fill="#293055"/><path d="M23 27a2 2 0 0 1-2 2h-2a2 2 0 0 1-2-2v-7.17A3.001 3.001 0 0 1 15 17v-6a3 3 0 0 1 3-3h4a3 3 0 0 1 3 3v6a3.001 3.001 0 0 1-2 2.83V27zM20 9a3 3 0 1 1 0-6 3 3 0 0 1 0 6z" fill="#F2F2F2" fill-rule="nonzero"/><path d="M22 19a2 2 0 0 0 2-2v-6a2 2 0 0 0-2-2h-4a2 2 0 0 0-2 2v6a2 2 0 0 0 2 2v8a1 1 0 0 0 1 1h2a1 1 0 0 0 1-1v-8zM20 8a2 2 0 1 0 0-4 2 2 0 0 0 0 4z" fill="#293055"/><path d="M15 27a2 2 0 0 1-2 2h-2a2 2 0 0 1-2-2v-7.17A3.001 3.001 0 0 1 7 17v-6a3 3 0 0 1 3-3h4a3 3 0 0 1 3 3v6a3.001 3.001 0 0 1-2 2.83V27zM12 9a3 3 0 1 1 0-6 3 3 0 0 1 0 6z" fill="#F2F2F2" fill-rule="nonzero"/><path d="M14 19a2 2 0 0 0 2-2v-6a2 2 0 0 0-2-2h-4a2 2 0 0 0-2 2v6a2 2 0 0 0 2 2v8a1 1 0 0 0 1 1h2a1 1 0 0 0 1-1v-8zM12 8a2 2 0 1 0 0-4 2 2 0 0 0 0 4z" fill="#293055"/><path d="M19 27a2 2 0 0 1-2 2h-2a2 2 0 0 1-2-2v-7.17A3.001 3.001 0 0 1 11 17v-6a3 3 0 0 1 3-3h4a3 3 0 0 1 3 3v6a3.001 3.001 0 0 1-2 2.83V27zM16 9a3 3 0 1 1 0-6 3 3 0 0 1 0 6z" fill="#F2F2F2" fill-rule="nonzero"/><path d="M18 19a2 2 0 0 0 2-2v-6a2 2 0 0 0-2-2h-4a2 2 0 0 0-2 2v6a2 2 0 0 0 2 2v8a1 1 0 0 0 1 1h2a1 1 0 0 0 1-1v-8zM16 8a2 2 0 1 0 0-4 2 2 0 0 0 0 4z" fill="#E98024"/></g></svg>