<svg xmlns="http://www.w3.org/2000/svg"><defs><font id="casino_handregular" horiz-adv-x="985"><font-face units-per-em="2048" ascent="1638" descent="-410"/><glyph unicode="AE" horiz-adv-x="1480" d="M-47.5 69.5Q-64 101-45 137q326 619 580 1196 4 11 9 18.5t13.5 11.5 13.5 6.5 17.5 2.5H604l18-2 15-2q66-13 76-88 0-8 1-18t1-13q76-12 368-30 17-1 57-3.5t65-4.5 62-7 68-12q17-5 28-16.5t11-26.5q0-22-16-37t-41-20q-152-19-266-19-24 0-167.5 3.5T727 1075q8-123 8-311 59 7 150 15t163.5 16 137.5 22q78 7 78-43 0-25-22-45t-62-41q-38-16-228-46.5T739 596q0-39 1.5-68.5t6.5-74 16.5-76.5 30-63 49.5-47.5 72-16.5l476 176q15 0 24.5-13.5t9.5-35.5q0-35-18.5-63t-50.5-40q-45-14-111.5-46.5t-119.5-62-116.5-52.5T897 90q-58 0-104 19-56 31-97 79t-62.5 102.5T602 395t-10 97q-68-13-146-13-77 0-122 17-19-41-49-104t-95.5-184T82 53Q50 25-2 31q-29 7-45.5 38.5zM387 639q62-8 94-8 63 0 111 12v47q-4 75-4.5 183.5t-3 159T573 1085q-10 2-34-54.5T468 848t-81-209z"/><glyph unicode="ae" horiz-adv-x="1699" d="M53 406q0 59 20 128t57.5 135.5 101 118T373 854q64 12 120 4.5t94-23.5l38-16q2 2 6 5t16.5 11.5 24 15 26.5 14 27.5 10.5 24 1 18.5-10q19-19 11.5-80.5t-24-119.5T722 539.5 705 438q0-59 48-99t97-40q31 0 69 12.5t60 25.5l22 13q-26 117-26 217 0 74 31 139.5t79 108.5 106 67.5 114 24.5q105 0 173-65t68-168q0-203-301-371 47-61 89.5-91t90.5-30q32 0 60 14.5t45 31.5 39.5 31.5T1614 274q17 0 37-12t20-35q0-40-46-83.5t-112-71T1389 45q-108 0-189 49.5T1075 215q-11-7-31.5-17T956 171t-137-17q-82 0-156 45T547 324q-10-7-41.5-30t-43-30.5-38.5-25-43.5-24-40.5-16-47-13-47-3.5q-80 0-136.5 69T53 406zm166 59q0-41 29.5-69.5T307 367q83 0 159 81t95 232q-61 41-131 41-55 0-97.5-26t-66-66.5T231 546t-12-81zm924 90q0-92 24-123 33 16 68 40.5t70.5 56.5 58 72.5T1386 680q0 33-24.5 63.5T1294 774q-72 0-111.5-68.5T1143 555z"/><glyph unicode="OE" horiz-adv-x="1536" d="M55 578q12 496 183 751 10 15 21.5 24.5t24.5 13 21.5 4.5 24.5 1q39-1 53-29t10-67q0-26-16-45l14 2q12 0 31-11.5t20-23.5q13-17 53.5-70.5t61-81T608 974t54-83q23 255 40 344 4 8 10.5 20.5T740 1288t42 19q16-1 37.5-19t34.5-36l14-17q31 0 136 1t167 1q144 0 224.5-11t83.5-46q2-45-54-56-88-16-200-25.5t-171-11-204-4.5q-16-69-24.5-172T816 740l-1-68q92 0 213.5 23t210.5 59q40 15 84 9.5t47-36.5q6-44-49-83t-137.5-64-165.5-43.5T876 510l-59-8q0-7 .5-19t3-46.5 7-66T842 301t23-65.5 34-46.5 47-19q181 0 402 137 51 27 83.5 9t32.5-52q0-37-32-63-114-84-269-157T885-29q-129 0-193 193-61-64-143.5-99T379 31q-67 1-120.5 26.5t-88 69.5-58.5 97-36 117.5T59 462t-4 116zm172-68q-1-51 9.5-101t32.5-95.5 62.5-74.5 92.5-30q103-1 159.5 75.5T643 467q1 79-35 172.5t-81 164T421.5 969 332 1122q-64-159-83-284.5T227 510z"/><glyph unicode="oe" horiz-adv-x="1411" d="M53 301q0 64 16.5 132.5T118 566t76 115 104 81.5T424 793q42 0 78.5-16.5t68.5-44 64.5-58 81.5-66T821 549v19.5l4.5 48L839 684l29 71.5 47.5 68 73.5 48 103 19.5q90 0 168.5-115.5T1339 514q0-107-57-165t-160-58q-12 0-84 10 75-146 195-174 4-1 27-6t35-9 29.5-11.5 25.5-19 8-26.5q0-27-41-42t-78-15q-62 0-128 36.5T994 126t-89.5 115T850 352q-113 51-201 123-17-190-123.5-318T272 29q-102 0-160.5 81T53 301zm160 49q0-186 63-186 91 0 152 84t61 207q0 69-31.5 132.5T379 651q-49 0-89-60t-58.5-127.5T213 350zm757 175q1-28 5-44 50-41 112-41 44 0 71.5 25t27.5 78q0 70-28.5 133t-57.5 63q-40 0-68-22.5t-40-55-17.5-70.5-4.5-66z"/><glyph unicode="ﬁ" horiz-adv-x="1101" d="M-29 696q0 24 16.5 41T37 763.5t63 14 74 8.5q88 11 90 17-8 43-8 145 0 94 8.5 190.5t29 195T344 1507t78 121 106 43q62-1 123.5-50t104-118.5 68.5-146 24-133.5q-2-50-24.5-80.5T766 1112t-54.5 24-21.5 64q-5 106-46 196.5t-95 90.5q-43 0-77-94t-50-225-16-265q0-59 6-88 161 10 233 25 35 3 62-12t20-42q-5-22-56-41t-130-40-117-37q4-56 16-212t17.5-261T465-18q0-30-22.5-54T393-92q-31 0-57 27.5T307-4q-15 202-39 647-115-27-215-27-37 0-59.5 22.5T-29 696zm838-256q3 180 18 316 6 13 25.5 21.5T893 784q27 0 45-16.5t18-46.5q-6-79-6-168 0-260 68-455 10-29-2.5-47.5T977 25q-25-12-49-6t-33 28q-44 78-68 191.5T809 440z"/><glyph unicode="ﬂ" horiz-adv-x="1394" d="M-16 692q0 50 46 65.5T174 768l90-4q-8 39-8 184 0 72 2 134.5t8 139.5 16 139 27.5 122.5 41 101T409 1649t78 22q81-2 148.5-75.5t101-168.5 31.5-176q-2-51-24.5-82.5T686 1137q-67 0-74 90-20 260-106 260-100 0-100-637 0-71 6-96 32-3 79 2.5t105 20 115 44T815.5 890t77 101.5T922 1126v17q0 173-2 243 0 24 20 44t49 20q63 0 105.5-44t48.5-116.5-33-165.5q-29-350-29-446 0-114 4-201t11.5-146 18.5-99.5 25-62 31-33 36.5-12 41.5.5 48 28.5 40 28.5q18 3 24.5-12.5t6.5-36.5q0-49-54-110.5T1186-39q-55 0-97 20t-69.5 60-46 88.5-27.5 117T933.5 379 930 526q0 227 6 346-39-74-105-129.5T691 658t-140.5-43T424 600q6-82 16.5-201T457 184.5 465-18q0-30-22.5-54T393-92q-31 0-57 27.5T307-4q-24 335-39 604-129 0-215 12-69 8-69 80z"/><glyph unicode="ﬃ" horiz-adv-x="1716" d="M-29 696q0 24 16.5 41T37 763.5t63 14 74 8.5q5 1 15.5 2t18.5 2 18 2 16.5 2 12.5 2 8.5 2 .5 1q-8 43-8 145 0 94 8.5 190.5t29 195.5 50.5 174.5 78 122.5 106 44q81-2 151.5-83t106-183 33.5-182q-2-50-24.5-80.5T737 1112q-66 0-73 88-3 54-11 101.5t-21 91-34.5 69T549 1487q-43 0-77-94t-50-225-16-265q0-59 6-88l460 51q-1 105 28.5 245t76.5 267 114 215 132 88q64 0 118-21t91.5-56.5 67-82 47.5-97.5 30.5-102 18-97.5 8-82 2.5-56.5v-21q-2-45-28.5-74t-68.5-28q-33 1-61 30.5t-25 57.5q0 179-18.5 280t-53.5 139.5-94 38.5q-52 0-96-61.5t-71.5-156T1047 1092t-15-199q65 8 174 8 54 0 54-47 0-20-14.5-34.5T1192 786q-29-11-71.5-23t-70.5-18l-28-6q-2-138 6-247 7-109 36-284t30-202q3-34-22.5-61T1012-82q-12 0-37 10-32 55-54 129.5T888 224t-15.5 154-8.5 157q-3 60 2 178-204-33-440-62 4-59 12-166.5T450.5 314t9-155.5T465-18q0-30-22.5-54T393-92q-31 0-57 27.5T307-4q-16 220-39 641-89-21-215-21-37 0-59.5 22.5T-29 696zm1446-256q3 164 25 297 1 18 21.5 33.5T1503 784q27 0 45.5-16.5T1567 721q-4-106-4-168 0-247 67-455 14-59-43-73-25-12-48.5-6T1505 47q-43 77-67 190t-21 203z"/><glyph unicode="ﬄ" horiz-adv-x="2037" d="M-29 696q0 24 16.5 41T37 763.5t63 14 74 8.5q5 1 15.5 2t18.5 2 18 2 16.5 2 12.5 2 8.5 2 .5 1q-8 43-8 145 0 94 8.5 190.5t29 195.5 50.5 174.5 78 122.5 106 44q81-2 151.5-83t106-183 33.5-182q-2-50-24.5-80.5T737 1112q-66 0-73 88-3 54-11 101.5t-21 91-34.5 69T549 1487q-43 0-77-94t-50-225-16-265q0-59 6-88 107 13 229.5 20t192.5 8l69 1q-4 41-4 200 0 86 3 158.5t10.5 162T936 1522t40 127.5 62.5 90.5 87.5 29q82-2 150.5-75.5t102.5-169 32-176.5q-1-49-25-81t-57-32q-34 0-53 25t-21 65q-16 260-108 260-100 0-100-637 0-73 4-98 33-2 80 4.5t106.5 21.5 116 44.5T1458 990t77.5 101.5T1565 1227v12q0 176-2 246 0 26 19 44.5t50 18.5q62 0 104-44t48-116-35-165q-29-351-29-449 0-113 4.5-199.5T1736 429t20-99 25.5-62 32-33 35.5-13.5 41-.5q23 1 48 29.5t40 30.5q18 1 26.5-15t8.5-35q0-48-55-111t-127-63q-55 0-97 20.5t-70 61-46.5 90-28 118-13 133T1573 627q0 223 6 348-39-75-105-131t-140.5-85.5-141-43.5-125.5-15q4-52 20.5-265.5T1110 80q0-31-24-55t-50-21q-33 0-58.5 28T950 92q-37 516-41 588-247 0-483-29 4-59 12-166.5T450.5 314t9-155.5T465-18q0-30-22.5-54T393-92q-31 0-57 27.5T307-4q-16 220-39 641-89-21-215-21-37 0-59.5 22.5T-29 696z"/><glyph horiz-adv-x="2048"/><glyph horiz-adv-x="2048"/><glyph horiz-adv-x="2048"/><glyph horiz-adv-x="532"/><glyph horiz-adv-x="532"/><glyph horiz-adv-x="532"/><glyph unicode="!" horiz-adv-x="540" d="M166 1315q0 38 19 61t40 23q52 0 78.5-56t26.5-135q1-32 5.5-165t4.5-207q0-439-66-439-35 0-61 173.5T176.5 945 166 1315zm4-1198q0 34 20.5 51.5T246 186q129 0 129-102 0-32-33.5-58T274 0q-27 0-65.5 43.5T170 117z"/><glyph unicode="&quot;" horiz-adv-x="559" d="M102 1067q0 17 16.5 24t35.5 7q30 0 46-16.5t19.5-36T223 995l4-207v-35l-.5-18.5-2-20-4-17.5-7-16.5-10-12-13.5-9-18-2.5q-26 0-42.5 27.5t-21 56.5-4.5 58zm244-39q0 19 9.5 32t27.5 13q41 0 56.5-56.5T455 858v-67l-1-16.5-2.5-16L448 737l-6-26q-3-25-18-44t-37-20q-18-1-28.5 17T348 698z"/><glyph unicode="#" horiz-adv-x="1341" d="M55 440q2 80 105 80 11 0 49.5-2t64.5-2q33 0 93 6l36 197q-93-28-141-19-34 2-53.5 14T190 756q2 28 13 47t26 29 40.5 16.5 47 8.5 56.5 5.5 59 7.5q12 51 32.5 196.5T512 1290q11 35 53 35 55-3 70.5-27.5T649 1219q-3-114-31-308 32 8 73.5 14.5T758 935l26 3q9 48 25 177.5t18 141.5q27 85 88 82 43-3 56.5-29.5T983 1237q-2-42-17.5-139T946 958l164 5q80 0 135-17 45-13 39-59-1-33-23-51.5t-55-16.5q-56 0-160-6t-135-14l-20-246q31 2 131 2 69 0 96-2 18 0 28.5-15.5T1157 502q0-55-81.5-83.5T868 387q0-49-18-278-2-57-12-72-12-20-47-19-113 10-113 181 0 41 6 86t12 69l6 25-204-23q-6-25-6-82 0-44-5-186-2-37-17.5-63T420 0Q300 3 303 141q1 36 13 110t14 99q-16 0-65.5-1.5T186 348q-26 1-46 4.5T98.5 365t-33 28T55 440zm480 86q44 6 92.5 10.5T702 542l27 1 31 248q-25-2-68.5-11T617 762l-31-8q-7-10-24-88t-27-140z"/><glyph unicode="$" horiz-adv-x="851" d="M84 827q3 62 57.5 112t121.5 74 124 25q-8 68-8 199 0 27 6.5 53.5t25.5 49 46 22.5q29-1 45.5-17.5t20-35.5 3.5-49l9-216q5-1 12.5-3t26.5-9.5 34-17.5 27-27.5 12-38.5q0-28-10-41-32-38-71-52.5T469 840q-33 0-74 15t-43 15q-21 3-52.5-16T268 813q0-27 28-50t72-41 98-35.5 107-39 97.5-47T742 537t26-84q-1-39-24.5-70t-56-47-65-26-54.5-12l-23-3 22-338q0-16-20-27.5T512-82q-57 3-83 39.5T403 51q18 168 27 230-26 0-72-6.5t-69-6.5q-44 0-73.5 26T186 362q0 25 16.5 53.5T244 444q12 0 27.5-12t27.5-16q30-15 145-15 80 0 133.5 14.5T631 461q0 19-41 39.5T488 539t-132 45.5T224 643t-101 79-39 105z"/><glyph unicode="%" horiz-adv-x="1212" d="M82 965q0 60 35.5 133.5T213 1226t119 54q209 0 209-268 0-92-85.5-169T276 766q-78 0-136 61T82 965zM219-47q51 189 280.5 680.5T823 1282q3 6 15 11t24 5q27 0 47.5-18t8.5-45Q645 601 299-98q-9-21-37-21-32 0-41.5 20.5T219-47zm6 1020q0-25 17-43.5t41-18.5q61 0 108 52t47 112q0 72-63 72-56 0-103-60t-47-114zm420-778q0 87 37.5 188.5T780 556t117 71q60 0 106-31t73-82 40.5-110.5T1130 281q0-107-93.5-202T836-16q-79 0-135 65.5T645 195zm148 22q0-31 21-58.5t50-27.5q60 0 109 73.5t49 135.5q0 33-6 65t-24.5 59-45.5 28q-37 2-68-33t-48.5-84.5-27-92.5-9.5-65z"/><glyph unicode="&amp;" horiz-adv-x="1130" d="M137 262q0 161 135 311-2 3-14 22.5T243 620t-13.5 24-14.5 27-12.5 26.5-12 29.5-9.5 29.5-8.5 33T168 822t-2 36q0 76 56.5 159t139 146 179 104.5T713 1309q80 0 129-33.5t49-104.5q0-90-88-221-69-102-147.5-199T533 608l-44-47q71-110 160-184 21 14 82 71.5T849.5 549t96.5 43q43 0 43-21 0-40-66.5-132.5T791 283q76-61 149-76 7-2 25-7t26-8 21-10 19-14.5 11-20.5 5-30q0-50-25.5-79.5T952 8q-47 0-88 10.5t-77.5 33-59 40T672 139q-6-5-17-13.5T612 96t-62-37-68.5-29.5T412 16q-112 0-193.5 69.5T137 262zm170 33q0-43 27.5-74t66.5-31q29 0 62.5 15.5T516 236l19 16Q421 352 371 442q-27-23-45.5-63T307 295zm21 555q0-29 17-70t35-68l17-26q7 5 18.5 15.5t46 45 67.5 73 74.5 98T678 1038q19 37 3 59.5t-56 22.5q-107 0-202-80.5T328 850z"/><glyph unicode="'" horiz-adv-x="399" d="M109 1362q0 28 16 55t43 27q33 0 59-38t39-93.5 19-103 6-79.5q0-22-5-58.5t-14.5-80-28-74T201 887q-32 0-51 25t-19 51l10 213q0 45-16 104t-16 82z"/><glyph unicode="(" horiz-adv-x="714" d="M109 455q0 84 6.5 171t22 194.5 46.5 204 74.5 183.5 111 150 150.5 88q50 7 66-2 13-10 16.5-24t-6.5-25q-334-225-334-869 0-524 350-653 23-8 35-24t12-27q0-23-13-36t-34-13q-108 0-195 40T273.5-81.5 179 73.5t-54 184T109 455z"/><glyph unicode=")" horiz-adv-x="714" d="M53 1401q0 23 14 38t33 15q109 0 196-40t143-106 93.5-156T586 967.5 602 770q0-71-4-144t-16-165-30.5-175T501 118 428-33 327-149.5 195-221q-48-7-66 2-15 8-18.5 23.5T119-172Q455 52 455 696q0 525-355 652-23 11-35 27t-12 26z"/><glyph unicode="*" horiz-adv-x="960" d="M82 1171q1 26 20 43t41 17q32 0 66-21.5t58.5-48 54.5-58 51-44.5q6 39 6 115 0 20-1.5 83.5T377 1360q0 11 14 22.5t27 10.5q58 0 67-103 5-26 8-87.5t9-88.5q6 7 43.5 57.5t70 79.5 62.5 29q20 0 33.5-19.5T725 1217q-1-33-27.5-72.5t-58.5-71-61.5-70.5-36.5-69q23-26 50-43.5t63.5-26 60.5-12 72-7 67-5.5q23-6 23-41 0-48-37-60-43-14-95-14-94 0-206 68-5-42 18-102t21-97q0-22-15.5-35T522 547q-55 0-86 115-33 76-35 102-21-12-45-47.5T314 649t-45-56-56-20q-25 3-40.5 28T160 651q8 51 40 98t82.5 99 67.5 74q-24 23-75.5 62.5T207 1038q-10 7-30.5 22t-30.5 22.5-24.5 20-21.5 22-12.5 22T82 1171z"/><glyph unicode="+" horiz-adv-x="911" d="M53 582q0 38 33.5 62.5T160 676l215 10q-2 180 4 250 7 45 25.5 67.5T465 1020q88-7 80-135l-17-193q28-4 130 .5t133-2.5q27-2 46.5-17t16.5-44q-4-36-67.5-53t-147-22.5T541 543l10-318q-3-49-19-68.5T463 137q-31 1-52 23.5T387 213q-9 51-12 98.5t-4 109-4 105.5q-35-11-122-18t-118-2q-35 6-54.5 27T53 582z"/><glyph unicode="," horiz-adv-x="524" d="M109 195q0 38 29 55.5t71 17.5q96 0 151.5-79.5T416 8q0-37-11-86t-31.5-99.5-56.5-85-79-34.5q-24 0-48 21t-24 45q0 8 12 36Q289-84 289 0q0 43-18.5 68t-45 34.5-53 17.5-45 26-18.5 49z"/><glyph unicode="-" horiz-adv-x="741" d="M137 602q0 35 16.5 54.5T199 676l276 24q56 0 92.5-22t36.5-68q0-65-78-71-46 2-132.5-17.5T266 502q-54 0-91.5 27.5T137 602z"/><glyph unicode="." horiz-adv-x="446" d="M109 141q0 49 26 90t74 41q56 0 93.5-50.5T340 115q0-48-29-81.5T238 0q-56 0-92.5 43T109 141z"/><glyph unicode="/" horiz-adv-x="772" d="M84-2q44 241 217 727 50 141 132 344t138 320q15 24 33 24 33 0 59.5-25t26.5-55q0-28-15.5-84.5t-33-104-41.5-111-29-77.5q-52-127-179.5-477T182-51q-14-33-51-33-56 0-47 82z"/><glyph unicode="0" horiz-adv-x="944" d="M55 444q-5 168 61.5 326.5T303 1102q159 235 258 237 45 2 70.5-24t19.5-70q-1-16-6-36t-9-32l-5-12q98-37 172-184t84-330q4-84-11-174.5t-50.5-179-86-159T614.5 23 453-25q-85-2-159.5 38T169 120.5t-80 152T55 444zm166 19q2-57 15.5-114.5t39-111 70-85.5T446 121q66 2 118.5 37.5t84.5 89T701.5 369t28 132 5.5 124q-2 68-15.5 130T680 877t-73 105-109 65Q386 941 302 776.5T221 463z"/><glyph unicode="1" horiz-adv-x="534" d="M166 446q0 213 17 438.5t57 362.5q8 35 55 35 23 0 38.5-14t14.5-35q-18-199-18-387 0-230 37-744 4-55-23.5-86.5T276-16q-34 0-59.5 17.5T182 51q-16 92-16 395z"/><glyph unicode="2" horiz-adv-x="974" d="M43 1063q0 23 12 47 75 94 192 159t222 64q146-6 218.5-85t72.5-220q0-93-40-198T612 596q-39-76-120.5-215.5T373 172q71-8 162-8 76 0 151.5 7.5T864 194t137 19q20 1 38-11.5t18-27.5q-7-112-232-149Q728 0 512 0 303 0 213 18q-61 11-61 70 3 45 67 135 11 17 51 79.5t57 90 54.5 88T438 576t49 90 46 93.5 33 84 24.5 83T598 997q0 73-41.5 122.5T444 1169q-37 0-78-18t-67-37-78.5-61.5T145 993q-17-10-41-10-20 0-40.5 24T43 1063z"/><glyph unicode="3" horiz-adv-x="991" d="M84 1118q0 43 35 58 230 187 432 184 45-1 84.5-11t76.5-31 58.5-61 20.5-94q-3-114-88.5-242T498 688q29-13 77.5-32t82-32.5T733 590t70-41.5 54-49 38-62.5 12-77q-1-48-21-90.5t-51-74-78.5-60-92-48-104.5-38-104-29T356-2q-82-25-129-23-21 0-39.5 21T168 49q-3 74 78 92 5 1 42 9t63.5 14 72.5 18 80 24 73.5 29.5T642 271t42.5 41 17.5 48q1 40-38.5 72T568 486t-112 43.5-94.5 51T324 647q1 36 31.5 80t73.5 88.5 86.5 92 74 104T621 1122q0 46-60 52-58 0-117.5-27T313 1074t-104-62q-24-17-55-6-31 12-51 40.5T84 1118z"/><glyph unicode="4" horiz-adv-x="946" d="M53 946q0 87 20.5 202.5T129 1325q17 37 59 37 102 0 82-117-28-156-28-289 0-157 60.5-248.5T492 616q37 0 104 13 2 18 14 119.5T627 887t15.5 114 21.5 133.5 24 110.5q3 16 20.5 30.5T748 1290q46 0 76.5-25t23.5-73q-88-497-88-936 0-186 14-334 6-27-19-46t-59-19q-64 0-78 55-43 138-43 332 0 81 7 200-46-6-86-6-136 0-238 68.5T104.5 689 53 946z"/><glyph unicode="5" horiz-adv-x="892" d="M82 819q0 99 26.5 172t79.5 119 123.5 72.5T479 1221q183 27 416 45 26 0 38.5-15t12.5-34q0-29-19.5-44t-54.5-26q-103-29-244-49t-253-58q-67-20-95-76t-28-124q0-43 23.5-79.5T336 698t82-51 90-52.5 82-59.5 60.5-79.5T674 350q0-71-36.5-135.5t-96.5-112T410 21 264-31q-42-10-73 28t-31 95q0 64 49 45 37-16 53-16 47 0 106 36t102.5 92.5T514 356q0 29-24 56t-62 50.5-84 48.5-92 55-84 64.5-62 83T82 819z"/><glyph unicode="6" horiz-adv-x="946" d="M84 492q-3 268 93.5 488.5T487 1343q19 19 56 15 33-8 59.5-30.5T629 1276q0-30-35-53-164-109-245.5-289.5T272 573q110 56 226 56 99 0 188-38t148-114 59-172q0-156-89-256T571-51q-218 0-350 154.5T84 492zm197-89q7-73 37-133.5t70.5-96.5 83.5-55.5T553 98q86 0 139 44t53 130q0 57-20.5 97.5T668 431t-75.5 30.5T506 471q-60 0-116-17t-82-34z"/><glyph unicode="7" horiz-adv-x="890" d="M2 1219q2 32 21.5 53t50.5 20q373-14 637-80 43-10 70.5-38.5T809 1102q0-67-100.5-369T586 328q-7-37-18-118T547 84q-8-46-42.5-61T424 18q-64 14-49 162 17 138 66 295.5t97.5 310T602 1065q-79 12-150.5 18.5t-116 8.5-125 4.5T76 1102q-35 6-55 36t-19 81z"/><glyph unicode="8" horiz-adv-x="909" d="M53 893q0 70 37 142.5t97.5 129.5 143.5 93 169 36q161 0 264-59t88-148q-11-62-47-143t-79-152.5T641 657t-70-100l-28-37q11-10 28.5-27t62-66 79-93.5 62.5-99 28-93.5q0-69-46-129.5T641.5-83 500-117q-123 0-196 83.5T231 174q0 147 84 318Q53 707 53 893zm187-27q0-29 10-56.5t30.5-55.5 36.5-46.5 46-48.5 40-41q240 295 244 439 0 32-35.5 55t-97.5 23q-124 0-199-78t-75-191zm149-686q0-42 37-91.5T512 39q47 0 82 40.5t35 84.5q0 16-10.5 37T583 252.5 543.5 299 494 352t-39 41q-33-39-49.5-99.5T389 180z"/><glyph unicode="9" horiz-adv-x="868" d="M45 891q2 166 116 287t269 120q48-1 92-7t92-20.5 81.5-36.5 52.5-59 12-85q-49-315-49-660l2-358V-29q0-18-34.5-31.5T621-72q-34 0-55 34.5T543 35q-1 38-2.5 145T536 380t-10 175q-11-7-29.5-16.5t-68.5-26-92-16.5q-81 2-150 63.5t-105.5 151T45 891zm182 2q-1-109 36-172t85-66q118-3 169 93t54 290q0 45-27 75.5t-81 31.5q-46 0-85.5-12.5t-74-40.5-55-79T227 893z"/><glyph unicode=":" horiz-adv-x="454" d="M109 676q0 21 16 49 9 27 14.5 38.5t16.5 25 27 18 42 4.5q39 0 69-27t30-65q0-55-35-85t-92-30q-34 0-61 19t-27 53zm18-557q0 45 40 74.5t87 29.5q92 0 92-106 0-50-34-83.5T227 0Q127 0 127 119z"/><glyph unicode=";" horiz-adv-x="501" d="M109 754q0 104 104 104 50 0 90.5-34.5T344 737q0-45-41-85t-84-40q-53 0-81.5 43T109 754zm28-545q0 31 21.5 49t54.5 18q76 0 128-83.5T393 29q0-33-12-83.5T349-157t-53.5-89-70.5-37-59.5 21-22.5 61q0 22 15 53t33.5 57.5T225-25t15 76q0 27-16 48t-35.5 32.5T153 163t-16 46z"/><glyph unicode="&lt;" horiz-adv-x="763" d="M82 604q0 55 97.5 214.5T400 1119t182 141q36 0 58-26.5t22-64.5q0-29-38.5-83.5t-91.5-114T408.5 818 289 637q285-383 375-494 18-18 14-51-6-45-62-45-38 0-169 118T199 420.5 82 604z"/><glyph unicode="=" horiz-adv-x="821" d="M109 733q0 25 15 44t42 26q87 29 238 47t227 18q71 0 82-51 3-32-8-46.5T664 741q-82-30-238-58t-207-28q-42 0-76 20t-34 58zm36-295q0 21 16.5 39t45.5 25q74 25 203 38t202 13q76 0 76-37 0-24-13-37.5T629 455q-70-26-179.5-55T264 356q-38-5-78.5 18.5T145 438z"/><glyph unicode="&gt;" horiz-adv-x="763" d="M84 1212q9 48 61 48 39 0 170.5-118.5t248-256.5T680 700q0-53-97.5-212T362 188 180 47q-36 0-58 26t-22 64q0 24 24 62t66 87.5 89 105T380.5 523 475 672q-287 378-377 491-19 16-14 49z"/><glyph unicode="?" horiz-adv-x="645" d="M53 1163q0 54 54 114t127 98 128 38q177 0 177-196 0-60-29-148t-63.5-163.5-63.5-159T354 612q0-13 11-28t24-15 31.5 20.5T455 610q33 0 30-49-10-60-60-109t-97-49q-59 0-90 49.5T207 567q0 72 29.5 166T302 902.5t65.5 161T397 1206q0 20-14 30.5t-33 10.5q-33 0-71-24t-65.5-52.5-58-52.5-51.5-24-36 21.5-15 47.5zM225 115q0 39 22.5 74.5T307 225q96 0 96-145 0-34-27.5-57T315 0q-41 0-65.5 35.5T225 115z"/><glyph unicode="@" horiz-adv-x="1263" d="M82 461q0 143 43 277.5t119.5 240T437 1148t251 64q123 0 239-75.5T1113.5 942t70.5-242q0-86-41-169.5t-116.5-139T864 336q-24 0-51 14t-42 28l-15 13q-63-45-131-45-94 0-143.5 65T432 561q0 87 75.5 163.5T674 801q65 0 108-11.5t60.5-31 22.5-37 1-35.5q-3-13-13.5-49T837 579t-5-51.5 12-48.5q16-30 62-14 60 21 99 94 39 71 39 166 0 75-52.5 160T851 1030t-179 60q-96 0-179.5-58.5t-137-151T272 678t-30-217q0-76 19-151t55.5-139.5 97-104T549 27q51 0 107 23t96 38 67 2q14-5 22.5-19.5T850 45q0-44-39-78t-96.5-51.5-110.5-26-94-8.5q-92 0-173.5 53.5T200.5 72 114 259 82 461zm465 59q0-28 15-47.5t42-19.5q133 0 133 247-82 20-136-34.5T547 520z"/><glyph unicode="A" horiz-adv-x="974" d="M29 440q0 25 17.5 44.5t42 29.5 49 16.5T180 539l17 2q111 611 155 774 18 69 88 69 25 0 48.5-21t37.5-65q24-67 102.5-363.5T719 598q64 4 125 4 91 0 96-10 3-6 3-13 0-11-9-26-16-21-62.5-43.5T786 475l-38-12Q836 164 899-4q4-12 4-23 0-21-16-39-25-26-64-26-25 0-53 37t-52 89.5-48.5 121-40 122-29 102T586 430l-271-31q-7-34-18.5-87.5t-42.5-161T199 4q-9-13-20.5-19T159-21t-19.5 1.5T125-18Q94-18 70.5 2T57 57q28 80 55 162.5T152 344l12 43q-5-1-14.5-3t-32.5-3.5-41 2.5-32.5 18T29 440zm317 121l207 21q-34 125-72 312t-43 230q-30-234-92-563z"/><glyph unicode="B" horiz-adv-x="1171" d="M-25 1231q8 19 34.5 22.5T59 1251l23-6q0 18 2 45 2 21 20 35 15 12 34 12h5q34-7 61-41t38-64l10-30q30-8 115.5-14t178.5-11 199.5-21.5 190-41.5 139-76 55.5-120q0-35-11-65t-28-53-45-44-53.5-34.5T930 693t-63-23.5-64.5-21T745 629q60-2 122.5-16.5t117.5-40 90-66.5 35-90q0-44-19-83.5t-48.5-70.5-78-59-93.5-48-110-39.5-112.5-31T532 60 426 41.5 329 27t-75-11h-5q-21 0-41 15-22 17-22 47-6 76-6 252 0 136-1 198t-5.5 177.5-17.5 201-35 156.5q-67 19-113 71-36 41-36 77 0 10 3 20zm330-193q45-200 51-364 245 51 359 88 240 78 241 160 0 21-15.5 37.5t-48 28.5-68.5 20.5-91 14-100 8.5-111 4.5-109 2-108 .5zm45-858q8-2 21-1 37 0 107 12 96 17 200 48t185 79 81 96q0 30-42 51.5t-113 31T651.5 510 510 514l-154-2q-2-266-6-332z"/><glyph unicode="C" horiz-adv-x="864" d="M66 324q-1 20-1 43-1 59 5 142 8 116 32 262.5t60.5 274.5 99 217 139.5 93h2q57 0 119-70t107-169 74.5-201T735 748v-7q1-36-17-60-20-26-59-26-26-3-49 9t-32 36q-9 54-18 103.5T534 919t-35 112.5-43.5 79.5-52.5 32q-52-2-90.5-97T257 821.5 232 587q-6-83-6-132 0-13 1-23 1-34 2-50t5.5-55.5 10.5-62 19-54.5 30-49.5 43.5-30T397 119q45 2 90.5 14.5t82 31 71.5 39 62 38 49.5 29 39 11T817 266q6-11 6-26 0-16-9-38-17-40-60-82T653.5 40.5 521-22 373-49h-9q-70-1-126 29-60 32-95 87T88.5 187 66 324z"/><glyph unicode="D" horiz-adv-x="1282" d="M-6 1264q12 61 73 61 22 0 50-8 86-20 160.5-39.5t194-56.5 214.5-76 200.5-96T1062 932q71-60 117-140 44-76 44-158v-7q-1-99-51-180.5t-124-134-177-100-194.5-76-194-64.5T324 8Q295-2 274-2q-10 0-18 2-28 9-35 55-69 477-69 803 0 88 2 129 0 43 14 150-22 3-41.5 3.5t-37 2.5-46.5 10q-31 7-47 41-9 18-8 37 0 16 6 33zm307-406q0-299 61-620 29 8 94 23t120 29 126 35.5 126 50 104 65 76 87 28 109.5v7q0 54-28 106-30 54-78 96t-116.5 80.5-134 65-139.5 50-124.5 36T319 1100q-12-64-16-135-2-31-2-107z"/><glyph unicode="E" horiz-adv-x="1044" d="M-14 1149q0 88 110 88l119-2q3 8 9.5 20.5T252 1288q20 19 41 19h2q16-1 37-19t34-36l13-17q32 0 137 1t168 1q144 0 224-11 81-11 81-49 0-41-51-53-90-16-202.5-25.5t-171.5-11-204-4.5q-16-69-24.5-172T326 740v-68q90 0 213 23t215 59q26 11 57 11 11 1 23-1 44-6 51-37v-6q1-41-51-77-56-39-138.5-64t-166-43.5T387 510l-59-8q0-7 .5-19t3-46.5 7-66T353 301t23-65.5 34-46.5 47-19q76 0 159 24.5T749 244t113 63q30 16 54 16 16 0 28-7 32-18 33-52 0-30-33-63-72-51-156-99T591 12.5 393-29q-55 0-98.5 39T226 107.5 184.5 241 162 379t-6 121q0 355 39 573-1 0-49.5-4t-67.5-4q-39 0-65.5 23.5T-14 1149z"/><glyph unicode="F" horiz-adv-x="899" d="M53 1069q4 21 26 42t42 31l20 11q-1 10-2 25t-2 52 2 44q0 90 82 90 38 0 62-19.5t24-56.5l8-129q125 10 288.5 33.5T872 1237q33 6 56 6 48 0 49-26 2-8 2-16 0-50-88-79-3-1-124-35t-249.5-67.5T317 973l19-324q140 12 242 47 79 19 110 19 72 0 72-51 0-25-38-55-42-32-102.5-58t-122-48.5T393 468l-43-13q2-34 5-81.5t8-165.5q2-54 2-86 0-39-3-46 0-41-15.5-60.5T289-4q-67 7-88 80-4 29-14.5 251T168 756l-8 207q-4 1-11.5 3.5t-26 12T90 999t-25.5 30-11.5 40z"/><glyph unicode="G" horiz-adv-x="1144" d="M82 586q0 91 16.5 188.5t55.5 199 94.5 181 141 130T578 1335q141 0 214.5-95.5T866 993q0-39-15-66.5T801 899q-71 0-90 80-6 20-12.5 54t-12.5 57-16.5 47-30.5 36.5-49 12.5q-68 0-127-41.5t-98.5-105-68-141-41.5-149T242 621q0-71 17.5-141t52-132.5 95-101.5T545 207q67 0 141 42.5t74 96.5l-12 160q-175-39-224-39-104 0-104 61 0 46 27 72t100 39q170 32 339 57 162 23 220 23h4q13 0 21-1t20.5-4 20.5-12.5 12-23.5q1-3 1-6 0-16-16-28-19-15-43-23-27-14-76-32t-84-29l-36-11q4-69 28.5-283.5T983-45q0-73-74-82-7-1-13-1-23 0-35 8-16 11-34 44-13 38-27.5 100T782 119q-45-45-108.5-69.5T545 25q-101 0-190 53T207.5 213.5t-92 181T82 586z"/><glyph unicode="H" horiz-adv-x="919" d="M115 512v133q0 470 53 694 10 50 70 50 41 0 67-21 23-19 23-53v-8q-2-38-12.5-177T300 895.5 295 711q0-86 2-129 195 0 256 12-2 37-2 154 0 284 22 581 1 22 26.5 31.5t55.5 9.5q45 0 64-16t18-60q-18-295-18-512 0-98 6-172 20 1 82 10t90 9q27 0 39-7t12-30-22-45.5-53-38-62.5-27.5-53.5-18l-22-6q35-305 35-391V29L767-.5l-9-27L740.5-42 711-49q-36 0-65 50.5T602 124t-25 144.5T564 392l-3 50-264-12q31-359 31-461 0-27-.5-38t-4-30-11.5-26-23.5-13.5T250-145q-26 0-40 5.5T188-117Q163-73 147 .5T125 171t-8 168.5-2 172.5z"/><glyph unicode="I" horiz-adv-x="446" d="M119 1227q1 45 23 65 24 21 59 23h8q27 1 47-11 22-14 25-42 17-261 49-1141v-3q0-45-28-71-23-21-46-21-6 0-12 1-37 1-57.5 30.5T164 127q-45 704-45 1100z"/><glyph unicode="J" horiz-adv-x="851" d="M2 1217q0 30 14 32 232 72 527 72 149 0 229-21 14-4 22-25 3-10 3-18 0-7-4-12-11-15-27.5-24.5T719 1206t-53.5-6.5-78-4-91.5-5.5q57-217 75-334 24-155 24-329 0-30-1-62-6-143-43.5-262T455 7.5t-129-119T180-154q-37 0-98 21-36 15-56 60Q7-33 7 8q0 5 1 10 2 46 25 64 10 8 24-5.5T91.5 44 133 25q132 0 209.5 128.5T420 487q0 137-17 265.5t-34 200-48 181.5q-7 23-10 35-40-2-68.5-6.5t-43.5-9-47.5-15T90 1120H72q-32 3-52 34-18 27-18 57v6z"/><glyph unicode="K" horiz-adv-x="1126" d="M98 637q0 171 16 371t46 358q4 22 28.5 35.5T231 1415q24 0 46.5-18.5T299 1356q-35-263-35-510 0-142 8-254 76 57 167.5 151.5T660 987t141 162q9 11 29.5 15.5t35.5 2.5q38-7 52-41 5-13 5-26 0-19-14-35-243-303-497-563 17-29 47-52t63-38 81-25 84.5-15.5 89.5-8 82-3 75-.5q37 0 126 13t143.5 13 58.5-26q1-4 1-9 1-39-63-73-70-38-168-57.5T848 201q-94 0-146 2t-132 10-146 29.5T299 299q0-74 18.5-163t45-188.5T399-209q3-17 3-33 0-26-10-48-16-34-56-34-31 0-49.5 10t-23 18.5T250-266q-44 108-91.5 341.5T100 502q-2 43-2 135z"/><glyph unicode="L" horiz-adv-x="940" d="M115 784q0 257 16 492 1 31 28.5 47t59.5 16q51-1 69-23 16-20 15-61v-10q-12-344-12-526 0-256 20-455 208 20 541 98 33 8 54.5 8.5t36-9T963 330q4-9 4-18 0-41-76-72-133-58-310-106T244 66q-12-2-23-2-33 0-53 16-26 22-27 57-26 366-26 647z"/><glyph unicode="M" horiz-adv-x="1495" d="M115 715q-2 14-2 44 1 70 9 224 12 221 21 248 7 13 28.5 22t43.5 11q39 0 65-26 26-25 25-61 1-26-15-207-14-158-15-226 0-5 1-9 0-217 31-344 37 120 114.5 411T551 1239q42 124 123 127 36 0 66-27t34-65q73-398 78-750 42 103 80 247t76.5 269 91.5 220q18 38 71 38 36 0 66.5-27t34.5-63q9-246 48.5-542.5T1423 98q3-12 3-22 0-49-68-49h-5q-96 0-120 110-36 154-56.5 360t-30 322.5T1122 936q-25 0-102.5-292.5T897 121q-3-18-9.5-31t-12-19.5-18-10-17.5-4-20.5 0-16.5.5q-33 0-61 23.5T711 139q-4 59-14.5 330T672 878q-13 136-36 136h-1q-17 0-60-175.5T470.5 416 362 49q-14-33-30-44T281-6q-32 0-52.5 11.5T197 47q-37 125-58.5 316T115 715z"/><glyph unicode="N" horiz-adv-x="1073" d="M117 748q0 363 28 415 35 35 68 35h8q38 0 49-27 50-84 156-320t190-417q84-180 101-180 33 0 55 140 22 139 21 331 0 276-48 481-1 13-1 25 0 36 13 63 18 36 54 39h3q74 0 104-106 18-78 29-243t11-255q-2-55-6-110t-13-143-25-161-39-142-58.5-108.5T737 25q-41 0-100 72.5T521.5 274t-111 222.5-90.5 207T270 836q-4-90-4-140 0-144 20-378 17-203 17-256V49q-4-31-26.5-50T221-25q-28 0-55.5 18.5T137 39q-20 287-20 709z"/><glyph unicode="O" horiz-adv-x="897" d="M84 561q25 506 190 746 21 33 43.5 41t55.5 8q63-12 63-95v-10q0-21-20-45 1 0 6.5 1t7.5 1q12 0 31-11.5t20-25.5q62-82 102.5-138t96-145.5T767 725q33-73 55-163 21-82 20-158v-13q-3-105-69.5-196T605 53Q508 4 407 4h-8q-58 2-105.5 23.5t-80 54-57 78.5-38.5 94-22 104-10 104q-2 34-2 70v29zm172-74v-17q0-42 8-84 10-50 30.5-96t59.5-76 90-32h7q67 0 116 36 52 38 76.5 96T672 440q1 80-33.5 174T560 780 458 946.5 373 1100q-70-158-90-280.5T256 487z"/><glyph unicode="P" horiz-adv-x="1085" d="M74 481q-1 3-1 7 0 36 91 94-20 267-47 694v9q-1 45 17 69 16 21 48 21 7 0 15-1 46-2 122-14t173-33.5 194-56 179.5-76 135.5-99 56-120.5v-15q0-56-20-107-23-58-60.5-101T882 669t-110.5-66.5T649 550t-116.5-40.5-106-31T348 455q4-62 10.5-123.5T377 170 397 2q1-13 1-24 0-44-18-70-20-29-64-29h-11q-39 0-65.5 28.5T213-18q-2 56-21 233t-22 215q-8 2-28 6t-27 6-18.5 7-16 13-6.5 19zm227 717v-27q0-69 4-147 5-94 13.5-214T330 621q33 7 71.5 17T509 668.5 638 716t118 61 94 79q38 48 37 97 0 40-60 80-62 42-158.5 74T478 1162t-177 36z"/><glyph unicode="Q" horiz-adv-x="1032" d="M82 420q0 220 78 425.5T379 1274q1 2 15.5 23.5t20.5 29 20.5 26.5 25 28 25.5 20.5 30 16.5 31 5q28 0 55-16t27-45q0-14-71.5-121.5T465 1112q4 1 26 8t29.5 9 24.5 6.5 30.5 6 26.5 1.5q75 0 133-32.5t92.5-83 56.5-118T914 779t8-128q0-86-5-147t-22.5-136-57-134.5T737 131q4-24 12.5-45T768 49t26.5-31T824-6.5 860-26t37.5-16 42-13 41-10.5 43-9.5 41.5-9q49-11 49-45 0-32-41.5-54.5t-85-30T909-221q-102 0-196.5 66T586 6Q478-31 426-31q-91 0-160 40.5t-108 108-57.5 144T82 420zm170 51q0-46 10-97.5t30.5-103 59.5-85 90-33.5q33 0 51.5 9.5t24.5 24 9.5 29.5 12.5 26.5 27 14.5q71 18 118.5 60T755 421t30 124 8 143q0 40-11 92.5T750 886t-57.5 89.5T612 1012q-29 0-60-19.5t-52.5-42T457 912t-33-11l-45 21q-60-131-93.5-236T252 471z"/><glyph unicode="R" horiz-adv-x="1083" d="M115 1298q-1 4-1 8 0 18 18 28 22 14 50 14h5q25 0 44-5 142-18 345-108t325-197q45-37 69-95 20-47 20-94 0-12-1-24-2-57-46-104.5t-114.5-81-142-59-147-51T430 485q67-62 101-93t102-84.5 120.5-83 126-58T1028 128q29 0 42-11.5t13-40.5q-3-14-12-25t-24-17.5-27-10.5-33.5-5.5-31.5-2-32 0-24 .5q-86 6-175.5 43t-167 94.5-133 107.5T317 367q-2-11-2-37-1-36 3-99 2-42 3-71 0-48-6-64-25-88-84-88-49 8-68.5 27.5T139 109q-14 208-16.5 626t-7.5 563zm176-378q0-60 8-326 45 24 144 54.5t176 54 138.5 66T819 864q0 56-90 123t-209 117-221 70q-8-196-8-254z"/><glyph unicode="S" horiz-adv-x="823" d="M55 324q0 49 25 122 4 21 19 37.5t44 16.5q31 0 48.5-29t17.5-68q0-64 22-126t71.5-107T418 125q82 0 134 66t52 182q0 50-29 99.5T500 565t-101.5 86.5-111 89.5T186 835.5 111 944t-29 123q0 54 12.5 104.5t39 95.5 73 72 108.5 27q95 0 156.5-33.5T586 1239q41-47 41-123 0-43-15.5-79.5T571 987q-1 0-12.5-4t-19.5-5-20-1.5-22 5-18 15.5q-10 18-8 30.5t9 26.5 7 15q0 63-38.5 108.5T340 1223q-52 0-80.5-47t-28.5-91q0-47 29.5-94.5T338 901t105-86.5T557.5 722 663 622.5t77.5-116T770 373q0-201-95.5-309.5T412-45q-110 0-193.5 55T95 147.5 55 324z"/><glyph unicode="T" horiz-adv-x="1021" d="M-82 1073q0 92 109 92l344-2q0 23 2 82 1 21 1 30t2.5 31.5 5.5 34 9 29 14 26.5 21 16 29 7q17 0 30.5-4.5t21-15.5 12.5-19 7-26.5 3-25 0-28.5-1-24l7-113q109 0 243.5 20t249.5 54q30 10 51 10 41 0 47-39 1-3 1-5 1-27-55-59-60-34-154.5-63T720 1030t-185-31q0-78 3-165t6.5-152T556 515.5t12.5-151T584 198t14-155q2-37-8-57.5T545-35q-37 0-58.5 13T461 25q-32 151-52.5 318t-29 289.5T360 979L88 961q-31 0-50 1t-44.5 7-40 17.5-25 33.5-10.5 53z"/><glyph unicode="U" horiz-adv-x="1126" d="M98 629q0 64 2 131.5t7 138 8 114.5 9 113.5 7 83.5q4 34 28 48t42 14q33 0 60.5-24t21.5-56q-17-170-17-479 0-279 25-381 15-64 57-113t113-49q67 0 121.5 48.5T669 342t49 156.5T735 655q0 115 6 508 3 64 18 92.5t58 28.5q45 0 72-38 26-36 26-96l-6-402q0-334 30-496t112-162q26 0 59 18.5t57 18.5q15 0 23-15.5t8-31.5q-3-70-51-112-46-40-113-40h-6q-60 2-107 27t-77 67.5-48 93T770 227Q716 117 637.5 50.5T461-16q-138 0-226.5 84.5T121 299Q98 424 98 629z"/><glyph unicode="V" horiz-adv-x="929" d="M16 1206v7q0 31 15 57 17 28 51 35 82 0 92-95 34-247 123.5-513T465 270q158 451 297 1028 8 35 25.5 52.5T840 1368h7q33 0 46-34 9-24 9-47 0-13-3-25-42-222-102-452T694 439 555-2q-4-25-22.5-40T489-57q-6-1-12-1-27 0-51 12-28 14-39 44-118 258-232.5 614.5T16 1206z"/><glyph unicode="W" horiz-adv-x="1239" d="M92 1147q0 53 62 53 63-4 71-74 49-353 72-475 17-131 46-266.5T393 246h1q34 0 118 382 86 384 100 548 6 43 64 43 42 0 51-48 9-104 39-310t75-410 79-209q28 0 57 189.5t41 340.5q4 86 4 254 0 183-4 315 0 17 13 31t36 17h5q12-1 25-9 16-10 19-22 47-134 47-381 0-21-6-186-2-17-5-80.5t-8-131.5-14-155-24.5-161.5T1069 124t-55-100Q983-9 946-8h-6Q826 1 739 250q-74 301-80 328-77-286-98-351-16-48-30-84.5t-41.5-94T428-41q-32-31-66-31h-2q-33 2-63.5 42T243 79t-41.5 138T168 375t-22.5 138.5T131 621q-20 147-31 301-9 121-9 191 0 19 1 34z"/><glyph unicode="X" horiz-adv-x="1040" d="M82 43q0 51 32.5 128T185 310t97.5 155.5T367 602q-17 41-92 182t-133 264-58 169q0 69 43 88 15 7 30 7t31-9q28-16 43-46 42-78 116-234.5T469 782q6 9 51.5 83t84 131 90 127 97.5 109.5 78 39.5q36 0 62-13.5t26-41.5q0-17-84-135.5T690.5 823 565 631q247-414 305-488 14-12 25.5-37T907 57q0-51-65-51-48 0-91 24t-73.5 60.5-61 88T565 277t-48 101-48 87q-21-39-69.5-116t-81-141T272 80q0-44-5-72.5t-25-51T186-66Q82-66 82 43z"/><glyph unicode="Y" horiz-adv-x="798" d="M-49 1159q-4 13-4 25 0 17 8 33 14 28 51 28 55 0 90-51 36-50 126.5-208T362 762q20 81 55.5 179t85 200.5T607 1328t118 138 119 54q35 0 35-39 0-35-25-68-159-242-241-423T502 627q-15-123-15-256 0-82 7.5-293t7.5-346q0-34-16-61t-54-27q-81 0-88 90-32 268-41 446 0 12-2 69t-3.5 81-6 67.5T281 475q-13 86-55.5 181.5t-88.5 168T36 992t-85 167z"/><glyph unicode="Z" horiz-adv-x="1011" d="M14 1247q8 33 28 49 16 13 39 14 5 0 11-1 188-27 490-27h193.5l23-1.5 21.5-4 20.5-6.5 16-9 11.5-12.5 4-17.5q0-142-227-553-112-202-330-512 249 0 453 31 7 1 56.5 6.5T897 209q88 0 88-49 0-17-7-30t-24-24-25-15-29-12q-5-2-7-3Q605-33 199-33q-45 0-74.5 6.5T75.5 2 61 61q0 9 49 85t147.5 225.5T420 621q95 149 170.5 295.5T686 1118q-22 2-146.5 5t-254 10T82 1153q-68 14-68 94z"/><glyph unicode="[" horiz-adv-x="667" d="M115-190q18 332 18 1153v419q0 16 16 29.5t46 13.5h159q117 0 168-2 32-3 46.5-20t6.5-43q-3-19-27-32.5t-53-20-69-10.5-62-4.5-45-.5q-22 0-22-26l6-744q0-397-31-653 41-8 88-8l175 8q40 0 58-13t17-46q-11-47-39-54-105-26-356-26-58 0-82.5 16.5T115-190z"/><glyph unicode="\" horiz-adv-x="772" d="M82 1333q0 29 27 54.5t59 25.5q12 0 18-5t15-19q58-121 141-326t129-338Q654 210 688-2q9-82-45-82-40 0-51 33-82 177-207.5 523T201 956q-5 14-29 77.5t-41.5 111-33 104T82 1333z"/><glyph unicode="]" horiz-adv-x="667" d="M55 1348q2 18 13 32.5t28 20.5q111 29 359 29 56 0 80-17t18-65q-18-382-18-1153v-416q0-19-16.5-33T471-268H311q-121 0-168 2-31 2-45 19t-8 48q5 28 64.5 44t106 19 87.5 3q25 0 25 24l-11 746q0 352 31 653-62 8-88 8l-172-8q-81 0-78 58z"/><glyph unicode="^" horiz-adv-x="948" d="M115 319q4 24 142 210t218 288q20 33 66 33 26 0 53-18.5t37-45.5q5-10 31.5-60.5t37.5-72 35-69.5 37-77.5 30.5-70 29-74T850 299q8-31-9-46t-42-15q-38 0-80 49t-72.5 110T580 526t-58 92q-61-54-160-176T213 268q-36-31-68-26-47 13-30 77z"/><glyph unicode="_" horiz-adv-x="1124" d="M-53-426q0 76 53 76 70 0 331-5t414-5q202 0 379 10 56 5 56-70 0-92-56-92-44 0-331-2t-449-2q-198 0-338 4-35 1-47 23.5T-53-426z"/><glyph unicode="`" horiz-adv-x="796" d="M213 1237q-16 49 15.5 74t74.5 18q26-5 100.5-64T544 1133.5t66-105.5q0-31-32-31-31 0-194.5 102.5T213 1237z"/><glyph unicode="a" horiz-adv-x="763" d="M55 424q6 43 16.5 93.5T104 634t48.5 118 67 88.5T305 877q148 0 230-136 6-10 34.5-3.5t42.5-.5q33-21 33-69 0-17-5-45.5t-5-32.5q-2-30-2-58 1-80 15-146 20-90 69-208 4-14 4-28 1-14-3-26-6-26-16-32-18-12-48.5-12.5T612 88q-45 36-86 103.5T479 305q-77-150-82-160-31-47-77-81-42-31-89-31h-8q-52 6-89 52.5t-53.5 111T58 320q-4 39-4 72 0 17 1 32zm135-92q0-56 15-94 15-37 43-37h2q33 0 72 65.5t65.5 159T414 596v63q-2 24-23.5 50.5T346 737q-74 0-133-241-6-17-14.5-67.5T190 332z"/><glyph unicode="b" horiz-adv-x="868" d="M84 1415q0 23 20 41 22 18 66 19 39 0 62.5-30.5T256 1372q0-21 7-204.5t7-346.5q84 49 154 49 112 0 202.5-60T766 653t49-209q0-151-92.5-253.5T487 88q-35 0-70 7.5t-56 15-38 12.5-24.5-.5T291 98l6-73q0-97-96-97-97 0-97 101v61q0 64 2.5 199.5T109 514zm172-971q0-99 56-159t155-60q87 0 133.5 59.5T647 444q0 122-64.5 213T426 748q-58 0-98-51t-56-117-16-136z"/><glyph unicode="c" horiz-adv-x="778" d="M53 455q0 100 60 194t155 151.5T461 858q94 0 162.5-57.5T692 651q0-11-10.5-22T655 618q-27 0-50 13.5t-38 30-42.5 30T461 705q-95 0-173.5-85T209 438q0-70 33.5-123t89-81.5 116.5-42T575 178q63 0 115 10 28 5 47-11 13-11 13-29 0-8-2-17-7-37-83.5-56.5T512 55Q53 55 53 455z"/><glyph unicode="d" horiz-adv-x="874" d="M55 403q5 107 41 198t105.5 149.5T360 809q69 0 160-43 6 76 6 156 0 60-3.5 133t-7.5 121-10.5 125-8.5 100q0 44 23.5 70t72.5 26q34-1 60-33 24-30 24-64v-5q8-140 12-555 0-15-4-115.5T680 553q0-410 131-412 29 1 71 15 36 13 57 12h5q22 0 34-21 9-15 8-32 0-7-1-13-20-50-70-73T813 6q-104 6-169.5 57T569 209q-55-73-129-118-69-42-141-42h-10q-71 1-120.5 34.5t-73 88.5T62 283q-8 46-7 98v22zm142-2q-1-12 0-23-1-64 23-114 28-58 91-65 80 0 143.5 86T522 487v11q0 74-38 116-40 44-109 45h-6q-75-1-121-73-48-76-51-185z"/><glyph unicode="e" horiz-adv-x="714" d="M53 344q0 92 29 191t76.5 179.5T271 847t132 52q47 0 87.5-20.5t68-53T606 752t29.5-82.5T645 590q0-70-26.5-120.5t-74-79-105-41.5T311 336q-34 0-104 8 0-84 48-136.5T389 141q15-2 52-5t61-7 51.5-12.5 42-26.5T610 45q0-17-16-28.5T552.5 0t-44-6.5T471-8q-87 0-160.5 20T178 73 86 183.5 53 344zm168 152q56-11 105-11 122 0 159 54 13 13 15 44v13q0 25-6 50-8 32-28 56.5T418 727q-40 0-75-24t-59-63.5-38-73-25-70.5z"/><glyph unicode="f" horiz-adv-x="727" d="M-29 696q0 24 16.5 41T37 763.5t63 14 74 8.5q88 11 90 17-8 43-8 145 0 94 8.5 190.5t29 195T344 1507t78 121q45 43 99 43h7q81-2 151.5-83T786 1405q33-97 33-173v-9q-2-50-24.5-80.5T737 1112q-66 0-73 88-3 54-11 101.5t-21 91-34.5 69T549 1487q-43 0-77-94t-50-225-16-265q0-59 6-88 161 10 233 25h11q28 0 51-12 27-15 20-42-5-22-56-41t-130-40-117-37q4-56 16-212t17.5-261T465-18q0-30-23-54-19-21-41-21-4 0-8 1-31 0-57 27.5T307-4q-15 202-39 647-115-27-215-27-37 0-59.5 22.5T-29 696z"/><glyph unicode="g" horiz-adv-x="741" d="M51 324q-1 20-1 40 0 102 38 206 47 125 127 206.5T379 864q13 2 25 2 61 0 98-47 14 16 34 32.5t31 16.5h4q15 0 26-6 13-7 20.5-23.5T630 804t7.5-47.5 3-53.5 1.5-60q1-33 1-49 12-381 12-440l-4-140q-1-69-16.5-144t-49-150.5T506-415t-116-95q-64-33-138-33h-12q-35 3-53.5 26.5T168-463q-2 28 22 56.5t62 29.5q64 2 115 44t82 109.5 47 148T512 90q0 68-14 154-35-73-104-132T262 49q-6-1-13-1-55 0-99 40-48 43-72 106T51 324zm146 63q13-96 27-123 18-33 48-33h4q70 6 119 64.5T462 433q14 60 14 121 0 20-1 40-3 63-35 98-30 33-60 33h-3q-44-3-80.5-41T239 591.5 207 483q-10-49-10-89v-7z"/><glyph unicode="h" horiz-adv-x="956" d="M84 1341q5 45 29 79 23 34 65 34h2q52 0 70-36 14-28 13-63 0-10-1-22-8-76-8-233 0-379 65-776 20 26 44.5 85.5T411 529t50.5 118 64.5 93q34 32 72 32h6q26-2 46-24.5t32.5-60T703 616t14.5-73 9.5-51q1-5 7-30.5t10.5-43 13-48.5 17-54 19.5-51.5 23.5-48.5 26-38.5 30-28T907 139q14 0 44.5 16.5T1008 170q7 0 18.5-15t11.5-24q0-59-48-99T877-8q-64 1-117 56t-85.5 132.5T618 335t-41.5 131-29.5 54q-20 0-50-63.5T438.5 311t-68-173T297 6q-11-8-43-8-39 0-60.5 21.5T172 76q-3 45-17.5 141.5T137 360q-5 80-21 299-18 219-26 384-7 134-6 246v52z"/><glyph unicode="i" horiz-adv-x="380" d="M84 440q7 191 25 316 4 13 22 21.5t39 6.5q29 0 48.5-16.5T238 721q-11-97-11-168 0-246 70-455 3-12 3-23 0-40-46-50-17-8-33-8-7 0-15 2-24 6-34 28-42 78-66 191-22 101-22 182v20zm6 598q0 33 26 60 25 26 56 26h2q48 0 72-14.5t24-62.5q-2-41-38-75-35-33-78-32h-2q-32 3-48 33-14 27-14 57v8z"/><glyph unicode="j" horiz-adv-x="430" d="M-121-387q0 33 14 44.5t39 5.5 52.5-17 63-22 61.5-11q38 0 58.5 48.5T188-242q0 192-24.5 420T139 514l-2 90q0 164 85 164h5q31-2 57-20.5t23-45.5q0-31-4-113.5T299 432q0-102 24.5-326T348-242q0-112-74-202.5T96-535q-96 0-156.5 48.5T-121-387zm258 1462q0 49 29.5 72.5T240 1171q30 0 60-22.5t30-58.5q0-32-35.5-65.5T225 991q-31 0-59.5 28.5T137 1075z"/><glyph unicode="k" horiz-adv-x="823" d="M82 586q0 113 25.5 346.5T133 1282q0 80 55 80 26 0 43.5-14t24.5-41 9.5-50.5 2.5-56.5l-43-526q0-74 6-107 14 9 72 48t86.5 56 75.5 43.5 82.5 38T612 764q61 0 68-45 4-24-12.5-46.5T629 637q-33-22-148.5-86T319 453q66-30 150-49t150-26.5T743.5 361t90.5-29.5 32-55.5q0-28-36-44t-80-16q-9 0-17-1-34 0-65 2-255 34-406 111 35-197 35-273 0-23-22.5-41T223-4q-46 0-78 57-39 113-51 239.5T82 586z"/><glyph unicode="l" horiz-adv-x="391" d="M82 1333q0 25 19.5 43.5T152 1395q27 0 46.5-14t29.5-37 14-46 4-47l-4-551q0-135 16-269t32.5-227.5T307 74q0-74-57-74-60 0-76 33-55 127-72.5 323.5T84 811v252q0 198-2 270z"/><glyph unicode="m" horiz-adv-x="1232" d="M72 741q2 38 6 72.5t20 59 43 24.5q35 0 51.5-22.5T209 803q0-336 80-561 14 55 32 163t32.5 187T401 754t80 123q16 18 45 18 23 0 36.5-7t23.5-30q31-60 52.5-226t39-295.5T719 207q9 0 19.5 61.5t24 149 33 175 56 149T936 803q54 0 63-33 19-55 55.5-170.5T1115 412t61.5-166T1251 82q9-6 9-25 0-22-27-35t-49-8q-41 1-80.5 57.5t-69 137.5T981 371t-43 137.5-29 56.5q-12 0-23.5-51.5T861 383t-29.5-163-44-161T725-53q-16-19-39-19-18 0-32 6t-25.5 20.5-16.5 23T596 8q-25 64-39.5 156.5T537 340t-9 158-12 119.5-24 44.5q-19 0-34.5-82T436 412q-18-142-48.5-287T319-88q-17-31-56-31h-7q-22 0-39.5 16.5t-28 45.5T172-6.5 161 43q-1 4-1 6-77 387-86 627-2 18-2 41v24z"/><glyph unicode="n" horiz-adv-x="894" d="M84 813q-1 23 18 41t39 18q32 0 54-16.5t26-46.5q47-241 47-374v-11q16 25 34.5 79T339 608t43.5 101 65.5 81 91 31q64 0 88-67 16-57 34-152.5t31-154T736.5 324 815 219q6-6 24-21.5t23.5-21 15.5-17 13.5-20T895 121q0-30-25-49t-55-19q-47 0-97.5 35T635 166q-34 49-57 116.5t-32.5 127T530 522t-12.5 84-17.5 31q-24 0-51.5-59.5T398 441t-57-170.5T276 127q-9-24-36-45t-52-21q-24 0-46.5 29T117 143q-13 63-13 123l5 123q0 190-25 424z"/><glyph unicode="o" horiz-adv-x="686" d="M54 356q0 29 1 58v32q0 42 4.5 83.5t15 91.5 31 92 49.5 77 74 55.5T330 866q69 0 128.5-47.5T554 701t56.5-144T631 424q0-91-46-178T457 102 281 45q-37 0-67.5 7t-53 19.5-40 30.5-28 40T74 189t-12 53q-4 27-6 56-2 24-2 48v10zm134 33q0-36 2-59t9.5-54 27-47 49.5-16q98 0 161 76t63 174q0 52-21 113t-64 109-96 48q-35 0-61-30t-41-80.5T195 513t-7-124z"/><glyph unicode="p" horiz-adv-x="956" d="M84 664v7q0 28 14 49 15 25 47 25 22 3 36.5-3t23-23 12-31.5T225 645q0-5 4.5-32.5T237 560t1-36q28 92 75 166t100 118 105 66.5 98 22.5h13q64 0 114-27 55-29 85.5-75T877 691t22-107q2-25 2-48t-2-44q-20-157-127.5-259.5T522 127q-14-1-28-1-45 0-91 10-61 12-106 34-2-41-2-127 0-65 2-183t2-163q0-122-16-160-6-19-27-34t-43-17q-9-2-18-2-19 0-33 12-21 16-21 47-2 43-2 140v139q-5 176-21.5 441.5T84 664zm221-357q119-39 197-39 101 0 166.5 57T737 514v22q0 16-1 30-1 24-9 58t-23.5 57.5T658 722q-28 15-67 15h-5q-169-6-281-430z"/><glyph unicode="q" horiz-adv-x="716" d="M53 393q0 96 28.5 191T172 756t145 96q30 5 56 5 64 0 102-32 4 17 25 30t43 15q11 3 20 3 43 0 55-62 2-16 2-47 0-34-2-87-6-101-14-171-22-412-22-479 0-80 16-248 4-44 13.5-80.5T648-368q25-25 59-25h10q12 1 31 7t33 9.5 29 4 25-9.5 13-30q4-15 4-28 0-16-5-28-9-25-27-37.5t-38-21-34-10.5l-15-2q-19-2-37-2-78 0-132 32-67 39-85 112-47 189-47 463 0 77 4 116-33-18-92-39-38-11-74-11-50 0-96 22-79 38-102 127-19 50-19 112zm160 27q0-57 8-101 1-23 34-35 17-6 33-6 14 0 27 5 113 25 131 186 11 45 11 123 0 94-11 153-15 3-29 3-37 0-69-18-45-26-74-74t-45-109.5T213 420z"/><glyph unicode="r" horiz-adv-x="737" d="M82 406q0 287 20 348 2 11 19 28t39 17 36-12.5 19.5-38.5 6.5-45 1-54q0-117 17-217 80 165 127 231 116 164 272 164 93 0 106-49 5-13 5-25 0-21-13-39-20-28-63-34-99-14-169.5-70T375 438Q290 261 238 78q-21-49-68-49-23 0-35 6.5T117 61Q82 179 82 406z"/><glyph unicode="s" horiz-adv-x="724" d="M55 246q7 36 30 70 21 31 52 30h8q9-1 15.5-10t9-18.5 5-25T178 272q0-52 74.5-96.5T387 129q15-1 28-1 87 0 87 40v5q0 31-22 63-24 35-63 68t-86 67.5-93.5 72T154 520q-38 38-58 84-16 36-15 71 0 10 1 21 6 60 40.5 104.5T212 869t120 34q46 7 97 8 20 0 42-2 56 0 93-27 31-23 31-53 0-6-1-12-5-47-82-47-20 0-82 8-12 2-26 2-21 0-44-4-39-6-73.5-28T252 690q-1-3-1-7 0-28 56-85 25-21 87-68t103-82.5 87-85.5 68-104q17-44 17-91 0-11-1-22-5-42-28.5-73.5T584 24Q550 8 512-2q-34-9-65-10h-9q-36 2-67 6-53 4-105.5 19.5T162 57.5 81 135q-26 43-26 97v14z"/><glyph unicode="t" horiz-adv-x="710" d="M-104 793v10q0 31 15 55 18 28 50 29 18 0 32.5-6T25 865t30-15q17-6 34.5-11.5t37-9 33-6 37-4.5 33-3 37-2.5T301 811q-2 29-2 104 0 250 16 349 1 22 17.5 35.5T371 1315h4q51 0 61-80 4-70 4-121l-2-194q0-76 2-111h10q10 0 27.5.5t37 1.5 41 2 36.5 2q23 4 52 4 18 1 38-1 52-4 53-32 0-73-291-108 1-46 9.5-135.5T463 442q22-244 65-393 9-19-7.5-36T479-4 433 6.5 398 38t-24 42.5-17 52-11 51.5-8 50.5-6 39.5l-25 400q-1 0-34.5.5t-40.5 1-39 1.5-44.5 2-40.5 3-44 5-38 6.5-39 8.5-32 11q-24 9-40.5 32.5T-104 793z"/><glyph unicode="u" horiz-adv-x="946" d="M84 333.5V387q0 271 41 369 5 20 23 36.5t42 16.5q29 0 45.5-20.5T252 741q0-47-7-181t-7-204q0-81 19.5-154t53.5-73q52 0 95.5 51.5t70 128.5T528 476t43 167 42 128.5 51 51.5q52 0 71-32t19-91q0-14-3-74.5T748 522q0-383 147-383 31 0 56 16t32 17q17 6 31-6.5t14-26.5q0-63-57.5-94T842 14q-51 0-91 23t-63 57.5-37.5 81.5-19.5 87-6 81q-20-66-49-127T505 96.5 404.5 1 281-35q-32 0-58.5 10T177 .5t-34.5 42-25 49.5-16 59-10 60.5T86 275t-2 58.5z"/><glyph unicode="v" horiz-adv-x="761" d="M31 735q-2 10-2 19-1 14 3 26 6 22 25 33 18 8 46 1.5t38-30.5q18-40 101-269.5T371 197q14 31 31.5 96.5t32 132.5T474 567.5 527.5 698t74.5 91q42 32 91 32h9q22-3 40-17t18-34q0-6-15-29-27-31-49.5-63.5t-43-77.5-32.5-70-30-85-22.5-74.5-23.5-87-20-76.5q-5-19-12.5-57T497 84t-19-59-32.5-52T397-57q-3 0-8-1t-9.5-1-8.5 2q-59 5-70 32-68 120-145.5 349.5T31 735z"/><glyph unicode="w" horiz-adv-x="1064" d="M82 770q0 33 26.5 58t59.5 30q39 0 63.5-24.5T256 770q0-22-2-64.5t-2-56.5q-8-236-8-237 0-92 11-144t42-53q26 1 42.5 76T363 462t25.5 202T436 817q10 30 43 33 34 1 52-24t18-64V547q2-79 20-166t51-155 72-74h5q35 0 65 87 32 94 48 223t24 239q6 88 6 132v19q0 35 11.5 52.5T895 922q29 0 55.5-16t26.5-42q2-47 2-131 0-129-14-236t-50-284q-19-84-82-151T690-8q-50 0-92 26-29 19-49.5 40t-36 51.5-22 46.5-20 60-17.5 56q-7-19-19.5-63.5t-23.5-76-29.5-66-47.5-54T266-8h-24q-77 0-112 149-28 122-33 421-1 28-1 38z"/><glyph unicode="x" horiz-adv-x="667" d="M-27-25q-1 7-1 14 0 40 20 86 23 55 58.5 105.5t71.5 98 60 92.5q20 38 20 66 0 5-1 9-2 28-31 81t-59 117-35 118q-2 24 8.5 46.5T121 836q6 1 12 1 36 0 62-26 29-37 64-125t52-119q28 29 92.5 114t118 138.5T625 885q5 1 10 1 17 0 33-13 21-17 22-46 2-24-26-62.5T593.5 682t-86-90.5T429 493t-42-94q-1-5 0-10 0-43 43-120 49-87 98-105h7q3 0 14.5 7t19.5 7q20 0 29-18 1-7 3.5-21t2.5-22q2-6 2-13 0-26-29-57-36-39-71-41h-10q-31 0-58 15-31 18-53.5 50.5T345 138l-36.5 73-34.5 59q-16-19-67.5-105.5T106 12.5 25-55h-3Q8-55-8-46q-18 10-19 21z"/><glyph unicode="y" horiz-adv-x="763" d="M2 797q-1 5-1 10 0 25 21 41 24 20 50 20 21-1 36.5-13.5t30.5-45 24-58 27-83.5q31-95 90.5-226T403 231q39 84 73.5 183.5t71 223T602 813q11 29 60 29 65-3 65-72v-6q-4-60-37-182t-64-214l-32-92Q514 54 414.5-140T225-442q-23-37-88-37-32 3-47 26t-12 50q0 24 17 54t42 52q45 55 82 114.5T279-76t67 142q-61 58-120.5 159.5T122.5 435t-74 201T2 797z"/><glyph unicode="z" horiz-adv-x="778" d="M43 172q0 46 33 70 19 16 87.5 74t102 86.5 89 78T455 573t86 86q0 4-9.5 8.5t-30 7.5-48.5 3q-110 0-246-35-30-7-56.5 3T117 684q-9 24 3.5 48.5T164 766q119 43 293 43 54 0 107.5-11.5T660 757t42-69q0-33-34.5-83.5t-97.5-112-115.5-109-124.5-108-90-76.5q33-18 98-37t133-19q56 0 90 3t90 19 119 48q23 7 41 7 33 0 43-25 6-14 6-27 0-34-39-64-56-37-103.5-58.5T616 15.5t-85.5-10T430 4q-93 0-191.5 28.5T76 115q-33 18-33 57z"/><glyph unicode="{" horiz-adv-x="710" d="M53 528q0 32 15.5 59t39 44 51 38 51 41 39 52.5T264 836q0 67-10.5 112.5t-23 67-23 71T197 1210q0 101 62 184.5T418 1507q35 11 58.5-2.5T500 1458q0-18-19-35.5t-46-35-53.5-38.5-45.5-55-19-77q0-33 13-76.5t29-82.5 29-105 13-138q0-47-14.5-88T355 663.5 314 613t-33-42q81-30 81-180L344 2q0-109 123-158 8-3 56.5-12t76-25.5T627-240q0-39-41-57t-99-18q-55 0-90 12-97 30-156.5 114T182 8q2 76 19.5 195T219 399q0 47-29 62-9 3-49 9t-64 19-24 39z"/><glyph unicode="|" horiz-adv-x="514" d="M168 930q0 324 12 493 0 12 17 21.5t28 9.5q20 0 35-10t16-29q22-134 36-296t21-375.5T343 405t4.5-387.5T350-303q0-36-25-53t-59-17q-41 0-63.5 38T180-250q1 181-5.5 589T168 930z"/><glyph unicode="}" horiz-adv-x="710" d="M82 1436q0 73 139 73 61 0 90-10 98-32 156-114.5t57-198.5q-1-74-18-192.5T489 799q0-51 27-62 10-4 48.5-10.5T627 707t24-39q0-38-21.5-67.5T578 550t-60.5-43.5-52-59T444 362q0-66 10.5-111.5T478 183t23.5-72T512-14q0-102-61.5-184T291-311q-34-11-58 2.5T209-264q0 19 18.5 37t45.5 35.5 54 39T372.5-96 391-18q0 39-21.5 96t-43 134.5T305 381q0 47 15 88t32.5 64.5 41 51.5 32.5 42q-80 28-80 182l21 385q0 107-125 162-9 2-42 7.5t-55.5 11.5-42.5 21.5-20 39.5z"/><glyph unicode="~" horiz-adv-x="1116" d="M82 612q0 48 19.5 101.5t56 102.5 98 81.5T391 930q72 0 126-25.5t85-61.5 57-72 57.5-61.5T786 684q48 0 81 30.5t40 86.5q11 66 21 82 11 15 28 18 31 5 54.5-14t23.5-68q0-142-67.5-222.5T768 516q-62 0-111 25.5t-81 62-60.5 73-64 62T375 764q-55 0-95-39t-55-109q-4-26-8.5-42t-18-32-34.5-16q-43 0-62.5 18.5T82 612z"/><glyph unicode="¡" horiz-adv-x="540" d="M166-418q0 168 10.5 369T213 326t61 174q66 0 66-439 0-79-4.5-212.5T330-311q0-78-26.5-134.5T225-502q-22 0-40.5 22.5T166-418zm4 1200q0 28 38.5 71.5T274 897q34 0 67.5-26t33.5-58q0-100-129-100-35 0-55.5 17.5T170 782z"/><glyph unicode="¢" horiz-adv-x="899" d="M57 430q-3 55 42.5 115T215 654t133 84 113 55q8 118 8 163-3 38 16 64.5t58 30.5q35 6 59-21t27-67l2-127q7-1 18-2.5t40-7.5 51-13.5 41-20.5 20-28q0-22-11.5-40.5T764 705q-12-1-66.5-2.5T625 696l-43-297q153 19 184 25 2 0 9.5.5t11 0 7.5-3.5 5-9q0-27-9.5-40T754 348q-28-11-78-22.5T590 308l-35-5q-5-18-12-45.5t-18.5-86T514 88q2-48-7-68.5T467-4q-30-1-55 32t-31 74q-2 32 .5 58.5t9.5 65 10 65.5q-5 0-37-4t-53-4Q74 283 57 430zm197 23q8-76 170-56 21 164 33 248-46-15-90.5-39t-81-66.5T254 453z"/><glyph unicode="£" horiz-adv-x="958" d="M82 80q0 32 25.5 54t63 37 76 32 68 50.5T350 336q7 95-6 176l-225 14q-37 15-37 43 0 32 23 53.5t55.5 29T225 662t55 2l23-2q-12 26-29.5 69t-47 152-29.5 190q0 121 84 193.5t221 72.5q75 0 151-35t124-88 48-104q0-49-80-49-23 0-40.5 16.5T672 1119t-34 46-55.5 39.5T496 1221q-144 0-144-148 0-38 3-73t11.5-70 14.5-58.5 20-59 20-50 24-53 22-47.5h180q53 0 53-52 0-25-21.5-45.5t-54-31.5-65-16.5T500 512q13-77-5.5-174.5T420 180q112 0 217 16t174 32 92 16q31 0 57.5-31t26.5-59q0-55-41-66-76-23-183.5-34.5t-174-13T409 39h-32L156 0q-46 0-60 16T82 80z"/><glyph unicode="¥" horiz-adv-x="952" d="M33 1239q-12 31 3 58.5t54 27.5q58 0 88-49 36-51 138.5-249.5T467 762q23 98 68 204t99.5 194.5 118.5 146 119 57.5q22 0 31.5-17t5.5-41.5-18-48.5q-118-175-184-309t-95-262q239-14 289-22 17-3 19-21 9-30 1.5-54.5T895 551q-31-10-98-10-20 0-55.5 1t-45.5 1q-74 4-110 4-12-73-15-156 310-29 324-31 23-8 25-30 9-26-2-41t-27-19q-75-14-158-14l-166 6V4q0-33-17-60.5T496-84q-79 0-93 90-10 123-10 258-221 9-301 25-13 3-16 18-10 30-2 56.5t26 35.5q31 15 99 15 23 0 56-1t44-1q36-7 92-11-1 13-2 38t-2 36q-6 27-14 74-170 0-273 16-21 4-24 29-16 46 28 57 86 23 222 33-40 92-149 280.5T33 1239z"/><glyph unicode="¦" horiz-adv-x="512" d="M168 256q0 27 .5 40.5t4 43.5 11 46 23.5 30 39 14q20 0 36.5-13.5T303 381q43-117 43-332l-6-287q0-42-17-80t-57-38q-52 0-67 51-14 85-22.5 266T168 256zm6 1034q0 97 4 109 3 47 49 47 28 0 45-8t24-25 9-31.5 2-38.5q0-64 19.5-318.5T346 760q1-38-27.5-59T256 680q-31 0-53.5 37.5T180 801q0 8-3 200t-3 289z"/><glyph unicode="§" horiz-adv-x="937" d="M115-164q0 64 18 129 15 51 66 51 31 0 51-29.5T270-80q0-63 21-122.5T359.5-305 471-348q79 0 135 61t56 172q0 51-29 101t-75.5 93-102 87T344 256t-102.5 94.5T166 459t-29 123q0 87 31.5 164.5T266 858q-129 139-129 264 0 142 103.5 219.5T496 1419q64 0 137.5-16t132.5-50.5 59-78.5q0-62-59-62-42 0-125.5 18.5T489 1249q-38 0-78.5-13.5t-73-45T305 1116q0-37 26-81t67-87.5 91-92T589.5 752 681 639.5 748 512t26-141q0-58-27-107.5T674 182Q823 40 823-115q0-197-95-304T465-526q-82 0-150 31t-110.5 82.5-66 115.5T115-164zm174 764q0-32 14-64.5t32-57.5 55-59.5 62-54.5 74-59q84 35 84 115 0 34-16 69.5T539.5 571 475 643.5 391 727q-49-1-75.5-42.5T289 600z"/><glyph unicode="¨" horiz-adv-x="811" d="M92 1153q0 51 39 87t90 36 83-34 32-83q0-50-33.5-94.5T221 1020q-42 0-85.5 45.5T92 1153zm373 0q0 59 33 95t88 36q56 0 90.5-42.5T711 1143q0-121-115-121-60 0-95.5 36t-35.5 95z"/><glyph unicode="©" horiz-adv-x="1746" d="M109 610q0 159 50.5 305.5t142 260T534 1357t310 68q167 0 315.5-64.5t252.5-173T1576 933t60-306q0-122-28.5-232.5t-88.5-205T1372.5 26t-209-109T895-125q-139 0-240.5 17T463-47.5t-158.5 121T182 268q-73 162-73 342zm155-37q0-170 87-293.5T584.5 98 915 47q598 15 560 637-8 83-36 163.5t-82 158-127 136-179 94.5-230 36q-103 0-193-39t-155.5-107T359 969.5t-71.5-190T264 573zm252 39q0 73 20 137.5t58.5 116 103 81.5T844 977q141 0 258-84 43-33 43-76t-37.5-67-87.5-2q-86 63-166 63-72 0-127-48t-55-126q0-49 16-88 20-45 62.5-74t85.5-29q40 0 73.5 15.5t51 34.5 39.5 43 36 34q37 18 64 0 23-13 25-35.5t-7-41.5q-27-74-101.5-126.5T858 317q-153 0-247.5 80.5T516 612z"/><glyph unicode="ª" horiz-adv-x="892" d="M109 297q0 76 141 76 24 0 190.5 4t204.5 4q62 0 95.5-17t33.5-63q0-21-6.5-37.5T747 238t-26.5-15-34.5-8-33.5-2.5-34 0-26.5.5q-315 0-393 8-90 10-90 76zm7.5 492.5Q117 835 119 868q4 52 21.5 123t46.5 149 77 131.5 103 53.5q68 0 127.5-34t99.5-101q4-10 19-9t30.5 5.5 30.5-2.5q31-22 31-70 0-13-2-27t-6-30-5-23q-6-113 14-200.5T774 625q9-27 3-53t-13-31q-19-14-49.5-15.5T674 535q-46 36-87.5 103T541 754q-3-5-34.5-67.5T457 594q-30-48-77.5-84T283 479q-43 5-76 37.5T156.5 594t-29 97.5-11 98zM252 778q0-57 13-94.5t42-36.5q34 0 73 65.5T445 871t26 169v62q-2 27-22.5 53t-45.5 29q-21 0-40.5-20t-34-53-25-63-20.5-64.5-13-43.5q-18-81-18-162z"/><glyph unicode="«" horiz-adv-x="1198" d="M82 389q0 52 36.5 131.5t80 145.5T298 814.5 373 930q14 31 51 31 46-3 73.5-35.5T522 848q0-29-22.5-67T445 703t-64.5-82.5T325 528t-24-96q-1-47 33.5-95t84-87 99-73.5 84-65T635 61q0-29-24.5-53.5T555-14q-19 0-41 6T476 4.5 436 26t-34.5 22.5-35.5 26T336 96q-47 33-101.5 80.5T131.5 286 82 389zm479 53q0 52 36 132.5T675 720t99.5 149.5T850 985q25 33 51 33 46-4 74.5-38.5T999 901q0-33-33.5-84.5t-74.5-99T815 606t-37-119q-1-40 23.5-81t62-74 81.5-66 82-57.5 63-48.5 24-41q0-32-24.5-57T1036 43q-29 0-64.5 13.5t-54.5 25-58.5 39.5-43.5 31q-82 56-166.5 143T561 442z"/><glyph unicode="­" horiz-adv-x="741" d="M137 602q0 35 16.5 54.5T199 676l276 24q56 0 92.5-22t36.5-68q0-65-78-71-46 2-132.5-17.5T266 502q-54 0-91.5 27.5T137 602z"/><glyph unicode="®" horiz-adv-x="1746" d="M109 610q0 159 50.5 305.5t142 260T534 1357t310 68q167 0 315.5-64.5t252.5-173T1576 933t60-306q0-122-28.5-233T1519 188 1372.5 23.5t-209-109T895-125q-123 0-240 33.5T439.5 7t-173 153.5-116 204.5T109 610zm155-37q0-171 87-298.5t234-190T915 29q299 10 439 177t121 478q-8 83-36 163.5t-82 158-127 136-179 94.5-230 36q-103 0-193-39t-155.5-107T359 969.5t-71.5-190T264 573zm328-268q33 535 33 635 0 61 29 86.5t83 32.5q184 12 284.5-49.5T1122 813q0-76-51-142t-125-81q30-30 70-53t107-52 87-39q65-45 54-73-6-29-32-41t-69 0q-9 3-57 18t-63 20-56 19.5-61.5 25.5-52 27-55.5 34.5-46 39.5l-6 8q0-139-10-213-6-41-28.5-60.5T672 231q-74 0-80 74zm180 400q42-10 86.5-1.5t79.5 34 35 53.5q5 37-6.5 64t-34 40-44.5 19-44 6q-19 0-36.5-3t-25.5-7l-8-3q0-9 2-38t2-46q0-19-6-118z"/><glyph unicode="¯" horiz-adv-x="659" d="M57 1065q0 35 30 56.5t73 21.5q30 0 62.5-1t86.5-4.5 100-11.5 90-19.5 69.5-32T594 1028q0-23-15.5-38.5T539 975q-41 2-109 2-51 0-136.5-6T164 965q-41 0-74 31t-33 69z"/><glyph unicode="°" horiz-adv-x="720" d="M82 930q0 60 26.5 123.5t53 104.5 26.5 44l-8 43q0 21 25 33t51 12q28 0 68-16 315-191 315-363 0-108-85.5-163.5T354 692q-118 0-195 60.5T82 930zm164 6q0-33 26.5-57.5T346 854q34 0 66 7t60 30.5 28 60.5q0 45-46.5 97.5T362 1102q-47 0-81.5-57T246 936z"/><glyph unicode="±" horiz-adv-x="1021" d="M109 766q0 37 32.5 61t73.5 31l215 10q-4 178 6 250 3 43 23 66.5t61 17.5q87-5 78-135l-12-193q25-3 126.5 1.5T846 872q25-2 44.5-17t18.5-42q-4-37-68-55t-149-23.5-98-9.5q-4-63-2.5-90.5t9-83.5 9.5-84q90 2 203 2h30l24.5-3 23-8 12.5-16.5 6-27.5q0-58-92-86-13-3-284.5-31.5T246 268q-40 0-74.5 23.5T137 352q0 40 28.5 68.5T240 457q29 4 190 8-3 42-5 121t-5 127q-32-15-117-22t-123-3q-34 6-52.5 27T109 766z"/><glyph unicode="²" horiz-adv-x="768" d="M82 1210q0 27 44.5 70.5t109.5 77 114 33.5q94 0 142.5-54t48.5-145q0-94-88-258-86-150-129-234 9-2 20.5-2t25 1 19.5 1q165 0 260 29 26 7 46-2.5t20-36.5q0-82-148-108-70-11-192-11-118 0-180 11-23 3-39.5 20.5T145 639q18 45 87.5 156T357 1010t55 164q0 36-21 61t-51 25q-62 0-125-66-3-3-14.5-13.5t-14-12-12-8-14.5-8-14-3.5-19-2q-19 0-32 18t-13 45z"/><glyph unicode="³" horiz-adv-x="673" d="M82 1239q0 40 20 53 155 109 269 109 58 0 103.5-31t45.5-94q0-69-50-143.5T350 997q23-11 65-28t67.5-29.5 53.5-32 42-46.5 14-62q-1-56-48-103.5T430 621t-131.5-41.5T188 565q-57 0-57 47 0 59 51 66 271 48 271 121 0 25-36 46t-79 33.5-79 37.5-36 57q0 26 27.5 60t60 64 61 72.5T401 1251q0 10-7.5 17.5T373 1276q-32 0-78-27t-89-53.5-67-26.5q-23 0-40 21t-17 49z"/><glyph unicode="´" horiz-adv-x="796" d="M215 1028q0 50 130 171t175 130q43 7 74-18t18-74q-10-35-173-137.5T244 997q-18 0-23.5 7.5T215 1028z"/><glyph unicode="µ" horiz-adv-x="1005" d="M84-244q6 84 20 631 0 86 10 199.5T143 756q9 21 28 37t44 16q27 0 42-20.5t15-47.5q0-47-8-181t-8-204q0-81 20.5-154t55.5-73q61 0 109.5 71.5T520 374t54.5 204T627 751.5t59 71.5q52 0 69-31t17-92q0-14-1-74.5T770 522q0-383 145-383 34 0 58.5 16t27.5 17q21 5 33.5-6.5T1047 139q0-63-56-94T862 14q-63 0-108 33.5T687 135t-31.5 105T645 344q-19-65-47.5-127T527 96 426.5 1 303-35q-33 0-76 17 29-198 29-244 0-52-24.5-87T168-377q-38 3-62.5 37T84-244z"/><glyph unicode="¶" horiz-adv-x="1099" d="M55 850q-5 66 25 127t83.5 108 126.5 87.5 150.5 69.5 159 51 148.5 34.5 122 18.5q35 7 52-15t24-69q17-177 17-410 0-225-21.5-659T918-311q0-30-48-37-43-3-64 25.5T778-242q-4 18-4 103 0 217 8 291 0 2 1.5 44t4 109.5T792 453t3.5 174 1.5 172q0 312-25 323-9 11-50-.5t-48-29.5q-20-45-31.5-378T631 215v-21q1-558-82-573-20-8-39.5 6T487-328q-18 125-18 443 0 295 10 428-166 37-243 73Q62 697 55 850z"/><glyph unicode="·" horiz-adv-x="446" d="M109 700q0 50 25.5 88.5T209 827q56 0 93.5-49.5T340 672q0-47-29.5-82T238 555q-56 0-92.5 43.5T109 700z"/><glyph unicode="¸" horiz-adv-x="647" d="M82-489q0 17 9 25t19.5 9.5T143-453q33 0 78.5 9t95.5 27.5 84.5 54T436-281q0 27-23.5 46.5T354-215q-24 0-47.5-22.5t-47.5-45-50-22.5q-32 0-57 25t-25 59q0 37 35 144t35 161q0 26 19 43.5t46 17.5q29 0 48.5-28T330 55q0-22-10-61.5T300-75l-9-29q58 14 86 14 85 0 137.5-58.5T567-295q0-61-36-116t-90-91.5-114.5-58T215-582q-44 0-88.5 27T82-489z"/><glyph unicode="¹" horiz-adv-x="487" d="M88 1212q-8 17 4 44t37 49q98 82 143 79 22 0 37.5-8.5t23-18 11-30 4-30.5.5-33q-3-31-5.5-86.5t-6-235T346 598q1-23-16.5-36T291 549q-27 2-50 21t-24 61q0 2-.5 7.5t-1 19-1 36-1 67.5-.5 105q6 288 6 361-3-2-12.5-7t-18-10.5-14.5-9.5q-14-14-46.5-12.5T88 1212z"/><glyph unicode="º" horiz-adv-x="811" d="M109 297q0 76 141 76 24 0 152.5 4t166.5 4q63 0 97-17t34-63q0-21-6.5-37.5t-21-25.5-27-15-35-8-34-2.5-35 0-27.5.5q-237 0-315 8-90 10-90 76zm5.5 482q-2.5 43 .5 86v44q0 52 5.5 102t23 110 45.5 104 79.5 74 118.5 30 126-47.5 95.5-117.5 57-144T686 887q0-92-46.5-179.5T511 563t-175-57q-54 0-94.5 14.5T178 561t-38 60.5-19 74.5-6.5 83zM244 850q0-36 2-59t9.5-54 27-47 49.5-16q97 0 159 76t62 172q0 54-20 115t-62.5 109-95.5 48q-35 0-61.5-29t-41-79.5T251 976t-7-126z"/><glyph unicode="»" horiz-adv-x="1198" d="M84 885q0 29 24.5 52.5T164 958q13 0 26.5-2t27.5-7 25-9.5 26.5-13.5 24-13.5 25-16.5 22-15.5 22-16T381 850q47-30 102.5-79t104-111.5T637 555q0-50-36.5-129T521 280.5t-98.5-149T348 16q-21-32-51-32-49 6-77 38t-23 76q0 28 22.5 66t54.5 78 64.5 82.5 55.5 93 24 96.5q2 47-32.5 96t-84 87.5-99.5 73-84.5 64.5T84 885zm481 53q0 32 22 56t52 20q23 0 47-6.5t51.5-22 42.5-25 45.5-31.5 36.5-26q47-32 101-79t103-109 50-103q0-51-37-131t-79-144.5T899 187 823 74q-12-35-51-35-44 5-71.5 37T676 154q0 28 22.5 65.5t54.5 77 64.5 82 55.5 93 24 97.5-33.5 95-84.5 86.5-100 73-83.5 64.5-30.5 50z"/><glyph unicode="¼" horiz-adv-x="1320" d="M82 1227q0 27 19 53.5t46 44.5 55 32 47 20.5 21 6.5q22 0 37.5-8.5t23-18 11-30 4-30.5.5-33q-14-133-14-346 0-201 12-320 0-23-16.5-36T289 549q-27 2-50 21t-24 61q0 2-.5 7.5t-1.5 19-2 36-1.5 67.5-.5 105q0 34 4.5 153t3.5 208q-7-3-22.5-13.5t-31.5-17-32-6.5q-49 0-49 37zM188-76q0 15 7 29 50 189 280.5 681.5T801 1282q16 16 39 16 19 0 38-13.5t19-33.5q0-12-2-16Q603 561 272-98q-7-21-34-21-50 0-50 43zm537 625q0 39 3.5 78.5t12 83.5 27 71 43.5 27q28 0 41.5-19t13.5-49q0-18-8-85.5T850 555q0-88 34.5-140.5T991 362q33 0 53 9 0 53 14.5 144t41 171 53.5 80q13 0 21-1.5t19.5-7.5 16-22.5.5-42.5q-2-13-9-65.5t-10.5-76.5-9.5-75-9.5-85.5-7.5-80-5.5-87.5-1.5-81q0-122 10-196 0-21-15.5-35t-37.5-14q-19 0-33 11t-22.5 32.5-14 43T1037 35t-2.5 50.5-.5 47.5q0 25 4 111-16-2-47-2-125 0-195.5 87T725 549z"/><glyph unicode="½" horiz-adv-x="1400" d="M88 1212q-8 17 4 44t37 49q98 82 143 79 22 0 37.5-8.5t23-18 11-30 4-30.5.5-33q-3-31-5.5-86.5t-6-235T346 598q1-23-16.5-36T291 549q-27 2-50 21t-24 61q0 2-.5 7.5t-1 19-1 36-1 67.5-.5 105q6 288 6 361-3-2-12.5-7t-18-10.5-14.5-9.5q-14-14-46.5-12.5T88 1212zM197-47q50 188 280 678.5T803 1282q16 16 39 16 24 0 44.5-18t10.5-45Q567 475 274-98q-7-21-34-21-32 0-41.5 20.5T197-47zm491 674q0 28 44.5 71.5t109.5 77T956 809q94 0 141.5-55.5T1145 604q0-38-14.5-87t-29.5-82-42-87q-91-163-129-231 8-1 19.5-1t25 .5 18.5.5q167 0 264 26 25 8 43.5-1.5T1319 104q0-44-41-71T1171-2q-98-12-188-12-92 0-182 12-24 2-39.5 19.5T756 53q14 39 59.5 117t89 148T983 466t35 126q0 35-20.5 59.5T946 676q-57 0-127-66-23-26-40.5-35.5T733 565q-16 0-30.5 18.5T688 627z"/><glyph unicode="¾" horiz-adv-x="1529" d="M82 1212q0 39 20 52 148 108 269 108 59 0 104-30t45-93q0-69-50.5-144T350 973q24-13 65-30t67-30 54-32.5 42-47 14-63.5q-1-55-48-102t-114-73.5-131.5-41T188 539q-57 0-57 47 0 28 11 43.5t40 19.5q3 1 28.5 6t45.5 9.5 51 12.5 54 17.5 45.5 21T441 741t12 29q0 27-36 48.5t-79 34-79 36.5-36 55q0 27 27.5 62.5t60 65.5 61 71.5T401 1223q0 11-7.5 18.5T373 1249q-32 0-78-26.5t-89-53-67-26.5q-23 0-40 20t-17 49zM362-47q52 191 284.5 684T973 1282q8 16 33 16 27 0 48.5-18t10.5-45Q719 444 442-98q-7-21-39-21-30 0-39.5 20.5T362-47zm539 596q0 38 4 78.5t12.5 83.5 26.5 70.5 43 27.5q55 0 55-68 0-18-7-85.5t-7-100.5q0-89 34-141t107-52q31 0 54 9 0 53 14.5 144t41.5 171 54 80q13 0 21-1.5t19.5-7.5 15.5-22.5 0-42.5q-54-345-54-551 0-117 8-196 0-21-15.5-35t-37.5-14q-19 0-33 11t-22.5 32.5-14 43T1213 35t-2.5 50.5-.5 47.5q0 36 7 111-16-2-48-2-125 0-196.5 87.5T901 549z"/><glyph unicode="¿" horiz-adv-x="645" d="M109-319q0 75 45.5 193.5t91 232T291 283q0 14-11 29.5T256 328q-14 0-32-19.5T190 289q-32 0-26 47 6 59 55.5 107.5T317 492q59 0 91-49t32-113q0-71-29.5-165T345-4.5t-65.5-161T250-307q0-43 47-43 32 0 69.5 23.5t65.5 52 58.5 52T541-199q22 0 36.5-21.5T592-266q0-54-54-113.5t-127.5-98T281-516q-172 0-172 197zM242 817q0 34 27.5 57t60.5 23q41 0 64.5-35t23.5-78q0-41-22-76.5T336 672q-94 0-94 145z"/><glyph unicode="À" d="M29 440q0 25 17.5 44.5t42 29.5 49 16.5T180 539l17 2q111 611 155 774 18 69 88 69 25 0 48.5-21t37.5-65q24-67 102.5-363.5T719 598q64 4 125 4 91 0 96-10 9-15-6-39-16-21-62.5-43.5T786 475l-38-12Q836 164 899-4q13-35-12-61.5T823-92q-25 0-53 37t-52 89.5-48.5 121-40 122-29 102T586 430l-271-31q-7-34-18.5-87.5t-42.5-161T199 4q-9-13-20.5-19T159-21t-19.5 1.5T125-18Q94-18 70.5 2T57 57q28 80 55 162.5T152 344l12 43q-5-1-14.5-3t-32.5-3.5-41 2.5-32.5 18T29 440zm196 1266q-11 46 20.5 71.5T319 1796q27-4 101.5-63.5t140.5-132 66-105.5q0-16-6.5-23.5T596 1464q-33 0-196.5 103.5T225 1706zM346 561l207 21q-34 125-72 312t-43 230q-30-234-92-563z"/><glyph unicode="Á" d="M29 440q0 25 17.5 44.5t42 29.5 49 16.5T180 539l17 2q111 611 155 774 18 69 88 69 25 0 48.5-21t37.5-65q24-67 102.5-363.5T719 598q64 4 125 4 91 0 96-10 9-15-6-39-16-21-62.5-43.5T786 475l-38-12Q836 164 899-4q13-35-12-61.5T823-92q-25 0-53 37t-52 89.5-48.5 121-40 122-29 102T586 430l-271-31q-7-34-18.5-87.5t-42.5-161T199 4q-9-13-20.5-19T159-21t-19.5 1.5T125-18Q94-18 70.5 2T57 57q28 80 55 162.5T152 344l12 43q-5-1-14.5-3t-32.5-3.5-41 2.5-32.5 18T29 440zm241 1057q0 35 65.5 108T475 1736.5t100 61.5q44 7 76-17.5t21-70.5q-11-36-175-139t-196-103q-19 0-25 7t-6 22zm76-936l207 21q-34 125-72 312t-43 230q-30-234-92-563z"/><glyph unicode="Â" d="M29 440q0 25 17.5 44.5t42 29.5 49 16.5T180 539l17 2q111 611 155 774 18 69 88 69 25 0 48.5-21t37.5-65q24-67 102.5-363.5T719 598q64 4 125 4 91 0 96-10 9-15-6-39-16-21-62.5-43.5T786 475l-38-12Q836 164 899-4q13-35-12-61.5T823-92q-25 0-53 37t-52 89.5-48.5 121-40 122-29 102T586 430l-271-31q-7-34-18.5-87.5t-42.5-161T199 4q-9-13-20.5-19T159-21t-19.5 1.5T125-18Q94-18 70.5 2T57 57q28 80 55 162.5T152 344l12 43q-5-1-14.5-3t-32.5-3.5-41 2.5-32.5 18T29 440zm145 971q0 42 55.5 131.5t122 162.5 94.5 73q36 0 98-83t107-170.5 45-109.5q0-31-8.5-41t-32.5-10q-17 0-73 54t-103 108l-47 55q-7-8-18.5-22.5t-42.5-51-57-65-52-53-37-27.5q-20-10-35.5 5t-15.5 44zm172-850l207 21q-34 125-72 312t-43 230q-30-234-92-563z"/><glyph unicode="Ã" d="M29 440q0 25 17.5 44.5t42 29.5 49 16.5T180 539l17 2q111 611 155 774 18 69 88 69 25 0 48.5-21t37.5-65q24-67 102.5-363.5T719 598q64 4 125 4 91 0 96-10 9-15-6-39-16-21-62.5-43.5T786 475l-38-12Q836 164 899-4q13-35-12-61.5T823-92q-25 0-53 37t-52 89.5-48.5 121-40 122-29 102T586 430l-271-31q-7-34-18.5-87.5t-42.5-161T199 4q-9-13-20.5-19T159-21t-19.5 1.5T125-18Q94-18 70.5 2T57 57q28 80 55 162.5T152 344l12 43q-5-1-14.5-3t-32.5-3.5-41 2.5-32.5 18T29 440zm88 1080q0 49 23 99.5t75 90 121 39.5q37 0 66-9t54-30 35.5-32.5T524 1638q2-3 11-12.5t12.5-13 11.5-11 13-10.5 13-5.5 15-2.5q58 0 74 76 2 18 3 24t5 18.5 11.5 18.5 19.5 9q27 2 48-13.5t21-52.5q0-103-48-161t-142-58q-14 0-26.5 2t-22.5 3.5-21 7-17.5 8-17 11T473 1487t-14.5 14-13 13.5-13 15T420 1544q-20 26-29.5 36.5t-28 22T324 1614q-30 0-52.5-26.5T240 1520q-6-23-9.5-33t-16.5-23.5-32-13.5q-34 0-49.5 15t-15.5 55zm229-959l207 21q-34 125-72 312t-43 230q-30-234-92-563z"/><glyph unicode="Ä" d="M29 440q0 25 17.5 44.5t42 29.5 49 16.5T180 539l17 2q111 611 155 774 18 69 88 69 25 0 48.5-21t37.5-65q24-67 102.5-363.5T719 598q64 4 125 4 91 0 96-10 9-15-6-39-16-21-62.5-43.5T786 475l-38-12Q836 164 899-4q13-35-12-61.5T823-92q-25 0-53 37t-52 89.5-48.5 121-40 122-29 102T586 430l-271-31q-7-34-18.5-87.5t-42.5-161T199 4q-9-13-20.5-19T159-21t-19.5 1.5T125-18Q94-18 70.5 2T57 57q28 80 55 162.5T152 344l12 43q-5-1-14.5-3t-32.5-3.5-41 2.5-32.5 18T29 440zm98 1108q0 53 38 88t89 35q52 0 84.5-33.5T371 1554q0-48-35-93.5t-82-45.5q-43 0-85 46t-42 87zm219-987l207 21q-34 125-72 312t-43 230q-30-234-92-563zm152 987q0 60 32.5 96.5T618 1681q56 0 88.5-42.5T739 1538q0-60-25.5-90.5T629 1417t-95 36.5-36 94.5z"/><glyph unicode="Å" d="M29 440q0 25 17.5 44.5t42 29.5 49 16.5T180 539l17 2q99 544 145 735-81 21-127.5 77T168 1499q0 46 16 97t36 85 36 61 16 30q0 9-3 22.5t-3 17.5q0 24 25.5 36t52.5 12q32 0 62-15 319-195 319-360 0-86-53.5-139T535 1274q25-77 95.5-346T719 598q64 4 125 4 91 0 96-10 9-15-6-39-16-21-62.5-43.5T786 475l-38-12Q836 164 899-4q13-35-12-61.5T823-92q-25 0-53 37t-52 89.5-48.5 121-40 122-29 102T586 430l-271-31q-7-34-18.5-87.5t-42.5-161T199 4q-9-13-20.5-19T159-21t-19.5 1.5T125-18Q94-18 70.5 2T57 57q28 80 55 162.5T152 344l12 43q-5-1-14.5-3t-32.5-3.5-41 2.5-32.5 18T29 440zm286 1065q0-36 34.5-73t88.5-37q55 0 101.5 37t46.5 92q0 45-51 102t-95 57q-48 0-86.5-63T315 1505zm31-944l207 21q-34 125-72 312t-43 230q-30-234-92-563z"/><glyph unicode="Ç" horiz-adv-x="864" d="M53 336q0 71 12 186.5T106.5 785t70.5 272.5 106.5 212T426 1356q59 0 118.5-72.5T645 1110t66.5-204T737 737q0-41-19.5-65.5T659 647q-27 0-49 11.5T582 692q-7 68-19 137t-31.5 144.5T483 1096t-63 47q-52 0-93.5-93.5t-63-222-32-232.5T221 440v-37l1.5-41 3.5-48 7.5-46 12.5-46.5 19.5-38.5 27.5-33.5 36.5-20L377 121q44 0 90.5 11t84 28 73.5 36.5 64 36 51 27 39 9.5 24-17q15-27-11-71t-77.5-87.5-129-81T430-39l-37-129q44 16 88 16 85 0 138-57.5T672-352q0-81-61.5-150.5T468-607.5 317-643q-43 0-87 28t-44 66q0 24 16 30.5t48 6.5 77.5 9 95 27.5 84 53T541-344q0 30-23.5 51T461-272q-20 0-40-15t-34-32.5-34.5-32.5-41.5-15q-32 0-58 26t-26 60q0 27 11.5 66t30 90T295-43Q176-18 114.5 90.5T53 336z"/><glyph unicode="È" horiz-adv-x="1044" d="M-14 1149q0 88 110 88l119-2q3 8 9.5 20.5T252 1288t43 19q16-1 37-19t34-36l13-17q32 0 137 1t168 1q144 0 224-11t81-46q2-44-51-56-90-16-202.5-25.5t-171.5-11-204-4.5q-16-69-24.5-172T326 740v-68q90 0 213 23t215 59q36 15 80 9.5t51-36.5q4-44-51.5-83t-138-64-166-43.5T387 510l-59-8q0-7 .5-19t3-46.5 7-66T353 301t23-65.5 34-46.5 47-19q76 0 159 24.5T749 244t113 63q50 27 82.5 9t32.5-52q0-30-33-63-72-51-156-99T591 12.5 393-29q-55 0-98.5 39T226 107.5 184.5 241 162 379t-6 121q0 355 39 573-1 0-49.5-4t-67.5-4q-39 0-65.5 23.5T-14 1149zm311 471q-16 47 15.5 72t76.5 20q26-4 99.5-63T627 1517.5t65-106.5q0-16-5-22.5t-23-6.5q-19 0-106.5 48T386 1537t-89 83z"/><glyph unicode="É" horiz-adv-x="1044" d="M-14 1149q0 88 110 88l119-2q3 8 9.5 20.5T252 1288t43 19q16-1 37-19t34-36l13-17q32 0 137 1t168 1q144 0 224-11t81-46q2-44-51-56-90-16-202.5-25.5t-171.5-11-204-4.5q-16-69-24.5-172T326 740v-68q90 0 213 23t215 59q36 15 80 9.5t51-36.5q4-44-51.5-83t-138-64-166-43.5T387 510l-59-8q0-7 .5-19t3-46.5 7-66T353 301t23-65.5 34-46.5 47-19q76 0 159 24.5T749 244t113 63q50 27 82.5 9t32.5-52q0-30-33-63-72-51-156-99T591 12.5 393-29q-55 0-98.5 39T226 107.5 184.5 241 162 379t-6 121q0 355 39 573-1 0-49.5-4t-67.5-4q-39 0-65.5 23.5T-14 1149zm446 256q0 34 66 106.5t139.5 131T737 1706q44 7 75-18t15-72q-7-36-169.5-140T463 1372q-31 0-31 33z"/><glyph unicode="Ê" horiz-adv-x="1044" d="M-14 1149q0 88 110 88l119-2q3 8 9.5 20.5T252 1288t43 19q16-1 37-19t34-36l13-17q32 0 137 1t168 1q144 0 224-11t81-46q2-44-51-56-90-16-202.5-25.5t-171.5-11-204-4.5q-16-69-24.5-172T326 740v-68q90 0 213 23t215 59q36 15 80 9.5t51-36.5q4-44-51.5-83t-138-64-166-43.5T387 510l-59-8q0-7 .5-19t3-46.5 7-66T353 301t23-65.5 34-46.5 47-19q76 0 159 24.5T749 244t113 63q50 27 82.5 9t32.5-52q0-30-33-63-72-51-156-99T591 12.5 393-29q-55 0-98.5 39T226 107.5 184.5 241 162 379t-6 121q0 355 39 573-1 0-49.5-4t-67.5-4q-39 0-65.5 23.5T-14 1149zm317 297q0 43 55 132.5T479.5 1740t95.5 72q36 0 97.5-82.5t106-169.5 44.5-110q0-30-8-40.5t-31-10.5q-19 0-75 54.5T607 1562l-46 54q-170-205-207-221-20-6-35.5 9.5T303 1446z"/><glyph unicode="Ë" horiz-adv-x="1044" d="M-14 1149q0 88 110 88l119-2q3 8 9.5 20.5T252 1288t43 19q16-1 37-19t34-36l13-17q32 0 137 1t168 1q144 0 224-11t81-46q2-44-51-56-90-16-202.5-25.5t-171.5-11-204-4.5q-16-69-24.5-172T326 740v-68q90 0 213 23t215 59q36 15 80 9.5t51-36.5q4-44-51.5-83t-138-64-166-43.5T387 510l-59-8q0-7 .5-19t3-46.5 7-66T353 301t23-65.5 34-46.5 47-19q76 0 159 24.5T749 244t113 63q50 27 82.5 9t32.5-52q0-30-33-63-72-51-156-99T591 12.5 393-29q-55 0-98.5 39T226 107.5 184.5 241 162 379t-6 121q0 355 39 573-1 0-49.5-4t-67.5-4q-39 0-65.5 23.5T-14 1149zm266 373q0 51 39 85.5t88 34.5q50 0 83.5-33t33.5-79q0-49-35-95t-82-46q-43 0-85 46t-42 87zm373 0q0 58 32 96.5t84 38.5q57 0 91-44.5t34-103.5q0-118-110-118-59 0-95 36.5t-36 94.5z"/><glyph unicode="Ì" horiz-adv-x="446" d="M-31 1659q-13 45 18 70t74 18q28-4 103-63t141-131.5 66-106.5q0-31-31-31-33 0-197 103.5T-31 1659zm150-436q-1 48 22.5 69t59.5 23q32 2 54.5-11.5T281 1262q17-261 49-1141 1-47-28.5-74T244 27q-37 1-57.5 30.5T164 127q-29 453-45 1096z"/><glyph unicode="Í" horiz-adv-x="446" d="M72 1479q0 34 65 106t138.5 130.5T375 1778q43 8 74.5-16.5T467 1688q-8-35-172-137.5T98 1448q-16 0-21 7t-5 24zm47-256q-1 48 22.5 69t59.5 23q32 2 54.5-11.5T281 1262q17-261 49-1141 1-47-28.5-74T244 27q-37 1-57.5 30.5T164 127q-29 453-45 1096z"/><glyph unicode="Î" horiz-adv-x="446" d="M-55 1438q0 44 54.5 133.5t121 162T217 1806q36 0 97.5-83.5t106-170.5 44.5-108q0-32-8.5-42.5T424 1391q-19 0-75.5 54.5T246 1554l-47 54Q31 1401-4 1389q-21-10-36 5t-15 44zm174-215q-1 48 22.5 69t59.5 23q32 2 54.5-11.5T281 1262q17-261 49-1141 1-47-28.5-74T244 27q-37 1-57.5 30.5T164 127q-29 453-45 1096z"/><glyph unicode="Ï" horiz-adv-x="446" d="M-90 1554q0 54 38 88.5t91 34.5q50 0 82.5-32.5T154 1561q0-49-35-95.5T39 1419q-46 0-87.5 46t-41.5 89zm209-331q-1 48 22.5 69t59.5 23q32 2 54.5-11.5T281 1262q17-261 49-1141 1-47-28.5-74T244 27q-37 1-57.5 30.5T164 127q-29 453-45 1096zm162 331q0 59 32.5 95.5T401 1686q57 0 90-42t33-100q0-121-110-121-61 0-97 36.5t-36 94.5z"/><glyph unicode="Ð" horiz-adv-x="1320" d="M-27 639q-1 34 35.5 60T88 727q56 0 107-2-7 75-7 133 0 57 7 129 0 65 14 150-16 2-51 4t-76 12q-27 8-43.5 41.5T33 1264q22 82 123 53 86-20 161-39.5t194.5-56.5 215-76 201-96 176-117.5 116.5-140 44-164.5q-1-75-29.5-140t-75-112.5-112-90-134.5-72T764.5 154 617 103.5t-139-47T362 8q-34-15-63-8-28 7-35 55-44 302-63 514-27-1-60-3t-54.5-3.5T61 561q-36-7-58.5 18T-27 639zm367 209q0-23 3-72.5t3-56.5q48 0 135 1t90 1q24 0 39-12t15-33q4-27-1.5-45T602 604.5t-29.5-12T535 586q-50-9-181-13 21-207 49-335 29 8 94.5 23T618 290t125.5 36 125 50 103 64.5 75.5 87 28 109.5q3 58-26.5 112.5T971 846t-115.5 80.5-133.5 65-139.5 50-124.5 36-98 22.5q-9-49-14-135-6-111-6-117z"/><glyph unicode="Ñ" horiz-adv-x="1073" d="M117 748q0 363 28 415 35 35 68 35 45 3 57-27 50-84 156-320t190-417 101-180q33 1 54.5 140T793 725q0 276-48 481-6 52 12 88t54 39q76 2 107-106 18-78 29-243t11-255q-2-55-6-110t-13-143-25-161-39-142-58.5-108.5T737 25q-41 0-100 72.5T521.5 274t-111 222.5-90.5 207T270 836q-4-90-4-140 0-145 20-378.5T303 49q-4-31-26.5-50T221-25q-28 0-55.5 18.5T137 39q-20 287-20 709zm71 714q0 35 15 74t41.5 73.5 71 57.5 96.5 23q17 0 31.5-1.5t28.5-6.5 24-8.5 22-12.5 18-13 17.5-16 15-15.5T584 1599t14-16q17-21 24.5-29.5t23-19T676 1524q56 0 69 73 1 5 3 15.5t3 15 3.5 12 4.5 11.5 5.5 9 8.5 7.5 11 3.5q70 4 70-65 0-220-190-220-19 0-34.5 2t-31 10-24 11.5-23.5 18-18 17-20 22.5l-17 20q-40 45-58 56-20 11-41 11-29 0-52-26t-34-66q-3-17-5-24.5t-8-20.5-16.5-18.5-25.5-5.5q-68 0-68 69z"/><glyph unicode="Ò" horiz-adv-x="870" d="M55 578q12 496 183 751 10 15 21.5 24.5t24.5 13 21.5 4.5 24.5 1q39-1 53-29t10-67q0-26-16-45l14 2q12 0 31-11.5t20-23.5q62-79 105-136.5T646 916t89.5-161.5 57-163T815 420q-1-103-65.5-194.5T585 82 379 31q-67 1-120.5 26.5t-88 69.5-58.5 97-36 117.5T59 462t-4 116zm19 1105q-16 48 16 72t76 17q26-3 99.5-61.5t138.5-131 65-106.5q0-15-6-22t-23-7q-33 0-196 102T74 1683zM227 510q-1-51 9.5-101t32.5-95.5 62.5-74.5 92.5-30q103-1 159.5 75.5T643 467q1 79-35 172.5t-81 164T421.5 969 332 1122q-64-159-83-284.5T227 510z"/><glyph unicode="Ó" horiz-adv-x="870" d="M55 578q12 496 183 751 10 15 21.5 24.5t24.5 13 21.5 4.5 24.5 1q39-1 53-29t10-67q0-26-16-45l14 2q12 0 31-11.5t20-23.5q62-79 105-136.5T646 916t89.5-161.5 57-163T815 420q-1-103-65.5-194.5T585 82 379 31q-67 1-120.5 26.5t-88 69.5-58.5 97-36 117.5T59 462t-4 116zm115 925q0 35 65.5 107.5t139.5 131 100 62.5q43 5 75.5-19.5T569 1714q-11-36-173.5-138.5T199 1473q-17 0-23 7.5t-6 22.5zm57-993q-1-51 9.5-101t32.5-95.5 62.5-74.5 92.5-30q103-1 159.5 75.5T643 467q1 79-35 172.5t-81 164T421.5 969 332 1122q-64-159-83-284.5T227 510z"/><glyph unicode="Ô" horiz-adv-x="870" d="M55 578q12 496 183 751 10 15 21.5 24.5t24.5 13 21.5 4.5 24.5 1q39-1 53-29t10-67q0-26-16-45l14 2q12 0 31-11.5t20-23.5q62-79 105-136.5T646 916t89.5-161.5 57-163T815 420q-1-103-65.5-194.5T585 82 379 31q-67 1-120.5 26.5t-88 69.5-58.5 97-36 117.5T59 462t-4 116zm25 845q0 43 55 133.5t121.5 164T352 1794q36 0 97.5-83.5t106-171T600 1430q0-31-8-43.5t-31-12.5q-18 0-74.5 54T383 1536l-47 55q-168-203-205-219-21-6-36 9t-15 42zm147-913q-1-51 9.5-101t32.5-95.5 62.5-74.5 92.5-30q103-1 159.5 75.5T643 467q1 79-35 172.5t-81 164T421.5 969 332 1122q-64-159-83-284.5T227 510z"/><glyph unicode="Õ" horiz-adv-x="870" d="M4 1499q0 48 24 99.5t76.5 91T225 1729q37 0 66.5-8.5t54.5-29 36-32 34-39.5q15-19 23.5-28.5t23.5-19 29-9.5q54 0 73 73 6 53 18 66 7 7 17 10 31 2 52.5-15t21.5-57q0-102-48.5-159.5T481 1423q-32 0-57 7.5t-48 26.5-32.5 29-32.5 38q-21 25-31 35.5t-28 21-37 10.5q-30 0-53.5-25.5T129 1499q-9-67-53-67-36 0-54 14.5T4 1499zm51-921q12 496 183 751 10 15 21.5 24.5t24.5 13 21.5 4.5 24.5 1q39-1 53-29t10-67q0-26-16-45l14 2q12 0 31-11.5t20-23.5q62-79 105-136.5T646 916t89.5-161.5 57-163T815 420q-1-103-65.5-194.5T585 82 379 31q-67 1-120.5 26.5t-88 69.5-58.5 97-36 117.5T59 462t-4 116zm172-68q-1-51 9.5-101t32.5-95.5 62.5-74.5 92.5-30q103-1 159.5 75.5T643 467q1 79-35 172.5t-81 164T421.5 969 332 1122q-64-159-83-284.5T227 510z"/><glyph unicode="Ö" horiz-adv-x="870" d="M55 578q12 496 183 751 10 15 21.5 24.5t24.5 13 21.5 4.5 24.5 1q39-1 53-29t10-67q0-26-16-45l14 2q12 0 31-11.5t20-23.5q62-79 105-136.5T646 916t89.5-161.5 57-163T815 420q-1-103-65.5-194.5T585 82 379 31q-67 1-120.5 26.5t-88 69.5-58.5 97-36 117.5T59 462t-4 116zm23 1001q0 49 39 85t90 36q48 0 80-35t32-82q0-49-33.5-94t-78.5-45q-46 0-87.5 45.5T78 1579zM227 510q-1-51 9.5-101t32.5-95.5 62.5-74.5 92.5-30q103-1 159.5 75.5T643 467q1 79-35 172.5t-81 164T421.5 969 332 1122q-64-159-83-284.5T227 510zm219 1069q0 59 34 95t89 36q56 0 88.5-43.5T690 1565q0-119-112-119-59 0-95.5 36.5T446 1579z"/><glyph unicode="×" horiz-adv-x="825" d="M109 827q0 31 21 50.5t50 19.5q39 0 81-42t85.5-104.5T406 672q130 235 194 235 30 0 53-30t23-60q0-38-25.5-78t-74-95.5T506 555q4-4 32-31.5t40-40 38.5-41 40.5-47 30.5-43 24-45T719 270q0-20-10.5-35.5T680 219q-47 0-88 31t-89.5 89.5T430 420q-3-5-21-36t-29.5-49-32.5-50.5-36.5-53.5-34-42.5T242 156t-29-11q-32 0-58 22.5T129 219q0 26 32 86t87.5 148 56.5 90q-25 32-82.5 91T137 736t-28 91z"/><glyph unicode="Ø" horiz-adv-x="870" d="M55 578q12 496 183 751 10 15 21.5 24.5t24.5 13 21.5 4.5 24.5 1q39-1 53-29t10-67q0-26-16-45l14 2q12 0 31-11.5t20-23.5q13-18 46-59.5t51-65.5q86 168 133 236 12 25 33 20 32-3 52-27.5t17-56.5q0-25-16-71.5t-32-82.5-45-96.5-36-76.5q173-279 170-498-1-103-65.5-194.5T585 82 379 31q-83 0-148 43-34-77-86-164-19-29-53-29-31 0-36.5 27.5T57-35q36 122 74 221-80 156-76 392zm172-68q0-45 4-68 84 198 99 236 93 183 125 242-14 22-42 65.5t-47.5 76T332 1122q-64-159-83-284.5T227 510zm92-264q43-37 105-37 103-1 159.5 75.5T643 467q0 127-82 278-47-94-131.5-270.5T319 246z"/><glyph unicode="Ù" horiz-adv-x="1126" d="M84 629q0 269 35 581 4 34 27 48t42 14q30 0 57.5-24t24.5-56q-18-240-18-479 0-281 22-381 10-30 23-55.5t33.5-51T380 185t64-15q69 0 124.5 48.5t87 123.5T704 498.5 721 655q0 58 1.5 152t3.5 204 3 152q2 33 4.5 51.5t10 36.5 22 25.5 37.5 7.5q47 0 73.5-37t24.5-102q-4-290-4-397 0-340 28.5-499T1038 90l115 37q14 0 22.5-16t8.5-31q-3-70-49.5-112T1014-72q-60 2-107.5 27t-77 67.5-47 93.5T760 227Q634-16 444-16q-134 0-223.5 85T104 299Q84 439 84 629zm141 991q-11 47 20 72t74 20q27-4 101.5-63T561 1517.5t66-106.5q0-16-6.5-22.5T596 1382q-34 0-197 100.5T225 1620z"/><glyph unicode="Ú" horiz-adv-x="1126" d="M84 629q0 269 35 581 4 34 27 48t42 14q30 0 57.5-24t24.5-56q-18-240-18-479 0-281 22-381 10-30 23-55.5t33.5-51T380 185t64-15q69 0 124.5 48.5t87 123.5T704 498.5 721 655q0 58 1.5 152t3.5 204 3 152q2 33 4.5 51.5t10 36.5 22 25.5 37.5 7.5q47 0 73.5-37t24.5-102q-4-290-4-397 0-340 28.5-499T1038 90l115 37q14 0 22.5-16t8.5-31q-3-70-49.5-112T1014-72q-60 2-107.5 27t-77 67.5-47 93.5T760 227Q634-16 444-16q-134 0-223.5 85T104 299Q84 439 84 629zm272 788q0 35 66.5 108t141 131.5T664 1718q44 7 75-17t21-71q-13-36-176.5-138.5T389 1389q-19 0-26 6.5t-7 21.5z"/><glyph unicode="Û" horiz-adv-x="1126" d="M84 629q0 269 35 581 4 34 27 48t42 14q30 0 57.5-24t24.5-56q-18-240-18-479 0-281 22-381 10-30 23-55.5t33.5-51T380 185t64-15q69 0 124.5 48.5t87 123.5T704 498.5 721 655q0 58 1.5 152t3.5 204 3 152q2 33 4.5 51.5t10 36.5 22 25.5 37.5 7.5q47 0 73.5-37t24.5-102q-4-290-4-397 0-340 28.5-499T1038 90l115 37q14 0 22.5-16t8.5-31q-3-70-49.5-112T1014-72q-60 2-107.5 27t-77 67.5-47 93.5T760 227Q634-16 444-16q-134 0-223.5 85T104 299Q84 439 84 629zm154 803q0 43 54 133t120 163.5 98 73.5q36 0 98-84t107-171.5 45-108.5q0-31-10-41.5t-33-10.5q-18 0-74.5 54.5T539 1550l-47 54q-168-210-203-220-20-10-35.5 5t-15.5 43z"/><glyph unicode="Ü" horiz-adv-x="1126" d="M84 629q0 269 35 581 4 34 27 48t42 14q30 0 57.5-24t24.5-56q-18-240-18-479 0-281 22-381 10-30 23-55.5t33.5-51T380 185t64-15q69 0 124.5 48.5t87 123.5T704 498.5 721 655q0 58 1.5 152t3.5 204 3 152q2 33 4.5 51.5t10 36.5 22 25.5 37.5 7.5q47 0 73.5-37t24.5-102q-4-290-4-397 0-340 28.5-499T1038 90l115 37q14 0 22.5-16t8.5-31q-3-70-49.5-112T1014-72q-60 2-107.5 27t-77 67.5-47 93.5T760 227Q634-16 444-16q-134 0-223.5 85T104 299Q84 439 84 629zm135 907q0 53 38.5 89t90.5 36q50 0 82.5-34.5T463 1540q0-48-34-93.5t-81-45.5q-43 0-86 46.5t-43 88.5zm373 0q0 59 32.5 95t88.5 36 89.5-43.5T836 1524q0-119-115-119-58 0-93.5 36t-35.5 95z"/><glyph unicode="Ý" horiz-adv-x="823" d="M-49 1159q-10 30 4 58t51 28q55 0 90-51 36-50 126.5-208T362 762q20 81 55.5 179t85 200.5T607 1328t118 138 119 54q34 0 35-36.5t-25-70.5q-159-242-241-423T502 627q-15-123-15-256 0-82 7.5-293t7.5-346q0-34-16-61t-54-27q-81 0-88 90-32 268-41 446 0 12-2 69t-3.5 81-6 67.5T281 475q-13 86-55.5 181.5t-88.5 168T36 992t-85 167zm219 260q0 35 65.5 108T375 1658.5t100 61.5q43 7 75.5-17t18.5-71q-11-36-173.5-138.5T199 1391q-18 0-23.5 6.5T170 1419z"/><glyph unicode="Þ" horiz-adv-x="1085" d="M90 291q-7 30 90 100-14 265-47 694-2 75-7.5 200.5T119 1432q-3 63 20 96.5t60 36.5q43 8 80.5-28.5T317 1448q0-174-2-274 84-12 175-32.5t197-55.5 188.5-77.5 139-102T1073 782q3-64-20-121.5T994.5 560 901 477t-109-66-123-53-116-40-107-31-79-23q4-49 6-72t4-33 7.5-50.5T397 2q6-61-16.5-94T305-121q-39 0-65.5 28.5T213-18q-2 52-11 125.5T188 240q-8 2-28 6t-27 6-18.5 7-17 13-7.5 19zm229 715q-1-106 14-323t17-253q24 5 58 12.5t88.5 23.5T603 501.5 710.5 549t96.5 58.5 68 71 28 83.5q2 39-60 80t-157 73-191 55.5-176 35.5z"/><glyph unicode="ß" horiz-adv-x="890" d="M82 700q0 66 10 133.5T127.5 971t63.5 124 98 88 135 34q101 0 164-59t63-146q0-40-15.5-77T591 866.5 540 816t-55-44q324-59 324-315 0-58-22.5-132.5t-60-143-95-116T512 18q-42 0-83.5 33T387 127q0 10 4.5 13t14.5 5q115 36 186.5 108T664 438q0 189-273 189-49 0-75.5 29.5T289 735q0 56 23 82.5t79 50.5q30 14 57 52t27 69q0 49-72 49-58 0-99-31.5T243 923t-28-102-8-104l63-467q0-25-20.5-40T199 195q-64 0-74 73-43 298-43 432z"/><glyph unicode="à" horiz-adv-x="774" d="M55 424q6 43 16.5 93.5T104 634t48.5 118 67 88.5T305 877q148 0 230-136 6-10 34.5-3.5t42.5-.5q33-21 33-69 0-17-5-45.5t-5-32.5q-7-113 12.5-203.5T717 178q7-27 .5-53.5T702 92q-18-12-48.5-12.5T612 88q-45 36-86 103.5T479 305q-77-150-82-160-31-47-77-81t-97-31q-52 6-89 52.5t-53.5 111T58 320t-3 104zm35 786q-11 49 19 73t73 17q28-4 102-63t139.5-131.5T489 999q0-14-5.5-20t-22.5-6q-20 0-108.5 48T180 1127.5 90 1210zm100-878q0-56 15-94t45-37q33 0 72 65.5t65.5 159T414 596v63q-2 24-23.5 50.5T346 737q-74 0-133-241-6-17-14.5-67.5T190 332z"/><glyph unicode="á" horiz-adv-x="774" d="M55 424q6 43 16.5 93.5T104 634t48.5 118 67 88.5T305 877q148 0 230-136 6-10 34.5-3.5t42.5-.5q33-21 33-69 0-17-5-45.5t-5-32.5q-7-113 12.5-203.5T717 178q7-27 .5-53.5T702 92q-18-12-48.5-12.5T612 88q-45 36-86 103.5T479 305q-77-150-82-160-31-47-77-81t-97-31q-52 6-89 52.5t-53.5 111T58 320t-3 104zm66 575q0 34 65.5 106.5T326 1237t100 63q45 7 76.5-17t17.5-73q-10-35-173-136T152 973q-31 0-31 26zm69-667q0-56 15-94t45-37q33 0 72 65.5t65.5 159T414 596v63q-2 24-23.5 50.5T346 737q-74 0-133-241-6-17-14.5-67.5T190 332z"/><glyph unicode="â" horiz-adv-x="774" d="M55 424q6 43 16.5 93.5T104 634t48.5 118 67 88.5T305 877q148 0 230-136 6-10 34.5-3.5t42.5-.5q33-21 33-69 0-17-5-45.5t-5-32.5q-7-113 12.5-203.5T717 178q7-27 .5-53.5T702 92q-18-12-48.5-12.5T612 88q-45 36-86 103.5T479 305q-77-150-82-160-31-47-77-81t-97-31q-52 6-89 52.5t-53.5 111T58 320t-3 104zm72 614q0 42 54.5 132.5t121 164.5 96.5 74q36 0 97.5-83.5t106-172T647 1042q0-30-9-40.5T604 991q-16 0-72 54.5T428 1154l-47 54q-166-207-203-219-20-8-35.5 6.5T127 1038zm63-706q0-56 15-94t45-37q33 0 72 65.5t65.5 159T414 596v63q-2 24-23.5 50.5T346 737q-74 0-133-241-6-17-14.5-67.5T190 332z"/><glyph unicode="ã" horiz-adv-x="774" d="M35 1114q0 34 14.5 72.5T90 1260t70 58 96 23q90 0 153-67 8-9 35-41 3-3 10-11.5t10-12 9.5-10.5 11.5-10.5 11-7.5 12.5-5.5 13.5-1.5q26 0 46 20.5t26 54.5q6 50 18 62 7 8 19 10 29 4 50-11.5t21-54.5q0-104-47-161.5T512 1036q-43 0-77.5 17t-50 34-40.5 50q-4 5-18 20t-19.5 20-16.5 14-22 12-24 3q-27 0-51-26.5t-33-65.5q-14-72-58-72-35 0-51 16t-16 56zm20-690q6 43 16.5 93.5T104 634t48.5 118 67 88.5T305 877q148 0 230-136 6-10 34.5-3.5t42.5-.5q33-21 33-69 0-17-5-45.5t-5-32.5q-7-113 12.5-203.5T717 178q7-27 .5-53.5T702 92q-18-12-48.5-12.5T612 88q-45 36-86 103.5T479 305q-77-150-82-160-31-47-77-81t-97-31q-52 6-89 52.5t-53.5 111T58 320t-3 104zm135-92q0-56 15-94t45-37q33 0 72 65.5t65.5 159T414 596v63q-2 24-23.5 50.5T346 737q-74 0-133-241-6-17-14.5-67.5T190 332z"/><glyph unicode="ä" horiz-adv-x="778" d="M55 424q6 43 16.5 93.5T104 634t48.5 118 67 88.5T305 877q148 0 230-136 6-10 34.5-3.5t42.5-.5q33-21 33-69 0-17-5-45.5t-5-32.5q-7-113 12.5-203.5T717 178q7-27 .5-53.5T702 92q-18-12-48.5-12.5T612 88q-45 36-86 103.5T479 305q-77-150-82-160-31-47-77-81t-97-31q-52 6-89 52.5t-53.5 111T58 320t-3 104zm27 729q0 52 39 87.5t92 35.5q47 0 80-34.5t33-82.5-34.5-93.5T213 1020q-45 0-88 45.5T82 1153zm108-821q0-56 15-94t45-37q33 0 72 65.5t65.5 159T414 596v63q-2 24-23.5 50.5T346 737q-74 0-133-241-6-17-14.5-67.5T190 332zm265 821q0 59 31.5 95t86.5 36q56 0 89.5-42.5T696 1143q0-121-110-121-60 0-95.5 36t-35.5 95z"/><glyph unicode="å" horiz-adv-x="774" d="M55 424q6 43 16.5 93.5T104 634t48.5 118 67 88.5T305 877q148 0 230-136 6-10 34.5-3.5t42.5-.5q33-21 33-69 0-17-5-45.5t-5-32.5q-7-113 12.5-203.5T717 178q7-27 .5-53.5T702 92q-18-12-48.5-12.5T612 88q-45 36-86 103.5T479 305q-77-150-82-160-31-47-77-81t-97-31q-52 6-89 52.5t-53.5 111T58 320t-3 104zm0 778q0 46 17.5 97t38 84.5 38 60.5 17.5 31q0 8-5 22t-5 21q0 21 25.5 33t49.5 12q19 0 68-17 317-192 317-360 0-57-25.5-101t-67.5-69.5-91-38T330 965q-120 0-197.5 60T55 1202zm135-870q0-56 15-94t45-37q33 0 72 65.5t65.5 159T414 596v63q-2 24-23.5 50.5T346 737q-74 0-133-241-6-17-14.5-67.5T190 332zm17 876q0-36 34.5-73t86.5-37q56 0 101.5 36t45.5 93q0 44-50.5 101.5T330 1386q-47 0-85-62.5T207 1208z"/><glyph unicode="ç" horiz-adv-x="778" d="M53 455q0 100 60 194t155 151.5T461 858q94 0 162.5-57.5T692 651q0-11-10.5-22T655 618q-27 0-50 13.5t-38 30-42.5 30T461 705q-95 0-173.5-85T209 438q0-70 33.5-123t89-81.5 116.5-42T575 178q63 0 115 10 28 5 47-11t11-46q-7-37-83.5-56.5T512 55h-27q0-22-10.5-61.5T453-75l-11-29q58 14 86 14 86 0 138.5-58.5T719-295q0-61-36-116t-90-91.5-114.5-58T367-582q-43 0-86 26.5T238-489q0 17 9 25t19.5 9.5T299-453q33 0 77.5 9t94.5 27.5 84.5 54T590-281q0 26-24 46t-56 20l-150-90q-33 0-58.5 25.5T276-221q0 37 36 139.5T350 74Q53 139 53 455z"/><glyph unicode="è" horiz-adv-x="714" d="M53 344q0 92 29 191t76.5 179.5T271 847t132 52q47 0 87.5-20.5t68-53T606 752t29.5-82.5T645 590q0-70-26.5-120.5t-74-79-105-41.5T311 336q-34 0-104 8 0-84 48-136.5T389 141q15-2 52-5t61-7 51.5-12.5 42-26.5T610 45q0-17-16-28.5T552.5 0t-44-6.5T471-8q-87 0-160.5 20T178 73 86 183.5 53 344zm164 893q-14 49 16.5 74t73.5 18q45-9 177-130t132-171q0-16-6-23.5t-24-7.5q-33 0-197.5 102.5T217 1237zm4-741q56-11 105-11 122 0 159 54 13 13 15 44t-5.5 63-28 56.5T418 727q-40 0-75-24t-59-63.5-38-73-25-70.5z"/><glyph unicode="é" horiz-adv-x="714" d="M53 344q0 92 29 191t76.5 179.5T271 847t132 52q47 0 87.5-20.5t68-53T606 752t29.5-82.5T645 590q0-70-26.5-120.5t-74-79-105-41.5T311 336q-34 0-104 8 0-84 48-136.5T389 141q15-2 52-5t61-7 51.5-12.5 42-26.5T610 45q0-17-16-28.5T552.5 0t-44-6.5T471-8q-87 0-160.5 20T178 73 86 183.5 53 344zm166 684q0 50 130 171t175 130q43 7 75-18t19-74q-11-36-173.5-138T250 997q-19 0-25 7t-6 24zm2-532q56-11 105-11 122 0 159 54 13 13 15 44t-5.5 63-28 56.5T418 727q-40 0-75-24t-59-63.5-38-73-25-70.5z"/><glyph unicode="ê" horiz-adv-x="733" d="M53 344q0 92 29 191t76.5 179.5T271 847t132 52q47 0 87.5-20.5t68-53T606 752t29.5-82.5T645 590q0-70-26.5-120.5t-74-79-105-41.5T311 336q-34 0-104 8 0-84 48-136.5T389 141q15-2 52-5t61-7 51.5-12.5 42-26.5T610 45q0-17-16-28.5T552.5 0t-44-6.5T471-8q-87 0-160.5 20T178 73 86 183.5 53 344zm88 694q0 42 55.5 132.5T319 1335t97 74q36 0 97.5-83.5t106-172T664 1042q0-30-9-40.5T625 991q-19 0-75.5 54.5T446 1154l-47 54q-171-207-204-219-21-8-37.5 7t-16.5 42zm80-542q56-11 105-11 122 0 159 54 13 13 15 44t-5.5 63-28 56.5T418 727q-40 0-75-24t-59-63.5-38-73-25-70.5z"/><glyph unicode="ë" horiz-adv-x="811" d="M53 344q0 92 29 191t76.5 179.5T271 847t132 52q47 0 87.5-20.5t68-53T606 752t29.5-82.5T645 590q0-70-26.5-120.5t-74-79-105-41.5T311 336q-34 0-104 8 0-84 48-136.5T389 141q15-2 52-5t61-7 51.5-12.5 42-26.5T610 45q0-17-16-28.5T552.5 0t-44-6.5T471-8q-87 0-160.5 20T178 73 86 183.5 53 344zm45 809q0 51 39.5 87t87.5 36q53 0 86-34t33-83-34.5-94-84.5-45q-42 0-84.5 45.5T98 1153zm123-657q56-11 105-11 122 0 159 54 13 13 15 44t-5.5 63-28 56.5T418 727q-40 0-75-24t-59-63.5-38-73-25-70.5zm248 657q0 59 33 95t90 36 90-42 33-99q0-121-115-121-58 0-94.5 36t-36.5 95z"/><glyph unicode="ì" horiz-adv-x="432" d="M4 1237q-13 49 19 74t75 18q45-9 175-130t130-171q0-17-5.5-24t-22.5-7q-33 0-197 102T4 1237zm133-797q3 185 27 316 1 13 19 21.5t38 6.5q28 0 48-17t20-46q-8-71-8-168 0-247 67-455 17-59-43-73-25-12-47.5-6T223 47q-42 78-66.5 191.5T137 440z"/><glyph unicode="í" horiz-adv-x="432" d="M29 1028q0 33 65 105.5T232.5 1265t99.5 64q45 7 76-18t18-74q-6-24-90-83t-172.5-108T55 997q-16 0-21 7t-5 24zm73-588q2 119 27 316 1 13 20.5 21.5T188 784q28 0 47-17t19-46q-4-106-4-168 0-253 65-455 17-58-43-73-23-12-46.5-6T190 47q-43 77-67 190t-21 203z"/><glyph unicode="î" horiz-adv-x="495" d="M-29 1038q0 42 55.5 132.5T149 1335t97 74q36 0 98-83.5t107-172 45-111.5q0-30-8.5-40.5T455 991q-18 0-75 54.5T275 1154l-48 54Q58 1001 27 989q-22-8-39 7t-17 42zm174-598q11 208 27 316 1 13 20.5 21.5T231 784q29 0 48.5-16.5T299 721q-4-106-4-168 0-266 61-455 11-29-.5-48T317 25q-26-12-48-6t-31 28q-45 76-70.5 189T145 440z"/><glyph unicode="ï" horiz-adv-x="491" d="M-72 1153q0 51 40.5 87t88.5 36q52 0 84.5-34t32.5-83q0-50-33.5-94.5T57 1020q-42 0-85.5 45.5T-72 1153zm242-713q3 163 25 316 1 13 19.5 21.5T254 784q29 0 47-16.5t18-46.5q-4-106-4-168 0-256 64-455 10-29-1.5-48T340 25q-26-12-50-6t-34 28q-42 76-65.5 189T170 440zm133 713q0 59 33 95t88 36q56 0 89.5-42.5T547 1143q0-121-111-121-61 0-97 36t-36 95z"/><glyph unicode="ð" horiz-adv-x="960" d="M53 305q0 96 58.5 172T259 591t187 38q118 0 228-56 3 201-88 385-108-69-125-86-35-18-66.5-8T346 899q-19 31-3 69t54 66q4 2 38 23t63 35q-53 66-146 131-35 21-35 53 0 29 26 51.5t60 30.5q33 4 58-15 106-70 186-169 31 19 71.5 42t66.5 37.5 32 18.5q42 23 70-15 17-21 21-39t-5.5-33-20-25.5T852 1135q-9-6-50-35.5t-69-48.5q132-241 129-559-4-153-62-275T631 22 375-51Q231-51 142 49T53 305zm146-33q0-86 53-130t139-44q39 0 82.5 19.5T558 173t70.5 96.5T664 403q-10 8-28.5 19t-77 30T440 471q-47 0-87-9.5T277 431t-57-61.5-21-97.5z"/><glyph unicode="ñ" horiz-adv-x="894" d="M84 813q-1 23 18 41t39 18q32 0 54-16.5t26-46.5q49-251 47-385 16 25 34.5 79T339 608t43.5 101 65.5 81 91 31q64 0 88-67 16-57 34-152.5t31-154T736.5 324 815 219q6-6 24-21.5t23.5-21 15.5-17 13.5-20T895 121q0-30-25-49t-55-19q-47 0-97.5 35T635 166q-34 49-57 116.5t-32.5 127T530 522t-12.5 84-17.5 31q-24 0-51.5-59.5T398 441t-57-170.5T276 127q-9-24-36-45t-52-21q-24 0-46.5 29T117 143q-13 63-13 123l5 123q0 190-25 424zm14 301q0 34 14.5 72.5T153 1260t70 58 96 23q45 0 82-16t56.5-35 44.5-47q5-7 8-10 39-59 76-59 26 0 44.5 20t24.5 55q1 3 2 11t1.5 11.5 2 10.5 3 10 3.5 8 4 7.5 5 6 7 5 9 2.5q31 4 52.5-11.5T766 1255q0-104-48.5-161.5T573 1036q-31 0-56.5 7.5t-47.5 26-33 30-33 37.5q-1 1-9.5 11t-10 12-8.5 10-10 10-10 8-11.5 8-11 5-13.5 4-14 1q-27 0-49-26t-35-66q-9-72-53-72-34 0-52 16.5T98 1114z"/><glyph unicode="ò" horiz-adv-x="686" d="M54.5 356q.5 29 .5 58v32q0 42 4.5 83.5t15 91.5 31 92 49.5 77 74 55.5T330 866q69 0 128.5-47.5T554 701t56.5-144T631 424q0-91-46-178T457 102 281 45q-37 0-67.5 7t-53 19.5-40 30.5-28 40T74 189t-11.5 52.5-6 56.5-2 58zm54.5 881q-13 49 18.5 74t73.5 18q45-9 177-130t132-171q0-31-31-31-33 0-196 102t-174 138zm79-848q0-36 2-59t9.5-54 27-47 49.5-16q98 0 161 76t63 174q0 52-21 113t-64 109-96 48q-35 0-61-30t-41-80.5T195 513t-7-124z"/><glyph unicode="ó" horiz-adv-x="686" d="M54.5 356q.5 29 .5 58v32q0 42 4.5 83.5t15 91.5 31 92 49.5 77 74 55.5T330 866q69 0 128.5-47.5T554 701t56.5-144T631 424q0-91-46-178T457 102 281 45q-37 0-67.5 7t-53 19.5-40 30.5-28 40T74 189t-11.5 52.5-6 56.5-2 58zM166 1028q0 33 65 105.5T369.5 1265t99.5 64q44 7 75.5-18t20.5-74q-11-35-175-137.5T195 997q-18 0-23.5 7.5T166 1028zm22-639q0-36 2-59t9.5-54 27-47 49.5-16q98 0 161 76t63 174q0 52-21 113t-64 109-96 48q-35 0-61-30t-41-80.5T195 513t-7-124z"/><glyph unicode="ô" horiz-adv-x="686" d="M54.5 356q.5 29 .5 58v32q0 42 4.5 83.5t15 91.5 31 92 49.5 77 74 55.5T330 866q69 0 128.5-47.5T554 701t56.5-144T631 424q0-91-46-178T457 102 281 45q-37 0-67.5 7t-53 19.5-40 30.5-28 40T74 189t-11.5 52.5-6 56.5-2 58zm6.5 682q0 42 55.5 132.5T239 1335t97 74q36 0 98-83.5t107-172 45-111.5q0-30-9-40.5T545 991q-19 0-75.5 54.5T366 1154l-47 54q-167-207-202-219-22-8-39 7t-17 42zm127-649q0-36 2-59t9.5-54 27-47 49.5-16q98 0 161 76t63 174q0 52-21 113t-64 109-96 48q-35 0-61-30t-41-80.5T195 513t-7-124z"/><glyph unicode="õ" horiz-adv-x="686" d="M-4 1114q0 47 24 98t76.5 90 120.5 39q34 0 61.5-7.5t51-26 34-29T396 1241q5-5 7-8 2-2 13-15.5t15-17.5 13.5-12 18-11 18.5-3q27 0 46.5 20t23.5 55q7 66 41 72 29 4 49.5-11.5T662 1255q0-104-48.5-161.5T469 1036q-19 0-34.5 2t-31 10-24 11.5-23.5 18-18 17-20 22.5l-17 20q-2 3-12.5 14.5t-13.5 15-12 12-14 11.5-13.5 8-17 6.5-17.5 1.5q-26 0-49.5-26.5T119 1114q-9-72-58-72-34 0-49.5 16T-4 1114zm58.5-758q.5 29 .5 58v32q0 42 4.5 83.5t15 91.5 31 92 49.5 77 74 55.5T330 866q69 0 128.5-47.5T554 701t56.5-144T631 424q0-91-46-178T457 102 281 45q-37 0-67.5 7t-53 19.5-40 30.5-28 40T74 189t-11.5 52.5-6 56.5-2 58zM188 389q0-36 2-59t9.5-54 27-47 49.5-16q98 0 161 76t63 174q0 52-21 113t-64 109-96 48q-35 0-61-30t-41-80.5T195 513t-7-124z"/><glyph unicode="ö" horiz-adv-x="686" d="M35 1153q0 51 39.5 87t91.5 36q48 0 79-34t31-83-33-94-77-45q-46 0-88.5 45T35 1153zm19.5-797q.5 29 .5 58v32q0 42 4.5 83.5t15 91.5 31 92 49.5 77 74 55.5T330 866q69 0 128.5-47.5T554 701t56.5-144T631 424q0-91-46-178T457 102 281 45q-37 0-67.5 7t-53 19.5-40 30.5-28 40T74 189t-11.5 52.5-6 56.5-2 58zM188 389q0-36 2-59t9.5-54 27-47 49.5-16q98 0 161 76t63 174q0 52-21 113t-64 109-96 48q-35 0-61-30t-41-80.5T195 513t-7-124zm218 764q0 59 33 95t87 36q56 0 89.5-42.5T649 1143q0-121-108-121-60 0-97.5 36.5T406 1153z"/><glyph unicode="÷" horiz-adv-x="821" d="M109 575q0 57 57 72 89 28 242 48t223 20q37 0 56.5-12t25.5-41q3-31-8.5-47.5T664 590q-82-32-238-61t-207-29q-42 0-76 19t-34 56zm145 402q0 50 25 91.5t73 41.5q57 0 95-52.5T485 946q0-45-30.5-77.5T379 836q-56 0-90.5 41T254 977zm96-688q0 56 35 98.5t90 42.5q46 0 74.5-33.5T578 317q0-59-37.5-110T446 156q-47 0-71.5 40.5T350 289z"/><glyph unicode="ø" horiz-adv-x="686" d="M43 6q4 17 11.5 38.5T74 94t18 45q-24 40-30.5 90.5T55 356v90q0 42 4.5 83.5t15 91.5 31 92 49.5 77 74 55.5T330 866q67 0 127-47 46 72 67 101 13 19 27 16 23-4 37-24t12-44q-7-50-59-141 41-70 65.5-154.5T631 424q0-91-46-178T457 102 281 45q-69 0-113 21-9-12-30.5-46T102-33Q87-54 66-51 24-49 43 6zm145 338q9 15 78 145 11 20 54 97t69 125q-40 22-70 22-35 0-61-30t-41-80.5T195 513t-7-124v-45zm64-129q10-2 24-2 98 0 161 76t63 174q0 56-33 137-41-69-112.5-200T252 215z"/><glyph unicode="ù" d="M84 333.5V387q0 271 41 369 5 20 23 36.5t42 16.5q29 0 45.5-20.5T252 741q0-47-7-181t-7-204q0-81 19.5-154t53.5-73q52 0 95.5 51.5t70 128.5T528 476t43 167 42 128.5 51 51.5q52 0 71-32t19-91q0-14-3-74.5T748 522q0-383 147-383 31 0 56 16t32 17q17 6 31-6.5t14-26.5q0-63-57.5-94T842 14q-51 0-91 23t-63 57.5-37.5 81.5-19.5 87-6 81q-20-66-49-127T505 96.5 404.5 1 281-35q-32 0-58.5 10T177 .5t-34.5 42-25 49.5-16 59-10 60.5T86 275t-2 58.5zm86 903.5q-13 49 19 74t75 18q26-5 100-64t139.5-131.5T569 1028q0-17-5.5-24t-22.5-7q-20 0-108.5 49T260 1154t-90 83z"/><glyph unicode="ú" d="M84 333.5V387q0 271 41 369 5 20 23 36.5t42 16.5q29 0 45.5-20.5T252 741q0-47-7-181t-7-204q0-81 19.5-154t53.5-73q52 0 95.5 51.5t70 128.5T528 476t43 167 42 128.5 51 51.5q52 0 71-32t19-91q0-14-3-74.5T748 522q0-383 147-383 31 0 56 16t32 17q17 6 31-6.5t14-26.5q0-63-57.5-94T842 14q-51 0-91 23t-63 57.5-37.5 81.5-19.5 87-6 81q-20-66-49-127T505 96.5 404.5 1 281-35q-32 0-58.5 10T177 .5t-34.5 42-25 49.5-16 59-10 60.5T86 275t-2 58.5zM242 1028q0 33 65.5 105.5T447 1265t100 64q43 7 74.5-18t17.5-74q-8-35-172.5-137.5T270 997q-17 0-22.5 7t-5.5 24z"/><glyph unicode="û" d="M84 333.5V387q0 271 41 369 5 20 23 36.5t42 16.5q29 0 45.5-20.5T252 741q0-47-7-181t-7-204q0-81 19.5-154t53.5-73q52 0 95.5 51.5t70 128.5T528 476t43 167 42 128.5 51 51.5q52 0 71-32t19-91q0-14-3-74.5T748 522q0-383 147-383 31 0 56 16t32 17q17 6 31-6.5t14-26.5q0-63-57.5-94T842 14q-51 0-91 23t-63 57.5-37.5 81.5-19.5 87-6 81q-20-66-49-127T505 96.5 404.5 1 281-35q-32 0-58.5 10T177 .5t-34.5 42-25 49.5-16 59-10 60.5T86 275t-2 58.5zm84 704.5q0 42 54.5 132.5t121 164.5 96.5 74q36 0 97.5-83.5t106-172T688 1042q0-30-8.5-40.5T647 991q-19 0-75 54.5T470 1154l-46 54q-170-207-205-219-22-7-36.5 7t-14.5 42z"/><glyph unicode="ü" d="M84 333.5V387q0 271 41 369 5 20 23 36.5t42 16.5q29 0 45.5-20.5T252 741q0-47-7-181t-7-204q0-81 19.5-154t53.5-73q52 0 95.5 51.5t70 128.5T528 476t43 167 42 128.5 51 51.5q52 0 71-32t19-91q0-14-3-74.5T748 522q0-383 147-383 31 0 56 16t32 17q17 6 31-6.5t14-26.5q0-63-57.5-94T842 14q-51 0-91 23t-63 57.5-37.5 81.5-19.5 87-6 81q-20-66-49-127T505 96.5 404.5 1 281-35q-32 0-58.5 10T177 .5t-34.5 42-25 49.5-16 59-10 60.5T86 275t-2 58.5zm33 819.5q0 51 38 87t89 36q50 0 81-34t31-83-33.5-94-78.5-45q-44 0-85.5 45t-41.5 88zm370 0q0 59 32.5 95t84.5 36q58 0 91.5-42t33.5-99q0-121-111-121-58 0-94.5 36t-36.5 95z"/><glyph unicode="ý" horiz-adv-x="817" d="M31 797q-8 31 16.5 51T96 868q42-1 67-38.5T219 696q25-81 92.5-234T432 231q39 83 73.5 185t70 220T631 813q9 29 57 29 36-2 55.5-22t18.5-56q-4-60-35.5-182T665 368l-30-92Q455-212 254-442q-37-37-88-37-32 3-49.5 26T102-403q0 24 18.5 53.5T166-297q46 55 83 115.5t58.5 105T373 66q-79 76-156 227T96 573 31 797zm237 231q0 33 65.5 105.5T473 1265t100 64q44 7 76-18t19-74q-11-35-174.5-137.5T299 997q-19 0-25 7t-6 24z"/><glyph unicode="þ" horiz-adv-x="956" d="M43 1245q-3 31 11.5 55.5T102 1325q22 3 36-2.5t23-24.5 12-30.5 9-44.5q4-19 31.5-350.5T238 524q28 92 75 166t100 118 105 66.5 98 22.5q72 3 127-26.5t85.5-75.5T877 691t22-107.5 0-91.5q-20-157-127.5-259.5T522 127q-58-4-119 8.5T297 170q-2-41-2-127 0-65 2-183t2-163q0-122-16-160-6-19-27-34t-43-17q-31-7-51.5 9.5T141-457q-2 43-2 140v139q-5 156-42 717.5T43 1245zm262-938q119-39 197-39 101 0 166.5 57T737 514q1 28-.5 52t-9.5 58-23.5 57.5-45.5 40-72 15.5q-169-6-281-430z"/><glyph unicode="ÿ" horiz-adv-x="817" d="M31 797q-8 31 16.5 51T96 868q42-1 67-38.5T219 696q25-81 92.5-234T432 231q39 83 73.5 185t70 220T631 813q9 29 57 29 36-2 55.5-22t18.5-56q-4-60-35.5-182T665 368l-30-92Q455-212 254-442q-37-37-88-37-32 3-49.5 26T102-403q0 24 18.5 53.5T166-297q46 55 83 115.5t58.5 105T373 66q-79 76-156 227T96 573 31 797zm94 356q0 51 38 87t89 36q50 0 82.5-34.5T367 1159q0-49-34-94t-81-45q-44 0-85.5 45t-41.5 88zm371 0q0 59 32.5 95t87.5 36q54 0 87.5-42.5T737 1143q0-121-110-121-60 0-95.5 36t-35.5 95z"/><glyph unicode="Ÿ" horiz-adv-x="823" d="M-49 1159q-10 30 4 58t51 28q55 0 90-51 36-50 126.5-208T362 762q20 81 55.5 179t85 200.5T607 1328t118 138 119 54q34 0 35-36.5t-25-70.5q-159-242-241-423T502 627q-15-123-15-256 0-82 7.5-293t7.5-346q0-34-16-61t-54-27q-81 0-88 90-32 268-41 446 0 12-2 69t-3.5 81-6 67.5T281 475q-13 86-55.5 181.5t-88.5 168T36 992t-85 167zm22 377q0 52 40 88.5t89 36.5q52 0 84.5-34.5T219 1540q0-48-34.5-93.5T102 1401q-42 0-85.5 46.5T-27 1536zm375 0q0 59 32 95t87 36q57 0 91-43.5t34-99.5q0-119-113-119-60 0-95.5 36t-35.5 95z"/><glyph unicode="ˆ" horiz-adv-x="782" d="M137 1038q0 42 55.5 132.5T315 1335t97 74q36 0 97-83.5T614.5 1153t44.5-111q0-30-9-40.5T618 991q-19 0-75.5 54.5T440 1154l-47 54q-170-207-205-219-19-8-35 7t-16 42z"/><glyph unicode="˜" horiz-adv-x="864" d="M98 1114q0 34 14.5 72.5T153 1260t70 58 96 23q45 0 82-16t56.5-35 44.5-47q5-7 8-10 39-59 76-59 26 0 44.5 20t24.5 55q1 3 2 11t1.5 11.5 2 10.5 3 10 3.5 8 4 7.5 5 6 7 5 9 2.5q31 4 52.5-11.5T766 1255q0-104-48.5-161.5T573 1036q-31 0-56.5 7.5t-47.5 26-33 30-33 37.5q-1 1-9.5 11t-10 12-8.5 10-10 10-10 8-11.5 8-11 5-13.5 4-14 1q-27 0-49-26t-35-66q-9-72-53-72-34 0-52 16.5T98 1114z"/><glyph horiz-adv-x="930"/><glyph horiz-adv-x="1860"/><glyph horiz-adv-x="930"/><glyph horiz-adv-x="1860"/><glyph horiz-adv-x="620"/><glyph horiz-adv-x="465"/><glyph horiz-adv-x="310"/><glyph horiz-adv-x="310"/><glyph horiz-adv-x="232"/><glyph horiz-adv-x="372"/><glyph horiz-adv-x="103"/><glyph unicode="‐" horiz-adv-x="741" d="M137 602q0 35 16.5 54.5T199 676l276 24q56 0 92.5-22t36.5-68q0-65-78-71-46 2-132.5-17.5T266 502q-54 0-91.5 27.5T137 602z"/><glyph unicode="‑" horiz-adv-x="741" d="M137 602q0 35 16.5 54.5T199 676l276 24q56 0 92.5-22t36.5-68q0-65-78-71-46 2-132.5-17.5T266 502q-54 0-91.5 27.5T137 602z"/><glyph unicode="‒" horiz-adv-x="741" d="M137 602q0 35 16.5 54.5T199 676l276 24q56 0 92.5-22t36.5-68q0-65-78-71-46 2-132.5-17.5T266 502q-54 0-91.5 27.5T137 602z"/><glyph unicode="–" horiz-adv-x="1142" d="M82 668q0 73 143 73 130 0 356.5 11.5T922 764q61 0 101-22.5t40-67.5q0-34-18.5-56.5t-50.5-31-58-11.5-57-4h-11q-102-4-182-4-247 0-508 15-39 3-67.5 27.5T82 668z"/><glyph unicode="—" horiz-adv-x="1398" d="M82 668q0 73 143 73 130 0 485.5 11.5T1180 764q61 0 99-22.5t38-67.5q0-34-18.5-56.5t-50-31-57-11.5-56.5-4h-11q-102-4-233-4-452 0-713 15-39 3-67.5 27.5T82 668z"/><glyph unicode="‘" horiz-adv-x="479" d="M109 1034q0 46 18.5 115.5T186 1281t88 62q39 0 60.5-21t21.5-60q0-27-22-68t-44-90.5-22-97.5q0-28 16-48.5t35.5-31T355 897t16-45q0-31-22-50.5T295 782q-79 0-132.5 84.5T109 1034z"/><glyph unicode="’" horiz-adv-x="524" d="M109 1266q0 41 29 59t71 18q96 0 151.5-78.5T416 1085q0-38-11-87.5t-31.5-99-56.5-83-79-33.5q-24 0-48 20.5T166 844t12.5 41 31 38.5T246 962t30.5 49.5T289 1075q0 43-18.5 68t-45 34.5-53 17-45 24T109 1266z"/><glyph unicode="‚" horiz-adv-x="524" d="M109 195q0 38 29 55.5t71 17.5q96 0 151.5-79.5T416 8q0-37-11-86t-31.5-99.5-56.5-85-79-34.5q-24 0-48 21t-24 45q0 21 12.5 40t31 36.5 36.5 37 30.5 50T289 0q0 43-18.5 68t-45 34.5-53 17.5-45 26-18.5 49z"/><glyph unicode="“" horiz-adv-x="839" d="M109 1034q0 46 18.5 115.5T186 1281t88 62q39 0 60.5-21t21.5-60q0-27-22-68t-44-90.5-22-97.5q0-28 16-48.5t35.5-31T355 897t16-45q0-31-22-50.5T295 782q-79 0-132.5 84.5T109 1034zm311 13q0 39 11 89.5t31.5 101.5 57 85.5T600 1358q23 0 47.5-22t24.5-44q0-25-19-54.5t-42.5-52.5-42.5-56.5-19-65.5q0-44 18.5-70t44.5-35.5 52-17 44.5-25T727 866q0-38-28.5-56.5T629 791q-97 0-153 79t-56 177z"/><glyph unicode="”" horiz-adv-x="839" d="M109 1266q0 41 29 59t71 18q96 0 151.5-78.5T416 1085q0-90-36.5-170T272 793q-18-11-34-11-24 0-48 20.5T166 844q0 25 19 54.5t42.5 53.5 42.5 57.5 19 65.5q0 43-18.5 68t-45 34.5-53 17-45 24T109 1266zm358 16q0 35 21.5 55.5T543 1358q51 0 95-44.5t66.5-103.5 22.5-110q0-73-39.5-168.5T592 799q-8-8-37-8-35 0-57.5 21T475 870q0 28 23.5 69.5t47 90.5 23.5 96q0 28-16 49.5t-35 32.5-35 30-16 44z"/><glyph unicode="„" horiz-adv-x="839" d="M109 195q0 38 29 55.5t71 17.5q96 0 151.5-79.5T416 8q0-37-11-86t-31.5-99.5-56.5-85-79-34.5q-24 0-48 21t-24 45q0 8 12 36Q289-84 289 0q0 43-18.5 68t-45 34.5-53 17.5-45 26-18.5 49zm358 14q0 31 21.5 49t54.5 18q51 0 95-43t66.5-99.5T727 29q0-47-19-117t-61-132.5-92-62.5q-35 0-57.5 21T475-201q0 27 23.5 67.5t47 89T569 51q0 27-16 48t-35 32.5-35 31.5-16 46z"/><glyph unicode="•" horiz-adv-x="737" d="M82 571q0 49 25.5 107T173 785.5t94 82.5 106 33q129 0 205.5-84T655 604q0-74-28-142.5T540 345t-137-48q-68 0-142 36T134.5 434 82 571z"/><glyph unicode="…" horiz-adv-x="1220" d="M109 141q0 49 26 90t74 41q56 0 93.5-50.5T340 115q0-48-29-81.5T238 0q-56 0-92.5 43T109 141zm411 0q0 50 25 90.5t73 40.5q55 0 92.5-50.5T748 115q0-48-29.5-81.5T645 0q-55 0-90 43t-35 98zm365 0q0 51 24.5 91t73.5 40q56 0 93.5-50.5T1114 115q0-48-30-81.5T1008 0q-53 0-88 43t-35 98z"/><glyph horiz-adv-x="372"/><glyph unicode="‹" horiz-adv-x="718" d="M82 377q0 66 51.5 165t139 226T373 918q13 32 51 32 46-3 73.5-34.5T522 840q0-29-22.5-67.5T445 694t-64.5-82.5T325 518t-24-98 33.5-95 84-86.5 99-72.5 84-64.5T635 51q0-33-24-57t-56-21q-28 0-61.5 13.5t-55.5 27T381.5 52 336 84q-47 32-101.5 80.5t-103 110T82 377z"/><glyph unicode="›" horiz-adv-x="718" d="M84 885q0 29 24.5 52.5T164 958q13 0 26.5-2t27.5-7 25-9.5 26.5-13.5 24-13.5 25-16.5 22-15.5 22-16T381 850q47-30 102.5-79t104-111.5T637 555q0-50-36.5-129T521 280.5t-98.5-149T348 16q-21-32-51-32-49 6-77 38t-23 76q0 28 22.5 66t54.5 78 64.5 82.5 55.5 93 24 96.5q2 47-32.5 96t-84 87.5-99.5 73-84.5 64.5T84 885z"/><glyph horiz-adv-x="465"/><glyph unicode="€" horiz-adv-x="1026" d="M32.5 465Q38 491 51 500q7 5 21.5 8t28.5 5 35 2.5 33.5.5H225q11 66 19 121l-78-2q-39 0-113 4-18 9-20 33-5 22 3 35.5T55 725q121 35 209 41 22 114 50 211.5t67.5 186.5 93 140.5T590 1356q79 0 158-65t126.5-158T922 956q0-90-76-90-30 0-54 10.5T768 911q0 94-56.5 163T582 1143q-40 0-74-56.5T453 952t-37-178q12 0 44 2t52 2q117 0 227-12 12 0 16.5-3.5T760 748q7-23 .5-48.5T737 664q-28-17-184-17-101 0-154-2-9-72-12-125 153 6 162 6 51 0 86-2 14-3 20-28 8-24-1.5-39T631 440q-81-33-250-47 0-272 160-272 45 0 91 11t82.5 28 72 36.5 63 36 50.5 27 39 9.5 24-17q13-24-5-62.5T895.5 111t-103-76-134-59T510-47q-61 0-111 22.5t-83.5 60-56 87.5T227 226.5 217 336v51q-97 0-168 12-16 0-16 17-6 23-.5 49z"/><glyph unicode="™" horiz-adv-x="1538" d="M55 1221q0 22 15.5 39.5T109 1282q249 39 485 39 80 0 86-45 5-12-3.5-25t-25.5-16q-27-14-103.5-27.5T446 1186q-16-98-16-174 0-124 33-293 0-47-70-47-17 0-32 11t-21 28q-19 48-28 123.5T302 964t-1 199q-119-26-160-26-39 3-63 24.5T55 1221zm629-494q7 35 21.5 129.5t29 174T770 1194t51 131.5 66 44.5q13-1 26-5.5t22.5-11 20-19 17-21.5 15-27 13-27.5 11.5-30 9.5-28.5 9-29.5 7.5-25.5q3-7 7-18t6.5-17 6-14 6-12.5 6-8.5 6.5-6 7-2q10 0 22.5 30t28 72 35 83.5 50 69 65.5 24.5q57 0 74-46 5-15 21.5-68.5t24.5-80 23-77.5 23-84 17.5-74 13.5-73.5 4-58.5q0-18-23-22-12-2-30 4-26 16-65.5 115.5T1294 1072t-45 91q-5 0-11-9t-12.5-26.5-12.5-37-13.5-47-13-50.5-12-53.5T1164 890t-9.5-45-7.5-34q-5-31-25-53.5t-51-22.5q-26 0-46 17.5T997 793q-6 16-20 108t-31.5 166-36.5 74q-27 0-46-128.5T844 756q-1-31-2.5-46.5t-8-38.5-21.5-33.5-38-10.5q-106 14-90 100z"/><glyph unicode="" horiz-adv-x="880" d="M0 0v881h881V0H0z"/></font>
</defs>
</svg>
