<svg xmlns="http://www.w3.org/2000/svg" width="64" height="64"><defs><linearGradient id="a" x1="94.869%" x2="43.658%" y1=".736%" y2="60.791%"><stop offset="0%" stop-color="#969696"/><stop offset="100%" stop-color="#0E0E0E" stop-opacity="0"/></linearGradient><linearGradient id="b" x1="80.77%" x2="18.813%" y1="18.73%" y2="80.699%"><stop offset="0%" stop-color="#FF444F"/><stop offset="100%" stop-color="#FF444F" stop-opacity="0"/></linearGradient><linearGradient id="c" x1="19.366%" x2="81.31%" y1="81.31%" y2="19.357%"><stop offset="0%" stop-color="#FFF"/><stop offset="100%" stop-color="#FFF" stop-opacity="0"/></linearGradient><linearGradient id="d" x1="-2.784%" x2="103.57%" y1="106.721%" y2="-.419%"><stop offset="0%" stop-color="#8D8C8C"/><stop offset="0%" stop-color="#8D8C8C"/><stop offset="31.383%" stop-color="#575757" stop-opacity=".557"/><stop offset="85.91%" stop-color="#575757" stop-opacity=".557"/><stop offset="100%" stop-color="#8C8C8C" stop-opacity="0"/></linearGradient></defs><g fill="none" fill-rule="evenodd"><rect width="64.001" height="64" fill="#0E0E0E" fill-rule="nonzero" rx="8.533"/><rect width="64.001" height="64" fill="url(#a)" fill-rule="nonzero" rx="8.533"/><path fill="url(#b)" fill-rule="nonzero" d="M18.265 51.2l-2.448-2.469 4.08-4.116 2.448 2.469z"/><path fill="#FF444F" fill-rule="nonzero" d="M37.905 28.098l-3.041-3.067-.005.001c-.688-.66-1.805-.675-2.467.016a1.76 1.76 0 00.021 2.45l.005-.006v.009l3.04 3.067c3.295 3.323 3.33 8.708.102 12.073-3.32 3.463-8.96 3.35-12.338-.057a.922.922 0 00-1.313 0l-1.791 1.806-.221.223 2.448 2.469.38-.383c4.665 3.166 11.061 2.672 15.183-1.485 4.676-4.718 4.676-12.396-.003-17.116z"/><path fill="url(#c)" fill-rule="nonzero" d="M45.737 12.8l2.447 2.469-4.079 4.117-2.448-2.469z"/><path fill="#FFF" fill-rule="nonzero" d="M26.095 35.903l3.041 3.068.005-.002c.688.66 1.805.675 2.467-.016a1.76 1.76 0 00-.022-2.449l-.005.005.002-.009-3.041-3.067c-3.294-3.323-3.329-8.71-.102-12.075 3.32-3.464 8.959-3.35 12.336.057a.922.922 0 001.313 0l1.791-1.807.221-.223-2.447-2.469-.38.383c-4.665-3.166-11.06-2.671-15.181 1.486-4.675 4.719-4.675 12.398.002 17.118z"/><rect width="63.468" height="63.467" x=".267" y=".267" stroke="url(#d)" stroke-width=".533" rx="8.267"/></g></svg>