<svg xmlns="http://www.w3.org/2000/svg" width="165" height="48"><g fill-rule="nonzero" fill="none"><path fill="#000" d="M158.889 47.889H6.11C2.69 47.889 0 45.2 0 41.778V6.11C0 2.69 2.689 0 6.111 0H158.89c3.42 0 6.11 2.689 6.11 6.111v35.667c0 3.3-2.689 6.11-6.111 6.11z"/><path fill="#A6A6A6" d="M158.868 1C161.678 1 164 3.276 164 6.031V41.97c0 2.755-2.322 5.031-5.132 5.031H6.132C3.322 47 1 44.724 1 41.969V6.03C1 3.276 3.322 1 6.132 1h152.736zM6.111 0C2.69 0 0 2.64 0 6v36c0 3.36 2.689 6 6.111 6H158.89c3.422 0 6.111-2.64 6.111-6V6c0-3.24-2.689-6-6.111-6H6.11z"/><path d="M57.933 11.467c0 .978-.244 1.833-.855 2.444-.734.734-1.59 1.1-2.69 1.1-1.1 0-1.955-.366-2.688-1.1-.733-.733-1.1-1.589-1.1-2.689s.367-1.955 1.1-2.689c.733-.733 1.589-1.1 2.689-1.1.489 0 .978.123 1.466.367.49.245.856.489 1.1.856l-.61.61c-.49-.61-1.1-.855-1.956-.855-.734 0-1.467.245-1.956.856-.61.489-.855 1.222-.855 2.078 0 .855.244 1.588.855 2.077.611.49 1.222.856 1.956.856.855 0 1.466-.245 2.078-.856.366-.366.61-.855.61-1.466H54.39V11.1h3.544v.367zm5.622-3.056h-3.3v2.322h3.056v.856h-3.056v2.322h3.3v.978h-4.277V7.556h4.277zm4.034 6.478h-.978V8.411h-2.078v-.855h5.134v.855h-2.078zm5.622 0V7.556h.978v7.333zm5.133 0h-.977V8.411h-2.078v-.855H80.3v.855h-2.078v6.478zm11.611-.977c-.733.733-1.588 1.1-2.688 1.1s-1.956-.367-2.69-1.1c-.733-.734-1.1-1.59-1.1-2.69 0-1.1.367-1.955 1.1-2.689.734-.733 1.59-1.1 2.69-1.1 1.1 0 1.955.367 2.688 1.1.734.734 1.1 1.59 1.1 2.69 0 1.1-.366 1.955-1.1 2.688zm-4.644-.613c.489.489 1.222.856 1.956.856.733 0 1.466-.245 1.955-.856a2.948 2.948 0 00.856-2.078c0-.855-.245-1.589-.856-2.077-.489-.49-1.222-.856-1.955-.856-.734 0-1.467.244-1.956.856a2.946 2.946 0 00-.856 2.077c0 .856.245 1.59.856 2.078zm7.089 1.59V7.556h1.1l3.544 5.744h0V7.556h.978v7.333h-.978L93.255 8.9h0V14.889z" fill="#FFF" stroke="#FFF" stroke-width=".509"/><path fill="#FFF" d="M83.233 25.644c-2.933 0-5.255 2.2-5.255 5.256a5.217 5.217 0 005.255 5.256c2.934 0 5.256-2.2 5.256-5.256 0-3.178-2.322-5.256-5.256-5.256zm0 8.312c-1.589 0-2.933-1.345-2.933-3.178 0-1.834 1.344-3.178 2.933-3.178 1.59 0 2.934 1.222 2.934 3.178 0 1.833-1.345 3.178-2.934 3.178zm-11.366-8.312c-2.934 0-5.256 2.2-5.256 5.256a5.217 5.217 0 005.256 5.256c2.933 0 5.255-2.2 5.255-5.256 0-3.178-2.322-5.256-5.255-5.256zm0 8.312c-1.59 0-2.934-1.345-2.934-3.178 0-1.834 1.345-3.178 2.934-3.178 1.589 0 2.933 1.222 2.933 3.178 0 1.833-1.344 3.178-2.933 3.178zM58.3 27.233v2.2h5.256c-.123 1.223-.612 2.2-1.223 2.811-.733.734-1.955 1.59-4.033 1.59-3.3 0-5.744-2.567-5.744-5.867S55.122 22.1 58.3 22.1c1.711 0 3.056.733 4.033 1.589l1.59-1.589c-1.345-1.222-3.056-2.2-5.5-2.2-4.4 0-8.19 3.667-8.19 8.067s3.79 8.066 8.19 8.066c2.444 0 4.155-.733 5.621-2.322C65.511 32.244 66 30.167 66 28.578c0-.49 0-.978-.122-1.345H58.3zm55.489 1.711c-.489-1.222-1.711-3.3-4.4-3.3S104.5 27.722 104.5 30.9c0 2.933 2.2 5.256 5.133 5.256 2.323 0 3.79-1.467 4.278-2.323l-1.711-1.222c-.611.856-1.344 1.467-2.567 1.467-1.222 0-1.955-.49-2.566-1.59l6.966-2.932-.244-.612zm-7.089 1.712c0-1.956 1.589-3.056 2.689-3.056.855 0 1.711.489 1.955 1.1l-4.644 1.956zm-5.744 5.01h2.322V20.39h-2.322v15.278zm-3.667-8.922c-.611-.61-1.589-1.222-2.811-1.222-2.567 0-5.011 2.322-5.011 5.256 0 2.933 2.322 5.133 5.01 5.133 1.223 0 2.2-.611 2.69-1.222h.122v.733c0 1.956-1.1 3.056-2.811 3.056-1.345 0-2.322-.978-2.567-1.834l-1.955.856c.61 1.344 2.077 3.056 4.644 3.056 2.689 0 4.889-1.59 4.889-5.378v-9.29h-2.2v.856zM94.6 33.956c-1.589 0-2.933-1.345-2.933-3.178 0-1.834 1.344-3.178 2.933-3.178 1.589 0 2.811 1.344 2.811 3.178 0 1.833-1.222 3.178-2.811 3.178zm29.822-13.567h-5.5v15.278h2.322v-5.745h3.178c2.567 0 5.011-1.833 5.011-4.766 0-2.934-2.444-4.767-5.01-4.767zm.122 7.333h-3.3v-5.255h3.3c1.712 0 2.69 1.466 2.69 2.566-.123 1.345-1.1 2.69-2.69 2.69zm14.056-2.2c-1.711 0-3.422.734-4.033 2.322l2.077.856c.49-.856 1.223-1.1 2.078-1.1 1.222 0 2.322.733 2.445 1.956v.122c-.367-.245-1.345-.611-2.323-.611-2.2 0-4.4 1.222-4.4 3.422 0 2.078 1.834 3.422 3.79 3.422 1.588 0 2.322-.733 2.933-1.467h.122v1.223h2.2V29.8c-.245-2.689-2.322-4.278-4.889-4.278zm-.244 8.434c-.734 0-1.834-.367-1.834-1.345 0-1.222 1.345-1.589 2.445-1.589.977 0 1.466.245 2.077.49-.244 1.466-1.466 2.444-2.688 2.444zm12.833-8.067l-2.567 6.6h-.122l-2.689-6.6h-2.444l4.033 9.289-2.322 5.133h2.322l6.233-14.422h-2.444zm-20.533 9.778h2.322V20.389h-2.322v15.278z"/><path fill="#41D5FE" d="M12.711 8.167c-.367.367-.611.979-.611 1.711v27.011c0 .734.244 1.345.611 1.711l.122.123L27.99 23.566v-.244L12.71 8.166z"/><path fill="#FBC902" d="M33 28.7l-5.011-5.01v-.367L33 18.312l.122.122 5.99 3.422c1.71.978 1.71 2.567 0 3.544L33 28.7z"/><path fill="#F63647" d="M33.122 28.578l-5.132-5.132-15.28 15.277c.611.61 1.467.61 2.567.122l17.844-10.267"/><path fill="#4DEF76" d="M33.122 18.312L15.278 8.166c-1.1-.61-1.956-.488-2.568.123l15.28 15.157 5.133-5.133z"/><g fill="#000"><path d="M33 28.456L15.278 38.478c-.978.612-1.834.49-2.445 0l-.122.123.122.122c.611.489 1.467.611 2.445 0L33 28.456z" opacity=".2"/><path d="M12.711 38.478c-.367-.366-.489-.977-.489-1.71v.122c0 .733.245 1.344.611 1.71v-.122h-.122z" opacity=".12"/></g><path fill="#000" d="M39.111 25.034L33 28.456l.122.122 5.99-3.422c.855-.489 1.221-1.1 1.221-1.711 0 .611-.489 1.1-1.222 1.589z" opacity=".12"/><path fill="#FFF" d="M15.278 8.289L39.11 21.856c.733.489 1.222.978 1.222 1.589 0-.611-.366-1.222-1.222-1.711L15.278 8.166c-1.711-.977-3.056-.12-3.056 1.834v.123c0-1.957 1.345-2.811 3.056-1.834z" opacity=".25"/></g></svg>