<svg xmlns="http://www.w3.org/2000/svg" width="166" height="48"><g fill-rule="nonzero" fill="none"><path fill="#0E0E0E" stroke="#999" stroke-width="1.2" d="M160.8.6c1.16 0 2.21.47 2.97 1.23.76.76 1.23 1.81 1.23 2.97h0v38.4c0 1.16-.47 2.21-1.23 2.97-.76.76-1.81 1.23-2.97 1.23h0-156c-1.16 0-2.21-.47-2.97-1.23A4.19 4.19 0 01.6 43.2h0V4.8c0-1.16.47-2.21 1.23-2.97A4.19 4.19 0 014.8.6h156z"/><path fill="#FFFFFE" d="M39.356 22.637c-.03-3.301 2.703-4.908 2.829-4.984-1.548-2.256-3.948-2.564-4.79-2.588-2.015-.213-3.969 1.206-4.996 1.206-1.047 0-2.627-1.186-4.33-1.15-2.191.034-4.243 1.303-5.367 3.274-2.321 4.017-.588 9.923 1.633 13.17 1.112 1.591 2.412 3.368 4.113 3.305 1.665-.069 2.286-1.062 4.296-1.062 1.99 0 2.573 1.062 4.308 1.022 1.786-.029 2.912-1.598 3.986-3.204 1.285-1.823 1.8-3.62 1.821-3.71-.042-.015-3.468-1.322-3.503-5.28m-3.278-9.707c.895-1.12 1.507-2.643 1.338-4.19-1.296.058-2.916.897-3.85 1.993-.825.964-1.562 2.546-1.372 4.033 1.455.109 2.952-.735 3.884-1.836m19.226 16.056h4.503l-2.22-6.537h-.06l-2.223 6.537zm5.092 1.859h-5.68l-1.364 4.027h-2.406l5.38-14.902h2.5l5.38 14.902h-2.447l-1.363-4.027zm13.138-1.404c0-2.2-1.138-3.646-2.872-3.646-1.704 0-2.85 1.476-2.85 3.646 0 2.188 1.146 3.655 2.85 3.655 1.734 0 2.872-1.437 2.872-3.655zm2.292 0c0 3.375-1.808 5.545-4.535 5.545-1.548 0-2.777-.693-3.418-1.901h-.051v5.38h-2.23V24.007h2.16v1.807h.04c.62-1.165 1.944-1.92 3.46-1.92 2.757 0 4.575 2.18 4.575 5.547h-.001zm9.664 0c0-2.2-1.136-3.646-2.87-3.646-1.704 0-2.85 1.476-2.85 3.646 0 2.188 1.146 3.655 2.85 3.655 1.734 0 2.87-1.437 2.87-3.655zm2.292 0c0 3.375-1.806 5.545-4.533 5.545-1.548 0-2.777-.693-3.418-1.901h-.051v5.38h-2.231V24.007h2.16v1.807h.04c.62-1.165 1.941-1.92 3.459-1.92 2.758 0 4.574 2.18 4.574 5.547zm7.906 1.279c.163 1.478 1.6 2.448 3.56 2.448 1.88 0 3.233-.97 3.233-2.303 0-1.157-.816-1.85-2.747-2.323l-1.932-.466c-2.736-.661-4.006-1.94-4.006-4.017 0-2.57 2.241-4.337 5.424-4.337 3.147 0 5.306 1.766 5.378 4.337h-2.25c-.134-1.487-1.364-2.385-3.16-2.385-1.797 0-3.026.909-3.026 2.23 0 1.053.785 1.674 2.706 2.149l1.642.402c3.057.724 4.328 1.951 4.328 4.132 0 2.787-2.22 4.533-5.753 4.533-3.305 0-5.537-1.705-5.68-4.4h2.283m13.96-9.283v2.57h2.067v1.766h-2.066v5.99c0 .93.414 1.364 1.322 1.364.228 0 .59-.031.733-.052v1.756c-.247.062-.742.103-1.238.103-2.2 0-3.058-.827-3.058-2.933v-6.228h-1.579v-1.766h1.58v-2.57h2.24m11.297 8.004c0-2.345-1.074-3.73-2.88-3.73-1.809 0-2.88 1.394-2.88 3.73 0 2.354 1.071 3.727 2.88 3.727 1.806 0 2.88-1.373 2.88-3.727zm-8.034 0c0-3.42 2.013-5.567 5.152-5.567 3.15 0 5.154 2.148 5.154 5.567 0 3.427-1.992 5.565-5.154 5.565-3.16 0-5.152-2.138-5.152-5.565zm12.145-5.434h2.127v1.85h.052c.34-1.23 1.332-1.963 2.612-1.963.32 0 .588.042.765.083v2.086c-.177-.072-.569-.135-1.002-.135-1.435 0-2.323.972-2.323 2.5v6.444h-2.231V24.006m8.299 4.432h5.431c-.051-1.664-1.115-2.758-2.664-2.758-1.538 0-2.652 1.116-2.767 2.758zm7.538 3.242c-.3 1.973-2.22 3.325-4.677 3.325-3.161 0-5.123-2.117-5.123-5.514 0-3.408 1.973-5.618 5.03-5.618 3.005 0 4.895 2.065 4.895 5.359v.764h-7.674v.135c0 1.859 1.168 3.077 2.923 3.077 1.239 0 2.21-.588 2.51-1.528h2.116zM53.551 14.9h1.35c1.498 0 2.36-.932 2.36-2.575 0-1.617-.875-2.56-2.36-2.56h-1.35V14.9zm1.474-6.147c2.124 0 3.37 1.304 3.37 3.558 0 2.287-1.237 3.602-3.37 3.602H52.44v-7.16h2.586-.001zm8.625 4.455c0-1.17-.526-1.855-1.45-1.855-.927 0-1.448.684-1.448 1.855 0 1.181.521 1.862 1.449 1.862.924 0 1.45-.686 1.45-1.862zm-4 0c0-1.74.973-2.803 2.55-2.803 1.574 0 2.547 1.062 2.547 2.803 0 1.752-.968 2.81-2.546 2.81-1.583 0-2.55-1.058-2.55-2.81zm11.871 2.705h-1.106l-1.116-3.98h-.085l-1.112 3.98h-1.095l-1.49-5.403h1.082l.967 4.123h.08l1.112-4.123h1.022l1.111 4.123h.084l.964-4.123h1.067l-1.485 5.403m2.737-5.403h1.026v.858h.08c.264-.6.799-.963 1.612-.963 1.206 0 1.872.724 1.872 2.01v3.498H77.78v-3.23c0-.869-.376-1.301-1.166-1.301-.788 0-1.29.527-1.29 1.37v3.161h-1.066V10.51m6.288 5.403h1.067V8.4h-1.067v7.513zm6.55-2.705c0-1.17-.528-1.855-1.45-1.855-.928 0-1.45.684-1.45 1.855 0 1.181.522 1.862 1.45 1.862.923 0 1.449-.686 1.449-1.862h.001zm-4 0c0-1.74.971-2.803 2.55-2.803 1.572 0 2.546 1.062 2.546 2.803 0 1.752-.969 2.81-2.547 2.81-1.583 0-2.55-1.058-2.55-2.81zm9.692.716v-.453l-1.32.084c-.743.05-1.08.304-1.08.78 0 .486.42.77 1 .77.804 0 1.4-.512 1.4-1.181zm-3.473.46c0-.972.723-1.533 2.01-1.612l1.464-.084v-.467c0-.57-.378-.893-1.107-.893-.595 0-1.008.218-1.126.6h-1.032c.109-.928.981-1.523 2.208-1.523 1.356 0 2.118.675 2.118 1.816v3.692h-1.026v-.76h-.084c-.323.542-.912.849-1.624.849-1.042 0-1.8-.63-1.8-1.618h-.001zm7.038-1.176c0 1.146.54 1.836 1.443 1.836.9 0 1.455-.7 1.455-1.83 0-1.126-.562-1.837-1.455-1.837-.897 0-1.443.695-1.443 1.831zm-1.102 0c0-1.707.879-2.788 2.244-2.788.74 0 1.363.352 1.656.948h.08V8.4h1.066v7.513h-1.02v-.854h-.086c-.322.591-.953.943-1.697.943-1.374 0-2.243-1.081-2.243-2.794zm13.458 0c0-1.17-.527-1.855-1.45-1.855-.927 0-1.448.684-1.448 1.855 0 1.181.521 1.862 1.449 1.862.924 0 1.45-.686 1.45-1.862zm-4 0c0-1.74.974-2.803 2.55-2.803 1.574 0 2.547 1.062 2.547 2.803 0 1.752-.968 2.81-2.546 2.81-1.582 0-2.55-1.058-2.55-2.81zm6.529-2.698h1.026v.858h.079c.264-.6.799-.963 1.613-.963 1.206 0 1.872.724 1.872 2.01v3.498h-1.068v-3.23c0-.869-.377-1.301-1.167-1.301-.788 0-1.29.527-1.29 1.37v3.161h-1.065V10.51m10.614-1.346v1.37h1.17v.898h-1.17v2.778c0 .567.234.815.764.815.164 0 .258-.01.408-.025v.888c-.175.03-.374.055-.582.055-1.186 0-1.656-.417-1.656-1.459v-3.052h-.86v-.898h.859v-1.37h1.068m2.627-.764h1.057v2.977h.084c.261-.605.833-.967 1.647-.967 1.152 0 1.862.73 1.862 2.015v3.488h-1.068v-3.225c0-.863-.402-1.301-1.156-1.301-.874 0-1.36.552-1.36 1.37v3.156h-1.066V8.4m7.116 4.313h2.73c-.024-.849-.54-1.4-1.331-1.4-.789 0-1.34.556-1.4 1.4zm3.75 1.741c-.242.968-1.106 1.564-2.34 1.564-1.547 0-2.495-1.062-2.495-2.79 0-1.727.967-2.823 2.49-2.823 1.503 0 2.412 1.027 2.412 2.724v.372h-3.816v.06c.036.947.585 1.548 1.437 1.548.648 0 1.089-.234 1.287-.655h1.026z"/></g></svg>