<svg xmlns="http://www.w3.org/2000/svg" width="128" height="128" viewBox="0 0 128 128">
    <defs>
        <linearGradient id="prefix__a" x1="0%" x2="100.018%" y1="50.02%" y2="50.02%">
            <stop offset="0%" stop-color="#63BE6B"/>
            <stop offset="50.6%" stop-color="#5BBC6A"/>
            <stop offset="100%" stop-color="#4AB96A"/>
        </linearGradient>
        <linearGradient id="prefix__b" x1="-.027%" x2="99.942%" y1="50.012%" y2="50.012%">
            <stop offset="0%" stop-color="#3EC6F2"/>
            <stop offset="100%" stop-color="#45AFE3"/>
        </linearGradient>
        <linearGradient id="prefix__c" x1=".042%" x2="99.989%" y1="50.037%" y2="50.037%">
            <stop offset="0%" stop-color="#FAA51A"/>
            <stop offset="38.7%" stop-color="#FAB716"/>
            <stop offset="74.1%" stop-color="#FAC412"/>
            <stop offset="100%" stop-color="#FAC80F"/>
        </linearGradient>
        <linearGradient id="prefix__d" x1=".016%" x2="99.999%" y1="49.998%" y2="49.998%">
            <stop offset="0%" stop-color="#EC3B50"/>
            <stop offset="100%" stop-color="#E7515B"/>
        </linearGradient>
    </defs>
    <g fill="none" fill-rule="evenodd">
        <path d="M0 0H128V128H0z"/>
        <g fill-rule="nonzero">
            <path fill="url(#prefix__a)" d="M46.182 25.145L2.647.262C2.1-.055 1.412-.038.882.28.335.598 0 1.162 0 1.798c0 0 .018 2.294.035 6.07L31.747 39.58l14.435-14.435z" transform="translate(30 22)"/>
            <path fill="url(#prefix__b)" d="M.035 7.868c.053 13.624.212 46.694.283 63.16L31.765 39.58.035 7.868z" transform="translate(30 22)"/>
            <path fill="url(#prefix__c)" d="M71.1 39.386L46.182 25.145 31.73 39.58l16.306 16.306 23.083-13.447c.547-.318.882-.9.882-1.518 0-.635-.353-1.217-.9-1.535z" transform="translate(30 22)"/>
            <path fill="url(#prefix__d)" d="M.3 71.027c.035 5.877.053 9.635.053 9.635 0 .636.335 1.218.882 1.518.547.318 1.218.318 1.765 0l45.053-26.276-16.306-16.306L.3 71.028z" transform="translate(30 22)"/>
        </g>
    </g>
</svg>
