<svg width="299" height="197" xmlns="http://www.w3.org/2000/svg"><g fill="none" fill-rule="evenodd"><path fill="#F1F2F2" d="M0 0h299v197H0z"/><path d="M1.987 1.98v193.04h295.026V1.98H1.987zM299 0v197H0V0h299z" fill="#C2C2C2" fill-rule="nonzero"/><path d="M4.887 56.168v-1.206h289.656v1.206H4.887zm0 40.33v-1.206h289.656v1.205H4.887zm0 40.329v-1.206h289.656v1.206H4.887zm0 40.292v-1.206h289.656v1.206H4.887zm34.38-141.7h1.206v158.864h-1.206V35.419zm36.665 0h1.206v158.864h-1.206V35.419zm36.627 0h1.206v158.864h-1.206V35.419zm36.665 0h1.206v158.864h-1.206V35.419zm36.628 0h1.206v158.864h-1.206V35.419zm36.627 0h1.206v158.864h-1.206V35.419zM4.887 116.643v-1.205h289.656v1.205H4.887z" fill="#DFDEDE" fill-rule="nonzero"/><path d="M4.887 72.595v-1.127h7.469v1.127H4.887zm14.938 0v-1.127h7.468v1.127h-7.468zm14.937 0v-1.127h7.469v1.127h-7.469zm14.938 0v-1.127h7.468v1.127H49.7zm14.937 0v-1.127h7.469v1.127h-7.469zm14.938 0v-1.127h7.468v1.127h-7.468zm14.937 0v-1.127h7.469v1.127h-7.469zm14.938 0v-1.127h7.468v1.127h-7.468zm14.937 0v-1.127h7.469v1.127h-7.469zm14.938 0v-1.127h7.468v1.127h-7.468zm14.937 0v-1.127h7.469v1.127h-7.469zm14.938 0v-1.127h7.468v1.127H169.2zm14.937 0v-1.127h7.469v1.127h-7.469zm14.938 0v-1.127h7.468v1.127h-7.468zm14.937 0v-1.127h7.469v1.127h-7.469zm14.938 0v-1.127h7.468v1.127h-7.468zm14.937 0v-1.127h7.469v1.127h-7.469zm14.938 0v-1.127h7.468v1.127h-7.468zm14.937 0v-1.127h7.469v1.127h-7.469zm14.938 0v-1.127h5.843v1.127H288.7z" fill="#15212D" fill-rule="nonzero"/><path fill="#2A3052" fill-rule="nonzero" d="M240.457 35.42h1.206v158.863h-1.206z"/><path d="M4.887 164.368v-1.128h7.469v1.128H4.887zm14.938 0v-1.128h7.468v1.128h-7.468zm14.937 0v-1.128h7.469v1.128h-7.469zm14.938 0v-1.128h7.468v1.128H49.7zm14.937 0v-1.128h7.469v1.128h-7.469zm14.938 0v-1.128h7.468v1.128h-7.468zm14.937 0v-1.128h7.469v1.128h-7.469zm14.938 0v-1.128h7.468v1.128h-7.468zm14.937 0v-1.128h7.469v1.128h-7.469zm14.938 0v-1.128h7.468v1.128h-7.468zm14.937 0v-1.128h7.469v1.128h-7.469zm14.938 0v-1.128h7.468v1.128H169.2zm14.937 0v-1.128h7.469v1.128h-7.469zm14.938 0v-1.128h7.468v1.128h-7.468zm14.937 0v-1.128h7.469v1.128h-7.469zm14.938 0v-1.128h7.468v1.128h-7.468zm14.937 0v-1.128h7.469v1.128h-7.469zm14.938 0v-1.128h7.468v1.128h-7.468zm14.937 0v-1.128h7.469v1.128h-7.469zm14.938 0v-1.128h5.843v1.128H288.7z" fill="#15212D" fill-rule="nonzero"/><path fill="#C2C2C2" fill-rule="nonzero" d="M2.794 33.436v-2.412h293.842v2.412z"/><path d="M56.641 102.229l-34.723 15.464a1.809 1.809 0 1 1-1.471-3.305l35.745-15.92a1.809 1.809 0 0 1 1.887.257l24.615 20.291 36.945-77.79c.687-1.448 2.78-1.352 3.332.152l43.278 117.852 26.908-57.045c.138-.293.352-.543.62-.725l46.03-31.263a1.809 1.809 0 1 1 2.034 2.993l-45.623 30.986-28.541 60.507c-.685 1.452-2.781 1.359-3.335-.148L121.06 46.668l-36.092 75.995a1.809 1.809 0 0 1-2.784.62L56.64 102.23z" fill="#2A3052" fill-rule="nonzero"/><ellipse cx="8.335" cy="9.259" rx="8.11" ry="8.4" opacity=".6" transform="translate(232.725 61.472)" fill="#FFF"/><path d="M241.06 80.337c-5.155 0-9.317-4.31-9.317-9.606 0-5.297 4.162-9.607 9.317-9.607s9.316 4.31 9.316 9.607c0 5.296-4.161 9.606-9.316 9.606zm0-2.412c3.803 0 6.904-3.212 6.904-7.194 0-3.983-3.1-7.195-6.904-7.195s-6.905 3.212-6.905 7.195c0 3.982 3.101 7.194 6.905 7.194z" fill="#E88024" fill-rule="nonzero"/><ellipse cx="8.11" cy="9.259" rx="8.11" ry="8.4" opacity=".6" transform="translate(157.975 154.396)" fill="#FFF"/><path d="M166.085 173.261c-5.155 0-9.316-4.31-9.316-9.606s4.161-9.606 9.316-9.606c5.155 0 9.317 4.31 9.317 9.606s-4.162 9.606-9.317 9.606zm0-2.412c3.804 0 6.905-3.211 6.905-7.194s-3.101-7.194-6.905-7.194c-3.803 0-6.904 3.211-6.904 7.194s3.1 7.194 6.904 7.194z" fill="#E88024" fill-rule="nonzero"/><path d="M249.74 55.66l-.33-.944c.188-.071.282-.19.282-.354v-6.279h1.098v6.243c.49-.153.974-.322 1.452-.507v-6.727h1.11v9.76c1.144-.567 2.076-1.287 2.784-2.172a12.273 12.273 0 0 1-1.357-2.797l.909-.52c.295.827.673 1.606 1.121 2.314.59-1.097.932-2.384 1.015-3.847h-2.113c-.4 1.015-.908 1.876-1.51 2.56l-.697-.849c.897-1.133 1.5-2.644 1.806-4.544l1.121.189c-.1.52-.218 1.035-.354 1.546h3.742v1.098h-.921c-.094 1.876-.566 3.481-1.404 4.827.708.908 1.57 1.723 2.584 2.443l-.767.897a13.38 13.38 0 0 1-2.502-2.384c-.755.908-1.711 1.676-2.868 2.29l-.59-.957v.897h-1.11v-2.95c-.802.283-1.628.543-2.501.767zm11.707-5.3h1.723v-2.667h2.325c.142-.26.26-.53.33-.79l1.122.153a3.965 3.965 0 0 1-.307.637h3.376v2.668h1.475v1.027h-1.475v1.239c0 .696-.39 1.05-1.157 1.05h-.862l-.271-1.003c.295.024.566.047.814.047s.378-.165.378-.484v-.85h-4.756c-.19.98-.685 1.806-1.487 2.467l-.862-.767c.65-.472 1.062-1.039 1.24-1.7h-1.606V50.36zm7.47 0v-1.652h-2.961c.637.32 1.18.673 1.652 1.063l-.496.59h1.806l-.001-.001zm-2.997-1.652h-1.664v1.653h2.561a8.09 8.09 0 0 0-1.451-1.015l.554-.638zm-.354 2.715c.732.39 1.37.814 1.9 1.286l-.66.791c-.473-.496-1.086-.944-1.83-1.369l.59-.708zm5.004 2.596v2.632h1.228v1.003h-10.681v-1.003h1.156v-2.632h8.297zm-7.21 2.632h1.297v-1.617h-1.298v1.617h.001zm2.371 0h1.334v-1.617h-1.334v1.617zm2.42 0h1.333v-1.617h-1.333v1.617zm11.318-9.677l1.11.153c-.024.319-.06.626-.083.932h2.82v1.015h-2.938c-.048.284-.083.543-.118.803h2.325v6.703h1.074v1.015h-7.801V56.58h1.168v-6.703h2.136a10 10 0 0 0 .106-.803h-2.903v-1.015h3.021c.024-.366.06-.731.083-1.085zm-1.37 9.606h3.412v-.79H278.1v.79h-.001zm0-1.675h3.412v-.756H278.1v.756h-.001zm0-1.653h3.412v-.743H278.1v.743h-.001zm0-1.628h3.412v-.744H278.1v.744h-.001zm-3.788-.166c-.354.496-.731.98-1.133 1.44l-.365-1.192c1.097-1.345 1.9-2.927 2.407-4.72l1.015.471c-.22.741-.501 1.464-.838 2.16v8.32h-1.086v-6.479z" fill="#2A3052" fill-rule="nonzero"/><path d="M15.844 19.814l-.354-1.038c.201-.083.307-.213.307-.378v-6.23h1.204v6.171c.448-.141.896-.295 1.333-.46v-6.702h1.215v4.826c.92-1.239 1.534-2.88 1.853-4.909l1.239.213c-.095.519-.2 1.014-.319 1.475h3.646v1.215h-.897c-.094 1.817-.542 3.375-1.333 4.696a14.227 14.227 0 0 0 2.549 2.43l-.85 1.004a15.118 15.118 0 0 1-2.454-2.372c-.755.897-1.711 1.664-2.867 2.277l-.567-.92v.85h-1.215v-2.903a30.96 30.96 0 0 1-2.49.755zm6.1-5.817c-.117.307-.235.602-.353.885.365.991.826 1.911 1.368 2.737.543-1.038.862-2.253.944-3.622h-1.959zm-1.073 2.206a8.59 8.59 0 0 1-.59.78l-.732-.91v4.756c1.11-.543 2.006-1.24 2.679-2.089a14.183 14.183 0 0 1-1.357-2.537zm6.702-1.793h1.687v-2.655h2.348c.13-.248.236-.495.307-.755l1.239.165a2.67 2.67 0 0 1-.283.59h3.327v2.655h1.44v1.133h-1.44v1.156c0 .732-.413 1.097-1.227 1.097h-.838l-.307-1.097c.295.024.567.047.803.047.236 0 .354-.165.354-.484v-.72H31.82c.696.378 1.297.78 1.805 1.216l-.72.873c-.472-.495-1.074-.944-1.817-1.369l.614-.72h-1.357c-.2.968-.696 1.782-1.487 2.443l-.944-.85c.614-.448 1.027-.979 1.215-1.592h-1.557V14.41h.001zm7.41 0v-1.546h-2.714c.53.266 1.033.587 1.498.956l-.483.59h1.699zm-2.974-1.546h-1.557v1.546h2.372a7.456 7.456 0 0 0-1.346-.92l.531-.626zm4.732 5.216v2.607h1.203v1.098H27.242v-1.099h1.121v-2.607h8.378v.001zm-7.186 2.607h1.18v-1.498h-1.18v1.498zm2.372 0h1.215v-1.498h-1.215v1.498zm2.407 0h1.215v-1.498h-1.215v1.498zm11.21-9.628l1.226.165-.07.897h2.76v1.109h-2.89l-.107.708h2.278v6.667h1.062v1.132H41.98v-1.131h1.156v-6.667h2.1l.107-.708h-2.856v-1.11h2.974c.023-.365.059-.719.082-1.061l.001-.001zm-1.24 9.546h3.269v-.685h-3.269v.685zm0-1.652h3.269v-.661h-3.269v.661zm0-1.629h3.269v-.66h-3.269v.66zm0-1.628h3.269v-.649h-3.269v.65-.001zm-3.917.047c-.33.449-.673.897-1.05 1.322l-.401-1.322c1.061-1.321 1.852-2.879 2.36-4.672l1.109.519a15.7 15.7 0 0 1-.815 2.112v8.366h-1.203v-6.325zm10.466 1.463h5.958v1.11h-5.958v-1.11zm7.221-1.569h10.478v.968h-5.204v3.421c.213-.035.413-.07.602-.094v.932c-.189.036-.39.071-.602.118v1.11h-1.18v-.945c-1.038.13-2.36.248-3.94.366l-.154-1.038.991-.047v-3.823h-.991v-.968zm2.112 4.72c.662-.041 1.323-.1 1.982-.177v-.555h-1.982v.732zm0-1.605h1.982v-.649h-1.982v.65-.001zm0-1.522h1.982v-.625h-1.982v.625zm-.755-5.758h7.823v3.646H59.43v-3.646h.001zm6.643 2.796v-.554h-5.475v.554h5.475zm-5.475-1.38h5.475v-.532h-5.475v.532zm3.563 5.239h-.365v-.991h4.153v.932a5.194 5.194 0 0 1-1.027 2.147c.472.33 1.039.614 1.688.873l-.626 1.015a9.269 9.269 0 0 1-1.829-1.097c-.519.425-1.144.79-1.864 1.097l-.625-.944a6.943 6.943 0 0 0 1.664-.92 5.01 5.01 0 0 1-1.169-2.112zm1.912 1.38c.342-.425.602-.885.767-1.38h-1.628c.177.507.46.967.86 1.38h.001zm8.472-2.997v3.658c.26-.118.519-.236.779-.366l.2 1.062c-.672.26-1.451.543-2.348.838l-.319-1.05c.33-.106.496-.319.496-.626v-7.528c2.466-.365 4.425-.778 5.876-1.25l.673.98a28.58 28.58 0 0 1-2.018.565c.012.98.047 1.83.094 2.55h2.337v1.167h-2.242c.035.425.082.779.153 1.086.189 1.026.39 1.758.614 2.194.212.449.377.685.472.685.082 0 .177-.59.271-1.758l1.015.554c-.236 1.758-.602 2.643-1.086 2.643-.4 0-.814-.318-1.25-.932-.437-.613-.803-1.593-1.11-2.914a15.27 15.27 0 0 1-.26-1.558h-2.347zm2.147-3.457c-.66.13-1.38.26-2.147.378v1.911h2.242a43.978 43.978 0 0 1-.095-2.289zm-.271 6.218c.637.803 1.12 1.522 1.463 2.136l-.92.637a22.67 22.67 0 0 0-1.38-2.171l.837-.602zm-4.271-8.2l1.12.53c-.278.86-.642 1.69-1.085 2.479v7.988h-1.204v-6.195c-.318.401-.66.79-1.014 1.168l-.402-1.298c1.157-1.321 2.018-2.879 2.585-4.672zm15.929-.012l1.227.165-.071.897h2.76v1.109h-2.89l-.106.708h2.277v6.667h1.062v1.132h-7.823v-1.131h1.157v-6.667h2.1l.106-.708h-2.855v-1.11h2.973c.024-.365.059-.719.083-1.061v-.001zm-1.24 9.546h3.269v-.685h-3.268v.685h-.001zm0-1.652h3.269v-.661h-3.268v.66l-.001.001zm0-1.629h3.269v-.66h-3.268v.66h-.001zm0-1.628h3.269v-.649h-3.268v.65l-.001-.001zm-3.917.047c-.33.449-.672.897-1.05 1.322l-.401-1.322c1.062-1.321 1.852-2.879 2.36-4.672l1.109.519c-.224.731-.496 1.44-.814 2.112v8.366h-1.204v-6.325z" fill="#020202" fill-rule="nonzero"/><path d="M154.007 182.622h7.731v.764h-3.822v3.996h-.886v-.704c-.678.105-1.642.2-2.901.296l-.113-.765.712-.034v-2.789h-.721v-.764zm1.581 3.492a31.82 31.82 0 0 0 1.442-.148v-.382h-1.442v.53zm0-1.173h1.442v-.478h-1.442v.478zm0-1.12h1.442v-.435h-1.442v.435zm2.919.66h-.287v-.747h3.058v.703c-.14.59-.4 1.112-.765 1.564.356.243.773.469 1.26.66l-.46.756a7.365 7.365 0 0 1-1.382-.843c-.417.33-.92.608-1.494.834l-.46-.704c.52-.2.973-.434 1.346-.712a3.79 3.79 0 0 1-.816-1.511zm1.38.981a3.06 3.06 0 0 0 .574-.981h-1.181c.121.356.33.686.608.981h-.001zm.86-5.88v2.692h-.885v-2.015h-3.944v2.041h-.877v-2.719h5.707l-.001.001zm-4.551 1.077h3.396v.599h-3.396v-.6.001zm-.017.946h3.43v.591h-3.43v-.591zm8.2-2.319l.825.391c-.209.634-.47 1.242-.8 1.824v5.88h-.885v-4.56a13.81 13.81 0 0 1-.747.86l-.296-.955c.852-.973 1.486-2.12 1.903-3.44zm1.763 3.805v1.885c.47-.14.93-.296 1.373-.46l.156.79c-.712.234-1.555.478-2.51.738l-.226-.764c.217-.104.33-.304.33-.6v-4.595c1.841-.208 3.3-.443 4.386-.703l.504.72c-.408.105-.886.21-1.424.313 0 .678.008 1.277.026 1.807h1.555v.869h-1.52c.052 1.06.13 1.79.251 2.189.165.617.357.955.574 1.007.113-.026.217-.477.304-1.346l.72.495c-.173 1.199-.503 1.798-.99 1.798-.286 0-.547-.139-.781-.408-.313-.374-.539-.86-.678-1.468-.113-.452-.191-1.207-.234-2.267h-1.816zm1.78-.869a50.204 50.204 0 0 1-.025-1.668c-.539.079-1.12.157-1.755.235v1.433h1.78zm-2.64 4.144h2.884v.842h-2.884v-.842zm10.824-7.089l.903.122-.052.66h2.032v.817h-2.128l-.078.52h1.677v4.909h.781v.834h-5.759v-.834h.851v-4.908h1.547l.078-.521h-2.102v-.817h2.189c.017-.27.043-.53.06-.782h.001zm-.913 7.028h2.407v-.504h-2.407v.504zm0-1.216h2.407v-.487h-2.407v.487zm0-1.2h2.407v-.485h-2.407v.486-.001zm0-1.198h2.407v-.478h-2.407v.478zm-2.883.035c-.244.33-.496.66-.774.973l-.295-.973c.782-.973 1.364-2.12 1.737-3.44l.817.382c-.165.539-.365 1.06-.6 1.555v6.159h-.885v-4.656zM25.35 127.467l.903.102-.372 2.323c.12.008.738.008 1.855 0 .032 1.705-.32 4.25-1.038 5.713.771.828 1.256 1.391 1.455 1.688l-.601.67-1.236-1.475c-.72 1.182-1.347 2.005-1.88 2.47-.09-.128-.272-.36-.55-.697.698-.746 1.387-1.508 1.797-2.403l-1.592-1.586.8-3.535h-1.004v-.845h1.126l.337-2.425zm1.568 3.276h-1.14a50.526 50.526 0 0 1-.733 3.237c.423.412.763.746 1.02 1.002.435-.93.853-3.577.853-4.24v.001zm3.959-3.26l.831.285c-.955 1.982-1.696 3.267-2.224 3.857 2.408-.21 3.733-.355 3.976-.438-.59-1.119-.932-1.745-1.027-1.88l.776-.376c.838 1.442 1.476 2.634 1.915 3.577l-.844.425-.439-.969c-3.043.35-4.885.532-5.525.544a23.907 23.907 0 0 0-.14-.826c.72-.397 1.62-1.796 2.701-4.199zm2.699 11.475v-.766h-3.822v.766h-.878v-5.311h5.548v5.311h-.848zm-.006-4.493h-3.795v2.86h3.795v-2.86zm-20.588-5.484v-.64h9.58v.64h-1.824v3.393h2.612v.986h-2.612v5.346h-1.016v-5.346l-3.624-.008c-.272 4.564-2.711 5.354-3.016 5.554a7.539 7.539 0 0 1-.528-.77c1.19-.913 2.542-1.93 2.542-4.784-1.016.005-2.15.027-2.817.008v-.986h2.817v-3.393h-2.114zm6.714.179h-3.499v3.192h3.5v-3.192h-.001z" fill="#2A3052" fill-rule="nonzero"/></g></svg>