<svg width="299" height="197" xmlns="http://www.w3.org/2000/svg"><g fill="none"><path fill="#F1F1F2" d="M0 0h299v197H0z"/><path d="M1.987 1.98v193.04h295.026V1.98H1.987zM299 0v197H0V0h299z" fill="#C2C2C2"/><path d="M5.007 55.161v-1.207h290v1.207h-290zm0 20.298v-1.207h290v1.207h-290zm0 60.927v-1.207h290v1.207h-290zm0 20.297v-1.207h290v1.207h-290zm0 20.3v-1.208h290v1.207h-290zM39.437 34.26h1.21v160h-1.21v-160zm36.7 0h1.209v160h-1.21v-160zm36.698 0h1.21v160h-1.21v-160zm36.662 0h1.209v160h-1.21v-160zm36.698 0h1.21v160h-1.21v-160zm36.7 0h1.209v160h-1.21v-160zm36.698 0h1.209v160h-1.21v-160zM5.007 116.09v-1.207h290v1.207h-290z" fill="#DEDEDD"/><path fill="#293052" d="M3.607 97.132v-1.219h1.83v1.22zm5.486 0v-1.219h3.659v1.22H9.093zm7.317 0v-1.219h3.658v1.22H16.41zm7.317 0v-1.219h3.658v1.22h-3.658zm7.316 0v-1.219h3.659v1.22h-3.659zm7.317 0v-1.219h3.658v1.22H38.36zm7.317 0v-1.219h3.658v1.22h-3.658zm7.316 0v-1.219h3.659v1.22h-3.659zm7.317 0v-1.219h3.658v1.22H60.31zm7.316 0v-1.219h3.659v1.22h-3.659zm7.317 0v-1.219h3.658v1.22h-3.658zm7.317 0v-1.219h3.658v1.22H82.26zm7.316 0v-1.219h3.659v1.22h-3.659zm7.317 0v-1.219h3.658v1.22h-3.658zm7.317 0v-1.219h3.658v1.22h-3.658zm7.316 0v-1.219h3.659v1.22h-3.659zm7.317 0v-1.219h3.658v1.22h-3.658zm7.317 0v-1.219h3.658v1.22h-3.658zm7.316 0v-1.219h3.659v1.22h-3.659zm7.317 0v-1.219h3.658v1.22h-3.658zm7.316 0v-1.219h3.659v1.22h-3.659zm7.317 0v-1.219h3.658v1.22h-3.658zm7.317 0v-1.219h3.658v1.22h-3.658zm7.316 0v-1.219h3.659v1.22h-3.659zm7.317 0v-1.219h3.658v1.22h-3.658zm7.317 0v-1.219h3.658v1.22h-3.658zm7.316 0v-1.219h3.659v1.22h-3.659zm7.317 0v-1.219h3.658v1.22h-3.658zm7.317 0v-1.219h3.658v1.22h-3.658zm7.316 0v-1.219h3.658v1.22h-3.658zm7.317 0v-1.219h3.658v1.22h-3.658zm7.316 0v-1.219h3.659v1.22h-3.659zm7.317 0v-1.219h3.658v1.22h-3.658zm7.317 0v-1.219h3.658v1.22h-3.658zm7.316 0v-1.219h3.659v1.22h-3.659zm7.317 0v-1.219h3.658v1.22h-3.658zm7.317 0v-1.219h3.658v1.22h-3.658zm7.316 0v-1.219h3.659v1.22h-3.659zm7.317 0v-1.219h3.658v1.22h-3.658zm7.316 0v-1.219h3.659v1.22h-3.659zm7.049 0v-1.219h1.79v1.22z"/><path fill="#C2C2C2" d="M1 30v-2h296v2z"/><path d="M222.578 95.26a1.81 1.81 0 1 1 2.595 2.525l-31.968 32.869a1.81 1.81 0 0 1-2.149.335l-41.82-22.3-42.486 24.894a1.81 1.81 0 0 1-1.727.056l-29.91-15.004a1.81 1.81 0 0 1-.358-.237L37.758 87.076a1.81 1.81 0 1 1 2.339-2.763l36.833 31.183 28.838 14.467 42.512-24.91a1.81 1.81 0 0 1 1.767-.035l41.512 22.137 31.02-31.894z" fill="#293052"/><path d="M188.232 145.498H152.95l-5.563-8.238-5.334 8.238H106.77a4.716 4.716 0 0 0-3.366 1.413 4.882 4.882 0 0 0-1.397 3.42v25.02a4.882 4.882 0 0 0 1.397 3.42 4.716 4.716 0 0 0 3.366 1.413h81.462a4.725 4.725 0 0 0 3.442-1.374 4.87 4.87 0 0 0 1.434-3.46v-24.98a4.87 4.87 0 0 0-1.42-3.485 4.726 4.726 0 0 0-3.456-1.388z" fill="#E88024"/><ellipse fill="#FFF" opacity=".6" cx="223.875" cy="96.523" rx="8.192" ry="8.547"/><path d="M223.876 106.288c-5.21 0-9.412-4.383-9.412-9.765 0-5.383 4.202-9.766 9.412-9.766 5.21 0 9.411 4.383 9.411 9.766 0 5.382-4.202 9.765-9.411 9.765zm0-2.438c3.84 0 6.973-3.27 6.973-7.327 0-4.059-3.134-7.328-6.973-7.328-3.84 0-6.974 3.27-6.974 7.328s3.134 7.327 6.974 7.327zm23.051-16.337h28.767v19.179h-28.766z" fill="#E88024"/><path d="M260.72 90.722a5.67 5.67 0 0 1 1.257 0 6.6 6.6 0 0 1 1.144.387l-.42 1.779-.99-.27h-.991a2.16 2.16 0 0 0-1.753.85 3.44 3.44 0 0 0-.609 2.32 2.787 2.787 0 0 1 1.029-.658c.451-.166.93-.245 1.41-.231a3.03 3.03 0 0 1 2.514 1.16c.634.856.957 1.908.915 2.977a4.25 4.25 0 0 1-1.144 3.055 3.781 3.781 0 0 1-2.934 1.199 4.01 4.01 0 0 1-3.123-1.315 5.192 5.192 0 0 1-1.182-3.636v-2.396a5.267 5.267 0 0 1 1.371-3.868 4.612 4.612 0 0 1 3.506-1.353zm-.572 6.071a2.709 2.709 0 0 0-1.143.232 1.757 1.757 0 0 0-.723.58v.812a3.917 3.917 0 0 0 .533 2.244c.293.482.812.775 1.371.772a1.369 1.369 0 0 0 1.182-.696 2.998 2.998 0 0 0 .533-1.701c.03-.59-.13-1.174-.457-1.663a1.44 1.44 0 0 0-1.296-.619v.039z" fill="#FFF"/><path fill="#E88024" d="M250.433 97.102l-3.354 3.403-5.22-3.403 5.22-3.364z"/><path d="M175 15.174h11.466v.754h-5.837v4.108c.26-.039.52-.078.754-.117v.741c-.234.039-.494.078-.754.13v1.261h-.91v-1.144a80.6 80.6 0 0 1-4.563.377l-.117-.806 1.209-.052v-4.498H175v-.754zm2.093 5.213a54.962 54.962 0 0 0 2.626-.234v-.884h-2.626v1.118zm0-1.807h2.626v-.975h-2.626v.975zm0-1.677h2.626v-.975h-2.626v.975zm-.442-6.331h8.216v3.744h-8.216v-3.744zm7.319 3.068v-.871h-6.422v.871h6.422zm-6.422-1.534h6.422v-.832h-6.422v.832zm4.173 5.46h-.416v-.767h4.433v.728a6.187 6.187 0 0 1-1.313 2.587c.572.429 1.248.806 2.054 1.144l-.481.78c-.858-.403-1.586-.845-2.171-1.326-.598.52-1.326.962-2.171 1.326l-.481-.728c.78-.338 1.456-.728 2.015-1.196a5.827 5.827 0 0 1-1.469-2.548zm2.041 1.989a5.636 5.636 0 0 0 1.131-1.989h-2.366a4.738 4.738 0 0 0 1.235 1.989zm6.422-4.862v.338c-.078 2.912-.676 5.226-1.768 6.955l-.689-.715c.949-1.508 1.456-3.588 1.534-6.24v-3.9c3.354-.039 6.357-.338 9.035-.897l.468.845c-2.548.52-5.408.806-8.58.884v1.82h9.36v.91h-9.36zm8.333 1.82v5.512h-.936v-.611h-5.265v.611h-.936v-5.512h7.137zm-6.201 3.991h5.265V17.41h-5.265v3.094zm16.458-7.514l-.169.676c.325 1.521.741 2.834 1.261 3.926.507-1.313.78-2.847.832-4.602h-1.924zm.663 5.538c-.507-1.001-.936-2.145-1.287-3.445a11.468 11.468 0 0 1-.767 1.599l-.585-.715c.767-1.456 1.287-3.419 1.547-5.889l.91.156a29.8 29.8 0 0 1-.286 1.859h3.432v.897h-.845c-.065 2.171-.468 4.03-1.196 5.564.676 1.17 1.469 2.067 2.405 2.704l-.507.767c-.91-.65-1.69-1.534-2.34-2.626a8.72 8.72 0 0 1-2.405 2.613l-.481-.78a7.652 7.652 0 0 0 2.405-2.704zm-6.162-2.379l.871.104c-.091.247-.182.481-.26.715h2.717v.767a5.236 5.236 0 0 1-1.443 2.223c.624.286 1.222.572 1.794.884l-.507.728a18.914 18.914 0 0 0-2.002-1.027c-.858.598-1.937 1.079-3.237 1.443l-.442-.78c1.066-.286 1.989-.637 2.743-1.066a34.795 34.795 0 0 0-1.807-.728c.338-.572.637-1.105.897-1.625h-1.534v-.819h1.898c.117-.286.221-.559.312-.819zm1.027 3.445c.65-.52 1.144-1.131 1.456-1.807h-2.236a9.663 9.663 0 0 1-.702 1.248c.52.182 1.014.364 1.482.559zm-2.21-9.243c.312.507.572 1.053.806 1.625l-.676.312a12.024 12.024 0 0 0-.871-1.69l.741-.247zm3.952-.039l.676.312a8.656 8.656 0 0 1-1.001 1.677l-.663-.338c.416-.559.754-1.105.988-1.651zm-4.953 2.288h2.535v-2.483h.871V12.6h2.366v.819h-2.366v.143c.702.351 1.43.754 2.158 1.196l-.481.728a24.8 24.8 0 0 0-1.677-1.248v1.69h-.871v-2.47c-.429 1.027-1.209 1.911-2.327 2.665l-.455-.754c1.001-.585 1.703-1.235 2.093-1.95h-1.846V12.6zm24.141-1.157v2.899h-.936V12.34h-9.152v2.002h-.936v-2.899h5.109a10.405 10.405 0 0 0-.585-1.261l1.066-.182c.182.429.364.91.533 1.443h4.901zm-9.022 2.301h6.981v.871c-.845.598-1.794 1.17-2.834 1.742v.871h5.122v.91h-5.122v2.756c0 .715-.377 1.079-1.131 1.079h-1.599l-.221-.858c.455.013.949.026 1.495.026.338 0 .507-.195.507-.572v-2.431h-5.434v-.91h5.434v-1.274a32.896 32.896 0 0 0 2.379-1.339h-5.577v-.871zm15.262-1.391v8.866h-.91v-.741h-2.366v1.118h-.91v-9.243h1.209c.26-.728.442-1.482.559-2.262l.936.13a12.416 12.416 0 0 1-.611 2.132h2.093zm-3.276 7.254h2.366V16.76h-2.366v2.847zm0-3.692h2.366v-2.678h-2.366v2.678zm5.538-.546c.936 1.079 1.638 2.028 2.132 2.834l-.741.52c-.533-.858-1.248-1.82-2.145-2.886l.754-.468zm4.459-3.003c0 4.316-.065 6.994-.195 8.008-.13.988-.728 1.495-1.82 1.495-.26 0-.702-.026-1.326-.052l-.221-.858c.546.026 1.014.039 1.417.039.611 0 .962-.338 1.066-1.001.078-.728.13-2.977.156-6.721h-3.575c-.364.819-.793 1.56-1.3 2.223l-.559-.741c.91-1.274 1.521-2.834 1.859-4.68l.923.117a17.048 17.048 0 0 1-.572 2.171h4.147zm6.981-1.729h6.448v.884h-2.639a16.12 16.12 0 0 1-.26 1.456h2.457V19.1h-.884v-5.291h-3.757V19.1h-.884v-6.123h2.171c.104-.468.182-.962.234-1.456h-2.886v-.884zm4.16 8.463c.962.754 1.768 1.508 2.418 2.262l-.65.65c-.572-.728-1.365-1.508-2.366-2.327l.598-.585zm-1.404-4.55h.91v2.34c-.039 1.391-.351 2.496-.936 3.315-.572.767-1.495 1.365-2.782 1.807l-.507-.793c1.235-.403 2.106-.936 2.6-1.612.442-.702.689-1.599.715-2.717v-2.34zm-6.747-2.275c.351.338.676.663.962.975.468-.507.897-1.092 1.287-1.742h-3.276v-.871h4.277v.741a13.162 13.162 0 0 1-1.742 2.47c.247.286.455.546.637.78h1.482v.572c-.208 1.014-.468 1.807-.754 2.379l-.767-.299a9.993 9.993 0 0 0 .637-1.781h-1.378v5.434c0 .676-.338 1.027-.988 1.027h-1.248l-.182-.845c.39.039.767.065 1.131.065.26 0 .403-.156.403-.468v-5.213h-1.872v-.871h2.522a26.49 26.49 0 0 0-1.82-1.924l.689-.429zm12.441-1.898a13.178 13.178 0 0 1 1.833 1.729l-.611.624c-.442-.546-1.066-1.131-1.859-1.742l.637-.611zm-.208 3.198c.702.624 1.3 1.235 1.781 1.859l-.611.611c-.442-.585-1.04-1.209-1.807-1.872l.637-.598zm1.144 3.497l.793.312a47.455 47.455 0 0 1-1.651 4.485l-.858-.364a44.614 44.614 0 0 0 1.716-4.433zm5.772-6.331v7.93h-.832v-7.124h-2.691v7.202h-.832v-8.008h4.355zm-1.391 8.541a14.856 14.856 0 0 1 1.989 2.119l-.624.624c-.468-.689-1.105-1.417-1.937-2.197l.572-.546zm-1.17-6.838h.78v4.121c-.026 1.482-.26 2.665-.702 3.549-.429.806-1.131 1.456-2.093 1.924l-.494-.78c.936-.442 1.586-1.027 1.95-1.755.338-.754.533-1.729.559-2.938v-4.121zm5.369 9.477h-1.43l-.195-.871c.455.039.897.065 1.313.065.299 0 .455-.182.455-.52V10.182h.884v10.634c0 .728-.351 1.105-1.027 1.105zm-1.781-10.673h.819v8.112h-.819v-8.112zm7.489 2.934c.224 0 .434.084.602.252a.814.814 0 0 1 .252.602.845.845 0 0 1-.252.616.883.883 0 0 1-.602.238.812.812 0 0 1-.602-.238.845.845 0 0 1-.252-.616c0-.238.084-.434.252-.602a.772.772 0 0 1 .602-.252zm0 5.124c.224 0 .434.084.602.252a.814.814 0 0 1 .252.602.845.845 0 0 1-.252.616.883.883 0 0 1-.602.238.812.812 0 0 1-.602-.238.845.845 0 0 1-.252-.616c0-.238.084-.434.252-.602a.772.772 0 0 1 .602-.252zm10.808-8.498c.952 0 1.736.238 2.324.728.574.49.868 1.148.868 1.988 0 1.12-.546 1.876-1.638 2.24.588.182 1.036.462 1.344.854.336.392.504.882.504 1.47 0 .91-.322 1.652-.952 2.226-.644.588-1.484.882-2.52.882-.952 0-1.722-.252-2.324-.728-.714-.588-1.106-1.442-1.19-2.562h1.162c.028.784.294 1.386.784 1.792.42.336.938.518 1.568.518.714 0 1.288-.21 1.722-.616.392-.392.602-.882.602-1.47 0-.602-.196-1.064-.588-1.4-.392-.336-.924-.49-1.624-.49h-.812v-.896h.77c.672 0 1.176-.154 1.526-.448.35-.308.532-.742.532-1.302s-.182-.994-.518-1.302c-.364-.336-.882-.49-1.526-.49-.672 0-1.19.168-1.568.532-.392.364-.616.882-.686 1.554h-1.134c.084-.966.448-1.722 1.064-2.268.588-.546 1.358-.812 2.31-.812z" fill="#2A3052"/><path d="M15.96 10.59h3.12c-.18-.45-.39-.885-.6-1.275l1.635-.27c.18.45.375.975.555 1.545h3.105c.225-.51.405-1.05.525-1.59l1.65.225c-.15.48-.33.945-.57 1.365h2.82v1.455h-5.235c-.06.3-.135.585-.21.87h4.62v1.44H22.35c-.09.27-.195.555-.3.825h6.66v1.47h-7.32c-.135.27-.27.525-.42.78-.06.09-.12.165-.18.255h6.915v1.5h-3.99v1.83h4.92v1.53H17.28v-1.47c-.39.27-.81.54-1.23.81L15 20.55c1.995-1.035 3.495-2.265 4.515-3.69.045-.075.09-.15.135-.21h-4.125v-1.47h4.935c.12-.27.225-.555.33-.825h-3.945v-1.44h4.35c.06-.3.12-.585.165-.87h-5.4V10.59zm1.395 10.425h4.755v-1.83h-2.58a16.484 16.484 0 0 1-2.175 1.83zm24.39-11.43v3.87h-8.55v.66c0 .45.225.675.675.675h7.77c.21-.015.36-.09.435-.24.06-.105.12-.45.18-1.035l1.41.465c-.09.69-.18 1.17-.3 1.47-.18.48-.585.72-1.245.75h-8.88c-1.065 0-1.59-.495-1.59-1.47V9.585h10.095zm-8.55 2.49h7.035v-1.08h-7.035v1.08zm-3.045 5.97h3.69c0-.39.015-.855.015-1.41h1.56c0 .585-.015 1.05-.03 1.41h3.465V16.65h1.56v1.395h3.57v1.425h-3.57v3.48h-1.56v-3.48h-3.69c-.435 1.74-1.545 2.925-3.315 3.54l-.81-1.38c1.38-.36 2.25-1.08 2.61-2.16H30.15v-1.425z" fill="#000"/><path d="M149.672 163.362v6.358h-1.144v-5.17h-3.058v5.126h-1.166v-6.314h5.368zm-2.662 7.282c-.088.22-.176.418-.264.594-.484.88-1.254 1.562-2.354 2.046l-.66-1.034c1.012-.462 1.716-1.056 2.134-1.76.352-.77.55-1.76.594-2.992v-1.914h1.056v1.914a13.42 13.42 0 0 1-.198 2.024 16.19 16.19 0 0 1 2.112 2.178l-.836.836c-.418-.616-.946-1.232-1.584-1.892zm-9.592-16.082h9.064a11.86 11.86 0 0 0-.682-1.298l1.584-.264c.22.462.418.99.594 1.562h8.888v1.144h-15.994v1.144h14.498v1.122h-15.972v-2.266h-1.98v-1.144zm2.596 4.444h14.19v3.278h-14.19v-3.278zm12.65 2.244v-1.21h-11.11v1.21h11.11zm-12.98 5.984c-.022.55-.066 1.078-.11 1.562h2.42v-1.562h-2.31zm2.31-1.034v-1.584h-2.31v1.584h2.31zm-2.574 3.63c-.264 1.43-.748 2.64-1.43 3.652l-.99-.902c.924-1.408 1.386-3.168 1.408-5.324v-3.85h4.84v8.47c0 .99-.528 1.496-1.562 1.496h-.902l-.33-1.188c.286.044.572.066.836.066.462 0 .704-.286.704-.814v-1.606h-2.574zm16.632 3.3h-.77c-.792 0-1.166-.44-1.166-1.276v-7.194h-2.09v2.266c0 1.628-.11 2.882-.33 3.762-.242.88-.748 1.804-1.518 2.772l-.99-.858c.66-.792 1.1-1.518 1.32-2.2.22-.704.33-1.87.33-3.476v-3.52h4.466v8.074c0 .33.132.506.418.506h.132c.132 0 .242-.11.308-.33.066-.22.132-.946.198-2.2l1.012.352c-.132 1.496-.264 2.42-.418 2.794-.176.352-.462.528-.902.528zm-3.146-6.512c.396.88.77 1.804 1.078 2.816l-.836.374c-.33-1.1-.682-2.068-1.078-2.904l.836-.286zm7.876-11.11h2.046l-.33 11.484h-1.364l-.352-11.484zm1.012 13.09c.396 0 .704.11.968.374.242.242.374.55.374.924 0 .396-.132.704-.374.946a1.402 1.402 0 0 1-.968.374 1.26 1.26 0 0 1-.924-.374 1.28 1.28 0 0 1-.396-.946c0-.374.132-.682.396-.924.242-.264.55-.374.924-.374z" fill="#FFF"/></g></svg>