<svg width="299" height="197" xmlns="http://www.w3.org/2000/svg"><g fill="none"><path fill="#F1F1F2" d="M0 0h299v197H0z"/><path d="M1.987 1.98v193.04h295.026V1.98H1.987zM299 0v197H0V0h299z" fill="#C2C2C2"/><path d="M4.58 54.993v-1.211h290.408v1.21H4.58zm0 80.353v-1.211h290.408v1.211H4.58zm0 20.079v-1.211h290.408v1.211H4.58zm0 20.079v-1.211h290.408v1.21H4.58zM39.06 34.308h1.21V192.59h-1.21V34.308zm36.75 0h1.21V192.59h-1.21V34.308zm36.75 0h1.211V192.59h-1.21V34.308zm36.713 0h1.211V192.59h-1.211V34.308zm36.75 0h1.212V192.59h-1.212V34.308zm36.75 0h1.212V192.59h-1.211V34.308zm36.751 0h1.212V192.59h-1.212V34.308zM4.58 115.268v-1.212h290.408v1.211H4.58zm0-40.196V73.86h290.408v1.21H4.58z" fill="#DEDEDD"/><path d="M4.58 95.188v-1.21h3.595v1.21H4.58zm7.19 0v-1.21h3.596v1.21h-3.595zm7.192 0v-1.21h3.595v1.21h-3.595zm7.191 0v-1.21h3.596v1.21h-3.596zm7.191 0v-1.21h3.596v1.21h-3.596zm7.191 0v-1.21h3.596v1.21h-3.596zm7.191 0v-1.21h3.596v1.21h-3.596zm7.192 0v-1.21h3.595v1.21h-3.595zm7.19 0v-1.21h3.596v1.21H62.11zm7.192 0v-1.21h3.595v1.21H69.3zm7.191 0v-1.21h3.596v1.21H76.49zm7.191 0v-1.21h3.596v1.21h-3.596zm7.191 0v-1.21h3.596v1.21h-3.596zm7.191 0v-1.21h3.596v1.21h-3.596zm7.192 0v-1.21h3.595v1.21h-3.595zm7.19 0v-1.21h3.596v1.21h-3.595zm7.192 0v-1.21h3.595v1.21h-3.595zm7.191 0v-1.21h3.596v1.21h-3.596zm7.191 0v-1.21h3.596v1.21h-3.596zm7.191 0v-1.21h3.596v1.21h-3.596zm7.191 0v-1.21h3.596v1.21h-3.596zm7.192 0v-1.21h3.595v1.21h-3.595zm7.19 0v-1.21h3.596v1.21h-3.595zm7.192 0v-1.21h3.595v1.21h-3.595zm7.191 0v-1.21h3.596v1.21h-3.596zm7.191 0v-1.21h3.596v1.21h-3.596zm7.191 0v-1.21h3.596v1.21h-3.596zm7.191 0v-1.21h3.596v1.21h-3.596zm7.192 0v-1.21h3.595v1.21h-3.595zm7.19 0v-1.21h3.596v1.21h-3.595zm7.192 0v-1.21h3.595v1.21h-3.595zm7.19 0v-1.21h3.597v1.21h-3.596zm7.192 0v-1.21h3.596v1.21h-3.596zm7.191 0v-1.21h3.596v1.21h-3.596zm7.191 0v-1.21h3.596v1.21h-3.596zm7.191 0v-1.21h3.596v1.21h-3.596zm7.192 0v-1.21h3.595v1.21h-3.595zm7.19 0v-1.21h3.596v1.21h-3.595zm7.192 0v-1.21h3.595v1.21h-3.595zm7.191 0v-1.21h3.596v1.21h-3.596zm7.191 0v-1.21h2.763v1.21h-2.763z" fill="#293052"/><path fill="#C2C2C2" d="M2 30v-2h296v2z"/><path d="M40.913 115.955a1.798 1.798 0 0 1-2.496-2.587l36.75-35.46a1.798 1.798 0 0 1 2.695.227l35.663 48.38 35.183-26.994a1.798 1.798 0 0 1 2.31.102l35.878 32.923 72.372-39.54a1.798 1.798 0 0 1 1.724 3.155l-73.501 40.157a1.798 1.798 0 0 1-2.078-.253L149.7 103.293l-35.44 27.191a1.798 1.798 0 0 1-2.541-.36L76.186 81.922l-35.273 34.034z" fill="#293052"/><path d="M188.65 146.07h-35.047l-5.526-8.07-5.299 8.07h-35.047a4.733 4.733 0 0 0-4.731 4.735v24.511a4.733 4.733 0 0 0 4.731 4.736h80.92a4.729 4.729 0 0 0 3.418-1.346 4.738 4.738 0 0 0 1.426-3.39v-24.473a4.738 4.738 0 0 0-1.412-3.414 4.729 4.729 0 0 0-3.433-1.36z" fill="#E88024"/><path d="M150.53 163.146v6.358h-1.144v-5.17h-3.058v5.126h-1.166v-6.314h5.368zm-2.662 7.282c-.088.22-.176.418-.264.594-.484.88-1.254 1.562-2.354 2.046l-.66-1.034c1.012-.462 1.716-1.056 2.134-1.76.352-.77.55-1.76.594-2.992v-1.914h1.056v1.914a13.42 13.42 0 0 1-.198 2.024 16.19 16.19 0 0 1 2.112 2.178l-.836.836c-.418-.616-.946-1.232-1.584-1.892zm-9.592-16.082h9.064a11.86 11.86 0 0 0-.682-1.298l1.584-.264c.22.462.418.99.594 1.562h8.888v1.144H141.73v1.144h14.498v1.122h-15.972v-2.266h-1.98v-1.144zm2.596 4.444h14.19v3.278h-14.19v-3.278zm12.65 2.244v-1.21h-11.11v1.21h11.11zm-12.98 5.984c-.022.55-.066 1.078-.11 1.562h2.42v-1.562h-2.31zm2.31-1.034V164.4h-2.31v1.584h2.31zm-2.574 3.63c-.264 1.43-.748 2.64-1.43 3.652l-.99-.902c.924-1.408 1.386-3.168 1.408-5.324v-3.85h4.84v8.47c0 .99-.528 1.496-1.562 1.496h-.902l-.33-1.188c.286.044.572.066.836.066.462 0 .704-.286.704-.814v-1.606h-2.574zm16.632 3.3h-.77c-.792 0-1.166-.44-1.166-1.276v-7.194h-2.09v2.266c0 1.628-.11 2.882-.33 3.762-.242.88-.748 1.804-1.518 2.772l-.99-.858c.66-.792 1.1-1.518 1.32-2.2.22-.704.33-1.87.33-3.476v-3.52h4.466v8.074c0 .33.132.506.418.506h.132c.132 0 .242-.11.308-.33.066-.22.132-.946.198-2.2l1.012.352c-.132 1.496-.264 2.42-.418 2.794-.176.352-.462.528-.902.528zm-3.146-6.512c.396.88.77 1.804 1.078 2.816l-.836.374c-.33-1.1-.682-2.068-1.078-2.904l.836-.286zm7.876-11.11h2.046l-.33 11.484h-1.364l-.352-11.484zm1.012 13.09c.396 0 .704.11.968.374.242.242.374.55.374.924 0 .396-.132.704-.374.946a1.402 1.402 0 0 1-.968.374 1.26 1.26 0 0 1-.924-.374 1.28 1.28 0 0 1-.396-.946c0-.374.132-.682.396-.924.242-.264.55-.374.924-.374z" fill="#FFF"/><ellipse cx="8.333" cy="8.585" rx="8.137" ry="8.373" opacity=".6" transform="translate(251.797 87.135)" fill="#FFF"/><path d="M260.13 105.303c-5.17 0-9.348-4.298-9.348-9.584 0-5.285 4.177-9.583 9.348-9.583 5.17 0 9.348 4.298 9.348 9.583 0 5.286-4.177 9.584-9.348 9.584zm0-2.422c3.817 0 6.926-3.199 6.926-7.162 0-3.962-3.109-7.16-6.926-7.16s-6.926 3.198-6.926 7.16c0 3.963 3.109 7.162 6.926 7.162z" fill="#E88024"/><ellipse cx="8.386" cy="8.585" rx="8.137" ry="8.373" opacity=".6" transform="translate(31.278 106.077)" fill="#FFF"/><path d="M39.665 124.245c-5.171 0-9.349-4.298-9.349-9.583 0-5.286 4.178-9.584 9.349-9.584 5.17 0 9.348 4.298 9.348 9.584 0 5.285-4.177 9.583-9.348 9.583zm0-2.422c3.817 0 6.926-3.199 6.926-7.161 0-3.963-3.109-7.162-6.926-7.162-3.818 0-6.926 3.199-6.926 7.162 0 3.962 3.108 7.161 6.926 7.161zM247.564 65.98h25.094v16.518h-25.094z" fill="#E88024"/><path fill="#E88024" d="M257.698 82.48l2.382-2.385 2.382 2.384-2.382 2.384z"/><path d="M262.439 76.057h1.4v1.099h-1.4v2.349h-1.287v-2.349h-4.693v-.796l4.693-7.122h1.476v6.82h-.19zm-4.504 0h3.217v-4.811.34l-3.217 4.471z" fill="#FFF"/><path fill="#D5D3DA" d="M137.35 79.202h25.094v16.517h-25.093z"/><path fill="#D5D3DA" d="M147.51 95.696l2.383-2.384 2.381 2.384-2.381 2.384z"/><path d="M148.554 86.93h1.21c.476.045.946-.122 1.288-.454.273-.372.407-.828.378-1.288a1.857 1.857 0 0 0-.454-1.326 1.702 1.702 0 0 0-1.287-.455 1.778 1.778 0 0 0-1.287.492 1.706 1.706 0 0 0-.492 1.25h-1.286c-.019-.8.347-1.56.984-2.045a3.782 3.782 0 0 1 4.58 0c.579.563.883 1.352.832 2.16a2.462 2.462 0 0 1-1.552 2.234 2.271 2.271 0 0 1 1.325.948c.253.437.384.934.378 1.44a2.766 2.766 0 0 1-.908 2.197 3.442 3.442 0 0 1-2.347.795 3.518 3.518 0 0 1-2.308-.758 2.425 2.425 0 0 1-1.06-2.197h1.362c-.024.48.154.947.492 1.288.371.339.861.516 1.363.493a1.93 1.93 0 0 0 1.4-.493c.31-.356.472-.816.454-1.288a1.592 1.592 0 0 0-1.854-1.856h-1.211V86.93z" fill="#293052"/><path fill="#D5D3DA" d="M27.1 84.43h25.093v16.517H27.099z"/><path fill="#D5D3DA" d="M37.28 100.966l2.381-2.384 2.382 2.384-2.382 2.384z"/><path fill="#293052" d="M40.384 97.955H39.02v-8.903H36.9v-.985l3.483-.38z"/><path d="M251.18 125.5v1.02c-1.53.555-3.255 1.005-5.205 1.365l-.135-1.05c2.04-.33 3.81-.78 5.34-1.335zm-2.775-10.8l1.005.39c-.765 1.95-1.545 3.51-2.325 4.68.705-.09 1.41-.195 2.13-.315.285-.54.585-1.095.885-1.665l.945.345c-1.365 2.535-2.505 4.335-3.42 5.415a26.668 26.668 0 0 0 3.375-.9v.96c-1.62.555-3.18.93-4.68 1.125l-.285-.975c.195-.09.36-.195.495-.315.57-.585 1.275-1.575 2.115-2.985-.855.135-1.71.255-2.58.375l-.27-.99c.165-.075.315-.21.45-.405.84-1.38 1.56-2.955 2.16-4.74zm2.595 1.905h3.585v-1.815h1.095v1.815h3.57v1.05h-3.57v2.22h3.135v1.05h-7.32v-1.05h3.09v-2.22H251v-1.05zm7.38 5.82v6.03h-1.05v-.72h-4.29v.72h-1.065v-6.03h6.405zm-5.34 4.29h4.29v-3.27h-4.29v3.27zm8.04-10.425h5.865v-1.5h1.11v1.5h5.835v1.035h-5.835v1.47h4.725v4.245h-3.81c1.08 1.53 2.91 2.88 5.46 4.08l-.735.93c-2.655-1.485-4.515-3.15-5.595-5.01h-.045v5.445h-1.11v-5.445h-.045c-1.14 2.04-3.03 3.72-5.685 5.04l-.63-.99c2.49-1.05 4.305-2.4 5.43-4.05h-3.765v-4.245h4.695v-1.47h-5.865v-1.035zm10.62 5.76v-2.235h-3.645v2.235h3.645zm-4.755 0v-2.235h-3.615v2.235h3.615zM26.68 131.645h11.685v1.05H35.86v3.975h3.285v1.035H35.86v6.645h-1.095v-6.645H30.43c-.135 1.545-.42 2.82-.87 3.84-.57 1.26-1.515 2.235-2.835 2.925l-.585-.93c1.215-.69 2.07-1.605 2.55-2.745.315-.87.525-1.89.645-3.09H25.87v-1.035h3.525c0-.195.015-.375.015-.525v-3.45h-2.73v-1.05zm3.84 1.05v3.45c0 .18-.015.36-.015.525h4.26v-3.975H30.52zm11.94-2.01l1.065.09a128.68 128.68 0 0 1-.405 2.835h2.22v.63c-.12 2.43-.54 4.515-1.26 6.285.705.735 1.29 1.395 1.74 1.995l-.72.84a23.161 23.161 0 0 0-1.5-1.785c-.6 1.14-1.335 2.13-2.235 2.97l-.675-.855a9.862 9.862 0 0 0 2.175-2.91 79.046 79.046 0 0 0-1.935-1.905 46.84 46.84 0 0 0 .945-4.23h-1.2v-1.035h1.38c.15-.945.285-1.92.405-2.925zm.855 9.06c.57-1.5.9-3.195 1.005-5.1h-1.365c-.285 1.575-.57 2.88-.87 3.915.435.405.84.795 1.23 1.185zm9.945-1.62v6.39h-1.035v-.9h-4.59v.9H46.6v-6.39h6.66zm-5.625 4.47h4.59v-3.48h-4.59v3.48zm-1.62-5.82l-.165-.975c.87-.45 1.95-2.13 3.24-5.07l1.02.345c-.9 1.95-1.785 3.495-2.685 4.65a51.085 51.085 0 0 0 4.8-.525c-.42-.825-.84-1.59-1.275-2.28l.93-.45a37.871 37.871 0 0 1 2.325 4.335l-1.005.48c-.18-.405-.345-.795-.525-1.17-1.995.285-4.215.51-6.66.66z" fill="#2A3052"/><path d="M30.045 12.315c-.06.21-.105.405-.165.615.33 1.485.735 2.79 1.23 3.915.45-1.32.705-2.835.765-4.53h-1.83zm.345 6.135c-.48-.99-.9-2.1-1.26-3.33-.225.495-.465.96-.705 1.38l-.975-1.215c.825-1.65 1.38-3.855 1.665-6.615l1.53.27c-.09.66-.18 1.275-.285 1.86h3.75v1.515h-.825c-.09 2.415-.525 4.47-1.32 6.18.72 1.2 1.575 2.145 2.565 2.82l-.87 1.275c-.93-.69-1.755-1.59-2.46-2.7a10.518 10.518 0 0 1-2.595 2.685l-.81-1.32a8.033 8.033 0 0 0 2.595-2.805zm-7.095-2.82l1.47.18c-.09.225-.165.45-.24.66h3.015v1.26a5.353 5.353 0 0 1-1.365 2.31c.585.255 1.155.525 1.71.825l-.84 1.23c-.57-.345-1.26-.705-2.07-1.08-.99.63-2.22 1.125-3.705 1.515l-.72-1.305a14.32 14.32 0 0 0 2.805-.915c-.6-.255-1.245-.51-1.905-.765.36-.6.675-1.185.945-1.74H20.91V16.47h2.085c.105-.3.21-.57.3-.84zm1.47 3.825c.615-.48 1.08-1.035 1.395-1.65h-2.22c-.195.39-.405.765-.615 1.125.48.15.96.33 1.44.525zM22.38 8.895c.315.555.6 1.155.84 1.8l-1.11.495c-.3-.72-.615-1.35-.945-1.905l1.215-.39zm4.215-.015l1.095.525c-.3.63-.675 1.245-1.14 1.845l-1.095-.555c.48-.615.87-1.215 1.14-1.815zm-5.655 2.535h2.79V8.7h1.44v2.715h2.55v1.365h-2.55v.03c.78.315 1.575.675 2.385 1.08l-.81 1.23a29.237 29.237 0 0 0-1.575-1.17v1.575h-1.44V13.17c-.51 1.02-1.29 1.905-2.37 2.685l-.78-1.26c.975-.555 1.695-1.155 2.145-1.815H20.94v-1.365zm28.035-1.32v3.585H47.4v-2.1h-9.81v2.1h-1.575v-3.585h5.655c-.21-.45-.42-.885-.66-1.275l1.815-.3c.21.465.42.99.6 1.575h5.55zm-10.59 2.715h8.205v1.44c-.93.66-1.98 1.305-3.12 1.935v.645h5.73v1.5h-5.73V21c0 1.005-.525 1.515-1.56 1.515h-1.845l-.375-1.425c.51.03 1.08.045 1.695.045.33 0 .51-.225.51-.66V18.33h-6.09v-1.5h6.09v-1.275c.99-.51 1.785-.945 2.37-1.305h-5.88v-1.44zm14.58-3.795c.87.87 1.53 1.65 2.01 2.325l-1.23.84c-.495-.69-1.155-1.47-1.965-2.31l1.185-.855zm5.43 6.3c1.02 1.125 1.8 2.1 2.355 2.94l-1.38.96c-.555-.93-1.305-1.965-2.235-3.105l1.26-.795zM55.92 8.67h1.545v2.265c-.015.45-.03.885-.06 1.305h6.105c0 4.41-.195 7.23-.585 8.43-.405 1.2-1.125 1.815-2.145 1.815-.78 0-1.44-.03-1.98-.09l-.42-1.515c.84.09 1.62.15 2.325.15.615-.06.975-.84 1.065-2.34.09-1.5.135-3.15.135-4.92h-4.65c-.255 1.875-.69 3.45-1.32 4.71-.885 1.74-2.34 3.09-4.365 4.035l-.885-1.395c2.01-1.02 3.36-2.295 4.065-3.825.42-1.005.735-2.175.93-3.525h-4.485v-1.53h4.65c.03-.435.06-.87.075-1.305V8.67zm14.625.48h7.785v6.135h-3.225v.825h3.87v4.77c0 1.08-.525 1.62-1.545 1.62h-1.335l-.375-1.41 1.245.06c.375 0 .57-.21.57-.6v-3.12H74.91v1.485c.3-.045.585-.09.84-.135-.09-.27-.165-.525-.24-.765l1.05-.345c.285.795.54 1.71.765 2.73l-1.125.3c-.045-.255-.09-.495-.15-.735-.99.27-2.34.48-4.065.63l-.435-1.44c.765-.03 1.455-.06 2.07-.105v-1.62h-2.31v5.13h-1.47v-6.45h3.795v-.825h-3.09V9.15zm6.285 4.86v-1.14h-1.725v1.14h1.725zm-3.195 0v-1.14h-1.62v1.14h1.62zm-1.62-2.43h1.62v-1.11h-1.62v1.11zm3.09-1.11v1.11h1.725v-1.11h-1.725zm-7.86 4.245a25.59 25.59 0 0 1-1.305 1.515l-.525-1.68c1.47-1.695 2.565-3.69 3.27-5.985l1.47.69c-.36 1.11-.81 2.16-1.38 3.18V22.59h-1.53v-7.875zm22.8-2.4c-.06.21-.105.405-.165.615.33 1.485.735 2.79 1.23 3.915.45-1.32.705-2.835.765-4.53h-1.83zm.345 6.135c-.48-.99-.9-2.1-1.26-3.33-.225.495-.465.96-.705 1.38l-.975-1.215c.825-1.65 1.38-3.855 1.665-6.615l1.53.27c-.09.66-.18 1.275-.285 1.86h3.75v1.515h-.825c-.09 2.415-.525 4.47-1.32 6.18.72 1.2 1.575 2.145 2.565 2.82l-.87 1.275c-.93-.69-1.755-1.59-2.46-2.7a10.518 10.518 0 0 1-2.595 2.685l-.81-1.32a8.033 8.033 0 0 0 2.595-2.805zm-7.095-2.82l1.47.18c-.09.225-.165.45-.24.66h3.015v1.26a5.353 5.353 0 0 1-1.365 2.31c.585.255 1.155.525 1.71.825l-.84 1.23c-.57-.345-1.26-.705-2.07-1.08-.99.63-2.22 1.125-3.705 1.515l-.72-1.305a14.32 14.32 0 0 0 2.805-.915c-.6-.255-1.245-.51-1.905-.765.36-.6.675-1.185.945-1.74H80.91V16.47h2.085c.105-.3.21-.57.3-.84zm1.47 3.825c.615-.48 1.08-1.035 1.395-1.65h-2.22c-.195.39-.405.765-.615 1.125.48.15.96.33 1.44.525zM82.38 8.895c.315.555.6 1.155.84 1.8l-1.11.495c-.3-.72-.615-1.35-.945-1.905l1.215-.39zm4.215-.015l1.095.525c-.3.63-.675 1.245-1.14 1.845l-1.095-.555c.48-.615.87-1.215 1.14-1.815zm-5.655 2.535h2.79V8.7h1.44v2.715h2.55v1.365h-2.55v.03c.78.315 1.575.675 2.385 1.08l-.81 1.23a29.237 29.237 0 0 0-1.575-1.17v1.575h-1.44V13.17c-.51 1.02-1.29 1.905-2.37 2.685l-.78-1.26c.975-.555 1.695-1.155 2.145-1.815H80.94v-1.365z" fill="#000"/></g></svg>