<svg width="299" height="197" xmlns="http://www.w3.org/2000/svg"><g fill="none" fill-rule="evenodd"><path fill="#F1F2F2" d="M0 0h299v197H0z"/><path d="M1.993 1.98v193.04h295.014V1.98H1.993zM299 0v197H0V0h299z" fill="#C2C2C2" fill-rule="nonzero"/><path d="M41.615 54.857v18.905H76.77V54.857H41.615zm0-.976H76.77V34h.973v19.881h35.155V34h.974v19.881h35.155V34H150v19.881h35.155V34h.973v19.881h35.156V34h.973v19.881h35.155V34h.973v19.881H295v.976h-36.615v18.905H295v.976h-36.615v18.905H295v.976h-36.615v18.905H295v.976h-36.615v18.905H295v.976h-36.615v18.905H295v.976h-36.615v18.905H295v.976h-36.615V195h-.973v-20.857h-35.155V195h-.973v-20.857h-35.156V195h-.973v-20.857H150V195h-.973v-20.857h-35.155V195h-.974v-20.857H77.743V195h-.973v-20.857H41.615V195h-.973v-20.857H5v-.976h35.642v-18.905H5v-.976h35.642v-18.905H5v-.976h35.642V114.5H5v-.976h35.642V94.62H5v-.976h35.642V74.738H5v-.976h35.642V54.857H5v-.976h35.642V34h.973v19.881zm215.797.976h-35.155v18.905h35.155V54.857zm-36.128 0h-35.156v18.905h35.156V54.857zm-36.129 0H150v18.905h35.155V54.857zm-36.128 0h-35.155v18.905h35.155V54.857zm-36.129 0H77.743v18.905h35.155V54.857zm-71.283 19.88v18.906H76.77V74.738H41.615zm215.797 0h-35.155v18.906h35.155V74.738zm-36.128 0h-35.156v18.906h35.156V74.738zm-36.129 0H150v18.906h35.155V74.738zm-36.128 0h-35.155v18.906h35.155V74.738zm-36.129 0H77.743v18.906h35.155V74.738zM41.615 94.62v18.905H76.77V94.62H41.615zm215.797 0h-35.155v18.905h35.155V94.62zm-36.128 0h-35.156v18.905h35.156V94.62zm-36.129 0H150v18.905h35.155V94.62zm-36.128 0h-35.155v18.905h35.155V94.62zm-36.129 0H77.743v18.905h35.155V94.62zM41.615 114.5v18.905H76.77V114.5H41.615zm215.797 0h-35.155v18.905h35.155V114.5zm-36.128 0h-35.156v18.905h35.156V114.5zm-36.129 0H150v18.905h35.155V114.5zm-36.128 0h-35.155v18.905h35.155V114.5zm-36.129 0H77.743v18.905h35.155V114.5zm-71.283 19.881v18.905H76.77v-18.905H41.615zm215.797 0h-35.155v18.905h35.155v-18.905zm-36.128 0h-35.156v18.905h35.156v-18.905zm-36.129 0H150v18.905h35.155v-18.905zm-36.128 0h-35.155v18.905h35.155v-18.905zm-36.129 0H77.743v18.905h35.155v-18.905zm-71.283 19.881v18.905H76.77v-18.905H41.615zm215.797 0h-35.155v18.905h35.155v-18.905zm-36.128 0h-35.156v18.905h35.156v-18.905zm-36.129 0H150v18.905h35.155v-18.905zm-36.128 0h-35.155v18.905h35.155v-18.905zm-36.129 0H77.743v18.905h35.155v-18.905z" fill="#DFDEDE" fill-rule="nonzero"/><path fill="#C2C2C2" d="M4.395 31h290v2h-290z"/><g transform="translate(4.395 88.9)"><path fill="#2A3052" fill-rule="nonzero" d="M.303 25.216v-1.163h290v1.163z"/><path d="M103.714 12.737l-34.432 38.22a1.744 1.744 0 0 1-2.323.242L32.446 26.044a1.744 1.744 0 0 1 2.054-2.818l33.243 24.229 34.655-38.47a1.744 1.744 0 0 1 2.574-.019l32.87 35.397L182.478.586a1.744 1.744 0 0 1 2.79.485l43.416 89.615 29.133-25.569a1.744 1.744 0 0 1 2.3 2.622l-30.854 27.08a1.744 1.744 0 0 1-2.72-.55L183.188 4.774l-44.183 43.333a1.744 1.744 0 0 1-2.499-.058l-32.792-35.313z" fill="#2A3052" fill-rule="nonzero"/><path d="M185.317 56.376h-35.9l-5.547-8.436-5.547 8.436h-35.9c-2.697 0-4.854 2.195-4.854 4.93v25.462c0 2.735 2.157 4.93 4.854 4.93h82.856c2.696 0 4.853-2.195 4.853-4.93V61.306c0-2.696-2.157-4.93-4.815-4.93z" fill="#E88024"/><ellipse fill="#FFF" opacity=".6" cx="33.473" cy="24.635" rx="8.32" ry="8.705"/><path d="M33.473 34.503c-5.25 0-9.483-4.43-9.483-9.868 0-5.438 4.234-9.868 9.483-9.868 5.25 0 9.483 4.43 9.483 9.868 0 5.438-4.234 9.868-9.483 9.868zm0-2.326c3.94 0 7.157-3.365 7.157-7.542s-3.216-7.542-7.157-7.542c-3.94 0-7.157 3.365-7.157 7.542s3.216 7.542 7.157 7.542z" fill="#E88024" fill-rule="nonzero"/><ellipse fill="#FFF" opacity=".6" cx="258.967" cy="65.813" rx="8.32" ry="8.705"/><path d="M258.967 75.681c-5.25 0-9.483-4.43-9.483-9.868 0-5.438 4.234-9.868 9.483-9.868 5.25 0 9.483 4.43 9.483 9.868 0 5.438-4.234 9.868-9.483 9.868zm0-2.326c3.94 0 7.157-3.365 7.157-7.542s-3.216-7.542-7.157-7.542c-3.94 0-7.157 3.365-7.157 7.542s3.216 7.542 7.157 7.542z" fill="#E88024" fill-rule="nonzero"/></g><g opacity=".9" fill="#6D6E71" fill-rule="nonzero"><path d="M266.575 141.93h.893v-7.205l1.183 2.11.56-.867c-1.053-1.37-1.634-2.106-1.743-2.211l.01-.783h1.425v-.869h-1.425l-.01-2.457h-.893v2.457h-1.704v.87h1.595c-.097.974-1.338 3.766-1.983 4.444.012.004.157.358.434 1.063.749-1.341 1.147-2.146 1.658-3.632v7.08zm-13.881.052v-11.565h9.054v11.565h-1.028v-.86h-7.015v.86h-1.011zm8.116-10.746h-7.104v2.298h7.104v-2.298zm-.023 3.136h-7.058v2.366h7.058v-2.366zm-.013 3.297h-7.031v2.494h7.03v-2.494h.001zm8.858-7.252h7.408v.808h-2.224v1.003h2.003v3.148h-6.872v-3.148h2.021v-1.003h-2.336v-.808zm4.39.87h-1.302v.959h1.302v-.96.001zm.766 1.722v1.636h1.164v-1.636h-1.164zm-.78-.01h-1.236v1.643h1.236v-1.643zm-1.98-.022h-1.187v1.68h1.186v-1.68h.001zm4.418 3.033v.78h-6.21v-.78h6.21zm.594 1.804v.746h-3.328v3.364h-.825v-3.364h-3.244v-.746h7.397z"/><path d="M274.724 139.7c.28-.282.471-.462.571-.54.35.265 1.555 1.442 1.995 2.106-.15.163-.368.377-.651.642-.217-.428-.856-1.164-1.915-2.208zm-3.363-.814c.293.25.497.423.613.52-.728.964-1.46 1.716-2.195 2.256-.2-.22-.39-.451-.568-.69 1.16-.94 1.876-1.634 2.15-2.086z"/></g><g fill="#FFF" fill-rule="nonzero"><path d="M144.184 173.905c.35.299.648.567.893.804-.713 1.049-1.808 1.968-2.4 2.378a156.3 156.3 0 0 1-.763-.987c.705-.517 1.461-1.248 2.27-2.195zm4.156-8.334v7.993h-5.726v-7.993h5.726zm-1.392 5.563h-2.831v1.302h2.831v-1.302zm0-2.25h-2.831v1.302h2.831v-1.302zm0-2.218h-2.831v1.301h2.831v-1.301zm10.095-9.669v-1.328h-10.082c-.612-1.343-.845-1.87-.699-1.577l-1.793.293.701 1.284h-10.22v1.328h2.04v2.541h18.473v-1.171h-16.87v-1.37h18.451-.001zm-19.297 3.688h16.352v3.55h-16.352v-3.55zm1.656 1.019v1.503h13.07v-1.503h-13.07zm-3.092 3.638c1.76-.016 3.526-.016 5.3 0v9.705c0 .514.443 2.207-2.839 1.852l-.348-1.346c1.239.16 1.859-.008 1.859-.506v-2.165h-2.755c-.37 2.055-.88 3.394-1.534 4.017-.202-.169-.55-.48-1.044-.935 1.828-2.472 1.344-9.829 1.362-10.622h-.001zm1.343 4.472v1.873h2.567v-1.873h-2.567zm2.601-3.184h-2.557v2.019h2.557v-2.02.001z"/><path d="M153.615 171.962l-.781.502c-.764-1.244-1.33-2.084-1.697-2.518-.018 1.479-.072 2.548-.164 3.207-.296 2.14-1.088 3.045-1.618 3.795l-1.123-.997-.374.481c-.985-1.041-1.63-1.686-1.936-1.934.325-.306.608-.576.85-.81a13.03 13.03 0 0 1 1.842 1.75c.246-.445.741-1.114.956-2.382.288-1.694.092-5.99.217-7.784 2.223-.007 3.948-.007 5.173 0v9.599c-.059.657 1.248.542 1.248 0l.264-2.737a19.4 19.4 0 0 0 1.122.406c-.248 1.671-.173 3.7-1.122 3.892-.673.032-2.857.494-2.857-.892v-3.578zm0-.431v-4.877h-2.487c.014 1.006.019 1.908.014 2.706l.776-.456c.85 1.187 1.415 2.046 1.696 2.578v.049h.001z"/></g><path d="M161.036 159.071h2.295l-.37 12.882h-1.53l-.395-12.882zm1.135 14.683c.444 0 .79.123 1.086.42.271.27.42.616.42 1.036 0 .444-.149.79-.42 1.061-.297.271-.667.42-1.086.42-.42 0-.765-.149-1.037-.42-.29-.276-.45-.66-.444-1.061 0-.42.148-.765.444-1.037.272-.296.617-.419 1.037-.419z" fill="#FFF" fill-rule="nonzero"/><path d="M37.213 136.247l1.306.147-.54 3.36c.174.013 1.07.013 2.686 0 .045 2.467-.465 6.15-1.502 8.266 1.115 1.198 1.817 2.012 2.105 2.442l-.87.97-1.788-2.135c-1.043 1.71-1.95 2.901-2.72 3.574a19.066 19.066 0 0 0-.795-1.01c1.01-1.078 2.006-2.18 2.6-3.475l-2.304-2.295 1.158-5.113h-1.454v-1.223h1.63l.488-3.508zm2.267 4.739h-1.648a73.095 73.095 0 0 1-1.061 4.683c.612.596 1.104 1.08 1.475 1.45.63-1.346 1.234-5.175 1.234-6.133zm5.728-4.716l1.203.413c-1.382 2.866-2.454 4.726-3.218 5.58 3.483-.303 5.4-.515 5.752-.634-.853-1.619-1.348-2.525-1.486-2.72l1.123-.544c1.212 2.085 2.135 3.81 2.77 5.175l-1.22.615-.635-1.402c-4.404.507-7.068.77-7.994.787-.07-.454-.137-.853-.203-1.196 1.043-.574 2.346-2.598 3.908-6.073v-.001zm3.905 16.601v-1.108h-5.53v1.108h-1.27v-7.684h8.027v7.684h-1.227zm-.01-6.5h-5.489v4.138h5.49v-4.139l-.001.001zm-29.783-7.934v-.926h13.858v.926h-2.637v4.91h3.778v1.425H30.54v7.734h-1.47v-7.734l-5.244-.012c-.392 6.603-3.922 7.746-4.362 8.036a10.906 10.906 0 0 1-.764-1.116c1.72-1.319 3.677-2.791 3.677-6.92-1.47.008-3.111.04-4.075.012v-1.426h4.075v-4.909H19.32zm9.713.259h-5.061v4.618h5.061v-4.618z" fill="#2A3052" fill-rule="nonzero"/><path d="M22.278 17.292v5.285c.375-.17.75-.341 1.125-.529l.29 1.535c-.972.375-2.097.784-3.393 1.21l-.46-1.517c.477-.154.716-.46.716-.904V11.495c3.563-.528 6.393-1.125 8.49-1.807l.972 1.415a40.77 40.77 0 0 1-2.916.818c.017 1.415.069 2.643.137 3.683h3.375v1.688h-3.239c.051.613.12 1.125.222 1.568.273 1.483.562 2.54.886 3.171.307.648.546.99.682.99.12 0 .256-.853.392-2.541l1.467.801c-.341 2.54-.87 3.82-1.569 3.82-.58 0-1.176-.461-1.807-1.348-.63-.886-1.16-2.301-1.603-4.21a22.063 22.063 0 0 1-.375-2.251h-3.392zm3.102-4.996a76.04 76.04 0 0 1-3.102.546v2.762h3.239a63.543 63.543 0 0 1-.137-3.308zm-.392 8.985c.921 1.16 1.62 2.2 2.114 3.086l-1.33.92c-.51-.937-1.176-1.977-1.994-3.136l1.21-.87zM18.817 9.432l1.62.767a19.661 19.661 0 0 1-1.57 3.58v11.543H17.13v-8.95c-.46.579-.955 1.141-1.466 1.687l-.58-1.875c1.67-1.91 2.915-4.16 3.734-6.752h-.001zm14.764.614h12.974v1.739h-5.387v3.955h6.563v1.773h-6.563v5.729c0 1.227-.648 1.858-1.944 1.858h-2.728l-.375-1.722c.87.068 1.705.102 2.49.102.51 0 .767-.238.767-.699v-5.268h-6.854V15.74h6.854v-3.955H33.58v-1.739h.001z" fill="#000" fill-rule="nonzero"/><path d="M258.916 186.188v1.224c-1.836.666-3.906 1.206-6.246 1.638l-.162-1.26c2.448-.396 4.572-.936 6.408-1.602zm-3.33-12.96l1.206.468c-.918 2.34-1.854 4.212-2.79 5.616a67.48 67.48 0 0 0 2.556-.378c.342-.648.702-1.314 1.062-1.998l1.134.414c-1.638 3.042-3.006 5.202-4.104 6.498 1.368-.27 2.718-.63 4.05-1.08v1.152c-1.944.666-3.816 1.116-5.616 1.35l-.342-1.17c.234-.108.432-.234.594-.378.684-.702 1.53-1.89 2.538-3.582-1.026.162-2.052.306-3.096.45l-.324-1.188c.198-.09.378-.252.54-.486 1.008-1.656 1.872-3.546 2.592-5.688zm3.114 2.286h4.302v-2.178h1.314v2.178h4.284v1.26h-4.284v2.664h3.762v1.26h-8.784v-1.26h3.708v-2.664H258.7v-1.26zm8.856 6.984v7.236h-1.26v-.864h-5.148v.864h-1.278v-7.236h7.686zm-6.408 5.148h5.148v-3.924h-5.148v3.924zm9.648-12.51h7.038v-1.8h1.332v1.8h7.002v1.242h-7.002v1.764h5.67v5.094h-4.572c1.296 1.836 3.492 3.456 6.552 4.896l-.882 1.116c-3.186-1.782-5.418-3.78-6.714-6.012h-.054v6.534h-1.332v-6.534h-.054c-1.368 2.448-3.636 4.464-6.822 6.048l-.756-1.188c2.988-1.26 5.166-2.88 6.516-4.86H272.2v-5.094h5.634v-1.764h-7.038v-1.242zm12.744 6.912v-2.682h-4.374v2.682h4.374zm-5.706 0v-2.682h-4.338v2.682h4.338z" fill="#2A3052" fill-rule="nonzero"/></g></svg>