<svg width="299" height="197" xmlns="http://www.w3.org/2000/svg"><g fill="none" fill-rule="evenodd"><path fill="#F1F2F2" d="M0 0h299v197H0z"/><path d="M1.987 1.98v193.04h295.026V1.98H1.987zM299 0v197H0V0h299z" fill="#C2C2C2" fill-rule="nonzero"/><path d="M4.887 55.446v-1.207h289.656v1.207H4.887zm0 40.534v-1.207h289.656v1.207H4.887zm0 40.534v-1.207h289.656v1.207H4.887zm0 40.496v-1.207h289.656v1.207H4.887zm34.38-142.416h1.206v159.67h-1.206V34.594zm36.664 0h1.207v159.67h-1.207V34.594zm36.628 0h1.207v159.67h-1.207V34.594zm36.665 0h1.207v159.67h-1.207V34.594zm36.627 0h1.207v159.67h-1.207V34.594zm36.628 0h1.207v159.67h-1.207V34.594zM4.887 116.228v-1.207h289.656v1.207H4.887z" fill="#DFDEDE" fill-rule="nonzero"/><path d="M259.144 34.594h1.207v159.67h-1.207V34.594zM4.887 75.731v-1.206h289.656v1.206H4.887zm0 81.03v-1.206h289.656v1.207H4.887z" fill="#2A3052" fill-rule="nonzero"/><path fill="#C2C2C2" fill-rule="nonzero" d="M2.794 34.606V32.19h293.842v2.415z"/><path d="M40.778 117.19a1.81 1.81 0 0 1-1.816-3.132l36.665-21.257a1.81 1.81 0 0 1 2.068.176l32.442 27.072 38.676-26.172a1.81 1.81 0 0 1 2.202.133l35.113 30.513 35.473-50.437a1.81 1.81 0 1 1 2.962 2.083l-36.627 52.078a1.81 1.81 0 0 1-2.669.325L149.69 97.655l-38.652 26.156a1.81 1.81 0 0 1-2.175-.11L76.347 96.57l-35.569 20.622z" fill="#2A3052" fill-rule="nonzero"/><path d="M187.987 146.445h-34.945l-5.382-8.181-5.382 8.181h-34.946a4.733 4.733 0 0 0-4.71 4.782v24.694a4.753 4.753 0 0 0 4.71 4.782h80.692a4.733 4.733 0 0 0 4.71-4.782v-24.694a4.758 4.758 0 0 0-4.747-4.782z" fill="#E88024"/><ellipse cx="9.045" cy="8.618" rx="8.11" ry="8.443" opacity=".6" transform="translate(214.037 66.51)" fill="#FFF"/><path d="M223.082 84.778c-5.157 0-9.317-4.331-9.317-9.65s4.16-9.65 9.317-9.65 9.318 4.331 9.318 9.65-4.16 9.65-9.318 9.65zm0-2.414c3.802 0 6.904-3.23 6.904-7.236 0-4.007-3.102-7.236-6.904-7.236-3.801 0-6.903 3.229-6.903 7.236s3.102 7.236 6.903 7.236z" fill="#E88024" fill-rule="nonzero"/><ellipse cx="8.97" cy="9.021" rx="8.11" ry="8.443" opacity=".6" transform="translate(30.9 106.604)" fill="#FFF"/><path d="M39.87 125.275c-5.157 0-9.317-4.332-9.317-9.65 0-5.32 4.16-9.65 9.317-9.65s9.317 4.33 9.317 9.65c0 5.318-4.16 9.65-9.317 9.65zm0-2.414c3.802 0 6.903-3.23 6.903-7.236 0-4.007-3.101-7.236-6.903-7.236-3.802 0-6.903 3.229-6.903 7.236 0 4.006 3.101 7.236 6.903 7.236z" fill="#E88024" fill-rule="nonzero"/><path d="M17.586 11.149l1.374.243a26.396 26.396 0 0 1-.35 1.683h2.937v1.253c-.31 2.29-.957 4.217-1.94 5.766.242.35.512.633.781.822.97.714 2.533 1.09 4.661 1.118.795 0 1.617-.04 2.465-.108l-.283 1.468h-1.507c-2.843 0-4.89-.485-6.13-1.428a4.377 4.377 0 0 1-.781-.794 10.395 10.395 0 0 1-2.883 2.357l-.754-1.347a8.915 8.915 0 0 0 2.788-2.357 16.32 16.32 0 0 1-.997-2.573c-.31.511-.646.97-1.01 1.4l-.956-1.212c1.28-1.563 2.141-3.65 2.586-6.29l-.001-.001zm.189 4.486c.323 1.172.66 2.155 1.01 2.95.647-1.185 1.118-2.586 1.387-4.176h-1.94c-.148.431-.296.835-.457 1.226zm5.16-4.432h1.414v3.422a38.065 38.065 0 0 1 3.273 2.586l-.835 1.266a37.435 37.435 0 0 0-2.438-2.37v5.065h-1.415v-9.969h.001zm6.64.364h10.252v1.374H35.57v3.125h5.187v1.401H35.57v4.526c0 .97-.512 1.469-1.536 1.469h-2.155l-.296-1.36c.687.053 1.347.08 1.966.08.405 0 .607-.189.607-.552v-4.163H28.74v-1.4h5.416v-3.126h-4.58v-1.374h-.001zm16.584 2.209a58.816 58.816 0 0 1 3.26 2.654 15.382 15.382 0 0 0 1.764-3.072l1.28.674c-.566 1.28-1.212 2.411-1.953 3.381.904.833 1.776 1.7 2.613 2.6l-1.091 1.105a27.047 27.047 0 0 0-2.452-2.6 11.774 11.774 0 0 1-3.88 2.694l-.821-1.266a10.693 10.693 0 0 0 3.61-2.438c-1.08-.96-2.2-1.878-3.354-2.749l1.024-.983zm-3.3-2.128h10.857v1.347h-9.497v8.742h9.914v1.348H42.858V11.647l.001.001zm16.043 3.044h5.47v6.6h-5.47v-6.6zm4.163 5.362v-1.455h-2.843v1.455h2.843zm-2.843-2.668h2.843v-1.455h-2.843v1.455zm5.456 6.116h-1.077l-.378-1.32 1.172.04c.337 0 .512-.242.512-.714v-8.513h-5.01v-1.294h6.384v10.198c0 1.064-.538 1.603-1.603 1.603zm-9.604-10.117h1.374v10.238h-1.374V13.385zm2.385-2.384a13.65 13.65 0 0 1 1.63 2.398l-1.267.66a14.393 14.393 0 0 0-1.643-2.479l1.28-.58v.001zm16.421.08a24 24 0 0 1 1.118 2.277h4.136v1.065c-1.522 2.91-3.718 5.132-6.574 6.668.539.485 1.185.754 1.94.808.633.027 1.536.04 2.708.04.714 0 1.697-.04 2.963-.094l-.35 1.388h-2.398c-1.199 0-2.061-.014-2.573-.027-1.482-.027-2.586-.431-3.34-1.24-.297-.31-.526-.458-.715-.458-.256 0-.74.688-1.468 2.062l-1.118-.782c.916-1.832 1.778-2.734 2.613-2.734.175 0 .337.027.499.107a.27.27 0 0 1 .107.054c2.587-1.374 4.58-3.206 5.982-5.483h-8.352v-1.374h4.378a14 14 0 0 0-1.186-2.007l1.63-.27zm15.37.082h1.429v3.974c1.14.818 2.242 1.69 3.3 2.613l-.875 1.32a40.885 40.885 0 0 0-2.425-2.357v6.897h-1.428V11.163h-.001zm-5.05 5.28c.66.337 1.279.741 1.845 1.2.512-1.025.862-2.156 1.064-3.382h-2.29c-.647 1.495-1.495 2.735-2.573 3.718l-.97-1.212c1.495-1.388 2.506-3.26 3.031-5.618l1.414.243c-.117.507-.252 1.01-.404 1.508h3.166v1.253c-.458 4.068-2.425 7.14-5.9 9.215l-.97-1.2c1.59-.902 2.856-2.034 3.785-3.408-.599-.48-1.25-.89-1.94-1.226l.741-1.09.001-.001z" fill="#020202" fill-rule="nonzero"/><path d="M20.885 64.177h9.555v.629h-4.864v3.423c.217-.032.433-.065.628-.097v.617c-.195.033-.411.065-.628.108v1.051h-.758v-.953c-1.03.12-2.297.227-3.803.314l-.097-.672 1.007-.043v-3.747h-1.04v-.63zm1.744 4.345a45.8 45.8 0 0 0 2.189-.195v-.737h-2.189v.932zm0-1.506h2.189v-.813h-2.189v.813zm0-1.398h2.189v-.812h-2.189v.812zm-.368-5.275h6.847v3.12h-6.847v-3.12zm6.099 2.556v-.725h-5.351v.725h5.351zm-5.351-1.278h5.351v-.693h-5.351v.693zm3.477 4.55h-.347v-.64h3.694v.607a5.155 5.155 0 0 1-1.094 2.156 7.95 7.95 0 0 0 1.712.953l-.401.65c-.715-.335-1.322-.704-1.81-1.105-.497.434-1.104.802-1.808 1.105l-.401-.606c.65-.282 1.213-.607 1.68-.997a4.856 4.856 0 0 1-1.225-2.123zm1.7 1.657a4.68 4.68 0 0 0 .943-1.657h-1.971a3.94 3.94 0 0 0 1.029 1.657h-.001zm8.44-7.94c.119.292.238.617.346.975h4.29v.715h-9.565v-.715h4.441a6.473 6.473 0 0 0-.368-.824l.856-.151zm2.903 9.966h-.91l-.184-.704.866.032c.444 0 .672-.173.672-.52v-2.945h-6.976v4.17h-.748v-4.853h8.471v3.792c0 .682-.4 1.03-1.191 1.03v-.002zm-6.067-7.572h6.056v2.101h-6.056v-2.101zm5.298 1.495v-.889h-4.54v.889h4.54zm-4.399 2.632h4.258v2.167h-4.258v-2.167zm3.565 1.582v-.997h-2.86v.997h2.86zm13.032-7.507v9.392h-.78v-.704h-5.699v.725h-.79v-9.413h7.269zm-6.479 7.93h5.699v-2.037h-5.699v2.037zm0-2.752h5.699v-1.907h-5.699v1.907zm0-2.622h5.699v-1.798h-5.699v1.798zm10.324-3.055h.77v2.048h1.256v.747h-1.257v.834a24.645 24.645 0 0 1 1.593 1.81l-.444.66a22.667 22.667 0 0 0-1.149-1.636v5.428h-.769v-5.395c-.33.982-.776 1.92-1.332 2.795l-.336-.845c.78-1.062 1.332-2.286 1.668-3.65h-1.321v-.748h1.321v-2.048zm3.196 4.897l.715.162c-.347 1.517-.856 2.817-1.506 3.922l-.672-.434a11.941 11.941 0 0 0 1.463-3.65zm3.921-.054c.472 1.281.862 2.59 1.17 3.921l-.704.314a37.055 37.055 0 0 0-1.17-4.008l.704-.227zm-2.426 4.94h-1.105l-.152-.726c.347.021.672.043.986.043.293 0 .444-.163.444-.477v-4.625h-2.643v-.748h6.077v.748h-2.654v4.82c0 .64-.325.964-.953.964v.001zm-1.896-9.165h4.94v.736h-4.94v-.736zm7.778 3.109a13.65 13.65 0 0 1-1.148 1.451l-.26-.823a12.036 12.036 0 0 0 2.318-4.387l.737.336c-.228.725-.51 1.419-.845 2.08v7.485h-.802v-6.142zm5.86.032h.759v6.045h-.758v-6.045h-.001zm-2.783.033h.747v1.636c-.022 2.047-.552 3.542-1.592 4.495l-.585-.509c.931-.823 1.408-2.156 1.43-3.986v-1.636zm1.375-3.77h.705c.671 1.452 1.841 2.719 3.488 3.813l-.444.66c-1.517-1.007-2.654-2.252-3.402-3.726-.867 1.658-1.95 2.936-3.26 3.846l-.434-.66a9.996 9.996 0 0 0 3.347-3.933zM18 166.913h10.073v.662h-5.128v3.61c.228-.035.457-.07.662-.104v.651c-.205.035-.434.069-.662.115v1.107h-.8v-1.005c-1.085.126-2.42.24-4.008.332l-.103-.709 1.062-.045v-3.952H18v-.662zm1.838 4.58c.77-.05 1.54-.119 2.307-.206v-.777h-2.307v.983zm0-1.588h2.307v-.857h-2.307v.857zm0-1.473h2.307v-.857h-2.307v.857zm-.388-5.563h7.218v3.29H19.45v-3.29zm6.43 2.696v-.765h-5.642v.765h5.642zm-5.642-1.348h5.642v-.73h-5.642v.73zm3.666 4.797h-.365v-.674h3.894v.64a5.435 5.435 0 0 1-1.153 2.273c.502.377 1.096.708 1.804 1.005l-.422.685c-.754-.354-1.393-.742-1.907-1.165-.526.457-1.165.845-1.908 1.165l-.422-.64c.685-.297 1.279-.64 1.77-1.05a5.12 5.12 0 0 1-1.29-2.239h-.001zm1.793 1.748a4.951 4.951 0 0 0 .994-1.748h-2.079c.206.651.56 1.234 1.085 1.748zm7.984-3.313v4.1a13.49 13.49 0 0 0 1.028-.456l.137.72a34.53 34.53 0 0 1-2.102.753l-.217-.708c.24-.08.366-.228.366-.445v-7.527c2.41-.365 4.283-.777 5.62-1.234l.456.663c-.571.194-1.234.377-2.01.56.011 1.073.045 1.998.091 2.786h2.444v.788h-2.375c.045.492.114.926.182 1.291.183 1.017.412 1.782.674 2.296.252.48.446.72.594.72.149-.012.286-.64.4-1.897l.685.377c-.217 1.645-.537 2.479-.948 2.479-.354 0-.73-.309-1.13-.914-.412-.628-.743-1.553-.994-2.775-.11-.52-.191-1.047-.24-1.577h-2.661zm2.49-3.403c-.754.16-1.588.308-2.49.457v2.158h2.593a30.122 30.122 0 0 1-.103-2.615zm-.607 6.339c.64.776 1.143 1.473 1.497 2.078l-.629.423a18.23 18.23 0 0 0-1.439-2.09l.571-.411zm-3.78-7.938l.742.343c-.285.868-.65 1.69-1.085 2.467v7.697h-.8v-6.453a15.447 15.447 0 0 1-1.255 1.497l-.263-.868a12.49 12.49 0 0 0 2.661-4.683zm17.92.571v9.902h-.822v-.742h-6.008v.765h-.834v-9.925h7.664zm-6.83 8.36h6.008v-2.147h-6.008v2.147zm0-2.9h6.008v-2.01h-6.008v2.01zm0-2.765h6.008v-1.896h-6.008v1.896zm10.884-3.22h.811v2.158h1.325v.788h-1.325v.88c.56.57 1.12 1.21 1.68 1.907l-.469.697a24.18 24.18 0 0 0-1.21-1.725v5.722h-.812v-5.688a13.49 13.49 0 0 1-1.404 2.947l-.354-.89c.822-1.12 1.404-2.41 1.758-3.85h-1.393v-.788h1.393v-2.158zm3.37 5.162l.754.171c-.366 1.6-.903 2.97-1.588 4.135l-.708-.457a12.59 12.59 0 0 0 1.542-3.849zm4.134-.057c.48 1.29.891 2.672 1.234 4.134l-.743.332a39.067 39.067 0 0 0-1.233-4.226l.742-.24zm-2.558 5.208h-1.165l-.16-.765c.365.023.708.045 1.04.045.308 0 .468-.17.468-.502v-4.877H56.1v-.788h6.407v.788h-2.798v5.082c0 .674-.343 1.017-1.005 1.017zm-1.999-9.662h5.208v.776h-5.208v-.776zm8.2 3.277a14.25 14.25 0 0 1-1.21 1.53l-.274-.867a12.69 12.69 0 0 0 2.444-4.626l.777.354c-.24.766-.537 1.497-.891 2.193v7.892h-.845v-6.476h-.001zm6.18.035h.799v6.373h-.8v-6.373h.001zm-2.936.034h.788v1.725c-.023 2.158-.582 3.734-1.679 4.74l-.616-.537c.982-.868 1.484-2.273 1.507-4.203v-1.725zm1.45-3.975h.743c.708 1.53 1.942 2.867 3.678 4.02l-.468.697c-1.6-1.062-2.799-2.375-3.587-3.929-.913 1.748-2.056 3.096-3.438 4.055l-.456-.697a10.539 10.539 0 0 0 3.529-4.146h-.001z" fill="#6D6E71" fill-rule="nonzero"/><path d="M40.775 130.045l1.057.119-.436 2.718c.14.01.864.01 2.171 0 .037 1.995-.375 4.973-1.214 6.685.902.969 1.469 1.627 1.702 1.975l-.704.784-1.445-1.726c-.844 1.383-1.577 2.346-2.2 2.89a15.42 15.42 0 0 0-.643-.816c.816-.872 1.622-1.763 2.102-2.81l-1.863-1.857.937-4.136h-1.176v-.989h1.318l.394-2.837zm1.834 3.833h-1.332a59.118 59.118 0 0 1-.859 3.787c.496.483.893.874 1.193 1.173.51-1.089.998-4.185.998-4.96zm4.633-3.814l.973.333c-1.117 2.319-1.985 3.823-2.603 4.513 2.817-.245 4.368-.416 4.652-.512-.69-1.31-1.09-2.042-1.202-2.2l.909-.44c.98 1.687 1.727 3.082 2.24 4.185l-.987.498-.514-1.134c-3.56.41-5.716.622-6.465.636-.056-.367-.11-.689-.164-.967.844-.464 1.897-2.101 3.161-4.912zM50.4 143.49v-.896h-4.472v.896H44.9v-6.215h6.492v6.215H50.4zm-.007-5.257h-4.44v3.347h4.44v-3.347zm-24.089-6.416v-.75h11.208v.75h-2.133v3.97h3.056v1.153h-3.056v6.255H34.19v-6.255l-4.24-.01c-.318 5.34-3.172 6.265-3.529 6.5a8.82 8.82 0 0 1-.618-.903c1.392-1.067 2.975-2.257 2.975-5.597-1.19.007-2.517.032-3.296.01v-1.153h3.296v-3.97h-2.474zm7.856.209h-4.094v3.735h4.094v-3.735zm237.216-23.641v1.02c-1.53.555-3.255 1.005-5.205 1.365l-.135-1.05c2.04-.33 3.81-.78 5.34-1.335zm-2.775-10.8l1.005.39c-.765 1.95-1.545 3.51-2.325 4.68.705-.09 1.41-.195 2.13-.315.285-.54.585-1.095.885-1.665l.945.345c-1.365 2.535-2.505 4.335-3.42 5.415a26.668 26.668 0 0 0 3.375-.9v.96c-1.62.555-3.18.93-4.68 1.125l-.285-.975c.195-.09.36-.195.495-.315.57-.585 1.275-1.575 2.115-2.985-.855.135-1.71.255-2.58.375l-.27-.99c.165-.075.315-.21.45-.405.84-1.38 1.56-2.955 2.16-4.74zm2.595 1.905h3.585v-1.815h1.095v1.815h3.57v1.05h-3.57v2.22h3.135v1.05h-7.32v-1.05h3.09v-2.22h-3.585v-1.05zm7.38 5.82v6.03h-1.05v-.72h-4.29v.72h-1.065v-6.03h6.405zm-5.34 4.29h4.29v-3.27h-4.29v3.27zm8.04-10.425h5.865v-1.5h1.11v1.5h5.835v1.035h-5.835v1.47h4.725v4.245h-3.81c1.08 1.53 2.91 2.88 5.46 4.08l-.735.93c-2.655-1.485-4.515-3.15-5.595-5.01h-.045v5.445h-1.11v-5.445h-.045c-1.14 2.04-3.03 3.72-5.685 5.04l-.63-.99c2.49-1.05 4.305-2.4 5.43-4.05h-3.765v-4.245h4.695v-1.47h-5.865v-1.035zm10.62 5.76V102.7h-3.645v2.235h3.645zm-4.755 0V102.7h-3.615v2.235h3.615z" fill="#2A3052" fill-rule="nonzero"/><path d="M149.375 164.075v7.225h-1.3v-5.875H144.6v5.825h-1.325v-7.175h6.1zm-3.025 8.275c-.1.25-.2.475-.3.675-.55 1-1.425 1.775-2.675 2.325l-.75-1.175c1.15-.525 1.95-1.2 2.425-2 .4-.875.625-2 .675-3.4V166.6h1.2v2.175c-.025.85-.1 1.625-.225 2.3.95.825 1.75 1.65 2.4 2.475l-.95.95c-.475-.7-1.075-1.4-1.8-2.15zm-10.9-18.275h10.3c-.25-.55-.5-1.025-.775-1.475l1.8-.3c.25.525.475 1.125.675 1.775h10.1v1.3h-18.175v1.3h16.475v1.275H137.7v-2.575h-2.25v-1.3zm2.95 5.05h16.125v3.725H138.4v-3.725zm14.375 2.55V160.3H140.15v1.375h12.625zm-14.75 6.8a34.912 34.912 0 0 1-.125 1.775h2.75v-1.775h-2.625zm2.625-1.175v-1.8h-2.625v1.8h2.625zm-2.925 4.125c-.3 1.625-.85 3-1.625 4.15l-1.125-1.025c1.05-1.6 1.575-3.6 1.6-6.05v-4.375h5.5v9.625c0 1.125-.6 1.7-1.775 1.7h-1.025l-.375-1.35c.325.05.65.075.95.075.525 0 .8-.325.8-.925v-1.825h-2.925zm18.9 3.75h-.875c-.9 0-1.325-.5-1.325-1.45v-8.175h-2.375v2.575c0 1.85-.125 3.275-.375 4.275-.275 1-.85 2.05-1.725 3.15l-1.125-.975c.75-.9 1.25-1.725 1.5-2.5.25-.8.375-2.125.375-3.95v-4h5.075v9.175c0 .375.15.575.475.575h.15c.15 0 .275-.125.35-.375.075-.25.15-1.075.225-2.5l1.15.4c-.15 1.7-.3 2.75-.475 3.175-.2.4-.525.6-1.025.6zm-3.575-7.4c.45 1 .875 2.05 1.225 3.2l-.95.425c-.375-1.25-.775-2.35-1.225-3.3l.95-.325zm10.186.208h-2.039l-.158-12.756h2.368l-.171 12.756zm-2.283 3.882c0-.366.112-.674.336-.922.224-.248.555-.372.995-.372.44 0 .773.124 1 .372.229.248.342.556.342.922s-.113.67-.341.91c-.228.24-.562.36-1.001.36-.44 0-.771-.12-.995-.36-.224-.24-.336-.544-.336-.91z" fill="#FFF" fill-rule="nonzero"/></g></svg>