<svg width="299" height="197" xmlns="http://www.w3.org/2000/svg"><g fill="none" fill-rule="evenodd"><path fill="#F2F2F2" d="M0 0h299v197H0z"/><path d="M1.987 1.98v193.04h295.026V1.98H1.987zM299 0v197H0V0h299z" fill="#C2C2C2" fill-rule="nonzero"/><path d="M2.887 56.446v-1.207h289.656v1.207H2.887zm0 40.534v-1.207h289.656v1.207H2.887zm0 40.534v-1.207h289.656v1.207H2.887zm0 40.496v-1.207h289.656v1.207H2.887zm34.38-142.416h1.206v159.67h-1.206V35.594zm36.664 0h1.207v159.67h-1.207V35.594zm36.628 0h1.207v159.67h-1.207V35.594zm36.665 0h1.207v159.67h-1.207V35.594zm36.627 0h1.207v159.67h-1.207V35.594zm36.628 0h1.207v159.67h-1.207V35.594zM2.887 117.228v-1.207h289.656v1.207H2.887z" fill="#DEDEDD" fill-rule="nonzero"/><path fill="#293152" d="M2.887 76.731v-1.206h289.656v1.206z"/><path fill="#DEDEDD" fill-rule="nonzero" d="M2.887 157.762v-1.207h289.656v1.207z"/><path fill="#293152" d="M257.144 35.594h1.207v159.67h-1.207z"/><path fill="#C2C2C2" d="M2.794 35.606V33.19h293v2.415z"/><path d="M39.087 138.25a1.81 1.81 0 1 1-2.434-2.68l36.665-33.287a1.81 1.81 0 0 1 2.332-.086l31.97 24.988 32.488-24.996a1.81 1.81 0 0 1 2.247.031l33.563 27.343 35.438-31.587a1.81 1.81 0 0 1 1.684-.394l45.186 12.403a1.81 1.81 0 0 1-.958 3.491l-44.237-12.142-35.856 31.959a1.81 1.81 0 0 1-2.348.052l-33.647-27.412-32.464 24.978a1.81 1.81 0 0 1-2.22-.009L74.623 105.99l-35.535 32.26z" fill="#293152"/><path d="M185.987 147.445h-34.945l-5.382-8.181-5.382 8.181h-34.946c-2.616 0-4.71 2.13-4.71 4.782v24.694c0 2.653 2.131 4.782 4.71 4.782h80.692c2.617 0 4.71-2.13 4.71-4.782v-24.694c0-2.652-2.13-4.782-4.747-4.782z" fill="#E88124"/><ellipse cx="8.335" cy="8.863" rx="8.11" ry="8.443" opacity=".6" transform="translate(249.412 102.868)" fill="#FFF"/><path d="M257.747 121.38c-5.157 0-9.317-4.33-9.317-9.65 0-5.318 4.16-9.65 9.317-9.65s9.318 4.332 9.318 9.65c0 5.32-4.16 9.65-9.318 9.65zm0-2.413c3.802 0 6.903-3.23 6.903-7.236 0-4.007-3.101-7.236-6.903-7.236-3.801 0-6.903 3.229-6.903 7.236s3.102 7.236 6.903 7.236z" fill="#E88124" fill-rule="nonzero"/><ellipse cx="8.97" cy="8.891" rx="8.11" ry="8.443" opacity=".6" transform="translate(28.9 128.019)" fill="#FFF"/><path d="M37.87 146.56c-5.157 0-9.317-4.33-9.317-9.65 0-5.319 4.16-9.65 9.317-9.65s9.317 4.331 9.317 9.65c0 5.32-4.16 9.65-9.317 9.65zm0-2.414c3.802 0 6.903-3.229 6.903-7.236s-3.101-7.236-6.903-7.236c-3.802 0-6.903 3.23-6.903 7.236 0 4.007 3.101 7.236 6.903 7.236z" fill="#E88124" fill-rule="nonzero"/><path d="M19.45 10.112h1.684v2.012h5.274v1.63h-5.274v2.316h6.116v1.63h-4.782c1.049 1.82 2.78 3.45 5.179 4.887l-1.176 1.502c-2.51-1.917-4.273-4.058-5.305-6.39h-.032v7.108H19.45v-7.108h-.016c-1.128 2.588-2.955 4.728-5.48 6.406L13 22.523c2.288-1.278 4.003-2.875 5.115-4.824h-4.781v-1.63h6.116v-2.314h-5.163v-1.63h5.163v-2.013zm17.077 2.62h2.447v-2.604h1.573v2.603h2.478v6.805h-2.478v2.94c.365-.08.73-.16 1.08-.224a33.702 33.702 0 0 0-.509-1.646l1.35-.447c.43 1.214.811 2.604 1.16 4.185l-1.413.352c-.08-.384-.16-.735-.239-1.055-1.76.403-3.535.733-5.322.99l-.38-1.549a69.308 69.308 0 0 0 2.7-.335v-3.21h-2.447v-6.806.001zm4.973 5.303v-3.802h-1.018v3.802H41.5zm-2.463 0v-3.802h-.985v3.802h.985zm-8.086.063v1.662H32v-1.662h-1.049zm-.08 3.051c-.158 1.47-.492 2.7-1.032 3.706l-1.207-1.086c.604-1.07.905-2.428.921-4.073v-4.76l-.873-1.039c.921-.926 1.715-2.22 2.414-3.897l1.51.351-.334.767h2.796v1.134c-.25.504-.526.994-.826 1.47h1.62v9.632c0 .926-.445 1.39-1.334 1.39h-.731l-.365-1.342c.254.032.476.064.683.064.238 0 .365-.208.365-.607v-1.71h-1.112v3.403H32v-3.403h-1.129zm3.607-1.39v-1.66h-1.112v1.66h1.112zm0-3.066v-1.55h-1.112v1.55h1.112zm-3.67-2.971h1.764c.238-.368.492-.783.746-1.246h-1.715a15.65 15.65 0 0 1-.795 1.246zM32 15.143h-1.049v1.55H32v-1.55zm16.585-2.923h-2.558v-1.63h9.85v1.087a45.656 45.656 0 0 1-.874 3.259h3.145v.974c-.46 2.109-1.398 3.882-2.812 5.351 1.144.799 2.447 1.502 3.908 2.125l-1.112 1.485c-1.588-.734-2.954-1.55-4.098-2.444-1.366 1.055-3.034 1.901-5.004 2.54l-.97-1.55c1.812-.606 3.353-1.325 4.592-2.188a13.23 13.23 0 0 1-2.749-3.817c-.587 3.194-1.89 5.67-3.892 7.411l-1.286-1.134c2.525-2.14 3.812-5.559 3.86-10.255V12.22zm5.37 7.971c1.16-1.086 1.97-2.332 2.43-3.738h-3.447c.35-.974.715-2.38 1.112-4.233h-3.781v1.214c0 .32-.016.623-.032.927.572 2.236 1.811 4.169 3.717 5.83h.001z" fill="#000" fill-rule="nonzero"/><g opacity=".9" fill="#6D6E71" fill-rule="nonzero"><path d="M41.942 71.2h.756v-6.128l1 1.795.474-.739c-.89-1.164-1.382-1.79-1.474-1.88l.008-.666h1.206v-.74h-1.206l-.008-2.09h-.756v2.09H40.5v.74h1.35c-.082.83-1.132 3.204-1.678 3.781.01.003.133.305.367.905.634-1.141.97-1.826 1.403-3.09V71.2zm-11.744.045v-9.839h7.66v9.84h-.87v-.732h-5.935v.731h-.855zm6.867-9.142h-6.011v1.955h6.01v-1.955h.001zm-.02 2.668h-5.972v2.013h5.972v-2.013zm-.011 2.805h-5.95v2.122h5.95v-2.123.001zm7.494-6.17h6.268v.687h-1.881v.854h1.694v2.678h-5.814v-2.678h1.71v-.854h-1.977v-.687zm3.715.74h-1.101v.816h1.102v-.816h-.001zm.648 1.466v1.391h.985v-1.391h-.985zm-.66-.01h-1.046v1.399h1.046v-1.399zm-1.676-.017h-1.003v1.429h1.003v-1.43.001zm3.739 2.58v.664H45.04v-.665l5.254.001zm.502 1.534v.635h-2.814v2.862h-.698v-2.862h-2.745v-.635h6.257z"/><path d="M48.836 69.305c.238-.24.4-.394.484-.461.296.226 1.316 1.227 1.688 1.792-.128.139-.311.32-.551.547-.184-.365-.724-.99-1.62-1.879l-.001.001zm-2.844-.694c.247.213.42.36.518.442-.616.821-1.235 1.46-1.857 1.92a7.89 7.89 0 0 1-.48-.588c.98-.798 1.587-1.39 1.819-1.774z"/></g><path d="M40.784 152.009l.989.112-.408 2.558c.131.01.809.01 2.033 0 .034 1.878-.352 4.682-1.137 6.293.844.912 1.375 1.532 1.594 1.859l-.66.738-1.353-1.625c-.79 1.302-1.476 2.209-2.06 2.721a14.504 14.504 0 0 0-.6-.768c.763-.821 1.518-1.66 1.967-2.646l-1.744-1.747.877-3.893h-1.1v-.932h1.233l.37-2.67h-.001zm1.717 3.608h-1.248a55.91 55.91 0 0 1-.803 3.565c.464.454.836.822 1.116 1.104.478-1.025.935-3.94.935-4.67v.001zm4.337-3.59l.91.314c-1.045 2.182-1.858 3.598-2.436 4.248 2.637-.231 4.09-.392 4.355-.483-.645-1.232-1.02-1.922-1.125-2.07l.85-.415c.918 1.588 1.617 2.901 2.098 3.94l-.924.468-.481-1.067c-3.334.386-5.351.586-6.053.6a25.01 25.01 0 0 0-.153-.911c.79-.437 1.776-1.978 2.959-4.624zm2.956 12.638v-.844h-4.186v.844h-.962v-5.85h6.077v5.85h-.929zm-.007-4.95h-4.155v3.152h4.156v-3.151l-.001-.001zm-22.55-6.039v-.705H37.73v.705h-1.998v3.738h2.86v1.085h-2.86v5.888h-1.113v-5.888l-3.97-.009c-.298 5.027-2.97 5.897-3.303 6.118a8.305 8.305 0 0 1-.579-.85c1.303-1.004 2.785-2.125 2.785-5.268-1.114.006-2.356.03-3.086.009v-1.085h3.086v-3.738h-2.316.001zm7.354.197h-3.832v3.516h3.832v-3.516zm236.993-17.188v1.088c-1.632.592-3.472 1.072-5.552 1.456l-.144-1.12c2.176-.352 4.064-.832 5.696-1.424zm-2.96-11.52l1.072.416c-.816 2.08-1.648 3.744-2.48 4.992.76-.097 1.517-.21 2.272-.336.304-.576.624-1.168.944-1.776l1.008.368c-1.456 2.704-2.672 4.624-3.648 5.776 1.216-.24 2.416-.56 3.6-.96v1.024c-1.728.592-3.392.992-4.992 1.2l-.304-1.04c.208-.096.384-.208.528-.336.608-.624 1.36-1.68 2.256-3.184-.912.144-1.824.272-2.752.4l-.288-1.056c.176-.08.336-.224.48-.432.896-1.472 1.664-3.152 2.304-5.056zm2.768 2.032h3.824v-1.936h1.168v1.936h3.808v1.12h-3.808v2.368h3.344v1.12h-7.808v-1.12h3.296v-2.368h-3.824v-1.12zm7.872 6.208v6.432h-1.12v-.768h-4.576v.768h-1.136v-6.432h6.832zm-5.696 4.576h4.576v-3.488h-4.576v3.488zm8.576-11.12h6.256v-1.6h1.184v1.6h6.224v1.104h-6.224v1.568h5.04v4.528h-4.064c1.152 1.632 3.104 3.072 5.824 4.352l-.784.992c-2.832-1.584-4.816-3.36-5.968-5.344h-.048v5.808H288.4v-5.808h-.048c-1.216 2.176-3.232 3.968-6.064 5.376l-.672-1.056c2.656-1.12 4.592-2.56 5.792-4.32h-4.016v-4.528h5.008v-1.568h-6.256v-1.104zm11.328 6.144v-2.384h-3.888v2.384h3.888zm-5.072 0v-2.384h-3.856v2.384h3.856z" fill="#2A3052" fill-rule="nonzero"/><path d="M148.375 165.075v7.225h-1.3v-5.875H143.6v5.825h-1.325v-7.175h6.1zm-3.025 8.275c-.1.25-.2.475-.3.675-.55 1-1.425 1.775-2.675 2.325l-.75-1.175c1.15-.525 1.95-1.2 2.425-2 .4-.875.625-2 .675-3.4V167.6h1.2v2.175c-.025.85-.1 1.625-.225 2.3.95.825 1.75 1.65 2.4 2.475l-.95.95c-.475-.7-1.075-1.4-1.8-2.15zm-10.9-18.275h10.3c-.25-.55-.5-1.025-.775-1.475l1.8-.3c.25.525.475 1.125.675 1.775h10.1v1.3h-18.175v1.3h16.475v1.275H136.7v-2.575h-2.25v-1.3zm2.95 5.05h16.125v3.725H137.4v-3.725zm14.375 2.55V161.3H139.15v1.375h12.625zm-14.75 6.8a34.912 34.912 0 0 1-.125 1.775h2.75v-1.775h-2.625zm2.625-1.175v-1.8h-2.625v1.8h2.625zm-2.925 4.125c-.3 1.625-.85 3-1.625 4.15l-1.125-1.025c1.05-1.6 1.575-3.6 1.6-6.05v-4.375h5.5v9.625c0 1.125-.6 1.7-1.775 1.7h-1.025l-.375-1.35c.325.05.65.075.95.075.525 0 .8-.325.8-.925v-1.825h-2.925zm18.9 3.75h-.875c-.9 0-1.325-.5-1.325-1.45v-8.175h-2.375v2.575c0 1.85-.125 3.275-.375 4.275-.275 1-.85 2.05-1.725 3.15l-1.125-.975c.75-.9 1.25-1.725 1.5-2.5.25-.8.375-2.125.375-3.95v-4h5.075v9.175c0 .375.15.575.475.575h.15c.15 0 .275-.125.35-.375.075-.25.15-1.075.225-2.5l1.15.4c-.15 1.7-.3 2.75-.475 3.175-.2.4-.525.6-1.025.6zm-3.575-7.4c.45 1 .875 2.05 1.225 3.2l-.95.425c-.375-1.25-.775-2.35-1.225-3.3l.95-.325zm10.186.208h-2.039l-.158-12.756h2.368l-.171 12.756zm-2.283 3.882c0-.366.112-.674.336-.922.224-.248.555-.372.995-.372.44 0 .773.124 1 .372.229.248.342.556.342.922s-.113.67-.341.91c-.228.24-.562.36-1.001.36-.44 0-.771-.12-.995-.36-.224-.24-.336-.544-.336-.91z" fill="#FFF" fill-rule="nonzero"/></g></svg>