<svg width="299" height="197" xmlns="http://www.w3.org/2000/svg"><g fill="none" fill-rule="evenodd"><path fill="#F1F2F2" d="M0 0h299v197H0z"/><path d="M1.987 1.98v193.04h295.026V1.98H1.987zM299 0v197H0V0h299z" fill="#C2C2C2" fill-rule="nonzero"/><path d="M9.765 57.597V56.43h279.823v1.167H9.765zm0 39.175v-1.167h279.823v1.167H9.765zm0 39.175v-1.167h279.823v1.167H9.765zm0 39.14v-1.168h279.823v1.168H9.765zM42.977 37.444h1.168v154.318h-1.168V37.444zm35.42 0h1.168v154.318h-1.167V37.444zm35.385 0h1.168v154.318h-1.168V37.444z" fill="#DFDEDE" fill-rule="nonzero"/><path d="M149.203 37.444h1.167v5.873h-1.167v-5.873zm0 11.746h1.167v5.873h-1.167V49.19zm0 11.746h1.167v5.874h-1.167v-5.874zm0 11.747h1.167v5.873h-1.167v-5.873zm0 11.746h1.167v5.873h-1.167V84.43zm0 11.747h1.167v5.873h-1.167v-5.873zm0 11.746h1.167v5.873h-1.167v-5.873zm0 11.747h1.167v5.873h-1.167v-5.873zm0 11.746h1.167v5.873h-1.167v-5.873zm0 11.746h1.167v5.874h-1.167v-5.874zm0 11.747h1.167v5.873h-1.167v-5.873zm0 11.746h1.167v5.873h-1.167v-5.873zm0 11.747h1.167v5.873h-1.167V178.4zm0 11.746h1.167v1.615h-1.167v-1.615z" fill="#E98024" fill-rule="nonzero"/><path d="M184.584 37.444h1.168v154.318h-1.168V37.444zm35.385 0h1.168v154.318h-1.168V37.444zM9.765 116.342v-1.168h279.823v1.168H9.765z" fill="#DFDEDE" fill-rule="nonzero"/><path d="M255.39 37.444h1.167v154.318h-1.167V37.444zM9.765 77.202v-1.167h279.823v1.167H9.765z" fill="#2A3052" fill-rule="nonzero"/><path d="M9.765 155.517v-1.167h5.874v1.167H9.765zm11.747 0v-1.167h5.873v1.167h-5.873zm11.746 0v-1.167h5.873v1.167h-5.873zm11.747 0v-1.167h5.873v1.167h-5.873zm11.746 0v-1.167h5.873v1.167h-5.873zm11.746 0v-1.167h5.874v1.167h-5.874zm11.747 0v-1.167h5.873v1.167h-5.873zm11.746 0v-1.167h5.874v1.167H91.99zm11.747 0v-1.167h5.873v1.167h-5.873zm11.746 0v-1.167h5.873v1.167h-5.873zm11.747 0v-1.167h5.873v1.167h-5.873zm11.746 0v-1.167h5.873v1.167h-5.873zm11.746 0v-1.167h5.874v1.167h-5.874zm11.747 0v-1.167h5.873v1.167h-5.873zm11.746 0v-1.167h5.874v1.167h-5.874zm11.747 0v-1.167h5.873v1.167h-5.873zm11.746 0v-1.167h5.873v1.167h-5.873zm11.747 0v-1.167h5.873v1.167h-5.873zm11.746 0v-1.167h5.873v1.167h-5.873zm11.746 0v-1.167h5.874v1.167h-5.874zm11.747 0v-1.167h5.873v1.167h-5.873zm11.746 0v-1.167h5.874v1.167h-5.874zm11.747 0v-1.167h5.873v1.167h-5.873zm11.746 0v-1.167h5.873v1.167h-5.873z" fill="#E98024" fill-rule="nonzero"/><path fill="#C2C2C2" fill-rule="nonzero" d="M2 37.456V35.12h295v2.336z"/><path d="M44.17 155.022a1.751 1.751 0 1 1-2.398-2.553l40.078-37.65a1.751 1.751 0 0 1 1.612-.425l36.942 8.976 27.153-48.706a1.751 1.751 0 0 1 2.656-.488l34.96 29.378 34.693-1.918c.351-.02.7.068 1.001.25l35.42 21.361a1.751 1.751 0 0 1-1.808 3l-34.959-21.084-34.846 1.926a1.751 1.751 0 0 1-1.223-.408l-33.868-28.46-26.768 48.018a1.751 1.751 0 0 1-1.943.85l-37.315-9.067-39.387 37z" fill="#2A3052" fill-rule="nonzero"/><circle cx="8.161" cy="8.188" r="7.836" opacity=".6" transform="translate(247.222 115.222)" fill="#FFF"/><path d="M255.383 132.39a8.98 8.98 0 1 1 0-17.961 8.98 8.98 0 0 1 0 17.962zm0-2.288a6.692 6.692 0 1 0 0-13.384 6.692 6.692 0 0 0 0 13.384z" fill="#E88024" fill-rule="nonzero"/><circle cx="8.526" cy="8.228" r="7.836" opacity=".6" transform="translate(34.444 145.667)" fill="#FFF"/><path d="M42.97 162.876a8.98 8.98 0 1 1 0-17.962 8.98 8.98 0 0 1 0 17.962zm0-2.289a6.692 6.692 0 1 0 0-13.384 6.692 6.692 0 0 0 0 13.384z" fill="#E88024" fill-rule="nonzero"/><circle cx="8.026" cy="8.644" r="7.836" opacity=".6" transform="translate(140.556 68)" fill="#FFF"/><path d="M148.581 85.624a8.98 8.98 0 1 1 0-17.961 8.98 8.98 0 0 1 0 17.961zm0-2.288a6.692 6.692 0 1 0 0-13.385 6.692 6.692 0 0 0 0 13.385z" fill="#E88024" fill-rule="nonzero"/><path d="M258.65 150.92h-37.126l-5.28-7.898-5.28 7.9h-37.142a4.622 4.622 0 0 0-4.622 4.623v23.875a4.622 4.622 0 0 0 4.622 4.623h84.829a4.622 4.622 0 0 0 4.622-4.623v-23.879a4.622 4.622 0 0 0-4.622-4.622z" fill="#E88024"/><path d="M16.972 16.615c1.125.36 2.16.81 3.09 1.35l-.66 1.005h2.55c.15-.435.24-.885.27-1.335v-2.43h1.366v2.43c-.03.48-.09.93-.195 1.335h4.8v1.365h-5.34c-.075.12-.135.225-.195.315 1.89.555 3.645 1.215 5.235 1.98l-.795 1.245a29.805 29.805 0 0 0-5.265-2.265l-.045.045c-1.095.93-2.88 1.665-5.34 2.175l-.75-1.215c2.49-.495 4.17-1.11 5.07-1.86.15-.15.285-.285.405-.42h-5.58V18.97h3.63a14.288 14.288 0 0 0-2.925-1.365l.675-.99h-.001zm1.275-1.56c1.125.315 2.16.705 3.105 1.185l-.72 1.08c-.99-.54-2.01-.96-3.06-1.275l.675-.99zm-2.49-1.575h5.445v-1.125h-4.35v-1.29h4.35V10h1.38v1.065h4.26v1.29h-4.26v1.125h5.265v.885a19.894 19.894 0 0 1-.915 3.015l-1.335-.375c.315-.645.585-1.38.81-2.22H15.758V13.48h-.001zm18.045 2.895v7.395h-1.41v-7.23c-.51 1.425-1.14 2.73-1.92 3.9l-.63-1.62a13.03 13.03 0 0 0 2.49-4.65h-2.174v-1.365h2.235V10h1.41v2.805h1.86v1.365h-1.86v.69c.735.675 1.47 1.44 2.205 2.28l-.825 1.245c-.525-.81-.99-1.485-1.38-2.01h-.001zm7.635-4.23h-3.585c.18 2.07.735 3.96 1.68 5.655.945-1.65 1.575-3.54 1.905-5.655zm-2.73 6.945c-1.245-2.085-1.98-4.395-2.22-6.945h-.555V10.78h6.87v1.35c-.42 2.715-1.215 5.055-2.415 7.035.93 1.29 2.085 2.46 3.495 3.51l-.975 1.155c-1.32-1.065-2.445-2.22-3.345-3.45a14.936 14.936 0 0 1-3.705 3.42l-.915-1.155c1.515-1.005 2.775-2.19 3.765-3.555zm7.8-4.74h4.59v-.735h-5.73v-1.2h5.73v-.825c-1.44.075-2.955.135-4.545.195l-.24-1.14c3.9-.12 7.35-.33 10.365-.63l.435 1.155c-1.425.12-2.955.24-4.59.345v.9h5.76v1.2h-5.76v.735h4.605v5.16h-4.605v.795h5.235v1.125h-5.235v.855h5.985V23.5H45.158v-1.215h5.94v-.855h-5.19v-1.125h5.19v-.795h-4.59v-5.16h-.001zm9.24 4.035v-.93h-3.225v.93h3.225zm-4.65 0v-.93h-3.225v.93h3.225zm-3.225-2.01h3.225v-.9h-3.225v.9zm4.65-.9v.9h3.225v-.9h-3.225zm9.345-5.265c.96.72 1.755 1.455 2.415 2.175l-.975.99c-.57-.705-1.38-1.455-2.415-2.235l.975-.93zm-1.92 4.275h3.36v6.345c.465-.39.96-.84 1.5-1.35l.39 1.5c-.975.9-2.01 1.71-3.105 2.415l-.54-1.29c.24-.21.375-.48.375-.795v-5.46h-1.98v-1.365zm5.355 1.785h7.275v1.305a8.173 8.173 0 0 1-2.16 3.435c.96.63 2.13 1.2 3.48 1.68l-.765 1.23c-1.5-.6-2.745-1.29-3.765-2.04-1.17.84-2.625 1.515-4.335 2.025l-.795-1.2c1.59-.465 2.925-1.05 4.005-1.77-1.02-.99-1.725-2.085-2.085-3.285h-.855v-1.38zm2.19 1.38c.345.915.93 1.74 1.77 2.49.81-.735 1.44-1.56 1.875-2.49h-3.645zm-1.14-7.17h5.31v3.15c0 .33.18.51.555.51h1.32v1.305h-1.695c-1.065 0-1.59-.51-1.59-1.5v-2.13h-2.49v.45c0 1.56-.795 2.775-2.37 3.63l-.945-1.095c1.26-.57 1.905-1.365 1.905-2.385V10.48z" fill="#000" fill-rule="nonzero"/><path d="M98.275 55.646v8.988h-1.104v-.744h-1.44v1.032h-1.116v-9.276h3.66zm-2.544 7.188h1.44V60.23h-1.44v2.604zm0-3.672h1.44v-2.484h-1.44v2.484zm4.344.108c.732 1.116 1.296 2.088 1.68 2.928l-.948.66c-.42-.888-.984-1.896-1.68-3l.948-.588zm2.616 6.504h-2.124l-.252-1.104c.696.036 1.356.06 1.992.06.288 0 .432-.156.432-.468v-6.24h-3.996V56.93h3.996v-2.016h1.164v2.016h1.344v1.092h-1.344v6.528c0 .816-.408 1.224-1.212 1.224zm6.624-7.776h4.776v5.808h-4.776v-5.808zm3.72 4.8v-1.404h-2.652v1.404h2.652zm-2.652-2.388h2.652v-1.404h-2.652v1.404zm4.932 5.388h-.984l-.288-1.068 1.032.024c.324 0 .492-.228.492-.66V56.39h-4.524v-1.044h5.628v9.06c0 .924-.456 1.392-1.356 1.392zm-8.508-8.988h1.104v9.096h-1.104V56.81zm2.004-2.112c.56.66 1.05 1.376 1.464 2.136l-1.032.54a13.426 13.426 0 0 0-1.464-2.22l1.032-.456zm10.68 3.612h3.672v-.588h-4.584v-.96h4.584v-.66c-1.152.06-2.364.108-3.636.156l-.192-.912c3.12-.096 5.88-.264 8.292-.504l.348.924c-1.14.096-2.364.192-3.672.276v.72h4.608v.96h-4.608v.588h3.684v4.128h-3.684v.636h4.188v.9h-4.188v.684h4.788v.972h-10.68v-.972h4.752v-.684h-4.152v-.9h4.152v-.636h-3.672V58.31zm7.392 3.228v-.744h-2.58v.744h2.58zm-3.72 0v-.744h-2.58v.744h2.58zm-2.58-1.608h2.58v-.72h-2.58v.72zm3.72-.72v.72h2.58v-.72h-2.58zm7.476-4.212a14.023 14.023 0 0 1 1.932 1.74l-.78.792c-.456-.564-1.104-1.164-1.932-1.788l.78-.744zm-1.536 3.42h2.688v5.076c.372-.312.768-.672 1.2-1.08l.312 1.2c-.78.72-1.608 1.368-2.484 1.932l-.432-1.032c.19-.157.3-.39.3-.636V59.51h-1.584v-1.092zm4.284 1.428h5.82v1.044a6.539 6.539 0 0 1-1.728 2.748c.768.504 1.704.96 2.784 1.344l-.612.984c-1.2-.48-2.196-1.032-3.012-1.632-.936.672-2.1 1.212-3.468 1.62l-.636-.96c1.272-.372 2.34-.84 3.204-1.416-.816-.792-1.38-1.668-1.668-2.628h-.684v-1.104zm1.752 1.104c.276.732.744 1.392 1.416 1.992.648-.588 1.152-1.248 1.5-1.992h-2.916zm-.912-5.736h4.248v2.52c0 .264.144.408.444.408h1.056v1.044h-1.356c-.852 0-1.272-.408-1.272-1.2v-1.705h-1.992v.36c0 1.248-.636 2.22-1.896 2.904l-.756-.876c1.008-.456 1.524-1.092 1.524-1.908v-1.548.001z" fill="#6D6E70" fill-rule="nonzero"/><path d="M22.78 170.088H34.6v1.38h-2.4v3.6h3.165v1.38H32.2v6.495h-1.425v-6.495h-4.02c-.15 1.5-.435 2.745-.885 3.75-.57 1.26-1.53 2.235-2.865 2.91l-.765-1.2c1.2-.705 2.025-1.605 2.46-2.685.285-.78.48-1.71.6-2.775H22v-1.38h3.405c0-.12.015-.24.015-.33v-3.27h-2.64v-1.38zm4.08 1.38v3.27c0 .12-.015.225-.015.33h3.93v-3.6H26.86zm11.61-2.265l1.395.12c-.12.96-.24 1.875-.36 2.715h2.13v.795c-.09 2.4-.48 4.47-1.17 6.24.66.69 1.215 1.32 1.635 1.875l-.96 1.125c-.375-.51-.81-1.035-1.32-1.605a10.64 10.64 0 0 1-2.115 2.745l-.9-1.125a9.163 9.163 0 0 0 2.04-2.67 76.47 76.47 0 0 0-1.905-1.89c.33-1.26.645-2.64.915-4.125h-1.05v-1.365h1.275c.135-.915.27-1.86.39-2.835zm.975 8.835c.48-1.365.78-2.91.87-4.635H39.28c-.255 1.47-.525 2.715-.81 3.705.345.33.675.63.975.93zm10.08-1.47v6.585H48.16v-.84h-4.11v.84H42.7v-6.585h6.825zm-5.475 4.41h4.11v-3.105h-4.11v3.105zm-1.86-5.505l-.225-1.29c.735-.24 1.77-1.875 3.105-4.92l1.35.45c-.81 1.74-1.62 3.21-2.46 4.38 1.44-.09 2.835-.24 4.185-.45-.36-.75-.735-1.44-1.095-2.085l1.215-.585c.78 1.305 1.5 2.745 2.19 4.32l-1.305.63c-.15-.39-.3-.75-.45-1.08a88.2 88.2 0 0 1-6.51.63zm226.391-31.202v1.35c-1.53.54-3.255.99-5.205 1.334l-.18-1.38c2.055-.33 3.855-.765 5.385-1.305v.001zm-3-10.71l1.335.51c-.72 1.814-1.44 3.284-2.19 4.424.57-.06 1.155-.135 1.755-.225.27-.51.54-1.035.84-1.59l1.245.45c-1.275 2.34-2.34 4.065-3.21 5.145a23.778 23.778 0 0 0 3.045-.855v1.275c-1.68.57-3.255.945-4.755 1.14l-.375-1.275c.255-.105.465-.24.645-.405.48-.51 1.095-1.365 1.83-2.595-.75.105-1.545.21-2.355.33l-.345-1.305c.21-.09.405-.27.585-.525.75-1.35 1.41-2.85 1.95-4.5v.001zm2.775 1.814h3.465v-1.695h1.425v1.695h3.45v1.38h-3.45v1.89h3.015v1.38h-7.41v-1.38h2.97v-1.89h-3.465v-1.38zm7.59 5.82v6.24h-1.38v-.6h-3.96v.6h-1.395v-6.24h6.735zm-5.34 4.29h3.96v-2.94h-3.96v2.94zm7.83-10.425h5.745v-1.38h1.44v1.38h5.715v1.365h-5.715v1.185h4.695v4.515h-3.585c1.05 1.395 2.775 2.64 5.175 3.735l-.975 1.245c-2.52-1.47-4.29-3.105-5.31-4.905v5.265h-1.44V142.2c-1.125 1.995-2.94 3.63-5.43 4.92l-.825-1.32c2.31-.975 4.02-2.205 5.13-3.675h-3.54v-4.515h4.665v-1.185h-5.745v-1.365zm10.455 5.76v-1.875h-3.27v1.875h3.27zm-4.71 0v-1.875h-3.24v1.875h3.24z" fill="#2A3052" fill-rule="nonzero"/><path d="M270.225 81.071v10.404h-.864v-.78h-6.312v.804h-.876V81.071h8.052zm-7.176 8.784h6.312v-2.256h-6.312v2.256zm0-3.048h6.312v-2.112h-6.312v2.112zm0-2.904h6.312v-1.992h-6.312v1.992zm11.436-3.384h.852v2.268h1.392v.828h-1.392v.924c.588.6 1.176 1.272 1.764 2.004l-.492.732a25.11 25.11 0 0 0-1.272-1.812v6.012h-.852v-5.976a14.173 14.173 0 0 1-1.476 3.096l-.372-.936c.864-1.176 1.476-2.532 1.848-4.044h-1.464v-.828h1.464v-2.268zm3.54 5.424l.792.18c-.384 1.68-.948 3.12-1.668 4.344l-.744-.48a13.228 13.228 0 0 0 1.62-4.044zm4.344-.06c.522 1.42.955 2.87 1.296 4.344l-.78.348c-.396-1.668-.828-3.144-1.296-4.44l.78-.252zm-2.688 5.472h-1.224l-.168-.804c.384.024.744.048 1.092.048.324 0 .492-.18.492-.528v-5.124h-2.928v-.828h6.732v.828h-2.94v5.34c0 .708-.36 1.068-1.056 1.068zm-2.1-10.152h5.472v.816h-5.472v-.816z" fill="#6D6E70" fill-rule="nonzero"/><path d="M218.375 167.075v7.225h-1.3v-5.875H213.6v5.825h-1.325v-7.175h6.1zm-3.025 8.275c-.1.25-.2.475-.3.675-.55 1-1.425 1.775-2.675 2.325l-.75-1.175c1.15-.525 1.95-1.2 2.425-2 .4-.875.625-2 .675-3.4V169.6h1.2v2.175c-.025.85-.1 1.625-.225 2.3.95.825 1.75 1.65 2.4 2.475l-.95.95c-.475-.7-1.075-1.4-1.8-2.15zm-10.9-18.275h10.3c-.25-.55-.5-1.025-.775-1.475l1.8-.3c.25.525.475 1.125.675 1.775h10.1v1.3h-18.175v1.3h16.475v1.275H206.7v-2.575h-2.25v-1.3zm2.95 5.05h16.125v3.725H207.4v-3.725zm14.375 2.55V163.3H209.15v1.375h12.625zm-14.75 6.8a34.912 34.912 0 0 1-.125 1.775h2.75v-1.775h-2.625zm2.625-1.175v-1.8h-2.625v1.8h2.625zm-2.925 4.125c-.3 1.625-.85 3-1.625 4.15l-1.125-1.025c1.05-1.6 1.575-3.6 1.6-6.05v-4.375h5.5v9.625c0 1.125-.6 1.7-1.775 1.7h-1.025l-.375-1.35c.325.05.65.075.95.075.525 0 .8-.325.8-.925v-1.825h-2.925zm18.9 3.75h-.875c-.9 0-1.325-.5-1.325-1.45v-8.175h-2.375v2.575c0 1.85-.125 3.275-.375 4.275-.275 1-.85 2.05-1.725 3.15l-1.125-.975c.75-.9 1.25-1.725 1.5-2.5.25-.8.375-2.125.375-3.95v-4h5.075v9.175c0 .375.15.575.475.575h.15c.15 0 .275-.125.35-.375.075-.25.15-1.075.225-2.5l1.15.4c-.15 1.7-.3 2.75-.475 3.175-.2.4-.525.6-1.025.6zm-3.575-7.4c.45 1 .875 2.05 1.225 3.2l-.95.425c-.375-1.25-.775-2.35-1.225-3.3l.95-.325zm10.186.208h-2.039l-.158-12.756h2.368l-.171 12.756zm-2.283 3.882c0-.366.112-.674.336-.922.224-.248.555-.372.995-.372.44 0 .773.124 1 .372.229.248.342.556.342.922s-.113.67-.341.91c-.228.24-.562.36-1.001.36-.44 0-.771-.12-.995-.36-.224-.24-.336-.544-.336-.91z" fill="#FFF" fill-rule="nonzero"/></g></svg>