<svg width="299" height="197" xmlns="http://www.w3.org/2000/svg"><g fill="none" fill-rule="evenodd"><path fill="#F1F2F2" d="M0 0h299v197H0z"/><path d="M1.987 1.98v193.04h295.026V1.98H1.987zM299 0v197H0V0h299z" fill="#C2C2C2" fill-rule="nonzero"/><path d="M1.75 54.055V52.84h293.487v1.215H1.75zm0 22.53V75.37h293.487v1.215H1.75zm0 18.775v-1.215h293.487v1.215H1.75zm0 41.305v-1.215h293.487v1.215H1.75zm0 18.775v-1.215h293.487v1.215H1.75zm0 22.53v-1.215h293.487v1.215H1.75zM36.886 32.795h1.215V194.26h-1.215V32.795zm37.627 0h1.215V194.26h-1.215V32.795zm37.626 0h1.215V194.26h-1.215V32.795zm33.864 0h1.215V194.26h-1.215V32.795zm37.627 0h1.215V194.26h-1.215V32.795zm37.627 0h1.215V194.26h-1.215V32.795zm37.626 0h1.215V194.26h-1.215V32.795z" fill="#DFDEDE" fill-rule="nonzero"/><path fill="#2A3052" fill-rule="nonzero" d="M2.906 116.82v-1.215h291.607v1.215z"/><path fill="#C2C2C2" fill-rule="nonzero" d="M.8 34.78v-2.43h293.563v2.43z"/><path d="M187.24 147.191h-35.181l-5.419-8.223-5.418 8.223h-35.18c-2.635 0-4.742 2.14-4.742 4.807v24.82c0 2.666 2.145 4.807 4.741 4.807h81.236c2.634 0 4.741-2.14 4.741-4.807v-24.82c0-2.666-2.145-4.807-4.778-4.807z" fill="#E88024"/><g transform="translate(38 63)"><path d="M34.145 31.28L8.915 54.506a1.805 1.805 0 0 1-2.444-2.656l26.505-24.4a1.805 1.805 0 0 1 2.5.054l34.551 34.651 31.793-45.67a1.805 1.805 0 0 1 2.81-.19l45.25 49.217L188.023-.245a1.805 1.805 0 0 1 2.497-.637l24.47 14.84a1.805 1.805 0 0 1-1.871 3.087L190.222 3.159l-38.45 66.286a1.805 1.805 0 0 1-2.89.316l-45.386-49.365-31.74 45.595a1.805 1.805 0 0 1-2.76.243L34.145 31.281z" fill="#2A3052" fill-rule="nonzero"/><ellipse fill="#FFF" opacity=".6" cx="214.055" cy="15.501" rx="7.608" ry="7.855"/><path d="M214.055 24.56c-4.875 0-8.811-4.064-8.811-9.059 0-4.994 3.936-9.058 8.81-9.058 4.876 0 8.812 4.064 8.812 9.058 0 4.995-3.936 9.059-8.811 9.059zm0-2.407c3.528 0 6.404-2.97 6.404-6.652s-2.876-6.651-6.404-6.651-6.404 2.97-6.404 6.651c0 3.682 2.876 6.652 6.404 6.652z" fill="#E88024" fill-rule="nonzero"/><ellipse fill="#FFF" opacity=".6" cx="7.692" cy="53.177" rx="7.608" ry="7.855"/><path d="M7.693 62.235c-4.875 0-8.81-4.064-8.81-9.058s3.935-9.058 8.81-9.058 8.811 4.064 8.811 9.058-3.936 9.058-8.81 9.058zm0-2.407c3.528 0 6.404-2.97 6.404-6.651 0-3.682-2.876-6.652-6.404-6.652s-6.404 2.97-6.404 6.652 2.876 6.651 6.404 6.651z" fill="#E88024" fill-rule="nonzero"/></g><g opacity=".9" fill="#6D6E71" fill-rule="nonzero"><path d="M264.456 140.41h.884v-7.132l1.171 2.09.554-.86c-1.042-1.355-1.617-2.085-1.725-2.189l.01-.774h1.41v-.86h-1.41l-.01-2.434h-.884v2.433h-1.687v.86h1.579c-.096.966-1.325 3.73-1.963 4.401.012.003.155.354.43 1.053.74-1.328 1.135-2.125 1.64-3.597v7.009h.001zm-13.742.052v-11.45h8.963v11.45h-1.018v-.85h-6.944v.85h-1.001zm8.035-10.638h-7.034v2.275h7.034v-2.275zm-.023 3.105h-6.988v2.342h6.988v-2.342zm-.014 3.263h-6.96v2.47h6.96v-2.47zm8.77-7.179h7.334v.8h-2.201v.993h1.982v3.116h-6.803v-3.116h2.001v-.994h-2.313v-.8.001zm4.347.86h-1.29v.95h1.29v-.95zm.757 1.706v1.62h1.153v-1.62h-1.153zm-.772-.01h-1.223v1.627h1.223v-1.627zm-1.96-.021h-1.174v1.663h1.174v-1.663zm4.374 3.002v.773h-6.147v-.773h6.147zm.588 1.785v.74h-3.295v3.33h-.816v-3.33h-3.212v-.74h7.323z"/><path d="M272.522 138.204c.279-.28.468-.458.567-.536.346.262 1.54 1.428 1.975 2.085-.15.162-.365.374-.645.636-.215-.424-.847-1.152-1.896-2.185h-.001zm-3.328-.807c.29.247.492.419.607.514-.72.956-1.445 1.7-2.173 2.234a9.192 9.192 0 0 1-.563-.683c1.148-.93 1.858-1.618 2.13-2.065h-.001z"/></g><path d="M43.247 130.828l1.293.145-.533 3.327c.172.013 1.058.013 2.658 0 .045 2.442-.46 6.088-1.487 8.182 1.104 1.187 1.799 1.993 2.084 2.418l-.862.96-1.77-2.113c-1.031 1.693-1.93 2.872-2.693 3.538a19.044 19.044 0 0 0-.786-.999c1-1.067 1.986-2.158 2.573-3.44l-2.28-2.272 1.147-5.063h-1.44v-1.21h1.613l.483-3.473zm2.245 4.691h-1.63c-.35 1.777-.7 3.322-1.051 4.636.607.59 1.093 1.07 1.46 1.436.625-1.333 1.222-5.124 1.222-6.072h-.001zm5.671-4.668l1.19.408c-1.367 2.837-2.429 4.679-3.185 5.524 3.448-.3 5.346-.51 5.695-.628-.845-1.602-1.335-2.5-1.472-2.691l1.112-.54c1.2 2.065 2.114 3.772 2.743 5.123l-1.209.61-.629-1.389c-4.359.502-6.997.762-7.913.78a32.36 32.36 0 0 0-.201-1.184c1.032-.568 2.322-2.573 3.87-6.013h-.001zm3.866 16.434v-1.097h-5.475v1.097h-1.257v-7.607h7.946v7.607h-1.214zm-.01-6.436h-5.434v4.098h5.435v-4.098h-.001zm-29.485-7.853v-.917h13.72v.917h-2.612v4.86h3.74v1.411h-3.74v7.657h-1.455v-7.657l-5.191-.011c-.389 6.537-3.883 7.668-4.32 7.955-.308-.403-.56-.77-.755-1.105 1.704-1.306 3.64-2.763 3.64-6.85-1.455.007-3.08.038-4.034.011v-1.411h4.035v-4.86h-3.028zm9.616.256h-5.011v4.572h5.011v-4.572z" fill="#2A3052" fill-rule="nonzero"/><path d="M23.16 8c.136.408.289.867.425 1.36h6.562v1.632H15V9.36h6.647a9.559 9.559 0 0 0-.476-1.02L23.16 8zm4.216 15.793h-1.394l-.425-1.564 1.309.05c.595 0 .9-.203.9-.611v-4.165h-10.37v6.34h-1.682v-7.87H29.45v6.052c0 1.173-.697 1.768-2.074 1.768zm-9.758-12.104h9.945v3.604h-9.945v-3.604zm8.245 2.278v-.953h-6.545v.952h6.545v.001zm-6.766 4.216h7.004v3.672h-7.004v-3.672zm5.44 2.363v-1.054h-3.876v1.054h3.876zm8.517-11.9h12.937v1.734h-5.372v3.944h6.545v1.768h-6.545v5.712c0 1.224-.646 1.853-1.938 1.853h-2.72l-.374-1.717c.867.068 1.7.102 2.482.102.51 0 .765-.238.765-.697v-5.253H32v-1.768h6.834V10.38h-5.78V8.646z" fill="#000" fill-rule="nonzero"/><path d="M245.528 103.614v1.224c-1.836.666-3.906 1.206-6.246 1.638l-.162-1.26c2.448-.396 4.572-.936 6.408-1.602zm-3.33-12.96l1.206.468c-.918 2.34-1.854 4.212-2.79 5.616a67.48 67.48 0 0 0 2.556-.378c.342-.648.702-1.314 1.062-1.998l1.134.414c-1.638 3.042-3.006 5.202-4.104 6.498 1.368-.27 2.718-.63 4.05-1.08v1.152c-1.944.666-3.816 1.116-5.616 1.35l-.342-1.17c.234-.108.432-.234.594-.378.684-.702 1.53-1.89 2.538-3.582-1.026.162-2.052.306-3.096.45l-.324-1.188c.198-.09.378-.252.54-.486 1.008-1.656 1.872-3.546 2.592-5.688zm3.114 2.286h4.302v-2.178h1.314v2.178h4.284v1.26h-4.284v2.664h3.762v1.26h-8.784v-1.26h3.708V94.2h-4.302v-1.26zm8.856 6.984v7.236h-1.26v-.864h-5.148v.864h-1.278v-7.236h7.686zm-6.408 5.148h5.148v-3.924h-5.148v3.924zm9.648-12.51h7.038v-1.8h1.332v1.8h7.002v1.242h-7.002v1.764h5.67v5.094h-4.572c1.296 1.836 3.492 3.456 6.552 4.896l-.882 1.116c-3.186-1.782-5.418-3.78-6.714-6.012h-.054v6.534h-1.332v-6.534h-.054c-1.368 2.448-3.636 4.464-6.822 6.048l-.756-1.188c2.988-1.26 5.166-2.88 6.516-4.86h-4.518v-5.094h5.634v-1.764h-7.038v-1.242zm12.744 6.912v-2.682h-4.374v2.682h4.374zm-5.706 0v-2.682h-4.338v2.682h4.338z" fill="#2A3052" fill-rule="nonzero"/><path d="M150.375 164.075v7.225h-1.3v-5.875H145.6v5.825h-1.325v-7.175h6.1zm-3.025 8.275c-.1.25-.2.475-.3.675-.55 1-1.425 1.775-2.675 2.325l-.75-1.175c1.15-.525 1.95-1.2 2.425-2 .4-.875.625-2 .675-3.4V166.6h1.2v2.175c-.025.85-.1 1.625-.225 2.3.95.825 1.75 1.65 2.4 2.475l-.95.95c-.475-.7-1.075-1.4-1.8-2.15zm-10.9-18.275h10.3c-.25-.55-.5-1.025-.775-1.475l1.8-.3c.25.525.475 1.125.675 1.775h10.1v1.3h-18.175v1.3h16.475v1.275H138.7v-2.575h-2.25v-1.3zm2.95 5.05h16.125v3.725H139.4v-3.725zm14.375 2.55V160.3H141.15v1.375h12.625zm-14.75 6.8a34.912 34.912 0 0 1-.125 1.775h2.75v-1.775h-2.625zm2.625-1.175v-1.8h-2.625v1.8h2.625zm-2.925 4.125c-.3 1.625-.85 3-1.625 4.15l-1.125-1.025c1.05-1.6 1.575-3.6 1.6-6.05v-4.375h5.5v9.625c0 1.125-.6 1.7-1.775 1.7h-1.025l-.375-1.35c.325.05.65.075.95.075.525 0 .8-.325.8-.925v-1.825h-2.925zm18.9 3.75h-.875c-.9 0-1.325-.5-1.325-1.45v-8.175h-2.375v2.575c0 1.85-.125 3.275-.375 4.275-.275 1-.85 2.05-1.725 3.15l-1.125-.975c.75-.9 1.25-1.725 1.5-2.5.25-.8.375-2.125.375-3.95v-4h5.075v9.175c0 .375.15.575.475.575h.15c.15 0 .275-.125.35-.375.075-.25.15-1.075.225-2.5l1.15.4c-.15 1.7-.3 2.75-.475 3.175-.2.4-.525.6-1.025.6zm-3.575-7.4c.45 1 .875 2.05 1.225 3.2l-.95.425c-.375-1.25-.775-2.35-1.225-3.3l.95-.325zm10.186.208h-2.039l-.158-12.756h2.368l-.171 12.756zm-2.283 3.882c0-.366.112-.674.336-.922.224-.248.555-.372.995-.372.44 0 .773.124 1 .372.229.248.342.556.342.922s-.113.67-.341.91c-.228.24-.562.36-1.001.36-.44 0-.771-.12-.995-.36-.224-.24-.336-.544-.336-.91z" fill="#FFF" fill-rule="nonzero"/></g></svg>