<svg width="299" height="197" xmlns="http://www.w3.org/2000/svg"><g fill="none"><path fill="#F1F1F2" d="M0 0h299v197H0z"/><path d="M1.987 1.98v193.04h295.026V1.98H1.987zM299 0v197H0V0h299z" fill="#C2C2C2"/><path d="M4.58 54.993v-1.212h290.408v1.212H4.58zm0 20.08V73.86h290.408v1.212H4.58zm0 60.274v-1.212h290.408v1.212H4.58z" fill="#DEDEDD"/><path d="M4.58 155.425v-1.212h3.598v1.212H4.58zm7.196 0v-1.212h3.598v1.212h-3.598zm7.196 0v-1.212h3.598v1.212h-3.598zm7.197 0v-1.212h3.598v1.212h-3.598zm7.196 0v-1.212h3.598v1.212h-3.598zm7.196 0v-1.212h3.598v1.212h-3.598zm7.197 0v-1.212h3.598v1.212h-3.598zm7.196 0v-1.212h3.598v1.212h-3.598zm7.196 0v-1.212h3.598v1.212H62.15zm7.196 0v-1.212h3.599v1.212h-3.599zm7.197 0v-1.212h3.598v1.212h-3.598zm7.196 0v-1.212h3.598v1.212H83.74zm7.196 0v-1.212h3.599v1.212h-3.599zm7.197 0v-1.212h3.598v1.212h-3.598zm7.196 0v-1.212h3.598v1.212h-3.598zm7.196 0v-1.212h3.599v1.212h-3.599zm7.197 0v-1.212h3.598v1.212h-3.598zm7.196 0v-1.212h3.598v1.212h-3.598zm7.196 0v-1.212h3.599v1.212h-3.599zm7.197 0v-1.212h3.598v1.212h-3.598zm7.196 0v-1.212h3.598v1.212h-3.598zm7.196 0v-1.212h3.598v1.212h-3.598zm7.197 0v-1.212h3.598v1.212h-3.598zm7.196 0v-1.212h3.598v1.212h-3.598zm7.196 0v-1.212h3.598v1.212h-3.598zm7.197 0v-1.212h3.598v1.212h-3.598zm7.196 0v-1.212h3.598v1.212h-3.598zm7.196 0v-1.212h3.598v1.212h-3.598zm7.197 0v-1.212h3.598v1.212h-3.598zm7.196 0v-1.212h3.598v1.212h-3.598zm7.196 0v-1.212h3.598v1.212h-3.598zm7.196 0v-1.212h3.599v1.212h-3.599zm7.197 0v-1.212h3.598v1.212h-3.598zm7.196 0v-1.212h3.598v1.212h-3.598zm7.196 0v-1.212h3.599v1.212h-3.599zm7.197 0v-1.212h3.598v1.212h-3.598zm7.196 0v-1.212h3.598v1.212h-3.598zm7.196 0v-1.212h3.599v1.212h-3.599zm7.197 0v-1.212h3.598v1.212h-3.598zm7.196 0v-1.212h3.598v1.212h-3.598zm7.196 0v-1.212h2.556v1.212h-2.556z" fill="#293052"/><path d="M4.58 175.504v-1.212h290.408v1.212H4.58zM39.059 34.308h1.212V192.59h-1.212V34.308zm36.75 0h1.212V192.59H75.81V34.308zm36.75 0h1.213V192.59h-1.212V34.308zm36.713 0h1.212V192.59h-1.212V34.308zm36.751 0h1.212V192.59h-1.212V34.308zm36.75 0h1.213V192.59h-1.213V34.308zm36.751 0h1.212V192.59h-1.212V34.308zM4.58 115.268v-1.212h290.408v1.212H4.58zm0-20.08v-1.211h290.408v1.212H4.58z" fill="#DEDEDD"/><path fill="#C2C2C2" d="M1 30v-2h297v2z"/><path d="M190.555 84.764a1.8 1.8 0 0 1 2.7.685l32.057 68.609a1.8 1.8 0 1 1-3.26 1.523l-31.126-66.616-40.66 30.06a1.8 1.8 0 0 1-2.095.032l-41.895-29.075-28.651 26.012a1.8 1.8 0 0 1-2.363.049l-36.75-30.687a1.8 1.8 0 1 1 2.306-2.762l35.548 29.683 28.55-25.921a1.8 1.8 0 0 1 2.236-.146l42.012 29.156 41.391-30.602z" fill="#293052"/><path d="M255.777 116.442l.682-6.592h5.98v1.44h-4.58l-.378 3.372a3.58 3.58 0 0 1 .832-.455c.34-.124.699-.188 1.06-.19a3.216 3.216 0 0 1 2.612 1.1 4.322 4.322 0 0 1 .946 2.954 4.208 4.208 0 0 1-.984 2.88 3.556 3.556 0 0 1-2.801 1.098 3.782 3.782 0 0 1-2.536-.833 2.88 2.88 0 0 1-.984-2.425h1.476c-.036.563.17 1.115.568 1.516.4.37.932.561 1.476.53a1.892 1.892 0 0 0 1.59-.72 3.147 3.147 0 0 0 .416-2.121 2.957 2.957 0 0 0-.568-1.895 1.892 1.892 0 0 0-1.59-.757 2.534 2.534 0 0 0-1.4.303c-.305.21-.532.517-.643.871l-1.174-.076zm6.018 20.572h1.628v1.288h-1.628v2.765h-1.627v-2.803h-5.375v-.91l5.261-8.296h1.703v7.956h.038zm-5.26 0h3.784v-5.645.417l-3.785 5.228zm6.547 44.06h-7.759v-1.137l3.785-4.357a10.796 10.796 0 0 0 1.438-1.856 2.92 2.92 0 0 0 .379-1.402 2.237 2.237 0 0 0-.53-1.515 1.74 1.74 0 0 0-1.4-.606 2.383 2.383 0 0 0-1.817.644 2.54 2.54 0 0 0-.606 1.78h-1.438a3.373 3.373 0 0 1 1.022-2.614 4.01 4.01 0 0 1 2.952-1.06 3.48 3.48 0 0 1 2.574.947c.632.63.975 1.494.946 2.386a3.791 3.791 0 0 1-.568 1.97 12.463 12.463 0 0 1-1.627 2.122l-3.142 3.41h5.753v1.287h.038zm0-110.586a16.785 16.785 0 0 0-2.914 4.584 20.55 20.55 0 0 0-1.098 4.85v1.288h-1.703v-1.288a17.5 17.5 0 0 1 1.4-5.153 19.4 19.4 0 0 1 2.726-4.357h-6.51V69.2h8.1v1.288zm-.454-17.616a2.654 2.654 0 0 1-.53 1.629 3.104 3.104 0 0 1-1.438 1.06 3.785 3.785 0 0 1 1.665 1.137c.404.505.618 1.135.606 1.78a3.07 3.07 0 0 1-1.098 2.54 4.992 4.992 0 0 1-5.64 0 3.108 3.108 0 0 1-1.059-2.54 2.805 2.805 0 0 1 .606-1.78 3.52 3.52 0 0 1 1.627-1.136 3.028 3.028 0 0 1-1.4-1.061 2.73 2.73 0 0 1-.492-1.63 3.07 3.07 0 0 1 .984-2.424 3.778 3.778 0 0 1 2.573-.871 3.782 3.782 0 0 1 2.574.871 3.032 3.032 0 0 1 1.022 2.425zm-1.287 5.569a2.16 2.16 0 0 0-.643-1.63 2.27 2.27 0 0 0-1.628-.643 2.156 2.156 0 0 0-2.27 2.235 2.08 2.08 0 0 0 .643 1.591 2.647 2.647 0 0 0 3.293 0c.413-.408.633-.973.605-1.553zm-.19-5.531a2.047 2.047 0 0 0-.567-1.478 2.005 2.005 0 0 0-2.8 0 2.085 2.085 0 0 0-.53 1.478c-.031.544.16 1.077.53 1.477a2.041 2.041 0 0 0 2.8 0c.384-.394.589-.928.568-1.477z" fill="#808184"/><path d="M188.65 146.07h-35.047l-5.526-8.07-5.299 8.07h-35.047a4.733 4.733 0 0 0-4.731 4.735v24.511a4.733 4.733 0 0 0 4.731 4.736h80.92a4.729 4.729 0 0 0 3.418-1.346 4.738 4.738 0 0 0 1.426-3.39v-24.473a4.738 4.738 0 0 0-1.412-3.414 4.729 4.729 0 0 0-3.433-1.36z" fill="#E88024"/><ellipse cx="8.43" cy="8.858" rx="8.137" ry="8.373" opacity=".6" transform="translate(214.95 145.962)" fill="#FFF"/><path d="M223.38 164.404c-5.172 0-9.35-4.299-9.35-9.585 0-5.285 4.178-9.584 9.35-9.584 5.17 0 9.349 4.299 9.349 9.584 0 5.286-4.178 9.585-9.35 9.585zm0-2.424c3.816 0 6.925-3.198 6.925-7.16 0-3.963-3.109-7.161-6.926-7.161-3.816 0-6.925 3.198-6.925 7.16 0 3.963 3.109 7.16 6.925 7.16z" fill="#E88024"/><path d="M259.903 88.9a5.294 5.294 0 0 1 1.211 0 4 4 0 0 1 .984.341l-.34 1.25-.833-.34a3.781 3.781 0 0 0-1.022 0 2.46 2.46 0 0 0-2.082 1.022 4.29 4.29 0 0 0-.795 2.69 3.784 3.784 0 0 1 1.212-.72c.47-.18.971-.27 1.476-.265a3.216 3.216 0 0 1 2.573 1.099 4.17 4.17 0 0 1 .947 2.803 4.473 4.473 0 0 1-1.022 3.031 3.405 3.405 0 0 1-2.725 1.174 3.783 3.783 0 0 1-2.915-1.288 5.194 5.194 0 0 1-1.135-3.599v-2.273a5.383 5.383 0 0 1 1.287-3.788 4.085 4.085 0 0 1 3.179-1.137zm-.568 5.418a2.76 2.76 0 0 0-1.4.34c-.384.21-.7.526-.909.91v.985c-.05.903.204 1.796.72 2.538a2.12 2.12 0 0 0 1.74.91 1.74 1.74 0 0 0 1.666-.91 3.791 3.791 0 0 0 .568-2.084 3.07 3.07 0 0 0-.568-1.97 1.967 1.967 0 0 0-1.817-.757v.038z" fill="#808184"/><path fill="#E88024" d="M246.278 145.424h28.575v18.79h-28.575z"/><path fill="#E88024" d="M249.76 154.82l-3.331 3.333-5.185-3.334 5.185-3.333z"/><path d="M257.594 153.683h1.363c.462.033.916-.132 1.249-.455.293-.348.442-.795.416-1.25a1.63 1.63 0 0 0-.416-1.174 1.588 1.588 0 0 0-1.211-.266 1.664 1.664 0 0 0-1.136.38c-.3.253-.466.63-.454 1.022h-2.347a2.729 2.729 0 0 1 1.06-2.31 4.274 4.274 0 0 1 2.8-.91 4.614 4.614 0 0 1 2.953.871 3.07 3.07 0 0 1 1.098 2.539 2.54 2.54 0 0 1-.492 1.477c-.349.481-.82.86-1.363 1.099a3.028 3.028 0 0 1 1.514 1.098c.353.498.538 1.095.53 1.705a3.108 3.108 0 0 1-1.211 2.576 4.804 4.804 0 0 1-3.066.947 4.69 4.69 0 0 1-2.876-.87 2.805 2.805 0 0 1-1.136-2.501h2.498c-.01.432.17.848.492 1.136.344.304.79.467 1.25.455.484.032.96-.132 1.324-.455a1.67 1.67 0 0 0 .492-1.25 1.82 1.82 0 0 0-.454-1.402 1.967 1.967 0 0 0-1.4-.454h-1.477v-2.008z" fill="#FFF"/><path fill="#293052" d="M247.564 126.292v-1.212h22.899v1.212z"/><path d="M30.045 12.315c-.06.21-.105.405-.165.615.33 1.485.735 2.79 1.23 3.915.45-1.32.705-2.835.765-4.53h-1.83zm.345 6.135c-.48-.99-.9-2.1-1.26-3.33-.225.495-.465.96-.705 1.38l-.975-1.215c.825-1.65 1.38-3.855 1.665-6.615l1.53.27c-.09.66-.18 1.275-.285 1.86h3.75v1.515h-.825c-.09 2.415-.525 4.47-1.32 6.18.72 1.2 1.575 2.145 2.565 2.82l-.87 1.275c-.93-.69-1.755-1.59-2.46-2.7a10.518 10.518 0 0 1-2.595 2.685l-.81-1.32a8.033 8.033 0 0 0 2.595-2.805zm-7.095-2.82l1.47.18c-.09.225-.165.45-.24.66h3.015v1.26a5.353 5.353 0 0 1-1.365 2.31c.585.255 1.155.525 1.71.825l-.84 1.23c-.57-.345-1.26-.705-2.07-1.08-.99.63-2.22 1.125-3.705 1.515l-.72-1.305a14.32 14.32 0 0 0 2.805-.915c-.6-.255-1.245-.51-1.905-.765.36-.6.675-1.185.945-1.74H20.91V16.47h2.085c.105-.3.21-.57.3-.84zm1.47 3.825c.615-.48 1.08-1.035 1.395-1.65h-2.22c-.195.39-.405.765-.615 1.125.48.15.96.33 1.44.525zM22.38 8.895c.315.555.6 1.155.84 1.8l-1.11.495c-.3-.72-.615-1.35-.945-1.905l1.215-.39zm4.215-.015l1.095.525c-.3.63-.675 1.245-1.14 1.845l-1.095-.555c.48-.615.87-1.215 1.14-1.815zm-5.655 2.535h2.79V8.7h1.44v2.715h2.55v1.365h-2.55v.03c.78.315 1.575.675 2.385 1.08l-.81 1.23a29.237 29.237 0 0 0-1.575-1.17v1.575h-1.44V13.17c-.51 1.02-1.29 1.905-2.37 2.685l-.78-1.26c.975-.555 1.695-1.155 2.145-1.815H20.94v-1.365zm28.035-1.32v3.585H47.4v-2.1h-9.81v2.1h-1.575v-3.585h5.655c-.21-.45-.42-.885-.66-1.275l1.815-.3c.21.465.42.99.6 1.575h5.55zm-10.59 2.715h8.205v1.44c-.93.66-1.98 1.305-3.12 1.935v.645h5.73v1.5h-5.73V21c0 1.005-.525 1.515-1.56 1.515h-1.845l-.375-1.425c.51.03 1.08.045 1.695.045.33 0 .51-.225.51-.66V18.33h-6.09v-1.5h6.09v-1.275c.99-.51 1.785-.945 2.37-1.305h-5.88v-1.44zm18.405 2.715v4.65c.33-.15.66-.3.99-.465l.255 1.35c-.855.33-1.845.69-2.985 1.065l-.405-1.335c.42-.135.63-.405.63-.795v-9.57c3.135-.465 5.625-.99 7.47-1.59l.855 1.245c-.735.24-1.59.48-2.565.72.015 1.245.06 2.325.12 3.24h2.97v1.485h-2.85c.045.54.105.99.195 1.38.24 1.305.495 2.235.78 2.79.27.57.48.87.6.87.105 0 .225-.75.345-2.235l1.29.705c-.3 2.235-.765 3.36-1.38 3.36-.51 0-1.035-.405-1.59-1.185-.555-.78-1.02-2.025-1.41-3.705a19.411 19.411 0 0 1-.33-1.98H56.79zm2.73-4.395c-.84.165-1.755.33-2.73.48v2.43h2.85c-.06-.9-.105-1.875-.12-2.91zm-.345 7.905c.81 1.02 1.425 1.935 1.86 2.715l-1.17.81c-.45-.825-1.035-1.74-1.755-2.76l1.065-.765zM53.745 8.61l1.425.675a17.298 17.298 0 0 1-1.38 3.15V22.59h-1.53v-7.875c-.405.51-.84 1.005-1.29 1.485l-.51-1.65c1.47-1.68 2.565-3.66 3.285-5.94zm12.99.54H78.15v1.53h-4.74v3.48h5.775v1.56H73.41v5.04c0 1.08-.57 1.635-1.71 1.635h-2.4l-.33-1.515c.765.06 1.5.09 2.19.09.45 0 .675-.21.675-.615V15.72h-6.03v-1.56h6.03v-3.48h-5.1V9.15zm14.31 0h4.98v1.23c-.45 1.26-.96 2.595-1.545 4.005.93 1.395 1.425 2.595 1.5 3.615 0 .72-.15 1.245-.45 1.545-.45.39-1.245.6-2.355.615l-.51-1.59c.33.06.615.09.84.09.36-.03.6-.075.72-.165.12-.09.18-.255.18-.495 0-1.005-.51-2.13-1.515-3.375.66-1.485 1.185-2.82 1.56-4.005h-1.875v11.955h-1.53V9.15zm6.945 4.125v1.245h3.795v-1.245H87.99zm3.795-1.41v-1.26H87.99v1.26h3.795zm-2.52 4.08H87.99v4.5c.765-.24 1.515-.525 2.265-.885l.375 1.455c-1.11.465-2.505.915-4.185 1.335l-.375-1.38c.24-.075.375-.225.375-.435v-11.4h6.87v6.81h-2.64c.15.72.39 1.38.72 1.995.63-.39 1.23-.915 1.8-1.605l.99 1.005a7.571 7.571 0 0 1-2.055 1.71c.615.78 1.41 1.47 2.4 2.04l-.87 1.38c-2.43-1.605-3.9-3.78-4.395-6.525zM97.38 15c-.3.3-.63.57-.975.84l-.825-1.095c1.17-.84 1.95-1.89 2.37-3.12l1.38.195a18.7 18.7 0 0 1-.27.72h2.055v-1.23H97.17v1.425h-1.335v-2.73h2.61a8.47 8.47 0 0 0-.57-1.17l1.59-.27c.165.42.33.9.51 1.44h2.49v2.715h-.735v.84c-.36.69-.75 1.32-1.2 1.86.87.51 1.665 1.02 2.37 1.53l-.96.96c-.09-.075-.15-.135-.21-.165v4.725h-1.38v-.72h-2.19v.72h-1.38v-4.53c-.24.075-.48.15-.705.21l-.585-1.17c1.14-.27 2.145-.72 2.985-1.38-.36-.21-.735-.405-1.095-.6zm2.265 1.305a8.275 8.275 0 0 1-2.13 1.35h4.095c-.57-.45-1.23-.9-1.965-1.35zm-.27-1.545c.3-.33.57-.675.81-1.05H98.43c-.09.135-.195.27-.285.405.435.21.84.435 1.23.645zm-1.215 5.685h2.19v-1.5h-2.19v1.5zm4.59-11.28h6.705v1.41h-2.625c-.06.45-.135.9-.225 1.32h2.43v7.26h-1.38v-5.97h-3.27v5.985h-1.38v-7.275h2.16c.09-.435.15-.87.195-1.32h-2.61v-1.41zm4.41 10.065c.93.78 1.74 1.545 2.4 2.31l-1.02 1.005c-.54-.75-1.305-1.545-2.325-2.4l.945-.915zm-1.86-5.295h1.365v2.64c-.06 1.635-.36 2.94-.93 3.93-.555.915-1.455 1.62-2.685 2.1l-.78-1.23c1.17-.48 1.95-1.08 2.355-1.785.405-.78.63-1.785.675-3.015v-2.64z" fill="#000"/><path d="M213 14.572h12.348v.812h-6.286v4.424c.28-.042.56-.084.812-.126v.798c-.252.042-.532.084-.812.14v1.358h-.98v-1.232a86.8 86.8 0 0 1-4.914.406l-.126-.868 1.302-.056v-4.844H213v-.812zm2.254 5.614a59.19 59.19 0 0 0 2.828-.252v-.952h-2.828v1.204zm0-1.946h2.828v-1.05h-2.828v1.05zm0-1.806h2.828v-1.05h-2.828v1.05zm-.476-6.818h8.848v4.032h-8.848V9.616zm7.882 3.304v-.938h-6.916v.938h6.916zm-6.916-1.652h6.916v-.896h-6.916v.896zm4.494 5.88h-.448v-.826h4.774v.784a6.662 6.662 0 0 1-1.414 2.786c.616.462 1.344.868 2.212 1.232l-.518.84c-.924-.434-1.708-.91-2.338-1.428-.644.56-1.428 1.036-2.338 1.428l-.518-.784c.84-.364 1.568-.784 2.17-1.288a6.275 6.275 0 0 1-1.582-2.744zm2.198 2.142a6.07 6.07 0 0 0 1.218-2.142h-2.548a5.103 5.103 0 0 0 1.33 2.142zm6.916-5.236v.364c-.084 3.136-.728 5.628-1.904 7.49l-.742-.77c1.022-1.624 1.568-3.864 1.652-6.72v-4.2c3.612-.042 6.846-.364 9.73-.966l.504.91c-2.744.56-5.824.868-9.24.952v1.96h10.08v.98h-10.08zm8.974 1.96v5.936h-1.008v-.658h-5.67v.658h-1.008v-5.936h7.686zm-6.678 4.298h5.67V16.98h-5.67v3.332zm17.724-8.092l-.182.728c.35 1.638.798 3.052 1.358 4.228.546-1.414.84-3.066.896-4.956h-2.072zm.714 5.964c-.546-1.078-1.008-2.31-1.386-3.71a12.35 12.35 0 0 1-.826 1.722l-.63-.77c.826-1.568 1.386-3.682 1.666-6.342l.98.168a32.092 32.092 0 0 1-.308 2.002h3.696v.966h-.91c-.07 2.338-.504 4.34-1.288 5.992.728 1.26 1.582 2.226 2.59 2.912l-.546.826c-.98-.7-1.82-1.652-2.52-2.828a9.392 9.392 0 0 1-2.59 2.814l-.518-.84a8.24 8.24 0 0 0 2.59-2.912zm-6.636-2.562l.938.112c-.098.266-.196.518-.28.77h2.926v.826a5.639 5.639 0 0 1-1.554 2.394c.672.308 1.316.616 1.932.952l-.546.784a20.369 20.369 0 0 0-2.156-1.106c-.924.644-2.086 1.162-3.486 1.554l-.476-.84c1.148-.308 2.142-.686 2.954-1.148a37.472 37.472 0 0 0-1.946-.784c.364-.616.686-1.19.966-1.75h-1.652v-.882h2.044c.126-.308.238-.602.336-.882zm1.106 3.71c.7-.56 1.232-1.218 1.568-1.946h-2.408c-.224.476-.476.924-.756 1.344.56.196 1.092.392 1.596.602zm-2.38-9.954c.336.546.616 1.134.868 1.75l-.728.336a12.95 12.95 0 0 0-.938-1.82l.798-.266zm4.256-.042l.728.336a9.322 9.322 0 0 1-1.078 1.806l-.714-.364c.448-.602.812-1.19 1.064-1.778zm-5.334 2.464h2.73V9.126h.938V11.8h2.548v.882h-2.548v.154c.756.378 1.54.812 2.324 1.288l-.518.784c-.7-.56-1.302-1.008-1.806-1.344v1.82h-.938v-2.66c-.462 1.106-1.302 2.058-2.506 2.87l-.49-.812c1.078-.63 1.834-1.33 2.254-2.1h-1.988V11.8zm25.998-1.246v3.122h-1.008V11.52h-9.856v2.156h-1.008v-3.122h5.502a11.205 11.205 0 0 0-.63-1.358L261.244 9c.196.462.392.98.574 1.554h5.278zm-9.716 2.478h7.518v.938c-.91.644-1.932 1.26-3.052 1.876v.938h5.516v.98h-5.516v2.968c0 .77-.406 1.162-1.218 1.162h-1.722l-.238-.924c.49.014 1.022.028 1.61.028.364 0 .546-.21.546-.616v-2.618h-5.852v-.98h5.852v-1.372a35.426 35.426 0 0 0 2.562-1.442h-6.006v-.938zm12.628.7c.224 0 .434.084.602.252a.814.814 0 0 1 .252.602.845.845 0 0 1-.252.616.883.883 0 0 1-.602.238.812.812 0 0 1-.602-.238.845.845 0 0 1-.252-.616c0-.238.084-.434.252-.602a.772.772 0 0 1 .602-.252zm0 5.124c.224 0 .434.084.602.252a.814.814 0 0 1 .252.602.845.845 0 0 1-.252.616.883.883 0 0 1-.602.238.812.812 0 0 1-.602-.238.845.845 0 0 1-.252-.616c0-.238.084-.434.252-.602a.772.772 0 0 1 .602-.252zm7.98-8.302h5.81v1.022h-4.872l-.336 3.346h.056c.28-.336.644-.588 1.078-.756a3.177 3.177 0 0 1 1.274-.238c.952 0 1.722.294 2.31.896.588.616.896 1.456.896 2.534 0 1.008-.364 1.834-1.078 2.478-.672.602-1.512.91-2.492.91-.882 0-1.638-.238-2.254-.714-.7-.532-1.078-1.26-1.148-2.17h1.134c.056.63.308 1.12.756 1.456.392.294.91.448 1.526.448.7 0 1.274-.224 1.736-.672.448-.448.686-1.022.686-1.722 0-.798-.224-1.414-.644-1.848-.406-.448-.98-.658-1.708-.658-.476 0-.896.098-1.274.308-.392.196-.7.504-.896.896h-1.092l.532-5.516z" fill="#2A3052"/><path d="M149.672 163.362v6.358h-1.144v-5.17h-3.058v5.126h-1.166v-6.314h5.368zm-2.662 7.282c-.088.22-.176.418-.264.594-.484.88-1.254 1.562-2.354 2.046l-.66-1.034c1.012-.462 1.716-1.056 2.134-1.76.352-.77.55-1.76.594-2.992v-1.914h1.056v1.914a13.42 13.42 0 0 1-.198 2.024 16.19 16.19 0 0 1 2.112 2.178l-.836.836c-.418-.616-.946-1.232-1.584-1.892zm-9.592-16.082h9.064a11.86 11.86 0 0 0-.682-1.298l1.584-.264c.22.462.418.99.594 1.562h8.888v1.144h-15.994v1.144h14.498v1.122h-15.972v-2.266h-1.98v-1.144zm2.596 4.444h14.19v3.278h-14.19v-3.278zm12.65 2.244v-1.21h-11.11v1.21h11.11zm-12.98 5.984c-.022.55-.066 1.078-.11 1.562h2.42v-1.562h-2.31zm2.31-1.034v-1.584h-2.31v1.584h2.31zm-2.574 3.63c-.264 1.43-.748 2.64-1.43 3.652l-.99-.902c.924-1.408 1.386-3.168 1.408-5.324v-3.85h4.84v8.47c0 .99-.528 1.496-1.562 1.496h-.902l-.33-1.188c.286.044.572.066.836.066.462 0 .704-.286.704-.814v-1.606h-2.574zm16.632 3.3h-.77c-.792 0-1.166-.44-1.166-1.276v-7.194h-2.09v2.266c0 1.628-.11 2.882-.33 3.762-.242.88-.748 1.804-1.518 2.772l-.99-.858c.66-.792 1.1-1.518 1.32-2.2.22-.704.33-1.87.33-3.476v-3.52h4.466v8.074c0 .33.132.506.418.506h.132c.132 0 .242-.11.308-.33.066-.22.132-.946.198-2.2l1.012.352c-.132 1.496-.264 2.42-.418 2.794-.176.352-.462.528-.902.528zm-3.146-6.512c.396.88.77 1.804 1.078 2.816l-.836.374c-.33-1.1-.682-2.068-1.078-2.904l.836-.286zm7.876-11.11h2.046l-.33 11.484h-1.364l-.352-11.484zm1.012 13.09c.396 0 .704.11.968.374.242.242.374.55.374.924 0 .396-.132.704-.374.946a1.402 1.402 0 0 1-.968.374 1.26 1.26 0 0 1-.924-.374 1.28 1.28 0 0 1-.396-.946c0-.374.132-.682.396-.924.242-.264.55-.374.924-.374z" fill="#FFF"/></g></svg>