<svg xmlns="http://www.w3.org/2000/svg" xmlns:xlink="http://www.w3.org/1999/xlink" width="315" height="210"><defs><filter id="b" width="110.7%" height="121.5%" x="-5.4%" y="-8.6%" filterUnits="objectBoundingBox"><feOffset dy="8" in="SourceAlpha" result="shadowOffsetOuter1"/><feGaussianBlur in="shadowOffsetOuter1" result="shadowBlurOuter1" stdDeviation="4"/><feColorMatrix in="shadowBlurOuter1" result="shadowMatrixOuter1" values="0 0 0 0 0 0 0 0 0 0 0 0 0 0 0 0 0 0 0.08 0"/><feOffset in="SourceAlpha" result="shadowOffsetOuter2"/><feGaussianBlur in="shadowOffsetOuter2" result="shadowBlurOuter2" stdDeviation="4"/><feColorMatrix in="shadowBlurOuter2" result="shadowMatrixOuter2" values="0 0 0 0 0 0 0 0 0 0 0 0 0 0 0 0 0 0 0.08 0"/><feMerge><feMergeNode in="shadowMatrixOuter1"/><feMergeNode in="shadowMatrixOuter2"/></feMerge></filter><filter id="d" width="121.3%" height="122.1%" x="-10.7%" y="-8.8%" filterUnits="objectBoundingBox"><feOffset dy="16" in="SourceAlpha" result="shadowOffsetOuter1"/><feGaussianBlur in="shadowOffsetOuter1" result="shadowBlurOuter1" stdDeviation="8"/><feColorMatrix in="shadowBlurOuter1" result="shadowMatrixOuter1" values="0 0 0 0 0 0 0 0 0 0 0 0 0 0 0 0 0 0 0.08 0"/><feOffset in="SourceAlpha" result="shadowOffsetOuter2"/><feGaussianBlur in="shadowOffsetOuter2" result="shadowBlurOuter2" stdDeviation="8"/><feColorMatrix in="shadowBlurOuter2" result="shadowMatrixOuter2" values="0 0 0 0 0 0 0 0 0 0 0 0 0 0 0 0 0 0 0.08 0"/><feMerge><feMergeNode in="shadowMatrixOuter1"/><feMergeNode in="shadowMatrixOuter2"/></feMerge></filter><path id="a" d="M0 0h299v186H0z"/><path id="f" d="M27.54 51v-6h3.26l3.02 6h1.9l-3.2-6.16c.92-.213 1.617-.65 2.09-1.31.473-.66.71-1.503.71-2.53 0-1.28-.343-2.26-1.03-2.94-.687-.68-1.643-1.02-2.87-1.02h-5.56V51h1.68zm3.88-7.44h-3.88v-5.04h3.88c.667 0 1.183.173 1.55.52.367.347.55.84.55 1.48v1.04c0 .64-.183 1.133-.55 1.48-.367.347-.883.52-1.55.52zm10.66 7.68c.973 0 1.813-.217 2.52-.65.707-.433 1.227-1.003 1.56-1.71l-1.14-.82c-.267.573-.643 1.013-1.13 1.32-.487.307-1.057.46-1.71.46-.48 0-.91-.08-1.29-.24-.38-.16-.7-.38-.96-.66s-.46-.61-.6-.99a3.53 3.53 0 01-.21-1.23v-.48h7.42v-.76c0-.733-.103-1.407-.31-2.02a4.69 4.69 0 00-.89-1.59 4.11 4.11 0 00-1.4-1.05c-.547-.253-1.167-.38-1.86-.38-.707 0-1.343.127-1.91.38s-1.053.617-1.46 1.09a4.976 4.976 0 00-.94 1.71c-.22.667-.33 1.407-.33 2.22 0 .827.11 1.57.33 2.23.22.66.533 1.227.94 1.7a4.12 4.12 0 001.46 1.09c.567.253 1.203.38 1.91.38zm2.74-6.2h-5.7v-.14c0-.453.073-.87.22-1.25.147-.38.35-.71.61-.99s.57-.497.93-.65c.36-.153.76-.23 1.2-.23.827 0 1.49.277 1.99.83.5.553.75 1.29.75 2.21v.22zm7 6.2c.72 0 1.34-.16 1.86-.48.52-.32.893-.8 1.12-1.44h.1c.067.48.23.88.49 1.2.26.32.69.48 1.29.48h.9v-1.4H56.4v-5.68c0-1.093-.347-1.947-1.04-2.56-.693-.613-1.667-.92-2.92-.92-.933 0-1.707.197-2.32.59-.613.393-1.06.87-1.34 1.43l.96.9c.28-.467.63-.84 1.05-1.12.42-.28.943-.42 1.57-.42.827 0 1.44.193 1.84.58.4.387.6.947.6 1.68v1.02h-2.04c-1.507 0-2.617.26-3.33.78-.713.52-1.07 1.267-1.07 2.24 0 .96.303 1.72.91 2.28.607.56 1.457.84 2.55.84zm.26-1.36c-.627 0-1.123-.14-1.49-.42-.367-.28-.55-.673-.55-1.18v-.42c0-.507.21-.893.63-1.16.42-.267 1.09-.4 2.01-.4h2.12V48c0 .267-.067.513-.2.74-.133.227-.32.427-.56.6a2.7 2.7 0 01-.86.4c-.333.093-.7.14-1.1.14zM62.98 51v-1.4h-1.52V36.2h-1.6v13.14c0 .48.143.877.43 1.19.287.313.71.47 1.27.47h1.42z"/><rect id="e" width="300" height="362" x="0" y="0" rx="4"/></defs><g fill="none" fill-rule="evenodd" transform="translate(8 8)"><mask id="c" fill="#fff"><use xlink:href="#a"/></mask><g fill-rule="nonzero"><use fill="#000" filter="url(#b)" xlink:href="#a"/><use fill="#FFF" xlink:href="#a"/></g><g mask="url(#c)"><path fill="#FFF" fill-rule="nonzero" d="M-874 0H406v48H-874z"/><path fill="#F2F3F4" fill-rule="nonzero" d="M-874 47H406v1H-874z"/><path fill="#D6DADB" fill-rule="nonzero" d="M124 0h175v47H124z"/><path fill="#F2F3F4" fill-rule="nonzero" d="M123 8h1v32h-1z"/><path fill="#333" fill-rule="nonzero" d="M275 22.414l-5.293 5.293a1 1 0 01-1.414-1.414l6-6a1 1 0 011.414 0l6 6a1 1 0 01-1.414 1.414L275 22.414z"/><path fill="#4BB4B3" fill-rule="nonzero" d="M178.088 31.312v-1.536c1.067-.181 1.853-.57 2.36-1.168.507-.597.76-1.29.76-2.08 0-.821-.27-1.472-.808-1.952-.539-.48-1.373-.848-2.504-1.104v-2.656c.384.085.71.213.976.384.267.17.496.363.688.576l1.456-1.312c-.352-.405-.768-.728-1.248-.968s-1.04-.397-1.68-.472V17.52h-1.824v1.504c-1.035.117-1.821.443-2.36.976-.539.533-.808 1.221-.808 2.064 0 .779.261 1.43.784 1.952.523.523 1.387.907 2.592 1.152v2.88a3.532 3.532 0 01-1.232-.408 4.396 4.396 0 01-1.024-.792l-1.44 1.312c.405.448.885.821 1.44 1.12.555.299 1.237.485 2.048.56v1.472h1.824zm-1.616-8.16c-.405-.117-.701-.261-.888-.432-.187-.17-.28-.41-.28-.72s.093-.568.28-.776c.187-.208.483-.355.888-.44v2.368zm1.424 4.864v-2.528c.459.139.757.317.896.536.139.219.208.445.208.68 0 .31-.09.579-.272.808-.181.23-.459.397-.832.504zM191.16 30v-1.936h-2.368v-9.232h-3.68l-2.672 3.52 1.536 1.2 2.272-2.976h.144v7.488h-3.008V30h7.776zm5.12.192c1.461 0 2.544-.507 3.248-1.52.704-1.013 1.056-2.432 1.056-4.256 0-1.824-.352-3.243-1.056-4.256-.704-1.013-1.787-1.52-3.248-1.52-1.461 0-2.544.507-3.248 1.52-.704 1.013-1.056 2.432-1.056 4.256 0 1.824.352 3.243 1.056 4.256.704 1.013 1.787 1.52 3.248 1.52zm0-2.032c-.64 0-1.083-.235-1.328-.704-.245-.47-.368-1.13-.368-1.984V23.36c0-.853.123-1.515.368-1.984.245-.47.688-.704 1.328-.704.64 0 1.083.235 1.328.704.245.47.368 1.13.368 1.984v2.112c0 .853-.123 1.515-.368 1.984-.245.47-.688.704-1.328.704zm7.008 4.192a4.38 4.38 0 001.24-1.536 4.25 4.25 0 00.472-1.92v-.32c0-.373-.115-.68-.344-.92-.23-.24-.584-.36-1.064-.36-.48 0-.835.12-1.064.36-.23.24-.344.547-.344.92v.32c0 .31.085.579.256.808.17.23.443.376.816.44a3.827 3.827 0 01-.608 1.16 9.003 9.003 0 01-.96 1.048h1.6zm7.552-2.16c1.461 0 2.544-.507 3.248-1.52.704-1.013 1.056-2.432 1.056-4.256 0-1.824-.352-3.243-1.056-4.256-.704-1.013-1.787-1.52-3.248-1.52-1.461 0-2.544.507-3.248 1.52-.704 1.013-1.056 2.432-1.056 4.256 0 1.824.352 3.243 1.056 4.256.704 1.013 1.787 1.52 3.248 1.52zm0-2.032c-.64 0-1.083-.235-1.328-.704-.245-.47-.368-1.13-.368-1.984V23.36c0-.853.123-1.515.368-1.984.245-.47.688-.704 1.328-.704.64 0 1.083.235 1.328.704.245.47.368 1.13.368 1.984v2.112c0 .853-.123 1.515-.368 1.984-.245.47-.688.704-1.328.704zm9.6 2.032c1.461 0 2.544-.507 3.248-1.52.704-1.013 1.056-2.432 1.056-4.256 0-1.824-.352-3.243-1.056-4.256-.704-1.013-1.787-1.52-3.248-1.52-1.461 0-2.544.507-3.248 1.52-.704 1.013-1.056 2.432-1.056 4.256 0 1.824.352 3.243 1.056 4.256.704 1.013 1.787 1.52 3.248 1.52zm0-2.032c-.64 0-1.083-.235-1.328-.704-.245-.47-.368-1.13-.368-1.984V23.36c0-.853.123-1.515.368-1.984.245-.47.688-.704 1.328-.704.64 0 1.083.235 1.328.704.245.47.368 1.13.368 1.984v2.112c0 .853-.123 1.515-.368 1.984-.245.47-.688.704-1.328.704zm9.6 2.032c1.461 0 2.544-.507 3.248-1.52.704-1.013 1.056-2.432 1.056-4.256 0-1.824-.352-3.243-1.056-4.256-.704-1.013-1.787-1.52-3.248-1.52-1.461 0-2.544.507-3.248 1.52-.704 1.013-1.056 2.432-1.056 4.256 0 1.824.352 3.243 1.056 4.256.704 1.013 1.787 1.52 3.248 1.52zm0-2.032c-.64 0-1.083-.235-1.328-.704-.245-.47-.368-1.13-.368-1.984V23.36c0-.853.123-1.515.368-1.984.245-.47.688-.704 1.328-.704.64 0 1.083.235 1.328.704.245.47.368 1.13.368 1.984v2.112c0 .853-.123 1.515-.368 1.984-.245.47-.688.704-1.328.704zm7.28 2.016c.48 0 .835-.12 1.064-.36.23-.24.344-.547.344-.92v-.32c0-.373-.115-.68-.344-.92-.23-.24-.584-.36-1.064-.36-.48 0-.835.12-1.064.36-.23.24-.344.547-.344.92v.32c0 .373.115.68.344.92.23.24.584.36 1.064.36zm7.28.016c1.461 0 2.544-.507 3.248-1.52.704-1.013 1.056-2.432 1.056-4.256 0-1.824-.352-3.243-1.056-4.256-.704-1.013-1.787-1.52-3.248-1.52-1.461 0-2.544.507-3.248 1.52-.704 1.013-1.056 2.432-1.056 4.256 0 1.824.352 3.243 1.056 4.256.704 1.013 1.787 1.52 3.248 1.52zm0-2.032c-.64 0-1.083-.235-1.328-.704-.245-.47-.368-1.13-.368-1.984V23.36c0-.853.123-1.515.368-1.984.245-.47.688-.704 1.328-.704.64 0 1.083.235 1.328.704.245.47.368 1.13.368 1.984v2.112c0 .853-.123 1.515-.368 1.984-.245.47-.688.704-1.328.704zm9.6 2.032c1.461 0 2.544-.507 3.248-1.52.704-1.013 1.056-2.432 1.056-4.256 0-1.824-.352-3.243-1.056-4.256-.704-1.013-1.787-1.52-3.248-1.52-1.461 0-2.544.507-3.248 1.52-.704 1.013-1.056 2.432-1.056 4.256 0 1.824.352 3.243 1.056 4.256.704 1.013 1.787 1.52 3.248 1.52zm0-2.032c-.64 0-1.083-.235-1.328-.704-.245-.47-.368-1.13-.368-1.984V23.36c0-.853.123-1.515.368-1.984.245-.47.688-.704 1.328-.704.64 0 1.083.235 1.328.704.245.47.368 1.13.368 1.984v2.112c0 .853-.123 1.515-.368 1.984-.245.47-.688.704-1.328.704z"/><path fill="#85ACB0" d="M164 24c0 6.627-5.373 12-12 12s-12-5.373-12-12 5.373-12 12-12 12 5.373 12 12"/><path fill="#FFF" fill-rule="nonzero" d="M153.527 16c4.061 0 7.473 3.796 7.473 8 0 4.204-3.412 8-7.473 8H147a1 1 0 010-2h1v-3h-1a1 1 0 01-.993-.883L146 26a1 1 0 011-1h1v-2h-1a1 1 0 01-.993-.883L146 22a1 1 0 011-1h1v-3h-1a1 1 0 01-.993-.883L146 17a1 1 0 011-1zm0 2H150v3h3a1 1 0 01.993.883L154 22a1 1 0 01-1 1h-3v2h3a1 1 0 01.993.883L154 26a1 1 0 01-1 1h-3v3h3.527c2.839 0 5.353-2.725 5.469-5.781L159 24c0-3.144-2.567-6-5.473-6z"/><g fill-rule="nonzero"><path fill="#FFF" d="M67 0h48v47H67z"/><path fill="#333" d="M91 14c5.523 0 10 4.477 10 10a9.983 9.983 0 01-3.804 7.85L97 32a9.954 9.954 0 01-6 2c-5.523 0-10-4.477-10-10s4.477-10 10-10zm2.5 11.5h-5a2.501 2.501 0 00-2.495 2.336L86 28v3.484c1.43.958 3.15 1.516 5 1.516s3.57-.559 5.001-1.516L96 28a2.5 2.5 0 00-2.5-2.5zM91 15a9 9 0 00-6 15.709V28a3.5 3.5 0 013.308-3.495l.192-.005h5a3.5 3.5 0 013.495 3.308L97 28v2.708A9 9 0 0091 15zm0 2a3 3 0 110 6 3 3 0 010-6zm0 1a2 2 0 10-.001 3.999A2 2 0 0091 18z"/></g><g fill-rule="nonzero"><path fill="#FFF" d="M19 0h48v47H19z"/><path fill="#333" d="M42 32c0 .552.5 1 1 1 .464 0 .929-.386.993-.883L44 32h-2zm1-17.5c-.278 0-.5.222-.5.5v1.977l-.788.17A5.995 5.995 0 0037 23v6.414L35.414 31l15.169-.003L49 29.414V23a5.994 5.994 0 00-4.712-5.853l-.788-.17V15c0-.278-.222-.5-.5-.5zM43 34c-1.014 0-1.915-.824-1.994-1.852L41 32h-5.59c-.89 0-1.33-1.08-.7-1.71L36 29v-6c0-3.35 2.36-6.15 5.5-6.83V15c0-.83.67-1.5 1.5-1.5s1.5.67 1.5 1.5v1.17c3.14.68 5.5 3.48 5.5 6.83v6l1.29 1.29c.63.63.18 1.71-.71 1.71H45c0 1.095-.937 2-2 2z"/></g></g><g mask="url(#c)"><g fill-rule="nonzero" transform="translate(0 56)"><use fill="#000" filter="url(#d)" xlink:href="#e"/><use fill="#FFF" xlink:href="#e"/></g><path fill="#F2F3F4" fill-rule="nonzero" d="M0 192h300v4H0zM0 94h150v2H0z"/><text fill="#333" font-family="IBMPlexSans, IBM Plex Sans" font-size="14" transform="translate(0 56)"><tspan x="61.035" y="24">Real</tspan></text><g fill-rule="nonzero"><path fill="#FF444F" d="M150 94h150v2H150z"/><path fill="#333" d="M210.741 81c.644 0 1.232-.103 1.764-.308a3.55 3.55 0 001.358-.917c.373-.406.663-.915.868-1.526.205-.611.308-1.323.308-2.135 0-.812-.103-1.524-.308-2.135-.205-.611-.495-1.12-.868-1.526a3.55 3.55 0 00-1.358-.917 4.869 4.869 0 00-1.764-.308h-3.682V81h3.682zm0-1.89h-1.554v-5.992h1.554c.635 0 1.134.177 1.498.532.364.355.546.924.546 1.708v1.512c0 .784-.182 1.353-.546 1.708-.364.355-.863.532-1.498.532zm9.03 2.058c.672 0 1.272-.107 1.799-.322.527-.215.954-.513 1.281-.896l-1.036-1.288c-.233.243-.485.45-.756.623-.27.173-.62.259-1.05.259-.56 0-.97-.142-1.232-.427-.261-.285-.392-.67-.392-1.155v-.112h4.718v-.616c0-.495-.063-.968-.189-1.421a3.328 3.328 0 00-.602-1.197 2.955 2.955 0 00-1.064-.826c-.434-.205-.954-.308-1.561-.308-.55 0-1.04.091-1.47.273-.43.182-.791.441-1.085.777-.294.336-.516.74-.665 1.211-.15.471-.224.996-.224 1.575 0 .588.077 1.12.231 1.596.154.476.383.88.686 1.211.303.331.674.588 1.113.77.439.182.938.273 1.498.273zm1.19-4.536h-2.576v-.112c0-.457.119-.824.357-1.099s.567-.413.987-.413c.42 0 .73.138.931.413.2.275.301.637.301 1.085v.126zM226.645 81v-4.76a1.007 1.007 0 01.385-.812c.117-.093.247-.161.392-.203.145-.042.292-.063.441-.063.672 0 1.008.467 1.008 1.4V81h2.072v-4.76c0-.364.126-.635.378-.812.252-.177.532-.266.84-.266.672 0 1.008.467 1.008 1.4V81h2.072v-4.606c0-.933-.189-1.652-.567-2.156-.378-.504-.922-.756-1.631-.756-.28 0-.541.04-.784.119-.243.08-.462.184-.658.315-.196.13-.362.287-.497.469s-.236.376-.301.581h-.042c-.159-.485-.415-.854-.77-1.106-.355-.252-.784-.378-1.288-.378-.55 0-.985.138-1.302.413a2.247 2.247 0 00-.672 1.001h-.084V73.65h-2.072V81h2.072zm13.426.168a3.74 3.74 0 001.449-.266 2.885 2.885 0 001.078-.77c.294-.336.52-.742.679-1.218a5.019 5.019 0 00.238-1.596c0-.588-.08-1.12-.238-1.596a3.437 3.437 0 00-.679-1.211 2.925 2.925 0 00-1.078-.763c-.425-.177-.908-.266-1.449-.266s-1.024.089-1.449.266a2.925 2.925 0 00-1.078.763c-.294.331-.52.735-.679 1.211a5.019 5.019 0 00-.238 1.596c0 .588.08 1.12.238 1.596.159.476.385.882.679 1.218.294.336.653.593 1.078.77a3.74 3.74 0 001.449.266zm0-1.638c-.41 0-.728-.126-.952-.378-.224-.252-.336-.611-.336-1.078v-1.498c0-.467.112-.826.336-1.078.224-.252.541-.378.952-.378.41 0 .728.126.952.378.224.252.336.611.336 1.078v1.498c0 .467-.112.826-.336 1.078-.224.252-.541.378-.952.378z"/></g><path d="M16 96h268v40H16z"/><path fill="#333" fill-rule="nonzero" d="M29.44 122c.736 0 1.408-.117 2.016-.352a4.07 4.07 0 001.552-1.048c.427-.464.757-1.045.992-1.744.235-.699.352-1.512.352-2.44 0-.928-.117-1.741-.352-2.44-.235-.699-.565-1.28-.992-1.744a4.07 4.07 0 00-1.552-1.048 5.549 5.549 0 00-2.016-.352h-4.208V122h4.208zm0-2.16h-1.776v-6.848h1.776c.725 0 1.296.203 1.712.608.416.405.624 1.056.624 1.952v1.728c0 .896-.208 1.547-.624 1.952-.416.405-.987.608-1.712.608zm10.32 2.352c.768 0 1.453-.123 2.056-.368s1.09-.587 1.464-1.024l-1.184-1.472a4.74 4.74 0 01-.864.712c-.31.197-.71.296-1.2.296-.64 0-1.11-.163-1.408-.488-.299-.325-.448-.765-.448-1.32v-.128h5.392v-.704c0-.565-.072-1.107-.216-1.624a3.803 3.803 0 00-.688-1.368 3.36 3.36 0 00-1.216-.944c-.496-.235-1.09-.352-1.784-.352-.63 0-1.19.104-1.68.312-.49.208-.904.504-1.24.888-.336.384-.59.845-.76 1.384a5.966 5.966 0 00-.256 1.8c0 .672.088 1.28.264 1.824.176.544.437 1.005.784 1.384.347.379.77.672 1.272.88.501.208 1.072.312 1.712.312zm1.36-5.184h-2.944v-.128c0-.523.136-.941.408-1.256.272-.315.648-.472 1.128-.472.48 0 .835.157 1.064.472.23.315.344.728.344 1.24v.144zM47.616 122v-4.912c0-.49.168-.827.504-1.008.336-.181.85-.272 1.544-.272h.592V113.6h-.416c-.33 0-.619.05-.864.152a1.977 1.977 0 00-.632.408c-.176.17-.317.365-.424.584a2.61 2.61 0 00-.224.68h-.08V113.6h-2.368v8.4h2.368zm5.28-9.296c.48 0 .83-.11 1.048-.328.219-.219.328-.499.328-.84v-.352c0-.341-.11-.621-.328-.84-.219-.219-.568-.328-1.048-.328-.48 0-.83.11-1.048.328-.219.219-.328.499-.328.84v.352c0 .341.11.621.328.84.219.219.568.328 1.048.328zM54.08 122v-8.4h-2.368v8.4h2.368zm6.816 0l2.752-8.4h-2.24l-1.008 3.392-.784 3.04h-.128l-.784-3.04-1.04-3.392h-2.336l2.752 8.4h2.816zm9.456 0l.8-2.656h3.728l.8 2.656h2.528l-3.632-11.168h-3.008L67.888 122h2.464zm3.936-4.72h-2.56l1.232-4.24h.08l1.248 4.24zm8.736 4.912c.832 0 1.539-.187 2.12-.56.581-.373 1.01-.96 1.288-1.76l-1.84-.8a2.007 2.007 0 01-.552.904c-.25.23-.59.344-1.016.344-.48 0-.843-.155-1.088-.464-.245-.31-.368-.73-.368-1.264v-1.568c0-.533.123-.957.368-1.272.245-.315.608-.472 1.088-.472.416 0 .741.112.976.336.235.224.39.496.464.816l1.92-.832c-.245-.693-.653-1.232-1.224-1.616-.57-.384-1.283-.576-2.136-.576-.63 0-1.19.101-1.68.304-.49.203-.901.496-1.232.88-.33.384-.581.845-.752 1.384a6.022 6.022 0 00-.256 1.816c0 .672.085 1.28.256 1.824.17.544.421 1.005.752 1.384.33.379.741.672 1.232.88.49.208 1.05.312 1.68.312zm8.272 0c.832 0 1.539-.187 2.12-.56.581-.373 1.01-.96 1.288-1.76l-1.84-.8a2.007 2.007 0 01-.552.904c-.25.23-.59.344-1.016.344-.48 0-.843-.155-1.088-.464-.245-.31-.368-.73-.368-1.264v-1.568c0-.533.123-.957.368-1.272.245-.315.608-.472 1.088-.472.416 0 .741.112.976.336.235.224.39.496.464.816l1.92-.832c-.245-.693-.653-1.232-1.224-1.616-.57-.384-1.283-.576-2.136-.576-.63 0-1.19.101-1.68.304-.49.203-.901.496-1.232.88-.33.384-.581.845-.752 1.384a6.022 6.022 0 00-.256 1.816c0 .672.085 1.28.256 1.824.17.544.421 1.005.752 1.384.33.379.741.672 1.232.88.49.208 1.05.312 1.68.312zm8.288 0c.619 0 1.17-.101 1.656-.304a3.31 3.31 0 001.232-.88c.336-.384.595-.848.776-1.392a5.756 5.756 0 00.272-1.824c0-.672-.09-1.28-.272-1.824-.181-.544-.44-1.005-.776-1.384s-.747-.67-1.232-.872c-.485-.203-1.037-.304-1.656-.304s-1.17.101-1.656.304a3.348 3.348 0 00-1.232.872c-.336.379-.595.84-.776 1.384a5.756 5.756 0 00-.272 1.824c0 .672.09 1.28.272 1.824.181.544.44 1.008.776 1.392a3.31 3.31 0 001.232.88c.485.203 1.037.304 1.656.304zm0-1.872c-.47 0-.832-.144-1.088-.432-.256-.288-.384-.699-.384-1.232v-1.712c0-.533.128-.944.384-1.232.256-.288.619-.432 1.088-.432.47 0 .832.144 1.088.432.256.288.384.699.384 1.232v1.712c0 .533-.128.944-.384 1.232-.256.288-.619.432-1.088.432zm8.144 1.872c.341 0 .643-.043.904-.128s.488-.203.68-.352c.192-.15.35-.32.472-.512.123-.192.221-.395.296-.608h.08V122h2.368v-8.4h-2.368v5.456c0 .203-.043.379-.128.528-.085.15-.197.275-.336.376a1.551 1.551 0 01-.48.232c-.181.053-.363.08-.544.08-.437 0-.747-.139-.928-.416-.181-.277-.272-.672-.272-1.184V113.6h-2.368v5.28c0 1.067.221 1.885.664 2.456.443.57 1.096.856 1.96.856zm9.376-.192v-5.44c0-.203.043-.381.128-.536.085-.155.2-.285.344-.392a1.42 1.42 0 01.488-.232c.181-.048.368-.072.56-.072.437 0 .741.13.912.392.17.261.256.664.256 1.208V122h2.368v-5.264c0-1.067-.221-1.888-.664-2.464-.443-.576-1.096-.864-1.96-.864-.661 0-1.179.16-1.552.48-.373.32-.635.699-.784 1.136h-.096V113.6h-2.368v8.4h2.368zm11.52 0v-1.84h-1.536v-4.72h1.664v-1.84h-1.664v-2.272h-2.128v1.376c0 .288-.059.51-.176.664-.117.155-.336.232-.656.232h-.592v1.84h1.184v4.112c0 .8.21 1.408.632 1.824.421.416 1.043.624 1.864.624h1.408zm4.624.192a4.96 4.96 0 001.48-.208 3.464 3.464 0 001.136-.584c.315-.25.557-.547.728-.888.17-.341.256-.715.256-1.12 0-1.44-.923-2.283-2.768-2.528l-.944-.128c-.341-.053-.573-.141-.696-.264-.123-.123-.184-.296-.184-.52 0-.213.085-.384.256-.512.17-.128.459-.192.864-.192.352 0 .696.077 1.032.232.336.155.637.365.904.632l1.36-1.392a7.512 7.512 0 00-.648-.552 3.457 3.457 0 00-.72-.416 4.05 4.05 0 00-.896-.256 6.773 6.773 0 00-1.16-.088c-.501 0-.952.067-1.352.2-.4.133-.741.32-1.024.56-.283.24-.501.528-.656.864a2.624 2.624 0 00-.232 1.112c0 1.493.944 2.357 2.832 2.592l.912.112c.565.075.848.31.848.704 0 .245-.09.44-.272.584-.181.144-.507.216-.976.216a2.59 2.59 0 01-1.232-.288 3.61 3.61 0 01-.992-.784l-1.392 1.408c.437.48.933.85 1.488 1.112.555.261 1.237.392 2.048.392zm139.916-3.322a.5.5 0 10.672-.74l-5.5-5a.5.5 0 00-.672 0l-5.5 5a.499.499 0 10.672.74l5.164-4.694 5.164 4.694z"/><g transform="translate(0 136)"><rect width="284" height="40" x="8" fill="#D6DADB" fill-rule="nonzero" rx="4"/><path fill="#333" fill-rule="nonzero" d="M205.614 26.148V25c.896-.084 1.603-.371 2.121-.861s.777-1.136.777-1.939c0-.737-.221-1.314-.665-1.729-.443-.415-1.15-.73-2.12-.945l-.127-.028v-3.276c.448.065.836.203 1.162.413.327.21.607.478.84.805l.854-.644a3.816 3.816 0 00-1.197-1.099c-.462-.266-1.01-.427-1.645-.483V14.08h-.868v1.148c-.41.037-.784.119-1.12.245a2.751 2.751 0 00-.868.511 2.303 2.303 0 00-.567.763 2.374 2.374 0 00-.203 1.001c0 .728.222 1.3.665 1.715.444.415 1.146.73 2.107.945v3.598a2.965 2.965 0 01-1.253-.455 4.001 4.001 0 01-.987-.959l-.826.742a4.58 4.58 0 001.253 1.141c.49.303 1.09.478 1.8.525v1.148h.867zm-.854-6.832c-.56-.15-.977-.343-1.253-.581-.275-.238-.413-.595-.413-1.071 0-.41.152-.737.455-.98.304-.243.707-.397 1.211-.462v3.094zm.84 4.69v-3.444c.654.159 1.118.364 1.393.616.276.252.413.616.413 1.092 0 .476-.16.866-.483 1.169-.322.303-.763.492-1.323.567zm11.396.994v-1.036h-2.52v-8.736h-1.834l-2.59 2.422.686.742 2.464-2.296h.098v7.868h-2.73V25h6.426zm4.942.168c1.167 0 2.019-.443 2.555-1.33.537-.887.805-2.128.805-3.724s-.268-2.837-.805-3.724c-.536-.887-1.388-1.33-2.555-1.33-1.166 0-2.018.443-2.555 1.33-.536.887-.805 2.128-.805 3.724s.269 2.837.805 3.724c.537.887 1.389 1.33 2.555 1.33zm0-1.022c-.382 0-.709-.08-.98-.238a1.83 1.83 0 01-.658-.672 3.341 3.341 0 01-.37-1.022 6.526 6.526 0 01-.12-1.302v-1.596c0-.476.04-.91.12-1.302.079-.392.202-.733.37-1.022.168-.29.388-.513.658-.672.271-.159.598-.238.98-.238.383 0 .71.08.98.238.271.159.49.383.658.672.168.29.292.63.371 1.022.08.392.12.826.12 1.302v1.596c0 .476-.04.91-.12 1.302a3.358 3.358 0 01-.37 1.022c-.169.29-.388.513-.659.672-.27.159-.597.238-.98.238zm5.684 2.716c.402-.345.714-.749.938-1.211.224-.462.336-.884.336-1.267v-.196c0-.243-.067-.441-.203-.595-.135-.154-.352-.231-.65-.231-.3 0-.516.077-.652.231a.87.87 0 00-.203.595v.196c0 .187.045.345.133.476.09.13.227.22.413.266a2.734 2.734 0 01-.37.889 6.25 6.25 0 01-.68.847h.938zm6.524-1.694c1.167 0 2.019-.443 2.555-1.33.537-.887.805-2.128.805-3.724s-.268-2.837-.805-3.724c-.536-.887-1.388-1.33-2.555-1.33-1.166 0-2.018.443-2.555 1.33-.536.887-.805 2.128-.805 3.724s.269 2.837.805 3.724c.537.887 1.389 1.33 2.555 1.33zm0-1.022c-.382 0-.709-.08-.98-.238a1.83 1.83 0 01-.658-.672 3.341 3.341 0 01-.37-1.022 6.526 6.526 0 01-.12-1.302v-1.596c0-.476.04-.91.12-1.302.079-.392.202-.733.37-1.022.168-.29.388-.513.658-.672.271-.159.598-.238.98-.238.383 0 .71.08.98.238.271.159.49.383.658.672.168.29.292.63.371 1.022.08.392.12.826.12 1.302v1.596c0 .476-.04.91-.12 1.302a3.358 3.358 0 01-.37 1.022c-.169.29-.388.513-.659.672-.27.159-.597.238-.98.238zm8.4 1.022c1.167 0 2.019-.443 2.555-1.33.537-.887.805-2.128.805-3.724s-.268-2.837-.805-3.724c-.536-.887-1.388-1.33-2.555-1.33-1.166 0-2.018.443-2.555 1.33-.536.887-.805 2.128-.805 3.724s.269 2.837.805 3.724c.537.887 1.389 1.33 2.555 1.33zm0-1.022c-.382 0-.709-.08-.98-.238a1.83 1.83 0 01-.658-.672 3.341 3.341 0 01-.37-1.022 6.526 6.526 0 01-.12-1.302v-1.596c0-.476.04-.91.12-1.302.079-.392.202-.733.37-1.022.168-.29.388-.513.658-.672.271-.159.598-.238.98-.238.383 0 .71.08.98.238.271.159.49.383.658.672.168.29.292.63.371 1.022.08.392.12.826.12 1.302v1.596c0 .476-.04.91-.12 1.302a3.358 3.358 0 01-.37 1.022c-.169.29-.388.513-.659.672-.27.159-.597.238-.98.238zm8.4 1.022c1.167 0 2.019-.443 2.555-1.33.537-.887.805-2.128.805-3.724s-.268-2.837-.805-3.724c-.536-.887-1.388-1.33-2.555-1.33-1.166 0-2.018.443-2.555 1.33-.536.887-.805 2.128-.805 3.724s.269 2.837.805 3.724c.537.887 1.389 1.33 2.555 1.33zm0-1.022c-.382 0-.709-.08-.98-.238a1.83 1.83 0 01-.658-.672 3.341 3.341 0 01-.37-1.022 6.526 6.526 0 01-.12-1.302v-1.596c0-.476.04-.91.12-1.302.079-.392.202-.733.37-1.022.168-.29.388-.513.658-.672.271-.159.598-.238.98-.238.383 0 .71.08.98.238.271.159.49.383.658.672.168.29.292.63.371 1.022.08.392.12.826.12 1.302v1.596c0 .476-.04.91-.12 1.302a3.358 3.358 0 01-.37 1.022c-.169.29-.388.513-.659.672-.27.159-.597.238-.98.238zm6.104 1.022c.3 0 .516-.075.651-.224.136-.15.203-.345.203-.588v-.182c0-.243-.067-.439-.203-.588-.135-.15-.352-.224-.65-.224-.3 0-.516.075-.652.224-.135.15-.203.345-.203.588v.182c0 .243.068.439.203.588.136.15.353.224.651.224zm6.104 0c1.167 0 2.019-.443 2.555-1.33.537-.887.805-2.128.805-3.724s-.268-2.837-.805-3.724c-.536-.887-1.388-1.33-2.555-1.33-1.166 0-2.018.443-2.555 1.33-.536.887-.805 2.128-.805 3.724s.269 2.837.805 3.724c.537.887 1.389 1.33 2.555 1.33zm0-1.022c-.382 0-.709-.08-.98-.238a1.83 1.83 0 01-.658-.672 3.341 3.341 0 01-.37-1.022 6.526 6.526 0 01-.12-1.302v-1.596c0-.476.04-.91.12-1.302.079-.392.202-.733.37-1.022.168-.29.388-.513.658-.672.271-.159.598-.238.98-.238.383 0 .71.08.98.238.271.159.49.383.658.672.168.29.292.63.371 1.022.08.392.12.826.12 1.302v1.596c0 .476-.04.91-.12 1.302a3.358 3.358 0 01-.37 1.022c-.169.29-.388.513-.659.672-.27.159-.597.238-.98.238zm8.4 1.022c1.167 0 2.019-.443 2.555-1.33.537-.887.805-2.128.805-3.724s-.268-2.837-.805-3.724c-.536-.887-1.388-1.33-2.555-1.33-1.166 0-2.018.443-2.555 1.33-.536.887-.805 2.128-.805 3.724s.269 2.837.805 3.724c.537.887 1.389 1.33 2.555 1.33zm0-1.022c-.382 0-.709-.08-.98-.238a1.83 1.83 0 01-.658-.672 3.341 3.341 0 01-.37-1.022 6.526 6.526 0 01-.12-1.302v-1.596c0-.476.04-.91.12-1.302.079-.392.202-.733.37-1.022.168-.29.388-.513.658-.672.271-.159.598-.238.98-.238.383 0 .71.08.98.238.271.159.49.383.658.672.168.29.292.63.371 1.022.08.392.12.826.12 1.302v1.596c0 .476-.04.91-.12 1.302a3.358 3.358 0 01-.37 1.022c-.169.29-.388.513-.659.672-.27.159-.597.238-.98.238zM59.54 34l2.35-6.98h-.87l-1.16 3.52-.79 2.62h-.05l-.77-2.62-1.15-3.52h-.9L58.52 34h1.02zm4.32 0v-3h1.63L67 34h.95l-1.6-3.08c.46-.107.808-.325 1.045-.655.237-.33.355-.752.355-1.265 0-.64-.172-1.13-.515-1.47-.343-.34-.822-.51-1.435-.51h-2.78V34h.84zm1.94-3.72h-1.94v-2.52h1.94c.333 0 .592.087.775.26.183.173.275.42.275.74v.52c0 .32-.092.567-.275.74-.183.173-.442.26-.775.26zM71.77 34v-6.24h2.22v-.74h-5.28v.74h2.22V34h.84zm5.83.12c.587 0 1.087-.142 1.5-.425a2.72 2.72 0 00.95-1.165l-.67-.42c-.14.38-.36.685-.66.915-.3.23-.673.345-1.12.345-.607 0-1.077-.203-1.41-.61-.333-.407-.5-.97-.5-1.69v-1.04c0-.36.043-.685.13-.975.087-.29.212-.54.375-.75a1.65 1.65 0 01.6-.485c.237-.113.505-.17.805-.17.433 0 .793.108 1.08.325.287.217.5.505.64.865l.68-.41c-.22-.487-.528-.863-.925-1.13-.397-.267-.888-.4-1.475-.4-.887 0-1.577.315-2.07.945-.493.63-.74 1.532-.74 2.705s.247 2.062.74 2.665c.493.603 1.183.905 2.07.905zm8.29-.12v-.74h-1.8v-6.24h-1.31l-1.85 1.73.49.53 1.76-1.64h.07v5.62H81.3V34h4.59zm5.86 0v-.74h-3.67l1.88-1.69c.22-.2.425-.4.615-.6.19-.2.352-.405.485-.615.133-.21.238-.432.315-.665.077-.233.115-.487.115-.76 0-.3-.048-.573-.145-.82-.097-.247-.235-.46-.415-.64s-.403-.32-.67-.42a2.58 2.58 0 00-.91-.15c-.34 0-.635.047-.885.14-.25.093-.463.217-.64.37s-.323.328-.44.525a2.974 2.974 0 00-.275.605l.75.29c.047-.167.108-.322.185-.465.077-.143.173-.268.29-.375.117-.107.255-.19.415-.25.16-.06.347-.09.56-.09.433 0 .757.12.97.36.213.24.32.553.32.94v.12c0 .34-.11.678-.33 1.015-.22.337-.493.655-.82.955l-2.28 2.1V34h4.58zm3.35.12c.353 0 .677-.05.97-.15.293-.1.543-.238.75-.415.207-.177.367-.39.48-.64.113-.25.17-.525.17-.825 0-.26-.042-.492-.125-.695a1.64 1.64 0 00-.8-.87A2.223 2.223 0 0096 30.33v-.04c.187-.047.362-.117.525-.21a1.71 1.71 0 00.425-.34c.12-.133.215-.29.285-.47.07-.18.105-.383.105-.61 0-.28-.055-.53-.165-.75-.11-.22-.26-.405-.45-.555a1.986 1.986 0 00-.675-.34 2.91 2.91 0 00-.83-.115c-.28 0-.53.033-.75.1-.22.067-.413.153-.58.26a2.106 2.106 0 00-.435.365 2.971 2.971 0 00-.315.415l.62.48c.147-.267.333-.478.56-.635.227-.157.52-.235.88-.235.373 0 .675.092.905.275.23.183.345.458.345.825v.07c0 .34-.118.618-.355.835-.237.217-.592.325-1.065.325h-.76v.73h.82c.493 0 .867.112 1.12.335.253.223.38.542.38.955v.08c0 .413-.127.732-.38.955-.253.223-.627.335-1.12.335-.213 0-.4-.022-.56-.065a1.56 1.56 0 01-.775-.475 2.598 2.598 0 01-.285-.38l-.63.48c.107.153.228.3.365.44a2.416 2.416 0 001.095.65c.233.067.5.1.8.1zm7.87-.12v-1.37h1.01v-.7h-1.01v-4.91h-1.25l-2.92 4.87v.74h3.37V34h.8zm-.8-2.07h-2.58l2.53-4.26h.05v4.26zm5.2 2.19c.367 0 .695-.057.985-.17.29-.113.537-.272.74-.475.203-.203.358-.447.465-.73.107-.283.16-.595.16-.935 0-.34-.052-.643-.155-.91a1.872 1.872 0 00-1.095-1.1 2.24 2.24 0 00-.83-.15c-.367 0-.655.07-.865.21-.21.14-.398.327-.565.56h-.07l.2-2.66h3.06v-.74h-3.74l-.25 3.84.71.1a2.49 2.49 0 01.495-.415c.183-.117.435-.175.755-.175.48 0 .843.127 1.09.38.247.253.37.61.37 1.07v.1c0 .46-.123.817-.37 1.07-.247.253-.61.38-1.09.38-.213 0-.397-.022-.55-.065a1.367 1.367 0 01-.405-.185 1.648 1.648 0 01-.32-.29 3.067 3.067 0 01-.275-.38l-.63.48c.107.153.225.3.355.44a2.285 2.285 0 001.05.65c.223.067.482.1.775.1zm6.06 0c.347 0 .663-.057.95-.17.287-.113.532-.272.735-.475a2.09 2.09 0 00.47-.73c.11-.283.165-.595.165-.935 0-.327-.052-.623-.155-.89a2.01 2.01 0 00-.425-.68 1.815 1.815 0 00-.65-.43 2.24 2.24 0 00-.83-.15c-.427 0-.772.095-1.035.285-.263.19-.478.428-.645.715l-.05-.02a4.892 4.892 0 01.93-2.005c.22-.283.477-.555.77-.815.293-.26.627-.527 1-.8h-1.08c-.28.18-.567.415-.86.705-.293.29-.562.623-.805 1s-.442.793-.595 1.25c-.153.457-.23.945-.23 1.465 0 .413.053.787.16 1.12.107.333.262.615.465.845.203.23.45.407.74.53.29.123.615.185.975.185zm-.01-.73c-.46 0-.818-.127-1.075-.38s-.385-.617-.385-1.09v-.08c0-.473.128-.837.385-1.09.257-.253.615-.38 1.075-.38.46 0 .818.127 1.075.38s.385.617.385 1.09v.08c0 .473-.128.837-.385 1.09-.257.253-.615.38-1.075.38zm5.65.61l2.62-6.24v-.74h-4.58v2.02h.75v-1.3h2.98L118.17 34h.9zm6.35.12c.4 0 .75-.052 1.05-.155a2.2 2.2 0 00.755-.425c.203-.18.357-.393.46-.64.103-.247.155-.513.155-.8 0-.48-.13-.86-.39-1.14a2.1 2.1 0 00-1.02-.59v-.08c.367-.127.658-.332.875-.615.217-.283.325-.625.325-1.025 0-.533-.193-.958-.58-1.275-.387-.317-.93-.475-1.63-.475-.7 0-1.243.158-1.63.475-.387.317-.58.742-.58 1.275 0 .4.108.742.325 1.025.217.283.508.488.875.615v.08a2.1 2.1 0 00-1.02.59c-.26.28-.39.66-.39 1.14 0 .287.052.553.155.8.103.247.257.46.46.64s.455.322.755.425c.3.103.65.155 1.05.155zm0-4.14c-.44 0-.773-.093-1-.28-.227-.187-.34-.46-.34-.82v-.15c0-.36.113-.633.34-.82.227-.187.56-.28 1-.28.44 0 .773.093 1 .28.227.187.34.46.34.82v.15c0 .36-.113.633-.34.82-.227.187-.56.28-1 .28zm0 3.41c-.487 0-.863-.108-1.13-.325-.267-.217-.4-.525-.4-.925v-.21c0-.4.133-.708.4-.925.267-.217.643-.325 1.13-.325.487 0 .863.108 1.13.325.267.217.4.525.4.925v.21c0 .4-.133.708-.4.925-.267.217-.643.325-1.13.325zM60.76 18c.644 0 1.232-.103 1.764-.308a3.55 3.55 0 001.358-.917c.373-.406.663-.915.868-1.526.205-.611.308-1.323.308-2.135 0-.812-.103-1.524-.308-2.135-.205-.611-.495-1.12-.868-1.526a3.55 3.55 0 00-1.358-.917 4.869 4.869 0 00-1.764-.308h-3.682V18h3.682zm0-1.89h-1.554v-5.992h1.554c.635 0 1.134.177 1.498.532.364.355.546.924.546 1.708v1.512c0 .784-.182 1.353-.546 1.708-.364.355-.863.532-1.498.532zm9.03 2.058c.672 0 1.272-.107 1.799-.322.527-.215.954-.513 1.281-.896l-1.036-1.288c-.233.243-.485.45-.756.623-.27.173-.62.259-1.05.259-.56 0-.97-.142-1.232-.427-.261-.285-.392-.67-.392-1.155v-.112h4.718v-.616c0-.495-.063-.968-.189-1.421a3.328 3.328 0 00-.602-1.197 2.955 2.955 0 00-1.064-.826c-.434-.205-.954-.308-1.561-.308-.55 0-1.04.091-1.47.273-.43.182-.791.441-1.085.777-.294.336-.516.74-.665 1.211-.15.471-.224.996-.224 1.575 0 .588.077 1.12.231 1.596.154.476.383.88.686 1.211.303.331.674.588 1.113.77.439.182.938.273 1.498.273zm1.19-4.536h-2.576v-.112c0-.457.119-.824.357-1.099s.567-.413.987-.413c.42 0 .73.138.931.413.2.275.301.637.301 1.085v.126zM76.664 18v-4.76a1.007 1.007 0 01.385-.812c.117-.093.247-.161.392-.203.145-.042.292-.063.441-.063.672 0 1.008.467 1.008 1.4V18h2.072v-4.76c0-.364.126-.635.378-.812.252-.177.532-.266.84-.266.672 0 1.008.467 1.008 1.4V18h2.072v-4.606c0-.933-.189-1.652-.567-2.156-.378-.504-.922-.756-1.631-.756-.28 0-.541.04-.784.119-.243.08-.462.184-.658.315-.196.13-.362.287-.497.469s-.236.376-.301.581h-.042c-.159-.485-.415-.854-.77-1.106-.355-.252-.784-.378-1.288-.378-.55 0-.985.138-1.302.413a2.247 2.247 0 00-.672 1.001h-.084V10.65h-2.072V18h2.072zm13.426.168a3.74 3.74 0 001.449-.266 2.885 2.885 0 001.078-.77c.294-.336.52-.742.679-1.218a5.019 5.019 0 00.238-1.596c0-.588-.08-1.12-.238-1.596a3.437 3.437 0 00-.679-1.211 2.925 2.925 0 00-1.078-.763c-.425-.177-.908-.266-1.449-.266s-1.024.089-1.449.266a2.925 2.925 0 00-1.078.763c-.294.331-.52.735-.679 1.211a5.019 5.019 0 00-.238 1.596c0 .588.08 1.12.238 1.596.159.476.385.882.679 1.218.294.336.653.593 1.078.77a3.74 3.74 0 001.449.266zm0-1.638c-.41 0-.728-.126-.952-.378-.224-.252-.336-.611-.336-1.078v-1.498c0-.467.112-.826.336-1.078.224-.252.541-.378.952-.378.41 0 .728.126.952.378.224.252.336.611.336 1.078v1.498c0 .467-.112.826-.336 1.078-.224.252-.541.378-.952.378z"/><path fill="#85ACB0" d="M48 21c0 6.627-5.373 12-12 12s-12-5.373-12-12S29.373 9 36 9s12 5.373 12 12"/><path fill="#FFF" fill-rule="nonzero" d="M37.527 13C41.588 13 45 16.796 45 21c0 4.204-3.412 8-7.473 8H31a1 1 0 010-2h1v-3h-1a1 1 0 01-.993-.883L30 23a1 1 0 011-1h1v-2h-1a1 1 0 01-.993-.883L30 19a1 1 0 011-1h1v-3h-1a1 1 0 01-.993-.883L30 14a1 1 0 011-1zm0 2H34v3h3a1 1 0 01.993.883L38 19a1 1 0 01-1 1h-3v2h3a1 1 0 01.993.883L38 23a1 1 0 01-1 1h-3v3h3.527c2.839 0 5.353-2.725 5.469-5.781L43 21c0-3.144-2.567-6-5.473-6z"/></g><path d="M16 196h268v40H16z"/></g><g fill-rule="nonzero" transform="translate(35 35)"><path fill="#394244" d="M69.994 73.475a3.808 3.808 0 015.341.61l22.407 28.078a3.78 3.78 0 01-.597 5.312l-.011.009a3.81 3.81 0 01-5.341-.61l-22.407-28.08a3.778 3.778 0 01.597-5.311l.011-.01z"/><path fill="#DC4650" d="M75.514 79.975a7.381 7.381 0 0110.35 1.188l32.971 41.361a7.324 7.324 0 01-1.161 10.293l-.022.017a7.381 7.381 0 01-10.35-1.188L74.33 90.286a7.325 7.325 0 011.162-10.293l.022-.018z"/><path fill="#EA5C5C" d="M75.961 86.815a1.466 1.466 0 012.055.236l32.952 41.337c.5.628.397 1.543-.231 2.043l-.004.003a1.465 1.465 0 01-2.055-.235L75.726 88.862a1.455 1.455 0 01.23-2.043l.005-.004z"/><path fill="#394244" d="M44 0C19.7 0 0 19.7 0 44s19.7 44 44 44 44-19.7 44-44C87.996 19.701 68.299.004 44 0zm0 77.701c-18.613 0-33.701-15.088-33.701-33.701S25.387 10.299 44 10.299 77.701 25.387 77.701 44 62.613 77.701 44 77.701z"/><path fill="#FFF" stroke="#FFF" stroke-width="10" d="M43.5 10C25 10 10.003 24.996 10 43.495c-.003 18.5 14.991 33.5 33.49 33.505 18.5.005 33.502-14.986 33.51-33.486a33.5 33.5 0 00-9.805-23.7A33.503 33.503 0 0043.5 10z"/><use fill="#000" xlink:href="#f"/><use fill="#363636" xlink:href="#f"/></g></g></svg>