<svg width="25" height="24" viewBox="0 0 25 24" fill="none" xmlns="http://www.w3.org/2000/svg"><g clip-path="url(#a)"><path d="M12.5 0c6.627 0 12 5.373 12 12s-5.373 12-12 12-12-5.373-12-12 5.373-12 12-12Zm0 1.714C6.82 1.714 2.214 6.32 2.214 12S6.819 22.286 12.5 22.286c5.68 0 10.286-4.605 10.286-10.286 0-5.68-4.605-10.286-10.286-10.286ZM8 11.25a.75.75 0 0 1 .75.75 3.75 3.75 0 0 0 5.999 3.002L13.25 15a.75.75 0 0 1-.135-1.488l.135-.012h3a.75.75 0 0 1 .738.615l.012.135v3a.75.75 0 0 1-1.488.135l-.012-.135.001-.941A5.25 5.25 0 0 1 7.25 12a.75.75 0 0 1 .75-.75ZM8.75 6a.75.75 0 0 1 .738.615l.012.135v.941A5.25 5.25 0 0 1 17.75 12a.75.75 0 0 1-1.5 0 3.75 3.75 0 0 0-6-3h1.5a.75.75 0 0 1 .135 1.488l-.135.012h-3a.75.75 0 0 1-.738-.615L8 9.75v-3A.75.75 0 0 1 8.75 6Z" fill="var(--fill-color1)"/></g><defs><clipPath id="a"><path d="M.5 0h24v24H.5z"/></clipPath></defs></svg>