<svg width="24" height="24" viewBox="0 0 24 24" fill="var(--fill-color3)" xmlns="http://www.w3.org/2000/svg"><rect width="24" height="24" rx="4"/><g clip-path="url(#a)"><path d="M12 4a8 8 0 1 1 0 16 8 8 0 0 1 0-16Zm0 1.143a6.857 6.857 0 1 0 0 13.714 6.857 6.857 0 0 0 0-13.714ZM9 11.5a.5.5 0 0 1 .5.5 2.5 2.5 0 0 0 4 2.001l-1-.001a.5.5 0 0 1-.09-.992L12.5 13h2a.5.5 0 0 1 .492.41l.008.09v2a.5.5 0 0 1-.992.09L14 15.5v-.628A3.5 3.5 0 0 1 8.5 12a.5.5 0 0 1 .5-.5ZM9.5 8a.5.5 0 0 1 .492.41L10 8.5v.627A3.5 3.5 0 0 1 15.5 12a.5.5 0 0 1-1 0 2.5 2.5 0 0 0-4-2h1a.5.5 0 0 1 .09.992L11.5 11h-2a.5.5 0 0 1-.492-.41L9 10.5v-2a.5.5 0 0 1 .5-.5Z" fill="var(--fill-color1)"/></g><defs><clipPath id="a"><path fill="#fff" d="M4 4h16v16H4z"/></clipPath></defs></svg>