<svg width="24" height="24" fill="none" xmlns="http://www.w3.org/2000/svg"><mask id="a" maskUnits="userSpaceOnUse" x="0" y="0" width="24" height="24"><path d="M20 0H4a4 4 0 00-4 4v16a4 4 0 004 4h16a4 4 0 004-4V4a4 4 0 00-4-4z" fill="#fff"/></mask><g mask="url(#a)"><path d="M7.5 7a.5.5 0 01.5.5v9a.5.5 0 01-1 0v-9a.5.5 0 01.5-.5zm4.833 0C14.911 7 17 9.239 17 12c0 2.687-1.978 4.879-4.459 4.995l-.208.005h-1.866a.503.503 0 01-.46-.414L10 16.5v-9a.5.5 0 01.41-.492l.056-.005V7h1.867zm0 1H11v8h1.333c2.062 0 3.734-1.79 3.734-4 0-2.14-1.569-3.888-3.542-3.995L12.333 8z" fill="var(--fill-color1)"/></g></svg>