<svg xmlns="http://www.w3.org/2000/svg" width="24" height="24" fill="none"><path fill="var(--fill-color3)" d="M20 0H4a4 4 0 0 0-4 4v16a4 4 0 0 0 4 4h16a4 4 0 0 0 4-4V4a4 4 0 0 0-4-4z"/><path fill="var(--fill-color1)" d="M12 7.53a9.71 9.71 0 0 0 4 1.52 12.62 12.62 0 0 1-.54 4.57 5 5 0 0 1-1.25 1.9A6.76 6.76 0 0 1 12 16.88a6.92 6.92 0 0 1-2.21-1.36 5 5 0 0 1-1.24-1.89A12.68 12.68 0 0 1 8 9.05a9.71 9.71 0 0 0 4-1.52zM12 4a1.05 1.05 0 0 0-.71.27 6.79 6.79 0 0 1-4.61 1.9A1.71 1.71 0 0 0 5 7.83v.5a16.9 16.9 0 0 0 .72 6.33 8.1 8.1 0 0 0 2 3 10.51 10.51 0 0 0 3.89 2.24h.16l.23.1h.38a10.61 10.61 0 0 0 3.88-2.24 8 8 0 0 0 2-3A16.92 16.92 0 0 0 19 8.34v-.5a1.71 1.71 0 0 0-1.64-1.66 6.79 6.79 0 0 1-4.59-1.89A1 1 0 0 0 12 4z"/></svg>