<svg width="16" height="16" fill="none" xmlns="http://www.w3.org/2000/svg"><path d="M8 16A8 8 0 108 0a8 8 0 000 16z" fill="var(--fill-normal)"/><path d="M8 0a8 8 0 017.994 8.318L16 8c0 .33-.02.658-.06.985l-.005.042a7.997 7.997 0 01-4.065 5.976l.253-.146a7.99 7.99 0 01-3.874 1.139L8 16a8 8 0 01-8-8v-.001l.004-.248.002-.072L0 8a7.95 7.95 0 01.997-3.87 8.04 8.04 0 012.7-2.876l.18-.111c.086-.052.17-.1.253-.146l-.253.146A7.99 7.99 0 015.352.449l.03-.01A7.937 7.937 0 018 0zm0 11.429H4.572v2.29c1.035.622 2.22.95 3.428.948v-3.238zm5.719 0h-2.29v2.29a6.7 6.7 0 002.29-2.29zm-2.29-3.43H8v3.43h3.429v-3.43zM4.572 8H1.333c0 1.254.346 2.427.948 3.429h2.29v-3.43L4.572 8zm9.147-3.428h-2.29V8h3.238a6.636 6.636 0 00-.948-3.429v.001zm-5.72 0H4.573V8H8V4.572h-.001zm.002-3.238v3.238h3.428v-2.29A6.636 6.636 0 008 1.333l.001.001zm-5.72 3.238h2.29v-2.29a6.7 6.7 0 00-2.29 2.29z" fill="var(--fill-color1)"/></svg>