<svg xmlns="http://www.w3.org/2000/svg" width="24" height="24" fill="none"><path fill="var(--fill-color3)" d="M20 0H4a4 4 0 00-4 4v16a4 4 0 004 4h16a4 4 0 004-4V4a4 4 0 00-4-4z"/><path fill="var(--fill-color1)" d="M12 7.53a9.71 9.71 0 004 1.52 12.62 12.62 0 01-.54 4.57 5 5 0 01-1.25 1.9A6.76 6.76 0 0112 16.88a6.92 6.92 0 01-2.21-1.36 5 5 0 01-1.24-1.89A12.68 12.68 0 018 9.05a9.71 9.71 0 004-1.52zM12 4a1.05 1.05 0 00-.71.27 6.79 6.79 0 01-4.61 1.9A1.71 1.71 0 005 7.83v.5a16.9 16.9 0 00.72 6.33 8.1 8.1 0 002 3 10.51 10.51 0 003.89 2.24h.16l.23.1h.38a10.61 10.61 0 003.88-2.24 8 8 0 002-3c.657-2.073.908-4.252.74-6.42v-.5a1.71 1.71 0 00-1.64-1.66 6.79 6.79 0 01-4.59-1.89A1 1 0 0012 4z"/></svg>