<svg width="16" height="16" fill="none" xmlns="http://www.w3.org/2000/svg"><path d="M16 0H0v2h16V0ZM16 14H0v2h16v-2Z" fill="var(--fill-color2)"/><path d="M13.5 9c-.231 0-.447.057-.643.15L9.85 6.143c.093-.196.15-.412.15-.643a1.5 1.5 0 1 0-3 0c0 .231.057.447.15.643L3.143 10.15A1.486 1.486 0 0 0 2.5 10 1.5 1.5 0 1 0 4 11.5c0-.231-.057-.447-.15-.643L7.857 6.85c.196.093.412.15.643.15.231 0 .447-.057.643-.15l3.007 3.007c-.093.196-.15.412-.15.643A1.5 1.5 0 1 0 13.5 9Z" fill="var(--fill-color1)"/></svg>