<svg xmlns="http://www.w3.org/2000/svg" width="32" height="32"><g fill="none" fill-rule="evenodd"><path d="M0 0h32v32H0z"/><path fill="#333" fill-rule="nonzero" d="M7 19v5h18v-5H7zm0-1h18a1 1 0 0 1 1 1v5a1 1 0 0 1-1 1H7a1 1 0 0 1-1-1v-5a1 1 0 0 1 1-1zm13.5 2.793l.646-.647a.5.5 0 0 1 .708.708l-.647.646.647.646a.5.5 0 0 1-.708.708l-.646-.647-.646.647a.5.5 0 0 1-.708-.708l.647-.646-.647-.646a.5.5 0 0 1 .708-.708l.646.647zm-4.5 0l.646-.647a.5.5 0 0 1 .708.708l-.647.646.647.646a.5.5 0 0 1-.708.708L16 22.207l-.646.647a.5.5 0 0 1-.708-.708l.647-.646-.647-.646a.5.5 0 0 1 .708-.708l.646.647zm-4.5 0l.646-.647a.5.5 0 0 1 .708.708l-.647.646.647.646a.5.5 0 0 1-.708.708l-.646-.647-.646.647a.5.5 0 0 1-.708-.708l.647-.646-.647-.646a.5.5 0 0 1 .708-.708l.646.647zM16 11c1.14 0 2-.716 2-1.5S17.14 8 16 8c-1.14 0-2 .716-2 1.5s.86 1.5 2 1.5zm0 1c-1.657 0-3-1.12-3-2.5S14.343 7 16 7s3 1.12 3 2.5-1.343 2.5-3 2.5zm0-1a.5.5 0 0 1 .5.5v5a.5.5 0 1 1-1 0v-5a.5.5 0 0 1 .5-.5zm0 5h2a.5.5 0 1 1 0 1h-2a.5.5 0 1 1 0-1zm0-2h1a.5.5 0 1 1 0 1h-1a.5.5 0 1 1 0-1z"/></g></svg>