<svg xmlns="http://www.w3.org/2000/svg" width="32" height="32"><g fill="none" fill-rule="evenodd"><path d="M0 0h32v32H0z"/><path fill="#333" fill-rule="nonzero" d="m22.016 20.613-1.54-.317c-.337-.582-.771-1.357-.951-1.665a8.249 8.249 0 0 0 1.524-3.222.397.397 0 0 0 0-.1v-.45c.746-.55.96-2.498 1-2.93a6.098 6.098 0 0 0-1.844-4.264A5.04 5.04 0 0 0 16.623 6h-.279c-.04 0-4.434.216-5.27 4.621a4.372 4.372 0 0 0 .893 3.964v.666a.397.397 0 0 0 0 .091 7.665 7.665 0 0 0 1.64 3.33l-1.18 1.624-1.46.308C8.644 21.1 6.985 23.19 7 25.6c0 .221.176.4.394.4h18.212a.397.397 0 0 0 .394-.4c.013-2.415-1.655-4.503-3.984-4.987zm-6.795 1.732a3.091 3.091 0 0 1-2.065-1.666l1.024-1.448a3.7 3.7 0 0 0 1.902.832l-.68 2.323a.38.38 0 0 0-.18-.041zm1.304-.941 1.32 3.747h-2.41l1.09-3.747zm.393-1.29a3.661 3.661 0 0 0 2.008-.9c.205.375.541.966.82 1.44a3.1 3.1 0 0 1-2.057 1.666l-.771-2.207zm-5.065-9.293c.42-2.218 2.271-3.861 4.491-3.988h.27a4.412 4.412 0 0 1 3.042 1.382 5.274 5.274 0 0 1 1.64 3.647 8.903 8.903 0 0 1-.214 1.249v-.5a.497.497 0 0 0-.074-.258c-.147-.216-.377-.25-1.008-.341a10.702 10.702 0 0 1-3.279-.883 5.789 5.789 0 0 1-2.172-2.29.393.393 0 0 0-.344-.216.433.433 0 0 0-.353.2c-.704 1.19-1.86 3.272-1.86 3.788v.575a4.226 4.226 0 0 1-.14-2.365zm.934 1.84a19.12 19.12 0 0 1 1.393-2.814 5.967 5.967 0 0 0 2.172 1.981 11.4 11.4 0 0 0 3.517.958l.401.058v2.357c-.41 1.623-1.426 4.121-3.745 4.121-1.935 0-3.28-2.123-3.738-4.105v-2.556zm-1.64 8.76 1.312-.275a3.837 3.837 0 0 0 2.598 2.023h.132l-.582 1.982H7.853c.176-1.858 1.521-3.383 3.32-3.764l-.025.033zm7.542 3.73-.722-2.074a3.88 3.88 0 0 0 2.46-1.981l1.442.291c1.803.376 3.153 1.903 3.328 3.764h-6.508zM24 28l4-4.005L30 26l-4 4h-2v-2zm5-5 1-1 2 2-1 1-2-2z"/></g></svg>