<svg xmlns="http://www.w3.org/2000/svg" width="80" height="62" fill="none"><path fill="#85ACB0" d="M52.308 62H9.23a9.2 9.2 0 0 1-6.524-2.727A9.35 9.35 0 0 1 0 52.7V9.3a9.34 9.34 0 0 1 2.707-6.573A9.2 9.2 0 0 1 9.23 0h61.538a9.2 9.2 0 0 1 6.524 2.727A9.35 9.35 0 0 1 80 9.3v24.8a3.1 3.1 0 0 1-1.538 2.685 3.06 3.06 0 0 1-3.077 0 3.1 3.1 0 0 1-1.539-2.685V9.3a3.12 3.12 0 0 0-.902-2.19 3.07 3.07 0 0 0-2.175-.91H9.231a3.07 3.07 0 0 0-2.175.91 3.12 3.12 0 0 0-.902 2.19v43.4a3.1 3.1 0 0 0 .902 2.19 3.07 3.07 0 0 0 2.175.91h43.077c1.1 0 2.115.59 2.664 1.55.55.959.55 2.14 0 3.1A3.07 3.07 0 0 1 52.308 62"/><path fill="#FF444F" d="M76.923 62H64.615c-1.1 0-2.115-.592-2.664-1.55a3.12 3.12 0 0 1 0-3.1 3.07 3.07 0 0 1 2.664-1.55h9.231v-9.3c0-1.109.587-2.132 1.539-2.686a3.06 3.06 0 0 1 3.076 0A3.1 3.1 0 0 1 80 46.5v12.4c0 .822-.324 1.611-.901 2.192a3.07 3.07 0 0 1-2.176.908M52.352 31.045h12.307c1.1 0 2.116.59 2.665 1.55.55.96.55 2.14 0 3.1a3.07 3.07 0 0 1-2.665 1.55h-9.23v9.3a3.1 3.1 0 0 1-1.539 2.685 3.06 3.06 0 0 1-3.077 0 3.1 3.1 0 0 1-1.538-2.685v-12.4c0-.822.324-1.61.9-2.192a3.07 3.07 0 0 1 2.177-.908"/><path fill="#85ACB0" d="M33.846 18.6H3.077c-1.1 0-2.115-.591-2.665-1.55a3.12 3.12 0 0 1 0-3.1 3.07 3.07 0 0 1 2.665-1.55h30.77a3.07 3.07 0 0 0 2.174-.91 3.12 3.12 0 0 0 .902-2.19V3.1c0-1.108.587-2.131 1.539-2.685a3.06 3.06 0 0 1 3.076 0 3.1 3.1 0 0 1 1.54 2.685v6.2a9.34 9.34 0 0 1-2.707 6.573 9.2 9.2 0 0 1-6.524 2.727Z"/><path fill="#FF444F" d="M76.923 62a3.06 3.06 0 0 1-2.175-.909L54.66 40.852c-.755-.787-1.042-1.917-.755-2.973a3.09 3.09 0 0 1 2.154-2.17 3.06 3.06 0 0 1 2.951.76l20.088 20.24a3.114 3.114 0 0 1 0 4.384 3.06 3.06 0 0 1-2.175.907"/></svg>
