<svg width="160" height="120" xmlns="http://www.w3.org/2000/svg"><defs><linearGradient x1="50%" y1="126.023%" x2="50%" y2="32.907%" id="a"><stop stop-color="#FFF" stop-opacity="0" offset="0%"/><stop stop-color="#999CAC" stop-opacity=".161" offset="100%"/></linearGradient></defs><g fill="none" fill-rule="evenodd"><path fill="#FAFAFA" fill-rule="nonzero" d="M0 0h160v120H0z"/><path fill="url(#a)" d="m0 120 5.63-8.466 1.567-3.503 3.132 3.503h6.265l1.566-3.503 6.264-10.51h3.132l3.132-3.503h20.359l9.397-10.509h6.264l3.132 3.503 7.83-3.503h23.492l4.698 3.503h12.529l1.566 3.503h6.264l4.699-13.509 1.566-3.503L138.748 70l6.264 13.509 1.567 3.503 3.132-3.503 4.698 7.006 1.566-3.503 1.566 7.006L160 90.515V120z"/><path d="M1.935 118.747a.5.5 0 0 1-.87-.494l6.182-10.858a.5.5 0 0 1 .805-.088l2.984 3.302h5.721l1.46-3.225 6.266-10.402a.5.5 0 0 1 .428-.242h2.911l2.984-3.302a.5.5 0 0 1 .37-.165h20.141l9.25-10.237a.5.5 0 0 1 .37-.165h6.266a.5.5 0 0 1 .371.165l2.89 3.199 7.501-3.321.203-.043h23.495a.5.5 0 0 1 .297.098l4.566 3.37h12.367a.5.5 0 0 1 .455.293l1.434 3.173h5.588l4.598-13.076 1.566-3.468a.5.5 0 0 1 .214-.231l6.265-3.467a.5.5 0 0 1 .695.225l6.269 13.377 1.251 2.771 2.62-2.9a.5.5 0 0 1 .786.054l4.197 6.195 1.199-2.653a.5.5 0 0 1 .943.096l1.203 5.326.857-2.233a.5.5 0 0 1 .934.358l-1.449 3.773a.5.5 0 0 1-.954-.07l-1.237-5.478-.952 2.107a.5.5 0 0 1-.87.075l-4.341-6.407-2.706 2.994a.5.5 0 0 1-.826-.129l-1.564-3.46-6.038-12.888-5.653 3.128-1.482 3.276-4.699 13.371a.5.5 0 0 1-.471.334h-6.266a.5.5 0 0 1-.456-.294l-1.433-3.173h-12.208a.5.5 0 0 1-.297-.097l-4.567-3.37H78.273l-7.735 3.424a.5.5 0 0 1-.573-.122l-2.984-3.302H61.16l-9.25 10.237a.5.5 0 0 1-.37.165H31.398l-2.984 3.302a.5.5 0 0 1-.37.165h-2.851l-6.092 10.108-1.567 3.467a.5.5 0 0 1-.455.294h-6.266a.5.5 0 0 1-.37-.165l-2.67-2.954-5.84 10.257zm104.724-32.311-.297-.098h.164l.133.098z" fill="#999CAC" fill-rule="nonzero"/><path d="M10 10v30h140V10H10zM7.162 5h145.676c1.194 0 2.162.968 2.162 2.162v35.676A2.162 2.162 0 0 1 152.838 45H7.162A2.162 2.162 0 0 1 5 42.838V7.162C5 5.968 5.968 5 7.162 5zM111.68 29.324l3.243 4.325h-6.487l3.244-4.325zm-68.533-10.27h77.181c.597 0 1.081.484 1.081 1.081v2.162a1.08 1.08 0 0 1-1.08 1.081H43.146a1.081 1.081 0 0 1-1.081-1.08v-2.163c0-.597.484-1.08 1.08-1.08zm0 10.27h57.49c.597 0 1.081.484 1.081 1.081v2.163a1.08 1.08 0 0 1-1.08 1.08H43.146a1.081 1.081 0 0 1-1.081-1.08v-2.163c0-.597.484-1.08 1.08-1.08zm-20.793 3.384a8.354 8.354 0 1 1 0-16.708 8.354 8.354 0 0 1 0 16.708z" fill="#D6D6D6" fill-rule="nonzero"/></g></svg>