<svg xmlns="http://www.w3.org/2000/svg" width="258" height="140"><g fill="none" fill-rule="evenodd"><rect width="258" height="140" fill="#FFF" rx="4"/><path fill="#336" d="M149.033 85.333h31.085c3.053 0 5.527 2.289 5.527 5.111 0 2.823-2.474 5.112-5.527 5.112H38.507c-3.053 0-5.527-2.289-5.527-5.112 0-2.822 2.474-5.11 5.527-5.11h60.79c3.051 0 5.525-2.289 5.525-5.112s-2.474-5.11-5.526-5.11H52.322v-.04c-2.763-.323-4.834-2.496-4.834-5.072s2.071-4.749 4.834-5.072v-.04h19.342c3.053 0 5.527-2.287 5.527-5.11 0-2.823-2.474-5.111-5.527-5.111H46.105c-3.052 0-5.526-2.289-5.526-5.111 0-2.823 2.474-5.112 5.526-5.112h131.25c3.052 0 5.527 2.289 5.527 5.112 0 2.822-2.475 5.11-5.527 5.11h-51.118c-3.052 0-5.526 2.289-5.526 5.112s2.474 5.11 5.526 5.11h30.395c3.052 0 5.526 2.29 5.526 5.112 0 2.823-2.474 5.111-5.526 5.111h-16.58c-3.051 0-5.526 2.288-5.526 5.111s2.475 5.111 5.527 5.111h8.98zM29.526 44.444c3.052 0 5.527 2.289 5.527 5.112 0 2.822-2.475 5.11-5.527 5.11S24 52.379 24 49.557c0-2.823 2.474-5.112 5.526-5.112zM159.395 24h38.684c3.052 0 5.526 2.288 5.526 5.111s-2.474 5.111-5.526 5.111h-38.684c-3.052 0-5.527-2.288-5.527-5.11 0-2.824 2.475-5.112 5.527-5.112zm-23.487 0c3.052 0 5.526 2.288 5.526 5.111s-2.474 5.111-5.526 5.111c-3.052 0-5.526-2.288-5.526-5.11 0-2.824 2.474-5.112 5.526-5.112zm67.006 20.444h9.672c3.052 0 5.526 2.289 5.526 5.112 0 2.822-2.474 5.11-5.526 5.11h-9.672c-3.052 0-5.526-2.288-5.526-5.11 0-2.823 2.474-5.112 5.526-5.112zM178.737 64.89h20.724c3.052 0 5.526 2.288 5.526 5.111s-2.474 5.111-5.526 5.111h-20.724c-3.052 0-5.526-2.288-5.526-5.111s2.474-5.111 5.526-5.111zm19.342 20.444h30.395c3.052 0 5.526 2.289 5.526 5.111 0 2.823-2.474 5.112-5.526 5.112h-30.395c-3.052 0-5.526-2.289-5.526-5.112 0-2.822 2.474-5.11 5.526-5.11zm-131.94 20.445h62.17c3.052 0 5.527 2.288 5.527 5.11 0 2.824-2.475 5.112-5.527 5.112H66.14c-3.053 0-5.527-2.288-5.527-5.111s2.474-5.111 5.526-5.111zm82.894 0h9.67c3.053 0 5.527 2.288 5.527 5.11 0 2.824-2.474 5.112-5.526 5.112h-9.671c-3.052 0-5.526-2.288-5.526-5.111s2.474-5.111 5.526-5.111z" opacity=".08"/><path d="M137 38h63.658v63.658H137z"/><path fill="#F93" fill-rule="nonzero" d="M183.264 69.14h-29.408l14.614-23.183 14.794 23.183zm-17.394-6.65h5.38l-2.69-4.249-2.69 4.249z"/><path fill="#336" d="M166.677 97.125H137.27l14.614-23.182 14.794 23.182zm-17.483-6.65h5.38l-2.69-4.248-2.69 4.248zm50.747 6.65h-29.408l14.614-23.182 14.794 23.182zm-17.394-6.65h5.38l-2.69-4.248-2.69 4.248z"/><g><path fill="#F93" fill-rule="nonzero" d="M57.538 63.822V38.628h25.194v25.194H57.538zm16.408-16.318h-7.532v7.531h7.532v-7.531zm21.249 54.154V76.464h25.194v25.194H95.195zm16.318-16.408h-7.532v7.532h7.532V85.25z"/><path fill="#336" d="M95.195 38.628h25.194v25.194H95.195V38.628zm8.786 16.407h7.532v-7.531h-7.532v7.531zm-46.443 46.623V76.464h25.194v25.194H57.538zM73.946 85.25h-7.532v7.532h7.532V85.25z"/></g></g></svg>
