<svg id="Layer_1" xmlns="http://www.w3.org/2000/svg" viewBox="0 0 50 50"><style>.st0{fill:#d5d3da}.st1,.st2{fill:none;stroke:#293052;stroke-width:1.8116;stroke-miterlimit:10}.st2{stroke-width:1.9896}.st3{fill:#fcf0e5}.st4{fill:none;stroke:#293052;stroke-width:1.4922;stroke-miterlimit:10}.st5{fill:#fcebdb}.st6{fill:#f5c69a}.st10,.st7,.st8,.st9{fill:none;stroke:#e88024;stroke-width:.9948;stroke-miterlimit:10}.st10,.st8,.st9{fill:#fff;stroke:#293052;stroke-width:1.9896}.st10,.st9{fill:none;stroke:#e88024}.st10{stroke:#f5c69a;stroke-width:.7224}.st11{fill:#e88024}.st12,.st13,.st14,.st15{fill:none;stroke:#293052;stroke-width:2.0316;stroke-miterlimit:10}.st13,.st14,.st15{fill:#fff}.st14,.st15{fill:none;stroke:#ec954a}.st15{stroke:#f0ad73}.st16{fill:#f0ad73}.st17{fill:#928ea1}.st18{fill:#293052}.st19{fill:none;stroke:#293052;stroke-width:2.3302;stroke-miterlimit:10}.st20{opacity:.7;fill:#d5d3da}.st21{fill:none;stroke:#fff;stroke-width:2.3302;stroke-miterlimit:10}.st22{fill:#fae0c8}.st23,.st24,.st25,.st26{fill:none;stroke:#293052;stroke-width:2;stroke-miterlimit:10}.st24,.st25,.st26{stroke-width:1.5912}.st25,.st26{stroke:#f5c69a;stroke-width:2}.st26{stroke:#e88024}.st27{fill:#e0dee3}.st28,.st29{fill:none;stroke:#293052;stroke-width:2.0002;stroke-miterlimit:10}.st29{stroke:#fff;stroke-width:1.3602}.st30{fill:#edecef}.st31,.st32{fill:none;stroke:#293052;stroke-width:1.8692;stroke-miterlimit:10}.st32{fill:#ec954a;stroke-width:1.9154}</style><path class="st23" d="M43.9 36.7V19.9C43.9 9.5 35.5 1 25 1 14.5 1 6.1 9.5 6.1 19.9v16.8"/><path class="st22" d="M6.1 23.9h7.1v12.8H6.1zM36.8 23.9h7.1v12.8h-7.1z"/><path class="st16" d="M6.1 31.9h7.1v4.8H6.1zM36.8 31.9h7.1v4.8h-7.1z"/><path class="st23" d="M6.1 23.9h7.1v12.8H6.1zM9.6 36.1c0 5.7 4.7 10.4 10.4 10.4"/><path class="st22" d="M29.1 45.5v1.9c0 .9-.7 1.6-1.6 1.6h-5.9c-.9 0-1.6-.7-1.6-1.6v-1.9c0-.9.7-1.6 1.6-1.6h5.9c.9.1 1.6.8 1.6 1.6z"/><path class="st16" d="M29.2 47l-.1.5c0 .9-.7 1.6-1.6 1.6h-5.9c-.9 0-1.6-.7-1.6-1.6l.1-.5"/><path class="st23" d="M29.1 45.5v1.9c0 .9-.7 1.6-1.6 1.6h-5.9c-.9 0-1.6-.7-1.6-1.6v-1.9c0-.9.7-1.6 1.6-1.6h5.9c.9.1 1.6.8 1.6 1.6zM36.8 23.9h7.1v12.8h-7.1z"/></svg>