<svg id="Layer_1" xmlns="http://www.w3.org/2000/svg" viewBox="0 0 50 50"><style>.st0{fill:#d5d3da}.st1,.st2{fill:none;stroke:#293052;stroke-width:1.8116;stroke-miterlimit:10}.st2{stroke-width:1.9896}.st3{fill:#fcf0e5}.st4{fill:none;stroke:#293052;stroke-width:1.4922;stroke-miterlimit:10}.st5{fill:#fcebdb}.st6{fill:#f5c69a}.st10,.st7,.st8,.st9{fill:none;stroke:#e88024;stroke-width:.9948;stroke-miterlimit:10}.st10,.st8,.st9{fill:#fff;stroke:#293052;stroke-width:1.9896}.st10,.st9{fill:none;stroke:#e88024}.st10{stroke:#f5c69a;stroke-width:.7224}.st11{fill:#e88024}.st12,.st13,.st14,.st15{fill:none;stroke:#293052;stroke-width:2.0316;stroke-miterlimit:10}.st13,.st14,.st15{fill:#fff}.st14,.st15{fill:none;stroke:#ec954a}.st15{stroke:#f0ad73}.st16{fill:#f0ad73}.st17{fill:#928ea1}.st18{fill:#293052}.st19{fill:none;stroke:#293052;stroke-width:2.3302;stroke-miterlimit:10}.st20{opacity:.7;fill:#d5d3da}.st21{fill:none;stroke:#fff;stroke-width:2.3302;stroke-miterlimit:10}.st22{fill:#fae0c8}.st23,.st24,.st25,.st26{fill:none;stroke:#293052;stroke-width:2;stroke-miterlimit:10}.st24,.st25,.st26{stroke-width:1.5912}.st25,.st26{stroke:#f5c69a;stroke-width:2}.st26{stroke:#e88024}.st27{fill:#e0dee3}.st28,.st29{fill:none;stroke:#293052;stroke-width:2.0002;stroke-miterlimit:10}.st29{stroke:#fff;stroke-width:1.3602}.st30{fill:#edecef}.st31,.st32{fill:none;stroke:#293052;stroke-width:1.8692;stroke-miterlimit:10}.st32{fill:#ec954a;stroke-width:1.9154}</style><path class="st16" d="M9.6 49s-1.9-12.9 11-15H25s11.5 1 11.1 15H9.6z"/><path class="st17" d="M14.2 18.6s-.6-8.5 9-9.7c0 0 7.4.5 8.1 9.7 0 0-3.2.5-7-4.8 0 0-2 5.1-10.1 4.8z"/><path class="st5" d="M24.3 13.8s-2.1 4.8-10.1 4.8l-.4.8s-2.6 2.3.5 3.8c0 0 2.6 6.9 8.3 6.9 0 0 7-.8 8.1-6.9 0 0 2.7-1 .6-3.7v-.8c0-.1-4.5-.6-7-4.9z"/><path class="st18" d="M28.6 28.7c.5-.4 1-1 1.4-1.5.3-.4.5-.7.8-1.2.3-.5.6-1 .8-1.6 0-.1.1-.2.1-.3.5-.2 1-.6 1.3-1.1.3-.4.4-.8.5-1.3v-.9c-.1-.4-.2-.8-.4-1.1-.1-.2-.3-.4-.5-.6 0-.5-.1-.9-.1-1.4-.1-.4-.1-.8-.2-1.3-.2-.7-.4-1.3-.6-1.9-.2-.4-.3-.7-.5-1.1-1.7-3.3-4.9-5.5-8.5-5.5-3.6 0-6.7 2.2-8.5 5.5-.2.3-.3.7-.5 1.1-.3.6-.5 1.2-.6 1.9-.2.8-.3 1.7-.3 2.5-.5.5-.9 1.1-1 1.8-.1.3-.1.6 0 .9 0 .3.1.5.2.7.3.8 1 1.5 1.8 1.8.3.7.6 1.3.9 1.9.2.4.5.8.8 1.1.4.5.9 1.1 1.4 1.5.3.3.6.5.9.7 1.5 1.1 3.2 1.7 5 1.7 1.8 0 3.5-.6 5-1.7.2-.2.5-.4.8-.6zM15.4 15.9c.1-.4.3-.8.5-1.2 1.3-2.8 3.8-4.7 6.7-4.7 2.9 0 5.4 1.9 6.7 4.7.2.4.3.8.5 1.2.1.3.2.7.3 1l-.9-.3c-.4-.2-.7-.3-1-.6-1.8-1.2-2.7-3-2.8-3l-1-2-.9 2.1c-1.1 2.5-3.5 3.6-5.6 4-.4.1-.8.2-1.2.2-.6.1-1.1.1-1.5.1-.1-.5.1-1 .2-1.5zm10.9 11.7c-1.1.8-2.4 1.2-3.7 1.2-1.3 0-2.6-.5-3.7-1.3-.3-.2-.6-.5-.9-.7-.5-.4-.9-.9-1.2-1.5-.5-.7-.9-1.5-1.2-2.4 0-.1 0-.1-.1-.2l-.2-.7-.7-.1c-.4 0-.7-.4-.8-.8 0-.4.1-.8.5-.9l.6-.3v-.4h.7c.6 0 1.2-.1 2-.2.4-.1.8-.1 1.1-.2 2-.5 4.2-1.5 5.8-3.5.6.8 1.5 1.7 2.6 2.4.3.2.7.4 1 .6.6.3 1.2.5 1.8.6.1 0 .3 0 .4.1v.8l.5.3c.3.2.5.5.4.9-.1.4-.3.7-.7.7l-.5.2-.2.6c-.1.2-.2.4-.2.6-.3.7-.7 1.4-1.1 2-.4.5-.8 1-1.3 1.5-.3.3-.6.5-.9.7zM18.5 33.4c-1.2.4-2.2.8-3.2 1.4-.4.2-.8.5-1.2.8-.6.4-1.2.9-1.7 1.5-.3.3-.6.6-.8.9-1.9 2.3-2.9 5.2-2.9 8.5V49h2.2v-2.5c0-3 1.1-5.7 3-7.7.3-.3.6-.6.9-.8.5-.5 1.1-.9 1.7-1.2l1.2-.6c.7-.3 1.5-.6 2.3-.8l.8-.2v-3.6h-2.2v1.8zM34.2 38c-.3-.3-.5-.6-.8-.9-.5-.5-1.1-1-1.7-1.5-.4-.3-.8-.5-1.2-.8-1-.6-2.1-1.1-3.2-1.4v-1.9H25v3.6l.8.2c.8.2 1.5.5 2.3.8l1.2.6c.6.4 1.2.8 1.7 1.2.3.3.6.5.9.8 1.9 2 3 4.7 3 7.7V49h2.2v-2.5c0-3.3-1.1-6.2-2.9-8.5z"/><g><path class="st19" d="M37.5 35.9l9.9 10"/><circle class="st20" cx="22.5" cy="20.9" r="19.9"/><circle class="st19" cx="22.5" cy="20.9" r="19.9"/><path class="st21" d="M22 4.8c9 0 16.2 7.3 16.2 16.2"/></g></svg>