<svg id="Layer_1" data-name="Layer 1" xmlns="http://www.w3.org/2000/svg" viewBox="0 0 27 27"><defs><style>.cls-1,.cls-2{fill:#2a3152}.cls-2{font-size:9px;font-family:Roboto-Black,Roboto}</style></defs><title>icons</title><path class="cls-1" d="M22.59 27H4.41A4.42 4.42 0 0 1 0 22.59V4.41A4.42 4.42 0 0 1 4.41 0h18.18A4.42 4.42 0 0 1 27 4.41v18.18A4.42 4.42 0 0 1 22.59 27M4.41 2.94a1.47 1.47 0 0 0-1.47 1.47v18.18a1.47 1.47 0 0 0 1.47 1.47h18.18a1.47 1.47 0 0 0 1.47-1.47V4.41a1.47 1.47 0 0 0-1.47-1.47z"/><text class="cls-2" transform="translate(5.12 16.46)">PDF</text></svg>