<svg width="115" height="123" viewBox="0 0 115 123" fill="none" xmlns="http://www.w3.org/2000/svg">
<path d="M85.8394 117.37H13.6494V0.490234H85.8394C90.1528 0.490234 93.6494 3.98689 93.6494 8.30023V109.55C93.6439 113.863 90.1521 117.359 85.8394 117.37Z" fill="#C6E4E4"/>
<path d="M53.6494 19.4307C42.7418 19.4307 33.8994 28.273 33.8994 39.1807C33.8994 50.0883 42.7418 58.9307 53.6494 58.9307C64.557 58.9307 73.3994 50.0883 73.3994 39.1807C73.3994 33.9426 71.3186 28.9191 67.6148 25.2153C63.9109 21.5115 58.8874 19.4307 53.6494 19.4307ZM35.6494 39.7107H43.4794C43.4891 42.8942 43.9401 46.061 44.8194 49.1207H38.6194C36.7616 46.3251 35.7225 43.0657 35.6194 39.7107H35.6494ZM54.4894 26.9307V21.2107C56.5794 21.6607 58.4894 23.7907 59.8494 26.9307H54.4894ZM60.4894 28.6107C61.5084 31.6406 62.0712 34.8052 62.1594 38.0007H54.4894V28.6107H60.4894ZM52.7794 21.2107V26.9307H47.4494C48.8294 23.7907 50.7194 21.6607 52.8094 21.2107H52.7794ZM52.7794 28.6107V38.0007H45.1394C45.2133 34.7997 45.7661 31.6279 46.7794 28.5907L52.7794 28.6107ZM43.4494 38.0007H35.6494C35.8597 34.6177 37.0209 31.3628 38.9994 28.6107H44.9994C44.0401 31.6513 43.5182 34.813 43.4494 38.0007ZM45.1194 39.6907H52.8094V49.1007H46.5694C45.6385 46.0563 45.1502 42.894 45.1194 39.7107V39.6907ZM52.8094 50.8007V57.1507C50.5794 56.6607 48.5794 54.2807 47.1794 50.8007H52.8094ZM54.4894 57.1507V50.8007H60.1194C58.7194 54.2807 56.7194 56.6607 54.4894 57.1507ZM54.4894 49.1507V39.7107H62.1794C62.1535 42.9009 61.6651 46.0706 60.7294 49.1207L54.4894 49.1507ZM63.8594 39.7407H71.6894C71.5906 43.0964 70.5511 46.3569 68.6894 49.1507H62.4894C63.3785 46.0821 63.8395 42.9054 63.8594 39.7107V39.7407ZM63.8594 38.0507C63.7902 34.8588 63.2787 31.692 62.3394 28.6407H68.2794C70.2633 31.381 71.4347 34.625 71.6594 38.0007L63.8594 38.0507ZM66.8594 26.9607H61.7194C61.001 25.0784 59.9398 23.3458 58.5894 21.8507C61.7664 22.7515 64.6344 24.509 66.8794 26.9307L66.8594 26.9607ZM48.7094 21.8207C47.3591 23.3158 46.2978 25.0484 45.5794 26.9307H40.4194C42.6607 24.498 45.529 22.7299 48.7094 21.8207ZM39.8394 50.8207H45.3394C46.0669 52.9404 47.213 54.8924 48.7094 56.5607C45.2442 55.5688 42.1551 53.5628 39.8394 50.8007V50.8207ZM58.5894 56.5607C60.1005 54.8885 61.2601 52.9297 61.9994 50.8007H67.4994C65.1699 53.5616 62.0664 55.5609 58.5894 56.5407V56.5607Z" fill="white"/>
<path d="M80.2999 75.4102H27.5499C25.2469 75.4102 23.3799 77.2771 23.3799 79.5802V81.7202C23.3799 84.0232 25.2469 85.8902 27.5499 85.8902H80.2999C82.6029 85.8902 84.4699 84.0232 84.4699 81.7202V79.5802C84.4699 77.2771 82.6029 75.4102 80.2999 75.4102Z" fill="white"/>
<path d="M95.9996 47.9805H6.05957C3.022 47.9805 0.55957 50.4429 0.55957 53.4805V104C0.55957 107.038 3.022 109.5 6.05957 109.5H95.9996C99.0371 109.5 101.5 107.038 101.5 104V53.4805C101.5 50.4429 99.0371 47.9805 95.9996 47.9805Z" fill="white"/>
<path d="M95.9996 48.4805C98.761 48.4805 101 50.719 101 53.4805V104C101 106.762 98.761 109 95.9996 109H6.05957C3.29815 109 1.05957 106.762 1.05957 104V53.4805C1.05957 50.719 3.29815 48.4805 6.05957 48.4805H95.9996ZM95.9996 47.4805H6.05957C2.74586 47.4805 0.0595703 50.1668 0.0595703 53.4805V104C0.0595703 107.314 2.74586 110 6.05957 110H95.9996C99.3133 110 102 107.314 102 104V53.4805C102 50.1668 99.3133 47.4805 95.9996 47.4805Z" fill="#F2F2F2"/>
<path d="M38.9091 58.2402H11.8691C10.2123 58.2402 8.86914 59.5834 8.86914 61.2402V96.4102C8.86914 98.0671 10.2123 99.4102 11.8691 99.4102H38.9091C40.566 99.4102 41.9091 98.0671 41.9091 96.4102V61.2402C41.9091 59.5834 40.566 58.2402 38.9091 58.2402Z" fill="#F2F2F2"/>
<path d="M82.7493 67.3701H52.5793C51.7233 67.3701 51.0293 68.0641 51.0293 68.9201V70.8701C51.0293 71.7262 51.7233 72.4201 52.5793 72.4201H82.7493C83.6053 72.4201 84.2993 71.7262 84.2993 70.8701V68.9201C84.2993 68.0641 83.6053 67.3701 82.7493 67.3701Z" fill="#E3E4E3"/>
<path d="M82.9493 78.7402H52.3793C51.6337 78.7402 51.0293 79.3446 51.0293 80.0902V81.7702C51.0293 82.5158 51.6337 83.1202 52.3793 83.1202H82.9493C83.6949 83.1202 84.2993 82.5158 84.2993 81.7702V80.0902C84.2993 79.3446 83.6949 78.7402 82.9493 78.7402Z" fill="#E3E4E3"/>
<path d="M82.9493 85.5605H52.3793C51.6337 85.5605 51.0293 86.165 51.0293 86.9106V88.5905C51.0293 89.3361 51.6337 89.9406 52.3793 89.9406H82.9493C83.6949 89.9406 84.2993 89.3361 84.2993 88.5905V86.9106C84.2993 86.165 83.6949 85.5605 82.9493 85.5605Z" fill="#E3E4E3"/>
<path d="M25.4497 78.79C29.1887 78.79 32.2197 75.759 32.2197 72.02C32.2197 68.281 29.1887 65.25 25.4497 65.25C21.7107 65.25 18.6797 68.281 18.6797 72.02C18.6797 75.759 21.7107 78.79 25.4497 78.79Z" fill="#84ABAE"/>
<path d="M20 79.0703C20 79.0703 21.48 81.0003 25.45 81.0003C29.42 81.0003 30.72 79.0703 30.72 79.0703C30.72 79.0703 36.78 81.4003 36.78 87.7703C36.78 87.7703 33.64 92.4003 25.64 92.4003C17.64 92.4003 14 87.7703 14 87.7703C14 87.7703 14.19 80.9103 20 79.0703Z" fill="#84ABAE"/>
<path d="M93.5496 123.001C105.396 123.001 115 113.397 115 101.551C115 89.7041 105.396 80.1006 93.5496 80.1006C81.7031 80.1006 72.0996 89.7041 72.0996 101.551C72.0996 113.397 81.7031 123.001 93.5496 123.001Z" fill="#FF6444"/>
<path d="M93.55 86.6201L93.54 101.55H107.49" stroke="white" stroke-width="2" stroke-linecap="round" stroke-linejoin="round"/>
</svg>
