<svg xmlns="http://www.w3.org/2000/svg" width="30" height="32" viewBox="0 0 30 32" fill="none">
  <g clip-path="url(#clip0_8275_863)">
    <path d="M16.5134 0.587646C15.6763 -0.193604 14.317 -0.193604 13.4799 0.587646L4.90848 8.58765C4.07143 9.3689 4.07143 10.6376 4.90848 11.4189C5.74554 12.2001 7.10491 12.2001 7.94196 11.4189L12.8571 6.8314V20.0001C12.8571 21.1064 13.8147 22.0001 15 22.0001C16.1853 22.0001 17.1429 21.1064 17.1429 20.0001V6.8314L22.058 11.4189C22.8951 12.2001 24.2545 12.2001 25.0915 11.4189C25.9286 10.6376 25.9286 9.3689 25.0915 8.58765L16.5201 0.587646H16.5134ZM4.28571 22.0001C4.28571 20.8939 3.32812 20.0001 2.14286 20.0001C0.957589 20.0001 0 20.8939 0 22.0001V26.0001C0 29.3126 2.87946 32.0001 6.42857 32.0001H23.5714C27.1205 32.0001 30 29.3126 30 26.0001V22.0001C30 20.8939 29.0424 20.0001 27.8571 20.0001C26.6719 20.0001 25.7143 20.8939 25.7143 22.0001V26.0001C25.7143 27.1064 24.7567 28.0001 23.5714 28.0001H6.42857C5.2433 28.0001 4.28571 27.1064 4.28571 26.0001V22.0001Z" fill="#C7E5E5"/>
  </g>
  <defs>
    <clipPath id="clip0_8275_863">
      <rect width="30" height="32" fill="white"/>
    </clipPath>
  </defs>
</svg>