<svg xmlns="http://www.w3.org/2000/svg" width="328" height="72" fill="none"><g clip-path="url(#a)"><rect width="328" height="72" fill="#F2F3F4" rx="8"/><path fill="#fff" d="M-130 .6 149.9-161 290.7 82.872l-279.9 161.6z"/><g clip-path="url(#b)"><path fill="#0364B9" d="m-9.058 74.88-17.32 10a6 6 0 0 0-2.196 8.196l8.75 15.155 27.713-16-8.75-15.155a6 6 0 0 0-8.197-2.196Z"/><path fill="#0A559E" d="M-26.378 84.88a6 6 0 0 0-2.196 8.196l.087.151 23.546-19.046a5.976 5.976 0 0 0-4.117.699l-17.32 10ZM-.861 77.076A5.977 5.977 0 0 0-4.1 74.404L3.214 94.93 7.89 92.23l-8.75-15.155Z"/><path fill="#2A3052" d="m-20.074 107.798 27.713-16 1.5 2.599a6 6 0 0 1-2.197 8.196l-17.32 10a6 6 0 0 1-8.196-2.196l-1.5-2.599Z"/><path fill="#fff" d="M-20.374 92.595c.257.157.563.36.918.606.359.237.738.503 1.14.798.404.284.81.58 1.22.889l1.154.871-.177-1.435a78.79 78.79 0 0 1-.17-1.495c-.049-.5-.089-.96-.122-1.385-.03-.436-.048-.804-.055-1.105l1.476-.852c.345.438.717.94 1.117 1.503.402.553.81 1.14 1.223 1.76.417.61.829 1.226 1.235 1.85.414.62.798 1.207 1.154 1.76l-1.58.911c-.424-.688-.892-1.434-1.403-2.238a71.573 71.573 0 0 0-1.595-2.404l.142 1.206.154 1.324a108.286 108.286 0 0 1 .283 2.29l-1.133.654c-.229-.173-.504-.379-.827-.617a262.73 262.73 0 0 0-1.024-.767c-.35-.27-.703-.536-1.06-.802l-.973-.726c.415.878.843 1.74 1.284 2.584.441.844.854 1.622 1.237 2.334l-1.58.912c-.3-.584-.619-1.208-.956-1.872l-.985-1.995c-.324-.672-.628-1.319-.913-1.94a47.803 47.803 0 0 1-.732-1.725l1.548-.894ZM-8.239 85.59l.798 1.381-2.172 1.254 3.36 5.82-1.62.936-3.36-5.82-2.173 1.254-.798-1.382 5.965-3.444ZM-1.872 88.69a1.18 1.18 0 0 0-.442-.453c-.182-.107-.414-.148-.695-.124-.282.024-.626.116-1.032.276-.406.161-.893.405-1.461.733a50.707 50.707 0 0 0-.947-2.072 86.267 86.267 0 0 0-.966-1.936l3.897-2.25.75 1.299-2.598 1.5c.13.257.253.51.368.757.118.237.217.448.296.633 1.052-.515 1.934-.706 2.649-.573.716.122 1.283.543 1.699 1.263.192.333.311.675.357 1.027.047.353.012.7-.104 1.044a2.9 2.9 0 0 1-.611 1.005c-.286.322-.667.62-1.146.896a5.185 5.185 0 0 1-.616.3 6.406 6.406 0 0 1-.646.25 7.265 7.265 0 0 1-.575.179 2.317 2.317 0 0 1-.426.08l-.457-1.441c.217-.024.49-.08.818-.167a5.019 5.019 0 0 0 1.078-.484c.478-.276.77-.57.877-.881.103-.318.08-.605-.067-.862ZM-7.753 107.398l.136-.064.182-.105c.406-.234.646-.51.722-.826.08-.318.015-.658-.193-1.018-.218-.378-.476-.609-.775-.695-.3-.086-.651-.012-1.057.222a3.008 3.008 0 0 0-.168.104 1.443 1.443 0 0 0-.16.106l1.314 2.276Zm1.684-2.496c.18.312.288.612.325.9.037.288.01.56-.082.817-.089.254-.24.493-.452.718a3.496 3.496 0 0 1-.796.612c-.146.084-.32.175-.522.273-.2.102-.404.187-.613.257l-2.025-3.507a5.19 5.19 0 0 1 .543-.404c.196-.132.367-.239.513-.323.308-.178.607-.305.896-.38.293-.076.573-.092.839-.047s.514.155.745.331c.231.177.441.427.629.753ZM-5.4 102.063c.541-.312 1.011-.454 1.41-.426.398.024.714.239.948.644.146.253.206.493.18.721-.024.222-.12.441-.285.657a7.391 7.391 0 0 1 .852.408c.152.079.304.166.457.263.15.093.295.188.433.283l-.91.525c-.133-.08-.27-.16-.409-.241a6.794 6.794 0 0 0-.412-.234 8.242 8.242 0 0 0-.393-.202 3.728 3.728 0 0 0-.37-.16l-.4.231.759 1.314-.811.468-2.049-3.549c.157-.136.325-.266.504-.388.182-.123.348-.228.497-.314Zm.447.664a2.384 2.384 0 0 0-.158.098l-.124.085.564.977.228-.132c.305-.176.501-.34.589-.492.088-.152.078-.32-.028-.504-.102-.177-.241-.262-.418-.257-.176 0-.394.075-.653.225ZM.11 103.739a31.66 31.66 0 0 1-.965-.697 41.323 41.323 0 0 1-.953-.739c-.308-.247-.6-.484-.876-.713a43.368 43.368 0 0 1-.72-.624l.894-.516.613.547.664.573.645.542c.206.172.39.318.55.437a17.128 17.128 0 0 0-.108-.692 28.388 28.388 0 0 0-.147-.83 94.121 94.121 0 0 0-.326-1.669l.863-.498c.052.275.11.588.174.939a37.766 37.766 0 0 1 .348 2.307c.05.405.09.8.123 1.183l-.78.45Z"/></g><g clip-path="url(#c)"><path fill="#0364B9" d="m-14.628-17.974-17.32 10A6 6 0 0 0-34.145.223l8.75 15.155 27.713-16-8.75-15.155a6 6 0 0 0-8.196-2.197Z"/><path fill="#0A559E" d="M-31.948-7.974A6 6 0 0 0-34.145.223l.088.15 23.545-19.046a5.976 5.976 0 0 0-4.116.7l-17.32 10ZM-6.432-15.777a5.977 5.977 0 0 0-3.237-2.672l7.313 20.525L2.318-.622l-8.75-15.155Z"/><path fill="#71BD0E" d="m-25.645 14.945 27.713-16 1.5 2.598a6 6 0 0 1-2.196 8.196l-17.32 10a6 6 0 0 1-8.197-2.196l-1.5-2.598Z"/><path fill="#fff" d="M-25.944-.258c.257.156.563.359.918.606.358.237.738.502 1.14.797.403.284.81.58 1.22.89l1.154.87-.178-1.435a78.869 78.869 0 0 1-.17-1.495c-.048-.499-.088-.96-.121-1.385-.03-.435-.048-.804-.055-1.104l1.475-.852c.346.438.718.939 1.117 1.503.403.553.81 1.14 1.224 1.76.417.609.828 1.226 1.235 1.85.413.62.798 1.207 1.154 1.759l-1.58.912c-.425-.688-.892-1.434-1.403-2.239A71.37 71.37 0 0 0-20.41-.225l.143 1.207.154 1.324a108.318 108.318 0 0 1 .283 2.29l-1.133.653-.827-.617-1.025-.766c-.35-.27-.702-.537-1.059-.802l-.973-.727c.414.879.842 1.74 1.284 2.584.441.845.853 1.623 1.237 2.335l-1.58.912c-.3-.584-.62-1.209-.957-1.873l-.985-1.995c-.323-.672-.627-1.318-.912-1.94a47.71 47.71 0 0 1-.732-1.724l1.548-.894ZM-13.809-7.264l.798 1.382-2.172 1.254 3.36 5.82-1.621.936-3.36-5.82-2.172 1.254-.798-1.382 5.965-3.444ZM-7.443-4.164a1.18 1.18 0 0 0-.44-.452c-.183-.107-.415-.149-.697-.125-.281.024-.625.116-1.031.277-.406.16-.893.405-1.462.733a50.718 50.718 0 0 0-.947-2.072 86.1 86.1 0 0 0-.965-1.937l3.897-2.25.75 1.3-2.598 1.5c.13.257.253.51.368.757.118.236.217.447.296.632 1.051-.514 1.934-.705 2.648-.573.717.122 1.284.543 1.7 1.264.192.333.31.675.357 1.027.046.352.012.7-.104 1.044a2.9 2.9 0 0 1-.612 1.004c-.285.322-.667.62-1.145.897a5.183 5.183 0 0 1-.616.3 6.41 6.41 0 0 1-.647.249 7.295 7.295 0 0 1-.575.18 2.309 2.309 0 0 1-.425.079l-.457-1.44c.217-.024.49-.08.817-.168a5.02 5.02 0 0 0 1.079-.484c.478-.276.77-.57.877-.88.103-.319.08-.606-.068-.862ZM-12.36 14.873l-2.08-3.601 2.411-1.392.393.68-1.6.924.435.754 1.424-.822.393.68-1.424.822.858 1.487-.81.468ZM-11.456 9.549l.81-.468 2.08 3.6-.811.469-2.08-3.601ZM-5.317 10.806c-.47-.279-.956-.54-1.458-.786a14.32 14.32 0 0 0-1.52-.64l1.362 2.359-.8.462-2.08-3.601.66-.381c.181.048.389.115.623.202.235.086.478.183.73.292.254.103.51.216.77.338.258.119.504.236.736.35L-7.52 7.278l.806-.465 2.079 3.6-.68.394Z"/></g><g clip-path="url(#d)"><path fill="#0364B9" d="m6.173 18.054-17.32 10a6 6 0 0 0-2.197 8.196l8.75 15.155 27.713-16-8.75-15.155a6 6 0 0 0-8.196-2.196Z"/><path fill="#0A559E" d="M-11.148 28.054a6 6 0 0 0-2.196 8.196l.087.15L10.29 17.356a5.977 5.977 0 0 0-4.116.699l-17.32 10ZM14.37 20.25a5.978 5.978 0 0 0-3.238-2.672l7.313 20.526 4.674-2.699-8.75-15.155Z"/><path fill="#2A3052" d="m-4.844 50.972 27.713-16 1.5 2.598a6 6 0 0 1-2.196 8.197l-17.32 10a6 6 0 0 1-8.197-2.197l-1.5-2.598Z"/><path fill="#fff" d="M-5.143 35.77c.257.156.563.358.918.605.358.237.738.503 1.14.798.403.283.81.58 1.22.889l1.154.871-.178-1.435a78.941 78.941 0 0 1-.17-1.495 74.03 74.03 0 0 1-.121-1.386c-.03-.435-.048-.803-.056-1.104l1.476-.852c.345.438.718.94 1.117 1.503.402.553.81 1.14 1.224 1.76.416.61.828 1.226 1.235 1.85.413.62.798 1.207 1.154 1.76l-1.58.911c-.425-.688-.893-1.434-1.403-2.238A71.257 71.257 0 0 0 .39 35.803l.142 1.206.155 1.324a108.9 108.9 0 0 1 .283 2.29l-1.133.654c-.23-.173-.505-.379-.828-.617-.326-.246-.668-.502-1.024-.767-.35-.27-.702-.537-1.059-.802a539.05 539.05 0 0 1-.974-.726c.415.878.843 1.74 1.285 2.584.44.844.853 1.622 1.236 2.334l-1.58.912c-.3-.584-.618-1.208-.956-1.873l-.985-1.994c-.324-.672-.628-1.32-.912-1.94a47.699 47.699 0 0 1-.733-1.725l1.549-.894ZM6.992 28.763l.798 1.382L5.618 31.4l3.36 5.82-1.621.936-3.36-5.82-2.172 1.254-.798-1.382 5.965-3.444ZM13.358 31.863a1.18 1.18 0 0 0-.441-.452c-.182-.107-.414-.149-.696-.125-.281.024-.625.117-1.031.277-.407.16-.894.405-1.462.733a50.707 50.707 0 0 0-.947-2.072 85.994 85.994 0 0 0-.965-1.936l3.897-2.25.75 1.299-2.598 1.5c.13.257.252.51.368.757.118.237.216.447.296.633 1.051-.515 1.934-.706 2.648-.573.717.122 1.283.543 1.7 1.263.191.333.31.675.357 1.027.046.352.011.7-.104 1.044a2.9 2.9 0 0 1-.612 1.005c-.285.321-.667.62-1.145.896a5.184 5.184 0 0 1-.616.3 6.404 6.404 0 0 1-.647.25 7.26 7.26 0 0 1-.575.179 2.309 2.309 0 0 1-.425.08l-.458-1.441c.218-.024.49-.08.818-.167a5.018 5.018 0 0 0 1.079-.485c.478-.276.77-.57.877-.88.103-.318.08-.605-.068-.862ZM7.478 50.572l.136-.065.182-.105c.405-.234.646-.509.722-.825.08-.319.015-.658-.193-1.018-.218-.378-.477-.61-.776-.695-.299-.086-.651-.012-1.056.222a3.346 3.346 0 0 0-.169.104c-.059.034-.112.07-.16.106l1.314 2.276Zm1.683-2.496c.18.312.289.611.326.9.037.288.01.56-.083.816-.088.255-.239.494-.451.718a3.492 3.492 0 0 1-.797.613c-.145.084-.32.175-.521.273-.2.102-.405.187-.614.257l-2.025-3.507c.167-.143.348-.277.543-.404a9.13 9.13 0 0 1 .513-.324c.308-.178.607-.304.897-.379a1.98 1.98 0 0 1 .838-.047c.266.045.515.155.746.331.23.176.44.427.628.753ZM9.831 45.236c.54-.311 1.01-.453 1.41-.425.398.024.713.239.947.644.146.253.207.493.18.72-.024.222-.119.441-.285.658.125.047.26.108.409.18.145.068.293.144.443.228a9.98 9.98 0 0 1 .89.546l-.909.525c-.133-.08-.27-.16-.41-.242a6.846 6.846 0 0 0-.411-.233 7.614 7.614 0 0 0-.394-.202 3.813 3.813 0 0 0-.37-.16l-.4.23.76 1.315-.812.468-2.048-3.549c.156-.137.324-.266.503-.388.183-.124.348-.229.497-.315Zm.446.665a2.608 2.608 0 0 0-.158.098l-.124.085.564.977.229-.132c.305-.176.5-.34.588-.492.088-.152.079-.32-.027-.504-.102-.177-.242-.262-.419-.257-.175 0-.393.075-.653.225ZM15.34 46.913c-.316-.22-.638-.452-.964-.698a40.935 40.935 0 0 1-.953-.738c-.309-.247-.601-.485-.876-.714a45.155 45.155 0 0 1-.72-.623l.893-.516.614.546.663.574c.225.189.44.37.646.541.205.173.389.319.55.438a17.016 17.016 0 0 0-.109-.692 28.794 28.794 0 0 0-.146-.83 99.43 99.43 0 0 0-.326-1.669l.862-.498c.053.275.11.587.175.938a38.014 38.014 0 0 1 .348 2.307c.05.406.09.8.122 1.184l-.78.45Z"/></g><g clip-path="url(#e)"><path fill="#0364B9" d="m26.97 54.08-17.32 10a6 6 0 0 0-2.197 8.196l8.75 15.156 27.713-16-8.75-15.156a6 6 0 0 0-8.196-2.196Z"/><path fill="#0A559E" d="M9.65 64.08a6 6 0 0 0-2.197 8.196l.087.151 23.546-19.046a5.976 5.976 0 0 0-4.116.7l-17.32 10ZM35.166 56.276a5.977 5.977 0 0 0-3.238-2.672l7.314 20.526 4.674-2.698-8.75-15.156Z"/><path fill="#71BD0E" d="m15.953 86.999 27.713-16 1.5 2.598a6 6 0 0 1-2.196 8.196l-17.32 10a6 6 0 0 1-8.197-2.196l-1.5-2.598Z"/><path fill="#fff" d="M15.654 71.796c.256.156.562.358.918.606.358.236.738.502 1.139.797.404.284.81.58 1.22.889l1.154.872-.177-1.436a78.79 78.79 0 0 1-.17-1.495c-.048-.499-.089-.96-.121-1.385-.03-.436-.049-.804-.056-1.104l1.476-.852c.345.438.718.938 1.117 1.502.402.553.81 1.14 1.224 1.76.416.61.828 1.226 1.235 1.85.413.621.798 1.207 1.154 1.76l-1.58.911c-.425-.687-.893-1.433-1.403-2.238a71.267 71.267 0 0 0-1.596-2.404l.142 1.206.155 1.325a110.477 110.477 0 0 1 .282 2.289l-1.132.654a118.94 118.94 0 0 0-.828-.617 255.13 255.13 0 0 0-1.024-.767c-.35-.269-.703-.536-1.059-.801l-.974-.727c.415.878.843 1.74 1.284 2.584.442.845.854 1.623 1.237 2.334l-1.58.912c-.3-.584-.618-1.208-.956-1.872l-.985-1.995c-.324-.672-.628-1.319-.912-1.94a47.639 47.639 0 0 1-.733-1.724l1.549-.894ZM27.789 64.79l.798 1.382-2.172 1.254 3.36 5.82-1.621.935-3.36-5.82-2.172 1.255-.799-1.383 5.966-3.444ZM34.155 67.89a1.18 1.18 0 0 0-.441-.452c-.182-.108-.414-.15-.696-.125-.282.024-.626.116-1.032.277-.406.16-.893.405-1.461.733a50.72 50.72 0 0 0-.947-2.072 85.967 85.967 0 0 0-.966-1.937l3.898-2.25.75 1.299-2.599 1.5c.13.257.253.51.368.757.119.237.217.448.297.633 1.051-.515 1.934-.706 2.648-.573.717.122 1.283.543 1.7 1.264.191.332.31.675.357 1.027.046.352.011.7-.104 1.043-.116.344-.32.68-.612 1.005-.285.322-.667.62-1.145.897a5.184 5.184 0 0 1-.617.3 6.414 6.414 0 0 1-.646.249 7.357 7.357 0 0 1-.575.18 2.317 2.317 0 0 1-.425.079l-.458-1.44c.217-.025.49-.08.818-.168a5.018 5.018 0 0 0 1.078-.484c.479-.276.77-.57.878-.88.102-.319.08-.606-.068-.862ZM29.237 86.926l-2.08-3.6 2.412-1.393.393.681-1.6.924.434.753 1.424-.822.393.681-1.424.822.858 1.486-.81.468ZM30.142 81.603l.81-.468 2.08 3.6-.811.469-2.08-3.601ZM36.28 82.86c-.47-.279-.955-.54-1.458-.787a14.32 14.32 0 0 0-1.52-.64l1.363 2.36-.8.461-2.08-3.6.66-.382c.18.049.388.116.623.202.234.087.478.184.73.292a29.705 29.705 0 0 1 1.506.69l-1.227-2.126.806-.465 2.078 3.601-.68.393Z"/></g><g clip-path="url(#f)"><path fill="#0364B9" d="m21.396-38.774-17.32 10a6 6 0 0 0-2.197 8.196l8.75 15.155 27.713-16-8.75-15.155a6 6 0 0 0-8.196-2.196Z"/><path fill="#0A559E" d="M4.075-28.774a6 6 0 0 0-2.196 8.196l.087.15 23.546-19.046a5.976 5.976 0 0 0-4.116.7l-17.32 10ZM29.592-36.578a5.977 5.977 0 0 0-3.238-2.672l7.313 20.526 4.675-2.699-8.75-15.155Z"/><path fill="#2A3052" d="m10.379-5.856 27.713-16 1.5 2.598a6 6 0 0 1-2.196 8.196l-17.32 10a6 6 0 0 1-8.197-2.196l-1.5-2.598Z"/><path fill="#fff" d="M10.08-21.059c.256.157.562.359.918.606.358.237.738.502 1.139.797.404.284.81.58 1.22.89l1.154.871-.177-1.436a79.603 79.603 0 0 1-.17-1.495c-.049-.498-.089-.96-.121-1.385-.03-.435-.049-.803-.056-1.104l1.476-.852c.345.438.717.939 1.117 1.503.402.553.81 1.14 1.224 1.76.416.61.828 1.226 1.234 1.85.414.62.799 1.207 1.154 1.759l-1.58.912c-.424-.688-.892-1.434-1.402-2.238a71.42 71.42 0 0 0-1.596-2.405l.142 1.207.155 1.324a110.537 110.537 0 0 1 .282 2.29l-1.133.653a118.94 118.94 0 0 0-.827-.617l-1.024-.766c-.35-.27-.703-.537-1.06-.802l-.973-.727c.415.879.843 1.74 1.284 2.585.442.844.854 1.622 1.237 2.334l-1.58.912c-.3-.584-.619-1.208-.956-1.873a2660.9 2660.9 0 0 1-.985-1.994c-.324-.673-.628-1.32-.912-1.94a47.757 47.757 0 0 1-.733-1.725l1.548-.894ZM22.215-28.065l.797 1.382-2.172 1.254 3.36 5.82-1.62.936-3.36-5.82-2.173 1.254-.798-1.382 5.966-3.444ZM28.58-24.965a1.18 1.18 0 0 0-.44-.452c-.183-.107-.414-.149-.696-.125-.282.024-.626.117-1.032.277-.406.16-.893.405-1.461.733a50.72 50.72 0 0 0-.947-2.072 86.179 86.179 0 0 0-.966-1.937l3.897-2.25.75 1.3-2.598 1.5c.13.257.253.51.368.757.118.237.217.447.296.633 1.052-.515 1.935-.706 2.649-.573.717.122 1.283.543 1.7 1.263.191.333.31.675.356 1.027.047.352.012.7-.104 1.044-.115.344-.32.679-.611 1.004-.286.322-.667.621-1.145.897a5.185 5.185 0 0 1-.617.3 6.403 6.403 0 0 1-.646.249 7.272 7.272 0 0 1-.575.18 2.318 2.318 0 0 1-.426.079l-.457-1.44c.217-.024.49-.08.818-.168a5.023 5.023 0 0 0 1.078-.484c.478-.276.77-.57.877-.88.103-.318.08-.605-.067-.862ZM22.7-6.256l.137-.065.181-.105c.406-.234.646-.509.722-.825.08-.319.016-.658-.192-1.018-.218-.378-.477-.61-.776-.696-.3-.086-.651-.012-1.057.222a3.341 3.341 0 0 0-.168.105c-.059.034-.112.069-.16.106L22.7-6.256Zm1.684-2.496c.18.311.289.611.326.9.037.288.009.56-.083.816-.089.255-.24.494-.452.718a3.492 3.492 0 0 1-.796.613 8.38 8.38 0 0 1-.521.273 4.51 4.51 0 0 1-.614.257l-2.025-3.507c.167-.143.348-.278.543-.404.196-.132.367-.24.513-.324.308-.178.607-.304.896-.379a1.98 1.98 0 0 1 .839-.047c.266.045.515.155.746.331.23.176.44.427.628.753ZM25.054-11.592c.54-.312 1.01-.454 1.41-.426.397.025.713.24.947.645.146.253.206.493.18.72-.024.222-.12.441-.285.657.124.048.26.108.408.18.146.068.294.145.444.229a10.041 10.041 0 0 1 .89.546l-.909.525-.41-.242a6.828 6.828 0 0 0-.411-.233 7.528 7.528 0 0 0-.394-.202 3.792 3.792 0 0 0-.37-.16l-.4.23.759 1.315-.81.468-2.05-3.55c.157-.136.325-.265.504-.387.182-.124.348-.229.497-.315Zm.446.664a2.659 2.659 0 0 0-.282.184l.564.977.228-.132c.305-.176.502-.34.59-.492.087-.153.078-.32-.028-.504-.102-.177-.242-.263-.42-.257-.175 0-.392.074-.652.224ZM30.562-9.915a31.22 31.22 0 0 1-.964-.698 40.936 40.936 0 0 1-.953-.738c-.308-.247-.6-.485-.876-.714a45.602 45.602 0 0 1-.72-.623l.894-.516.613.546.664.573c.224.19.44.37.645.542.206.173.39.318.55.438a17.224 17.224 0 0 0-.108-.693 28.86 28.86 0 0 0-.147-.83 94.729 94.729 0 0 0-.326-1.669l.863-.497c.052.274.11.587.174.938a37.662 37.662 0 0 1 .349 2.307c.049.406.09.8.122 1.184l-.78.45Z"/></g><g clip-path="url(#g)"><path fill="#0364B9" d="m42.196-2.747-17.32 10a6 6 0 0 0-2.196 8.196l8.75 15.156 27.712-16-8.75-15.156a6 6 0 0 0-8.196-2.196Z"/><path fill="#0A559E" d="M24.876 7.253a6 6 0 0 0-2.196 8.196l.087.151L46.313-3.446a5.977 5.977 0 0 0-4.117.699l-17.32 10ZM50.392-.55a5.978 5.978 0 0 0-3.237-2.673l7.313 20.526 4.674-2.699L50.392-.55Z"/><path fill="#71BD0E" d="m31.18 30.172 27.712-16 1.5 2.598a6 6 0 0 1-2.196 8.196l-17.32 10a6 6 0 0 1-8.196-2.196l-1.5-2.599Z"/><path fill="#fff" d="M30.88 14.968c.257.157.563.36.918.607.359.236.738.502 1.14.797.404.284.81.58 1.22.889l1.154.871-.178-1.435a78.977 78.977 0 0 1-.17-1.495c-.048-.5-.088-.96-.12-1.385-.03-.436-.049-.804-.056-1.105l1.476-.852c.345.439.717.94 1.116 1.503.403.553.81 1.14 1.224 1.76.417.61.828 1.226 1.235 1.85.414.62.798 1.207 1.154 1.76l-1.58.911a215.68 215.68 0 0 0-1.403-2.238 71.321 71.321 0 0 0-1.596-2.404l.143 1.206.154 1.324a108.296 108.296 0 0 1 .283 2.29l-1.133.654a115.54 115.54 0 0 0-.827-.617c-.327-.246-.668-.501-1.025-.767-.35-.269-.702-.536-1.058-.802l-.974-.726c.415.878.843 1.74 1.284 2.584.441.844.854 1.622 1.237 2.334l-1.58.912c-.3-.584-.619-1.208-.956-1.872l-.986-1.995c-.323-.672-.627-1.319-.912-1.94a47.651 47.651 0 0 1-.732-1.725l1.548-.894ZM43.015 7.962l.798 1.382-2.172 1.254 3.36 5.82-1.62.936-3.36-5.82-2.173 1.254-.798-1.382 5.965-3.444ZM49.381 11.063a1.18 1.18 0 0 0-.44-.453c-.183-.107-.415-.149-.696-.124-.282.024-.626.116-1.032.277-.406.16-.893.405-1.461.732a50.658 50.658 0 0 0-.947-2.072 86.524 86.524 0 0 0-.966-1.936l3.897-2.25.75 1.299-2.598 1.5c.13.257.253.51.368.757.118.237.217.448.296.633 1.052-.515 1.934-.706 2.648-.573.717.122 1.284.543 1.7 1.264.192.332.311.674.357 1.026.046.352.012.7-.104 1.044a2.9 2.9 0 0 1-.611 1.005c-.286.322-.668.62-1.146.896a5.185 5.185 0 0 1-.616.3 6.411 6.411 0 0 1-.646.25 7.26 7.26 0 0 1-.576.179 2.3 2.3 0 0 1-.425.08l-.457-1.44c.217-.025.49-.08.818-.168a5.02 5.02 0 0 0 1.078-.484c.478-.276.77-.57.877-.881.103-.318.08-.605-.068-.861ZM44.463 30.1l-2.079-3.602 2.411-1.392.393.68-1.6.925.435.753 1.424-.822.393.681-1.424.822.858 1.486-.81.468ZM45.368 24.776l.81-.468 2.08 3.6-.81.468-2.08-3.6ZM51.507 26.032c-.47-.278-.956-.54-1.458-.786a14.339 14.339 0 0 0-1.52-.64l1.362 2.36-.8.461-2.079-3.6.66-.382c.18.049.388.116.622.202.235.086.478.184.73.292.254.103.51.216.77.338.259.12.504.236.737.351l-1.227-2.125.805-.465 2.08 3.601-.682.393Z"/></g><g clip-path="url(#h)"><path fill="#0364B9" d="m62.993 33.28-17.32 10a6 6 0 0 0-2.196 8.195l8.75 15.156 27.712-16-8.75-15.156a6 6 0 0 0-8.196-2.196Z"/><path fill="#0A559E" d="M45.673 43.28a6 6 0 0 0-2.196 8.195l.087.151L67.109 32.58a5.977 5.977 0 0 0-4.116.7l-17.32 10ZM71.19 35.475a5.977 5.977 0 0 0-3.238-2.671l7.313 20.525 4.674-2.698-8.75-15.156Z"/><path fill="#2A3052" d="m51.977 66.198 27.712-16 1.5 2.598a6 6 0 0 1-2.196 8.196l-17.32 10a6 6 0 0 1-8.196-2.196l-1.5-2.598Z"/><path fill="#fff" d="M51.677 50.995c.257.156.563.358.918.606.358.236.738.502 1.14.797.404.284.81.58 1.22.89l1.154.87-.178-1.435a78.893 78.893 0 0 1-.17-1.495 74.92 74.92 0 0 1-.12-1.385c-.03-.436-.05-.804-.056-1.104l1.475-.852c.346.438.718.939 1.117 1.503.403.553.81 1.14 1.224 1.76.417.609.828 1.226 1.235 1.85.413.62.798 1.206 1.154 1.759l-1.58.912c-.425-.688-.892-1.434-1.403-2.239a71.267 71.267 0 0 0-1.596-2.404l.143 1.207.154 1.324a108.286 108.286 0 0 1 .283 2.29l-1.133.653-.827-.617a262.73 262.73 0 0 0-1.025-.766c-.35-.27-.702-.537-1.059-.802l-.973-.727c.414.878.843 1.74 1.284 2.584.441.845.853 1.623 1.237 2.335l-1.58.912c-.3-.584-.619-1.209-.956-1.873-.33-.668-.66-1.333-.986-1.995-.323-.672-.627-1.319-.912-1.94a47.727 47.727 0 0 1-.732-1.724l1.548-.894ZM63.812 43.989l.798 1.382-2.172 1.254 3.36 5.82-1.621.935-3.36-5.82-2.172 1.255-.798-1.382 5.965-3.444ZM70.178 47.089a1.18 1.18 0 0 0-.44-.452c-.183-.108-.415-.15-.697-.125-.281.024-.625.116-1.031.277-.406.16-.893.405-1.462.733a50.722 50.722 0 0 0-.947-2.072 85.95 85.95 0 0 0-.965-1.937l3.897-2.25.75 1.3-2.598 1.5c.13.256.253.509.368.757.118.236.217.447.296.632 1.051-.514 1.934-.705 2.648-.573.717.122 1.284.543 1.7 1.264.192.332.31.675.357 1.027.046.352.012.7-.104 1.044-.115.343-.32.678-.612 1.004-.285.322-.667.62-1.145.897a5.177 5.177 0 0 1-.616.3 6.38 6.38 0 0 1-.647.249 7.26 7.26 0 0 1-.575.18 2.309 2.309 0 0 1-.425.079l-.457-1.44c.217-.024.49-.08.817-.168a5.025 5.025 0 0 0 1.079-.484c.478-.276.77-.57.877-.88.103-.319.08-.606-.068-.862ZM64.298 65.798l.136-.065.182-.105c.405-.234.646-.51.722-.826.08-.318.015-.657-.193-1.018-.218-.377-.476-.609-.775-.695-.3-.086-.652-.012-1.057.222a3.317 3.317 0 0 0-.168.104c-.06.034-.113.07-.16.107l1.313 2.276Zm1.684-2.497c.18.312.288.612.325.9.037.288.01.56-.082.817-.09.254-.24.494-.452.718a3.49 3.49 0 0 1-.796.612c-.146.084-.32.175-.522.273-.2.102-.404.188-.613.258l-2.025-3.508c.167-.142.348-.277.543-.403.196-.132.367-.24.513-.324.308-.178.607-.304.896-.38a1.98 1.98 0 0 1 .839-.047c.266.045.514.156.745.332.231.176.44.427.629.752ZM66.652 60.462c.54-.312 1.01-.454 1.41-.426.397.025.713.24.947.645.146.253.206.493.18.72-.024.222-.12.441-.286.657.125.048.261.108.409.18.146.068.294.144.444.229a9.98 9.98 0 0 1 .89.546l-.91.525c-.133-.08-.27-.16-.409-.242a6.846 6.846 0 0 0-.412-.233 7.574 7.574 0 0 0-.394-.203 3.813 3.813 0 0 0-.37-.16l-.4.23.76 1.316-.811.468-2.05-3.55a5.32 5.32 0 0 1 .504-.387c.183-.124.349-.229.498-.315Zm.445.664a2.659 2.659 0 0 0-.282.184l.564.977.23-.132c.304-.176.5-.34.588-.493.087-.152.078-.32-.028-.503-.102-.177-.241-.263-.418-.258-.176 0-.394.075-.654.225ZM72.16 62.139c-.316-.22-.637-.452-.964-.698a41.15 41.15 0 0 1-.953-.739c-.309-.246-.6-.484-.876-.713a45.602 45.602 0 0 1-.72-.623l.893-.516c.19.167.394.35.614.546l.663.573.646.542c.206.172.389.318.55.437a17.016 17.016 0 0 0-.109-.692 28.794 28.794 0 0 0-.146-.83c-.051-.289-.106-.576-.165-.86-.057-.291-.11-.56-.161-.808l.862-.498c.053.274.111.587.175.938a37.672 37.672 0 0 1 .348 2.307c.05.406.09.8.122 1.183l-.78.45Z"/></g><g clip-path="url(#i)"><path fill="#0364B9" d="m83.794 69.306-17.32 10a6 6 0 0 0-2.197 8.196l8.75 15.155 27.713-16-8.75-15.155a6 6 0 0 0-8.196-2.196Z"/><path fill="#0A559E" d="M66.474 79.306a6 6 0 0 0-2.197 8.196l.088.15L87.91 68.607a5.976 5.976 0 0 0-4.116.7l-17.32 10ZM91.99 71.502a5.978 5.978 0 0 0-3.237-2.672l7.313 20.526 4.674-2.699-8.75-15.155Z"/><path fill="#71BD0E" d="m72.777 102.224 27.713-16 1.5 2.598a6 6 0 0 1-2.196 8.197l-17.32 9.999a6 6 0 0 1-8.197-2.196l-1.5-2.598Z"/><path fill="#fff" d="M72.478 87.021c.257.157.563.359.918.606.358.237.738.503 1.14.797.403.284.81.58 1.22.89l1.154.871-.178-1.435a78.79 78.79 0 0 1-.17-1.496c-.048-.498-.088-.96-.121-1.385-.03-.435-.048-.803-.056-1.104l1.476-.852c.345.438.718.94 1.117 1.503.403.553.81 1.14 1.224 1.76.416.61.828 1.226 1.235 1.85.413.62.798 1.207 1.154 1.759l-1.58.912c-.425-.688-.892-1.434-1.403-2.238a71.166 71.166 0 0 0-1.596-2.404l.142 1.206.155 1.324a108.286 108.286 0 0 1 .283 2.29l-1.133.653-.827-.617a262.73 262.73 0 0 0-1.025-.766c-.35-.27-.702-.537-1.059-.802a545.94 545.94 0 0 1-.974-.726c.415.878.843 1.74 1.285 2.584.441.844.853 1.622 1.237 2.334l-1.58.912c-.3-.584-.62-1.208-.957-1.873l-.985-1.994a115.2 115.2 0 0 1-.912-1.94 47.741 47.741 0 0 1-.733-1.725l1.549-.894ZM84.613 80.015l.798 1.382-2.172 1.254 3.36 5.82-1.621.936-3.36-5.82-2.172 1.254-.798-1.382 5.965-3.444ZM90.98 83.115a1.18 1.18 0 0 0-.442-.452c-.182-.107-.414-.149-.696-.125-.281.024-.625.117-1.031.277-.407.16-.894.405-1.462.733a50.723 50.723 0 0 0-.947-2.072 86.162 86.162 0 0 0-.965-1.937l3.897-2.25.75 1.3-2.598 1.5c.13.257.252.51.368.757.118.237.216.447.296.633 1.051-.515 1.934-.706 2.648-.573.717.122 1.284.543 1.7 1.263.191.333.31.675.357 1.027.046.352.011.7-.104 1.044a2.9 2.9 0 0 1-.612 1.005c-.285.321-.667.62-1.145.896a5.184 5.184 0 0 1-.616.3 6.429 6.429 0 0 1-.647.25 7.343 7.343 0 0 1-.575.179 2.317 2.317 0 0 1-.425.08l-.458-1.441c.218-.024.49-.08.818-.168a5.018 5.018 0 0 0 1.079-.484c.478-.276.77-.57.877-.88.103-.318.08-.605-.068-.862ZM86.061 102.152l-2.079-3.601 2.411-1.392.393.68-1.6.925.435.753 1.423-.822.393.68-1.423.823.858 1.486-.811.468ZM86.966 96.828l.81-.468 2.08 3.601-.811.468-2.08-3.6ZM93.105 98.085c-.47-.278-.956-.54-1.458-.786a14.311 14.311 0 0 0-1.52-.64l1.362 2.359-.8.462-2.08-3.601.66-.381c.181.048.388.116.623.202.235.086.478.184.73.292.253.103.51.216.77.338.258.12.504.236.736.351l-1.227-2.125.806-.465 2.079 3.601-.681.393Z"/></g><g clip-path="url(#j)"><path fill="#0364B9" d="m78.224-23.547-17.32 10a6 6 0 0 0-2.197 8.196l8.75 15.156 27.713-16-8.75-15.156a6 6 0 0 0-8.196-2.196Z"/><path fill="#0A559E" d="M60.903-13.547a6 6 0 0 0-2.196 8.196l.087.151L82.34-24.246a5.977 5.977 0 0 0-4.116.7l-17.32 10ZM86.42-21.35a5.977 5.977 0 0 0-3.238-2.672l7.314 20.525 4.674-2.698-8.75-15.156Z"/><path fill="#2A3052" d="m67.207 9.372 27.713-16 1.5 2.598a6 6 0 0 1-2.196 8.196l-17.32 10a6 6 0 0 1-8.197-2.196l-1.5-2.598Z"/><path fill="#fff" d="M66.908-5.831c.256.156.562.358.918.606a27.8 27.8 0 0 1 1.139.797c.404.284.81.58 1.22.89l1.154.87-.177-1.435a78.875 78.875 0 0 1-.17-1.495c-.049-.499-.089-.96-.121-1.385-.03-.436-.049-.804-.056-1.104l1.476-.852c.345.438.717.939 1.117 1.502.402.553.81 1.14 1.224 1.76.416.61.828 1.226 1.234 1.85.414.621.799 1.207 1.154 1.76l-1.58.911c-.424-.687-.892-1.433-1.402-2.238a71.218 71.218 0 0 0-1.596-2.404l.142 1.207.155 1.324a110.51 110.51 0 0 1 .282 2.289l-1.132.654c-.23-.173-.505-.378-.828-.617-.326-.246-.668-.501-1.024-.766-.35-.27-.703-.537-1.06-.802l-.973-.727c.415.878.843 1.74 1.284 2.584.442.845.854 1.623 1.237 2.334l-1.58.912c-.3-.584-.619-1.208-.956-1.872a2708.6 2708.6 0 0 1-.985-1.995 114.13 114.13 0 0 1-.912-1.94 47.548 47.548 0 0 1-.733-1.724l1.549-.894ZM79.043-12.838l.798 1.383-2.172 1.254 3.36 5.82-1.622.935-3.36-5.82-2.172 1.255-.798-1.383 5.966-3.444ZM85.409-9.737a1.18 1.18 0 0 0-.441-.452c-.182-.108-.414-.15-.696-.125-.282.024-.626.116-1.032.277-.406.16-.893.405-1.461.733a50.703 50.703 0 0 0-.947-2.072 86.162 86.162 0 0 0-.966-1.937l3.897-2.25.75 1.299-2.598 1.5c.13.257.253.51.368.757.118.237.217.448.296.633 1.052-.515 1.935-.706 2.649-.573.717.122 1.283.543 1.7 1.264.191.332.31.675.356 1.027.047.352.012.7-.104 1.044-.115.343-.319.678-.611 1.004-.285.322-.667.62-1.145.897a5.182 5.182 0 0 1-.617.3 6.418 6.418 0 0 1-.646.249 7.3 7.3 0 0 1-.575.18 2.308 2.308 0 0 1-.426.079l-.457-1.44c.217-.025.49-.08.818-.168a5.02 5.02 0 0 0 1.078-.484c.478-.276.77-.57.878-.88.102-.319.08-.606-.068-.862ZM79.529 8.971l.136-.064.181-.105c.406-.234.647-.51.722-.826.08-.318.016-.657-.192-1.018-.218-.377-.477-.61-.776-.695-.299-.086-.651-.012-1.056.222a3.394 3.394 0 0 0-.169.104c-.059.034-.112.07-.16.106l1.314 2.276Zm1.683-2.496c.18.312.289.612.326.9.037.288.01.56-.083.817-.089.254-.24.494-.451.718a3.49 3.49 0 0 1-.797.612c-.145.084-.32.175-.521.273-.2.102-.405.188-.614.258l-2.025-3.508c.167-.143.348-.277.543-.403.197-.132.367-.24.513-.324.308-.178.607-.305.897-.38a1.98 1.98 0 0 1 .838-.047c.266.045.515.156.746.332.23.176.44.427.628.752ZM81.882 3.636c.54-.312 1.01-.454 1.41-.426.397.024.713.24.947.645.146.252.206.493.18.72-.024.222-.119.44-.285.657.124.048.26.108.408.18.146.068.294.144.444.228a10.037 10.037 0 0 1 .89.546l-.909.525c-.134-.08-.27-.16-.41-.241a6.828 6.828 0 0 0-.411-.233 7.528 7.528 0 0 0-.394-.203 3.781 3.781 0 0 0-.37-.16l-.4.23.759 1.315-.81.468-2.05-3.549c.157-.136.325-.265.504-.387.182-.124.348-.23.497-.315Zm.446.664a2.628 2.628 0 0 0-.282.184l.564.976.228-.132c.305-.176.502-.34.59-.492.087-.152.078-.32-.028-.504-.102-.176-.242-.262-.419-.257-.176 0-.393.075-.653.225ZM87.39 5.312c-.316-.219-.637-.452-.963-.697a40.99 40.99 0 0 1-.953-.739c-.31-.246-.601-.484-.877-.713a45.836 45.836 0 0 1-.72-.624l.894-.516c.19.168.394.35.613.547.222.19.443.382.664.573l.645.542c.206.172.39.318.55.437a17.193 17.193 0 0 0-.108-.692 28.516 28.516 0 0 0-.147-.83 99.146 99.146 0 0 0-.326-1.669l.863-.498c.052.275.11.588.174.939a37.652 37.652 0 0 1 .349 2.307c.05.405.09.8.122 1.183l-.78.45Z"/></g><g clip-path="url(#k)"><path fill="#0364B9" d="m99.02 12.48-17.32 10a6 6 0 0 0-2.196 8.196l8.75 15.155 27.713-16-8.75-15.155a6 6 0 0 0-8.196-2.197Z"/><path fill="#0A559E" d="M81.7 22.48a6 6 0 0 0-2.196 8.196l.087.15 23.546-19.046a5.976 5.976 0 0 0-4.116.7l-17.32 10ZM107.217 14.676a5.976 5.976 0 0 0-3.238-2.672l7.313 20.525 4.675-2.698-8.75-15.155Z"/><path fill="#71BD0E" d="m88.004 45.398 27.713-16 1.5 2.598a6 6 0 0 1-2.196 8.196l-17.32 10a6 6 0 0 1-8.197-2.196l-1.5-2.598Z"/><path fill="#fff" d="M87.704 30.195c.257.157.563.359.919.606.358.237.738.502 1.139.797.404.284.81.58 1.22.89l1.154.871-.177-1.436a79.603 79.603 0 0 1-.17-1.495c-.049-.499-.089-.96-.121-1.385-.03-.435-.049-.803-.056-1.104l1.476-.852c.345.438.717.939 1.117 1.503.402.553.81 1.14 1.224 1.76.416.609.828 1.226 1.234 1.85.414.62.799 1.207 1.154 1.759l-1.58.912c-.424-.688-.892-1.434-1.402-2.239a71.42 71.42 0 0 0-1.596-2.404 521.944 521.944 0 0 1 .297 2.53 110.537 110.537 0 0 1 .282 2.29l-1.132.654a118.94 118.94 0 0 0-.828-.617l-1.024-.766c-.35-.27-.703-.537-1.06-.802l-.973-.727c.415.879.843 1.74 1.284 2.584.442.845.854 1.623 1.237 2.335l-1.58.912c-.3-.584-.619-1.209-.956-1.873a2660.9 2660.9 0 0 1-.985-1.994 114.86 114.86 0 0 1-.913-1.94 47.727 47.727 0 0 1-.732-1.725l1.548-.894ZM99.84 23.189l.798 1.382-2.172 1.254 3.36 5.82-1.622.936-3.36-5.82-2.172 1.254-.798-1.382 5.966-3.444ZM106.206 26.29a1.18 1.18 0 0 0-.441-.453c-.183-.107-.414-.149-.696-.125-.282.024-.626.117-1.032.277-.406.16-.893.405-1.461.733a51.687 51.687 0 0 0-.947-2.072 89.43 89.43 0 0 0-.966-1.937l3.897-2.25.75 1.3-2.598 1.5c.13.257.253.51.368.757.118.236.217.447.296.633 1.052-.515 1.935-.706 2.649-.573.717.121 1.283.543 1.699 1.263.192.333.311.675.357 1.027.047.352.012.7-.104 1.044a2.892 2.892 0 0 1-.611 1.004c-.286.322-.667.621-1.145.897a5.18 5.18 0 0 1-.617.3 6.383 6.383 0 0 1-.646.249 7.308 7.308 0 0 1-.575.18 2.325 2.325 0 0 1-.426.079l-.457-1.44c.217-.024.49-.08.818-.168a5.025 5.025 0 0 0 1.078-.484c.478-.276.771-.57.877-.88.103-.318.081-.606-.067-.862ZM101.288 45.326l-2.08-3.601 2.412-1.392.393.68-1.601.924.435.754 1.424-.822.393.68-1.424.823.858 1.486-.81.468ZM102.192 40.002l.811-.468 2.079 3.601-.811.468-2.079-3.6ZM108.332 41.259c-.471-.278-.957-.54-1.459-.786a14.364 14.364 0 0 0-1.519-.64l1.362 2.359-.801.462-2.079-3.601.66-.381c.181.048.388.116.623.202.234.086.477.183.729.292.254.103.511.216.771.338.258.119.503.236.736.351l-1.227-2.125.805-.465 2.079 3.6-.68.394Z"/></g><g clip-path="url(#l)"><path fill="#0364B9" d="m119.821 48.506-17.32 10a6 6 0 0 0-2.196 8.196l8.75 15.156 27.712-16-8.75-15.156a6 6 0 0 0-8.196-2.196Z"/><path fill="#0A559E" d="M102.501 58.506a6 6 0 0 0-2.196 8.196l.087.15 23.546-19.045a5.978 5.978 0 0 0-4.117.699l-17.32 10ZM128.017 50.702a5.978 5.978 0 0 0-3.237-2.672l7.313 20.526 4.674-2.698-8.75-15.156Z"/><path fill="#2A3052" d="m108.805 81.424 27.712-16 1.5 2.598a6 6 0 0 1-2.196 8.197l-17.32 10a6 6 0 0 1-8.196-2.197l-1.5-2.598Z"/><path fill="#fff" d="M108.505 66.221c.257.157.563.359.918.606.359.237.738.503 1.14.798.404.284.81.58 1.22.889l1.154.871-.178-1.435a87.844 87.844 0 0 1-.17-1.495c-.048-.5-.088-.96-.121-1.385a26.464 26.464 0 0 1-.055-1.105l1.475-.852c.346.438.718.94 1.118 1.503.402.553.81 1.14 1.223 1.76.417.61.828 1.226 1.235 1.85.414.62.798 1.207 1.154 1.76l-1.58.911c-.424-.688-.892-1.434-1.403-2.238a69.346 69.346 0 0 0-1.596-2.404l.143 1.206.154 1.324c.059.438.113.86.162 1.265.046.398.086.74.121 1.025l-1.133.654c-.229-.173-.505-.379-.827-.617-.327-.246-.668-.501-1.025-.767-.349-.27-.702-.536-1.058-.802l-.974-.726c.415.878.843 1.74 1.284 2.584.441.844.854 1.623 1.237 2.334l-1.58.912c-.3-.584-.619-1.208-.956-1.872l-.986-1.995c-.323-.672-.627-1.319-.912-1.94a49.241 49.241 0 0 1-.732-1.725l1.548-.894ZM120.64 59.215l.798 1.382-2.172 1.254 3.36 5.82-1.621.936-3.36-5.82-2.172 1.254-.798-1.382 5.965-3.444ZM127.006 62.316a1.18 1.18 0 0 0-.441-.453c-.182-.107-.414-.148-.695-.124-.282.024-.626.116-1.032.277-.406.16-.893.404-1.461.732a51.69 51.69 0 0 0-.947-2.072 89.659 89.659 0 0 0-.966-1.936l3.897-2.25.75 1.299-2.598 1.5c.13.257.253.51.368.757.118.237.217.448.296.633 1.052-.515 1.934-.706 2.648-.573.717.122 1.284.543 1.7 1.264.192.332.311.674.357 1.026.046.352.012.7-.104 1.044a2.881 2.881 0 0 1-.612 1.005c-.285.322-.667.62-1.145.896a5.164 5.164 0 0 1-.616.3 6.431 6.431 0 0 1-.646.25 7.277 7.277 0 0 1-.576.179 2.31 2.31 0 0 1-.425.08l-.457-1.441c.217-.024.49-.08.818-.167a5.02 5.02 0 0 0 1.078-.484c.478-.276.77-.57.877-.881.103-.318.08-.605-.068-.861ZM121.126 81.024c.041-.018.086-.04.136-.064l.182-.105c.405-.234.646-.51.722-.826.08-.318.015-.658-.193-1.018-.218-.378-.476-.61-.775-.695-.299-.086-.652-.012-1.057.222a3.685 3.685 0 0 0-.168.104c-.059.034-.113.07-.161.106l1.314 2.276Zm1.684-2.496c.18.312.288.612.325.9.037.288.01.56-.082.817a2.002 2.002 0 0 1-.452.718 3.495 3.495 0 0 1-.796.612c-.146.084-.32.175-.522.273a4.51 4.51 0 0 1-.613.257l-2.025-3.507c.167-.143.348-.277.543-.404.196-.132.367-.24.513-.323.308-.178.607-.305.896-.38.293-.076.573-.092.839-.047s.514.155.745.331a2.5 2.5 0 0 1 .629.753ZM123.48 75.689c.54-.312 1.01-.454 1.41-.426.397.024.713.239.947.644.146.253.206.493.18.72-.024.223-.119.442-.286.658.125.048.261.108.409.18.146.068.294.144.444.228.152.079.304.166.457.263.15.093.295.188.433.283l-.909.525c-.134-.08-.271-.16-.41-.241a6.764 6.764 0 0 0-.412-.234 7.406 7.406 0 0 0-.393-.202 3.897 3.897 0 0 0-.37-.16l-.4.23.759 1.315-.811.468-2.049-3.549c.157-.137.324-.266.504-.388.182-.124.348-.228.497-.314Zm.446.664a2.78 2.78 0 0 0-.282.183l.564.977.228-.132c.305-.176.501-.34.589-.492.088-.152.078-.32-.028-.504-.102-.177-.241-.262-.418-.257-.176 0-.394.075-.653.225ZM128.988 77.365a31.93 31.93 0 0 1-.964-.697 42.945 42.945 0 0 1-.953-.739 59.754 59.754 0 0 1-.876-.713 44.2 44.2 0 0 1-.72-.624l.894-.516.613.547.663.573.646.542c.206.172.389.318.55.437a17.228 17.228 0 0 0-.108-.692 28.969 28.969 0 0 0-.147-.83 29.756 29.756 0 0 0-.165-.861c-.056-.29-.11-.56-.161-.808l.863-.498c.052.275.11.588.174.939a37.516 37.516 0 0 1 .47 3.49l-.779.45Z"/></g><g clip-path="url(#m)"><path fill="#0364B9" d="m135.048-8.32-17.321 10a6 6 0 0 0-2.196 8.196l8.75 15.155 27.713-16-8.75-15.155a6 6 0 0 0-8.196-2.196Z"/><path fill="#0A559E" d="M117.727 1.68a6 6 0 0 0-2.196 8.196l.087.15L139.164-9.02a5.976 5.976 0 0 0-4.116.7l-17.321 10ZM143.244-6.124a5.976 5.976 0 0 0-3.238-2.672l7.314 20.526 4.674-2.699-8.75-15.155Z"/><path fill="#2A3052" d="m124.031 24.598 27.713-16 1.5 2.598a6 6 0 0 1-2.196 8.196l-17.321 10a6 6 0 0 1-8.196-2.196l-1.5-2.598Z"/><path fill="#fff" d="M123.732 9.395c.257.157.563.359.918.606.358.237.738.503 1.139.798.404.284.811.58 1.22.889l1.155.871-.178-1.435a71.363 71.363 0 0 1-.17-1.495c-.048-.5-.089-.961-.121-1.386-.03-.435-.048-.803-.056-1.104l1.476-.852c.345.438.718.94 1.117 1.503.402.553.81 1.14 1.224 1.76.416.61.828 1.226 1.235 1.85.413.62.798 1.207 1.154 1.759l-1.58.912c-.425-.688-.893-1.434-1.403-2.238a72.386 72.386 0 0 0-1.596-2.404l.142 1.206.155 1.324c.058.437.112.859.162 1.264.045.4.086.74.121 1.025l-1.133.655c-.229-.173-.505-.379-.828-.617-.326-.246-.668-.502-1.024-.767-.35-.27-.702-.537-1.059-.802l-.974-.726c.415.878.843 1.74 1.285 2.584.441.844.853 1.622 1.236 2.334l-1.579.912c-.301-.584-.619-1.208-.957-1.873l-.985-1.994a114.03 114.03 0 0 1-.912-1.94 47.698 47.698 0 0 1-.733-1.725l1.549-.894ZM135.867 2.389l.798 1.382-2.172 1.254 3.36 5.82-1.621.936-3.36-5.82-2.172 1.254-.798-1.382 5.965-3.444ZM142.233 5.49a1.18 1.18 0 0 0-.441-.453c-.182-.107-.414-.149-.696-.125-.281.024-.625.117-1.032.277-.406.16-.893.405-1.461.733a50.316 50.316 0 0 0-.947-2.072 85.365 85.365 0 0 0-.965-1.937l3.897-2.25.75 1.3-2.598 1.5c.13.257.252.51.368.757.118.237.216.447.296.633 1.051-.515 1.934-.706 2.648-.573.717.122 1.283.543 1.699 1.263.192.333.312.675.358 1.027.046.352.011.7-.104 1.044a2.91 2.91 0 0 1-.612 1.005c-.285.321-.667.62-1.145.896a5.238 5.238 0 0 1-.616.3 6.426 6.426 0 0 1-.647.25 7.338 7.338 0 0 1-.575.179 2.302 2.302 0 0 1-.425.08l-.458-1.441c.217-.024.49-.08.818-.168a5.026 5.026 0 0 0 1.079-.484c.478-.276.77-.57.877-.88.103-.318.08-.605-.068-.862ZM136.353 24.198l.136-.065.182-.105c.405-.234.646-.509.722-.825.079-.319.015-.658-.193-1.018-.218-.378-.477-.61-.776-.696-.299-.086-.651-.012-1.056.223a3.224 3.224 0 0 0-.169.104c-.059.034-.112.07-.16.106l1.314 2.276Zm1.683-2.496c.18.312.289.611.326.9.037.288.009.56-.083.816a2 2 0 0 1-.451.718 3.502 3.502 0 0 1-.797.613 8.209 8.209 0 0 1-.521.273 4.51 4.51 0 0 1-.614.257l-2.025-3.507c.167-.143.348-.277.543-.404.197-.132.368-.24.513-.324.308-.178.607-.304.897-.379a1.98 1.98 0 0 1 .838-.047c.266.045.515.155.746.331.231.176.44.427.628.753ZM138.706 18.862c.541-.312 1.011-.454 1.41-.426.398.025.713.24.947.645.146.253.207.493.181.72-.024.222-.12.441-.286.657a7.054 7.054 0 0 1 .852.409c.152.079.304.166.457.263.151.093.295.187.434.283l-.91.525c-.133-.08-.27-.16-.409-.242a6.818 6.818 0 0 0-.412-.233 7.577 7.577 0 0 0-.394-.202 3.814 3.814 0 0 0-.37-.16l-.4.23.759 1.315-.81.468-2.049-3.549c.156-.137.324-.266.503-.388.183-.124.348-.229.497-.315Zm.446.665a2.79 2.79 0 0 0-.158.098l-.124.085.564.977.229-.132c.305-.176.501-.34.588-.492.088-.152.079-.32-.027-.504-.102-.177-.242-.262-.419-.257-.175 0-.393.075-.653.224ZM144.215 20.539c-.316-.22-.638-.452-.964-.698a40.733 40.733 0 0 1-.953-.738 54.882 54.882 0 0 1-.876-.714 49.409 49.409 0 0 1-.721-.623l.894-.516.614.547.663.573.645.541c.206.173.39.319.551.438a17.444 17.444 0 0 0-.109-.693 32.72 32.72 0 0 0-.146-.83 152.015 152.015 0 0 0-.326-1.669l.862-.497c.052.275.111.587.175.938.064.351.126.722.185 1.113.059.39.113.789.163 1.194.049.406.09.8.122 1.184l-.779.45Z"/></g><g clip-path="url(#n)"><path fill="#0364B9" d="m155.849 27.706-17.321 10a6 6 0 0 0-2.196 8.196l8.75 15.156 27.713-16-8.75-15.156a6 6 0 0 0-8.196-2.196Z"/><path fill="#0A559E" d="M138.528 37.706a6 6 0 0 0-2.196 8.196l.087.151 23.546-19.046a5.975 5.975 0 0 0-4.116.7l-17.321 10ZM164.045 29.902a5.977 5.977 0 0 0-3.238-2.672l7.314 20.526 4.674-2.698-8.75-15.156Z"/><path fill="#71BD0E" d="m144.832 60.625 27.713-16 1.5 2.598a6 6 0 0 1-2.196 8.196l-17.321 10a6 6 0 0 1-8.196-2.196l-1.5-2.598Z"/><path fill="#fff" d="M144.533 45.422c.256.156.562.358.918.606.358.236.738.502 1.139.797.404.284.811.58 1.22.889l1.154.872-.177-1.436a78.963 78.963 0 0 1-.171-1.495c-.047-.499-.088-.96-.12-1.385a25.03 25.03 0 0 1-.056-1.105l1.476-.852c.345.439.717.94 1.117 1.503.402.553.81 1.14 1.224 1.76.416.61.828 1.226 1.234 1.85.414.621.799 1.207 1.154 1.76l-1.579.911c-.425-.687-.893-1.433-1.403-2.238a72.357 72.357 0 0 0-1.596-2.404l.142 1.206.155 1.324c.058.438.112.86.162 1.265.045.399.085.74.12 1.025l-1.132.654c-.229-.173-.505-.378-.828-.617-.326-.246-.668-.501-1.024-.767-.35-.269-.703-.536-1.059-.802l-.974-.726c.415.878.843 1.74 1.284 2.584.442.845.854 1.623 1.237 2.334l-1.579.912c-.301-.584-.62-1.208-.957-1.872l-.985-1.995c-.324-.672-.628-1.319-.912-1.94a47.546 47.546 0 0 1-.733-1.724l1.549-.895ZM156.668 38.415l.798 1.383-2.172 1.253 3.36 5.82-1.622.936-3.36-5.82-2.172 1.255-.798-1.383 5.966-3.444ZM163.034 41.516a1.18 1.18 0 0 0-.441-.452c-.182-.108-.414-.15-.696-.125-.282.024-.626.116-1.032.277-.406.16-.893.405-1.461.733a51.69 51.69 0 0 0-.947-2.073 85.273 85.273 0 0 0-.966-1.936l3.897-2.25.75 1.299-2.598 1.5c.13.257.253.51.368.757.119.237.217.448.296.633 1.052-.515 1.935-.706 2.649-.573.717.122 1.283.543 1.699 1.264.192.332.311.675.358 1.027.046.352.011.7-.104 1.044-.116.343-.32.678-.612 1.004-.286.322-.667.62-1.145.897a5.18 5.18 0 0 1-.617.3 6.431 6.431 0 0 1-.646.248 7.394 7.394 0 0 1-.575.18 2.308 2.308 0 0 1-.426.08l-.457-1.44c.217-.025.49-.08.818-.168a5.02 5.02 0 0 0 1.078-.484c.478-.276.771-.57.878-.88.102-.319.08-.606-.068-.862ZM158.116 60.552l-2.079-3.6 2.411-1.393.393.681-1.601.924.435.753 1.424-.822.393.681-1.424.822.858 1.486-.81.468ZM159.02 55.229l.811-.468 2.079 3.6-.811.469-2.079-3.601ZM165.16 56.485a21 21 0 0 0-1.459-.786 14.296 14.296 0 0 0-1.519-.64l1.362 2.36-.801.461-2.079-3.6.66-.382c.181.049.388.116.623.202.234.087.478.184.73.292.253.104.51.216.77.339.258.119.503.236.736.35l-1.227-2.125.805-.465 2.079 3.601-.68.393Z"/></g><g clip-path="url(#o)"><path fill="#0364B9" d="m176.649 63.732-17.32 10a6 6 0 0 0-2.196 8.197l8.75 15.155 27.713-16-8.75-15.155a6.001 6.001 0 0 0-8.197-2.197Z"/><path fill="#0A559E" d="M159.329 73.732a6 6 0 0 0-2.196 8.197l.087.15 23.546-19.046a5.979 5.979 0 0 0-4.117.7l-17.32 10ZM184.846 65.929a5.976 5.976 0 0 0-3.238-2.672l7.313 20.525 4.675-2.698-8.75-15.155Z"/><path fill="#2A3052" d="m165.633 96.651 27.713-16 1.5 2.598a6 6 0 0 1-2.197 8.196l-17.32 10a6 6 0 0 1-8.196-2.196l-1.5-2.598Z"/><path fill="#fff" d="M165.333 81.448c.257.157.563.359.918.606.359.237.738.502 1.14.797.404.284.81.58 1.22.89l1.154.87-.177-1.435a79.057 79.057 0 0 1-.171-1.495c-.048-.499-.088-.96-.121-1.385a26.472 26.472 0 0 1-.055-1.104l1.476-.852c.345.438.717.939 1.117 1.503.402.553.81 1.14 1.224 1.76.416.609.828 1.226 1.234 1.85.414.62.798 1.207 1.154 1.759l-1.579.912c-.425-.688-.893-1.434-1.404-2.239a69.25 69.25 0 0 0-1.596-2.404l.143 1.207.155 1.324a109.674 109.674 0 0 1 .282 2.29l-1.133.653c-.229-.172-.504-.378-.827-.617l-1.024-.766c-.35-.27-.703-.537-1.059-.802l-.974-.727c.415.879.843 1.74 1.284 2.584.441.845.854 1.623 1.237 2.335l-1.58.912c-.3-.584-.619-1.209-.956-1.873a1155.2 1155.2 0 0 1-.985-1.995c-.324-.672-.628-1.318-.913-1.94a49.322 49.322 0 0 1-.732-1.724l1.548-.894ZM177.468 74.442l.798 1.382-2.172 1.254 3.36 5.82-1.621.936-3.36-5.82-2.172 1.254-.798-1.382 5.965-3.444ZM183.835 77.542a1.176 1.176 0 0 0-.442-.452c-.182-.107-.414-.149-.695-.125-.282.024-.626.117-1.032.277-.406.16-.893.405-1.461.733a51.687 51.687 0 0 0-.947-2.072 89.659 89.659 0 0 0-.966-1.937l3.897-2.25.75 1.3-2.598 1.5c.13.257.253.51.368.757.118.236.217.447.296.632 1.052-.514 1.934-.705 2.649-.573.717.122 1.283.544 1.699 1.264.192.333.311.675.357 1.027.047.352.012.7-.104 1.044a2.892 2.892 0 0 1-.611 1.004c-.286.322-.667.62-1.145.897a5.256 5.256 0 0 1-.617.3 6.406 6.406 0 0 1-.646.249 7.308 7.308 0 0 1-.575.18 2.316 2.316 0 0 1-.426.079l-.457-1.44c.217-.024.49-.08.818-.168a5.02 5.02 0 0 0 1.078-.484c.478-.276.771-.57.877-.88.103-.319.081-.606-.067-.862ZM177.955 96.25l.135-.064.182-.105c.406-.234.646-.51.722-.826.08-.318.015-.657-.193-1.017-.218-.378-.476-.61-.775-.696-.299-.086-.651-.012-1.057.222a3.598 3.598 0 0 0-.168.104c-.059.034-.113.07-.16.107l1.314 2.276Zm1.683-2.496c.18.312.288.612.326.9.037.288.009.56-.083.817a2.002 2.002 0 0 1-.452.718 3.493 3.493 0 0 1-.796.612c-.146.084-.32.175-.521.274-.2.101-.405.187-.614.257l-2.025-3.508a5.14 5.14 0 0 1 .543-.403c.196-.132.367-.24.513-.324.308-.178.607-.304.896-.379.293-.077.573-.093.839-.048s.515.156.746.332c.23.176.44.427.628.752ZM180.308 90.915c.54-.312 1.01-.454 1.41-.426.397.025.713.24.947.645.146.253.206.493.18.72a1.31 1.31 0 0 1-.285.657c.124.048.261.108.408.18.146.068.294.144.444.229.152.078.304.166.457.263.15.093.295.187.433.283l-.909.525-.41-.242a6.766 6.766 0 0 0-.412-.233 7.559 7.559 0 0 0-.393-.202 3.895 3.895 0 0 0-.37-.16l-.4.23.759 1.315-.811.468-2.049-3.55c.157-.136.325-.265.504-.387.182-.124.348-.229.497-.315Zm.446.664a2.43 2.43 0 0 0-.158.099c-.043.029-.085.057-.124.085l.564.977.228-.132c.305-.176.501-.34.589-.493.088-.152.078-.32-.028-.503-.102-.177-.241-.263-.418-.257-.176 0-.394.074-.653.224ZM185.816 92.592a31.93 31.93 0 0 1-.964-.698 43.247 43.247 0 0 1-.953-.738c-.308-.247-.6-.485-.876-.714-.272-.23-.512-.439-.72-.623l.894-.516.613.546.664.573c.224.19.439.37.645.542.206.172.389.318.55.438a17.2 17.2 0 0 0-.108-.693 28.846 28.846 0 0 0-.147-.83 90.424 90.424 0 0 0-.326-1.669l.863-.497c.052.274.11.587.174.938a37.477 37.477 0 0 1 .471 3.49l-.78.45Z"/></g><g clip-path="url(#p)"><path fill="#0364B9" d="m171.075-29.12-17.32 10a6 6 0 0 0-2.196 8.196l8.75 15.155 27.712-16-8.75-15.155a6 6 0 0 0-8.196-2.196Z"/><path fill="#0A559E" d="M153.755-19.12a6 6 0 0 0-2.196 8.196l.087.151 23.546-19.046a5.978 5.978 0 0 0-4.117.699l-17.32 10ZM179.271-26.924a5.978 5.978 0 0 0-3.237-2.672l7.313 20.526 4.674-2.698-8.75-15.156Z"/><path fill="#71BD0E" d="m160.059 3.798 27.712-16 1.5 2.599a6 6 0 0 1-2.196 8.196l-17.32 10a6 6 0 0 1-8.196-2.196l-1.5-2.599Z"/><path fill="#fff" d="M159.759-11.405c.257.157.563.36.918.606.359.237.738.503 1.139.798.405.284.811.58 1.22.889l1.155.871-.178-1.435a87.894 87.894 0 0 1-.17-1.495c-.048-.5-.088-.96-.121-1.386-.03-.435-.048-.803-.055-1.104l1.475-.852c.346.438.718.94 1.117 1.503.403.553.811 1.14 1.224 1.76.417.61.828 1.226 1.235 1.85.414.62.798 1.207 1.154 1.76l-1.58.911a197.96 197.96 0 0 0-1.403-2.238 69.295 69.295 0 0 0-1.596-2.404l.143 1.206.154 1.324c.059.438.113.86.162 1.265.046.398.086.74.121 1.025l-1.133.654c-.229-.173-.505-.379-.827-.617-.327-.246-.668-.501-1.025-.767a73.36 73.36 0 0 0-1.059-.802l-.973-.726c.414.878.843 1.74 1.284 2.584.441.844.854 1.622 1.237 2.334l-1.58.912c-.3-.584-.619-1.208-.956-1.872l-.986-1.995c-.323-.672-.627-1.319-.912-1.94a47.49 47.49 0 0 1-.732-1.725l1.548-.894ZM171.894-18.41l.798 1.381-2.172 1.254 3.36 5.82-1.621.936-3.36-5.82-2.172 1.254-.798-1.382 5.965-3.444ZM178.26-15.31a1.18 1.18 0 0 0-.441-.452c-.182-.108-.414-.15-.695-.125-.282.024-.626.116-1.032.277-.406.16-.893.404-1.462.732a50.29 50.29 0 0 0-.946-2.072 89.677 89.677 0 0 0-.966-1.936l3.897-2.25.75 1.299-2.598 1.5c.13.257.253.51.368.757.118.237.217.448.296.633 1.051-.515 1.934-.706 2.648-.573.717.122 1.284.543 1.7 1.264.192.332.311.674.357 1.026.046.353.012.7-.104 1.044a2.881 2.881 0 0 1-.612 1.005c-.285.321-.667.62-1.145.896a5.164 5.164 0 0 1-.616.3 6.407 6.407 0 0 1-.646.25 7.195 7.195 0 0 1-.576.179 2.31 2.31 0 0 1-.425.08l-.457-1.441c.217-.024.489-.08.817-.167a5.003 5.003 0 0 0 1.079-.484c.478-.276.77-.57.877-.881.103-.318.08-.605-.068-.861ZM173.342 3.726l-2.079-3.6 2.411-1.393.393.68-1.6.925.435.753 1.424-.822.393.68-1.424.823.858 1.486-.811.468ZM174.247-1.598l.811-.468 2.079 3.601-.811.468-2.079-3.6ZM180.386-.34c-.47-.28-.956-.541-1.458-.787a14.305 14.305 0 0 0-1.52-.64l1.362 2.36-.8.461-2.079-3.6.66-.382a7.3 7.3 0 0 1 .622.202c.235.086.478.184.73.292.254.103.51.216.77.338.258.12.504.236.737.351l-1.227-2.125.805-.465 2.079 3.601-.681.393Z"/></g><g clip-path="url(#q)"><path fill="#0364B9" d="m191.876 6.906-17.32 10a6 6 0 0 0-2.197 8.196l8.75 15.156 27.713-16-8.75-15.156a6 6 0 0 0-8.196-2.196Z"/><path fill="#0A559E" d="M174.556 16.906a6 6 0 0 0-2.197 8.196l.088.151 23.545-19.046a5.976 5.976 0 0 0-4.116.7l-17.32 10ZM200.072 9.102a5.978 5.978 0 0 0-3.237-2.671l7.313 20.525 4.674-2.698-8.75-15.156Z"/><path fill="#2A3052" d="m180.859 39.825 27.713-16 1.5 2.598a6 6 0 0 1-2.196 8.196l-17.32 10a6.001 6.001 0 0 1-8.197-2.196l-1.5-2.598Z"/><path fill="#fff" d="M180.56 24.622c.257.156.563.358.918.606.358.236.738.502 1.139.797.404.284.811.58 1.22.89l1.155.87-.178-1.435a78.83 78.83 0 0 1-.17-1.495c-.048-.499-.088-.96-.121-1.385a26.68 26.68 0 0 1-.056-1.104l1.476-.852c.345.438.718.939 1.117 1.503.403.552.811 1.139 1.224 1.76.417.609.828 1.226 1.235 1.85.413.62.798 1.207 1.154 1.759l-1.58.912a212.24 212.24 0 0 0-1.403-2.239 72.253 72.253 0 0 0-1.596-2.404l.142 1.207.155 1.324c.059.437.113.858.162 1.264.045.399.086.74.121 1.025l-1.133.654a129.92 129.92 0 0 0-.827-.617c-.327-.245-.668-.501-1.025-.766-.349-.27-.702-.537-1.059-.802l-.973-.727c.414.878.842 1.74 1.284 2.584.441.845.853 1.623 1.237 2.335l-1.58.912c-.3-.584-.619-1.209-.957-1.873l-.985-1.995c-.323-.672-.627-1.319-.912-1.94a47.546 47.546 0 0 1-.733-1.724l1.549-.894ZM192.695 17.616l.798 1.382-2.172 1.254 3.36 5.82-1.621.935-3.36-5.82-2.172 1.255-.798-1.382 5.965-3.444ZM199.061 20.716a1.181 1.181 0 0 0-.441-.452c-.182-.107-.414-.15-.696-.125-.281.024-.625.116-1.031.277-.407.16-.894.405-1.462.733a50.263 50.263 0 0 0-.947-2.072 85.425 85.425 0 0 0-.965-1.937l3.897-2.25.75 1.299-2.598 1.5c.13.258.253.51.368.758.118.236.217.447.296.632 1.051-.515 1.934-.705 2.648-.573.717.122 1.284.543 1.7 1.264.192.332.311.675.357 1.027.046.352.011.7-.104 1.044-.116.343-.32.678-.612 1.004-.285.322-.667.62-1.145.897a5.164 5.164 0 0 1-.616.3 6.448 6.448 0 0 1-.647.249 7.217 7.217 0 0 1-.575.18 2.294 2.294 0 0 1-.425.079l-.458-1.44c.218-.024.49-.08.818-.168a5.026 5.026 0 0 0 1.079-.484c.478-.276.77-.57.877-.88.103-.319.08-.606-.068-.862ZM193.181 39.425l.136-.065.182-.105c.405-.234.646-.51.722-.826.079-.318.015-.657-.193-1.018-.218-.377-.477-.609-.776-.695-.299-.086-.651-.012-1.056.222a3.161 3.161 0 0 0-.169.104c-.059.034-.112.07-.16.107l1.314 2.276Zm1.684-2.497c.18.312.288.612.325.9.037.288.01.56-.083.817a1.999 1.999 0 0 1-.451.718 3.48 3.48 0 0 1-.797.612 8.209 8.209 0 0 1-.521.273 4.47 4.47 0 0 1-.614.258l-2.025-3.508c.168-.142.349-.277.543-.403.197-.132.368-.24.513-.324.309-.178.607-.304.897-.38.293-.076.572-.092.838-.047.267.045.515.156.746.332a2.5 2.5 0 0 1 .629.752ZM195.534 34.089c.541-.312 1.011-.454 1.41-.426.398.025.714.24.948.645.146.253.206.493.18.72-.024.222-.12.44-.286.657a7.301 7.301 0 0 1 .853.408 9.732 9.732 0 0 1 .89.546l-.909.525c-.134-.08-.271-.16-.41-.241a6.82 6.82 0 0 0-.412-.233 7.496 7.496 0 0 0-.394-.203 3.688 3.688 0 0 0-.37-.16l-.4.23.759 1.316-.81.468-2.049-3.55c.156-.136.324-.265.503-.387.183-.124.349-.229.497-.315Zm.446.664a2.734 2.734 0 0 0-.158.098l-.124.086.564.977.229-.132c.305-.176.501-.34.589-.493.087-.152.078-.32-.028-.504-.102-.176-.242-.262-.419-.257-.175 0-.393.075-.653.225ZM201.043 35.766c-.316-.22-.638-.452-.964-.698a40.733 40.733 0 0 1-.953-.738 54.882 54.882 0 0 1-.876-.714 43.683 43.683 0 0 1-.72-.623l.893-.517.614.547.663.573.646.542c.205.172.389.318.55.437a15.728 15.728 0 0 0-.109-.692 28.802 28.802 0 0 0-.146-.83 156.13 156.13 0 0 0-.326-1.669l.862-.497c.053.274.111.587.175.938a40.633 40.633 0 0 1 .348 2.307c.049.406.09.8.122 1.183l-.779.45Z"/></g><g clip-path="url(#r)"><path fill="#0364B9" d="m212.677 42.933-17.321 10a6 6 0 0 0-2.196 8.196l8.75 15.155 27.713-16-8.75-15.155a6 6 0 0 0-8.196-2.196Z"/><path fill="#0A559E" d="M195.356 52.933a6 6 0 0 0-2.196 8.196l.087.15 23.546-19.046a5.976 5.976 0 0 0-4.116.7l-17.321 10ZM220.873 45.129a5.976 5.976 0 0 0-3.238-2.672l7.314 20.526 4.674-2.699-8.75-15.155Z"/><path fill="#71BD0E" d="m201.66 75.851 27.713-16 1.5 2.598a6 6 0 0 1-2.196 8.196l-17.321 10a6 6 0 0 1-8.196-2.196l-1.5-2.598Z"/><path fill="#fff" d="M201.361 60.648c.256.157.562.359.918.606.358.237.738.503 1.139.797.404.284.811.58 1.22.89l1.154.871-.177-1.435a71.495 71.495 0 0 1-.17-1.495 67.98 67.98 0 0 1-.121-1.386 26.69 26.69 0 0 1-.056-1.104l1.476-.852c.345.438.718.94 1.117 1.503.402.553.81 1.14 1.224 1.76.416.61.828 1.226 1.235 1.85.413.62.798 1.207 1.153 1.759l-1.579.912c-.425-.688-.893-1.434-1.403-2.238a72.253 72.253 0 0 0-1.596-2.404l.142 1.206.155 1.324c.058.437.112.859.162 1.264.045.4.085.74.12 1.025l-1.132.654c-.229-.172-.505-.378-.828-.617l-1.024-.766c-.35-.27-.703-.537-1.059-.802l-.974-.727c.415.879.843 1.74 1.284 2.585.442.844.854 1.622 1.237 2.334l-1.579.912c-.301-.584-.619-1.208-.957-1.873l-.985-1.994c-.324-.673-.628-1.32-.912-1.94a47.622 47.622 0 0 1-.733-1.725l1.549-.894ZM213.496 53.642l.798 1.382-2.172 1.254 3.36 5.82-1.621.936-3.36-5.82-2.172 1.254-.798-1.382 5.965-3.444ZM219.862 56.742a1.18 1.18 0 0 0-.441-.452c-.182-.107-.414-.149-.696-.125-.282.024-.625.117-1.032.277-.406.16-.893.405-1.461.733a50.32 50.32 0 0 0-.947-2.072 81.107 81.107 0 0 0-.966-1.937l3.898-2.25.75 1.3-2.599 1.5c.131.257.253.51.368.757.119.236.217.447.297.633 1.051-.515 1.934-.706 2.648-.573.717.121 1.283.543 1.699 1.263.192.333.311.675.358 1.027.046.352.011.7-.104 1.044a2.91 2.91 0 0 1-.612 1.005c-.285.321-.667.62-1.145.896a5.18 5.18 0 0 1-.617.3 6.316 6.316 0 0 1-.646.249 7.308 7.308 0 0 1-.575.18 2.317 2.317 0 0 1-.425.079l-.458-1.44c.217-.024.49-.08.818-.168a4.998 4.998 0 0 0 1.078-.484c.479-.276.771-.57.878-.88.103-.318.08-.605-.068-.862ZM214.944 75.779l-2.079-3.601 2.411-1.392.393.68-1.601.925.435.753 1.424-.822.393.68-1.424.823.858 1.486-.81.468ZM215.849 70.455l.81-.468 2.079 3.601-.81.468-2.079-3.6ZM221.988 71.712c-.47-.278-.956-.54-1.459-.786a14.296 14.296 0 0 0-1.519-.64l1.362 2.359-.8.462-2.079-3.601.66-.381c.18.048.387.116.622.202.234.086.478.183.73.292.253.103.51.216.77.338.258.12.503.236.736.351l-1.227-2.125.806-.465 2.079 3.6-.681.394Z"/></g><g clip-path="url(#s)"><path fill="#0364B9" d="m227.903-13.894-17.32 10a6 6 0 0 0-2.196 8.197l8.75 15.155 27.713-16-8.75-15.155a6.001 6.001 0 0 0-8.197-2.197Z"/><path fill="#0A559E" d="M210.583-3.894a6 6 0 0 0-2.196 8.197l.087.15 23.546-19.046a5.979 5.979 0 0 0-4.117.7l-17.32 10ZM236.1-11.697a5.984 5.984 0 0 0-3.238-2.672l7.313 20.525 4.675-2.698-8.75-15.155Z"/><path fill="#71BD0E" d="m216.887 19.025 27.713-16 1.5 2.598a6 6 0 0 1-2.197 8.196l-17.32 10a6 6 0 0 1-8.196-2.196l-1.5-2.598Z"/><path fill="#fff" d="M216.587 3.822c.257.157.563.359.918.606.359.237.738.502 1.14.797.404.284.81.58 1.22.89l1.154.87-.178-1.435a87.938 87.938 0 0 1-.17-1.495c-.048-.499-.088-.96-.121-1.385a26.467 26.467 0 0 1-.055-1.104l1.475-.852c.346.438.718.939 1.118 1.503.402.553.81 1.14 1.223 1.76.417.609.828 1.226 1.235 1.85.414.62.798 1.207 1.154 1.759l-1.58.912c-.424-.688-.892-1.434-1.403-2.239a69.297 69.297 0 0 0-1.596-2.404l.143 1.207.154 1.324c.059.437.113.859.162 1.264.046.399.086.74.121 1.025l-1.133.654-.827-.617-1.025-.766c-.349-.27-.702-.537-1.058-.802l-.974-.727c.415.879.843 1.74 1.284 2.584a213.8 213.8 0 0 0 1.237 2.335l-1.58.912c-.3-.584-.619-1.208-.956-1.873l-.986-1.994c-.323-.673-.627-1.32-.912-1.94a49.306 49.306 0 0 1-.732-1.725l1.548-.894ZM228.722-3.184l.798 1.382-2.172 1.254 3.36 5.82-1.621.936-3.36-5.82-2.172 1.254-.798-1.382 5.965-3.444ZM235.088-.084a1.18 1.18 0 0 0-.441-.452c-.182-.107-.414-.149-.695-.125-.282.024-.626.117-1.032.277-.406.16-.893.405-1.461.733a51.68 51.68 0 0 0-.947-2.072 89.569 89.569 0 0 0-.966-1.937l3.897-2.25.75 1.3-2.598 1.5c.13.257.253.51.368.757.118.236.217.447.296.632 1.052-.514 1.934-.705 2.648-.572.717.121 1.284.543 1.7 1.263.192.333.311.675.357 1.027.046.352.012.7-.104 1.044a2.88 2.88 0 0 1-.612 1.004c-.285.322-.667.621-1.145.897a5.162 5.162 0 0 1-.616.3 6.41 6.41 0 0 1-.646.249 7.223 7.223 0 0 1-.576.18 2.302 2.302 0 0 1-.425.079l-.457-1.44c.217-.024.49-.08.818-.168a5.02 5.02 0 0 0 1.078-.484c.478-.276.771-.57.877-.88.103-.318.08-.606-.068-.862ZM230.17 18.953l-2.079-3.601 2.411-1.392.393.68-1.6.924.435.754 1.424-.822.393.68-1.424.823.858 1.486-.811.468ZM231.075 13.629l.811-.468 2.079 3.601-.811.468-2.079-3.601ZM237.214 14.886c-.47-.278-.956-.54-1.458-.786a14.311 14.311 0 0 0-1.52-.64l1.362 2.359-.8.462-2.079-3.601.66-.381c.18.048.388.115.622.202.235.086.478.183.73.292.254.103.511.216.771.338.258.119.503.236.736.351l-1.227-2.125.805-.465 2.079 3.6-.681.394Z"/></g><path fill="url(#t)" d="M0 0h328v72H0z"/></g><defs><clipPath id="a"><rect width="328" height="72" fill="#fff" rx="8"/></clipPath><clipPath id="b"><path fill="#fff" d="m-31.574 87.88 27.713-16 16 27.713-27.713 16z"/></clipPath><clipPath id="c"><path fill="#fff" d="m-37.145-4.974 27.713-16 16 27.713-27.712 16z"/></clipPath><clipPath id="d"><path fill="#fff" d="m-16.344 31.054 27.713-16 16 27.713-27.713 16z"/></clipPath><clipPath id="e"><path fill="#fff" d="m4.453 67.08 27.713-16 16 27.713-27.713 16z"/></clipPath><clipPath id="f"><path fill="#fff" d="m-1.121-25.774 27.713-16 16 27.712-27.713 16z"/></clipPath><clipPath id="g"><path fill="#fff" d="m19.68 10.253 27.713-16 16 27.713-27.713 16z"/></clipPath><clipPath id="h"><path fill="#fff" d="m40.477 46.28 27.712-16 16 27.712-27.712 16z"/></clipPath><clipPath id="i"><path fill="#fff" d="m61.277 82.306 27.713-16 16 27.713-27.713 16z"/></clipPath><clipPath id="j"><path fill="#fff" d="m55.707-10.547 27.713-16 16 27.713-27.713 16z"/></clipPath><clipPath id="k"><path fill="#fff" d="m76.504 25.48 27.713-16 16 27.712-27.713 16z"/></clipPath><clipPath id="l"><path fill="#fff" d="m97.305 61.506 27.713-16 16 27.713-27.713 16z"/></clipPath><clipPath id="m"><path fill="#fff" d="m112.531 4.68 27.713-16 16 27.713-27.713 16z"/></clipPath><clipPath id="n"><path fill="#fff" d="m133.332 40.706 27.713-16 16 27.713-27.713 16z"/></clipPath><clipPath id="o"><path fill="#fff" d="m154.133 76.732 27.713-16 16 27.713-27.713 16z"/></clipPath><clipPath id="p"><path fill="#fff" d="m148.559-16.12 27.713-16 16 27.713-27.713 16z"/></clipPath><clipPath id="q"><path fill="#fff" d="m169.359 19.906 27.713-16 16 27.713-27.713 16z"/></clipPath><clipPath id="r"><path fill="#fff" d="m190.16 55.933 27.713-16 16 27.712-27.713 16z"/></clipPath><clipPath id="s"><path fill="#fff" d="m205.387-.894 27.713-16 16 27.713-27.713 16z"/></clipPath><linearGradient id="t" x1="69.5" x2="11.316" y1="4" y2=".878" gradientUnits="userSpaceOnUse"><stop offset=".397" stop-color="#F2F3F4"/><stop offset="1" stop-color="#fff" stop-opacity=".651"/></linearGradient></defs></svg>