
<svg xmlns="http://www.w3.org/2000/svg" width="161" height="106" fill="none"><g clip-path="url(#a)"><path fill="#0E0E0E" d="M0 0h154a7 7 0 0 1 7 7v92a7 7 0 0 1-7 7H0V0Z"/><path fill="url(#b)" d="M0 0h163v108H0z" transform="rotate(180 81.5 54)"/><path fill="#0E0E0E" d="M-60 1.6 219.9-160 360.7 83.872l-279.9 161.6z"/><g clip-path="url(#c)"><path fill="#0364B9" d="m-16.683 24.626-17.32 10a6 6 0 0 0-2.196 8.196l8.75 15.156 27.713-16-8.75-15.156a6 6 0 0 0-8.197-2.196Z"/><path fill="#0A559E" d="M-34.003 34.626a6 6 0 0 0-2.196 8.196l.087.151 23.546-19.046a5.976 5.976 0 0 0-4.117.699l-17.32 10ZM-8.486 26.822a5.977 5.977 0 0 0-3.238-2.672l7.313 20.526 4.675-2.698-8.75-15.156Z"/><path fill="#71BD0E" d="m-27.7 57.545 27.714-16 1.5 2.598a6 6 0 0 1-2.197 8.196l-17.32 10a6 6 0 0 1-8.196-2.196l-1.5-2.598Z"/><path fill="#fff" d="M-27.999 42.342c.257.156.563.358.918.606.359.236.738.502 1.14.797.404.284.81.58 1.22.889l1.154.871-.177-1.435a78.79 78.79 0 0 1-.17-1.495c-.049-.5-.089-.96-.122-1.385-.03-.436-.048-.804-.055-1.104l1.476-.852c.345.438.717.938 1.117 1.502.402.553.81 1.14 1.224 1.76.416.61.828 1.226 1.234 1.85.414.621.798 1.207 1.154 1.76l-1.58.911c-.424-.687-.892-1.434-1.403-2.238a71.573 71.573 0 0 0-1.596-2.404l.143 1.206.154 1.324a108.286 108.286 0 0 1 .283 2.29l-1.133.654c-.229-.173-.504-.378-.827-.617a262.73 262.73 0 0 0-1.024-.767c-.35-.269-.703-.536-1.06-.802l-.973-.726c.415.878.843 1.74 1.284 2.584.441.844.854 1.623 1.237 2.334l-1.58.912c-.3-.584-.619-1.208-.956-1.872l-.985-1.995c-.324-.672-.628-1.319-.913-1.94a47.803 47.803 0 0 1-.732-1.724l1.548-.894ZM-15.864 35.335l.798 1.383-2.172 1.253 3.36 5.82-1.62.936-3.36-5.82-2.173 1.255-.798-1.383 5.965-3.444ZM-9.497 38.436a1.18 1.18 0 0 0-.442-.452c-.182-.108-.413-.15-.695-.125-.282.024-.626.116-1.032.277-.406.16-.893.404-1.461.732a50.722 50.722 0 0 0-.947-2.072 85.967 85.967 0 0 0-.966-1.936l3.897-2.25.75 1.299-2.598 1.5c.13.257.253.51.368.757.118.237.217.448.296.633 1.052-.515 1.934-.706 2.649-.573.716.122 1.283.543 1.699 1.264.192.332.311.674.357 1.026.047.353.012.7-.104 1.044a2.9 2.9 0 0 1-.611 1.005c-.286.322-.667.62-1.146.897a5.185 5.185 0 0 1-.616.3 6.412 6.412 0 0 1-.646.248 7.345 7.345 0 0 1-.575.18 2.317 2.317 0 0 1-.426.08l-.457-1.44c.217-.025.49-.08.818-.168a5.02 5.02 0 0 0 1.078-.484c.478-.276.77-.57.877-.88.103-.319.08-.606-.067-.862ZM-14.416 57.472l-2.079-3.6 2.411-1.393.393.68-1.6.925.435.753 1.424-.822.393.681-1.424.822.858 1.486-.81.468ZM-13.51 52.148l.81-.468 2.079 3.602-.81.468-2.08-3.602ZM-7.372 53.405c-.47-.278-.956-.54-1.458-.786a14.32 14.32 0 0 0-1.52-.64l1.362 2.36-.8.461-2.079-3.6.66-.382c.18.049.388.116.623.202.234.086.477.184.73.292a29.672 29.672 0 0 1 1.506.69l-1.227-2.126.805-.465 2.08 3.601-.682.393Z"/></g><g clip-path="url(#d)"><path fill="#0364B9" d="m4.118 60.653-17.32 10a6 6 0 0 0-2.196 8.197l8.75 15.155 27.712-16-8.75-15.155a6 6 0 0 0-8.196-2.197Z"/><path fill="#0A559E" d="M-13.202 70.653a6 6 0 0 0-2.196 8.197l.087.15L8.235 59.954a5.977 5.977 0 0 0-4.117.7l-17.32 10ZM12.314 62.85a5.978 5.978 0 0 0-3.237-2.672l7.313 20.525 4.674-2.698-8.75-15.155Z"/><path fill="#2A3052" d="m-6.898 93.572 27.712-16 1.5 2.598a6 6 0 0 1-2.196 8.196l-17.32 10a6 6 0 0 1-8.196-2.196l-1.5-2.598Z"/><path fill="#fff" d="M-7.198 78.369c.257.156.563.359.918.606.358.237.738.502 1.14.797.404.284.81.58 1.22.89l1.154.87-.178-1.435a78.974 78.974 0 0 1-.17-1.495c-.048-.499-.088-.96-.12-1.385-.03-.436-.05-.804-.056-1.104l1.475-.852c.346.438.718.939 1.117 1.503.403.553.81 1.14 1.224 1.76.417.609.828 1.226 1.235 1.85.414.62.798 1.207 1.154 1.759l-1.58.912C.91 82.357.443 81.61-.068 80.806a71.262 71.262 0 0 0-1.596-2.404l.143 1.207.154 1.324a108.678 108.678 0 0 1 .283 2.29l-1.133.653-.827-.617a248.53 248.53 0 0 0-1.025-.766c-.35-.27-.702-.537-1.059-.802a495.64 495.64 0 0 1-.973-.727c.414.879.842 1.74 1.284 2.584.441.845.854 1.623 1.237 2.335l-1.58.912c-.3-.584-.619-1.209-.956-1.873-.33-.668-.66-1.333-.986-1.995-.323-.672-.627-1.319-.912-1.94a47.697 47.697 0 0 1-.732-1.724l1.548-.894ZM4.937 71.363l.798 1.382-2.172 1.254 3.36 5.82-1.621.935-3.36-5.82L-.23 76.19l-.798-1.382 5.965-3.444ZM11.303 74.463a1.18 1.18 0 0 0-.44-.452c-.183-.107-.415-.15-.697-.125-.281.024-.625.116-1.031.277-.406.16-.893.405-1.462.733a50.707 50.707 0 0 0-.946-2.072 86.25 86.25 0 0 0-.966-1.937l3.897-2.25.75 1.3-2.598 1.5c.13.257.253.509.368.757.118.236.217.447.296.632 1.051-.514 1.934-.705 2.648-.573.717.122 1.284.543 1.7 1.264.192.333.31.675.357 1.027.046.352.012.7-.104 1.044a2.9 2.9 0 0 1-.612 1.004c-.285.322-.667.62-1.145.897a5.193 5.193 0 0 1-.616.3 6.404 6.404 0 0 1-.646.249 7.26 7.26 0 0 1-.576.18 2.309 2.309 0 0 1-.425.079l-.457-1.44c.217-.024.49-.08.817-.168a5.02 5.02 0 0 0 1.079-.484c.478-.276.77-.57.877-.88.103-.319.08-.606-.068-.862ZM5.423 93.172l.136-.065.182-.105c.405-.234.646-.51.722-.826.08-.318.015-.657-.193-1.018-.218-.377-.476-.609-.775-.695-.3-.086-.652-.012-1.057.222a3.346 3.346 0 0 0-.168.104c-.06.034-.113.07-.16.107l1.313 2.276Zm1.684-2.497c.18.312.288.612.325.9.037.288.01.56-.082.817-.09.254-.24.494-.452.718a3.489 3.489 0 0 1-.797.612c-.145.084-.319.175-.52.274-.2.101-.405.187-.614.257l-2.025-3.508c.167-.142.348-.277.543-.403.196-.132.367-.24.512-.324.309-.178.608-.304.897-.38a1.98 1.98 0 0 1 .839-.047c.266.045.514.156.745.332.231.176.44.427.629.752ZM7.777 87.836c.54-.312 1.01-.454 1.41-.426.397.025.713.24.947.645.146.253.206.493.18.72-.024.222-.12.441-.286.657.125.048.261.108.409.18.146.068.294.144.444.229a9.98 9.98 0 0 1 .89.546l-.91.525c-.133-.08-.27-.16-.409-.242a6.846 6.846 0 0 0-.412-.233 7.566 7.566 0 0 0-.394-.203 3.787 3.787 0 0 0-.37-.16l-.4.231.76 1.315-.811.468-2.05-3.55c.157-.136.325-.265.504-.387.183-.124.349-.229.498-.315Zm.445.664a2.61 2.61 0 0 0-.158.098 18.9 18.9 0 0 0-.124.086l.564.977.23-.132c.304-.176.5-.34.588-.493.087-.152.078-.32-.028-.503-.102-.177-.241-.263-.418-.258-.176 0-.394.075-.654.225ZM13.285 89.513c-.316-.22-.637-.452-.964-.698a41.148 41.148 0 0 1-.953-.738c-.309-.247-.6-.485-.876-.714-.272-.23-.512-.439-.72-.623l.893-.516c.19.167.394.35.614.546l.663.573.646.542c.206.172.389.318.55.438a16.991 16.991 0 0 0-.109-.693 28.794 28.794 0 0 0-.146-.83 99.43 99.43 0 0 0-.326-1.669l.862-.497c.053.274.111.587.175.938a37.68 37.68 0 0 1 .348 2.307c.05.406.09.8.122 1.184l-.78.45Z"/></g><g clip-path="url(#e)"><path fill="#0364B9" d="m24.915 96.68-17.32 10a6 6 0 0 0-2.197 8.196l8.75 15.155 27.713-16-8.75-15.155a6 6 0 0 0-8.196-2.196Z"/><path fill="#0A559E" d="M7.595 106.68a6 6 0 0 0-2.197 8.196l.088.151L29.03 95.981a5.976 5.976 0 0 0-4.116.699l-17.32 10ZM33.111 98.876a5.977 5.977 0 0 0-3.237-2.672l7.313 20.526 4.674-2.699-8.75-15.155Z"/><path fill="#71BD0E" d="m13.898 129.598 27.713-16 1.5 2.598a6 6 0 0 1-2.196 8.196l-17.32 10a6 6 0 0 1-8.197-2.196l-1.5-2.598Z"/><path fill="#fff" d="M13.599 114.395c.257.157.563.359.918.606.358.237.738.503 1.14.798.403.284.81.58 1.22.889l1.154.871-.178-1.435a79.061 79.061 0 0 1-.17-1.495 73.894 73.894 0 0 1-.121-1.386 25.82 25.82 0 0 1-.056-1.104l1.476-.852c.346.438.718.939 1.117 1.503.403.553.81 1.139 1.224 1.76.417.609.828 1.226 1.235 1.85.413.621.798 1.207 1.154 1.759l-1.58.912c-.425-.688-.892-1.434-1.403-2.238a70.364 70.364 0 0 0-1.596-2.404l.142 1.206.155 1.324a108.57 108.57 0 0 1 .283 2.29l-1.133.654a91.681 91.681 0 0 0-.827-.617c-.327-.246-.668-.502-1.025-.767-.35-.269-.702-.537-1.059-.802a409.22 409.22 0 0 1-.973-.726 72.08 72.08 0 0 0 1.284 2.584c.441.844.853 1.622 1.237 2.334l-1.58.912c-.3-.584-.62-1.208-.957-1.873l-.985-1.994a117.07 117.07 0 0 1-.912-1.94 47.893 47.893 0 0 1-.732-1.725l1.548-.894ZM25.734 107.389l.798 1.382-2.172 1.254 3.36 5.82-1.621.936-3.36-5.82-2.172 1.254-.798-1.382 5.965-3.444ZM32.1 110.489a1.184 1.184 0 0 0-.44-.452c-.183-.107-.415-.149-.697-.125-.281.024-.625.117-1.031.277-.406.161-.894.405-1.462.733a50.84 50.84 0 0 0-.947-2.072 86.442 86.442 0 0 0-.965-1.937l3.897-2.25.75 1.299-2.598 1.5c.13.258.253.51.368.758.118.237.217.447.296.633 1.051-.515 1.934-.706 2.648-.573.717.122 1.284.543 1.7 1.263.192.333.31.675.357 1.027.046.352.011.7-.104 1.044a2.9 2.9 0 0 1-.612 1.005c-.285.321-.667.62-1.145.896a5.294 5.294 0 0 1-.616.301 6.353 6.353 0 0 1-.647.248 7.726 7.726 0 0 1-.575.18 2.303 2.303 0 0 1-.425.079l-.458-1.44c.218-.024.49-.08.818-.168a4.983 4.983 0 0 0 1.079-.484c.478-.276.77-.569.877-.88.103-.318.08-.605-.068-.862ZM27.182 129.526l-2.079-3.601 2.411-1.392.393.681-1.6.924.435.753 1.423-.822.393.681-1.423.822.858 1.486-.81.468ZM28.087 124.202l.81-.468 2.08 3.601-.811.468-2.08-3.601ZM34.226 125.459c-.47-.278-.956-.54-1.458-.786a14.341 14.341 0 0 0-1.52-.64l1.362 2.359-.8.462-2.08-3.601.66-.381c.181.048.389.116.623.202.235.086.478.184.73.292.254.103.51.216.77.338.258.119.504.236.736.351l-1.227-2.125.806-.465 2.079 3.601-.68.393Z"/></g><g clip-path="url(#f)"><path fill="#0364B9" d="m-1.456-32.2-17.32 10a6 6 0 0 0-2.197 8.196l8.75 15.155 27.713-16-8.75-15.155A6 6 0 0 0-1.456-32.2Z"/><path fill="#0A559E" d="M-18.776-22.2a6 6 0 0 0-2.197 8.196l.087.15L2.66-32.898a5.977 5.977 0 0 0-4.116.699l-17.32 10ZM6.74-30.004a5.977 5.977 0 0 0-3.237-2.672l7.313 20.526 4.674-2.699-8.75-15.155Z"/><path fill="#71BD0E" d="m-12.473.718 27.713-16 1.5 2.598a6 6 0 0 1-2.196 8.197l-17.32 10a6 6 0 0 1-8.197-2.197l-1.5-2.598Z"/><path fill="#fff" d="M-12.772-14.485c.257.157.563.359.918.606.358.237.738.503 1.14.798.403.284.81.58 1.22.889l1.154.871-.178-1.435a78.89 78.89 0 0 1-.17-1.495 73.95 73.95 0 0 1-.121-1.386c-.03-.435-.048-.803-.056-1.104l1.476-.852a36.9 36.9 0 0 1 1.117 1.503c.403.553.81 1.14 1.224 1.76.417.61.828 1.226 1.235 1.85.413.62.798 1.207 1.154 1.76l-1.58.911c-.425-.688-.892-1.434-1.403-2.238a71.357 71.357 0 0 0-1.596-2.404l.142 1.206.155 1.324a108.94 108.94 0 0 1 .283 2.29l-1.133.654c-.23-.173-.505-.379-.827-.617-.327-.246-.668-.502-1.025-.767a79.97 79.97 0 0 0-1.059-.802l-.973-.726c.414.878.842 1.74 1.284 2.584.441.844.853 1.622 1.236 2.334l-1.58.912c-.3-.584-.618-1.208-.956-1.872l-.985-1.995c-.323-.672-.627-1.319-.912-1.94a47.742 47.742 0 0 1-.733-1.725l1.549-.894ZM-.637-21.49.16-20.11l-2.172 1.254 3.36 5.82-1.621.936-3.36-5.82-2.172 1.254-.798-1.382 5.965-3.444ZM5.73-18.39a1.18 1.18 0 0 0-.442-.453c-.182-.107-.414-.149-.696-.125-.281.025-.625.117-1.031.277-.407.161-.894.405-1.462.733a50.694 50.694 0 0 0-.947-2.072 86.004 86.004 0 0 0-.965-1.936l3.897-2.25.75 1.299-2.598 1.5c.13.257.252.51.368.757.118.237.217.448.296.633 1.051-.515 1.934-.706 2.648-.573.717.122 1.284.543 1.7 1.263.192.333.31.675.357 1.027.046.352.011.7-.104 1.044-.116.344-.32.679-.612 1.005-.285.321-.667.62-1.145.896a5.17 5.17 0 0 1-.616.3 6.383 6.383 0 0 1-.647.25 7.265 7.265 0 0 1-.575.179 2.309 2.309 0 0 1-.425.08l-.458-1.441c.218-.024.49-.08.818-.167a5.02 5.02 0 0 0 1.079-.484c.478-.276.77-.57.877-.881.103-.318.08-.605-.068-.862ZM.811.646l-2.079-3.601 2.411-1.392.393.68-1.6.925.435.753 1.423-.822.393.68-1.423.823.858 1.486L.81.646ZM1.716-4.678l.81-.468 2.08 3.601-.811.468-2.08-3.6ZM7.855-3.42c-.47-.28-.956-.541-1.458-.787a14.328 14.328 0 0 0-1.52-.64l1.362 2.36-.8.461-2.08-3.6.66-.382c.181.048.388.116.623.202.235.086.478.184.73.292.253.103.51.216.77.338.258.12.504.236.736.351L5.651-6.95l.806-.465 2.079 3.601-.681.393Z"/></g><g clip-path="url(#g)"><path fill="#0364B9" d="m19.345 3.826-17.32 10a6 6 0 0 0-2.197 8.196l8.75 15.156 27.713-16-8.75-15.156a6 6 0 0 0-8.196-2.196Z"/><path fill="#0A559E" d="M2.024 13.826a6 6 0 0 0-2.196 8.196l.087.151L23.461 3.127a5.977 5.977 0 0 0-4.116.7l-17.32 10ZM27.54 6.022a5.977 5.977 0 0 0-3.237-2.671l7.314 20.525 4.674-2.698-8.75-15.156Z"/><path fill="#2A3052" d="m8.328 36.745 27.713-16 1.5 2.598a6 6 0 0 1-2.196 8.196l-17.32 10a6 6 0 0 1-8.197-2.196l-1.5-2.598Z"/><path fill="#fff" d="M8.029 21.542c.256.156.562.358.918.606.358.236.738.502 1.139.797.404.284.81.58 1.22.89l1.154.87-.177-1.435a78.79 78.79 0 0 1-.17-1.495c-.048-.499-.089-.96-.121-1.385-.03-.436-.049-.804-.056-1.104l1.476-.852c.345.438.717.939 1.117 1.502.402.553.81 1.14 1.224 1.76.416.61.828 1.226 1.235 1.85.413.621.798 1.207 1.154 1.76l-1.58.912c-.425-.688-.893-1.434-1.403-2.239a71.267 71.267 0 0 0-1.596-2.404l.142 1.207.155 1.324a110.477 110.477 0 0 1 .282 2.289l-1.132.654a118.94 118.94 0 0 0-.828-.617 255.13 255.13 0 0 0-1.024-.766c-.35-.27-.703-.537-1.059-.803l-.974-.726c.415.878.843 1.74 1.284 2.584.442.845.854 1.623 1.237 2.334l-1.58.913c-.3-.585-.618-1.209-.956-1.873L8.125 26.1c-.324-.672-.628-1.319-.912-1.94a47.757 47.757 0 0 1-.733-1.724l1.549-.894ZM20.164 14.536l.798 1.382-2.172 1.254 3.36 5.82-1.621.935-3.36-5.82-2.173 1.255-.798-1.382 5.966-3.444ZM26.53 17.636a1.18 1.18 0 0 0-.441-.452c-.182-.108-.414-.15-.696-.125-.282.024-.626.116-1.032.277-.406.16-.893.405-1.461.733a50.785 50.785 0 0 0-.947-2.072 86.162 86.162 0 0 0-.966-1.937l3.898-2.25.75 1.299-2.599 1.5c.13.257.253.51.368.757.119.237.217.448.297.633 1.051-.514 1.934-.706 2.648-.573.717.122 1.283.543 1.7 1.264.191.332.31.675.357 1.027.046.352.011.7-.104 1.044-.116.343-.32.678-.612 1.004-.285.322-.667.62-1.145.897a5.184 5.184 0 0 1-.617.3 6.414 6.414 0 0 1-.646.249 7.357 7.357 0 0 1-.575.18 2.317 2.317 0 0 1-.425.079l-.458-1.44c.217-.024.49-.08.818-.168a5.018 5.018 0 0 0 1.079-.484c.477-.276.77-.57.877-.88.103-.319.08-.606-.068-.862ZM20.65 36.344a7.2 7.2 0 0 0 .136-.064l.182-.105c.405-.234.646-.51.721-.826.08-.318.016-.657-.192-1.018-.218-.377-.477-.61-.776-.695-.299-.086-.651-.012-1.056.222a3.44 3.44 0 0 0-.169.104c-.059.034-.112.07-.16.106l1.314 2.276Zm1.683-2.496c.18.312.289.612.326.9.037.288.01.56-.083.817-.088.254-.24.494-.451.718a3.49 3.49 0 0 1-.797.612c-.145.084-.32.175-.521.273-.2.102-.405.188-.614.258l-2.025-3.508c.167-.142.348-.277.543-.403.197-.132.367-.24.513-.324.308-.178.607-.305.897-.38.293-.076.572-.092.838-.047s.515.156.746.332c.23.176.44.427.628.752ZM23.003 31.009c.54-.312 1.01-.454 1.41-.426.398.024.713.24.947.645.146.252.207.493.18.72-.024.222-.119.44-.285.657.125.048.26.108.409.18.145.068.293.144.443.228a10.074 10.074 0 0 1 .89.546l-.909.525c-.134-.08-.27-.16-.41-.241a6.844 6.844 0 0 0-.411-.233 7.498 7.498 0 0 0-.394-.203 3.777 3.777 0 0 0-.37-.16l-.4.23.759 1.315-.81.468-2.05-3.548c.157-.137.325-.266.504-.388.183-.124.348-.23.497-.315Zm.446.664a2.659 2.659 0 0 0-.282.184l.564.977.229-.133c.305-.175.5-.34.588-.492.088-.152.079-.32-.027-.504-.102-.176-.242-.262-.419-.257-.175 0-.393.075-.653.225ZM28.512 32.685c-.317-.219-.638-.452-.964-.697a40.936 40.936 0 0 1-.953-.739c-.309-.246-.601-.484-.877-.713a45.602 45.602 0 0 1-.72-.623l.894-.517.614.547.663.573c.224.19.44.37.645.542.206.172.39.318.55.437a17.224 17.224 0 0 0-.108-.692 28.582 28.582 0 0 0-.147-.83 94.729 94.729 0 0 0-.326-1.668l.863-.498.175.938a37.662 37.662 0 0 1 .348 2.307c.05.405.09.8.122 1.183l-.78.45Z"/></g><g clip-path="url(#h)"><path fill="#0364B9" d="m40.146 39.853-17.32 10a6 6 0 0 0-2.197 8.197l8.75 15.155 27.713-16-8.75-15.155a6 6 0 0 0-8.196-2.197Z"/><path fill="#0A559E" d="M22.825 49.853a6 6 0 0 0-2.196 8.197l.087.15 23.546-19.046a5.977 5.977 0 0 0-4.116.7l-17.32 10ZM48.342 42.05a5.978 5.978 0 0 0-3.238-2.672l7.313 20.525 4.675-2.698-8.75-15.155Z"/><path fill="#71BD0E" d="m29.129 72.772 27.713-16 1.5 2.598a6 6 0 0 1-2.196 8.196l-17.32 10a6 6 0 0 1-8.197-2.196l-1.5-2.598Z"/><path fill="#fff" d="M28.83 57.569c.256.157.562.359.918.606.358.237.738.502 1.139.797.404.284.81.58 1.22.89l1.154.871-.177-1.435a79.793 79.793 0 0 1-.17-1.496c-.049-.499-.089-.96-.122-1.385a25.9 25.9 0 0 1-.055-1.104l1.476-.852c.345.438.717.939 1.117 1.503.402.553.81 1.14 1.224 1.76.416.609.828 1.226 1.234 1.85.414.62.799 1.207 1.154 1.759l-1.58.912a215.68 215.68 0 0 0-1.403-2.238 71.321 71.321 0 0 0-1.595-2.405 521.944 521.944 0 0 1 .297 2.53 110.537 110.537 0 0 1 .282 2.29l-1.133.654a118.94 118.94 0 0 0-.827-.617l-1.024-.766c-.35-.27-.703-.537-1.06-.802l-.973-.727c.415.879.843 1.74 1.284 2.585.442.844.854 1.622 1.237 2.334l-1.58.912c-.3-.584-.619-1.209-.956-1.873a2660.9 2660.9 0 0 1-.985-1.994 114.86 114.86 0 0 1-.912-1.94 47.727 47.727 0 0 1-.733-1.725l1.549-.894ZM40.965 50.563l.797 1.382-2.172 1.254 3.36 5.82-1.62.936-3.36-5.82-2.173 1.254L35 54.007l5.965-3.444ZM47.33 53.663a1.18 1.18 0 0 0-.44-.452c-.182-.107-.414-.149-.696-.125-.282.024-.626.117-1.032.277-.406.16-.893.405-1.461.733a50.72 50.72 0 0 0-.947-2.072 85.95 85.95 0 0 0-.966-1.937l3.897-2.25.75 1.3-2.598 1.5c.13.257.253.51.368.757.118.236.217.447.296.633 1.052-.515 1.935-.706 2.649-.573.717.121 1.283.543 1.7 1.263.191.333.31.675.356 1.027.047.352.012.7-.104 1.044-.115.344-.32.679-.611 1.004-.286.322-.667.621-1.145.897a5.185 5.185 0 0 1-.617.3 6.402 6.402 0 0 1-.646.249 7.272 7.272 0 0 1-.575.18 2.31 2.31 0 0 1-.426.079l-.457-1.44c.217-.024.49-.08.818-.168a5.018 5.018 0 0 0 1.078-.484c.478-.276.77-.57.877-.88.103-.318.08-.605-.067-.862ZM42.413 72.7l-2.08-3.601 2.412-1.392.393.68-1.6.924.434.754 1.424-.822.393.68-1.424.823.858 1.486-.81.468ZM43.317 67.376l.81-.468 2.08 3.601-.81.468-2.08-3.6ZM49.457 68.633c-.47-.278-.957-.54-1.459-.786a14.36 14.36 0 0 0-1.52-.64l1.363 2.359-.8.462-2.08-3.601.66-.381c.18.048.388.115.623.202.234.086.477.183.73.292.253.103.51.216.77.338.258.119.503.236.736.351l-1.227-2.125.805-.465 2.08 3.6-.681.394Z"/></g><g clip-path="url(#i)"><path fill="#0364B9" d="m60.942 75.88-17.32 10a6 6 0 0 0-2.196 8.196l8.75 15.155 27.713-16-8.75-15.155a6 6 0 0 0-8.197-2.196Z"/><path fill="#0A559E" d="M43.622 85.88a6 6 0 0 0-2.196 8.196l.087.151 23.546-19.046a5.976 5.976 0 0 0-4.117.699l-17.32 10ZM69.139 78.076a5.977 5.977 0 0 0-3.238-2.672l7.313 20.526 4.675-2.699-8.75-15.155Z"/><path fill="#2A3052" d="m49.926 108.798 27.713-16 1.5 2.599a6 6 0 0 1-2.197 8.196l-17.32 10a6 6 0 0 1-8.196-2.196l-1.5-2.599Z"/><path fill="#fff" d="M49.626 93.595c.257.157.563.36.918.606.359.237.738.503 1.14.798.404.284.81.58 1.22.889l1.154.871-.178-1.435a78.79 78.79 0 0 1-.17-1.495c-.048-.5-.088-.96-.12-1.385-.03-.436-.049-.804-.056-1.105l1.476-.852c.345.438.717.94 1.117 1.503.402.553.81 1.14 1.223 1.76.417.61.829 1.226 1.235 1.85.414.62.798 1.207 1.154 1.76l-1.58.911c-.424-.688-.892-1.434-1.403-2.238a71.573 71.573 0 0 0-1.596-2.404l.143 1.206.155 1.324a108.286 108.286 0 0 1 .282 2.29l-1.133.654c-.229-.173-.504-.379-.827-.617a262.73 262.73 0 0 0-1.025-.767c-.349-.27-.702-.536-1.058-.802l-.974-.726c.415.878.843 1.74 1.284 2.584.441.844.854 1.622 1.237 2.334l-1.58.912c-.3-.584-.619-1.208-.956-1.872l-.986-1.995c-.323-.672-.627-1.319-.912-1.94a47.803 47.803 0 0 1-.732-1.725l1.548-.894ZM61.761 86.59l.798 1.381-2.172 1.254 3.36 5.82-1.62.936-3.36-5.82-2.173 1.254-.798-1.382 5.965-3.444ZM68.127 89.69a1.18 1.18 0 0 0-.44-.453c-.183-.107-.415-.148-.696-.124-.282.024-.626.116-1.032.276-.406.161-.893.405-1.461.733a50.722 50.722 0 0 0-.947-2.072 86.179 86.179 0 0 0-.966-1.936l3.897-2.25.75 1.299-2.598 1.5c.13.257.253.51.368.757.118.237.217.448.296.633 1.052-.515 1.934-.706 2.648-.573.718.122 1.284.543 1.7 1.263.192.333.311.675.357 1.027.046.353.012.7-.104 1.044-.115.344-.32.679-.611 1.005-.286.322-.667.62-1.145.896a5.185 5.185 0 0 1-.617.3 6.412 6.412 0 0 1-.646.25 7.26 7.26 0 0 1-.575.179 2.317 2.317 0 0 1-.426.08l-.457-1.441c.217-.024.49-.08.818-.167a5.02 5.02 0 0 0 1.078-.484c.478-.276.77-.57.877-.881.103-.318.08-.605-.067-.862ZM62.248 108.398l.135-.064.182-.105c.406-.234.646-.51.722-.826.08-.318.015-.658-.193-1.018-.218-.378-.476-.609-.775-.695-.3-.086-.652-.012-1.057.222a3.025 3.025 0 0 0-.168.104 1.446 1.446 0 0 0-.16.106l1.314 2.276Zm1.683-2.496c.18.312.288.612.326.9.036.288.009.56-.083.817-.089.254-.24.493-.452.718a3.498 3.498 0 0 1-.796.612c-.146.084-.32.175-.522.273-.2.102-.404.187-.613.257l-2.025-3.507c.167-.143.348-.277.543-.404a8.98 8.98 0 0 1 .513-.323c.308-.178.607-.305.896-.38a1.99 1.99 0 0 1 .839-.047c.266.045.514.155.745.331.231.177.441.427.629.753ZM64.6 103.063c.541-.312 1.011-.454 1.41-.426.398.024.714.239.948.644.146.253.206.493.18.721-.024.222-.12.441-.285.657a7.409 7.409 0 0 1 .852.408c.152.079.304.166.457.263.15.093.295.188.433.283l-.91.525c-.133-.08-.27-.16-.409-.241a6.774 6.774 0 0 0-.412-.234 8.199 8.199 0 0 0-.393-.202 3.73 3.73 0 0 0-.37-.16l-.4.231.759 1.314-.811.468-2.049-3.549c.157-.136.325-.266.504-.388.182-.123.348-.228.497-.314Zm.447.664a2.382 2.382 0 0 0-.159.098l-.123.085.564.977.228-.132c.305-.176.501-.34.589-.492.088-.152.078-.32-.028-.504-.102-.177-.241-.262-.418-.257-.176 0-.394.075-.653.225ZM70.11 104.739a31.74 31.74 0 0 1-.965-.697 41.433 41.433 0 0 1-.953-.739c-.308-.247-.6-.484-.876-.713a43.41 43.41 0 0 1-.72-.624l.894-.516c.189.168.394.35.613.547l.664.573.645.542c.206.172.39.318.55.437a17.197 17.197 0 0 0-.108-.692 28.729 28.729 0 0 0-.147-.83 96.435 96.435 0 0 0-.326-1.669l.863-.498c.052.275.11.588.174.939a40.96 40.96 0 0 1 .348 2.307c.05.405.09.8.123 1.183l-.78.45Z"/></g><g clip-path="url(#j)"><path fill="#0364B9" d="m55.372-16.974-17.32 10a6 6 0 0 0-2.197 8.197l8.75 15.155 27.713-16-8.75-15.155a6 6 0 0 0-8.196-2.197Z"/><path fill="#0A559E" d="M38.052-6.974a6 6 0 0 0-2.197 8.197l.088.15 23.545-19.046a5.976 5.976 0 0 0-4.116.7l-17.32 10ZM63.568-14.777a5.977 5.977 0 0 0-3.237-2.672l7.313 20.525L72.318.378l-8.75-15.155Z"/><path fill="#71BD0E" d="m44.355 15.945 27.713-16 1.5 2.598a6 6 0 0 1-2.196 8.196l-17.32 10a6 6 0 0 1-8.197-2.196l-1.5-2.598Z"/><path fill="#fff" d="M44.056.742c.257.156.563.359.918.606.358.237.738.502 1.14.797.404.284.81.58 1.22.89l1.154.87-.178-1.435a78.864 78.864 0 0 1-.17-1.495 74.96 74.96 0 0 1-.121-1.385c-.03-.435-.048-.804-.055-1.104l1.475-.852c.346.438.718.939 1.117 1.503A52.4 52.4 0 0 1 51.78.897c.417.609.828 1.226 1.235 1.85.413.62.798 1.207 1.154 1.759l-1.58.912c-.425-.688-.892-1.434-1.403-2.239A71.374 71.374 0 0 0 49.59.775l.142 1.207.155 1.324a108.318 108.318 0 0 1 .283 2.29l-1.133.653-.827-.617-1.025-.766c-.35-.27-.702-.537-1.059-.802l-.973-.727c.414.879.842 1.74 1.284 2.584.441.845.853 1.623 1.237 2.335l-1.58.912c-.3-.584-.62-1.209-.956-1.873-.33-.668-.66-1.333-.986-1.995-.323-.672-.627-1.318-.912-1.94a47.712 47.712 0 0 1-.732-1.724l1.548-.894ZM56.191-6.264l.798 1.382-2.172 1.254 3.36 5.82-1.621.936-3.36-5.82-2.172 1.254-.798-1.382 5.965-3.444ZM62.557-3.164a1.18 1.18 0 0 0-.44-.452c-.183-.107-.415-.149-.697-.125-.281.024-.625.116-1.031.277-.406.16-.894.405-1.462.733a50.718 50.718 0 0 0-.947-2.072 86.1 86.1 0 0 0-.965-1.937l3.897-2.25.75 1.3-2.598 1.5c.13.257.253.51.368.757.118.236.217.447.296.632 1.051-.514 1.934-.705 2.648-.573.717.122 1.284.543 1.7 1.264.192.333.31.675.357 1.027.046.352.011.7-.104 1.044a2.9 2.9 0 0 1-.612 1.004c-.285.322-.667.62-1.145.897a5.19 5.19 0 0 1-.616.3 6.408 6.408 0 0 1-.647.249 7.29 7.29 0 0 1-.575.18 2.309 2.309 0 0 1-.425.079l-.457-1.44c.217-.024.49-.08.817-.168a5.02 5.02 0 0 0 1.079-.484c.478-.276.77-.57.877-.88.103-.319.08-.606-.068-.862ZM57.64 15.873l-2.08-3.601 2.411-1.392.393.68-1.6.924.435.754 1.424-.822.393.68-1.424.822.858 1.487-.81.468ZM58.544 10.549l.81-.468 2.08 3.6-.811.469-2.08-3.601ZM64.683 11.806c-.47-.279-.956-.54-1.458-.786a14.311 14.311 0 0 0-1.52-.64l1.362 2.359-.8.462-2.08-3.601.66-.381c.181.048.389.115.623.202.235.086.478.183.73.292.253.103.51.216.77.338.258.119.504.236.736.35L62.48 8.278l.806-.465 2.079 3.6-.68.394Z"/></g><g clip-path="url(#k)"><path fill="#0364B9" d="m76.173 19.054-17.32 10a6 6 0 0 0-2.197 8.196l8.75 15.155 27.713-16-8.75-15.155a6 6 0 0 0-8.196-2.196Z"/><path fill="#0A559E" d="M58.852 29.054a6 6 0 0 0-2.196 8.196l.087.15L80.29 18.356a5.977 5.977 0 0 0-4.116.699l-17.32 10ZM84.37 21.25a5.978 5.978 0 0 0-3.239-2.672l7.314 20.526 4.674-2.699-8.75-15.155Z"/><path fill="#2A3052" d="m65.156 51.972 27.713-16 1.5 2.598a6 6 0 0 1-2.196 8.197l-17.32 10a6 6 0 0 1-8.197-2.197l-1.5-2.598Z"/><path fill="#fff" d="M64.857 36.77c.257.156.563.358.918.605.358.237.738.503 1.14.798.403.283.81.58 1.22.889l1.154.871-.178-1.435a78.977 78.977 0 0 1-.17-1.495c-.048-.5-.088-.961-.121-1.386a25.9 25.9 0 0 1-.056-1.104l1.476-.852c.345.438.718.94 1.117 1.503.402.553.81 1.14 1.224 1.76.416.61.828 1.226 1.235 1.85.413.62.798 1.207 1.154 1.76l-1.58.911c-.425-.688-.892-1.434-1.403-2.238a71.17 71.17 0 0 0-1.596-2.404l.142 1.206.155 1.324a108.286 108.286 0 0 1 .283 2.29l-1.133.654c-.23-.173-.505-.379-.828-.617a262.73 262.73 0 0 0-1.024-.767c-.35-.27-.703-.537-1.059-.802l-.974-.726c.415.878.843 1.74 1.284 2.584.442.844.854 1.622 1.237 2.334l-1.58.912c-.3-.584-.618-1.208-.956-1.873l-.985-1.994c-.324-.672-.627-1.32-.912-1.94a47.742 47.742 0 0 1-.733-1.725l1.549-.894ZM76.992 29.763l.798 1.382-2.172 1.254 3.36 5.82-1.621.936-3.36-5.82-2.172 1.254-.798-1.382 5.965-3.444ZM83.358 32.863a1.18 1.18 0 0 0-.441-.452c-.182-.107-.414-.149-.696-.125-.282.024-.625.117-1.032.277-.406.16-.893.405-1.46.733a50.72 50.72 0 0 0-.948-2.072 85.95 85.95 0 0 0-.966-1.936l3.898-2.25.75 1.299-2.598 1.5c.13.257.252.51.368.757.118.237.216.447.296.633 1.051-.515 1.934-.706 2.648-.573.717.122 1.283.543 1.7 1.263.191.333.31.675.357 1.027.046.352.011.7-.104 1.044a2.9 2.9 0 0 1-.612 1.005c-.285.321-.667.62-1.145.896a5.184 5.184 0 0 1-.616.3 6.404 6.404 0 0 1-.647.25 7.26 7.26 0 0 1-.575.179 2.309 2.309 0 0 1-.425.08l-.458-1.441c.218-.024.49-.08.818-.167a5.018 5.018 0 0 0 1.079-.485c.478-.276.77-.57.877-.88.103-.318.08-.605-.068-.862ZM77.478 51.572l.136-.065.182-.105c.405-.234.646-.509.722-.825.08-.319.015-.658-.193-1.018-.218-.378-.477-.61-.776-.695-.299-.086-.651-.012-1.056.222a3.364 3.364 0 0 0-.169.104c-.059.034-.112.07-.16.106l1.314 2.276Zm1.683-2.496c.18.312.289.611.326.9.037.288.01.56-.083.816-.088.255-.239.494-.451.718a3.49 3.49 0 0 1-.797.613c-.145.084-.32.175-.521.273a4.51 4.51 0 0 1-.614.257l-2.025-3.507a5.15 5.15 0 0 1 .543-.404c.197-.132.368-.24.513-.324a3.61 3.61 0 0 1 .897-.379 1.98 1.98 0 0 1 .838-.047c.266.045.515.155.746.331.23.176.44.427.628.753ZM79.831 46.236c.54-.311 1.01-.453 1.41-.425.398.024.713.239.948.644.146.253.206.493.18.72-.025.222-.12.441-.286.658.125.047.26.108.409.18.145.068.293.144.444.228a9.98 9.98 0 0 1 .89.546l-.91.525c-.133-.08-.27-.16-.41-.242a6.846 6.846 0 0 0-.411-.233 7.614 7.614 0 0 0-.394-.202 3.813 3.813 0 0 0-.37-.16l-.4.23.76 1.315-.812.468-2.049-3.549c.157-.137.325-.266.504-.388.183-.124.348-.229.497-.315Zm.446.665a2.608 2.608 0 0 0-.158.098l-.124.085.564.977.229-.132c.305-.176.5-.34.588-.492.088-.152.079-.32-.027-.504-.102-.177-.242-.262-.419-.257-.175 0-.393.075-.653.225ZM85.34 47.913c-.316-.22-.638-.452-.964-.698a40.935 40.935 0 0 1-.953-.738c-.309-.247-.601-.485-.876-.714a45.155 45.155 0 0 1-.72-.623l.893-.516.614.546.663.574.645.541c.206.173.39.319.55.438a17.016 17.016 0 0 0-.108-.692 28.794 28.794 0 0 0-.146-.83 99.43 99.43 0 0 0-.326-1.669l.862-.498.175.938a38.014 38.014 0 0 1 .348 2.307c.05.406.09.8.122 1.184l-.78.45Z"/></g><g clip-path="url(#l)"><path fill="#0364B9" d="m96.97 55.08-17.32 10a6 6 0 0 0-2.197 8.196l8.75 15.156 27.713-16-8.75-15.156a6 6 0 0 0-8.196-2.196Z"/><path fill="#0A559E" d="M79.65 65.08a6 6 0 0 0-2.197 8.196l.087.151 23.546-19.046a5.976 5.976 0 0 0-4.116.7l-17.32 10ZM105.166 57.276a5.976 5.976 0 0 0-3.238-2.672l7.314 20.526 4.674-2.698-8.75-15.156Z"/><path fill="#71BD0E" d="m85.953 87.999 27.713-16 1.5 2.598a6 6 0 0 1-2.196 8.196l-17.32 10a6 6 0 0 1-8.197-2.196l-1.5-2.598Z"/><path fill="#fff" d="M85.654 72.796c.256.156.562.358.918.606.358.236.738.502 1.139.797.404.284.81.58 1.22.889l1.154.872-.177-1.436a78.79 78.79 0 0 1-.17-1.495c-.048-.499-.089-.96-.121-1.385-.03-.436-.049-.804-.056-1.104l1.476-.852c.345.438.717.938 1.117 1.502.402.553.81 1.14 1.224 1.76.416.61.828 1.226 1.234 1.85.414.621.799 1.207 1.154 1.76l-1.58.911c-.424-.687-.892-1.433-1.402-2.238a71.267 71.267 0 0 0-1.596-2.404l.142 1.206.155 1.325a110.477 110.477 0 0 1 .282 2.289l-1.132.654a118.94 118.94 0 0 0-.828-.617 255.13 255.13 0 0 0-1.024-.767c-.35-.269-.703-.536-1.059-.801l-.974-.727c.415.878.843 1.74 1.284 2.584.442.845.854 1.623 1.237 2.334l-1.58.912c-.3-.584-.618-1.208-.956-1.872l-.985-1.995c-.324-.672-.628-1.319-.912-1.94a47.639 47.639 0 0 1-.733-1.724l1.549-.894ZM97.789 65.79l.798 1.382-2.172 1.254 3.36 5.82-1.622.935-3.36-5.82-2.172 1.255-.797-1.383 5.965-3.444ZM104.155 68.89a1.18 1.18 0 0 0-.441-.452c-.182-.108-.414-.15-.696-.125-.282.024-.626.116-1.032.277-.406.16-.893.405-1.461.733a50.991 50.991 0 0 0-.947-2.072 85.967 85.967 0 0 0-.966-1.937l3.898-2.25.75 1.299-2.599 1.5c.131.257.253.51.368.757.119.237.217.448.297.633 1.051-.515 1.934-.706 2.648-.573.717.122 1.283.543 1.699 1.264.192.332.311.675.358 1.027.046.352.011.7-.104 1.043-.116.344-.32.68-.612 1.005-.285.322-.667.62-1.145.897a5.18 5.18 0 0 1-.617.3 6.316 6.316 0 0 1-.646.249 7.394 7.394 0 0 1-.575.18 2.325 2.325 0 0 1-.425.079l-.458-1.44c.217-.025.49-.08.818-.168a4.998 4.998 0 0 0 1.078-.484c.479-.276.771-.57.878-.88.102-.319.08-.606-.068-.862ZM99.237 87.926l-2.08-3.6 2.412-1.393.393.681-1.6.924.434.753 1.424-.822.393.681-1.424.822.858 1.486-.81.468ZM100.141 82.603l.811-.468 2.079 3.6-.811.469-2.079-3.601ZM106.281 83.86c-.47-.279-.956-.54-1.459-.787a14.276 14.276 0 0 0-1.519-.64l1.362 2.36-.8.461-2.079-3.6.659-.382c.181.049.388.116.623.202.234.087.478.184.73.292a30.217 30.217 0 0 1 1.506.69l-1.227-2.126.805-.465 2.079 3.601-.68.393Z"/></g><g clip-path="url(#m)"><path fill="#0364B9" d="m117.771 91.106-17.321 10a6.001 6.001 0 0 0-2.196 8.197l8.75 15.155 27.713-16-8.75-15.155a6 6 0 0 0-8.196-2.197Z"/><path fill="#0A559E" d="M100.45 101.106a6.001 6.001 0 0 0-2.196 8.197l.087.151 23.546-19.047a5.975 5.975 0 0 0-4.116.7l-17.321 9.999ZM125.967 93.303a5.977 5.977 0 0 0-3.238-2.672l7.313 20.525 4.675-2.698-8.75-15.155Z"/><path fill="#2A3052" d="m106.754 124.025 27.713-16 1.5 2.598a6 6 0 0 1-2.196 8.196l-17.321 10a6 6 0 0 1-8.196-2.196l-1.5-2.598Z"/><path fill="#fff" d="M106.454 108.822c.257.157.563.359.919.606.358.237.738.502 1.139.797.404.284.811.581 1.22.889l1.154.872-.177-1.436a78.21 78.21 0 0 1-.171-1.495c-.048-.499-.088-.96-.121-1.385a26.39 26.39 0 0 1-.055-1.104l1.476-.852c.345.438.717.939 1.117 1.503.402.553.81 1.139 1.224 1.76a99.05 99.05 0 0 1 1.234 1.85c.414.62.799 1.207 1.154 1.759l-1.579.912c-.425-.688-.893-1.434-1.404-2.239a71.89 71.89 0 0 0-1.595-2.404l.142 1.207.155 1.324c.058.437.112.859.162 1.264.045.399.085.741.12 1.025l-1.133.654c-.229-.172-.504-.378-.827-.617-.326-.245-.668-.501-1.024-.766-.35-.27-.703-.537-1.059-.802a796.04 796.04 0 0 1-.974-.727c.415.879.843 1.74 1.284 2.584.442.845.854 1.623 1.237 2.335l-1.58.912c-.3-.584-.619-1.209-.956-1.873l-.985-1.994c-.324-.673-.628-1.319-.912-1.94a47.773 47.773 0 0 1-.733-1.725l1.548-.894ZM118.59 101.816l.798 1.382-2.172 1.254 3.36 5.82-1.622.936-3.36-5.82-2.172 1.254-.798-1.382 5.966-3.444ZM124.956 104.916a1.177 1.177 0 0 0-.441-.452c-.183-.107-.414-.149-.696-.125-.282.024-.626.117-1.032.277a11.52 11.52 0 0 0-1.461.733 51.812 51.812 0 0 0-.947-2.072 89.961 89.961 0 0 0-.966-1.937l3.897-2.25.75 1.299-2.598 1.5c.13.258.253.51.368.758.118.236.217.447.296.632 1.052-.514 1.935-.705 2.649-.572.717.121 1.283.543 1.699 1.263.192.333.311.675.357 1.027.047.352.012.7-.104 1.044a2.882 2.882 0 0 1-.611 1.004c-.286.322-.667.621-1.145.897a5.134 5.134 0 0 1-.617.3 6.364 6.364 0 0 1-.646.249 7.767 7.767 0 0 1-.575.18 2.409 2.409 0 0 1-.426.079l-.457-1.44c.217-.024.49-.08.818-.168a5.034 5.034 0 0 0 1.078-.484c.478-.276.771-.569.877-.88.103-.318.081-.606-.067-.862ZM119.076 123.625l.136-.065.181-.105c.406-.234.646-.509.722-.825.08-.319.016-.658-.192-1.018-.218-.378-.477-.61-.776-.696-.299-.086-.651-.012-1.057.222a4.068 4.068 0 0 0-.168.104c-.059.034-.112.07-.16.107l1.314 2.276Zm1.683-2.496c.18.311.289.611.326.899.037.288.009.561-.083.817a1.996 1.996 0 0 1-.452.718 3.478 3.478 0 0 1-.796.612 8.986 8.986 0 0 1-.521.274 4.61 4.61 0 0 1-.614.257l-2.025-3.508c.167-.142.348-.277.543-.403a8.78 8.78 0 0 1 .513-.324c.308-.178.607-.304.896-.379.293-.077.573-.093.839-.048s.515.156.746.332c.231.176.44.427.628.753ZM121.429 118.289c.54-.312 1.01-.454 1.41-.426.397.025.713.24.947.645.146.253.206.493.18.72a1.31 1.31 0 0 1-.285.657c.124.048.261.108.408.18.146.068.294.145.444.229a9.827 9.827 0 0 1 .89.546l-.909.525a34.519 34.519 0 0 0-.821-.475 7.82 7.82 0 0 0-.394-.202 3.855 3.855 0 0 0-.37-.161l-.4.231.759 1.315-.811.468-2.049-3.549c.157-.137.325-.266.504-.388a7.97 7.97 0 0 1 .497-.315Zm.446.664a2.672 2.672 0 0 0-.158.098l-.124.086.564.977.228-.132c.305-.176.501-.34.589-.493.088-.152.079-.32-.027-.503-.102-.177-.242-.263-.419-.257-.176-.001-.393.074-.653.224ZM126.937 119.966c-.316-.22-.637-.452-.964-.698a43.242 43.242 0 0 1-2.549-2.075l.894-.516.613.546.664.573.645.542c.206.172.389.318.551.438a19.166 19.166 0 0 0-.109-.693 29.036 29.036 0 0 0-.147-.83 94.6 94.6 0 0 0-.326-1.668l.863-.498c.052.274.11.587.174.938a40.523 40.523 0 0 1 .349 2.307c.049.406.09.8.122 1.184l-.78.45Z"/></g><g clip-path="url(#n)"><path fill="#0364B9" d="m91.396-37.774-17.32 10a6 6 0 0 0-2.197 8.196l8.75 15.155 27.713-16-8.75-15.155a6 6 0 0 0-8.196-2.196Z"/><path fill="#0A559E" d="M74.075-27.774a6 6 0 0 0-2.196 8.196l.087.15 23.546-19.046a5.976 5.976 0 0 0-4.116.7l-17.32 10ZM99.592-35.578a5.977 5.977 0 0 0-3.238-2.672l7.313 20.526 4.675-2.699-8.75-15.155Z"/><path fill="#2A3052" d="m80.379-4.856 27.713-16 1.5 2.598a6 6 0 0 1-2.196 8.196l-17.32 10a6 6 0 0 1-8.197-2.196l-1.5-2.598Z"/><path fill="#fff" d="M80.08-20.059c.256.157.562.359.918.606.358.237.738.502 1.139.797.404.284.81.58 1.22.89l1.154.871-.177-1.436a79.603 79.603 0 0 1-.17-1.495c-.049-.498-.089-.96-.121-1.385-.03-.435-.049-.803-.056-1.104l1.476-.852c.345.438.717.939 1.117 1.503.402.553.81 1.14 1.224 1.76.416.61.828 1.226 1.234 1.85.414.62.799 1.207 1.154 1.759l-1.58.912c-.424-.688-.892-1.434-1.402-2.238a71.42 71.42 0 0 0-1.596-2.405 521.944 521.944 0 0 1 .297 2.531 110.537 110.537 0 0 1 .282 2.29l-1.132.653a118.94 118.94 0 0 0-.828-.617l-1.024-.766c-.35-.27-.703-.537-1.06-.802l-.973-.727c.415.879.843 1.74 1.284 2.585.442.844.854 1.622 1.237 2.334l-1.58.912c-.3-.584-.619-1.208-.956-1.873a2660.9 2660.9 0 0 1-.985-1.994 114.86 114.86 0 0 1-.913-1.94 47.803 47.803 0 0 1-.732-1.725l1.548-.894ZM92.215-27.065l.797 1.382-2.171 1.254 3.36 5.82-1.622.936-3.36-5.82-2.172 1.254-.798-1.382 5.966-3.444ZM98.58-23.965a1.18 1.18 0 0 0-.44-.452c-.183-.107-.414-.149-.696-.125-.282.024-.626.117-1.032.277-.406.16-.893.405-1.461.733a50.72 50.72 0 0 0-.947-2.072 86.179 86.179 0 0 0-.966-1.937l3.897-2.25.75 1.3-2.598 1.5c.13.257.253.51.368.757.118.237.217.447.296.633 1.052-.515 1.935-.706 2.649-.573.717.122 1.283.543 1.699 1.263.192.333.311.675.357 1.027.047.352.012.7-.104 1.044a2.888 2.888 0 0 1-.611 1.004c-.286.322-.667.621-1.145.897a5.185 5.185 0 0 1-.617.3 6.403 6.403 0 0 1-.646.249 7.272 7.272 0 0 1-.575.18 2.318 2.318 0 0 1-.426.079l-.457-1.44c.217-.024.49-.08.818-.168a5.023 5.023 0 0 0 1.078-.484c.478-.276.77-.57.877-.88.103-.318.08-.605-.067-.862ZM92.7-5.256l.136-.065.182-.105c.406-.234.646-.509.722-.825.08-.319.016-.658-.192-1.018-.219-.378-.477-.61-.776-.696-.3-.086-.651-.012-1.057.222a3.341 3.341 0 0 0-.168.105c-.059.034-.112.069-.16.106L92.7-5.256Zm1.684-2.496c.18.311.289.611.326.9.037.288.009.56-.083.816-.089.255-.24.494-.452.718a3.492 3.492 0 0 1-.796.613 8.38 8.38 0 0 1-.521.273 4.51 4.51 0 0 1-.614.257l-2.025-3.507c.167-.143.348-.278.543-.404.196-.132.367-.24.513-.324.308-.178.607-.304.896-.379a1.98 1.98 0 0 1 .839-.047c.266.045.515.155.746.331.23.176.44.427.628.753ZM95.054-10.592c.54-.312 1.01-.454 1.41-.426.397.025.713.24.947.645.146.253.206.493.18.72-.024.222-.12.441-.285.657.124.048.26.108.408.18.146.068.294.145.444.229a10.041 10.041 0 0 1 .89.546l-.909.525-.41-.242a6.828 6.828 0 0 0-.411-.233 7.528 7.528 0 0 0-.394-.202 3.792 3.792 0 0 0-.37-.16l-.4.23.759 1.315-.81.468-2.05-3.55c.157-.136.325-.265.504-.387.182-.124.348-.229.497-.315Zm.446.664a2.628 2.628 0 0 0-.282.184l.564.977.228-.132c.305-.176.501-.34.59-.492.087-.153.078-.32-.028-.504-.102-.177-.242-.263-.42-.257-.175 0-.392.074-.652.224ZM100.562-8.915c-.316-.22-.637-.452-.964-.698a41.019 41.019 0 0 1-.953-.738c-.308-.247-.6-.485-.876-.714a45.602 45.602 0 0 1-.72-.623l.894-.516.613.546.664.573c.224.19.44.37.645.542.206.173.389.318.551.438a19.507 19.507 0 0 0-.109-.693 28.902 28.902 0 0 0-.147-.83 94.729 94.729 0 0 0-.326-1.669l.863-.497c.052.274.11.587.174.938a40.605 40.605 0 0 1 .349 2.307c.049.406.09.8.122 1.184l-.78.45Z"/></g><g clip-path="url(#o)"><path fill="#0364B9" d="m112.196-1.747-17.32 10a6 6 0 0 0-2.196 8.196l8.75 15.155 27.712-16L120.392.45a6 6 0 0 0-8.196-2.196Z"/><path fill="#0A559E" d="M94.876 8.253a6 6 0 0 0-2.196 8.196l.087.151 23.546-19.046a5.979 5.979 0 0 0-4.117.699l-17.32 10ZM120.392.45a5.978 5.978 0 0 0-3.237-2.673l7.313 20.526 4.674-2.699L120.392.45Z"/><path fill="#71BD0E" d="m101.18 31.172 27.712-16 1.5 2.598a6 6 0 0 1-2.196 8.196l-17.32 10a6 6 0 0 1-8.196-2.196l-1.5-2.599Z"/><path fill="#fff" d="M100.88 15.968c.257.157.563.36.918.607.359.236.738.502 1.14.797.404.284.81.58 1.22.889l1.154.871-.178-1.435a88.076 88.076 0 0 1-.17-1.495c-.048-.5-.088-.96-.121-1.385a26.472 26.472 0 0 1-.055-1.105l1.475-.852c.346.439.718.94 1.118 1.503.402.553.81 1.14 1.223 1.76.417.61.828 1.226 1.235 1.85.414.62.798 1.207 1.154 1.76l-1.58.911c-.424-.688-.892-1.434-1.403-2.238a69.25 69.25 0 0 0-1.596-2.404l.143 1.206.154 1.324c.059.438.113.86.162 1.265.046.398.086.74.121 1.025l-1.133.654a129.92 129.92 0 0 0-.827-.617c-.327-.246-.668-.501-1.025-.767-.349-.269-.702-.536-1.058-.802l-.974-.726c.415.878.843 1.74 1.284 2.584.441.844.854 1.622 1.237 2.334l-1.58.912c-.3-.584-.619-1.208-.956-1.872l-.986-1.995c-.323-.672-.627-1.319-.912-1.94a48.15 48.15 0 0 1-.732-1.725l1.548-.894ZM113.015 8.962l.798 1.382-2.172 1.254 3.36 5.82-1.621.936-3.36-5.82-2.172 1.254-.798-1.382 5.965-3.444ZM119.381 12.063a1.18 1.18 0 0 0-.441-.453c-.182-.107-.414-.149-.695-.124-.282.024-.626.116-1.032.277-.406.16-.893.405-1.461.732a51.626 51.626 0 0 0-.947-2.072 89.592 89.592 0 0 0-.966-1.936l3.897-2.25.75 1.299-2.598 1.5c.13.257.253.51.368.757.118.237.217.448.296.633 1.052-.515 1.934-.706 2.648-.573.717.122 1.284.543 1.7 1.264.192.332.311.674.357 1.026.046.352.012.7-.104 1.044a2.88 2.88 0 0 1-.612 1.005c-.285.322-.667.62-1.145.896a5.164 5.164 0 0 1-.616.3 6.406 6.406 0 0 1-.646.25 7.195 7.195 0 0 1-.576.179 2.294 2.294 0 0 1-.425.08l-.457-1.44c.217-.025.49-.08.818-.168a5.02 5.02 0 0 0 1.078-.484c.478-.276.77-.57.877-.881.103-.318.08-.605-.068-.861ZM114.463 31.1l-2.079-3.602 2.411-1.392.393.68-1.6.925.435.753 1.424-.822.393.681-1.424.822.858 1.486-.811.468ZM115.368 25.776l.811-.468 2.079 3.6-.811.468-2.079-3.6ZM121.507 27.032c-.47-.278-.956-.54-1.458-.786a14.311 14.311 0 0 0-1.52-.64l1.362 2.36-.8.461-2.079-3.6.66-.382c.18.049.388.116.622.202.235.086.478.184.73.292.254.103.511.216.771.338.258.12.503.236.736.351l-1.227-2.125.805-.465 2.079 3.601-.681.393Z"/></g><g clip-path="url(#p)"><path fill="#0364B9" d="m132.993 34.28-17.32 10a6 6 0 0 0-2.196 8.195l8.75 15.156 27.712-16-8.75-15.156a6 6 0 0 0-8.196-2.196Z"/><path fill="#0A559E" d="M115.673 44.28a6 6 0 0 0-2.196 8.195l.087.151L137.11 33.58a5.979 5.979 0 0 0-4.117.7l-17.32 10ZM141.189 36.475a5.978 5.978 0 0 0-3.237-2.671l7.313 20.525 4.674-2.698-8.75-15.156Z"/><path fill="#2A3052" d="m121.977 67.198 27.712-16 1.5 2.598a6 6 0 0 1-2.196 8.196l-17.32 10a6 6 0 0 1-8.196-2.196l-1.5-2.598Z"/><path fill="#fff" d="M121.677 51.995c.257.156.563.358.918.606.358.236.738.502 1.139.797.405.284.811.58 1.22.89l1.155.87-.178-1.435a87.97 87.97 0 0 1-.17-1.495c-.048-.499-.088-.96-.121-1.385-.03-.436-.048-.804-.055-1.104l1.475-.852c.346.438.718.939 1.117 1.503.403.553.811 1.14 1.224 1.76.417.609.828 1.226 1.235 1.85.414.62.798 1.206 1.154 1.759l-1.58.912a214.32 214.32 0 0 0-1.403-2.239 70.816 70.816 0 0 0-1.596-2.404l.143 1.207.154 1.324c.059.437.113.858.162 1.264.046.399.086.74.121 1.025l-1.133.654-.827-.617c-.327-.245-.668-.501-1.025-.766-.349-.27-.702-.537-1.059-.802l-.973-.727c.414.878.842 1.74 1.284 2.584.441.845.853 1.623 1.237 2.335l-1.58.912c-.3-.584-.619-1.209-.956-1.873l-.986-1.995c-.323-.672-.627-1.319-.912-1.94a47.475 47.475 0 0 1-.732-1.724l1.548-.894ZM133.812 44.989l.798 1.382-2.172 1.254 3.36 5.82-1.621.935-3.36-5.82-2.172 1.255-.798-1.382 5.965-3.444ZM140.178 48.089a1.18 1.18 0 0 0-.441-.452c-.182-.108-.414-.15-.695-.125-.282.024-.626.116-1.032.277-.406.16-.893.405-1.462.733a50.29 50.29 0 0 0-.946-2.072 89.43 89.43 0 0 0-.966-1.937l3.897-2.25.75 1.3-2.598 1.5c.13.256.253.509.368.757.118.236.217.447.296.632 1.051-.514 1.934-.705 2.648-.573.717.122 1.284.543 1.7 1.264.192.332.311.675.357 1.027.046.352.012.7-.104 1.044a2.88 2.88 0 0 1-.612 1.004c-.285.322-.667.62-1.145.897a5.148 5.148 0 0 1-.616.3 6.383 6.383 0 0 1-.646.249 7.323 7.323 0 0 1-.576.18 2.302 2.302 0 0 1-.425.079l-.457-1.44c.217-.024.489-.08.817-.168a5.009 5.009 0 0 0 1.079-.484c.478-.276.77-.57.877-.88.103-.319.08-.606-.068-.862ZM134.298 66.798l.136-.065.182-.105c.405-.234.646-.51.722-.826.079-.318.015-.657-.193-1.018-.218-.377-.476-.609-.775-.695-.299-.086-.652-.012-1.057.222a3.142 3.142 0 0 0-.168.104c-.059.034-.113.07-.161.107l1.314 2.276Zm1.684-2.497c.18.312.288.612.325.9.037.288.01.56-.082.817-.089.254-.24.494-.452.718a3.48 3.48 0 0 1-.797.612 8.257 8.257 0 0 1-.521.273c-.2.102-.404.188-.613.258l-2.025-3.508c.167-.142.348-.277.543-.403.196-.132.367-.24.512-.324.309-.178.608-.304.897-.38.293-.076.572-.092.839-.047.266.045.514.156.745.332.231.176.441.427.629.752ZM136.652 61.462c.54-.312 1.01-.454 1.41-.426.397.025.713.24.947.645.146.253.206.493.18.72-.024.222-.119.441-.286.657.125.048.261.108.409.18.146.068.294.144.444.229a9.644 9.644 0 0 1 .89.546l-.909.525-.41-.242a6.818 6.818 0 0 0-.412-.233 7.197 7.197 0 0 0-.763-.363l-.401.23.759 1.316-.81.468-2.049-3.55c.156-.136.324-.265.503-.387.183-.124.349-.229.498-.315Zm.445.664a3.2 3.2 0 0 0-.158.098l-.124.086.564.977.229-.132c.305-.176.501-.34.589-.493.087-.152.078-.32-.028-.503-.102-.177-.241-.263-.418-.258-.176 0-.394.075-.654.225ZM142.16 63.139c-.316-.22-.637-.452-.964-.698a40.733 40.733 0 0 1-.953-.739 54.882 54.882 0 0 1-.876-.713 44.2 44.2 0 0 1-.72-.623l.894-.516c.189.167.393.35.613.546l.663.573.646.542c.205.172.389.318.55.437a15.75 15.75 0 0 0-.109-.692 25.67 25.67 0 0 0-.146-.83c-.052-.289-.106-.576-.165-.86-.057-.291-.11-.56-.161-.808l.862-.498c.053.274.111.587.175.938a40.633 40.633 0 0 1 .348 2.307c.05.406.09.8.122 1.183l-.779.45Z"/></g><g clip-path="url(#q)"><path fill="#0364B9" d="m153.794 70.306-17.321 10a6 6 0 0 0-2.196 8.196l8.75 15.155 27.713-16-8.75-15.155a6 6 0 0 0-8.196-2.196Z"/><path fill="#0A559E" d="M136.473 80.306a6 6 0 0 0-2.196 8.196l.087.15 23.546-19.046a5.976 5.976 0 0 0-4.116.7l-17.321 10ZM161.99 72.502a5.978 5.978 0 0 0-3.237-2.672l7.313 20.526 4.674-2.699-8.75-15.155Z"/><path fill="#71BD0E" d="m142.777 103.224 27.713-16 1.5 2.598a6 6 0 0 1-2.196 8.197l-17.321 9.999a6 6 0 0 1-8.196-2.196l-1.5-2.598Z"/><path fill="#fff" d="M142.478 88.021c.257.157.563.359.918.606.358.237.738.503 1.139.797.404.284.811.58 1.22.89l1.155.871-.178-1.435a71.342 71.342 0 0 1-.17-1.496c-.048-.498-.088-.96-.121-1.385a26.68 26.68 0 0 1-.056-1.104l1.476-.852c.345.438.718.94 1.117 1.503.403.553.81 1.14 1.224 1.76.417.61.828 1.226 1.235 1.85.413.62.798 1.207 1.154 1.759l-1.58.912a214.32 214.32 0 0 0-1.403-2.238 72.25 72.25 0 0 0-1.596-2.404l.142 1.206.155 1.324c.059.437.113.859.162 1.265.045.398.086.74.121 1.025l-1.133.653-.827-.617-1.025-.766c-.349-.27-.702-.537-1.059-.802l-.973-.726c.414.878.842 1.74 1.284 2.584.441.844.853 1.622 1.236 2.334l-1.579.912c-.3-.584-.619-1.208-.957-1.873l-.985-1.994a122.69 122.69 0 0 1-.912-1.94 47.621 47.621 0 0 1-.733-1.725l1.549-.894ZM154.613 81.015l.798 1.382-2.172 1.254 3.36 5.82-1.621.936-3.36-5.82-2.172 1.254-.798-1.382 5.965-3.444ZM160.979 84.115a1.18 1.18 0 0 0-.441-.452c-.182-.107-.414-.149-.696-.125-.281.024-.625.117-1.031.277-.407.16-.894.405-1.462.733a50.324 50.324 0 0 0-.947-2.072 85.425 85.425 0 0 0-.965-1.937l3.897-2.25.75 1.3-2.598 1.5c.13.257.252.51.368.757.118.237.217.447.296.633 1.051-.515 1.934-.706 2.648-.573.717.122 1.284.543 1.7 1.263.192.333.311.675.357 1.027.046.352.011.7-.104 1.044-.116.344-.32.679-.612 1.005-.285.321-.667.62-1.145.896a5.164 5.164 0 0 1-.616.3 6.448 6.448 0 0 1-.647.25 7.262 7.262 0 0 1-.575.179 2.31 2.31 0 0 1-.425.08l-.458-1.441c.218-.024.49-.08.818-.168a5.025 5.025 0 0 0 1.079-.484c.478-.276.77-.57.877-.88.103-.318.08-.605-.068-.862ZM156.061 103.152l-2.079-3.601 2.411-1.392.393.68-1.6.925.435.753 1.423-.822.393.681-1.423.822.858 1.486-.811.468ZM156.966 97.828l.81-.468 2.079 3.601-.81.468-2.079-3.6ZM163.105 99.085c-.47-.278-.956-.54-1.458-.786a14.379 14.379 0 0 0-1.52-.64l1.362 2.359-.8.462-2.079-3.601.66-.381c.18.048.387.116.622.202.235.086.478.184.73.292a28.883 28.883 0 0 1 1.506.69l-1.227-2.126.806-.465 2.079 3.601-.681.393Z"/></g><g clip-path="url(#r)"><path fill="#0364B9" d="m174.595 106.332-17.321 10a6 6 0 0 0-2.196 8.196l8.75 15.156 27.713-16-8.75-15.156a6 6 0 0 0-8.196-2.196Z"/><path fill="#0A559E" d="M157.274 116.332a6 6 0 0 0-2.196 8.196l.087.151 23.546-19.046a5.972 5.972 0 0 0-4.116.699l-17.321 10ZM182.791 108.528a5.977 5.977 0 0 0-3.238-2.672l7.314 20.526 4.674-2.698-8.75-15.156Z"/><path fill="#2A3052" d="m163.578 139.251 27.713-16 1.5 2.598a6 6 0 0 1-2.196 8.196l-17.321 10a6 6 0 0 1-8.196-2.196l-1.5-2.598Z"/><path fill="#fff" d="M163.279 124.048c.256.156.562.358.918.606.358.236.738.502 1.139.797.404.284.811.58 1.22.889l1.154.872-.177-1.436a79.142 79.142 0 0 1-.171-1.495 75.93 75.93 0 0 1-.12-1.385c-.03-.436-.049-.804-.056-1.104l1.476-.852c.345.438.718.938 1.117 1.502.402.553.81 1.14 1.224 1.76.416.61.828 1.226 1.235 1.851.413.62.798 1.206 1.153 1.758l-1.579.912c-.425-.687-.893-1.433-1.403-2.238a72.454 72.454 0 0 0-1.596-2.404l.142 1.206.155 1.324c.058.438.112.859.162 1.265.045.399.085.74.12 1.025l-1.132.654c-.229-.173-.505-.378-.828-.617-.326-.246-.668-.501-1.024-.767-.35-.269-.703-.536-1.059-.802l-.974-.726c.415.878.843 1.74 1.284 2.584.442.845.854 1.623 1.237 2.334l-1.579.912c-.301-.584-.619-1.208-.957-1.872l-.985-1.995c-.324-.672-.628-1.319-.912-1.94a47.78 47.78 0 0 1-.733-1.724l1.549-.894ZM175.414 117.041l.798 1.383-2.172 1.254 3.36 5.819-1.621.936-3.36-5.819-2.172 1.254-.798-1.383 5.965-3.444ZM181.78 120.142a1.177 1.177 0 0 0-.441-.452c-.182-.108-.414-.149-.696-.125-.282.024-.626.116-1.032.277-.406.16-.893.405-1.461.733a50.473 50.473 0 0 0-.947-2.073 81.395 81.395 0 0 0-.966-1.936l3.898-2.25.75 1.299-2.599 1.5c.131.257.253.51.368.757.119.237.217.448.297.633 1.051-.515 1.934-.706 2.648-.573.717.122 1.283.543 1.699 1.264.192.332.311.675.358 1.027.046.352.011.7-.104 1.043-.116.344-.32.679-.612 1.005-.285.322-.667.621-1.145.897a5.134 5.134 0 0 1-.617.3 6.266 6.266 0 0 1-.646.248 6.918 6.918 0 0 1-.575.18 2.23 2.23 0 0 1-.425.079l-.458-1.44c.217-.024.49-.079.818-.167a5.012 5.012 0 0 0 1.078-.484c.479-.276.771-.57.878-.881.102-.318.08-.605-.068-.861ZM175.9 138.85l.136-.064.182-.105c.405-.234.646-.51.722-.826.079-.318.015-.658-.193-1.018-.218-.377-.477-.609-.776-.695-.299-.086-.651-.012-1.056.222a3.515 3.515 0 0 0-.169.104 1.432 1.432 0 0 0-.16.106l1.314 2.276Zm1.683-2.496c.18.312.289.612.326.9.037.288.009.56-.083.817a2.024 2.024 0 0 1-.451.718 3.507 3.507 0 0 1-.797.612 8.165 8.165 0 0 1-.521.273 4.36 4.36 0 0 1-.614.257l-2.025-3.507c.167-.143.348-.277.543-.404.197-.131.368-.239.513-.323a3.57 3.57 0 0 1 .897-.379c.292-.077.572-.093.838-.048s.515.155.746.332c.231.176.44.427.628.752ZM178.253 133.515c.541-.312 1.011-.454 1.41-.426.398.024.713.239.947.645.146.252.206.493.181.72a1.32 1.32 0 0 1-.286.657c.125.048.261.108.408.18.146.068.294.144.444.228.152.079.304.167.457.263.151.093.295.188.434.283l-.91.525-.409-.241a7.355 7.355 0 0 0-.412-.234 8.25 8.25 0 0 0-.394-.202 3.73 3.73 0 0 0-.37-.16l-.4.231.759 1.314-.811.468-2.049-3.549c.157-.136.325-.266.504-.387.183-.124.348-.229.497-.315Zm.446.664a2.672 2.672 0 0 0-.158.098l-.124.085.564.977.229-.132c.304-.176.501-.34.588-.492.088-.152.079-.32-.027-.504-.102-.176-.242-.262-.419-.257-.175 0-.393.075-.653.225ZM183.761 135.191a30.99 30.99 0 0 1-.963-.697 51.34 51.34 0 0 1-1.829-1.452 46.846 46.846 0 0 1-.721-.624l.894-.516.614.547.663.573.645.542c.206.172.389.318.551.437a17.435 17.435 0 0 0-.109-.692 29.036 29.036 0 0 0-.147-.83 87.94 87.94 0 0 0-.326-1.669l.863-.498c.052.275.111.588.175.939a40.918 40.918 0 0 1 .348 2.307c.049.405.09.8.122 1.183l-.78.45Z"/></g><g clip-path="url(#s)"><path fill="#0364B9" d="m148.224-22.547-17.321 10a6 6 0 0 0-2.196 8.196l8.75 15.156 27.713-16-8.75-15.156a6 6 0 0 0-8.196-2.196Z"/><path fill="#0A559E" d="M130.903-12.547a6 6 0 0 0-2.196 8.196l.087.151 23.546-19.046a5.975 5.975 0 0 0-4.116.7l-17.321 10ZM156.42-20.35a5.976 5.976 0 0 0-3.238-2.672l7.314 20.525 4.674-2.698-8.75-15.156Z"/><path fill="#2A3052" d="m137.207 10.372 27.713-16 1.5 2.598a6 6 0 0 1-2.196 8.196l-17.321 10a6 6 0 0 1-8.196-2.196l-1.5-2.598Z"/><path fill="#fff" d="M136.908-4.831c.256.156.562.358.918.606a27.8 27.8 0 0 1 1.139.797c.404.284.811.58 1.22.89l1.154.87-.177-1.435a78.954 78.954 0 0 1-.171-1.495c-.047-.499-.088-.96-.12-1.385-.03-.436-.049-.804-.056-1.104l1.476-.852c.345.438.717.939 1.117 1.502.402.553.81 1.14 1.224 1.76.416.61.828 1.226 1.234 1.85.414.621.799 1.207 1.154 1.76l-1.579.911c-.425-.687-.893-1.433-1.403-2.238a72.304 72.304 0 0 0-1.596-2.404l.142 1.207.155 1.324c.058.437.112.858.162 1.264.045.399.085.74.12 1.025l-1.132.654c-.229-.173-.505-.378-.828-.617-.326-.246-.668-.501-1.024-.766-.35-.27-.703-.537-1.059-.803l-.974-.726c.415.878.843 1.74 1.284 2.584.442.845.854 1.623 1.237 2.334l-1.579.912c-.301-.584-.62-1.208-.957-1.872l-.985-1.995c-.324-.672-.628-1.319-.912-1.94a47.607 47.607 0 0 1-.733-1.724l1.549-.894ZM149.043-11.838l.798 1.383-2.172 1.254 3.36 5.82-1.622.935-3.36-5.82-2.172 1.255-.798-1.383 5.966-3.444ZM155.409-8.737a1.18 1.18 0 0 0-.441-.452c-.182-.108-.414-.15-.696-.125-.282.024-.626.116-1.032.277-.406.16-.893.405-1.461.733a51.676 51.676 0 0 0-.947-2.072 85.273 85.273 0 0 0-.966-1.937l3.897-2.25.75 1.299-2.598 1.5c.13.257.253.51.368.757.119.237.217.448.296.633 1.052-.515 1.935-.706 2.649-.573.717.122 1.283.543 1.699 1.264.192.332.311.675.358 1.027.046.352.011.7-.104 1.044a2.91 2.91 0 0 1-.612 1.004c-.286.322-.667.62-1.145.897a5.178 5.178 0 0 1-.617.3 6.412 6.412 0 0 1-.646.249 7.337 7.337 0 0 1-.575.18 2.31 2.31 0 0 1-.426.079l-.457-1.44c.217-.025.49-.08.818-.168a5.02 5.02 0 0 0 1.078-.484c.478-.276.771-.57.878-.88.102-.319.08-.606-.068-.862ZM149.529 9.971l.136-.064.182-.105c.405-.234.645-.51.721-.826.08-.318.016-.658-.192-1.018-.218-.377-.477-.61-.776-.695-.299-.086-.651-.012-1.057.222a3.632 3.632 0 0 0-.168.104c-.059.034-.112.07-.16.106l1.314 2.276Zm1.683-2.496c.18.312.289.612.326.9.037.288.009.56-.083.817a2.013 2.013 0 0 1-.451.718 3.5 3.5 0 0 1-.797.612 8.548 8.548 0 0 1-.521.273c-.2.102-.405.188-.614.258l-2.025-3.508c.167-.143.348-.277.543-.403.196-.132.367-.24.513-.324.308-.178.607-.305.897-.38.292-.076.572-.092.838-.047s.515.156.746.332c.231.176.44.427.628.752ZM151.882 4.636c.541-.312 1.01-.454 1.41-.426.398.024.713.24.947.645.146.252.206.493.181.72-.025.222-.12.44-.286.657.125.048.261.108.408.18.146.068.294.144.444.228.152.08.304.167.457.263.151.093.295.188.434.283l-.91.525a58.9 58.9 0 0 0-.409-.241 7.121 7.121 0 0 0-.412-.233 7.947 7.947 0 0 0-.394-.203 3.794 3.794 0 0 0-.37-.16l-.4.23.759 1.315-.811.468-2.049-3.549c.157-.136.325-.265.504-.387.182-.124.348-.23.497-.315Zm.446.664a2.447 2.447 0 0 0-.158.098l-.124.086.564.976.229-.132c.304-.176.501-.34.588-.492.088-.152.079-.32-.027-.504-.102-.176-.242-.262-.419-.257-.176 0-.393.075-.653.225ZM157.39 6.312c-.316-.219-.637-.452-.964-.697a40.71 40.71 0 0 1-.952-.739 60.138 60.138 0 0 1-.877-.713 48.65 48.65 0 0 1-.72-.624l.894-.516c.189.168.394.35.613.547.222.19.443.382.664.573l.645.542c.206.172.389.318.551.437a19.468 19.468 0 0 0-.109-.692 28.9 28.9 0 0 0-.147-.83 90.21 90.21 0 0 0-.326-1.669l.863-.498.175.939a40.503 40.503 0 0 1 .348 2.307c.049.405.09.8.122 1.183l-.78.45Z"/></g><g clip-path="url(#t)"><path fill="#0364B9" d="m169.021 13.48-17.321 10a6 6 0 0 0-2.196 8.196l8.75 15.155 27.713-16-8.75-15.155a6 6 0 0 0-8.196-2.197Z"/><path fill="#0A559E" d="M151.7 23.48a6 6 0 0 0-2.196 8.196l.087.15 23.546-19.046a5.975 5.975 0 0 0-4.116.7l-17.321 10ZM177.217 15.676a5.976 5.976 0 0 0-3.238-2.672l7.313 20.525 4.675-2.698-8.75-15.155Z"/><path fill="#71BD0E" d="m158.004 46.398 27.713-16 1.5 2.598a6 6 0 0 1-2.196 8.196l-17.321 10a6 6 0 0 1-8.196-2.196l-1.5-2.598Z"/><path fill="#fff" d="M157.704 31.195c.257.157.563.359.919.606.358.237.738.502 1.139.797.404.284.811.58 1.22.89l1.154.871-.177-1.436a78.869 78.869 0 0 1-.171-1.495c-.048-.499-.088-.96-.121-1.385a26.46 26.46 0 0 1-.055-1.104l1.476-.852c.345.438.717.939 1.117 1.503.402.553.81 1.14 1.224 1.76.416.609.828 1.226 1.234 1.85.414.62.799 1.207 1.154 1.759l-1.579.912c-.425-.688-.893-1.434-1.404-2.239a70.78 70.78 0 0 0-1.595-2.404l.142 1.207.155 1.324c.058.437.112.859.162 1.264.045.399.085.74.12 1.025l-1.133.654c-.229-.172-.504-.378-.827-.617l-1.024-.766c-.35-.27-.703-.537-1.059-.802l-.974-.727c.415.879.843 1.74 1.284 2.584.442.845.854 1.623 1.237 2.335l-1.58.912c-.3-.584-.619-1.209-.956-1.873l-.985-1.994c-.324-.673-.628-1.32-.912-1.94a47.622 47.622 0 0 1-.733-1.725l1.548-.894ZM169.84 24.189l.798 1.382-2.172 1.254 3.36 5.82-1.622.936-3.36-5.82-2.172 1.254-.798-1.382 5.966-3.444ZM176.206 27.29a1.18 1.18 0 0 0-.441-.453c-.183-.107-.414-.149-.696-.125-.282.024-.626.117-1.032.277-.406.16-.893.405-1.461.733a51.687 51.687 0 0 0-.947-2.072 89.43 89.43 0 0 0-.966-1.937l3.897-2.25.75 1.3-2.598 1.5c.13.257.253.51.368.757.118.236.217.447.296.633 1.052-.515 1.935-.706 2.649-.573.717.121 1.283.543 1.699 1.263.192.333.311.675.357 1.027.047.352.012.7-.104 1.044a2.892 2.892 0 0 1-.611 1.004c-.286.322-.667.621-1.145.897a5.18 5.18 0 0 1-.617.3 6.383 6.383 0 0 1-.646.249 7.308 7.308 0 0 1-.575.18 2.325 2.325 0 0 1-.426.079l-.457-1.44c.217-.024.49-.08.818-.168a5.025 5.025 0 0 0 1.078-.484c.478-.276.771-.57.877-.88.103-.318.081-.606-.067-.862ZM171.288 46.326l-2.079-3.601 2.411-1.392.393.68-1.601.924.435.754 1.424-.822.393.68-1.424.823.858 1.486-.81.468ZM172.192 41.002l.811-.468 2.079 3.601-.811.468-2.079-3.6ZM178.332 42.259c-.471-.278-.957-.54-1.459-.786a14.364 14.364 0 0 0-1.519-.64l1.362 2.359-.801.462-2.079-3.601.66-.381c.181.048.388.116.623.202.234.086.477.183.729.292.254.103.511.216.771.338.258.119.503.236.736.351l-1.227-2.125.805-.465 2.079 3.6-.68.394Z"/></g><path fill="url(#u)" d="M0 0h161v106H0z" transform="rotate(180 80.5 53)"/></g><defs><clipPath id="a"><path fill="#fff" d="M0 0h154a7 7 0 0 1 7 7v92a7 7 0 0 1-7 7H0V0Z"/></clipPath><clipPath id="c"><path fill="#fff" d="m-39.2 37.626 27.714-16 16 27.713-27.713 16z"/></clipPath><clipPath id="d"><path fill="#fff" d="m-18.398 73.653 27.712-16 16 27.713-27.712 16z"/></clipPath><clipPath id="e"><path fill="#fff" d="m2.398 109.68 27.713-16 16 27.713-27.713 16z"/></clipPath><clipPath id="f"><path fill="#fff" d="m-23.973-19.2 27.713-16 16 27.713-27.713 16z"/></clipPath><clipPath id="g"><path fill="#fff" d="m-3.172 16.826 27.713-16 16 27.713-27.713 16z"/></clipPath><clipPath id="h"><path fill="#fff" d="m17.629 52.853 27.713-16 16 27.713-27.713 16z"/></clipPath><clipPath id="i"><path fill="#fff" d="m38.426 88.88 27.713-16 16 27.713-27.713 16z"/></clipPath><clipPath id="j"><path fill="#fff" d="m32.855-3.974 27.713-16 16 27.713-27.712 16z"/></clipPath><clipPath id="k"><path fill="#fff" d="m53.656 32.054 27.713-16 16 27.713-27.713 16z"/></clipPath><clipPath id="l"><path fill="#fff" d="m74.453 68.08 27.713-16 16 27.713-27.713 16z"/></clipPath><clipPath id="m"><path fill="#fff" d="m95.254 104.106 27.713-16 16 27.713-27.713 16z"/></clipPath><clipPath id="n"><path fill="#fff" d="m68.879-24.774 27.713-16 16 27.712-27.713 16z"/></clipPath><clipPath id="o"><path fill="#fff" d="m89.68 11.253 27.713-16 16 27.713-27.713 16z"/></clipPath><clipPath id="p"><path fill="#fff" d="m110.477 47.28 27.713-16 16 27.712-27.713 16z"/></clipPath><clipPath id="q"><path fill="#fff" d="m131.277 83.306 27.713-16 16 27.713-27.713 16z"/></clipPath><clipPath id="r"><path fill="#fff" d="m152.078 119.332 27.713-16 16 27.713-27.713 16z"/></clipPath><clipPath id="s"><path fill="#fff" d="m125.707-9.547 27.713-16 16 27.713-27.713 16z"/></clipPath><clipPath id="t"><path fill="#fff" d="m146.504 26.48 27.713-16 16 27.712-27.713 16z"/></clipPath><linearGradient id="b" x1="163" x2="0" y1="54" y2="54" gradientUnits="userSpaceOnUse"><stop stop-color="#fff"/><stop offset=".646" stop-color="#fff" stop-opacity=".651"/><stop offset="1" stop-color="#fff" stop-opacity="0"/></linearGradient><linearGradient id="u" x1="165" x2="5.506" y1="106" y2=".718" gradientUnits="userSpaceOnUse"><stop offset=".232" stop-color="#0E0E0E"/><stop offset=".646" stop-color="#0E0E0E" stop-opacity=".651"/><stop offset="1" stop-color="#0E0E0E" stop-opacity="0"/></linearGradient></defs></svg>