<svg xmlns="http://www.w3.org/2000/svg" width="622" height="180" fill="none"><g clip-path="url(#a)"><path fill="#fff" d="M0 0h606c8.837 0 16 7.163 16 16v148c0 8.837-7.163 16-16 16H0V0Z"/><path fill="url(#b)" d="M0 0h622v180H0z" transform="rotate(180 311.5 90)"/><path fill="#fff" d="m-73 25 706.677-408 252 436.477-706.677 408z"/><g clip-path="url(#c)"><path fill="#0364B9" d="m-11.08-10.75-47.63 27.5c-7.892 4.556-10.596 14.648-6.04 22.54l24.063 41.677 76.21-44L11.46-4.711C6.904-12.602-3.187-15.306-11.08-10.75Z"/><path fill="#0A559E" d="M-58.71 16.75c-7.892 4.556-10.596 14.648-6.04 22.54l.24.415L.24-12.673a16.436 16.436 0 0 0-11.32 1.923l-47.63 27.5ZM11.46-4.71a16.438 16.438 0 0 0-8.903-7.348l20.111 56.445 12.855-7.42L11.46-4.711Z"/><path fill="#2A3052" d="m-41.375 79.776 76.21-44 4.125 7.145c4.557 7.892 1.853 17.983-6.04 22.54l-47.63 27.5c-7.892 4.556-17.984 1.852-22.54-6.04l-4.125-7.145Z"/><path fill="#fff" d="M-42.199 37.968c.706.43 1.548.986 2.525 1.666a76.34 76.34 0 0 1 3.133 2.193c1.111.78 2.23 1.596 3.355 2.445l3.175 2.397-.489-3.948c-.172-1.4-.328-2.77-.468-4.112A202.878 202.878 0 0 1-31.3 34.8a71.034 71.034 0 0 1-.153-3.036l4.058-2.343c.95 1.204 1.974 2.582 3.072 4.132a143.858 143.858 0 0 1 3.366 4.84 275.427 275.427 0 0 1 3.395 5.089 370.103 370.103 0 0 1 3.174 4.836l-4.344 2.508a595.025 595.025 0 0 0-3.859-6.155 196.207 196.207 0 0 0-4.389-6.612c.12.999.25 2.105.392 3.318l.425 3.641c.161 1.203.31 2.362.445 3.477.125 1.097.236 2.037.332 2.82l-3.115 1.798c-.63-.475-1.388-1.04-2.275-1.697a731.044 731.044 0 0 0-2.817-2.108c-.961-.74-1.932-1.475-2.912-2.205s-1.873-1.396-2.678-1.998a196.224 196.224 0 0 0 3.532 7.106 595.986 595.986 0 0 0 3.4 6.42l-4.343 2.508c-.826-1.607-1.703-3.323-2.63-5.15-.91-1.838-1.812-3.666-2.71-5.485a314.232 314.232 0 0 1-2.508-5.335 130.827 130.827 0 0 1-2.015-4.743l4.258-2.458ZM-8.827 18.7l2.194 3.802-5.973 3.448 9.24 16.004-4.458 2.574-9.24-16.004-5.973 3.449-2.194-3.801L-8.827 18.7ZM8.68 27.226c-.32-.552-.724-.966-1.213-1.243-.5-.295-1.139-.41-1.913-.343-.775.066-1.72.32-2.838.762-1.116.441-2.456 1.113-4.018 2.015a139.439 139.439 0 0 0-2.604-5.699 237.185 237.185 0 0 0-2.656-5.325l10.717-6.188 2.063 3.573-7.145 4.125c.358.708.695 1.402 1.012 2.083.325.65.596 1.23.814 1.74 2.892-1.416 5.32-1.94 7.283-1.576 1.972.335 3.53 1.494 4.673 3.475.528.915.856 1.856.983 2.824a6.32 6.32 0 0 1-.286 2.87c-.318.946-.878 1.867-1.682 2.763-.785.885-1.834 1.707-3.15 2.466-.514.297-1.079.572-1.694.826-.586.262-1.178.49-1.778.683-.569.202-1.096.367-1.581.494-.486.128-.875.2-1.17.218l-1.258-3.96c.597-.066 1.347-.22 2.25-.46.89-.261 1.879-.705 2.965-1.332 1.315-.759 2.119-1.566 2.412-2.422.283-.874.22-1.664-.186-2.369ZM-7.49 78.675c.11-.05.235-.11.373-.177l.5-.29c1.115-.643 1.777-1.4 1.986-2.27.218-.875.042-1.808-.53-2.799-.6-1.038-1.31-1.676-2.133-1.912-.823-.237-1.791-.033-2.906.61a9.21 9.21 0 0 0-.463.287 3.99 3.99 0 0 0-.44.293l3.613 6.258Zm4.63-6.864c.494.857.793 1.682.894 2.474.102.793.026 1.541-.227 2.246-.244.7-.658 1.358-1.242 1.975-.584.616-1.314 1.178-2.19 1.684-.4.23-.878.481-1.434.75-.55.28-1.112.516-1.687.708l-5.569-9.645c.46-.392.957-.762 1.493-1.11.54-.362 1.01-.66 1.41-.89.849-.49 1.67-.837 2.466-1.043.806-.21 1.574-.254 2.306-.13a4.62 4.62 0 0 1 2.05.911c.636.484 1.212 1.174 1.73 2.07ZM-1.019 64.003c1.487-.858 2.779-1.249 3.878-1.172 1.093.067 1.961.658 2.605 1.773.401.695.566 1.356.496 1.981-.067.61-.33 1.212-.786 1.807.343.132.717.297 1.123.494.4.188.808.398 1.22.629.418.216.836.457 1.257.723a27.7 27.7 0 0 1 1.192.778l-2.5 1.444c-.369-.22-.744-.44-1.127-.664a18.79 18.79 0 0 0-1.133-.642c-.372-.204-.733-.39-1.083-.556a10.443 10.443 0 0 0-1.017-.441l-1.1.635 2.087 3.615-2.229 1.287-5.635-9.76c.431-.375.893-.73 1.385-1.066.502-.34.958-.629 1.367-.865Zm1.226 1.826a7.239 7.239 0 0 0-.434.27c-.119.08-.232.16-.341.235l1.55 2.686.63-.363c.838-.484 1.378-.935 1.619-1.354.24-.418.215-.88-.076-1.385-.28-.486-.664-.722-1.151-.707-.483 0-1.082.205-1.797.618ZM14.13 68.613a86.16 86.16 0 0 1-2.652-1.918 113.27 113.27 0 0 1-2.62-2.031 160.075 160.075 0 0 1-2.41-1.962 124.198 124.198 0 0 1-1.98-1.715l2.458-1.419c.52.462 1.083.963 1.687 1.503l1.824 1.576 1.775 1.49c.566.474 1.07.875 1.514 1.203a47.025 47.025 0 0 0-.3-1.904 79.311 79.311 0 0 0-.402-2.282 93.56 93.56 0 0 0-.453-2.368c-.156-.799-.304-1.54-.444-2.22l2.372-1.37c.144.755.304 1.615.48 2.58.177.966.346 1.985.51 3.06a112.7 112.7 0 0 1 .448 3.285c.136 1.115.248 2.2.336 3.254l-2.144 1.238Z"/></g><g clip-path="url(#d)"><path fill="#0364B9" d="m40.92 79.316-47.63 27.5c-7.892 4.557-10.596 14.648-6.04 22.54l24.063 41.677 76.21-44L63.46 85.356c-4.556-7.892-14.647-10.596-22.54-6.04Z"/><path fill="#0A559E" d="M-6.71 106.816c-7.892 4.557-10.596 14.648-6.04 22.54l.24.415 64.75-52.377a16.436 16.436 0 0 0-11.32 1.922l-47.63 27.5ZM63.46 85.356a16.438 16.438 0 0 0-8.903-7.347l20.111 56.445 12.855-7.421L63.46 85.356Z"/><path fill="#71BD0E" d="m10.625 169.843 76.21-44 4.125 7.144c4.557 7.892 1.853 17.983-6.04 22.54l-47.63 27.5c-7.892 4.556-17.984 1.852-22.54-6.04l-4.125-7.144Z"/><path fill="#fff" d="M9.802 128.034c.706.431 1.547.986 2.524 1.667.986.65 2.03 1.381 3.133 2.192a122.83 122.83 0 0 1 3.355 2.445l3.175 2.397-.489-3.948a217.503 217.503 0 0 1-.468-4.111 202.632 202.632 0 0 1-.332-3.81 70.956 70.956 0 0 1-.153-3.036l4.058-2.343c.95 1.205 1.974 2.582 3.072 4.133a143.213 143.213 0 0 1 3.366 4.839 275.419 275.419 0 0 1 3.395 5.089 365.982 365.982 0 0 1 3.174 4.837l-4.344 2.508a595.784 595.784 0 0 0-3.859-6.156 196.088 196.088 0 0 0-4.389-6.611c.12.998.25 2.104.392 3.318l.425 3.641c.161 1.202.31 2.361.445 3.477.125 1.096.236 2.036.332 2.819l-3.115 1.798c-.63-.475-1.388-1.04-2.275-1.697a702.89 702.89 0 0 0-2.817-2.107 219.778 219.778 0 0 0-2.912-2.206c-.98-.73-1.873-1.395-2.678-1.998a195.517 195.517 0 0 0 3.532 7.107 594.841 594.841 0 0 0 3.4 6.419l-4.343 2.508c-.826-1.606-1.703-3.323-2.63-5.15-.91-1.838-1.812-3.666-2.71-5.485a317.461 317.461 0 0 1-2.508-5.334 131.184 131.184 0 0 1-2.015-4.744l4.259-2.458ZM43.173 108.767l2.194 3.801-5.973 3.448 9.24 16.005-4.458 2.574-9.24-16.005-5.973 3.449-2.194-3.801 16.404-9.471ZM60.68 117.293c-.32-.553-.724-.967-1.213-1.243-.5-.295-1.139-.41-1.913-.344-.775.067-1.72.32-2.838.762-1.116.442-2.456 1.113-4.018 2.015a139.315 139.315 0 0 0-2.604-5.698 238.138 238.138 0 0 0-2.656-5.326l10.717-6.187 2.063 3.572-7.145 4.125c.358.708.695 1.402 1.012 2.083.325.651.596 1.231.814 1.74 2.892-1.415 5.32-1.94 7.283-1.575 1.972.335 3.53 1.493 4.674 3.474.528.915.855 1.856.982 2.824a6.32 6.32 0 0 1-.286 2.871c-.318.946-.878 1.866-1.682 2.762-.785.885-1.834 1.707-3.15 2.466-.514.297-1.078.572-1.694.826-.586.262-1.178.49-1.778.684-.569.201-1.096.366-1.581.494-.486.127-.876.2-1.17.218l-1.258-3.961c.597-.065 1.347-.219 2.25-.46.89-.261 1.879-.704 2.965-1.331 1.315-.759 2.119-1.567 2.412-2.422.283-.875.22-1.664-.186-2.369ZM47.155 169.643l-5.717-9.902 6.63-3.828 1.08 1.872-4.4 2.541 1.196 2.072 3.915-2.261 1.081 1.872-3.915 2.261 2.36 4.086-2.23 1.287ZM49.643 155.003l2.23-1.287 5.716 9.903-2.229 1.287-5.717-9.903ZM66.526 158.459a57.585 57.585 0 0 0-4.01-2.161 39.38 39.38 0 0 0-4.18-1.76l3.746 6.487-2.2 1.271-5.718-9.903 1.815-1.048a19.97 19.97 0 0 1 1.711.556 40.13 40.13 0 0 1 2.008.803c.697.284 1.403.594 2.118.93.71.327 1.384.649 2.024.965l-3.374-5.844 2.215-1.279 5.717 9.903-1.872 1.08Z"/></g><g clip-path="url(#e)"><path fill="#0364B9" d="m92.92 169.383-47.63 27.5c-7.892 4.557-10.596 14.648-6.04 22.54L63.313 261.1l76.21-44-24.063-41.677c-4.556-7.892-14.647-10.596-22.54-6.04Z"/><path fill="#0A559E" d="M45.29 196.883c-7.892 4.557-10.596 14.648-6.04 22.54l.24.415 64.751-52.377a16.435 16.435 0 0 0-11.32 1.922l-47.632 27.5ZM115.46 175.423a16.437 16.437 0 0 0-8.903-7.348l20.111 56.445 12.855-7.42-24.063-41.677Z"/><path fill="#2A3052" d="m62.625 259.909 76.21-44 4.125 7.145c4.557 7.892 1.853 17.983-6.039 22.54l-47.632 27.5c-7.891 4.556-17.983 1.852-22.539-6.04l-4.125-7.145Z"/><path fill="#fff" d="M61.801 218.101c.706.431 1.548.986 2.525 1.667.986.65 2.03 1.381 3.133 2.192a122.83 122.83 0 0 1 3.355 2.445l3.175 2.397-.489-3.948a217.503 217.503 0 0 1-.468-4.111 202.632 202.632 0 0 1-.332-3.81 70.956 70.956 0 0 1-.153-3.036l4.058-2.343c.95 1.204 1.974 2.582 3.072 4.133a143.213 143.213 0 0 1 3.366 4.839 275.419 275.419 0 0 1 3.395 5.089 365.982 365.982 0 0 1 3.174 4.837l-4.344 2.508a585.246 585.246 0 0 0-3.859-6.156 196.088 196.088 0 0 0-4.389-6.611c.12.998.25 2.104.392 3.318l.425 3.641c.161 1.202.31 2.361.445 3.477.126 1.096.236 2.036.332 2.819l-3.115 1.798c-.63-.475-1.388-1.04-2.275-1.697a702.89 702.89 0 0 0-2.817-2.107 219.778 219.778 0 0 0-2.912-2.206c-.98-.73-1.873-1.396-2.678-1.998a196.33 196.33 0 0 0 3.532 7.107 594.841 594.841 0 0 0 3.4 6.419l-4.343 2.508c-.826-1.606-1.703-3.323-2.63-5.15-.91-1.838-1.812-3.666-2.71-5.485a316.43 316.43 0 0 1-2.508-5.334 130.897 130.897 0 0 1-2.015-4.744l4.258-2.458ZM95.173 198.834l2.194 3.801-5.973 3.448 9.24 16.005-4.458 2.574-9.24-16.005-5.973 3.449-2.194-3.801 16.404-9.471ZM112.68 207.36c-.319-.553-.724-.967-1.213-1.243-.501-.296-1.139-.41-1.913-.344-.775.066-1.721.32-2.838.762-1.116.441-2.456 1.113-4.018 2.015a140.95 140.95 0 0 0-2.604-5.698 239.808 239.808 0 0 0-2.656-5.326l10.717-6.187 2.063 3.572-7.145 4.125c.358.708.695 1.402 1.012 2.083.325.651.596 1.231.814 1.74 2.892-1.415 5.319-1.941 7.283-1.575 1.972.335 3.53 1.493 4.674 3.474.528.915.855 1.856.982 2.824a6.319 6.319 0 0 1-.286 2.871c-.318.945-.878 1.866-1.682 2.762-.785.885-1.834 1.707-3.149 2.466-.515.297-1.08.572-1.695.826a17.43 17.43 0 0 1-1.778.683c-.569.202-1.096.367-1.581.495-.486.127-.875.2-1.17.218l-1.258-3.961c.597-.065 1.347-.219 2.249-.46.891-.261 1.88-.705 2.966-1.332 1.315-.759 2.119-1.566 2.412-2.421.283-.875.221-1.664-.186-2.369ZM96.51 258.809c.11-.051.235-.111.373-.178l.5-.289c1.115-.643 1.777-1.4 1.986-2.27.218-.876.042-1.809-.53-2.8-.6-1.038-1.31-1.675-2.133-1.912-.823-.236-1.791-.033-2.906.611a9.267 9.267 0 0 0-.463.286 4.005 4.005 0 0 0-.44.293l3.613 6.259Zm4.629-6.865c.495.857.794 1.682.895 2.475a4.76 4.76 0 0 1-.227 2.246c-.244.699-.658 1.357-1.242 1.974s-1.314 1.178-2.19 1.684c-.4.231-.878.481-1.434.751-.55.28-1.112.515-1.687.708l-5.569-9.646c.46-.392.957-.762 1.493-1.109.54-.363 1.01-.66 1.41-.891.849-.489 1.67-.837 2.466-1.042.806-.211 1.574-.255 2.306-.131a4.605 4.605 0 0 1 2.05.912c.636.484 1.212 1.174 1.729 2.069ZM102.981 244.136c1.487-.858 2.779-1.249 3.878-1.172 1.093.068 1.961.659 2.605 1.773.401.696.566 1.356.496 1.981-.067.611-.329 1.213-.786 1.807.343.132.717.297 1.123.494.401.188.808.398 1.221.629.417.217.835.458 1.256.723.414.256.812.516 1.192.779l-2.501 1.444c-.368-.22-.743-.441-1.126-.665a18.273 18.273 0 0 0-1.133-.641c-.372-.205-.733-.39-1.083-.556a10.366 10.366 0 0 0-1.017-.442l-1.1.635 2.087 3.616-2.229 1.287-5.635-9.76a14.62 14.62 0 0 1 1.385-1.066c.502-.341.958-.63 1.367-.866Zm1.226 1.826a7.43 7.43 0 0 0-.434.27l-.341.235 1.551 2.686.629-.363c.838-.484 1.378-.935 1.619-1.353.241-.419.215-.881-.076-1.386-.281-.486-.664-.721-1.151-.707-.483 0-1.082.206-1.797.618ZM118.129 248.746a84.65 84.65 0 0 1-2.65-1.918 108.466 108.466 0 0 1-2.621-2.031 154.009 154.009 0 0 1-2.409-1.962 128.696 128.696 0 0 1-1.981-1.714l2.458-1.419c.52.461 1.083.962 1.687 1.502l1.824 1.576c.618.52 1.209 1.017 1.775 1.491.566.473 1.07.874 1.514 1.202a48.04 48.04 0 0 0-.299-1.904 83.513 83.513 0 0 0-.403-2.282 98.125 98.125 0 0 0-.453-2.368c-.156-.799-.304-1.539-.444-2.22l2.372-1.37c.144.755.304 1.616.48 2.581.177.965.346 1.985.509 3.059.163 1.075.313 2.17.449 3.285.136 1.116.248 2.2.336 3.255l-2.144 1.237Z"/></g><g clip-path="url(#f)"><path fill="#0364B9" d="m78.987-62.75-47.631 27.5c-7.892 4.556-10.596 14.648-6.04 22.54L49.38 28.966l76.21-44-24.062-41.678c-4.557-7.891-14.648-10.595-22.54-6.039Z"/><path fill="#0A559E" d="M31.356-35.25c-7.892 4.556-10.596 14.648-6.04 22.54l.24.415 64.751-52.378a16.436 16.436 0 0 0-11.32 1.923l-47.631 27.5ZM101.527-56.71a16.44 16.44 0 0 0-8.904-7.348l20.112 56.445 12.854-7.42-24.062-41.678Z"/><path fill="#71BD0E" d="m48.691 27.776 76.211-44 4.125 7.145c4.556 7.892 1.852 17.983-6.04 22.54l-47.631 27.5c-7.892 4.556-17.983 1.852-22.54-6.04l-4.125-7.145Z"/><path fill="#fff" d="M47.868-14.032c.706.43 1.547.986 2.525 1.666a76.34 76.34 0 0 1 3.133 2.193c1.11.78 2.23 1.596 3.354 2.445l3.175 2.397-.488-3.948c-.173-1.4-.329-2.77-.469-4.112a202.878 202.878 0 0 1-.332-3.809 71.034 71.034 0 0 1-.152-3.036l4.058-2.343c.95 1.204 1.973 2.582 3.072 4.132a144.003 144.003 0 0 1 3.365 4.84 275.898 275.898 0 0 1 3.396 5.089 369.903 369.903 0 0 1 3.173 4.836l-4.344 2.508a595.65 595.65 0 0 0-3.859-6.155 196.256 196.256 0 0 0-4.388-6.612c.119.999.25 2.105.391 3.318l.426 3.641c.16 1.203.309 2.362.445 3.478.125 1.096.236 2.036.332 2.818l-3.115 1.799A328.34 328.34 0 0 0 59.29-.584a721.644 721.644 0 0 0-2.817-2.108c-.96-.74-1.932-1.476-2.912-2.205-.98-.73-1.872-1.396-2.677-1.998A196.213 196.213 0 0 0 54.414.21a595.462 595.462 0 0 0 3.402 6.42l-4.344 2.508a1172.6 1172.6 0 0 1-2.63-5.15l-2.71-5.485a315.078 315.078 0 0 1-2.508-5.335 130.843 130.843 0 0 1-2.014-4.743l4.258-2.458ZM81.24-33.3l2.194 3.802-5.973 3.448 9.24 16.004-4.458 2.574-9.24-16.004-5.974 3.449-2.194-3.801L81.239-33.3ZM98.746-24.774c-.319-.552-.723-.966-1.213-1.243-.5-.295-1.138-.41-1.913-.343-.775.066-1.72.32-2.837.762-1.117.441-2.457 1.113-4.019 2.015a139.453 139.453 0 0 0-2.604-5.699 237.02 237.02 0 0 0-2.656-5.325l10.717-6.188 2.063 3.573-7.145 4.125c.358.708.696 1.402 1.012 2.083.325.65.597 1.23.815 1.74 2.891-1.416 5.319-1.94 7.282-1.576 1.972.335 3.53 1.494 4.674 3.475a7.61 7.61 0 0 1 .983 2.824 6.33 6.33 0 0 1-.286 2.87c-.318.946-.879 1.867-1.683 2.763-.784.885-1.834 1.707-3.149 2.466-.514.297-1.08.572-1.695.826-.585.262-1.178.49-1.777.683-.57.202-1.097.367-1.582.494-.485.128-.875.2-1.17.218l-1.258-3.96c.598-.066 1.347-.22 2.25-.46.89-.261 1.88-.705 2.965-1.332 1.315-.759 2.12-1.566 2.413-2.421.282-.875.22-1.665-.187-2.37ZM85.221 27.577l-5.717-9.903 6.63-3.828 1.081 1.872-4.4 2.541 1.195 2.072 3.916-2.26 1.08 1.872-3.915 2.26 2.36 4.087-2.23 1.287ZM87.71 12.937l2.229-1.287 5.717 9.903-2.23 1.287-5.717-9.903ZM104.593 16.393a57.602 57.602 0 0 0-4.011-2.162 39.412 39.412 0 0 0-4.179-1.76l3.746 6.488-2.201 1.27-5.717-9.902 1.814-1.048c.496.133 1.067.318 1.712.555a39.99 39.99 0 0 1 2.007.804c.697.283 1.403.593 2.118.93.71.327 1.385.648 2.025.965l-3.375-5.845 2.215-1.278 5.717 9.902-1.871 1.081Z"/></g><g clip-path="url(#g)"><path fill="#0364B9" d="m130.987 27.316-47.631 27.5c-7.892 4.557-10.596 14.648-6.04 22.54l24.063 41.677 76.21-44-24.062-41.677c-4.557-7.892-14.648-10.596-22.54-6.04Z"/><path fill="#0A559E" d="M83.356 54.816c-7.892 4.557-10.596 14.648-6.04 22.54l.24.415 64.751-52.377a16.436 16.436 0 0 0-11.32 1.922l-47.631 27.5ZM153.527 33.356a16.442 16.442 0 0 0-8.904-7.348l20.112 56.446 12.854-7.42-24.062-41.678Z"/><path fill="#2A3052" d="m100.691 117.843 76.211-44 4.125 7.144c4.556 7.892 1.852 17.983-6.04 22.54l-47.631 27.5c-7.892 4.556-17.983 1.852-22.54-6.04l-4.125-7.144Z"/><path fill="#fff" d="M99.868 76.034c.706.43 1.547.986 2.525 1.667a77.03 77.03 0 0 1 3.133 2.192c1.111.781 2.229 1.596 3.355 2.445l3.174 2.397-.488-3.948c-.173-1.399-.329-2.77-.469-4.111a210.656 210.656 0 0 1-.332-3.81 72.08 72.08 0 0 1-.152-3.036l4.058-2.343a102.534 102.534 0 0 1 3.072 4.133 144.013 144.013 0 0 1 3.365 4.84 270.967 270.967 0 0 1 3.396 5.088 370.982 370.982 0 0 1 3.173 4.837l-4.344 2.508a578.806 578.806 0 0 0-3.859-6.156 196.487 196.487 0 0 0-4.388-6.611c.119.998.249 2.104.391 3.318l.426 3.64c.161 1.203.309 2.362.445 3.478.125 1.096.235 2.036.332 2.819l-3.115 1.798c-.63-.475-1.388-1.04-2.276-1.697a730.295 730.295 0 0 0-2.817-2.107c-.961-.741-1.932-1.476-2.912-2.206s-1.872-1.395-2.677-1.998a194.915 194.915 0 0 0 3.531 7.107 596.346 596.346 0 0 0 3.401 6.42l-4.344 2.507c-.825-1.606-1.702-3.323-2.63-5.15l-2.71-5.485a318.793 318.793 0 0 1-2.508-5.334 130.827 130.827 0 0 1-2.014-4.743l4.258-2.459ZM133.239 56.767l2.195 3.801-5.973 3.448 9.24 16.005-4.458 2.574-9.24-16.004-5.973 3.448-2.195-3.801 16.404-9.471ZM150.746 65.293c-.319-.553-.723-.967-1.213-1.243-.501-.295-1.138-.41-1.913-.344-.775.066-1.72.32-2.837.762-1.117.442-2.457 1.113-4.019 2.015a138.438 138.438 0 0 0-2.604-5.698 237.581 237.581 0 0 0-2.656-5.326l10.717-6.187 2.063 3.572-7.145 4.125a68.92 68.92 0 0 1 1.012 2.083c.325.65.597 1.23.814 1.74 2.892-1.415 5.32-1.94 7.283-1.575 1.972.335 3.53 1.493 4.674 3.474a7.61 7.61 0 0 1 .983 2.824 6.33 6.33 0 0 1-.286 2.871c-.318.946-.879 1.866-1.683 2.762-.784.885-1.834 1.707-3.149 2.466-.514.297-1.079.572-1.695.826-.585.262-1.178.49-1.777.684a20.14 20.14 0 0 1-1.582.494c-.485.127-.875.2-1.17.218l-1.258-3.961c.598-.065 1.347-.219 2.25-.46.891-.26 1.879-.704 2.965-1.331 1.315-.76 2.119-1.567 2.413-2.422.282-.875.22-1.664-.187-2.37ZM134.576 116.742c.11-.051.235-.111.374-.178l.5-.289c1.115-.643 1.776-1.4 1.985-2.27.219-.876.042-1.809-.53-2.8-.599-1.038-1.31-1.675-2.133-1.912-.822-.236-1.791-.033-2.905.611a9.28 9.28 0 0 0-.464.286 4.001 4.001 0 0 0-.44.293l3.613 6.259Zm4.63-6.865c.495.858.793 1.682.895 2.475a4.747 4.747 0 0 1-.228 2.246c-.243.699-.657 1.358-1.241 1.974-.584.617-1.314 1.178-2.191 1.684-.4.231-.878.481-1.433.751-.55.28-1.113.516-1.688.708l-5.568-9.646c.459-.392.957-.762 1.493-1.109.54-.363 1.01-.66 1.41-.891.848-.489 1.67-.837 2.466-1.042.805-.211 1.574-.255 2.306-.131a4.6 4.6 0 0 1 2.05.912c.636.484 1.212 1.174 1.729 2.069ZM141.048 102.069c1.486-.858 2.778-1.249 3.877-1.172 1.093.068 1.962.659 2.605 1.773.402.696.567 1.356.496 1.981-.067.611-.329 1.213-.786 1.807.343.132.718.297 1.124.494.4.188.807.398 1.22.629.417.217.836.458 1.256.723.414.256.812.516 1.192.779l-2.5 1.444c-.368-.22-.744-.441-1.127-.665a18.78 18.78 0 0 0-1.132-.641c-.372-.205-.733-.39-1.083-.556a10.578 10.578 0 0 0-1.017-.442l-1.101.635 2.088 3.616-2.23 1.287-5.634-9.76c.43-.376.892-.731 1.385-1.066.501-.341.957-.63 1.367-.866Zm1.226 1.826a7.832 7.832 0 0 0-.435.27l-.341.235 1.551 2.687.629-.363c.838-.484 1.378-.936 1.619-1.354.241-.419.216-.881-.076-1.386-.28-.485-.664-.721-1.151-.707-.483 0-1.082.206-1.796.618ZM156.196 106.679a84.669 84.669 0 0 1-2.651-1.918 110.469 110.469 0 0 1-2.621-2.031 154.009 154.009 0 0 1-2.409-1.962 124.339 124.339 0 0 1-1.981-1.714l2.458-1.42c.521.462 1.083.963 1.687 1.504l1.825 1.576 1.774 1.49c.566.473 1.071.874 1.514 1.203a47.775 47.775 0 0 0-.299-1.905 79.643 79.643 0 0 0-.403-2.282 89.325 89.325 0 0 0-.453-2.368c-.156-.799-.304-1.539-.443-2.22l2.372-1.37c.144.755.304 1.616.48 2.58.176.966.346 1.986.509 3.06.163 1.075.312 2.17.448 3.285.136 1.116.248 2.201.336 3.255l-2.143 1.237Z"/></g><g clip-path="url(#h)"><path fill="#0364B9" d="m182.987 117.383-47.631 27.5c-7.892 4.557-10.596 14.648-6.04 22.54l24.063 41.677 76.21-44-24.062-41.677c-4.557-7.892-14.648-10.596-22.54-6.04Z"/><path fill="#0A559E" d="M135.356 144.883c-7.892 4.557-10.596 14.648-6.04 22.54l.24.415 64.751-52.377a16.435 16.435 0 0 0-11.32 1.922l-47.631 27.5ZM205.527 123.423a16.443 16.443 0 0 0-8.904-7.348l20.112 56.445 12.854-7.42-24.062-41.677Z"/><path fill="#71BD0E" d="m152.691 207.909 76.211-44 4.125 7.145c4.556 7.892 1.852 17.983-6.04 22.54l-47.631 27.5c-7.892 4.556-17.983 1.852-22.54-6.04l-4.125-7.145Z"/><path fill="#fff" d="M151.868 166.101c.706.431 1.547.986 2.525 1.667.985.65 2.029 1.381 3.133 2.192 1.111.781 2.229 1.596 3.355 2.445l3.174 2.397-.488-3.948a216.748 216.748 0 0 1-.469-4.111 210.388 210.388 0 0 1-.332-3.81 72 72 0 0 1-.152-3.036l4.058-2.343a101.78 101.78 0 0 1 3.072 4.133 143.368 143.368 0 0 1 3.365 4.839 270.959 270.959 0 0 1 3.396 5.089 366.841 366.841 0 0 1 3.173 4.837l-4.344 2.508a569.55 569.55 0 0 0-3.859-6.156 196.368 196.368 0 0 0-4.388-6.611 38546.805 38546.805 0 0 1 .817 6.959c.161 1.202.309 2.361.445 3.477.125 1.096.235 2.036.332 2.819l-3.115 1.798c-.63-.475-1.388-1.04-2.276-1.697a702.196 702.196 0 0 0-2.817-2.107 219.789 219.789 0 0 0-2.912-2.206c-.98-.73-1.872-1.396-2.677-1.998a195.02 195.02 0 0 0 3.531 7.107 595.2 595.2 0 0 0 3.401 6.419l-4.344 2.508c-.825-1.606-1.702-3.323-2.63-5.15l-2.71-5.485a326.023 326.023 0 0 1-2.508-5.334 131.181 131.181 0 0 1-2.014-4.744l4.258-2.458ZM185.239 146.834l2.195 3.801-5.973 3.448 9.24 16.005-4.458 2.574-9.24-16.005-5.973 3.449-2.195-3.801 16.404-9.471ZM202.746 155.36c-.319-.553-.723-.967-1.213-1.243-.501-.296-1.138-.41-1.913-.344-.775.066-1.72.32-2.837.762-1.117.441-2.457 1.113-4.019 2.015a138.242 138.242 0 0 0-2.604-5.698 238.938 238.938 0 0 0-2.656-5.326l10.717-6.187 2.063 3.572-7.145 4.125c.358.708.696 1.402 1.012 2.083.325.651.597 1.231.814 1.74 2.892-1.415 5.32-1.941 7.283-1.575 1.972.335 3.53 1.493 4.674 3.474.528.915.855 1.856.983 2.824a6.333 6.333 0 0 1-.286 2.871c-.318.945-.879 1.866-1.683 2.762-.784.885-1.834 1.707-3.149 2.466-.514.297-1.079.572-1.695.826-.585.262-1.178.49-1.777.683a20.21 20.21 0 0 1-1.582.495c-.485.127-.875.2-1.17.218l-1.258-3.961c.598-.065 1.347-.219 2.25-.46.891-.261 1.879-.705 2.965-1.332 1.315-.759 2.119-1.566 2.413-2.421.282-.875.22-1.664-.187-2.369ZM189.221 207.71l-5.717-9.902 6.63-3.828 1.081 1.872-4.401 2.541 1.196 2.072 3.916-2.261 1.08 1.872-3.915 2.26 2.36 4.087-2.23 1.287ZM191.709 193.07l2.23-1.287 5.717 9.903-2.229 1.287-5.718-9.903ZM208.593 196.526a57.638 57.638 0 0 0-4.011-2.161 39.357 39.357 0 0 0-4.179-1.76l3.746 6.487-2.201 1.271-5.717-9.903 1.814-1.048a20.28 20.28 0 0 1 1.712.555c.645.238 1.314.506 2.007.804a42.26 42.26 0 0 1 2.118.93c.71.327 1.385.649 2.025.965l-3.375-5.844 2.215-1.279 5.717 9.903-1.871 1.08Z"/></g><g clip-path="url(#i)"><path fill="#0364B9" d="m221.054-24.684-47.632 27.5c-7.892 4.557-10.596 14.648-6.039 22.54l24.062 41.677 76.211-44-24.063-41.677c-4.556-7.892-14.648-10.596-22.539-6.04Z"/><path fill="#0A559E" d="M173.422 2.816c-7.892 4.557-10.596 14.648-6.039 22.54l.239.415 64.752-52.377a16.435 16.435 0 0 0-11.32 1.922l-47.632 27.5ZM243.593-18.644a16.436 16.436 0 0 0-8.903-7.348l20.111 56.446 12.855-7.42-24.063-41.678Z"/><path fill="#71BD0E" d="m190.758 65.843 76.21-44 4.125 7.144c4.556 7.892 1.852 17.983-6.039 22.54l-47.632 27.5c-7.892 4.556-17.983 1.852-22.539-6.04l-4.125-7.144Z"/><path fill="#fff" d="M189.934 24.034c.706.43 1.548.986 2.525 1.667a76.34 76.34 0 0 1 3.133 2.192c1.111.781 2.23 1.596 3.355 2.445l3.175 2.397-.489-3.948c-.172-1.399-.329-2.77-.468-4.111a193.928 193.928 0 0 1-.332-3.81 70.624 70.624 0 0 1-.153-3.036l4.058-2.343c.95 1.205 1.974 2.582 3.072 4.133a143.999 143.999 0 0 1 3.366 4.84 275.917 275.917 0 0 1 3.395 5.088 360.932 360.932 0 0 1 3.173 4.837l-4.343 2.508a613.045 613.045 0 0 0-3.859-6.156 195.003 195.003 0 0 0-4.389-6.611c.119.998.25 2.104.392 3.318l.425 3.64c.161 1.203.309 2.363.445 3.478.125 1.096.236 2.036.332 2.819l-3.115 1.798c-.63-.475-1.388-1.04-2.275-1.697a730.295 730.295 0 0 0-2.817-2.107 226.52 226.52 0 0 0-2.912-2.206c-.98-.73-1.873-1.395-2.678-1.998a198.21 198.21 0 0 0 3.531 7.107 595.446 595.446 0 0 0 3.402 6.42l-4.344 2.507c-.826-1.606-1.703-3.323-2.631-5.15l-2.709-5.485a308.097 308.097 0 0 1-2.508-5.334 131.26 131.26 0 0 1-2.015-4.744l4.258-2.458ZM223.306 4.767l2.194 3.801-5.973 3.449 9.24 16.004-4.458 2.574-9.24-16.005-5.973 3.449-2.195-3.801 16.405-9.471ZM240.813 13.293c-.319-.553-.724-.967-1.213-1.243-.501-.295-1.139-.41-1.913-.344-.775.067-1.721.32-2.838.762s-2.456 1.113-4.018 2.015a139.787 139.787 0 0 0-2.605-5.698 233.499 233.499 0 0 0-2.655-5.326l10.717-6.187L238.35.844l-7.144 4.125c.358.708.695 1.402 1.012 2.083.325.65.596 1.23.814 1.74 2.892-1.415 5.319-1.94 7.283-1.575 1.971.335 3.529 1.493 4.673 3.474.528.915.856 1.856.983 2.824a6.316 6.316 0 0 1-.286 2.871c-.318.946-.879 1.866-1.682 2.762-.785.885-1.835 1.707-3.149 2.466-.515.297-1.08.572-1.695.826a17.62 17.62 0 0 1-1.778.683 19.88 19.88 0 0 1-1.582.495c-.485.127-.875.2-1.169.218l-1.258-3.961c.597-.065 1.347-.219 2.249-.46.891-.26 1.88-.704 2.966-1.331 1.314-.76 2.119-1.567 2.412-2.422.283-.875.221-1.664-.186-2.37ZM227.288 65.643l-5.717-9.902 6.63-3.828 1.081 1.872-4.402 2.54 1.197 2.073 3.915-2.26 1.081 1.871-3.916 2.26 2.36 4.087-2.229 1.287ZM229.776 51.004l2.229-1.287 5.717 9.902-2.229 1.287-5.717-9.902ZM246.659 54.46a57.602 57.602 0 0 0-4.011-2.162 39.377 39.377 0 0 0-4.179-1.76l3.746 6.487-2.201 1.27-5.717-9.902 1.815-1.048c.496.133 1.066.318 1.711.556.645.237 1.314.505 2.007.803.698.283 1.404.593 2.119.93.709.327 1.384.649 2.024.965l-3.374-5.844 2.215-1.279 5.717 9.903-1.872 1.08Z"/></g><g clip-path="url(#j)"><path fill="#0364B9" d="m273.054 65.383-47.632 27.5c-7.892 4.557-10.596 14.648-6.039 22.54l24.062 41.677 76.211-44-24.063-41.677c-4.556-7.892-14.648-10.596-22.539-6.04Z"/><path fill="#0A559E" d="M225.422 92.883c-7.892 4.557-10.596 14.648-6.039 22.54l.239.415 64.752-52.377a16.435 16.435 0 0 0-11.32 1.922l-47.632 27.5ZM295.593 71.423a16.436 16.436 0 0 0-8.903-7.348l20.111 56.445 12.855-7.42-24.063-41.677Z"/><path fill="#2A3052" d="m242.758 155.909 76.21-44 4.125 7.145c4.556 7.892 1.852 17.983-6.039 22.54l-47.632 27.5c-7.892 4.556-17.983 1.852-22.539-6.04l-4.125-7.145Z"/><path fill="#fff" d="M241.934 114.101a51.03 51.03 0 0 1 2.525 1.667c.985.65 2.03 1.381 3.133 2.192 1.111.781 2.23 1.596 3.355 2.445l3.175 2.397-.489-3.948a216.617 216.617 0 0 1-.468-4.111 193.706 193.706 0 0 1-.332-3.81 70.546 70.546 0 0 1-.153-3.036l4.058-2.343a99.93 99.93 0 0 1 3.072 4.133 143.353 143.353 0 0 1 3.366 4.839 275.908 275.908 0 0 1 3.395 5.089 357.013 357.013 0 0 1 3.173 4.837l-4.343 2.508a602.667 602.667 0 0 0-3.859-6.156 194.886 194.886 0 0 0-4.389-6.611c.119.998.25 2.104.392 3.318l.425 3.641c.161 1.202.309 2.361.445 3.477.125 1.096.236 2.036.332 2.819l-3.115 1.798c-.63-.475-1.388-1.04-2.275-1.697a702.196 702.196 0 0 0-2.817-2.107 226.547 226.547 0 0 0-2.912-2.206c-.98-.73-1.873-1.396-2.678-1.998a198.32 198.32 0 0 0 3.531 7.107 594.304 594.304 0 0 0 3.402 6.419l-4.344 2.508c-.826-1.606-1.703-3.323-2.631-5.15l-2.709-5.485a310.208 310.208 0 0 1-2.508-5.334 131.33 131.33 0 0 1-2.015-4.744l4.258-2.458ZM275.306 94.834l2.194 3.8-5.973 3.449 9.24 16.005-4.458 2.574-9.24-16.005-5.973 3.449-2.195-3.801 16.405-9.471ZM292.813 103.36c-.319-.553-.724-.967-1.213-1.243-.501-.296-1.139-.41-1.913-.344-.775.066-1.721.32-2.838.762-1.117.441-2.456 1.113-4.018 2.015a139.744 139.744 0 0 0-2.605-5.698 233.749 233.749 0 0 0-2.655-5.326l10.717-6.187 2.062 3.572-7.144 4.125c.358.708.695 1.402 1.012 2.083.325.65.596 1.23.814 1.74 2.892-1.415 5.319-1.94 7.283-1.575 1.971.335 3.529 1.493 4.673 3.474.528.915.856 1.856.983 2.824a6.319 6.319 0 0 1-.286 2.871c-.318.945-.879 1.866-1.682 2.762-.785.885-1.835 1.707-3.149 2.466-.515.297-1.08.572-1.695.826a17.43 17.43 0 0 1-1.778.683c-.569.202-1.096.367-1.582.495-.485.127-.875.2-1.169.218l-1.258-3.961c.597-.065 1.347-.219 2.249-.46.891-.261 1.88-.705 2.966-1.332 1.314-.759 2.119-1.566 2.412-2.421.283-.875.221-1.664-.186-2.369ZM276.643 154.809c.11-.051.234-.111.373-.178l.5-.289c1.115-.643 1.777-1.4 1.986-2.27.218-.876.041-1.809-.531-2.8-.599-1.038-1.31-1.675-2.132-1.912-.823-.236-1.791-.033-2.906.611a9.261 9.261 0 0 0-.463.286 4.017 4.017 0 0 0-.441.293l3.614 6.259Zm4.629-6.865c.495.857.793 1.682.895 2.475a4.76 4.76 0 0 1-.227 2.246c-.244.699-.658 1.357-1.242 1.974s-1.314 1.178-2.19 1.684c-.401.231-.878.481-1.434.751-.55.28-1.112.515-1.687.708l-5.569-9.646c.46-.392.957-.762 1.493-1.109.54-.363 1.01-.66 1.411-.891.847-.489 1.669-.837 2.465-1.042.806-.211 1.574-.255 2.306-.131a4.61 4.61 0 0 1 2.051.912c.635.484 1.211 1.174 1.728 2.069ZM283.114 140.136c1.486-.858 2.779-1.249 3.877-1.172 1.094.068 1.962.659 2.605 1.773.402.696.567 1.356.496 1.981-.066.611-.328 1.213-.786 1.807.343.132.718.297 1.124.494.401.188.808.398 1.221.629.417.217.835.458 1.255.723.415.256.812.516 1.193.779l-2.501 1.444c-.368-.22-.743-.441-1.126-.665a18.273 18.273 0 0 0-1.133-.641c-.372-.205-.733-.39-1.083-.556a10.47 10.47 0 0 0-1.017-.442l-1.1.635 2.087 3.616-2.229 1.287-5.635-9.76a14.62 14.62 0 0 1 1.385-1.066c.502-.341.958-.63 1.367-.866Zm1.226 1.826a7.832 7.832 0 0 0-.435.27 56.69 56.69 0 0 0-.34.235l1.551 2.686.628-.363c.839-.484 1.378-.935 1.619-1.353.241-.419.216-.881-.075-1.386-.281-.486-.665-.721-1.152-.707-.483 0-1.081.206-1.796.618ZM298.262 144.746a84.669 84.669 0 0 1-2.651-1.918 110.394 110.394 0 0 1-2.62-2.031 159.054 159.054 0 0 1-2.41-1.962 128.23 128.23 0 0 1-1.98-1.714l2.458-1.419c.52.461 1.083.962 1.687 1.502l1.824 1.576c.618.52 1.209 1.017 1.775 1.491.566.473 1.07.874 1.514 1.202a48.04 48.04 0 0 0-.299-1.904 79.95 79.95 0 0 0-.404-2.282 93.475 93.475 0 0 0-.452-2.368c-.157-.799-.305-1.539-.444-2.22l2.372-1.37c.144.755.304 1.616.48 2.581.176.965.346 1.985.509 3.059.163 1.075.313 2.17.449 3.285.136 1.116.248 2.2.335 3.255l-2.143 1.237Z"/></g><g clip-path="url(#k)"><path fill="#0364B9" d="m325.054 155.45-47.632 27.5c-7.892 4.556-10.596 14.647-6.039 22.539l24.062 41.678 76.211-44-24.063-41.678c-4.556-7.892-14.648-10.596-22.539-6.039Z"/><path fill="#0A559E" d="M277.422 182.95c-7.892 4.556-10.596 14.647-6.039 22.539l.239.415 64.752-52.377a16.435 16.435 0 0 0-11.32 1.923l-47.632 27.5ZM347.593 161.489a16.435 16.435 0 0 0-8.903-7.347l20.111 56.445 12.855-7.42-24.063-41.678Z"/><path fill="#71BD0E" d="m294.758 245.976 76.21-44 4.125 7.145c4.556 7.891 1.852 17.983-6.039 22.539l-47.632 27.5c-7.892 4.556-17.983 1.852-22.539-6.039l-4.125-7.145Z"/><path fill="#fff" d="M293.934 204.167a51.76 51.76 0 0 1 2.525 1.667c.985.651 2.03 1.382 3.133 2.193 1.111.78 2.23 1.595 3.355 2.445l3.175 2.396-.489-3.947c-.172-1.4-.329-2.77-.468-4.112a194.31 194.31 0 0 1-.332-3.809 70.661 70.661 0 0 1-.153-3.037l4.058-2.343c.95 1.205 1.974 2.582 3.072 4.133a143.422 143.422 0 0 1 3.366 4.84 272.563 272.563 0 0 1 3.395 5.089 363.566 363.566 0 0 1 3.173 4.836l-4.343 2.508a614.327 614.327 0 0 0-3.859-6.155 194.92 194.92 0 0 0-4.389-6.612c.119.998.25 2.104.392 3.318l.425 3.641c.161 1.203.309 2.362.445 3.477.125 1.097.236 2.036.332 2.819l-3.115 1.798a346.6 346.6 0 0 0-2.275-1.696 699.777 699.777 0 0 0-2.817-2.108 226.547 226.547 0 0 0-2.912-2.206c-.98-.729-1.873-1.395-2.678-1.997a198.27 198.27 0 0 0 3.531 7.106 594.304 594.304 0 0 0 3.402 6.419l-4.344 2.508c-.826-1.606-1.703-3.322-2.631-5.149l-2.709-5.485a310.199 310.199 0 0 1-2.508-5.335 132.104 132.104 0 0 1-2.015-4.743l4.258-2.459ZM327.306 184.9l2.194 3.801-5.973 3.449 9.24 16.004-4.458 2.574-9.24-16.004-5.973 3.448-2.195-3.801 16.405-9.471ZM344.813 193.426c-.319-.552-.724-.967-1.213-1.243-.501-.295-1.139-.41-1.913-.343-.775.066-1.721.32-2.838.761-1.117.442-2.456 1.114-4.018 2.016a139.648 139.648 0 0 0-2.605-5.699 232.605 232.605 0 0 0-2.655-5.325l10.717-6.188 2.062 3.572-7.144 4.125c.358.708.695 1.403 1.012 2.083.325.651.596 1.231.814 1.74 2.892-1.415 5.319-1.94 7.283-1.575 1.971.335 3.529 1.493 4.673 3.475.528.914.856 1.856.983 2.824a6.313 6.313 0 0 1-.286 2.87c-.318.946-.879 1.867-1.682 2.763-.785.884-1.835 1.706-3.149 2.465-.515.297-1.08.573-1.695.827a17.91 17.91 0 0 1-1.778.683c-.569.202-1.096.366-1.582.494-.485.128-.875.2-1.169.218l-1.258-3.961c.597-.065 1.347-.219 2.249-.46.891-.26 1.88-.704 2.966-1.331 1.314-.759 2.119-1.566 2.412-2.422.283-.874.221-1.664-.186-2.369ZM331.288 245.777l-5.717-9.903 6.63-3.828 1.081 1.872-4.402 2.541 1.197 2.072 3.915-2.261 1.081 1.872-3.916 2.261 2.36 4.087-2.229 1.287ZM333.776 231.137l2.229-1.287 5.717 9.902-2.229 1.287-5.717-9.902ZM350.659 234.593a57.647 57.647 0 0 0-4.011-2.162 39.357 39.357 0 0 0-4.179-1.76l3.746 6.487-2.201 1.271-5.717-9.903 1.815-1.047a20.27 20.27 0 0 1 1.711.555c.645.237 1.314.505 2.007.803a43.77 43.77 0 0 1 2.119.93c.709.327 1.384.649 2.024.966l-3.374-5.845 2.215-1.279 5.717 9.903-1.872 1.081Z"/></g><g clip-path="url(#l)"><path fill="#0364B9" d="m311.12-76.684-47.631 27.5c-7.892 4.557-10.596 14.648-6.04 22.54l24.063 41.677 76.21-44-24.063-41.677c-4.556-7.892-14.647-10.596-22.539-6.04Z"/><path fill="#0A559E" d="M263.489-49.184c-7.892 4.557-10.596 14.648-6.04 22.54l.24.415 64.751-52.377a16.436 16.436 0 0 0-11.32 1.922l-47.631 27.5ZM333.659-70.644a16.436 16.436 0 0 0-8.903-7.347l20.112 56.445 12.854-7.42-24.063-41.678Z"/><path fill="#2A3052" d="m280.824 13.842 76.21-44 4.125 7.145c4.557 7.892 1.853 17.983-6.039 22.54l-47.631 27.5c-7.892 4.556-17.983 1.852-22.54-6.04l-4.125-7.144Z"/><path fill="#fff" d="M280.001-27.966c.706.43 1.547.986 2.524 1.667a75.66 75.66 0 0 1 3.133 2.192c1.112.781 2.23 1.596 3.355 2.445l3.175 2.397-.488-3.948c-.173-1.399-.329-2.77-.469-4.111a210.656 210.656 0 0 1-.332-3.81 70.624 70.624 0 0 1-.153-3.036l4.059-2.343a101.63 101.63 0 0 1 3.071 4.133 142.544 142.544 0 0 1 3.366 4.84 275.951 275.951 0 0 1 3.396 5.088 370.982 370.982 0 0 1 3.173 4.837l-4.344 2.508a578.806 578.806 0 0 0-3.859-6.156 196.487 196.487 0 0 0-4.388-6.611c.119.998.249 2.104.391 3.318l.425 3.64c.161 1.203.31 2.363.446 3.478.125 1.096.235 2.036.332 2.819l-3.116 1.798a310.04 310.04 0 0 0-2.275-1.697 730.295 730.295 0 0 0-2.817-2.107c-.961-.741-1.932-1.476-2.912-2.206s-1.873-1.395-2.678-1.998a196.56 196.56 0 0 0 3.532 7.107 579.072 579.072 0 0 0 3.401 6.42l-4.344 2.507c-.826-1.606-1.702-3.323-2.63-5.15l-2.71-5.485a323.69 323.69 0 0 1-2.508-5.334 131.26 131.26 0 0 1-2.015-4.744l4.259-2.458ZM313.372-47.233l2.195 3.801-5.973 3.449 9.24 16.004-4.459 2.574-9.24-16.005-5.973 3.449-2.194-3.801 16.404-9.471ZM330.879-38.707c-.319-.553-.723-.967-1.213-1.243-.501-.295-1.138-.41-1.913-.344-.775.066-1.721.32-2.837.762-1.117.442-2.457 1.113-4.019 2.015a141.154 141.154 0 0 0-2.604-5.698 237.581 237.581 0 0 0-2.656-5.326l10.717-6.187 2.063 3.572-7.145 4.125c.358.708.695 1.402 1.012 2.083.325.65.596 1.23.814 1.74 2.892-1.415 5.32-1.94 7.283-1.575 1.972.335 3.53 1.493 4.674 3.474a7.59 7.59 0 0 1 .982 2.824 6.303 6.303 0 0 1-.286 2.871c-.317.946-.878 1.866-1.682 2.762-.785.885-1.834 1.707-3.149 2.466-.514.297-1.079.572-1.695.826-.585.262-1.178.49-1.777.683a20.14 20.14 0 0 1-1.582.495c-.485.127-.875.2-1.17.218l-1.258-3.961c.598-.065 1.347-.219 2.249-.46.892-.26 1.88-.704 2.966-1.331 1.315-.76 2.119-1.567 2.413-2.422.282-.874.22-1.664-.187-2.37ZM314.709 12.742c.11-.051.235-.11.374-.178l.5-.289c1.114-.643 1.776-1.4 1.985-2.27.219-.876.042-1.809-.53-2.8-.6-1.038-1.311-1.675-2.133-1.912-.822-.236-1.791-.033-2.905.61a9.283 9.283 0 0 0-.464.287 4.01 4.01 0 0 0-.441.293l3.614 6.259Zm4.629-6.865c.495.858.794 1.682.896 2.475a4.76 4.76 0 0 1-.228 2.246c-.244.7-.658 1.358-1.241 1.974-.584.617-1.315 1.178-2.191 1.684-.4.231-.878.481-1.433.751a12.4 12.4 0 0 1-1.688.708l-5.568-9.646c.459-.392.957-.762 1.493-1.11.54-.362 1.01-.659 1.41-.89.848-.49 1.67-.837 2.466-1.042.805-.211 1.574-.255 2.305-.131a4.62 4.62 0 0 1 2.051.912c.635.484 1.211 1.174 1.728 2.07ZM321.181-1.931c1.486-.858 2.778-1.249 3.877-1.172 1.093.068 1.961.659 2.605 1.773.401.696.567 1.356.496 1.981-.067.61-.329 1.213-.786 1.807.343.132.717.297 1.123.494.401.188.808.398 1.221.63.417.216.836.457 1.256.722.414.256.812.516 1.192.779l-2.5 1.444c-.368-.22-.744-.441-1.127-.665a18.764 18.764 0 0 0-1.132-.641c-.372-.205-.734-.39-1.084-.556a10.32 10.32 0 0 0-1.017-.442l-1.1.635 2.087 3.616-2.229 1.287L318.428 0a14.68 14.68 0 0 1 1.385-1.066c.502-.341.958-.63 1.368-.866Zm1.226 1.826a7.266 7.266 0 0 0-.435.27l-.341.235 1.551 2.687.629-.363c.838-.484 1.378-.936 1.619-1.354.241-.419.216-.88-.076-1.386-.28-.485-.664-.721-1.151-.707-.483 0-1.082.206-1.796.618ZM336.328 2.68a86 86 0 0 1-2.65-1.919 113.317 113.317 0 0 1-2.621-2.03 158.213 158.213 0 0 1-2.409-1.963 125.75 125.75 0 0 1-1.981-1.714l2.458-1.42c.521.462 1.083.963 1.687 1.504l1.824 1.576 1.775 1.49c.566.473 1.07.874 1.514 1.203a47.74 47.74 0 0 0-.299-1.905 79.338 79.338 0 0 0-.403-2.282 93.48 93.48 0 0 0-.453-2.368c-.156-.798-.304-1.539-.444-2.22l2.372-1.37c.144.755.304 1.616.481 2.58a107.677 107.677 0 0 1 .957 6.345c.136 1.116.248 2.2.336 3.255l-2.144 1.237Z"/></g><g clip-path="url(#m)"><path fill="#0364B9" d="m363.12 13.383-47.631 27.5c-7.892 4.557-10.596 14.648-6.04 22.54l24.063 41.677 76.21-44-24.063-41.677c-4.556-7.892-14.647-10.596-22.539-6.04Z"/><path fill="#0A559E" d="M315.489 40.883c-7.892 4.557-10.596 14.648-6.04 22.54l.24.415L374.44 11.46a16.436 16.436 0 0 0-11.32 1.923l-47.631 27.5ZM385.659 19.423a16.436 16.436 0 0 0-8.903-7.348l20.112 56.445 12.854-7.42-24.063-41.677Z"/><path fill="#71BD0E" d="m332.824 103.909 76.21-44 4.125 7.145c4.557 7.892 1.853 17.983-6.039 22.54l-47.631 27.5c-7.892 4.556-17.983 1.852-22.54-6.04l-4.125-7.145Z"/><path fill="#fff" d="M332.001 62.1c.706.432 1.547.987 2.524 1.668a75.66 75.66 0 0 1 3.133 2.192c1.112.781 2.23 1.596 3.355 2.445l3.175 2.397-.488-3.948c-.173-1.399-.329-2.77-.469-4.111a210.656 210.656 0 0 1-.332-3.81 70.624 70.624 0 0 1-.153-3.036l4.059-2.343a101.63 101.63 0 0 1 3.071 4.133 142.544 142.544 0 0 1 3.366 4.84 275.951 275.951 0 0 1 3.396 5.088 370.982 370.982 0 0 1 3.173 4.837l-4.344 2.508a578.806 578.806 0 0 0-3.859-6.156 196.487 196.487 0 0 0-4.388-6.611c.119.998.249 2.104.391 3.318l.425 3.64c.161 1.203.31 2.362.446 3.478.125 1.096.235 2.036.332 2.819l-3.116 1.798a310.04 310.04 0 0 0-2.275-1.697 730.295 730.295 0 0 0-2.817-2.107c-.961-.741-1.932-1.476-2.912-2.206s-1.873-1.396-2.678-1.998a196.56 196.56 0 0 0 3.532 7.107 578.976 578.976 0 0 0 3.401 6.419l-4.344 2.508c-.826-1.606-1.702-3.323-2.63-5.15l-2.71-5.485a323.69 323.69 0 0 1-2.508-5.334 131.26 131.26 0 0 1-2.015-4.744l4.259-2.458ZM365.372 42.834l2.195 3.8-5.973 3.45 9.24 16.004-4.459 2.574-9.24-16.005-5.973 3.449-2.194-3.801 16.404-9.471ZM382.879 51.36c-.319-.553-.723-.967-1.213-1.243-.501-.295-1.138-.41-1.913-.344-.775.066-1.721.32-2.837.762-1.117.441-2.457 1.113-4.019 2.015a141.09 141.09 0 0 0-2.604-5.698 237.812 237.812 0 0 0-2.656-5.326l10.717-6.187 2.063 3.572-7.145 4.125c.358.708.695 1.402 1.012 2.083.325.65.596 1.23.814 1.74 2.892-1.415 5.32-1.94 7.283-1.576 1.972.336 3.53 1.494 4.674 3.475a7.59 7.59 0 0 1 .982 2.824 6.303 6.303 0 0 1-.286 2.87c-.317.947-.878 1.867-1.682 2.763-.785.885-1.834 1.707-3.149 2.466-.514.297-1.079.572-1.695.826a17.58 17.58 0 0 1-1.777.683 20.14 20.14 0 0 1-1.582.495c-.485.127-.875.2-1.17.218l-1.258-3.961c.598-.066 1.347-.219 2.249-.46.892-.26 1.88-.704 2.966-1.331 1.315-.76 2.119-1.567 2.413-2.422.282-.875.22-1.664-.187-2.37ZM369.354 103.71l-5.717-9.902 6.63-3.828 1.081 1.872-4.401 2.54 1.196 2.073 3.915-2.26 1.081 1.871-3.915 2.26 2.359 4.087-2.229 1.287ZM371.842 89.07l2.229-1.287 5.718 9.903-2.23 1.287-5.717-9.903ZM388.725 92.526a57.352 57.352 0 0 0-4.01-2.161 39.377 39.377 0 0 0-4.179-1.76l3.745 6.487-2.2 1.27-5.718-9.902 1.815-1.048c.496.133 1.067.318 1.712.555.645.238 1.314.506 2.007.804.697.283 1.403.593 2.118.93.71.327 1.384.649 2.024.965l-3.374-5.844 2.215-1.279 5.717 9.903-1.872 1.08Z"/></g><g clip-path="url(#n)"><path fill="#0364B9" d="m415.12 103.45-47.631 27.5c-7.892 4.556-10.596 14.647-6.04 22.539l24.063 41.678 76.21-44-24.063-41.678c-4.556-7.892-14.647-10.596-22.539-6.039Z"/><path fill="#0A559E" d="M367.489 130.95c-7.892 4.556-10.596 14.647-6.04 22.539l.24.415 64.751-52.377a16.436 16.436 0 0 0-11.32 1.923l-47.631 27.5ZM437.659 109.489a16.435 16.435 0 0 0-8.903-7.347l20.112 56.445 12.854-7.42-24.063-41.678Z"/><path fill="#2A3052" d="m384.824 193.976 76.21-44 4.125 7.145c4.557 7.891 1.853 17.983-6.039 22.539l-47.631 27.5c-7.892 4.556-17.983 1.852-22.54-6.039l-4.125-7.145Z"/><path fill="#fff" d="M384.001 152.167a51.79 51.79 0 0 1 2.524 1.667c.986.651 2.03 1.382 3.133 2.193 1.112.78 2.23 1.595 3.355 2.445l3.175 2.396-.488-3.947c-.173-1.4-.329-2.77-.469-4.112a211.11 211.11 0 0 1-.332-3.809 70.661 70.661 0 0 1-.153-3.037l4.059-2.343a101.584 101.584 0 0 1 3.071 4.133 141.98 141.98 0 0 1 3.366 4.84 272.596 272.596 0 0 1 3.396 5.089 373.766 373.766 0 0 1 3.173 4.836l-4.344 2.508a579.947 579.947 0 0 0-3.859-6.155 196.403 196.403 0 0 0-4.388-6.612c.119.998.249 2.104.391 3.318l.425 3.641c.161 1.203.31 2.362.446 3.477.125 1.097.235 2.036.332 2.819l-3.116 1.798c-.629-.474-1.388-1.04-2.275-1.696a699.777 699.777 0 0 0-2.817-2.108 219.789 219.789 0 0 0-2.912-2.206c-.98-.729-1.873-1.395-2.678-1.997a196.618 196.618 0 0 0 3.532 7.106 577.895 577.895 0 0 0 3.401 6.419l-4.344 2.508c-.826-1.606-1.702-3.322-2.63-5.149l-2.71-5.485a326.008 326.008 0 0 1-2.508-5.335 132.104 132.104 0 0 1-2.015-4.743l4.259-2.459ZM417.372 132.9l2.195 3.801-5.973 3.449 9.24 16.004-4.459 2.574-9.24-16.004-5.973 3.448-2.194-3.801 16.404-9.471ZM434.879 141.426c-.319-.552-.723-.967-1.213-1.243-.501-.295-1.138-.41-1.913-.343-.775.066-1.721.32-2.837.761-1.117.442-2.457 1.114-4.019 2.016a140.985 140.985 0 0 0-2.604-5.699 236.63 236.63 0 0 0-2.656-5.325l10.717-6.188 2.063 3.572-7.145 4.125c.358.708.695 1.403 1.012 2.083.325.651.596 1.231.814 1.74 2.892-1.415 5.32-1.94 7.283-1.575 1.972.335 3.53 1.493 4.674 3.475.528.914.855 1.856.982 2.824a6.3 6.3 0 0 1-.286 2.87c-.317.946-.878 1.867-1.682 2.763-.785.884-1.834 1.706-3.149 2.465-.514.297-1.079.573-1.695.827-.585.261-1.178.489-1.777.683-.57.202-1.097.366-1.582.494-.485.128-.875.2-1.17.218l-1.258-3.961c.598-.065 1.347-.219 2.249-.46.892-.26 1.88-.704 2.966-1.331 1.315-.759 2.119-1.566 2.413-2.422.282-.874.22-1.664-.187-2.369ZM418.709 192.875c.11-.051.235-.11.374-.178l.5-.288c1.114-.644 1.776-1.401 1.985-2.271.219-.875.042-1.809-.53-2.799-.6-1.039-1.311-1.676-2.133-1.912-.822-.237-1.791-.033-2.905.61a9.314 9.314 0 0 0-.464.287 4.015 4.015 0 0 0-.441.292l3.614 6.259Zm4.629-6.864c.495.857.794 1.682.896 2.474a4.76 4.76 0 0 1-.228 2.246c-.244.7-.658 1.358-1.241 1.974-.584.617-1.315 1.178-2.191 1.684-.4.231-.878.482-1.433.752-.55.279-1.113.515-1.688.707l-5.568-9.645c.459-.393.957-.762 1.493-1.11.54-.363 1.01-.659 1.41-.89.848-.49 1.67-.837 2.466-1.043.805-.211 1.574-.255 2.305-.131a4.627 4.627 0 0 1 2.051.912c.635.484 1.211 1.174 1.728 2.07ZM425.181 178.202c1.486-.858 2.778-1.248 3.877-1.171 1.093.067 1.961.658 2.605 1.773.401.695.567 1.356.496 1.981-.067.61-.329 1.212-.786 1.806.343.132.717.297 1.123.495.401.188.808.397 1.221.629.417.216.836.457 1.256.723.414.256.812.515 1.192.778l-2.5 1.444c-.368-.219-.744-.441-1.127-.664a18.797 18.797 0 0 0-1.132-.642c-.372-.204-.734-.39-1.084-.556a10.366 10.366 0 0 0-1.017-.442l-1.1.636 2.087 3.615-2.229 1.287-5.635-9.76a14.62 14.62 0 0 1 1.385-1.066 22.52 22.52 0 0 1 1.368-.866Zm1.226 1.827a6.796 6.796 0 0 0-.435.27l-.341.234 1.551 2.687.629-.363c.838-.484 1.378-.935 1.619-1.354.241-.419.216-.88-.076-1.385-.28-.486-.664-.722-1.151-.707-.483-.001-1.082.205-1.796.618ZM440.328 182.813a86.375 86.375 0 0 1-2.65-1.919 113.153 113.153 0 0 1-2.621-2.03 159.81 159.81 0 0 1-2.409-1.963 123.428 123.428 0 0 1-1.981-1.714l2.458-1.419c.521.462 1.083.963 1.687 1.503l1.824 1.576 1.775 1.49c.566.474 1.07.875 1.514 1.203a47.472 47.472 0 0 0-.299-1.904 79.23 79.23 0 0 0-.403-2.282 92.636 92.636 0 0 0-.453-2.368 235.63 235.63 0 0 0-.444-2.221l2.372-1.369c.144.755.304 1.615.481 2.58a107.258 107.258 0 0 1 .957 6.344c.136 1.116.248 2.201.336 3.255l-2.144 1.238Z"/></g><g clip-path="url(#o)"><path fill="#0364B9" d="m453.186-38.617-47.631 27.5c-7.892 4.557-10.596 14.648-6.039 22.54L423.578 53.1l76.21-44-24.062-41.677c-4.556-7.892-14.648-10.596-22.54-6.04Z"/><path fill="#0A559E" d="M405.555-11.117c-7.892 4.557-10.596 14.648-6.039 22.54l.239.415 64.751-52.377a16.437 16.437 0 0 0-11.32 1.922l-47.631 27.5ZM475.726-32.577a16.439 16.439 0 0 0-8.904-7.348l20.112 56.445 12.854-7.42-24.062-41.677Z"/><path fill="#2A3052" d="m422.891 51.91 76.21-44 4.125 7.144c4.556 7.892 1.852 17.983-6.04 22.54l-47.631 27.5c-7.892 4.556-17.983 1.852-22.539-6.04l-4.125-7.145Z"/><path fill="#fff" d="M422.067 10.1c.706.432 1.548.987 2.525 1.668a77.03 77.03 0 0 1 3.133 2.192c1.111.781 2.229 1.596 3.355 2.445l3.174 2.397-.488-3.948c-.173-1.399-.329-2.77-.468-4.111a202.45 202.45 0 0 1-.333-3.81 72.087 72.087 0 0 1-.152-3.036l4.058-2.343a102.542 102.542 0 0 1 3.072 4.133 145.495 145.495 0 0 1 3.366 4.84 275.917 275.917 0 0 1 3.395 5.088 370.982 370.982 0 0 1 3.173 4.836l-4.344 2.508a594.413 594.413 0 0 0-3.858-6.155 196.524 196.524 0 0 0-4.389-6.611c.119.998.25 2.104.391 3.318l.426 3.64c.161 1.203.309 2.362.445 3.478.125 1.096.236 2.036.332 2.819l-3.115 1.798c-.63-.475-1.388-1.04-2.275-1.697a662.336 662.336 0 0 0-2.818-2.107c-.961-.741-1.931-1.476-2.911-2.206-.981-.73-1.873-1.396-2.678-1.998a194.915 194.915 0 0 0 3.531 7.107 595.446 595.446 0 0 0 3.402 6.419l-4.344 2.508c-.826-1.606-1.703-3.323-2.631-5.15-.908-1.838-1.812-3.666-2.709-5.485a315.976 315.976 0 0 1-2.509-5.334 131.111 131.111 0 0 1-2.014-4.744l4.258-2.458ZM455.439-9.166l2.194 3.8-5.973 3.45 9.24 16.004-4.458 2.574-9.24-16.005-5.973 3.449-2.195-3.801 16.405-9.471ZM472.945-.64c-.319-.553-.723-.967-1.213-1.243-.5-.296-1.138-.41-1.913-.344-.774.066-1.72.32-2.837.762-1.117.441-2.456 1.113-4.019 2.015a138.348 138.348 0 0 0-2.604-5.698 237.783 237.783 0 0 0-2.655-5.326l10.717-6.187 2.062 3.572-7.145 4.125c.358.708.696 1.402 1.013 2.083.324.65.596 1.23.814 1.74 2.891-1.415 5.319-1.94 7.283-1.575 1.971.335 3.529 1.493 4.673 3.474.528.915.856 1.856.983 2.824a6.316 6.316 0 0 1-.286 2.87c-.318.946-.879 1.867-1.683 2.763-.784.885-1.834 1.707-3.148 2.466-.515.297-1.08.572-1.695.826-.586.262-1.178.49-1.778.683-.569.202-1.097.367-1.582.495-.485.127-.875.2-1.169.218l-1.258-3.961c.597-.066 1.347-.219 2.249-.46.891-.26 1.88-.705 2.966-1.332 1.314-.759 2.118-1.566 2.412-2.421.283-.875.22-1.664-.187-2.37ZM456.775 50.809c.111-.051.235-.11.374-.178l.5-.289c1.115-.643 1.777-1.4 1.986-2.27.218-.876.041-1.809-.531-2.8-.599-1.038-1.31-1.675-2.133-1.912-.822-.236-1.791-.033-2.905.61a8.841 8.841 0 0 0-.463.287 4.002 4.002 0 0 0-.441.293l3.613 6.259Zm4.63-6.865c.495.857.793 1.682.895 2.475a4.76 4.76 0 0 1-.227 2.246c-.244.7-.658 1.357-1.242 1.974s-1.314 1.178-2.191 1.684c-.4.23-.877.481-1.433.751-.55.28-1.112.516-1.687.708l-5.569-9.646c.459-.392.957-.762 1.493-1.11.54-.362 1.01-.659 1.41-.89.848-.49 1.67-.837 2.466-1.042.805-.211 1.574-.255 2.306-.131a4.625 4.625 0 0 1 2.051.911c.635.485 1.211 1.175 1.728 2.07ZM463.247 36.136c1.486-.858 2.779-1.249 3.877-1.172 1.093.068 1.962.659 2.605 1.773.402.696.567 1.356.496 1.981-.067.61-.329 1.213-.786 1.807.343.132.718.297 1.124.494.401.188.807.398 1.22.63.418.216.836.457 1.256.722.415.256.812.516 1.193.779l-2.501 1.444c-.368-.22-.743-.441-1.126-.665a19.128 19.128 0 0 0-1.133-.641c-.372-.205-.733-.39-1.083-.556a10.547 10.547 0 0 0-1.017-.442l-1.101.635 2.088 3.616-2.229 1.287-5.635-9.76a14.56 14.56 0 0 1 1.385-1.066c.502-.341.957-.63 1.367-.866Zm1.226 1.826a7.276 7.276 0 0 0-.435.27l-.34.235 1.551 2.686.628-.363c.839-.484 1.378-.935 1.619-1.353.241-.419.216-.88-.076-1.386-.28-.486-.664-.721-1.151-.707-.483 0-1.082.206-1.796.618ZM478.395 40.746a86.166 86.166 0 0 1-2.651-1.918 113.362 113.362 0 0 1-2.62-2.03 163.41 163.41 0 0 1-2.41-1.963 120.563 120.563 0 0 1-1.98-1.714l2.457-1.42c.521.462 1.083.963 1.687 1.504l1.825 1.575c.617.52 1.209 1.017 1.775 1.49.565.474 1.07.875 1.513 1.203a45.966 45.966 0 0 0-.299-1.904 79.301 79.301 0 0 0-.403-2.282 93.56 93.56 0 0 0-.452-2.368c-.157-.799-.305-1.539-.444-2.22l2.372-1.37c.144.755.304 1.616.48 2.58.176.966.346 1.986.509 3.06.163 1.075.312 2.17.448 3.285.136 1.116.248 2.2.336 3.255l-2.143 1.237Z"/></g><g clip-path="url(#p)"><path fill="#0364B9" d="m505.186 51.45-47.631 27.5c-7.892 4.556-10.596 14.647-6.039 22.539l24.062 41.678 76.21-44-24.062-41.678c-4.556-7.892-14.648-10.596-22.54-6.04Z"/><path fill="#0A559E" d="M457.555 78.95c-7.892 4.556-10.596 14.647-6.039 22.539l.239.415 64.751-52.377a16.437 16.437 0 0 0-11.32 1.923l-47.631 27.5ZM527.726 57.49a16.439 16.439 0 0 0-8.904-7.348l20.112 56.445 12.854-7.42-24.062-41.678Z"/><path fill="#71BD0E" d="m474.891 141.976 76.21-44 4.125 7.145c4.556 7.891 1.852 17.983-6.04 22.539l-47.631 27.5c-7.892 4.556-17.983 1.852-22.539-6.039l-4.125-7.145Z"/><path fill="#fff" d="M474.067 100.167a51.76 51.76 0 0 1 2.525 1.667 77.484 77.484 0 0 1 3.133 2.193c1.111.78 2.229 1.595 3.355 2.445l3.174 2.396-.488-3.947c-.173-1.4-.329-2.77-.468-4.112a202.409 202.409 0 0 1-.333-3.81 72.08 72.08 0 0 1-.152-3.036l4.058-2.343a102.534 102.534 0 0 1 3.072 4.133 144.998 144.998 0 0 1 3.366 4.84 272.563 272.563 0 0 1 3.395 5.089 373.766 373.766 0 0 1 3.173 4.836l-4.344 2.508a595.617 595.617 0 0 0-3.858-6.155 196.44 196.44 0 0 0-4.389-6.612c.119.998.25 2.104.391 3.318l.426 3.641c.161 1.203.309 2.362.445 3.477.125 1.097.236 2.036.332 2.819l-3.115 1.798a346.6 346.6 0 0 0-2.275-1.696 637.144 637.144 0 0 0-2.818-2.108 219.678 219.678 0 0 0-2.911-2.206 1090.73 1090.73 0 0 1-2.678-1.997 194.971 194.971 0 0 0 3.531 7.106 594.304 594.304 0 0 0 3.402 6.419l-4.344 2.508c-.826-1.606-1.703-3.322-2.631-5.149l-2.709-5.485a318.186 318.186 0 0 1-2.509-5.335 131.953 131.953 0 0 1-2.014-4.743l4.258-2.459ZM507.439 80.9l2.194 3.801-5.973 3.449 9.24 16.004-4.458 2.574-9.24-16.004-5.973 3.448-2.195-3.8 16.405-9.472ZM524.945 89.426c-.319-.552-.723-.967-1.213-1.243-.5-.295-1.138-.41-1.913-.343-.774.066-1.72.32-2.837.761-1.117.442-2.456 1.114-4.019 2.016a138.438 138.438 0 0 0-2.604-5.699 237.738 237.738 0 0 0-2.655-5.325l10.717-6.188 2.062 3.572-7.145 4.125a71.47 71.47 0 0 1 1.013 2.083c.324.651.596 1.231.814 1.74 2.891-1.415 5.319-1.94 7.283-1.575 1.971.335 3.529 1.493 4.673 3.475.528.914.856 1.856.983 2.824a6.316 6.316 0 0 1-.286 2.87c-.318.946-.879 1.867-1.683 2.762-.784.885-1.834 1.707-3.148 2.466-.515.297-1.08.573-1.695.827a17.62 17.62 0 0 1-1.778.683 20.01 20.01 0 0 1-1.582.494c-.485.128-.875.2-1.169.218l-1.258-3.96c.597-.066 1.347-.22 2.249-.46.891-.261 1.88-.705 2.966-1.332 1.314-.76 2.118-1.566 2.412-2.422.283-.874.22-1.664-.187-2.369ZM511.421 141.777l-5.718-9.903 6.631-3.828 1.08 1.872-4.401 2.541 1.197 2.072 3.915-2.261 1.081 1.872-3.916 2.261 2.36 4.087-2.229 1.287ZM513.909 127.137l2.229-1.287 5.717 9.902-2.229 1.287-5.717-9.902ZM530.792 130.593a57.647 57.647 0 0 0-4.011-2.162 39.357 39.357 0 0 0-4.179-1.76l3.746 6.487-2.201 1.271-5.717-9.903 1.815-1.047a20.27 20.27 0 0 1 1.711.555c.645.237 1.314.505 2.007.803.697.284 1.403.594 2.118.93.71.327 1.385.649 2.025.966l-3.374-5.845 2.214-1.279 5.718 9.903-1.872 1.081Z"/></g><g clip-path="url(#q)"><path fill="#0364B9" d="m557.186 141.517-47.631 27.5c-7.892 4.556-10.596 14.647-6.039 22.539l24.062 41.677 76.21-44-24.062-41.677c-4.556-7.892-14.648-10.596-22.54-6.039Z"/><path fill="#0A559E" d="M509.555 169.017c-7.892 4.556-10.596 14.647-6.039 22.539l.239.415 64.751-52.377a16.437 16.437 0 0 0-11.32 1.923l-47.631 27.5ZM579.726 147.556a16.438 16.438 0 0 0-8.904-7.347l20.112 56.445 12.854-7.421-24.062-41.677Z"/><path fill="#2A3052" d="m526.891 232.043 76.21-44 4.125 7.144c4.556 7.892 1.852 17.983-6.04 22.54l-47.631 27.5c-7.892 4.556-17.983 1.852-22.539-6.04l-4.125-7.144Z"/><path fill="#fff" d="M526.067 190.234a51.76 51.76 0 0 1 2.525 1.667 77.41 77.41 0 0 1 3.133 2.192c1.111.781 2.229 1.596 3.355 2.445l3.174 2.397-.488-3.948a208.744 208.744 0 0 1-.468-4.111 202.828 202.828 0 0 1-.333-3.809 72.12 72.12 0 0 1-.152-3.037l4.058-2.343a102.487 102.487 0 0 1 3.072 4.133 145.867 145.867 0 0 1 3.366 4.839 275.994 275.994 0 0 1 3.395 5.09 360.502 360.502 0 0 1 3.173 4.836l-4.344 2.508a595.17 595.17 0 0 0-3.858-6.156 196.405 196.405 0 0 0-4.389-6.611c.119.998.25 2.104.391 3.318l.426 3.641c.161 1.203.309 2.362.445 3.477.125 1.097.236 2.036.332 2.819l-3.115 1.798a346.6 346.6 0 0 0-2.275-1.696 637.144 637.144 0 0 0-2.818-2.108 219.678 219.678 0 0 0-2.911-2.206 1090.73 1090.73 0 0 1-2.678-1.997 194.971 194.971 0 0 0 3.531 7.106 594.304 594.304 0 0 0 3.402 6.419l-4.344 2.508c-.826-1.606-1.703-3.323-2.631-5.149-.908-1.838-1.812-3.667-2.709-5.486a314.52 314.52 0 0 1-2.509-5.334 131.953 131.953 0 0 1-2.014-4.743l4.258-2.459ZM559.439 170.967l2.194 3.801-5.973 3.449 9.24 16.004-4.458 2.574-9.24-16.004-5.973 3.448-2.195-3.801 16.405-9.471ZM576.945 179.493c-.319-.553-.723-.967-1.213-1.243-.5-.295-1.138-.41-1.913-.344-.774.067-1.72.321-2.837.762-1.117.442-2.456 1.114-4.019 2.016a138.276 138.276 0 0 0-2.604-5.699 239.097 239.097 0 0 0-2.655-5.326l10.717-6.187 2.062 3.572-7.145 4.125c.358.708.696 1.403 1.013 2.083.324.651.596 1.231.814 1.74 2.891-1.415 5.319-1.94 7.283-1.575 1.971.335 3.529 1.493 4.673 3.475.528.914.856 1.855.983 2.824a6.313 6.313 0 0 1-.286 2.87c-.318.946-.879 1.867-1.683 2.762-.784.885-1.834 1.707-3.148 2.466-.515.297-1.08.573-1.695.826-.586.262-1.178.49-1.778.684-.569.201-1.097.366-1.582.494-.485.128-.875.2-1.169.218l-1.258-3.961c.597-.065 1.347-.219 2.249-.46.891-.261 1.88-.704 2.966-1.331 1.314-.759 2.118-1.566 2.412-2.422.283-.874.22-1.664-.187-2.369ZM560.775 230.942c.111-.051.235-.11.374-.178l.5-.289c1.115-.643 1.777-1.4 1.986-2.27.218-.875.041-1.809-.531-2.799-.599-1.039-1.31-1.676-2.133-1.913-.822-.236-1.791-.033-2.905.611a8.827 8.827 0 0 0-.463.286 4.166 4.166 0 0 0-.441.293l3.613 6.259Zm4.63-6.865c.495.858.793 1.683.895 2.475a4.76 4.76 0 0 1-.227 2.246c-.244.7-.658 1.358-1.242 1.974-.584.617-1.314 1.178-2.191 1.684-.4.231-.877.482-1.433.752-.55.279-1.112.515-1.687.707l-5.569-9.645c.459-.393.957-.763 1.493-1.11.54-.363 1.01-.66 1.41-.891.848-.489 1.67-.837 2.466-1.042.805-.211 1.574-.255 2.306-.131a4.632 4.632 0 0 1 2.051.912c.635.484 1.211 1.174 1.728 2.069ZM567.247 216.269c1.486-.858 2.779-1.248 3.877-1.171 1.093.067 1.962.658 2.605 1.773.402.695.567 1.355.496 1.981-.067.61-.329 1.212-.786 1.806.343.132.718.297 1.124.495.401.187.807.397 1.22.629.418.216.836.457 1.256.723.415.256.812.515 1.193.778l-2.501 1.444c-.368-.22-.743-.441-1.126-.664a19.134 19.134 0 0 0-1.133-.642c-.372-.204-.733-.39-1.083-.556a10.578 10.578 0 0 0-1.017-.442l-1.101.636 2.088 3.615-2.229 1.287-5.635-9.76c.431-.376.892-.731 1.385-1.066.502-.341.957-.629 1.367-.866Zm1.226 1.826a7.832 7.832 0 0 0-.435.27l-.34.235 1.551 2.687.628-.363c.839-.484 1.378-.936 1.619-1.354.241-.419.216-.88-.076-1.385-.28-.486-.664-.722-1.151-.707-.483-.001-1.082.205-1.796.617ZM582.395 220.879a84.669 84.669 0 0 1-2.651-1.918 113.076 113.076 0 0 1-2.62-2.03 165.245 165.245 0 0 1-2.41-1.963 118.796 118.796 0 0 1-1.98-1.714l2.457-1.419c.521.461 1.083.962 1.687 1.503l1.825 1.576c.617.52 1.209 1.016 1.775 1.49.565.474 1.07.875 1.513 1.203a45.73 45.73 0 0 0-.299-1.904 79.895 79.895 0 0 0-.403-2.283 93.396 93.396 0 0 0-.452-2.367c-.157-.799-.305-1.54-.444-2.221l2.372-1.37c.144.756.304 1.616.48 2.581.176.965.346 1.985.509 3.06.163 1.074.312 2.169.448 3.284.136 1.116.248 2.201.336 3.255l-2.143 1.237Z"/></g><g clip-path="url(#r)"><path fill="#0364B9" d="m543.255-90.617-47.632 27.5c-7.891 4.557-10.595 14.648-6.039 22.54L513.646 1.1l76.211-44-24.063-41.677c-4.556-7.892-14.647-10.596-22.539-6.04Z"/><path fill="#0A559E" d="M495.623-63.117c-7.891 4.557-10.595 14.648-6.039 22.54l.24.415 64.751-52.378a16.435 16.435 0 0 0-11.32 1.923l-47.632 27.5ZM565.794-84.577a16.436 16.436 0 0 0-8.903-7.348l20.111 56.445 12.855-7.42-24.063-41.677Z"/><path fill="#71BD0E" d="m512.959-.09 76.21-44 4.125 7.144c4.557 7.892 1.853 17.983-6.039 22.54l-47.632 27.5c-7.891 4.556-17.983 1.852-22.539-6.04L512.959-.09Z"/><path fill="#fff" d="M512.135-41.9c.706.432 1.548.987 2.525 1.668a76.34 76.34 0 0 1 3.133 2.192c1.111.781 2.23 1.596 3.355 2.445l3.175 2.397-.488-3.948c-.173-1.399-.329-2.77-.469-4.111a201.946 201.946 0 0 1-.332-3.81 70.624 70.624 0 0 1-.153-3.036l4.058-2.343c.95 1.204 1.974 2.582 3.072 4.133a142.544 142.544 0 0 1 3.366 4.84 275.917 275.917 0 0 1 3.395 5.088 371.489 371.489 0 0 1 3.174 4.836l-4.344 2.508a595.434 595.434 0 0 0-3.859-6.155 195.003 195.003 0 0 0-4.389-6.611c.119.998.25 2.104.392 3.318l.425 3.64c.161 1.203.31 2.362.446 3.478.124 1.096.235 2.036.331 2.819l-3.115 1.798a310.04 310.04 0 0 0-2.275-1.697 730.295 730.295 0 0 0-2.817-2.107c-.961-.741-1.932-1.476-2.912-2.206s-1.873-1.396-2.678-1.998a196.56 196.56 0 0 0 3.532 7.107 578.976 578.976 0 0 0 3.401 6.419l-4.344 2.508c-.826-1.606-1.703-3.323-2.63-5.15l-2.71-5.485a308.097 308.097 0 0 1-2.508-5.334 131.26 131.26 0 0 1-2.015-4.744l4.258-2.458ZM545.507-61.166l2.194 3.8-5.973 3.45 9.24 16.003-4.458 2.574-9.24-16.004-5.973 3.449-2.194-3.801 16.404-9.471ZM563.014-52.64c-.319-.553-.724-.967-1.213-1.243-.501-.295-1.139-.41-1.913-.344-.775.066-1.721.32-2.838.762-1.116.441-2.456 1.113-4.018 2.015a141.09 141.09 0 0 0-2.604-5.698 237.812 237.812 0 0 0-2.656-5.326l10.717-6.187 2.063 3.572-7.145 4.125c.358.708.695 1.402 1.012 2.083.325.65.596 1.23.814 1.74 2.892-1.415 5.319-1.94 7.283-1.576 1.972.336 3.529 1.494 4.673 3.475.528.915.856 1.856.983 2.824a6.316 6.316 0 0 1-.286 2.87c-.318.947-.878 1.867-1.682 2.763-.785.885-1.834 1.707-3.149 2.466-.515.297-1.08.572-1.695.826-.586.262-1.178.49-1.778.683-.569.202-1.096.367-1.581.495-.486.127-.876.2-1.17.218l-1.258-3.961c.597-.066 1.347-.219 2.249-.46.891-.26 1.88-.704 2.966-1.331 1.315-.76 2.119-1.567 2.412-2.422.283-.875.221-1.664-.186-2.37ZM549.489-.29l-5.717-9.902 6.63-3.828 1.081 1.872-4.401 2.54 1.196 2.073 3.915-2.26 1.081 1.871-3.915 2.26 2.359 4.087-2.229 1.287ZM551.977-14.93l2.229-1.287 5.717 9.903-2.229 1.287-5.717-9.903ZM568.86-11.474a57.602 57.602 0 0 0-4.011-2.161 39.45 39.45 0 0 0-4.178-1.76l3.745 6.487-2.2 1.27-5.718-9.902 1.815-1.048c.496.133 1.066.318 1.711.556.645.237 1.315.505 2.008.803.697.283 1.403.593 2.118.93.709.327 1.384.649 2.024.965l-3.374-5.844 2.215-1.279 5.717 9.903-1.872 1.08Z"/></g><g clip-path="url(#s)"><path fill="#0364B9" d="m595.255-.55-47.632 27.5c-7.891 4.556-10.595 14.647-6.039 22.54l24.062 41.677 76.211-44-24.063-41.678c-4.556-7.892-14.647-10.596-22.539-6.04Z"/><path fill="#0A559E" d="M547.623 26.95c-7.891 4.556-10.595 14.647-6.039 22.54l.24.414 64.751-52.377a16.435 16.435 0 0 0-11.32 1.923l-47.632 27.5ZM617.794 5.49a16.436 16.436 0 0 0-8.903-7.348l20.111 56.445 12.855-7.42-24.063-41.678Z"/><path fill="#2A3052" d="m564.959 89.976 76.21-44 4.125 7.145c4.557 7.891 1.853 17.983-6.039 22.539l-47.632 27.5c-7.891 4.556-17.983 1.852-22.539-6.04l-4.125-7.144Z"/><path fill="#fff" d="M564.135 48.167c.706.431 1.548.987 2.525 1.667a76.34 76.34 0 0 1 3.133 2.192c1.111.781 2.23 1.596 3.355 2.446l3.175 2.396-.488-3.947c-.173-1.4-.329-2.77-.469-4.112a201.946 201.946 0 0 1-.332-3.81 70.624 70.624 0 0 1-.153-3.036l4.058-2.343c.95 1.205 1.974 2.583 3.072 4.133a142.544 142.544 0 0 1 3.366 4.84 275.917 275.917 0 0 1 3.395 5.089 371.489 371.489 0 0 1 3.174 4.836l-4.344 2.508a595.434 595.434 0 0 0-3.859-6.155 195.003 195.003 0 0 0-4.389-6.612c.119.998.25 2.104.392 3.318l.425 3.641c.161 1.203.31 2.362.446 3.477.124 1.097.235 2.036.331 2.819l-3.115 1.798a310.04 310.04 0 0 0-2.275-1.696 730.295 730.295 0 0 0-2.817-2.108c-.961-.74-1.932-1.476-2.912-2.206s-1.873-1.395-2.678-1.997a196.56 196.56 0 0 0 3.532 7.106 578.976 578.976 0 0 0 3.401 6.42l-4.344 2.507c-.826-1.606-1.703-3.322-2.63-5.15-.909-1.837-1.812-3.666-2.71-5.485a308.097 308.097 0 0 1-2.508-5.334 131.26 131.26 0 0 1-2.015-4.743l4.258-2.459ZM597.507 28.9l2.194 3.801-5.973 3.449 9.24 16.004-4.458 2.574-9.24-16.004-5.973 3.448-2.194-3.8 16.404-9.472ZM615.014 37.426c-.319-.552-.724-.967-1.213-1.243-.501-.295-1.139-.41-1.913-.343-.775.066-1.721.32-2.838.761-1.116.442-2.456 1.114-4.018 2.016a141.154 141.154 0 0 0-2.604-5.699 237.581 237.581 0 0 0-2.656-5.325l10.717-6.188 2.063 3.572-7.145 4.125c.358.708.695 1.403 1.012 2.083.325.651.596 1.231.814 1.74 2.892-1.415 5.319-1.94 7.283-1.575 1.972.335 3.529 1.493 4.673 3.475.528.914.856 1.856.983 2.824a6.316 6.316 0 0 1-.286 2.87c-.318.946-.878 1.867-1.682 2.763-.785.884-1.834 1.706-3.149 2.465-.515.297-1.08.573-1.695.827a17.62 17.62 0 0 1-1.778.683c-.569.202-1.096.366-1.581.494-.486.128-.876.2-1.17.218l-1.258-3.96c.597-.066 1.347-.22 2.249-.46.891-.261 1.88-.705 2.966-1.332 1.315-.76 2.119-1.566 2.412-2.422.283-.874.221-1.664-.186-2.369ZM598.844 88.875c.11-.051.235-.11.373-.178l.501-.288c1.114-.644 1.776-1.4 1.985-2.27.218-.876.042-1.81-.53-2.8-.6-1.039-1.311-1.676-2.133-1.912-.823-.237-1.791-.033-2.906.61a9.278 9.278 0 0 0-.463.287 4.002 4.002 0 0 0-.441.292l3.614 6.259Zm4.629-6.865c.495.858.794 1.683.895 2.475a4.76 4.76 0 0 1-.227 2.246c-.244.7-.658 1.358-1.242 1.974-.584.617-1.314 1.178-2.19 1.684-.4.231-.878.482-1.434.752-.55.28-1.112.515-1.687.707l-5.569-9.645c.46-.392.957-.763 1.493-1.11.541-.363 1.011-.66 1.411-.89.848-.49 1.669-.837 2.465-1.043.806-.21 1.574-.254 2.306-.13a4.62 4.62 0 0 1 2.051.91c.635.485 1.211 1.175 1.728 2.07ZM605.315 74.202c1.487-.858 2.779-1.248 3.878-1.171 1.093.067 1.961.658 2.605 1.773.401.695.566 1.355.496 1.98-.067.61-.329 1.213-.786 1.807a14.6 14.6 0 0 1 1.123.495c.401.188.808.397 1.221.629.417.216.835.457 1.256.723.414.256.812.515 1.192.778l-2.501 1.444c-.368-.22-.743-.44-1.126-.664a18.815 18.815 0 0 0-1.133-.642c-.372-.204-.733-.39-1.083-.556a10.31 10.31 0 0 0-1.017-.442l-1.1.636 2.087 3.615-2.229 1.287-5.635-9.76c.431-.376.893-.73 1.385-1.066.502-.34.958-.63 1.367-.866Zm1.226 1.826a6.926 6.926 0 0 0-.434.27l-.341.235 1.551 2.687.629-.363c.838-.484 1.378-.936 1.619-1.354.241-.419.215-.88-.076-1.385-.281-.486-.664-.722-1.151-.707-.483 0-1.082.205-1.797.617ZM620.463 78.813a86.148 86.148 0 0 1-2.65-1.919 111.33 111.33 0 0 1-2.621-2.03 158.091 158.091 0 0 1-2.409-1.963 125.336 125.336 0 0 1-1.981-1.714l2.458-1.419c.52.462 1.083.963 1.687 1.503l1.824 1.576 1.775 1.49c.566.474 1.07.875 1.514 1.203a47.755 47.755 0 0 0-.299-1.904 82.92 82.92 0 0 0-.403-2.282 98.117 98.117 0 0 0-.453-2.368c-.156-.8-.304-1.54-.444-2.221l2.372-1.37c.144.756.304 1.616.48 2.581a113.376 113.376 0 0 1 .958 6.344c.136 1.116.248 2.2.336 3.255l-2.144 1.238Z"/></g><g clip-path="url(#t)"><path fill="#0364B9" d="m647.255 89.517-47.632 27.5c-7.891 4.556-10.595 14.647-6.039 22.539l24.062 41.677 76.211-44-24.063-41.677c-4.556-7.892-14.647-10.596-22.539-6.04Z"/><path fill="#0A559E" d="M599.623 117.017c-7.891 4.556-10.595 14.647-6.039 22.539l.24.415 64.751-52.377a16.435 16.435 0 0 0-11.32 1.923l-47.632 27.5ZM669.794 95.556a16.436 16.436 0 0 0-8.903-7.347l20.111 56.445 12.855-7.421-24.063-41.677Z"/><path fill="#71BD0E" d="m616.959 180.043 76.21-44 4.125 7.144c4.557 7.892 1.853 17.983-6.039 22.54l-47.632 27.5c-7.891 4.556-17.983 1.852-22.539-6.04l-4.125-7.144Z"/><path fill="#fff" d="M616.135 138.234a51.76 51.76 0 0 1 2.525 1.667c.985.651 2.03 1.381 3.133 2.192 1.111.781 2.23 1.596 3.355 2.445l3.175 2.397c-.153-1.233-.316-2.548-.488-3.948a216.748 216.748 0 0 1-.469-4.111 202.362 202.362 0 0 1-.332-3.809 70.661 70.661 0 0 1-.153-3.037l4.058-2.343c.95 1.205 1.974 2.582 3.072 4.133a142.912 142.912 0 0 1 3.366 4.839 275.994 275.994 0 0 1 3.395 5.09 360.98 360.98 0 0 1 3.174 4.836l-4.344 2.508a596.193 596.193 0 0 0-3.859-6.156 194.886 194.886 0 0 0-4.389-6.611c.119.998.25 2.104.392 3.318l.425 3.641c.161 1.203.31 2.362.446 3.477.124 1.097.235 2.036.331 2.819l-3.115 1.798c-.629-.474-1.388-1.04-2.275-1.696a699.777 699.777 0 0 0-2.817-2.108 219.789 219.789 0 0 0-2.912-2.206c-.98-.729-1.873-1.395-2.678-1.997a196.618 196.618 0 0 0 3.532 7.106 577.895 577.895 0 0 0 3.401 6.419l-4.344 2.508a1099.27 1099.27 0 0 1-2.63-5.149l-2.71-5.486a306.712 306.712 0 0 1-2.508-5.334 132.104 132.104 0 0 1-2.015-4.743l4.258-2.459ZM649.507 118.967l2.194 3.801-5.973 3.449 9.24 16.004-4.458 2.574-9.24-16.004-5.973 3.448-2.194-3.801 16.404-9.471ZM667.014 127.493c-.319-.553-.724-.967-1.213-1.243-.501-.295-1.139-.41-1.913-.344-.775.067-1.721.321-2.838.762-1.116.442-2.456 1.114-4.018 2.016a140.985 140.985 0 0 0-2.604-5.699 238.938 238.938 0 0 0-2.656-5.326l10.717-6.187 2.063 3.572-7.145 4.125c.358.708.695 1.403 1.012 2.083.325.651.596 1.231.814 1.74 2.892-1.415 5.319-1.94 7.283-1.575 1.972.335 3.529 1.493 4.673 3.475.528.914.856 1.855.983 2.824a6.313 6.313 0 0 1-.286 2.87c-.318.946-.878 1.867-1.682 2.762-.785.885-1.834 1.707-3.149 2.466-.515.297-1.08.573-1.695.826-.586.262-1.178.49-1.778.684-.569.201-1.096.366-1.581.494-.486.128-.876.2-1.17.218l-1.258-3.961c.597-.065 1.347-.219 2.249-.46.891-.261 1.88-.704 2.966-1.331 1.315-.759 2.119-1.566 2.412-2.422.283-.874.221-1.664-.186-2.369ZM653.489 179.844l-5.717-9.903 6.63-3.828 1.081 1.872-4.401 2.541 1.196 2.072 3.915-2.261 1.081 1.872-3.915 2.261 2.359 4.087-2.229 1.287ZM655.977 165.204l2.229-1.287 5.717 9.902-2.229 1.287-5.717-9.902ZM672.86 168.66a57.647 57.647 0 0 0-4.011-2.162 39.43 39.43 0 0 0-4.178-1.76l3.745 6.487-2.2 1.271-5.718-9.903 1.815-1.047c.496.132 1.066.318 1.711.555.645.237 1.315.505 2.008.803.697.284 1.403.594 2.118.93a84.75 84.75 0 0 1 2.024.965l-3.374-5.844 2.215-1.279 5.717 9.903-1.872 1.081Z"/></g></g><defs><clipPath id="a"><path fill="#fff" d="M0 0h606c8.837 0 16 7.163 16 16v148c0 8.837-7.163 16-16 16H0V0Z"/></clipPath><clipPath id="c"><path fill="#fff" d="M-73 25 3.21-19l44 76.21-76.21 44z"/></clipPath><clipPath id="d"><path fill="#fff" d="m-21 115.066 76.21-44 44 76.21-76.21 44z"/></clipPath><clipPath id="e"><path fill="#fff" d="m31 205.133 76.21-44 44 76.21-76.21 44z"/></clipPath><clipPath id="f"><path fill="#fff" d="m17.066-27 76.21-44 44 76.21-76.21 44z"/></clipPath><clipPath id="g"><path fill="#fff" d="m69.066 63.066 76.21-44 44 76.21-76.21 44z"/></clipPath><clipPath id="h"><path fill="#fff" d="m121.066 153.133 76.21-44 44 76.21-76.21 44z"/></clipPath><clipPath id="i"><path fill="#fff" d="m159.133 11.066 76.21-44 44 76.21-76.21 44z"/></clipPath><clipPath id="j"><path fill="#fff" d="m211.133 101.133 76.21-44 44 76.21-76.21 44z"/></clipPath><clipPath id="k"><path fill="#fff" d="m263.133 191.2 76.21-44 44 76.21-76.21 44z"/></clipPath><clipPath id="l"><path fill="#fff" d="m249.199-40.934 76.21-44 44 76.21-76.21 44z"/></clipPath><clipPath id="m"><path fill="#fff" d="m301.199 49.133 76.21-44 44 76.21-76.21 44z"/></clipPath><clipPath id="n"><path fill="#fff" d="m353.199 139.2 76.21-44 44 76.21-76.21 44z"/></clipPath><clipPath id="o"><path fill="#fff" d="m391.266-2.867 76.21-44 44 76.21-76.21 44z"/></clipPath><clipPath id="p"><path fill="#fff" d="m443.266 87.2 76.21-44 44 76.21-76.21 44z"/></clipPath><clipPath id="q"><path fill="#fff" d="m495.266 177.267 76.21-44 44 76.21-76.21 44z"/></clipPath><clipPath id="r"><path fill="#fff" d="m481.334-54.867 76.21-44 44 76.21-76.21 44z"/></clipPath><clipPath id="s"><path fill="#fff" d="m533.334 35.2 76.21-44 44 76.21-76.21 44z"/></clipPath><clipPath id="t"><path fill="#fff" d="m585.334 125.267 76.21-44 44 76.21-76.21 44z"/></clipPath><linearGradient id="b" x1="622" x2="0" y1="90" y2="90" gradientUnits="userSpaceOnUse"><stop stop-color="#fff"/><stop offset=".646" stop-color="#fff" stop-opacity=".651"/><stop offset="1" stop-color="#fff" stop-opacity="0"/></linearGradient></defs></svg>