<svg width="299" height="197" xmlns="http://www.w3.org/2000/svg"><g fill="none" fill-rule="evenodd"><path fill="#F1F2F2" d="M0 0h299v197H0z"/><path d="M1.987 1.98v193.04h295.026V1.98H1.987zM299 0v197H0V0h299z" fill="#C2C2C2" fill-rule="nonzero"/><path d="M4.887 56.168v-1.206h289.656v1.206H4.887zm0 40.33v-1.206h289.656v1.205H4.887zm0 40.329v-1.206h289.656v1.206H4.887zm0 40.292v-1.206h289.656v1.206H4.887zm34.38-141.7h1.206v158.864h-1.206V35.419zm36.665 0h1.206v158.864h-1.206V35.419zm36.627 0h1.206v158.864h-1.206V35.419zm36.665 0h1.206v158.864h-1.206V35.419zm36.628 0h1.206v158.864h-1.206V35.419zm36.627 0h1.206v158.864h-1.206V35.419zM4.887 116.643v-1.205h289.656v1.205H4.887z" fill="#DFDEDE" fill-rule="nonzero"/><path d="M4.887 72.595v-1.127h7.469v1.127H4.887zm14.938 0v-1.127h7.468v1.127h-7.468zm14.937 0v-1.127h7.469v1.127h-7.469zm14.938 0v-1.127h7.468v1.127H49.7zm14.937 0v-1.127h7.469v1.127h-7.469zm14.938 0v-1.127h7.468v1.127h-7.468zm14.937 0v-1.127h7.469v1.127h-7.469zm14.938 0v-1.127h7.468v1.127h-7.468zm14.937 0v-1.127h7.469v1.127h-7.469zm14.938 0v-1.127h7.468v1.127h-7.468zm14.937 0v-1.127h7.469v1.127h-7.469zm14.938 0v-1.127h7.468v1.127H169.2zm14.937 0v-1.127h7.469v1.127h-7.469zm14.938 0v-1.127h7.468v1.127h-7.468zm14.937 0v-1.127h7.469v1.127h-7.469zm14.938 0v-1.127h7.468v1.127h-7.468zm14.937 0v-1.127h7.469v1.127h-7.469zm14.938 0v-1.127h7.468v1.127h-7.468zm14.937 0v-1.127h7.469v1.127h-7.469zm14.938 0v-1.127h5.843v1.127H288.7z" fill="#15212D" fill-rule="nonzero"/><path fill="#2A3052" fill-rule="nonzero" d="M240.457 35.42h1.206v158.863h-1.206z"/><path d="M4.887 164.368v-1.128h7.469v1.128H4.887zm14.938 0v-1.128h7.468v1.128h-7.468zm14.937 0v-1.128h7.469v1.128h-7.469zm14.938 0v-1.128h7.468v1.128H49.7zm14.937 0v-1.128h7.469v1.128h-7.469zm14.938 0v-1.128h7.468v1.128h-7.468zm14.937 0v-1.128h7.469v1.128h-7.469zm14.938 0v-1.128h7.468v1.128h-7.468zm14.937 0v-1.128h7.469v1.128h-7.469zm14.938 0v-1.128h7.468v1.128h-7.468zm14.937 0v-1.128h7.469v1.128h-7.469zm14.938 0v-1.128h7.468v1.128H169.2zm14.937 0v-1.128h7.469v1.128h-7.469zm14.938 0v-1.128h7.468v1.128h-7.468zm14.937 0v-1.128h7.469v1.128h-7.469zm14.938 0v-1.128h7.468v1.128h-7.468zm14.937 0v-1.128h7.469v1.128h-7.469zm14.938 0v-1.128h7.468v1.128h-7.468zm14.937 0v-1.128h7.469v1.128h-7.469zm14.938 0v-1.128h5.843v1.128H288.7z" fill="#15212D" fill-rule="nonzero"/><path fill="#C2C2C2" fill-rule="nonzero" d="M2.794 35.436v-2.412h293.842v2.412z"/><path d="M56.641 102.229l-34.723 15.464a1.809 1.809 0 1 1-1.471-3.305l35.745-15.92a1.809 1.809 0 0 1 1.887.257l24.615 20.291 36.945-77.79c.687-1.448 2.78-1.352 3.332.152l43.278 117.852 26.908-57.045c.138-.293.352-.543.62-.725l46.03-31.263a1.809 1.809 0 1 1 2.034 2.993l-45.623 30.986-28.541 60.507c-.685 1.452-2.781 1.359-3.335-.148L121.06 46.668l-36.092 75.995a1.809 1.809 0 0 1-2.784.62L56.64 102.23z" fill="#2A3052" fill-rule="nonzero"/><ellipse cx="8.335" cy="9.259" rx="8.11" ry="8.4" opacity=".6" transform="translate(232.725 61.472)" fill="#FFF"/><path d="M241.06 80.337c-5.155 0-9.317-4.31-9.317-9.606 0-5.297 4.162-9.607 9.317-9.607s9.316 4.31 9.316 9.607c0 5.296-4.161 9.606-9.316 9.606zm0-2.412c3.803 0 6.904-3.212 6.904-7.194 0-3.983-3.1-7.195-6.904-7.195s-6.905 3.212-6.905 7.195c0 3.982 3.101 7.194 6.905 7.194z" fill="#E88024" fill-rule="nonzero"/><ellipse cx="8.11" cy="9.259" rx="8.11" ry="8.4" opacity=".6" transform="translate(157.975 154.396)" fill="#FFF"/><path d="M166.085 173.261c-5.155 0-9.316-4.31-9.316-9.606s4.161-9.606 9.316-9.606c5.155 0 9.317 4.31 9.317 9.606s-4.162 9.606-9.317 9.606zm0-2.412c3.804 0 6.905-3.211 6.905-7.194s-3.101-7.194-6.905-7.194c-3.803 0-6.904 3.211-6.904 7.194s3.1 7.194 6.904 7.194z" fill="#E88024" fill-rule="nonzero"/><g fill="#000"><path d="M20.709 17.406h-3.75v4.059H15v-9.768h6.393v1.51h-4.434v2.69h3.75v1.509zm4.79 4.2c-1.082 0-1.928-.333-2.536-.997-.608-.664-.912-1.52-.912-2.566v-.268c0-1.087.295-1.977.885-2.67.59-.693 1.402-1.037 2.435-1.033.975 0 1.723.298 2.244.896.521.597.782 1.4.782 2.411v1.013H24.07l-.02.04c.031.497.182.9.453 1.208.27.308.672.463 1.204.463.438 0 .81-.045 1.117-.134.306-.09.623-.226.949-.41l.53 1.208c-.29.237-.684.436-1.18.597a5.236 5.236 0 0 1-1.624.241v.001zm-.128-6.025c-.393 0-.696.136-.909.406-.212.27-.34.63-.385 1.077l.013.033h2.388v-.147c0-.425-.087-.76-.261-1.003-.175-.244-.456-.366-.846-.366zm7.198 4.522c.34 0 .611-.102.812-.305.201-.204.302-.476.302-.816h1.784l.014.04c.018.734-.255 1.348-.819 1.842-.563.494-1.26.741-2.093.741-1.073 0-1.902-.343-2.488-1.03-.586-.686-.88-1.563-.88-2.632v-.202c0-1.064.293-1.942.876-2.633.584-.69 1.41-1.036 2.48-1.036.885 0 1.598.255 2.139.765.541.51.803 1.18.785 2.012l-.014.04h-1.784c0-.375-.1-.687-.298-.935-.2-.249-.476-.373-.829-.373-.505 0-.864.203-1.077.607-.212.405-.318.923-.318 1.553v.202c0 .644.106 1.165.318 1.563.213.398.576.597 1.09.597zm5.964-4.978c.228-.33.508-.589.839-.775a2.21 2.21 0 0 1 1.1-.278c.756 0 1.35.252 1.781.755.432.503.647 1.28.647 2.33v4.308h-1.957v-4.32c0-.564-.091-.963-.272-1.198-.181-.235-.453-.352-.815-.352-.3 0-.56.048-.782.144-.212.09-.398.231-.54.413v5.313h-1.959V11h1.96v4.125h-.002zm10.123 6.34a4.12 4.12 0 0 1-.184-.524 3.64 3.64 0 0 1-.111-.563c-.197.349-.47.65-.798.879-.331.232-.725.348-1.181.348-.76 0-1.346-.195-1.758-.587-.411-.39-.617-.924-.617-1.6 0-.71.274-1.262.822-1.653.548-.391 1.347-.587 2.398-.587h1.1v-.577c0-.349-.091-.62-.275-.812-.183-.192-.456-.288-.818-.288-.318 0-.562.077-.735.231-.172.155-.258.366-.258.634h-1.885l-.013-.04c-.032-.613.236-1.142.801-1.587.566-.445 1.305-.667 2.217-.667.872 0 1.578.22 2.117.657.539.439.808 1.067.808 1.885v3c0 .339.026.659.077.958.052.3.133.597.245.893h-1.952zm-1.791-1.309c.34 0 .644-.085.912-.254.269-.17.452-.367.55-.59v-1.027h-1.1c-.416 0-.73.103-.942.308a1.014 1.014 0 0 0-.319.758c0 .246.08.442.238.587.159.146.38.218.661.218zm8.707-4.266l-.717-.02c-.291 0-.53.06-.718.18a1.166 1.166 0 0 0-.43.51v4.905h-1.952v-7.259h1.818l.088 1.073c.17-.38.39-.676.66-.888a1.47 1.47 0 0 1 .936-.319c.099 0 .19.008.272.023.083.016.166.035.251.057l-.208 1.738zm.839 1.127h3.368v1.241h-3.368v-1.241z" fill-rule="nonzero"/><text transform="translate(61 9)" font-family="Roboto-Bold, Roboto" font-size="14" font-weight="bold"><tspan x="0" y="13">Baixo</tspan></text></g><path d="M253.295 55.123h-3.203v3.39h-1.327v-7.947h5.086v1.064h-3.76v2.428h3.204v1.065zm3.912 3.504c-.862 0-1.536-.272-2.021-.816-.486-.544-.729-1.249-.729-2.115v-.218c0-.866.243-1.58.729-2.142.485-.562 1.112-.841 1.88-.837.793 0 1.393.244 1.8.734.408.489.612 1.143.612 1.961v.715h-3.651l-.011.027c.014.484.142.877.382 1.18.24.301.602.452 1.086.452.36 0 .672-.044.936-.13a2.73 2.73 0 0 0 .734-.377l.43.867c-.225.197-.523.362-.894.497a3.75 3.75 0 0 1-1.283.202zm-.141-5.064c-.346 0-.623.124-.83.373-.207.25-.336.574-.387.975l.01.027h2.309v-.104c0-.378-.088-.685-.265-.92-.176-.234-.455-.351-.837-.351zm5.893 4.005c.302 0 .558-.094.767-.284a.929.929 0 0 0 .314-.72h1.2l.011.033c.015.553-.205 1.03-.658 1.43-.452.4-.997.6-1.634.6-.851 0-1.508-.281-1.97-.843-.462-.562-.693-1.27-.693-2.126v-.19c0-.852.231-1.56.693-2.124.462-.563 1.117-.845 1.965-.845.687 0 1.246.206 1.675.619.43.413.637.938.622 1.574l-.01.033h-1.201c0-.324-.1-.598-.3-.824a1 1 0 0 0-.786-.338c-.473 0-.813.183-1.02.548-.208.366-.312.818-.312 1.356v.191c0 .55.103 1.005.308 1.367.206.362.549.543 1.03.543h-.001zm4.715-4.196c.196-.277.436-.491.717-.644.282-.153.594-.23.936-.23.626 0 1.114.198 1.466.593.35.394.526 1.003.526 1.825v3.596h-1.326v-3.606c0-.462-.09-.798-.27-1.007-.18-.209-.448-.313-.805-.313-.284 0-.53.05-.737.15-.207.1-.376.239-.507.417v4.36h-1.326V50h1.326v3.373-.001zm4.775 2.133c0-.88.24-1.601.723-2.163.482-.562 1.141-.843 1.978-.843.848 0 1.512.28 1.994.843.483.562.724 1.283.724 2.163v.115c0 .888-.241 1.61-.724 2.17-.482.558-1.143.837-1.983.837-.844 0-1.507-.28-1.99-.84-.481-.56-.722-1.283-.722-2.167v-.115zm1.326.115c0 .578.113 1.048.338 1.408.226.36.575.54 1.048.54.462 0 .808-.18 1.04-.543.23-.362.346-.83.346-1.405v-.115c0-.564-.116-1.028-.347-1.394-.23-.365-.58-.548-1.05-.548-.462 0-.807.183-1.034.548-.228.366-.341.83-.341 1.394v.115zM152.143 185.686v-8.36h2.74c.922 0 1.643.19 2.164.571.52.381.78.95.78 1.709 0 .367-.104.698-.312.993-.22.303-.521.536-.87.672.536.088.948.32 1.237.694a2.1 2.1 0 0 1 .434 1.321c0 .785-.257 1.38-.77 1.789-.513.407-1.22.611-2.124.611h-3.279zm1.396-3.801v2.687h1.883c.482 0 .854-.11 1.114-.33.26-.22.39-.539.39-.956 0-.421-.128-.756-.384-1.005-.257-.249-.617-.38-1.08-.396h-1.923zm0-1.04h1.492c.433 0 .775-.102 1.025-.306.251-.205.376-.495.376-.87 0-.414-.132-.72-.396-.922-.264-.2-.649-.301-1.154-.301h-1.343v2.4-.001zm9.692 4.841a5.186 5.186 0 0 1-.124-.46 3.284 3.284 0 0 1-.066-.447c-.187.29-.438.535-.752.732-.314.197-.679.3-1.05.296-.648 0-1.144-.167-1.49-.5-.347-.333-.52-.79-.52-1.372 0-.601.237-1.07.712-1.404.474-.335 1.142-.502 2.004-.502h1.085v-.546c0-.325-.095-.58-.284-.764-.19-.183-.465-.275-.824-.275-.318 0-.57.075-.758.227a.72.72 0 0 0-.282.588l-1.343.006-.006-.035c-.027-.49.192-.924.657-1.303.466-.379 1.071-.568 1.818-.568.723 0 1.307.183 1.751.55.444.368.666.897.666 1.586v2.761c0 .257.017.503.052.738.034.236.09.466.166.692h-1.412zm-1.706-.999c.349 0 .664-.088.945-.264.281-.176.468-.377.56-.603v-.919h-1.108c-.406 0-.724.1-.953.302-.23.2-.345.437-.345.709 0 .237.078.426.233.565.155.14.378.21.668.21zm5.846 1h-1.396v-6.214h1.396v6.214zm0-7.735h-1.396v-1.223h1.396v1.223zm3.79 3.652l1.148-2.13h1.602l-1.953 3.071 2.01 3.141h-1.585l-1.2-2.182-1.2 2.182h-1.596l2.01-3.14-1.953-3.073h1.585l1.131 2.13.001.001zm3.358.918c0-.926.254-1.685.761-2.276.507-.592 1.2-.887 2.081-.887.892 0 1.592.295 2.099.887.507.591.76 1.35.76 2.276v.12c0 .935-.253 1.696-.76 2.283-.507.588-1.203.882-2.087.882-.888 0-1.586-.295-2.093-.885-.507-.59-.76-1.349-.76-2.28v-.12h-.001zm1.395.12c0 .61.12 1.103.356 1.482.238.38.605.569 1.103.569.486 0 .85-.19 1.094-.572.243-.38.364-.873.364-1.478v-.12c0-.594-.121-1.083-.364-1.468-.243-.384-.612-.577-1.106-.577-.486 0-.848.193-1.088.577-.239.385-.359.874-.359 1.467v.12zM9.544 132.47H8v-9.251h1.544v9.251zm3.31-6.875l.09.991c.224-.351.506-.625.847-.822.351-.2.75-.302 1.154-.296.715 0 1.274.22 1.674.66.4.441.6 1.13.6 2.066v4.276h-1.544v-4.263c0-.534-.103-.913-.311-1.138-.208-.224-.521-.336-.94-.336-.33 0-.617.062-.858.187a1.502 1.502 0 0 0-.578.518v5.032h-1.544v-6.875h1.41zm7.612 6.875h-1.544v-6.875h1.544v6.875zm-.28-9.67h1.748l.013.038-1.735 1.652h-1.239l1.214-1.69h-.001zm4.861 8.57c.352 0 .65-.11.893-.33.244-.22.365-.5.365-.838h1.398l.013.038c.017.644-.238 1.199-.766 1.665-.527.466-1.161.699-1.903.699-.99 0-1.756-.328-2.293-.982-.538-.655-.807-1.48-.807-2.475v-.222c0-.992.269-1.815.807-2.472.537-.657 1.3-.985 2.287-.985.8 0 1.45.24 1.95.721s.742 1.092.725 1.833l-.013.039h-1.398c0-.377-.116-.697-.35-.96-.232-.263-.537-.394-.914-.394-.55 0-.947.213-1.188.639-.242.425-.362.952-.362 1.579v.222c0 .64.12 1.17.359 1.592.239.421.638.632 1.197.632v-.001zm5.61 1.1h-1.543v-6.875h1.544v6.875h-.001zm0-8.559h-1.543v-1.353h1.544v1.353h-.001zm1.443 5.058c0-1.025.28-1.865.842-2.52.561-.654 1.329-.98 2.303-.98.987 0 1.761.326 2.323.98.56.655.841 1.495.841 2.52v.134c0 1.033-.28 1.875-.841 2.525-.562.65-1.332.976-2.31.976-.983 0-1.755-.327-2.316-.979-.561-.652-.842-1.493-.842-2.522v-.134zm1.544.134c0 .673.131 1.22.394 1.639.263.42.67.629 1.22.629.538 0 .941-.21 1.21-.632.27-.422.404-.967.404-1.636v-.134c0-.656-.135-1.198-.404-1.623-.269-.426-.676-.639-1.223-.639-.538 0-.94.213-1.204.639-.265.425-.397.967-.397 1.623v.134z" fill="#2A3052" fill-rule="nonzero"/></g></svg>