<svg width="299" height="197" xmlns="http://www.w3.org/2000/svg"><g fill="none"><path fill="#F1F1F2" d="M0 0h299v197H0z"/><path d="M1.987 1.98v193.04h295.026V1.98H1.987zM299 0v197H0V0h299z" fill="#C2C2C2"/><path d="M5.007 55.161v-1.207h290v1.207h-290zm0 20.298v-1.207h290v1.207h-290zm0 60.927v-1.207h290v1.207h-290zm0 20.297v-1.207h290v1.207h-290zm0 20.3v-1.208h290v1.207h-290zM39.437 34.26h1.21v160h-1.21v-160zm36.7 0h1.209v160h-1.21v-160zm36.698 0h1.21v160h-1.21v-160zm36.662 0h1.209v160h-1.21v-160zm36.698 0h1.21v160h-1.21v-160zm36.7 0h1.209v160h-1.21v-160zm36.698 0h1.209v160h-1.21v-160zM5.007 116.09v-1.207h290v1.207h-290z" fill="#DEDEDD"/><path fill="#293052" d="M3.607 97.132v-1.219h1.83v1.22zm5.486 0v-1.219h3.659v1.22H9.093zm7.317 0v-1.219h3.658v1.22H16.41zm7.317 0v-1.219h3.658v1.22h-3.658zm7.316 0v-1.219h3.659v1.22h-3.659zm7.317 0v-1.219h3.658v1.22H38.36zm7.317 0v-1.219h3.658v1.22h-3.658zm7.316 0v-1.219h3.659v1.22h-3.659zm7.317 0v-1.219h3.658v1.22H60.31zm7.316 0v-1.219h3.659v1.22h-3.659zm7.317 0v-1.219h3.658v1.22h-3.658zm7.317 0v-1.219h3.658v1.22H82.26zm7.316 0v-1.219h3.659v1.22h-3.659zm7.317 0v-1.219h3.658v1.22h-3.658zm7.317 0v-1.219h3.658v1.22h-3.658zm7.316 0v-1.219h3.659v1.22h-3.659zm7.317 0v-1.219h3.658v1.22h-3.658zm7.317 0v-1.219h3.658v1.22h-3.658zm7.316 0v-1.219h3.659v1.22h-3.659zm7.317 0v-1.219h3.658v1.22h-3.658zm7.316 0v-1.219h3.659v1.22h-3.659zm7.317 0v-1.219h3.658v1.22h-3.658zm7.317 0v-1.219h3.658v1.22h-3.658zm7.316 0v-1.219h3.659v1.22h-3.659zm7.317 0v-1.219h3.658v1.22h-3.658zm7.317 0v-1.219h3.658v1.22h-3.658zm7.316 0v-1.219h3.659v1.22h-3.659zm7.317 0v-1.219h3.658v1.22h-3.658zm7.317 0v-1.219h3.658v1.22h-3.658zm7.316 0v-1.219h3.658v1.22h-3.658zm7.317 0v-1.219h3.658v1.22h-3.658zm7.316 0v-1.219h3.659v1.22h-3.659zm7.317 0v-1.219h3.658v1.22h-3.658zm7.317 0v-1.219h3.658v1.22h-3.658zm7.316 0v-1.219h3.659v1.22h-3.659zm7.317 0v-1.219h3.658v1.22h-3.658zm7.317 0v-1.219h3.658v1.22h-3.658zm7.316 0v-1.219h3.659v1.22h-3.659zm7.317 0v-1.219h3.658v1.22h-3.658zm7.316 0v-1.219h3.659v1.22h-3.659zm7.049 0v-1.219h1.79v1.22z"/><path fill="#C2C2C2" d="M2 30v-2h296v2z"/><path d="M222.578 95.26a1.81 1.81 0 1 1 2.595 2.525l-31.968 32.869a1.81 1.81 0 0 1-2.149.335l-41.82-22.3-42.486 24.894a1.81 1.81 0 0 1-1.727.056l-29.91-15.004a1.81 1.81 0 0 1-.358-.237L37.758 87.076a1.81 1.81 0 1 1 2.339-2.763l36.833 31.183 28.838 14.467 42.512-24.91a1.81 1.81 0 0 1 1.767-.035l41.512 22.137 31.02-31.894z" fill="#293052"/><path d="M188.225 146.237h-35.282L147.38 138l-5.334 8.237h-35.283a4.716 4.716 0 0 0-3.365 1.413 4.882 4.882 0 0 0-1.398 3.42v25.02a4.882 4.882 0 0 0 1.398 3.42 4.716 4.716 0 0 0 3.365 1.414h81.462a4.725 4.725 0 0 0 3.442-1.374 4.87 4.87 0 0 0 1.435-3.46v-24.98a4.87 4.87 0 0 0-1.421-3.486 4.726 4.726 0 0 0-3.456-1.388v.001z" fill="#E88024"/><path d="M128.047 167.523c-.412.537-.982.943-1.711 1.22-.73.275-1.557.413-2.484.413-.954 0-1.797-.216-2.532-.648-.734-.432-1.3-1.051-1.699-1.856-.398-.804-.605-1.743-.621-2.816v-.89c0-1.72.411-3.062 1.234-4.028.823-.966 1.972-1.45 3.446-1.45 1.265 0 2.27.313 3.015.938.745.625 1.193 1.526 1.344 2.703h-1.937c-.22-1.37-1.013-2.054-2.383-2.054-.886 0-1.559.319-2.02.957-.46.638-.699 1.574-.715 2.808v.875c0 1.23.26 2.184.778 2.864.518.68 1.238 1.02 2.16 1.02 1.01 0 1.729-.23 2.156-.688v-2.227h-2.344v-1.5h4.313v4.36zm7.039 1.477c-.083-.161-.156-.424-.219-.79a2.955 2.955 0 0 1-2.219.946c-.849 0-1.541-.242-2.078-.726-.536-.485-.804-1.084-.804-1.797 0-.901.334-1.593 1.004-2.074.669-.482 1.626-.723 2.87-.723h1.165v-.555c0-.437-.123-.788-.368-1.05-.244-.264-.617-.395-1.117-.395-.432 0-.786.108-1.062.324a1.003 1.003 0 0 0-.414.824h-1.899c0-.463.154-.897.461-1.3.308-.404.726-.72 1.254-.95a4.404 4.404 0 0 1 1.77-.343c.99 0 1.778.248 2.367.746.588.497.89 1.196.906 2.097v3.813c0 .76.107 1.367.32 1.82V169h-1.937zM133 167.633a2.16 2.16 0 0 0 1.059-.274c.33-.182.579-.427.746-.734v-1.594h-1.024c-.703 0-1.232.123-1.586.367-.354.245-.53.592-.53 1.04 0 .364.12.654.362.87.243.217.567.325.973.325zm7.453-7.086l.055.976c.625-.755 1.445-1.132 2.46-1.132 1.761 0 2.657 1.007 2.688 3.023V169h-1.898v-5.477c0-.536-.116-.933-.348-1.191-.232-.258-.61-.387-1.137-.387-.765 0-1.335.347-1.71 1.04V169h-1.899v-8.453h1.79zm9.008.922c.62-.719 1.404-1.078 2.351-1.078 1.803 0 2.717 1.028 2.743 3.086V169h-1.899v-5.453c0-.583-.126-.996-.379-1.238-.252-.243-.623-.364-1.113-.364-.76 0-1.328.339-1.703 1.016V169h-1.899v-12h1.899v4.469zm6.656 3.226c0-.828.164-1.574.492-2.238.329-.664.79-1.174 1.383-1.531.594-.357 1.276-.535 2.047-.535 1.14 0 2.066.367 2.777 1.101.711.735 1.095 1.709 1.153 2.922l.008.445c0 .834-.16 1.578-.48 2.235a3.551 3.551 0 0 1-1.376 1.523c-.596.36-1.285.54-2.066.54-1.193 0-2.147-.398-2.864-1.192-.716-.794-1.074-1.853-1.074-3.176v-.094zm1.899.164c0 .87.18 1.551.539 2.043.36.493.86.739 1.5.739s1.139-.25 1.496-.75.535-1.232.535-2.196c0-.854-.184-1.53-.55-2.03-.368-.5-.867-.75-1.497-.75-.62 0-1.112.245-1.476.737-.365.493-.547 1.228-.547 2.207zm12.687 3.313c-.557.656-1.349.984-2.375.984-.917 0-1.61-.268-2.082-.804-.471-.537-.707-1.313-.707-2.329v-5.476h1.899V166c0 1.073.445 1.61 1.335 1.61.922 0 1.545-.331 1.868-.993v-6.07h1.898V169h-1.789l-.047-.828zm5.781-2.524h-1.632l-.18-8.023h2l-.188 8.023zm-1.867 2.454c0-.297.097-.543.29-.739.192-.195.455-.293.788-.293.334 0 .597.098.79.293.192.196.288.442.288.739a.99.99 0 0 1-.28.718c-.188.193-.454.29-.798.29-.343 0-.61-.097-.797-.29a.99.99 0 0 1-.28-.718z" fill="#FFF"/><ellipse fill="#FFF" opacity=".6" cx="223.875" cy="96.523" rx="8.192" ry="8.547"/><path d="M223.876 106.288c-5.21 0-9.412-4.383-9.412-9.765 0-5.383 4.202-9.766 9.412-9.766 5.21 0 9.411 4.383 9.411 9.766 0 5.382-4.202 9.765-9.411 9.765zm0-2.438c3.84 0 6.973-3.27 6.973-7.327 0-4.059-3.134-7.328-6.973-7.328-3.84 0-6.974 3.27-6.974 7.328s3.134 7.327 6.974 7.327zm23.051-16.337h28.767v19.179h-28.766z" fill="#E88024"/><path d="M260.72 90.722a5.67 5.67 0 0 1 1.257 0 6.6 6.6 0 0 1 1.144.387l-.42 1.779-.99-.27h-.991a2.16 2.16 0 0 0-1.753.85 3.44 3.44 0 0 0-.609 2.32 2.787 2.787 0 0 1 1.029-.658c.451-.166.93-.245 1.41-.231a3.03 3.03 0 0 1 2.514 1.16c.634.856.957 1.908.915 2.977a4.25 4.25 0 0 1-1.144 3.055 3.781 3.781 0 0 1-2.934 1.199 4.01 4.01 0 0 1-3.123-1.315 5.192 5.192 0 0 1-1.182-3.636v-2.396a5.267 5.267 0 0 1 1.371-3.868 4.612 4.612 0 0 1 3.506-1.353zm-.572 6.071a2.709 2.709 0 0 0-1.143.232 1.757 1.757 0 0 0-.723.58v.812a3.917 3.917 0 0 0 .533 2.244c.293.482.812.775 1.371.772a1.369 1.369 0 0 0 1.182-.696 2.998 2.998 0 0 0 .533-1.701c.03-.59-.13-1.174-.457-1.663a1.44 1.44 0 0 0-1.296-.619v.039z" fill="#FFF"/><path fill="#E88024" d="M250.433 97.102l-3.354 3.403-5.22-3.403 5.22-3.364z"/><path d="M15.952 21V10.336h3.281c.938 0 1.777.211 2.516.633a4.418 4.418 0 0 1 1.732 1.802c.415.78.623 1.664.623 2.655v.491c0 .991-.204 1.873-.612 2.644a4.38 4.38 0 0 1-1.724 1.794c-.743.425-1.58.64-2.513.645h-3.303zm2.197-8.884v7.119h1.062c.86 0 1.517-.28 1.97-.842.455-.562.687-1.365.696-2.41v-.564c0-1.084-.224-1.906-.673-2.465-.45-.559-1.106-.838-1.97-.838h-1.085zM27.795 21h-2.124v-7.925h2.124V21zm-2.248-9.976c0-.317.106-.578.318-.783.213-.205.502-.308.868-.308.362 0 .65.103.865.308.215.205.322.466.322.783 0 .323-.109.586-.326.791-.217.206-.504.308-.86.308-.357 0-.644-.102-.861-.308a1.04 1.04 0 0 1-.326-.79zM30.117 21v-6.372h-1.179v-1.553h1.18v-.674c0-.888.254-1.578.765-2.069.51-.49 1.224-.736 2.142-.736.293 0 .652.049 1.077.147l-.022 1.64a2.699 2.699 0 0 0-.645-.066c-.796 0-1.194.374-1.194 1.121v.637h1.575v1.553H32.24V21h-2.124zm8.445.146c-1.162 0-2.108-.356-2.838-1.069s-1.095-1.662-1.095-2.849v-.205c0-.796.154-1.508.461-2.135a3.386 3.386 0 0 1 1.308-1.45c.564-.34 1.207-.51 1.93-.51 1.084 0 1.937.343 2.56 1.026.622.684.933 1.653.933 2.908v.864h-5.046c.068.518.275.933.619 1.245.344.313.78.469 1.307.469.816 0 1.453-.295 1.912-.886l1.04 1.164c-.318.45-.747.8-1.29 1.051a4.23 4.23 0 0 1-1.801.377zm-.242-6.503c-.42 0-.76.141-1.021.424-.262.284-.429.689-.502 1.216h2.944v-.168c-.01-.469-.137-.832-.38-1.088-.245-.256-.591-.384-1.04-.384zm9.156.417a5.75 5.75 0 0 0-.762-.059c-.8 0-1.326.271-1.575.813V21h-2.117v-7.925h2l.059.945c.424-.728 1.013-1.091 1.765-1.091.234 0 .454.031.659.095l-.03 2.036zm4.665 6.086c-1.162 0-2.108-.356-2.838-1.069s-1.095-1.662-1.095-2.849v-.205c0-.796.154-1.508.461-2.135a3.386 3.386 0 0 1 1.308-1.45c.564-.34 1.207-.51 1.93-.51 1.084 0 1.937.343 2.56 1.026.622.684.933 1.653.933 2.908v.864h-5.046c.068.518.275.933.619 1.245.344.313.78.469 1.307.469.816 0 1.453-.295 1.912-.886l1.04 1.164c-.317.45-.747.8-1.29 1.051a4.23 4.23 0 0 1-1.8.377zm-.242-6.503c-.42 0-.76.141-1.021.424-.262.284-.429.689-.502 1.216h2.944v-.168c-.01-.469-.136-.832-.38-1.088-.245-.256-.591-.384-1.04-.384z" fill="#000"/><path d="M117.313 16.604V20.5H116v-9.953h3.67c1.09 0 1.943.278 2.561.834.617.556.926 1.292.926 2.208 0 .966-.302 1.71-.906 2.232-.603.522-1.468.783-2.594.783h-2.344zm0-1.074h2.358c.702 0 1.24-.165 1.613-.495.374-.33.56-.808.56-1.432 0-.593-.186-1.067-.56-1.422-.374-.356-.886-.54-1.538-.554h-2.433v3.903zm10.896-1.292a3.79 3.79 0 0 0-.622-.048c-.83 0-1.392.354-1.689 1.06v5.25h-1.264v-7.396h1.23l.02.854c.415-.66 1.003-.991 1.764-.991.247 0 .433.032.561.096v1.175zm4.102 6.399c-1.003 0-1.819-.33-2.448-.988-.629-.659-.943-1.54-.943-2.642v-.233c0-.733.14-1.388.42-1.965a3.28 3.28 0 0 1 1.176-1.353 2.956 2.956 0 0 1 1.637-.49c.962 0 1.71.318 2.243.951.533.633.8 1.54.8 2.72v.527h-5.011c.018.73.23 1.318.639 1.767.408.449.926.673 1.555.673.447 0 .825-.09 1.135-.273.31-.182.58-.424.813-.725l.773.602c-.62.952-1.55 1.429-2.79 1.429zm-.158-6.631c-.51 0-.938.186-1.285.557-.346.371-.56.892-.642 1.562h3.705v-.096c-.037-.642-.21-1.14-.52-1.493-.31-.354-.729-.53-1.258-.53zm6.857 4.778l1.832-5.68h1.292L139.48 20.5h-.963l-2.68-7.396h1.292l1.88 5.68zm5.715 1.716h-1.265v-7.396h1.265V20.5zm-1.368-9.358c0-.205.063-.379.188-.52.126-.141.311-.212.558-.212.246 0 .432.07.56.212a.747.747 0 0 1 .191.52.722.722 0 0 1-.19.512c-.129.137-.315.205-.561.205-.247 0-.432-.068-.558-.205a.73.73 0 0 1-.188-.512zm7.698 7.396c0-.342-.13-.607-.387-.796-.257-.19-.706-.352-1.346-.49-.64-.136-1.149-.3-1.525-.491-.376-.192-.654-.42-.834-.684a1.635 1.635 0 0 1-.27-.943c0-.606.257-1.119.77-1.538.512-.42 1.167-.63 1.965-.63.838 0 1.518.217 2.04.65.522.433.783.987.783 1.661h-1.272c0-.346-.146-.645-.44-.895-.294-.25-.665-.376-1.111-.376-.46 0-.82.1-1.08.3a.948.948 0 0 0-.39.787c0 .305.12.535.362.69.242.155.678.303 1.31.445.63.14 1.142.31 1.534.505.392.196.683.432.872.708.189.276.283.612.283 1.008 0 .661-.264 1.19-.793 1.59-.528.398-1.214.598-2.057.598-.593 0-1.117-.105-1.573-.315a2.557 2.557 0 0 1-1.07-.878 2.117 2.117 0 0 1-.386-1.22h1.265c.023.423.193.76.51 1.008.316.248.734.372 1.254.372.478 0 .862-.096 1.152-.29.289-.194.434-.452.434-.776zm7.478 1.962c-.073-.146-.132-.406-.178-.78-.587.611-1.29.917-2.105.917-.73 0-1.327-.206-1.794-.619a2.002 2.002 0 0 1-.701-1.569c0-.77.293-1.368.878-1.794.586-.426 1.41-.64 2.471-.64h1.231v-.58c0-.442-.132-.795-.397-1.057-.264-.262-.653-.393-1.168-.393-.452 0-.83.114-1.135.342-.306.228-.458.504-.458.827h-1.272c0-.369.131-.725.393-1.07a2.683 2.683 0 0 1 1.067-.816c.449-.2.942-.301 1.48-.301.852 0 1.52.213 2.003.639.483.426.733 1.013.752 1.76v3.405c0 .679.086 1.219.26 1.62v.109h-1.327zm-2.098-.964c.396 0 .772-.102 1.128-.307a1.86 1.86 0 0 0 .772-.8V16.91h-.991c-1.55 0-2.324.454-2.324 1.36 0 .397.132.707.396.93.264.223.604.335 1.019.335zm2.973-9.317c0 .492-.14.89-.42 1.196-.28.305-.63.458-1.05.458a1.54 1.54 0 0 1-.485-.068 2.619 2.619 0 0 1-.536-.28c-.222-.142-.381-.227-.479-.257a1.171 1.171 0 0 0-.338-.044.627.627 0 0 0-.479.215.78.78 0 0 0-.198.55l-.848-.048c0-.487.138-.89.414-1.21a1.326 1.326 0 0 1 1.05-.478c.159 0 .302.023.43.068.127.046.3.135.52.267.218.132.386.219.502.26.116.04.245.061.386.061a.612.612 0 0 0 .489-.232.815.815 0 0 0 .195-.54l.847.082zm1.84 6.514c0-.724.141-1.376.426-1.955a3.187 3.187 0 0 1 1.19-1.34c.508-.314 1.088-.471 1.74-.471 1.007 0 1.821.348 2.443 1.046.622.697.933 1.624.933 2.782v.089c0 .72-.137 1.366-.413 1.938a3.14 3.14 0 0 1-1.183 1.336c-.512.32-1.101.479-1.767.479-1.002 0-1.815-.349-2.437-1.046-.622-.697-.933-1.62-.933-2.769v-.089zm1.27.15c0 .821.19 1.48.571 1.976.38.497.89.745 1.528.745.643 0 1.153-.251 1.531-.755.379-.503.568-1.209.568-2.116 0-.81-.193-1.468-.578-1.972-.385-.503-.896-.755-1.534-.755-.625 0-1.128.248-1.511.745s-.574 1.208-.574 2.133zm10.207-.143c0-1.135.268-2.047.806-2.738.538-.69 1.242-1.035 2.113-1.035.865 0 1.551.296 2.057.888V10h1.265v10.5h-1.162l-.062-.793c-.506.62-1.21.93-2.112.93-.857 0-1.555-.351-2.095-1.053-.54-.702-.81-1.618-.81-2.748v-.096zm1.264.144c0 .838.173 1.495.52 1.969.346.473.825.71 1.435.71.802 0 1.388-.36 1.757-1.08v-3.397c-.378-.697-.96-1.046-1.743-1.046-.62 0-1.103.24-1.45.718-.346.478-.519 1.187-.519 2.126zm6.604-.15c0-.725.142-1.377.427-1.956a3.187 3.187 0 0 1 1.19-1.34c.508-.314 1.088-.471 1.74-.471 1.006 0 1.821.348 2.443 1.046.622.697.933 1.624.933 2.782v.089c0 .72-.138 1.366-.413 1.938a3.14 3.14 0 0 1-1.183 1.336c-.513.32-1.102.479-1.767.479-1.003 0-1.815-.349-2.437-1.046-.622-.697-.933-1.62-.933-2.769v-.089zm1.271.15c0 .82.19 1.479.571 1.975.38.497.89.745 1.528.745.642 0 1.153-.251 1.531-.755.378-.503.568-1.209.568-2.116 0-.81-.193-1.468-.578-1.972-.385-.503-.897-.755-1.535-.755-.624 0-1.128.248-1.51.745-.383.497-.575 1.208-.575 2.133zm15.08 2.885c-.492.578-1.214.868-2.167.868-.788 0-1.388-.23-1.8-.687-.413-.458-.622-1.136-.626-2.034v-4.812h1.264v4.778c0 1.12.456 1.681 1.367 1.681.967 0 1.61-.36 1.928-1.08v-5.38h1.265V20.5h-1.203l-.028-.731zM195.92 10h1.531l-1.832 2.01H194.6l1.319-2.01zm5.55 10.5h-1.264V10h1.265v10.5zm3.74-9.187v1.79h1.38v.978h-1.38v4.587c0 .296.062.518.185.666.123.149.332.223.628.223.146 0 .347-.028.602-.082V20.5a3.666 3.666 0 0 1-.97.137c-.566 0-.992-.171-1.279-.513-.287-.342-.43-.827-.43-1.456v-4.587h-1.347v-.977h1.346v-1.791h1.265zm4.231 9.187h-1.264v-7.396h1.264V20.5zm-1.367-9.358c0-.205.063-.379.188-.52.126-.141.311-.212.557-.212.246 0 .433.07.56.212a.747.747 0 0 1 .192.52.722.722 0 0 1-.191.512c-.128.137-.315.205-.56.205-.247 0-.432-.068-.558-.205a.73.73 0 0 1-.188-.512zm4.58 1.962l.035.82c.542-.638 1.273-.957 2.194-.957 1.034 0 1.738.396 2.112 1.19a2.8 2.8 0 0 1 .96-.862c.395-.219.86-.328 1.399-.328 1.622 0 2.447.859 2.474 2.577V20.5h-1.265v-4.88c0-.53-.12-.925-.362-1.187-.241-.262-.647-.393-1.217-.393-.469 0-.859.14-1.169.42-.31.28-.49.658-.54 1.132V20.5h-1.271v-4.847c0-1.075-.526-1.613-1.58-1.613-.829 0-1.396.353-1.701 1.06v5.4h-1.265v-7.396h1.196zm10.746 3.63c0-.725.143-1.377.428-1.956a3.187 3.187 0 0 1 1.19-1.34c.507-.314 1.087-.471 1.739-.471 1.007 0 1.822.348 2.444 1.046.622.697.933 1.624.933 2.782v.089c0 .72-.138 1.366-.414 1.938a3.14 3.14 0 0 1-1.182 1.336c-.513.32-1.102.479-1.767.479-1.003 0-1.815-.349-2.437-1.046-.623-.697-.934-1.62-.934-2.769v-.089zm1.272.15c0 .82.19 1.479.57 1.975.381.497.89.745 1.529.745.642 0 1.153-.251 1.53-.755.379-.503.568-1.209.568-2.116 0-.81-.192-1.468-.577-1.972a1.84 1.84 0 0 0-1.535-.755c-.624 0-1.128.248-1.51.745-.384.497-.575 1.208-.575 2.133zm10.206-.144c0-1.135.269-2.047.807-2.738.537-.69 1.241-1.035 2.112-1.035.866 0 1.552.296 2.058.888V10h1.264v10.5h-1.162l-.061-.793c-.506.62-1.21.93-2.113.93-.857 0-1.555-.351-2.095-1.053-.54-.702-.81-1.618-.81-2.748v-.096zm1.265.144c0 .838.173 1.495.52 1.969.345.473.824.71 1.435.71.802 0 1.387-.36 1.757-1.08v-3.397c-.379-.697-.96-1.046-1.744-1.046-.62 0-1.103.24-1.449.718-.346.478-.52 1.187-.52 2.126zm8.312 3.616h-1.271v-7.396h1.271V20.5zm.014-10.493H246l-1.832 2.01h-1.019l1.32-2.01zm1.77 6.733c0-1.153.267-2.07.8-2.751.533-.682 1.24-1.022 2.12-1.022.902 0 1.606.319 2.112.957l.061-.82h1.155v7.218c0 .957-.283 1.712-.85 2.263-.568.551-1.33.827-2.287.827a3.804 3.804 0 0 1-1.566-.342c-.51-.228-.9-.54-1.169-.936l.657-.759c.542.67 1.205 1.005 1.989 1.005.615 0 1.095-.173 1.439-.52.344-.346.516-.834.516-1.463v-.635c-.506.583-1.196.875-2.071.875-.866 0-1.567-.349-2.102-1.046-.536-.697-.804-1.648-.804-2.85zm1.272.144c0 .834.17 1.489.512 1.965.342.476.82.714 1.436.714.798 0 1.383-.362 1.757-1.086V15.1c-.388-.707-.969-1.06-1.743-1.06-.616 0-1.096.24-1.443.718-.346.478-.52 1.187-.52 2.126zm8.258 3.616h-1.265v-7.396h1.265V20.5zm-1.368-9.358c0-.205.063-.379.188-.52.126-.141.311-.212.558-.212.246 0 .432.07.56.212a.747.747 0 0 1 .191.52.722.722 0 0 1-.19.512c-.129.137-.315.205-.561.205-.247 0-.432-.068-.558-.205a.73.73 0 0 1-.188-.512zm5.107.17v1.792h1.38v.977h-1.38v4.587c0 .296.061.518.184.666.123.149.333.223.63.223.145 0 .346-.028.6-.082V20.5a3.666 3.666 0 0 1-.97.137c-.565 0-.991-.171-1.278-.513-.287-.342-.43-.827-.43-1.456v-4.587h-1.347v-.977h1.346v-1.792h1.265zm2.386 5.421c0-.724.142-1.376.427-1.955a3.187 3.187 0 0 1 1.19-1.34c.507-.314 1.087-.471 1.739-.471 1.007 0 1.822.348 2.444 1.046.622.697.933 1.624.933 2.782v.089c0 .72-.138 1.366-.414 1.938a3.14 3.14 0 0 1-1.182 1.336c-.513.32-1.102.479-1.767.479-1.003 0-1.815-.349-2.437-1.046-.622-.697-.933-1.62-.933-2.769v-.089zm1.271.15c0 .821.19 1.48.57 1.976.381.497.89.745 1.529.745.642 0 1.153-.251 1.53-.755.38-.503.568-1.209.568-2.116 0-.81-.192-1.468-.577-1.972-.385-.503-.897-.755-1.535-.755-.624 0-1.128.248-1.51.745-.384.497-.575 1.208-.575 2.133zm7.007 2.954c0-.219.065-.401.195-.547.13-.146.324-.219.584-.219.26 0 .457.073.592.219a.776.776 0 0 1 .201.547c0 .21-.067.385-.201.526-.135.142-.332.212-.592.212-.26 0-.454-.07-.584-.212a.748.748 0 0 1-.195-.526zm.007-6.036c0-.219.065-.401.195-.547.13-.146.324-.219.584-.219.26 0 .457.073.591.219a.776.776 0 0 1 .202.547.73.73 0 0 1-.202.526c-.134.141-.331.212-.591.212-.26 0-.455-.07-.584-.212a.748.748 0 0 1-.195-.526zm8.6 1.107h.95c.597-.009 1.066-.166 1.408-.471.342-.306.512-.718.512-1.238 0-1.166-.58-1.75-1.743-1.75-.547 0-.983.156-1.309.468-.326.313-.489.726-.489 1.241h-1.264c0-.788.288-1.443.865-1.965.576-.522 1.309-.783 2.197-.783.94 0 1.675.249 2.208.745.533.497.8 1.187.8 2.072 0 .433-.14.852-.42 1.257a2.54 2.54 0 0 1-1.145.91c.547.173.97.46 1.268.86.298.402.447.892.447 1.47 0 .894-.291 1.602-.875 2.127-.583.524-1.342.786-2.276.786-.934 0-1.694-.253-2.28-.76-.585-.505-.878-1.173-.878-2.002h1.271c0 .524.171.943.513 1.258.342.314.8.471 1.374.471.61 0 1.078-.159 1.401-.478.324-.319.486-.777.486-1.374 0-.579-.178-1.023-.533-1.333-.356-.31-.869-.47-1.538-.479h-.95v-1.032z" fill="#2A3052"/></g></svg>