<svg width="299" height="197" xmlns="http://www.w3.org/2000/svg"><g fill="none" fill-rule="evenodd"><path fill="#F1F2F2" d="M0 0h299v197H0z"/><path d="M1.987 1.98v193.04h295.026V1.98H1.987zM299 0v197H0V0h299z" fill="#C2C2C2" fill-rule="nonzero"/><path d="M4.887 56.446v-1.207h289.656v1.207H4.887zm0 40.534v-1.207h289.656v1.207H4.887zm0 40.534v-1.207h289.656v1.207H4.887zm0 40.496v-1.207h289.656v1.207H4.887zm34.38-142.416h1.206v159.67h-1.206V35.594zm36.664 0h1.207v159.67h-1.207V35.594zm36.628 0h1.207v159.67h-1.207V35.594zm36.665 0h1.207v159.67h-1.207V35.594zm36.627 0h1.207v159.67h-1.207V35.594zm36.628 0h1.207v159.67h-1.207V35.594zM4.887 117.228v-1.207h289.656v1.207H4.887z" fill="#DFDEDE" fill-rule="nonzero"/><path d="M259.144 35.594h1.207v159.67h-1.207V35.594zM4.887 76.731v-1.206h289.656v1.206H4.887zm0 81.03v-1.206h289.656v1.207H4.887z" fill="#2A3052" fill-rule="nonzero"/><path fill="#C2C2C2" fill-rule="nonzero" d="M2.794 35.606V33.19h293.842v2.415z"/><path d="M40.664 118.252a1.81 1.81 0 0 1-1.588-3.254l41.486-20.249a1.81 1.81 0 0 1 1.736.08l38.373 23.362 27.773-27.4a1.81 1.81 0 0 1 2.444-.09l35.648 30.304 35.474-26.087a1.81 1.81 0 0 1 1.546-.29l36.665 9.938a1.81 1.81 0 0 1-.947 3.495l-35.823-9.709-35.924 26.418a1.81 1.81 0 0 1-2.245-.079l-35.476-30.157-27.598 27.227a1.81 1.81 0 0 1-2.213.258L81.26 98.438l-40.597 19.814z" fill="#2A3052" fill-rule="nonzero"/><path d="M187.987 147.445h-34.945l-5.382-8.181-5.382 8.181h-34.946a4.733 4.733 0 0 0-4.71 4.782v24.694a4.753 4.753 0 0 0 4.71 4.782h80.692a4.733 4.733 0 0 0 4.71-4.782v-24.694a4.758 4.758 0 0 0-4.747-4.782z" fill="#E88024"/><ellipse cx="8.335" cy="8.564" rx="8.11" ry="8.443" opacity=".6" transform="translate(251.412 99.132)" fill="#FFF"/><path d="M259.747 117.346c-5.157 0-9.317-4.331-9.317-9.65 0-5.32 4.16-9.65 9.317-9.65s9.318 4.33 9.318 9.65c0 5.319-4.16 9.65-9.318 9.65zm0-2.414c3.802 0 6.903-3.23 6.903-7.236 0-4.007-3.101-7.236-6.903-7.236-3.801 0-6.903 3.229-6.903 7.236s3.102 7.236 6.903 7.236z" fill="#E88024" fill-rule="nonzero"/><ellipse cx="8.97" cy="9.021" rx="8.11" ry="8.443" opacity=".6" transform="translate(30.9 107.604)" fill="#FFF"/><path d="M39.87 126.275c-5.157 0-9.317-4.332-9.317-9.65 0-5.32 4.16-9.65 9.317-9.65s9.317 4.33 9.317 9.65c0 5.318-4.16 9.65-9.317 9.65zm0-2.414c3.802 0 6.903-3.23 6.903-7.236 0-4.007-3.101-7.236-6.903-7.236-3.802 0-6.903 3.229-6.903 7.236 0 4.006 3.101 7.236 6.903 7.236z" fill="#E88024" fill-rule="nonzero"/><path d="M22.205 12.851h-3.08v9.115h-2.162V12.85h-3.036v-1.666h8.278v1.667zm3.835 9.27c-1.194 0-2.127-.366-2.799-1.1-.671-.732-1.007-1.676-1.007-2.831v-.296c0-1.2.326-2.182.978-2.947.651-.765 1.547-1.145 2.687-1.14 1.076 0 1.902.329 2.477.988s.863 1.546.863 2.662v1.118h-4.776l-.022.044c.034.548.2.992.5 1.333.298.34.741.51 1.329.51.483 0 .894-.049 1.232-.147a5.03 5.03 0 0 0 1.048-.452l.585 1.333c-.32.261-.755.481-1.303.659a5.78 5.78 0 0 1-1.792.266zm-.14-6.649c-.435 0-.77.15-1.004.448-.234.299-.376.695-.426 1.189l.015.037h2.636v-.163c0-.469-.096-.838-.289-1.107-.192-.269-.503-.404-.933-.404h.001zm8.81.341l-.792-.022c-.32 0-.585.066-.792.2-.207.133-.365.32-.474.562v5.413h-2.155v-8.011h2.007l.096 1.184c.188-.42.43-.746.73-.98a1.626 1.626 0 0 1 1.032-.352c.109 0 .209.008.3.025.092.018.184.039.278.063l-.23 1.918zm3.132-1.858l.09 1.058c.256-.385.578-.682.965-.892.388-.21.836-.314 1.344-.314.514 0 .953.113 1.318.34.365.227.642.57.83 1.03.246-.43.567-.766.962-1.008s.859-.362 1.392-.362c.79 0 1.413.28 1.87.84.456.56.684 1.415.684 2.565v4.754h-2.162v-4.761c0-.642-.098-1.088-.296-1.34-.197-.252-.491-.378-.88-.378a1.51 1.51 0 0 0-.797.204 1.483 1.483 0 0 0-.537.566c0 .094.003.174.008.24.005.068.007.135.007.205v5.264h-2.154v-4.761c0-.627-.1-1.07-.297-1.329-.197-.26-.493-.389-.888-.389-.291 0-.547.056-.766.167a1.47 1.47 0 0 0-.545.47v5.842h-2.154v-8.011h2.006zm13.387 8.01h-2.162v-8.01h2.162v8.01zm0-9.928h-2.162v-1.622h2.162v1.622zm3.754 1.918l.096 1.147a2.93 2.93 0 0 1 .985-.955c.39-.227.827-.34 1.31-.34.81 0 1.442.26 1.896.78.454.521.681 1.345.681 2.47v4.909h-2.17v-4.902c0-.572-.1-.978-.3-1.218-.2-.239-.5-.359-.899-.359-.32 0-.603.06-.848.182a1.64 1.64 0 0 0-.603.5v5.797h-2.162v-8.011h2.014zm11.306 8.01a4.547 4.547 0 0 1-.204-.577 4.017 4.017 0 0 1-.122-.622c-.222.39-.516.714-.88.97-.366.257-.8.385-1.304.385-.84 0-1.486-.216-1.94-.647-.454-.432-.681-1.021-.681-1.766 0-.785.302-1.394.907-1.825.605-.432 1.487-.648 2.647-.648h1.214v-.637c0-.385-.101-.684-.303-.896-.203-.212-.504-.318-.904-.318-.35 0-.62.085-.81.255-.19.17-.286.404-.286.7h-2.08l-.015-.045c-.034-.676.26-1.26.885-1.75.624-.492 1.44-.737 2.447-.737.962 0 1.741.241 2.336.725.595.484.892 1.177.892 2.08v3.31c0 .375.029.728.085 1.06.057.33.147.658.27.984H66.29l-.001-.001zm-1.977-1.443c.375 0 .71-.094 1.007-.281.296-.188.499-.405.607-.652v-1.133h-1.214c-.46 0-.806.114-1.04.34a1.12 1.12 0 0 0-.352.838c0 .271.087.487.263.647.175.16.418.241.729.241zm19.08-6.567l.097 1.147a2.93 2.93 0 0 1 .984-.955c.39-.227.827-.34 1.311-.34.81 0 1.441.26 1.895.78.455.521.682 1.345.682 2.47v4.909h-2.17v-4.902c0-.572-.1-.978-.3-1.218-.2-.239-.5-.359-.9-.359-.32 0-.603.06-.847.182a1.64 1.64 0 0 0-.603.5v5.797h-2.162v-8.011h2.013zm9.174-1.962v1.962h1.355v1.517h-1.355v4.08c0 .311.066.533.196.667.131.133.303.2.515.2a1.95 1.95 0 0 0 .585-.082l.178 1.562c-.418.15-.859.225-1.303.222-.746 0-1.32-.204-1.722-.614-.402-.41-.603-1.059-.603-1.947v-4.088h-1.17v-1.517h1.17v-1.962h2.154zm6.9 3.82l-.791-.022c-.321 0-.585.066-.793.2a1.26 1.26 0 0 0-.473.562v5.413h-2.155v-8.011h2.006l.097 1.184c.187-.42.43-.746.729-.98a1.626 1.626 0 0 1 1.033-.352c.108 0 .208.008.3.025.091.018.184.039.277.063l-.23 1.918zm4.458 6.308c-1.194 0-2.127-.366-2.799-1.1-.67-.732-1.007-1.676-1.007-2.831v-.296c0-1.2.326-2.182.978-2.947.651-.765 1.547-1.145 2.687-1.14 1.077 0 1.902.329 2.477.988s.863 1.546.863 2.662v1.118h-4.776l-.022.044c.034.548.201.992.5 1.333.298.34.741.51 1.329.51.483 0 .894-.049 1.232-.147a5.03 5.03 0 0 0 1.048-.452l.585 1.333c-.32.261-.755.481-1.303.659a5.78 5.78 0 0 1-1.792.266zm-.14-6.649c-.435 0-.77.15-1.004.448-.234.299-.376.695-.426 1.189l.015.037h2.636v-.163c0-.469-.096-.838-.289-1.107-.192-.269-.503-.404-.933-.404h.001z" fill="#020202" fill-rule="nonzero"/><path fill="#000" d="M78.691 17.16h-3.955v3.046h4.702v1.64h-6.84V11.184h6.826v1.648h-4.688v2.68h3.955z"/><path d="M20.02 66.09h-3.574l-1.21 2.44h-1.31l4.837-9.477h1.1l1.927 9.477h-1.31l-.462-2.44h.002zm-3.04-1.075h2.83l-.767-4.068-.04-.006-2.023 4.074zm7.413 3.515h-1.282l1.523-10.154h1.282L24.393 68.53zm4.634-2.076l.04.494.038.007.196-.501 2.362-4.967h1.309l-3.645 7.043h-.97l-1.569-7.043h1.315l.924 4.967zm4.185-1.51c.16-1.08.57-1.949 1.227-2.604.658-.655 1.475-.983 2.45-.983.938 0 1.649.34 2.132 1.019.484.679.65 1.535.498 2.568l-.026.143c-.165 1.089-.575 1.958-1.23 2.607-.655.648-1.473.973-2.454.973-.937 0-1.647-.339-2.131-1.016-.484-.677-.648-1.531-.492-2.564l.026-.143zm1.257.143c-.118.772-.055 1.395.188 1.868.243.473.677.71 1.302.71.586 0 1.08-.247 1.48-.74.402-.492.66-1.105.772-1.838l.026-.143c.113-.764.047-1.385-.198-1.862-.246-.477-.678-.716-1.299-.716-.59 0-1.086.249-1.487.745-.401.497-.654 1.108-.758 1.833l-.026.143zm13.785 1.549c.04-.29-.035-.523-.221-.697-.187-.173-.573-.327-1.159-.462-.807-.178-1.411-.427-1.812-.748-.402-.321-.563-.75-.485-1.289.082-.599.393-1.096.934-1.49.54-.395 1.203-.593 1.988-.593.764 0 1.371.22 1.823.658.45.438.627.941.527 1.51l-.013.039h-1.23a.968.968 0 0 0-.28-.833c-.23-.243-.551-.365-.964-.365-.433 0-.782.103-1.044.31-.263.205-.414.447-.453.725-.039.286.026.503.196.65.169.148.55.285 1.145.411.838.182 1.456.44 1.855.774.4.335.562.77.488 1.309-.09.646-.414 1.162-.97 1.546-.555.384-1.245.576-2.07.576-.858 0-1.523-.23-1.994-.69-.47-.46-.652-.99-.544-1.588l.013-.04h1.23c-.038.456.085.79.372 1 .286.21.642.315 1.067.315.438 0 .803-.097 1.093-.293.291-.195.46-.44.508-.735zm7.134 1.894l.071-1.009a2.87 2.87 0 0 1-.98.853 2.674 2.674 0 0 1-1.252.293c-.742 0-1.298-.249-1.666-.746-.37-.496-.476-1.257-.32-2.281l.619-4.153h1.282l-.625 4.166c-.117.777-.086 1.3.092 1.569.177.269.505.403.982.403.447 0 .836-.096 1.165-.29a2.26 2.26 0 0 0 .808-.816l.748-5.032h1.282L56.54 68.53h-1.152zm9.51-3.254c-.161 1.054-.527 1.883-1.098 2.486-.57.603-1.287.905-2.15.905-.422 0-.786-.077-1.094-.231a1.864 1.864 0 0 1-.749-.68l-.52 3.482h-1.283l1.458-9.75h.983l.065.91c.282-.338.608-.596.976-.774a2.81 2.81 0 0 1 1.237-.267c.838 0 1.454.35 1.849 1.051s.51 1.611.345 2.73l-.02.138h.001zm-1.264-.137c.126-.829.07-1.493-.169-1.992-.238-.499-.666-.748-1.282-.748-.356 0-.678.085-.967.257a2.478 2.478 0 0 0-.751.7l-.508 3.384c.121.29.3.517.534.68.234.163.54.244.917.244.582 0 1.069-.224 1.462-.673.392-.45.64-1.021.745-1.715l.02-.137h-.001zm5.246 3.528c-.972 0-1.702-.328-2.19-.983s-.654-1.502-.498-2.539l.046-.286c.152-1.05.565-1.896 1.24-2.538.675-.643 1.44-.964 2.294-.964.907 0 1.56.297 1.96.892.399.594.527 1.369.383 2.324l-.097.677h-4.556c-.1.746-.026 1.335.22 1.767.248.431.697.647 1.348.647a3.48 3.48 0 0 0 1.162-.188 3.05 3.05 0 0 0 .927-.508l.378.833a3.705 3.705 0 0 1-1.087.615c-.438.167-.948.25-1.53.25v.001zm.742-6.3c-.43 0-.819.173-1.168.52-.35.347-.6.785-.752 1.315l.013.039h3.17l.013-.104c.078-.526.018-.952-.182-1.28-.2-.327-.564-.49-1.094-.49zm7.557.253l-.65-.04c-.335 0-.63.084-.886.252a2.074 2.074 0 0 0-.65.706l-.75 4.992h-1.282l1.055-7.043h1.145l-.026.996a2.96 2.96 0 0 1 .86-.83 1.986 1.986 0 0 1 1.33-.273c.09.015.16.032.212.049l-.358 1.191zm1.836 5.91h-1.283l1.055-7.043h1.282l-1.054 7.043zm1.327-8.845H79.06l.195-1.309h1.283l-.196 1.309zm.886 5.259c.16-1.08.57-1.949 1.226-2.604.658-.655 1.475-.983 2.451-.983.937 0 1.648.34 2.132 1.019.483.679.65 1.535.498 2.568l-.026.143c-.165 1.089-.575 1.958-1.23 2.607-.656.648-1.474.973-2.454.973-.938 0-1.648-.339-2.132-1.016-.484-.677-.648-1.531-.491-2.564l.026-.143zm1.256.143c-.117.772-.054 1.395.189 1.868.243.473.676.71 1.301.71.586 0 1.08-.247 1.481-.74.401-.492.659-1.105.771-1.838l.026-.143c.113-.764.047-1.385-.198-1.862-.245-.477-.678-.716-1.299-.716-.59 0-1.086.249-1.487.745-.401.497-.654 1.108-.758 1.833l-.026.143zM92.78 62.62l-.651-.04c-.334 0-.63.084-.885.252-.27.181-.492.423-.651.706l-.749 4.992h-1.282l1.054-7.043h1.146l-.026.996a2.96 2.96 0 0 1 .86-.83 1.986 1.986 0 0 1 1.33-.273c.09.015.16.032.212.049l-.358 1.191zM22.697 170.627h-3.669l-1.243 2.506h-1.343l4.965-9.73h1.13l1.977 9.73h-1.343l-.474-2.506zm-3.121-1.103h2.907l-.789-4.176-.04-.007-2.078 4.183zm7.611 3.609h-1.316l1.564-10.425h1.316l-1.564 10.425zM31.945 171l.04.508.04.007.2-.515 2.427-5.099h1.343l-3.742 7.23h-.996l-1.61-7.23h1.35l.948 5.1V171zm4.297-1.55c.165-1.11.585-2 1.26-2.673s1.513-1.01 2.516-1.01c.962 0 1.691.35 2.188 1.047.497.697.667 1.575.511 2.636l-.026.147c-.17 1.118-.59 2.01-1.263 2.676-.673.666-1.513 1-2.52 1-.962 0-1.692-.348-2.188-1.043-.497-.695-.665-1.573-.505-2.633l.027-.147zm1.29.147c-.12.793-.056 1.432.193 1.918.25.485.695.728 1.337.728.601 0 1.108-.253 1.52-.758.412-.506.676-1.135.792-1.888l.027-.147c.116-.784.048-1.421-.204-1.911s-.696-.735-1.333-.735c-.606 0-1.115.255-1.527.765-.412.51-.672 1.137-.779 1.88l-.026.148zm11.066 3.535H47.28l1.083-7.23h1.316l-1.082 7.23h.001zm1.363-9.082h-1.316l.2-1.343h1.316l-.2 1.343zm2.86 2.887c.277-.36.63-.655 1.033-.865.398-.204.84-.308 1.286-.304.753 0 1.315.23 1.687.691.372.461.487 1.164.344 2.109l-.681 4.564h-1.317l.682-4.538c.098-.659.042-1.117-.167-1.373-.21-.256-.577-.384-1.103-.384a2.16 2.16 0 0 0-1.056.257 2.334 2.334 0 0 0-.788.712l-.802 5.326h-1.316l1.082-7.23h1.176l-.06 1.035zm6.128 6.195l.935-6.255h-1.129l.147-.976h1.13l.14-.915c.12-.802.41-1.406.868-1.811.46-.405 1.054-.608 1.785-.608.147 0 .298.013.454.04.156.027.32.06.495.1l-.308 1.003a2.959 2.959 0 0 0-.641-.067c-.37 0-.67.117-.9.35-.229.234-.374.565-.437.993l-.14.915h1.31l-.147.976H61.2l-.936 6.255h-1.315zm6.77.14c-.999 0-1.748-.336-2.25-1.009-.5-.673-.671-1.541-.51-2.606l.046-.294c.156-1.078.58-1.947 1.273-2.606.693-.66 1.478-.99 2.356-.99.93 0 1.601.306 2.011.916.41.61.541 1.406.394 2.386l-.1.695h-4.678c-.102.766-.026 1.37.228 1.814.254.443.715.665 1.383.665a3.58 3.58 0 0 0 1.193-.194c.367-.129.685-.303.952-.521l.388.855c-.294.25-.666.46-1.116.632-.45.171-.974.257-1.57.257zm.761-6.468c-.441 0-.84.178-1.2.534-.358.356-.615.806-.771 1.35l.013.04h3.254l.014-.107c.08-.539.018-.977-.187-1.313-.205-.336-.58-.504-1.123-.504zm7.758.26l-.668-.04a1.63 1.63 0 0 0-.909.257 2.13 2.13 0 0 0-.668.725l-.768 5.126h-1.317l1.083-7.23h1.176l-.027 1.022c.258-.366.552-.65.882-.852a2.04 2.04 0 0 1 1.367-.28c.091.015.163.031.217.05l-.368 1.222zm1.885 6.068h-1.317l1.083-7.23h1.316l-1.082 7.23zm1.363-9.082H76.17l.2-1.343h1.316l-.2 1.343zm.909 5.4c.165-1.11.584-2 1.26-2.673.674-.673 1.513-1.01 2.515-1.01.963 0 1.692.35 2.189 1.047.497.697.667 1.575.511 2.636l-.027.147c-.169 1.118-.59 2.01-1.263 2.676-.672.666-1.512 1-2.519 1-.962 0-1.692-.348-2.188-1.043-.497-.695-.665-1.573-.505-2.633l.027-.147zm1.29.147c-.12.793-.056 1.432.193 1.918.25.485.695.728 1.337.728.601 0 1.108-.253 1.52-.758.412-.506.676-1.135.792-1.888l.027-.147c.115-.784.048-1.421-.204-1.911s-.696-.735-1.333-.735c-.606 0-1.115.255-1.527.765-.412.51-.672 1.137-.779 1.88l-.027.148h.001zm10.571-2.533l-.668-.04a1.63 1.63 0 0 0-.909.257 2.13 2.13 0 0 0-.668.725l-.769 5.126h-1.316l1.082-7.23h1.177l-.027 1.022c.258-.366.552-.65.882-.852a2.04 2.04 0 0 1 1.366-.28c.092.015.164.031.218.05l-.368 1.222z" fill="#6D6E71" fill-rule="nonzero"/><path d="M275.571 121.005v.966h-4.635v3.283h3.948v.995h-3.948v4.202h-1.362v-9.446h5.997zm1.194 2.442h1.252v6.893h-1.252v-6.893zm.017-3.13v1.243h1.276v-1.243h-1.276zm3.304 3.195h1.097c.006.218.036.508.093.869 1.089-1.293 3.297-1.526 4.054.278.741-1.147 1.473-1.453 2.666-1.254 1.51.25 1.736 1.956 1.809 2.6-.032 1.847-.012 3.47 0 4.446h-1.271v-4.445c-.038-.657-.259-1.625-1.374-1.625-1.116 0-1.616 1.022-1.616 1.625v4.445h-1.263v-4.445c0-.777-.475-1.781-1.597-1.625-1.121.156-1.215.659-1.408.922.013 1.569.013 3.284 0 5.148h-1.19v-6.94.001z" fill="#2A3052" fill-rule="nonzero"/><path d="M178.435 166.228h-2.491v-8.243h2.491v8.243zm0 4.337h-2.491v-2.214h2.491v2.214zm-34.625-9.812h2.013l.1 1.465c.825-1.229 1.893-1.775 3.207-1.64.76.08 2.365.329 2.844 2.489.175.792.137 2.13.124 3.948-.005.707-.005 1.93 0 3.668h-2.207v-6.22c0-.732-.205-1.548-.818-1.857-.843-.425-2.43-.247-3.067.824v7.253h-2.195v-9.93h-.001zm-17.719 4.647v-1.668h5.049c.057 2.908.057 4.604 0 5.087-.426 1.274-5.468 3.59-8.723.652-.97-.875-1.427-1.845-1.676-3.313-.012-1.499-.039-2.906-.028-4.236.246-1.63.792-2.557 1.232-3.083 1.6-1.913 4.151-2.325 6.394-1.55 2.243.776 2.534 2.387 2.715 3.962-.519 0-.793-.022-2.195 0 .142-.886-.665-2.6-2.77-2.506-2.104.094-3.097 1.823-3.097 3.264 0 1.44-.076.956 0 3.819.096 3.286 4.036 4.168 5.867 2.413l.066-2.799-2.834-.042zm9.887-1.835c-.677-.004-1.387-.004-2.13 0 0-1.068.765-3.007 3.825-3.007s3.794 2.103 3.877 2.555c.083.452-.213 6.798.427 7.52l-2.273.002c-.188-.642-.282-1.117-.282-1.425-.355.433-.965 1.224-1.902 1.515-.937.29-3.066.446-3.938-1.596-.574-1.347-.208-2.861.872-3.555 1.784-1.146 4.236-.763 4.968-.763.094-2.044-.516-2.52-1.902-2.52-.924 0-1.437.425-1.542 1.274zm3.443 2.644a36.882 36.882 0 0 0-2.244.019c-.893.078-1.687.738-1.62 1.678.081 1.12 1.355 1.326 2.353 1.003.837-.271 1.42-.972 1.511-1.27v-1.43zm29.596-5.644c1.098-.061 2.486.327 3.264 1.132.86.89 1.473 1.996 1.473 3.822 0 1.618-.316 2.787-1.066 3.732-.848 1.068-2.168 1.556-3.239 1.556-1.11 0-2.315-.178-3.328-1.132-.829-.781-1.595-2.12-1.519-3.989.085-2.065.736-3.243 1.52-3.99.79-.754 1.72-1.066 2.895-1.131zm.219 1.762c-1 0-2.355.448-2.355 3.253s1.093 3.484 2.355 3.484c1.261 0 2.317-1.117 2.227-3.619-.09-2.501-1.227-3.118-2.227-3.118zm-14.821-6.007h2.112c.04 3.462.059 5.349.059 5.66.514-.801 2.008-1.89 3.6-1.397 2.528.783 2.413 2.432 2.528 3.538.077.738.077 2.893 0 6.465h-2.19c.06-2.949.06-5.044 0-6.285.08-2.15-2.594-2.797-3.997-.875l.059 7.16h-2.17V156.32h-.001z" fill="#FFF" fill-rule="nonzero"/><path d="M31.79 134.92l.093.969a2.112 2.112 0 0 1 1.875-1.063c.688 0 1.219.188 1.594.625.375.406.562 1.031.562 1.875v4.062h-1.156v-4.03c0-.563-.125-.97-.344-1.22-.218-.25-.562-.343-1-.343a1.6 1.6 0 0 0-.874.25c-.25.156-.469.375-.625.656v4.687h-1.156v-6.437l1.03-.03.001-.001zm-4.212-2.163h1.174v8.682h-1.174v-8.682zm10.172 2.083h1.175v6.548h-1.174l-.001-6.548zm9.55.063h1.157v6.36H47.3v-6.36zm.017-2.889v1.147h1.177v-1.147h-1.177zm-2.77 5.149c.411-.012.797 0 1.045 0 0-1.838-1.457-2.323-2.628-2.323-1.172 0-2.628 1.063-2.628 3.342 0 2.28 1.278 3.389 2.865 3.331 1.586-.057 2.391-1.263 2.391-2.151-.463.01-.58.01-1.045 0 0 .839-.754 1.28-1.346 1.28-1.417 0-1.738-1.375-1.738-2.468s.362-2.442 1.627-2.442c1.073 0 1.457.832 1.457 1.431zm8.198-2.334c.73-.04 1.655.213 2.172.738.572.58.981 1.303.981 2.495 0 1.055-.21 1.818-.71 2.435-.564.697-1.442 1.016-2.156 1.016-.739 0-1.54-.117-2.215-.74-.552-.51-1.062-1.383-1.01-2.602.055-1.348.489-2.117 1.01-2.604.527-.492 1.146-.696 1.928-.738zm.263.881c-.838 0-1.851.547-1.851 2.242 0 1.695.625 2.703 1.748 2.703s1.86-1.14 1.746-2.703c-.113-1.563-.805-2.242-1.643-2.242zm-15.194-1.812h.85l1.63-1.54H38.91l-1.096 1.54z" fill="#2A3052" fill-rule="nonzero"/></g></svg>