<svg width="299" height="197" xmlns="http://www.w3.org/2000/svg"><g fill="none" fill-rule="evenodd"><path fill="#F1F2F2" d="M0 0h299v197H0z"/><path d="M1.987 1.98v193.04h295.026V1.98H1.987zM299 0v197H0V0h299z" fill="#C2C2C2" fill-rule="nonzero"/><path d="M4.887 55.446v-1.207h289.656v1.207H4.887zm0 40.534v-1.207h289.656v1.207H4.887zm0 40.534v-1.207h289.656v1.207H4.887zm0 40.496v-1.207h289.656v1.207H4.887zm34.38-142.416h1.206v159.67h-1.206V34.594zm36.664 0h1.207v159.67h-1.207V34.594zm36.628 0h1.207v159.67h-1.207V34.594zm36.665 0h1.207v159.67h-1.207V34.594zm36.627 0h1.207v159.67h-1.207V34.594zm36.628 0h1.207v159.67h-1.207V34.594zM4.887 116.228v-1.207h289.656v1.207H4.887z" fill="#DFDEDE" fill-rule="nonzero"/><path fill="#2A3052" fill-rule="nonzero" d="M4.887 76.731v-1.206h289.656v1.206z"/><path fill="#DFDEDE" fill-rule="nonzero" d="M4.887 157.762v-1.207h289.656v1.207z"/><path fill="#2A3052" fill-rule="nonzero" d="M259.144 35.594h1.207v159.67h-1.207z"/><path fill="#C2C2C2" fill-rule="nonzero" d="M2.794 35.606V33.19h293.842v2.415z"/><path d="M41.087 138.25a1.81 1.81 0 0 1-2.434-2.68l36.665-33.287a1.81 1.81 0 0 1 2.492.056l24.705 24.516 30.16-33.337a1.81 1.81 0 0 1 2.572-.115l44.09 40.784 42.273-59.112a1.81 1.81 0 0 1 2.945 2.106l-43.467 60.782a1.81 1.81 0 0 1-2.702.276l-44.254-40.934-30.204 33.385a1.81 1.81 0 0 1-2.618.07l-24.83-24.64-35.393 32.13z" fill="#2A3052" fill-rule="nonzero"/><path d="M187.987 147.445h-34.945l-5.382-8.181-5.382 8.181h-34.946c-2.616 0-4.71 2.13-4.71 4.782v24.694c0 2.653 2.131 4.782 4.71 4.782h80.692c2.617 0 4.71-2.13 4.71-4.782v-24.694c0-2.652-2.13-4.782-4.747-4.782z" fill="#E88024"/><ellipse cx="9.045" cy="8.618" rx="8.11" ry="8.443" opacity=".6" transform="translate(214.037 67.51)" fill="#FFF"/><path d="M223.082 85.778c-5.157 0-9.317-4.331-9.317-9.65s4.16-9.65 9.317-9.65 9.318 4.331 9.318 9.65-4.16 9.65-9.318 9.65zm0-2.414c3.802 0 6.904-3.23 6.904-7.236 0-4.007-3.102-7.236-6.904-7.236-3.801 0-6.903 3.229-6.903 7.236s3.102 7.236 6.903 7.236z" fill="#E88024" fill-rule="nonzero"/><ellipse cx="8.97" cy="8.891" rx="8.11" ry="8.443" opacity=".6" transform="translate(30.9 128.019)" fill="#FFF"/><path d="M39.87 146.56c-5.157 0-9.317-4.33-9.317-9.65 0-5.319 4.16-9.65 9.317-9.65s9.317 4.331 9.317 9.65c0 5.32-4.16 9.65-9.317 9.65zm0-2.414c3.802 0 6.903-3.229 6.903-7.236s-3.101-7.236-6.903-7.236c-3.802 0-6.903 3.23-6.903 7.236 0 4.007 3.101 7.236 6.903 7.236z" fill="#E88024" fill-rule="nonzero"/><path d="M24.198 12.851h-3.422v10.128h-2.403V12.851H15V11h9.198v1.851zm.116 5.595c0-1.328.37-2.415 1.11-3.263.74-.847 1.766-1.27 3.077-1.27 1.317 0 2.348.422 3.094 1.266.746.845 1.119 1.934 1.119 3.267v.172c0 1.339-.372 2.429-1.115 3.27-.743.843-1.77 1.264-3.081 1.264-1.317 0-2.346-.421-3.09-1.263-.743-.842-1.114-1.932-1.114-3.27v-.173zm2.394.172c0 .812.142 1.463.428 1.954.285.491.746.737 1.382.737.62 0 1.074-.247 1.362-.74.287-.494.431-1.144.431-1.95v-.173c0-.79-.145-1.435-.436-1.934-.29-.5-.748-.749-1.374-.749-.62 0-1.073.251-1.361.753-.288.502-.432 1.145-.432 1.93v.172zm11.206 2.69c.417 0 .748-.124.995-.374s.37-.582.37-1h2.189l.016.05c.022.9-.312 1.652-1.003 2.259-.691.606-1.547.909-2.567.909-1.317 0-2.334-.421-3.053-1.263-.718-.842-1.078-1.919-1.078-3.23v-.246c0-1.306.358-2.382 1.074-3.23.716-.847 1.73-1.27 3.04-1.27 1.086 0 1.961.312 2.625.937.664.625.984 1.448.962 2.468l-.016.05h-2.189c0-.461-.122-.844-.366-1.148-.244-.304-.582-.457-1.016-.457-.62 0-1.06.249-1.32.745s-.391 1.131-.391 1.905v.246c0 .79.13 1.43.39 1.917.261.489.707.733 1.338.733v-.001zm10.218 1.67a5.053 5.053 0 0 1-.226-.64 4.464 4.464 0 0 1-.136-.692 3.293 3.293 0 0 1-.979 1.078c-.406.285-.888.428-1.448.428-.932 0-1.65-.24-2.155-.72-.505-.48-.757-1.134-.757-1.962 0-.873.336-1.549 1.007-2.029.672-.48 1.653-.72 2.942-.72h1.35v-.707c0-.428-.113-.76-.338-.996-.225-.235-.56-.353-1.004-.353-.39 0-.69.094-.9.283-.212.19-.318.449-.318.778h-2.312l-.016-.05c-.038-.75.29-1.4.983-1.945.694-.546 1.6-.819 2.72-.819 1.069 0 1.934.269 2.595.806.661.538.992 1.309.992 2.312v3.678c0 .417.031.81.094 1.177s.163.732.3 1.094h-2.394v-.001zm-2.196-1.603c.416 0 .79-.105 1.118-.313.33-.209.554-.45.675-.724v-1.259H46.38c-.51 0-.895.126-1.155.379-.26.252-.391.562-.391.93 0 .3.097.54.292.72.195.177.465.267.81.267z" fill="#000" fill-rule="nonzero"/><path d="M271.666 119.808v1.022h-4.9v3.47h4.174v1.052h-4.175v4.443h-1.44v-9.987h6.341zm1.262 2.582h1.324v7.287h-1.324v-7.287zm.018-3.31v1.315h1.349v-1.315h-1.349zm3.494 3.378h1.16c.005.232.037.538.097.92 1.151-1.367 3.486-1.614 4.287.293.783-1.213 1.557-1.535 2.819-1.326 1.596.266 1.834 2.068 1.911 2.75-.033 1.952-.012 3.669 0 4.7h-1.343v-4.7c-.04-.694-.274-1.718-1.453-1.718-1.18 0-1.708 1.081-1.708 1.718v4.7h-1.335v-4.7c0-.82-.503-1.883-1.689-1.718-1.185.165-1.284.697-1.49.976.015 1.658.015 3.472 0 5.442h-1.257v-7.337h.001zM27.93 156.249l.114 1.181a2.577 2.577 0 0 1 2.288-1.296c.839 0 1.487.229 1.944.763.458.495.687 1.258.687 2.287v4.957h-1.411v-4.919c0-.686-.153-1.181-.42-1.487-.266-.305-.686-.419-1.22-.419-.419 0-.762.114-1.067.305-.305.19-.572.458-.763.8v5.72h-1.41v-7.854l1.258-.038zm-5.14-2.64h1.433v10.594H22.79v-10.594zm12.414 2.542h1.433v7.99h-1.433v-7.99zm11.652.076h1.41v7.762h-1.41v-7.762zm.019-3.524v1.4h1.437v-1.4h-1.437zm-3.379 6.283c.502-.015.972 0 1.275 0 0-2.243-1.777-2.835-3.207-2.835-1.429 0-3.207 1.296-3.207 4.078 0 2.781 1.56 4.134 3.496 4.065 1.936-.07 2.918-1.542 2.918-2.626-.425.013-.85.013-1.275 0 0 1.024-.92 1.561-1.643 1.561-1.728 0-2.12-1.677-2.12-3.01 0-1.333.442-2.98 1.986-2.98 1.31 0 1.777 1.016 1.777 1.747zm10.003-2.849c.891-.049 2.02.26 2.65.901.699.708 1.198 1.59 1.198 3.044 0 1.288-.257 2.219-.867 2.971-.688.85-1.76 1.24-2.63 1.24-.902 0-1.88-.142-2.703-.902-.673-.622-1.296-1.688-1.234-3.176.069-1.644.598-2.582 1.234-3.177.643-.6 1.397-.85 2.352-.901zm.32 1.076c-1.022 0-2.258.666-2.258 2.735 0 2.068.763 3.298 2.133 3.298s2.27-1.391 2.131-3.298c-.139-1.908-.983-2.735-2.005-2.735h-.001zm-18.539-2.211h1.037l1.989-1.88h-1.687l-1.339 1.88z" fill="#2A3052" fill-rule="nonzero"/><path d="M35.452 59.318h1.13l-1.351 8.912h-1.096l1.317-8.912zm1.906 2.743h1.118l.893 4.812 2.272-4.812h1.119l-3.212 6.169h-.79l-1.4-6.169zm9.312-.083c1.505.234 2.34 1.66 1.774 3.833-.565 2.172-2.48 2.83-3.918 2.422-1.439-.408-1.797-2.277-1.287-3.895.51-1.618 1.928-2.593 3.432-2.36h-.001zm-.182.887c-1.127-.267-1.865.79-2.139 1.55-.274.762-.498 2.781.7 3.023 1.197.243 1.986-.647 2.32-1.777.332-1.129.247-2.528-.88-2.796h-.001zm-20.402 5.343l4.242-8.295h.984l1.66 8.295H31.82l-.383-2.158h-3.133l-1.07 2.158h-1.148zm2.713-3.06h2.455l-.666-3.657-1.789 3.658v-.001z" fill="#6D6E71" fill-rule="nonzero"/><path d="M177.61 165.885h-2.498v-8.267h2.499l-.001 8.267zm0 4.35h-2.498v-2.221h2.499l-.001 2.221zm-34.722-9.841h2.017l.102 1.47c.826-1.233 1.898-1.78 3.216-1.644.762.079 2.371.329 2.85 2.495.177.794.14 2.136.126 3.96a425.24 425.24 0 0 0 0 3.678h-2.214v-6.238c0-.734-.205-1.553-.82-1.863-.845-.426-2.437-.247-3.076.827v7.274h-2.201v-9.959zm-17.77 4.661v-1.673h5.063c.057 2.917.057 4.618 0 5.102-.427 1.277-5.484 3.599-8.748.654-.973-.878-1.431-1.85-1.681-3.323-.011-1.503-.038-2.914-.028-4.248.247-1.635.795-2.564 1.236-3.091 1.605-1.92 4.163-2.332 6.412-1.555 2.25.778 2.541 2.393 2.723 3.973-.52 0-.796-.022-2.202 0 .143-.889-.666-2.608-2.777-2.513-2.11.095-3.106 1.828-3.106 3.273 0 1.444-.076.96 0 3.83.096 3.296 4.047 4.18 5.883 2.42l.067-2.807-2.842-.042zm9.915-1.84c-.679-.005-1.391-.005-2.136 0 0-1.072.767-3.015 3.835-3.015 3.069 0 3.805 2.108 3.888 2.561.083.454-.213 6.818.429 7.541l-2.28.003c-.188-.645-.282-1.12-.282-1.429-.356.434-.968 1.228-1.908 1.519-.94.291-3.074.448-3.949-1.6-.576-1.351-.208-2.87.875-3.565 1.789-1.15 4.248-.766 4.982-.766.094-2.05-.518-2.527-1.908-2.527-.926 0-1.441.426-1.546 1.278zm3.453 2.651a36.73 36.73 0 0 0-2.251.019c-.895.079-1.692.74-1.624 1.683.081 1.123 1.359 1.33 2.359 1.006.84-.272 1.425-.975 1.516-1.274v-1.434zm29.68-5.66c1.1-.061 2.493.328 3.273 1.135.862.892 1.478 2.002 1.478 3.834 0 1.622-.318 2.794-1.07 3.742-.85 1.07-2.174 1.56-3.248 1.56-1.114 0-2.322-.178-3.337-1.135-.831-.783-1.6-2.126-1.523-4 .084-2.071.737-3.252 1.523-4.001.793-.757 1.725-1.07 2.904-1.135zm.219 1.767c-1.003 0-2.362.449-2.362 3.262s1.096 3.494 2.362 3.494c1.265 0 2.324-1.12 2.233-3.629-.09-2.509-1.23-3.127-2.233-3.127zm-14.863-6.024h2.118c.04 3.472.059 5.364.059 5.675.516-.802 2.014-1.894 3.611-1.4 2.535.785 2.42 2.439 2.535 3.549.077.74.077 2.9 0 6.483h-2.197c.06-2.958.06-5.059 0-6.303.08-2.156-2.6-2.805-4.008-.878l.059 7.18h-2.177v-14.306z" fill="#FFF" fill-rule="nonzero"/></g></svg>