<svg xmlns="http://www.w3.org/2000/svg" width="115" height="123"><g fill="none" fill-rule="evenodd" transform="translate(-13 -5)"><path fill="#E0F0F0" fill-rule="nonzero" d="M105 123H23c-5.523 0-10-4.477-10-10V15c0-5.523 4.477-10 10-10h70.37L115 26.64V113c0 5.523-4.477 10-10 10z"/><rect width="75.76" height="6.68" x="26.12" y="42.65" fill="#FFF" fill-rule="nonzero" rx="3"/><rect width="75.76" height="6.68" x="26.12" y="56.98" fill="#FFF" fill-rule="nonzero" rx="3"/><rect width="41.11" height="6.68" x="26.12" y="73.3" fill="#FFF" fill-rule="nonzero" rx="3"/><path fill="#BBCCCE" fill-rule="nonzero" d="M115 26.65h-11.62c-5.523 0-10-4.477-10-10V5L115 26.65z"/><path d="M0 0h128v128H0z"/><path fill="#FF444F" fill-rule="nonzero" d="M128 98.41H88.49a3.85 3.85 0 013.85-3.86h31.81a3.86 3.86 0 013.85 3.83v.03zm-39.51 25.7H128a3.86 3.86 0 01-3.85 3.85H92.34a3.85 3.85 0 01-3.85-3.85zm0-25.7H128v25.69H88.49z"/><path fill="#FFF" fill-rule="nonzero" d="M111.67 117.81l-1.93-7.67a3.61 3.61 0 002.09-3.88 3.63 3.63 0 00-7.22.58 3.62 3.62 0 002.14 3.3l-1.93 7.67a1.2 1.2 0 001.16 1.5h4.52a1.21 1.21 0 001.17-1.5z"/><path fill="#FF444F" fill-rule="nonzero" d="M123.93 94.52h-4.86V92a10.37 10.37 0 00-10.42-10.42h-.27A10.37 10.37 0 0098 92v2.54h-4.89V92c.011-8.429 6.841-15.259 15.27-15.27h.27c8.433.006 15.269 6.837 15.28 15.27v2.52z"/></g></svg>