<svg width="24" height="24" xmlns="http://www.w3.org/2000/svg"><g fill-rule="nonzero" fill="none"><path d="M23.918 12.225c0-.984-.082-1.701-.258-2.445H12.203v4.438h6.725c-.136 1.103-.868 2.763-2.495 3.88l-.023.148 3.623 2.75.25.025c2.306-2.086 3.635-5.156 3.635-8.796" fill="#4285F4"/><path d="M12.203 23.918c3.295 0 6.06-1.063 8.08-2.897l-3.85-2.923c-1.03.704-2.413 1.195-4.23 1.195a7.332 7.332 0 0 1-6.942-4.969l-.143.012-3.767 2.857-.05.134c2.007 3.906 6.13 6.59 10.902 6.59" fill="#34A853"/><path d="M5.26 14.324a7.23 7.23 0 0 1-.406-2.365c0-.824.15-1.621.393-2.365l-.007-.159-3.814-2.903-.124.059A11.775 11.775 0 0 0 0 11.959c0 1.926.475 3.747 1.302 5.368l3.959-3.003" fill="#FBBC05"/><path d="M12.203 4.624c2.291 0 3.837.97 4.718 1.78l3.444-3.295C18.25 1.183 15.498 0 12.203 0 7.43 0 3.308 2.684 1.302 6.59l3.945 3.004c.99-2.884 3.729-4.97 6.956-4.97" fill="#EB4335"/></g></svg>