<svg xmlns="http://www.w3.org/2000/svg" viewBox="-15413 -21447 110.725 48"><defs><style>.cls-1{fill:#2a3052}</style></defs><g id="Group_2" data-name="Group 2" transform="translate(-16240.125 -21976)"><g id="noun_603839_cc_1_" data-name="noun_603839_cc (1)" transform="translate(827.125 529)"><path id="Path_2608" data-name="Path 2608" class="cls-1" d="M8.912 55.5h45.176a1.412 1.412 0 0 0 1.412-1.412V48.44a1.412 1.412 0 0 0-1.412-1.412h-4.235V27.264h4.235a1.412 1.412 0 0 0 1.412-1.412v-5.647a1.411 1.411 0 0 0-.78-1.263L32.131 7.649a1.408 1.408 0 0 0-1.263 0L8.28 18.943a1.412 1.412 0 0 0-.78 1.263v5.647a1.412 1.412 0 0 0 1.412 1.412h4.235v19.764H8.912A1.412 1.412 0 0 0 7.5 48.44v5.647A1.412 1.412 0 0 0 8.912 55.5zm1.412-31.059v-3.363L31.5 10.49l21.176 10.588v3.363H10.324zm36.706 2.824v19.764h-2.824V27.264zm-5.647 0v19.764h-5.648V27.264zm-8.471 0v19.764h-2.824V27.264zm-5.647 0v19.764h-5.647V27.264zm-8.471 0v19.764h-2.823V27.264zm-8.47 22.587h42.352v2.824H10.324z" transform="translate(-7.5 -7.499)"/></g><g id="noun_1100084_cc" transform="translate(883 529)"><path id="Path_2609" data-name="Path 2609" class="cls-1" d="M37.7 19.953V7.351A1.157 1.157 0 0 1 38.849 6.2H48a1.157 1.157 0 0 1 1.151 1.151V14.2A1.157 1.157 0 0 1 48 15.351h-8.055V19.9h5.7a1.157 1.157 0 0 1 1.151 1.151v5.7h3.452A1.157 1.157 0 0 1 51.4 27.9v24h2.3a1.151 1.151 0 0 1 0 2.3H1.151a1.151 1.151 0 1 1 0-2.3h2.3v-24A1.157 1.157 0 0 1 4.6 26.748h3.455v-5.7a1.157 1.157 0 0 1 1.15-1.148H22.9V7.351A1.157 1.157 0 0 1 24.055 6.2h9.151a1.157 1.157 0 0 1 1.151 1.151V14.2a1.157 1.157 0 0 1-1.151 1.151H25.1V19.9h12.6zM43.4 35.9a1.157 1.157 0 0 0-1.151 1.151A1.124 1.124 0 0 0 43.4 38.2h2.3a1.157 1.157 0 0 0 1.151-1.151A1.124 1.124 0 0 0 45.7 35.9zm-6.849 0a1.157 1.157 0 0 0-1.151 1.149 1.124 1.124 0 0 0 1.148 1.151h2.3A1.157 1.157 0 0 0 40 37.049a1.124 1.124 0 0 0-1.151-1.149zm-8 0a1.157 1.157 0 0 0-1.151 1.149 1.124 1.124 0 0 0 1.148 1.151h2.3A1.157 1.157 0 0 0 32 37.049a1.124 1.124 0 0 0-1.151-1.149zM24 35.9a1.157 1.157 0 0 1 1.151 1.151V51.9h24V29.049H5.7V51.9h3.451V37.049a1.147 1.147 0 0 1 1.1-1.151H24zm-12.6 2.3v13.7h11.4V38.2zm-1.1-11.4h34.248v-4.545H10.3V26.8zm21.645-13.7V8.556H25.1V13.1h6.849zm14.849 0V8.556h-6.849V13.1h6.849z" transform="translate(0 -6.2)"/></g></g></svg>