<svg id="Layer_1" xmlns="http://www.w3.org/2000/svg" viewBox="0 0 527 98"><style>.st0{fill:#2a3052}.st1{enable-background:new}.st2,.st3{fill:none;stroke:#2a3052;stroke-width:2;stroke-miterlimit:10}.st3{stroke:#e98024}.st4{fill:#f2f2f2}</style><g id="Group_13" transform="translate(-15405 -20949.301)"><g id="Group_8"><path id="Path_2615" class="st0" d="M15552.7 20977.5h-65.3c-1.9 0-3.4 1.4-3.4 3.3v50.1c0 1.9 1.5 3.4 3.3 3.4h23.8l-1.5 9.9h-4.1c-.7 0-1.3.6-1.3 1.3 0 .7.6 1.3 1.3 1.3h29.2c.7 0 1.3-.6 1.3-1.3 0-.7-.6-1.3-1.3-1.3h-4.1l-1.5-9.9h23.7c1.9 0 3.4-1.5 3.4-3.3v-50.2c-.1-1.8-1.7-3.3-3.5-3.3zm-40.6 66.7l1.5-9.9h12.7l1.5 9.9h-15.7zm41.4-12.5h-66.9v-10h66.9v10zm0-12.5h-66.9v-39.2h66.9v39.2z"/><path id="Path_2616" class="st0" d="M15520 21028.6c1.1 0 2-.9 2-2s-.9-2-2-2-2 .9-2 2 .9 2 2 2z"/></g><g class="st1"><path class="st0" d="M15501.1 20990.9l5.3 13.6h.1l5.4-13.6h2.9v16.8h-2.3v-6.6l.2-6.8h-.1l-5.4 13.5h-1.5l-5.4-13.4h-.1l.2 6.8v6.6h-2.3v-16.8h3zM15530 20992.7h-5.4v15h-2.3v-15h-5.4v-1.8h13.1v1.8zM15532.4 21000.1l1-9.2h8.4v2h-6.5l-.6 4.7c.4-.3.7-.5 1.2-.7.4-.2.9-.3 1.5-.3 1.5 0 2.8.5 3.6 1.5.9 1 1.3 2.4 1.3 4.1 0 1.7-.5 3-1.4 4.1-.9 1-2.2 1.5-3.9 1.5-1.4 0-2.6-.4-3.6-1.2-.9-.8-1.4-1.9-1.4-3.4v-.1h2.1c0 .9.3 1.6.8 2.1s1.2.8 2 .8c1 0 1.7-.3 2.2-1s.8-1.6.8-2.8c0-1.1-.3-2-.8-2.6-.5-.7-1.3-1-2.2-1-.9 0-1.5.1-1.9.4-.4.3-.7.7-.9 1.2l-1.7-.1z"/></g><g id="Group_10"><g id="Group_9"><path id="Path_2617" class="st0" d="M15473.7 20977.3h-65.3c-1.9 0-3.4 1.4-3.4 3.3v50.1c0 1.9 1.5 3.4 3.3 3.4H15432l-1.5 9.9h-4.1c-.7 0-1.3.6-1.3 1.3s.6 1.3 1.3 1.3h29.2c.7 0 1.3-.6 1.3-1.3 0-.7-.6-1.3-1.3-1.3h-4.1l-1.5-9.9h23.7c1.9 0 3.4-1.5 3.4-3.3v-50.2c-.1-1.8-1.6-3.3-3.4-3.3zm-40.6 66.7l1.5-9.9h12.7l1.5 9.9h-15.7zm41.4-12.5h-66.9v-10h66.9v10zm0-12.5h-66.9v-39.2h66.9v39.2z"/><path id="Path_2618" class="st0" d="M15441 21028.4c1.1 0 2-.9 2-2s-.9-2-2-2-2 .9-2 2 .9 2 2 2z"/></g><g class="st1"><path class="st0" d="M15422.1 20990.7l5.4 13.6h.1l5.3-13.6h2.9v16.8h-2.3v-6.6l.2-6.8h-.1l-5.4 13.5h-1.5l-5.4-13.4h-.1l.2 6.8v6.6h-2.3v-16.8h3zM15450.9 20992.5h-5.4v15h-2.3v-15h-5.4v-1.8h13.1v1.8zM15461.8 21001.8h2.3v1.8h-2.3v3.9h-2.3v-3.9h-7.5v-1.3l7.4-11.6h2.4v11.1zm-7.4 0h5.1v-7.9h-.1l-.2.6-4.8 7.3z"/></g></g><path id="Path_2619" class="st0" d="M15865.1 21046.7h64.9c1.1 0 2-.9 2-2v-8.1c0-1.1-.9-2-2-2h-6.1v-28.5h6.1c1.1 0 2-.9 2-2v-8.1c0-.8-.4-1.5-1.1-1.8l-32.4-16.3c-.6-.3-1.2-.3-1.8 0l-32.5 16.2c-.7.3-1.1 1-1.1 1.8v8.1c0 1.1.9 2 2 2h6.1v28.4h-6.1c-1.1 0-2 .9-2 2v8.1c-.1 1.1.8 2.1 2 2.2-.1 0 0 0 0 0zm2-44.6v-4.8l30.5-15.3 30.4 15.3v4.8h-60.9zm52.8 4v28.4h-4.1v-28.4h4.1zm-8.1 0v28.4h-8.1v-28.4h8.1zm-12.2 0v28.4h-4.1v-28.4h4.1zm-8.1 0v28.4h-8.1v-28.4h8.1zm-12.2 0v28.4h-4.1v-28.4h4.1zm-12.2 32.5h60.9v4.1h-60.9v-4.1z"/><g id="Group_11"><path id="Line_51" class="st2" d="M15573.1 20998.5h53"/><path id="Path_2620" class="st2" d="M15621.1 20988.5l10 10-10 10"/><path id="Line_52" class="st3" d="M15631.1 21024.5h-53"/><path id="Path_2621" class="st3" d="M15583 21034.5l-10-10 10-10"/></g><g id="Group_12"><path id="Line_53" class="st2" d="M15784.1 20998.5h53"/><path id="Path_2622" class="st2" d="M15832.1 20988.5l10 10-10 10"/><path id="Line_54" class="st3" d="M15842.1 21024.5h-53"/><path id="Path_2623" class="st3" d="M15794 21034.5l-10-10 10-10"/></g><path id="Rectangle_12" class="st4" d="M15645.3 20949.3h118v29h-118z"/><g class="st1"><path class="st0" d="M15662.6 20964.4c0 1.2-.4 2.2-1.1 3-.8.8-1.7 1.2-2.9 1.2s-2.1-.4-2.8-1.2c-.7-.8-1.1-1.8-1.1-3v-1.8c0-1.2.4-2.2 1.1-3 .7-.8 1.7-1.2 2.8-1.2 1.2 0 2.2.4 2.9 1.2.8.8 1.1 1.8 1.1 3v1.8zm-1.4-1.7c0-.9-.2-1.7-.7-2.2-.5-.6-1.2-.9-2-.9s-1.4.3-1.9.9c-.5.6-.7 1.3-.7 2.2v1.8c0 .9.2 1.7.7 2.3.5.6 1.1.9 1.9.9.8 0 1.5-.3 2-.9.5-.6.7-1.3.7-2.3v-1.8zM15665.5 20961.1l.1 1.1c.2-.4.6-.7.9-.9.4-.2.8-.3 1.3-.3.8 0 1.4.2 1.9.7.4.5.7 1.2.7 2.2v4.7h-1.3v-4.6c0-.7-.1-1.1-.4-1.4-.3-.3-.7-.4-1.2-.4-.4 0-.7.1-1 .3-.3.2-.5.4-.7.8v5.4h-1.3v-7.4h1zM15675.3 20968.7c-1 0-1.8-.3-2.5-1-.6-.7-.9-1.6-.9-2.7v-.3c0-1.1.3-1.9.9-2.6.6-.7 1.4-1 2.2-1 1 0 1.8.3 2.3.9s.8 1.4.8 2.4v.8h-4.8c0 .7.2 1.3.5 1.7s.8.7 1.5.7c.5 0 .9-.1 1.2-.2.3-.1.6-.3.9-.5l.5.9c-.3.3-.6.5-1 .7-.4.1-.9.2-1.6.2zm-.2-6.6c-.5 0-.8.2-1.2.6-.3.4-.5.9-.6 1.4h3.4v-.2c0-.5-.1-1-.4-1.3-.2-.4-.6-.5-1.2-.5zM15684.4 20967.5h5.6v1.1h-7.1v-1l5.3-7.9h-5.2v-1.1h6.8v1l-5.4 7.9zM15694.5 20968.7c-1 0-1.8-.3-2.5-1-.6-.7-.9-1.6-.9-2.7v-.3c0-1.1.3-1.9.9-2.6.6-.7 1.4-1 2.2-1 1 0 1.8.3 2.3.9s.8 1.4.8 2.4v.8h-4.8c0 .7.2 1.3.5 1.7s.8.7 1.5.7c.5 0 .9-.1 1.2-.2.3-.1.6-.3.9-.5l.5.9c-.3.3-.6.5-1 .7-.5.1-1 .2-1.6.2zm-.2-6.6c-.5 0-.8.2-1.2.6-.3.4-.5.9-.6 1.4h3.4v-.2c0-.5-.1-1-.4-1.3-.3-.4-.7-.5-1.2-.5zM15702.3 20962.3h-.7c-.4 0-.7.1-.9.3-.2.2-.4.4-.6.7v5.3h-1.3v-7.4h1.2l.1 1.1c.2-.4.5-.7.8-.9.3-.2.7-.3 1.1-.3h.3c.1 0 .2 0 .2.1l-.2 1.1zM15703.1 20964.8c0-1.1.3-2 .9-2.7s1.4-1.1 2.4-1.1 1.8.4 2.4 1.1c.6.7.9 1.6.9 2.7v.2c0 1.1-.3 2-.9 2.7-.6.7-1.4 1.1-2.4 1.1s-1.8-.4-2.4-1.1c-.6-.7-.9-1.6-.9-2.7v-.2zm1.4.1c0 .8.2 1.4.5 1.9s.8.8 1.5.8c.6 0 1.1-.3 1.5-.8s.5-1.2.5-1.9v-.1c0-.8-.2-1.4-.5-1.9s-.8-.8-1.5-.8c-.6 0-1.1.3-1.5.8-.3.5-.5 1.2-.5 1.9v.1zM15715.1 20968.5v-10h3.2c1 0 1.9.2 2.4.7.6.4.9 1.1.9 2 0 .4-.1.8-.4 1.2-.3.3-.7.6-1.1.8.6.1 1.1.4 1.4.9.3.5.5 1 .5 1.6 0 .9-.3 1.6-.9 2.1-.6.5-1.4.7-2.4.7h-3.6zm1.4-5.7h2.2c.5 0 .9-.1 1.2-.4.3-.3.5-.7.5-1.2s-.2-.9-.5-1.2c-.3-.3-.8-.4-1.5-.4h-1.9v3.2zm0 1.1v3.6h2.3c.6 0 1.1-.2 1.4-.5.3-.3.5-.7.5-1.3 0-.6-.1-1-.4-1.4-.3-.3-.7-.5-1.3-.5h-2.5zM15727.3 20962.3h-.7c-.4 0-.7.1-.9.3-.2.2-.4.4-.6.7v5.3h-1.3v-7.4h1.2l.1 1.1c.2-.4.5-.7.8-.9.3-.2.7-.3 1.1-.3h.3c.1 0 .2 0 .2.1l-.2 1.1zM15730.1 20959.2h-1.3v-1.4h1.3v1.4zm0 9.3h-1.3v-7.4h1.3v7.4zM15731.9 20965c0-1.2.3-2.1.8-2.9.5-.7 1.2-1.1 2.1-1.1.4 0 .8.1 1.2.2.3.2.6.4.9.7v-4.1h1.3v10.7h-1.1l-.2-.9c-.2.3-.5.6-.9.8s-.8.3-1.2.3c-.9 0-1.6-.3-2.1-1s-.8-1.5-.8-2.6v-.1zm1.3.1c0 .7.2 1.3.5 1.8.3.4.8.7 1.4.7.4 0 .7-.1 1-.3.3-.2.5-.4.7-.8v-3.5c-.2-.3-.4-.5-.7-.7-.3-.2-.6-.3-1-.3-.6 0-1.1.3-1.4.8-.3.5-.5 1.2-.5 2.1v.2zM15739.8 20965c0-1.2.3-2.1.8-2.9.5-.7 1.2-1.1 2.2-1.1.5 0 .9.1 1.2.3s.7.5.9.8l.2-1h1.1v7.4c0 .9-.3 1.7-.8 2.2s-1.3.8-2.4.8c-.4 0-.7 0-1.2-.1-.4-.1-.8-.2-1.1-.4l.3-1c.2.1.5.2.9.3.3.1.7.1 1 .1.7 0 1.1-.1 1.4-.4.3-.3.4-.8.4-1.4v-.8c-.2.3-.5.5-.9.7-.3.2-.7.2-1.2.2-.9 0-1.6-.3-2.1-1s-.8-1.5-.8-2.6v-.1zm1.4.1c0 .7.2 1.3.5 1.8s.8.7 1.4.7c.4 0 .7-.1 1-.3.3-.2.5-.4.7-.8v-3.4c-.2-.3-.4-.6-.7-.7-.3-.2-.6-.3-1-.3-.6 0-1.1.3-1.4.8-.3.5-.5 1.2-.5 2.1v.1zM15751.2 20968.7c-1 0-1.8-.3-2.5-1-.6-.7-.9-1.6-.9-2.7v-.3c0-1.1.3-1.9.9-2.6.6-.7 1.4-1 2.2-1 1 0 1.8.3 2.3.9s.8 1.4.8 2.4v.8h-4.8c0 .7.2 1.3.5 1.7s.8.7 1.5.7c.5 0 .9-.1 1.2-.2.3-.1.6-.3.9-.5l.5.9c-.3.3-.6.5-1 .7-.5.1-1 .2-1.6.2zm-.3-6.6c-.5 0-.8.2-1.2.6-.3.4-.5.9-.6 1.4h3.4v-.2c0-.5-.1-1-.4-1.3-.2-.4-.6-.5-1.2-.5z"/></g><path id="Path_2638" class="st0" d="M15683.3 20991.3h4v2h-4v-2zm6 2h4v-2h-4v2zm8 0h8v-2h-8v2zm-14 16h4v-2h-4v2zm6 0h4v-2h-4v2zm8 0h8v-2h-8v2zm-14 16h4v-2h-4v2zm6 0h4v-2h-4v2zm8 0h8v-2h-8v2zm7 14c-1.1 0-2 .9-2 2s.9 2 2 2 2-.9 2-2-.9-2-2-2zm31 2c0 .5-.4 1-.9 1H15710.2c-.5 3.3-3.6 5.5-6.9 4.9-2.5-.4-4.5-2.4-4.9-4.9h-24.1c-.6 0-1-.4-1-1s.4-1 1-1h24.1c.4-2.5 2.4-4.5 4.9-4.9v-4.1h-25c-.5 0-1-.4-1-.9v-12.1c0-.5.4-1 .9-1h25.1v-2h-25c-.5 0-1-.4-1-.9v-12.1c0-.5.4-1 .9-1h25.1v-2h-25c-.5 0-1-.4-1-.9v-12.1c0-.5.4-1 .9-1h52.1c.5 0 1 .4 1 .9v12.1c0 .5-.4 1-.9 1h-25.1v2h25c.5 0 1 .4 1 .9v12.1c0 .5-.4 1-.9 1h-25.1v2h25c.5 0 1 .4 1 .9v12.1c0 .5-.4 1-.9 1h-25.1v4.1c2.5.4 4.5 2.4 4.9 4.9h24.1c.6 0 1 .4 1 1zm-56-44h50v-10h-50v10zm0 16h50v-10h-50v10zm0 16h50v-10h-50v10zm29 12c0-2.2-1.8-4-4-4s-4 1.8-4 4 1.8 4 4 4 4-1.8 4-4z"/></g></svg>