<svg width="32" height="32" fill="none" xmlns="http://www.w3.org/2000/svg">
    <path d="M27.556 0H4.444A4.444 4.444 0 000 4.444v23.112A4.444 4.444 0 004.444 32h23.112A4.444 4.444 0 0032 27.556V4.444A4.444 4.444 0 0027.556 0z" fill="#313C86"/>
    <path fill-rule="evenodd" clip-rule="evenodd" d="M26.208 10.889c-1.174 0-2.31.412-3.211 1.163l-8.286 6.924a4.68 4.68 0 01-1.975 2.348h.893c1.169 0 2.3-.41 3.2-1.156L28 10.888h-1.792zm-6.305 2.765l-2.08-2.765H14.21l3.49 4.602 2.203-1.837zm2.222 7.67l-2.131-2.81 2.196-1.82 3.486 4.63h-3.55zm-8.207-8.897a3.965 3.965 0 00-3.13-1.528H6.395l1.63 2.021h2.776a1.935 1.935 0 011.526.752 2.069 2.069 0 01.383 1.737l-.521 2.32a1.967 1.967 0 01-1.91 1.564H6.546L4 21.323h6.274a4 4 0 003.882-3.13l.521-2.317a4.1 4.1 0 00-.759-3.449zM7.861 13.85l1.716 2.126-2.676 2.126-2.747 2.178L6.1 11.67l1.76 2.18z" fill="#fff"/>
</svg>
