<svg width="32" height="32" fill="none" xmlns="http://www.w3.org/2000/svg"><path d="M0 6a6 6 0 0 1 6-6h20a6 6 0 0 1 6 6v20a6 6 0 0 1-6 6H6a6 6 0 0 1-6-6V6z" fill="#1A1A1A"/><path d="m6.705 10.5 4.212 5.5-6.75 5.5h6.822a4.278 4.278 0 0 0 4.167-3.316l.565-2.447a4.275 4.275 0 0 0-4.167-5.237H6.705z" fill="var(--brand-red-coral)"/><path d="m10.917 16-3 5.5h-3.75l6.75-5.5z" fill="#CC2F3E"/><path d="M20.526 10.5H17.27l2.563 5.5-4.503 5.5h3.258l4.5-5.5-2.562-5.5zm4.176 0h3.295l-3.907 4.726-1.181-2.535 1.793-2.191zm-1.942 11-1.019-2.189 2.076-2.535 2.201 4.724H22.76z" fill="#fff"/></svg>