<svg width="138" height="162" viewBox="0 0 138 162" fill="none" xmlns="http://www.w3.org/2000/svg">
<g filter="url(#filter0_dd_4473_9278)">
<rect x="3" y="2" width="132" height="156" rx="4" fill="white"/>
<path fill-rule="evenodd" clip-rule="evenodd" d="M19.348 19.5051C20.1818 18.7721 20.708 17.6975 20.708 16.5C20.708 15.3025 20.1818 14.2279 19.348 13.4949C20.0524 12.8756 20.9764 12.5 21.988 12.5C24.1971 12.5 25.988 14.2909 25.988 16.5C25.988 18.7091 24.1971 20.5 21.988 20.5C20.9764 20.5 20.0524 20.1244 19.348 19.5051ZM19.348 19.5051C18.6436 20.1244 17.7197 20.5 16.708 20.5C14.4989 20.5 12.708 18.7091 12.708 16.5C12.708 14.2909 14.4989 12.5 16.708 12.5C17.7197 12.5 18.6436 12.8756 19.348 13.4949C18.5142 14.2279 17.988 15.3025 17.988 16.5C17.988 17.6975 18.5142 18.7721 19.348 19.5051Z" fill="#FFAD3A"/>
<path d="M10.708 11H127.292V9H10.708V11ZM127.292 21.5938H10.708V23.5938H127.292V21.5938Z" fill="#85ACB0" mask="url(#path-2-inside-1_4473_9278)"/>
<path d="M14.43 28.51V30.99C14.43 31.15 14.4033 31.2967 14.35 31.43C14.3 31.56 14.225 31.6717 14.125 31.765C14.025 31.855 13.9033 31.9267 13.76 31.98C13.62 32.03 13.46 32.055 13.28 32.055C13.1067 32.055 12.9533 32.0317 12.82 31.985C12.69 31.9383 12.5767 31.8717 12.48 31.785C12.3867 31.6983 12.31 31.595 12.25 31.475C12.19 31.355 12.1483 31.2217 12.125 31.075L12.835 30.935C12.8917 31.2383 13.0367 31.39 13.27 31.39C13.38 31.39 13.4733 31.355 13.55 31.285C13.63 31.215 13.67 31.105 13.67 30.955V29.12H12.61V28.51H14.43ZM16.203 32.06C16.0096 32.06 15.8363 32.0283 15.683 31.965C15.533 31.9017 15.4046 31.81 15.298 31.69C15.1946 31.57 15.1146 31.425 15.058 31.255C15.0013 31.085 14.973 30.895 14.973 30.685C14.973 30.475 15.0013 30.285 15.058 30.115C15.1146 29.945 15.1946 29.8017 15.298 29.685C15.4046 29.565 15.533 29.4733 15.683 29.41C15.8363 29.3467 16.0096 29.315 16.203 29.315C16.3963 29.315 16.568 29.3467 16.718 29.41C16.8713 29.4733 16.9996 29.565 17.103 29.685C17.2096 29.8017 17.2913 29.945 17.348 30.115C17.4046 30.285 17.433 30.475 17.433 30.685C17.433 30.895 17.4046 31.085 17.348 31.255C17.2913 31.425 17.2096 31.57 17.103 31.69C16.9996 31.81 16.8713 31.9017 16.718 31.965C16.568 32.0283 16.3963 32.06 16.203 32.06ZM16.203 31.475C16.3496 31.475 16.463 31.43 16.543 31.34C16.623 31.25 16.663 31.1217 16.663 30.955V30.42C16.663 30.2533 16.623 30.125 16.543 30.035C16.463 29.945 16.3496 29.9 16.203 29.9C16.0563 29.9 15.943 29.945 15.863 30.035C15.783 30.125 15.743 30.2533 15.743 30.42V30.955C15.743 31.1217 15.783 31.25 15.863 31.34C15.943 31.43 16.0563 31.475 16.203 31.475ZM17.9602 28.3H18.7002V29.82H18.7302C18.7769 29.6833 18.8586 29.565 18.9752 29.465C19.0919 29.365 19.2536 29.315 19.4602 29.315C19.7302 29.315 19.9336 29.405 20.0702 29.585C20.2102 29.765 20.2802 30.0217 20.2802 30.355V32H19.5402V30.415C19.5402 30.245 19.5136 30.12 19.4602 30.04C19.4069 29.9567 19.3119 29.915 19.1752 29.915C19.1152 29.915 19.0569 29.9233 19.0002 29.94C18.9436 29.9533 18.8919 29.9767 18.8452 30.01C18.8019 30.0433 18.7669 30.085 18.7402 30.135C18.7136 30.1817 18.7002 30.2367 18.7002 30.3V32H17.9602V28.3ZM20.9388 32V29.375H21.6788V29.82H21.7088C21.7554 29.6833 21.8371 29.565 21.9538 29.465C22.0704 29.365 22.2321 29.315 22.4388 29.315C22.7088 29.315 22.9121 29.405 23.0488 29.585C23.1888 29.765 23.2588 30.0217 23.2588 30.355V32H22.5188V30.415C22.5188 30.245 22.4921 30.12 22.4388 30.04C22.3854 29.9567 22.2904 29.915 22.1538 29.915C22.0938 29.915 22.0354 29.9233 21.9788 29.94C21.9221 29.9533 21.8704 29.9767 21.8238 30.01C21.7804 30.0433 21.7454 30.085 21.7188 30.135C21.6921 30.1817 21.6788 30.2367 21.6788 30.3V32H20.9388ZM27.3539 31.445H27.3289C27.3022 31.6217 27.2122 31.7683 27.0589 31.885C26.9056 32.0017 26.6972 32.06 26.4339 32.06C26.2339 32.06 26.0472 32.0217 25.8739 31.945C25.7006 31.8683 25.5489 31.755 25.4189 31.605C25.2889 31.455 25.1872 31.2683 25.1139 31.045C25.0406 30.8217 25.0039 30.5633 25.0039 30.27C25.0039 29.9767 25.0422 29.7167 25.1189 29.49C25.1956 29.2633 25.3022 29.0733 25.4389 28.92C25.5789 28.7667 25.7456 28.65 25.9389 28.57C26.1322 28.49 26.3472 28.45 26.5839 28.45C26.8972 28.45 27.1672 28.5183 27.3939 28.655C27.6206 28.7883 27.7989 28.99 27.9289 29.26L27.3089 29.615C27.2556 29.4783 27.1722 29.3633 27.0589 29.27C26.9456 29.1733 26.7872 29.125 26.5839 29.125C26.3472 29.125 26.1589 29.1933 26.0189 29.33C25.8789 29.4667 25.8089 29.6817 25.8089 29.975V30.535C25.8089 30.825 25.8789 31.04 26.0189 31.18C26.1589 31.3167 26.3472 31.385 26.5839 31.385C26.6772 31.385 26.7656 31.375 26.8489 31.355C26.9322 31.3317 27.0056 31.2983 27.0689 31.255C27.1322 31.2083 27.1806 31.1533 27.2139 31.09C27.2506 31.0267 27.2689 30.9517 27.2689 30.865V30.69H26.6189V30.055H27.9939V32H27.3539V31.445ZM29.7577 32.06C29.5643 32.06 29.391 32.0283 29.2377 31.965C29.0877 31.9017 28.9593 31.81 28.8527 31.69C28.7493 31.57 28.6693 31.425 28.6127 31.255C28.556 31.085 28.5277 30.895 28.5277 30.685C28.5277 30.475 28.556 30.285 28.6127 30.115C28.6693 29.945 28.7493 29.8017 28.8527 29.685C28.9593 29.565 29.0877 29.4733 29.2377 29.41C29.391 29.3467 29.5643 29.315 29.7577 29.315C29.951 29.315 30.1227 29.3467 30.2727 29.41C30.426 29.4733 30.5543 29.565 30.6577 29.685C30.7643 29.8017 30.846 29.945 30.9027 30.115C30.9593 30.285 30.9877 30.475 30.9877 30.685C30.9877 30.895 30.9593 31.085 30.9027 31.255C30.846 31.425 30.7643 31.57 30.6577 31.69C30.5543 31.81 30.426 31.9017 30.2727 31.965C30.1227 32.0283 29.951 32.06 29.7577 32.06ZM29.7577 31.475C29.9043 31.475 30.0177 31.43 30.0977 31.34C30.1777 31.25 30.2177 31.1217 30.2177 30.955V30.42C30.2177 30.2533 30.1777 30.125 30.0977 30.035C30.0177 29.945 29.9043 29.9 29.7577 29.9C29.611 29.9 29.4977 29.945 29.4177 30.035C29.3377 30.125 29.2977 30.2533 29.2977 30.42V30.955C29.2977 31.1217 29.3377 31.25 29.4177 31.34C29.4977 31.43 29.611 31.475 29.7577 31.475ZM31.5149 32V29.375H32.2549V29.82H32.2849C32.3316 29.6833 32.4133 29.565 32.5299 29.465C32.6466 29.365 32.8083 29.315 33.0149 29.315C33.2849 29.315 33.4883 29.405 33.6249 29.585C33.7649 29.765 33.8349 30.0217 33.8349 30.355V32H33.0949V30.415C33.0949 30.245 33.0683 30.12 33.0149 30.04C32.9616 29.9567 32.8666 29.915 32.7299 29.915C32.6699 29.915 32.6116 29.9233 32.5549 29.94C32.4983 29.9533 32.4466 29.9767 32.3999 30.01C32.3566 30.0433 32.3216 30.085 32.2949 30.135C32.2683 30.1817 32.2549 30.2367 32.2549 30.3V32H31.5149ZM34.3434 32V31.415L35.6484 29.95H34.3884V29.375H36.5084V29.955L35.1984 31.425H36.5434V32H34.3434ZM39.0213 32C38.888 32 38.7763 31.9583 38.6863 31.875C38.5997 31.7917 38.5447 31.68 38.5213 31.54H38.4913C38.4513 31.71 38.363 31.84 38.2263 31.93C38.0897 32.0167 37.9213 32.06 37.7213 32.06C37.458 32.06 37.2563 31.99 37.1163 31.85C36.9763 31.71 36.9063 31.525 36.9063 31.295C36.9063 31.0183 37.0063 30.8133 37.2063 30.68C37.4097 30.5433 37.6847 30.475 38.0313 30.475H38.4463V30.31C38.4463 30.1833 38.413 30.0833 38.3463 30.01C38.2797 29.9333 38.168 29.895 38.0113 29.895C37.8647 29.895 37.748 29.9267 37.6613 29.99C37.5747 30.0533 37.503 30.125 37.4463 30.205L37.0063 29.815C37.113 29.6583 37.2463 29.5367 37.4063 29.45C37.5697 29.36 37.7897 29.315 38.0663 29.315C38.4397 29.315 38.7197 29.3967 38.9063 29.56C39.093 29.7233 39.1863 29.9617 39.1863 30.275V31.425H39.4313V32H39.0213ZM37.9963 31.545C38.1197 31.545 38.2247 31.5183 38.3113 31.465C38.4013 31.4117 38.4463 31.325 38.4463 31.205V30.895H38.0863C37.7963 30.895 37.6513 30.9933 37.6513 31.19V31.265C37.6513 31.3617 37.6813 31.4333 37.7413 31.48C37.8013 31.5233 37.8863 31.545 37.9963 31.545ZM40.663 32C40.4097 32 40.223 31.9383 40.103 31.815C39.9863 31.6917 39.928 31.5133 39.928 31.28V28.3H40.668V31.425H40.998V32H40.663ZM42.5367 32.06C42.3367 32.06 42.1583 32.0283 42.0017 31.965C41.845 31.8983 41.7117 31.8067 41.6017 31.69C41.495 31.57 41.4133 31.425 41.3567 31.255C41.3033 31.085 41.2767 30.895 41.2767 30.685C41.2767 30.4783 41.3033 30.2917 41.3567 30.125C41.41 29.955 41.4883 29.81 41.5917 29.69C41.6983 29.57 41.8283 29.4783 41.9817 29.415C42.135 29.3483 42.31 29.315 42.5067 29.315C42.7233 29.315 42.9083 29.3517 43.0617 29.425C43.2183 29.4983 43.345 29.5967 43.4417 29.72C43.5417 29.8433 43.6133 29.9867 43.6567 30.15C43.7033 30.31 43.7267 30.4783 43.7267 30.655V30.875H42.0417V30.915C42.0417 31.0883 42.0883 31.2267 42.1817 31.33C42.275 31.43 42.4217 31.48 42.6217 31.48C42.775 31.48 42.9 31.45 42.9967 31.39C43.0933 31.3267 43.1833 31.2517 43.2667 31.165L43.6367 31.625C43.52 31.7617 43.3667 31.8683 43.1767 31.945C42.99 32.0217 42.7767 32.06 42.5367 32.06ZM42.5217 29.86C42.3717 29.86 42.2533 29.91 42.1667 30.01C42.0833 30.1067 42.0417 30.2367 42.0417 30.4V30.44H42.9617V30.395C42.9617 30.235 42.925 30.1067 42.8517 30.01C42.7817 29.91 42.6717 29.86 42.5217 29.86ZM44.0749 32V31.415L45.3799 29.95H44.1199V29.375H46.2399V29.955L44.9299 31.425H46.2749V32H44.0749Z" fill="#3F6FE5"/>
<path d="M12.44 40V39.63H13.415V36.82H13.38L12.5 37.64L12.255 37.375L13.18 36.51H13.835V39.63H14.735V40H12.44ZM17.488 36.88H15.958L15.858 38.21H15.893C15.9764 38.0933 16.0697 38 16.173 37.93C16.2797 37.86 16.4247 37.825 16.608 37.825C16.758 37.825 16.8964 37.85 17.023 37.9C17.1497 37.95 17.2597 38.0217 17.353 38.115C17.4464 38.205 17.518 38.3167 17.568 38.45C17.6214 38.5833 17.648 38.735 17.648 38.905C17.648 39.075 17.6214 39.2317 17.568 39.375C17.5147 39.515 17.4364 39.6367 17.333 39.74C17.233 39.84 17.1097 39.9183 16.963 39.975C16.8197 40.0317 16.6564 40.06 16.473 40.06C16.3264 40.06 16.1964 40.0433 16.083 40.01C15.973 39.9767 15.8747 39.9317 15.788 39.875C15.7014 39.8183 15.6247 39.755 15.558 39.685C15.4947 39.615 15.4364 39.5417 15.383 39.465L15.698 39.225C15.7414 39.295 15.7864 39.3583 15.833 39.415C15.883 39.4717 15.9364 39.52 15.993 39.56C16.053 39.6 16.1214 39.6317 16.198 39.655C16.2747 39.675 16.3664 39.685 16.473 39.685C16.713 39.685 16.8947 39.6217 17.018 39.495C17.1414 39.3683 17.203 39.19 17.203 38.96V38.91C17.203 38.68 17.1414 38.5017 17.018 38.375C16.8947 38.2483 16.713 38.185 16.473 38.185C16.313 38.185 16.1864 38.215 16.093 38.275C16.003 38.3317 15.9214 38.4 15.848 38.48L15.493 38.43L15.618 36.51H17.488V36.88ZM21.8277 38.42H20.0627V40H19.6427V36.51H20.0627V38.05H21.8277V36.51H22.2477V40H21.8277V38.42ZM25.0129 40C24.8629 40 24.7546 39.96 24.6879 39.88C24.6246 39.8 24.5846 39.7 24.5679 39.58H24.5429C24.4862 39.74 24.3929 39.86 24.2629 39.94C24.1329 40.02 23.9779 40.06 23.7979 40.06C23.5246 40.06 23.3112 39.99 23.1579 39.85C23.0079 39.71 22.9329 39.52 22.9329 39.28C22.9329 39.0367 23.0212 38.85 23.1979 38.72C23.3779 38.59 23.6562 38.525 24.0329 38.525H24.5429V38.27C24.5429 38.0867 24.4929 37.9467 24.3929 37.85C24.2929 37.7533 24.1396 37.705 23.9329 37.705C23.7762 37.705 23.6446 37.74 23.5379 37.81C23.4346 37.88 23.3479 37.9733 23.2779 38.09L23.0379 37.865C23.1079 37.725 23.2196 37.6067 23.3729 37.51C23.5262 37.41 23.7196 37.36 23.9529 37.36C24.2662 37.36 24.5096 37.4367 24.6829 37.59C24.8562 37.7433 24.9429 37.9567 24.9429 38.23V39.65H25.2379V40H25.0129ZM23.8629 39.72C23.9629 39.72 24.0546 39.7083 24.1379 39.685C24.2212 39.6617 24.2929 39.6283 24.3529 39.585C24.4129 39.5417 24.4596 39.4917 24.4929 39.435C24.5262 39.3783 24.5429 39.3167 24.5429 39.25V38.825H24.0129C23.7829 38.825 23.6146 38.8583 23.5079 38.925C23.4046 38.9917 23.3529 39.0883 23.3529 39.215V39.32C23.3529 39.4467 23.3979 39.545 23.4879 39.615C23.5812 39.685 23.7062 39.72 23.8629 39.72ZM25.8088 40V37.42H26.2088V37.895H26.2338C26.2805 37.7717 26.3638 37.6617 26.4838 37.565C26.6038 37.4683 26.7688 37.42 26.9788 37.42H27.1338V37.82H26.8988C26.6821 37.82 26.5121 37.8617 26.3888 37.945C26.2688 38.025 26.2088 38.1267 26.2088 38.25V40H25.8088ZM27.6447 40V37.42H28.0447V37.84H28.0647C28.0947 37.7733 28.1281 37.7117 28.1647 37.655C28.2047 37.595 28.2514 37.5433 28.3047 37.5C28.3614 37.4567 28.4264 37.4233 28.4997 37.4C28.5731 37.3733 28.6597 37.36 28.7597 37.36C28.9297 37.36 29.0864 37.4017 29.2297 37.485C29.3731 37.565 29.4797 37.6983 29.5497 37.885H29.5597C29.6064 37.745 29.6931 37.6233 29.8197 37.52C29.9497 37.4133 30.1247 37.36 30.3447 37.36C30.6081 37.36 30.8131 37.4467 30.9597 37.62C31.1097 37.79 31.1847 38.0317 31.1847 38.345V40H30.7847V38.415C30.7847 38.185 30.7397 38.0117 30.6497 37.895C30.5597 37.7783 30.4164 37.72 30.2197 37.72C30.1397 37.72 30.0631 37.73 29.9897 37.75C29.9197 37.77 29.8564 37.8 29.7997 37.84C29.7431 37.88 29.6981 37.9317 29.6647 37.995C29.6314 38.055 29.6147 38.1267 29.6147 38.21V40H29.2147V38.415C29.2147 38.185 29.1697 38.0117 29.0797 37.895C28.9897 37.7783 28.8497 37.72 28.6597 37.72C28.5797 37.72 28.5031 37.73 28.4297 37.75C28.3564 37.77 28.2914 37.8 28.2347 37.84C28.1781 37.88 28.1314 37.9317 28.0947 37.995C28.0614 38.055 28.0447 38.1267 28.0447 38.21V40H27.6447ZM32.985 40.06C32.8116 40.06 32.6533 40.0283 32.51 39.965C32.3666 39.9017 32.2433 39.8117 32.14 39.695C32.04 39.575 31.9616 39.4333 31.905 39.27C31.8483 39.1033 31.82 38.9167 31.82 38.71C31.82 38.5067 31.8483 38.3217 31.905 38.155C31.9616 37.9883 32.04 37.8467 32.14 37.73C32.2433 37.61 32.3666 37.5183 32.51 37.455C32.6533 37.3917 32.8116 37.36 32.985 37.36C33.1583 37.36 33.315 37.3917 33.455 37.455C33.5983 37.5183 33.7216 37.61 33.825 37.73C33.9283 37.8467 34.0083 37.9883 34.065 38.155C34.1216 38.3217 34.15 38.5067 34.15 38.71C34.15 38.9167 34.1216 39.1033 34.065 39.27C34.0083 39.4333 33.9283 39.575 33.825 39.695C33.7216 39.8117 33.5983 39.9017 33.455 39.965C33.315 40.0283 33.1583 40.06 32.985 40.06ZM32.985 39.705C33.2016 39.705 33.3783 39.6383 33.515 39.505C33.6516 39.3717 33.72 39.1683 33.72 38.895V38.525C33.72 38.2517 33.6516 38.0483 33.515 37.915C33.3783 37.7817 33.2016 37.715 32.985 37.715C32.7683 37.715 32.5916 37.7817 32.455 37.915C32.3183 38.0483 32.25 38.2517 32.25 38.525V38.895C32.25 39.1683 32.3183 39.3717 32.455 39.505C32.5916 39.6383 32.7683 39.705 32.985 39.705ZM34.8078 40V37.42H35.2078V37.84H35.2278C35.2911 37.6933 35.3795 37.5767 35.4928 37.49C35.6095 37.4033 35.7645 37.36 35.9578 37.36C36.2245 37.36 36.4345 37.4467 36.5878 37.62C36.7445 37.79 36.8228 38.0317 36.8228 38.345V40H36.4228V38.415C36.4228 37.9517 36.2278 37.72 35.8378 37.72C35.7578 37.72 35.6795 37.73 35.6028 37.75C35.5295 37.77 35.4628 37.8 35.4028 37.84C35.3428 37.88 35.2945 37.9317 35.2578 37.995C35.2245 38.055 35.2078 38.1267 35.2078 38.21V40H34.8078ZM39.2005 37.42H39.5955L38.4405 40.6C38.4105 40.6767 38.3805 40.74 38.3505 40.79C38.3205 40.8433 38.2839 40.885 38.2405 40.915C38.1972 40.945 38.1422 40.9667 38.0755 40.98C38.0122 40.9933 37.9339 41 37.8405 41H37.6355V40.65H38.0405L38.2355 40.1L37.2705 37.42H37.6705L38.2905 39.175L38.4105 39.595H38.4355L38.5755 39.175L39.2005 37.42ZM42.3073 40.06C42.024 40.06 41.7823 40.0067 41.5823 39.9C41.3823 39.79 41.2123 39.64 41.0723 39.45L41.3823 39.19C41.5056 39.3533 41.6423 39.4783 41.7923 39.565C41.9423 39.6483 42.119 39.69 42.3223 39.69C42.5723 39.69 42.7623 39.63 42.8923 39.51C43.0256 39.39 43.0923 39.23 43.0923 39.03C43.0923 38.8633 43.0423 38.735 42.9423 38.645C42.8423 38.555 42.6773 38.4833 42.4473 38.43L42.1623 38.365C41.8423 38.2917 41.5973 38.1817 41.4273 38.035C41.2606 37.885 41.1773 37.675 41.1773 37.405C41.1773 37.2517 41.2056 37.115 41.2623 36.995C41.319 36.875 41.3973 36.775 41.4973 36.695C41.6006 36.615 41.7223 36.555 41.8623 36.515C42.0056 36.4717 42.1623 36.45 42.3323 36.45C42.5956 36.45 42.8206 36.4983 43.0073 36.595C43.1973 36.6917 43.3573 36.8333 43.4873 37.02L43.1723 37.25C43.0756 37.1167 42.959 37.0117 42.8223 36.935C42.6856 36.8583 42.5156 36.82 42.3123 36.82C42.089 36.82 41.9123 36.8683 41.7823 36.965C41.6556 37.0583 41.5923 37.2 41.5923 37.39C41.5923 37.5567 41.6456 37.6833 41.7523 37.77C41.8623 37.8533 42.0273 37.92 42.2473 37.97L42.5323 38.035C42.8756 38.1117 43.124 38.2283 43.2773 38.385C43.4306 38.5417 43.5073 38.75 43.5073 39.01C43.5073 39.17 43.479 39.315 43.4223 39.445C43.369 39.575 43.2906 39.685 43.1873 39.775C43.084 39.865 42.9573 39.935 42.8073 39.985C42.6606 40.035 42.494 40.06 42.3073 40.06ZM44.7626 40C44.6226 40 44.5159 39.9617 44.4426 39.885C44.3726 39.805 44.3376 39.7017 44.3376 39.575V37.77H43.9126V37.42H44.1526C44.2392 37.42 44.2976 37.4033 44.3276 37.37C44.3609 37.3333 44.3776 37.2717 44.3776 37.185V36.705H44.7376V37.42H45.3026V37.77H44.7376V39.65H45.2626V40H44.7626ZM46.2005 40.06C46.0938 40.06 46.0155 40.0333 45.9655 39.98C45.9188 39.9267 45.8955 39.8567 45.8955 39.77V39.705C45.8955 39.6183 45.9188 39.5483 45.9655 39.495C46.0155 39.4417 46.0938 39.415 46.2005 39.415C46.3072 39.415 46.3838 39.4417 46.4305 39.495C46.4805 39.5483 46.5055 39.6183 46.5055 39.705V39.77C46.5055 39.8567 46.4805 39.9267 46.4305 39.98C46.3838 40.0333 46.3072 40.06 46.2005 40.06Z" fill="#3F6FE5"/>
<path d="M13.695 48.06C13.2517 48.06 12.9067 47.91 12.66 47.61C12.4133 47.3067 12.29 46.8617 12.29 46.275C12.29 45.6883 12.4133 45.2383 12.66 44.925C12.9067 44.6083 13.2517 44.45 13.695 44.45C13.9883 44.45 14.2333 44.5167 14.43 44.65C14.63 44.7833 14.785 44.9717 14.895 45.215L14.555 45.42C14.485 45.24 14.3783 45.0967 14.235 44.99C14.0917 44.88 13.9117 44.825 13.695 44.825C13.545 44.825 13.41 44.8533 13.29 44.91C13.1733 44.9667 13.0733 45.0483 12.99 45.155C12.91 45.2583 12.8483 45.3833 12.805 45.53C12.7617 45.6733 12.74 45.835 12.74 46.015V46.535C12.74 46.895 12.8233 47.1767 12.99 47.38C13.1567 47.5833 13.3917 47.685 13.695 47.685C13.9183 47.685 14.105 47.6283 14.255 47.515C14.405 47.3983 14.515 47.245 14.585 47.055L14.92 47.265C14.81 47.5117 14.6517 47.7067 14.445 47.85C14.2383 47.99 13.9883 48.06 13.695 48.06ZM16.5055 48.06C16.3321 48.06 16.1738 48.0283 16.0305 47.965C15.8871 47.9017 15.7638 47.8117 15.6605 47.695C15.5605 47.575 15.4821 47.4333 15.4255 47.27C15.3688 47.1033 15.3405 46.9167 15.3405 46.71C15.3405 46.5067 15.3688 46.3217 15.4255 46.155C15.4821 45.9883 15.5605 45.8467 15.6605 45.73C15.7638 45.61 15.8871 45.5183 16.0305 45.455C16.1738 45.3917 16.3321 45.36 16.5055 45.36C16.6788 45.36 16.8355 45.3917 16.9755 45.455C17.1188 45.5183 17.2421 45.61 17.3455 45.73C17.4488 45.8467 17.5288 45.9883 17.5855 46.155C17.6421 46.3217 17.6705 46.5067 17.6705 46.71C17.6705 46.9167 17.6421 47.1033 17.5855 47.27C17.5288 47.4333 17.4488 47.575 17.3455 47.695C17.2421 47.8117 17.1188 47.9017 16.9755 47.965C16.8355 48.0283 16.6788 48.06 16.5055 48.06ZM16.5055 47.705C16.7221 47.705 16.8988 47.6383 17.0355 47.505C17.1721 47.3717 17.2405 47.1683 17.2405 46.895V46.525C17.2405 46.2517 17.1721 46.0483 17.0355 45.915C16.8988 45.7817 16.7221 45.715 16.5055 45.715C16.2888 45.715 16.1121 45.7817 15.9755 45.915C15.8388 46.0483 15.7705 46.2517 15.7705 46.525V46.895C15.7705 47.1683 15.8388 47.3717 15.9755 47.505C16.1121 47.6383 16.2888 47.705 16.5055 47.705ZM19.1033 48.06C18.8633 48.06 18.6617 48.015 18.4983 47.925C18.3383 47.8317 18.2 47.7083 18.0833 47.555L18.3683 47.325C18.4683 47.4517 18.58 47.55 18.7033 47.62C18.8267 47.6867 18.97 47.72 19.1333 47.72C19.3033 47.72 19.435 47.6833 19.5283 47.61C19.625 47.5367 19.6733 47.4333 19.6733 47.3C19.6733 47.2 19.64 47.115 19.5733 47.045C19.51 46.9717 19.3933 46.9217 19.2233 46.895L19.0183 46.865C18.8983 46.8483 18.7883 46.8233 18.6883 46.79C18.5883 46.7533 18.5 46.7067 18.4233 46.65C18.35 46.59 18.2917 46.5167 18.2483 46.43C18.2083 46.3433 18.1883 46.24 18.1883 46.12C18.1883 45.9933 18.2117 45.8833 18.2583 45.79C18.305 45.6933 18.3683 45.6133 18.4483 45.55C18.5317 45.4867 18.63 45.44 18.7433 45.41C18.8567 45.3767 18.9783 45.36 19.1083 45.36C19.3183 45.36 19.4933 45.3967 19.6333 45.47C19.7767 45.5433 19.9017 45.645 20.0083 45.775L19.7433 46.015C19.6867 45.935 19.6033 45.8633 19.4933 45.8C19.3833 45.7333 19.245 45.7 19.0783 45.7C18.9117 45.7 18.785 45.7367 18.6983 45.81C18.615 45.88 18.5733 45.9767 18.5733 46.1C18.5733 46.2267 18.615 46.3183 18.6983 46.375C18.785 46.4317 18.9083 46.4733 19.0683 46.5L19.2683 46.53C19.555 46.5733 19.7583 46.6567 19.8783 46.78C19.9983 46.9 20.0583 47.0583 20.0583 47.255C20.0583 47.505 19.9733 47.7017 19.8033 47.845C19.6333 47.9883 19.4 48.06 19.1033 48.06ZM20.7648 48V45.42H21.1648V45.84H21.1848C21.2148 45.7733 21.2482 45.7117 21.2848 45.655C21.3248 45.595 21.3715 45.5433 21.4248 45.5C21.4815 45.4567 21.5465 45.4233 21.6198 45.4C21.6932 45.3733 21.7798 45.36 21.8798 45.36C22.0498 45.36 22.2065 45.4017 22.3498 45.485C22.4932 45.565 22.5998 45.6983 22.6698 45.885H22.6798C22.7265 45.745 22.8132 45.6233 22.9398 45.52C23.0698 45.4133 23.2448 45.36 23.4648 45.36C23.7282 45.36 23.9332 45.4467 24.0798 45.62C24.2298 45.79 24.3048 46.0317 24.3048 46.345V48H23.9048V46.415C23.9048 46.185 23.8598 46.0117 23.7698 45.895C23.6798 45.7783 23.5365 45.72 23.3398 45.72C23.2598 45.72 23.1832 45.73 23.1098 45.75C23.0398 45.77 22.9765 45.8 22.9198 45.84C22.8632 45.88 22.8182 45.9317 22.7848 45.995C22.7515 46.055 22.7348 46.1267 22.7348 46.21V48H22.3348V46.415C22.3348 46.185 22.2898 46.0117 22.1998 45.895C22.1098 45.7783 21.9698 45.72 21.7798 45.72C21.6998 45.72 21.6232 45.73 21.5498 45.75C21.4765 45.77 21.4115 45.8 21.3548 45.84C21.2982 45.88 21.2515 45.9317 21.2148 45.995C21.1815 46.055 21.1648 46.1267 21.1648 46.21V48H20.7648ZM26.1051 48.06C25.9317 48.06 25.7734 48.0283 25.6301 47.965C25.4867 47.9017 25.3634 47.8117 25.2601 47.695C25.1601 47.575 25.0817 47.4333 25.0251 47.27C24.9684 47.1033 24.9401 46.9167 24.9401 46.71C24.9401 46.5067 24.9684 46.3217 25.0251 46.155C25.0817 45.9883 25.1601 45.8467 25.2601 45.73C25.3634 45.61 25.4867 45.5183 25.6301 45.455C25.7734 45.3917 25.9317 45.36 26.1051 45.36C26.2784 45.36 26.4351 45.3917 26.5751 45.455C26.7184 45.5183 26.8417 45.61 26.9451 45.73C27.0484 45.8467 27.1284 45.9883 27.1851 46.155C27.2417 46.3217 27.2701 46.5067 27.2701 46.71C27.2701 46.9167 27.2417 47.1033 27.1851 47.27C27.1284 47.4333 27.0484 47.575 26.9451 47.695C26.8417 47.8117 26.7184 47.9017 26.5751 47.965C26.4351 48.0283 26.2784 48.06 26.1051 48.06ZM26.1051 47.705C26.3217 47.705 26.4984 47.6383 26.6351 47.505C26.7717 47.3717 26.8401 47.1683 26.8401 46.895V46.525C26.8401 46.2517 26.7717 46.0483 26.6351 45.915C26.4984 45.7817 26.3217 45.715 26.1051 45.715C25.8884 45.715 25.7117 45.7817 25.5751 45.915C25.4384 46.0483 25.3701 46.2517 25.3701 46.525V46.895C25.3701 47.1683 25.4384 47.3717 25.5751 47.505C25.7117 47.6383 25.8884 47.705 26.1051 47.705ZM27.9279 45.42H28.3279V45.84H28.3479C28.4146 45.6767 28.5113 45.5567 28.6379 45.48C28.7679 45.4 28.9229 45.36 29.1029 45.36C29.2629 45.36 29.4079 45.3917 29.5379 45.455C29.6679 45.5183 29.7779 45.6083 29.8679 45.725C29.9613 45.8417 30.0313 45.9833 30.0779 46.15C30.1279 46.3167 30.1529 46.5033 30.1529 46.71C30.1529 46.9167 30.1279 47.1033 30.0779 47.27C30.0313 47.4367 29.9613 47.5783 29.8679 47.695C29.7779 47.8117 29.6679 47.9017 29.5379 47.965C29.4079 48.0283 29.2629 48.06 29.1029 48.06C28.7529 48.06 28.5013 47.9 28.3479 47.58H28.3279V49H27.9279V45.42ZM28.9929 47.7C29.2196 47.7 29.3979 47.63 29.5279 47.49C29.6579 47.3467 29.7229 47.16 29.7229 46.93V46.49C29.7229 46.26 29.6579 46.075 29.5279 45.935C29.3979 45.7917 29.2196 45.72 28.9929 45.72C28.9029 45.72 28.8163 45.7333 28.7329 45.76C28.6529 45.7833 28.5829 45.8167 28.5229 45.86C28.4629 45.9033 28.4146 45.9567 28.3779 46.02C28.3446 46.08 28.3279 46.145 28.3279 46.215V47.175C28.3279 47.2583 28.3446 47.3333 28.3779 47.4C28.4146 47.4633 28.4629 47.5183 28.5229 47.565C28.5829 47.6083 28.6529 47.6417 28.7329 47.665C28.8163 47.6883 28.9029 47.7 28.9929 47.7ZM31.8033 48.06C31.63 48.06 31.4717 48.0283 31.3283 47.965C31.185 47.9017 31.0617 47.8117 30.9583 47.695C30.8583 47.575 30.78 47.4333 30.7233 47.27C30.6667 47.1033 30.6383 46.9167 30.6383 46.71C30.6383 46.5067 30.6667 46.3217 30.7233 46.155C30.78 45.9883 30.8583 45.8467 30.9583 45.73C31.0617 45.61 31.185 45.5183 31.3283 45.455C31.4717 45.3917 31.63 45.36 31.8033 45.36C31.9767 45.36 32.1333 45.3917 32.2733 45.455C32.4167 45.5183 32.54 45.61 32.6433 45.73C32.7467 45.8467 32.8267 45.9883 32.8833 46.155C32.94 46.3217 32.9683 46.5067 32.9683 46.71C32.9683 46.9167 32.94 47.1033 32.8833 47.27C32.8267 47.4333 32.7467 47.575 32.6433 47.695C32.54 47.8117 32.4167 47.9017 32.2733 47.965C32.1333 48.0283 31.9767 48.06 31.8033 48.06ZM31.8033 47.705C32.02 47.705 32.1967 47.6383 32.3333 47.505C32.47 47.3717 32.5383 47.1683 32.5383 46.895V46.525C32.5383 46.2517 32.47 46.0483 32.3333 45.915C32.1967 45.7817 32.02 45.715 31.8033 45.715C31.5867 45.715 31.41 45.7817 31.2733 45.915C31.1367 46.0483 31.0683 46.2517 31.0683 46.525V46.895C31.0683 47.1683 31.1367 47.3717 31.2733 47.505C31.41 47.6383 31.5867 47.705 31.8033 47.705ZM34.0512 48C33.9112 48 33.8045 47.9617 33.7312 47.885C33.6612 47.805 33.6262 47.705 33.6262 47.585V44.3H34.0262V47.65H34.4062V48H34.0512ZM35.1885 44.815C35.1018 44.815 35.0385 44.795 34.9985 44.755C34.9618 44.7117 34.9435 44.6567 34.9435 44.59V44.525C34.9435 44.4583 34.9618 44.405 34.9985 44.365C35.0385 44.3217 35.1018 44.3 35.1885 44.3C35.2751 44.3 35.3368 44.3217 35.3735 44.365C35.4135 44.405 35.4335 44.4583 35.4335 44.525V44.59C35.4335 44.6567 35.4135 44.7117 35.3735 44.755C35.3368 44.795 35.2751 44.815 35.1885 44.815ZM34.9885 45.42H35.3885V48H34.9885V45.42ZM37.0135 48.06C36.7735 48.06 36.5718 48.015 36.4085 47.925C36.2485 47.8317 36.1101 47.7083 35.9935 47.555L36.2785 47.325C36.3785 47.4517 36.4901 47.55 36.6135 47.62C36.7368 47.6867 36.8801 47.72 37.0435 47.72C37.2135 47.72 37.3451 47.6833 37.4385 47.61C37.5351 47.5367 37.5835 47.4333 37.5835 47.3C37.5835 47.2 37.5501 47.115 37.4835 47.045C37.4201 46.9717 37.3035 46.9217 37.1335 46.895L36.9285 46.865C36.8085 46.8483 36.6985 46.8233 36.5985 46.79C36.4985 46.7533 36.4101 46.7067 36.3335 46.65C36.2601 46.59 36.2018 46.5167 36.1585 46.43C36.1185 46.3433 36.0985 46.24 36.0985 46.12C36.0985 45.9933 36.1218 45.8833 36.1685 45.79C36.2151 45.6933 36.2785 45.6133 36.3585 45.55C36.4418 45.4867 36.5401 45.44 36.6535 45.41C36.7668 45.3767 36.8885 45.36 37.0185 45.36C37.2285 45.36 37.4035 45.3967 37.5435 45.47C37.6868 45.5433 37.8118 45.645 37.9185 45.775L37.6535 46.015C37.5968 45.935 37.5135 45.8633 37.4035 45.8C37.2935 45.7333 37.1551 45.7 36.9885 45.7C36.8218 45.7 36.6951 45.7367 36.6085 45.81C36.5251 45.88 36.4835 45.9767 36.4835 46.1C36.4835 46.2267 36.5251 46.3183 36.6085 46.375C36.6951 46.4317 36.8185 46.4733 36.9785 46.5L37.1785 46.53C37.4651 46.5733 37.6685 46.6567 37.7885 46.78C37.9085 46.9 37.9685 47.0583 37.9685 47.255C37.9685 47.505 37.8835 47.7017 37.7135 47.845C37.5435 47.9883 37.3101 48.06 37.0135 48.06ZM38.9056 47.415C39.0123 47.415 39.0889 47.4433 39.1356 47.5C39.1856 47.5533 39.2106 47.6233 39.2106 47.71V47.78C39.2106 47.9167 39.1706 48.0667 39.0906 48.23C39.0106 48.3967 38.8989 48.5417 38.7556 48.665H38.4206C38.5206 48.5583 38.6006 48.4567 38.6606 48.36C38.7239 48.2667 38.7689 48.1617 38.7956 48.045C38.7289 48.0283 38.6789 47.9967 38.6456 47.95C38.6156 47.9033 38.6006 47.8467 38.6006 47.78V47.71C38.6006 47.6233 38.6239 47.5533 38.6706 47.5C38.7206 47.4433 38.7989 47.415 38.9056 47.415ZM43.4945 47.49H43.4795C43.4362 47.6533 43.3295 47.79 43.1595 47.9C42.9929 48.0067 42.7762 48.06 42.5095 48.06C42.2962 48.06 42.0995 48.0217 41.9195 47.945C41.7429 47.865 41.5912 47.75 41.4645 47.6C41.3379 47.4467 41.2379 47.2583 41.1645 47.035C41.0945 46.8083 41.0595 46.5483 41.0595 46.255C41.0595 45.965 41.0945 45.7083 41.1645 45.485C41.2345 45.2583 41.3345 45.07 41.4645 44.92C41.5945 44.7667 41.7512 44.65 41.9345 44.57C42.1179 44.49 42.3212 44.45 42.5445 44.45C42.8579 44.45 43.1195 44.52 43.3295 44.66C43.5395 44.8 43.7012 44.985 43.8145 45.215L43.4695 45.425C43.3895 45.2383 43.2695 45.0917 43.1095 44.985C42.9529 44.8783 42.7645 44.825 42.5445 44.825C42.3912 44.825 42.2512 44.8533 42.1245 44.91C41.9979 44.9633 41.8879 45.04 41.7945 45.14C41.7045 45.24 41.6345 45.36 41.5845 45.5C41.5345 45.64 41.5095 45.7967 41.5095 45.97V46.535C41.5095 46.7083 41.5345 46.8667 41.5845 47.01C41.6345 47.15 41.7045 47.27 41.7945 47.37C41.8879 47.47 42.0012 47.5483 42.1345 47.605C42.2679 47.6583 42.4179 47.685 42.5845 47.685C42.7045 47.685 42.8179 47.67 42.9245 47.64C43.0345 47.6067 43.1295 47.5583 43.2095 47.495C43.2929 47.4317 43.3579 47.3533 43.4045 47.26C43.4512 47.1633 43.4745 47.05 43.4745 46.92V46.575H42.7045V46.205H43.8845V48H43.4945V47.49ZM45.0961 48C44.9561 48 44.8494 47.9617 44.7761 47.885C44.7061 47.805 44.6711 47.705 44.6711 47.585V44.3H45.0711V47.65H45.4511V48H45.0961ZM47.0084 48.06C46.8351 48.06 46.6767 48.0283 46.5334 47.965C46.3901 47.9017 46.2667 47.8117 46.1634 47.695C46.0634 47.575 45.9851 47.4333 45.9284 47.27C45.8717 47.1033 45.8434 46.9167 45.8434 46.71C45.8434 46.5067 45.8717 46.3217 45.9284 46.155C45.9851 45.9883 46.0634 45.8467 46.1634 45.73C46.2667 45.61 46.3901 45.5183 46.5334 45.455C46.6767 45.3917 46.8351 45.36 47.0084 45.36C47.1817 45.36 47.3384 45.3917 47.4784 45.455C47.6217 45.5183 47.7451 45.61 47.8484 45.73C47.9517 45.8467 48.0317 45.9883 48.0884 46.155C48.1451 46.3217 48.1734 46.5067 48.1734 46.71C48.1734 46.9167 48.1451 47.1033 48.0884 47.27C48.0317 47.4333 47.9517 47.575 47.8484 47.695C47.7451 47.8117 47.6217 47.9017 47.4784 47.965C47.3384 48.0283 47.1817 48.06 47.0084 48.06ZM47.0084 47.705C47.2251 47.705 47.4017 47.6383 47.5384 47.505C47.6751 47.3717 47.7434 47.1683 47.7434 46.895V46.525C47.7434 46.2517 47.6751 46.0483 47.5384 45.915C47.4017 45.7817 47.2251 45.715 47.0084 45.715C46.7917 45.715 46.6151 45.7817 46.4784 45.915C46.3417 46.0483 46.2734 46.2517 46.2734 46.525V46.895C46.2734 47.1683 46.3417 47.3717 46.4784 47.505C46.6151 47.6383 46.7917 47.705 47.0084 47.705ZM48.8313 44.3H49.2313V45.84H49.2513C49.3179 45.6767 49.4146 45.5567 49.5413 45.48C49.6713 45.4 49.8263 45.36 50.0063 45.36C50.1663 45.36 50.3113 45.3917 50.4413 45.455C50.5713 45.5183 50.6813 45.6083 50.7713 45.725C50.8646 45.8417 50.9346 45.9833 50.9813 46.15C51.0313 46.3167 51.0563 46.5033 51.0563 46.71C51.0563 46.9167 51.0313 47.1033 50.9813 47.27C50.9346 47.4367 50.8646 47.5783 50.7713 47.695C50.6813 47.8117 50.5713 47.9017 50.4413 47.965C50.3113 48.0283 50.1663 48.06 50.0063 48.06C49.6563 48.06 49.4046 47.9 49.2513 47.58H49.2313V48H48.8313V44.3ZM49.8963 47.7C50.1229 47.7 50.3013 47.63 50.4313 47.49C50.5613 47.3467 50.6263 47.16 50.6263 46.93V46.49C50.6263 46.26 50.5613 46.075 50.4313 45.935C50.3013 45.7917 50.1229 45.72 49.8963 45.72C49.8063 45.72 49.7196 45.7333 49.6363 45.76C49.5563 45.7833 49.4863 45.8167 49.4263 45.86C49.3663 45.9033 49.3179 45.9567 49.2813 46.02C49.2479 46.08 49.2313 46.145 49.2313 46.215V47.175C49.2313 47.2583 49.2479 47.3333 49.2813 47.4C49.3179 47.4633 49.3663 47.5183 49.4263 47.565C49.4863 47.6083 49.5563 47.6417 49.6363 47.665C49.7196 47.6883 49.8063 47.7 49.8963 47.7ZM53.6066 48C53.4566 48 53.3483 47.96 53.2816 47.88C53.2183 47.8 53.1783 47.7 53.1616 47.58H53.1366C53.08 47.74 52.9866 47.86 52.8566 47.94C52.7266 48.02 52.5716 48.06 52.3916 48.06C52.1183 48.06 51.905 47.99 51.7516 47.85C51.6016 47.71 51.5266 47.52 51.5266 47.28C51.5266 47.0367 51.615 46.85 51.7916 46.72C51.9716 46.59 52.25 46.525 52.6266 46.525H53.1366V46.27C53.1366 46.0867 53.0866 45.9467 52.9866 45.85C52.8866 45.7533 52.7333 45.705 52.5266 45.705C52.37 45.705 52.2383 45.74 52.1316 45.81C52.0283 45.88 51.9416 45.9733 51.8716 46.09L51.6316 45.865C51.7016 45.725 51.8133 45.6067 51.9666 45.51C52.12 45.41 52.3133 45.36 52.5466 45.36C52.86 45.36 53.1033 45.4367 53.2766 45.59C53.45 45.7433 53.5366 45.9567 53.5366 46.23V47.65H53.8316V48H53.6066ZM52.4566 47.72C52.5566 47.72 52.6483 47.7083 52.7316 47.685C52.815 47.6617 52.8866 47.6283 52.9466 47.585C53.0066 47.5417 53.0533 47.4917 53.0866 47.435C53.12 47.3783 53.1366 47.3167 53.1366 47.25V46.825H52.6066C52.3766 46.825 52.2083 46.8583 52.1016 46.925C51.9983 46.9917 51.9466 47.0883 51.9466 47.215V47.32C51.9466 47.4467 51.9916 47.545 52.0816 47.615C52.175 47.685 52.3 47.72 52.4566 47.72ZM54.8275 48C54.6875 48 54.5809 47.9617 54.5075 47.885C54.4375 47.805 54.4025 47.705 54.4025 47.585V44.3H54.8025V47.65H55.1825V48H54.8275ZM57.9665 48.06C57.6832 48.06 57.4415 48.0067 57.2415 47.9C57.0415 47.79 56.8715 47.64 56.7315 47.45L57.0415 47.19C57.1648 47.3533 57.3015 47.4783 57.4515 47.565C57.6015 47.6483 57.7782 47.69 57.9815 47.69C58.2315 47.69 58.4215 47.63 58.5515 47.51C58.6848 47.39 58.7515 47.23 58.7515 47.03C58.7515 46.8633 58.7015 46.735 58.6015 46.645C58.5015 46.555 58.3365 46.4833 58.1065 46.43L57.8215 46.365C57.5015 46.2917 57.2565 46.1817 57.0865 46.035C56.9198 45.885 56.8365 45.675 56.8365 45.405C56.8365 45.2517 56.8648 45.115 56.9215 44.995C56.9782 44.875 57.0565 44.775 57.1565 44.695C57.2598 44.615 57.3815 44.555 57.5215 44.515C57.6648 44.4717 57.8215 44.45 57.9915 44.45C58.2548 44.45 58.4798 44.4983 58.6665 44.595C58.8565 44.6917 59.0165 44.8333 59.1465 45.02L58.8315 45.25C58.7348 45.1167 58.6182 45.0117 58.4815 44.935C58.3448 44.8583 58.1748 44.82 57.9715 44.82C57.7482 44.82 57.5715 44.8683 57.4415 44.965C57.3148 45.0583 57.2515 45.2 57.2515 45.39C57.2515 45.5567 57.3048 45.6833 57.4115 45.77C57.5215 45.8533 57.6865 45.92 57.9065 45.97L58.1915 46.035C58.5348 46.1117 58.7832 46.2283 58.9365 46.385C59.0898 46.5417 59.1665 46.75 59.1665 47.01C59.1665 47.17 59.1382 47.315 59.0815 47.445C59.0282 47.575 58.9498 47.685 58.8465 47.775C58.7432 47.865 58.6165 47.935 58.4665 47.985C58.3198 48.035 58.1532 48.06 57.9665 48.06ZM60.4218 48C60.2818 48 60.1751 47.9617 60.1018 47.885C60.0318 47.805 59.9968 47.7017 59.9968 47.575V45.77H59.5718V45.42H59.8118C59.8984 45.42 59.9568 45.4033 59.9868 45.37C60.0201 45.3333 60.0368 45.2717 60.0368 45.185V44.705H60.3968V45.42H60.9618V45.77H60.3968V47.65H60.9218V48H60.4218ZM63.4797 48C63.3297 48 63.2214 47.96 63.1547 47.88C63.0914 47.8 63.0514 47.7 63.0347 47.58H63.0097C62.953 47.74 62.8597 47.86 62.7297 47.94C62.5997 48.02 62.4447 48.06 62.2647 48.06C61.9914 48.06 61.778 47.99 61.6247 47.85C61.4747 47.71 61.3997 47.52 61.3997 47.28C61.3997 47.0367 61.488 46.85 61.6647 46.72C61.8447 46.59 62.123 46.525 62.4997 46.525H63.0097V46.27C63.0097 46.0867 62.9597 45.9467 62.8597 45.85C62.7597 45.7533 62.6064 45.705 62.3997 45.705C62.243 45.705 62.1114 45.74 62.0047 45.81C61.9014 45.88 61.8147 45.9733 61.7447 46.09L61.5047 45.865C61.5747 45.725 61.6864 45.6067 61.8397 45.51C61.993 45.41 62.1864 45.36 62.4197 45.36C62.733 45.36 62.9764 45.4367 63.1497 45.59C63.323 45.7433 63.4097 45.9567 63.4097 46.23V47.65H63.7047V48H63.4797ZM62.3297 47.72C62.4297 47.72 62.5214 47.7083 62.6047 47.685C62.688 47.6617 62.7597 47.6283 62.8197 47.585C62.8797 47.5417 62.9264 47.4917 62.9597 47.435C62.993 47.3783 63.0097 47.3167 63.0097 47.25V46.825H62.4797C62.2497 46.825 62.0814 46.8583 61.9747 46.925C61.8714 46.9917 61.8197 47.0883 61.8197 47.215V47.32C61.8197 47.4467 61.8647 47.545 61.9547 47.615C62.048 47.685 62.173 47.72 62.3297 47.72ZM64.8456 48C64.7056 48 64.5989 47.9617 64.5256 47.885C64.4556 47.805 64.4206 47.7017 64.4206 47.575V45.77H63.9956V45.42H64.2356C64.3223 45.42 64.3806 45.4033 64.4106 45.37C64.4439 45.3333 64.4606 45.2717 64.4606 45.185V44.705H64.8206V45.42H65.3856V45.77H64.8206V47.65H65.3456V48H64.8456ZM66.979 48.06C66.8023 48.06 66.6423 48.0283 66.499 47.965C66.359 47.9017 66.2373 47.8117 66.134 47.695C66.034 47.575 65.9557 47.4333 65.899 47.27C65.8457 47.1033 65.819 46.9167 65.819 46.71C65.819 46.5067 65.8457 46.3217 65.899 46.155C65.9557 45.9883 66.034 45.8467 66.134 45.73C66.2373 45.61 66.359 45.5183 66.499 45.455C66.6423 45.3917 66.8023 45.36 66.979 45.36C67.1523 45.36 67.3073 45.3917 67.444 45.455C67.5807 45.5183 67.6973 45.6067 67.794 45.72C67.8907 45.83 67.964 45.9617 68.014 46.115C68.0673 46.2683 68.094 46.4367 68.094 46.62V46.81H66.239V46.93C66.239 47.04 66.2557 47.1433 66.289 47.24C66.3257 47.3333 66.3757 47.415 66.439 47.485C66.5057 47.555 66.5857 47.61 66.679 47.65C66.7757 47.69 66.884 47.71 67.004 47.71C67.1673 47.71 67.309 47.6717 67.429 47.595C67.5523 47.5183 67.6473 47.4083 67.714 47.265L67.999 47.47C67.9157 47.6467 67.7857 47.79 67.609 47.9C67.4323 48.0067 67.2223 48.06 66.979 48.06ZM66.979 45.695C66.869 45.695 66.769 45.715 66.679 45.755C66.589 45.7917 66.5107 45.845 66.444 45.915C66.3807 45.985 66.3307 46.0683 66.294 46.165C66.2573 46.2583 66.239 46.3617 66.239 46.475V46.51H67.664V46.455C67.664 46.225 67.6007 46.0417 67.474 45.905C67.3507 45.765 67.1857 45.695 66.979 45.695Z" fill="#3F6FE5"/>
<path d="M13.305 53.99C13.5417 53.99 13.7183 53.9367 13.835 53.83C13.955 53.72 14.015 53.58 14.015 53.41V53.375C14.015 53.1917 13.9567 53.055 13.84 52.965C13.7267 52.8717 13.5767 52.825 13.39 52.825C13.21 52.825 13.0633 52.865 12.95 52.945C12.8367 53.0217 12.7433 53.1267 12.67 53.26L12.36 53.02C12.4033 52.95 12.455 52.8817 12.515 52.815C12.5783 52.745 12.6517 52.6833 12.735 52.63C12.8183 52.5767 12.915 52.5333 13.025 52.5C13.135 52.4667 13.26 52.45 13.4 52.45C13.5467 52.45 13.685 52.47 13.815 52.51C13.945 52.5467 14.0567 52.6033 14.15 52.68C14.2467 52.7533 14.3217 52.845 14.375 52.955C14.4317 53.065 14.46 53.19 14.46 53.33C14.46 53.4433 14.4417 53.545 14.405 53.635C14.3717 53.725 14.325 53.8033 14.265 53.87C14.205 53.9367 14.1333 53.9933 14.05 54.04C13.97 54.0867 13.8833 54.1217 13.79 54.145V54.165C13.8833 54.185 13.9733 54.2183 14.06 54.265C14.15 54.3083 14.2283 54.3667 14.295 54.44C14.365 54.51 14.42 54.5967 14.46 54.7C14.5033 54.8 14.525 54.915 14.525 55.045C14.525 55.195 14.4967 55.3333 14.44 55.46C14.3833 55.5833 14.3033 55.69 14.2 55.78C14.0967 55.8667 13.9717 55.935 13.825 55.985C13.6783 56.035 13.5167 56.06 13.34 56.06C13.19 56.06 13.0567 56.0433 12.94 56.01C12.8233 55.9767 12.72 55.9317 12.63 55.875C12.54 55.8183 12.46 55.755 12.39 55.685C12.3233 55.615 12.2633 55.5417 12.21 55.465L12.525 55.225C12.5683 55.295 12.615 55.3583 12.665 55.415C12.7183 55.4717 12.7767 55.52 12.84 55.56C12.9033 55.6 12.975 55.6317 13.055 55.655C13.135 55.675 13.2283 55.685 13.335 55.685C13.5817 55.685 13.7683 55.63 13.895 55.52C14.0217 55.4067 14.085 55.2467 14.085 55.04V55C14.085 54.7933 14.0217 54.635 13.895 54.525C13.7683 54.4117 13.5817 54.355 13.335 54.355H12.925V53.99H13.305ZM16.303 53.99C16.5397 53.99 16.7164 53.9367 16.833 53.83C16.953 53.72 17.013 53.58 17.013 53.41V53.375C17.013 53.1917 16.9547 53.055 16.838 52.965C16.7247 52.8717 16.5747 52.825 16.388 52.825C16.208 52.825 16.0614 52.865 15.948 52.945C15.8347 53.0217 15.7414 53.1267 15.668 53.26L15.358 53.02C15.4014 52.95 15.453 52.8817 15.513 52.815C15.5764 52.745 15.6497 52.6833 15.733 52.63C15.8164 52.5767 15.913 52.5333 16.023 52.5C16.133 52.4667 16.258 52.45 16.398 52.45C16.5447 52.45 16.683 52.47 16.813 52.51C16.943 52.5467 17.0547 52.6033 17.148 52.68C17.2447 52.7533 17.3197 52.845 17.373 52.955C17.4297 53.065 17.458 53.19 17.458 53.33C17.458 53.4433 17.4397 53.545 17.403 53.635C17.3697 53.725 17.323 53.8033 17.263 53.87C17.203 53.9367 17.1314 53.9933 17.048 54.04C16.968 54.0867 16.8814 54.1217 16.788 54.145V54.165C16.8814 54.185 16.9714 54.2183 17.058 54.265C17.148 54.3083 17.2264 54.3667 17.293 54.44C17.363 54.51 17.418 54.5967 17.458 54.7C17.5014 54.8 17.523 54.915 17.523 55.045C17.523 55.195 17.4947 55.3333 17.438 55.46C17.3814 55.5833 17.3014 55.69 17.198 55.78C17.0947 55.8667 16.9697 55.935 16.823 55.985C16.6764 56.035 16.5147 56.06 16.338 56.06C16.188 56.06 16.0547 56.0433 15.938 56.01C15.8214 55.9767 15.718 55.9317 15.628 55.875C15.538 55.8183 15.458 55.755 15.388 55.685C15.3214 55.615 15.2614 55.5417 15.208 55.465L15.523 55.225C15.5664 55.295 15.613 55.3583 15.663 55.415C15.7164 55.4717 15.7747 55.52 15.838 55.56C15.9014 55.6 15.973 55.6317 16.053 55.655C16.133 55.675 16.2264 55.685 16.333 55.685C16.5797 55.685 16.7664 55.63 16.893 55.52C17.0197 55.4067 17.083 55.2467 17.083 55.04V55C17.083 54.7933 17.0197 54.635 16.893 54.525C16.7664 54.4117 16.5797 54.355 16.333 54.355H15.923V53.99H16.303ZM19.4961 56.06C19.0794 56.06 18.7744 55.9017 18.5811 55.585C18.3911 55.2683 18.2961 54.825 18.2961 54.255C18.2961 53.685 18.3911 53.2417 18.5811 52.925C18.7744 52.6083 19.0794 52.45 19.4961 52.45C19.9128 52.45 20.2161 52.6083 20.4061 52.925C20.5994 53.2417 20.6961 53.685 20.6961 54.255C20.6961 54.825 20.5994 55.2683 20.4061 55.585C20.2161 55.9017 19.9128 56.06 19.4961 56.06ZM19.4961 55.695C19.6328 55.695 19.7494 55.6667 19.8461 55.61C19.9428 55.5533 20.0211 55.4733 20.0811 55.37C20.1411 55.2667 20.1844 55.145 20.2111 55.005C20.2411 54.865 20.2561 54.71 20.2561 54.54V53.97C20.2561 53.8 20.2411 53.645 20.2111 53.505C20.1844 53.365 20.1411 53.2433 20.0811 53.14C20.0211 53.0367 19.9428 52.9567 19.8461 52.9C19.7494 52.8433 19.6328 52.815 19.4961 52.815C19.3594 52.815 19.2428 52.8433 19.1461 52.9C19.0494 52.9567 18.9711 53.0367 18.9111 53.14C18.8511 53.2433 18.8061 53.365 18.7761 53.505C18.7494 53.645 18.7361 53.8 18.7361 53.97V54.54C18.7361 54.71 18.7494 54.865 18.7761 55.005C18.8061 55.145 18.8511 55.2667 18.9111 55.37C18.9711 55.4733 19.0494 55.5533 19.1461 55.61C19.2428 55.6667 19.3594 55.695 19.4961 55.695ZM21.4341 56V55.63H22.4091V52.82H22.3741L21.4941 53.64L21.2491 53.375L22.1741 52.51H22.8291V55.63H23.7291V56H21.4341ZM25.4922 56.06C25.0755 56.06 24.7705 55.9017 24.5772 55.585C24.3872 55.2683 24.2922 54.825 24.2922 54.255C24.2922 53.685 24.3872 53.2417 24.5772 52.925C24.7705 52.6083 25.0755 52.45 25.4922 52.45C25.9089 52.45 26.2122 52.6083 26.4022 52.925C26.5955 53.2417 26.6922 53.685 26.6922 54.255C26.6922 54.825 26.5955 55.2683 26.4022 55.585C26.2122 55.9017 25.9089 56.06 25.4922 56.06ZM25.4922 55.695C25.6289 55.695 25.7455 55.6667 25.8422 55.61C25.9389 55.5533 26.0172 55.4733 26.0772 55.37C26.1372 55.2667 26.1805 55.145 26.2072 55.005C26.2372 54.865 26.2522 54.71 26.2522 54.54V53.97C26.2522 53.8 26.2372 53.645 26.2072 53.505C26.1805 53.365 26.1372 53.2433 26.0772 53.14C26.0172 53.0367 25.9389 52.9567 25.8422 52.9C25.7455 52.8433 25.6289 52.815 25.4922 52.815C25.3555 52.815 25.2389 52.8433 25.1422 52.9C25.0455 52.9567 24.9672 53.0367 24.9072 53.14C24.8472 53.2433 24.8022 53.365 24.7722 53.505C24.7455 53.645 24.7322 53.8 24.7322 53.97V54.54C24.7322 54.71 24.7455 54.865 24.7722 55.005C24.8022 55.145 24.8472 55.2667 24.9072 55.37C24.9672 55.4733 25.0455 55.5533 25.1422 55.61C25.2389 55.6667 25.3555 55.695 25.4922 55.695Z" fill="#3F6FE5"/>
<g opacity="0.16">
<path d="M98.75 31.5938V30.9887H99.2V28.7087H98.75V28.1037H100.41V28.7087H99.96V30.9887H100.41V31.5938H98.75ZM101.869 31.6538C101.615 31.6538 101.402 31.6138 101.229 31.5337C101.055 31.4504 100.9 31.3337 100.764 31.1837L101.199 30.7437C101.292 30.8471 101.395 30.9287 101.509 30.9887C101.622 31.0487 101.75 31.0787 101.894 31.0787C102.04 31.0787 102.142 31.0571 102.199 31.0137C102.255 30.9671 102.284 30.9054 102.284 30.8287C102.284 30.7054 102.195 30.6321 102.019 30.6087L101.734 30.5737C101.144 30.5004 100.849 30.2304 100.849 29.7637C100.849 29.6371 100.872 29.5221 100.919 29.4187C100.969 29.3121 101.037 29.2221 101.124 29.1487C101.214 29.0721 101.32 29.0137 101.444 28.9737C101.57 28.9304 101.712 28.9087 101.869 28.9087C102.005 28.9087 102.125 28.9187 102.229 28.9387C102.335 28.9554 102.429 28.9821 102.509 29.0187C102.592 29.0521 102.667 29.0954 102.734 29.1487C102.804 29.1987 102.872 29.2554 102.939 29.3187L102.514 29.7537C102.43 29.6704 102.335 29.6054 102.229 29.5587C102.125 29.5087 102.019 29.4837 101.909 29.4837C101.782 29.4837 101.692 29.5037 101.639 29.5437C101.585 29.5837 101.559 29.6371 101.559 29.7037C101.559 29.7737 101.577 29.8287 101.614 29.8687C101.654 29.9054 101.727 29.9321 101.834 29.9487L102.129 29.9887C102.705 30.0654 102.994 30.3287 102.994 30.7787C102.994 30.9054 102.967 31.0221 102.914 31.1287C102.86 31.2354 102.784 31.3287 102.684 31.4087C102.587 31.4854 102.469 31.5454 102.329 31.5887C102.192 31.6321 102.039 31.6538 101.869 31.6538ZM104.354 31.6538C104.101 31.6538 103.887 31.6138 103.714 31.5337C103.541 31.4504 103.386 31.3337 103.249 31.1837L103.684 30.7437C103.777 30.8471 103.881 30.9287 103.994 30.9887C104.107 31.0487 104.236 31.0787 104.379 31.0787C104.526 31.0787 104.627 31.0571 104.684 31.0137C104.741 30.9671 104.769 30.9054 104.769 30.8287C104.769 30.7054 104.681 30.6321 104.504 30.6087L104.219 30.5737C103.629 30.5004 103.334 30.2304 103.334 29.7637C103.334 29.6371 103.357 29.5221 103.404 29.4187C103.454 29.3121 103.522 29.2221 103.609 29.1487C103.699 29.0721 103.806 29.0137 103.929 28.9737C104.056 28.9304 104.197 28.9087 104.354 28.9087C104.491 28.9087 104.611 28.9187 104.714 28.9387C104.821 28.9554 104.914 28.9821 104.994 29.0187C105.077 29.0521 105.152 29.0954 105.219 29.1487C105.289 29.1987 105.357 29.2554 105.424 29.3187L104.999 29.7537C104.916 29.6704 104.821 29.6054 104.714 29.5587C104.611 29.5087 104.504 29.4837 104.394 29.4837C104.267 29.4837 104.177 29.5037 104.124 29.5437C104.071 29.5837 104.044 29.6371 104.044 29.7037C104.044 29.7737 104.062 29.8287 104.099 29.8687C104.139 29.9054 104.212 29.9321 104.319 29.9487L104.614 29.9887C105.191 30.0654 105.479 30.3287 105.479 30.7787C105.479 30.9054 105.452 31.0221 105.399 31.1287C105.346 31.2354 105.269 31.3287 105.169 31.4087C105.072 31.4854 104.954 31.5454 104.814 31.5887C104.677 31.6321 104.524 31.6538 104.354 31.6538ZM107.534 31.1537H107.509C107.485 31.2204 107.454 31.2837 107.414 31.3437C107.377 31.4037 107.329 31.4571 107.269 31.5037C107.209 31.5504 107.137 31.5871 107.054 31.6138C106.974 31.6404 106.88 31.6538 106.774 31.6538C106.504 31.6538 106.299 31.5654 106.159 31.3887C106.022 31.2087 105.954 30.9521 105.954 30.6187V28.9687H106.694V30.5537C106.694 30.7137 106.722 30.8371 106.779 30.9237C106.835 31.0104 106.932 31.0537 107.069 31.0537C107.125 31.0537 107.182 31.0454 107.239 31.0287C107.295 31.0121 107.345 30.9887 107.389 30.9587C107.432 30.9254 107.467 30.8854 107.494 30.8387C107.52 30.7921 107.534 30.7371 107.534 30.6737V28.9687H108.274V31.5938H107.534V31.1537ZM110.057 31.6538C109.857 31.6538 109.679 31.6221 109.522 31.5587C109.366 31.4921 109.232 31.4004 109.122 31.2837C109.016 31.1637 108.934 31.0187 108.877 30.8487C108.824 30.6787 108.797 30.4887 108.797 30.2787C108.797 30.0721 108.824 29.8854 108.877 29.7187C108.931 29.5487 109.009 29.4037 109.112 29.2837C109.219 29.1637 109.349 29.0721 109.502 29.0087C109.656 28.9421 109.831 28.9087 110.027 28.9087C110.244 28.9087 110.429 28.9454 110.582 29.0187C110.739 29.0921 110.866 29.1904 110.962 29.3137C111.062 29.4371 111.134 29.5804 111.177 29.7437C111.224 29.9037 111.247 30.0721 111.247 30.2487V30.4687H109.562V30.5087C109.562 30.6821 109.609 30.8204 109.702 30.9237C109.796 31.0237 109.942 31.0737 110.142 31.0737C110.296 31.0737 110.421 31.0437 110.517 30.9837C110.614 30.9204 110.704 30.8454 110.787 30.7587L111.157 31.2187C111.041 31.3554 110.887 31.4621 110.697 31.5387C110.511 31.6154 110.297 31.6538 110.057 31.6538ZM110.042 29.4537C109.892 29.4537 109.774 29.5037 109.687 29.6037C109.604 29.7004 109.562 29.8304 109.562 29.9937V30.0337H110.482V29.9887C110.482 29.8287 110.446 29.7004 110.372 29.6037C110.302 29.5037 110.192 29.4537 110.042 29.4537ZM114.561 31.1537H114.536C114.516 31.2237 114.485 31.2904 114.441 31.3537C114.398 31.4137 114.345 31.4671 114.281 31.5137C114.221 31.5571 114.151 31.5904 114.071 31.6138C113.995 31.6404 113.915 31.6538 113.831 31.6538C113.498 31.6538 113.246 31.5371 113.076 31.3037C112.906 31.0671 112.821 30.7254 112.821 30.2787C112.821 29.8321 112.906 29.4921 113.076 29.2587C113.246 29.0254 113.498 28.9087 113.831 28.9087C114.001 28.9087 114.151 28.9554 114.281 29.0487C114.415 29.1421 114.5 29.2621 114.536 29.4087H114.561V27.8937H115.301V31.5938H114.561V31.1537ZM114.076 31.0537C114.216 31.0537 114.331 31.0204 114.421 30.9537C114.515 30.8837 114.561 30.7887 114.561 30.6687V29.8937C114.561 29.7737 114.515 29.6804 114.421 29.6137C114.331 29.5437 114.216 29.5087 114.076 29.5087C113.936 29.5087 113.82 29.5587 113.726 29.6587C113.636 29.7554 113.591 29.8871 113.591 30.0537V30.5087C113.591 30.6754 113.636 30.8087 113.726 30.9087C113.82 31.0054 113.936 31.0537 114.076 31.0537ZM117.933 31.5938C117.8 31.5938 117.688 31.5521 117.598 31.4687C117.512 31.3854 117.457 31.2737 117.433 31.1337H117.403C117.363 31.3037 117.275 31.4337 117.138 31.5237C117.002 31.6104 116.833 31.6538 116.633 31.6538C116.37 31.6538 116.168 31.5837 116.028 31.4437C115.888 31.3037 115.818 31.1187 115.818 30.8887C115.818 30.6121 115.918 30.4071 116.118 30.2738C116.322 30.1371 116.597 30.0687 116.943 30.0687H117.358V29.9037C117.358 29.7771 117.325 29.6771 117.258 29.6037C117.192 29.5271 117.08 29.4887 116.923 29.4887C116.777 29.4887 116.66 29.5204 116.573 29.5837C116.487 29.6471 116.415 29.7187 116.358 29.7987L115.918 29.4087C116.025 29.2521 116.158 29.1304 116.318 29.0437C116.482 28.9537 116.702 28.9087 116.978 28.9087C117.352 28.9087 117.632 28.9904 117.818 29.1537C118.005 29.3171 118.098 29.5554 118.098 29.8687V31.0187H118.343V31.5938H117.933ZM116.908 31.1387C117.032 31.1387 117.137 31.1121 117.223 31.0587C117.313 31.0054 117.358 30.9187 117.358 30.7987V30.4887H116.998C116.708 30.4887 116.563 30.5871 116.563 30.7837V30.8588C116.563 30.9554 116.593 31.0271 116.653 31.0737C116.713 31.1171 116.798 31.1387 116.908 31.1387ZM119.731 31.5938C119.474 31.5938 119.279 31.5287 119.146 31.3987C119.016 31.2687 118.951 31.0787 118.951 30.8287V29.5437H118.581V28.9687H118.766C118.866 28.9687 118.934 28.9454 118.971 28.8987C119.007 28.8487 119.026 28.7787 119.026 28.6887V28.2587H119.691V28.9687H120.211V29.5437H119.691V31.0187H120.171V31.5938H119.731ZM121.8 31.6538C121.6 31.6538 121.422 31.6221 121.265 31.5587C121.109 31.4921 120.975 31.4004 120.865 31.2837C120.759 31.1637 120.677 31.0187 120.62 30.8487C120.567 30.6787 120.54 30.4887 120.54 30.2787C120.54 30.0721 120.567 29.8854 120.62 29.7187C120.674 29.5487 120.752 29.4037 120.855 29.2837C120.962 29.1637 121.092 29.0721 121.245 29.0087C121.399 28.9421 121.574 28.9087 121.77 28.9087C121.987 28.9087 122.172 28.9454 122.325 29.0187C122.482 29.0921 122.609 29.1904 122.705 29.3137C122.805 29.4371 122.877 29.5804 122.92 29.7437C122.967 29.9037 122.99 30.0721 122.99 30.2487V30.4687H121.305V30.5087C121.305 30.6821 121.352 30.8204 121.445 30.9237C121.539 31.0237 121.685 31.0737 121.885 31.0737C122.039 31.0737 122.164 31.0437 122.26 30.9837C122.357 30.9204 122.447 30.8454 122.53 30.7587L122.9 31.2187C122.784 31.3554 122.63 31.4621 122.44 31.5387C122.254 31.6154 122.04 31.6538 121.8 31.6538ZM121.785 29.4537C121.635 29.4537 121.517 29.5037 121.43 29.6037C121.347 29.7004 121.305 29.8304 121.305 29.9937V30.0337H122.225V29.9887C122.225 29.8287 122.189 29.7004 122.115 29.6037C122.045 29.5037 121.935 29.4537 121.785 29.4537ZM125.175 31.6488C125.025 31.6488 124.913 31.6121 124.84 31.5387C124.77 31.4621 124.735 31.3654 124.735 31.2487V31.1487C124.735 31.0321 124.77 30.9371 124.84 30.8637C124.913 30.7871 125.025 30.7487 125.175 30.7487C125.325 30.7487 125.435 30.7871 125.505 30.8637C125.578 30.9371 125.615 31.0321 125.615 31.1487V31.2487C125.615 31.3654 125.578 31.4621 125.505 31.5387C125.435 31.6121 125.325 31.6488 125.175 31.6488ZM125.175 29.8137C125.025 29.8137 124.913 29.7771 124.84 29.7037C124.77 29.6271 124.735 29.5304 124.735 29.4137V29.3137C124.735 29.1971 124.77 29.1021 124.84 29.0287C124.913 28.9521 125.025 28.9137 125.175 28.9137C125.325 28.9137 125.435 28.9521 125.505 29.0287C125.578 29.1021 125.615 29.1971 125.615 29.3137V29.4137C125.615 29.5304 125.578 29.6271 125.505 29.7037C125.435 29.7771 125.325 29.8137 125.175 29.8137Z" fill="#2A3052"/>
<path d="M101.685 36.6538H101.66L101.365 37.2387L100.53 38.7587L99.695 37.2387L99.4 36.6538H99.375V39.5938H98.965V36.1037H99.525L100.525 37.9837H100.55L101.555 36.1037H102.095V39.5938H101.685V36.6538ZM104.858 39.5938C104.708 39.5938 104.599 39.5537 104.533 39.4737C104.469 39.3937 104.429 39.2937 104.413 39.1737H104.388C104.331 39.3337 104.238 39.4537 104.108 39.5337C103.978 39.6138 103.823 39.6538 103.643 39.6538C103.369 39.6538 103.156 39.5837 103.003 39.4437C102.853 39.3037 102.778 39.1137 102.778 38.8737C102.778 38.6304 102.866 38.4437 103.043 38.3137C103.223 38.1837 103.501 38.1187 103.878 38.1187H104.388V37.8637C104.388 37.6804 104.338 37.5404 104.238 37.4437C104.138 37.3471 103.984 37.2987 103.778 37.2987C103.621 37.2987 103.489 37.3337 103.383 37.4037C103.279 37.4737 103.193 37.5671 103.123 37.6837L102.883 37.4587C102.953 37.3187 103.064 37.2004 103.218 37.1037C103.371 37.0037 103.564 36.9538 103.798 36.9538C104.111 36.9538 104.354 37.0304 104.528 37.1837C104.701 37.3371 104.788 37.5504 104.788 37.8237V39.2437H105.083V39.5938H104.858ZM103.708 39.3137C103.808 39.3137 103.899 39.3021 103.983 39.2787C104.066 39.2554 104.138 39.2221 104.198 39.1787C104.258 39.1354 104.304 39.0854 104.338 39.0287C104.371 38.9721 104.388 38.9104 104.388 38.8437V38.4187H103.858C103.628 38.4187 103.459 38.4521 103.353 38.5187C103.249 38.5854 103.198 38.6821 103.198 38.8087V38.9137C103.198 39.0404 103.243 39.1387 103.333 39.2087C103.426 39.2787 103.551 39.3137 103.708 39.3137ZM107.219 37.0137H107.614L106.459 40.1938C106.429 40.2704 106.399 40.3338 106.369 40.3838C106.339 40.4371 106.302 40.4788 106.259 40.5088C106.216 40.5388 106.161 40.5604 106.094 40.5738C106.031 40.5871 105.952 40.5938 105.859 40.5938H105.654V40.2438H106.059L106.254 39.6938L105.289 37.0137H105.689L106.309 38.7687L106.429 39.1887H106.454L106.594 38.7687L107.219 37.0137ZM110.186 37.5837C110.423 37.5837 110.599 37.5304 110.716 37.4237C110.836 37.3137 110.896 37.1737 110.896 37.0037V36.9687C110.896 36.7854 110.838 36.6487 110.721 36.5587C110.608 36.4654 110.458 36.4187 110.271 36.4187C110.091 36.4187 109.944 36.4587 109.831 36.5387C109.718 36.6154 109.624 36.7204 109.551 36.8537L109.241 36.6137C109.284 36.5437 109.336 36.4754 109.396 36.4087C109.459 36.3387 109.533 36.2771 109.616 36.2237C109.699 36.1704 109.796 36.1271 109.906 36.0937C110.016 36.0604 110.141 36.0437 110.281 36.0437C110.428 36.0437 110.566 36.0637 110.696 36.1037C110.826 36.1404 110.938 36.1971 111.031 36.2737C111.128 36.3471 111.203 36.4387 111.256 36.5487C111.313 36.6587 111.341 36.7837 111.341 36.9237C111.341 37.0371 111.323 37.1387 111.286 37.2287C111.253 37.3187 111.206 37.3971 111.146 37.4637C111.086 37.5304 111.014 37.5871 110.931 37.6337C110.851 37.6804 110.764 37.7154 110.671 37.7387V37.7587C110.764 37.7787 110.854 37.8121 110.941 37.8587C111.031 37.9021 111.109 37.9604 111.176 38.0337C111.246 38.1037 111.301 38.1904 111.341 38.2937C111.384 38.3937 111.406 38.5087 111.406 38.6387C111.406 38.7887 111.378 38.9271 111.321 39.0537C111.264 39.1771 111.184 39.2837 111.081 39.3737C110.978 39.4604 110.853 39.5287 110.706 39.5787C110.559 39.6288 110.398 39.6538 110.221 39.6538C110.071 39.6538 109.938 39.6371 109.821 39.6038C109.704 39.5704 109.601 39.5254 109.511 39.4687C109.421 39.4121 109.341 39.3487 109.271 39.2787C109.204 39.2087 109.144 39.1354 109.091 39.0587L109.406 38.8187C109.449 38.8887 109.496 38.9521 109.546 39.0087C109.599 39.0654 109.658 39.1137 109.721 39.1537C109.784 39.1937 109.856 39.2254 109.936 39.2487C110.016 39.2687 110.109 39.2787 110.216 39.2787C110.463 39.2787 110.649 39.2237 110.776 39.1137C110.903 39.0004 110.966 38.8404 110.966 38.6337V38.5937C110.966 38.3871 110.903 38.2287 110.776 38.1187C110.649 38.0054 110.463 37.9487 110.216 37.9487H109.806V37.5837H110.186ZM112.559 39.0087C112.666 39.0087 112.742 39.0371 112.789 39.0937C112.839 39.1471 112.864 39.2171 112.864 39.3037V39.3737C112.864 39.5104 112.824 39.6604 112.744 39.8238C112.664 39.9904 112.552 40.1354 112.409 40.2588H112.074C112.174 40.1521 112.254 40.0504 112.314 39.9538C112.377 39.8604 112.422 39.7554 112.449 39.6388C112.382 39.6221 112.332 39.5904 112.299 39.5437C112.269 39.4971 112.254 39.4404 112.254 39.3737V39.3037C112.254 39.2171 112.277 39.1471 112.324 39.0937C112.374 39.0371 112.452 39.0087 112.559 39.0087ZM117.088 39.5938H114.798V39.1637L115.938 38.1137C116.101 37.9637 116.238 37.8054 116.348 37.6387C116.458 37.4687 116.513 37.2987 116.513 37.1287V37.0688C116.513 36.8754 116.46 36.7187 116.353 36.5987C116.246 36.4787 116.085 36.4187 115.868 36.4187C115.761 36.4187 115.668 36.4337 115.588 36.4637C115.508 36.4937 115.438 36.5354 115.378 36.5887C115.321 36.6421 115.273 36.7054 115.233 36.7787C115.196 36.8487 115.166 36.9254 115.143 37.0087L114.768 36.8637C114.801 36.7604 114.846 36.6604 114.903 36.5637C114.963 36.4637 115.036 36.3754 115.123 36.2987C115.213 36.2221 115.32 36.1604 115.443 36.1137C115.57 36.0671 115.718 36.0437 115.888 36.0437C116.058 36.0437 116.21 36.0687 116.343 36.1187C116.476 36.1687 116.588 36.2387 116.678 36.3287C116.768 36.4187 116.836 36.5254 116.883 36.6487C116.933 36.7721 116.958 36.9087 116.958 37.0587C116.958 37.1954 116.938 37.3221 116.898 37.4387C116.861 37.5554 116.81 37.6671 116.743 37.7737C116.676 37.8771 116.595 37.9787 116.498 38.0787C116.405 38.1787 116.303 38.2787 116.193 38.3787L115.253 39.2237H117.088V39.5938ZM118.921 39.6538C118.504 39.6538 118.199 39.4954 118.006 39.1787C117.816 38.8621 117.721 38.4187 117.721 37.8487C117.721 37.2787 117.816 36.8354 118.006 36.5187C118.199 36.2021 118.504 36.0437 118.921 36.0437C119.338 36.0437 119.641 36.2021 119.831 36.5187C120.024 36.8354 120.121 37.2787 120.121 37.8487C120.121 38.4187 120.024 38.8621 119.831 39.1787C119.641 39.4954 119.338 39.6538 118.921 39.6538ZM118.921 39.2887C119.058 39.2887 119.174 39.2604 119.271 39.2037C119.368 39.1471 119.446 39.0671 119.506 38.9637C119.566 38.8604 119.609 38.7387 119.636 38.5987C119.666 38.4587 119.681 38.3037 119.681 38.1337V37.5637C119.681 37.3937 119.666 37.2387 119.636 37.0987C119.609 36.9587 119.566 36.8371 119.506 36.7337C119.446 36.6304 119.368 36.5504 119.271 36.4937C119.174 36.4371 119.058 36.4087 118.921 36.4087C118.784 36.4087 118.668 36.4371 118.571 36.4937C118.474 36.5504 118.396 36.6304 118.336 36.7337C118.276 36.8371 118.231 36.9587 118.201 37.0987C118.174 37.2387 118.161 37.3937 118.161 37.5637V38.1337C118.161 38.3037 118.174 38.4587 118.201 38.5987C118.231 38.7387 118.276 38.8604 118.336 38.9637C118.396 39.0671 118.474 39.1471 118.571 39.2037C118.668 39.2604 118.784 39.2887 118.921 39.2887ZM123.084 39.5938H120.794V39.1637L121.934 38.1137C122.097 37.9637 122.234 37.8054 122.344 37.6387C122.454 37.4687 122.509 37.2987 122.509 37.1287V37.0688C122.509 36.8754 122.456 36.7187 122.349 36.5987C122.242 36.4787 122.081 36.4187 121.864 36.4187C121.757 36.4187 121.664 36.4337 121.584 36.4637C121.504 36.4937 121.434 36.5354 121.374 36.5887C121.317 36.6421 121.269 36.7054 121.229 36.7787C121.192 36.8487 121.162 36.9254 121.139 37.0087L120.764 36.8637C120.797 36.7604 120.842 36.6604 120.899 36.5637C120.959 36.4637 121.032 36.3754 121.119 36.2987C121.209 36.2221 121.316 36.1604 121.439 36.1137C121.566 36.0671 121.714 36.0437 121.884 36.0437C122.054 36.0437 122.206 36.0687 122.339 36.1187C122.472 36.1687 122.584 36.2387 122.674 36.3287C122.764 36.4187 122.832 36.5254 122.879 36.6487C122.929 36.7721 122.954 36.9087 122.954 37.0587C122.954 37.1954 122.934 37.3221 122.894 37.4387C122.857 37.5554 122.806 37.6671 122.739 37.7737C122.672 37.8771 122.591 37.9787 122.494 38.0787C122.401 38.1787 122.299 38.2787 122.189 38.3787L121.249 39.2237H123.084V39.5938ZM124.722 37.5837C124.959 37.5837 125.135 37.5304 125.252 37.4237C125.372 37.3137 125.432 37.1737 125.432 37.0037V36.9687C125.432 36.7854 125.374 36.6487 125.257 36.5587C125.144 36.4654 124.994 36.4187 124.807 36.4187C124.627 36.4187 124.48 36.4587 124.367 36.5387C124.254 36.6154 124.16 36.7204 124.087 36.8537L123.777 36.6137C123.82 36.5437 123.872 36.4754 123.932 36.4087C123.995 36.3387 124.069 36.2771 124.152 36.2237C124.235 36.1704 124.332 36.1271 124.442 36.0937C124.552 36.0604 124.677 36.0437 124.817 36.0437C124.964 36.0437 125.102 36.0637 125.232 36.1037C125.362 36.1404 125.474 36.1971 125.567 36.2737C125.664 36.3471 125.739 36.4387 125.792 36.5487C125.849 36.6587 125.877 36.7837 125.877 36.9237C125.877 37.0371 125.859 37.1387 125.822 37.2287C125.789 37.3187 125.742 37.3971 125.682 37.4637C125.622 37.5304 125.55 37.5871 125.467 37.6337C125.387 37.6804 125.3 37.7154 125.207 37.7387V37.7587C125.3 37.7787 125.39 37.8121 125.477 37.8587C125.567 37.9021 125.645 37.9604 125.712 38.0337C125.782 38.1037 125.837 38.1904 125.877 38.2937C125.92 38.3937 125.942 38.5087 125.942 38.6387C125.942 38.7887 125.914 38.9271 125.857 39.0537C125.8 39.1771 125.72 39.2837 125.617 39.3737C125.514 39.4604 125.389 39.5287 125.242 39.5787C125.095 39.6288 124.934 39.6538 124.757 39.6538C124.607 39.6538 124.474 39.6371 124.357 39.6038C124.24 39.5704 124.137 39.5254 124.047 39.4687C123.957 39.4121 123.877 39.3487 123.807 39.2787C123.74 39.2087 123.68 39.1354 123.627 39.0587L123.942 38.8187C123.985 38.8887 124.032 38.9521 124.082 39.0087C124.135 39.0654 124.194 39.1137 124.257 39.1537C124.32 39.1937 124.392 39.2254 124.472 39.2487C124.552 39.2687 124.645 39.2787 124.752 39.2787C124.999 39.2787 125.185 39.2237 125.312 39.1137C125.439 39.0004 125.502 38.8404 125.502 38.6337V38.5937C125.502 38.3871 125.439 38.2287 125.312 38.1187C125.185 38.0054 124.999 37.9487 124.752 37.9487H124.342V37.5837H124.722Z" fill="#2A3052"/>
</g>
<g opacity="0.08">
<rect x="44" y="61.5938" width="50" height="6.78125" fill="#377CFC"/>
<line x1="13.5" y1="72.125" x2="124.5" y2="72.125" stroke="#377CFC" stroke-width="0.5"/>
<path d="M11.5 76.375H44.5V80.375H11.5V76.375Z" fill="#377CFC"/>
<path d="M52.5 76.375H85.5V80.375H52.5V76.375Z" fill="#377CFC"/>
<path d="M93.5 76.375H126.5V80.375H93.5V76.375Z" fill="#377CFC"/>
<line x1="13.5" y1="84.125" x2="124.5" y2="84.125" stroke="#377CFC" stroke-width="0.5"/>
<path d="M11.5 88.375H44.5V92.375H11.5V88.375Z" fill="#377CFC"/>
<path d="M52.5 88.375H85.5V92.375H52.5V88.375Z" fill="#377CFC"/>
<path d="M93.5 88.375H126.5V92.375H93.5V88.375Z" fill="#377CFC"/>
<path d="M11.5 96.375H44.5V100.375H11.5V96.375Z" fill="#377CFC"/>
<path d="M52.5 96.375H85.5V100.375H52.5V96.375Z" fill="#377CFC"/>
<path d="M93.5 96.375H126.5V100.375H93.5V96.375Z" fill="#377CFC"/>
<path d="M11.5 104.375H44.5V108.375H11.5V104.375Z" fill="#377CFC"/>
<path d="M52.5 104.375H85.5V108.375H52.5V104.375Z" fill="#377CFC"/>
<path d="M93.5 104.375H126.5V108.375H93.5V104.375Z" fill="#377CFC"/>
<path d="M11.5 112.375H44.5V116.375H11.5V112.375Z" fill="#377CFC"/>
<path d="M52.5 112.375H85.5V116.375H52.5V112.375Z" fill="#377CFC"/>
<path d="M93.5 112.375H126.5V116.375H93.5V112.375Z" fill="#377CFC"/>
<path d="M11.5 120.375H44.5V124.375H11.5V120.375Z" fill="#377CFC"/>
<path d="M52.5 120.375H85.5V124.375H52.5V120.375Z" fill="#377CFC"/>
<path d="M93.5 120.375H126.5V124.375H93.5V120.375Z" fill="#377CFC"/>
<path d="M11.5 128.375H44.5V132.375H11.5V128.375Z" fill="#377CFC"/>
<path d="M52.5 128.375H85.5V132.375H52.5V128.375Z" fill="#377CFC"/>
<path d="M93.5 128.375H126.5V132.375H93.5V128.375Z" fill="#377CFC"/>
<path d="M11.5 136.375H44.5V140.375H11.5V136.375Z" fill="#377CFC"/>
<path d="M52.5 136.375H85.5V140.375H52.5V136.375Z" fill="#377CFC"/>
<path d="M93.5 136.375H126.5V140.375H93.5V136.375Z" fill="#377CFC"/>
<path d="M11.5 144.375H44.5V148.375H11.5V144.375Z" fill="#377CFC"/>
<path d="M52.5 144.375H85.5V148.375H52.5V144.375Z" fill="#377CFC"/>
<path d="M93.5 144.375H126.5V148.375H93.5V144.375Z" fill="#377CFC"/>
</g>
<path opacity="0.16" fill-rule="evenodd" clip-rule="evenodd" d="M3 154C3 156.209 4.79086 158 7 158H131C133.209 158 135 156.209 135 154V6C135 3.79086 133.209 2 131 2H68H66.5H8H7C4.79086 2 3 3.79086 3 6V58.8246V59V154ZM8 54.8246C8 57.0337 9.79086 58.8246 12 58.8246H34.75H62.5C64.7091 58.8246 66.5 57.0337 66.5 54.8246V9C66.5 6.79086 64.7091 5 62.5 5L12 5C9.79086 5 8 6.79086 8 9V54.8246Z" fill="#377CFC"/>
<line x1="66" y1="6.375" x2="66" y2="56.375" stroke="black" stroke-dasharray="2 2"/>
<rect x="6" y="2.875" width="4" height="4" rx="0.5" fill="white" stroke="black"/>
<rect x="64" y="2.875" width="4" height="4" rx="0.5" fill="white" stroke="black"/>
<rect x="6" y="56.875" width="4" height="4" rx="0.5" fill="white" stroke="black"/>
<line x1="10.5" y1="58.875" x2="63.5" y2="58.875" stroke="black"/>
<line x1="8" y1="7.375" x2="8" y2="56.375" stroke="black"/>
<line x1="10.5" y1="4.875" x2="63.5" y2="4.875" stroke="black" stroke-dasharray="2 2"/>
<rect x="64" y="56.875" width="4" height="4" rx="0.5" fill="white" stroke="black"/>
<g clip-path="url(#clip0_4473_9278)">
<path d="M68.916 47.3691C69.1534 47.3458 69.3838 47.2547 69.5823 47.1057C69.6959 47.0204 69.7974 46.9176 69.8838 46.8005C70.1143 46.4883 70.2345 46.0858 70.2219 45.6676C70.2219 45.6666 70.2218 45.6654 70.2217 45.6645L70.2163 45.5713C70.1988 45.343 70.1389 45.1135 70.0429 44.9073C70.0425 44.9064 70.0421 44.9057 70.0416 44.9046C70.0059 44.8332 69.9936 44.8105 69.9886 44.8018C69.6397 44.1569 69.4978 43.6795 69.4445 43.3572C69.7391 43.4982 70.158 43.7676 70.6802 44.2823C70.6872 44.2896 70.7057 44.3076 70.7643 44.3618C70.765 44.3624 70.7657 44.3632 70.7665 44.3637C70.9377 44.5133 71.1416 44.6349 71.3579 44.716L71.4439 44.7464C71.4449 44.7469 71.4459 44.7471 71.4468 44.7474C71.9983 44.9256 72.598 44.8431 73.012 44.5321C73.0122 44.532 73.0122 44.532 73.0122 44.532C73.1509 44.4277 73.2659 44.3 73.3539 44.1522C73.5054 43.897 73.5658 43.5914 73.5237 43.2913C73.485 43.0147 73.3642 42.7444 73.1745 42.5101C73.0653 42.3753 72.935 42.255 72.7887 42.1535C72.5776 42.0165 72.4277 41.9513 72.3242 41.9155C71.7609 41.7172 71.1378 41.7897 70.713 42.109C70.6408 42.1632 70.5737 42.2247 70.5137 42.2919C70.4801 42.3293 70.4488 42.3686 70.4202 42.4092L69.3477 41.9468L68.728 38.4328C68.7261 38.4202 68.7243 38.4074 68.7225 38.3946C68.711 38.3153 68.6992 38.233 68.6675 38.15C68.5506 37.8427 68.2728 37.6664 68.0604 37.5727C67.9572 37.5272 67.8704 37.4976 67.7876 37.48L67.5751 37.4334C67.5406 37.4259 67.5052 37.4356 67.4791 37.4591C67.4532 37.4828 67.4405 37.5175 67.4448 37.5522L67.9252 41.3798L66.5718 40.8179L66.5718 42.1773L68.1221 42.9116L68.2622 44.03C68.1315 44.0747 68.0091 44.1397 67.8971 44.2238C67.4916 44.5284 67.2454 45.0698 67.2543 45.637C67.2647 46.2885 67.5896 46.8809 68.1021 47.1827C68.352 47.3299 68.6409 47.396 68.916 47.3691ZM71.1251 42.9208C71.155 42.8767 71.1924 42.8375 71.2363 42.8046C71.4221 42.6649 71.6901 42.6555 71.8789 42.6931C72.1421 42.7458 72.3787 42.8913 72.5274 43.092C72.665 43.2775 72.704 43.4883 72.6315 43.6557L72.6315 43.6558C72.6315 43.656 72.6315 43.6561 72.6314 43.6563C72.6004 43.728 72.5516 43.7893 72.4867 43.8383C72.3458 43.944 72.1219 43.9912 71.9024 43.9614C71.612 43.9219 71.343 43.7647 71.183 43.541C71.0699 43.3827 70.987 43.1255 71.1251 42.9208ZM68.7418 46.5022C68.6435 46.4919 68.5446 46.4478 68.456 46.375C68.2622 46.2158 68.1387 45.9455 68.1258 45.6517C68.1153 45.4133 68.1861 45.0971 68.4157 44.9246C68.424 44.9184 68.4324 44.9125 68.4409 44.9068C68.6098 44.7935 68.8331 44.8108 69.0103 44.9506C69.1844 45.088 69.305 45.3159 69.3412 45.5761L69.3451 45.6062C69.372 45.8501 69.3202 46.1821 69.0938 46.3836C69.0834 46.3929 69.0724 46.4017 69.0613 46.4102C68.9665 46.4813 68.8531 46.514 68.7418 46.5022Z" fill="black"/>
</g>
</g>
<defs>
<filter id="filter0_dd_4473_9278" x="0" y="0" width="138" height="162" filterUnits="userSpaceOnUse" color-interpolation-filters="sRGB">
<feFlood flood-opacity="0" result="BackgroundImageFix"/>
<feColorMatrix in="SourceAlpha" type="matrix" values="0 0 0 0 0 0 0 0 0 0 0 0 0 0 0 0 0 0 127 0" result="hardAlpha"/>
<feOffset dy="1"/>
<feGaussianBlur stdDeviation="1"/>
<feColorMatrix type="matrix" values="0 0 0 0 0.054902 0 0 0 0 0.054902 0 0 0 0 0.054902 0 0 0 0.06 0"/>
<feBlend mode="normal" in2="BackgroundImageFix" result="effect1_dropShadow_4473_9278"/>
<feColorMatrix in="SourceAlpha" type="matrix" values="0 0 0 0 0 0 0 0 0 0 0 0 0 0 0 0 0 0 127 0" result="hardAlpha"/>
<feOffset dy="1"/>
<feGaussianBlur stdDeviation="1.5"/>
<feColorMatrix type="matrix" values="0 0 0 0 0.054902 0 0 0 0 0.054902 0 0 0 0 0.054902 0 0 0 0.1 0"/>
<feBlend mode="normal" in2="effect1_dropShadow_4473_9278" result="effect2_dropShadow_4473_9278"/>
<feBlend mode="normal" in="SourceGraphic" in2="effect2_dropShadow_4473_9278" result="shape"/>
</filter>
<clipPath id="clip0_4473_9278">
<rect width="14" height="14" fill="white" transform="translate(76.5 33.375) rotate(90)"/>
</clipPath>
</defs>
</svg>
