<svg width="246" height="120" fill="none" xmlns="http://www.w3.org/2000/svg"><g filter="url(#a)"><rect x="12.5" width="221" height="96" rx="4" fill="#fff"/><path d="M26.444 65.208v1.984a.939.939 0 0 1-.064.352.71.71 0 0 1-.18.268.9.9 0 0 1-.292.172c-.112.04-.24.06-.384.06-.139 0-.261-.019-.368-.056a.815.815 0 0 1-.272-.16.858.858 0 0 1-.184-.248 1.097 1.097 0 0 1-.1-.32l.568-.112c.045.243.161.364.348.364a.32.32 0 0 0 .224-.084c.064-.056.096-.144.096-.264v-1.468h-.848v-.488h1.456Zm1.418 2.84a1.08 1.08 0 0 1-.416-.076.848.848 0 0 1-.308-.22 1.02 1.02 0 0 1-.192-.348 1.435 1.435 0 0 1-.068-.456c0-.168.023-.32.068-.456a.976.976 0 0 1 .192-.344.848.848 0 0 1 .308-.22 1.08 1.08 0 0 1 .416-.076c.155 0 .292.025.412.076.123.05.226.124.308.22.086.093.151.208.196.344.046.136.068.288.068.456 0 .168-.022.32-.068.456a.987.987 0 0 1-.196.348.806.806 0 0 1-.308.22 1.05 1.05 0 0 1-.412.076Zm0-.468a.345.345 0 0 0 .272-.108.449.449 0 0 0 .096-.308v-.428a.449.449 0 0 0-.096-.308.345.345 0 0 0-.272-.108.345.345 0 0 0-.272.108.449.449 0 0 0-.096.308v.428c0 .133.032.236.096.308a.345.345 0 0 0 .272.108Zm1.406-2.54h.592v1.216h.024a.644.644 0 0 1 .196-.284c.094-.08.223-.12.388-.12.216 0 .379.072.488.216.112.144.168.35.168.616V68h-.592v-1.268c0-.136-.021-.236-.064-.3-.043-.067-.119-.1-.228-.1a.495.495 0 0 0-.264.076.306.306 0 0 0-.084.1.262.262 0 0 0-.032.132V68h-.592v-2.96ZM31.651 68v-2.1h.592v.356h.024a.644.644 0 0 1 .196-.284c.093-.08.223-.12.388-.12.216 0 .379.072.488.216.112.144.168.35.168.616V68h-.592v-1.268c0-.136-.021-.236-.064-.3-.043-.067-.119-.1-.228-.1a.495.495 0 0 0-.264.076.306.306 0 0 0-.084.1.262.262 0 0 0-.032.132V68h-.592Zm5.132-.444h-.02a.53.53 0 0 1-.216.352c-.122.093-.29.14-.5.14-.16 0-.31-.03-.448-.092a1.029 1.029 0 0 1-.364-.272 1.289 1.289 0 0 1-.244-.448 1.99 1.99 0 0 1-.088-.62c0-.235.03-.443.092-.624s.147-.333.256-.456a1.11 1.11 0 0 1 .4-.28c.155-.064.327-.096.516-.096.25 0 .467.055.648.164.181.107.324.268.428.484l-.496.284a.665.665 0 0 0-.2-.276c-.09-.077-.217-.116-.38-.116a.62.62 0 0 0-.452.164c-.112.11-.168.281-.168.516v.448c0 .232.056.404.168.516a.62.62 0 0 0 .452.164.905.905 0 0 0 .212-.024.59.59 0 0 0 .176-.08.387.387 0 0 0 .16-.312v-.14h-.52v-.508h1.1V68h-.512v-.444Zm1.923.492a1.08 1.08 0 0 1-.416-.076.849.849 0 0 1-.308-.22 1.023 1.023 0 0 1-.192-.348 1.438 1.438 0 0 1-.068-.456c0-.168.023-.32.068-.456a.98.98 0 0 1 .192-.344.849.849 0 0 1 .308-.22 1.08 1.08 0 0 1 .416-.076c.155 0 .292.025.412.076.123.05.225.124.308.22.085.093.15.208.196.344.045.136.068.288.068.456 0 .168-.023.32-.068.456a.984.984 0 0 1-.196.348.805.805 0 0 1-.308.22 1.05 1.05 0 0 1-.412.076Zm0-.468a.345.345 0 0 0 .272-.108.449.449 0 0 0 .096-.308v-.428a.449.449 0 0 0-.096-.308.345.345 0 0 0-.272-.108.345.345 0 0 0-.272.108.449.449 0 0 0-.096.308v.428c0 .133.032.236.096.308a.345.345 0 0 0 .272.108Zm1.406.42v-2.1h.592v.356h.024a.645.645 0 0 1 .196-.284.578.578 0 0 1 .388-.12c.216 0 .379.072.488.216.112.144.168.35.168.616V68h-.592v-1.268c0-.136-.021-.236-.064-.3-.043-.067-.119-.1-.228-.1a.495.495 0 0 0-.264.076.308.308 0 0 0-.084.1.262.262 0 0 0-.032.132V68h-.592Zm2.263 0v-.468l1.044-1.172H42.41v-.46h1.696v.464l-1.048 1.176h1.076V68h-1.76Zm3.742 0a.38.38 0 0 1-.268-.1.465.465 0 0 1-.132-.268h-.024a.493.493 0 0 1-.212.312.74.74 0 0 1-.404.104c-.21 0-.372-.056-.484-.168a.6.6 0 0 1-.168-.444c0-.221.08-.385.24-.492.163-.11.383-.164.66-.164h.332v-.132a.344.344 0 0 0-.08-.24c-.053-.061-.143-.092-.268-.092a.464.464 0 0 0-.28.076.75.75 0 0 0-.172.172l-.352-.312a.905.905 0 0 1 .32-.292c.13-.072.307-.108.528-.108.299 0 .523.065.672.196.15.13.224.321.224.572v.92h.196V68h-.328Zm-.82-.364a.472.472 0 0 0 .252-.064c.072-.043.108-.112.108-.208v-.248h-.288c-.232 0-.348.079-.348.236v.06c0 .077.024.135.072.172a.344.344 0 0 0 .204.052ZM47.43 68c-.202 0-.352-.05-.448-.148-.093-.099-.14-.241-.14-.428V65.04h.592v2.5h.264V68h-.268Zm1.5.048c-.16 0-.303-.025-.429-.076a.94.94 0 0 1-.32-.22.987.987 0 0 1-.196-.348 1.522 1.522 0 0 1-.064-.456c0-.165.022-.315.064-.448a.842.842 0 0 1 .5-.568c.123-.053.263-.08.42-.08.174 0 .322.03.444.088a.819.819 0 0 1 .304.236c.08.099.138.213.172.344.038.128.056.263.056.404v.176h-1.348v.032c0 .139.038.25.112.332.075.08.192.12.352.12a.561.561 0 0 0 .3-.072c.078-.05.15-.11.216-.18l.296.368a.931.931 0 0 1-.368.256c-.149.061-.32.092-.512.092Zm-.013-1.76c-.12 0-.214.04-.284.12a.462.462 0 0 0-.1.312v.032h.736v-.036c0-.128-.029-.23-.088-.308-.056-.08-.144-.12-.264-.12ZM50.16 68v-.468l1.044-1.172h-1.008v-.46h1.696v.464l-1.048 1.176h1.076V68h-1.76ZM24.852 75v-.296h.78v-2.248h-.028l-.704.656-.196-.212.74-.692h.524v2.496h.72V75h-1.836Zm4.038-2.496h-1.224l-.08 1.064h.028a.895.895 0 0 1 .224-.224.628.628 0 0 1 .348-.084c.12 0 .231.02.332.06a.765.765 0 0 1 .436.44.973.973 0 0 1 .064.364c0 .136-.02.261-.064.376a.82.82 0 0 1-.484.48 1.06 1.06 0 0 1-.392.068c-.117 0-.22-.013-.312-.04a.915.915 0 0 1-.236-.108 1.036 1.036 0 0 1-.184-.152 1.78 1.78 0 0 1-.14-.176l.252-.192c.035.056.071.107.108.152.04.045.083.084.128.116a.62.62 0 0 0 .164.076.881.881 0 0 0 .22.024c.192 0 .338-.05.436-.152.1-.101.148-.244.148-.428v-.04c0-.184-.049-.327-.148-.428-.098-.101-.244-.152-.436-.152a.557.557 0 0 0-.304.072.956.956 0 0 0-.196.164l-.284-.04.1-1.536h1.496v.296Zm3.472 1.232H30.95V75h-.336v-2.792h.336v1.232h1.412v-1.232h.336V75h-.336v-1.264ZM34.91 75c-.12 0-.206-.032-.26-.096a.486.486 0 0 1-.096-.24h-.02a.534.534 0 0 1-.224.288.696.696 0 0 1-.372.096c-.218 0-.389-.056-.512-.168a.594.594 0 0 1-.18-.456c0-.195.071-.344.212-.448.144-.104.367-.156.668-.156h.408v-.204c0-.147-.04-.259-.12-.336-.08-.077-.202-.116-.368-.116a.564.564 0 0 0-.316.084.701.701 0 0 0-.208.224l-.192-.18a.715.715 0 0 1 .268-.284.833.833 0 0 1 .464-.12c.251 0 .446.061.584.184.139.123.208.293.208.512v1.136h.236V75h-.18Zm-.92-.224c.08 0 .154-.01.22-.028a.539.539 0 0 0 .172-.08.398.398 0 0 0 .112-.12.286.286 0 0 0 .04-.148v-.34h-.424c-.184 0-.318.027-.404.08a.26.26 0 0 0-.124.232v.084c0 .101.036.18.108.236a.488.488 0 0 0 .3.084Zm1.557.224v-2.064h.32v.38h.02a.623.623 0 0 1 .2-.264.615.615 0 0 1 .396-.116h.124v.32h-.188c-.173 0-.31.033-.408.1-.096.064-.144.145-.144.244V75h-.32Zm1.469 0v-2.064h.32v.336h.016c.024-.053.05-.103.08-.148a.555.555 0 0 1 .112-.124.61.61 0 0 1 .364-.112c.136 0 .261.033.376.1.114.064.2.17.256.32h.008a.632.632 0 0 1 .208-.292.642.642 0 0 1 .42-.128c.21 0 .374.07.492.208.12.136.18.33.18.58V75h-.32v-1.268c0-.184-.036-.323-.108-.416-.072-.093-.187-.14-.344-.14a.696.696 0 0 0-.184.024.499.499 0 0 0-.152.072.349.349 0 0 0-.148.296V75h-.32v-1.268c0-.184-.036-.323-.108-.416-.072-.093-.184-.14-.336-.14a.696.696 0 0 0-.184.024.492.492 0 0 0-.156.072.349.349 0 0 0-.152.296V75h-.32Zm4.272.048a.93.93 0 0 1-.38-.076.85.85 0 0 1-.296-.216 1.075 1.075 0 0 1-.188-.34 1.384 1.384 0 0 1-.068-.448c0-.163.023-.31.068-.444a1.02 1.02 0 0 1 .188-.34.827.827 0 0 1 .296-.22.93.93 0 0 1 .38-.076c.139 0 .264.025.376.076.115.05.213.124.296.22a.985.985 0 0 1 .192.34c.045.133.068.281.068.444 0 .165-.023.315-.068.448-.045.13-.11.244-.192.34a.851.851 0 0 1-.296.216.902.902 0 0 1-.376.076Zm0-.284a.582.582 0 0 0 .424-.16c.11-.107.164-.27.164-.488v-.296c0-.219-.055-.381-.164-.488a.582.582 0 0 0-.424-.16.581.581 0 0 0-.424.16c-.11.107-.164.27-.164.488v.296c0 .219.055.381.164.488.11.107.25.16.424.16Zm1.458.236v-2.064h.32v.336h.016a.685.685 0 0 1 .212-.28.61.61 0 0 1 .372-.104c.214 0 .382.07.504.208.126.136.188.33.188.58V75h-.32v-1.268c0-.37-.156-.556-.468-.556a.742.742 0 0 0-.188.024.544.544 0 0 0-.16.072.369.369 0 0 0-.116.124.349.349 0 0 0-.04.172V75h-.32Zm3.514-2.064h.316l-.924 2.544a1.028 1.028 0 0 1-.072.152.294.294 0 0 1-.088.1.35.35 0 0 1-.132.052.929.929 0 0 1-.188.016h-.164v-.28h.324l.156-.44-.772-2.144h.32l.496 1.404.096.336h.02l.112-.336.5-1.404Zm2.486 2.112c-.227 0-.42-.043-.58-.128a1.252 1.252 0 0 1-.408-.36l.248-.208c.099.13.208.23.328.3.12.067.261.1.424.1.2 0 .352-.048.456-.144a.491.491 0 0 0 .16-.384c0-.133-.04-.236-.12-.308-.08-.072-.212-.13-.396-.172l-.228-.052c-.256-.059-.452-.147-.588-.264-.134-.12-.2-.288-.2-.504a.76.76 0 0 1 .068-.328.668.668 0 0 1 .188-.24.855.855 0 0 1 .292-.144c.114-.035.24-.052.376-.052.21 0 .39.039.54.116.152.077.28.19.384.34l-.252.184a.867.867 0 0 0-.28-.252.825.825 0 0 0-.408-.092c-.179 0-.32.039-.424.116-.102.075-.152.188-.152.34 0 .133.043.235.128.304.088.067.22.12.396.16l.228.052c.274.061.473.155.596.28a.684.684 0 0 1 .184.5.86.86 0 0 1-.068.348.693.693 0 0 1-.188.264.88.88 0 0 1-.304.168c-.117.04-.25.06-.4.06ZM50.71 75c-.112 0-.197-.03-.256-.092a.363.363 0 0 1-.084-.248v-1.444h-.34v-.28h.192c.07 0 .116-.013.14-.04.027-.03.04-.079.04-.148v-.384h.288v.572h.452v.28h-.452v1.504h.42V75h-.4Zm1.15.048c-.085 0-.148-.021-.188-.064a.246.246 0 0 1-.056-.168v-.052c0-.07.02-.125.056-.168.04-.043.103-.064.188-.064.086 0 .147.021.184.064.04.043.06.099.06.168v.052c0 .07-.02.125-.06.168-.037.043-.098.064-.184.064ZM25.856 80.048c-.355 0-.63-.12-.828-.36-.197-.243-.296-.599-.296-1.068 0-.47.099-.83.296-1.08.197-.253.473-.38.828-.38.235 0 .43.053.588.16.16.107.284.257.372.452l-.272.164a.761.761 0 0 0-.256-.344.689.689 0 0 0-.432-.132.678.678 0 0 0-.564.264.903.903 0 0 0-.148.3 1.339 1.339 0 0 0-.052.388v.416c0 .288.067.513.2.676.133.163.321.244.564.244a.722.722 0 0 0 .448-.136.809.809 0 0 0 .264-.368l.268.168a1.102 1.102 0 0 1-.38.468 1.044 1.044 0 0 1-.6.168Zm2.248 0a.93.93 0 0 1-.38-.076.85.85 0 0 1-.296-.216 1.075 1.075 0 0 1-.188-.34 1.384 1.384 0 0 1-.068-.448c0-.163.023-.31.068-.444a1.02 1.02 0 0 1 .188-.34.827.827 0 0 1 .296-.22.93.93 0 0 1 .38-.076c.139 0 .264.025.376.076.115.05.214.124.296.22a.985.985 0 0 1 .192.34c.046.133.068.281.068.444 0 .165-.022.315-.068.448-.045.13-.109.244-.192.34a.851.851 0 0 1-.296.216.902.902 0 0 1-.376.076Zm0-.284a.582.582 0 0 0 .424-.16c.11-.107.164-.27.164-.488v-.296c0-.219-.054-.381-.164-.488a.582.582 0 0 0-.424-.16.581.581 0 0 0-.424.16c-.109.107-.164.27-.164.488v.296c0 .219.055.381.164.488.11.107.251.16.424.16Zm2.079.284a.991.991 0 0 1-.484-.108 1.13 1.13 0 0 1-.332-.296l.228-.184c.08.101.169.18.268.236.098.053.213.08.344.08a.5.5 0 0 0 .316-.088.293.293 0 0 0 .116-.248.285.285 0 0 0-.08-.204c-.051-.059-.144-.099-.28-.12l-.164-.024a1.472 1.472 0 0 1-.264-.06.841.841 0 0 1-.212-.112.53.53 0 0 1-.14-.176.588.588 0 0 1-.048-.248c0-.101.018-.19.056-.264a.54.54 0 0 1 .152-.192.666.666 0 0 1 .236-.112c.09-.027.188-.04.292-.04.168 0 .308.03.42.088a.94.94 0 0 1 .3.244l-.212.192a.617.617 0 0 0-.2-.172.632.632 0 0 0-.332-.08c-.134 0-.235.03-.304.088a.287.287 0 0 0-.1.232c0 .101.033.175.1.22.069.045.168.079.296.1l.16.024c.229.035.392.101.488.2a.514.514 0 0 1 .144.38c0 .2-.068.357-.204.472-.136.115-.323.172-.56.172ZM31.512 80v-2.064h.32v.336h.016c.024-.053.05-.103.08-.148A.555.555 0 0 1 32.04 78a.61.61 0 0 1 .364-.112c.136 0 .261.033.376.1.114.064.2.17.256.32h.008a.632.632 0 0 1 .208-.292.642.642 0 0 1 .42-.128c.21 0 .375.07.492.208.12.136.18.33.18.58V80h-.32v-1.268c0-.184-.036-.323-.108-.416-.072-.093-.187-.14-.344-.14a.696.696 0 0 0-.184.024.499.499 0 0 0-.152.072.349.349 0 0 0-.148.296V80h-.32v-1.268c0-.184-.036-.323-.108-.416-.072-.093-.184-.14-.336-.14a.696.696 0 0 0-.184.024.492.492 0 0 0-.156.072.349.349 0 0 0-.152.296V80h-.32Zm4.272.048a.93.93 0 0 1-.38-.076.85.85 0 0 1-.296-.216 1.075 1.075 0 0 1-.188-.34 1.384 1.384 0 0 1-.068-.448c0-.163.023-.31.068-.444a1.02 1.02 0 0 1 .188-.34.827.827 0 0 1 .296-.22.93.93 0 0 1 .38-.076c.139 0 .264.025.376.076.115.05.213.124.296.22a.985.985 0 0 1 .192.34c.045.133.068.281.068.444 0 .165-.023.315-.068.448-.045.13-.11.244-.192.34a.851.851 0 0 1-.296.216.902.902 0 0 1-.376.076Zm0-.284a.582.582 0 0 0 .424-.16c.11-.107.164-.27.164-.488v-.296c0-.219-.055-.381-.164-.488a.582.582 0 0 0-.424-.16.581.581 0 0 0-.424.16c-.11.107-.164.27-.164.488v.296c0 .219.055.381.164.488.11.107.25.16.424.16Zm1.458-1.828h.32v.336h.016a.578.578 0 0 1 .232-.288.696.696 0 0 1 .372-.096.739.739 0 0 1 .612.292c.075.093.131.207.168.34.04.133.06.283.06.448 0 .165-.02.315-.06.448a.944.944 0 0 1-.168.34.739.739 0 0 1-.612.292.625.625 0 0 1-.604-.384h-.016V80.8h-.32v-2.864Zm.852 1.824a.555.555 0 0 0 .428-.168.641.641 0 0 0 .156-.448v-.352a.626.626 0 0 0-.156-.444.549.549 0 0 0-.428-.172.68.68 0 0 0-.376.112.41.41 0 0 0-.116.128.317.317 0 0 0-.04.156v.768c0 .067.014.127.04.18a.455.455 0 0 0 .284.212.767.767 0 0 0 .208.028Zm2.249.288a.93.93 0 0 1-.38-.076.85.85 0 0 1-.296-.216 1.075 1.075 0 0 1-.188-.34 1.384 1.384 0 0 1-.068-.448c0-.163.022-.31.068-.444a1.02 1.02 0 0 1 .188-.34.827.827 0 0 1 .296-.22.93.93 0 0 1 .38-.076c.138 0 .264.025.376.076.114.05.213.124.296.22a.985.985 0 0 1 .192.34c.045.133.068.281.068.444 0 .165-.023.315-.068.448-.046.13-.11.244-.192.34a.851.851 0 0 1-.296.216.902.902 0 0 1-.376.076Zm0-.284a.582.582 0 0 0 .424-.16c.109-.107.164-.27.164-.488v-.296c0-.219-.055-.381-.164-.488a.582.582 0 0 0-.424-.16.581.581 0 0 0-.424.16c-.11.107-.164.27-.164.488v.296c0 .219.054.381.164.488.109.107.25.16.424.16ZM42.14 80c-.112 0-.197-.03-.256-.092a.351.351 0 0 1-.084-.24V77.04h.32v2.68h.304V80h-.284Zm.91-2.548c-.07 0-.12-.016-.152-.048a.197.197 0 0 1-.044-.132v-.052c0-.053.014-.096.044-.128.032-.035.082-.052.152-.052.07 0 .118.017.148.052a.173.173 0 0 1 .048.128v.052a.187.187 0 0 1-.048.132c-.03.032-.079.048-.148.048Zm-.16.484h.32V80h-.32v-2.064Zm1.62 2.112a.991.991 0 0 1-.484-.108 1.13 1.13 0 0 1-.332-.296l.228-.184c.08.101.17.18.268.236.098.053.213.08.344.08a.5.5 0 0 0 .316-.088.293.293 0 0 0 .116-.248.285.285 0 0 0-.08-.204c-.05-.059-.144-.099-.28-.12l-.164-.024a1.472 1.472 0 0 1-.264-.06.841.841 0 0 1-.212-.112.53.53 0 0 1-.14-.176.588.588 0 0 1-.048-.248c0-.101.018-.19.056-.264a.54.54 0 0 1 .152-.192.666.666 0 0 1 .236-.112c.09-.027.188-.04.292-.04.168 0 .308.03.42.088a.94.94 0 0 1 .3.244l-.212.192a.617.617 0 0 0-.2-.172.632.632 0 0 0-.332-.08c-.134 0-.235.03-.304.088a.287.287 0 0 0-.1.232c0 .101.033.175.1.22.07.045.168.079.296.1l.16.024c.23.035.392.101.488.2a.514.514 0 0 1 .144.38c0 .2-.068.357-.204.472-.136.115-.323.172-.56.172Zm1.514-.516c.085 0 .146.023.184.068.04.043.06.099.06.168v.056c0 .11-.032.23-.096.36-.065.133-.154.25-.269.348h-.268c.08-.085.145-.167.192-.244a.74.74 0 0 0 .108-.252.2.2 0 0 1-.12-.076.246.246 0 0 1-.035-.136v-.056c0-.07.018-.125.056-.168.04-.045.102-.068.188-.068Zm3.67.06h-.011a.562.562 0 0 1-.256.328.95.95 0 0 1-.52.128c-.171 0-.328-.03-.472-.092a1.025 1.025 0 0 1-.364-.276 1.376 1.376 0 0 1-.24-.452 2.116 2.116 0 0 1-.084-.624c0-.232.028-.437.084-.616.056-.181.136-.332.24-.452.104-.123.229-.216.376-.28.146-.064.309-.096.488-.096.25 0 .46.056.628.168.168.112.297.26.388.444l-.276.168a.782.782 0 0 0-.288-.352.784.784 0 0 0-.452-.128.815.815 0 0 0-.6.252.854.854 0 0 0-.168.288c-.04.112-.06.237-.06.376v.452c0 .139.02.265.06.38.04.112.096.208.168.288a.79.79 0 0 0 .272.188.962.962 0 0 0 .36.064 1 1 0 0 0 .272-.036.681.681 0 0 0 .228-.116.531.531 0 0 0 .212-.46v-.276h-.616v-.296h.944V80h-.312v-.408Zm1.282.408c-.112 0-.197-.03-.256-.092a.351.351 0 0 1-.084-.24V77.04h.32v2.68h.304V80h-.284Zm1.53.048a.93.93 0 0 1-.38-.076.851.851 0 0 1-.296-.216 1.077 1.077 0 0 1-.188-.34 1.387 1.387 0 0 1-.068-.448c0-.163.022-.31.068-.444.045-.133.108-.247.188-.34a.829.829 0 0 1 .296-.22.93.93 0 0 1 .38-.076c.138 0 .264.025.376.076.114.05.213.124.296.22a.982.982 0 0 1 .192.34c.045.133.068.281.068.444 0 .165-.023.315-.068.448-.046.13-.11.244-.192.34a.85.85 0 0 1-.296.216.902.902 0 0 1-.376.076Zm0-.284a.581.581 0 0 0 .424-.16c.11-.107.164-.27.164-.488v-.296c0-.219-.055-.381-.164-.488a.581.581 0 0 0-.424-.16.582.582 0 0 0-.424.16c-.11.107-.164.27-.164.488v.296c0 .219.054.381.164.488.11.107.25.16.424.16Zm1.458-2.724h.32v1.232h.016a.577.577 0 0 1 .232-.288.696.696 0 0 1 .372-.096.739.739 0 0 1 .612.292c.075.093.13.207.168.34.04.133.06.283.06.448 0 .165-.02.315-.06.448a.944.944 0 0 1-.168.34.739.739 0 0 1-.612.292.625.625 0 0 1-.604-.384h-.016V80h-.32v-2.96Zm.852 2.72a.555.555 0 0 0 .428-.168.641.641 0 0 0 .156-.448v-.352a.626.626 0 0 0-.156-.444.549.549 0 0 0-.428-.172.68.68 0 0 0-.376.112.409.409 0 0 0-.116.128.316.316 0 0 0-.04.156v.768c0 .067.013.127.04.18a.454.454 0 0 0 .284.212.767.767 0 0 0 .208.028Zm2.968.24c-.12 0-.206-.032-.26-.096a.486.486 0 0 1-.096-.24h-.02a.534.534 0 0 1-.224.288.696.696 0 0 1-.372.096c-.218 0-.389-.056-.512-.168a.594.594 0 0 1-.18-.456c0-.195.071-.344.212-.448.144-.104.367-.156.668-.156h.408v-.204c0-.147-.04-.259-.12-.336-.08-.077-.202-.116-.368-.116a.564.564 0 0 0-.316.084.701.701 0 0 0-.208.224l-.192-.18a.715.715 0 0 1 .268-.284.833.833 0 0 1 .464-.12c.251 0 .446.061.584.184.139.123.208.293.208.512v1.136h.236V80h-.18Zm-.92-.224c.08 0 .154-.01.22-.028a.539.539 0 0 0 .172-.08.398.398 0 0 0 .112-.12.286.286 0 0 0 .04-.148v-.34h-.424c-.184 0-.318.027-.404.08a.26.26 0 0 0-.124.232v.084c0 .101.036.18.108.236a.488.488 0 0 0 .3.084Zm1.897.224c-.112 0-.197-.03-.256-.092a.351.351 0 0 1-.084-.24V77.04h.32v2.68h.304V80h-.284Zm2.511.048c-.227 0-.42-.043-.58-.128a1.252 1.252 0 0 1-.408-.36l.248-.208c.099.13.208.23.328.3.12.067.262.1.424.1.2 0 .352-.048.456-.144a.491.491 0 0 0 .16-.384c0-.133-.04-.236-.12-.308-.08-.072-.212-.13-.396-.172l-.228-.052c-.256-.059-.452-.147-.588-.264-.133-.12-.2-.288-.2-.504a.76.76 0 0 1 .068-.328.667.667 0 0 1 .188-.24.855.855 0 0 1 .292-.144c.115-.035.24-.052.376-.052.21 0 .39.039.54.116.152.077.28.19.384.34l-.252.184a.868.868 0 0 0-.28-.252.825.825 0 0 0-.408-.092c-.178 0-.32.039-.424.116-.101.075-.152.188-.152.34 0 .133.043.235.128.304.088.067.22.12.396.16l.228.052c.275.061.473.155.596.28a.684.684 0 0 1 .184.5.863.863 0 0 1-.068.348.694.694 0 0 1-.188.264.88.88 0 0 1-.304.168c-.117.04-.25.06-.4.06ZM63.237 80c-.112 0-.197-.03-.256-.092a.363.363 0 0 1-.084-.248v-1.444h-.34v-.28h.192c.07 0 .116-.013.14-.04.027-.03.04-.079.04-.148v-.384h.288v.572h.452v.28h-.452v1.504h.42V80h-.4Zm2.447 0c-.12 0-.207-.032-.26-.096a.486.486 0 0 1-.096-.24h-.02a.534.534 0 0 1-.224.288.696.696 0 0 1-.372.096c-.219 0-.39-.056-.512-.168a.594.594 0 0 1-.18-.456c0-.195.07-.344.212-.448.144-.104.366-.156.668-.156h.408v-.204c0-.147-.04-.259-.12-.336-.08-.077-.203-.116-.368-.116a.564.564 0 0 0-.316.084.701.701 0 0 0-.208.224l-.192-.18a.716.716 0 0 1 .268-.284.834.834 0 0 1 .464-.12c.25 0 .445.061.584.184.138.123.208.293.208.512v1.136h.236V80h-.18Zm-.92-.224c.08 0 .153-.01.22-.028a.54.54 0 0 0 .172-.08.398.398 0 0 0 .112-.12.287.287 0 0 0 .04-.148v-.34h-.424c-.184 0-.319.027-.404.08a.26.26 0 0 0-.124.232v.084c0 .101.036.18.108.236a.488.488 0 0 0 .3.084Zm2.013.224c-.112 0-.198-.03-.257-.092a.363.363 0 0 1-.084-.248v-1.444h-.34v-.28h.192c.07 0 .117-.013.14-.04.027-.03.04-.079.04-.148v-.384h.288v.572h.453v.28h-.453v1.504h.42V80h-.4Zm1.706.048a.86.86 0 0 1-.676-.292 1.075 1.075 0 0 1-.188-.34 1.465 1.465 0 0 1-.064-.448c0-.163.021-.31.064-.444a1.02 1.02 0 0 1 .188-.34.838.838 0 0 1 .676-.296c.139 0 .263.025.372.076.11.05.203.121.28.212a.89.89 0 0 1 .176.316c.043.123.064.257.064.404v.152h-1.484v.096c0 .088.013.17.04.248.03.075.07.14.12.196.053.056.117.1.192.132a.674.674 0 0 0 .26.048.598.598 0 0 0 .568-.356l.228.164a.806.806 0 0 1-.312.344.957.957 0 0 1-.504.128Zm0-1.892a.585.585 0 0 0-.428.176.674.674 0 0 0-.164.448v.028h1.14v-.044c0-.184-.05-.33-.152-.44a.502.502 0 0 0-.396-.168ZM25.544 83.392c.19 0 .33-.043.424-.128a.436.436 0 0 0 .144-.336V82.9c0-.147-.047-.256-.14-.328a.548.548 0 0 0-.36-.112.597.597 0 0 0-.352.096.71.71 0 0 0-.224.252l-.248-.192c.035-.056.076-.11.124-.164a.865.865 0 0 1 .408-.252c.088-.027.188-.04.3-.04.117 0 .228.016.332.048.104.03.193.075.268.136a.646.646 0 0 1 .248.52.642.642 0 0 1-.328.568.793.793 0 0 1-.208.084v.016a.813.813 0 0 1 .216.08.608.608 0 0 1 .188.14c.056.056.1.125.132.208a.804.804 0 0 1-.016.608.752.752 0 0 1-.192.256.928.928 0 0 1-.3.164c-.117.04-.247.06-.388.06-.12 0-.227-.013-.32-.04a.958.958 0 0 1-.248-.108 1.094 1.094 0 0 1-.336-.328l.252-.192c.035.056.072.107.112.152a.675.675 0 0 0 .312.192.93.93 0 0 0 .224.024c.197 0 .347-.044.448-.132a.489.489 0 0 0 .152-.384V84.2c0-.165-.05-.292-.152-.38-.101-.09-.25-.136-.448-.136h-.328v-.292h.304Zm2.398 0c.19 0 .331-.043.424-.128a.436.436 0 0 0 .144-.336V82.9c0-.147-.046-.256-.14-.328a.548.548 0 0 0-.36-.112.597.597 0 0 0-.352.096.711.711 0 0 0-.224.252l-.248-.192c.035-.056.076-.11.124-.164a.867.867 0 0 1 .408-.252c.088-.027.188-.04.3-.04.118 0 .228.016.332.048.104.03.194.075.268.136a.645.645 0 0 1 .248.52.64.64 0 0 1-.328.568.793.793 0 0 1-.208.084v.016a.813.813 0 0 1 .216.08.608.608 0 0 1 .188.14c.056.056.1.125.132.208a.802.802 0 0 1-.016.608.752.752 0 0 1-.192.256.926.926 0 0 1-.3.164c-.117.04-.246.06-.388.06-.12 0-.226-.013-.32-.04a.958.958 0 0 1-.248-.108 1.094 1.094 0 0 1-.336-.328l.252-.192a.724.724 0 0 0 .252.268c.051.032.108.057.172.076a.93.93 0 0 0 .224.024c.198 0 .347-.044.448-.132a.488.488 0 0 0 .152-.384V84.2c0-.165-.05-.292-.152-.38-.1-.09-.25-.136-.448-.136h-.328v-.292h.304Zm2.555 1.656c-.334 0-.578-.127-.732-.38-.152-.253-.228-.608-.228-1.064 0-.456.076-.81.228-1.064.154-.253.398-.38.732-.38.333 0 .576.127.728.38.154.253.232.608.232 1.064 0 .456-.078.81-.232 1.064-.152.253-.395.38-.728.38Zm0-.292c.11 0 .203-.023.28-.068a.52.52 0 0 0 .188-.192.923.923 0 0 0 .104-.292c.024-.112.036-.236.036-.372v-.456c0-.136-.012-.26-.036-.372a.923.923 0 0 0-.104-.292.52.52 0 0 0-.188-.192.545.545 0 0 0-.28-.068.545.545 0 0 0-.28.068.519.519 0 0 0-.188.192.993.993 0 0 0-.108.292 1.988 1.988 0 0 0-.032.372v.456c0 .136.01.26.032.372.024.112.06.21.108.292.048.083.11.147.188.192.077.045.17.068.28.068Zm1.55.244v-.296h.78v-2.248H32.8l-.704.656-.196-.212.74-.692h.524v2.496h.72V85h-1.836Zm3.247.048c-.334 0-.578-.127-.732-.38-.152-.253-.228-.608-.228-1.064 0-.456.076-.81.228-1.064.154-.253.398-.38.732-.38.333 0 .576.127.728.38.154.253.232.608.232 1.064 0 .456-.078.81-.232 1.064-.152.253-.395.38-.728.38Zm0-.292c.11 0 .202-.023.28-.068a.52.52 0 0 0 .188-.192.923.923 0 0 0 .104-.292c.024-.112.036-.236.036-.372v-.456c0-.136-.012-.26-.036-.372a.923.923 0 0 0-.104-.292.52.52 0 0 0-.188-.192.545.545 0 0 0-.28-.068.545.545 0 0 0-.28.068.519.519 0 0 0-.188.192.993.993 0 0 0-.108.292 1.988 1.988 0 0 0-.032.372v.456c0 .136.01.26.032.372.024.112.06.21.108.292.048.083.11.147.188.192.077.045.17.068.28.068Z" fill="#377CFC"/><g clip-path="url(#b)"><path d="M224.5 11.696v-.893a.802.802 0 0 1-.799-.804h-1.048a.802.802 0 0 1-.799.804.802.802 0 0 1-.799-.804h-1.049a.802.802 0 0 1-.799.804.802.802 0 0 1-.799-.804h-1.048a.802.802 0 0 1-.799.804.802.802 0 0 1-.799-.804h-1.048a.802.802 0 0 1-.799.804.802.802 0 0 1-.799-.804h-1.048a.802.802 0 0 1-.799.804.802.802 0 0 1-.799-.804h-1.049a.802.802 0 0 1-.799.804.802.802 0 0 1-.799-.804h-1.048a.802.802 0 0 1-.799.804.802.802 0 0 1-.799-.804h-1.048a.802.802 0 0 1-.799.804.802.802 0 0 1-.799-.804h-1.048a.802.802 0 0 1-.799.804.802.802 0 0 1-.799-.804h-1.049a.802.802 0 0 1-.799.804v.893c.441 0 .799.36.799.804a.801.801 0 0 1-.799.804v.893c.441 0 .799.36.799.804a.802.802 0 0 1-.799.804v.893c.441 0 .799.36.799.804a.801.801 0 0 1-.799.804v.893c.441 0 .799.36.799.804a.802.802 0 0 1-.799.805v.893c.441 0 .799.36.799.804a.801.801 0 0 1-.799.804v.893c.441 0 .799.36.799.804a.802.802 0 0 1-.799.804v.893c.441 0 .799.36.799.804a.801.801 0 0 1-.799.804v.893c.441 0 .799.36.799.805a.802.802 0 0 1-.799.804v.893c.441 0 .799.36.799.804a.801.801 0 0 1-.799.804v.893c.441 0 .799.36.799.804a.802.802 0 0 1-.799.804v.893c.441 0 .799.36.799.804a.801.801 0 0 1-.799.804v.893c.441 0 .799.36.799.804a.802.802 0 0 1-.799.805v.893c.441 0 .799.36.799.804a.801.801 0 0 1-.799.804v.893c.441 0 .799.36.799.804h1.049c0-.444.358-.804.799-.804.441 0 .799.36.799.804h1.048c0-.444.358-.804.799-.804.441 0 .799.36.799.804h1.048c0-.444.358-.804.799-.804.441 0 .799.36.799.804h1.048c0-.444.358-.804.799-.804.441 0 .799.36.799.804h1.049c0-.444.358-.804.799-.804.441 0 .799.36.799.804h1.048c0-.444.358-.804.799-.804.441 0 .799.36.799.804h1.048c0-.444.358-.804.799-.804.441 0 .799.36.799.804h1.048c0-.444.358-.804.799-.804.441 0 .799.36.799.804h1.049c0-.444.358-.804.799-.804.441 0 .799.36.799.804h1.048c0-.444.358-.804.799-.804v-.893a.801.801 0 0 1-.799-.804c0-.445.358-.804.799-.804v-.893a.802.802 0 0 1-.799-.804c0-.445.358-.805.799-.805v-.893a.801.801 0 0 1-.799-.804c0-.444.358-.804.799-.804v-.893a.802.802 0 0 1-.799-.804c0-.444.358-.804.799-.804v-.893a.801.801 0 0 1-.799-.804c0-.445.358-.804.799-.804v-.893a.802.802 0 0 1-.799-.804c0-.445.358-.805.799-.805v-.893a.801.801 0 0 1-.799-.804c0-.444.358-.804.799-.804v-.893a.802.802 0 0 1-.799-.804c0-.444.358-.804.799-.804v-.893a.801.801 0 0 1-.799-.804c0-.445.358-.804.799-.804v-.893a.802.802 0 0 1-.799-.805c0-.444.358-.804.799-.804v-.893a.801.801 0 0 1-.799-.804c0-.444.358-.804.799-.804v-.893a.802.802 0 0 1-.799-.804c0-.444.358-.804.799-.804v-.893a.801.801 0 0 1-.799-.804c0-.445.358-.804.799-.804Z" fill="#85ACB0"/><path d="M224.107 11.87v-.876a.786.786 0 0 1-.784-.788h-1.028a.786.786 0 0 1-.784.788.787.787 0 0 1-.785-.788h-1.028a.786.786 0 0 1-.784.788.786.786 0 0 1-.784-.788h-1.029a.786.786 0 0 1-.784.788.786.786 0 0 1-.784-.788h-1.028a.786.786 0 0 1-.784.788.787.787 0 0 1-.785-.788h-1.028a.786.786 0 0 1-.784.788.786.786 0 0 1-.784-.788h-1.029a.786.786 0 0 1-.784.788.786.786 0 0 1-.784-.788h-1.028a.786.786 0 0 1-.784.788.787.787 0 0 1-.785-.788h-1.028a.786.786 0 0 1-.784.788.786.786 0 0 1-.784-.788h-1.028a.787.787 0 0 1-.785.788.786.786 0 0 1-.784-.788h-1.028a.786.786 0 0 1-.784.788v.876c.433 0 .784.352.784.788a.786.786 0 0 1-.784.787v.876c.433 0 .784.353.784.788a.786.786 0 0 1-.784.788v.875c.433 0 .784.353.784.788a.786.786 0 0 1-.784.788v.876c.433 0 .784.353.784.788a.786.786 0 0 1-.784.788v.875c.433 0 .784.353.784.788a.786.786 0 0 1-.784.788v.876c.433 0 .784.353.784.788a.786.786 0 0 1-.784.788v.875c.433 0 .784.353.784.788a.786.786 0 0 1-.784.788v.875c.433 0 .784.353.784.788a.786.786 0 0 1-.784.788v.876c.433 0 .784.353.784.788a.786.786 0 0 1-.784.788v.875c.433 0 .784.353.784.788a.786.786 0 0 1-.784.788v.876c.433 0 .784.353.784.788a.786.786 0 0 1-.784.788v.875c.433 0 .784.353.784.788a.786.786 0 0 1-.784.788v.875c.433 0 .784.353.784.788a.786.786 0 0 1-.784.788v.876c.433 0 .784.353.784.788h1.028c0-.435.351-.788.784-.788.433 0 .785.353.785.788h1.028c0-.435.351-.788.784-.788.433 0 .784.353.784.788h1.028c0-.435.352-.788.785-.788.433 0 .784.353.784.788h1.028c0-.435.351-.788.784-.788.433 0 .784.353.784.788h1.029c0-.435.351-.788.784-.788.433 0 .784.353.784.788h1.028c0-.435.352-.788.785-.788.433 0 .784.353.784.788h1.028c0-.435.351-.788.784-.788.433 0 .784.353.784.788h1.029c0-.435.351-.788.784-.788.433 0 .784.353.784.788h1.028c0-.435.352-.788.785-.788.433 0 .784.353.784.788h1.028c0-.435.351-.788.784-.788v-.876a.786.786 0 0 1-.784-.788c0-.435.351-.788.784-.788v-.875a.786.786 0 0 1-.784-.788c0-.435.351-.788.784-.788v-.875a.786.786 0 0 1-.784-.788c0-.435.351-.788.784-.788v-.876a.786.786 0 0 1-.784-.788c0-.435.351-.788.784-.788v-.875a.786.786 0 0 1-.784-.788c0-.435.351-.788.784-.788v-.876a.786.786 0 0 1-.784-.788c0-.435.351-.788.784-.788v-.875a.786.786 0 0 1-.784-.788c0-.435.351-.788.784-.788v-.875a.786.786 0 0 1-.784-.788c0-.435.351-.788.784-.788v-.876a.786.786 0 0 1-.784-.788c0-.435.351-.788.784-.788V20.8a.786.786 0 0 1-.784-.788c0-.435.351-.788.784-.788v-.876a.786.786 0 0 1-.784-.788c0-.435.351-.788.784-.788v-.875a.786.786 0 0 1-.784-.788c0-.435.351-.788.784-.788v-.876a.786.786 0 0 1-.784-.787c0-.436.351-.788.784-.788Z" fill="#fff"/><path d="M222.344 12.035h-22.269V42.78h22.269V12.035Z" fill="#FFAD3A" fill-opacity=".16"/><path d="M183.132 27.575c.021.044.06.083.107.121a18.47 18.47 0 0 0 1.601-.279.323.323 0 0 0 .04-.086l-.106-.154c.098.049.119.1.106.154l.046.067.108-.024c.129-.143.213-.248.523-.315-.012.087.019.14.072.175 4.376-1.086 8.735-3.147 12.918-.643.525-.12.012-.202.618-.22-5.539-2.984-10.729.371-15.985 1.072a.37.37 0 0 1 .059.1l-.107.033v-.001ZM176.656 26.348c-.181.074.256.17.484.257.123.071.246.139.37.202a.227.227 0 0 0 .012-.034 9.913 9.913 0 0 1-.866-.425ZM180.227 27.657l.001.035c.933.14 1.87.132 2.806.028a1.004 1.004 0 0 0-.113-.077c.082-.025.126-.132.171-.188-.395.05-.789.086-1.183.102-.005.069-.072.043-.15.004-.332.01-.665.006-.999-.015l.075.189-.203-.198c-.069-.005-.138-.01-.207-.017l.063.137c-.052.021-.182-.01-.26 0h-.001Z" fill="#4BB4B3"/><path d="M180.227 27.657a.557.557 0 0 0-.053-.164 9.674 9.674 0 0 1-1.171-.216.376.376 0 0 0-.047.023l.137.143a8.83 8.83 0 0 0 1.079.24c.01-.015.029-.023.055-.026ZM176.5 29.366c.122.066.243.128.365.187.307-.105.155-.148-.365-.187ZM190.99 28.698c2.565-.492 5.179-.513 7.872.935-.27-.156.242-.158-.313-.3-2.127-1.295-4.323-1.365-6.572-.981l.004.067-.158.05.034-.097c-.319.057-.64.123-.961.195.058.035.101.068.094.13v.001ZM186.726 29.786c.265-.074.532-.15.799-.223a1.098 1.098 0 0 0-.034-.084c-.271.077-.541.152-.814.227a.16.16 0 0 1 .049.082v-.002ZM190.815 28.733c-.027-.027-.031-.077-.022-.141-1.007.232-2.026.525-3.052.817-.023.042-.037.079-.057.11 1.037-.291 2.08-.576 3.129-.786h.002ZM182.46 30.642c.077-.029.215-.085.345-.093a1.834 1.834 0 0 1-.016-.053c-.216.023-.433.04-.651.054.069.04.118.11.165.177l.244-.027c-.008-.023-.033-.043-.085-.058h-.002Z" fill="#4BB4B3"/><path d="M176.865 29.552a3.994 3.994 0 0 1-.286.082 8.859 8.859 0 0 0 2.534.954c.098-.06.19-.124.273-.197a9.883 9.883 0 0 1-2.521-.839ZM185.964 29.893c-.006.023.007.05.046.09l.351-.096a.967.967 0 0 0-.051-.085c-.115.032-.229.061-.344.09h-.002ZM179.461 30.405a.617.617 0 0 1-.131.167l.08.074c.176.03.353.056.528.076.062-.059.117-.138.175-.222a9.959 9.959 0 0 1-.653-.097l.001.002ZM183.112 30.46l-.157.019c.005.034.013.069.02.102a.187.187 0 0 1 .063.055l.125-.02a.255.255 0 0 0-.053-.156h.002ZM181.96 30.56a5.092 5.092 0 0 1-.146.006 2.883 2.883 0 0 0-.088.192c.006.005.014.008.022.012l.281-.018a.199.199 0 0 0 .064-.052l-.133-.14ZM183.468 30.456c-.108.016-.163.07-.186.141l.186-.03a.693.693 0 0 0 .079-.075c-.026-.013-.052-.027-.079-.036ZM189.617 32.059l.038.025c.985-.264 1.961-.49 2.928-.611 0-.006-.002-.01-.003-.015l.011.013c1.765-.22 3.503-.093 5.217.784.008-.053.051-.109.162-.163.003.056-.04.235.066.258.07-.073.059-.18.058-.278-1.97-.95-3.932-1.03-5.905-.74-.066.07-.144.103-.263.041l-.044.008v.019-.019c-.744.124-1.488.295-2.234.49.004.002.008.002.012.005a.296.296 0 0 1-.041.181l-.002.002ZM186.972 32.845v-.035c.004-.063.012-.132.018-.202-.963.267-1.931.519-2.907.698l.081.215a31.504 31.504 0 0 0 2.807-.676h.001ZM182.176 33.548c-.123.008-.247.015-.37.02.036.037.04.083-.066.145-.246-.124-.439-.052-.596.064.429.014.856.003 1.281-.028a.71.71 0 0 1-.317-.097c.026-.035.048-.07.069-.104h-.001ZM187.517 32.69c.002-.07.006-.14.094-.167a.604.604 0 0 0-.018.146c.652-.187 1.299-.377 1.943-.551l-.13-.049c.044-.063.077-.122.111-.163-.771.204-1.545.428-2.321.646.03.075.065.147.108.2.072-.02.143-.04.214-.062h-.001ZM182.958 33.7c.229-.026.458-.057.687-.092-.069-.033-.115-.09-.099-.212-.226.035-.453.066-.68.092l-.032.03.124.183v-.002ZM183.936 33.331l-.11.02c.042.014.079.011.11-.02ZM182.499 33.742c.09-.006.18-.015.269-.023a.445.445 0 0 0 .051-.188c-.107.104-.198.188-.32.211ZM198.137 32.207l-.098.17c.126.07.252.142.378.22.221-.048-.066-.157.277-.21a8.442 8.442 0 0 0-.295-.161.343.343 0 0 1-.042.08c-.101.085-.108-.022-.219-.1h-.001ZM182.137 36.758l-.036-.168c-.228.01-.456.013-.684.01l-.165.185c.296.002.591-.007.885-.027ZM191.718 34.587c2.277-.383 4.606-.337 7.057.862-.058-.036-.077-.077.04-.11-2.248-1.335-4.53-1.377-6.846-.958-.062.071-.157.137-.252.206h.001ZM182.404 36.737c3.074-.27 6.069-1.576 9.157-2.123l-.013-.152c-2.561.522-5.164 1.545-7.808 1.96a.258.258 0 0 1-.194.03c-.326.046-.653.084-.981.11l-.007.021c-.083.016-.127.078-.155.155l.001-.001ZM180.113 36.72l.084.009c.165-.06.361-.07.515-.16a10.33 10.33 0 0 1-.807-.096c.059.1.126.183.208.248ZM198.886 35.502c.035.017.07.033.106.052.012-.007-.043-.026-.106-.053Z" fill="#4BB4B3"/><path d="M198.775 35.447c.03.02.071.038.11.054l-.11-.053ZM198.409 38.346c.063.051.366.197.785.274-.457-.239-.91-.435-1.359-.597.192.098.383.205.574.323ZM177.961 39.094c.05-.06.097-.09.142-.104a8.79 8.79 0 0 1-.254-.107c.009.102.026.196.112.212v-.001ZM193.706 37.192c-1.761.071-3.577.559-5.406 1.077-.069.092-.215.168-.219.251 1.792-.502 3.597-.983 5.436-1.087.08-.063.172-.137.189-.241ZM193.709 37.19l.012.23c1.347-.054 2.716.1 4.115.602-1.33-.68-2.71-.89-4.127-.831ZM176.841 38.431c-.29.038.159.076-.175.206.071.038.142.073.213.108.01-.13.003-.25-.038-.315v.001ZM180.077 39.514c.069.085.418-.01.447.25 2.546.201 5.037-.538 7.546-1.241l-.1-.16c-2.638.75-5.306 1.515-7.892 1.15h-.001ZM178.732 39.278c.127 0 .271-.035.17.186.01.018.02.031.03.043.036.01.074.02.11.027.051-.032.096-.118.138-.194a8.415 8.415 0 0 1-.607-.176c.006.1.079.114.159.114ZM177.383 38.81c-.068-.14-.148-.04-.225.07.086.038.17.078.256.114a.406.406 0 0 0-.031-.185v.002ZM200.952 20.873l-.118-.178c-.158-.166-.37-.241-.516-.458l-.203.03.203.29-.319-.225.022-.048c-.502.088-.997.207-1.478.358-.014.045-.038.074-.095.058v-.027c-.098.031-.196.065-.294.099.029.19-.118.12-.236.084a12.274 12.274 0 0 0-3.012 1.642c.024.04.048.073.072.096a10.825 10.825 0 0 1 5.976-1.723l-.002.002ZM194.859 22.672a1.213 1.213 0 0 0-.047-.104c-.165.126-.327.254-.485.387l.005.019-.016-.011a12.87 12.87 0 0 0-1.338 1.299 10.703 10.703 0 0 1 1.881-1.589ZM189.92 31.723l-.065-.053c.059-.122.104-.15.147-.163a11.464 11.464 0 0 1 1.101-4.502c-.447.876-.798 1.81-1.041 2.79.016.018.032.037.049.06l-.055-.033c-.16.652-.27 1.324-.327 2.01.117.099.167.017.193-.11l-.002.001ZM211.897 26.9l.066.1c.015.018.03.04.044.067l-.044-.067c-.11-.14-.206-.06-.327-.062.088.178.172.36.252.543.04.012.076 0 .084-.061l-.087-.132c-.052-.03-.099-.07-.132-.202l.132.202c.045.026.093.042.14.098.09.138.057.352-.032.342.097.24.187.482.27.729-.004-.051.023-.105-.06-.236l.251.205.006.003-.147-.233c.098.08.176.22.214.29a.204.204 0 0 0-.067-.056l.003.004-.009-.007c-.062-.025-.094.04-.051.188a.415.415 0 0 1-.124-.11c.021.061.039.12.058.181l.009.03c.21.668.365 1.357.46 2.063l.22.18-.083.009c.26.214.205.435.127.486l-.154-.279a.184.184 0 0 0-.056.054c.005.06.012.119.016.178.02.023.047.046.083.07-.02.012-.047.007-.079-.012.004.043.007.085.009.128l.303.113.022.083a12.215 12.215 0 0 0-.365-2.629c-.067.002.054.208 0 .163l-.226-.377c.06.031.138.085.205.13a11.656 11.656 0 0 0-.818-2.203c-.021.024-.055.036-.113.027ZM210.869 25.606c.064.053.131.103.16.045-.085-.229.012-.269.055-.345a11.889 11.889 0 0 0-.417-.558.769.769 0 0 1-.286.179c.17.22.333.447.487.68l.001-.001ZM211.715 28.813c.06.168.135.199.213.272-.031-.101-.063-.201-.096-.3-.041-.018-.081-.015-.117.028Z" fill="#4BB4B3"/><path d="M192.545 37.677c-.06-.2-.281.124-.273-.197.177.033.279.134.446.057a9.99 9.99 0 0 1-.347-.7c-.126.129-.259.302-.276.556l.045.167-.004-.003c.079.144.162.285.25.425l-.016-.145.175-.16ZM200.834 20.696a.658.658 0 0 1 .122.178H201a.45.45 0 0 0-.043.005l.011.023-.015-.023c-1.379.15-2.655.524-3.804 1.084.111.11.198.39.335.376l-.011-.027c-.013-.089.052-.035.086-.006a.143.143 0 0 1-.075.033c.139.352.201.165.319.276l.118-.044c-.003-.096.009-.159.095-.034a8.36 8.36 0 0 1 3.294-.464c.229-.006.457-.002.683.008.031-.1.041-.252.168-.045l-.015.051a9.845 9.845 0 0 1 2.629.52c.022-.044.063-.054.137.007-.115-.399-.2-.392-.409-.45-.019-.13-.09-.226.009-.335-.069.044-.233-.194-.396-.442-.096-.03-.191-.06-.286-.088-.138.169-.487-.058-.525.3.29.432-.027.016.083.374l-.128-.296c-.229.002-.698-.27-.952-.63.015-.024.009-.06 0-.094-.178-.03-.356-.055-.537-.076.222-.015.442-.02.661-.02l-.107-.293-.177-.032c-.168-.175.048-.074-.128-.295l.423.347-.252-.425a13.324 13.324 0 0 0-.518-.043c-.113.003-.225.008-.338.014-.019.081-.052.122.018.244l.351.252c-.014-.086-.105-.124-.149-.237l.212.074-.003-.016.018.021.256.09c-.027.015.006.044.045.114-.008.137-.193-.076-.301-.204l-.015-.005c.072.351-.118.198-.28.253-.121-.1-.235-.49-.392-.568-.063.005-.126.01-.189.017-.035.152-.115.28-.157.403l.085.127v.001Zm-3.133 1.14a.16.16 0 0 0-.034.004c.017.106-.175-.044-.067.153.066.09.141.25.184.185l-.027-.092.038.067a.138.138 0 0 1-.011.025l.031.105c-.196-.16-.221-.143-.396-.363l.051-.035c.059.03.125-.028.197-.045a.077.077 0 0 0-.006-.027.185.185 0 0 1 .04.023c.071-.002.149.052.233.278-.151.052-.1-.181-.233-.279Zm.287.246.104-.067-.168-.177c.032.028.254.171.284.387l-.22-.143Zm3.732-.754-.117-.21c.066-.136.412.26.231-.192l.22.334c-.058-.01-.307.053-.101.3.169.177.256-.02.358.293-.28-.343-.314.01-.438-.054-.11-.165.13.107.04-.121-.291-.43-.373 0-.276.27-.078-.14-.068-.477-.233-.42.197-.03.041-.31.316-.2ZM191.999 35.885a11.572 11.572 0 0 1-.576-3.582c-.009-.372.001-.74.032-1.102-.07-.037-.137-.073-.192-.092.019.13.09.418.149.428-.059-.01-.214-.29-.319-.414.042-.119.152-.143.03-.396l-.027.016c-.024-.17.249.198.377.272l.002-.026a.276.276 0 0 0-.015-.056 1.877 1.877 0 0 0-.064-.096.204.204 0 0 1 .064.096c.006.01.013.017.018.027.012-.114.027-.227.043-.338-.074-.118-.16-.233-.09-.14.027-.015.066.013.103.044.012-.078.024-.156.039-.233a.306.306 0 0 0-.127-.102l.111-.025-.357-.483c.053-.034.267.257.171-.012l-.066-.054c.072-.095.047-.267.172-.204l.195.386c.163-.71.398-1.393.699-2.038l-.066-.147c.034.044.07.074.095.085.008-.02.018-.037.027-.056a.022.022 0 0 0-.003-.01c-.039-.07-.071-.096-.136-.151l.189.06a10.192 10.192 0 0 1 3.773-4.163 1.053 1.053 0 0 0-.567-.172c-.071-.097-.222.046-.257.209-.062-.05-.138-.205-.193-.26l-.065.05c.046.111.116.205.206.242.018.27-.163-.066-.282-.182-1.775 1.425-3.071 3.375-3.74 5.595.02.022.039.045.055.075a.285.285 0 0 0-.059-.06l-.048.168c0 .004-.002.007-.003.01a12.123 12.123 0 0 0-.387 1.999l.278.339-.287-.265c-.038.389-.061.784-.064 1.182-.032 1.206.15 2.36.504 3.44.233-.222.397.116.657.136h.001Zm.471-9.322-.138.04-.006-.044.144.004Zm-.543 1.195c.032.027.097.08.142.194l-.15-.047.008-.147ZM205.492 22.249c.326.458.393.132.614.276-.103-.312-.312-.372-.383-.469l.351.252a.779.779 0 0 0 .008-.109 11.835 11.835 0 0 0-.697-.333c.102.194.025.207.107.384v-.001ZM205.231 21.23l.024.053c.34.105.673.23.997.37-.017-.025-.036-.053-.055-.087-.06-.418.201.065.374.182a.685.685 0 0 0 .144-.177c-.006.21-.066.23-.144.177a.214.214 0 0 1-.048.03c.363.172.716.366 1.056.58l.13-.044v.126c.121.08.24.16.358.245.083-.032.132-.138.185-.235a12.454 12.454 0 0 0-2.524-1.401l.04.128c-.19.073-.185.306-.537.054ZM204.618 20.957a1.263 1.263 0 0 1-.106-.215c-.169-.24-.289.089-.505-.25.028.052.059.125.099.182.015.015.029.033.048.056a.3.3 0 0 1-.048-.056c-.121-.12-.101.056-.148.085.092.118.195.208.297.272.191.038.38.08.567.128a.707.707 0 0 0-.094-.227c.221.335.312.182.501.296l-.356-.482c.027.01.043.01.053.001a13.29 13.29 0 0 0-.465-.145c.015.046.031.091.05.137.033.047.068.116.106.216l.001.002ZM208.297 22.605c.169.176.25.55.343.397l-.188-.307c.184.074.181.454.338.353-.066-.119-.059-.178-.078-.25a11.281 11.281 0 0 0-.413-.313.499.499 0 0 0-.004.12h.002ZM202.546 20.2a12.29 12.29 0 0 0-.319-.037l.199.103c.09.073.112.02.118-.066h.002ZM212.816 30.85c.004.026.006.053.009.079a.272.272 0 0 0 .019-.042l-.03-.036h.002ZM210.176 37.977a.59.59 0 0 1 .241.121l-.026.103c.266-.394.51-.8.729-1.22a1.014 1.014 0 0 1-.288-.137 9.618 9.618 0 0 1-.656 1.133ZM208.413 24.84l.03.029v-.042a.072.072 0 0 1-.03.012v.002Z" fill="#4BB4B3"/><path d="m210.102 38.106-.002-.016c-1.436 2.072-3.667 3.568-6.29 3.986.036.021.06.001.107.04.007.045.11.167.091.23l-.208-.269a9.602 9.602 0 0 1-2.392.074c-.802.057-1.569.025-2.296-.089a.247.247 0 0 1-.017.038c-.047.012-.058-.01-.054-.048a9.148 9.148 0 0 1-1.238-.293c.002.011.006.022.012.031l-.018-.033a8.54 8.54 0 0 1-3.637-2.248c.088.394-.462-.15-.576-.078.021-.25.138-.04.08-.43l.279.346c-.014-.046-.024-.078-.029-.104a9.308 9.308 0 0 1-1.179-1.674c-.036.032-.096-.004-.146.026l.096.518c-.133.162-.104-.196-.165-.318-.113-.106-.108.093-.105.236.079.128.162.253.247.379.071-.045.182.063.303.133-.097-.016-.145.007-.187.035.201.283.416.556.642.819l-.021-.04c.063.113.272.25.391.448.433.457.905.878 1.407 1.258.024-.078-.011-.242-.023-.326.233.423.256-.019.437.436.044.105.068.182.08.244.482.328.988.618 1.513.872l-.101-.12c.038-.121.182-.117.294-.139.038.066.072.115.103.152l.005-.07c.015.058.03.097.046.123a.176.176 0 0 0 .069.039c.1-.028.192-.342.14-.085l-.001.026c.052-.037.105-.046.198.12.067.274-.239-.037-.174.212.195.081.392.157.592.227-.086-.162.195.093.019-.194.084-.007.11.165.149.237h-.049c.905.304 1.85.495 2.809.556.176-.004.35-.012.524-.026-.171-.276.127-.111.031-.406.095.059.173.25.188.389.434-.04.86-.11 1.279-.202-.214-.241-.407-.018-.635-.57l-.048.264-.129-.296c.074-.284.399.174.653.155.124.063-.056-.198 0-.19.208.246.006.233.083.373.076.08.155.159.231.229 2.582-.616 4.838-2.186 6.44-4.251v-.008l.005.001c.13-.168.258-.34.378-.514-.068-.096-.143-.135-.203-.217l.002.002Zm-14.309 3.333c.049-.266.223-.046.341-.026-.053.033-.128.317-.341.026Zm2.395.91-.057-.36.103.12-.046.242v-.002Zm2.25-.113c.058.01.047-.075.118.022.039.071.215.1.272.3-.135-.148-.344-.206-.39-.32v-.002ZM205.137 21.767l.007-.006-.01-.004.003.01ZM211.519 26.664c-.021-.03-.045-.059-.069-.089.012.022.022.044.035.065.01.005.022.014.036.024h-.002Z" fill="#4BB4B3"/><path d="M197.796 43.198c-.078-.14-.09-.228-.129-.298.1.15.177.16.175.034a11.142 11.142 0 0 1-2.314-1.1c-.051.075-.114.133-.271-.152l.027-.005a11.724 11.724 0 0 1-2.86-2.68.596.596 0 0 0-.353.067.316.316 0 0 0-.014.096 13.307 13.307 0 0 0 2.575 2.532c.049-.078.053-.229.169-.193.121.263-.006.244-.118.232.33.244.672.473 1.023.687-.039-.137-.125-.284-.001-.213.049.09.102.197.13.29.059.035.118.07.178.103l.003-.024a.118.118 0 0 1 0 .027c.437.25.89.476 1.355.676-.028-.22.296-.035.426-.078l-.001-.001Zm-2.859-1.74.201.396c-.124-.064-.209-.248-.201-.395Z" fill="#4BB4B3"/><path d="M204.107 43.366c.022.056.041.124.109.217-.075.047-.178-.09-.269-.187l-.126.019c.037.046.08.063.126.1-.067.138-.244.106-.387.105a2.157 2.157 0 0 0-.056-.162c-.599.071-1.212.09-1.836.051a10.851 10.851 0 0 1-3.828-.572c.028.223.181.179.327.262l-.142-.191c.049.007.156.167.216.159-.009-.034-.003-.05.031-.034-.007.022-.017.031-.031.034.026.093.172.322.271.43-.15-.045-.194-.35-.319-.224.131.176.123.213.126.27 1.035.352 2.122.576 3.233.643.299-.025.596-.06.888-.104.029-.08.116-.066.209-.032a14.686 14.686 0 0 0 1.929-.439c-.015-.015-.032-.016-.056.008l.045-.077c.016.022.031.04.046.058l.067-.02a1.97 1.97 0 0 1-.132-.168c.12.111.179.139.222.14l.236-.077c-.067-.085-.133-.14-.092-.105.195-.123.446-.25.712-.119l.15-.059-.017-.118a.312.312 0 0 0 .094.089c.115-.048.229-.095.34-.145l-.053-.09.09.074c.071-.03.14-.063.21-.095l-.115-.096.131-.084.023.16a12.59 12.59 0 0 0 2.638-1.652l-.253-.16a10.581 10.581 0 0 1-4.758 2.193l.001-.002ZM212.266 33.428c-.137-.022-.296-.202-.464-.348a9.538 9.538 0 0 1-.61 2.932l.044.008-.048.03.046.159-.09-.073c-.04.1-.082.2-.125.3.038.034.078.073.121.117-.013.104.117.21-.001.19l.056.09c.051-.1.1-.203.149-.305a.309.309 0 0 0-.07-.058c-.011.024-.024.046-.056.034.005-.044.026-.049.056-.034.016-.037.029-.077.099-.007a11.52 11.52 0 0 0 .914-2.923.364.364 0 0 1-.128-.044l.106-.068h.001ZM211.873 37.398c-.233.48-.5.941-.8 1.382.072.056.134.077.158-.016.161.324-.013.106.006.234l.021.04c.314-.45.594-.923.838-1.42v-.014l-.223-.206ZM213.034 31.998c.109.354-.075.471.145.807-.164-.084-.2.019-.257.09 0 1.557-.365 3.067-1.016 4.435a.49.49 0 0 1 .222.224c.717-1.484 1.107-3.161 1.087-4.98.003-.113.006-.224.006-.335a1.195 1.195 0 0 1-.187-.24v-.001ZM196.301 22.72c.215.291-.013.104-.071.096.102.13.168.283.227.44a9.092 9.092 0 0 1 1.079-.534.884.884 0 0 0-.141-.174l-.118.171c-.123-.063.034-.163-.043-.303-.033.162-.203-.013-.264.164-.083.093-.252-.129-.342-.347-.106.06-.21.12-.313.182.099-.004.296.176.193-.062l.228.186-.23.002.097.271c-.099.11-.213-.288-.337-.353a.067.067 0 0 1 .008-.02c-.112.069-.223.137-.333.21.14.094.3.212.362.069l-.002.003ZM209.003 41.06c.066.093.13.097.197.124l.018.067a11.418 11.418 0 0 0 1.91-2.033c-.056-.081-.111-.18-.169-.277-.556.787-1.216 1.5-1.957 2.12h.001Z" fill="#4BB4B3"/><path d="m211.184 36.034-.009.024.013-.01-.004-.016v.002ZM197.618 43.38l.169.067-.212-.203c-.055.012-.004.072.044.136h-.001ZM197.005 22.035l-.091.046c.039-.006.072-.018.093-.043v-.003h-.002ZM211.718 30.228l.376.424c.008-.206.077-.207.169-.13a11.072 11.072 0 0 0-.285-1.269c-.032-.077-.043-.205-.11-.162l-.027.208.066.052-.319-.223c.234.04.028-.396.095-.532l.116.095a10.279 10.279 0 0 0-.28-.727l-.114-.094c.011-.031.034-.031.061-.03a11.23 11.23 0 0 0-.508-1.01c-.063.016-.112.043-.011.242-.067.326-.325-.458-.398-.175.037.069.115.209.174.221.051.156-.059-.012-.091-.038-.065-.052-.193-.348-.116-.398.353.553.113-.178.259-.16l-.179-.283c-.13-.14-.244-.21-.227.016l.068.086c.031.013.066.05.109.136l-.109-.136c-.061-.027-.108.034-.173-.019l.09.225c.008.055-.096.049-.182.03a.229.229 0 0 1-.036-.01.234.234 0 0 1-.069-.027c.022.008.046.02.069.027l.036.01c.05.006.076-.022.02-.162-.071-.097-.214-.29-.273-.3.047-.077.17-.015.139-.23l.07.285.126-.125a1.46 1.46 0 0 0-.221-.306l-.026-.012c.005-.003.015.003.026.012a.237.237 0 0 0 .219.003 10.46 10.46 0 0 0-.437-.56c-.055-.003-.067.059.043.308-.155-.09-.378-.045-.548-.223l.351.442-.331-.218-.013.012-.13-.106.144.095c.067-.07-.131-.208-.155-.371-.127-.04-.115.172-.058.466.232.27.452.556.657.852.048-.032.078-.076.054-.17.182.247.19.434.244.624l.068.113c.161.049.031-.22.232.053l-.143-.003.11.167a.094.094 0 0 1-.047.04l.11.2c.009-.004.018-.008.026-.014l-.018.027c.496.919.876 1.93 1.119 3.018.095-.014.229.006.189-.266h-.001Zm-1.129-3.065v-.003c-.011-.023-.01-.018 0 .003l.276.342c-.079.087-.24-.26-.276-.342Zm.283.575c.091.036.028-.206.169-.015.018.13-.11.024-.169.015Zm.276.214c-.015.001-.019.025-.003.086-.023-.07-.019-.091.003-.086.045-.006.197.183.232.126-.027-.048-.014-.1-.038-.17l-.059-.099a.32.32 0 0 1 .059.1l.246.417c-.086.018-.368-.353-.44-.374ZM191.254 37.595c-.039.116-.169 0-.198.048.071.127.145.253.22.379a.045.045 0 0 1 .009-.02l.04.1.079.127h.05c.023-.083.04-.164.012-.22a2.91 2.91 0 0 1 .126-.255 7.397 7.397 0 0 1-.133-.236c-.014.055-.055.075-.157.003.098-.11-.238-.464-.371-.38.102.275-.039.095-.087.105.048.094.097.188.147.281a.25.25 0 0 1 .263.07v-.002ZM191.057 36.823c-.078-.142-.111.023-.172.01.014-.103.14-.037-.034-.257.072.022.135.073.189.104a11.935 11.935 0 0 1-.947-3.273l-.001-.003-.079-.036c.029 0 .055.015.079.036h.001a11.959 11.959 0 0 1-.1-1.079c-.002-.076-.002-.153-.003-.231-.117-.287-.056.172-.223-.037l-.05-.11c-.01.127-.018.255-.023.383a9.761 9.761 0 0 0 .356 2.869l.105.098a.341.341 0 0 1-.047.106c.154.519.347 1.027.579 1.52.145.03.339.072.37-.099v-.001ZM191.672 38.349c.224.369.48.447.667.537-.183-.245-.356-.5-.519-.76a.551.551 0 0 0-.148.223ZM212.014 32.076c.114.399.164-.056.265.256.037 0 .085.008.135.012 0-.222-.007-.443-.021-.661a.648.648 0 0 0-.135-.094c.02-.06.066-.064.126-.04a11.032 11.032 0 0 0-.027-.313c-.06.078-.107.204-.272-.057-.007.146-.249.062-.121.359-.163-.297-.139 0-.252-.027.039.277.069.558.09.844a.87.87 0 0 0 .212-.279ZM192.29 36.653l-.009-.022-.105-.188c.029.047.051.082.07.108-.063-.154-.123-.31-.18-.468a1.054 1.054 0 0 1-.634-.072c.088.243.185.483.29.719a.598.598 0 0 1 .567-.078l.001.001ZM191.101 27.006c.51-.999 1.142-1.922 1.877-2.746-.752.8-1.387 1.723-1.877 2.746Z" fill="#4BB4B3"/></g><rect x="13" y=".5" width="220" height="95" rx="3.5" stroke="#F2F3F4"/></g><defs><clipPath id="b"><path fill="#fff" transform="translate(176.5 10)" d="M0 0h48v35H0z"/></clipPath><filter id="a" x=".5" y="0" width="245" height="120" filterUnits="userSpaceOnUse" color-interpolation-filters="sRGB"><feFlood flood-opacity="0" result="BackgroundImageFix"/><feColorMatrix in="SourceAlpha" values="0 0 0 0 0 0 0 0 0 0 0 0 0 0 0 0 0 0 127 0" result="hardAlpha"/><feMorphology radius="2" in="SourceAlpha" result="effect1_dropShadow_4469_5689"/><feOffset dy="4"/><feGaussianBlur stdDeviation="3"/><feColorMatrix values="0 0 0 0 0.054902 0 0 0 0 0.054902 0 0 0 0 0.054902 0 0 0 0.03 0"/><feBlend in2="BackgroundImageFix" result="effect1_dropShadow_4469_5689"/><feColorMatrix in="SourceAlpha" values="0 0 0 0 0 0 0 0 0 0 0 0 0 0 0 0 0 0 127 0" result="hardAlpha"/><feMorphology radius="4" in="SourceAlpha" result="effect2_dropShadow_4469_5689"/><feOffset dy="12"/><feGaussianBlur stdDeviation="8"/><feColorMatrix values="0 0 0 0 0.054902 0 0 0 0 0.054902 0 0 0 0 0.054902 0 0 0 0.08 0"/><feBlend in2="effect1_dropShadow_4469_5689" result="effect2_dropShadow_4469_5689"/><feBlend in="SourceGraphic" in2="effect2_dropShadow_4469_5689" result="shape"/></filter></defs></svg>