<svg width="262" height="138" fill="none" xmlns="http://www.w3.org/2000/svg"><g clip-path="url(#a)"><rect width="218" height="131" rx="8" fill="#fff"/><g opacity=".8" filter="url(#b)"><circle cx="170" cy="186" r="128" fill="#CFCFCF"/></g><g opacity=".8" filter="url(#c)"><circle cx="242" cy="34" r="64" fill="#D6DADB"/></g><g opacity=".8" filter="url(#d)"><circle cx="16" cy="16" r="40" fill="#CFCFCF"/></g><path d="M227.083-9.098 87.841 13.015 62.313 131h139.242L227.083-9.098Z" fill="#fff" style="mix-blend-mode:overlay" opacity=".16"/></g><rect x="16" y="16" width="64" height="40" rx="4" fill="#E0E0E0"/><rect x="16" y="83" width="64" height="12" rx="4" fill="#E0E0E0"/><rect x="16" y="99" width="101" height="16" rx="4" fill="#E0E0E0"/><path opacity=".5" d="M92.36 24.762v4.96c0 .32-.053.613-.16.88-.1.26-.25.483-.45.67-.2.18-.443.324-.73.43-.28.1-.6.15-.96.15a2.78 2.78 0 0 1-.92-.14 2.037 2.037 0 0 1-.68-.4 2.146 2.146 0 0 1-.46-.62 2.742 2.742 0 0 1-.25-.8l1.42-.28c.113.607.403.91.87.91a.8.8 0 0 0 .56-.21c.16-.14.24-.36.24-.66v-3.67h-2.12v-1.22h3.64Zm3.546 7.1c-.387 0-.733-.063-1.04-.19a2.12 2.12 0 0 1-.77-.55 2.555 2.555 0 0 1-.48-.87c-.113-.34-.17-.72-.17-1.14 0-.42.057-.8.17-1.14.113-.34.273-.627.48-.86.213-.24.47-.423.77-.55.307-.127.653-.19 1.04-.19s.73.064 1.03.19c.307.127.563.31.77.55.213.234.377.52.49.86.113.34.17.72.17 1.14 0 .42-.057.8-.17 1.14-.113.34-.277.63-.49.87-.207.24-.463.424-.77.55-.3.127-.643.19-1.03.19Zm0-1.17c.293 0 .52-.09.68-.27.16-.18.24-.437.24-.77v-1.07c0-.333-.08-.59-.24-.77-.16-.18-.387-.27-.68-.27-.293 0-.52.09-.68.27-.16.18-.24.437-.24.77v1.07c0 .333.08.59.24.77.16.18.387.27.68.27Zm3.514-6.35h1.48v3.04h.06c.094-.273.257-.51.49-.71.234-.2.557-.3.97-.3.54 0 .947.18 1.22.54.28.36.42.873.42 1.54v3.29h-1.48v-3.17c0-.34-.053-.59-.16-.75-.106-.166-.296-.25-.57-.25-.12 0-.236.017-.35.05a.88.88 0 0 0-.31.14.782.782 0 0 0-.21.25.657.657 0 0 0-.08.33v3.4h-1.48v-7.4Zm5.958 7.4v-5.25h1.48v.89h.06c.093-.273.256-.51.49-.71.233-.2.556-.3.97-.3.54 0 .946.18 1.22.54.28.36.42.873.42 1.54v3.29h-1.48v-3.17c0-.34-.054-.59-.16-.75-.107-.166-.297-.25-.57-.25-.12 0-.237.017-.35.05a.864.864 0 0 0-.31.14.758.758 0 0 0-.21.25.647.647 0 0 0-.08.33v3.4h-1.48Zm8.4-6.98h2.63c.46 0 .88.073 1.26.22.38.147.703.367.97.66.266.287.473.65.62 1.09.146.434.22.94.22 1.52 0 .58-.074 1.09-.22 1.53a3.064 3.064 0 0 1-.62 1.09 2.57 2.57 0 0 1-.97.65c-.38.147-.8.22-1.26.22h-2.63v-6.98Zm2.63 5.63c.453 0 .81-.127 1.07-.38s.39-.66.39-1.22v-1.08c0-.56-.13-.966-.39-1.22-.26-.253-.617-.38-1.07-.38h-1.11v4.28h1.11Zm4.722 1.46c-.3 0-.523-.073-.67-.22a.827.827 0 0 1-.21-.58v-.2c0-.233.07-.423.21-.57.147-.153.37-.23.67-.23.3 0 .52.077.66.23a.77.77 0 0 1 .22.57v.2a.804.804 0 0 1-.22.58c-.14.147-.36.22-.66.22Zm6.939.01c-.613 0-1.133-.103-1.56-.31a3.632 3.632 0 0 1-1.09-.82l1-1.01c.473.534 1.057.8 1.75.8.373 0 .65-.076.83-.23a.761.761 0 0 0 .27-.61.718.718 0 0 0-.16-.48c-.107-.133-.323-.223-.65-.27l-.69-.09c-.74-.093-1.283-.316-1.63-.67-.34-.353-.51-.823-.51-1.41 0-.313.06-.6.18-.86s.29-.483.51-.67c.227-.186.5-.33.82-.43a3.57 3.57 0 0 1 1.11-.16c.527 0 .99.084 1.39.25.4.167.743.41 1.03.73l-1.01 1.02a1.945 1.945 0 0 0-.61-.47c-.233-.127-.53-.19-.89-.19-.34 0-.593.06-.76.18a.58.58 0 0 0-.25.5c0 .24.063.414.19.52.133.107.347.184.64.23l.69.11c.72.114 1.253.337 1.6.67.347.327.52.793.52 1.4 0 .334-.06.64-.18.92s-.297.52-.53.72c-.227.2-.51.357-.85.47-.34.107-.727.16-1.16.16Zm3.9-.12v-5.25h1.48v.89h.06a1.58 1.58 0 0 1 .48-.71c.227-.2.537-.3.93-.3.36 0 .667.09.92.27.254.18.437.444.55.79h.03a1.422 1.422 0 0 1 .57-.75c.14-.093.297-.166.47-.22.174-.06.36-.09.56-.09.507 0 .894.18 1.16.54.274.36.41.873.41 1.54v3.29h-1.48v-3.17c0-.666-.24-1-.72-1-.22 0-.42.064-.6.19-.18.127-.27.32-.27.58v3.4h-1.48v-3.17c0-.666-.24-1-.72-1-.106 0-.213.017-.32.05a.793.793 0 0 0-.28.14.838.838 0 0 0-.2.25.738.738 0 0 0-.07.33v3.4h-1.48Zm9.676-5.81c-.3 0-.52-.066-.66-.2a.74.74 0 0 1-.2-.53v-.22c0-.213.067-.386.2-.52.14-.14.36-.21.66-.21.3 0 .517.07.65.21.14.134.21.307.21.52v.22c0 .213-.07.39-.21.53-.133.134-.35.2-.65.2Zm-.74.56h1.48v5.25h-1.48v-5.25Zm4.701 5.25c-.513 0-.903-.13-1.17-.39-.26-.26-.39-.64-.39-1.14v-2.57h-.74v-1.15h.37c.2 0 .337-.047.41-.14.074-.1.11-.24.11-.42v-.86h1.33v1.42h1.04v1.15h-1.04v2.95h.96v1.15h-.88Zm1.988-7.4h1.48v3.04h.06c.094-.273.257-.51.49-.71.234-.2.557-.3.97-.3.54 0 .947.18 1.22.54.28.36.42.873.42 1.54v3.29h-1.48v-3.17c0-.34-.053-.59-.16-.75-.106-.166-.296-.25-.57-.25-.12 0-.236.017-.35.05a.88.88 0 0 0-.31.14.782.782 0 0 0-.21.25.657.657 0 0 0-.08.33v3.4h-1.48v-7.4Z" fill="#333"/><path d="M88.204 48.209v-.592h1.56v-4.496h-.056L88.3 44.433l-.392-.424 1.48-1.384h1.048v4.992h1.44v.592h-3.672Zm6.18-3.216c.38 0 .662-.085.849-.256a.872.872 0 0 0 .288-.672v-.056c0-.293-.094-.512-.28-.656-.181-.15-.421-.224-.72-.224-.288 0-.523.064-.704.192-.181.123-.33.29-.448.504l-.496-.384c.07-.112.152-.221.248-.328a1.723 1.723 0 0 1 .816-.504 2.07 2.07 0 0 1 .6-.08c.234 0 .456.032.664.096.208.059.387.15.536.272a1.292 1.292 0 0 1 .496 1.04c0 .181-.03.344-.088.488-.053.144-.128.27-.224.376a1.58 1.58 0 0 1-.76.44v.032c.15.032.293.085.432.16.144.07.27.163.376.28.112.112.2.25.264.416.07.16.104.344.104.552 0 .24-.046.461-.136.664-.09.197-.219.368-.384.512a1.854 1.854 0 0 1-.6.328c-.235.08-.493.12-.776.12-.24 0-.454-.027-.64-.08a1.908 1.908 0 0 1-.496-.216 2.193 2.193 0 0 1-.384-.304 2.958 2.958 0 0 1-.288-.352l.504-.384c.07.112.144.213.224.304a1.345 1.345 0 0 0 .624.384c.128.032.277.048.448.048.394 0 .693-.088.896-.264.203-.181.304-.437.304-.768v-.064c0-.33-.102-.584-.304-.76-.203-.181-.501-.272-.896-.272h-.656v-.584h.608Zm9.696-1.488h-.04l-.472.936-1.336 2.432-1.336-2.432-.472-.936h-.04v4.704h-.656v-5.584h.896l1.6 3.008h.04l1.608-3.008h.864v5.584h-.656v-4.704Zm5.077 4.704c-.24 0-.414-.064-.52-.192a.96.96 0 0 1-.192-.48h-.04a1.07 1.07 0 0 1-.448.576 1.392 1.392 0 0 1-.744.192c-.438 0-.779-.112-1.024-.336-.24-.224-.36-.528-.36-.912 0-.39.141-.688.424-.896.288-.208.733-.312 1.336-.312h.816v-.408c0-.293-.08-.517-.24-.672-.16-.155-.406-.232-.736-.232-.251 0-.462.056-.632.168a1.394 1.394 0 0 0-.416.448l-.384-.36c.112-.224.29-.413.536-.568.245-.16.554-.24.928-.24.501 0 .89.123 1.168.368.277.245.416.587.416 1.024v2.272h.472v.56h-.36Zm-1.84-.448c.16 0 .306-.019.44-.056.133-.037.248-.09.344-.16a.8.8 0 0 0 .224-.24c.053-.09.08-.19.08-.296v-.68h-.848c-.368 0-.638.053-.808.16a.517.517 0 0 0-.248.464v.168c0 .203.072.36.216.472.149.112.349.168.6.168Zm5.618-3.68h.632l-1.848 5.088a2.052 2.052 0 0 1-.144.304.592.592 0 0 1-.176.2.696.696 0 0 1-.264.104 1.866 1.866 0 0 1-.376.032h-.328v-.56h.648l.312-.88-1.544-4.288h.64l.992 2.808.192.672h.04l.224-.672 1-2.808Zm3.363 4.128v-.592h1.56v-4.496h-.056l-1.408 1.312-.392-.424 1.48-1.384h1.048v4.992h1.44v.592h-3.672Zm8.357-3.536c0 .416-.062.808-.184 1.176a4.469 4.469 0 0 1-.48 1 4.82 4.82 0 0 1-.64.8c-.235.23-.464.416-.688.56h-.864c.298-.219.565-.432.8-.64.234-.208.44-.424.616-.648a4.13 4.13 0 0 0 .448-.728 4.43 4.43 0 0 0 .296-.88l-.04-.016c-.134.23-.307.421-.52.576-.208.15-.483.224-.824.224-.24 0-.462-.04-.664-.12a1.45 1.45 0 0 1-.52-.344 1.676 1.676 0 0 1-.344-.536 2.038 2.038 0 0 1-.12-.72c0-.272.042-.52.128-.744a1.686 1.686 0 0 1 .96-.968 2.07 2.07 0 0 1 .768-.136c.288 0 .546.05.776.152.234.096.432.237.592.424.165.181.29.405.376.672.085.267.128.565.128.896Zm-1.864.856c.368 0 .653-.101.856-.304.208-.203.312-.493.312-.872v-.064c0-.379-.104-.67-.312-.872-.203-.203-.488-.304-.856-.304s-.656.101-.864.304c-.203.203-.304.493-.304.872v.064c0 .379.101.67.304.872.208.203.496.304.864.304Zm6.661-.856c0 .416-.062.808-.184 1.176a4.469 4.469 0 0 1-.48 1 4.82 4.82 0 0 1-.64.8c-.235.23-.464.416-.688.56h-.864c.298-.219.565-.432.8-.64.234-.208.44-.424.616-.648a4.13 4.13 0 0 0 .448-.728 4.43 4.43 0 0 0 .296-.88l-.04-.016c-.134.23-.307.421-.52.576-.208.15-.483.224-.824.224-.24 0-.462-.04-.664-.12a1.45 1.45 0 0 1-.52-.344 1.676 1.676 0 0 1-.344-.536 2.038 2.038 0 0 1-.12-.72c0-.272.042-.52.128-.744a1.686 1.686 0 0 1 .96-.968 2.07 2.07 0 0 1 .768-.136c.288 0 .546.05.776.152.234.096.432.237.592.424.165.181.29.405.376.672.085.267.128.565.128.896Zm-1.864.856c.368 0 .653-.101.856-.304.208-.203.312-.493.312-.872v-.064c0-.379-.104-.67-.312-.872-.203-.203-.488-.304-.856-.304s-.656.101-.864.304c-.203.203-.304.493-.304.872v.064c0 .379.101.67.304.872.208.203.496.304.864.304Zm4.484-.536c.379 0 .662-.085.848-.256a.872.872 0 0 0 .288-.672v-.056c0-.293-.093-.512-.28-.656-.181-.15-.421-.224-.72-.224-.288 0-.522.064-.704.192-.181.123-.33.29-.448.504l-.496-.384c.07-.112.152-.221.248-.328a1.753 1.753 0 0 1 .816-.504 2.07 2.07 0 0 1 .6-.08c.235 0 .456.032.664.096.208.059.387.15.536.272.155.117.275.264.36.44.091.176.136.376.136.6 0 .181-.029.344-.088.488a1.15 1.15 0 0 1-.224.376 1.571 1.571 0 0 1-.76.44v.032c.15.032.294.085.432.16.144.07.27.163.376.28.112.112.2.25.264.416.07.16.104.344.104.552 0 .24-.045.461-.136.664-.09.197-.218.368-.384.512a1.845 1.845 0 0 1-.6.328c-.234.08-.493.12-.776.12-.24 0-.453-.027-.64-.08a1.918 1.918 0 0 1-.496-.216 2.193 2.193 0 0 1-.384-.304 3.102 3.102 0 0 1-.288-.352l.504-.384a2.3 2.3 0 0 0 .224.304 1.355 1.355 0 0 0 .624.384c.128.032.278.048.448.048.395 0 .694-.088.896-.264.203-.181.304-.437.304-.768v-.064c0-.33-.101-.584-.304-.76-.202-.181-.501-.272-.896-.272h-.656v-.584h.608Z" fill="#333"/><g filter="url(#e)"><rect x="159" y="46" width="100" height="24" rx="4" fill="#fff"/><rect x="169" y="50" width="16" height="16" rx="8" fill="#4BB4B3"/><path d="m175 60.8-2.333-2.332a.657.657 0 0 0-.934 0 .656.656 0 0 0 0 .933l2.794 2.793c.26.26.68.26.94 0l7.066-7.06a.656.656 0 0 0 0-.933.656.656 0 0 0-.933 0l-6.6 6.6Z" fill="#fff"/><path d="M193.88 62.5v-.74h1.95v-5.62h-.07L194 57.78l-.49-.53 1.85-1.73h1.31v6.24h1.8v.74h-4.59Zm7.726-4.02c.473 0 .827-.107 1.06-.32.24-.22.36-.5.36-.84v-.07c0-.367-.117-.64-.35-.82-.227-.187-.527-.28-.9-.28-.36 0-.653.08-.88.24a1.777 1.777 0 0 0-.56.63l-.62-.48c.087-.14.19-.277.31-.41a2.16 2.16 0 0 1 1.02-.63c.22-.067.47-.1.75-.1.293 0 .57.04.83.12.26.073.483.187.67.34a1.618 1.618 0 0 1 .62 1.3c0 .227-.037.43-.11.61a1.45 1.45 0 0 1-.28.47c-.12.133-.263.247-.43.34-.16.093-.333.163-.52.21v.04c.187.04.367.107.54.2.18.087.337.203.47.35.14.14.25.313.33.52.087.2.13.43.13.69 0 .3-.057.577-.17.83-.113.247-.273.46-.48.64-.207.173-.457.31-.75.41-.293.1-.617.15-.97.15-.3 0-.567-.033-.8-.1a2.395 2.395 0 0 1-.62-.27c-.18-.113-.34-.24-.48-.38a3.78 3.78 0 0 1-.36-.44l.63-.48c.087.14.18.267.28.38a1.689 1.689 0 0 0 .78.48c.16.04.347.06.56.06.493 0 .867-.11 1.12-.33.253-.227.38-.547.38-.96v-.08c0-.413-.127-.73-.38-.95-.253-.227-.627-.34-1.12-.34h-.82v-.73h.76Zm4.076 1.41v-.86h2.61v.86h-2.61Zm6.304 2.73c-.833 0-1.443-.317-1.83-.95-.38-.633-.57-1.52-.57-2.66 0-1.14.19-2.027.57-2.66.387-.633.997-.95 1.83-.95.834 0 1.44.317 1.82.95.387.633.58 1.52.58 2.66 0 1.14-.193 2.027-.58 2.66-.38.633-.986.95-1.82.95Zm0-.73c.274 0 .507-.057.7-.17.194-.113.35-.273.47-.48.12-.207.207-.45.26-.73.06-.28.09-.59.09-.93v-1.14c0-.34-.03-.65-.09-.93a2.294 2.294 0 0 0-.26-.73 1.294 1.294 0 0 0-.47-.48 1.359 1.359 0 0 0-.7-.17c-.273 0-.506.057-.7.17-.193.113-.35.273-.47.48-.12.207-.21.45-.27.73-.053.28-.08.59-.08.93v1.14c0 .34.027.65.08.93.06.28.15.523.27.73.12.207.277.367.47.48.194.113.427.17.7.17Zm7.976-5.63h-3.06l-.2 2.66h.07a2.25 2.25 0 0 1 .56-.56c.214-.14.504-.21.87-.21.3 0 .577.05.83.15.254.1.474.243.66.43.187.18.33.403.43.67.107.267.16.57.16.91 0 .34-.053.653-.16.94a2.04 2.04 0 0 1-.47.73c-.2.2-.446.357-.74.47-.286.113-.613.17-.98.17a2.77 2.77 0 0 1-.78-.1 2.291 2.291 0 0 1-.59-.27 2.62 2.62 0 0 1-.46-.38 4.556 4.556 0 0 1-.35-.44l.63-.48c.087.14.177.267.27.38.1.113.207.21.32.29.12.08.257.143.41.19.154.04.337.06.55.06.48 0 .844-.127 1.09-.38.247-.253.37-.61.37-1.07v-.1c0-.46-.123-.817-.37-1.07-.246-.253-.61-.38-1.09-.38-.32 0-.573.06-.76.18-.18.113-.343.25-.49.41l-.71-.1.25-3.84h3.74v.74Zm1.707 3.63v-.86h2.61v.86h-2.61Zm4.184 2.61v-.74h1.95v-5.62h-.07l-1.76 1.64-.49-.53 1.85-1.73h1.31v6.24h1.8v.74h-4.59Zm10.446-4.42c0 .52-.077 1.01-.23 1.47a5.61 5.61 0 0 1-.6 1.25c-.24.373-.507.707-.8 1-.294.287-.58.52-.86.7h-1.08c.373-.273.706-.54 1-.8.293-.26.55-.53.77-.81.22-.287.406-.59.56-.91.153-.327.276-.693.37-1.1l-.05-.02a2.33 2.33 0 0 1-.65.72c-.26.187-.604.28-1.03.28-.3 0-.577-.05-.83-.15a1.81 1.81 0 0 1-.65-.43 2.092 2.092 0 0 1-.43-.67c-.1-.267-.15-.567-.15-.9 0-.34.053-.65.16-.93.113-.287.27-.53.47-.73.206-.207.45-.367.73-.48.286-.113.606-.17.96-.17.36 0 .683.063.97.19.293.12.54.297.74.53.206.227.363.507.47.84.106.333.16.707.16 1.12Zm-2.33 1.07c.46 0 .816-.127 1.07-.38.26-.253.39-.617.39-1.09v-.08c0-.473-.13-.837-.39-1.09-.254-.253-.61-.38-1.07-.38-.46 0-.82.127-1.08.38-.254.253-.38.617-.38 1.09v.08c0 .473.126.837.38 1.09.26.253.62.38 1.08.38Zm8.326-1.07c0 .52-.077 1.01-.23 1.47-.153.453-.353.87-.6 1.25-.24.373-.507.707-.8 1-.293.287-.58.52-.86.7h-1.08c.373-.273.707-.54 1-.8.293-.26.55-.53.77-.81.22-.287.407-.59.56-.91.153-.327.277-.693.37-1.1l-.05-.02a2.318 2.318 0 0 1-.65.72c-.26.187-.603.28-1.03.28-.3 0-.577-.05-.83-.15a1.82 1.82 0 0 1-.65-.43 2.11 2.11 0 0 1-.43-.67c-.1-.267-.15-.567-.15-.9 0-.34.053-.65.16-.93.113-.287.27-.53.47-.73.207-.207.45-.367.73-.48.287-.113.607-.17.96-.17.36 0 .683.063.97.19.293.12.54.297.74.53.207.227.363.507.47.84.107.333.16.707.16 1.12Zm-2.33 1.07c.46 0 .817-.127 1.07-.38.26-.253.39-.617.39-1.09v-.08c0-.473-.13-.837-.39-1.09-.253-.253-.61-.38-1.07-.38-.46 0-.82.127-1.08.38-.253.253-.38.617-.38 1.09v.08c0 .473.127.837.38 1.09.26.253.62.38 1.08.38Zm5.606-.67c.473 0 .827-.107 1.06-.32.24-.22.36-.5.36-.84v-.07c0-.367-.117-.64-.35-.82-.227-.187-.527-.28-.9-.28-.36 0-.653.08-.88.24a1.777 1.777 0 0 0-.56.63l-.62-.48c.087-.14.19-.277.31-.41a2.16 2.16 0 0 1 1.02-.63c.22-.067.47-.1.75-.1.293 0 .57.04.83.12.26.073.483.187.67.34a1.618 1.618 0 0 1 .62 1.3c0 .227-.037.43-.11.61a1.45 1.45 0 0 1-.28.47c-.12.133-.263.247-.43.34-.16.093-.333.163-.52.21v.04c.187.04.367.107.54.2.18.087.337.203.47.35.14.14.25.313.33.52.087.2.13.43.13.69 0 .3-.057.577-.17.83-.113.247-.273.46-.48.64-.207.173-.457.31-.75.41-.293.1-.617.15-.97.15-.3 0-.567-.033-.8-.1a2.395 2.395 0 0 1-.62-.27c-.18-.113-.34-.24-.48-.38a3.78 3.78 0 0 1-.36-.44l.63-.48c.087.14.18.267.28.38a1.689 1.689 0 0 0 .78.48c.16.04.347.06.56.06.493 0 .867-.11 1.12-.33.253-.227.38-.547.38-.96v-.08c0-.413-.127-.73-.38-.95-.253-.227-.627-.34-1.12-.34h-.82v-.73h.76Z" fill="#333"/></g><g filter="url(#f)"><rect x="159" y="78" width="100" height="24" rx="4" fill="#fff"/><rect x="167" y="82" width="16" height="16" rx="8" fill="#EC3F3F"/><path fill-rule="evenodd" clip-rule="evenodd" d="M172.146 87.146a.501.501 0 0 1 .708 0L175 89.293l2.146-2.147a.5.5 0 0 1 .638-.057l.07.057a.5.5 0 0 1 0 .708L175.707 90l2.147 2.146a.5.5 0 0 1 .057.638l-.057.07a.501.501 0 0 1-.708 0L175 90.707l-2.146 2.147a.5.5 0 0 1-.638.057l-.07-.057a.5.5 0 0 1 0-.708L174.293 90l-2.147-2.146a.5.5 0 0 1-.057-.638l.057-.07Z" fill="#fff"/><path d="M194 94.62c-.833 0-1.443-.317-1.83-.95-.38-.633-.57-1.52-.57-2.66 0-1.14.19-2.027.57-2.66.387-.633.997-.95 1.83-.95.833 0 1.44.317 1.82.95.387.633.58 1.52.58 2.66 0 1.14-.193 2.027-.58 2.66-.38.633-.987.95-1.82.95Zm0-.73c.273 0 .507-.057.7-.17.193-.113.35-.273.47-.48.12-.207.207-.45.26-.73.06-.28.09-.59.09-.93v-1.14c0-.34-.03-.65-.09-.93a2.294 2.294 0 0 0-.26-.73 1.302 1.302 0 0 0-.47-.48 1.362 1.362 0 0 0-.7-.17c-.273 0-.507.057-.7.17-.193.113-.35.273-.47.48-.12.207-.21.45-.27.73-.053.28-.08.59-.08.93v1.14c0 .34.027.65.08.93.06.28.15.523.27.73.12.207.277.367.47.48.193.113.427.17.7.17Zm7.976-5.63h-3.06l-.2 2.66h.07c.167-.233.353-.42.56-.56.213-.14.503-.21.87-.21.3 0 .577.05.83.15.253.1.473.243.66.43.187.18.33.403.43.67.107.267.16.57.16.91 0 .34-.053.653-.16.94-.107.28-.263.523-.47.73-.2.2-.447.357-.74.47a2.65 2.65 0 0 1-.98.17 2.77 2.77 0 0 1-.78-.1 2.276 2.276 0 0 1-.59-.27 2.584 2.584 0 0 1-.46-.38 4.407 4.407 0 0 1-.35-.44l.63-.48c.087.14.177.267.27.38.1.113.207.21.32.29.12.08.257.143.41.19.153.04.337.06.55.06.48 0 .843-.127 1.09-.38.247-.253.37-.61.37-1.07v-.1c0-.46-.123-.817-.37-1.07-.247-.253-.61-.38-1.09-.38-.32 0-.573.06-.76.18-.18.113-.343.25-.49.41l-.71-.1.25-3.84h3.74v.74Zm1.706 3.63v-.86h2.61v.86h-2.61Zm4.184 2.61v-.74h1.95v-5.62h-.07l-1.76 1.64-.49-.53 1.85-1.73h1.31v6.24h1.8v.74h-4.59Zm7.726-4.02c.474 0 .827-.107 1.06-.32.24-.22.36-.5.36-.84v-.07c0-.367-.116-.64-.35-.82-.226-.187-.526-.28-.9-.28-.36 0-.653.08-.88.24a1.786 1.786 0 0 0-.56.63l-.62-.48c.087-.14.19-.277.31-.41a2.187 2.187 0 0 1 1.02-.63c.22-.067.47-.1.75-.1.294 0 .57.04.83.12.26.073.484.187.67.34.194.147.344.33.45.55.114.22.17.47.17.75 0 .227-.036.43-.11.61-.066.18-.16.337-.28.47-.12.133-.263.247-.43.34-.16.093-.333.163-.52.21v.04c.187.04.367.107.54.2.18.087.337.203.47.35.14.14.25.313.33.52.087.2.13.43.13.69a1.873 1.873 0 0 1-.65 1.47c-.206.173-.456.31-.75.41-.293.1-.616.15-.97.15-.3 0-.566-.033-.8-.1a2.395 2.395 0 0 1-.62-.27c-.18-.113-.34-.24-.48-.38a3.78 3.78 0 0 1-.36-.44l.63-.48c.087.14.18.267.28.38a1.689 1.689 0 0 0 .78.48c.16.04.347.06.56.06.494 0 .867-.11 1.12-.33.254-.227.38-.547.38-.96v-.08c0-.413-.126-.73-.38-.95-.253-.227-.626-.34-1.12-.34h-.82v-.73h.76Zm4.077 1.41v-.86h2.61v.86h-2.61Zm4.184 2.61v-.74h1.95v-5.62h-.07l-1.76 1.64-.49-.53 1.85-1.73h1.31v6.24h1.8v.74h-4.59Zm10.446-4.42c0 .52-.077 1.01-.23 1.47a5.61 5.61 0 0 1-.6 1.25c-.24.373-.507.707-.8 1-.294.287-.58.52-.86.7h-1.08c.373-.273.706-.54 1-.8.293-.26.55-.53.77-.81.22-.287.406-.59.56-.91.153-.327.276-.693.37-1.1l-.05-.02a2.33 2.33 0 0 1-.65.72c-.26.187-.604.28-1.03.28-.3 0-.577-.05-.83-.15a1.81 1.81 0 0 1-.65-.43 2.092 2.092 0 0 1-.43-.67c-.1-.267-.15-.567-.15-.9 0-.34.053-.65.16-.93.113-.287.27-.53.47-.73.206-.207.45-.367.73-.48.286-.113.606-.17.96-.17.36 0 .683.063.97.19.293.12.54.297.74.53.206.227.363.507.47.84.106.333.16.707.16 1.12Zm-2.33 1.07c.46 0 .816-.127 1.07-.38.26-.253.39-.617.39-1.09v-.08c0-.473-.13-.837-.39-1.09-.254-.253-.61-.38-1.07-.38-.46 0-.82.127-1.08.38-.254.253-.38.617-.38 1.09v.08c0 .473.126.837.38 1.09.26.253.62.38 1.08.38Zm8.326-1.07c0 .52-.077 1.01-.23 1.47-.153.453-.353.87-.6 1.25-.24.373-.507.707-.8 1-.293.287-.58.52-.86.7h-1.08c.373-.273.707-.54 1-.8.293-.26.55-.53.77-.81.22-.287.407-.59.56-.91.153-.327.277-.693.37-1.1l-.05-.02a2.318 2.318 0 0 1-.65.72c-.26.187-.603.28-1.03.28-.3 0-.577-.05-.83-.15a1.82 1.82 0 0 1-.65-.43 2.11 2.11 0 0 1-.43-.67c-.1-.267-.15-.567-.15-.9 0-.34.053-.65.16-.93.113-.287.27-.53.47-.73.207-.207.45-.367.73-.48.287-.113.607-.17.96-.17.36 0 .683.063.97.19.293.12.54.297.74.53.207.227.363.507.47.84.107.333.16.707.16 1.12Zm-2.33 1.07c.46 0 .817-.127 1.07-.38.26-.253.39-.617.39-1.09v-.08c0-.473-.13-.837-.39-1.09-.253-.253-.61-.38-1.07-.38-.46 0-.82.127-1.08.38-.253.253-.38.617-.38 1.09v.08c0 .473.127.837.38 1.09.26.253.62.38 1.08.38Zm5.606-.67c.473 0 .827-.107 1.06-.32.24-.22.36-.5.36-.84v-.07c0-.367-.117-.64-.35-.82-.227-.187-.527-.28-.9-.28-.36 0-.653.08-.88.24a1.777 1.777 0 0 0-.56.63l-.62-.48c.087-.14.19-.277.31-.41a2.16 2.16 0 0 1 1.02-.63c.22-.067.47-.1.75-.1.293 0 .57.04.83.12.26.073.483.187.67.34a1.618 1.618 0 0 1 .62 1.3c0 .227-.037.43-.11.61a1.45 1.45 0 0 1-.28.47c-.12.133-.263.247-.43.34-.16.093-.333.163-.52.21v.04c.187.04.367.107.54.2.18.087.337.203.47.35.14.14.25.313.33.52.087.2.13.43.13.69 0 .3-.057.577-.17.83-.113.247-.273.46-.48.64-.207.173-.457.31-.75.41-.293.1-.617.15-.97.15-.3 0-.567-.033-.8-.1a2.395 2.395 0 0 1-.62-.27c-.18-.113-.34-.24-.48-.38a3.78 3.78 0 0 1-.36-.44l.63-.48c.087.14.18.267.28.38a1.689 1.689 0 0 0 .78.48c.16.04.347.06.56.06.493 0 .867-.11 1.12-.33.253-.227.38-.547.38-.96v-.08c0-.413-.127-.73-.38-.95-.253-.227-.627-.34-1.12-.34h-.82v-.73h.76Z" fill="#333"/></g><g filter="url(#g)"><rect x="159" y="110" width="100" height="24" rx="4" fill="#fff"/><rect x="169" y="114" width="16" height="16" rx="8" fill="#EC3F3F"/><path fill-rule="evenodd" clip-rule="evenodd" d="M174.146 119.146a.502.502 0 0 1 .708 0l2.146 2.147 2.146-2.147a.501.501 0 0 1 .638-.057l.07.057a.502.502 0 0 1 0 .708L177.707 122l2.147 2.146a.501.501 0 0 1 .057.638l-.057.07a.502.502 0 0 1-.708 0L177 122.707l-2.146 2.147a.501.501 0 0 1-.638.057l-.07-.057a.502.502 0 0 1 0-.708l2.147-2.146-2.147-2.146a.501.501 0 0 1-.057-.638l.057-.07Z" fill="#fff"/><path d="M193.88 126.5v-.74h1.95v-5.62h-.07l-1.76 1.64-.49-.53 1.85-1.73h1.31v6.24h1.8v.74h-4.59Zm10.446-4.42c0 .52-.077 1.01-.23 1.47a5.53 5.53 0 0 1-.6 1.25c-.24.373-.507.707-.8 1a5.48 5.48 0 0 1-.86.7h-1.08c.373-.273.707-.54 1-.8.293-.26.55-.53.77-.81.22-.287.407-.59.56-.91.153-.327.277-.693.37-1.1l-.05-.02a2.311 2.311 0 0 1-.65.72c-.26.187-.603.28-1.03.28-.3 0-.577-.05-.83-.15-.253-.1-.47-.243-.65-.43a2.113 2.113 0 0 1-.43-.67c-.1-.267-.15-.567-.15-.9 0-.34.053-.65.16-.93a2.111 2.111 0 0 1 1.2-1.21 2.6 2.6 0 0 1 .96-.17c.36 0 .683.063.97.19.293.12.54.297.74.53.207.227.363.507.47.84.107.333.16.707.16 1.12Zm-2.33 1.07c.46 0 .817-.127 1.07-.38.26-.253.39-.617.39-1.09v-.08c0-.473-.13-.837-.39-1.09-.253-.253-.61-.38-1.07-.38-.46 0-.82.127-1.08.38-.253.253-.38.617-.38 1.09v.08c0 .473.127.837.38 1.09.26.253.62.38 1.08.38Zm8.326-1.07a4.6 4.6 0 0 1-.23 1.47 5.53 5.53 0 0 1-.6 1.25c-.24.373-.506.707-.8 1a5.48 5.48 0 0 1-.86.7h-1.08c.374-.273.707-.54 1-.8.294-.26.55-.53.77-.81.22-.287.407-.59.56-.91.154-.327.277-.693.37-1.1l-.05-.02a2.3 2.3 0 0 1-.65.72c-.26.187-.603.28-1.03.28-.3 0-.576-.05-.83-.15-.253-.1-.47-.243-.65-.43a2.113 2.113 0 0 1-.43-.67c-.1-.267-.15-.567-.15-.9 0-.34.054-.65.16-.93.114-.287.27-.53.47-.73.207-.207.45-.367.73-.48a2.6 2.6 0 0 1 .96-.17c.36 0 .684.063.97.19.294.12.54.297.74.53.207.227.364.507.47.84.107.333.16.707.16 1.12Zm-2.33 1.07c.46 0 .817-.127 1.07-.38.26-.253.39-.617.39-1.09v-.08c0-.473-.13-.837-.39-1.09-.253-.253-.61-.38-1.07-.38-.46 0-.82.127-1.08.38-.253.253-.38.617-.38 1.09v.08c0 .473.127.837.38 1.09.26.253.62.38 1.08.38Zm5.606-.67c.474 0 .827-.107 1.06-.32.24-.22.36-.5.36-.84v-.07c0-.367-.116-.64-.35-.82-.226-.187-.526-.28-.9-.28-.36 0-.653.08-.88.24a1.781 1.781 0 0 0-.56.63l-.62-.48c.087-.14.19-.277.31-.41a2.197 2.197 0 0 1 1.02-.63c.22-.067.47-.1.75-.1.294 0 .57.04.83.12.26.073.484.187.67.34.194.147.344.33.45.55.114.22.17.47.17.75 0 .227-.036.43-.11.61-.066.18-.16.337-.28.47-.12.133-.263.247-.43.34-.16.093-.333.163-.52.21v.04c.187.04.367.107.54.2.18.087.337.203.47.35.14.14.25.313.33.52.087.2.13.43.13.69a1.87 1.87 0 0 1-.65 1.47c-.206.173-.456.31-.75.41-.293.1-.616.15-.97.15-.3 0-.566-.033-.8-.1a2.416 2.416 0 0 1-.62-.27c-.18-.113-.34-.24-.48-.38a3.804 3.804 0 0 1-.36-.44l.63-.48c.087.14.18.267.28.38a1.7 1.7 0 0 0 .78.48c.16.04.347.06.56.06.494 0 .867-.11 1.12-.33.254-.227.38-.547.38-.96v-.08c0-.413-.126-.73-.38-.95-.253-.227-.626-.34-1.12-.34h-.82v-.73h.76Zm4.076 1.41v-.86h2.61v.86h-2.61Zm6.305 2.73c-.834 0-1.444-.317-1.83-.95-.38-.633-.57-1.52-.57-2.66 0-1.14.19-2.027.57-2.66.386-.633.996-.95 1.83-.95.833 0 1.44.317 1.82.95.386.633.58 1.52.58 2.66 0 1.14-.194 2.027-.58 2.66-.38.633-.987.95-1.82.95Zm0-.73c.273 0 .506-.057.7-.17.193-.113.35-.273.47-.48.12-.207.206-.45.26-.73.06-.28.09-.59.09-.93v-1.14c0-.34-.03-.65-.09-.93a2.321 2.321 0 0 0-.26-.73 1.297 1.297 0 0 0-.47-.48 1.367 1.367 0 0 0-.7-.17c-.274 0-.507.057-.7.17a1.29 1.29 0 0 0-.47.48c-.12.207-.21.45-.27.73-.054.28-.08.59-.08.93v1.14c0 .34.026.65.08.93.06.28.15.523.27.73.12.207.276.367.47.48.193.113.426.17.7.17Zm7.976-5.63h-3.06l-.2 2.66h.07c.166-.233.353-.42.56-.56.213-.14.503-.21.87-.21.3 0 .576.05.83.15.253.1.473.243.66.43.186.18.33.403.43.67.106.267.16.57.16.91 0 .34-.054.653-.16.94a2.07 2.07 0 0 1-.47.73 2.1 2.1 0 0 1-.74.47 2.66 2.66 0 0 1-.98.17 2.75 2.75 0 0 1-.78-.1 2.296 2.296 0 0 1-.59-.27 2.537 2.537 0 0 1-.46-.38 4.3 4.3 0 0 1-.35-.44l.63-.48c.086.14.176.267.27.38.1.113.206.21.32.29.12.08.256.143.41.19.153.04.336.06.55.06.48 0 .843-.127 1.09-.38.246-.253.37-.61.37-1.07v-.1c0-.46-.124-.817-.37-1.07-.247-.253-.61-.38-1.09-.38-.32 0-.574.06-.76.18-.18.113-.344.25-.49.41l-.71-.1.25-3.84h3.74v.74Zm1.706 3.63v-.86h2.61v.86h-2.61Zm4.184 2.61v-.74h1.95v-5.62h-.07l-1.76 1.64-.49-.53 1.85-1.73h1.31v6.24h1.8v.74h-4.59Zm7.726-4.02c.473 0 .827-.107 1.06-.32.24-.22.36-.5.36-.84v-.07c0-.367-.117-.64-.35-.82-.227-.187-.527-.28-.9-.28-.36 0-.653.08-.88.24a1.771 1.771 0 0 0-.56.63l-.62-.48c.087-.14.19-.277.31-.41a2.17 2.17 0 0 1 1.02-.63c.22-.067.47-.1.75-.1.293 0 .57.04.83.12.26.073.483.187.67.34a1.618 1.618 0 0 1 .62 1.3c0 .227-.037.43-.11.61-.067.18-.16.337-.28.47-.12.133-.263.247-.43.34-.16.093-.333.163-.52.21v.04c.187.04.367.107.54.2.18.087.337.203.47.35.14.14.25.313.33.52.087.2.13.43.13.69a1.87 1.87 0 0 1-.65 1.47 2.33 2.33 0 0 1-.75.41c-.293.1-.617.15-.97.15-.3 0-.567-.033-.8-.1a2.416 2.416 0 0 1-.62-.27c-.18-.113-.34-.24-.48-.38a3.804 3.804 0 0 1-.36-.44l.63-.48c.087.14.18.267.28.38a1.7 1.7 0 0 0 .78.48c.16.04.347.06.56.06.493 0 .867-.11 1.12-.33.253-.227.38-.547.38-.96v-.08c0-.413-.127-.73-.38-.95-.253-.227-.627-.34-1.12-.34h-.82v-.73h.76Z" fill="#333"/></g><defs><filter id="b" x="-118" y="-102" width="576" height="576" filterUnits="userSpaceOnUse" color-interpolation-filters="sRGB"><feFlood flood-opacity="0" result="BackgroundImageFix"/><feBlend in="SourceGraphic" in2="BackgroundImageFix" result="shape"/><feGaussianBlur stdDeviation="80" result="effect1_foregroundBlur_2045_30515"/></filter><filter id="c" x="50" y="-158" width="384" height="384" filterUnits="userSpaceOnUse" color-interpolation-filters="sRGB"><feFlood flood-opacity="0" result="BackgroundImageFix"/><feBlend in="SourceGraphic" in2="BackgroundImageFix" result="shape"/><feGaussianBlur stdDeviation="64" result="effect1_foregroundBlur_2045_30515"/></filter><filter id="d" x="-152" y="-152" width="336" height="336" filterUnits="userSpaceOnUse" color-interpolation-filters="sRGB"><feFlood flood-opacity="0" result="BackgroundImageFix"/><feBlend in="SourceGraphic" in2="BackgroundImageFix" result="shape"/><feGaussianBlur stdDeviation="64" result="effect1_foregroundBlur_2045_30515"/></filter><filter id="e" x="156" y="44" width="106" height="30" filterUnits="userSpaceOnUse" color-interpolation-filters="sRGB"><feFlood flood-opacity="0" result="BackgroundImageFix"/><feColorMatrix in="SourceAlpha" values="0 0 0 0 0 0 0 0 0 0 0 0 0 0 0 0 0 0 127 0" result="hardAlpha"/><feOffset dy="1"/><feGaussianBlur stdDeviation="1"/><feColorMatrix values="0 0 0 0 0.054902 0 0 0 0 0.054902 0 0 0 0 0.054902 0 0 0 0.06 0"/><feBlend in2="BackgroundImageFix" result="effect1_dropShadow_2045_30515"/><feColorMatrix in="SourceAlpha" values="0 0 0 0 0 0 0 0 0 0 0 0 0 0 0 0 0 0 127 0" result="hardAlpha"/><feOffset dy="1"/><feGaussianBlur stdDeviation="1.5"/><feColorMatrix values="0 0 0 0 0.054902 0 0 0 0 0.054902 0 0 0 0 0.054902 0 0 0 0.1 0"/><feBlend in2="effect1_dropShadow_2045_30515" result="effect2_dropShadow_2045_30515"/><feBlend in="SourceGraphic" in2="effect2_dropShadow_2045_30515" result="shape"/></filter><filter id="f" x="156" y="76" width="106" height="30" filterUnits="userSpaceOnUse" color-interpolation-filters="sRGB"><feFlood flood-opacity="0" result="BackgroundImageFix"/><feColorMatrix in="SourceAlpha" values="0 0 0 0 0 0 0 0 0 0 0 0 0 0 0 0 0 0 127 0" result="hardAlpha"/><feOffset dy="1"/><feGaussianBlur stdDeviation="1"/><feColorMatrix values="0 0 0 0 0.054902 0 0 0 0 0.054902 0 0 0 0 0.054902 0 0 0 0.06 0"/><feBlend in2="BackgroundImageFix" result="effect1_dropShadow_2045_30515"/><feColorMatrix in="SourceAlpha" values="0 0 0 0 0 0 0 0 0 0 0 0 0 0 0 0 0 0 127 0" result="hardAlpha"/><feOffset dy="1"/><feGaussianBlur stdDeviation="1.5"/><feColorMatrix values="0 0 0 0 0.054902 0 0 0 0 0.054902 0 0 0 0 0.054902 0 0 0 0.1 0"/><feBlend in2="effect1_dropShadow_2045_30515" result="effect2_dropShadow_2045_30515"/><feBlend in="SourceGraphic" in2="effect2_dropShadow_2045_30515" result="shape"/></filter><filter id="g" x="156" y="108" width="106" height="30" filterUnits="userSpaceOnUse" color-interpolation-filters="sRGB"><feFlood flood-opacity="0" result="BackgroundImageFix"/><feColorMatrix in="SourceAlpha" values="0 0 0 0 0 0 0 0 0 0 0 0 0 0 0 0 0 0 127 0" result="hardAlpha"/><feOffset dy="1"/><feGaussianBlur stdDeviation="1"/><feColorMatrix values="0 0 0 0 0.054902 0 0 0 0 0.054902 0 0 0 0 0.054902 0 0 0 0.06 0"/><feBlend in2="BackgroundImageFix" result="effect1_dropShadow_2045_30515"/><feColorMatrix in="SourceAlpha" values="0 0 0 0 0 0 0 0 0 0 0 0 0 0 0 0 0 0 127 0" result="hardAlpha"/><feOffset dy="1"/><feGaussianBlur stdDeviation="1.5"/><feColorMatrix values="0 0 0 0 0.054902 0 0 0 0 0.054902 0 0 0 0 0.054902 0 0 0 0.1 0"/><feBlend in2="effect1_dropShadow_2045_30515" result="effect2_dropShadow_2045_30515"/><feBlend in="SourceGraphic" in2="effect2_dropShadow_2045_30515" result="shape"/></filter><clipPath id="a"><rect width="218" height="131" rx="8" fill="#fff"/></clipPath></defs></svg>