<svg xmlns="http://www.w3.org/2000/svg" width="48" height="48" viewBox="0 0 48 48" fill="none">
  <g clip-path="url(#clip0_1208_67354)">
    <path d="M39 0H9C4.02944 0 0 4.02944 0 9V35.25H48V9C48 4.02944 43.9706 0 39 0Z" fill="#0364B9"/>
    <path d="M9 0C4.02944 0 0 4.02944 0 9V9.26143L44.8717 2.17896C43.2955 0.820999 41.2436 0 39 0H9Z" fill="#0A559E"/>
    <path d="M48 9C48 6.74364 47.1698 4.68068 45.798 3.10107L39.9042 35.2495L48 35.25V9Z" fill="#0A559E"/>
    <path d="M0 34.5H48V39C48 43.9706 43.9706 48 39 48H9C4.02944 48 0 43.9706 0 39V34.5Z" fill="#FF8C00"/>
    <path d="M11.0192 14.526C11.2352 14.922 11.4812 15.414 11.7572 16.002C12.0452 16.578 12.3392 17.208 12.6392 17.892C12.9512 18.564 13.2572 19.254 13.5572 19.962C13.8572 20.67 14.1392 21.336 14.4032 21.96C14.6672 21.336 14.9492 20.67 15.2492 19.962C15.5492 19.254 15.8492 18.564 16.1492 17.892C16.4612 17.208 16.7552 16.578 17.0312 16.002C17.3192 15.414 17.5712 14.922 17.7872 14.526H20.3432C20.4632 15.354 20.5712 16.284 20.6672 17.316C20.7752 18.336 20.8652 19.404 20.9372 20.52C21.0212 21.624 21.0932 22.734 21.1532 23.85C21.2252 24.966 21.2852 26.016 21.3332 27H18.5972C18.5612 25.788 18.5132 24.468 18.4532 23.04C18.3932 21.612 18.3032 20.172 18.1832 18.72C17.9672 19.224 17.7272 19.782 17.4632 20.394C17.1992 21.006 16.9352 21.618 16.6712 22.23C16.4192 22.842 16.1732 23.43 15.9332 23.994C15.6932 24.546 15.4892 25.02 15.3212 25.416H13.3592C13.1912 25.02 12.9872 24.546 12.7472 23.994C12.5072 23.43 12.2552 22.842 11.9912 22.23C11.7392 21.618 11.4812 21.006 11.2172 20.394C10.9532 19.782 10.7132 19.224 10.4972 18.72C10.3772 20.172 10.2872 21.612 10.2272 23.04C10.1672 24.468 10.1192 25.788 10.0832 27H7.34719C7.39519 26.016 7.44919 24.966 7.50919 23.85C7.58119 22.734 7.65319 21.624 7.72519 20.52C7.80919 19.404 7.89919 18.336 7.99519 17.316C8.10319 16.284 8.21719 15.354 8.33719 14.526H11.0192Z" fill="white"/>
    <path d="M32.0377 14.526V16.92H28.2757V27H25.4677V16.92H21.7057V14.526H32.0377Z" fill="white"/>
    <path d="M37.9823 23.328C37.9823 22.98 37.9043 22.674 37.7483 22.41C37.5923 22.134 37.3223 21.906 36.9383 21.726C36.5543 21.546 36.0383 21.408 35.3903 21.312C34.7423 21.216 33.9263 21.168 32.9423 21.168C33.0743 20.052 33.1823 18.918 33.2663 17.766C33.3503 16.614 33.4163 15.534 33.4643 14.526H40.2143V16.776H35.7143C35.6903 17.208 35.6603 17.628 35.6243 18.036C35.6003 18.432 35.5703 18.78 35.5343 19.08C37.2863 19.2 38.5763 19.614 39.4043 20.322C40.2443 21.018 40.6643 21.99 40.6643 23.238C40.6643 23.814 40.5623 24.348 40.3583 24.84C40.1543 25.332 39.8483 25.758 39.4403 26.118C39.0323 26.478 38.5163 26.76 37.8923 26.964C37.2803 27.168 36.5603 27.27 35.7323 27.27C35.4083 27.27 35.0663 27.246 34.7063 27.198C34.3583 27.162 34.0163 27.108 33.6803 27.036C33.3563 26.976 33.0623 26.91 32.7983 26.838C32.5343 26.766 32.3303 26.694 32.1863 26.622L32.6723 24.408C32.9723 24.54 33.3683 24.672 33.8603 24.804C34.3523 24.924 34.9403 24.984 35.6243 24.984C36.4523 24.984 37.0523 24.822 37.4243 24.498C37.7963 24.162 37.9823 23.772 37.9823 23.328Z" fill="white"/>
    <path d="M16.5211 44.5034C15.5071 44.5034 14.7331 44.2214 14.1991 43.6574C13.6711 43.0934 13.4071 42.2924 13.4071 41.2544C13.4071 40.7384 13.4881 40.2794 13.6501 39.8774C13.8121 39.4694 14.0341 39.1274 14.3161 38.8514C14.5981 38.5694 14.9341 38.3564 15.3241 38.2124C15.7141 38.0684 16.1371 37.9964 16.5931 37.9964C16.8571 37.9964 17.0971 38.0174 17.3131 38.0594C17.5291 38.0954 17.7181 38.1404 17.8801 38.1944C18.0421 38.2424 18.1771 38.2934 18.2851 38.3474C18.3931 38.4014 18.4711 38.4434 18.5191 38.4734L18.1141 39.6074C17.9221 39.5054 17.6971 39.4184 17.4391 39.3464C17.1871 39.2744 16.8991 39.2384 16.5751 39.2384C16.3591 39.2384 16.1461 39.2744 15.9361 39.3464C15.7321 39.4184 15.5491 39.5354 15.3871 39.6974C15.2311 39.8534 15.1051 40.0574 15.0091 40.3094C14.9131 40.5614 14.8651 40.8674 14.8651 41.2274C14.8651 41.5154 14.8951 41.7854 14.9551 42.0374C15.0211 42.2834 15.1231 42.4964 15.2611 42.6764C15.4051 42.8564 15.5911 43.0004 15.8191 43.1084C16.0471 43.2104 16.3231 43.2614 16.6471 43.2614C16.8511 43.2614 17.0341 43.2494 17.1961 43.2254C17.3581 43.2014 17.5021 43.1744 17.6281 43.1444C17.7541 43.1084 17.8651 43.0694 17.9611 43.0274C18.0571 42.9854 18.1441 42.9464 18.2221 42.9104L18.6091 44.0354C18.4111 44.1554 18.1321 44.2634 17.7721 44.3594C17.4121 44.4554 16.9951 44.5034 16.5211 44.5034Z" fill="white"/>
    <path d="M19.513 44.3774V38.1404H23.689V39.3194H20.917V40.6244H23.383V41.8034H20.917V44.3774H19.513Z" fill="white"/>
    <path d="M26.085 43.2344C26.151 43.2404 26.226 43.2464 26.31 43.2524C26.4 43.2524 26.505 43.2524 26.625 43.2524C27.327 43.2524 27.846 43.0754 28.182 42.7214C28.524 42.3674 28.695 41.8784 28.695 41.2544C28.695 40.6004 28.533 40.1054 28.209 39.7694C27.885 39.4334 27.372 39.2654 26.67 39.2654C26.574 39.2654 26.475 39.2684 26.373 39.2744C26.271 39.2744 26.175 39.2804 26.085 39.2924V43.2344ZM30.144 41.2544C30.144 41.7944 30.06 42.2654 29.892 42.6674C29.724 43.0694 29.484 43.4024 29.172 43.6664C28.866 43.9304 28.491 44.1284 28.047 44.2604C27.603 44.3924 27.105 44.4584 26.553 44.4584C26.301 44.4584 26.007 44.4464 25.671 44.4224C25.335 44.4044 25.005 44.3624 24.681 44.2964V38.2214C25.005 38.1614 25.341 38.1224 25.689 38.1044C26.043 38.0804 26.346 38.0684 26.598 38.0684C27.132 38.0684 27.615 38.1284 28.047 38.2484C28.485 38.3684 28.86 38.5574 29.172 38.8154C29.484 39.0734 29.724 39.4034 29.892 39.8054C30.06 40.2074 30.144 40.6904 30.144 41.2544Z" fill="white"/>
    <path d="M32.5857 43.4144C32.8317 43.4144 33.0057 43.3904 33.1077 43.3424C33.2097 43.2944 33.2607 43.2014 33.2607 43.0634C33.2607 42.9554 33.1947 42.8624 33.0627 42.7844C32.9307 42.7004 32.7297 42.6074 32.4597 42.5054C32.2497 42.4274 32.0577 42.3464 31.8837 42.2624C31.7157 42.1784 31.5717 42.0794 31.4517 41.9654C31.3317 41.8454 31.2387 41.7044 31.1727 41.5424C31.1067 41.3804 31.0737 41.1854 31.0737 40.9574C31.0737 40.5134 31.2387 40.1624 31.5687 39.9044C31.8987 39.6464 32.3517 39.5174 32.9277 39.5174C33.2157 39.5174 33.4917 39.5444 33.7557 39.5984C34.0197 39.6464 34.2297 39.7004 34.3857 39.7604L34.1517 40.8044C33.9957 40.7504 33.8247 40.7024 33.6387 40.6604C33.4587 40.6184 33.2547 40.5974 33.0267 40.5974C32.6067 40.5974 32.3967 40.7144 32.3967 40.9484C32.3967 41.0024 32.4057 41.0504 32.4237 41.0924C32.4417 41.1344 32.4777 41.1764 32.5317 41.2184C32.5857 41.2544 32.6577 41.2964 32.7477 41.3444C32.8437 41.3864 32.9637 41.4344 33.1077 41.4884C33.4017 41.5964 33.6447 41.7044 33.8367 41.8124C34.0287 41.9144 34.1787 42.0284 34.2867 42.1544C34.4007 42.2744 34.4787 42.4094 34.5207 42.5594C34.5687 42.7094 34.5927 42.8834 34.5927 43.0814C34.5927 43.5494 34.4157 43.9034 34.0617 44.1434C33.7137 44.3834 33.2187 44.5034 32.5767 44.5034C32.1567 44.5034 31.8057 44.4674 31.5237 44.3954C31.2477 44.3234 31.0557 44.2634 30.9477 44.2154L31.1727 43.1264C31.4007 43.2164 31.6347 43.2884 31.8747 43.3424C32.1147 43.3904 32.3517 43.4144 32.5857 43.4144Z" fill="white"/>
  </g>
  <defs>
    <clipPath id="clip0_1208_67354">
      <rect width="48" height="48" fill="white"/>
    </clipPath>
  </defs>
</svg>