<svg fill="none" xmlns="http://www.w3.org/2000/svg" viewBox="0 0 258 140"><path d="M253.415 0H3.782C1.694 0 0 1.682 0 3.756v131.487C0 137.317 1.694 139 3.782 139h249.633c2.088 0 3.782-1.683 3.782-3.757V3.756c0-2.074-1.694-3.756-3.782-3.756Z" fill="var(--general-section-1)"/><path d="M253.415 0H3.782C1.694 0 0 1.682 0 3.756v131.487C0 137.317 1.694 139 3.782 139h249.633c2.088 0 3.782-1.683 3.782-3.757V3.756c0-2.074-1.694-3.756-3.782-3.756Z" fill="var(--general-section-1)"/><path d="M148.569 84.724h30.986c3.046 0 5.513 2.273 5.513 5.072 0 2.808-2.467 5.071-5.513 5.071H38.39c-3.034 0-5.503-2.263-5.503-5.071 0-2.799 2.459-5.072 5.513-5.072h60.593c3.044 0 5.512-2.272 5.512-5.072 0-2.798-2.459-5.071-5.512-5.071H52.158v-.047c-2.751-.32-4.823-2.48-4.823-5.034 0-2.555 2.072-4.715 4.823-5.034v-.038h19.29c3.035 0 5.503-2.273 5.503-5.071 0-2.809-2.459-5.081-5.513-5.081H45.964c-3.044 0-5.512-2.273-5.512-5.072 0-2.808 2.458-5.072 5.512-5.072h130.84c3.044 0 5.513 2.264 5.513 5.072 0 2.799-2.469 5.072-5.513 5.072h-50.967c-3.034 0-5.503 2.272-5.503 5.072 0 2.798 2.469 5.071 5.513 5.071h30.297c3.044 0 5.512 2.282 5.512 5.081 0 2.798-2.468 5.071-5.512 5.071h-16.53c-3.034 0-5.503 2.273-5.503 5.072 0 2.809 2.459 5.081 5.503 5.081h8.955ZM29.426 44.123c3.055 0 5.523 2.273 5.523 5.071 0 2.819-2.468 5.082-5.513 5.082s-5.513-2.273-5.513-5.072c0-2.808 2.468-5.072 5.513-5.072l-.01-.009Zm129.469-20.286h38.569c3.036 0 5.504 2.263 5.504 5.071s-2.458 5.072-5.504 5.072h-38.569c-3.036 0-5.504-2.273-5.504-5.072 0-2.808 2.459-5.071 5.504-5.071Zm-23.413 0c3.046 0 5.513 2.263 5.513 5.071s-2.467 5.072-5.513 5.072c-3.044 0-5.503-2.273-5.503-5.072 0-2.808 2.459-5.071 5.503-5.071Zm66.795 20.286h9.645c3.046 0 5.513 2.273 5.513 5.071 0 2.819-2.467 5.082-5.513 5.082h-9.645c-3.034 0-5.502-2.273-5.502-5.072 0-2.808 2.458-5.072 5.502-5.072v-.009Zm-24.102 20.305h20.661c3.045 0 5.513 2.273 5.513 5.072 0 2.798-2.458 5.071-5.513 5.071h-20.651c-3.045 0-5.513-2.273-5.513-5.071 0-2.799 2.458-5.072 5.513-5.072h-.01Zm19.289 20.296h30.297c3.045 0 5.513 2.273 5.513 5.072 0 2.808-2.468 5.071-5.513 5.071h-30.297c-3.044 0-5.512-2.263-5.512-5.071 0-2.799 2.468-5.072 5.512-5.072ZM65.935 105.019h61.974c3.044 0 5.511 2.274 5.511 5.072 0 2.81-2.467 5.071-5.511 5.071H65.935c-3.044 0-5.513-2.261-5.513-5.071 0-2.808 2.459-5.072 5.513-5.072Zm82.634 0h9.645c3.036 0 5.503 2.274 5.503 5.072 0 2.81-2.458 5.071-5.503 5.071h-9.645c-3.044 0-5.513-2.261-5.513-5.071 0-2.808 2.469-5.072 5.513-5.072Z" fill="var(--fill-normal)"/><g clip-path="url(#a)"><path d="M119.143 90.913H58.626v7.044h60.517v-7.044Zm0-49.308H58.626v7.044h60.517v-7.044Z" fill="#85ACB0"/><path d="M77.613 84.926 65.132 73.304h-6.506V66.26h9.645l8.548 7.959 15.772-19.582 12.482 11.623h14.07v7.044h-17.21l-8.548-7.96-15.772 19.582Z" fill="#FF444F"/></g><g clip-path="url(#b)"><path d="M181.314 83.869h17.257v-7.044H176.99l4.324 7.044Zm-12.97-21.132h30.227v-7.044h-34.548l4.321 7.044Zm-17.468-7.044h-12.822v7.044h17.134l-4.312-7.044Zm-12.822 28.176v-7.044h25.795l4.312 7.044h-30.107Z" fill="#85ACB0"/><path d="M198.571 97.957h-17.323L150.99 48.649h-12.936v-7.044h17.323l30.258 49.308h12.936v7.044Z" fill="#FF444F"/></g><defs><clipPath id="a"><path fill="#fff" transform="translate(62 44)" d="M0 0h60.517v56.351H0V0z"/></clipPath><clipPath id="b"><path fill="#fff" transform="translate(146 44)" d="M0 0h60.517v56.351H0V0z"/></clipPath></defs></svg>