<svg xmlns="http://www.w3.org/2000/svg" viewBox="0 0 258 140"><g fill="none"><rect width="258" height="140" fill="#FFF" rx="4"/><rect width="258" height="140" fill="var(--general-section-1)" rx="4"/><path fill="var(--fill-normal)" d="M149.03 85.33h31.09c3.05 0 5.52 2.3 5.52 5.11 0 2.83-2.47 5.12-5.52 5.12H38.5c-3.06 0-5.53-2.3-5.53-5.12 0-2.82 2.47-5.1 5.53-5.1h60.8c3.05 0 5.52-2.3 5.52-5.12 0-2.82-2.47-5.1-5.52-5.1H52.32v-.05c-2.76-.32-4.83-2.5-4.83-5.07 0-2.58 2.07-4.75 4.83-5.07v-.04h19.34c3.06 0 5.53-2.29 5.53-5.11 0-2.83-2.47-5.11-5.53-5.11H46.11c-3.06 0-5.53-2.3-5.53-5.11 0-2.83 2.47-5.12 5.53-5.12h131.25c3.05 0 5.52 2.3 5.52 5.12 0 2.82-2.47 5.1-5.52 5.1h-51.12c-3.06 0-5.53 2.3-5.53 5.12 0 2.82 2.47 5.1 5.53 5.1h30.4c3.04 0 5.52 2.3 5.52 5.12 0 2.82-2.48 5.11-5.53 5.11h-16.58c-3.05 0-5.52 2.29-5.52 5.11 0 2.83 2.47 5.11 5.52 5.11h8.98zM29.53 44.44c3.05 0 5.52 2.3 5.52 5.12 0 2.82-2.47 5.1-5.52 5.1-3.06 0-5.53-2.28-5.53-5.1 0-2.83 2.47-5.12 5.53-5.12zM159.39 24h38.69c3.05 0 5.53 2.29 5.53 5.11 0 2.82-2.48 5.11-5.53 5.11h-38.69c-3.05 0-5.52-2.29-5.52-5.1 0-2.83 2.47-5.12 5.52-5.12zm-23.48 0c3.05 0 5.52 2.29 5.52 5.11 0 2.82-2.47 5.11-5.52 5.11-3.05 0-5.53-2.29-5.53-5.1 0-2.83 2.48-5.12 5.53-5.12zm67 20.44h9.68c3.05 0 5.52 2.3 5.52 5.12 0 2.82-2.47 5.1-5.52 5.1h-9.68c-3.05 0-5.52-2.28-5.52-5.1 0-2.83 2.47-5.12 5.52-5.12zM178.74 64.9h20.72c3.05 0 5.53 2.29 5.53 5.11 0 2.82-2.48 5.11-5.53 5.11h-20.72c-3.06 0-5.53-2.29-5.53-5.11 0-2.82 2.47-5.11 5.53-5.11zm19.34 20.44h30.4c3.05 0 5.52 2.3 5.52 5.11 0 2.83-2.47 5.12-5.53 5.12h-30.4c-3.04 0-5.52-2.3-5.52-5.12 0-2.82 2.48-5.1 5.53-5.1zM66.14 105.78h62.17c3.05 0 5.53 2.29 5.53 5.1 0 2.83-2.48 5.12-5.53 5.12H66.14c-3.05 0-5.53-2.29-5.53-5.11 0-2.82 2.48-5.11 5.53-5.11zm82.9 0h9.66c3.06 0 5.53 2.29 5.53 5.1 0 2.83-2.47 5.12-5.53 5.12h-9.67c-3.05 0-5.52-2.29-5.52-5.11 0-2.82 2.47-5.11 5.52-5.11z"/><path fill="#FF444F" d="M199 69.95V78h-21.34l7.34 7.34a7.96 7.96 0 010 11.26l-.02.03L169 80.65l9-8.99c.48-.5.9-1.05 1.23-1.66l19.77-.05zm-45.98-30.58L170 56.34a8 8 0 010 11.32l-16.97 16.97-.02-.03a7.95 7.95 0 010-11.26l7.34-7.34-21.34.05V58h21.34L153 50.66a7.96 7.96 0 010-11.26l.02-.03zm31.95 12a7.98 7.98 0 01.5 10.78l-.47.52-4.8 4.8a8 8 0 00-1.76-6.64l-.45-.49-.99-1 7.97-7.97z"/><path fill="#85ACB0" d="M175 90v12h-8V90h8zm0-52v12h-8V38h8z"/><path fill="#FF444F" d="M71.03 47.37l16.96 16.97a8 8 0 010 11.32L71.02 92.63 71 92.6a7.95 7.95 0 010-11.26L78.34 74 57 74.05V66h21.34L71 58.66a7.96 7.96 0 010-11.26l.03-.03zm35.94 0l.03.03a7.95 7.95 0 010 11.26L99.66 66l21.34-.05V74H99.66l7.34 7.34a7.96 7.96 0 010 11.26l-.02.03L93 78.65l3-3a8 8 0 000-11.3l-3-3 13.97-13.98z"/><path fill="#85ACB0" d="M93 86v16h-8V86h8zm0-48v16h-8V38h8z"/></g></svg>