<svg width="272" height="147" fill="none" xmlns="http://www.w3.org/2000/svg" viewBox="0 0 258 140"><path d="M268 0H4C1.79 0 0 1.779 0 3.973v139.054C0 145.221 1.79 147 4 147h264c2.209 0 4-1.779 4-3.973V3.973C272 1.779 270.209 0 268 0Z" fill="var(--fill-normal)"/><path d="M268 0H4C1.79 0 0 1.779 0 3.973v139.054C0 145.221 1.79 147 4 147h264c2.209 0 4-1.779 4-3.973V3.973C272 1.779 270.209 0 268 0Z" fill="var(--general-section-1)"/><path d="M157.12 89.6h32.77c3.22 0 5.83 2.404 5.83 5.364 0 2.97-2.61 5.363-5.83 5.363H40.6c-3.21 0-5.82-2.393-5.82-5.363 0-2.96 2.6-5.364 5.83-5.364h64.08c3.22 0 5.83-2.403 5.83-5.363 0-2.96-2.6-5.364-5.83-5.364H55.16v-.05c-2.91-.337-5.1-2.621-5.1-5.323 0-2.702 2.19-4.986 5.1-5.324v-.04h20.4c3.21 0 5.82-2.403 5.82-5.363 0-2.97-2.6-5.373-5.83-5.373H48.61c-3.22 0-5.83-2.404-5.83-5.364 0-2.97 2.6-5.364 5.83-5.364h138.37c3.22 0 5.83 2.394 5.83 5.364 0 2.96-2.61 5.364-5.83 5.364h-53.9c-3.21 0-5.82 2.403-5.82 5.363 0 2.96 2.61 5.363 5.83 5.363h32.04c3.22 0 5.83 2.414 5.83 5.374 0 2.96-2.61 5.364-5.83 5.364h-17.48c-3.21 0-5.82 2.403-5.82 5.363 0 2.97 2.6 5.373 5.82 5.373h9.47Zm-126-42.937c3.23 0 5.84 2.403 5.84 5.363 0 2.98-2.61 5.373-5.83 5.373s-5.83-2.403-5.83-5.363c0-2.97 2.61-5.364 5.83-5.364l-.01-.01Zm136.92-21.454h40.79c3.21 0 5.82 2.393 5.82 5.363 0 2.97-2.6 5.363-5.82 5.363h-40.79c-3.21 0-5.82-2.403-5.82-5.363 0-2.97 2.6-5.363 5.82-5.363Zm-24.76 0c3.22 0 5.83 2.393 5.83 5.363 0 2.97-2.61 5.363-5.83 5.363s-5.82-2.403-5.82-5.363c0-2.97 2.6-5.363 5.82-5.363Zm70.64 21.454h10.2c3.22 0 5.83 2.403 5.83 5.363 0 2.98-2.61 5.373-5.83 5.373h-10.2c-3.21 0-5.82-2.403-5.82-5.363 0-2.97 2.6-5.364 5.82-5.364v-.01Zm-25.49 21.474h21.85c3.22 0 5.83 2.403 5.83 5.363 0 2.96-2.6 5.364-5.83 5.364h-21.84c-3.22 0-5.83-2.404-5.83-5.364s2.6-5.364 5.83-5.364h-.01Zm20.4 21.463h32.04c3.22 0 5.83 2.404 5.83 5.364 0 2.97-2.61 5.363-5.83 5.363h-32.04c-3.22 0-5.83-2.393-5.83-5.363 0-2.96 2.61-5.364 5.83-5.364Zm-139.1 21.464h65.54c3.22 0 5.83 2.404 5.83 5.364 0 2.97-2.61 5.363-5.83 5.363H69.73c-3.22 0-5.83-2.393-5.83-5.363 0-2.97 2.6-5.364 5.83-5.364Zm87.39 0h10.2c3.21 0 5.82 2.404 5.82 5.364 0 2.97-2.6 5.363-5.82 5.363h-10.2c-3.22 0-5.83-2.393-5.83-5.363 0-2.97 2.61-5.364 5.83-5.364Z" fill="var(--fill-normal)"/><g clip-path="url(#a)"><path d="M168 96.5h-64v7.5h64v-7.5Zm0-52.5h-64v7.5h64V44Z" fill="#85ACB0"/><path d="m124.08 90.126-13.2-12.375H104v-7.5h10.2l9.04 8.475 16.68-20.85 13.2 12.375H168v7.5h-18.2l-9.04-8.475-16.68 20.85Z" fill="#FF444F"/></g><defs><clipPath id="a"><path fill="var(--fill-normal)" transform="translate(104 44)" d="M0 0h64v60H0z"/></clipPath></defs></svg>