<svg xmlns="http://www.w3.org/2000/svg" width="272" height="148"><g fill="none"><rect width="272" height="148" fill="#FFF" rx="4"/><rect width="272" height="148" fill="var(--general-section-1)" rx="4"/><path fill="var(--fill-normal)" d="M157.12 89.964h32.772c3.218 0 5.826 2.412 5.826 5.388s-2.608 5.389-5.826 5.389H40.596c-3.218 0-5.826-2.413-5.826-5.389 0-2.976 2.608-5.388 5.826-5.388h64.088c3.218 0 5.826-2.413 5.826-5.389 0-2.976-2.608-5.388-5.826-5.388H55.162v-.042c-2.913-.34-5.098-2.631-5.098-5.347 0-2.715 2.185-5.006 5.098-5.346v-.042h20.391c3.218 0 5.826-2.413 5.826-5.388 0-2.976-2.608-5.389-5.826-5.389H48.607c-3.218 0-5.826-2.412-5.826-5.388s2.608-5.389 5.826-5.389H186.98c3.218 0 5.826 2.413 5.826 5.389 0 2.976-2.608 5.388-5.826 5.388h-53.892c-3.218 0-5.826 2.413-5.826 5.389 0 2.975 2.608 5.388 5.826 5.388h32.044c3.218 0 5.826 2.412 5.826 5.388s-2.608 5.389-5.826 5.389h-17.479c-3.217 0-5.826 2.412-5.826 5.388s2.609 5.389 5.826 5.389h9.468zM31.129 46.856c3.217 0 5.826 2.413 5.826 5.389 0 2.976-2.609 5.388-5.826 5.388-3.218 0-5.827-2.412-5.827-5.388s2.609-5.389 5.827-5.389zm136.915-21.554h40.783c3.218 0 5.827 2.413 5.827 5.389 0 2.976-2.609 5.388-5.827 5.388h-40.783c-3.218 0-5.826-2.412-5.826-5.388s2.608-5.389 5.826-5.389zm-24.761 0c3.217 0 5.826 2.413 5.826 5.389 0 2.976-2.609 5.388-5.826 5.388-3.218 0-5.826-2.412-5.826-5.388s2.608-5.389 5.826-5.389zm70.642 21.554h10.196c3.218 0 5.826 2.413 5.826 5.389 0 2.976-2.608 5.388-5.826 5.388h-10.196c-3.217 0-5.826-2.412-5.826-5.388s2.609-5.389 5.826-5.389zm-25.49 21.554h21.849c3.218 0 5.826 2.412 5.826 5.388s-2.608 5.389-5.826 5.389h-21.848c-3.218 0-5.826-2.413-5.826-5.389 0-2.976 2.608-5.388 5.826-5.388zm20.392 21.554h32.044c3.218 0 5.827 2.412 5.827 5.388s-2.609 5.389-5.827 5.389h-32.044c-3.217 0-5.826-2.413-5.826-5.389 0-2.976 2.609-5.388 5.826-5.388zm-139.1 21.554h65.545c3.217 0 5.826 2.412 5.826 5.388s-2.609 5.389-5.826 5.389H69.727c-3.218 0-5.826-2.413-5.826-5.389 0-2.976 2.608-5.388 5.826-5.388zm87.393 0h10.196c3.218 0 5.826 2.412 5.826 5.388s-2.608 5.389-5.826 5.389H157.12c-3.218 0-5.826-2.413-5.826-5.389 0-2.976 2.608-5.388 5.826-5.388z"/><path fill="#85ACB0" d="M177.83 40.062v67.473h-8.435V40.062h8.434zm-16.87 59.039v8.434h-16.868V99.1h16.868zm0-59.039v8.434h-16.868v-8.434h16.868zm50.605 0v8.434h-25.302v-8.434h25.302z"/><path fill="#FF444F" d="M182.047 72.07l21.085 21.085v-6.748a8.392 8.392 0 018.392-8.391h.042V99.1a8.434 8.434 0 01-8.434 8.434h-21.085v-.042a8.392 8.392 0 018.375-8.392h6.747l-15.122-15.106V72.07zm-15.123-15.14l2.471 2.471v11.926l-5.963-5.963h-19.339V56.93h22.831z"/><path fill="#85ACB0" d="M76.961 99.1v8.435H60.093V99.1h16.868zm50.605 0v8.435h-25.302V99.1h25.302zM93.829 40.063v67.473h-8.434V40.062h8.434zm-16.868 0v8.434H60.093v-8.434h16.868z"/><path fill="#FF444F" d="M85.395 76.27v11.925l-2.47 2.472H60.092v-8.434h19.34l5.962-5.963zm33.737-36.208a8.434 8.434 0 018.434 8.434v21.085h-.042a8.392 8.392 0 01-8.392-8.375V54.46L98.047 75.544V63.618l15.139-15.122h-6.748a8.392 8.392 0 01-8.391-8.392v-.042z"/><path fill="#85ACB0" d="M89.612 82.233v1.745l1.746-1.745z"/></g></svg>