<svg xmlns="http://www.w3.org/2000/svg" viewBox="0 0 258 140"><g fill="none"><rect width="258" height="140" fill="#FFF" rx="4"/><rect width="258" height="140" fill="var(--general-section-1)" rx="4"/><path fill="var(--fill-normal)" d="M149.03 85.33h31.09c3.05 0 5.52 2.3 5.52 5.11 0 2.83-2.47 5.12-5.52 5.12H38.5c-3.06 0-5.53-2.3-5.53-5.12 0-2.82 2.47-5.1 5.53-5.1h60.8c3.05 0 5.52-2.3 5.52-5.12 0-2.82-2.47-5.1-5.52-5.1H52.32v-.05c-2.76-.32-4.83-2.5-4.83-5.07 0-2.58 2.07-4.75 4.83-5.07v-.04h19.34c3.06 0 5.53-2.29 5.53-5.11 0-2.83-2.47-5.11-5.53-5.11H46.11c-3.06 0-5.53-2.3-5.53-5.11 0-2.83 2.47-5.12 5.53-5.12h131.25c3.05 0 5.52 2.3 5.52 5.12 0 2.82-2.47 5.1-5.52 5.1h-51.12c-3.06 0-5.53 2.3-5.53 5.12 0 2.82 2.47 5.1 5.53 5.1h30.4c3.04 0 5.52 2.3 5.52 5.12 0 2.82-2.48 5.11-5.53 5.11h-16.58c-3.05 0-5.52 2.29-5.52 5.11 0 2.83 2.47 5.11 5.52 5.11h8.98zM29.53 44.44c3.05 0 5.52 2.3 5.52 5.12 0 2.82-2.47 5.1-5.52 5.1-3.06 0-5.53-2.28-5.53-5.1 0-2.83 2.47-5.12 5.53-5.12zM159.39 24h38.69c3.05 0 5.53 2.29 5.53 5.11 0 2.82-2.48 5.11-5.53 5.11h-38.69c-3.05 0-5.52-2.29-5.52-5.1 0-2.83 2.47-5.12 5.52-5.12zm-23.48 0c3.05 0 5.52 2.29 5.52 5.11 0 2.82-2.47 5.11-5.52 5.11-3.05 0-5.53-2.29-5.53-5.1 0-2.83 2.48-5.12 5.53-5.12zm67 20.44h9.68c3.05 0 5.52 2.3 5.52 5.12 0 2.82-2.47 5.1-5.52 5.1h-9.68c-3.05 0-5.52-2.28-5.52-5.1 0-2.83 2.47-5.12 5.52-5.12zM178.74 64.9h20.72c3.05 0 5.53 2.29 5.53 5.11 0 2.82-2.48 5.11-5.53 5.11h-20.72c-3.06 0-5.53-2.29-5.53-5.11 0-2.82 2.47-5.11 5.53-5.11zm19.34 20.44h30.4c3.05 0 5.52 2.3 5.52 5.11 0 2.83-2.47 5.12-5.53 5.12h-30.4c-3.04 0-5.52-2.3-5.52-5.12 0-2.82 2.48-5.1 5.53-5.1zM66.14 105.78h62.17c3.05 0 5.53 2.29 5.53 5.1 0 2.83-2.48 5.12-5.53 5.12H66.14c-3.05 0-5.53-2.29-5.53-5.11 0-2.82 2.48-5.11 5.53-5.11zm82.9 0h9.66c3.06 0 5.53 2.29 5.53 5.1 0 2.83-2.47 5.12-5.53 5.12h-9.67c-3.05 0-5.52-2.29-5.52-5.11 0-2.82 2.47-5.11 5.52-5.11z"/><path fill="#FF444F" d="M200.96 74a7.96 7.96 0 00-7.96 7.96v6.4l-40-40v11.3L187.34 94h-6.4a7.96 7.96 0 00-7.94 7.96v.04h20a8 8 0 008-8V74h-.04z"/><path fill="#85ACB0" d="M137 46v-8h5.66l2.34 2.34 5.66 5.66H145z"/><path fill="#FF444F" d="M113 38H93v.04c0 4.4 3.56 7.96 7.96 7.96h6.4L73 80.34v11.32l40-40v6.4a7.96 7.96 0 007.96 7.94h.04V46a8 8 0 00-8-8z"/><path fill="#85ACB0" d="M62.66 102H57v-8h13.66L65 99.66z"/></g></svg>