<svg width="328" height="164" fill="none" xmlns="http://www.w3.org/2000/svg"><rect width="328" height="164" rx="6" fill="var(--general-section-1)"/><path d="M186.131 101.337h34.339c3.374 0 6.109 2.887 6.109 6.442 0 3.567-2.735 6.442-6.109 6.442H64.032c-3.363 0-6.098-2.875-6.098-6.442 0-3.555 2.724-6.442 6.109-6.442h67.148c3.374 0 6.109-2.887 6.109-6.442 0-3.554-2.724-6.441-6.109-6.441H79.29v-.06c-3.05-.406-5.345-3.15-5.345-6.394 0-3.245 2.295-5.989 5.345-6.394v-.048h21.376c3.364 0 6.099-2.887 6.099-6.442 0-3.566-2.725-6.453-6.109-6.453h-28.23c-3.374 0-6.11-2.887-6.11-6.442 0-3.567 2.725-6.442 6.11-6.442h144.995c3.374 0 6.109 2.875 6.109 6.442 0 3.555-2.735 6.442-6.109 6.442H160.94c-3.363 0-6.098 2.887-6.098 6.442 0 3.554 2.735 6.441 6.109 6.441h33.574c3.374 0 6.109 2.9 6.109 6.454 0 3.555-2.735 6.442-6.109 6.442h-18.317c-3.364 0-6.099 2.887-6.099 6.442 0 3.566 2.725 6.453 6.099 6.453h9.923zM54.099 49.767c3.384 0 6.12 2.887 6.12 6.442 0 3.579-2.736 6.454-6.11 6.454S48 59.776 48 56.22c0-3.567 2.735-6.442 6.11-6.442l-.011-.012zM197.574 24h42.743c3.364 0 6.099 2.875 6.099 6.442s-2.725 6.442-6.099 6.442h-42.743c-3.364 0-6.099-2.887-6.099-6.442 0-3.567 2.725-6.442 6.099-6.442zm-25.945 0c3.374 0 6.109 2.875 6.109 6.442s-2.735 6.442-6.109 6.442c-3.375 0-6.099-2.887-6.099-6.442 0-3.567 2.724-6.442 6.099-6.442zm74.022 25.767h10.688c3.374 0 6.109 2.887 6.109 6.442 0 3.579-2.735 6.454-6.109 6.454h-10.688c-3.364 0-6.099-2.887-6.099-6.442 0-3.567 2.724-6.442 6.099-6.442v-.012zM218.94 75.558h22.896c3.374 0 6.109 2.887 6.109 6.442s-2.724 6.442-6.109 6.442h-22.885c-3.374 0-6.109-2.887-6.109-6.442s2.724-6.442 6.109-6.442h-.011zm21.377 25.779h33.574c3.374 0 6.109 2.887 6.109 6.442 0 3.567-2.735 6.442-6.109 6.442h-33.574c-3.374 0-6.109-2.875-6.109-6.442 0-3.555 2.735-6.442 6.109-6.442zm-145.76 25.779h68.678c3.374 0 6.109 2.887 6.109 6.442 0 3.567-2.735 6.442-6.109 6.442H94.557c-3.374 0-6.109-2.875-6.109-6.442s2.725-6.442 6.11-6.442zm91.574 0h10.689c3.363 0 6.098 2.887 6.098 6.442 0 3.567-2.724 6.442-6.098 6.442h-10.689c-3.374 0-6.109-2.875-6.109-6.442s2.735-6.442 6.109-6.442z" fill="var(--fill-normal)"/><g clip-path="url(#prefix__clip0_8025_92380)"><path d="M192 103h-56v7h56v-7zM192 54h-56v7h56v-7z" fill="#85ACB0"/><path d="M153.57 97.051l-11.55-11.55H136v-7h8.925l7.91 7.91 14.595-19.46 11.55 11.55H192v7h-15.925l-7.91-7.91-14.595 19.46z" fill="#FF444F"/></g><defs><clipPath id="prefix__clip0_8025_92380"><path fill="var(--fill-normal)" transform="translate(136 54)" d="M0 0h56v56H0z"/></clipPath></defs></svg>