<svg xmlns="http://www.w3.org/2000/svg" viewBox="-15716 -21128 66 66"><defs><style>.cls-1 {fill: none;stroke: #2a3052;stroke-miterlimit: 10;stroke-width: 2px;}</style></defs><g transform="translate(-15716 -21128)"><g transform="translate(28.13 20.478)"><line class="cls-1" y2="4.591" transform="translate(4.87)"/><path class="cls-1" d="M20.5,27.7" transform="translate(-20.5 -10.03)"/><path class="cls-1" d="M25,24.3l1.67.974a3.457,3.457,0,0,1,1.809,3.061h0A3.444,3.444,0,0,1,25,31.813" transform="translate(-18.739 -11.361)"/><path class="cls-1" d="M30.239,21.083h0A2.791,2.791,0,0,0,27.457,18.3h-3.9A3.088,3.088,0,0,0,20.5,21.361h0A2.983,2.983,0,0,0,22.03,24l1.948,1.113" transform="translate(-20.5 -13.709)"/></g><g transform="translate(10.739 35.783)"><circle class="cls-1" cx="3.478" cy="3.478" r="3.478" transform="translate(3.478)"/><path class="cls-1" d="M14.957,33.2C12.591,33.2,8,34.313,8,36.678v1.809H21.913v-1.67C21.913,34.452,17.322,33.2,14.957,33.2Z" transform="translate(-8 -23.183)"/></g><rect class="cls-1" width="33.391" height="33.391" transform="translate(1 31.609)"/><path class="cls-1" d="M23,16.3V1H56.391V34.391h-15.3" transform="translate(8.609)"/><path class="cls-1" d="M12,27.3V12H45.391V45.391h-15.3" transform="translate(4.304 4.304)"/><line class="cls-1" x2="19.478" transform="translate(7.957 58.043)"/><g transform="translate(35.783 10.739)"><path class="cls-1" d="M26,13.565,31.565,8l5.565,5.565" transform="translate(-26 -8)"/><line class="cls-1" y1="5.565" transform="translate(5.565)"/></g><g transform="translate(51.087 9.348)"><path class="cls-1" d="M48.13,14l-5.565,5.565L37,14" transform="translate(-37 -4.261)"/><line class="cls-1" y2="15.304" transform="translate(5.565)"/></g></g></svg>
