<svg xmlns="http://www.w3.org/2000/svg" viewBox="-15391 -21452 66 66"><defs><style>.cls-1 {fill: none;stroke: #2a3052;stroke-miterlimit: 10;stroke-width: 2px;}</style></defs><g transform="translate(-15391 -21452)"><circle class="cls-1" cx="27.826" cy="27.826" r="27.826" transform="translate(5.174 5.174)"/><g transform="translate(52.478 1)"><line class="cls-1" y1="12.522" x2="12.522"/><path class="cls-1" d="M41,1h8.348V9.348" transform="translate(-36.826 -1)"/></g><g transform="translate(1 1)"><line class="cls-1" x1="12.522" y1="12.522"/><path class="cls-1" d="M9.348,1H1V9.348" transform="translate(-1 -1)"/></g><g transform="translate(1 52.478)"><line class="cls-1" x1="12.522" y2="12.522"/><path class="cls-1" d="M9.348,49.348H1V41" transform="translate(-1 -36.826)"/></g><g transform="translate(52.478 52.478)"><line class="cls-1" x2="12.522" y2="12.522"/><path class="cls-1" d="M41,49.348h8.348V41" transform="translate(-36.826 -36.826)"/></g><path class="cls-1" d="M20.348,36.522H12V24h8.348" transform="translate(4.304 9)"/><line class="cls-1" x2="6.957" transform="translate(16.304 37.174)"/><line class="cls-1" x2="6.957" transform="translate(16.304 41.348)"/><line class="cls-1" x2="6.957" transform="translate(42.739 37.174)"/><line class="cls-1" x2="6.957" transform="translate(42.739 41.348)"/><g transform="translate(22.15 17.696)"><g ><path class="cls-1" d="M24.13,17.3h5.983l6.678,10.435a10.791,10.791,0,0,1-5.7,14.887h0a11.509,11.509,0,0,1-8.07,0h0a10.894,10.894,0,0,1-5.7-14.887Z" transform="translate(-16.201 -11.317)"/><path class="cls-1" d="M23.191,18.983,18.6,13H33.626l-4.591,5.983Z" transform="translate(-15.263 -13)"/></g><g transform="translate(7.928 12.522)"><line class="cls-1" y2="2.783" transform="translate(2.922)"/><line class="cls-1" y2="2.783" transform="translate(2.922 12.522)"/><path class="cls-1" d="M27.743,25.67h0A1.607,1.607,0,0,0,26.074,24H23.709A1.842,1.842,0,0,0,21.9,25.809h0a2.122,2.122,0,0,0,.974,1.67l3.9,2.226a2.171,2.171,0,0,1,1.113,1.809h0A2.049,2.049,0,0,1,25.8,33.6H23.709a1.607,1.607,0,0,1-1.67-1.67h0" transform="translate(-21.9 -21.217)"/></g></g><path class="cls-1" d="M30,24h8.348V36.522H30" transform="translate(11.348 9)"/></g></svg>
