<svg width="299" height="197" xmlns="http://www.w3.org/2000/svg"><g fill="none" fill-rule="evenodd"><path fill="#F1F2F2" d="M0 0h299v197H0z"/><path d="M1.987 1.98v193.04h295.026V1.98H1.987zM299 0v197H0V0h299z" fill="#C2C2C2" fill-rule="nonzero"/><path d="M4.887 56.168v-1.206h289.656v1.206H4.887zm0 40.33v-1.206h289.656v1.205H4.887zm0 40.329v-1.206h289.656v1.206H4.887zm0 40.292v-1.206h289.656v1.206H4.887zm34.38-141.7h1.206v158.864h-1.206V35.419zm36.665 0h1.206v158.864h-1.206V35.419zm36.627 0h1.206v158.864h-1.206V35.419zm36.665 0h1.206v158.864h-1.206V35.419zm36.628 0h1.206v158.864h-1.206V35.419zm36.627 0h1.206v158.864h-1.206V35.419zM4.887 116.643v-1.205h289.656v1.205H4.887z" fill="#DFDEDE" fill-rule="nonzero"/><path d="M4.887 72.595v-1.127h7.469v1.127H4.887zm14.938 0v-1.127h7.468v1.127h-7.468zm14.937 0v-1.127h7.469v1.127h-7.469zm14.938 0v-1.127h7.468v1.127H49.7zm14.937 0v-1.127h7.469v1.127h-7.469zm14.938 0v-1.127h7.468v1.127h-7.468zm14.937 0v-1.127h7.469v1.127h-7.469zm14.938 0v-1.127h7.468v1.127h-7.468zm14.937 0v-1.127h7.469v1.127h-7.469zm14.938 0v-1.127h7.468v1.127h-7.468zm14.937 0v-1.127h7.469v1.127h-7.469zm14.938 0v-1.127h7.468v1.127H169.2zm14.937 0v-1.127h7.469v1.127h-7.469zm14.938 0v-1.127h7.468v1.127h-7.468zm14.937 0v-1.127h7.469v1.127h-7.469zm14.938 0v-1.127h7.468v1.127h-7.468zm14.937 0v-1.127h7.469v1.127h-7.469zm14.938 0v-1.127h7.468v1.127h-7.468zm14.937 0v-1.127h7.469v1.127h-7.469zm14.938 0v-1.127h5.843v1.127H288.7z" fill="#15212D" fill-rule="nonzero"/><path fill="#2A3052" fill-rule="nonzero" d="M240.457 35.42h1.206v158.863h-1.206z"/><path d="M4.887 164.368v-1.128h7.469v1.128H4.887zm14.938 0v-1.128h7.468v1.128h-7.468zm14.937 0v-1.128h7.469v1.128h-7.469zm14.938 0v-1.128h7.468v1.128H49.7zm14.937 0v-1.128h7.469v1.128h-7.469zm14.938 0v-1.128h7.468v1.128h-7.468zm14.937 0v-1.128h7.469v1.128h-7.469zm14.938 0v-1.128h7.468v1.128h-7.468zm14.937 0v-1.128h7.469v1.128h-7.469zm14.938 0v-1.128h7.468v1.128h-7.468zm14.937 0v-1.128h7.469v1.128h-7.469zm14.938 0v-1.128h7.468v1.128H169.2zm14.937 0v-1.128h7.469v1.128h-7.469zm14.938 0v-1.128h7.468v1.128h-7.468zm14.937 0v-1.128h7.469v1.128h-7.469zm14.938 0v-1.128h7.468v1.128h-7.468zm14.937 0v-1.128h7.469v1.128h-7.469zm14.938 0v-1.128h7.468v1.128h-7.468zm14.937 0v-1.128h7.469v1.128h-7.469zm14.938 0v-1.128h5.843v1.128H288.7z" fill="#15212D" fill-rule="nonzero"/><path fill="#C2C2C2" fill-rule="nonzero" d="M2.794 35.436v-2.412h293.842v2.412z"/><path d="M56.641 102.229l-34.723 15.464a1.809 1.809 0 1 1-1.471-3.305l35.745-15.92a1.809 1.809 0 0 1 1.887.257l24.615 20.291 36.945-77.79c.687-1.448 2.78-1.352 3.332.152l43.278 117.852 26.908-57.045c.138-.293.352-.543.62-.725l46.03-31.263a1.809 1.809 0 1 1 2.034 2.993l-45.623 30.986-28.541 60.507c-.685 1.452-2.781 1.359-3.335-.148L121.06 46.668l-36.092 75.995a1.809 1.809 0 0 1-2.784.62L56.64 102.23z" fill="#2A3052" fill-rule="nonzero"/><ellipse cx="8.335" cy="9.259" rx="8.11" ry="8.4" opacity=".6" transform="translate(232.725 61.472)" fill="#FFF"/><path d="M241.06 80.337c-5.155 0-9.317-4.31-9.317-9.606 0-5.297 4.162-9.607 9.317-9.607s9.316 4.31 9.316 9.607c0 5.296-4.161 9.606-9.316 9.606zm0-2.412c3.803 0 6.904-3.212 6.904-7.194 0-3.983-3.1-7.195-6.904-7.195s-6.905 3.212-6.905 7.195c0 3.982 3.101 7.194 6.905 7.194z" fill="#E88024" fill-rule="nonzero"/><ellipse cx="8.11" cy="9.259" rx="8.11" ry="8.4" opacity=".6" transform="translate(157.975 154.396)" fill="#FFF"/><path d="M166.085 173.261c-5.155 0-9.316-4.31-9.316-9.606s4.161-9.606 9.316-9.606c5.155 0 9.317 4.31 9.317 9.606s-4.162 9.606-9.317 9.606zm0-2.412c3.804 0 6.905-3.211 6.905-7.194s-3.101-7.194-6.905-7.194c-3.803 0-6.904 3.211-6.904 7.194s3.1 7.194 6.904 7.194z" fill="#E88024" fill-rule="nonzero"/><path d="M13.938 124.853l.092.944a2.058 2.058 0 0 1 1.826-1.036c.67 0 1.187.183 1.553.61.365.395.548 1.004.548 1.826v3.957H16.83v-3.927c0-.548-.122-.943-.335-1.187-.213-.243-.548-.335-.974-.335-.335 0-.609.092-.852.244a1.758 1.758 0 0 0-.609.639v4.566h-1.126v-6.27l1.004-.031zM10 122.672h1.073v8.482H10v-8.482zm18.648 2.181h1.096v6.034h-1.096v-6.034zm.015-2.741v1.088h1.116v-1.088h-1.116zm-9.008 2.741h1.097v6.034h-1.097v-6.034zm.015-2.741v1.088h1.117v-1.088H19.67zm6.567 4.895c.615-.022.926 0 1.055 0 0-.687-.452-2.27-2.523-2.207-2.072.062-2.624 2.325-2.533 3.595.092 1.27.923 2.825 2.77 2.77 1.846-.054 2.286-1.546 2.286-2.064a90.314 90.314 0 0 0-1.055 0c0 .508-.353 1.131-1.232 1.19-.878.06-1.538-.624-1.623-1.896-.084-1.272.263-2.73 1.412-2.73 1.148 0 1.443.858 1.443 1.342zm7.684-2.209c1.07 0 2.652.474 2.81 2.914.16 2.44-1.359 3.442-2.714 3.442-1.356 0-2.754-.946-2.754-3.306 0-2.36 1.587-3.05 2.658-3.05zm.086.884c-1.08 0-1.629.918-1.629 2.188s.384 2.437 1.629 2.437 1.712-1.174 1.613-2.53c-.099-1.358-.533-2.095-1.613-2.095zm218.141-72.905c.954 0 1.747.241 2.368.747.597.483.965 1.15 1.092 1.977h-1.219c-.138-.552-.402-.966-.793-1.23-.39-.264-.874-.39-1.471-.39-.886 0-1.552.298-2 .907-.426.552-.633 1.31-.633 2.265 0 .989.207 1.747.62 2.288.438.575 1.116.862 2.036.862.597 0 1.103-.15 1.494-.448.414-.322.701-.805.862-1.449h1.219c-.184.954-.61 1.702-1.288 2.242-.632.506-1.39.759-2.276.759-1.345 0-2.357-.437-3.035-1.288-.598-.736-.885-1.724-.885-2.966 0-1.218.299-2.207.92-2.977.69-.874 1.678-1.3 2.989-1.3v.001zm5.587.046c.24 0 .448.069.609.23.16.149.241.344.241.586a.816.816 0 0 1-.253.598.863.863 0 0 1-.597.23.843.843 0 0 1-.598-.23.824.824 0 0 1-.242-.598c0-.242.08-.437.242-.586.16-.161.356-.23.598-.23zm-.61 2.38h1.219v5.943h-1.219v-5.944.001zm5.38-.162c.966 0 1.713.322 2.219.989.46.598.701 1.425.713 2.483h-4.507c.046.575.196 1.023.472 1.334.276.298.655.46 1.138.46.425 0 .77-.104 1.034-.3.207-.16.38-.425.54-.77h1.22c-.139.552-.403 1.023-.817 1.391-.517.449-1.173.679-1.966.679-.873 0-1.575-.276-2.08-.817-.552-.574-.828-1.345-.828-2.322 0-.885.253-1.62.782-2.219.505-.609 1.207-.908 2.08-.908zm.035 1c-.46 0-.816.127-1.092.403-.253.264-.426.644-.495 1.15h3.208c-.115-1.035-.656-1.553-1.621-1.553zm6.69-1c.3 0 .564.046.77.15v1.218a2.901 2.901 0 0 0-.862-.126c-.367 0-.7.15-.988.448-.31.322-.46.747-.46 1.265v3.15h-1.219v-5.944h1.219v.897c.15-.322.345-.563.575-.724.276-.23.598-.334.965-.334zm4.277 0c.299 0 .563.046.77.15v1.218a2.901 2.901 0 0 0-.862-.126c-.368 0-.701.15-.989.448-.31.322-.46.747-.46 1.265v3.15h-1.218v-5.944h1.218v.897c.15-.322.345-.563.575-.724.276-.23.598-.334.966-.334zm4.035 0c.966 0 1.713.322 2.219.989.46.598.7 1.425.712 2.483h-4.506c.046.575.195 1.023.471 1.334.276.298.656.46 1.138.46.426 0 .77-.104 1.035-.3.207-.16.38-.425.54-.77h1.219c-.138.552-.402 1.023-.816 1.391-.518.449-1.173.679-1.966.679-.874 0-1.575-.276-2.08-.817-.553-.574-.829-1.345-.829-2.322 0-.885.253-1.62.782-2.219.506-.609 1.207-.908 2.08-.908h.001zm.034 1c-.46 0-.816.127-1.092.403-.253.264-.425.644-.494 1.15h3.207c-.115-1.035-.655-1.553-1.62-1.553h-.001z" fill="#2A3052" fill-rule="nonzero"/><path d="M23.775 18.561l.014.042c.019 1.09-.313 1.942-.996 2.56-.682.617-1.624.925-2.826.925-1.225 0-2.214-.394-2.967-1.181-.753-.788-1.129-1.806-1.129-3.055v-2.027c0-1.243.367-2.262 1.101-3.054.734-.793 1.697-1.189 2.89-1.189 1.243 0 2.216.304 2.917.912.702.608 1.043 1.463 1.024 2.567l-.014.042h-1.992c0-.655-.157-1.142-.473-1.462-.316-.32-.803-.48-1.462-.48-.613 0-1.09.246-1.435.74-.343.492-.515 1.13-.515 1.91v2.041c0 .786.181 1.426.544 1.922.362.496.866.743 1.51.743.613 0 1.07-.16 1.372-.48.302-.32.452-.812.452-1.476h1.985zm4.615 3.527c-1.131 0-2.015-.347-2.651-1.041-.636-.694-.954-1.589-.954-2.683v-.28c0-1.137.309-2.067.926-2.792.617-.724 1.466-1.084 2.546-1.08 1.02 0 1.801.312 2.346.937.545.624.817 1.464.817 2.52v1.06h-4.524l-.02.042c.032.519.19.94.473 1.262.282.323.702.484 1.259.484.458 0 .847-.046 1.167-.14.32-.093.651-.236.993-.428l.554 1.263c-.304.248-.716.456-1.235.624a5.474 5.474 0 0 1-1.697.252zm-.133-6.298c-.412 0-.728.142-.95.425-.223.282-.357.658-.404 1.125l.014.035h2.497v-.154c0-.444-.091-.794-.273-1.048-.183-.255-.477-.383-.884-.383zm8.346.323l-.75-.021c-.304 0-.555.063-.751.19a1.2 1.2 0 0 0-.449.532v5.127h-2.04v-7.588h1.9l.091 1.122c.178-.398.408-.708.69-.93a1.54 1.54 0 0 1 .98-.333c.102 0 .197.008.283.025a3.3 3.3 0 0 1 .263.06l-.217 1.816zm5.057 0l-.75-.021c-.305 0-.555.063-.751.19a1.2 1.2 0 0 0-.45.532v5.127h-2.04v-7.588h1.9l.092 1.122c.177-.398.408-.708.69-.93a1.54 1.54 0 0 1 .979-.333c.103 0 .198.008.284.025a3.3 3.3 0 0 1 .263.06l-.217 1.816zm5.54 5.828a4.307 4.307 0 0 1-.193-.547 3.805 3.805 0 0 1-.115-.59 2.8 2.8 0 0 1-.835.92c-.346.243-.757.364-1.234.364-.795 0-1.408-.204-1.838-.613-.43-.41-.645-.967-.645-1.673 0-.743.286-1.32.86-1.729.572-.409 1.408-.614 2.506-.614h1.15v-.603c0-.364-.095-.647-.287-.848-.192-.201-.477-.302-.856-.302-.332 0-.588.08-.768.242-.18.161-.27.382-.27.663h-1.97l-.014-.042c-.033-.64.246-1.194.838-1.659.591-.465 1.364-.698 2.318-.698.911 0 1.649.23 2.212.688.564.458.846 1.115.846 1.97v3.135c0 .356.026.69.08 1.003.054.314.14.624.256.933H47.2zm-1.872-1.368c.355 0 .673-.088.953-.266.281-.178.473-.383.576-.617v-1.073h-1.15c-.435 0-.764.107-.986.322a1.06 1.06 0 0 0-.333.793c0 .257.083.462.249.614.166.151.396.227.69.227h.001zm9.103-4.46l-.75-.021c-.304 0-.554.063-.75.19a1.2 1.2 0 0 0-.45.532v5.127h-2.04v-7.588h1.9l.091 1.122c.178-.398.408-.708.691-.93a1.54 1.54 0 0 1 .979-.333c.102 0 .197.008.284.025.086.016.174.036.263.06l-.218 1.816zm5.436 2.251h-4.131v-1.578h4.13v1.578h.001zm2.04 3.577V11.729h3.346c1.202 0 2.139.235 2.812.705.674.47 1.01 1.168 1.01 2.094 0 .467-.121.886-.364 1.255-.244.37-.599.648-1.066.835.635.117 1.115.393 1.437.827.323.435.484.943.484 1.522 0 .978-.322 1.718-.968 2.22-.645.503-1.559.754-2.742.754h-3.949zm2.048-4.517v2.946h1.901c.542 0 .956-.118 1.241-.354.286-.236.428-.586.428-1.049 0-.495-.14-.876-.42-1.143-.281-.266-.704-.4-1.27-.4h-1.88zm0-1.416h1.368c.547 0 .968-.113 1.263-.337.294-.224.441-.552.441-.982 0-.472-.148-.82-.445-1.045-.297-.224-.74-.336-1.33-.336h-1.297v2.7zm11.425 5.933a4.307 4.307 0 0 1-.192-.547 3.805 3.805 0 0 1-.116-.59 2.8 2.8 0 0 1-.835.92c-.346.243-.757.364-1.234.364-.795 0-1.408-.204-1.838-.613-.43-.41-.645-.967-.645-1.673 0-.743.286-1.32.86-1.729.572-.409 1.408-.614 2.507-.614h1.15v-.603c0-.364-.096-.647-.288-.848-.192-.201-.477-.302-.855-.302-.332 0-.588.08-.768.242-.18.161-.27.382-.27.663h-1.971l-.014-.042c-.033-.64.246-1.194.838-1.659.591-.465 1.364-.698 2.318-.698.912 0 1.65.23 2.213.688.563.458.845 1.115.845 1.97v3.135c0 .356.027.69.08 1.003.054.314.14.624.256.933H75.38zm-1.872-1.368c.355 0 .673-.088.954-.266.28-.178.472-.383.575-.617v-1.073h-1.15c-.435 0-.764.107-.986.322a1.06 1.06 0 0 0-.333.793c0 .257.083.462.249.614.166.151.396.227.69.227h.001zm7.322-6.22v7.869c0 .888-.236 1.574-.708 2.058-.473.484-1.13.726-1.971.726-.187 0-.358-.01-.512-.028a4.246 4.246 0 0 1-.491-.091l.098-1.564c.217.056.441.085.666.084.276 0 .489-.097.638-.291.15-.194.225-.492.225-.894v-7.87h2.055v.001zm-.042-1.831h-2.055V11h2.055v1.522zm1.325 5.555c0-1.132.316-2.059.947-2.781.631-.723 1.506-1.084 2.623-1.084 1.122 0 2.001.36 2.637 1.08.636.72.954 1.648.954 2.785v.147c0 1.14-.317 2.07-.95 2.788-.634.718-1.51 1.076-2.627 1.076-1.122 0-2-.358-2.633-1.076-.634-.718-.95-1.647-.95-2.788v-.147h-.001zm2.041.147c0 .692.122 1.247.365 1.666.243.418.636.627 1.178.627.529 0 .915-.21 1.161-.63.245-.422.368-.976.368-1.663v-.147c0-.674-.124-1.223-.372-1.648-.247-.426-.638-.639-1.17-.639-.53 0-.916.214-1.162.642-.245.428-.368.976-.368 1.645v.147z" fill="#020202" fill-rule="nonzero"/><path d="M137.535 186.96h3.672v.797h-4.691v-7.53h1.019v6.733zm5.735.797h-1.019v-5.596h1.02v5.596h-.001zm-.015-7.861h1.19l.01.03-1.392 1.345h-.765l.957-1.375zm2.518 2.265l.073.734a1.9 1.9 0 0 1 .695-.618 2.09 2.09 0 0 1 .98-.22c.373 0 .692.087.96.259.267.172.468.43.602.776.18-.321.413-.574.701-.758a1.833 1.833 0 0 1 1.011-.277c.569 0 1.019.196 1.35.587.33.392.496.98.496 1.766v3.347h-1.018V184.4c0-.552-.095-.942-.285-1.171-.19-.23-.472-.344-.848-.344-.348 0-.63.12-.846.362-.215.241-.342.546-.38.915v3.595h-1.024V184.4c0-.524-.097-.908-.292-1.15-.195-.244-.475-.365-.84-.365-.31 0-.566.064-.766.191-.2.128-.353.307-.46.538v4.143h-1.019v-5.596h.91zm9.45 5.596h-1.02v-5.596h1.02v5.596zm0-7.029h-1.02v-1.04h1.02v1.04zm2.983.083v1.35h1.06v.755h-1.06v3.398c0 .262.054.446.163.553a.59.59 0 0 0 .432.16 1.374 1.374 0 0 0 .377-.072l.14.698a.9.9 0 0 1-.336.153c-.148.04-.295.06-.44.06-.413 0-.743-.126-.987-.376-.245-.25-.368-.642-.368-1.176v-3.398h-.89v-.755h.89v-1.35h1.02-.001zm4.469 7.054c-.804 0-1.43-.257-1.88-.77-.45-.514-.675-1.19-.675-2.028v-.227c0-.804.232-1.468.695-1.994.464-.526 1.03-.789 1.7-.789.747 0 1.309.233 1.683.699.374.465.56 1.084.56 1.856v.538h-3.578l-.016.026c0 .562.125 1.018.373 1.368.248.35.627.525 1.138.525.344 0 .647-.05.907-.148.26-.098.484-.233.67-.406l.398.662c-.2.193-.464.356-.791.49-.328.132-.722.198-1.184.198zm-.16-5.006c-.356 0-.65.137-.883.411-.232.274-.374.625-.426 1.053l.01.025h2.524v-.082c0-.407-.1-.743-.3-1.009-.2-.265-.509-.398-.926-.398h.001zm7.12 4.898h-1.018v-5.596h1.019v5.596h-.001zm0-7.029h-1.018v-1.04h1.019v1.04h-.001zm2.478 1.433l.072.832c.187-.296.42-.526.701-.69.281-.164.601-.246.96-.246.603 0 1.07.177 1.401.53.331.354.497.9.497 1.637v3.533h-1.02v-3.512c0-.493-.097-.843-.291-1.05-.195-.207-.493-.31-.893-.31-.313 0-.58.063-.799.189a1.372 1.372 0 0 0-.52.53v4.153h-1.018v-5.596h.91zm5.534 5.596v-4.841h-.874v-.755h.874v-.709c0-.596.156-1.057.468-1.383.312-.326.747-.489 1.306-.489.117 0 .235.01.354.028.119.02.25.046.396.08l-.124.776a2.29 2.29 0 0 0-.502-.051c-.297 0-.517.088-.662.266-.145.178-.217.435-.217.773v.709h1.013v.755h-1.013v4.84h-1.02l.001.001zm5.254.108c-.803 0-1.43-.257-1.88-.77-.45-.514-.675-1.19-.675-2.028v-.227c0-.804.232-1.468.696-1.994.464-.526 1.03-.789 1.699-.789.748 0 1.31.233 1.683.699.374.465.562 1.084.562 1.856v.538h-3.58l-.015.026c0 .562.124 1.018.373 1.368.248.35.627.525 1.137.525.345 0 .648-.05.908-.148.26-.098.484-.233.67-.406l.398.662c-.2.193-.464.356-.791.49-.328.132-.723.198-1.185.198zm-.16-5.006c-.355 0-.65.137-.882.411-.233.274-.375.625-.426 1.053l.01.025h2.524v-.082c0-.407-.1-.743-.3-1.009-.2-.265-.509-.398-.926-.398zm6.035.202l-.522-.031c-.269 0-.496.063-.68.191-.19.135-.339.322-.427.538v3.998h-1.019v-5.596h.91l.099.817c.159-.29.354-.516.587-.678a1.417 1.417 0 0 1 1.192-.186l-.14.947zm2.162 4.696h-1.019v-5.596h1.02v5.596h-.001zm0-7.029h-1.019v-1.04h1.02v1.04h-.001zm1.33 4.179c0-.828.223-1.51.672-2.045.448-.537 1.056-.805 1.825-.805.776 0 1.389.268 1.839.802.45.534.675 1.217.675 2.048v.114c0 .834-.224 1.517-.673 2.048-.448.53-1.058.796-1.83.796-.773 0-1.384-.266-1.834-.799-.45-.533-.675-1.214-.675-2.045v-.114h.001zm1.018.114c0 .593.125 1.082.375 1.469.25.386.622.579 1.115.579.486 0 .855-.193 1.106-.58.252-.386.378-.875.378-1.468v-.114c0-.586-.127-1.074-.38-1.464-.254-.39-.625-.584-1.115-.584-.486 0-.854.195-1.104.584-.25.39-.375.878-.375 1.464v.114zm7.887-1.96l-.522-.031c-.27 0-.496.063-.68.191-.19.135-.339.322-.427.538v3.998h-1.019v-5.596h.91l.099.817c.158-.29.354-.516.587-.678.232-.162.5-.243.804-.243.131.001.262.02.388.057l-.14.947z" fill="#2A3052" fill-rule="nonzero"/></g></svg>