<svg width="299" height="197" xmlns="http://www.w3.org/2000/svg"><g fill="none"><path fill="#F1F2F2" d="M0 0h299v197H0z"/><path d="M2 2v193h295V2H2zM0 0h299v197H0V0z" fill="#C2C2C2"/><path d="M5 53.894v-1.207h290v1.207H5zM5 74.22v-1.207h290v1.207H5zm0 20.29v-1.207h290v1.207H5zm0 40.618v-1.207h290v1.207H5zm0 20.29v-1.207h290v1.207H5zm0 20.29v-1.207h290v1.207H5zM39.42 33h1.209v160H39.42V33zm36.709 0h1.208v160h-1.208V33zm36.67 0h1.209v160H112.8V33zm36.71 0h1.207v160h-1.208V33zm36.67 0h1.208v160h-1.208V33zm36.671 0h1.208v160h-1.208V33zm36.708 0h1.209v160h-1.209V33z" fill="#DFDEDE"/><path fill="#C2C2C2" d="M1 30v-2h297v2z"/><path d="M188.522 147.307h-35.42L147.649 139l-5.455 8.307h-35.42c-2.652 0-4.773 2.163-4.773 4.856v25.074c0 2.693 2.16 4.855 4.773 4.855h81.787c2.652 0 4.773-2.162 4.773-4.855v-25.074c0-2.693-2.16-4.856-4.811-4.856z" fill="#E88024"/><path d="M267.717 108.729h.987l.848-6.015h-1.01l-.825 6.015zm2.2-8.729l-.14 1.123h-1.03l.175-1.123h.996zm-7.33 7.373c.06.158.13.326.292.7-1.227 1.007-2.637.87-3.296.453-.992-.627-.992-1.793-.987-2.694.006-1.15.79-3.289 2.97-3.289 2.182 0 1.823 2.541 1.718 3.289-.223 0-1.426.023-3.609.07-.202 2.795 1.755 2.17 2.913 1.471zm-.131-2.248c.127-1.103-.187-1.655-.943-1.655-1.133 0-1.53 1.296-1.657 1.655h2.6zm-10.893-1.658c.046-.226 1.279-1.395 2.586-.596.821.501 1.058 1.932.76 3.328-.343 1.601-.962 2.401-1.947 2.588-1.44.274-1.95-.596-2.066-.883-.09.278-.19.552-.303.82h-.759l1.191-8.623h1.015c-.35 2.395-.508 3.517-.477 3.366zm-.482 3.587c.16.56.531.866 1.118.92.843.077 1.58-.79 1.744-1.986.163-1.186 0-2.37-.83-2.458-.76-.08-1.321.234-1.68.945l-.351 2.58-.001-.001zm-4.425-6.498c1.58 0 2.697 1.192 2.642 3.056-.132 1.022-.158 1.267-.306 2.197-.501 1.84-1.597 3.031-3.68 3.031-1.365 0-2.47-1.414-2.293-3.344.035-.38.215-1.465.304-1.884.41-1.943 1.754-3.056 3.333-3.056zm.002.897c-1.347-.098-2.133 1.307-2.287 1.98-.154.674-.216 1.174-.352 2.221-.084 1.046.22 2.386 1.7 2.306 1.482-.08 2.1-1.442 2.285-2.306.096-.7.143-.947.275-1.944.132-.997-.275-2.16-1.622-2.257h.001zm10.231 1.245h.969a431.5 431.5 0 0 0-.802 5.911c-.139 1.329-.552 2.901-2.563 2.405a7.32 7.32 0 0 0 .193-.838c.654.127 1.177.19 1.404-1.711.156-1.322.423-3.244.8-5.767zm.355-2.679l-.163 1.106h1.033l.139-1.106h-1.009zm13.407 2.685h1.007l.804 4.677 2.047-4.677h1.009l-2.895 5.995h-.71l-1.262-5.995zm8.156-.196c1.355.228 2.107 1.614 1.597 3.726-.509 2.112-2.234 2.751-3.53 2.354-1.296-.396-1.619-2.212-1.158-3.786.459-1.573 1.736-2.52 3.091-2.293v-.001zm-.165.863c-1.015-.26-1.68.767-1.927 1.507-.246.74-.448 2.703.63 2.938 1.08.236 1.79-.63 2.09-1.727.3-1.098.223-2.458-.793-2.718zm-13.089-2.115h.992l-.185 1.447h1.047l-.106.764h-1.06c-.275 2.016-.44 3.234-.496 3.653-.128.646.146.89.82.734.01.155.023.405.038.749-1.267.482-2.051-.13-1.868-1.483l.499-3.653h-.887l.105-.764h.884l.217-1.447z" fill="#6D6E71"/><path fill="#2A3052" d="M5.262 117.411v-1.485h288.35v1.485z"/><path d="M75.147 142.429a1.818 1.818 0 0 1-2.43.253l-33.463-24.547a1.818 1.818 0 1 1 2.15-2.932l32.134 23.572 33.52-37.454a1.818 1.818 0 0 1 2.69-.02l31.776 34.444 43.18-42.625a1.818 1.818 0 0 1 2.914.506l42.02 87.307 28.114-24.84a1.818 1.818 0 0 1 2.407 2.725l-29.915 26.43a1.818 1.818 0 0 1-2.841-.574l-41.957-87.179-42.706 42.158a1.818 1.818 0 0 1-2.613-.06l-31.694-34.357-33.286 37.193z" fill="#2A3052"/><ellipse fill="#FFF" opacity=".6" cx="40.33" cy="116.669" rx="8.067" ry="8.496"/><path d="M40.33 126.376c-5.14 0-9.28-4.36-9.28-9.707 0-5.348 4.14-9.708 9.28-9.708 5.139 0 9.279 4.36 9.279 9.708s-4.14 9.707-9.28 9.707zm0-2.423c3.771 0 6.855-3.248 6.855-7.284 0-4.037-3.084-7.284-6.855-7.284-3.772 0-6.856 3.247-6.856 7.284 0 4.036 3.084 7.284 6.856 7.284z" fill="#E88024"/><ellipse fill="#FFF" opacity=".6" cx="258.956" cy="156.855" rx="8.067" ry="8.496"/><path d="M258.956 166.563c-5.14 0-9.28-4.36-9.28-9.707 0-5.348 4.14-9.708 9.28-9.708 5.139 0 9.279 4.36 9.279 9.708s-4.14 9.707-9.28 9.707zm0-2.423c3.771 0 6.855-3.248 6.855-7.284 0-4.037-3.084-7.284-6.855-7.284-3.772 0-6.856 3.247-6.856 7.284 0 4.036 3.084 7.284 6.856 7.284z" fill="#E88024"/><path d="M21.973 17.803H18.12L17.388 20H15.05l3.97-10.664h2.036L25.05 20h-2.337l-.74-2.197zm-3.26-1.78h2.666l-1.34-3.992-1.326 3.992zm14.334.088c0 1.27-.271 2.26-.813 2.97-.542.71-1.299 1.065-2.27 1.065-.86 0-1.546-.33-2.059-.988L27.81 20h-1.904V8.75h2.116v4.036c.489-.572 1.13-.857 1.927-.857.967 0 1.725.355 2.274 1.065.55.71.824 1.71.824 3v.117zm-2.117-.154c0-.8-.127-1.385-.38-1.754-.255-.369-.633-.553-1.136-.553-.674 0-1.138.276-1.392.828v3.127c.26.557.728.835 1.407.835.683 0 1.133-.337 1.347-1.01.103-.323.154-.814.154-1.473zM38.943 20a2.35 2.35 0 0 1-.213-.71c-.512.57-1.179.856-1.999.856-.776 0-1.42-.224-1.93-.673a2.167 2.167 0 0 1-.765-1.7c0-.84.31-1.484.933-1.933.623-.45 1.523-.676 2.7-.681h.974v-.454c0-.367-.094-.66-.282-.88-.188-.219-.485-.329-.89-.329-.357 0-.636.086-.839.256-.203.171-.304.406-.304.704h-2.117c0-.46.142-.884.425-1.275.283-.39.684-.697 1.201-.919.518-.222 1.099-.333 1.744-.333.976 0 1.751.245 2.325.736.574.49.86 1.18.86 2.069v3.435c.005.752.11 1.32.316 1.706V20h-2.14zm-1.75-1.472c.312 0 .6-.07.864-.209.263-.14.459-.326.586-.56v-1.363h-.791c-1.06 0-1.624.367-1.692 1.1l-.008.124c0 .263.093.48.279.651.185.171.44.257.761.257zm7.44-6.453v8.357c0 .874-.231 1.554-.695 2.04-.464.486-1.133.729-2.007.729-.366 0-.715-.042-1.047-.125V21.4c.254.044.476.066.666.066.64 0 .96-.34.96-1.018v-8.372h2.124zm-2.292-2.05c0-.318.107-.58.319-.784.212-.205.502-.308.868-.308s.655.103.868.308c.212.205.318.466.318.783 0 .323-.108.586-.326.791-.217.206-.504.308-.86.308-.357 0-.643-.102-.86-.308a1.04 1.04 0 0 1-.327-.79zm3.618 5.94c0-.787.152-1.487.455-2.103a3.324 3.324 0 0 1 1.307-1.428c.569-.337 1.23-.505 1.981-.505 1.07 0 1.942.327 2.619.981.676.654 1.053 1.543 1.131 2.666l.015.542c0 1.216-.34 2.191-1.018 2.926-.679.735-1.59 1.102-2.732 1.102-1.143 0-2.055-.366-2.736-1.098-.681-.733-1.022-1.729-1.022-2.988v-.096zm2.117.153c0 .752.142 1.327.425 1.725.283.398.688.597 1.216.597.512 0 .913-.197 1.201-.59.288-.393.432-1.021.432-1.886 0-.737-.144-1.308-.432-1.714-.288-.405-.693-.607-1.216-.607-.517 0-.918.201-1.201.604-.283.403-.425 1.026-.425 1.871z" fill="#000"/><path d="M124.299 163.757h1.735l.199 8.516H124.1l.199-8.516zm1.984-2.565c0 .31-.1.568-.3.776-.198.208-.478.311-.837.311-.366 0-.648-.103-.847-.311a1.077 1.077 0 0 1-.299-.776c0-.304.1-.56.299-.768.199-.207.481-.311.847-.311.36 0 .639.104.838.311.2.208.299.464.299.768zm11.596 6.491c-.437.57-1.043 1.002-1.818 1.295-.775.293-1.655.44-2.64.44-1.012 0-1.909-.23-2.69-.689-.78-.46-1.381-1.116-1.804-1.971-.424-.855-.644-1.853-.66-2.993v-.946c0-1.826.437-3.253 1.311-4.28.874-1.026 2.095-1.539 3.66-1.539 1.346 0 2.414.332 3.205.996.791.664 1.267 1.622 1.428 2.872h-2.059c-.232-1.455-1.076-2.183-2.532-2.183-.94 0-1.656.339-2.145 1.017-.49.678-.743 1.673-.76 2.984v.93c0 1.306.275 2.32.826 3.042.55.722 1.316 1.083 2.295 1.083 1.074 0 1.837-.243 2.291-.73v-2.366h-2.49v-1.594h4.582v4.632zm7.479 1.569c-.089-.172-.166-.451-.233-.838a3.14 3.14 0 0 1-2.357 1.004c-.902 0-1.638-.257-2.208-.772-.57-.515-.855-1.151-.855-1.91 0-.957.356-1.691 1.067-2.203.71-.512 1.728-.768 3.05-.768h1.237v-.59c0-.464-.13-.836-.39-1.116-.26-.28-.656-.419-1.187-.419-.46 0-.836.115-1.129.345-.293.23-.44.521-.44.875h-2.017c0-.492.163-.953.49-1.382.326-.429.77-.765 1.332-1.008.562-.244 1.188-.366 1.88-.366 1.052 0 1.89.265 2.515.793.626.529.947 1.272.963 2.229v4.05c0 .809.114 1.453.34 1.935v.141h-2.058zm-2.216-1.453c.398 0 .773-.097 1.124-.29.352-.194.616-.454.793-.78v-1.694h-1.087c-.747 0-1.31.13-1.685.39-.377.26-.565.628-.565 1.104 0 .388.129.696.386.926.257.23.602.344 1.034.344zm7.919-7.528l.058 1.037c.664-.802 1.535-1.204 2.614-1.204 1.87 0 2.823 1.071 2.856 3.213v5.935h-2.017v-5.819c0-.57-.123-.992-.37-1.266-.246-.274-.648-.41-1.207-.41-.814 0-1.42.367-1.818 1.103v6.392h-2.017v-8.981h1.9zm11.538 9.147c-1.279 0-2.315-.403-3.109-1.208-.794-.805-1.191-1.877-1.191-3.216v-.25c0-.896.173-1.697.519-2.402a3.942 3.942 0 0 1 1.456-1.648 3.851 3.851 0 0 1 2.092-.59c1.223 0 2.168.39 2.835 1.17.667.781 1 1.885 1 3.313v.813h-5.868c.06.742.308 1.329.742 1.76.435.432.981.648 1.64.648.924 0 1.677-.374 2.258-1.121l1.087 1.038a3.64 3.64 0 0 1-1.44 1.249c-.6.296-1.274.444-2.021.444zm-.241-7.695c-.553 0-1 .194-1.34.581-.341.388-.558.927-.652 1.619h3.843v-.15c-.044-.675-.224-1.185-.54-1.531-.315-.346-.752-.519-1.311-.519zm7.545 3.968h-1.735l-.19-8.525h2.125l-.2 8.525zm-1.984 2.606c0-.315.103-.577.308-.784.204-.208.484-.311.838-.311s.634.103.838.31c.205.208.307.47.307.785 0 .305-.1.56-.298.764-.2.205-.482.307-.847.307s-.648-.102-.847-.307a1.055 1.055 0 0 1-.299-.764z" fill="#FFF"/><path d="M257.12 180.29h-4.476V185h-1.406v-10.664h6.606v1.157h-5.2v3.648h4.475v1.15zm3.669 4.71h-1.355v-7.925h1.355V185zm-1.465-10.027c0-.22.067-.405.201-.556.134-.152.333-.228.597-.228.264 0 .464.076.6.228a.8.8 0 0 1 .206.556.78.78 0 0 1-.205.55c-.137.146-.337.22-.6.22-.265 0-.464-.074-.598-.22a.782.782 0 0 1-.201-.55zm4.914 2.102l.044.996c.606-.761 1.397-1.142 2.373-1.142 1.675 0 2.52.945 2.534 2.834V185h-1.355v-5.244c-.004-.571-.135-.994-.391-1.267-.257-.274-.656-.41-1.198-.41-.44 0-.825.117-1.157.351-.332.235-.59.542-.776.923V185h-1.355v-7.925h1.281zM276.125 185c-.078-.156-.141-.435-.19-.835-.63.654-1.382.981-2.256.981-.781 0-1.422-.22-1.922-.662a2.148 2.148 0 0 1-.751-1.681c0-.825.314-1.466.941-1.923.627-.456 1.51-.685 2.648-.685h1.318v-.622c0-.474-.142-.851-.425-1.132-.283-.28-.7-.421-1.252-.421-.484 0-.889.122-1.216.366-.327.244-.49.54-.49.886h-1.363c0-.395.14-.777.421-1.146.28-.368.662-.66 1.143-.875a3.844 3.844 0 0 1 1.585-.322c.913 0 1.629.228 2.146.685.518.456.787 1.085.806 1.886v3.647c0 .728.093 1.306.278 1.736V185h-1.42zm-2.248-1.033c.425 0 .828-.11 1.208-.33.381-.219.657-.505.828-.856v-1.626h-1.062c-1.66 0-2.49.486-2.49 1.457 0 .425.141.757.425.996.283.24.647.36 1.091.36zm6.987 1.033h-1.355v-11.25h1.355V185zM22.747 145H21.34v-10.664h1.407V145zm3.64-7.925l.044.996c.605-.761 1.396-1.142 2.373-1.142 1.675 0 2.52.945 2.534 2.834V145h-1.355v-5.244c-.005-.571-.136-.994-.392-1.267-.256-.274-.655-.41-1.197-.41-.44 0-.826.117-1.158.351-.332.235-.59.542-.776.923V145h-1.355v-7.925h1.282zM34.854 145h-1.355v-7.925h1.355V145zm-1.465-10.027c0-.22.067-.405.201-.556.134-.152.333-.228.597-.228.264 0 .464.076.6.228a.8.8 0 0 1 .206.556.78.78 0 0 1-.205.55c-.137.146-.337.22-.601.22-.264 0-.463-.074-.597-.22a.782.782 0 0 1-.201-.55zm6.811 9.068a1.95 1.95 0 0 0 1.267-.44c.362-.293.562-.66.6-1.099h1.283a2.455 2.455 0 0 1-.47 1.297c-.287.41-.672.737-1.153.981-.48.244-.99.366-1.527.366-1.079 0-1.937-.36-2.574-1.08-.637-.72-.956-1.705-.956-2.955v-.227c0-.772.142-1.458.425-2.058.283-.6.69-1.067 1.22-1.4.529-.331 1.155-.497 1.878-.497.889 0 1.627.266 2.215.798.589.532.903 1.223.942 2.073h-1.282c-.04-.513-.233-.934-.582-1.264-.35-.33-.78-.494-1.293-.494-.689 0-1.222.248-1.6.743-.379.496-.568 1.213-.568 2.15v.256c0 .913.188 1.617.564 2.11.376.493.913.74 1.611.74zm6.145.959H44.99v-7.925h1.355V145zm-1.465-10.027c0-.22.068-.405.202-.556.134-.152.333-.228.597-.228.263 0 .464.076.6.228a.8.8 0 0 1 .205.556c0 .22-.068.403-.205.55-.136.146-.337.22-.6.22-.264 0-.463-.074-.597-.22a.782.782 0 0 1-.202-.55zm3.274 5.991c0-.776.153-1.474.458-2.094.305-.62.73-1.099 1.274-1.436.545-.337 1.166-.505 1.864-.505 1.08 0 1.952.373 2.619 1.12.666.747 1 1.741 1 2.981v.095c0 .772-.148 1.464-.443 2.077a3.365 3.365 0 0 1-1.268 1.432c-.549.342-1.18.512-1.893.512-1.074 0-1.944-.373-2.61-1.12-.667-.747-1-1.736-1-2.966v-.096zm1.363.161c0 .88.203 1.585.611 2.117s.954.799 1.637.799c.689 0 1.235-.27 1.64-.81.406-.54.609-1.295.609-2.267 0-.869-.207-1.573-.62-2.113-.412-.54-.96-.809-1.644-.809-.668 0-1.208.266-1.618.798-.41.533-.615 1.294-.615 2.285z" fill="#2A3052"/></g></svg>