<svg width="299" height="197" xmlns="http://www.w3.org/2000/svg"><g fill="none" fill-rule="evenodd"><path fill="#F1F2F2" d="M0 0h299v197H0z"/><path d="M1.987 1.98v193.04h295.026V1.98H1.987zM299 0v197H0V0h299z" fill="#C2C2C2" fill-rule="nonzero"/><path d="M4.887 55.446v-1.207h289.656v1.207H4.887zm0 40.534v-1.207h289.656v1.207H4.887zm0 40.534v-1.207h289.656v1.207H4.887zm0 40.496v-1.207h289.656v1.207H4.887zm34.38-142.416h1.206v159.67h-1.206V34.594zm36.664 0h1.207v159.67h-1.207V34.594zm36.628 0h1.207v159.67h-1.207V34.594zm36.665 0h1.207v159.67h-1.207V34.594zm36.627 0h1.207v159.67h-1.207V34.594zm36.628 0h1.207v159.67h-1.207V34.594zM4.887 116.228v-1.207h289.656v1.207H4.887z" fill="#DFDEDE" fill-rule="nonzero"/><path d="M259.144 35.594h1.207v159.67h-1.207V35.594zM4.887 76.731v-1.206h289.656v1.206H4.887zm0 81.03v-1.206h289.656v1.207H4.887z" fill="#2A3052" fill-rule="nonzero"/><path fill="#C2C2C2" fill-rule="nonzero" d="M2.794 35.606V33.19h293.842v2.415z"/><path d="M40.664 118.252a1.81 1.81 0 0 1-1.588-3.254l41.486-20.249a1.81 1.81 0 0 1 1.736.08l38.373 23.362 27.773-27.4a1.81 1.81 0 0 1 2.444-.09l35.648 30.304 35.474-26.087a1.81 1.81 0 0 1 1.546-.29l36.665 9.938a1.81 1.81 0 0 1-.947 3.495l-35.823-9.709-35.924 26.418a1.81 1.81 0 0 1-2.245-.079l-35.476-30.157-27.598 27.227a1.81 1.81 0 0 1-2.213.258L81.26 98.438l-40.597 19.814z" fill="#2A3052" fill-rule="nonzero"/><path d="M187.987 147.445h-34.945l-5.382-8.181-5.382 8.181h-34.946a4.733 4.733 0 0 0-4.71 4.782v24.694a4.753 4.753 0 0 0 4.71 4.782h80.692a4.733 4.733 0 0 0 4.71-4.782v-24.694a4.758 4.758 0 0 0-4.747-4.782z" fill="#E88024"/><ellipse cx="8.335" cy="8.564" rx="8.11" ry="8.443" opacity=".6" transform="translate(251.412 99.132)" fill="#FFF"/><path d="M259.747 117.346c-5.157 0-9.317-4.331-9.317-9.65 0-5.32 4.16-9.65 9.317-9.65s9.318 4.33 9.318 9.65c0 5.319-4.16 9.65-9.318 9.65zm0-2.414c3.802 0 6.903-3.23 6.903-7.236 0-4.007-3.101-7.236-6.903-7.236-3.801 0-6.903 3.229-6.903 7.236s3.102 7.236 6.903 7.236z" fill="#E88024" fill-rule="nonzero"/><ellipse cx="8.97" cy="9.021" rx="8.11" ry="8.443" opacity=".6" transform="translate(30.9 107.604)" fill="#FFF"/><path d="M39.87 126.275c-5.157 0-9.317-4.332-9.317-9.65 0-5.32 4.16-9.65 9.317-9.65s9.317 4.33 9.317 9.65c0 5.318-4.16 9.65-9.317 9.65zm0-2.414c3.802 0 6.903-3.23 6.903-7.236 0-4.007-3.101-7.236-6.903-7.236-3.802 0-6.903 3.229-6.903 7.236 0 4.006 3.101 7.236 6.903 7.236z" fill="#E88024" fill-rule="nonzero"/><g fill-rule="nonzero"><path d="M21.586 18.75h-4.307v4.662h-2.25V12.193h7.343v1.734h-5.093v3.09h4.307v1.733zm4.415 4.662h-2.25v-8.337h2.25v8.337zm0-10.333h-2.25v-1.687h2.25v1.687zm3.907 1.996l.1 1.194a3.05 3.05 0 0 1 1.025-.994 2.66 2.66 0 0 1 1.363-.354c.843 0 1.5.27 1.973.813.473.542.709 1.398.709 2.57v5.108H32.82v-5.1c0-.597-.104-1.02-.312-1.268-.208-.25-.52-.374-.936-.374a1.96 1.96 0 0 0-.882.189 1.713 1.713 0 0 0-.628.52v6.033h-2.25v-8.337h2.096zm11.766 8.337a4.732 4.732 0 0 1-.212-.6 4.18 4.18 0 0 1-.127-.648c-.226.4-.54.746-.917 1.01-.38.266-.833.4-1.357.4-.873 0-1.546-.225-2.018-.674-.473-.45-.71-1.062-.71-1.838 0-.817.315-1.45.945-1.9.629-.449 1.547-.674 2.754-.674h1.264v-.662c0-.4-.105-.712-.316-.933-.21-.22-.524-.33-.94-.33-.365 0-.646.088-.844.265-.197.177-.296.42-.296.728h-2.166l-.015-.046c-.036-.704.271-1.311.92-1.822.65-.512 1.5-.767 2.547-.767 1.002 0 1.812.252 2.431.755.62.503.929 1.225.929 2.165v3.444c0 .39.03.758.089 1.102.059.344.152.686.28 1.025h-2.241zm-2.058-1.502c.39 0 .74-.098 1.048-.293.308-.195.519-.421.632-.678v-1.18h-1.264c-.477 0-.838.119-1.082.355-.24.225-.372.541-.366.87 0 .283.09.508.273.675.183.167.436.25.76.25l-.001.001zm7.983 1.502h-2.25v-12.02h2.25v12.02zm4.215 0h-2.25v-8.337h2.25v8.337zm0-10.333h-2.25v-1.687h2.25v1.687zm4.36 8.607h4.13v1.726h-6.926v-1.325l3.968-5.27h-3.845v-1.742h6.673v1.287l-4 5.324zm10.465 1.726a4.732 4.732 0 0 1-.212-.6 4.18 4.18 0 0 1-.127-.648c-.226.4-.54.746-.917 1.01-.38.266-.833.4-1.357.4-.873 0-1.546-.225-2.018-.674-.473-.45-.71-1.062-.71-1.838 0-.817.315-1.45.945-1.9.629-.449 1.547-.674 2.754-.674h1.264v-.662c0-.4-.105-.712-.316-.933-.21-.22-.524-.33-.94-.33-.365 0-.646.088-.844.265-.197.177-.296.42-.296.728h-2.166l-.015-.046c-.036-.704.271-1.311.92-1.822.65-.512 1.5-.767 2.547-.767 1.002 0 1.812.252 2.431.755.62.503.929 1.225.929 2.165v3.444c0 .39.03.758.089 1.102.059.344.152.686.28 1.025h-2.241zm-2.058-1.502c.39 0 .74-.098 1.048-.293.308-.195.519-.421.632-.678v-1.18h-1.264c-.477 0-.838.119-1.082.355-.24.225-.372.541-.366.87 0 .283.09.508.273.675.183.167.436.25.76.25l-.001.001zm22.068 1.664c-1.243 0-2.214-.381-2.912-1.144-.7-.763-1.048-1.746-1.048-2.948v-.308c0-1.248.339-2.27 1.017-3.066.678-.797 1.61-1.192 2.797-1.187 1.12 0 1.979.343 2.577 1.029.599.685.898 1.609.898 2.77v1.163h-4.97l-.023.046c.036.57.21 1.033.52 1.387.31.355.772.532 1.383.532.503 0 .931-.051 1.283-.154.352-.103.715-.26 1.09-.47l.609 1.387c-.334.272-.786.5-1.356.686a6.014 6.014 0 0 1-1.865.277zm-.146-6.92c-.452 0-.8.156-1.044.467-.244.31-.392.723-.443 1.236l.015.039h2.743v-.17c0-.488-.1-.872-.3-1.151-.2-.28-.524-.42-.971-.42v-.001zm6.842-1.579l.1 1.194a3.05 3.05 0 0 1 1.025-.994 2.66 2.66 0 0 1 1.364-.354c.842 0 1.5.27 1.972.813.473.542.71 1.398.71 2.57v5.108h-2.258v-5.1c0-.597-.104-1.02-.313-1.268-.208-.25-.52-.374-.936-.374a1.96 1.96 0 0 0-.882.189 1.721 1.721 0 0 0-.628.52v6.033h-2.25v-8.337h2.096zm9.547-2.042v2.042h1.41v1.58h-1.41V20.9c0 .324.068.555.204.694a.72.72 0 0 0 .535.208 2.126 2.126 0 0 0 .609-.085l.185 1.626a3.928 3.928 0 0 1-1.356.231c-.776 0-1.373-.213-1.791-.64-.42-.426-.628-1.101-.628-2.026v-4.253h-1.218v-1.58h1.218v-2.042h2.242zm7.181 3.976l-.824-.023c-.334 0-.61.07-.825.208-.216.139-.38.334-.493.586v5.632h-2.242v-8.337h2.088l.1 1.233c.195-.437.448-.777.759-1.021.31-.244.67-.366 1.075-.366.113 0 .217.009.312.027.095.018.191.04.289.065l-.239 1.996zm.67 2.158c0-1.244.347-2.262 1.04-3.056.694-.793 1.655-1.19 2.882-1.19 1.233 0 2.199.395 2.898 1.187.698.79 1.047 1.81 1.047 3.059v.161c0 1.254-.348 2.275-1.044 3.063-.696.789-1.657 1.183-2.885 1.183-1.233 0-2.197-.394-2.894-1.183-.696-.788-1.044-1.81-1.044-3.063v-.161zm2.243.161c0 .76.133 1.37.4 1.83.267.46.699.69 1.295.69.58 0 1.005-.231 1.275-.694.27-.462.405-1.07.405-1.826v-.161c0-.74-.137-1.344-.409-1.811-.272-.468-.701-.701-1.287-.701-.58 0-1.005.235-1.275.705s-.404 1.072-.404 1.807v.161z" fill="#020202"/><path d="M73.608 23.587V12.923h3.72c1.304 0 2.378.416 3.223 1.248.845.833 1.267 1.9 1.267 3.205v1.765c0 1.308-.422 2.376-1.267 3.204-.845.828-1.919 1.242-3.223 1.242h-3.72zm2.138-9.017v7.376h1.582c.704 0 1.27-.262 1.7-.787.43-.525.644-1.198.644-2.018v-1.78c0-.815-.215-1.484-.644-2.007-.43-.522-.996-.784-1.7-.784h-1.582z" fill="#000"/></g><path d="M12.386 66.438h4.474l-.145.97h-5.714l1.373-9.173h1.241l-1.228 8.203h-.001zm6.843.97h-1.241l1.02-6.817h1.241l-1.02 6.817zm1.354-9.576h1.443l.013.038-1.928 1.638h-.888l-.013-.032 1.373-1.644zm2.672 3.622a2.75 2.75 0 0 1 .951-.734 2.91 2.91 0 0 1 1.241-.255c.433 0 .798.105 1.096.315.299.21.5.523.605.94.27-.392.598-.698.986-.92a2.57 2.57 0 0 1 1.301-.335c.668 0 1.173.24 1.516.722.342.48.444 1.196.305 2.145l-.611 4.076h-1.241l.61-4.089c.106-.697.065-1.179-.122-1.446-.187-.266-.513-.4-.98-.4-.407 0-.767.15-1.08.448a2.326 2.326 0 0 0-.652 1.137v.022l-.65 4.328h-1.247l.612-4.089c.1-.663.055-1.137-.136-1.42-.191-.284-.513-.426-.967-.426-.37 0-.69.083-.96.25a1.977 1.977 0 0 0-.672.69l-.75 4.995h-1.24l1.02-6.817h1.109l-.044.863zm10.534 5.954h-1.241l1.02-6.817h1.241l-1.02 6.817zm1.285-8.562h-1.241l.189-1.266h1.241l-.189 1.266zm3.616.1l-.245 1.645h1.291l-.138.92h-1.292l-.617 4.14c-.05.331-.02.56.091.683.111.124.278.186.5.186a1.69 1.69 0 0 0 .473-.088l.044.85a1.317 1.317 0 0 1-.437.186 2.174 2.174 0 0 1-.545.073c-.488 0-.862-.154-1.125-.46-.262-.307-.343-.784-.243-1.43l.618-4.14h-1.084l.139-.92h1.084l.245-1.644h1.241v-.001zm4.159 8.595c-.941 0-1.648-.318-2.12-.952-.473-.634-.634-1.453-.482-2.457l.044-.277c.147-1.017.547-1.836 1.2-2.457.653-.622 1.393-.933 2.22-.933.879 0 1.51.288 1.897.863.387.576.51 1.326.372 2.25l-.095.655h-4.41c-.096.722-.025 1.292.214 1.71.24.418.674.627 1.304.627.404 0 .779-.06 1.125-.182.347-.122.646-.286.898-.492l.365.807c-.314.256-.67.458-1.052.595-.424.162-.918.243-1.48.243zm.718-6.1c-.416 0-.793.169-1.131.505-.338.336-.58.76-.728 1.273l.013.037h3.068l.013-.1c.075-.509.016-.921-.177-1.238-.193-.318-.546-.476-1.058-.476v-.001zm10.691 4.134c.038-.282-.033-.506-.214-.674-.18-.168-.554-.317-1.121-.448-.782-.172-1.366-.413-1.755-.724-.388-.311-.545-.727-.47-1.248.08-.58.382-1.06.905-1.442.523-.383 1.164-.574 1.925-.574.739 0 1.327.212 1.764.637.436.424.607.911.51 1.461l-.013.038h-1.19a.937.937 0 0 0-.271-.806c-.223-.236-.534-.353-.933-.353-.42 0-.757.1-1.011.3-.254.199-.4.433-.438.702-.038.277.025.487.19.63.163.142.533.275 1.108.397.81.176 1.41.426 1.796.75.386.323.544.745.472 1.266-.088.625-.401 1.124-.939 1.496-.537.372-1.205.558-2.003.558-.832 0-1.475-.223-1.931-.668-.456-.446-.631-.958-.526-1.538l.012-.037h1.191c-.038.44.082.763.36.967.276.203.62.305 1.033.305.424 0 .777-.094 1.058-.283.281-.19.445-.427.491-.712zm6.905 1.833l.07-.976a2.779 2.779 0 0 1-.948.825c-.375.192-.792.29-1.213.284-.718 0-1.256-.241-1.613-.722-.357-.48-.46-1.217-.309-2.208l.599-4.02h1.24l-.604 4.032c-.113.752-.084 1.258.088 1.519.172.26.49.39.952.39.432 0 .808-.093 1.127-.28.32-.187.58-.45.782-.79l.724-4.87h1.241l-1.02 6.816h-1.116zm9.205-3.15c-.155 1.02-.51 1.823-1.061 2.407-.553.584-1.247.876-2.083.876-.407 0-.76-.075-1.058-.224a1.805 1.805 0 0 1-.725-.659l-.504 3.371h-1.24l1.41-9.438h.952l.063.882a2.82 2.82 0 0 1 .945-.75 2.72 2.72 0 0 1 1.197-.258c.81 0 1.407.34 1.79 1.018.381.678.493 1.56.333 2.643l-.019.132zm-1.222-.132c.122-.802.067-1.445-.164-1.928-.23-.483-.645-.725-1.241-.725-.344 0-.656.083-.936.25-.279.165-.522.39-.727.676l-.492 3.277c.118.281.29.5.517.658.227.158.523.236.888.236.563 0 1.035-.217 1.415-.652.38-.435.62-.988.721-1.66l.019-.132zm5.078 3.415c-.94 0-1.648-.318-2.12-.952-.473-.634-.633-1.453-.482-2.457l.044-.277c.147-1.017.547-1.836 1.2-2.457.653-.622 1.394-.933 2.221-.933.878 0 1.51.288 1.896.863.387.576.51 1.326.372 2.25l-.094.655h-4.41c-.097.722-.026 1.292.214 1.71.24.418.674.627 1.304.627.403 0 .778-.06 1.124-.182.347-.122.646-.286.898-.492l.366.807c-.314.256-.67.458-1.052.595-.425.162-.918.243-1.481.243zm.718-6.1c-.416 0-.793.169-1.13.505-.339.336-.581.76-.728 1.273l.012.037h3.068l.013-.1c.076-.509.017-.921-.176-1.238-.194-.318-.546-.476-1.059-.476v-.001zm7.315.247l-.63-.038c-.324 0-.61.08-.857.242-.248.162-.458.39-.63.684l-.725 4.832h-1.24l1.02-6.817h1.109l-.025.964c.243-.344.52-.612.831-.803a1.923 1.923 0 0 1 1.289-.265c.086.015.154.03.204.048l-.346 1.153zm1.776 5.72h-1.24l1.02-6.817h1.241l-1.02 6.817h-.001zm1.286-8.562h-1.241l.189-1.266h1.24l-.188 1.266zm.857 5.09c.155-1.045.55-1.885 1.187-2.52.636-.634 1.427-.95 2.372-.95.907 0 1.595.328 2.064.985.468.658.629 1.486.482 2.486l-.026.138c-.16 1.055-.556 1.896-1.19 2.524-.635.628-1.426.942-2.376.942-.907 0-1.595-.328-2.063-.983-.468-.656-.627-1.483-.476-2.483l.026-.138v-.001zm1.216.14c-.114.747-.053 1.35.182 1.808.235.457.655.686 1.26.686.567 0 1.045-.238 1.434-.715.388-.477.637-1.07.746-1.78l.025-.138c.11-.74.046-1.34-.192-1.802-.237-.462-.656-.693-1.257-.693-.57 0-1.05.24-1.44.721-.388.481-.632 1.072-.733 1.774l-.025.138v.001zm9.967-2.388l-.63-.038c-.324 0-.61.08-.857.242-.248.162-.458.39-.63.684l-.725 4.832h-1.241l1.02-6.817h1.11l-.026.964c.244-.344.521-.612.832-.803.385-.237.84-.33 1.288-.265.086.015.155.03.205.048l-.346 1.153zM12.466 171.692h4.727l-.153 1.025H11l1.452-9.695h1.312l-1.298 8.67zm7.23 1.025h-1.31l1.078-7.205h1.312l-1.08 7.205zm1.432-10.121h1.525l.014.04-2.038 1.731h-.939l-.013-.033 1.451-1.738zm2.824 3.829a2.903 2.903 0 0 1 1.005-.776c.386-.18.824-.27 1.312-.27.457 0 .843.111 1.158.333.316.222.529.553.64.992.27-.399.625-.731 1.042-.972.41-.235.869-.353 1.375-.353.706 0 1.24.254 1.601.763.362.508.47 1.264.323 2.267l-.646 4.308h-1.311l.645-4.321c.111-.737.068-1.247-.13-1.529-.197-.281-.542-.422-1.035-.422-.43 0-.811.157-1.142.472-.34.326-.58.744-.689 1.202v.024l-.686 4.574h-1.318l.646-4.321c.106-.702.058-1.202-.143-1.502-.202-.3-.543-.45-1.023-.45a1.9 1.9 0 0 0-1.015.264 2.108 2.108 0 0 0-.71.729l-.792 5.28h-1.311l1.078-7.205h1.172l-.046.913zm11.133 6.292h-1.312l1.079-7.205h1.312l-1.08 7.205h.001zm1.358-9.049h-1.311l.2-1.338h1.311l-.2 1.338zm3.822.107l-.26 1.737h1.366l-.147.973h-1.365l-.652 4.374c-.054.351-.021.592.096.723.118.13.294.196.53.196.17-.007.339-.038.5-.093l.046.899c-.111.08-.266.145-.463.196-.198.051-.39.077-.576.077-.515 0-.911-.162-1.189-.486-.277-.324-.363-.828-.256-1.512l.652-4.374h-1.145l.147-.973h1.145l.26-1.737h1.311zm4.395 9.082c-.994 0-1.741-.335-2.24-1.006-.5-.67-.67-1.536-.51-2.596l.047-.293c.155-1.075.578-1.94 1.268-2.597.69-.657 1.473-.986 2.347-.986.928 0 1.596.304 2.004.912.409.609.54 1.401.393 2.378l-.1.692h-4.66c-.103.764-.027 1.366.226 1.808.253.442.712.662 1.378.662a3.56 3.56 0 0 0 1.189-.193 3.12 3.12 0 0 0 .949-.519l.386.852a3.79 3.79 0 0 1-1.112.63c-.449.17-.97.256-1.565.256zm.76-6.446c-.44 0-.839.178-1.196.533-.357.355-.614.803-.77 1.345l.014.04h3.243l.013-.107c.08-.537.018-.973-.186-1.308-.204-.335-.577-.503-1.119-.503h.001zm8.222 6.306h-1.311l1.078-7.205h1.312l-1.079 7.205zm1.359-9.049h-1.312l.2-1.338h1.312l-.2 1.338zm2.85 2.876a3.13 3.13 0 0 1 1.028-.862c.393-.202.82-.303 1.282-.303.75 0 1.31.23 1.682.69.37.459.485 1.16.342 2.1l-.679 4.548h-1.31l.679-4.521c.097-.657.042-1.113-.167-1.369-.208-.255-.575-.382-1.098-.382-.391 0-.742.085-1.052.256-.311.17-.573.407-.786.71l-.8 5.306h-1.311l1.079-7.205h1.172l-.06 1.032h-.001zm6.106 6.173l.932-6.232h-1.125l.146-.973h1.125l.14-.912c.12-.799.409-1.4.866-1.804.457-.404 1.05-.606 1.778-.606.146 0 .297.013.452.04.156.026.32.06.493.1l-.306.998a2.948 2.948 0 0 0-.64-.066c-.368 0-.666.116-.895.35-.229.232-.374.562-.436.988l-.14.912h1.305l-.146.973h-1.305l-.933 6.232h-1.311zm6.745.14c-.995 0-1.741-.335-2.24-1.006-.5-.67-.67-1.536-.51-2.596l.046-.293c.156-1.075.579-1.94 1.269-2.597s1.473-.986 2.347-.986c.928 0 1.596.304 2.004.912.409.609.54 1.401.393 2.378l-.1.692h-4.66c-.103.764-.027 1.366.226 1.808.253.442.712.662 1.378.662a3.56 3.56 0 0 0 1.189-.193 3.12 3.12 0 0 0 .948-.519l.387.852a3.79 3.79 0 0 1-1.112.63c-.449.17-.97.256-1.565.256zm.759-6.446c-.44 0-.838.178-1.195.533-.358.355-.614.803-.77 1.345l.014.04h3.243l.013-.107c.08-.537.018-.973-.186-1.308-.205-.335-.577-.503-1.12-.503h.001zm7.73.26l-.665-.04a1.62 1.62 0 0 0-.906.256 2.122 2.122 0 0 0-.666.723l-.765 5.107h-1.313l1.078-7.205h1.172l-.026 1.02c.257-.365.55-.648.879-.85.407-.25.889-.35 1.361-.28.091.016.164.033.217.05l-.366 1.219zm1.878 6.046h-1.311l1.078-7.205h1.312l-1.079 7.205zm1.359-9.049h-1.312l.2-1.338h1.311l-.2 1.338h.001zm.905 5.38c.164-1.105.583-1.993 1.255-2.663.673-.67 1.509-1.006 2.507-1.006.96 0 1.686.348 2.181 1.042.495.695.665 1.57.51 2.627l-.027.147c-.169 1.114-.588 2.003-1.259 2.666-.67.664-1.507.996-2.51.996-.959 0-1.686-.346-2.18-1.039-.496-.692-.663-1.567-.503-2.623l.026-.147zm1.285.147c-.12.79-.055 1.427.193 1.91.249.485.693.726 1.332.726.6 0 1.104-.251 1.515-.755.41-.504.674-1.131.79-1.881l.026-.147c.115-.781.047-1.416-.203-1.904-.251-.489-.694-.733-1.329-.733-.604 0-1.11.254-1.521.763-.41.508-.67 1.133-.776 1.874l-.027.147zm10.534-2.524l-.666-.04a1.62 1.62 0 0 0-.905.256 2.122 2.122 0 0 0-.666.723l-.766 5.107h-1.311l1.078-7.205h1.172l-.027 1.02a3.01 3.01 0 0 1 .88-.85c.407-.25.889-.35 1.361-.28.091.016.163.033.217.05l-.367 1.219z" fill="#6D6E71" fill-rule="nonzero"/><path d="M275.531 124.013l.1 1.042a2.274 2.274 0 0 1 2.019-1.143c.74 0 1.311.202 1.715.672.404.438.606 1.11.606 2.018v4.373h-1.245v-4.339c0-.605-.134-1.043-.37-1.312-.235-.269-.605-.37-1.076-.37-.37 0-.673.101-.942.27a1.93 1.93 0 0 0-.673.706v5.045h-1.244v-6.929l1.11-.033zm10.394 6.397c-.034-.167-.034-.3-.034-.468-.243.337-.55.621-.905.837a2.18 2.18 0 0 1-1.206.335c-.703 0-1.24-.167-1.608-.57a2.044 2.044 0 0 1-.57-1.507c0-.67.269-1.172.805-1.541s1.24-.57 2.144-.57h1.34v-.67c0-.402-.134-.737-.368-.971-.235-.235-.604-.369-1.04-.369-.401 0-.736.1-.97.302-.235.2-.37.469-.37.737h-1.172v-.034c-.033-.502.201-.971.704-1.373.502-.402 1.139-.637 1.91-.637.77 0 1.407.201 1.876.603.469.402.703.972.703 1.709v3.317c0 .234 0 .469.034.703.033.235.067.47.134.67h-1.307v.067c-.033-.2-.067-.402-.1-.57zm-2.028-.401c.435 0 .87-.1 1.206-.335.368-.235.603-.503.703-.804v-1.106h-1.373c-.503 0-.905.134-1.206.369a1.121 1.121 0 0 0-.436.904c0 .302.1.536.268.737.201.134.47.235.838.235zm-14.021-8.265v.945h-4.53v3.208h3.86v.972h-3.86v4.106h-1.33v-9.23l5.86-.001zm1.33 2.369h1.23v6.772h-1.23v-6.772zm.016-3.075v1.22h1.254v-1.22h-1.254zm17.857-.046h1.246v9.85h-1.246v-9.85zm-260.445 15.3l.114 1.173a2.557 2.557 0 0 1 2.269-1.286c.832 0 1.475.227 1.929.756.454.492.68 1.248.68 2.27v4.916h-1.399v-4.879c0-.68-.151-1.172-.416-1.475-.265-.302-.68-.416-1.21-.416-.416 0-.756.114-1.059.303a2.188 2.188 0 0 0-.756.794v5.673h-1.4v-7.79l1.248-.039zm-4.893-2.709h1.334v10.538h-1.334v-10.538zm23.168 2.709h1.362v7.497h-1.362v-7.497zm.018-3.405v1.352h1.388v-1.352h-1.388zm-11.191 3.405h1.363v7.497h-1.363v-7.497zm.02-3.405v1.352h1.387v-1.352h-1.387zm8.158 6.082c.763-.028 1.15 0 1.31 0 0-.854-.561-2.82-3.134-2.743-2.574.077-3.26 2.889-3.147 4.467.114 1.578 1.147 3.51 3.44 3.442 2.294-.068 2.842-1.921 2.842-2.564a95.41 95.41 0 0 0-1.311 0c0 .63-.44 1.404-1.53 1.478-1.092.073-1.912-.776-2.017-2.356-.105-1.58.326-3.392 1.753-3.392 1.428 0 1.794 1.066 1.794 1.668zm9.546-2.745c1.33 0 3.294.59 3.491 3.62.198 3.032-1.689 4.277-3.372 4.277-1.684 0-3.422-1.176-3.422-4.108 0-2.932 1.972-3.789 3.303-3.789zm.107 1.099c-1.342 0-2.024 1.14-2.024 2.717 0 1.577.477 3.028 2.024 3.028 1.546 0 2.126-1.458 2.003-3.144-.122-1.686-.662-2.601-2.003-2.601z" fill="#2A3052" fill-rule="nonzero"/><path d="M173.816 165.594h-2.49v-8.243h2.49v8.243zm0 4.338h-2.49v-2.215h2.49v2.215zm-23.685-9.854h2.071l.104 1.508c.848-1.265 1.948-1.827 3.3-1.687.783.08 2.434.337 2.927 2.56.18.816.142 2.193.128 4.065-.005.727-.005 1.985 0 3.774h-2.272v-6.402c0-.753-.21-1.593-.841-1.911-.868-.438-2.502-.254-3.158.848v7.465h-2.259v-10.22zm-17.489 4.736v-1.693h5.123c.058 2.951.058 4.672 0 5.162-.432 1.292-5.548 3.641-8.851.662-.985-.888-1.448-1.872-1.7-3.362-.012-1.521-.04-2.948-.03-4.298.251-1.655.805-2.594 1.252-3.128 1.624-1.941 4.211-2.359 6.487-1.572 2.275.786 2.571 2.42 2.755 4.019-.527 0-.805-.023-2.228 0 .144-.9-.674-2.638-2.81-2.543-2.134.096-3.142 1.85-3.142 3.312 0 1.461-.077.97 0 3.875.097 3.335 4.094 4.23 5.952 2.448l.068-2.84-2.876-.042zm-10.065-.759h2.122v9.402h-2.122v-9.402zm.042-4.155v1.799h2.111V159.9h-2.111zm40.623 2.753c-.678-.005-1.388-.005-2.13 0 0-1.069.764-3.007 3.824-3.007 3.06 0 3.794 2.102 3.877 2.555.083.452-.213 6.798.427 7.52l-2.273.002c-.188-.643-.282-1.118-.282-1.425-.355.433-.964 1.224-1.902 1.515-.937.29-3.066.446-3.937-1.597-.575-1.346-.208-2.86.871-3.554 1.784-1.146 4.237-.763 4.968-.763.095-2.044-.516-2.52-1.902-2.52-.923 0-1.437.424-1.541 1.274zm3.442 2.644a36.882 36.882 0 0 0-2.244.018c-.892.079-1.687.739-1.62 1.679.081 1.12 1.355 1.326 2.353 1.003.837-.272 1.42-.972 1.511-1.27v-1.43zm-24.237-2.644a151.15 151.15 0 0 0-2.13 0c0-1.069.765-3.007 3.824-3.007 3.06 0 3.795 2.102 3.877 2.555.083.452-.213 6.798.428 7.52l-2.274.002c-.187-.643-.281-1.118-.281-1.425-.355.433-.965 1.224-1.902 1.515-.937.29-3.066.446-3.938-1.597-.574-1.346-.208-2.86.872-3.554 1.784-1.146 4.236-.763 4.968-.763.094-2.044-.516-2.52-1.902-2.52-.924 0-1.438.424-1.542 1.274zm3.443 2.644a36.882 36.882 0 0 0-2.245.018c-.892.079-1.687.739-1.619 1.679.081 1.12 1.355 1.326 2.353 1.003.836-.272 1.42-.972 1.511-1.27v-1.43z" fill="#FFF" fill-rule="nonzero"/></g></svg>