<svg width="299" height="197" xmlns="http://www.w3.org/2000/svg"><g fill="none" fill-rule="evenodd"><path fill="#F1F2F2" d="M0 0h299v197H0z"/><path d="M1.987 1.98v193.04h295.026V1.98H1.987zM299 0v197H0V0h299z" fill="#C2C2C2" fill-rule="nonzero"/><path d="M5 54.894v-1.207h290v1.207H5zM5 75.22v-1.207h290v1.207H5zm0 20.29v-1.207h290v1.207H5zm0 40.618v-1.207h290v1.207H5zm0 20.29v-1.207h290v1.207H5zm0 20.29v-1.207h290v1.207H5zM39.42 34h1.209v160H39.42V34zm36.709 0h1.208v160h-1.208V34zm36.67 0h1.209v160H112.8V34zm36.71 0h1.207v160h-1.208V34zm36.67 0h1.208v160h-1.208V34zm36.671 0h1.208v160h-1.208V34zm36.708 0h1.209v160h-1.209V34z" fill="#DFDEDE" fill-rule="nonzero"/><path fill="#2A3052" fill-rule="nonzero" d="M2.926 116.83v-1.223H296.51v1.223z"/><path fill="#C2C2C2" fill-rule="nonzero" d="M.805 33.951v-2.447H298.63v2.447z"/><path d="M112.362 90.138l-35.887 44.007a1.835 1.835 0 0 1-3.016-.251l-36.67-64.335a1.835 1.835 0 1 1 3.189-1.817l35.344 62.01 35.585-43.636a1.835 1.835 0 0 1 2.816-.033l42.946 50.233 32.975-41.794a1.835 1.835 0 0 1 2.978.135l41.804 64.136 26.594-3.238a1.835 1.835 0 0 1 .444 3.643l-27.73 3.376a1.835 1.835 0 0 1-1.759-.82l-41.032-62.953-32.776 41.542a1.835 1.835 0 0 1-2.836.056l-42.969-50.26z" fill="#2A3052" fill-rule="nonzero"/><path d="M188.509 147.514h-35.42l-5.454-8.308-5.455 8.308h-35.42c-2.652 0-4.773 2.162-4.773 4.855v25.074c0 2.693 2.16 4.855 4.773 4.855h81.787c2.652 0 4.773-2.162 4.773-4.855v-25.074c0-2.693-2.16-4.855-4.811-4.855z" fill="#E88024"/><ellipse cx="8.448" cy="8.621" rx="8.22" ry="8.573" opacity=".6" transform="translate(252.794 148.755)" fill="#FFF"/><path d="M261.242 167.173c-5.227 0-9.444-4.398-9.444-9.797 0-5.399 4.217-9.796 9.444-9.796 5.227 0 9.444 4.397 9.444 9.796 0 5.4-4.217 9.797-9.444 9.797zm0-2.447c3.853 0 6.997-3.28 6.997-7.35s-3.144-7.35-6.997-7.35c-3.853 0-6.997 3.28-6.997 7.35s3.144 7.35 6.997 7.35z" fill="#E88024" fill-rule="nonzero"/><ellipse cx="9.092" cy="9.142" rx="8.22" ry="8.573" opacity=".6" transform="translate(29.292 59.509)" fill="#FFF"/><path d="M38.383 78.447c-5.227 0-9.443-4.397-9.443-9.797 0-5.399 4.216-9.796 9.443-9.796 5.228 0 9.444 4.397 9.444 9.796 0 5.4-4.216 9.797-9.444 9.797zm0-2.447c3.853 0 6.997-3.28 6.997-7.35s-3.144-7.349-6.997-7.349c-3.852 0-6.996 3.28-6.996 7.35S34.53 76 38.383 76z" fill="#E88024" fill-rule="nonzero"/><path d="M261.281 178.874l.101 1.043a2.274 2.274 0 0 1 2.018-1.144c.74 0 1.312.202 1.716.673.403.437.605 1.11.605 2.018v4.373h-1.245v-4.34c0-.605-.134-1.042-.37-1.31-.235-.27-.605-.37-1.076-.37-.37 0-.672.1-.942.268a1.938 1.938 0 0 0-.672.707v5.045h-1.245v-6.929l1.11-.034zm10.394 6.398c-.034-.167-.034-.301-.034-.469-.242.337-.55.622-.904.838-.369.234-.77.335-1.206.335-.704 0-1.24-.168-1.608-.57a2.044 2.044 0 0 1-.57-1.507c0-.67.268-1.173.804-1.541.536-.369 1.24-.57 2.144-.57h1.34v-.67c0-.402-.134-.737-.368-.971-.235-.235-.603-.369-1.039-.369-.402 0-.737.1-.971.302-.235.2-.369.469-.369.737h-1.172v-.034c-.034-.502.2-.971.703-1.373.503-.402 1.14-.637 1.91-.637s1.407.201 1.876.603c.469.402.704.972.704 1.709v3.316c0 .235 0 .47.033.704.034.234.067.469.134.67h-1.307v.067a19.543 19.543 0 0 0-.1-.57zm-2.028-.402c.436 0 .871-.1 1.206-.335.369-.234.603-.502.704-.804v-1.105h-1.374c-.502 0-.904.134-1.206.368-.301.235-.435.57-.435.905 0 .301.1.536.268.737.2.134.469.234.837.234zm-14.02-8.264v.945h-4.53v3.207h3.859v.972h-3.859v4.107h-1.33v-9.23l5.86-.001zm1.329 2.369h1.23v6.772h-1.23v-6.772zm.017-3.075v1.22h1.253v-1.22h-1.253zm17.856-.046h1.246v9.849h-1.246v-9.849zM25.597 44.157l.114 1.172a2.557 2.557 0 0 1 2.269-1.286c.832 0 1.475.227 1.929.757.453.491.68 1.248.68 2.269v4.916H29.19v-4.878c0-.681-.151-1.173-.416-1.475-.265-.303-.68-.416-1.21-.416a1.94 1.94 0 0 0-1.06.302c-.302.19-.566.454-.756.794v5.673H24.35v-7.79l1.248-.038h-.001zm-4.893-2.71h1.334v10.538h-1.334V41.447zm23.167 2.709h1.362v7.497h-1.362v-7.497zm.019-3.405v1.352h1.387v-1.352H43.89zM32.7 44.156h1.362v7.497H32.7v-7.497zm.018-3.405v1.352h1.388v-1.352h-1.388zm8.158 6.082c.764-.028 1.15 0 1.312 0 0-.853-.562-2.82-3.136-2.742-2.573.077-3.26 2.888-3.146 4.466.114 1.578 1.146 3.51 3.44 3.442 2.294-.068 2.842-1.921 2.842-2.564-.412-.003-.85-.003-1.312 0 0 .631-.439 1.405-1.53 1.478-1.09.073-1.91-.775-2.016-2.356-.105-1.58.326-3.392 1.753-3.392 1.427 0 1.793 1.066 1.793 1.668zm9.546-2.744c1.33 0 3.295.589 3.492 3.62.198 3.032-1.689 4.276-3.373 4.276-1.683 0-3.42-1.175-3.42-4.108 0-2.932 1.97-3.788 3.301-3.788zm.107 1.098c-1.34 0-2.023 1.14-2.023 2.718 0 1.577.477 3.028 2.023 3.028 1.547 0 2.127-1.459 2.004-3.145-.123-1.685-.662-2.6-2.004-2.6v-.001z" fill="#2A3052" fill-rule="nonzero"/><path d="M268.795 131.024h1.065l.915-6.015h-1.09l-.89 6.015zm2.375-8.728l-.152 1.122h-1.112l.19-1.122h1.074zm-7.91 7.372c.066.158.14.326.315.7-1.323 1.007-2.844.87-3.556.453-1.07-.627-1.07-1.793-1.065-2.694.007-1.15.852-3.288 3.206-3.288 2.353 0 1.967 2.54 1.852 3.288-.24 0-1.538.023-3.893.07-.219 2.795 1.893 2.17 3.142 1.471h-.001zm-.14-2.247c.136-1.104-.203-1.656-1.018-1.656-1.223 0-1.651 1.296-1.788 1.656h2.806zm-11.753-1.659c.05-.226 1.38-1.394 2.79-.596.885.502 1.141 1.932.82 3.328-.37 1.601-1.039 2.401-2.101 2.589-1.554.274-2.105-.597-2.23-.884a9.26 9.26 0 0 1-.327.82h-.818l1.285-8.623h1.095c-.376 2.395-.548 3.517-.514 3.366zm-.52 3.588c.17.559.572.866 1.205.92.91.076 1.705-.79 1.882-1.986.176-1.186 0-2.37-.896-2.459-.82-.08-1.425.234-1.812.945l-.379 2.58zm-4.775-6.499c1.704 0 2.91 1.192 2.85 3.056-.142 1.022-.17 1.267-.33 2.197-.541 1.84-1.723 3.031-3.97 3.031-1.473 0-2.665-1.414-2.475-3.343.038-.382.233-1.465.328-1.885.443-1.943 1.893-3.056 3.597-3.056zm.002.897c-1.453-.097-2.302 1.308-2.468 1.98-.166.674-.233 1.175-.38 2.222-.09 1.045.237 2.385 1.836 2.305 1.598-.08 2.265-1.441 2.465-2.305.103-.7.153-.948.296-1.944.142-.997-.296-2.16-1.75-2.258h.001zm11.04 1.246h1.045a401.7 401.7 0 0 0-.866 5.91c-.15 1.329-.596 2.901-2.766 2.405a6.87 6.87 0 0 0 .21-.838c.704.127 1.269.19 1.513-1.711.169-1.322.457-3.244.864-5.766zm.382-2.68l-.176 1.106h1.114l.15-1.106h-1.088zm14.464 2.685h1.088l.867 4.677 2.209-4.677h1.088l-3.122 5.996h-.768l-1.362-5.996zm8.8-.195c1.463.227 2.274 1.614 1.724 3.725-.549 2.112-2.41 2.751-3.808 2.355-1.398-.397-1.747-2.213-1.25-3.786.495-1.573 1.873-2.521 3.335-2.294h-.001zm-.176.862c-1.096-.26-1.814.767-2.08 1.507-.266.74-.484 2.703.68 2.938 1.164.236 1.93-.63 2.255-1.727.324-1.097.24-2.458-.855-2.718zm-14.124-2.115h1.072l-.202 1.447h1.13l-.114.765h-1.143c-.297 2.016-.475 3.233-.535 3.652-.138.646.157.891.885.734.01.156.024.405.04.75-1.367.482-2.213-.131-2.015-1.484l.538-3.652h-.957l.114-.765h.953l.235-1.447h-.001z" opacity=".9" fill="#6D6E71" fill-rule="nonzero"/><path d="M174.25 166.628h-2.49v-8.244h2.49v8.244zm0 4.337h-2.49v-2.215h2.49v2.215zm-23.685-9.854h2.071l.104 1.508c.848-1.264 1.948-1.827 3.3-1.687.783.081 2.434.338 2.927 2.561.18.815.142 2.193.128 4.064-.005.727-.005 1.985 0 3.775h-2.272v-6.403c0-.752-.21-1.593-.841-1.91-.868-.438-2.502-.255-3.158.847v7.466h-2.259v-10.221zm-17.489 4.737v-1.694h5.123c.058 2.952.058 4.673 0 5.163-.432 1.292-5.548 3.64-8.851.661-.985-.888-1.448-1.872-1.7-3.361-.012-1.522-.04-2.949-.03-4.299.251-1.654.805-2.594 1.252-3.127 1.624-1.942 4.211-2.36 6.487-1.573 2.275.787 2.571 2.421 2.755 4.02-.527 0-.805-.023-2.228 0 .144-.9-.674-2.639-2.81-2.543-2.134.096-3.142 1.85-3.142 3.311 0 1.462-.077.971 0 3.875.097 3.335 4.094 4.23 5.952 2.448l.068-2.84-2.876-.041zm-10.065-.76h2.122v9.402h-2.122v-9.402zm.042-4.154v1.798h2.111v-1.798h-2.111zm40.623 2.752c-.678-.004-1.388-.004-2.13 0 0-1.068.764-3.006 3.824-3.006 3.06 0 3.794 2.102 3.877 2.554.083.452-.213 6.798.427 7.52l-2.273.002c-.188-.642-.282-1.117-.282-1.424-.355.433-.964 1.224-1.902 1.514-.937.29-3.066.447-3.937-1.596-.575-1.346-.208-2.86.871-3.555 1.784-1.146 4.237-.763 4.968-.763.095-2.044-.516-2.52-1.902-2.52-.923 0-1.437.425-1.541 1.274zm3.442 2.644a36.882 36.882 0 0 0-2.244.019c-.892.079-1.687.738-1.62 1.678.081 1.12 1.355 1.327 2.353 1.003.837-.271 1.42-.972 1.511-1.27v-1.43zm-24.237-2.644c-.677-.004-1.387-.004-2.13 0 0-1.068.765-3.006 3.824-3.006 3.06 0 3.795 2.102 3.877 2.554.083.452-.213 6.798.428 7.52l-2.274.002c-.187-.642-.281-1.117-.281-1.424-.355.433-.965 1.224-1.902 1.514-.937.29-3.066.447-3.938-1.596-.574-1.346-.208-2.86.872-3.555 1.784-1.146 4.236-.763 4.968-.763.094-2.044-.516-2.52-1.902-2.52-.924 0-1.438.425-1.542 1.274zm3.443 2.644a36.882 36.882 0 0 0-2.245.019c-.892.079-1.687.738-1.619 1.678.081 1.12 1.355 1.327 2.353 1.003.836-.271 1.42-.972 1.511-1.27v-1.43z" fill="#FFF" fill-rule="nonzero"/><g fill="#020202"><path d="M21.371 21.116h-2.177v-7.859h1.966c.071.524.12.896.146 1.116.537-.985 1.966-1.702 3.421-1.051.465.207 1.359.824 1.359 2.887v4.907l-2.118.01v-4.917c0-1.2-.495-1.534-1.282-1.467-.794.068-1.17.38-1.315.638-.046.21-.046 2.122 0 5.736zM32.441 9.68c-.073.49-.108.856-.198 1.59-.5-.074-1.23-.194-1.592.318-.203.29-.193.762-.193 1.601l1.539.029v1.525h-1.54v6.382h-2.161v-6.382H27.08V13.19h1.216c.026-1.089-.093-2.37 1.034-3.154 1.128-.784 2.522-.506 3.111-.356zm2.179 8.087c.175 1.923 1.499 2.357 3.971 1.302.227.514.42.965.577 1.354-4.99 2.279-6.682-1.025-6.721-2.656-.04-1.631.04-4.695 3.62-4.695 2.386 0 3.474 1.565 3.264 4.695H34.62zm2.646-1.433c-.006-.26.166-1.629-1.188-1.629-1.354 0-1.369 1.278-1.442 1.629h2.63zm15.859-3.324c.907-.05 2.055.265 2.697.917.71.72 1.218 1.617 1.218 3.097 0 1.31-.262 2.258-.882 3.023-.7.865-1.79 1.261-2.676 1.261-.918 0-1.914-.144-2.75-.917-.685-.633-1.319-1.718-1.256-3.232.07-1.673.608-2.627 1.256-3.232.654-.611 1.422-.864 2.393-.917zm.21 1.653c-.705 0-1.66.331-1.66 2.41 0 2.078.77 2.582 1.66 2.582.89 0 1.635-.828 1.571-2.681-.063-1.854-.865-2.311-1.57-2.311h-.001zm-12.828-1.379h1.957l.127 1.188c.52-1.13 1.283-1.555 2.291-1.275-.038.48-.104 1.102-.197 1.868-.728-.013-1.623-.214-2.094.74l.05 5.394h-2.134v-7.915zm17.687.109h1.957l.126 1.187c.52-1.13 1.284-1.554 2.292-1.275-.038.48-.104 1.103-.198 1.869-.728-.013-1.622-.214-2.094.74l.05 5.394h-2.133v-7.915zm-12.027.267h2.137v7.67h-2.137v-7.67zm.059-3.645v1.445h1.989v-1.445h-1.989z" fill-rule="nonzero"/><path d="M17.558 10.782V21.18h-1.904V10.782z"/></g></g></svg>