<svg width="299" height="197" xmlns="http://www.w3.org/2000/svg"><g fill="none" fill-rule="evenodd"><path fill="#F1F2F2" d="M0 0h299v197H0z"/><path d="M1.987 1.98v193.04h295.026V1.98H1.987zM299 0v197H0V0h299z" fill="#C2C2C2" fill-rule="nonzero"/><path d="M9.765 57.597V56.43h279.823v1.167H9.765zm0 39.175v-1.167h279.823v1.167H9.765zm0 39.175v-1.167h279.823v1.167H9.765zm0 39.14v-1.168h279.823v1.168H9.765zM42.977 37.444h1.168v154.318h-1.168V37.444zm35.42 0h1.168v154.318h-1.167V37.444zm35.385 0h1.168v154.318h-1.168V37.444z" fill="#DFDEDE" fill-rule="nonzero"/><path d="M149.203 37.444h1.167v5.873h-1.167v-5.873zm0 11.746h1.167v5.873h-1.167V49.19zm0 11.746h1.167v5.874h-1.167v-5.874zm0 11.747h1.167v5.873h-1.167v-5.873zm0 11.746h1.167v5.873h-1.167V84.43zm0 11.747h1.167v5.873h-1.167v-5.873zm0 11.746h1.167v5.873h-1.167v-5.873zm0 11.747h1.167v5.873h-1.167v-5.873zm0 11.746h1.167v5.873h-1.167v-5.873zm0 11.746h1.167v5.874h-1.167v-5.874zm0 11.747h1.167v5.873h-1.167v-5.873zm0 11.746h1.167v5.873h-1.167v-5.873zm0 11.747h1.167v5.873h-1.167V178.4zm0 11.746h1.167v1.615h-1.167v-1.615z" fill="#E98024" fill-rule="nonzero"/><path d="M184.584 37.444h1.168v154.318h-1.168V37.444zm35.385 0h1.168v154.318h-1.168V37.444zM9.765 116.342v-1.168h279.823v1.168H9.765z" fill="#DFDEDE" fill-rule="nonzero"/><path d="M255.39 37.444h1.167v154.318h-1.167V37.444zM9.765 77.202v-1.167h279.823v1.167H9.765z" fill="#2A3052" fill-rule="nonzero"/><path d="M9.765 155.517v-1.167h5.874v1.167H9.765zm11.747 0v-1.167h5.873v1.167h-5.873zm11.746 0v-1.167h5.873v1.167h-5.873zm11.747 0v-1.167h5.873v1.167h-5.873zm11.746 0v-1.167h5.873v1.167h-5.873zm11.746 0v-1.167h5.874v1.167h-5.874zm11.747 0v-1.167h5.873v1.167h-5.873zm11.746 0v-1.167h5.874v1.167H91.99zm11.747 0v-1.167h5.873v1.167h-5.873zm11.746 0v-1.167h5.873v1.167h-5.873zm11.747 0v-1.167h5.873v1.167h-5.873zm11.746 0v-1.167h5.873v1.167h-5.873zm11.746 0v-1.167h5.874v1.167h-5.874zm11.747 0v-1.167h5.873v1.167h-5.873zm11.746 0v-1.167h5.874v1.167h-5.874zm11.747 0v-1.167h5.873v1.167h-5.873zm11.746 0v-1.167h5.873v1.167h-5.873zm11.747 0v-1.167h5.873v1.167h-5.873zm11.746 0v-1.167h5.873v1.167h-5.873zm11.746 0v-1.167h5.874v1.167h-5.874zm11.747 0v-1.167h5.873v1.167h-5.873zm11.746 0v-1.167h5.874v1.167h-5.874zm11.747 0v-1.167h5.873v1.167h-5.873zm11.746 0v-1.167h5.873v1.167h-5.873z" fill="#E98024" fill-rule="nonzero"/><path fill="#C2C2C2" fill-rule="nonzero" d="M2 37.456V35.12h295v2.336z"/><path d="M83.557 118.022l-39.387 37a1.751 1.751 0 1 1-2.398-2.553l40.078-37.65a1.751 1.751 0 0 1 1.612-.425l36.942 8.976 27.153-48.706a1.751 1.751 0 0 1 2.656-.488l34.96 29.378 34.693-1.918c.351-.02.7.068 1.001.25l35.42 21.361a1.751 1.751 0 0 1-1.808 3l-34.959-21.084-34.846 1.926a1.751 1.751 0 0 1-1.223-.408l-33.868-28.46-26.768 48.018a1.751 1.751 0 0 1-1.943.85l-37.315-9.067z" fill="#2A3052" fill-rule="nonzero"/><circle cx="8.161" cy="8.188" r="7.836" opacity=".6" transform="translate(247.222 115.222)" fill="#FFF"/><path d="M255.383 132.39a8.98 8.98 0 1 1 0-17.961 8.98 8.98 0 0 1 0 17.962zm0-2.288a6.692 6.692 0 1 0 0-13.384 6.692 6.692 0 0 0 0 13.384z" fill="#E88024" fill-rule="nonzero"/><circle cx="8.526" cy="8.228" r="7.836" opacity=".6" transform="translate(34.444 145.667)" fill="#FFF"/><path d="M42.97 162.876a8.98 8.98 0 1 1 0-17.962 8.98 8.98 0 0 1 0 17.962zm0-2.289a6.692 6.692 0 1 0 0-13.384 6.692 6.692 0 0 0 0 13.384z" fill="#E88024" fill-rule="nonzero"/><circle cx="8.026" cy="8.644" r="7.836" opacity=".6" transform="translate(140.556 68)" fill="#FFF"/><path d="M148.581 85.624a8.98 8.98 0 1 1 0-17.961 8.98 8.98 0 0 1 0 17.961zm0-2.288a6.692 6.692 0 1 0 0-13.385 6.692 6.692 0 0 0 0 13.385z" fill="#E88024" fill-rule="nonzero"/><path d="M258.65 150.92h-37.126l-5.28-7.898-5.28 7.9h-37.142a4.622 4.622 0 0 0-4.622 4.623v23.875a4.622 4.622 0 0 0 4.622 4.623h84.829a4.622 4.622 0 0 0 4.622-4.623v-23.879a4.622 4.622 0 0 0-4.622-4.622z" fill="#E88024"/><path d="M19.893 15.54v4.049h-2.037V9.452h3.825a4.2 4.2 0 0 1 2.712.789 2.672 2.672 0 0 1 .981 2.222c.01.482-.134.954-.411 1.348a2.833 2.833 0 0 1-1.204.911 2.2 2.2 0 0 1 1.29.885 2.8 2.8 0 0 1 .395 1.53v.74c.002.3.04.599.112.89.053.265.192.506.396.685v.144h-2.096a1.144 1.144 0 0 1-.37-.74 6.252 6.252 0 0 1-.075-.997v-.722a1.604 1.604 0 0 0-.415-1.178 1.548 1.548 0 0 0-1.163-.418h-1.94v-.001zm0-1.57h1.755c.457.034.91-.097 1.278-.37.297-.274.452-.668.422-1.07a1.481 1.481 0 0 0-.422-1.111 1.715 1.715 0 0 0-1.245-.412h-1.788v2.963zm10.555 5.763a3.389 3.389 0 0 1-2.592-1.04 3.733 3.733 0 0 1-.978-2.656v-.278a4.1 4.1 0 0 1 .926-2.763 3.074 3.074 0 0 1 2.474-1.081 3.037 3.037 0 0 1 2.366.922c.591.689.894 1.579.845 2.485v1.111h-4.504v.041c.02.453.197.885.5 1.222a1.56 1.56 0 0 0 1.185.46c.375.008.75-.038 1.111-.137.34-.108.666-.252.975-.43l.551 1.26a3.84 3.84 0 0 1-1.207.625 5.185 5.185 0 0 1-1.652.26v-.001zm-.174-6.248a1.048 1.048 0 0 0-.889.43 2.222 2.222 0 0 0-.418 1.137l.022.033h2.492v-.181a1.644 1.644 0 0 0-.303-1.037 1.111 1.111 0 0 0-.904-.382zm8.467 4.03a.7.7 0 0 0-.322-.574 3.363 3.363 0 0 0-1.204-.437 4.844 4.844 0 0 1-2.015-.8c-.448-.347-.7-.89-.678-1.456a2.078 2.078 0 0 1 .819-1.648 3.333 3.333 0 0 1 2.189-.681 3.596 3.596 0 0 1 2.292.677 2 2 0 0 1 .822 1.708v.037h-1.966a.993.993 0 0 0-.285-.741 1.167 1.167 0 0 0-.849-.285 1.189 1.189 0 0 0-.777.24.77.77 0 0 0-.282.604.685.685 0 0 0 .296.57c.37.21.778.345 1.2.397a4.881 4.881 0 0 1 2.056.807c.448.358.699.909.674 1.482a1.978 1.978 0 0 1-.87 1.663 3.76 3.76 0 0 1-2.297.64 3.493 3.493 0 0 1-2.377-.759 2.133 2.133 0 0 1-.834-1.737v-.04h1.852c-.015.338.132.663.396.874.29.192.634.286.982.27a1.42 1.42 0 0 0 .86-.219.715.715 0 0 0 .318-.592zm6.618 2.218a3.396 3.396 0 0 1-2.592-1.04 3.744 3.744 0 0 1-.974-2.656v-.278a4.115 4.115 0 0 1 .922-2.763 3.433 3.433 0 0 1 4.844-.159c.588.69.889 1.58.841 2.485v1.111h-4.511v.041c.02.452.195.884.496 1.222.313.326.752.5 1.204.478.375.01.75-.037 1.111-.137.34-.109.668-.253.978-.43l.548 1.26a3.86 3.86 0 0 1-1.204.626 5.177 5.177 0 0 1-1.663.24zm-.185-6.248a1.052 1.052 0 0 0-.889.43 2.26 2.26 0 0 0-.404 1.137l.019.033h2.493v-.181a1.667 1.667 0 0 0-.3-1.037 1.111 1.111 0 0 0-.919-.382zm6.811-3.274v1.852h1.267v1.43h-1.267v3.826c-.02.225.045.45.182.63.13.137.314.213.503.207.092.006.183.006.274 0 .09-.015.18-.037.267-.063l.178 1.481a5.13 5.13 0 0 1-.6.156c-.21.035-.421.051-.633.048a2.16 2.16 0 0 1-1.619-.574 2.54 2.54 0 0 1-.57-1.852v-3.867h-1.111v-1.43h1.11v-1.851l2.02.007h-.001zm8.315 5.7v3.678h-2.033V9.452H62.3a3.996 3.996 0 0 1 2.748.889 2.989 2.989 0 0 1 1.004 2.348 2.963 2.963 0 0 1-1.004 2.34 4.011 4.011 0 0 1-2.748.882h-2zm0-1.567h2c.475.036.942-.132 1.285-.463a1.64 1.64 0 0 0 .44-1.177 1.711 1.711 0 0 0-.429-1.215 1.652 1.652 0 0 0-1.296-.47h-2v3.325zm11.689 4.16c-.211.375-.515.69-.882.915a2.63 2.63 0 0 1-3.096-.445 3.511 3.511 0 0 1-.67-2.37v-4.548h2.026v4.574a1.96 1.96 0 0 0 .277 1.181.98.98 0 0 0 .823.37c.285.008.57-.045.833-.155.227-.104.425-.263.574-.463v-5.507h2.033v7.533H72.17l-.181-1.085zm5.867-8.293v1.852h1.27v1.43h-1.27v3.826c-.02.225.044.45.181.63.13.127.307.195.489.188.091.007.183.007.274 0 .091-.015.182-.036.27-.063l.174 1.482a4.778 4.778 0 0 1-.6.155 3.35 3.35 0 0 1-.633.048 2.167 2.167 0 0 1-1.618-.574 2.54 2.54 0 0 1-.567-1.852v-3.848h-1.111v-1.43h1.11v-1.851l2.03.007h.001z" fill="#000" fill-rule="nonzero"/><path d="M66.854 55.73h-2.526l-1.523 7.622h-1.131l1.523-7.623h-2.52l.182-.908h6.176l-.181.908v.001zm.697 7.622H66.42l1.266-6.34h1.13l-1.265 6.34zm1.594-7.963h-1.131l.234-1.177h1.13l-.233 1.177zm2.642 8.086c-.797 0-1.4-.295-1.808-.887-.408-.592-.538-1.353-.39-2.283l.042-.257c.148-.938.518-1.698 1.11-2.28.592-.582 1.232-.873 1.92-.873.777 0 1.333.26 1.67.78.335.52.437 1.205.304 2.056l-.117.721h-3.82c-.087.648-.027 1.164.178 1.547s.556.574 1.052.574c.64.004 1.26-.218 1.752-.627l.322.75a2.9 2.9 0 0 1-.914.557c-.371.148-.805.222-1.3.222h-.001zm.733-5.671c-.329 0-.646.164-.953.492a2.857 2.857 0 0 0-.659 1.218l.018.036h2.607l.024-.153c.074-.472.029-.856-.135-1.151-.164-.295-.465-.442-.902-.442zm4.904-.036a2.56 2.56 0 0 1 .855-.647c.325-.15.682-.226 1.073-.226.355 0 .655.096.899.287.244.192.405.477.483.856.25-.36.547-.64.891-.84a2.21 2.21 0 0 1 1.137-.303c.558 0 .976.226 1.254.677.277.451.33 1.114.158 1.99l-.756 3.79h-1.137l.762-3.802c.129-.672.125-1.126-.012-1.363-.136-.236-.404-.354-.802-.354-.32 0-.624.141-.909.425-.294.294-.51.658-.627 1.057v.012l-.802 4.025h-1.137l.762-3.802c.125-.637.117-1.082-.024-1.336-.14-.254-.406-.381-.797-.381-.297 0-.562.075-.797.225-.234.15-.435.359-.603.624l-.938 4.67h-1.13l1.265-6.34H77.5l-.076.756zm13.213 2.772c-.196.976-.525 1.71-.988 2.2-.462.49-1.06.735-1.79.735-.34 0-.645-.064-.917-.193a1.717 1.717 0 0 1-.67-.562l-.616 3.07h-1.13l1.751-8.777h.973l-.041.626a2.46 2.46 0 0 1 .788-.553c.291-.127.605-.19.94-.19.684 0 1.19.337 1.521 1.013.33.676.397 1.512.202 2.508l-.023.123zm-1.108-.123c.149-.758.126-1.378-.067-1.86-.193-.483-.546-.724-1.058-.724-.26 0-.513.079-.726.228a2.32 2.32 0 0 0-.604.627l-.62 3.1c.1.246.253.438.456.577.203.139.463.208.78.208.464 0 .851-.183 1.16-.548.308-.365.527-.86.656-1.485l.023-.123zm2.274-.293c.156-.977.514-1.759 1.075-2.347.56-.588 1.253-.882 2.077-.882.79 0 1.38.306 1.773.917.392.612.514 1.382.366 2.312l-.018.129c-.16.98-.52 1.762-1.08 2.346-.561.584-1.254.876-2.078.876-.79 0-1.38-.304-1.772-.914-.393-.609-.513-1.379-.36-2.308l.017-.13v.001zm1.113.129c-.113.699-.08 1.26.103 1.684.181.424.528.636 1.04.636.476 0 .882-.222 1.218-.665.336-.443.557-.995.662-1.655l.018-.13c.11-.687.072-1.245-.111-1.675-.184-.43-.528-.644-1.032-.644-.48 0-.887.222-1.221.668-.334.445-.554.996-.66 1.652l-.017.129zm8.168-.07c.215-1.09.56-1.91 1.034-2.461.475-.551 1.085-.827 1.831-.827.324 0 .618.068.882.202.264.135.48.326.648.572l.69-3.457h1.132l-1.828 9.14h-.973l.041-.609a2.276 2.276 0 0 1-1.693.732c-.68 0-1.193-.304-1.538-.914-.346-.609-.43-1.361-.25-2.256l.024-.123v.001zm1.113.122c-.136.672-.111 1.212.076 1.62.188.409.54.613 1.055.613.277 0 .526-.077.747-.232a2.32 2.32 0 0 0 .607-.659l.597-2.994a1.343 1.343 0 0 0-.46-.598c-.205-.148-.46-.222-.764-.222-.47 0-.857.212-1.163.636-.307.423-.53.995-.671 1.713l-.024.123zm7.471 3.17c-.797 0-1.4-.295-1.808-.887-.408-.592-.538-1.353-.39-2.283l.042-.257c.148-.938.518-1.698 1.11-2.28.592-.582 1.232-.873 1.919-.873.777 0 1.334.26 1.67.78.336.52.437 1.205.305 2.056l-.118.721h-3.82c-.086.648-.026 1.164.179 1.547s.555.574 1.052.574c.64.004 1.26-.218 1.752-.627l.322.75a2.9 2.9 0 0 1-.914.557c-.371.148-.805.222-1.301.222zm.732-5.671c-.328 0-.645.164-.952.492a2.857 2.857 0 0 0-.659 1.218l.018.036h2.607l.023-.153c.075-.472.03-.856-.134-1.151-.164-.295-.465-.442-.903-.442zm7.623 1.851l-.738 3.697h-1.137l1.706-8.525h2.9c.812 0 1.419.21 1.82.633.4.422.524 1.02.371 1.793-.097.472-.284.867-.56 1.183-.275.317-.639.567-1.092.75.383.16.643.412.78.756.136.344.157.756.064 1.237l-.158.802c-.06.282-.08.523-.065.724.016.201.076.37.182.507l-.03.14H120.9c-.117-.132-.17-.326-.158-.58a5.07 5.07 0 0 1 .106-.802l.158-.78c.098-.488.055-.866-.129-1.134-.184-.267-.48-.4-.89-.4h-1.964v-.001zm.182-.908h1.652c.547 0 .986-.128 1.316-.384.33-.256.546-.63.647-1.122.102-.508.055-.887-.14-1.137-.196-.25-.565-.375-1.108-.375h-1.763l-.604 3.018zm7.746 4.728c-.797 0-1.4-.295-1.807-.887-.409-.592-.539-1.353-.39-2.283l.04-.257c.15-.938.52-1.698 1.111-2.28.592-.582 1.232-.873 1.92-.873.777 0 1.333.26 1.67.78.335.52.437 1.205.304 2.056l-.117.721h-3.82c-.087.648-.027 1.164.178 1.547s.556.574 1.052.574c.64.004 1.26-.218 1.752-.627l.322.75a2.9 2.9 0 0 1-.914.557c-.371.148-.805.222-1.3.222h-.001zm.733-5.671c-.329 0-.646.164-.953.492a2.857 2.857 0 0 0-.659 1.218l.018.036h2.607l.024-.153c.074-.472.029-.856-.135-1.151-.164-.295-.465-.442-.902-.442zm6.474 3.867c.043-.262-.01-.473-.158-.633-.148-.16-.457-.3-.926-.422-.691-.168-1.198-.396-1.52-.686-.323-.289-.443-.68-.36-1.171.085-.536.36-.98.826-1.333.464-.354 1.029-.53 1.693-.53.664 0 1.176.19 1.535.574.36.382.488.841.387 1.377l-.018.035h-1.084a.92.92 0 0 0-.187-.753c-.172-.217-.43-.325-.774-.325-.351 0-.636.09-.855.272-.206.16-.344.39-.387.647-.043.262.003.461.138.598.135.137.44.264.917.381.722.172 1.242.405 1.558.7.317.295.436.69.358 1.187a2.02 2.02 0 0 1-.856 1.38c-.476.337-1.062.506-1.757.506-.727 0-1.282-.207-1.665-.62-.382-.415-.52-.891-.41-1.43l.012-.036h1.084c-.05.41.037.71.264.9.226.19.511.284.855.284.356 0 .655-.084.9-.252a.956.956 0 0 0 .43-.65zm4.694 1.804c-.797 0-1.4-.295-1.808-.887-.408-.592-.538-1.353-.39-2.283l.041-.257c.149-.938.519-1.698 1.11-2.28.592-.582 1.232-.873 1.92-.873.777 0 1.334.26 1.67.78.335.52.437 1.205.304 2.056l-.117.721h-3.82c-.086.648-.027 1.164.178 1.547.206.383.556.574 1.052.574.64.004 1.26-.218 1.752-.627l.322.75a2.9 2.9 0 0 1-.914.557c-.37.148-.804.222-1.3.222zm.732-5.671c-.328 0-.646.164-.952.492a2.857 2.857 0 0 0-.66 1.218l.018.036h2.608l.023-.153c.074-.472.03-.856-.135-1.151-.164-.295-.465-.442-.902-.442zm5.777-2.32l-.31 1.529h1.095l-.17.855h-1.095l-.768 3.85c-.066.316-.056.53.03.641.086.112.224.167.416.167.09 0 .198-.009.325-.026.127-.018.227-.036.302-.056l-.006.791c-.114.07-.275.128-.484.173-.203.044-.41.067-.618.067-.41 0-.725-.144-.946-.433-.22-.29-.27-.73-.15-1.324l.768-3.85h-.926l.17-.855h.926l.31-1.53h1.131v.001z" fill="#6D6E70" fill-rule="nonzero"/><path d="M23.042 179.652h-1.45v-10.664h1.45v10.664zm3.735-7.925l.102 1.18c.264-.42.595-.747.993-.979.398-.231.85-.347 1.359-.347.854 0 1.516.25 1.984.75.47.5.704 1.273.704 2.318v5.003h-1.443v-4.973c0-.699-.138-1.194-.414-1.487-.276-.293-.697-.44-1.264-.44-.415 0-.782.1-1.102.3-.32.2-.575.474-.765.821v5.779h-1.443v-7.925h1.289zm8.796 7.925H34.13v-7.925h1.443v7.925zm0-9.954H34.13v-1.472h1.443v1.472zm5.442 8.98c.479 0 .9-.148 1.264-.443.363-.296.545-.658.545-1.088h1.297l.014.044c.025.684-.28 1.29-.912 1.82-.615.524-1.4.806-2.208.795-1.152 0-2.033-.376-2.644-1.128-.61-.752-.915-1.697-.915-2.835v-.307c0-1.128.306-2.07.919-2.824s1.493-1.131 2.64-1.131c.928 0 1.686.273 2.274.82.589.547.873 1.218.854 2.014l-.015.044h-1.304c0-.483-.17-.895-.512-1.234-.342-.34-.774-.51-1.297-.51-.757 0-1.297.273-1.622.817-.325.545-.487 1.213-.487 2.004v.307c0 .81.161 1.486.483 2.025.323.54.865.81 1.626.81zm6.3.974H45.87v-7.925h1.443v7.925h.002zm0-9.954H45.87v-1.472h1.443v1.472h.002zm1.881 5.918c0-1.172.318-2.137.953-2.897.634-.759 1.496-1.138 2.585-1.138 1.099 0 1.967.378 2.604 1.135s.956 1.723.956 2.9v.161c0 1.182-.318 2.149-.953 2.9-.634.753-1.499 1.129-2.592 1.129-1.094 0-1.96-.378-2.597-1.132-.637-.754-.956-1.72-.956-2.897v-.161zm1.443.161c0 .84.177 1.534.531 2.08.354.547.88.82 1.579.82.688 0 1.21-.273 1.567-.82.356-.546.535-1.24.535-2.08v-.16c0-.83-.18-1.522-.539-2.074-.359-.551-.885-.827-1.578-.827-.689 0-1.21.276-1.564.827-.354.552-.53 1.243-.53 2.073v.161h-.001zM269.18 139.74h-4.864v4.717h-1.443v-10.664h7.053v1.135h-5.61v3.677h4.863v1.135h.001zm3.72 4.717h-1.443v-7.925h1.443v7.925zm0-9.954h-1.443v-1.472h1.443v1.472zm3.508 2.029l.103 1.18c.264-.42.594-.747.992-.979a2.658 2.658 0 0 1 1.359-.347c.854 0 1.516.25 1.985.75.469.5.703 1.273.703 2.318v5.003h-1.443v-4.973c0-.699-.138-1.194-.414-1.487-.276-.293-.697-.44-1.263-.44-.415 0-.783.1-1.102.3-.32.2-.575.474-.766.821v5.779h-1.443v-7.925h1.29-.001zm12.107 7.925a11.63 11.63 0 0 1-.113-.634 4.65 4.65 0 0 1-.048-.553c-.268.381-.619.7-1.05.956a2.688 2.688 0 0 1-1.396.385c-.825 0-1.454-.212-1.886-.634-.432-.422-.648-1.005-.648-1.747 0-.757.306-1.349.919-1.776.613-.427 1.444-.64 2.494-.64h1.567v-.784c0-.464-.141-.832-.425-1.103-.283-.27-.683-.406-1.2-.406-.465 0-.842.118-1.132.355-.29.237-.436.521-.436.853h-1.377l-.015-.044c-.03-.576.243-1.103.817-1.582.574-.478 1.315-.717 2.223-.717.898 0 1.62.228 2.168.684.547.457.82 1.115.82 1.974v3.816c0 .283.015.557.044.82.03.264.083.523.161.777h-1.487zm-2.395-1.055c.523 0 .994-.134 1.414-.403.42-.268.693-.576.82-.923v-1.289h-1.618c-.582 0-1.047.147-1.396.44-.349.293-.523.637-.523 1.033 0 .351.11.63.33.835.219.205.544.307.973.307zm7.332 1.055h-1.443V133.03h1.443v11.427z" fill="#2A3052" fill-rule="nonzero"/><path d="M192.684 177.02h-2.852v-9.306h2.852v9.307-.001zm0-11.708h-2.852v-2.51h2.852v2.51zm13.671 6.113c-.423.56-1.082 1.058-1.977 1.494-.895.436-2.026.655-3.394.655-1.738 0-3.157-.54-4.257-1.621-1.1-1.081-1.65-2.484-1.65-4.21v-2.968c0-1.719.528-3.12 1.586-4.204 1.058-1.084 2.42-1.626 4.087-1.626 1.732 0 3.058.421 3.98 1.264.92.843 1.391 1.952 1.41 3.326l-.019.058h-2.685c-.053-.755-.293-1.352-.723-1.792-.43-.44-1.058-.659-1.885-.659-.872 0-1.575.337-2.11 1.01-.533.675-.8 1.542-.8 2.603v2.989c0 1.08.277 1.958.83 2.631.553.674 1.299 1.011 2.236 1.011.664 0 1.198-.068 1.602-.205.404-.137.71-.306.918-.508v-2.637h-2.52v-1.972h5.371v5.361zm8.418 1.944a5.998 5.998 0 0 1-.268-.762 5.299 5.299 0 0 1-.161-.82 3.93 3.93 0 0 1-1.157 1.279c-.479.338-1.05.508-1.714.508-1.107 0-1.96-.285-2.559-.855-.599-.57-.898-1.346-.898-2.329 0-1.035.398-1.838 1.196-2.407.797-.57 1.961-.855 3.491-.855h1.592v-.84c0-.507-.134-.901-.4-1.181-.267-.28-.661-.42-1.182-.42-.462 0-.819.112-1.07.337-.25.224-.375.535-.375.932l-2.754-.01-.01-.058c-.046-.892.342-1.662 1.162-2.31.82-.647 1.898-.971 3.232-.971 1.263 0 2.289.32 3.077.962.787.641 1.181 1.554 1.181 2.739v4.365c0 .495.038.96.113 1.397.074.436.193.869.356 1.299h-2.852zm-2.607-1.905c.501 0 .947-.123 1.338-.37.39-.248.654-.535.79-.86v-1.494h-1.59c-.606 0-1.065.151-1.378.454a1.473 1.473 0 0 0-.469 1.098c0 .352.118.635.352.85.234.215.553.322.957.322zm9.756-8.662l.127 1.514c.351-.54.784-.96 1.299-1.26.514-.3 1.09-.45 1.728-.45 1.068 0 1.901.336 2.5 1.007.6.67.899 1.722.899 3.154v6.602h-2.862v-6.592c0-.71-.143-1.213-.43-1.51-.286-.295-.719-.443-1.298-.443a2.2 2.2 0 0 0-1.016.23c-.3.152-.55.369-.752.649v7.666h-2.851v-10.567h2.656zm14.883 10.567a5.998 5.998 0 0 1-.269-.762 5.299 5.299 0 0 1-.161-.82 3.93 3.93 0 0 1-1.157 1.279c-.479.338-1.05.508-1.714.508-1.107 0-1.96-.285-2.559-.855-.599-.57-.898-1.346-.898-2.329 0-1.035.399-1.838 1.196-2.407.798-.57 1.961-.855 3.491-.855h1.592v-.84c0-.507-.133-.901-.4-1.181s-.661-.42-1.182-.42c-.462 0-.819.112-1.07.337-.25.224-.375.535-.375.932l-2.754-.01-.01-.058c-.045-.892.342-1.662 1.162-2.31.82-.647 1.898-.971 3.233-.971 1.263 0 2.288.32 3.076.962.788.641 1.182 1.554 1.182 2.739v4.365c0 .495.037.96.112 1.397.075.436.194.869.356 1.299h-2.851zm-2.608-1.905c.502 0 .948-.123 1.338-.37.39-.248.654-.535.791-.86v-1.494h-1.592c-.605 0-1.064.151-1.377.454a1.473 1.473 0 0 0-.468 1.098c0 .352.117.635.351.85.235.215.554.322.957.322zm10.215-2.998h-2.851v-9.316h2.851v9.316zm0 4.903h-2.851v-2.5h2.851v2.5z" fill="#FFF" fill-rule="nonzero"/><path d="M264.58 87.521c-.189.935-.564 1.664-1.125 2.188-.562.524-1.246.786-2.053.786-.73 0-1.31-.3-1.744-.898-.433-.6-.564-1.322-.395-2.168l.254-1.27c.185-.93.55-1.66 1.091-2.187.542-.528 1.204-.791 1.985-.791.755 0 1.359.3 1.811.903.453.602.596 1.325.43 2.168l-.254 1.27v-.001zm-.688-1.279c.136-.683.067-1.233-.208-1.648-.275-.415-.69-.622-1.247-.622-.47 0-.883.202-1.243.605-.36.404-.603.928-.73 1.572l-.259 1.28c-.14.69-.081 1.242.176 1.657.257.415.65.623 1.177.623.501 0 .94-.201 1.316-.603.376-.402.63-.93.764-1.585l.254-1.279zm6.01 1.807c-.162.81-.437 1.42-.825 1.83-.387.411-.885.616-1.494.616-.277 0-.53-.078-.762-.234a1.657 1.657 0 0 1-.551-.64l-.25.772h-.815l1.524-7.618h.942l-.561 2.813c.36-.373.858-.582 1.377-.576.57 0 .992.281 1.267.844.275.564.33 1.26.168 2.09l-.02.103zm-.922-.103c.127-.638.116-1.156-.032-1.555-.148-.399-.435-.598-.862-.598-.234 0-.452.075-.652.225-.2.15-.378.35-.534.6l-.464 2.334c.078.231.205.416.38.554.176.139.403.208.68.208.383 0 .698-.147.942-.442.244-.295.418-.702.522-1.223l.02-.103zm3.715-2.837l-1.142 5.718c-.117.58-.331 1.008-.642 1.284-.311.277-.706.415-1.184.415a1.35 1.35 0 0 1-.489-.088l.215-.756c.117.036.239.056.361.059.18 0 .34-.073.484-.218.143-.145.247-.377.313-.696l1.142-5.718h.942zm.254-1.372h-.947l.19-.962h.948l-.19.962h-.001zm2.217 6.758c-.664 0-1.166-.246-1.506-.74-.34-.493-.449-1.127-.325-1.901l.034-.215c.124-.782.432-1.415.926-1.9.493-.485 1.026-.727 1.599-.727.648 0 1.111.216 1.391.65.28.432.365 1.003.254 1.713l-.097.6h-3.184c-.072.541-.022.97.149 1.29.17.319.463.478.876.478a2.262 2.262 0 0 0 1.46-.522l.269.625c-.199.185-.453.34-.762.464-.31.123-.67.185-1.084.185zm.61-4.726c-.273 0-.537.136-.793.41a2.38 2.38 0 0 0-.55 1.015l.015.03h2.173l.02-.127c.062-.394.024-.714-.113-.96-.136-.246-.387-.368-.751-.368h-.001zm4.815-1.934l-.259 1.274h.913l-.141.713h-.913l-.64 3.208c-.055.264-.047.442.024.535.072.093.188.14.347.14.075 0 .165-.008.271-.023.106-.015.19-.03.251-.046l-.004.659c-.125.07-.262.119-.403.144-.17.037-.342.056-.515.056-.342 0-.605-.12-.789-.361-.184-.241-.225-.609-.124-1.104l.64-3.208h-.772l.141-.713h.772l.259-1.274h.942zm1.792 6.558h-.942l1.054-5.284h.943l-1.055 5.284zm1.328-6.636h-.942l.195-.982h.942l-.195.982zm2.075 5.078l.015.312.03.005.121-.317 1.7-3.726h.961l-2.646 5.284h-.708l-.981-5.284h.966l.542 3.726zm2.984-1.133c.13-.814.429-1.466.896-1.955a2.296 2.296 0 0 1 1.73-.735c.658 0 1.15.254 1.478.764.327.51.429 1.151.305 1.926l-.015.108c-.133.817-.434 1.468-.9 1.955a2.304 2.304 0 0 1-1.732.73c-.657 0-1.15-.254-1.477-.762-.327-.507-.427-1.149-.3-1.923l.015-.108zm.927.108c-.094.582-.065 1.05.086 1.403.151.354.44.53.867.53.397 0 .735-.185 1.015-.554.28-.37.464-.83.552-1.38l.015-.107c.09-.573.06-1.038-.093-1.396-.153-.358-.44-.537-.86-.537-.4 0-.74.185-1.018.556-.278.371-.461.83-.549 1.377l-.015.108z" fill="#6D6E70" fill-rule="nonzero"/></g></svg>