<svg width="299" height="197" xmlns="http://www.w3.org/2000/svg"><g fill="none" fill-rule="evenodd"><path fill="#F1F2F2" d="M0 0h299v197H0z"/><path d="M1.987 1.98v193.04h295.026V1.98H1.987zM299 0v197H0V0h299z" fill="#C2C2C2" fill-rule="nonzero"/><path d="M4.887 56.446v-1.207h289.656v1.207H4.887zm0 40.534v-1.207h289.656v1.207H4.887zm0 40.534v-1.207h289.656v1.207H4.887zm0 40.496v-1.207h289.656v1.207H4.887zm34.38-142.416h1.206v159.67h-1.206V35.594zm36.664 0h1.207v159.67h-1.207V35.594zm36.628 0h1.207v159.67h-1.207V35.594zm36.665 0h1.207v159.67h-1.207V35.594zm36.627 0h1.207v159.67h-1.207V35.594zm36.628 0h1.207v159.67h-1.207V35.594zM4.887 117.228v-1.207h289.656v1.207H4.887z" fill="#DFDEDE" fill-rule="nonzero"/><path d="M259.144 35.594h1.207v159.67h-1.207V35.594zM4.887 76.731v-1.206h289.656v1.206H4.887zm0 81.03v-1.206h289.656v1.207H4.887z" fill="#2A3052" fill-rule="nonzero"/><path fill="#C2C2C2" fill-rule="nonzero" d="M2.794 35.606V33.19h293.842v2.415z"/><path d="M40.664 118.252a1.81 1.81 0 0 1-1.588-3.254l41.486-20.249a1.81 1.81 0 0 1 1.736.08l38.373 23.362 27.773-27.4a1.81 1.81 0 0 1 2.444-.09l35.648 30.304 35.474-26.087a1.81 1.81 0 0 1 1.546-.29l36.665 9.938a1.81 1.81 0 0 1-.947 3.495l-35.823-9.709-35.924 26.418a1.81 1.81 0 0 1-2.245-.079l-35.476-30.157-27.598 27.227a1.81 1.81 0 0 1-2.213.258L81.26 98.438l-40.597 19.814z" fill="#2A3052" fill-rule="nonzero"/><path d="M187.987 147.445h-34.945l-5.382-8.181-5.382 8.181h-34.946a4.733 4.733 0 0 0-4.71 4.782v24.694a4.753 4.753 0 0 0 4.71 4.782h80.692a4.733 4.733 0 0 0 4.71-4.782v-24.694a4.758 4.758 0 0 0-4.747-4.782z" fill="#E88024"/><ellipse cx="8.335" cy="8.564" rx="8.11" ry="8.443" opacity=".6" transform="translate(251.412 99.132)" fill="#FFF"/><path d="M259.747 117.346c-5.157 0-9.317-4.331-9.317-9.65 0-5.32 4.16-9.65 9.317-9.65s9.318 4.33 9.318 9.65c0 5.319-4.16 9.65-9.318 9.65zm0-2.414c3.802 0 6.903-3.23 6.903-7.236 0-4.007-3.101-7.236-6.903-7.236-3.801 0-6.903 3.229-6.903 7.236s3.102 7.236 6.903 7.236z" fill="#E88024" fill-rule="nonzero"/><ellipse cx="8.97" cy="9.021" rx="8.11" ry="8.443" opacity=".6" transform="translate(30.9 107.604)" fill="#FFF"/><path d="M39.87 126.275c-5.157 0-9.317-4.332-9.317-9.65 0-5.32 4.16-9.65 9.317-9.65s9.317 4.33 9.317 9.65c0 5.318-4.16 9.65-9.317 9.65zm0-2.414c3.802 0 6.903-3.23 6.903-7.236 0-4.007-3.101-7.236-6.903-7.236-3.802 0-6.903 3.229-6.903 7.236 0 4.006 3.101 7.236 6.903 7.236z" fill="#E88024" fill-rule="nonzero"/><path d="M18.132 17.771v3.853H16V11h4.064c1.221 0 2.182.312 2.882.934.7.623 1.05 1.442 1.05 2.46 0 1.016-.35 1.833-1.05 2.45-.7.618-1.661.927-2.882.927h-1.933.001zm0-1.641h1.933c.594 0 1.043-.162 1.35-.486.306-.323.46-.735.46-1.236 0-.511-.152-.933-.456-1.266-.304-.333-.756-.5-1.354-.5h-1.933v3.488zm10.557 5.647c-1.177 0-2.096-.361-2.758-1.083-.661-.723-.992-1.653-.992-2.791v-.292c0-1.182.321-2.15.963-2.904.642-.754 1.525-1.129 2.649-1.124 1.06 0 1.874.325 2.44.974.567.65.85 1.524.85 2.623v1.102h-4.706l-.022.044c.035.54.199.978.493 1.313.294.336.73.504 1.31.504.476 0 .881-.049 1.215-.146.36-.109.706-.258 1.032-.445l.576 1.313c-.316.258-.744.474-1.284.65a5.695 5.695 0 0 1-1.766.262zm-.138-6.552c-.428 0-.758.147-.989.441-.23.295-.37.685-.42 1.171l.015.037h2.598v-.16c0-.463-.095-.826-.285-1.091-.19-.266-.496-.398-.92-.398h.001zm8.683.336l-.781-.022c-.316 0-.577.065-.78.197-.205.131-.36.316-.468.554v5.334h-2.123v-7.895h1.977l.095 1.168c.185-.414.425-.736.719-.967.29-.23.649-.352 1.018-.347.107 0 .205.009.295.026s.181.037.274.062l-.226 1.89zm3.086-1.832l.088 1.044c.252-.38.57-.673.952-.88.382-.206.823-.31 1.324-.31.506 0 .939.112 1.299.336.36.224.632.562.817 1.014.243-.423.56-.754.949-.992.389-.239.846-.358 1.371-.358.779 0 1.393.276 1.843.828.45.552.675 1.395.675 2.529v4.684h-2.131v-4.692c0-.632-.097-1.072-.292-1.32-.194-.248-.484-.373-.868-.373-.302 0-.563.067-.785.201a1.48 1.48 0 0 0-.529.558c0 .093.003.172.008.237.005.066.007.133.007.201v5.188h-2.123v-4.692c0-.618-.097-1.054-.292-1.31-.195-.255-.486-.383-.876-.383-.287 0-.538.055-.755.165-.216.11-.395.264-.536.463v5.757h-2.123v-7.895h1.977zm15.607 7.895a4.481 4.481 0 0 1-.2-.57 3.959 3.959 0 0 1-.121-.612 2.92 2.92 0 0 1-.868.956c-.36.253-.788.38-1.284.38-.827 0-1.465-.214-1.912-.64-.448-.425-.671-1.005-.671-1.74 0-.773.298-1.372.893-1.798.596-.426 1.466-.639 2.609-.639h1.197v-.627c0-.38-.1-.674-.3-.883-.2-.21-.496-.314-.89-.314-.345 0-.611.084-.799.252-.187.168-.28.398-.28.69H51.25l-.015-.044c-.034-.667.257-1.242.872-1.726.616-.484 1.42-.726 2.412-.726.948 0 1.716.239 2.302.715.586.477.88 1.16.88 2.05v3.262c0 .37.027.718.083 1.043.056.326.145.65.266.97h-2.123v.001zm-1.948-1.423c.37 0 .7-.092.992-.277.292-.185.491-.4.599-.642v-1.118h-1.197c-.452 0-.794.112-1.025.336a1.103 1.103 0 0 0-.347.824c0 .268.087.48.26.639.172.158.411.237.718.237v.001zm7.267-6.472l.095 1.131a2.89 2.89 0 0 1 .97-.941 2.52 2.52 0 0 1 1.292-.336c.798 0 1.42.257 1.868.77.447.513.671 1.324.671 2.433v4.838h-2.138v-4.83c0-.565-.098-.965-.295-1.2-.197-.237-.493-.355-.887-.355-.316 0-.595.06-.835.18a1.63 1.63 0 0 0-.595.492v5.713h-2.13v-7.895h1.984zm9.909 8.048c-1.178 0-2.097-.361-2.758-1.083-.662-.723-.993-1.653-.993-2.791v-.292c0-1.182.321-2.15.963-2.904.643-.754 1.525-1.129 2.649-1.124 1.06 0 1.874.325 2.44.974.567.65.85 1.524.85 2.623v1.102h-4.705l-.022.044c.034.54.198.978.492 1.313.294.336.731.504 1.31.504.477 0 .881-.049 1.215-.146.36-.109.706-.258 1.032-.445l.577 1.313c-.317.258-.745.474-1.285.65-.57.18-1.167.268-1.765.262zm-.139-6.552c-.428 0-.758.147-.989.441-.23.295-.37.685-.42 1.171l.015.037h2.598v-.16c0-.463-.095-.826-.285-1.091-.19-.266-.496-.398-.919-.398zm7.83 4.918c.369 0 .663-.111.882-.332.219-.222.328-.517.328-.887h1.941l.015.044c.02.798-.278 1.465-.89 2.003-.613.537-1.372.806-2.277.806-1.167 0-2.07-.373-2.707-1.12-.637-.747-.956-1.701-.956-2.864v-.219c0-1.157.318-2.112.952-2.864.635-.751 1.534-1.127 2.696-1.127.964 0 1.74.277 2.328.832.589.555.873 1.284.854 2.189l-.015.044h-1.94c0-.409-.109-.748-.325-1.018-.217-.27-.517-.405-.902-.405-.55 0-.94.22-1.17.66-.232.44-.347 1.003-.347 1.69v.218c0 .7.115 1.267.346 1.7.231.433.627.65 1.186.65h.001zm7.828 1.634c-1.177 0-2.096-.361-2.758-1.083-.661-.723-.992-1.653-.992-2.791v-.292c0-1.182.32-2.15.963-2.904.642-.754 1.525-1.129 2.649-1.124 1.06 0 1.873.325 2.44.974.567.65.85 1.524.85 2.623v1.102H85.12l-.022.044c.034.54.198.978.493 1.313.294.336.73.504 1.31.504.476 0 .881-.049 1.214-.146.36-.109.707-.258 1.033-.445l.576 1.313c-.316.258-.744.474-1.284.65a5.695 5.695 0 0 1-1.766.262zm-.138-6.552c-.429 0-.758.147-.99.441-.23.295-.37.685-.419 1.171l.015.037h2.597v-.16c0-.463-.094-.826-.284-1.091-.19-.266-.496-.398-.92-.398h.001zm20.108 6.552c-1.177 0-2.096-.361-2.758-1.083-.661-.723-.992-1.653-.992-2.791v-.292c0-1.182.321-2.15.963-2.904.642-.754 1.525-1.129 2.649-1.124 1.06 0 1.874.325 2.44.974.567.65.85 1.524.85 2.623v1.102h-4.706l-.022.044c.034.54.199.978.493 1.313.294.336.73.504 1.31.504.476 0 .881-.049 1.215-.146.36-.109.706-.258 1.032-.445l.576 1.313c-.316.258-.744.474-1.284.65a5.695 5.695 0 0 1-1.766.262zm-.138-6.552c-.428 0-.758.147-.989.441-.23.295-.37.685-.42 1.171l.015.037h2.598v-.16c0-.463-.095-.826-.285-1.091-.19-.266-.496-.398-.92-.398h.001zm6.48-1.496l.094 1.131a2.89 2.89 0 0 1 .97-.941 2.52 2.52 0 0 1 1.292-.336c.798 0 1.42.257 1.868.77.447.513.671 1.324.671 2.433v4.838h-2.138v-4.83c0-.565-.098-.965-.295-1.2-.197-.237-.493-.355-.887-.355-.316 0-.595.06-.835.18a1.63 1.63 0 0 0-.595.492v5.713h-2.13v-7.895h1.985zm9.04-1.933v1.933h1.335v1.496h-1.336v4.02c0 .307.065.526.194.657a.679.679 0 0 0 .507.197c.112 0 .209-.006.292-.018.082-.012.177-.033.284-.062l.175 1.54a3.72 3.72 0 0 1-1.284.219c-.734 0-1.3-.203-1.696-.607-.397-.403-.595-1.043-.595-1.918v-4.029h-1.153v-1.496h1.153v-1.933h2.123l.001.001zm6.8 3.765l-.781-.022c-.316 0-.577.065-.78.197-.205.131-.36.316-.468.554v5.334h-2.123v-7.895h1.977l.095 1.168c.185-.414.425-.736.719-.967.29-.23.649-.352 1.018-.347.107 0 .205.009.295.026s.181.037.274.062l-.226 1.89zm.634 2.043c0-1.178.329-2.142.985-2.894.657-.751 1.567-1.127 2.73-1.127 1.167 0 2.081.375 2.743 1.124.661.749.992 1.715.992 2.897v.153c0 1.187-.33 2.153-.989 2.9-.659.747-1.57 1.12-2.732 1.12-1.168 0-2.08-.373-2.74-1.12-.66-.747-.989-1.713-.989-2.9v-.153zm2.124.153c0 .72.126 1.297.379 1.733.253.435.662.653 1.226.653.55 0 .952-.22 1.207-.657.256-.438.383-1.014.383-1.73v-.152c0-.7-.128-1.272-.386-1.715-.258-.443-.664-.664-1.219-.664-.55 0-.952.222-1.207.668-.256.445-.383 1.015-.383 1.71v.154z" fill="#020202" fill-rule="nonzero"/><path d="M20.615 69.928h4.019l-.13.872H19.37l1.234-8.241h1.115l-1.104 7.369zm6.147.872h-1.115l.917-6.124h1.115l-.917 6.124zm1.217-8.603h1.296l.012.033-1.732 1.472h-.798l-.012-.028 1.234-1.477zm2.4 3.254c.241-.287.526-.507.855-.66.328-.152.7-.229 1.115-.229.388 0 .716.095.984.283.268.19.45.47.544.844.241-.351.537-.627.886-.827.349-.2.738-.3 1.168-.3.6 0 1.054.216 1.362.648.307.433.399 1.075.274 1.928l-.549 3.662h-1.115l.549-3.674c.094-.626.058-1.059-.11-1.299s-.462-.359-.88-.359c-.366 0-.69.134-.971.402a2.09 2.09 0 0 0-.586 1.021v.02l-.583 3.889h-1.12l.548-3.674c.091-.596.05-1.021-.121-1.276-.172-.255-.462-.382-.87-.382-.331 0-.619.075-.862.224a1.792 1.792 0 0 0-.603.62L29.62 70.8h-1.115l.917-6.124h.997l-.04.775zm9.463 5.349h-1.115l.917-6.124h1.115l-.917 6.124zm1.155-7.692h-1.115l.17-1.138h1.115l-.17 1.138zm3.249.09l-.22 1.478h1.16l-.125.826H43.9l-.555 3.719c-.045.298-.018.502.082.614.1.111.25.167.45.167a1.5 1.5 0 0 0 .424-.08l.04.764c-.12.079-.253.136-.393.167-.16.043-.325.065-.49.066-.438 0-.774-.138-1.01-.414-.236-.275-.309-.703-.218-1.284l.555-3.719h-.974l.125-.826h.973l.22-1.478h1.117zm3.735 7.72c-.845 0-1.48-.284-1.904-.854-.425-.57-.569-1.306-.433-2.208l.04-.249c.131-.913.49-1.648 1.078-2.207.586-.558 1.251-.838 1.995-.838.788 0 1.356.259 1.703.776.348.517.459 1.19.334 2.02l-.085.59h-3.961c-.087.648-.023 1.16.192 1.536.215.375.606.563 1.172.563.362 0 .699-.055 1.01-.164.311-.11.58-.257.806-.442l.329.725c-.25.211-.564.39-.946.535-.38.145-.824.218-1.33.218v-.001zm.646-5.478c-.374 0-.713.15-1.016.452a2.58 2.58 0 0 0-.654 1.144l.011.034h2.757l.011-.09c.068-.457.015-.828-.159-1.113-.173-.285-.49-.427-.95-.427zm9.605 3.713c.034-.253-.03-.455-.193-.606-.162-.15-.498-.285-1.007-.402-.702-.155-1.228-.372-1.577-.65-.349-.28-.49-.654-.421-1.121.071-.521.342-.953.812-1.297.47-.343 1.046-.515 1.729-.515.664 0 1.192.19 1.585.572.392.381.545.819.458 1.313l-.011.034h-1.07a.842.842 0 0 0-.243-.724c-.2-.212-.48-.317-.838-.317-.377 0-.68.09-.908.269-.229.179-.36.39-.394.63-.034.25.023.438.17.567.147.128.48.247.996.356.729.159 1.266.383 1.613.674.348.29.489.67.425 1.137-.08.563-.36 1.01-.843 1.345-.483.334-1.083.5-1.8.5-.747 0-1.326-.2-1.735-.6-.41-.4-.567-.86-.473-1.38l.012-.034h1.07c-.035.396.073.685.322.868.249.183.558.275.928.275.381 0 .698-.085.951-.255.253-.17.4-.383.442-.64v.001zm6.203 1.647l.062-.878c-.224.31-.515.563-.852.742-.326.17-.69.255-1.09.255-.644 0-1.127-.216-1.448-.649-.32-.432-.413-1.093-.278-1.983l.538-3.611h1.115l-.543 3.622c-.102.675-.076 1.13.08 1.364.154.234.439.35.854.35a1.97 1.97 0 0 0 1.013-.25c.287-.169.52-.406.702-.711l.65-4.375h1.116l-.917 6.124h-1.002zm8.27-2.83c-.14.917-.458 1.637-.955 2.162-.496.524-1.12.787-1.87.787-.366 0-.683-.067-.951-.201a1.621 1.621 0 0 1-.651-.592l-.453 3.028H66.71l1.268-8.478h.855l.056.792a2.55 2.55 0 0 1 .85-.674c.32-.154.678-.232 1.075-.232.728 0 1.264.305 1.607.914.343.61.443 1.401.3 2.375l-.017.119h.001zm-1.099-.12c.11-.72.06-1.297-.147-1.731-.208-.434-.58-.651-1.115-.651-.31 0-.59.075-.84.224-.252.149-.47.351-.654.608l-.442 2.943c.106.253.26.45.464.592.204.141.47.212.798.212.506 0 .93-.195 1.271-.586.341-.39.558-.888.648-1.491l.017-.12zm4.562 3.069c-.845 0-1.48-.285-1.905-.855-.424-.57-.568-1.306-.433-2.208l.04-.249c.132-.913.492-1.648 1.078-2.207.587-.558 1.252-.838 1.995-.838.789 0 1.357.259 1.704.776s.458 1.19.334 2.02l-.085.59h-3.962c-.087.648-.023 1.16.193 1.536.215.375.605.563 1.171.563.362 0 .7-.055 1.01-.164.312-.11.58-.257.807-.442l.328.725c-.249.211-.564.39-.945.535-.381.145-.824.218-1.33.218zm.645-5.48c-.373 0-.712.152-1.016.453a2.58 2.58 0 0 0-.653 1.144l.01.034h2.757l.012-.09c.067-.457.015-.828-.159-1.113-.173-.285-.49-.427-.95-.427l-.001-.001zm6.571.221l-.566-.034c-.29 0-.547.073-.77.218-.222.146-.41.35-.565.614l-.651 4.342h-1.115l.917-6.124h.996l-.023.866c.22-.31.468-.55.747-.722a1.727 1.727 0 0 1 1.158-.238c.077.013.138.028.184.043l-.312 1.035zm1.597 5.14h-1.115l.916-6.124h1.115l-.916 6.124zm1.154-7.692H85.02l.17-1.138h1.115l-.17 1.138zm.77 4.573c.14-.94.495-1.694 1.067-2.264.571-.57 1.282-.855 2.13-.855.816 0 1.434.296 1.854.886.421.59.565 1.335.433 2.233l-.022.125c-.144.947-.5 1.702-1.07 2.266-.57.564-1.281.847-2.134.847-.815 0-1.433-.295-1.853-.883-.421-.59-.564-1.332-.428-2.23l.023-.125zm1.092.125c-.102.671-.047 1.213.164 1.624.212.411.59.617 1.132.617.51 0 .939-.214 1.288-.643.35-.428.573-.96.67-1.598l.023-.125c.099-.664.041-1.204-.172-1.619-.213-.415-.59-.622-1.13-.622-.513 0-.944.216-1.293.648-.349.432-.569.963-.66 1.593l-.022.125zm8.954-2.146l-.566-.034c-.29 0-.547.073-.77.218-.222.146-.41.35-.565.614l-.651 4.342h-1.115l.917-6.124h.996l-.023.866c.219-.31.468-.55.747-.722a1.727 1.727 0 0 1 1.158-.238c.077.013.138.028.184.043l-.312 1.035zM20.647 171.088h4.12l-.133.894H19.37l1.265-8.45h1.143l-1.131 7.556zm6.302.894h-1.143l.94-6.28h1.143l-.94 6.28zm1.248-8.82h1.328l.012.034-1.776 1.509h-.818l-.012-.03 1.266-1.514v.001zm2.46 3.336c.248-.294.54-.52.876-.676.36-.161.75-.242 1.143-.235.399 0 .735.097 1.01.29.275.193.46.482.557.865.248-.36.55-.643.908-.848.365-.207.78-.313 1.199-.307.615 0 1.08.221 1.395.664.315.443.41 1.102.282 1.976l-.563 3.755H36.32l.562-3.766c.097-.643.06-1.087-.113-1.332-.172-.246-.473-.369-.902-.369a1.4 1.4 0 0 0-.995.412 2.142 2.142 0 0 0-.6 1.048v.02l-.599 3.987h-1.149l.563-3.766c.093-.612.052-1.048-.124-1.309-.176-.261-.473-.392-.891-.392-.34 0-.636.077-.885.23-.25.152-.456.364-.618.635l-.69 4.602h-1.144l.94-6.28h1.022l-.041.796h.001zm9.702 5.484h-1.143l.94-6.28H41.3l-.94 6.28h-.001zm1.184-7.887H40.4l.174-1.166h1.143l-.174 1.166zm3.331.093l-.226 1.515h1.19l-.128.847h-1.19l-.569 3.813c-.046.305-.018.515.085.63.102.113.256.17.46.17.148-.006.295-.033.435-.081l.042.784c-.097.07-.231.126-.404.17-.172.045-.34.067-.502.067-.448 0-.794-.14-1.035-.423-.242-.283-.317-.722-.224-1.317l.569-3.813h-.998l.127-.847h.999l.226-1.515h1.143zm3.83 7.915c-.867 0-1.517-.292-1.953-.876-.435-.584-.583-1.338-.444-2.263l.041-.255c.135-.936.504-1.69 1.105-2.263.602-.573 1.284-.86 2.046-.86.809 0 1.39.266 1.747.796.356.53.47 1.22.342 2.071l-.087.604h-4.062c-.089.665-.023 1.19.197 1.575s.621.578 1.201.578c.372 0 .717-.056 1.036-.168.3-.102.58-.255.827-.453l.337.743c-.256.216-.579.4-.97.548-.39.149-.845.223-1.363.223zm.662-5.617c-.383 0-.73.155-1.042.465-.312.309-.535.7-.67 1.172l.011.035h2.826l.012-.093c.07-.468.015-.849-.163-1.14-.178-.293-.503-.439-.974-.439zm7.166 5.496H55.39l.94-6.28h1.143l-.94 6.28h-.001zm1.184-7.887h-1.143l.174-1.166h1.143l-.174 1.166zm2.484 2.507a2.71 2.71 0 0 1 .896-.751 2.407 2.407 0 0 1 1.117-.264c.654 0 1.142.2 1.465.6.323.4.423 1.011.3 1.831l-.593 3.964h-1.143l.592-3.94c.085-.573.037-.97-.145-1.193-.182-.222-.501-.334-.957-.334-.34 0-.647.075-.917.224a2.02 2.02 0 0 0-.685.618l-.696 4.625H58.29l.94-6.28h1.022l-.052.9zm5.32 5.38l.813-5.432h-.98l.127-.847h.98l.123-.795c.104-.696.356-1.22.754-1.573.399-.352.915-.528 1.55-.528.127 0 .259.012.394.035.136.023.279.052.43.087l-.267.87a2.57 2.57 0 0 0-.557-.057c-.322 0-.582.101-.781.304-.2.203-.326.49-.38.862l-.122.795h1.137l-.127.847h-1.138l-.812 5.432H65.52zm5.88.121c-.867 0-1.518-.292-1.953-.876-.436-.584-.584-1.338-.444-2.263l.04-.255c.136-.936.504-1.69 1.106-2.263.601-.573 1.283-.86 2.045-.86.809 0 1.39.266 1.747.796.356.53.47 1.22.342 2.071l-.087.604h-4.062c-.089.665-.023 1.19.197 1.575.221.385.621.578 1.202.578.371 0 .716-.056 1.035-.168.3-.102.58-.255.827-.453l.337.743c-.255.216-.578.4-.97.548-.39.149-.844.223-1.363.223h.001zm.66-5.617c-.382 0-.73.155-1.04.465-.312.309-.536.7-.671 1.172l.011.035h2.826l.012-.093c.07-.468.016-.849-.162-1.14-.178-.293-.503-.439-.975-.439h-.001zm6.738.227l-.58-.035c-.298 0-.561.074-.79.223a1.85 1.85 0 0 0-.58.63l-.667 4.45h-1.143l.94-6.278h1.021l-.023.888a2.64 2.64 0 0 1 .766-.74 1.77 1.77 0 0 1 1.186-.244c.08.014.143.028.19.044l-.32 1.062zm1.636 5.269h-1.143l.94-6.28h1.143l-.94 6.28zm1.184-7.887h-1.143l.174-1.166h1.143l-.174 1.166zm.79 4.69c.142-.964.507-1.738 1.093-2.322.586-.584 1.315-.876 2.185-.876.836 0 1.47.303 1.9.908.432.605.58 1.368.444 2.29l-.023.127c-.147.97-.512 1.746-1.097 2.324-.584.578-1.313.867-2.187.867-.836 0-1.47-.301-1.9-.905-.432-.603-.578-1.365-.439-2.286l.023-.128.001.001zm1.12.127c-.105.689-.05 1.244.168 1.665.216.422.603.633 1.16.633.522 0 .962-.22 1.32-.659.358-.439.587-.985.688-1.64l.023-.127c.1-.68.042-1.234-.177-1.66-.218-.425-.604-.638-1.158-.638-.526 0-.968.222-1.325.665-.358.443-.584.987-.677 1.633l-.023.128h.001zm9.18-2.2l-.58-.034a1.41 1.41 0 0 0-.79.223 1.85 1.85 0 0 0-.58.63l-.668 4.45h-1.143l.94-6.278h1.022l-.024.888c.225-.317.48-.564.766-.74a1.77 1.77 0 0 1 1.187-.244c.08.014.142.028.189.044l-.32 1.062.001-.001z" fill="#6D6E71" fill-rule="nonzero"/><path d="M276.138 124.381l.1 1.043a2.274 2.274 0 0 1 2.019-1.144c.74 0 1.312.202 1.715.673.404.437.606 1.11.606 2.018v4.373h-1.245v-4.34c0-.605-.134-1.042-.37-1.311-.235-.27-.605-.37-1.076-.37-.37 0-.673.1-.942.27a1.943 1.943 0 0 0-.673.705v5.046h-1.244v-6.93l1.11-.033zm10.394 6.398c-.034-.167-.034-.301-.034-.469-.242.337-.55.622-.904.838-.369.234-.77.335-1.206.335-.704 0-1.24-.168-1.609-.57a2.044 2.044 0 0 1-.57-1.507c0-.67.269-1.173.805-1.541.536-.369 1.24-.57 2.144-.57h1.34v-.67c0-.402-.134-.737-.368-.972-.235-.234-.603-.368-1.039-.368-.402 0-.737.1-.971.301-.235.202-.369.47-.369.738h-1.173v-.034c-.033-.502.201-.972.704-1.374.502-.402 1.139-.636 1.91-.636.77 0 1.407.2 1.876.603.469.402.703.972.703 1.709v3.316c0 .235 0 .47.034.704.033.234.067.469.134.67h-1.307v.067a19.543 19.543 0 0 0-.1-.57zm-2.028-.402c.435 0 .87-.1 1.206-.335.368-.234.603-.502.703-.804v-1.105h-1.373c-.503 0-.905.134-1.206.368-.302.235-.436.57-.436.905 0 .301.1.536.268.737.201.134.47.234.838.234zm-14.02-8.263v.944h-4.53v3.207h3.858v.972h-3.858v4.107h-1.33v-9.23h5.86zm1.329 2.368h1.23v6.772h-1.23v-6.772zm.017-3.076v1.221h1.253v-1.22l-1.253-.001zm17.856-.045h1.246v9.849h-1.246v-9.849zm-263.7 11.403l.114 1.172a2.557 2.557 0 0 1 2.269-1.286c.832 0 1.475.227 1.928.756.454.492.681 1.249.681 2.27v4.916h-1.4v-4.879c0-.68-.15-1.172-.415-1.475-.265-.302-.68-.416-1.21-.416-.416 0-.757.114-1.06.303-.302.19-.567.454-.756.794v5.673h-1.399v-7.79l1.248-.038zm-4.893-2.71h1.334v10.538h-1.334v-10.538zm23.167 2.709h1.362v7.497H44.26v-7.497zm.019-3.405v1.352h1.387v-1.352h-1.387zm-11.19 3.405h1.362v7.497h-1.362v-7.497zm.018-3.405v1.352h1.388v-1.352h-1.388zm8.158 6.082c.764-.028 1.15 0 1.312 0 0-.853-.562-2.82-3.136-2.742-2.573.077-3.26 2.888-3.146 4.466.114 1.578 1.146 3.51 3.44 3.442 2.294-.068 2.842-1.921 2.842-2.564-.412-.003-.85-.003-1.312 0 0 .63-.439 1.405-1.53 1.478-1.091.073-1.911-.775-2.016-2.356-.105-1.58.326-3.392 1.753-3.392 1.427 0 1.793 1.066 1.793 1.668zm9.546-2.745c1.33 0 3.295.59 3.492 3.621.198 3.032-1.689 4.276-3.373 4.276-1.683 0-3.421-1.176-3.421-4.108 0-2.932 1.972-3.789 3.302-3.789zm.107 1.1c-1.34 0-2.023 1.14-2.023 2.716 0 1.578.477 3.028 2.023 3.028 1.547 0 2.127-1.458 2.004-3.144-.123-1.685-.663-2.6-2.004-2.6z" fill="#2A3052" fill-rule="nonzero"/><path d="M173.111 165.207h-2.491v-8.244h2.491v8.244zm0 4.337h-2.491v-2.215h2.491v2.215zm-23.685-9.854h2.07l.105 1.508c.848-1.264 1.948-1.827 3.3-1.687.783.081 2.434.338 2.926 2.561.18.815.142 2.193.129 4.064-.005.727-.005 1.985 0 3.775h-2.272v-6.403c0-.752-.21-1.592-.842-1.91-.868-.438-2.501-.255-3.157.848v7.465h-2.259V159.69zm-17.489 4.737v-1.694h5.122c.058 2.952.058 4.673 0 5.163-.431 1.292-5.548 3.641-8.85.661-.985-.888-1.448-1.872-1.701-3.361-.012-1.522-.039-2.949-.028-4.299.25-1.654.804-2.594 1.25-3.127 1.624-1.942 4.212-2.36 6.487-1.573 2.276.787 2.572 2.421 2.756 4.02-.527 0-.805-.023-2.228 0 .144-.9-.675-2.639-2.81-2.543-2.135.096-3.143 1.85-3.143 3.311 0 1.462-.076.971 0 3.875.097 3.335 4.095 4.23 5.953 2.449l.067-2.84-2.875-.042zm-10.065-.76h2.122v9.402h-2.122v-9.402zm.041-4.153v1.797h2.112v-1.798l-2.112.001zm40.623 2.751c-.677-.004-1.387-.004-2.13 0 0-1.068.765-3.006 3.825-3.006s3.794 2.102 3.877 2.554c.083.452-.214 6.799.427 7.52l-2.274.002c-.187-.642-.281-1.117-.281-1.424-.355.433-.965 1.224-1.902 1.514-.937.29-3.066.447-3.938-1.596-.574-1.346-.208-2.86.872-3.555 1.784-1.146 4.236-.762 4.968-.762.094-2.045-.516-2.52-1.902-2.52-.924 0-1.438.424-1.542 1.273zm3.443 2.644a36.882 36.882 0 0 0-2.245.019c-.892.079-1.686.738-1.619 1.678.081 1.12 1.355 1.327 2.353 1.003.837-.271 1.42-.972 1.511-1.27v-1.43zm-24.237-2.644c-.677-.004-1.387-.004-2.13 0 0-1.068.764-3.006 3.824-3.006 3.06 0 3.794 2.102 3.877 2.554.083.452-.213 6.799.427 7.52l-2.273.002c-.188-.642-.281-1.117-.281-1.424-.355.433-.965 1.224-1.902 1.514-.938.29-3.066.447-3.938-1.596-.575-1.346-.208-2.86.872-3.555 1.784-1.146 4.236-.762 4.968-.762.094-2.045-.517-2.52-1.902-2.52-.924 0-1.438.424-1.542 1.273zm3.443 2.644a36.882 36.882 0 0 0-2.245.019c-.892.079-1.687.738-1.619 1.678.08 1.12 1.355 1.327 2.352 1.003.837-.271 1.42-.972 1.512-1.27v-1.43z" fill="#FFF" fill-rule="nonzero"/></g></svg>