<svg width="299" height="197" xmlns="http://www.w3.org/2000/svg"><g fill="none"><path fill="#F1F1F2" d="M0 0h299v197H0z"/><path d="M1.987 1.98v193.04h295.026V1.98H1.987zM299 0v197H0V0h299z" fill="#C2C2C2"/><path d="M4.58 54.993v-1.212h290.408v1.212H4.58zm0 20.08V73.86h290.408v1.212H4.58zm0 60.274v-1.212h290.408v1.212H4.58z" fill="#DEDEDD"/><path d="M4.58 155.425v-1.212h3.598v1.212H4.58zm7.196 0v-1.212h3.598v1.212h-3.598zm7.196 0v-1.212h3.598v1.212h-3.598zm7.197 0v-1.212h3.598v1.212h-3.598zm7.196 0v-1.212h3.598v1.212h-3.598zm7.196 0v-1.212h3.598v1.212h-3.598zm7.197 0v-1.212h3.598v1.212h-3.598zm7.196 0v-1.212h3.598v1.212h-3.598zm7.196 0v-1.212h3.598v1.212H62.15zm7.196 0v-1.212h3.599v1.212h-3.599zm7.197 0v-1.212h3.598v1.212h-3.598zm7.196 0v-1.212h3.598v1.212H83.74zm7.196 0v-1.212h3.599v1.212h-3.599zm7.197 0v-1.212h3.598v1.212h-3.598zm7.196 0v-1.212h3.598v1.212h-3.598zm7.196 0v-1.212h3.599v1.212h-3.599zm7.197 0v-1.212h3.598v1.212h-3.598zm7.196 0v-1.212h3.598v1.212h-3.598zm7.196 0v-1.212h3.599v1.212h-3.599zm7.197 0v-1.212h3.598v1.212h-3.598zm7.196 0v-1.212h3.598v1.212h-3.598zm7.196 0v-1.212h3.598v1.212h-3.598zm7.197 0v-1.212h3.598v1.212h-3.598zm7.196 0v-1.212h3.598v1.212h-3.598zm7.196 0v-1.212h3.598v1.212h-3.598zm7.197 0v-1.212h3.598v1.212h-3.598zm7.196 0v-1.212h3.598v1.212h-3.598zm7.196 0v-1.212h3.598v1.212h-3.598zm7.197 0v-1.212h3.598v1.212h-3.598zm7.196 0v-1.212h3.598v1.212h-3.598zm7.196 0v-1.212h3.598v1.212h-3.598zm7.196 0v-1.212h3.599v1.212h-3.599zm7.197 0v-1.212h3.598v1.212h-3.598zm7.196 0v-1.212h3.598v1.212h-3.598zm7.196 0v-1.212h3.599v1.212h-3.599zm7.197 0v-1.212h3.598v1.212h-3.598zm7.196 0v-1.212h3.598v1.212h-3.598zm7.196 0v-1.212h3.599v1.212h-3.599zm7.197 0v-1.212h3.598v1.212h-3.598zm7.196 0v-1.212h3.598v1.212h-3.598zm7.196 0v-1.212h2.556v1.212h-2.556z" fill="#293052"/><path d="M4.58 175.504v-1.212h290.408v1.212H4.58zM39.059 34.308h1.212V192.59h-1.212V34.308zm36.75 0h1.212V192.59H75.81V34.308zm36.75 0h1.213V192.59h-1.212V34.308zm36.713 0h1.212V192.59h-1.212V34.308zm36.751 0h1.212V192.59h-1.212V34.308zm36.75 0h1.213V192.59h-1.213V34.308zm36.751 0h1.212V192.59h-1.212V34.308zM4.58 115.268v-1.212h290.408v1.212H4.58zm0-20.08v-1.211h290.408v1.212H4.58z" fill="#DEDEDD"/><path fill="#C2C2C2" d="M2 30v-2h295v2z"/><path d="M190.555 84.764a1.8 1.8 0 0 1 2.7.685l32.057 68.609a1.8 1.8 0 1 1-3.26 1.523l-31.126-66.616-40.66 30.06a1.8 1.8 0 0 1-2.095.032l-41.895-29.075-28.651 26.012a1.8 1.8 0 0 1-2.363.049l-36.75-30.687a1.8 1.8 0 1 1 2.306-2.762l35.548 29.683 28.55-25.921a1.8 1.8 0 0 1 2.236-.146l42.012 29.156 41.391-30.602z" fill="#293052"/><path d="M255.777 116.442l.682-6.592h5.98v1.44h-4.58l-.378 3.372a3.58 3.58 0 0 1 .832-.455c.34-.124.699-.188 1.06-.19a3.216 3.216 0 0 1 2.612 1.1 4.322 4.322 0 0 1 .946 2.954 4.208 4.208 0 0 1-.984 2.88 3.556 3.556 0 0 1-2.801 1.098 3.782 3.782 0 0 1-2.536-.833 2.88 2.88 0 0 1-.984-2.425h1.476c-.036.563.17 1.115.568 1.516.4.37.932.561 1.476.53a1.892 1.892 0 0 0 1.59-.72 3.147 3.147 0 0 0 .416-2.121 2.957 2.957 0 0 0-.568-1.895 1.892 1.892 0 0 0-1.59-.757 2.534 2.534 0 0 0-1.4.303c-.305.21-.532.517-.643.871l-1.174-.076zm6.018 20.572h1.628v1.288h-1.628v2.765h-1.627v-2.803h-5.375v-.91l5.261-8.296h1.703v7.956h.038zm-5.26 0h3.784v-5.645.417l-3.785 5.228zm6.547 44.06h-7.759v-1.137l3.785-4.357a10.796 10.796 0 0 0 1.438-1.856 2.92 2.92 0 0 0 .379-1.402 2.237 2.237 0 0 0-.53-1.515 1.74 1.74 0 0 0-1.4-.606 2.383 2.383 0 0 0-1.817.644 2.54 2.54 0 0 0-.606 1.78h-1.438a3.373 3.373 0 0 1 1.022-2.614 4.01 4.01 0 0 1 2.952-1.06 3.48 3.48 0 0 1 2.574.947c.632.63.975 1.494.946 2.386a3.791 3.791 0 0 1-.568 1.97 12.463 12.463 0 0 1-1.627 2.122l-3.142 3.41h5.753v1.287h.038zm0-110.586a16.785 16.785 0 0 0-2.914 4.584 20.55 20.55 0 0 0-1.098 4.85v1.288h-1.703v-1.288a17.5 17.5 0 0 1 1.4-5.153 19.4 19.4 0 0 1 2.726-4.357h-6.51V69.2h8.1v1.288zm-.454-17.616a2.654 2.654 0 0 1-.53 1.629 3.104 3.104 0 0 1-1.438 1.06 3.785 3.785 0 0 1 1.665 1.137c.404.505.618 1.135.606 1.78a3.07 3.07 0 0 1-1.098 2.54 4.992 4.992 0 0 1-5.64 0 3.108 3.108 0 0 1-1.059-2.54 2.805 2.805 0 0 1 .606-1.78 3.52 3.52 0 0 1 1.627-1.136 3.028 3.028 0 0 1-1.4-1.061 2.73 2.73 0 0 1-.492-1.63 3.07 3.07 0 0 1 .984-2.424 3.778 3.778 0 0 1 2.573-.871 3.782 3.782 0 0 1 2.574.871 3.032 3.032 0 0 1 1.022 2.425zm-1.287 5.569a2.16 2.16 0 0 0-.643-1.63 2.27 2.27 0 0 0-1.628-.643 2.156 2.156 0 0 0-2.27 2.235 2.08 2.08 0 0 0 .643 1.591 2.647 2.647 0 0 0 3.293 0c.413-.408.633-.973.605-1.553zm-.19-5.531a2.047 2.047 0 0 0-.567-1.478 2.005 2.005 0 0 0-2.8 0 2.085 2.085 0 0 0-.53 1.478c-.031.544.16 1.077.53 1.477a2.041 2.041 0 0 0 2.8 0c.384-.394.589-.928.568-1.477z" fill="#808184"/><path d="M188.65 147.07h-35.047l-5.526-8.07-5.299 8.07h-35.047a4.733 4.733 0 0 0-4.731 4.735v24.511a4.733 4.733 0 0 0 4.731 4.736h80.92a4.729 4.729 0 0 0 3.418-1.346 4.738 4.738 0 0 0 1.426-3.39v-24.473a4.738 4.738 0 0 0-1.412-3.414 4.729 4.729 0 0 0-3.433-1.36z" fill="#E88024"/><ellipse cx="8.43" cy="8.858" rx="8.137" ry="8.373" opacity=".6" transform="translate(214.95 145.962)" fill="#FFF"/><path d="M223.38 164.404c-5.172 0-9.35-4.299-9.35-9.585 0-5.285 4.178-9.584 9.35-9.584 5.17 0 9.349 4.299 9.349 9.584 0 5.286-4.178 9.585-9.35 9.585zm0-2.424c3.816 0 6.925-3.198 6.925-7.16 0-3.963-3.109-7.161-6.926-7.161-3.816 0-6.925 3.198-6.925 7.16 0 3.963 3.109 7.16 6.925 7.16z" fill="#E88024"/><path d="M259.903 88.9a5.294 5.294 0 0 1 1.211 0 4 4 0 0 1 .984.341l-.34 1.25-.833-.34a3.781 3.781 0 0 0-1.022 0 2.46 2.46 0 0 0-2.082 1.022 4.29 4.29 0 0 0-.795 2.69 3.784 3.784 0 0 1 1.212-.72c.47-.18.971-.27 1.476-.265a3.216 3.216 0 0 1 2.573 1.099 4.17 4.17 0 0 1 .947 2.803 4.473 4.473 0 0 1-1.022 3.031 3.405 3.405 0 0 1-2.725 1.174 3.783 3.783 0 0 1-2.915-1.288 5.194 5.194 0 0 1-1.135-3.599v-2.273a5.383 5.383 0 0 1 1.287-3.788 4.085 4.085 0 0 1 3.179-1.137zm-.568 5.418a2.76 2.76 0 0 0-1.4.34c-.384.21-.7.526-.909.91v.985c-.05.903.204 1.796.72 2.538a2.12 2.12 0 0 0 1.74.91 1.74 1.74 0 0 0 1.666-.91 3.791 3.791 0 0 0 .568-2.084 3.07 3.07 0 0 0-.568-1.97 1.967 1.967 0 0 0-1.817-.757v.038z" fill="#808184"/><path fill="#E88024" d="M246.278 145.424h28.575v18.79h-28.575z"/><path fill="#E88024" d="M249.76 154.82l-3.331 3.333-5.185-3.334 5.185-3.333z"/><path d="M257.594 153.683h1.363c.462.033.916-.132 1.249-.455.293-.348.442-.795.416-1.25a1.63 1.63 0 0 0-.416-1.174 1.588 1.588 0 0 0-1.211-.266 1.664 1.664 0 0 0-1.136.38c-.3.253-.466.63-.454 1.022h-2.347a2.729 2.729 0 0 1 1.06-2.31 4.274 4.274 0 0 1 2.8-.91 4.614 4.614 0 0 1 2.953.871 3.07 3.07 0 0 1 1.098 2.539 2.54 2.54 0 0 1-.492 1.477c-.349.481-.82.86-1.363 1.099a3.028 3.028 0 0 1 1.514 1.098c.353.498.538 1.095.53 1.705a3.108 3.108 0 0 1-1.211 2.576 4.804 4.804 0 0 1-3.066.947 4.69 4.69 0 0 1-2.876-.87 2.805 2.805 0 0 1-1.136-2.501h2.498c-.01.432.17.848.492 1.136.344.304.79.467 1.25.455.484.032.96-.132 1.324-.455a1.67 1.67 0 0 0 .492-1.25 1.82 1.82 0 0 0-.454-1.402 1.967 1.967 0 0 0-1.4-.454h-1.477v-2.008z" fill="#FFF"/><path fill="#293052" d="M247.564 126.292v-1.212h22.899v1.212z"/><path d="M201.862 10.174v6.306c0 1.044-.339 1.859-1.017 2.445-.678.587-1.552.88-2.621.88-1.03 0-1.874-.294-2.53-.883-.657-.589-.985-1.403-.985-2.442v-6.306h1.285v6.306c0 .726.207 1.295.622 1.705.416.411.951.617 1.608.617.695 0 1.262-.206 1.698-.617.437-.41.656-.979.656-1.705v-6.306h1.284zm-2.947-2.653h1.5l.013.039-1.754 1.695h-.965l1.206-1.734zm6.195 12.148h-1.285V9.496h1.285V19.67v-.001zm3.762-8.758v1.702h1.337v.952h-1.337v4.285c0 .33.069.563.206.697a.743.743 0 0 0 .544.202c.074 0 .157-.01.248-.029.091-.02.167-.04.228-.062l.176.88a1.12 1.12 0 0 1-.424.193c-.186.05-.371.075-.554.075-.521 0-.937-.158-1.245-.473-.309-.315-.463-.81-.463-1.483v-4.285h-1.122v-.952h1.122v-1.702h1.284zm4.102 8.758h-1.285v-7.056h1.285v7.056zm0-8.862h-1.285v-1.31h1.285v1.31zm3.123 1.806l.092.926c.23-.334.522-.594.877-.779.354-.185.766-.277 1.235-.277.47 0 .873.109 1.21.326.337.217.59.543.76.978a2.64 2.64 0 0 1 .883-.955c.363-.233.788-.35 1.275-.35.717 0 1.285.248 1.702.741.417.493.626 1.236.626 2.227v4.219h-1.284v-4.232c0-.696-.12-1.188-.36-1.477-.238-.29-.595-.434-1.069-.434-.439 0-.794.152-1.066.457-.271.304-.431.689-.479 1.154v4.532h-1.291v-4.232c0-.661-.123-1.145-.369-1.451-.245-.307-.598-.46-1.06-.46-.39 0-.712.08-.964.241a1.553 1.553 0 0 0-.58.679v5.223h-1.285v-7.056h1.147zm10.225 3.463c0-1.043.283-1.903.848-2.58.565-.675 1.332-1.013 2.302-1.013.978 0 1.75.337 2.318 1.01.567.674.85 1.535.85 2.583v.143c0 1.052-.282 1.913-.847 2.583-.565.67-1.334 1.004-2.308 1.004-.974 0-1.745-.336-2.312-1.008-.567-.671-.85-1.531-.85-2.579v-.143h-.001zm1.285.143c0 .748.157 1.365.473 1.852.315.487.783.73 1.405.73.613 0 1.078-.243 1.395-.73.318-.487.476-1.104.476-1.852v-.143c0-.74-.16-1.354-.479-1.846-.32-.49-.788-.736-1.405-.736-.613 0-1.077.245-1.392.736-.316.492-.473 1.107-.473 1.846v.143zm9.631.052c0-1.134.242-2.05.727-2.745.485-.695 1.164-1.043 2.038-1.043.413 0 .78.076 1.099.228.32.152.592.374.818.665v-3.88h1.285V19.67h-.985l-.196-.894a2.29 2.29 0 0 1-.854.77c-.339.174-.732.26-1.18.26-.86 0-1.535-.311-2.022-.935-.487-.624-.73-1.444-.73-2.462v-.138zm1.285.137c0 .713.145 1.284.437 1.712.29.428.743.642 1.356.642.382 0 .704-.086.965-.26a1.96 1.96 0 0 0 .639-.73v-3.294a1.978 1.978 0 0 0-.642-.694c-.263-.172-.58-.258-.95-.258-.616 0-1.072.255-1.365.763-.294.509-.44 1.17-.44 1.982v.137zm7.949 3.26h-1.285v-7.055h1.285v7.056-.001zm-.02-9.91h1.5l.013.038-1.754 1.696h-.965l1.206-1.735v.001zm1.8 6.513c0-1.134.242-2.05.727-2.745.485-.695 1.162-1.043 2.031-1.043.448 0 .841.09 1.18.27.34.18.624.44.855.78l.156-.92h1.024v7.095c0 .904-.263 1.599-.79 2.083-.525.485-1.284.727-2.275.727-.339 0-.705-.046-1.099-.14a4.296 4.296 0 0 1-1.04-.381l.196-.998c.248.13.547.236.896.316.35.08.695.121 1.034.121.626 0 1.081-.142 1.366-.427.285-.285.427-.718.427-1.301v-.802c-.23.296-.506.52-.828.672a2.58 2.58 0 0 1-1.115.228c-.86 0-1.533-.312-2.018-.936-.485-.624-.727-1.444-.727-2.462v-.137zm1.284.137c0 .709.146 1.279.437 1.709.292.43.741.645 1.35.645.387 0 .71-.088.972-.264.26-.176.476-.425.645-.746v-3.248a1.99 1.99 0 0 0-.645-.714c-.265-.176-.585-.264-.959-.264-.613 0-1.066.255-1.36.763-.293.509-.44 1.17-.44 1.982v.137zm7.923 3.26h-1.284v-7.055h1.284v7.056-.001zm0-8.861h-1.284v-1.31h1.284v1.31zm3.763.104v1.702h1.337v.952h-1.337v4.285c0 .33.068.563.205.697a.743.743 0 0 0 .545.202c.074 0 .156-.01.247-.029.092-.02.168-.04.229-.062l.176.88a1.12 1.12 0 0 1-.424.193 2.14 2.14 0 0 1-.554.075c-.522 0-.937-.158-1.246-.473-.309-.315-.463-.81-.463-1.483v-4.285h-1.121v-.952h1.121v-1.702h1.285zm2.412 5.165c0-1.043.283-1.903.848-2.58.565-.675 1.333-1.013 2.302-1.013.978 0 1.75.337 2.318 1.01.568.674.851 1.535.851 2.583v.143c0 1.052-.282 1.913-.848 2.583-.565.67-1.334 1.004-2.308 1.004-.974 0-1.744-.336-2.312-1.008-.567-.671-.85-1.531-.85-2.579v-.143h-.001zm1.285.143c0 .748.158 1.365.473 1.852.315.487.783.73 1.405.73.613 0 1.078-.243 1.396-.73.317-.487.476-1.104.476-1.852v-.143c0-.74-.16-1.354-.48-1.846-.32-.49-.788-.736-1.405-.736-.613 0-1.077.245-1.392.736-.315.492-.473 1.107-.473 1.846v.143z" fill="#2A3052"/><path d="M274.607 13.791h-1.347v-1.42h1.384v1.42h-.037zm0 6.095h-1.347v-1.42h1.384v1.42h-.037zm5.87-4.562l.599-5.571h5.085v1.234h-3.74l-.336 2.842c.22-.155.459-.28.71-.374.298-.051.601-.051.898 0a2.73 2.73 0 0 1 2.206.897 3.74 3.74 0 0 1 .785 2.506 3.74 3.74 0 0 1-.822 2.467 3.029 3.029 0 0 1-2.393.935 3.253 3.253 0 0 1-2.393-.935 2.43 2.43 0 0 1-.823-2.056h1.234c-.024.473.152.935.486 1.271.35.364.842.555 1.346.524a1.608 1.608 0 0 0 1.496-.71c.35-.49.522-1.083.486-1.683a2.543 2.543 0 0 0-.486-1.608 1.608 1.608 0 0 0-1.346-.636c-.4-.034-.801.044-1.16.224a1.384 1.384 0 0 0-.523.748l-1.309-.075z" fill="#293052"/><path d="M15.952 20V9.336h3.281c.938 0 1.777.211 2.516.633a4.418 4.418 0 0 1 1.732 1.802c.415.78.623 1.664.623 2.655v.491c0 .991-.204 1.873-.612 2.644a4.38 4.38 0 0 1-1.724 1.794c-.743.425-1.58.64-2.513.645h-3.303zm2.197-8.884v7.119h1.062c.86 0 1.517-.28 1.97-.842.455-.562.687-1.365.696-2.41v-.564c0-1.084-.224-1.906-.673-2.465-.45-.559-1.106-.838-1.97-.838h-1.085zM27.847 20H25.73v-7.925h2.117V20zm-.623-11.14h2.307l-2.029 2.27h-1.72l1.442-2.27zm2.139 7.119c0-1.216.29-2.195.868-2.937.578-.742 1.358-1.113 2.34-1.113.869 0 1.545.298 2.029.893l.087-.747h1.92v7.661c0 .694-.158 1.297-.473 1.81a3.034 3.034 0 0 1-1.33 1.171c-.57.269-1.24.403-2.006.403a4.345 4.345 0 0 1-1.7-.348c-.551-.232-.969-.53-1.252-.897l.938-1.29c.527.592 1.167.887 1.919.887.561 0 .998-.15 1.31-.45.313-.3.47-.727.47-1.278v-.425c-.489.552-1.13.827-1.927.827-.952 0-1.722-.372-2.31-1.116-.589-.745-.883-1.733-.883-2.963v-.088zm2.116.154c0 .718.145 1.28.433 1.688.288.408.683.612 1.186.612.645 0 1.106-.242 1.384-.725v-3.333c-.283-.483-.74-.725-1.37-.725-.507 0-.906.207-1.197.622-.29.416-.436 1.036-.436 1.86zM40.466 20h-2.124v-7.925h2.124V20zm-2.248-9.976c0-.317.106-.578.318-.783.213-.205.502-.308.868-.308.362 0 .65.103.865.308.214.205.322.466.322.783 0 .323-.109.586-.326.791-.217.206-.504.308-.86.308-.357 0-.644-.102-.861-.308a1.04 1.04 0 0 1-.326-.79zm6.526.103v1.948h1.355v1.553h-1.355v3.955c0 .293.056.503.168.63.112.127.327.19.645.19.234 0 .442-.017.622-.05v1.603c-.415.127-.842.19-1.282.19-1.484 0-2.24-.749-2.27-2.248v-4.27H41.47v-1.553h1.157v-1.948h2.117zm1.985 5.837c0-.786.15-1.486.454-2.102a3.324 3.324 0 0 1 1.307-1.428c.569-.337 1.23-.505 1.981-.505 1.07 0 1.942.327 2.619.981.676.654 1.053 1.543 1.131 2.666l.015.542c0 1.216-.34 2.191-1.018 2.926-.679.735-1.59 1.102-2.732 1.102-1.143 0-2.055-.366-2.736-1.098-.68-.733-1.021-1.729-1.021-2.988v-.096zm2.116.154c0 .752.142 1.327.425 1.725.283.398.688.597 1.216.597.513 0 .913-.197 1.201-.59.288-.393.432-1.021.432-1.886 0-.737-.144-1.308-.432-1.714-.288-.405-.693-.607-1.216-.607-.517 0-.918.201-1.201.604-.283.403-.425 1.026-.425 1.871zm10.1-.139c0-1.235.277-2.22.832-2.952.554-.732 1.312-1.098 2.274-1.098.771 0 1.408.288 1.911.864V8.75h2.124V20h-1.911l-.103-.842c-.527.659-1.206.988-2.036.988-.932 0-1.68-.367-2.245-1.102-.564-.735-.846-1.756-.846-3.065zm2.117.154c0 .742.13 1.31.388 1.706.259.396.635.594 1.128.594.654 0 1.116-.276 1.384-.828v-3.127c-.263-.552-.72-.828-1.37-.828-1.02 0-1.53.828-1.53 2.483zm10.313 4.013c-1.163 0-2.109-.356-2.839-1.069s-1.095-1.662-1.095-2.849v-.205c0-.796.154-1.508.462-2.135a3.386 3.386 0 0 1 1.307-1.45c.564-.34 1.207-.51 1.93-.51 1.084 0 1.937.343 2.56 1.026.623.684.934 1.653.934 2.908v.864h-5.047c.069.518.275.933.62 1.245.344.313.78.469 1.307.469.815 0 1.452-.295 1.911-.886l1.04 1.164c-.317.45-.747.8-1.289 1.051a4.23 4.23 0 0 1-1.801.377zm-.242-6.503c-.42 0-.76.141-1.022.424-.261.284-.428.689-.502 1.216h2.945v-.168c-.01-.469-.137-.832-.381-1.088-.244-.256-.591-.384-1.04-.384zm11.843 2.468c0 1.27-.27 2.26-.813 2.97-.542.71-1.299 1.065-2.27 1.065-.86 0-1.546-.33-2.059-.988L77.74 20h-1.904V8.75h2.117v4.036c.488-.572 1.13-.857 1.926-.857.967 0 1.725.355 2.274 1.065.55.71.824 1.71.824 3v.117zm-2.117-.154c0-.8-.127-1.385-.38-1.754-.254-.369-.633-.553-1.136-.553-.674 0-1.137.276-1.391.828v3.127c.258.557.727.835 1.406.835.684 0 1.133-.337 1.348-1.01.102-.323.153-.814.153-1.473zM88.872 20a2.35 2.35 0 0 1-.212-.71c-.513.57-1.18.856-2 .856-.776 0-1.42-.224-1.93-.673a2.167 2.167 0 0 1-.765-1.7c0-.84.311-1.484.934-1.933.622-.45 1.522-.676 2.699-.681h.974v-.454c0-.367-.094-.66-.282-.88-.188-.219-.485-.329-.89-.329-.357 0-.636.086-.839.256-.202.171-.304.406-.304.704h-2.116c0-.46.141-.884.424-1.275.284-.39.684-.697 1.202-.919.517-.222 1.098-.333 1.743-.333.976 0 1.751.245 2.325.736.574.49.86 1.18.86 2.069v3.435c.006.752.11 1.32.316 1.706V20h-2.139zm-1.75-1.472c.312 0 .6-.07.864-.209.264-.14.459-.326.586-.56v-1.363h-.791c-1.06 0-1.624.367-1.692 1.1l-.007.124c0 .263.092.48.278.651.185.171.44.257.762.257zm7.441-6.453v8.357c0 .874-.232 1.554-.696 2.04-.464.486-1.133.729-2.007.729-.366 0-.715-.042-1.047-.125V21.4c.254.044.476.066.666.066.64 0 .96-.34.96-1.018v-8.372h2.124zm-2.292-2.05c0-.318.106-.58.318-.784.213-.205.502-.308.868-.308s.656.103.868.308c.212.205.319.466.319.783 0 .323-.11.586-.326.791-.218.206-.505.308-.861.308s-.643-.102-.86-.308a1.04 1.04 0 0 1-.326-.79zm3.618 5.94c0-.787.151-1.487.454-2.103a3.324 3.324 0 0 1 1.307-1.428c.569-.337 1.23-.505 1.981-.505 1.07 0 1.942.327 2.619.981.676.654 1.053 1.543 1.131 2.666l.015.542c0 1.216-.34 2.191-1.018 2.926-.679.735-1.59 1.102-2.732 1.102-1.143 0-2.054-.366-2.736-1.098-.68-.733-1.021-1.729-1.021-2.988v-.096zm2.116.153c0 .752.142 1.327.425 1.725.283.398.689.597 1.216.597.513 0 .913-.197 1.201-.59.288-.393.432-1.021.432-1.886 0-.737-.144-1.308-.432-1.714-.288-.405-.693-.607-1.216-.607-.517 0-.918.201-1.2.604-.284.403-.426 1.026-.426 1.871z" fill="#000"/><path d="M126.299 163.757h1.735l.199 8.516H126.1l.199-8.516zm1.984-2.565c0 .31-.1.568-.3.776-.198.208-.478.311-.837.311-.366 0-.648-.103-.847-.311a1.077 1.077 0 0 1-.299-.776c0-.304.1-.56.299-.768.199-.207.481-.311.847-.311.36 0 .639.104.838.311.2.208.299.464.299.768zm11.596 6.491c-.437.57-1.043 1.002-1.818 1.295-.775.293-1.655.44-2.64.44-1.012 0-1.909-.23-2.69-.689-.78-.46-1.381-1.116-1.804-1.971-.424-.855-.644-1.853-.66-2.993v-.946c0-1.826.437-3.253 1.311-4.28.874-1.026 2.095-1.539 3.66-1.539 1.346 0 2.414.332 3.205.996.791.664 1.267 1.622 1.428 2.872h-2.059c-.232-1.455-1.076-2.183-2.532-2.183-.94 0-1.656.339-2.145 1.017-.49.678-.743 1.673-.76 2.984v.93c0 1.306.275 2.32.826 3.042.55.722 1.316 1.083 2.295 1.083 1.074 0 1.837-.243 2.291-.73v-2.366h-2.49v-1.594h4.582v4.632zm7.479 1.569c-.089-.172-.166-.451-.233-.838a3.14 3.14 0 0 1-2.357 1.004c-.902 0-1.638-.257-2.208-.772-.57-.515-.855-1.151-.855-1.91 0-.957.356-1.691 1.067-2.203.71-.512 1.728-.768 3.05-.768h1.237v-.59c0-.464-.13-.836-.39-1.116-.26-.28-.656-.419-1.187-.419-.46 0-.836.115-1.129.345-.293.23-.44.521-.44.875h-2.017c0-.492.163-.953.49-1.382.326-.429.77-.765 1.332-1.008.562-.244 1.188-.366 1.88-.366 1.052 0 1.89.265 2.515.793.626.529.947 1.272.963 2.229v4.05c0 .809.114 1.453.34 1.935v.141h-2.058zm-2.216-1.453c.398 0 .773-.097 1.124-.29.352-.194.616-.454.793-.78v-1.694h-1.087c-.747 0-1.31.13-1.685.39-.377.26-.565.628-.565 1.104 0 .388.129.696.386.926.257.23.602.344 1.034.344zm7.919-7.528l.058 1.037c.664-.802 1.535-1.204 2.614-1.204 1.87 0 2.823 1.071 2.856 3.213v5.935h-2.017v-5.819c0-.57-.123-.992-.37-1.266-.246-.274-.648-.41-1.207-.41-.814 0-1.42.367-1.818 1.103v6.392h-2.017v-8.981h1.9zm11.538 9.147c-1.279 0-2.315-.403-3.109-1.208-.794-.805-1.191-1.877-1.191-3.216v-.25c0-.896.173-1.697.519-2.402a3.942 3.942 0 0 1 1.456-1.648 3.851 3.851 0 0 1 2.092-.59c1.223 0 2.168.39 2.835 1.17.667.781 1 1.885 1 3.313v.813h-5.868c.06.742.308 1.329.742 1.76.435.432.981.648 1.64.648.924 0 1.677-.374 2.258-1.121l1.087 1.038a3.64 3.64 0 0 1-1.44 1.249c-.6.296-1.274.444-2.021.444zm-.241-7.695c-.553 0-1 .194-1.34.581-.341.388-.558.927-.652 1.619h3.843v-.15c-.044-.675-.224-1.185-.54-1.531-.315-.346-.752-.519-1.311-.519zm7.545 3.968h-1.735l-.19-8.525h2.125l-.2 8.525zm-1.984 2.606c0-.315.103-.577.308-.784.204-.208.484-.311.838-.311s.634.103.838.31c.205.208.307.47.307.785 0 .305-.1.56-.298.764-.2.205-.482.307-.847.307s-.648-.102-.847-.307a1.055 1.055 0 0 1-.299-.764z" fill="#FFF"/></g></svg>