<svg width="64" height="40" fill="none" xmlns="http://www.w3.org/2000/svg"><path d="m2.524 24.356 1.012 2.835-1.562.916C.518 28.96-.195 30.965.382 32.584l.246.69c.579 1.618 2.226 2.237 3.683 1.383l1.302-.764c1.062-.623 1.581-2.082 1.16-3.262l-2.695-7.556-1.554 1.28Zm2.491 6.983c.13.364-.012.806-.34.999l-.79.464c-.656.384-1.398.105-1.659-.623l-.153-.43c-.259-.728.06-1.632.715-2.016l1.368-.802.86 2.408Zm14.37-5.525-2.304-6.46 1.62-.95 2.305 6.459-1.622.951h.002Zm-3.115-5.895.548 1.538a4.78 4.78 0 0 0-1.868.943l1.775 4.976-1.622.951-2.185-6.128a6.38 6.38 0 0 1 3.352-2.28Zm-6.656 3.705-1.262.74c-1.229.72-1.83 2.412-1.343 3.778l.573 1.606c.487 1.366 1.877 1.889 3.107 1.168l2.683-1.574-.62-1.736-2.521 1.48c-.41.24-.873.066-1.036-.39l-.02-.055 4.067-2.385-.522-1.464c-.488-1.366-1.878-1.889-3.107-1.168Zm1.408 1.997.038.09-2.418 1.418-.029-.082c-.161-.456.006-1.038.416-1.279l.945-.554c.405-.238.882-.041 1.048.407Zm14.003-10.927c.289 1.804.454 5.066.284 7.645l-1.622.951c-1.568-1.44-3.333-3.692-4.325-5.274l1.622-.952c.33.512 1.68 2.338 2.729 3.552-.023-1.766-.206-3.993-.311-4.97l1.623-.952Z" fill="#FF444F"/><path d="M32.234 16.729a3.628 3.628 0 0 0 .889.935l-.832.669a2.78 2.78 0 0 1-.565-.465c-.07.241-.195.515-.376.822-.182.306-.473.578-.876.814-.328.192-.643.31-.945.351-.302.043-.59.019-.865-.07a2.209 2.209 0 0 1-.769-.444 3.575 3.575 0 0 1-.647-.754 4.978 4.978 0 0 1-.677-1.57 4.132 4.132 0 0 1-.06-1.679 4.01 4.01 0 0 1 .676-1.605c.355-.514.864-.966 1.528-1.355a3.236 3.236 0 0 1 .531-.251l-1.033-2.91.97-.81 2.572 7.28c.072.189.142.368.212.537.07.17.158.338.267.505Zm-2.107 1.792c.313-.184.538-.403.675-.66.137-.255.233-.514.288-.777a6.052 6.052 0 0 1-.409-.887l-1.101-3.11c-.077.026-.157.06-.242.105a6.16 6.16 0 0 0-.238.132 2.96 2.96 0 0 0-.995.915c-.24.36-.392.745-.46 1.155-.067.41-.051.83.048 1.257.099.428.273.834.524 1.217.109.167.231.315.368.446.136.13.284.23.444.302.16.072.333.103.518.095.185-.009.378-.072.58-.19ZM36.6 15.91a3.2 3.2 0 0 1-1.087.42c-.344.057-.67.047-.976-.028a2.212 2.212 0 0 1-.836-.404 2.853 2.853 0 0 1-.645-.704 5.552 5.552 0 0 1-.722-1.604 4.536 4.536 0 0 1-.145-1.643c.055-.532.22-1.028.499-1.486.278-.459.681-.843 1.21-1.153.306-.18.593-.296.863-.349a1.8 1.8 0 0 1 .738-.005c.223.05.424.14.602.27.178.132.326.288.444.469.223.34.347.665.374.975.027.31-.012.605-.117.887a2.531 2.531 0 0 1-.49.799 7.21 7.21 0 0 1-.738.718 9.418 9.418 0 0 1-.85.64c-.297.2-.579.388-.845.564a1.397 1.397 0 0 0 .138.235c.109.167.232.312.37.437.138.124.3.21.484.256.185.047.398.045.638-.006.24-.05.52-.17.84-.358.142-.083.281-.182.417-.297.136-.115.26-.232.372-.353.112-.121.21-.233.291-.336a.921.921 0 0 0 .155-.249l.65.806c-.098.167-.282.393-.555.678a4.95 4.95 0 0 1-1.08.821Zm-3.09-2.484c.423-.268.8-.527 1.132-.776.332-.25.596-.5.793-.751.197-.25.314-.502.35-.754.037-.252-.032-.511-.207-.78a.774.774 0 0 0-.174-.183.684.684 0 0 0-.265-.122.885.885 0 0 0-.362.002 1.438 1.438 0 0 0-.453.182c-.26.154-.47.351-.626.593a2.403 2.403 0 0 0-.329.786 2.904 2.904 0 0 0-.054.889c.027.31.092.614.195.914Zm8.924-9.111c.328-.192.637-.306.928-.342.291-.035.56-.01.807.076.246.086.471.221.675.407.204.186.386.402.547.648a5.605 5.605 0 0 1 .542 1.14l1.17 3.309-1.039.61-1.084-3.06c-.072-.188-.15-.4-.237-.635a3.246 3.246 0 0 0-.328-.656 2.016 2.016 0 0 0-.313-.373 1.086 1.086 0 0 0-.387-.238c-.14-.048-.3-.06-.479-.035-.179.026-.373.1-.582.222-.238.14-.44.32-.604.542a3.86 3.86 0 0 0-.378.605c.081.093.159.184.234.276.075.091.143.184.205.278.108.167.205.343.29.528.085.185.163.373.235.56l1.17 3.31-1.04.61-1.084-3.06c-.071-.188-.153-.4-.245-.636a3.656 3.656 0 0 0-.345-.67 2.164 2.164 0 0 0-.303-.37 1.128 1.128 0 0 0-.367-.243.906.906 0 0 0-.43-.055 1.29 1.29 0 0 0-.512.187c-.186.11-.36.226-.52.35-.162.125-.29.24-.386.346l1.935 5.476-1.04.61-2.203-6.22c.269-.297.583-.594.941-.89a7.891 7.891 0 0 1 1.008-.718c.313-.184.611-.286.896-.308.285-.022.547.017.787.116a2.98 2.98 0 0 1 .194-.354c.088-.141.197-.29.327-.447.13-.156.279-.314.448-.473.169-.16.358-.3.567-.423Zm8.272 3.32c-.611.359-1.205.464-1.78.316-.576-.148-1.065-.53-1.467-1.145a6.23 6.23 0 0 1-.68-1.434 4.727 4.727 0 0 1-.25-1.626c.013-.549.15-1.074.408-1.577.26-.503.691-.931 1.295-1.285.61-.358 1.204-.464 1.78-.316.576.148 1.065.53 1.466 1.146.274.42.502.898.68 1.433.18.536.264 1.078.25 1.626A3.583 3.583 0 0 1 52 6.35c-.26.503-.69.931-1.294 1.285Zm-.382-.963c.336-.197.574-.467.716-.81a2.74 2.74 0 0 0 .2-1.116c-.01-.4-.082-.807-.216-1.218a4.725 4.725 0 0 0-.529-1.118c-.24-.369-.514-.614-.82-.735-.305-.121-.66-.064-1.062.172a1.652 1.652 0 0 0-.715.81 2.736 2.736 0 0 0-.2 1.116c.01.4.081.807.216 1.218.134.412.31.785.528 1.118.241.37.514.614.82.736.306.12.66.063 1.063-.173Z" fill="#414652"/></svg>