<svg width="64" height="40" fill="none" xmlns="http://www.w3.org/2000/svg"><path d="m2.514 24.788 1.011 2.835-1.56.916c-1.458.855-2.17 2.859-1.593 4.478l.246.689c.578 1.619 2.226 2.238 3.683 1.383l1.302-.763c1.062-.623 1.58-2.083 1.16-3.262l-2.695-7.557-1.554 1.281Zm2.49 6.983c.131.364-.011.807-.339 1l-.791.463c-.655.384-1.397.106-1.658-.623l-.153-.43c-.26-.728.06-1.631.715-2.015l1.368-.803.859 2.408Zm14.371-5.525-2.304-6.46 1.62-.95 2.305 6.46-1.622.95h.001Zm-3.115-5.894.548 1.537a4.78 4.78 0 0 0-1.868.943l1.775 4.977-1.622.951-2.185-6.128a6.379 6.379 0 0 1 3.352-2.28Zm-6.656 3.704-1.262.74c-1.23.721-1.83 2.413-1.343 3.779l.572 1.606c.488 1.366 1.878 1.889 3.107 1.168l2.684-1.575-.62-1.736-2.521 1.48c-.41.24-.874.066-1.036-.39l-.02-.055 4.066-2.385-.522-1.463c-.487-1.366-1.877-1.89-3.107-1.168h.002Zm1.408 1.998.038.09-2.418 1.418-.03-.082c-.16-.456.006-1.038.417-1.279l.944-.554c.406-.238.883-.042 1.049.407Zm14.003-10.928c.288 1.805.453 5.066.284 7.645l-1.622.952c-1.569-1.44-3.334-3.693-4.325-5.275l1.622-.951c.33.512 1.68 2.337 2.728 3.552-.022-1.766-.206-3.993-.31-4.97l1.623-.953Z" fill="#FF444F"/><path d="M32.224 17.161a3.611 3.611 0 0 0 .889.936l-.832.668a2.776 2.776 0 0 1-.566-.464 3.65 3.65 0 0 1-.376.821c-.18.307-.473.578-.875.814-.328.193-.643.31-.945.352-.303.042-.59.018-.866-.07a2.21 2.21 0 0 1-.768-.444 3.578 3.578 0 0 1-.647-.755 4.978 4.978 0 0 1-.677-1.57 4.132 4.132 0 0 1-.06-1.678 3.98 3.98 0 0 1 .676-1.606c.355-.513.864-.965 1.527-1.354a3.203 3.203 0 0 1 .532-.252L28.203 9.65l.97-.81 2.572 7.28c.071.189.142.368.211.537.07.17.159.338.268.504Zm-2.108 1.792c.313-.183.538-.403.675-.659a2.89 2.89 0 0 0 .289-.777 6.154 6.154 0 0 1-.409-.887l-1.102-3.11c-.076.025-.157.06-.24.104a6.014 6.014 0 0 0-.24.133 2.976 2.976 0 0 0-.995.914c-.238.36-.391.746-.459 1.156-.067.41-.051.829.047 1.257.1.427.274.833.525 1.217.108.167.23.315.367.445.137.13.285.231.445.303.16.071.333.103.518.094.185-.008.378-.072.58-.19Zm6.474-2.61c-.38.223-.743.363-1.087.42a2.41 2.41 0 0 1-.977-.029 2.211 2.211 0 0 1-.835-.403 2.857 2.857 0 0 1-.645-.704 5.551 5.551 0 0 1-.722-1.604 4.532 4.532 0 0 1-.145-1.643c.055-.533.22-1.028.498-1.487.278-.458.682-.842 1.21-1.153a2.79 2.79 0 0 1 .863-.348c.27-.053.516-.055.739-.005.223.05.424.14.602.27.178.131.326.287.444.468.222.34.347.666.374.975.026.31-.012.606-.117.888a2.529 2.529 0 0 1-.491.798c-.223.251-.468.49-.737.718a9.433 9.433 0 0 1-.85.641c-.297.2-.579.388-.845.564a1.395 1.395 0 0 0 .138.235c.108.166.232.312.37.436.137.125.3.21.484.257.185.047.398.044.638-.006.24-.05.52-.17.84-.358a3.02 3.02 0 0 0 .417-.297 5.033 5.033 0 0 0 .662-.69.92.92 0 0 0 .156-.248l.65.806c-.098.167-.283.393-.555.678a4.952 4.952 0 0 1-1.08.82Zm-3.09-2.484c.423-.268.8-.527 1.132-.777.331-.25.595-.5.793-.75.197-.251.313-.502.35-.754.037-.252-.032-.512-.207-.78a.77.77 0 0 0-.174-.183.683.683 0 0 0-.266-.123.885.885 0 0 0-.361.002 1.438 1.438 0 0 0-.453.183c-.261.153-.47.35-.626.593a2.399 2.399 0 0 0-.329.786 2.904 2.904 0 0 0-.054.888c.027.31.092.615.195.915Zm8.923-9.111c.328-.192.638-.306.929-.342.291-.035.56-.01.806.075.247.086.472.222.676.408.204.186.386.402.547.648.104.16.203.339.297.539.095.2.176.4.245.6l1.17 3.31-1.039.61-1.085-3.06c-.071-.188-.15-.4-.236-.635a3.236 3.236 0 0 0-.328-.656 2.008 2.008 0 0 0-.313-.373 1.086 1.086 0 0 0-.387-.238c-.14-.048-.3-.06-.479-.035-.18.025-.373.099-.582.221-.238.14-.44.321-.604.543a3.86 3.86 0 0 0-.378.605c.08.092.159.184.234.275a3.805 3.805 0 0 1 .494.807c.086.185.164.372.236.56l1.17 3.31-1.04.61-1.084-3.06c-.072-.188-.153-.4-.246-.637a3.656 3.656 0 0 0-.344-.67 2.16 2.16 0 0 0-.303-.37 1.127 1.127 0 0 0-.368-.242.906.906 0 0 0-.43-.056 1.29 1.29 0 0 0-.511.188c-.187.109-.36.226-.521.35a2.95 2.95 0 0 0-.385.346l1.935 5.475-1.04.61-2.203-6.219a8.83 8.83 0 0 1 .941-.89 7.877 7.877 0 0 1 1.007-.719c.313-.183.612-.286.897-.308.284-.021.547.018.787.117.041-.094.106-.212.194-.354.088-.142.197-.29.326-.447.13-.156.28-.314.449-.473.169-.16.358-.3.566-.423Zm8.272 3.32c-.61.358-1.204.464-1.78.316-.575-.148-1.064-.53-1.466-1.146a6.234 6.234 0 0 1-.68-1.433 4.73 4.73 0 0 1-.25-1.627 3.585 3.585 0 0 1 .408-1.576c.26-.503.691-.931 1.295-1.285.61-.359 1.204-.464 1.78-.316.576.148 1.064.53 1.466 1.145.274.42.501.898.68 1.434a4.72 4.72 0 0 1 .25 1.626 3.584 3.584 0 0 1-.408 1.577c-.26.502-.691.93-1.295 1.285Zm-.38-.963c.335-.197.573-.467.715-.81.141-.344.208-.716.199-1.116-.009-.4-.08-.807-.216-1.219a4.721 4.721 0 0 0-.528-1.117c-.24-.37-.514-.615-.82-.736-.306-.12-.66-.063-1.062.173a1.653 1.653 0 0 0-.716.81 2.736 2.736 0 0 0-.199 1.116c.009.4.08.807.215 1.218.135.412.312.784.529 1.117.24.37.514.615.82.736.306.121.66.064 1.062-.172Z" fill="#fff"/></svg>