<svg xmlns="http://www.w3.org/2000/svg" width="258" height="140"><g fill="none" fill-rule="evenodd"><rect width="258" height="140" fill="#FFF" rx="4"/><path fill="#336" d="M149.033 85.333h31.085c3.053 0 5.527 2.289 5.527 5.111 0 2.823-2.474 5.112-5.527 5.112H38.507c-3.053 0-5.527-2.289-5.527-5.112 0-2.822 2.474-5.11 5.527-5.11h60.79c3.051 0 5.525-2.289 5.525-5.112s-2.474-5.11-5.526-5.11H52.322v-.04c-2.763-.323-4.834-2.496-4.834-5.072s2.071-4.749 4.834-5.072v-.04h19.342c3.053 0 5.527-2.287 5.527-5.11 0-2.823-2.474-5.111-5.527-5.111H46.105c-3.052 0-5.526-2.289-5.526-5.111 0-2.823 2.474-5.112 5.526-5.112h131.25c3.052 0 5.527 2.289 5.527 5.112 0 2.822-2.475 5.11-5.527 5.11h-51.118c-3.052 0-5.526 2.289-5.526 5.112s2.474 5.11 5.526 5.11h30.395c3.052 0 5.526 2.29 5.526 5.112 0 2.823-2.474 5.111-5.526 5.111h-16.58c-3.051 0-5.526 2.288-5.526 5.111s2.475 5.111 5.527 5.111h8.98zM29.526 44.444c3.052 0 5.527 2.289 5.527 5.112 0 2.822-2.475 5.11-5.527 5.11S24 52.379 24 49.557c0-2.823 2.474-5.112 5.526-5.112zM159.395 24h38.684c3.052 0 5.526 2.288 5.526 5.111s-2.474 5.111-5.526 5.111h-38.684c-3.052 0-5.527-2.288-5.527-5.11 0-2.824 2.475-5.112 5.527-5.112zm-23.487 0c3.052 0 5.526 2.288 5.526 5.111s-2.474 5.111-5.526 5.111c-3.052 0-5.526-2.288-5.526-5.11 0-2.824 2.474-5.112 5.526-5.112zm67.006 20.444h9.672c3.052 0 5.526 2.289 5.526 5.112 0 2.822-2.474 5.11-5.526 5.11h-9.672c-3.052 0-5.526-2.288-5.526-5.11 0-2.823 2.474-5.112 5.526-5.112zM178.737 64.89h20.724c3.052 0 5.526 2.288 5.526 5.111s-2.474 5.111-5.526 5.111h-20.724c-3.052 0-5.526-2.288-5.526-5.111s2.474-5.111 5.526-5.111zm19.342 20.444h30.395c3.052 0 5.526 2.289 5.526 5.111 0 2.823-2.474 5.112-5.526 5.112h-30.395c-3.052 0-5.526-2.289-5.526-5.112 0-2.822 2.474-5.11 5.526-5.11zm-131.94 20.445h62.17c3.052 0 5.527 2.288 5.527 5.11 0 2.824-2.475 5.112-5.527 5.112H66.14c-3.053 0-5.527-2.288-5.527-5.111s2.474-5.111 5.526-5.111zm82.894 0h9.67c3.053 0 5.527 2.288 5.527 5.11 0 2.824-2.474 5.112-5.526 5.112h-9.671c-3.052 0-5.526-2.288-5.526-5.111s2.474-5.111 5.526-5.111z" opacity=".08"/><path d="M137 38h63.658v63.658H137z"/><path fill="#336" d="M137.269 38.275h62.761v8.08H137.27v-8.08zm54.782 31.86c0-4.499 3.497-8.08 7.89-8.171v26.442h-25.822c0-4.407 3.497-8.08 7.89-8.08h4.393l-13.359-13.68-21.339 21.944V77.113l21.339-21.944 19.008 19.465v-4.499z"/><path fill="#F93" fill-rule="nonzero" d="M137.269 88.498v8.447h6.366l8.159-8.447z"/><g><path d="M57 38h63.658v63.658H57z"/><path fill="#336" d="M104.699 46.355h7.89v-8.08h7.8v8.08h-7.71v29.473c-4.304 0-7.89-3.581-7.89-8.08v-7.529L77.172 88.498V76.929L99.14 54.435h-7.352c-4.304 0-7.89-3.581-7.89-8.08h-26.27v-8.08h47.07v8.08z"/><path fill="#F93" fill-rule="nonzero" d="M57.628 88.498v8.447h11.386l8.159-8.447z"/></g></g></svg>
