<svg xmlns="http://www.w3.org/2000/svg" width="24" height="17" fill="none"><path fill="#E92434" d="M22 .406H2a2 2 0 0 0-2 2v12a2 2 0 0 0 2 2h20a2 2 0 0 0 2-2v-12a2 2 0 0 0-2-2Z"/><path fill="#fff" fill-rule="evenodd" d="M11.556 3.406c1.604 0 3.032.756 3.946 1.93a4.34 4.34 0 0 0-2.557-.819c-2.302 0-4.167 1.741-4.167 3.89 0 2.147 1.865 3.888 4.167 3.888a4.34 4.34 0 0 0 2.557-.819 5 5 0 1 1-3.947-8.07Zm4.495 2.657.886 1.337L18.49 7l-.998 1.255.861 1.353-1.502-.561-1.02 1.237.069-1.603-1.493-.588 1.546-.429.098-1.601Z" clip-rule="evenodd"/><path fill="#000" fill-opacity=".08" fill-rule="evenodd" d="M22 1.406H2a1 1 0 0 0-1 1v12a1 1 0 0 0 1 1h20a1 1 0 0 0 1-1v-12a1 1 0 0 0-1-1Zm-20-1a2 2 0 0 0-2 2v12a2 2 0 0 0 2 2h20a2 2 0 0 0 2-2v-12a2 2 0 0 0-2-2H2Z" clip-rule="evenodd"/></svg>