<svg width="36" height="24" fill="none" xmlns="http://www.w3.org/2000/svg"><path d="M33 0H3a3 3 0 0 0-3 3v18a3 3 0 0 0 3 3h30a3 3 0 0 0 3-3V3a3 3 0 0 0-3-3Z" fill="#EA403F"/><path d="m18 15.675-4.408 3.143 1.626-5.164-4.35-3.222 5.413-.048L18 5.25l1.72 5.134 5.413.048-4.351 3.222 1.626 5.164L18 15.675Z" fill="#FFFE4E"/><path fill-rule="evenodd" clip-rule="evenodd" d="M33 1.5H3A1.5 1.5 0 0 0 1.5 3v18A1.5 1.5 0 0 0 3 22.5h30a1.5 1.5 0 0 0 1.5-1.5V3A1.5 1.5 0 0 0 33 1.5ZM3 0a3 3 0 0 0-3 3v18a3 3 0 0 0 3 3h30a3 3 0 0 0 3-3V3a3 3 0 0 0-3-3H3Z" fill="#000" fill-opacity=".08"/></svg>