<svg xmlns="http://www.w3.org/2000/svg" width="24" height="16" fill="none"><path fill="#20BD42" d="M0 10.975 22.03 0H2a2 2 0 0 0-2 2v8.975Z"/><path fill="#03ACE1" d="M2.032 16 24 5.005V14a2 2 0 0 1-2 2H2.032Z"/><path fill="#000" d="M0 14v-1.957L23.198.398c.46.345.766.883.8 1.493V3.98L.798 15.6A1.997 1.997 0 0 1 0 14Z"/><path fill="#FCD715" d="M0 10.975v1.073L23.198.398A1.989 1.989 0 0 0 22.03 0L0 10.975ZM24 5.005v-1.02L.803 15.601c.332.25.745.397 1.193.398h.036L24 5.005Z"/><path fill="#000" fill-opacity=".08" fill-rule="evenodd" d="M22 1H2a1 1 0 0 0-1 1v12a1 1 0 0 0 1 1h20a1 1 0 0 0 1-1V2a1 1 0 0 0-1-1ZM2 0a2 2 0 0 0-2 2v12a2 2 0 0 0 2 2h20a2 2 0 0 0 2-2V2a2 2 0 0 0-2-2H2Z" clip-rule="evenodd"/></svg>