<svg width="36" height="24" fill="none" xmlns="http://www.w3.org/2000/svg"><path d="M0 16.5h36V21a3 3 0 0 1-3 3H3a3 3 0 0 1-3-3v-4.5Z" fill="#E53B35"/><path d="M36 7.5H0v9h36v-9Z" fill="#0C47B7"/><path d="M3 0h30a3 3 0 0 1 3 3v4.5H0V3a3 3 0 0 1 3-3Z" fill="#fff"/><path fill-rule="evenodd" clip-rule="evenodd" d="M33 1.5H3A1.5 1.5 0 0 0 1.5 3v18A1.5 1.5 0 0 0 3 22.5h30a1.5 1.5 0 0 0 1.5-1.5V3A1.5 1.5 0 0 0 33 1.5ZM3 0a3 3 0 0 0-3 3v18a3 3 0 0 0 3 3h30a3 3 0 0 0 3-3V3a3 3 0 0 0-3-3H3Z" fill="#000" fill-opacity=".08"/></svg>