<svg width="36" height="24" fill="none" xmlns="http://www.w3.org/2000/svg"><path d="M33 0H3a3 3 0 0 0-3 3v18a3 3 0 0 0 3 3h30a3 3 0 0 0 3-3V3a3 3 0 0 0-3-3Z" fill="#fff"/><path fill-rule="evenodd" clip-rule="evenodd" d="M23.25 12a5.25 5.25 0 1 1-10.5 0c0-1.68 3.525-2.385 6.492-2.12.315-.084.654-.13 1.008-.13 1.657 0 3 1.008 3 2.25Z" fill="#0048AB"/><path fill-rule="evenodd" clip-rule="evenodd" d="M17.25 11.25s1.343-1.5 3-1.5 3 1.008 3 2.25a5.25 5.25 0 0 0-9.996-2.247c-.504 1.497-.504 1.935-.504 2.247.75.75 1.584.75 2.25.75.666 0 1.265-.29 1.677-.75l.573-.75Z" fill="#CD0027"/><path fill-rule="evenodd" clip-rule="evenodd" d="M24.75 8.25h3l-3-3h-1.5l1.5 3Zm-13.5 0h-3l3-3h1.5l-1.5 3Zm13.5 7.5h3l-3 3h-1.5l1.5-3Zm-13.5 0h-3l3 3h1.5l-1.5-3Z" fill="#252526"/><path fill-rule="evenodd" clip-rule="evenodd" d="M33 1.5H3A1.5 1.5 0 0 0 1.5 3v18A1.5 1.5 0 0 0 3 22.5h30a1.5 1.5 0 0 0 1.5-1.5V3A1.5 1.5 0 0 0 33 1.5ZM3 0a3 3 0 0 0-3 3v18a3 3 0 0 0 3 3h30a3 3 0 0 0 3-3V3a3 3 0 0 0-3-3H3Z" fill="#000" fill-opacity=".08"/></svg>