<svg xmlns="http://www.w3.org/2000/svg" width="24" height="16" fill="none"><path fill="#C62429" d="M16 0h6a2 2 0 0 1 2 2v12a2 2 0 0 1-2 2h-6V0Z"/><path fill="#004F99" d="M16 0H8v16h8V0Z"/><path fill="#C62429" d="M4.5 9a1 1 0 0 0 1-1v3a1 1 0 1 0-2 0V8a1 1 0 0 0 1 1Z"/><path fill="#C62429" fill-rule="evenodd" d="M8 0H2a2 2 0 0 0-2 2v12a2 2 0 0 0 2 2h6V0ZM5.5 6l-1-2-1 2h2Zm-2 5a1 1 0 1 0 2 0v1h1V8h-1a1 1 0 0 0-2 0h-1v4h1v-1Z" clip-rule="evenodd"/><path fill="#000" fill-opacity=".08" fill-rule="evenodd" d="M22 1H2a1 1 0 0 0-1 1v12a1 1 0 0 0 1 1h20a1 1 0 0 0 1-1V2a1 1 0 0 0-1-1ZM2 0a2 2 0 0 0-2 2v12a2 2 0 0 0 2 2h20a2 2 0 0 0 2-2V2a2 2 0 0 0-2-2H2Z" clip-rule="evenodd"/><path fill="#FAD000" fill-rule="evenodd" d="M2.5 8h1v4h-1V8Zm3 0h1v4h-1V8Z" clip-rule="evenodd"/><path fill="#FAD000" d="M4.5 12a1 1 0 1 0 0-2 1 1 0 0 0 0 2ZM4.5 9a1 1 0 1 0 0-2 1 1 0 0 0 0 2Z"/><path fill="#FAD000" fill-rule="evenodd" d="m4.5 4 1 2h-2l1-2Z" clip-rule="evenodd"/></svg>