<svg width="24" height="17" fill="none" xmlns="http://www.w3.org/2000/svg"><path d="M22 .406H2a2 2 0 0 0-2 2v12a2 2 0 0 0 2 2h20a2 2 0 0 0 2-2v-12a2 2 0 0 0-2-2Z" fill="#ED3C3C"/><path d="M8.602 4.82c-.13.15-.26.301-.38.43h3.605c0 .432-.011.832-.033 1.177h.617v.647h-.67l-.098.68h.444v.528h-.563c-.022.065-.033.119-.054.173l.314.237c-.585.291-1.18.54-1.786.744.757-.032 1.493-.053 2.23-.075.454-.227.908-.475 1.374-.734l.725.475a18.265 18.265 0 0 1-4.091 1.683 125.98 125.98 0 0 0 4.177-.248c-.238-.173-.487-.356-.746-.529l.725-.442c1.028.647 1.818 1.208 2.37 1.704l-.812.561a12.605 12.605 0 0 0-.768-.69c-.93.054-1.818.108-2.662.15v1.263c0 .561-.336.852-.996.852h-1.017l-.174-.82c.314.033.617.054.899.054.205 0 .314-.107.314-.302v-1.003c-1.288.065-2.479.108-3.561.14l-.217-.841c.282.01.552.021.823.021.78-.161 1.59-.42 2.446-.765l-2.468.086-.151-.712c.368 0 .617-.033.768-.097.466-.173.942-.378 1.44-.637.021-.086.054-.172.075-.248H7.574c.075-.41.14-.809.205-1.208h-.703v-.647h.779c.043-.313.076-.615.097-.917-.14.13-.281.259-.422.367L7 5.24c.595-.442 1.115-1.046 1.548-1.823l.844.183c-.098.173-.195.346-.292.507h3.181v.712h-3.68Zm0 2.168-.13.766h1.656a7.341 7.341 0 0 0-1.147-.41l.227-.356h-.606Zm1.558.766h.671c.054-.26.098-.507.13-.766h-1.71c.422.118.8.248 1.147.399l-.238.367Zm.844-1.22.033-.765H8.742a16.54 16.54 0 0 1-.086.766h1.504a6.01 6.01 0 0 0-1.017-.4l.249-.356c.39.108.757.26 1.093.432l-.206.324h.725Zm2.587-1.337a3.23 3.23 0 0 0 .942 1.424c.346-.41.616-.885.79-1.424H13.59Zm.335 1.985a4.244 4.244 0 0 1-.876-1.316 7.07 7.07 0 0 1-.52.582l-.54-.647c.562-.582 1.049-1.38 1.46-2.395l.877.194c-.108.28-.227.54-.347.788h2.814v.809h-.627c-.195.777-.52 1.413-.953 1.93.498.325 1.093.594 1.786.82l-.465.81c-.78-.28-1.429-.615-1.948-1.003-.541.431-1.202.744-1.96.949l-.476-.744c.715-.173 1.3-.432 1.775-.777Zm-.173 4.347c1.082.26 2.078.583 2.976.971l-.519.81a16.903 16.903 0 0 0-2.965-1.026l.508-.755Zm-3.798.043.54.615c-.8.453-1.785.83-2.943 1.133l-.379-.798c1.126-.238 2.056-.561 2.782-.95Z" fill="#fff"/><path fill-rule="evenodd" clip-rule="evenodd" d="M22 1.406H2a1 1 0 0 0-1 1v12a1 1 0 0 0 1 1h20a1 1 0 0 0 1-1v-12a1 1 0 0 0-1-1Zm-20-1a2 2 0 0 0-2 2v12a2 2 0 0 0 2 2h20a2 2 0 0 0 2-2v-12a2 2 0 0 0-2-2H2Z" fill="#000" fill-opacity=".08"/></svg>