<svg xmlns="http://www.w3.org/2000/svg" xmlns:xlink="http://www.w3.org/1999/xlink" width="36" height="24"><defs><rect id="a" width="36" height="24" rx="3"/></defs><g fill="none" fill-rule="evenodd"><mask id="b" fill="#fff"><use xlink:href="#a"/></mask><path fill="#DD172C" d="M0 0h36v6H0zm0 18h36v6H0z" mask="url(#b)"/><path fill="#FFD133" d="M0 6h36v12H0z" mask="url(#b)"/><g mask="url(#b)"><path fill="#FFEDB1" d="M8 11h2v1H8z"/><path stroke="#A41517" d="M6.08 10.95l.252 3.01c.07.85.82 1.54 1.668 1.54.85 0 1.598-.692 1.668-1.54l.251-3.01a.406.406 0 00-.419-.45h-3a.402.402 0 00-.42.45z"/><path fill="#A41517" d="M6 12h4v1H9l-1 2-1-2H6zM3 9h2v7H3zm8 0h2v7h-2zM6 8a1 1 0 011.01-1h1.98C9.549 7 10 7.444 10 8v.495A.495.495 0 019.51 9H6.49A.49.49 0 016 8.495V8z"/></g><rect width="34.5" height="22.5" x=".75" y=".75" stroke="#a9a9a9" stroke-opacity=".04" stroke-width="1.5" mask="url(#b)" rx="3"/></g></svg>