<svg width="299" height="197" xmlns="http://www.w3.org/2000/svg"><g fill="none"><path fill="#F1F2F2" d="M0 0h299v197H0z"/><path d="M1.987 1.98v193.04h295.026V1.98H1.987zM299 0v197H0V0h299z" fill="#C2C2C2"/><path d="M5 53.894v-1.207h290v1.207H5zM5 74.22v-1.207h290v1.207H5zm0 20.29v-1.207h290v1.207H5zm0 40.618v-1.207h290v1.207H5zm0 20.29v-1.207h290v1.207H5zm0 20.29v-1.207h290v1.207H5zM39.42 33h1.209v160H39.42V33zm36.709 0h1.208v160h-1.208V33zm36.67 0h1.209v160H112.8V33zm36.71 0h1.207v160h-1.208V33zm36.67 0h1.208v160h-1.208V33zm36.671 0h1.208v160h-1.208V33zm36.708 0h1.209v160h-1.209V33z" fill="#DFDEDE"/><path fill="#C2C2C2" d="M1 30v-2h297v2z"/><path d="M188.522 145.307h-35.42L147.649 137l-5.455 8.307h-35.42c-2.652 0-4.773 2.163-4.773 4.856v25.074c0 2.693 2.16 4.855 4.773 4.855h81.787c2.652 0 4.773-2.162 4.773-4.855v-25.074c0-2.693-2.16-4.856-4.811-4.856z" fill="#E88024"/><path fill="#2A3052" d="M5.262 116.411v-1.485h288.35v1.485z"/><path d="M75.147 141.429a1.818 1.818 0 0 1-2.43.253l-33.463-24.547a1.818 1.818 0 1 1 2.15-2.932l32.134 23.572 33.52-37.454a1.818 1.818 0 0 1 2.69-.02l31.776 34.444 43.18-42.625a1.818 1.818 0 0 1 2.914.506l42.02 87.307 28.114-24.84a1.818 1.818 0 0 1 2.407 2.725l-29.915 26.43a1.818 1.818 0 0 1-2.841-.574l-41.957-87.179-42.706 42.158a1.818 1.818 0 0 1-2.613-.06l-31.694-34.357-33.286 37.193z" fill="#2A3052"/><ellipse fill="#FFF" opacity=".6" cx="40.33" cy="115.669" rx="8.067" ry="8.496"/><path d="M40.33 125.376c-5.14 0-9.28-4.36-9.28-9.707 0-5.348 4.14-9.708 9.28-9.708 5.139 0 9.279 4.36 9.279 9.708s-4.14 9.707-9.28 9.707zm0-2.423c3.771 0 6.855-3.248 6.855-7.284 0-4.037-3.084-7.284-6.855-7.284-3.772 0-6.856 3.247-6.856 7.284 0 4.036 3.084 7.284 6.856 7.284z" fill="#E88024"/><ellipse fill="#FFF" opacity=".6" cx="258.956" cy="155.855" rx="8.067" ry="8.496"/><path d="M258.956 165.563c-5.14 0-9.28-4.36-9.28-9.707 0-5.348 4.14-9.708 9.28-9.708 5.139 0 9.279 4.36 9.279 9.708s-4.14 9.707-9.28 9.707zm0-2.423c3.771 0 6.855-3.248 6.855-7.284 0-4.037-3.084-7.284-6.855-7.284-3.772 0-6.856 3.247-6.856 7.284 0 4.036 3.084 7.284 6.856 7.284z" fill="#E88024"/><g opacity=".9" fill="#6D6E71"><path d="M265.749 141.536h.885v-7.133l1.17 2.09.555-.86c-1.043-1.355-1.618-2.085-1.725-2.188l.01-.775h1.41v-.86h-1.41l-.01-2.434h-.885v2.433h-1.687v.86h1.58c-.097.966-1.326 3.73-1.964 4.401.012.004.155.355.43 1.053.741-1.328 1.135-2.125 1.641-3.596v7.009zm-13.742.051v-11.45h8.963v11.45h-1.017v-.85h-6.945v.85h-1.001zm8.035-10.638h-7.033v2.275h7.033v-2.275zm-.023 3.105h-6.987v2.342h6.987v-2.342zm-.013 3.263h-6.96v2.47h6.96v-2.47zm8.77-7.179h7.333v.8h-2.2v.993h1.981v3.117h-6.803v-3.117h2.002v-.993h-2.313v-.8zm4.346.861h-1.29v.95h1.29v-.95zm.758 1.705v1.62h1.153v-1.62h-1.153zm-.773-.01h-1.223v1.627h1.223v-1.627zm-1.96-.021h-1.174v1.663h1.174v-1.663zm4.374 3.002v.773h-6.147v-.773h6.147zm.588 1.786v.739h-3.294v3.33h-.817v-3.33h-3.212v-.74l7.323.001z"/><path d="M273.816 139.329c.278-.28.467-.458.566-.536.346.263 1.54 1.428 1.975 2.086-.15.16-.364.373-.645.636-.215-.424-.847-1.153-1.896-2.186zm-3.328-.807c.29.248.492.42.606.514-.72.956-1.445 1.7-2.172 2.234a9.192 9.192 0 0 1-.563-.683c1.148-.93 1.857-1.617 2.129-2.065z"/></g><path d="M139.476 166.842v1.276c0 .132-.022.264-.022.396h2.332v-1.672h-2.31zm2.31-1.034v-1.782h-2.31v1.782h2.31zm-2.398 3.74c-.198 1.452-.66 2.684-1.386 3.674l-.968-.88c.792-1.1 1.188-2.486 1.21-4.158v-5.302h4.752v8.932c0 .88-.484 1.32-1.43 1.32h-1.1l-.308-1.21c.352.022.704.044 1.012.044.396 0 .616-.22.616-.616v-1.804h-2.398zm-.308-14.08h-1.848v-1.188h9.042a7.51 7.51 0 0 0-.616-1.1l1.562-.264c.242.418.462.88.66 1.364h8.888v1.188h-16.28v1.188h14.96v1.078H139.08v-2.266zm16.786 17.336h-1.034c-.726 0-1.078-.352-1.078-1.012v-3.014l-.682.462c-.374-.748-.88-1.54-1.496-2.398v.374c0 1.496-.11 2.662-.286 3.454-.22.792-.638 1.65-1.298 2.53l-.99-.88-.352.418c-.528-.66-1.1-1.232-1.694-1.716l.748-.704c.594.44 1.144.968 1.628 1.54.352-.55.594-1.056.726-1.518.176-.616.286-1.672.286-3.124v-4.334h4.642v8.558c0 .176.088.286.286.286h.396c.154 0 .286-.132.374-.352.066-.242.132-1.056.198-2.442l.99.352c-.132 1.584-.264 2.574-.418 2.948-.176.374-.506.572-.946.572zm-4.29-6.314l.66-.396c.66.88 1.166 1.628 1.518 2.288v-4.268h-2.178v2.376zm-7.458-3.608h5.016v7.106h-5.016v-7.106zm3.784 6.138v-1.166h-2.574v1.166h2.574zm-2.574-2.002h2.574v-1.122h-2.574v1.122zm0-1.936h2.574v-1.21h-2.574v1.21zm.132 5.258l.792.704c-.572.814-1.298 1.518-2.134 2.134l-.682-.902a8.915 8.915 0 0 0 2.024-1.936zm-5.72-11.638h14.454v3.19H139.74v-3.19zm12.98 2.266v-1.342h-11.506v1.342h11.506zm7.92-5.676h2.046l-.33 11.484h-1.364l-.352-11.484zm1.012 13.09c.396 0 .704.11.968.374.242.242.374.55.374.924 0 .396-.132.704-.374.946a1.402 1.402 0 0 1-.968.374 1.26 1.26 0 0 1-.924-.374 1.28 1.28 0 0 1-.396-.946c0-.374.132-.682.396-.924.242-.264.55-.374.924-.374z" fill="#FFF"/><path d="M16.17 10.165h4.935v5.1H19.68v1.95h1.53v1.47h-1.53V20.8c.51-.15 1.005-.315 1.485-.465v1.56c-1.53.51-3.3.99-5.28 1.425l-.45-1.5.645-.135V16.54h1.38v4.845c.27-.06.525-.12.765-.18v-5.94H16.17v-5.1zm3.45 3.66v-2.22h-1.95v2.22h1.95zm3.795-.105c-.21.75-.45 1.425-.72 2.055l-1.29-.81c.615-1.38 1.05-2.85 1.32-4.395l1.335.285c-.09.48-.165.93-.255 1.365h.975V9.73h1.47v2.49h2.25v1.5h-2.265c-.045.885-.105 1.71-.195 2.46h3.03v1.515h-2.58c.375 1.935 1.395 3.45 3.045 4.545l-.87 1.395c-1.59-1.215-2.655-2.775-3.21-4.665-.12.36-.24.69-.36 1.005-.69 1.56-1.785 2.76-3.315 3.6l-.795-1.26c1.47-.9 2.46-2.04 2.97-3.39.12-.39.24-.795.345-1.23h-2.715V16.18h2.985c.09-.765.165-1.59.195-2.46h-1.35z" fill="#000"/><path d="M28.375 142.67h1.995v-1.725h-1.59v-.93h7.275v.93H34.6v1.725h1.935v.96H34.6v3.45h-.99v-3.45h-2.34c-.09.795-.27 1.47-.54 2.01-.36.705-.975 1.26-1.815 1.65l-.54-.855c.735-.36 1.26-.84 1.56-1.44.165-.39.285-.855.36-1.365h-1.92v-.96zm5.235 0v-1.725h-2.265v1.725h2.265zm-6.225-5.715v1.095h3.375v-1.095h-3.375zm3.375-.765v-1.155h-3.375v1.155h3.375zm3.36.765v1.065h3.465v-1.065H34.12zm3.465-.765v-1.125H34.12v1.125h3.465zm-5.775-2.01v4.74h-4.425v8.445h-1.08V134.18h5.505zm5.775 4.695H33.07v-4.68h5.58v11.625c0 .99-.45 1.485-1.35 1.485a29.2 29.2 0 0 1-1.62-.045l-.255-.96c.54.03 1.035.06 1.485.06.45 0 .675-.3.675-.87v-6.615zm4.875-5.19l1.065.09a128.68 128.68 0 0 1-.405 2.835h2.22v.63c-.12 2.43-.54 4.515-1.26 6.285.705.735 1.29 1.395 1.74 1.995l-.72.84a23.161 23.161 0 0 0-1.5-1.785c-.6 1.14-1.335 2.13-2.235 2.97l-.675-.855a9.862 9.862 0 0 0 2.175-2.91 79.046 79.046 0 0 0-1.935-1.905 46.84 46.84 0 0 0 .945-4.23h-1.2v-1.035h1.38c.15-.945.285-1.92.405-2.925zm.855 9.06c.57-1.5.9-3.195 1.005-5.1h-1.365c-.285 1.575-.57 2.88-.87 3.915.435.405.84.795 1.23 1.185zm9.945-1.62v6.39h-1.035v-.9h-4.59v.9H46.6v-6.39h6.66zm-5.625 4.47h4.59v-3.48h-4.59v3.48zm-1.62-5.82l-.165-.975c.87-.45 1.95-2.13 3.24-5.07l1.02.345c-.9 1.95-1.785 3.495-2.685 4.65a51.085 51.085 0 0 0 4.8-.525c-.42-.825-.84-1.59-1.275-2.28l.93-.45a37.871 37.871 0 0 1 2.325 4.335l-1.005.48c-.18-.405-.345-.795-.525-1.17-1.995.285-4.215.51-6.66.66zm205.275 43.93l.975.12c-.075 1.29-.255 2.445-.54 3.435l-.975-.285c.3-.96.48-2.04.54-3.27zm2.565-.225c.21.93.405 1.95.585 3.06l-1.005.225a38.303 38.303 0 0 0-.465-3.09l.885-.195zm1.485-3.81c.33.855.63 1.83.9 2.94l-.9.24c-.06-.255-.12-.51-.18-.75-1.41.42-2.775.705-4.065.87l-.285-.99c.195-.075.36-.18.495-.3.555-.54 1.215-1.44 1.995-2.7-.75.12-1.53.24-2.31.36l-.27-.99c.165-.075.315-.21.45-.405.78-1.23 1.44-2.655 2.01-4.245l1.035.405c-.735 1.725-1.485 3.12-2.235 4.17.63-.075 1.275-.165 1.905-.27.33-.57.66-1.185 1.02-1.83l1.005.36c-1.44 2.52-2.61 4.29-3.54 5.31.84-.15 1.695-.33 2.565-.555-.15-.465-.3-.915-.45-1.35l.855-.27zm.255 3.42c.36.78.66 1.635.93 2.535l-.9.39c-.27-.99-.555-1.875-.87-2.655l.84-.27zm.465-7.41h3.63v-1.92h1.065v1.92h3.585v1.035h-3.585v2.28h3.255v1.035h-7.545v-1.035h3.225v-2.28h-3.63v-1.035zm7.47 5.805v6.015h-1.05v-.69h-4.44v.69h-1.05v-6.015h6.54zm-5.49 4.305h4.44v-3.285h-4.44v3.285zm8.04-10.5h5.865v-1.5h1.11v1.5h5.835v1.035h-5.835v1.47h4.725v4.245h-3.81c1.08 1.53 2.91 2.88 5.46 4.08l-.735.93c-2.655-1.485-4.515-3.15-5.595-5.01h-.045v5.445h-1.11v-5.445h-.045c-1.14 2.04-3.03 3.72-5.685 5.04l-.63-.99c2.49-1.05 4.305-2.4 5.43-4.05h-3.765v-4.245h4.695v-1.47h-5.865v-1.035zm10.62 5.76v-2.235h-3.645v2.235h3.645zm-4.755 0v-2.235h-3.615v2.235h3.615z" fill="#2A3052"/></g></svg>