<svg width="299" height="197" xmlns="http://www.w3.org/2000/svg"><g fill="none"><path fill="#F1F1F2" d="M0 0h299v197H0z"/><path d="M1.987 1.98v193.04h295.026V1.98H1.987zM299 0v197H0V0h299z" fill="#C2C2C2"/><path d="M4.58 54.993v-1.211h290.408v1.21H4.58zm0 80.353v-1.211h290.408v1.211H4.58zm0 20.079v-1.211h290.408v1.211H4.58zm0 20.079v-1.211h290.408v1.21H4.58zM39.06 34.308h1.21V192.59h-1.21V34.308zm36.75 0h1.21V192.59h-1.21V34.308zm36.75 0h1.211V192.59h-1.21V34.308zm36.713 0h1.211V192.59h-1.211V34.308zm36.75 0h1.212V192.59h-1.212V34.308zm36.75 0h1.212V192.59h-1.211V34.308zm36.751 0h1.212V192.59h-1.212V34.308zM4.58 115.268v-1.212h290.408v1.211H4.58zm0-40.196V73.86h290.408v1.21H4.58z" fill="#DEDEDD"/><path d="M4.58 95.188v-1.21h3.595v1.21H4.58zm7.19 0v-1.21h3.596v1.21h-3.595zm7.192 0v-1.21h3.595v1.21h-3.595zm7.191 0v-1.21h3.596v1.21h-3.596zm7.191 0v-1.21h3.596v1.21h-3.596zm7.191 0v-1.21h3.596v1.21h-3.596zm7.191 0v-1.21h3.596v1.21h-3.596zm7.192 0v-1.21h3.595v1.21h-3.595zm7.19 0v-1.21h3.596v1.21H62.11zm7.192 0v-1.21h3.595v1.21H69.3zm7.191 0v-1.21h3.596v1.21H76.49zm7.191 0v-1.21h3.596v1.21h-3.596zm7.191 0v-1.21h3.596v1.21h-3.596zm7.191 0v-1.21h3.596v1.21h-3.596zm7.192 0v-1.21h3.595v1.21h-3.595zm7.19 0v-1.21h3.596v1.21h-3.595zm7.192 0v-1.21h3.595v1.21h-3.595zm7.191 0v-1.21h3.596v1.21h-3.596zm7.191 0v-1.21h3.596v1.21h-3.596zm7.191 0v-1.21h3.596v1.21h-3.596zm7.191 0v-1.21h3.596v1.21h-3.596zm7.192 0v-1.21h3.595v1.21h-3.595zm7.19 0v-1.21h3.596v1.21h-3.595zm7.192 0v-1.21h3.595v1.21h-3.595zm7.191 0v-1.21h3.596v1.21h-3.596zm7.191 0v-1.21h3.596v1.21h-3.596zm7.191 0v-1.21h3.596v1.21h-3.596zm7.191 0v-1.21h3.596v1.21h-3.596zm7.192 0v-1.21h3.595v1.21h-3.595zm7.19 0v-1.21h3.596v1.21h-3.595zm7.192 0v-1.21h3.595v1.21h-3.595zm7.19 0v-1.21h3.597v1.21h-3.596zm7.192 0v-1.21h3.596v1.21h-3.596zm7.191 0v-1.21h3.596v1.21h-3.596zm7.191 0v-1.21h3.596v1.21h-3.596zm7.191 0v-1.21h3.596v1.21h-3.596zm7.192 0v-1.21h3.595v1.21h-3.595zm7.19 0v-1.21h3.596v1.21h-3.595zm7.192 0v-1.21h3.595v1.21h-3.595zm7.191 0v-1.21h3.596v1.21h-3.596zm7.191 0v-1.21h2.763v1.21h-2.763z" fill="#293052"/><path fill="#C2C2C2" d="M2 30v-2h296v2z"/><path d="M40.913 115.955a1.798 1.798 0 0 1-2.496-2.587l36.75-35.46a1.798 1.798 0 0 1 2.695.227l35.663 48.38 35.183-26.994a1.798 1.798 0 0 1 2.31.102l35.878 32.923 72.372-39.54a1.798 1.798 0 0 1 1.724 3.155l-73.501 40.157a1.798 1.798 0 0 1-2.078-.253L149.7 103.293l-35.44 27.191a1.798 1.798 0 0 1-2.541-.36L76.186 81.922l-35.273 34.034z" fill="#293052"/><path d="M188.65 145.07h-35.047l-5.526-8.07-5.299 8.07h-35.047a4.733 4.733 0 0 0-4.731 4.735v24.511a4.733 4.733 0 0 0 4.731 4.736h80.92a4.729 4.729 0 0 0 3.418-1.346 4.738 4.738 0 0 0 1.426-3.39v-24.473a4.738 4.738 0 0 0-1.412-3.414 4.729 4.729 0 0 0-3.433-1.36z" fill="#E88024"/><ellipse cx="8.333" cy="8.585" rx="8.137" ry="8.373" opacity=".6" transform="translate(251.797 87.135)" fill="#FFF"/><path d="M260.13 105.303c-5.17 0-9.348-4.298-9.348-9.584 0-5.285 4.177-9.583 9.348-9.583 5.17 0 9.348 4.298 9.348 9.583 0 5.286-4.177 9.584-9.348 9.584zm0-2.422c3.817 0 6.926-3.199 6.926-7.162 0-3.962-3.109-7.16-6.926-7.16s-6.926 3.198-6.926 7.16c0 3.963 3.109 7.162 6.926 7.162z" fill="#E88024"/><ellipse cx="8.386" cy="8.585" rx="8.137" ry="8.373" opacity=".6" transform="translate(31.278 106.077)" fill="#FFF"/><path d="M39.665 124.245c-5.171 0-9.349-4.298-9.349-9.583 0-5.286 4.178-9.584 9.349-9.584 5.17 0 9.348 4.298 9.348 9.584 0 5.285-4.177 9.583-9.348 9.583zm0-2.422c3.817 0 6.926-3.199 6.926-7.161 0-3.963-3.109-7.162-6.926-7.162-3.818 0-6.926 3.199-6.926 7.162 0 3.962 3.108 7.161 6.926 7.161zM247.564 65.98h25.094v16.518h-25.094z" fill="#E88024"/><path fill="#E88024" d="M257.698 82.48l2.382-2.385 2.382 2.384-2.382 2.384z"/><path d="M262.439 76.057h1.4v1.099h-1.4v2.349h-1.287v-2.349h-4.693v-.796l4.693-7.122h1.476v6.82h-.19zm-4.504 0h3.217v-4.811.34l-3.217 4.471z" fill="#FFF"/><path fill="#D5D3DA" d="M137.35 79.202h25.094v16.517h-25.093z"/><path fill="#D5D3DA" d="M147.51 95.696l2.383-2.384 2.381 2.384-2.381 2.384z"/><path d="M148.554 86.93h1.21c.476.045.946-.122 1.288-.454.273-.372.407-.828.378-1.288a1.857 1.857 0 0 0-.454-1.326 1.702 1.702 0 0 0-1.287-.455 1.778 1.778 0 0 0-1.287.492 1.706 1.706 0 0 0-.492 1.25h-1.286c-.019-.8.347-1.56.984-2.045a3.782 3.782 0 0 1 4.58 0c.579.563.883 1.352.832 2.16a2.462 2.462 0 0 1-1.552 2.234 2.271 2.271 0 0 1 1.325.948c.253.437.384.934.378 1.44a2.766 2.766 0 0 1-.908 2.197 3.442 3.442 0 0 1-2.347.795 3.518 3.518 0 0 1-2.308-.758 2.425 2.425 0 0 1-1.06-2.197h1.362c-.024.48.154.947.492 1.288.371.339.861.516 1.363.493a1.93 1.93 0 0 0 1.4-.493c.31-.356.472-.816.454-1.288a1.592 1.592 0 0 0-1.854-1.856h-1.211V86.93z" fill="#293052"/><path fill="#D5D3DA" d="M27.1 84.43h25.093v16.517H27.099z"/><path fill="#D5D3DA" d="M37.28 100.966l2.381-2.384 2.382 2.384-2.382 2.384z"/><path fill="#293052" d="M40.384 97.955H39.02v-8.903H36.9v-.985l3.483-.38z"/><path d="M25.14 12.3c-.09.33-.195.66-.285.975.18 1.47.555 2.79 1.125 3.96.54-1.41.855-3.045.915-4.935H25.14zm.015 6.585a13.55 13.55 0 0 1-1.26-3.285c-.105.18-.21.345-.3.51l-.975-1.215v2.25h-2.775c-.105.195-.21.375-.3.555h3.12v.975c-.375.66-.9 1.26-1.575 1.8.585.24 1.185.51 1.785.81l-.015-.03a7.862 7.862 0 0 0 2.295-2.37zm-5.505 1.05c.54-.33.975-.69 1.335-1.065h-2.1l-.45.705c.39.105.795.225 1.215.36zm3.315 1.5L22.2 22.47a23.402 23.402 0 0 0-2.4-1.155c-.915.495-2.01.93-3.27 1.29l-.855-1.125c.96-.24 1.8-.51 2.52-.81a19.97 19.97 0 0 0-1.68-.555c.285-.42.555-.84.825-1.245h-1.65V17.7h2.37c.105-.195.21-.375.315-.555h-2.22v-2.67h2.52v-.51H16.35v-1.65h-.54v-1.26h.54V9.42h2.325V8.7h1.41v.72h2.34v1.635h.555v1.26h-.555v1.65h-2.34v.51h2.535v.375c.795-1.56 1.335-3.66 1.62-6.3l1.545.27c-.09.705-.195 1.365-.315 1.995h3.735V12.3h-.87c-.09 2.55-.57 4.71-1.44 6.495.69.99 1.545 1.86 2.565 2.595l-.945 1.26c-.975-.69-1.8-1.5-2.475-2.4a10.256 10.256 0 0 1-2.325 2.37l-.75-1.185zM21.09 12.9v-.72h-1.005v.72h1.005zm-1.005-1.71h1.005v-.72h-1.005v.72zm-1.41 1.71v-.72h-.99v.72h.99zm-.99-1.71h.99v-.72h-.99v.72zm3.615 4.95v-.66h-1.215v.66H21.3zm-2.625 0v-.66h-1.2v.66h1.2zm25.305-6.045v3.585h-1.575v-2.1h-9.81v2.1H31.02v-3.585h5.655c-.21-.45-.42-.885-.66-1.275l1.815-.3c.21.465.42.99.6 1.575h5.55zM33.39 12.81h8.205v1.44c-.93.66-1.98 1.305-3.12 1.935v.645h5.73v1.5h-5.73V21c0 1.005-.525 1.515-1.56 1.515H35.07l-.375-1.425c.51.03 1.08.045 1.695.045.33 0 .51-.225.51-.66V18.33h-6.09v-1.5h6.09v-1.275c.99-.51 1.785-.945 2.37-1.305h-5.88v-1.44zm21.93-.495h-3.27c-.165.45-.345.87-.525 1.275h3.465l.33-1.275zm-4.515 2.655c-.3.495-.615.975-.945 1.425h6.45l.3-1.425h-5.805zm7.035 1.425h1.335c-.03 2.955-.225 4.725-.6 5.295-.39.585-1.065.885-2.01.885-.42 0-.915-.03-1.485-.075l-.405-1.47c.615.045 1.125.075 1.53.105.6-.015.975-.21 1.125-.57.15-.345.24-1.275.27-2.775h-8.955c-.69.69-1.455 1.29-2.265 1.815l-.78-1.395c2.16-1.44 3.765-3.405 4.8-5.895h-3.765v-1.38h2.205c-.285-.435-.63-.9-1.02-1.395l1.23-.78c.54.63.945 1.2 1.245 1.68l-.705.495h1.305c.21-.72.39-1.455.54-2.235l1.545.195c-.15.72-.315 1.395-.495 2.04h4.575l-.54 2.655h1.8l-.48 2.805zm-9.51 2.19l1.425.315c-.39 1.245-.93 2.325-1.635 3.24l-1.365-.87c.735-.84 1.26-1.74 1.575-2.685zm3.225.24c.315.645.525 1.53.63 2.67l-1.485.18c-.075-1.17-.225-2.055-.465-2.685l1.32-.165zm2.085-.3c.42.81.75 1.56.99 2.25l-1.41.525c-.21-.84-.48-1.65-.78-2.43l1.2-.345zm2.28-.42c.36.615.69 1.335.99 2.16l-1.425.36a12.83 12.83 0 0 0-.81-2.115l1.245-.405zm9.63-8.955h7.785v6.135H70.11v.825h3.87v4.77c0 1.08-.525 1.62-1.545 1.62H71.1l-.375-1.41 1.245.06c.375 0 .57-.21.57-.6v-3.12h-2.625v1.485c.3-.045.585-.09.84-.135-.09-.27-.165-.525-.24-.765l1.05-.345c.285.795.54 1.71.765 2.73l-1.125.3c-.045-.255-.09-.495-.15-.735-.99.27-2.34.48-4.065.63l-.435-1.44c.765-.03 1.455-.06 2.07-.105v-1.62h-2.31v5.13h-1.47v-6.45h3.795v-.825h-3.09V9.15zm6.285 4.86v-1.14H70.11v1.14h1.725zm-3.195 0v-1.14h-1.62v1.14h1.62zm-1.62-2.43h1.62v-1.11h-1.62v1.11zm3.09-1.11v1.11h1.725v-1.11H70.11zm-7.86 4.245a25.59 25.59 0 0 1-1.305 1.515l-.525-1.68c1.47-1.695 2.565-3.69 3.27-5.985l1.47.69c-.36 1.11-.81 2.16-1.38 3.18V22.59h-1.53v-7.875zM85.14 12.3c-.09.33-.195.66-.285.975.18 1.47.555 2.79 1.125 3.96.54-1.41.855-3.045.915-4.935H85.14zm.015 6.585a13.55 13.55 0 0 1-1.26-3.285c-.105.18-.21.345-.3.51l-.975-1.215v2.25h-2.775c-.105.195-.21.375-.3.555h3.12v.975c-.375.66-.9 1.26-1.575 1.8.585.24 1.185.51 1.785.81l-.015-.03a7.862 7.862 0 0 0 2.295-2.37zm-5.505 1.05c.54-.33.975-.69 1.335-1.065h-2.1l-.45.705c.39.105.795.225 1.215.36zm3.315 1.5L82.2 22.47a23.402 23.402 0 0 0-2.4-1.155c-.915.495-2.01.93-3.27 1.29l-.855-1.125c.96-.24 1.8-.51 2.52-.81a19.97 19.97 0 0 0-1.68-.555c.285-.42.555-.84.825-1.245h-1.65V17.7h2.37c.105-.195.21-.375.315-.555h-2.22v-2.67h2.52v-.51H76.35v-1.65h-.54v-1.26h.54V9.42h2.325V8.7h1.41v.72h2.34v1.635h.555v1.26h-.555v1.65h-2.34v.51h2.535v.375c.795-1.56 1.335-3.66 1.62-6.3l1.545.27c-.09.705-.195 1.365-.315 1.995h3.735V12.3h-.87c-.09 2.55-.57 4.71-1.44 6.495.69.99 1.545 1.86 2.565 2.595l-.945 1.26c-.975-.69-1.8-1.5-2.475-2.4a10.256 10.256 0 0 1-2.325 2.37l-.75-1.185zM81.09 12.9v-.72h-1.005v.72h1.005zm-1.005-1.71h1.005v-.72h-1.005v.72zm-1.41 1.71v-.72h-.99v.72h.99zm-.99-1.71h.99v-.72h-.99v.72zm3.615 4.95v-.66h-1.215v.66H81.3zm-2.625 0v-.66h-1.2v.66h1.2z" fill="#000"/><path d="M27.07 138.985h1.995v-1.725h-1.59v-.93h7.275v.93h-1.455v1.725h1.935v.96h-1.935v3.45h-.99v-3.45h-2.34c-.09.795-.27 1.47-.54 2.01-.36.705-.975 1.26-1.815 1.65l-.54-.855c.735-.36 1.26-.84 1.56-1.44.165-.39.285-.855.36-1.365h-1.92v-.96zm5.235 0v-1.725H30.04v1.725h2.265zm-6.225-5.715v1.095h3.375v-1.095H26.08zm3.375-.765v-1.155H26.08v1.155h3.375zm3.36.765v1.065h3.465v-1.065h-3.465zm3.465-.765v-1.125h-3.465v1.125h3.465zm-5.775-2.01v4.74H26.08v8.445H25v-13.185h5.505zm5.775 4.695h-4.515v-4.68h5.58v11.625c0 .99-.45 1.485-1.35 1.485a29.2 29.2 0 0 1-1.62-.045l-.255-.96c.54.03 1.035.06 1.485.06.45 0 .675-.3.675-.87v-6.615zm4.875-5.19l1.065.09a128.68 128.68 0 0 1-.405 2.835h2.22v.63c-.12 2.43-.54 4.515-1.26 6.285.705.735 1.29 1.395 1.74 1.995l-.72.84a23.161 23.161 0 0 0-1.5-1.785c-.6 1.14-1.335 2.13-2.235 2.97l-.675-.855a9.862 9.862 0 0 0 2.175-2.91 79.046 79.046 0 0 0-1.935-1.905 46.84 46.84 0 0 0 .945-4.23h-1.2v-1.035h1.38c.15-.945.285-1.92.405-2.925zm.855 9.06c.57-1.5.9-3.195 1.005-5.1H41.65c-.285 1.575-.57 2.88-.87 3.915.435.405.84.795 1.23 1.185zm9.945-1.62v6.39H50.92v-.9h-4.59v.9h-1.035v-6.39h6.66zm-5.625 4.47h4.59v-3.48h-4.59v3.48zm-1.62-5.82l-.165-.975c.87-.45 1.95-2.13 3.24-5.07l1.02.345c-.9 1.95-1.785 3.495-2.685 4.65a51.085 51.085 0 0 0 4.8-.525c-.42-.825-.84-1.59-1.275-2.28l.93-.45a37.871 37.871 0 0 1 2.325 4.335l-1.005.48c-.18-.405-.345-.795-.525-1.17-1.995.285-4.215.51-6.66.66zm202.86-14.085l.975.12c-.075 1.29-.255 2.445-.54 3.435l-.975-.285c.3-.96.48-2.04.54-3.27zm2.565-.225c.21.93.405 1.95.585 3.06l-1.005.225a38.303 38.303 0 0 0-.465-3.09l.885-.195zm1.485-3.81c.33.855.63 1.83.9 2.94l-.9.24c-.06-.255-.12-.51-.18-.75-1.41.42-2.775.705-4.065.87l-.285-.99c.195-.075.36-.18.495-.3.555-.54 1.215-1.44 1.995-2.7-.75.12-1.53.24-2.31.36l-.27-.99c.165-.075.315-.21.45-.405.78-1.23 1.44-2.655 2.01-4.245l1.035.405c-.735 1.725-1.485 3.12-2.235 4.17.63-.075 1.275-.165 1.905-.27.33-.57.66-1.185 1.02-1.83l1.005.36c-1.44 2.52-2.61 4.29-3.54 5.31.84-.15 1.695-.33 2.565-.555-.15-.465-.3-.915-.45-1.35l.855-.27zm.255 3.42c.36.78.66 1.635.93 2.535l-.9.39c-.27-.99-.555-1.875-.87-2.655l.84-.27zm.465-7.41h3.63v-1.92h1.065v1.92h3.585v1.035h-3.585v2.28h3.255v1.035h-7.545v-1.035h3.225v-2.28h-3.63v-1.035zm7.47 5.805v6.015h-1.05v-.69h-4.44v.69h-1.05v-6.015h6.54zm-5.49 4.305h4.44v-3.285h-4.44v3.285zm8.04-10.5h5.865v-1.5h1.11v1.5h5.835v1.035h-5.835v1.47h4.725v4.245h-3.81c1.08 1.53 2.91 2.88 5.46 4.08l-.735.93c-2.655-1.485-4.515-3.15-5.595-5.01h-.045v5.445h-1.11v-5.445h-.045c-1.14 2.04-3.03 3.72-5.685 5.04l-.63-.99c2.49-1.05 4.305-2.4 5.43-4.05h-3.765v-4.245h4.695v-1.47h-5.865v-1.035zm10.62 5.76v-2.235h-3.645v2.235h3.645zm-4.755 0v-2.235h-3.615v2.235h3.615z" fill="#2A3052"/><path d="M139.442 165.926v1.276c0 .132-.022.264-.022.396h2.332v-1.672h-2.31zm2.31-1.034v-1.782h-2.31v1.782h2.31zm-2.398 3.74c-.198 1.452-.66 2.684-1.386 3.674l-.968-.88c.792-1.1 1.188-2.486 1.21-4.158v-5.302h4.752v8.932c0 .88-.484 1.32-1.43 1.32h-1.1l-.308-1.21c.352.022.704.044 1.012.044.396 0 .616-.22.616-.616v-1.804h-2.398zm-.308-14.08h-1.848v-1.188h9.042a7.51 7.51 0 0 0-.616-1.1l1.562-.264c.242.418.462.88.66 1.364h8.888v1.188h-16.28v1.188h14.96v1.078h-16.368v-2.266zm16.786 17.336h-1.034c-.726 0-1.078-.352-1.078-1.012v-3.014l-.682.462c-.374-.748-.88-1.54-1.496-2.398v.374c0 1.496-.11 2.662-.286 3.454-.22.792-.638 1.65-1.298 2.53l-.99-.88-.352.418c-.528-.66-1.1-1.232-1.694-1.716l.748-.704c.594.44 1.144.968 1.628 1.54.352-.55.594-1.056.726-1.518.176-.616.286-1.672.286-3.124v-4.334h4.642v8.558c0 .176.088.286.286.286h.396c.154 0 .286-.132.374-.352.066-.242.132-1.056.198-2.442l.99.352c-.132 1.584-.264 2.574-.418 2.948-.176.374-.506.572-.946.572zm-4.29-6.314l.66-.396c.66.88 1.166 1.628 1.518 2.288v-4.268h-2.178v2.376zm-7.458-3.608h5.016v7.106h-5.016v-7.106zm3.784 6.138v-1.166h-2.574v1.166h2.574zm-2.574-2.002h2.574v-1.122h-2.574v1.122zm0-1.936h2.574v-1.21h-2.574v1.21zm.132 5.258l.792.704c-.572.814-1.298 1.518-2.134 2.134l-.682-.902a8.915 8.915 0 0 0 2.024-1.936zm-5.72-11.638h14.454v3.19h-14.454v-3.19zm12.98 2.266v-1.342H141.18v1.342h11.506zm7.92-5.676h2.046l-.33 11.484h-1.364l-.352-11.484zm1.012 13.09c.396 0 .704.11.968.374.242.242.374.55.374.924 0 .396-.132.704-.374.946a1.402 1.402 0 0 1-.968.374 1.26 1.26 0 0 1-.924-.374 1.28 1.28 0 0 1-.396-.946c0-.374.132-.682.396-.924.242-.264.55-.374.924-.374z" fill="#FFF"/></g></svg>