<svg width="299" height="197" xmlns="http://www.w3.org/2000/svg"><g fill="none" fill-rule="evenodd"><path fill="#F1F2F2" d="M0 0h299v197H0z"/><path d="M1.987 1.98v193.04h295.026V1.98H1.987zM299 0v197H0V0h299z" fill="#C2C2C2" fill-rule="nonzero"/><path d="M4.887 55.446v-1.207h289.656v1.207H4.887zm0 40.534v-1.207h289.656v1.207H4.887zm0 40.534v-1.207h289.656v1.207H4.887zm0 40.496v-1.207h289.656v1.207H4.887zm34.38-142.416h1.206v159.67h-1.206V34.594zm36.664 0h1.207v159.67h-1.207V34.594zm36.628 0h1.207v159.67h-1.207V34.594zm36.665 0h1.207v159.67h-1.207V34.594zm36.627 0h1.207v159.67h-1.207V34.594zm36.628 0h1.207v159.67h-1.207V34.594zM4.887 116.228v-1.207h289.656v1.207H4.887z" fill="#DFDEDE" fill-rule="nonzero"/><path d="M259.144 34.594h1.207v159.67h-1.207V34.594zM4.887 75.731v-1.206h289.656v1.206H4.887zm0 81.03v-1.206h289.656v1.207H4.887z" fill="#2A3052" fill-rule="nonzero"/><path fill="#C2C2C2" fill-rule="nonzero" d="M2.794 34.606V32.19h293.842v2.415z"/><path d="M40.778 117.19a1.81 1.81 0 1 1-1.816-3.132l36.665-21.257a1.81 1.81 0 0 1 2.068.176l32.442 27.072 38.676-26.172a1.81 1.81 0 0 1 2.202.133l35.113 30.513 35.473-50.437a1.81 1.81 0 1 1 2.962 2.083l-36.627 52.078a1.81 1.81 0 0 1-2.669.325L149.69 97.655l-38.652 26.156a1.81 1.81 0 0 1-2.175-.11L76.347 96.57l-35.569 20.622z" fill="#2A3052" fill-rule="nonzero"/><path d="M187.987 146.445h-34.945l-5.382-8.181-5.382 8.181h-34.946a4.733 4.733 0 0 0-4.71 4.782v24.694a4.753 4.753 0 0 0 4.71 4.782h80.692a4.733 4.733 0 0 0 4.71-4.782v-24.694a4.758 4.758 0 0 0-4.747-4.782z" fill="#E88024"/><ellipse cx="9.045" cy="8.618" rx="8.11" ry="8.443" opacity=".6" transform="translate(214.037 66.51)" fill="#FFF"/><path d="M223.082 84.778c-5.157 0-9.317-4.331-9.317-9.65s4.16-9.65 9.317-9.65 9.318 4.331 9.318 9.65-4.16 9.65-9.318 9.65zm0-2.414c3.802 0 6.904-3.23 6.904-7.236 0-4.007-3.102-7.236-6.904-7.236-3.801 0-6.903 3.229-6.903 7.236s3.102 7.236 6.903 7.236z" fill="#E88024" fill-rule="nonzero"/><ellipse cx="8.97" cy="9.021" rx="8.11" ry="8.443" opacity=".6" transform="translate(30.9 106.604)" fill="#FFF"/><path d="M39.87 125.275c-5.157 0-9.317-4.332-9.317-9.65 0-5.32 4.16-9.65 9.317-9.65s9.317 4.33 9.317 9.65c0 5.318-4.16 9.65-9.317 9.65zm0-2.414c3.802 0 6.903-3.23 6.903-7.236 0-4.007-3.101-7.236-6.903-7.236-3.802 0-6.903 3.229-6.903 7.236 0 4.006 3.101 7.236 6.903 7.236z" fill="#E88024" fill-rule="nonzero"/><path d="M20.652 10.014h1.462v.492h4.865v1.125h-4.865v.548h5.385v.619a12.06 12.06 0 0 1-.464 1.968l-1.307-.38c.112-.309.225-.646.323-1.012h-3.965v.802l2.812-.169.155.97-2.967.169v.323c0 .197.099.31.324.31h2.952c.197 0 .338-.043.422-.113.098-.084.169-.351.197-.801l1.307.421c-.112.788-.295 1.266-.548 1.42-.239.141-.605.211-1.11.211h-3.586c-.928 0-1.392-.393-1.392-1.167v-.407l-2.39.168-.169-1.124 2.56-.183v-.83h-3.066v2.714a18.17 18.17 0 0 1-.31 3.388c.76-.801 1.266-1.842 1.547-3.107l1.336.253c-.07.281-.14.548-.225.816h2.292v1.138c-.31.816-.69 1.547-1.139 2.166.323.21.675.38 1.054.492.703.225 1.758.351 3.192.393.9 0 1.8-.028 2.7-.056l-.268 1.378h-1.56c-2.419-.014-4.078-.225-4.95-.619a4.734 4.734 0 0 1-1.04-.618 7.815 7.815 0 0 1-2.25 1.448l-.773-1.21c.858-.309 1.561-.688 2.123-1.152a6.969 6.969 0 0 1-.604-.97c-.253.309-.506.59-.773.83l-.717-.9c-.253 1.209-.633 2.291-1.14 3.261L15 22.077c.76-1.588 1.167-3.585 1.21-5.975v-3.923h4.442v-2.165zm-1.223 8.66c.183.45.422.873.731 1.238.295-.408.534-.843.703-1.307h-1.392c-.014.028-.028.042-.042.07v-.001zm3.487-1.265h3.515v2.194c0 .154.07.239.21.239h.928v1.209h-1.293c-.76 0-1.139-.394-1.139-1.153V18.59h-1.026c-.031.45-.116.893-.253 1.322-.169.422-.478.9-.942 1.42l-.984-.9c.295-.309.534-.632.717-.97.168-.365.267-1.04.267-2.053zm14.41-2.052c1.182.759 2.208 1.589 3.066 2.516l-.872 1.04c-.801-.913-1.814-1.77-3.05-2.558l.857-.998h-.001zm-1.054 3.515c1.94.956 3.6 2.01 4.978 3.163l-.942 1.139c-1.28-1.167-2.91-2.264-4.907-3.276l.871-1.026zm-7.015-6.974h2.305c-.21-.52-.45-1.026-.703-1.504l1.42-.38c.31.689.535 1.322.703 1.884h2.095v1.42h-3.318v1.575h2.615c0 3.473-.07 5.61-.196 6.425-.113 1.083-.703 1.631-1.758 1.631-.169 0-.436-.028-.83-.084l-.337-1.252c.352.028.66.057.942.057.394 0 .633-.338.703-.999.056-.421.099-1.898.127-4.428h-1.28c-.098 3.079-.647 5.356-1.659 6.818l-1.082-.942c.913-1.377 1.377-3.57 1.391-6.608v-2.193h-1.138v-1.42zm8.225-1.73h1.307c.647 1.885 1.772 3.544 3.36 4.978l-.815 1.223c-1.434-1.265-2.489-2.84-3.192-4.724-.773 2.08-1.743 3.698-2.924 4.822l-.787-1.18c1.321-1.294 2.334-3.01 3.05-5.118l.001-.001zm9.56 2.236h6.58v3.614h-6.58v-3.615.001zm5.202 2.32v-1.026H48.42v1.026h3.824zm-6.256 2.01h4.12v4.009h-4.12v-4.009zm2.826 2.77v-1.531h-1.52v1.532h1.519l.001-.001zm2.137-2.77h4.091v4.009h-4.091v-4.009zm2.798 2.77v-1.531H52.23v1.532h1.519v-.001zm-9.8-9.012h11.473v1.406H45.397v9.322h10.307v1.406H43.949V10.492zm16.942 5.75h5.483v5.723h-5.483v-5.723zm4.091 4.514v-1.083h-2.685v1.083h2.685zm-2.685-2.25h2.685v-1.053h-2.685v1.054-.001zm-3.037-5.033v.675h2.39v-.675h-2.39zm2.39-1.097v-.647h-2.39v.647h2.39zm3.895 1.125v.647h2.474v-.647h-2.474zm2.474-1.097v-.66h-2.474v.66h2.474zm-4.907-1.968v5.005H59.26v7.62h-1.448V10.436h5.3zm4.907 5.005h-3.937v-5.02h5.385v11.29c0 .886-.436 1.336-1.293 1.336-.45 0-.886-.028-1.308-.056l-.393-1.406c.421.056.815.085 1.18.085.24 0 .366-.155.366-.436v-5.793zM77.411 10c.394.703.787 1.49 1.167 2.376h4.316v1.11c-1.589 3.038-3.88 5.358-6.86 6.96.562.507 1.236.788 2.024.844a71.6 71.6 0 0 0 2.826.042c.745 0 1.771-.042 3.093-.098l-.366 1.448h-2.502c-1.252 0-2.151-.014-2.686-.028-1.546-.028-2.7-.45-3.487-1.294-.309-.323-.548-.478-.745-.478-.267 0-.773.717-1.532 2.151l-1.167-.815c.956-1.912 1.856-2.854 2.727-2.854.183 0 .352.028.52.112a.3.3 0 0 1 .113.056c2.7-1.434 4.78-3.346 6.243-5.722h-8.717v-1.434h4.569a14.662 14.662 0 0 0-1.237-2.095L77.411 10zm16.042.084h1.49v4.148c1.19.854 2.34 1.765 3.445 2.728l-.914 1.377a42.67 42.67 0 0 0-2.53-2.46v7.199h-1.491V10.083v.001zm-5.272 5.512c.684.349 1.33.768 1.926 1.251.534-1.068.9-2.25 1.11-3.529h-2.39c-.674 1.56-1.56 2.854-2.685 3.88l-1.012-1.265c1.56-1.448 2.615-3.402 3.163-5.863l1.476.253c-.122.53-.262 1.055-.421 1.575h3.304v1.308c-.478 4.246-2.531 7.451-6.158 9.616l-1.013-1.25c1.66-.943 2.98-2.124 3.951-3.558-.625-.5-1.304-.93-2.025-1.28l.774-1.138z" fill="#020202" fill-rule="nonzero"/><g fill="#FFF" fill-rule="nonzero"><path d="M161.542 169.221h1.345l.397-15.375h-2.151l.409 15.375zm-.402 3.596c.085.824.694 1.033 1.19 1.033.498 0 1.045-.373 1.045-1.033 0-.979-.693-1.211-1.157-1.211-.464 0-1.163.387-1.078 1.211zm-16.736-.257c.364.311.673.59.928.837-.741 1.09-1.88 2.046-2.495 2.471-.379-.488-.643-.83-.793-1.025.733-.537 1.52-1.298 2.36-2.283zm4.32-8.662v8.309h-5.952v-8.309h5.952zm-1.447 5.783h-2.943v1.353h2.943v-1.353zm0-2.34h-2.943v1.354h2.943v-1.354zm0-2.305h-2.943v1.353h2.943v-1.353zm10.494-10.051v-1.38h-10.48c-.637-1.397-.879-1.943-.727-1.64l-1.864.305.73 1.335h-10.626v1.38h2.122v2.642h19.202v-1.218h-17.537v-1.424h19.18zm-20.059 3.834h16.998v3.69h-16.998v-3.69zm1.721 1.059v1.562h13.586v-1.562h-13.586zm-3.213 3.782c1.828-.017 3.664-.017 5.508 0v10.088c0 .534.46 2.294-2.95 1.925l-.363-1.399c1.288.167 1.933-.008 1.933-.526v-2.25h-2.863c-.385 2.135-.917 3.528-1.596 4.175-.21-.175-.57-.5-1.085-.971 1.9-2.57 1.397-10.218 1.416-11.042zm1.395 4.649v1.946h2.669v-1.946h-2.669zm2.704-3.31h-2.658v2.098h2.658v-2.099.001z"/><path d="M154.207 170.541l-.811.522c-.794-1.293-1.382-2.166-1.764-2.617-.019 1.537-.076 2.648-.17 3.333-.308 2.225-1.132 3.165-1.683 3.945l-1.167-1.036-.389.5c-1.024-1.083-1.695-1.753-2.012-2.011.337-.318.632-.599.883-.843a13.705 13.705 0 0 1 1.915 1.82c.255-.462.77-1.157.994-2.476.299-1.761.095-6.227.226-8.091 2.31-.008 4.103-.008 5.377 0v9.978c-.061.683 1.297.563 1.297 0l.275-2.845c.23.097.62.237 1.166.422-.258 1.737-.18 3.845-1.166 4.046-.7.033-2.97.513-2.97-.928v-3.719h-.001zm0-.448v-5.07h-2.585c.015 1.047.02 1.984.015 2.814l.806-.474c.884 1.233 1.472 2.127 1.763 2.68l.001.05z"/></g><path d="M19.609 166.33h9.095v.598h-4.63v3.26a39.7 39.7 0 0 0 .598-.093v.588c-.186.03-.392.061-.598.103v1h-.722v-.907c-.98.113-2.187.216-3.62.299l-.093-.64.959-.041v-3.569h-.99v-.598h.001zm1.66 4.136a42.87 42.87 0 0 0 2.084-.186v-.701h-2.084v.887zm0-1.434h2.084v-.773h-2.084v.773zm0-1.33h2.084v-.774h-2.084v.774zm-.35-5.023h6.518v2.97h-6.518v-2.97zm5.806 2.434v-.69H21.63v.69h5.095zm-5.095-1.217h5.095v-.66H21.63v.66zm3.31 4.332h-.33v-.609h3.518v.578a4.908 4.908 0 0 1-1.042 2.052c.454.34.99.64 1.63.908l-.382.619c-.68-.32-1.258-.67-1.722-1.052a6.588 6.588 0 0 1-1.723 1.052l-.381-.578c.619-.268 1.155-.577 1.598-.949a4.623 4.623 0 0 1-1.165-2.021h-.001zm1.62 1.578c.413-.475.712-1 .897-1.578H25.58c.19.6.527 1.142.98 1.578zm7.21-2.991v3.703c.32-.124.629-.269.928-.413l.124.65a31.65 31.65 0 0 1-1.898.68l-.196-.639c.216-.072.33-.206.33-.402v-6.797c2.176-.33 3.868-.701 5.074-1.114l.413.598c-.516.176-1.114.34-1.815.506.01.97.04 1.805.082 2.516h2.207v.712h-2.145c.041.443.103.835.165 1.165.165.918.371 1.61.609 2.073.226.434.402.65.536.65.134-.01.258-.577.36-1.712l.62.34c-.196 1.486-.485 2.239-.856 2.239-.32 0-.66-.279-1.021-.826-.372-.567-.67-1.402-.898-2.506-.1-.47-.172-.945-.216-1.423H33.77zm2.248-3.074c-.68.145-1.434.279-2.248.413v1.95h2.34a27.201 27.201 0 0 1-.092-2.363zm-.547 5.725c.578.7 1.032 1.33 1.351 1.877l-.567.381a16.462 16.462 0 0 0-1.3-1.887l.516-.371zm-3.414-7.169l.67.31a12.689 12.689 0 0 1-.979 2.228v6.951h-.722v-5.827c-.35.474-.722.918-1.134 1.351l-.238-.784a11.28 11.28 0 0 0 2.403-4.229zm16.183.516v8.942h-.743v-.67h-5.425v.69h-.753v-8.962h6.921zm-6.168 7.55h5.425v-1.94h-5.425v1.94zm0-2.62h5.425v-1.815h-5.425v1.815zm0-2.496h5.425v-1.712h-5.425v1.712zm10.551 1.021v5.477h-.69v-5.384a12.492 12.492 0 0 1-1.26 2.816l-.319-.815c.722-1.021 1.228-2.187 1.537-3.507h-1.227v-.68h1.268v-1.867h.691v1.867h1.124v.68h-1.123v.609a21.89 21.89 0 0 1 1.372 1.763l-.433.65c-.361-.66-.67-1.196-.939-1.609h-.001zm1.589-2.166h1.516v-.773h-1.805v-.64h5.714v.64h-1.713v.773h1.506v2.383h-5.218v-2.383zm3.094-.773h-.96v.773h.96v-.773zm1.475 2.578v-1.227h-.908v1.227h.908zm-1.486 0v-1.227h-.938v1.227h.938zm-1.516 0v-1.227h-.918v1.227h.918zm.526 5.828h-.856l-.144-.66c.268.02.515.04.763.04.227 0 .35-.113.35-.319v-1.67h-2.433v-.64h5.672v.64h-2.558v1.835c0 .516-.268.774-.794.774zm-1.846-4.59h4.786v.64h-4.786v-.64zm.557 2.403l.474.413a7.48 7.48 0 0 1-1.68 1.743l-.424-.547c.64-.464 1.187-1 1.63-1.609zm3.331.01a11.57 11.57 0 0 1 1.527 1.61l-.495.484c-.35-.516-.846-1.073-1.485-1.66l.453-.434zm4.56-7.23l.649.29a11.71 11.71 0 0 1-.774 1.897v7.271h-.722v-6.033c-.36.534-.76 1.04-1.196 1.516l-.217-.743a11.271 11.271 0 0 0 2.26-4.198zm.938.382h6.209v.64h-2.032v.67h1.64V166h-5.725v-1.98h1.692v-.67h-1.785v-.64h.001zm3.537 1.31v-.67h-1.103v.67h1.103zm1.63 1.444v-.897h-1.073v.897h1.073zm-1.63 0v-.897h-1.103v.897h1.103zm-1.67 0v-.897h-1.125v.897h1.125zm-1.455 1.052h5.116v3.888h-5.116v-3.888zm4.445 3.341v-.639h-3.764v.64h3.764v-.001zm-3.764-1.103h3.764v-.609h-3.764v.609zm0-1.073h3.764v-.65h-3.764v.65zm2.754 2.744c.856.175 1.68.433 2.475.773l-.227.568a13.43 13.43 0 0 0-2.486-.877l.238-.464zm-1.816 0l.34.464c-.577.35-1.412.64-2.505.856l-.32-.547c1.093-.206 1.918-.464 2.485-.773zM20.215 65.205h8.989v.591h-4.576v3.22c.204-.03.408-.06.591-.091v.58c-.183.03-.387.061-.59.102v.989h-.714v-.897a62.8 62.8 0 0 1-3.577.295l-.091-.631.947-.041v-3.526h-.978v-.59l-.001-.001zm1.64 4.086a43.082 43.082 0 0 0 2.06-.183v-.693h-2.06v.876zm0-1.416h2.06v-.764h-2.06v.764zm0-1.315h2.06v-.764h-2.06v.764zm-.346-4.962h6.44v2.935h-6.44v-2.935zm5.737 2.405v-.683h-5.034v.683h5.034zM22.212 62.8h5.034v-.652h-5.034v.652zm3.271 4.28h-.326v-.601h3.475v.57a4.85 4.85 0 0 1-1.029 2.028c.448.337.978.632 1.61.897l-.377.611c-.673-.315-1.243-.662-1.702-1.039-.469.408-1.04.754-1.702 1.04l-.377-.571c.612-.265 1.142-.57 1.58-.938a4.568 4.568 0 0 1-1.152-1.997zm1.6 1.56c.408-.47.703-.99.887-1.56h-1.856c.184.58.5 1.1.968 1.56h.001zm7.938-7.47c.112.275.225.58.326.917h4.036v.672h-8.999v-.672h4.178a6.089 6.089 0 0 0-.347-.774l.805-.143h.001zm2.731 9.375h-.856l-.173-.663.815.03c.418 0 .632-.162.632-.488v-2.772h-6.562v3.923h-.704V66.01h7.968v3.567c0 .642-.377.968-1.12.968zm-5.706-7.123h5.696v1.977h-5.696v-1.977zm4.983 1.406v-.836h-4.27v.836h4.27zm-4.137 2.476h4.004v2.039h-4.004v-2.039zm3.352 1.488v-.937h-2.69v.937h2.69zm12.26-7.062v8.835h-.734v-.662h-5.36v.682h-.744V61.73h6.838zm-6.094 7.46h5.36v-1.917h-5.36v1.917zm0-2.589h5.36v-1.793h-5.36v1.793zm0-2.466h5.36v-1.691h-5.36v1.691zm10.425 1.009v5.41h-.683v-5.318c-.298.975-.715 1.91-1.243 2.782l-.316-.805c.713-1.01 1.212-2.16 1.518-3.465h-1.212v-.673h1.253v-1.844h.683v1.844h1.11v.673h-1.11v.601c.448.52.907 1.1 1.355 1.743l-.428.642a25.378 25.378 0 0 0-.927-1.59zm1.569-2.14h1.498v-.764h-1.783v-.632h5.645v.632h-1.692v.764h1.488v2.354h-5.156v-2.354zm3.057-.764h-.948v.764h.948v-.764zm1.457 2.547v-1.212h-.897v1.212h.897zm-1.467 0v-1.212h-.928v1.212h.928zm-1.498 0v-1.212h-.907v1.212h.907zm.52 5.758h-.846l-.143-.652c.265.02.51.04.754.04.224 0 .347-.112.347-.316v-1.65H54.18v-.632h5.604v.632h-2.527v1.813c0 .51-.265.765-.785.765h.001zm-1.825-4.535h4.729v.632h-4.729v-.632zm.55 2.374l.47.408a7.391 7.391 0 0 1-1.662 1.722l-.417-.54a7.227 7.227 0 0 0 1.61-1.59h-.001zm3.292.01c.601.53 1.1 1.06 1.508 1.59l-.489.48c-.346-.51-.835-1.06-1.467-1.641l.448-.428v-.001zm4.504-7.143l.642.286c-.2.646-.455 1.273-.764 1.875v7.184h-.713v-5.963a12.91 12.91 0 0 1-1.182 1.498l-.214-.733a11.136 11.136 0 0 0 2.231-4.148v.001zm.927.377h6.135v.632h-2.008v.663h1.62v1.956h-5.655v-1.956h1.671v-.663h-1.763v-.632zm3.496 1.295v-.663h-1.09v.663h1.09zm1.61 1.426v-.886h-1.06v.886h1.06zm-1.61 0v-.886h-1.09v.886h1.09zm-1.651 0v-.886h-1.11v.886h1.11zm-1.437 1.04h5.054v3.841h-5.054v-3.841zm4.392 3.301v-.632h-3.72v.632h3.72zm-3.72-1.09h3.72v-.601h-3.72v.601zm0-1.06h3.72v-.642h-3.72v.642zm2.721 2.71c.84.171 1.659.428 2.446.765l-.224.56a13.274 13.274 0 0 0-2.456-.866l.234-.458v-.001zm-1.793 0l.336.46c-.57.346-1.396.63-2.476.845l-.316-.54c1.08-.204 1.895-.459 2.456-.764v-.001z" fill="#6D6E71" fill-rule="nonzero"/><g fill="#2A3052" fill-rule="nonzero"><path d="M25.906 142.075h-1.03v-11.99h5.046v4.291h-4.016v7.7-.001zm.013-11.195v.988h3.09v-.988h-3.09zm3.065 1.76H25.92v.963h3.064v-.963zm2.14 1.682v-4.213h5.083c.038 5.833.038 9.17 0 10.014-.058 1.264.239 2.183-2.7 1.865a10.9 10.9 0 0 0-.23-.844c.713-.172 1.971.589 1.971-.862v-5.96h-4.124zm.975-1.687v.907h3.125v-.907h-3.125zm-.008-1.74v.97h3.105v-.97h-3.105z"/><path d="M33.81 135.387v.835h-1.352v1.58h1.777v.866h-1.777v3.148h-.876v-3.148c-.943.004-1.661.004-2.155 0-.12.562-.12 2.42-2.12 3.34-.235-.349-.4-.608-.496-.777.678-.358 1.53-.805 1.747-2.533l-1.754-.028.008-.868h1.81v-1.58h-1.455v-.835h6.644-.001zm-2.226.841h-2.065v1.576h2.065v-1.576zm8.05-6.578l.99.111-.41 2.547c.132.01.81.01 2.036 0 .034 1.87-.352 4.661-1.138 6.265.845.909 1.377 1.526 1.595 1.851l-.66.736-1.354-1.618c-.79 1.295-1.478 2.198-2.063 2.709-.097-.14-.298-.396-.602-.766.765-.817 1.521-1.652 1.97-2.634l-1.745-1.74.878-3.875h-1.103v-.928h1.236l.37-2.658zm1.718 3.592h-1.248a55.405 55.405 0 0 1-.805 3.55c.465.451.837.818 1.118 1.099.479-1.02.936-3.923.936-4.65l-.001.001zm4.342-3.574l.912.312c-1.048 2.173-1.86 3.582-2.44 4.23 2.64-.23 4.094-.39 4.36-.481-.646-1.227-1.022-1.914-1.126-2.06l.851-.414c.919 1.58 1.619 2.888 2.1 3.923l-.925.466-.482-1.063c-3.337.384-5.357.583-6.059.597a24.777 24.777 0 0 0-.154-.907c.79-.435 1.778-1.97 2.963-4.603zm2.96 12.583v-.84h-4.192v.84h-.963v-5.825h6.084v5.825h-.93.001zm-.007-4.928h-4.163v3.137h4.162v-3.137h.001z"/></g><path d="M266.52 99.706l.924.372c-1.007 2.207-1.7 3.495-2.077 3.865l1.767-.246.978-1.696c-.03-.01.276.103.916.338-1.456 2.506-2.69 4.461-3.312 4.933l2.396-.5-.375-1.257.753-.264c.555 1.49.833 2.392.833 2.704-.469.125-.747.203-.833.232l-.168-.665c-2.056.524-3.299.785-3.728.785-.098-.298-.186-.6-.262-.904.596-.144 1.936-2.152 2.272-2.784l-2.141.32c-.087-.323-.17-.623-.247-.9.435-.136 1.203-1.58 2.304-4.333zm1.454 8.98c.252-.1.509-.184.77-.254.564 1.401.845 2.183.845 2.345-.046.051-.31.175-.794.371a43.943 43.943 0 0 0-.82-2.462h-.001zm-.857.127c.066.256.552 2.721.552 2.82l-.929.224c-.194-1.531-.336-2.478-.427-2.841.356-.11.424-.11.804-.202v-.001zm-2.373.195l.892.109c-.118 1.56-.283 2.612-.495 3.155a35.64 35.64 0 0 0-.89-.262c.266-.928.43-1.928.492-3.002h.001zm4.431-7.467v.96h3.388v2.108h-2.973v.957h6.983v-.957h-3.022v-2.107h3.306v-.96h-3.306V99.79h-.988v1.751h-3.388zm5.978 10.983v-.64h-4.137v.64h-.964v-5.565h6.07v5.565h-.97.001zm.027-4.621h-4.153v3.025h4.153v-3.025zm8.794-6.711v-1.42h1.024v1.42h5.44v.944h-5.44v1.301h4.352v3.987h-3.478c.699 1.212 2.378 2.491 5.039 3.837-.053.033-.277.315-.673.847-1.49-.713-4.366-2.973-5.24-4.684l.008 5.084h-1.032c-.007-3.495-.025-5.186-.055-5.075-.91 1.614-2.911 3.67-5.28 4.675l-.569-.876c2.51-1.172 4.189-2.441 5.035-3.808l-3.5.009v-3.996h4.37v-1.301h-5.437v-.944h5.436zm-.037 3.251h-3.373v2.134h3.373v-2.134zm1.067 2.112h3.405v-2.083h-3.405v2.083z" fill="#2A3052" fill-rule="nonzero"/></g></svg>