<svg width="299" height="197" xmlns="http://www.w3.org/2000/svg"><g fill="none" fill-rule="evenodd"><path fill="#F1F2F2" d="M0 0h299v197H0z"/><path d="M1.987 1.98v193.04h295.026V1.98H1.987zM299 0v197H0V0h299z" fill="#C2C2C2" fill-rule="nonzero"/><path d="M4.887 56.168v-1.206h289.656v1.206H4.887zm0 40.33v-1.206h289.656v1.205H4.887zm0 40.329v-1.206h289.656v1.206H4.887zm0 40.292v-1.206h289.656v1.206H4.887zm34.38-141.7h1.206v158.864h-1.206V35.419zm36.665 0h1.206v158.864h-1.206V35.419zm36.627 0h1.206v158.864h-1.206V35.419zm36.665 0h1.206v158.864h-1.206V35.419zm36.628 0h1.206v158.864h-1.206V35.419zm36.627 0h1.206v158.864h-1.206V35.419zM4.887 116.643v-1.205h289.656v1.205H4.887z" fill="#DFDEDE" fill-rule="nonzero"/><path d="M4.887 65.161v-1.127h7.469v1.127H4.887zm14.938 0v-1.127h7.468v1.127h-7.468zm14.937 0v-1.127h7.469v1.127h-7.469zm14.938 0v-1.127h7.468v1.127H49.7zm14.937 0v-1.127h7.469v1.127h-7.469zm14.938 0v-1.127h7.468v1.127h-7.468zm14.937 0v-1.127h7.469v1.127h-7.469zm14.938 0v-1.127h7.468v1.127h-7.468zm14.937 0v-1.127h7.469v1.127h-7.469zm14.938 0v-1.127h7.468v1.127h-7.468zm14.937 0v-1.127h7.469v1.127h-7.469zm14.938 0v-1.127h7.468v1.127H169.2zm14.937 0v-1.127h7.469v1.127h-7.469zm14.938 0v-1.127h7.468v1.127h-7.468zm14.937 0v-1.127h7.469v1.127h-7.469zm14.938 0v-1.127h7.468v1.127h-7.468zm14.937 0v-1.127h7.469v1.127h-7.469zm14.938 0v-1.127h7.468v1.127h-7.468zm14.937 0v-1.127h7.469v1.127h-7.469zm14.938 0v-1.127h5.843v1.127H288.7z" fill="#15212D" fill-rule="nonzero"/><path fill="#2A3052" fill-rule="nonzero" d="M240.457 35.42h1.206v158.863h-1.206z"/><path d="M4.887 156.934v-1.128h7.469v1.128H4.887zm14.938 0v-1.128h7.468v1.128h-7.468zm14.937 0v-1.128h7.469v1.128h-7.469zm14.938 0v-1.128h7.468v1.128H49.7zm14.937 0v-1.128h7.469v1.128h-7.469zm14.938 0v-1.128h7.468v1.128h-7.468zm14.937 0v-1.128h7.469v1.128h-7.469zm14.938 0v-1.128h7.468v1.128h-7.468zm14.937 0v-1.128h7.469v1.128h-7.469zm14.938 0v-1.128h7.468v1.128h-7.468zm14.937 0v-1.128h7.469v1.128h-7.469zm14.938 0v-1.128h7.468v1.128H169.2zm14.937 0v-1.128h7.469v1.128h-7.469zm14.938 0v-1.128h7.468v1.128h-7.468zm14.937 0v-1.128h7.469v1.128h-7.469zm14.938 0v-1.128h7.468v1.128h-7.468zm14.937 0v-1.128h7.469v1.128h-7.469zm14.938 0v-1.128h7.468v1.128h-7.468zm14.937 0v-1.128h7.469v1.128h-7.469zm14.938 0v-1.128h5.843v1.128H288.7z" fill="#15212D" fill-rule="nonzero"/><path fill="#C2C2C2" fill-rule="nonzero" d="M2.794 35.436v-2.412h293.842v2.412z"/><path d="M21.918 117.693a1.809 1.809 0 1 1-1.471-3.305l35.745-15.92a1.809 1.809 0 0 1 1.887.257l24.958 20.574 42.309-55.255c.905-1.182 2.772-.825 3.177.608l29.834 105.657 16.355-61.963c.096-.364.302-.688.59-.929l27.356-22.788a1.809 1.809 0 0 1 2.758.546l37.375 70.913a1.809 1.809 0 1 1-3.2 1.687l-36.334-68.937-25.195 20.99-17.897 67.807c-.47 1.78-2.99 1.803-3.49.03L126.022 69.111 84.77 122.987a1.809 1.809 0 0 1-2.587.296L56.64 102.23l-34.723 15.464z" fill="#2A3052" fill-rule="nonzero"/><ellipse cx="8.11" cy="9.259" rx="8.11" ry="8.4" opacity=".6" transform="translate(232.725 146.962)" fill="#FFF"/><path d="M240.835 165.828c-5.155 0-9.316-4.31-9.316-9.607 0-5.296 4.161-9.606 9.316-9.606 5.155 0 9.317 4.31 9.317 9.606s-4.162 9.607-9.317 9.607zm0-2.413c3.804 0 6.905-3.211 6.905-7.194s-3.101-7.194-6.905-7.194c-3.803 0-6.904 3.212-6.904 7.194 0 3.983 3.1 7.194 6.904 7.194z" fill="#E88024" fill-rule="nonzero"/><ellipse cx="8.979" cy="8.4" rx="8.11" ry="8.4" opacity=".6" transform="translate(117.862 56.755)" fill="#FFF"/><path d="M126.842 74.761c-5.155 0-9.317-4.31-9.317-9.606s4.162-9.606 9.317-9.606 9.316 4.31 9.316 9.606-4.161 9.606-9.316 9.606zm0-2.412c3.803 0 6.904-3.211 6.904-7.194s-3.1-7.194-6.904-7.194-6.905 3.211-6.905 7.194 3.101 7.194 6.905 7.194z" fill="#E88024" fill-rule="nonzero"/><path d="M15.001 16.021h11.547v1.141H20.84v5.968h-1.325v-1.05c-1.012.155-2.452.298-4.333.44l-.17-1.141 1.065-.052v-4.165H15v-1.141h.001zm2.361 5.215c.72-.057 1.438-.13 2.154-.22v-.571h-2.154v.791zm0-1.751h2.154v-.714h-2.154v.714zm0-1.674h2.154v-.649h-2.154v.649zm4.36.986h-.428v-1.116h4.567v1.051a5.787 5.787 0 0 1-1.142 2.335 9.456 9.456 0 0 0 1.881.987l-.687 1.128c-.805-.389-1.492-.804-2.063-1.258-.623.493-1.376.908-2.232 1.245l-.688-1.05c.779-.299 1.454-.65 2.011-1.065a5.66 5.66 0 0 1-1.22-2.257h.001zm2.063 1.466c.389-.454.674-.947.856-1.466h-1.764a4.07 4.07 0 0 0 .908 1.466zm1.284-8.784v4.022h-1.323v-3.01h-5.89v3.05h-1.311v-4.062h8.524zm-6.798 1.609h5.073v.895h-5.073v-.895zm-.026 1.414h5.125v.883h-5.125v-.883zm15.933-3.49c.103.311.22.662.324 1.038h5.008v1.246H27.95V12.05h5.073a7.296 7.296 0 0 0-.363-.778l1.518-.26zm3.217 12.054h-1.064l-.324-1.194 1 .039c.453 0 .687-.156.687-.467v-3.18h-7.915v4.84h-1.284v-6.007h10.483v4.62c0 .894-.532 1.349-1.583 1.349zm-7.447-9.238h7.59v2.75h-7.59v-2.75zm6.293 1.738v-.726h-4.996v.726h4.996zm-5.164 3.218h5.345v2.802h-5.345v-2.802zm4.152 1.803v-.804H32.27v.804h2.959zm12.78-9.562l1.35.182-.079.986h3.036v1.22h-3.178l-.117.778h2.504v7.33h1.168v1.246H44.09v-1.245h1.272v-7.331h2.31l.116-.779h-3.14v-1.22h3.27c.026-.401.065-.79.09-1.167h.001zm-1.364 10.497h3.594v-.753h-3.594v.753zm0-1.817h3.594v-.726h-3.594v.726zm0-1.79h3.594v-.727h-3.594v.727zm0-1.79h3.594v-.715h-3.594v.715zm-4.307.051c-.364.493-.74.986-1.155 1.453l-.441-1.453c1.168-1.453 2.037-3.166 2.595-5.138l1.22.57a17.205 17.205 0 0 1-.896 2.323v9.2h-1.323v-6.955zm11.508 1.609h6.553v1.22h-6.553v-1.22zm8.279 2.866l-.389-1.142c.22-.09.337-.233.337-.415v-6.85h1.324v6.785c.493-.155.986-.324 1.466-.506v-7.37h1.336v10.614c1.194-.584 2.167-1.336 2.92-2.258a13.816 13.816 0 0 1-1.454-2.984l1.103-.622c.312.856.688 1.647 1.155 2.387.623-1.142.973-2.491 1.064-4.035h-2.206c-.44 1.09-.986 2.01-1.634 2.763l-.844-1.038c.96-1.22 1.596-2.867 1.933-4.917l1.363.233a23.251 23.251 0 0 1-.364 1.622h4.023v1.337h-.986c-.117 2.037-.623 3.775-1.506 5.229.766.973 1.7 1.842 2.79 2.607l-.934 1.103a14.111 14.111 0 0 1-2.699-2.556c-.83.973-1.868 1.79-3.1 2.453l-.624-1.012v.934h-1.336v-3.192a33.55 33.55 0 0 1-2.738.83zm18.502-6.215v1.09l-.454.04v1.842c0 .648-.376.986-1.129.986h-.622l-.299-1.051c.208.026.39.039.558.039.182 0 .286-.13.286-.39v-1.321c-.468.026-.922.065-1.363.09.467.442.83.831 1.077 1.169l-.714.493c-.336-.438-.704-.85-1.102-1.233l.674-.428-.817.039c-.143 1.103-.48 2.024-1 2.776l-.985-.882c.389-.519.636-1.129.765-1.83l-.778.04-.169-1.142 1.038-.04v-2.802h1.362a8.33 8.33 0 0 0 .286-.921l1.362.182a4.59 4.59 0 0 1-.285.74h1.855v2.555c.156-.026.299-.039.454-.039v-.002zm-1.66.117v-1.596h-2.18v1.713l1.18-.052a8.802 8.802 0 0 0-.973-1.05l.727-.468c.428.415.752.778.986 1.09l-.584.415.844-.052zm2.4-3.14h3.672v1.466c0 .143.09.221.272.221h.96v1.077h-1.296c-.779 0-1.155-.35-1.155-1.051v-.675h-1.285a3.176 3.176 0 0 1-.247.96c-.156.312-.48.662-.947 1.038l-.947-.856c.298-.22.545-.454.726-.7.156-.273.247-.766.247-1.48zm3.75 7.331v2.828h1.31v1.207H74.594v-1.207h1.31v-2.828h9.213zm-7.902 2.829h1.297v-1.608h-1.297v1.608zm2.608 0h1.323v-1.608h-1.323v1.608zm2.634 0h1.35v-1.608h-1.35v1.608zm3.347-6.967v.843a4.328 4.328 0 0 1-1.167 1.492c.596.286 1.141.597 1.634.909l-.791.947a17.33 17.33 0 0 0-1.881-1.155c-.727.39-1.596.7-2.608.934l-.558-1.09c.713-.13 1.336-.298 1.868-.493-.457-.212-.92-.41-1.388-.596l.597-.701h-.61v-1.09h4.904zm-4.074 1.09a26.64 26.64 0 0 1 1.778.714c.337-.221.622-.455.83-.714H81.73zm13.053-4.671l1.35.182-.079.986h3.036v1.22h-3.178l-.117.778h2.504v7.33h1.168v1.246h-8.603v-1.245h1.272v-7.331h2.31l.116-.779h-3.14v-1.22h3.27c.026-.401.065-.79.09-1.167h.001zM93.42 21.522h3.595v-.753h-3.594v.753h-.001zm0-1.817h3.595v-.726h-3.594v.726h-.001zm0-1.79h3.595v-.727h-3.594v.727h-.001zm0-1.79h3.595v-.715h-3.594v.714l-.001.001zm-4.307.051c-.363.493-.74.986-1.155 1.453l-.441-1.453c1.168-1.453 2.037-3.166 2.595-5.138l1.22.57a17.205 17.205 0 0 1-.896 2.323v9.2h-1.323v-6.955z" fill="#020202" fill-rule="nonzero"/><path d="M245.099 178.225l-.348-.994c.199-.075.298-.2.298-.373v-6.613h1.156v6.575c.51-.161 1.02-.335 1.529-.534v-7.085h1.168v10.28c1.206-.597 2.188-1.356 2.934-2.288-.6-.917-1.08-1.907-1.43-2.946l.957-.547c.311.87.709 1.69 1.181 2.437.622-1.156.982-2.511 1.07-4.052h-2.226c-.422 1.069-.957 1.976-1.59 2.697l-.734-.895c.945-1.193 1.579-2.784 1.902-4.786l1.18.2c-.105.547-.23 1.09-.372 1.628h3.94v1.156h-.97c-.1 1.976-.596 3.666-1.479 5.083a12.823 12.823 0 0 0 2.722 2.573l-.808.945a14.091 14.091 0 0 1-2.635-2.51c-.795.956-1.802 1.764-3.02 2.41l-.622-1.006v.944h-1.168v-3.107c-.845.298-1.715.572-2.635.808zm17.675-5.867v.97l-.472.037v1.84c0 .596-.348.894-1.032.894h-.597l-.26-.92c.198.025.372.038.546.038.187 0 .286-.137.286-.385v-1.38c-.72.05-1.479.1-2.25.149-.136 1.057-.46 1.951-.982 2.672l-.857-.77c.397-.522.646-1.144.77-1.852l-.783.037-.149-1.007 1.02-.037v-2.697h1.292c.124-.299.224-.61.298-.92l1.181.161a3.704 3.704 0 0 1-.298.759h1.815v2.448l.472-.037zm-1.529.112v-1.604h-2.188v1.728l1.243-.074a10.05 10.05 0 0 0-.97-1.057l.635-.41c.422.398.733.758.957 1.069l-.572.398.895-.05zm2.3-3.008h3.418v1.417c0 .15.087.236.273.236h.945v.945h-1.23c-.71 0-1.057-.323-1.057-.97v-.708h-1.33a2.731 2.731 0 0 1-.249.932c-.161.31-.46.646-.907.994l-.82-.745c.298-.224.534-.448.708-.697.162-.26.249-.733.249-1.404zm3.505 7.023v2.747h1.28v1.056h-11.311v-1.056h1.28v-2.747h8.751zm-7.607 2.747h1.367v-1.678h-1.367v1.678zm2.51 0h1.393v-1.678h-1.392v1.678h-.001zm2.536 0h1.417v-1.678h-1.417v1.678zm3.207-6.725v.746a4.431 4.431 0 0 1-1.156 1.48c.572.285 1.106.583 1.604.906l-.684.82a14.095 14.095 0 0 0-1.815-1.118c-.708.373-1.553.684-2.535.908l-.498-.945a13.49 13.49 0 0 0 1.915-.522 25.245 25.245 0 0 0-1.442-.634l.571-.671c.684.248 1.318.51 1.915.783.36-.249.646-.51.87-.796h-3.369v-.957h4.624zm-7.868 1.07c.472.434.833.82 1.082 1.155l-.634.435a12.08 12.08 0 0 0-1.07-1.193l.622-.398v.001zm16.581-4.5l1.169.161c-.025.336-.062.659-.087.982h2.97v1.07h-3.095c-.05.297-.087.57-.124.844h2.449v7.06h1.131v1.07h-8.216v-1.07h1.23v-7.06h2.25c.05-.286.087-.571.112-.845h-3.058v-1.069h3.182c.025-.385.063-.77.087-1.143zm-1.441 10.117h3.592v-.832h-3.592v.832zm0-1.765h3.592v-.795h-3.592v.795zm0-1.74h3.592v-.783h-3.592v.783zm0-1.715h3.592v-.783h-3.592v.783zm-3.99-.174a19.78 19.78 0 0 1-1.194 1.516l-.385-1.255c1.156-1.417 2.001-3.083 2.536-4.972l1.069.497a15.14 15.14 0 0 1-.883 2.275v8.763h-1.143V173.8zM109.51 45.746h9.726v.877h-4.852v5.07h-1.018v-.92c-.877.143-2.114.274-3.713.384l-.132-.876.931-.044v-3.614h-.942v-.877zm1.928 4.425a29.15 29.15 0 0 0 1.928-.219v-.548h-1.928v.767zm0-1.511h1.928v-.668h-1.928v.668zm0-1.413h1.928v-.624h-1.928v.624zm3.746.756h-.362v-.866h3.822v.81a5.134 5.134 0 0 1-1.018 2.027c.46.329 1.007.624 1.643.887l-.526.865c-.7-.328-1.292-.7-1.785-1.095a7.598 7.598 0 0 1-1.906 1.084l-.537-.81c.68-.263 1.26-.58 1.742-.953a4.908 4.908 0 0 1-1.073-1.95v.001zm1.719 1.336a4.26 4.26 0 0 0 .789-1.336h-1.621c.175.492.449.941.832 1.336zm1.051-7.437v3.363h-1.018v-2.574h-5.082v2.606h-1.007v-3.395h7.107zm-5.717 1.347h4.337v.712h-4.337v-.712zm-.021 1.194h4.38v.701h-4.38v-.701zm13.405-2.946c.098.274.197.57.296.898h4.26v.964h-9.736v-.964h4.348a5.918 5.918 0 0 0-.329-.7l1.16-.198h.001zm2.782 10.142h-.91l-.24-.931.843.044c.405 0 .613-.154.613-.439v-2.77h-6.79v4.129h-.986v-5.027h8.762v3.888c0 .733-.438 1.106-1.292 1.106zm-6.243-7.765h6.32v2.277h-6.32v-2.278.001zm5.323 1.49v-.702h-4.326v.701h4.326v.001zm-4.392 2.704h4.457v2.3h-4.457v-2.3zm3.538 1.534v-.767h-2.607v.767h2.607zm10.787-8.094l1.03.142c-.022.296-.055.58-.077.866h2.618v.941h-2.727a24.64 24.64 0 0 0-.11.745h2.158v6.221h.996v.942h-7.239v-.942h1.084v-6.22h1.983a9.8 9.8 0 0 0 .098-.746h-2.694v-.941h2.804c.022-.34.054-.68.076-1.008zm-1.27 8.915h3.165v-.734h-3.165v.734zm0-1.555h3.165v-.701h-3.165v.701zm0-1.533h3.165v-.69h-3.165v.69zm0-1.512h3.165v-.69h-3.165v.69zm-3.516-.153c-.328.46-.679.909-1.051 1.336l-.34-1.106c1.019-1.249 1.764-2.716 2.235-4.381l.941.438c-.208.701-.47 1.369-.777 2.004v7.722h-1.008V45.67z" fill="#2A3052" fill-rule="nonzero"/><g fill="#2A3052" fill-rule="nonzero"><path d="M11.538 137.249h-1.03v-11.991h5.046v4.292h-4.016v7.699zm.012-11.196v.988h3.09v-.988h-3.09zm3.065 1.76h-3.064v.964h3.064v-.964zm2.141 1.683v-4.214h5.082c.038 5.833.038 9.17 0 10.014-.058 1.264.239 2.183-2.7 1.865-.053-.239-.13-.52-.23-.844.713-.171 1.971.589 1.971-.862v-5.96h-4.123v.001zm.974-1.688v.907h3.125v-.907H17.73zm-.008-1.74v.97h3.105v-.97h-3.105z"/><path d="M19.442 130.561v.834h-1.353v1.58h1.777v.866h-1.777v3.148h-.876v-3.148c-.943.004-1.66.004-2.155 0-.12.562-.12 2.42-2.12 3.341-.235-.35-.4-.609-.495-.778.677-.358 1.528-.805 1.746-2.533l-1.755-.027.009-.869h1.809v-1.58h-1.455v-.834h6.645zm-2.227.84H15.15v1.576h2.065v-1.576zm8.049-6.578l.99.111-.408 2.548c.131.01.81.01 2.035 0 .034 1.87-.352 4.66-1.138 6.264.845.909 1.377 1.526 1.595 1.852l-.66.735-1.354-1.618c-.79 1.296-1.478 2.199-2.063 2.709-.097-.14-.298-.396-.601-.765.764-.818 1.52-1.653 1.97-2.635l-1.746-1.74.878-3.875H23.66v-.927h1.235l.37-2.659h-.001zm1.72 3.592h-1.25a55.405 55.405 0 0 1-.804 3.55c.464.452.837.818 1.117 1.099.479-1.02.936-3.923.936-4.649h.001zm4.341-3.574l.912.312c-1.048 2.173-1.86 3.583-2.44 4.23 2.64-.23 4.094-.39 4.36-.48-.646-1.228-1.021-1.915-1.126-2.062l.851-.413c.919 1.58 1.619 2.888 2.1 3.923l-.925.466-.482-1.063c-3.337.385-5.357.584-6.059.597a24.777 24.777 0 0 0-.154-.907c.791-.434 1.779-1.969 2.963-4.603zm2.96 12.583v-.84h-4.192v.84h-.963v-5.825h6.084v5.825h-.93.001zm-.007-4.928h-4.161v3.137h4.16v-3.137h.001z"/></g></g></svg>