<svg width="299" height="197" xmlns="http://www.w3.org/2000/svg"><g fill="none"><path fill="#F1F1F2" d="M0 0h299v197H0z"/><path d="M1.987 1.98v193.04h295.026V1.98H1.987zM299 0v197H0V0h299z" fill="#C2C2C2"/><path d="M4.58 54.993v-1.212h290.408v1.212H4.58zm0 20.08V73.86h290.408v1.212H4.58zm0 60.274v-1.212h290.408v1.212H4.58zm0 20.078v-1.212h290.408v1.212H4.58zm0 20.08v-1.213h290.408v1.212H4.58zM39.059 34.307h1.212V192.59h-1.212V34.308zm36.75 0h1.212V192.59H75.81V34.308zm36.75 0h1.213V192.59h-1.212V34.308zm36.713 0h1.212V192.59h-1.212V34.308zm36.751 0h1.212V192.59h-1.212V34.308zm36.75 0h1.213V192.59h-1.213V34.308zm36.751 0h1.212V192.59h-1.212V34.308zM4.58 115.268v-1.212h290.408v1.212H4.58z" fill="#DEDEDD"/><path fill="#293052" d="M4.58 95.189v-1.212h1.816v1.212zm5.45 0v-1.212h3.636v1.212H10.03zm7.272 0v-1.212h3.636v1.212h-3.636zm7.272 0v-1.212h3.636v1.212h-3.636zm7.272 0v-1.212h3.636v1.212h-3.636zm7.272 0v-1.212h3.636v1.212h-3.636zm7.272 0v-1.212h3.636v1.212H46.39zm7.272 0v-1.212h3.636v1.212h-3.636zm7.272 0v-1.212h3.636v1.212h-3.636zm7.272 0v-1.212h3.636v1.212h-3.636zm7.272 0v-1.212h3.636v1.212h-3.636zm7.272 0v-1.212h3.636v1.212H82.75zm7.273 0v-1.212h3.636v1.212h-3.636zm7.272 0v-1.212h3.636v1.212h-3.636zm7.272 0v-1.212h3.636v1.212h-3.636zm7.272 0v-1.212h3.636v1.212h-3.636zm7.272 0v-1.212h3.636v1.212h-3.636zm7.272 0v-1.212h3.636v1.212h-3.636zm7.272 0v-1.212h3.636v1.212h-3.636zm7.272 0v-1.212h3.636v1.212h-3.636zm7.272 0v-1.212h3.636v1.212H148.2zm7.272 0v-1.212h3.636v1.212h-3.636zm7.272 0v-1.212h3.636v1.212h-3.636zm7.272 0v-1.212h3.636v1.212h-3.636zm7.272 0v-1.212h3.636v1.212h-3.636zm7.272 0v-1.212h3.636v1.212h-3.636zm7.272 0v-1.212h3.637v1.212h-3.637zm7.273 0v-1.212h3.636v1.212h-3.636zm7.272 0v-1.212h3.636v1.212h-3.636zm7.272 0v-1.212h3.636v1.212h-3.636zm7.272 0v-1.212h3.636v1.212h-3.636zm7.272 0v-1.212h3.636v1.212h-3.636zm7.272 0v-1.212h3.636v1.212h-3.636zm7.272 0v-1.212h3.636v1.212h-3.636zm7.272 0v-1.212h3.636v1.212h-3.636zm7.272 0v-1.212h3.636v1.212h-3.636zm7.272 0v-1.212h3.636v1.212h-3.636zm7.272 0v-1.212h3.636v1.212h-3.636zm7.272 0v-1.212h3.636v1.212h-3.636zm7.272 0v-1.212h3.636v1.212h-3.636zm6.842 0v-1.212h1.778v1.212z"/><path fill="#C2C2C2" d="M2 30v-2h296v2z"/><path d="M222.098 93.32a1.8 1.8 0 1 1 2.563 2.526l-31.755 32.202a1.8 1.8 0 0 1-2.118.33l-41.55-21.853-42.212 24.394a1.8 1.8 0 0 1-1.698.054l-29.71-14.699a1.8 1.8 0 0 1-.356-.231l-36.75-30.687a1.8 1.8 0 1 1 2.306-2.762l36.587 30.55 28.655 14.177 42.237-24.408a1.8 1.8 0 0 1 1.738-.035l41.246 21.693 30.817-31.251z" fill="#293052"/><path d="M255.777 116.442l.682-6.592h5.98v1.44h-4.58l-.378 3.372c.257-.186.537-.339.832-.455a3.1 3.1 0 0 1 1.06-.19 3.216 3.216 0 0 1 2.612 1.061 4.36 4.36 0 0 1 .946 2.955 4.208 4.208 0 0 1-.946 2.88 3.556 3.556 0 0 1-2.801 1.098 3.782 3.782 0 0 1-2.536-.833 2.88 2.88 0 0 1-.984-2.463h1.476a2.009 2.009 0 0 0 .568 1.516c.402.366.933.557 1.476.53a1.892 1.892 0 0 0 1.59-.72 3.11 3.11 0 0 0 .378-2.045 2.995 2.995 0 0 0-.568-1.895 1.892 1.892 0 0 0-1.59-.72 2.534 2.534 0 0 0-1.362.304c-.305.21-.532.517-.643.871l-1.212-.114zm6.018 20.572h1.628v1.288h-1.628v2.765h-1.627v-2.803h-5.375v-.91l5.261-8.296h1.703v7.956h.038zm-5.26 0h3.784v-5.645.417l-3.785 5.228zm.832 17.73h1.4a1.891 1.891 0 0 0 1.514-.53c.328-.435.49-.973.455-1.516a2.199 2.199 0 0 0-.492-1.553 1.967 1.967 0 0 0-1.514-.53 2.08 2.08 0 0 0-1.514.567 1.971 1.971 0 0 0-.568 1.478h-1.4a2.918 2.918 0 0 1 .984-2.311 3.783 3.783 0 0 1 2.687-.947 3.782 3.782 0 0 1 2.65.871 3.222 3.222 0 0 1 .983 2.539 2.88 2.88 0 0 1-1.779 2.614c.622.17 1.16.56 1.514 1.098a3.564 3.564 0 0 1-.643 4.281 4.01 4.01 0 0 1-2.725.947 4.123 4.123 0 0 1-2.725-.871 2.843 2.843 0 0 1-1.022-2.387h1.552c-.037.563.17 1.115.567 1.516a2.194 2.194 0 0 0 1.59.568 2.232 2.232 0 0 0 1.627-.568 2.16 2.16 0 0 0 .644-1.895 1.857 1.857 0 0 0-2.157-2.159h-1.628v-1.212zm5.715 26.33h-7.759v-1.137l3.785-4.357a11.06 11.06 0 0 0 1.438-1.856c.241-.429.371-.91.379-1.402a2.237 2.237 0 0 0-.53-1.515 1.74 1.74 0 0 0-1.4-.606 2.383 2.383 0 0 0-1.817.644 2.54 2.54 0 0 0-.606 1.78h-1.438a3.373 3.373 0 0 1 1.022-2.614 4.047 4.047 0 0 1 2.952-1.06 3.518 3.518 0 0 1 2.574.947c.632.63.975 1.494.946 2.386a3.791 3.791 0 0 1-.568 1.97 12.652 12.652 0 0 1-1.627 2.122l-3.142 3.41h5.753v1.287h.038zm0-110.586a16.86 16.86 0 0 0-2.914 4.584 20.55 20.55 0 0 0-1.098 4.85v1.288h-1.703v-1.288a17.63 17.63 0 0 1 1.4-5.153 19.627 19.627 0 0 1 2.726-4.357h-6.51V69.2h8.1v1.288zm-.454-17.616a2.654 2.654 0 0 1-.53 1.629 3.104 3.104 0 0 1-1.438 1.06 3.785 3.785 0 0 1 1.665 1.137c.404.505.618 1.135.606 1.78a3.07 3.07 0 0 1-1.098 2.54 4.992 4.992 0 0 1-5.64 0 3.108 3.108 0 0 1-1.059-2.54 2.805 2.805 0 0 1 .606-1.78 3.52 3.52 0 0 1 1.627-1.136 3.028 3.028 0 0 1-1.4-1.061 2.73 2.73 0 0 1-.492-1.63 3.07 3.07 0 0 1 .984-2.424 3.778 3.778 0 0 1 2.573-.871 3.782 3.782 0 0 1 2.574.871 3.032 3.032 0 0 1 1.022 2.425zm-1.287 5.569a2.16 2.16 0 0 0-.643-1.63 2.27 2.27 0 0 0-1.628-.643 2.198 2.198 0 0 0-2.27 2.273 2.08 2.08 0 0 0 .643 1.591 2.647 2.647 0 0 0 3.293 0c.423-.417.644-.998.605-1.591zm-.19-5.531a2.047 2.047 0 0 0-.567-1.478 2.005 2.005 0 0 0-2.8 0 2.085 2.085 0 0 0-.53 1.478c-.031.544.16 1.077.53 1.477a2.08 2.08 0 0 0 2.8 0c.384-.394.589-.928.568-1.477z" fill="#808184"/><path d="M188.65 145.07h-35.047l-5.526-8.07-5.299 8.07h-35.047a4.733 4.733 0 0 0-4.731 4.735v24.511a4.733 4.733 0 0 0 4.731 4.736h80.92a4.729 4.729 0 0 0 3.418-1.346 4.738 4.738 0 0 0 1.426-3.39v-24.473a4.738 4.738 0 0 0-1.412-3.414 4.729 4.729 0 0 0-3.433-1.36z" fill="#E88024"/><ellipse cx="8.43" cy="8.448" rx="8.137" ry="8.373" opacity=".6" transform="translate(214.95 86.135)" fill="#FFF"/><path d="M223.38 104.167c-5.172 0-9.35-4.298-9.35-9.584s4.178-9.585 9.35-9.585c5.17 0 9.349 4.3 9.349 9.585 0 5.286-4.178 9.584-9.35 9.584zm0-2.424c3.816 0 6.925-3.198 6.925-7.16s-3.109-7.16-6.926-7.16c-3.816 0-6.925 3.198-6.925 7.16s3.109 7.16 6.925 7.16zm22.898-15.987h28.575v18.79h-28.575z" fill="#E88024"/><path d="M259.979 88.9a5.71 5.71 0 0 1 1.249 0c.389.092.769.218 1.135.379l-.416 1.743-.984-.265h-.984a2.157 2.157 0 0 0-1.741.833 3.336 3.336 0 0 0-.606 2.273 2.763 2.763 0 0 1 1.022-.644c.448-.163.923-.24 1.4-.227a3.027 3.027 0 0 1 2.498 1.136c.63.839.951 1.87.909 2.917a4.132 4.132 0 0 1-1.136 2.993 3.783 3.783 0 0 1-2.914 1.175 4.01 4.01 0 0 1-3.104-1.288 5.042 5.042 0 0 1-1.173-3.562v-2.348a5.117 5.117 0 0 1 1.363-3.789 4.615 4.615 0 0 1 3.482-1.326zm-.568 5.948a2.723 2.723 0 0 0-1.136.227 1.741 1.741 0 0 0-.719.569v.795a3.8 3.8 0 0 0 .53 2.198c.291.473.808.76 1.363.757a1.362 1.362 0 0 0 1.173-.682 2.92 2.92 0 0 0 .53-1.667c.03-.578-.13-1.15-.454-1.629a1.438 1.438 0 0 0-1.287-.606v.038z" fill="#FFF"/><path fill="#E88024" d="M249.76 95.151l-3.331 3.334-5.185-3.334 5.185-3.296z"/><path fill="#293052" d="M247.564 126.292v-1.212h22.899v1.212z"/><path d="M139.442 166.926v1.276c0 .132-.022.264-.022.396h2.332v-1.672h-2.31zm2.31-1.034v-1.782h-2.31v1.782h2.31zm-2.398 3.74c-.198 1.452-.66 2.684-1.386 3.674l-.968-.88c.792-1.1 1.188-2.486 1.21-4.158v-5.302h4.752v8.932c0 .88-.484 1.32-1.43 1.32h-1.1l-.308-1.21c.352.022.704.044 1.012.044.396 0 .616-.22.616-.616v-1.804h-2.398zm-.308-14.08h-1.848v-1.188h9.042a7.51 7.51 0 0 0-.616-1.1l1.562-.264c.242.418.462.88.66 1.364h8.888v1.188h-16.28v1.188h14.96v1.078h-16.368v-2.266zm16.786 17.336h-1.034c-.726 0-1.078-.352-1.078-1.012v-3.014l-.682.462c-.374-.748-.88-1.54-1.496-2.398v.374c0 1.496-.11 2.662-.286 3.454-.22.792-.638 1.65-1.298 2.53l-.99-.88-.352.418c-.528-.66-1.1-1.232-1.694-1.716l.748-.704c.594.44 1.144.968 1.628 1.54.352-.55.594-1.056.726-1.518.176-.616.286-1.672.286-3.124v-4.334h4.642v8.558c0 .176.088.286.286.286h.396c.154 0 .286-.132.374-.352.066-.242.132-1.056.198-2.442l.99.352c-.132 1.584-.264 2.574-.418 2.948-.176.374-.506.572-.946.572zm-4.29-6.314l.66-.396c.66.88 1.166 1.628 1.518 2.288v-4.268h-2.178v2.376zm-7.458-3.608h5.016v7.106h-5.016v-7.106zm3.784 6.138v-1.166h-2.574v1.166h2.574zm-2.574-2.002h2.574v-1.122h-2.574v1.122zm0-1.936h2.574v-1.21h-2.574v1.21zm.132 5.258l.792.704c-.572.814-1.298 1.518-2.134 2.134l-.682-.902a8.915 8.915 0 0 0 2.024-1.936zm-5.72-11.638h14.454v3.19h-14.454v-3.19zm12.98 2.266v-1.342H141.18v1.342h11.506zm7.92-5.676h2.046l-.33 11.484h-1.364l-.352-11.484zm1.012 13.09c.396 0 .704.11.968.374.242.242.374.55.374.924 0 .396-.132.704-.374.946a1.402 1.402 0 0 1-.968.374 1.26 1.26 0 0 1-.924-.374 1.28 1.28 0 0 1-.396-.946c0-.374.132-.682.396-.924.242-.264.55-.374.924-.374z" fill="#FFF"/><path d="M212.84 14.022h12.348v.812h-6.286v4.424c.28-.042.56-.084.812-.126v.798c-.252.042-.532.084-.812.14v1.358h-.98v-1.232a86.8 86.8 0 0 1-4.914.406l-.126-.868 1.302-.056v-4.844h-1.344v-.812zm2.254 5.614a59.19 59.19 0 0 0 2.828-.252v-.952h-2.828v1.204zm0-1.946h2.828v-1.05h-2.828v1.05zm0-1.806h2.828v-1.05h-2.828v1.05zm-.476-6.818h8.848v4.032h-8.848V9.066zm7.882 3.304v-.938h-6.916v.938h6.916zm-6.916-1.652h6.916v-.896h-6.916v.896zm4.494 5.88h-.448v-.826h4.774v.784a6.662 6.662 0 0 1-1.414 2.786c.616.462 1.344.868 2.212 1.232l-.518.84c-.924-.434-1.708-.91-2.338-1.428-.644.56-1.428 1.036-2.338 1.428l-.518-.784c.84-.364 1.568-.784 2.17-1.288a6.275 6.275 0 0 1-1.582-2.744zm2.198 2.142a6.07 6.07 0 0 0 1.218-2.142h-2.548a5.103 5.103 0 0 0 1.33 2.142zm14.742-6.832c.896 1.176 1.568 2.198 2.044 3.08l-.714.504c-.196-.364-.42-.742-.644-1.106a53.4 53.4 0 0 1-4.242.518l.588.238c-.14.28-.266.56-.406.826h4.06v.826c-.364.952-.994 1.792-1.89 2.492 1.008.546 2.198.966 3.57 1.26l-.56.84c-1.512-.364-2.8-.882-3.836-1.54-1.092.658-2.478 1.19-4.13 1.582l-.462-.826c1.498-.336 2.744-.784 3.752-1.33a8.172 8.172 0 0 1-1.624-1.638 8.653 8.653 0 0 1-1.442 1.344l-.714-.63a8.03 8.03 0 0 0 2.786-3.416l-1.82.126-.266-.798c1.05-.364 2.24-1.176 3.57-2.422-.812.098-1.848.196-3.08.28l-.126-.826c.364-.056.714-.28 1.064-.644.504-.546 1.008-1.274 1.54-2.17l.91.35c-.686 1.008-1.33 1.806-1.946 2.394a79.03 79.03 0 0 0 2.548-.28c.364-.392.728-.784 1.092-1.204l.882.42c-1.638 1.82-3.108 3.164-4.424 4.018 1.568-.168 2.94-.35 4.088-.574-.28-.42-.574-.826-.882-1.246l.714-.448zm-2.058 6.86c.77-.56 1.344-1.204 1.722-1.918h-3.57c-.014.014-.028.028-.028.042a7.03 7.03 0 0 0 1.876 1.876zm-5.264-10.22l.882.42c-.756 1.54-1.974 2.898-3.654 4.088l-.294-.98c1.4-1.036 2.422-2.212 3.066-3.528zm.238 3.556l.868.406c-.336.714-.77 1.386-1.274 2.03v6.776h-.98V15.59c-.49.476-1.022.91-1.582 1.316l-.294-.966c1.484-1.12 2.562-2.408 3.262-3.836zm19.362-.434c-.112.392-.21.77-.322 1.134.196 1.596.616 3.024 1.274 4.256.658-1.498 1.022-3.29 1.078-5.39h-2.03zm.42 6.412c-.644-1.092-1.092-2.324-1.372-3.682-.168.35-.35.672-.532.966l-.63-.784c.826-1.512 1.386-3.57 1.68-6.16l.994.168c-.098.742-.21 1.442-.35 2.114h3.724v.966h-.966c-.07 2.52-.546 4.634-1.442 6.356a10.504 10.504 0 0 0 2.59 2.632l-.602.798a10.4 10.4 0 0 1-2.52-2.492 9.849 9.849 0 0 1-2.338 2.478l-.546-.882a8.145 8.145 0 0 0 2.31-2.478zm-8.344-8.792h2.254v-.714h.924v.714h2.268v1.596h.574v.84h-.574v1.596h-2.268v.7h2.464v2.282h-2.646c-.154.28-.294.532-.434.77h3.08v.644c-.42.7-.994 1.33-1.75 1.89.686.28 1.386.616 2.114.98l-.546.714a25.15 25.15 0 0 0-2.408-1.162c-.868.504-1.904.924-3.108 1.288l-.546-.728c1.008-.28 1.89-.602 2.646-.966a24.197 24.197 0 0 0-1.778-.602c.294-.42.574-.854.84-1.274h-1.792v-.784h2.268c.154-.266.308-.518.448-.77h-2.226v-2.282h2.45v-.7h-2.254v-1.596h-.574v-.84h.574V9.29zm2.954 9.94c.658-.42 1.19-.868 1.61-1.372h-2.464c-.224.336-.42.644-.588.91.476.126.952.28 1.442.462zm1.624-6.622v-.966h-1.4v.966h1.4zm-1.4-1.638h1.4v-.952h-1.4v.952zm-.924 1.638v-.966h-1.386v.966h1.386zm-1.386-1.638h1.386v-.952h-1.386v.952zm3.906 4.634v-.896h-1.596v.896h1.596zm-2.52 0v-.896h-1.582v.896h1.582zm23.31-5.6v3.122h-1.008V10.97h-9.856v2.156h-1.008v-3.122h5.502a11.205 11.205 0 0 0-.63-1.358l1.148-.196c.196.462.392.98.574 1.554h5.278zm-9.716 2.478h7.518v.938c-.91.644-1.932 1.26-3.052 1.876v.938h5.516v.98h-5.516v2.968c0 .77-.406 1.162-1.218 1.162h-1.722l-.238-.924c.49.014 1.022.028 1.61.028.364 0 .546-.21.546-.616v-2.618h-5.852v-.98h5.852v-1.372a35.426 35.426 0 0 0 2.562-1.442h-6.006v-.938zm12.628.7c.224 0 .434.084.602.252a.814.814 0 0 1 .252.602.845.845 0 0 1-.252.616.883.883 0 0 1-.602.238.812.812 0 0 1-.602-.238.845.845 0 0 1-.252-.616c0-.238.084-.434.252-.602a.772.772 0 0 1 .602-.252zm0 5.124c.224 0 .434.084.602.252a.814.814 0 0 1 .252.602.845.845 0 0 1-.252.616.883.883 0 0 1-.602.238.812.812 0 0 1-.602-.238.845.845 0 0 1-.252-.616c0-.238.084-.434.252-.602a.772.772 0 0 1 .602-.252zm7.98-8.302h5.81v1.022h-4.872l-.336 3.346h.056c.28-.336.644-.588 1.078-.756a3.177 3.177 0 0 1 1.274-.238c.952 0 1.722.294 2.31.896.588.616.896 1.456.896 2.534 0 1.008-.364 1.834-1.078 2.478-.672.602-1.512.91-2.492.91-.882 0-1.638-.238-2.254-.714-.7-.532-1.078-1.26-1.148-2.17h1.134c.056.63.308 1.12.756 1.456.392.294.91.448 1.526.448.7 0 1.274-.224 1.736-.672.448-.448.686-1.022.686-1.722 0-.798-.224-1.414-.644-1.848-.406-.448-.98-.658-1.708-.658-.476 0-.896.098-1.274.308-.392.196-.7.504-.896.896h-1.092l.532-5.516z" fill="#2A3052"/><path d="M25.14 12.3c-.09.33-.195.66-.285.975.18 1.47.555 2.79 1.125 3.96.54-1.41.855-3.045.915-4.935H25.14zm.015 6.585a13.55 13.55 0 0 1-1.26-3.285c-.105.18-.21.345-.3.51l-.975-1.215v2.25h-2.775c-.105.195-.21.375-.3.555h3.12v.975c-.375.66-.9 1.26-1.575 1.8.585.24 1.185.51 1.785.81l-.015-.03a7.862 7.862 0 0 0 2.295-2.37zm-5.505 1.05c.54-.33.975-.69 1.335-1.065h-2.1l-.45.705c.39.105.795.225 1.215.36zm3.315 1.5L22.2 22.47a23.402 23.402 0 0 0-2.4-1.155c-.915.495-2.01.93-3.27 1.29l-.855-1.125c.96-.24 1.8-.51 2.52-.81a19.97 19.97 0 0 0-1.68-.555c.285-.42.555-.84.825-1.245h-1.65V17.7h2.37c.105-.195.21-.375.315-.555h-2.22v-2.67h2.52v-.51H16.35v-1.65h-.54v-1.26h.54V9.42h2.325V8.7h1.41v.72h2.34v1.635h.555v1.26h-.555v1.65h-2.34v.51h2.535v.375c.795-1.56 1.335-3.66 1.62-6.3l1.545.27c-.09.705-.195 1.365-.315 1.995h3.735V12.3h-.87c-.09 2.55-.57 4.71-1.44 6.495.69.99 1.545 1.86 2.565 2.595l-.945 1.26c-.975-.69-1.8-1.5-2.475-2.4a10.256 10.256 0 0 1-2.325 2.37l-.75-1.185zM21.09 12.9v-.72h-1.005v.72h1.005zm-1.005-1.71h1.005v-.72h-1.005v.72zm-1.41 1.71v-.72h-.99v.72h.99zm-.99-1.71h.99v-.72h-.99v.72zm3.615 4.95v-.66h-1.215v.66H21.3zm-2.625 0v-.66h-1.2v.66h1.2zm25.305-6.045v3.585h-1.575v-2.1h-9.81v2.1H31.02v-3.585h5.655c-.21-.45-.42-.885-.66-1.275l1.815-.3c.21.465.42.99.6 1.575h5.55zM33.39 12.81h8.205v1.44c-.93.66-1.98 1.305-3.12 1.935v.645h5.73v1.5h-5.73V21c0 1.005-.525 1.515-1.56 1.515H35.07l-.375-1.425c.51.03 1.08.045 1.695.045.33 0 .51-.225.51-.66V18.33h-6.09v-1.5h6.09v-1.275c.99-.51 1.785-.945 2.37-1.305h-5.88v-1.44zm19.275 2.655h5.97v4.89h-5.97v-4.89zm4.56 3.54v-2.19H54.06v2.19h3.165zM46.17 10.56h2.145V8.67H49.8v1.89h2.115v1.38H49.8v1.8h1.995v1.41H50.13v1.695h1.77v1.41h-1.77v2.19c.03.015.075.03.12.045.87.285 2.895.435 6.075.435 1.35 0 2.37-.03 3.03-.09l-.27 1.56H56.67c-3.9 0-6.33-.225-7.32-.66-.72-.33-1.365-.855-1.92-1.605-.195.87-.435 1.68-.72 2.46l-1.14-1.02c.585-1.71.915-3.6.99-5.67l1.335.165c-.03.765-.075 1.5-.165 2.22.285.465.6.855.93 1.185v-4.32h-2.61v-1.41h2.265v-1.8H46.17v-1.38zm7.95.135h-1.845v-1.44h6.585c-.015 2.7-.165 4.32-.435 4.86-.285.54-.765.81-1.455.81-.315 0-.705-.03-1.17-.075l-.39-1.38c.495.045.9.075 1.23.105.315-.015.51-.18.585-.48.075-.3.12-1.095.135-2.4h-1.785c-.195.99-.45 1.77-.75 2.37-.42.75-1.05 1.425-1.875 2.025l-1.005-1.305c.69-.45 1.2-.945 1.56-1.485.255-.42.465-.945.615-1.605zm7.875-1.89c.945.795 1.755 1.59 2.415 2.37l-1.08 1.08c-.57-.75-1.365-1.575-2.385-2.445l1.05-1.005zm8.64 13.53c-.84 0-1.77-.015-2.76-.03-1.005-.015-1.83-.09-2.49-.24-.63-.18-1.155-.525-1.605-1.005-.21-.24-.405-.36-.585-.36-.255 0-.72.645-1.41 1.95l-1.14-1.08c.66-1.11 1.275-1.845 1.845-2.19v-4.215h-1.83v-1.44h3.3v5.76c.06.06.12.105.18.165.36.39.72.69 1.095.885.45.21 1.125.33 2.025.36.9.015 1.95.03 3.15.03.75 0 1.5-.015 2.28-.015.765-.015 1.35-.045 1.77-.075l-.375 1.5h-3.45zm2.355-13.29v4.41h1.05v5.595c0 .87-.525 1.32-1.56 1.32h-1.275l-.33-1.29 1.185.06c.315 0 .48-.15.48-.42v-3.915h-6.03v5.4h-1.5v-6.75H66v-4.41h6.99zm-5.52 4.41h1.455V12.42H67.47v1.035zm0-2.235h2.775v2.235h1.29V10.38H67.47v.84zm-.105 4.23h4.245v3.375h-4.245V15.45zm2.955 2.19v-1.08h-1.65v1.08h1.65zm5.73-8.49h4.98v1.23c-.45 1.26-.96 2.595-1.545 4.005.93 1.395 1.425 2.595 1.5 3.615 0 .72-.15 1.245-.45 1.545-.45.39-1.245.6-2.355.615l-.51-1.59c.33.06.615.09.84.09.36-.03.6-.075.72-.165.12-.09.18-.255.18-.495 0-1.005-.51-2.13-1.515-3.375.66-1.485 1.185-2.82 1.56-4.005H77.58v11.955h-1.53V9.15zm6.945 4.125v1.245h3.795v-1.245h-3.795zm3.795-1.41v-1.26h-3.795v1.26h3.795zm-2.52 4.08h-1.275v4.5c.765-.24 1.515-.525 2.265-.885l.375 1.455c-1.11.465-2.505.915-4.185 1.335l-.375-1.38c.24-.075.375-.225.375-.435v-11.4h6.87v6.81h-2.64c.15.72.39 1.38.72 1.995.63-.39 1.23-.915 1.8-1.605l.99 1.005a7.571 7.571 0 0 1-2.055 1.71c.615.78 1.41 1.47 2.4 2.04l-.87 1.38c-2.43-1.605-3.9-3.78-4.395-6.525zm8.01-1.005c-.285.285-.585.555-.9.81l-.795-1.035c1.08-.84 1.83-1.875 2.22-3.09l1.305.195-.225.645h1.905V11.19h-3.63v1.29h-1.35V9.9h2.415c-.12-.36-.24-.69-.375-.99l1.53-.24c.12.36.225.78.33 1.23h2.43v2.58h-.675v1.02c-.345.72-.735 1.365-1.155 1.92.81.555 1.53 1.11 2.19 1.65l-1.02 1.02c-.06-.06-.12-.105-.15-.135v4.455h-1.38v-.705h-2.055v.78H91.53v-4.35c-.12.045-.24.09-.36.12l-.615-1.245c1.05-.27 1.98-.735 2.76-1.395l-1.035-.675zm2.145 1.47c-.495.45-1.035.84-1.62 1.17h3.105c-.45-.39-.945-.78-1.485-1.17zm-.21-1.71c.27-.33.51-.675.735-1.035h-1.68c-.075.12-.15.225-.21.33.405.24.795.465 1.155.705zm-1.32 5.67h2.055v-1.53h-2.055v1.53zm4.875-8.82h2.07l.09-1.02h-2.565V9.15h6.84v1.38h-2.73l-.09 1.02h2.37v8.04h-1.365c.84.66 1.545 1.32 2.115 1.965l-1.05 1.035c-.495-.66-1.2-1.38-2.13-2.13l.9-.87h-2.91l.99.87c-.66.84-1.485 1.575-2.445 2.22l-.915-1.185c.9-.555 1.65-1.185 2.235-1.905h-1.41v-8.04zm4.53 6.69v-1.02h-3.09v1.02h3.09zm-3.09-2.25h3.09v-.945h-3.09v.945zm0-2.175h3.09v-.99h-3.09v.99z" fill="#000"/></g></svg>