<svg width="299" height="197" xmlns="http://www.w3.org/2000/svg"><g fill="none" fill-rule="evenodd"><path fill="#F1F2F2" d="M0 0h299v197H0z"/><path d="M1.987 1.98v193.04h295.026V1.98H1.987zM299 0v197H0V0h299z" fill="#C2C2C2" fill-rule="nonzero"/><path d="M9.765 57.597V56.43h279.823v1.167H9.765zm0 39.175v-1.167h279.823v1.167H9.765zm0 39.175v-1.167h279.823v1.167H9.765zm0 39.14v-1.168h279.823v1.168H9.765zM42.977 37.444h1.168v154.318h-1.168V37.444zm35.42 0h1.168v154.318h-1.167V37.444zm35.385 0h1.168v154.318h-1.168V37.444z" fill="#DFDEDE" fill-rule="nonzero"/><path d="M149.203 37.444h1.167v5.873h-1.167v-5.873zm0 11.746h1.167v5.873h-1.167V49.19zm0 11.746h1.167v5.874h-1.167v-5.874zm0 11.747h1.167v5.873h-1.167v-5.873zm0 11.746h1.167v5.873h-1.167V84.43zm0 11.747h1.167v5.873h-1.167v-5.873zm0 11.746h1.167v5.873h-1.167v-5.873zm0 11.747h1.167v5.873h-1.167v-5.873zm0 11.746h1.167v5.873h-1.167v-5.873zm0 11.746h1.167v5.874h-1.167v-5.874zm0 11.747h1.167v5.873h-1.167v-5.873zm0 11.746h1.167v5.873h-1.167v-5.873zm0 11.747h1.167v5.873h-1.167V178.4zm0 11.746h1.167v1.615h-1.167v-1.615z" fill="#E98024" fill-rule="nonzero"/><path d="M184.584 37.444h1.168v154.318h-1.168V37.444zm35.385 0h1.168v154.318h-1.168V37.444zM9.765 116.342v-1.168h279.823v1.168H9.765z" fill="#DFDEDE" fill-rule="nonzero"/><path d="M255.39 37.444h1.167v154.318h-1.167V37.444zM9.765 77.202v-1.167h279.823v1.167H9.765z" fill="#2A3052" fill-rule="nonzero"/><path d="M9.765 155.517v-1.167h5.874v1.167H9.765zm11.747 0v-1.167h5.873v1.167h-5.873zm11.746 0v-1.167h5.873v1.167h-5.873zm11.747 0v-1.167h5.873v1.167h-5.873zm11.746 0v-1.167h5.873v1.167h-5.873zm11.746 0v-1.167h5.874v1.167h-5.874zm11.747 0v-1.167h5.873v1.167h-5.873zm11.746 0v-1.167h5.874v1.167H91.99zm11.747 0v-1.167h5.873v1.167h-5.873zm11.746 0v-1.167h5.873v1.167h-5.873zm11.747 0v-1.167h5.873v1.167h-5.873zm11.746 0v-1.167h5.873v1.167h-5.873zm11.746 0v-1.167h5.874v1.167h-5.874zm11.747 0v-1.167h5.873v1.167h-5.873zm11.746 0v-1.167h5.874v1.167h-5.874zm11.747 0v-1.167h5.873v1.167h-5.873zm11.746 0v-1.167h5.873v1.167h-5.873zm11.747 0v-1.167h5.873v1.167h-5.873zm11.746 0v-1.167h5.873v1.167h-5.873zm11.746 0v-1.167h5.874v1.167h-5.874zm11.747 0v-1.167h5.873v1.167h-5.873zm11.746 0v-1.167h5.874v1.167h-5.874zm11.747 0v-1.167h5.873v1.167h-5.873zm11.746 0v-1.167h5.873v1.167h-5.873z" fill="#E98024" fill-rule="nonzero"/><path fill="#C2C2C2" fill-rule="nonzero" d="M2 37.456V35.12h295v2.336z"/><path d="M83.557 118.022l-39.387 37a1.751 1.751 0 1 1-2.398-2.553l40.078-37.65a1.751 1.751 0 0 1 1.612-.425l36.942 8.976 27.153-48.706a1.751 1.751 0 0 1 2.656-.488l34.96 29.378 34.693-1.918c.351-.02.7.068 1.001.25l35.42 21.361a1.751 1.751 0 0 1-1.808 3l-34.959-21.084-34.846 1.926a1.751 1.751 0 0 1-1.223-.408l-33.868-28.46-26.768 48.018a1.751 1.751 0 0 1-1.943.85l-37.315-9.067z" fill="#2A3052" fill-rule="nonzero"/><circle cx="8.161" cy="8.188" r="7.836" opacity=".6" transform="translate(247.222 115.222)" fill="#FFF"/><path d="M255.383 132.39a8.98 8.98 0 1 1 0-17.961 8.98 8.98 0 0 1 0 17.962zm0-2.288a6.692 6.692 0 1 0 0-13.384 6.692 6.692 0 0 0 0 13.384z" fill="#E88024" fill-rule="nonzero"/><circle cx="8.526" cy="8.228" r="7.836" opacity=".6" transform="translate(34.444 145.667)" fill="#FFF"/><path d="M42.97 162.876a8.98 8.98 0 1 1 0-17.962 8.98 8.98 0 0 1 0 17.962zm0-2.289a6.692 6.692 0 1 0 0-13.384 6.692 6.692 0 0 0 0 13.384z" fill="#E88024" fill-rule="nonzero"/><circle cx="8.026" cy="8.644" r="7.836" opacity=".6" transform="translate(140.556 68)" fill="#FFF"/><path d="M148.581 85.624a8.98 8.98 0 1 1 0-17.961 8.98 8.98 0 0 1 0 17.961zm0-2.288a6.692 6.692 0 1 0 0-13.385 6.692 6.692 0 0 0 0 13.385z" fill="#E88024" fill-rule="nonzero"/><path d="M258.65 150.92h-37.126l-5.28-7.898-5.28 7.9h-37.142a4.622 4.622 0 0 0-4.622 4.623v23.875a4.622 4.622 0 0 0 4.622 4.623h84.829a4.622 4.622 0 0 0 4.622-4.623v-23.879a4.622 4.622 0 0 0-4.622-4.622z" fill="#E88024"/><path d="M15.315 10.75h5.85v-.705h1.38v.705h5.76v1.02h-5.76v.555h5.01v.945h-11.46v-.945h5.07v-.555h-5.85v-1.02zm.615 3.06h11.79v2.595H15.93V13.81zm10.5 1.68v-.78h-2.295v.78h2.295zm-3.555 0v-.78H20.73v.78h2.145zm-3.405 0v-.78h-2.25v.78h2.25zm-2.865 1.47h10.47v5.235h-2.85c1.5.18 2.94.435 4.335.78l-.405 1.005c-1.62-.45-3.315-.81-5.085-1.05l.375-.735H20.07l.465.615c-1.14.48-2.805.87-4.965 1.17L15 22.975c1.755-.21 3.165-.465 4.23-.78h-2.625V16.96zm9.105 4.26v-.585h-7.74v.585h7.74zm-7.74-1.38h7.74v-.585h-7.74v.585zm0-1.365h7.74v-.615h-7.74v.615zm15.3-1.95v7.32h-1.38v-6.9c-.405 1.23-.9 2.37-1.5 3.39l-.585-1.47c.93-1.35 1.59-2.895 2.01-4.635h-1.62v-1.365h1.695v-2.82h1.38v2.82h1.305v1.365H33.27v.765c.585.66 1.17 1.395 1.77 2.22l-.765 1.14c-.39-.72-.72-1.335-1.005-1.83zm1.92-3.585h3.615v2.745H35.19V12.94zm2.565 1.8v-.84H36.24v.84h1.515zm1.755-1.8h3.69v2.745h-3.69V12.94zm2.64 1.785v-.81h-1.59v.81h1.59zm-6.63 4.755c-.36.39-.735.78-1.14 1.155l-.405-1.275c1.065-1.065 1.815-2.22 2.25-3.48l1.305.24c-.075.195-.15.39-.225.57h1.755c-.12-.24-.24-.45-.36-.63l1.395-.21c.12.255.225.54.33.84h2.955v1.14h-2.82v.78h2.37v1.035h-2.37v.765h2.46v1.02h-2.46v.81h3.105v1.155H36.75v.405h-1.23v-4.32zm1.23 2.76h2.55v-.81h-2.55v.81zm2.55-1.83v-.765h-2.55v.765h2.55zm0-1.8v-.78h-2.55v.78h2.55zm-4.575-7.83h1.995v-.765h1.23v.765h2.28v-.75h1.215v.75h2.115v1.155h-2.115v.705H40.23v-.705h-2.28v.705h-1.23v-.705h-1.995V10.78zM46.5 14.41h4.59v-.735h-5.73v-1.2h5.73v-.825c-1.44.075-2.955.135-4.545.195l-.24-1.14c3.9-.12 7.35-.33 10.365-.63l.435 1.155c-1.425.12-2.955.24-4.59.345v.9h5.76v1.2h-5.76v.735h4.605v5.16h-4.605v.795h5.235v1.125h-5.235v.855H58.5v1.215H45.15v-1.215h5.94v-.855H45.9v-1.125h5.19v-.795H46.5v-5.16zm9.24 4.035v-.93h-3.225v.93h3.225zm-4.65 0v-.93h-3.225v.93h3.225zm-3.225-2.01h3.225v-.9h-3.225v.9zm4.65-.9v.9h3.225v-.9h-3.225zM65.22 18.43v4.32c1.395-.465 2.58-1.065 3.555-1.785-.885-.99-1.485-2.07-1.8-3.24h-.855v-1.38h6.585v1.305c-.375 1.305-1.005 2.445-1.89 3.405.84.63 1.86 1.2 3.075 1.695l-.765 1.23c-1.305-.6-2.4-1.26-3.3-2.01-1.05.825-2.355 1.485-3.885 1.995l-.72-1.11v.135h-3.435v.675H60.45V18.43h4.77zm3.105-.705c.285.87.765 1.65 1.425 2.37.675-.72 1.2-1.5 1.56-2.37h-2.985zm-6.54 4.005h2.13v-2.07h-2.13v2.07zm-1.77-9.87h2.325a11.48 11.48 0 0 0-.75-1.485L62.94 10c.33.675.585 1.29.78 1.86h1.98v1.29h-5.685v-1.29zm.555 2.235h4.53v1.23h-4.53v-1.23zm.015 2.07H65.1v1.245h-4.515v-1.245zm6.51-5.625h4.815v3.15c0 .33.195.51.6.51h.945v1.305H72.12c-1.095 0-1.635-.51-1.635-1.5v-2.13h-1.98v.495c0 1.53-.705 2.7-2.1 3.54l-.945-1.035c1.08-.555 1.635-1.335 1.635-2.355v-1.98z" fill="#000" fill-rule="nonzero"/><path d="M103.33 51.158h.84v1.236h2.22v.78h-2.22v1.404h2.856v.792h-6.528v-.792h2.832v-1.403h-2.244v-.78h2.244v-1.237zm-2.556 5.7h3.876v-.936h.84v.936h1.416v.804h-1.416v3.204c0 .768-.336 1.152-.996 1.152h-1.476l-.18-.816c.48.036.936.06 1.368.06.288 0 .444-.204.444-.6v-3h-3.876v-.804zm.84 1.296c.648.708 1.14 1.332 1.5 1.872l-.684.48c-.36-.588-.864-1.236-1.488-1.944l.672-.408zm-1.68-6.156v8.844h-.816v-.816h-1.704v1.104h-.84v-9.132h3.36zm-2.52 7.224h1.704v-2.867h-1.704v2.868-.001zm0-3.66h1.704V52.79h-1.704v2.772zm13.968.828h4.404v4.632h-4.404V56.39zm3.588 3.912v-1.247h-2.76v1.248h2.76v-.001zm-2.76-1.956h2.76V57.11h-2.76v1.236zm-2.604-4.512v.912h2.508v-.912h-2.508zm2.508-.672v-.9h-2.508v.9h2.508zm2.88.684v.9h2.592v-.9h-2.592zm2.592-.672v-.912h-2.592v.912h2.592zm-4.608-1.68v4.032h-3.372v6.552h-.864V51.495h4.236v-.001zm4.608 4.032h-3.456v-4.044h4.308v9.66c0 .6-.312.912-.912.912-.408 0-.816-.012-1.212-.024l-.228-.828c.408.024.78.048 1.128.048.24 0 .372-.132.372-.384v-5.34zm3.852-.9h3.708v-.768h-4.692v-.744h4.692v-.864a165.05 165.05 0 0 1-3.792.18l-.144-.708c3.12-.096 5.88-.276 8.268-.54l.264.72c-1.152.12-2.4.216-3.732.3v.912h4.716v.744h-4.716v.768h3.72v3.984h-3.72v.828h4.296v.696h-4.296v.9h4.884v.756h-10.608v-.756h4.86v-.9h-4.26v-.696h4.26v-.828h-3.708v-3.984zm7.452 3.288v-.972h-2.88v.972h2.88zm-3.744 0v-.972h-2.88v.972h2.88zm-2.88-1.644h2.88v-.948h-2.88v.948zm3.744-.948v.948h2.88v-.948h-2.88zm10.2 2.556v3.456h-2.808v.588h-.816v-4.044h3.624zm-2.808 2.676h2.016v-1.92h-2.016v1.92zm-1.224-7.872h2.064a9.067 9.067 0 0 0-.732-1.392l.828-.228c.288.528.504 1.008.672 1.452l-.468.168h2.112v.792h-4.476v-.792zm.504 1.752h3.444v.756h-3.444v-.756zm0 1.656h3.444v.756h-3.444v-.756zm4.356.144h5.172v.792c-.336 1.104-.876 2.052-1.644 2.844.72.576 1.596 1.092 2.652 1.524l-.468.744c-1.104-.504-2.028-1.08-2.772-1.716-.864.72-1.944 1.284-3.216 1.716l-.468-.732c1.224-.408 2.232-.936 3.048-1.584a6.565 6.565 0 0 1-1.548-2.748h-.756v-.84zm1.584.84c.252.816.696 1.56 1.32 2.208a6.78 6.78 0 0 0 1.428-2.208h-2.748zm-.684-5.508h3.588v2.592c0 .3.156.456.492.456h.852v.792h-1.068c-.768 0-1.14-.36-1.14-1.068v-1.956h-1.872v.54c0 1.2-.564 2.124-1.668 2.772l-.576-.636c.924-.48 1.392-1.164 1.392-2.052v-1.44z" fill="#6D6E70" fill-rule="nonzero"/><path d="M32.087 175.275h1.596v-1.38H32.41v-.744h5.82v.744h-1.164v1.38h1.548v.768h-1.548v2.76h-.792v-2.76h-1.872c-.072.636-.216 1.176-.432 1.608-.288.564-.78 1.008-1.452 1.32l-.432-.684c.588-.288 1.008-.672 1.248-1.152.132-.312.228-.684.288-1.092h-1.536v-.768h.001zm4.188 0v-1.38h-1.812v1.38h1.812zm-4.98-4.572v.876h2.7v-.876h-2.7zm2.7-.612v-.924h-2.7v.924h2.7zm2.688.612v.852h2.772v-.852h-2.772zm2.772-.612v-.9h-2.772v.9h2.772zm-4.62-1.608v3.792h-3.54v6.756h-.864v-10.548h4.404zm4.62 3.756h-3.612v-3.744h4.464v9.3c0 .792-.36 1.188-1.08 1.188-.432 0-.864-.012-1.296-.036l-.204-.768c.432.024.828.048 1.188.048s.54-.24.54-.696v-5.292zm3.9-4.152l.852.072c-.108.816-.216 1.572-.324 2.268h1.776v.504c-.096 1.944-.432 3.612-1.008 5.028.564.588 1.032 1.116 1.392 1.596l-.576.672a18.53 18.53 0 0 0-1.2-1.428 8.832 8.832 0 0 1-1.788 2.376l-.54-.684a7.89 7.89 0 0 0 1.74-2.328c-.48-.492-.996-.996-1.548-1.524.288-1.044.54-2.172.756-3.384h-.96v-.828h1.104c.12-.756.228-1.536.324-2.34zm.684 7.248c.456-1.2.72-2.556.804-4.08H43.75c-.228 1.26-.456 2.304-.696 3.132.348.324.672.636.984.948h.001zm7.956-1.296v5.112h-.828v-.72h-3.672v.72h-.828v-5.112h5.328zm-4.5 3.576h3.672v-2.784h-3.672v2.784zm-1.296-4.656l-.132-.78c.696-.36 1.56-1.704 2.592-4.056l.816.276c-.72 1.56-1.428 2.796-2.148 3.72 1.286-.08 2.567-.22 3.84-.42a23.028 23.028 0 0 0-1.02-1.824l.744-.36a30.297 30.297 0 0 1 1.86 3.468l-.804.384c-.144-.324-.276-.636-.42-.936a66.7 66.7 0 0 1-5.328.528zm216.571-33.985l.78.096c-.06 1.032-.203 1.956-.431 2.748l-.78-.228c.24-.768.384-1.632.432-2.616h-.001zm2.053-.18c.168.744.324 1.56.468 2.448l-.804.18a30.643 30.643 0 0 0-.372-2.472l.708-.156zm1.188-3.048c.264.684.504 1.464.72 2.352l-.72.192c-.048-.204-.096-.408-.144-.6-1.128.336-2.22.564-3.252.696l-.228-.792c.156-.06.288-.144.396-.24.444-.432.972-1.152 1.596-2.16-.6.096-1.224.192-1.848.288l-.216-.792a.906.906 0 0 0 .36-.324c.624-.984 1.152-2.124 1.608-3.396l.828.324c-.588 1.38-1.188 2.496-1.788 3.336a33.24 33.24 0 0 0 1.524-.216c.264-.456.528-.948.816-1.464l.804.288c-1.152 2.016-2.088 3.432-2.832 4.248.672-.12 1.356-.264 2.052-.444a56.908 56.908 0 0 0-.36-1.08l.684-.216zm.204 2.736c.288.624.528 1.308.744 2.028l-.72.312c-.216-.792-.444-1.5-.696-2.124l.672-.216zm.372-5.928h2.904v-1.536h.852v1.536h2.868v.828h-2.868v1.824h2.604v.828h-6.036v-.828h2.58v-1.824h-2.904v-.828zm5.976 4.644v4.812h-.84v-.552h-3.552v.552h-.84v-4.812h5.232zm-4.392 3.444h3.552v-2.628h-3.552v2.628zm6.432-8.4h4.692v-1.2h.888v1.2h4.668v.828h-4.668v1.176h3.78v3.396h-3.048c.864 1.224 2.328 2.304 4.368 3.264l-.588.744c-2.124-1.188-3.612-2.52-4.476-4.008h-.036v4.356h-.888v-4.356h-.036c-.912 1.632-2.424 2.976-4.548 4.032l-.504-.792c1.992-.84 3.444-1.92 4.344-3.24h-3.012v-3.397h3.756v-1.176h-4.692v-.828.001zm8.496 4.608v-1.788h-2.916v1.788h2.916zm-3.804 0v-1.788h-2.892v1.788h2.892z" fill="#2A3052" fill-rule="nonzero"/><path d="M270.77 81.687v10.404h-.863v-.78h-6.312v.804h-.876V81.687h8.052-.001zm-7.175 8.784h6.312v-2.256h-6.312v2.256zm0-3.048h6.312v-2.112h-6.312v2.112zm0-2.904h6.312v-1.992h-6.312v1.992zm12.276 1.188v6.372h-.804v-6.264a14.534 14.534 0 0 1-1.464 3.276l-.372-.948c.84-1.188 1.428-2.544 1.788-4.08h-1.428v-.792h1.476v-2.172h.804v2.172h1.308v.792h-1.308v.708a25.47 25.47 0 0 1 1.596 2.052l-.504.756c-.42-.768-.78-1.392-1.092-1.872zm1.848-2.52h1.764v-.9h-2.1v-.744h6.648v.744h-1.992v.9h1.752v2.772h-6.072v-2.772zm3.6-.9h-1.116v.9h1.116v-.9zm1.716 3v-1.428h-1.056v1.428h1.056zm-1.728 0v-1.428h-1.092v1.428h1.092zm-1.764 0v-1.428h-1.068v1.428h1.068zm.612 6.78h-.996l-.168-.768c.312.024.6.048.888.048.264 0 .408-.132.408-.372v-1.944h-2.832v-.744h6.6v.744h-2.976v2.136c0 .6-.312.9-.924.9zm-2.148-5.34h5.568v.744h-5.568v-.744zm.648 2.796l.552.48a8.704 8.704 0 0 1-1.956 2.028l-.492-.636a8.51 8.51 0 0 0 1.896-1.872zm3.876.012a13.5 13.5 0 0 1 1.776 1.872l-.576.564c-.408-.6-.984-1.248-1.728-1.932l.528-.504z" fill="#6D6E70" fill-rule="nonzero"/><path d="M207.299 170.613v.968c0 .132-.022.264-.022.396h1.914v-1.364h-1.892zm1.892-1.342v-1.43h-1.892v1.43h1.892zm-2.024 4.048c-.22 1.408-.66 2.618-1.342 3.586l-1.254-1.144c.748-1.078 1.122-2.442 1.144-4.07v-5.324h5.038v8.954c0 .968-.528 1.474-1.584 1.474h-1.034l-.418-1.562c.33.044.638.066.946.066.352 0 .528-.198.528-.572v-1.408h-2.024zm-.594-14.08h-1.738v-1.496h8.756a8.027 8.027 0 0 0-.572-.968l2.068-.352c.22.396.418.836.638 1.32h8.734v1.496H208.42v.88h14.718v1.386h-16.566v-2.266h.001zm16.962 17.248h-1.122c-.792 0-1.188-.396-1.188-1.144v-2.882l-.616.418a14.878 14.878 0 0 0-1.188-1.936c-.022 1.452-.11 2.574-.286 3.366-.22.792-.66 1.65-1.342 2.574l-1.1-.968-.484.55c-.528-.66-1.1-1.254-1.694-1.738l.946-.88a9.3 9.3 0 0 1 1.452 1.342c.308-.506.506-.968.638-1.386.176-.616.286-1.628.286-3.058v-4.356h4.972v8.492c0 .132.044.22.176.22h.308c.088 0 .176-.132.242-.352.044-.22.11-1.012.154-2.332l1.276.44c-.132 1.628-.286 2.64-.44 3.036-.176.396-.506.594-.99.594zm-4.114-6.424l.594-.374c.484.66.902 1.232 1.21 1.76v-3.498h-1.804v2.112zm-7.722-3.674h5.148v7.282h-5.148v-7.282zm3.586 6.072v-.968h-2.046v.968h2.046zm-2.046-1.958h2.046v-.924h-2.046v.924zm0-1.914h2.046v-.99h-2.046v.99zm-.198 5.302l.99.88a9.795 9.795 0 0 1-2.068 2.09l-.88-1.166c.77-.528 1.43-1.122 1.958-1.804zm-5.764-11.638h14.674v3.322h-14.674v-3.322zm12.76 2.178v-1.034H209.19v1.034h10.847zm7.898-5.522h2.75l-.506 11.264h-1.739l-.506-11.264h.001zm1.364 12.562c.462 0 .858.132 1.166.44.308.286.462.66.462 1.122 0 .462-.154.836-.462 1.144-.33.286-.726.44-1.166.44-.44 0-.814-.154-1.122-.462a1.467 1.467 0 0 1-.484-1.122c0-.462.154-.836.484-1.122.308-.308.682-.44 1.122-.44z" fill="#FFF" fill-rule="nonzero"/></g></svg>