<svg width="299" height="197" xmlns="http://www.w3.org/2000/svg"><g fill="none" fill-rule="evenodd"><path fill="#F1F2F2" d="M0 0h299v197H0z"/><path d="M1.987 1.98v193.04h295.026V1.98H1.987zM299 0v197H0V0h299z" fill="#C2C2C2" fill-rule="nonzero"/><path d="M4.887 56.446v-1.207h289.656v1.207H4.887zm0 40.534v-1.207h289.656v1.207H4.887zm0 40.534v-1.207h289.656v1.207H4.887zm0 40.496v-1.207h289.656v1.207H4.887zm34.38-142.416h1.206v159.67h-1.206V35.594zm36.664 0h1.207v159.67h-1.207V35.594zm36.628 0h1.207v159.67h-1.207V35.594zm36.665 0h1.207v159.67h-1.207V35.594zm36.627 0h1.207v159.67h-1.207V35.594zm36.628 0h1.207v159.67h-1.207V35.594zM4.887 117.228v-1.207h289.656v1.207H4.887z" fill="#DFDEDE" fill-rule="nonzero"/><path d="M259.144 35.594h1.207v159.67h-1.207V35.594zM4.887 76.731v-1.206h289.656v1.206H4.887zm0 81.03v-1.206h289.656v1.207H4.887z" fill="#2A3052" fill-rule="nonzero"/><path fill="#C2C2C2" fill-rule="nonzero" d="M2.794 35.606V33.19h293.842v2.415z"/><path d="M40.664 118.252a1.81 1.81 0 1 1-1.588-3.254l41.486-20.249a1.81 1.81 0 0 1 1.736.08l38.373 23.362 27.773-27.4a1.81 1.81 0 0 1 2.444-.09l35.648 30.304 35.474-26.087a1.81 1.81 0 0 1 1.546-.29l36.665 9.938a1.81 1.81 0 0 1-.947 3.495l-35.823-9.709-35.924 26.418a1.81 1.81 0 0 1-2.245-.079l-35.476-30.157-27.598 27.227a1.81 1.81 0 0 1-2.213.258L81.26 98.438l-40.597 19.814z" fill="#2A3052" fill-rule="nonzero"/><path d="M187.987 147.445h-34.945l-5.382-8.181-5.382 8.181h-34.946a4.733 4.733 0 0 0-4.71 4.782v24.694a4.753 4.753 0 0 0 4.71 4.782h80.692a4.733 4.733 0 0 0 4.71-4.782v-24.694a4.758 4.758 0 0 0-4.747-4.782z" fill="#E88024"/><ellipse cx="8.335" cy="8.564" rx="8.11" ry="8.443" opacity=".6" transform="translate(251.412 99.132)" fill="#FFF"/><path d="M259.747 117.346c-5.157 0-9.317-4.331-9.317-9.65 0-5.32 4.16-9.65 9.317-9.65s9.318 4.33 9.318 9.65c0 5.319-4.16 9.65-9.318 9.65zm0-2.414c3.802 0 6.903-3.23 6.903-7.236 0-4.007-3.101-7.236-6.903-7.236-3.801 0-6.903 3.229-6.903 7.236s3.102 7.236 6.903 7.236z" fill="#E88024" fill-rule="nonzero"/><ellipse cx="8.97" cy="9.021" rx="8.11" ry="8.443" opacity=".6" transform="translate(30.9 107.604)" fill="#FFF"/><path d="M39.87 126.275c-5.157 0-9.317-4.332-9.317-9.65 0-5.32 4.16-9.65 9.317-9.65s9.317 4.33 9.317 9.65c0 5.318-4.16 9.65-9.317 9.65zm0-2.414c3.802 0 6.903-3.23 6.903-7.236 0-4.007-3.101-7.236-6.903-7.236-3.802 0-6.903 3.229-6.903 7.236 0 4.006 3.101 7.236 6.903 7.236z" fill="#E88024" fill-rule="nonzero"/><path d="M18.245 11l1.414.677a15.31 15.31 0 0 1-1.385 3.101v9.736h-1.5v-7.543c-.403.49-.822.966-1.269 1.427L15 16.783c1.457-1.63 2.539-3.562 3.245-5.783zm1.053 2.307h3.664c-.19-.629-.407-1.25-.65-1.86l1.602-.26c.187.62.374 1.327.562 2.12h3.649v1.428h-8.827v-1.428zm-.23 9.159h4.889c.692-1.904 1.283-4.255 1.803-7.039l1.442.375c-.462 2.495-1.039 4.716-1.716 6.664H28.5v1.47h-9.432v-1.47zm2.336-6.909c.534 1.817 1.01 3.88 1.442 6.216l-1.399.375a56.265 56.265 0 0 0-1.428-6.144l1.385-.447zm16.672 1.01c1.212.779 2.265 1.63 3.145 2.581l-.895 1.068c-.822-.938-1.86-1.818-3.13-2.625l.88-1.024zm-1.081 3.605c1.99.981 3.692 2.063 5.105 3.245l-.966 1.169c-1.312-1.197-2.985-2.322-5.033-3.36l.894-1.054zm-7.197-7.153h2.365a16.825 16.825 0 0 0-.72-1.543l1.456-.39c.317.707.548 1.356.72 1.933h2.15v1.456h-3.404v1.616h2.683c0 3.562-.072 5.754-.202 6.59-.116 1.111-.721 1.674-1.803 1.674-.173 0-.447-.029-.851-.087l-.346-1.283c.36.029.678.057.966.057.404 0 .65-.346.721-1.024.058-.432.101-1.947.13-4.543h-1.312c-.101 3.159-.664 5.495-1.702 6.995l-1.11-.966c.937-1.413 1.413-3.663 1.427-6.779v-2.25h-1.168v-1.456zm8.437-1.774h1.341c.664 1.932 1.818 3.634 3.447 5.105l-.836 1.255c-1.471-1.298-2.553-2.913-3.274-4.846-.793 2.135-1.788 3.793-3 4.947l-.808-1.211c1.356-1.327 2.395-3.087 3.13-5.25zm9.807 2.293h6.75v3.707h-6.75v-3.707zm5.337 2.38v-1.053h-3.923v1.053h3.923zM46.96 17.98h4.225v4.11H46.96v-4.11zm2.9 2.841v-1.572h-1.558v1.572h1.558zm2.192-2.84h4.197v4.11h-4.197v-4.11zm2.87 2.84v-1.572h-1.558v1.572h1.558zm-10.053-9.244h11.77v1.442H46.354v9.562h10.572v1.442H44.869V11.577zm17.38 5.898h5.624v5.87H62.25v-5.87h-.001zm4.197 4.63v-1.11H63.69v1.11h2.756zm-2.755-2.308h2.755v-1.081H63.69v1.081h.001zm-3.115-5.163v.692h2.451v-.692h-2.451zm2.451-1.125v-.663h-2.451v.663h2.451zm3.995 1.154v.663h2.539v-.663h-2.539zm2.539-1.125v-.678h-2.539v.678h2.539zm-5.034-2.02v5.135h-3.951v7.817H59.09V11.519h5.437v-.001zm5.034 5.135h-4.039v-5.149h5.524v11.582c0 .908-.447 1.37-1.327 1.37-.461 0-.908-.029-1.34-.058l-.405-1.442a9.2 9.2 0 0 0 1.212.086c.245 0 .375-.158.375-.447v-5.942zm9.634-5.581c.404.72.808 1.529 1.197 2.437h4.428v1.14c-1.63 3.115-3.98 5.495-7.038 7.139.577.519 1.269.807 2.076.865.678.029 1.645.043 2.9.043.764 0 1.817-.043 3.172-.1l-.375 1.485h-2.567c-1.283 0-2.206-.015-2.755-.029-1.586-.029-2.769-.462-3.576-1.327-.318-.332-.563-.49-.765-.49-.274 0-.793.735-1.572 2.206l-1.197-.836c.98-1.962 1.904-2.928 2.798-2.928.188 0 .36.029.534.116a.283.283 0 0 1 .115.057c2.77-1.47 4.904-3.432 6.404-5.87h-8.942v-1.47h4.687a15.04 15.04 0 0 0-1.27-2.15l1.746-.288zm13.903 4.11h-3.23v4.73c1.557-1.153 2.625-2.725 3.23-4.73zm-3.23 4.89v4.297h-1.515v-10.63h4.342c-.419-.807-.91-1.427-1.472-1.874l1.255-.822c.635.52 1.212 1.428 1.76 2.697h5.336v8.884c0 1.082-.52 1.63-1.543 1.63H95.81l-.375-1.413 2.12.072c.332 0 .505-.202.505-.606v-2.25l-.851 1.082c-1.284-.837-2.394-2.337-3.332-4.529-.62 1.961-1.687 3.505-3.202 4.63l-.807-1.169v.001zm8.192-.16v-4.73H94.8c.866 2.192 1.962 3.779 3.26 4.73z" fill="#020202" fill-rule="nonzero"/><g fill="#FFF" fill-rule="nonzero"><path d="M162.385 171.168h1.345l.398-15.375h-2.151l.408 15.375zm-.401 3.596c.084.824.694 1.034 1.19 1.034.497 0 1.044-.373 1.044-1.034 0-.979-.693-1.211-1.156-1.211-.464 0-1.163.387-1.078 1.211zm-16.736-.256c.364.31.673.59.928.836-.742 1.09-1.88 2.046-2.495 2.471-.38-.488-.643-.83-.793-1.025.733-.537 1.52-1.298 2.36-2.282zm4.319-8.662v8.308h-5.951v-8.309h5.951v.001zm-1.446 5.782h-2.943v1.353h2.943v-1.353zm0-2.34h-2.943v1.354h2.943v-1.354zm0-2.305h-2.943v1.353h2.943v-1.353zm10.494-10.051v-1.38h-10.48c-.637-1.397-.879-1.943-.727-1.64l-1.864.305.729 1.335h-10.625v1.38h2.121v2.642h19.202v-1.218h-17.536v-1.424h19.18zm-20.059 3.834h16.998v3.69h-16.998v-3.69zm1.72 1.06v1.561h13.587v-1.562h-13.586l-.001.001zm-3.213 3.781c1.83-.017 3.665-.017 5.509 0v10.088c0 .534.46 2.294-2.95 1.926l-.363-1.4c1.288.167 1.932-.008 1.932-.526v-2.249h-2.863c-.384 2.136-.916 3.528-1.595 4.176-.21-.176-.571-.5-1.085-.972 1.9-2.57 1.397-10.218 1.415-11.042v-.001zm1.396 4.649v1.946h2.668v-1.946h-2.668zm2.704-3.31h-2.658v2.098h2.658v-2.098z"/><path d="M155.05 172.488l-.81.523c-.794-1.294-1.382-2.167-1.764-2.618-.019 1.537-.076 2.648-.17 3.333-.308 2.225-1.132 3.166-1.683 3.945l-1.167-1.036-.389.5c-1.024-1.082-1.695-1.753-2.012-2.01.337-.319.632-.6.883-.843a13.705 13.705 0 0 1 1.915 1.819c.255-.462.77-1.157.994-2.475.299-1.762.095-6.228.226-8.092 2.31-.007 4.103-.007 5.377 0v9.978c-.062.683 1.297.564 1.297 0l.275-2.845c.23.097.619.237 1.166.422-.258 1.737-.18 3.845-1.166 4.046-.7.034-2.971.513-2.971-.928v-3.719h-.001zm0-.448v-5.069h-2.584c.015 1.046.02 1.984.015 2.813l.806-.474c.884 1.233 1.471 2.127 1.763 2.68v.05z"/></g><path d="M20.244 168.073h9.097v.598h-4.63v3.26c.206-.032.412-.063.598-.093v.587c-.186.031-.392.062-.599.104v1h-.722v-.908c-.98.114-2.186.217-3.62.3l-.093-.64.96-.041v-3.569h-.99v-.598h-.001zm1.661 4.136c.696-.045 1.39-.107 2.083-.186v-.701h-2.083v.887zm0-1.434h2.083v-.773h-2.083v.773zm0-1.33h2.083v-.774h-2.083v.775-.001zm-.35-5.023h6.518v2.97h-6.519v-2.97h.001zm5.806 2.434v-.691h-5.095v.691h5.095zm-5.095-1.217h5.095v-.66h-5.095v.66zm3.31 4.332h-.33v-.609h3.518v.578a4.908 4.908 0 0 1-1.042 2.052c.454.34.99.64 1.63.908l-.382.619c-.68-.32-1.258-.67-1.722-1.052a6.588 6.588 0 0 1-1.723 1.052l-.381-.578c.618-.268 1.155-.577 1.598-.949a4.623 4.623 0 0 1-1.165-2.021h-.001zm1.62 1.578c.413-.475.712-1 .897-1.578h-1.877c.19.6.526 1.142.98 1.578zm7.21-2.991v3.702c.32-.123.628-.268.928-.412l.123.65c-.536.216-1.175.443-1.897.68l-.196-.64c.216-.071.33-.205.33-.401v-6.797c2.176-.33 3.867-.701 5.074-1.114l.413.598c-.516.176-1.114.34-1.816.506.01.969.042 1.804.083 2.516h2.207v.712H37.51c.041.443.103.835.165 1.165.165.918.371 1.61.608 2.073.227.433.403.65.537.65.134-.01.257-.578.36-1.712l.62.34c-.197 1.486-.485 2.238-.857 2.238-.32 0-.66-.278-1.02-.825-.372-.567-.671-1.402-.898-2.506-.1-.47-.173-.945-.217-1.423h-2.403.001zm2.248-3.074c-.681.145-1.434.279-2.249.413v1.95h2.342a27.201 27.201 0 0 1-.093-2.363zm-.547 5.724c.578.702 1.031 1.33 1.351 1.878l-.567.381a16.462 16.462 0 0 0-1.3-1.887l.516-.372zm-3.414-7.168l.67.31a12.689 12.689 0 0 1-.98 2.228v6.951h-.721v-5.827c-.35.474-.722.918-1.135 1.35l-.237-.783a11.28 11.28 0 0 0 2.403-4.229zm16.183.516v8.942h-.743v-.67h-5.425v.69h-.753v-8.962h6.921zm-6.168 7.55h5.425v-1.94h-5.425v1.94zm0-2.62h5.425v-1.815h-5.425v1.815zm0-2.496h5.425v-1.712h-5.425v1.712zm10.551 1.021v5.477h-.691v-5.384a12.492 12.492 0 0 1-1.258 2.816l-.32-.815c.722-1.021 1.227-2.187 1.537-3.507h-1.228v-.68h1.269v-1.867h.691v1.866h1.124v.681H53.26v.609a21.89 21.89 0 0 1 1.372 1.763l-.433.65c-.361-.66-.67-1.196-.939-1.609h-.001zm1.588-2.166h1.516v-.773H54.56v-.64h5.713v.64H58.56v.773h1.506v2.383h-5.219v-2.383zm3.094-.773h-.959v.773h.96v-.773h-.001zm1.475 2.578v-1.227h-.907v1.227h.907zm-1.485 0v-1.227h-.938v1.227h.938zm-1.516 0v-1.227h-.918v1.227h.918zm.526 5.827h-.856l-.144-.66c.268.021.515.042.763.042.227 0 .35-.114.35-.32v-1.67H54.62v-.64h5.673v.64h-2.558v1.835c0 .516-.268.773-.794.773zm-1.846-4.59h4.785v.64h-4.785v-.64zm.557 2.404l.474.412a7.48 7.48 0 0 1-1.68 1.744l-.424-.547c.64-.464 1.186-1 1.63-1.61v.001zm3.331.01a11.57 11.57 0 0 1 1.527 1.61l-.495.484c-.351-.516-.846-1.073-1.486-1.66l.454-.434zm4.559-7.23l.65.289c-.207.66-.465 1.3-.774 1.898v7.271h-.722v-6.034a13.03 13.03 0 0 1-1.196 1.517l-.217-.743a11.271 11.271 0 0 0 2.259-4.198zm.938.382h6.21v.64h-2.033v.67h1.64v1.98h-5.724v-1.98h1.692v-.67H64.48v-.64zm3.538 1.31v-.67h-1.104v.67h1.104zm1.63 1.444v-.898h-1.073v.898h1.073zm-1.63 0v-.898h-1.104v.898h1.104zm-1.67 0v-.898h-1.125v.898h1.125zm-1.455 1.052h5.116v3.888h-5.116v-3.888zm4.445 3.341v-.64h-3.764v.64h3.764zm-3.764-1.103h3.764v-.609h-3.764v.609zm0-1.073h3.764v-.65h-3.764v.65zm2.753 2.744c.856.175 1.682.433 2.476.773l-.227.567c-.805-.37-1.63-.67-2.486-.876l.237-.464zm-1.815 0l.34.464c-.577.35-1.412.64-2.506.856l-.32-.547c1.094-.206 1.919-.464 2.486-.773zM20.85 67.91h8.989v.591h-4.576v3.22c.204-.03.408-.06.591-.091v.58c-.183.031-.387.062-.59.102v.989h-.714v-.897a63.62 63.62 0 0 1-3.577.296l-.092-.632.948-.041v-3.526h-.978v-.59l-.001-.001zm1.642 4.086a43.082 43.082 0 0 0 2.058-.183v-.693h-2.058v.876zm0-1.416h2.058v-.764h-2.058v.764zm0-1.315h2.058v-.764h-2.058v.764zm-.347-4.962h6.44v2.935h-6.44v-2.935zm5.737 2.405v-.683h-5.034v.683h5.034zm-5.034-1.203h5.034v-.652h-5.034v.652zm3.271 4.28h-.326v-.601h3.475v.57a4.85 4.85 0 0 1-1.03 2.028c.45.337.979.632 1.61.897l-.376.612c-.673-.316-1.243-.663-1.702-1.04-.469.408-1.04.754-1.702 1.04l-.377-.571c.612-.265 1.142-.57 1.58-.938a4.568 4.568 0 0 1-1.152-1.997zm1.6 1.56c.408-.47.703-.99.887-1.56H26.75c.183.581.5 1.1.968 1.56h.001zm7.938-7.47c.112.275.224.58.326.917h4.035v.673h-8.997v-.673h4.178a6.089 6.089 0 0 0-.347-.774l.805-.143zm2.731 9.375h-.856l-.173-.663.815.031c.418 0 .632-.163.632-.49v-2.77h-6.563v3.922h-.703v-4.564h7.969v3.567c0 .642-.377.968-1.12.968l-.001-.001zm-5.706-7.123h5.696v1.977h-5.696v-1.978.001zm4.983 1.406v-.835h-4.27v.835h4.27zm-4.138 2.476h4.005v2.038h-4.005v-2.038zm3.353 1.488v-.937h-2.69v.937h2.69zm12.259-7.062v8.835h-.734v-.662h-5.36v.683h-.744v-8.856h6.838zm-6.094 7.46h5.36v-1.916h-5.36v1.916zm0-2.589h5.36v-1.793h-5.36v1.793zm0-2.466h5.36v-1.691h-5.36v1.691zm10.424 1.01v5.41h-.682v-5.32c-.298.976-.716 1.91-1.244 2.783l-.315-.805c.713-1.01 1.212-2.16 1.518-3.465h-1.213v-.673h1.254v-1.844h.682v1.844h1.111v.673h-1.11v.601c.448.52.906 1.1 1.355 1.743l-.428.642c-.29-.541-.6-1.071-.928-1.59v.001zm1.57-2.14h1.498v-.765h-1.784v-.632h5.646v.632h-1.692v.764h1.488v2.354h-5.156v-2.354.001zm3.057-.765h-.948v.764h.948v-.764zm1.457 2.547V66.28h-.897v1.212h.897zm-1.467 0V66.28h-.928v1.212h.928zm-1.498 0V66.28h-.907v1.212h.907zm.52 5.758h-.848l-.142-.652c.265.02.51.04.754.04.224 0 .346-.112.346-.315v-1.651h-2.404v-.632h5.604v.632h-2.527v1.814c0 .509-.265.764-.785.764h.002zm-1.825-4.535h4.728v.632h-4.728v-.632zm.55 2.375l.47.407a7.391 7.391 0 0 1-1.662 1.722l-.418-.54a7.227 7.227 0 0 0 1.61-1.59v.001zm3.292.01c.601.53 1.1 1.06 1.508 1.59l-.49.478c-.346-.51-.835-1.06-1.466-1.64l.448-.428zm4.504-7.144l.642.286c-.2.646-.455 1.273-.764 1.875v7.184h-.714V67.34c-.356.53-.754 1.029-1.182 1.497l-.214-.733a11.136 11.136 0 0 0 2.232-4.148zm.927.377h6.135v.632h-2.008v.663h1.62v1.956h-5.655v-1.956h1.671v-.663h-1.763v-.632zm3.495 1.295v-.663h-1.09v.663h1.09zm1.61 1.426v-.886h-1.06v.886h1.06zm-1.61 0v-.886h-1.09v.886h1.09zm-1.65 0v-.886H65.29v.886h1.111zm-1.437 1.04h5.054v3.841h-5.054v-3.841zm4.392 3.301v-.632h-3.72v.632h3.72zm-3.72-1.09h3.72v-.601h-3.72v.601zm0-1.06h3.72v-.642h-3.72v.642zm2.721 2.71c.84.171 1.659.428 2.446.765l-.224.56a13.274 13.274 0 0 0-2.456-.866l.234-.458v-.001zm-1.793 0l.336.46c-.57.346-1.396.631-2.476.845l-.316-.54c1.08-.204 1.895-.459 2.456-.764v-.001z" fill="#6D6E71" fill-rule="nonzero"/><g fill="#2A3052" fill-rule="nonzero"><path d="M26.688 143.997h-1.03v-11.99h5.046v4.291h-4.016v7.7-.001zm.013-11.196v.989h3.09v-.989h-3.09zm3.065 1.76H26.7v.964h3.065v-.963l.001-.001zm2.14 1.683v-4.213h5.082c.039 5.833.039 9.17 0 10.013-.058 1.265.24 2.184-2.699 1.866-.054-.24-.13-.52-.23-.844.713-.172 1.97.588 1.97-.862v-5.96h-4.123zm.975-1.688v.908h3.124v-.908h-3.124zm-.009-1.74v.97h3.106v-.97h-3.106z"/><path d="M34.592 137.309v.835h-1.353v1.58h1.777v.866H33.24v3.148h-.876v-3.148c-.942.004-1.66.004-2.154 0-.12.562-.12 2.42-2.121 3.34-.234-.35-.4-.608-.495-.777.677-.358 1.529-.805 1.747-2.533l-1.755-.028.008-.868h1.809v-1.58h-1.454v-.835h6.644-.001zm-2.226.841H30.3v1.576h2.066v-1.576zm8.049-6.578l.99.11-.409 2.548c.132.01.81.01 2.035 0 .035 1.87-.352 4.661-1.138 6.265.845.909 1.377 1.526 1.596 1.851l-.66.735-1.355-1.618c-.79 1.296-1.478 2.2-2.062 2.71a14.056 14.056 0 0 0-.602-.766c.765-.817 1.52-1.652 1.97-2.634l-1.746-1.74.878-3.875H38.81v-.928h1.235l.37-2.658zm1.719 3.592h-1.25a55.405 55.405 0 0 1-.804 3.55c.464.451.837.818 1.118 1.098.478-1.02.936-3.922.936-4.648zm4.341-3.575l.912.313c-1.047 2.172-1.86 3.582-2.439 4.23 2.64-.23 4.093-.39 4.36-.481-.646-1.227-1.022-1.914-1.127-2.061l.852-.413c.918 1.58 1.618 2.888 2.1 3.922l-.926.466-.481-1.062c-3.338.384-5.357.583-6.06.596a24.777 24.777 0 0 0-.153-.906c.79-.435 1.778-1.97 2.962-4.604zm2.96 12.583v-.84h-4.191v.84h-.963v-5.824h6.084v5.824h-.93zm-.007-4.927h-4.161v3.137h4.161v-3.137z"/></g><path d="M266.705 121.616l.924.373c-1.007 2.207-1.7 3.495-2.078 3.865l1.768-.246.977-1.696.917.338c-1.456 2.506-2.69 4.461-3.313 4.933l2.396-.5-.374-1.257.752-.264c.556 1.49.834 2.392.834 2.704-.47.125-.747.203-.834.232l-.167-.665c-2.057.524-3.3.785-3.728.785-.099-.298-.186-.6-.263-.904.597-.144 1.937-2.152 2.273-2.784l-2.142.32c-.087-.323-.169-.623-.246-.9.435-.136 1.203-1.58 2.304-4.333v-.001zm1.455 8.981c.252-.1.509-.184.77-.254.562 1.401.844 2.183.844 2.345-.046.051-.311.175-.794.371a43.943 43.943 0 0 0-.82-2.462zm-.858.128c.066.255.551 2.72.551 2.82l-.928.223c-.194-1.531-.336-2.478-.428-2.841.357-.11.424-.11.805-.202zm-2.374.194l.892.109c-.117 1.56-.282 2.612-.495 3.155a35.64 35.64 0 0 0-.89-.262c.266-.928.43-1.928.493-3.002zm4.432-7.467v.96h3.387v2.108h-2.972v.957h6.983v-.957h-3.022v-2.107h3.306v-.96h-3.306v-1.752h-.989v1.751h-3.387zm5.977 10.984v-.641h-4.136v.64h-.964v-5.565h6.07v5.565h-.97v.001zm.027-4.622h-4.152v3.025h4.152v-3.025zm8.796-6.711v-1.42h1.022v1.42h5.441v.944h-5.44v1.301h4.351v3.987h-3.478c.7 1.212 2.379 2.491 5.04 3.837-.053.033-.278.315-.673.847-1.49-.713-4.367-2.973-5.24-4.684l.008 5.084h-1.032c-.007-3.495-.026-5.186-.056-5.075-.909 1.614-2.91 3.67-5.279 4.675l-.57-.876c2.51-1.172 4.19-2.441 5.035-3.808l-3.5.009v-3.996h4.37v-1.301h-5.436v-.944h5.437zm-.039 3.251h-3.372v2.134h3.372v-2.134zm1.067 2.112h3.406v-2.083h-3.406v2.083z" fill="#2A3052" fill-rule="nonzero"/></g></svg>