<svg width="299" height="197" xmlns="http://www.w3.org/2000/svg"><g fill="none"><path fill="#F1F2F2" d="M0 0h299v197H0z"/><path d="M1.987 1.98v193.04h295.026V1.98H1.987zM299 0v197H0V0h299z" fill="#C2C2C2"/><path d="M4 55.067v-1.204h290v1.204H4zm0 22.326v-1.204h290v1.204H4zm0 18.604v-1.204h290v1.204H4zm0 40.93v-1.203h290v1.204H4zm0 18.605v-1.204h290v1.204H4zm0 22.326v-1.204h290v1.204H4zM38.72 34h1.2v160h-1.2V34zm37.18 0h1.2v160h-1.2V34zm37.18 0h1.2v160h-1.2V34zm33.46 0h1.201v160h-1.2V34zm37.18 0h1.2v160h-1.2V34zm37.18 0h1.2v160h-1.2V34zm37.18 0h1.2v160h-1.2V34z" fill="#DFDEDE"/><path fill="#2A3052" d="M2.906 116.82v-1.215h291.607v1.215z"/><path fill="#C2C2C2" d="M1 30v-2h297v2z"/><path d="M186.94 145.223h-35.182L146.34 137l-5.418 8.223H105.74c-2.634 0-4.741 2.14-4.741 4.807v24.82c0 2.667 2.145 4.807 4.741 4.807h81.236c2.634 0 4.74-2.14 4.74-4.807v-24.82c0-2.666-2.144-4.807-4.778-4.807z" fill="#E88024"/><path d="M72.145 94.28l-25.23 23.225a1.805 1.805 0 0 1-2.444-2.656L70.976 90.45a1.805 1.805 0 0 1 2.5.054l34.551 34.651 31.793-45.67a1.805 1.805 0 0 1 2.81-.19l45.25 49.217 38.143-65.757a1.805 1.805 0 0 1 2.497-.637l24.47 14.84a1.805 1.805 0 0 1-1.871 3.087l-22.897-13.886-38.45 66.286a1.805 1.805 0 0 1-2.89.316l-45.386-49.365-31.74 45.595a1.805 1.805 0 0 1-2.76.243L72.145 94.281z" fill="#2A3052"/><ellipse fill="#FFF" opacity=".6" cx="252.055" cy="78.501" rx="7.608" ry="7.855"/><path d="M252.055 87.56c-4.875 0-8.811-4.064-8.811-9.059 0-4.994 3.936-9.058 8.81-9.058 4.876 0 8.812 4.064 8.812 9.058 0 4.995-3.936 9.059-8.811 9.059zm0-2.407c3.528 0 6.404-2.97 6.404-6.652s-2.876-6.651-6.404-6.651-6.404 2.97-6.404 6.651c0 3.682 2.876 6.652 6.404 6.652z" fill="#E88024"/><ellipse fill="#FFF" opacity=".6" cx="45.692" cy="116.177" rx="7.608" ry="7.855"/><path d="M45.693 125.235c-4.875 0-8.81-4.064-8.81-9.058s3.935-9.058 8.81-9.058 8.811 4.064 8.811 9.058-3.936 9.058-8.81 9.058zm0-2.407c3.528 0 6.404-2.97 6.404-6.651 0-3.682-2.876-6.652-6.404-6.652s-6.404 2.97-6.404 6.652 2.876 6.651 6.404 6.651z" fill="#E88024"/><g opacity=".9" fill="#6D6E71"><path d="M265.337 138.394h.885v-7.132l1.17 2.09.555-.86c-1.043-1.355-1.618-2.085-1.725-2.189l.01-.774h1.41v-.86h-1.41l-.01-2.434h-.885v2.433h-1.687v.86h1.579c-.096.966-1.325 3.73-1.963 4.401.012.004.155.354.43 1.053.741-1.328 1.135-2.125 1.641-3.596v7.008zm-13.742.052v-11.45h8.963v11.45h-1.017v-.85h-6.945v.85h-1.001zm8.035-10.638h-7.033v2.275h7.033v-2.275zm-.023 3.105h-6.987v2.342h6.987v-2.342zm-.013 3.263h-6.96v2.47h6.96v-2.47zm8.77-7.179h7.333v.8h-2.2v.993h1.981v3.116h-6.803v-3.116h2.002v-.993h-2.313v-.8zm4.346.861h-1.29v.95h1.29v-.95zm.758 1.705v1.62h1.153v-1.62h-1.153zm-.773-.01h-1.223v1.627h1.223v-1.627zm-1.96-.021h-1.174v1.663h1.174v-1.663zm4.374 3.001v.774h-6.147v-.773l6.147-.001zm.588 1.787v.739h-3.294v3.33h-.817v-3.33h-3.212v-.74l7.323.001z"/><path d="M273.404 136.188c.278-.28.467-.458.566-.536.346.263 1.54 1.428 1.975 2.085-.15.162-.364.374-.645.636-.215-.424-.847-1.152-1.896-2.185zm-3.328-.807c.29.248.492.419.606.514-.72.956-1.445 1.7-2.172 2.234a9.192 9.192 0 0 1-.563-.683c1.148-.93 1.857-1.618 2.129-2.065z"/></g><path d="M35.07 139.985h1.995v-1.725h-1.59v-.93h7.275v.93h-1.455v1.725h1.935v.96h-1.935v3.45h-.99v-3.45h-2.34c-.09.795-.27 1.47-.54 2.01-.36.705-.975 1.26-1.815 1.65l-.54-.855c.735-.36 1.26-.84 1.56-1.44.165-.39.285-.855.36-1.365h-1.92v-.96zm5.235 0v-1.725H38.04v1.725h2.265zm-6.225-5.715v1.095h3.375v-1.095H34.08zm3.375-.765v-1.155H34.08v1.155h3.375zm3.36.765v1.065h3.465v-1.065h-3.465zm3.465-.765v-1.125h-3.465v1.125h3.465zm-5.775-2.01v4.74H34.08v8.445H33v-13.185h5.505zm5.775 4.695h-4.515v-4.68h5.58v11.625c0 .99-.45 1.485-1.35 1.485a29.2 29.2 0 0 1-1.62-.045l-.255-.96c.54.03 1.035.06 1.485.06.45 0 .675-.3.675-.87v-6.615zm4.875-5.19l1.065.09a128.68 128.68 0 0 1-.405 2.835h2.22v.63c-.12 2.43-.54 4.515-1.26 6.285.705.735 1.29 1.395 1.74 1.995l-.72.84a23.161 23.161 0 0 0-1.5-1.785c-.6 1.14-1.335 2.13-2.235 2.97l-.675-.855a9.862 9.862 0 0 0 2.175-2.91 79.046 79.046 0 0 0-1.935-1.905 46.84 46.84 0 0 0 .945-4.23h-1.2v-1.035h1.38c.15-.945.285-1.92.405-2.925zm.855 9.06c.57-1.5.9-3.195 1.005-5.1H49.65c-.285 1.575-.57 2.88-.87 3.915.435.405.84.795 1.23 1.185zm9.945-1.62v6.39H58.92v-.9h-4.59v.9h-1.035v-6.39h6.66zm-5.625 4.47h4.59v-3.48h-4.59v3.48zm-1.62-5.82l-.165-.975c.87-.45 1.95-2.13 3.24-5.07l1.02.345c-.9 1.95-1.785 3.495-2.685 4.65a51.085 51.085 0 0 0 4.8-.525c-.42-.825-.84-1.59-1.275-2.28l.93-.45a37.871 37.871 0 0 1 2.325 4.335l-1.005.48c-.18-.405-.345-.795-.525-1.17-1.995.285-4.215.51-6.66.66zm185.86-32.085l.975.12c-.075 1.29-.255 2.445-.54 3.435l-.975-.285c.3-.96.48-2.04.54-3.27zm2.565-.225c.21.93.405 1.95.585 3.06l-1.005.225a38.303 38.303 0 0 0-.465-3.09l.885-.195zm1.485-3.81c.33.855.63 1.83.9 2.94l-.9.24c-.06-.255-.12-.51-.18-.75-1.41.42-2.775.705-4.065.87l-.285-.99c.195-.075.36-.18.495-.3.555-.54 1.215-1.44 1.995-2.7-.75.12-1.53.24-2.31.36l-.27-.99c.165-.075.315-.21.45-.405.78-1.23 1.44-2.655 2.01-4.245l1.035.405c-.735 1.725-1.485 3.12-2.235 4.17.63-.075 1.275-.165 1.905-.27.33-.57.66-1.185 1.02-1.83l1.005.36c-1.44 2.52-2.61 4.29-3.54 5.31.84-.15 1.695-.33 2.565-.555-.15-.465-.3-.915-.45-1.35l.855-.27zm.255 3.42c.36.78.66 1.635.93 2.535l-.9.39c-.27-.99-.555-1.875-.87-2.655l.84-.27zm.465-7.41h3.63v-1.92h1.065v1.92h3.585v1.035h-3.585v2.28h3.255v1.035h-7.545v-1.035h3.225v-2.28h-3.63V96.98zm7.47 5.805v6.015h-1.05v-.69h-4.44v.69h-1.05v-6.015h6.54zm-5.49 4.305h4.44v-3.285h-4.44v3.285zm8.04-10.5h5.865v-1.5h1.11v1.5h5.835v1.035h-5.835v1.47h4.725v4.245h-3.81c1.08 1.53 2.91 2.88 5.46 4.08l-.735.93c-2.655-1.485-4.515-3.15-5.595-5.01h-.045v5.445h-1.11v-5.445h-.045c-1.14 2.04-3.03 3.72-5.685 5.04l-.63-.99c2.49-1.05 4.305-2.4 5.43-4.05h-3.765v-4.245h4.695v-1.47h-5.865V96.59zm10.62 5.76v-2.235h-3.645v2.235h3.645zm-4.755 0v-2.235h-3.615v2.235h3.615z" fill="#2A3052"/><path d="M138.442 166.926v1.276c0 .132-.022.264-.022.396h2.332v-1.672h-2.31zm2.31-1.034v-1.782h-2.31v1.782h2.31zm-2.398 3.74c-.198 1.452-.66 2.684-1.386 3.674l-.968-.88c.792-1.1 1.188-2.486 1.21-4.158v-5.302h4.752v8.932c0 .88-.484 1.32-1.43 1.32h-1.1l-.308-1.21c.352.022.704.044 1.012.044.396 0 .616-.22.616-.616v-1.804h-2.398zm-.308-14.08h-1.848v-1.188h9.042a7.51 7.51 0 0 0-.616-1.1l1.562-.264c.242.418.462.88.66 1.364h8.888v1.188h-16.28v1.188h14.96v1.078h-16.368v-2.266zm16.786 17.336h-1.034c-.726 0-1.078-.352-1.078-1.012v-3.014l-.682.462c-.374-.748-.88-1.54-1.496-2.398v.374c0 1.496-.11 2.662-.286 3.454-.22.792-.638 1.65-1.298 2.53l-.99-.88-.352.418c-.528-.66-1.1-1.232-1.694-1.716l.748-.704c.594.44 1.144.968 1.628 1.54.352-.55.594-1.056.726-1.518.176-.616.286-1.672.286-3.124v-4.334h4.642v8.558c0 .176.088.286.286.286h.396c.154 0 .286-.132.374-.352.066-.242.132-1.056.198-2.442l.99.352c-.132 1.584-.264 2.574-.418 2.948-.176.374-.506.572-.946.572zm-4.29-6.314l.66-.396c.66.88 1.166 1.628 1.518 2.288v-4.268h-2.178v2.376zm-7.458-3.608h5.016v7.106h-5.016v-7.106zm3.784 6.138v-1.166h-2.574v1.166h2.574zm-2.574-2.002h2.574v-1.122h-2.574v1.122zm0-1.936h2.574v-1.21h-2.574v1.21zm.132 5.258l.792.704c-.572.814-1.298 1.518-2.134 2.134l-.682-.902a8.915 8.915 0 0 0 2.024-1.936zm-5.72-11.638h14.454v3.19h-14.454v-3.19zm12.98 2.266v-1.342H140.18v1.342h11.506zm7.92-5.676h2.046l-.33 11.484h-1.364l-.352-11.484zm1.012 13.09c.396 0 .704.11.968.374.242.242.374.55.374.924 0 .396-.132.704-.374.946a1.402 1.402 0 0 1-.968.374 1.26 1.26 0 0 1-.924-.374 1.28 1.28 0 0 1-.396-.946c0-.374.132-.682.396-.924.242-.264.55-.374.924-.374z" fill="#FFF"/><path d="M16.92 8.925c.795.72 1.47 1.425 2.025 2.13L17.85 12.15c-.48-.675-1.155-1.395-2.04-2.16l1.11-1.065zm-.375 3.585c.81.72 1.5 1.455 2.04 2.175l-1.08 1.08c-.48-.69-1.17-1.41-2.055-2.19l1.095-1.065zm.72 4.035l1.38.555c-.48 1.92-1.02 3.72-1.59 5.4l-1.455-.66a52.916 52.916 0 0 0 1.665-5.295zM28.8 9.12v1.38h-3.765v.825h3.33v1.32h-3.33v.855h3.33v1.32h-3.33v.825h4.125v1.41h-2.205c.06.39.165.78.3 1.14.36-.21.69-.465 1.02-.765l.93.93c-.42.39-.9.72-1.44.96a6.145 6.145 0 0 0 1.725 1.905l-.81 1.32c-1.635-1.365-2.625-3.195-2.985-5.49h-.84v3.765c.54-.165 1.065-.375 1.575-.615l.255 1.29c-.975.42-2.1.78-3.36 1.05l-.555-1.185c.465-.18.705-.435.705-.78v-3.525h-.75v-1.41h.84V9.12H28.8zm-8.34 4.8l-.195 2.115h2.22c0 2.52-.075 4.2-.21 5.055-.135.855-.75 1.32-1.845 1.41-.33 0-.66-.015-.99-.045l-.36-1.32c.33.03.675.06 1.02.06.525 0 .825-.24.9-.72.06-.495.105-1.515.105-3.075H18.87l.405-4.845h1.755V10.5h-1.935V9.135h3.315v4.785h-1.95z" fill="#000"/></g></svg>