<svg width="72" height="72" viewBox="0 0 72 72" fill="none" xmlns="http://www.w3.org/2000/svg">
<path d="M0 13.5C0 6.04416 6.04416 0 13.5 0H58.5C65.9558 0 72 6.04416 72 13.5V58.5C72 65.9558 65.9558 72 58.5 72H13.5C6.04416 72 0 65.9558 0 58.5V13.5Z" fill="#FF444F"/>
<path d="M13.5 0C6.04416 0 0 6.04416 0 13.5V13.8921L67.3075 3.26845C64.9433 1.2315 61.8655 0 58.5 0H13.5Z" fill="#E12E3A"/>
<path d="M68.6969 4.65243L56.3498 71.9999L58.5 72C65.9558 72 72 65.9558 72 58.5V13.5C72 10.1155 70.7545 7.02183 68.6969 4.65243Z" fill="#E12E3A"/>
<path d="M19.1914 46.9147V25.0852H33.9334V29.2117H24.1054V33.4957H32.8309V37.5277H24.1054V42.7882H34.6579V46.9147H19.1914Z" fill="white"/>
<path d="M52.4613 28.4872C51.7893 29.1802 50.9913 30.0832 50.0673 31.1962C49.1433 32.2882 48.1878 33.4852 47.2008 34.7872C46.2138 36.0892 45.2373 37.4332 44.2713 38.8192C43.3053 40.2052 42.4443 41.5282 41.6883 42.7882H52.8078V46.9147H35.6403V43.9852C36.2283 42.9142 36.9423 41.7277 37.7823 40.4257C38.6433 39.1027 39.5358 37.7797 40.4598 36.4567C41.3838 35.1127 42.3183 33.8212 43.2633 32.5822C44.2293 31.3222 45.1218 30.1987 45.9408 29.2117H36.1443V25.0852H52.4613V28.4872Z" fill="white"/>
</svg>
