<svg width="140" height="140" viewBox="0 0 140 140" xmlns="http://www.w3.org/2000/svg"><title>economic-calnedar</title><g fill="none" fill-rule="evenodd"><path fill="#F3F2F2" fill-rule="nonzero" d="M1 1h138v138H1z"/><path d="M138 2v136H2V2h136zm2-2H0v140h140V0z" fill="#C2C2C2" fill-rule="nonzero"/><path stroke="#2A3052" stroke-width="6" d="M23 43h94v74H23z"/><path fill="#2A3052" d="M20 30h100v16H20z"/><path d="M33 33h8v-4h3v7H30v-7h3v4zM99 33h8v-4h3v7H96v-7h3v4z" fill="#F0F0F0"/><path fill="#2A3052" d="M33 20h8v13h-8zM99 20h8v13h-8z"/><g fill="#2A3052"><path d="M54 52h8v8h-8zM66 52h8v8h-8zM78 52h8v8h-8zM90 52h8v8h-8zM102 52h8v8h-8z"/></g><g fill="#2A3052"><path d="M30 64h8v8h-8zM42 64h8v8h-8zM54 64h8v8h-8zM66 64h8v8h-8zM78 64h8v8h-8zM90 64h8v8h-8zM102 64h8v8h-8z"/></g><g fill="#2A3052"><path d="M30 76h8v8h-8zM42 76h8v8h-8zM54 76h8v8h-8zM66 76h8v8h-8zM78 76h8v8h-8zM90 76h8v8h-8zM102 76h8v8h-8z"/></g><g fill="#2A3052"><path d="M30 88h8v8h-8zM42 88h8v8h-8zM54 88h8v8h-8zM66 88h8v8h-8zM78 88h8v8h-8zM90 88h8v8h-8zM102 88h8v8h-8z"/></g><g fill="#2A3052"><path d="M30 100h8v8h-8zM42 100h8v8h-8zM54 100h8v8h-8zM66 100h8v8h-8z"/></g></g></svg>