<svg width="140" height="140" viewBox="0 0 140 140" xmlns="http://www.w3.org/2000/svg" xmlns:xlink="http://www.w3.org/1999/xlink"><title>contract-specification</title><defs><path id="a" d="M0 0h140v140H0z"/></defs><g fill="none" fill-rule="evenodd"><g><use fill="#F2F2F2" xlink:href="#a"/><path stroke="#DEDEDE" stroke-width="2" d="M1 1h138v138H1z"/></g><g transform="translate(32 17)"><path d="M68.69 9.72h-6.443a11.891 11.891 0 0 1 1.124 5.015v6.932c0 3.688-3.008 6.688-6.706 6.688h-37.33c-3.698 0-6.706-3-6.706-6.688v-6.932c0-1.734.396-3.44 1.135-5.016H7.31c-3.688 0-6.705 3.01-6.705 6.688v83.905c0 3.701 3.017 6.688 6.705 6.688h61.382c3.688 0 6.705-2.987 6.705-6.688V16.407c0-3.678-3.017-6.688-6.705-6.688z" stroke="#2A3052" stroke-width="2"/><path d="M11 65h55M11 57h55M11 49h55M11 41h55M11 73h55M11 81h55" stroke="#2A3052" stroke-width="2" stroke-linecap="round"/><path d="M19.335 24.897a3.239 3.239 0 0 1-3.235-3.23v-6.932a8.41 8.41 0 0 1 1.295-4.465 7.95 7.95 0 0 1 1.29-1.65l7.489-7.222A8.608 8.608 0 0 1 32.12-1h11.735c2.22 0 4.346.854 5.971 2.399l7.454 7.21c.596.595 1.026 1.127 1.352 1.677a8.545 8.545 0 0 1 1.267 4.449v6.933a3.239 3.239 0 0 1-3.235 3.229h-37.33z" stroke="#2A3052" stroke-width="2"/><circle fill="#F2F2F2" cx="36.5" cy="60.5" r="21.5"/><path d="M54.456 75.893L70.47 91.906a1.812 1.812 0 1 1-2.563 2.563L51.893 78.456a23.47 23.47 0 0 1-15.33 5.669C23.549 84.125 13 73.575 13 60.562 13 47.55 23.55 37 36.563 37c13.013 0 23.562 10.55 23.562 23.563a23.47 23.47 0 0 1-5.669 15.33zM36.562 80.5c11.012 0 19.938-8.926 19.938-19.938 0-11.01-8.926-19.937-19.938-19.937-11.01 0-19.937 8.926-19.937 19.938 0 11.01 8.926 19.937 19.938 19.937z" fill-rule="nonzero" fill="#2A3052"/><g fill-rule="nonzero" fill="#E98024"><path d="M31.958 55.762c-.28-.489-.677-.901-1.154-1.2-.276-.171-.575-.3-.889-.385a3.438 3.438 0 0 0-1.665-.046 3.32 3.32 0 0 0-.962.384c-.488.28-.9.677-1.2 1.154a3.388 3.388 0 0 0-.526 1.793 3.43 3.43 0 0 0 1.723 2.973 3.315 3.315 0 0 0 2.623.338c.314-.084.615-.213.892-.385a3.42 3.42 0 0 0 1.154-4.615l.004-.011zm-.385 2.346a2.646 2.646 0 0 1-1.154 1.607 2.562 2.562 0 0 1-.688.304 2.63 2.63 0 0 1-1.296.035 2.55 2.55 0 0 1-.77-.285 2.658 2.658 0 0 1 .743-4.9 2.654 2.654 0 0 1 1.98.342 2.642 2.642 0 0 1 1.25 2.25c.002.218-.024.435-.076.647h.011z"/><path d="M35.173 61.835l-1.185-1.185a5.93 5.93 0 0 0 .804-1.973h1.685a.385.385 0 0 0 .385-.385v-1.665a.385.385 0 0 0-.385-.385h-1.68a5.93 5.93 0 0 0-.805-1.973l1.185-1.184a.385.385 0 0 0 0-.543l-1.18-1.18a.385.385 0 0 0-.543 0L32.3 52.515a5.908 5.908 0 0 0-1.992-.857v-1.616a.385.385 0 0 0-.385-.384h-1.68a.385.385 0 0 0-.385.384v1.573a5.904 5.904 0 0 0-2.066.847L24.7 51.369a.385.385 0 0 0-.542 0l-1.181 1.181a.385.385 0 0 0 0 .542l1.073 1.073a5.923 5.923 0 0 0-.88 2.085h-1.5a.385.385 0 0 0-.385.385V58.3c0 .212.172.385.384.385h1.5a5.93 5.93 0 0 0 .877 2.084l-1.07 1.07a.385.385 0 0 0 0 .542l1.182 1.18c.15.15.392.15.542 0l1.092-1.1c.63.403 1.331.683 2.066.824v1.573c0 .212.172.384.384.384h1.666a.385.385 0 0 0 .384-.384v-1.616a5.908 5.908 0 0 0 1.993-.857l1.153 1.153c.15.15.393.15.543 0l1.18-1.18a.385.385 0 0 0 .012-.523zm-1.45.907L32.6 61.62a.385.385 0 0 0-.504-.034c-.66.5-1.433.832-2.25.969a.385.385 0 0 0-.323.384v1.539h-.896v-1.512a.385.385 0 0 0-.335-.384 5.123 5.123 0 0 1-2.307-.923.385.385 0 0 0-.497.038l-1.042 1.042-.634-.634 1.03-1.03a.385.385 0 0 0 .004-.5 5.138 5.138 0 0 1-.973-2.343.385.385 0 0 0-.385-.327h-1.43v-.892h1.438a.385.385 0 0 0 .385-.327 5.138 5.138 0 0 1 .965-2.335.385.385 0 0 0-.034-.504l-1.031-1.03.634-.635 1.058 1.05a.385.385 0 0 0 .496.038 5.123 5.123 0 0 1 2.308-.923.385.385 0 0 0 .335-.384v-1.52h.896v1.539a.385.385 0 0 0 .323.384c.817.137 1.59.47 2.25.97a.385.385 0 0 0 .504-.035l1.123-1.123.634.635-1.154 1.153a.385.385 0 0 0-.038.497c.482.659.8 1.424.927 2.23.029.19.193.33.385.327h1.623v.896h-1.623a.385.385 0 0 0-.385.316 5.142 5.142 0 0 1-.912 2.234.385.385 0 0 0 .039.497l1.154 1.153-.635.627zM50.327 64.896h-1.685a5.93 5.93 0 0 0-.804-1.973l1.185-1.185a.385.385 0 0 0 0-.542l-1.18-1.18a.385.385 0 0 0-.543 0l-1.154 1.153a5.908 5.908 0 0 0-1.992-.857v-1.616a.385.385 0 0 0-.385-.384h-1.68a.385.385 0 0 0-.385.384v1.573a5.904 5.904 0 0 0-2.066.823L38.546 60a.385.385 0 0 0-.542 0l-1.18 1.18a.385.385 0 0 0 0 .543l1.072 1.073a5.923 5.923 0 0 0-.88 2.085h-1.5a.385.385 0 0 0-.385.384v1.666a.385.385 0 0 0 .384.384h1.5a5.93 5.93 0 0 0 .877 2.085l-1.069 1.07a.385.385 0 0 0 0 .542l1.18 1.18c.15.15.393.15.543 0l1.092-1.092c.63.403 1.331.682 2.066.823v1.573c0 .213.172.385.384.385h1.666a.385.385 0 0 0 .384-.385v-1.615a5.908 5.908 0 0 0 1.993-.858l1.154 1.154c.15.149.392.149.542 0l1.18-1.18a.385.385 0 0 0 0-.543l-1.184-1.185a5.93 5.93 0 0 0 .804-1.973h1.685a.385.385 0 0 0 .384-.384V65.28a.385.385 0 0 0-.37-.385zm-.385 1.666h-1.634a.385.385 0 0 0-.385.326 5.142 5.142 0 0 1-.911 2.235.385.385 0 0 0 .038.496l1.154 1.154-.635.635-1.123-1.123a.385.385 0 0 0-.504-.035 5.127 5.127 0 0 1-2.25.958.385.385 0 0 0-.323.384v1.539h-.896v-1.512a.385.385 0 0 0-.335-.384 5.123 5.123 0 0 1-2.307-.923.385.385 0 0 0-.496.038l-1.043 1.042-.634-.634 1.03-1.031a.385.385 0 0 0 .004-.5 5.138 5.138 0 0 1-.984-2.335.385.385 0 0 0-.385-.327h-1.42v-.9h1.44a.385.385 0 0 0 .384-.327 5.138 5.138 0 0 1 .965-2.334.385.385 0 0 0-.034-.504l-1.031-1.03.635-.635 1.042 1.042a.385.385 0 0 0 .496.038 5.123 5.123 0 0 1 2.308-.923.385.385 0 0 0 .334-.384v-1.512h.896v1.539a.385.385 0 0 0 .324.384c.817.137 1.589.47 2.25.97a.385.385 0 0 0 .503-.035l1.123-1.123.635.634-1.154 1.154a.385.385 0 0 0-.038.496c.486.656.809 1.418.942 2.223.029.19.193.33.385.327h1.623l.011.897z"/><path d="M45.804 64.415c-.28-.488-.677-.9-1.154-1.2-.276-.17-.575-.3-.888-.384a3.462 3.462 0 0 0-1.666-.046 3.32 3.32 0 0 0-.961.384 3.435 3.435 0 0 0-1.723 2.973 3.43 3.43 0 0 0 1.723 2.973 3.315 3.315 0 0 0 2.623.339c.314-.084.615-.213.892-.385a3.42 3.42 0 0 0 1.154-4.615v-.039zm-.385 2.347a2.646 2.646 0 0 1-1.154 1.607 2.642 2.642 0 0 1-1.985.338 2.658 2.658 0 0 1 .004-5.185 2.654 2.654 0 0 1 3.227 2.592 2.638 2.638 0 0 1-.103.648h.011zM39.73 54.385c.22.36.523.661.885.877a2.5 2.5 0 0 0 .731.276 2.554 2.554 0 0 0 1.916-.33 2.562 2.562 0 0 0 0-4.346 2.47 2.47 0 0 0-.666-.297 2.577 2.577 0 0 0-1.246-.027 2.5 2.5 0 0 0-.72.277 2.58 2.58 0 0 0-1.215 1.6 2.554 2.554 0 0 0 .316 1.97zm.432-1.797c.12-.466.422-.864.838-1.107a1.792 1.792 0 0 1 1.842.042 1.792 1.792 0 0 1 0 3.042 1.792 1.792 0 0 1-1.838.038 1.8 1.8 0 0 1-.85-1.995l.008-.02z"/><path d="M37.25 53.954h.842c.101.408.268.798.493 1.154l-.6.6a.385.385 0 0 0 0 .542l.769.77c.15.148.392.148.542 0l.616-.616c.357.214.747.37 1.153.461v.889c0 .212.173.384.385.384h1.062a.385.385 0 0 0 .384-.384v-.92c.392-.1.766-.261 1.108-.476l.661.661c.15.15.393.15.543 0l.769-.769a.385.385 0 0 0 0-.542l-.673-.673c.203-.341.354-.71.446-1.097h.962a.385.385 0 0 0 .384-.384v-1.046a.385.385 0 0 0-.384-.385h-.962a3.912 3.912 0 0 0-.446-1.096l.673-.673a.385.385 0 0 0 0-.542l-.77-.77a.385.385 0 0 0-.542 0l-.661.662a3.908 3.908 0 0 0-1.108-.477v-.9a.385.385 0 0 0-.384-.385H41.43a.385.385 0 0 0-.385.385v.888a3.9 3.9 0 0 0-1.154.462l-.615-.615a.385.385 0 0 0-.542 0l-.77.769a.385.385 0 0 0 0 .542l.6.6a3.908 3.908 0 0 0-.492 1.154h-.823a.385.385 0 0 0-.385.385v1.061c.002.211.174.38.385.38zm.385-1.062h.769a.385.385 0 0 0 .384-.327 3.127 3.127 0 0 1 .6-1.423.385.385 0 0 0-.034-.504l-.558-.557.208-.208.565.565a.385.385 0 0 0 .496.039 3.12 3.12 0 0 1 1.416-.562.385.385 0 0 0 .334-.384v-.82h.293v.843a.385.385 0 0 0 .323.384 3.12 3.12 0 0 1 1.369.6.385.385 0 0 0 .504-.034l.615-.616.208.208-.627.612a.385.385 0 0 0-.038.496c.29.403.48.87.553 1.361.03.19.193.33.385.327h.892v.293h-.896a.385.385 0 0 0-.384.327 3.127 3.127 0 0 1-.55 1.361.385.385 0 0 0 .038.496l.623.623-.208.208-.615-.615a.385.385 0 0 0-.5-.047 3.123 3.123 0 0 1-1.37.589.385.385 0 0 0-.322.385v.842h-.293v-.816a.385.385 0 0 0-.334-.384 3.123 3.123 0 0 1-1.416-.562.385.385 0 0 0-.496.039l-.565.565-.208-.208.558-.557a.385.385 0 0 0 .034-.504 3.123 3.123 0 0 1-.6-1.423.385.385 0 0 0-.384-.327h-.77v-.285z"/></g></g></g></svg>