<svg xmlns="http://www.w3.org/2000/svg" width="50" height="49" viewBox="0 0 50 49"><g fill="none"><path stroke="#EA8329" d="M26.258 26.955v7.772c2.352-.156 4.83-1.255 4.83-3.846 0-2.671-2.715-3.456-4.83-3.926z"/><path stroke="#ED9141" d="M19.503 17.651c0 1.967 1.454 3.1 4.397 3.692v-7.03c-2.673.082-4.397 1.65-4.397 3.338z"/><path stroke="#EA8329" d="M25 .946C11.907.946 1.252 11.599 1.252 24.692c0 13.094 10.655 23.745 23.748 23.745 13.093 0 23.75-10.65 23.75-23.745S38.093.946 25 .946zm1.258 37.787v2.436c0 .668-.515 1.334-1.182 1.334-.666 0-1.176-.665-1.176-1.334v-2.436c-6.633-.156-9.934-4.122-9.934-7.227 0-1.566.94-2.47 2.434-2.47 4.396 0 .979 5.419 7.5 5.693v-8.206c-5.815-1.06-9.342-3.61-9.342-7.97 0-5.338 4.435-8.088 9.342-8.244V8.22c0-.67.51-1.337 1.176-1.337.667 0 1.182.666 1.182 1.336v2.091c3.057.082 9.339 2 9.339 5.851 0 1.531-1.14 2.43-2.474 2.43-2.551 0-2.516-4.195-6.863-4.277v7.459c5.183 1.1 9.772 2.63 9.772 8.68 0 5.26-3.93 7.93-9.774 8.281z"/></g></svg>