<svg xmlns="http://www.w3.org/2000/svg" width="218" height="57" viewBox="0 0 218 57"><g fill="none" fill-rule="evenodd"><path d="M84.818 34.835a4.512 4.512 0 0 1-1.46 1.65c-.632.44-1.395.771-2.29.988-.888.218-1.88.332-2.959.332h-9.172V18.56h8.954c1.984 0 3.537.45 4.671 1.347 1.128.895 1.695 2.106 1.695 3.631v.055c0 .548-.07 1.036-.207 1.454a4.49 4.49 0 0 1-1.346 2.036 5.39 5.39 0 0 1-.976.662c1.117.424 1.995.994 2.638 1.721.643.722.96 1.727.96 3.008v.054c0 .88-.17 1.65-.508 2.307zm-4.763-10.58c0-.64-.24-1.13-.72-1.471-.479-.342-1.166-.51-2.07-.51h-4.197v4.065h3.919c.937 0 1.684-.162 2.234-.483.55-.32.829-.836.829-1.552v-.05h.005zm1.074 7.698c0-.641-.251-1.151-.747-1.526-.496-.374-1.297-.564-2.403-.564h-4.91v4.234h5.051c.938 0 1.673-.168 2.208-.51.534-.337.8-.864.8-1.58v-.054zm6.818-10.505v-3.713h4.414v3.713h-4.414zm.109 16.357V23.07h4.196v14.734h-4.196zm16.944 0v-8.198c0-.988-.224-1.731-.665-2.236-.442-.505-1.068-.755-1.875-.755-.812 0-1.45.25-1.918.755-.47.5-.703 1.248-.703 2.236v8.198h-4.197V23.07h4.197v2.107c.24-.315.501-.614.784-.901a5.4 5.4 0 0 1 .954-.76 4.707 4.707 0 0 1 1.161-.527c.425-.13.9-.195 1.433-.195 1.603 0 2.84.488 3.712 1.454.872.972 1.313 2.308 1.313 4.012v9.54H105v.006zm15.952 0v-1.596a5.85 5.85 0 0 1-1.848 1.362c-.72.342-1.591.51-2.621.51a6.666 6.666 0 0 1-1.973-.287 4.575 4.575 0 0 1-1.613-.869 4.19 4.19 0 0 1-1.09-1.417c-.267-.559-.398-1.205-.398-1.938v-.054c0-.809.147-1.504.441-2.09a4.02 4.02 0 0 1 1.227-1.455c.523-.385 1.15-.673 1.874-.863.725-.195 1.532-.288 2.415-.288.752 0 1.411.055 1.973.163.561.109 1.106.255 1.64.44v-.25c0-.88-.267-1.547-.801-2.008-.534-.456-1.324-.69-2.37-.69-.813 0-1.521.07-2.137.206-.616.136-1.265.337-1.946.592l-1.046-3.186c.812-.348 1.657-.63 2.54-.853.882-.222 1.95-.33 3.199-.33 2.3 0 3.973.558 5.025 1.677 1.046 1.118 1.575 2.676 1.575 4.674v8.55h-4.066zm.082-5.94a6.488 6.488 0 0 0-1.227-.396 6.824 6.824 0 0 0-1.45-.152c-.899 0-1.607.174-2.125.522-.512.347-.774.852-.774 1.514v.054c0 .57.213 1.01.632 1.32.426.314.976.466 1.657.466.992 0 1.788-.238 2.387-.716.6-.478.9-1.102.9-1.868v-.743zm15.734-4.7c-1.4 0-2.496.423-3.297 1.264-.802.842-1.2 2.156-1.2 3.93v5.446h-4.196V23.07h4.197v2.97c.425-1.01 1.002-1.813 1.738-2.421.736-.603 1.728-.88 2.981-.825v4.37h-.223zm10.682 10.998c-.278.749-.573 1.39-.883 1.91-.31.522-.66.95-1.036 1.276-.376.332-.806.57-1.286.717-.48.147-1.03.217-1.657.217-.774 0-1.455-.092-2.043-.277a8.027 8.027 0 0 1-1.684-.743l1.406-3.024c.278.168.572.304.899.412.321.109.621.163.9.163.364 0 .659-.07.866-.206.212-.136.408-.39.594-.755l-5.794-14.782h4.442l3.368 10.032 3.232-10.032h4.36l-5.684 15.092zm29.79-.923c-1.374.597-2.938.896-4.704.896-1.51 0-2.883-.25-4.126-.744-1.242-.494-2.31-1.183-3.199-2.063a9.31 9.31 0 0 1-2.082-3.132c-.496-1.205-.746-2.53-.746-3.958v-.054c0-1.373.25-2.66.757-3.86a9.926 9.926 0 0 1 2.11-3.159 9.879 9.879 0 0 1 3.199-2.144c1.231-.521 2.583-.782 4.054-.782.867 0 1.652.06 2.36.18a10.94 10.94 0 0 1 1.973.51 9.04 9.04 0 0 1 1.711.825c.535.33 1.047.705 1.548 1.129l-2.676 3.219a11.04 11.04 0 0 0-1.106-.825 7.218 7.218 0 0 0-1.145-.603 7.04 7.04 0 0 0-1.28-.385 7.723 7.723 0 0 0-1.52-.136c-.775 0-1.494.163-2.17.483-.67.32-1.259.755-1.766 1.298a6.034 6.034 0 0 0-1.188 1.9 6.358 6.358 0 0 0-.425 2.328v.055c0 .88.142 1.693.425 2.437a5.83 5.83 0 0 0 1.215 1.944 5.48 5.48 0 0 0 1.848 1.28c.709.305 1.493.457 2.36.457 1.58 0 2.916-.386 4-1.162v-2.769h-4.278v-3.653h8.387v8.355c-.986.82-2.169 1.541-3.537 2.133zm15.33-10.075c-1.4 0-2.496.423-3.297 1.264-.801.842-1.199 2.156-1.199 3.93v5.446h-4.196V23.07h4.196v2.97c.425-1.01 1.003-1.813 1.739-2.421.735-.603 1.727-.88 2.98-.825v4.37h-.223zm2.377-5.717v-3.713h4.414v3.713h-4.414zm.109 16.357V23.07h4.196v14.734h-4.197zm18.268 0v-2.096a6.557 6.557 0 0 1-1.864 1.705c-.73.445-1.64.667-2.747.667-.866 0-1.7-.162-2.512-.494a6.21 6.21 0 0 1-2.153-1.47c-.627-.652-1.128-1.445-1.504-2.395-.376-.944-.567-2.03-.567-3.257v-.054c0-1.227.19-2.313.567-3.257.376-.945.872-1.743 1.493-2.394a6.099 6.099 0 0 1 2.136-1.471 6.654 6.654 0 0 1 2.54-.494c1.123 0 2.05.217 2.774.656.725.44 1.34.945 1.837 1.526v-7.242h4.196v20.07h-4.196zm.054-7.394a4.72 4.72 0 0 0-.288-1.672 4.222 4.222 0 0 0-.774-1.303 3.345 3.345 0 0 0-2.53-1.124 3.37 3.37 0 0 0-1.394.293c-.43.196-.812.473-1.145.831a3.927 3.927 0 0 0-.785 1.287c-.196.499-.288 1.058-.288 1.688v.054c0 .608.098 1.167.288 1.678.191.504.458.939.785 1.297.333.358.714.635 1.145.83.43.196.899.288 1.395.288s.959-.097 1.395-.287c.43-.196.812-.473 1.134-.831.321-.358.577-.793.774-1.297a4.75 4.75 0 0 0 .288-1.678v-.054zM55.743 27.344h-12.47V16.21h5.668a1.205 1.205 0 1 0 0-2.41h-5.668V8.185c0-.667-.54-1.205-1.21-1.205-.67 0-1.21.538-1.21 1.205v5.619H29.768L29.762 1.41c0-.662-.54-1.2-1.21-1.2-.664 0-1.204.538-1.204 1.206l.006 12.388H16.192V8.186c0-.667-.54-1.205-1.21-1.205-.67 0-1.21.538-1.21 1.205v5.619H8.12a1.205 1.205 0 1 0 0 2.41h5.658V27.35H1.335a1.205 1.205 0 1 0 0 2.41h12.437v11.134H8.153a1.205 1.205 0 1 0 0 2.41h5.625v5.522c0 .667.54 1.205 1.21 1.205.67 0 1.21-.538 1.21-1.205v-5.532H27.37l.005 12.29c0 .662.54 1.2 1.21 1.2.665 0 1.205-.538 1.205-1.205l-.006-12.29H40.86v5.52c0 .668.54 1.205 1.21 1.205.67 0 1.21-.537 1.21-1.205v-5.515h5.667a1.205 1.205 0 1 0 0-2.41h-5.673v-11.13h12.464a1.205 1.205 0 1 0 .006-2.41zM28.574 40.888H16.192V16.21h24.666v24.678H28.575z" fill="#FFF" fill-rule="nonzero"/><ellipse cx="28.531" cy="28.5" fill="#FFF" rx="13.647" ry="13.593"/><path fill="#2A3153" d="M37.567 19.5c-5.009-5-13.146-5-18.149 0-5.003 4.994-5.003 13.126 0 18.125 5.003 5 13.146 4.995 18.149 0 5.008-5 5.008-13.131 0-18.126zm-1.33 16.795c-.142.136-.278.272-.42.397-3.084 2.508-5.455 1.26-5.488 1.26-1.608-.321-2.409-.327-2.861-.63-.114-.077-.48-.272-.561-.223-.327.195-.78.293-1.248-.076a1.082 1.082 0 0 1-.115-.103c-.512-.51-.338-1.037-.169-1.216.12-.12-.087-.456-.087-.456s-.605-.896-1.02-1.433c-.457-.592-.517-1.765-.522-1.781l-.006-.016c-.458-.543-.507-.711-.665-.977-.092-.158-.234-.304-.354-.43a2.58 2.58 0 0 1-.212-.233c-.011-.016-.017-.038-.011-.076.043-.255.588-.814.708-.895.147-.093.769-.473.769-.473s.348-.553.948-.553c.54.005.866-.028 1.798.271l.387.12c.649.206 1.221.45 1.673.645.387.169.693.299.932.364.802.212 2.219-.44 2.513-.711.49-.445.703-.744.703-.988.005-.136-.055-.255-.196-.402-.071-.065-.164-.19-.284-.31-.016-.015-.038-.037-.06-.053-1.357-1.439-1.122-2.34-1.122-2.356.06-.646-.316-1.064-.714-1.493l-.066-.082a.994.994 0 0 1-.049-.054c.578.092.97.326 2.098.45.644.071.436.066.949.05.703-.022 1.264-.087 1.302-.245-.07-.06-.381.016-1.88-.554a21.188 21.188 0 0 0-1.242-.45 17.604 17.604 0 0 1-1.183-.456c2.447.64 3.243.89 4.36.906.43.006.692-.043.84-.076.157-.027.653-.14.708-.309.016-.027-.474.081-1.38-.217-2.855-.94-3.095-1.412-4.675-2.025-.55-.212-.73-.331-2.398-.76-.763-.195-1.919-.081-2.077.016-2.163-.51-2.654-.45-3.292-.315 4.235-2.708 9.947-2.22 13.653 1.477a11.32 11.32 0 0 1 1.335 1.612l.054.076a10.81 10.81 0 0 1 1.82 6.042 10.781 10.781 0 0 1-3.193 7.741zm-7.183-12.35c1.074.38 1.417 1.526 1.417 1.526-1.368.31-1.08-1.08-1.08-1.08l-.337-.446zm-4.485 8.257s.152 1.14 1.111 1.667l-.256-.478c.006 0 .49-1.281-.855-1.189z"/></g></svg>