<svg width="40" height="40" viewBox="0 0 40 40" xmlns="http://www.w3.org/2000/svg" xmlns:xlink="http://www.w3.org/1999/xlink"><defs><path d="M17.57 19.414h1.63c1.023-.016 1.827-.285 2.413-.809.586-.523.88-1.23.88-2.12 0-2-.997-3-2.99-3-.937 0-1.685.267-2.243.802-.559.535-.838 1.244-.838 2.127h-2.168c0-1.352.494-2.475 1.482-3.37.989-.894 2.244-1.34 3.768-1.34 1.61 0 2.871.425 3.785 1.276.914.852 1.371 2.036 1.371 3.551 0 .742-.24 1.461-.72 2.157-.481.695-1.135 1.214-1.963 1.558.937.297 1.662.79 2.173 1.477.512.687.768 1.527.768 2.52 0 1.53-.5 2.745-1.5 3.644-1 .898-2.3 1.347-3.902 1.347-1.602 0-2.905-.433-3.909-1.3-1.003-.868-1.505-2.012-1.505-3.434h2.18c0 .898.292 1.617.878 2.156.586.54 1.371.809 2.356.809 1.047 0 1.847-.274 2.402-.82.555-.547.832-1.332.832-2.356 0-.992-.305-1.754-.914-2.285-.61-.531-1.488-.805-2.637-.82H17.57v-1.77z" id="a"/></defs><g fill="none" fill-rule="evenodd"><circle fill="#E98024" fill-rule="nonzero" cx="20" cy="20" r="20"/><use fill="#000" xlink:href="#a"/><use fill="#FFF" xlink:href="#a"/></g></svg>