<svg id="platform-dtrader" class="inline-icon header__icon" style="margin-right: 0.8rem; vertical-align: middle; display: none;" xmlns="http://www.w3.org/2000/svg" width="32" height="32" viewBox="0 0 32 32">
    <g fill="none" fill-rule="evenodd">
        <path fill="#FF444F" d="M5.982 0H25.92a5.982 5.982 0 0 1 5.981 5.982V25.92a5.982 5.982 0 0 1-5.981 5.981H5.98A5.982 5.982 0 0 1 0 25.921V5.98A5.982 5.982 0 0 1 5.982.002" />
        <path fill="#FFF" d="M7.826 5.982L6.76 9.312l5.324 6.55-5.334 6.49.858 3.569 8.264-10.05z" />
        <path fill="#FFF" d="M15.393 5.982H9.45l2.484 3.05h3.448a6.979 6.979 0 0 1 6.839 6.98c0 3.8-3.04 6.902-6.839 6.978h-3.734l-2.41 2.93h6.144c5.449-.06 9.82-4.52 9.77-9.969.05-5.445-4.315-9.903-9.76-9.97" />
    </g>
</svg>
