<svg id="Layer_1" data-name="Layer 1" xmlns="http://www.w3.org/2000/svg" viewBox="0 0 48 48"><defs><style>.cls-1{fill:#2a3052}</style></defs><title>print_outline</title><path class="cls-1" d="M38.95 45.74H9.05v-9.05H0V21.74a8.17 8.17 0 0 1 8.16-8.16h31.68A8.17 8.17 0 0 1 48 21.74v14.95h-9.05zM11.79 43h24.42v-9.06h9.05v-12.2a5.42 5.42 0 0 0-5.42-5.42H8.16a5.42 5.42 0 0 0-5.42 5.42v12.2h9.05zm22.63-1.78H13.58V27.15h20.84zm-18.1-2.74h15.36V29.9H16.32zm23.52-13.1a3.63 3.63 0 1 1 3.63-3.63 3.64 3.64 0 0 1-3.63 3.62zm0-4.53a.89.89 0 1 0 .89.89.9.9 0 0 0-.89-.89zm-.89-8.56H9.05v-10h29.9zM11.79 9.55h24.42V5H11.79z"/></svg>