<svg width="16" height="16" fill="none" xmlns="http://www.w3.org/2000/svg"><path d="M8 12c-2.21 0-4-1.79-4-4s1.79-4 4-4 4 1.79 4 4-1.79 4-4 4Zm0-7C6.35 5 5 6.35 5 8s1.35 3 3 3 3-1.35 3-3-1.35-3-3-3Zm.5-2.5v-2C8.5.22 8.28 0 8 0s-.5.22-.5.5v2c0 .28.22.5.5.5s.5-.22.5-.5Zm3.74 1.96 1.11-1.11c.2-.2.2-.51 0-.71-.2-.2-.51-.2-.71 0l-1.11 1.11c-.2.2-.2.51 0 .71a.485.485 0 0 0 .7 0h.01Zm1.11 8.89c.2-.2.2-.51 0-.71l-1.11-1.11c-.2-.2-.51-.2-.71 0-.2.2-.2.51 0 .71l1.11 1.11a.485.485 0 0 0 .7 0h.01Zm-10 0 1.11-1.11c.2-.2.2-.51 0-.71-.2-.2-.51-.2-.71 0l-1.11 1.11c-.2.2-.2.51 0 .71a.485.485 0 0 0 .7 0h.01Zm1.11-8.89c.2-.2.2-.51 0-.71L3.35 2.64c-.2-.2-.51-.2-.71 0-.2.2-.2.51 0 .71l1.11 1.11a.485.485 0 0 0 .7 0h.01ZM16 8c0-.28-.22-.5-.5-.5h-2c-.28 0-.5.22-.5.5s.22.5.5.5h2c.28 0 .5-.22.5-.5Zm-7.5 7.5v-2c0-.28-.22-.5-.5-.5s-.5.22-.5.5v2c0 .28.22.5.5.5s.5-.22.5-.5ZM3 8c0-.28-.22-.5-.5-.5h-2c-.28 0-.5.22-.5.5s.22.5.5.5h2c.28 0 .5-.22.5-.5Z" fill="#333"/></svg>