<svg xmlns="http://www.w3.org/2000/svg" fill="none" viewBox="0 0 32 32"><g clip-path="url(#a)"><path fill="#0364B9" d="M26 0H6a6 6 0 0 0-6 6v17.5h32V6a6 6 0 0 0-6-6Z"/><path fill="#0A559E" d="M6 0a6 6 0 0 0-6 6v.174l29.914-4.721A5.976 5.976 0 0 0 26 0H6ZM32 6c0-1.504-.553-2.88-1.468-3.933L26.602 23.5H32V6Z"/><path fill="#2A3052" d="M0 23h32v3a6 6 0 0 1-6 6H6a6 6 0 0 1-6-6v-3Z"/><path fill="#fff" d="M7.346 9.684c.144.264.308.592.492.984.192.384.388.804.588 1.26.208.448.412.908.612 1.38l.564 1.332.564-1.332c.2-.472.4-.932.6-1.38.208-.456.404-.876.588-1.26.192-.392.36-.72.504-.984h1.704c.08.552.152 1.172.216 1.86.072.68.132 1.392.18 2.136.056.736.104 1.476.144 2.22.048.744.088 1.444.12 2.1h-1.824c-.024-.808-.056-1.688-.096-2.64-.04-.952-.1-1.912-.18-2.88a517.564 517.564 0 0 1-1.008 2.34 108.944 108.944 0 0 1-.9 2.124H8.906c-.112-.264-.248-.58-.408-.948-.16-.376-.328-.768-.504-1.176-.168-.408-.34-.816-.516-1.224l-.48-1.116c-.08.968-.14 1.928-.18 2.88-.04.952-.072 1.832-.096 2.64H4.898c.032-.656.068-1.356.108-2.1l.144-2.22c.056-.744.116-1.456.18-2.136.072-.688.148-1.308.228-1.86h1.788ZM21.358 9.684v1.596H18.85V18h-1.872v-6.72H14.47V9.684h6.888ZM25.322 15.552a1.18 1.18 0 0 0-.156-.612c-.104-.184-.284-.336-.54-.456-.256-.12-.6-.212-1.032-.276a11.46 11.46 0 0 0-1.632-.096c.088-.744.16-1.5.216-2.268.056-.768.1-1.488.132-2.16h4.5v1.5h-3c-.016.288-.036.568-.06.84-.016.264-.036.496-.06.696 1.168.08 2.028.356 2.58.828.56.464.84 1.112.84 1.944 0 .384-.068.74-.204 1.068-.136.328-.34.612-.612.852a2.9 2.9 0 0 1-1.032.564c-.408.136-.888.204-1.44.204-.216 0-.444-.016-.684-.048a6.41 6.41 0 0 1-.684-.108 7.294 7.294 0 0 1-.588-.132 2.309 2.309 0 0 1-.408-.144l.324-1.476c.2.088.464.176.792.264.328.08.72.12 1.176.12.552 0 .952-.108 1.2-.324.248-.224.372-.484.372-.78ZM11.872 28.872c.132 0 .24-.01.324-.03a.689.689 0 0 0 .21-.09.32.32 0 0 0 .108-.138c.02-.052.03-.11.03-.174 0-.136-.064-.248-.192-.336-.128-.092-.348-.19-.66-.294a5.761 5.761 0 0 1-.408-.162 1.633 1.633 0 0 1-.366-.234 1.17 1.17 0 0 1-.264-.342 1.09 1.09 0 0 1-.102-.492c0-.192.036-.364.108-.516.072-.156.174-.288.306-.396.132-.108.292-.19.48-.246.188-.06.4-.09.636-.09a2.59 2.59 0 0 1 1.23.288l-.27.738a2.33 2.33 0 0 0-.39-.156 1.583 1.583 0 0 0-.51-.072c-.224 0-.386.032-.486.096-.096.06-.144.154-.144.282 0 .076.018.14.054.192.036.052.086.1.15.144.068.04.144.078.228.114l.288.102c.216.08.404.16.564.24.16.076.292.166.396.27a.972.972 0 0 1 .24.366c.052.14.078.31.078.51 0 .388-.136.69-.408.906-.272.212-.682.318-1.23.318-.184 0-.35-.012-.498-.036a2.485 2.485 0 0 1-.69-.18 2.41 2.41 0 0 1-.204-.102l.264-.744c.124.068.276.13.456.186a2.5 2.5 0 0 0 .672.078ZM17.197 25.428v.798h-1.254v3.36h-.936v-3.36h-1.254v-.798h3.444ZM18.734 28.824l.15.012h.21c.468 0 .814-.118 1.038-.354.228-.236.342-.562.342-.978 0-.436-.108-.766-.324-.99-.216-.224-.558-.336-1.026-.336-.064 0-.13.002-.198.006-.068 0-.132.004-.192.012v2.628Zm2.706-1.32c0 .36-.056.674-.168.942a1.73 1.73 0 0 1-.48.666 2.005 2.005 0 0 1-.75.396 3.491 3.491 0 0 1-.996.132c-.168 0-.364-.008-.588-.024a4.51 4.51 0 0 1-.66-.084v-4.05c.216-.04.44-.066.672-.078.236-.016.438-.024.606-.024.356 0 .678.04.966.12.292.08.542.206.75.378.208.172.368.392.48.66.112.268.168.59.168.966Z"/></g><defs><clipPath id="a"><path fill="#fff" d="M0 0h32v32H0z"/></clipPath></defs></svg>