<svg width="24" height="25" viewBox="0 0 24 25" fill="none" xmlns="http://www.w3.org/2000/svg"><g clip-path="url(#clip0_34589_443170)"><path d="M0 17.75H24V20C24 22.4853 21.9853 24.5 19.5 24.5H4.5C2.01472 24.5 0 22.4853 0 20V17.75Z" fill="#71BD0E"/><path d="M20.0208 17.75H0V5.13108L22.4359 1.58984C22.6011 1.73224 22.7559 1.88645 22.899 2.05115L20.0208 17.75Z" fill="#0364B9"/><path d="M0 5C0 2.51472 2.01472 0.5 4.5 0.5H19.5C20.6218 0.5 21.6478 0.910845 22.4359 1.58984L0 5.13108V5Z" fill="#0A559E"/><path d="M20.0208 17.75L22.899 2.05115C23.5848 2.84095 24 3.87182 24 5V17.75H20.0208Z" fill="#0A559E"/><path d="M5.50666 7.763C5.61466 7.961 5.73766 8.207 5.87566 8.501C6.01966 8.789 6.16666 9.104 6.31666 9.446C6.47266 9.782 6.62566 10.127 6.77566 10.481C6.92566 10.835 7.06666 11.168 7.19866 11.48C7.33067 11.168 7.47167 10.835 7.62167 10.481C7.77167 10.127 7.92166 9.782 8.07166 9.446C8.22766 9.104 8.37466 8.789 8.51266 8.501C8.65666 8.207 8.78266 7.961 8.89067 7.763H10.1687C10.2287 8.177 10.2827 8.642 10.3307 9.158C10.3847 9.668 10.4297 10.202 10.4657 10.76C10.5077 11.312 10.5437 11.867 10.5737 12.425C10.6097 12.983 10.6397 13.508 10.6637 14H9.29567C9.27767 13.394 9.25366 12.734 9.22367 12.02C9.19366 11.306 9.14867 10.586 9.08867 9.86C8.98067 10.112 8.86067 10.391 8.72866 10.697C8.59666 11.003 8.46467 11.309 8.33266 11.615C8.20667 11.921 8.08366 12.215 7.96366 12.497C7.84366 12.773 7.74166 13.01 7.65766 13.208H6.67666C6.59266 13.01 6.49066 12.773 6.37066 12.497C6.25066 12.215 6.12466 11.921 5.99266 11.615C5.86666 11.309 5.73766 11.003 5.60566 10.697C5.47366 10.391 5.35366 10.112 5.24566 9.86C5.18566 10.586 5.14066 11.306 5.11066 12.02C5.08066 12.734 5.05666 13.394 5.03866 14H3.67066C3.69466 13.508 3.72166 12.983 3.75166 12.425C3.78766 11.867 3.82366 11.312 3.85966 10.76C3.90166 10.202 3.94666 9.668 3.99466 9.158C4.04866 8.642 4.10566 8.177 4.16566 7.763H5.50666Z" fill="white"/><path d="M16.0159 7.763V8.96H14.1349V14H12.7309V8.96H10.8499V7.763H16.0159Z" fill="white"/><path d="M18.9882 12.164C18.9882 11.99 18.9492 11.837 18.8712 11.705C18.7932 11.567 18.6582 11.453 18.4662 11.363C18.2742 11.273 18.0162 11.204 17.6922 11.156C17.3682 11.108 16.9602 11.084 16.4682 11.084C16.5342 10.526 16.5882 9.959 16.6302 9.383C16.6722 8.807 16.7052 8.267 16.7292 7.763H20.1042V8.888H17.8542C17.8422 9.104 17.8272 9.314 17.8092 9.518C17.7972 9.716 17.7822 9.89 17.7642 10.04C18.6402 10.1 19.2852 10.307 19.6992 10.661C20.1192 11.009 20.3292 11.495 20.3292 12.119C20.3292 12.407 20.2782 12.674 20.1762 12.92C20.0742 13.166 19.9212 13.379 19.7172 13.559C19.5132 13.739 19.2552 13.88 18.9432 13.982C18.6372 14.084 18.2772 14.135 17.8632 14.135C17.7012 14.135 17.5302 14.123 17.3502 14.099C17.1762 14.081 17.0052 14.054 16.8372 14.018C16.6752 13.988 16.5282 13.955 16.3962 13.919C16.2642 13.883 16.1622 13.847 16.0902 13.811L16.3332 12.704C16.4832 12.77 16.6812 12.836 16.9272 12.902C17.1732 12.962 17.4672 12.992 17.8092 12.992C18.2232 12.992 18.5232 12.911 18.7092 12.749C18.8952 12.581 18.9882 12.386 18.9882 12.164Z" fill="white"/><path d="M8.65514 22.6843V19.5658H10.7431V20.1553H9.35714V20.8078H10.5901V21.3973H9.35714V22.6843H8.65514Z" fill="white"/><path d="M11.2391 19.5658H11.9411V22.6843H11.2391V19.5658Z" fill="white"/><path d="M14.7554 22.6843C14.5544 22.3273 14.3369 21.9748 14.1029 21.6268C13.8689 21.2788 13.6199 20.9503 13.3559 20.6413V22.6843H12.6629V19.5658H13.2344C13.3334 19.6648 13.4429 19.7863 13.5629 19.9303C13.6829 20.0743 13.8044 20.2288 13.9274 20.3938C14.0534 20.5558 14.1779 20.7253 14.3009 20.9023C14.4239 21.0763 14.5394 21.2443 14.6474 21.4063V19.5658H15.3449V22.6843H14.7554Z" fill="white"/></g><defs><clipPath id="clip0_34589_443170"><rect width="24" height="24" fill="white" transform="translate(0 0.5)"/></clipPath></defs></svg>