<svg xmlns="http://www.w3.org/2000/svg" viewBox="0 0 32 32" fill="none" xmlns:v="https://vecta.io/nano"><g clip-path="url(#A)"><path d="M26 0H6a6 6 0 0 0-6 6v17.5h32V6a6 6 0 0 0-6-6z" fill="#0364b9"/><g fill="#0a559e"><path d="M6 0a6 6 0 0 0-6 6v.174l29.914-4.722C28.864.547 27.496 0 26 0H6zm26 6c0-1.504-.553-2.88-1.468-3.933L26.603 23.5H32V6z"/></g><path d="M0 23h32v3a6 6 0 0 1-6 6H6a6 6 0 0 1-6-6v-3z" fill="#2a3052"/><g fill="#fff"><path d="M7.346 9.684l.492.984.588 1.26.612 1.38.564 1.332.564-1.332.6-1.38.588-1.26.504-.984h1.704l.216 1.86.18 2.136.144 2.22.12 2.1h-1.824l-.096-2.64-.18-2.88-.48 1.116-.528 1.224-.492 1.176-.408.948H8.906l-.408-.948-.504-1.176-.516-1.224-.48-1.116-.18 2.88L6.722 18H4.898l.108-2.1.144-2.22.18-2.136.228-1.86h1.788zm14.013 0v1.596h-2.508V18h-1.872v-6.72h-2.508V9.684h6.888zm3.963 5.868a1.18 1.18 0 0 0-.156-.612c-.104-.184-.284-.336-.54-.456s-.6-.212-1.032-.276-.976-.096-1.632-.096l.216-2.268.132-2.16h4.5v1.5h-3l-.06.84-.06.696c1.168.08 2.028.356 2.58.828.56.464.84 1.112.84 1.944a2.76 2.76 0 0 1-.204 1.068c-.136.328-.34.612-.612.852s-.616.428-1.032.564c-.408.136-.888.204-1.44.204-.216 0-.444-.016-.684-.048a6.41 6.41 0 0 1-.684-.108l-.588-.132a2.31 2.31 0 0 1-.408-.144l.324-1.476a5.68 5.68 0 0 0 .792.264 5.02 5.02 0 0 0 1.176.12c.552 0 .952-.108 1.2-.324.248-.224.372-.484.372-.78zm-13.45 13.32a1.44 1.44 0 0 0 .324-.03.69.69 0 0 0 .21-.09.32.32 0 0 0 .108-.138.48.48 0 0 0 .03-.174c0-.136-.064-.248-.192-.336s-.348-.19-.66-.294l-.408-.162c-.136-.064-.258-.142-.366-.234a1.17 1.17 0 0 1-.264-.342 1.09 1.09 0 0 1-.102-.492 1.19 1.19 0 0 1 .108-.516 1.1 1.1 0 0 1 .306-.396c.132-.108.292-.19.48-.246a2.22 2.22 0 0 1 .636-.09 2.59 2.59 0 0 1 .726.09c.204.06.372.126.504.198l-.27.738a2.33 2.33 0 0 0-.39-.156c-.14-.048-.31-.072-.51-.072-.224 0-.386.032-.486.096s-.144.154-.144.282a.33.33 0 0 0 .054.192c.036.052.086.1.15.144s.144.078.228.114l.288.102.564.24c.16.076.292.166.396.27a.97.97 0 0 1 .24.366 1.47 1.47 0 0 1 .078.51c0 .388-.136.69-.408.906s-.682.318-1.23.318a3.13 3.13 0 0 1-.498-.036 3.02 3.02 0 0 1-.396-.078c-.112-.032-.21-.066-.294-.102l-.204-.102.264-.744a2.5 2.5 0 0 0 .456.186 2.5 2.5 0 0 0 .672.078zm5.325-3.444v.798h-1.254v3.36h-.936v-3.36h-1.254v-.798h3.444zm1.537 3.396l.15.012h.21c.468 0 .814-.118 1.038-.354s.342-.562.342-.978c0-.436-.108-.766-.324-.99s-.558-.336-1.026-.336l-.198.006c-.068 0-.132.004-.192.012v2.628zm2.706-1.32c0 .36-.056.674-.168.942a1.73 1.73 0 0 1-.48.666c-.204.176-.454.308-.75.396a3.49 3.49 0 0 1-.996.132c-.168 0-.364-.008-.588-.024a4.51 4.51 0 0 1-.66-.084v-4.05a5.15 5.15 0 0 1 .672-.078l.606-.024c.356 0 .678.04.966.12a1.98 1.98 0 0 1 .75.378 1.68 1.68 0 0 1 .48.66c.112.268.168.59.168.966z"/></g></g><defs><clipPath id="A"><path fill="#fff" d="M0 0h32v32H0z"/></clipPath></defs></svg>