<svg width="33" height="32" fill="none" xmlns="http://www.w3.org/2000/svg"><path opacity=".01" fill="#fff" stroke="#979797" d="M0 0h32v32H0z"/><path fill-rule="evenodd" clip-rule="evenodd" d="M22.226 25.243v1.423H20.45v-1.419c-1.309-.242-2.13-1.05-2.19-2.223h1.54c.076.616.696 1.012 1.594 1.012.827 0 1.414-.401 1.414-.973 0-.487-.38-.764-1.314-.973l-.99-.212c-1.388-.29-2.069-1.012-2.069-2.173 0-1.16.775-1.997 2.005-2.272v-1.434h1.776v1.437c1.202.267 2.002 1.087 2.042 2.189H22.77c-.075-.6-.635-1.003-1.404-1.003-.769 0-1.323.37-1.323.95 0 .469.362.73 1.255.929l.917.194c1.53.322 2.19.974 2.19 2.163 0 1.273-.818 2.125-2.18 2.385zm-11.56-3.91c0 5.891 4.776 10.666 10.667 10.666S32 27.224 32 21.333s-4.776-10.667-10.667-10.667-10.666 4.776-10.666 10.667z" fill="#85ACAF"/><mask id="prefix__a" maskUnits="userSpaceOnUse" x="0" y="0" width="33" height="11"><path fill-rule="evenodd" clip-rule="evenodd" d="M0 0h32v10.667H0V0z" fill="#fff"/></mask><g mask="url(#prefix__a)"><path fill-rule="evenodd" clip-rule="evenodd" d="M29.633 3.555L24.9 0v3.555H0V7.11h24.9v3.557l4.734-3.557L32 5.333l-2.367-1.778z" fill="#FF444F"/></g><path fill-rule="evenodd" clip-rule="evenodd" d="M15.621 14.22l-4.73-3.554v3.553H0v3.555h10.89v3.555l4.733-3.555 2.365-1.777-2.367-1.778z" fill="#FF444F"/></svg>