<svg width="299" height="197" xmlns="http://www.w3.org/2000/svg"><g fill="none" fill-rule="evenodd"><path fill="#F1F2F2" d="M299 0v197H0V0z"/><path d="M297.013 1.98H1.987v193.04h295.026V1.98zM299 197H0V0h299v197z" fill="#C2C2C2" fill-rule="nonzero"/><g transform="translate(0 27)"><path fill="#2A3052" fill-rule="nonzero" d="M247.483 14.207h1.01v136.068h-1.01z"/><path d="M2.94 25.948v-1.223h293.571v1.223H2.941zm0 40.897v-1.223h293.571v1.223H2.941zm0 40.894v-1.224h293.571v1.224H2.941zm0 40.857v-1.223h293.571v1.223H2.941zM37.786 4.908h1.223v161.093h-1.223V4.908zm37.161 0h1.224v161.093h-1.224V4.908zm37.123 0h1.223v161.093h-1.223V4.908zm37.16 0h1.223v161.093h-1.223V4.908zm37.122 0h1.224v161.093h-1.224V4.908zm37.123 0h1.223v161.093h-1.223V4.908zM2.94 87.273v-1.224h293.57v1.224H2.941z" fill="#DFDEDE" fill-rule="nonzero"/><path d="M2.94 42.17v-1.144h293.571v1.144H2.941zm0 80.409v-1.145h293.571v1.145H2.941z" fill="#15212D" fill-rule="nonzero"/><path fill="#C2C2C2" fill-rule="nonzero" d="M.82 3.371V.925h297.812V3.37z"/><path d="M21.478 84.14a.758.758 0 0 1-.67-1.359l9.063-4.461a.758.758 0 0 1 .67 1.36l-9.063 4.46zm18.125-8.922a.758.758 0 0 1-.669-1.36l9.063-4.46a.758.758 0 1 1 .67 1.359l-9.064 4.461zm18.126-8.922a.758.758 0 1 1-.669-1.36l9.063-4.46a.758.758 0 0 1 .669 1.359l-9.063 4.46zm18.126-8.922a.758.758 0 1 1-.67-1.36l9.064-4.461a.758.758 0 0 1 .669 1.36l-9.063 4.46zm18.122-6.579a.758.758 0 1 1 .154-1.507l10.05 1.024a.758.758 0 1 1-.154 1.508l-10.05-1.025zm20.1 2.049a.758.758 0 1 1 .153-1.508l10.049 1.024a.758.758 0 1 1-.154 1.508l-10.049-1.024zm20.098 2.048a.758.758 0 1 1 .153-1.508l10.05 1.024a.758.758 0 1 1-.154 1.508l-10.05-1.024zm20.098 2.048a.758.758 0 1 1 .154-1.508l10.05 1.024a.758.758 0 1 1-.154 1.508l-10.05-1.024zm29.456-1.538a.758.758 0 1 1 .59 1.395l-6.11 2.582-3.837-.391a.758.758 0 1 1 .154-1.507l3.45.351 5.753-2.43zm9.894-2.536a.758.758 0 1 1-.59-1.396l9.305-3.932a.758.758 0 1 1 .59 1.396l-9.305 3.932zm18.61-7.864a.758.758 0 1 1-.59-1.395l9.305-3.932a.758.758 0 0 1 .59 1.396l-9.305 3.931zm18.61-7.863a.758.758 0 1 1-.59-1.396l9.304-3.932a.758.758 0 0 1 .59 1.396l-9.305 3.932z" fill="#6E7287" fill-rule="nonzero"/><path d="M20.644 84.277a.758.758 0 1 1-.357-1.472l9.817-2.38a.758.758 0 0 1 .357 1.472l-9.817 2.38zm19.633-4.761a.758.758 0 1 1-.357-1.473l9.817-2.38a.758.758 0 1 1 .357 1.472l-9.817 2.38zm19.634-4.762a.758.758 0 1 1-.357-1.472L69.37 70.9a.758.758 0 1 1 .357 1.472l-9.817 2.381zm19.634-4.761a.758.758 0 0 1-.358-1.473l9.817-2.38a.758.758 0 0 1 .357 1.472l-9.816 2.38zm19.322-.272a.758.758 0 0 1 .334-1.478l9.853 2.229a.758.758 0 1 1-.335 1.478l-9.852-2.23zm19.705 4.458a.758.758 0 1 1 .334-1.478l9.852 2.229a.758.758 0 1 1-.334 1.478l-9.852-2.23zm19.704 4.458a.758.758 0 1 1 .335-1.478l9.852 2.229a.758.758 0 1 1-.334 1.478l-9.853-2.23zm19.705 4.458a.758.758 0 1 1 .335-1.478l9.852 2.229a.758.758 0 1 1-.334 1.478l-9.853-2.23zm28.698 4.939l-.26-.013.13-.016.13.029zm.954-.164a.758.758 0 0 1 .186 1.504l-1.346.167-8.787-1.988a.758.758 0 0 1 .334-1.478l8.53 1.93 1.083-.135zm10.211.26a.758.758 0 0 1-.186-1.503l10.024-1.243a.758.758 0 1 1 .187 1.504l-10.025 1.243zm20.05-2.485a.758.758 0 1 1-.187-1.504l10.024-1.243a.758.758 0 0 1 .187 1.504l-10.025 1.243zm20.048-2.486a.758.758 0 0 1-.186-1.504l10.025-1.243a.758.758 0 1 1 .186 1.504l-10.025 1.243zM21.035 84.334a.758.758 0 1 1 .526-1.42l9.472 3.508a.758.758 0 1 1-.526 1.42l-9.472-3.508zm18.944 7.017a.758.758 0 0 1 .527-1.42l9.472 3.508a.758.758 0 1 1-.526 1.42l-9.473-3.508zm18.945 7.018a.758.758 0 0 1 .527-1.421l9.472 3.508a.758.758 0 1 1-.526 1.421l-9.473-3.508zm18.945 7.017a.758.758 0 0 1 .526-1.421l9.473 3.509a.758.758 0 0 1-.527 1.42l-9.472-3.508zm28.945 6.954a.758.758 0 0 1 .093 1.512l-5.3.327-4.793-1.776a.758.758 0 1 1 .526-1.42l4.494 1.664 4.98-.307zm10.175.89a.758.758 0 1 1-.093-1.512l10.082-.621a.758.758 0 1 1 .093 1.512l-10.082.622zm20.165-1.242a.758.758 0 0 1-.094-1.513l10.083-.621a.758.758 0 0 1 .093 1.512l-10.082.622zm20.164-1.244a.758.758 0 1 1-.093-1.512l10.082-.621a.758.758 0 1 1 .093 1.512l-10.082.621zm20.164-1.243a.758.758 0 1 1-.093-1.512l8.658-.534 1.642.688a.758.758 0 0 1-.585 1.398l-1.316-.552-8.306.512zm18.939 3.943a.758.758 0 0 1 .585-1.398l9.317 3.903a.758.758 0 1 1-.585 1.398l-9.317-3.903zm18.633 7.806a.758.758 0 0 1 .586-1.398l9.317 3.903a.758.758 0 0 1-.586 1.397l-9.317-3.902zm18.634 7.805a.758.758 0 1 1 .586-1.397l9.317 3.903a.758.758 0 0 1-.586 1.397l-9.317-3.903z" fill="#6E7287" fill-rule="nonzero"/><ellipse fill="#FFF" opacity=".6" cx="247.621" cy="28.758" rx="8.219" ry="8.518"/><ellipse fill="#FFF" opacity=".6" cx="247.621" cy="81.023" rx="8.219" ry="8.518"/><ellipse fill="#FFF" opacity=".6" cx="248.632" cy="134.294" rx="8.219" ry="8.518"/><path d="M247.621 38.5c-5.225 0-9.442-4.371-9.442-9.742 0-5.37 4.217-9.741 9.442-9.741 5.226 0 9.443 4.37 9.443 9.741 0 5.37-4.217 9.742-9.443 9.742zm0-2.447c3.854 0 6.997-3.256 6.997-7.295 0-4.038-3.143-7.295-6.997-7.295-3.853 0-6.996 3.257-6.996 7.295 0 4.039 3.143 7.295 6.996 7.295zm0 54.712c-5.225 0-9.442-4.371-9.442-9.742 0-5.37 4.217-9.741 9.442-9.741 5.226 0 9.443 4.37 9.443 9.741 0 5.37-4.217 9.742-9.443 9.742zm0-2.447c3.854 0 6.997-3.256 6.997-7.295 0-4.038-3.143-7.295-6.997-7.295-3.853 0-6.996 3.257-6.996 7.295 0 4.039 3.143 7.295 6.996 7.295zm1.011 55.717c-5.225 0-9.443-4.37-9.443-9.741 0-5.37 4.218-9.742 9.443-9.742s9.442 4.371 9.442 9.742c0 5.37-4.217 9.741-9.442 9.741zm0-2.446c3.854 0 6.996-3.257 6.996-7.295 0-4.039-3.142-7.295-6.996-7.295-3.854 0-6.997 3.256-6.997 7.295 0 4.038 3.143 7.295 6.997 7.295z" fill="#E88024" fill-rule="nonzero"/><ellipse fill="#FFF" opacity=".916" cx="24.382" cy="82.028" rx="8.219" ry="8.518"/><path d="M24.382 91.77c-5.225 0-9.443-4.371-9.443-9.742 0-5.37 4.218-9.741 9.443-9.741s9.442 4.37 9.442 9.741c0 5.371-4.217 9.742-9.442 9.742zm0-2.447c3.854 0 6.996-3.256 6.996-7.295 0-4.038-3.142-7.295-6.996-7.295-3.854 0-6.997 3.257-6.997 7.295 0 4.039 3.143 7.295 6.997 7.295z" fill="#E88024" fill-rule="nonzero"/></g><path fill="#2A3052" d="M258.866 106.284v-1.52h34.966v1.52z"/><path d="M277.05 117.926h-5.174l.13-.79 3.093-3.106c.55-.555.933-.997 1.146-1.327.213-.33.348-.667.407-1.011.07-.438.017-.799-.158-1.084-.176-.285-.448-.428-.815-.428-.52 0-.936.153-1.25.46-.315.307-.515.73-.601 1.269h-1.078l-.012-.035c.105-.762.431-1.386.978-1.873.547-.486 1.248-.729 2.104-.729.687 0 1.215.226 1.582.677.367.45.496 1.018.387 1.702a3.348 3.348 0 0 1-.595 1.403c-.319.451-.757.95-1.316 1.497l-2.46 2.438.011.035h3.768l-.147.902zm-7.246 46.321c.053-.33-.005-.606-.175-.83-.17-.224-.479-.425-.926-.604-.638-.219-1.1-.51-1.386-.876-.287-.365-.381-.852-.285-1.46.097-.613.33-1.101.701-1.464.37-.364.839-.581 1.405-.653l.188-1.187h.827l-.194 1.198c.527.093.912.354 1.155.784.244.43.31.997.199 1.703h-1.031c.079-.505.043-.904-.108-1.196-.15-.291-.408-.437-.773-.437-.362 0-.659.112-.892.335-.232.224-.377.524-.435.9-.057.358-.004.642.159.851.163.21.486.411.97.605.644.236 1.102.53 1.374.883s.36.832.263 1.437c-.104.637-.353 1.133-.749 1.488-.396.354-.901.564-1.517.628l-.161 1.031h-.828l.162-1.03c-.541-.072-.965-.303-1.273-.691-.308-.389-.401-.955-.28-1.7h1.037c-.093.573-.037.971.17 1.195.205.224.494.336.867.336.404 0 .745-.112 1.023-.336.277-.224.448-.527.513-.91zm7.02-.962c-.215 1.064-.574 1.845-1.077 2.345-.503.5-1.122.749-1.856.749-.67 0-1.172-.271-1.506-.814-.335-.542-.404-1.302-.207-2.28l.37-1.853c.212-1.06.571-1.841 1.08-2.344a2.543 2.543 0 0 1 1.858-.755c.674 0 1.175.272 1.504.817.33.544.398 1.305.204 2.282l-.37 1.853zm-.623-2.078c.143-.72.138-1.24-.014-1.56-.152-.321-.441-.481-.867-.481-.39 0-.737.174-1.04.523-.302.35-.52.855-.652 1.518l-.457 2.293c-.143.72-.137 1.242.017 1.566.153.324.444.486.87.486.39 0 .735-.176 1.034-.527.299-.35.516-.859.652-1.525l.457-2.293z" fill="#2A3052" fill-rule="nonzero"/><path d="M18.355 14.051h-1.231v4.614h-1.78V8.001h1.78v4.519h1.018L21.489 8h2.11l-3.882 5.091 4.182 5.574h-2.175l-3.37-4.614h.001zm5.888.578c0-1.176.322-2.143.967-2.9.654-.757 1.54-1.135 2.659-1.135 1.137 0 2.028.378 2.673 1.135.65.752.974 1.719.974 2.9v.154c0 1.192-.325 2.163-.974 2.915-.645.747-1.53 1.12-2.659 1.12-1.133 0-2.024-.375-2.673-1.127-.645-.752-.967-1.721-.967-2.908v-.154zm1.78.154c0 .772.151 1.402.454 1.89.298.483.767.725 1.406.725.62 0 1.084-.242 1.392-.725.312-.488.469-1.118.469-1.89v-.154c0-.756-.157-1.379-.47-1.867-.307-.493-.775-.74-1.405-.74-.62 0-1.084.247-1.392.74-.303.493-.454 1.115-.454 1.867v.154zM39.58 10.74v7.925h-1.772v-6.49H35.5v1.942c0 1.562-.222 2.71-.666 3.446-.444.735-1.206 1.102-2.285 1.102h-.381l.007-1.501h.264c.503 0 .842-.225 1.018-.674.176-.45.264-1.24.264-2.373V10.74h5.86-.001zm8.357 0v7.925h-1.772v-6.49h-2.308v1.942c0 1.562-.222 2.71-.666 3.446-.444.735-1.206 1.102-2.285 1.102h-.381l.007-1.501h.264c.503 0 .842-.225 1.018-.674.176-.45.264-1.24.264-2.373V10.74h5.859zm8.73 6.658c.435 0 .801-.128 1.1-.385.297-.256.446-.577.446-.963h1.611l.015.044c.024.742-.277 1.382-.905 1.92-.627.536-1.383.805-2.267.805-1.167 0-2.061-.376-2.684-1.128-.622-.752-.934-1.704-.934-2.857v-.256c0-1.147.312-2.098.934-2.853.623-.754 1.517-1.131 2.684-1.131.953 0 1.725.277 2.319.831.593.554.88 1.259.86 2.113l-.014.044h-1.62a1.55 1.55 0 0 0-.428-1.106c-.285-.303-.658-.454-1.117-.454-.668 0-1.142.243-1.42.729-.279.486-.418 1.095-.418 1.827v.256c0 .748.14 1.362.418 1.842.278.481.752.722 1.42.722zm11.236 1.267h-1.78v-6.49h-3.09v6.49h-1.78V10.74h6.65v7.925zm8.804-3.699c0 1.153-.271 2.083-.813 2.79-.542.709-1.297 1.063-2.264 1.063-.449 0-.847-.08-1.193-.242a2.457 2.457 0 0 1-.894-.71v3.845h-1.78V10.74h1.502l.175.996c.254-.37.56-.654.92-.85.359-.195.775-.292 1.248-.292.977 0 1.737.387 2.282 1.16.544.775.817 1.794.817 3.058v.154zm-1.773-.154c0-.81-.152-1.473-.458-1.988-.305-.515-.76-.773-1.366-.773-.37 0-.686.08-.944.238-.26.159-.467.38-.623.663v3.582c.156.278.364.492.623.64.258.15.578.224.959.224.605 0 1.058-.223 1.359-.67.3-.447.45-1.034.45-1.762v-.154zm6.724 4.007c-1.123 0-2.018-.368-2.685-1.102-.666-.735-1-1.679-1-2.831v-.293c0-1.153.331-2.108.993-2.868.662-.759 1.49-1.136 2.487-1.131 1.069 0 1.888.323 2.457.97s.853 1.515.853 2.604v1.047h-4.944l-.014.037c.029.63.213 1.145.553 1.545.339.4.809.6 1.41.6.478 0 .888-.058 1.23-.175.342-.117.671-.286.989-.505l.571 1.164c-.298.264-.693.486-1.186.667-.494.18-1.065.27-1.714.27v.001zm-.205-6.797c-.44 0-.801.174-1.084.524-.284.349-.46.792-.528 1.329l.015.037h3.142v-.184c0-.502-.128-.913-.384-1.23-.257-.317-.644-.476-1.161-.476zm4.753 5.215c.44-.489.757-.983.952-1.483.196-.5.318-1.232.366-2.194l.081-2.82h5.5v6.504h1.1l-.147 3.78h-1.626v-2.359h-5.083v2.358h-1.634l-.16-3.786h.651zm3.098-3.677c-.044.82-.154 1.533-.33 2.139-.175.605-.405 1.12-.688 1.545h3.047v-4.973h-1.992l-.037 1.289z" fill="#000" fill-rule="nonzero"/><path d="M42.608 58.915l1.563-7.82h2.406c.713 0 1.26.179 1.644.537.383.358.504.884.365 1.579a1.89 1.89 0 0 1-.494.95c-.26.269-.58.471-.935.591.42.1.717.332.894.696.178.363.218.783.121 1.26-.154.762-.478 1.32-.972 1.675s-1.12.532-1.88.532h-2.712zm1.767-3.669l-.564 2.842h1.676c.404 0 .758-.121 1.06-.363.303-.242.5-.577.589-1.007.093-.487.067-.854-.078-1.101-.145-.247-.429-.37-.852-.37h-1.831v-.001zm.166-.827h1.585c.322 0 .622-.11.9-.33.277-.22.453-.52.529-.9.09-.447.036-.77-.159-.967-.195-.196-.524-.295-.985-.295h-1.37l-.5 2.492zm6.838 4.609c-.73 0-1.283-.272-1.657-.814-.374-.543-.493-1.24-.357-2.092l.037-.236c.136-.86.476-1.556 1.018-2.09.543-.533 1.129-.8 1.76-.8.712 0 1.222.238 1.53.714.308.477.4 1.105.28 1.886l-.108.66H50.38c-.079.595-.024 1.067.164 1.418s.509.526.964.526c.586.004 1.155-.2 1.606-.575l.295.688a2.68 2.68 0 0 1-.838.51c-.34.137-.737.205-1.192.205zm.671-5.2c-.3 0-.592.15-.873.452-.28.3-.482.673-.604 1.117l.016.032h2.39l.022-.14c.068-.433.027-.785-.124-1.055-.15-.27-.426-.406-.827-.406zm7.633 2.509c-.18.895-.481 1.567-.906 2.017-.424.449-.97.674-1.64.674-.312 0-.592-.06-.84-.178a1.574 1.574 0 0 1-.616-.515l-.564 2.814H54.08l1.606-8.046h.892l-.038.575a2.138 2.138 0 0 1 1.585-.682c.627 0 1.091.31 1.394.93.302.619.364 1.385.185 2.298l-.021.113zm-1.016-.113c.136-.695.116-1.263-.061-1.705-.178-.443-.5-.664-.97-.664-.24 0-.462.07-.666.21-.204.14-.388.331-.553.574l-.57 2.842c.094.225.233.402.42.529.186.127.424.19.714.19.426 0 .78-.167 1.063-.502.283-.335.484-.788.602-1.361l.021-.113zm4.184-.978l1.45-2.143h1.21l-2.203 2.874 1.316 2.938h-1.187l-.8-2.197-1.504 2.197h-1.198l2.261-2.938-1.283-2.874h1.192l.746 2.143zm7.182 3.669h-1.042l.494-2.47h-2.337l-.494 2.47h-1.036l1.16-5.812h1.036l-.505 2.514h2.337l.505-2.514h1.042l-1.16 5.812zm6.128-5.812h1.042l-1.16 5.812h-1.042l.8-4.028-.027-.017-3.12 4.045h-1.032l1.16-5.812h1.032l-.806 4.045.027.016 3.126-4.06v-.001zm6.01 0h1.042l-1.16 5.812h-1.041l.8-4.028-.026-.017-3.121 4.045h-1.031l1.16-5.812h1.031l-.806 4.045.027.016 3.126-4.06-.001-.001zm.725-2.39l.011.032c-.054.43-.235.772-.545 1.026-.31.255-.697.382-1.163.382-.444 0-.784-.133-1.02-.398-.237-.265-.314-.603-.231-1.015l.01-.027h.795c-.04.244-.017.437.067.58.085.143.245.215.481.215.204.006.4-.076.54-.225.141-.15.232-.34.271-.57h.784zm6.65 2.723c.662 0 1.16.25 1.49.747.332.498.436 1.126.314 1.885l-.021.118c-.14.867-.465 1.557-.975 2.07-.51.515-1.143.772-1.899.772-.72 0-1.262-.268-1.627-.803-.365-.536-.482-1.215-.35-2.039l.006-.037.118-.715c.187-1.188.555-2.111 1.107-2.768.551-.657 1.223-1.068 2.014-1.233.415-.082.726-.18.932-.295.206-.115.328-.303.368-.564h.79l.01.032c-.093.655-.292 1.073-.596 1.254-.304.18-.788.332-1.45.454-.448.08-.87.27-1.225.553-.361.286-.625.702-.79 1.246l.017.027a2.83 2.83 0 0 1 .808-.508c.31-.13.63-.196.959-.196zm-.339.827c-.436 0-.803.175-1.1.524-.298.35-.486.776-.565 1.281l-.021.118c-.1.605-.065 1.092.107 1.461.172.37.49.553.956.553.44 0 .812-.191 1.115-.574.302-.383.5-.863.593-1.44l.022-.118c.086-.537.04-.972-.14-1.305-.179-.333-.501-.5-.967-.5zm6 4.652a4.35 4.35 0 0 1 .048-.779 3.33 3.33 0 0 1-.824.637c-.31.17-.62.255-.932.255-.53 0-.921-.159-1.174-.476-.252-.317-.323-.74-.212-1.27.115-.59.406-1.034.873-1.33.467-.295 1.066-.442 1.797-.442h.993l.113-.575c.072-.362.032-.637-.118-.825-.15-.188-.401-.282-.752-.282-.3 0-.573.089-.816.266-.244.178-.389.384-.436.62h-.982l-.011-.032c.071-.447.34-.84.805-1.179.466-.338 1.021-.507 1.666-.507.576 0 1.032.17 1.366.513.335.342.442.82.32 1.437l-.559 2.798c-.046.218-.078.42-.096.607a2.967 2.967 0 0 0 0 .564h-1.07.001zm-1.375-.774c.29 0 .585-.084.886-.252.301-.168.534-.367.698-.596l.215-1.07h-1.026c-.354 0-.673.11-.956.329-.283.218-.45.469-.505.752-.057.275-.03.484.081.625.111.142.313.212.607.212zm8.916-1.804c-.18.895-.48 1.567-.905 2.017-.424.449-.971.674-1.64.674-.312 0-.593-.06-.842-.178a1.574 1.574 0 0 1-.615-.515l-.563 2.814h-1.037l1.606-8.046h.89l-.037.575a2.138 2.138 0 0 1 1.584-.682c.627 0 1.092.31 1.394.93.303.619.364 1.385.185 2.298l-.021.113h.001zm-1.015-.113c.136-.695.115-1.263-.062-1.705-.177-.443-.5-.664-.97-.664-.24 0-.461.07-.665.21a2.13 2.13 0 0 0-.554.574l-.569 2.842c.093.225.233.402.419.529.186.127.424.19.714.19.426 0 .78-.167 1.064-.502.283-.335.483-.788.601-1.361l.022-.113zm3.604-1.123h1.316c.598 0 1.05.178 1.356.532.306.355.405.806.298 1.354-.122.594-.393 1.064-.814 1.41-.42.345-.955.518-1.603.518h-2.352l1.16-5.812h1.042l-.403 1.998zm-.161.828l-.43 2.159h1.31c.316 0 .579-.104.79-.312.211-.208.347-.458.408-.752.061-.308.033-.567-.083-.779-.116-.21-.345-.316-.685-.316h-1.31zm6.273 3.099c-.73 0-1.283-.272-1.657-.814-.374-.543-.493-1.24-.357-2.092l.038-.236c.136-.86.475-1.556 1.017-2.09.543-.533 1.13-.8 1.76-.8.712 0 1.222.238 1.53.714.308.477.401 1.105.28 1.886l-.108.66h-3.502c-.079.595-.024 1.067.164 1.418s.51.526.964.526c.586.004 1.155-.2 1.606-.575l.295.688c-.245.22-.529.393-.837.51-.34.137-.738.205-1.193.205zm.672-5.2c-.301 0-.592.15-.873.452-.281.3-.483.673-.605 1.117l.017.032h2.39l.021-.14c.068-.433.027-.785-.123-1.055-.15-.27-.426-.406-.827-.406zm7.632 2.509c-.18.895-.48 1.567-.905 2.017-.425.449-.971.674-1.641.674-.312 0-.592-.06-.84-.178a1.574 1.574 0 0 1-.616-.515l-.564 2.814h-1.036l1.606-8.046h.891l-.037.575a2.138 2.138 0 0 1 1.584-.682c.627 0 1.091.31 1.394.93.303.619.364 1.385.185 2.298l-.021.113zm-1.015-.113c.136-.695.115-1.263-.062-1.705-.177-.443-.5-.664-.97-.664-.24 0-.461.07-.666.21-.204.14-.388.331-.553.574l-.57 2.842c.094.225.234.402.42.529.186.127.424.19.714.19.426 0 .78-.167 1.064-.502.283-.335.483-.788.601-1.361l.022-.113zM47.129 168.266h-1.036l.687-3.453h-3.448l-.688 3.453h-1.036l1.563-7.82h1.036l-.709 3.534h3.449l.709-3.534h1.036l-1.563 7.82zm6.252-5.811h1.042l-1.16 5.811h-1.041l.8-4.028-.026-.016-3.121 4.044h-1.033l1.16-5.811h1.031l-.806 4.044.027.016 3.126-4.06h.001zm6.241 3.292h-.617l-.5 2.52h-1.042l.5-2.52h-.607l-1.864 2.52h-1.267l-.017-.028 2.498-3.067-1.198-2.717h1.252l.79 2.395h.595l.478-2.395h1.042l-.478 2.395h.597l1.75-2.395h1.214l.011.027-2.25 2.69 1.273 3.094h-1.306l-.854-2.519zm7.53 2.52h-1.04l.494-2.471h-2.337l-.494 2.47h-1.036l1.16-5.811h1.036l-.504 2.513h2.336l.505-2.513h1.042l-1.16 5.811-.002.001zm6.13-5.812h1.041l-1.16 5.811h-1.042l.8-4.028-.027-.016-3.12 4.044h-1.032l1.16-5.811h1.031l-.806 4.044.027.016 3.126-4.06h.002zm6.01 0h1.041l-1.16 5.811h-1.041l.8-4.028-.026-.016-3.12 4.044h-1.034l1.16-5.811h1.031l-.805 4.044.026.016 3.126-4.06h.002zm.725-2.39l.01.032c-.053.43-.235.771-.545 1.026-.31.254-.697.381-1.163.381-.444 0-.784-.132-1.02-.397-.237-.265-.314-.604-.231-1.016l.01-.026h.795c-.039.243-.017.436.068.58.084.143.244.214.48.214.204.006.4-.076.54-.225.142-.15.232-.34.271-.57h.785v.001zm6.649 2.723c.662 0 1.16.249 1.49.746.332.498.436 1.126.315 1.886l-.022.118c-.14.866-.464 1.556-.975 2.07-.51.514-1.143.771-1.898.771-.72 0-1.263-.268-1.628-.803s-.481-1.215-.349-2.038l.005-.038.119-.714c.186-1.19.555-2.112 1.106-2.77.551-.656 1.223-1.067 2.014-1.232.416-.082.726-.18.932-.295.206-.115.329-.303.368-.564h.79l.01.032c-.093.655-.292 1.073-.596 1.254-.304.181-.788.332-1.45.454-.448.08-.87.27-1.225.553-.361.287-.625.702-.79 1.246l.017.027a2.83 2.83 0 0 1 .808-.507c.31-.131.63-.196.959-.196zm-.338.827c-.437 0-.804.174-1.102.524a2.527 2.527 0 0 0-.563 1.28l-.022.119c-.1.605-.064 1.092.107 1.46.172.37.491.554.957.554.44 0 .811-.192 1.114-.575.303-.383.5-.863.594-1.44l.021-.117c.086-.538.04-.973-.14-1.306-.179-.333-.501-.5-.966-.5v.001zm6 4.651c0-.175.003-.32.01-.432.007-.113.02-.228.037-.347a3.33 3.33 0 0 1-.824.637c-.31.17-.62.255-.932.255-.53 0-.921-.158-1.174-.475-.252-.317-.323-.74-.212-1.27.115-.591.406-1.035.873-1.33.467-.295 1.066-.443 1.797-.443h.993l.113-.575c.072-.361.032-.636-.118-.824-.15-.188-.401-.282-.752-.282-.3 0-.573.088-.816.266-.244.177-.389.384-.435.62h-.983l-.011-.032c.072-.448.34-.84.806-1.18.465-.338 1.02-.507 1.665-.507.576 0 1.032.171 1.367.513.334.342.44.821.32 1.437l-.56 2.798a5.588 5.588 0 0 0-.096.607 2.967 2.967 0 0 0 0 .564h-1.069.001zm-1.376-.773c.29 0 .586-.084.886-.253.301-.168.534-.367.699-.596l.214-1.069h-1.026c-.354 0-.673.11-.956.328-.282.218-.45.469-.504.752-.058.276-.03.484.08.626.111.141.313.212.607.212zm8.916-1.805c-.179.895-.48 1.568-.905 2.017-.424.45-.971.674-1.64.674a1.95 1.95 0 0 1-.841-.177 1.574 1.574 0 0 1-.615-.516l-.564 2.815h-1.037l1.606-8.046h.892l-.038.574c.215-.222.456-.39.722-.507.267-.117.555-.175.862-.175.627 0 1.092.31 1.394.93.303.619.365 1.385.186 2.298l-.022.113zm-1.015-.113c.136-.694.115-1.263-.062-1.705-.177-.442-.5-.663-.97-.663-.24 0-.461.07-.665.21-.204.139-.389.33-.554.574l-.569 2.841c.093.226.233.402.42.53.185.126.423.19.713.19.427 0 .781-.168 1.064-.502.283-.335.483-.789.601-1.362l.022-.113zm3.604-1.122h1.316c.598 0 1.05.177 1.356.531.306.355.406.806.298 1.354-.122.594-.393 1.064-.814 1.41-.42.345-.955.518-1.603.518h-2.352l1.16-5.811h1.042l-.403 1.998zm-.161.827l-.43 2.16h1.31c.316 0 .579-.105.79-.312a1.44 1.44 0 0 0 .408-.752c.061-.308.034-.568-.083-.78-.116-.21-.344-.316-.685-.316h-1.31zm6.273 3.099c-.73 0-1.283-.271-1.657-.814-.374-.542-.493-1.24-.357-2.092l.038-.236c.136-.86.475-1.556 1.018-2.09.542-.533 1.128-.8 1.759-.8.712 0 1.222.238 1.53.715.308.476.401 1.104.28 1.885l-.108.66h-3.502c-.079.595-.024 1.068.164 1.418.188.351.51.527.964.527.315 0 .61-.053.886-.159.276-.105.516-.244.72-.416l.296.688a2.68 2.68 0 0 1-.838.51c-.34.136-.738.204-1.193.204zm.672-5.2c-.301 0-.592.151-.873.452-.281.3-.483.673-.604 1.117l.016.032h2.39l.021-.14c.068-.433.027-.784-.123-1.055-.15-.27-.426-.405-.827-.405v-.001zm7.632 2.51c-.18.894-.48 1.567-.905 2.016-.424.45-.971.674-1.64.674-.312 0-.593-.06-.842-.177a1.574 1.574 0 0 1-.615-.516l-.563 2.815h-1.037l1.606-8.046h.891l-.037.574c.215-.222.456-.39.722-.507.267-.117.554-.175.862-.175.627 0 1.092.31 1.394.93.303.619.364 1.385.185 2.298l-.021.113v.001zm-1.015-.114c.136-.694.115-1.263-.062-1.705-.177-.442-.5-.663-.97-.663-.24 0-.461.07-.665.21a2.1 2.1 0 0 0-.554.574l-.569 2.841c.093.226.233.402.419.53.186.126.424.19.714.19.426 0 .78-.168 1.064-.502.283-.335.483-.789.601-1.362l.022-.113zM267.299 46.306h-.852l1.142-5.714h-2.825l-1.142 5.714h-.847l1.278-6.395h4.524l-1.278 6.395zm1.625-2.42c.117-.732.386-1.318.806-1.76.42-.44.94-.66 1.557-.66.592 0 1.034.229 1.329.687.294.458.386 1.036.274 1.733l-.013.097c-.12.735-.39 1.321-.81 1.759-.42.438-.94.656-1.557.656-.592 0-1.035-.228-1.33-.685-.293-.457-.383-1.033-.27-1.73l.014-.097zm.835.097c-.085.524-.06.945.076 1.262.137.318.396.477.78.477.357 0 .662-.166.914-.499.251-.332.417-.746.496-1.24l.013-.097c.082-.515.054-.934-.083-1.256-.138-.322-.396-.483-.773-.483-.36 0-.666.167-.916.5-.25.334-.415.747-.494 1.239l-.013.097zm8.257-2.43l-.949 4.753h-.852l.813-4.067h-1.445l-.268 1.344c-.2.996-.454 1.698-.764 2.108-.31.41-.756.615-1.336.615h-.237l.167-.738.163-.004c.269 0 .494-.155.676-.464.181-.308.343-.814.483-1.517l.404-2.03h3.145zm3.958 4.753h-.853l.405-2.02h-1.911l-.404 2.02h-.848l.949-4.752h.848l-.413 2.055h1.91l.413-2.055h.852l-.948 4.752zm3.953 0a3.62 3.62 0 0 1 .039-.637c-.196.208-.42.382-.674.52a1.57 1.57 0 0 1-.762.21c-.433 0-.753-.13-.96-.39-.206-.258-.264-.605-.173-1.038.093-.483.331-.846.713-1.087.383-.242.872-.363 1.47-.363h.812l.093-.47c.058-.295.026-.52-.097-.674-.123-.154-.328-.23-.615-.23-.246 0-.469.072-.668.217-.199.145-.317.314-.355.507h-.804l-.009-.026c.059-.366.278-.687.659-.964.38-.277.834-.415 1.361-.415.472 0 .845.14 1.118.42.274.279.361.67.262 1.174l-.457 2.289a4.43 4.43 0 0 0-.08.496 2.427 2.427 0 0 0 0 .461h-.873zm-1.125-.632c.237 0 .479-.07.725-.207.246-.137.436-.3.571-.487l.176-.874h-.84c-.29 0-.55.089-.781.268-.231.178-.369.383-.413.614-.047.226-.025.397.066.512.09.116.256.174.496.174zm7.428-4.12l-.949 4.752h-.852l.369-1.845h-1.037l-1.419 1.845h-.913l1.533-1.994a1.097 1.097 0 0 1-.54-.518c-.112-.229-.137-.49-.075-.786.088-.454.307-.81.659-1.068.351-.258.798-.386 1.34-.386h1.884zm-3.031 1.462c-.047.223-.02.406.081.55.101.143.282.215.543.215h1.111l.312-1.555h-1.032c-.264 0-.49.08-.677.24a.94.94 0 0 0-.338.55zm-28.86 15.557l.949-4.753h1.761c.55 0 .975.112 1.274.334.299.223.406.548.32.975-.05.234-.152.437-.307.609-.155.17-.357.3-.606.388.258.073.443.21.556.409a.976.976 0 0 1 .094.685c-.097.474-.314.818-.652 1.032-.338.214-.787.32-1.346.32h-2.043v.001zm1.27-2.082l-.286 1.414h1.19c.27 0 .494-.062.675-.187a.811.811 0 0 0 .34-.52c.047-.24.011-.418-.108-.534-.118-.115-.325-.173-.621-.173h-1.19zm.131-.663h.905c.31 0 .567-.056.771-.167a.697.697 0 0 0 .371-.488c.047-.24-.001-.414-.145-.52-.143-.107-.385-.16-.725-.16h-.909l-.268 1.335zm4.929-.374h1.076c.489 0 .858.145 1.109.435.25.29.331.659.243 1.107-.1.486-.32.87-.665 1.153-.344.282-.781.424-1.311.424h-1.924l.949-4.753h.852l-.33 1.634h.001zm3.711 3.119h-.852l.949-4.753h.852l-.949 4.753zm-3.843-2.442l-.352 1.765h1.072a.884.884 0 0 0 .646-.254 1.18 1.18 0 0 0 .334-.615c.05-.252.027-.464-.069-.637-.095-.173-.281-.26-.56-.26h-1.071v.001zm8.894 2.442h-.852l.813-4.068h-1.915l-.813 4.068h-.848l.95-4.753h3.614l-.949 4.753zm5.873-4.753l-.949 4.753h-.852l.812-4.068h-1.445l-.268 1.345c-.199.995-.453 1.698-.764 2.108-.31.41-.755.615-1.335.615h-.237l.167-.738.162-.005c.27 0 .495-.154.677-.463.181-.309.342-.815.483-1.517l.404-2.03h3.145zm3 4.753c0-.144.003-.262.009-.354.005-.092.016-.186.03-.283a2.7 2.7 0 0 1-.674.52 1.57 1.57 0 0 1-.762.209c-.433 0-.753-.13-.96-.389-.206-.259-.264-.605-.173-1.039.093-.483.331-.845.714-1.087.382-.241.871-.362 1.469-.362h.812l.093-.47c.058-.296.026-.52-.097-.674-.123-.154-.328-.23-.615-.23-.246 0-.469.072-.668.217-.199.145-.317.314-.355.507h-.804l-.009-.026c.059-.366.278-.688.659-.965.38-.276.834-.415 1.361-.415.472 0 .845.14 1.118.42.274.28.361.671.262 1.175l-.457 2.288a4.43 4.43 0 0 0-.08.497 2.427 2.427 0 0 0 0 .46h-.873v.001zm-1.125-.633c.237 0 .48-.069.725-.206.246-.138.436-.3.571-.488l.176-.874h-.84c-.29 0-.55.09-.781.268-.231.179-.369.384-.413.615-.047.226-.025.396.066.512.09.115.256.173.496.173zm7.12-3.448h-1.44l-.813 4.08h-.848l.813-4.08h-1.419l.132-.672h3.707l-.132.672zm2.61 4.08a3.635 3.635 0 0 1 .038-.636c-.195.208-.42.381-.673.52a1.57 1.57 0 0 1-.762.209c-.434 0-.754-.13-.96-.389-.207-.259-.264-.605-.174-1.039.094-.483.332-.845.714-1.087.382-.241.872-.362 1.47-.362h.812l.092-.47c.059-.296.027-.52-.096-.674-.123-.154-.328-.23-.615-.23-.246 0-.469.072-.668.217-.2.145-.318.314-.356.507h-.804l-.008-.026c.058-.366.278-.688.658-.965.381-.276.835-.415 1.362-.415.472 0 .844.14 1.118.42.274.28.36.671.261 1.175l-.457 2.288a4.43 4.43 0 0 0-.079.497 2.427 2.427 0 0 0 0 .46h-.874.001zm-1.125-.632c.237 0 .479-.069.725-.206.246-.138.436-.3.57-.488l.176-.874h-.839c-.29 0-.55.09-.781.268-.232.179-.37.384-.413.615-.047.226-.025.396.066.512.09.115.256.173.496.173zm-35.532 41.547l1.446-7.237h2.226c.66 0 1.167.166 1.521.497.355.332.467.819.338 1.462-.07.34-.222.634-.457.88a2.17 2.17 0 0 1-.865.546c.388.093.664.307.828.644.164.336.2.724.111 1.165-.142.706-.442 1.223-.9 1.55-.456.329-1.036.493-1.739.493h-2.51.001zm1.635-3.395l-.522 2.63h1.55c.375 0 .702-.112.982-.336.28-.224.461-.534.544-.932.086-.45.062-.79-.072-1.019-.134-.228-.397-.343-.788-.343h-1.694zm.154-.765h1.466c.298 0 .575-.102.832-.306a1.36 1.36 0 0 0 .49-.832c.083-.414.034-.713-.147-.895-.18-.182-.484-.273-.912-.273h-1.267l-.462 2.306zm5.884.631h1.218c.553 0 .971.164 1.255.492.283.328.375.746.276 1.253-.113.55-.364.984-.753 1.304-.39.32-.884.48-1.484.48h-2.177l1.074-5.378h.964l-.373 1.85v-.001zm4.2 3.529h-.964l1.073-5.378h.964l-1.073 5.378zm-4.349-2.764l-.398 1.998h1.213a1 1 0 0 0 .73-.288c.196-.192.322-.424.378-.696.057-.285.031-.525-.077-.72-.107-.196-.319-.294-.633-.294h-1.213zm10.064 2.764h-.964l.92-4.602h-2.167l-.92 4.602h-.959l1.074-5.378h4.09l-1.074 5.378zm6.645-5.378l-1.073 5.378h-.964l.92-4.602h-1.636l-.303 1.52c-.226 1.127-.514 1.922-.865 2.386-.351.464-.855.696-1.51.696h-.27l.19-.835.183-.005c.305 0 .56-.175.766-.524.205-.35.387-.922.547-1.718l.457-2.296h3.558zm3.395 5.378c0-.163.003-.296.01-.4a3.71 3.71 0 0 1 .035-.32c-.222.235-.48.433-.763.588a1.78 1.78 0 0 1-.863.236c-.49 0-.852-.146-1.086-.44-.233-.293-.299-.685-.196-1.175.106-.547.375-.957.808-1.23.432-.273.986-.41 1.662-.41h.92l.104-.532c.066-.335.03-.589-.11-.763-.138-.174-.37-.26-.695-.26-.278 0-.53.081-.756.245-.225.164-.359.356-.402.574h-.91l-.01-.03c.067-.414.315-.777.746-1.09.43-.314.944-.47 1.54-.47.534 0 .956.158 1.266.474.31.317.408.76.295 1.33l-.517 2.59a5.1 5.1 0 0 0-.09.561 2.746 2.746 0 0 0 0 .522h-.988zm-1.272-.716c.268 0 .541-.078.82-.233a1.95 1.95 0 0 0 .646-.552l.198-.99h-.949a1.41 1.41 0 0 0-.884.304c-.262.202-.418.434-.468.696-.053.255-.028.448.075.579.103.13.29.196.562.196zm8.056-3.901h-1.63l-.92 4.617h-.959l.92-4.617h-1.606l.15-.76h4.194l-.149.76zm2.952 4.617c0-.163.003-.296.01-.4a3.71 3.71 0 0 1 .035-.32c-.222.235-.48.433-.763.588a1.79 1.79 0 0 1-.862.236c-.49 0-.853-.146-1.086-.44-.234-.293-.3-.685-.197-1.175.106-.547.376-.957.808-1.23.432-.273.987-.41 1.663-.41h.919l.104-.532c.067-.335.03-.589-.109-.763-.14-.174-.371-.26-.696-.26-.278 0-.53.081-.755.245-.226.164-.36.356-.403.574h-.91l-.01-.03c.067-.414.316-.777.746-1.09.431-.314.945-.47 1.541-.47.533 0 .955.158 1.265.474.31.317.408.76.296 1.33l-.517 2.59a5.1 5.1 0 0 0-.09.561 2.746 2.746 0 0 0 0 .522h-.989zm-1.272-.716c.268 0 .542-.078.82-.233a1.95 1.95 0 0 0 .646-.552l.199-.99h-.95a1.41 1.41 0 0 0-.884.304c-.262.202-.418.434-.467.696-.053.255-.028.448.074.579.103.13.29.196.562.196zM12.107 131.665h-1.3v-3.335H7.305v3.335H6v-7.82h1.305v3.437h3.502v-3.437h1.3v7.82zm5.043 0a4.817 4.817 0 0 1-.115-.43 3.185 3.185 0 0 1-.062-.419 2.3 2.3 0 0 1-.706.685 1.797 1.797 0 0 1-.98.277c-.606 0-1.07-.156-1.394-.467-.324-.312-.486-.74-.486-1.284 0-.562.222-1 .666-1.313.444-.314 1.069-.47 1.874-.47h1.015v-.51c0-.305-.09-.543-.268-.715-.18-.172-.435-.258-.768-.258-.298 0-.534.072-.71.215a.682.682 0 0 0-.262.553h-1.257l-.006-.032c-.025-.458.18-.865.615-1.22.435-.354 1.002-.53 1.7-.53.677 0 1.223.17 1.638.515.416.343.623.838.623 1.482v2.584c0 .24.017.47.049.69.032.22.084.436.156.647H17.15zm-1.6-.935c.33 0 .625-.082.889-.247.263-.164.437-.352.523-.564v-.859h-1.036c-.38 0-.677.094-.892.282-.215.188-.322.41-.322.663 0 .222.072.399.217.53.145.13.352.195.62.195h.001zm8.84.935h-1.305v-1.939c-.351.078-.71.117-1.069.118-.773 0-1.374-.184-1.801-.553-.428-.369-.642-.922-.642-1.66v-1.783h1.3v1.783c0 .416.092.713.276.892.184.179.474.268.868.268.19 0 .371-.01.545-.03.176-.02.35-.05.523-.093v-2.815h1.306v5.812h-.001zm4.861 0a4.817 4.817 0 0 1-.115-.43 3.185 3.185 0 0 1-.062-.419 2.3 2.3 0 0 1-.706.685 1.797 1.797 0 0 1-.98.277c-.606 0-1.07-.156-1.394-.467-.324-.312-.486-.74-.486-1.284 0-.562.222-1 .666-1.313.444-.314 1.069-.47 1.874-.47h1.015v-.51c0-.305-.09-.543-.268-.715-.18-.172-.435-.258-.768-.258-.297 0-.534.072-.71.215a.682.682 0 0 0-.262.553h-1.257l-.006-.032c-.025-.458.18-.865.615-1.22.435-.354 1.002-.53 1.7-.53.677 0 1.223.17 1.639.515.415.343.623.838.623 1.482v2.584c0 .24.016.47.048.69.032.22.084.436.156.647h-1.322zm-1.6-.935c.33 0 .626-.082.889-.247.263-.164.437-.352.523-.564v-.859h-1.036c-.38 0-.677.094-.892.282-.215.188-.322.41-.322.663 0 .222.072.399.217.53.145.13.352.195.62.195h.001zm8.953-4.877v5.812h-1.3v-4.759h-1.691v1.424c0 1.145-.163 1.988-.49 2.527-.325.539-.884.808-1.675.808h-.28l.006-1.101h.194c.368 0 .617-.165.746-.494.13-.33.194-.91.194-1.74v-2.477h4.296zm1.02 2.853c0-.863.237-1.572.71-2.127.48-.555 1.13-.833 1.95-.833.834 0 1.487.278 1.96.833.476.551.714 1.26.714 2.127v.112c0 .874-.238 1.587-.714 2.138-.473.548-1.123.822-1.95.822-.83 0-1.484-.276-1.96-.827-.473-.552-.71-1.263-.71-2.133v-.112zm1.306.112c0 .566.111 1.028.333 1.386.219.355.562.532 1.031.532.455 0 .795-.177 1.02-.532.23-.358.345-.82.345-1.386v-.112c0-.555-.115-1.012-.344-1.37-.226-.362-.57-.543-1.031-.543-.455 0-.795.181-1.02.543-.223.362-.334.818-.334 1.37v.112zm177.98 49.159h-.902v3.383h-1.305v-7.82h1.305v3.314h.746l2.455-3.314h1.547l-2.847 3.733 3.067 4.087h-1.595l-2.47-3.383h-.001zm4.318.424c0-.863.237-1.572.71-2.127.48-.555 1.13-.833 1.95-.833.834 0 1.487.278 1.96.833.476.551.714 1.26.714 2.127v.113c0 .873-.238 1.586-.714 2.137-.473.548-1.123.822-1.95.822-.83 0-1.484-.275-1.96-.827-.473-.551-.71-1.262-.71-2.132v-.113zm1.306.113c0 .566.11 1.027.333 1.386.218.354.562.531 1.03.531.456 0 .796-.177 1.021-.531.23-.359.344-.82.344-1.386v-.113c0-.555-.114-1.012-.344-1.37-.225-.361-.569-.542-1.03-.542-.456 0-.796.18-1.021.542-.222.362-.333.819-.333 1.37v.113zm10.028 2.846h-1.306v-2.347h-2.26v2.347h-1.306v-5.811h1.305v2.422h2.261v-2.422h1.306v5.811zm3.861.113c-.823 0-1.48-.27-1.968-.808-.489-.539-.733-1.231-.733-2.076v-.215c0-.845.242-1.546.727-2.103.486-.556 1.093-.833 1.824-.83.784 0 1.385.238 1.802.712.417.475.626 1.111.626 1.91v.768h-3.626l-.01.027c.02.461.156.84.405 1.133.249.293.593.44 1.034.44.35 0 .652-.043.902-.129.25-.086.493-.21.725-.37l.42.854c-.22.193-.51.356-.87.489a3.663 3.663 0 0 1-1.258.198zm-.15-4.984a.98.98 0 0 0-.795.384c-.208.256-.337.58-.387.975l.011.027h2.304v-.135c0-.368-.094-.67-.282-.902-.188-.233-.472-.35-.851-.35v.001zm3.47-.94h1.305v4.77h2.266v-4.77h1.306v4.77h.778v2.954h-1.305v-1.913h-4.35v-5.811z" fill="#2A3052" fill-rule="nonzero"/></g></svg>