<svg width="299" height="197" xmlns="http://www.w3.org/2000/svg"><g fill="none"><path fill="#F1F2F2" d="M0 0h299v197H0z"/><path d="M1.987 1.98v193.04h295.026V1.98H1.987zM299 0v197H0V0h299z" fill="#C2C2C2"/><path d="M2.926 53.113V51.89H296.51v1.223H2.926zm0 20.598v-1.223H296.51v1.223H2.926zm0 20.56v-1.224H296.51v1.224H2.926zm0 41.157v-1.223H296.51v1.223H2.926zm0 20.56v-1.223H296.51v1.223H2.926zm0 20.56v-1.223H296.51v1.223H2.926zM37.772 31.942h1.223v162.126h-1.223V31.942zm37.162 0h1.223v162.126h-1.223V31.942zm37.124 0h1.223v162.126h-1.223V31.942zm37.162 0h1.223v162.126h-1.223V31.942zm37.124 0h1.223v162.126h-1.223V31.942zm37.124 0h1.224v162.126h-1.224V31.942zm37.162 0h1.224v162.126h-1.224V31.942z" fill="#DFDEDE"/><path fill="#C2C2C2" d="M1 30v-2h297v2z"/><path d="M188.522 146.307h-35.42L147.649 138l-5.455 8.307h-35.42c-2.652 0-4.773 2.163-4.773 4.856v25.074c0 2.693 2.16 4.855 4.773 4.855h81.787c2.652 0 4.773-2.162 4.773-4.855v-25.074c0-2.693-2.16-4.856-4.811-4.856z" fill="#E88024"/><g transform="translate(5 91)"><path fill="#2A3052" d="M.262 25.411v-1.485h288.35v1.485z"/><path d="M70.147 50.429a1.818 1.818 0 0 1-2.43.253L34.255 26.135a1.818 1.818 0 1 1 2.15-2.932l32.134 23.572 33.52-37.454a1.818 1.818 0 0 1 2.69-.02l31.776 34.444 43.18-42.625a1.818 1.818 0 0 1 2.914.506l42.02 87.307 28.114-24.84a1.818 1.818 0 1 1 2.407 2.725l-29.915 26.43a1.818 1.818 0 0 1-2.841-.574L180.446 5.495 137.74 47.653a1.818 1.818 0 0 1-2.613-.06l-31.694-34.357L70.147 50.43z" fill="#2A3052"/><ellipse fill="#FFF" opacity=".6" cx="35.33" cy="24.669" rx="8.067" ry="8.496"/><path d="M35.33 34.376c-5.14 0-9.28-4.36-9.28-9.707 0-5.348 4.14-9.708 9.28-9.708 5.139 0 9.279 4.36 9.279 9.708s-4.14 9.707-9.28 9.707zm0-2.423c3.771 0 6.855-3.248 6.855-7.284 0-4.037-3.084-7.284-6.855-7.284-3.772 0-6.856 3.247-6.856 7.284 0 4.036 3.084 7.284 6.856 7.284z" fill="#E88024"/><ellipse fill="#FFF" opacity=".6" cx="253.956" cy="64.855" rx="8.067" ry="8.496"/><path d="M253.956 74.563c-5.14 0-9.28-4.36-9.28-9.707 0-5.348 4.14-9.708 9.28-9.708 5.139 0 9.279 4.36 9.279 9.708s-4.14 9.707-9.28 9.707zm0-2.423c3.771 0 6.855-3.248 6.855-7.284 0-4.037-3.084-7.284-6.855-7.284-3.772 0-6.856 3.247-6.856 7.284 0 4.036 3.084 7.284 6.856 7.284z" fill="#E88024"/></g><path d="M259.346 132.301c.069.168.148.346.334.742-1.404 1.07-3.02.924-3.774.482-1.136-.666-1.136-1.903-1.13-2.86.007-1.22.904-3.49 3.401-3.49 2.498 0 2.088 2.697 1.966 3.49-.255 0-1.632.025-4.131.075-.232 2.966 2.009 2.303 3.334 1.561zm-.15-2.385c.145-1.171-.214-1.757-1.08-1.757-1.297 0-1.752 1.375-1.897 1.757h2.977zm-12.336-4.918h1.172l-1.172 7.859h4.267l1.17-7.859h1.326l-1.326 7.859h1.121l-.421 3.099h-1.194l.284-2.129h-6.538l1.311-8.829zm18.391 8.762h1.177l.938-6.456c-1.487.02-3.002.02-4.545 0-.505 3.086-.695 5.718-2.226 5.451l-.168 1.005c1.002 0 1.672-.205 2.01-.614 1.236-1.5 1.177-3.626 1.39-4.948h2.231l-.807 5.562zm3.771-6.502h1.114c-.193 1.471-.312 2.303-.358 2.495h2.042c.86 0 1.847.728 1.793 1.754-.08 1.502-1.434 2.28-2.501 2.28h-3.087c.206-1.704.538-3.88.997-6.529zm.308 5.602h1.73c.263 0 1.175-.179 1.319-1.1.143-.92-.764-1.099-.995-1.099h-1.724l-.33 2.2v-.001z" fill="#6D6E71"/><path d="M113.084 169v-10.664h3.655c1.206 0 2.124.242 2.754.725.63.483.945 1.204.945 2.16 0 .489-.132.928-.396 1.319-.264.39-.65.693-1.157.908.576.156 1.021.45 1.336.883.315.432.473.95.473 1.556 0 1.001-.321 1.77-.963 2.307-.642.537-1.562.806-2.758.806h-3.889zm1.853-4.812v3.333h2.058c.581 0 1.035-.145 1.362-.433.328-.288.491-.688.491-1.2 0-1.11-.566-1.676-1.7-1.7h-2.211zm0-1.362h1.816c.577 0 1.027-.13 1.352-.392.324-.261.487-.631.487-1.11 0-.527-.15-.908-.45-1.142-.3-.235-.768-.352-1.403-.352h-1.802v2.996zm9.353.769h1.743c.65 0 1.216.112 1.7.337.483.224.85.54 1.102.944.251.406.377.877.377 1.414 0 .815-.288 1.47-.864 1.963-.577.493-1.343.742-2.3.747h-3.538v-7.925h1.78v2.52zm8.02 5.405h-1.78v-7.925h1.78V169zm-8.02-3.977v2.556h1.736c.434 0 .777-.109 1.029-.326.251-.217.377-.526.377-.926s-.123-.717-.37-.949c-.246-.232-.58-.35-1-.355h-1.772zm15.095-3.948h1.773V169h-1.773v-5.288L136.28 169h-1.773v-7.925h1.773v5.288l3.105-5.288zm8.943 1.436h-3.442V169h-1.773v-7.925h5.215v1.436zm7.947 2.607c0 1.226-.278 2.204-.835 2.934-.557.73-1.304 1.094-2.241 1.094-.87 0-1.565-.285-2.088-.856v3.757h-1.78v-10.972h1.641l.073.806c.523-.635 1.233-.952 2.132-.952.967 0 1.725.36 2.274 1.08.55.72.824 1.72.824 3v.11zm-1.773-.154c0-.79-.157-1.418-.472-1.882-.315-.464-.765-.696-1.351-.696-.728 0-1.25.3-1.568.901v3.516c.323.615.85.923 1.582.923.567 0 1.01-.229 1.33-.685.32-.457.48-1.149.48-2.077zm5.193-1.37h1.743c.65 0 1.216.113 1.7.338.483.224.85.54 1.102.944.251.406.377.877.377 1.414 0 .815-.288 1.47-.864 1.963-.576.493-1.343.742-2.3.747h-3.537v-7.925h1.78v2.52zm8.02 5.406h-1.78v-7.925h1.78V169zm-8.02-3.977v2.556h1.736c.435 0 .778-.109 1.03-.326.25-.217.376-.526.376-.926s-.123-.717-.37-.949c-.246-.232-.58-.35-1-.355h-1.772zm11.997-3.948v6.504h2.476v-6.504h1.78v6.504h2.483v-6.504h1.772V169h-10.29v-7.925h1.78zm12.327 4.783h-1.53l-.17-7.522h1.876l-.176 7.522zm-1.75 2.3c0-.279.09-.51.27-.692.181-.184.428-.275.74-.275.313 0 .56.091.74.275.18.183.271.413.271.692a.928.928 0 0 1-.264.674c-.175.18-.424.27-.747.27-.322 0-.571-.09-.747-.27a.928.928 0 0 1-.263-.674z" fill="#FFF"/><path d="M15.952 20V9.336h3.736c1.293 0 2.275.248 2.944.743.669.496 1.003 1.222 1.003 2.18 0 .522-.134.982-.403 1.38-.268.398-.642.69-1.12.875.547.137.978.413 1.293.828.314.415.472.923.472 1.523 0 1.026-.327 1.802-.981 2.33-.655.527-1.587.795-2.798.805h-4.146zm2.197-4.644v2.879h1.883c.517 0 .921-.123 1.212-.37.29-.247.436-.587.436-1.022 0-.976-.506-1.472-1.516-1.487h-2.015zm0-1.552h1.626c1.109-.02 1.663-.462 1.663-1.326 0-.483-.14-.831-.421-1.044-.28-.212-.724-.318-1.33-.318H18.15v2.688zM32.256 20h-2.124v-3.047h-2.63V20h-2.116v-7.925h2.116v3.179h2.63v-3.179h2.124V20zm6.416-7.925h2.117V20h-2.117v-4.893L36.02 20h-2.125v-7.925h2.125v4.885l2.65-4.885zm7.895 2.337c0-.279-.091-.495-.274-.649-.183-.153-.443-.23-.78-.23-.347 0-.629.072-.846.216a.692.692 0 0 0-.326.611h-2.117c0-.717.298-1.3.894-1.75.595-.45 1.357-.674 2.285-.674 1.02 0 1.822.2 2.406.6.583.401.875.97.875 1.707 0 .352-.106.675-.319.97-.212.296-.511.532-.897.707.904.318 1.355.93 1.355 1.839 0 .727-.311 1.307-.934 1.74-.622.431-1.451.647-2.486.647-.962 0-1.753-.224-2.373-.673-.62-.45-.93-1.055-.93-1.817h2.116c0 .269.12.486.36.652.238.166.551.25.937.25.376 0 .669-.089.879-.265a.855.855 0 0 0 .315-.688c0-.347-.1-.595-.3-.743-.2-.15-.501-.224-.902-.224h-1.15v-1.377h1.224c.659-.02.988-.303.988-.85z" fill="#000"/><path d="M16.196 142.664h-1.414v-4.93H9.406v4.93H8V132h1.406v4.585h5.376V132h1.414v10.664zm7.178 0c-.079-.156-.142-.435-.19-.835-.63.654-1.383.982-2.257.982-.781 0-1.422-.221-1.922-.663-.5-.442-.751-1.002-.751-1.681 0-.825.314-1.466.941-1.923.628-.456 1.51-.685 2.648-.685h1.318v-.622c0-.474-.141-.851-.425-1.132-.283-.28-.7-.42-1.252-.42-.484 0-.889.121-1.216.365-.327.244-.49.54-.49.887h-1.363c0-.396.14-.778.421-1.147.28-.368.662-.66 1.143-.875a3.844 3.844 0 0 1 1.585-.322c.914 0 1.629.228 2.146.685.518.456.787 1.085.806 1.886v3.647c0 .728.093 1.306.278 1.736v.117h-1.42zm-2.249-1.033c.425 0 .828-.11 1.208-.33.381-.219.657-.505.828-.856v-1.626H22.1c-1.66 0-2.49.486-2.49 1.457 0 .425.141.757.425.996.283.24.647.36 1.091.36zm11.499 1.033h-1.362v-2.871a7.187 7.187 0 0 1-1.831.234c-.992 0-1.747-.254-2.267-.761-.52-.508-.785-1.23-.795-2.168v-2.366h1.355v2.41c.025 1.181.593 1.772 1.707 1.772.625 0 1.235-.078 1.83-.234v-3.94h1.363v7.924zm7.06 0c-.078-.156-.141-.435-.19-.835-.63.654-1.382.982-2.256.982-.781 0-1.422-.221-1.922-.663-.5-.442-.751-1.002-.751-1.681 0-.825.314-1.466.941-1.923.628-.456 1.51-.685 2.648-.685h1.318v-.622c0-.474-.141-.851-.425-1.132-.283-.28-.7-.42-1.252-.42-.483 0-.889.121-1.216.365-.327.244-.49.54-.49.887h-1.363c0-.396.14-.778.421-1.147.281-.368.662-.66 1.143-.875a3.844 3.844 0 0 1 1.585-.322c.914 0 1.629.228 2.146.685.518.456.787 1.085.806 1.886v3.647c0 .728.093 1.306.278 1.736v.117h-1.42zm-2.248-1.033c.425 0 .828-.11 1.209-.33.38-.219.656-.505.827-.856v-1.626H38.41c-1.66 0-2.49.486-2.49 1.457 0 .425.142.757.425.996.283.24.647.36 1.091.36zm12.012-6.892v7.925h-1.363v-6.804H45.39l-.161 2.966c-.088 1.362-.316 2.337-.685 2.923-.368.585-.953.89-1.754.915h-.542v-1.194l.388-.03c.44-.048.755-.302.945-.76.19-.46.313-1.31.366-2.55l.147-3.39h5.354zm1.816 3.89c0-.777.153-1.475.458-2.095.305-.62.73-1.099 1.274-1.436.545-.337 1.166-.505 1.864-.505 1.08 0 1.952.373 2.619 1.12.666.747 1 1.741 1 2.981v.096c0 .771-.148 1.463-.444 2.076a3.365 3.365 0 0 1-1.267 1.432c-.549.342-1.18.513-1.893.513-1.074 0-1.945-.374-2.611-1.121-.667-.747-1-1.736-1-2.966v-.096zm1.362.16c0 .88.204 1.585.612 2.117.408.532.953.799 1.637.799.688 0 1.235-.27 1.64-.81.406-.54.609-1.295.609-2.267 0-.869-.207-1.573-.62-2.113-.412-.54-.96-.809-1.644-.809-.669 0-1.208.266-1.618.798-.41.533-.616 1.294-.616 2.286zm199.077 40.085h-1.297v4.79H249V173h1.406v4.702h1.099l3.728-4.702h1.75l-4.072 5.17 4.373 5.494h-1.721l-3.86-4.79zm6.298.754c0-.776.153-1.474.458-2.094.305-.62.73-1.099 1.275-1.436.544-.337 1.165-.505 1.864-.505 1.079 0 1.952.373 2.618 1.12.667.747 1 1.741 1 2.981v.096c0 .771-.148 1.463-.443 2.076a3.365 3.365 0 0 1-1.267 1.432c-.55.342-1.18.513-1.894.513-1.074 0-1.944-.374-2.61-1.121-.667-.747-1-1.736-1-2.966v-.096zm1.363.162c0 .878.204 1.584.611 2.116.408.532.954.799 1.637.799.689 0 1.236-.27 1.64-.81.406-.54.609-1.295.609-2.267 0-.869-.206-1.573-.62-2.113-.412-.54-.96-.809-1.643-.809-.67 0-1.209.266-1.619.798-.41.533-.615 1.294-.615 2.286zm14.026 3.874h-1.355v-3.384h-3.64v3.384h-1.363v-7.925h1.363v3.435h3.64v-3.435h1.355v7.925zm5.464.147c-1.075 0-1.949-.353-2.623-1.059-.673-.705-1.01-1.649-1.01-2.83v-.25c0-.786.15-1.488.45-2.105.3-.618.72-1.101 1.26-1.45a3.167 3.167 0 0 1 1.754-.524c1.03 0 1.831.34 2.402 1.018.572.679.857 1.65.857 2.915v.564h-5.368c.02.781.247 1.412.684 1.893.438.481.993.722 1.667.722.478 0 .884-.098 1.216-.293.332-.196.622-.454.871-.777l.828.645c-.664 1.02-1.66 1.53-2.988 1.53zm-.169-7.105c-.547 0-1.006.199-1.377.597-.371.398-.6.956-.688 1.674h3.97v-.103c-.04-.688-.225-1.222-.557-1.6-.332-.379-.782-.568-1.348-.568zm4.944-.967h1.362v6.82h3.648v-6.82h1.355v6.82h.944l-.131 3.456h-1.216v-2.35h-5.962v-7.926z" fill="#2A3052"/></g></svg>