<svg width="299" height="197" xmlns="http://www.w3.org/2000/svg"><g fill="none" fill-rule="evenodd"><path fill="#F1F2F2" d="M0 0h299v197H0z"/><path d="M1.987 1.98v193.04h295.026V1.98H1.987zM299 0v197H0V0h299z" fill="#C2C2C2" fill-rule="nonzero"/><path d="M4.887 56.446v-1.207h289.656v1.207H4.887zm0 40.534v-1.207h289.656v1.207H4.887zm0 40.534v-1.207h289.656v1.207H4.887zm0 40.496v-1.207h289.656v1.207H4.887zm34.38-142.416h1.206v159.67h-1.206V35.594zm36.664 0h1.207v159.67h-1.207V35.594zm36.628 0h1.207v159.67h-1.207V35.594zm36.665 0h1.207v159.67h-1.207V35.594zm36.627 0h1.207v159.67h-1.207V35.594zm36.628 0h1.207v159.67h-1.207V35.594zM4.887 117.228v-1.207h289.656v1.207H4.887z" fill="#DFDEDE" fill-rule="nonzero"/><path d="M259.144 35.594h1.207v159.67h-1.207V35.594zM4.887 76.731v-1.206h289.656v1.206H4.887zm0 81.03v-1.206h289.656v1.207H4.887z" fill="#2A3052" fill-rule="nonzero"/><path fill="#C2C2C2" fill-rule="nonzero" d="M2.794 35.606V33.19h293.842v2.415z"/><path d="M40.664 118.252a1.81 1.81 0 0 1-1.588-3.254l41.486-20.249a1.81 1.81 0 0 1 1.736.08l38.373 23.362 27.773-27.4a1.81 1.81 0 0 1 2.444-.09l35.648 30.304 35.474-26.087a1.81 1.81 0 0 1 1.546-.29l36.665 9.938a1.81 1.81 0 0 1-.947 3.495l-35.823-9.709-35.924 26.418a1.81 1.81 0 0 1-2.245-.079l-35.476-30.157-27.598 27.227a1.81 1.81 0 0 1-2.213.258L81.26 98.438l-40.597 19.814z" fill="#2A3052" fill-rule="nonzero"/><path d="M187.987 147.445h-34.945l-5.382-8.181-5.382 8.181h-34.946a4.733 4.733 0 0 0-4.71 4.782v24.694a4.753 4.753 0 0 0 4.71 4.782h80.692a4.733 4.733 0 0 0 4.71-4.782v-24.694a4.758 4.758 0 0 0-4.747-4.782z" fill="#E88024"/><ellipse cx="8.335" cy="8.564" rx="8.11" ry="8.443" opacity=".6" transform="translate(251.412 99.132)" fill="#FFF"/><path d="M259.747 117.346c-5.157 0-9.317-4.331-9.317-9.65 0-5.32 4.16-9.65 9.317-9.65s9.318 4.33 9.318 9.65c0 5.319-4.16 9.65-9.318 9.65zm0-2.414c3.802 0 6.903-3.23 6.903-7.236 0-4.007-3.101-7.236-6.903-7.236-3.801 0-6.903 3.229-6.903 7.236s3.102 7.236 6.903 7.236z" fill="#E88024" fill-rule="nonzero"/><ellipse cx="8.97" cy="9.021" rx="8.11" ry="8.443" opacity=".6" transform="translate(30.9 107.604)" fill="#FFF"/><path d="M39.87 126.275c-5.157 0-9.317-4.332-9.317-9.65 0-5.32 4.16-9.65 9.317-9.65s9.317 4.33 9.317 9.65c0 5.318-4.16 9.65-9.317 9.65zm0-2.414c3.802 0 6.903-3.23 6.903-7.236 0-4.007-3.101-7.236-6.903-7.236-3.802 0-6.903 3.229-6.903 7.236 0 4.006 3.101 7.236 6.903 7.236z" fill="#E88024" fill-rule="nonzero"/><path d="M20.155 15.654c.68 0 1.184-.134 1.511-.402.328-.268.492-.643.492-1.124 0-.417-.182-.763-.544-1.039-.362-.276-.889-.413-1.579-.413-.54 0-.99.13-1.347.39-.358.261-.537.595-.537 1.002h-2.106l-.007-.044c-.03-.899.345-1.628 1.124-2.186.78-.559 1.738-.838 2.874-.838 1.32 0 2.366.268 3.135.804.77.537 1.155 1.301 1.155 2.294 0 .496-.162.95-.484 1.363-.323.412-.767.734-1.333.968.64.213 1.132.533 1.474.96.343.427.514.951.514 1.572 0 .998-.412 1.78-1.236 2.345-.824.566-1.9.85-3.225.85-1.141 0-2.127-.266-2.956-.798-.829-.53-1.229-1.305-1.199-2.323l.008-.045h2.114c0 .422.19.777.57 1.065.38.288.868.432 1.463.432.705 0 1.263-.145 1.672-.435.41-.29.614-.662.614-1.114 0-.57-.182-.989-.547-1.254-.365-.266-.905-.399-1.62-.399h-1.466v-1.63h1.467l-.001-.001zm10.633 6.345a4.573 4.573 0 0 1-.204-.581 4.04 4.04 0 0 1-.123-.625 2.98 2.98 0 0 1-.886.975c-.368.258-.805.387-1.311.387-.844 0-1.494-.217-1.951-.651-.457-.435-.685-1.027-.685-1.776 0-.79.304-1.402.912-1.836.608-.434 1.496-.652 2.662-.652h1.221v-.64c0-.387-.101-.688-.305-.901-.203-.213-.506-.32-.908-.32-.353 0-.625.085-.816.257-.19.171-.286.406-.286.703h-2.093L26 16.295c-.035-.68.262-1.267.89-1.761s1.448-.741 2.461-.741c.968 0 1.751.243 2.35.73.598.486.897 1.183.897 2.092v3.329c0 .377.028.732.085 1.064.058.333.148.663.272.99h-2.167v.001zM28.8 20.547a1.86 1.86 0 0 0 1.013-.283c.298-.189.501-.407.61-.655v-1.14h-1.22c-.463 0-.811.114-1.047.343-.231.218-.36.523-.354.841 0 .273.088.49.265.652.176.161.42.242.733.242zm8.564-1.564h-.834v3.016h-2.175v-8.057h2.175v3.068h.648l1.846-3.068h2.748l-2.666 3.738 2.904 4.319h-2.895l-1.75-3.016h-.001zm5.063-1.087c0-1.202.335-2.186 1.006-2.953.67-.767 1.598-1.15 2.785-1.15 1.191 0 2.124.382 2.8 1.146.675.765 1.012 1.75 1.012 2.957v.156c0 1.211-.336 2.198-1.009 2.96-.672.762-1.602 1.143-2.788 1.143-1.192 0-2.124-.38-2.797-1.143-.672-.762-1.009-1.749-1.009-2.96v-.156zm2.167.156c0 .735.13 1.324.388 1.769.258.444.675.666 1.25.666.562 0 .972-.223 1.233-.67.26-.447.391-1.035.391-1.765v-.156c0-.715-.132-1.298-.395-1.75-.263-.452-.677-.678-1.243-.678-.561 0-.972.227-1.233.682-.26.454-.39 1.036-.39 1.746v.156h-.001zm13.74 3.947h-2.175v-3.128h-2.651v3.128h-2.174v-8.057h2.174v3.261h2.651v-3.261h2.174v8.057h.001zm8.563 0h-2.174v-2.554a4.65 4.65 0 0 1-.563.085 5.98 5.98 0 0 1-.54.026c-1.186 0-2.1-.253-2.744-.76-.642-.506-.964-1.28-.964-2.323v-2.531h2.174v2.531c0 .532.117.899.35 1.103.234.203.628.305 1.185.305.183 0 .366-.01.547-.03.181-.02.366-.05.555-.09v-3.82h2.174v8.058zm6.434-8.057h2.167v8.057h-2.167v-4.915l-.045-.007-2.628 4.922h-2.175v-8.057h2.175v4.9l.044.007 2.629-4.907zm10.619 1.66h-2.577v6.397h-2.182v-6.397h-2.539v-1.66h7.298v1.66zm4.378 4.885c.378 0 .678-.113.901-.339.224-.225.336-.527.336-.904h1.98l.015.044c.02.814-.283 1.496-.908 2.044-.626.549-1.4.823-2.324.823-1.191 0-2.112-.38-2.762-1.143-.65-.762-.976-1.736-.976-2.923v-.223c0-1.182.324-2.156.972-2.923.648-.767 1.565-1.15 2.752-1.15.982 0 1.774.283 2.375.849.6.566.891 1.31.871 2.234l-.015.044h-1.98c0-.417-.11-.763-.332-1.039-.22-.275-.527-.413-.92-.413-.56 0-.959.225-1.195.674-.235.45-.353 1.024-.353 1.724v.223c0 .715.118 1.294.353 1.735.236.442.64.663 1.21.663zm11.29-6.545v8.057h-2.16v-2.822h-1.31l-1.58 2.822h-2.196l1.78-3.18c-.492-.218-.87-.519-1.136-.9a2.229 2.229 0 0 1-.398-1.304c0-.784.311-1.426.934-1.925.623-.499 1.463-.748 2.52-.748h3.546zm-4.826 2.733c0 .278.108.52.324.726.216.206.523.309.92.309h1.422v-2.108h-1.385c-.407 0-.722.11-.946.328-.223.218-.335.467-.335.745zm10.552 5.324v-8.057h3.366c1.072 0 1.907.188 2.506.566.598.377.897.938.897 1.683a1.5 1.5 0 0 1-.376 1.005c-.25.293-.607.516-1.069.67.61.12 1.074.344 1.39.674.314.33.472.716.472 1.158 0 .76-.284 1.333-.853 1.72-.568.387-1.384.58-2.446.58h-3.887v.001zm2.174-3.359v1.706h1.713c.382 0 .665-.071.849-.213.184-.141.276-.35.276-.629 0-.278-.089-.491-.265-.64-.176-.15-.463-.224-.86-.224h-1.713zm0-1.414h1.251c.403 0 .7-.065.89-.194.191-.13.287-.323.287-.58 0-.294-.102-.508-.305-.645-.204-.137-.514-.205-.931-.205h-1.192v1.624zm13.285 4.773h-2.174v-3.128h-2.651v3.128h-2.175v-8.057h2.175v3.261h2.65v-3.261h2.175v8.057zm4.55-3.38l.09.446h.044l1.542-5.123h2.338l-3.27 9.263a4.265 4.265 0 0 1-.93 1.456c-.392.395-.98.592-1.765.592-.184 0-.354-.015-.51-.045-.156-.03-.346-.072-.57-.126l.253-1.586.209.03a1.5 1.5 0 0 0 .201.014c.357 0 .633-.088.827-.264.193-.176.342-.396.446-.66l.254-.625-2.86-8.05h2.338l1.363 4.677v.001zm11.706-3.017h-2.576v6.397h-2.182v-6.397h-2.54v-1.66h7.298v1.66zm8.415 2.592c0 1.191-.276 2.15-.827 2.874-.55.725-1.32 1.087-2.308 1.087a2.58 2.58 0 0 1-1.125-.234 2.31 2.31 0 0 1-.841-.69v3.866h-2.167V13.942h1.958l.127.953c.238-.353.525-.624.86-.816.335-.19.726-.286 1.173-.286.998 0 1.772.39 2.323 1.169.551.78.827 1.804.827 3.075v.157zm-2.175-.157c0-.76-.126-1.375-.38-1.846-.253-.472-.64-.708-1.161-.708-.328 0-.607.067-.838.201-.23.134-.413.325-.547.574v3.53c.134.228.316.401.547.52.231.12.515.18.853.18.526 0 .912-.207 1.158-.619.246-.412.368-.97.368-1.675v-.157zm8.326-4.095h2.167v8.057h-2.167v-4.915l-.045-.007-2.629 4.922h-2.174v-8.057h2.174v4.9l.045.007 2.629-4.907z" fill="#020202" fill-rule="nonzero"/><path d="M16 69.157l1.247-8.323h2.715c.834 0 1.477.19 1.93.569.45.38.621.94.51 1.683a1.83 1.83 0 0 1-.474.978 2.462 2.462 0 0 1-.972.64c.53.08.924.317 1.18.712.258.394.349.858.272 1.392-.122.792-.455 1.382-1 1.769-.545.387-1.248.58-2.11.58H16zm1.71-3.904l-.452 3.024h2.172c.496 0 .91-.128 1.24-.383.332-.256.532-.614.6-1.075.07-.476-.02-.853-.265-1.129-.246-.276-.614-.422-1.106-.437h-2.19.001zm.131-.88h1.83a1.7 1.7 0 0 0 1.062-.35c.305-.232.488-.552.55-.96.068-.464-.022-.805-.27-1.02-.247-.215-.642-.323-1.183-.323h-1.589l-.4 2.653zm7.991 4.904c-.853 0-1.494-.288-1.923-.863-.429-.575-.575-1.319-.437-2.23l.04-.25c.133-.923.496-1.666 1.089-2.23.592-.564 1.264-.846 2.015-.846.796 0 1.37.26 1.72.783.35.522.463 1.202.338 2.04l-.086.595h-4.003c-.087.656-.023 1.173.195 1.552.217.38.611.569 1.183.569a3.04 3.04 0 0 0 1.02-.166c.315-.11.586-.26.815-.446l.331.732a3.27 3.27 0 0 1-.954.54c-.385.147-.833.22-1.344.22h.001zm.652-5.533c-.377 0-.72.152-1.026.457a2.6 2.6 0 0 0-.66 1.155l.011.034h2.784l.012-.091c.068-.462.015-.836-.16-1.124-.176-.287-.496-.431-.96-.431h-.001zm8.632 2.555c-.141.926-.462 1.654-.963 2.184-.502.53-1.131.794-1.89.794-.37 0-.69-.067-.96-.203a1.637 1.637 0 0 1-.657-.597l-.458 3.058h-1.126l1.28-8.563h.864l.057.8c.248-.297.534-.524.857-.68.34-.16.712-.24 1.087-.234.735 0 1.276.307 1.623.923.347.615.448 1.415.303 2.398l-.017.12zm-1.11-.12c.111-.728.062-1.311-.148-1.75-.21-.438-.585-.657-1.126-.657a1.63 1.63 0 0 0-.849.226c-.253.15-.473.355-.66.615l-.446 2.972c.107.255.263.455.469.597.206.143.474.215.806.215.51 0 .938-.197 1.283-.592.345-.394.563-.896.655-1.506l.017-.12h-.001zm4.66-.926l1.657-2.281h1.275l.017.029-2.44 3.03 1.594 3.126h-1.292l-1.023-2.338-1.72 2.338H35.47l-.017-.028 2.51-3.099-1.55-3.058h1.298l.955 2.28v.001zm8.214 3.904h-1.125l.394-2.63h-2.755L43 69.157h-1.126l.926-6.185h1.126l-.4 2.675h2.755l.4-2.675h1.126l-.926 6.185h-.001zm2.875 0h-1.126l.172-1.155h1.126l-.172 1.155zm8.478-6.3c.758 0 1.329.3 1.712.898.383.598.508 1.35.374 2.252l-.023.126c-.144.957-.505 1.72-1.08 2.29-.575.57-1.294.854-2.155.854-.823 0-1.447-.297-1.872-.892-.425-.594-.569-1.345-.432-2.252l.023-.126c0-.019.002-.036.006-.051l.023-.109.2-1.332c.183-1.22.546-2.095 1.089-2.626.543-.532 1.283-.822 2.22-.872.53-.027.946-.092 1.247-.197.3-.105.47-.285.508-.54h.858l.011.034c-.072.629-.331 1.056-.777 1.283-.446.227-1.077.35-1.892.369-.58.019-1.066.177-1.46.474-.395.298-.632.742-.712 1.332l.017.029c.263-.278.582-.505.957-.68a2.708 2.708 0 0 1 1.158-.263v-.001zm-.355.887c-.514 0-.948.218-1.3.654-.353.437-.575.973-.666 1.61l-.023.125c-.103.682-.049 1.23.163 1.644.211.413.592.62 1.14.62.515 0 .948-.216 1.3-.649.353-.433.58-.97.678-1.615l.023-.126c.1-.67.041-1.215-.174-1.634-.216-.42-.596-.63-1.14-.63l-.001.001zm6.969 5.413c-.007-.172-.01-.345-.012-.517a3.7 3.7 0 0 1 .023-.403 3.34 3.34 0 0 1-.935.74c-.367.2-.744.3-1.129.3-.62 0-1.08-.167-1.38-.5-.3-.333-.405-.786-.317-1.358.07-.583.408-1.1.914-1.4.522-.324 1.199-.486 2.03-.486h1.223l.091-.612c.057-.377-.008-.668-.197-.871-.189-.204-.487-.306-.895-.306a1.56 1.56 0 0 0-.914.274c-.263.183-.412.402-.446.657l-1.075.012-.005-.034c.045-.47.318-.885.817-1.25.5-.363 1.105-.545 1.818-.545.674 0 1.204.18 1.589.54.385.36.53.872.434 1.535l-.445 2.978c-.039.232-.06.449-.066.649-.006.2.006.399.037.597h-1.16zm-1.744-.823c.389 0 .766-.107 1.132-.32.366-.214.62-.454.76-.72l.155-1h-1.265c-.438 0-.815.115-1.132.348-.316.232-.495.5-.537.8-.046.286.005.506.152.66.146.155.391.232.734.232h.001zm10.078-2.035c-.141.926-.462 1.654-.963 2.184-.501.53-1.131.794-1.89.794-.37 0-.69-.067-.96-.203a1.637 1.637 0 0 1-.657-.597l-.457 3.058h-1.127l1.28-8.563h.864l.057.8c.248-.297.534-.524.858-.68.34-.16.71-.24 1.086-.234.735 0 1.276.307 1.623.923.347.615.448 1.415.303 2.398l-.017.12zm-1.109-.12c.11-.728.061-1.311-.149-1.75-.21-.438-.585-.657-1.126-.657a1.63 1.63 0 0 0-.849.226c-.253.15-.473.355-.66.615l-.446 2.972c.107.255.263.455.469.597.206.143.474.215.806.215.51 0 .938-.197 1.283-.592.345-.394.563-.896.655-1.506l.017-.12zm3.819-.852h1.543c.701 0 1.236.177 1.603.532.368.354.51.808.426 1.36a2.133 2.133 0 0 1-.823 1.406c-.457.355-1.052.532-1.783.532h-2.664l.926-6.185h1.126l-.354 2.355zm-.132.88l-.309 2.07h1.538c.385 0 .693-.098.923-.295.23-.196.369-.437.415-.723.042-.29-.018-.537-.18-.743-.162-.206-.445-.309-.85-.309h-1.537zm7.283 3.07c-.854 0-1.495-.288-1.924-.863-.429-.575-.574-1.319-.437-2.23l.04-.25c.133-.923.496-1.666 1.089-2.23.592-.564 1.264-.846 2.015-.846.796 0 1.37.26 1.72.783.351.522.463 1.202.338 2.04l-.086.595h-4.001c-.088.656-.023 1.173.194 1.552.217.38.612.569 1.183.569a3.04 3.04 0 0 0 1.02-.166c.315-.11.586-.26.815-.446l.332.732c-.252.213-.57.393-.955.54-.385.147-.833.22-1.343.22zm.651-5.533c-.377 0-.719.152-1.026.457a2.61 2.61 0 0 0-.66 1.155l.011.034h2.784l.012-.091c.068-.462.015-.836-.16-1.124-.176-.287-.496-.431-.96-.431h-.001zm8.632 2.555c-.14.926-.462 1.654-.963 2.184-.501.53-1.131.794-1.89.794-.37 0-.69-.067-.96-.203a1.637 1.637 0 0 1-.657-.597l-.457 3.058h-1.127l1.28-8.563h.864l.057.8c.248-.297.534-.524.858-.68.34-.16.71-.24 1.086-.234.735 0 1.276.307 1.623.923.347.615.448 1.415.303 2.398l-.017.12zm-1.109-.12c.11-.728.061-1.311-.149-1.75-.21-.438-.585-.657-1.126-.657a1.63 1.63 0 0 0-.849.226c-.253.15-.473.355-.66.615l-.446 2.972c.107.255.263.455.47.597.205.143.474.215.805.215.51 0 .939-.197 1.283-.592.345-.394.563-.896.655-1.506l.017-.12zM23.409 172.605h-1.154l.561-3.763h-4.137l-.562 3.763h-1.152l1.276-8.521h1.153l-.58 3.85h4.138l.58-3.85h1.152l-1.275 8.52v.001zm6.759-6.332h1.153l-.948 6.332H29.22l.667-4.483-.03-.018-3.47 4.5H25.24l.948-6.331h1.147l-.673 4.488.03.018 3.476-4.506zm6.677 3.587h-.34l-.409 2.745h-1.153l.41-2.745h-.334l-2.2 2.745h-1.41l-.012-.03 2.838-3.312-1.72-2.99h1.392l1.282 2.61h.31l.392-2.61h1.153l-.392 2.61h.316l2.072-2.61h1.345l.011.029-2.58 2.955 1.86 3.348h-1.45l-1.382-2.745h.001zm8.954 2.745h-1.154l.404-2.692h-2.821l-.404 2.692h-1.153l.948-6.332h1.153l-.41 2.738h2.823l.41-2.738h1.153l-.948 6.332h-.001zm2.943 0H47.59l.175-1.182h1.153l-.176 1.182zm8.68-6.45c.775 0 1.36.307 1.752.92.392.612.52 1.38.383 2.305l-.023.129c-.149.98-.517 1.76-1.106 2.344-.59.583-1.325.875-2.207.875-.842 0-1.481-.305-1.916-.913-.435-.609-.582-1.378-.442-2.306l.023-.129c0-.02.002-.037.006-.053l.024-.11.204-1.364c.188-1.249.56-2.145 1.115-2.69.556-.544 1.314-.841 2.274-.892.542-.027.967-.094 1.276-.202.308-.107.481-.291.52-.553h.878l.012.035c-.074.644-.34 1.082-.796 1.314-.456.232-1.102.358-1.937.378-.593.02-1.091.181-1.495.485-.404.305-.647.76-.729 1.364l.018.03c.269-.286.596-.518.98-.697.384-.18.78-.27 1.185-.27h.001zm-.364.908c-.526 0-.97.223-1.331.67-.361.446-.588.996-.682 1.647l-.023.129c-.106.698-.05 1.26.166 1.682.217.424.606.635 1.168.635.527 0 .97-.221 1.331-.664.361-.443.592-.994.694-1.653l.023-.129c.102-.687.042-1.244-.178-1.674-.22-.429-.61-.643-1.168-.643zm7.134 5.542a15.506 15.506 0 0 1-.012-.53c0-.135.008-.272.024-.413-.262.3-.58.553-.957.758-.353.199-.75.305-1.156.308-.636 0-1.107-.171-1.413-.513-.306-.34-.415-.804-.325-1.39.09-.624.402-1.102.936-1.433.535-.332 1.227-.498 2.078-.498h1.252l.094-.626c.058-.386-.009-.683-.202-.892-.193-.209-.498-.313-.916-.313-.355 0-.667.093-.936.28-.27.188-.422.412-.457.674l-1.1.011-.006-.035c.047-.48.326-.906.837-1.278.511-.373 1.131-.56 1.861-.56.69 0 1.233.185 1.627.554.394.368.542.892.445 1.57l-.457 3.05c-.039.238-.061.46-.067.664a3.39 3.39 0 0 0 .038.612h-1.188zm-1.785-.843c.398 0 .784-.11 1.159-.328.374-.218.634-.464.778-.737l.158-1.024h-1.293c-.449 0-.835.119-1.159.357-.324.238-.507.51-.55.819-.047.293.005.518.155.676.15.158.401.237.752.237zm10.317-2.083c-.144.948-.473 1.693-.986 2.235-.513.542-1.157.814-1.934.814-.378 0-.706-.07-.983-.208a1.676 1.676 0 0 1-.673-.612l-.468 3.131h-1.153l1.31-8.766h.885l.058.819c.24-.293.539-.53.878-.696.331-.16.702-.24 1.112-.24.753 0 1.307.315 1.662.945.355.63.458 1.448.31 2.455l-.018.123zm-1.135-.123c.113-.745.062-1.342-.152-1.791-.215-.449-.599-.673-1.153-.673-.32 0-.61.077-.869.231a2.23 2.23 0 0 0-.676.63l-.456 3.042c.109.262.269.466.48.612.21.146.485.22.825.22.522 0 .96-.203 1.313-.606.354-.404.577-.918.67-1.542l.018-.123zm3.91-.872h1.58c.717 0 1.264.181 1.64.544.377.363.523.827.437 1.393a2.184 2.184 0 0 1-.843 1.44c-.468.362-1.077.544-1.826.544H73.76l.948-6.332h1.153l-.363 2.41.001.001zm-.135.901l-.316 2.118h1.574c.394 0 .709-.1.945-.301.236-.2.377-.448.424-.74.043-.297-.018-.55-.184-.761-.166-.21-.456-.316-.87-.316h-1.573zm7.455 3.143c-.874 0-1.53-.295-1.969-.884-.439-.59-.588-1.35-.448-2.282l.041-.258c.137-.944.508-1.705 1.115-2.282.607-.578 1.294-.866 2.063-.866.815 0 1.403.267 1.762.801.358.535.474 1.231.345 2.09l-.088.608h-4.096c-.09.671-.024 1.2.198 1.589.223.388.627.582 1.212.582.374 0 .723-.056 1.044-.17.322-.113.6-.265.834-.456l.34.75a3.331 3.331 0 0 1-.977.552c-.395.15-.853.226-1.376.226zm.667-5.665c-.386 0-.736.156-1.05.468-.314.312-.54.706-.676 1.182l.012.035h2.85l.011-.094c.07-.472.016-.855-.163-1.15-.18-.294-.508-.441-.984-.441zm8.837 2.616c-.144.948-.473 1.693-.986 2.235-.513.542-1.158.814-1.934.814-.379 0-.706-.07-.983-.208a1.676 1.676 0 0 1-.673-.612l-.468 3.131h-1.154l1.31-8.766h.884l.059.819c.24-.293.539-.53.878-.696.331-.16.702-.24 1.112-.24.753 0 1.306.315 1.662.945.355.63.458 1.448.31 2.455l-.018.123h.001zm-1.135-.123c.113-.745.062-1.342-.152-1.791-.215-.449-.6-.673-1.153-.673-.32 0-.61.077-.87.231a2.238 2.238 0 0 0-.675.63l-.457 3.042c.11.262.27.466.48.612.21.146.486.22.825.22.523 0 .961-.203 1.314-.606.353-.404.577-.918.67-1.542l.018-.123z" fill="#6D6E71" fill-rule="nonzero"/><path d="M29.197 138.832c-.03-.152-.03-.273-.03-.425-.22.305-.499.563-.82.759-.327.205-.706.31-1.092.303-.637 0-1.123-.152-1.456-.516a1.851 1.851 0 0 1-.516-1.366c0-.606.242-1.062.728-1.395.486-.334 1.123-.516 1.942-.516h1.214v-.607c0-.364-.121-.668-.334-.88-.212-.213-.546-.334-.94-.334-.365 0-.668.09-.88.273a.895.895 0 0 0-.334.668h-1.064v-.03c-.03-.456.183-.88.638-1.245.455-.364 1.032-.577 1.73-.577.697 0 1.274.183 1.699.547.425.364.637.88.637 1.547v3.005c0 .212 0 .425.03.637.03.212.061.425.122.607h-1.184v.06c-.03-.181-.06-.364-.09-.515zm-1.837-.364c.395 0 .79-.091 1.093-.304.334-.212.546-.455.637-.728v-1.002h-1.244c-.455 0-.82.122-1.092.334-.253.196-.4.5-.395.82a1 1 0 0 0 .243.667c.182.122.425.213.758.213zm14.619.334c-.03-.152-.03-.273-.03-.425-.22.305-.499.563-.82.758a1.981 1.981 0 0 1-1.093.304c-.637 0-1.122-.152-1.456-.516a1.851 1.851 0 0 1-.516-1.366c0-.606.243-1.062.728-1.395.486-.334 1.123-.516 1.942-.516h1.214v-.607c0-.364-.121-.668-.334-.88-.212-.213-.546-.334-.94-.334-.364 0-.668.09-.88.273a.895.895 0 0 0-.334.668h-1.062v-.03c-.03-.456.182-.88.637-1.245.455-.364 1.032-.577 1.73-.577s1.274.183 1.7.547c.424.364.636.88.636 1.547v3.005c0 .212 0 .425.03.637.031.212.062.425.122.607H42.07v.06a16.87 16.87 0 0 0-.091-.515zm-1.837-.364c.394 0 .789-.092 1.092-.304.334-.212.546-.455.638-.728v-1.002h-1.245c-.455 0-.819.122-1.092.334-.253.196-.4.5-.395.82a1 1 0 0 0 .243.667c.182.121.425.213.759.213zm13.243-5.361c.685-.037 1.55.2 2.036.692.536.544.92 1.22.92 2.338 0 .989-.198 1.704-.666 2.282-.53.652-1.352.951-2.02.951-.693 0-1.445-.109-2.076-.692-.517-.478-.995-1.297-.948-2.44.053-1.262.46-1.982.948-2.439.493-.461 1.073-.652 1.806-.692zm.246.826c-.785 0-1.734.512-1.734 2.1 0 1.589.585 2.534 1.638 2.534 1.052 0 1.743-1.069 1.637-2.534-.107-1.464-.755-2.1-1.54-2.1h-.001zm-30.986-2.856h1.105v8.173h-1.105v-3.62h-3.997v3.62h-1.103v-8.173h1.103v3.715h3.997v-3.715zm9.142 2.075h1.07v1.846c0 1.252.88 1.657 2.645 1.212l.02-3.003h1.087v6.012h-1.087c.007-.876.007-1.598 0-2.166-1.148.311-2.86.332-3.464-.84-.246-.479-.266-.933-.27-1.368a71.54 71.54 0 0 1 0-1.694l-.001.001zm12.177 5.158c.008.259-.03.475-.03.94 2.502.16 2.534-2.02 2.429-5.193l2.029-.003v5.241h1.094v-6.102a123.6 123.6 0 0 0-4.243 0c-.077 2.369.483 5.247-1.28 5.117h.001zm242.361-10.448h-3.566c0 .662.135 1.14.406 1.436.355.388.729.529 1.241.477.896-.089 1.068-.329 1.439-.54l.377.647c-.44.456-1.146.684-2.116.684-1.455 0-2.342-1.206-2.4-2.641-.058-1.436.515-3.101 2.4-3.171 1.597.042 2.337 1.079 2.219 3.109v-.001zm-1.001-.789c-.01-1.01-.416-1.514-1.217-1.514-.802 0-1.24.505-1.314 1.514h2.531zm-13.079-2.316c.614-.033 1.391.18 1.826.621.48.488.824 1.095.824 2.096 0 .887-.177 1.528-.596 2.047-.474.585-1.213.853-1.812.853-.621 0-1.295-.098-1.861-.621-.464-.428-.893-1.163-.85-2.187.047-1.133.412-1.779.85-2.188.442-.414.962-.585 1.62-.62l-.001-.001zm.221.741c-.704 0-1.555.46-1.555 1.884s.525 2.271 1.469 2.271c.944 0 1.563-.958 1.467-2.271-.095-1.314-.677-1.884-1.38-1.884h-.001zm14.944-.634h.963v4.724h2.425v-4.724h1v4.724h.662v2.564h-.964v-1.77h-4.086v-5.518zm-23.539-1.891h.966v3.18h.61l2.676-3.18h1.106l-2.948 3.485 3.212 3.898h-1.216l-2.83-3.351h-.61v3.35h-.966v-7.382zm12.182 1.915h1.01v2.338h2.405v-2.338h.95v5.407h-.95v-2.275h-2.405v2.275h-1.01v-5.407z" fill="#2A3052" fill-rule="nonzero"/><path d="M183.914 166.592h-1.965v-6.502h1.965v6.502zm0 3.42h-1.965v-1.746h1.965v1.746zm-70.373-10.38h4.173c.755 0 2.71.571 2.842 2.342.088 1.18-.392 2.014-1.44 2.502 1.34.325 2.033 1.162 2.082 2.512.072 2.024-1.852 3.008-3.07 3.008h-4.587v-10.364zm1.644 8.959h2.358c.564 0 1.912-.104 1.912-1.67 0-1.568-1.662-1.671-1.912-1.671h-2.358v3.341zm.04-7.632v2.973h1.937c1.011 0 1.74-.52 1.678-1.626-.062-1.106-1.013-1.322-1.678-1.347h-1.937zm7.68 1.288h1.7v2.684h2.036c.491 0 2.92.38 2.804 2.575-.116 2.196-2.043 2.46-2.926 2.46h-3.615v-7.72l.001.001zm1.72 4.09v2.287h1.671c.417 0 1.446-.159 1.446-1.143 0-.985-1.05-1.144-1.446-1.144h-1.672.001zm32.897-4.24h1.7v2.684h2.037c.49 0 2.92.38 2.804 2.575-.117 2.196-2.044 2.461-2.927 2.461h-3.614v-7.72zm1.72 4.09v2.287h1.672c.417 0 1.445-.159 1.445-1.143 0-.985-1.05-1.143-1.445-1.143h-1.672v-.001zm-28.671-3.947h1.644v7.752h-1.644v-7.752zm34.676-.159h1.645v7.752h-1.645v-7.752zm-30.663.161h1.66v5.19l3.114-5.19h1.661v7.715h-1.66v-5.16l-3.052 5.16h-1.722l-.001-7.715zm13.398.035v1.347h-3.287v6.338h-1.794v-7.685h5.081zm1.057-.045l1.477.016.14.976c.774-1.113 2.183-1.403 3.415-.863 1.007.441 1.652 2.036 1.709 3.02.103 1.783.072 3.17-1.2 4.187-1.272 1.017-2.893.658-3.852-.362v3.725h-1.689v-10.699zm1.748 2.166c.021.988.007 2.208 0 3.523.873 1.227 2.022.855 2.569.518.57-.352.781-1.547.713-2.622-.048-.755-.426-1.97-1.201-2.222-.781-.254-1.456-.113-2.08.803h-.001zm18.534-2.163v7.719h10.052v-7.719h-1.752v6.326h-2.354v-6.326h-1.725v6.326h-2.49c-.021-3.694-.021-5.803 0-6.326h-1.731z" fill="#FFF" fill-rule="nonzero"/></g></svg>