<svg width="299" height="197" xmlns="http://www.w3.org/2000/svg"><g fill="none" fill-rule="evenodd"><path fill="#F1F2F2" d="M0 0h299v197H0z"/><path d="M1.987 1.98v193.04h295.026V1.98H1.987zM299 0v197H0V0h299z" fill="#C2C2C2" fill-rule="nonzero"/><path d="M4.887 56.168v-1.206h289.656v1.206H4.887zm0 40.33v-1.206h289.656v1.205H4.887zm0 40.329v-1.206h289.656v1.206H4.887zm0 40.292v-1.206h289.656v1.206H4.887zm34.38-141.7h1.206v158.864h-1.206V35.419zm36.665 0h1.206v158.864h-1.206V35.419zm36.627 0h1.206v158.864h-1.206V35.419zm36.665 0h1.206v158.864h-1.206V35.419zm36.628 0h1.206v158.864h-1.206V35.419zm36.627 0h1.206v158.864h-1.206V35.419zM4.887 116.643v-1.205h289.656v1.205H4.887z" fill="#DFDEDE" fill-rule="nonzero"/><path d="M4.887 65.161v-1.127h7.469v1.127H4.887zm14.938 0v-1.127h7.468v1.127h-7.468zm14.937 0v-1.127h7.469v1.127h-7.469zm14.938 0v-1.127h7.468v1.127H49.7zm14.937 0v-1.127h7.469v1.127h-7.469zm14.938 0v-1.127h7.468v1.127h-7.468zm14.937 0v-1.127h7.469v1.127h-7.469zm14.938 0v-1.127h7.468v1.127h-7.468zm14.937 0v-1.127h7.469v1.127h-7.469zm14.938 0v-1.127h7.468v1.127h-7.468zm14.937 0v-1.127h7.469v1.127h-7.469zm14.938 0v-1.127h7.468v1.127H169.2zm14.937 0v-1.127h7.469v1.127h-7.469zm14.938 0v-1.127h7.468v1.127h-7.468zm14.937 0v-1.127h7.469v1.127h-7.469zm14.938 0v-1.127h7.468v1.127h-7.468zm14.937 0v-1.127h7.469v1.127h-7.469zm14.938 0v-1.127h7.468v1.127h-7.468zm14.937 0v-1.127h7.469v1.127h-7.469zm14.938 0v-1.127h5.843v1.127H288.7z" fill="#15212D" fill-rule="nonzero"/><path fill="#2A3052" fill-rule="nonzero" d="M240.457 35.42h1.206v158.863h-1.206z"/><path d="M4.887 157.677v-1.128h7.469v1.128H4.887zm14.938 0v-1.128h7.468v1.128h-7.468zm14.937 0v-1.128h7.469v1.128h-7.469zm14.938 0v-1.128h7.468v1.128H49.7zm14.937 0v-1.128h7.469v1.128h-7.469zm14.938 0v-1.128h7.468v1.128h-7.468zm14.937 0v-1.128h7.469v1.128h-7.469zm14.938 0v-1.128h7.468v1.128h-7.468zm14.937 0v-1.128h7.469v1.128h-7.469zm14.938 0v-1.128h7.468v1.128h-7.468zm14.937 0v-1.128h7.469v1.128h-7.469zm14.938 0v-1.128h7.468v1.128H169.2zm14.937 0v-1.128h7.469v1.128h-7.469zm14.938 0v-1.128h7.468v1.128h-7.468zm14.937 0v-1.128h7.469v1.128h-7.469zm14.938 0v-1.128h7.468v1.128h-7.468zm14.937 0v-1.128h7.469v1.128h-7.469zm14.938 0v-1.128h7.468v1.128h-7.468zm14.937 0v-1.128h7.469v1.128h-7.469zm14.938 0v-1.128h5.843v1.128H288.7z" fill="#15212D" fill-rule="nonzero"/><path fill="#C2C2C2" fill-rule="nonzero" d="M2.794 35.436v-2.412h293.842v2.412z"/><path d="M56.641 102.229l-34.723 15.464a1.809 1.809 0 1 1-1.471-3.305l35.745-15.92a1.809 1.809 0 0 1 1.887.257l24.958 20.574 42.309-55.255c.879-1.148 2.683-.852 3.148.517l29.886 87.844 16.384-44.226c.11-.297.296-.56.539-.762l27.355-22.788a1.809 1.809 0 0 1 2.164-.113l36.927 24.744a1.809 1.809 0 0 1-2.014 3.005l-35.802-23.99-25.944 21.613-17.985 48.549c-.592 1.596-2.86 1.566-3.409-.046L126.16 68.93l-41.39 54.056a1.809 1.809 0 0 1-2.587.296L56.64 102.23z" fill="#2A3052" fill-rule="nonzero"/><ellipse cx="8.11" cy="9.374" rx="8.11" ry="8.4" opacity=".6" transform="translate(150.5 147.962)" fill="#FFF"/><path d="M158.61 166.943c-5.155 0-9.316-4.31-9.316-9.607 0-5.296 4.161-9.606 9.316-9.606 5.155 0 9.317 4.31 9.317 9.606s-4.162 9.607-9.317 9.607zm0-2.412c3.804 0 6.905-3.212 6.905-7.195 0-3.982-3.101-7.194-6.905-7.194-3.803 0-6.904 3.212-6.904 7.194 0 3.983 3.1 7.195 6.904 7.195z" fill="#E88024" fill-rule="nonzero"/><ellipse cx="8.979" cy="8.4" rx="8.11" ry="8.4" opacity=".6" transform="translate(117.862 56.755)" fill="#FFF"/><path d="M126.842 74.761c-5.155 0-9.317-4.31-9.317-9.606s4.162-9.606 9.317-9.606 9.316 4.31 9.316 9.606-4.161 9.606-9.316 9.606zm0-2.412c3.803 0 6.904-3.211 6.904-7.194s-3.1-7.194-6.904-7.194-6.905 3.211-6.905 7.194 3.101 7.194 6.905 7.194z" fill="#E88024" fill-rule="nonzero"/><path d="M18.417 131.526c-.03-.152-.03-.273-.03-.425-.22.305-.499.563-.82.759-.327.205-.706.31-1.092.303-.638 0-1.123-.152-1.457-.516a1.851 1.851 0 0 1-.516-1.365c0-.607.243-1.062.728-1.396.486-.334 1.123-.516 1.943-.516h1.213v-.607c0-.364-.121-.668-.333-.88-.213-.213-.547-.334-.941-.334-.364 0-.668.091-.88.273a.895.895 0 0 0-.334.668h-1.062v-.03c-.03-.456.182-.88.637-1.245.455-.364 1.032-.576 1.73-.576s1.274.182 1.7.546c.424.364.637.88.637 1.548v3.004c0 .212 0 .425.03.637.03.213.06.425.121.607h-1.183v.06c-.03-.181-.06-.363-.091-.515zm-1.837-.364c.394 0 .789-.091 1.092-.304.334-.212.547-.455.638-.728v-1.002h-1.245c-.455 0-.819.122-1.092.334-.253.196-.4.5-.395.82a1 1 0 0 0 .243.667c.182.122.425.213.759.213zm14.618.334c-.03-.152-.03-.273-.03-.425-.22.305-.499.563-.82.759-.327.205-.706.31-1.092.303-.637 0-1.123-.152-1.457-.516a1.851 1.851 0 0 1-.516-1.365c0-.607.243-1.062.729-1.396.485-.334 1.122-.516 1.942-.516h1.214v-.607c0-.364-.122-.668-.334-.88-.213-.213-.546-.334-.94-.334-.365 0-.668.091-.88.273a.895.895 0 0 0-.335.668h-1.062v-.03c-.03-.456.182-.88.637-1.245.456-.364 1.032-.576 1.73-.576s1.275.182 1.7.546c.424.364.637.88.637 1.548v3.004c0 .212 0 .425.03.637.03.213.06.425.122.607h-1.184v.06c-.03-.181-.06-.363-.091-.515zm-1.837-.364c.395 0 .79-.091 1.093-.304.333-.212.546-.455.637-.728v-1.002h-1.244c-.455 0-.82.122-1.093.334-.253.196-.399.5-.394.82a1 1 0 0 0 .242.667c.183.122.425.213.76.213h-.001zm13.243-5.361c.685-.037 1.551.2 2.036.692.536.544.92 1.221.92 2.338 0 .989-.198 1.704-.666 2.282-.529.653-1.352.951-2.02.951-.693 0-1.444-.109-2.076-.692-.517-.478-.995-1.296-.947-2.44.052-1.262.459-1.982.947-2.439.494-.461 1.073-.652 1.806-.692zm.247.826c-.786 0-1.735.512-1.735 2.1 0 1.589.586 2.534 1.638 2.534 1.053 0 1.744-1.069 1.637-2.533-.107-1.465-.755-2.1-1.54-2.1v-.001zm-30.986-2.856h1.104v8.174h-1.104v-3.621H7.87v3.62H6.765v-8.173H7.87v3.715h3.996l-.001-3.715zm9.142 2.074c.275.002.632.002 1.07 0v1.847c-.002 1.253.88 1.657 2.645 1.212l.02-3.003h1.086v6.012h-1.086c.006-.876.006-1.598 0-2.166-1.149.311-2.86.332-3.464-.84-.247-.479-.267-.932-.271-1.368a71.54 71.54 0 0 1 0-1.694zm12.176 5.159c.009.259-.029.475-.029.94 2.501.16 2.533-2.02 2.428-5.192l2.03-.004v5.241h1.093v-6.1c-1.716-.025-3.13-.025-4.243 0-.077 2.368.483 5.246-1.279 5.116v-.001zm81.932-81.569h.032l2.216-5.894h1.63v7.662h-1.278v-5.505l-.031-.005-2.11 5.51h-.88l-2.147-5.615-.031.01v5.605h-1.28v-7.662h1.68l2.2 5.894h-.001zm8.794 1.768a4.72 4.72 0 0 1-.113-.421 3.01 3.01 0 0 1-.06-.41 2.19 2.19 0 0 1-.69.67 1.773 1.773 0 0 1-.963.272c-.593 0-1.048-.153-1.366-.458-.317-.306-.476-.725-.476-1.258 0-.55.218-.98.653-1.287.435-.307 1.047-.46 1.836-.46h.995v-.5c0-.298-.087-.532-.26-.7-.174-.169-.426-.253-.756-.253-.29 0-.522.07-.694.208a.66.66 0 0 0-.258.54l-1.232.005-.005-.032c-.024-.449.176-.847.603-1.194.426-.348.981-.521 1.665-.521.663 0 1.198.168 1.605.505.407.337.61.82.61 1.452v2.532c0 .235.017.46.048.676.032.216.083.427.153.634h-1.295zm-1.563-.916c.32 0 .608-.08.866-.242.258-.161.429-.345.513-.552v-.842h-1.016c-.372 0-.663.092-.873.276-.21.184-.316.4-.316.65 0 .217.071.39.213.518.142.128.347.192.613.192zm5.92-1.336h-.578v2.252h-1.274v-5.694h1.274v2.273h.447l1.69-2.273h1.583l-2.147 2.715 2.321 2.979h-1.663l-1.652-2.252h-.001zm6.326 1.342c.291 0 .538-.092.74-.274a.896.896 0 0 0 .302-.695h1.158l.01.032c.015.533-.197.993-.634 1.379-.436.386-.962.579-1.576.579-.82 0-1.454-.271-1.9-.814-.445-.542-.668-1.225-.668-2.05v-.184c0-.82.223-1.503.668-2.047.446-.543 1.078-.815 1.895-.815.663 0 1.202.199 1.616.597.414.398.614.904.6 1.518l-.011.032h-1.158c0-.312-.096-.577-.29-.795a.965.965 0 0 0-.757-.326c-.456 0-.784.176-.984.529-.2.352-.3.788-.3 1.307v.185c0 .53.099.969.297 1.318.198.349.53.524.992.524zm4.087-.717c.237 0 .431.075.604.247a.83.83 0 0 1 .247.604.848.848 0 0 1-.247.604.885.885 0 0 1-.604.237.821.821 0 0 1-.593-.237.805.805 0 0 1-.248-.604.79.79 0 0 1 .248-.604c.151-.172.356-.247.593-.247zm10.613 128.491h.03l2.102-5.592h1.547v7.27h-1.213v-5.223l-.03-.005-2.002 5.227h-.833l-2.037-5.327-.03.01v5.317h-1.213v-7.269h1.592l2.087 5.592zm8.402-3.724h1.208v5.401h-1.208v-3.584l-.03-.01-2.086 3.594h-1.209v-5.401h1.209v3.58l.03.01 2.086-3.59zm6.995 5.401h-1.213v-2.181h-2.102v2.181h-1.213v-5.401h1.213v2.251h2.102v-2.251h1.213v5.401zm2.024-1.462c.205 0 .389.072.542.215a.755.755 0 0 1 .225.552.784.784 0 0 1-.225.542.812.812 0 0 1-.542.204.716.716 0 0 1-.531-.204.742.742 0 0 1-.225-.542c0-.225.071-.409.225-.552a.686.686 0 0 1 .531-.215z" fill="#2A3052" fill-rule="nonzero"/><path d="M20.331 19.041h.04L22.825 12h2.5v9.554h-1.916v-6.523l-.04-.006-2.362 6.529h-1.3l-2.362-6.542-.039.006v6.536H15.39V12h2.513l2.428 7.04v.001zm10.795 2.513a4.03 4.03 0 0 1-.18-.512 3.56 3.56 0 0 1-.109-.551c-.193.341-.46.635-.78.86-.325.227-.71.34-1.156.34-.744 0-1.317-.19-1.72-.573-.402-.383-.603-.905-.603-1.565 0-.696.268-1.235.804-1.618s1.318-.574 2.346-.574h1.076v-.565c0-.34-.09-.605-.269-.794-.18-.188-.446-.282-.8-.282-.311 0-.55.076-.719.227-.168.15-.253.357-.253.62H26.92l-.013-.04c-.03-.599.231-1.116.784-1.551.554-.436 1.277-.653 2.17-.653.852 0 1.542.214 2.07.643.527.428.79 1.043.79 1.844v2.933c0 .332.025.645.076.938.05.293.13.584.24.873h-1.911zm-1.752-1.28c.332 0 .63-.083.892-.249.263-.166.442-.359.538-.577v-1.004h-1.076c-.407 0-.714.1-.922.301a.992.992 0 0 0-.312.742c0 .24.078.432.233.574.156.142.371.213.647.213zm7.546-1.378h-.735v2.658H34.27v-7.1h1.916v2.703h.571l1.627-2.703h2.422l-2.35 3.294 2.56 3.806h-2.553l-1.542-2.658h-.001zm7.756 1.326c.333 0 .598-.1.794-.299.197-.199.296-.464.296-.797h1.745l.013.04c.018.717-.249 1.317-.8 1.8-.551.484-1.234.726-2.048.726-1.05 0-1.861-.336-2.434-1.007-.573-.672-.86-1.53-.86-2.576v-.197c0-1.041.286-1.9.857-2.576.57-.675 1.379-1.013 2.424-1.013.866 0 1.564.249 2.094.748.529.498.785 1.155.767 1.968l-.013.04h-1.745c0-.368-.098-.673-.292-.916-.195-.243-.465-.364-.81-.364-.495 0-.846.198-1.054.594-.208.396-.312.902-.312 1.52v.196c0 .63.104 1.14.312 1.529.208.39.563.584 1.066.584zm6.09 1.332H48.85v-1.68h1.916v1.68zm5.873-3.347h-3.865v-1.476h3.865v1.476zm6.85.834h.04L65.983 12h2.5v9.554h-1.916v-6.523l-.039-.006-2.362 6.529h-1.3l-2.362-6.542-.04.006v6.536H58.55V12h2.513l2.428 7.04-.002.001zm10.848-4.587h1.91v7.1h-1.91v-4.331l-.04-.007-2.316 4.338h-1.916v-7.1h1.916v4.318l.04.006 2.316-4.324zm9.482 7.1h-1.916v-2.756h-2.336v2.756h-1.916v-7.1h1.916v2.874h2.336v-2.874h1.916v7.1zm3.577 0h-1.917v-1.68h1.917v1.68z" fill="#020202" fill-rule="nonzero"/><path d="M268.8 118.424h-3.388c0 .629.128 1.083.385 1.364.337.368.693.502 1.18.453.85-.085 1.015-.313 1.367-.513l.359.615c-.42.433-1.09.65-2.012.65-1.382 0-2.225-1.146-2.28-2.51-.055-1.364.489-2.947 2.28-3.013 1.518.04 2.221 1.025 2.11 2.954h-.001zm-.951-.75c-.01-.96-.395-1.44-1.157-1.44-.761 0-1.177.48-1.248 1.44h2.405zm-12.428-2.201c.584-.032 1.322.17 1.735.59.457.463.783 1.04.783 1.992 0 .842-.168 1.452-.567 1.944-.45.556-1.152.811-1.721.811-.59 0-1.23-.093-1.769-.59-.44-.407-.848-1.105-.807-2.078.045-1.076.39-1.69.807-2.08.42-.392.915-.555 1.54-.589h-.001zm.21.704c-.669 0-1.478.436-1.478 1.79 0 1.353.5 2.158 1.396 2.158.897 0 1.485-.91 1.395-2.158-.091-1.248-.644-1.79-1.313-1.79zm14.199-.602h.916v4.488h2.304v-4.488h.95v4.488h.63v2.436h-.916v-1.682h-3.883l-.001-5.242zm-22.366-1.797h.918v3.02h.579l2.543-3.02h1.051l-2.801 3.311 3.052 3.704h-1.155l-2.69-3.185h-.58v3.185h-.917v-7.015zm11.576 1.819h.96v2.222h2.284v-2.222h.903v5.138h-.903v-2.161H260v2.161h-.96v-5.138z" fill="#2A3052" fill-rule="nonzero"/></g></svg>