<svg width="299" height="197" xmlns="http://www.w3.org/2000/svg"><g fill="none" fill-rule="evenodd"><path fill="#F2F2F2" d="M0 0h299v197H0z"/><path d="M1.987 1.98v193.04h295.026V1.98H1.987zM299 0v197H0V0h299z" fill="#C2C2C2" fill-rule="nonzero"/><path d="M4.887 56.446v-1.207h289.656v1.207H4.887zm0 40.534v-1.207h289.656v1.207H4.887zm0 40.534v-1.207h289.656v1.207H4.887zm0 40.496v-1.207h289.656v1.207H4.887zm34.38-142.416h1.206v159.67h-1.206V35.594zm36.664 0h1.207v159.67h-1.207V35.594zm36.628 0h1.207v159.67h-1.207V35.594zm36.665 0h1.207v159.67h-1.207V35.594zm36.627 0h1.207v159.67h-1.207V35.594zm36.628 0h1.207v159.67h-1.207V35.594zM4.887 117.228v-1.207h289.656v1.207H4.887z" fill="#DEDEDD" fill-rule="nonzero"/><path fill="#293152" d="M4.887 76.731v-1.206h289.656v1.206z"/><path fill="#DEDEDD" fill-rule="nonzero" d="M4.887 157.762v-1.207h289.656v1.207z"/><path fill="#293152" d="M259.144 35.594h1.207v159.67h-1.207z"/><path fill="#C2C2C2" d="M2.794 35.606V33.19h293.842v2.415z"/><path d="M41.087 138.25a1.81 1.81 0 1 1-2.434-2.68l36.665-33.287a1.81 1.81 0 0 1 2.332-.086l31.97 24.988 32.488-24.996a1.81 1.81 0 0 1 2.247.031l33.563 27.343 35.438-31.587a1.81 1.81 0 0 1 1.684-.394l45.186 12.403a1.81 1.81 0 0 1-.958 3.491l-44.237-12.142-35.856 31.959a1.81 1.81 0 0 1-2.348.052l-33.647-27.412-32.464 24.978a1.81 1.81 0 0 1-2.22-.009L76.623 105.99l-35.535 32.26z" fill="#293152"/><path d="M187.987 147.445h-34.945l-5.382-8.181-5.382 8.181h-34.946c-2.616 0-4.71 2.13-4.71 4.782v24.694c0 2.653 2.131 4.782 4.71 4.782h80.692c2.617 0 4.71-2.13 4.71-4.782v-24.694c0-2.652-2.13-4.782-4.747-4.782z" fill="#E88124"/><ellipse cx="8.335" cy="8.863" rx="8.11" ry="8.443" opacity=".6" transform="translate(251.412 102.868)" fill="#FFF"/><path d="M259.747 121.38c-5.157 0-9.317-4.33-9.317-9.65 0-5.318 4.16-9.65 9.317-9.65s9.318 4.332 9.318 9.65c0 5.32-4.16 9.65-9.318 9.65zm0-2.413c3.802 0 6.903-3.23 6.903-7.236 0-4.007-3.101-7.236-6.903-7.236-3.801 0-6.903 3.229-6.903 7.236s3.102 7.236 6.903 7.236z" fill="#E88124" fill-rule="nonzero"/><ellipse cx="8.97" cy="8.891" rx="8.11" ry="8.443" opacity=".6" transform="translate(30.9 128.019)" fill="#FFF"/><path d="M39.87 146.56c-5.157 0-9.317-4.33-9.317-9.65 0-5.319 4.16-9.65 9.317-9.65s9.317 4.331 9.317 9.65c0 5.32-4.16 9.65-9.317 9.65zm0-2.414c3.802 0 6.903-3.229 6.903-7.236s-3.101-7.236-6.903-7.236c-3.802 0-6.903 3.23-6.903 7.236 0 4.007 3.101 7.236 6.903 7.236z" fill="#E88124" fill-rule="nonzero"/><path d="M47.673 19.936h-.857v3.098h-2.233v-8.276h2.233v3.151h.665l1.897-3.15H52.2l-2.738 3.839 2.983 4.436H49.47l-1.797-3.098zm10.584 3.098a4.697 4.697 0 0 1-.21-.597 4.15 4.15 0 0 1-.126-.642c-.23.402-.533.736-.91 1.001-.377.266-.826.398-1.346.398-.867 0-1.535-.223-2.004-.669-.47-.446-.704-1.054-.704-1.824 0-.81.313-1.44.937-1.885.625-.446 1.536-.67 2.734-.67h1.255v-.657c0-.398-.105-.706-.314-.926-.209-.219-.52-.329-.933-.329-.362 0-.641.088-.837.264-.197.176-.295.417-.295.723h-2.149l-.015-.046c-.036-.698.269-1.301.914-1.809.645-.507 1.487-.76 2.527-.76.995 0 1.799.25 2.413.749.615.5.922 1.216.922 2.149v3.419c0 .387.03.752.088 1.093.059.342.152.681.279 1.018h-2.226zm-2.042-1.492c.388 0 .735-.097 1.04-.29.306-.194.516-.419.628-.673v-1.17h-1.255c-.474 0-.832.117-1.074.351-.238.224-.37.538-.363.864 0 .28.09.504.271.67.181.165.432.248.753.248zm9.033-.061c.387 0 .696-.116.925-.348.23-.232.344-.542.344-.93h2.035l.015.047c.02.836-.29 1.536-.933 2.1-.642.562-1.438.844-2.386.844-1.224 0-2.17-.391-2.838-1.174-.668-.782-1.002-1.783-1.002-3.002v-.23c0-1.213.333-2.213.999-3.001.665-.788 1.607-1.182 2.825-1.182 1.01 0 1.823.291 2.44.872.617.582.915 1.346.895 2.295l-.015.046h-2.035c0-.429-.113-.784-.34-1.067-.227-.283-.542-.425-.945-.425-.576 0-.985.23-1.227.692-.242.462-.363 1.052-.363 1.77v.23c0 .735.12 1.329.363 1.782.242.454.656.681 1.243.681zm9.499 1.553a4.697 4.697 0 0 1-.21-.597 4.15 4.15 0 0 1-.127-.642c-.23.402-.533.736-.91 1.001-.377.266-.826.398-1.346.398-.867 0-1.535-.223-2.004-.669-.469-.446-.703-1.054-.703-1.824 0-.81.312-1.44.936-1.885.625-.446 1.536-.67 2.735-.67h1.254v-.657c0-.398-.105-.706-.314-.926-.209-.219-.52-.329-.933-.329-.362 0-.64.088-.837.264-.196.176-.295.417-.295.723h-2.149l-.015-.046c-.036-.698.269-1.301.914-1.809.645-.507 1.487-.76 2.528-.76.994 0 1.798.25 2.413.749.614.5.921 1.216.921 2.149v3.419c0 .387.03.752.088 1.093.059.342.152.681.28 1.018h-2.226zm-2.042-1.492a1.91 1.91 0 0 0 1.04-.29c.306-.194.515-.419.627-.673v-1.17h-1.254c-.475 0-.833.117-1.075.351-.238.224-.37.538-.363.864 0 .28.09.504.271.67.181.165.432.248.754.248zm12.726 1.492h-2.233V19.82h-2.723v3.213h-2.233v-8.276h2.233v3.35h2.723v-3.35h2.233v8.277zm6.63-8.276h2.226v8.276h-2.225v-5.048l-.046-.008-2.7 5.056h-2.233v-8.276h2.233v5.033l.046.007 2.7-5.04h-.001zm10.876 0v8.276h-2.217v-2.899h-1.347l-1.62 2.899h-2.257l1.828-3.266c-.505-.224-.894-.533-1.167-.926a2.29 2.29 0 0 1-.409-1.338c0-.806.32-1.465.96-1.977.64-.512 1.503-.769 2.589-.769h3.64zm-4.955 2.807c0 .286.11.534.332.746.222.211.537.317.945.317h1.46v-2.164h-1.422c-.418 0-.742.112-.971.336-.23.225-.344.48-.344.765zm-73.498 5.469h-2.233v-4.628h-4.535v4.628h-2.234V11.898h2.234v4.788h4.535v-4.788h2.233v11.136zm5.469.16c-1.234 0-2.198-.378-2.891-1.136-.694-.757-1.04-1.732-1.04-2.925v-.306c0-1.239.336-2.253 1.01-3.044.672-.79 1.598-1.183 2.775-1.178 1.112 0 1.965.34 2.559 1.021.594.681.89 1.598.89 2.75v1.155h-4.932l-.023.046c.035.566.207 1.024.516 1.376.308.352.766.528 1.373.528.5 0 .924-.051 1.273-.153.35-.102.71-.257 1.082-.466l.605 1.376c-.332.27-.78.497-1.347.68a5.97 5.97 0 0 1-1.85.276zm-.146-6.868c-.448 0-.794.154-1.036.463-.242.308-.389.718-.44 1.227l.016.039h2.722v-.169c0-.484-.1-.865-.298-1.143-.199-.278-.52-.417-.964-.417zm11.671.138h-2.646v6.57h-2.24v-6.57h-2.609v-1.706h7.495v1.706z" fill="#000" fill-rule="nonzero"/><path d="M29.227 162.33c-.033-.168-.033-.303-.033-.47-.243.337-.55.623-.906.839a2.19 2.19 0 0 1-1.208.335c-.705 0-1.242-.168-1.611-.57a2.047 2.047 0 0 1-.57-1.51c0-.671.268-1.175.805-1.544s1.241-.57 2.147-.57h1.343v-.671c0-.403-.135-.739-.37-.974-.234-.234-.604-.369-1.04-.369-.402 0-.738.101-.973.302-.235.202-.369.47-.369.739h-1.174v-.034c-.034-.503.2-.973.704-1.376.504-.402 1.141-.637 1.913-.637s1.41.201 1.879.604c.47.402.705.973.705 1.711v3.322c0 .235 0 .47.033.705.034.235.067.47.134.67h-1.308v.068c-.034-.201-.067-.403-.1-.57h-.001zm-2.031-.403c.436 0 .872-.1 1.208-.336.37-.235.604-.503.705-.805v-1.107h-1.376c-.503 0-.906.134-1.208.369-.302.235-.436.57-.436.906 0 .302.1.537.268.738.201.134.47.235.839.235zm16.164.369c-.034-.168-.034-.302-.034-.47-.243.338-.55.623-.906.84a2.19 2.19 0 0 1-1.208.335c-.704 0-1.241-.168-1.61-.57a2.047 2.047 0 0 1-.57-1.51c0-.672.268-1.175.804-1.544.537-.37 1.242-.57 2.148-.57h1.342v-.672c0-.402-.134-.738-.369-.973s-.604-.369-1.04-.369c-.403 0-.738.1-.973.302-.235.201-.37.47-.37.738H39.4v-.033c-.033-.504.202-.973.705-1.376.503-.403 1.14-.637 1.913-.637.771 0 1.409.2 1.879.604.47.402.704.973.704 1.71v3.323c0 .235 0 .47.034.704.033.235.067.47.134.672H43.46v.067c-.03-.19-.064-.38-.1-.57v-.001zm-2.031-.402c.436 0 .872-.101 1.208-.336.369-.235.604-.503.704-.805v-1.108h-1.375c-.504 0-.906.135-1.208.37-.302.234-.437.57-.437.905 0 .302.101.537.269.739.201.134.47.235.839.235zm14.643-5.928c.757-.041 1.715.222 2.251.766.593.601 1.017 1.35 1.017 2.584 0 1.094-.219 1.885-.736 2.524-.585.721-1.495 1.052-2.234 1.052-.766 0-1.597-.12-2.295-.766-.572-.528-1.1-1.433-1.048-2.697.059-1.396.508-2.193 1.048-2.697.546-.51 1.187-.722 1.997-.766zm.272.914c-.868 0-1.918.566-1.918 2.322 0 1.756.648 2.801 1.812 2.801 1.164 0 1.928-1.181 1.81-2.8-.118-1.62-.835-2.323-1.704-2.323zm-34.261-3.158h1.22v9.037h-1.22v-4.003h-4.42v4.003h-1.22v-9.037h1.22v4.107h4.42v-4.107zm10.107 2.293c.305.002.7.002 1.184 0v2.042c-.001 1.385.973 1.832 2.925 1.34l.022-3.32h1.201v6.648h-1.201c.007-.97.007-1.768 0-2.396-1.27.345-3.162.367-3.83-.928-.273-.53-.295-1.031-.3-1.513a79.104 79.104 0 0 1 0-1.873h-.001zm13.465 5.705c.01.286-.032.525-.032 1.04 2.765.175 2.8-2.234 2.684-5.743l2.244-.003v5.795h1.21v-6.747a135.68 135.68 0 0 0-4.692 0c-.085 2.619.534 5.801-1.414 5.657v.001zm243.163-34.324h-3.924c0 .728.149 1.255.446 1.58.391.427.803.581 1.367.525.985-.098 1.175-.362 1.583-.595l.415.713c-.485.501-1.262.752-2.33.752-1.6 0-2.577-1.327-2.64-2.907-.064-1.58.566-3.412 2.64-3.49 1.759.047 2.573 1.188 2.443 3.422zm-1.101-.869c-.012-1.11-.458-1.666-1.34-1.666-.882 0-1.364.555-1.446 1.666h2.786zm-14.394-2.549c.676-.036 1.53.198 2.009.684.53.536.907 1.204.907 2.307 0 .976-.195 1.681-.656 2.252-.522.644-1.335.939-1.994.939-.684 0-1.426-.108-2.049-.684-.51-.471-.982-1.279-.935-2.407.052-1.246.453-1.957.935-2.407.487-.456 1.06-.644 1.783-.684zm.243.816c-.775 0-1.712.505-1.712 2.073 0 1.567.578 2.5 1.617 2.5 1.039 0 1.72-1.055 1.615-2.5-.105-1.446-.745-2.073-1.52-2.073zm16.446-.698h1.06v5.199h2.669v-5.199h1.1v5.199h.73v2.822h-1.061v-1.95h-4.498v-6.071zm-25.906-2.081h1.064v3.499h.67l2.946-3.499h1.217l-3.244 3.835 3.535 4.29h-1.338l-3.116-3.688h-.67v3.688h-1.064v-8.125zm13.407 2.107h1.112v2.573h2.647v-2.573h1.045v5.951h-1.045v-2.503h-2.647v2.503h-1.112v-5.951z" fill="#2A3052" fill-rule="nonzero"/><path d="M36.854 66.146c.056.136.12.28.271.601-1.138.867-2.448.75-3.06.39-.92-.54-.92-1.542-.916-2.317.006-.99.733-2.83 2.758-2.83s1.692 2.187 1.594 2.83c-.207 0-1.324.02-3.35.06-.188 2.405 1.63 1.867 2.703 1.266zm-.122-1.934c.119-.95-.173-1.424-.875-1.424-1.052 0-1.42 1.114-1.538 1.424h2.413zm-10.001-3.987h.95l-.95 6.371h3.46l.948-6.371h1.075l-1.075 6.371h.91l-.342 2.513h-.968l.23-1.726h-5.3l1.062-7.158zm14.911 7.104h.954l.76-5.234c-1.205.016-2.433.016-3.684 0-.41 2.502-.564 4.635-1.806 4.419l-.136.815c.813 0 1.356-.166 1.63-.499 1.002-1.215.954-2.939 1.126-4.01h1.81l-.654 4.509zm3.056-5.272h.904c-.156 1.193-.253 1.867-.29 2.023h1.655c.697 0 1.498.59 1.454 1.422-.065 1.218-1.163 1.848-2.028 1.848H43.89c.167-1.381.437-3.146.808-5.293zm.25 4.542h1.403c.213 0 .953-.145 1.07-.892.116-.746-.62-.89-.807-.89h-1.398l-.268 1.782z" fill="#6D6E71" fill-rule="nonzero"/><path d="M185.178 165.813h-2.005v-6.635h2.005v6.635zm0 3.491h-2.005v-1.782h2.005v1.782zm-71.808-10.591h4.259c.77 0 2.766.582 2.9 2.388.09 1.205-.4 2.056-1.47 2.554 1.367.331 2.075 1.186 2.124 2.562.075 2.066-1.89 3.07-3.13 3.07h-4.682v-10.574h-.001zm1.679 9.14h2.406c.575 0 1.95-.106 1.95-1.705s-1.696-1.704-1.95-1.704h-2.406v3.41-.001zm.04-7.787v3.033h1.976c1.032 0 1.777-.53 1.713-1.659-.064-1.128-1.034-1.35-1.713-1.374h-1.976zm7.836 1.314h1.735v2.738h2.078c.5 0 2.98.387 2.861 2.628-.119 2.24-2.085 2.511-2.986 2.511h-3.688v-7.877zm1.755 4.174v2.333h1.706c.426 0 1.475-.162 1.475-1.167 0-1.005-1.072-1.166-1.475-1.166h-1.706zm33.568-4.327h1.736v2.738h2.077c.501 0 2.98.387 2.861 2.628-.119 2.24-2.085 2.511-2.986 2.511h-3.688v-7.877zm1.755 4.174v2.333h1.706c.426 0 1.475-.162 1.475-1.167 0-1.005-1.071-1.166-1.475-1.166h-1.706zm-29.255-4.029h1.678v7.91h-1.678v-7.91zm35.383-.162h1.678v7.91h-1.678v-7.91zm-31.288.165h1.693v5.296l3.178-5.296h1.695v7.872h-1.695v-5.265l-3.113 5.265h-1.758v-7.872zm13.671.035v1.375h-3.355v6.467h-1.83v-7.842h5.185zm1.079-.045l1.506.016.144.996c.79-1.136 2.227-1.432 3.484-.88 1.027.45 1.686 2.077 1.744 3.081.105 1.819.073 3.235-1.225 4.272-1.298 1.038-2.952.672-3.93-.369v3.801h-1.723v-10.917zm1.783 2.21c.022 1.008.007 2.252 0 3.595.89 1.251 2.063.872 2.621.528.583-.36.798-1.579.728-2.676-.049-.77-.435-2.01-1.226-2.267-.797-.26-1.486-.115-2.123.82zm18.912-2.207v7.876h10.257v-7.876h-1.788v6.455h-2.402v-6.455h-1.76v6.455h-2.541c-.022-3.77-.022-5.922 0-6.455h-1.766z" fill="#FFF" fill-rule="nonzero"/></g></svg>