<svg width="299" height="197" xmlns="http://www.w3.org/2000/svg"><g fill="none"><path fill="#F1F1F2" d="M0 0h299v197H0z"/><path d="M1.987 1.98v193.04h295.026V1.98H1.987zM299 0v197H0V0h299z" fill="#C2C2C2"/><path d="M4.58 54.993v-1.212h290.408v1.212H4.58zm0 20.08V73.86h290.408v1.212H4.58zm0 60.274v-1.212h290.408v1.212H4.58zm0 20.078v-1.212h290.408v1.212H4.58zm0 20.08v-1.213h290.408v1.212H4.58zM39.059 34.307h1.212V192.59h-1.212V34.308zm36.75 0h1.212V192.59H75.81V34.308zm36.75 0h1.213V192.59h-1.212V34.308zm36.713 0h1.212V192.59h-1.212V34.308zm36.751 0h1.212V192.59h-1.212V34.308zm36.75 0h1.213V192.59h-1.213V34.308zm36.751 0h1.212V192.59h-1.212V34.308zM4.58 115.268v-1.212h290.408v1.212H4.58z" fill="#DEDEDD"/><path fill="#293052" d="M4.58 95.189v-1.212h1.816v1.212zm5.45 0v-1.212h3.636v1.212H10.03zm7.272 0v-1.212h3.636v1.212h-3.636zm7.272 0v-1.212h3.636v1.212h-3.636zm7.272 0v-1.212h3.636v1.212h-3.636zm7.272 0v-1.212h3.636v1.212h-3.636zm7.272 0v-1.212h3.636v1.212H46.39zm7.272 0v-1.212h3.636v1.212h-3.636zm7.272 0v-1.212h3.636v1.212h-3.636zm7.272 0v-1.212h3.636v1.212h-3.636zm7.272 0v-1.212h3.636v1.212h-3.636zm7.272 0v-1.212h3.636v1.212H82.75zm7.273 0v-1.212h3.636v1.212h-3.636zm7.272 0v-1.212h3.636v1.212h-3.636zm7.272 0v-1.212h3.636v1.212h-3.636zm7.272 0v-1.212h3.636v1.212h-3.636zm7.272 0v-1.212h3.636v1.212h-3.636zm7.272 0v-1.212h3.636v1.212h-3.636zm7.272 0v-1.212h3.636v1.212h-3.636zm7.272 0v-1.212h3.636v1.212h-3.636zm7.272 0v-1.212h3.636v1.212H148.2zm7.272 0v-1.212h3.636v1.212h-3.636zm7.272 0v-1.212h3.636v1.212h-3.636zm7.272 0v-1.212h3.636v1.212h-3.636zm7.272 0v-1.212h3.636v1.212h-3.636zm7.272 0v-1.212h3.636v1.212h-3.636zm7.272 0v-1.212h3.637v1.212h-3.637zm7.273 0v-1.212h3.636v1.212h-3.636zm7.272 0v-1.212h3.636v1.212h-3.636zm7.272 0v-1.212h3.636v1.212h-3.636zm7.272 0v-1.212h3.636v1.212h-3.636zm7.272 0v-1.212h3.636v1.212h-3.636zm7.272 0v-1.212h3.636v1.212h-3.636zm7.272 0v-1.212h3.636v1.212h-3.636zm7.272 0v-1.212h3.636v1.212h-3.636zm7.272 0v-1.212h3.636v1.212h-3.636zm7.272 0v-1.212h3.636v1.212h-3.636zm7.272 0v-1.212h3.636v1.212h-3.636zm7.272 0v-1.212h3.636v1.212h-3.636zm7.272 0v-1.212h3.636v1.212h-3.636zm6.842 0v-1.212h1.778v1.212z"/><path fill="#C2C2C2" d="M2 30v-2h296v2z"/><path d="M222.098 93.32a1.8 1.8 0 1 1 2.563 2.526l-31.755 32.202a1.8 1.8 0 0 1-2.118.33l-41.55-21.853-42.212 24.394a1.8 1.8 0 0 1-1.698.054l-29.71-14.699a1.8 1.8 0 0 1-.356-.231l-36.75-30.687a1.8 1.8 0 1 1 2.306-2.762l36.587 30.55 28.655 14.177 42.237-24.408a1.8 1.8 0 0 1 1.738-.035l41.246 21.693 30.817-31.251z" fill="#293052"/><path d="M255.777 116.442l.682-6.592h5.98v1.44h-4.58l-.378 3.372c.257-.186.537-.339.832-.455a3.1 3.1 0 0 1 1.06-.19 3.216 3.216 0 0 1 2.612 1.061 4.36 4.36 0 0 1 .946 2.955 4.208 4.208 0 0 1-.946 2.88 3.556 3.556 0 0 1-2.801 1.098 3.782 3.782 0 0 1-2.536-.833 2.88 2.88 0 0 1-.984-2.463h1.476a2.009 2.009 0 0 0 .568 1.516c.402.366.933.557 1.476.53a1.892 1.892 0 0 0 1.59-.72 3.11 3.11 0 0 0 .378-2.045 2.995 2.995 0 0 0-.568-1.895 1.892 1.892 0 0 0-1.59-.72 2.534 2.534 0 0 0-1.362.304c-.305.21-.532.517-.643.871l-1.212-.114zm6.018 20.572h1.628v1.288h-1.628v2.765h-1.627v-2.803h-5.375v-.91l5.261-8.296h1.703v7.956h.038zm-5.26 0h3.784v-5.645.417l-3.785 5.228zm.832 17.73h1.4a1.891 1.891 0 0 0 1.514-.53c.328-.435.49-.973.455-1.516a2.199 2.199 0 0 0-.492-1.553 1.967 1.967 0 0 0-1.514-.53 2.08 2.08 0 0 0-1.514.567 1.971 1.971 0 0 0-.568 1.478h-1.4a2.918 2.918 0 0 1 .984-2.311 3.783 3.783 0 0 1 2.687-.947 3.782 3.782 0 0 1 2.65.871 3.222 3.222 0 0 1 .983 2.539 2.88 2.88 0 0 1-1.779 2.614c.622.17 1.16.56 1.514 1.098a3.564 3.564 0 0 1-.643 4.281 4.01 4.01 0 0 1-2.725.947 4.123 4.123 0 0 1-2.725-.871 2.843 2.843 0 0 1-1.022-2.387h1.552c-.037.563.17 1.115.567 1.516a2.194 2.194 0 0 0 1.59.568 2.232 2.232 0 0 0 1.627-.568 2.16 2.16 0 0 0 .644-1.895 1.857 1.857 0 0 0-2.157-2.159h-1.628v-1.212zm5.715 26.33h-7.759v-1.137l3.785-4.357a11.06 11.06 0 0 0 1.438-1.856c.241-.429.371-.91.379-1.402a2.237 2.237 0 0 0-.53-1.515 1.74 1.74 0 0 0-1.4-.606 2.383 2.383 0 0 0-1.817.644 2.54 2.54 0 0 0-.606 1.78h-1.438a3.373 3.373 0 0 1 1.022-2.614 4.047 4.047 0 0 1 2.952-1.06 3.518 3.518 0 0 1 2.574.947c.632.63.975 1.494.946 2.386a3.791 3.791 0 0 1-.568 1.97 12.652 12.652 0 0 1-1.627 2.122l-3.142 3.41h5.753v1.287h.038zm0-110.586a16.86 16.86 0 0 0-2.914 4.584 20.55 20.55 0 0 0-1.098 4.85v1.288h-1.703v-1.288a17.63 17.63 0 0 1 1.4-5.153 19.627 19.627 0 0 1 2.726-4.357h-6.51V69.2h8.1v1.288zm-.454-17.616a2.654 2.654 0 0 1-.53 1.629 3.104 3.104 0 0 1-1.438 1.06 3.785 3.785 0 0 1 1.665 1.137c.404.505.618 1.135.606 1.78a3.07 3.07 0 0 1-1.098 2.54 4.992 4.992 0 0 1-5.64 0 3.108 3.108 0 0 1-1.059-2.54 2.805 2.805 0 0 1 .606-1.78 3.52 3.52 0 0 1 1.627-1.136 3.028 3.028 0 0 1-1.4-1.061 2.73 2.73 0 0 1-.492-1.63 3.07 3.07 0 0 1 .984-2.424 3.778 3.778 0 0 1 2.573-.871 3.782 3.782 0 0 1 2.574.871 3.032 3.032 0 0 1 1.022 2.425zm-1.287 5.569a2.16 2.16 0 0 0-.643-1.63 2.27 2.27 0 0 0-1.628-.643 2.198 2.198 0 0 0-2.27 2.273 2.08 2.08 0 0 0 .643 1.591 2.647 2.647 0 0 0 3.293 0c.423-.417.644-.998.605-1.591zm-.19-5.531a2.047 2.047 0 0 0-.567-1.478 2.005 2.005 0 0 0-2.8 0 2.085 2.085 0 0 0-.53 1.478c-.031.544.16 1.077.53 1.477a2.08 2.08 0 0 0 2.8 0c.384-.394.589-.928.568-1.477z" fill="#808184"/><path d="M188.65 147.07h-35.047l-5.526-8.07-5.299 8.07h-35.047a4.733 4.733 0 0 0-4.731 4.735v24.511a4.733 4.733 0 0 0 4.731 4.736h80.92a4.729 4.729 0 0 0 3.418-1.346 4.738 4.738 0 0 0 1.426-3.39v-24.473a4.738 4.738 0 0 0-1.412-3.414 4.729 4.729 0 0 0-3.433-1.36z" fill="#E88024"/><ellipse cx="8.43" cy="8.448" rx="8.137" ry="8.373" opacity=".6" transform="translate(214.95 86.135)" fill="#FFF"/><path d="M223.38 104.167c-5.172 0-9.35-4.298-9.35-9.584s4.178-9.585 9.35-9.585c5.17 0 9.349 4.3 9.349 9.585 0 5.286-4.178 9.584-9.35 9.584zm0-2.424c3.816 0 6.925-3.198 6.925-7.16s-3.109-7.16-6.926-7.16c-3.816 0-6.925 3.198-6.925 7.16s3.109 7.16 6.925 7.16zm22.898-15.987h28.575v18.79h-28.575z" fill="#E88024"/><path d="M259.979 88.9a5.71 5.71 0 0 1 1.249 0c.389.092.769.218 1.135.379l-.416 1.743-.984-.265h-.984a2.157 2.157 0 0 0-1.741.833 3.336 3.336 0 0 0-.606 2.273 2.763 2.763 0 0 1 1.022-.644c.448-.163.923-.24 1.4-.227a3.027 3.027 0 0 1 2.498 1.136c.63.839.951 1.87.909 2.917a4.132 4.132 0 0 1-1.136 2.993 3.783 3.783 0 0 1-2.914 1.175 4.01 4.01 0 0 1-3.104-1.288 5.042 5.042 0 0 1-1.173-3.562v-2.348a5.117 5.117 0 0 1 1.363-3.789 4.615 4.615 0 0 1 3.482-1.326zm-.568 5.948a2.723 2.723 0 0 0-1.136.227 1.741 1.741 0 0 0-.719.569v.795a3.8 3.8 0 0 0 .53 2.198c.291.473.808.76 1.363.757a1.362 1.362 0 0 0 1.173-.682 2.92 2.92 0 0 0 .53-1.667c.03-.578-.13-1.15-.454-1.629a1.438 1.438 0 0 0-1.287-.606v.038z" fill="#FFF"/><path fill="#E88024" d="M249.76 95.151l-3.331 3.334-5.185-3.334 5.185-3.296z"/><path fill="#293052" d="M247.564 126.292v-1.212h22.899v1.212zM274.103 15.31H273v-1.165h1.133v1.165h-.03zm0 4.994H273V19.14h1.133v1.164h-.03zm4.81-3.738l.49-4.566h4.168v1.012h-3.064l-.276 2.328c.18-.127.376-.23.582-.306.244-.042.492-.042.736 0a2.237 2.237 0 0 1 1.807.735c.456.584.685 1.314.644 2.053a3.064 3.064 0 0 1-.674 2.023 2.482 2.482 0 0 1-1.961.766 2.666 2.666 0 0 1-1.961-.766 1.992 1.992 0 0 1-.674-1.686h1.01c-.02.388.126.766.4 1.042.286.298.69.455 1.102.43.485.046.956-.177 1.226-.583.287-.4.428-.887.398-1.379.02-.472-.12-.936-.398-1.318a1.318 1.318 0 0 0-1.103-.52 1.777 1.777 0 0 0-.95.183 1.14 1.14 0 0 0-.43.613l-1.072-.061z"/><path d="M170.183 19.162h-1.104v-7.293h-3.974v7.293H164V11h6.183v8.162zm1.486-3.089c0-.897.242-1.636.728-2.217.486-.58 1.146-.871 1.979-.871.84 0 1.505.29 1.993.868.487.58.731 1.32.731 2.22v.124c0 .904-.243 1.644-.729 2.22-.485.575-1.147.862-1.984.862s-1.5-.288-1.987-.866c-.488-.577-.731-1.316-.731-2.216v-.124zm1.104.124c0 .642.135 1.173.406 1.591.271.419.674.628 1.208.628.527 0 .927-.209 1.2-.628.273-.418.409-.949.409-1.591v-.124c0-.635-.137-1.164-.412-1.586-.275-.422-.677-.634-1.208-.634-.527 0-.926.212-1.197.634-.27.422-.406.95-.406 1.586v.124zm8.088 2.22c.34 0 .637-.114.892-.34a1.07 1.07 0 0 0 .38-.832h.999l.016.033c.015.524-.209.988-.672 1.393a2.377 2.377 0 0 1-1.615.608c-.852 0-1.51-.29-1.973-.868-.463-.58-.695-1.3-.695-2.164v-.235c0-.856.233-1.575.698-2.156.465-.58 1.122-.871 1.97-.871.677 0 1.23.209 1.662.627.432.419.64.933.625 1.542l-.01.034h-1.004c0-.37-.12-.685-.362-.945a1.19 1.19 0 0 0-.91-.39c-.543 0-.938.21-1.186.631-.249.42-.373.93-.373 1.528v.235c0 .61.122 1.123.367 1.541.245.419.642.628 1.191.628v.001zm8.515-5.32v6.065h-1.104v-5.19h-2.052v1.714c0 1.196-.159 2.074-.476 2.635-.318.56-.86.84-1.626.84h-.314l.023-.941.23-.006c.392 0 .665-.191.82-.574.156-.383.233-1.034.233-1.954v-2.59h4.266v.001zm3.946 6.182c-.87 0-1.55-.278-2.038-.835-.487-.557-.731-1.289-.731-2.197V16c0-.87.251-1.59.754-2.16.503-.57 1.116-.855 1.841-.855.811 0 1.42.252 1.825.756.405.505.608 1.176.608 2.013v.583h-3.879l-.017.028c0 .609.135 1.103.404 1.482.269.38.68.57 1.233.57.374 0 .702-.054.984-.16.282-.107.524-.254.726-.44l.431.717c-.216.21-.502.386-.857.53-.355.144-.783.215-1.284.215zm-.174-5.426a1.2 1.2 0 0 0-.955.446c-.253.297-.407.677-.463 1.14l.011.029h2.736v-.09c0-.44-.109-.805-.325-1.093-.217-.288-.552-.432-1.004-.432zm3.851 4.446c.292 0 .504-.24.636-.72.133-.481.23-1.214.289-2.2l.146-2.282h4.024v5.202h.802v2.87h-1.104v-2.007h-4.283v2.005h-1.104v-2.87h.594v.002zm2.035-2.92a18.28 18.28 0 0 1-.182 1.768c-.077.465-.192.849-.345 1.152h2.483v-4.222h-1.878l-.078 1.3v.002zM209 19.162h-1.104v-2.579h-2.702v2.579h-1.104v-6.065h1.104v2.623h2.702v-2.623H209v6.065zm2.82 0h-1.105v-1.133h1.105v1.133zm4.899-.863c.291 0 .503-.24.636-.72.133-.481.229-1.214.289-2.2l.145-2.282h4.025v5.202h.802v2.87h-1.105v-2.007h-4.282v2.005h-1.104v-2.87h.594v.002zm2.034-2.92a18.28 18.28 0 0 1-.182 1.768c-.076.465-.191.849-.344 1.152h2.483v-4.222h-1.878l-.079 1.3v.002zm7.568 3.9c-.871 0-1.55-.278-2.038-.835-.488-.557-.731-1.289-.731-2.197V16c0-.87.25-1.59.754-2.16.502-.57 1.116-.855 1.84-.855.812 0 1.42.252 1.825.756.406.505.609 1.176.609 2.013v.583h-3.88l-.016.028c0 .609.134 1.103.403 1.482.27.38.68.57 1.234.57.373 0 .701-.054.983-.16.283-.107.524-.254.726-.44l.432.717a2.65 2.65 0 0 1-.858.53c-.355.144-.783.215-1.283.215zm-.174-5.426a1.2 1.2 0 0 0-.956.446c-.252.297-.406.677-.462 1.14l.01.029h2.736v-.09c0-.44-.108-.805-.325-1.093-.217-.288-.551-.432-1.003-.432zm6.082 4.563c.34 0 .637-.113.89-.339.255-.226.382-.503.382-.832h.998l.017.033c.015.524-.21.988-.673 1.393a2.377 2.377 0 0 1-1.614.608c-.852 0-1.51-.29-1.973-.868-.464-.58-.695-1.3-.695-2.164v-.235c0-.856.232-1.575.697-2.156.466-.58 1.122-.871 1.97-.871.677 0 1.231.209 1.663.627.431.419.64.933.625 1.542l-.012.034h-1.003c0-.37-.12-.685-.361-.945a1.19 1.19 0 0 0-.911-.39c-.542 0-.937.21-1.186.631-.248.42-.373.93-.373 1.528v.235c0 .61.123 1.123.368 1.541.244.419.641.628 1.19.628h.001zm8.458-5.32v6.066h-1.104v-2.355h-1.497l-1.435 2.355h-1.188l1.536-2.517a1.776 1.776 0 0 1-.889-.656 1.774 1.774 0 0 1-.31-1.037c0-.545.206-.991.619-1.337.413-.345.982-.518 1.706-.518h2.562v-.001zm-3.778 1.867c0 .27.092.5.275.69.183.19.458.286.824.286h1.575v-1.985h-1.458c-.4 0-.702.1-.908.3a.957.957 0 0 0-.308.71v-.001zm10.112-1.009h-2.001v5.208h-1.104v-5.208h-1.973v-.857h5.078v.857zm5.011-.857h1.105v6.065h-1.105v-4.305l-.033-.011-2.68 4.316h-1.098v-6.065h1.098v4.305l.034.01 2.68-4.315h-.001zm7.45 6.065h-1.104v-2.17a4.9 4.9 0 0 1-.656.127 5.793 5.793 0 0 1-.718.042c-.732 0-1.307-.193-1.723-.578-.417-.385-.625-.954-.625-1.71v-1.782h1.104v1.783c0 .485.104.842.314 1.07.209.228.52.342.93.342.463.003.924-.054 1.373-.168v-3.021h1.105v6.065zm6.513 0h-1.104v-2.579h-2.702v2.579h-1.104v-6.065h1.104v2.623h2.702v-2.623h1.104v6.065zm2.82 0h-1.105v-1.133h1.105v1.133z" fill="#2A3052"/><path d="M15 9.586h2.197v8.899h4.27v-8.9h2.205v8.9h1.457l-.146 4.336h-2.05V20.25H15V9.586zm16.113 2.74h2.117v7.924h-2.117v-4.893l-2.651 4.893h-2.124v-7.925h2.124v4.885l2.651-4.885zm3.42 4.02c0-1.274.26-2.287.78-3.04.52-.751 1.237-1.127 2.15-1.127.357 0 .682.07.974.212V9h2.117v3.398a2.28 2.28 0 0 1 1.004-.22c.918 0 1.637.375 2.157 1.125s.78 1.815.78 3.197c0 1.196-.262 2.145-.784 2.845-.523.701-1.235 1.051-2.139 1.051-.376 0-.715-.068-1.018-.205v3.106h-2.117v-3.098a2.384 2.384 0 0 1-.988.197c-.855 0-1.54-.32-2.058-.959-.518-.64-.801-1.516-.85-2.63l-.007-.46zm7.838 0c0-.79-.12-1.398-.36-1.82-.239-.422-.575-.633-1.01-.633a2.24 2.24 0 0 0-.447.05v4.71c.137.03.29.044.462.044.83 0 1.279-.63 1.347-1.89l.008-.46zm-5.72.154c0 1.46.446 2.19 1.34 2.19.185 0 .334-.012.447-.037v-4.71a2.107 2.107 0 0 0-.433-.05c-.434 0-.769.206-1.003.618-.234.413-.352 1.076-.352 1.989zm16.288-.14c0 1.222-.277 2.2-.83 2.934-.555.735-1.303 1.102-2.246 1.102-.8 0-1.447-.278-1.94-.834v3.735h-2.117V12.325h1.963l.073.777c.512-.616 1.181-.923 2.007-.923.976 0 1.735.361 2.277 1.084.542.722.813 1.718.813 2.988v.11zm-2.116-.153c0-.737-.13-1.306-.392-1.707-.261-.4-.641-.6-1.139-.6-.664 0-1.12.254-1.37.762v3.244c.26.523.72.784 1.385.784 1.01 0 1.516-.828 1.516-2.483zm8.02 4.043a2.35 2.35 0 0 1-.213-.71c-.512.57-1.179.856-2 .856-.776 0-1.419-.224-1.93-.673a2.167 2.167 0 0 1-.764-1.7c0-.84.31-1.484.933-1.933.623-.45 1.523-.676 2.7-.681h.973v-.454c0-.367-.094-.66-.282-.88-.187-.219-.484-.329-.89-.329-.356 0-.635.086-.838.256-.203.171-.304.406-.304.704h-2.117c0-.46.142-.884.425-1.275.283-.39.684-.697 1.201-.919.518-.222 1.099-.333 1.743-.333.977 0 1.752.245 2.326.736.574.49.86 1.18.86 2.069v3.435c.005.752.11 1.32.315 1.706v.125h-2.138zm-1.75-1.472c.312 0 .6-.07.864-.209.263-.14.459-.326.585-.56v-1.363h-.79c-1.06 0-1.624.367-1.692 1.1l-.008.124c0 .263.093.48.279.651.185.171.439.257.761.257zm9.074 1.472v-7.925h3.31c1.08 0 1.907.19 2.483.571.577.381.865.928.865 1.641a1.5 1.5 0 0 1-.363.985c-.242.29-.594.514-1.058.67.566.108 1.012.319 1.336.634.325.315.488.702.488 1.16 0 .738-.278 1.3-.832 1.685-.554.386-1.358.579-2.413.579h-3.816zm2.117-3.289v1.597h1.706c.747 0 1.12-.261 1.12-.784 0-.532-.356-.803-1.068-.813h-1.758zm0-1.42h1.31c.743-.01 1.114-.25 1.114-.718 0-.288-.101-.493-.304-.615-.203-.123-.511-.184-.926-.184h-1.194v1.517zm8.496-.894h1.516c.683 0 1.284.115 1.802.344.517.23.914.558 1.19.985.276.428.414.924.414 1.49 0 .836-.31 1.508-.927 2.019-.618.51-1.459.765-2.523.765h-3.596v-7.925h2.124v2.322zm8.29 5.603h-2.116v-7.925h2.117v7.925zm-8.29-3.904v2.212h1.501c.42 0 .742-.098.967-.293.225-.195.337-.461.337-.798 0-.342-.11-.614-.33-.817-.22-.202-.544-.304-.974-.304H76.78zm12.268-4.02v6.217h2.175v-6.218h2.124v6.218h2.175v-6.218h2.117v7.925H86.931v-7.925h2.117zm13.938 8.07c-1.162 0-2.108-.356-2.838-1.069s-1.095-1.662-1.095-2.849v-.205c0-.796.154-1.508.461-2.135a3.386 3.386 0 0 1 1.308-1.45c.564-.34 1.207-.51 1.93-.51 1.083 0 1.937.343 2.56 1.026.622.684.933 1.653.933 2.908v.864H101.2c.068.518.274.933.619 1.245.344.313.78.469 1.307.469.815 0 1.453-.295 1.912-.886l1.04 1.164c-.318.45-.747.8-1.29 1.051a4.23 4.23 0 0 1-1.801.377zm-.242-6.503c-.42 0-.76.141-1.022.424-.26.284-.428.689-.501 1.216h2.944v-.168c-.01-.469-.137-.832-.38-1.088-.245-.256-.592-.384-1.04-.384z" fill="#000"/><path d="M114.084 169v-10.664h3.655c1.206 0 2.124.242 2.754.725.63.483.945 1.204.945 2.16 0 .489-.132.928-.396 1.319-.264.39-.65.693-1.157.908.576.156 1.021.45 1.336.883.315.432.473.95.473 1.556 0 1.001-.321 1.77-.963 2.307-.642.537-1.562.806-2.758.806h-3.889zm1.853-4.812v3.333h2.058c.581 0 1.035-.145 1.362-.433.328-.288.491-.688.491-1.2 0-1.11-.566-1.676-1.7-1.7h-2.211zm0-1.362h1.816c.577 0 1.027-.13 1.352-.392.324-.261.487-.631.487-1.11 0-.527-.15-.908-.45-1.142-.3-.235-.768-.352-1.403-.352h-1.802v2.996zm9.353.769h1.743c.65 0 1.216.112 1.7.337.483.224.85.54 1.102.944.251.406.377.877.377 1.414 0 .815-.288 1.47-.864 1.963-.577.493-1.343.742-2.3.747h-3.538v-7.925h1.78v2.52zm8.02 5.405h-1.78v-7.925h1.78V169zm-8.02-3.977v2.556h1.736c.434 0 .777-.109 1.029-.326.251-.217.377-.526.377-.926s-.123-.717-.37-.949c-.246-.232-.58-.35-1-.355h-1.772zm15.095-3.948h1.773V169h-1.773v-5.288L137.28 169h-1.773v-7.925h1.773v5.288l3.105-5.288zm8.943 1.436h-3.442V169h-1.773v-7.925h5.215v1.436zm7.947 2.607c0 1.226-.278 2.204-.835 2.934-.557.73-1.304 1.094-2.241 1.094-.87 0-1.565-.285-2.088-.856v3.757h-1.78v-10.972h1.641l.073.806c.523-.635 1.233-.952 2.132-.952.967 0 1.725.36 2.274 1.08.55.72.824 1.72.824 3v.11zm-1.773-.154c0-.79-.157-1.418-.472-1.882-.315-.464-.765-.696-1.351-.696-.728 0-1.25.3-1.568.901v3.516c.323.615.85.923 1.582.923.567 0 1.01-.229 1.33-.685.32-.457.48-1.149.48-2.077zm5.193-1.37h1.743c.65 0 1.216.113 1.7.338.483.224.85.54 1.102.944.251.406.377.877.377 1.414 0 .815-.288 1.47-.864 1.963-.576.493-1.343.742-2.3.747h-3.537v-7.925h1.78v2.52zm8.02 5.406h-1.78v-7.925h1.78V169zm-8.02-3.977v2.556h1.736c.435 0 .778-.109 1.03-.326.25-.217.376-.526.376-.926s-.123-.717-.37-.949c-.246-.232-.58-.35-1-.355h-1.772zm11.997-3.948v6.504h2.476v-6.504h1.78v6.504h2.483v-6.504h1.772V169h-10.29v-7.925h1.78zm12.327 4.783h-1.53l-.17-7.522h1.876l-.176 7.522zm-1.75 2.3c0-.279.09-.51.27-.692.181-.184.428-.275.74-.275.313 0 .56.091.74.275.18.183.271.413.271.692a.928.928 0 0 1-.264.674c-.175.18-.424.27-.747.27-.322 0-.571-.09-.747-.27a.928.928 0 0 1-.263-.674z" fill="#FFF"/></g></svg>