<svg width="299" height="197" xmlns="http://www.w3.org/2000/svg"><g fill="none" fill-rule="evenodd"><path fill="#F1F2F2" d="M0 0h299v197H0z"/><path d="M1.987 1.98v193.04h295.026V1.98H1.987zM299 0v197H0V0h299z" fill="#C2C2C2" fill-rule="nonzero"/><path d="M8 56.36v-1.153h283v1.152H8zm0 39.6v-1.15h283v1.152H8zm0 39.602v-1.152h283v1.152H8zm0 39.566v-1.152h283v1.152H8zM41.603 36h1.152v156h-1.152V36zm35.823 0h1.152v156h-1.152V36zm35.787 0h1.152v156h-1.152V36z" fill="#DFDEDE" fill-rule="nonzero"/><path d="M147.924 36h1.152v5.796h-1.152V36zm0 11.591h1.152v5.796h-1.152v-5.796zm0 11.592h1.152v5.795h-1.152v-5.795zm0 11.591h1.152v5.796h-1.152v-5.796zm0 11.591h1.152v5.796h-1.152v-5.796zm0 11.592h1.152v5.795h-1.152v-5.795zm0 11.591h1.152v5.796h-1.152v-5.796zm0 11.592h1.152v5.795h-1.152v-5.795zm0 11.59h1.152v5.797h-1.152v-5.796zm0 11.592h1.152v5.796h-1.152v-5.796zm0 11.592h1.152v5.795h-1.152v-5.795zm0 11.591h1.152v5.796h-1.152v-5.796zm0 11.591h1.152v5.796h-1.152v-5.796zm0 11.592h1.152V192h-1.152v-5.312z" fill="#E98024" fill-rule="nonzero"/><path d="M184.819 36h1.152v156h-1.152V36zm35.786 0h1.152v156h-1.152V36zM8 115.744v-1.152h283v1.152H8z" fill="#DFDEDE" fill-rule="nonzero"/><path fill="#2A3052" fill-rule="nonzero" d="M256.924 36h1.152v156h-1.152z"/><path fill="#E98024" fill-rule="nonzero" d="M8 77.076v-1.152h3v1.152zm9 0v-1.152h5.757v1.152H17zm11.514 0v-1.152h5.757v1.152h-5.757zm11.514 0v-1.152h5.757v1.152h-5.757zm11.514 0v-1.152H57.3v1.152h-5.757zm11.514 0v-1.152h5.757v1.152h-5.757zm11.514 0v-1.152h5.757v1.152H74.57zm11.515 0v-1.152h5.757v1.152h-5.757zm11.514 0v-1.152h5.757v1.152h-5.757zm11.514 0v-1.152h5.757v1.152h-5.757zm11.514 0v-1.152h5.757v1.152h-5.757zm11.514 0v-1.152h5.757v1.152h-5.757zm11.514 0v-1.152h5.757v1.152h-5.757zm11.514 0v-1.152h5.757v1.152h-5.757zm11.514 0v-1.152h5.757v1.152h-5.757zm11.514 0v-1.152h5.757v1.152h-5.757zm11.514 0v-1.152h5.757v1.152h-5.757zm11.514 0v-1.152h5.757v1.152h-5.757zm11.514 0v-1.152h5.757v1.152h-5.757zm11.515 0v-1.152h5.757v1.152h-5.757zm11.514 0v-1.152h5.757v1.152h-5.757zm11.514 0v-1.152h5.757v1.152h-5.757zm11.514 0v-1.152h5.757v1.152h-5.757zm11.514 0v-1.152h5.757v1.152h-5.757zm11.514 0v-1.152H285v1.152h-3.176zm6.176 0v-1.152h3v1.152z"/><path fill="#2A3052" fill-rule="nonzero" d="M8 156.076v-1.152h283v1.152z"/><path fill="#C2C2C2" fill-rule="nonzero" d="M3 35.652v-2.304h293v2.304z"/><path d="M81.974 115.697a1.728 1.728 0 0 1-1.59-.419L39.819 77.261a1.728 1.728 0 0 1 2.364-2.522l39.885 37.379 37.795-9.163a1.728 1.728 0 0 1 1.915.837l27.121 48.542 34.324-28.776a1.728 1.728 0 0 1 1.205-.401l35.286 1.945 35.396-21.298a1.728 1.728 0 0 1 1.782 2.962l-35.852 21.572c-.297.178-.64.264-.986.245l-35.134-1.938-35.4 29.68a1.73 1.73 0 0 1-2.62-.482l-27.499-49.22-37.426 9.074zm138.27 9.434l-.987.245.456-.274.53.03z" fill="#2A3052" fill-rule="nonzero"/><circle cx="8.196" cy="8.684" r="7.836" opacity=".6" transform="translate(249 98)" fill="#FFF"/><path d="M257 116.13a9.13 9.13 0 1 1 0-18.26 9.13 9.13 0 0 1 0 18.26zm0-2.26a6.87 6.87 0 1 0 0-13.74 6.87 6.87 0 0 0 0 13.74z" fill="#E88024" fill-rule="nonzero"/><circle cx="8.116" cy="8.644" r="7.836" opacity=".6" transform="translate(33 67)" fill="#FFF"/><path d="M41 85.13a9.13 9.13 0 1 1 0-18.26 9.13 9.13 0 0 1 0 18.26zm0-2.26a6.87 6.87 0 1 0 0-13.74 6.87 6.87 0 0 0 0 13.74z" fill="#E88024" fill-rule="nonzero"/><circle cx="8.06" cy="8.228" r="7.836" opacity=".6" transform="translate(140 146)" fill="#FFF"/><path d="M148 163.13a9.13 9.13 0 1 1 0-18.26 9.13 9.13 0 0 1 0 18.26zm0-2.26a6.87 6.87 0 1 0 0-13.74 6.87 6.87 0 0 0 0 13.74z" fill="#E88024" fill-rule="nonzero"/><path d="M257.332 150.893H219.83L214.498 143l-5.332 7.897h-37.498c-2.578 0-4.668 2.068-4.668 4.62v23.863c0 2.552 2.09 4.62 4.668 4.62h85.664c2.578 0 4.668-2.068 4.668-4.62v-23.867c0-2.552-2.09-4.62-4.668-4.62z" fill="#E88024"/><g fill="#000"><path d="M17.625 18.137v4.424h-1.78V11.896h3.941c1.192 0 2.112.269 2.761.806.65.537.974 1.304.974 2.3 0 .552-.142 1.027-.428 1.425-.286.397-.702.716-1.249.955.6.19 1.033.502 1.297.934.263.432.395.963.395 1.593v.886c0 .313.04.618.117.916.078.298.21.525.396.681v.169h-1.831c-.196-.162-.321-.415-.377-.762a6.362 6.362 0 0 1-.085-1.018v-.857c0-.547-.156-.982-.468-1.304-.313-.322-.743-.483-1.29-.483h-2.373zm0-1.429h2.066c.713 0 1.233-.136 1.56-.41.327-.273.49-.69.49-1.252 0-.537-.16-.958-.483-1.264-.322-.305-.813-.457-1.472-.457h-2.16v3.383h-.001zm11.324 6.006c-1.123 0-2.018-.367-2.685-1.102-.666-.735-1-1.678-1-2.83v-.294c0-1.152.331-2.108.993-2.867.662-.76 1.49-1.137 2.487-1.132 1.069 0 1.888.324 2.457.97.569.648.853 1.516.853 2.604v1.048H27.11l-.014.036c.029.63.213 1.145.553 1.546.339.4.809.6 1.41.6.478 0 .888-.058 1.23-.175.342-.118.671-.286.989-.506l.571 1.165c-.298.264-.693.486-1.186.666-.494.181-1.065.271-1.714.271zm-.205-6.797c-.44 0-.801.175-1.084.524-.284.35-.46.792-.528 1.33l.015.036h3.142v-.183c0-.503-.128-.913-.384-1.23-.257-.318-.644-.477-1.161-.477zm9.199 4.49c0-.273-.117-.5-.352-.68-.234-.182-.671-.34-1.31-.477-.948-.2-1.665-.485-2.15-.853-.486-.369-.73-.87-.73-1.505 0-.664.282-1.23.843-1.7.562-.468 1.301-.703 2.22-.703.966 0 1.734.238 2.303.714s.84 1.066.816 1.77l-.014.043h-1.707c0-.327-.124-.608-.373-.842-.25-.235-.591-.352-1.026-.352-.43 0-.756.097-.981.29a.898.898 0 0 0-.337.706c0 .279.106.5.319.663.212.164.643.309 1.292.436.996.205 1.735.494 2.216.868.48.373.721.882.721 1.527 0 .713-.294 1.292-.882 1.736-.589.444-1.364.666-2.326.666-1.03 0-1.843-.263-2.439-.79-.595-.528-.879-1.133-.85-1.817l.015-.044h1.656c.02.459.185.793.498 1.003.312.21.693.315 1.142.315.46 0 .813-.088 1.062-.263a.827.827 0 0 0 .374-.71v-.001zm6.745 2.307c-1.123 0-2.017-.367-2.684-1.102-.666-.735-1-1.678-1-2.83v-.294c0-1.152.331-2.108.993-2.867.661-.76 1.49-1.137 2.486-1.132 1.07 0 1.889.324 2.458.97.569.648.853 1.516.853 2.604v1.048H42.85l-.015.036c.03.63.214 1.145.553 1.546.34.4.81.6 1.41.6.479 0 .889-.058 1.23-.175a4.05 4.05 0 0 0 .99-.506l.57 1.165c-.297.264-.693.486-1.186.666-.493.181-1.064.271-1.714.271zm-.205-6.797c-.44 0-.8.175-1.084.524-.283.35-.459.792-.527 1.33l.015.036h3.142v-.183c0-.503-.128-.913-.385-1.23-.256-.318-.643-.477-1.16-.477h-.001zm6.958-3.208v1.927h1.421v1.318h-1.42v4.38c0 .327.07.56.212.7.141.139.33.208.564.208a1.574 1.574 0 0 0 .549-.095l.19 1.304c-.17.09-.352.155-.541.194-.21.046-.428.07-.652.07-.655 0-1.167-.192-1.538-.576-.372-.383-.557-.985-.557-1.805v-4.38H48.46v-1.318h1.209v-1.927h1.772zm16.239 5.816c0-1.177.322-2.144.966-2.9.655-.757 1.541-1.136 2.66-1.136 1.137 0 2.028.379 2.672 1.136.65.751.975 1.718.975 2.9v.154c0 1.191-.325 2.163-.975 2.915-.644.747-1.53 1.12-2.658 1.12-1.133 0-2.024-.376-2.674-1.128-.644-.752-.966-1.72-.966-2.907v-.154zm1.78.154c0 .771.15 1.401.454 1.89.297.483.766.724 1.406.724.62 0 1.084-.241 1.391-.725.313-.488.47-1.118.47-1.89v-.153c0-.757-.157-1.38-.47-1.868-.307-.493-.776-.74-1.406-.74-.62 0-1.084.247-1.391.74-.303.493-.455 1.116-.455 1.868v.154h.001zm13.557-4.043v7.925h-1.773v-6.49h-2.307v1.941c0 1.563-.222 2.711-.667 3.446-.444.735-1.206 1.103-2.285 1.103h-.38l.007-1.502h.263c.503 0 .843-.225 1.019-.674.175-.449.263-1.24.263-2.373v-3.376h5.86zm8.357 0v7.925H89.6v-6.49h-2.307v1.941c0 1.563-.222 2.711-.667 3.446-.444.735-1.206 1.103-2.285 1.103h-.38l.007-1.502h.263c.503 0 .843-.225 1.018-.674.176-.449.264-1.24.264-2.373v-3.376h5.861z" fill-rule="nonzero"/><path d="M62.057 17.911h-1.23v4.614h-1.78V11.861h1.78v4.52h1.018l3.347-4.52h2.11l-3.883 5.09 4.183 5.574h-2.176z"/></g><path d="M24.063 61.2h-1.442v-4.71h-5.179v4.71H16V50.536h1.443v4.82h5.179v-4.82h1.442V61.2h-.001zm7.237 0c-.049-.24-.087-.45-.114-.633a4.65 4.65 0 0 1-.047-.553c-.269.38-.62.7-1.051.955a2.688 2.688 0 0 1-1.396.385c-.825 0-1.453-.211-1.886-.634-.432-.422-.648-1.004-.648-1.746 0-.757.307-1.35.92-1.776.612-.428 1.443-.641 2.493-.641h1.568v-.784c0-.464-.142-.831-.425-1.102-.283-.271-.684-.407-1.201-.407-.464 0-.841.119-1.132.355-.29.237-.436.522-.436.854h-1.377l-.014-.044c-.03-.576.243-1.104.816-1.582.574-.479 1.315-.718 2.223-.718.899 0 1.621.228 2.168.685.547.456.82 1.114.82 1.974v3.816c0 .283.015.556.044.82.03.264.083.522.162.776H31.3zm-2.395-1.054c.522 0 .993-.135 1.413-.403.42-.269.694-.576.82-.923v-1.29H29.52c-.581 0-1.046.147-1.395.44-.35.293-.524.637-.524 1.033 0 .351.11.63.33.835.22.205.544.308.974.308zm11.96 1.054h-1.443v-2.834c-.282.074-.568.13-.857.165-.31.037-.624.055-.937.054-.957 0-1.708-.251-2.252-.754-.545-.503-.817-1.247-.817-2.234v-2.329h1.443v2.33c0 .634.137 1.1.41 1.398.274.298.679.447 1.216.447a7.116 7.116 0 0 0 1.794-.22v-3.948h1.443V61.2zm6.966 0c-.05-.24-.087-.45-.114-.633a4.65 4.65 0 0 1-.048-.553c-.268.38-.618.7-1.05.955a2.688 2.688 0 0 1-1.396.385c-.825 0-1.454-.211-1.886-.634-.432-.422-.648-1.004-.648-1.746 0-.757.306-1.35.92-1.776.612-.428 1.443-.641 2.493-.641h1.567v-.784c0-.464-.141-.831-.424-1.102-.284-.271-.684-.407-1.202-.407-.463 0-.84.119-1.131.355-.29.237-.436.522-.436.854H43.1l-.015-.044c-.029-.576.243-1.104.817-1.582.574-.479 1.315-.718 2.223-.718.898 0 1.621.228 2.168.685.547.456.82 1.114.82 1.974v3.816c0 .283.015.556.044.82.03.264.083.522.161.776h-1.487zm-2.395-1.054c.522 0 .993-.135 1.413-.403.42-.269.693-.576.82-.923v-1.29h-1.618c-.581 0-1.046.147-1.396.44-.349.293-.523.637-.523 1.033 0 .351.11.63.33.835.22.205.544.308.974.308zm12.194-6.87V61.2h-1.443v-6.782h-2.68v2.241c0 1.563-.208 2.71-.623 3.443-.415.732-1.123 1.098-2.124 1.098h-.41l.03-1.23.3-.008c.512 0 .87-.25 1.073-.75.202-.5.304-1.352.304-2.553v-3.384h5.573v.001zm1.538 3.889c0-1.172.318-2.138.953-2.897.634-.76 1.496-1.14 2.585-1.14 1.099 0 1.967.38 2.604 1.136.637.757.956 1.724.956 2.9v.162c0 1.181-.318 2.148-.953 2.9-.634.752-1.499 1.128-2.592 1.128-1.094 0-1.96-.377-2.597-1.132-.637-.754-.956-1.72-.956-2.896v-.161zm1.443.16c0 .84.177 1.534.531 2.08.354.548.88.821 1.579.821.688 0 1.21-.273 1.567-.82.357-.547.535-1.24.535-2.08v-.161c0-.83-.18-1.521-.539-2.073-.358-.552-.885-.828-1.578-.828-.688 0-1.21.276-1.564.828-.354.552-.53 1.242-.53 2.073v.16h-.001zm202.803 31.172h-.996v3.85h-1.154v-8.532h1.154v3.773h.89l3.053-3.773h1.278l.017.03-3.31 4.095 3.55 4.377-.017.03h-1.377l-3.088-3.85zm4.922.62c0-.937.254-1.71.762-2.317.507-.607 1.197-.91 2.068-.91.879 0 1.573.302 2.083.907.51.606.765 1.38.765 2.32v.13c0 .945-.254 1.718-.762 2.32-.508.602-1.2.902-2.074.902-.875 0-1.568-.301-2.078-.905-.51-.603-.764-1.376-.764-2.317v-.13zm1.154.13c0 .672.142 1.226.425 1.664.283.437.704.656 1.263.656.55 0 .968-.219 1.254-.656.285-.438.427-.992.427-1.664v-.13c0-.663-.143-1.216-.43-1.657-.287-.442-.708-.663-1.263-.663-.55 0-.968.221-1.251.663-.283.441-.425.994-.425 1.658v.129zm11.068 3.1h-1.154V89.65h-2.824v2.695h-1.154v-6.34h1.154v2.743h2.824v-2.743h1.154v6.342zm4.319.122c-.883 0-1.585-.294-2.107-.881-.521-.588-.782-1.351-.782-2.289v-.257c0-.903.269-1.654.806-2.253.537-.6 1.173-.9 1.907-.9.856 0 1.502.258 1.94.774.437.515.656 1.203.656 2.062v.72h-4.114l-.017.03c.012.61.166 1.11.463 1.503.297.393.713.589 1.248.589.39 0 .733-.056 1.028-.167.295-.111.55-.265.765-.46l.451.75a2.682 2.682 0 0 1-.896.557c-.372.148-.82.222-1.348.222zm-.176-5.672c-.387 0-.717.164-.99.49-.274.326-.442.735-.504 1.227l.012.03h2.923v-.153c0-.453-.12-.832-.363-1.137-.242-.304-.601-.457-1.078-.457zm3.89-.79h1.155v5.437h2.83v-5.438h1.154v5.438h.774v2.977h-1.154v-2.075h-4.758v-6.34l-.001.001z" fill="#2A3052" fill-rule="nonzero"/><path d="M265.66 139.666h1.132l-1.524 7.63h3.768l1.523-7.63h1.131l-1.518 7.6h.833l-.715 2.988h-1.002l.41-2.056h-5.742l1.705-8.532h-.001zm8.919 8.655c-.797 0-1.4-.296-1.808-.888-.408-.592-.538-1.352-.39-2.282l.041-.258c.149-.937.519-1.697 1.11-2.28.593-.581 1.232-.872 1.92-.872.777 0 1.334.26 1.67.779.336.52.437 1.205.304 2.057l-.117.72h-3.82c-.086.649-.026 1.164.179 1.547s.555.574 1.051.574c.64.004 1.26-.218 1.752-.627l.323.75a2.9 2.9 0 0 1-.914.557c-.372.149-.805.223-1.301.223zm.732-5.672c-.328 0-.645.164-.952.492a2.857 2.857 0 0 0-.66 1.219l.018.035h2.608l.023-.152c.074-.473.03-.857-.134-1.152-.165-.295-.465-.442-.903-.442zm8.871-.791l-1.265 6.34h-1.137l1.084-5.426h-1.928l-.357 1.793c-.266 1.328-.606 2.266-1.02 2.812-.414.547-1.008.82-1.781.82h-.316l.222-.984.217-.006c.36 0 .66-.206.902-.618.243-.412.457-1.087.645-2.024l.539-2.707h4.195zm2.42 2.18h1.436c.652 0 1.145.193 1.48.58.333.386.442.879.324 1.476-.132.649-.428 1.161-.887 1.538-.46.377-1.042.566-1.75.566h-2.566l1.266-6.34h1.137l-.44 2.18zm-.176.902l-.468 2.355h1.43c.343 0 .63-.113.86-.34.231-.226.38-.5.446-.82.066-.336.036-.619-.09-.85-.128-.23-.377-.345-.748-.345h-1.43z" fill="#6D6E70" fill-rule="nonzero"/><path d="M174.467 172.272v-12.086h4.084c1.423 0 2.532.277 3.329.83.797.554 1.195 1.381 1.195 2.482 0 .56-.148 1.059-.444 1.499-.296.44-.726.77-1.29.992.724.154 1.268.487 1.63.996.363.509.544 1.098.544 1.768 0 1.156-.382 2.032-1.145 2.627-.764.595-1.846.892-3.246.892h-4.657zm2.424-5.345v3.486h2.233c.642 0 1.132-.14 1.47-.42.337-.279.506-.692.506-1.24 0-.592-.144-1.045-.432-1.357-.288-.313-.741-.47-1.361-.47h-2.416v.001zm0-1.677h1.743c.648 0 1.146-.133 1.495-.399.348-.265.523-.653.523-1.162 0-.559-.176-.971-.528-1.237-.351-.265-.875-.398-1.573-.398h-1.66v3.196zm11.024.946h1.685c1.206 0 2.155.278 2.847.834.692.556 1.038 1.286 1.038 2.188 0 .913-.346 1.65-1.038 2.212-.692.561-1.64.842-2.847.842h-4.117v-8.981h2.432v2.905zm8.84 6.076h-2.424v-8.981h2.424v8.981zm-8.84-4.217v2.366h1.685c.492 0 .86-.11 1.104-.332.243-.221.365-.506.365-.855 0-.337-.122-.618-.365-.842-.244-.225-.612-.337-1.104-.337h-1.685zm16.759-4.764h2.415v8.981h-2.415v-5.478l-.05-.009-2.93 5.487h-2.424v-8.981h2.424v5.462l.05.008 2.93-5.47zM215 165.167h-3.71v7.105h-2.424v-8.981H215v1.876zm9.106 2.864c0 1.328-.307 2.396-.921 3.204-.615.808-1.472 1.212-2.574 1.212a2.88 2.88 0 0 1-1.253-.262 2.574 2.574 0 0 1-.938-.768v4.308h-2.415v-12.434h2.183l.14 1.062a2.88 2.88 0 0 1 .96-.909c.373-.213.809-.32 1.307-.32 1.112 0 1.975.435 2.59 1.304.614.869.921 2.012.921 3.428v.175zm-2.424-.175c0-.846-.14-1.533-.423-2.058-.282-.526-.714-.789-1.295-.789-.365 0-.677.075-.934.224a1.6 1.6 0 0 0-.61.64v3.934c.15.254.353.448.61.58.257.134.574.2.95.2.587 0 1.017-.23 1.291-.689.274-.46.411-1.082.411-1.867v-.175zm6.657-1.66h1.686c1.206 0 2.155.278 2.847.834.691.556 1.037 1.286 1.037 2.188 0 .913-.346 1.65-1.037 2.212-.692.561-1.641.842-2.847.842h-4.118v-8.981h2.432v2.905zm8.84 6.076h-2.423v-8.981h2.424v8.981h-.001zm-8.84-4.217v2.366h1.686c.492 0 .86-.11 1.104-.332.243-.221.365-.506.365-.855 0-.337-.122-.618-.365-.842-.244-.225-.612-.337-1.104-.337h-1.686zm13.78-4.764v7.122h2.44v-7.122h2.432v7.122h2.44v-7.122h2.425v8.981h-12.161v-8.981h2.424zm14.26 4.814h-2.423v-7.919h2.424v7.92l-.001-.001zm0 4.167h-2.423v-2.125h2.424v2.125h-.001z" fill="#FFF" fill-rule="nonzero"/><path d="M78.67 172.354l1.705-8.532H83c.778 0 1.375.196 1.793.586.418.391.551.965.399 1.723-.076.39-.264.75-.54 1.037-.277.29-.616.504-1.019.645.457.11.783.362.976.758.193.397.237.855.132 1.375-.168.832-.522 1.44-1.06 1.828-.54.386-1.223.58-2.052.58H78.67zm1.928-4.002l-.615 3.1h1.828a1.8 1.8 0 0 0 1.157-.396c.33-.264.544-.63.642-1.099.101-.531.073-.931-.085-1.201s-.468-.404-.929-.404h-1.998zm.182-.903h1.728c.352 0 .679-.12.982-.36.302-.24.495-.567.577-.981.098-.489.04-.84-.173-1.055-.213-.215-.571-.322-1.075-.322h-1.494l-.545 2.718zm10.535 2.092c-.195.977-.524 1.71-.987 2.2-.463.49-1.06.736-1.79.736-.34 0-.646-.065-.917-.194-.268-.126-.5-.32-.671-.562l-.616 3.07h-1.13l1.752-8.777h.972l-.04.627a2.326 2.326 0 0 1 1.727-.744c.684 0 1.191.338 1.521 1.013.33.676.398 1.512.202 2.508l-.023.123zm-1.108-.123c.149-.758.126-1.378-.067-1.86-.193-.483-.546-.724-1.058-.724-.26 0-.513.08-.726.229a2.31 2.31 0 0 0-.604.627l-.62 3.1c.1.245.253.438.456.576.203.14.463.208.78.208.465 0 .851-.182 1.16-.547.308-.366.527-.86.656-1.486l.023-.123zm4.454 3.059c-.797 0-1.4-.296-1.808-.888-.408-.592-.538-1.352-.39-2.282l.041-.258c.149-.937.519-1.697 1.11-2.28.593-.581 1.232-.872 1.92-.872.777 0 1.334.26 1.67.779.336.52.437 1.205.304 2.057l-.117.72h-3.82c-.086.649-.027 1.164.178 1.547.206.383.556.574 1.052.574.64.004 1.26-.218 1.752-.627l.322.75a2.9 2.9 0 0 1-.914.557c-.37.149-.804.223-1.3.223zm.732-5.672c-.328 0-.645.164-.952.492a2.857 2.857 0 0 0-.66 1.219l.018.035h2.608l.023-.152c.074-.473.03-.857-.135-1.152-.164-.295-.464-.442-.902-.442zm6.387 4.031l.035.006 2.836-4.828h1.418l-1.266 6.34h-1.13l.855-4.295-.035-.012-2.608 4.307h-.78l-.901-4.383h-.036l-.873 4.383h-1.136l1.265-6.34h1.46l.896 4.822zm10.5-4.822l-1.266 6.34h-1.137l.493-2.461h-1.383l-1.893 2.46h-1.219l2.045-2.66a1.463 1.463 0 0 1-.72-.69c-.149-.306-.182-.655-.1-1.05.117-.605.41-1.08.879-1.424.469-.343 1.064-.515 1.787-.515h2.514zm-4.043 1.951c-.063.297-.027.541.108.732.135.192.376.288.724.288h1.482l.416-2.075h-1.377c-.351 0-.652.107-.902.32-.25.213-.4.458-.451.735zm9.363.691l-.738 3.698h-1.137l1.705-8.526h2.9c.813 0 1.42.211 1.82.633.4.422.524 1.02.372 1.793-.098.473-.284.867-.56 1.184-.275.316-.64.566-1.092.75.382.16.642.412.779.756.137.343.158.755.064 1.236l-.158.803c-.058.28-.08.522-.064.723.015.201.076.37.181.507l-.029.14h-1.166c-.117-.132-.17-.325-.158-.58.012-.253.047-.52.105-.802l.159-.78c.097-.488.054-.866-.13-1.133-.183-.268-.48-.402-.89-.402H117.6zm.182-.908h1.652c.547 0 .985-.128 1.315-.384.33-.255.546-.63.648-1.122.102-.507.055-.886-.14-1.136-.196-.25-.565-.375-1.108-.375h-1.764l-.603 3.017zm7.746 4.729c-.797 0-1.4-.296-1.808-.888-.408-.592-.538-1.352-.39-2.282l.042-.258c.148-.937.518-1.697 1.11-2.28.592-.581 1.231-.872 1.919-.872.777 0 1.334.26 1.67.779.336.52.437 1.205.304 2.057l-.117.72h-3.82c-.086.649-.026 1.164.179 1.547s.555.574 1.051.574c.64.004 1.26-.218 1.752-.627l.323.75a2.9 2.9 0 0 1-.914.557c-.372.149-.805.223-1.301.223zm.732-5.672c-.328 0-.645.164-.952.492a2.857 2.857 0 0 0-.66 1.219l.018.035h2.608l.023-.152c.075-.473.03-.857-.134-1.152-.164-.295-.465-.442-.903-.442zm6.475 3.867c.043-.262-.01-.473-.158-.633-.149-.16-.457-.3-.926-.422-.692-.168-1.198-.396-1.52-.685-.323-.29-.443-.68-.361-1.172.086-.535.361-.98.826-1.333.465-.354 1.03-.53 1.694-.53.664 0 1.175.191 1.535.574.36.383.488.842.386 1.377l-.017.035h-1.084a.92.92 0 0 0-.188-.753c-.172-.217-.43-.325-.773-.325-.352 0-.637.09-.856.272-.206.16-.343.391-.386.648-.043.262.003.46.137.597.135.137.44.264.917.381.723.172 1.243.406 1.559.7.316.295.436.69.357 1.187a2.02 2.02 0 0 1-.855 1.38c-.477.338-1.063.507-1.758.507-.726 0-1.281-.207-1.664-.621-.383-.414-.52-.891-.41-1.43l.012-.035h1.084c-.051.41.037.71.263.9.227.189.512.283.856.283.355 0 .655-.084.9-.252a.956.956 0 0 0 .43-.65zm4.693 1.805c-.797 0-1.4-.296-1.807-.888-.409-.592-.539-1.352-.39-2.282l.041-.258c.148-.937.519-1.697 1.11-2.28.592-.581 1.232-.872 1.92-.872.777 0 1.333.26 1.67.779.335.52.437 1.205.304 2.057l-.117.72h-3.82c-.087.649-.027 1.164.178 1.547s.556.574 1.052.574c.64.004 1.26-.218 1.752-.627l.322.75a2.9 2.9 0 0 1-.914.557c-.371.149-.805.223-1.3.223h-.001zm.733-5.672c-.329 0-.646.164-.953.492a2.857 2.857 0 0 0-.659 1.219l.018.035h2.607l.024-.152c.074-.473.029-.857-.135-1.152-.164-.295-.465-.442-.902-.442zm5.777-2.32l-.31 1.529h1.095l-.17.855h-1.095l-.768 3.85c-.066.316-.057.53.03.642.085.11.224.167.415.167.09 0 .198-.01.325-.027s.228-.036.302-.055l-.006.79c-.113.07-.274.128-.483.173-.203.044-.41.067-.618.068-.41 0-.726-.145-.947-.434-.22-.289-.27-.73-.149-1.324l.768-3.85h-.926l.17-.855h.926l.31-1.53h1.131v.001z" fill="#6D6E70" fill-rule="nonzero"/></g></svg>