<svg width="299" height="197" xmlns="http://www.w3.org/2000/svg"><g fill="none" fill-rule="evenodd"><path fill="#F1F2F2" d="M0 0h299v197H0z"/><path d="M1.987 1.98v193.04h295.026V1.98H1.987zM299 0v197H0V0h299z" fill="#C2C2C2" fill-rule="nonzero"/><path d="M9.765 57.597V56.43h279.823v1.167H9.765zm0 39.175v-1.167h279.823v1.167H9.765zm0 39.175v-1.167h279.823v1.167H9.765zm0 39.14v-1.168h279.823v1.168H9.765zM42.977 37.444h1.168v154.318h-1.168V37.444zm35.42 0h1.168v154.318h-1.167V37.444zm35.385 0h1.168v154.318h-1.168V37.444z" fill="#DFDEDE" fill-rule="nonzero"/><path d="M149.203 37.444h1.167v5.873h-1.167v-5.873zm0 11.746h1.167v5.873h-1.167V49.19zm0 11.746h1.167v5.874h-1.167v-5.874zm0 11.747h1.167v5.873h-1.167v-5.873zm0 11.746h1.167v5.873h-1.167V84.43zm0 11.747h1.167v5.873h-1.167v-5.873zm0 11.746h1.167v5.873h-1.167v-5.873zm0 11.747h1.167v5.873h-1.167v-5.873zm0 11.746h1.167v5.873h-1.167v-5.873zm0 11.746h1.167v5.874h-1.167v-5.874zm0 11.747h1.167v5.873h-1.167v-5.873zm0 11.746h1.167v5.873h-1.167v-5.873zm0 11.747h1.167v5.873h-1.167V178.4zm0 11.746h1.167v1.615h-1.167v-1.615z" fill="#E98024" fill-rule="nonzero"/><path d="M184.584 37.444h1.168v154.318h-1.168V37.444zm35.385 0h1.168v154.318h-1.168V37.444zM9.765 116.342v-1.168h279.823v1.168H9.765z" fill="#DFDEDE" fill-rule="nonzero"/><path d="M255.39 37.444h1.167v154.318h-1.167V37.444zM9.765 77.202v-1.167h279.823v1.167H9.765z" fill="#2A3052" fill-rule="nonzero"/><path d="M9.765 155.517v-1.167h5.874v1.167H9.765zm11.747 0v-1.167h5.873v1.167h-5.873zm11.746 0v-1.167h5.873v1.167h-5.873zm11.747 0v-1.167h5.873v1.167h-5.873zm11.746 0v-1.167h5.873v1.167h-5.873zm11.746 0v-1.167h5.874v1.167h-5.874zm11.747 0v-1.167h5.873v1.167h-5.873zm11.746 0v-1.167h5.874v1.167H91.99zm11.747 0v-1.167h5.873v1.167h-5.873zm11.746 0v-1.167h5.873v1.167h-5.873zm11.747 0v-1.167h5.873v1.167h-5.873zm11.746 0v-1.167h5.873v1.167h-5.873zm11.746 0v-1.167h5.874v1.167h-5.874zm11.747 0v-1.167h5.873v1.167h-5.873zm11.746 0v-1.167h5.874v1.167h-5.874zm11.747 0v-1.167h5.873v1.167h-5.873zm11.746 0v-1.167h5.873v1.167h-5.873zm11.747 0v-1.167h5.873v1.167h-5.873zm11.746 0v-1.167h5.873v1.167h-5.873zm11.746 0v-1.167h5.874v1.167h-5.874zm11.747 0v-1.167h5.873v1.167h-5.873zm11.746 0v-1.167h5.874v1.167h-5.874zm11.747 0v-1.167h5.873v1.167h-5.873zm11.746 0v-1.167h5.873v1.167h-5.873z" fill="#E98024" fill-rule="nonzero"/><path fill="#C2C2C2" fill-rule="nonzero" d="M2 37.456V35.12h295v2.336z"/><path d="M83.557 118.022l-39.387 37a1.751 1.751 0 1 1-2.398-2.553l40.078-37.65a1.751 1.751 0 0 1 1.612-.425l36.942 8.976 27.153-48.706a1.751 1.751 0 0 1 2.656-.488l34.96 29.378 34.693-1.918c.351-.02.7.068 1.001.25l35.42 21.361a1.751 1.751 0 0 1-1.808 3l-34.959-21.084-34.846 1.926a1.751 1.751 0 0 1-1.223-.408l-33.868-28.46-26.768 48.018a1.751 1.751 0 0 1-1.943.85l-37.315-9.067z" fill="#2A3052" fill-rule="nonzero"/><circle cx="8.161" cy="8.188" r="7.836" opacity=".6" transform="translate(247.222 115.222)" fill="#FFF"/><path d="M255.383 132.39a8.98 8.98 0 1 1 0-17.961 8.98 8.98 0 0 1 0 17.962zm0-2.288a6.692 6.692 0 1 0 0-13.384 6.692 6.692 0 0 0 0 13.384z" fill="#E88024" fill-rule="nonzero"/><circle cx="8.526" cy="8.228" r="7.836" opacity=".6" transform="translate(34.444 145.667)" fill="#FFF"/><path d="M42.97 162.876a8.98 8.98 0 1 1 0-17.962 8.98 8.98 0 0 1 0 17.962zm0-2.289a6.692 6.692 0 1 0 0-13.384 6.692 6.692 0 0 0 0 13.384z" fill="#E88024" fill-rule="nonzero"/><circle cx="8.026" cy="8.644" r="7.836" opacity=".6" transform="translate(140.556 68)" fill="#FFF"/><path d="M148.581 85.624a8.98 8.98 0 1 1 0-17.961 8.98 8.98 0 0 1 0 17.961zm0-2.288a6.692 6.692 0 1 0 0-13.385 6.692 6.692 0 0 0 0 13.385z" fill="#E88024" fill-rule="nonzero"/><path d="M258.65 150.92h-37.126l-5.28-7.898-5.28 7.9h-37.142a4.622 4.622 0 0 0-4.622 4.623v23.875a4.622 4.622 0 0 0 4.622 4.623h84.829a4.622 4.622 0 0 0 4.622-4.623v-23.879a4.622 4.622 0 0 0-4.622-4.622z" fill="#E88024"/><path d="M17.606 18.576V23h-1.78V12.336h3.94c1.192 0 2.113.268 2.762.806.65.537.974 1.303.974 2.3 0 .551-.143 1.026-.428 1.424-.286.398-.702.717-1.25.956.601.19 1.034.501 1.297.934.264.432.396.963.396 1.593v.886c0 .312.039.618.117.915.078.298.21.525.395.682V23h-1.83c-.196-.161-.322-.415-.378-.762a6.362 6.362 0 0 1-.084-1.018v-.857c0-.547-.156-.981-.469-1.303-.312-.323-.742-.484-1.289-.484h-2.373zm0-1.428h2.065c.713 0 1.233-.137 1.56-.41.328-.274.491-.691.491-1.253 0-.537-.16-.958-.483-1.263-.322-.305-.813-.458-1.472-.458h-2.16v3.384h-.001zm11.323 6.006c-1.123 0-2.018-.368-2.684-1.102-.667-.735-1-1.679-1-2.831v-.293c0-1.153.331-2.108.993-2.868.661-.759 1.49-1.136 2.486-1.131 1.07 0 1.889.323 2.457.97.57.647.854 1.515.854 2.604v1.047h-4.944l-.015.037c.03.63.214 1.145.553 1.545.34.4.81.6 1.41.6.479 0 .889-.058 1.23-.175.342-.117.672-.286.99-.505l.57 1.164c-.297.264-.693.486-1.186.667-.493.18-1.064.27-1.714.27v.001zm-.205-6.797c-.44 0-.8.174-1.084.524-.283.349-.459.792-.527 1.329l.015.037h3.142v-.184c0-.502-.129-.913-.385-1.23-.256-.317-.643-.476-1.16-.476h-.001zm9.2 4.49c0-.274-.118-.5-.352-.681-.235-.181-.672-.34-1.311-.477-.947-.2-1.664-.484-2.15-.853-.486-.368-.729-.87-.729-1.505 0-.664.281-1.23.843-1.7.561-.468 1.301-.702 2.219-.702.967 0 1.735.238 2.303.714.57.476.841 1.065.817 1.769l-.015.044h-1.705c0-.328-.125-.608-.374-.843-.249-.234-.59-.351-1.025-.351-.43 0-.757.096-.981.289a.898.898 0 0 0-.337.707c0 .278.106.5.318.663.213.163.643.308 1.293.435.996.206 1.735.495 2.215.868.481.374.722.883.722 1.527 0 .713-.294 1.292-.883 1.736-.588.445-1.363.667-2.325.667-1.03 0-1.843-.264-2.439-.791-.596-.528-.879-1.133-.85-1.817l.015-.044h1.655c.02.46.186.794.498 1.004.313.21.694.315 1.143.315.459 0 .813-.088 1.062-.264a.827.827 0 0 0 .373-.71zm6.745 2.307c-1.123 0-2.018-.368-2.684-1.102-.667-.735-1-1.679-1-2.831v-.293c0-1.153.33-2.108.992-2.868.662-.759 1.49-1.136 2.487-1.131 1.07 0 1.888.323 2.457.97.57.647.854 1.515.854 2.604v1.047h-4.944l-.015.037c.03.63.214 1.145.553 1.545.34.4.81.6 1.41.6.478 0 .889-.058 1.23-.175.342-.117.672-.286.99-.505l.57 1.164c-.297.264-.693.486-1.186.667-.493.18-1.065.27-1.714.27v.001zm-.205-6.797c-.44 0-.8.174-1.084.524-.283.349-.459.792-.527 1.329l.014.037h3.142v-.184c0-.502-.128-.913-.384-1.23-.256-.317-.643-.476-1.161-.476zm6.958-3.208v1.926h1.42v1.319h-1.42v4.38c0 .327.07.56.212.699.142.14.33.209.564.209.187-.002.373-.034.55-.095l.19 1.303a2.04 2.04 0 0 1-.542.194c-.21.047-.427.07-.652.07-.654 0-1.167-.192-1.538-.575-.37-.383-.556-.985-.556-1.806v-4.38h-1.209v-1.318h1.209V13.15h1.772v-.001zm21.864 6.672l.176.791h.043l1.736-5.537h1.949l-3.282 9.126a4.069 4.069 0 0 1-.886 1.414c-.38.39-.92.586-1.619.586-.146 0-.304-.015-.472-.044a6.842 6.842 0 0 1-.487-.103l.198-1.377.27.022c.118.01.206.015.264.015.323 0 .58-.11.773-.33.193-.22.35-.473.472-.761l.293-.718-2.878-7.83h1.941l1.509 4.746zm12.367-3.332h-2.579V23h-1.78v-6.511H78.76v-1.414h6.892v1.414h.001zm-27.724 2.555h-3.845V17.61h3.845v1.434zm10.135 3.816h-1.773v-9.235h-4.783v9.235h-1.78V12.196h8.336V22.86z" fill="#000" fill-rule="nonzero"/><path d="M22.064 176.705h-1.443v-4.71h-5.179v4.71H14v-10.664h1.442v4.82h5.179v-4.82h1.443v10.664zm7.236 0c-.049-.24-.087-.45-.114-.633a4.65 4.65 0 0 1-.047-.553c-.269.38-.62.7-1.051.955a2.688 2.688 0 0 1-1.396.385c-.825 0-1.453-.211-1.886-.634-.432-.422-.648-1.004-.648-1.746 0-.757.307-1.35.92-1.777.612-.427 1.444-.64 2.493-.64h1.568v-.784c0-.464-.142-.831-.425-1.102-.283-.271-.684-.407-1.201-.407-.464 0-.841.119-1.132.355-.29.237-.436.522-.436.854h-1.377l-.014-.044c-.03-.576.243-1.104.816-1.582.574-.479 1.315-.718 2.223-.718.899 0 1.621.228 2.168.685.547.456.82 1.114.82 1.974v3.815c0 .284.015.557.045.82.029.264.083.523.16.777H29.3zm-2.395-1.055c.522 0 .994-.134 1.413-.402.42-.269.694-.577.82-.923v-1.29H27.52c-.581 0-1.046.147-1.395.44-.35.293-.524.637-.524 1.033 0 .351.11.63.33.835.22.205.544.307.974.307zm11.96 1.055h-1.443v-2.834a6.561 6.561 0 0 1-.856.164 7.57 7.57 0 0 1-.938.055c-.957 0-1.708-.251-2.252-.754-.545-.503-.817-1.248-.817-2.234v-2.329h1.443v2.33c0 .634.137 1.1.41 1.398.274.298.679.447 1.216.447a7.116 7.116 0 0 0 1.794-.22v-3.948h1.443v7.925zm6.966 0c-.05-.24-.087-.45-.114-.633a4.65 4.65 0 0 1-.047-.553c-.269.38-.62.7-1.052.955a2.688 2.688 0 0 1-1.395.385c-.825 0-1.454-.211-1.886-.634-.432-.422-.648-1.004-.648-1.746 0-.757.306-1.35.92-1.777.612-.427 1.443-.64 2.493-.64h1.568v-.784c0-.464-.142-.831-.425-1.102-.284-.271-.684-.407-1.201-.407-.464 0-.842.119-1.132.355-.29.237-.436.522-.436.854h-1.377l-.014-.044c-.03-.576.242-1.104.816-1.582.574-.479 1.315-.718 2.223-.718.899 0 1.621.228 2.168.685.547.456.82 1.114.82 1.974v3.815c0 .284.015.557.044.82.03.264.083.523.161.777h-1.486zm-2.395-1.055c.522 0 .993-.134 1.413-.402.42-.269.694-.577.82-.923v-1.29h-1.618c-.581 0-1.046.147-1.395.44-.35.293-.524.637-.524 1.033 0 .351.11.63.33.835.22.205.544.307.974.307zm12.194-6.87v7.925h-1.442v-6.782h-2.681v2.241c0 1.563-.208 2.71-.623 3.443-.415.732-1.123 1.098-2.124 1.098h-.41l.03-1.23.3-.008c.512 0 .87-.25 1.073-.75.202-.5.304-1.352.304-2.553v-3.384h5.573zm1.539 3.89c0-1.172.317-2.138.952-2.897.634-.76 1.496-1.14 2.585-1.14 1.099 0 1.967.38 2.604 1.136.637.757.956 1.724.956 2.9v.162c0 1.181-.318 2.148-.952 2.9-.635.752-1.5 1.128-2.593 1.128-1.094 0-1.96-.377-2.597-1.132-.637-.754-.955-1.72-.955-2.896v-.161zm1.442.16c0 .84.177 1.534.531 2.08.354.548.88.821 1.579.821.688 0 1.21-.273 1.567-.82.357-.547.535-1.24.535-2.08v-.161c0-.83-.18-1.521-.539-2.073-.358-.552-.885-.828-1.578-.828-.688 0-1.21.276-1.564.828-.354.552-.53 1.242-.53 2.073v.16h-.001zm205.065-33.645h-.996v3.85h-1.156v-8.532h1.155v3.774h.89l3.053-3.774h1.277l.018.03-3.31 4.095 3.55 4.377-.017.03h-1.377l-3.088-3.85h.001zm4.922.621c0-.937.254-1.71.761-2.317.508-.608 1.198-.911 2.069-.911.879 0 1.573.302 2.083.908.51.605.764 1.379.764 2.32v.13c0 .944-.254 1.718-.761 2.32-.508.601-1.2.902-2.075.902-.875 0-1.567-.302-2.077-.905-.51-.604-.764-1.376-.764-2.318v-.129zm1.154.13c0 .671.142 1.226.425 1.663.283.438.704.656 1.262.656.551 0 .97-.218 1.254-.656.286-.437.428-.992.428-1.664v-.129c0-.664-.143-1.217-.43-1.658-.288-.441-.709-.662-1.263-.662-.551 0-.968.22-1.251.662-.283.441-.425.994-.425 1.658v.13zm11.068 3.099h-1.154v-2.696h-2.824v2.696h-1.155v-6.34h1.155v2.742h2.824v-2.742h1.154v6.34zm4.319.123c-.883 0-1.585-.294-2.107-.882-.521-.588-.782-1.35-.782-2.288v-.258c0-.902.269-1.653.806-2.253.537-.6 1.173-.9 1.907-.9.855 0 1.502.259 1.94.774.437.516.656 1.203.656 2.063v.72h-4.114l-.017.03c.011.609.166 1.11.463 1.503.296.392.713.588 1.248.588.39 0 .733-.055 1.028-.167.295-.11.55-.264.765-.46l.45.75a2.682 2.682 0 0 1-.896.557c-.37.149-.82.223-1.347.223zm-.176-5.672c-.387 0-.717.163-.99.49-.274.325-.442.735-.504 1.227l.011.029h2.924v-.152c0-.453-.12-.832-.363-1.137-.242-.305-.602-.457-1.078-.457zm3.89-.791h1.155v5.437h2.83v-5.437h1.154v5.437h.774v2.977h-1.155v-2.074h-4.757v-6.34h-.001z" fill="#2A3052" fill-rule="nonzero"/><path d="M264.394 79.867h1.13l-1.523 7.629h3.767l1.524-7.63h1.13l-1.517 7.6h.832l-.715 2.989h-1.002l.41-2.057h-5.742l1.705-8.531h.001zm8.917 8.654c-.797 0-1.4-.296-1.807-.888-.409-.591-.538-1.352-.39-2.282l.041-.258c.148-.937.519-1.697 1.11-2.279.592-.582 1.232-.873 1.92-.873.777 0 1.333.26 1.67.78.335.519.437 1.204.304 2.056l-.117.72h-3.82c-.087.65-.027 1.165.178 1.548.205.382.556.574 1.052.574.64.004 1.26-.218 1.752-.627l.322.75a2.9 2.9 0 0 1-.914.557c-.371.148-.805.222-1.3.222h-.001zm.733-5.672c-.328 0-.646.164-.952.493a2.857 2.857 0 0 0-.66 1.218l.018.035h2.607l.024-.152c.074-.473.03-.856-.135-1.151-.164-.295-.465-.443-.902-.443zm8.87-.79l-1.265 6.34h-1.137l1.084-5.427h-1.927l-.358 1.793c-.265 1.328-.605 2.266-1.02 2.813-.413.547-1.007.82-1.78.82h-.317l.223-.984.217-.006c.359 0 .66-.206.902-.618.242-.412.457-1.087.644-2.025l.54-2.707h4.195l-.001.001zm2.42 2.179h1.436c.653 0 1.146.193 1.48.58.334.387.442.879.325 1.477-.133.648-.429 1.16-.888 1.538-.459.377-1.042.565-1.749.565h-2.566l1.265-6.34h1.137l-.44 2.18zm-.175.902l-.469 2.356h1.43c.344 0 .63-.113.861-.34.23-.227.38-.5.445-.82.067-.336.037-.62-.09-.85-.127-.23-.376-.346-.747-.346h-1.43z" fill="#6D6E70" fill-rule="nonzero"/><path d="M176.339 173v-12.086h4.084c1.422 0 2.531.277 3.328.83.797.554 1.196 1.38 1.196 2.482 0 .559-.149 1.058-.445 1.498-.296.44-.726.771-1.29.992.725.155 1.268.487 1.63.996.363.51.544 1.099.544 1.768 0 1.157-.381 2.033-1.145 2.628-.764.595-1.846.892-3.246.892h-4.656zm2.423-5.346v3.487h2.233c.642 0 1.132-.14 1.47-.42.337-.279.506-.693.506-1.24 0-.593-.144-1.045-.432-1.358-.287-.312-.741-.469-1.361-.469h-2.416zm0-1.676h1.744c.647 0 1.145-.133 1.494-.399.348-.266.523-.653.523-1.162 0-.559-.176-.971-.527-1.237-.352-.265-.876-.398-1.573-.398h-1.66v3.196h-.001zm11.024.946h1.685c1.206 0 2.155.278 2.847.834.692.556 1.038 1.285 1.038 2.187 0 .913-.346 1.65-1.038 2.212-.692.562-1.64.843-2.847.843h-4.117v-8.981h2.432v2.905zm8.84 6.076h-2.424v-8.981h2.424V173zm-8.84-4.217v2.366h1.685c.492 0 .86-.11 1.104-.332.243-.221.365-.506.365-.855a1.1 1.1 0 0 0-.365-.843c-.244-.224-.612-.336-1.104-.336h-1.685zm16.76-4.764h2.415V173h-2.416v-5.479l-.05-.008-2.93 5.487h-2.424v-8.981h2.424v5.461l.05.009 2.93-5.47h.001zm10.325 1.876h-3.71V173h-2.424v-8.981h6.134v1.876zm9.106 2.863c0 1.328-.307 2.396-.921 3.204-.614.808-1.472 1.212-2.573 1.212-.47 0-.889-.087-1.254-.261a2.574 2.574 0 0 1-.938-.768v4.308h-2.415V164.02h2.183l.14 1.062c.267-.393.586-.696.96-.909.373-.213.809-.32 1.307-.32 1.112 0 1.976.435 2.59 1.304.614.869.921 2.011.921 3.428v.174-.001zm-2.424-.174c0-.847-.14-1.533-.423-2.059-.282-.525-.714-.788-1.295-.788-.365 0-.676.075-.934.224a1.6 1.6 0 0 0-.61.64v3.934c.15.254.353.448.61.58.258.134.574.2.95.2.587 0 1.018-.23 1.292-.689.273-.46.41-1.082.41-1.868v-.174zm6.658-1.66h1.685c1.206 0 2.155.278 2.847.834.692.556 1.038 1.285 1.038 2.187 0 .913-.346 1.65-1.038 2.212-.692.562-1.64.843-2.847.843h-4.117v-8.981h2.432v2.905zm8.84 6.076h-2.424v-8.981h2.424V173zm-8.84-4.217v2.366h1.685c.492 0 .86-.11 1.104-.332.243-.221.365-.506.365-.855a1.1 1.1 0 0 0-.365-.843c-.244-.224-.612-.336-1.104-.336h-1.685zm13.779-4.764v7.122h2.44v-7.122h2.433v7.122h2.44v-7.122h2.424V173h-12.16v-8.981h2.423zm14.26 4.814h-2.423v-7.919h2.424v7.919h-.001zm0 4.167h-2.423v-2.125h2.424V173h-.001z" fill="#FFF" fill-rule="nonzero"/><path d="M76.831 60.557l1.705-8.53h2.625c.777 0 1.375.194 1.793.585.418.39.55.965.398 1.723-.076.39-.263.75-.539 1.037a2.545 2.545 0 0 1-1.02.644c.458.11.783.363.976.76.193.396.237.854.132 1.373-.168.832-.522 1.442-1.06 1.828-.54.387-1.223.58-2.051.58h-2.96.001zm1.927-4.002l-.615 3.1h1.828a1.8 1.8 0 0 0 1.157-.395c.33-.264.544-.63.642-1.1.102-.53.073-.93-.085-1.2-.158-.27-.468-.405-.929-.405h-1.998zm.182-.902h1.729c.351 0 .678-.12.981-.36.303-.24.495-.568.577-.982.098-.488.04-.84-.173-1.054-.213-.215-.571-.323-1.075-.323h-1.494l-.545 2.72v-.001zm10.535 2.092c-.195.976-.524 1.71-.987 2.2-.463.49-1.06.735-1.79.735-.34 0-.646-.064-.917-.193-.268-.126-.5-.32-.671-.562l-.615 3.07h-1.131l1.752-8.777h.972l-.04.627a2.46 2.46 0 0 1 .788-.554c.29-.127.604-.19.94-.19.684 0 1.19.337 1.52 1.013.33.676.398 1.512.203 2.508l-.024.123zm-1.107-.123c.148-.758.126-1.378-.068-1.86-.193-.483-.546-.724-1.057-.724-.26 0-.514.079-.727.228a2.32 2.32 0 0 0-.603.627l-.621 3.1c.101.246.253.438.457.577.203.139.462.208.779.208.465 0 .851-.183 1.16-.548.309-.365.527-.86.656-1.485l.024-.123zm4.453 3.058c-.797 0-1.4-.295-1.808-.887-.408-.592-.538-1.353-.39-2.282l.042-.258c.148-.938.518-1.698 1.11-2.28.592-.582 1.231-.873 1.919-.873.777 0 1.334.26 1.67.78.336.52.437 1.205.305 2.056l-.118.721h-3.82c-.086.648-.026 1.164.179 1.547s.555.574 1.052.574c.64.004 1.26-.218 1.752-.627l.322.75a2.9 2.9 0 0 1-.914.557c-.371.148-.805.222-1.301.222zm.732-5.671c-.328 0-.645.164-.952.492a2.857 2.857 0 0 0-.659 1.219l.018.035h2.607l.023-.153c.075-.472.03-.856-.134-1.151-.164-.295-.465-.442-.903-.442zm6.387 4.03l.035.007 2.836-4.828h1.418l-1.266 6.34h-1.13l.855-4.296-.035-.011-2.608 4.306h-.779l-.902-4.382h-.035l-.873 4.382h-1.137l1.266-6.34h1.459l.896 4.823v-.001zm10.5-4.821l-1.266 6.34h-1.136l.492-2.462h-1.383l-1.893 2.461h-1.218l2.045-2.66a1.463 1.463 0 0 1-.721-.691c-.149-.305-.182-.654-.1-1.049.118-.605.41-1.08.88-1.424.468-.344 1.064-.515 1.786-.515h2.514zm-4.043 1.95c-.062.298-.026.542.108.733.135.192.376.287.724.287h1.483l.416-2.074h-1.377c-.352 0-.653.106-.903.32-.25.212-.4.457-.451.735v-.001zm9.363.692l-.738 3.697h-1.137l1.705-8.525h2.9c.813 0 1.42.211 1.82.633.4.422.525 1.02.372 1.793-.097.472-.284.867-.56 1.183-.275.317-.639.567-1.092.75.383.16.642.412.78.756.136.344.157.756.064 1.237l-.159.802c-.058.282-.08.523-.064.724.016.201.076.37.182.507l-.03.14h-1.166c-.117-.132-.17-.326-.158-.58a5.07 5.07 0 0 1 .106-.802l.158-.78c.097-.488.054-.866-.13-1.133-.183-.268-.48-.402-.89-.402h-1.963zm.182-.908h1.652c.547 0 .986-.128 1.316-.384.33-.256.546-.63.647-1.122.102-.508.055-.887-.14-1.137-.196-.25-.565-.375-1.108-.375h-1.764l-.603 3.018zm7.746 4.728c-.797 0-1.4-.295-1.808-.887-.408-.592-.538-1.353-.39-2.282l.042-.258c.148-.938.518-1.698 1.11-2.28.592-.582 1.232-.873 1.92-.873.776 0 1.333.26 1.669.78.336.52.438 1.205.305 2.056l-.117.721h-3.82c-.087.648-.027 1.164.178 1.547s.556.574 1.052.574c.64.004 1.26-.218 1.752-.627l.322.75a2.9 2.9 0 0 1-.914.557c-.371.148-.805.222-1.3.222h-.001zm.732-5.671c-.328 0-.645.164-.952.492a2.857 2.857 0 0 0-.659 1.219l.018.035h2.607l.024-.153c.074-.472.029-.856-.135-1.151-.164-.295-.465-.442-.903-.442zm6.475 3.867c.043-.262-.01-.473-.158-.633-.149-.16-.457-.3-.926-.422-.691-.168-1.198-.396-1.52-.685-.323-.29-.443-.68-.36-1.172.085-.536.36-.98.825-1.333.465-.354 1.03-.53 1.694-.53.664 0 1.176.19 1.535.574.36.382.488.841.387 1.377l-.018.035h-1.084a.92.92 0 0 0-.187-.753c-.172-.217-.43-.325-.774-.325-.351 0-.637.09-.855.272-.206.16-.344.391-.387.648-.043.261.003.46.138.597.134.137.44.264.917.381.722.172 1.242.405 1.558.7.317.295.436.69.358 1.187a2.02 2.02 0 0 1-.856 1.38c-.476.338-1.062.506-1.758.506-.726 0-1.28-.207-1.664-.62-.382-.415-.52-.891-.41-1.43l.012-.035h1.084c-.05.41.037.71.264.899.226.19.511.284.855.284.355 0 .655-.084.9-.252a.956.956 0 0 0 .43-.65zm4.693 1.804c-.796 0-1.399-.295-1.807-.887-.408-.592-.538-1.353-.39-2.282l.041-.258c.149-.938.519-1.698 1.11-2.28.592-.582 1.232-.873 1.92-.873.777 0 1.333.26 1.67.78.335.52.437 1.205.304 2.056l-.117.721h-3.82c-.086.648-.027 1.164.178 1.547s.556.574 1.052.574c.64.004 1.26-.218 1.752-.627l.322.75a2.9 2.9 0 0 1-.914.557c-.37.148-.804.222-1.3.222h-.001zm.733-5.671c-.328 0-.646.164-.952.492a2.857 2.857 0 0 0-.66 1.219l.018.035h2.608l.023-.153c.074-.472.03-.856-.135-1.151-.164-.295-.465-.442-.902-.442zm5.777-2.32l-.31 1.529h1.095l-.17.855h-1.095l-.768 3.85c-.066.316-.056.53.03.641.085.112.224.167.415.167.09 0 .199-.009.326-.026.127-.018.227-.036.301-.056l-.005.791c-.114.07-.275.128-.484.173-.203.044-.41.067-.618.067-.41 0-.726-.144-.946-.433-.221-.29-.27-.73-.15-1.324l.768-3.85h-.926l.17-.855h.926l.31-1.53h1.131v.001z" fill="#6D6E70" fill-rule="nonzero"/></g></svg>