<svg width="299" height="197" xmlns="http://www.w3.org/2000/svg"><g fill="none" fill-rule="evenodd"><path fill="#F1F2F2" d="M0 0h299v197H0z"/><path d="M1.987 1.98v193.04h295.026V1.98H1.987zM299 0v197H0V0h299z" fill="#C2C2C2" fill-rule="nonzero"/><path d="M4.887 56.446v-1.207h289.656v1.207H4.887zm0 40.534v-1.207h289.656v1.207H4.887zm0 40.534v-1.207h289.656v1.207H4.887zm0 40.496v-1.207h289.656v1.207H4.887zm34.38-142.416h1.206v159.67h-1.206V35.594zm36.664 0h1.207v159.67h-1.207V35.594zm36.628 0h1.207v159.67h-1.207V35.594zm36.665 0h1.207v159.67h-1.207V35.594zm36.627 0h1.207v159.67h-1.207V35.594zm36.628 0h1.207v159.67h-1.207V35.594zM4.887 117.228v-1.207h289.656v1.207H4.887z" fill="#DFDEDE" fill-rule="nonzero"/><path d="M259.144 35.594h1.207v159.67h-1.207V35.594zM4.887 76.731v-1.206h289.656v1.206H4.887zm0 81.03v-1.206h289.656v1.207H4.887z" fill="#2A3052" fill-rule="nonzero"/><path fill="#C2C2C2" fill-rule="nonzero" d="M2.794 35.606V33.19h293.842v2.415z"/><path d="M40.664 118.252a1.81 1.81 0 0 1-1.588-3.254l41.486-20.249a1.81 1.81 0 0 1 1.736.08l38.373 23.362 27.773-27.4a1.81 1.81 0 0 1 2.444-.09l35.648 30.304 35.474-26.087a1.81 1.81 0 0 1 1.546-.29l36.665 9.938a1.81 1.81 0 0 1-.947 3.495l-35.823-9.709-35.924 26.418a1.81 1.81 0 0 1-2.245-.079l-35.476-30.157-27.598 27.227a1.81 1.81 0 0 1-2.213.258L81.26 98.438l-40.597 19.814z" fill="#2A3052" fill-rule="nonzero"/><path d="M187.987 147.445h-34.945l-5.382-8.181-5.382 8.181h-34.946a4.733 4.733 0 0 0-4.71 4.782v24.694a4.753 4.753 0 0 0 4.71 4.782h80.692a4.733 4.733 0 0 0 4.71-4.782v-24.694a4.758 4.758 0 0 0-4.747-4.782z" fill="#E88024"/><ellipse cx="8.335" cy="8.564" rx="8.11" ry="8.443" opacity=".6" transform="translate(251.412 99.132)" fill="#FFF"/><path d="M259.747 117.346c-5.157 0-9.317-4.331-9.317-9.65 0-5.32 4.16-9.65 9.317-9.65s9.318 4.33 9.318 9.65c0 5.319-4.16 9.65-9.318 9.65zm0-2.414c3.802 0 6.903-3.23 6.903-7.236 0-4.007-3.101-7.236-6.903-7.236-3.801 0-6.903 3.229-6.903 7.236s3.102 7.236 6.903 7.236z" fill="#E88024" fill-rule="nonzero"/><ellipse cx="8.97" cy="9.021" rx="8.11" ry="8.443" opacity=".6" transform="translate(30.9 107.604)" fill="#FFF"/><path d="M39.87 126.275c-5.157 0-9.317-4.332-9.317-9.65 0-5.32 4.16-9.65 9.317-9.65s9.317 4.33 9.317 9.65c0 5.318-4.16 9.65-9.317 9.65zm0-2.414c3.802 0 6.903-3.23 6.903-7.236 0-4.007-3.101-7.236-6.903-7.236-3.802 0-6.903 3.229-6.903 7.236 0 4.006 3.101 7.236 6.903 7.236z" fill="#E88024" fill-rule="nonzero"/><path d="M22.389 17.041c0 1.027-.323 1.874-.968 2.54-.646.667-1.486 1-2.52 1-1.032 0-1.868-.334-2.51-1.002-.642-.669-.962-1.515-.962-2.538v-1.5c0-1.02.32-1.866.96-2.536.639-.67 1.472-1.005 2.5-1.005 1.035 0 1.877.335 2.526 1.005.65.67.974 1.515.974 2.535v1.501zm-1.667-1.512c0-.65-.163-1.182-.487-1.599-.325-.416-.774-.624-1.346-.624-.566 0-1.006.208-1.32.624-.316.417-.473.95-.473 1.599v1.512c0 .66.158 1.2.475 1.615.317.417.76.625 1.33.625.572 0 1.019-.208 1.34-.625.32-.416.48-.954.48-1.615v-1.512h.001zm5.453 3.769c.29 0 .522-.087.693-.26.172-.174.258-.406.258-.697h1.524l.011.035c.016.626-.217 1.15-.698 1.572-.482.422-1.077.633-1.788.633-.916 0-1.625-.293-2.125-.88-.5-.585-.75-1.335-.75-2.248v-.171c0-.91.249-1.659.747-2.249.499-.59 1.204-.885 2.117-.885.756 0 1.365.218 1.827.653.462.435.686 1.008.67 1.719l-.011.034h-1.524c0-.32-.085-.587-.255-.8-.17-.211-.405-.317-.707-.317-.432 0-.738.173-.92.518-.181.346-.272.788-.272 1.327v.171c0 .55.091.995.272 1.335.182.34.492.51.931.51zm8.708-3.758h-1.982v4.92h-1.679v-4.92h-1.953v-1.277h5.614v1.277zm4.445 4.92a3.518 3.518 0 0 1-.158-.446 3.108 3.108 0 0 1-.094-.481c-.172.302-.4.552-.682.75a1.709 1.709 0 0 1-1.008.298c-.65 0-1.15-.167-1.5-.501-.352-.334-.528-.79-.528-1.366 0-.608.234-1.078.702-1.412.468-.335 1.15-.502 2.048-.502h.94v-.492c0-.298-.08-.53-.236-.693-.156-.165-.39-.247-.699-.247-.27 0-.48.066-.627.198-.147.132-.22.312-.22.541h-1.61l-.012-.034c-.026-.523.202-.975.685-1.355.483-.38 1.114-.57 1.893-.57.745 0 1.347.187 1.808.561.46.375.69.911.69 1.61v2.56c0 .291.022.564.066.82.044.256.113.51.209.762h-1.667v-.001zm-1.53-1.116c.29 0 .55-.073.78-.218.229-.145.385-.313.47-.504v-.876h-.94c-.355 0-.624.087-.805.263a.866.866 0 0 0-.272.647c0 .21.068.377.203.502.136.124.324.186.564.186zm9.533 1.117h-1.673v-2.406h-2.04v2.406h-1.672v-6.198h1.673v2.509h2.039v-2.51h1.673v6.199zm3.952.12c-.924 0-1.646-.283-2.165-.85-.52-.568-.78-1.298-.78-2.192v-.229c0-.928.253-1.688.757-2.28.504-.592 1.197-.886 2.08-.882.832 0 1.47.255 1.916.765.445.51.667 1.196.667 2.06v.864h-3.695l-.017.035c.027.423.156.767.387 1.03.23.264.573.396 1.028.396.374 0 .692-.038.954-.115a3.86 3.86 0 0 0 .81-.349l.453 1.031c-.248.202-.585.372-1.008.51a4.5 4.5 0 0 1-1.387.206zm-.109-5.144c-.336 0-.594.115-.776.347-.181.23-.291.537-.33.919l.012.029h2.04v-.126c0-.363-.075-.649-.224-.857-.149-.208-.39-.312-.722-.312zm8.742.103h-1.982v4.92h-1.678v-4.92h-1.954v-1.277h5.614v1.277zm3.369 3.758c.29 0 .52-.087.693-.26.172-.174.257-.406.257-.697h1.524l.012.035c.015.626-.218 1.15-.7 1.572-.48.422-1.076.633-1.786.633-.917 0-1.625-.293-2.126-.88-.5-.585-.75-1.335-.75-2.248v-.171c0-.91.249-1.659.747-2.249.499-.59 1.204-.885 2.117-.885.756 0 1.365.218 1.827.653.463.435.686 1.008.67 1.719l-.01.034h-1.525c0-.32-.085-.587-.254-.8-.17-.211-.406-.317-.708-.317-.432 0-.738.173-.92.518-.18.346-.271.788-.271 1.327v.171c0 .55.09.995.272 1.335.181.34.491.51.93.51h.001zm8.684-5.035v6.198h-1.661V18.29h-1.009l-1.214 2.17h-1.69l1.37-2.445c-.379-.168-.67-.4-.874-.693a1.715 1.715 0 0 1-.307-1.003c0-.603.24-1.097.719-1.48.48-.384 1.126-.576 1.94-.576h2.726zm-3.712 2.102c0 .214.083.4.249.558.166.159.402.238.708.238h1.094v-1.62h-1.066c-.313 0-.556.083-.727.251a.781.781 0 0 0-.258.573zm8.117 4.096v-6.198h2.59c.824 0 1.467.145 1.927.435.46.29.69.722.69 1.295 0 .29-.096.548-.289.773-.193.225-.467.397-.822.516.47.091.826.264 1.068.518.243.254.364.55.364.89 0 .585-.218 1.026-.656 1.324-.437.298-1.064.447-1.882.447h-2.99zm1.673-2.584v1.312h1.317c.294 0 .512-.054.653-.163.142-.109.212-.27.212-.484 0-.214-.067-.378-.203-.493-.136-.114-.356-.172-.662-.172h-1.317zm0-1.088h.962c.31 0 .538-.05.685-.15.147-.098.22-.247.22-.446 0-.225-.078-.39-.235-.495-.156-.105-.395-.158-.716-.158h-.916v1.249zm10.22 3.672h-1.673v-2.406h-2.04v2.406h-1.672v-6.198h1.672v2.509h2.04v-2.51h1.673v6.199zm3.5-2.6l.068.343h.035l1.186-3.941h1.798l-2.515 7.126c-.16.418-.403.8-.716 1.12-.301.303-.754.455-1.357.455a2.1 2.1 0 0 1-.393-.034 8.936 8.936 0 0 1-.438-.098l.195-1.22c.05.008.103.016.16.023.058.008.11.012.155.012.275 0 .487-.068.636-.204.149-.135.263-.304.344-.507l.194-.48-2.2-6.193h1.8l1.048 3.597v.001zm9.005-2.32h-1.983v4.92H97.11v-4.92h-1.951v-1.278h5.614v1.277l-.001.001zm6.473 1.993c0 .916-.212 1.653-.636 2.21-.424.558-1.016.837-1.776.837a1.99 1.99 0 0 1-.865-.18 1.777 1.777 0 0 1-.647-.53v2.973h-1.667v-8.581h1.507l.097.733c.183-.271.404-.48.662-.627a1.79 1.79 0 0 1 .902-.221c.768 0 1.363.3 1.787.9.424.599.636 1.388.636 2.365v.121zm-1.673-.12c0-.585-.097-1.059-.292-1.421-.195-.363-.492-.545-.893-.545-.253 0-.467.052-.645.155-.178.103-.318.25-.421.441v2.715c.103.176.243.31.421.401.178.092.396.138.656.138.405 0 .702-.159.89-.476.19-.316.284-.746.284-1.288v-.12zm6.405-3.151h1.667v6.198h-1.667V16.68l-.035-.006-2.022 3.787h-1.672v-6.198h1.672v3.769l.035.006 2.022-3.775z" fill="#020202" fill-rule="nonzero"/><path d="M184.258 165.556h-1.965v-6.502h1.965v6.502zm0 3.421h-1.965v-1.747h1.965v1.747zm-70.373-10.38h4.173c.755 0 2.71.57 2.842 2.341.088 1.18-.392 2.015-1.44 2.503 1.34.325 2.033 1.162 2.082 2.511.072 2.024-1.852 3.009-3.07 3.009h-4.587v-10.364zm1.644 8.958h2.358c.564 0 1.912-.103 1.912-1.67 0-1.568-1.662-1.671-1.912-1.671h-2.358v3.341zm.04-7.631v2.972h1.937c1.011 0 1.74-.52 1.678-1.626-.062-1.105-1.013-1.322-1.678-1.346h-1.937zm7.68 1.287h1.7v2.684h2.036c.491 0 2.92.38 2.804 2.575-.116 2.196-2.043 2.461-2.926 2.461h-3.615v-7.72h.001zm1.72 4.09v2.287h1.671c.417 0 1.446-.158 1.446-1.143s-1.05-1.143-1.446-1.143h-1.672l.001-.001zm32.897-4.24h1.7v2.684h2.037c.49 0 2.92.38 2.804 2.575-.117 2.196-2.044 2.461-2.927 2.461h-3.614v-7.72zm1.72 4.091v2.286h1.672c.417 0 1.445-.158 1.445-1.143s-1.05-1.143-1.445-1.143h-1.672zm-28.671-3.948h1.644v7.752h-1.644v-7.752zm34.676-.159h1.645v7.752h-1.645v-7.752zm-30.663.162h1.66v5.19l3.114-5.19h1.661v7.714h-1.66v-5.16l-3.052 5.16h-1.722l-.001-7.714zm13.398.034v1.348h-3.287v6.337h-1.794v-7.685h5.081zm1.057-.044l1.477.016.14.976c.774-1.114 2.183-1.404 3.415-.864 1.007.442 1.652 2.037 1.709 3.02.103 1.783.072 3.17-1.2 4.188-1.272 1.016-2.893.658-3.852-.362v3.725h-1.689v-10.699zm1.748 2.165c.021.988.007 2.208 0 3.524.873 1.226 2.022.854 2.569.517.57-.352.781-1.547.713-2.622-.048-.755-.426-1.97-1.201-2.222-.781-.254-1.456-.113-2.08.803h-.001zm18.534-2.163v7.719h10.052v-7.719h-1.752v6.327h-2.354v-6.327h-1.725v6.327h-2.49c-.021-3.695-.021-5.804 0-6.327h-1.731z" fill="#FFF" fill-rule="nonzero"/><path d="M20.281 170.631h-1.122l.546-3.658h-4.022l-.546 3.658h-1.121l1.24-8.283h1.12l-.562 3.744h4.022l.563-3.744h1.12l-1.24 8.283h.002zm6.57-6.155h1.121l-.922 6.155h-1.12l.648-4.357-.028-.017-3.374 4.374h-1.115l.922-6.155h1.115l-.654 4.363.028.017 3.38-4.38h-.001zm6.492 3.487h-.33l-.399 2.668h-1.12l.398-2.668h-.324l-2.14 2.668h-1.37l-.012-.028 2.76-3.22-1.673-2.907h1.354l1.246 2.537h.301l.381-2.537h1.121l-.381 2.537h.307l2.014-2.537h1.308l.012.028-2.51 2.873 1.81 3.254h-1.41l-1.343-2.668zm8.704 2.668h-1.121l.393-2.617h-2.743l-.392 2.617h-1.12l.92-6.155h1.122l-.399 2.662h2.742l.399-2.662h1.12l-.921 6.155zm2.861 0h-1.12l.17-1.149h1.121l-.17 1.15-.001-.001zm8.437-6.269c.755 0 1.323.298 1.704.893.381.596.505 1.343.373 2.242l-.023.125c-.144.952-.503 1.711-1.075 2.278-.573.567-1.288.85-2.145.85-.82 0-1.44-.295-1.863-.887-.423-.591-.566-1.338-.43-2.241l.023-.125c0-.02.002-.036.006-.051l.022-.109.2-1.325c.182-1.214.543-2.085 1.083-2.614.54-.53 1.278-.818 2.21-.868.528-.026.941-.092 1.24-.196.3-.104.47-.284.507-.538h.853l.012.035c-.072.625-.33 1.051-.774 1.277-.444.225-1.071.348-1.883.367-.576.019-1.061.176-1.454.472-.392.296-.628.738-.708 1.325l.017.029a3.1 3.1 0 0 1 .953-.677c.36-.171.753-.26 1.152-.262zm-.353.882c-.512 0-.943.217-1.294.651-.35.435-.572.968-.663 1.602l-.022.125c-.103.679-.049 1.224.162 1.636.21.411.589.617 1.135.617.512 0 .943-.215 1.294-.646.35-.43.576-.966.674-1.607l.023-.125c.099-.668.04-1.21-.174-1.627-.214-.417-.592-.626-1.135-.626zm6.935 5.387c-.007-.171-.01-.343-.011-.514 0-.131.008-.265.023-.401-.263.3-.578.548-.93.736-.366.2-.74.299-1.124.299-.618 0-1.076-.166-1.374-.498-.298-.332-.403-.782-.316-1.351a1.887 1.887 0 0 1 .91-1.394c.52-.322 1.193-.483 2.02-.483h1.218l.09-.61c.058-.375-.008-.664-.196-.867-.187-.203-.484-.304-.89-.304-.345 0-.648.091-.91.273-.262.182-.41.4-.444.654l-1.07.012-.005-.035c.045-.466.317-.88.813-1.243.497-.362 1.1-.543 1.81-.543.67 0 1.198.18 1.581.538.383.358.527.867.432 1.527l-.443 2.964c-.038.232-.06.447-.066.646-.005.2.007.397.037.594h-1.155zm-1.735-.819c.387 0 .763-.106 1.127-.318.364-.213.616-.452.756-.717l.154-.996h-1.257c-.437 0-.812.116-1.127.347-.315.232-.493.497-.535.797-.045.284.005.503.151.657.146.153.39.23.731.23zm10.03-2.025c-.14.922-.46 1.646-.959 2.173-.498.527-1.125.79-1.88.79-.368 0-.686-.066-.956-.201a1.63 1.63 0 0 1-.654-.595l-.455 3.044h-1.12l1.274-8.522h.859l.057.796a2.55 2.55 0 0 1 .853-.677 2.456 2.456 0 0 1 1.08-.233c.733 0 1.271.306 1.617.919.345.612.445 1.408.301 2.386l-.017.12zm-1.104-.12c.11-.724.061-1.304-.148-1.74-.208-.437-.582-.655-1.12-.655-.311 0-.593.075-.845.225a2.19 2.19 0 0 0-.657.612l-.444 2.958c.106.254.262.452.467.594.204.143.472.214.802.214.508 0 .934-.196 1.277-.589.343-.393.56-.892.651-1.5l.017-.119zm3.8-.847h1.537c.698 0 1.23.176 1.595.529.366.353.508.804.424 1.354a2.123 2.123 0 0 1-.819 1.4c-.455.352-1.047.528-1.775.528h-2.651l.922-6.155h1.12l-.352 2.344h-.001zm-.13.876l-.307 2.06h1.53c.383 0 .69-.098.919-.294.23-.195.367-.435.412-.72.042-.288-.018-.534-.18-.739-.16-.205-.442-.307-.844-.307h-1.53zm7.248 3.055c-.85 0-1.488-.286-1.915-.86-.426-.572-.572-1.311-.435-2.218l.04-.25c.133-.918.494-1.658 1.084-2.219.59-.561 1.258-.842 2.005-.842.793 0 1.363.26 1.712.78.35.52.461 1.196.336 2.03l-.085.592h-3.983c-.087.653-.022 1.167.194 1.545.216.377.609.566 1.177.566a3.04 3.04 0 0 0 1.016-.165c.313-.11.583-.258.81-.444l.33.728c-.25.213-.566.392-.95.538-.383.146-.828.219-1.336.219zm.648-5.507c-.375 0-.716.152-1.021.455-.315.32-.541.716-.657 1.15l.011.033h2.77l.012-.09c.068-.46.015-.832-.16-1.119-.174-.286-.492-.43-.955-.43v.001zm8.59 2.543c-.14.922-.46 1.646-.958 2.173-.499.527-1.125.79-1.88.79-.368 0-.687-.066-.956-.201a1.63 1.63 0 0 1-.654-.595l-.455 3.044h-1.122l1.274-8.522h.86l.056.796c.247-.295.531-.521.854-.677a2.456 2.456 0 0 1 1.08-.233c.732 0 1.271.306 1.616.919.345.612.446 1.408.302 2.386l-.017.12zm-1.103-.12c.11-.724.06-1.304-.148-1.74-.209-.437-.582-.655-1.12-.655-.312 0-.593.075-.846.225-.252.15-.47.354-.657.612l-.443 2.958c.106.254.261.452.466.594.205.143.472.214.802.214.508 0 .934-.196 1.277-.589.344-.393.56-.892.652-1.5l.017-.119zM14 68.242l1.247-8.323h2.715c.834 0 1.477.19 1.93.569.45.38.621.94.51 1.683a1.83 1.83 0 0 1-.474.978 2.462 2.462 0 0 1-.972.64c.53.08.924.317 1.18.712.258.394.349.858.272 1.392-.122.792-.455 1.382-1 1.769-.545.387-1.248.58-2.11.58H14zm1.71-3.904l-.452 3.024h2.172c.496 0 .91-.128 1.24-.383.332-.255.532-.614.6-1.075.07-.476-.02-.853-.265-1.129-.246-.276-.614-.422-1.106-.437h-2.19.001zm.131-.88h1.83c.403 0 .758-.117 1.063-.35.304-.232.487-.552.548-.96.069-.464-.02-.805-.268-1.02-.248-.215-.643-.323-1.184-.323h-1.589l-.4 2.653zm7.991 4.904c-.853 0-1.494-.288-1.923-.863-.429-.575-.575-1.319-.437-2.23l.04-.25c.133-.923.496-1.666 1.089-2.23.592-.564 1.264-.846 2.015-.846.796 0 1.37.26 1.72.783.35.522.463 1.202.338 2.04l-.086.595h-4.002c-.087.656-.023 1.173.195 1.552.217.38.611.569 1.183.569a3.04 3.04 0 0 0 1.02-.166c.315-.11.586-.259.815-.446l.331.732a3.27 3.27 0 0 1-.954.54c-.385.147-.833.22-1.344.22zm.652-5.533c-.377 0-.72.152-1.026.457a2.6 2.6 0 0 0-.66 1.155l.011.034h2.784l.012-.091c.068-.462.015-.836-.16-1.124-.176-.287-.496-.431-.96-.431h-.001zm8.632 2.555c-.141.926-.462 1.654-.963 2.184-.501.53-1.131.794-1.89.794-.37 0-.69-.067-.96-.203a1.637 1.637 0 0 1-.657-.597l-.458 3.058h-1.126l1.28-8.563h.864l.057.8c.248-.297.534-.524.857-.68.34-.16.712-.24 1.087-.234.735 0 1.276.307 1.623.923.347.615.448 1.415.303 2.398l-.017.12zm-1.11-.12c.111-.728.062-1.311-.148-1.75-.21-.438-.585-.657-1.126-.657a1.63 1.63 0 0 0-.849.226c-.253.15-.473.356-.66.615l-.446 2.972c.107.255.263.455.469.598.206.142.474.214.806.214.51 0 .938-.197 1.283-.592.345-.394.563-.896.655-1.506l.017-.12h-.001zm4.66-.926l1.657-2.28h1.275l.017.028-2.44 3.03 1.594 3.126h-1.292l-1.023-2.338-1.72 2.338h-1.265l-.017-.028 2.51-3.099-1.55-3.058h1.298l.955 2.28.001.001zm8.214 3.904h-1.126l.394-2.63h-2.755l-.394 2.63h-1.126l.926-6.185h1.126l-.4 2.675h2.755l.4-2.675h1.126l-.926 6.185zm2.875 0h-1.126l.172-1.155h1.126l-.172 1.155zm8.478-6.3c.758 0 1.329.3 1.712.898.383.599.508 1.35.374 2.252l-.023.126c-.144.957-.505 1.72-1.08 2.29-.575.57-1.294.854-2.155.854-.823 0-1.447-.297-1.872-.892-.425-.594-.569-1.345-.432-2.252l.023-.126c0-.019.002-.036.006-.051l.023-.109.2-1.332c.183-1.219.546-2.095 1.089-2.626.543-.532 1.283-.822 2.22-.872.53-.027.946-.092 1.247-.197.3-.105.47-.285.508-.54h.858l.011.034c-.072.629-.331 1.057-.777 1.283-.446.227-1.077.35-1.892.369-.58.019-1.066.177-1.46.474-.395.298-.632.742-.712 1.332l.017.029c.263-.278.582-.505.957-.68a2.708 2.708 0 0 1 1.158-.263v-.001zm-.355.887c-.514 0-.948.218-1.3.654-.353.437-.575.973-.666 1.61l-.023.125c-.103.682-.049 1.23.163 1.644.211.413.592.62 1.14.62.515 0 .948-.216 1.3-.649.353-.432.58-.97.678-1.615l.023-.126c.1-.67.041-1.215-.174-1.634-.216-.42-.596-.63-1.14-.63l-.001.001zm6.969 5.413c-.007-.172-.01-.345-.012-.517a3.7 3.7 0 0 1 .023-.403 3.34 3.34 0 0 1-.935.74c-.367.2-.744.3-1.129.3-.62 0-1.08-.167-1.38-.5-.3-.333-.405-.786-.317-1.358.087-.61.392-1.076.914-1.4.522-.324 1.199-.486 2.03-.486h1.223l.091-.612c.058-.377-.008-.668-.197-.871-.189-.204-.487-.306-.894-.306-.347 0-.652.091-.915.274-.263.183-.412.402-.446.658l-1.075.011-.005-.034c.045-.47.318-.885.817-1.25.5-.363 1.105-.545 1.818-.545.674 0 1.204.18 1.589.54.385.36.53.872.434 1.535l-.445 2.978c-.039.232-.06.449-.066.649-.006.2.007.399.037.597h-1.16zm-1.744-.823c.389 0 .766-.107 1.132-.32.366-.214.62-.454.76-.72l.155-1h-1.264c-.438 0-.815.115-1.132.348-.316.232-.495.5-.537.8-.046.286.005.506.152.66.146.155.391.232.734.232zm10.078-2.035c-.141.926-.462 1.654-.963 2.184-.501.53-1.131.794-1.89.794-.37 0-.69-.067-.96-.203a1.637 1.637 0 0 1-.657-.597l-.457 3.058h-1.127l1.28-8.563h.864l.057.8c.248-.297.534-.524.858-.68.34-.16.71-.24 1.086-.234.735 0 1.276.307 1.623.923.347.615.448 1.415.303 2.398l-.017.12zm-1.109-.12c.11-.728.061-1.311-.149-1.75-.21-.438-.585-.657-1.126-.657a1.63 1.63 0 0 0-.849.226c-.253.15-.473.356-.66.615l-.446 2.972c.107.255.263.455.47.598.205.142.474.214.805.214.51 0 .938-.197 1.283-.592.345-.394.563-.896.655-1.506l.017-.12zm3.819-.852h1.543c.701 0 1.236.177 1.603.532.368.354.51.808.426 1.36a2.133 2.133 0 0 1-.823 1.407c-.457.354-1.052.531-1.783.531h-2.664l.926-6.185h1.126l-.354 2.355zm-.132.88l-.309 2.07h1.538c.385 0 .693-.098.923-.295.23-.196.369-.437.415-.723.042-.29-.018-.537-.18-.743-.162-.206-.445-.308-.85-.308h-1.537v-.001zm7.283 3.07c-.854 0-1.495-.288-1.924-.863-.429-.575-.574-1.319-.437-2.23l.04-.25c.133-.923.496-1.666 1.089-2.23.592-.564 1.264-.846 2.015-.846.796 0 1.37.26 1.72.783.351.522.464 1.202.338 2.04l-.086.595h-4.001c-.088.656-.023 1.173.194 1.552.217.38.612.569 1.183.569a3.04 3.04 0 0 0 1.02-.166c.315-.11.586-.259.815-.446l.332.732c-.252.213-.57.393-.955.54-.385.147-.833.22-1.343.22zm.651-5.533c-.377 0-.719.152-1.026.457a2.61 2.61 0 0 0-.66 1.155l.012.034h2.783l.012-.091c.068-.462.015-.836-.16-1.124-.176-.287-.496-.431-.96-.431h-.001zm8.632 2.555c-.14.926-.462 1.654-.963 2.184-.501.53-1.131.794-1.89.794-.369 0-.69-.067-.96-.203a1.637 1.637 0 0 1-.657-.597l-.457 3.058h-1.127l1.28-8.563h.864l.057.8c.248-.297.534-.524.858-.68.34-.16.71-.24 1.086-.234.735 0 1.276.307 1.623.923.347.615.448 1.415.303 2.398l-.017.12zm-1.109-.12c.11-.728.061-1.311-.149-1.75-.21-.438-.584-.657-1.126-.657a1.63 1.63 0 0 0-.849.226c-.253.15-.473.356-.66.615l-.446 2.972c.107.255.263.455.47.598.205.142.474.214.805.214.51 0 .939-.197 1.283-.592.345-.394.563-.896.655-1.506l.017-.12z" fill="#6D6E71" fill-rule="nonzero"/><path d="M32.789 138.655c-.03-.151-.03-.273-.03-.425-.22.306-.499.564-.82.76-.327.205-.706.31-1.092.303-.637 0-1.123-.152-1.456-.516a1.851 1.851 0 0 1-.516-1.366c0-.607.242-1.062.728-1.396.486-.334 1.123-.516 1.942-.516h1.214v-.607c0-.364-.121-.667-.334-.88-.212-.212-.546-.334-.94-.334-.365 0-.668.092-.88.274a.895.895 0 0 0-.334.667h-1.062v-.03c-.03-.455.182-.88.637-1.244s1.032-.577 1.73-.577 1.274.182 1.699.546c.425.364.637.88.637 1.548v3.004c0 .213 0 .425.03.638.031.212.061.424.122.607H32.88v.06a17.71 17.71 0 0 0-.09-.516h-.001zm-1.836-.364c.394 0 .789-.09 1.092-.303.334-.213.546-.455.637-.729v-1.001h-1.243c-.455 0-.82.121-1.092.334-.253.196-.4.5-.395.82a1 1 0 0 0 .243.667c.182.121.425.212.759.212h-.001zm14.618.334c-.03-.151-.03-.273-.03-.425-.22.306-.499.564-.82.76-.327.205-.706.31-1.092.303-.638 0-1.123-.152-1.457-.516a1.851 1.851 0 0 1-.516-1.366c0-.607.243-1.062.728-1.396.486-.334 1.123-.516 1.943-.516h1.213v-.607c0-.364-.121-.667-.333-.88-.213-.212-.547-.334-.941-.334-.364 0-.668.092-.88.274a.895.895 0 0 0-.334.667h-1.063v-.03c-.03-.455.182-.88.637-1.244.455-.365 1.032-.577 1.73-.577s1.274.182 1.7.546c.424.364.637.88.637 1.548v3.004c0 .213 0 .425.03.638.03.212.06.424.121.607h-1.183v.06c-.03-.182-.06-.364-.091-.516h.001zm-1.837-.364c.394 0 .789-.09 1.092-.303.334-.213.547-.456.638-.729v-1.001h-1.245c-.455 0-.819.121-1.092.334-.253.196-.4.5-.395.82a1 1 0 0 0 .243.667c.182.121.425.212.759.212zm13.243-5.36c.685-.038 1.551.2 2.036.692.536.544.92 1.22.92 2.337 0 .99-.198 1.704-.666 2.282-.529.653-1.352.952-2.02.952-.693 0-1.445-.109-2.076-.693-.517-.477-.995-1.296-.948-2.439.053-1.262.46-1.983.948-2.44.493-.46 1.073-.651 1.806-.691zm.246.826c-.785 0-1.734.512-1.734 2.1s.586 2.533 1.638 2.533c1.053 0 1.743-1.068 1.637-2.533-.107-1.464-.755-2.1-1.54-2.1h-.001zm-30.985-2.856h1.104v8.173h-1.104v-3.62h-3.997v3.62h-1.102v-8.173h1.103v3.715h3.997l-.001-3.715zm9.141 2.074h1.07v1.846c0 1.253.88 1.657 2.646 1.213l.02-3.004h1.086v6.013h-1.087c.007-.877.007-1.599 0-2.166-1.148.31-2.86.331-3.464-.84-.246-.48-.266-.933-.27-1.368a71.54 71.54 0 0 1 0-1.694h-.001zm12.177 5.159c.008.258-.03.475-.03.94 2.502.159 2.534-2.02 2.429-5.193l2.029-.003v5.24h1.094v-6.101a123.6 123.6 0 0 0-4.243 0c-.077 2.368.483 5.247-1.28 5.117h.001zm240.675-12.327h-3.566c0 .661.136 1.14.406 1.435.355.388.729.528 1.241.477.896-.09 1.069-.329 1.439-.54l.377.647c-.44.456-1.146.683-2.116.683-1.455 0-2.342-1.205-2.4-2.64-.058-1.436.515-3.101 2.4-3.171 1.597.042 2.337 1.079 2.22 3.109h-.001zm-1.001-.79c-.01-1.01-.416-1.514-1.217-1.514-.802 0-1.24.505-1.314 1.514h2.531zm-13.079-2.316c.615-.033 1.391.18 1.826.62.48.489.825 1.095.825 2.097 0 .887-.178 1.528-.597 2.046-.474.586-1.213.854-1.812.854-.621 0-1.295-.098-1.861-.621-.464-.429-.892-1.163-.85-2.188.048-1.132.412-1.778.85-2.187.443-.414.962-.585 1.62-.62l-.001-.001zm.221.74c-.704 0-1.555.46-1.555 1.884 0 1.425.525 2.272 1.469 2.272.944 0 1.563-.958 1.468-2.272-.096-1.313-.677-1.883-1.382-1.883v-.001zm14.944-.633h.963v4.724h2.425v-4.724h1v4.724h.662v2.564h-.964v-1.771h-4.086v-5.517zm-23.539-1.891h.966v3.18h.61l2.676-3.18h1.106l-2.948 3.485 3.213 3.898h-1.216l-2.831-3.352h-.61v3.352h-.966v-7.383zm12.182 1.914h1.01v2.339h2.405v-2.339h.95v5.408h-.95v-2.275h-2.404v2.275h-1.01l-.001-5.408z" fill="#2A3052" fill-rule="nonzero"/></g></svg>