<svg width="299" height="197" xmlns="http://www.w3.org/2000/svg"><g fill="none" fill-rule="evenodd"><path fill="#F1F2F2" d="M0 0h299v197H0z"/><path d="M1.987 1.98v193.04h295.026V1.98H1.987zM299 0v197H0V0h299z" fill="#C2C2C2" fill-rule="nonzero"/><path d="M4.887 56.446v-1.207h289.656v1.207H4.887zm0 40.534v-1.207h289.656v1.207H4.887zm0 40.534v-1.207h289.656v1.207H4.887zm0 40.496v-1.207h289.656v1.207H4.887zm34.38-142.416h1.206v159.67h-1.206V35.594zm36.664 0h1.207v159.67h-1.207V35.594zm36.628 0h1.207v159.67h-1.207V35.594zm36.665 0h1.207v159.67h-1.207V35.594zm36.627 0h1.207v159.67h-1.207V35.594zm36.628 0h1.207v159.67h-1.207V35.594zM4.887 117.228v-1.207h289.656v1.207H4.887z" fill="#DFDEDE" fill-rule="nonzero"/><path fill="#2A3052" fill-rule="nonzero" d="M4.887 76.731v-1.206h289.656v1.206z"/><path fill="#DFDEDE" fill-rule="nonzero" d="M4.887 157.762v-1.207h289.656v1.207z"/><path fill="#2A3052" fill-rule="nonzero" d="M259.144 35.594h1.207v159.67h-1.207z"/><path fill="#C2C2C2" fill-rule="nonzero" d="M2.794 35.606V33.19h293.842v2.415z"/><path d="M41.087 138.25a1.81 1.81 0 0 1-2.434-2.68l36.665-33.287a1.81 1.81 0 0 1 2.492.056l24.705 24.516 30.16-33.337a1.81 1.81 0 0 1 2.572-.115l44.09 40.784 42.273-59.112a1.81 1.81 0 0 1 2.945 2.106l-43.467 60.782a1.81 1.81 0 0 1-2.702.276l-44.254-40.934-30.204 33.385a1.81 1.81 0 0 1-2.618.07l-24.83-24.64-35.393 32.13z" fill="#2A3052" fill-rule="nonzero"/><path d="M187.987 147.445h-34.945l-5.382-8.181-5.382 8.181h-34.946c-2.616 0-4.71 2.13-4.71 4.782v24.694c0 2.653 2.131 4.782 4.71 4.782h80.692c2.617 0 4.71-2.13 4.71-4.782v-24.694c0-2.652-2.13-4.782-4.747-4.782z" fill="#E88024"/><ellipse cx="9.045" cy="8.618" rx="8.11" ry="8.443" opacity=".6" transform="translate(214.037 67.51)" fill="#FFF"/><path d="M223.082 85.778c-5.157 0-9.317-4.331-9.317-9.65s4.16-9.65 9.317-9.65 9.318 4.331 9.318 9.65-4.16 9.65-9.318 9.65zm0-2.414c3.802 0 6.904-3.23 6.904-7.236 0-4.007-3.102-7.236-6.904-7.236-3.801 0-6.903 3.229-6.903 7.236s3.102 7.236 6.903 7.236z" fill="#E88024" fill-rule="nonzero"/><ellipse cx="8.97" cy="8.891" rx="8.11" ry="8.443" opacity=".6" transform="translate(30.9 128.019)" fill="#FFF"/><path d="M39.87 146.56c-5.157 0-9.317-4.33-9.317-9.65 0-5.319 4.16-9.65 9.317-9.65s9.317 4.331 9.317 9.65c0 5.32-4.16 9.65-9.317 9.65zm0-2.414c3.802 0 6.903-3.229 6.903-7.236s-3.101-7.236-6.903-7.236c-3.802 0-6.903 3.23-6.903 7.236 0 4.007 3.101 7.236 6.903 7.236z" fill="#E88024" fill-rule="nonzero"/><path d="M18.111 17.842h-.834v4.906H15V11h2.277v4.801h.639L21.026 11h2.815l-3.93 5.463 4.234 6.285h-2.9l-3.134-4.906zm11.865 4.906a5.072 5.072 0 0 1-.214-.629 4.514 4.514 0 0 1-.129-.678 3.192 3.192 0 0 1-.928 1.057c-.384.28-.842.42-1.372.42-.883 0-1.564-.235-2.042-.706-.478-.47-.717-1.112-.717-1.925 0-.855.318-1.518.955-1.989.636-.47 1.565-.706 2.787-.706h1.278v-.694c0-.42-.106-.745-.32-.976-.213-.231-.53-.347-.95-.347-.37 0-.654.093-.854.278-.2.186-.3.44-.3.763h-2.191l-.016-.048c-.036-.737.275-1.374.932-1.909.657-.535 1.516-.803 2.576-.803 1.014 0 1.834.264 2.46.791.626.527.94 1.283.94 2.267v3.607c0 .41.03.794.09 1.154.059.36.154.718.284 1.073h-2.269zm-2.081-1.573a1.89 1.89 0 0 0 1.06-.307c.312-.204.525-.44.64-.71v-1.234h-1.28c-.483 0-.848.123-1.095.37-.247.248-.37.552-.37.913 0 .296.092.53.277.706.184.175.44.262.768.262zm9.207-.065c.395 0 .709-.122.943-.367.234-.245.35-.571.35-.98h2.074l.016.048c.02.882-.296 1.62-.951 2.215-.655.595-1.466.892-2.432.892-1.248 0-2.212-.413-2.893-1.239-.68-.825-1.021-1.881-1.021-3.167v-.242c0-1.28.34-2.336 1.017-3.167.679-.831 1.639-1.247 2.88-1.247 1.03 0 1.859.307 2.488.92s.933 1.42.912 2.42l-.016.05h-2.073c0-.453-.116-.828-.347-1.126-.232-.299-.552-.448-.963-.448-.587 0-1.004.243-1.251.73-.247.487-.37 1.11-.37 1.868v.242c0 .775.123 1.401.37 1.88.247.479.669.718 1.267.718zm9.682 1.638a5.072 5.072 0 0 1-.214-.629 4.514 4.514 0 0 1-.129-.678 3.192 3.192 0 0 1-.928 1.057c-.384.28-.842.42-1.372.42-.883 0-1.564-.235-2.042-.706-.478-.47-.718-1.112-.718-1.925 0-.855.319-1.518.955-1.989.637-.47 1.566-.706 2.787-.706h1.279v-.694c0-.42-.107-.745-.32-.976-.213-.231-.53-.347-.95-.347-.37 0-.654.093-.854.278-.2.186-.3.44-.3.763h-2.191l-.016-.048c-.036-.737.274-1.374.932-1.909.657-.535 1.516-.803 2.576-.803 1.014 0 1.834.264 2.46.791.626.527.94 1.283.94 2.267v3.607c0 .41.03.794.09 1.154.059.36.154.718.284 1.073h-2.269zm-2.081-1.573a1.89 1.89 0 0 0 1.06-.307c.312-.204.525-.44.639-.71v-1.234h-1.279c-.483 0-.848.123-1.095.37-.247.248-.37.552-.37.913 0 .296.092.53.277.706.184.175.44.262.768.262zm12.972 1.573h-2.277v-3.389h-2.774v3.39h-2.276v-8.731h2.276v3.534h2.775v-3.534h2.277v8.73h-.001zm6.759-8.73h2.268v8.73h-2.268v-5.325l-.047-.008-2.752 5.333h-2.276v-8.73h2.276v5.31l.047.007 2.752-5.317zm7.632 8.9c-1.258 0-2.24-.4-2.947-1.198-.707-.8-1.06-1.828-1.06-3.087v-.323c0-1.307.343-2.377 1.029-3.211.686-.834 1.63-1.248 2.83-1.243 1.133 0 2.002.36 2.608 1.078.605.718.908 1.685.908 2.9v1.219h-5.028l-.024.048c.037.597.212 1.081.526 1.453.315.37.781.556 1.4.556.509 0 .942-.053 1.298-.161.386-.12.756-.286 1.103-.492l.616 1.452c-.338.285-.795.525-1.372.718a5.895 5.895 0 0 1-1.887.29v.001zm-.148-7.246c-.457 0-.81.163-1.056.488-.247.325-.397.757-.449 1.295l.016.04h2.775v-.177c0-.511-.101-.913-.304-1.206-.203-.294-.53-.44-.982-.44z" fill="#000" fill-rule="nonzero"/><path d="M30.288 160.074c-.033-.17-.033-.305-.033-.475-.23.34-.524.61-.885.848-.36.238-.754.34-1.18.34-.689 0-1.213-.17-1.574-.577a2.112 2.112 0 0 1-.558-1.527c0-.679.263-1.188.787-1.561.525-.374 1.214-.577 2.099-.577h1.311v-.68c0-.406-.13-.746-.36-.983-.23-.238-.59-.374-1.017-.374-.393 0-.721.102-.95.306-.23.204-.361.475-.361.747h-1.148v-.034c-.033-.51.197-.985.689-1.392.491-.407 1.114-.645 1.869-.645.754 0 1.377.204 1.836.611.459.407.688.984.688 1.731v3.36c0 .237 0 .475.033.712.033.238.066.476.131.68h-1.279v.067a19.98 19.98 0 0 0-.098-.577zm-1.985-.407c.427 0 .853-.102 1.18-.34.362-.237.591-.509.69-.814v-1.12h-1.345c-.492 0-.885.136-1.18.373a1.154 1.154 0 0 0-.427.917c0 .305.099.543.263.746.196.136.459.238.82.238h-.001zm15.795.374c-.033-.17-.033-.306-.033-.476-.23.34-.525.611-.885.849-.361.237-.754.34-1.18.34-.69 0-1.214-.17-1.575-.578a2.112 2.112 0 0 1-.557-1.527c0-.679.262-1.188.787-1.561s1.213-.577 2.098-.577h1.312v-.679c0-.407-.131-.746-.36-.984-.23-.237-.59-.373-1.017-.373-.394 0-.721.102-.951.305-.23.204-.36.475-.36.747h-1.148v-.034c-.033-.51.196-.984.688-1.391.492-.408 1.115-.645 1.87-.645.753 0 1.376.203 1.835.61.46.408.689.985.689 1.731v3.36c0 .238 0 .475.033.713.033.237.065.475.13.679h-1.278v.068c-.033-.204-.065-.408-.098-.577zm-1.985-.408c.426 0 .853-.101 1.18-.339.361-.238.59-.51.689-.815v-1.12h-1.344c-.492 0-.886.136-1.18.374a1.154 1.154 0 0 0-.427.916c0 .306.098.543.262.747a1.4 1.4 0 0 0 .82.237zm14.309-5.995c.74-.041 1.676.224 2.2.775.579.608.993 1.365.993 2.614 0 1.106-.214 1.906-.72 2.552a2.849 2.849 0 0 1-2.182 1.064c-.748 0-1.56-.122-2.243-.775-.558-.534-1.075-1.45-1.023-2.727.057-1.412.495-2.218 1.023-2.728.534-.516 1.16-.73 1.952-.775zm.266.924c-.848 0-1.874.573-1.874 2.35 0 1.775.633 2.832 1.77 2.832s1.883-1.195 1.768-2.833c-.115-1.638-.816-2.349-1.664-2.349zm-33.479-3.193h1.193v9.14h-1.193v-4.05h-4.318v4.05h-1.192v-9.14h1.192v4.154h4.318v-4.154zm9.877 2.319h1.158v2.065c-.002 1.401.95 1.853 2.858 1.356l.02-3.36h1.175v6.725h-1.174c.007-.98.007-1.788 0-2.423-1.24.349-3.09.371-3.743-.94-.266-.534-.288-1.042-.293-1.529a82.807 82.807 0 0 1 0-1.894h-.001zm13.157 5.769c.009.29-.032.532-.032 1.052 2.703.177 2.737-2.26 2.623-5.808l2.193-.003v5.86h1.182v-6.823a128.092 128.092 0 0 0-4.585 0c-.083 2.649.522 5.868-1.381 5.722zm241.371-34.202h-3.835c0 .737.145 1.27.435 1.598.382.432.785.588 1.336.531.963-.1 1.148-.366 1.547-.602l.406.721c-.475.507-1.234.76-2.277.76-1.564 0-2.518-1.341-2.58-2.939-.063-1.598.553-3.451 2.58-3.53 1.718.048 2.514 1.202 2.387 3.461h.001zm-1.078-.878c-.01-1.124-.447-1.686-1.309-1.686-.861 0-1.332.562-1.413 1.686h2.722zm-14.064-2.578c.66-.038 1.495.2 1.963.69.517.543.886 1.219.886 2.334 0 .987-.19 1.7-.641 2.277-.51.652-1.304.95-1.948.95-.669 0-1.393-.108-2.002-.69-.499-.478-.96-1.295-.914-2.436.051-1.26.443-1.979.914-2.435.476-.46 1.035-.65 1.742-.69zm.237.824c-.757 0-1.673.511-1.673 2.097 0 1.585.565 2.528 1.58 2.528 1.015 0 1.681-1.067 1.579-2.528-.103-1.462-.729-2.097-1.486-2.097zm16.07-.705h1.036v5.258h2.608v-5.258h1.075v5.258h.713v2.853h-1.037v-1.97h-4.395v-6.141zm-25.313-2.105h1.039v3.538h.655l2.878-3.538h1.19l-3.17 3.879 3.454 4.338h-1.308l-3.044-3.73h-.655v3.73h-1.04l.001-8.217zm13.101 2.13h1.086v2.603h2.586v-2.603h1.021v6.02h-1.021v-2.532h-2.586v2.532h-1.086v-6.02z" fill="#2A3052" fill-rule="nonzero"/><path d="M38.434 65.814c.055.138.118.284.265.609-1.112.877-2.392.757-2.99.395-.9-.546-.9-1.56-.895-2.345.006-1 .716-2.861 2.695-2.861 1.978 0 1.653 2.21 1.557 2.861-.202 0-1.293.02-3.273.062-.183 2.432 1.592 1.888 2.642 1.28l-.001-.001zm-.119-1.955c.116-.96-.17-1.44-.855-1.44-1.028 0-1.388 1.126-1.503 1.44h2.358zm-9.772-4.033h.929l-.93 6.444h3.382l.926-6.444h1.05l-1.05 6.444h.889l-.334 2.541h-.946l.225-1.745h-5.18l1.039-7.24zm14.569 7.185h.933l.743-5.294c-1.178.016-2.378.016-3.6 0-.4 2.53-.551 4.688-1.764 4.47l-.133.824c.793 0 1.324-.168 1.592-.504.98-1.23.932-2.973 1.1-4.057h1.769l-.64 4.56v.001zm2.987-5.331h.883c-.152 1.206-.247 1.888-.284 2.045h1.618c.681 0 1.464.597 1.42 1.439-.063 1.231-1.135 1.868-1.98 1.868H45.31c.163-1.397.426-3.18.79-5.352h-.001zm.244 4.593h1.371c.208 0 .931-.147 1.045-.902.114-.755-.605-.901-.788-.901h-1.366l-.261 1.802-.001.001z" fill="#6D6E71" fill-rule="nonzero"/><path d="M183.938 165.143h-1.96v-6.71h1.96v6.71zm0 3.531h-1.96v-1.803h1.96v1.803zm-70.166-10.712h4.16c.753 0 2.704.588 2.835 2.416.087 1.218-.391 2.079-1.436 2.582 1.335.335 2.027 1.2 2.075 2.592.072 2.089-1.846 3.105-3.06 3.105h-4.574v-10.695zm1.64 9.244h2.35c.562 0 1.907-.107 1.907-1.724s-1.658-1.724-1.906-1.724h-2.351v3.448zm.04-7.876v3.068h1.93c1.009 0 1.736-.537 1.674-1.678-.063-1.14-1.01-1.364-1.674-1.39h-1.93zm7.656 1.329h1.696v2.77h2.03c.489 0 2.912.391 2.795 2.657-.116 2.266-2.037 2.54-2.918 2.54h-3.603v-7.967zm1.715 4.222v2.36h1.667c.416 0 1.44-.164 1.44-1.18 0-1.017-1.046-1.18-1.44-1.18h-1.667zm32.801-4.376h1.695v2.77h2.03c.49 0 2.912.39 2.796 2.657-.116 2.266-2.037 2.54-2.918 2.54h-3.604v-7.967h.001zm1.715 4.221v2.36h1.667c.416 0 1.44-.164 1.44-1.18s-1.046-1.18-1.44-1.18h-1.667zm-28.587-4.074h1.64v8h-1.64v-8zm34.574-.164h1.64v8h-1.64v-8zm-30.572.167h1.654v5.355l3.106-5.355h1.655v7.96h-1.655v-5.323l-3.043 5.325h-1.718l.001-7.962zm13.358.035v1.39h-3.278v6.541h-1.788v-7.93l5.066-.001zm1.054-.045l1.472.016.14 1.007c.772-1.15 2.177-1.449 3.405-.891 1.004.455 1.647 2.101 1.704 3.117.102 1.84.072 3.272-1.197 4.32-1.268 1.05-2.884.68-3.84-.373v3.845h-1.684v-11.041zm1.743 2.234c.02 1.02.006 2.278 0 3.636.87 1.266 2.016.882 2.56.534.57-.363.78-1.596.712-2.706-.048-.779-.425-2.032-1.198-2.293-.779-.262-1.452-.116-2.074.829zm18.479-2.232v7.965h10.023v-7.965h-1.747v6.529h-2.347v-6.529h-1.72v6.529h-2.483c-.021-3.813-.021-5.99 0-6.529h-1.726z" fill="#FFF" fill-rule="nonzero"/></g></svg>