<svg width="24" height="24" fill="none" xmlns="http://www.w3.org/2000/svg"><rect width="24" height="24" rx="4.5" ry="4.5" fill="#ECECEE"/><path d="M0 4.63V19.5A4.5 4.5 0 0 0 4.5 24h14.603-.32L22.9 1.55a4.533 4.533 0 0 0-.463-.46L0 4.63Z" fill="#fff"/><path d="M12.938 14.25c0-.825.675-1.5 1.5-1.5h3c.825 0 1.5.675 1.5 1.5v3c0 .825-.675 1.5-1.5 1.5h-3c-.825 0-1.5-.675-1.5-1.5v-3Z" fill="#EF8933"/><path d="M5.438 14.25c0-.825.675-1.5 1.5-1.5h3c.824 0 1.5.675 1.5 1.5v3c0 .825-.676 1.5-1.5 1.5h-3c-.825 0-1.5-.675-1.5-1.5v-3Z" fill="#4B6FA8"/><path d="M12.938 6.75c0-.825.675-1.5 1.5-1.5h3c.825 0 1.5.675 1.5 1.5v3c0 .825-.675 1.5-1.5 1.5h-3c-.825 0-1.5-.675-1.5-1.5v-3Z" fill="#76C0E3"/><path d="M5.438 6.75c0-.825.675-1.5 1.5-1.5h3c.824 0 1.5.675 1.5 1.5v3c0 .825-.676 1.5-1.5 1.5h-3c-.825 0-1.5-.675-1.5-1.5v-3Z" fill="#FF444F"/></svg>