<svg width="128" height="80" viewBox="0 0 128 80" fill="none" xmlns="http://www.w3.org/2000/svg"><path d="m37.562 27.563 5.047 11.017-14.304 14.406L14 38.58l5.049-11.017h18.514-.001Zm-3.113 4.287H21.967v3.077h4.583v2.019c-3.726.171-6.528.913-6.528 1.804 0 .89 2.804 1.634 6.528 1.808v6.467h3.314v-6.467c3.722-.173 6.518-.916 6.518-1.806 0-.889-2.796-1.633-6.518-1.805l-.001-.003v-2.017h4.584V31.85h.002Zm-7.9 5.326v2.255c.215.016.832.053 1.685.053 1.025 0 1.535-.045 1.63-.053v-2.253c3.288.149 5.738.724 5.738 1.416 0 .688-2.453 1.265-5.738 1.413v-.003c-.085.006-.497.03-1.39.033h-.256a36.33 36.33 0 0 1-1.668-.033v.001c-3.294-.146-5.75-.723-5.75-1.416 0-.688 2.458-1.267 5.75-1.413Z" fill="#1DB193"/><path d="M53.367 32.69v3.264h3.147v2.448h-3.17v4.963c0 1.095.602 1.631 1.481 1.631.44 0 .95-.14 1.365-.349l.788 2.423a6.299 6.299 0 0 1-2.338.49c-2.475.093-4.095-1.328-4.095-4.195V38.4h-2.129v-2.449h2.13v-2.957l2.82-.304h.001Zm54.271 3.11.208 1.326c.879-1.42 2.059-1.63 3.216-1.63 1.18 0 2.314.467 2.938 1.094l-1.273 2.47c-.579-.49-1.109-.747-2.034-.747-1.483 0-2.847.793-2.847 2.912v6.06h-2.824v-11.49l2.616.005Zm-6.919 4.403c-.185-1.492-1.342-2.24-2.962-2.24-1.526 0-2.776.748-3.194 2.24h6.156Zm-6.2 2.353c.184 1.422 1.41 2.448 3.401 2.448 1.04 0 2.406-.398 3.055-1.073l1.804 1.795c-1.204 1.258-3.17 1.865-4.907 1.865-3.932 0-6.272-2.447-6.272-6.129 0-3.495 2.36-6.013 6.064-6.013 3.818 0 6.203 2.378 5.763 7.107h-8.909ZM82.07 30.973v6.385c1.018-1.329 2.267-1.725 3.563-1.725 3.239 0 4.675 2.215 4.675 5.594v6.058h-2.824v-6.032c0-2.1-1.087-2.983-2.59-2.983-1.669 0-2.824 1.42-2.824 3.145v5.874h-2.824V30.976l2.824-.001v-.002Zm-7.497 1.585v3.262h3.147v2.448h-3.17v4.963c0 1.097.603 1.631 1.481 1.631.44 0 .95-.14 1.367-.35l.786 2.423a6.267 6.267 0 0 1-2.337.49c-2.476.094-4.096-1.33-4.096-4.194V38.27h-2.129v-2.45h2.13v-2.956l2.82-.304v-.003Zm-7.798 7.646c-.185-1.492-1.343-2.239-2.962-2.239-1.526 0-2.778.747-3.194 2.239h6.156Zm-6.201 2.353c.183 1.422 1.411 2.448 3.402 2.448 1.04 0 2.406-.397 3.053-1.072l1.805 1.794c-1.205 1.258-3.17 1.865-4.907 1.865-3.935 0-6.272-2.446-6.272-6.128 0-3.496 2.361-6.013 6.063-6.013 3.818 0 6.2 2.377 5.761 7.106h-8.905Z" fill="#5B5A5D"/></svg>