<svg width="42" height="28" fill="none" xmlns="http://www.w3.org/2000/svg"><path fill-rule="evenodd" clip-rule="evenodd" d="M27.08 11.625c.616 0 1.114-.492 1.114-1.1 0-.607-.498-1.1-1.113-1.1-.616 0-1.114.493-1.114 1.1 0 .608.498 1.1 1.114 1.1zm-8.517.591a7.874 7.874 0 01-1.285 2.177V9.928l-2.314.454v8.093h2.313v-2.503a8.63 8.63 0 01.992 2.503h2.786c-.274-1.132-1.48-3.22-1.48-3.22a10.047 10.047 0 001.632-3.039h-2.644zm6.118-.085c-2.086.069-3.143.98-3.143 2.826v3.518h2.27v-2.868c0-1.1.146-1.57 1.468-1.632v-1.827a3.289 3.289 0 00-.598-.033l.003.016zm-13.634.98c-.287-.017-.945-.06-.945-.654 0-.708.949-.708 1.306-.708.686.03 1.365.15 2.019.356 0 0 .33.111.598.225h.023v-1.922h-.033a8.19 8.19 0 00-2.955-.463c-2.541-.017-3.447 1.442-3.447 2.698 0 .722.314 2.422 3.226 2.611.248 0 .902.052.902.653 0 .502-.535.796-1.437.796a7.116 7.116 0 01-2.532-.486v2.023c.984.236 1.995.346 3.008.327 2.485 0 3.599-1.384 3.599-2.755 0-1.556-1.246-2.565-3.335-2.705l.003.003zm14.903 5.364h2.258v-6.253H25.95v6.253zm6.505-8.158v8.158h2.26V9.928l-2.257.398-.003-.01zm-3.305 0l2.26-.389v8.547h-2.247v-8.158h-.014z" fill="#6C2556"/></svg>