<svg width="48" height="30" fill="none" xmlns="http://www.w3.org/2000/svg"><path d="m14.086 10.336 1.892 4.132-5.364 5.402-5.364-5.403 1.893-4.131h6.943Zm-1.168 1.608h-4.68v1.153h1.718v.758c-1.397.064-2.448.342-2.448.676s1.052.613 2.448.678v2.425H11.2V15.21c1.396-.065 2.444-.343 2.444-.677 0-.333-1.048-.612-2.444-.677v-.757h1.719v-1.154ZM9.956 13.94v.846c.08.005.312.02.632.02.384 0 .576-.017.611-.02v-.845c1.233.056 2.152.271 2.152.53s-.92.475-2.152.53a8.867 8.867 0 0 1-.521.012h-.096c-.321 0-.546-.009-.626-.012-1.235-.055-2.156-.271-2.156-.531 0-.258.922-.475 2.156-.53Z" fill="#1DB193"/><path d="M20.013 12.259v1.224h1.18v.918h-1.189v1.86c0 .412.226.613.556.613.165 0 .356-.053.512-.131l.295.908a2.36 2.36 0 0 1-.877.184c-.928.035-1.535-.498-1.535-1.573V14.4h-.799v-.918h.799v-1.109l1.057-.114Zm20.351 1.166.078.497c.33-.533.772-.611 1.206-.611.443 0 .868.175 1.102.41l-.477.927a1.051 1.051 0 0 0-.763-.28c-.556 0-1.068.297-1.068 1.091v2.273h-1.059v-4.309l.981.002Zm-2.594 1.65c-.07-.558-.504-.839-1.11-.839-.573 0-1.042.28-1.199.84h2.309Zm-2.326.883c.07.534.53.918 1.276.918.39 0 .902-.149 1.146-.402l.676.673c-.451.472-1.189.7-1.84.7-1.475 0-2.352-.918-2.352-2.299 0-1.31.885-2.255 2.274-2.255 1.432 0 2.326.892 2.161 2.665h-3.34Zm-4.667-4.343v2.394c.381-.498.85-.647 1.336-.647 1.214 0 1.753.83 1.753 2.098v2.272h-1.059V15.47c0-.787-.408-1.119-.972-1.119-.625 0-1.058.533-1.058 1.18v2.202h-1.06v-6.117h1.06v-.001Zm-2.812.594v1.223h1.18v.918h-1.188v1.862c0 .41.226.611.555.611.165 0 .356-.052.513-.13l.295.908a2.35 2.35 0 0 1-.877.183c-.929.035-1.536-.498-1.536-1.572V14.35h-.798v-.918h.798v-1.108l1.058-.115Zm-2.924 2.867c-.07-.559-.503-.84-1.11-.84-.573 0-1.043.281-1.198.84h2.308Zm-2.325.883c.069.533.529.918 1.275.918.39 0 .902-.15 1.146-.402l.676.673c-.452.471-1.188.7-1.84.7-1.476 0-2.352-.918-2.352-2.3 0-1.31.886-2.254 2.274-2.254 1.431 0 2.325.891 2.16 2.665h-3.34Z" fill="#5B5A5D"/></svg>