<svg width="100%" height="100%" viewBox="0 0 235 128" fill="none" xmlns="http://www.w3.org/2000/svg"><path d="M80.074 73.892c.219.61.676 2.178.027 3.808-.265.665-.758 1.458-1.936 2.333-3.215 2.396-5.59 1.011-8.896 2.934-.539.31-2.649 1.549-3.8 3.954-1.46 3.061-.155 5.448-2.2 7.808a6 6 0 0 1-2.165 1.576c-2.21.92-4.33.155-4.95-.09-2.037-2.506-4.083-5.012-6.12-7.527.621.246 2.74 1.012 4.95.091a5.8 5.8 0 0 0 2.165-1.576c2.046-2.369.74-4.756 2.201-7.808 1.151-2.405 3.26-3.635 3.8-3.954 3.306-1.932 5.69-.547 8.896-2.934 1.178-.875 1.67-1.667 1.936-2.332.648-1.631.192-3.19-.028-3.809 2.037 2.506 4.083 5.011 6.12 7.526" fill="#EBECEE" stroke="#000" stroke-width=".68" stroke-linecap="round" stroke-linejoin="round"/><path d="M121.548 15.927c-.493.502-1.708 1.877-1.872 3.909-.21 2.615 1.397 5.23 4.082 6.624 2.777-1.759 5.562-3.508 8.339-5.266-2.685-1.394-4.302-4.01-4.083-6.624.165-2.023 1.379-3.399 1.873-3.909-2.777 1.759-5.563 3.508-8.339 5.266" fill="#CED0D6" stroke="#000" stroke-width=".68" stroke-linecap="round" stroke-linejoin="round"/><path d="M104.186 65.564c0 11.945 0 23.89.009 35.825v1.084c.009.921.018 1.385.073 1.868.155 1.385.63 2.406.758 2.652.137.291.484.938 1.087 1.64.365.428.721.756 1.004.993.329.2.786.446 1.379.656 1.252.455 2.302.473 2.868.483 1.389.018 2.43-.274 3.334-.529a15 15 0 0 0 2.101-.774c1.05-.392 2.091-.793 3.142-1.185V78.402c-.01-.592 0-1.34.1-2.187.146-1.412.429-2.46.511-2.742.466-1.695 1.106-2.888 1.498-3.608a19.7 19.7 0 0 1 2.485-3.563c.575-.656 1.37-1.558 2.63-2.505a16.6 16.6 0 0 1 2.557-1.567 19 19 0 0 1 2.284-.984c22.833-8.938 45.657-17.876 68.491-26.814a14 14 0 0 0 2.53-1.103c.383-.218.931-.528 1.57-1.057.494-.41 1.014-.838 1.489-1.548.256-.383.667-1.012.795-1.914.192-1.294-.329-2.323-.567-2.779-.511-.984-1.205-1.549-1.808-2.032-.219-.182-.749-.583-1.799-1.13a18.2 18.2 0 0 0-3.882-1.475c-1.909-.492-3.416-.556-4.475-.602a23.7 23.7 0 0 0-4.594.255 25 25 0 0 0-4.64 1.221c-22.486 8.783-44.963 17.567-67.45 26.359a33 33 0 0 0-1.79.71c-1.141.492-2.174.93-3.315 1.659-1.288.81-2.137 1.621-2.64 2.104a19.7 19.7 0 0 0-2.858 3.48c-1.307 2.005-1.909 3.709-2.055 4.128-.512 1.494-.658 2.588-.704 2.897-.1.793-.109 1.477-.1 1.987z" fill="#EBECEE" stroke="#000" stroke-width=".68" stroke-linecap="round" stroke-linejoin="round"/><path d="M98.852 62.467c.018 12.309.027 24.627.046 36.936 0 .292.018.674.082 1.121.055.401.164 1.148.53 2.032a8 8 0 0 0 1.488 2.277c.494.529.978.902 1.325 1.148 1.598 1.221 3.205 2.433 4.804 3.654a8 8 0 0 1-1.005-.993 8.5 8.5 0 0 1-1.087-1.64 8.4 8.4 0 0 1-.758-2.651c-.055-.483-.055-.948-.073-1.868v-1.084c0-11.945 0-23.89-.009-35.825-.018-.51 0-1.194.1-1.987.037-.318.183-1.412.704-2.897.146-.419.749-2.123 2.055-4.127a19.7 19.7 0 0 1 2.858-3.48c.512-.484 1.361-1.294 2.64-2.105 1.151-.73 2.174-1.176 3.315-1.659a27 27 0 0 1 1.791-.71c22.486-8.783 44.963-17.566 67.449-26.359a24 24 0 0 1 2.21-.701 24 24 0 0 1 2.43-.52c.648-.1 2.356-.346 4.594-.255 1.06.046 2.567.11 4.475.602.804.21 2.256.628 3.882 1.476 1.05.546 1.58.956 1.799 1.13.603.482 1.297 1.047 1.809 2.031.237.456.758 1.485.566 2.78-.128.901-.548 1.53-.795 1.912-.475.72-.995 1.148-1.488 1.55a9.7 9.7 0 0 1-1.571 1.056c-.603.346-1.453.766-2.53 1.103-22.834 8.938-45.658 17.876-68.491 26.814-.612.218-1.397.537-2.283.984a16.6 16.6 0 0 0-2.558 1.567c-1.26.947-2.055 1.85-2.63 2.505a20 20 0 0 0-2.484 3.563c-.393.729-1.033 1.922-1.498 3.608-.083.282-.357 1.33-.512 2.742a18 18 0 0 0-.1 2.187v33.429c0 1.239.018 2.478.027 3.717 0 .355.018.82.11 1.348.137.839.383 1.467.493 1.75.137.328.402.956.932 1.64.383.492.748.838 1.059 1.12.32.292.612.52.831.684 1.471 1.12 2.95 2.25 4.421 3.371-.484-.419-.777-.829-1.014-1.166-.192-.265-.758-1.103-1.151-2.36a8.3 8.3 0 0 1-.338-1.604l-.082-38.877c0-.31.018-.747.073-1.275.21-2.041.831-3.526 1.251-4.501a20.2 20.2 0 0 1 2.704-4.501c.694-.875 1.909-2.387 3.954-3.809a17 17 0 0 1 3.672-1.922c23.016-8.993 46.032-17.976 69.039-26.969.676-.264 1.58-.647 2.621-1.184 1.023-.529 2.055-1.057 3.106-1.868.977-.756 2.931-2.26 3.817-4.902a9 9 0 0 0 .439-2.241v-1.148a6 6 0 0 0-.183-.957c-.228-.866-.649-1.74-1.48-2.779-1.434-1.804-3.205-3.016-4.164-3.608-1.772-1.102-3.27-1.658-4.439-2.077-.475-.173-2.713-.966-6.046-1.504-4.302-.683-7.718-.51-9.015-.419-1.47.11-4.539.41-8.275 1.522a39 39 0 0 0-3.836 1.357L112.15 44.563a23 23 0 0 0-2.731 1.14c-1.096.537-2.53 1.248-4.073 2.55-1.635 1.376-2.594 2.725-3.297 3.718-.694.993-1.471 2.114-2.12 3.79-.145.392-.785 2.086-1.013 4.446a19 19 0 0 0-.073 2.242z" fill="#fff" stroke="#000" stroke-width=".68" stroke-linecap="round" stroke-linejoin="round"/><path d="M211.649 35.443c-1.05.811-2.082 1.34-3.105 1.868-1.041.538-1.946.92-2.622 1.184-23.016 8.993-46.031 17.977-69.038 26.97a17 17 0 0 0-3.672 1.922c-2.055 1.421-3.261 2.924-3.955 3.808a20.4 20.4 0 0 0-2.703 4.501c-.42.975-1.041 2.46-1.251 4.5-.055.53-.074.967-.074 1.276l.083 38.878c.073.665.21 1.211.338 1.603a8.4 8.4 0 0 0 1.15 2.36c.238.337.53.747 1.014 1.166.987.857 2.028 1.13 2.731 1.303.238.064 1.306.31 2.749.21 1.124-.082 1.909-.338 3.233-.766a29 29 0 0 0 2.576-.984c22.386-8.765 44.772-17.52 67.167-26.285a23 23 0 0 0 2.137-.948 20 20 0 0 0 2.502-1.494c.448-.319 1.206-.856 2.074-1.695.785-.765 1.36-1.312 1.89-2.241.146-.246.713-1.266.987-2.742a8.8 8.8 0 0 0 .146-1.941c-.037-20.245-.064-40.49-.101-60.735.055.83.019 2.041-.438 3.399-.886 2.642-2.841 4.145-3.818 4.901z" fill="#EBECEE" stroke="#000" stroke-width=".68" stroke-linecap="round" stroke-linejoin="round"/><path d="M24.546 65.574c-2.274 2.204-4.549 4.419-6.823 6.623-2.484-1.038-4.968-2.068-7.452-3.106.566 3.708 1.132 7.425 1.69 11.133L7.137 89.9c2.64.082 5.279.173 7.928.255 1.497 3.062 3.004 6.132 4.502 9.194 1.06-3.69 2.11-7.371 3.17-11.061q3.822-1.985 7.644-3.955c-2.01-2.36-4.019-4.728-6.028-7.088l.192-11.68z" fill="#FF535E" stroke="#000" stroke-width=".68" stroke-linecap="round" stroke-linejoin="round"/><path d="M7.138 89.91c-2.046-.191-4.092-.374-6.138-.565 1.598-3.216 3.206-6.433 4.804-9.649 2.055.173 4.11.356 6.156.529L7.138 89.9z" fill="#FF7E88" stroke="#000" stroke-width=".68" stroke-linecap="round" stroke-linejoin="round"/><path d="M10.27 69.091c-2.091-.182-4.174-.364-6.265-.537l1.8 11.143c2.054.173 4.11.355 6.155.528a4672 4672 0 0 1-1.69-11.134m2.777 1.157q2.67-2.625 5.343-5.248l6.156.574c-2.274 2.205-4.549 4.419-6.823 6.624-1.562-.647-3.123-1.303-4.676-1.95" fill="#FF7E88" stroke="#000" stroke-width=".68" stroke-linecap="round" stroke-linejoin="round"/><path d="M9.047 89.965c1.461 2.97 2.913 5.94 4.375 8.91 2.055.165 4.1.32 6.156.483-1.498-3.06-3.005-6.131-4.503-9.193-2.01-.064-4.01-.127-6.019-.2z" fill="#FF444F" stroke="#000" stroke-width=".68" stroke-linecap="round" stroke-linejoin="round"/><path d="M111.538 59.762a11426 11426 0 0 0-7.015-10.925c2.074-3.034 4.147-6.058 6.22-9.092-5.133-.265-10.266-.538-15.39-.802-3.881-3.034-7.772-6.068-11.654-9.102-.84 3.499-1.69 7.006-2.53 10.505-4.52 1.157-9.042 2.323-13.563 3.48 4.65 2.424 9.307 4.847 13.956 7.271l3.206 11.289c3.726-2.032 7.444-4.064 11.17-6.096l15.609 3.472z" fill="#FF535E" stroke="#000" stroke-width=".68" stroke-linecap="round" stroke-linejoin="round"/><path d="m83.7 29.84 2.439-8.035c3.872 3.025 7.745 6.04 11.617 9.065-.803 2.688-1.607 5.385-2.402 8.073-3.881-3.034-7.772-6.068-11.654-9.102" fill="#FF7E88" stroke="#000" stroke-width=".68" stroke-linecap="round" stroke-linejoin="round"/><path d="M110.743 39.744c.813-2.733 1.635-5.475 2.448-8.209-5.142-.218-10.293-.446-15.436-.665-.803 2.688-1.607 5.385-2.401 8.073 5.132.264 10.265.537 15.389.801" fill="#FF7E88" stroke="#000" stroke-width=".68" stroke-linecap="round" stroke-linejoin="round"/><path d="M108.432 43.125c1.855 2.86 3.718 5.713 5.572 8.574l-2.466 8.063a9666 9666 0 0 0-7.015-10.924c1.297-1.905 2.603-3.809 3.9-5.713z" fill="#FF444F" stroke="#000" stroke-width=".68" stroke-linecap="round" stroke-linejoin="round"/><path d="M83.088 32.364c-4.384 1.13-8.768 2.25-13.152 3.38-.777 2.697-1.562 5.385-2.338 8.082 4.52-1.157 9.042-2.323 13.563-3.48l1.918-7.982z" fill="#FF7E88" stroke="#000" stroke-width=".68" stroke-linecap="round" stroke-linejoin="round"/><path d="M178.121 3.072c-4.841 3.845-9.682 7.68-14.522 11.526-4.613-2.488-9.234-4.984-13.846-7.471.365 7.307.739 14.605 1.105 21.912-3.754 5.94-7.499 11.89-11.253 17.83l15.317 2.05c2.311 6.232 4.631 12.464 6.941 18.696l8.303-20.828c5.196-2.059 10.393-4.127 15.599-6.186l-10.302-14.924z" fill="#FF535E" stroke="#000" stroke-width=".68" stroke-linecap="round" stroke-linejoin="round"/><path d="M139.614 46.86c-3.927-.765-7.863-1.521-11.791-2.287 3.736-5.922 7.462-11.844 11.198-17.766 3.945.738 7.891 1.485 11.837 2.223-3.754 5.94-7.499 11.89-11.253 17.83z" fill="#FF7E88" stroke="#000" stroke-width=".68" stroke-linecap="round" stroke-linejoin="round"/><path d="M149.752 7.117 137.705 4.85c.438 7.316.877 14.641 1.306 21.957 3.946.738 7.891 1.485 11.837 2.223-.365-7.307-.74-14.605-1.105-21.912zm5.151 2.779 11.38-9.138c3.946.765 7.892 1.54 11.837 2.305-4.84 3.845-9.681 7.68-14.522 11.526-2.895-1.568-5.79-3.126-8.695-4.693" fill="#FF7E88" stroke="#000" stroke-width=".68" stroke-linecap="round" stroke-linejoin="round"/><path d="M143.295 47.352c2.247 6.04 4.485 12.08 6.732 18.122q5.918 1.064 11.836 2.132c-2.31-6.232-4.63-12.464-6.941-18.696-3.882-.52-7.754-1.04-11.636-1.558z" fill="#FF444F" stroke="#000" stroke-width=".68" stroke-linecap="round" stroke-linejoin="round"/><path d="M47.523 21a19 19 0 0 1-3.662 5.858c-2.384 2.615-4.859 3.854-5.407 4.119-4.1 1.995-6.302.883-10.175 1.913-2.484.656-5.817 2.241-9.279 6.369 2.923 3.043 5.855 6.086 8.777 9.129 3.462-4.127 6.786-5.713 9.28-6.369 3.863-1.02 6.064.082 10.174-1.913.548-.264 3.014-1.503 5.407-4.118a19.3 19.3 0 0 0 3.663-5.859c-2.923-3.043-5.855-6.086-8.778-9.129m134.954 7.082a13.1 13.1 0 0 0 3.945-2.642c1.745-1.695 2.539-3.417 2.713-3.8 1.278-2.851.466-4.337 1.077-7.006.393-1.722 1.407-4.036 4.165-6.496 2.165 1.931 4.32 3.863 6.485 5.804-2.758 2.469-3.772 4.783-4.165 6.496-.612 2.67.201 4.154-1.078 7.006-.173.383-.968 2.105-2.712 3.8a13.1 13.1 0 0 1-3.946 2.642c-2.164-1.932-4.32-3.863-6.484-5.804" fill="#fff" stroke="#000" stroke-width=".68" stroke-linecap="round" stroke-linejoin="round"/><path d="M211.649 35.444c-1.05.811-2.082 1.34-3.105 1.868-1.041.537-1.946.92-2.622 1.184-23.016 8.993-46.031 17.977-69.038 26.97a17 17 0 0 0-3.672 1.922c-2.055 1.421-3.261 2.924-3.955 3.808a20.4 20.4 0 0 0-2.703 4.501c-.42.975-1.041 2.46-1.251 4.5-.055.53-.074.967-.074 1.276l.083 38.878c.073.665.21 1.211.338 1.603a8.4 8.4 0 0 0 1.15 2.36c.238.337.53.747 1.014 1.166.987.857 2.028 1.13 2.731 1.303.238.064 1.306.31 2.749.21 1.124-.082 1.909-.338 3.233-.766a29 29 0 0 0 2.576-.984c22.386-8.765 44.772-17.52 67.167-26.285a23 23 0 0 0 2.137-.948 20 20 0 0 0 2.502-1.494c.448-.319 1.206-.857 2.074-1.695.785-.765 1.36-1.312 1.89-2.241.146-.246.713-1.267.987-2.743a8.8 8.8 0 0 0 .146-1.94c-.037-20.245-.064-40.49-.101-60.735.055.83.019 2.041-.438 3.399-.886 2.642-2.841 4.145-3.818 4.901z" fill="#EBECEE" stroke="#000" stroke-width=".68" stroke-linecap="round" stroke-linejoin="round"/><path d="M209.009 19.18c.347.183.695.392 1.069.62.959.602 2.731 1.813 4.165 3.608.831 1.048 1.251 1.914 1.479 2.78.11.39.156.728.183.956v1.139a8.6 8.6 0 0 1-.438 2.26c-.886 2.641-2.841 4.145-3.818 4.901-1.05.81-2.082 1.34-3.105 1.868a28 28 0 0 1-2.622 1.184c-23.016 8.993-46.032 17.976-69.038 26.97a17 17 0 0 0-3.672 1.922c-2.055 1.42-3.261 2.924-3.955 3.808a20.2 20.2 0 0 0-2.703 4.5c-.42.976-1.041 2.46-1.252 4.502a13 13 0 0 0-.073 1.275l.083 38.877c.073.666.21 1.212.338 1.604a8.4 8.4 0 0 0 1.15 2.36c.247.337.53.747 1.014 1.166l-4.42-3.371c-.22-.164-.503-.392-.832-.683a8 8 0 0 1-1.059-1.121c-.53-.693-.795-1.321-.932-1.64a7.8 7.8 0 0 1-.493-1.749 8 8 0 0 1-.109-1.349c0-1.239-.019-2.478-.028-3.717V78.421c-.009-.592 0-1.34.101-2.187.146-1.412.429-2.46.511-2.742.466-1.695 1.105-2.888 1.498-3.608a19.8 19.8 0 0 1 2.484-3.562c.576-.656 1.37-1.559 2.631-2.506 1.068-.802 2-1.285 2.557-1.567a19 19 0 0 1 2.283-.984c22.834-8.938 45.658-17.876 68.491-26.814a14 14 0 0 0 2.53-1.103c.384-.218.932-.528 1.571-1.056.493-.41 1.014-.839 1.489-1.55.256-.382.667-1.01.794-1.913.192-1.293-.328-2.323-.566-2.779-.511-.984-1.205-1.548-1.808-2.031-.219-.183-.749-.583-1.8-1.13" fill="#fff"/><path d="M209.009 19.18c.347.183.695.392 1.069.62.959.602 2.731 1.813 4.165 3.608.831 1.048 1.251 1.914 1.479 2.78.11.39.156.728.183.956v1.139a8.6 8.6 0 0 1-.438 2.26c-.886 2.641-2.841 4.145-3.818 4.901-1.05.81-2.082 1.34-3.105 1.868a28 28 0 0 1-2.622 1.184c-23.016 8.993-46.032 17.976-69.038 26.97a17 17 0 0 0-3.672 1.922c-2.055 1.42-3.261 2.924-3.955 3.808a20.2 20.2 0 0 0-2.703 4.5c-.42.976-1.041 2.46-1.252 4.502a13 13 0 0 0-.073 1.275l.083 38.877c.073.666.21 1.212.338 1.604a8.4 8.4 0 0 0 1.15 2.36c.247.337.53.747 1.014 1.166l-4.42-3.371c-.22-.164-.503-.392-.832-.683a8 8 0 0 1-1.059-1.121c-.53-.693-.795-1.321-.932-1.64a7.8 7.8 0 0 1-.493-1.749 8 8 0 0 1-.109-1.349c0-1.239-.019-2.478-.028-3.717V78.421c-.009-.592 0-1.34.101-2.187.146-1.412.429-2.46.511-2.742.466-1.695 1.105-2.888 1.498-3.608a19.8 19.8 0 0 1 2.484-3.562c.576-.656 1.37-1.558 2.631-2.506 1.068-.802 2-1.285 2.557-1.567a19 19 0 0 1 2.283-.984c22.834-8.938 45.658-17.876 68.491-26.814a14 14 0 0 0 2.53-1.103c.384-.218.932-.528 1.571-1.056.493-.41 1.014-.839 1.489-1.55.256-.382.667-1.01.794-1.913.192-1.293-.328-2.323-.566-2.779-.511-.984-1.205-1.548-1.808-2.031-.219-.183-.749-.583-1.8-1.13" stroke="#000" stroke-width=".68" stroke-linecap="round" stroke-linejoin="round"/><path d="M94.286 89.245c.018.1.036.273.127.465.083.164.183.282.402.5.128.137.238.247.32.32 8.85 6.815 17.7 13.621 26.56 20.436.219.146.538.337.959.492.557.219 1.023.273 1.497.337.731.091 1.297.064 1.517.055a8.8 8.8 0 0 0 2.438-.492c4.759-1.868 9.508-3.736 14.266-5.604.156-.045.357-.109.594-.218.484-.219.786-.474.868-.547.228-.191.411-.346.557-.629.119-.227.164-.446.183-.546.036-.219.045-.401.036-.538-.018-5.867-.027-11.726-.045-17.593a1.3 1.3 0 0 1-.083.346c-.155.419-.475.656-.813.91a3 3 0 0 1-.785.43c-4.667 1.821-9.334 3.653-14.001 5.475a10 10 0 0 1-1.498.52c-.914.236-1.644.263-1.864.273-.31.009-.803.027-1.452-.073-.274-.046-.767-.119-1.361-.365-.502-.2-.858-.428-1.123-.592a8 8 0 0 1-.712-.501A45320 45320 0 0 1 95.71 72.79a4 4 0 0 1-.42-.337c-.301-.264-.511-.455-.676-.756a1.5 1.5 0 0 1-.2-.71c-.037 5.949-.083 11.898-.129 17.848 0 .1-.018.246 0 .41" fill="#EBECEE" stroke="#000" stroke-width=".68" stroke-linecap="round" stroke-linejoin="round"/><path d="M143.816 83.96c-6.193 2.406-12.385 4.802-18.568 7.208-8.796-6.752-17.591-13.494-26.387-20.245v-2.925c-.73.255-1.46.51-2.2.756-.22.082-.54.21-.905.41-.52.283-.822.456-1.06.82-.072.119-.31.492-.292 1.003.019.346.147.6.201.71.165.3.375.492.676.756.164.146.32.265.42.337l25.163 19.307c.173.137.411.319.712.501.256.164.621.392 1.123.592a6.4 6.4 0 0 0 1.361.365c.64.1 1.133.082 1.452.073.22 0 .941-.046 1.855-.274a9 9 0 0 0 1.497-.52c4.668-1.821 9.335-3.653 14.002-5.475.201-.073.484-.21.785-.437.338-.255.658-.492.813-.911.256-.702-.119-1.367-.192-1.495a2 2 0 0 0-.475-.555zm77.332-35.15a19.1 19.1 0 0 1-1.69 6.696c-1.47 3.216-3.443 5.148-3.891 5.567-3.297 3.153-5.735 2.77-9.097 4.92-2.164 1.385-4.858 3.9-6.886 8.893l11.152 6.013c2.027-4.984 4.722-7.508 6.886-8.892 3.371-2.15 5.8-1.768 9.097-4.92.438-.42 2.411-2.351 3.891-5.567a19 19 0 0 0 1.69-6.697zm-55.915 42.758c.083-.702.384-2.506 1.845-3.918 1.891-1.813 4.951-2.223 7.727-1.03.393 3.262.795 6.515 1.187 9.777-2.776-1.194-5.836-.784-7.726 1.03-1.471 1.411-1.772 3.215-1.845 3.917-.393-3.262-.795-6.514-1.188-9.776" fill="#fff" stroke="#000" stroke-width=".68" stroke-linecap="round" stroke-linejoin="round"/></svg>