<svg width="50" height="11" fill="none" xmlns="http://www.w3.org/2000/svg"><path d="M4.301.013A5.32 5.32 0 017.06.738l-.848 2.004a4.07 4.07 0 00-1.864-.593.947.947 0 00-.636.186.701.701 0 00-.22.555c-.007.222.06.44.19.62.242.286.516.544.818.766.45.335.83.756 1.119 1.237.25.45.376.96.369 1.475a2.965 2.965 0 01-.942 2.334 3.84 3.84 0 01-2.626.848c-.45.003-.9-.05-1.335-.162A3.437 3.437 0 010 9.505v-2.36a5.59 5.59 0 001.233.602 3.92 3.92 0 001.272.246c.257.018.513-.057.72-.212a.734.734 0 00.245-.593.795.795 0 00-.075-.34 1.63 1.63 0 00-.22-.317c-.094-.11-.349-.34-.755-.7a4.381 4.381 0 01-1.093-1.27 3.174 3.174 0 01-.352-1.475 3.056 3.056 0 01.424-1.59c.282-.47.693-.85 1.186-1.092a3.752 3.752 0 011.716-.39zM22.881 0a5.607 5.607 0 013.08.886l-.944 2.059a6.314 6.314 0 00-1.097-.559 2.894 2.894 0 00-1.039-.19 1.765 1.765 0 00-1.27.529 3.538 3.538 0 00-.848 1.45 6.14 6.14 0 00-.318 2.003c-.036.478.09.955.36 1.352.255.304.638.47 1.034.445a4.518 4.518 0 001.077-.136c.435-.123.86-.28 1.27-.47v2.178a6.564 6.564 0 01-2.821.605 3.28 3.28 0 01-2.568-1c-.602-.664-.898-1.61-.898-2.834a8.101 8.101 0 01.652-3.292A5.091 5.091 0 0120.34.763 4.438 4.438 0 0122.88 0zm-8.474.153l-.424 2.177h-2.051l-1.52 7.688H7.907L9.425 2.33h-2.03L7.819.153h6.588zm3.424 0l-1.976 9.864H13.31L15.288.153h2.542zm14.28.767a2.71 2.71 0 01.897 2.186 3.387 3.387 0 01-1.097 2.67 4.394 4.394 0 01-3.013.965h-.55l-.645 3.277H25.2L27.178.152h2.39A3.77 3.77 0 0132.11.92zm7.754-.767l.783 9.864h-2.44l-.073-1.847h-2.86l-.806 1.848h-2.6l4.77-9.865h3.225zm4.77 0l.573 3.657 2-3.657H50l-3.92 6.033L45.305 10h-2.509l.772-3.814L42.05.153h2.584zM37.97 1.725c-.1.383-.23.757-.39 1.118l-1.402 3.208h1.877l-.11-2.86v-.58c0-.34 0-.636.025-.886zm-8.326.58h-.381l-.45 2.28h.424c.358.013.703-.13.945-.394a1.44 1.44 0 00.327-1.004.905.905 0 00-.23-.64.846.846 0 00-.635-.242z" fill="#fff"/></svg>