<svg width="128" height="80" fill="none" xmlns="http://www.w3.org/2000/svg"><circle cx="28" cy="40" r="18" fill="#F7931B"/><path fill-rule="evenodd" clip-rule="evenodd" d="m26.403 31.524.795-3.247 1.935.492-.78 3.183c.523.123 1.045.246 1.554.374l.772-3.162 1.936.492-.793 3.25c2.445.858 4.233 2.146 3.88 4.545-.253 1.752-1.206 2.603-2.471 2.9 1.737.925 2.62 2.34 1.78 4.797-1.047 3.047-3.53 3.306-6.83 2.665l-.803 3.28-1.935-.492.79-3.234a87.7 87.7 0 0 1-1.544-.41l-.792 3.25-1.935-.493.802-3.285a755.18 755.18 0 0 0-3.9-1.004l.96-2.263s1.427.385 1.41.36c.547.138.789-.229.885-.472.726-2.965 1.45-5.93 2.173-8.894.025-.42-.117-.951-.902-1.151.03-.023-1.405-.356-1.405-.356l.514-2.112c1.3.331 2.597.684 3.904.987Zm.447 8.812a20.74 20.74 0 0 1-.467-.11l-1.062 4.35.375.1c1.578.426 5.035 1.36 5.584-.894.562-2.304-2.799-3.073-4.43-3.446Zm1.38-5.955a14.962 14.962 0 0 1-.396-.092l-.965 3.946c.092.023.2.053.322.086 1.32.358 4.186 1.137 4.688-.906.51-2.097-2.286-2.727-3.648-3.034Z" fill="#fff"/><path d="M86.825 36.39c.67 0 1.27.064 1.796.195.53.13 1.01.3 1.443.512l-1.14 2.647c-.298-.123-.607-.23-.927-.33-.32-.1-.71-.15-1.172-.15-1.104 0-1.976.389-2.626 1.163-.647.775-.972 1.817-.972 3.126 0 .775.163 1.402.492 1.88.327.48.932.718 1.809.718a5.95 5.95 0 0 0 2.325-.478l.246 2.713c-.418.167-.879.316-1.384.448-.507.125-1.111.192-1.812.192-.923 0-1.705-.138-2.345-.41-.64-.277-1.169-.643-1.585-1.107a4.196 4.196 0 0 1-.905-1.632 6.823 6.823 0 0 1-.28-1.96c0-1.033.163-2.007.49-2.92a7.203 7.203 0 0 1 1.41-2.396 6.61 6.61 0 0 1 2.222-1.618c.87-.394 1.842-.593 2.914-.593h.001Zm-27.142-5.381L58.3 36.89c.295-.136.594-.24.891-.318.3-.077.62-.115.96-.115.716 0 1.335.13 1.855.388.522.26.953.609 1.3 1.05.34.442.593.958.757 1.55.163.594.245 1.232.245 1.916 0 1.05-.189 2.042-.57 2.976a7.725 7.725 0 0 1-1.552 2.441 7.315 7.315 0 0 1-2.324 1.64 6.98 6.98 0 0 1-2.902.606c-.134 0-.371-.004-.706-.012a9.824 9.824 0 0 1-1.149-.102c-.433-.06-.891-.151-1.374-.275a6.76 6.76 0 0 1-1.375-.5l3.866-16.58 3.46-.547Zm36.755 5.381c.774 0 1.456.123 2.046.365.586.244 1.07.587 1.452 1.027.378.442.664.96.858 1.563.195.599.29 1.265.29 1.994 0 .91-.141 1.824-.422 2.738-.282.91-.7 1.731-1.253 2.463a6.582 6.582 0 0 1-2.065 1.789c-.826.462-1.784.696-2.871.696-.79 0-1.474-.123-2.056-.365a3.801 3.801 0 0 1-1.44-1.027 4.447 4.447 0 0 1-.86-1.562c-.195-.6-.288-1.265-.288-1.993 0-.914.144-1.828.433-2.739a7.832 7.832 0 0 1 1.286-2.462 6.897 6.897 0 0 1 2.076-1.792c.818-.462 1.758-.695 2.814-.695Zm-19.365-3.214-.85 3.534h3.71l-.67 2.781h-3.687l-.982 4.197a4.86 4.86 0 0 0-.157.98c-.016.304.022.567.111.788.09.22.248.39.48.512.23.122.56.183.994.183a5.25 5.25 0 0 0 1.04-.102 7.327 7.327 0 0 0 1.016-.286l.247 2.602c-.447.166-.931.31-1.452.432-.523.123-1.142.182-1.856.182-1.027 0-1.823-.157-2.39-.467-.566-.311-.968-.738-1.207-1.279-.237-.538-.343-1.158-.312-1.857.03-.7.134-1.436.312-2.212l2.19-9.44 3.463-.548Zm-6.36 3.534-2.815 11.996h-3.306l2.792-11.996h3.329Zm36.79 0-2.815 11.996h-3.309l2.793-11.996h3.331Zm7.115-.274c1.743 0 2.946.518 3.609 1.55.663 1.035.777 2.45.348 4.243l-1.521 6.477h-3.328l1.474-6.34c.089-.397.16-.78.212-1.154.053-.37.05-.697-.012-.979a1.179 1.179 0 0 0-.412-.685c-.218-.175-.548-.262-.995-.262-.431 0-.87.048-1.317.139l-2.167 9.28h-3.33l2.704-11.447c.251-.076.531-.166.837-.263a11.913 11.913 0 0 1 2.302-.478 13.83 13.83 0 0 1 1.596-.08Zm-55.292 2.85c-.209 0-.479.041-.814.114a2.003 2.003 0 0 0-.905.48l-1.474 6.247.234.046a2.004 2.004 0 0 0 .48.048h.402c.522 0 1.012-.131 1.473-.389a3.897 3.897 0 0 0 1.198-1.038 5.3 5.3 0 0 0 .792-1.47c.192-.548.29-1.118.29-1.712 0-.73-.12-1.3-.356-1.71-.239-.41-.68-.616-1.319-.616Zm36.8-.022c-.49 0-.924.145-1.294.432a3.71 3.71 0 0 0-.938 1.096 5.514 5.514 0 0 0-.573 1.448 6.458 6.458 0 0 0-.187 1.493c0 .762.12 1.355.357 1.782.24.422.67.636 1.295.636.493 0 .923-.143 1.297-.434a3.75 3.75 0 0 0 .937-1.094c.254-.44.443-.923.572-1.448a6.454 6.454 0 0 0 .189-1.493c0-.76-.12-1.354-.36-1.78-.238-.425-.67-.638-1.295-.638ZM70 31.236c.46 0 .877.14 1.25.421.371.282.558.713.558 1.288 0 .32-.063.62-.19.902a2.377 2.377 0 0 1-.502.73 2.42 2.42 0 0 1-.727.49 2.134 2.134 0 0 1-.88.181c-.462 0-.88-.14-1.252-.421-.374-.28-.56-.71-.56-1.288 0-.32.064-.618.191-.901.127-.282.293-.523.503-.73a2.46 2.46 0 0 1 .726-.49c.275-.122.57-.182.883-.182Zm36.787 0c.462 0 .88.14 1.252.421.372.282.56.713.56 1.288 0 .32-.067.62-.192.902a2.371 2.371 0 0 1-.501.73c-.21.206-.45.367-.726.49a2.14 2.14 0 0 1-.884.181c-.461 0-.878-.14-1.25-.421-.372-.28-.559-.71-.559-1.288 0-.32.063-.618.191-.901a2.37 2.37 0 0 1 .501-.73c.209-.205.453-.367.726-.49.276-.122.57-.182.882-.182Z" fill="#fff"/></svg>