<svg width="43" height="28" fill="none" xmlns="http://www.w3.org/2000/svg"><path d="M24.223 13.575c-.237 0-.452-.037-.642-.11a1.312 1.312 0 0 1-.487-.337 1.578 1.578 0 0 1-.312-.558 2.514 2.514 0 0 1-.11-.783c0-.294.037-.555.11-.783.074-.23.178-.423.312-.577.133-.158.296-.277.487-.357.19-.08.405-.12.642-.12.325 0 .593.067.803.2.211.131.38.339.508.623l-.658.341a.756.756 0 0 0-.221-.351c-.097-.09-.241-.136-.432-.136a.706.706 0 0 0-.542.221c-.134.144-.2.355-.2.633v.562c0 .278.066.49.2.638a.715.715 0 0 0 .542.216.64.64 0 0 0 .447-.15.94.94 0 0 0 .251-.372l.623.361c-.13.268-.303.475-.518.623-.21.144-.478.216-.803.216zm1.815-.061V10.88h.742v.572h.026a.78.78 0 0 1 .2-.397.675.675 0 0 1 .472-.176h.13v.693h-.185c-.217 0-.38.029-.487.086-.104.057-.155.162-.155.316v1.541h-.743zm3.104.061c-.2 0-.38-.032-.537-.096a1.178 1.178 0 0 1-.402-.276 1.237 1.237 0 0 1-.246-.437 1.906 1.906 0 0 1-.08-.572c0-.208.027-.395.08-.562.054-.171.133-.317.236-.437.107-.12.238-.213.392-.276.154-.067.33-.1.527-.1.218 0 .403.036.557.11.158.073.285.172.382.296.1.124.172.268.216.432.047.16.07.33.07.507v.22h-1.692v.04c0 .175.047.314.14.418.095.1.242.15.443.15.153 0 .28-.03.376-.09a1.56 1.56 0 0 0 .271-.226l.372.462a1.167 1.167 0 0 1-.462.321 1.68 1.68 0 0 1-.643.116zm-.015-2.21c-.15 0-.27.05-.356.151a.58.58 0 0 0-.126.392v.04h.924v-.045a.628.628 0 0 0-.11-.387c-.07-.1-.181-.15-.332-.15zm3.351 1.707h-.025a.692.692 0 0 1-.095.201.683.683 0 0 1-.371.261.728.728 0 0 1-.242.04c-.334 0-.587-.117-.758-.35-.17-.239-.256-.582-.256-1.03 0-.449.086-.79.256-1.024.171-.235.424-.352.759-.352.17 0 .32.047.451.14.134.095.22.215.256.362h.025V9.8h.743v3.714h-.742v-.441zm-.487-.1a.566.566 0 0 0 .347-.1.339.339 0 0 0 .14-.287v-.778a.326.326 0 0 0-.14-.28.548.548 0 0 0-.347-.106.46.46 0 0 0-.35.15.559.559 0 0 0-.136.397v.457c0 .167.045.301.135.401.094.098.21.146.351.146zm2.297-2.375c-.15 0-.261-.033-.331-.1a.37.37 0 0 1-.1-.266v-.11c0-.108.033-.195.1-.262.07-.07.18-.105.33-.105.151 0 .26.035.327.105.07.067.106.154.106.261v.11a.36.36 0 0 1-.106.267c-.067.067-.175.1-.326.1zm-.372.282h.743v2.635h-.743V10.88zm2.361 2.635c-.258 0-.454-.065-.588-.195-.13-.131-.196-.322-.196-.573v-1.29h-.371v-.577h.186c.1 0 .169-.024.206-.07a.35.35 0 0 0 .055-.212v-.431h.667v.713h.523v.577h-.523v1.48h.483v.578h-.442zm-13.605 4.672 1.26-3.497h.613l-1.26 3.497h-.613zm3.358-3.469h1.32c.23 0 .441.037.632.11.191.074.353.184.487.332.134.143.238.326.312.547.073.217.11.472.11.763 0 .291-.037.547-.11.768a1.53 1.53 0 0 1-.312.547 1.288 1.288 0 0 1-.487.326 1.73 1.73 0 0 1-.632.111h-1.32v-3.504zm1.32 2.826c.227 0 .406-.063.537-.19.13-.128.196-.332.196-.613v-.542c0-.281-.066-.486-.196-.613s-.31-.19-.537-.19h-.558v2.148h.558zm3.29.738c-.201 0-.38-.032-.538-.095a1.177 1.177 0 0 1-.401-.276 1.237 1.237 0 0 1-.246-.437 1.908 1.908 0 0 1-.08-.572c0-.208.026-.395.08-.563a1.22 1.22 0 0 1 .236-.437c.107-.12.237-.212.391-.276.154-.067.33-.1.527-.1.218 0 .404.037.558.11.157.074.284.173.381.297.1.123.173.267.216.431.047.161.07.33.07.508v.22h-1.692v.04c0 .175.047.314.141.417.094.1.241.15.442.15.154 0 .28-.03.376-.09.097-.063.188-.138.271-.225l.372.462a1.17 1.17 0 0 1-.462.32 1.682 1.682 0 0 1-.643.116zm-.016-2.209c-.15 0-.27.05-.356.15a.58.58 0 0 0-.126.392v.04h.924v-.045c0-.16-.037-.29-.11-.386-.07-.1-.181-.15-.332-.15zm1.838-1.566h.743v1.521h.025a.62.62 0 0 1 .251-.361.776.776 0 0 1 .457-.141c.335 0 .587.117.758.351.17.235.256.576.256 1.025 0 .448-.085.791-.256 1.029-.17.234-.423.351-.758.351a.746.746 0 0 1-.246-.04.767.767 0 0 1-.21-.1.69.69 0 0 1-.251-.361h-.026v.441h-.743v-3.715zm1.23 3.173c.14 0 .256-.049.346-.146.094-.1.14-.234.14-.402v-.456c0-.168-.046-.3-.14-.397a.445.445 0 0 0-.346-.15.569.569 0 0 0-.352.105.33.33 0 0 0-.135.281v.778c0 .12.045.216.136.286.093.067.21.1.35.1zm2.183-2.375c-.151 0-.261-.033-.332-.1a.37.37 0 0 1-.1-.266v-.11c0-.108.033-.195.1-.262.07-.07.181-.105.332-.105.15 0 .259.035.326.105.07.067.105.154.105.261v.11a.36.36 0 0 1-.105.267c-.067.067-.176.1-.326.1zm-.372.281h.743v2.636h-.743v-2.636zm2.36 2.636c-.257 0-.453-.065-.587-.196-.13-.13-.196-.321-.196-.572v-1.29h-.371v-.578h.185c.1 0 .17-.023.206-.07a.351.351 0 0 0 .056-.21v-.433h.667v.713h.522v.578h-.522v1.48h.482v.578h-.442z" fill="#333"/><path d="M18.883 7.14H8.695c-.648 0-1.175.528-1.175 1.176v6.661c0 .649.527 1.176 1.175 1.176h10.188c.648 0 1.175-.527 1.175-1.176v-6.66c0-.65-.527-1.176-1.175-1.176zm1.175 3.77H7.52V9.45h12.538v1.461z" fill="#FF444F"/><path d="M15.75 11.844H5.562c-.648 0-1.175.527-1.175 1.175v6.661c0 .649.527 1.176 1.175 1.176H15.75c.648 0 1.175-.527 1.175-1.176v-6.66c0-.648-.527-1.175-1.175-1.175z" fill="#122D96"/><path fill-rule="evenodd" clip-rule="evenodd" d="M14.835 13.357a.709.709 0 1 1 0 1.418h-1.644a.71.71 0 1 1 0-1.418h1.644zm0-.392h-1.644a1.102 1.102 0 0 0 0 2.202h1.644a1.102 1.102 0 0 0 0-2.202zm-9.237 5.658H7.52v.588H5.598v-.588zm2.73 0h1.923v.588H8.329v-.588zm4.652 0h-1.922v.588h1.922v-.588zm.809 0h1.922v.588h-1.922v-.588zm-8.191-4.43v.178c0 .21.17.38.38.38h.348v-.558h-.728zm0-.433c0-.21.17-.38.38-.38h.35v.558h-.73v-.178zm.983.992h.35a.38.38 0 0 0 .381-.38v-.612a.38.38 0 0 0-.38-.38h-.35v1.372z" fill="#fff"/></svg>