<svg width="14" height="14" fill="none" xmlns="http://www.w3.org/2000/svg"><path d="M3 10a1 1 0 011 1v2a1 1 0 01-1 1H1a1 1 0 01-1-1v-2a1 1 0 011-1h2zm5 0a1 1 0 011 1v2a1 1 0 01-1 1H6a1 1 0 01-1-1v-2a1 1 0 011-1h2zm5 0a1 1 0 011 1v2a1 1 0 01-1 1h-2a1 1 0 01-1-1v-2a1 1 0 011-1h2zM3 11H1v2h2v-2zm5 0H6v2h2v-2zm5 0h-2v2h2v-2zM3 5a1 1 0 011 1v2a1 1 0 01-1 1H1a1 1 0 01-1-1V6a1 1 0 011-1h2zm5 0a1 1 0 011 1v2a1 1 0 01-1 1H6a1 1 0 01-1-1V6a1 1 0 011-1h2zm5 0a1 1 0 011 1v2a1 1 0 01-1 1h-2a1 1 0 01-1-1V6a1 1 0 011-1h2zM3 6H1v2h2V6zm5 0H6v2h2V6zm5 0h-2v2h2V6zM3 0a1 1 0 011 1v2a1 1 0 01-1 1H1a1 1 0 01-1-1V1a1 1 0 011-1h2zm5 0a1 1 0 011 1v2a1 1 0 01-1 1H6a1 1 0 01-1-1V1a1 1 0 011-1h2zm5 0a1 1 0 011 1v2a1 1 0 01-1 1h-2a1 1 0 01-1-1V1a1 1 0 011-1h2zM3 1H1v2h2V1zm5 0H6v2h2V1zm5 0h-2v2h2V1z" fill="var(--fill-color1)"/></svg>