<svg width="40" height="25" fill="none" xmlns="http://www.w3.org/2000/svg"><path d="M10.776 8.125v8.75h-.317v-8.75h.317zm4.318 5.985a.472.472 0 0 0 .484-.46V9.027h1.93v4.623c.032.839-.422 1.627-1.182 2.055a2.51 2.51 0 0 1-1.102.318l-.088.003h-.088a2.513 2.513 0 0 1-1.19-.321c-.76-.428-1.214-1.216-1.182-2.055h1.933c0 .254.217.46.485.46zm15.864-3.095c.31.125.592.308.828.537l.006.003c.241.234.43.51.555.815a2.76 2.76 0 0 1 0 2.049 2.484 2.484 0 0 1-1.389 1.36 2.888 2.888 0 0 1-.896.19l-.102.004h-.102a2.926 2.926 0 0 1-.998-.193 2.562 2.562 0 0 1-.837-.54 2.517 2.517 0 0 1-.548-.821 2.643 2.643 0 0 1-.198-1.026c-.004-.35.063-.697.198-1.023a2.48 2.48 0 0 1 .548-.815c.238-.231.523-.415.837-.54a2.9 2.9 0 0 1 2.098 0zm-10.24-.208c.357-.005.712.056 1.044.182.303.116.575.296.795.526v-.003c.219.232.386.504.49.8.114.332.17.68.165 1.029v.243a.55.55 0 0 1-.04.182l-.055.1h-3.35c.044.2.15.383.305.524.099.09.214.16.341.208.132.05.272.075.414.075l.071.002.071-.002c.188-.012.369-.075.522-.182l.076-.064 1.42.376-.153.214a2.07 2.07 0 0 1-.5.497c-.2.147-.426.26-.666.338a2.9 2.9 0 0 1-.755.118l-.11.001a2.93 2.93 0 0 1-.962-.174 2.412 2.412 0 0 1-1.398-1.332 2.667 2.667 0 0 1-.216-1.095 2.638 2.638 0 0 1 .204-1.043 2.444 2.444 0 0 1 1.346-1.323c.295-.128.616-.195.94-.197zM8.824 14.005c-.458.905-1.307 1.576-2.326 1.841a3.82 3.82 0 0 1-2.99-.456l5.316-1.385zm16.9-4.43v1.379h.977v1.323h-.977v1.908a.401.401 0 0 0 .088.289.473.473 0 0 0 .258.084h.046c.05.004.1.006.149.007l.074-.002.13-.017.241-.058v1.231l-.122.046c-.027 0-.079.026-.234.067a2.243 2.243 0 0 1-.313.044l-.105.005h-.106a1.669 1.669 0 0 1-1.169-.405c-.3-.3-.457-.702-.436-1.115v-2.084h-.578v-1.323h.579V9.576h1.498zm10.192 1.252.091.002c.244.01.486.06.715.151.236.098.445.248.61.436.156.188.274.402.346.63l.019.003c.078.244.117.497.115.752v3.034H36.29v-2.852a.974.974 0 0 0-.183-.601.855.855 0 0 0-.535-.214h-.053l-.052.002a.851.851 0 0 0-.526.235.987.987 0 0 0-.207.641v2.786H33.21v-4.878h1.477v.269c.103-.084.216-.154.338-.208.282-.126.586-.188.89-.188zm-6.008 1.335c-.147 0-.293.025-.43.075a.954.954 0 0 0-.344.223 1.19 1.19 0 0 0-.253.387c-.068.174-.101.36-.097.546-.003.188.03.375.097.552.058.144.144.276.253.39.098.098.216.176.347.228.136.052.28.078.425.078l.072-.002c.12-.007.24-.032.353-.076a1.05 1.05 0 0 0 .356-.23c.107-.113.19-.245.24-.388l.007.003a1.55 1.55 0 0 0 .094-.555 1.486 1.486 0 0 0-.094-.55 1.086 1.086 0 0 0-.247-.38c-.1-.099-.22-.176-.353-.226a1.235 1.235 0 0 0-.427-.075zM8.573 10.555c.403.576.615 1.254.61 1.945v.173l-6.7 1.743a3.326 3.326 0 0 1-.609-1.916v-.208l6.7-1.737zm12.147 1.526a1.024 1.024 0 0 0-.695.263 1.04 1.04 0 0 0-.195.289.884.884 0 0 0-.02.08l.005-.002h1.852a.769.769 0 0 0-.213-.379.894.894 0 0 0-.305-.182 1.174 1.174 0 0 0-.356-.069h-.073zM4.565 9.158a3.821 3.821 0 0 1 2.946.43l-5.25 1.366c.464-.882 1.302-1.535 2.304-1.796z" fill="#FF671F"/></svg>