<svg width="46" height="10" fill="none" xmlns="http://www.w3.org/2000/svg"><path fill-rule="evenodd" clip-rule="evenodd" d="m5.412.993-.42 2.38H3.535C2.175 3.374.88 4.476.64 5.835l-.102.58c-.239 1.358.668 2.46 2.028 2.46H3.78c.99 0 1.934-.802 2.109-1.793L7.009.737 5.412.993ZM4.378 6.857c-.054.306-.33.555-.635.555h-.739c-.61 0-1.02-.496-.912-1.108l.064-.361c.108-.611.691-1.108 1.302-1.108h1.276l-.356 2.022Z" fill="#FF444F"/><path d="M16.633 8.874h1.513l.956-5.424h-1.513l-.956 5.424Zm.051-4.717v-.001l.113-.643a5.116 5.116 0 0 0-3.253.217l-.907 5.145h1.513l.737-4.178a3.854 3.854 0 0 1 1.683.106l.114-.646Z" fill="#FF444F"/><path fill-rule="evenodd" clip-rule="evenodd" d="M10.664 3.373H9.488c-1.148 0-2.241.93-2.443 2.077l-.238 1.348c-.202 1.147.563 2.076 1.71 2.076h2.504l.257-1.457H8.925c-.382 0-.638-.31-.57-.693l.008-.046h3.794l.217-1.228c.202-1.147-.563-2.077-1.71-2.077Zm.192 1.96-.009.079H8.591l.012-.07c.068-.382.417-.718.8-.718h.881c.379 0 .634.33.572.71Z" fill="#FF444F"/><path d="M21.73 7.028a49.172 49.172 0 0 0 1.76-3.578h1.514c-.516 1.37-1.697 3.703-2.842 5.424H20.65c-.525-1.638-.865-3.922-.93-5.424h1.514c.027.49.247 2.308.497 3.578Z" fill="#FF444F"/><path d="M29.302 1.224c1.156 0 2.044.206 2.663.616.62.403.929 1.067.929 1.992 0 .932-.313 1.608-.94 2.025-.627.41-1.522.616-2.686.616h-.548v2.596h-1.746V1.426c.38-.075.783-.127 1.209-.157.425-.03.798-.045 1.119-.045Zm.112 1.489c-.127 0-.254.004-.38.011-.12.007-.225.015-.314.022v2.239h.548c.604 0 1.06-.083 1.365-.247.306-.164.46-.47.46-.917a1.06 1.06 0 0 0-.124-.537.809.809 0 0 0-.336-.336 1.327 1.327 0 0 0-.525-.18 3.961 3.961 0 0 0-.694-.055Zm8.858.637c0 .284-.056.556-.168.818a3.915 3.915 0 0 1-.437.76c-.179.24-.38.47-.604.694-.224.224-.444.437-.66.638-.112.105-.235.224-.37.358a11.192 11.192 0 0 0-.694.772.91.91 0 0 0-.167.28h3.335v1.4h-5.17a1.806 1.806 0 0 1-.023-.314v-.269c0-.358.056-.686.168-.985.12-.298.272-.574.459-.828.186-.26.395-.503.627-.727.238-.224.473-.448.705-.671l.503-.482c.157-.156.295-.306.414-.447.12-.15.213-.295.28-.437.067-.149.1-.298.1-.447 0-.329-.093-.56-.279-.694a1.157 1.157 0 0 0-.694-.202c-.201 0-.392.034-.57.101-.172.06-.333.134-.482.224a2.466 2.466 0 0 0-.37.257c-.103.082-.182.15-.234.202l-.828-1.164a4.147 4.147 0 0 1 1.141-.75c.44-.201.91-.302 1.41-.302.455 0 .847.052 1.175.157a2.1 2.1 0 0 1 .806.447 1.6 1.6 0 0 1 .47.694c.104.269.157.575.157.918Zm3.473-2.126c1.156 0 2.044.206 2.663.616.62.403.93 1.067.93 1.992 0 .932-.314 1.608-.94 2.025-.628.41-1.523.616-2.687.616h-.548v2.596h-1.746V1.426a9.83 9.83 0 0 1 1.209-.157c.425-.03.798-.045 1.119-.045Zm.112 1.489c-.127 0-.254.004-.38.011-.12.007-.224.015-.314.022v2.239h.548c.605 0 1.06-.083 1.366-.247.306-.164.458-.47.458-.917a1.06 1.06 0 0 0-.123-.537.809.809 0 0 0-.335-.336 1.326 1.326 0 0 0-.526-.18 3.961 3.961 0 0 0-.694-.055Z" fill="#414652"/></svg>