<svg width="16" height="14" fill="none" xmlns="http://www.w3.org/2000/svg"><path d="M12.5 0h.023a.497.497 0 0 1 .431.29l-.038-.068a.496.496 0 0 1 .044.083l2.994 6.485a.617.617 0 0 1 .036.109A.476.476 0 0 1 16 7l-.003.055a.476.476 0 0 1-.004.03L16 7a.498.498 0 0 1-.071.258l-.003.004-4 6.5-.004.005a.496.496 0 0 1-.187.174l-.011.006-.026.012a.52.52 0 0 1-.045.017l.07-.029A.503.503 0 0 1 11.5 14l.073-.005a.464.464 0 0 1-.049.005H3.5a.544.544 0 0 1-.15-.023.542.542 0 0 1-.08-.033.507.507 0 0 1-.132-.1l.062.056a.497.497 0 0 1-.154-.19l.036.064a.51.51 0 0 1-.017-.028l-.019-.037-3-6.5A.5.5 0 0 1 0 7v-.01a.5.5 0 0 1 .006-.066L0 7a.502.502 0 0 1 .089-.285l-.032.053a.5.5 0 0 1 .02-.035l.012-.018 4.5-6.5a.505.505 0 0 1 .187-.162l.019-.009a.499.499 0 0 1 .039-.016l-.058.025A.501.501 0 0 1 5 0l-.083.007A.497.497 0 0 1 4.99 0h7.51zM6.827 7.5H1.28l2.322 5.031L4.6 11.2a.5.5 0 0 1 .847.523L5.4 11.8 4.5 13h6.19L7.989 7.598 6.405 9.793a.5.5 0 0 1-.856-.508l.046-.078L6.827 7.5zm5.577-6.014L8.783 6.5H10.5a.5.5 0 0 1 .09.992l-.09.008H9.059l2.486 4.971L14.604 7.5H12.5a.5.5 0 0 1-.09-.992l.09-.008h2.218l-2.314-5.014zM11.521 1H5.809l.638 1.276A.5.5 0 0 1 5.6 2.8l-.047-.076-.624-1.246L1.453 6.5H7.44l-.887-1.776A.5.5 0 0 1 7.4 4.2l.047.076.699 1.398L11.521 1z" fill="var(--fill-color1)"/></svg>