<svg width="16" height="16" fill="none" xmlns="http://www.w3.org/2000/svg"><path d="M16 8c0-.56-.34-1.06-.9-1.3l-1.3-.57 1.31-.57c.55-.24.9-.74.9-1.3s-.34-1.06-.9-1.3L8.69.14c-.44-.19-.94-.19-1.37 0L.9 2.95c-.56.24-.9.74-.9 1.3s.34 1.06.9 1.3l1.3.58-1.3.57C.34 6.94 0 7.44 0 8s.34 1.06.9 1.3l1.3.57-1.3.58c-.56.24-.9.74-.9 1.3s.34 1.06.9 1.3l6.42 2.81c.21.09.45.14.68.14.23 0 .47-.05.69-.14l6.42-2.81c.55-.24.9-.74.9-1.3s-.34-1.06-.9-1.3l-1.31-.58 1.3-.57c.56-.24.9-.74.9-1.3zM.94 4.25c0-.18.12-.35.33-.44L7.69 1a.83.83 0 01.62 0l6.42 2.81c.21.09.33.26.33.44s-.12.35-.33.44L8.31 7.5a.83.83 0 01-.62 0L1.27 4.69c-.2-.09-.33-.25-.33-.44zm13.79 7.06c.21.09.33.26.33.44s-.12.35-.33.44L8.31 15c-.19.08-.43.09-.62 0l-6.42-2.81c-.21-.09-.33-.26-.33-.44s.12-.35.33-.44l2.1-.92 3.94 1.72c.22.1.45.14.69.14.23 0 .47-.05.69-.14l3.94-1.72 2.1.92zm0-2.87l-6.42 2.81a.83.83 0 01-.62 0L1.28 8.44C1.07 8.35.94 8.19.94 8c0-.18.12-.35.33-.44l2.1-.92 3.94 1.72c.22.1.46.15.69.15.23 0 .47-.05.69-.14l3.94-1.72 2.1.92c.21.09.33.26.33.44s-.13.34-.33.43z" fill="var(--fill-color1)"/></svg>