<svg width="40" height="25" fill="none" xmlns="http://www.w3.org/2000/svg"><path fill-rule="evenodd" clip-rule="evenodd" d="M25.818 10.23a1.06 1.06 0 001.066-1.052 1.06 1.06 0 00-1.066-1.053 1.06 1.06 0 00-1.066 1.053 1.06 1.06 0 001.066 1.052zm-8.151.565a7.535 7.535 0 01-1.23 2.084V8.606l-2.215.434v7.746h2.214V14.39c.44.745.76 1.553.95 2.396h2.666c-.263-1.084-1.417-3.083-1.417-3.083a9.616 9.616 0 001.562-2.908h-2.53zm5.855-.08c-1.996.065-3.008.936-3.008 2.704v3.367h2.173V14.04c0-1.052.139-1.502 1.404-1.561v-1.75a3.152 3.152 0 00-.572-.03l.003.015zm-13.048.936c-.275-.016-.905-.056-.905-.625 0-.677.908-.677 1.25-.677a7.551 7.551 0 011.932.34s.317.106.573.216h.022v-1.84h-.032a7.84 7.84 0 00-2.827-.443c-2.433-.016-3.3 1.38-3.3 2.582 0 .69.301 2.318 3.088 2.499.237 0 .863.05.863.625 0 .48-.512.762-1.376.762a6.81 6.81 0 01-2.423-.466v1.937c.942.225 1.91.33 2.879.312 2.378 0 3.444-1.324 3.444-2.636 0-1.49-1.192-2.455-3.191-2.59l.003.004zm14.262 5.135h2.16v-5.984h-2.16v5.984zm6.225-7.808v7.808h2.164v-8.18l-2.16.381-.004-.01zm-3.163 0l2.164-.372v8.18H27.81V8.978h-.013z" fill="#6C2556"/></svg>