<svg width="128" height="80" fill="none" xmlns="http://www.w3.org/2000/svg"><path d="M46.166 33.222h.874c.224 0 .404.18.404.403v7.829c0 2.475 1.34 4.038 3.835 4.038 2.494 0 3.835-1.563 3.835-4.036v-7.83c0-.223.18-.404.404-.404h.874c.224 0 .404.18.404.403v7.851c0 3.369-1.848 5.516-5.517 5.516-3.67 0-5.517-2.168-5.517-5.496v-7.87a.396.396 0 0 1 .404-.402v-.002Zm13.208 10.666a.358.358 0 0 1 .527-.037c.906.88 2.26 1.64 3.978 1.64 2.413 0 3.185-1.298 3.185-2.332 0-1.627-1.641-2.07-3.427-2.557-2.169-.57-4.586-1.176-4.586-3.834 0-2.233 1.99-3.754 4.65-3.754 1.909 0 3.419.585 4.532 1.614.16.146.176.395.035.56l-.527.646a.356.356 0 0 1-.517.032c-.99-.926-2.293-1.351-3.648-1.351-1.625 0-2.78.875-2.78 2.147 0 1.361 1.562 1.766 3.286 2.23 2.21.592 4.725 1.279 4.725 4.121 0 1.966-1.34 3.974-4.988 3.974-2.185 0-3.83-.77-4.949-1.888a.407.407 0 0 1-.032-.539l.535-.67v-.002ZM70.81 33.625c0-.224.18-.403.402-.403h4.219c4.197 0 6.94 2.94 6.94 6.775 0 3.854-2.738 6.752-6.94 6.752h-4.219a.403.403 0 0 1-.402-.403v-12.72Zm4.625 11.624c3.287 0 5.192-2.355 5.192-5.254 0-2.924-1.847-5.273-5.192-5.273h-2.94V45.25h2.94Zm23.77-3.405c0-2.843 1.87-5.134 4.85-5.134 2.98 0 4.85 2.291 4.85 5.134 0 2.84-1.87 5.154-4.85 5.154-2.981 0-4.85-2.318-4.85-5.154Zm8.095 0c0-1.988-1.155-3.774-3.245-3.774-2.091 0-3.266 1.786-3.266 3.774 0 2.007 1.175 3.793 3.266 3.793 2.09 0 3.244-1.786 3.244-3.793h.001Zm3.063-7.567c0-.57.467-1.015 1.015-1.015.569 0 1.035.446 1.035 1.015 0 .57-.466 1.035-1.035 1.035-.548 0-1.015-.471-1.015-1.035Zm.668 2.676h.71c.222 0 .402.18.402.403v8.99c0 .223-.18.403-.402.403h-.71a.404.404 0 0 1-.404-.403v-8.99c0-.223.182-.403.404-.403Zm9.88 3.389c0-1.722-.874-2.272-2.189-2.272-1.196 0-2.333.73-2.904 1.523v6.753c0 .223-.18.403-.404.403h-.708a.404.404 0 0 1-.404-.403v-8.99c0-.223.181-.403.404-.403h.708c.224 0 .404.18.404.403v1.014c.687-.811 2.03-1.661 3.488-1.661 2.05 0 3.126 1.035 3.126 3.163v6.468a.404.404 0 0 1-.403.404h-.709a.404.404 0 0 1-.405-.404v-5.998h-.004Zm-34.695-.345c0-4.16 3.064-6.997 6.9-6.997 2.271 0 3.866.989 4.941 2.346a.358.358 0 0 1-.104.532l-.755.418a.403.403 0 0 1-.512-.097 4.62 4.62 0 0 0-3.57-1.694c-2.904 0-5.156 2.274-5.156 5.497 0 3.205 2.252 5.496 5.155 5.496 1.475 0 2.774-.682 3.57-1.692a.408.408 0 0 1 .512-.104l.767.42a.356.356 0 0 1 .103.539C96.949 46.027 95.388 47 93.115 47c-3.835-.006-6.898-2.843-6.898-7.003Z" fill="#4D4E50"/><path d="M22 56c8.837 0 16-7.163 16-16s-7.163-16-16-16S6 31.163 6 40s7.163 16 16 16Z" fill="#2775CA"/><path d="M19.002 50.689c0 .376-.295.59-.66.476-4.836-1.544-8.345-6.079-8.345-11.432 0-5.352 3.507-9.89 8.346-11.433.364-.113.659.1.659.478v.928c0 .252-.194.546-.432.628-3.829 1.404-6.572 5.081-6.572 9.393 0 4.311 2.744 7.988 6.572 9.393a.725.725 0 0 1 .431.627v.942Z" fill="#fff"/><path d="M22.998 47.23a.503.503 0 0 1-.502.504H21.5a.505.505 0 0 1-.502-.503V45.65c-2.183-.295-3.25-1.52-3.54-3.181a.467.467 0 0 1 .465-.54h1.143c.239 0 .438.17.489.408.213.992.784 1.751 2.536 1.751 1.292 0 2.208-.722 2.208-1.801 0-1.08-.54-1.488-2.435-1.802-2.797-.376-4.123-1.222-4.123-3.42 0-1.692 1.279-3.01 3.263-3.293v-1.55c0-.277.227-.503.503-.503h.996c.277 0 .504.226.504.503v1.593c1.612.29 2.635 1.205 2.968 2.724a.465.465 0 0 1-.46.558h-1.051a.508.508 0 0 1-.485-.368c-.28-.97-.97-1.382-2.17-1.382-1.323 0-2.008.64-2.008 1.536 0 .95.39 1.426 2.421 1.72 2.751.377 4.167 1.161 4.167 3.502 0 1.776-1.317 3.212-3.38 3.545v1.58h-.01Z" fill="#fff"/><path d="M25.66 51.164c-.364.114-.659-.101-.659-.477v-.93c0-.275.169-.533.432-.626 3.828-1.406 6.57-5.083 6.57-9.394 0-4.31-2.742-7.987-6.568-9.393a.723.723 0 0 1-.434-.628v-.928c0-.376.295-.597.659-.477 4.837 1.544 8.344 6.08 8.344 11.432-.006 5.341-3.507 9.87-8.344 11.42Z" fill="#fff"/></svg>