<svg width="128" height="80" viewBox="0 0 128 80" fill="none" xmlns="http://www.w3.org/2000/svg"><path d="M53.2 40c0 13.255-10.746 24-24 24-13.256 0-24-10.745-24-24s10.744-24 24-24c13.254 0 24 10.745 24 24" fill="#171C21"/><path d="M41.154 30.07h-3.471l-5.486 5.43a4.27 4.27 0 0 1-5.996 0l-5.486-5.43h-3.471l7.221 7.147c2.615 2.587 6.853 2.587 9.467 0zM17.2 49.945h3.47l5.531-5.474a4.27 4.27 0 0 1 5.996 0l5.531 5.474h3.471l-7.266-7.191c-2.615-2.588-6.853-2.588-9.467 0z" fill="#fff"/><path d="M77.597 31.211H80.6l-6.253 6.321a5.747 5.747 0 0 1-8.194 0l-6.25-6.32h3.004l4.75 4.802a3.643 3.643 0 0 0 5.149.04l.04-.04zM62.87 48.79h-3.004l6.29-6.361a5.747 5.747 0 0 1 8.195 0l6.288 6.36h-3.004l-4.788-4.84a3.643 3.643 0 0 0-5.15-.04l-.04.04zm54.331-17.579a5.7 5.7 0 0 1 2.158.454q1.026.405 1.793 1.123.774.721 1.209 1.697.438.96.438 2.032c0 .73-.154 1.426-.463 2.08a5.3 5.3 0 0 1-1.232 1.695 6 6 0 0 1-1.818 1.146h-.002a6 6 0 0 1-2.211.408h-6.558v6.882h-2.307V31.211zm-.128 8.512q.694 0 1.317-.25.63-.249 1.098-.687c.312-.29.561-.634.737-1.022q.268-.579.267-1.247 0-.645-.267-1.224a3.3 3.3 0 0 0-.737-1.022 3.5 3.5 0 0 0-1.098-.687 3.5 3.5 0 0 0-1.317-.25h-6.558v6.389zM91.45 41.884c1.155 0 2.25.488 2.976 1.33l4.764 5.517h2.967l-6.517-7.648c-.725-.851-1.826-1.347-2.992-1.347h-4.515v-6.374h6.557q.695 0 1.317.25.63.252 1.098.687l.005.005q.466.41.733.994.269.578.267 1.25 0 .667-.267 1.246a3.3 3.3 0 0 1-.395.63l1.5 1.674.056-.06a5.2 5.2 0 0 0 1.025-1.6 4.7 4.7 0 0 0 .385-1.893q0-1.074-.438-2.035a5.2 5.2 0 0 0-1.209-1.7 6 6 0 0 0-1.79-1.145 5.7 5.7 0 0 0-2.163-.454h-7.84c-.317 0-.594.119-.82.333a1 1 0 0 0-.333.743v16.441h2.307v-6.844z" fill="#23292F"/></svg>