<svg width="24" height="24" viewBox="0 0 24 24" fill="none" xmlns="http://www.w3.org/2000/svg"><path d="M4.5 0A4.5 4.5 0 0 0 0 4.5v.13l22.436-3.54A4.482 4.482 0 0 0 19.5 0h-15Zm18.399 1.55L18.783 24h.717a4.5 4.5 0 0 0 4.5-4.5v-15c0-1.128-.415-2.16-1.101-2.95Z" fill="#303541"/><path d="M0 4.63V19.5A4.5 4.5 0 0 0 4.5 24h14.603-.32L22.9 1.55a4.533 4.533 0 0 0-.463-.46L0 4.63Z" fill="#414652"/><path d="M12.75 14.25c0-.825.675-1.5 1.5-1.5h3c.825 0 1.5.675 1.5 1.5v3c0 .825-.675 1.5-1.5 1.5h-3c-.825 0-1.5-.675-1.5-1.5v-3Z" fill="#EF8933"/><path d="M5.25 14.25c0-.825.675-1.5 1.5-1.5h3c.825 0 1.5.675 1.5 1.5v3c0 .825-.675 1.5-1.5 1.5h-3c-.825 0-1.5-.675-1.5-1.5v-3Z" fill="#4B6FA8"/><path d="M12.75 6.75c0-.825.675-1.5 1.5-1.5h3c.825 0 1.5.675 1.5 1.5v3c0 .825-.675 1.5-1.5 1.5h-3c-.825 0-1.5-.675-1.5-1.5v-3Z" fill="#76C0E3"/><path d="M5.25 6.75c0-.825.675-1.5 1.5-1.5h3c.825 0 1.5.675 1.5 1.5v3c0 .825-.675 1.5-1.5 1.5h-3c-.825 0-1.5-.675-1.5-1.5v-3Z" fill="#FF444F"/></svg>
