<svg width="43" height="28" fill="none" xmlns="http://www.w3.org/2000/svg"><path d="M27.058 11.168c.125 0 .25.014.372.04.125.028.25.063.372.104h1.434v.442h-.962v.028c.105.12.188.259.245.409a1.5 1.5 0 01.074.462 1.3 1.3 0 01-.436 1.005c-.27.261-.63.407-1.006.406 0 0-.468 0-.502.083 0 0-.439.383 0 .584.188.082.389.134.593.154l.067.004c.095.006.211.02.345.02h.087c.212.026.359.026.45.026.132.008.262.042.381.1a1.324 1.324 0 01.597.637c.07.17.104.35.1.533a1.33 1.33 0 01-.529 1.099 2.14 2.14 0 01-.67.335 3.36 3.36 0 01-.952.118 2.591 2.591 0 01-1.384-.298.955.955 0 01-.459-.865.883.883 0 01.335-.724c.243-.185.539-.288.845-.292v-.06a3.36 3.36 0 01-.255-.104.954.954 0 01-.228-.14.694.694 0 01-.241-.56.723.723 0 01.154-.439c.128-.147.289-.262.47-.335v-.068a1.673 1.673 0 01-.614-.522 1.257 1.257 0 01-.221-.738c-.012-.392.145-.77.432-1.038.3-.276.698-.421 1.106-.405zm.221 4.635c-.419-.024-.818.178-.818.67a.572.572 0 00.201.426.76.76 0 00.275.144c.137.042.28.06.422.057a1.08 1.08 0 00.67-.195.786.786 0 00.265-.566.48.48 0 00-.17-.409.734.734 0 00-.393-.097c-.15-.03-.301-.03-.452-.03zm-8.18-5.989v1.18l-1.797 3.917h1.83v1.002h-3.35v-.436l2.188-4.467h-2.13V9.814h3.26zm1.907 1.588v4.51h-1.213v-4.51h1.213zm2.909-.234a1.21 1.21 0 011.058.489.42.42 0 01.03.06c.127.294.177.614.148.932v3.265h-1.3v-3.078c.003-.204.006-.536-.214-.636a.493.493 0 00-.256-.037.464.464 0 00-.21.064c-.205.13-.205.488-.205.707v2.979h-1.3v-4.678h1.3v.269c.266-.223.602-.341.949-.336zm3.113.489a.399.399 0 00-.232.067.476.476 0 00-.157.19.967.967 0 00-.08.276 2.16 2.16 0 00-.024.328c-.009.216.04.43.137.623a.418.418 0 00.36.245.41.41 0 00.378-.241 1.21 1.21 0 00.134-.607 1.314 1.314 0 00-.134-.643.422.422 0 00-.382-.238zm-6.62-2.121c.16 0 .311.069.416.187l.048.057a.67.67 0 01.134.412.67.67 0 01-.185.476.552.552 0 01-.426.185.56.56 0 01-.415-.188.714.714 0 010-.945l.06-.054a.612.612 0 01.37-.13h-.001z" fill="#474747"/><path d="M41.323 11.308l-1.707 5.026-.118.335-.047.116a5.142 5.142 0 01-.17.38c-.08.15-.174.291-.282.422l-.08.086a1.166 1.166 0 01-.392.25 1.674 1.674 0 01-.63.11c-.154 0-.307-.01-.46-.033h-.12v-.855l.168.027c.1.016.202.023.305.02a.72.72 0 00.492-.147c.136-.136.23-.307.272-.493l.06-.212-1.746-5.006h1.36l.886 3.422.884-3.422h1.126l.197-.027.002.001zm-6.2-.047a1.73 1.73 0 011.183.402c.334.324.507.78.472 1.243v3.284h-.898v-.335a1.26 1.26 0 01-.292.228c-.238.134-.508.2-.78.195-.206 0-.41-.04-.6-.117a1.34 1.34 0 01-.476-.336 1.435 1.435 0 01-.305-.486l-.04-.122a1.78 1.78 0 01-.07-.508 1.567 1.567 0 01.18-.76c.129-.222.322-.4.553-.51.265-.131.559-.194.855-.185h.965v-.335a.728.728 0 00-.191-.569.821.821 0 00-.573-.181.929.929 0 00-.493.114.544.544 0 00-.235.335l-.03.104h-.872v-.155c.015-.382.199-.738.503-.97a1.861 1.861 0 011.143-.336zm-3.934-1.133a2.114 2.114 0 011.478.442l.082.098c.287.365.426.828.387 1.293.014.377-.065.751-.232 1.09a1.416 1.416 0 01-.72.646l-.19.056a3.614 3.614 0 01-.98.119v2.245h-1.28v-5.989h1.455zm4.591 4.002l-.745.01a.468.468 0 00-.408.167.77.77 0 00-.124.459.748.748 0 00.158.52l.047.047a.543.543 0 00.361.137.62.62 0 00.51-.268c.141-.194.212-.43.201-.67v-.402zm-4.68-3.022l-.084.005v1.76c.215.015.43-.04.613-.156a.863.863 0 00.194-.67 1.077 1.077 0 00-.197-.723.76.76 0 00-.61-.211l.084-.005z" fill="#72C579"/><path d="M8.544 17.423a.838.838 0 00.144.25c.043.06.092.115.145.165.107.1.228.185.358.252.074.035.15.065.228.09a1.58 1.58 0 01.62-.131c.13.001.26.018.386.05.484-.263.763-.791.71-1.34a1.306 1.306 0 00-1.005-1.34c-.09.012-.18.018-.269.02-.593 0-1.387-.238-1.675-.822-.178-.375 0-.794-.09-1.182a1.455 1.455 0 00-.563-.815 1.416 1.416 0 00-.845-.271 1.32 1.32 0 00-1.006 2.231c.25.274.596.441.965.466h.178a1.862 1.862 0 011.75 2.37l-.03.006z" fill="#A8E2C1"/><path d="M5.012 17.22a1.927 1.927 0 01-.027-.255v-.06a1.838 1.838 0 01.905-1.589h.017c.272-.153.579-.234.891-.234.158 0 .171-.094.319-.057a1.457 1.457 0 001.005-1.247 1.34 1.34 0 00-1.455-1.37 1.428 1.428 0 00-1.367 1.48c.05.594-.223 1.17-.717 1.504-.506.272-1.092.074-1.581.41a1.422 1.422 0 00.671 2.629 1.425 1.425 0 001.413-.91 1.934 1.934 0 01-.074-.302z" fill="#93D9E5"/><path d="M13.079 18.53a1.85 1.85 0 01-1.03-.221 1.482 1.482 0 01-.61-.556 1.778 1.778 0 01-.19-1.575 1.401 1.401 0 00-2.63.72 1.34 1.34 0 00.797 1.25c.16-.06.33-.095.502-.104a1.581 1.581 0 011.676 1.395c.078.405 0 .834.228 1.22.256.442.728.715 1.24.716a1.427 1.427 0 000-2.852l.017.007z" fill="#A8E2C1"/><path d="M6.69 12.251c-.38.04-.763-.028-1.106-.194a1.557 1.557 0 01-.57-.583 1.227 1.227 0 01-.11-.362 2.13 2.13 0 010-.942 1.424 1.424 0 10-1.297 1.92 1.72 1.72 0 01.985.239c.209.122.383.296.507.505.294.503.08 1.03.38 1.529a1.436 1.436 0 002.665-.71A1.428 1.428 0 006.69 12.25z" fill="#93D9E5"/><path d="M6.582 6.122a1.41 1.41 0 00-1.34 1.102c-.058.302-.05.614-.104.915a1.65 1.65 0 01-.292.708c-.153.21-.379.353-.633.405a4.196 4.196 0 01-.67 0 1.425 1.425 0 00-.419 2.779 1.471 1.471 0 001.705-.67.543.543 0 00.06-.172.798.798 0 000-.238 1.936 1.936 0 01.118-1.049c.14-.333.4-.601.73-.75.433-.185.936-.108 1.381-.266a1.43 1.43 0 00.912-1.273 1.417 1.417 0 00-1.452-1.491h.004z" fill="#93D9E5"/><path d="M12.994 12.29c-.787.02-1.41.674-1.39 1.46.022.345-.06.689-.235.986-.126.207-.3.38-.506.506-.507.295-1.093.097-1.592.399a1.454 1.454 0 00.174 2.527 1.545 1.545 0 011.153-.013c.288-.138.524-.366.67-.651a1.848 1.848 0 01-.137-.703 1.724 1.724 0 011.142-1.676 1.13 1.13 0 01.396-.064h.054c.347.059.703.018 1.028-.117a1.44 1.44 0 00.71-1.267 1.425 1.425 0 00-1.467-1.387z" fill="#A8E2C1"/><path d="M11.155 16.767c0-.221.04-.441.12-.647a1.442 1.442 0 00-1.983-.45 1.192 1.192 0 00-.198.152 1.426 1.426 0 00-.305.395 1.39 1.39 0 00-.1.231 1.686 1.686 0 00-.055.255c0 .121 0 .244-.02.365a1.37 1.37 0 01-.016.171 1.35 1.35 0 01-.034.161 2.075 2.075 0 01-.238.503c-.313.538-.9.858-1.521.831a2.44 2.44 0 01-.272-.024 1.29 1.29 0 00-.281.118c-.442.268-.707.75-.697 1.267a1.445 1.445 0 102.888-.071 2.06 2.06 0 01.102-.81 1.555 1.555 0 011.514-1.16c.215 0 .428.043.627.127a1.45 1.45 0 00.646-.63 1.786 1.786 0 01-.177-.784z" fill="#81D9B9"/><path d="M9.884 18.049c.7 0 1.266-.584 1.266-1.304 0-.72-.567-1.304-1.266-1.304-.7 0-1.267.584-1.267 1.304 0 .72.567 1.303 1.267 1.303z" fill="#81D9B9"/><path d="M7.361 18.665c-.163.046-.333.07-.502.07h-.067A1.83 1.83 0 014.975 16.9v-.229a1.764 1.764 0 01.06-.318 1.457 1.457 0 00-1.31-.747 1.427 1.427 0 10.07 2.851c.352-.023.702.059 1.006.235.221.115.41.283.55.49.301.506.1 1.092.408 1.591.28.433.766.687 1.28.67a1.417 1.417 0 00.336-2.794l-.014.016z" fill="#93D9E5"/><path d="M8.443 20a1.428 1.428 0 00-1.085-1.34h-.04c-.044 0-.09.02-.135.03h-.395a2.076 2.076 0 01-.258-.02c-.097.026-.19.065-.278.115-.442.268-.707.75-.697 1.266.008.46.247.886.637 1.133l.056.037c.068.041.14.077.215.103h.033c.071.024.141.04.212.058h.064c.084.008.17.008.254 0a1.438 1.438 0 001.418-1.38V20zm-1.729-4.949c.786 0 1.424-.627 1.424-1.4 0-.774-.638-1.401-1.424-1.401-.787 0-1.425.627-1.425 1.4 0 .774.638 1.401 1.425 1.401z" fill="#81D9B9"/></svg>