<svg width="48" height="30" viewBox="0 0 48 30" fill="none" xmlns="http://www.w3.org/2000/svg"><path d="M17.312 12.458h.328c.084 0 .152.068.152.151v2.936c0 .928.502 1.514 1.438 1.514.935 0 1.438-.586 1.438-1.513V12.61c0-.084.067-.152.151-.152h.328c.084 0 .152.068.152.151v2.945c0 1.263-.694 2.068-2.07 2.068s-2.068-.813-2.068-2.061V12.61a.149.149 0 0 1 .151-.151Zm4.953 4a.134.134 0 0 1 .198-.014c.34.33.848.615 1.492.615.905 0 1.194-.487 1.194-.874 0-.61-.615-.777-1.285-.96-.813-.213-1.72-.44-1.72-1.437 0-.837.746-1.408 1.744-1.408.716 0 1.282.22 1.7.606.06.054.065.148.013.21l-.198.242a.133.133 0 0 1-.194.012c-.371-.348-.86-.507-1.368-.507-.61 0-1.043.328-1.043.805 0 .51.586.662 1.233.837.829.221 1.772.48 1.772 1.545 0 .737-.503 1.49-1.871 1.49-.82 0-1.436-.289-1.856-.708a.153.153 0 0 1-.012-.202l.201-.252Zm4.289-3.849a.15.15 0 0 1 .151-.15h1.582c1.574 0 2.603 1.102 2.603 2.54 0 1.445-1.027 2.532-2.603 2.532h-1.582a.151.151 0 0 1-.151-.151v-4.77Zm1.735 4.36c1.232 0 1.946-.884 1.946-1.97 0-1.097-.692-1.978-1.946-1.978h-1.103v3.947h1.103Zm8.914-1.278c0-1.066.7-1.925 1.818-1.925s1.819.86 1.819 1.925c0 1.066-.701 1.933-1.819 1.933-1.118 0-1.818-.869-1.818-1.932Zm3.035 0c0-.745-.433-1.415-1.217-1.415s-1.225.67-1.225 1.415c0 .753.44 1.423 1.225 1.423.784 0 1.216-.67 1.216-1.423h.001Zm1.149-2.837a.38.38 0 0 1 .38-.38c.213 0 .388.166.388.38a.39.39 0 0 1-.388.388.39.39 0 0 1-.38-.388Zm.25 1.003h.266c.083 0 .151.068.151.151v3.372a.151.151 0 0 1-.15.15h-.267a.151.151 0 0 1-.151-.15v-3.372a.15.15 0 0 1 .151-.15Zm3.705 1.271c0-.646-.328-.852-.821-.852-.448 0-.875.274-1.089.571v2.533a.151.151 0 0 1-.151.15h-.266a.151.151 0 0 1-.151-.15v-3.372a.15.15 0 0 1 .151-.15h.266a.15.15 0 0 1 .151.15v.38c.258-.303.761-.622 1.308-.622.769 0 1.172.388 1.172 1.186v2.426a.151.151 0 0 1-.15.151h-.267a.151.151 0 0 1-.151-.151v-2.25h-.002Zm-13.01-.13c0-1.56 1.148-2.623 2.587-2.623.852 0 1.45.37 1.853.88a.134.134 0 0 1-.04.2l-.283.156a.151.151 0 0 1-.191-.036 1.732 1.732 0 0 0-1.34-.636c-1.088 0-1.932.853-1.932 2.062 0 1.202.844 2.06 1.933 2.06a1.7 1.7 0 0 0 1.338-.634.153.153 0 0 1 .192-.039l.288.158c.074.04.091.138.038.202-.419.512-1.004.877-1.857.877-1.438-.002-2.587-1.066-2.587-2.626Z" fill="#4D4E50"/><path d="M8.25 21a6 6 0 1 0 0-12 6 6 0 0 0 0 12Z" fill="#2775CA"/><path d="M7.126 19.008c0 .141-.11.222-.247.179a4.502 4.502 0 0 1 0-8.575c.136-.042.247.038.247.18v.348c0 .094-.073.205-.162.235a3.757 3.757 0 0 0-2.465 3.523 3.757 3.757 0 0 0 2.465 3.522.27.27 0 0 1 .162.235v.353Z" fill="#fff"/><path d="M8.624 17.712a.189.189 0 0 1-.188.188h-.374a.19.19 0 0 1-.188-.188v-.593c-.819-.11-1.219-.57-1.327-1.193a.175.175 0 0 1 .174-.203h.429c.089 0 .164.064.183.153.08.372.294.657.95.657.485 0 .829-.27.829-.676 0-.404-.203-.557-.913-.675-1.05-.141-1.546-.459-1.546-1.282 0-.635.48-1.13 1.223-1.235v-.582a.19.19 0 0 1 .189-.188h.373a.19.19 0 0 1 .19.188v.598c.604.109.987.452 1.112 1.021a.174.174 0 0 1-.172.21h-.394a.19.19 0 0 1-.182-.139c-.105-.363-.364-.518-.814-.518-.496 0-.753.24-.753.576 0 .356.146.535.908.645 1.032.141 1.563.436 1.563 1.313 0 .666-.494 1.205-1.268 1.33v.593h-.004Z" fill="#fff"/><path d="M9.623 19.186c-.137.043-.247-.037-.247-.178v-.35c0-.102.063-.199.162-.234A3.758 3.758 0 0 0 12 14.902a3.758 3.758 0 0 0-2.463-3.523.27.27 0 0 1-.162-.236v-.348c0-.14.11-.223.247-.178a4.502 4.502 0 0 1 3.129 4.287 4.505 4.505 0 0 1-3.13 4.282Z" fill="#fff"/></svg>