<svg width="43" height="28" fill="none" xmlns="http://www.w3.org/2000/svg"><path fill-rule="evenodd" clip-rule="evenodd" d="M37.092 11.77c-.415-.276-1.046-.422-1.87-.422H33.06l-.805 4.294h-2.83l.179-.963h1.72l.203-1.093H29.81l.182-.971h1.757l.236-1.26h-3.57l-.764 4.069h-1.306l.767-4.066h-1.874l-.755 4.065h-1.276l.77-4.065h-1.865l-.806 4.287h-2.853l.18-.966h1.713l.202-1.107h-1.71l.183-.974h1.79l.218-1.24H9.91l-.634 3.404-1.259-3.404H6.08l-1.04 5.535h1.848l.642-3.487 1.212 3.487h6.625l.805-4.298h1.043l-.813 4.298h17.432l.506-2.712.83 2.712h1.851l-.846-2.214.19-.041c.39-.067.741-.27.994-.573a1.77 1.77 0 00.332-1.113c.028-.472-.2-.924-.598-1.181zm-23.337 3.875h-2.828l.183-.966h1.773l.202-1.107h-1.757l.169-.965h2.825l-.567 3.038zm21.813-1.87a1.451 1.451 0 01-.83.19h-.368l.276-1.491h.277c.237-.015.474.035.683.146.18.11.286.31.277.52a.717.717 0 01-.315.631v.003z" fill="#8DC640"/></svg>
