<svg xmlns="http://www.w3.org/2000/svg" viewBox="0 0 196.9 196.9"><g transform="translate(944.97 2992.723)" fill="none"><circle cx="-846.6" cy="-2894.5" r="98.4"/><circle cx="-846.6" cy="-2894.5" r="95.9" stroke="#e98024" stroke-width="5"/></g><path d="M106.352 112.277v-21.1l18.1 11.7c-4.6 5.4-11.1 8.7-18.1 9.4m-23.1-9.4l18.1-11.7v21.1c-7.1-.7-13.6-4-18.1-9.4m18.1-44.6v27l-21 13.5c-7.5-13-3-29.6 10-37 3.4-1.9 7.1-3.1 11-3.5m29.5 27c0 4.7-1.2 9.4-3.6 13.5l-21-13.5v-27c14 1.3 24.6 13 24.6 27m-.6 18.2c10.1-14.6 6.4-34.6-8.2-44.6-14.6-10.1-34.6-6.4-44.6 8.2-7.6 11-7.6 25.5 0 36.4 0 0 0 .1.1.1.1.1.1.2.2.3 10.2 14.4 30.2 17.9 44.7 7.6 3-2.1 5.5-4.7 7.6-7.6.1-.1.1-.2.2-.3-.1 0 0 0 0-.1m-.4 25.8c-.4.5-.6 1-.6 1.6v26.4h-44.4v-21.7c0-1.4-1.1-2.5-2.5-2.5h-.4l-13.9 2c-3 .3-5.7-1.9-6-4.9v-.6-.4l-2.6-17.4c-.2-1.2-1.2-2.1-2.5-2.1h-4.9c-2.1 0-3.7-1.7-3.7-3.7 0-.6.2-1.3.5-1.8l10.1-17.9c.4-.5.5-1 .5-1.6v-1.5c0-24.1 19.6-43.7 43.7-43.7 24.6 0 45.4 20 45.4 43.7-.1 13.9-7.8 33-18.7 46.1m8.4-80.8c-9.5-9.1-22.1-14.1-35.2-14.2-26.9 0-48.7 21.9-48.7 48.8v.9l-10 17.6c-2.4 4.2-.9 9.5 3.3 11.9 1.3.7 2.8 1.1 4.3 1.1h2.7l2.2 15.1c.1 5.8 4.8 10.5 10.6 10.4.3 0 .7 0 1-.1h.1l11.1-1.6v21.3c0 1.4 1.1 2.5 2.5 2.5h49.5c1.4 0 2.5-1.1 2.5-2.5v-28c11.3-13.9 19.2-33.8 19.2-48.8 0-13-5.5-25.5-15.1-34.4" fill="#e98024"/></svg>