<svg version="1.1" id="Layer_1" xmlns="http://www.w3.org/2000/svg" x="0" y="0" viewBox="0 0 196.9 196.9" xml:space="preserve"><style>.st0{fill:none}.st1{fill:#e98024}</style><g id="Group_1727" transform="translate(-621.876 -10514.644)"><g id="Ellipse_813"><circle class="st0" cx="98.4" cy="98.4" r="98.4" transform="translate(621.875 10514.644)"/><path class="st1" d="M98.4 196.9C44.2 196.9 0 152.7 0 98.4S44.2 0 98.4 0s98.4 44.2 98.4 98.4-44.1 98.5-98.4 98.5zM98.4 5C46.9 5 5 46.9 5 98.4s41.9 93.4 93.4 93.4 93.4-41.9 93.4-93.4S150 5 98.4 5z" transform="translate(621.875 10514.644)"/></g><path class="st1" d="M659.3 10610.9h122v5h-122z" id="Line_58"/><g id="Ellipse_814"><circle class="st0" cx="19.4" cy="23.5" r="19.2" transform="translate(700.875 10550.62)"/><path class="st1" d="M19.4 42.7C8.8 42.7.2 34.1.2 23.5S8.9 4.3 19.4 4.3c10.6 0 19.2 8.6 19.2 19.2S30 42.7 19.4 42.7zm0-33.4c-7.8 0-14.2 6.4-14.2 14.2s6.4 14.2 14.2 14.2 14.2-6.4 14.2-14.2S27.3 9.3 19.4 9.3z" transform="translate(700.875 10550.62)"/></g><g id="Ellipse_815"><circle class="st0" cx="19.4" cy="20.5" r="19.2" transform="translate(700.875 10631.527)"/><path class="st1" d="M19.4 39.7C8.8 39.7.2 31.1.2 20.5S8.9 1.3 19.4 1.3c10.6 0 19.2 8.6 19.2 19.2S30 39.7 19.4 39.7zm0-33.4c-7.8 0-14.2 6.4-14.2 14.2s6.4 14.2 14.2 14.2 14.2-6.4 14.2-14.2S27.3 6.3 19.4 6.3z" transform="translate(700.875 10631.527)"/></g></g></svg>