<svg width="299" height="197" xmlns="http://www.w3.org/2000/svg"><g fill="none" fill-rule="evenodd"><path fill="#F1F2F2" d="M0 0h299v197H0z"/><path d="M1.993 1.98v193.04h295.014V1.98H1.993zM299 0v197H0V0h299z" fill="#C2C2C2" fill-rule="nonzero"/><path d="M42.857 53.857v18.905h34.428V53.857H42.857zm0-.976h34.428V33h.953v19.881h34.428V33h.953v19.881h34.428V33H149v19.881h34.428V33h.953v19.881h34.428V33h.953v19.881h34.428V33h.953v19.881H291v.976h-35.857v18.905H291v.976h-35.857v18.905H291v.976h-35.857v18.905H291v.976h-35.857v18.905H291v.976h-35.857v18.905H291v.976h-35.857v18.905H291v.976h-35.857V194h-.953v-20.857h-34.428V194h-.953v-20.857H184.38V194h-.953v-20.857H149V194h-.953v-20.857h-34.428V194h-.953v-20.857H78.238V194h-.953v-20.857H42.857V194h-.953v-20.857H7v-.976h34.904v-18.905H7v-.976h34.904v-18.905H7v-.976h34.904V113.5H7v-.976h34.904V93.62H7v-.976h34.904V73.738H7v-.976h34.904V53.857H7v-.976h34.904V33h.953v19.881zm211.333.976h-34.428v18.905h34.428V53.857zm-35.381 0H184.38v18.905h34.428V53.857zm-35.381 0H149v18.905h34.428V53.857zm-35.381 0h-34.428v18.905h34.428V53.857zm-35.38 0h-34.43v18.905h34.428V53.857zm-69.81 19.88v18.906h34.428V73.738H42.857zm211.333 0h-34.428v18.906h34.428V73.738zm-35.381 0H184.38v18.906h34.428V73.738zm-35.381 0H149v18.906h34.428V73.738zm-35.381 0h-34.428v18.906h34.428V73.738zm-35.38 0h-34.43v18.906h34.428V73.738zM42.856 93.62v18.905h34.428V93.62H42.857zm211.333 0h-34.428v18.905h34.428V93.62zm-35.381 0H184.38v18.905h34.428V93.62zm-35.381 0H149v18.905h34.428V93.62zm-35.381 0h-34.428v18.905h34.428V93.62zm-35.38 0H78.237v18.905h34.428V93.62zm-69.81 19.88v18.905h34.428V113.5H42.857zm211.333 0h-34.428v18.905h34.428V113.5zm-35.381 0H184.38v18.905h34.428V113.5zm-35.381 0H149v18.905h34.428V113.5zm-35.381 0h-34.428v18.905h34.428V113.5zm-35.38 0H78.237v18.905h34.428V113.5zm-69.81 19.881v18.905h34.428v-18.905H42.857zm211.333 0h-34.428v18.905h34.428v-18.905zm-35.381 0H184.38v18.905h34.428v-18.905zm-35.381 0H149v18.905h34.428v-18.905zm-35.381 0h-34.428v18.905h34.428v-18.905zm-35.38 0H78.237v18.905h34.428v-18.905zm-69.81 19.881v18.905h34.428v-18.905H42.857zm211.333 0h-34.428v18.905h34.428v-18.905zm-35.381 0H184.38v18.905h34.428v-18.905zm-35.381 0H149v18.905h34.428v-18.905zm-35.381 0h-34.428v18.905h34.428v-18.905zm-35.38 0H78.237v18.905h34.428v-18.905z" fill="#DFDEDE" fill-rule="nonzero"/><path fill="#C2C2C2" d="M5 32h290v2H5z"/><g transform="translate(4 33.912)"><path d="M.9 38.23v-1.133h7.5v1.133H.9zm15 0v-1.133h7.5v1.133h-7.5zm15 0v-1.133h7.5v1.133h-7.5zm15 0v-1.133h7.5v1.133h-7.5zm15 0v-1.133h7.5v1.133h-7.5zm15 0v-1.133h7.5v1.133h-7.5zm15 0v-1.133h7.5v1.133h-7.5zm15 0v-1.133h7.5v1.133h-7.5zm15 0v-1.133h7.5v1.133h-7.5zm15 0v-1.133h7.5v1.133h-7.5zm15 0v-1.133h7.5v1.133h-7.5zm15 0v-1.133h7.5v1.133h-7.5zm15 0v-1.133h7.5v1.133h-7.5zm15 0v-1.133h7.5v1.133h-7.5zm15 0v-1.133h7.5v1.133h-7.5zm15 0v-1.133h7.5v1.133h-7.5zm15 0v-1.133h7.5v1.133h-7.5zm15 0v-1.133h7.5v1.133h-7.5zm15 0v-1.133h7.5v1.133h-7.5zm15 0v-1.133h5.625v1.133H285.9z" fill="#15212D" fill-rule="nonzero"/><path fill="#2A3052" fill-rule="nonzero" d="M237.257.725h1.212V161h-1.212z"/><path d="M.9 130.816v-1.132h7.5v1.132H.9zm15 0v-1.132h7.5v1.132h-7.5zm15 0v-1.132h7.5v1.132h-7.5zm15 0v-1.132h7.5v1.132h-7.5zm15 0v-1.132h7.5v1.132h-7.5zm15 0v-1.132h7.5v1.132h-7.5zm15 0v-1.132h7.5v1.132h-7.5zm15 0v-1.132h7.5v1.132h-7.5zm15 0v-1.132h7.5v1.132h-7.5zm15 0v-1.132h7.5v1.132h-7.5zm15 0v-1.132h7.5v1.132h-7.5zm15 0v-1.132h7.5v1.132h-7.5zm15 0v-1.132h7.5v1.132h-7.5zm15 0v-1.132h7.5v1.132h-7.5zm15 0v-1.132h7.5v1.132h-7.5zm15 0v-1.132h7.5v1.132h-7.5zm15 0v-1.132h7.5v1.132h-7.5zm15 0v-1.132h7.5v1.132h-7.5zm15 0v-1.132h7.5v1.132h-7.5zm15 0v-1.132h5.625v1.132H285.9z" fill="#15212D" fill-rule="nonzero"/><path d="M52.826 68.12l-34.834 15.6a1.816 1.816 0 1 1-1.484-3.315l35.865-16.063a1.817 1.817 0 0 1 1.901.26l24.692 20.466 37.066-78.479c.69-1.458 2.796-1.362 3.35.153l43.42 118.893 26.994-57.545c.138-.294.352-.546.62-.73l46.186-31.54a1.816 1.816 0 1 1 2.048 3.001l-45.775 31.26-28.637 61.048c-.686 1.463-2.797 1.37-3.351-.148L117.46 12.073 81.252 88.736a1.817 1.817 0 0 1-2.802.623l-25.624-21.24z" fill="#2A3052" fill-rule="nonzero"/><ellipse fill="#FFF" opacity=".6" cx="237.863" cy="36.35" rx="8.137" ry="8.475"/><path d="M237.863 46.036c-5.174 0-9.348-4.347-9.348-9.686 0-5.339 4.174-9.686 9.348-9.686s9.348 4.347 9.348 9.686c0 5.339-4.174 9.686-9.348 9.686zm0-2.422c3.814 0 6.926-3.241 6.926-7.264s-3.112-7.264-6.926-7.264-6.926 3.241-6.926 7.264 3.112 7.264 6.926 7.264z" fill="#E88024" fill-rule="nonzero"/><ellipse fill="#FFF" opacity=".6" cx="162.637" cy="130.1" rx="8.137" ry="8.475"/><path d="M162.637 139.786c-5.174 0-9.348-4.347-9.348-9.686 0-5.339 4.174-9.686 9.348-9.686s9.348 4.347 9.348 9.686c0 5.339-4.174 9.686-9.348 9.686zm0-2.422c3.814 0 6.926-3.241 6.926-7.264s-3.112-7.264-6.926-7.264-6.926 3.241-6.926 7.264 3.112 7.264 6.926 7.264z" fill="#E88024" fill-rule="nonzero"/></g><g fill="#2A3052" fill-rule="nonzero"><path d="M12.29 125.307l.09.934a2.038 2.038 0 0 1 1.808-1.025c.663 0 1.176.181 1.537.603.362.392.543.995.543 1.809v3.918h-1.115v-3.888c0-.543-.12-.934-.332-1.176-.21-.24-.542-.331-.964-.331-.332 0-.603.09-.844.241a1.74 1.74 0 0 0-.603.633v4.521h-1.116v-6.209l.995-.03h.001zm-3.948-2.223h1.042v8.234H8.342v-8.234zm18.404 2.17h1.101v6.06h-1.1l-.001-6.06zm.015-2.752v1.092h1.121v-1.092h-1.121zm-8.767 2.761h1.101v6.06h-1.1l-.001-6.06zm.015-2.753v1.093h1.122v-1.093h-1.122z"/><path d="M17.973 125.263h1.101v6.06h-1.1l-.001-6.06zm.015-2.753v1.093h1.122v-1.093h-1.122zm2.611 3.576v-.87h4.635v.734l-3.35 4.542h3.527v.826H20.6v-.705l3.31-4.527h-3.311zm11.545-1.008c1.821 0 2.635 1.329 2.772 2.864.136 1.535-.51 3.378-2.523 3.535-2.014.158-3.021-1.469-3.021-3.184 0-1.716.95-3.215 2.772-3.215zm-.044.876c-.678 0-1.48.408-1.583 2.071-.103 1.664.567 2.578 1.636 2.578 1.07 0 1.634-.971 1.634-2.578 0-1.606-1.009-2.071-1.687-2.071z"/></g><path d="M251.892 55.414l.01.031c.014.755-.231 1.365-.736 1.83-.504.464-1.185.697-2.042.697-.872 0-1.578-.294-2.12-.883-.542-.588-.813-1.34-.813-2.256v-1.425c0-.913.267-1.665.802-2.257.536-.591 1.234-.887 2.095-.887.881 0 1.575.224 2.081.674.506.45.752 1.065.738 1.847l-.01.03h-1.21c0-.5-.135-.883-.406-1.15-.27-.265-.668-.398-1.193-.398-.508 0-.91.202-1.207.605-.297.403-.445.911-.445 1.525v1.436c0 .62.15 1.133.453 1.536.302.403.713.604 1.235.604.51 0 .9-.133 1.165-.4.266-.268.399-.654.399-1.159h1.204zm2.32-2.397a2 2 0 0 1 .677-.608c.266-.144.56-.216.883-.216.59 0 1.05.186 1.381.559.331.372.497.946.497 1.72v3.392h-1.25v-3.402c0-.435-.086-.752-.255-.949-.17-.197-.423-.296-.76-.296-.267 0-.498.047-.694.142a1.26 1.26 0 0 0-.478.393v4.112h-1.25v-8.027h1.25v3.18h-.001zm6.067 4.847h-1.25v-5.568h1.25v5.568zm0-6.931h-1.25v-1.096h1.25v1.096zm4.873 6.107a1.868 1.868 0 0 1-.661.69c-.27.161-.581.242-.934.242-.597 0-1.064-.197-1.4-.59-.336-.392-.504-1.002-.504-1.829v-3.257h1.245v3.268c0 .531.077.896.232 1.093.154.197.394.296.72.296.302 0 .555-.054.759-.162.204-.108.364-.265.481-.471v-4.024h1.25v5.568h-1.075l-.113-.824zm5.624-.7a.576.576 0 0 0-.245-.475c-.163-.126-.47-.238-.923-.337-.656-.134-1.156-.331-1.503-.592-.346-.26-.52-.61-.52-1.05 0-.466.198-.865.592-1.196.395-.331.914-.497 1.56-.497.665 0 1.2.171 1.607.512.407.342.601.752.584 1.233l-.01.03h-1.199a.78.78 0 0 0-.267-.589c-.179-.166-.417-.25-.716-.25-.302 0-.531.07-.69.207a.643.643 0 0 0-.236.504c0 .189.074.34.221.453.148.113.451.214.911.303.683.137 1.197.339 1.544.605.346.266.52.622.52 1.068 0 .5-.207.91-.62 1.227-.414.317-.958.476-1.634.476-.724 0-1.295-.186-1.714-.556-.418-.37-.617-.796-.597-1.276l.01-.031h1.164c.013.322.13.557.35.705.219.147.487.221.802.221.32 0 .567-.063.744-.19a.592.592 0 0 0 .265-.504v-.001zm5.824.7a1.868 1.868 0 0 1-.66.69c-.27.161-.581.242-.935.242-.597 0-1.063-.197-1.4-.59-.336-.392-.504-1.002-.504-1.829v-3.257h1.246v3.268c0 .531.077.896.231 1.093.155.197.395.296.72.296.302 0 .555-.054.76-.162a1.17 1.17 0 0 0 .48-.471v-4.024h1.25v5.568h-1.074l-.114-.824zm5.27-3.617l-.536-.02c-.243 0-.447.051-.61.154a1.017 1.017 0 0 0-.378.437v3.87h-1.25v-5.568h1.142l.082.808c.141-.285.322-.508.543-.669.222-.161.476-.242.764-.242.076 0 .146.006.211.018.066.012.126.027.18.044l-.149 1.168h.001zm4.28 4.44a4.614 4.614 0 0 1-.11-.411 2.943 2.943 0 0 1-.06-.401c-.168.26-.392.479-.674.656a1.734 1.734 0 0 1-.941.265c-.58 0-1.025-.15-1.335-.448-.31-.298-.466-.708-.466-1.23 0-.538.213-.958.638-1.258.425-.3 1.024-.45 1.796-.45h.972v-.489c0-.291-.085-.52-.255-.684-.17-.165-.415-.247-.738-.247-.285 0-.511.068-.68.203a.646.646 0 0 0-.251.527l-1.204.006-.005-.031c-.024-.44.172-.829.589-1.168.417-.34.96-.51 1.628-.51.649 0 1.172.165 1.57.494.398.33.596.803.596 1.42v2.475c0 .23.016.45.047.662.03.21.08.417.149.62h-1.266v-.001zm-1.528-.895c.312 0 .594-.079.846-.236.253-.158.42-.338.502-.54v-.824h-.993c-.364 0-.648.09-.854.27-.206.18-.309.392-.309.636 0 .212.07.381.209.506.139.126.338.188.599.188z" fill="#2A3052" fill-rule="nonzero"/><path d="M22.22 19.204l.014.043c.019 1.097-.315 1.957-1.003 2.579-.688.622-1.637.933-2.848.933-1.234 0-2.23-.397-2.989-1.191-.758-.794-1.138-1.82-1.138-3.077v-2.043c0-1.253.37-2.278 1.11-3.077.74-.798 1.71-1.198 2.911-1.198 1.253 0 2.233.307 2.94.919.706.612 1.05 1.474 1.031 2.586l-.014.043h-2.007c0-.66-.159-1.151-.477-1.474-.318-.322-.809-.484-1.473-.484-.617 0-1.099.249-1.445.746-.346.497-.52 1.139-.52 1.925v2.057c0 .791.183 1.436.548 1.936.365.5.873.749 1.523.749.617 0 1.078-.162 1.382-.484.303-.323.455-.819.455-1.488h2zm3.35-3.271c.24-.349.534-.621.883-.817a2.328 2.328 0 0 1 1.159-.293c.796 0 1.421.265 1.876.795.454.53.682 1.349.682 2.456v4.536h-2.064v-4.55c0-.594-.095-1.014-.286-1.262-.19-.247-.477-.37-.859-.37-.315 0-.59.05-.823.151a1.42 1.42 0 0 0-.569.435v5.596h-2.063V11.587h2.063v4.346h.001zm8.323 6.677H31.83v-7.645h2.063v7.645zm0-9.476H31.83v-1.547h2.063v1.547zm6.381 8.346c-.235.41-.534.725-.897.946-.363.222-.785.333-1.265.333-.806 0-1.436-.274-1.89-.82-.455-.547-.682-1.394-.682-2.544v-4.43h2.056v4.444c0 .67.09 1.127.272 1.375.182.247.463.37.845.37.33 0 .612-.052.848-.158a1.43 1.43 0 0 0 .579-.47v-5.561h2.063v7.645h-1.71l-.219-1.13zm7.618-.99c0-.226-.11-.42-.329-.583-.219-.162-.625-.305-1.219-.427-.895-.18-1.574-.45-2.039-.813-.464-.362-.696-.855-.696-1.477 0-.654.278-1.213.834-1.674.556-.462 1.296-.693 2.22-.693.965 0 1.739.231 2.32.693.582.461.861 1.036.838 1.724l-.014.042h-1.993c0-.306-.1-.556-.297-.749-.198-.193-.483-.29-.855-.29-.33 0-.591.083-.784.248a.77.77 0 0 0-.29.608c0 .235.1.427.3.575.2.149.607.282 1.22.4.937.188 1.635.465 2.094.83.46.365.69.868.69 1.509 0 .687-.295 1.25-.884 1.688-.589.439-1.366.658-2.332.658-1.017 0-1.822-.258-2.413-.774-.591-.516-.873-1.104-.844-1.763l.014-.043h1.886c.015.41.149.707.403.89.255.184.587.276.997.276.381 0 .672-.076.872-.23.2-.152.3-.36.3-.625h.001zm8.013.99c-.236.41-.535.725-.898.946-.362.222-.784.333-1.265.333-.805 0-1.435-.274-1.89-.82-.454-.547-.682-1.394-.682-2.544v-4.43h2.057v4.444c0 .67.09 1.127.272 1.375.181.247.462.37.844.37.33 0 .612-.052.848-.158a1.43 1.43 0 0 0 .58-.47v-5.561h2.063v7.645h-1.71l-.22-1.13h.001zm7.504-4.742l-.756-.021c-.306 0-.558.064-.756.19-.2.13-.358.318-.452.538v5.165h-2.057v-7.645h1.915l.092 1.13c.18-.4.411-.712.696-.936.285-.224.614-.336.986-.336.104 0 .199.008.286.025.087.016.176.036.265.06l-.219 1.83zm5.582 5.872a4.34 4.34 0 0 1-.194-.551 3.834 3.834 0 0 1-.117-.594 2.825 2.825 0 0 1-.84.926c-.35.245-.764.368-1.244.368-.801 0-1.418-.206-1.851-.619-.434-.412-.65-.974-.65-1.685 0-.749.288-1.33.865-1.742.577-.412 1.42-.618 2.526-.618h1.16v-.608c0-.367-.098-.652-.29-.855-.194-.202-.481-.304-.863-.304-.334 0-.592.082-.773.244-.182.163-.273.385-.273.668h-1.985l-.014-.043c-.033-.645.248-1.202.844-1.67.596-.47 1.375-.704 2.336-.704.918 0 1.661.231 2.229.693.568.461.851 1.123.851 1.985v3.159c0 .358.027.695.082 1.01.054.316.14.63.258.94H68.99h.001zm-1.886-1.378c.358 0 .678-.09.96-.268.283-.18.476-.387.58-.622v-1.081h-1.159c-.438 0-.769.108-.993.325a1.07 1.07 0 0 0-.335.798c0 .26.083.466.25.619.168.153.4.23.697.23v-.001zM97.57 22.61a4.34 4.34 0 0 1-.195-.551 3.834 3.834 0 0 1-.116-.594 2.817 2.817 0 0 1-.841.926c-.349.245-.763.368-1.244.368-.8 0-1.418-.206-1.851-.619-.433-.412-.65-.974-.65-1.685 0-.749.288-1.33.866-1.742.577-.412 1.419-.618 2.526-.618h1.159v-.608c0-.367-.097-.652-.29-.855-.193-.202-.48-.304-.862-.304-.335 0-.593.082-.774.244-.181.163-.272.385-.272.668H93.04l-.014-.043c-.033-.645.249-1.202.845-1.67.596-.47 1.374-.704 2.335-.704.919 0 1.662.231 2.23.693.567.461.85 1.123.85 1.985v3.159c0 .358.028.695.082 1.01.054.316.14.63.258.94H97.57zm-1.887-1.378c.358 0 .678-.09.961-.268.283-.18.476-.387.58-.622v-1.081h-1.16c-.437 0-.768.108-.992.325-.22.207-.342.496-.336.798 0 .26.084.466.251.619.167.153.4.23.696.23v-.001zm9.285-.742c0-.226-.11-.42-.328-.583-.22-.162-.626-.305-1.22-.427-.894-.18-1.574-.45-2.038-.813-.464-.362-.696-.855-.696-1.477 0-.654.278-1.213.834-1.674.556-.462 1.295-.693 2.219-.693.965 0 1.739.231 2.32.693.583.461.862 1.036.838 1.724l-.014.042h-1.993c0-.306-.099-.556-.296-.749-.198-.193-.483-.29-.855-.29-.33 0-.592.083-.785.248a.77.77 0 0 0-.29.608c0 .235.1.427.3.575.201.149.607.282 1.22.4.937.188 1.636.465 2.095.83.46.365.689.868.689 1.509 0 .687-.295 1.25-.883 1.688-.59.439-1.367.658-2.332.658-1.018 0-1.822-.258-2.413-.774-.592-.516-.873-1.104-.845-1.763l.014-.043h1.887c.014.41.148.707.403.89.254.184.586.276.996.276.382 0 .673-.076.873-.23.2-.152.3-.36.3-.625zm7.462 0c0-.226-.11-.42-.329-.583-.219-.162-.625-.305-1.218-.427-.896-.18-1.575-.45-2.04-.813-.463-.362-.695-.855-.695-1.477 0-.654.278-1.213.834-1.674.556-.462 1.295-.693 2.219-.693.965 0 1.739.231 2.32.693.583.461.862 1.036.838 1.724l-.014.042h-1.993c0-.306-.099-.556-.296-.749-.198-.193-.483-.29-.855-.29-.33 0-.592.083-.785.248a.77.77 0 0 0-.29.608c0 .235.1.427.3.575.201.149.607.282 1.22.4.937.188 1.636.465 2.095.83.46.365.689.868.689 1.509 0 .687-.295 1.25-.884 1.688-.588.439-1.366.658-2.331.658-1.018 0-1.822-.258-2.413-.774-.592-.516-.873-1.104-.845-1.763l.014-.043h1.887c.014.41.148.707.403.89.254.184.586.276.996.276.382 0 .673-.076.873-.23.2-.152.3-.36.3-.625zm3.01-1.773c0-1.14.318-2.074.954-2.802.636-.728 1.517-1.092 2.643-1.092 1.13 0 2.016.363 2.657 1.088.64.726.96 1.661.96 2.806v.148c0 1.15-.318 2.086-.957 2.809-.638.723-1.52 1.085-2.646 1.085-1.13 0-2.015-.362-2.653-1.085-.639-.723-.958-1.66-.958-2.809v-.148zm2.057.148c0 .697.122 1.257.367 1.678.245.422.64.633 1.187.633.532 0 .922-.212 1.17-.636.247-.424.37-.982.37-1.675v-.148c0-.679-.124-1.232-.374-1.66-.25-.43-.643-.644-1.18-.644-.532 0-.922.216-1.17.647-.247.43-.37.983-.37 1.657v.148zM79.625 20.66h-6.357v-1.651h6.357v1.651z" fill="#020202" fill-rule="nonzero"/><path d="M150.482 184.718v-8.168h2.676c.901 0 1.606.186 2.115.558.508.372.763.928.763 1.669 0 .359-.102.682-.306.97-.214.296-.51.524-.85.657.524.086.927.312 1.21.679.281.366.423.796.423 1.29 0 .767-.25 1.35-.752 1.748-.501.398-1.193.597-2.076.597h-3.203zm1.363-3.714v2.626h1.84c.471 0 .834-.108 1.088-.323.255-.215.382-.526.382-.934 0-.411-.125-.739-.376-.982-.25-.243-.602-.372-1.055-.387h-1.88.001zm0-1.015h1.459c.422 0 .756-.1 1.001-.3.245-.2.367-.484.367-.85 0-.404-.129-.704-.387-.9-.258-.197-.634-.295-1.127-.295h-1.313v2.345zm9.47 4.73a5.031 5.031 0 0 1-.12-.45 3.208 3.208 0 0 1-.065-.437c-.19.29-.44.534-.735.715a1.89 1.89 0 0 1-1.027.289c-.632 0-1.117-.163-1.456-.488-.338-.325-.507-.772-.507-1.34 0-.588.232-1.045.695-1.373.464-.327 1.117-.49 1.958-.49h1.06v-.534c0-.317-.092-.566-.277-.746-.185-.18-.453-.269-.805-.269-.31 0-.557.074-.74.222a.704.704 0 0 0-.276.575l-1.312.005-.006-.033c-.026-.48.188-.904.642-1.274.455-.37 1.047-.555 1.776-.555.707 0 1.277.18 1.711.538.434.36.651.875.651 1.549v2.698c0 .25.017.491.05.721.034.23.088.456.163.676h-1.38v.001zm-1.666-.977c.34 0 .648-.086.923-.258.275-.172.457-.368.547-.59v-.897h-1.083c-.397 0-.707.098-.931.295-.225.196-.337.427-.337.693 0 .232.076.416.227.552.152.137.37.205.654.205zm7.67-.684a.628.628 0 0 0-.267-.52c-.178-.136-.514-.258-1.007-.367-.715-.146-1.26-.36-1.639-.645a1.36 1.36 0 0 1-.566-1.145c0-.508.215-.943.645-1.304.43-.36.997-.541 1.7-.541.725 0 1.31.186 1.753.558.443.372.656.82.637 1.344l-.011.033h-1.308a.85.85 0 0 0-.291-.642c-.195-.182-.455-.272-.78-.272-.33 0-.58.075-.752.224a.701.701 0 0 0-.258.55c0 .206.08.37.241.494.161.123.492.233.993.33.745.15 1.306.37 1.683.66.378.29.567.678.567 1.164 0 .546-.225.992-.676 1.338-.45.346-1.044.519-1.781.519-.79 0-1.412-.202-1.869-.606-.456-.404-.673-.868-.65-1.391l.01-.034h1.269c.015.352.142.608.381.769.24.16.531.241.876.241.347 0 .618-.07.81-.208a.646.646 0 0 0 .29-.55v.001zm5.974 0a.628.628 0 0 0-.266-.52c-.178-.136-.514-.258-1.007-.367-.715-.146-1.26-.36-1.639-.645a1.36 1.36 0 0 1-.566-1.145c0-.508.215-.943.645-1.304.43-.36.997-.541 1.7-.541.725 0 1.31.186 1.753.558.443.372.656.82.637 1.344l-.011.033h-1.308a.85.85 0 0 0-.291-.642c-.195-.182-.455-.272-.78-.272-.33 0-.58.075-.752.224a.701.701 0 0 0-.258.55c0 .206.08.37.241.494.161.123.492.233.993.33.745.15 1.306.37 1.683.66.378.29.567.678.567 1.164 0 .546-.225.992-.676 1.338-.45.346-1.045.519-1.781.519-.79 0-1.412-.202-1.869-.606-.456-.404-.673-.868-.65-1.391l.01-.034h1.269c.015.352.142.608.381.769.24.16.531.241.875.241.348 0 .619-.07.811-.208a.646.646 0 0 0 .29-.55l-.001.001zm2.312-1.431c0-.905.247-1.647.743-2.225.496-.577 1.173-.866 2.034-.866.871 0 1.555.289 2.05.866.496.578.744 1.32.744 2.225v.118c0 .912-.248 1.656-.744 2.23-.495.574-1.175.861-2.04.861-.867 0-1.548-.288-2.044-.864-.496-.576-.743-1.318-.743-2.227v-.118zm1.363.118c0 .594.116 1.077.348 1.447.232.37.59.556 1.077.556.475 0 .831-.186 1.069-.559.237-.372.356-.853.356-1.444v-.118c0-.58-.119-1.058-.356-1.433-.238-.376-.598-.564-1.08-.564-.475 0-.83.188-1.063.564-.234.375-.351.853-.351 1.433v.118z" fill="#2A3052" fill-rule="nonzero"/><path d="M83.981 23V12.336h3.494c1.255 0 2.234.245 2.937.736.703.49 1.055 1.22 1.055 2.186 0 .489-.127.926-.381 1.311-.254.386-.625.677-1.113.872.664.122 1.164.41 1.501.864.337.454.505.984.505 1.59 0 1.02-.336 1.793-1.01 2.318-.674.525-1.629.787-2.864.787h-4.124zm2.14-4.717v3.076h1.984c.566 0 .999-.123 1.296-.37.298-.246.447-.611.447-1.094 0-.518-.146-.916-.44-1.194-.292-.279-.734-.418-1.325-.418H86.12h.001zm0-1.48h1.427c.572 0 1.011-.116 1.319-.35.307-.235.461-.577.461-1.026 0-.493-.155-.857-.465-1.092-.31-.234-.773-.351-1.388-.351H86.12v2.82l.001-.001z" fill="#000" fill-rule="nonzero"/></g></svg>