<svg width="299" height="197" xmlns="http://www.w3.org/2000/svg"><g fill="none" fill-rule="evenodd"><path fill="#F1F2F2" d="M0 0h299v197H0z"/><path d="M1.987 1.98v193.04h295.026V1.98H1.987zM299 0v197H0V0h299z" fill="#C2C2C2" fill-rule="nonzero"/><path d="M2.926 53.113V51.89H296.51v1.223H2.926zm0 20.598v-1.223H296.51v1.223H2.926zm0 20.56v-1.224H296.51v1.224H2.926zm0 41.157v-1.223H296.51v1.223H2.926zm0 20.56v-1.223H296.51v1.223H2.926zm0 20.56v-1.223H296.51v1.223H2.926zM37.772 31.942h1.223v162.126h-1.223V31.942zm37.162 0h1.223v162.126h-1.223V31.942zm37.124 0h1.223v162.126h-1.223V31.942zm37.162 0h1.223v162.126h-1.223V31.942zm37.124 0h1.223v162.126h-1.223V31.942zm37.124 0h1.224v162.126h-1.224V31.942zm37.162 0h1.224v162.126h-1.224V31.942z" fill="#DFDEDE" fill-rule="nonzero"/><path fill="#C2C2C2" d="M1 30v-2h296v2z"/><path d="M188.522 145.307h-35.42L147.649 137l-5.455 8.307h-35.42c-2.652 0-4.773 2.163-4.773 4.856v25.074c0 2.693 2.16 4.855 4.773 4.855h81.787c2.652 0 4.773-2.162 4.773-4.855v-25.074c0-2.693-2.16-4.856-4.811-4.856z" fill="#E88024"/><path d="M16 19.664V9h3.735c1.294 0 2.276.248 2.945.743.669.496 1.003 1.222 1.003 2.18 0 .522-.134.982-.403 1.38-.268.398-.642.69-1.12.875.547.137.977.413 1.292.828.315.415.473.923.473 1.523 0 1.026-.327 1.802-.982 2.33-.654.527-1.587.795-2.797.805H16zm2.197-4.643v2.878h1.883c.517 0 .921-.123 1.212-.37.29-.247.436-.587.436-1.022 0-.976-.506-1.472-1.517-1.486h-2.014zm0-1.553h1.626c1.109-.02 1.663-.462 1.663-1.326 0-.483-.14-.831-.421-1.044-.281-.212-.724-.318-1.33-.318h-1.538v2.688zm11.829 6.196a2.35 2.35 0 0 1-.213-.71c-.512.57-1.179.857-1.999.857-.776 0-1.42-.225-1.93-.674a2.167 2.167 0 0 1-.765-1.7c0-.84.31-1.484.933-1.933.623-.45 1.523-.676 2.7-.681h.974v-.454c0-.367-.094-.66-.282-.88-.188-.219-.485-.329-.89-.329-.357 0-.636.086-.839.257-.203.17-.304.405-.304.703h-2.117c0-.46.142-.884.425-1.275.283-.39.684-.697 1.201-.919.518-.222 1.099-.333 1.744-.333.976 0 1.751.245 2.325.736.574.49.86 1.18.86 2.069v3.435c.005.752.11 1.32.316 1.707v.124h-2.14zm-1.75-1.472c.312 0 .6-.07.864-.209.263-.139.459-.326.586-.56V16.06h-.791c-1.06 0-1.624.366-1.692 1.098l-.008.125c0 .263.093.48.279.652.185.17.44.256.761.256zm9.492-.718c0-.259-.129-.463-.385-.611-.256-.15-.668-.282-1.234-.4-1.885-.395-2.827-1.196-2.827-2.402 0-.703.292-1.29.875-1.761.584-.472 1.346-.707 2.289-.707 1.006 0 1.81.237 2.413.71.603.474.905 1.09.905 1.846h-2.117c0-.303-.098-.553-.293-.75-.195-.199-.5-.297-.915-.297-.357 0-.633.08-.828.241a.763.763 0 0 0-.293.615c0 .235.111.424.333.568.222.144.597.269 1.124.374.528.105.972.223 1.333.355 1.119.41 1.678 1.12 1.678 2.131 0 .723-.31 1.308-.93 1.754-.62.447-1.421.67-2.403.67-.664 0-1.253-.118-1.769-.355-.515-.236-.919-.561-1.212-.974a2.263 2.263 0 0 1-.44-1.336h2.008c.02.376.158.664.417.864.259.2.606.3 1.04.3.405 0 .712-.077.92-.23a.718.718 0 0 0 .31-.605zm7.712 0c0-.259-.128-.463-.385-.611-.256-.15-.667-.282-1.234-.4-1.884-.395-2.827-1.196-2.827-2.402 0-.703.292-1.29.875-1.761.584-.472 1.347-.707 2.29-.707 1.005 0 1.81.237 2.413.71.603.474.904 1.09.904 1.846H45.4c0-.303-.097-.553-.293-.75-.195-.199-.5-.297-.915-.297-.357 0-.632.08-.828.241a.763.763 0 0 0-.293.615c0 .235.111.424.334.568.222.144.596.269 1.124.374.527.105.972.223 1.333.355 1.118.41 1.677 1.12 1.677 2.131 0 .723-.31 1.308-.93 1.754-.62.447-1.421.67-2.402.67-.664 0-1.254-.118-1.77-.355-.514-.236-.918-.561-1.211-.974a2.263 2.263 0 0 1-.44-1.336h2.007c.02.376.159.664.417.864.26.2.606.3 1.04.3.406 0 .712-.077.92-.23a.718.718 0 0 0 .311-.605zm3.09-1.846c0-.786.152-1.486.455-2.102a3.324 3.324 0 0 1 1.307-1.428c.57-.337 1.23-.505 1.981-.505 1.07 0 1.943.327 2.619.981.676.655 1.053 1.543 1.131 2.666l.015.542c0 1.216-.34 2.191-1.018 2.926-.679.735-1.59 1.103-2.732 1.103-1.142 0-2.054-.367-2.735-1.1-.682-.732-1.022-1.728-1.022-2.987v-.096zm2.117.154c0 .752.142 1.327.425 1.725.284.398.689.597 1.216.597.513 0 .913-.197 1.201-.59.288-.393.432-1.021.432-1.886 0-.737-.144-1.308-.432-1.713-.288-.406-.693-.608-1.216-.608-.517 0-.917.201-1.2.604-.284.403-.425 1.026-.425 1.871z" fill="#000" fill-rule="nonzero"/><g transform="translate(5 91)"><path fill="#2A3052" d="M.262 25.411v-1.485h288.35v1.485z"/><path d="M70.147 50.429a1.818 1.818 0 0 1-2.43.253L34.255 26.135a1.818 1.818 0 1 1 2.15-2.932l32.134 23.572 33.52-37.454a1.818 1.818 0 0 1 2.69-.02l31.776 34.444 43.18-42.625a1.818 1.818 0 0 1 2.914.506l42.02 87.307 28.114-24.84a1.818 1.818 0 1 1 2.407 2.725l-29.915 26.43a1.818 1.818 0 0 1-2.841-.574L180.446 5.495 137.74 47.653a1.818 1.818 0 0 1-2.613-.06l-31.694-34.357L70.147 50.43z" fill="#2A3052"/><ellipse fill="#FFF" opacity=".6" cx="35.33" cy="24.669" rx="8.067" ry="8.496"/><path d="M35.33 34.376c-5.14 0-9.28-4.36-9.28-9.707 0-5.348 4.14-9.708 9.28-9.708 5.139 0 9.279 4.36 9.279 9.708s-4.14 9.707-9.28 9.707zm0-2.423c3.771 0 6.855-3.248 6.855-7.284 0-4.037-3.084-7.284-6.855-7.284-3.772 0-6.856 3.247-6.856 7.284 0 4.036 3.084 7.284 6.856 7.284z" fill="#E88024" fill-rule="nonzero"/><ellipse fill="#FFF" opacity=".6" cx="253.956" cy="64.855" rx="8.067" ry="8.496"/><path d="M253.956 74.563c-5.14 0-9.28-4.36-9.28-9.707 0-5.348 4.14-9.708 9.28-9.708 5.139 0 9.279 4.36 9.279 9.708s-4.14 9.707-9.28 9.707zm0-2.423c3.771 0 6.855-3.248 6.855-7.284 0-4.037-3.084-7.284-6.855-7.284-3.772 0-6.856 3.247-6.856 7.284 0 4.036 3.084 7.284 6.856 7.284z" fill="#E88024" fill-rule="nonzero"/></g><path d="M121.258 166.616c-.386.503-.92.884-1.604 1.142-.684.26-1.46.388-2.33.388-.893 0-1.684-.202-2.372-.607a4.05 4.05 0 0 1-1.593-1.74c-.374-.754-.568-1.634-.583-2.64v-.835c0-1.612.386-2.87 1.158-3.776.771-.906 1.848-1.359 3.23-1.359 1.186 0 2.128.293 2.827.88.698.585 1.118 1.43 1.26 2.534h-1.817c-.205-1.285-.95-1.927-2.234-1.927-.83 0-1.461.3-1.893.897-.432.599-.656 1.476-.67 2.634v.82c0 1.152.243 2.047.728 2.684.486.637 1.161.956 2.026.956.947 0 1.62-.215 2.021-.645v-2.087h-2.197v-1.406h4.043v4.087zm6.665.608c-.523.615-1.265.922-2.227.922-.86 0-1.51-.251-1.952-.754-.442-.503-.662-1.23-.662-2.183v-5.134h1.78v5.113c0 1.005.417 1.508 1.252 1.508.864 0 1.448-.31 1.75-.93v-5.69h1.78V168h-1.677l-.044-.776zm8.269.776c-.078-.151-.147-.398-.205-.74a2.77 2.77 0 0 1-2.08.886c-.796 0-1.446-.227-1.949-.68a2.18 2.18 0 0 1-.754-1.685c0-.845.314-1.493.941-1.945.628-.451 1.525-.677 2.692-.677h1.091v-.52c0-.41-.115-.739-.344-.985-.23-.247-.579-.37-1.047-.37-.406 0-.738.101-.996.304a.94.94 0 0 0-.389.772h-1.78c0-.434.145-.84.433-1.22.288-.378.68-.674 1.175-.889a4.13 4.13 0 0 1 1.66-.322c.927 0 1.667.233 2.218.7.552.465.835 1.121.85 1.966v3.574c0 .713.1 1.282.3 1.706V168h-1.816zm-1.956-1.282c.352 0 .683-.085.993-.256.31-.171.543-.4.7-.689v-1.494h-.96c-.66 0-1.155.115-1.487.345-.332.229-.498.554-.498.974 0 .341.113.614.34.816.228.203.531.304.912.304zm5.003-2.739c0-1.22.283-2.2.85-2.94.566-.74 1.325-1.11 2.277-1.11.84 0 1.519.293 2.036.879v-4.058h1.78V168h-1.611l-.088-.82c-.532.644-1.243.966-2.131.966-.928 0-1.679-.373-2.253-1.12-.573-.747-.86-1.763-.86-3.047zm1.78.154c0 .805.155 1.434.465 1.886.31.451.75.677 1.322.677.727 0 1.26-.324 1.596-.974v-3.384c-.327-.634-.854-.952-1.582-.952-.576 0-1.02.228-1.333.685-.312.457-.468 1.144-.468 2.062zM152.774 168c-.078-.151-.147-.398-.205-.74a2.77 2.77 0 0 1-2.08.886c-.796 0-1.446-.227-1.948-.68a2.18 2.18 0 0 1-.755-1.685c0-.845.314-1.493.941-1.945.628-.451 1.525-.677 2.692-.677h1.091v-.52c0-.41-.114-.739-.344-.985-.23-.247-.579-.37-1.047-.37-.406 0-.738.101-.996.304a.94.94 0 0 0-.389.772h-1.78c0-.434.145-.84.433-1.22.288-.378.68-.674 1.175-.889a4.13 4.13 0 0 1 1.66-.322c.927 0 1.667.233 2.218.7.552.465.835 1.121.85 1.966v3.574c0 .713.1 1.282.3 1.706V168h-1.816zm-1.956-1.282c.352 0 .683-.085.993-.256.31-.171.543-.4.7-.689v-1.494h-.96c-.66 0-1.155.115-1.487.345-.332.229-.498.554-.498.974 0 .341.113.614.34.816.228.203.531.304.912.304zm5.025-2.739c0-1.23.29-2.213.868-2.948.578-.735 1.346-1.102 2.303-1.102.903 0 1.614.315 2.132.945l.08-.799h1.604v7.683c0 1.04-.323 1.86-.97 2.461-.647.6-1.52.901-2.619.901a4.22 4.22 0 0 1-1.703-.362c-.554-.242-.975-.558-1.263-.949l.842-1.07c.547.65 1.22.975 2.022.975.59 0 1.057-.16 1.399-.48.341-.32.512-.79.512-1.41v-.534c-.512.57-1.196.856-2.05.856-.928 0-1.686-.368-2.275-1.105-.588-.738-.882-1.758-.882-3.062zm1.772.154c0 .796.163 1.422.487 1.878.325.457.775.685 1.352.685.717 0 1.25-.307 1.596-.923v-3.486c-.337-.6-.864-.9-1.582-.9-.586 0-1.041.231-1.366.695-.324.464-.487 1.147-.487 2.05zm8.694-4.058l.051.916c.586-.708 1.355-1.062 2.307-1.062 1.65 0 2.49.945 2.52 2.834V168h-1.78v-5.134c0-.503-.108-.876-.326-1.117-.217-.242-.572-.363-1.065-.363-.718 0-1.253.325-1.604.974V168h-1.78v-7.925h1.677zM177.735 168c-.078-.151-.147-.398-.205-.74a2.77 2.77 0 0 1-2.08.886c-.796 0-1.446-.227-1.949-.68a2.18 2.18 0 0 1-.754-1.685c0-.845.314-1.493.941-1.945.628-.451 1.525-.677 2.692-.677h1.091v-.52c0-.41-.115-.739-.344-.985-.23-.247-.579-.37-1.047-.37-.406 0-.738.101-.997.304a.94.94 0 0 0-.388.772h-1.78c0-.434.145-.84.433-1.22.288-.378.68-.674 1.175-.889a4.13 4.13 0 0 1 1.66-.322c.927 0 1.667.233 2.218.7.552.465.835 1.121.85 1.966v3.574c0 .713.1 1.282.3 1.706V168h-1.816zm-1.956-1.282c.352 0 .683-.085.993-.256.31-.171.543-.4.7-.689v-1.494h-.96c-.66 0-1.155.115-1.487.345-.332.229-.498.554-.498.974 0 .341.113.614.34.816.227.203.531.304.912.304zm7.222-1.86h-1.53l-.17-7.522h1.876l-.176 7.522zm-1.75 2.3c0-.279.09-.51.27-.692.181-.184.428-.275.74-.275.313 0 .56.091.74.275.18.183.271.413.271.692a.928.928 0 0 1-.264.674c-.175.18-.425.27-.747.27s-.571-.09-.747-.27a.928.928 0 0 1-.264-.674z" fill="#FFF"/><path d="M250.56 125.133h-2.577l-1.553 7.814h-1.136l1.553-7.814h-2.538l.19-.948h6.25l-.19.948zm2.462 7.852v-.493c0-.114.038-.265.038-.38a3.319 3.319 0 0 1-.91.722 2.12 2.12 0 0 1-1.022.303c-.569 0-1.023-.19-1.288-.531-.266-.341-.341-.835-.228-1.442.114-.644.455-1.175.947-1.479.53-.341 1.175-.493 1.97-.493h1.099l.113-.645c.076-.417.038-.72-.113-.91-.152-.19-.455-.304-.834-.304-.34 0-.644.114-.909.304s-.416.417-.492.682h-1.099v-.037c.076-.494.379-.949.871-1.328.53-.38 1.137-.57 1.857-.57.644 0 1.136.19 1.515.57.379.38.492.91.34 1.593l-.605 3.149-.114.682a1.844 1.844 0 0 0 0 .645h-1.136v-.038zm-1.516-.872c.303 0 .644-.076.985-.266.341-.19.606-.417.758-.683l.227-1.213h-1.136a1.58 1.58 0 0 0-1.06.379c-.304.265-.493.531-.57.834-.075.304-.037.532.077.721.113.19.378.228.72.228zm8.145-4.59l-.644-.038c-.258 0-.509.08-.72.228a1.593 1.593 0 0 0-.568.644l-.91 4.628h-1.136l1.288-6.524h1.023l-.076.872a2.28 2.28 0 0 1 .758-.72 1.82 1.82 0 0 1 .91-.266c.075 0 .15 0 .264.038a.509.509 0 0 0 .19.038l-.379 1.1zm.34 2.2c.228-1.1.57-1.973 1.062-2.542.492-.569 1.098-.834 1.856-.834.34 0 .682.076.947.228.265.151.492.379.682.682l.265-.796h.985l-1.25 6.41c-.19.91-.53 1.594-1.061 2.049-.53.455-1.25.683-2.083.683a2.844 2.844 0 0 1-.91-.152 2.4 2.4 0 0 1-.833-.341l.455-.91c.151.113.378.227.644.303.265.075.53.113.795.113.493 0 .871-.151 1.174-.455.332-.346.556-.78.644-1.252l.076-.455c-.432.43-1.02.662-1.629.645-.682 0-1.212-.303-1.553-.948a3.338 3.338 0 0 1-.265-2.314v-.114zm1.137.114c-.151.683-.113 1.252.076 1.669.19.417.568.645 1.099.645.265 0 .53-.076.757-.228.228-.152.455-.38.644-.683l.606-3.034a1.635 1.635 0 0 0-.492-.645 1.317 1.317 0 0 0-.796-.228c-.492 0-.87.228-1.174.645a4.314 4.314 0 0 0-.682 1.745l-.038.114zm7.539 3.262c-.796 0-1.402-.303-1.818-.91-.417-.607-.53-1.404-.38-2.352l.039-.266c.151-.948.53-1.745 1.136-2.352.606-.607 1.25-.91 1.932-.91.796 0 1.364.266 1.705.797.34.53.454 1.251.303 2.124l-.114.759h-3.902c-.076.644-.038 1.175.19 1.593.227.379.568.569 1.06.569a2.843 2.843 0 0 0 1.78-.645l.342.759c-.228.227-.568.417-.91.569-.416.19-.87.265-1.363.265zm.72-5.804c-.341 0-.644.152-.947.493-.304.342-.53.76-.682 1.252v.038h2.651l.038-.152c.076-.493.038-.872-.151-1.176-.19-.303-.455-.455-.91-.455zm5.871-2.39l-.303 1.556h1.099l-.19.872h-1.098l-.796 3.945c-.075.304-.075.531.038.645.076.114.227.152.417.152.076 0 .19 0 .34-.038a.713.713 0 0 0 .304-.076v.797c-.114.076-.265.113-.493.19-.227.037-.416.075-.644.075-.416 0-.72-.152-.947-.455-.227-.303-.265-.759-.151-1.366l.795-3.945h-.947l.19-.872h.947l.303-1.555h1.136v.075z" fill="#6D6E71" fill-rule="nonzero"/><path d="M21.747 145H20.34v-10.664h1.407V145zm3.64-7.925l.044.996c.605-.761 1.396-1.142 2.373-1.142 1.675 0 2.52.945 2.534 2.834V145h-1.355v-5.244c-.005-.571-.136-.994-.392-1.267-.256-.274-.655-.41-1.197-.41-.44 0-.826.117-1.158.351-.332.235-.59.542-.776.923V145h-1.355v-7.925h1.282zM33.854 145h-1.355v-7.925h1.355V145zm-1.465-10.027c0-.22.067-.405.201-.556.134-.152.333-.228.597-.228.264 0 .464.076.6.228a.8.8 0 0 1 .206.556.78.78 0 0 1-.205.55c-.137.146-.337.22-.601.22-.264 0-.463-.074-.597-.22a.782.782 0 0 1-.201-.55zm4.907 8.921h4.636V145h-6.291v-.996l4.372-5.808h-4.306v-1.12h6.005v.959l-4.416 5.859zM44.928 145h-1.355v-7.925h1.355V145zm-1.465-10.027c0-.22.067-.405.201-.556.135-.152.334-.228.597-.228.264 0 .464.076.6.228a.8.8 0 0 1 .206.556c0 .22-.068.403-.205.55-.137.146-.337.22-.6.22-.264 0-.463-.074-.598-.22a.782.782 0 0 1-.201-.55zm3.274 5.991c0-.776.152-1.474.458-2.094.305-.62.73-1.099 1.274-1.436.544-.337 1.166-.505 1.864-.505 1.08 0 1.952.373 2.618 1.12.667.747 1 1.741 1 2.981v.095c0 .772-.148 1.464-.443 2.077a3.365 3.365 0 0 1-1.267 1.432c-.55.342-1.18.512-1.893.512-1.075 0-1.945-.373-2.611-1.12-.667-.747-1-1.736-1-2.966v-.096zm1.362.161c0 .88.204 1.585.612 2.117.407.532.953.799 1.637.799.688 0 1.235-.27 1.64-.81.406-.54.608-1.295.608-2.267 0-.869-.206-1.573-.619-2.113-.412-.54-.96-.809-1.644-.809-.669 0-1.208.266-1.619.798-.41.533-.615 1.294-.615 2.285zM255.12 181.29h-4.476V186h-1.406v-10.664h6.606v1.157h-5.2v3.648h4.475v1.15zm3.669 4.71h-1.355v-7.925h1.355V186zm-1.465-10.027c0-.22.067-.405.201-.556.134-.152.333-.228.597-.228.264 0 .464.076.6.228a.8.8 0 0 1 .206.556.78.78 0 0 1-.205.55c-.137.146-.337.22-.6.22-.265 0-.464-.074-.598-.22a.782.782 0 0 1-.201-.55zm4.914 2.102l.044.996c.606-.761 1.397-1.142 2.373-1.142 1.675 0 2.52.945 2.534 2.834V186h-1.355v-5.244c-.004-.571-.135-.994-.391-1.267-.257-.274-.656-.41-1.198-.41-.44 0-.825.117-1.157.351-.332.235-.59.542-.776.923V186h-1.355v-7.925h1.281zm10.283 8.071c-1.074 0-1.948-.352-2.622-1.058-.673-.705-1.01-1.649-1.01-2.83v-.25c0-.786.15-1.488.45-2.105.3-.618.72-1.101 1.26-1.45a3.167 3.167 0 0 1 1.754-.524c1.03 0 1.831.34 2.402 1.018.572.678.857 1.65.857 2.915v.564h-5.368c.02.781.247 1.412.684 1.893.437.481.993.722 1.667.722.478 0 .884-.098 1.216-.293a3.07 3.07 0 0 0 .871-.777l.828.645c-.664 1.02-1.66 1.53-2.989 1.53zm-.168-7.104c-.547 0-1.006.199-1.377.597-.371.398-.6.956-.688 1.673h3.97v-.102c-.04-.689-.225-1.222-.557-1.6-.332-.379-.782-.568-1.348-.568z" fill="#2A3052"/></g></svg>