<svg width="299" height="197" xmlns="http://www.w3.org/2000/svg"><g fill="none" fill-rule="evenodd"><path fill="#F1F2F2" d="M0 0h299v197H0z"/><path d="M1.993 1.98v193.04h295.014V1.98H1.993zM299 0v197H0V0h299z" fill="#C2C2C2" fill-rule="nonzero"/><path d="M41.615 54.857v18.905H76.77V54.857H41.615zm0-.976H76.77V34h.973v19.881h35.155V34h.974v19.881h35.155V34H150v19.881h35.155V34h.973v19.881h35.156V34h.973v19.881h35.155V34h.973v19.881H295v.976h-36.615v18.905H295v.976h-36.615v18.905H295v.976h-36.615v18.905H295v.976h-36.615v18.905H295v.976h-36.615v18.905H295v.976h-36.615v18.905H295v.976h-36.615V195h-.973v-20.857h-35.155V195h-.973v-20.857h-35.156V195h-.973v-20.857H150V195h-.973v-20.857h-35.155V195h-.974v-20.857H77.743V195h-.973v-20.857H41.615V195h-.973v-20.857H5v-.976h35.642v-18.905H5v-.976h35.642v-18.905H5v-.976h35.642V114.5H5v-.976h35.642V94.62H5v-.976h35.642V74.738H5v-.976h35.642V54.857H5v-.976h35.642V34h.973v19.881zm215.797.976h-35.155v18.905h35.155V54.857zm-36.128 0h-35.156v18.905h35.156V54.857zm-36.129 0H150v18.905h35.155V54.857zm-36.128 0h-35.155v18.905h35.155V54.857zm-36.129 0H77.743v18.905h35.155V54.857zm-71.283 19.88v18.906H76.77V74.738H41.615zm215.797 0h-35.155v18.906h35.155V74.738zm-36.128 0h-35.156v18.906h35.156V74.738zm-36.129 0H150v18.906h35.155V74.738zm-36.128 0h-35.155v18.906h35.155V74.738zm-36.129 0H77.743v18.906h35.155V74.738zM41.615 94.62v18.905H76.77V94.62H41.615zm215.797 0h-35.155v18.905h35.155V94.62zm-36.128 0h-35.156v18.905h35.156V94.62zm-36.129 0H150v18.905h35.155V94.62zm-36.128 0h-35.155v18.905h35.155V94.62zm-36.129 0H77.743v18.905h35.155V94.62zM41.615 114.5v18.905H76.77V114.5H41.615zm215.797 0h-35.155v18.905h35.155V114.5zm-36.128 0h-35.156v18.905h35.156V114.5zm-36.129 0H150v18.905h35.155V114.5zm-36.128 0h-35.155v18.905h35.155V114.5zm-36.129 0H77.743v18.905h35.155V114.5zm-71.283 19.881v18.905H76.77v-18.905H41.615zm215.797 0h-35.155v18.905h35.155v-18.905zm-36.128 0h-35.156v18.905h35.156v-18.905zm-36.129 0H150v18.905h35.155v-18.905zm-36.128 0h-35.155v18.905h35.155v-18.905zm-36.129 0H77.743v18.905h35.155v-18.905zm-71.283 19.881v18.905H76.77v-18.905H41.615zm215.797 0h-35.155v18.905h35.155v-18.905zm-36.128 0h-35.156v18.905h35.156v-18.905zm-36.129 0H150v18.905h35.155v-18.905zm-36.128 0h-35.155v18.905h35.155v-18.905zm-36.129 0H77.743v18.905h35.155v-18.905z" fill="#DFDEDE" fill-rule="nonzero"/><path fill="#C2C2C2" d="M1 28h297v2H1z"/><g transform="translate(2 8.368)"><path d="M.62 85.835v-1.214h3.608v1.215H.62zm7.216 0v-1.214h3.608v1.215H7.836zm7.216 0v-1.214h3.608v1.215h-3.608zm7.216 0v-1.214h3.608v1.215h-3.608zm7.216 0v-1.214h3.608v1.215h-3.608zm7.216 0v-1.214h3.608v1.215H36.7zm7.216 0v-1.214h3.608v1.215h-3.608zm7.216 0v-1.214h3.608v1.215h-3.608zm7.216 0v-1.214h3.608v1.215h-3.608zm7.216 0v-1.214h3.608v1.215h-3.608zm7.216 0v-1.214h3.608v1.215H72.78zm7.216 0v-1.214h3.608v1.215h-3.608zm7.216 0v-1.214h3.608v1.215h-3.608zm7.216 0v-1.214h3.608v1.215h-3.608zm7.216 0v-1.214h3.608v1.215h-3.608zm7.216 0v-1.214h3.608v1.215h-3.608zm7.216 0v-1.214h3.608v1.215h-3.608zm7.216 0v-1.214h3.608v1.215h-3.608zm7.216 0v-1.214h3.608v1.215h-3.608zm7.216 0v-1.214h3.608v1.215h-3.608zm7.216 0v-1.214h3.608v1.215h-3.608zm7.216 0v-1.214h3.608v1.215h-3.608zm7.216 0v-1.214h3.608v1.215h-3.608zm7.216 0v-1.214h3.608v1.215h-3.608zm7.216 0v-1.214h3.608v1.215h-3.608zm7.216 0v-1.214h3.608v1.215h-3.608zm7.216 0v-1.214h3.608v1.215h-3.608zm7.216 0v-1.214h3.608v1.215h-3.608zm7.216 0v-1.214h3.608v1.215h-3.608zm7.216 0v-1.214h3.608v1.215h-3.608zm7.216 0v-1.214h3.608v1.215H217.1zm7.216 0v-1.214h3.608v1.215h-3.608zm7.216 0v-1.214h3.608v1.215h-3.608zm7.216 0v-1.214h3.608v1.215h-3.608zm7.216 0v-1.214h3.608v1.215h-3.608zm7.216 0v-1.214h3.608v1.215h-3.608zm7.216 0v-1.214h3.608v1.215h-3.608zm7.216 0v-1.214h3.608v1.215h-3.608zm7.216 0v-1.214h3.608v1.215h-3.608zm7.216 0v-1.214h3.608v1.215h-3.608zm7.216 0v-1.214h3.608v1.215h-3.608z" fill="#293052" fill-rule="nonzero"/><path d="M72.946 72.17l-35.624 34.99a1.804 1.804 0 0 1-2.528-2.574l37.12-36.46a1.804 1.804 0 0 1 2.725.229l36.025 49.748 35.532-27.753a1.804 1.804 0 0 1 2.341.104l36.237 33.85 73.094-40.653a1.804 1.804 0 1 1 1.754 3.154l-74.242 41.29a1.804 1.804 0 0 1-2.108-.258l-36.07-33.694-35.792 27.955a1.804 1.804 0 0 1-2.571-.364L72.946 72.17z" fill="#293052"/><path d="M182.514 137.297h-35.4L141.532 129l-5.352 8.297h-35.4c-2.64 0-4.78 2.18-4.78 4.87v25.202c0 2.69 2.14 4.87 4.78 4.87h81.734c1.292.03 2.54-.47 3.454-1.385a4.915 4.915 0 0 0 1.44-3.485v-25.164a4.916 4.916 0 0 0-1.427-3.51 4.731 4.731 0 0 0-3.467-1.398z" fill="#E88024"/><ellipse fill="#FFF" opacity=".6" cx="258.745" cy="86.396" rx="8.219" ry="8.609"/><path d="M258.745 96.221c-5.223 0-9.434-4.41-9.434-9.824 0-5.413 4.21-9.824 9.434-9.824 5.223 0 9.434 4.41 9.434 9.824 0 5.413-4.21 9.824-9.434 9.824zm0-2.43c3.855 0 7.004-3.298 7.004-7.394s-3.149-7.394-7.004-7.394c-3.855 0-7.004 3.298-7.004 7.394s3.149 7.394 7.004 7.394z" fill="#E88024" fill-rule="nonzero"/><ellipse fill="#FFF" opacity=".6" cx="36.058" cy="105.873" rx="8.219" ry="8.609"/><path d="M36.058 115.697c-5.223 0-9.434-4.41-9.434-9.824 0-5.413 4.21-9.824 9.434-9.824 5.223 0 9.434 4.41 9.434 9.824 0 5.413-4.21 9.824-9.434 9.824zm0-2.43c3.855 0 7.004-3.298 7.004-7.394s-3.149-7.394-7.004-7.394c-3.855 0-7.004 3.298-7.004 7.394s3.149 7.394 7.004 7.394z" fill="#E88024" fill-rule="nonzero"/><path fill="#E88024" d="M246.053 55.818h25.346v16.984h-25.346z"/><path fill="#E88024" d="M256.263 72.757l2.406-2.406 2.451 2.452-2.406 2.406z"/><path d="M261.077 66.18h1.414v1.13h-1.414v2.414h-1.3V67.31h-4.74v-.818l4.74-7.323h1.491v7.012h-.191v-.001zm-4.55 0h3.25v-4.947.35l-3.25 4.597z" fill="#FFF" fill-rule="nonzero"/><path fill="#D5D3DA" d="M134.728 69.413h25.347v16.984h-25.347z"/><path fill="#D5D3DA" d="M144.965 86.347l2.406-2.406 2.451 2.452-2.406 2.406z"/><path d="M146.044 77.36h1.224a1.63 1.63 0 0 0 1.3-.468c.275-.382.41-.851.382-1.325a1.931 1.931 0 0 0-.459-1.363 1.701 1.701 0 0 0-1.3-.467 1.778 1.778 0 0 0-1.3.506 1.77 1.77 0 0 0-.497 1.286h-1.3c-.02-.82.35-1.6.995-2.104a3.767 3.767 0 0 1 4.625 0c.586.58.893 1.39.841 2.22a2.53 2.53 0 0 1-1.567 2.299 2.296 2.296 0 0 1 1.338.973c.256.45.388.961.382 1.48a2.87 2.87 0 0 1-.917 2.26 3.438 3.438 0 0 1-2.37.818 3.512 3.512 0 0 1-2.332-.78 2.51 2.51 0 0 1-1.07-2.258h1.375c-.024.493.156.974.497 1.324.375.348.87.53 1.377.506.52.03 1.03-.153 1.414-.506.313-.366.477-.84.459-1.324a1.656 1.656 0 0 0-.443-1.458 1.587 1.587 0 0 0-1.43-.451h-1.224v-1.169.001z" fill="#293052"/><path fill="#D5D3DA" d="M23.366 74.788h25.346v16.984H23.366z"/><path fill="#D5D3DA" d="M33.623 91.766l2.406-2.406 2.451 2.451-2.406 2.406z"/><path fill="#293052" d="M36.784 88.695h-1.376V79.54h-2.14v-1.013l3.516-.39z"/><path d="M115.258 157.616c-.386.503-.92.884-1.604 1.142-.684.26-1.46.388-2.33.388-.893 0-1.684-.202-2.372-.607a4.05 4.05 0 0 1-1.593-1.74c-.374-.754-.568-1.634-.583-2.64v-.835c0-1.612.386-2.87 1.158-3.776.771-.906 1.848-1.359 3.23-1.359 1.186 0 2.128.293 2.827.88.698.585 1.118 1.43 1.26 2.534h-1.817c-.205-1.285-.95-1.927-2.234-1.927-.83 0-1.461.3-1.893.897-.432.599-.656 1.476-.67 2.634v.82c0 1.152.243 2.047.728 2.684.486.637 1.161.956 2.026.956.947 0 1.62-.215 2.021-.645v-2.087h-2.197v-1.406h4.043v4.087zm6.665.608c-.523.615-1.265.922-2.227.922-.86 0-1.51-.251-1.952-.754-.442-.503-.662-1.23-.662-2.183v-5.134h1.78v5.113c0 1.005.417 1.508 1.252 1.508.864 0 1.448-.31 1.75-.93v-5.69h1.78V159h-1.677l-.044-.776zm8.269.776c-.078-.151-.147-.398-.205-.74a2.77 2.77 0 0 1-2.08.886c-.796 0-1.446-.227-1.949-.68a2.18 2.18 0 0 1-.754-1.685c0-.845.314-1.493.941-1.945.628-.451 1.525-.677 2.692-.677h1.091v-.52c0-.41-.115-.739-.344-.985-.23-.247-.579-.37-1.047-.37-.406 0-.738.101-.996.304a.94.94 0 0 0-.389.772h-1.78c0-.434.145-.84.433-1.22.288-.378.68-.674 1.175-.889a4.13 4.13 0 0 1 1.66-.322c.927 0 1.667.233 2.218.7.552.465.835 1.121.85 1.966v3.574c0 .713.1 1.282.3 1.706V159h-1.816zm-1.956-1.282c.352 0 .683-.085.993-.256.31-.171.543-.4.7-.689v-1.494h-.96c-.66 0-1.155.115-1.487.345-.332.229-.498.554-.498.974 0 .341.113.614.34.816.228.203.531.304.912.304zm5.003-2.739c0-1.22.283-2.2.85-2.94.566-.74 1.325-1.11 2.277-1.11.84 0 1.519.293 2.036.879v-4.058h1.78V159h-1.611l-.088-.82c-.532.644-1.243.966-2.131.966-.928 0-1.679-.373-2.253-1.12-.573-.747-.86-1.763-.86-3.047zm1.78.154c0 .805.155 1.434.465 1.886.31.451.75.677 1.322.677.727 0 1.26-.324 1.596-.974v-3.384c-.327-.634-.854-.952-1.582-.952-.576 0-1.02.228-1.333.685-.312.457-.468 1.144-.468 2.062zM146.774 159c-.078-.151-.147-.398-.205-.74a2.77 2.77 0 0 1-2.08.886c-.796 0-1.446-.227-1.948-.68a2.18 2.18 0 0 1-.755-1.685c0-.845.314-1.493.941-1.945.628-.451 1.525-.677 2.692-.677h1.091v-.52c0-.41-.114-.739-.344-.985-.23-.247-.579-.37-1.047-.37-.406 0-.738.101-.996.304a.94.94 0 0 0-.389.772h-1.78c0-.434.145-.84.433-1.22.288-.378.68-.674 1.175-.889a4.13 4.13 0 0 1 1.66-.322c.927 0 1.667.233 2.218.7.552.465.835 1.121.85 1.966v3.574c0 .713.1 1.282.3 1.706V159h-1.816zm-1.956-1.282c.352 0 .683-.085.993-.256.31-.171.543-.4.7-.689v-1.494h-.96c-.66 0-1.155.115-1.487.345-.332.229-.498.554-.498.974 0 .341.113.614.34.816.228.203.531.304.912.304zm5.025-2.739c0-1.23.29-2.213.868-2.948.578-.735 1.346-1.102 2.303-1.102.903 0 1.614.315 2.132.945l.08-.799h1.604v7.683c0 1.04-.323 1.86-.97 2.461-.647.6-1.52.901-2.619.901a4.22 4.22 0 0 1-1.703-.362c-.554-.242-.975-.558-1.263-.949l.842-1.07c.547.65 1.22.975 2.022.975.59 0 1.057-.16 1.399-.48.341-.32.512-.79.512-1.41v-.534c-.512.57-1.196.856-2.05.856-.928 0-1.686-.368-2.275-1.105-.588-.738-.882-1.758-.882-3.062zm1.772.154c0 .796.163 1.422.487 1.878.325.457.775.685 1.352.685.717 0 1.25-.307 1.596-.923v-3.486c-.337-.6-.864-.9-1.582-.9-.586 0-1.041.231-1.366.695-.324.464-.487 1.147-.487 2.05zm8.694-4.058l.051.916c.586-.708 1.355-1.062 2.307-1.062 1.65 0 2.49.945 2.52 2.834V159h-1.78v-5.134c0-.503-.108-.876-.326-1.117-.217-.242-.572-.363-1.065-.363-.718 0-1.253.325-1.604.974V159h-1.78v-7.925h1.677zM171.735 159c-.078-.151-.147-.398-.205-.74a2.77 2.77 0 0 1-2.08.886c-.796 0-1.446-.227-1.949-.68a2.18 2.18 0 0 1-.754-1.685c0-.845.314-1.493.941-1.945.628-.451 1.525-.677 2.692-.677h1.091v-.52c0-.41-.115-.739-.344-.985-.23-.247-.579-.37-1.047-.37-.406 0-.738.101-.997.304a.94.94 0 0 0-.388.772h-1.78c0-.434.145-.84.433-1.22.288-.378.68-.674 1.175-.889a4.13 4.13 0 0 1 1.66-.322c.927 0 1.667.233 2.218.7.552.465.835 1.121.85 1.966v3.574c0 .713.1 1.282.3 1.706V159h-1.816zm-1.956-1.282c.352 0 .683-.085.993-.256.31-.171.543-.4.7-.689v-1.494h-.96c-.66 0-1.155.115-1.487.345-.332.229-.498.554-.498.974 0 .341.113.614.34.816.227.203.531.304.912.304zm7.222-1.86h-1.53l-.17-7.522h1.876l-.176 7.522zm-1.75 2.3c0-.279.09-.51.27-.692.181-.184.428-.275.74-.275.313 0 .56.091.74.275.18.183.271.413.271.692a.928.928 0 0 1-.264.674c-.175.18-.425.27-.747.27s-.571-.09-.747-.27a.928.928 0 0 1-.264-.674z" fill="#FFF"/><path d="M22.324 8.08c-.083 1.147-.507 2.05-1.271 2.71-.764.659-1.771.988-3.021.988-1.367 0-2.443-.46-3.227-1.38-.783-.92-1.175-2.184-1.175-3.79v-.652c0-1.026.18-1.929.542-2.71.361-.781.878-1.38 1.549-1.798.671-.418 1.451-.627 2.34-.627 1.23 0 2.222.33 2.974.99.752.658 1.186 1.584 1.303 2.775h-2.197c-.054-.688-.245-1.188-.575-1.498-.33-.31-.831-.465-1.505-.465-.732 0-1.28.263-1.644.788-.364.524-.55 1.339-.56 2.442v.806c0 1.152.174 1.994.523 2.527.35.532.9.798 1.652.798.678 0 1.185-.155 1.52-.465.334-.31.526-.79.574-1.44h2.198zm3.537 3.552h-2.124V3.707h2.124v7.925zm-2.248-9.976c0-.317.106-.578.318-.783.213-.205.502-.308.868-.308.362 0 .65.103.865.308.214.205.322.466.322.783 0 .323-.109.586-.326.791-.217.206-.504.308-.86.308-.357 0-.644-.102-.861-.308a1.04 1.04 0 0 1-.326-.79zm4.57 9.976V5.26h-1.18V3.707h1.18v-.674c0-.888.255-1.578.765-2.069.51-.49 1.225-.736 2.143-.736.293 0 .652.049 1.076.147l-.021 1.64a2.699 2.699 0 0 0-.645-.066c-.796 0-1.194.374-1.194 1.121v.637h1.575V5.26h-1.575v6.372h-2.124zm9.25-5.94a5.75 5.75 0 0 0-.761-.059c-.8 0-1.326.271-1.575.813v5.186H32.98V3.707h2l.059.945c.424-.728 1.013-1.091 1.765-1.091.234 0 .454.031.659.095l-.03 2.036zm5.61 5.94a2.35 2.35 0 0 1-.211-.71c-.513.57-1.18.856-2 .856-.776 0-1.42-.224-1.93-.673a2.167 2.167 0 0 1-.765-1.7c0-.84.311-1.484.934-1.933.622-.45 1.522-.676 2.699-.681h.974v-.454c0-.367-.094-.66-.282-.88-.188-.219-.485-.329-.89-.329-.357 0-.636.086-.839.256-.202.171-.304.406-.304.704h-2.117c0-.46.142-.884.425-1.275.284-.39.684-.697 1.201-.919.518-.222 1.1-.333 1.744-.333.976 0 1.751.245 2.325.736.574.49.86 1.18.86 2.069V9.8c.006.752.11 1.32.316 1.706v.125h-2.14zm-1.75-1.472c.313 0 .601-.07.865-.209.263-.14.459-.326.586-.56V8.028h-.791c-1.06 0-1.624.367-1.692 1.1l-.008.124c0 .263.093.48.279.651.185.171.44.257.761.257zm16.07-2.417c0 1.22-.277 2.198-.832 2.933-.554.735-1.302 1.102-2.244 1.102-.801 0-1.448-.278-1.941-.834v3.735h-2.117V3.707h1.963l.073.777c.513-.616 1.182-.923 2.007-.923.977 0 1.736.361 2.278 1.084.542.722.813 1.718.813 2.988v.11zm-2.117-.154c0-.737-.13-1.306-.392-1.707-.261-.4-.64-.6-1.139-.6-.664 0-1.12.254-1.37.762v3.244c.26.523.72.784 1.385.784 1.01 0 1.516-.828 1.516-2.483zm8.02 4.043a2.35 2.35 0 0 1-.212-.71c-.513.57-1.18.856-2 .856-.776 0-1.42-.224-1.93-.673a2.167 2.167 0 0 1-.765-1.7c0-.84.311-1.484.934-1.933.622-.45 1.522-.676 2.699-.681h.974v-.454c0-.367-.094-.66-.282-.88-.188-.219-.485-.329-.89-.329-.357 0-.636.086-.839.256-.202.171-.304.406-.304.704h-2.116c0-.46.141-.884.424-1.275.284-.39.684-.697 1.202-.919.517-.222 1.098-.333 1.743-.333.976 0 1.752.245 2.325.736.574.49.86 1.18.86 2.069V9.8c.006.752.11 1.32.316 1.706v.125h-2.139zm-1.75-1.472c.312 0 .6-.07.864-.209.264-.14.459-.326.586-.56V8.028h-.791c-1.06 0-1.624.367-1.692 1.1l-.007.124c0 .263.092.48.278.651.185.171.44.257.762.257zm9.653-4.468a5.75 5.75 0 0 0-.762-.059c-.8 0-1.325.271-1.574.813v5.186h-2.117V3.707h2l.058.945c.425-.728 1.013-1.091 1.765-1.091.234 0 .454.031.66.095l-.03 2.036zm3.252 5.94h-2.124V3.707h2.124v7.925zm-2.249-9.976c0-.317.107-.578.319-.783.212-.205.502-.308.868-.308.361 0 .65.103.864.308.215.205.322.466.322.783 0 .323-.108.586-.326.791-.217.206-.504.308-.86.308-.357 0-.643-.102-.86-.308a1.04 1.04 0 0 1-.327-.79z" fill="#000"/><path d="M20.747 131.632H19.34v-10.664h1.407v10.664zm3.64-7.925l.044.996c.605-.761 1.396-1.142 2.373-1.142 1.675 0 2.52.945 2.534 2.834v5.237h-1.355v-5.244c-.005-.571-.136-.994-.392-1.267-.256-.274-.655-.41-1.197-.41-.44 0-.826.117-1.158.351-.332.235-.59.542-.776.923v5.647h-1.355v-7.925h1.282zm8.467 7.925h-1.355v-7.925h1.355v7.925zm-1.465-10.027c0-.22.067-.405.201-.556.134-.152.333-.228.597-.228.264 0 .464.076.6.228a.8.8 0 0 1 .206.556.78.78 0 0 1-.205.55c-.137.146-.337.22-.601.22-.264 0-.463-.074-.597-.22a.782.782 0 0 1-.201-.55zm4.907 8.921h4.636v1.106h-6.291v-.996l4.372-5.808h-4.306v-1.12h6.005v.959l-4.416 5.859zm7.632 1.106h-1.355v-7.925h1.355v7.925zm-1.465-10.027c0-.22.067-.405.201-.556.135-.152.334-.228.597-.228.264 0 .464.076.6.228a.8.8 0 0 1 .206.556c0 .22-.068.403-.205.55-.137.146-.337.22-.6.22-.264 0-.463-.074-.598-.22a.782.782 0 0 1-.201-.55zm3.274 5.991c0-.776.152-1.474.458-2.094.305-.62.73-1.099 1.274-1.436.544-.337 1.166-.505 1.864-.505 1.08 0 1.952.373 2.618 1.12.667.747 1 1.741 1 2.981v.095c0 .772-.148 1.464-.443 2.077a3.365 3.365 0 0 1-1.267 1.432c-.55.342-1.18.512-1.893.512-1.075 0-1.945-.373-2.611-1.12-.667-.747-1-1.736-1-2.966v-.096zm1.362.161c0 .88.204 1.585.612 2.117.407.532.953.799 1.637.799.688 0 1.235-.27 1.64-.81.406-.54.608-1.295.608-2.267 0-.869-.206-1.573-.619-2.113-.412-.54-.96-.809-1.644-.809-.669 0-1.208.266-1.619.798-.41.533-.615 1.294-.615 2.285zm207.021-18.834h-4.476v4.709h-1.406v-10.664h6.606v1.157h-5.2v3.648h4.475v1.15zm3.669 4.709h-1.355v-7.925h1.355v7.925zm-1.465-10.027c0-.22.067-.405.201-.556.134-.152.333-.228.597-.228.264 0 .464.076.6.228a.8.8 0 0 1 .206.556.78.78 0 0 1-.205.55c-.137.146-.337.22-.6.22-.265 0-.464-.074-.598-.22a.782.782 0 0 1-.201-.55zm4.914 2.102l.044.996c.606-.761 1.397-1.142 2.373-1.142 1.675 0 2.52.945 2.534 2.834v5.237h-1.355v-5.244c-.004-.571-.135-.994-.391-1.267-.257-.274-.656-.41-1.198-.41-.44 0-.825.117-1.157.351-.332.235-.59.542-.776.923v5.647h-1.355v-7.925h1.281zm10.283 8.071c-1.074 0-1.948-.352-2.622-1.058-.673-.705-1.01-1.649-1.01-2.83v-.25c0-.786.15-1.488.45-2.105.3-.618.72-1.101 1.26-1.45a3.167 3.167 0 0 1 1.754-.524c1.03 0 1.831.34 2.402 1.018.572.678.857 1.65.857 2.915v.564h-5.368c.02.781.247 1.412.684 1.893.437.481.993.722 1.667.722.478 0 .884-.098 1.216-.293a3.07 3.07 0 0 0 .871-.777l.828.645c-.664 1.02-1.66 1.53-2.989 1.53zm-.168-7.104c-.547 0-1.006.199-1.377.597-.371.398-.6.956-.688 1.674h3.97v-.103c-.04-.689-.225-1.222-.557-1.6-.332-.379-.782-.568-1.348-.568z" fill="#2A3052"/></g></g></svg>