<svg width="299" height="197" xmlns="http://www.w3.org/2000/svg"><g fill="none" fill-rule="evenodd"><path fill="#F1F2F2" d="M299 0v197H0V0z"/><path d="M296.573 2.4H2.427v192.2h294.146V2.4zM299 197H0V0h299v197z" fill="#C2C2C2" fill-rule="nonzero"/><path d="M4 53.021v-1.21h290v1.21H4zm0 40.874v-1.21h290v1.21H4zm0 40.87v-1.21h290v1.21H4zm0 40.833v-1.21h290v1.21H4zM38.421 32h1.208v161h-1.208V32zm36.71 0h1.208v161H75.13V32zm36.669 0h1.208v161H111.8V32zm36.708 0h1.208v161h-1.208V32zm36.671 0h1.208v161h-1.208V32zm36.673 0h1.208v161h-1.208V32zM4 114.31v-1.21h290v1.21H4z" fill="#DFDEDE" fill-rule="nonzero"/><path fill="#C2C2C2" fill-rule="nonzero" d="M3.826 31.142v-2.456h290v2.456z"/><path d="M148.507 33.252h1.215v6.111h-1.215v-6.111zm0 12.222h1.215v6.111h-1.215v-6.111zm0 12.222h1.215v6.111h-1.215v-6.111zm0 12.222h1.215v6.111h-1.215v-6.111zm0 12.222h1.215v6.111h-1.215V82.14zm0 12.222h1.215v6.111h-1.215v-6.111zm0 12.222h1.215v6.111h-1.215v-6.111zm0 12.222h1.215v6.111h-1.215v-6.111zm0 12.222h1.215v6.111h-1.215v-6.111zm0 12.222h1.215v6.111h-1.215v-6.111zm0 12.222h1.215v6.111h-1.215v-6.111zm0 12.222h1.215v6.111h-1.215v-6.111zm0 12.222h1.215v6.111h-1.215v-6.111zm0 12.222h1.215V194h-1.215v-1.862z" fill="#E98024" fill-rule="nonzero"/><path d="M259.118 33.252h1.216V194h-1.216V33.252zM3.26 74.668v-1.216h291.482v1.216H3.259z" fill="#2A3052" fill-rule="nonzero"/><path d="M3.26 156.244v-1.214h6.111v1.214H3.26zm12.222 0v-1.214h6.111v1.214h-6.111zm12.222 0v-1.214h6.111v1.214h-6.111zm12.222 0v-1.214h6.111v1.214h-6.111zm12.222 0v-1.214h6.111v1.214h-6.111zm12.222 0v-1.214h6.111v1.214H64.37zm12.222 0v-1.214h6.111v1.214h-6.111zm12.222 0v-1.214h6.111v1.214h-6.111zm12.222 0v-1.214h6.111v1.214h-6.111zm12.222 0v-1.214h6.111v1.214h-6.111zm12.222 0v-1.214h6.111v1.214h-6.111zm12.222 0v-1.214h6.111v1.214h-6.111zm12.222 0v-1.214h6.111v1.214h-6.111zm12.222 0v-1.214h6.111v1.214h-6.111zm12.222 0v-1.214h6.111v1.214h-6.111zm12.222 0v-1.214h6.111v1.214h-6.111zm12.222 0v-1.214h6.111v1.214h-6.111zm12.222 0v-1.214h6.111v1.214h-6.111zm12.222 0v-1.214h6.111v1.214h-6.111zm12.222 0v-1.214h6.111v1.214h-6.111zm12.222 0v-1.214h6.111v1.214H247.7zm12.222 0v-1.214h6.111v1.214h-6.111zm12.222 0v-1.214h6.111v1.214h-6.111zm12.222 0v-1.214h6.111v1.214h-6.111z" fill="#E98024" fill-rule="nonzero"/><path d="M19.893 16.54v4.049h-2.037V10.452h3.825a4.2 4.2 0 0 1 2.712.789 2.672 2.672 0 0 1 .981 2.222c.01.482-.134.954-.411 1.348a2.833 2.833 0 0 1-1.204.911 2.2 2.2 0 0 1 1.29.885 2.8 2.8 0 0 1 .395 1.53v.74c.002.3.04.599.112.89.053.265.192.506.396.685v.144h-2.096a1.144 1.144 0 0 1-.37-.74 6.252 6.252 0 0 1-.075-.997v-.722a1.604 1.604 0 0 0-.415-1.178 1.548 1.548 0 0 0-1.163-.418h-1.94v-.001zm0-1.57h1.755c.457.034.91-.097 1.278-.37.297-.274.452-.668.422-1.07a1.481 1.481 0 0 0-.422-1.111 1.715 1.715 0 0 0-1.245-.412h-1.788v2.963zm10.555 5.763a3.389 3.389 0 0 1-2.592-1.04 3.733 3.733 0 0 1-.978-2.656v-.278a4.1 4.1 0 0 1 .926-2.763 3.074 3.074 0 0 1 2.474-1.081 3.037 3.037 0 0 1 2.366.922c.591.689.894 1.579.845 2.485v1.111h-4.504v.041c.02.453.197.885.5 1.222a1.56 1.56 0 0 0 1.185.46c.375.008.75-.038 1.111-.137.34-.108.666-.252.975-.43l.551 1.26a3.84 3.84 0 0 1-1.207.625 5.185 5.185 0 0 1-1.652.26v-.001zm-.174-6.248a1.048 1.048 0 0 0-.889.43 2.222 2.222 0 0 0-.418 1.137l.022.033h2.492v-.181a1.644 1.644 0 0 0-.303-1.037 1.111 1.111 0 0 0-.904-.382zm8.467 4.03a.7.7 0 0 0-.322-.574 3.363 3.363 0 0 0-1.204-.437 4.844 4.844 0 0 1-2.015-.8c-.448-.347-.7-.89-.678-1.456a2.078 2.078 0 0 1 .819-1.648 3.333 3.333 0 0 1 2.189-.681 3.596 3.596 0 0 1 2.292.677 2 2 0 0 1 .822 1.708v.037h-1.966a.993.993 0 0 0-.285-.741 1.167 1.167 0 0 0-.849-.285 1.189 1.189 0 0 0-.777.24.77.77 0 0 0-.282.604.685.685 0 0 0 .296.57c.37.21.778.345 1.2.397a4.881 4.881 0 0 1 2.056.807c.448.358.699.909.674 1.482a1.978 1.978 0 0 1-.87 1.663 3.76 3.76 0 0 1-2.297.64 3.493 3.493 0 0 1-2.377-.759 2.133 2.133 0 0 1-.834-1.737v-.04h1.852c-.015.338.132.663.396.874.29.192.634.286.982.27a1.42 1.42 0 0 0 .86-.219.715.715 0 0 0 .318-.592zm6.618 2.218a3.396 3.396 0 0 1-2.592-1.04 3.744 3.744 0 0 1-.974-2.656v-.278a4.115 4.115 0 0 1 .922-2.763 3.433 3.433 0 0 1 4.844-.159c.588.69.889 1.58.841 2.485v1.111h-4.511v.041c.02.452.195.884.496 1.222.313.326.752.5 1.204.478.375.01.75-.037 1.111-.137.34-.109.668-.253.978-.43l.548 1.26a3.86 3.86 0 0 1-1.204.626 5.177 5.177 0 0 1-1.663.24zm-.185-6.248a1.052 1.052 0 0 0-.889.43 2.26 2.26 0 0 0-.404 1.137l.019.033h2.493v-.181a1.667 1.667 0 0 0-.3-1.037 1.111 1.111 0 0 0-.919-.382zm6.811-3.274v1.852h1.267v1.43h-1.267v3.826c-.02.225.045.45.182.63.13.137.314.213.503.207.092.006.183.006.274 0 .09-.015.18-.037.267-.063l.178 1.481a5.13 5.13 0 0 1-.6.156c-.21.035-.421.051-.633.048a2.16 2.16 0 0 1-1.619-.574 2.54 2.54 0 0 1-.57-1.852v-3.867h-1.111v-1.43h1.11v-1.851l2.02.007h-.001zm8.315 5.7v3.678h-2.033V10.452H62.3a3.996 3.996 0 0 1 2.748.889 2.989 2.989 0 0 1 1.004 2.348 2.963 2.963 0 0 1-1.004 2.34 4.011 4.011 0 0 1-2.748.882h-2zm0-1.567h2c.475.036.942-.132 1.285-.463a1.64 1.64 0 0 0 .44-1.177 1.711 1.711 0 0 0-.429-1.215 1.652 1.652 0 0 0-1.296-.47h-2v3.325zm11.689 4.16c-.211.375-.515.69-.882.915a2.63 2.63 0 0 1-3.096-.445 3.511 3.511 0 0 1-.67-2.37v-4.548h2.026v4.574a1.96 1.96 0 0 0 .277 1.181.98.98 0 0 0 .823.37c.285.008.57-.045.833-.155.227-.104.425-.263.574-.463v-5.507h2.033v7.533H72.17l-.181-1.085zm5.867-8.293v1.852h1.27v1.43h-1.27v3.826c-.02.225.044.45.181.63.13.127.307.195.489.188.091.007.183.007.274 0 .091-.015.182-.036.27-.063l.174 1.482a4.778 4.778 0 0 1-.6.155 3.35 3.35 0 0 1-.633.048 2.167 2.167 0 0 1-1.618-.574 2.54 2.54 0 0 1-.567-1.852v-3.848h-1.111v-1.43h1.11v-1.851l2.03.007h.001z" fill="#000" fill-rule="nonzero"/><path d="M39.095 155.728a1.822 1.822 0 1 1-2.494-2.656l41.748-39.219a1.822 1.822 0 0 1 1.677-.442l38.483 9.35 28.286-50.737a1.822 1.822 0 0 1 2.763-.508l36.418 30.603 36.138-1.997c.366-.02.729.07 1.042.259l36.896 22.252a1.822 1.822 0 0 1-1.882 3.12l-36.415-21.962-36.298 2.006a1.822 1.822 0 0 1-1.273-.424l-35.281-29.648-27.886 50.021a1.822 1.822 0 0 1-2.021.883l-38.872-9.445-41.029 38.544z" fill="#2A3052" fill-rule="nonzero"/><circle fill="#FFF" opacity=".6" cx="259.111" cy="122.8" r="8.163"/><path d="M259.111 132.154a9.354 9.354 0 1 1 0-18.708 9.354 9.354 0 0 1 0 18.708zm0-2.381a6.973 6.973 0 1 0 0-13.946 6.973 6.973 0 0 0 0 13.946z" fill="#E88024" fill-rule="nonzero"/><circle fill="#FFF" opacity=".6" cx="37.848" cy="154.556" r="8.163"/><path d="M37.848 163.91a9.354 9.354 0 1 1 0-18.708 9.354 9.354 0 0 1 0 18.708zm0-2.381a6.973 6.973 0 1 0 0-13.946 6.973 6.973 0 0 0 0 13.946z" fill="#E88024" fill-rule="nonzero"/><circle fill="#FFF" opacity=".6" cx="147.859" cy="74.085" r="8.163"/><path d="M147.859 83.439a9.354 9.354 0 1 1 0-18.708 9.354 9.354 0 0 1 0 18.708zm0-2.381a6.973 6.973 0 1 0 0-13.946 6.973 6.973 0 0 0 0 13.946z" fill="#E88024" fill-rule="nonzero"/><path d="M262.515 151.456H223.84l-5.5-8.226-5.5 8.23h-38.69a4.815 4.815 0 0 0-4.814 4.814v24.87a4.815 4.815 0 0 0 4.815 4.815h88.363a4.815 4.815 0 0 0 4.815-4.815V156.27a4.815 4.815 0 0 0-4.815-4.814h.001z" fill="#E88024"/><path d="M269.578 82.748h-2.36l-1.422 7.119h-1.055l1.422-7.119h-2.352l.17-.848h5.767l-.17.848zm2.263 7.119v-.445c0-.115.022-.23.04-.348a3.407 3.407 0 0 1-.84.645 1.952 1.952 0 0 1-.948.262 1.437 1.437 0 0 1-1.197-.485 1.511 1.511 0 0 1-.218-1.296c.09-.558.414-1.05.892-1.352a3.374 3.374 0 0 1 1.83-.452h1.011l.115-.585a1.011 1.011 0 0 0-.119-.84.93.93 0 0 0-.766-.286c-.3-.003-.592.091-.834.267a1.052 1.052 0 0 0-.444.633h-1v-.033c.099-.496.396-.929.822-1.2a2.8 2.8 0 0 1 1.696-.515 1.852 1.852 0 0 1 1.393.522c.36.403.483.965.326 1.482l-.57 2.848c-.045.204-.079.41-.1.618a3.011 3.011 0 0 0 0 .578l-1.09-.018h.001zm-1.4-.79c.318-.006.63-.096.903-.258.28-.146.524-.354.712-.608l.218-1.089h-1.044a1.574 1.574 0 0 0-.974.334 1.29 1.29 0 0 0-.515.766.74.74 0 0 0 .085.637.74.74 0 0 0 .622.219h-.007v-.001zm7.5-4.177l-.578-.037a1.144 1.144 0 0 0-.667.207 1.778 1.778 0 0 0-.526.578l-.844 4.219h-1.056l1.186-5.926h.944l-.067.796c.184-.268.42-.496.693-.67a1.58 1.58 0 0 1 .83-.234h.237a1.2 1.2 0 0 1 .188.045l-.34 1.022zm.318 2.007a4.9 4.9 0 0 1 .978-2.296 2.174 2.174 0 0 1 1.722-.774 1.79 1.79 0 0 1 .87.211c.257.143.47.353.615.608l.23-.712h.9l-1.167 5.845a3.078 3.078 0 0 1-.988 1.852 2.881 2.881 0 0 1-1.923.622 3.411 3.411 0 0 1-.83-.119 2.652 2.652 0 0 1-.74-.318l.43-.837c.18.123.38.213.592.267.241.066.49.1.74.1a1.53 1.53 0 0 0 1.112-.412 2.1 2.1 0 0 0 .581-1.148l.086-.403a2.16 2.16 0 0 1-1.5.596 1.578 1.578 0 0 1-1.448-.86 2.94 2.94 0 0 1-.245-2.103l-.015-.119zm1.037.112c-.139.499-.11 1.03.082 1.51a1 1 0 0 0 .996.575 1.21 1.21 0 0 0 .704-.223 2.2 2.2 0 0 0 .574-.63l.552-2.758a1.289 1.289 0 0 0-.437-.567 1.163 1.163 0 0 0-.715-.215c-.448 0-.866.225-1.111.6a3.933 3.933 0 0 0-.634 1.596l-.01.112h-.001zm6.96 2.962a1.922 1.922 0 0 1-1.69-.83 2.84 2.84 0 0 1-.37-2.132l.037-.241a3.74 3.74 0 0 1 1.037-2.13 2.526 2.526 0 0 1 1.793-.811 1.711 1.711 0 0 1 1.56.74c.329.583.43 1.267.284 1.92l-.11.677h-3.567a2.35 2.35 0 0 0 .166 1.437c.195.355.579.562.982.53.308.005.615-.05.903-.16.27-.097.52-.24.741-.422l.3.7a2.637 2.637 0 0 1-.852.522c-.388.145-.8.213-1.214.2zm.681-5.296c-.348.02-.67.188-.889.46a2.681 2.681 0 0 0-.615 1.136l.019.034h2.433l.022-.145c.078-.362.034-.74-.126-1.074a.881.881 0 0 0-.844-.41v-.001zm5.396-2.166l-.289 1.425h1.023l-.16.8h-1.022l-.718 3.593a.804.804 0 0 0 .03.604.47.47 0 0 0 .37.152c.101-.002.203-.01.303-.023.119 0 .211-.033.282-.051v.74c-.14.079-.293.133-.452.16-.19.043-.383.066-.578.066a1.04 1.04 0 0 1-.881-.407 1.519 1.519 0 0 1-.141-1.237l.719-3.593h-.852l.155-.8h.863l.293-1.426 1.055-.003zM60.4 52.821l1.09 6.926.029.006 3.86-6.932h1.442l-1.705 8.531h-1.13l.673-3.375.785-3.357-.029-.012-3.861 6.744h-.75l-1.16-6.726h-.036l-.556 3.351-.674 3.375h-1.13l1.704-8.53H60.4v-.001zm6.89 5.303c.156-.977.515-1.759 1.075-2.347.56-.588 1.253-.882 2.077-.882.79 0 1.38.306 1.773.917.392.612.514 1.382.366 2.312l-.018.129c-.16.98-.52 1.762-1.08 2.346-.561.584-1.254.876-2.078.876-.789 0-1.38-.304-1.772-.914-.393-.609-.513-1.379-.36-2.308l.017-.13v.001zm1.113.129c-.113.699-.079 1.26.103 1.684.182.424.528.636 1.04.636.476 0 .883-.222 1.219-.665.336-.443.556-.995.662-1.655l.017-.13c.11-.687.073-1.245-.111-1.675-.184-.43-.527-.644-1.031-.644-.48 0-.888.222-1.222.668-.334.445-.554.996-.66 1.652l-.017.129zm7.143-2.485a2.56 2.56 0 0 1 .855-.647c.325-.15.682-.226 1.073-.226.355 0 .655.096.899.287.244.192.405.477.483.856.25-.36.547-.64.891-.84a2.21 2.21 0 0 1 1.137-.303c.558 0 .976.226 1.254.677.277.451.33 1.114.158 1.99l-.756 3.79h-1.137l.762-3.802c.129-.672.125-1.126-.012-1.363-.136-.236-.404-.354-.802-.354-.32 0-.623.141-.909.425-.294.294-.51.658-.627 1.057v.012l-.802 4.025h-1.137l.762-3.802c.125-.637.117-1.082-.024-1.336-.14-.254-.406-.381-.797-.381-.296 0-.562.075-.796.225-.235.15-.436.359-.604.624l-.938 4.67h-1.13l1.265-6.34h1.008l-.076.756zm10.137 5.707c-.797 0-1.4-.295-1.808-.887-.408-.592-.538-1.353-.39-2.283l.041-.257c.149-.938.519-1.698 1.11-2.28.593-.582 1.232-.873 1.92-.873.777 0 1.334.26 1.67.78.336.52.437 1.205.304 2.056l-.117.721h-3.82c-.086.648-.027 1.164.178 1.547.206.383.556.574 1.052.574.64.004 1.26-.218 1.752-.627l.322.75a2.9 2.9 0 0 1-.914.557c-.37.148-.804.222-1.3.222zm.732-5.671c-.328 0-.645.164-.952.492a2.857 2.857 0 0 0-.66 1.218l.018.036h2.608l.023-.153c.074-.472.03-.856-.135-1.151-.164-.295-.464-.442-.902-.442zm4.88.082c.259-.32.55-.566.877-.736.326-.17.677-.255 1.052-.255.597 0 1.04.203 1.33.61.289.406.351 1.021.187 1.845l-.803 4.002h-1.13l.796-3.978c.118-.594.102-1-.046-1.216-.149-.217-.438-.325-.868-.325a1.54 1.54 0 0 0-.814.249 2.51 2.51 0 0 0-.709.665l-.92 4.605h-1.13l1.265-6.34h1.014l-.1.874h-.001zm7.32-2.403l-.311 1.53h1.095l-.17.855h-1.095l-.768 3.85c-.066.316-.056.53.03.641.085.112.224.167.416.167.09 0 .198-.009.325-.026.127-.018.227-.036.301-.056l-.005.791c-.114.07-.275.128-.484.173-.203.044-.41.067-.618.067-.41 0-.726-.144-.946-.433-.22-.29-.27-.73-.15-1.324l.768-3.85h-.926l.17-.855h.926l.31-1.53h1.132zm1.183 4.64c.156-.976.514-1.758 1.075-2.346.56-.588 1.253-.882 2.077-.882.79 0 1.38.306 1.773.917.392.612.514 1.382.366 2.312l-.018.129c-.16.98-.52 1.762-1.08 2.346-.561.584-1.254.876-2.078.876-.789 0-1.38-.304-1.772-.914-.393-.609-.513-1.379-.36-2.308l.017-.13zm1.113.13c-.113.699-.079 1.26.103 1.684.181.424.528.636 1.04.636.476 0 .883-.222 1.218-.665.336-.443.557-.995.663-1.655l.017-.13c.11-.687.072-1.245-.111-1.675-.184-.43-.528-.644-1.031-.644-.48 0-.888.222-1.222.668-.334.445-.554.996-.66 1.652l-.017.129zm8.168-.07c.215-1.09.56-1.91 1.034-2.461.475-.551 1.085-.827 1.831-.827.325 0 .618.068.882.202.264.135.48.326.648.572l.691-3.457h1.13l-1.827 9.14h-.973l.041-.609a2.276 2.276 0 0 1-1.693.732c-.68 0-1.193-.304-1.538-.914-.346-.609-.429-1.361-.25-2.256l.024-.123v.001zm1.113.122c-.136.672-.11 1.212.077 1.62.187.409.539.613 1.054.613.278 0 .527-.077.747-.232a2.32 2.32 0 0 0 .607-.659l.597-2.994a1.343 1.343 0 0 0-.46-.598c-.205-.148-.46-.222-.764-.222-.469 0-.857.212-1.163.636-.307.423-.53.995-.671 1.713l-.024.123zm6.141 3.047h-1.13l1.265-6.34h1.13l-1.265 6.34zm1.594-7.963h-1.131l.234-1.177h1.131l-.234 1.177zm6.867 2.643l-.621-.035c-.258 0-.495.073-.712.22a1.934 1.934 0 0 0-.565.618l-.903 4.517h-1.13l1.265-6.34h1.014l-.07.85c.218-.308.465-.547.74-.715.402-.25.89-.317 1.345-.187l-.363 1.072zm2.484 5.443c-.797 0-1.4-.295-1.807-.887-.409-.592-.538-1.353-.39-2.283l.041-.257c.149-.938.519-1.698 1.11-2.28.592-.582 1.232-.873 1.92-.873.777 0 1.333.26 1.67.78.335.52.437 1.205.304 2.056l-.117.721h-3.82c-.086.648-.027 1.164.178 1.547s.556.574 1.052.574c.64.004 1.26-.218 1.752-.627l.322.75a2.9 2.9 0 0 1-.914.557c-.371.148-.805.222-1.3.222h-.001zm.733-5.671c-.328 0-.646.164-.952.492a2.857 2.857 0 0 0-.66 1.218l.018.036h2.607l.024-.153c.074-.472.03-.856-.135-1.151-.164-.295-.465-.442-.902-.442zm6.474 3.867c.043-.262-.01-.473-.158-.633-.148-.16-.457-.3-.926-.422-.691-.168-1.198-.396-1.52-.686-.322-.289-.443-.68-.36-1.171.085-.536.36-.98.826-1.333.465-.354 1.029-.53 1.693-.53.664 0 1.176.19 1.535.574.36.382.488.841.387 1.377l-.018.035h-1.084a.92.92 0 0 0-.187-.753c-.172-.217-.43-.325-.774-.325-.351 0-.636.09-.855.272-.206.16-.344.39-.387.647-.043.262.003.461.138.598.135.137.44.264.917.381.723.172 1.242.405 1.559.7.316.295.435.69.357 1.187a2.02 2.02 0 0 1-.856 1.38c-.476.337-1.062.506-1.757.506-.727 0-1.282-.207-1.664-.62-.383-.415-.52-.891-.41-1.43l.011-.036h1.084c-.05.41.037.71.264.9.226.19.512.284.855.284.356 0 .656-.084.9-.252a.956.956 0 0 0 .43-.65zm4.694 1.804c-.797 0-1.4-.295-1.808-.887-.408-.592-.538-1.353-.39-2.283l.041-.257c.149-.938.519-1.698 1.11-2.28.593-.582 1.232-.873 1.92-.873.777 0 1.334.26 1.67.78.336.52.437 1.205.304 2.056l-.117.721h-3.82c-.086.648-.027 1.164.179 1.547.205.383.555.574 1.051.574.64.004 1.26-.218 1.752-.627l.323.75a2.9 2.9 0 0 1-.915.557c-.37.148-.804.222-1.3.222zm.732-5.671c-.328 0-.645.164-.952.492a2.857 2.857 0 0 0-.66 1.218l.018.036h2.608l.023-.153c.074-.472.03-.856-.135-1.151-.164-.295-.464-.442-.902-.442zm5.777-2.32l-.31 1.529h1.096l-.17.855h-1.096l-.768 3.85c-.066.316-.056.53.03.641.086.112.224.167.416.167.09 0 .198-.009.325-.026.127-.018.227-.036.302-.056l-.006.791c-.113.07-.275.128-.484.173-.203.044-.41.067-.618.067-.41 0-.725-.144-.946-.433-.22-.29-.27-.73-.15-1.324l.768-3.85h-.926l.17-.855h.926l.31-1.53h1.131v.001z" fill="#6D6E70" fill-rule="nonzero"/><path d="M22.895 178h-1.78v-10.664h1.78V178zm3.816-7.925l.102 1.143a2.84 2.84 0 0 1 .978-.949 2.61 2.61 0 0 1 1.33-.34c.825 0 1.468.25 1.93.75.461.5.692 1.281.692 2.34V178h-1.78v-4.966c0-.596-.123-1.02-.37-1.27-.247-.252-.621-.378-1.124-.378a1.864 1.864 0 0 0-1.604.864V178h-1.78v-7.925h1.626zM35.493 178h-1.78v-7.925h1.78V178zm0-9.866h-1.78v-1.56h1.78v1.56zm3.882 8.445h4.233V178H37.17v-1.165l3.999-5.324H37.25v-1.436h6.167v1.128l-4.042 5.376zm7.61 1.421h-1.78v-7.925h1.78V178zm0-9.866h-1.78v-1.56h1.78v1.56zm1.662 5.83c0-1.176.322-2.143.967-2.9.654-.757 1.54-1.135 2.658-1.135 1.138 0 2.03.378 2.674 1.135.65.752.974 1.719.974 2.9v.154c0 1.192-.325 2.163-.974 2.915-.645.747-1.531 1.12-2.659 1.12-1.133 0-2.024-.375-2.673-1.127-.645-.752-.967-1.721-.967-2.908v-.154zm1.78.154c0 .772.151 1.402.454 1.89.298.483.766.725 1.406.725.62 0 1.084-.242 1.392-.725.312-.488.468-1.118.468-1.89v-.154c0-.756-.156-1.379-.468-1.867-.308-.493-.777-.74-1.407-.74-.62 0-1.084.247-1.391.74-.303.493-.454 1.115-.454 1.867v.154zm220.946-33.632H266.7v4.549h-1.78V134.37h7.2v1.428h-5.42v3.26h4.673v1.428zm3.919 4.549h-1.78v-7.925h1.78v7.925zm0-9.866h-1.78v-1.56h1.78v1.56zm3.603 1.94l.103 1.144a2.82 2.82 0 0 1 .977-.949c.393-.227.837-.34 1.33-.34.825 0 1.468.25 1.93.75.461.5.692 1.28.692 2.34v4.98h-1.78v-4.965c0-.596-.123-1.02-.37-1.27-.246-.252-.621-.378-1.124-.378a1.864 1.864 0 0 0-1.604.864v5.75h-1.78v-7.925h1.626v-.001zm10.283 8.08c-1.123 0-2.018-.368-2.684-1.103-.667-.735-1-1.678-1-2.83v-.294c0-1.152.33-2.108.993-2.867.661-.76 1.49-1.136 2.486-1.132 1.07 0 1.889.324 2.457.97.57.648.854 1.516.854 2.605v1.047h-4.944l-.015.037c.03.63.214 1.145.553 1.545.34.4.81.6 1.41.6.479 0 .889-.058 1.23-.175.342-.117.672-.286.99-.506l.57 1.165c-.297.264-.693.486-1.186.667-.493.18-1.064.27-1.714.27v.001zm-.205-6.797c-.44 0-.8.174-1.084.523-.283.35-.459.793-.527 1.33l.014.036h3.143v-.183c0-.503-.129-.913-.385-1.23-.256-.318-.643-.476-1.16-.476h-.001z" fill="#2A3052" fill-rule="nonzero"/><path d="M189.24 172.472c-.36.476-.92.9-1.68 1.27-.761.371-1.723.556-2.885.556-1.477 0-2.684-.459-3.619-1.378-.935-.918-1.403-2.11-1.403-3.577v-2.524c0-1.46.45-2.652 1.35-3.573.898-.921 2.056-1.382 3.473-1.382 1.472 0 2.6.358 3.383 1.075.783.716 1.182 1.659 1.199 2.826l-.017.05h-2.282c-.045-.642-.25-1.15-.615-1.523-.365-.374-.899-.56-1.602-.56-.741 0-1.339.286-1.793.859-.453.572-.68 1.31-.68 2.212v2.54c0 .918.235 1.664.705 2.237.47.573 1.104.859 1.901.859.565 0 1.018-.058 1.362-.174.343-.117.603-.26.78-.432v-2.241h-2.142v-1.677h4.566v4.557h-.001zm7.372.357c-.277.47-.628.833-1.054 1.088-.427.254-.916.381-1.47.381-.946 0-1.686-.303-2.22-.909-.534-.606-.801-1.548-.801-2.826v-5.42h2.415v5.437c0 .653.111 1.122.332 1.407.222.285.548.427.98.427.387 0 .72-.062.996-.187a1.68 1.68 0 0 0 .68-.552v-6.532h2.424v8.981h-2.066l-.216-1.295zm9.38 1.295a5.098 5.098 0 0 1-.229-.647 4.504 4.504 0 0 1-.137-.698 3.34 3.34 0 0 1-.983 1.088c-.407.288-.893.431-1.457.431-.94 0-1.666-.242-2.175-.726-.509-.484-.764-1.144-.764-1.98 0-.88.34-1.562 1.017-2.046.678-.484 1.667-.726 2.968-.726h1.353v-.714c0-.432-.114-.766-.34-1.004-.227-.238-.562-.357-1.005-.357-.393 0-.696.095-.909.286-.213.191-.32.455-.32.793l-2.34-.009-.008-.05c-.04-.757.29-1.412.987-1.962.698-.551 1.613-.826 2.748-.826 1.073 0 1.945.272 2.615.817.67.545 1.004 1.321 1.004 2.329v3.71c0 .42.032.816.095 1.187.064.37.165.739.303 1.104h-2.423zm-2.217-1.619a2.08 2.08 0 0 0 1.138-.315c.332-.21.556-.454.672-.73v-1.27h-1.353c-.515 0-.905.128-1.17.385-.259.241-.404.58-.399.934 0 .3.1.54.299.722.2.183.47.274.813.274zm5.703-2.797c0-1.417.306-2.56.917-3.428.612-.869 1.474-1.303 2.586-1.303.448 0 .852.096 1.212.29.36.194.675.47.946.83v-4.922h2.432v12.95h-2.083l-.2-1.097c-.282.415-.615.73-1 .947a2.67 2.67 0 0 1-1.324.323c-1.101 0-1.957-.404-2.569-1.212-.611-.807-.917-1.875-.917-3.204v-.174zm2.415.174c0 .786.133 1.405.399 1.856.266.45.697.676 1.295.676.348 0 .653-.07.913-.212.26-.14.473-.347.64-.618v-3.827a1.865 1.865 0 0 0-.636-.66 1.689 1.689 0 0 0-.9-.236c-.593 0-1.026.263-1.3.788-.274.526-.41 1.212-.41 2.06v.173h-.001zm12.825 4.242a5.098 5.098 0 0 1-.228-.647 4.504 4.504 0 0 1-.137-.698 3.34 3.34 0 0 1-.984 1.088c-.406.288-.892.431-1.456.431-.941 0-1.666-.242-2.175-.726-.51-.484-.764-1.144-.764-1.98 0-.88.339-1.562 1.017-2.046.678-.484 1.667-.726 2.967-.726h1.353v-.714c0-.432-.113-.766-.34-1.004-.227-.238-.562-.357-1.004-.357-.393 0-.696.095-.91.286-.212.191-.319.455-.319.793l-2.34-.009-.009-.05c-.039-.757.29-1.412.988-1.962.697-.551 1.613-.826 2.747-.826 1.074 0 1.946.272 2.615.817.67.545 1.005 1.321 1.005 2.329v3.71c0 .42.031.816.095 1.187.064.37.165.739.303 1.104h-2.424zm-2.216-1.619a2.08 2.08 0 0 0 1.137-.315c.332-.21.556-.454.672-.73v-1.27h-1.353c-.514 0-.904.128-1.17.385a1.25 1.25 0 0 0-.398.934c0 .3.1.54.298.722.2.183.47.274.814.274zm5.703-2.797c0-1.417.308-2.56.925-3.428.617-.869 1.482-1.303 2.594-1.303.504 0 .946.113 1.328.34.382.227.709.55.98.971l.19-1.145h2.092v8.94c0 1.167-.383 2.07-1.15 2.71-.766.639-1.832.959-3.2.959-.453 0-.934-.063-1.444-.187a6.707 6.707 0 0 1-1.41-.51l.448-1.81c.37.177.748.311 1.133.402.412.094.834.14 1.257.137.664 0 1.153-.138 1.465-.415.313-.277.47-.708.47-1.295v-.813a2.7 2.7 0 0 1-.939.772c-.36.177-.772.265-1.237.265-1.1 0-1.96-.405-2.577-1.216-.617-.81-.925-1.877-.925-3.2v-.174zm2.423.174c0 .786.133 1.405.399 1.856.265.45.697.676 1.295.676.37 0 .685-.068.942-.203a1.56 1.56 0 0 0 .618-.594v-3.901a1.672 1.672 0 0 0-.618-.631c-.257-.15-.566-.224-.926-.224-.592 0-1.025.263-1.299.788-.274.526-.41 1.212-.41 2.06v.173h-.001zm9.762-4.74l.108 1.287c.299-.46.667-.816 1.104-1.07.447-.257.955-.39 1.47-.382.907 0 1.615.285 2.124.855.51.57.764 1.463.764 2.68v5.612h-2.432v-5.603c0-.603-.122-1.03-.365-1.282-.244-.252-.612-.378-1.104-.378a1.774 1.774 0 0 0-1.502.747v6.516h-2.425v-8.981h2.258v-.001zm12.65 8.982a5.098 5.098 0 0 1-.228-.647 4.504 4.504 0 0 1-.137-.698 3.34 3.34 0 0 1-.983 1.088c-.407.288-.893.431-1.457.431-.941 0-1.666-.242-2.175-.726-.51-.484-.764-1.144-.764-1.98 0-.88.34-1.562 1.017-2.046.678-.484 1.667-.726 2.968-.726h1.353v-.714c0-.432-.114-.766-.34-1.004-.228-.238-.562-.357-1.005-.357-.393 0-.696.095-.909.286-.213.191-.32.455-.32.793l-2.34-.009-.009-.05c-.038-.757.29-1.412.988-1.962.697-.551 1.613-.826 2.748-.826 1.073 0 1.945.272 2.614.817.67.545 1.005 1.321 1.005 2.329v3.71c0 .42.032.816.095 1.187.064.37.165.739.303 1.104h-2.424zm-2.216-1.619a2.08 2.08 0 0 0 1.137-.315c.332-.21.557-.454.673-.73v-1.27h-1.353c-.515 0-.905.128-1.17.385-.26.24-.405.58-.4.934 0 .3.1.54.3.722.199.183.47.274.813.274zm8.683-2.548h-2.424v-7.919h2.424v7.92-.001zm0 4.167h-2.424V172h2.424v2.125-.001z" fill="#FFF" fill-rule="nonzero"/></g></svg>