<svg width="299" height="197" xmlns="http://www.w3.org/2000/svg"><g fill="none" fill-rule="evenodd"><path fill="#F1F2F2" d="M0 0h299v197H0z"/><path d="M1.993 1.98v193.04h295.014V1.98H1.993zM299 0v197H0V0h299z" fill="#C2C2C2" fill-rule="nonzero"/><path d="M42.615 54.857v18.905H77.77V54.857H42.615zm0-.976H77.77V34h.973v19.881h35.155V34h.974v19.881h35.155V34H151v19.881h35.155V34h.973v19.881h35.156V34h.973v19.881h35.155V34h.973v19.881H296v.976h-36.615v18.905H296v.976h-36.615v18.905H296v.976h-36.615v18.905H296v.976h-36.615v18.905H296v.976h-36.615v18.905H296v.976h-36.615v18.905H296v.976h-36.615V195h-.973v-20.857h-35.155V195h-.973v-20.857h-35.156V195h-.973v-20.857H151V195h-.973v-20.857h-35.155V195h-.974v-20.857H78.743V195h-.973v-20.857H42.615V195h-.973v-20.857H6v-.976h35.642v-18.905H6v-.976h35.642v-18.905H6v-.976h35.642V114.5H6v-.976h35.642V94.62H6v-.976h35.642V74.738H6v-.976h35.642V54.857H6v-.976h35.642V34h.973v19.881zm215.797.976h-35.155v18.905h35.155V54.857zm-36.128 0h-35.156v18.905h35.156V54.857zm-36.129 0H151v18.905h35.155V54.857zm-36.128 0h-35.155v18.905h35.155V54.857zm-36.129 0H78.743v18.905h35.155V54.857zm-71.283 19.88v18.906H77.77V74.738H42.615zm215.797 0h-35.155v18.906h35.155V74.738zm-36.128 0h-35.156v18.906h35.156V74.738zm-36.129 0H151v18.906h35.155V74.738zm-36.128 0h-35.155v18.906h35.155V74.738zm-36.129 0H78.743v18.906h35.155V74.738zM42.615 94.62v18.905H77.77V94.62H42.615zm215.797 0h-35.155v18.905h35.155V94.62zm-36.128 0h-35.156v18.905h35.156V94.62zm-36.129 0H151v18.905h35.155V94.62zm-36.128 0h-35.155v18.905h35.155V94.62zm-36.129 0H78.743v18.905h35.155V94.62zM42.615 114.5v18.905H77.77V114.5H42.615zm215.797 0h-35.155v18.905h35.155V114.5zm-36.128 0h-35.156v18.905h35.156V114.5zm-36.129 0H151v18.905h35.155V114.5zm-36.128 0h-35.155v18.905h35.155V114.5zm-36.129 0H78.743v18.905h35.155V114.5zm-71.283 19.881v18.905H77.77v-18.905H42.615zm215.797 0h-35.155v18.905h35.155v-18.905zm-36.128 0h-35.156v18.905h35.156v-18.905zm-36.129 0H151v18.905h35.155v-18.905zm-36.128 0h-35.155v18.905h35.155v-18.905zm-36.129 0H78.743v18.905h35.155v-18.905zm-71.283 19.881v18.905H77.77v-18.905H42.615zm215.797 0h-35.155v18.905h35.155v-18.905zm-36.128 0h-35.156v18.905h35.156v-18.905zm-36.129 0H151v18.905h35.155v-18.905zm-36.128 0h-35.155v18.905h35.155v-18.905zm-36.129 0H78.743v18.905h35.155v-18.905z" fill="#DFDEDE" fill-rule="nonzero"/><path fill="#C2C2C2" d="M3.637 33h292v2h-292z"/><path d="M260.87 95.87l.095.97a2.116 2.116 0 0 1 1.878-1.064c.688 0 1.22.187 1.596.626.375.406.563 1.032.563 1.877v4.069h-1.158v-4.037c0-.564-.125-.97-.344-1.22-.22-.251-.564-.345-1.002-.345-.344 0-.626.094-.876.25-.25.157-.47.376-.626.657v4.695h-1.158v-6.447l1.033-.031h-.001zm-5.476-2.336v.91h-4.365v3.09h3.719v.938h-3.719v3.956h-1.282v-8.894h5.647zm16.369 5.764h-4.151c0 .77.157 1.327.472 1.67.413.452.849.616 1.445.556 1.043-.104 1.244-.383 1.675-.629l.44.754c-.514.53-1.336.795-2.465.795-1.694 0-2.726-1.403-2.793-3.074-.068-1.671.599-3.61 2.793-3.691 1.86.05 2.721 1.256 2.584 3.619zm-1.166-.919c-.012-1.175-.484-1.763-1.417-1.763-.932 0-1.442.588-1.529 1.763h2.946zm-13.854-2.5h1.166v6.415h-1.166v-6.415zm.017-2.914v1.157h1.187v-1.157h-1.187z" fill="#2A3052" fill-rule="nonzero"/><g transform="translate(3.637 57.565)"><path fill="#2A3052" fill-rule="nonzero" d="M.496 56.855v-1.21h290.775v1.21z"/><path d="M64.334 33.58l-27.06 25.126a1.817 1.817 0 0 1-2.472-2.662l28.35-26.325a1.817 1.817 0 0 1 2.528.054l37.045 37.478 34.08-49.383a1.817 1.817 0 0 1 2.838-.192l48.498 53.21L229.013-.193a1.817 1.817 0 0 1 2.523-.644l26.174 16.012a1.817 1.817 0 0 1-1.896 3.1L231.232 3.237 190.05 74.856a1.817 1.817 0 0 1-2.918.318l-48.635-53.36L104.47 71.12a1.817 1.817 0 0 1-2.787.245L64.333 33.58z" fill="#2A3052" fill-rule="nonzero"/><path d="M184.762 88.313h-35.1l-5.4-8.213-5.4 8.213h-35.1c-2.624 0-4.725 2.137-4.725 4.8V117.9c0 2.662 2.138 4.8 4.725 4.8h81c2.625 0 4.726-2.138 4.726-4.8V93.112c0-2.662-2.138-4.8-4.726-4.8v.001z" fill="#E88024"/><path d="M246.225 66.188h-2.55l-1.538 7.724h-1.125l1.538-7.725H240l.188-.937h6.187l-.15.938zm2.438 7.762v-.487c0-.15.037-.263.037-.375-.262.3-.563.525-.9.712-.338.188-.675.3-1.013.3-.562 0-1.012-.188-1.275-.525-.262-.338-.337-.825-.225-1.425.113-.638.45-1.163.938-1.463.525-.337 1.162-.487 1.95-.487h1.087l.113-.638c.075-.412.037-.712-.113-.9-.15-.187-.45-.3-.825-.3-.337 0-.637.113-.9.3-.237.16-.41.4-.487.675H246V69.3c.075-.487.375-.938.9-1.313.525-.374 1.125-.562 1.838-.562.637 0 1.125.188 1.5.563.375.374.487.9.337 1.575l-.6 3.112-.112.675a1.82 1.82 0 0 0 0 .638h-1.2v-.038zm-1.5-.862c.3 0 .637-.075.974-.263.338-.188.6-.413.75-.675l.226-1.2h-1.125c-.375 0-.75.112-1.05.375-.3.225-.488.525-.563.825-.075.3-.037.525.075.712.15.15.375.226.713.226zm8.024-4.538l-.637-.037c-.255 0-.504.078-.713.224a1.575 1.575 0 0 0-.562.638l-.9 4.575h-1.125l1.275-6.45h1.012l-.075.862a2.25 2.25 0 0 1 .75-.712c.263-.15.563-.263.9-.263.076 0 .15 0 .263.038.075 0 .15.038.188.038l-.375 1.087h-.001zm.375 2.175c.225-1.087.563-1.95 1.05-2.512.488-.563 1.088-.825 1.838-.825.338 0 .675.075.938.224.262.15.487.376.675.675l.262-.787h.975l-1.238 6.338c-.187.9-.524 1.575-1.05 2.025-.524.45-1.237.674-2.062.674-.306 0-.61-.05-.9-.15a2.378 2.378 0 0 1-.825-.337l.45-.9c.15.112.375.225.637.3.263.075.525.112.788.112.487 0 .862-.15 1.162-.45a2.43 2.43 0 0 0 .638-1.237l.075-.45a2.201 2.201 0 0 1-1.613.638 1.725 1.725 0 0 1-1.575-.938 3.296 3.296 0 0 1-.262-2.287l.037-.113zm1.088.113c-.15.675-.112 1.237.075 1.65.188.412.563.637 1.087.637.263 0 .525-.075.75-.225.226-.15.45-.375.638-.675l.6-3a1.961 1.961 0 0 0-.45-.637 1.305 1.305 0 0 0-.788-.225c-.487 0-.862.225-1.162.637-.3.45-.563 1.013-.675 1.725l-.075.113zm7.5 3.225c-.787 0-1.387-.3-1.8-.9-.413-.6-.525-1.388-.375-2.325l.037-.263c.15-.938.526-1.725 1.125-2.325.6-.6 1.238-.9 1.913-.9.787 0 1.35.263 1.688.788.337.524.45 1.237.3 2.1l-.113.75H263.1c-.075.637-.038 1.162.188 1.575.224.374.562.562 1.05.562a2.816 2.816 0 0 0 1.762-.638l.337.75c-.225.226-.562.413-.9.563a3.63 3.63 0 0 1-1.387.263zm.713-5.738c-.338 0-.638.15-.938.487-.3.338-.525.75-.675 1.238v.038h2.625l.038-.15c.075-.488.037-.863-.15-1.163-.188-.3-.45-.45-.9-.45zm5.812-2.362l-.3 1.537h1.087l-.187.862h-1.087l-.788 3.9c-.075.3-.075.525.038.638.075.112.225.15.412.15.075 0 .188 0 .337-.037a.706.706 0 0 0 .3-.076v.788c-.112.075-.262.113-.487.188-.225.037-.413.075-.637.075-.413 0-.713-.15-.938-.45-.225-.3-.262-.75-.15-1.35l.788-3.9h-.938l.188-.863h.937l.3-1.537h1.125v.075z" fill="#6D6E71" fill-rule="nonzero"/><ellipse fill="#FFF" opacity=".6" cx="256.762" cy="16.725" rx="8.137" ry="8.475"/><path d="M256.762 26.412c-5.174 0-9.349-4.348-9.349-9.687 0-5.339 4.175-9.687 9.349-9.687s9.349 4.348 9.349 9.687c0 5.339-4.175 9.686-9.349 9.686zm0-2.424c3.814 0 6.925-3.24 6.925-7.263 0-4.022-3.111-7.264-6.925-7.264-3.814 0-6.925 3.242-6.925 7.264s3.111 7.263 6.925 7.263z" fill="#E88024" fill-rule="nonzero"/><ellipse fill="#FFF" opacity=".6" cx="36.037" cy="57.375" rx="8.137" ry="8.475"/><path d="M36.038 67.061c-5.174 0-9.348-4.347-9.348-9.686 0-5.339 4.174-9.687 9.348-9.687s9.349 4.348 9.349 9.687c0 5.339-4.175 9.686-9.349 9.686zm0-2.423c3.814 0 6.926-3.24 6.926-7.263 0-4.022-3.112-7.264-6.926-7.264s-6.925 3.242-6.925 7.264 3.111 7.263 6.925 7.263z" fill="#E88024" fill-rule="nonzero"/></g><g fill="#2A3052" fill-rule="nonzero"><path d="M28.794 137.632l.107 1.107a2.413 2.413 0 0 1 2.142-1.214c.785 0 1.392.214 1.82.714.43.464.643 1.178.643 2.142v4.641h-1.32v-4.605c0-.643-.143-1.107-.393-1.393-.25-.285-.643-.393-1.143-.393-.393 0-.714.108-1 .286a2.062 2.062 0 0 0-.713.75v5.355h-1.321v-7.354l1.178-.036zM24.119 135h1.234v9.751H24.12L24.119 135zm21.798 2.569h1.304v7.177h-1.304v-7.177zm.018-3.259v1.293h1.328v-1.294l-1.328.001zm-10.385 3.27h1.305v7.178h-1.304l-.001-7.178zm.018-3.26v1.294h1.329v-1.294h-1.329z"/><path d="M35.526 137.58h1.304v7.178h-1.304v-7.178zm.018-3.26v1.294h1.328v-1.294h-1.328zm3.092 4.235v-1.03h5.49v.869l-3.967 5.379h4.177v.978h-5.7v-.834l3.92-5.362h-3.92zm13.674-1.195c2.158 0 3.12 1.575 3.283 3.393.162 1.818-.602 4.001-2.988 4.187-2.385.187-3.578-1.74-3.578-3.772s1.125-3.807 3.283-3.807v-.001zm-.052 1.038c-.803 0-1.754.483-1.875 2.454-.122 1.97.672 3.052 1.938 3.052s1.935-1.15 1.935-3.052c0-1.903-1.194-2.454-1.998-2.454z"/></g><path d="M182.375 167.749h-2.22V160.4h2.22v7.349zm0 3.865h-2.22v-1.974h2.22v1.974zm-19.085-8.158h1.597l.08 1.163c.655-.975 1.503-1.41 2.546-1.301.604.062 1.877.26 2.257 1.975.14.629.11 1.69.1 3.134-.005.56-.005 1.531 0 2.912h-1.753V166.4c0-.58-.162-1.229-.65-1.474-.669-.338-1.929-.196-2.434.654v5.758h-1.742v-7.883l-.001.001zm-47.232 3.717v-1.293h3.914c.045 2.255.045 3.57 0 3.944-.33.987-4.239 2.782-6.763.506-.752-.68-1.106-1.43-1.3-2.569-.008-1.162-.029-2.253-.02-3.284.19-1.264.614-1.982.955-2.39 1.24-1.484 3.218-1.803 4.957-1.202 1.738.601 1.964 1.85 2.105 3.071-.403 0-.615-.017-1.703 0 .11-.687-.515-2.015-2.146-1.942-1.631.073-2.402 1.413-2.402 2.53 0 1.117-.058.742 0 2.96.075 2.549 3.129 3.233 4.548 1.871l.052-2.17-2.197-.032zm58.786-3.857c2.184 0 3.369 1.331 3.668 3.326.3 1.995-.777 4.813-3.514 4.813-2.737 0-3.623-2.081-3.623-4.235 0-2.154 1.285-3.904 3.469-3.904zm.02 1.398c-.65.06-1.8.515-1.733 2.669.067 2.154 1.009 2.66 1.733 2.66.724 0 1.944-.201 1.944-2.65 0-2.45-1.295-2.74-1.944-2.68v.001zm-52.966-1.197c.71.022 1.272.022 1.687 0v4.435c0 1.76.646 2.061 1.274 2.122a1.996 1.996 0 0 0 1.834-.874c.015-2.024.015-3.918 0-5.683h1.808v7.83h-1.546l-.165-1.15c-.546.941-1.402 1.36-2.568 1.257-1.75-.155-2.324-1.648-2.324-3.035 0-2.421-.038-3.681 0-4.902zm10.295 2.16c-.535-.003-1.096-.003-1.683 0 0-.844.604-2.375 3.021-2.375 2.418 0 2.998 1.66 3.064 2.018.065.357-.169 5.372.337 5.942l-1.796.001c-.148-.507-.222-.882-.222-1.125-.28.342-.762.967-1.503 1.197-.74.23-2.423.352-3.111-1.262-.454-1.063-.165-2.26.688-2.808 1.41-.906 3.348-.603 3.926-.603.074-1.615-.408-1.991-1.503-1.991-.73 0-1.136.335-1.218 1.006zm2.72 2.09a29.14 29.14 0 0 0-1.774.014c-.705.062-1.332.583-1.279 1.326.064.885 1.07 1.048 1.859.793.661-.215 1.122-.768 1.194-1.003v-1.13zm13.59-2.09c-.535-.003-1.096-.003-1.683 0 0-.844.604-2.375 3.021-2.375 2.418 0 2.998 1.66 3.064 2.018.065.357-.169 5.372.337 5.942l-1.796.001c-.148-.507-.222-.882-.222-1.125-.28.342-.763.967-1.503 1.197-.74.23-2.423.352-3.112-1.262-.454-1.063-.164-2.26.69-2.808 1.409-.906 3.346-.603 3.925-.603.074-1.615-.408-1.991-1.503-1.991-.73 0-1.136.335-1.218 1.006zm2.72 2.09a29.14 29.14 0 0 0-1.774.014c-.705.062-1.333.583-1.279 1.326.064.885 1.07 1.048 1.859.793.66-.215 1.122-.768 1.194-1.003v-1.13zm-8.048-7.703h1.704v11.286h-1.401c-.078-.332-.15-.665-.213-1-.28.78-3.127 2.155-4.536-.173-1.178-1.946-.53-4.56.07-5.505.45-.71 2.276-2.534 4.376-.303a853.79 853.79 0 0 0 0-4.305zm.01 5.691c-.272-.86-2.097-1.404-2.83-.35-.732 1.053-.698 2.403-.279 3.639.42 1.235 2.21 1.471 3.11.112v-3.4l-.001-.001zm16.645-1.247l.175-.992h1.434v7.944c.005 2.769-3.104 3.83-5.96 2.446.163-.816.253-1.273.27-1.37 1.244.416 4.341 1.456 3.947-1.991-1.778 1.822-3.79.718-4.487-.498-.768-1.343-1.268-5.349 1.204-6.43 1.424-.622 2.563-.325 3.416.891h.001zm-.15 1.211c-.338-.512-.555-.939-1.69-.939-1.137 0-1.848 1.394-1.601 3.534.246 2.14 2.569 2.14 3.291.787v-3.382z" fill="#FFF" fill-rule="nonzero"/><path d="M23.04 19.705c0-.465-.164-.838-.493-1.12-.33-.283-.907-.548-1.731-.797-1.439-.415-2.526-.908-3.262-1.478-.736-.57-1.104-1.35-1.104-2.34 0-.991.422-1.8 1.265-2.428.844-.629 1.922-.943 3.234-.943 1.328 0 2.41.353 3.245 1.059.836.705 1.24 1.575 1.212 2.61l-.016.05h-2.35c0-.559-.186-1.011-.56-1.357-.373-.346-.898-.519-1.573-.519-.647 0-1.148.144-1.502.432a1.36 1.36 0 0 0-.532 1.104c0 .41.19.745.57 1.008.378.263 1.032.541 1.962.835 1.334.37 2.344.86 3.03 1.469.686.609 1.03 1.408 1.03 2.399 0 1.035-.409 1.85-1.225 2.448-.816.598-1.894.897-3.233.897-1.317 0-2.466-.339-3.445-1.017-.98-.678-1.455-1.628-1.428-2.851l.017-.05h2.357c0 .72.22 1.246.66 1.581.44.335 1.053.502 1.839.502.658 0 1.162-.135 1.51-.406.35-.271.523-.634.523-1.088zm9.546 1.86c-.276.47-.628.833-1.054 1.087-.426.255-.916.382-1.47.382-.945 0-1.686-.303-2.22-.909-.534-.606-.8-1.548-.8-2.826v-5.42h2.415v5.436c0 .653.11 1.122.332 1.407.221.285.548.428.98.428.387 0 .719-.063.996-.187a1.68 1.68 0 0 0 .68-.552v-6.533h2.424v8.982h-2.067l-.216-1.295zm12.21-2.947c0 1.328-.306 2.396-.92 3.204-.615.808-1.473 1.212-2.574 1.212-.47 0-.888-.087-1.253-.262-.37-.177-.69-.44-.938-.767v4.308h-2.416V13.878h2.183l.141 1.063c.266-.393.586-.696.96-.91.373-.212.809-.319 1.307-.319 1.112 0 1.975.435 2.59 1.303.614.87.92 2.012.92 3.429v.174zm-2.423-.174c0-.847-.141-1.533-.423-2.059-.283-.526-.714-.789-1.295-.789-.366 0-.677.075-.934.225a1.6 1.6 0 0 0-.61.639v3.934c.15.255.353.449.61.581.257.133.574.2.95.2.587 0 1.017-.23 1.291-.69.274-.459.411-1.081.411-1.867v-.174zm7.894 4.59c-1.295 0-2.33-.415-3.104-1.245-.775-.83-1.163-1.884-1.163-3.163v-.332c0-1.333.367-2.432 1.1-3.295.733-.864 1.717-1.292 2.951-1.287 1.212 0 2.153.365 2.822 1.096.67.73 1.005 1.718 1.005 2.963v1.32h-5.362l-.017.05c.044.592.242 1.079.593 1.46.352.383.83.574 1.432.574.537 0 .983-.054 1.337-.162.404-.13.793-.3 1.162-.51l.656 1.493c-.366.3-.844.547-1.436.743a6.249 6.249 0 0 1-1.976.295zm-.216-7.454c-.448 0-.802.171-1.062.514-.26.344-.42.795-.482 1.354l.025.041h2.972v-.216c0-.514-.12-.925-.361-1.232-.241-.308-.605-.461-1.092-.461zm9.961.382l-.888-.025c-.36 0-.656.074-.888.224-.233.15-.41.36-.531.63v6.069h-2.416v-8.982h2.25l.107 1.328c.21-.47.483-.837.818-1.1.335-.262.72-.394 1.158-.394.122 0 .234.01.336.03.103.019.206.042.311.07l-.257 2.15zm3.777 6.898h-2.424v-8.982h2.424v8.982zm0-11.132h-2.424V9.91h2.424v1.818zm1.619 6.558c0-1.34.373-2.436 1.12-3.291.747-.855 1.782-1.283 3.105-1.283 1.328 0 2.368.426 3.12 1.278.753.853 1.13 1.951 1.13 3.296v.174c0 1.35-.375 2.45-1.125 3.3-.75.85-1.786 1.274-3.109 1.274-1.328 0-2.367-.425-3.117-1.274-.75-.85-1.124-1.95-1.124-3.3v-.174zm2.415.174c0 .82.144 1.476.432 1.972.288.495.752.743 1.394.743.626 0 1.084-.25 1.374-.748.29-.498.436-1.153.436-1.967v-.174c0-.797-.147-1.447-.44-1.95-.293-.504-.755-.756-1.386-.756-.626 0-1.084.253-1.374.76-.29.506-.436 1.155-.436 1.946v.174zM80.1 15.962l-.888-.025c-.36 0-.656.074-.888.224-.233.15-.41.36-.532.63v6.069h-2.415v-8.982h2.25l.107 1.328c.21-.47.483-.837.818-1.1.335-.262.72-.394 1.158-.394.122 0 .234.01.336.03.102.019.206.042.311.07l-.257 2.15zm5.205 7.072c-1.295 0-2.33-.415-3.105-1.245-.775-.83-1.162-1.884-1.162-3.163v-.332c0-1.333.367-2.432 1.1-3.295.733-.864 1.717-1.292 2.95-1.287 1.213 0 2.153.365 2.823 1.096.67.73 1.004 1.718 1.004 2.963v1.32h-5.362l-.016.05c.044.592.242 1.079.593 1.46.351.383.829.574 1.432.574.537 0 .982-.054 1.336-.162.404-.13.793-.3 1.162-.51l.656 1.493c-.365.3-.844.547-1.436.743a6.249 6.249 0 0 1-1.975.295zm-.216-7.454c-.448 0-.803.171-1.063.514-.26.344-.42.795-.481 1.354l.025.041h2.971v-.216c0-.514-.12-.925-.36-1.232-.241-.308-.605-.461-1.092-.461z" fill="#000" fill-rule="nonzero"/></g></svg>