<svg width="299" height="197" xmlns="http://www.w3.org/2000/svg"><g fill="none" fill-rule="evenodd"><path fill="#F1F2F2" d="M0 0h299v197H0z"/><path d="M1.993 1.98v193.04h295.014V1.98H1.993zM299 0v197H0V0h299z" fill="#C2C2C2" fill-rule="nonzero"/><path d="M41.615 53.857v18.905H76.77V53.857H41.615zm0-.976H76.77V33h.973v19.881h35.155V33h.974v19.881h35.155V33H150v19.881h35.155V33h.973v19.881h35.156V33h.973v19.881h35.155V33h.973v19.881H295v.976h-36.615v18.905H295v.976h-36.615v18.905H295v.976h-36.615v18.905H295v.976h-36.615v18.905H295v.976h-36.615v18.905H295v.976h-36.615v18.905H295v.976h-36.615V194h-.973v-20.857h-35.155V194h-.973v-20.857h-35.156V194h-.973v-20.857H150V194h-.973v-20.857h-35.155V194h-.974v-20.857H77.743V194h-.973v-20.857H41.615V194h-.973v-20.857H5v-.976h35.642v-18.905H5v-.976h35.642v-18.905H5v-.976h35.642V113.5H5v-.976h35.642V93.62H5v-.976h35.642V73.738H5v-.976h35.642V53.857H5v-.976h35.642V33h.973v19.881zm215.797.976h-35.155v18.905h35.155V53.857zm-36.128 0h-35.156v18.905h35.156V53.857zm-36.129 0H150v18.905h35.155V53.857zm-36.128 0h-35.155v18.905h35.155V53.857zm-36.129 0H77.743v18.905h35.155V53.857zm-71.283 19.88v18.906H76.77V73.738H41.615zm215.797 0h-35.155v18.906h35.155V73.738zm-36.128 0h-35.156v18.906h35.156V73.738zm-36.129 0H150v18.906h35.155V73.738zm-36.128 0h-35.155v18.906h35.155V73.738zm-36.129 0H77.743v18.906h35.155V73.738zM41.615 93.62v18.905H76.77V93.62H41.615zm215.797 0h-35.155v18.905h35.155V93.62zm-36.128 0h-35.156v18.905h35.156V93.62zm-36.129 0H150v18.905h35.155V93.62zm-36.128 0h-35.155v18.905h35.155V93.62zm-36.129 0H77.743v18.905h35.155V93.62zM41.615 113.5v18.905H76.77V113.5H41.615zm215.797 0h-35.155v18.905h35.155V113.5zm-36.128 0h-35.156v18.905h35.156V113.5zm-36.129 0H150v18.905h35.155V113.5zm-36.128 0h-35.155v18.905h35.155V113.5zm-36.129 0H77.743v18.905h35.155V113.5zm-71.283 19.881v18.905H76.77v-18.905H41.615zm215.797 0h-35.155v18.905h35.155v-18.905zm-36.128 0h-35.156v18.905h35.156v-18.905zm-36.129 0H150v18.905h35.155v-18.905zm-36.128 0h-35.155v18.905h35.155v-18.905zm-36.129 0H77.743v18.905h35.155v-18.905zm-71.283 19.881v18.905H76.77v-18.905H41.615zm215.797 0h-35.155v18.905h35.155v-18.905zm-36.128 0h-35.156v18.905h35.156v-18.905zm-36.129 0H150v18.905h35.155v-18.905zm-36.128 0h-35.155v18.905h35.155v-18.905zm-36.129 0H77.743v18.905h35.155v-18.905z" fill="#DFDEDE" fill-rule="nonzero"/><path fill="#C2C2C2" d="M5 31h290v2H5z"/><g transform="translate(3 33.997)"><path d="M254.007.725h1.212V161h-1.212V.725zM.9 40.017v-1.21h290.625v1.21H.9zm0 79.339v-1.212h290.625v1.212H.9z" fill="#2A3052" fill-rule="nonzero"/><path d="M36.797 83.695a1.817 1.817 0 0 1-1.594-3.264l41.625-20.326a1.817 1.817 0 0 1 1.742.08l38.501 23.45 27.866-27.503a1.816 1.816 0 0 1 2.453-.09l35.767 30.418 35.592-26.186a1.817 1.817 0 0 1 1.551-.29l36.788 9.976a1.816 1.816 0 0 1-.95 3.506l-35.942-9.746-36.045 26.518c-.678.5-1.611.467-2.253-.08l-35.594-30.27-27.69 27.33a1.816 1.816 0 0 1-2.22.258l-38.865-23.67-40.732 19.89z" fill="#2A3052" fill-rule="nonzero"/><path d="M184.613 113H149.55l-5.4-8.213-5.4 8.213h-35.063a4.747 4.747 0 0 0-4.724 4.8v24.788a4.77 4.77 0 0 0 4.725 4.8h80.962a4.747 4.747 0 0 0 4.725-4.8V117.8a4.777 4.777 0 0 0-4.762-4.8z" fill="#E88024"/><ellipse fill="#FFF" opacity=".6" cx="256.613" cy="73.1" rx="8.137" ry="8.475"/><path d="M256.613 82.786c-5.174 0-9.348-4.347-9.348-9.686 0-5.339 4.174-9.686 9.348-9.686s9.348 4.347 9.348 9.686c0 5.339-4.174 9.686-9.348 9.686zm0-2.422c3.814 0 6.926-3.241 6.926-7.264s-3.112-7.264-6.926-7.264-6.926 3.241-6.926 7.264 3.112 7.264 6.926 7.264z" fill="#E88024" fill-rule="nonzero"/><ellipse fill="#FFF" opacity=".6" cx="36" cy="82.063" rx="8.137" ry="8.475"/><path d="M36 91.749c-5.174 0-9.348-4.347-9.348-9.686 0-5.339 4.174-9.686 9.348-9.686s9.348 4.347 9.348 9.686c0 5.339-4.174 9.686-9.348 9.686zm0-2.422c3.814 0 6.926-3.241 6.926-7.264S39.814 74.799 36 74.799s-6.926 3.241-6.926 7.264 3.112 7.264 6.926 7.264z" fill="#E88024" fill-rule="nonzero"/></g><path d="M16.095 18.19v4.007h-2.01V12.174h3.47c1.142 0 2.036.26 2.68.781.645.521.968 1.247.968 2.18 0 .513-.137.957-.41 1.331-.273.374-.671.676-1.194.905.592.175 1.017.466 1.277.875.259.408.389.913.389 1.514v.737c0 .28.037.572.113.878.076.305.206.53.39.678v.144h-2.073c-.184-.147-.302-.39-.355-.73a6.41 6.41 0 0 1-.079-.984v-.709c0-.5-.136-.89-.41-1.167-.272-.277-.659-.416-1.16-.416h-1.596v-.001zm0-1.548h1.425c.564 0 .984-.12 1.26-.358.275-.239.412-.592.412-1.06 0-.46-.138-.824-.416-1.095-.278-.27-.685-.406-1.222-.406h-1.46v2.919h.001zm10.05 5.7c-1.11 0-1.978-.341-2.602-1.022-.624-.682-.936-1.56-.936-2.634v-.275c0-1.115.303-2.029.909-2.74.606-.711 1.438-1.065 2.499-1.06 1 0 1.768.306 2.302.919.535.613.802 1.438.802 2.475v1.04h-4.44l-.02.04c.032.51.186.923.464 1.24.278.316.69.475 1.236.475.45 0 .832-.046 1.146-.138.314-.092.64-.232.974-.42l.544 1.24c-.298.243-.702.447-1.212.612a5.373 5.373 0 0 1-1.666.248zm-.13-6.182c-.404 0-.715.139-.933.416-.218.278-.35.646-.396 1.105l.014.035h2.45v-.152c0-.436-.089-.779-.268-1.029-.179-.25-.468-.375-.867-.375zm8.302 3.972c0-.22-.107-.41-.32-.568-.214-.158-.61-.297-1.188-.416-.872-.175-1.534-.439-1.986-.792-.452-.353-.678-.833-.678-1.439 0-.638.27-1.182.812-1.631.542-.45 1.263-.675 2.162-.675.94 0 1.695.225 2.262.675.566.45.838 1.01.815 1.68l-.013.04H34.24a.975.975 0 0 0-.289-.73c-.193-.187-.47-.281-.833-.281-.321 0-.576.08-.764.24a.75.75 0 0 0-.282.593c0 .23.097.416.292.56.195.145.591.275 1.188.39.913.183 1.593.453 2.04.809.448.355.672.845.672 1.47 0 .67-.287 1.218-.86 1.645-.574.426-1.331.64-2.272.64-.991 0-1.775-.251-2.351-.754-.576-.503-.85-1.075-.823-1.718l.014-.04h1.838c.014.398.145.688.392.866.248.18.572.269.971.269.372 0 .655-.075.85-.224a.726.726 0 0 0 .293-.609h.001zm5.652-7.208v1.825h1.26v1.41h-1.26v3.794c0 .29.06.496.182.62a.64.64 0 0 0 .479.185 1.848 1.848 0 0 0 .543-.075l.166 1.452c-.389.14-.799.21-1.212.207-.693 0-1.226-.19-1.6-.572-.374-.38-.562-.984-.562-1.81v-3.8h-1.087v-1.411h1.087v-1.825h2.004zm6.89 9.273a4.228 4.228 0 0 1-.189-.537 3.735 3.735 0 0 1-.113-.578c-.207.363-.48.663-.82.902-.339.238-.743.358-1.21.358-.781 0-1.382-.201-1.805-.603-.422-.401-.633-.948-.633-1.641 0-.73.281-1.296.843-1.697.563-.402 1.383-.603 2.461-.603h1.13v-.592c0-.358-.095-.635-.283-.833-.188-.197-.468-.296-.84-.296-.326 0-.577.08-.753.238-.177.158-.266.375-.266.65h-1.934l-.014-.041c-.032-.629.242-1.171.823-1.628.58-.457 1.339-.685 2.275-.685.895 0 1.62.225 2.172.675.553.45.83 1.094.83 1.934v3.077c0 .349.026.677.079.985.053.307.136.612.251.915h-2.004zm-1.837-1.342c.349 0 .66-.087.936-.262.275-.174.463-.376.564-.606v-1.053h-1.129c-.426 0-.749.106-.967.317a1.04 1.04 0 0 0-.327.778c0 .252.082.453.245.602.163.15.389.224.678.224zm8.68 1.342V12.174H57.2c1.225 0 2.235.391 3.029 1.174.794.782 1.19 1.786 1.19 3.011v1.66c0 1.23-.396 2.233-1.19 3.011-.794.778-1.804 1.167-3.03 1.167h-3.497zm2.01-8.474v6.932H57.2c.66 0 1.193-.246 1.597-.74.404-.493.606-1.125.606-1.896v-1.673c0-.767-.202-1.395-.606-1.887-.404-.49-.936-.736-1.597-.736h-1.488zm10.396 8.619c-1.11 0-1.978-.341-2.602-1.022-.625-.682-.937-1.56-.937-2.634v-.275c0-1.115.303-2.029.909-2.74.606-.711 1.439-1.065 2.499-1.06 1 0 1.768.306 2.303.919.534.613.802 1.438.802 2.475v1.04h-4.44l-.021.04c.032.51.187.923.464 1.24.278.316.69.475 1.236.475.45 0 .832-.046 1.146-.138a4.66 4.66 0 0 0 .974-.42l.544 1.24c-.298.243-.702.447-1.211.612a5.373 5.373 0 0 1-1.666.248zm-.131-6.182c-.404 0-.715.139-.933.416-.218.278-.35.646-.396 1.105l.014.035h2.45v-.152c0-.436-.089-.779-.268-1.029-.179-.25-.468-.375-.867-.375zm6.113-1.411l.09 1.067c.247-.381.553-.677.915-.888a2.38 2.38 0 0 1 1.219-.317c.752 0 1.34.242 1.762.726.422.484.633 1.25.633 2.296v4.564h-2.017V17.64c0-.532-.093-.91-.279-1.132-.185-.223-.464-.334-.836-.334a1.76 1.76 0 0 0-.788.168 1.539 1.539 0 0 0-.561.465v5.39h-2.01V14.75h1.872v-.001zm8.53-1.825v1.825h1.26v1.41h-1.26v3.794c0 .29.06.496.182.62a.64.64 0 0 0 .478.185 1.853 1.853 0 0 0 .544-.075l.165 1.452c-.389.14-.799.21-1.212.207-.692 0-1.226-.19-1.6-.572-.374-.38-.56-.984-.56-1.81v-3.8h-1.088v-1.411h1.087v-1.825h2.004zm6.416 3.553l-.737-.021c-.298 0-.544.062-.737.186-.192.124-.34.298-.44.523v5.032h-2.004V14.75h1.866l.09 1.101c.174-.39.4-.694.678-.912.277-.218.597-.327.96-.327.1 0 .194.008.279.024.085.016.17.036.258.059l-.213 1.783v-.001zm.598 1.927c0-1.11.31-2.02.93-2.73.62-.709 1.478-1.063 2.574-1.063 1.102 0 1.965.353 2.589 1.06.624.707.936 1.618.936 2.733v.145c0 1.12-.31 2.032-.933 2.736-.622.705-1.48 1.057-2.578 1.057-1.101 0-1.963-.352-2.585-1.057-.622-.704-.933-1.617-.933-2.736v-.145zm2.004.145c0 .679.119 1.224.358 1.635.238.41.624.616 1.156.616.519 0 .899-.207 1.14-.62.24-.413.36-.957.36-1.631v-.145c0-.66-.12-1.2-.364-1.618-.243-.417-.626-.626-1.15-.626-.518 0-.898.21-1.139.63-.24.42-.361.958-.361 1.614v.145z" fill="#020202" fill-rule="nonzero"/><path d="M22.877 60.824h-2.9l-1.178 7.86h-1.19l1.178-7.86h-2.864l.14-.936h6.953l-.14.936h.001zm3.244 7.86a16.007 16.007 0 0 1-.012-.547c0-.139.008-.28.024-.426-.27.31-.6.571-.988.783a2.469 2.469 0 0 1-1.193.317c-.656 0-1.143-.176-1.459-.529-.316-.352-.428-.83-.335-1.435a1.998 1.998 0 0 1 .966-1.48c.552-.342 1.267-.513 2.145-.513h1.293l.097-.647c.06-.398-.01-.706-.209-.921-.2-.215-.514-.323-.945-.323a1.65 1.65 0 0 0-.967.29c-.278.193-.435.425-.471.695l-1.136.012-.006-.037c.048-.495.336-.935.864-1.32.528-.384 1.168-.577 1.921-.577.713 0 1.273.19 1.68.571.406.38.56.922.459 1.622l-.472 3.148a5.17 5.17 0 0 0-.069.686 3.41 3.41 0 0 0 .04.63H26.12l.001.001zm-1.843-.87c.411 0 .81-.113 1.196-.338.387-.226.655-.48.804-.762l.163-1.057h-1.335c-.463 0-.862.123-1.196.369-.334.245-.524.527-.568.845-.048.303.005.535.16.698.155.163.414.245.776.245zm8.543-4.616l-.604-.036c-.31 0-.584.078-.822.233-.25.168-.457.392-.604.655l-.695 4.634h-1.19l.979-6.537h1.063l-.024.925c.233-.33.5-.587.797-.77.37-.227.807-.317 1.236-.254.082.014.148.029.196.045l-.332 1.105zm.561 2.338c.162-1.091.512-1.949 1.052-2.573.54-.624 1.216-.937 2.03-.937.406 0 .755.087 1.045.26.29.173.52.423.688.75l.278-.889h.949l-.985 6.573c-.133.87-.472 1.521-1.018 1.954-.546.433-1.284.65-2.214.65-.302 0-.632-.044-.99-.133a3.582 3.582 0 0 1-.92-.35l.321-.925c.214.121.476.219.788.293.313.075.626.112.94.112.556 0 .992-.134 1.308-.402.316-.268.514-.667.595-1.199l.109-.743a2.594 2.594 0 0 1-.861.622c-.32.141-.674.212-1.06.212-.766 0-1.338-.292-1.716-.876-.379-.584-.498-1.341-.357-2.272l.018-.127zm1.172.127c-.104.68-.05 1.215.16 1.601.212.387.602.58 1.17.58.346 0 .654-.083.924-.25.27-.168.507-.402.713-.704l.453-2.99a1.552 1.552 0 0 0-.505-.662c-.22-.163-.502-.245-.848-.245-.544 0-.994.24-1.35.719-.357.48-.59 1.087-.698 1.824l-.019.127zm8.29 3.148c-.903 0-1.58-.304-2.034-.913-.453-.608-.607-1.393-.462-2.356l.042-.265c.141-.975.525-1.76 1.151-2.356.626-.597 1.336-.895 2.13-.895.841 0 1.448.276 1.818.828.37.552.49 1.27.357 2.157l-.091.628h-4.229c-.093.693-.024 1.24.205 1.64.23.401.647.601 1.251.601a3.23 3.23 0 0 0 1.078-.175 2.83 2.83 0 0 0 .861-.471l.35.773a3.439 3.439 0 0 1-1.008.571c-.407.155-.88.233-1.42.233h.001zm.688-5.848c-.399 0-.76.16-1.085.483-.334.34-.574.76-.697 1.22l.012.037h2.942l.012-.097c.072-.487.016-.883-.17-1.187-.185-.304-.523-.456-1.014-.456zM49.5 60.57l-.236 1.577h1.238l-.133.882h-1.238L48.54 67c-.048.318-.02.536.088.655.106.119.266.178.48.178a1.62 1.62 0 0 0 .453-.085l.042.816c-.1.073-.24.132-.42.178a2.05 2.05 0 0 1-.522.07c-.467 0-.827-.147-1.079-.441-.251-.294-.329-.751-.232-1.372l.592-3.969h-1.04l.134-.882h1.039l.235-1.577h1.19v-.001zm8.39 8.114c-.007-.182-.01-.365-.011-.547 0-.139.008-.28.024-.426-.27.31-.6.571-.988.783a2.469 2.469 0 0 1-1.193.317c-.657 0-1.143-.176-1.459-.529-.316-.352-.428-.83-.335-1.435a1.998 1.998 0 0 1 .966-1.48c.552-.342 1.267-.513 2.145-.513h1.293l.096-.647c.06-.398-.009-.706-.208-.921-.2-.215-.514-.323-.945-.323a1.65 1.65 0 0 0-.967.29c-.278.193-.435.425-.471.695l-1.136.012-.006-.037c.048-.495.336-.935.864-1.32.527-.384 1.168-.577 1.921-.577.713 0 1.273.19 1.68.571.406.38.56.922.459 1.622l-.472 3.148a5.17 5.17 0 0 0-.07.686c-.005.211.008.421.04.63h-1.226l-.001.001zm-1.842-.87c.411 0 .81-.113 1.196-.338.387-.226.655-.48.804-.762l.163-1.057h-1.335c-.463 0-.862.123-1.196.369-.335.245-.524.527-.568.845-.049.303.005.535.16.698.155.163.414.245.776.245zm5.915.87h-1.19l1.413-9.424h1.19l-1.413 9.424zm4.7-8.114l-.236 1.577h1.239l-.133.882h-1.239L65.703 67c-.048.318-.019.536.088.655.106.119.267.178.48.178a1.62 1.62 0 0 0 .453-.085l.042.816c-.1.073-.24.132-.42.178a2.05 2.05 0 0 1-.522.07c-.467 0-.827-.147-1.078-.441-.252-.294-.33-.751-.233-1.372l.592-3.969h-1.04l.134-.882h1.039l.236-1.577h1.19l-.001-.001zm1.522 4.785c.15-1.003.529-1.808 1.139-2.416.61-.609 1.368-.913 2.274-.913.87 0 1.53.316 1.979.946.449.63.603 1.425.462 2.383l-.024.133c-.153 1.01-.534 1.817-1.142 2.42-.608.602-1.367.903-2.277.903-.87 0-1.53-.314-1.979-.943-.45-.628-.601-1.421-.456-2.38l.024-.133zm1.166.133c-.109.717-.05 1.295.175 1.734.226.439.629.658 1.208.658.544 0 1.002-.228 1.375-.685.372-.457.611-1.026.716-1.707l.024-.133c.105-.709.043-1.285-.184-1.728-.228-.443-.63-.664-1.206-.664-.547 0-1.007.23-1.38.692-.373.46-.607 1.028-.704 1.7l-.024.133zM17.85 162.922h-2.766l-1.124 7.497h-1.135l1.123-7.497h-2.73l.132-.893h6.632l-.133.893h.001zm3.094 7.497a15.268 15.268 0 0 1-.012-.522c0-.132.008-.268.023-.406a3.366 3.366 0 0 1-.942.746 2.35 2.35 0 0 1-1.138.303c-.626 0-1.09-.168-1.392-.504-.301-.336-.408-.793-.32-1.369.072-.588.413-1.11.923-1.411.526-.327 1.208-.49 2.045-.49h1.233l.092-.617c.058-.38-.008-.673-.198-.879-.19-.205-.491-.308-.902-.308-.35 0-.657.092-.922.277-.265.184-.415.405-.45.662l-1.083.012-.006-.035c.047-.472.321-.892.824-1.259.504-.366 1.114-.55 1.833-.55.68 0 1.214.182 1.602.545.388.363.534.878.438 1.547l-.45 3.002a4.93 4.93 0 0 0-.066.654c-.006.201.007.402.037.602h-1.17.001zm-1.758-.83c.392 0 .772-.107 1.141-.323.369-.215.624-.457.766-.726l.156-1.008h-1.273c-.442 0-.823.117-1.141.352-.32.234-.5.503-.542.806-.046.288.005.51.153.666.148.155.394.233.74.233zm8.148-4.402l-.577-.035a1.4 1.4 0 0 0-.783.222c-.238.16-.436.374-.576.625l-.663 4.42H23.6l.933-6.235h1.014l-.023.882a2.62 2.62 0 0 1 .761-.735c.352-.217.77-.302 1.178-.242.08.014.141.028.188.043l-.317 1.055zm.536 2.23c.153-1.041.487-1.86 1.002-2.455s1.16-.893 1.936-.893c.388 0 .72.083.997.248.277.165.496.403.657.714l.265-.847h.905l-.94 6.27c-.126.83-.45 1.45-.97 1.863-.521.413-1.225.62-2.112.62a3.96 3.96 0 0 1-.945-.127c-.306-.07-.6-.183-.876-.334l.305-.882c.204.116.455.209.752.28.298.07.597.106.896.106.53 0 .946-.127 1.248-.383.301-.255.49-.636.567-1.144l.104-.708c-.23.252-.51.454-.821.593-.32.137-.664.206-1.011.202-.73 0-1.276-.279-1.637-.836-.36-.557-.474-1.279-.34-2.166l.018-.121zm1.117.12c-.1.65-.049 1.159.153 1.528s.573.553 1.115.553c.33 0 .624-.08.882-.24a2.28 2.28 0 0 0 .68-.67l.432-2.853a1.48 1.48 0 0 0-.481-.63c-.21-.156-.48-.234-.81-.234-.519 0-.948.229-1.288.686-.34.457-.562 1.037-.665 1.74l-.018.12zm7.906 3.003c-.86 0-1.507-.29-1.939-.87-.432-.58-.58-1.33-.44-2.247l.04-.254c.134-.93.5-1.679 1.097-2.247.598-.569 1.275-.853 2.031-.853.803 0 1.381.263 1.735.79.353.526.466 1.211.34 2.057l-.087.599h-4.033c-.089.66-.023 1.182.196 1.564.219.382.616.574 1.192.574a3.08 3.08 0 0 0 1.029-.168 2.7 2.7 0 0 0 .821-.449l.334.738a3.28 3.28 0 0 1-.962.544c-.388.148-.84.222-1.354.222zm.657-5.578c-.38 0-.725.154-1.035.461a2.63 2.63 0 0 0-.665 1.164l.012.035h2.806l.011-.093c.07-.464.016-.842-.161-1.132-.177-.29-.5-.435-.968-.435zm5.693-2.282l-.225 1.504h1.181l-.127.842h-1.18l-.565 3.785c-.047.304-.019.512.083.625.102.114.255.17.458.17.147-.006.293-.033.432-.08l.04.778a1.212 1.212 0 0 1-.4.17 1.99 1.99 0 0 1-.498.066c-.446 0-.789-.14-1.029-.42-.24-.281-.314-.717-.222-1.309l.565-3.785h-.991l.127-.842h.99l.226-1.504h1.135zm9.928 4.858c-.142.933-.467 1.667-.974 2.201-.507.534-1.143.8-1.907.8-.404 0-.746-.084-1.026-.253-.28-.169-.5-.416-.657-.743l-.323.876h-.87l1.349-8.989h1.135l-.525 3.492a2.52 2.52 0 0 1 .83-.634c.327-.15.683-.224 1.043-.219.738 0 1.282.31 1.634.93.351.621.454 1.427.308 2.418l-.017.12v.001zm-1.118-.121c.111-.742.069-1.331-.127-1.77-.196-.437-.565-.656-1.106-.656-.338 0-.643.087-.914.262-.27.175-.5.41-.688.706l-.403 2.685c.1.307.255.547.466.718.212.17.498.256.859.256.515 0 .936-.193 1.265-.58.328-.385.538-.886.63-1.5l.018-.121zm5.9 3.002a15.15 15.15 0 0 1-.011-.522c0-.132.007-.268.023-.406a3.366 3.366 0 0 1-.942.746c-.371.202-.75.303-1.138.303-.627 0-1.09-.168-1.392-.504-.301-.336-.408-.793-.32-1.369.071-.588.412-1.11.922-1.411.526-.327 1.208-.49 2.046-.49h1.233l.092-.617c.058-.38-.009-.673-.199-.879-.19-.205-.49-.308-.902-.308-.35 0-.656.092-.921.277-.266.184-.415.405-.45.662l-1.083.012-.006-.035c.046-.472.32-.892.824-1.259.503-.366 1.114-.55 1.832-.55.68 0 1.214.182 1.602.545.388.363.534.878.438 1.547l-.45 3.002a4.93 4.93 0 0 0-.066.654c-.005.201.007.402.038.602h-1.17zm-1.757-.83c.392 0 .772-.107 1.14-.323.37-.215.625-.457.767-.726l.156-1.008h-1.274c-.442 0-.822.117-1.14.352-.32.234-.5.503-.542.806-.046.288.004.51.152.666.148.155.395.233.74.233h.001zm8.303-.847c.034-.257-.03-.463-.196-.616-.165-.154-.507-.29-1.026-.41-.714-.157-1.25-.378-1.604-.662-.356-.284-.499-.665-.43-1.141.073-.53.349-.97.827-1.32.478-.35 1.065-.524 1.76-.524.677 0 1.214.194 1.614.582.4.388.555.834.467 1.337l-.012.034H64.81a.857.857 0 0 0-.248-.737c-.203-.215-.488-.323-.853-.323-.384 0-.692.091-.924.274-.233.182-.366.397-.4.642-.035.254.022.446.172.577.15.13.488.251 1.014.363.742.16 1.289.39 1.642.685.354.296.498.682.433 1.158-.081.573-.367 1.029-.859 1.369-.492.34-1.102.51-1.832.51-.761 0-1.35-.204-1.766-.61-.417-.408-.578-.877-.482-1.407l.012-.034h1.089c-.035.403.075.698.328.884.254.186.569.28.945.28.388 0 .711-.087.968-.26.258-.173.408-.39.45-.65v-.001zm6.171 0c.035-.257-.03-.463-.196-.616-.165-.154-.507-.29-1.026-.41-.714-.157-1.249-.378-1.604-.662-.356-.284-.499-.665-.43-1.141.073-.53.35-.97.827-1.32.479-.35 1.065-.524 1.76-.524.677 0 1.214.194 1.614.582.4.388.555.834.467 1.337l-.012.034h-1.089a.857.857 0 0 0-.248-.737c-.203-.215-.487-.323-.852-.323-.385 0-.693.091-.925.274-.233.182-.366.397-.4.642-.035.254.022.446.172.577.15.13.488.251 1.014.363.742.16 1.29.39 1.643.685.353.296.497.682.432 1.158-.081.573-.367 1.029-.859 1.369-.492.34-1.102.51-1.832.51-.76 0-1.35-.204-1.766-.61-.417-.408-.577-.877-.481-1.407l.011-.034h1.09c-.035.403.074.698.328.884.253.186.568.28.945.28.388 0 .71-.087.968-.26.257-.173.407-.39.449-.65v-.001zm2.495-1.498c.142-.957.504-1.725 1.086-2.305.582-.58 1.305-.87 2.17-.87.83 0 1.458.3 1.887.902.428.601.575 1.359.44 2.273l-.023.127c-.146.964-.509 1.733-1.089 2.307-.58.575-1.304.862-2.172.862-.83 0-1.459-.3-1.887-.899-.428-.6-.573-1.356-.435-2.27l.023-.127zm1.112.127c-.104.684-.048 1.235.167 1.653.215.42.6.629 1.153.629.518 0 .955-.218 1.31-.654.356-.436.583-.98.683-1.628l.023-.127c.1-.676.042-1.225-.175-1.648-.217-.423-.6-.634-1.15-.634-.522 0-.961.22-1.317.66-.355.44-.579.98-.67 1.622l-.024.127z" fill="#6D6E71" fill-rule="nonzero"/><g fill="#2A3052" fill-rule="nonzero"><path d="M26.806 135.366l.107 1.107a2.413 2.413 0 0 1 2.143-1.214c.785 0 1.392.215 1.82.714.429.464.643 1.179.643 2.142v4.642h-1.321v-4.606c0-.642-.143-1.107-.393-1.392-.25-.286-.642-.393-1.142-.393-.393 0-.714.107-1 .286a2.062 2.062 0 0 0-.714.75v5.355h-1.32v-7.355l1.177-.036zm-4.674-2.632h1.234v9.752h-1.234v-9.752zm21.798 2.569h1.303v7.177H43.93v-7.177zm.017-3.259v1.294h1.329v-1.294h-1.329zm-10.384 3.27h1.305v7.179h-1.305v-7.179zm.018-3.26v1.295h1.329v-1.295h-1.329z"/><path d="M33.539 135.314h1.304v7.179h-1.304v-7.179zm.017-3.26v1.295h1.329v-1.295h-1.329zm3.092 4.236v-1.031h5.49v.87l-3.967 5.379h4.177v.978h-5.7v-.835l3.92-5.361h-3.92zm13.675-1.195c2.157 0 3.12 1.575 3.283 3.392.162 1.818-.603 4.002-2.988 4.188-2.386.186-3.578-1.74-3.578-3.772s1.125-3.808 3.283-3.808zm-.052 1.038c-.803 0-1.754.483-1.876 2.453-.121 1.97.673 3.053 1.939 3.053s1.935-1.15 1.935-3.053c0-1.902-1.195-2.453-1.998-2.453z"/></g><path d="M182.728 165.858h-2.22v-7.348h2.22v7.348zm0 3.866h-2.22v-1.974h2.22v1.974zm-19.085-8.159h1.597l.08 1.163c.655-.975 1.503-1.41 2.546-1.301.604.062 1.877.26 2.257 1.975.14.629.11 1.69.1 3.134-.005.561-.005 1.531 0 2.912h-1.753v-4.938c0-.58-.162-1.229-.65-1.474-.669-.338-1.929-.196-2.434.654v5.758h-1.743v-7.883zm-47.232 3.717v-1.293h3.914c.044 2.255.044 3.57 0 3.944-.33.987-4.239 2.782-6.763.506-.752-.679-1.106-1.43-1.3-2.569-.008-1.162-.029-2.253-.02-3.284.19-1.264.614-1.982.955-2.39 1.24-1.484 3.218-1.803 4.957-1.202 1.738.601 1.964 1.85 2.105 3.071-.403 0-.615-.017-1.703 0 .11-.687-.515-2.015-2.146-1.942-1.632.073-2.402 1.413-2.402 2.53 0 1.117-.058.742 0 2.96.075 2.549 3.129 3.233 4.548 1.871l.052-2.17-2.197-.032zm58.786-3.857c2.184 0 3.369 1.331 3.668 3.326.3 1.995-.777 4.813-3.514 4.813-2.737 0-3.623-2.081-3.623-4.235 0-2.154 1.285-3.904 3.469-3.904zm.02 1.398c-.65.06-1.8.515-1.733 2.669.067 2.154 1.009 2.66 1.733 2.66.723 0 1.944-.2 1.944-2.65 0-2.45-1.295-2.74-1.944-2.68v.001z" fill="#FFF" fill-rule="nonzero"/><path d="M175.217 162.823c-.65.06-1.8.515-1.733 2.669.067 2.154 1.009 2.66 1.733 2.66.723 0 1.944-.2 1.944-2.65 0-2.45-1.295-2.74-1.944-2.68v.001z"/><path d="M122.251 161.626c.71.022 1.272.022 1.687 0v4.435c0 1.76.646 2.061 1.274 2.122a1.996 1.996 0 0 0 1.834-.874c.015-2.024.015-3.918 0-5.683h1.808v7.83h-1.546l-.165-1.15c-.546.941-1.402 1.36-2.568 1.257-1.75-.155-2.324-1.648-2.324-3.035 0-2.42-.038-3.681 0-4.902zm10.295 2.161c-.535-.004-1.096-.004-1.683 0 0-.845.604-2.376 3.021-2.376 2.418 0 2.998 1.66 3.064 2.018.065.358-.169 5.372.337 5.942l-1.796.002c-.148-.508-.222-.883-.222-1.126-.28.342-.762.967-1.503 1.197-.74.23-2.423.352-3.111-1.262-.455-1.063-.165-2.26.688-2.808 1.41-.906 3.348-.603 3.926-.603.074-1.615-.408-1.991-1.503-1.991-.73 0-1.136.335-1.218 1.007zm2.72 2.088c-.53-.01-.889-.012-1.774.015-.705.062-1.332.583-1.279 1.326.064.885 1.07 1.048 1.859.793.661-.215 1.122-.768 1.194-1.003v-1.131zm13.59-2.088a117.96 117.96 0 0 0-1.683 0c0-.845.604-2.376 3.021-2.376 2.418 0 2.998 1.66 3.064 2.018.065.358-.169 5.372.337 5.942l-1.796.002c-.148-.508-.223-.883-.223-1.126-.28.342-.762.967-1.502 1.197-.74.23-2.423.352-3.112-1.262-.454-1.063-.164-2.26.69-2.808 1.409-.906 3.346-.603 3.924-.603.075-1.615-.407-1.991-1.502-1.991-.73 0-1.136.335-1.218 1.007zm2.72 2.088c-.531-.01-.889-.012-1.774.015-.705.062-1.333.583-1.279 1.326.064.885 1.07 1.048 1.859.793.66-.215 1.122-.768 1.194-1.003v-1.131zm-8.048-7.702h1.704v11.286h-1.401a23.88 23.88 0 0 1-.213-1c-.28.78-3.127 2.155-4.536-.173-1.178-1.946-.53-4.56.07-5.505.45-.71 2.276-2.534 4.376-.303a853.79 853.79 0 0 0 0-4.305zm.01 5.691c-.272-.86-2.097-1.404-2.83-.35-.732 1.053-.698 2.404-.28 3.639.42 1.235 2.212 1.471 3.11.112v-3.401zm16.644-1.247l.176-.992h1.434v7.944c.005 2.769-3.104 3.83-5.96 2.446.163-.816.253-1.273.27-1.37 1.244.416 4.341 1.456 3.947-1.99-1.778 1.821-3.79.717-4.487-.5-.768-1.342-1.268-5.348 1.204-6.428 1.424-.623 2.563-.326 3.416.89zm-.149 1.211c-.338-.512-.555-.938-1.69-.938-1.137 0-1.848 1.393-1.601 3.533.246 2.14 2.569 2.14 3.291.787v-3.382z" fill="#FFF" fill-rule="nonzero"/><path d="M276.544 125.085l.094.97a2.116 2.116 0 0 1 1.878-1.064c.688 0 1.22.188 1.596.626.376.407.563 1.033.563 1.878v4.069h-1.158v-4.038c0-.563-.125-.97-.344-1.22-.219-.25-.563-.345-1.001-.345-.345 0-.626.094-.877.25a1.81 1.81 0 0 0-.626.658v4.695h-1.158v-6.448l1.033-.03v-.001zm-5.476-2.335v.91h-4.365v3.09h3.718v.937h-3.718v3.957h-1.282v-8.895l5.647.001zm16.368 5.763h-4.15c0 .77.157 1.328.471 1.671.414.452.849.615 1.446.556 1.042-.104 1.243-.383 1.674-.63l.44.754c-.514.53-1.335.796-2.464.796-1.694 0-2.727-1.404-2.794-3.075-.067-1.67.6-3.61 2.794-3.69 1.86.049 2.72 1.255 2.583 3.618zm-1.165-.918c-.012-1.176-.484-1.763-1.417-1.763s-1.443.587-1.53 1.763h2.947zm-13.854-2.501h1.165v6.415h-1.165v-6.415zm.016-2.914v1.158h1.187v-1.157l-1.187-.001z" fill="#2A3052" fill-rule="nonzero"/></g></svg>