<svg width="299" height="197" xmlns="http://www.w3.org/2000/svg"><g fill="none" fill-rule="evenodd"><path fill="#F1F2F2" d="M0 0h299v197H0z"/><path d="M1.993 1.98v193.04h295.014V1.98H1.993zM299 0v197H0V0h299z" fill="#C2C2C2" fill-rule="nonzero"/><path d="M41.615 53.857v18.905H76.77V53.857H41.615zm0-.976H76.77V33h.973v19.881h35.155V33h.974v19.881h35.155V33H150v19.881h35.155V33h.973v19.881h35.156V33h.973v19.881h35.155V33h.973v19.881H295v.976h-36.615v18.905H295v.976h-36.615v18.905H295v.976h-36.615v18.905H295v.976h-36.615v18.905H295v.976h-36.615v18.905H295v.976h-36.615v18.905H295v.976h-36.615V194h-.973v-20.857h-35.155V194h-.973v-20.857h-35.156V194h-.973v-20.857H150V194h-.973v-20.857h-35.155V194h-.974v-20.857H77.743V194h-.973v-20.857H41.615V194h-.973v-20.857H5v-.976h35.642v-18.905H5v-.976h35.642v-18.905H5v-.976h35.642V113.5H5v-.976h35.642V93.62H5v-.976h35.642V73.738H5v-.976h35.642V53.857H5v-.976h35.642V33h.973v19.881zm215.797.976h-35.155v18.905h35.155V53.857zm-36.128 0h-35.156v18.905h35.156V53.857zm-36.129 0H150v18.905h35.155V53.857zm-36.128 0h-35.155v18.905h35.155V53.857zm-36.129 0H77.743v18.905h35.155V53.857zm-71.283 19.88v18.906H76.77V73.738H41.615zm215.797 0h-35.155v18.906h35.155V73.738zm-36.128 0h-35.156v18.906h35.156V73.738zm-36.129 0H150v18.906h35.155V73.738zm-36.128 0h-35.155v18.906h35.155V73.738zm-36.129 0H77.743v18.906h35.155V73.738zM41.615 93.62v18.905H76.77V93.62H41.615zm215.797 0h-35.155v18.905h35.155V93.62zm-36.128 0h-35.156v18.905h35.156V93.62zm-36.129 0H150v18.905h35.155V93.62zm-36.128 0h-35.155v18.905h35.155V93.62zm-36.129 0H77.743v18.905h35.155V93.62zM41.615 113.5v18.905H76.77V113.5H41.615zm215.797 0h-35.155v18.905h35.155V113.5zm-36.128 0h-35.156v18.905h35.156V113.5zm-36.129 0H150v18.905h35.155V113.5zm-36.128 0h-35.155v18.905h35.155V113.5zm-36.129 0H77.743v18.905h35.155V113.5zm-71.283 19.881v18.905H76.77v-18.905H41.615zm215.797 0h-35.155v18.905h35.155v-18.905zm-36.128 0h-35.156v18.905h35.156v-18.905zm-36.129 0H150v18.905h35.155v-18.905zm-36.128 0h-35.155v18.905h35.155v-18.905zm-36.129 0H77.743v18.905h35.155v-18.905zm-71.283 19.881v18.905H76.77v-18.905H41.615zm215.797 0h-35.155v18.905h35.155v-18.905zm-36.128 0h-35.156v18.905h35.156v-18.905zm-36.129 0H150v18.905h35.155v-18.905zm-36.128 0h-35.155v18.905h35.155v-18.905zm-36.129 0H77.743v18.905h35.155v-18.905z" fill="#DFDEDE" fill-rule="nonzero"/><path fill="#C2C2C2" d="M1 28h297v2H1z"/><g transform="translate(2 47.618)"><path d="M.62 109.772v-1.216h3.608v1.216H.62zm7.216 0v-1.216h3.608v1.216H7.836zm7.216 0v-1.216h3.608v1.216h-3.608zm7.216 0v-1.216h3.608v1.216h-3.608zm7.216 0v-1.216h3.608v1.216h-3.608zm7.216 0v-1.216h3.608v1.216H36.7zm7.216 0v-1.216h3.608v1.216h-3.608zm7.216 0v-1.216h3.608v1.216h-3.608zm7.216 0v-1.216h3.608v1.216h-3.608zm7.216 0v-1.216h3.608v1.216h-3.608zm7.216 0v-1.216h3.608v1.216H72.78zm7.216 0v-1.216h3.608v1.216h-3.608zm7.216 0v-1.216h3.608v1.216h-3.608zm7.216 0v-1.216h3.608v1.216h-3.608zm7.216 0v-1.216h3.608v1.216h-3.608zm7.216 0v-1.216h3.608v1.216h-3.608zm7.216 0v-1.216h3.608v1.216h-3.608zm7.216 0v-1.216h3.608v1.216h-3.608zm7.216 0v-1.216h3.608v1.216h-3.608zm7.216 0v-1.216h3.608v1.216h-3.608zm7.216 0v-1.216h3.608v1.216h-3.608zm7.216 0v-1.216h3.608v1.216h-3.608zm7.216 0v-1.216h3.608v1.216h-3.608zm7.216 0v-1.216h3.608v1.216h-3.608zm7.216 0v-1.216h3.608v1.216h-3.608zm7.216 0v-1.216h3.608v1.216h-3.608zm7.216 0v-1.216h3.608v1.216h-3.608zm7.216 0v-1.216h3.608v1.216h-3.608zm7.216 0v-1.216h3.608v1.216h-3.608zm7.216 0v-1.216h3.608v1.216h-3.608zm7.216 0v-1.216h3.608v1.216H217.1zm7.216 0v-1.216h3.608v1.216h-3.608zm7.216 0v-1.216h3.608v1.216h-3.608zm7.216 0v-1.216h3.608v1.216h-3.608zm7.216 0v-1.216h3.608v1.216h-3.608zm7.216 0v-1.216h3.608v1.216h-3.608zm7.216 0v-1.216h3.608v1.216h-3.608zm7.216 0v-1.216h3.608v1.216h-3.608zm7.216 0v-1.216h3.608v1.216h-3.608zm7.216 0v-1.216h3.608v1.216h-3.608zm7.216 0v-1.216h3.608v1.216h-3.608z" fill="#293052" fill-rule="nonzero"/><path d="M146.66 68.64l41.805-31.462a1.804 1.804 0 0 1 2.725.688l32.38 70.545a1.804 1.804 0 1 1-3.28 1.506l-31.445-68.51-41.066 30.907a1.804 1.804 0 0 1-2.126.032l-42.312-29.892-28.938 26.744c-.67.62-1.697.64-2.392.05L34.89 37.696a1.804 1.804 0 0 1 2.336-2.75L73.13 65.463l28.836-26.65a1.804 1.804 0 0 1 2.265-.148l42.43 29.975z" fill="#293052"/><path d="M254.349 69.704l.688-6.778h6.04v1.48h-4.626l-.382 3.467c.259-.193.541-.35.84-.467a3.12 3.12 0 0 1 1.071-.195 3.22 3.22 0 0 1 2.638 1.13 4.497 4.497 0 0 1 .956 3.038 4.376 4.376 0 0 1-.994 2.96 3.558 3.558 0 0 1-2.829 1.13 3.777 3.777 0 0 1-2.561-.857 2.989 2.989 0 0 1-.994-2.493h1.49a2.05 2.05 0 0 0 .574 1.558c.404.38.942.578 1.491.546a1.897 1.897 0 0 0 1.606-.74c.39-.656.538-1.428.42-2.182a3.079 3.079 0 0 0-.573-1.948 1.898 1.898 0 0 0-1.606-.779 2.522 2.522 0 0 0-1.414.312c-.31.218-.539.534-.65.896l-1.185-.078zm6.078 21.152h1.644v1.324h-1.644v2.844h-1.644V92.14h-5.428v-.935l5.314-8.53h1.72v8.18h.038v.001zm-5.314 0h3.823v-5.804.428l-3.823 5.376zm6.614 45.303h-7.837v-1.169l3.823-4.48c.55-.58 1.038-1.22 1.452-1.908a3.04 3.04 0 0 0 .383-1.442 2.325 2.325 0 0 0-.535-1.558 1.744 1.744 0 0 0-1.415-.623 2.382 2.382 0 0 0-1.835.662 2.641 2.641 0 0 0-.612 1.83H253.7a3.502 3.502 0 0 1 1.032-2.687 4.008 4.008 0 0 1 2.982-1.09c.96-.052 1.9.3 2.6.973.638.648.984 1.537.955 2.454a3.95 3.95 0 0 1-.573 2.026 12.826 12.826 0 0 1-1.644 2.181l-3.173 3.506h5.81v1.325h.039-.001zm0-113.705a17.302 17.302 0 0 0-2.944 4.713 21.452 21.452 0 0 0-1.108 4.986v1.324h-1.72v-1.324c.202-1.83.68-3.616 1.414-5.298a20.005 20.005 0 0 1 2.752-4.48h-6.575V21.13h8.18v1.325l.001-.001zm-.459-18.114a2.761 2.761 0 0 1-.535 1.675c-.369.501-.874.88-1.453 1.09.657.23 1.238.634 1.682 1.17.408.518.624 1.166.612 1.83.058 1-.354 1.969-1.109 2.61a4.969 4.969 0 0 1-5.696 0 3.224 3.224 0 0 1-1.07-2.61c-.01-.664.207-1.31.611-1.83.424-.54.995-.947 1.644-1.17a3.065 3.065 0 0 1-1.414-1.09 2.842 2.842 0 0 1-.497-1.675c-.05-.94.314-1.855.994-2.493a3.778 3.778 0 0 1 2.6-.896c.945-.04 1.871.28 2.599.896a3.145 3.145 0 0 1 1.032 2.493zm-1.3 5.726a2.243 2.243 0 0 0-2.293-2.337 2.157 2.157 0 0 0-1.644.634 2.243 2.243 0 0 0-.65 1.664 2.163 2.163 0 0 0 .65 1.636 2.637 2.637 0 0 0 3.326 0c.417-.42.64-1 .611-1.597zm-.19-5.687a2.126 2.126 0 0 0-.574-1.519 2 2 0 0 0-2.83 0c-.367.42-.558.964-.534 1.52a2.08 2.08 0 0 0 .535 1.518c.79.762 2.04.762 2.829 0 .387-.405.594-.954.573-1.519h.001z" fill="#808184" fill-rule="nonzero"/><path d="M186.513 98.296h-35.4L145.532 90l-5.353 8.297h-35.4c-2.64 0-4.779 2.18-4.779 4.869v25.203c0 2.689 2.14 4.869 4.779 4.869h81.735c1.292.03 2.54-.47 3.453-1.384a4.915 4.915 0 0 0 1.44-3.485v-25.164a4.916 4.916 0 0 0-1.426-3.51 4.731 4.731 0 0 0-3.467-1.398l-.001-.001z" fill="#E88024"/><ellipse fill="#FFF" opacity=".6" cx="221.624" cy="109.163" rx="8.219" ry="8.609"/><path d="M221.624 118.988c-5.223 0-9.434-4.41-9.434-9.824 0-5.413 4.21-9.824 9.434-9.824 5.223 0 9.434 4.41 9.434 9.824 0 5.413-4.21 9.824-9.434 9.824zm0-2.43c3.855 0 7.004-3.298 7.004-7.394s-3.149-7.394-7.004-7.394c-3.855 0-7.004 3.298-7.004 7.394s3.149 7.394 7.004 7.394z" fill="#E88024" fill-rule="nonzero"/><path d="M258.516 41.385a5.253 5.253 0 0 1 1.223 0 4 4 0 0 1 .994.35l-.344 1.286-.841-.35a3.753 3.753 0 0 0-1.032 0 2.47 2.47 0 0 0-2.103 1.051 4.461 4.461 0 0 0-.803 2.766 3.809 3.809 0 0 1 1.223-.74 4.023 4.023 0 0 1 1.491-.273 3.221 3.221 0 0 1 2.6 1.13c.654.809.994 1.835.956 2.882a4.653 4.653 0 0 1-1.032 3.116 3.411 3.411 0 0 1-2.753 1.208 3.792 3.792 0 0 1-2.944-1.324 5.405 5.405 0 0 1-1.146-3.701v-2.337a5.598 5.598 0 0 1 1.3-3.895 4.084 4.084 0 0 1 3.21-1.17l.001.001zm-.574 5.57a2.75 2.75 0 0 0-1.414.35c-.388.216-.707.54-.918.936v1.012c-.05.929.206 1.847.727 2.61a2.13 2.13 0 0 0 1.758.935 1.751 1.751 0 0 0 1.682-.935c.391-.642.59-1.386.574-2.142a3.198 3.198 0 0 0-.574-2.026 1.971 1.971 0 0 0-1.835-.779v.04-.001z" fill="#808184" fill-rule="nonzero"/><path fill="#E88024" d="M244.753 99.503h28.863v19.321h-28.863z"/><path fill="#E88024" d="M248.27 109.164l-3.364 3.428-5.238-3.428 5.238-3.428z"/><path d="M256.184 107.995h1.376c.466.034.925-.136 1.261-.467.297-.358.447-.818.421-1.286a1.694 1.694 0 0 0-.42-1.207 1.582 1.582 0 0 0-1.224-.273c-.416-.02-.825.12-1.147.39-.303.264-.472.65-.459 1.051h-2.37a2.826 2.826 0 0 1 1.07-2.376 4.267 4.267 0 0 1 2.83-.935 4.603 4.603 0 0 1 2.982.896 3.183 3.183 0 0 1 1.108 2.61 2.643 2.643 0 0 1-.497 1.52c-.35.493-.825.882-1.376 1.129.614.203 1.15.598 1.53 1.13a3 3 0 0 1 .534 1.753 3.218 3.218 0 0 1-1.223 2.648 4.793 4.793 0 0 1-3.097.974 4.679 4.679 0 0 1-2.905-.896 2.905 2.905 0 0 1-1.147-2.57h2.523c-.01.444.172.871.497 1.168.348.313.798.48 1.262.467a1.81 1.81 0 0 0 1.338-.467c.335-.339.515-.805.497-1.286a1.893 1.893 0 0 0-.459-1.44 1.964 1.964 0 0 0-1.414-.468h-1.491v-2.065z" fill="#FFF"/><path fill="#293052" d="M246.053 79.817v-1.215h23.129v1.215z"/></g><path d="M175.308 162.73c-.658.063-1.823.523-1.755 2.704.069 2.18 1.022 2.693 1.755 2.693.733 0 1.969-.203 1.969-2.684 0-2.481-1.311-2.775-1.969-2.713z"/><path d="M262.366 14.102H261v-1.444h1.405v1.444h-.039zm0 6.19H261v-1.444h1.405v1.443h-.038l-.001.001zm5.962-4.634l.608-5.658h5.164v1.253h-3.797l-.342 2.886c.223-.157.466-.284.722-.38.301-.051.61-.051.911 0a2.772 2.772 0 0 1 2.24.912c.565.724.848 1.628.798 2.544a3.797 3.797 0 0 1-.835 2.507 3.076 3.076 0 0 1-2.43.95 3.304 3.304 0 0 1-2.431-.95 2.468 2.468 0 0 1-.836-2.089h1.254c-.025.48.154.95.493 1.291.356.37.856.564 1.367.532a1.635 1.635 0 0 0 1.52-.722c.355-.496.53-1.099.493-1.708a2.582 2.582 0 0 0-.494-1.633 1.633 1.633 0 0 0-1.367-.646 2.203 2.203 0 0 0-1.177.228 1.405 1.405 0 0 0-.532.76l-1.329-.077z" fill="#293052" fill-rule="nonzero"/><path d="M195.295 10.831v6.43c0 1.065-.346 1.896-1.037 2.494-.692.599-1.583.898-2.674.898-1.05 0-1.91-.3-2.58-.901-.67-.6-1.004-1.43-1.004-2.49v-6.431h1.31v6.43c0 .74.212 1.32.635 1.74.424.418.97.628 1.64.628.709 0 1.286-.21 1.732-.629.445-.418.668-.998.668-1.738v-6.431h1.31zm3.312 9.682h-1.31V10.139h1.31v10.374zm3.837-8.93v1.735h1.363v.971h-1.363v4.369c0 .337.07.574.21.712.139.137.324.206.555.206.075 0 .16-.01.252-.03.093-.02.171-.041.233-.063l.18.897a1.16 1.16 0 0 1-.433.197c-.19.05-.379.076-.565.076-.532 0-.955-.16-1.27-.482-.315-.322-.472-.826-.472-1.513v-4.369h-1.144v-.97h1.144v-1.737h1.31v.001zm4.183 8.93h-1.31v-7.195h1.31v7.195zm0-9.037h-1.31v-1.337h1.31v1.337zm3.185 1.842l.093.944c.235-.341.533-.606.894-.794.362-.189.782-.283 1.26-.283.48 0 .89.11 1.234.333.344.221.602.554.775.997.23-.412.53-.737.901-.974.37-.237.804-.356 1.3-.356.732 0 1.31.252 1.736.755.425.503.638 1.26.638 2.27v4.303h-1.31v-4.315c0-.71-.122-1.212-.366-1.507-.244-.294-.607-.442-1.09-.442-.448 0-.81.155-1.088.466-.277.31-.44.702-.488 1.177v4.621h-1.317v-4.315c0-.674-.125-1.168-.376-1.48-.25-.313-.61-.469-1.08-.469-.4 0-.727.082-.985.246a1.59 1.59 0 0 0-.591.692v5.326h-1.31v-7.195h1.17zm15.155 7.195c-.04-.19-.074-.382-.103-.575a4.222 4.222 0 0 1-.043-.502c-.253.354-.578.65-.954.868-.382.23-.82.35-1.267.349-.75 0-1.32-.192-1.713-.575-.392-.384-.588-.912-.588-1.586 0-.687.278-1.225.835-1.613.556-.388 1.31-.582 2.264-.582h1.423v-.711c0-.421-.129-.755-.386-1.001-.257-.246-.62-.37-1.09-.37-.426 0-.77.107-1.031.32-.262.213-.392.468-.392.765l-1.244.013-.013-.04c-.031-.523.214-1.002.735-1.436.52-.435 1.193-.652 2.018-.652.816 0 1.472.207 1.968.622.497.414.745 1.012.745 1.792v3.465c0 .257.013.505.04.744.026.24.075.475.146.705h-1.35zm-2.174-.957a2.33 2.33 0 0 0 1.283-.366c.381-.244.63-.523.745-.838v-1.17h-1.47c-.527 0-.95.133-1.267.399-.317.266-.475.578-.475.937 0 .32.1.572.3.758.199.187.494.28.884.28zm11.484.073c.39.005.77-.139 1.058-.402.301-.269.452-.598.452-.988h1.183l.02.04c.018.62-.248 1.171-.798 1.652a2.82 2.82 0 0 1-1.915.722c-1.01 0-1.79-.344-2.34-1.03-.55-.688-.825-1.544-.825-2.568v-.279c0-1.015.276-1.867.828-2.557.552-.69 1.33-1.034 2.337-1.034.803 0 1.46.248 1.972.745.512.496.76 1.106.741 1.829l-.013.04h-1.19c0-.44-.143-.813-.43-1.121a1.411 1.411 0 0 0-1.08-.462c-.643 0-1.111.25-1.406.748-.295.499-.443 1.103-.443 1.812v.28c0 .722.146 1.332.436 1.828.29.497.761.745 1.413.745zm5.686.884h-1.31v-7.195h1.31v7.195zm0-9.037h-1.31v-1.337h1.31v1.337zm2.56 9.037v-6.224h-1.124v-.97h1.124v-.912c0-.767.2-1.36.602-1.779.401-.419.96-.628 1.679-.628.15 0 .303.012.456.036.153.025.322.06.508.103l-.16.998a2.944 2.944 0 0 0-.644-.067c-.382 0-.665.115-.852.343-.186.228-.279.56-.279.994v.911h1.304v.971h-1.304v6.224h-1.31zm7.342-6.038l-.672-.04c-.346 0-.637.082-.874.246-.238.164-.42.395-.55.692v5.14h-1.31v-7.195h1.171l.127 1.05c.204-.372.455-.662.754-.87a1.83 1.83 0 0 1 1.533-.24l-.18 1.217h.001zm5.785 6.038c-.04-.19-.074-.382-.103-.575a4.222 4.222 0 0 1-.043-.502c-.253.354-.578.65-.954.868-.382.23-.82.35-1.267.349-.75 0-1.32-.192-1.713-.575-.392-.384-.588-.912-.588-1.586 0-.687.278-1.225.834-1.613.557-.388 1.312-.582 2.265-.582h1.423v-.711c0-.421-.129-.755-.386-1.001-.257-.246-.62-.37-1.09-.37-.426 0-.77.107-1.031.32-.262.213-.393.468-.393.765l-1.243.013-.013-.04c-.031-.523.213-1.002.734-1.436.521-.435 1.194-.652 2.019-.652.815 0 1.472.207 1.968.622.497.414.745 1.012.745 1.792v3.465c0 .257.013.505.04.744.026.24.075.475.146.705h-1.35zm-2.174-.957a2.33 2.33 0 0 0 1.283-.366c.381-.244.63-.523.745-.838v-1.17h-1.47c-.527 0-.95.133-1.267.399-.317.266-.475.578-.475.937 0 .32.1.572.3.758.199.187.493.28.884.28z" fill="#2A3052" fill-rule="nonzero"/><path d="M24.324 16.448c-.083 1.147-.507 2.05-1.271 2.71-.764.659-1.771.988-3.021.988-1.367 0-2.443-.46-3.227-1.38-.783-.92-1.175-2.184-1.175-3.79v-.652c0-1.026.18-1.929.542-2.71.361-.781.878-1.38 1.549-1.798.671-.418 1.451-.627 2.34-.627 1.23 0 2.222.33 2.974.99.752.658 1.186 1.584 1.303 2.775h-2.197c-.054-.688-.245-1.188-.575-1.498-.33-.31-.831-.465-1.505-.465-.732 0-1.28.263-1.644.788-.364.524-.55 1.339-.56 2.442v.806c0 1.152.174 1.994.523 2.527.35.532.9.798 1.652.798.678 0 1.185-.155 1.52-.465.334-.31.526-.79.574-1.44h2.198zM27.86 20h-2.124v-7.925h2.124V20zm-2.248-9.976c0-.317.106-.578.318-.783.213-.205.502-.308.868-.308.362 0 .65.103.865.308.214.205.322.466.322.783 0 .323-.109.586-.326.791-.217.206-.504.308-.86.308-.357 0-.644-.102-.861-.308a1.04 1.04 0 0 1-.326-.79zM30.183 20v-6.372h-1.18v-1.553h1.18v-.674c0-.888.255-1.578.765-2.069.51-.49 1.225-.736 2.143-.736.293 0 .652.049 1.076.147l-.021 1.64a2.699 2.699 0 0 0-.645-.066c-.796 0-1.194.374-1.194 1.121v.637h1.575v1.553h-1.575V20h-2.124zm9.25-5.94a5.75 5.75 0 0 0-.761-.059c-.8 0-1.326.271-1.575.813V20H34.98v-7.925h2l.059.945c.424-.728 1.013-1.091 1.765-1.091.234 0 .454.031.659.095l-.03 2.036zm5.61 5.94a2.35 2.35 0 0 1-.211-.71c-.513.57-1.18.856-2 .856-.776 0-1.42-.224-1.93-.673a2.167 2.167 0 0 1-.765-1.7c0-.84.311-1.484.934-1.933.622-.45 1.522-.676 2.699-.681h.974v-.454c0-.367-.094-.66-.282-.88-.188-.219-.485-.329-.89-.329-.357 0-.636.086-.839.256-.202.171-.304.406-.304.704h-2.117c0-.46.142-.884.425-1.275.284-.39.684-.697 1.201-.919.518-.222 1.1-.333 1.744-.333.976 0 1.751.245 2.325.736.574.49.86 1.18.86 2.069v3.435c.006.752.11 1.32.316 1.706V20h-2.14zm-1.75-1.472c.313 0 .601-.07.865-.209.263-.14.459-.326.586-.56v-1.363h-.791c-1.06 0-1.624.367-1.692 1.1l-.008.124c0 .263.093.48.279.651.185.171.44.257.761.257zM54.705 20h-2.198V9.336h2.198V20zm3.845-7.925l.066.916c.566-.708 1.325-1.062 2.278-1.062.84 0 1.464.246 1.875.74.41.493.62 1.23.63 2.211V20h-2.117v-5.068c0-.45-.098-.776-.293-.978-.196-.203-.52-.304-.974-.304-.596 0-1.043.254-1.34.762V20h-2.117v-7.925h1.992zM65.58 20v-6.372H64.4v-1.553h1.18v-.674c0-.888.255-1.578.765-2.069.51-.49 1.225-.736 2.143-.736.293 0 .652.049 1.076.147l-.022 1.64a2.699 2.699 0 0 0-.644-.066c-.796 0-1.194.374-1.194 1.121v.637h1.575v1.553h-1.575V20H65.58zm8.445.146c-1.162 0-2.108-.356-2.838-1.069s-1.095-1.662-1.095-2.849v-.205c0-.796.154-1.508.461-2.135a3.386 3.386 0 0 1 1.308-1.45c.564-.34 1.207-.51 1.93-.51 1.083 0 1.937.343 2.56 1.026.622.684.933 1.653.933 2.908v.864H72.24c.068.518.274.933.619 1.245.344.313.78.469 1.307.469.815 0 1.453-.295 1.912-.886l1.04 1.164c-.318.45-.747.8-1.29 1.051a4.23 4.23 0 0 1-1.801.377zm-.242-6.503c-.42 0-.76.141-1.022.424-.26.284-.428.689-.501 1.216h2.944v-.168c-.01-.469-.137-.832-.38-1.088-.245-.256-.592-.384-1.04-.384zm9.155.417a5.75 5.75 0 0 0-.761-.059c-.801 0-1.326.271-1.575.813V20h-2.117v-7.925h2l.058.945c.425-.728 1.014-1.091 1.766-1.091.234 0 .454.031.659.095l-.03 2.036zM86.191 20h-2.124v-7.925h2.124V20zm-2.248-9.976c0-.317.106-.578.318-.783.213-.205.502-.308.868-.308.362 0 .65.103.865.308.214.205.322.466.322.783 0 .323-.109.586-.326.791-.217.206-.504.308-.86.308-.357 0-.644-.102-.861-.308a1.04 1.04 0 0 1-.326-.79zm3.662 5.94c0-.786.151-1.486.454-2.102a3.324 3.324 0 0 1 1.307-1.428c.57-.337 1.23-.505 1.982-.505 1.069 0 1.942.327 2.618.981.676.654 1.054 1.543 1.132 2.666l.014.542c0 1.216-.339 2.191-1.018 2.926-.678.735-1.59 1.102-2.732 1.102-1.142 0-2.054-.366-2.735-1.098-.681-.733-1.022-1.729-1.022-2.988v-.096zm2.117.154c0 .752.141 1.327.424 1.725.284.398.689.597 1.216.597.513 0 .913-.197 1.201-.59.289-.393.433-1.021.433-1.886 0-.737-.144-1.308-.433-1.714-.288-.405-.693-.607-1.215-.607-.518 0-.918.201-1.202.604-.283.403-.424 1.026-.424 1.871zm11.147-2.058a5.75 5.75 0 0 0-.762-.059c-.8 0-1.325.271-1.574.813V20h-2.117v-7.925h2l.058.945c.425-.728 1.013-1.091 1.765-1.091.235 0 .454.031.66.095l-.03 2.036zm4.666 6.086c-1.162 0-2.108-.356-2.838-1.069s-1.095-1.662-1.095-2.849v-.205c0-.796.153-1.508.461-2.135a3.386 3.386 0 0 1 1.307-1.45c.564-.34 1.208-.51 1.93-.51 1.084 0 1.938.343 2.56 1.026.623.684.934 1.653.934 2.908v.864h-5.046c.068.518.274.933.618 1.245.345.313.78.469 1.308.469.815 0 1.452-.295 1.911-.886l1.04 1.164c-.317.45-.747.8-1.289 1.051a4.23 4.23 0 0 1-1.801.377zm-.242-6.503c-.42 0-.76.141-1.022.424-.261.284-.428.689-.501 1.216h2.944v-.168c-.01-.469-.137-.832-.381-1.088-.244-.256-.59-.384-1.04-.384z" fill="#000"/><path d="M121.258 166.616c-.386.503-.92.884-1.604 1.142-.684.26-1.46.388-2.33.388-.893 0-1.684-.202-2.372-.607a4.05 4.05 0 0 1-1.593-1.74c-.374-.754-.568-1.634-.583-2.64v-.835c0-1.612.386-2.87 1.158-3.776.771-.906 1.848-1.359 3.23-1.359 1.186 0 2.128.293 2.827.88.698.585 1.118 1.43 1.26 2.534h-1.817c-.205-1.285-.95-1.927-2.234-1.927-.83 0-1.461.3-1.893.897-.432.599-.656 1.476-.67 2.634v.82c0 1.152.243 2.047.728 2.684.486.637 1.161.956 2.026.956.947 0 1.62-.215 2.021-.645v-2.087h-2.197v-1.406h4.043v4.087zm6.665.608c-.523.615-1.265.922-2.227.922-.86 0-1.51-.251-1.952-.754-.442-.503-.662-1.23-.662-2.183v-5.134h1.78v5.113c0 1.005.417 1.508 1.252 1.508.864 0 1.448-.31 1.75-.93v-5.69h1.78V168h-1.677l-.044-.776zm8.269.776c-.078-.151-.147-.398-.205-.74a2.77 2.77 0 0 1-2.08.886c-.796 0-1.446-.227-1.949-.68a2.18 2.18 0 0 1-.754-1.685c0-.845.314-1.493.941-1.945.628-.451 1.525-.677 2.692-.677h1.091v-.52c0-.41-.115-.739-.344-.985-.23-.247-.579-.37-1.047-.37-.406 0-.738.101-.996.304a.94.94 0 0 0-.389.772h-1.78c0-.434.145-.84.433-1.22.288-.378.68-.674 1.175-.889a4.13 4.13 0 0 1 1.66-.322c.927 0 1.667.233 2.218.7.552.465.835 1.121.85 1.966v3.574c0 .713.1 1.282.3 1.706V168h-1.816zm-1.956-1.282c.352 0 .683-.085.993-.256.31-.171.543-.4.7-.689v-1.494h-.96c-.66 0-1.155.115-1.487.345-.332.229-.498.554-.498.974 0 .341.113.614.34.816.228.203.531.304.912.304zm5.003-2.739c0-1.22.283-2.2.85-2.94.566-.74 1.325-1.11 2.277-1.11.84 0 1.519.293 2.036.879v-4.058h1.78V168h-1.611l-.088-.82c-.532.644-1.243.966-2.131.966-.928 0-1.679-.373-2.253-1.12-.573-.747-.86-1.763-.86-3.047zm1.78.154c0 .805.155 1.434.465 1.886.31.451.75.677 1.322.677.727 0 1.26-.324 1.596-.974v-3.384c-.327-.634-.854-.952-1.582-.952-.576 0-1.02.228-1.333.685-.312.457-.468 1.144-.468 2.062zM152.774 168c-.078-.151-.147-.398-.205-.74a2.77 2.77 0 0 1-2.08.886c-.796 0-1.446-.227-1.948-.68a2.18 2.18 0 0 1-.755-1.685c0-.845.314-1.493.941-1.945.628-.451 1.525-.677 2.692-.677h1.091v-.52c0-.41-.114-.739-.344-.985-.23-.247-.579-.37-1.047-.37-.406 0-.738.101-.996.304a.94.94 0 0 0-.389.772h-1.78c0-.434.145-.84.433-1.22.288-.378.68-.674 1.175-.889a4.13 4.13 0 0 1 1.66-.322c.927 0 1.667.233 2.218.7.552.465.835 1.121.85 1.966v3.574c0 .713.1 1.282.3 1.706V168h-1.816zm-1.956-1.282c.352 0 .683-.085.993-.256.31-.171.543-.4.7-.689v-1.494h-.96c-.66 0-1.155.115-1.487.345-.332.229-.498.554-.498.974 0 .341.113.614.34.816.228.203.531.304.912.304zm5.025-2.739c0-1.23.29-2.213.868-2.948.578-.735 1.346-1.102 2.303-1.102.903 0 1.614.315 2.132.945l.08-.799h1.604v7.683c0 1.04-.323 1.86-.97 2.461-.647.6-1.52.901-2.619.901a4.22 4.22 0 0 1-1.703-.362c-.554-.242-.975-.558-1.263-.949l.842-1.07c.547.65 1.22.975 2.022.975.59 0 1.057-.16 1.399-.48.341-.32.512-.79.512-1.41v-.534c-.512.57-1.196.856-2.05.856-.928 0-1.686-.368-2.275-1.105-.588-.738-.882-1.758-.882-3.062zm1.772.154c0 .796.163 1.422.487 1.878.325.457.775.685 1.352.685.717 0 1.25-.307 1.596-.923v-3.486c-.337-.6-.864-.9-1.582-.9-.586 0-1.041.231-1.366.695-.324.464-.487 1.147-.487 2.05zm8.694-4.058l.051.916c.586-.708 1.355-1.062 2.307-1.062 1.65 0 2.49.945 2.52 2.834V168h-1.78v-5.134c0-.503-.108-.876-.326-1.117-.217-.242-.572-.363-1.065-.363-.718 0-1.253.325-1.604.974V168h-1.78v-7.925h1.677zM177.735 168c-.078-.151-.147-.398-.205-.74a2.77 2.77 0 0 1-2.08.886c-.796 0-1.446-.227-1.949-.68a2.18 2.18 0 0 1-.754-1.685c0-.845.314-1.493.941-1.945.628-.451 1.525-.677 2.692-.677h1.091v-.52c0-.41-.115-.739-.344-.985-.23-.247-.579-.37-1.047-.37-.406 0-.738.101-.997.304a.94.94 0 0 0-.388.772h-1.78c0-.434.145-.84.433-1.22.288-.378.68-.674 1.175-.889a4.13 4.13 0 0 1 1.66-.322c.927 0 1.667.233 2.218.7.552.465.835 1.121.85 1.966v3.574c0 .713.1 1.282.3 1.706V168h-1.816zm-1.956-1.282c.352 0 .683-.085.993-.256.31-.171.543-.4.7-.689v-1.494h-.96c-.66 0-1.155.115-1.487.345-.332.229-.498.554-.498.974 0 .341.113.614.34.816.227.203.531.304.912.304zm7.222-1.86h-1.53l-.17-7.522h1.876l-.176 7.522zm-1.75 2.3c0-.279.09-.51.27-.692.181-.184.428-.275.74-.275.313 0 .56.091.74.275.18.183.271.413.271.692a.928.928 0 0 1-.264.674c-.175.18-.425.27-.747.27s-.571-.09-.747-.27a.928.928 0 0 1-.264-.674z" fill="#FFF"/></g></svg>