<svg width="510" height="96" xmlns="http://www.w3.org/2000/svg"><g fill="none" fill-rule="evenodd"><path d="M48.28 4C23.819 4 4 23.68 4 47.94c0 24.262 19.819 43.941 44.28 43.941 24.461 0 44.28-19.679 44.28-43.94C92.56 23.679 72.741 4 48.28 4z" stroke="#2A3052" stroke-width="8"/><path fill="#2A3052" d="M63.506 67.63L43.214 53.897v-29.42h7.324v25.575L67.63 61.62z"/><g fill="#2A3052"><path d="M20.76 42.878h14.355v-3H20.76zM20.76 57.968h14.355v-3H20.76zM14.015 50.423h21.1v-3h-21.1z"/></g><path d="M120.333 47.375h73M316.333 46.23h73" stroke="#2A3052" stroke-width="5" stroke-linecap="round" stroke-dasharray="10,10"/><g fill="#2A3052" fill-rule="nonzero"><path d="M505.636 13.09v-2.18c0-6.11-4.8-10.91-10.909-10.91-6.109 0-10.909 4.8-10.909 10.91v2.18c-2.618 0-4.363 1.746-4.363 4.365v17.454c0 2.618 1.745 4.364 4.363 4.364h21.818c2.619 0 4.364-1.746 4.364-4.364V17.455c0-2.619-1.745-4.364-4.364-4.364zm-3.49 0h-14.837v-2.18c0-3.928 3.49-7.42 7.418-7.42s7.418 3.492 7.418 7.42v2.18zM492.108 48c0 1.31.436 3.055.436 4.364 0 9.163-3.49 17.454-9.163 23.563-1.31-3.49-4.364-6.109-8.291-6.109h-4.364v-13.09c0-2.619-1.745-4.364-4.363-4.364h-26.182v-8.728h8.727c2.618 0 4.364-1.745 4.364-4.363v-8.728H462c4.8 0 8.727-3.927 8.727-8.727V10.91C466.8 9.6 462 8.727 457.637 8.727c-24 0-43.637 19.637-43.637 43.637S433.636 96 457.636 96c24 0 43.637-19.636 43.637-43.636 0-1.31 0-3.055-.437-4.364h-8.727zm-38.836 38.836c-17.018-2.181-30.546-17.018-30.546-34.472 0-2.619.437-5.237.873-7.855l20.945 20.946v4.363c0 4.8 3.928 8.727 8.728 8.727v8.291z"/></g><g fill="#2A3052" fill-rule="nonzero"><path d="M200 35.247c1.06.002 2.119-.089 3.163-.272a9.867 9.867 0 0 0 2.78-.904 7.119 7.119 0 0 0 2.123-1.629c.588-.663.972-1.477 1.153-2.442h4.202v31.663h-5.649V39.318H200v-4.071zM225.5 62a3.362 3.362 0 0 1-3.355-3.368 3.362 3.362 0 0 1 3.355-3.369 3.362 3.362 0 0 1 3.355 3.369A3.362 3.362 0 0 1 225.5 62zm4.026-26.753c1.06.002 2.12-.089 3.164-.272a9.867 9.867 0 0 0 2.778-.904 7.119 7.119 0 0 0 2.124-1.629c.588-.663.972-1.477 1.153-2.442h4.202v31.663H237.3V39.318h-7.773v-4.071zM255.026 62a3.362 3.362 0 0 1-3.355-3.368 3.362 3.362 0 0 1 3.355-3.369 3.362 3.362 0 0 1 3.356 3.369A3.362 3.362 0 0 1 255.026 62zm4.027-26.753c1.06.002 2.118-.089 3.163-.272a9.867 9.867 0 0 0 2.779-.904 7.119 7.119 0 0 0 2.124-1.629c.587-.663.971-1.477 1.152-2.442h4.203v31.663h-5.649V39.318h-7.772v-4.071zM284.553 62a3.362 3.362 0 0 1-3.356-3.368 3.362 3.362 0 0 1 3.356-3.369 3.362 3.362 0 0 1 3.355 3.369A3.362 3.362 0 0 1 284.553 62zm4.026-26.753c1.06.002 2.119-.089 3.163-.272a9.867 9.867 0 0 0 2.78-.904 7.119 7.119 0 0 0 2.123-1.629c.588-.663.972-1.477 1.153-2.442H302v31.663h-5.649V39.318h-7.772v-4.071z"/></g></g></svg>