<svg width="127" height="127" viewBox="0 0 127 127" xmlns="http://www.w3.org/2000/svg"><title>personal_details</title><g fill-rule="nonzero" fill="none"><path fill="#F3F3F3" d="M1.245.905h124.85v124.85H1.245z"/><path d="M125.19 1.81v123.04H2.15V1.81h123.04zM127 0H.34v126.66H127V0z" fill="#CDCCCC"/><path d="M40.72 108.566h-6.932a1.99 1.99 0 0 1 0-3.98h6.932c1.1 0 1.988.891 1.988 1.99a1.989 1.989 0 0 1-1.988 1.99zm52.832-.12h-43.79a1.99 1.99 0 0 1-1.986-1.996 1.994 1.994 0 0 1 1.991-1.984h43.79a1.983 1.983 0 0 1 1.984 1.984 1.998 1.998 0 0 1-1.99 1.995zM40.72 87.677h-6.932a1.99 1.99 0 0 1 0-3.98h6.932c1.1 0 1.988.891 1.988 1.99a1.989 1.989 0 0 1-1.988 1.99zm52.832-.12h-43.79a1.991 1.991 0 0 1-1.986-1.996 1.993 1.993 0 0 1 1.991-1.984h43.79a1.982 1.982 0 0 1 1.984 1.984 1.998 1.998 0 0 1-1.99 1.995zM40.72 98.12h-6.932a1.99 1.99 0 0 1 0-3.98h6.932a1.99 1.99 0 0 1 0 3.98zm52.832-.119h-43.79a1.992 1.992 0 0 1-1.986-1.996 1.992 1.992 0 0 1 1.991-1.983h43.79a1.98 1.98 0 0 1 1.984 1.983 2 2 0 0 1-1.99 1.996zM85.707 60.03v7.564a2.992 2.992 0 0 1-2.99 2.99H44.622a2.99 2.99 0 0 1-2.988-2.99V60.03c0-1.474 1.065-2.98 2.45-3.467l10.576-3.731c.328-.117.679-.61.679-.96v-2.566a.34.34 0 0 0-.33-.337h-4.04a2.99 2.99 0 0 1-2.988-2.988V39.76h-.343c-1.628 0-2.944-1.34-2.944-2.988v-3.141c0-1.647 1.316-2.987 2.944-2.987h.343V20.582a2.99 2.99 0 0 1 2.988-2.988H76.37a2.993 2.993 0 0 1 2.99 2.988v10.061h.218c1.625 0 2.944 1.342 2.944 2.987v3.141c0 1.646-1.319 2.988-2.944 2.988h-.219v6.223a2.993 2.993 0 0 1-2.99 2.987h-4.037a.34.34 0 0 0-.329.33v2.574c0 .35.348.843.677.959l10.574 3.731c1.388.487 2.453 1.993 2.453 3.468zM79.578 37.1c.15 0 .285-.143.285-.329V33.63c0-.186-.135-.329-.285-.329h-.219v3.8h.22zM50.64 20.583v6.694a49.871 49.871 0 0 0 6.983-1.223c3.878-.976 7.042-2.347 9.112-4.156a1.32 1.32 0 0 1 1.77.02 25.197 25.197 0 0 0 1.055.888c.821.652 1.73 1.304 2.704 1.912 1.484.927 2.976 1.664 4.437 2.146v-6.28a.332.332 0 0 0-.33-.33h-25.4a.332.332 0 0 0-.33.33zm-3.001 12.72c-.148 0-.285.143-.285.328v3.141c0 .186.136.33.285.33h.343v-3.8h-.343zm35.41 26.726c0-.35-.348-.84-.68-.957l-10.572-3.733c-1.39-.49-2.455-1.994-2.455-3.467v-2.574a2.992 2.992 0 0 1 2.99-2.988h4.036a.332.332 0 0 0 .332-.33v-7.14a1.231 1.231 0 0 1-.063-.4 1.278 1.278 0 0 1 .063-.42V32.38a1.231 1.231 0 0 1-.063-.402 1.278 1.278 0 0 1 .063-.42v-1.92c-3.321-.905-6.507-2.837-9.123-5.01-2.475 1.833-5.835 3.183-9.769 4.132a51.04 51.04 0 0 1-7.168 1.192V45.98c0 .182.147.33.329.33h4.04a2.993 2.993 0 0 1 2.99 2.989v2.573c0 1.474-1.065 2.978-2.455 3.467l-10.575 3.733c-.33.116-.677.607-.677.957v7.56c0 .184.149.333.33.334h38.095c.176 0 .32-.136.332-.309v-7.586z" fill="#2A3052"/></g></svg>