<svg xmlns="http://www.w3.org/2000/svg" width="66" height="73"><g fill="none"><g fill="#2A3052"><path stroke="#2A3052" stroke-width="2" d="M54.518 63H1.482l-.262-1.763A20.514 20.514 0 0 1 1 58.302C1 45.453 13.113 35 27.995 35 42.876 35 55 45.453 55 58.302a20.514 20.514 0 0 1-.22 2.935L54.518 63zM5.856 58.997h44.288v-.695c0-10.64-9.942-19.299-22.16-19.299s-22.15 8.649-22.15 19.3c0 .227.011.456.022.694z"/><path d="M28 30c-8.284 0-15-6.716-15-15 0-8.284 6.716-15 15-15 8.284 0 15 6.716 15 15a15 15 0 0 1-15 15zm0-24.504a9.557 9.557 0 1 0 9.557 9.558A9.568 9.568 0 0 0 28 5.496z"/></g><g transform="translate(32 39)"><circle cx="17" cy="17" r="17" fill="#E98024"/><path d="M16.66 6.14a4.78 4.78 0 1 0 4.78 4.78 4.79 4.79 0 0 0-4.78-4.78zm0 11.35a11.61 11.61 0 0 0-9.49 4.91 11.32 11.32 0 0 0 19 0 11.61 11.61 0 0 0-9.51-4.91z" fill="#FFF"/></g></g></svg>