<svg xmlns="http://www.w3.org/2000/svg" xmlns:xlink="http://www.w3.org/1999/xlink" width="140" height="140"><defs><circle id="a" cx="64.167" cy="64.167" r="64.167"/><linearGradient id="c" x1="4.547%" x2="36.948%" y1="62.056%" y2="33.661%"><stop offset="0%" stop-color="#A52714" stop-opacity=".6"/><stop offset="66%" stop-color="#A52714" stop-opacity="0"/></linearGradient><circle id="d" cx="64.167" cy="64.167" r="64.167"/><circle id="f" cx="64.167" cy="64.167" r="64.167"/><linearGradient id="h" x1="83.874%" x2="36.313%" y1="87.773%" y2="66.355%"><stop offset="0%" stop-color="#055524" stop-opacity=".4"/><stop offset="33%" stop-color="#055524" stop-opacity="0"/></linearGradient><circle id="i" cx="64.167" cy="64.167" r="64.167"/><circle id="k" cx="64.167" cy="64.167" r="64.167"/><path id="m" d="M0 116.667h61.082l28.35-28.35V67.083H38.908L0 .35z"/><linearGradient id="o" x1="32.623%" x2="48.549%" y1="-4.841%" y2="45.414%"><stop offset="0%" stop-color="#EA6100" stop-opacity=".3"/><stop offset="66%" stop-color="#EA6100" stop-opacity="0"/></linearGradient><circle id="p" cx="64.167" cy="64.167" r="64.167"/><circle id="r" cx="64.167" cy="64.167" r="64.167"/><path id="t" d="M3.646 0L28.91 43.75.561 93.333h67.251V0z"/><circle id="v" cx="64.167" cy="64.167" r="64.167"/><radialGradient id="w" cx="-4.878%" cy="-.248%" r="401.327%" fx="-4.878%" fy="-.248%" gradientTransform="matrix(.26722 0 0 1 -.036 0)"><stop offset="0%" stop-color="#3E2723" stop-opacity=".2"/><stop offset="100%" stop-color="#3E2723" stop-opacity="0"/></radialGradient><circle id="y" cx="64.167" cy="64.167" r="64.167"/><path id="A" d="M.707 0v29.415L29.43 78.75 54.688 35h64.166V0z"/><circle id="C" cx="64.167" cy="64.167" r="64.167"/><radialGradient id="D" cx="-.166%" cy=".104%" r="136.321%" fx="-.166%" fy=".104%" gradientTransform="scale(1 .84752)"><stop offset="0%" stop-color="#3E2723" stop-opacity=".2"/><stop offset="100%" stop-color="#3E2723" stop-opacity="0"/></radialGradient><circle id="F" cx="64.167" cy="64.167" r="64.167"/><radialGradient id="G" cx="10.34%" cy="-12.215%" r="226.352%" fx="10.34%" fy="-12.215%" gradientTransform="matrix(1 0 0 .49642 0 -.062)"><stop offset="0%" stop-color="#263238" stop-opacity=".2"/><stop offset="100%" stop-color="#263238" stop-opacity="0"/></radialGradient><circle id="I" cx="64.167" cy="64.167" r="64.167"/><circle id="K" cx="64.167" cy="64.167" r="64.167"/><circle id="M" cx="64.167" cy="64.167" r="64.167"/><radialGradient id="O" cx="14.935%" cy="13.644%" r="100.424%" fx="14.935%" fy="13.644%"><stop offset="0%" stop-color="#FFF" stop-opacity=".1"/><stop offset="100%" stop-color="#FFF" stop-opacity="0"/></radialGradient></defs><g fill="none" fill-rule="evenodd"><g transform="translate(5.833 5.833)"><mask id="b" fill="#fff"><use xlink:href="#a"/></mask><g fill-rule="nonzero" mask="url(#b)"><path fill="#DB4437" d="M10.186 0v78.75h28.722L64.167 35h64.166V0z"/><path fill="url(#c)" d="M.707 0v78.75H29.43L54.688 35h64.166V0z" transform="translate(9.48)"/></g></g><g transform="translate(5.833 5.833)"><mask id="e" fill="#fff"><use xlink:href="#d"/></mask><path fill="#3E2723" fill-opacity=".15" fill-rule="nonzero" d="M39.601 78.495l-29.043-49.81-.423.73 28.832 49.437z" mask="url(#e)"/></g><g transform="translate(5.833 5.833)"><mask id="g" fill="#fff"><use xlink:href="#f"/></mask><g fill-rule="nonzero" mask="url(#g)"><path fill="#0F9D58" d="M0 128.333h61.082l28.35-28.35V78.75H38.908L0 12.017z"/><path fill="url(#h)" d="M0 116.667h61.082l28.35-28.35V67.083H38.908L0 .35z" transform="translate(0 11.667)"/></g></g><g transform="translate(5.833 5.833)"><mask id="j" fill="#fff"><use xlink:href="#i"/></mask><path fill="#263238" fill-opacity=".15" fill-rule="nonzero" d="M88.842 79.72l-.606-.35-27.992 48.963h.838l27.782-48.591z" mask="url(#j)"/></g><g transform="translate(5.833 5.833)"><mask id="l" fill="#fff"><use xlink:href="#k"/></mask><g mask="url(#l)"><g transform="translate(0 11.667)"><mask id="n" fill="#fff"><use xlink:href="#m"/></mask><g fill-rule="nonzero" mask="url(#n)"><path fill="#FFCD40" d="M64.167 23.333l25.265 43.75-28.35 49.584h67.251V23.333z"/><path fill="url(#o)" d="M3.646 0L28.91 43.75.561 93.333h67.251V0z" transform="translate(60.52 23.333)"/></g></g></g></g><g transform="translate(5.833 5.833)"><mask id="q" fill="#fff"><use xlink:href="#p"/></mask><g fill-rule="nonzero" mask="url(#q)"><path fill="#FFCD40" d="M64.167 35l25.265 43.75-28.35 49.583h67.251V35z"/><path fill="url(#o)" d="M3.646 0L28.91 43.75.561 93.333h67.251V0z" transform="translate(60.52 35)"/></g></g><g transform="translate(5.833 5.833)"><mask id="s" fill="#fff"><use xlink:href="#r"/></mask><g mask="url(#s)"><g transform="translate(60.52 35)"><mask id="u" fill="#fff"><use xlink:href="#t"/></mask><g fill-rule="nonzero" mask="url(#u)"><path fill="#DB4437" d="M-50.334-35v78.75h28.721L3.646 0h64.167v-35z"/><path fill="url(#c)" d="M.707 0v78.75H29.43L54.688 35h64.166V0z" transform="translate(-51.042 -35)"/></g></g></g></g><g transform="translate(5.833 5.833)"><mask id="x" fill="#fff"><use xlink:href="#v"/></mask><path fill="url(#w)" fill-rule="nonzero" d="M64.167 35v15.276L121.333 35z" mask="url(#x)"/></g><g transform="translate(5.833 5.833)"><mask id="z" fill="#fff"><use xlink:href="#y"/></mask><g mask="url(#z)"><g transform="translate(9.48)"><mask id="B" fill="#fff"><use xlink:href="#A"/></mask><g fill-rule="nonzero" mask="url(#B)"><path fill="#0F9D58" d="M-9.48 128.333h61.083l28.35-28.35V78.75H29.43L-9.479 12.017z"/><path fill="url(#h)" d="M0 116.667h61.082l28.35-28.35V67.083H38.908L0 .35z" transform="translate(-9.48 11.667)"/></g></g></g></g><g transform="translate(5.833 5.833)"><mask id="E" fill="#fff"><use xlink:href="#C"/></mask><path fill="url(#D)" fill-rule="nonzero" d="M10.186 29.495l41.745 41.737-13.023 7.518z" mask="url(#E)"/></g><g transform="translate(5.833 5.833)"><mask id="H" fill="#fff"><use xlink:href="#F"/></mask><path fill="url(#G)" fill-rule="nonzero" d="M61.126 128.253l15.283-57.02 13.023 7.517z" mask="url(#H)"/></g><g transform="translate(5.833 5.833)"><mask id="J" fill="#fff"><use xlink:href="#I"/></mask><g fill-rule="nonzero" mask="url(#J)"><g transform="translate(35 35)"><circle cx="29.167" cy="29.167" r="29.167" fill="#F1F1F1"/><circle cx="29.167" cy="29.167" r="23.333" fill="#4285F4"/></g></g></g><g transform="translate(5.833 5.833)"><mask id="L" fill="#fff"><use xlink:href="#K"/></mask><g fill-rule="nonzero" mask="url(#L)"><path fill="#3E2723" fill-opacity=".2" d="M64.167 34.27C48.059 34.27 35 47.33 35 63.439v.729C35 48.059 48.06 35 64.167 35h64.166v-.73H64.167z"/><path fill="#FFF" fill-opacity=".1" d="M89.396 78.75c-5.046 8.706-14.445 14.583-25.23 14.583-10.791 0-20.19-5.877-25.236-14.583h-.029L0 12.017v.729l38.908 66.733h.03c5.045 8.706 14.444 14.584 25.236 14.584 10.784 0 20.183-5.87 25.23-14.584h.036v-.729h-.044z"/><path fill="#3E2723" d="M64.896 35c-.124 0-.24.015-.365.022 15.94.197 28.802 13.161 28.802 29.145 0 15.983-12.862 28.948-28.802 29.144.124 0 .24.022.365.022 16.107 0 29.166-13.059 29.166-29.166C94.063 48.059 81.004 35 64.897 35z" opacity=".1"/><path fill="#FFF" fill-opacity=".2" d="M89.688 79.72a28.964 28.964 0 0 0 3.915-14.554c0-3.077-.481-6.038-1.363-8.816.692 2.494 1.093 5.111 1.093 7.824a28.964 28.964 0 0 1-3.915 14.554l.014.03-28.35 49.583h.846l27.774-48.592-.014-.03z"/></g></g><g transform="translate(5.833 5.833)"><mask id="N" fill="#fff"><use xlink:href="#M"/></mask><g fill-rule="nonzero" mask="url(#N)"><path fill="#FFF" fill-opacity=".2" d="M64.167.73c35.313 0 63.962 28.531 64.159 63.801 0-.124.007-.24.007-.364C128.333 28.729 99.604 0 64.167 0 28.729 0 0 28.73 0 64.167c0 .124.007.24.007.364C.204 29.261 28.853.73 64.167.73z"/><path fill="#3E2723" fill-opacity=".15" d="M64.167 127.604c35.313 0 63.962-28.532 64.159-63.802 0 .124.007.24.007.365 0 35.437-28.729 64.166-64.166 64.166C28.729 128.333 0 99.604 0 64.167c0-.124.007-.241.007-.365.197 35.27 28.846 63.802 64.16 63.802z"/></g></g><circle cx="70" cy="70" r="64.167" fill="url(#O)" fill-rule="nonzero"/><path d="M0 0h140v140H0z"/></g></svg>