<svg xmlns="http://www.w3.org/2000/svg" xmlns:xlink="http://www.w3.org/1999/xlink" width="140" height="140"><defs><linearGradient id="a" x1="50%" x2="50%" y1="0%" y2="100%"><stop offset="0%" stop-color="#FEFFFF"/><stop offset="100%" stop-color="#D7D7D6"/></linearGradient><linearGradient id="b" x1="50%" x2="50%" y1="0%" y2="100%"><stop offset="0%" stop-color="#F2F3F3"/><stop offset="100%" stop-color="#B9B9B9"/></linearGradient><radialGradient id="c" r="55.595%" fx="50%" fy="50%"><stop offset="0%" stop-color="#00CEF7"/><stop offset="60.023%" stop-color="#019AD5"/><stop offset="100%" stop-color="#0B55DA"/></radialGradient><linearGradient id="d" x1="50%" x2="50%" y1="0%" y2="134.442%"><stop offset="0%" stop-color="#F3F3F3"/><stop offset="100%" stop-color="#B7B7B7"/></linearGradient><filter id="e" width="123.7%" height="103.6%" x="-11.8%" y="-1.8%" filterUnits="objectBoundingBox"><feGaussianBlur in="SourceGraphic" stdDeviation=".714"/></filter><path id="f" d="M19.933 59.8l-9.966 58.644L0 59.8 9.967 1.156 19.933 59.8z"/></defs><g fill="none" fill-rule="evenodd" transform="translate(5 5)"><circle cx="65" cy="65" r="65" fill="url(#a)" stroke="url(#b)" stroke-width=".5"/><circle cx="65" cy="65" r="60.161" fill="url(#c)"/><path fill="url(#d)" fill-rule="nonzero" d="M64.133 8.416a.867.867 0 0 1 1.734 0V18.99a.867.867 0 0 1-1.734 0V8.416zm11.033.918a.867.867 0 0 1 1.701.33l-2.018 10.38a.867.867 0 1 1-1.701-.33l2.018-10.38zm10.732 3.069a.867.867 0 1 1 1.596.677l-4.132 9.733a.867.867 0 1 1-1.595-.677l4.131-9.733zm9.839 5.077a.867.867 0 1 1 1.437.97l-5.913 8.766a.867.867 0 1 1-1.437-.97l5.913-8.766zm8.661 6.896a.867.867 0 0 1 1.226 1.226l-7.477 7.477a.867.867 0 1 1-1.226-1.226l7.477-7.477zm7.152 8.45a.867.867 0 0 1 .97 1.437l-8.767 5.913a.867.867 0 0 1-.969-1.437l8.766-5.913zm5.42 9.76a.867.867 0 1 1 .649 1.607l-9.804 3.96a.867.867 0 1 1-.65-1.606l9.804-3.962zm3.366 10.547a.867.867 0 1 1 .33 1.701l-10.38 2.018a.867.867 0 0 1-.33-1.701l10.38-2.018zm1.248 11a.867.867 0 1 1 0 1.734H111.01a.867.867 0 1 1 0-1.734h10.574zm-.918 11.033a.867.867 0 0 1-.33 1.701l-10.38-2.018a.867.867 0 0 1 .33-1.701l10.38 2.018zm-3.069 10.732a.867.867 0 1 1-.677 1.596l-9.733-4.132a.867.867 0 0 1 .677-1.595l9.733 4.131zm-5.077 9.839a.867.867 0 0 1-.97 1.437l-8.766-5.913a.867.867 0 0 1 .97-1.437l8.766 5.913zm-6.896 8.661a.867.867 0 0 1-1.226 1.226l-7.477-7.477a.867.867 0 1 1 1.226-1.226l7.477 7.477zm-8.45 7.152a.867.867 0 0 1-1.437.97l-5.913-8.767a.867.867 0 0 1 1.437-.969l5.913 8.766zm-9.76 5.42a.867.867 0 1 1-1.607.649l-3.96-9.804a.867.867 0 1 1 1.606-.65l3.962 9.804zm-10.547 3.366a.867.867 0 1 1-1.701.33l-2.018-10.38a.867.867 0 0 1 1.701-.33l2.018 10.38zm-11 1.248a.867.867 0 1 1-1.734 0V111.01a.867.867 0 1 1 1.734 0v10.574zm-11.033-.918a.867.867 0 0 1-1.701-.33l2.018-10.38a.867.867 0 0 1 1.701.33l-2.018 10.38zm-10.732-3.069a.867.867 0 1 1-1.596-.677l4.132-9.733a.867.867 0 0 1 1.595.677l-4.131 9.733zm-9.839-5.077a.867.867 0 0 1-1.437-.97l5.913-8.766a.867.867 0 0 1 1.437.97l-5.913 8.766zm-8.661-6.896a.867.867 0 0 1-1.226-1.226l7.477-7.477a.867.867 0 1 1 1.226 1.226l-7.477 7.477zm-7.152-8.45a.867.867 0 1 1-.97-1.437l8.767-5.913a.867.867 0 1 1 .969 1.437l-8.766 5.913zm-5.37-9.68a.867.867 0 1 1-.677-1.596l9.733-4.131a.867.867 0 1 1 .677 1.595l-9.733 4.132zM9.664 76.867a.867.867 0 1 1-.33-1.701l10.38-2.018a.867.867 0 0 1 .33 1.701l-10.38 2.018zm-1.248-11a.867.867 0 0 1 0-1.734H18.99a.867.867 0 0 1 0 1.734H8.416zm.918-11.033a.867.867 0 0 1 .33-1.701l10.38 2.018a.867.867 0 1 1-.33 1.701l-10.38-2.018zm3.069-10.732a.867.867 0 1 1 .677-1.596l9.733 4.132a.867.867 0 1 1-.677 1.595l-9.733-4.131zm5.077-9.839a.867.867 0 1 1 .97-1.437l8.766 5.913a.867.867 0 1 1-.97 1.437l-8.766-5.913zm6.896-8.661a.867.867 0 1 1 1.226-1.226l7.477 7.477a.867.867 0 1 1-1.226 1.226l-7.477-7.477zm8.45-7.152a.867.867 0 1 1 1.437-.97l5.913 8.767a.867.867 0 1 1-1.437.969l-5.913-8.766zm9.76-5.42a.867.867 0 1 1 1.607-.649l3.96 9.804a.867.867 0 1 1-1.606.65l-3.962-9.804zm10.547-3.366a.867.867 0 1 1 1.701-.33l2.018 10.38a.867.867 0 0 1-1.701.33l-2.018-10.38zm16.523-.883a.867.867 0 1 1 1.724.175l-.433 4.276a.867.867 0 0 1-1.725-.175l.434-4.276zm10.868 1.99a.867.867 0 1 1 1.66.5l-1.242 4.115a.867.867 0 0 1-1.66-.5l1.242-4.115zm10.311 4.074a.867.867 0 1 1 1.52.834l-2.07 3.767a.867.867 0 0 1-1.52-.835l2.07-3.766zm9.279 6a.867.867 0 0 1 1.332 1.11l-2.75 3.302a.867.867 0 1 1-1.332-1.11l2.75-3.301zm7.93 7.694a.867.867 0 0 1 1.096 1.343l-3.33 2.717a.867.867 0 1 1-1.095-1.343l3.33-2.717zm6.279 9.092a.867.867 0 1 1 .82 1.528l-3.788 2.031a.867.867 0 1 1-.82-1.527l3.788-2.032zm4.41 10.172a.867.867 0 1 1 .484 1.664l-4.126 1.2a.867.867 0 0 1-.484-1.664l4.126-1.2zm2.318 10.804a.867.867 0 1 1 .158 1.727l-4.28.39a.867.867 0 0 1-.158-1.726l4.28-.39zm.168 11.049a.867.867 0 0 1-.175 1.724l-4.276-.433a.867.867 0 0 1 .175-1.725l4.276.434zm-1.99 10.868a.867.867 0 1 1-.5 1.66l-4.115-1.242a.867.867 0 1 1 .5-1.66l4.115 1.242zm-4.074 10.311a.867.867 0 1 1-.834 1.52l-3.767-2.07a.867.867 0 1 1 .835-1.52l3.766 2.07zm-6 9.279a.867.867 0 0 1-1.11 1.332l-3.302-2.75a.867.867 0 0 1 1.11-1.332l3.301 2.75zm-7.694 7.93a.867.867 0 0 1-1.343 1.096l-2.717-3.33a.867.867 0 1 1 1.343-1.095l2.717 3.33zm-9.092 6.279a.867.867 0 1 1-1.528.82l-2.031-3.788a.867.867 0 1 1 1.527-.82l2.032 3.788zm-10.172 4.41a.867.867 0 1 1-1.664.484l-1.2-4.126a.867.867 0 0 1 1.664-.484l1.2 4.126zm-10.804 2.318a.867.867 0 1 1-1.727.158l-.39-4.28a.867.867 0 0 1 1.726-.158l.39 4.28zm-11.049.168a.867.867 0 0 1-1.724-.175l.433-4.276a.867.867 0 0 1 1.725.175l-.434 4.276zm-10.868-1.99a.867.867 0 1 1-1.66-.5l1.242-4.115a.867.867 0 1 1 1.66.5l-1.242 4.115zm-10.311-4.074a.867.867 0 1 1-1.52-.834l2.07-3.767a.867.867 0 1 1 1.52.835l-2.07 3.766zm-9.279-6a.867.867 0 0 1-1.332-1.11l2.75-3.302a.867.867 0 0 1 1.332 1.11l-2.75 3.301zm-7.93-7.694a.867.867 0 0 1-1.096-1.343l3.33-2.717a.867.867 0 0 1 1.095 1.343l-3.33 2.717zm-6.279-9.092a.867.867 0 0 1-.82-1.528l3.788-2.031a.867.867 0 0 1 .82 1.527l-3.788 2.032zm-4.385-10.14a.867.867 0 0 1-.513-1.656l4.105-1.272a.867.867 0 0 1 .513 1.656l-4.105 1.271zM8.949 71.392a.867.867 0 0 1-.158-1.727l4.28-.39a.867.867 0 1 1 .158 1.726l-4.28.39zM8.78 60.344a.867.867 0 1 1 .175-1.724l4.276.433a.867.867 0 0 1-.175 1.725l-4.276-.434zm1.99-10.868a.867.867 0 1 1 .5-1.66l4.115 1.242a.867.867 0 0 1-.5 1.66l-4.115-1.242zm4.074-10.311a.867.867 0 1 1 .834-1.52l3.767 2.07a.867.867 0 0 1-.835 1.52l-3.766-2.07zm6-9.279a.867.867 0 0 1 1.11-1.332l3.302 2.75a.867.867 0 1 1-1.11 1.332l-3.301-2.75zm7.694-7.93a.867.867 0 1 1 1.343-1.096l2.717 3.33a.867.867 0 0 1-1.343 1.095l-2.717-3.33zm9.092-6.279a.867.867 0 0 1 1.528-.82l2.031 3.788a.867.867 0 0 1-1.527.82l-2.032-3.788zm10.172-4.41a.867.867 0 0 1 1.664-.484l1.2 4.126a.867.867 0 1 1-1.664.484l-1.2-4.126zm10.804-2.318a.867.867 0 0 1 1.727-.158l.39 4.28a.867.867 0 1 1-1.726.158l-.39-4.28z"/><g transform="rotate(45 31.279 129.005)"><path fill="#000" fill-opacity=".5" d="M20.342 59.596l-9.048 59.574-9.047-59.574L11.294.02l9.048 59.575z" filter="url(#e)"/><mask id="g" fill="#fff"><use xlink:href="#f"/></mask><use fill="#FE504D" xlink:href="#f"/><path fill="#EEE" d="M-6.356 59.8h33.8v58.644h-33.8z" mask="url(#g)"/><path fill="#000" fill-opacity=".25" d="M9.967-1.878h36.4v120.322h-36.4z" mask="url(#g)" style="mix-blend-mode:multiply"/></g></g></svg>