<svg xmlns="http://www.w3.org/2000/svg" viewBox="-13550 -12923 40.262 26.496"><defs><style>.cls-1{fill:#41479b}.cls-2{fill:#ffe15a}.cls-3{fill:#f8f8f8;stroke:#95989a;stroke-width:.3px}.cls-4{fill:#ff4b55}</style></defs><g id="Group_2989" data-name="Group 2989" transform="translate(6083 10885)"><g id="Group_2986" data-name="Group 2986" transform="translate(-19633 -23808)"><path id="Path_12013" data-name="Path 12013" class="cls-1" d="M27.524 18.361H.481A.482.482 0 0 1 0 17.879V.482A.486.486 0 0 1 .481 0h27.038A.482.482 0 0 1 28 .482v17.4a.474.474 0 0 1-.476.479z"/><g id="Group_2985" data-name="Group 2985" transform="translate(6.928 2.045)"><path id="Path_12014" data-name="Path 12014" class="cls-2" d="M241.6 37.407l.191.58.613.005a.083.083 0 0 1 .049.148l-.492.361.186.586a.083.083 0 0 1-.126.093l-.5-.356-.5.356a.082.082 0 0 1-.126-.093l.186-.586-.492-.361a.081.081 0 0 1 .049-.148l.613-.005.191-.58a.08.08 0 0 1 .158 0z" transform="translate(-234.332 -37.35)"/><path id="Path_12015" data-name="Path 12015" class="cls-2" d="M241.6 265.307l.191.58.613.005a.083.083 0 0 1 .049.148l-.492.361.186.586a.083.083 0 0 1-.126.093l-.5-.356-.5.356a.082.082 0 0 1-.126-.093l.186-.586-.492-.361a.081.081 0 0 1 .049-.148l.613-.005.191-.58a.08.08 0 0 1 .158 0z" transform="translate(-234.332 -252.774)"/><path id="Path_12016" data-name="Path 12016" class="cls-2" d="M355.5 151.378l.191.58.613.005a.083.083 0 0 1 .049.148l-.492.361.186.586a.083.083 0 0 1-.126.093l-.5-.356-.5.356a.082.082 0 0 1-.126-.093l.186-.586-.492-.361a.081.081 0 0 1 .049-.148l.613-.005.191-.58a.082.082 0 0 1 .158 0z" transform="translate(-342.001 -145.086)"/><path id="Path_12017" data-name="Path 12017" class="cls-2" d="M127.7 151.378l.191.58.613.005a.083.083 0 0 1 .049.148l-.492.361.186.586a.083.083 0 0 1-.126.093l-.5-.356-.5.356a.082.082 0 0 1-.126-.093l.186-.586-.492-.361a.081.081 0 0 1 .049-.148l.613-.005.191-.58a.082.082 0 0 1 .158 0z" transform="translate(-126.662 -145.086)"/><path id="Path_12018" data-name="Path 12018" class="cls-2" d="M144.8 91.878l.191.58.613.005a.083.083 0 0 1 .049.148l-.492.361.186.586a.083.083 0 0 1-.126.093l-.5-.356-.5.356a.082.082 0 0 1-.126-.093l.186-.586-.492-.361a.081.081 0 0 1 .049-.148l.613-.005.191-.58a.082.082 0 0 1 .158 0z" transform="translate(-142.826 -88.843)"/><path id="Path_12019" data-name="Path 12019" class="cls-2" d="M342.1 205.807l.191.58.613.005a.083.083 0 0 1 .049.148l-.492.361.186.586a.083.083 0 0 1-.126.093l-.5-.356-.5.356a.082.082 0 0 1-.126-.093l.186-.586-.492-.361a.081.081 0 0 1 .049-.148l.613-.005.191-.58a.08.08 0 0 1 .158 0z" transform="translate(-329.334 -196.531)"/><path id="Path_12020" data-name="Path 12020" class="cls-2" d="M300.4 50.178l.191.58.613.005a.083.083 0 0 1 .049.148l-.492.361.186.586a.083.083 0 0 1-.126.093l-.5-.356-.5.356a.082.082 0 0 1-.126-.093l.186-.586-.492-.361a.081.081 0 0 1 .049-.148l.613-.005.191-.58a.082.082 0 0 1 .158 0z" transform="translate(-289.915 -49.426)"/><path id="Path_12021" data-name="Path 12021" class="cls-2" d="M186.5 247.507l.191.58.613.005a.083.083 0 0 1 .049.148l-.492.361.186.586a.083.083 0 0 1-.126.093l-.5-.356-.5.356a.082.082 0 0 1-.126-.093l.186-.586-.492-.361a.081.081 0 0 1 .049-.148l.613-.005.191-.58a.08.08 0 0 1 .158 0z" transform="translate(-182.245 -235.949)"/><path id="Path_12022" data-name="Path 12022" class="cls-2" d="M341.915 91.878l-.191.58-.613.005a.083.083 0 0 0-.049.148l.492.361-.186.586a.083.083 0 0 0 .126.093l.5-.356.5.356a.082.082 0 0 0 .126-.093l-.186-.586.492-.361a.081.081 0 0 0-.049-.148l-.613-.005-.191-.58a.082.082 0 0 0-.158 0z" transform="translate(-329.305 -88.843)"/><path id="Path_12023" data-name="Path 12023" class="cls-2" d="M144.615 205.807l-.191.58-.613.005a.083.083 0 0 0-.049.148l.492.361-.186.586a.083.083 0 0 0 .126.093l.5-.356.5.356a.082.082 0 0 0 .126-.093l-.186-.586.492-.361a.081.081 0 0 0-.049-.148l-.613-.005-.191-.58a.08.08 0 0 0-.158 0z" transform="translate(-142.797 -196.531)"/><path id="Path_12024" data-name="Path 12024" class="cls-2" d="M186.315 50.19l-.191.58-.613.005a.083.083 0 0 0-.049.148l.492.361-.186.586a.083.083 0 0 0 .126.093l.5-.356.5.356a.082.082 0 0 0 .126-.093l-.186-.586.492-.361a.081.081 0 0 0-.049-.148h-.607l-.191-.58a.085.085 0 0 0-.164-.005z" transform="translate(-182.216 -49.437)"/><path id="Path_12025" data-name="Path 12025" class="cls-2" d="M300.215 247.507l-.191.58-.613.005a.083.083 0 0 0-.049.148l.492.361-.186.586a.083.083 0 0 0 .126.093l.5-.356.5.356a.082.082 0 0 0 .126-.093l-.186-.586.492-.361a.081.081 0 0 0-.049-.148l-.613-.005-.191-.58a.08.08 0 0 0-.158 0z" transform="translate(-289.886 -235.949)"/></g></g><g id="Group_2992" data-name="Group 2992" transform="translate(-19620.889 -23800)"><g id="Group_2991" data-name="Group 2991"><g id="Group_2990" data-name="Group 2990"><path id="Path_12033" data-name="Path 12033" class="cls-3" d="M27.524 18.346H.481A.482.482 0 0 1 0 17.864V.481A.486.486 0 0 1 .481 0h27.038A.482.482 0 0 1 28 .481v17.383a.474.474 0 0 1-.476.482z"/><ellipse id="Ellipse_178" data-name="Ellipse 178" class="cls-4" cx="5.311" cy="5.311" rx="5.311" ry="5.311" transform="translate(8.692 3.862)"/></g></g></g></g></svg>