<svg xmlns="http://www.w3.org/2000/svg" viewBox="-13550 -12956 40 26.36"><defs><style>.cls-1{fill:#41479b}.cls-2{fill:#ffe15a}.cls-3{fill:#f5f5f5}.cls-4{fill:#ff4b55}</style></defs><g id="Group_2980" data-name="Group 2980" transform="translate(6083 10852)"><g id="Group_2982" data-name="Group 2982" transform="translate(-19633 -23808)"><path id="Path_11993" data-name="Path 11993" class="cls-1" d="M27.524 18.361H.481A.482.482 0 0 1 0 17.879V.482A.486.486 0 0 1 .481 0h27.038A.482.482 0 0 1 28 .482v17.4a.474.474 0 0 1-.476.479z"/><g id="Group_2981" data-name="Group 2981" transform="translate(6.928 2.045)"><path id="Path_11994" data-name="Path 11994" class="cls-2" d="M241.6 37.407l.191.58.613.005a.083.083 0 0 1 .049.148l-.492.361.186.586a.083.083 0 0 1-.126.093l-.5-.356-.5.356a.082.082 0 0 1-.126-.093l.186-.586-.492-.361a.081.081 0 0 1 .049-.148l.613-.005.191-.58a.08.08 0 0 1 .158 0z" transform="translate(-234.332 -37.35)"/><path id="Path_11995" data-name="Path 11995" class="cls-2" d="M241.6 265.307l.191.58.613.005a.083.083 0 0 1 .049.148l-.492.361.186.586a.083.083 0 0 1-.126.093l-.5-.356-.5.356a.082.082 0 0 1-.126-.093l.186-.586-.492-.361a.081.081 0 0 1 .049-.148l.613-.005.191-.58a.08.08 0 0 1 .158 0z" transform="translate(-234.332 -252.774)"/><path id="Path_11996" data-name="Path 11996" class="cls-2" d="M355.5 151.378l.191.58.613.005a.083.083 0 0 1 .049.148l-.492.361.186.586a.083.083 0 0 1-.126.093l-.5-.356-.5.356a.082.082 0 0 1-.126-.093l.186-.586-.492-.361a.081.081 0 0 1 .049-.148l.613-.005.191-.58a.082.082 0 0 1 .158 0z" transform="translate(-342.001 -145.086)"/><path id="Path_11997" data-name="Path 11997" class="cls-2" d="M127.7 151.378l.191.58.613.005a.083.083 0 0 1 .049.148l-.492.361.186.586a.083.083 0 0 1-.126.093l-.5-.356-.5.356a.082.082 0 0 1-.126-.093l.186-.586-.492-.361a.081.081 0 0 1 .049-.148l.613-.005.191-.58a.082.082 0 0 1 .158 0z" transform="translate(-126.662 -145.086)"/><path id="Path_11998" data-name="Path 11998" class="cls-2" d="M144.8 91.878l.191.58.613.005a.083.083 0 0 1 .049.148l-.492.361.186.586a.083.083 0 0 1-.126.093l-.5-.356-.5.356a.082.082 0 0 1-.126-.093l.186-.586-.492-.361a.081.081 0 0 1 .049-.148l.613-.005.191-.58a.082.082 0 0 1 .158 0z" transform="translate(-142.826 -88.843)"/><path id="Path_11999" data-name="Path 11999" class="cls-2" d="M342.1 205.807l.191.58.613.005a.083.083 0 0 1 .049.148l-.492.361.186.586a.083.083 0 0 1-.126.093l-.5-.356-.5.356a.082.082 0 0 1-.126-.093l.186-.586-.492-.361a.081.081 0 0 1 .049-.148l.613-.005.191-.58a.08.08 0 0 1 .158 0z" transform="translate(-329.334 -196.531)"/><path id="Path_12000" data-name="Path 12000" class="cls-2" d="M300.4 50.178l.191.58.613.005a.083.083 0 0 1 .049.148l-.492.361.186.586a.083.083 0 0 1-.126.093l-.5-.356-.5.356a.082.082 0 0 1-.126-.093l.186-.586-.492-.361a.081.081 0 0 1 .049-.148l.613-.005.191-.58a.082.082 0 0 1 .158 0z" transform="translate(-289.915 -49.426)"/><path id="Path_12001" data-name="Path 12001" class="cls-2" d="M186.5 247.507l.191.58.613.005a.083.083 0 0 1 .049.148l-.492.361.186.586a.083.083 0 0 1-.126.093l-.5-.356-.5.356a.082.082 0 0 1-.126-.093l.186-.586-.492-.361a.081.081 0 0 1 .049-.148l.613-.005.191-.58a.08.08 0 0 1 .158 0z" transform="translate(-182.245 -235.949)"/><path id="Path_12002" data-name="Path 12002" class="cls-2" d="M341.915 91.878l-.191.58-.613.005a.083.083 0 0 0-.049.148l.492.361-.186.586a.083.083 0 0 0 .126.093l.5-.356.5.356a.082.082 0 0 0 .126-.093l-.186-.586.492-.361a.081.081 0 0 0-.049-.148l-.613-.005-.191-.58a.082.082 0 0 0-.158 0z" transform="translate(-329.305 -88.843)"/><path id="Path_12003" data-name="Path 12003" class="cls-2" d="M144.615 205.807l-.191.58-.613.005a.083.083 0 0 0-.049.148l.492.361-.186.586a.083.083 0 0 0 .126.093l.5-.356.5.356a.082.082 0 0 0 .126-.093l-.186-.586.492-.361a.081.081 0 0 0-.049-.148l-.613-.005-.191-.58a.08.08 0 0 0-.158 0z" transform="translate(-142.797 -196.531)"/><path id="Path_12004" data-name="Path 12004" class="cls-2" d="M186.315 50.19l-.191.58-.613.005a.083.083 0 0 0-.049.148l.492.361-.186.586a.083.083 0 0 0 .126.093l.5-.356.5.356a.082.082 0 0 0 .126-.093l-.186-.586.492-.361a.081.081 0 0 0-.049-.148h-.607l-.191-.58a.085.085 0 0 0-.164-.005z" transform="translate(-182.216 -49.437)"/><path id="Path_12005" data-name="Path 12005" class="cls-2" d="M300.215 247.507l-.191.58-.613.005a.083.083 0 0 0-.049.148l.492.361-.186.586a.083.083 0 0 0 .126.093l.5-.356.5.356a.082.082 0 0 0 .126-.093l-.186-.586.492-.361a.081.081 0 0 0-.049-.148l-.613-.005-.191-.58a.08.08 0 0 0-.158 0z" transform="translate(-289.886 -235.949)"/></g></g><g id="Group_2984" data-name="Group 2984" transform="translate(-19621 -23800)"><path id="Path_12006" data-name="Path 12006" class="cls-1" d="M27.519 18.355H.481A.482.482 0 0 1 0 17.874V.482A.486.486 0 0 1 .481 0h27.032a.482.482 0 0 1 .481.482v17.392a.474.474 0 0 1-.475.481z"/><path id="Path_12007" data-name="Path 12007" class="cls-3" d="M28 .482A.482.482 0 0 0 27.519 0h-2.16l-8.947 5.861V0h-4.829v5.861L2.641 0H.481A.486.486 0 0 0 0 .482v1.247l7.673 5.03H0v4.832h7.673L0 16.626v1.248a.482.482 0 0 0 .481.482h2.16l8.941-5.861v5.861h4.829v-5.862l8.941 5.861h2.16a.482.482 0 0 0 .481-.482v-1.247L20.322 11.6H28V6.764h-7.673L28 1.735z"/><g id="Group_2983" data-name="Group 2983"><path id="Path_12008" data-name="Path 12008" class="cls-4" d="M28 7.727H15.449V0h-2.9v7.727H0v2.9h12.551v7.727h2.9v-7.726H28z"/><path id="Path_12009" data-name="Path 12009" class="cls-4" d="M9.973 211.9L.2 218.248a.473.473 0 0 0 .47.416h.667L11.75 211.9z" transform="translate(-.189 -200.304)"/><path id="Path_12010" data-name="Path 12010" class="cls-4" d="M315.772 211.9H314l10.4 6.753a.479.479 0 0 0 .432-.471v-.4z" transform="translate(-296.828 -200.304)"/><path id="Path_12011" data-name="Path 12011" class="cls-4" d="M0 1.869l8.848 5.746h1.772L.279.9A.478.478 0 0 0 0 1.332z" transform="translate(0 -.851)"/><path id="Path_12012" data-name="Path 12012" class="cls-4" d="M301.877 6.764L311.672.4a.475.475 0 0 0-.465-.4h-.689L300.1 6.764z" transform="translate(-283.688)"/></g></g></g></svg>