<svg xmlns="http://www.w3.org/2000/svg" viewBox="-13498 -12989 40.353 26"><defs><style>.cls-1{fill:#41479b}.cls-2{fill:#f5f5f5}.cls-3{fill:#ff4b55}</style></defs><g id="Group_3036" data-name="Group 3036" transform="translate(6135 10819)"><g id="Group_3032" data-name="Group 3032" transform="translate(-19633 -23808)"><path id="Path_12218" data-name="Path 12218" class="cls-1" d="M27.519 18.355H.481A.482.482 0 0 1 0 17.874V.482A.486.486 0 0 1 .481 0h27.032a.482.482 0 0 1 .481.482v17.392a.474.474 0 0 1-.475.481z"/><path id="Path_12219" data-name="Path 12219" class="cls-2" d="M28 .482A.482.482 0 0 0 27.519 0h-2.16l-8.947 5.861V0h-4.829v5.861L2.641 0H.481A.486.486 0 0 0 0 .482v1.247l7.673 5.03H0v4.832h7.673L0 16.626v1.248a.482.482 0 0 0 .481.482h2.16l8.941-5.861v5.861h4.829v-5.862l8.941 5.861h2.16a.482.482 0 0 0 .481-.482v-1.247L20.322 11.6H28V6.764h-7.673L28 1.735z"/><g id="Group_3031" data-name="Group 3031"><path id="Path_12220" data-name="Path 12220" class="cls-3" d="M28 7.727H15.449V0h-2.9v7.727H0v2.9h12.551v7.727h2.9v-7.726H28z"/><path id="Path_12221" data-name="Path 12221" class="cls-3" d="M9.973 211.9L.2 218.248a.473.473 0 0 0 .47.416h.667L11.75 211.9z" transform="translate(-.189 -200.304)"/><path id="Path_12222" data-name="Path 12222" class="cls-3" d="M315.772 211.9H314l10.4 6.753a.479.479 0 0 0 .432-.471v-.4z" transform="translate(-296.828 -200.304)"/><path id="Path_12223" data-name="Path 12223" class="cls-3" d="M0 1.869l8.848 5.746h1.772L.279.9A.478.478 0 0 0 0 1.332z" transform="translate(0 -.851)"/><path id="Path_12224" data-name="Path 12224" class="cls-3" d="M301.877 6.764L311.672.4a.475.475 0 0 0-.465-.4h-.689L300.1 6.764z" transform="translate(-283.688)"/></g></g><g id="Group_3039" data-name="Group 3039" transform="translate(-19621 -23801)"><path id="Path_12226" data-name="Path 12226" class="cls-2" d="M27.866 19H.487A.494.494 0 0 1 0 18.5V.5A.5.5 0 0 1 .487 0H27.86a.494.494 0 0 1 .487.5v18a.486.486 0 0 1-.481.5z"/><g id="Group_3037" data-name="Group 3037"><path id="Path_12227" data-name="Path 12227" class="cls-3" d="M28.353 1.462H0V.5A.5.5 0 0 1 .487 0H27.86a.494.494 0 0 1 .487.5l.006.963z"/><path id="Rectangle_2193" data-name="Rectangle 2193" class="cls-3" transform="translate(0 5.846)" d="M0 0h28.353v1.462H0z"/><path id="Rectangle_2194" data-name="Rectangle 2194" class="cls-3" transform="translate(0 2.923)" d="M0 0h28.353v1.462H0z"/><path id="Path_12228" data-name="Path 12228" class="cls-3" d="M28.353 156.262H.487a.494.494 0 0 1-.487-.5v-.962h28.353z" transform="translate(0 -146.031)"/><path id="Rectangle_2195" data-name="Rectangle 2195" class="cls-3" transform="translate(0 14.615)" d="M0 0h28.353v1.462H0z"/><path id="Path_12229" data-name="Path 12229" class="cls-3" d="M27.866 311.062H.487a.494.494 0 0 1-.487-.5v-.962h28.353v.963a.494.494 0 0 1-.487.499z" transform="translate(0 -292.062)"/><path id="Rectangle_2196" data-name="Rectangle 2196" class="cls-3" transform="translate(0 11.692)" d="M0 0h28.353v1.462H0z"/></g><path id="Path_12230" data-name="Path 12230" class="cls-1" d="M12.709 0H.487A.5.5 0 0 0 0 .5v9.232a.494.494 0 0 0 .487.5h12.222a.494.494 0 0 0 .487-.5V.5a.494.494 0 0 0-.487-.5z"/><g id="Group_3038" data-name="Group 3038" transform="translate(.797 1.116)"><path id="Path_12231" data-name="Path 12231" class="cls-2" d="M14.96 19.734l.111.334h.343a.048.048 0 0 1 .028.085l-.277.21.105.334a.046.046 0 0 1-.072.051l-.277-.2-.277.2a.047.047 0 0 1-.072-.051l.105-.334-.277-.21a.048.048 0 0 1 .028-.085h.343l.111-.334c.006-.045.061-.045.078 0z" transform="translate(-14.383 -19.7)"/><path id="Path_12232" data-name="Path 12232" class="cls-2" d="M14.96 50.4l.111.334h.343a.048.048 0 0 1 .028.085l-.277.21.105.334a.046.046 0 0 1-.072.051l-.277-.2-.277.2a.047.047 0 0 1-.072-.051l.105-.334-.277-.21a.048.048 0 0 1 .028-.085h.343l.111-.334c.006-.035.061-.035.078 0z" transform="translate(-14.383 -48.637)"/><path id="Path_12233" data-name="Path 12233" class="cls-2" d="M14.96 81.034l.111.334h.343a.048.048 0 0 1 .028.085l-.277.21.105.337a.046.046 0 0 1-.072.051l-.277-.2-.277.2a.047.047 0 0 1-.072-.051l.105-.334-.277-.21a.048.048 0 0 1 .028-.085h.343l.111-.334c.006-.048.061-.048.078-.003z" transform="translate(-14.383 -77.527)"/><path id="Path_12234" data-name="Path 12234" class="cls-2" d="M14.96 111.7l.111.334h.343a.048.048 0 0 1 .028.085l-.277.21.105.334a.046.046 0 0 1-.072.051l-.277-.2-.277.2a.047.047 0 0 1-.072-.051l.105-.334-.277-.21a.048.048 0 0 1 .028-.085h.343l.111-.334c.006-.035.061-.035.078 0z" transform="translate(-14.383 -106.465)"/><path id="Path_12235" data-name="Path 12235" class="cls-2" d="M14.96 142.334l.111.334h.343a.048.048 0 0 1 .028.085l-.277.21.105.334a.046.046 0 0 1-.072.051l-.277-.2-.277.2a.047.047 0 0 1-.072-.051l.105-.334-.277-.21a.048.048 0 0 1 .028-.085h.343l.111-.334c.006-.045.061-.045.078 0z" transform="translate(-14.383 -135.355)"/><path id="Path_12236" data-name="Path 12236" class="cls-2" d="M38.76 34.734l.111.334h.343a.048.048 0 0 1 .028.085l-.277.21.105.334a.046.046 0 0 1-.072.051l-.277-.2-.277.2a.047.047 0 0 1-.072-.051l.105-.334-.277-.21a.048.048 0 0 1 .028-.085h.343l.111-.334c.006-.045.061-.045.078 0z" transform="translate(-36.865 -33.85)"/><path id="Path_12237" data-name="Path 12237" class="cls-2" d="M38.76 65.4l.111.334h.343a.048.048 0 0 1 .028.085l-.277.21.105.334a.046.046 0 0 1-.072.051l-.277-.2-.277.2a.047.047 0 0 1-.072-.051l.105-.334-.277-.21a.048.048 0 0 1 .028-.085h.343l.111-.334c.006-.035.061-.035.078 0z" transform="translate(-36.865 -62.788)"/><path id="Path_12238" data-name="Path 12238" class="cls-2" d="M38.76 96.034l.111.334h.343a.048.048 0 0 1 .028.085l-.277.21.105.337a.046.046 0 0 1-.072.051l-.277-.2-.277.2a.047.047 0 0 1-.072-.051l.105-.334-.277-.21a.048.048 0 0 1 .028-.085h.343l.111-.334c.006-.048.061-.048.078-.003z" transform="translate(-36.865 -91.678)"/><path id="Path_12239" data-name="Path 12239" class="cls-2" d="M38.76 126.734l.111.334h.343a.048.048 0 0 1 .028.085l-.277.21.105.334a.046.046 0 0 1-.072.051l-.277-.2-.277.2a.047.047 0 0 1-.072-.051l.105-.334-.277-.21a.048.048 0 0 1 .028-.085h.343l.111-.334c.006-.045.061-.045.078 0z" transform="translate(-36.865 -120.639)"/><path id="Path_12240" data-name="Path 12240" class="cls-2" d="M62.56 19.734l.111.334h.343a.048.048 0 0 1 .028.085l-.277.21.105.334a.046.046 0 0 1-.072.051l-.277-.2-.277.2a.047.047 0 0 1-.072-.051l.105-.334-.277-.21a.048.048 0 0 1 .028-.085h.343l.111-.334c.001-.045.061-.045.078 0z" transform="translate(-59.347 -19.7)"/><path id="Path_12241" data-name="Path 12241" class="cls-2" d="M62.466 50.4l.111.334h.343a.048.048 0 0 1 .028.085l-.282.21.105.334a.046.046 0 0 1-.072.051l-.277-.2-.277.2a.047.047 0 0 1-.072-.051l.105-.334-.277-.21a.048.048 0 0 1 .028-.085h.343l.111-.334c.005-.035.066-.035.083 0z" transform="translate(-59.253 -48.637)"/><path id="Path_12242" data-name="Path 12242" class="cls-2" d="M62.56 81.034l.111.334h.343a.048.048 0 0 1 .028.085l-.277.21.105.337a.046.046 0 0 1-.072.051l-.277-.2-.277.2a.047.047 0 0 1-.072-.051l.105-.334-.277-.213a.048.048 0 0 1 .028-.085h.343l.111-.334c.001-.045.061-.045.078 0z" transform="translate(-59.347 -77.527)"/><path id="Path_12243" data-name="Path 12243" class="cls-2" d="M62.56 111.7l.111.334h.343a.048.048 0 0 1 .028.085l-.277.21.105.334a.046.046 0 0 1-.072.051l-.277-.2-.277.2a.047.047 0 0 1-.072-.051l.105-.334-.277-.21a.048.048 0 0 1 .028-.085h.343l.111-.334c.001-.035.061-.035.078 0z" transform="translate(-59.347 -106.465)"/><path id="Path_12244" data-name="Path 12244" class="cls-2" d="M62.56 142.334l.111.334h.343a.048.048 0 0 1 .028.085l-.277.21.105.334a.046.046 0 0 1-.072.051l-.277-.2-.277.2a.047.047 0 0 1-.072-.051l.105-.334-.277-.21a.048.048 0 0 1 .028-.085h.343l.111-.334c.001-.045.061-.045.078 0z" transform="translate(-59.347 -135.355)"/><path id="Path_12245" data-name="Path 12245" class="cls-2" d="M86.36 34.734l.111.334h.343a.048.048 0 0 1 .028.085l-.277.21.105.334a.046.046 0 0 1-.072.051l-.277-.2-.277.2a.047.047 0 0 1-.072-.051l.105-.334-.277-.21a.048.048 0 0 1 .028-.085h.343l.111-.334c.001-.045.061-.045.078 0z" transform="translate(-81.829 -33.85)"/><path id="Path_12246" data-name="Path 12246" class="cls-2" d="M86.36 65.4l.111.334h.343a.048.048 0 0 1 .028.085l-.277.21.105.334a.046.046 0 0 1-.072.051l-.277-.2-.277.2a.047.047 0 0 1-.072-.051l.105-.334-.277-.21a.048.048 0 0 1 .028-.085h.343l.111-.334c.001-.035.061-.035.078 0z" transform="translate(-81.829 -62.788)"/><path id="Path_12247" data-name="Path 12247" class="cls-2" d="M86.36 96.034l.111.334h.343a.048.048 0 0 1 .028.085l-.277.21.105.337a.046.046 0 0 1-.072.051l-.277-.2-.277.2a.047.047 0 0 1-.072-.051l.105-.334-.277-.21a.048.048 0 0 1 .028-.085h.343l.111-.334c.001-.048.061-.048.078-.003z" transform="translate(-81.829 -91.678)"/><path id="Path_12248" data-name="Path 12248" class="cls-2" d="M86.36 126.734l.111.334h.343a.048.048 0 0 1 .028.085l-.277.21.105.334a.046.046 0 0 1-.072.051l-.277-.2-.277.2a.047.047 0 0 1-.072-.051l.105-.334-.277-.21a.048.048 0 0 1 .028-.085h.343l.111-.334c.001-.045.061-.045.078 0z" transform="translate(-81.829 -120.639)"/><path id="Path_12249" data-name="Path 12249" class="cls-2" d="M110.16 19.734l.111.334h.343a.048.048 0 0 1 .028.085l-.277.21.105.334a.046.046 0 0 1-.072.051l-.277-.2-.277.2a.047.047 0 0 1-.072-.051l.105-.334-.277-.21a.048.048 0 0 1 .028-.085h.343l.111-.334c.001-.045.061-.045.078 0z" transform="translate(-104.311 -19.7)"/><path id="Path_12250" data-name="Path 12250" class="cls-2" d="M110.16 50.4l.111.334h.343a.048.048 0 0 1 .028.085l-.277.21.105.334a.046.046 0 0 1-.072.051l-.277-.2-.277.2a.047.047 0 0 1-.072-.051l.105-.334-.277-.21a.048.048 0 0 1 .028-.085h.343l.111-.334c.001-.035.061-.035.078 0z" transform="translate(-104.311 -48.637)"/><path id="Path_12251" data-name="Path 12251" class="cls-2" d="M110.16 81.034l.111.334h.343a.048.048 0 0 1 .028.085l-.277.21.105.334a.046.046 0 0 1-.072.051l-.277-.2-.277.2a.047.047 0 0 1-.072-.051l.105-.334-.277-.21a.048.048 0 0 1 .028-.085h.343l.111-.334c.001-.045.061-.045.078 0z" transform="translate(-104.311 -77.527)"/><path id="Path_12252" data-name="Path 12252" class="cls-2" d="M110.16 111.7l.111.334h.343a.048.048 0 0 1 .028.085l-.277.21.105.334a.046.046 0 0 1-.072.051l-.277-.2-.277.2a.047.047 0 0 1-.072-.051l.105-.334-.277-.21a.048.048 0 0 1 .028-.085h.343l.111-.334c.001-.035.061-.035.078 0z" transform="translate(-104.311 -106.465)"/><path id="Path_12253" data-name="Path 12253" class="cls-2" d="M110.16 142.334l.111.334h.343a.048.048 0 0 1 .028.085l-.277.21.105.334a.046.046 0 0 1-.072.051l-.277-.2-.277.2a.047.047 0 0 1-.072-.051l.105-.334-.277-.21a.048.048 0 0 1 .028-.085h.343l.111-.334c.001-.045.061-.045.078 0z" transform="translate(-104.311 -135.355)"/><path id="Path_12254" data-name="Path 12254" class="cls-2" d="M133.96 34.734l.111.334h.343a.048.048 0 0 1 .028.085l-.277.21.105.334a.046.046 0 0 1-.072.051l-.277-.2-.277.2a.047.047 0 0 1-.072-.051l.105-.334-.277-.21a.048.048 0 0 1 .028-.085h.343l.111-.334c.001-.045.061-.045.078 0z" transform="translate(-126.793 -33.85)"/><path id="Path_12255" data-name="Path 12255" class="cls-2" d="M133.96 65.4l.111.334h.343a.048.048 0 0 1 .028.085l-.277.21.105.334a.046.046 0 0 1-.072.051l-.277-.2-.277.2a.047.047 0 0 1-.072-.051l.105-.334-.277-.21a.048.048 0 0 1 .028-.085h.343l.111-.334c.001-.035.061-.035.078 0z" transform="translate(-126.793 -62.788)"/><path id="Path_12256" data-name="Path 12256" class="cls-2" d="M133.96 96.034l.111.334h.343a.048.048 0 0 1 .028.085l-.277.21.105.334a.046.046 0 0 1-.072.051l-.277-.2-.277.2a.047.047 0 0 1-.072-.051l.105-.334-.277-.21a.048.048 0 0 1 .028-.085h.343l.111-.334c.001-.045.061-.045.078 0z" transform="translate(-126.793 -91.678)"/><path id="Path_12257" data-name="Path 12257" class="cls-2" d="M133.96 126.734l.111.334h.343a.048.048 0 0 1 .028.085l-.277.21.105.334a.046.046 0 0 1-.072.051l-.277-.2-.277.2a.047.047 0 0 1-.072-.051l.105-.334-.277-.21a.048.048 0 0 1 .028-.085h.343l.111-.334c.001-.045.061-.045.078 0z" transform="translate(-126.793 -120.639)"/><path id="Path_12258" data-name="Path 12258" class="cls-2" d="M157.66 19.734l.111.334h.343a.048.048 0 0 1 .028.085l-.277.21.105.334a.046.046 0 0 1-.072.051l-.277-.2-.277.2a.047.047 0 0 1-.072-.051l.105-.334-.277-.21a.048.048 0 0 1 .028-.085h.343l.111-.334a.039.039 0 0 1 .078 0z" transform="translate(-149.181 -19.7)"/><path id="Path_12259" data-name="Path 12259" class="cls-2" d="M157.66 50.4l.111.334h.343a.048.048 0 0 1 .028.085l-.277.21.105.334a.046.046 0 0 1-.072.051l-.277-.2-.277.2a.047.047 0 0 1-.072-.051l.105-.334-.277-.21a.048.048 0 0 1 .028-.085h.343l.111-.334c.006-.035.067-.035.078 0z" transform="translate(-149.181 -48.637)"/><path id="Path_12260" data-name="Path 12260" class="cls-2" d="M157.66 81.034l.111.334h.343a.048.048 0 0 1 .028.085l-.277.21.105.334a.046.046 0 0 1-.072.051l-.277-.2-.277.2a.047.047 0 0 1-.072-.051l.105-.334-.277-.21a.048.048 0 0 1 .028-.085h.343l.111-.334a.039.039 0 0 1 .078 0z" transform="translate(-149.181 -77.527)"/><path id="Path_12261" data-name="Path 12261" class="cls-2" d="M157.66 111.7l.111.334h.343a.048.048 0 0 1 .028.085l-.277.21.105.334a.046.046 0 0 1-.072.051l-.277-.2-.277.2a.047.047 0 0 1-.072-.051l.105-.334-.277-.21a.048.048 0 0 1 .028-.085h.343l.111-.334c.006-.035.067-.035.078 0z" transform="translate(-149.181 -106.465)"/><path id="Path_12262" data-name="Path 12262" class="cls-2" d="M157.66 142.334l.111.334h.343a.048.048 0 0 1 .028.085l-.277.21.105.334a.046.046 0 0 1-.072.051l-.277-.2-.277.2a.047.047 0 0 1-.072-.051l.105-.334-.277-.21a.048.048 0 0 1 .028-.085h.343l.111-.334a.039.039 0 0 1 .078 0z" transform="translate(-149.181 -135.355)"/><path id="Path_12263" data-name="Path 12263" class="cls-2" d="M181.46 34.734l.111.334h.343a.048.048 0 0 1 .028.085l-.277.21.105.334a.046.046 0 0 1-.072.051l-.277-.2-.277.2a.047.047 0 0 1-.072-.051l.105-.334-.277-.21a.048.048 0 0 1 .028-.085h.343l.111-.334a.039.039 0 0 1 .078 0z" transform="translate(-171.663 -33.85)"/><path id="Path_12264" data-name="Path 12264" class="cls-2" d="M181.46 65.4l.111.334h.343a.048.048 0 0 1 .028.085l-.277.21.105.334a.046.046 0 0 1-.072.051l-.277-.2-.277.2a.047.047 0 0 1-.072-.051l.105-.334-.277-.21a.048.048 0 0 1 .028-.085h.343l.111-.334c.006-.035.067-.035.078 0z" transform="translate(-171.663 -62.788)"/><path id="Path_12265" data-name="Path 12265" class="cls-2" d="M181.46 96.034l.111.334h.343a.048.048 0 0 1 .028.085l-.277.21.105.334a.046.046 0 0 1-.072.051l-.277-.2-.277.2a.047.047 0 0 1-.072-.051l.105-.334-.277-.21a.048.048 0 0 1 .028-.085h.343l.111-.334a.039.039 0 0 1 .078 0z" transform="translate(-171.663 -91.678)"/><path id="Path_12266" data-name="Path 12266" class="cls-2" d="M181.46 126.734l.111.334h.343a.048.048 0 0 1 .028.085l-.277.21.105.334a.046.046 0 0 1-.072.051l-.277-.2-.277.2a.047.047 0 0 1-.072-.051l.105-.334-.277-.21a.048.048 0 0 1 .028-.085h.343l.111-.334a.039.039 0 0 1 .078 0z" transform="translate(-171.663 -120.639)"/><path id="Path_12267" data-name="Path 12267" class="cls-2" d="M205.26 19.734l.111.334h.343a.048.048 0 0 1 .028.085l-.277.21.105.334a.046.046 0 0 1-.072.051l-.277-.2-.277.2a.047.047 0 0 1-.072-.051l.105-.334-.277-.21a.048.048 0 0 1 .028-.085h.343l.111-.334a.039.039 0 0 1 .078 0z" transform="translate(-194.145 -19.7)"/><path id="Path_12268" data-name="Path 12268" class="cls-2" d="M205.26 50.4l.111.334h.343a.048.048 0 0 1 .028.085l-.277.21.105.334a.046.046 0 0 1-.072.051l-.277-.2-.277.2a.047.047 0 0 1-.072-.051l.105-.334-.277-.21a.048.048 0 0 1 .028-.085h.343l.111-.334c.006-.035.067-.035.078 0z" transform="translate(-194.145 -48.637)"/><path id="Path_12269" data-name="Path 12269" class="cls-2" d="M205.26 81.034l.111.334h.343a.048.048 0 0 1 .028.085l-.277.21.105.334a.046.046 0 0 1-.072.051l-.277-.2-.277.2a.047.047 0 0 1-.072-.051l.105-.334-.277-.21a.048.048 0 0 1 .028-.085h.343l.111-.334a.039.039 0 0 1 .078 0z" transform="translate(-194.145 -77.527)"/><path id="Path_12270" data-name="Path 12270" class="cls-2" d="M205.26 111.7l.111.334h.343a.048.048 0 0 1 .028.085l-.277.21.105.334a.046.046 0 0 1-.072.051l-.277-.2-.277.2a.047.047 0 0 1-.072-.051l.105-.334-.277-.21a.048.048 0 0 1 .028-.085h.343l.111-.334c.006-.035.067-.035.078 0z" transform="translate(-194.145 -106.465)"/><path id="Path_12271" data-name="Path 12271" class="cls-2" d="M205.26 142.334l.111.334h.343a.048.048 0 0 1 .028.085l-.277.21.105.334a.046.046 0 0 1-.072.051l-.277-.2-.277.2a.047.047 0 0 1-.072-.051l.105-.334-.277-.21a.048.048 0 0 1 .028-.085h.343l.111-.334a.039.039 0 0 1 .078 0z" transform="translate(-194.145 -135.355)"/></g></g></g></svg>