<svg xmlns="http://www.w3.org/2000/svg" viewBox="-13498 -12857 40 26.36"><defs><style>.cls-1{fill:#41479b}.cls-2{fill:#f5f5f5}.cls-3{fill:#ff4b55}</style></defs><g id="Group_3070" data-name="Group 3070" transform="translate(6135 10951)"><g id="Group_3066" data-name="Group 3066" transform="translate(-19633 -23808)"><path id="Path_12382" data-name="Path 12382" class="cls-1" d="M27.519 18.355H.481A.482.482 0 0 1 0 17.874V.482A.486.486 0 0 1 .481 0h27.032a.482.482 0 0 1 .481.482v17.392a.474.474 0 0 1-.475.481z"/><path id="Path_12383" data-name="Path 12383" class="cls-2" d="M28 .482A.482.482 0 0 0 27.519 0h-2.16l-8.947 5.861V0h-4.829v5.861L2.641 0H.481A.486.486 0 0 0 0 .482v1.247l7.673 5.03H0v4.832h7.673L0 16.626v1.248a.482.482 0 0 0 .481.482h2.16l8.941-5.861v5.861h4.829v-5.862l8.941 5.861h2.16a.482.482 0 0 0 .481-.482v-1.247L20.322 11.6H28V6.764h-7.673L28 1.735z"/><g id="Group_3065" data-name="Group 3065"><path id="Path_12384" data-name="Path 12384" class="cls-3" d="M28 7.727H15.449V0h-2.9v7.727H0v2.9h12.551v7.727h2.9v-7.726H28z"/><path id="Path_12385" data-name="Path 12385" class="cls-3" d="M9.973 211.9L.2 218.248a.473.473 0 0 0 .47.416h.667L11.75 211.9z" transform="translate(-.189 -200.304)"/><path id="Path_12386" data-name="Path 12386" class="cls-3" d="M315.772 211.9H314l10.4 6.753a.479.479 0 0 0 .432-.471v-.4z" transform="translate(-296.828 -200.304)"/><path id="Path_12387" data-name="Path 12387" class="cls-3" d="M0 1.869l8.848 5.746h1.772L.279.9A.478.478 0 0 0 0 1.332z" transform="translate(0 -.851)"/><path id="Path_12388" data-name="Path 12388" class="cls-3" d="M301.877 6.764L311.672.4a.475.475 0 0 0-.465-.4h-.689L300.1 6.764z" transform="translate(-283.688)"/></g></g><g id="Group_3073" data-name="Group 3073" transform="translate(-19621 -23800)"><path id="Path_12435" data-name="Path 12435" class="cls-1" d="M27.524 18.361H.481A.482.482 0 0 1 0 17.879V.482A.486.486 0 0 1 .481 0h27.038A.482.482 0 0 1 28 .482v17.4a.474.474 0 0 1-.476.479z"/><path id="Path_12436" data-name="Path 12436" class="cls-2" d="M13.521 0h-.837L8.21 2.934V0H5.8v2.934L1.324 0H.481A.486.486 0 0 0 0 .482v.383l3.84 2.518H0V5.8h3.84L0 8.315V8.7a.482.482 0 0 0 .481.482h.837l4.475-2.936V9.18H8.2V6.246l4.479 2.934h.837A.482.482 0 0 0 14 8.7v-.385L10.157 5.8H14V3.383h-3.84L14 .865V.482A.486.486 0 0 0 13.521 0z"/><g id="Group_3071" data-name="Group 3071"><path id="Path_12437" data-name="Path 12437" class="cls-3" d="M14 3.865H7.723V0H6.279v3.865H0v1.451h6.279V9.18h1.444V5.316H14z"/><path id="Path_12438" data-name="Path 12438" class="cls-3" d="M5.311 4.8L.23 1.5a.474.474 0 0 0-.23.4v.027L4.425 4.8z" transform="translate(0 -1.418)"/><path id="Path_12439" data-name="Path 12439" class="cls-3" d="M150.986 3.383l4.835-3.142a.469.469 0 0 0-.41-.241h-.1L150.1 3.383h.886z" transform="translate(-141.89)"/><path id="Path_12440" data-name="Path 12440" class="cls-3" d="M6.124 105.9L1.3 109.037a.472.472 0 0 0 .416.246h.093l5.207-3.383z" transform="translate(-1.229 -100.103)"/><path id="Path_12441" data-name="Path 12441" class="cls-3" d="M162.41 108.84l-4.524-2.94H157l5.136 3.334a.472.472 0 0 0 .274-.394z" transform="translate(-148.412 -100.103)"/></g><g id="Group_3072" data-name="Group 3072" transform="translate(4.866 3.216)"><path id="Path_12442" data-name="Path 12442" class="cls-2" d="M91.253 214.553l.366 1.2 1.171-.465a.111.111 0 0 1 .131.164l-.711 1.035 1.094.624a.109.109 0 0 1-.044.2l-1.253.088.191 1.243a.107.107 0 0 1-.186.088l-.848-.925-.848.925a.108.108 0 0 1-.186-.088l.191-1.243-1.253-.088a.108.108 0 0 1-.044-.2l1.094-.624-.711-1.035a.11.11 0 0 1 .131-.164l1.171.465.366-1.2c-.003-.104.145-.104.178 0z" transform="translate(-88.97 -205.95)"/><path id="Path_12443" data-name="Path 12443" class="cls-2" d="M373.833 58.791l.181.586.569-.23a.053.053 0 0 1 .066.077l-.35.5.536.307a.053.053 0 0 1-.022.1l-.613.044.093.608a.054.054 0 0 1-.093.044l-.416-.454-.416.454a.055.055 0 0 1-.093-.044l.093-.608-.613-.044a.053.053 0 0 1-.022-.1l.536-.307-.35-.5a.053.053 0 0 1 .066-.077l.569.23.181-.586a.05.05 0 0 1 .098 0z" transform="translate(-357.186 -58.75)"/><path id="Path_12444" data-name="Path 12444" class="cls-2" d="M301.233 141.284l.181.586.569-.23a.053.053 0 0 1 .066.077l-.35.5.536.307a.053.053 0 0 1-.022.1l-.613.044.093.608a.054.054 0 0 1-.093.044l-.416-.454-.416.454a.055.055 0 0 1-.093-.044l.093-.608-.613-.044a.053.053 0 0 1-.022-.1l.536-.307-.35-.493a.053.053 0 0 1 .066-.077l.569.23.181-.586a.05.05 0 0 1 .098-.007z" transform="translate(-288.558 -136.732)"/><path id="Path_12445" data-name="Path 12445" class="cls-2" d="M442.433 105.962l.181.586.569-.23a.053.053 0 0 1 .066.077l-.35.5.536.307a.053.053 0 0 1-.022.1l-.613.044.093.608a.054.054 0 0 1-.093.044l-.416-.454-.416.454a.055.055 0 0 1-.093-.044l.093-.608-.613-.044a.053.053 0 0 1-.022-.1l.536-.307-.35-.5a.053.053 0 0 1 .066-.077l.569.23.18-.586a.051.051 0 0 1 .099 0z" transform="translate(-422.034 -103.343)"/><path id="Path_12446" data-name="Path 12446" class="cls-2" d="M373.833 247.191l.181.586.569-.23a.053.053 0 0 1 .066.077l-.35.5.536.307a.053.053 0 0 1-.022.1l-.613.044.093.608a.054.054 0 0 1-.093.044l-.416-.454-.416.454a.055.055 0 0 1-.093-.044l.093-.608-.613-.044a.053.053 0 0 1-.022-.1l.536-.307-.35-.5a.053.053 0 0 1 .066-.077l.569.23.181-.586a.05.05 0 0 1 .098 0z" transform="translate(-357.186 -236.836)"/><path id="Path_12447" data-name="Path 12447" class="cls-2" d="M407.137 160.491l-.142.427-.454.005a.062.062 0 0 0-.038.109l.361.268-.137.432a.059.059 0 0 0 .093.066l.366-.263.366.263a.06.06 0 0 0 .093-.066l-.137-.432.361-.268a.061.061 0 0 0-.038-.109l-.454-.005-.142-.427c-.005-.055-.082-.055-.098 0z" transform="translate(-389.112 -154.883)"/></g></g></g></svg>