<svg xmlns="http://www.w3.org/2000/svg" viewBox="-13498.543 -12956 40.543 26.36"><defs><style>.cls-1{fill:#f5f5f5}.cls-2{fill:#ff4b55}.cls-3{fill:#41479b}</style></defs><g id="Group_3046" data-name="Group 3046" transform="translate(45 38.286)"><g id="Group_3042" data-name="Group 3042" transform="translate(-13543.543 -12994.286)"><path id="Path_12272" data-name="Path 12272" class="cls-1" d="M27.866 19H.487A.494.494 0 0 1 0 18.5V.5A.5.5 0 0 1 .487 0H27.86a.494.494 0 0 1 .487.5v18a.486.486 0 0 1-.481.5z"/><g id="Group_3040" data-name="Group 3040"><path id="Path_12273" data-name="Path 12273" class="cls-2" d="M28.353 1.462H0V.5A.5.5 0 0 1 .487 0H27.86a.494.494 0 0 1 .487.5l.006.963z"/><path id="Rectangle_2197" data-name="Rectangle 2197" class="cls-2" transform="translate(0 5.846)" d="M0 0h28.353v1.462H0z"/><path id="Rectangle_2198" data-name="Rectangle 2198" class="cls-2" transform="translate(0 2.923)" d="M0 0h28.353v1.462H0z"/><path id="Path_12274" data-name="Path 12274" class="cls-2" d="M28.353 156.262H.487a.494.494 0 0 1-.487-.5v-.962h28.353z" transform="translate(0 -146.031)"/><path id="Rectangle_2199" data-name="Rectangle 2199" class="cls-2" transform="translate(0 14.615)" d="M0 0h28.353v1.462H0z"/><path id="Path_12275" data-name="Path 12275" class="cls-2" d="M27.866 311.062H.487a.494.494 0 0 1-.487-.5v-.962h28.353v.963a.494.494 0 0 1-.487.499z" transform="translate(0 -292.062)"/><path id="Rectangle_2200" data-name="Rectangle 2200" class="cls-2" transform="translate(0 11.692)" d="M0 0h28.353v1.462H0z"/></g><path id="Path_12276" data-name="Path 12276" class="cls-3" d="M12.709 0H.487A.5.5 0 0 0 0 .5v9.232a.494.494 0 0 0 .487.5h12.222a.494.494 0 0 0 .487-.5V.5a.494.494 0 0 0-.487-.5z"/><g id="Group_3041" data-name="Group 3041" transform="translate(.797 1.116)"><path id="Path_12277" data-name="Path 12277" class="cls-1" d="M14.96 19.734l.111.334h.343a.048.048 0 0 1 .028.085l-.277.21.105.334a.046.046 0 0 1-.072.051l-.277-.2-.277.2a.047.047 0 0 1-.072-.051l.105-.334-.277-.21a.048.048 0 0 1 .028-.085h.343l.111-.334c.006-.045.061-.045.078 0z" transform="translate(-14.383 -19.7)"/><path id="Path_12278" data-name="Path 12278" class="cls-1" d="M14.96 50.4l.111.334h.343a.048.048 0 0 1 .028.085l-.277.21.105.334a.046.046 0 0 1-.072.051l-.277-.2-.277.2a.047.047 0 0 1-.072-.051l.105-.334-.277-.21a.048.048 0 0 1 .028-.085h.343l.111-.334c.006-.035.061-.035.078 0z" transform="translate(-14.383 -48.637)"/><path id="Path_12279" data-name="Path 12279" class="cls-1" d="M14.96 81.034l.111.334h.343a.048.048 0 0 1 .028.085l-.277.21.105.337a.046.046 0 0 1-.072.051l-.277-.2-.277.2a.047.047 0 0 1-.072-.051l.105-.334-.277-.21a.048.048 0 0 1 .028-.085h.343l.111-.334c.006-.048.061-.048.078-.003z" transform="translate(-14.383 -77.527)"/><path id="Path_12280" data-name="Path 12280" class="cls-1" d="M14.96 111.7l.111.334h.343a.048.048 0 0 1 .028.085l-.277.21.105.334a.046.046 0 0 1-.072.051l-.277-.2-.277.2a.047.047 0 0 1-.072-.051l.105-.334-.277-.21a.048.048 0 0 1 .028-.085h.343l.111-.334c.006-.035.061-.035.078 0z" transform="translate(-14.383 -106.465)"/><path id="Path_12281" data-name="Path 12281" class="cls-1" d="M14.96 142.334l.111.334h.343a.048.048 0 0 1 .028.085l-.277.21.105.334a.046.046 0 0 1-.072.051l-.277-.2-.277.2a.047.047 0 0 1-.072-.051l.105-.334-.277-.21a.048.048 0 0 1 .028-.085h.343l.111-.334c.006-.045.061-.045.078 0z" transform="translate(-14.383 -135.355)"/><path id="Path_12282" data-name="Path 12282" class="cls-1" d="M38.76 34.734l.111.334h.343a.048.048 0 0 1 .028.085l-.277.21.105.334a.046.046 0 0 1-.072.051l-.277-.2-.277.2a.047.047 0 0 1-.072-.051l.105-.334-.277-.21a.048.048 0 0 1 .028-.085h.343l.111-.334c.006-.045.061-.045.078 0z" transform="translate(-36.865 -33.85)"/><path id="Path_12283" data-name="Path 12283" class="cls-1" d="M38.76 65.4l.111.334h.343a.048.048 0 0 1 .028.085l-.277.21.105.334a.046.046 0 0 1-.072.051l-.277-.2-.277.2a.047.047 0 0 1-.072-.051l.105-.334-.277-.21a.048.048 0 0 1 .028-.085h.343l.111-.334c.006-.035.061-.035.078 0z" transform="translate(-36.865 -62.788)"/><path id="Path_12284" data-name="Path 12284" class="cls-1" d="M38.76 96.034l.111.334h.343a.048.048 0 0 1 .028.085l-.277.21.105.337a.046.046 0 0 1-.072.051l-.277-.2-.277.2a.047.047 0 0 1-.072-.051l.105-.334-.277-.21a.048.048 0 0 1 .028-.085h.343l.111-.334c.006-.048.061-.048.078-.003z" transform="translate(-36.865 -91.678)"/><path id="Path_12285" data-name="Path 12285" class="cls-1" d="M38.76 126.734l.111.334h.343a.048.048 0 0 1 .028.085l-.277.21.105.334a.046.046 0 0 1-.072.051l-.277-.2-.277.2a.047.047 0 0 1-.072-.051l.105-.334-.277-.21a.048.048 0 0 1 .028-.085h.343l.111-.334c.006-.045.061-.045.078 0z" transform="translate(-36.865 -120.639)"/><path id="Path_12286" data-name="Path 12286" class="cls-1" d="M62.56 19.734l.111.334h.343a.048.048 0 0 1 .028.085l-.277.21.105.334a.046.046 0 0 1-.072.051l-.277-.2-.277.2a.047.047 0 0 1-.072-.051l.105-.334-.277-.21a.048.048 0 0 1 .028-.085h.343l.111-.334c.001-.045.061-.045.078 0z" transform="translate(-59.347 -19.7)"/><path id="Path_12287" data-name="Path 12287" class="cls-1" d="M62.466 50.4l.111.334h.343a.048.048 0 0 1 .028.085l-.282.21.105.334a.046.046 0 0 1-.072.051l-.277-.2-.277.2a.047.047 0 0 1-.072-.051l.105-.334-.277-.21a.048.048 0 0 1 .028-.085h.343l.111-.334c.005-.035.066-.035.083 0z" transform="translate(-59.253 -48.637)"/><path id="Path_12288" data-name="Path 12288" class="cls-1" d="M62.56 81.034l.111.334h.343a.048.048 0 0 1 .028.085l-.277.21.105.337a.046.046 0 0 1-.072.051l-.277-.2-.277.2a.047.047 0 0 1-.072-.051l.105-.334-.277-.213a.048.048 0 0 1 .028-.085h.343l.111-.334c.001-.045.061-.045.078 0z" transform="translate(-59.347 -77.527)"/><path id="Path_12289" data-name="Path 12289" class="cls-1" d="M62.56 111.7l.111.334h.343a.048.048 0 0 1 .028.085l-.277.21.105.334a.046.046 0 0 1-.072.051l-.277-.2-.277.2a.047.047 0 0 1-.072-.051l.105-.334-.277-.21a.048.048 0 0 1 .028-.085h.343l.111-.334c.001-.035.061-.035.078 0z" transform="translate(-59.347 -106.465)"/><path id="Path_12290" data-name="Path 12290" class="cls-1" d="M62.56 142.334l.111.334h.343a.048.048 0 0 1 .028.085l-.277.21.105.334a.046.046 0 0 1-.072.051l-.277-.2-.277.2a.047.047 0 0 1-.072-.051l.105-.334-.277-.21a.048.048 0 0 1 .028-.085h.343l.111-.334c.001-.045.061-.045.078 0z" transform="translate(-59.347 -135.355)"/><path id="Path_12291" data-name="Path 12291" class="cls-1" d="M86.36 34.734l.111.334h.343a.048.048 0 0 1 .028.085l-.277.21.105.334a.046.046 0 0 1-.072.051l-.277-.2-.277.2a.047.047 0 0 1-.072-.051l.105-.334-.277-.21a.048.048 0 0 1 .028-.085h.343l.111-.334c.001-.045.061-.045.078 0z" transform="translate(-81.829 -33.85)"/><path id="Path_12292" data-name="Path 12292" class="cls-1" d="M86.36 65.4l.111.334h.343a.048.048 0 0 1 .028.085l-.277.21.105.334a.046.046 0 0 1-.072.051l-.277-.2-.277.2a.047.047 0 0 1-.072-.051l.105-.334-.277-.21a.048.048 0 0 1 .028-.085h.343l.111-.334c.001-.035.061-.035.078 0z" transform="translate(-81.829 -62.788)"/><path id="Path_12293" data-name="Path 12293" class="cls-1" d="M86.36 96.034l.111.334h.343a.048.048 0 0 1 .028.085l-.277.21.105.337a.046.046 0 0 1-.072.051l-.277-.2-.277.2a.047.047 0 0 1-.072-.051l.105-.334-.277-.21a.048.048 0 0 1 .028-.085h.343l.111-.334c.001-.048.061-.048.078-.003z" transform="translate(-81.829 -91.678)"/><path id="Path_12294" data-name="Path 12294" class="cls-1" d="M86.36 126.734l.111.334h.343a.048.048 0 0 1 .028.085l-.277.21.105.334a.046.046 0 0 1-.072.051l-.277-.2-.277.2a.047.047 0 0 1-.072-.051l.105-.334-.277-.21a.048.048 0 0 1 .028-.085h.343l.111-.334c.001-.045.061-.045.078 0z" transform="translate(-81.829 -120.639)"/><path id="Path_12295" data-name="Path 12295" class="cls-1" d="M110.16 19.734l.111.334h.343a.048.048 0 0 1 .028.085l-.277.21.105.334a.046.046 0 0 1-.072.051l-.277-.2-.277.2a.047.047 0 0 1-.072-.051l.105-.334-.277-.21a.048.048 0 0 1 .028-.085h.343l.111-.334c.001-.045.061-.045.078 0z" transform="translate(-104.311 -19.7)"/><path id="Path_12296" data-name="Path 12296" class="cls-1" d="M110.16 50.4l.111.334h.343a.048.048 0 0 1 .028.085l-.277.21.105.334a.046.046 0 0 1-.072.051l-.277-.2-.277.2a.047.047 0 0 1-.072-.051l.105-.334-.277-.21a.048.048 0 0 1 .028-.085h.343l.111-.334c.001-.035.061-.035.078 0z" transform="translate(-104.311 -48.637)"/><path id="Path_12297" data-name="Path 12297" class="cls-1" d="M110.16 81.034l.111.334h.343a.048.048 0 0 1 .028.085l-.277.21.105.334a.046.046 0 0 1-.072.051l-.277-.2-.277.2a.047.047 0 0 1-.072-.051l.105-.334-.277-.21a.048.048 0 0 1 .028-.085h.343l.111-.334c.001-.045.061-.045.078 0z" transform="translate(-104.311 -77.527)"/><path id="Path_12298" data-name="Path 12298" class="cls-1" d="M110.16 111.7l.111.334h.343a.048.048 0 0 1 .028.085l-.277.21.105.334a.046.046 0 0 1-.072.051l-.277-.2-.277.2a.047.047 0 0 1-.072-.051l.105-.334-.277-.21a.048.048 0 0 1 .028-.085h.343l.111-.334c.001-.035.061-.035.078 0z" transform="translate(-104.311 -106.465)"/><path id="Path_12299" data-name="Path 12299" class="cls-1" d="M110.16 142.334l.111.334h.343a.048.048 0 0 1 .028.085l-.277.21.105.334a.046.046 0 0 1-.072.051l-.277-.2-.277.2a.047.047 0 0 1-.072-.051l.105-.334-.277-.21a.048.048 0 0 1 .028-.085h.343l.111-.334c.001-.045.061-.045.078 0z" transform="translate(-104.311 -135.355)"/><path id="Path_12300" data-name="Path 12300" class="cls-1" d="M133.96 34.734l.111.334h.343a.048.048 0 0 1 .028.085l-.277.21.105.334a.046.046 0 0 1-.072.051l-.277-.2-.277.2a.047.047 0 0 1-.072-.051l.105-.334-.277-.21a.048.048 0 0 1 .028-.085h.343l.111-.334c.001-.045.061-.045.078 0z" transform="translate(-126.793 -33.85)"/><path id="Path_12301" data-name="Path 12301" class="cls-1" d="M133.96 65.4l.111.334h.343a.048.048 0 0 1 .028.085l-.277.21.105.334a.046.046 0 0 1-.072.051l-.277-.2-.277.2a.047.047 0 0 1-.072-.051l.105-.334-.277-.21a.048.048 0 0 1 .028-.085h.343l.111-.334c.001-.035.061-.035.078 0z" transform="translate(-126.793 -62.788)"/><path id="Path_12302" data-name="Path 12302" class="cls-1" d="M133.96 96.034l.111.334h.343a.048.048 0 0 1 .028.085l-.277.21.105.334a.046.046 0 0 1-.072.051l-.277-.2-.277.2a.047.047 0 0 1-.072-.051l.105-.334-.277-.21a.048.048 0 0 1 .028-.085h.343l.111-.334c.001-.045.061-.045.078 0z" transform="translate(-126.793 -91.678)"/><path id="Path_12303" data-name="Path 12303" class="cls-1" d="M133.96 126.734l.111.334h.343a.048.048 0 0 1 .028.085l-.277.21.105.334a.046.046 0 0 1-.072.051l-.277-.2-.277.2a.047.047 0 0 1-.072-.051l.105-.334-.277-.21a.048.048 0 0 1 .028-.085h.343l.111-.334c.001-.045.061-.045.078 0z" transform="translate(-126.793 -120.639)"/><path id="Path_12304" data-name="Path 12304" class="cls-1" d="M157.66 19.734l.111.334h.343a.048.048 0 0 1 .028.085l-.277.21.105.334a.046.046 0 0 1-.072.051l-.277-.2-.277.2a.047.047 0 0 1-.072-.051l.105-.334-.277-.21a.048.048 0 0 1 .028-.085h.343l.111-.334a.039.039 0 0 1 .078 0z" transform="translate(-149.181 -19.7)"/><path id="Path_12305" data-name="Path 12305" class="cls-1" d="M157.66 50.4l.111.334h.343a.048.048 0 0 1 .028.085l-.277.21.105.334a.046.046 0 0 1-.072.051l-.277-.2-.277.2a.047.047 0 0 1-.072-.051l.105-.334-.277-.21a.048.048 0 0 1 .028-.085h.343l.111-.334c.006-.035.067-.035.078 0z" transform="translate(-149.181 -48.637)"/><path id="Path_12306" data-name="Path 12306" class="cls-1" d="M157.66 81.034l.111.334h.343a.048.048 0 0 1 .028.085l-.277.21.105.334a.046.046 0 0 1-.072.051l-.277-.2-.277.2a.047.047 0 0 1-.072-.051l.105-.334-.277-.21a.048.048 0 0 1 .028-.085h.343l.111-.334a.039.039 0 0 1 .078 0z" transform="translate(-149.181 -77.527)"/><path id="Path_12307" data-name="Path 12307" class="cls-1" d="M157.66 111.7l.111.334h.343a.048.048 0 0 1 .028.085l-.277.21.105.334a.046.046 0 0 1-.072.051l-.277-.2-.277.2a.047.047 0 0 1-.072-.051l.105-.334-.277-.21a.048.048 0 0 1 .028-.085h.343l.111-.334c.006-.035.067-.035.078 0z" transform="translate(-149.181 -106.465)"/><path id="Path_12308" data-name="Path 12308" class="cls-1" d="M157.66 142.334l.111.334h.343a.048.048 0 0 1 .028.085l-.277.21.105.334a.046.046 0 0 1-.072.051l-.277-.2-.277.2a.047.047 0 0 1-.072-.051l.105-.334-.277-.21a.048.048 0 0 1 .028-.085h.343l.111-.334a.039.039 0 0 1 .078 0z" transform="translate(-149.181 -135.355)"/><path id="Path_12309" data-name="Path 12309" class="cls-1" d="M181.46 34.734l.111.334h.343a.048.048 0 0 1 .028.085l-.277.21.105.334a.046.046 0 0 1-.072.051l-.277-.2-.277.2a.047.047 0 0 1-.072-.051l.105-.334-.277-.21a.048.048 0 0 1 .028-.085h.343l.111-.334a.039.039 0 0 1 .078 0z" transform="translate(-171.663 -33.85)"/><path id="Path_12310" data-name="Path 12310" class="cls-1" d="M181.46 65.4l.111.334h.343a.048.048 0 0 1 .028.085l-.277.21.105.334a.046.046 0 0 1-.072.051l-.277-.2-.277.2a.047.047 0 0 1-.072-.051l.105-.334-.277-.21a.048.048 0 0 1 .028-.085h.343l.111-.334c.006-.035.067-.035.078 0z" transform="translate(-171.663 -62.788)"/><path id="Path_12311" data-name="Path 12311" class="cls-1" d="M181.46 96.034l.111.334h.343a.048.048 0 0 1 .028.085l-.277.21.105.334a.046.046 0 0 1-.072.051l-.277-.2-.277.2a.047.047 0 0 1-.072-.051l.105-.334-.277-.21a.048.048 0 0 1 .028-.085h.343l.111-.334a.039.039 0 0 1 .078 0z" transform="translate(-171.663 -91.678)"/><path id="Path_12312" data-name="Path 12312" class="cls-1" d="M181.46 126.734l.111.334h.343a.048.048 0 0 1 .028.085l-.277.21.105.334a.046.046 0 0 1-.072.051l-.277-.2-.277.2a.047.047 0 0 1-.072-.051l.105-.334-.277-.21a.048.048 0 0 1 .028-.085h.343l.111-.334a.039.039 0 0 1 .078 0z" transform="translate(-171.663 -120.639)"/><path id="Path_12313" data-name="Path 12313" class="cls-1" d="M205.26 19.734l.111.334h.343a.048.048 0 0 1 .028.085l-.277.21.105.334a.046.046 0 0 1-.072.051l-.277-.2-.277.2a.047.047 0 0 1-.072-.051l.105-.334-.277-.21a.048.048 0 0 1 .028-.085h.343l.111-.334a.039.039 0 0 1 .078 0z" transform="translate(-194.145 -19.7)"/><path id="Path_12314" data-name="Path 12314" class="cls-1" d="M205.26 50.4l.111.334h.343a.048.048 0 0 1 .028.085l-.277.21.105.334a.046.046 0 0 1-.072.051l-.277-.2-.277.2a.047.047 0 0 1-.072-.051l.105-.334-.277-.21a.048.048 0 0 1 .028-.085h.343l.111-.334c.006-.035.067-.035.078 0z" transform="translate(-194.145 -48.637)"/><path id="Path_12315" data-name="Path 12315" class="cls-1" d="M205.26 81.034l.111.334h.343a.048.048 0 0 1 .028.085l-.277.21.105.334a.046.046 0 0 1-.072.051l-.277-.2-.277.2a.047.047 0 0 1-.072-.051l.105-.334-.277-.21a.048.048 0 0 1 .028-.085h.343l.111-.334a.039.039 0 0 1 .078 0z" transform="translate(-194.145 -77.527)"/><path id="Path_12316" data-name="Path 12316" class="cls-1" d="M205.26 111.7l.111.334h.343a.048.048 0 0 1 .028.085l-.277.21.105.334a.046.046 0 0 1-.072.051l-.277-.2-.277.2a.047.047 0 0 1-.072-.051l.105-.334-.277-.21a.048.048 0 0 1 .028-.085h.343l.111-.334c.006-.035.067-.035.078 0z" transform="translate(-194.145 -106.465)"/><path id="Path_12317" data-name="Path 12317" class="cls-1" d="M205.26 142.334l.111.334h.343a.048.048 0 0 1 .028.085l-.277.21.105.334a.046.046 0 0 1-.072.051l-.277-.2-.277.2a.047.047 0 0 1-.072-.051l.105-.334-.277-.21a.048.048 0 0 1 .028-.085h.343l.111-.334a.039.039 0 0 1 .078 0z" transform="translate(-194.145 -135.355)"/></g></g><g id="Group_3049" data-name="Group 3049" transform="translate(-13531 -12986.286)"><g id="Group_3047" data-name="Group 3047"><path id="Path_12319" data-name="Path 12319" class="cls-1" d="M27.524 18.361H.481A.482.482 0 0 1 0 17.879V.482A.486.486 0 0 1 .481 0h27.038A.482.482 0 0 1 28 .482v17.4a.474.474 0 0 1-.476.479z"/><path id="Rectangle_2201" data-name="Rectangle 2201" class="cls-1" transform="translate(6.279)" d="M0 0h15.452v18.361H0z"/></g><g id="Group_3048" data-name="Group 3048"><path id="Path_12320" data-name="Path 12320" class="cls-2" d="M.481 0A.486.486 0 0 0 0 .482v17.4a.482.482 0 0 0 .481.482h5.793V0z"/><path id="Path_12321" data-name="Path 12321" class="cls-2" d="M403 0h-5.8v18.361h5.792a.482.482 0 0 0 .481-.482V.482A.478.478 0 0 0 403 0z" transform="translate(-375.474)"/><path id="Path_12322" data-name="Path 12322" class="cls-2" d="M158.919 71.8l2.866-1.637-.656-.328a.482.482 0 0 1-.263-.5l.213-1.6-1.214.356a.485.485 0 0 1-.607-.361l-.115-.526-1.138 1.336a.238.238 0 0 1-.416-.2l.487-2.83-.744.2a.476.476 0 0 1-.552-.241L155.987 64l-.782 1.473a.489.489 0 0 1-.552.241l-.744-.2.487 2.83a.238.238 0 0 1-.416.2l-1.138-1.344-.115.526a.485.485 0 0 1-.607.361l-1.214-.356.213 1.6a.486.486 0 0 1-.263.5l-.656.328 2.866 1.637a.7.7 0 0 1 .306.849l-.246.657 2.456-.208a.227.227 0 0 1 .246.235l-.077 2.628h.481l-.077-2.628a.227.227 0 0 1 .246-.235l2.456.208-.246-.657a.691.691 0 0 1 .308-.845z" transform="translate(-141.984 -60.496)"/></g></g></g></svg>