<svg width="25" height="26" viewBox="0 0 25 26" fill="none" xmlns="http://www.w3.org/2000/svg"><g clip-path="url(#clip0_34833_110049)"><path d="M4.6875 0.34375C2.09867 0.34375 0 2.44242 0 5.03125V5.16744L23.3707 1.47865C22.5498 0.771365 21.4811 0.34375 20.3125 0.34375H4.6875Z" fill="#E12E3A"/><path d="M23.8531 1.95918L19.5659 25.3437H20.3125C22.9013 25.3437 25 23.2451 25 20.6562V5.03125C25 3.85607 24.5675 2.78189 23.8531 1.95918Z" fill="#E12E3A"/><path fill-rule="evenodd" clip-rule="evenodd" d="M19.5659 25.3437L4.6875 25.3441C2.09867 25.3441 0 23.2454 0 20.6566V5.16744L23.3707 1.47865C23.5428 1.62698 23.7041 1.78762 23.8531 1.95918L19.5659 25.3437Z" fill="#FF444F"/><path d="M7.76474 15.2393C7.84494 15.2466 7.93609 15.2538 8.03818 15.2611C8.14755 15.2611 8.27516 15.2611 8.42099 15.2611C9.27413 15.2611 9.90487 15.046 10.3132 14.6158C10.7288 14.1856 10.9367 13.5913 10.9367 12.833C10.9367 12.0382 10.7398 11.4366 10.346 11.0283C9.95227 10.6199 9.32882 10.4158 8.47568 10.4158C8.35901 10.4158 8.2387 10.4194 8.11474 10.4267C7.99078 10.4267 7.87411 10.434 7.76474 10.4486V15.2393ZM12.6976 12.833C12.6976 13.4892 12.5955 14.0616 12.3914 14.5502C12.1872 15.0387 11.8955 15.4434 11.5164 15.7643C11.1445 16.0851 10.6887 16.3257 10.1491 16.4862C9.60955 16.6466 9.00434 16.7268 8.33349 16.7268C8.02724 16.7268 7.66994 16.7122 7.2616 16.683C6.85326 16.6612 6.45222 16.6101 6.05846 16.5299V9.14699C6.45222 9.07408 6.86056 9.02668 7.28348 9.0048C7.71369 8.97564 8.08193 8.96105 8.38818 8.96105C9.03715 8.96105 9.62414 9.03397 10.1491 9.17981C10.6814 9.32564 11.1372 9.55533 11.5164 9.86888C11.8955 10.1824 12.1872 10.5835 12.3914 11.072C12.5955 11.5606 12.6976 12.1476 12.6976 12.833Z" fill="white"/><path d="M18.9416 9.04855V10.5033H16.6556V16.6283H14.9493V10.5033H12.6634V9.04855H18.9416Z" fill="white"/></g><defs><clipPath id="clip0_34833_110049"><rect width="25" height="25" fill="white" transform="translate(0 0.34375)"/></clipPath></defs></svg>