<svg xmlns="http://www.w3.org/2000/svg" width="124" height="120"><g fill="none" fill-rule="evenodd"><path fill="#E2F1F1" fill-rule="nonzero" d="M94.82 120H9.193c-5.071-.014-9.179-4.109-9.193-9.164V9.164C.014 4.109 4.122.014 9.193 0h72.749L104 22v88.836c-.021 5.048-4.117 9.136-9.18 9.164z"/><rect width="77" height="7" x="13" y="38" fill="#FFF" fill-rule="nonzero" rx="2.96"/><rect width="77" height="7" x="13" y="53" fill="#FFF" fill-rule="nonzero" rx="2.96"/><rect width="42" height="7" x="13" y="69" fill="#FFF" fill-rule="nonzero" rx="2.96"/><g transform="translate(81 72)"><circle cx="21.55" cy="21.55" r="21.45" fill="#FF6444"/><path stroke="#FFF" stroke-linecap="round" stroke-linejoin="round" stroke-width="2" d="M21.55 6.62l-.01 14.93h13.95"/></g><path fill="#BCCDCF" fill-rule="nonzero" d="M104 22H91.187c-5.063-.014-9.166-4.114-9.187-9.18V0l22 22z"/></g></svg>