<svg xmlns="http://www.w3.org/2000/svg" width="124" height="120"><g fill="none" fill-rule="evenodd"><path fill="#E2F1F1" fill-rule="nonzero" d="M94.82 120H9.193c-5.071-.014-9.179-4.109-9.193-9.164V9.164C.014 4.109 4.122.014 9.193 0h72.749L104 22v88.836c-.021 5.048-4.117 9.136-9.18 9.164z"/><rect width="77" height="7" x="13" y="38" fill="#FFF" fill-rule="nonzero" rx="2.96"/><rect width="77" height="7" x="13" y="53" fill="#FFF" fill-rule="nonzero" rx="2.96"/><rect width="42" height="7" x="13" y="69" fill="#FFF" fill-rule="nonzero" rx="2.96"/><g transform="translate(81 72)"><circle cx="21.55" cy="21.55" r="21.45" fill="#FF6444"/><path fill="#FFF" d="M33.43 21.218L23.402 10.603A1.852 1.852 0 0022 10c-.565 0-1.027.201-1.386.603L10.585 21.218c-.39.413-.585.907-.585 1.483 0 .566.195 1.055.585 1.468l1.156 1.222c.37.413.832.62 1.386.62.555 0 1.017-.207 1.386-.62l4.53-4.777v11.479c0 .564.192 1.024.577 1.377.385.354.85.53 1.394.53h1.972a1.99 1.99 0 001.394-.53c.385-.353.578-.813.578-1.377V20.614l4.529 4.777c.37.413.831.62 1.386.62.544 0 1.012-.207 1.402-.62l1.155-1.222c.38-.424.57-.913.57-1.468 0-.565-.19-1.06-.57-1.483z"/></g><path fill="#BCCDCF" fill-rule="nonzero" d="M104 22H91.187c-5.063-.014-9.166-4.114-9.187-9.18V0l22 22z"/></g></svg>