<svg width="134" height="106" fill="none" xmlns="http://www.w3.org/2000/svg"><g clip-path="url(#clip0)"><path fill="#F2F3F4" d="M16 9h102v89H16z"/><path d="M50 43a6 6 0 016-6h20a6 6 0 016 6v20a6 6 0 01-6 6H56a6 6 0 01-6-6V43z" fill="#0E0E0E"/><g clip-path="url(#clip1)"><path d="M70.866 47.5H67.61l2.563 5.5-4.503 5.5h3.258l4.5-5.5-2.562-5.5zm4.176 0h3.295l-3.907 4.726-1.18-2.535 1.792-2.191zm-1.942 11l-1.019-2.189 2.076-2.535 2.201 4.724h-3.257z" fill="#fff"/><path d="M56.376 47.5l4.21 5.5-6.75 5.5h6.823a4.279 4.279 0 004.167-3.316l.565-2.447a4.274 4.274 0 00-4.167-5.237h-4.848z" fill="var(--brand-red-coral)"/><path d="M60.587 53l-3 5.5h-3.75l6.75-5.5z" fill="#CC2F3E"/></g><path d="M124.5 1H9.5a8 8 0 00-8 8v88a8 8 0 008 8h115a8 8 0 008-8V9a8 8 0 00-8-8z" stroke="#333" stroke-width="2"/><path d="M9 55a1.5 1.5 0 100-3 1.5 1.5 0 000 3zm115.5 0a2 2 0 100-4 2 2 0 000 4z" stroke="#333"/><path d="M113.5 9h-94a4 4 0 00-4 4v81a4 4 0 004 4h94a4 4 0 004-4V13a4 4 0 00-4-4z" stroke="#333" stroke-width="2"/></g><defs><clipPath id="clip0"><path fill="#fff" transform="translate(.5)" d="M0 0h133v106H0z"/></clipPath><clipPath id="clip1"><path fill="#fff" transform="translate(53.67 47)" d="M0 0h24.667v12H0z"/></clipPath><linearGradient id="paint0_linear" x1="61.206" y1="45.605" x2="59.015" y2="59.425" gradientUnits="userSpaceOnUse"><stop stop-color="#F26447"/><stop offset="1" stop-color="#EF4852"/></linearGradient></defs></svg>