<svg width="64" height="64" fill="none" xmlns="http://www.w3.org/2000/svg"><path d="M0 4a4 4 0 0 1 4-4h56a4 4 0 0 1 4 4v56a4 4 0 0 1-4 4H4a4 4 0 0 1-4-4V4z" fill="#85ACB0"/><path d="M0 4a4 4 0 0 1 4-4h56a4 4 0 0 1 4 4v16H0V4z" fill="#1A1A1A"/><g clip-path="url(#a)" fill="#fff"><path d="M36.73 4.485h-3.167l2.494 5.343-4.381 5.343h3.17l4.379-5.343-2.494-5.343zm4.064 0H44l-3.801 4.592-1.15-2.463 1.745-2.129zm-1.889 10.686-.991-2.126 2.019-2.463 2.142 4.59h-3.17zM22.632 4.485l4.098 5.343-6.568 5.343H26.8a4.168 4.168 0 0 0 4.054-3.221l.55-2.377a4.147 4.147 0 0 0-2.247-4.676 4.166 4.166 0 0 0-1.807-.412h-4.718z"/></g><path d="M49.813 40.716 42.05 27.281A2.557 2.557 0 0 0 39.834 26H24.32a2.567 2.567 0 0 0-2.222 1.281L14.34 40.716a2.588 2.588 0 0 0 0 2.563l7.757 13.44A2.579 2.579 0 0 0 24.32 58h15.514a2.568 2.568 0 0 0 2.217-1.281l7.762-13.44a2.59 2.59 0 0 0 0-2.563zm-9.4 2.712h6.019l-5.928 10.255-5.849-10.255h3.291l1.43-2.86h-4.822l5.934-10.278 5.944 10.277h-4.589l-1.43 2.86zm-8.262-4.418-2.047-3.578-1.86 2.503 1.504 2.632H17.722l6.061-10.479 3.227 5.657 1.877-2.504-2.515-4.38H38.01L32.151 39.01zm-3.556 11.877L27 47.972l-3.35 5.737-5.928-10.282h11.883l-1.297 2.339 1.595 2.913 2.248-3.918 5.902 10.378h-11.91l2.452-4.254z" fill="#fff"/><defs><clipPath id="a"><path fill="#fff" transform="translate(20 4)" d="M0 0h24v11.657H0z"/></clipPath></defs></svg>