<svg width="132" height="95" fill="none" xmlns="http://www.w3.org/2000/svg"><path fill="#333" fill-opacity=".5" d="M5 6h119v73H5z"/><path d="M50 33a6 6 0 0 1 6-6h20a6 6 0 0 1 6 6v20a6 6 0 0 1-6 6H56a6 6 0 0 1-6-6V33z" fill="#0E0E0E"/><g clip-path="url(#a)"><path d="M70.868 37.5h-3.256l2.563 5.5-4.503 5.5h3.258l4.5-5.5-2.563-5.5zm4.176 0h3.294l-3.906 4.726-1.181-2.535 1.793-2.191zm-1.942 11-1.019-2.189 2.075-2.535L76.36 48.5h-3.258z" fill="#fff"/><path d="m56.379 37.5 4.21 5.5-6.75 5.5h6.823a4.278 4.278 0 0 0 4.167-3.316l.565-2.447a4.275 4.275 0 0 0-4.167-5.237H56.38z" fill="var(--brand-red-coral)"/><path d="m60.59 43-3 5.5h-3.75l6.75-5.5z" fill="#CC2F3E"/></g><path clip-rule="evenodd" d="m80.33 84.413 3.554 8.886H47.18l3.554-8.886h29.595z" stroke="#333" stroke-width="2.221"/><path d="M125.507 1.11H5.552A4.443 4.443 0 0 0 1.11 5.555V79.97a4.443 4.443 0 0 0 4.443 4.443h119.955a4.443 4.443 0 0 0 4.443-4.443V5.554a4.443 4.443 0 0 0-4.443-4.443z" stroke="#333" stroke-width="2.221"/><path d="M35.54 93.299h59.977" stroke="#333" stroke-width="2.221" stroke-linecap="round"/><path d="M121.066 6.665H9.996a3.332 3.332 0 0 0-3.332 3.332v65.53a3.332 3.332 0 0 0 3.332 3.333h111.07a3.332 3.332 0 0 0 3.332-3.332V9.997a3.332 3.332 0 0 0-3.332-3.332z" stroke="#333" stroke-width="2.221"/><defs><clipPath id="a"><path fill="#fff" transform="translate(53.672 37)" d="M0 0h24.667v12H0z"/></clipPath></defs></svg>