<svg width="84" height="58" fill="none" xmlns="http://www.w3.org/2000/svg"><path d="M73.16 6H11.84C10.824 6 10 6.806 10 7.8v35.4c0 .994.824 1.8 1.84 1.8h61.32c1.016 0 1.84-.806 1.84-1.8V7.8c0-.994-.824-1.8-1.84-1.8z" fill="#333" fill-opacity=".5"/><path d="M33 20.375A3.375 3.375 0 0 1 36.375 17h11.25A3.375 3.375 0 0 1 51 20.375v11.25A3.375 3.375 0 0 1 47.625 35h-11.25A3.375 3.375 0 0 1 33 31.625v-11.25z" fill="#0E0E0E"/><g clip-path="url(#a)"><path d="M44.739 22.906h-1.831L44.349 26l-2.533 3.094h1.833L46.18 26l-1.442-3.094zm2.349 0h1.853l-2.197 2.659-.664-1.426 1.008-1.233zm-1.092 6.188-.573-1.232 1.167-1.426 1.239 2.658h-1.833z" fill="#fff"/><path d="M36.588 22.906 38.957 26l-3.797 3.094h3.838a2.408 2.408 0 0 0 2.344-1.866l.317-1.376a2.405 2.405 0 0 0-2.343-2.946h-2.728z" fill="var(--brand-red-coral)"/><path d="m38.957 26-1.688 3.094H35.16L38.957 26z" fill="#CC2F3E"/></g><path d="M72.7 6.317H11.612A2.221 2.221 0 0 0 9.391 8.54v34.43c0 1.227.994 2.222 2.221 2.222H72.7a2.221 2.221 0 0 0 2.222-2.222V8.54A2.221 2.221 0 0 0 72.7 6.317z" stroke="#333" stroke-width="2"/><path clip-rule="evenodd" d="M81.587 49.634a1.107 1.107 0 0 1 1.111 1.111v2.221c0 .92-.373 1.753-.976 2.356a3.322 3.322 0 0 1-2.356.976H4.949c-.92 0-1.753-.373-2.356-.976a3.322 3.322 0 0 1-.976-2.356v-2.221a1.107 1.107 0 0 1 1.11-1.11h78.86z" stroke="#333" stroke-width="2"/><path clip-rule="evenodd" d="M76.034 1.875c.92 0 1.753.372 2.356.975s.976 1.436.976 2.357v44.428H4.949V5.207c0-.92.373-1.754.976-2.357a3.322 3.322 0 0 1 2.356-.975h67.753z" stroke="#333" stroke-width="2"/><path clip-rule="evenodd" d="M48.267 49.634v1.111a1.107 1.107 0 0 1-1.11 1.11H38.27a1.107 1.107 0 0 1-1.11-1.11v-1.11h11.106z" stroke="#333" stroke-width="2"/><defs><clipPath id="a"><path fill="#fff" transform="translate(35.066 22.625)" d="M0 0h13.875v6.75H0z"/></clipPath></defs></svg>