<svg width="86" height="58" fill="none" xmlns="http://www.w3.org/2000/svg"><path fill="#F2F3F4" d="M10 7h66v38H10z"/><path d="M34 20.375A3.375 3.375 0 0 1 37.375 17h11.25A3.375 3.375 0 0 1 52 20.375v11.25A3.375 3.375 0 0 1 48.625 35h-11.25A3.375 3.375 0 0 1 34 31.625v-11.25z" fill="#0E0E0E"/><g clip-path="url(#a)"><path d="M45.737 22.906h-1.832L45.347 26l-2.533 3.094h1.833L47.179 26l-1.442-3.094zm2.349 0h1.853l-2.197 2.659-.664-1.426 1.008-1.233zm-1.092 6.188-.573-1.232 1.167-1.426 1.239 2.658h-1.833z" fill="#fff"/><path d="M37.586 22.906 39.955 26l-3.797 3.094h3.838a2.407 2.407 0 0 0 2.343-1.866l.318-1.376a2.405 2.405 0 0 0-2.343-2.946h-2.728z" fill="var(--brand-red-coral)"/><path d="m39.955 26-1.688 3.094h-2.109L39.955 26z" fill="#CC2F3E"/></g><path d="M73.2 6.316H12.112a2.221 2.221 0 0 0-2.221 2.222v34.431c0 1.227.994 2.222 2.221 2.222H73.2a2.221 2.221 0 0 0 2.222-2.222V8.538A2.221 2.221 0 0 0 73.2 6.316z" stroke="#333" stroke-width="2"/><path clip-rule="evenodd" d="M82.086 49.634a1.107 1.107 0 0 1 1.11 1.11v2.222a3.32 3.32 0 0 1-.975 2.356 3.322 3.322 0 0 1-2.356.976H5.448c-.92 0-1.753-.373-2.356-.976a3.322 3.322 0 0 1-.976-2.356v-2.221a1.107 1.107 0 0 1 1.11-1.111h78.86z" stroke="#333" stroke-width="2"/><path clip-rule="evenodd" d="M76.532 1.874c.92 0 1.754.373 2.356.976.603.603.976 1.436.976 2.356v44.428H5.448V5.206c0-.92.373-1.753.976-2.356a3.322 3.322 0 0 1 2.356-.976h67.752zm-27.767 47.76v1.11a1.107 1.107 0 0 1-1.11 1.111h-8.886a1.107 1.107 0 0 1-1.111-1.11v-1.111h11.107z" stroke="#333" stroke-width="2"/><defs><clipPath id="a"><path fill="#fff" transform="translate(36.064 22.625)" d="M0 0h13.875v6.75H0z"/></clipPath></defs></svg>