<svg width="32" height="32" fill="none" xmlns="http://www.w3.org/2000/svg"><rect width="32" height="32" rx="16" fill="#85ACB0"/><path fill-rule="evenodd" clip-rule="evenodd" d="M20.967 23.203l-3.653-6.432h2.424l.652-1.308h-3.142L20.96 9.02l3.712 6.443h-2.825l-.653 1.308h3.478l-3.705 6.432zM7.564 16.771h7.424l-.939 1.666.72 1.33 1.383-2.4 3.692 6.502h-7.438l1.659-2.88-.72-1.33-2.069 3.556-3.712-6.444zm3.78-7.87l1.875 3.296.848-1.144-1.526-2.687h7.29l-3.671 6.372-1.39-2.446-.847 1.145 1.147 2.026H7.564l3.78-6.561zm14.835 6.562l-4.465-7.75a1.304 1.304 0 00-1.13-.654h-8.931c-.466 0-.897.248-1.13.653l-4.466 7.751a1.312 1.312 0 000 1.308l4.466 7.751c.233.405.664.654 1.13.654h8.93c.467 0 .897-.25 1.13-.654l4.466-7.751a1.311 1.311 0 000-1.308z" fill="#fff"/></svg>