<svg width="133" height="106" fill="none" xmlns="http://www.w3.org/2000/svg"><path d="M74.667 42H57.333A3.333 3.333 0 0054 45.333v17.334A3.333 3.333 0 0057.333 66h17.334A3.333 3.333 0 0078 62.667V45.333A3.333 3.333 0 0074.667 42z" fill="#313C86"/><path fill-rule="evenodd" clip-rule="evenodd" d="M73.656 50.167a3.76 3.76 0 00-2.409.872l-6.213 5.193a3.51 3.51 0 01-1.482 1.76h.67c.876 0 1.725-.306 2.4-.866L75 50.166h-1.344zm-4.73 2.074l-1.558-2.074h-2.71l2.618 3.451 1.65-1.377zm1.668 5.752l-1.599-2.107 1.648-1.366 2.614 3.473h-2.663zm-6.155-6.673a2.974 2.974 0 00-2.348-1.146h-3.295l1.223 1.516H62.1a1.451 1.451 0 011.144.564 1.552 1.552 0 01.288 1.303l-.392 1.74a1.475 1.475 0 01-1.432 1.173h-2.8L57 57.992h4.705a3 3 0 002.912-2.348l.391-1.737a3.075 3.075 0 00-.57-2.587zm-4.543 1.067l1.287 1.595-2.007 1.595-2.06 1.633 1.459-6.458 1.32 1.635z" fill="#fff"/><path d="M124 1H9a8 8 0 00-8 8v88a8 8 0 008 8h115a8 8 0 008-8V9a8 8 0 00-8-8z" stroke="#313C86" stroke-width="2"/><path d="M8.5 55a1.5 1.5 0 100-3 1.5 1.5 0 000 3zM124 55a2 2 0 100-4 2 2 0 000 4z" stroke="#313C86"/><path d="M113 9H19a4 4 0 00-4 4v81a4 4 0 004 4h94a4 4 0 004-4V13a4 4 0 00-4-4z" stroke="#313C86" stroke-width="2"/></svg>