<svg xmlns="http://www.w3.org/2000/svg" xmlns:xlink="http://www.w3.org/1999/xlink" width="189" height="401"><defs><path id="a" d="M0 0h480v480H0z"/></defs><g fill="none" fill-rule="evenodd" transform="translate(-211)"><mask id="b" fill="#fff"><use xlink:href="#a"/></mask><g fill="#FF444F" fill-rule="nonzero" mask="url(#b)" opacity=".08"><path d="M788.165 245.71c37.49 37.49 37.49 98.273 0 135.764L652.401 517.238c-37.49 37.49-98.274 37.49-135.765 0L380.872 381.474c-37.49-37.49-37.49-98.274 0-135.765l135.764-135.764c37.49-37.49 98.274-37.49 135.765 0l135.764 135.764zM604.52-149.468c37.49 37.49 37.49 98.275 0 135.765L468.754 122.062c-37.49 37.49-98.274 37.49-135.764 0L197.225-13.702c-37.49-37.49-37.49-98.274 0-135.765L332.99-285.23c37.49-37.49 98.274-37.49 135.764 0l135.765 135.764z"/></g></g></svg>