<svg width="16" height="16" xmlns="http://www.w3.org/2000/svg"><path d="M13 9h-1V2H4v12h5v1H4a1 1 0 0 1-1-1V2a1 1 0 0 1 1-1h8a1 1 0 0 1 1 1v7zM5.5 4h5a.5.5 0 1 1 0 1h-5a.5.5 0 0 1 0-1zm0 2h5a.5.5 0 1 1 0 1h-5a.5.5 0 0 1 0-1zm0 2h5a.5.5 0 1 1 0 1h-5a.5.5 0 0 1 0-1zm0 2h3a.5.5 0 1 1 0 1h-3a.5.5 0 1 1 0-1zm6.99 3.87a.536.536 0 0 0-.115-.364c-.076-.088-.21-.171-.401-.25a8.175 8.175 0 0 1-.53-.236 1.84 1.84 0 0 1-.42-.279 1.093 1.093 0 0 1-.27-.366 1.222 1.222 0 0 1-.093-.504c0-.33.111-.602.334-.816.223-.214.52-.338.89-.373v-.619h.467v.63c.357.053.638.2.842.441.204.241.306.548.306.919h-.99c0-.203-.04-.36-.117-.469a.386.386 0 0 0-.334-.164.379.379 0 0 0-.3.122.49.49 0 0 0-.108.335c0 .144.041.26.123.344.082.085.214.166.396.243.182.078.353.158.514.24.161.084.3.178.418.283.117.106.209.229.275.37.066.14.1.309.1.506 0 .334-.106.607-.318.818-.212.21-.5.334-.866.369v.589h-.466v-.592c-.426-.045-.752-.191-.98-.438-.227-.247-.341-.573-.341-.977h.987c0 .222.05.392.148.508a.521.521 0 0 0 .42.174.42.42 0 0 0 .314-.118.451.451 0 0 0 .114-.327z" fill="#FFF" fill-rule="evenodd"/></svg>